<?xml version="1.0" encoding="UTF-8"?>
<svg xmlns="http://www.w3.org/2000/svg" version="1.1" width="200" height="200" viewBox="0 0 200 200"><rect x="0" y="0" width="200" height="200" fill="#ffffff"/><g transform="scale(5.405)"><g transform="translate(0,0)"><path fill-rule="evenodd" d="M8 0L8 3L9 3L9 4L10 4L10 5L12 5L12 4L13 4L13 6L12 6L12 9L11 9L11 10L10 10L10 11L9 11L9 10L8 10L8 11L7 11L7 10L5 10L5 8L2 8L2 9L1 9L1 10L0 10L0 13L1 13L1 14L2 14L2 13L3 13L3 11L4 11L4 12L5 12L5 14L6 14L6 15L4 15L4 14L3 14L3 15L1 15L1 16L0 16L0 20L1 20L1 18L3 18L3 19L2 19L2 20L3 20L3 19L4 19L4 18L5 18L5 19L7 19L7 18L8 18L8 16L6 16L6 15L7 15L7 14L6 14L6 13L7 13L7 12L8 12L8 13L9 13L9 16L10 16L10 17L12 17L12 18L14 18L14 16L15 16L15 17L16 17L16 18L15 18L15 20L11 20L11 18L9 18L9 20L4 20L4 21L3 21L3 22L2 22L2 21L0 21L0 29L1 29L1 25L2 25L2 26L4 26L4 25L5 25L5 24L6 24L6 25L7 25L7 26L5 26L5 28L4 28L4 27L2 27L2 29L8 29L8 30L9 30L9 31L10 31L10 32L8 32L8 35L9 35L9 36L10 36L10 34L11 34L11 32L12 32L12 33L15 33L15 32L14 32L14 31L13 31L13 30L12 30L12 27L14 27L14 29L15 29L15 27L17 27L17 28L16 28L16 31L17 31L17 32L20 32L20 33L19 33L19 34L18 34L18 35L21 35L21 36L20 36L20 37L24 37L24 35L25 35L25 34L28 34L28 33L30 33L30 34L29 34L29 35L28 35L28 36L27 36L27 37L28 37L28 36L29 36L29 37L30 37L30 36L31 36L31 37L37 37L37 34L36 34L36 36L34 36L34 35L35 35L35 34L34 34L34 33L37 33L37 30L36 30L36 29L37 29L37 26L36 26L36 25L37 25L37 22L33 22L33 26L34 26L34 27L33 27L33 28L32 28L32 26L31 26L31 24L32 24L32 21L33 21L33 20L34 20L34 21L37 21L37 18L36 18L36 17L37 17L37 14L35 14L35 15L36 15L36 16L34 16L34 13L35 13L35 12L36 12L36 13L37 13L37 10L35 10L35 12L34 12L34 11L33 11L33 9L32 9L32 8L29 8L29 6L28 6L28 5L27 5L27 4L29 4L29 3L28 3L28 1L27 1L27 2L26 2L26 3L24 3L24 2L25 2L25 1L24 1L24 0L21 0L21 2L22 2L22 3L20 3L20 1L18 1L18 0ZM11 1L11 2L14 2L14 5L15 5L15 8L14 8L14 6L13 6L13 8L14 8L14 9L12 9L12 10L14 10L14 9L15 9L15 8L18 8L18 9L16 9L16 10L15 10L15 11L13 11L13 13L12 13L12 12L11 12L11 13L10 13L10 12L9 12L9 13L10 13L10 15L11 15L11 13L12 13L12 15L13 15L13 13L14 13L14 12L16 12L16 15L15 15L15 14L14 14L14 15L15 15L15 16L16 16L16 15L19 15L19 17L22 17L22 19L23 19L23 20L22 20L22 21L19 21L19 20L17 20L17 21L15 21L15 22L16 22L16 23L12 23L12 21L11 21L11 20L10 20L10 23L9 23L9 26L7 26L7 27L6 27L6 28L8 28L8 29L10 29L10 28L8 28L8 27L9 27L9 26L11 26L11 24L14 24L14 25L12 25L12 26L14 26L14 27L15 27L15 26L16 26L16 25L19 25L19 24L20 24L20 25L22 25L22 26L20 26L20 28L19 28L19 26L18 26L18 28L17 28L17 29L18 29L18 28L19 28L19 30L17 30L17 31L20 31L20 28L21 28L21 30L22 30L22 32L21 32L21 33L22 33L22 34L25 34L25 33L24 33L24 32L26 32L26 33L27 33L27 32L28 32L28 30L27 30L27 29L28 29L28 27L30 27L30 26L27 26L27 29L25 29L25 28L26 28L26 26L24 26L24 25L27 25L27 24L26 24L26 23L27 23L27 22L28 22L28 25L30 25L30 24L29 24L29 23L30 23L30 22L31 22L31 21L32 21L32 20L31 20L31 21L27 21L27 20L28 20L28 19L26 19L26 18L29 18L29 19L30 19L30 18L32 18L32 19L34 19L34 20L36 20L36 18L35 18L35 17L34 17L34 16L33 16L33 17L30 17L30 15L29 15L29 17L25 17L25 16L26 16L26 14L28 14L28 13L29 13L29 14L32 14L32 15L31 15L31 16L32 16L32 15L33 15L33 13L34 13L34 12L33 12L33 13L29 13L29 12L30 12L30 11L28 11L28 13L27 13L27 11L26 11L26 10L27 10L27 9L26 9L26 8L28 8L28 6L27 6L27 7L26 7L26 6L25 6L25 7L26 7L26 8L23 8L23 9L22 9L22 8L21 8L21 7L22 7L22 6L23 6L23 7L24 7L24 4L23 4L23 5L21 5L21 4L20 4L20 6L19 6L19 5L17 5L17 4L16 4L16 3L17 3L17 1L15 1L15 2L14 2L14 1ZM23 1L23 2L24 2L24 1ZM9 2L9 3L10 3L10 4L11 4L11 3L10 3L10 2ZM18 2L18 4L19 4L19 2ZM26 3L26 4L27 4L27 3ZM8 5L8 9L9 9L9 8L11 8L11 6L10 6L10 7L9 7L9 5ZM16 5L16 7L17 7L17 5ZM18 6L18 8L19 8L19 9L21 9L21 8L19 8L19 6ZM20 6L20 7L21 7L21 6ZM6 8L6 9L7 9L7 8ZM34 8L34 9L37 9L37 8ZM3 9L3 10L2 10L2 11L3 11L3 10L4 10L4 11L5 11L5 12L7 12L7 11L5 11L5 10L4 10L4 9ZM23 9L23 11L22 11L22 10L21 10L21 11L20 11L20 10L19 10L19 11L17 11L17 10L16 10L16 11L17 11L17 12L18 12L18 13L17 13L17 14L18 14L18 13L20 13L20 15L21 15L21 16L22 16L22 17L23 17L23 18L25 18L25 17L23 17L23 16L22 16L22 14L24 14L24 13L25 13L25 14L26 14L26 12L23 12L23 11L24 11L24 10L25 10L25 9ZM28 9L28 10L30 10L30 9ZM31 10L31 11L32 11L32 10ZM21 11L21 12L20 12L20 13L22 13L22 11ZM1 12L1 13L2 13L2 12ZM3 15L3 16L2 16L2 17L4 17L4 15ZM5 16L5 18L7 18L7 17L6 17L6 16ZM17 17L17 19L20 19L20 20L21 20L21 18L18 18L18 17ZM29 17L29 18L30 18L30 17ZM24 19L24 20L25 20L25 21L24 21L24 22L25 22L25 21L26 21L26 22L27 22L27 21L26 21L26 20L25 20L25 19ZM4 21L4 22L3 22L3 23L1 23L1 24L3 24L3 23L5 23L5 22L7 22L7 23L6 23L6 24L8 24L8 22L9 22L9 21L8 21L8 22L7 22L7 21ZM13 21L13 22L14 22L14 21ZM17 21L17 23L16 23L16 24L15 24L15 25L14 25L14 26L15 26L15 25L16 25L16 24L17 24L17 23L18 23L18 24L19 24L19 21ZM22 21L22 22L23 22L23 21ZM10 23L10 24L11 24L11 23ZM20 23L20 24L22 24L22 25L23 25L23 24L25 24L25 23ZM34 23L34 24L35 24L35 25L34 25L34 26L35 26L35 27L34 27L34 28L33 28L33 29L34 29L34 32L33 32L33 33L34 33L34 32L35 32L35 31L36 31L36 30L35 30L35 29L34 29L34 28L35 28L35 27L36 27L36 26L35 26L35 25L36 25L36 23ZM22 26L22 27L21 27L21 28L22 28L22 30L25 30L25 31L26 31L26 30L25 30L25 29L23 29L23 28L22 28L22 27L23 27L23 26ZM24 27L24 28L25 28L25 27ZM29 29L29 32L32 32L32 29ZM30 30L30 31L31 31L31 30ZM22 32L22 33L23 33L23 32ZM9 33L9 34L10 34L10 33ZM16 33L16 34L15 34L15 36L14 36L14 35L13 35L13 34L12 34L12 35L13 35L13 36L11 36L11 37L15 37L15 36L17 36L17 33ZM30 34L30 35L32 35L32 36L33 36L33 35L34 35L34 34ZM22 35L22 36L23 36L23 35ZM18 36L18 37L19 37L19 36ZM25 36L25 37L26 37L26 36ZM0 0L0 7L7 7L7 0ZM1 1L1 6L6 6L6 1ZM2 2L2 5L5 5L5 2ZM30 0L30 7L37 7L37 0ZM31 1L31 6L36 6L36 1ZM32 2L32 5L35 5L35 2ZM0 30L0 37L7 37L7 30ZM1 31L1 36L6 36L6 31ZM2 32L2 35L5 35L5 32Z" fill="#000000"/></g></g></svg>
