<?xml version="1.0" encoding="UTF-8"?>
<svg xmlns="http://www.w3.org/2000/svg" version="1.1" width="200" height="200" viewBox="0 0 200 200"><rect x="0" y="0" width="200" height="200" fill="#ffffff"/><g transform="scale(5.405)"><g transform="translate(0,0)"><path fill-rule="evenodd" d="M8 0L8 3L9 3L9 4L11 4L11 5L13 5L13 6L12 6L12 7L13 7L13 8L14 8L14 9L13 9L13 11L14 11L14 12L13 12L13 13L12 13L12 10L11 10L11 6L10 6L10 5L8 5L8 9L9 9L9 10L11 10L11 12L9 12L9 11L8 11L8 10L6 10L6 9L7 9L7 8L6 8L6 9L5 9L5 8L2 8L2 9L0 9L0 11L1 11L1 13L0 13L0 16L1 16L1 14L3 14L3 13L4 13L4 15L5 15L5 16L3 16L3 17L5 17L5 16L6 16L6 17L7 17L7 16L6 16L6 15L8 15L8 16L10 16L10 15L8 15L8 14L6 14L6 15L5 15L5 13L4 13L4 12L5 12L5 11L7 11L7 12L6 12L6 13L8 13L8 12L9 12L9 14L10 14L10 13L11 13L11 17L14 17L14 18L12 18L12 19L11 19L11 18L10 18L10 17L8 17L8 20L9 20L9 21L7 21L7 20L5 20L5 22L4 22L4 23L5 23L5 24L6 24L6 25L8 25L8 24L9 24L9 26L3 26L3 25L2 25L2 28L3 28L3 29L5 29L5 28L6 28L6 29L7 29L7 28L6 28L6 27L9 27L9 28L8 28L8 30L9 30L9 32L8 32L8 35L9 35L9 37L12 37L12 36L10 36L10 34L9 34L9 33L10 33L10 32L11 32L11 31L12 31L12 30L15 30L15 31L14 31L14 32L13 32L13 33L15 33L15 34L16 34L16 35L17 35L17 36L15 36L15 37L18 37L18 35L19 35L19 36L21 36L21 35L23 35L23 37L24 37L24 35L25 35L25 34L23 34L23 33L22 33L22 31L21 31L21 30L19 30L19 29L22 29L22 30L24 30L24 31L23 31L23 32L24 32L24 33L26 33L26 35L28 35L28 36L27 36L27 37L28 37L28 36L29 36L29 35L28 35L28 33L29 33L29 34L33 34L33 36L32 36L32 35L30 35L30 36L31 36L31 37L37 37L37 34L36 34L36 36L34 36L34 34L33 34L33 32L34 32L34 33L37 33L37 32L34 32L34 29L35 29L35 30L36 30L36 31L37 31L37 30L36 30L36 29L37 29L37 26L36 26L36 25L37 25L37 22L36 22L36 21L37 21L37 18L36 18L36 17L35 17L35 16L34 16L34 13L35 13L35 14L36 14L36 16L37 16L37 14L36 14L36 13L37 13L37 12L36 12L36 11L37 11L37 10L36 10L36 9L37 9L37 8L34 8L34 9L32 9L32 8L28 8L28 7L29 7L29 4L28 4L28 3L29 3L29 2L28 2L28 1L27 1L27 2L28 2L28 3L25 3L25 2L26 2L26 1L25 1L25 2L24 2L24 4L23 4L23 2L22 2L22 1L23 1L23 0L19 0L19 2L18 2L18 1L16 1L16 0L15 0L15 1L14 1L14 2L13 2L13 0L10 0L10 1L12 1L12 2L13 2L13 3L14 3L14 4L16 4L16 3L14 3L14 2L15 2L15 1L16 1L16 2L18 2L18 4L17 4L17 5L16 5L16 7L15 7L15 5L13 5L13 4L12 4L12 3L10 3L10 2L9 2L9 0ZM19 2L19 4L18 4L18 6L17 6L17 7L16 7L16 9L15 9L15 10L14 10L14 11L15 11L15 14L18 14L18 15L17 15L17 16L16 16L16 18L15 18L15 19L14 19L14 20L13 20L13 19L12 19L12 21L11 21L11 19L10 19L10 21L9 21L9 23L10 23L10 28L9 28L9 29L10 29L10 30L11 30L11 29L10 29L10 28L12 28L12 29L14 29L14 28L13 28L13 26L14 26L14 27L15 27L15 26L16 26L16 27L17 27L17 28L18 28L18 27L21 27L21 26L19 26L19 25L18 25L18 23L17 23L17 22L18 22L18 20L19 20L19 19L18 19L18 17L19 17L19 14L18 14L18 13L19 13L19 12L18 12L18 11L15 11L15 10L16 10L16 9L17 9L17 10L18 10L18 9L19 9L19 11L20 11L20 13L22 13L22 12L23 12L23 13L24 13L24 14L25 14L25 16L24 16L24 15L22 15L22 16L20 16L20 18L22 18L22 19L21 19L21 20L20 20L20 21L19 21L19 24L21 24L21 25L22 25L22 26L23 26L23 29L25 29L25 28L26 28L26 29L28 29L28 27L30 27L30 28L36 28L36 26L35 26L35 25L34 25L34 26L33 26L33 23L34 23L34 24L35 24L35 23L36 23L36 22L35 22L35 21L30 21L30 20L31 20L31 19L30 19L30 20L29 20L29 21L27 21L27 19L26 19L26 17L27 17L27 18L29 18L29 17L30 17L30 18L32 18L32 19L33 19L33 20L36 20L36 18L33 18L33 17L34 17L34 16L33 16L33 15L32 15L32 16L33 16L33 17L30 17L30 15L27 15L27 16L26 16L26 14L33 14L33 13L34 13L34 12L35 12L35 11L36 11L36 10L35 10L35 9L34 9L34 12L33 12L33 13L27 13L27 12L26 12L26 10L27 10L27 9L26 9L26 8L27 8L27 7L28 7L28 6L27 6L27 7L26 7L26 6L25 6L25 7L26 7L26 8L24 8L24 6L23 6L23 7L22 7L22 6L21 6L21 5L23 5L23 4L20 4L20 2ZM21 2L21 3L22 3L22 2ZM19 4L19 6L18 6L18 8L17 8L17 9L18 9L18 8L19 8L19 6L20 6L20 8L22 8L22 9L21 9L21 10L23 10L23 12L24 12L24 13L25 13L25 14L26 14L26 12L24 12L24 10L25 10L25 9L24 9L24 10L23 10L23 8L22 8L22 7L21 7L21 6L20 6L20 4ZM26 4L26 5L28 5L28 4ZM9 6L9 7L10 7L10 6ZM13 6L13 7L14 7L14 6ZM9 8L9 9L10 9L10 8ZM2 9L2 10L1 10L1 11L2 11L2 10L4 10L4 11L5 11L5 10L4 10L4 9ZM28 9L28 10L29 10L29 11L28 11L28 12L30 12L30 9ZM31 10L31 11L32 11L32 10ZM17 12L17 13L18 13L18 12ZM13 13L13 14L12 14L12 15L13 15L13 14L14 14L14 13ZM22 16L22 18L24 18L24 19L23 19L23 20L22 20L22 21L21 21L21 22L20 22L20 23L22 23L22 22L23 22L23 24L22 24L22 25L24 25L24 26L26 26L26 28L27 28L27 26L30 26L30 27L32 27L32 26L31 26L31 24L32 24L32 23L33 23L33 22L32 22L32 23L31 23L31 22L30 22L30 21L29 21L29 22L27 22L27 21L26 21L26 20L25 20L25 18L24 18L24 17L23 17L23 16ZM25 16L25 17L26 17L26 16ZM27 16L27 17L29 17L29 16ZM0 17L0 18L1 18L1 19L4 19L4 18L1 18L1 17ZM5 18L5 19L7 19L7 18ZM15 19L15 21L12 21L12 22L11 22L11 26L13 26L13 23L14 23L14 24L15 24L15 23L14 23L14 22L16 22L16 19ZM0 20L0 29L1 29L1 24L3 24L3 20ZM23 20L23 21L25 21L25 22L24 22L24 25L27 25L27 24L28 24L28 25L30 25L30 24L29 24L29 23L30 23L30 22L29 22L29 23L27 23L27 22L26 22L26 21L25 21L25 20ZM1 21L1 23L2 23L2 21ZM6 21L6 22L7 22L7 23L6 23L6 24L8 24L8 22L7 22L7 21ZM34 22L34 23L35 23L35 22ZM26 23L26 24L27 24L27 23ZM16 25L16 26L17 26L17 27L18 27L18 25ZM34 26L34 27L35 27L35 26ZM4 27L4 28L5 28L5 27ZM24 27L24 28L25 28L25 27ZM16 29L16 30L17 30L17 29ZM29 29L29 32L32 32L32 29ZM25 30L25 32L26 32L26 33L27 33L27 32L28 32L28 30ZM30 30L30 31L31 31L31 30ZM15 31L15 33L17 33L17 34L19 34L19 33L20 33L20 32L21 32L21 31L19 31L19 33L18 33L18 32L17 32L17 31ZM11 34L11 35L12 35L12 34ZM13 34L13 36L14 36L14 34ZM25 36L25 37L26 37L26 36ZM0 0L0 7L7 7L7 0ZM1 1L1 6L6 6L6 1ZM2 2L2 5L5 5L5 2ZM30 0L30 7L37 7L37 0ZM31 1L31 6L36 6L36 1ZM32 2L32 5L35 5L35 2ZM0 30L0 37L7 37L7 30ZM1 31L1 36L6 36L6 31ZM2 32L2 35L5 35L5 32Z" fill="#000000"/></g></g></svg>
