<?xml version="1.0" encoding="UTF-8"?>
<svg xmlns="http://www.w3.org/2000/svg" version="1.1" width="200" height="200" viewBox="0 0 200 200"><rect x="0" y="0" width="200" height="200" fill="#ffffff"/><g transform="scale(5.405)"><g transform="translate(0,0)"><path fill-rule="evenodd" d="M10 0L10 2L11 2L11 0ZM14 0L14 2L13 2L13 5L12 5L12 7L13 7L13 8L11 8L11 9L10 9L10 7L11 7L11 6L10 6L10 7L9 7L9 4L10 4L10 5L11 5L11 4L12 4L12 3L11 3L11 4L10 4L10 3L9 3L9 1L8 1L8 7L9 7L9 8L5 8L5 9L3 9L3 8L2 8L2 9L1 9L1 10L0 10L0 12L2 12L2 13L3 13L3 14L2 14L2 15L0 15L0 19L1 19L1 20L0 20L0 21L1 21L1 22L0 22L0 23L1 23L1 24L0 24L0 25L1 25L1 26L0 26L0 27L2 27L2 28L0 28L0 29L2 29L2 28L4 28L4 27L5 27L5 29L7 29L7 28L9 28L9 29L8 29L8 32L9 32L9 29L11 29L11 31L10 31L10 32L11 32L11 33L10 33L10 34L8 34L8 35L9 35L9 36L10 36L10 34L11 34L11 35L12 35L12 36L13 36L13 37L14 37L14 36L13 36L13 28L12 28L12 29L11 29L11 28L9 28L9 27L11 27L11 26L13 26L13 25L12 25L12 23L13 23L13 24L14 24L14 23L17 23L17 24L19 24L19 25L21 25L21 24L19 24L19 23L20 23L20 22L21 22L21 23L22 23L22 26L21 26L21 27L19 27L19 28L17 28L17 25L16 25L16 24L15 24L15 26L14 26L14 27L15 27L15 28L14 28L14 34L15 34L15 33L16 33L16 36L15 36L15 37L19 37L19 36L17 36L17 35L18 35L18 34L17 34L17 33L16 33L16 32L19 32L19 34L21 34L21 35L20 35L20 36L21 36L21 37L22 37L22 36L24 36L24 37L25 37L25 31L26 31L26 32L27 32L27 33L29 33L29 34L28 34L28 35L27 35L27 34L26 34L26 36L27 36L27 37L29 37L29 36L30 36L30 37L31 37L31 36L32 36L32 35L34 35L34 34L33 34L33 30L34 30L34 31L35 31L35 33L36 33L36 34L35 34L35 35L37 35L37 32L36 32L36 31L37 31L37 28L36 28L36 29L35 29L35 30L34 30L34 24L30 24L30 23L33 23L33 22L34 22L34 23L35 23L35 25L36 25L36 27L37 27L37 20L36 20L36 21L35 21L35 22L34 22L34 21L33 21L33 22L31 22L31 20L33 20L33 18L32 18L32 19L31 19L31 16L29 16L29 14L28 14L28 12L26 12L26 13L25 13L25 12L24 12L24 13L23 13L23 12L22 12L22 11L23 11L23 10L22 10L22 9L24 9L24 8L22 8L22 9L21 9L21 8L20 8L20 7L21 7L21 5L20 5L20 4L22 4L22 5L23 5L23 6L22 6L22 7L23 7L23 6L24 6L24 7L25 7L25 9L26 9L26 7L27 7L27 5L25 5L25 6L24 6L24 4L23 4L23 2L25 2L25 4L26 4L26 3L28 3L28 5L29 5L29 0L28 0L28 2L25 2L25 1L27 1L27 0L25 0L25 1L23 1L23 2L22 2L22 3L20 3L20 4L19 4L19 3L17 3L17 4L19 4L19 5L18 5L18 7L17 7L17 6L16 6L16 7L17 7L17 8L14 8L14 7L15 7L15 6L14 6L14 7L13 7L13 5L14 5L14 2L15 2L15 3L16 3L16 2L17 2L17 1L16 1L16 2L15 2L15 0ZM18 0L18 1L21 1L21 0ZM19 6L19 7L20 7L20 6ZM25 6L25 7L26 7L26 6ZM28 6L28 8L27 8L27 9L28 9L28 8L29 8L29 9L30 9L30 8L29 8L29 6ZM13 8L13 10L12 10L12 9L11 9L11 10L12 10L12 13L9 13L9 14L8 14L8 12L11 12L11 11L10 11L10 10L9 10L9 9L6 9L6 10L7 10L7 11L6 11L6 12L5 12L5 11L4 11L4 12L3 12L3 13L4 13L4 14L3 14L3 15L4 15L4 17L3 17L3 16L1 16L1 18L2 18L2 17L3 17L3 18L4 18L4 19L3 19L3 20L2 20L2 21L3 21L3 25L2 25L2 24L1 24L1 25L2 25L2 26L3 26L3 27L4 27L4 26L3 26L3 25L4 25L4 24L5 24L5 26L9 26L9 24L10 24L10 23L11 23L11 22L15 22L15 21L17 21L17 23L18 23L18 20L16 20L16 19L18 19L18 18L19 18L19 21L20 21L20 18L19 18L19 16L18 16L18 12L20 12L20 10L21 10L21 11L22 11L22 10L21 10L21 9L20 9L20 8L18 8L18 9L17 9L17 10L16 10L16 9L15 9L15 10L14 10L14 8ZM31 8L31 10L29 10L29 12L30 12L30 15L31 15L31 12L33 12L33 13L34 13L34 11L37 11L37 9L36 9L36 8ZM18 9L18 10L17 10L17 11L19 11L19 9ZM34 9L34 10L32 10L32 11L34 11L34 10L35 10L35 9ZM2 10L2 11L3 11L3 10ZM13 10L13 11L14 11L14 10ZM24 10L24 11L25 11L25 10ZM26 10L26 11L28 11L28 10ZM30 11L30 12L31 12L31 11ZM6 12L6 13L5 13L5 14L4 14L4 15L7 15L7 16L6 16L6 17L7 17L7 18L5 18L5 17L4 17L4 18L5 18L5 20L4 20L4 21L7 21L7 22L6 22L6 23L7 23L7 24L6 24L6 25L8 25L8 24L9 24L9 23L7 23L7 22L8 22L8 21L7 21L7 20L8 20L8 19L9 19L9 17L10 17L10 20L9 20L9 22L10 22L10 20L11 20L11 21L13 21L13 20L14 20L14 19L13 19L13 18L12 18L12 17L10 17L10 16L11 16L11 15L9 15L9 17L7 17L7 16L8 16L8 14L6 14L6 13L7 13L7 12ZM14 12L14 15L15 15L15 16L14 16L14 17L15 17L15 19L16 19L16 17L17 17L17 18L18 18L18 17L17 17L17 13L16 13L16 12ZM36 12L36 13L35 13L35 14L32 14L32 15L37 15L37 12ZM15 13L15 15L16 15L16 13ZM19 13L19 15L20 15L20 16L21 16L21 18L22 18L22 17L23 17L23 15L24 15L24 16L25 16L25 17L26 17L26 15L27 15L27 16L28 16L28 18L29 18L29 19L28 19L28 20L29 20L29 19L30 19L30 20L31 20L31 19L30 19L30 18L29 18L29 16L28 16L28 15L27 15L27 13L26 13L26 15L25 15L25 13L24 13L24 14L22 14L22 15L20 15L20 14L21 14L21 13ZM12 14L12 15L13 15L13 14ZM35 16L35 18L34 18L34 19L37 19L37 17L36 17L36 16ZM7 18L7 19L6 19L6 20L7 20L7 19L8 19L8 18ZM11 18L11 19L12 19L12 20L13 20L13 19L12 19L12 18ZM21 19L21 22L22 22L22 19ZM23 19L23 21L24 21L24 20L25 20L25 22L24 22L24 23L23 23L23 24L24 24L24 25L23 25L23 26L24 26L24 27L22 27L22 28L25 28L25 29L26 29L26 27L28 27L28 25L27 25L27 26L26 26L26 27L25 27L25 24L26 24L26 23L25 23L25 22L26 22L26 20L27 20L27 19ZM1 22L1 23L2 23L2 22ZM28 22L28 24L29 24L29 22ZM24 23L24 24L25 24L25 23ZM10 25L10 26L11 26L11 25ZM30 25L30 26L29 26L29 28L30 28L30 26L31 26L31 28L33 28L33 25ZM15 26L15 27L16 27L16 26ZM6 27L6 28L7 28L7 27ZM20 28L20 29L21 29L21 30L20 30L20 31L19 31L19 29L17 29L17 31L19 31L19 32L21 32L21 33L23 33L23 35L24 35L24 33L23 33L23 32L24 32L24 31L25 31L25 30L24 30L24 31L23 31L23 32L22 32L22 30L23 30L23 29L21 29L21 28ZM27 28L27 29L28 29L28 28ZM29 29L29 32L32 32L32 29ZM15 30L15 31L16 31L16 30ZM27 30L27 32L28 32L28 30ZM30 30L30 31L31 31L31 30ZM11 33L11 34L12 34L12 33ZM30 33L30 36L31 36L31 33ZM33 36L33 37L34 37L34 36ZM36 36L36 37L37 37L37 36ZM0 0L0 7L7 7L7 0ZM1 1L1 6L6 6L6 1ZM2 2L2 5L5 5L5 2ZM30 0L30 7L37 7L37 0ZM31 1L31 6L36 6L36 1ZM32 2L32 5L35 5L35 2ZM0 30L0 37L7 37L7 30ZM1 31L1 36L6 36L6 31ZM2 32L2 35L5 35L5 32Z" fill="#000000"/></g></g></svg>
