<?xml version="1.0" encoding="UTF-8"?>
<svg xmlns="http://www.w3.org/2000/svg" version="1.1" width="200" height="200" viewBox="0 0 200 200"><rect x="0" y="0" width="200" height="200" fill="#ffffff"/><g transform="scale(5.405)"><g transform="translate(0,0)"><path fill-rule="evenodd" d="M8 0L8 3L9 3L9 4L11 4L11 3L12 3L12 5L14 5L14 9L12 9L12 10L11 10L11 12L8 12L8 13L7 13L7 12L6 12L6 11L10 11L10 10L9 10L9 8L10 8L10 9L11 9L11 5L10 5L10 7L9 7L9 5L8 5L8 9L7 9L7 8L6 8L6 9L5 9L5 8L2 8L2 9L5 9L5 11L4 11L4 10L0 10L0 12L3 12L3 11L4 11L4 13L7 13L7 14L6 14L6 15L7 15L7 14L8 14L8 13L9 13L9 14L11 14L11 12L12 12L12 10L14 10L14 11L13 11L13 12L14 12L14 14L13 14L13 15L12 15L12 16L9 16L9 15L8 15L8 16L5 16L5 14L3 14L3 13L1 13L1 14L0 14L0 18L1 18L1 15L2 15L2 18L3 18L3 19L2 19L2 20L3 20L3 19L4 19L4 21L5 21L5 22L4 22L4 24L3 24L3 25L2 25L2 24L1 24L1 25L0 25L0 29L1 29L1 25L2 25L2 29L3 29L3 28L4 28L4 29L7 29L7 28L8 28L8 30L9 30L9 32L8 32L8 35L9 35L9 32L11 32L11 33L10 33L10 37L13 37L13 33L12 33L12 32L14 32L14 29L17 29L17 28L15 28L15 24L16 24L16 25L18 25L18 26L17 26L17 27L18 27L18 28L19 28L19 27L20 27L20 28L21 28L21 29L19 29L19 30L20 30L20 32L21 32L21 33L22 33L22 34L23 34L23 35L21 35L21 36L20 36L20 37L28 37L28 36L29 36L29 37L37 37L37 34L36 34L36 36L34 36L34 34L33 34L33 33L37 33L37 32L33 32L33 30L34 30L34 29L35 29L35 30L36 30L36 31L37 31L37 30L36 30L36 29L37 29L37 26L36 26L36 25L35 25L35 24L34 24L34 23L33 23L33 25L35 25L35 26L36 26L36 27L35 27L35 28L34 28L34 27L33 27L33 26L31 26L31 24L32 24L32 23L31 23L31 22L32 22L32 21L33 21L33 22L34 22L34 21L35 21L35 22L36 22L36 24L37 24L37 22L36 22L36 21L37 21L37 18L36 18L36 17L35 17L35 16L31 16L31 15L32 15L32 14L30 14L30 13L33 13L33 15L34 15L34 13L35 13L35 14L36 14L36 16L37 16L37 14L36 14L36 13L37 13L37 12L33 12L33 10L34 10L34 9L37 9L37 8L34 8L34 9L32 9L32 8L28 8L28 7L29 7L29 6L28 6L28 5L29 5L29 4L28 4L28 3L29 3L29 2L28 2L28 1L26 1L26 3L25 3L25 2L24 2L24 3L25 3L25 4L24 4L24 5L22 5L22 3L23 3L23 2L22 2L22 3L21 3L21 2L19 2L19 1L20 1L20 0L19 0L19 1L18 1L18 0L16 0L16 2L18 2L18 3L16 3L16 4L18 4L18 3L21 3L21 4L20 4L20 5L19 5L19 6L18 6L18 7L17 7L17 5L16 5L16 7L15 7L15 5L14 5L14 4L13 4L13 3L12 3L12 2L14 2L14 3L15 3L15 2L14 2L14 0L13 0L13 1L12 1L12 2L11 2L11 1L10 1L10 3L9 3L9 0ZM21 0L21 1L23 1L23 0ZM27 2L27 3L26 3L26 4L27 4L27 5L28 5L28 4L27 4L27 3L28 3L28 2ZM20 5L20 6L19 6L19 7L20 7L20 8L19 8L19 9L22 9L22 10L23 10L23 11L22 11L22 12L21 12L21 14L23 14L23 13L22 13L22 12L23 12L23 11L24 11L24 10L25 10L25 12L26 12L26 14L25 14L25 15L23 15L23 16L21 16L21 15L20 15L20 14L19 14L19 13L18 13L18 14L19 14L19 18L20 18L20 19L18 19L18 18L17 18L17 19L18 19L18 20L16 20L16 17L17 17L17 16L16 16L16 17L15 17L15 20L14 20L14 19L13 19L13 18L12 18L12 19L13 19L13 20L11 20L11 22L10 22L10 19L11 19L11 17L9 17L9 16L8 16L8 17L9 17L9 19L8 19L8 18L7 18L7 17L6 17L6 18L5 18L5 17L4 17L4 16L3 16L3 18L5 18L5 19L6 19L6 20L5 20L5 21L6 21L6 22L7 22L7 23L6 23L6 24L8 24L8 23L9 23L9 22L10 22L10 25L8 25L8 26L9 26L9 27L8 27L8 28L9 28L9 30L10 30L10 29L12 29L12 28L13 28L13 29L14 29L14 26L13 26L13 24L15 24L15 22L16 22L16 23L18 23L18 24L20 24L20 22L19 22L19 21L20 21L20 20L21 20L21 17L22 17L22 19L23 19L23 18L25 18L25 19L24 19L24 20L28 20L28 19L26 19L26 18L28 18L28 17L29 17L29 20L30 20L30 19L31 19L31 18L32 18L32 19L33 19L33 20L36 20L36 18L34 18L34 19L33 19L33 17L29 17L29 16L30 16L30 15L29 15L29 16L28 16L28 15L27 15L27 16L28 16L28 17L23 17L23 16L26 16L26 14L28 14L28 13L30 13L30 12L29 12L29 11L30 11L30 9L28 9L28 8L27 8L27 7L28 7L28 6L27 6L27 7L26 7L26 6L25 6L25 7L24 7L24 6L23 6L23 8L22 8L22 5ZM12 6L12 8L13 8L13 6ZM20 6L20 7L21 7L21 6ZM16 7L16 9L17 9L17 7ZM25 7L25 8L24 8L24 9L23 9L23 10L24 10L24 9L25 9L25 8L26 8L26 9L27 9L27 10L26 10L26 11L27 11L27 13L28 13L28 11L29 11L29 10L28 10L28 9L27 9L27 8L26 8L26 7ZM6 9L6 10L7 10L7 9ZM19 10L19 11L18 11L18 12L20 12L20 10ZM31 10L31 11L32 11L32 10ZM35 10L35 11L37 11L37 10ZM15 11L15 14L14 14L14 15L16 15L16 14L17 14L17 11ZM2 14L2 15L3 15L3 14ZM12 16L12 17L13 17L13 16ZM20 16L20 17L21 17L21 16ZM6 18L6 19L7 19L7 20L6 20L6 21L8 21L8 22L9 22L9 20L8 20L8 19L7 19L7 18ZM15 20L15 21L13 21L13 22L15 22L15 21L16 21L16 22L18 22L18 21L16 21L16 20ZM31 20L31 21L25 21L25 22L24 22L24 21L22 21L22 22L21 22L21 23L22 23L22 22L24 22L24 25L22 25L22 24L21 24L21 25L20 25L20 27L21 27L21 25L22 25L22 26L23 26L23 27L22 27L22 29L21 29L21 31L22 31L22 32L23 32L23 34L25 34L25 35L24 35L24 36L28 36L28 35L29 35L29 34L30 34L30 35L31 35L31 34L32 34L32 36L33 36L33 34L32 34L32 33L31 33L31 34L30 34L30 33L29 33L29 34L28 34L28 35L26 35L26 34L27 34L27 33L24 33L24 32L23 32L23 31L25 31L25 32L27 32L27 31L28 31L28 27L29 27L29 28L33 28L33 29L34 29L34 28L33 28L33 27L30 27L30 26L27 26L27 28L26 28L26 26L24 26L24 25L30 25L30 24L29 24L29 23L30 23L30 22L31 22L31 21L32 21L32 20ZM0 21L0 23L2 23L2 22L3 22L3 21ZM11 22L11 23L12 23L12 22ZM27 22L27 23L26 23L26 24L28 24L28 23L29 23L29 22ZM4 24L4 25L3 25L3 26L4 26L4 25L5 25L5 24ZM6 25L6 26L7 26L7 25ZM10 25L10 26L12 26L12 25ZM4 27L4 28L7 28L7 27ZM9 27L9 28L12 28L12 27ZM24 27L24 28L25 28L25 29L22 29L22 30L25 30L25 31L26 31L26 30L27 30L27 29L26 29L26 28L25 28L25 27ZM25 29L25 30L26 30L26 29ZM29 29L29 32L32 32L32 29ZM11 30L11 32L12 32L12 30ZM30 30L30 31L31 31L31 30ZM17 31L17 32L19 32L19 31ZM14 33L14 37L17 37L17 36L19 36L19 34L20 34L20 33L19 33L19 34L17 34L17 33ZM0 0L0 7L7 7L7 0ZM1 1L1 6L6 6L6 1ZM2 2L2 5L5 5L5 2ZM30 0L30 7L37 7L37 0ZM31 1L31 6L36 6L36 1ZM32 2L32 5L35 5L35 2ZM0 30L0 37L7 37L7 30ZM1 31L1 36L6 36L6 31ZM2 32L2 35L5 35L5 32Z" fill="#000000"/></g></g></svg>
