<?xml version="1.0" encoding="UTF-8"?>
<svg xmlns="http://www.w3.org/2000/svg" version="1.1" width="200" height="200" viewBox="0 0 200 200"><rect x="0" y="0" width="200" height="200" fill="#ffffff"/><g transform="scale(5.405)"><g transform="translate(0,0)"><path fill-rule="evenodd" d="M8 0L8 2L9 2L9 3L8 3L8 7L9 7L9 8L11 8L11 3L10 3L10 2L13 2L13 3L14 3L14 4L17 4L17 3L18 3L18 2L19 2L19 1L20 1L20 4L18 4L18 8L16 8L16 9L18 9L18 8L19 8L19 9L20 9L20 8L21 8L21 9L24 9L24 10L22 10L22 11L24 11L24 10L25 10L25 12L24 12L24 13L23 13L23 12L20 12L20 16L19 16L19 15L18 15L18 14L17 14L17 13L16 13L16 11L14 11L14 13L15 13L15 14L13 14L13 13L12 13L12 12L13 12L13 10L14 10L14 9L13 9L13 10L12 10L12 9L11 9L11 11L12 11L12 12L10 12L10 9L9 9L9 10L8 10L8 9L7 9L7 8L6 8L6 9L4 9L4 8L3 8L3 9L1 9L1 10L6 10L6 11L7 11L7 12L6 12L6 13L4 13L4 12L5 12L5 11L4 11L4 12L3 12L3 11L1 11L1 13L0 13L0 14L1 14L1 15L0 15L0 17L3 17L3 19L2 19L2 20L3 20L3 21L2 21L2 22L0 22L0 23L1 23L1 24L3 24L3 25L4 25L4 27L3 27L3 26L2 26L2 25L1 25L1 26L0 26L0 27L1 27L1 28L0 28L0 29L2 29L2 27L3 27L3 28L5 28L5 29L7 29L7 28L8 28L8 27L7 27L7 26L5 26L5 25L7 25L7 24L6 24L6 23L8 23L8 24L9 24L9 26L10 26L10 25L12 25L12 24L14 24L14 25L13 25L13 26L11 26L11 27L9 27L9 29L8 29L8 30L9 30L9 32L10 32L10 31L13 31L13 32L15 32L15 33L14 33L14 34L12 34L12 35L13 35L13 36L14 36L14 37L15 37L15 36L16 36L16 35L17 35L17 34L16 34L16 35L15 35L15 36L14 36L14 34L15 34L15 33L17 33L17 32L19 32L19 34L20 34L20 35L18 35L18 36L20 36L20 35L22 35L22 37L24 37L24 36L25 36L25 37L29 37L29 35L27 35L27 34L26 34L26 33L27 33L27 32L28 32L28 33L31 33L31 34L32 34L32 36L31 36L31 37L32 37L32 36L34 36L34 34L36 34L36 35L37 35L37 28L36 28L36 27L37 27L37 24L35 24L35 25L34 25L34 26L32 26L32 27L31 27L31 26L28 26L28 25L29 25L29 24L30 24L30 25L31 25L31 24L30 24L30 23L32 23L32 25L33 25L33 24L34 24L34 20L36 20L36 21L35 21L35 23L37 23L37 20L36 20L36 19L37 19L37 17L35 17L35 16L36 16L36 15L37 15L37 12L36 12L36 11L37 11L37 8L35 8L35 10L34 10L34 8L31 8L31 9L32 9L32 10L30 10L30 9L29 9L29 10L28 10L28 9L27 9L27 8L29 8L29 5L28 5L28 4L29 4L29 2L28 2L28 1L29 1L29 0L26 0L26 1L22 1L22 0L21 0L21 1L20 1L20 0L19 0L19 1L17 1L17 0L16 0L16 1L15 1L15 0L12 0L12 1L11 1L11 0ZM9 1L9 2L10 2L10 1ZM13 1L13 2L14 2L14 3L17 3L17 2L15 2L15 1ZM21 2L21 4L22 4L22 3L23 3L23 4L24 4L24 3L25 3L25 5L24 5L24 6L23 6L23 5L22 5L22 6L21 6L21 5L19 5L19 8L20 8L20 6L21 6L21 7L22 7L22 8L23 8L23 7L24 7L24 8L25 8L25 10L27 10L27 11L28 11L28 12L27 12L27 13L26 13L26 14L25 14L25 13L24 13L24 14L23 14L23 13L21 13L21 14L23 14L23 15L24 15L24 16L23 16L23 17L24 17L24 18L22 18L22 17L19 17L19 16L18 16L18 15L17 15L17 14L16 14L16 15L17 15L17 17L16 17L16 16L15 16L15 15L14 15L14 16L13 16L13 18L12 18L12 19L10 19L10 18L9 18L9 19L8 19L8 20L7 20L7 19L5 19L5 18L8 18L8 17L9 17L9 16L10 16L10 14L11 14L11 13L9 13L9 11L8 11L8 15L3 15L3 14L4 14L4 13L1 13L1 14L2 14L2 15L1 15L1 16L2 16L2 15L3 15L3 17L4 17L4 16L7 16L7 17L5 17L5 18L4 18L4 21L3 21L3 22L2 22L2 23L3 23L3 22L5 22L5 23L6 23L6 22L8 22L8 23L9 23L9 24L11 24L11 23L12 23L12 22L14 22L14 23L15 23L15 25L14 25L14 27L15 27L15 26L16 26L16 27L17 27L17 28L18 28L18 29L16 29L16 28L13 28L13 29L12 29L12 28L11 28L11 29L10 29L10 30L14 30L14 31L15 31L15 32L16 32L16 31L17 31L17 30L19 30L19 31L20 31L20 28L21 28L21 29L22 29L22 31L24 31L24 32L27 32L27 31L25 31L25 30L23 30L23 29L24 29L24 28L25 28L25 29L27 29L27 30L28 30L28 29L27 29L27 28L28 28L28 27L27 27L27 28L25 28L25 27L26 27L26 26L25 26L25 25L26 25L26 24L27 24L27 25L28 25L28 24L29 24L29 23L30 23L30 22L29 22L29 21L30 21L30 20L31 20L31 22L33 22L33 21L32 21L32 20L31 20L31 19L30 19L30 18L29 18L29 17L30 17L30 16L31 16L31 17L33 17L33 18L34 18L34 19L36 19L36 18L35 18L35 17L34 17L34 16L35 16L35 15L34 15L34 14L33 14L33 10L32 10L32 11L31 11L31 13L32 13L32 14L31 14L31 15L30 15L30 11L28 11L28 10L27 10L27 9L26 9L26 8L27 8L27 7L28 7L28 6L27 6L27 4L28 4L28 2L27 2L27 3L26 3L26 2ZM9 3L9 5L10 5L10 3ZM14 5L14 7L13 7L13 6L12 6L12 8L15 8L15 5ZM9 6L9 7L10 7L10 6ZM16 6L16 7L17 7L17 6ZM22 6L22 7L23 7L23 6ZM24 6L24 7L25 7L25 8L26 8L26 7L27 7L27 6L26 6L26 7L25 7L25 6ZM6 9L6 10L7 10L7 9ZM18 10L18 11L17 11L17 12L18 12L18 13L19 13L19 12L18 12L18 11L21 11L21 10ZM34 11L34 13L35 13L35 14L36 14L36 13L35 13L35 11ZM6 13L6 14L7 14L7 13ZM28 13L28 17L29 17L29 16L30 16L30 15L29 15L29 13ZM24 14L24 15L25 15L25 16L24 16L24 17L25 17L25 16L27 16L27 14L26 14L26 15L25 15L25 14ZM32 14L32 15L33 15L33 14ZM21 15L21 16L22 16L22 15ZM11 16L11 17L12 17L12 16ZM14 16L14 17L15 17L15 18L16 18L16 21L15 21L15 20L14 20L14 18L13 18L13 19L12 19L12 20L9 20L9 21L8 21L8 22L9 22L9 23L11 23L11 22L9 22L9 21L13 21L13 20L14 20L14 22L15 22L15 23L16 23L16 21L17 21L17 23L19 23L19 22L18 22L18 21L19 21L19 20L20 20L20 19L18 19L18 20L17 20L17 18L18 18L18 17L17 17L17 18L16 18L16 17L15 17L15 16ZM26 17L26 20L25 20L25 19L21 19L21 21L22 21L22 22L23 22L23 23L20 23L20 24L21 24L21 25L20 25L20 26L22 26L22 27L21 27L21 28L24 28L24 24L26 24L26 23L27 23L27 24L28 24L28 23L29 23L29 22L28 22L28 23L27 23L27 21L26 21L26 20L28 20L28 19L29 19L29 18L28 18L28 19L27 19L27 17ZM0 18L0 19L1 19L1 18ZM6 20L6 21L5 21L5 22L6 22L6 21L7 21L7 20ZM24 20L24 22L25 22L25 20ZM4 24L4 25L5 25L5 24ZM16 24L16 26L17 26L17 24ZM18 24L18 27L19 27L19 28L20 28L20 27L19 27L19 24ZM22 24L22 25L23 25L23 24ZM35 25L35 26L34 26L34 28L35 28L35 26L36 26L36 25ZM1 26L1 27L2 27L2 26ZM6 27L6 28L7 28L7 27ZM30 27L30 28L31 28L31 27ZM32 27L32 28L33 28L33 27ZM14 29L14 30L15 30L15 31L16 31L16 30L15 30L15 29ZM29 29L29 32L32 32L32 29ZM34 29L34 31L33 31L33 33L36 33L36 32L34 32L34 31L36 31L36 30L35 30L35 29ZM30 30L30 31L31 31L31 30ZM11 32L11 33L8 33L8 34L10 34L10 35L11 35L11 33L12 33L12 32ZM21 32L21 33L20 33L20 34L21 34L21 33L23 33L23 32ZM25 34L25 35L26 35L26 34ZM35 36L35 37L37 37L37 36ZM0 0L0 7L7 7L7 0ZM1 1L1 6L6 6L6 1ZM2 2L2 5L5 5L5 2ZM30 0L30 7L37 7L37 0ZM31 1L31 6L36 6L36 1ZM32 2L32 5L35 5L35 2ZM0 30L0 37L7 37L7 30ZM1 31L1 36L6 36L6 31ZM2 32L2 35L5 35L5 32Z" fill="#000000"/></g></g></svg>
