<?xml version="1.0" encoding="UTF-8"?>
<svg xmlns="http://www.w3.org/2000/svg" version="1.1" width="200" height="200" viewBox="0 0 200 200"><rect x="0" y="0" width="200" height="200" fill="#ffffff"/><g transform="scale(5.405)"><g transform="translate(0,0)"><path fill-rule="evenodd" d="M9 0L9 1L8 1L8 2L9 2L9 3L11 3L11 1L12 1L12 2L14 2L14 1L13 1L13 0L11 0L11 1L10 1L10 0ZM16 0L16 1L15 1L15 4L16 4L16 3L17 3L17 2L18 2L18 4L19 4L19 5L20 5L20 8L19 8L19 6L18 6L18 7L17 7L17 5L15 5L15 6L14 6L14 7L13 7L13 6L12 6L12 5L11 5L11 4L9 4L9 5L8 5L8 8L4 8L4 9L7 9L7 10L5 10L5 11L7 11L7 10L8 10L8 11L9 11L9 14L8 14L8 12L6 12L6 13L7 13L7 14L5 14L5 13L4 13L4 14L5 14L5 15L4 15L4 17L2 17L2 16L3 16L3 13L2 13L2 12L3 12L3 11L1 11L1 10L3 10L3 9L1 9L1 10L0 10L0 14L1 14L1 13L2 13L2 16L1 16L1 15L0 15L0 16L1 16L1 17L2 17L2 18L1 18L1 20L0 20L0 22L1 22L1 23L0 23L0 26L4 26L4 27L3 27L3 28L0 28L0 29L4 29L4 28L6 28L6 29L8 29L8 33L9 33L9 31L10 31L10 32L11 32L11 33L10 33L10 35L9 35L9 37L10 37L10 35L11 35L11 36L12 36L12 37L13 37L13 34L15 34L15 35L14 35L14 37L18 37L18 35L20 35L20 36L19 36L19 37L20 37L20 36L21 36L21 37L22 37L22 35L23 35L23 34L22 34L22 33L23 33L23 32L24 32L24 33L25 33L25 34L26 34L26 35L27 35L27 36L26 36L26 37L28 37L28 35L31 35L31 36L32 36L32 35L31 35L31 33L35 33L35 31L36 31L36 29L37 29L37 28L36 28L36 29L35 29L35 27L36 27L36 25L37 25L37 23L36 23L36 21L37 21L37 20L36 20L36 17L37 17L37 16L36 16L36 17L35 17L35 15L36 15L36 13L37 13L37 11L36 11L36 8L35 8L35 10L34 10L34 9L33 9L33 10L32 10L32 11L31 11L31 12L29 12L29 11L30 11L30 10L31 10L31 9L32 9L32 8L30 8L30 10L29 10L29 11L28 11L28 10L27 10L27 9L29 9L29 5L28 5L28 2L27 2L27 1L28 1L28 0L26 0L26 1L25 1L25 0L24 0L24 1L23 1L23 0L21 0L21 4L20 4L20 0ZM9 1L9 2L10 2L10 1ZM16 1L16 2L17 2L17 1ZM25 2L25 3L24 3L24 5L25 5L25 7L24 7L24 6L23 6L23 8L22 8L22 5L21 5L21 9L20 9L20 11L21 11L21 10L22 10L22 11L24 11L24 9L25 9L25 14L24 14L24 15L25 15L25 17L26 17L26 18L24 18L24 20L25 20L25 21L21 21L21 22L20 22L20 23L19 23L19 25L18 25L18 22L17 22L17 19L19 19L19 17L20 17L20 19L21 19L21 20L23 20L23 19L22 19L22 18L23 18L23 13L22 13L22 12L21 12L21 13L20 13L20 12L19 12L19 8L18 8L18 10L16 10L16 9L15 9L15 10L16 10L16 11L18 11L18 13L17 13L17 14L16 14L16 13L15 13L15 11L14 11L14 9L13 9L13 7L12 7L12 6L11 6L11 5L10 5L10 6L9 6L9 7L10 7L10 8L12 8L12 9L13 9L13 11L14 11L14 12L12 12L12 10L10 10L10 9L9 9L9 8L8 8L8 10L9 10L9 11L11 11L11 12L10 12L10 13L11 13L11 14L13 14L13 17L12 17L12 15L10 15L10 14L9 14L9 15L5 15L5 18L3 18L3 22L2 22L2 20L1 20L1 22L2 22L2 25L3 25L3 24L4 24L4 26L5 26L5 27L6 27L6 28L7 28L7 27L6 27L6 26L7 26L7 25L9 25L9 24L8 24L8 22L9 22L9 21L6 21L6 22L7 22L7 23L6 23L6 24L5 24L5 23L3 23L3 22L4 22L4 21L5 21L5 20L8 20L8 19L9 19L9 20L11 20L11 21L12 21L12 20L13 20L13 21L14 21L14 22L15 22L15 23L14 23L14 26L15 26L15 25L16 25L16 24L15 24L15 23L16 23L16 22L17 22L17 25L18 25L18 26L17 26L17 28L16 28L16 29L17 29L17 30L16 30L16 31L15 31L15 27L14 27L14 28L13 28L13 29L11 29L11 30L10 30L10 28L12 28L12 27L13 27L13 25L12 25L12 24L13 24L13 23L12 23L12 22L11 22L11 24L10 24L10 26L11 26L11 27L10 27L10 28L9 28L9 30L10 30L10 31L12 31L12 30L13 30L13 31L14 31L14 33L15 33L15 32L16 32L16 31L17 31L17 30L18 30L18 32L17 32L17 33L18 33L18 32L19 32L19 34L20 34L20 35L21 35L21 32L19 32L19 29L21 29L21 28L23 28L23 29L25 29L25 30L24 30L24 31L25 31L25 33L26 33L26 34L27 34L27 35L28 35L28 34L29 34L29 33L28 33L28 32L27 32L27 33L26 33L26 31L28 31L28 30L27 30L27 29L26 29L26 26L27 26L27 28L29 28L29 27L30 27L30 28L33 28L33 26L35 26L35 25L36 25L36 23L35 23L35 25L34 25L34 24L33 24L33 26L32 26L32 27L31 27L31 26L29 26L29 27L28 27L28 25L30 25L30 24L32 24L32 23L34 23L34 19L35 19L35 17L34 17L34 15L32 15L32 14L31 14L31 13L33 13L33 14L35 14L35 13L33 13L33 12L31 12L31 13L28 13L28 12L27 12L27 10L26 10L26 9L27 9L27 7L28 7L28 5L26 5L26 4L25 4L25 3L27 3L27 2ZM12 3L12 4L13 4L13 5L14 5L14 3ZM22 3L22 4L23 4L23 3ZM10 6L10 7L11 7L11 6ZM15 6L15 8L17 8L17 7L16 7L16 6ZM26 6L26 7L25 7L25 9L26 9L26 7L27 7L27 6ZM33 10L33 11L34 11L34 10ZM26 12L26 17L27 17L27 18L26 18L26 20L28 20L28 21L25 21L25 22L21 22L21 23L20 23L20 24L21 24L21 25L19 25L19 26L18 26L18 28L17 28L17 29L19 29L19 28L21 28L21 25L22 25L22 24L23 24L23 25L24 25L24 26L22 26L22 27L23 27L23 28L24 28L24 27L25 27L25 25L27 25L27 23L30 23L30 21L31 21L31 23L32 23L32 22L33 22L33 21L31 21L31 20L33 20L33 19L32 19L32 18L33 18L33 17L31 17L31 16L30 16L30 15L29 15L29 16L28 16L28 17L27 17L27 15L28 15L28 13L27 13L27 12ZM14 13L14 19L13 19L13 20L15 20L15 22L16 22L16 20L15 20L15 17L16 17L16 18L17 18L17 17L19 17L19 15L21 15L21 16L22 16L22 15L21 15L21 14L20 14L20 13L18 13L18 14L17 14L17 15L18 15L18 16L15 16L15 13ZM18 14L18 15L19 15L19 14ZM6 16L6 17L8 17L8 18L9 18L9 19L10 19L10 18L11 18L11 16ZM9 17L9 18L10 18L10 17ZM28 17L28 19L29 19L29 21L28 21L28 22L29 22L29 21L30 21L30 20L31 20L31 17ZM6 18L6 19L7 19L7 18ZM29 18L29 19L30 19L30 18ZM19 20L19 21L20 21L20 20ZM25 22L25 23L24 23L24 25L25 25L25 24L26 24L26 23L27 23L27 22ZM6 24L6 25L5 25L5 26L6 26L6 25L7 25L7 24ZM19 26L19 27L20 27L20 26ZM29 29L29 32L32 32L32 29ZM34 29L34 30L33 30L33 31L34 31L34 30L35 30L35 29ZM20 30L20 31L22 31L22 32L23 32L23 31L22 31L22 30ZM30 30L30 31L31 31L31 30ZM12 32L12 34L11 34L11 35L12 35L12 34L13 34L13 32ZM36 32L36 33L37 33L37 32ZM16 34L16 36L17 36L17 34ZM33 34L33 36L34 36L34 37L37 37L37 36L36 36L36 34L35 34L35 35L34 35L34 34ZM24 35L24 36L23 36L23 37L24 37L24 36L25 36L25 35ZM0 0L0 7L7 7L7 0ZM1 1L1 6L6 6L6 1ZM2 2L2 5L5 5L5 2ZM30 0L30 7L37 7L37 0ZM31 1L31 6L36 6L36 1ZM32 2L32 5L35 5L35 2ZM0 30L0 37L7 37L7 30ZM1 31L1 36L6 36L6 31ZM2 32L2 35L5 35L5 32Z" fill="#000000"/></g></g></svg>
