<?xml version="1.0" encoding="UTF-8"?>
<svg xmlns="http://www.w3.org/2000/svg" version="1.1" width="200" height="200" viewBox="0 0 200 200"><rect x="0" y="0" width="200" height="200" fill="#ffffff"/><g transform="scale(5.405)"><g transform="translate(0,0)"><path fill-rule="evenodd" d="M8 0L8 3L9 3L9 5L8 5L8 11L9 11L9 13L8 13L8 17L9 17L9 16L11 16L11 17L10 17L10 18L9 18L9 19L8 19L8 20L10 20L10 21L9 21L9 22L10 22L10 21L11 21L11 22L12 22L12 17L13 17L13 18L14 18L14 19L13 19L13 20L14 20L14 22L13 22L13 23L10 23L10 26L8 26L8 21L7 21L7 20L5 20L5 19L3 19L3 18L4 18L4 16L5 16L5 18L6 18L6 19L7 19L7 18L6 18L6 17L7 17L7 16L6 16L6 15L7 15L7 14L6 14L6 13L7 13L7 12L6 12L6 11L7 11L7 10L6 10L6 11L4 11L4 10L5 10L5 8L2 8L2 9L0 9L0 11L1 11L1 10L3 10L3 11L2 11L2 12L0 12L0 13L1 13L1 14L0 14L0 16L1 16L1 17L0 17L0 23L1 23L1 24L2 24L2 21L4 21L4 22L3 22L3 25L0 25L0 29L1 29L1 26L3 26L3 27L4 27L4 28L3 28L3 29L5 29L5 28L6 28L6 29L8 29L8 30L9 30L9 31L10 31L10 32L11 32L11 33L9 33L9 32L8 32L8 35L9 35L9 37L10 37L10 35L11 35L11 36L12 36L12 37L13 37L13 36L14 36L14 37L15 37L15 36L16 36L16 37L17 37L17 36L16 36L16 35L11 35L11 34L12 34L12 33L13 33L13 34L14 34L14 32L13 32L13 31L12 31L12 30L11 30L11 26L13 26L13 28L14 28L14 27L15 27L15 24L13 24L13 23L14 23L14 22L16 22L16 27L17 27L17 28L15 28L15 29L13 29L13 30L14 30L14 31L15 31L15 29L17 29L17 28L18 28L18 30L16 30L16 32L17 32L17 33L16 33L16 34L17 34L17 35L18 35L18 34L20 34L20 35L21 35L21 36L22 36L22 37L24 37L24 35L25 35L25 34L23 34L23 33L22 33L22 31L23 31L23 30L25 30L25 29L27 29L27 26L29 26L29 27L28 27L28 31L26 31L26 32L24 32L24 33L27 33L27 34L26 34L26 35L27 35L27 36L30 36L30 37L37 37L37 34L36 34L36 36L34 36L34 35L35 35L35 34L34 34L34 33L35 33L35 32L33 32L33 31L37 31L37 30L33 30L33 28L34 28L34 29L37 29L37 26L36 26L36 25L37 25L37 24L36 24L36 25L35 25L35 24L34 24L34 22L32 22L32 23L31 23L31 22L30 22L30 21L33 21L33 20L34 20L34 21L35 21L35 22L36 22L36 23L37 23L37 22L36 22L36 21L37 21L37 18L36 18L36 17L37 17L37 16L33 16L33 15L34 15L34 13L35 13L35 14L36 14L36 15L37 15L37 14L36 14L36 13L37 13L37 12L33 12L33 10L35 10L35 11L37 11L37 10L35 10L35 9L37 9L37 8L34 8L34 9L32 9L32 8L29 8L29 4L28 4L28 2L29 2L29 1L27 1L27 2L26 2L26 1L23 1L23 3L21 3L21 2L22 2L22 0L21 0L21 1L19 1L19 0L17 0L17 1L13 1L13 2L12 2L12 3L11 3L11 1L12 1L12 0L10 0L10 2L9 2L9 0ZM17 1L17 3L20 3L20 2L18 2L18 1ZM13 2L13 4L14 4L14 6L13 6L13 9L12 9L12 6L11 6L11 7L10 7L10 6L9 6L9 7L10 7L10 9L9 9L9 10L10 10L10 11L12 11L12 10L13 10L13 9L14 9L14 11L13 11L13 12L11 12L11 13L10 13L10 15L11 15L11 16L12 16L12 15L13 15L13 16L14 16L14 17L15 17L15 19L14 19L14 20L16 20L16 22L17 22L17 20L16 20L16 19L17 19L17 18L19 18L19 20L20 20L20 21L19 21L19 22L18 22L18 24L17 24L17 25L19 25L19 26L20 26L20 25L19 25L19 24L21 24L21 26L23 26L23 27L22 27L22 28L20 28L20 27L19 27L19 28L20 28L20 29L19 29L19 30L18 30L18 32L19 32L19 33L21 33L21 35L23 35L23 34L22 34L22 33L21 33L21 32L20 32L20 31L21 31L21 30L23 30L23 29L25 29L25 28L26 28L26 26L24 26L24 25L27 25L27 24L26 24L26 23L27 23L27 22L29 22L29 23L30 23L30 22L29 22L29 21L30 21L30 20L31 20L31 19L30 19L30 18L32 18L32 19L33 19L33 18L34 18L34 20L36 20L36 18L35 18L35 17L25 17L25 19L24 19L24 18L22 18L22 17L23 17L23 16L24 16L24 15L25 15L25 16L26 16L26 14L28 14L28 16L30 16L30 15L29 15L29 13L30 13L30 14L32 14L32 15L31 15L31 16L32 16L32 15L33 15L33 13L30 13L30 11L32 11L32 10L30 10L30 9L28 9L28 10L29 10L29 11L28 11L28 12L29 12L29 13L27 13L27 11L25 11L25 10L27 10L27 9L26 9L26 8L28 8L28 6L27 6L27 7L26 7L26 6L25 6L25 4L24 4L24 3L23 3L23 4L22 4L22 5L20 5L20 6L19 6L19 5L18 5L18 6L17 6L17 7L16 7L16 5L17 5L17 4L16 4L16 5L15 5L15 4L14 4L14 2ZM25 2L25 3L26 3L26 2ZM10 3L10 5L12 5L12 4L11 4L11 3ZM23 4L23 5L22 5L22 7L21 7L21 6L20 6L20 7L21 7L21 9L23 9L23 13L21 13L21 17L20 17L20 18L21 18L21 17L22 17L22 16L23 16L23 15L22 15L22 14L23 14L23 13L24 13L24 14L26 14L26 12L25 12L25 11L24 11L24 9L25 9L25 8L26 8L26 7L25 7L25 6L24 6L24 7L25 7L25 8L24 8L24 9L23 9L23 5L24 5L24 4ZM26 4L26 5L28 5L28 4ZM14 6L14 9L15 9L15 8L16 8L16 7L15 7L15 6ZM18 6L18 7L19 7L19 6ZM6 8L6 9L7 9L7 8ZM17 9L17 10L15 10L15 11L18 11L18 9ZM19 9L19 10L20 10L20 9ZM20 11L20 12L18 12L18 13L17 13L17 12L15 12L15 13L14 13L14 14L15 14L15 13L17 13L17 14L18 14L18 15L15 15L15 17L16 17L16 16L19 16L19 15L20 15L20 12L22 12L22 11ZM2 12L2 14L1 14L1 15L2 15L2 16L3 16L3 15L4 15L4 14L5 14L5 13L6 13L6 12L4 12L4 14L3 14L3 12ZM11 13L11 15L12 15L12 13ZM1 17L1 21L2 21L2 20L3 20L3 19L2 19L2 18L3 18L3 17ZM27 18L27 19L26 19L26 20L25 20L25 21L24 21L24 19L23 19L23 21L22 21L22 20L21 20L21 21L20 21L20 22L19 22L19 23L23 23L23 24L22 24L22 25L23 25L23 24L24 24L24 22L25 22L25 21L26 21L26 22L27 22L27 21L29 21L29 20L30 20L30 19L29 19L29 18ZM10 19L10 20L11 20L11 19ZM28 19L28 20L29 20L29 19ZM4 20L4 21L5 21L5 20ZM26 20L26 21L27 21L27 20ZM6 21L6 22L4 22L4 27L6 27L6 28L8 28L8 27L6 27L6 26L7 26L7 25L6 25L6 24L7 24L7 23L6 23L6 22L7 22L7 21ZM21 21L21 22L22 22L22 21ZM32 23L32 24L31 24L31 26L32 26L32 27L31 27L31 28L32 28L32 27L34 27L34 28L35 28L35 27L36 27L36 26L35 26L35 25L34 25L34 26L33 26L33 23ZM11 24L11 25L13 25L13 24ZM28 24L28 25L30 25L30 24ZM5 25L5 26L6 26L6 25ZM17 26L17 27L18 27L18 26ZM9 27L9 30L10 30L10 27ZM24 27L24 28L25 28L25 27ZM22 28L22 29L23 29L23 28ZM20 29L20 30L21 30L21 29ZM29 29L29 32L32 32L32 29ZM30 30L30 31L31 31L31 30ZM11 31L11 32L12 32L12 31ZM36 32L36 33L37 33L37 32ZM28 33L28 35L29 35L29 34L30 34L30 35L32 35L32 36L33 36L33 34L30 34L30 33ZM18 36L18 37L20 37L20 36ZM25 36L25 37L26 37L26 36ZM0 0L0 7L7 7L7 0ZM1 1L1 6L6 6L6 1ZM2 2L2 5L5 5L5 2ZM30 0L30 7L37 7L37 0ZM31 1L31 6L36 6L36 1ZM32 2L32 5L35 5L35 2ZM0 30L0 37L7 37L7 30ZM1 31L1 36L6 36L6 31ZM2 32L2 35L5 35L5 32Z" fill="#000000"/></g></g></svg>
