<?xml version="1.0" encoding="UTF-8"?>
<svg xmlns="http://www.w3.org/2000/svg" version="1.1" width="200" height="200" viewBox="0 0 200 200"><rect x="0" y="0" width="200" height="200" fill="#ffffff"/><g transform="scale(5.405)"><g transform="translate(0,0)"><path fill-rule="evenodd" d="M9 0L9 1L8 1L8 7L9 7L9 8L5 8L5 9L10 9L10 7L11 7L11 9L12 9L12 7L13 7L13 6L12 6L12 7L11 7L11 6L10 6L10 4L11 4L11 5L12 5L12 4L13 4L13 5L14 5L14 8L13 8L13 10L12 10L12 11L10 11L10 10L9 10L9 11L7 11L7 10L4 10L4 9L3 9L3 8L2 8L2 10L4 10L4 12L6 12L6 13L7 13L7 12L9 12L9 11L10 11L10 12L13 12L13 10L14 10L14 11L15 11L15 12L16 12L16 14L15 14L15 13L12 13L12 14L9 14L9 15L8 15L8 14L6 14L6 15L7 15L7 16L5 16L5 15L3 15L3 16L2 16L2 15L0 15L0 17L1 17L1 16L2 16L2 18L0 18L0 19L2 19L2 20L1 20L1 21L0 21L0 22L1 22L1 25L3 25L3 24L2 24L2 23L3 23L3 22L6 22L6 23L8 23L8 28L9 28L9 29L8 29L8 32L9 32L9 31L10 31L10 30L11 30L11 32L10 32L10 35L9 35L9 34L8 34L8 35L9 35L9 37L13 37L13 36L14 36L14 35L13 35L13 33L15 33L15 35L16 35L16 37L17 37L17 35L18 35L18 37L19 37L19 36L20 36L20 37L21 37L21 36L22 36L22 37L23 37L23 36L25 36L25 35L26 35L26 37L27 37L27 35L28 35L28 37L30 37L30 36L29 36L29 35L28 35L28 34L26 34L26 33L25 33L25 32L24 32L24 28L23 28L23 27L24 27L24 26L23 26L23 27L22 27L22 28L21 28L21 29L19 29L19 28L20 28L20 27L21 27L21 26L20 26L20 27L19 27L19 28L18 28L18 26L17 26L17 25L22 25L22 24L23 24L23 23L24 23L24 24L25 24L25 27L26 27L26 28L28 28L28 29L27 29L27 30L26 30L26 29L25 29L25 31L26 31L26 32L27 32L27 33L31 33L31 36L32 36L32 35L33 35L33 33L34 33L34 35L37 35L37 32L36 32L36 31L37 31L37 28L36 28L36 27L37 27L37 25L36 25L36 23L37 23L37 20L36 20L36 23L35 23L35 21L34 21L34 23L35 23L35 25L36 25L36 27L35 27L35 26L34 26L34 27L35 27L35 28L36 28L36 29L35 29L35 32L36 32L36 34L35 34L35 33L34 33L34 31L33 31L33 28L29 28L29 26L30 26L30 27L31 27L31 26L30 26L30 25L34 25L34 24L30 24L30 23L32 23L32 20L33 20L33 19L37 19L37 12L36 12L36 11L37 11L37 9L36 9L36 8L31 8L31 10L30 10L30 11L29 11L29 12L30 12L30 15L31 15L31 12L33 12L33 13L34 13L34 11L35 11L35 12L36 12L36 13L35 13L35 14L34 14L34 15L35 15L35 18L34 18L34 17L33 17L33 18L32 18L32 19L31 19L31 16L30 16L30 19L29 19L29 20L26 20L26 22L25 22L25 23L24 23L24 20L25 20L25 19L24 19L24 20L23 20L23 18L25 18L25 17L24 17L24 16L23 16L23 14L25 14L25 15L26 15L26 19L28 19L28 16L29 16L29 15L28 15L28 12L27 12L27 11L28 11L28 10L27 10L27 11L26 11L26 13L24 13L24 12L25 12L25 11L24 11L24 9L26 9L26 7L27 7L27 9L28 9L28 7L29 7L29 6L28 6L28 7L27 7L27 5L24 5L24 4L23 4L23 3L24 3L24 2L25 2L25 4L26 4L26 3L27 3L27 0L24 0L24 1L23 1L23 0L21 0L21 1L20 1L20 0L19 0L19 1L20 1L20 2L19 2L19 3L20 3L20 4L19 4L19 5L18 5L18 4L17 4L17 3L18 3L18 0L17 0L17 3L16 3L16 1L14 1L14 0L13 0L13 1L12 1L12 2L13 2L13 3L12 3L12 4L11 4L11 2L10 2L10 1L11 1L11 0ZM28 0L28 2L29 2L29 0ZM13 1L13 2L14 2L14 1ZM21 1L21 4L20 4L20 5L19 5L19 7L18 7L18 6L17 6L17 7L18 7L18 9L16 9L16 6L15 6L15 8L14 8L14 10L15 10L15 11L16 11L16 12L17 12L17 11L16 11L16 10L19 10L19 12L18 12L18 14L17 14L17 15L19 15L19 16L16 16L16 15L14 15L14 14L12 14L12 15L9 15L9 18L8 18L8 16L7 16L7 17L5 17L5 16L3 16L3 17L5 17L5 18L3 18L3 19L5 19L5 18L8 18L8 19L6 19L6 20L3 20L3 21L6 21L6 22L9 22L9 23L12 23L12 21L10 21L10 20L13 20L13 18L12 18L12 17L15 17L15 18L14 18L14 20L15 20L15 22L14 22L14 23L13 23L13 24L9 24L9 25L10 25L10 27L12 27L12 28L11 28L11 30L13 30L13 31L12 31L12 33L11 33L11 34L12 34L12 33L13 33L13 32L14 32L14 30L13 30L13 29L14 29L14 26L13 26L13 25L16 25L16 23L17 23L17 24L20 24L20 23L19 23L19 21L17 21L17 20L18 20L18 19L17 19L17 20L16 20L16 19L15 19L15 18L16 18L16 17L18 17L18 18L19 18L19 20L22 20L22 17L23 17L23 16L22 16L22 14L23 14L23 13L22 13L22 12L23 12L23 11L22 11L22 9L23 9L23 7L24 7L24 8L25 8L25 7L26 7L26 6L25 6L25 7L24 7L24 5L23 5L23 7L22 7L22 6L21 6L21 4L22 4L22 1ZM13 3L13 4L14 4L14 5L15 5L15 4L16 4L16 3L15 3L15 4L14 4L14 3ZM28 3L28 5L29 5L29 3ZM9 6L9 7L10 7L10 6ZM20 6L20 7L19 7L19 8L20 8L20 9L21 9L21 6ZM29 8L29 9L30 9L30 8ZM0 9L0 12L1 12L1 9ZM34 9L34 10L32 10L32 11L34 11L34 10L35 10L35 9ZM20 10L20 11L21 11L21 10ZM6 11L6 12L7 12L7 11ZM30 11L30 12L31 12L31 11ZM2 12L2 13L3 13L3 14L5 14L5 13L3 13L3 12ZM20 13L20 16L19 16L19 17L20 17L20 18L21 18L21 17L20 17L20 16L21 16L21 14L22 14L22 13ZM26 13L26 15L27 15L27 16L28 16L28 15L27 15L27 13ZM32 14L32 15L33 15L33 14ZM15 16L15 17L16 17L16 16ZM10 17L10 19L8 19L8 21L9 21L9 20L10 20L10 19L12 19L12 18L11 18L11 17ZM6 20L6 21L7 21L7 20ZM1 21L1 22L2 22L2 21ZM20 21L20 22L22 22L22 21ZM14 23L14 24L15 24L15 23ZM21 23L21 24L22 24L22 23ZM25 23L25 24L26 24L26 23ZM27 23L27 24L29 24L29 23ZM4 24L4 26L5 26L5 24ZM6 24L6 25L7 25L7 24ZM27 25L27 26L26 26L26 27L28 27L28 25ZM0 26L0 27L2 27L2 26ZM6 26L6 27L5 27L5 28L0 28L0 29L5 29L5 28L6 28L6 29L7 29L7 28L6 28L6 27L7 27L7 26ZM15 26L15 27L16 27L16 26ZM32 26L32 27L33 27L33 26ZM12 28L12 29L13 29L13 28ZM16 29L16 30L15 30L15 31L16 31L16 30L17 30L17 29ZM18 29L18 31L17 31L17 32L16 32L16 35L17 35L17 32L18 32L18 31L19 31L19 32L20 32L20 33L19 33L19 35L20 35L20 36L21 36L21 35L24 35L24 33L23 33L23 31L22 31L22 30L23 30L23 29L21 29L21 31L22 31L22 32L20 32L20 30L19 30L19 29ZM29 29L29 32L32 32L32 29ZM27 30L27 32L28 32L28 30ZM30 30L30 31L31 31L31 30ZM22 33L22 34L23 34L23 33ZM20 34L20 35L21 35L21 34ZM10 35L10 36L11 36L11 35ZM12 35L12 36L13 36L13 35ZM33 36L33 37L34 37L34 36ZM36 36L36 37L37 37L37 36ZM0 0L0 7L7 7L7 0ZM1 1L1 6L6 6L6 1ZM2 2L2 5L5 5L5 2ZM30 0L30 7L37 7L37 0ZM31 1L31 6L36 6L36 1ZM32 2L32 5L35 5L35 2ZM0 30L0 37L7 37L7 30ZM1 31L1 36L6 36L6 31ZM2 32L2 35L5 35L5 32Z" fill="#000000"/></g></g></svg>
