<?xml version="1.0" encoding="UTF-8"?>
<svg xmlns="http://www.w3.org/2000/svg" version="1.1" width="200" height="200" viewBox="0 0 200 200"><rect x="0" y="0" width="200" height="200" fill="#ffffff"/><g transform="scale(5.405)"><g transform="translate(0,0)"><path fill-rule="evenodd" d="M8 0L8 3L9 3L9 0ZM10 0L10 5L11 5L11 6L10 6L10 7L9 7L9 5L8 5L8 9L9 9L9 10L8 10L8 11L9 11L9 10L11 10L11 9L10 9L10 7L11 7L11 6L12 6L12 8L17 8L17 9L15 9L15 11L16 11L16 12L14 12L14 9L13 9L13 11L11 11L11 12L14 12L14 13L15 13L15 15L13 15L13 16L11 16L11 17L10 17L10 18L9 18L9 16L10 16L10 15L9 15L9 16L6 16L6 17L5 17L5 16L3 16L3 15L5 15L5 14L6 14L6 15L7 15L7 14L8 14L8 13L7 13L7 12L6 12L6 11L7 11L7 10L6 10L6 9L7 9L7 8L6 8L6 9L5 9L5 8L2 8L2 10L1 10L1 11L0 11L0 14L2 14L2 15L0 15L0 16L1 16L1 17L0 17L0 18L1 18L1 17L2 17L2 16L3 16L3 17L5 17L5 19L7 19L7 18L9 18L9 19L8 19L8 20L6 20L6 21L5 21L5 23L3 23L3 24L4 24L4 25L3 25L3 26L2 26L2 28L3 28L3 29L4 29L4 27L5 27L5 29L7 29L7 28L6 28L6 27L8 27L8 26L9 26L9 24L10 24L10 25L14 25L14 26L15 26L15 23L16 23L16 25L17 25L17 26L16 26L16 27L13 27L13 29L12 29L12 28L11 28L11 27L12 27L12 26L11 26L11 27L10 27L10 28L8 28L8 30L10 30L10 31L9 31L9 32L8 32L8 35L9 35L9 36L10 36L10 37L11 37L11 35L12 35L12 34L13 34L13 32L14 32L14 33L15 33L15 32L14 32L14 31L13 31L13 29L14 29L14 30L15 30L15 31L16 31L16 30L17 30L17 29L19 29L19 30L21 30L21 29L22 29L22 30L24 30L24 33L28 33L28 34L27 34L27 35L28 35L28 36L27 36L27 37L28 37L28 36L29 36L29 35L28 35L28 34L31 34L31 36L30 36L30 37L37 37L37 34L36 34L36 36L34 36L34 34L33 34L33 32L34 32L34 33L35 33L35 32L36 32L36 33L37 33L37 32L36 32L36 31L37 31L37 30L36 30L36 29L37 29L37 28L36 28L36 27L37 27L37 26L35 26L35 24L34 24L34 21L37 21L37 18L36 18L36 17L37 17L37 14L35 14L35 16L34 16L34 15L33 15L33 16L31 16L31 15L32 15L32 13L33 13L33 14L34 14L34 13L35 13L35 12L36 12L36 13L37 13L37 10L36 10L36 9L37 9L37 8L34 8L34 9L32 9L32 8L29 8L29 6L28 6L28 5L29 5L29 4L28 4L28 3L29 3L29 2L28 2L28 1L26 1L26 3L25 3L25 2L24 2L24 1L25 1L25 0L23 0L23 1L22 1L22 2L21 2L21 0L20 0L20 2L21 2L21 3L19 3L19 4L20 4L20 5L18 5L18 7L19 7L19 8L21 8L21 11L20 11L20 12L19 12L19 13L17 13L17 12L18 12L18 11L17 11L17 9L18 9L18 10L19 10L19 9L18 9L18 8L17 8L17 5L16 5L16 4L18 4L18 2L17 2L17 3L16 3L16 2L15 2L15 4L14 4L14 5L13 5L13 3L14 3L14 2L13 2L13 1L15 1L15 0L13 0L13 1L12 1L12 0ZM16 0L16 1L18 1L18 0ZM11 1L11 2L12 2L12 1ZM22 2L22 3L24 3L24 4L22 4L22 6L21 6L21 5L20 5L20 6L19 6L19 7L20 7L20 6L21 6L21 8L22 8L22 9L23 9L23 8L22 8L22 6L23 6L23 7L24 7L24 6L23 6L23 5L24 5L24 4L25 4L25 3L24 3L24 2ZM27 2L27 3L28 3L28 2ZM26 4L26 5L28 5L28 4ZM12 5L12 6L13 6L13 7L14 7L14 6L13 6L13 5ZM15 6L15 7L16 7L16 6ZM25 6L25 7L26 7L26 8L25 8L25 11L23 11L23 12L22 12L22 11L21 11L21 12L22 12L22 14L23 14L23 15L19 15L19 14L17 14L17 15L15 15L15 16L17 16L17 17L16 17L16 18L14 18L14 17L11 17L11 20L10 20L10 19L9 19L9 20L10 20L10 21L8 21L8 22L7 22L7 21L6 21L6 22L7 22L7 23L6 23L6 24L7 24L7 25L4 25L4 26L5 26L5 27L6 27L6 26L8 26L8 24L9 24L9 22L10 22L10 23L11 23L11 24L14 24L14 23L13 23L13 22L12 22L12 19L13 19L13 21L14 21L14 20L15 20L15 21L16 21L16 22L18 22L18 23L17 23L17 25L18 25L18 28L19 28L19 29L20 29L20 28L23 28L23 29L25 29L25 30L26 30L26 31L25 31L25 32L27 32L27 31L28 31L28 27L30 27L30 28L31 28L31 27L30 27L30 26L27 26L27 29L25 29L25 28L26 28L26 26L24 26L24 25L27 25L27 24L28 24L28 25L30 25L30 24L29 24L29 23L30 23L30 22L31 22L31 26L32 26L32 28L33 28L33 30L34 30L34 32L35 32L35 31L36 31L36 30L35 30L35 29L36 29L36 28L35 28L35 26L34 26L34 28L33 28L33 21L34 21L34 20L36 20L36 18L35 18L35 17L34 17L34 16L33 16L33 17L30 17L30 15L29 15L29 16L28 16L28 17L25 17L25 18L26 18L26 19L24 19L24 17L22 17L22 18L21 18L21 17L20 17L20 16L23 16L23 15L24 15L24 16L26 16L26 14L29 14L29 13L30 13L30 14L31 14L31 13L32 13L32 12L31 12L31 13L30 13L30 12L29 12L29 11L28 11L28 12L29 12L29 13L27 13L27 12L26 12L26 10L27 10L27 9L26 9L26 8L28 8L28 6L27 6L27 7L26 7L26 6ZM3 9L3 10L2 10L2 11L1 11L1 12L2 12L2 13L6 13L6 14L7 14L7 13L6 13L6 12L3 12L3 11L6 11L6 10L5 10L5 9ZM28 9L28 10L30 10L30 9ZM34 9L34 10L33 10L33 11L34 11L34 12L33 12L33 13L34 13L34 12L35 12L35 11L36 11L36 10L35 10L35 9ZM31 10L31 11L32 11L32 10ZM23 12L23 13L25 13L25 14L26 14L26 12ZM9 13L9 14L10 14L10 13ZM11 14L11 15L12 15L12 14ZM6 17L6 18L7 18L7 17ZM18 17L18 18L16 18L16 19L15 19L15 20L17 20L17 21L18 21L18 22L19 22L19 21L18 21L18 18L19 18L19 20L20 20L20 21L26 21L26 22L27 22L27 23L26 23L26 24L27 24L27 23L28 23L28 22L27 22L27 21L33 21L33 20L34 20L34 19L32 19L32 18L30 18L30 17L28 17L28 18L27 18L27 19L26 19L26 20L21 20L21 19L20 19L20 17ZM3 18L3 19L2 19L2 20L3 20L3 21L4 21L4 20L3 20L3 19L4 19L4 18ZM13 18L13 19L14 19L14 18ZM0 19L0 20L1 20L1 19ZM27 19L27 20L26 20L26 21L27 21L27 20L28 20L28 19ZM29 19L29 20L31 20L31 19ZM0 21L0 22L1 22L1 23L0 23L0 24L1 24L1 25L0 25L0 29L1 29L1 25L2 25L2 24L1 24L1 23L2 23L2 22L1 22L1 21ZM20 22L20 23L22 23L22 24L20 24L20 25L21 25L21 27L23 27L23 26L22 26L22 24L23 24L23 25L24 25L24 24L23 24L23 23L25 23L25 22L23 22L23 23L22 23L22 22ZM35 22L35 23L36 23L36 24L37 24L37 22ZM19 26L19 28L20 28L20 26ZM16 27L16 28L15 28L15 30L16 30L16 28L17 28L17 27ZM24 27L24 28L25 28L25 27ZM10 28L10 29L11 29L11 28ZM34 28L34 29L35 29L35 28ZM29 29L29 32L32 32L32 29ZM30 30L30 31L31 31L31 30ZM12 31L12 32L11 32L11 33L12 33L12 32L13 32L13 31ZM17 31L17 32L16 32L16 34L17 34L17 36L16 36L16 37L17 37L17 36L18 36L18 37L20 37L20 36L18 36L18 35L22 35L22 36L23 36L23 37L24 37L24 35L26 35L26 34L23 34L23 33L21 33L21 31L19 31L19 32L18 32L18 31ZM22 31L22 32L23 32L23 31ZM19 32L19 33L20 33L20 32ZM9 33L9 34L10 34L10 33ZM31 33L31 34L32 34L32 36L33 36L33 34L32 34L32 33ZM14 34L14 35L13 35L13 36L15 36L15 34ZM22 34L22 35L23 35L23 34ZM25 36L25 37L26 37L26 36ZM0 0L0 7L7 7L7 0ZM1 1L1 6L6 6L6 1ZM2 2L2 5L5 5L5 2ZM30 0L30 7L37 7L37 0ZM31 1L31 6L36 6L36 1ZM32 2L32 5L35 5L35 2ZM0 30L0 37L7 37L7 30ZM1 31L1 36L6 36L6 31ZM2 32L2 35L5 35L5 32Z" fill="#000000"/></g></g></svg>
