<?xml version="1.0" encoding="UTF-8"?>
<svg xmlns="http://www.w3.org/2000/svg" version="1.1" width="200" height="200" viewBox="0 0 200 200"><rect x="0" y="0" width="200" height="200" fill="#ffffff"/><g transform="scale(5.405)"><g transform="translate(0,0)"><path fill-rule="evenodd" d="M10 0L10 1L8 1L8 7L9 7L9 8L5 8L5 9L3 9L3 8L2 8L2 9L3 9L3 10L4 10L4 14L2 14L2 15L1 15L1 16L0 16L0 17L1 17L1 18L2 18L2 19L1 19L1 21L0 21L0 22L2 22L2 24L1 24L1 25L3 25L3 26L5 26L5 27L9 27L9 28L11 28L11 27L9 27L9 26L8 26L8 25L10 25L10 26L11 26L11 25L12 25L12 27L13 27L13 25L14 25L14 26L15 26L15 27L14 27L14 33L11 33L11 32L13 32L13 30L12 30L12 31L11 31L11 29L8 29L8 32L9 32L9 34L8 34L8 35L9 35L9 34L10 34L10 35L11 35L11 36L10 36L10 37L11 37L11 36L14 36L14 35L13 35L13 34L15 34L15 36L16 36L16 37L18 37L18 35L19 35L19 37L23 37L23 36L24 36L24 37L25 37L25 32L23 32L23 33L21 33L21 34L20 34L20 35L19 35L19 34L18 34L18 33L19 33L19 32L20 32L20 31L19 31L19 32L18 32L18 33L17 33L17 32L16 32L16 31L18 31L18 30L21 30L21 32L22 32L22 30L23 30L23 31L24 31L24 28L23 28L23 27L24 27L24 26L22 26L22 28L23 28L23 29L22 29L22 30L21 30L21 28L20 28L20 29L18 29L18 28L19 28L19 27L20 27L20 26L21 26L21 25L23 25L23 24L25 24L25 27L26 27L26 29L25 29L25 31L26 31L26 36L27 36L27 35L28 35L28 37L31 37L31 36L32 36L32 35L34 35L34 33L33 33L33 31L34 31L34 29L33 29L33 28L32 28L32 27L36 27L36 31L37 31L37 20L36 20L36 21L35 21L35 22L34 22L34 23L36 23L36 24L35 24L35 26L34 26L34 24L32 24L32 23L33 23L33 22L31 22L31 20L33 20L33 18L34 18L34 19L37 19L37 16L36 16L36 17L35 17L35 18L34 18L34 17L33 17L33 18L32 18L32 19L31 19L31 16L32 16L32 14L31 14L31 12L33 12L33 13L34 13L34 11L35 11L35 12L36 12L36 13L35 13L35 14L34 14L34 15L37 15L37 12L36 12L36 11L37 11L37 9L36 9L36 8L31 8L31 10L29 10L29 12L27 12L27 11L28 11L28 10L27 10L27 11L26 11L26 10L25 10L25 9L26 9L26 7L27 7L27 9L28 9L28 7L29 7L29 0L28 0L28 7L27 7L27 5L25 5L25 4L26 4L26 3L27 3L27 0L21 0L21 2L22 2L22 3L23 3L23 4L22 4L22 5L23 5L23 6L22 6L22 8L21 8L21 5L20 5L20 8L19 8L19 3L20 3L20 0L19 0L19 1L18 1L18 0L16 0L16 1L15 1L15 0L13 0L13 1L12 1L12 0ZM22 1L22 2L23 2L23 1ZM9 2L9 4L11 4L11 3L12 3L12 4L13 4L13 3L14 3L14 4L15 4L15 5L16 5L16 6L15 6L15 7L14 7L14 5L13 5L13 9L12 9L12 8L11 8L11 9L9 9L9 10L7 10L7 9L5 9L5 11L6 11L6 12L5 12L5 16L7 16L7 17L5 17L5 18L3 18L3 19L2 19L2 21L3 21L3 22L4 22L4 23L3 23L3 24L4 24L4 23L6 23L6 24L7 24L7 23L11 23L11 24L10 24L10 25L11 25L11 24L12 24L12 25L13 25L13 24L12 24L12 23L11 23L11 22L7 22L7 21L8 21L8 20L7 20L7 19L8 19L8 18L11 18L11 17L12 17L12 18L13 18L13 17L14 17L14 15L15 15L15 14L16 14L16 12L19 12L19 11L22 11L22 12L20 12L20 13L18 13L18 14L17 14L17 15L18 15L18 14L20 14L20 15L19 15L19 16L17 16L17 17L15 17L15 18L14 18L14 20L13 20L13 19L9 19L9 21L10 21L10 20L11 20L11 21L12 21L12 22L13 22L13 23L14 23L14 24L15 24L15 25L16 25L16 24L17 24L17 26L16 26L16 27L17 27L17 28L15 28L15 31L16 31L16 30L18 30L18 29L17 29L17 28L18 28L18 27L19 27L19 26L20 26L20 25L19 25L19 26L18 26L18 24L19 24L19 23L20 23L20 24L21 24L21 22L19 22L19 21L22 21L22 24L23 24L23 22L24 22L24 23L25 23L25 24L26 24L26 23L25 23L25 22L27 22L27 20L26 20L26 19L24 19L24 20L25 20L25 21L22 21L22 20L20 20L20 19L19 19L19 18L18 18L18 17L20 17L20 18L21 18L21 19L23 19L23 18L24 18L24 17L26 17L26 15L27 15L27 13L26 13L26 11L23 11L23 10L24 10L24 6L23 6L23 8L22 8L22 9L21 9L21 8L20 8L20 10L19 10L19 11L18 11L18 10L17 10L17 8L18 8L18 9L19 9L19 8L18 8L18 5L17 5L17 4L18 4L18 3L19 3L19 2L17 2L17 4L16 4L16 3L15 3L15 2L13 2L13 3L12 3L12 2L11 2L11 3L10 3L10 2ZM24 2L24 4L23 4L23 5L24 5L24 4L25 4L25 2ZM9 6L9 7L10 7L10 6ZM11 6L11 7L12 7L12 6ZM16 6L16 7L15 7L15 8L14 8L14 11L15 11L15 12L16 12L16 11L15 11L15 10L16 10L16 8L17 8L17 6ZM25 6L25 7L26 7L26 6ZM29 8L29 9L30 9L30 8ZM0 9L0 10L1 10L1 13L0 13L0 14L1 14L1 13L2 13L2 12L3 12L3 11L2 11L2 10L1 10L1 9ZM11 9L11 11L7 11L7 10L6 10L6 11L7 11L7 12L6 12L6 13L7 13L7 12L9 12L9 13L8 13L8 15L7 15L7 14L6 14L6 15L7 15L7 16L8 16L8 17L11 17L11 16L10 16L10 15L9 15L9 14L10 14L10 13L11 13L11 15L14 15L14 12L12 12L12 9ZM33 9L33 10L32 10L32 11L33 11L33 10L35 10L35 11L36 11L36 9ZM22 12L22 13L20 13L20 14L21 14L21 15L20 15L20 16L22 16L22 17L21 17L21 18L22 18L22 17L24 17L24 14L25 14L25 15L26 15L26 13L24 13L24 14L23 14L23 12ZM29 12L29 14L28 14L28 15L29 15L29 19L28 19L28 20L30 20L30 16L31 16L31 15L30 15L30 12ZM12 13L12 14L13 14L13 13ZM2 15L2 16L1 16L1 17L2 17L2 16L3 16L3 17L4 17L4 16L3 16L3 15ZM8 15L8 16L9 16L9 15ZM22 15L22 16L23 16L23 15ZM5 18L5 19L3 19L3 20L5 20L5 21L4 21L4 22L5 22L5 21L7 21L7 20L6 20L6 19L7 19L7 18ZM16 18L16 20L15 20L15 21L14 21L14 23L15 23L15 22L16 22L16 23L17 23L17 24L18 24L18 23L17 23L17 22L18 22L18 19L17 19L17 18ZM16 21L16 22L17 22L17 21ZM6 22L6 23L7 23L7 22ZM28 23L28 24L29 24L29 23ZM30 23L30 24L31 24L31 23ZM5 25L5 26L7 26L7 25ZM27 25L27 26L26 26L26 27L28 27L28 25ZM30 25L30 26L31 26L31 27L32 27L32 26L33 26L33 25ZM0 26L0 27L2 27L2 26ZM17 26L17 27L18 27L18 26ZM29 27L29 28L30 28L30 27ZM0 28L0 29L5 29L5 28ZM6 28L6 29L7 29L7 28ZM27 28L27 29L28 29L28 28ZM29 29L29 32L32 32L32 29ZM27 30L27 32L28 32L28 30ZM30 30L30 31L31 31L31 30ZM10 31L10 32L11 32L11 31ZM35 32L35 33L36 33L36 34L35 34L35 35L37 35L37 32ZM15 33L15 34L16 34L16 36L17 36L17 35L18 35L18 34L16 34L16 33ZM23 33L23 35L24 35L24 33ZM27 33L27 34L28 34L28 33ZM30 33L30 36L31 36L31 35L32 35L32 33ZM11 34L11 35L12 35L12 34ZM21 35L21 36L22 36L22 35ZM33 36L33 37L34 37L34 36ZM36 36L36 37L37 37L37 36ZM0 0L0 7L7 7L7 0ZM1 1L1 6L6 6L6 1ZM2 2L2 5L5 5L5 2ZM30 0L30 7L37 7L37 0ZM31 1L31 6L36 6L36 1ZM32 2L32 5L35 5L35 2ZM0 30L0 37L7 37L7 30ZM1 31L1 36L6 36L6 31ZM2 32L2 35L5 35L5 32Z" fill="#000000"/></g></g></svg>
