<?xml version="1.0" encoding="UTF-8"?>
<svg xmlns="http://www.w3.org/2000/svg" version="1.1" width="200" height="200" viewBox="0 0 200 200"><rect x="0" y="0" width="200" height="200" fill="#ffffff"/><g transform="scale(5.405)"><g transform="translate(0,0)"><path fill-rule="evenodd" d="M8 0L8 3L9 3L9 4L10 4L10 3L13 3L13 4L12 4L12 5L11 5L11 6L10 6L10 5L8 5L8 9L7 9L7 8L6 8L6 9L7 9L7 10L6 10L6 11L7 11L7 10L8 10L8 14L6 14L6 13L7 13L7 12L4 12L4 14L3 14L3 11L4 11L4 10L3 10L3 11L1 11L1 15L0 15L0 16L1 16L1 17L0 17L0 19L1 19L1 20L0 20L0 22L1 22L1 23L0 23L0 29L1 29L1 24L2 24L2 26L3 26L3 28L2 28L2 29L3 29L3 28L4 28L4 29L5 29L5 28L4 28L4 26L6 26L6 27L8 27L8 25L9 25L9 27L11 27L11 28L12 28L12 27L14 27L14 25L13 25L13 26L12 26L12 27L11 27L11 26L10 26L10 25L12 25L12 23L11 23L11 22L12 22L12 21L13 21L13 22L14 22L14 20L16 20L16 21L15 21L15 23L17 23L17 24L15 24L15 26L16 26L16 27L15 27L15 29L16 29L16 31L18 31L18 32L19 32L19 33L17 33L17 34L16 34L16 32L15 32L15 30L14 30L14 31L12 31L12 29L11 29L11 30L9 30L9 29L8 29L8 30L9 30L9 31L10 31L10 33L9 33L9 32L8 32L8 35L9 35L9 36L10 36L10 37L11 37L11 36L12 36L12 37L13 37L13 36L12 36L12 35L9 35L9 34L10 34L10 33L11 33L11 34L13 34L13 35L14 35L14 37L19 37L19 36L20 36L20 37L24 37L24 35L26 35L26 34L27 34L27 35L28 35L28 36L27 36L27 37L28 37L28 36L29 36L29 35L30 35L30 37L37 37L37 34L36 34L36 36L34 36L34 35L35 35L35 34L34 34L34 33L35 33L35 32L36 32L36 33L37 33L37 30L36 30L36 29L35 29L35 28L34 28L34 27L35 27L35 26L36 26L36 28L37 28L37 26L36 26L36 25L37 25L37 24L36 24L36 23L37 23L37 22L36 22L36 21L37 21L37 18L36 18L36 17L35 17L35 16L37 16L37 14L36 14L36 13L37 13L37 12L36 12L36 11L37 11L37 10L36 10L36 9L37 9L37 8L34 8L34 9L32 9L32 8L26 8L26 7L27 7L27 6L28 6L28 7L29 7L29 6L28 6L28 5L26 5L26 4L29 4L29 3L27 3L27 2L28 2L28 1L24 1L24 0L23 0L23 1L22 1L22 2L23 2L23 3L21 3L21 0L20 0L20 3L19 3L19 2L18 2L18 3L17 3L17 4L16 4L16 1L17 1L17 0L16 0L16 1L15 1L15 2L14 2L14 0L11 0L11 1L10 1L10 0ZM18 0L18 1L19 1L19 0ZM23 1L23 2L24 2L24 1ZM9 2L9 3L10 3L10 2ZM25 2L25 3L23 3L23 5L22 5L22 4L21 4L21 3L20 3L20 4L21 4L21 5L19 5L19 4L18 4L18 5L19 5L19 7L20 7L20 10L22 10L22 9L24 9L24 8L25 8L25 11L24 11L24 12L23 12L23 11L19 11L19 8L18 8L18 6L17 6L17 11L14 11L14 10L16 10L16 9L12 9L12 6L13 6L13 8L15 8L15 7L16 7L16 6L15 6L15 7L14 7L14 6L13 6L13 5L14 5L14 4L15 4L15 5L16 5L16 4L15 4L15 3L14 3L14 4L13 4L13 5L12 5L12 6L11 6L11 8L10 8L10 6L9 6L9 8L10 8L10 9L9 9L9 12L10 12L10 13L9 13L9 14L8 14L8 15L5 15L5 16L8 16L8 15L10 15L10 14L11 14L11 11L14 11L14 12L13 12L13 14L12 14L12 15L11 15L11 17L10 17L10 18L8 18L8 19L9 19L9 20L10 20L10 21L8 21L8 20L7 20L7 19L6 19L6 18L7 18L7 17L5 17L5 20L4 20L4 19L2 19L2 20L1 20L1 21L3 21L3 22L2 22L2 23L3 23L3 26L4 26L4 24L5 24L5 25L6 25L6 26L7 26L7 25L6 25L6 24L10 24L10 21L11 21L11 20L13 20L13 18L11 18L11 17L12 17L12 15L13 15L13 14L15 14L15 17L16 17L16 18L18 18L18 20L19 20L19 21L16 21L16 22L17 22L17 23L19 23L19 24L20 24L20 25L16 25L16 26L17 26L17 27L16 27L16 29L17 29L17 30L18 30L18 29L19 29L19 30L20 30L20 29L21 29L21 27L22 27L22 24L23 24L23 29L25 29L25 30L21 30L21 31L22 31L22 32L23 32L23 34L22 34L22 33L21 33L21 34L22 34L22 35L21 35L21 36L23 36L23 34L26 34L26 33L27 33L27 32L26 32L26 31L28 31L28 27L29 27L29 28L32 28L32 27L34 27L34 26L35 26L35 25L34 25L34 26L33 26L33 23L31 23L31 26L32 26L32 27L29 27L29 26L27 26L27 28L26 28L26 26L24 26L24 25L27 25L27 24L28 24L28 25L30 25L30 24L29 24L29 23L30 23L30 22L33 22L33 21L34 21L34 22L35 22L35 23L34 23L34 24L35 24L35 23L36 23L36 22L35 22L35 21L34 21L34 20L36 20L36 18L35 18L35 17L34 17L34 18L33 18L33 17L30 17L30 15L29 15L29 14L31 14L31 16L35 16L35 15L36 15L36 14L35 14L35 13L34 13L34 14L33 14L33 13L32 13L32 12L31 12L31 11L32 11L32 10L31 10L31 11L30 11L30 12L31 12L31 13L27 13L27 11L26 11L26 10L27 10L27 9L26 9L26 8L25 8L25 7L26 7L26 6L25 6L25 7L24 7L24 4L25 4L25 3L26 3L26 2ZM21 5L21 6L20 6L20 7L21 7L21 6L22 6L22 7L23 7L23 8L24 8L24 7L23 7L23 6L22 6L22 5ZM2 8L2 9L5 9L5 8ZM11 9L11 10L10 10L10 11L11 11L11 10L12 10L12 9ZM28 9L28 10L30 10L30 9ZM34 9L34 11L33 11L33 12L35 12L35 11L36 11L36 10L35 10L35 9ZM18 11L18 12L19 12L19 11ZM28 11L28 12L29 12L29 11ZM14 12L14 13L16 13L16 14L18 14L18 15L16 15L16 16L17 16L17 17L18 17L18 15L21 15L21 16L22 16L22 20L20 20L20 19L21 19L21 18L20 18L20 16L19 16L19 18L20 18L20 19L19 19L19 20L20 20L20 21L19 21L19 23L20 23L20 22L21 22L21 21L22 21L22 23L21 23L21 24L22 24L22 23L23 23L23 19L24 19L24 21L26 21L26 22L27 22L27 23L26 23L26 24L27 24L27 23L28 23L28 22L30 22L30 21L33 21L33 20L34 20L34 19L35 19L35 18L34 18L34 19L32 19L32 18L30 18L30 17L29 17L29 16L27 16L27 15L28 15L28 14L26 14L26 12L24 12L24 13L22 13L22 12L21 12L21 14L20 14L20 13L19 13L19 14L18 14L18 13L16 13L16 12ZM31 13L31 14L32 14L32 15L33 15L33 14L32 14L32 13ZM2 14L2 15L3 15L3 18L4 18L4 15L3 15L3 14ZM22 14L22 16L26 16L26 14L25 14L25 15L23 15L23 14ZM24 17L24 18L25 18L25 20L26 20L26 21L27 21L27 22L28 22L28 21L30 21L30 20L28 20L28 21L27 21L27 20L26 20L26 19L27 19L27 18L29 18L29 19L30 19L30 18L29 18L29 17ZM10 18L10 20L11 20L11 18ZM14 18L14 19L15 19L15 18ZM16 19L16 20L17 20L17 19ZM3 20L3 21L4 21L4 20ZM5 20L5 22L6 22L6 23L5 23L5 24L6 24L6 23L7 23L7 22L8 22L8 21L7 21L7 20ZM6 21L6 22L7 22L7 21ZM3 22L3 23L4 23L4 22ZM24 22L24 24L25 24L25 22ZM13 23L13 24L14 24L14 23ZM18 26L18 27L17 27L17 29L18 29L18 28L19 28L19 29L20 29L20 28L19 28L19 27L21 27L21 26ZM24 27L24 28L25 28L25 29L26 29L26 30L27 30L27 29L26 29L26 28L25 28L25 27ZM6 28L6 29L7 29L7 28ZM13 28L13 29L14 29L14 28ZM33 28L33 31L34 31L34 32L33 32L33 33L34 33L34 32L35 32L35 31L36 31L36 30L35 30L35 29L34 29L34 28ZM29 29L29 32L32 32L32 29ZM30 30L30 31L31 31L31 30ZM11 31L11 32L12 32L12 31ZM19 31L19 32L20 32L20 31ZM23 31L23 32L24 32L24 33L26 33L26 32L24 32L24 31ZM13 32L13 33L14 33L14 35L15 35L15 36L19 36L19 34L18 34L18 35L15 35L15 32ZM28 33L28 34L30 34L30 35L31 35L31 34L32 34L32 36L33 36L33 35L34 35L34 34L32 34L32 33L31 33L31 34L30 34L30 33ZM25 36L25 37L26 37L26 36ZM0 0L0 7L7 7L7 0ZM1 1L1 6L6 6L6 1ZM2 2L2 5L5 5L5 2ZM30 0L30 7L37 7L37 0ZM31 1L31 6L36 6L36 1ZM32 2L32 5L35 5L35 2ZM0 30L0 37L7 37L7 30ZM1 31L1 36L6 36L6 31ZM2 32L2 35L5 35L5 32Z" fill="#000000"/></g></g></svg>
