<?xml version="1.0" encoding="UTF-8"?>
<svg xmlns="http://www.w3.org/2000/svg" version="1.1" width="200" height="200" viewBox="0 0 200 200"><rect x="0" y="0" width="200" height="200" fill="#ffffff"/><g transform="scale(5.405)"><g transform="translate(0,0)"><path fill-rule="evenodd" d="M8 0L8 3L9 3L9 5L8 5L8 9L7 9L7 8L6 8L6 9L5 9L5 8L2 8L2 9L0 9L0 10L2 10L2 9L3 9L3 10L4 10L4 11L1 11L1 14L0 14L0 16L1 16L1 17L0 17L0 21L1 21L1 19L2 19L2 23L1 23L1 22L0 22L0 23L1 23L1 25L0 25L0 29L1 29L1 25L2 25L2 28L3 28L3 29L5 29L5 28L3 28L3 26L4 26L4 27L7 27L7 26L8 26L8 25L9 25L9 27L10 27L10 29L11 29L11 30L12 30L12 31L13 31L13 32L15 32L15 33L12 33L12 32L11 32L11 31L10 31L10 30L9 30L9 29L8 29L8 30L9 30L9 31L10 31L10 32L8 32L8 35L9 35L9 37L10 37L10 36L11 36L11 35L12 35L12 36L13 36L13 37L16 37L16 35L15 35L15 34L16 34L16 33L17 33L17 36L18 36L18 37L24 37L24 35L25 35L25 34L23 34L23 33L20 33L20 31L23 31L23 32L24 32L24 33L26 33L26 34L27 34L27 33L28 33L28 34L29 34L29 35L28 35L28 36L27 36L27 35L26 35L26 36L25 36L25 37L26 37L26 36L27 36L27 37L28 37L28 36L29 36L29 37L37 37L37 34L36 34L36 36L34 36L34 35L33 35L33 36L32 36L32 34L35 34L35 32L33 32L33 29L37 29L37 28L36 28L36 27L37 27L37 26L36 26L36 25L37 25L37 22L36 22L36 21L37 21L37 18L36 18L36 17L37 17L37 16L31 16L31 14L32 14L32 15L33 15L33 14L34 14L34 13L35 13L35 12L34 12L34 11L36 11L36 12L37 12L37 10L34 10L34 11L33 11L33 9L32 9L32 8L28 8L28 7L29 7L29 6L28 6L28 5L27 5L27 4L29 4L29 1L26 1L26 2L27 2L27 4L26 4L26 3L24 3L24 4L25 4L25 6L24 6L24 7L25 7L25 8L22 8L22 7L23 7L23 6L22 6L22 5L23 5L23 4L22 4L22 3L21 3L21 4L19 4L19 6L18 6L18 5L17 5L17 6L16 6L16 5L15 5L15 6L14 6L14 5L13 5L13 4L16 4L16 2L17 2L17 1L19 1L19 0L13 0L13 1L12 1L12 0L11 0L11 1L12 1L12 3L11 3L11 6L10 6L10 1L9 1L9 0ZM20 0L20 2L18 2L18 3L17 3L17 4L18 4L18 3L20 3L20 2L23 2L23 1L24 1L24 2L25 2L25 1L24 1L24 0L23 0L23 1L22 1L22 0ZM13 1L13 3L12 3L12 4L13 4L13 3L14 3L14 2L16 2L16 1ZM21 4L21 5L20 5L20 6L19 6L19 8L16 8L16 6L15 6L15 7L14 7L14 6L13 6L13 7L12 7L12 6L11 6L11 7L12 7L12 8L10 8L10 6L9 6L9 9L8 9L8 11L6 11L6 10L7 10L7 9L6 9L6 10L5 10L5 11L4 11L4 12L2 12L2 14L1 14L1 16L3 16L3 17L4 17L4 18L7 18L7 17L8 17L8 15L9 15L9 16L10 16L10 17L12 17L12 18L13 18L13 19L11 19L11 18L10 18L10 19L11 19L11 20L10 20L10 21L9 21L9 18L8 18L8 20L7 20L7 19L5 19L5 21L4 21L4 20L3 20L3 22L5 22L5 21L6 21L6 22L7 22L7 23L6 23L6 24L8 24L8 22L9 22L9 23L10 23L10 24L9 24L9 25L11 25L11 23L12 23L12 26L10 26L10 27L12 27L12 26L13 26L13 28L12 28L12 30L13 30L13 31L14 31L14 30L15 30L15 29L13 29L13 28L14 28L14 26L13 26L13 23L14 23L14 25L15 25L15 26L16 26L16 24L17 24L17 23L18 23L18 25L21 25L21 26L22 26L22 27L20 27L20 28L19 28L19 27L18 27L18 26L17 26L17 27L18 27L18 28L19 28L19 29L18 29L18 30L19 30L19 29L20 29L20 30L22 30L22 27L23 27L23 29L24 29L24 30L23 30L23 31L24 31L24 32L26 32L26 33L27 33L27 31L28 31L28 27L29 27L29 28L31 28L31 27L32 27L32 28L35 28L35 27L36 27L36 26L35 26L35 25L33 25L33 21L34 21L34 22L35 22L35 23L34 23L34 24L35 24L35 23L36 23L36 22L35 22L35 21L34 21L34 20L36 20L36 18L35 18L35 17L29 17L29 16L30 16L30 15L29 15L29 14L31 14L31 13L32 13L32 14L33 14L33 13L34 13L34 12L33 12L33 13L32 13L32 12L31 12L31 11L32 11L32 10L31 10L31 11L30 11L30 9L28 9L28 8L27 8L27 7L28 7L28 6L27 6L27 7L26 7L26 6L25 6L25 7L26 7L26 8L25 8L25 9L24 9L24 10L23 10L23 9L22 9L22 8L20 8L20 6L21 6L21 7L22 7L22 6L21 6L21 5L22 5L22 4ZM17 6L17 7L18 7L18 6ZM13 7L13 9L15 9L15 11L13 11L13 10L12 10L12 9L10 9L10 10L9 10L9 11L8 11L8 12L6 12L6 13L5 13L5 12L4 12L4 13L3 13L3 15L4 15L4 16L5 16L5 17L7 17L7 16L6 16L6 15L7 15L7 14L6 14L6 13L8 13L8 14L9 14L9 13L10 13L10 12L9 12L9 11L10 11L10 10L11 10L11 12L12 12L12 11L13 11L13 12L15 12L15 13L14 13L14 14L12 14L12 13L11 13L11 14L10 14L10 15L11 15L11 16L12 16L12 17L13 17L13 18L14 18L14 23L15 23L15 22L16 22L16 23L17 23L17 21L19 21L19 22L18 22L18 23L20 23L20 24L21 24L21 25L22 25L22 24L21 24L21 22L22 22L22 23L23 23L23 21L24 21L24 24L25 24L25 21L27 21L27 20L28 20L28 21L29 21L29 22L27 22L27 23L26 23L26 24L27 24L27 25L24 25L24 26L26 26L26 28L25 28L25 27L24 27L24 29L26 29L26 30L24 30L24 31L26 31L26 30L27 30L27 29L26 29L26 28L27 28L27 26L29 26L29 27L31 27L31 23L32 23L32 21L33 21L33 20L34 20L34 18L33 18L33 19L32 19L32 18L30 18L30 19L31 19L31 20L30 20L30 21L29 21L29 20L28 20L28 19L29 19L29 17L28 17L28 16L27 16L27 15L28 15L28 14L26 14L26 12L27 12L27 13L31 13L31 12L30 12L30 11L29 11L29 10L28 10L28 9L27 9L27 8L26 8L26 9L27 9L27 11L26 11L26 12L24 12L24 11L23 11L23 10L22 10L22 9L19 9L19 10L22 10L22 11L21 11L21 12L20 12L20 11L18 11L18 9L17 9L17 11L16 11L16 8L14 8L14 7ZM34 8L34 9L37 9L37 8ZM15 11L15 12L16 12L16 15L15 15L15 14L14 14L14 15L13 15L13 17L14 17L14 18L16 18L16 19L17 19L17 18L19 18L19 19L20 19L20 20L19 20L19 21L20 21L20 22L21 22L21 21L20 21L20 20L22 20L22 19L23 19L23 18L24 18L24 20L27 20L27 18L28 18L28 17L26 17L26 18L24 18L24 17L25 17L25 16L26 16L26 14L25 14L25 13L24 13L24 14L25 14L25 15L23 15L23 12L21 12L21 13L20 13L20 14L19 14L19 12L16 12L16 11ZM28 11L28 12L29 12L29 11ZM17 13L17 14L18 14L18 16L19 16L19 17L20 17L20 18L21 18L21 17L22 17L22 18L23 18L23 17L24 17L24 16L23 16L23 15L22 15L22 14L21 14L21 15L20 15L20 16L19 16L19 14L18 14L18 13ZM4 14L4 15L6 15L6 14ZM35 14L35 15L37 15L37 14ZM21 15L21 16L22 16L22 17L23 17L23 16L22 16L22 15ZM15 16L15 17L16 17L16 18L17 18L17 16ZM1 17L1 18L2 18L2 19L3 19L3 18L2 18L2 17ZM6 20L6 21L7 21L7 22L8 22L8 21L7 21L7 20ZM15 20L15 21L16 21L16 20ZM31 20L31 21L30 21L30 22L29 22L29 23L28 23L28 25L30 25L30 24L29 24L29 23L30 23L30 22L31 22L31 21L32 21L32 20ZM11 21L11 22L10 22L10 23L11 23L11 22L12 22L12 23L13 23L13 22L12 22L12 21ZM2 23L2 25L3 25L3 24L5 24L5 23ZM6 25L6 26L7 26L7 25ZM32 26L32 27L34 27L34 26ZM6 28L6 29L7 29L7 28ZM16 28L16 29L17 29L17 28ZM20 28L20 29L21 29L21 28ZM29 29L29 32L32 32L32 29ZM30 30L30 31L31 31L31 30ZM35 30L35 31L36 31L36 33L37 33L37 30ZM16 31L16 32L17 32L17 33L18 33L18 36L19 36L19 35L20 35L20 36L21 36L21 35L20 35L20 33L19 33L19 32L17 32L17 31ZM29 33L29 34L30 34L30 35L29 35L29 36L30 36L30 35L31 35L31 34L32 34L32 33L31 33L31 34L30 34L30 33ZM9 34L9 35L11 35L11 34ZM12 34L12 35L13 35L13 36L15 36L15 35L14 35L14 34ZM22 34L22 36L23 36L23 34ZM0 0L0 7L7 7L7 0ZM1 1L1 6L6 6L6 1ZM2 2L2 5L5 5L5 2ZM30 0L30 7L37 7L37 0ZM31 1L31 6L36 6L36 1ZM32 2L32 5L35 5L35 2ZM0 30L0 37L7 37L7 30ZM1 31L1 36L6 36L6 31ZM2 32L2 35L5 35L5 32Z" fill="#000000"/></g></g></svg>
