<?xml version="1.0" encoding="UTF-8"?>
<svg xmlns="http://www.w3.org/2000/svg" version="1.1" width="200" height="200" viewBox="0 0 200 200"><rect x="0" y="0" width="200" height="200" fill="#ffffff"/><g transform="scale(6.897)"><g transform="translate(0,0)"><path fill-rule="evenodd" d="M15 0L15 1L14 1L14 4L16 4L16 5L14 5L14 7L13 7L13 6L12 6L12 7L11 7L11 5L13 5L13 4L11 4L11 5L10 5L10 2L11 2L11 1L10 1L10 2L9 2L9 1L8 1L8 7L9 7L9 5L10 5L10 8L5 8L5 10L6 10L6 11L7 11L7 10L8 10L8 9L10 9L10 10L12 10L12 11L10 11L10 12L11 12L11 13L8 13L8 12L9 12L9 11L8 11L8 12L6 12L6 13L4 13L4 12L5 12L5 11L3 11L3 10L4 10L4 9L3 9L3 8L2 8L2 10L1 10L1 9L0 9L0 10L1 10L1 11L0 11L0 16L1 16L1 18L0 18L0 19L2 19L2 18L3 18L3 17L5 17L5 18L6 18L6 19L3 19L3 21L5 21L5 20L6 20L6 21L7 21L7 20L8 20L8 18L9 18L9 21L8 21L8 24L9 24L9 25L10 25L10 26L12 26L12 27L11 27L11 28L10 28L10 29L13 29L13 24L15 24L15 25L16 25L16 24L17 24L17 29L18 29L18 28L19 28L19 29L23 29L23 28L21 28L21 27L22 27L22 25L24 25L24 26L23 26L23 27L24 27L24 29L25 29L25 18L26 18L26 19L27 19L27 20L28 20L28 23L27 23L27 22L26 22L26 23L27 23L27 27L29 27L29 26L28 26L28 23L29 23L29 20L28 20L28 19L29 19L29 17L25 17L25 18L24 18L24 20L22 20L22 19L23 19L23 17L24 17L24 16L25 16L25 15L27 15L27 14L24 14L24 12L25 12L25 13L26 13L26 12L25 12L25 10L24 10L24 11L23 11L23 9L26 9L26 11L28 11L28 12L27 12L27 13L28 13L28 16L29 16L29 9L28 9L28 8L23 8L23 9L22 9L22 8L21 8L21 5L20 5L20 11L17 11L17 10L18 10L18 7L19 7L19 3L21 3L21 0L19 0L19 1L18 1L18 2L17 2L17 1L16 1L16 0ZM12 1L12 3L13 3L13 1ZM15 1L15 3L16 3L16 1ZM19 1L19 2L18 2L18 3L19 3L19 2L20 2L20 1ZM17 4L17 5L16 5L16 6L15 6L15 8L14 8L14 9L13 9L13 12L14 12L14 10L15 10L15 12L17 12L17 13L15 13L15 14L14 14L14 13L13 13L13 16L12 16L12 15L11 15L11 16L12 16L12 17L10 17L10 18L11 18L11 19L12 19L12 18L13 18L13 17L14 17L14 18L16 18L16 19L15 19L15 20L14 20L14 21L13 21L13 22L12 22L12 23L11 23L11 20L10 20L10 21L9 21L9 22L10 22L10 23L9 23L9 24L12 24L12 23L13 23L13 22L14 22L14 23L15 23L15 22L14 22L14 21L16 21L16 22L17 22L17 23L18 23L18 27L21 27L21 26L20 26L20 25L19 25L19 23L20 23L20 21L19 21L19 22L18 22L18 21L16 21L16 19L17 19L17 20L21 20L21 17L20 17L20 16L23 16L23 15L24 15L24 14L23 14L23 15L21 15L21 14L22 14L22 11L21 11L21 13L20 13L20 12L17 12L17 11L16 11L16 10L17 10L17 9L16 9L16 10L15 10L15 8L16 8L16 6L17 6L17 7L18 7L18 6L17 6L17 5L18 5L18 4ZM12 7L12 8L13 8L13 7ZM6 9L6 10L7 10L7 9ZM1 11L1 13L2 13L2 12L3 12L3 11ZM3 13L3 15L2 15L2 14L1 14L1 16L4 16L4 15L6 15L6 16L5 16L5 17L6 17L6 18L7 18L7 17L8 17L8 16L9 16L9 15L10 15L10 14L8 14L8 13L6 13L6 14L4 14L4 13ZM11 13L11 14L12 14L12 13ZM18 13L18 15L17 15L17 14L16 14L16 16L17 16L17 17L16 17L16 18L17 18L17 19L20 19L20 18L17 18L17 17L18 17L18 15L19 15L19 16L20 16L20 13ZM6 14L6 15L7 15L7 16L6 16L6 17L7 17L7 16L8 16L8 14ZM14 15L14 17L15 17L15 15ZM6 19L6 20L7 20L7 19ZM0 20L0 21L2 21L2 20ZM21 21L21 24L24 24L24 21ZM22 22L22 23L23 23L23 22ZM8 26L8 27L9 27L9 26ZM14 26L14 27L15 27L15 28L14 28L14 29L16 29L16 27L15 27L15 26ZM28 28L28 29L29 29L29 28ZM0 0L0 7L7 7L7 0ZM1 1L1 6L6 6L6 1ZM2 2L2 5L5 5L5 2ZM22 0L22 7L29 7L29 0ZM23 1L23 6L28 6L28 1ZM24 2L24 5L27 5L27 2ZM0 22L0 29L7 29L7 22ZM1 23L1 28L6 28L6 23ZM2 24L2 27L5 27L5 24Z" fill="#000000"/></g></g></svg>
