<?xml version="1.0" encoding="UTF-8"?>
<svg xmlns="http://www.w3.org/2000/svg" version="1.1" width="200" height="200" viewBox="0 0 200 200"><rect x="0" y="0" width="200" height="200" fill="#ffffff"/><g transform="scale(5.405)"><g transform="translate(0,0)"><path fill-rule="evenodd" d="M8 0L8 1L9 1L9 3L8 3L8 4L9 4L9 6L8 6L8 7L9 7L9 8L8 8L8 9L9 9L9 10L8 10L8 11L9 11L9 12L10 12L10 10L12 10L12 11L11 11L11 12L12 12L12 14L13 14L13 15L12 15L12 16L13 16L13 20L16 20L16 21L17 21L17 23L16 23L16 22L15 22L15 23L16 23L16 24L14 24L14 21L12 21L12 20L11 20L11 19L12 19L12 18L11 18L11 19L10 19L10 17L11 17L11 15L10 15L10 13L7 13L7 12L6 12L6 11L7 11L7 10L6 10L6 9L7 9L7 8L4 8L4 9L3 9L3 8L2 8L2 11L3 11L3 12L6 12L6 13L1 13L1 12L0 12L0 14L2 14L2 15L3 15L3 18L2 18L2 17L0 17L0 18L1 18L1 20L0 20L0 22L1 22L1 23L0 23L0 25L1 25L1 26L0 26L0 27L1 27L1 28L0 28L0 29L1 29L1 28L2 28L2 29L3 29L3 28L4 28L4 29L5 29L5 28L4 28L4 27L7 27L7 28L6 28L6 29L8 29L8 30L9 30L9 29L11 29L11 30L12 30L12 31L8 31L8 33L9 33L9 32L11 32L11 34L12 34L12 35L11 35L11 36L9 36L9 37L11 37L11 36L12 36L12 37L13 37L13 36L14 36L14 35L15 35L15 37L16 37L16 35L15 35L15 34L18 34L18 35L17 35L17 37L19 37L19 35L20 35L20 34L21 34L21 36L20 36L20 37L22 37L22 34L23 34L23 35L24 35L24 36L23 36L23 37L26 37L26 35L28 35L28 37L32 37L32 36L31 36L31 35L33 35L33 36L34 36L34 35L35 35L35 37L37 37L37 36L36 36L36 35L37 35L37 32L36 32L36 31L37 31L37 24L36 24L36 23L37 23L37 20L36 20L36 19L37 19L37 16L35 16L35 17L36 17L36 19L35 19L35 18L34 18L34 15L33 15L33 14L34 14L34 11L35 11L35 12L36 12L36 13L35 13L35 15L37 15L37 8L36 8L36 11L35 11L35 10L33 10L33 9L34 9L34 8L33 8L33 9L32 9L32 10L33 10L33 11L32 11L32 12L33 12L33 14L31 14L31 10L30 10L30 8L29 8L29 3L28 3L28 2L29 2L29 0L26 0L26 1L25 1L25 0L24 0L24 1L23 1L23 0L21 0L21 1L23 1L23 2L22 2L22 5L21 5L21 4L19 4L19 3L15 3L15 2L16 2L16 0L15 0L15 2L14 2L14 1L13 1L13 0L11 0L11 1L10 1L10 0ZM18 0L18 1L17 1L17 2L20 2L20 3L21 3L21 2L20 2L20 0ZM12 1L12 2L11 2L11 5L10 5L10 6L9 6L9 7L10 7L10 8L9 8L9 9L10 9L10 8L11 8L11 9L13 9L13 10L15 10L15 9L14 9L14 8L16 8L16 9L17 9L17 10L16 10L16 11L17 11L17 10L18 10L18 11L20 11L20 12L18 12L18 13L16 13L16 12L15 12L15 11L13 11L13 12L14 12L14 13L13 13L13 14L14 14L14 16L15 16L15 17L16 17L16 16L15 16L15 15L16 15L16 14L18 14L18 15L19 15L19 16L17 16L17 19L16 19L16 20L19 20L19 21L21 21L21 22L23 22L23 23L17 23L17 25L18 25L18 26L17 26L17 27L14 27L14 26L15 26L15 25L12 25L12 24L13 24L13 23L12 23L12 22L11 22L11 21L10 21L10 20L8 20L8 18L7 18L7 17L8 17L8 16L7 16L7 15L6 15L6 14L7 14L7 13L6 13L6 14L5 14L5 15L4 15L4 14L3 14L3 15L4 15L4 16L5 16L5 17L4 17L4 18L3 18L3 21L2 21L2 20L1 20L1 22L2 22L2 25L3 25L3 26L1 26L1 27L4 27L4 26L8 26L8 27L9 27L9 26L8 26L8 25L10 25L10 27L11 27L11 29L12 29L12 30L13 30L13 29L14 29L14 31L15 31L15 32L14 32L14 33L19 33L19 34L20 34L20 33L21 33L21 34L22 34L22 32L23 32L23 33L24 33L24 32L25 32L25 31L26 31L26 32L27 32L27 33L28 33L28 32L27 32L27 31L26 31L26 29L25 29L25 27L27 27L27 28L28 28L28 27L27 27L27 26L26 26L26 24L25 24L25 23L26 23L26 22L27 22L27 25L28 25L28 24L29 24L29 27L30 27L30 26L31 26L31 25L32 25L32 26L33 26L33 25L35 25L35 27L31 27L31 28L33 28L33 29L34 29L34 30L33 30L33 31L34 31L34 33L33 33L33 35L34 35L34 34L35 34L35 35L36 35L36 34L35 34L35 33L36 33L36 32L35 32L35 31L36 31L36 29L35 29L35 27L36 27L36 25L35 25L35 23L36 23L36 21L35 21L35 19L33 19L33 20L32 20L32 19L30 19L30 16L31 16L31 15L30 15L30 16L29 16L29 14L30 14L30 12L29 12L29 8L28 8L28 6L27 6L27 7L26 7L26 5L27 5L27 1L26 1L26 2L25 2L25 1L24 1L24 3L25 3L25 4L26 4L26 5L24 5L24 4L23 4L23 5L22 5L22 6L21 6L21 7L20 7L20 6L19 6L19 4L15 4L15 5L14 5L14 4L13 4L13 5L12 5L12 2L13 2L13 3L14 3L14 2L13 2L13 1ZM9 3L9 4L10 4L10 3ZM11 5L11 6L10 6L10 7L11 7L11 8L14 8L14 7L15 7L15 6L16 6L16 8L18 8L18 10L20 10L20 9L21 9L21 8L20 8L20 9L19 9L19 6L18 6L18 7L17 7L17 5L15 5L15 6L14 6L14 7L13 7L13 6L12 6L12 5ZM11 6L11 7L12 7L12 6ZM22 6L22 9L23 9L23 10L22 10L22 11L21 11L21 13L20 13L20 14L21 14L21 15L22 15L22 16L21 16L21 18L19 18L19 17L20 17L20 16L19 16L19 17L18 17L18 18L19 18L19 19L21 19L21 20L22 20L22 21L25 21L25 22L24 22L24 23L23 23L23 24L22 24L22 25L21 25L21 24L20 24L20 25L19 25L19 24L18 24L18 25L19 25L19 27L18 27L18 28L16 28L16 29L15 29L15 31L16 31L16 32L20 32L20 31L19 31L19 30L18 30L18 29L20 29L20 30L21 30L21 31L22 31L22 30L23 30L23 28L24 28L24 27L21 27L21 26L22 26L22 25L23 25L23 26L24 26L24 25L23 25L23 24L24 24L24 23L25 23L25 22L26 22L26 20L27 20L27 21L28 21L28 19L26 19L26 18L27 18L27 17L28 17L28 15L25 15L25 16L23 16L23 15L24 15L24 14L25 14L25 13L27 13L27 12L28 12L28 14L29 14L29 12L28 12L28 11L27 11L27 10L28 10L28 9L27 9L27 10L26 10L26 9L25 9L25 13L24 13L24 14L23 14L23 15L22 15L22 14L21 14L21 13L22 13L22 12L24 12L24 11L23 11L23 10L24 10L24 9L23 9L23 8L25 8L25 6L24 6L24 7L23 7L23 6ZM0 9L0 11L1 11L1 9ZM3 10L3 11L6 11L6 10ZM14 13L14 14L16 14L16 13ZM18 13L18 14L19 14L19 13ZM8 14L8 15L9 15L9 16L10 16L10 15L9 15L9 14ZM5 15L5 16L6 16L6 17L5 17L5 18L4 18L4 21L3 21L3 23L4 23L4 21L5 21L5 23L8 23L8 24L6 24L6 25L8 25L8 24L9 24L9 23L10 23L10 25L11 25L11 27L13 27L13 26L12 26L12 25L11 25L11 24L12 24L12 23L10 23L10 22L6 22L6 21L7 21L7 20L6 20L6 19L7 19L7 18L6 18L6 17L7 17L7 16L6 16L6 15ZM32 15L32 18L33 18L33 15ZM22 17L22 18L21 18L21 19L22 19L22 20L23 20L23 19L24 19L24 18L23 18L23 17ZM29 20L29 22L30 22L30 23L31 23L31 24L30 24L30 25L31 25L31 24L32 24L32 25L33 25L33 24L34 24L34 23L35 23L35 22L34 22L34 21L33 21L33 22L32 22L32 20ZM33 22L33 23L34 23L34 22ZM3 24L3 25L5 25L5 24ZM20 27L20 29L22 29L22 28L21 28L21 27ZM12 28L12 29L13 29L13 28ZM16 29L16 31L18 31L18 30L17 30L17 29ZM27 29L27 30L28 30L28 29ZM29 29L29 32L32 32L32 29ZM24 30L24 31L25 31L25 30ZM30 30L30 31L31 31L31 30ZM12 31L12 32L13 32L13 31ZM29 33L29 35L31 35L31 33ZM8 34L8 35L10 35L10 34ZM12 35L12 36L13 36L13 35ZM0 0L0 7L7 7L7 0ZM1 1L1 6L6 6L6 1ZM2 2L2 5L5 5L5 2ZM30 0L30 7L37 7L37 0ZM31 1L31 6L36 6L36 1ZM32 2L32 5L35 5L35 2ZM0 30L0 37L7 37L7 30ZM1 31L1 36L6 36L6 31ZM2 32L2 35L5 35L5 32Z" fill="#000000"/></g></g></svg>
