<?xml version="1.0" encoding="UTF-8"?>
<svg xmlns="http://www.w3.org/2000/svg" version="1.1" width="200" height="200" viewBox="0 0 200 200"><rect x="0" y="0" width="200" height="200" fill="#ffffff"/><g transform="scale(5.405)"><g transform="translate(0,0)"><path fill-rule="evenodd" d="M8 0L8 3L9 3L9 4L10 4L10 3L11 3L11 6L10 6L10 7L9 7L9 5L8 5L8 9L7 9L7 8L6 8L6 9L7 9L7 10L5 10L5 12L4 12L4 9L5 9L5 8L2 8L2 9L1 9L1 11L2 11L2 13L3 13L3 15L0 15L0 16L2 16L2 18L1 18L1 19L0 19L0 20L2 20L2 18L3 18L3 19L4 19L4 18L6 18L6 19L7 19L7 20L6 20L6 21L8 21L8 22L3 22L3 21L4 21L4 20L3 20L3 21L2 21L2 23L1 23L1 22L0 22L0 23L1 23L1 25L0 25L0 29L1 29L1 25L2 25L2 26L3 26L3 24L2 24L2 23L8 23L8 24L4 24L4 28L3 28L3 27L2 27L2 28L3 28L3 29L5 29L5 27L7 27L7 28L6 28L6 29L7 29L7 28L9 28L9 29L8 29L8 30L9 30L9 32L8 32L8 35L9 35L9 34L11 34L11 33L12 33L12 36L11 36L11 37L14 37L14 35L15 35L15 37L16 37L16 35L19 35L19 32L17 32L17 31L18 31L18 30L16 30L16 29L20 29L20 26L21 26L21 28L22 28L22 29L21 29L21 30L19 30L19 31L20 31L20 34L23 34L23 36L22 36L22 35L20 35L20 36L17 36L17 37L20 37L20 36L21 36L21 37L24 37L24 35L26 35L26 36L25 36L25 37L26 37L26 36L29 36L29 37L37 37L37 34L36 34L36 36L34 36L34 35L33 35L33 36L32 36L32 34L35 34L35 33L37 33L37 30L36 30L36 29L37 29L37 28L34 28L34 26L35 26L35 27L37 27L37 26L35 26L35 25L37 25L37 24L34 24L34 23L33 23L33 27L32 27L32 26L31 26L31 23L32 23L32 21L33 21L33 20L34 20L34 21L37 21L37 18L36 18L36 17L37 17L37 16L34 16L34 15L35 15L35 14L36 14L36 15L37 15L37 14L36 14L36 13L37 13L37 10L36 10L36 9L37 9L37 8L34 8L34 9L32 9L32 8L29 8L29 6L28 6L28 5L29 5L29 4L28 4L28 2L29 2L29 1L25 1L25 0L24 0L24 1L23 1L23 0L21 0L21 2L20 2L20 0L19 0L19 2L18 2L18 1L17 1L17 0L15 0L15 1L14 1L14 0L13 0L13 1L14 1L14 2L12 2L12 0ZM10 1L10 2L11 2L11 1ZM22 1L22 3L20 3L20 2L19 2L19 3L17 3L17 2L15 2L15 5L14 5L14 4L12 4L12 6L11 6L11 7L10 7L10 9L8 9L8 10L7 10L7 11L6 11L6 12L5 12L5 13L4 13L4 14L7 14L7 13L6 13L6 12L7 12L7 11L8 11L8 12L9 12L9 13L8 13L8 15L5 15L5 16L7 16L7 17L6 17L6 18L7 18L7 19L8 19L8 21L9 21L9 22L8 22L8 23L9 23L9 24L10 24L10 25L13 25L13 26L15 26L15 25L14 25L14 22L15 22L15 24L16 24L16 25L17 25L17 26L16 26L16 27L15 27L15 28L14 28L14 27L13 27L13 28L12 28L12 29L10 29L10 30L12 30L12 29L13 29L13 30L15 30L15 31L12 31L12 32L13 32L13 33L14 33L14 34L13 34L13 35L14 35L14 34L15 34L15 35L16 35L16 34L18 34L18 33L17 33L17 32L15 32L15 31L16 31L16 30L15 30L15 29L16 29L16 27L17 27L17 28L18 28L18 27L19 27L19 26L20 26L20 25L23 25L23 29L24 29L24 30L22 30L22 31L24 31L24 32L22 32L22 33L23 33L23 34L26 34L26 35L29 35L29 36L30 36L30 35L31 35L31 34L32 34L32 33L31 33L31 34L29 34L29 33L27 33L27 31L28 31L28 27L29 27L29 28L30 28L30 27L29 27L29 26L27 26L27 29L24 29L24 27L25 27L25 28L26 28L26 26L24 26L24 25L27 25L27 24L28 24L28 25L30 25L30 24L29 24L29 23L30 23L30 22L31 22L31 21L32 21L32 20L31 20L31 19L29 19L29 18L28 18L28 17L30 17L30 18L32 18L32 19L33 19L33 18L35 18L35 19L34 19L34 20L36 20L36 18L35 18L35 17L34 17L34 16L33 16L33 13L34 13L34 14L35 14L35 13L34 13L34 12L35 12L35 11L36 11L36 10L35 10L35 9L34 9L34 10L35 10L35 11L34 11L34 12L33 12L33 13L32 13L32 12L31 12L31 11L32 11L32 10L31 10L31 11L30 11L30 9L28 9L28 10L29 10L29 11L28 11L28 12L29 12L29 11L30 11L30 12L31 12L31 13L27 13L27 11L26 11L26 10L27 10L27 9L26 9L26 8L27 8L27 7L28 7L28 6L27 6L27 7L26 7L26 6L25 6L25 3L26 3L26 4L27 4L27 5L28 5L28 4L27 4L27 2L23 2L23 1ZM19 3L19 4L20 4L20 3ZM22 3L22 4L21 4L21 5L18 5L18 4L16 4L16 5L15 5L15 6L14 6L14 5L13 5L13 6L12 6L12 7L11 7L11 8L13 8L13 9L10 9L10 10L12 10L12 11L11 11L11 12L10 12L10 13L13 13L13 12L12 12L12 11L13 11L13 9L15 9L15 10L16 10L16 11L18 11L18 12L19 12L19 11L18 11L18 10L20 10L20 14L16 14L16 12L15 12L15 13L14 13L14 15L13 15L13 16L11 16L11 15L12 15L12 14L11 14L11 15L10 15L10 17L9 17L9 16L8 16L8 18L9 18L9 19L10 19L10 18L11 18L11 19L12 19L12 17L13 17L13 18L14 18L14 19L19 19L19 18L20 18L20 17L19 17L19 18L18 18L18 17L17 17L17 18L14 18L14 17L15 17L15 16L14 16L14 15L16 15L16 16L19 16L19 15L20 15L20 14L21 14L21 16L22 16L22 15L23 15L23 14L21 14L21 11L22 11L22 12L24 12L24 14L26 14L26 16L24 16L24 17L25 17L25 18L22 18L22 19L20 19L20 21L18 21L18 20L14 20L14 21L17 21L17 22L16 22L16 23L18 23L18 24L20 24L20 23L22 23L22 24L23 24L23 25L24 25L24 23L23 23L23 22L22 22L22 21L24 21L24 19L25 19L25 18L26 18L26 17L27 17L27 16L28 16L28 15L30 15L30 17L33 17L33 16L31 16L31 15L32 15L32 13L31 13L31 14L26 14L26 12L24 12L24 10L25 10L25 9L22 9L22 8L23 8L23 5L22 5L22 4L24 4L24 3ZM16 5L16 6L15 6L15 8L16 8L16 6L17 6L17 8L18 8L18 9L16 9L16 10L18 10L18 9L20 9L20 10L21 10L21 8L20 8L20 6L19 6L19 7L18 7L18 6L17 6L17 5ZM13 6L13 8L14 8L14 6ZM21 6L21 7L22 7L22 6ZM24 6L24 7L25 7L25 8L26 8L26 7L25 7L25 6ZM2 10L2 11L3 11L3 10ZM8 10L8 11L9 11L9 10ZM22 10L22 11L23 11L23 10ZM3 15L3 17L4 17L4 15ZM13 16L13 17L14 17L14 16ZM27 18L27 19L26 19L26 20L25 20L25 21L26 21L26 22L27 22L27 23L26 23L26 24L27 24L27 23L29 23L29 22L27 22L27 21L31 21L31 20L29 20L29 19L28 19L28 18ZM22 19L22 20L21 20L21 21L20 21L20 22L21 22L21 21L22 21L22 20L23 20L23 19ZM11 20L11 21L10 21L10 22L11 22L11 24L12 24L12 20ZM26 20L26 21L27 21L27 20ZM18 22L18 23L19 23L19 22ZM35 22L35 23L37 23L37 22ZM5 25L5 26L7 26L7 25ZM18 25L18 26L19 26L19 25ZM10 26L10 28L11 28L11 26ZM31 27L31 28L32 28L32 27ZM33 28L33 31L34 31L34 32L33 32L33 33L34 33L34 32L36 32L36 30L35 30L35 29L34 29L34 28ZM29 29L29 32L32 32L32 29ZM24 30L24 31L26 31L26 30ZM30 30L30 31L31 31L31 30ZM34 30L34 31L35 31L35 30ZM14 32L14 33L15 33L15 34L16 34L16 33L15 33L15 32ZM24 32L24 33L26 33L26 34L27 34L27 33L26 33L26 32ZM0 0L0 7L7 7L7 0ZM1 1L1 6L6 6L6 1ZM2 2L2 5L5 5L5 2ZM30 0L30 7L37 7L37 0ZM31 1L31 6L36 6L36 1ZM32 2L32 5L35 5L35 2ZM0 30L0 37L7 37L7 30ZM1 31L1 36L6 36L6 31ZM2 32L2 35L5 35L5 32Z" fill="#000000"/></g></g></svg>
