<?xml version="1.0" encoding="UTF-8"?>
<svg xmlns="http://www.w3.org/2000/svg" version="1.1" width="200" height="200" viewBox="0 0 200 200"><rect x="0" y="0" width="200" height="200" fill="#ffffff"/><g transform="scale(5.405)"><g transform="translate(0,0)"><path fill-rule="evenodd" d="M10 0L10 1L9 1L9 2L10 2L10 3L11 3L11 2L10 2L10 1L11 1L11 0ZM13 0L13 1L12 1L12 5L11 5L11 4L10 4L10 5L9 5L9 4L8 4L8 5L9 5L9 6L8 6L8 8L6 8L6 9L7 9L7 10L6 10L6 11L7 11L7 12L5 12L5 10L4 10L4 12L3 12L3 13L2 13L2 12L0 12L0 14L1 14L1 15L0 15L0 16L1 16L1 17L0 17L0 19L1 19L1 21L0 21L0 24L1 24L1 25L2 25L2 26L1 26L1 27L0 27L0 28L1 28L1 27L3 27L3 28L2 28L2 29L3 29L3 28L4 28L4 27L3 27L3 25L2 25L2 24L3 24L3 23L2 23L2 22L4 22L4 23L7 23L7 22L5 22L5 21L4 21L4 20L2 20L2 19L1 19L1 17L3 17L3 16L4 16L4 12L5 12L5 13L7 13L7 14L5 14L5 16L6 16L6 17L7 17L7 18L5 18L5 20L6 20L6 21L8 21L8 22L9 22L9 24L8 24L8 26L6 26L6 25L7 25L7 24L6 24L6 25L5 25L5 24L4 24L4 26L5 26L5 27L8 27L8 28L6 28L6 29L8 29L8 31L9 31L9 32L10 32L10 33L8 33L8 35L9 35L9 34L10 34L10 33L11 33L11 34L14 34L14 35L16 35L16 37L17 37L17 35L16 35L16 34L17 34L17 33L19 33L19 34L21 34L21 35L22 35L22 36L21 36L21 37L22 37L22 36L23 36L23 37L24 37L24 36L25 36L25 37L26 37L26 36L27 36L27 35L23 35L23 33L24 33L24 31L25 31L25 30L24 30L24 29L26 29L26 30L27 30L27 29L28 29L28 31L27 31L27 32L28 32L28 33L30 33L30 35L34 35L34 36L31 36L31 37L37 37L37 36L35 36L35 35L36 35L36 34L35 34L35 35L34 35L34 32L33 32L33 31L34 31L34 30L33 30L33 29L35 29L35 30L36 30L36 32L35 32L35 33L36 33L36 32L37 32L37 29L36 29L36 28L37 28L37 27L36 27L36 28L34 28L34 27L35 27L35 25L36 25L36 26L37 26L37 23L35 23L35 22L34 22L34 21L33 21L33 20L34 20L34 19L35 19L35 21L36 21L36 19L37 19L37 17L35 17L35 16L36 16L36 15L35 15L35 16L34 16L34 15L33 15L33 18L34 18L34 19L33 19L33 20L32 20L32 15L30 15L30 14L31 14L31 13L32 13L32 14L33 14L33 11L34 11L34 13L35 13L35 12L36 12L36 9L35 9L35 11L34 11L34 9L33 9L33 8L32 8L32 9L31 9L31 8L29 8L29 6L28 6L28 8L29 8L29 9L30 9L30 10L33 10L33 11L32 11L32 12L31 12L31 11L30 11L30 12L29 12L29 10L28 10L28 9L27 9L27 5L28 5L28 4L29 4L29 3L28 3L28 2L29 2L29 1L28 1L28 2L27 2L27 3L26 3L26 2L25 2L25 1L24 1L24 0L23 0L23 1L24 1L24 2L23 2L23 3L22 3L22 2L20 2L20 3L17 3L17 2L18 2L18 1L19 1L19 0L18 0L18 1L17 1L17 0L16 0L16 3L17 3L17 4L15 4L15 5L14 5L14 4L13 4L13 1L14 1L14 3L15 3L15 0ZM20 3L20 4L17 4L17 5L15 5L15 7L14 7L14 6L13 6L13 7L14 7L14 8L15 8L15 9L13 9L13 8L12 8L12 9L11 9L11 10L10 10L10 11L11 11L11 10L12 10L12 11L13 11L13 12L9 12L9 11L8 11L8 14L7 14L7 15L6 15L6 16L7 16L7 17L8 17L8 18L9 18L9 16L7 16L7 15L9 15L9 14L10 14L10 15L12 15L12 13L14 13L14 14L13 14L13 16L12 16L12 17L11 17L11 16L10 16L10 17L11 17L11 18L12 18L12 19L11 19L11 20L10 20L10 19L9 19L9 20L8 20L8 19L6 19L6 20L8 20L8 21L9 21L9 22L11 22L11 23L10 23L10 24L9 24L9 25L10 25L10 26L13 26L13 27L9 27L9 26L8 26L8 27L9 27L9 28L10 28L10 29L11 29L11 28L13 28L13 29L14 29L14 30L13 30L13 32L12 32L12 31L10 31L10 30L9 30L9 31L10 31L10 32L12 32L12 33L14 33L14 34L16 34L16 33L15 33L15 31L17 31L17 30L18 30L18 31L19 31L19 30L18 30L18 29L20 29L20 28L21 28L21 31L20 31L20 32L19 32L19 33L21 33L21 34L22 34L22 33L23 33L23 31L24 31L24 30L22 30L22 28L21 28L21 27L23 27L23 28L24 28L24 26L25 26L25 25L26 25L26 26L28 26L28 25L29 25L29 26L30 26L30 27L29 27L29 28L32 28L32 27L33 27L33 26L34 26L34 25L33 25L33 24L34 24L34 23L33 23L33 24L31 24L31 22L33 22L33 21L32 21L32 20L29 20L29 19L28 19L28 20L27 20L27 21L26 21L26 19L25 19L25 17L24 17L24 16L26 16L26 15L25 15L25 14L23 14L23 13L21 13L21 12L22 12L22 10L23 10L23 11L24 11L24 12L25 12L25 11L24 11L24 10L23 10L23 9L24 9L24 8L25 8L25 7L26 7L26 5L25 5L25 4L23 4L23 7L24 7L24 8L23 8L23 9L22 9L22 10L21 10L21 7L22 7L22 6L21 6L21 4L22 4L22 3ZM10 5L10 6L9 6L9 7L10 7L10 8L9 8L9 9L10 9L10 8L11 8L11 7L12 7L12 6L11 6L11 5ZM17 5L17 6L16 6L16 7L15 7L15 8L16 8L16 9L15 9L15 10L16 10L16 11L18 11L18 9L17 9L17 6L18 6L18 7L19 7L19 10L20 10L20 12L21 12L21 10L20 10L20 7L21 7L21 6L20 6L20 7L19 7L19 6L18 6L18 5ZM24 5L24 7L25 7L25 5ZM10 6L10 7L11 7L11 6ZM2 8L2 9L4 9L4 8ZM0 9L0 11L1 11L1 9ZM12 9L12 10L13 10L13 9ZM16 9L16 10L17 10L17 9ZM25 9L25 10L26 10L26 11L27 11L27 12L26 12L26 13L27 13L27 12L28 12L28 10L27 10L27 9ZM14 11L14 12L15 12L15 11ZM16 12L16 13L15 13L15 14L14 14L14 17L18 17L18 18L17 18L17 19L16 19L16 18L15 18L15 19L16 19L16 20L17 20L17 19L18 19L18 21L20 21L20 22L19 22L19 23L18 23L18 22L16 22L16 24L17 24L17 25L15 25L15 20L14 20L14 18L13 18L13 17L12 17L12 18L13 18L13 19L12 19L12 21L13 21L13 20L14 20L14 22L12 22L12 24L11 24L11 25L12 25L12 24L13 24L13 23L14 23L14 25L13 25L13 26L17 26L17 28L18 28L18 25L19 25L19 23L21 23L21 25L23 25L23 26L24 26L24 23L25 23L25 24L27 24L27 22L26 22L26 23L25 23L25 19L24 19L24 22L23 22L23 21L22 21L22 20L23 20L23 18L24 18L24 17L23 17L23 16L24 16L24 15L22 15L22 14L21 14L21 15L22 15L22 16L20 16L20 17L23 17L23 18L20 18L20 19L19 19L19 17L18 17L18 15L20 15L20 13L18 13L18 12ZM1 13L1 14L2 14L2 13ZM16 13L16 16L17 16L17 14L18 14L18 13ZM28 13L28 14L27 14L27 15L29 15L29 18L30 18L30 17L31 17L31 16L30 16L30 15L29 15L29 13ZM36 13L36 14L37 14L37 13ZM1 15L1 16L2 16L2 15ZM27 16L27 17L28 17L28 16ZM3 18L3 19L4 19L4 18ZM35 18L35 19L36 19L36 18ZM20 19L20 20L22 20L22 19ZM28 20L28 22L29 22L29 23L28 23L28 24L30 24L30 25L31 25L31 24L30 24L30 21L29 21L29 20ZM1 21L1 22L2 22L2 21ZM21 21L21 22L22 22L22 21ZM1 23L1 24L2 24L2 23ZM17 23L17 24L18 24L18 23ZM22 23L22 24L23 24L23 23ZM32 25L32 26L33 26L33 25ZM20 26L20 27L21 27L21 26ZM25 27L25 28L26 28L26 27ZM27 27L27 28L28 28L28 27ZM15 28L15 29L16 29L16 30L17 30L17 29L16 29L16 28ZM29 29L29 32L32 32L32 29ZM30 30L30 31L31 31L31 30ZM21 32L21 33L22 33L22 32ZM26 33L26 34L27 34L27 33ZM31 33L31 34L32 34L32 33ZM28 34L28 35L29 35L29 34ZM9 36L9 37L11 37L11 36ZM13 36L13 37L15 37L15 36ZM19 36L19 37L20 37L20 36ZM29 36L29 37L30 37L30 36ZM0 0L0 7L7 7L7 0ZM1 1L1 6L6 6L6 1ZM2 2L2 5L5 5L5 2ZM30 0L30 7L37 7L37 0ZM31 1L31 6L36 6L36 1ZM32 2L32 5L35 5L35 2ZM0 30L0 37L7 37L7 30ZM1 31L1 36L6 36L6 31ZM2 32L2 35L5 35L5 32Z" fill="#000000"/></g></g></svg>
