<?xml version="1.0" encoding="UTF-8"?>
<svg xmlns="http://www.w3.org/2000/svg" version="1.1" width="200" height="200" viewBox="0 0 200 200"><rect x="0" y="0" width="200" height="200" fill="#ffffff"/><g transform="scale(5.405)"><g transform="translate(0,0)"><path fill-rule="evenodd" d="M8 0L8 3L9 3L9 5L8 5L8 9L7 9L7 8L6 8L6 9L7 9L7 10L5 10L5 11L4 11L4 10L3 10L3 9L5 9L5 8L2 8L2 11L0 11L0 13L1 13L1 14L0 14L0 15L1 15L1 18L2 18L2 17L3 17L3 18L6 18L6 19L5 19L5 20L6 20L6 21L7 21L7 22L5 22L5 23L4 23L4 22L3 22L3 21L2 21L2 19L1 19L1 21L0 21L0 24L2 24L2 25L0 25L0 29L1 29L1 26L2 26L2 29L4 29L4 26L3 26L3 24L5 24L5 26L6 26L6 27L5 27L5 29L8 29L8 30L12 30L12 31L11 31L11 32L12 32L12 33L13 33L13 34L11 34L11 33L9 33L9 32L10 32L10 31L9 31L9 32L8 32L8 35L9 35L9 37L12 37L12 36L14 36L14 37L18 37L18 35L19 35L19 36L20 36L20 34L18 34L18 35L16 35L16 34L17 34L17 33L18 33L18 32L16 32L16 31L17 31L17 30L18 30L18 31L19 31L19 30L20 30L20 31L21 31L21 30L20 30L20 28L21 28L21 29L22 29L22 28L21 28L21 27L22 27L22 26L23 26L23 25L24 25L24 26L26 26L26 28L25 28L25 27L24 27L24 28L25 28L25 29L23 29L23 30L25 30L25 29L27 29L27 26L30 26L30 27L31 27L31 28L29 28L29 27L28 27L28 31L26 31L26 32L24 32L24 33L27 33L27 34L26 34L26 35L27 35L27 34L29 34L29 35L28 35L28 36L24 36L24 35L25 35L25 34L22 34L22 35L23 35L23 37L28 37L28 36L29 36L29 37L30 37L30 36L31 36L31 37L37 37L37 34L36 34L36 36L34 36L34 33L35 33L35 32L34 32L34 30L33 30L33 29L37 29L37 26L35 26L35 28L32 28L32 27L33 27L33 26L32 26L32 27L31 27L31 22L32 22L32 23L33 23L33 25L37 25L37 22L36 22L36 21L37 21L37 18L36 18L36 17L37 17L37 14L36 14L36 13L37 13L37 10L36 10L36 9L37 9L37 8L34 8L34 9L35 9L35 10L36 10L36 11L35 11L35 12L34 12L34 11L33 11L33 9L32 9L32 8L26 8L26 7L27 7L27 6L28 6L28 7L29 7L29 5L26 5L26 4L29 4L29 2L28 2L28 1L27 1L27 3L24 3L24 2L25 2L25 1L26 1L26 0L25 0L25 1L24 1L24 2L20 2L20 1L19 1L19 0L16 0L16 1L15 1L15 0L14 0L14 1L15 1L15 2L16 2L16 4L15 4L15 3L14 3L14 5L13 5L13 3L12 3L12 2L11 2L11 1L10 1L10 0ZM21 0L21 1L23 1L23 0ZM9 1L9 3L10 3L10 1ZM16 1L16 2L18 2L18 3L17 3L17 4L19 4L19 3L20 3L20 2L18 2L18 1ZM24 4L24 5L21 5L21 8L20 8L20 5L18 5L18 6L17 6L17 7L18 7L18 8L20 8L20 9L21 9L21 10L19 10L19 9L17 9L17 8L16 8L16 6L15 6L15 5L14 5L14 6L13 6L13 7L12 7L12 5L10 5L10 6L9 6L9 9L10 9L10 13L9 13L9 12L8 12L8 13L3 13L3 11L2 11L2 14L1 14L1 15L2 15L2 14L7 14L7 15L6 15L6 16L5 16L5 17L6 17L6 18L7 18L7 17L6 17L6 16L8 16L8 18L9 18L9 19L10 19L10 21L9 21L9 20L8 20L8 19L6 19L6 20L7 20L7 21L9 21L9 22L11 22L11 23L10 23L10 25L11 25L11 24L14 24L14 26L16 26L16 27L13 27L13 25L12 25L12 28L11 28L11 29L12 29L12 28L15 28L15 31L16 31L16 28L18 28L18 30L19 30L19 28L18 28L18 26L19 26L19 27L21 27L21 26L22 26L22 25L21 25L21 24L22 24L22 23L23 23L23 24L24 24L24 25L27 25L27 24L26 24L26 23L27 23L27 22L29 22L29 23L28 23L28 25L30 25L30 24L29 24L29 23L30 23L30 22L31 22L31 21L32 21L32 22L33 22L33 23L34 23L34 24L36 24L36 22L35 22L35 21L34 21L34 20L36 20L36 18L34 18L34 20L33 20L33 21L32 21L32 20L31 20L31 19L30 19L30 18L32 18L32 19L33 19L33 17L23 17L23 19L25 19L25 20L23 20L23 22L21 22L21 21L20 21L20 20L18 20L18 18L19 18L19 17L17 17L17 16L18 16L18 15L14 15L14 16L13 16L13 17L15 17L15 19L14 19L14 18L12 18L12 20L13 20L13 21L11 21L11 19L10 19L10 17L12 17L12 16L8 16L8 15L11 15L11 14L12 14L12 15L13 15L13 12L15 12L15 13L16 13L16 12L17 12L17 14L19 14L19 16L21 16L21 17L22 17L22 16L26 16L26 14L29 14L29 13L30 13L30 14L31 14L31 13L32 13L32 15L31 15L31 16L32 16L32 15L33 15L33 16L35 16L35 17L36 17L36 16L35 16L35 15L36 15L36 14L35 14L35 13L34 13L34 12L33 12L33 13L32 13L32 12L31 12L31 11L32 11L32 10L31 10L31 11L30 11L30 9L28 9L28 10L29 10L29 11L28 11L28 12L29 12L29 13L27 13L27 12L26 12L26 11L27 11L27 9L26 9L26 8L24 8L24 5L25 5L25 4ZM10 6L10 7L11 7L11 9L12 9L12 11L11 11L11 13L10 13L10 14L11 14L11 13L12 13L12 12L13 12L13 9L16 9L16 11L15 11L15 12L16 12L16 11L17 11L17 12L18 12L18 11L19 11L19 12L20 12L20 13L19 13L19 14L21 14L21 12L22 12L22 11L21 11L21 12L20 12L20 11L19 11L19 10L17 10L17 9L16 9L16 8L14 8L14 7L15 7L15 6L14 6L14 7L13 7L13 8L12 8L12 7L11 7L11 6ZM18 6L18 7L19 7L19 6ZM22 6L22 7L23 7L23 6ZM25 6L25 7L26 7L26 6ZM21 8L21 9L24 9L24 10L23 10L23 11L25 11L25 10L26 10L26 9L24 9L24 8ZM0 9L0 10L1 10L1 9ZM7 10L7 11L5 11L5 12L7 12L7 11L9 11L9 10ZM29 11L29 12L30 12L30 13L31 13L31 12L30 12L30 11ZM24 12L24 13L22 13L22 15L23 15L23 14L24 14L24 13L25 13L25 14L26 14L26 12ZM8 13L8 14L9 14L9 13ZM33 13L33 15L35 15L35 14L34 14L34 13ZM3 15L3 16L4 16L4 15ZM27 15L27 16L28 16L28 15ZM29 15L29 16L30 16L30 15ZM16 17L16 18L17 18L17 17ZM25 18L25 19L26 19L26 20L25 20L25 21L29 21L29 22L30 22L30 21L31 21L31 20L30 20L30 19L29 19L29 18L27 18L27 19L26 19L26 18ZM3 19L3 20L4 20L4 19ZM16 19L16 20L17 20L17 19ZM27 19L27 20L28 20L28 19ZM29 20L29 21L30 21L30 20ZM13 21L13 22L12 22L12 23L13 23L13 22L15 22L15 23L16 23L16 24L15 24L15 25L16 25L16 26L17 26L17 25L16 25L16 24L18 24L18 25L19 25L19 26L21 26L21 25L19 25L19 24L21 24L21 22L18 22L18 21L17 21L17 22L16 22L16 21ZM7 22L7 23L6 23L6 24L7 24L7 25L6 25L6 26L8 26L8 29L10 29L10 28L9 28L9 24L8 24L8 22ZM18 23L18 24L19 24L19 23ZM24 23L24 24L25 24L25 23ZM6 27L6 28L7 28L7 27ZM29 29L29 32L32 32L32 29ZM13 30L13 31L12 31L12 32L13 32L13 31L14 31L14 30ZM30 30L30 31L31 31L31 30ZM35 30L35 31L37 31L37 30ZM15 32L15 33L16 33L16 32ZM19 32L19 33L20 33L20 32ZM21 32L21 33L23 33L23 32ZM33 32L33 33L34 33L34 32ZM36 32L36 33L37 33L37 32ZM29 33L29 34L30 34L30 35L29 35L29 36L30 36L30 35L32 35L32 36L33 36L33 34L30 34L30 33ZM9 34L9 35L10 35L10 34ZM13 34L13 35L15 35L15 34ZM11 35L11 36L12 36L12 35ZM0 0L0 7L7 7L7 0ZM1 1L1 6L6 6L6 1ZM2 2L2 5L5 5L5 2ZM30 0L30 7L37 7L37 0ZM31 1L31 6L36 6L36 1ZM32 2L32 5L35 5L35 2ZM0 30L0 37L7 37L7 30ZM1 31L1 36L6 36L6 31ZM2 32L2 35L5 35L5 32Z" fill="#000000"/></g></g></svg>
