<?xml version="1.0" encoding="UTF-8"?>
<svg xmlns="http://www.w3.org/2000/svg" version="1.1" width="200" height="200" viewBox="0 0 200 200"><rect x="0" y="0" width="200" height="200" fill="#ffffff"/><g transform="scale(5.405)"><g transform="translate(0,0)"><path fill-rule="evenodd" d="M9 0L9 2L8 2L8 4L9 4L9 6L8 6L8 7L9 7L9 8L10 8L10 11L9 11L9 10L8 10L8 8L6 8L6 9L7 9L7 10L6 10L6 11L7 11L7 12L5 12L5 13L4 13L4 11L5 11L5 8L3 8L3 10L1 10L1 9L0 9L0 12L1 12L1 11L3 11L3 15L2 15L2 16L0 16L0 19L2 19L2 21L0 21L0 22L1 22L1 23L0 23L0 29L1 29L1 27L5 27L5 29L7 29L7 28L6 28L6 27L7 27L7 26L6 26L6 25L8 25L8 26L9 26L9 25L10 25L10 26L11 26L11 27L8 27L8 28L9 28L9 29L8 29L8 31L10 31L10 32L11 32L11 33L10 33L10 35L9 35L9 37L10 37L10 35L11 35L11 37L13 37L13 36L14 36L14 37L16 37L16 36L18 36L18 37L21 37L21 36L20 36L20 35L19 35L19 34L18 34L18 33L17 33L17 32L19 32L19 33L20 33L20 34L21 34L21 35L22 35L22 36L23 36L23 35L22 35L22 34L21 34L21 33L23 33L23 32L22 32L22 31L20 31L20 30L22 30L22 27L23 27L23 26L22 26L22 27L20 27L20 26L21 26L21 25L19 25L19 24L22 24L22 23L21 23L21 22L19 22L19 21L22 21L22 22L24 22L24 21L25 21L25 20L26 20L26 24L25 24L25 25L24 25L24 26L25 26L25 27L24 27L24 28L23 28L23 29L24 29L24 30L23 30L23 31L24 31L24 30L25 30L25 32L24 32L24 33L25 33L25 32L26 32L26 31L27 31L27 34L24 34L24 35L28 35L28 33L30 33L30 34L31 34L31 35L29 35L29 36L28 36L28 37L29 37L29 36L32 36L32 35L34 35L34 36L33 36L33 37L34 37L34 36L36 36L36 37L37 37L37 34L35 34L35 33L33 33L33 30L34 30L34 31L37 31L37 30L35 30L35 26L36 26L36 27L37 27L37 26L36 26L36 24L37 24L37 22L36 22L36 21L37 21L37 18L35 18L35 17L37 17L37 14L36 14L36 13L37 13L37 12L36 12L36 11L37 11L37 10L36 10L36 11L34 11L34 10L35 10L35 8L33 8L33 11L31 11L31 10L32 10L32 9L30 9L30 10L29 10L29 9L28 9L28 7L29 7L29 5L28 5L28 7L27 7L27 4L26 4L26 2L23 2L23 1L27 1L27 0L22 0L22 1L20 1L20 3L21 3L21 4L20 4L20 5L19 5L19 1L16 1L16 0ZM28 0L28 2L27 2L27 3L28 3L28 2L29 2L29 0ZM11 1L11 3L12 3L12 2L14 2L14 3L13 3L13 4L12 4L12 6L11 6L11 5L10 5L10 6L9 6L9 7L10 7L10 8L11 8L11 7L12 7L12 8L13 8L13 7L14 7L14 9L13 9L13 11L12 11L12 9L11 9L11 12L9 12L9 11L8 11L8 13L6 13L6 14L4 14L4 15L3 15L3 16L2 16L2 17L1 17L1 18L2 18L2 19L3 19L3 20L8 20L8 19L10 19L10 20L9 20L9 21L6 21L6 22L5 22L5 21L2 21L2 23L1 23L1 24L3 24L3 25L1 25L1 26L5 26L5 23L6 23L6 24L8 24L8 25L9 25L9 24L8 24L8 22L10 22L10 21L11 21L11 22L13 22L13 24L17 24L17 25L18 25L18 23L16 23L16 20L17 20L17 22L18 22L18 21L19 21L19 20L20 20L20 18L19 18L19 17L21 17L21 16L22 16L22 17L23 17L23 18L21 18L21 20L22 20L22 21L23 21L23 19L24 19L24 20L25 20L25 18L26 18L26 17L25 17L25 18L24 18L24 16L27 16L27 15L25 15L25 14L26 14L26 11L23 11L23 10L24 10L24 9L25 9L25 10L26 10L26 9L25 9L25 8L26 8L26 6L25 6L25 5L23 5L23 4L24 4L24 3L23 3L23 2L21 2L21 3L23 3L23 4L22 4L22 5L23 5L23 7L22 7L22 6L21 6L21 7L20 7L20 6L19 6L19 5L18 5L18 4L15 4L15 5L18 5L18 6L17 6L17 7L16 7L16 6L15 6L15 7L14 7L14 6L13 6L13 5L14 5L14 3L16 3L16 2L14 2L14 1ZM9 2L9 3L10 3L10 2ZM17 2L17 3L18 3L18 2ZM10 6L10 7L11 7L11 6ZM12 6L12 7L13 7L13 6ZM18 6L18 7L17 7L17 8L18 8L18 7L19 7L19 6ZM24 6L24 7L25 7L25 6ZM21 7L21 10L23 10L23 9L24 9L24 8L22 8L22 7ZM18 9L18 10L19 10L19 9ZM27 9L27 10L28 10L28 9ZM3 10L3 11L4 11L4 10ZM16 10L16 11L15 11L15 12L13 12L13 14L14 14L14 15L15 15L15 16L14 16L14 17L13 17L13 19L12 19L12 17L11 17L11 16L8 16L8 15L12 15L12 16L13 16L13 15L12 15L12 12L11 12L11 14L10 14L10 13L8 13L8 15L7 15L7 14L6 14L6 15L4 15L4 17L2 17L2 18L4 18L4 19L5 19L5 18L6 18L6 19L7 19L7 18L9 18L9 17L11 17L11 19L12 19L12 20L13 20L13 21L14 21L14 19L17 19L17 20L19 20L19 19L18 19L18 17L19 17L19 15L18 15L18 17L17 17L17 15L16 15L16 14L15 14L15 12L16 12L16 13L17 13L17 12L18 12L18 11L17 11L17 10ZM16 11L16 12L17 12L17 11ZM19 11L19 13L18 13L18 14L19 14L19 13L22 13L22 14L20 14L20 16L21 16L21 15L22 15L22 16L23 16L23 15L24 15L24 14L23 14L23 12L21 12L21 11ZM27 11L27 12L28 12L28 15L29 15L29 16L28 16L28 19L26 19L26 20L28 20L28 19L30 19L30 20L31 20L31 21L28 21L28 22L31 22L31 24L34 24L34 25L33 25L33 26L32 26L32 27L33 27L33 29L34 29L34 26L35 26L35 24L36 24L36 23L35 23L35 22L32 22L32 20L33 20L33 19L32 19L32 18L34 18L34 21L35 21L35 20L36 20L36 19L35 19L35 18L34 18L34 17L33 17L33 16L32 16L32 17L30 17L30 15L29 15L29 14L31 14L31 13L33 13L33 14L32 14L32 15L33 15L33 14L34 14L34 15L35 15L35 16L36 16L36 14L35 14L35 13L36 13L36 12L34 12L34 13L33 13L33 12L31 12L31 13L30 13L30 11L29 11L29 12L28 12L28 11ZM24 12L24 13L25 13L25 12ZM1 13L1 14L2 14L2 13ZM22 14L22 15L23 15L23 14ZM6 15L6 16L7 16L7 17L6 17L6 18L7 18L7 17L8 17L8 16L7 16L7 15ZM15 16L15 17L16 17L16 18L17 18L17 17L16 17L16 16ZM29 17L29 18L30 18L30 19L31 19L31 18L30 18L30 17ZM3 22L3 23L4 23L4 22ZM6 22L6 23L7 23L7 22ZM14 22L14 23L15 23L15 22ZM11 23L11 24L12 24L12 23ZM27 23L27 24L30 24L30 23ZM34 23L34 24L35 24L35 23ZM11 25L11 26L13 26L13 28L10 28L10 29L9 29L9 30L10 30L10 31L12 31L12 32L13 32L13 33L14 33L14 35L18 35L18 34L17 34L17 33L14 33L14 32L16 32L16 29L17 29L17 27L18 27L18 26L16 26L16 25ZM25 25L25 26L27 26L27 27L25 27L25 28L24 28L24 29L25 29L25 28L26 28L26 30L27 30L27 31L28 31L28 28L31 28L31 27L30 27L30 26L29 26L29 27L28 27L28 25ZM14 26L14 27L15 27L15 28L16 28L16 27L15 27L15 26ZM27 27L27 28L28 28L28 27ZM2 28L2 29L4 29L4 28ZM18 28L18 30L17 30L17 31L18 31L18 30L19 30L19 28ZM20 28L20 29L21 29L21 28ZM36 28L36 29L37 29L37 28ZM12 29L12 31L13 31L13 30L15 30L15 29ZM29 29L29 32L32 32L32 29ZM30 30L30 31L31 31L31 30ZM8 32L8 34L9 34L9 32ZM20 32L20 33L21 33L21 32ZM36 32L36 33L37 33L37 32ZM11 33L11 35L12 35L12 36L13 36L13 35L12 35L12 33ZM31 33L31 34L33 34L33 33ZM26 36L26 37L27 37L27 36ZM0 0L0 7L7 7L7 0ZM1 1L1 6L6 6L6 1ZM2 2L2 5L5 5L5 2ZM30 0L30 7L37 7L37 0ZM31 1L31 6L36 6L36 1ZM32 2L32 5L35 5L35 2ZM0 30L0 37L7 37L7 30ZM1 31L1 36L6 36L6 31ZM2 32L2 35L5 35L5 32Z" fill="#000000"/></g></g></svg>
