<?xml version="1.0" encoding="UTF-8"?>
<svg xmlns="http://www.w3.org/2000/svg" version="1.1" width="200" height="200" viewBox="0 0 200 200"><rect x="0" y="0" width="200" height="200" fill="#ffffff"/><g transform="scale(5.405)"><g transform="translate(0,0)"><path fill-rule="evenodd" d="M8 0L8 3L9 3L9 4L11 4L11 5L8 5L8 10L6 10L6 11L5 11L5 8L2 8L2 9L4 9L4 11L2 11L2 12L1 12L1 9L0 9L0 14L1 14L1 15L0 15L0 17L1 17L1 15L2 15L2 16L4 16L4 15L7 15L7 16L6 16L6 17L5 17L5 18L4 18L4 17L2 17L2 18L3 18L3 19L4 19L4 20L3 20L3 21L4 21L4 22L5 22L5 21L4 21L4 20L5 20L5 18L6 18L6 19L7 19L7 18L9 18L9 17L10 17L10 20L9 20L9 21L10 21L10 22L9 22L9 23L10 23L10 22L12 22L12 21L13 21L13 22L14 22L14 21L15 21L15 24L16 24L16 26L12 26L12 28L11 28L11 29L10 29L10 30L9 30L9 29L8 29L8 28L5 28L5 27L7 27L7 26L8 26L8 27L9 27L9 26L8 26L8 25L9 25L9 24L8 24L8 25L7 25L7 24L4 24L4 23L3 23L3 22L2 22L2 23L3 23L3 24L1 24L1 23L0 23L0 29L1 29L1 25L2 25L2 26L4 26L4 28L5 28L5 29L8 29L8 30L9 30L9 31L10 31L10 32L8 32L8 35L9 35L9 36L11 36L11 37L12 37L12 34L11 34L11 33L12 33L12 32L11 32L11 31L13 31L13 33L14 33L14 34L13 34L13 35L14 35L14 34L15 34L15 35L16 35L16 36L13 36L13 37L16 37L16 36L17 36L17 37L19 37L19 36L17 36L17 34L15 34L15 33L18 33L18 35L19 35L19 33L20 33L20 34L21 34L21 35L20 35L20 37L21 37L21 35L22 35L22 36L23 36L23 37L28 37L28 36L29 36L29 37L37 37L37 34L36 34L36 36L34 36L34 35L35 35L35 34L34 34L34 33L35 33L35 32L36 32L36 33L37 33L37 30L36 30L36 29L37 29L37 28L36 28L36 27L37 27L37 26L34 26L34 25L35 25L35 24L37 24L37 22L36 22L36 21L37 21L37 18L36 18L36 17L35 17L35 16L32 16L32 13L33 13L33 15L35 15L35 14L36 14L36 16L37 16L37 14L36 14L36 13L37 13L37 12L33 12L33 11L34 11L34 10L33 10L33 9L32 9L32 8L26 8L26 7L27 7L27 6L28 6L28 7L29 7L29 6L28 6L28 5L29 5L29 4L28 4L28 2L29 2L29 1L25 1L25 0L24 0L24 1L25 1L25 2L27 2L27 4L26 4L26 3L25 3L25 4L23 4L23 3L22 3L22 2L23 2L23 1L22 1L22 2L21 2L21 3L20 3L20 2L19 2L19 1L18 1L18 0L17 0L17 5L16 5L16 4L15 4L15 5L13 5L13 4L14 4L14 3L15 3L15 1L16 1L16 0L15 0L15 1L14 1L14 3L13 3L13 4L11 4L11 3L10 3L10 2L9 2L9 0ZM10 0L10 1L12 1L12 2L13 2L13 1L12 1L12 0ZM18 3L18 4L20 4L20 5L18 5L18 6L17 6L17 7L16 7L16 5L15 5L15 7L14 7L14 6L13 6L13 5L12 5L12 6L11 6L11 7L10 7L10 6L9 6L9 7L10 7L10 8L11 8L11 9L9 9L9 10L11 10L11 11L10 11L10 12L11 12L11 13L6 13L6 12L7 12L7 11L6 11L6 12L5 12L5 11L4 11L4 12L3 12L3 13L4 13L4 14L8 14L8 15L11 15L11 16L12 16L12 15L13 15L13 12L14 12L14 11L15 11L15 13L16 13L16 14L15 14L15 15L14 15L14 16L16 16L16 17L18 17L18 18L19 18L19 19L18 19L18 21L20 21L20 22L19 22L19 23L18 23L18 22L17 22L17 21L16 21L16 24L17 24L17 25L18 25L18 31L17 31L17 29L15 29L15 30L14 30L14 27L13 27L13 28L12 28L12 29L11 29L11 30L10 30L10 31L11 31L11 30L14 30L14 33L15 33L15 30L16 30L16 32L18 32L18 31L21 31L21 32L20 32L20 33L21 33L21 32L22 32L22 35L23 35L23 34L26 34L26 35L24 35L24 36L26 36L26 35L27 35L27 36L28 36L28 35L29 35L29 36L31 36L31 35L32 35L32 36L33 36L33 35L34 35L34 34L30 34L30 33L27 33L27 32L28 32L28 30L27 30L27 29L28 29L28 27L29 27L29 28L35 28L35 29L33 29L33 30L35 30L35 31L34 31L34 32L33 32L33 33L34 33L34 32L35 32L35 31L36 31L36 30L35 30L35 29L36 29L36 28L35 28L35 27L34 27L34 26L33 26L33 22L35 22L35 23L34 23L34 24L35 24L35 23L36 23L36 22L35 22L35 21L34 21L34 20L36 20L36 18L34 18L34 20L33 20L33 21L32 21L32 20L31 20L31 19L30 19L30 18L32 18L32 19L33 19L33 17L30 17L30 15L29 15L29 14L31 14L31 13L32 13L32 12L31 12L31 11L32 11L32 10L31 10L31 11L30 11L30 9L28 9L28 10L29 10L29 11L28 11L28 12L31 12L31 13L27 13L27 12L26 12L26 11L27 11L27 9L26 9L26 8L24 8L24 9L23 9L23 8L22 8L22 6L23 6L23 7L24 7L24 6L25 6L25 7L26 7L26 6L25 6L25 5L24 5L24 6L23 6L23 5L22 5L22 6L21 6L21 8L20 8L20 5L21 5L21 4L20 4L20 3ZM27 4L27 5L28 5L28 4ZM12 6L12 7L13 7L13 6ZM18 6L18 8L16 8L16 7L15 7L15 8L12 8L12 9L13 9L13 10L14 10L14 9L16 9L16 10L15 10L15 11L16 11L16 13L19 13L19 14L18 14L18 16L19 16L19 17L20 17L20 19L21 19L21 20L20 20L20 21L21 21L21 22L22 22L22 23L21 23L21 24L20 24L20 23L19 23L19 24L18 24L18 23L17 23L17 24L18 24L18 25L19 25L19 29L20 29L20 30L21 30L21 31L23 31L23 32L24 32L24 33L26 33L26 34L27 34L27 35L28 35L28 34L27 34L27 33L26 33L26 32L27 32L27 31L26 31L26 32L25 32L25 29L27 29L27 26L30 26L30 27L32 27L32 26L31 26L31 24L32 24L32 21L31 21L31 20L30 20L30 19L28 19L28 18L27 18L27 19L28 19L28 20L27 20L27 21L26 21L26 20L25 20L25 17L29 17L29 18L30 18L30 17L29 17L29 16L27 16L27 15L28 15L28 14L26 14L26 12L24 12L24 11L23 11L23 9L22 9L22 8L21 8L21 9L20 9L20 8L19 8L19 6ZM6 8L6 9L7 9L7 8ZM34 8L34 9L35 9L35 10L36 10L36 11L37 11L37 10L36 10L36 9L37 9L37 8ZM17 9L17 10L16 10L16 11L17 11L17 12L18 12L18 11L19 11L19 10L20 10L20 9ZM21 9L21 10L22 10L22 9ZM24 9L24 10L25 10L25 11L26 11L26 10L25 10L25 9ZM17 10L17 11L18 11L18 10ZM11 11L11 12L12 12L12 11ZM20 11L20 12L19 12L19 13L20 13L20 15L19 15L19 16L22 16L22 15L21 15L21 14L23 14L23 15L24 15L24 16L23 16L23 18L22 18L22 17L21 17L21 19L22 19L22 22L23 22L23 23L24 23L24 21L25 21L25 24L24 24L24 25L23 25L23 26L22 26L22 28L20 28L20 29L21 29L21 30L23 30L23 31L24 31L24 30L23 30L23 29L25 29L25 28L26 28L26 26L24 26L24 25L27 25L27 24L28 24L28 25L30 25L30 24L28 24L28 23L30 23L30 22L31 22L31 21L30 21L30 20L28 20L28 21L27 21L27 22L26 22L26 21L25 21L25 20L24 20L24 19L23 19L23 18L24 18L24 16L26 16L26 14L25 14L25 13L22 13L22 11ZM4 12L4 13L5 13L5 12ZM1 13L1 14L2 14L2 13ZM34 13L34 14L35 14L35 13ZM11 14L11 15L12 15L12 14ZM16 14L16 16L17 16L17 14ZM24 14L24 15L25 15L25 14ZM7 16L7 17L6 17L6 18L7 18L7 17L8 17L8 16ZM13 17L13 18L11 18L11 20L10 20L10 21L11 21L11 20L12 20L12 19L13 19L13 21L14 21L14 20L15 20L15 19L16 19L16 20L17 20L17 19L16 19L16 18L14 18L14 17ZM0 20L0 22L1 22L1 20ZM6 20L6 21L7 21L7 22L6 22L6 23L7 23L7 22L8 22L8 21L7 21L7 20ZM28 21L28 22L27 22L27 23L26 23L26 24L27 24L27 23L28 23L28 22L30 22L30 21ZM11 23L11 24L10 24L10 26L11 26L11 24L12 24L12 23ZM13 23L13 25L14 25L14 23ZM3 24L3 25L4 25L4 24ZM19 24L19 25L20 25L20 24ZM6 25L6 26L7 26L7 25ZM20 26L20 27L21 27L21 26ZM2 27L2 28L3 28L3 27ZM15 27L15 28L16 28L16 27ZM24 27L24 28L25 28L25 27ZM22 28L22 29L23 29L23 28ZM29 29L29 32L32 32L32 29ZM30 30L30 31L31 31L31 30ZM9 33L9 35L11 35L11 34L10 34L10 33ZM29 34L29 35L30 35L30 34ZM0 0L0 7L7 7L7 0ZM1 1L1 6L6 6L6 1ZM2 2L2 5L5 5L5 2ZM30 0L30 7L37 7L37 0ZM31 1L31 6L36 6L36 1ZM32 2L32 5L35 5L35 2ZM0 30L0 37L7 37L7 30ZM1 31L1 36L6 36L6 31ZM2 32L2 35L5 35L5 32Z" fill="#000000"/></g></g></svg>
