<?xml version="1.0" encoding="UTF-8"?>
<svg xmlns="http://www.w3.org/2000/svg" version="1.1" width="200" height="200" viewBox="0 0 200 200"><rect x="0" y="0" width="200" height="200" fill="#ffffff"/><g transform="scale(5.405)"><g transform="translate(0,0)"><path fill-rule="evenodd" d="M8 0L8 3L9 3L9 4L11 4L11 5L8 5L8 9L10 9L10 10L14 10L14 8L13 8L13 9L12 9L12 8L11 8L11 5L13 5L13 6L12 6L12 7L13 7L13 6L14 6L14 7L15 7L15 6L14 6L14 5L15 5L15 4L17 4L17 5L18 5L18 3L15 3L15 2L17 2L17 0L13 0L13 1L12 1L12 0L11 0L11 2L10 2L10 0ZM18 0L18 1L19 1L19 3L20 3L20 4L19 4L19 5L20 5L20 7L21 7L21 10L22 10L22 11L21 11L21 13L22 13L22 15L23 15L23 14L24 14L24 15L25 15L25 14L26 14L26 16L24 16L24 18L23 18L23 17L21 17L21 14L20 14L20 15L19 15L19 14L18 14L18 13L20 13L20 11L19 11L19 10L20 10L20 9L19 9L19 8L17 8L17 6L16 6L16 9L19 9L19 10L18 10L18 11L17 11L17 14L16 14L16 11L14 11L14 12L13 12L13 13L12 13L12 11L10 11L10 12L11 12L11 13L10 13L10 14L9 14L9 15L8 15L8 14L6 14L6 13L7 13L7 12L6 12L6 13L4 13L4 12L5 12L5 11L3 11L3 10L1 10L1 11L0 11L0 12L1 12L1 13L2 13L2 12L1 12L1 11L3 11L3 13L4 13L4 14L2 14L2 15L4 15L4 16L2 16L2 17L4 17L4 19L3 19L3 18L2 18L2 20L3 20L3 21L4 21L4 22L5 22L5 21L7 21L7 22L6 22L6 23L7 23L7 24L5 24L5 23L4 23L4 24L2 24L2 27L3 27L3 28L2 28L2 29L4 29L4 27L3 27L3 25L5 25L5 28L6 28L6 29L8 29L8 30L10 30L10 31L9 31L9 32L8 32L8 35L9 35L9 36L11 36L11 35L10 35L10 34L12 34L12 35L13 35L13 36L15 36L15 37L17 37L17 36L18 36L18 35L16 35L16 34L19 34L19 37L20 37L20 35L21 35L21 36L22 36L22 37L24 37L24 35L25 35L25 34L22 34L22 32L21 32L21 33L20 33L20 31L23 31L23 30L24 30L24 31L26 31L26 30L28 30L28 32L27 32L27 33L26 33L26 32L24 32L24 33L26 33L26 36L25 36L25 37L26 37L26 36L27 36L27 37L28 37L28 36L29 36L29 37L37 37L37 34L36 34L36 36L34 36L34 34L33 34L33 33L37 33L37 32L36 32L36 31L37 31L37 30L36 30L36 29L37 29L37 28L36 28L36 27L37 27L37 26L36 26L36 25L37 25L37 22L36 22L36 21L37 21L37 18L36 18L36 17L37 17L37 14L36 14L36 13L37 13L37 12L34 12L34 11L33 11L33 9L32 9L32 8L28 8L28 7L29 7L29 4L28 4L28 2L29 2L29 1L27 1L27 3L25 3L25 4L24 4L24 5L22 5L22 7L21 7L21 3L22 3L22 2L24 2L24 1L25 1L25 0L20 0L20 1L19 1L19 0ZM11 2L11 4L12 4L12 3L13 3L13 2ZM20 2L20 3L21 3L21 2ZM13 4L13 5L14 5L14 4ZM26 4L26 5L28 5L28 4ZM24 5L24 6L23 6L23 7L22 7L22 10L23 10L23 11L24 11L24 12L22 12L22 13L24 13L24 14L25 14L25 13L24 13L24 12L26 12L26 14L31 14L31 15L32 15L32 16L33 16L33 17L29 17L29 16L30 16L30 15L29 15L29 16L28 16L28 17L25 17L25 18L24 18L24 19L23 19L23 18L22 18L22 19L21 19L21 18L20 18L20 17L18 17L18 18L16 18L16 19L17 19L17 21L16 21L16 20L15 20L15 19L14 19L14 18L15 18L15 17L16 17L16 16L12 16L12 15L11 15L11 14L12 14L12 13L11 13L11 14L10 14L10 15L11 15L11 16L12 16L12 17L13 17L13 19L11 19L11 20L12 20L12 22L13 22L13 23L15 23L15 24L16 24L16 25L17 25L17 26L19 26L19 27L21 27L21 28L18 28L18 27L17 27L17 28L16 28L16 29L15 29L15 30L16 30L16 29L17 29L17 31L14 31L14 29L12 29L12 28L13 28L13 27L14 27L14 28L15 28L15 25L14 25L14 24L13 24L13 25L12 25L12 23L11 23L11 24L10 24L10 22L9 22L9 21L8 21L8 20L9 20L9 19L10 19L10 18L9 18L9 17L10 17L10 16L7 16L7 15L6 15L6 14L5 14L5 16L7 16L7 17L6 17L6 18L5 18L5 19L4 19L4 21L5 21L5 19L6 19L6 20L7 20L7 21L8 21L8 22L7 22L7 23L9 23L9 24L8 24L8 25L6 25L6 26L7 26L7 27L6 27L6 28L7 28L7 27L8 27L8 28L9 28L9 29L11 29L11 31L10 31L10 32L11 32L11 33L13 33L13 34L14 34L14 35L15 35L15 34L16 34L16 33L17 33L17 31L18 31L18 32L19 32L19 30L20 30L20 29L22 29L22 27L23 27L23 29L25 29L25 30L26 30L26 29L28 29L28 27L29 27L29 28L35 28L35 29L34 29L34 31L33 31L33 32L35 32L35 31L36 31L36 30L35 30L35 29L36 29L36 28L35 28L35 27L36 27L36 26L35 26L35 25L34 25L34 26L33 26L33 23L34 23L34 24L36 24L36 22L35 22L35 21L34 21L34 20L36 20L36 18L35 18L35 17L36 17L36 14L35 14L35 13L34 13L34 12L33 12L33 13L27 13L27 11L24 11L24 10L27 10L27 9L26 9L26 8L27 8L27 7L28 7L28 6L27 6L27 7L26 7L26 6L25 6L25 5ZM9 6L9 7L10 7L10 6ZM18 6L18 7L19 7L19 6ZM24 6L24 7L25 7L25 8L24 8L24 9L25 9L25 8L26 8L26 7L25 7L25 6ZM2 8L2 9L5 9L5 10L6 10L6 11L9 11L9 10L6 10L6 9L7 9L7 8L6 8L6 9L5 9L5 8ZM34 8L34 9L37 9L37 8ZM28 9L28 10L29 10L29 11L28 11L28 12L29 12L29 11L30 11L30 12L31 12L31 11L32 11L32 10L31 10L31 11L30 11L30 9ZM35 10L35 11L37 11L37 10ZM18 11L18 12L19 12L19 11ZM13 13L13 14L14 14L14 15L16 15L16 14L14 14L14 13ZM33 13L33 14L34 14L34 15L33 15L33 16L34 16L34 17L33 17L33 18L34 18L34 19L32 19L32 18L31 18L31 19L29 19L29 20L28 20L28 18L29 18L29 17L28 17L28 18L26 18L26 19L27 19L27 20L22 20L22 22L19 22L19 21L21 21L21 19L20 19L20 18L18 18L18 20L19 20L19 21L17 21L17 22L15 22L15 20L14 20L14 19L13 19L13 21L14 21L14 22L15 22L15 23L16 23L16 24L18 24L18 25L19 25L19 24L18 24L18 23L20 23L20 26L21 26L21 27L22 27L22 25L24 25L24 26L26 26L26 28L25 28L25 27L24 27L24 28L25 28L25 29L26 29L26 28L27 28L27 26L30 26L30 27L31 27L31 23L33 23L33 22L34 22L34 23L35 23L35 22L34 22L34 21L33 21L33 20L34 20L34 19L35 19L35 18L34 18L34 17L35 17L35 16L34 16L34 15L35 15L35 14L34 14L34 13ZM0 14L0 16L1 16L1 14ZM18 15L18 16L19 16L19 15ZM0 17L0 18L1 18L1 17ZM7 17L7 18L6 18L6 19L7 19L7 20L8 20L8 17ZM19 19L19 20L20 20L20 19ZM0 20L0 21L1 21L1 20ZM27 20L27 21L25 21L25 24L24 24L24 25L27 25L27 24L28 24L28 25L30 25L30 24L28 24L28 23L30 23L30 22L31 22L31 21L32 21L32 22L33 22L33 21L32 21L32 20L31 20L31 21L30 21L30 20L29 20L29 21L28 21L28 20ZM29 21L29 22L30 22L30 21ZM1 22L1 23L0 23L0 24L1 24L1 23L2 23L2 22ZM22 22L22 23L21 23L21 25L22 25L22 23L24 23L24 22ZM27 22L27 23L26 23L26 24L27 24L27 23L28 23L28 22ZM0 25L0 29L1 29L1 25ZM8 25L8 26L11 26L11 27L9 27L9 28L12 28L12 26L11 26L11 25ZM32 26L32 27L33 27L33 26ZM34 26L34 27L35 27L35 26ZM29 29L29 32L32 32L32 29ZM30 30L30 31L31 31L31 30ZM12 31L12 32L14 32L14 31ZM15 32L15 33L16 33L16 32ZM19 33L19 34L20 34L20 33ZM27 33L27 34L28 34L28 35L27 35L27 36L28 36L28 35L29 35L29 36L30 36L30 35L32 35L32 36L33 36L33 34L29 34L29 33ZM21 34L21 35L22 35L22 36L23 36L23 35L22 35L22 34ZM0 0L0 7L7 7L7 0ZM1 1L1 6L6 6L6 1ZM2 2L2 5L5 5L5 2ZM30 0L30 7L37 7L37 0ZM31 1L31 6L36 6L36 1ZM32 2L32 5L35 5L35 2ZM0 30L0 37L7 37L7 30ZM1 31L1 36L6 36L6 31ZM2 32L2 35L5 35L5 32Z" fill="#000000"/></g></g></svg>
