<?xml version="1.0" encoding="UTF-8"?>
<svg xmlns="http://www.w3.org/2000/svg" version="1.1" width="200" height="200" viewBox="0 0 200 200"><rect x="0" y="0" width="200" height="200" fill="#ffffff"/><g transform="scale(5.405)"><g transform="translate(0,0)"><path fill-rule="evenodd" d="M9 0L9 1L8 1L8 2L9 2L9 1L11 1L11 0ZM16 0L16 1L15 1L15 2L14 2L14 1L13 1L13 2L11 2L11 4L10 4L10 3L9 3L9 5L8 5L8 8L4 8L4 9L3 9L3 11L2 11L2 10L1 10L1 9L0 9L0 12L3 12L3 11L4 11L4 9L5 9L5 13L4 13L4 14L2 14L2 13L1 13L1 14L0 14L0 15L5 15L5 14L6 14L6 15L9 15L9 16L5 16L5 17L8 17L8 18L9 18L9 19L8 19L8 20L6 20L6 21L8 21L8 20L9 20L9 21L10 21L10 20L12 20L12 21L11 21L11 22L10 22L10 23L11 23L11 24L9 24L9 23L8 23L8 22L5 22L5 21L3 21L3 22L2 22L2 23L1 23L1 21L0 21L0 23L1 23L1 24L2 24L2 25L0 25L0 26L2 26L2 27L3 27L3 26L2 26L2 25L3 25L3 24L4 24L4 27L5 27L5 25L7 25L7 26L6 26L6 27L7 27L7 28L5 28L5 29L7 29L7 28L9 28L9 29L8 29L8 33L9 33L9 36L11 36L11 35L10 35L10 33L11 33L11 32L12 32L12 31L13 31L13 32L14 32L14 34L13 34L13 33L12 33L12 34L13 34L13 36L12 36L12 37L15 37L15 35L14 35L14 34L15 34L15 33L17 33L17 34L18 34L18 35L19 35L19 37L20 37L20 36L21 36L21 35L23 35L23 34L22 34L22 33L23 33L23 32L24 32L24 33L25 33L25 34L26 34L26 37L28 37L28 35L29 35L29 37L30 37L30 35L31 35L31 36L32 36L32 33L35 33L35 31L36 31L36 33L37 33L37 31L36 31L36 29L35 29L35 27L36 27L36 25L37 25L37 23L36 23L36 21L37 21L37 20L36 20L36 17L37 17L37 15L36 15L36 17L35 17L35 15L33 15L33 17L31 17L31 16L32 16L32 14L33 14L33 13L37 13L37 11L36 11L36 12L35 12L35 11L34 11L34 10L32 10L32 11L28 11L28 10L27 10L27 9L26 9L26 7L27 7L27 6L26 6L26 7L25 7L25 4L26 4L26 3L27 3L27 5L28 5L28 3L27 3L27 2L26 2L26 3L25 3L25 1L28 1L28 0L23 0L23 1L22 1L22 0L21 0L21 1L19 1L19 0L18 0L18 1L17 1L17 0ZM16 1L16 2L15 2L15 3L16 3L16 2L17 2L17 1ZM18 1L18 2L19 2L19 1ZM21 1L21 2L22 2L22 1ZM23 1L23 2L24 2L24 1ZM13 2L13 3L14 3L14 2ZM17 3L17 5L15 5L15 4L13 4L13 5L14 5L14 6L13 6L13 7L14 7L14 6L15 6L15 8L17 8L17 9L15 9L15 10L14 10L14 13L15 13L15 14L16 14L16 16L15 16L15 15L13 15L13 18L12 18L12 17L11 17L11 14L13 14L13 13L12 13L12 12L13 12L13 11L12 11L12 9L13 9L13 8L12 8L12 4L11 4L11 7L10 7L10 5L9 5L9 8L8 8L8 9L10 9L10 8L11 8L11 10L7 10L7 9L6 9L6 10L7 10L7 11L6 11L6 12L7 12L7 13L6 13L6 14L7 14L7 13L8 13L8 14L9 14L9 15L10 15L10 17L9 17L9 18L11 18L11 19L12 19L12 20L13 20L13 22L12 22L12 24L11 24L11 25L10 25L10 28L12 28L12 27L13 27L13 28L14 28L14 30L13 30L13 29L11 29L11 30L10 30L10 31L9 31L9 33L10 33L10 32L11 32L11 31L12 31L12 30L13 30L13 31L14 31L14 32L16 32L16 31L14 31L14 30L15 30L15 29L17 29L17 28L18 28L18 30L19 30L19 31L18 31L18 32L19 32L19 33L18 33L18 34L19 34L19 35L20 35L20 30L21 30L21 32L22 32L22 31L23 31L23 29L25 29L25 31L24 31L24 32L25 32L25 33L26 33L26 34L28 34L28 32L27 32L27 33L26 33L26 31L28 31L28 30L27 30L27 29L26 29L26 26L27 26L27 28L31 28L31 27L32 27L32 28L33 28L33 27L34 27L34 26L35 26L35 25L36 25L36 23L35 23L35 21L34 21L34 18L35 18L35 17L34 17L34 18L32 18L32 19L33 19L33 20L31 20L31 19L29 19L29 17L30 17L30 18L31 18L31 17L30 17L30 16L31 16L31 13L33 13L33 12L31 12L31 13L30 13L30 12L29 12L29 13L28 13L28 12L27 12L27 10L26 10L26 9L25 9L25 7L24 7L24 6L23 6L23 5L24 5L24 4L23 4L23 3L22 3L22 4L21 4L21 3L19 3L19 4L18 4L18 3ZM17 5L17 6L16 6L16 7L17 7L17 8L19 8L19 10L17 10L17 11L16 11L16 13L17 13L17 14L18 14L18 17L19 17L19 18L17 18L17 17L16 17L16 18L15 18L15 16L14 16L14 18L13 18L13 20L14 20L14 22L16 22L16 24L17 24L17 25L18 25L18 26L17 26L17 27L18 27L18 28L19 28L19 30L20 30L20 29L21 29L21 30L22 30L22 29L23 29L23 28L24 28L24 27L25 27L25 25L27 25L27 24L28 24L28 23L30 23L30 21L31 21L31 23L32 23L32 24L30 24L30 25L28 25L28 27L29 27L29 26L34 26L34 25L35 25L35 23L34 23L34 21L31 21L31 20L30 20L30 21L29 21L29 19L28 19L28 17L29 17L29 16L30 16L30 15L28 15L28 13L27 13L27 12L26 12L26 17L25 17L25 14L24 14L24 13L23 13L23 12L21 12L21 13L20 13L20 15L19 15L19 14L18 14L18 13L19 13L19 12L20 12L20 11L21 11L21 10L22 10L22 11L23 11L23 10L24 10L24 12L25 12L25 9L24 9L24 7L23 7L23 6L22 6L22 5L19 5L19 6L18 6L18 5ZM17 6L17 7L18 7L18 6ZM19 6L19 8L20 8L20 6ZM21 6L21 9L22 9L22 8L23 8L23 7L22 7L22 6ZM28 6L28 9L29 9L29 6ZM30 8L30 10L31 10L31 9L32 9L32 8ZM35 8L35 9L36 9L36 8ZM19 10L19 11L18 11L18 12L17 12L17 13L18 13L18 12L19 12L19 11L20 11L20 10ZM7 11L7 12L8 12L8 11ZM11 11L11 12L12 12L12 11ZM21 13L21 17L20 17L20 18L19 18L19 19L20 19L20 20L17 20L17 18L16 18L16 19L14 19L14 20L15 20L15 21L16 21L16 22L17 22L17 24L18 24L18 23L19 23L19 21L20 21L20 24L19 24L19 25L20 25L20 26L19 26L19 28L20 28L20 27L21 27L21 26L24 26L24 25L25 25L25 24L26 24L26 23L27 23L27 21L28 21L28 22L29 22L29 21L28 21L28 19L27 19L27 17L28 17L28 16L27 16L27 17L26 17L26 18L24 18L24 14L23 14L23 16L22 16L22 13ZM29 13L29 14L30 14L30 13ZM1 16L1 17L0 17L0 19L1 19L1 20L5 20L5 19L2 19L2 17L3 17L3 18L4 18L4 16ZM21 17L21 18L20 18L20 19L21 19L21 18L23 18L23 19L22 19L22 20L20 20L20 21L22 21L22 22L21 22L21 23L22 23L22 24L24 24L24 23L23 23L23 22L24 22L24 21L23 21L23 20L24 20L24 18L23 18L23 17ZM6 18L6 19L7 19L7 18ZM9 19L9 20L10 20L10 19ZM26 19L26 21L25 21L25 22L26 22L26 21L27 21L27 19ZM16 20L16 21L17 21L17 20ZM4 22L4 24L8 24L8 23L5 23L5 22ZM32 22L32 23L33 23L33 22ZM14 24L14 25L15 25L15 26L16 26L16 25L15 25L15 24ZM33 24L33 25L34 25L34 24ZM8 25L8 26L7 26L7 27L8 27L8 26L9 26L9 25ZM11 26L11 27L12 27L12 26ZM0 28L0 29L4 29L4 28ZM29 29L29 32L32 32L32 29ZM33 29L33 31L35 31L35 29ZM30 30L30 31L31 31L31 30ZM29 33L29 35L30 35L30 33ZM35 34L35 35L33 35L33 36L34 36L34 37L37 37L37 36L36 36L36 34ZM16 35L16 36L17 36L17 37L18 37L18 36L17 36L17 35ZM24 35L24 36L22 36L22 37L24 37L24 36L25 36L25 35ZM0 0L0 7L7 7L7 0ZM1 1L1 6L6 6L6 1ZM2 2L2 5L5 5L5 2ZM30 0L30 7L37 7L37 0ZM31 1L31 6L36 6L36 1ZM32 2L32 5L35 5L35 2ZM0 30L0 37L7 37L7 30ZM1 31L1 36L6 36L6 31ZM2 32L2 35L5 35L5 32Z" fill="#000000"/></g></g></svg>
