<?xml version="1.0" encoding="UTF-8"?>
<svg xmlns="http://www.w3.org/2000/svg" version="1.1" width="200" height="200" viewBox="0 0 200 200"><rect x="0" y="0" width="200" height="200" fill="#ffffff"/><g transform="scale(5.405)"><g transform="translate(0,0)"><path fill-rule="evenodd" d="M11 0L11 1L10 1L10 3L11 3L11 4L12 4L12 3L11 3L11 1L13 1L13 3L14 3L14 1L13 1L13 0ZM17 0L17 4L16 4L16 3L15 3L15 5L14 5L14 4L13 4L13 5L9 5L9 4L8 4L8 5L9 5L9 6L8 6L8 8L6 8L6 9L7 9L7 10L6 10L6 11L5 11L5 9L4 9L4 8L2 8L2 9L1 9L1 11L0 11L0 12L1 12L1 13L2 13L2 15L3 15L3 13L2 13L2 12L1 12L1 11L3 11L3 12L6 12L6 13L7 13L7 12L8 12L8 14L9 14L9 15L10 15L10 16L9 16L9 17L8 17L8 18L9 18L9 19L8 19L8 20L6 20L6 21L5 21L5 23L4 23L4 22L3 22L3 21L4 21L4 20L5 20L5 19L3 19L3 18L5 18L5 16L4 16L4 17L2 17L2 16L1 16L1 14L0 14L0 18L1 18L1 19L2 19L2 20L1 20L1 21L0 21L0 25L1 25L1 24L3 24L3 25L2 25L2 26L1 26L1 27L0 27L0 28L1 28L1 27L2 27L2 28L3 28L3 29L5 29L5 28L6 28L6 29L7 29L7 28L6 28L6 27L8 27L8 24L10 24L10 25L9 25L9 26L10 26L10 27L9 27L9 29L8 29L8 31L9 31L9 33L8 33L8 35L9 35L9 37L11 37L11 35L12 35L12 37L14 37L14 36L13 36L13 35L14 35L14 34L15 34L15 32L16 32L16 31L17 31L17 33L16 33L16 35L15 35L15 36L16 36L16 37L17 37L17 36L16 36L16 35L17 35L17 34L18 34L18 33L19 33L19 35L18 35L18 36L19 36L19 37L20 37L20 34L21 34L21 35L22 35L22 37L24 37L24 36L25 36L25 37L26 37L26 36L27 36L27 37L28 37L28 35L27 35L27 34L25 34L25 35L22 35L22 34L21 34L21 33L19 33L19 32L21 32L21 30L25 30L25 29L26 29L26 30L28 30L28 33L30 33L30 35L31 35L31 34L32 34L32 35L33 35L33 34L34 34L34 33L33 33L33 32L34 32L34 31L35 31L35 30L36 30L36 31L37 31L37 29L36 29L36 28L34 28L34 27L32 27L32 28L30 28L30 26L29 26L29 25L28 25L28 23L29 23L29 24L30 24L30 25L31 25L31 24L30 24L30 22L29 22L29 21L30 21L30 20L28 20L28 19L31 19L31 22L32 22L32 21L33 21L33 22L34 22L34 24L33 24L33 25L32 25L32 26L33 26L33 25L35 25L35 27L36 27L36 26L37 26L37 24L35 24L35 22L34 22L34 20L32 20L32 14L33 14L33 19L35 19L35 21L36 21L36 19L37 19L37 17L35 17L35 16L37 16L37 15L35 15L35 16L34 16L34 14L33 14L33 13L36 13L36 14L37 14L37 11L36 11L36 12L35 12L35 11L34 11L34 9L33 9L33 8L32 8L32 9L31 9L31 8L29 8L29 9L30 9L30 10L28 10L28 9L27 9L27 8L28 8L28 7L29 7L29 4L28 4L28 3L27 3L27 1L26 1L26 0L21 0L21 1L23 1L23 2L19 2L19 1L18 1L18 0ZM25 1L25 2L24 2L24 3L22 3L22 5L21 5L21 4L20 4L20 5L21 5L21 8L22 8L22 9L20 9L20 10L18 10L18 9L19 9L19 8L20 8L20 6L19 6L19 8L16 8L16 6L17 6L17 7L18 7L18 6L17 6L17 5L19 5L19 3L18 3L18 4L17 4L17 5L15 5L15 7L14 7L14 5L13 5L13 7L14 7L14 9L13 9L13 8L10 8L10 9L9 9L9 10L10 10L10 12L9 12L9 11L8 11L8 10L7 10L7 11L6 11L6 12L7 12L7 11L8 11L8 12L9 12L9 13L10 13L10 14L11 14L11 18L10 18L10 17L9 17L9 18L10 18L10 19L11 19L11 21L12 21L12 22L13 22L13 23L12 23L12 24L11 24L11 25L12 25L12 26L13 26L13 28L15 28L15 30L17 30L17 28L18 28L18 30L19 30L19 31L18 31L18 32L19 32L19 31L20 31L20 30L21 30L21 29L23 29L23 28L24 28L24 29L25 29L25 28L26 28L26 27L25 27L25 28L24 28L24 26L25 26L25 25L26 25L26 26L28 26L28 25L27 25L27 24L24 24L24 23L21 23L21 24L24 24L24 26L23 26L23 25L22 25L22 26L20 26L20 24L19 24L19 22L20 22L20 21L21 21L21 22L22 22L22 21L21 21L21 19L23 19L23 20L25 20L25 23L26 23L26 21L27 21L27 23L28 23L28 20L26 20L26 19L27 19L27 18L26 18L26 17L24 17L24 19L23 19L23 18L22 18L22 17L19 17L19 18L21 18L21 19L20 19L20 20L19 20L19 19L18 19L18 20L16 20L16 17L15 17L15 19L13 19L13 20L12 20L12 19L11 19L11 18L14 18L14 17L12 17L12 16L13 16L13 15L14 15L14 16L16 16L16 15L14 15L14 14L17 14L17 16L18 16L18 13L19 13L19 16L22 16L22 15L23 15L23 14L24 14L24 15L25 15L25 16L26 16L26 15L25 15L25 13L23 13L23 12L24 12L24 11L23 11L23 10L25 10L25 11L26 11L26 13L27 13L27 12L28 12L28 10L27 10L27 9L25 9L25 7L26 7L26 5L27 5L27 7L28 7L28 5L27 5L27 3L26 3L26 5L25 5L25 4L24 4L24 3L25 3L25 2L26 2L26 1ZM28 1L28 2L29 2L29 1ZM22 5L22 8L23 8L23 6L24 6L24 7L25 7L25 6L24 6L24 5ZM9 6L9 7L10 7L10 6ZM11 6L11 7L12 7L12 6ZM11 9L11 13L12 13L12 11L14 11L14 12L13 12L13 14L12 14L12 15L13 15L13 14L14 14L14 13L15 13L15 11L18 11L18 12L19 12L19 13L21 13L21 14L20 14L20 15L22 15L22 13L21 13L21 12L20 12L20 11L18 11L18 10L12 10L12 9ZM22 9L22 10L21 10L21 11L22 11L22 12L23 12L23 11L22 11L22 10L23 10L23 9ZM3 10L3 11L4 11L4 10ZM30 10L30 11L29 11L29 13L28 13L28 14L27 14L27 17L28 17L28 15L29 15L29 16L30 16L30 17L31 17L31 16L30 16L30 15L31 15L31 14L32 14L32 13L31 13L31 14L30 14L30 11L31 11L31 12L32 12L32 11L33 11L33 10ZM16 12L16 13L17 13L17 12ZM4 13L4 15L7 15L7 16L6 16L6 17L7 17L7 16L8 16L8 15L7 15L7 14L5 14L5 13ZM29 14L29 15L30 15L30 14ZM17 17L17 18L18 18L18 17ZM6 18L6 19L7 19L7 18ZM35 18L35 19L36 19L36 18ZM2 20L2 21L1 21L1 23L3 23L3 22L2 22L2 21L3 21L3 20ZM9 20L9 22L7 22L7 21L6 21L6 22L7 22L7 23L5 23L5 24L4 24L4 25L3 25L3 26L2 26L2 27L3 27L3 26L4 26L4 27L5 27L5 26L4 26L4 25L5 25L5 24L7 24L7 23L11 23L11 22L10 22L10 20ZM14 20L14 21L13 21L13 22L16 22L16 21L15 21L15 20ZM18 21L18 22L17 22L17 24L16 24L16 25L15 25L15 24L14 24L14 26L18 26L18 27L20 27L20 29L19 29L19 30L20 30L20 29L21 29L21 28L23 28L23 27L20 27L20 26L19 26L19 24L18 24L18 22L19 22L19 21ZM23 21L23 22L24 22L24 21ZM12 24L12 25L13 25L13 24ZM17 24L17 25L18 25L18 24ZM6 25L6 26L7 26L7 25ZM15 27L15 28L16 28L16 27ZM27 27L27 28L28 28L28 27ZM9 29L9 31L10 31L10 29ZM11 29L11 32L10 32L10 33L9 33L9 34L11 34L11 32L12 32L12 33L14 33L14 32L15 32L15 31L14 31L14 30L13 30L13 29ZM29 29L29 32L32 32L32 29ZM12 30L12 31L13 31L13 32L14 32L14 31L13 31L13 30ZM30 30L30 31L31 31L31 30ZM33 30L33 31L34 31L34 30ZM23 31L23 32L22 32L22 33L23 33L23 32L25 32L25 31ZM26 32L26 33L27 33L27 32ZM12 34L12 35L13 35L13 34ZM35 34L35 35L34 35L34 36L31 36L31 37L37 37L37 36L35 36L35 35L36 35L36 34ZM29 36L29 37L30 37L30 36ZM0 0L0 7L7 7L7 0ZM1 1L1 6L6 6L6 1ZM2 2L2 5L5 5L5 2ZM30 0L30 7L37 7L37 0ZM31 1L31 6L36 6L36 1ZM32 2L32 5L35 5L35 2ZM0 30L0 37L7 37L7 30ZM1 31L1 36L6 36L6 31ZM2 32L2 35L5 35L5 32Z" fill="#000000"/></g></g></svg>
