<?xml version="1.0" encoding="UTF-8"?>
<svg xmlns="http://www.w3.org/2000/svg" version="1.1" width="200" height="200" viewBox="0 0 200 200"><rect x="0" y="0" width="200" height="200" fill="#ffffff"/><g transform="scale(5.405)"><g transform="translate(0,0)"><path fill-rule="evenodd" d="M11 0L11 2L10 2L10 1L8 1L8 2L9 2L9 4L13 4L13 5L16 5L16 7L15 7L15 6L14 6L14 7L13 7L13 6L12 6L12 7L11 7L11 5L10 5L10 9L8 9L8 8L9 8L9 5L8 5L8 8L4 8L4 10L3 10L3 9L2 9L2 12L4 12L4 11L7 11L7 12L6 12L6 13L7 13L7 12L8 12L8 10L12 10L12 12L11 12L11 11L10 11L10 12L9 12L9 14L10 14L10 13L11 13L11 16L10 16L10 17L8 17L8 16L9 16L9 15L8 15L8 14L6 14L6 15L7 15L7 16L6 16L6 17L7 17L7 18L5 18L5 17L4 17L4 16L5 16L5 15L4 15L4 14L5 14L5 13L0 13L0 14L1 14L1 15L4 15L4 16L2 16L2 18L3 18L3 19L4 19L4 22L2 22L2 19L1 19L1 17L0 17L0 21L1 21L1 22L2 22L2 23L0 23L0 26L1 26L1 25L2 25L2 26L3 26L3 27L2 27L2 28L0 28L0 29L3 29L3 27L4 27L4 28L6 28L6 29L7 29L7 28L9 28L9 29L8 29L8 33L9 33L9 32L10 32L10 35L9 35L9 37L10 37L10 35L12 35L12 34L11 34L11 33L12 33L12 32L11 32L11 31L13 31L13 30L11 30L11 29L12 29L12 27L14 27L14 29L16 29L16 31L17 31L17 30L18 30L18 33L19 33L19 29L20 29L20 33L21 33L21 36L22 36L22 37L24 37L24 36L25 36L25 35L27 35L27 36L26 36L26 37L28 37L28 35L29 35L29 36L30 36L30 35L31 35L31 36L32 36L32 35L31 35L31 33L37 33L37 31L35 31L35 30L34 30L34 31L33 31L33 29L37 29L37 27L36 27L36 28L35 28L35 24L36 24L36 25L37 25L37 23L36 23L36 21L37 21L37 20L36 20L36 17L37 17L37 15L36 15L36 13L37 13L37 11L34 11L34 9L33 9L33 10L32 10L32 11L31 11L31 12L30 12L30 13L29 13L29 11L30 11L30 10L31 10L31 9L32 9L32 8L30 8L30 10L29 10L29 11L28 11L28 10L27 10L27 9L26 9L26 7L27 7L27 8L28 8L28 9L29 9L29 8L28 8L28 7L29 7L29 1L28 1L28 0L22 0L22 2L24 2L24 1L25 1L25 2L27 2L27 1L28 1L28 3L22 3L22 4L21 4L21 2L19 2L19 1L17 1L17 0L15 0L15 1L14 1L14 0ZM20 0L20 1L21 1L21 0ZM12 1L12 3L14 3L14 4L16 4L16 3L15 3L15 2L14 2L14 1ZM16 1L16 2L17 2L17 1ZM18 2L18 3L17 3L17 4L18 4L18 3L19 3L19 2ZM20 4L20 6L19 6L19 5L17 5L17 8L16 8L16 9L17 9L17 8L18 8L18 10L19 10L19 11L18 11L18 12L19 12L19 14L17 14L17 15L16 15L16 16L17 16L17 17L18 17L18 16L19 16L19 18L20 18L20 19L17 19L17 18L16 18L16 17L15 17L15 20L14 20L14 17L13 17L13 20L12 20L12 19L11 19L11 18L12 18L12 16L11 16L11 17L10 17L10 20L9 20L9 18L7 18L7 19L5 19L5 18L4 18L4 19L5 19L5 20L7 20L7 19L8 19L8 20L9 20L9 22L7 22L7 21L5 21L5 22L7 22L7 23L6 23L6 24L7 24L7 25L4 25L4 24L5 24L5 23L4 23L4 24L3 24L3 26L5 26L5 27L6 27L6 28L7 28L7 27L9 27L9 28L10 28L10 29L11 29L11 28L10 28L10 27L9 27L9 26L10 26L10 25L11 25L11 26L14 26L14 27L15 27L15 26L14 26L14 25L15 25L15 23L16 23L16 21L15 21L15 20L16 20L16 19L17 19L17 22L18 22L18 20L20 20L20 19L21 19L21 22L22 22L22 23L25 23L25 24L24 24L24 25L23 25L23 24L22 24L22 25L21 25L21 24L20 24L20 21L19 21L19 23L18 23L18 24L20 24L20 25L21 25L21 27L20 27L20 28L21 28L21 30L22 30L22 31L21 31L21 32L22 32L22 33L23 33L23 34L22 34L22 36L24 36L24 35L25 35L25 33L26 33L26 34L27 34L27 35L28 35L28 29L27 29L27 28L29 28L29 27L28 27L28 25L30 25L30 24L32 24L32 23L33 23L33 22L34 22L34 23L35 23L35 21L34 21L34 19L35 19L35 17L36 17L36 16L35 16L35 17L34 17L34 15L35 15L35 13L36 13L36 12L35 12L35 13L33 13L33 12L32 12L32 13L30 13L30 14L29 14L29 13L28 13L28 12L27 12L27 10L26 10L26 11L25 11L25 10L24 10L24 12L25 12L25 14L24 14L24 13L23 13L23 11L22 11L22 10L23 10L23 8L24 8L24 6L25 6L25 7L26 7L26 6L27 6L27 7L28 7L28 5L26 5L26 4L25 4L25 5L24 5L24 4L22 4L22 5L24 5L24 6L23 6L23 7L22 7L22 6L21 6L21 4ZM18 6L18 7L19 7L19 9L21 9L21 8L22 8L22 7L21 7L21 6L20 6L20 7L19 7L19 6ZM14 7L14 10L15 10L15 11L14 11L14 14L13 14L13 13L12 13L12 15L14 15L14 16L15 16L15 15L14 15L14 14L15 14L15 12L17 12L17 10L15 10L15 7ZM20 7L20 8L21 8L21 7ZM12 8L12 10L13 10L13 8ZM35 8L35 9L36 9L36 8ZM0 9L0 10L1 10L1 9ZM5 9L5 10L8 10L8 9ZM20 10L20 11L19 11L19 12L21 12L21 13L20 13L20 14L21 14L21 15L20 15L20 17L21 17L21 16L22 16L22 14L23 14L23 17L24 17L24 16L25 16L25 15L24 15L24 14L23 14L23 13L22 13L22 11L21 11L21 10ZM0 11L0 12L1 12L1 11ZM26 12L26 16L27 16L27 15L28 15L28 16L30 16L30 17L25 17L25 18L24 18L24 19L27 19L27 20L29 20L29 21L25 21L25 20L24 20L24 21L23 21L23 18L21 18L21 19L22 19L22 21L23 21L23 22L24 22L24 21L25 21L25 22L27 22L27 23L26 23L26 24L25 24L25 25L24 25L24 26L23 26L23 25L22 25L22 26L23 26L23 27L22 27L22 30L23 30L23 31L22 31L22 32L23 32L23 33L25 33L25 32L24 32L24 31L25 31L25 30L27 30L27 29L25 29L25 28L24 28L24 27L25 27L25 25L28 25L28 24L29 24L29 23L30 23L30 22L29 22L29 21L32 21L32 22L31 22L31 23L32 23L32 22L33 22L33 21L32 21L32 20L33 20L33 19L32 19L32 18L34 18L34 17L31 17L31 16L30 16L30 15L28 15L28 13L27 13L27 12ZM32 13L32 14L33 14L33 13ZM17 15L17 16L18 16L18 15ZM32 15L32 16L33 16L33 15ZM30 17L30 19L29 19L29 18L28 18L28 19L29 19L29 20L30 20L30 19L31 19L31 17ZM11 20L11 22L10 22L10 23L9 23L9 24L8 24L8 23L7 23L7 24L8 24L8 25L7 25L7 26L6 26L6 27L7 27L7 26L8 26L8 25L10 25L10 24L14 24L14 23L15 23L15 22L14 22L14 20L13 20L13 22L12 22L12 20ZM11 22L11 23L12 23L12 22ZM13 22L13 23L14 23L14 22ZM16 24L16 28L18 28L18 29L19 29L19 28L18 28L18 26L19 26L19 25L17 25L17 24ZM33 24L33 27L31 27L31 26L30 26L30 28L33 28L33 27L34 27L34 24ZM26 26L26 28L27 28L27 26ZM23 28L23 29L24 29L24 30L25 30L25 29L24 29L24 28ZM29 29L29 32L32 32L32 29ZM9 30L9 31L10 31L10 30ZM30 30L30 31L31 31L31 30ZM26 31L26 33L27 33L27 31ZM13 32L13 33L14 33L14 32ZM15 32L15 33L17 33L17 32ZM29 33L29 35L30 35L30 33ZM13 34L13 35L14 35L14 36L15 36L15 35L16 35L16 36L17 36L17 35L18 35L18 37L20 37L20 35L18 35L18 34L17 34L17 35L16 35L16 34ZM35 34L35 35L33 35L33 36L34 36L34 37L37 37L37 36L36 36L36 34ZM0 0L0 7L7 7L7 0ZM1 1L1 6L6 6L6 1ZM2 2L2 5L5 5L5 2ZM30 0L30 7L37 7L37 0ZM31 1L31 6L36 6L36 1ZM32 2L32 5L35 5L35 2ZM0 30L0 37L7 37L7 30ZM1 31L1 36L6 36L6 31ZM2 32L2 35L5 35L5 32Z" fill="#000000"/></g></g></svg>
