<?xml version="1.0" encoding="UTF-8"?>
<svg xmlns="http://www.w3.org/2000/svg" version="1.1" width="200" height="200" viewBox="0 0 200 200"><rect x="0" y="0" width="200" height="200" fill="#ffffff"/><g transform="scale(5.405)"><g transform="translate(0,0)"><path fill-rule="evenodd" d="M8 0L8 3L9 3L9 4L10 4L10 8L9 8L9 5L8 5L8 9L7 9L7 8L6 8L6 9L5 9L5 8L2 8L2 9L0 9L0 10L5 10L5 11L4 11L4 12L5 12L5 14L6 14L6 15L7 15L7 14L9 14L9 13L7 13L7 12L6 12L6 11L8 11L8 12L9 12L9 9L10 9L10 13L11 13L11 12L13 12L13 14L15 14L15 13L16 13L16 15L14 15L14 16L13 16L13 15L12 15L12 14L11 14L11 15L12 15L12 17L11 17L11 16L10 16L10 15L8 15L8 16L9 16L9 18L10 18L10 22L9 22L9 20L8 20L8 19L7 19L7 18L5 18L5 17L7 17L7 16L4 16L4 13L3 13L3 11L2 11L2 12L1 12L1 11L0 11L0 12L1 12L1 14L0 14L0 15L2 15L2 13L3 13L3 16L1 16L1 17L0 17L0 19L1 19L1 20L2 20L2 19L3 19L3 24L2 24L2 23L0 23L0 29L1 29L1 26L2 26L2 25L4 25L4 26L6 26L6 27L4 27L4 28L3 28L3 27L2 27L2 28L3 28L3 29L4 29L4 28L6 28L6 29L7 29L7 28L8 28L8 30L9 30L9 32L8 32L8 35L10 35L10 37L12 37L12 36L11 36L11 34L12 34L12 33L13 33L13 37L14 37L14 36L15 36L15 37L16 37L16 36L19 36L19 37L20 37L20 36L19 36L19 35L21 35L21 36L23 36L23 37L24 37L24 35L26 35L26 36L25 36L25 37L26 37L26 36L29 36L29 35L30 35L30 36L31 36L31 37L37 37L37 34L36 34L36 36L34 36L34 35L35 35L35 34L34 34L34 33L35 33L35 32L37 32L37 30L34 30L34 31L33 31L33 29L35 29L35 28L31 28L31 27L33 27L33 26L34 26L34 25L35 25L35 24L36 24L36 25L37 25L37 22L35 22L35 24L34 24L34 22L32 22L32 23L33 23L33 26L31 26L31 22L30 22L30 21L37 21L37 18L36 18L36 17L37 17L37 16L34 16L34 14L33 14L33 16L32 16L32 15L31 15L31 14L32 14L32 13L35 13L35 12L33 12L33 9L32 9L32 8L29 8L29 6L28 6L28 5L27 5L27 4L26 4L26 3L28 3L28 4L29 4L29 3L28 3L28 1L27 1L27 2L26 2L26 3L25 3L25 6L24 6L24 7L23 7L23 5L24 5L24 4L23 4L23 3L24 3L24 1L25 1L25 0L24 0L24 1L22 1L22 4L23 4L23 5L22 5L22 7L21 7L21 5L20 5L20 2L21 2L21 0L15 0L15 1L14 1L14 0L13 0L13 1L12 1L12 0L11 0L11 3L13 3L13 4L12 4L12 5L11 5L11 4L10 4L10 2L9 2L9 1L10 1L10 0ZM16 1L16 2L13 2L13 3L14 3L14 4L13 4L13 5L12 5L12 6L11 6L11 8L10 8L10 9L11 9L11 11L13 11L13 12L14 12L14 13L15 13L15 12L16 12L16 13L18 13L18 14L17 14L17 15L18 15L18 16L15 16L15 18L18 18L18 20L17 20L17 19L16 19L16 21L19 21L19 22L18 22L18 23L17 23L17 22L16 22L16 23L17 23L17 24L15 24L15 23L12 23L12 22L13 22L13 21L14 21L14 22L15 22L15 20L14 20L14 19L13 19L13 17L12 17L12 18L11 18L11 21L12 21L12 22L10 22L10 24L9 24L9 23L6 23L6 24L8 24L8 26L10 26L10 25L11 25L11 23L12 23L12 24L15 24L15 25L14 25L14 28L15 28L15 30L14 30L14 29L13 29L13 28L12 28L12 26L13 26L13 25L12 25L12 26L11 26L11 27L9 27L9 29L10 29L10 31L11 31L11 32L10 32L10 33L9 33L9 34L11 34L11 33L12 33L12 32L13 32L13 33L14 33L14 34L15 34L15 35L17 35L17 34L16 34L16 32L17 32L17 31L19 31L19 30L20 30L20 31L21 31L21 30L22 30L22 32L20 32L20 33L18 33L18 34L20 34L20 33L22 33L22 34L21 34L21 35L23 35L23 34L26 34L26 35L29 35L29 34L30 34L30 35L31 35L31 34L32 34L32 36L33 36L33 35L34 35L34 34L32 34L32 33L31 33L31 34L30 34L30 33L29 33L29 34L28 34L28 33L27 33L27 32L26 32L26 31L28 31L28 27L29 27L29 26L27 26L27 28L26 28L26 26L24 26L24 25L30 25L30 24L29 24L29 23L30 23L30 22L29 22L29 21L30 21L30 20L31 20L31 19L30 19L30 18L32 18L32 19L33 19L33 20L36 20L36 18L35 18L35 17L34 17L34 16L33 16L33 17L30 17L30 15L28 15L28 16L26 16L26 14L28 14L28 13L29 13L29 14L31 14L31 13L32 13L32 12L31 12L31 13L29 13L29 12L30 12L30 11L28 11L28 13L27 13L27 11L26 11L26 10L27 10L27 9L26 9L26 8L27 8L27 7L28 7L28 6L27 6L27 7L26 7L26 6L25 6L25 7L24 7L24 9L23 9L23 8L21 8L21 9L20 9L20 6L19 6L19 7L18 7L18 6L17 6L17 8L15 8L15 7L16 7L16 6L15 6L15 7L14 7L14 4L15 4L15 5L16 5L16 4L19 4L19 1L18 1L18 3L17 3L17 1ZM15 3L15 4L16 4L16 3ZM12 6L12 7L13 7L13 6ZM25 7L25 8L26 8L26 7ZM11 8L11 9L12 9L12 10L15 10L15 8ZM17 8L17 10L18 10L18 12L19 12L19 11L20 11L20 12L22 12L22 13L19 13L19 14L21 14L21 15L23 15L23 12L25 12L25 13L24 13L24 15L25 15L25 14L26 14L26 12L25 12L25 10L24 10L24 11L23 11L23 9L22 9L22 11L21 11L21 10L19 10L19 9L18 9L18 8ZM34 8L34 9L37 9L37 8ZM6 9L6 10L7 10L7 9ZM28 9L28 10L30 10L30 9ZM31 10L31 11L32 11L32 10ZM35 10L35 11L37 11L37 10ZM14 11L14 12L15 12L15 11ZM36 12L36 13L37 13L37 12ZM6 13L6 14L7 14L7 13ZM35 14L35 15L37 15L37 14ZM19 15L19 16L20 16L20 18L21 18L21 19L20 19L20 20L19 20L19 21L20 21L20 22L19 22L19 24L18 24L18 25L19 25L19 24L20 24L20 26L21 26L21 29L20 29L20 27L19 27L19 29L18 29L18 28L17 28L17 29L18 29L18 30L19 30L19 29L20 29L20 30L21 30L21 29L23 29L23 30L27 30L27 29L26 29L26 28L25 28L25 27L24 27L24 28L25 28L25 29L23 29L23 26L22 26L22 23L23 23L23 24L25 24L25 21L29 21L29 20L30 20L30 19L28 19L28 18L27 18L27 17L26 17L26 16L22 16L22 18L21 18L21 16L20 16L20 15ZM3 16L3 19L4 19L4 22L5 22L5 20L7 20L7 21L6 21L6 22L8 22L8 20L7 20L7 19L5 19L5 18L4 18L4 16ZM28 16L28 17L29 17L29 18L30 18L30 17L29 17L29 16ZM1 17L1 19L2 19L2 17ZM18 17L18 18L19 18L19 17ZM23 17L23 18L22 18L22 20L24 20L24 21L22 21L22 22L20 22L20 24L21 24L21 23L22 23L22 22L23 22L23 23L24 23L24 21L25 21L25 20L28 20L28 19L27 19L27 18L25 18L25 17ZM33 17L33 18L34 18L34 19L35 19L35 18L34 18L34 17ZM20 20L20 21L21 21L21 20ZM0 21L0 22L1 22L1 21ZM27 22L27 23L26 23L26 24L28 24L28 22ZM6 25L6 26L7 26L7 25ZM15 25L15 27L16 27L16 26L17 26L17 25ZM35 26L35 27L36 27L36 29L37 29L37 26ZM6 27L6 28L7 28L7 27ZM11 29L11 30L13 30L13 29ZM29 29L29 32L32 32L32 29ZM15 30L15 31L14 31L14 33L15 33L15 32L16 32L16 30ZM30 30L30 31L31 31L31 30ZM34 31L34 32L33 32L33 33L34 33L34 32L35 32L35 31ZM22 32L22 33L23 33L23 32ZM24 32L24 33L26 33L26 34L27 34L27 33L26 33L26 32ZM0 0L0 7L7 7L7 0ZM1 1L1 6L6 6L6 1ZM2 2L2 5L5 5L5 2ZM30 0L30 7L37 7L37 0ZM31 1L31 6L36 6L36 1ZM32 2L32 5L35 5L35 2ZM0 30L0 37L7 37L7 30ZM1 31L1 36L6 36L6 31ZM2 32L2 35L5 35L5 32Z" fill="#000000"/></g></g></svg>
