<?xml version="1.0" encoding="UTF-8"?>
<svg xmlns="http://www.w3.org/2000/svg" version="1.1" width="200" height="200" viewBox="0 0 200 200"><rect x="0" y="0" width="200" height="200" fill="#ffffff"/><g transform="scale(5.405)"><g transform="translate(0,0)"><path fill-rule="evenodd" d="M11 0L11 1L10 1L10 2L11 2L11 3L13 3L13 2L14 2L14 3L15 3L15 1L16 1L16 2L17 2L17 1L18 1L18 3L19 3L19 2L20 2L20 3L22 3L22 2L21 2L21 0L19 0L19 1L18 1L18 0L14 0L14 1L13 1L13 0ZM22 0L22 1L23 1L23 2L25 2L25 3L24 3L24 4L23 4L23 5L21 5L21 6L20 6L20 8L19 8L19 9L18 9L18 8L17 8L17 9L18 9L18 10L17 10L17 11L16 11L16 9L14 9L14 10L11 10L11 11L12 11L12 12L13 12L13 13L11 13L11 14L9 14L9 13L10 13L10 10L9 10L9 9L10 9L10 8L11 8L11 9L13 9L13 5L14 5L14 4L13 4L13 5L12 5L12 4L9 4L9 2L8 2L8 4L9 4L9 6L8 6L8 7L9 7L9 9L8 9L8 8L6 8L6 9L8 9L8 10L6 10L6 11L5 11L5 12L6 12L6 13L8 13L8 15L7 15L7 14L5 14L5 13L4 13L4 12L3 12L3 11L4 11L4 10L5 10L5 8L3 8L3 9L4 9L4 10L3 10L3 11L2 11L2 9L1 9L1 11L2 11L2 14L0 14L0 16L2 16L2 17L0 17L0 18L1 18L1 19L2 19L2 20L0 20L0 22L1 22L1 23L4 23L4 24L5 24L5 25L7 25L7 26L6 26L6 27L5 27L5 26L4 26L4 27L3 27L3 26L1 26L1 25L0 25L0 29L1 29L1 27L2 27L2 29L3 29L3 28L6 28L6 29L8 29L8 31L9 31L9 30L10 30L10 33L9 33L9 32L8 32L8 34L11 34L11 33L13 33L13 32L14 32L14 33L15 33L15 34L13 34L13 36L12 36L12 35L10 35L10 36L9 36L9 37L11 37L11 36L12 36L12 37L15 37L15 34L16 34L16 37L17 37L17 36L18 36L18 35L19 35L19 34L20 34L20 36L19 36L19 37L20 37L20 36L21 36L21 37L23 37L23 36L21 36L21 35L22 35L22 34L23 34L23 32L24 32L24 33L25 33L25 32L26 32L26 36L27 36L27 37L31 37L31 36L32 36L32 35L33 35L33 34L31 34L31 33L33 33L33 31L36 31L36 33L37 33L37 30L33 30L33 27L34 27L34 29L35 29L35 28L36 28L36 29L37 29L37 26L36 26L36 25L37 25L37 22L36 22L36 21L37 21L37 18L35 18L35 17L37 17L37 14L36 14L36 12L37 12L37 10L36 10L36 9L35 9L35 8L33 8L33 9L34 9L34 10L35 10L35 11L34 11L34 12L35 12L35 14L34 14L34 13L31 13L31 12L33 12L33 11L31 11L31 10L32 10L32 9L30 9L30 10L29 10L29 9L28 9L28 8L29 8L29 6L28 6L28 8L27 8L27 5L26 5L26 4L27 4L27 0L25 0L25 1L23 1L23 0ZM28 0L28 1L29 1L29 0ZM11 1L11 2L13 2L13 1ZM25 1L25 2L26 2L26 1ZM16 3L16 4L15 4L15 6L14 6L14 8L15 8L15 6L16 6L16 7L17 7L17 6L16 6L16 4L17 4L17 5L18 5L18 4L17 4L17 3ZM28 3L28 5L29 5L29 3ZM19 4L19 5L20 5L20 4ZM24 4L24 5L23 5L23 8L22 8L22 6L21 6L21 10L20 10L20 11L19 11L19 12L18 12L18 11L17 11L17 12L16 12L16 11L15 11L15 10L14 10L14 13L13 13L13 15L14 15L14 14L15 14L15 13L17 13L17 14L18 14L18 15L16 15L16 17L15 17L15 16L14 16L14 17L13 17L13 16L12 16L12 15L11 15L11 16L12 16L12 17L10 17L10 16L9 16L9 17L6 17L6 16L7 16L7 15L5 15L5 14L3 14L3 15L2 15L2 16L3 16L3 17L4 17L4 16L5 16L5 17L6 17L6 18L2 18L2 19L3 19L3 20L2 20L2 22L3 22L3 21L5 21L5 22L4 22L4 23L5 23L5 22L7 22L7 23L6 23L6 24L7 24L7 23L10 23L10 24L9 24L9 25L10 25L10 26L9 26L9 29L11 29L11 31L12 31L12 30L14 30L14 31L16 31L16 32L15 32L15 33L16 33L16 32L17 32L17 30L18 30L18 28L19 28L19 29L20 29L20 28L21 28L21 29L23 29L23 30L21 30L21 31L20 31L20 30L19 30L19 33L21 33L21 34L22 34L22 32L23 32L23 30L26 30L26 29L23 29L23 28L24 28L24 27L25 27L25 28L27 28L27 29L28 29L28 28L31 28L31 27L30 27L30 26L29 26L29 27L28 27L28 25L25 25L25 24L26 24L26 20L28 20L28 21L30 21L30 22L31 22L31 24L34 24L34 25L33 25L33 26L34 26L34 25L36 25L36 23L35 23L35 22L34 22L34 23L33 23L33 22L31 22L31 21L30 21L30 20L29 20L29 19L27 19L27 17L28 17L28 15L29 15L29 16L30 16L30 15L29 15L29 14L31 14L31 13L30 13L30 11L29 11L29 14L28 14L28 15L25 15L25 16L26 16L26 17L24 17L24 19L23 19L23 18L22 18L22 19L23 19L23 21L22 21L22 22L20 22L20 21L21 21L21 19L19 19L19 20L17 20L17 19L18 19L18 17L17 17L17 16L21 16L21 17L23 17L23 15L24 15L24 13L25 13L25 14L26 14L26 12L28 12L28 11L25 11L25 10L26 10L26 9L25 9L25 10L24 10L24 8L26 8L26 6L25 6L25 4ZM10 5L10 6L9 6L9 7L10 7L10 6L11 6L11 7L12 7L12 6L11 6L11 5ZM18 6L18 7L19 7L19 6ZM24 6L24 7L25 7L25 6ZM22 9L22 10L21 10L21 11L20 11L20 12L19 12L19 13L21 13L21 14L23 14L23 13L24 13L24 12L25 12L25 11L24 11L24 12L23 12L23 11L22 11L22 10L23 10L23 9ZM27 9L27 10L28 10L28 9ZM8 10L8 12L9 12L9 10ZM6 11L6 12L7 12L7 11ZM0 12L0 13L1 13L1 12ZM17 12L17 13L18 13L18 12ZM22 12L22 13L23 13L23 12ZM19 14L19 15L20 15L20 14ZM35 14L35 16L36 16L36 14ZM21 15L21 16L22 16L22 15ZM33 15L33 16L32 16L32 17L29 17L29 18L31 18L31 20L33 20L33 21L35 21L35 20L36 20L36 19L35 19L35 18L33 18L33 17L34 17L34 15ZM12 17L12 18L9 18L9 19L8 19L8 20L5 20L5 19L4 19L4 20L5 20L5 21L10 21L10 23L11 23L11 24L10 24L10 25L11 25L11 24L14 24L14 25L12 25L12 26L10 26L10 28L11 28L11 29L12 29L12 28L14 28L14 27L12 27L12 26L14 26L14 25L15 25L15 24L16 24L16 26L17 26L17 28L18 28L18 26L19 26L19 28L20 28L20 27L21 27L21 28L23 28L23 26L22 26L22 27L21 27L21 25L20 25L20 24L17 24L17 22L18 22L18 23L20 23L20 22L18 22L18 21L17 21L17 22L14 22L14 20L15 20L15 18L13 18L13 17ZM16 17L16 19L17 19L17 17ZM6 18L6 19L7 19L7 18ZM12 18L12 19L11 19L11 21L12 21L12 19L13 19L13 18ZM25 18L25 19L24 19L24 22L22 22L22 25L23 25L23 24L25 24L25 20L26 20L26 18ZM32 18L32 19L33 19L33 18ZM9 19L9 20L10 20L10 19ZM11 22L11 23L12 23L12 22ZM13 22L13 23L14 23L14 24L15 24L15 23L14 23L14 22ZM29 23L29 24L30 24L30 23ZM34 23L34 24L35 24L35 23ZM17 25L17 26L18 26L18 25ZM19 25L19 26L20 26L20 25ZM24 25L24 26L25 26L25 27L27 27L27 28L28 28L28 27L27 27L27 26L25 26L25 25ZM35 26L35 27L36 27L36 26ZM6 27L6 28L8 28L8 27ZM15 27L15 28L16 28L16 27ZM16 29L16 30L17 30L17 29ZM29 29L29 32L32 32L32 29ZM27 30L27 31L26 31L26 32L28 32L28 30ZM30 30L30 31L31 31L31 30ZM24 31L24 32L25 32L25 31ZM17 33L17 35L18 35L18 33ZM27 33L27 35L28 35L28 36L29 36L29 35L30 35L30 36L31 36L31 34L30 34L30 33L29 33L29 34L28 34L28 33ZM34 33L34 34L35 34L35 35L34 35L34 36L33 36L33 37L34 37L34 36L36 36L36 37L37 37L37 34L35 34L35 33ZM24 34L24 35L25 35L25 34ZM24 36L24 37L25 37L25 36ZM0 0L0 7L7 7L7 0ZM1 1L1 6L6 6L6 1ZM2 2L2 5L5 5L5 2ZM30 0L30 7L37 7L37 0ZM31 1L31 6L36 6L36 1ZM32 2L32 5L35 5L35 2ZM0 30L0 37L7 37L7 30ZM1 31L1 36L6 36L6 31ZM2 32L2 35L5 35L5 32Z" fill="#000000"/></g></g></svg>
