<?xml version="1.0" encoding="UTF-8"?>
<svg xmlns="http://www.w3.org/2000/svg" version="1.1" width="200" height="200" viewBox="0 0 200 200"><rect x="0" y="0" width="200" height="200" fill="#ffffff"/><g transform="scale(5.405)"><g transform="translate(0,0)"><path fill-rule="evenodd" d="M8 0L8 3L9 3L9 5L8 5L8 9L7 9L7 8L6 8L6 9L7 9L7 10L5 10L5 8L2 8L2 9L4 9L4 10L5 10L5 11L2 11L2 10L1 10L1 11L0 11L0 12L1 12L1 13L2 13L2 14L1 14L1 15L2 15L2 16L0 16L0 18L2 18L2 19L1 19L1 22L2 22L2 23L0 23L0 29L1 29L1 25L3 25L3 24L4 24L4 25L5 25L5 24L4 24L4 23L7 23L7 22L8 22L8 24L6 24L6 25L9 25L9 26L10 26L10 28L9 28L9 29L8 29L8 28L6 28L6 27L8 27L8 26L3 26L3 27L2 27L2 29L5 29L5 28L6 28L6 29L8 29L8 30L11 30L11 31L10 31L10 32L8 32L8 35L10 35L10 34L11 34L11 33L10 33L10 32L11 32L11 31L13 31L13 32L12 32L12 34L13 34L13 35L14 35L14 37L15 37L15 36L16 36L16 37L17 37L17 35L14 35L14 34L17 34L17 32L18 32L18 36L19 36L19 34L20 34L20 35L21 35L21 37L22 37L22 36L23 36L23 37L24 37L24 35L25 35L25 34L23 34L23 32L24 32L24 33L30 33L30 34L27 34L27 35L28 35L28 36L27 36L27 37L28 37L28 36L29 36L29 37L30 37L30 36L31 36L31 37L37 37L37 34L36 34L36 36L34 36L34 34L33 34L33 32L34 32L34 33L35 33L35 32L36 32L36 33L37 33L37 30L33 30L33 28L34 28L34 29L35 29L35 28L36 28L36 29L37 29L37 26L35 26L35 28L34 28L34 27L33 27L33 28L32 28L32 26L31 26L31 22L30 22L30 21L33 21L33 20L34 20L34 21L37 21L37 18L36 18L36 17L37 17L37 14L36 14L36 13L37 13L37 10L34 10L34 9L37 9L37 8L34 8L34 9L32 9L32 8L28 8L28 7L29 7L29 6L28 6L28 5L27 5L27 4L29 4L29 3L27 3L27 4L26 4L26 3L24 3L24 1L25 1L25 0L21 0L21 1L19 1L19 0L17 0L17 1L19 1L19 2L18 2L18 3L17 3L17 2L16 2L16 1L15 1L15 2L13 2L13 4L12 4L12 1L13 1L13 0L11 0L11 1L9 1L9 0ZM21 1L21 2L19 2L19 3L18 3L18 4L19 4L19 5L17 5L17 7L18 7L18 8L17 8L17 9L16 9L16 6L15 6L15 8L14 8L14 5L12 5L12 6L11 6L11 7L10 7L10 6L9 6L9 8L13 8L13 11L14 11L14 13L13 13L13 14L15 14L15 16L14 16L14 17L13 17L13 16L12 16L12 15L11 15L11 14L10 14L10 16L9 16L9 13L12 13L12 11L11 11L11 9L8 9L8 10L10 10L10 12L9 12L9 13L8 13L8 12L7 12L7 11L6 11L6 12L7 12L7 13L6 13L6 14L7 14L7 15L6 15L6 16L5 16L5 14L3 14L3 16L2 16L2 17L3 17L3 21L2 21L2 22L5 22L5 21L4 21L4 20L7 20L7 21L6 21L6 22L7 22L7 21L9 21L9 25L10 25L10 26L11 26L11 29L13 29L13 30L14 30L14 33L16 33L16 32L17 32L17 31L16 31L16 28L20 28L20 27L19 27L19 26L20 26L20 25L22 25L22 24L21 24L21 21L19 21L19 18L20 18L20 20L22 20L22 19L21 19L21 18L20 18L20 17L22 17L22 16L23 16L23 17L24 17L24 16L23 16L23 15L21 15L21 16L20 16L20 15L19 15L19 16L17 16L17 17L18 17L18 19L15 19L15 20L14 20L14 19L13 19L13 18L14 18L14 17L15 17L15 16L16 16L16 15L18 15L18 14L19 14L19 12L20 12L20 10L21 10L21 11L23 11L23 10L24 10L24 11L25 11L25 12L23 12L23 13L25 13L25 12L26 12L26 14L24 14L24 15L25 15L25 16L26 16L26 14L28 14L28 16L29 16L29 17L26 17L26 18L25 18L25 20L26 20L26 21L25 21L25 24L24 24L24 25L23 25L23 27L22 27L22 26L21 26L21 27L22 27L22 29L25 29L25 30L23 30L23 31L20 31L20 32L19 32L19 30L20 30L20 29L18 29L18 32L19 32L19 33L21 33L21 32L23 32L23 31L25 31L25 32L27 32L27 31L28 31L28 27L30 27L30 26L27 26L27 29L25 29L25 28L26 28L26 26L24 26L24 25L27 25L27 24L26 24L26 23L27 23L27 22L29 22L29 23L30 23L30 22L29 22L29 21L30 21L30 20L29 20L29 19L28 19L28 20L27 20L27 18L29 18L29 17L30 17L30 18L32 18L32 19L33 19L33 18L35 18L35 19L34 19L34 20L36 20L36 18L35 18L35 17L30 17L30 15L29 15L29 14L32 14L32 15L31 15L31 16L36 16L36 14L35 14L35 13L34 13L34 12L36 12L36 11L34 11L34 12L33 12L33 13L27 13L27 12L26 12L26 11L27 11L27 9L26 9L26 8L27 8L27 7L28 7L28 6L27 6L27 7L26 7L26 6L25 6L25 4L22 4L22 3L23 3L23 2L22 2L22 1ZM27 1L27 2L29 2L29 1ZM9 2L9 3L10 3L10 5L11 5L11 3L10 3L10 2ZM15 2L15 5L16 5L16 4L17 4L17 3L16 3L16 2ZM19 5L19 6L18 6L18 7L19 7L19 8L18 8L18 11L19 11L19 10L20 10L20 9L19 9L19 8L20 8L20 7L21 7L21 5ZM23 5L23 6L22 6L22 8L21 8L21 9L24 9L24 10L25 10L25 11L26 11L26 10L25 10L25 9L24 9L24 7L25 7L25 8L26 8L26 7L25 7L25 6L24 6L24 5ZM12 6L12 7L13 7L13 6ZM19 6L19 7L20 7L20 6ZM23 6L23 7L24 7L24 6ZM15 9L15 10L14 10L14 11L16 11L16 13L15 13L15 14L17 14L17 13L18 13L18 12L17 12L17 11L16 11L16 9ZM28 9L28 10L29 10L29 11L28 11L28 12L30 12L30 11L32 11L32 10L30 10L30 9ZM2 12L2 13L4 13L4 12ZM21 12L21 13L20 13L20 14L22 14L22 12ZM7 13L7 14L8 14L8 13ZM7 15L7 16L6 16L6 17L7 17L7 18L6 18L6 19L7 19L7 20L8 20L8 18L9 18L9 17L8 17L8 15ZM10 16L10 17L11 17L11 18L10 18L10 19L12 19L12 20L11 20L11 22L12 22L12 23L11 23L11 24L10 24L10 25L11 25L11 26L12 26L12 27L14 27L14 24L15 24L15 27L17 27L17 26L19 26L19 25L20 25L20 22L18 22L18 20L16 20L16 21L17 21L17 22L16 22L16 24L15 24L15 23L14 23L14 24L12 24L12 23L13 23L13 19L12 19L12 17L11 17L11 16ZM4 17L4 18L5 18L5 17ZM23 19L23 21L22 21L22 23L23 23L23 22L24 22L24 19ZM9 20L9 21L10 21L10 20ZM28 20L28 21L29 21L29 20ZM14 21L14 22L15 22L15 21ZM26 21L26 22L27 22L27 21ZM17 22L17 25L16 25L16 26L17 26L17 25L19 25L19 24L18 24L18 22ZM32 22L32 23L33 23L33 26L34 26L34 25L35 25L35 24L34 24L34 23L33 23L33 22ZM35 22L35 23L37 23L37 22ZM28 24L28 25L30 25L30 24ZM36 24L36 25L37 25L37 24ZM12 25L12 26L13 26L13 25ZM3 27L3 28L4 28L4 27ZM24 27L24 28L25 28L25 27ZM13 28L13 29L14 29L14 30L15 30L15 29L14 29L14 28ZM29 29L29 32L32 32L32 29ZM25 30L25 31L26 31L26 30ZM30 30L30 31L31 31L31 30ZM34 31L34 32L35 32L35 31ZM9 33L9 34L10 34L10 33ZM31 33L31 34L30 34L30 35L31 35L31 34L32 34L32 36L33 36L33 34L32 34L32 33ZM22 34L22 35L23 35L23 34ZM9 36L9 37L13 37L13 36ZM25 36L25 37L26 37L26 36ZM0 0L0 7L7 7L7 0ZM1 1L1 6L6 6L6 1ZM2 2L2 5L5 5L5 2ZM30 0L30 7L37 7L37 0ZM31 1L31 6L36 6L36 1ZM32 2L32 5L35 5L35 2ZM0 30L0 37L7 37L7 30ZM1 31L1 36L6 36L6 31ZM2 32L2 35L5 35L5 32Z" fill="#000000"/></g></g></svg>
