<?xml version="1.0" encoding="UTF-8"?>
<svg xmlns="http://www.w3.org/2000/svg" version="1.1" width="200" height="200" viewBox="0 0 200 200"><rect x="0" y="0" width="200" height="200" fill="#ffffff"/><g transform="scale(5.405)"><g transform="translate(0,0)"><path fill-rule="evenodd" d="M12 0L12 1L11 1L11 2L12 2L12 3L13 3L13 4L11 4L11 5L10 5L10 3L9 3L9 4L8 4L8 5L10 5L10 7L9 7L9 6L8 6L8 8L6 8L6 9L7 9L7 10L6 10L6 11L5 11L5 10L4 10L4 8L2 8L2 10L1 10L1 11L0 11L0 14L1 14L1 15L0 15L0 17L2 17L2 13L4 13L4 14L6 14L6 15L5 15L5 16L6 16L6 17L9 17L9 18L10 18L10 19L8 19L8 21L7 21L7 20L6 20L6 21L5 21L5 19L4 19L4 20L3 20L3 18L2 18L2 19L0 19L0 24L1 24L1 25L2 25L2 26L1 26L1 27L0 27L0 28L1 28L1 27L2 27L2 26L4 26L4 27L5 27L5 26L4 26L4 25L5 25L5 24L4 24L4 25L2 25L2 24L1 24L1 21L2 21L2 20L3 20L3 21L5 21L5 22L6 22L6 23L7 23L7 22L10 22L10 24L9 24L9 23L8 23L8 24L6 24L6 25L7 25L7 26L6 26L6 27L7 27L7 26L8 26L8 24L9 24L9 26L10 26L10 27L8 27L8 31L9 31L9 28L10 28L10 29L13 29L13 30L14 30L14 31L13 31L13 32L12 32L12 31L10 31L10 32L9 32L9 33L8 33L8 35L10 35L10 32L12 32L12 33L11 33L11 36L9 36L9 37L11 37L11 36L12 36L12 37L17 37L17 36L19 36L19 37L24 37L24 36L25 36L25 37L26 37L26 36L27 36L27 35L23 35L23 34L21 34L21 33L24 33L24 31L21 31L21 32L20 32L20 33L19 33L19 31L20 31L20 28L17 28L17 29L18 29L18 30L15 30L15 28L16 28L16 27L15 27L15 24L16 24L16 23L17 23L17 24L19 24L19 23L20 23L20 22L22 22L22 21L23 21L23 23L21 23L21 24L23 24L23 23L24 23L24 24L27 24L27 25L28 25L28 26L26 26L26 25L25 25L25 26L24 26L24 25L23 25L23 26L22 26L22 25L21 25L21 26L22 26L22 27L23 27L23 26L24 26L24 28L21 28L21 29L22 29L22 30L25 30L25 31L26 31L26 33L27 33L27 31L26 31L26 30L28 30L28 34L29 34L29 33L30 33L30 35L29 35L29 36L30 36L30 37L37 37L37 36L35 36L35 35L36 35L36 34L35 34L35 35L34 35L34 33L33 33L33 32L34 32L34 31L33 31L33 28L32 28L32 26L33 26L33 27L34 27L34 26L33 26L33 25L35 25L35 28L34 28L34 30L36 30L36 31L35 31L35 32L36 32L36 31L37 31L37 29L36 29L36 26L37 26L37 23L36 23L36 19L37 19L37 17L36 17L36 16L37 16L37 15L36 15L36 14L37 14L37 11L36 11L36 9L35 9L35 11L34 11L34 9L33 9L33 8L32 8L32 9L31 9L31 8L29 8L29 9L30 9L30 10L28 10L28 8L27 8L27 5L28 5L28 7L29 7L29 5L28 5L28 4L29 4L29 2L28 2L28 3L27 3L27 5L26 5L26 1L25 1L25 4L24 4L24 2L23 2L23 1L24 1L24 0L23 0L23 1L22 1L22 2L21 2L21 0L17 0L17 1L16 1L16 0L14 0L14 1L13 1L13 0ZM12 1L12 2L13 2L13 1ZM14 1L14 2L15 2L15 1ZM18 1L18 2L17 2L17 3L18 3L18 2L19 2L19 3L21 3L21 4L19 4L19 5L21 5L21 7L20 7L20 6L19 6L19 7L18 7L18 5L17 5L17 4L16 4L16 3L15 3L15 4L16 4L16 5L17 5L17 7L16 7L16 6L15 6L15 5L14 5L14 4L13 4L13 5L12 5L12 6L11 6L11 9L12 9L12 11L11 11L11 13L10 13L10 14L7 14L7 13L9 13L9 11L10 11L10 10L8 10L8 11L6 11L6 12L5 12L5 11L4 11L4 10L2 10L2 11L4 11L4 13L6 13L6 14L7 14L7 15L6 15L6 16L9 16L9 17L12 17L12 18L13 18L13 17L12 17L12 16L14 16L14 19L15 19L15 21L14 21L14 22L13 22L13 21L12 21L12 19L11 19L11 20L10 20L10 21L11 21L11 24L10 24L10 25L11 25L11 28L13 28L13 27L14 27L14 28L15 28L15 27L14 27L14 26L12 26L12 25L13 25L13 24L15 24L15 21L17 21L17 23L19 23L19 21L22 21L22 20L21 20L21 19L23 19L23 20L24 20L24 19L23 19L23 18L25 18L25 23L26 23L26 22L27 22L27 24L28 24L28 25L29 25L29 26L30 26L30 27L31 27L31 26L32 26L32 25L33 25L33 24L34 24L34 23L35 23L35 25L36 25L36 23L35 23L35 19L36 19L36 18L35 18L35 19L34 19L34 17L33 17L33 15L34 15L34 16L35 16L35 13L34 13L34 11L33 11L33 10L30 10L30 11L31 11L31 12L32 12L32 11L33 11L33 13L34 13L34 14L33 14L33 15L32 15L32 13L31 13L31 14L30 14L30 12L28 12L28 10L27 10L27 9L25 9L25 10L24 10L24 9L22 9L22 8L23 8L23 7L24 7L24 8L25 8L25 7L26 7L26 5L25 5L25 7L24 7L24 6L23 6L23 5L24 5L24 4L23 4L23 5L21 5L21 4L22 4L22 3L21 3L21 2L19 2L19 1ZM12 6L12 9L13 9L13 10L15 10L15 9L14 9L14 8L16 8L16 7L15 7L15 6L14 6L14 7L13 7L13 6ZM22 6L22 7L21 7L21 8L22 8L22 7L23 7L23 6ZM19 8L19 9L20 9L20 10L19 10L19 12L18 12L18 11L16 11L16 12L14 12L14 11L12 11L12 12L13 12L13 15L15 15L15 19L16 19L16 20L17 20L17 21L18 21L18 20L20 20L20 18L21 18L21 17L22 17L22 16L23 16L23 15L22 15L22 16L21 16L21 15L20 15L20 11L21 11L21 10L22 10L22 11L23 11L23 12L24 12L24 13L22 13L22 14L24 14L24 17L25 17L25 18L26 18L26 16L28 16L28 17L27 17L27 19L28 19L28 20L29 20L29 21L30 21L30 20L32 20L32 21L34 21L34 20L32 20L32 16L31 16L31 15L30 15L30 14L29 14L29 13L28 13L28 12L27 12L27 11L26 11L26 10L25 10L25 11L23 11L23 10L22 10L22 9L20 9L20 8ZM35 11L35 12L36 12L36 11ZM1 12L1 13L2 13L2 12ZM6 12L6 13L7 13L7 12ZM26 12L26 13L27 13L27 12ZM17 13L17 15L18 15L18 13ZM10 14L10 15L9 15L9 16L12 16L12 14ZM27 14L27 15L28 15L28 16L29 16L29 18L28 18L28 19L30 19L30 17L31 17L31 16L30 16L30 15L28 15L28 14ZM25 15L25 16L26 16L26 15ZM3 16L3 17L4 17L4 18L5 18L5 17L4 17L4 16ZM16 16L16 17L18 17L18 19L19 19L19 16ZM6 18L6 19L7 19L7 18ZM26 20L26 21L27 21L27 20ZM6 21L6 22L7 22L7 21ZM2 22L2 23L4 23L4 22ZM28 22L28 23L29 23L29 24L30 24L30 25L31 25L31 24L32 24L32 23L34 23L34 22L31 22L31 24L30 24L30 22ZM11 24L11 25L12 25L12 24ZM18 25L18 26L17 26L17 27L18 27L18 26L19 26L19 27L20 27L20 25ZM25 27L25 28L24 28L24 29L25 29L25 28L26 28L26 27ZM27 27L27 28L28 28L28 27ZM2 28L2 29L7 29L7 28ZM29 29L29 32L32 32L32 29ZM18 30L18 31L19 31L19 30ZM30 30L30 31L31 31L31 30ZM14 31L14 32L13 32L13 33L15 33L15 35L14 35L14 36L16 36L16 33L17 33L17 35L19 35L19 36L20 36L20 35L21 35L21 34L20 34L20 35L19 35L19 33L17 33L17 32L16 32L16 31ZM31 33L31 34L32 34L32 33ZM12 35L12 36L13 36L13 35ZM22 35L22 36L23 36L23 35ZM30 35L30 36L34 36L34 35ZM0 0L0 7L7 7L7 0ZM1 1L1 6L6 6L6 1ZM2 2L2 5L5 5L5 2ZM30 0L30 7L37 7L37 0ZM31 1L31 6L36 6L36 1ZM32 2L32 5L35 5L35 2ZM0 30L0 37L7 37L7 30ZM1 31L1 36L6 36L6 31ZM2 32L2 35L5 35L5 32Z" fill="#000000"/></g></g></svg>
