<?xml version="1.0" encoding="UTF-8"?>
<svg xmlns="http://www.w3.org/2000/svg" version="1.1" width="200" height="200" viewBox="0 0 200 200"><rect x="0" y="0" width="200" height="200" fill="#ffffff"/><g transform="scale(5.405)"><g transform="translate(0,0)"><path fill-rule="evenodd" d="M8 0L8 3L9 3L9 5L8 5L8 10L6 10L6 11L4 11L4 13L5 13L5 12L6 12L6 13L10 13L10 15L11 15L11 16L9 16L9 17L10 17L10 18L9 18L9 19L8 19L8 20L6 20L6 19L7 19L7 18L8 18L8 17L7 17L7 16L6 16L6 15L8 15L8 14L6 14L6 15L5 15L5 14L4 14L4 15L2 15L2 16L4 16L4 17L2 17L2 18L1 18L1 20L0 20L0 23L1 23L1 25L0 25L0 29L1 29L1 25L2 25L2 27L3 27L3 25L4 25L4 28L5 28L5 29L8 29L8 30L9 30L9 32L8 32L8 35L9 35L9 34L10 34L10 37L15 37L15 36L17 36L17 34L16 34L16 33L17 33L17 32L19 32L19 30L20 30L20 29L19 29L19 27L20 27L20 26L21 26L21 23L20 23L20 25L19 25L19 22L20 22L20 21L21 21L21 19L22 19L22 20L23 20L23 21L22 21L22 23L23 23L23 24L22 24L22 26L23 26L23 25L24 25L24 26L26 26L26 28L25 28L25 27L24 27L24 28L25 28L25 29L23 29L23 28L22 28L22 27L21 27L21 28L22 28L22 29L21 29L21 30L22 30L22 31L20 31L20 33L18 33L18 34L19 34L19 35L18 35L18 36L19 36L19 37L20 37L20 33L22 33L22 36L21 36L21 37L22 37L22 36L23 36L23 37L24 37L24 35L25 35L25 34L23 34L23 33L22 33L22 32L24 32L24 33L30 33L30 34L29 34L29 35L28 35L28 34L27 34L27 35L26 35L26 36L25 36L25 37L26 37L26 36L29 36L29 37L30 37L30 36L31 36L31 37L37 37L37 34L36 34L36 36L34 36L34 35L35 35L35 34L34 34L34 33L35 33L35 32L36 32L36 33L37 33L37 30L34 30L34 29L37 29L37 28L32 28L32 27L33 27L33 26L32 26L32 27L30 27L30 28L29 28L29 27L28 27L28 31L27 31L27 32L24 32L24 31L23 31L23 30L26 30L26 29L27 29L27 26L31 26L31 23L32 23L32 24L33 24L33 25L37 25L37 24L34 24L34 23L37 23L37 22L33 22L33 23L32 23L32 21L37 21L37 18L36 18L36 17L37 17L37 16L33 16L33 15L35 15L35 14L36 14L36 15L37 15L37 14L36 14L36 13L37 13L37 12L36 12L36 11L37 11L37 10L36 10L36 9L37 9L37 8L34 8L34 9L32 9L32 8L28 8L28 7L29 7L29 5L27 5L27 4L29 4L29 2L28 2L28 1L25 1L25 0L24 0L24 3L25 3L25 4L23 4L23 3L19 3L19 4L18 4L18 2L17 2L17 1L16 1L16 2L17 2L17 3L15 3L15 2L14 2L14 3L15 3L15 4L12 4L12 3L13 3L13 2L12 2L12 0L10 0L10 1L9 1L9 0ZM10 1L10 2L9 2L9 3L10 3L10 4L11 4L11 5L10 5L10 6L9 6L9 7L10 7L10 6L11 6L11 7L12 7L12 6L13 6L13 7L14 7L14 8L13 8L13 10L14 10L14 11L13 11L13 13L16 13L16 15L15 15L15 14L13 14L13 15L12 15L12 17L11 17L11 18L12 18L12 19L11 19L11 20L10 20L10 19L9 19L9 20L10 20L10 22L9 22L9 21L8 21L8 22L9 22L9 24L8 24L8 25L6 25L6 24L7 24L7 23L5 23L5 22L4 22L4 21L3 21L3 22L1 22L1 23L3 23L3 22L4 22L4 23L5 23L5 25L6 25L6 26L8 26L8 27L6 27L6 28L8 28L8 27L9 27L9 30L11 30L11 29L13 29L13 28L14 28L14 32L11 32L11 31L10 31L10 32L9 32L9 33L10 33L10 32L11 32L11 34L13 34L13 35L12 35L12 36L13 36L13 35L14 35L14 34L15 34L15 33L16 33L16 32L17 32L17 31L18 31L18 30L17 30L17 31L16 31L16 32L15 32L15 29L16 29L16 28L15 28L15 27L16 27L16 26L17 26L17 25L18 25L18 23L17 23L17 22L19 22L19 21L18 21L18 19L19 19L19 18L18 18L18 17L20 17L20 18L24 18L24 17L20 17L20 16L22 16L22 15L23 15L23 14L22 14L22 13L23 13L23 12L24 12L24 14L25 14L25 16L26 16L26 17L25 17L25 19L24 19L24 20L26 20L26 21L25 21L25 24L24 24L24 25L27 25L27 24L28 24L28 25L30 25L30 24L28 24L28 23L27 23L27 22L28 22L28 21L29 21L29 23L30 23L30 22L31 22L31 21L32 21L32 20L31 20L31 21L29 21L29 20L30 20L30 18L32 18L32 19L33 19L33 20L36 20L36 18L35 18L35 17L34 17L34 18L35 18L35 19L33 19L33 17L30 17L30 15L28 15L28 16L26 16L26 14L28 14L28 13L30 13L30 14L32 14L32 15L31 15L31 16L32 16L32 15L33 15L33 14L35 14L35 13L36 13L36 12L35 12L35 11L36 11L36 10L35 10L35 9L34 9L34 10L35 10L35 11L34 11L34 12L33 12L33 13L30 13L30 12L29 12L29 11L30 11L30 9L28 9L28 10L29 10L29 11L28 11L28 13L27 13L27 9L26 9L26 8L27 8L27 7L28 7L28 6L27 6L27 7L26 7L26 6L25 6L25 7L26 7L26 8L25 8L25 9L24 9L24 5L23 5L23 4L22 4L22 5L21 5L21 10L22 10L22 11L21 11L21 12L19 12L19 11L20 11L20 9L19 9L19 8L18 8L18 6L17 6L17 7L16 7L16 6L15 6L15 7L14 7L14 5L12 5L12 4L11 4L11 3L12 3L12 2L11 2L11 1ZM20 1L20 2L21 2L21 1ZM22 1L22 2L23 2L23 1ZM10 2L10 3L11 3L11 2ZM25 2L25 3L26 3L26 4L27 4L27 3L28 3L28 2ZM19 6L19 7L20 7L20 6ZM22 6L22 8L23 8L23 6ZM15 7L15 8L16 8L16 9L15 9L15 11L14 11L14 12L15 12L15 11L18 11L18 9L17 9L17 8L16 8L16 7ZM2 8L2 9L0 9L0 10L1 10L1 11L2 11L2 13L1 13L1 14L2 14L2 13L3 13L3 11L2 11L2 9L4 9L4 10L5 10L5 8ZM6 8L6 9L7 9L7 8ZM10 8L10 9L9 9L9 10L8 10L8 11L6 11L6 12L9 12L9 11L10 11L10 10L11 10L11 11L12 11L12 10L11 10L11 9L12 9L12 8ZM16 9L16 10L17 10L17 9ZM23 9L23 11L24 11L24 9ZM25 9L25 10L26 10L26 9ZM31 10L31 11L32 11L32 10ZM10 12L10 13L11 13L11 14L12 14L12 12ZM16 12L16 13L17 13L17 15L16 15L16 16L15 16L15 15L13 15L13 16L14 16L14 17L13 17L13 18L15 18L15 17L17 17L17 15L19 15L19 14L18 14L18 13L19 13L19 12L18 12L18 13L17 13L17 12ZM25 12L25 14L26 14L26 12ZM34 12L34 13L35 13L35 12ZM21 14L21 15L22 15L22 14ZM0 15L0 16L1 16L1 15ZM4 15L4 16L5 16L5 15ZM28 16L28 17L29 17L29 18L27 18L27 17L26 17L26 19L27 19L27 21L26 21L26 22L27 22L27 21L28 21L28 20L29 20L29 18L30 18L30 17L29 17L29 16ZM4 17L4 20L5 20L5 19L6 19L6 18L7 18L7 17L6 17L6 18L5 18L5 17ZM2 18L2 19L3 19L3 18ZM17 18L17 19L15 19L15 21L14 21L14 20L13 20L13 19L12 19L12 20L11 20L11 23L12 23L12 24L13 24L13 23L12 23L12 22L13 22L13 21L14 21L14 22L15 22L15 23L16 23L16 22L17 22L17 19L18 19L18 18ZM12 20L12 21L13 21L13 20ZM6 21L6 22L7 22L7 21ZM15 21L15 22L16 22L16 21ZM26 23L26 24L27 24L27 23ZM2 24L2 25L3 25L3 24ZM10 24L10 25L9 25L9 27L15 27L15 26L16 26L16 24L14 24L14 25L13 25L13 26L12 26L12 25L11 25L11 24ZM18 26L18 27L17 27L17 29L18 29L18 27L19 27L19 26ZM34 26L34 27L37 27L37 26ZM2 28L2 29L3 29L3 28ZM10 28L10 29L11 29L11 28ZM29 29L29 32L32 32L32 29ZM12 30L12 31L13 31L13 30ZM30 30L30 31L31 31L31 30ZM33 30L33 31L34 31L34 32L33 32L33 33L34 33L34 32L35 32L35 31L34 31L34 30ZM13 33L13 34L14 34L14 33ZM30 34L30 35L29 35L29 36L30 36L30 35L32 35L32 36L33 36L33 34ZM0 0L0 7L7 7L7 0ZM1 1L1 6L6 6L6 1ZM2 2L2 5L5 5L5 2ZM30 0L30 7L37 7L37 0ZM31 1L31 6L36 6L36 1ZM32 2L32 5L35 5L35 2ZM0 30L0 37L7 37L7 30ZM1 31L1 36L6 36L6 31ZM2 32L2 35L5 35L5 32Z" fill="#000000"/></g></g></svg>
