<?xml version="1.0" encoding="UTF-8"?>
<svg xmlns="http://www.w3.org/2000/svg" version="1.1" width="200" height="200" viewBox="0 0 200 200"><rect x="0" y="0" width="200" height="200" fill="#ffffff"/><g transform="scale(5.405)"><g transform="translate(0,0)"><path fill-rule="evenodd" d="M8 0L8 3L10 3L10 5L8 5L8 9L7 9L7 8L6 8L6 9L5 9L5 8L2 8L2 9L4 9L4 10L5 10L5 11L7 11L7 12L5 12L5 13L7 13L7 14L5 14L5 15L4 15L4 13L3 13L3 14L2 14L2 15L1 15L1 13L2 13L2 12L1 12L1 13L0 13L0 18L1 18L1 19L0 19L0 21L2 21L2 20L3 20L3 19L4 19L4 17L5 17L5 19L7 19L7 20L6 20L6 21L5 21L5 20L4 20L4 21L5 21L5 22L6 22L6 23L7 23L7 24L5 24L5 23L4 23L4 25L3 25L3 22L2 22L2 23L1 23L1 24L0 24L0 29L1 29L1 26L2 26L2 28L3 28L3 27L4 27L4 28L5 28L5 29L8 29L8 30L12 30L12 29L10 29L10 28L11 28L11 25L9 25L9 26L8 26L8 27L10 27L10 28L5 28L5 27L7 27L7 26L6 26L6 25L8 25L8 23L7 23L7 22L10 22L10 21L11 21L11 23L10 23L10 24L11 24L11 23L13 23L13 22L12 22L12 21L11 21L11 20L13 20L13 21L14 21L14 24L15 24L15 26L13 26L13 25L12 25L12 27L13 27L13 29L14 29L14 30L13 30L13 31L14 31L14 32L8 32L8 35L9 35L9 36L10 36L10 37L13 37L13 35L12 35L12 34L13 34L13 33L14 33L14 32L15 32L15 33L16 33L16 35L17 35L17 36L16 36L16 37L18 37L18 34L19 34L19 33L20 33L20 31L21 31L21 34L20 34L20 35L19 35L19 36L23 36L23 37L27 37L27 36L29 36L29 35L30 35L30 36L31 36L31 37L37 37L37 34L36 34L36 36L34 36L34 34L33 34L33 32L34 32L34 33L37 33L37 30L35 30L35 31L36 31L36 32L34 32L34 31L33 31L33 28L34 28L34 29L35 29L35 28L34 28L34 27L35 27L35 26L36 26L36 27L37 27L37 26L36 26L36 25L37 25L37 24L36 24L36 23L37 23L37 22L35 22L35 24L34 24L34 23L32 23L32 24L33 24L33 28L32 28L32 27L31 27L31 22L32 22L32 21L37 21L37 18L36 18L36 17L37 17L37 16L32 16L32 15L35 15L35 14L36 14L36 15L37 15L37 14L36 14L36 13L35 13L35 12L34 12L34 11L35 11L35 10L36 10L36 12L37 12L37 10L36 10L36 9L37 9L37 8L34 8L34 9L35 9L35 10L33 10L33 9L32 9L32 8L26 8L26 7L27 7L27 6L28 6L28 7L29 7L29 4L28 4L28 5L26 5L26 4L27 4L27 3L28 3L28 2L29 2L29 1L25 1L25 0L23 0L23 1L25 1L25 2L23 2L23 3L22 3L22 5L23 5L23 6L22 6L22 8L21 8L21 9L20 9L20 11L18 11L18 9L19 9L19 8L20 8L20 7L21 7L21 2L22 2L22 1L21 1L21 0L17 0L17 1L21 1L21 2L20 2L20 3L19 3L19 4L20 4L20 7L19 7L19 5L17 5L17 6L16 6L16 3L15 3L15 4L14 4L14 5L12 5L12 4L13 4L13 3L14 3L14 2L16 2L16 0L15 0L15 1L13 1L13 0L11 0L11 3L10 3L10 1L9 1L9 0ZM12 1L12 2L13 2L13 1ZM25 2L25 3L27 3L27 2ZM23 3L23 5L24 5L24 6L23 6L23 9L21 9L21 10L22 10L22 11L23 11L23 12L24 12L24 13L22 13L22 12L18 12L18 11L17 11L17 10L16 10L16 9L15 9L15 8L16 8L16 6L15 6L15 7L14 7L14 6L13 6L13 8L14 8L14 9L11 9L11 10L7 10L7 9L6 9L6 10L7 10L7 11L8 11L8 14L7 14L7 15L6 15L6 16L5 16L5 17L6 17L6 18L7 18L7 19L8 19L8 21L9 21L9 19L10 19L10 20L11 20L11 19L13 19L13 20L14 20L14 21L15 21L15 23L16 23L16 24L17 24L17 25L16 25L16 26L15 26L15 28L14 28L14 29L15 29L15 30L14 30L14 31L15 31L15 32L16 32L16 31L15 31L15 30L17 30L17 31L18 31L18 32L17 32L17 33L19 33L19 30L20 30L20 29L19 29L19 30L17 30L17 29L18 29L18 28L16 28L16 26L17 26L17 27L18 27L18 26L19 26L19 25L20 25L20 26L21 26L21 28L22 28L22 29L21 29L21 30L23 30L23 31L22 31L22 33L23 33L23 34L21 34L21 35L23 35L23 34L25 34L25 35L24 35L24 36L26 36L26 35L27 35L27 34L25 34L25 33L24 33L24 31L25 31L25 32L26 32L26 33L27 33L27 32L28 32L28 30L27 30L27 29L28 29L28 27L29 27L29 28L30 28L30 26L27 26L27 29L26 29L26 30L25 30L25 29L24 29L24 27L25 27L25 28L26 28L26 26L24 26L24 25L30 25L30 24L29 24L29 23L30 23L30 22L31 22L31 21L32 21L32 20L31 20L31 21L30 21L30 20L29 20L29 18L32 18L32 19L33 19L33 20L36 20L36 18L35 18L35 17L34 17L34 18L33 18L33 17L27 17L27 16L28 16L28 15L29 15L29 16L30 16L30 15L29 15L29 14L28 14L28 13L30 13L30 14L35 14L35 13L34 13L34 12L33 12L33 13L30 13L30 11L28 11L28 13L27 13L27 12L26 12L26 11L27 11L27 9L26 9L26 8L25 8L25 7L26 7L26 6L25 6L25 4L24 4L24 3ZM10 5L10 6L9 6L9 9L10 9L10 6L11 6L11 8L12 8L12 5ZM17 6L17 8L18 8L18 6ZM24 6L24 7L25 7L25 6ZM14 9L14 12L16 12L16 14L15 14L15 13L14 13L14 14L13 14L13 15L12 15L12 18L13 18L13 15L15 15L15 16L14 16L14 20L16 20L16 19L17 19L17 20L18 20L18 22L17 22L17 21L16 21L16 23L17 23L17 24L18 24L18 25L19 25L19 24L18 24L18 22L19 22L19 21L20 21L20 24L21 24L21 20L20 20L20 18L19 18L19 17L18 17L18 18L19 18L19 19L17 19L17 18L16 18L16 17L15 17L15 16L16 16L16 14L17 14L17 16L18 16L18 13L17 13L17 12L16 12L16 11L15 11L15 9ZM23 9L23 10L24 10L24 11L26 11L26 10L25 10L25 9ZM28 9L28 10L30 10L30 9ZM0 10L0 11L1 11L1 10ZM2 10L2 11L3 11L3 12L4 12L4 11L3 11L3 10ZM11 10L11 11L9 11L9 12L11 12L11 13L12 13L12 10ZM31 10L31 11L32 11L32 10ZM25 12L25 13L24 13L24 14L26 14L26 16L25 16L25 17L24 17L24 15L23 15L23 14L21 14L21 13L20 13L20 15L21 15L21 18L22 18L22 20L23 20L23 23L24 23L24 22L25 22L25 21L26 21L26 22L27 22L27 23L26 23L26 24L28 24L28 22L27 22L27 21L29 21L29 22L30 22L30 21L29 21L29 20L27 20L27 19L28 19L28 18L27 18L27 17L26 17L26 16L27 16L27 15L28 15L28 14L26 14L26 12ZM9 13L9 14L10 14L10 13ZM7 15L7 16L6 16L6 17L9 17L9 16L10 16L10 17L11 17L11 15L9 15L9 16L8 16L8 15ZM22 15L22 16L23 16L23 15ZM1 16L1 17L2 17L2 18L3 18L3 17L4 17L4 16L3 16L3 17L2 17L2 16ZM22 17L22 18L24 18L24 17ZM25 17L25 18L26 18L26 19L23 19L23 20L26 20L26 21L27 21L27 20L26 20L26 19L27 19L27 18L26 18L26 17ZM15 18L15 19L16 19L16 18ZM6 21L6 22L7 22L7 21ZM23 24L23 25L24 25L24 24ZM35 24L35 25L34 25L34 26L35 26L35 25L36 25L36 24ZM2 25L2 26L3 26L3 25ZM21 25L21 26L22 26L22 25ZM22 27L22 28L23 28L23 27ZM15 28L15 29L16 29L16 28ZM36 28L36 29L37 29L37 28ZM23 29L23 30L24 30L24 29ZM29 29L29 32L32 32L32 29ZM30 30L30 31L31 31L31 30ZM10 33L10 34L9 34L9 35L10 35L10 36L11 36L11 35L10 35L10 34L11 34L11 33ZM29 33L29 34L28 34L28 35L29 35L29 34L30 34L30 35L32 35L32 36L33 36L33 34L30 34L30 33ZM14 35L14 36L15 36L15 35ZM0 0L0 7L7 7L7 0ZM1 1L1 6L6 6L6 1ZM2 2L2 5L5 5L5 2ZM30 0L30 7L37 7L37 0ZM31 1L31 6L36 6L36 1ZM32 2L32 5L35 5L35 2ZM0 30L0 37L7 37L7 30ZM1 31L1 36L6 36L6 31ZM2 32L2 35L5 35L5 32Z" fill="#000000"/></g></g></svg>
