<?xml version="1.0" encoding="UTF-8"?>
<svg xmlns="http://www.w3.org/2000/svg" version="1.1" width="200" height="200" viewBox="0 0 200 200"><rect x="0" y="0" width="200" height="200" fill="#ffffff"/><g transform="scale(5.405)"><g transform="translate(0,0)"><path fill-rule="evenodd" d="M8 0L8 3L9 3L9 5L8 5L8 9L7 9L7 8L6 8L6 9L5 9L5 8L2 8L2 9L3 9L3 10L1 10L1 9L0 9L0 11L3 11L3 12L2 12L2 13L1 13L1 14L2 14L2 13L3 13L3 15L4 15L4 18L3 18L3 17L1 17L1 16L0 16L0 19L2 19L2 20L1 20L1 21L0 21L0 22L4 22L4 21L5 21L5 22L6 22L6 23L4 23L4 24L3 24L3 28L4 28L4 27L5 27L5 26L6 26L6 27L7 27L7 26L9 26L9 24L10 24L10 25L11 25L11 24L10 24L10 23L9 23L9 22L8 22L8 20L9 20L9 21L10 21L10 22L14 22L14 21L15 21L15 22L16 22L16 23L14 23L14 25L19 25L19 26L18 26L18 27L17 27L17 26L16 26L16 27L15 27L15 26L14 26L14 27L15 27L15 28L16 28L16 29L15 29L15 30L9 30L9 29L8 29L8 28L10 28L10 27L8 27L8 28L6 28L6 29L8 29L8 30L9 30L9 31L12 31L12 32L8 32L8 35L9 35L9 34L10 34L10 33L11 33L11 35L12 35L12 34L13 34L13 31L14 31L14 36L15 36L15 37L16 37L16 36L17 36L17 37L20 37L20 36L21 36L21 37L22 37L22 36L23 36L23 37L24 37L24 35L25 35L25 34L23 34L23 32L24 32L24 33L26 33L26 36L25 36L25 37L26 37L26 36L29 36L29 35L27 35L27 33L29 33L29 34L31 34L31 35L30 35L30 36L31 36L31 37L37 37L37 34L36 34L36 36L34 36L34 34L33 34L33 32L34 32L34 33L37 33L37 30L35 30L35 31L36 31L36 32L34 32L34 31L33 31L33 28L34 28L34 29L35 29L35 28L37 28L37 26L36 26L36 25L37 25L37 24L36 24L36 25L35 25L35 24L34 24L34 23L35 23L35 22L36 22L36 23L37 23L37 22L36 22L36 21L37 21L37 18L36 18L36 17L37 17L37 14L36 14L36 13L37 13L37 12L36 12L36 11L37 11L37 10L35 10L35 9L37 9L37 8L34 8L34 9L32 9L32 8L26 8L26 7L27 7L27 6L28 6L28 7L29 7L29 4L28 4L28 2L29 2L29 1L27 1L27 2L26 2L26 3L24 3L24 0L18 0L18 1L23 1L23 3L24 3L24 4L25 4L25 6L24 6L24 7L23 7L23 6L22 6L22 5L23 5L23 4L22 4L22 5L20 5L20 4L21 4L21 3L22 3L22 2L19 2L19 3L17 3L17 4L15 4L15 3L16 3L16 1L15 1L15 0L13 0L13 1L12 1L12 0L11 0L11 1L12 1L12 2L13 2L13 3L14 3L14 4L13 4L13 5L12 5L12 4L11 4L11 5L10 5L10 3L11 3L11 2L10 2L10 3L9 3L9 1L10 1L10 0ZM26 3L26 4L27 4L27 5L28 5L28 4L27 4L27 3ZM17 4L17 5L15 5L15 8L16 8L16 9L15 9L15 10L14 10L14 11L12 11L12 10L13 10L13 9L14 9L14 8L12 8L12 5L11 5L11 11L10 11L10 10L9 10L9 9L10 9L10 8L9 8L9 9L8 9L8 10L7 10L7 9L6 9L6 10L7 10L7 11L6 11L6 12L5 12L5 10L3 10L3 11L4 11L4 12L5 12L5 13L4 13L4 15L5 15L5 13L6 13L6 14L8 14L8 12L11 12L11 14L12 14L12 15L11 15L11 16L10 16L10 17L11 17L11 18L13 18L13 20L15 20L15 21L16 21L16 19L14 19L14 17L15 17L15 18L16 18L16 17L17 17L17 19L19 19L19 20L17 20L17 21L19 21L19 20L21 20L21 21L20 21L20 26L21 26L21 27L20 27L20 32L21 32L21 33L18 33L18 32L19 32L19 31L17 31L17 32L16 32L16 30L15 30L15 32L16 32L16 33L17 33L17 34L15 34L15 35L17 35L17 34L20 34L20 35L23 35L23 34L22 34L22 32L21 32L21 30L22 30L22 31L24 31L24 32L26 32L26 33L27 33L27 32L26 32L26 31L28 31L28 27L30 27L30 26L27 26L27 29L24 29L24 27L25 27L25 28L26 28L26 26L24 26L24 25L27 25L27 24L28 24L28 25L30 25L30 24L29 24L29 23L30 23L30 22L31 22L31 23L32 23L32 24L31 24L31 26L33 26L33 23L34 23L34 22L35 22L35 21L34 21L34 22L33 22L33 21L30 21L30 20L29 20L29 19L27 19L27 18L28 18L28 17L29 17L29 18L32 18L32 19L33 19L33 20L36 20L36 18L34 18L34 19L33 19L33 17L34 17L34 16L35 16L35 17L36 17L36 16L35 16L35 15L36 15L36 14L35 14L35 13L36 13L36 12L35 12L35 10L34 10L34 12L33 12L33 13L29 13L29 12L31 12L31 11L32 11L32 10L31 10L31 11L28 11L28 13L27 13L27 12L26 12L26 10L27 10L27 9L26 9L26 8L24 8L24 10L23 10L23 11L24 11L24 12L26 12L26 14L25 14L25 15L24 15L24 14L23 14L23 13L21 13L21 12L22 12L22 10L21 10L21 9L23 9L23 7L22 7L22 6L21 6L21 8L19 8L19 9L18 9L18 6L19 6L19 7L20 7L20 6L19 6L19 4ZM9 5L9 7L10 7L10 5ZM13 5L13 7L14 7L14 5ZM16 6L16 7L17 7L17 6ZM25 6L25 7L26 7L26 6ZM19 9L19 10L18 10L18 11L17 11L17 12L16 12L16 11L15 11L15 12L16 12L16 13L14 13L14 12L12 12L12 14L13 14L13 15L14 15L14 16L11 16L11 17L14 17L14 16L18 16L18 17L19 17L19 18L22 18L22 19L21 19L21 20L22 20L22 21L21 21L21 22L23 22L23 24L22 24L22 23L21 23L21 26L23 26L23 25L24 25L24 22L23 22L23 21L24 21L24 20L23 20L23 18L24 18L24 19L25 19L25 18L26 18L26 17L28 17L28 16L29 16L29 17L33 17L33 16L34 16L34 15L35 15L35 14L34 14L34 15L33 15L33 14L29 14L29 13L28 13L28 14L26 14L26 16L24 16L24 15L23 15L23 14L22 14L22 15L23 15L23 16L22 16L22 17L21 17L21 16L20 16L20 15L19 15L19 16L18 16L18 14L17 14L17 15L16 15L16 13L17 13L17 12L18 12L18 13L19 13L19 12L20 12L20 11L21 11L21 10L20 10L20 9ZM28 9L28 10L30 10L30 9ZM8 10L8 11L9 11L9 10ZM18 11L18 12L19 12L19 11ZM6 12L6 13L7 13L7 12ZM34 12L34 13L35 13L35 12ZM13 13L13 14L14 14L14 15L15 15L15 14L14 14L14 13ZM9 14L9 15L8 15L8 17L6 17L6 16L7 16L7 15L6 15L6 16L5 16L5 17L6 17L6 18L4 18L4 19L3 19L3 20L2 20L2 21L3 21L3 20L4 20L4 19L6 19L6 20L7 20L7 19L6 19L6 18L8 18L8 19L9 19L9 20L10 20L10 21L12 21L12 20L10 20L10 18L9 18L9 15L10 15L10 14ZM29 15L29 16L30 16L30 15ZM31 15L31 16L33 16L33 15ZM23 16L23 17L22 17L22 18L23 18L23 17L24 17L24 18L25 18L25 17L24 17L24 16ZM25 20L25 21L26 21L26 22L27 22L27 23L26 23L26 24L27 24L27 23L28 23L28 22L30 22L30 21L28 21L28 20L27 20L27 21L26 21L26 20ZM6 21L6 22L7 22L7 23L6 23L6 24L4 24L4 26L5 26L5 25L6 25L6 26L7 26L7 25L6 25L6 24L7 24L7 23L8 23L8 22L7 22L7 21ZM27 21L27 22L28 22L28 21ZM17 22L17 24L19 24L19 22ZM32 22L32 23L33 23L33 22ZM0 23L0 29L1 29L1 25L2 25L2 23ZM12 25L12 26L13 26L13 25ZM34 26L34 28L35 28L35 27L36 27L36 26ZM11 27L11 29L14 29L14 28L12 28L12 27ZM18 27L18 28L17 28L17 29L19 29L19 27ZM31 27L31 28L33 28L33 27ZM22 28L22 29L23 29L23 30L24 30L24 29L23 29L23 28ZM29 29L29 32L32 32L32 29ZM30 30L30 31L31 31L31 30ZM31 33L31 34L32 34L32 36L33 36L33 34L32 34L32 33ZM18 35L18 36L19 36L19 35ZM9 36L9 37L13 37L13 36ZM0 0L0 7L7 7L7 0ZM1 1L1 6L6 6L6 1ZM2 2L2 5L5 5L5 2ZM30 0L30 7L37 7L37 0ZM31 1L31 6L36 6L36 1ZM32 2L32 5L35 5L35 2ZM0 30L0 37L7 37L7 30ZM1 31L1 36L6 36L6 31ZM2 32L2 35L5 35L5 32Z" fill="#000000"/></g></g></svg>
