<?xml version="1.0" encoding="UTF-8"?>
<svg xmlns="http://www.w3.org/2000/svg" version="1.1" width="200" height="200" viewBox="0 0 200 200"><rect x="0" y="0" width="200" height="200" fill="#ffffff"/><g transform="scale(5.405)"><g transform="translate(0,0)"><path fill-rule="evenodd" d="M8 0L8 3L9 3L9 1L12 1L12 3L11 3L11 4L12 4L12 5L10 5L10 4L9 4L9 5L8 5L8 12L6 12L6 11L7 11L7 10L6 10L6 11L4 11L4 10L5 10L5 8L2 8L2 10L0 10L0 12L1 12L1 13L0 13L0 14L2 14L2 15L3 15L3 16L0 16L0 19L2 19L2 20L3 20L3 21L2 21L2 22L1 22L1 20L0 20L0 23L1 23L1 25L0 25L0 29L1 29L1 25L2 25L2 24L3 24L3 25L4 25L4 27L3 27L3 28L4 28L4 29L5 29L5 27L7 27L7 28L6 28L6 29L8 29L8 30L9 30L9 31L10 31L10 32L8 32L8 35L9 35L9 34L10 34L10 35L11 35L11 36L9 36L9 37L11 37L11 36L12 36L12 34L13 34L13 35L15 35L15 36L14 36L14 37L15 37L15 36L17 36L17 37L28 37L28 36L29 36L29 35L30 35L30 37L37 37L37 34L36 34L36 36L34 36L34 34L33 34L33 33L35 33L35 32L36 32L36 33L37 33L37 30L35 30L35 32L33 32L33 28L34 28L34 29L35 29L35 28L36 28L36 29L37 29L37 28L36 28L36 27L37 27L37 26L36 26L36 25L37 25L37 22L36 22L36 21L37 21L37 18L36 18L36 17L37 17L37 14L34 14L34 15L33 15L33 14L32 14L32 15L33 15L33 16L31 16L31 14L30 14L30 13L37 13L37 10L36 10L36 9L37 9L37 8L34 8L34 9L32 9L32 8L29 8L29 6L28 6L28 5L27 5L27 4L29 4L29 3L27 3L27 2L29 2L29 1L26 1L26 3L25 3L25 1L22 1L22 0L20 0L20 1L19 1L19 0ZM13 1L13 2L14 2L14 1ZM16 2L16 3L13 3L13 5L12 5L12 6L11 6L11 7L10 7L10 5L9 5L9 7L10 7L10 9L9 9L9 10L11 10L11 11L10 11L10 12L9 12L9 13L6 13L6 12L5 12L5 13L4 13L4 11L3 11L3 10L4 10L4 9L3 9L3 10L2 10L2 11L3 11L3 12L2 12L2 13L4 13L4 14L8 14L8 15L6 15L6 16L7 16L7 17L6 17L6 18L5 18L5 19L6 19L6 20L7 20L7 21L5 21L5 23L4 23L4 21L3 21L3 22L2 22L2 23L3 23L3 24L4 24L4 25L5 25L5 26L7 26L7 25L10 25L10 26L8 26L8 27L10 27L10 29L9 29L9 30L10 30L10 31L11 31L11 34L12 34L12 33L13 33L13 32L16 32L16 31L17 31L17 30L15 30L15 28L14 28L14 27L16 27L16 26L19 26L19 29L18 29L18 32L17 32L17 33L15 33L15 35L17 35L17 36L21 36L21 35L20 35L20 34L19 34L19 35L18 35L18 34L17 34L17 33L18 33L18 32L19 32L19 33L20 33L20 32L21 32L21 31L23 31L23 33L21 33L21 34L22 34L22 35L23 35L23 34L25 34L25 35L24 35L24 36L28 36L28 35L29 35L29 34L30 34L30 35L32 35L32 36L33 36L33 34L30 34L30 33L28 33L28 34L27 34L27 35L26 35L26 33L27 33L27 32L28 32L28 30L27 30L27 29L28 29L28 27L29 27L29 28L31 28L31 27L32 27L32 28L33 28L33 26L35 26L35 27L34 27L34 28L35 28L35 27L36 27L36 26L35 26L35 25L33 25L33 22L34 22L34 24L36 24L36 22L35 22L35 21L32 21L32 20L31 20L31 19L29 19L29 17L30 17L30 18L32 18L32 19L33 19L33 20L36 20L36 18L35 18L35 17L36 17L36 16L35 16L35 15L34 15L34 16L33 16L33 17L30 17L30 15L28 15L28 16L29 16L29 17L25 17L25 18L24 18L24 16L22 16L22 14L23 14L23 13L24 13L24 14L25 14L25 16L26 16L26 14L29 14L29 13L30 13L30 12L29 12L29 11L28 11L28 12L29 12L29 13L27 13L27 11L25 11L25 10L27 10L27 9L26 9L26 8L28 8L28 6L27 6L27 7L26 7L26 6L25 6L25 7L24 7L24 5L25 5L25 3L24 3L24 5L23 5L23 7L22 7L22 6L21 6L21 7L20 7L20 5L19 5L19 4L20 4L20 2L19 2L19 4L16 4L16 3L18 3L18 2ZM21 2L21 3L22 3L22 4L23 4L23 3L22 3L22 2ZM26 3L26 4L27 4L27 3ZM14 4L14 5L15 5L15 4ZM16 5L16 7L15 7L15 6L14 6L14 7L13 7L13 6L12 6L12 7L11 7L11 10L12 10L12 11L11 11L11 13L12 13L12 14L10 14L10 13L9 13L9 14L10 14L10 15L9 15L9 16L8 16L8 17L10 17L10 15L11 15L11 16L12 16L12 14L13 14L13 16L14 16L14 18L13 18L13 17L12 17L12 18L13 18L13 19L14 19L14 22L13 22L13 24L12 24L12 23L11 23L11 22L10 22L10 21L9 21L9 19L8 19L8 18L6 18L6 19L7 19L7 20L8 20L8 21L7 21L7 22L6 22L6 23L5 23L5 24L6 24L6 25L7 25L7 24L6 24L6 23L8 23L8 24L11 24L11 25L12 25L12 26L10 26L10 27L11 27L11 28L12 28L12 31L15 31L15 30L14 30L14 29L13 29L13 25L14 25L14 26L16 26L16 25L15 25L15 24L16 24L16 23L18 23L18 22L20 22L20 23L19 23L19 24L18 24L18 25L19 25L19 24L20 24L20 25L21 25L21 24L20 24L20 23L21 23L21 22L22 22L22 26L23 26L23 25L24 25L24 26L26 26L26 28L25 28L25 27L24 27L24 28L25 28L25 29L21 29L21 28L23 28L23 27L21 27L21 26L20 26L20 30L24 30L24 31L26 31L26 30L25 30L25 29L27 29L27 26L30 26L30 27L31 27L31 24L32 24L32 21L31 21L31 20L29 20L29 21L28 21L28 22L27 22L27 23L26 23L26 24L27 24L27 25L24 25L24 24L25 24L25 23L24 23L24 24L23 24L23 22L25 22L25 21L27 21L27 20L28 20L28 18L26 18L26 19L27 19L27 20L25 20L25 21L24 21L24 19L23 19L23 17L21 17L21 16L19 16L19 14L18 14L18 17L17 17L17 16L16 16L16 17L15 17L15 15L17 15L17 12L20 12L20 15L21 15L21 13L22 13L22 12L23 12L23 11L24 11L24 10L23 10L23 11L22 11L22 12L20 12L20 11L21 11L21 10L22 10L22 7L21 7L21 8L20 8L20 7L19 7L19 5L18 5L18 7L17 7L17 5ZM12 7L12 9L13 9L13 11L12 11L12 12L14 12L14 13L13 13L13 14L15 14L15 12L14 12L14 11L16 11L16 12L17 12L17 11L18 11L18 10L20 10L20 8L19 8L19 7L18 7L18 8L19 8L19 9L18 9L18 10L17 10L17 9L16 9L16 8L17 8L17 7L16 7L16 8L15 8L15 9L16 9L16 10L14 10L14 8L13 8L13 7ZM23 7L23 8L24 8L24 7ZM25 7L25 8L26 8L26 7ZM6 8L6 9L7 9L7 8ZM28 9L28 10L30 10L30 9ZM34 9L34 10L33 10L33 12L35 12L35 11L36 11L36 10L35 10L35 9ZM16 10L16 11L17 11L17 10ZM31 10L31 11L32 11L32 10ZM34 10L34 11L35 11L35 10ZM25 12L25 14L26 14L26 12ZM3 16L3 17L2 17L2 18L3 18L3 19L4 19L4 18L3 18L3 17L4 17L4 16ZM34 16L34 17L35 17L35 16ZM18 17L18 18L16 18L16 19L15 19L15 22L14 22L14 24L15 24L15 22L16 22L16 19L17 19L17 22L18 22L18 18L21 18L21 19L20 19L20 21L22 21L22 22L23 22L23 21L22 21L22 20L21 20L21 19L22 19L22 18L21 18L21 17ZM10 18L10 19L11 19L11 21L13 21L13 20L12 20L12 19L11 19L11 18ZM33 18L33 19L35 19L35 18ZM29 21L29 22L28 22L28 25L30 25L30 24L29 24L29 23L30 23L30 22L31 22L31 21ZM8 22L8 23L10 23L10 22ZM16 28L16 29L17 29L17 28ZM29 29L29 32L32 32L32 29ZM30 30L30 31L31 31L31 30ZM24 32L24 33L26 33L26 32ZM0 0L0 7L7 7L7 0ZM1 1L1 6L6 6L6 1ZM2 2L2 5L5 5L5 2ZM30 0L30 7L37 7L37 0ZM31 1L31 6L36 6L36 1ZM32 2L32 5L35 5L35 2ZM0 30L0 37L7 37L7 30ZM1 31L1 36L6 36L6 31ZM2 32L2 35L5 35L5 32Z" fill="#000000"/></g></g></svg>
