<?xml version="1.0" encoding="UTF-8"?>
<svg xmlns="http://www.w3.org/2000/svg" version="1.1" width="200" height="200" viewBox="0 0 200 200"><rect x="0" y="0" width="200" height="200" fill="#ffffff"/><g transform="scale(5.405)"><g transform="translate(0,0)"><path fill-rule="evenodd" d="M8 0L8 3L9 3L9 2L10 2L10 3L11 3L11 2L10 2L10 1L11 1L11 0ZM12 0L12 2L13 2L13 3L12 3L12 5L11 5L11 4L9 4L9 5L8 5L8 9L9 9L9 5L10 5L10 7L11 7L11 6L12 6L12 7L13 7L13 9L12 9L12 8L10 8L10 9L11 9L11 10L10 10L10 12L11 12L11 13L13 13L13 9L14 9L14 8L15 8L15 6L14 6L14 7L13 7L13 5L14 5L14 4L15 4L15 5L17 5L17 6L16 6L16 7L17 7L17 10L18 10L18 11L19 11L19 12L18 12L18 14L21 14L21 15L22 15L22 16L23 16L23 17L22 17L22 18L21 18L21 17L20 17L20 16L19 16L19 15L18 15L18 16L17 16L17 13L16 13L16 16L12 16L12 15L11 15L11 14L10 14L10 13L9 13L9 12L8 12L8 11L9 11L9 10L4 10L4 9L5 9L5 8L2 8L2 9L1 9L1 10L0 10L0 12L1 12L1 10L2 10L2 13L3 13L3 14L2 14L2 16L3 16L3 17L0 17L0 18L1 18L1 20L2 20L2 18L4 18L4 17L5 17L5 19L4 19L4 21L3 21L3 22L1 22L1 23L0 23L0 24L1 24L1 25L0 25L0 29L1 29L1 25L2 25L2 26L3 26L3 27L2 27L2 28L4 28L4 27L5 27L5 28L6 28L6 29L8 29L8 30L9 30L9 32L8 32L8 35L9 35L9 36L10 36L10 35L11 35L11 37L12 37L12 35L13 35L13 37L14 37L14 35L15 35L15 32L16 32L16 34L19 34L19 33L21 33L21 34L22 34L22 35L17 35L17 37L18 37L18 36L20 36L20 37L24 37L24 35L25 35L25 34L23 34L23 32L24 32L24 33L26 33L26 34L27 34L27 33L30 33L30 34L29 34L29 35L26 35L26 36L25 36L25 37L26 37L26 36L29 36L29 37L37 37L37 34L36 34L36 36L34 36L34 35L33 35L33 36L32 36L32 34L34 34L34 33L37 33L37 30L36 30L36 29L37 29L37 28L36 28L36 27L37 27L37 26L35 26L35 28L31 28L31 27L32 27L32 26L31 26L31 22L30 22L30 23L29 23L29 21L37 21L37 18L36 18L36 17L37 17L37 16L36 16L36 17L35 17L35 16L34 16L34 15L35 15L35 14L36 14L36 15L37 15L37 14L36 14L36 13L37 13L37 10L34 10L34 9L37 9L37 8L34 8L34 9L32 9L32 8L26 8L26 7L27 7L27 6L28 6L28 7L29 7L29 5L27 5L27 4L29 4L29 1L27 1L27 2L26 2L26 1L25 1L25 0L24 0L24 1L20 1L20 0L16 0L16 1L17 1L17 2L18 2L18 3L19 3L19 2L21 2L21 3L20 3L20 5L19 5L19 4L17 4L17 3L16 3L16 4L15 4L15 3L14 3L14 1L15 1L15 0L14 0L14 1L13 1L13 0ZM22 2L22 3L21 3L21 4L22 4L22 5L23 5L23 2ZM24 2L24 3L26 3L26 4L27 4L27 3L26 3L26 2ZM13 3L13 4L14 4L14 3ZM18 5L18 6L17 6L17 7L18 7L18 6L19 6L19 7L20 7L20 8L21 8L21 9L23 9L23 8L21 8L21 7L22 7L22 6L21 6L21 7L20 7L20 6L19 6L19 5ZM24 5L24 6L23 6L23 7L24 7L24 6L25 6L25 7L26 7L26 6L25 6L25 5ZM6 8L6 9L7 9L7 8ZM18 8L18 9L19 9L19 10L20 10L20 9L19 9L19 8ZM25 8L25 9L24 9L24 10L23 10L23 12L22 12L22 13L21 13L21 14L22 14L22 13L24 13L24 14L23 14L23 16L24 16L24 17L25 17L25 18L22 18L22 19L23 19L23 20L24 20L24 19L25 19L25 20L26 20L26 19L27 19L27 20L28 20L28 21L25 21L25 22L20 22L20 21L21 21L21 19L20 19L20 17L19 17L19 16L18 16L18 17L19 17L19 18L18 18L18 20L17 20L17 18L16 18L16 17L15 17L15 18L14 18L14 17L11 17L11 19L10 19L10 17L9 17L9 16L11 16L11 15L9 15L9 16L8 16L8 17L6 17L6 16L7 16L7 15L8 15L8 14L9 14L9 13L8 13L8 14L7 14L7 13L6 13L6 12L7 12L7 11L6 11L6 12L5 12L5 13L4 13L4 12L3 12L3 13L4 13L4 15L3 15L3 16L4 16L4 15L5 15L5 13L6 13L6 14L7 14L7 15L6 15L6 16L5 16L5 17L6 17L6 18L8 18L8 20L7 20L7 19L5 19L5 20L7 20L7 21L5 21L5 24L4 24L4 26L8 26L8 25L6 25L6 24L9 24L9 25L11 25L11 26L10 26L10 27L8 27L8 29L9 29L9 30L10 30L10 32L9 32L9 35L10 35L10 34L11 34L11 30L12 30L12 31L14 31L14 32L15 32L15 31L14 31L14 30L12 30L12 29L13 29L13 28L15 28L15 29L16 29L16 32L17 32L17 29L19 29L19 27L20 27L20 28L22 28L22 29L25 29L25 28L26 28L26 29L28 29L28 27L29 27L29 28L30 28L30 27L31 27L31 26L27 26L27 28L26 28L26 26L24 26L24 25L27 25L27 24L28 24L28 25L30 25L30 24L29 24L29 23L27 23L27 22L28 22L28 21L29 21L29 20L30 20L30 19L27 19L27 18L29 18L29 17L30 17L30 18L32 18L32 19L33 19L33 20L36 20L36 18L35 18L35 17L34 17L34 16L33 16L33 15L34 15L34 14L35 14L35 13L34 13L34 12L36 12L36 11L34 11L34 10L33 10L33 11L34 11L34 12L33 12L33 13L32 13L32 12L31 12L31 13L30 13L30 12L29 12L29 11L28 11L28 12L29 12L29 13L27 13L27 9L26 9L26 8ZM15 9L15 12L17 12L17 11L16 11L16 9ZM25 9L25 10L26 10L26 9ZM28 9L28 10L30 10L30 9ZM3 10L3 11L4 11L4 10ZM11 10L11 12L12 12L12 10ZM21 10L21 11L20 11L20 12L19 12L19 13L20 13L20 12L21 12L21 11L22 11L22 10ZM31 10L31 11L32 11L32 10ZM24 12L24 13L25 13L25 14L26 14L26 16L25 16L25 15L24 15L24 16L25 16L25 17L26 17L26 18L25 18L25 19L26 19L26 18L27 18L27 17L29 17L29 16L28 16L28 15L30 15L30 17L33 17L33 16L32 16L32 15L31 15L31 14L32 14L32 13L31 13L31 14L30 14L30 13L29 13L29 14L26 14L26 12ZM14 13L14 15L15 15L15 13ZM0 14L0 16L1 16L1 14ZM26 16L26 17L27 17L27 16ZM8 17L8 18L9 18L9 17ZM12 18L12 20L10 20L10 19L9 19L9 20L10 20L10 21L9 21L9 22L8 22L8 21L7 21L7 22L6 22L6 23L9 23L9 24L10 24L10 22L11 22L11 23L14 23L14 25L16 25L16 26L15 26L15 27L16 27L16 28L17 28L17 24L19 24L19 23L20 23L20 22L19 22L19 23L18 23L18 21L17 21L17 20L16 20L16 18L15 18L15 19L13 19L13 18ZM33 18L33 19L35 19L35 18ZM19 19L19 21L20 21L20 19ZM12 20L12 21L13 21L13 22L14 22L14 23L15 23L15 22L16 22L16 24L17 24L17 22L16 22L16 20L15 20L15 21L13 21L13 20ZM3 22L3 23L4 23L4 22ZM35 22L35 24L34 24L34 23L33 23L33 25L35 25L35 24L36 24L36 25L37 25L37 22ZM1 23L1 24L2 24L2 25L3 25L3 24L2 24L2 23ZM21 23L21 25L23 25L23 24L24 24L24 23ZM26 23L26 24L27 24L27 23ZM11 24L11 25L13 25L13 24ZM18 25L18 27L19 27L19 25ZM11 26L11 27L12 27L12 28L13 28L13 26ZM20 26L20 27L21 27L21 26ZM22 26L22 28L23 28L23 26ZM33 26L33 27L34 27L34 26ZM6 27L6 28L7 28L7 27ZM24 27L24 28L25 28L25 27ZM9 28L9 29L10 29L10 28ZM35 28L35 29L36 29L36 28ZM29 29L29 32L32 32L32 29ZM22 30L22 31L21 31L21 32L23 32L23 31L24 31L24 32L26 32L26 33L27 33L27 32L28 32L28 30ZM30 30L30 31L31 31L31 30ZM34 30L34 32L33 32L33 33L34 33L34 32L35 32L35 31L36 31L36 30ZM18 31L18 32L20 32L20 31ZM31 33L31 34L30 34L30 35L29 35L29 36L31 36L31 34L32 34L32 33ZM15 36L15 37L16 37L16 36ZM0 0L0 7L7 7L7 0ZM1 1L1 6L6 6L6 1ZM2 2L2 5L5 5L5 2ZM30 0L30 7L37 7L37 0ZM31 1L31 6L36 6L36 1ZM32 2L32 5L35 5L35 2ZM0 30L0 37L7 37L7 30ZM1 31L1 36L6 36L6 31ZM2 32L2 35L5 35L5 32Z" fill="#000000"/></g></g></svg>
