<?xml version="1.0" encoding="UTF-8"?>
<svg xmlns="http://www.w3.org/2000/svg" version="1.1" width="200" height="200" viewBox="0 0 200 200"><rect x="0" y="0" width="200" height="200" fill="#ffffff"/><g transform="scale(5.405)"><g transform="translate(0,0)"><path fill-rule="evenodd" d="M8 0L8 1L9 1L9 0ZM10 0L10 1L12 1L12 5L13 5L13 2L14 2L14 0L13 0L13 1L12 1L12 0ZM18 0L18 1L17 1L17 2L15 2L15 3L14 3L14 4L15 4L15 5L14 5L14 7L13 7L13 6L12 6L12 7L13 7L13 10L12 10L12 9L11 9L11 8L9 8L9 6L10 6L10 7L11 7L11 6L10 6L10 5L9 5L9 4L10 4L10 3L9 3L9 2L8 2L8 3L9 3L9 4L8 4L8 5L9 5L9 6L8 6L8 8L9 8L9 9L8 9L8 10L11 10L11 11L10 11L10 12L9 12L9 11L8 11L8 12L9 12L9 13L8 13L8 14L5 14L5 13L4 13L4 14L3 14L3 12L2 12L2 13L1 13L1 14L0 14L0 15L1 15L1 16L0 16L0 17L1 17L1 19L0 19L0 22L1 22L1 24L0 24L0 29L1 29L1 25L2 25L2 26L3 26L3 27L2 27L2 28L3 28L3 29L4 29L4 28L6 28L6 29L7 29L7 28L9 28L9 27L8 27L8 26L6 26L6 25L8 25L8 24L10 24L10 23L11 23L11 24L12 24L12 25L9 25L9 26L11 26L11 27L10 27L10 29L8 29L8 30L9 30L9 31L8 31L8 32L9 32L9 33L11 33L11 35L10 35L10 34L9 34L9 35L10 35L10 36L11 36L11 35L12 35L12 37L14 37L14 35L16 35L16 34L17 34L17 35L18 35L18 36L15 36L15 37L18 37L18 36L21 36L21 35L20 35L20 34L19 34L19 35L18 35L18 34L17 34L17 33L16 33L16 32L19 32L19 33L21 33L21 34L22 34L22 35L23 35L23 36L22 36L22 37L23 37L23 36L24 36L24 35L27 35L27 36L26 36L26 37L29 37L29 35L27 35L27 34L32 34L32 33L33 33L33 35L35 35L35 33L37 33L37 32L34 32L34 33L33 33L33 30L34 30L34 31L37 31L37 30L36 30L36 29L37 29L37 28L36 28L36 27L37 27L37 26L36 26L36 25L37 25L37 22L36 22L36 21L37 21L37 18L36 18L36 17L37 17L37 14L36 14L36 13L37 13L37 12L36 12L36 11L37 11L37 10L35 10L35 8L34 8L34 9L33 9L33 8L32 8L32 9L31 9L31 8L30 8L30 10L29 10L29 8L28 8L28 7L29 7L29 5L28 5L28 7L27 7L27 4L28 4L28 2L27 2L27 3L24 3L24 4L23 4L23 5L24 5L24 4L25 4L25 6L24 6L24 7L25 7L25 8L24 8L24 9L25 9L25 8L26 8L26 10L27 10L27 11L26 11L26 13L24 13L24 14L26 14L26 15L28 15L28 16L27 16L27 17L26 17L26 16L24 16L24 17L26 17L26 18L27 18L27 19L28 19L28 20L24 20L24 19L23 19L23 15L22 15L22 14L21 14L21 12L25 12L25 10L24 10L24 11L22 11L22 10L23 10L23 6L22 6L22 4L21 4L21 2L26 2L26 1L27 1L27 0L24 0L24 1L22 1L22 0L21 0L21 2L20 2L20 1L19 1L19 0ZM28 0L28 1L29 1L29 0ZM19 2L19 3L18 3L18 4L19 4L19 5L18 5L18 6L17 6L17 7L18 7L18 8L16 8L16 6L15 6L15 7L14 7L14 9L15 9L15 10L13 10L13 11L11 11L11 12L10 12L10 14L8 14L8 15L6 15L6 16L5 16L5 14L4 14L4 15L3 15L3 16L2 16L2 17L4 17L4 18L3 18L3 21L4 21L4 20L5 20L5 19L6 19L6 20L7 20L7 19L6 19L6 18L8 18L8 22L9 22L9 19L10 19L10 20L11 20L11 21L12 21L12 22L14 22L14 23L13 23L13 24L14 24L14 25L15 25L15 26L19 26L19 29L21 29L21 28L22 28L22 30L23 30L23 29L24 29L24 32L22 32L22 34L27 34L27 32L28 32L28 30L27 30L27 31L25 31L25 29L24 29L24 27L25 27L25 28L26 28L26 29L28 29L28 28L32 28L32 26L33 26L33 25L31 25L31 27L29 27L29 26L28 26L28 25L27 25L27 27L26 27L26 26L24 26L24 25L25 25L25 24L26 24L26 23L27 23L27 22L26 22L26 21L23 21L23 19L21 19L21 18L19 18L19 19L18 19L18 20L17 20L17 19L16 19L16 18L18 18L18 17L19 17L19 15L20 15L20 17L22 17L22 15L21 15L21 14L19 14L19 11L20 11L20 9L21 9L21 8L22 8L22 6L21 6L21 5L20 5L20 4L19 4L19 3L20 3L20 2ZM16 3L16 5L17 5L17 3ZM19 5L19 6L18 6L18 7L19 7L19 8L21 8L21 6L20 6L20 5ZM19 6L19 7L20 7L20 6ZM25 6L25 7L26 7L26 8L27 8L27 7L26 7L26 6ZM5 8L5 9L4 9L4 10L3 10L3 11L4 11L4 10L5 10L5 12L6 12L6 13L7 13L7 12L6 12L6 11L7 11L7 10L6 10L6 9L7 9L7 8ZM36 8L36 9L37 9L37 8ZM0 9L0 10L1 10L1 11L2 11L2 9ZM16 9L16 10L15 10L15 12L13 12L13 13L12 13L12 14L13 14L13 16L12 16L12 15L11 15L11 14L10 14L10 15L9 15L9 17L10 17L10 15L11 15L11 16L12 16L12 17L13 17L13 18L14 18L14 19L13 19L13 20L12 20L12 19L11 19L11 18L10 18L10 19L11 19L11 20L12 20L12 21L13 21L13 20L14 20L14 22L15 22L15 18L16 18L16 17L15 17L15 15L17 15L17 14L15 14L15 15L14 15L14 13L16 13L16 11L18 11L18 10L19 10L19 9ZM27 9L27 10L28 10L28 9ZM32 9L32 10L31 10L31 11L32 11L32 10L33 10L33 9ZM34 10L34 13L33 13L33 12L31 12L31 13L30 13L30 12L29 12L29 11L27 11L27 12L29 12L29 14L32 14L32 15L31 15L31 16L33 16L33 17L28 17L28 19L29 19L29 18L31 18L31 19L32 19L32 18L34 18L34 15L35 15L35 16L36 16L36 14L34 14L34 13L35 13L35 10ZM17 12L17 13L18 13L18 12ZM26 13L26 14L27 14L27 13ZM18 14L18 15L19 15L19 14ZM33 14L33 15L34 15L34 14ZM29 15L29 16L30 16L30 15ZM6 16L6 17L5 17L5 18L6 18L6 17L8 17L8 16ZM13 16L13 17L14 17L14 18L15 18L15 17L14 17L14 16ZM17 16L17 17L18 17L18 16ZM19 19L19 20L18 20L18 21L16 21L16 22L17 22L17 25L19 25L19 26L20 26L20 25L22 25L22 26L21 26L21 27L22 27L22 26L23 26L23 25L24 25L24 24L25 24L25 23L23 23L23 21L22 21L22 20L21 20L21 19ZM33 19L33 21L34 21L34 20L36 20L36 19ZM19 20L19 21L20 21L20 22L21 22L21 21L20 21L20 20ZM28 20L28 24L29 24L29 23L30 23L30 22L32 22L32 21L29 21L29 20ZM5 21L5 22L2 22L2 23L3 23L3 24L2 24L2 25L3 25L3 24L5 24L5 25L4 25L4 26L5 26L5 27L6 27L6 28L7 28L7 27L6 27L6 26L5 26L5 25L6 25L6 24L7 24L7 23L6 23L6 22L7 22L7 21ZM18 22L18 24L19 24L19 25L20 25L20 24L21 24L21 23L19 23L19 22ZM33 22L33 23L32 23L32 24L34 24L34 27L33 27L33 29L34 29L34 30L35 30L35 29L34 29L34 27L36 27L36 26L35 26L35 25L36 25L36 22ZM5 23L5 24L6 24L6 23ZM15 23L15 25L16 25L16 23ZM12 25L12 26L13 26L13 25ZM14 27L14 28L12 28L12 29L10 29L10 30L12 30L12 31L13 31L13 33L12 33L12 32L11 32L11 31L10 31L10 32L11 32L11 33L12 33L12 35L13 35L13 34L14 34L14 32L16 32L16 31L14 31L14 30L15 30L15 28L17 28L17 29L18 29L18 27ZM27 27L27 28L28 28L28 27ZM13 29L13 30L14 30L14 29ZM29 29L29 32L32 32L32 29ZM17 30L17 31L18 31L18 30ZM30 30L30 31L31 31L31 30ZM19 31L19 32L21 32L21 31ZM24 32L24 33L26 33L26 32ZM15 33L15 34L16 34L16 33ZM36 34L36 37L37 37L37 34ZM30 35L30 37L31 37L31 36L32 36L32 35ZM33 36L33 37L34 37L34 36ZM0 0L0 7L7 7L7 0ZM1 1L1 6L6 6L6 1ZM2 2L2 5L5 5L5 2ZM30 0L30 7L37 7L37 0ZM31 1L31 6L36 6L36 1ZM32 2L32 5L35 5L35 2ZM0 30L0 37L7 37L7 30ZM1 31L1 36L6 36L6 31ZM2 32L2 35L5 35L5 32Z" fill="#000000"/></g></g></svg>
