<?xml version="1.0" encoding="UTF-8"?>
<svg xmlns="http://www.w3.org/2000/svg" version="1.1" width="200" height="200" viewBox="0 0 200 200"><rect x="0" y="0" width="200" height="200" fill="#ffffff"/><g transform="scale(5.405)"><g transform="translate(0,0)"><path fill-rule="evenodd" d="M9 0L9 2L8 2L8 4L10 4L10 5L9 5L9 6L8 6L8 7L9 7L9 9L8 9L8 8L6 8L6 9L8 9L8 10L5 10L5 8L3 8L3 9L4 9L4 10L5 10L5 11L8 11L8 10L9 10L9 11L10 11L10 12L9 12L9 13L8 13L8 14L6 14L6 15L4 15L4 13L5 13L5 12L4 12L4 11L3 11L3 10L2 10L2 11L0 11L0 12L2 12L2 13L3 13L3 16L2 16L2 19L0 19L0 24L1 24L1 25L0 25L0 29L1 29L1 27L4 27L4 26L6 26L6 27L5 27L5 28L2 28L2 29L7 29L7 28L10 28L10 29L8 29L8 31L9 31L9 30L10 30L10 29L12 29L12 31L13 31L13 29L14 29L14 28L12 28L12 27L14 27L14 25L13 25L13 26L12 26L12 25L11 25L11 24L13 24L13 23L14 23L14 24L15 24L15 23L16 23L16 25L17 25L17 26L16 26L16 27L17 27L17 28L16 28L16 30L14 30L14 32L11 32L11 31L10 31L10 33L9 33L9 32L8 32L8 34L9 34L9 35L10 35L10 33L11 33L11 36L10 36L10 37L11 37L11 36L12 36L12 37L14 37L14 36L13 36L13 35L14 35L14 33L16 33L16 34L15 34L15 37L16 37L16 35L17 35L17 36L18 36L18 37L21 37L21 36L22 36L22 37L23 37L23 35L22 35L22 34L23 34L23 33L22 33L22 32L24 32L24 33L25 33L25 34L24 34L24 35L25 35L25 34L26 34L26 36L27 36L27 37L29 37L29 36L28 36L28 34L29 34L29 33L30 33L30 34L31 34L31 35L30 35L30 37L31 37L31 36L32 36L32 35L34 35L34 36L33 36L33 37L34 37L34 36L36 36L36 37L37 37L37 34L35 34L35 33L34 33L34 34L31 34L31 33L33 33L33 29L34 29L34 31L35 31L35 32L36 32L36 33L37 33L37 32L36 32L36 31L37 31L37 30L36 30L36 29L37 29L37 28L36 28L36 27L37 27L37 26L36 26L36 25L37 25L37 24L36 24L36 25L35 25L35 26L34 26L34 27L31 27L31 26L33 26L33 25L34 25L34 24L35 24L35 23L34 23L34 22L35 22L35 21L37 21L37 18L35 18L35 17L37 17L37 16L35 16L35 15L37 15L37 14L35 14L35 13L36 13L36 12L37 12L37 10L36 10L36 9L35 9L35 8L33 8L33 10L35 10L35 11L34 11L34 12L35 12L35 13L34 13L34 14L33 14L33 13L31 13L31 12L33 12L33 11L31 11L31 10L32 10L32 9L30 9L30 11L29 11L29 9L28 9L28 8L29 8L29 5L28 5L28 7L27 7L27 4L26 4L26 3L28 3L28 2L27 2L27 0L25 0L25 1L26 1L26 2L23 2L23 1L21 1L21 0L19 0L19 1L18 1L18 0L17 0L17 1L16 1L16 0L14 0L14 1L13 1L13 2L14 2L14 3L12 3L12 2L11 2L11 3L12 3L12 5L11 5L11 4L10 4L10 3L9 3L9 2L10 2L10 0ZM28 0L28 1L29 1L29 0ZM15 1L15 2L16 2L16 1ZM17 1L17 4L19 4L19 5L18 5L18 6L17 6L17 7L18 7L18 8L19 8L19 7L20 7L20 6L21 6L21 7L22 7L22 8L23 8L23 9L22 9L22 10L21 10L21 8L20 8L20 10L19 10L19 9L17 9L17 8L16 8L16 6L15 6L15 7L14 7L14 5L16 5L16 4L15 4L15 3L14 3L14 4L13 4L13 7L12 7L12 6L11 6L11 5L10 5L10 6L9 6L9 7L10 7L10 10L11 10L11 11L12 11L12 12L10 12L10 13L9 13L9 14L8 14L8 15L9 15L9 18L11 18L11 19L10 19L10 20L9 20L9 21L8 21L8 19L5 19L5 18L8 18L8 16L7 16L7 15L6 15L6 16L7 16L7 17L5 17L5 18L4 18L4 19L5 19L5 21L4 21L4 22L3 22L3 23L2 23L2 21L1 21L1 24L3 24L3 25L2 25L2 26L4 26L4 24L7 24L7 25L6 25L6 26L7 26L7 27L6 27L6 28L7 28L7 27L12 27L12 26L10 26L10 25L9 25L9 23L10 23L10 24L11 24L11 23L10 23L10 22L12 22L12 23L13 23L13 22L17 22L17 20L14 20L14 19L12 19L12 18L15 18L15 19L16 19L16 18L17 18L17 19L18 19L18 20L19 20L19 23L21 23L21 22L22 22L22 23L23 23L23 27L22 27L22 26L21 26L21 28L22 28L22 29L19 29L19 28L20 28L20 27L18 27L18 28L17 28L17 31L15 31L15 32L16 32L16 33L17 33L17 32L18 32L18 31L19 31L19 30L24 30L24 29L25 29L25 28L27 28L27 29L28 29L28 28L29 28L29 27L30 27L30 26L29 26L29 27L28 27L28 25L25 25L25 24L26 24L26 22L27 22L27 20L28 20L28 21L30 21L30 22L31 22L31 23L32 23L32 24L34 24L34 23L32 23L32 22L31 22L31 21L30 21L30 20L33 20L33 19L32 19L32 18L33 18L33 16L32 16L32 14L31 14L31 13L30 13L30 12L28 12L28 11L27 11L27 10L28 10L28 9L27 9L27 10L26 10L26 9L24 9L24 6L23 6L23 5L24 5L24 3L23 3L23 5L20 5L20 4L21 4L21 3L20 3L20 4L19 4L19 3L18 3L18 1ZM20 1L20 2L21 2L21 1ZM19 5L19 6L18 6L18 7L19 7L19 6L20 6L20 5ZM10 6L10 7L11 7L11 6ZM22 6L22 7L23 7L23 6ZM25 6L25 8L26 8L26 6ZM12 8L12 9L11 9L11 10L12 10L12 11L13 11L13 13L14 13L14 11L13 11L13 10L15 10L15 11L16 11L16 12L17 12L17 13L15 13L15 14L13 14L13 16L12 16L12 15L11 15L11 14L9 14L9 15L11 15L11 17L13 17L13 16L15 16L15 15L16 15L16 14L17 14L17 13L18 13L18 14L21 14L21 11L18 11L18 10L17 10L17 9L16 9L16 10L15 10L15 9L13 9L13 8ZM16 10L16 11L17 11L17 10ZM22 10L22 13L23 13L23 14L22 14L22 15L21 15L21 16L20 16L20 15L18 15L18 16L16 16L16 17L17 17L17 18L19 18L19 19L21 19L21 20L20 20L20 21L21 21L21 20L22 20L22 21L23 21L23 23L24 23L24 24L25 24L25 23L24 23L24 20L27 20L27 19L28 19L28 20L29 20L29 18L28 18L28 17L27 17L27 16L25 16L25 15L28 15L28 16L29 16L29 17L32 17L32 16L31 16L31 14L28 14L28 12L26 12L26 14L25 14L25 13L23 13L23 11L24 11L24 12L25 12L25 10ZM2 11L2 12L3 12L3 13L4 13L4 12L3 12L3 11ZM6 12L6 13L7 13L7 12ZM1 14L1 15L0 15L0 18L1 18L1 15L2 15L2 14ZM24 14L24 15L25 15L25 14ZM29 15L29 16L30 16L30 15ZM19 16L19 18L22 18L22 20L24 20L24 19L27 19L27 18L26 18L26 17L25 17L25 16L24 16L24 19L23 19L23 16L22 16L22 17L20 17L20 16ZM30 18L30 19L31 19L31 18ZM34 18L34 21L35 21L35 20L36 20L36 19L35 19L35 18ZM6 20L6 21L5 21L5 22L4 22L4 23L5 23L5 22L6 22L6 23L7 23L7 24L8 24L8 23L9 23L9 22L10 22L10 21L9 21L9 22L8 22L8 21L7 21L7 20ZM11 20L11 21L12 21L12 20ZM13 20L13 21L14 21L14 20ZM6 21L6 22L7 22L7 23L8 23L8 22L7 22L7 21ZM36 22L36 23L37 23L37 22ZM17 23L17 25L22 25L22 24L18 24L18 23ZM27 23L27 24L28 24L28 23ZM29 23L29 24L30 24L30 23ZM7 25L7 26L9 26L9 25ZM24 25L24 26L25 26L25 27L24 27L24 28L23 28L23 29L24 29L24 28L25 28L25 27L27 27L27 28L28 28L28 27L27 27L27 26L25 26L25 25ZM35 26L35 27L36 27L36 26ZM29 29L29 32L32 32L32 29ZM27 30L27 31L26 31L26 32L25 32L25 31L24 31L24 32L25 32L25 33L26 33L26 34L27 34L27 32L28 32L28 30ZM30 30L30 31L31 31L31 30ZM35 30L35 31L36 31L36 30ZM20 31L20 33L18 33L18 34L17 34L17 35L19 35L19 36L21 36L21 35L20 35L20 34L22 34L22 33L21 33L21 32L22 32L22 31ZM24 36L24 37L25 37L25 36ZM0 0L0 7L7 7L7 0ZM1 1L1 6L6 6L6 1ZM2 2L2 5L5 5L5 2ZM30 0L30 7L37 7L37 0ZM31 1L31 6L36 6L36 1ZM32 2L32 5L35 5L35 2ZM0 30L0 37L7 37L7 30ZM1 31L1 36L6 36L6 31ZM2 32L2 35L5 35L5 32Z" fill="#000000"/></g></g></svg>
