<?xml version="1.0" encoding="UTF-8"?>
<svg xmlns="http://www.w3.org/2000/svg" version="1.1" width="200" height="200" viewBox="0 0 200 200"><rect x="0" y="0" width="200" height="200" fill="#ffffff"/><g transform="scale(5.405)"><g transform="translate(0,0)"><path fill-rule="evenodd" d="M8 0L8 3L9 3L9 4L10 4L10 5L8 5L8 10L9 10L9 11L11 11L11 12L13 12L13 14L12 14L12 13L10 13L10 12L6 12L6 11L7 11L7 10L6 10L6 9L7 9L7 8L6 8L6 9L5 9L5 8L2 8L2 9L1 9L1 10L3 10L3 11L2 11L2 13L1 13L1 11L0 11L0 14L2 14L2 13L3 13L3 14L4 14L4 15L2 15L2 16L0 16L0 17L1 17L1 18L2 18L2 19L0 19L0 21L1 21L1 22L0 22L0 23L1 23L1 22L2 22L2 21L3 21L3 23L2 23L2 25L3 25L3 27L4 27L4 28L5 28L5 27L7 27L7 26L9 26L9 27L10 27L10 26L9 26L9 25L12 25L12 27L13 27L13 29L12 29L12 30L11 30L11 31L10 31L10 32L8 32L8 35L9 35L9 37L15 37L15 36L16 36L16 37L21 37L21 35L22 35L22 36L23 36L23 37L24 37L24 35L25 35L25 34L23 34L23 33L26 33L26 34L27 34L27 35L26 35L26 36L25 36L25 37L26 37L26 36L27 36L27 37L28 37L28 36L29 36L29 37L37 37L37 34L36 34L36 36L34 36L34 35L33 35L33 36L32 36L32 35L30 35L30 36L29 36L29 35L28 35L28 34L34 34L34 33L35 33L35 32L34 32L34 31L35 31L35 30L36 30L36 33L37 33L37 30L36 30L36 29L37 29L37 28L36 28L36 27L37 27L37 26L35 26L35 24L36 24L36 25L37 25L37 24L36 24L36 23L37 23L37 22L36 22L36 21L37 21L37 18L36 18L36 17L37 17L37 16L36 16L36 17L35 17L35 16L31 16L31 14L32 14L32 13L33 13L33 15L34 15L34 14L35 14L35 15L37 15L37 14L35 14L35 12L36 12L36 13L37 13L37 12L36 12L36 11L37 11L37 10L36 10L36 9L37 9L37 8L34 8L34 9L32 9L32 8L28 8L28 7L29 7L29 6L28 6L28 5L29 5L29 4L28 4L28 3L29 3L29 1L27 1L27 3L25 3L25 2L26 2L26 1L25 1L25 2L23 2L23 1L24 1L24 0L23 0L23 1L22 1L22 0L20 0L20 1L19 1L19 0L18 0L18 1L17 1L17 0L11 0L11 1L10 1L10 0ZM9 1L9 2L10 2L10 1ZM11 1L11 4L13 4L13 5L12 5L12 6L11 6L11 7L10 7L10 6L9 6L9 9L10 9L10 10L11 10L11 9L13 9L13 10L12 10L12 11L14 11L14 10L17 10L17 9L18 9L18 6L19 6L19 8L22 8L22 9L20 9L20 11L21 11L21 10L22 10L22 12L23 12L23 14L22 14L22 13L20 13L20 14L19 14L19 15L17 15L17 17L16 17L16 18L18 18L18 17L19 17L19 16L20 16L20 17L21 17L21 18L20 18L20 19L21 19L21 20L22 20L22 21L24 21L24 23L25 23L25 24L24 24L24 25L23 25L23 23L22 23L22 22L21 22L21 23L22 23L22 24L21 24L21 25L20 25L20 24L17 24L17 23L15 23L15 22L16 22L16 20L17 20L17 21L18 21L18 19L15 19L15 16L16 16L16 15L15 15L15 13L17 13L17 12L18 12L18 11L16 11L16 12L15 12L15 13L14 13L14 15L12 15L12 14L10 14L10 13L6 13L6 14L10 14L10 16L9 16L9 15L4 15L4 16L2 16L2 17L3 17L3 21L4 21L4 20L5 20L5 21L6 21L6 22L7 22L7 21L6 21L6 20L7 20L7 19L6 19L6 18L7 18L7 17L6 17L6 18L5 18L5 19L4 19L4 17L5 17L5 16L9 16L9 17L11 17L11 19L10 19L10 18L9 18L9 19L10 19L10 20L9 20L9 22L10 22L10 23L11 23L11 22L10 22L10 21L11 21L11 20L12 20L12 19L13 19L13 20L14 20L14 22L13 22L13 23L12 23L12 25L13 25L13 24L17 24L17 25L16 25L16 27L14 27L14 26L13 26L13 27L14 27L14 29L15 29L15 30L16 30L16 31L14 31L14 30L12 30L12 31L11 31L11 33L9 33L9 35L11 35L11 36L15 36L15 33L16 33L16 32L18 32L18 31L19 31L19 32L20 32L20 33L18 33L18 34L20 34L20 35L19 35L19 36L20 36L20 35L21 35L21 34L20 34L20 33L23 33L23 32L24 32L24 31L25 31L25 32L26 32L26 33L27 33L27 31L28 31L28 27L29 27L29 28L35 28L35 26L34 26L34 27L29 27L29 26L27 26L27 28L26 28L26 26L24 26L24 25L27 25L27 24L26 24L26 23L27 23L27 22L29 22L29 23L30 23L30 22L31 22L31 21L32 21L32 23L31 23L31 26L33 26L33 21L32 21L32 20L31 20L31 19L30 19L30 18L32 18L32 19L33 19L33 20L36 20L36 18L35 18L35 17L34 17L34 18L35 18L35 19L33 19L33 17L29 17L29 16L30 16L30 15L28 15L28 17L27 17L27 16L26 16L26 14L29 14L29 13L30 13L30 14L31 14L31 13L32 13L32 12L31 12L31 13L30 13L30 11L28 11L28 12L29 12L29 13L27 13L27 9L26 9L26 8L27 8L27 7L28 7L28 6L27 6L27 7L26 7L26 6L25 6L25 3L23 3L23 4L22 4L22 5L23 5L23 7L24 7L24 8L25 8L25 10L26 10L26 11L25 11L25 12L26 12L26 14L25 14L25 13L24 13L24 12L23 12L23 11L24 11L24 10L22 10L22 9L23 9L23 8L22 8L22 6L21 6L21 2L20 2L20 4L19 4L19 5L18 5L18 4L17 4L17 5L14 5L14 4L13 4L13 3L14 3L14 1ZM16 1L16 2L17 2L17 1ZM23 4L23 5L24 5L24 4ZM26 4L26 5L28 5L28 4ZM17 5L17 6L16 6L16 8L15 8L15 9L16 9L16 8L17 8L17 6L18 6L18 5ZM19 5L19 6L20 6L20 7L21 7L21 6L20 6L20 5ZM12 6L12 8L14 8L14 7L15 7L15 6L14 6L14 7L13 7L13 6ZM24 6L24 7L25 7L25 8L26 8L26 7L25 7L25 6ZM10 8L10 9L11 9L11 8ZM3 9L3 10L5 10L5 11L6 11L6 10L5 10L5 9ZM28 9L28 10L30 10L30 9ZM34 9L34 12L33 12L33 13L34 13L34 12L35 12L35 11L36 11L36 10L35 10L35 9ZM31 10L31 11L32 11L32 10ZM3 11L3 12L4 12L4 11ZM4 13L4 14L5 14L5 13ZM14 15L14 16L13 16L13 17L14 17L14 16L15 16L15 15ZM20 15L20 16L21 16L21 17L22 17L22 18L23 18L23 17L24 17L24 18L25 18L25 19L27 19L27 20L25 20L25 21L27 21L27 20L28 20L28 21L29 21L29 22L30 22L30 21L31 21L31 20L30 20L30 19L29 19L29 20L28 20L28 18L29 18L29 17L28 17L28 18L27 18L27 17L26 17L26 16L24 16L24 15L22 15L22 16L21 16L21 15ZM11 16L11 17L12 17L12 16ZM22 16L22 17L23 17L23 16ZM25 17L25 18L26 18L26 17ZM5 19L5 20L6 20L6 19ZM22 19L22 20L23 20L23 19ZM29 20L29 21L30 21L30 20ZM19 21L19 22L18 22L18 23L20 23L20 21ZM34 22L34 24L35 24L35 23L36 23L36 22ZM6 23L6 24L7 24L7 23ZM8 23L8 24L9 24L9 23ZM3 24L3 25L5 25L5 26L7 26L7 25L5 25L5 24ZM28 24L28 25L30 25L30 24ZM0 25L0 29L1 29L1 25ZM17 25L17 26L18 26L18 27L19 27L19 26L20 26L20 25ZM21 26L21 27L20 27L20 28L21 28L21 27L22 27L22 26ZM16 27L16 28L15 28L15 29L16 29L16 30L17 30L17 27ZM24 27L24 29L23 29L23 30L22 30L22 29L19 29L19 28L18 28L18 29L19 29L19 31L20 31L20 32L21 32L21 30L22 30L22 31L23 31L23 30L24 30L24 29L25 29L25 30L27 30L27 29L26 29L26 28L25 28L25 27ZM2 28L2 29L3 29L3 28ZM6 28L6 29L7 29L7 28ZM8 28L8 30L10 30L10 29L11 29L11 28ZM29 29L29 32L32 32L32 29ZM34 29L34 30L33 30L33 31L34 31L34 30L35 30L35 29ZM30 30L30 31L31 31L31 30ZM13 31L13 32L12 32L12 33L13 33L13 34L12 34L12 35L13 35L13 34L14 34L14 33L15 33L15 32L14 32L14 31ZM13 32L13 33L14 33L14 32ZM33 32L33 33L34 33L34 32ZM16 34L16 36L17 36L17 34ZM27 35L27 36L28 36L28 35ZM0 0L0 7L7 7L7 0ZM1 1L1 6L6 6L6 1ZM2 2L2 5L5 5L5 2ZM30 0L30 7L37 7L37 0ZM31 1L31 6L36 6L36 1ZM32 2L32 5L35 5L35 2ZM0 30L0 37L7 37L7 30ZM1 31L1 36L6 36L6 31ZM2 32L2 35L5 35L5 32Z" fill="#000000"/></g></g></svg>
