<?xml version="1.0" encoding="UTF-8"?>
<svg xmlns="http://www.w3.org/2000/svg" version="1.1" width="200" height="200" viewBox="0 0 200 200"><rect x="0" y="0" width="200" height="200" fill="#ffffff"/><g transform="scale(5.405)"><g transform="translate(0,0)"><path fill-rule="evenodd" d="M9 0L9 1L8 1L8 7L9 7L9 8L5 8L5 9L4 9L4 15L3 15L3 14L2 14L2 13L3 13L3 12L2 12L2 11L0 11L0 13L1 13L1 14L2 14L2 16L1 16L1 17L2 17L2 18L0 18L0 19L2 19L2 21L1 21L1 20L0 20L0 22L3 22L3 23L1 23L1 26L0 26L0 27L2 27L2 28L0 28L0 29L2 29L2 28L3 28L3 29L4 29L4 28L6 28L6 29L7 29L7 28L9 28L9 29L8 29L8 32L9 32L9 34L8 34L8 35L10 35L10 34L11 34L11 35L12 35L12 36L15 36L15 37L16 37L16 36L18 36L18 35L21 35L21 36L19 36L19 37L21 37L21 36L24 36L24 37L25 37L25 35L26 35L26 34L25 34L25 32L24 32L24 31L26 31L26 32L27 32L27 37L29 37L29 35L30 35L30 37L31 37L31 36L32 36L32 35L37 35L37 32L36 32L36 31L37 31L37 28L36 28L36 31L35 31L35 30L34 30L34 29L33 29L33 26L34 26L34 27L37 27L37 24L36 24L36 23L37 23L37 20L36 20L36 23L35 23L35 26L34 26L34 24L30 24L30 23L31 23L31 20L33 20L33 18L32 18L32 19L31 19L31 16L28 16L28 15L29 15L29 14L30 14L30 15L31 15L31 14L32 14L32 16L33 16L33 17L34 17L34 15L35 15L35 16L36 16L36 17L35 17L35 18L34 18L34 19L37 19L37 16L36 16L36 15L37 15L37 12L36 12L36 13L34 13L34 11L35 11L35 10L34 10L34 11L32 11L32 10L33 10L33 9L36 9L36 11L37 11L37 9L36 9L36 8L31 8L31 10L30 10L30 11L31 11L31 12L26 12L26 13L25 13L25 11L28 11L28 10L26 10L26 7L27 7L27 5L24 5L24 3L25 3L25 4L26 4L26 1L27 1L27 0L23 0L23 1L22 1L22 0L21 0L21 1L20 1L20 0L19 0L19 1L20 1L20 2L18 2L18 1L16 1L16 2L14 2L14 1L13 1L13 0L11 0L11 1L10 1L10 0ZM28 0L28 8L27 8L27 9L28 9L28 8L29 8L29 9L30 9L30 8L29 8L29 0ZM9 1L9 2L10 2L10 3L9 3L9 5L10 5L10 6L9 6L9 7L10 7L10 10L11 10L11 7L12 7L12 4L13 4L13 8L12 8L12 9L13 9L13 10L12 10L12 11L8 11L8 10L9 10L9 9L6 9L6 10L7 10L7 11L5 11L5 14L7 14L7 15L6 15L6 16L7 16L7 15L8 15L8 14L7 14L7 13L8 13L8 12L10 12L10 13L9 13L9 14L10 14L10 15L9 15L9 16L10 16L10 15L11 15L11 18L10 18L10 17L9 17L9 20L8 20L8 19L5 19L5 18L8 18L8 17L5 17L5 15L4 15L4 17L3 17L3 18L2 18L2 19L3 19L3 22L4 22L4 21L6 21L6 22L5 22L5 23L4 23L4 25L2 25L2 27L3 27L3 26L4 26L4 27L5 27L5 26L4 26L4 25L5 25L5 24L7 24L7 25L6 25L6 26L7 26L7 25L8 25L8 24L10 24L10 25L9 25L9 26L11 26L11 27L9 27L9 28L10 28L10 30L9 30L9 31L10 31L10 30L11 30L11 27L12 27L12 28L13 28L13 29L12 29L12 32L13 32L13 33L12 33L12 35L14 35L14 34L15 34L15 35L18 35L18 34L19 34L19 33L18 33L18 31L20 31L20 32L21 32L21 33L20 33L20 34L22 34L22 35L24 35L24 33L23 33L23 32L22 32L22 29L23 29L23 28L24 28L24 30L25 30L25 29L26 29L26 27L28 27L28 25L27 25L27 26L26 26L26 27L25 27L25 24L26 24L26 23L24 23L24 22L23 22L23 23L22 23L22 21L23 21L23 20L24 20L24 18L26 18L26 15L27 15L27 13L26 13L26 15L25 15L25 14L23 14L23 15L25 15L25 16L23 16L23 19L22 19L22 18L21 18L21 17L22 17L22 15L21 15L21 14L22 14L22 13L24 13L24 11L25 11L25 10L24 10L24 11L23 11L23 12L21 12L21 11L18 11L18 10L20 10L20 9L22 9L22 10L23 10L23 9L24 9L24 8L25 8L25 7L26 7L26 6L25 6L25 7L24 7L24 5L22 5L22 6L21 6L21 7L22 7L22 8L20 8L20 6L19 6L19 5L18 5L18 2L16 2L16 3L17 3L17 7L16 7L16 6L15 6L15 7L14 7L14 5L16 5L16 4L14 4L14 3L12 3L12 4L11 4L11 5L10 5L10 3L11 3L11 2L12 2L12 1L11 1L11 2L10 2L10 1ZM23 1L23 2L24 2L24 1ZM22 3L22 4L23 4L23 3ZM10 6L10 7L11 7L11 6ZM18 6L18 7L17 7L17 8L16 8L16 9L14 9L14 10L16 10L16 11L17 11L17 12L16 12L16 13L15 13L15 11L14 11L14 12L13 12L13 11L12 11L12 12L11 12L11 13L10 13L10 14L12 14L12 18L11 18L11 19L12 19L12 20L13 20L13 21L11 21L11 20L9 20L9 21L11 21L11 23L10 23L10 22L9 22L9 23L10 23L10 24L11 24L11 26L13 26L13 27L15 27L15 28L14 28L14 29L13 29L13 30L14 30L14 29L15 29L15 28L16 28L16 30L15 30L15 31L13 31L13 32L16 32L16 33L15 33L15 34L16 34L16 33L17 33L17 34L18 34L18 33L17 33L17 32L16 32L16 31L17 31L17 29L19 29L19 30L20 30L20 29L19 29L19 28L20 28L20 27L19 27L19 28L17 28L17 27L18 27L18 26L17 26L17 27L15 27L15 26L16 26L16 24L15 24L15 23L14 23L14 22L16 22L16 23L18 23L18 21L19 21L19 22L20 22L20 23L19 23L19 24L21 24L21 25L20 25L20 26L22 26L22 23L21 23L21 22L20 22L20 21L22 21L22 20L21 20L21 18L20 18L20 20L19 20L19 19L18 19L18 16L19 16L19 15L18 15L18 16L17 16L17 19L18 19L18 21L15 21L15 20L16 20L16 19L15 19L15 18L16 18L16 17L15 17L15 15L16 15L16 14L18 14L18 13L19 13L19 12L18 12L18 11L17 11L17 10L18 10L18 9L20 9L20 8L19 8L19 6ZM22 6L22 7L23 7L23 8L24 8L24 7L23 7L23 6ZM2 8L2 9L1 9L1 10L2 10L2 9L3 9L3 8ZM7 11L7 12L6 12L6 13L7 13L7 12L8 12L8 11ZM1 12L1 13L2 13L2 12ZM20 12L20 14L21 14L21 12ZM32 12L32 14L34 14L34 13L33 13L33 12ZM12 13L12 14L15 14L15 13ZM13 15L13 17L14 17L14 15ZM20 15L20 16L21 16L21 15ZM4 17L4 18L5 18L5 17ZM13 18L13 19L14 19L14 20L15 20L15 19L14 19L14 18ZM29 18L29 19L30 19L30 20L28 20L28 19L27 19L27 20L28 20L28 22L30 22L30 20L31 20L31 19L30 19L30 18ZM4 19L4 20L5 20L5 19ZM25 19L25 22L26 22L26 19ZM6 20L6 21L7 21L7 22L6 22L6 23L7 23L7 22L8 22L8 20ZM13 21L13 22L12 22L12 23L11 23L11 24L12 24L12 25L13 25L13 26L15 26L15 25L14 25L14 23L13 23L13 22L14 22L14 21ZM33 21L33 22L32 22L32 23L34 23L34 21ZM23 23L23 25L24 25L24 23ZM27 23L27 24L28 24L28 23ZM17 24L17 25L18 25L18 24ZM30 25L30 26L33 26L33 25ZM23 26L23 27L21 27L21 29L22 29L22 28L23 28L23 27L24 27L24 26ZM6 27L6 28L7 28L7 27ZM31 27L31 28L32 28L32 27ZM27 28L27 29L28 29L28 28ZM29 29L29 32L32 32L32 29ZM27 30L27 32L28 32L28 30ZM30 30L30 31L31 31L31 30ZM33 30L33 31L34 31L34 33L33 33L33 34L36 34L36 32L35 32L35 31L34 31L34 30ZM10 32L10 33L11 33L11 32ZM28 33L28 34L29 34L29 33ZM30 33L30 35L31 35L31 33ZM9 36L9 37L10 37L10 36ZM33 36L33 37L34 37L34 36ZM36 36L36 37L37 37L37 36ZM0 0L0 7L7 7L7 0ZM1 1L1 6L6 6L6 1ZM2 2L2 5L5 5L5 2ZM30 0L30 7L37 7L37 0ZM31 1L31 6L36 6L36 1ZM32 2L32 5L35 5L35 2ZM0 30L0 37L7 37L7 30ZM1 31L1 36L6 36L6 31ZM2 32L2 35L5 35L5 32Z" fill="#000000"/></g></g></svg>
