<?xml version="1.0" encoding="UTF-8"?>
<svg xmlns="http://www.w3.org/2000/svg" version="1.1" width="200" height="200" viewBox="0 0 200 200"><rect x="0" y="0" width="200" height="200" fill="#ffffff"/><g transform="scale(5.405)"><g transform="translate(0,0)"><path fill-rule="evenodd" d="M11 0L11 1L9 1L9 2L12 2L12 3L13 3L13 4L16 4L16 3L17 3L17 6L16 6L16 8L15 8L15 6L14 6L14 5L13 5L13 6L12 6L12 7L11 7L11 6L10 6L10 5L9 5L9 4L10 4L10 3L9 3L9 4L8 4L8 5L9 5L9 6L8 6L8 8L6 8L6 9L5 9L5 10L6 10L6 11L5 11L5 12L4 12L4 11L3 11L3 9L4 9L4 8L2 8L2 12L4 12L4 13L5 13L5 15L4 15L4 14L3 14L3 15L1 15L1 12L0 12L0 15L1 15L1 16L0 16L0 17L1 17L1 16L3 16L3 17L2 17L2 18L0 18L0 19L1 19L1 20L0 20L0 21L1 21L1 22L0 22L0 23L2 23L2 24L0 24L0 25L2 25L2 24L3 24L3 25L4 25L4 26L5 26L5 25L8 25L8 24L9 24L9 23L10 23L10 22L11 22L11 21L12 21L12 23L13 23L13 21L14 21L14 18L15 18L15 19L16 19L16 18L17 18L17 17L19 17L19 16L16 16L16 15L14 15L14 16L13 16L13 17L12 17L12 15L11 15L11 16L10 16L10 15L9 15L9 14L11 14L11 13L13 13L13 14L15 14L15 13L16 13L16 14L17 14L17 15L18 15L18 14L17 14L17 13L20 13L20 12L19 12L19 11L20 11L20 10L21 10L21 9L22 9L22 11L21 11L21 12L22 12L22 13L21 13L21 14L22 14L22 15L21 15L21 16L20 16L20 18L19 18L19 20L20 20L20 21L22 21L22 22L24 22L24 23L23 23L23 24L22 24L22 23L21 23L21 22L19 22L19 21L15 21L15 22L17 22L17 24L18 24L18 22L19 22L19 23L21 23L21 24L20 24L20 26L17 26L17 25L16 25L16 26L15 26L15 25L14 25L14 24L11 24L11 25L12 25L12 26L11 26L11 27L10 27L10 25L9 25L9 26L8 26L8 27L10 27L10 28L9 28L9 29L8 29L8 31L9 31L9 30L11 30L11 31L12 31L12 32L9 32L9 33L8 33L8 35L9 35L9 37L10 37L10 36L11 36L11 37L12 37L12 36L13 36L13 35L14 35L14 34L16 34L16 35L15 35L15 36L16 36L16 37L18 37L18 34L17 34L17 33L16 33L16 32L18 32L18 33L20 33L20 31L21 31L21 33L22 33L22 36L23 36L23 37L24 37L24 36L25 36L25 37L26 37L26 36L27 36L27 37L28 37L28 33L30 33L30 35L29 35L29 37L37 37L37 36L35 36L35 35L36 35L36 34L35 34L35 33L34 33L34 32L33 32L33 29L35 29L35 30L36 30L36 32L37 32L37 29L35 29L35 28L36 28L36 27L35 27L35 26L33 26L33 25L36 25L36 26L37 26L37 24L35 24L35 23L36 23L36 19L37 19L37 17L35 17L35 16L34 16L34 15L35 15L35 13L36 13L36 14L37 14L37 11L36 11L36 9L35 9L35 10L34 10L34 9L33 9L33 8L32 8L32 9L31 9L31 8L29 8L29 9L30 9L30 10L28 10L28 9L27 9L27 8L28 8L28 7L29 7L29 6L28 6L28 7L27 7L27 5L29 5L29 4L28 4L28 2L29 2L29 1L28 1L28 2L27 2L27 5L26 5L26 1L25 1L25 2L24 2L24 4L25 4L25 5L26 5L26 7L25 7L25 6L24 6L24 8L25 8L25 9L22 9L22 8L23 8L23 5L22 5L22 7L21 7L21 3L22 3L22 2L21 2L21 0L20 0L20 1L19 1L19 0L17 0L17 2L15 2L15 1L16 1L16 0L15 0L15 1L14 1L14 0L13 0L13 2L12 2L12 0ZM23 0L23 1L24 1L24 0ZM17 2L17 3L18 3L18 6L17 6L17 7L18 7L18 8L16 8L16 9L19 9L19 8L20 8L20 6L19 6L19 3L21 3L21 2L19 2L19 3L18 3L18 2ZM9 6L9 7L10 7L10 8L11 8L11 9L10 9L10 10L11 10L11 11L12 11L12 10L13 10L13 13L14 13L14 11L17 11L17 10L15 10L15 9L14 9L14 8L13 8L13 9L12 9L12 8L11 8L11 7L10 7L10 6ZM13 6L13 7L14 7L14 6ZM18 6L18 7L19 7L19 6ZM6 9L6 10L8 10L8 11L6 11L6 12L5 12L5 13L6 13L6 14L7 14L7 15L6 15L6 16L4 16L4 15L3 15L3 16L4 16L4 17L3 17L3 18L5 18L5 19L6 19L6 20L7 20L7 21L5 21L5 20L3 20L3 19L2 19L2 20L1 20L1 21L2 21L2 22L3 22L3 23L4 23L4 24L7 24L7 23L9 23L9 22L7 22L7 21L8 21L8 18L9 18L9 21L11 21L11 19L10 19L10 18L11 18L11 17L9 17L9 16L8 16L8 14L7 14L7 13L11 13L11 12L10 12L10 11L9 11L9 10L8 10L8 9ZM11 9L11 10L12 10L12 9ZM13 9L13 10L14 10L14 9ZM25 9L25 10L26 10L26 13L27 13L27 12L28 12L28 13L29 13L29 14L30 14L30 15L29 15L29 18L28 18L28 19L27 19L27 18L26 18L26 19L25 19L25 18L24 18L24 19L23 19L23 21L24 21L24 20L25 20L25 23L24 23L24 24L23 24L23 25L24 25L24 26L22 26L22 25L21 25L21 26L20 26L20 27L17 27L17 26L16 26L16 28L18 28L18 29L15 29L15 26L14 26L14 25L13 25L13 27L11 27L11 30L12 30L12 29L13 29L13 30L15 30L15 31L14 31L14 32L16 32L16 31L17 31L17 30L19 30L19 28L20 28L20 30L22 30L22 31L23 31L23 32L22 32L22 33L23 33L23 35L25 35L25 34L26 34L26 33L28 33L28 32L26 32L26 31L28 31L28 29L27 29L27 30L26 30L26 29L24 29L24 30L22 30L22 29L23 29L23 28L24 28L24 26L25 26L25 25L26 25L26 26L28 26L28 25L29 25L29 26L30 26L30 28L33 28L33 26L32 26L32 25L33 25L33 24L34 24L34 23L35 23L35 19L36 19L36 18L35 18L35 17L33 17L33 14L34 14L34 13L33 13L33 14L32 14L32 15L31 15L31 14L30 14L30 12L31 12L31 13L32 13L32 11L34 11L34 10L30 10L30 12L28 12L28 10L27 10L27 9ZM23 10L23 11L22 11L22 12L23 12L23 11L24 11L24 13L23 13L23 15L22 15L22 16L21 16L21 18L23 18L23 15L25 15L25 16L26 16L26 15L25 15L25 11L24 11L24 10ZM35 11L35 12L36 12L36 11ZM6 12L6 13L7 13L7 12ZM19 14L19 15L20 15L20 14ZM27 14L27 17L28 17L28 14ZM30 15L30 16L31 16L31 17L30 17L30 18L29 18L29 20L28 20L28 23L29 23L29 24L30 24L30 25L31 25L31 24L30 24L30 21L29 21L29 20L32 20L32 21L34 21L34 20L32 20L32 16L31 16L31 15ZM6 16L6 17L5 17L5 18L6 18L6 19L7 19L7 18L6 18L6 17L8 17L8 16ZM14 16L14 17L13 17L13 18L14 18L14 17L16 17L16 16ZM17 19L17 20L18 20L18 19ZM21 19L21 20L22 20L22 19ZM26 19L26 21L27 21L27 19ZM2 20L2 21L3 21L3 22L4 22L4 21L3 21L3 20ZM12 20L12 21L13 21L13 20ZM5 22L5 23L7 23L7 22ZM26 22L26 23L25 23L25 24L27 24L27 25L28 25L28 24L27 24L27 22ZM31 22L31 23L32 23L32 22ZM33 22L33 23L34 23L34 22ZM1 26L1 27L0 27L0 28L1 28L1 27L2 27L2 26ZM6 26L6 27L7 27L7 26ZM21 26L21 27L20 27L20 28L23 28L23 27L22 27L22 26ZM31 26L31 27L32 27L32 26ZM3 27L3 28L2 28L2 29L4 29L4 28L5 28L5 29L7 29L7 28L5 28L5 27ZM13 27L13 29L14 29L14 27ZM25 27L25 28L26 28L26 27ZM27 27L27 28L28 28L28 27ZM34 27L34 28L35 28L35 27ZM29 29L29 32L32 32L32 29ZM24 30L24 32L25 32L25 30ZM30 30L30 31L31 31L31 30ZM18 31L18 32L19 32L19 31ZM12 32L12 33L13 33L13 32ZM9 33L9 34L10 34L10 35L11 35L11 34L10 34L10 33ZM31 34L31 35L30 35L30 36L34 36L34 35L35 35L35 34L33 34L33 35L32 35L32 34ZM19 35L19 36L20 36L20 37L21 37L21 35ZM0 0L0 7L7 7L7 0ZM1 1L1 6L6 6L6 1ZM2 2L2 5L5 5L5 2ZM30 0L30 7L37 7L37 0ZM31 1L31 6L36 6L36 1ZM32 2L32 5L35 5L35 2ZM0 30L0 37L7 37L7 30ZM1 31L1 36L6 36L6 31ZM2 32L2 35L5 35L5 32Z" fill="#000000"/></g></g></svg>
