<?xml version="1.0" encoding="UTF-8"?>
<svg xmlns="http://www.w3.org/2000/svg" version="1.1" width="200" height="200" viewBox="0 0 200 200"><rect x="0" y="0" width="200" height="200" fill="#ffffff"/><g transform="scale(5.405)"><g transform="translate(0,0)"><path fill-rule="evenodd" d="M11 0L11 1L8 1L8 2L11 2L11 3L10 3L10 4L9 4L9 5L8 5L8 8L4 8L4 9L7 9L7 10L4 10L4 11L3 11L3 10L1 10L1 9L0 9L0 10L1 10L1 11L3 11L3 12L2 12L2 13L1 13L1 15L2 15L2 17L4 17L4 18L5 18L5 12L4 12L4 11L7 11L7 10L8 10L8 11L9 11L9 12L10 12L10 13L11 13L11 14L13 14L13 17L11 17L11 16L12 16L12 15L8 15L8 16L6 16L6 17L8 17L8 18L6 18L6 19L3 19L3 18L1 18L1 16L0 16L0 20L1 20L1 21L2 21L2 20L3 20L3 21L4 21L4 23L3 23L3 24L4 24L4 25L2 25L2 26L4 26L4 25L5 25L5 27L2 27L2 28L0 28L0 29L4 29L4 28L6 28L6 29L7 29L7 28L8 28L8 27L9 27L9 28L11 28L11 29L8 29L8 33L9 33L9 32L12 32L12 31L9 31L9 30L11 30L11 29L13 29L13 28L11 28L11 27L9 27L9 25L10 25L10 26L12 26L12 27L13 27L13 26L14 26L14 25L15 25L15 24L16 24L16 25L17 25L17 27L15 27L15 28L16 28L16 31L13 31L13 32L15 32L15 33L16 33L16 35L15 35L15 37L17 37L17 36L16 36L16 35L17 35L17 34L18 34L18 37L21 37L21 36L22 36L22 37L24 37L24 36L25 36L25 35L24 35L24 36L23 36L23 32L24 32L24 33L25 33L25 34L26 34L26 35L27 35L27 36L26 36L26 37L28 37L28 35L29 35L29 37L31 37L31 36L32 36L32 35L31 35L31 33L35 33L35 32L36 32L36 33L37 33L37 31L36 31L36 29L37 29L37 28L36 28L36 25L37 25L37 24L35 24L35 23L34 23L34 22L33 22L33 21L37 21L37 20L36 20L36 17L37 17L37 15L36 15L36 16L35 16L35 13L37 13L37 12L35 12L35 11L36 11L36 8L35 8L35 10L34 10L34 9L33 9L33 10L32 10L32 11L28 11L28 10L27 10L27 9L26 9L26 7L27 7L27 8L28 8L28 9L29 9L29 6L28 6L28 7L27 7L27 6L26 6L26 7L25 7L25 5L22 5L22 4L21 4L21 5L20 5L20 4L18 4L18 3L21 3L21 2L19 2L19 1L20 1L20 0L19 0L19 1L18 1L18 2L16 2L16 1L17 1L17 0L15 0L15 1L12 1L12 0ZM21 0L21 1L22 1L22 0ZM23 0L23 2L22 2L22 3L23 3L23 4L24 4L24 3L23 3L23 2L24 2L24 0ZM25 0L25 2L26 2L26 1L28 1L28 0ZM12 2L12 4L10 4L10 5L9 5L9 8L8 8L8 9L9 9L9 8L10 8L10 10L9 10L9 11L11 11L11 12L12 12L12 11L14 11L14 10L15 10L15 8L14 8L14 4L13 4L13 2ZM27 2L27 5L28 5L28 2ZM15 3L15 7L16 7L16 8L18 8L18 11L17 11L17 9L16 9L16 12L17 12L17 13L18 13L18 15L19 15L19 13L20 13L20 12L22 12L22 13L24 13L24 12L25 12L25 14L23 14L23 16L22 16L22 14L20 14L20 15L21 15L21 16L22 16L22 17L23 17L23 16L24 16L24 17L27 17L27 16L26 16L26 11L27 11L27 10L25 10L25 8L24 8L24 9L23 9L23 10L22 10L22 9L21 9L21 8L23 8L23 7L24 7L24 6L23 6L23 7L22 7L22 5L21 5L21 7L20 7L20 5L17 5L17 4L16 4L16 3ZM25 3L25 4L26 4L26 3ZM12 5L12 7L11 7L11 6L10 6L10 7L11 7L11 10L13 10L13 9L12 9L12 7L13 7L13 5ZM16 5L16 7L17 7L17 5ZM18 6L18 8L19 8L19 6ZM30 8L30 10L31 10L31 9L32 9L32 8ZM19 9L19 10L20 10L20 9ZM21 10L21 11L22 11L22 10ZM24 10L24 11L25 11L25 10ZM33 10L33 12L31 12L31 13L28 13L28 12L27 12L27 13L28 13L28 15L30 15L30 16L29 16L29 17L28 17L28 20L27 20L27 21L26 21L26 19L27 19L27 18L23 18L23 19L22 19L22 18L21 18L21 17L20 17L20 16L19 16L19 17L18 17L18 16L17 16L17 17L16 17L16 16L15 16L15 15L14 15L14 17L16 17L16 19L17 19L17 22L16 22L16 20L15 20L15 21L13 21L13 20L14 20L14 19L15 19L15 18L13 18L13 19L12 19L12 18L10 18L10 20L8 20L8 19L9 19L9 18L8 18L8 19L6 19L6 20L7 20L7 21L5 21L5 22L8 22L8 21L9 21L9 23L8 23L8 24L9 24L9 23L10 23L10 25L11 25L11 22L13 22L13 23L12 23L12 24L15 24L15 23L14 23L14 22L16 22L16 24L17 24L17 25L20 25L20 26L21 26L21 25L23 25L23 26L22 26L22 27L19 27L19 26L18 26L18 27L17 27L17 30L19 30L19 31L16 31L16 32L17 32L17 33L18 33L18 34L19 34L19 33L18 33L18 32L19 32L19 31L20 31L20 30L19 30L19 29L20 29L20 28L21 28L21 32L20 32L20 33L22 33L22 30L23 30L23 29L24 29L24 31L25 31L25 33L28 33L28 32L26 32L26 31L28 31L28 30L25 30L25 29L27 29L27 28L29 28L29 27L31 27L31 28L33 28L33 29L34 29L34 30L33 30L33 31L34 31L34 30L35 30L35 29L34 29L34 27L35 27L35 25L34 25L34 24L33 24L33 22L31 22L31 21L33 21L33 20L31 20L31 17L34 17L34 18L35 18L35 17L34 17L34 10ZM19 11L19 12L18 12L18 13L19 13L19 12L20 12L20 11ZM6 12L6 13L8 13L8 14L9 14L9 13L8 13L8 12ZM13 12L13 14L14 14L14 13L15 13L15 12ZM3 13L3 14L4 14L4 13ZM31 13L31 14L33 14L33 13ZM6 14L6 15L7 15L7 14ZM16 14L16 15L17 15L17 14ZM3 15L3 16L4 16L4 15ZM24 15L24 16L25 16L25 15ZM32 15L32 16L33 16L33 15ZM8 16L8 17L9 17L9 16ZM30 16L30 17L29 17L29 20L28 20L28 21L27 21L27 23L26 23L26 24L25 24L25 25L24 25L24 23L23 23L23 25L24 25L24 26L23 26L23 27L22 27L22 28L24 28L24 29L25 29L25 28L24 28L24 27L25 27L25 25L28 25L28 27L29 27L29 26L32 26L32 27L34 27L34 26L33 26L33 24L32 24L32 23L31 23L31 24L30 24L30 25L28 25L28 24L29 24L29 23L30 23L30 21L31 21L31 20L30 20L30 17L31 17L31 16ZM17 17L17 18L18 18L18 17ZM19 17L19 19L18 19L18 21L20 21L20 22L19 22L19 24L22 24L22 22L21 22L21 21L24 21L24 22L26 22L26 21L25 21L25 19L24 19L24 20L22 20L22 19L21 19L21 18L20 18L20 17ZM32 18L32 19L33 19L33 18ZM1 19L1 20L2 20L2 19ZM11 19L11 20L12 20L12 19ZM20 20L20 21L21 21L21 20ZM29 20L29 21L28 21L28 23L29 23L29 21L30 21L30 20ZM17 22L17 24L18 24L18 22ZM20 22L20 23L21 23L21 22ZM1 23L1 24L2 24L2 23ZM4 23L4 24L5 24L5 25L6 25L6 26L7 26L7 25L6 25L6 24L7 24L7 23ZM0 25L0 26L1 26L1 25ZM12 25L12 26L13 26L13 25ZM26 26L26 28L27 28L27 26ZM6 27L6 28L7 28L7 27ZM18 28L18 29L19 29L19 28ZM29 29L29 32L32 32L32 29ZM30 30L30 31L31 31L31 30ZM10 33L10 34L9 34L9 35L10 35L10 36L11 36L11 37L13 37L13 35L14 35L14 33ZM29 33L29 35L30 35L30 36L31 36L31 35L30 35L30 33ZM10 34L10 35L13 35L13 34ZM20 34L20 36L21 36L21 34ZM27 34L27 35L28 35L28 34ZM33 34L33 36L34 36L34 37L37 37L37 36L36 36L36 34L35 34L35 35L34 35L34 34ZM0 0L0 7L7 7L7 0ZM1 1L1 6L6 6L6 1ZM2 2L2 5L5 5L5 2ZM30 0L30 7L37 7L37 0ZM31 1L31 6L36 6L36 1ZM32 2L32 5L35 5L35 2ZM0 30L0 37L7 37L7 30ZM1 31L1 36L6 36L6 31ZM2 32L2 35L5 35L5 32Z" fill="#000000"/></g></g></svg>
