<?xml version="1.0" encoding="UTF-8"?>
<svg xmlns="http://www.w3.org/2000/svg" version="1.1" width="200" height="200" viewBox="0 0 200 200"><rect x="0" y="0" width="200" height="200" fill="#ffffff"/><g transform="scale(5.405)"><g transform="translate(0,0)"><path fill-rule="evenodd" d="M9 0L9 1L10 1L10 2L12 2L12 3L13 3L13 4L11 4L11 3L9 3L9 4L8 4L8 5L9 5L9 6L8 6L8 8L6 8L6 9L5 9L5 10L3 10L3 11L8 11L8 12L4 12L4 14L2 14L2 13L3 13L3 12L2 12L2 9L4 9L4 8L2 8L2 9L1 9L1 10L0 10L0 11L1 11L1 12L2 12L2 13L1 13L1 14L2 14L2 15L1 15L1 16L2 16L2 17L3 17L3 18L2 18L2 19L1 19L1 17L0 17L0 20L2 20L2 23L3 23L3 20L6 20L6 21L7 21L7 22L5 22L5 21L4 21L4 22L5 22L5 23L7 23L7 24L6 24L6 25L4 25L4 24L3 24L3 25L4 25L4 27L5 27L5 29L8 29L8 31L9 31L9 32L12 32L12 34L11 34L11 33L10 33L10 34L11 34L11 35L10 35L10 36L11 36L11 35L12 35L12 37L13 37L13 36L15 36L15 37L16 37L16 35L17 35L17 34L18 34L18 33L19 33L19 35L21 35L21 36L20 36L20 37L24 37L24 36L25 36L25 37L26 37L26 36L27 36L27 35L28 35L28 33L30 33L30 35L29 35L29 37L37 37L37 36L35 36L35 35L36 35L36 34L35 34L35 35L34 35L34 32L33 32L33 29L34 29L34 30L36 30L36 31L35 31L35 33L36 33L36 32L37 32L37 27L36 27L36 28L34 28L34 27L35 27L35 26L34 26L34 25L35 25L35 24L36 24L36 23L34 23L34 24L33 24L33 25L32 25L32 26L31 26L31 27L30 27L30 26L29 26L29 25L28 25L28 24L30 24L30 25L31 25L31 24L30 24L30 21L29 21L29 23L27 23L27 22L26 22L26 23L25 23L25 22L24 22L24 21L25 21L25 20L21 20L21 19L20 19L20 18L23 18L23 17L25 17L25 18L24 18L24 19L25 19L25 18L26 18L26 16L27 16L27 14L29 14L29 15L30 15L30 16L31 16L31 17L30 17L30 19L29 19L29 16L28 16L28 17L27 17L27 19L29 19L29 20L32 20L32 21L33 21L33 22L35 22L35 21L36 21L36 19L37 19L37 17L36 17L36 16L34 16L34 15L35 15L35 14L33 14L33 11L34 11L34 13L35 13L35 12L36 12L36 14L37 14L37 11L36 11L36 9L35 9L35 10L34 10L34 9L33 9L33 8L32 8L32 9L31 9L31 8L29 8L29 9L30 9L30 10L28 10L28 9L27 9L27 8L28 8L28 7L29 7L29 6L28 6L28 7L27 7L27 5L29 5L29 4L28 4L28 3L29 3L29 2L27 2L27 1L25 1L25 0L22 0L22 1L20 1L20 0L19 0L19 1L20 1L20 5L22 5L22 7L21 7L21 6L20 6L20 7L19 7L19 6L18 6L18 7L17 7L17 6L16 6L16 7L17 7L17 8L20 8L20 7L21 7L21 8L24 8L24 11L25 11L25 12L23 12L23 13L24 13L24 14L25 14L25 15L23 15L23 17L20 17L20 15L21 15L21 16L22 16L22 15L21 15L21 14L20 14L20 15L19 15L19 14L17 14L17 15L18 15L18 16L19 16L19 17L18 17L18 18L17 18L17 16L16 16L16 14L15 14L15 15L14 15L14 16L13 16L13 17L14 17L14 18L17 18L17 19L18 19L18 18L19 18L19 20L17 20L17 21L16 21L16 22L17 22L17 24L16 24L16 25L15 25L15 26L14 26L14 28L16 28L16 29L17 29L17 30L19 30L19 32L18 32L18 33L17 33L17 34L15 34L15 35L14 35L14 34L13 34L13 31L11 31L11 30L10 30L10 31L9 31L9 29L8 29L8 27L7 27L7 26L6 26L6 25L8 25L8 26L10 26L10 25L9 25L9 24L8 24L8 23L10 23L10 24L11 24L11 26L12 26L12 27L13 27L13 26L12 26L12 25L13 25L13 24L14 24L14 23L15 23L15 21L13 21L13 20L16 20L16 19L13 19L13 18L12 18L12 19L11 19L11 20L9 20L9 22L8 22L8 18L6 18L6 17L7 17L7 16L6 16L6 15L8 15L8 16L9 16L9 15L10 15L10 14L11 14L11 16L10 16L10 17L9 17L9 18L11 18L11 16L12 16L12 14L11 14L11 13L12 13L12 12L13 12L13 14L14 14L14 13L18 13L18 12L16 12L16 11L17 11L17 10L19 10L19 11L20 11L20 12L19 12L19 13L20 13L20 12L22 12L22 11L23 11L23 9L16 9L16 8L14 8L14 7L15 7L15 5L16 5L16 4L15 4L15 5L14 5L14 7L13 7L13 4L14 4L14 3L17 3L17 5L18 5L18 4L19 4L19 2L18 2L18 3L17 3L17 1L18 1L18 0L15 0L15 1L14 1L14 0L12 0L12 1L10 1L10 0ZM12 1L12 2L13 2L13 1ZM22 1L22 3L24 3L24 4L22 4L22 5L23 5L23 7L24 7L24 4L25 4L25 2L24 2L24 1ZM26 2L26 3L27 3L27 2ZM9 4L9 5L10 5L10 4ZM11 5L11 7L12 7L12 8L11 8L11 9L12 9L12 10L10 10L10 9L8 9L8 11L10 11L10 12L9 12L9 13L11 13L11 12L12 12L12 10L13 10L13 9L14 9L14 10L16 10L16 9L14 9L14 8L13 8L13 7L12 7L12 5ZM25 5L25 7L26 7L26 5ZM9 6L9 7L10 7L10 6ZM6 9L6 10L7 10L7 9ZM25 9L25 11L26 11L26 13L27 13L27 12L28 12L28 13L29 13L29 14L30 14L30 15L31 15L31 16L32 16L32 20L33 20L33 21L35 21L35 18L36 18L36 17L35 17L35 18L34 18L34 17L33 17L33 16L32 16L32 15L33 15L33 14L32 14L32 13L31 13L31 14L30 14L30 12L28 12L28 10L27 10L27 9ZM30 10L30 11L31 11L31 12L32 12L32 11L33 11L33 10ZM13 11L13 12L15 12L15 11ZM6 13L6 14L5 14L5 15L4 15L4 16L5 16L5 17L6 17L6 16L5 16L5 15L6 15L6 14L8 14L8 13ZM25 15L25 16L26 16L26 15ZM15 16L15 17L16 17L16 16ZM19 17L19 18L20 18L20 17ZM4 18L4 19L5 19L5 18ZM6 19L6 20L7 20L7 19ZM12 19L12 20L13 20L13 19ZM33 19L33 20L34 20L34 19ZM26 20L26 21L27 21L27 20ZM0 21L0 22L1 22L1 21ZM12 21L12 23L14 23L14 22L13 22L13 21ZM18 21L18 22L19 22L19 23L20 23L20 21ZM22 21L22 22L23 22L23 23L21 23L21 25L20 25L20 24L18 24L18 25L16 25L16 26L18 26L18 27L17 27L17 28L18 28L18 29L19 29L19 30L20 30L20 31L21 31L21 35L22 35L22 36L23 36L23 35L26 35L26 33L28 33L28 30L27 30L27 28L28 28L28 27L27 27L27 28L26 28L26 27L25 27L25 28L26 28L26 31L25 31L25 32L24 32L24 30L25 30L25 29L24 29L24 30L23 30L23 28L24 28L24 26L25 26L25 25L26 25L26 26L28 26L28 25L27 25L27 24L24 24L24 26L23 26L23 25L22 25L22 24L23 24L23 23L24 23L24 22L23 22L23 21ZM31 22L31 23L32 23L32 22ZM0 24L0 25L1 25L1 27L0 27L0 28L1 28L1 27L2 27L2 25L1 25L1 24ZM21 25L21 26L20 26L20 27L18 27L18 28L20 28L20 30L21 30L21 28L22 28L22 27L23 27L23 26L22 26L22 25ZM36 25L36 26L37 26L37 25ZM21 26L21 27L22 27L22 26ZM6 27L6 28L7 28L7 27ZM29 27L29 28L30 28L30 27ZM31 27L31 28L33 28L33 27ZM2 28L2 29L4 29L4 28ZM10 28L10 29L12 29L12 28ZM29 29L29 32L32 32L32 29ZM14 30L14 31L15 31L15 30ZM22 30L22 32L23 32L23 30ZM30 30L30 31L31 31L31 30ZM16 31L16 32L17 32L17 31ZM26 31L26 32L27 32L27 31ZM14 32L14 33L15 33L15 32ZM19 32L19 33L20 33L20 32ZM8 33L8 35L9 35L9 33ZM12 34L12 35L13 35L13 34ZM31 34L31 35L30 35L30 36L34 36L34 35L32 35L32 34ZM0 0L0 7L7 7L7 0ZM1 1L1 6L6 6L6 1ZM2 2L2 5L5 5L5 2ZM30 0L30 7L37 7L37 0ZM31 1L31 6L36 6L36 1ZM32 2L32 5L35 5L35 2ZM0 30L0 37L7 37L7 30ZM1 31L1 36L6 36L6 31ZM2 32L2 35L5 35L5 32Z" fill="#000000"/></g></g></svg>
