<?xml version="1.0" encoding="UTF-8"?>
<svg xmlns="http://www.w3.org/2000/svg" version="1.1" width="200" height="200" viewBox="0 0 200 200"><rect x="0" y="0" width="200" height="200" fill="#ffffff"/><g transform="scale(5.405)"><g transform="translate(0,0)"><path fill-rule="evenodd" d="M8 0L8 3L9 3L9 1L10 1L10 2L12 2L12 3L10 3L10 4L9 4L9 5L8 5L8 9L7 9L7 8L6 8L6 9L7 9L7 10L5 10L5 8L2 8L2 9L3 9L3 10L2 10L2 12L0 12L0 14L2 14L2 16L3 16L3 17L4 17L4 18L2 18L2 19L1 19L1 20L0 20L0 21L2 21L2 24L4 24L4 23L5 23L5 25L4 25L4 26L3 26L3 25L2 25L2 29L3 29L3 27L4 27L4 29L7 29L7 28L8 28L8 30L9 30L9 31L10 31L10 32L8 32L8 35L9 35L9 36L10 36L10 37L11 37L11 35L12 35L12 34L13 34L13 35L15 35L15 36L12 36L12 37L15 37L15 36L16 36L16 37L19 37L19 36L21 36L21 37L22 37L22 36L23 36L23 37L28 37L28 36L29 36L29 37L30 37L30 36L31 36L31 37L37 37L37 34L36 34L36 36L34 36L34 35L33 35L33 36L32 36L32 34L34 34L34 33L35 33L35 32L36 32L36 33L37 33L37 30L35 30L35 32L33 32L33 31L34 31L34 30L33 30L33 28L34 28L34 29L37 29L37 26L36 26L36 25L37 25L37 24L34 24L34 23L33 23L33 26L32 26L32 27L31 27L31 24L32 24L32 23L31 23L31 22L30 22L30 23L29 23L29 21L35 21L35 22L36 22L36 23L37 23L37 22L36 22L36 21L37 21L37 18L35 18L35 17L37 17L37 16L34 16L34 15L33 15L33 14L34 14L34 13L35 13L35 14L36 14L36 15L37 15L37 14L36 14L36 13L35 13L35 12L37 12L37 10L35 10L35 12L34 12L34 11L33 11L33 9L32 9L32 8L28 8L28 7L29 7L29 5L26 5L26 4L29 4L29 3L28 3L28 2L29 2L29 1L27 1L27 2L26 2L26 3L25 3L25 2L24 2L24 1L23 1L23 0L20 0L20 1L22 1L22 4L21 4L21 2L18 2L18 3L16 3L16 4L17 4L17 5L15 5L15 6L14 6L14 4L12 4L12 3L14 3L14 2L12 2L12 1L11 1L11 0ZM13 0L13 1L15 1L15 2L16 2L16 1L17 1L17 0L16 0L16 1L15 1L15 0ZM18 3L18 6L17 6L17 7L16 7L16 6L15 6L15 7L16 7L16 10L17 10L17 11L19 11L19 12L20 12L20 14L19 14L19 13L18 13L18 12L17 12L17 18L18 18L18 15L19 15L19 16L20 16L20 17L21 17L21 16L22 16L22 15L23 15L23 14L24 14L24 15L25 15L25 16L26 16L26 17L25 17L25 18L26 18L26 17L27 17L27 18L28 18L28 21L25 21L25 20L27 20L27 19L25 19L25 20L24 20L24 19L23 19L23 18L24 18L24 16L23 16L23 17L22 17L22 18L21 18L21 19L20 19L20 18L19 18L19 20L18 20L18 23L17 23L17 25L18 25L18 26L19 26L19 25L20 25L20 27L19 27L19 28L20 28L20 27L21 27L21 28L22 28L22 29L20 29L20 30L21 30L21 31L22 31L22 34L21 34L21 32L20 32L20 31L19 31L19 32L18 32L18 33L17 33L17 34L15 34L15 35L16 35L16 36L17 36L17 35L19 35L19 34L20 34L20 35L21 35L21 36L22 36L22 35L23 35L23 34L25 34L25 35L24 35L24 36L28 36L28 35L29 35L29 36L30 36L30 35L31 35L31 34L32 34L32 33L31 33L31 34L30 34L30 33L29 33L29 34L28 34L28 35L26 35L26 34L27 34L27 33L24 33L24 32L23 32L23 31L25 31L25 32L28 32L28 30L27 30L27 29L28 29L28 27L30 27L30 28L31 28L31 27L30 27L30 26L27 26L27 29L26 29L26 30L22 30L22 29L25 29L25 28L26 28L26 26L24 26L24 25L27 25L27 24L28 24L28 25L30 25L30 24L28 24L28 23L27 23L27 22L28 22L28 21L29 21L29 19L30 19L30 18L32 18L32 19L33 19L33 20L36 20L36 19L35 19L35 18L34 18L34 19L33 19L33 17L34 17L34 16L33 16L33 15L31 15L31 16L33 16L33 17L30 17L30 15L28 15L28 17L27 17L27 16L26 16L26 14L28 14L28 13L30 13L30 14L31 14L31 13L32 13L32 14L33 14L33 13L34 13L34 12L33 12L33 13L32 13L32 12L31 12L31 13L30 13L30 11L32 11L32 10L30 10L30 9L28 9L28 10L29 10L29 11L28 11L28 13L27 13L27 12L26 12L26 11L27 11L27 9L26 9L26 8L27 8L27 7L28 7L28 6L27 6L27 7L26 7L26 6L25 6L25 3L24 3L24 6L23 6L23 7L22 7L22 5L20 5L20 4L19 4L19 3ZM9 5L9 9L8 9L8 10L9 10L9 11L6 11L6 12L5 12L5 10L4 10L4 12L3 12L3 13L2 13L2 14L3 14L3 15L5 15L5 16L4 16L4 17L5 17L5 19L4 19L4 21L3 21L3 23L4 23L4 21L6 21L6 22L8 22L8 21L6 21L6 20L8 20L8 19L10 19L10 18L11 18L11 20L10 20L10 22L9 22L9 24L8 24L8 23L6 23L6 24L8 24L8 26L13 26L13 28L12 28L12 27L10 27L10 28L9 28L9 27L8 27L8 28L9 28L9 29L10 29L10 31L11 31L11 32L10 32L10 33L9 33L9 34L10 34L10 35L11 35L11 34L10 34L10 33L13 33L13 34L14 34L14 33L16 33L16 31L17 31L17 30L16 30L16 29L18 29L18 28L15 28L15 30L16 30L16 31L15 31L15 32L13 32L13 31L14 31L14 30L13 30L13 29L14 29L14 27L15 27L15 26L16 26L16 23L15 23L15 21L16 21L16 20L15 20L15 19L14 19L14 18L15 18L15 16L16 16L16 11L15 11L15 12L14 12L14 10L15 10L15 8L14 8L14 10L11 10L11 9L12 9L12 8L13 8L13 7L14 7L14 6L13 6L13 5L11 5L11 8L10 8L10 5ZM19 5L19 6L18 6L18 7L17 7L17 9L18 9L18 10L19 10L19 11L20 11L20 12L21 12L21 13L22 13L22 14L23 14L23 13L22 13L22 11L24 11L24 14L26 14L26 12L25 12L25 11L24 11L24 10L25 10L25 9L24 9L24 8L26 8L26 7L25 7L25 6L24 6L24 8L23 8L23 9L24 9L24 10L22 10L22 11L21 11L21 8L22 8L22 7L21 7L21 6L20 6L20 5ZM12 6L12 7L13 7L13 6ZM19 6L19 7L20 7L20 8L19 8L19 9L20 9L20 8L21 8L21 7L20 7L20 6ZM34 8L34 9L37 9L37 8ZM0 9L0 10L1 10L1 9ZM9 9L9 10L10 10L10 9ZM9 11L9 15L11 15L11 16L10 16L10 17L9 17L9 16L8 16L8 15L7 15L7 14L8 14L8 12L6 12L6 13L5 13L5 12L4 12L4 13L5 13L5 14L6 14L6 15L7 15L7 16L5 16L5 17L7 17L7 18L6 18L6 19L5 19L5 20L6 20L6 19L8 19L8 18L10 18L10 17L11 17L11 18L12 18L12 17L13 17L13 18L14 18L14 17L13 17L13 16L15 16L15 13L14 13L14 15L13 15L13 14L10 14L10 13L13 13L13 11L11 11L11 12L10 12L10 11ZM6 13L6 14L7 14L7 13ZM20 14L20 15L21 15L21 14ZM12 15L12 16L13 16L13 15ZM0 17L0 18L1 18L1 17ZM28 17L28 18L30 18L30 17ZM2 19L2 20L3 20L3 19ZM12 19L12 21L11 21L11 22L10 22L10 23L11 23L11 22L12 22L12 21L13 21L13 22L14 22L14 21L15 21L15 20L14 20L14 19ZM22 19L22 20L20 20L20 21L19 21L19 22L20 22L20 23L19 23L19 24L18 24L18 25L19 25L19 24L20 24L20 23L22 23L22 24L21 24L21 27L22 27L22 28L23 28L23 27L22 27L22 26L23 26L23 22L24 22L24 21L23 21L23 22L21 22L21 21L22 21L22 20L23 20L23 19ZM13 20L13 21L14 21L14 20ZM0 22L0 23L1 23L1 22ZM12 23L12 24L13 24L13 25L15 25L15 23L14 23L14 24L13 24L13 23ZM24 23L24 24L25 24L25 23ZM26 23L26 24L27 24L27 23ZM0 24L0 29L1 29L1 24ZM9 24L9 25L11 25L11 24ZM6 25L6 26L7 26L7 25ZM34 25L34 28L36 28L36 26L35 26L35 25ZM5 27L5 28L7 28L7 27ZM24 27L24 28L25 28L25 27ZM32 27L32 28L33 28L33 27ZM11 28L11 31L12 31L12 28ZM29 29L29 32L32 32L32 29ZM30 30L30 31L31 31L31 30ZM19 32L19 33L18 33L18 34L19 34L19 33L20 33L20 32ZM29 34L29 35L30 35L30 34ZM0 0L0 7L7 7L7 0ZM1 1L1 6L6 6L6 1ZM2 2L2 5L5 5L5 2ZM30 0L30 7L37 7L37 0ZM31 1L31 6L36 6L36 1ZM32 2L32 5L35 5L35 2ZM0 30L0 37L7 37L7 30ZM1 31L1 36L6 36L6 31ZM2 32L2 35L5 35L5 32Z" fill="#000000"/></g></g></svg>
