<?xml version="1.0" encoding="UTF-8"?>
<svg xmlns="http://www.w3.org/2000/svg" version="1.1" width="200" height="200" viewBox="0 0 200 200"><rect x="0" y="0" width="200" height="200" fill="#ffffff"/><g transform="scale(5.405)"><g transform="translate(0,0)"><path fill-rule="evenodd" d="M9 0L9 1L10 1L10 2L8 2L8 4L9 4L9 5L10 5L10 7L9 7L9 6L8 6L8 7L9 7L9 8L11 8L11 6L12 6L12 10L11 10L11 11L13 11L13 12L15 12L15 14L14 14L14 15L13 15L13 13L12 13L12 12L10 12L10 9L9 9L9 11L8 11L8 10L5 10L5 8L3 8L3 9L2 9L2 10L1 10L1 9L0 9L0 13L1 13L1 11L3 11L3 12L5 12L5 11L7 11L7 12L6 12L6 13L7 13L7 14L5 14L5 13L4 13L4 16L5 16L5 17L7 17L7 16L6 16L6 15L7 15L7 14L8 14L8 15L9 15L9 16L8 16L8 17L9 17L9 16L10 16L10 15L11 15L11 16L12 16L12 17L11 17L11 18L8 18L8 20L6 20L6 19L7 19L7 18L4 18L4 17L3 17L3 16L2 16L2 17L1 17L1 14L0 14L0 17L1 17L1 18L0 18L0 19L1 19L1 20L0 20L0 22L1 22L1 25L0 25L0 29L1 29L1 27L2 27L2 28L4 28L4 29L5 29L5 28L6 28L6 29L7 29L7 28L6 28L6 27L7 27L7 26L8 26L8 27L9 27L9 29L8 29L8 31L9 31L9 32L8 32L8 34L9 34L9 35L10 35L10 36L9 36L9 37L10 37L10 36L11 36L11 35L12 35L12 34L13 34L13 36L15 36L15 35L14 35L14 34L18 34L18 33L19 33L19 32L21 32L21 33L22 33L22 35L21 35L21 36L20 36L20 37L21 37L21 36L22 36L22 37L23 37L23 33L22 33L22 32L21 32L21 31L23 31L23 32L24 32L24 33L25 33L25 32L26 32L26 31L27 31L27 30L28 30L28 32L27 32L27 34L26 34L26 35L27 35L27 37L30 37L30 36L32 36L32 35L34 35L34 36L33 36L33 37L34 37L34 36L36 36L36 37L37 37L37 34L35 34L35 33L37 33L37 32L35 32L35 33L34 33L34 34L32 34L32 33L33 33L33 30L35 30L35 31L37 31L37 30L35 30L35 29L37 29L37 28L35 28L35 27L37 27L37 26L35 26L35 27L34 27L34 29L33 29L33 27L31 27L31 26L34 26L34 24L35 24L35 25L37 25L37 22L36 22L36 21L37 21L37 18L36 18L36 17L37 17L37 16L35 16L35 14L36 14L36 15L37 15L37 14L36 14L36 13L37 13L37 12L36 12L36 11L37 11L37 10L36 10L36 9L35 9L35 8L33 8L33 10L34 10L34 12L36 12L36 13L35 13L35 14L34 14L34 19L35 19L35 18L36 18L36 20L35 20L35 21L33 21L33 20L29 20L29 19L31 19L31 18L30 18L30 17L32 17L32 16L33 16L33 15L31 15L31 14L33 14L33 13L31 13L31 12L33 12L33 11L31 11L31 10L32 10L32 9L30 9L30 11L29 11L29 9L28 9L28 10L27 10L27 5L26 5L26 4L27 4L27 0L25 0L25 1L24 1L24 0L23 0L23 2L20 2L20 3L19 3L19 1L21 1L21 0L19 0L19 1L18 1L18 0L16 0L16 1L17 1L17 2L15 2L15 0L13 0L13 1L14 1L14 2L11 2L11 1L10 1L10 0ZM28 0L28 1L29 1L29 0ZM25 1L25 2L24 2L24 3L23 3L23 4L22 4L22 5L21 5L21 7L20 7L20 6L19 6L19 3L14 3L14 4L13 4L13 3L11 3L11 4L10 4L10 5L11 5L11 4L13 4L13 5L12 5L12 6L13 6L13 8L14 8L14 6L15 6L15 7L16 7L16 6L17 6L17 10L16 10L16 11L17 11L17 12L16 12L16 15L14 15L14 16L13 16L13 17L12 17L12 19L13 19L13 20L12 20L12 22L11 22L11 20L10 20L10 19L9 19L9 22L11 22L11 23L8 23L8 24L7 24L7 23L6 23L6 24L5 24L5 23L4 23L4 22L8 22L8 21L6 21L6 20L5 20L5 21L4 21L4 19L3 19L3 17L2 17L2 18L1 18L1 19L3 19L3 21L2 21L2 22L3 22L3 23L2 23L2 25L1 25L1 26L2 26L2 27L4 27L4 26L5 26L5 25L6 25L6 26L7 26L7 25L8 25L8 24L9 24L9 25L10 25L10 26L9 26L9 27L10 27L10 29L9 29L9 31L10 31L10 32L9 32L9 34L10 34L10 35L11 35L11 34L10 34L10 32L11 32L11 33L12 33L12 32L13 32L13 34L14 34L14 33L15 33L15 32L13 32L13 30L14 30L14 31L16 31L16 32L17 32L17 33L18 33L18 30L19 30L19 31L21 31L21 30L19 30L19 29L22 29L22 28L24 28L24 29L23 29L23 30L24 30L24 31L25 31L25 30L24 30L24 29L25 29L25 28L27 28L27 29L28 29L28 28L31 28L31 27L30 27L30 26L29 26L29 27L28 27L28 25L25 25L25 24L26 24L26 22L27 22L27 20L28 20L28 21L29 21L29 22L28 22L28 23L27 23L27 24L30 24L30 23L29 23L29 22L31 22L31 21L29 21L29 20L28 20L28 19L29 19L29 17L30 17L30 15L29 15L29 12L28 12L28 11L27 11L27 12L28 12L28 15L29 15L29 16L28 16L28 19L26 19L26 20L25 20L25 19L24 19L24 20L25 20L25 21L23 21L23 19L21 19L21 20L22 20L22 21L23 21L23 22L24 22L24 23L25 23L25 24L23 24L23 25L22 25L22 24L21 24L21 23L20 23L20 22L21 22L21 21L20 21L20 19L19 19L19 15L20 15L20 17L21 17L21 18L22 18L22 17L23 17L23 18L25 18L25 16L27 16L27 15L24 15L24 14L26 14L26 9L24 9L24 8L26 8L26 6L25 6L25 7L24 7L24 6L23 6L23 4L24 4L24 5L25 5L25 4L24 4L24 3L25 3L25 2L26 2L26 1ZM14 4L14 5L15 5L15 4ZM16 4L16 5L17 5L17 4ZM28 5L28 7L29 7L29 5ZM18 6L18 15L17 15L17 16L18 16L18 15L19 15L19 13L20 13L20 14L21 14L21 12L20 12L20 10L22 10L22 16L21 16L21 17L22 17L22 16L23 16L23 17L24 17L24 16L23 16L23 10L24 10L24 9L23 9L23 10L22 10L22 9L21 9L21 8L20 8L20 7L19 7L19 6ZM22 6L22 7L23 7L23 8L24 8L24 7L23 7L23 6ZM6 8L6 9L8 9L8 8ZM15 8L15 9L16 9L16 8ZM3 9L3 10L4 10L4 9ZM19 9L19 10L20 10L20 9ZM14 10L14 11L15 11L15 10ZM24 11L24 12L25 12L25 11ZM30 11L30 12L31 12L31 11ZM7 12L7 13L8 13L8 12ZM9 12L9 15L10 15L10 12ZM30 13L30 14L31 14L31 13ZM2 14L2 15L3 15L3 14ZM11 14L11 15L12 15L12 14ZM14 16L14 18L13 18L13 19L14 19L14 20L13 20L13 22L12 22L12 23L13 23L13 24L12 24L12 25L13 25L13 24L16 24L16 25L15 25L15 26L10 26L10 27L15 27L15 28L16 28L16 27L15 27L15 26L16 26L16 25L17 25L17 27L18 27L18 28L17 28L17 29L14 29L14 30L16 30L16 31L17 31L17 30L18 30L18 29L19 29L19 28L22 28L22 26L21 26L21 25L20 25L20 24L19 24L19 23L18 23L18 24L17 24L17 23L15 23L15 21L16 21L16 22L17 22L17 20L19 20L19 19L17 19L17 20L15 20L15 18L16 18L16 17L15 17L15 16ZM32 18L32 19L33 19L33 18ZM3 21L3 22L4 22L4 21ZM18 21L18 22L20 22L20 21ZM33 22L33 24L34 24L34 22ZM3 23L3 24L4 24L4 25L2 25L2 26L4 26L4 25L5 25L5 24L4 24L4 23ZM31 23L31 24L32 24L32 23ZM6 24L6 25L7 25L7 24ZM24 25L24 26L25 26L25 27L24 27L24 28L25 28L25 27L27 27L27 28L28 28L28 27L27 27L27 26L25 26L25 25ZM18 26L18 27L19 27L19 26ZM20 26L20 27L21 27L21 26ZM11 28L11 29L10 29L10 31L11 31L11 32L12 32L12 31L11 31L11 29L13 29L13 28ZM29 29L29 32L32 32L32 29ZM30 30L30 31L31 31L31 30ZM19 34L19 35L16 35L16 36L17 36L17 37L18 37L18 36L19 36L19 35L20 35L20 34ZM24 34L24 35L25 35L25 34ZM27 34L27 35L28 35L28 36L29 36L29 34ZM30 34L30 35L32 35L32 34ZM24 36L24 37L25 37L25 36ZM0 0L0 7L7 7L7 0ZM1 1L1 6L6 6L6 1ZM2 2L2 5L5 5L5 2ZM30 0L30 7L37 7L37 0ZM31 1L31 6L36 6L36 1ZM32 2L32 5L35 5L35 2ZM0 30L0 37L7 37L7 30ZM1 31L1 36L6 36L6 31ZM2 32L2 35L5 35L5 32Z" fill="#000000"/></g></g></svg>
