<?xml version="1.0" encoding="UTF-8"?>
<svg xmlns="http://www.w3.org/2000/svg" version="1.1" width="200" height="200" viewBox="0 0 200 200"><rect x="0" y="0" width="200" height="200" fill="#ffffff"/><g transform="scale(5.405)"><g transform="translate(0,0)"><path fill-rule="evenodd" d="M8 0L8 3L9 3L9 5L8 5L8 10L5 10L5 11L4 11L4 13L3 13L3 9L5 9L5 8L2 8L2 9L1 9L1 10L2 10L2 14L4 14L4 15L5 15L5 18L6 18L6 19L7 19L7 20L5 20L5 19L4 19L4 16L3 16L3 18L1 18L1 16L2 16L2 15L0 15L0 18L1 18L1 19L2 19L2 20L3 20L3 22L1 22L1 23L0 23L0 29L1 29L1 26L2 26L2 29L8 29L8 30L9 30L9 31L10 31L10 32L8 32L8 35L9 35L9 37L10 37L10 35L11 35L11 34L13 34L13 35L12 35L12 36L11 36L11 37L12 37L12 36L13 36L13 35L14 35L14 37L19 37L19 36L18 36L18 35L21 35L21 36L22 36L22 37L24 37L24 35L25 35L25 34L23 34L23 36L22 36L22 35L21 35L21 34L22 34L22 32L21 32L21 34L20 34L20 33L19 33L19 32L20 32L20 31L19 31L19 30L21 30L21 31L22 31L22 30L28 30L28 32L25 32L25 31L23 31L23 32L24 32L24 33L30 33L30 34L29 34L29 35L28 35L28 34L26 34L26 36L25 36L25 37L26 37L26 36L27 36L27 37L28 37L28 36L29 36L29 37L37 37L37 34L36 34L36 36L34 36L34 35L35 35L35 34L34 34L34 33L35 33L35 32L37 32L37 30L36 30L36 29L37 29L37 26L36 26L36 25L37 25L37 22L36 22L36 21L37 21L37 18L33 18L33 19L32 19L32 18L30 18L30 17L37 17L37 14L36 14L36 13L35 13L35 12L37 12L37 10L36 10L36 9L37 9L37 8L34 8L34 9L32 9L32 8L29 8L29 6L28 6L28 5L29 5L29 4L28 4L28 3L29 3L29 2L28 2L28 1L27 1L27 2L26 2L26 1L24 1L24 0L21 0L21 1L22 1L22 2L23 2L23 3L22 3L22 5L20 5L20 4L21 4L21 2L20 2L20 3L18 3L18 2L19 2L19 1L20 1L20 0L19 0L19 1L18 1L18 0L17 0L17 1L18 1L18 2L16 2L16 3L15 3L15 4L16 4L16 7L17 7L17 8L15 8L15 6L14 6L14 5L12 5L12 1L13 1L13 0L11 0L11 1L9 1L9 0ZM14 0L14 1L15 1L15 0ZM23 1L23 2L24 2L24 3L23 3L23 5L22 5L22 6L21 6L21 8L20 8L20 5L19 5L19 8L17 8L17 9L16 9L16 10L18 10L18 12L16 12L16 13L15 13L15 15L17 15L17 17L18 17L18 18L17 18L17 19L16 19L16 21L15 21L15 20L10 20L10 21L11 21L11 22L9 22L9 21L8 21L8 20L7 20L7 21L6 21L6 22L7 22L7 23L5 23L5 22L3 22L3 24L4 24L4 25L2 25L2 24L1 24L1 25L2 25L2 26L3 26L3 28L5 28L5 26L7 26L7 27L6 27L6 28L8 28L8 29L9 29L9 25L10 25L10 24L9 24L9 23L11 23L11 24L13 24L13 23L15 23L15 22L16 22L16 25L11 25L11 26L10 26L10 28L11 28L11 30L10 30L10 31L11 31L11 30L12 30L12 28L11 28L11 26L12 26L12 27L13 27L13 26L16 26L16 27L15 27L15 28L16 28L16 29L13 29L13 31L12 31L12 32L11 32L11 33L9 33L9 35L10 35L10 34L11 34L11 33L16 33L16 34L17 34L17 35L15 35L15 34L14 34L14 35L15 35L15 36L17 36L17 35L18 35L18 34L17 34L17 32L18 32L18 31L17 31L17 32L15 32L15 31L16 31L16 30L19 30L19 29L20 29L20 27L21 27L21 28L22 28L22 27L21 27L21 26L20 26L20 27L19 27L19 28L16 28L16 27L17 27L17 26L18 26L18 25L21 25L21 24L22 24L22 25L23 25L23 29L25 29L25 28L26 28L26 29L28 29L28 27L30 27L30 28L33 28L33 29L34 29L34 30L33 30L33 32L35 32L35 31L36 31L36 30L35 30L35 29L34 29L34 28L36 28L36 26L35 26L35 25L34 25L34 26L33 26L33 23L34 23L34 24L36 24L36 22L35 22L35 21L32 21L32 20L31 20L31 21L30 21L30 18L29 18L29 17L30 17L30 15L29 15L29 14L28 14L28 13L30 13L30 14L33 14L33 15L32 15L32 16L35 16L35 15L36 15L36 14L35 14L35 13L34 13L34 14L33 14L33 13L30 13L30 12L31 12L31 11L32 11L32 10L31 10L31 11L28 11L28 13L27 13L27 11L24 11L24 9L25 9L25 10L27 10L27 9L26 9L26 8L27 8L27 7L28 7L28 6L27 6L27 7L26 7L26 6L25 6L25 5L24 5L24 3L26 3L26 4L27 4L27 5L28 5L28 4L27 4L27 3L28 3L28 2L27 2L27 3L26 3L26 2L24 2L24 1ZM10 2L10 3L11 3L11 2ZM13 3L13 4L14 4L14 3ZM17 4L17 5L18 5L18 4ZM10 5L10 6L9 6L9 8L12 8L12 10L11 10L11 9L10 9L10 10L9 10L9 11L6 11L6 12L8 12L8 14L7 14L7 13L4 13L4 14L7 14L7 15L6 15L6 16L7 16L7 17L6 17L6 18L8 18L8 19L11 19L11 18L12 18L12 19L15 19L15 18L16 18L16 16L14 16L14 13L13 13L13 11L15 11L15 10L13 10L13 9L15 9L15 8L14 8L14 6L13 6L13 8L12 8L12 5ZM10 6L10 7L11 7L11 6ZM17 6L17 7L18 7L18 6ZM22 6L22 9L21 9L21 10L20 10L20 9L19 9L19 10L20 10L20 12L19 12L19 13L17 13L17 14L18 14L18 17L19 17L19 18L18 18L18 19L17 19L17 20L18 20L18 21L17 21L17 24L18 24L18 21L19 21L19 20L20 20L20 22L19 22L19 23L20 23L20 24L21 24L21 23L22 23L22 24L23 24L23 25L24 25L24 26L26 26L26 28L27 28L27 26L30 26L30 27L32 27L32 26L31 26L31 24L32 24L32 21L31 21L31 22L30 22L30 21L29 21L29 20L28 20L28 19L29 19L29 18L27 18L27 17L29 17L29 15L28 15L28 14L26 14L26 12L23 12L23 11L22 11L22 9L24 9L24 8L26 8L26 7L25 7L25 6L24 6L24 8L23 8L23 6ZM6 8L6 9L7 9L7 8ZM28 9L28 10L30 10L30 9ZM34 10L34 11L33 11L33 12L35 12L35 11L36 11L36 10ZM0 11L0 13L1 13L1 11ZM9 11L9 12L10 12L10 13L9 13L9 15L7 15L7 16L10 16L10 17L8 17L8 18L11 18L11 16L13 16L13 17L14 17L14 16L13 16L13 15L11 15L11 16L10 16L10 14L11 14L11 13L12 13L12 11ZM22 12L22 13L21 13L21 14L20 14L20 13L19 13L19 14L20 14L20 18L19 18L19 19L18 19L18 20L19 20L19 19L20 19L20 20L21 20L21 21L22 21L22 18L23 18L23 20L24 20L24 18L26 18L26 17L27 17L27 16L26 16L26 14L25 14L25 13L24 13L24 14L22 14L22 13L23 13L23 12ZM24 14L24 15L25 15L25 14ZM22 15L22 17L21 17L21 18L22 18L22 17L23 17L23 18L24 18L24 17L23 17L23 15ZM25 16L25 17L26 17L26 16ZM25 19L25 20L26 20L26 21L25 21L25 23L24 23L24 25L27 25L27 24L28 24L28 25L30 25L30 24L28 24L28 23L27 23L27 22L29 22L29 23L30 23L30 22L29 22L29 21L28 21L28 20L27 20L27 19ZM33 19L33 20L36 20L36 19ZM0 20L0 21L1 21L1 20ZM4 20L4 21L5 21L5 20ZM7 21L7 22L8 22L8 21ZM14 21L14 22L15 22L15 21ZM26 21L26 22L27 22L27 21ZM12 22L12 23L13 23L13 22ZM20 22L20 23L21 23L21 22ZM34 22L34 23L35 23L35 22ZM4 23L4 24L5 24L5 23ZM7 23L7 24L6 24L6 25L7 25L7 26L8 26L8 25L9 25L9 24L8 24L8 23ZM26 23L26 24L27 24L27 23ZM34 26L34 27L33 27L33 28L34 28L34 27L35 27L35 26ZM24 27L24 28L25 28L25 27ZM29 29L29 32L32 32L32 29ZM14 30L14 31L13 31L13 32L14 32L14 31L15 31L15 30ZM30 30L30 31L31 31L31 30ZM30 34L30 35L32 35L32 36L33 36L33 35L34 35L34 34ZM27 35L27 36L28 36L28 35ZM0 0L0 7L7 7L7 0ZM1 1L1 6L6 6L6 1ZM2 2L2 5L5 5L5 2ZM30 0L30 7L37 7L37 0ZM31 1L31 6L36 6L36 1ZM32 2L32 5L35 5L35 2ZM0 30L0 37L7 37L7 30ZM1 31L1 36L6 36L6 31ZM2 32L2 35L5 35L5 32Z" fill="#000000"/></g></g></svg>
