<?xml version="1.0" encoding="UTF-8"?>
<svg xmlns="http://www.w3.org/2000/svg" version="1.1" width="200" height="200" viewBox="0 0 200 200"><rect x="0" y="0" width="200" height="200" fill="#ffffff"/><g transform="scale(5.405)"><g transform="translate(0,0)"><path fill-rule="evenodd" d="M10 0L10 1L8 1L8 2L9 2L9 3L10 3L10 4L9 4L9 5L8 5L8 8L4 8L4 9L1 9L1 10L0 10L0 11L2 11L2 12L3 12L3 13L4 13L4 14L6 14L6 15L7 15L7 16L5 16L5 15L3 15L3 14L2 14L2 13L1 13L1 16L0 16L0 19L1 19L1 20L0 20L0 21L1 21L1 20L2 20L2 22L0 22L0 23L1 23L1 25L0 25L0 26L2 26L2 27L3 27L3 28L5 28L5 25L4 25L4 23L3 23L3 24L2 24L2 22L4 22L4 21L3 21L3 18L4 18L4 16L5 16L5 17L7 17L7 18L6 18L6 19L4 19L4 20L5 20L5 21L7 21L7 20L8 20L8 17L9 17L9 18L10 18L10 19L9 19L9 20L10 20L10 21L8 21L8 22L6 22L6 23L8 23L8 25L7 25L7 24L6 24L6 25L7 25L7 26L6 26L6 27L11 27L11 26L10 26L10 25L12 25L12 27L13 27L13 24L11 24L11 22L10 22L10 21L11 21L11 20L12 20L12 19L14 19L14 20L13 20L13 21L12 21L12 23L14 23L14 24L15 24L15 25L16 25L16 26L17 26L17 25L18 25L18 26L20 26L20 27L18 27L18 29L19 29L19 32L18 32L18 33L19 33L19 34L21 34L21 35L22 35L22 37L25 37L25 35L24 35L24 36L23 36L23 34L22 34L22 33L23 33L23 32L22 32L22 31L25 31L25 30L24 30L24 29L25 29L25 28L24 28L24 27L25 27L25 25L27 25L27 24L28 24L28 21L31 21L31 23L32 23L32 22L33 22L33 21L34 21L34 23L33 23L33 24L30 24L30 25L28 25L28 27L29 27L29 28L27 28L27 26L26 26L26 28L27 28L27 29L26 29L26 30L28 30L28 31L27 31L27 32L26 32L26 33L25 33L25 32L24 32L24 33L25 33L25 34L26 34L26 36L27 36L27 35L31 35L31 36L32 36L32 35L31 35L31 33L33 33L33 36L34 36L34 37L37 37L37 36L36 36L36 34L35 34L35 35L34 35L34 33L37 33L37 31L35 31L35 30L34 30L34 31L33 31L33 29L37 29L37 28L35 28L35 27L36 27L36 25L37 25L37 23L36 23L36 21L37 21L37 20L36 20L36 19L35 19L35 18L34 18L34 17L35 17L35 15L36 15L36 17L37 17L37 15L36 15L36 13L37 13L37 11L36 11L36 8L35 8L35 10L34 10L34 13L35 13L35 15L34 15L34 14L33 14L33 13L32 13L32 12L33 12L33 10L32 10L32 11L30 11L30 13L29 13L29 11L28 11L28 10L27 10L27 9L26 9L26 7L27 7L27 6L26 6L26 7L25 7L25 6L24 6L24 5L25 5L25 4L26 4L26 3L25 3L25 4L23 4L23 2L22 2L22 3L21 3L21 2L20 2L20 3L21 3L21 4L23 4L23 6L22 6L22 7L21 7L21 6L20 6L20 7L19 7L19 5L20 5L20 4L19 4L19 3L18 3L18 4L17 4L17 5L18 5L18 8L17 8L17 10L16 10L16 9L15 9L15 8L16 8L16 7L17 7L17 6L16 6L16 7L15 7L15 5L16 5L16 3L17 3L17 2L18 2L18 1L20 1L20 0L16 0L16 1L15 1L15 3L14 3L14 2L13 2L13 1L14 1L14 0L13 0L13 1L12 1L12 0ZM22 0L22 1L24 1L24 2L27 2L27 1L28 1L28 0L26 0L26 1L25 1L25 0ZM11 1L11 2L10 2L10 3L11 3L11 4L10 4L10 5L11 5L11 7L12 7L12 5L11 5L11 4L13 4L13 8L15 8L15 7L14 7L14 5L15 5L15 4L13 4L13 3L12 3L12 1ZM16 1L16 2L17 2L17 1ZM28 2L28 3L27 3L27 5L28 5L28 3L29 3L29 2ZM9 6L9 7L10 7L10 6ZM23 6L23 7L22 7L22 8L21 8L21 7L20 7L20 8L19 8L19 9L18 9L18 10L21 10L21 9L22 9L22 13L23 13L23 11L24 11L24 14L22 14L22 15L19 15L19 18L18 18L18 14L17 14L17 18L18 18L18 19L17 19L17 20L14 20L14 21L13 21L13 22L14 22L14 23L15 23L15 22L17 22L17 21L18 21L18 20L19 20L19 18L21 18L21 19L20 19L20 21L19 21L19 25L21 25L21 24L22 24L22 23L21 23L21 24L20 24L20 21L23 21L23 22L25 22L25 23L23 23L23 25L22 25L22 26L21 26L21 27L22 27L22 29L21 29L21 30L20 30L20 33L21 33L21 31L22 31L22 29L24 29L24 28L23 28L23 26L24 26L24 25L25 25L25 24L26 24L26 23L27 23L27 21L28 21L28 19L31 19L31 17L33 17L33 14L32 14L32 13L30 13L30 14L29 14L29 13L28 13L28 12L27 12L27 13L28 13L28 14L29 14L29 15L28 15L28 16L27 16L27 17L26 17L26 11L25 11L25 9L24 9L24 8L23 8L23 7L24 7L24 6ZM28 6L28 7L29 7L29 6ZM8 8L8 10L9 10L9 11L6 11L6 10L7 10L7 9L6 9L6 10L5 10L5 9L4 9L4 10L5 10L5 11L6 11L6 12L4 12L4 13L6 13L6 14L7 14L7 13L6 13L6 12L9 12L9 11L10 11L10 13L8 13L8 14L9 14L9 15L8 15L8 16L9 16L9 17L10 17L10 16L12 16L12 15L13 15L13 17L14 17L14 18L15 18L15 17L16 17L16 15L15 15L15 17L14 17L14 14L13 14L13 11L14 11L14 12L15 12L15 14L16 14L16 13L17 13L17 12L18 12L18 13L19 13L19 14L21 14L21 13L20 13L20 12L21 12L21 11L20 11L20 12L18 12L18 11L17 11L17 12L16 12L16 11L14 11L14 10L15 10L15 9L13 9L13 10L12 10L12 9L10 9L10 8ZM22 8L22 9L23 9L23 8ZM28 8L28 9L29 9L29 8ZM30 8L30 10L31 10L31 9L32 9L32 8ZM9 9L9 10L10 10L10 11L12 11L12 10L10 10L10 9ZM11 12L11 13L10 13L10 14L11 14L11 15L12 15L12 14L11 14L11 13L12 13L12 12ZM35 12L35 13L36 13L36 12ZM31 14L31 16L30 16L30 15L29 15L29 17L27 17L27 19L26 19L26 17L25 17L25 18L24 18L24 20L23 20L23 21L24 21L24 20L25 20L25 19L26 19L26 21L25 21L25 22L26 22L26 21L27 21L27 19L28 19L28 18L29 18L29 17L31 17L31 16L32 16L32 14ZM9 15L9 16L10 16L10 15ZM23 15L23 16L24 16L24 15ZM1 16L1 18L3 18L3 17L2 17L2 16ZM20 16L20 17L22 17L22 16ZM11 18L11 19L12 19L12 18ZM22 18L22 19L21 19L21 20L22 20L22 19L23 19L23 18ZM32 18L32 19L34 19L34 18ZM6 19L6 20L7 20L7 19ZM31 20L31 21L33 21L33 20ZM8 22L8 23L10 23L10 22ZM29 22L29 23L30 23L30 22ZM16 23L16 25L17 25L17 23ZM9 24L9 25L10 25L10 24ZM33 24L33 26L34 26L34 27L35 27L35 25L36 25L36 24L35 24L35 25L34 25L34 24ZM3 25L3 27L4 27L4 25ZM14 26L14 27L15 27L15 26ZM29 26L29 27L30 27L30 28L33 28L33 27L31 27L31 26ZM0 28L0 29L2 29L2 28ZM6 28L6 29L7 29L7 28ZM8 28L8 33L10 33L10 32L11 32L11 34L12 34L12 35L13 35L13 36L14 36L14 35L15 35L15 34L17 34L17 31L16 31L16 30L15 30L15 28L13 28L13 29L12 29L12 31L9 31L9 29L11 29L11 28ZM19 28L19 29L20 29L20 28ZM29 29L29 32L32 32L32 29ZM13 30L13 31L14 31L14 32L12 32L12 34L13 34L13 35L14 35L14 34L13 34L13 33L14 33L14 32L16 32L16 31L15 31L15 30ZM30 30L30 31L31 31L31 30ZM27 32L27 33L26 33L26 34L28 34L28 32ZM9 35L9 36L10 36L10 37L11 37L11 36L10 36L10 35ZM16 35L16 36L15 36L15 37L16 37L16 36L17 36L17 37L18 37L18 35ZM20 36L20 37L21 37L21 36ZM0 0L0 7L7 7L7 0ZM1 1L1 6L6 6L6 1ZM2 2L2 5L5 5L5 2ZM30 0L30 7L37 7L37 0ZM31 1L31 6L36 6L36 1ZM32 2L32 5L35 5L35 2ZM0 30L0 37L7 37L7 30ZM1 31L1 36L6 36L6 31ZM2 32L2 35L5 35L5 32Z" fill="#000000"/></g></g></svg>
