<?xml version="1.0" encoding="UTF-8"?>
<svg xmlns="http://www.w3.org/2000/svg" version="1.1" width="200" height="200" viewBox="0 0 200 200"><rect x="0" y="0" width="200" height="200" fill="#ffffff"/><g transform="scale(5.405)"><g transform="translate(0,0)"><path fill-rule="evenodd" d="M8 0L8 3L9 3L9 5L8 5L8 9L7 9L7 8L6 8L6 9L7 9L7 10L6 10L6 11L7 11L7 12L5 12L5 13L4 13L4 12L3 12L3 14L2 14L2 13L1 13L1 14L2 14L2 17L1 17L1 16L0 16L0 17L1 17L1 18L2 18L2 19L5 19L5 18L6 18L6 19L7 19L7 20L6 20L6 21L8 21L8 22L6 22L6 23L3 23L3 22L4 22L4 21L3 21L3 22L2 22L2 20L0 20L0 21L1 21L1 22L0 22L0 23L1 23L1 24L0 24L0 29L1 29L1 25L2 25L2 26L3 26L3 27L2 27L2 28L3 28L3 27L4 27L4 28L5 28L5 29L7 29L7 28L9 28L9 29L8 29L8 30L9 30L9 31L11 31L11 32L8 32L8 35L12 35L12 36L10 36L10 37L12 37L12 36L14 36L14 37L18 37L18 36L19 36L19 34L18 34L18 33L17 33L17 34L16 34L16 35L18 35L18 36L14 36L14 35L15 35L15 34L14 34L14 33L16 33L16 32L17 32L17 31L16 31L16 32L13 32L13 35L12 35L12 31L13 31L13 30L14 30L14 31L15 31L15 30L16 30L16 29L15 29L15 30L14 30L14 27L15 27L15 28L16 28L16 27L15 27L15 26L17 26L17 27L18 27L18 29L17 29L17 30L18 30L18 31L19 31L19 32L20 32L20 34L23 34L23 35L21 35L21 36L20 36L20 37L24 37L24 35L27 35L27 34L31 34L31 35L28 35L28 36L27 36L27 37L28 37L28 36L29 36L29 37L37 37L37 34L36 34L36 36L34 36L34 35L35 35L35 34L34 34L34 33L37 33L37 30L34 30L34 29L35 29L35 28L34 28L34 27L35 27L35 26L36 26L36 27L37 27L37 26L36 26L36 25L37 25L37 24L34 24L34 23L35 23L35 22L36 22L36 23L37 23L37 22L36 22L36 21L37 21L37 18L34 18L34 17L37 17L37 16L34 16L34 15L35 15L35 14L36 14L36 15L37 15L37 14L36 14L36 13L37 13L37 10L35 10L35 11L36 11L36 12L34 12L34 11L33 11L33 10L34 10L34 9L37 9L37 8L34 8L34 9L32 9L32 8L29 8L29 5L27 5L27 4L29 4L29 1L27 1L27 2L26 2L26 3L25 3L25 2L23 2L23 1L24 1L24 0L23 0L23 1L22 1L22 0L19 0L19 1L18 1L18 3L21 3L21 2L23 2L23 3L22 3L22 4L23 4L23 5L21 5L21 4L17 4L17 0L13 0L13 1L15 1L15 2L13 2L13 3L12 3L12 4L13 4L13 5L11 5L11 4L10 4L10 3L11 3L11 0L10 0L10 3L9 3L9 0ZM19 1L19 2L21 2L21 1ZM15 2L15 3L14 3L14 4L15 4L15 5L16 5L16 6L15 6L15 7L14 7L14 5L13 5L13 8L15 8L15 9L14 9L14 11L15 11L15 10L16 10L16 9L17 9L17 13L18 13L18 10L20 10L20 11L19 11L19 13L20 13L20 11L22 11L22 10L21 10L21 9L22 9L22 8L24 8L24 9L23 9L23 12L21 12L21 13L23 13L23 15L22 15L22 14L21 14L21 15L20 15L20 14L19 14L19 16L18 16L18 14L16 14L16 15L17 15L17 16L18 16L18 17L19 17L19 18L18 18L18 19L16 19L16 18L17 18L17 17L16 17L16 18L15 18L15 14L14 14L14 15L13 15L13 13L14 13L14 12L13 12L13 11L12 11L12 10L13 10L13 9L12 9L12 6L11 6L11 5L9 5L9 7L10 7L10 9L11 9L11 12L12 12L12 15L13 15L13 16L14 16L14 17L13 17L13 18L15 18L15 19L12 19L12 16L11 16L11 13L10 13L10 10L9 10L9 9L8 9L8 12L7 12L7 13L6 13L6 14L4 14L4 15L3 15L3 17L4 17L4 18L5 18L5 17L6 17L6 18L7 18L7 19L8 19L8 20L9 20L9 21L11 21L11 22L10 22L10 26L9 26L9 25L8 25L8 24L9 24L9 23L6 23L6 24L5 24L5 25L6 25L6 26L4 26L4 27L6 27L6 28L7 28L7 27L6 27L6 26L7 26L7 25L8 25L8 27L11 27L11 28L10 28L10 29L11 29L11 28L12 28L12 30L13 30L13 28L12 28L12 27L11 27L11 25L12 25L12 26L13 26L13 27L14 27L14 24L11 24L11 22L12 22L12 21L11 21L11 20L13 20L13 22L14 22L14 23L16 23L16 22L15 22L15 21L16 21L16 20L17 20L17 21L18 21L18 22L17 22L17 25L18 25L18 24L19 24L19 22L20 22L20 24L21 24L21 25L19 25L19 26L18 26L18 27L20 27L20 28L19 28L19 29L21 29L21 30L22 30L22 31L21 31L21 32L22 32L22 33L23 33L23 34L27 34L27 33L23 33L23 32L24 32L24 31L25 31L25 32L26 32L26 31L28 31L28 27L29 27L29 28L31 28L31 27L32 27L32 28L33 28L33 29L34 29L34 28L33 28L33 22L35 22L35 21L34 21L34 20L36 20L36 19L34 19L34 20L33 20L33 21L32 21L32 20L31 20L31 19L29 19L29 18L28 18L28 17L30 17L30 18L32 18L32 19L33 19L33 17L34 17L34 16L33 16L33 13L34 13L34 14L35 14L35 13L34 13L34 12L33 12L33 13L30 13L30 12L29 12L29 11L28 11L28 13L27 13L27 12L26 12L26 11L27 11L27 9L26 9L26 8L27 8L27 7L28 7L28 6L27 6L27 7L26 7L26 6L25 6L25 7L24 7L24 5L23 5L23 7L22 7L22 6L21 6L21 7L20 7L20 6L19 6L19 7L18 7L18 6L17 6L17 4L16 4L16 2ZM23 3L23 4L24 4L24 3ZM26 3L26 4L27 4L27 3ZM10 6L10 7L11 7L11 6ZM16 6L16 7L15 7L15 8L17 8L17 9L19 9L19 8L20 8L20 7L19 7L19 8L17 8L17 6ZM25 7L25 8L26 8L26 7ZM2 8L2 9L0 9L0 10L2 10L2 11L3 11L3 10L4 10L4 11L5 11L5 8ZM2 9L2 10L3 10L3 9ZM28 9L28 10L30 10L30 9ZM25 10L25 11L26 11L26 10ZM31 10L31 11L32 11L32 10ZM8 12L8 15L7 15L7 14L6 14L6 15L4 15L4 17L5 17L5 16L6 16L6 17L7 17L7 18L8 18L8 19L9 19L9 20L11 20L11 18L10 18L10 17L11 17L11 16L10 16L10 17L9 17L9 14L10 14L10 13L9 13L9 12ZM15 12L15 13L16 13L16 12ZM23 12L23 13L24 13L24 14L26 14L26 16L25 16L25 17L28 17L28 16L29 16L29 15L30 15L30 17L33 17L33 16L31 16L31 15L32 15L32 14L30 14L30 13L28 13L28 14L26 14L26 12L25 12L25 13L24 13L24 12ZM28 14L28 15L27 15L27 16L28 16L28 15L29 15L29 14ZM6 15L6 16L7 16L7 17L8 17L8 16L7 16L7 15ZM23 15L23 16L24 16L24 15ZM20 16L20 18L22 18L22 19L23 19L23 20L21 20L21 23L22 23L22 25L24 25L24 26L26 26L26 28L25 28L25 27L24 27L24 29L23 29L23 26L20 26L20 27L22 27L22 30L24 30L24 29L26 29L26 30L27 30L27 29L26 29L26 28L27 28L27 26L29 26L29 27L31 27L31 23L32 23L32 21L31 21L31 20L29 20L29 19L28 19L28 18L24 18L24 17L22 17L22 16ZM9 18L9 19L10 19L10 18ZM19 19L19 20L18 20L18 21L19 21L19 20L20 20L20 19ZM25 19L25 20L27 20L27 19ZM23 20L23 24L24 24L24 25L27 25L27 24L26 24L26 23L27 23L27 22L29 22L29 23L28 23L28 25L30 25L30 24L29 24L29 23L30 23L30 22L31 22L31 21L24 21L24 20ZM24 22L24 23L25 23L25 22ZM2 23L2 25L4 25L4 24L3 24L3 23ZM6 24L6 25L7 25L7 24ZM34 25L34 26L35 26L35 25ZM36 28L36 29L37 29L37 28ZM29 29L29 32L32 32L32 29ZM19 30L19 31L20 31L20 30ZM30 30L30 31L31 31L31 30ZM33 31L33 32L35 32L35 31ZM31 33L31 34L32 34L32 36L33 36L33 34L32 34L32 33ZM25 36L25 37L26 37L26 36ZM0 0L0 7L7 7L7 0ZM1 1L1 6L6 6L6 1ZM2 2L2 5L5 5L5 2ZM30 0L30 7L37 7L37 0ZM31 1L31 6L36 6L36 1ZM32 2L32 5L35 5L35 2ZM0 30L0 37L7 37L7 30ZM1 31L1 36L6 36L6 31ZM2 32L2 35L5 35L5 32Z" fill="#000000"/></g></g></svg>
