<?xml version="1.0" encoding="UTF-8"?>
<svg xmlns="http://www.w3.org/2000/svg" version="1.1" width="200" height="200" viewBox="0 0 200 200"><rect x="0" y="0" width="200" height="200" fill="#ffffff"/><g transform="scale(5.405)"><g transform="translate(0,0)"><path fill-rule="evenodd" d="M8 0L8 3L9 3L9 5L8 5L8 9L10 9L10 8L11 8L11 10L10 10L10 12L11 12L11 14L12 14L12 15L11 15L11 16L10 16L10 17L8 17L8 16L9 16L9 15L10 15L10 13L9 13L9 11L8 11L8 10L6 10L6 9L7 9L7 8L6 8L6 9L5 9L5 8L2 8L2 9L1 9L1 11L0 11L0 12L3 12L3 13L4 13L4 14L3 14L3 15L1 15L1 16L3 16L3 17L4 17L4 19L7 19L7 20L4 20L4 21L5 21L5 22L6 22L6 23L3 23L3 22L2 22L2 21L1 21L1 22L2 22L2 24L1 24L1 23L0 23L0 24L1 24L1 25L0 25L0 29L1 29L1 25L2 25L2 27L3 27L3 25L4 25L4 26L6 26L6 27L4 27L4 28L2 28L2 29L4 29L4 28L6 28L6 29L8 29L8 30L9 30L9 31L10 31L10 32L8 32L8 35L9 35L9 36L10 36L10 37L12 37L12 36L13 36L13 37L14 37L14 35L16 35L16 36L18 36L18 35L17 35L17 34L18 34L18 33L19 33L19 37L21 37L21 36L23 36L23 37L24 37L24 35L26 35L26 34L27 34L27 33L30 33L30 34L29 34L29 35L28 35L28 36L27 36L27 37L28 37L28 36L30 36L30 37L37 37L37 34L36 34L36 36L34 36L34 35L33 35L33 36L32 36L32 34L35 34L35 33L37 33L37 30L33 30L33 29L37 29L37 28L30 28L30 27L32 27L32 26L31 26L31 24L32 24L32 23L33 23L33 26L36 26L36 27L37 27L37 26L36 26L36 25L37 25L37 22L36 22L36 21L37 21L37 18L35 18L35 19L36 19L36 20L34 20L34 19L32 19L32 18L31 18L31 19L29 19L29 20L28 20L28 18L27 18L27 20L25 20L25 18L26 18L26 17L27 17L27 16L28 16L28 17L29 17L29 18L30 18L30 17L35 17L35 16L36 16L36 17L37 17L37 14L34 14L34 13L35 13L35 12L34 12L34 11L35 11L35 10L36 10L36 13L37 13L37 10L36 10L36 9L37 9L37 8L34 8L34 9L32 9L32 8L26 8L26 7L27 7L27 6L28 6L28 7L29 7L29 4L28 4L28 3L29 3L29 2L28 2L28 1L26 1L26 2L28 2L28 3L27 3L27 4L26 4L26 3L25 3L25 4L24 4L24 2L25 2L25 1L24 1L24 0L18 0L18 1L17 1L17 0L16 0L16 1L15 1L15 0L13 0L13 1L12 1L12 0L11 0L11 1L10 1L10 0ZM9 1L9 3L12 3L12 4L10 4L10 5L12 5L12 6L11 6L11 8L12 8L12 9L13 9L13 10L11 10L11 12L12 12L12 11L13 11L13 12L16 12L16 11L15 11L15 10L16 10L16 9L15 9L15 8L14 8L14 2L15 2L15 1L14 1L14 2L13 2L13 3L12 3L12 1L11 1L11 2L10 2L10 1ZM18 1L18 2L19 2L19 3L17 3L17 2L16 2L16 3L17 3L17 4L19 4L19 3L20 3L20 4L21 4L21 3L20 3L20 2L21 2L21 1ZM22 2L22 3L23 3L23 2ZM12 4L12 5L13 5L13 4ZM15 4L15 7L16 7L16 4ZM23 4L23 7L22 7L22 5L21 5L21 7L20 7L20 6L19 6L19 5L17 5L17 7L18 7L18 6L19 6L19 7L20 7L20 8L19 8L19 9L20 9L20 8L21 8L21 9L24 9L24 10L26 10L26 11L23 11L23 12L22 12L22 11L21 11L21 10L18 10L18 8L17 8L17 11L18 11L18 12L17 12L17 13L16 13L16 15L18 15L18 17L19 17L19 18L18 18L18 19L19 19L19 21L20 21L20 22L18 22L18 20L17 20L17 19L16 19L16 18L15 18L15 13L14 13L14 16L13 16L13 15L12 15L12 16L13 16L13 17L12 17L12 18L13 18L13 22L11 22L11 21L12 21L12 20L10 20L10 19L8 19L8 18L7 18L7 17L6 17L6 16L8 16L8 15L6 15L6 14L7 14L7 13L8 13L8 14L9 14L9 13L8 13L8 11L6 11L6 10L5 10L5 9L2 9L2 10L3 10L3 12L5 12L5 15L4 15L4 16L5 16L5 18L7 18L7 19L8 19L8 23L6 23L6 24L5 24L5 25L6 25L6 26L7 26L7 27L6 27L6 28L8 28L8 29L9 29L9 28L8 28L8 25L10 25L10 28L11 28L11 25L14 25L14 27L15 27L15 24L14 24L14 23L15 23L15 21L14 21L14 20L17 20L17 21L16 21L16 22L18 22L18 23L20 23L20 24L19 24L19 25L20 25L20 26L19 26L19 27L20 27L20 26L22 26L22 28L21 28L21 30L22 30L22 32L21 32L21 31L20 31L20 30L16 30L16 29L15 29L15 28L14 28L14 29L13 29L13 27L12 27L12 29L11 29L11 31L13 31L13 32L14 32L14 34L15 34L15 32L16 32L16 34L17 34L17 32L21 32L21 35L20 35L20 36L21 36L21 35L23 35L23 34L26 34L26 33L27 33L27 31L28 31L28 27L30 27L30 26L27 26L27 29L25 29L25 28L26 28L26 26L24 26L24 25L27 25L27 24L28 24L28 25L30 25L30 24L29 24L29 23L30 23L30 22L31 22L31 23L32 23L32 22L33 22L33 21L34 21L34 24L35 24L35 23L36 23L36 22L35 22L35 21L34 21L34 20L33 20L33 21L32 21L32 20L31 20L31 21L25 21L25 20L23 20L23 19L24 19L24 18L25 18L25 16L26 16L26 14L28 14L28 13L30 13L30 14L31 14L31 15L32 15L32 16L35 16L35 15L33 15L33 13L34 13L34 12L33 12L33 13L30 13L30 12L31 12L31 11L32 11L32 10L31 10L31 11L28 11L28 13L27 13L27 12L26 12L26 11L27 11L27 9L26 9L26 8L25 8L25 9L24 9L24 4ZM27 4L27 5L28 5L28 4ZM9 6L9 7L10 7L10 6ZM12 6L12 8L13 8L13 9L14 9L14 8L13 8L13 6ZM25 6L25 7L26 7L26 6ZM21 7L21 8L22 8L22 7ZM28 9L28 10L30 10L30 9ZM34 9L34 10L33 10L33 11L34 11L34 10L35 10L35 9ZM20 11L20 12L19 12L19 13L21 13L21 14L18 14L18 13L17 13L17 14L18 14L18 15L21 15L21 14L22 14L22 12L21 12L21 11ZM6 12L6 13L7 13L7 12ZM25 12L25 14L23 14L23 16L22 16L22 19L23 19L23 18L24 18L24 17L23 17L23 16L24 16L24 15L25 15L25 14L26 14L26 12ZM1 13L1 14L2 14L2 13ZM12 13L12 14L13 14L13 13ZM5 15L5 16L6 16L6 15ZM28 15L28 16L29 16L29 17L30 17L30 15ZM16 16L16 17L17 17L17 16ZM19 16L19 17L21 17L21 16ZM0 17L0 19L3 19L3 18L1 18L1 17ZM10 17L10 18L11 18L11 17ZM14 18L14 19L15 19L15 18ZM20 18L20 20L21 20L21 21L22 21L22 20L21 20L21 18ZM6 21L6 22L7 22L7 21ZM9 21L9 22L10 22L10 24L11 24L11 22L10 22L10 21ZM24 21L24 22L23 22L23 23L24 23L24 22L25 22L25 21ZM31 21L31 22L32 22L32 21ZM20 22L20 23L22 23L22 22ZM27 22L27 23L26 23L26 24L27 24L27 23L28 23L28 22ZM8 23L8 24L6 24L6 25L8 25L8 24L9 24L9 23ZM2 24L2 25L3 25L3 24ZM17 24L17 25L18 25L18 24ZM20 24L20 25L21 25L21 24ZM22 24L22 26L23 26L23 24ZM17 26L17 27L18 27L18 26ZM24 27L24 28L25 28L25 27ZM17 28L17 29L19 29L19 28ZM22 29L22 30L25 30L25 31L24 31L24 32L22 32L22 33L26 33L26 32L25 32L25 31L26 31L26 30L25 30L25 29ZM29 29L29 32L32 32L32 29ZM13 30L13 31L15 31L15 30ZM30 30L30 31L31 31L31 30ZM34 31L34 32L33 32L33 33L34 33L34 32L36 32L36 31ZM10 33L10 34L9 34L9 35L10 35L10 34L11 34L11 33ZM31 33L31 34L30 34L30 35L31 35L31 34L32 34L32 33ZM12 34L12 35L13 35L13 34ZM25 36L25 37L26 37L26 36ZM0 0L0 7L7 7L7 0ZM1 1L1 6L6 6L6 1ZM2 2L2 5L5 5L5 2ZM30 0L30 7L37 7L37 0ZM31 1L31 6L36 6L36 1ZM32 2L32 5L35 5L35 2ZM0 30L0 37L7 37L7 30ZM1 31L1 36L6 36L6 31ZM2 32L2 35L5 35L5 32Z" fill="#000000"/></g></g></svg>
