<?xml version="1.0" encoding="UTF-8"?>
<svg xmlns="http://www.w3.org/2000/svg" version="1.1" width="200" height="200" viewBox="0 0 200 200"><rect x="0" y="0" width="200" height="200" fill="#ffffff"/><g transform="scale(5.405)"><g transform="translate(0,0)"><path fill-rule="evenodd" d="M8 0L8 3L9 3L9 4L10 4L10 0ZM11 0L11 1L12 1L12 2L11 2L11 3L12 3L12 2L13 2L13 3L14 3L14 4L11 4L11 5L8 5L8 9L7 9L7 8L6 8L6 9L7 9L7 10L5 10L5 8L2 8L2 9L3 9L3 10L2 10L2 11L3 11L3 12L2 12L2 13L3 13L3 14L2 14L2 15L1 15L1 13L0 13L0 24L1 24L1 23L3 23L3 25L4 25L4 26L5 26L5 27L3 27L3 26L2 26L2 25L0 25L0 29L1 29L1 26L2 26L2 27L3 27L3 28L2 28L2 29L3 29L3 28L4 28L4 29L8 29L8 30L10 30L10 31L9 31L9 32L8 32L8 35L9 35L9 37L10 37L10 35L11 35L11 37L13 37L13 36L12 36L12 35L14 35L14 37L17 37L17 36L19 36L19 37L20 37L20 36L21 36L21 37L28 37L28 36L29 36L29 37L37 37L37 34L36 34L36 36L34 36L34 35L35 35L35 34L34 34L34 33L37 33L37 32L34 32L34 31L37 31L37 30L34 30L34 29L35 29L35 28L34 28L34 27L33 27L33 26L32 26L32 27L33 27L33 28L31 28L31 23L33 23L33 25L35 25L35 24L34 24L34 23L33 23L33 22L36 22L36 25L37 25L37 22L36 22L36 21L37 21L37 18L35 18L35 19L36 19L36 20L33 20L33 19L34 19L34 17L37 17L37 14L36 14L36 13L37 13L37 12L34 12L34 11L33 11L33 10L36 10L36 11L37 11L37 10L36 10L36 9L37 9L37 8L34 8L34 9L32 9L32 8L29 8L29 4L28 4L28 3L29 3L29 1L27 1L27 2L28 2L28 3L24 3L24 2L26 2L26 1L25 1L25 0L23 0L23 3L22 3L22 2L20 2L20 0L19 0L19 2L20 2L20 3L19 3L19 4L17 4L17 3L16 3L16 4L15 4L15 1L16 1L16 0L15 0L15 1L14 1L14 0ZM17 0L17 1L18 1L18 0ZM21 0L21 1L22 1L22 0ZM13 1L13 2L14 2L14 1ZM21 3L21 4L20 4L20 6L19 6L19 7L18 7L18 5L17 5L17 7L16 7L16 6L15 6L15 5L14 5L14 6L13 6L13 5L12 5L12 6L11 6L11 7L10 7L10 6L9 6L9 7L10 7L10 9L9 9L9 11L8 11L8 12L7 12L7 11L6 11L6 12L4 12L4 14L3 14L3 16L5 16L5 17L1 17L1 20L2 20L2 21L3 21L3 23L4 23L4 21L5 21L5 23L6 23L6 24L7 24L7 23L6 23L6 22L8 22L8 21L9 21L9 22L11 22L11 23L12 23L12 22L13 22L13 21L14 21L14 20L17 20L17 21L16 21L16 23L18 23L18 26L19 26L19 27L18 27L18 28L19 28L19 27L20 27L20 26L21 26L21 27L22 27L22 28L21 28L21 29L20 29L20 30L19 30L19 29L17 29L17 30L18 30L18 31L19 31L19 32L17 32L17 34L16 34L16 36L17 36L17 34L18 34L18 35L21 35L21 36L22 36L22 34L25 34L25 35L24 35L24 36L28 36L28 35L29 35L29 36L30 36L30 35L31 35L31 34L32 34L32 36L33 36L33 34L32 34L32 33L31 33L31 34L30 34L30 33L27 33L27 32L28 32L28 30L26 30L26 29L28 29L28 27L29 27L29 28L30 28L30 27L29 27L29 26L27 26L27 28L26 28L26 26L24 26L24 25L27 25L27 24L26 24L26 23L27 23L27 22L28 22L28 25L30 25L30 24L29 24L29 23L30 23L30 22L31 22L31 21L32 21L32 22L33 22L33 21L32 21L32 20L31 20L31 21L25 21L25 20L26 20L26 19L27 19L27 20L28 20L28 19L29 19L29 20L30 20L30 19L29 19L29 17L30 17L30 18L32 18L32 19L33 19L33 17L34 17L34 16L36 16L36 14L35 14L35 13L34 13L34 12L33 12L33 13L30 13L30 12L31 12L31 11L32 11L32 10L31 10L31 11L30 11L30 9L28 9L28 10L29 10L29 11L28 11L28 12L29 12L29 13L27 13L27 12L26 12L26 11L27 11L27 9L26 9L26 8L27 8L27 7L28 7L28 6L27 6L27 7L26 7L26 6L25 6L25 7L24 7L24 6L23 6L23 7L22 7L22 6L21 6L21 5L25 5L25 4L24 4L24 3L23 3L23 4L22 4L22 3ZM26 4L26 5L28 5L28 4ZM12 6L12 8L13 8L13 6ZM14 6L14 8L15 8L15 9L16 9L16 10L14 10L14 9L13 9L13 10L12 10L12 9L11 9L11 10L10 10L10 11L9 11L9 13L10 13L10 12L11 12L11 10L12 10L12 11L13 11L13 13L11 13L11 14L10 14L10 15L11 15L11 16L10 16L10 18L11 18L11 17L12 17L12 19L13 19L13 20L14 20L14 18L17 18L17 19L18 19L18 21L19 21L19 22L20 22L20 23L19 23L19 26L20 26L20 25L21 25L21 26L22 26L22 27L23 27L23 26L22 26L22 24L23 24L23 23L24 23L24 24L25 24L25 23L24 23L24 22L25 22L25 21L24 21L24 20L23 20L23 19L25 19L25 17L29 17L29 16L28 16L28 15L30 15L30 17L33 17L33 16L34 16L34 15L35 15L35 14L34 14L34 13L33 13L33 14L34 14L34 15L33 15L33 16L32 16L32 14L30 14L30 13L29 13L29 14L26 14L26 12L23 12L23 11L26 11L26 10L25 10L25 8L26 8L26 7L25 7L25 8L23 8L23 11L22 11L22 8L21 8L21 6L20 6L20 7L19 7L19 9L18 9L18 10L17 10L17 8L15 8L15 6ZM0 9L0 12L1 12L1 9ZM19 9L19 10L20 10L20 9ZM4 10L4 11L5 11L5 10ZM16 10L16 11L14 11L14 13L13 13L13 14L15 14L15 12L17 12L17 14L16 14L16 15L12 15L12 14L11 14L11 15L12 15L12 16L17 16L17 17L18 17L18 18L19 18L19 19L21 19L21 20L20 20L20 22L23 22L23 21L21 21L21 20L22 20L22 19L23 19L23 17L25 17L25 16L26 16L26 14L25 14L25 13L23 13L23 12L20 12L20 11L19 11L19 12L17 12L17 10ZM6 12L6 13L7 13L7 12ZM20 13L20 14L18 14L18 15L19 15L19 17L21 17L21 16L25 16L25 14L23 14L23 13L22 13L22 14L21 14L21 13ZM4 14L4 15L5 15L5 16L6 16L6 17L7 17L7 18L6 18L6 19L8 19L8 20L5 20L5 21L8 21L8 20L9 20L9 21L10 21L10 20L11 20L11 21L12 21L12 20L11 20L11 19L10 19L10 20L9 20L9 19L8 19L8 18L9 18L9 17L7 17L7 16L8 16L8 14L6 14L6 15L5 15L5 14ZM20 14L20 15L21 15L21 14ZM6 15L6 16L7 16L7 15ZM13 17L13 18L14 18L14 17ZM2 18L2 19L3 19L3 21L4 21L4 18ZM27 18L27 19L28 19L28 18ZM14 22L14 25L13 25L13 24L11 24L11 25L12 25L12 26L10 26L10 28L8 28L8 29L10 29L10 28L12 28L12 27L15 27L15 26L16 26L16 27L17 27L17 24L15 24L15 22ZM9 23L9 24L8 24L8 26L7 26L7 25L6 25L6 26L7 26L7 27L6 27L6 28L7 28L7 27L9 27L9 25L10 25L10 23ZM21 23L21 24L22 24L22 23ZM14 25L14 26L15 26L15 25ZM35 26L35 27L36 27L36 28L37 28L37 26ZM24 27L24 28L25 28L25 29L23 29L23 28L22 28L22 29L23 29L23 30L21 30L21 31L20 31L20 34L21 34L21 33L23 33L23 32L22 32L22 31L23 31L23 30L25 30L25 29L26 29L26 28L25 28L25 27ZM14 28L14 30L13 30L13 29L11 29L11 30L13 30L13 31L11 31L11 33L10 33L10 32L9 32L9 34L11 34L11 35L12 35L12 33L13 33L13 34L14 34L14 33L13 33L13 32L14 32L14 30L15 30L15 32L16 32L16 28ZM33 28L33 29L34 29L34 28ZM29 29L29 32L32 32L32 29ZM30 30L30 31L31 31L31 30ZM24 31L24 33L26 33L26 35L28 35L28 34L27 34L27 33L26 33L26 32L27 32L27 31L26 31L26 32L25 32L25 31ZM33 32L33 33L34 33L34 32ZM18 33L18 34L19 34L19 33ZM29 34L29 35L30 35L30 34ZM0 0L0 7L7 7L7 0ZM1 1L1 6L6 6L6 1ZM2 2L2 5L5 5L5 2ZM30 0L30 7L37 7L37 0ZM31 1L31 6L36 6L36 1ZM32 2L32 5L35 5L35 2ZM0 30L0 37L7 37L7 30ZM1 31L1 36L6 36L6 31ZM2 32L2 35L5 35L5 32Z" fill="#000000"/></g></g></svg>
