<?xml version="1.0" encoding="UTF-8"?>
<svg xmlns="http://www.w3.org/2000/svg" version="1.1" width="200" height="200" viewBox="0 0 200 200"><rect x="0" y="0" width="200" height="200" fill="#ffffff"/><g transform="scale(5.405)"><g transform="translate(0,0)"><path fill-rule="evenodd" d="M8 0L8 3L11 3L11 0L10 0L10 1L9 1L9 0ZM13 0L13 1L12 1L12 2L13 2L13 1L14 1L14 2L15 2L15 1L18 1L18 2L16 2L16 3L14 3L14 5L13 5L13 6L12 6L12 4L11 4L11 5L8 5L8 9L7 9L7 8L6 8L6 9L5 9L5 8L2 8L2 10L3 10L3 11L2 11L2 13L1 13L1 12L0 12L0 13L1 13L1 15L0 15L0 20L1 20L1 21L0 21L0 22L1 22L1 23L2 23L2 24L1 24L1 25L0 25L0 29L1 29L1 25L2 25L2 24L3 24L3 23L4 23L4 24L6 24L6 25L8 25L8 26L6 26L6 27L8 27L8 26L9 26L9 28L6 28L6 29L8 29L8 30L9 30L9 31L10 31L10 32L8 32L8 35L9 35L9 36L10 36L10 37L11 37L11 36L10 36L10 34L9 34L9 33L11 33L11 32L12 32L12 33L14 33L14 34L13 34L13 35L15 35L15 36L14 36L14 37L17 37L17 36L18 36L18 35L19 35L19 37L21 37L21 36L23 36L23 37L24 37L24 35L26 35L26 36L25 36L25 37L26 37L26 36L27 36L27 37L28 37L28 36L29 36L29 37L37 37L37 34L36 34L36 36L34 36L34 33L37 33L37 32L34 32L34 31L33 31L33 28L34 28L34 29L35 29L35 30L36 30L36 31L37 31L37 30L36 30L36 29L37 29L37 26L36 26L36 25L37 25L37 24L36 24L36 23L37 23L37 22L36 22L36 21L37 21L37 18L33 18L33 19L32 19L32 18L30 18L30 17L33 17L33 16L34 16L34 17L37 17L37 14L36 14L36 13L37 13L37 10L36 10L36 9L37 9L37 8L34 8L34 9L32 9L32 8L29 8L29 5L27 5L27 4L29 4L29 1L26 1L26 2L27 2L27 4L26 4L26 3L25 3L25 4L24 4L24 7L23 7L23 6L22 6L22 5L23 5L23 3L24 3L24 2L21 2L21 3L19 3L19 4L20 4L20 5L21 5L21 6L20 6L20 7L19 7L19 5L18 5L18 7L17 7L17 6L16 6L16 7L17 7L17 8L15 8L15 9L13 9L13 8L14 8L14 7L15 7L15 6L14 6L14 5L17 5L17 4L18 4L18 2L19 2L19 1L18 1L18 0ZM20 0L20 1L24 1L24 0ZM21 3L21 4L22 4L22 3ZM9 6L9 8L10 8L10 6ZM11 6L11 9L8 9L8 10L11 10L11 9L12 9L12 11L14 11L14 12L15 12L15 11L18 11L18 10L19 10L19 12L20 12L20 11L21 11L21 10L20 10L20 9L18 9L18 8L17 8L17 9L18 9L18 10L16 10L16 9L15 9L15 10L13 10L13 9L12 9L12 8L13 8L13 7L14 7L14 6L13 6L13 7L12 7L12 6ZM21 6L21 7L20 7L20 8L21 8L21 7L22 7L22 6ZM25 6L25 7L24 7L24 9L25 9L25 10L22 10L22 11L25 11L25 12L26 12L26 14L25 14L25 13L24 13L24 12L21 12L21 13L22 13L22 14L20 14L20 13L19 13L19 14L18 14L18 13L17 13L17 12L16 12L16 14L18 14L18 15L19 15L19 16L18 16L18 17L17 17L17 18L14 18L14 20L15 20L15 19L17 19L17 20L16 20L16 21L19 21L19 20L18 20L18 17L20 17L20 18L19 18L19 19L21 19L21 20L20 20L20 21L23 21L23 23L21 23L21 22L20 22L20 24L21 24L21 26L22 26L22 24L23 24L23 23L24 23L24 25L23 25L23 28L21 28L21 29L22 29L22 32L23 32L23 33L21 33L21 34L20 34L20 36L21 36L21 35L23 35L23 34L26 34L26 33L27 33L27 31L28 31L28 27L29 27L29 28L32 28L32 27L33 27L33 23L32 23L32 22L33 22L33 21L34 21L34 24L35 24L35 23L36 23L36 22L35 22L35 21L34 21L34 20L36 20L36 19L34 19L34 20L33 20L33 21L27 21L27 19L25 19L25 18L28 18L28 17L30 17L30 15L29 15L29 14L28 14L28 13L30 13L30 14L31 14L31 15L32 15L32 16L33 16L33 15L34 15L34 16L36 16L36 14L35 14L35 13L34 13L34 12L35 12L35 11L36 11L36 10L35 10L35 9L34 9L34 10L33 10L33 11L34 11L34 12L33 12L33 13L30 13L30 12L31 12L31 11L32 11L32 10L31 10L31 11L30 11L30 12L29 12L29 11L28 11L28 13L27 13L27 11L26 11L26 10L27 10L27 9L26 9L26 8L27 8L27 7L28 7L28 6L27 6L27 7L26 7L26 6ZM25 7L25 8L26 8L26 7ZM22 8L22 9L23 9L23 8ZM3 9L3 10L4 10L4 11L3 11L3 14L2 14L2 16L1 16L1 20L2 20L2 21L3 21L3 22L2 22L2 23L3 23L3 22L4 22L4 23L6 23L6 24L8 24L8 25L9 25L9 26L11 26L11 27L10 27L10 28L12 28L12 27L13 27L13 29L14 29L14 30L15 30L15 29L17 29L17 30L16 30L16 32L15 32L15 31L14 31L14 33L16 33L16 34L15 34L15 35L16 35L16 36L17 36L17 35L18 35L18 34L19 34L19 33L20 33L20 32L19 32L19 31L21 31L21 30L20 30L20 29L19 29L19 31L17 31L17 30L18 30L18 28L16 28L16 27L17 27L17 26L19 26L19 25L18 25L18 24L17 24L17 23L19 23L19 22L15 22L15 21L14 21L14 22L12 22L12 21L11 21L11 22L10 22L10 23L9 23L9 20L8 20L8 19L9 19L9 18L8 18L8 17L5 17L5 16L7 16L7 15L8 15L8 16L9 16L9 17L11 17L11 19L10 19L10 20L12 20L12 19L13 19L13 18L12 18L12 17L11 17L11 16L9 16L9 14L10 14L10 15L11 15L11 14L13 14L13 15L12 15L12 16L13 16L13 15L14 15L14 17L15 17L15 13L12 13L12 12L11 12L11 14L10 14L10 11L9 11L9 12L7 12L7 11L6 11L6 12L5 12L5 10L4 10L4 9ZM6 9L6 10L7 10L7 9ZM28 9L28 10L30 10L30 9ZM34 10L34 11L35 11L35 10ZM4 12L4 13L5 13L5 14L4 14L4 15L3 15L3 16L2 16L2 17L3 17L3 18L2 18L2 19L3 19L3 21L4 21L4 19L3 19L3 18L5 18L5 20L6 20L6 21L5 21L5 22L6 22L6 23L7 23L7 22L8 22L8 21L7 21L7 20L6 20L6 19L7 19L7 18L5 18L5 17L3 17L3 16L4 16L4 15L5 15L5 14L6 14L6 15L7 15L7 14L6 14L6 13L7 13L7 12L6 12L6 13L5 13L5 12ZM8 13L8 14L9 14L9 13ZM33 13L33 14L34 14L34 15L35 15L35 14L34 14L34 13ZM19 14L19 15L20 15L20 16L21 16L21 15L20 15L20 14ZM23 14L23 15L22 15L22 16L23 16L23 15L24 15L24 18L25 18L25 17L27 17L27 16L28 16L28 14L26 14L26 16L25 16L25 15L24 15L24 14ZM16 15L16 16L17 16L17 15ZM21 17L21 19L22 19L22 20L25 20L25 21L26 21L26 22L27 22L27 23L26 23L26 24L27 24L27 25L24 25L24 26L26 26L26 28L25 28L25 27L24 27L24 28L25 28L25 29L23 29L23 30L24 30L24 31L23 31L23 32L24 32L24 33L26 33L26 32L24 32L24 31L26 31L26 30L27 30L27 29L26 29L26 28L27 28L27 26L29 26L29 27L32 27L32 26L31 26L31 22L30 22L30 23L29 23L29 22L27 22L27 21L26 21L26 20L25 20L25 19L23 19L23 17ZM29 18L29 20L31 20L31 19L30 19L30 18ZM6 21L6 22L7 22L7 21ZM10 23L10 24L9 24L9 25L12 25L12 26L13 26L13 27L15 27L15 25L16 25L16 23L14 23L14 24L15 24L15 25L14 25L14 26L13 26L13 24L12 24L12 23ZM28 24L28 25L30 25L30 24ZM3 25L3 26L2 26L2 29L4 29L4 28L3 28L3 26L4 26L4 27L5 27L5 25ZM34 25L34 26L35 26L35 27L34 27L34 28L35 28L35 29L36 29L36 28L35 28L35 27L36 27L36 26L35 26L35 25ZM10 29L10 31L13 31L13 30L12 30L12 29ZM25 29L25 30L26 30L26 29ZM29 29L29 32L32 32L32 29ZM30 30L30 31L31 31L31 30ZM16 32L16 33L19 33L19 32ZM33 32L33 33L34 33L34 32ZM31 33L31 34L27 34L27 36L28 36L28 35L29 35L29 36L30 36L30 35L31 35L31 34L32 34L32 36L33 36L33 34L32 34L32 33ZM11 34L11 35L12 35L12 34ZM16 34L16 35L17 35L17 34ZM12 36L12 37L13 37L13 36ZM0 0L0 7L7 7L7 0ZM1 1L1 6L6 6L6 1ZM2 2L2 5L5 5L5 2ZM30 0L30 7L37 7L37 0ZM31 1L31 6L36 6L36 1ZM32 2L32 5L35 5L35 2ZM0 30L0 37L7 37L7 30ZM1 31L1 36L6 36L6 31ZM2 32L2 35L5 35L5 32Z" fill="#000000"/></g></g></svg>
