<?xml version="1.0" encoding="UTF-8"?>
<svg xmlns="http://www.w3.org/2000/svg" version="1.1" width="200" height="200" viewBox="0 0 200 200"><rect x="0" y="0" width="200" height="200" fill="#ffffff"/><g transform="scale(5.405)"><g transform="translate(0,0)"><path fill-rule="evenodd" d="M8 0L8 2L9 2L9 3L8 3L8 7L9 7L9 10L8 10L8 9L7 9L7 8L6 8L6 9L4 9L4 8L3 8L3 9L4 9L4 10L2 10L2 9L1 9L1 10L2 10L2 11L3 11L3 12L5 12L5 13L2 13L2 12L1 12L1 15L0 15L0 20L1 20L1 21L0 21L0 22L1 22L1 23L0 23L0 25L1 25L1 26L0 26L0 27L1 27L1 28L0 28L0 29L7 29L7 28L8 28L8 27L9 27L9 28L10 28L10 29L8 29L8 30L10 30L10 29L11 29L11 31L12 31L12 30L14 30L14 31L13 31L13 32L14 32L14 33L15 33L15 34L17 34L17 35L18 35L18 34L17 34L17 33L15 33L15 32L14 32L14 31L15 31L15 30L17 30L17 31L18 31L18 30L19 30L19 31L20 31L20 30L21 30L21 28L18 28L18 27L17 27L17 26L20 26L20 27L21 27L21 26L22 26L22 28L24 28L24 29L22 29L22 32L20 32L20 33L19 33L19 32L18 32L18 33L19 33L19 34L20 34L20 35L19 35L19 36L17 36L17 37L19 37L19 36L20 36L20 37L21 37L21 36L23 36L23 37L24 37L24 36L25 36L25 37L29 37L29 36L30 36L30 37L32 37L32 36L34 36L34 35L35 35L35 34L36 34L36 35L37 35L37 33L36 33L36 31L37 31L37 28L36 28L36 27L37 27L37 24L36 24L36 23L37 23L37 20L36 20L36 19L37 19L37 16L36 16L36 18L34 18L34 17L35 17L35 16L34 16L34 14L35 14L35 15L37 15L37 12L36 12L36 14L35 14L35 13L34 13L34 10L33 10L33 9L34 9L34 8L31 8L31 9L32 9L32 10L30 10L30 9L29 9L29 10L28 10L28 9L27 9L27 8L26 8L26 7L27 7L27 6L28 6L28 8L29 8L29 4L28 4L28 3L29 3L29 2L28 2L28 1L29 1L29 0L26 0L26 1L27 1L27 2L26 2L26 3L27 3L27 6L26 6L26 7L25 7L25 5L24 5L24 7L23 7L23 5L22 5L22 4L21 4L21 6L20 6L20 5L19 5L19 2L20 2L20 3L21 3L21 2L22 2L22 3L23 3L23 4L24 4L24 3L25 3L25 1L24 1L24 3L23 3L23 1L22 1L22 0L20 0L20 1L19 1L19 2L18 2L18 3L17 3L17 1L18 1L18 0L17 0L17 1L15 1L15 0L13 0L13 1L12 1L12 0L10 0L10 1L12 1L12 2L13 2L13 6L12 6L12 5L10 5L10 7L9 7L9 4L12 4L12 3L11 3L11 2L9 2L9 0ZM14 1L14 3L15 3L15 4L14 4L14 5L16 5L16 6L15 6L15 9L14 9L14 6L13 6L13 7L12 7L12 6L11 6L11 7L10 7L10 10L9 10L9 11L10 11L10 12L13 12L13 13L12 13L12 14L11 14L11 15L10 15L10 13L9 13L9 14L8 14L8 12L7 12L7 11L6 11L6 10L7 10L7 9L6 9L6 10L4 10L4 11L6 11L6 12L7 12L7 13L5 13L5 15L6 15L6 16L7 16L7 17L4 17L4 19L6 19L6 20L3 20L3 18L2 18L2 19L1 19L1 20L2 20L2 21L1 21L1 22L2 22L2 21L4 21L4 22L3 22L3 23L1 23L1 25L4 25L4 23L5 23L5 24L7 24L7 25L6 25L6 26L5 26L5 27L4 27L4 26L1 26L1 27L2 27L2 28L7 28L7 27L8 27L8 26L9 26L9 27L10 27L10 28L11 28L11 29L12 29L12 26L13 26L13 24L11 24L11 23L10 23L10 22L9 22L9 23L5 23L5 22L7 22L7 21L10 21L10 19L11 19L11 21L12 21L12 20L13 20L13 19L14 19L14 21L13 21L13 22L14 22L14 21L16 21L16 20L17 20L17 21L18 21L18 22L20 22L20 23L19 23L19 24L18 24L18 23L17 23L17 22L16 22L16 23L17 23L17 24L16 24L16 25L15 25L15 23L14 23L14 25L15 25L15 26L16 26L16 25L20 25L20 26L21 26L21 25L22 25L22 26L23 26L23 25L24 25L24 28L25 28L25 32L26 32L26 30L28 30L28 29L26 29L26 28L25 28L25 27L26 27L26 26L25 26L25 25L26 25L26 24L27 24L27 25L28 25L28 26L29 26L29 28L31 28L31 27L30 27L30 26L32 26L32 27L34 27L34 28L35 28L35 26L36 26L36 24L35 24L35 23L36 23L36 20L34 20L34 22L35 22L35 23L34 23L34 24L33 24L33 25L32 25L32 24L31 24L31 23L32 23L32 22L33 22L33 21L32 21L32 22L31 22L31 23L30 23L30 21L29 21L29 23L28 23L28 20L30 20L30 19L29 19L29 17L30 17L30 16L31 16L31 17L33 17L33 10L32 10L32 11L31 11L31 12L32 12L32 13L31 13L31 14L32 14L32 15L30 15L30 14L29 14L29 13L28 13L28 12L29 12L29 11L28 11L28 10L27 10L27 9L26 9L26 8L25 8L25 9L24 9L24 10L23 10L23 12L24 12L24 10L25 10L25 11L26 11L26 12L27 12L27 13L26 13L26 14L25 14L25 15L26 15L26 14L27 14L27 15L28 15L28 16L27 16L27 17L26 17L26 16L23 16L23 13L22 13L22 9L20 9L20 6L19 6L19 5L18 5L18 4L17 4L17 5L16 5L16 2L15 2L15 1ZM20 1L20 2L21 2L21 1ZM27 2L27 3L28 3L28 2ZM17 5L17 6L16 6L16 7L17 7L17 8L16 8L16 10L17 10L17 12L16 12L16 11L15 11L15 10L14 10L14 11L13 11L13 9L11 9L11 11L13 11L13 12L15 12L15 14L14 14L14 13L13 13L13 15L14 15L14 16L13 16L13 17L14 17L14 16L15 16L15 14L16 14L16 16L18 16L18 17L19 17L19 15L17 15L17 14L20 14L20 13L18 13L18 12L21 12L21 11L19 11L19 10L20 10L20 9L18 9L18 10L17 10L17 8L18 8L18 7L19 7L19 6L18 6L18 5ZM17 6L17 7L18 7L18 6ZM21 6L21 7L22 7L22 6ZM35 8L35 11L37 11L37 8ZM25 9L25 10L26 10L26 11L27 11L27 12L28 12L28 11L27 11L27 10L26 10L26 9ZM16 13L16 14L17 14L17 13ZM21 13L21 15L22 15L22 13ZM2 14L2 15L1 15L1 17L3 17L3 16L4 16L4 14ZM6 14L6 15L7 15L7 16L10 16L10 17L7 17L7 18L6 18L6 19L7 19L7 20L6 20L6 21L7 21L7 20L9 20L9 19L10 19L10 18L12 18L12 19L13 19L13 18L12 18L12 17L11 17L11 16L10 16L10 15L7 15L7 14ZM2 15L2 16L3 16L3 15ZM29 15L29 16L28 16L28 17L29 17L29 16L30 16L30 15ZM15 17L15 18L14 18L14 19L15 19L15 20L16 20L16 17ZM20 17L20 19L18 19L18 18L17 18L17 20L18 20L18 21L19 21L19 20L20 20L20 22L21 22L21 23L23 23L23 24L24 24L24 23L25 23L25 24L26 24L26 23L27 23L27 24L28 24L28 25L29 25L29 24L30 24L30 25L31 25L31 24L30 24L30 23L29 23L29 24L28 24L28 23L27 23L27 22L26 22L26 21L27 21L27 20L28 20L28 19L27 19L27 18L26 18L26 17L25 17L25 18L24 18L24 17ZM33 18L33 19L34 19L34 18ZM20 19L20 20L22 20L22 19ZM24 19L24 20L23 20L23 22L24 22L24 21L25 21L25 20L27 20L27 19ZM21 21L21 22L22 22L22 21ZM8 24L8 25L7 25L7 26L6 26L6 27L7 27L7 26L8 26L8 25L9 25L9 24ZM20 24L20 25L21 25L21 24ZM34 25L34 26L35 26L35 25ZM10 26L10 27L11 27L11 26ZM14 27L14 28L13 28L13 29L14 29L14 28L16 28L16 29L17 29L17 30L18 30L18 28L16 28L16 27ZM27 27L27 28L28 28L28 27ZM29 29L29 32L32 32L32 29ZM35 29L35 30L36 30L36 29ZM23 30L23 32L22 32L22 33L21 33L21 34L23 34L23 32L24 32L24 30ZM30 30L30 31L31 31L31 30ZM9 31L9 33L8 33L8 34L9 34L9 36L10 36L10 37L11 37L11 36L12 36L12 37L14 37L14 36L16 36L16 35L14 35L14 34L12 34L12 32L11 32L11 33L10 33L10 31ZM27 32L27 33L26 33L26 34L27 34L27 35L26 35L26 36L27 36L27 35L30 35L30 36L32 36L32 35L31 35L31 34L32 34L32 33L28 33L28 32ZM34 32L34 33L33 33L33 35L34 35L34 34L35 34L35 32ZM9 33L9 34L10 34L10 33ZM27 33L27 34L28 34L28 33ZM20 35L20 36L21 36L21 35ZM35 36L35 37L37 37L37 36ZM0 0L0 7L7 7L7 0ZM1 1L1 6L6 6L6 1ZM2 2L2 5L5 5L5 2ZM30 0L30 7L37 7L37 0ZM31 1L31 6L36 6L36 1ZM32 2L32 5L35 5L35 2ZM0 30L0 37L7 37L7 30ZM1 31L1 36L6 36L6 31ZM2 32L2 35L5 35L5 32Z" fill="#000000"/></g></g></svg>
