<?xml version="1.0" encoding="UTF-8"?>
<svg xmlns="http://www.w3.org/2000/svg" version="1.1" width="200" height="200" viewBox="0 0 200 200"><rect x="0" y="0" width="200" height="200" fill="#ffffff"/><g transform="scale(5.405)"><g transform="translate(0,0)"><path fill-rule="evenodd" d="M8 0L8 3L9 3L9 5L8 5L8 9L7 9L7 8L6 8L6 9L5 9L5 8L2 8L2 10L3 10L3 11L1 11L1 9L0 9L0 11L1 11L1 12L2 12L2 13L0 13L0 15L2 15L2 13L4 13L4 12L5 12L5 13L7 13L7 12L6 12L6 11L8 11L8 14L10 14L10 13L11 13L11 14L12 14L12 16L13 16L13 15L14 15L14 16L15 16L15 17L14 17L14 18L13 18L13 17L12 17L12 18L11 18L11 15L10 15L10 18L11 18L11 19L8 19L8 20L6 20L6 19L7 19L7 18L6 18L6 17L9 17L9 15L7 15L7 14L5 14L5 16L6 16L6 17L4 17L4 14L3 14L3 18L2 18L2 19L1 19L1 17L2 17L2 16L1 16L1 17L0 17L0 19L1 19L1 20L2 20L2 21L3 21L3 22L6 22L6 23L9 23L9 24L5 24L5 23L1 23L1 21L0 21L0 24L2 24L2 29L3 29L3 28L4 28L4 29L8 29L8 30L9 30L9 29L10 29L10 32L11 32L11 28L13 28L13 29L12 29L12 32L15 32L15 33L14 33L14 35L12 35L12 34L13 34L13 33L12 33L12 34L11 34L11 35L9 35L9 32L8 32L8 35L9 35L9 37L11 37L11 36L14 36L14 37L16 37L16 36L17 36L17 33L18 33L18 32L19 32L19 33L20 33L20 34L19 34L19 35L20 35L20 34L21 34L21 36L20 36L20 37L22 37L22 35L23 35L23 37L24 37L24 35L27 35L27 34L21 34L21 33L22 33L22 32L23 32L23 31L22 31L22 30L24 30L24 29L25 29L25 30L27 30L27 29L26 29L26 28L27 28L27 26L30 26L30 27L28 27L28 31L27 31L27 32L24 32L24 33L30 33L30 34L29 34L29 35L28 35L28 36L27 36L27 37L28 37L28 36L29 36L29 37L37 37L37 34L36 34L36 36L34 36L34 35L35 35L35 34L34 34L34 33L37 33L37 30L36 30L36 29L37 29L37 28L36 28L36 27L37 27L37 26L35 26L35 28L32 28L32 27L33 27L33 26L34 26L34 25L37 25L37 24L34 24L34 23L33 23L33 22L34 22L34 21L35 21L35 22L36 22L36 23L37 23L37 22L36 22L36 21L37 21L37 18L35 18L35 17L37 17L37 14L36 14L36 13L37 13L37 12L33 12L33 11L34 11L34 9L35 9L35 10L36 10L36 11L37 11L37 10L36 10L36 9L37 9L37 8L34 8L34 9L32 9L32 8L29 8L29 6L28 6L28 5L29 5L29 4L28 4L28 3L29 3L29 1L25 1L25 0L23 0L23 1L22 1L22 0L20 0L20 1L19 1L19 0L18 0L18 1L19 1L19 2L18 2L18 4L17 4L17 0L14 0L14 1L16 1L16 2L15 2L15 4L14 4L14 3L13 3L13 4L12 4L12 2L11 2L11 0ZM9 1L9 3L10 3L10 4L11 4L11 3L10 3L10 1ZM21 1L21 2L19 2L19 3L20 3L20 5L19 5L19 7L18 7L18 6L17 6L17 7L18 7L18 8L19 8L19 9L18 9L18 10L17 10L17 11L15 11L15 10L14 10L14 12L13 12L13 9L15 9L15 8L16 8L16 9L17 9L17 8L16 8L16 6L15 6L15 8L13 8L13 9L12 9L12 8L9 8L9 9L8 9L8 11L10 11L10 12L11 12L11 13L12 13L12 14L14 14L14 15L15 15L15 16L16 16L16 17L15 17L15 19L16 19L16 20L14 20L14 19L13 19L13 21L14 21L14 22L12 22L12 23L10 23L10 26L9 26L9 25L8 25L8 26L7 26L7 25L6 25L6 26L7 26L7 27L5 27L5 26L4 26L4 25L5 25L5 24L4 24L4 25L3 25L3 26L4 26L4 28L7 28L7 27L8 27L8 28L9 28L9 27L10 27L10 28L11 28L11 24L13 24L13 25L12 25L12 27L13 27L13 28L14 28L14 27L15 27L15 28L16 28L16 29L15 29L15 30L13 30L13 31L16 31L16 32L18 32L18 31L19 31L19 32L22 32L22 31L20 31L20 30L21 30L21 29L22 29L22 28L21 28L21 26L22 26L22 27L23 27L23 29L24 29L24 27L25 27L25 28L26 28L26 26L24 26L24 25L27 25L27 24L26 24L26 23L27 23L27 22L29 22L29 23L30 23L30 22L31 22L31 23L32 23L32 24L31 24L31 27L30 27L30 28L31 28L31 27L32 27L32 26L33 26L33 23L32 23L32 22L33 22L33 21L34 21L34 20L36 20L36 19L35 19L35 18L34 18L34 20L33 20L33 21L25 21L25 23L23 23L23 24L22 24L22 22L23 22L23 21L24 21L24 20L27 20L27 18L29 18L29 17L30 17L30 18L32 18L32 19L33 19L33 17L30 17L30 15L29 15L29 13L30 13L30 14L31 14L31 13L32 13L32 15L31 15L31 16L35 16L35 15L36 15L36 14L35 14L35 13L34 13L34 14L33 14L33 13L32 13L32 12L31 12L31 11L32 11L32 10L31 10L31 11L28 11L28 12L29 12L29 13L27 13L27 12L26 12L26 11L27 11L27 9L26 9L26 8L27 8L27 7L28 7L28 6L27 6L27 7L26 7L26 6L25 6L25 7L26 7L26 8L24 8L24 9L23 9L23 8L22 8L22 5L23 5L23 7L24 7L24 5L23 5L23 4L25 4L25 3L26 3L26 4L27 4L27 5L28 5L28 4L27 4L27 3L26 3L26 2L23 2L23 3L22 3L22 5L21 5L21 2L22 2L22 1ZM13 4L13 5L12 5L12 6L11 6L11 7L12 7L12 6L13 6L13 7L14 7L14 4ZM15 4L15 5L17 5L17 4ZM9 5L9 7L10 7L10 5ZM20 6L20 11L19 11L19 12L18 12L18 11L17 11L17 12L18 12L18 13L16 13L16 12L15 12L15 14L16 14L16 15L18 15L18 16L17 16L17 17L16 17L16 18L18 18L18 16L19 16L19 17L20 17L20 16L23 16L23 13L25 13L25 14L24 14L24 15L25 15L25 14L26 14L26 16L25 16L25 17L23 17L23 18L22 18L22 20L23 20L23 19L25 19L25 18L27 18L27 17L29 17L29 15L28 15L28 14L26 14L26 12L25 12L25 9L24 9L24 11L23 11L23 9L22 9L22 8L21 8L21 6ZM3 9L3 10L4 10L4 11L3 11L3 12L4 12L4 11L6 11L6 10L7 10L7 9L6 9L6 10L5 10L5 9ZM11 9L11 10L10 10L10 11L11 11L11 10L12 10L12 9ZM21 9L21 10L22 10L22 9ZM28 9L28 10L30 10L30 9ZM21 11L21 12L23 12L23 11ZM19 12L19 13L18 13L18 15L19 15L19 14L20 14L20 12ZM30 12L30 13L31 13L31 12ZM21 13L21 15L22 15L22 13ZM34 14L34 15L35 15L35 14ZM6 15L6 16L7 16L7 15ZM27 15L27 16L26 16L26 17L27 17L27 16L28 16L28 15ZM5 18L5 19L6 19L6 18ZM19 18L19 21L17 21L17 22L16 22L16 21L15 21L15 22L14 22L14 24L15 24L15 22L16 22L16 25L15 25L15 26L16 26L16 27L17 27L17 25L18 25L18 26L19 26L19 27L18 27L18 28L17 28L17 29L16 29L16 31L17 31L17 29L18 29L18 30L19 30L19 27L20 27L20 26L19 26L19 25L20 25L20 23L21 23L21 21L20 21L20 20L21 20L21 19L20 19L20 18ZM3 19L3 21L5 21L5 20L4 20L4 19ZM28 19L28 20L31 20L31 19ZM8 20L8 21L6 21L6 22L11 22L11 20L10 20L10 21L9 21L9 20ZM17 22L17 24L18 24L18 25L19 25L19 23L20 23L20 22L19 22L19 23L18 23L18 22ZM21 24L21 25L22 25L22 24ZM28 24L28 25L30 25L30 24ZM0 25L0 29L1 29L1 25ZM13 26L13 27L14 27L14 26ZM35 28L35 29L33 29L33 31L34 31L34 32L33 32L33 33L34 33L34 32L36 32L36 30L35 30L35 29L36 29L36 28ZM29 29L29 32L32 32L32 29ZM30 30L30 31L31 31L31 30ZM15 33L15 36L16 36L16 33ZM31 33L31 34L30 34L30 35L29 35L29 36L31 36L31 34L32 34L32 36L33 36L33 34L32 34L32 33ZM18 36L18 37L19 37L19 36ZM25 36L25 37L26 37L26 36ZM0 0L0 7L7 7L7 0ZM1 1L1 6L6 6L6 1ZM2 2L2 5L5 5L5 2ZM30 0L30 7L37 7L37 0ZM31 1L31 6L36 6L36 1ZM32 2L32 5L35 5L35 2ZM0 30L0 37L7 37L7 30ZM1 31L1 36L6 36L6 31ZM2 32L2 35L5 35L5 32Z" fill="#000000"/></g></g></svg>
