<?xml version="1.0" encoding="UTF-8"?>
<svg xmlns="http://www.w3.org/2000/svg" version="1.1" width="200" height="200" viewBox="0 0 200 200"><rect x="0" y="0" width="200" height="200" fill="#ffffff"/><g transform="scale(5.405)"><g transform="translate(0,0)"><path fill-rule="evenodd" d="M8 0L8 3L9 3L9 4L10 4L10 3L9 3L9 2L11 2L11 0L10 0L10 1L9 1L9 0ZM12 0L12 3L13 3L13 4L12 4L12 5L8 5L8 9L7 9L7 8L6 8L6 9L5 9L5 8L2 8L2 9L4 9L4 10L6 10L6 11L5 11L5 12L6 12L6 13L4 13L4 11L3 11L3 10L2 10L2 11L3 11L3 12L2 12L2 13L0 13L0 15L2 15L2 16L0 16L0 19L1 19L1 20L2 20L2 21L0 21L0 23L1 23L1 24L0 24L0 29L1 29L1 26L4 26L4 29L5 29L5 28L6 28L6 29L8 29L8 30L9 30L9 31L10 31L10 32L8 32L8 35L9 35L9 36L10 36L10 37L11 37L11 36L12 36L12 37L15 37L15 36L20 36L20 35L21 35L21 36L22 36L22 37L24 37L24 35L28 35L28 36L27 36L27 37L28 37L28 36L30 36L30 37L37 37L37 34L36 34L36 36L34 36L34 35L35 35L35 34L34 34L34 33L37 33L37 30L36 30L36 29L37 29L37 26L35 26L35 28L32 28L32 27L28 27L28 29L26 29L26 28L27 28L27 26L31 26L31 23L33 23L33 27L34 27L34 25L37 25L37 24L34 24L34 23L35 23L35 22L36 22L36 23L37 23L37 22L36 22L36 21L37 21L37 18L33 18L33 19L32 19L32 18L30 18L30 19L29 19L29 20L28 20L28 18L29 18L29 17L33 17L33 16L34 16L34 17L37 17L37 16L34 16L34 14L32 14L32 15L31 15L31 14L30 14L30 13L33 13L33 12L34 12L34 13L35 13L35 12L34 12L34 11L35 11L35 10L36 10L36 11L37 11L37 10L36 10L36 9L37 9L37 8L34 8L34 9L35 9L35 10L33 10L33 9L32 9L32 8L29 8L29 6L28 6L28 5L27 5L27 4L29 4L29 2L28 2L28 1L27 1L27 2L26 2L26 3L24 3L24 8L23 8L23 6L22 6L22 7L21 7L21 5L20 5L20 4L19 4L19 5L18 5L18 3L17 3L17 2L19 2L19 1L20 1L20 2L22 2L22 3L21 3L21 4L22 4L22 3L23 3L23 2L24 2L24 1L23 1L23 2L22 2L22 0L21 0L21 1L20 1L20 0L19 0L19 1L17 1L17 2L16 2L16 0L14 0L14 1L15 1L15 2L13 2L13 0ZM27 2L27 3L26 3L26 4L27 4L27 3L28 3L28 2ZM16 3L16 4L15 4L15 8L16 8L16 9L17 9L17 10L18 10L18 12L20 12L20 13L19 13L19 14L20 14L20 18L19 18L19 19L17 19L17 18L16 18L16 17L19 17L19 15L18 15L18 13L17 13L17 11L16 11L16 10L15 10L15 11L16 11L16 13L14 13L14 12L13 12L13 14L10 14L10 12L12 12L12 10L13 10L13 9L12 9L12 10L11 10L11 8L9 8L9 9L8 9L8 11L9 11L9 10L10 10L10 12L7 12L7 11L6 11L6 12L7 12L7 13L6 13L6 14L5 14L5 15L3 15L3 16L4 16L4 18L8 18L8 17L10 17L10 16L11 16L11 17L13 17L13 18L12 18L12 19L11 19L11 18L9 18L9 19L10 19L10 20L11 20L11 23L10 23L10 24L11 24L11 25L8 25L8 26L7 26L7 25L6 25L6 24L9 24L9 21L6 21L6 20L8 20L8 19L6 19L6 20L5 20L5 19L4 19L4 22L3 22L3 21L2 21L2 22L1 22L1 23L3 23L3 24L1 24L1 25L3 25L3 24L4 24L4 22L5 22L5 23L6 23L6 24L5 24L5 26L7 26L7 27L6 27L6 28L9 28L9 30L10 30L10 31L11 31L11 29L10 29L10 28L9 28L9 27L11 27L11 25L12 25L12 24L11 24L11 23L13 23L13 24L14 24L14 23L13 23L13 22L14 22L14 21L13 21L13 20L14 20L14 19L13 19L13 18L16 18L16 20L15 20L15 21L16 21L16 22L15 22L15 23L18 23L18 22L17 22L17 21L18 21L18 20L20 20L20 19L21 19L21 21L20 21L20 23L21 23L21 25L20 25L20 24L16 24L16 28L17 28L17 29L16 29L16 30L15 30L15 28L14 28L14 27L12 27L12 28L14 28L14 29L12 29L12 30L14 30L14 31L12 31L12 32L10 32L10 33L9 33L9 35L10 35L10 33L11 33L11 34L12 34L12 36L15 36L15 35L16 35L16 34L18 34L18 35L19 35L19 34L18 34L18 33L17 33L17 31L18 31L18 29L19 29L19 31L20 31L20 32L19 32L19 33L20 33L20 34L21 34L21 35L22 35L22 36L23 36L23 35L22 35L22 33L23 33L23 34L26 34L26 33L27 33L27 32L28 32L28 30L25 30L25 29L24 29L24 27L25 27L25 28L26 28L26 26L24 26L24 25L27 25L27 24L26 24L26 23L27 23L27 22L29 22L29 23L30 23L30 22L33 22L33 21L30 21L30 20L29 20L29 21L28 21L28 20L26 20L26 19L27 19L27 18L28 18L28 17L29 17L29 16L30 16L30 15L29 15L29 16L28 16L28 17L27 17L27 16L26 16L26 14L28 14L28 13L30 13L30 12L31 12L31 11L32 11L32 10L31 10L31 11L30 11L30 12L29 12L29 11L28 11L28 13L27 13L27 12L26 12L26 11L25 11L25 10L27 10L27 9L26 9L26 8L28 8L28 6L27 6L27 7L26 7L26 6L25 6L25 7L26 7L26 8L25 8L25 9L22 9L22 8L21 8L21 7L20 7L20 5L19 5L19 8L18 8L18 5L17 5L17 3ZM13 4L13 5L14 5L14 4ZM9 6L9 7L10 7L10 6ZM11 6L11 7L12 7L12 8L14 8L14 6L13 6L13 7L12 7L12 6ZM16 6L16 8L17 8L17 9L18 9L18 10L19 10L19 11L20 11L20 10L21 10L21 14L22 14L22 16L21 16L21 18L22 18L22 21L21 21L21 23L22 23L22 24L25 24L25 21L26 21L26 22L27 22L27 21L26 21L26 20L25 20L25 19L24 19L24 18L27 18L27 17L26 17L26 16L25 16L25 15L24 15L24 14L26 14L26 12L25 12L25 11L24 11L24 10L23 10L23 12L22 12L22 9L20 9L20 8L19 8L19 9L18 9L18 8L17 8L17 6ZM0 9L0 11L1 11L1 9ZM6 9L6 10L7 10L7 9ZM19 9L19 10L20 10L20 9ZM28 9L28 10L30 10L30 9ZM23 12L23 13L22 13L22 14L23 14L23 13L25 13L25 12ZM36 12L36 13L37 13L37 12ZM2 13L2 14L4 14L4 13ZM7 13L7 14L6 14L6 15L7 15L7 14L8 14L8 13ZM9 14L9 15L8 15L8 16L10 16L10 14ZM15 14L15 15L13 15L13 17L15 17L15 16L18 16L18 15L17 15L17 14ZM35 14L35 15L37 15L37 14ZM11 15L11 16L12 16L12 15ZM23 15L23 16L24 16L24 15ZM32 15L32 16L33 16L33 15ZM5 16L5 17L7 17L7 16ZM1 17L1 18L2 18L2 20L3 20L3 18L2 18L2 17ZM22 17L22 18L23 18L23 17ZM12 19L12 20L13 20L13 19ZM33 19L33 20L36 20L36 19ZM16 20L16 21L17 21L17 20ZM23 20L23 21L22 21L22 22L23 22L23 23L24 23L24 20ZM12 21L12 22L13 22L13 21ZM29 21L29 22L30 22L30 21ZM34 21L34 22L35 22L35 21ZM6 22L6 23L7 23L7 22ZM28 24L28 25L30 25L30 24ZM13 25L13 26L14 26L14 25ZM19 25L19 27L20 27L20 29L21 29L21 30L20 30L20 31L21 31L21 33L22 33L22 32L23 32L23 31L22 31L22 29L21 29L21 28L23 28L23 26L22 26L22 25L21 25L21 26L22 26L22 27L20 27L20 25ZM8 26L8 27L9 27L9 26ZM17 26L17 28L18 28L18 26ZM2 27L2 29L3 29L3 27ZM35 28L35 29L33 29L33 30L34 30L34 32L33 32L33 33L34 33L34 32L35 32L35 31L36 31L36 30L35 30L35 29L36 29L36 28ZM23 29L23 30L24 30L24 29ZM29 29L29 32L32 32L32 29ZM16 30L16 31L14 31L14 32L15 32L15 33L13 33L13 32L12 32L12 33L13 33L13 34L15 34L15 33L16 33L16 31L17 31L17 30ZM30 30L30 31L31 31L31 30ZM26 31L26 32L24 32L24 33L26 33L26 32L27 32L27 31ZM29 33L29 34L28 34L28 35L29 35L29 34L30 34L30 35L31 35L31 34L32 34L32 36L33 36L33 34L32 34L32 33L31 33L31 34L30 34L30 33ZM25 36L25 37L26 37L26 36ZM0 0L0 7L7 7L7 0ZM1 1L1 6L6 6L6 1ZM2 2L2 5L5 5L5 2ZM30 0L30 7L37 7L37 0ZM31 1L31 6L36 6L36 1ZM32 2L32 5L35 5L35 2ZM0 30L0 37L7 37L7 30ZM1 31L1 36L6 36L6 31ZM2 32L2 35L5 35L5 32Z" fill="#000000"/></g></g></svg>
