<?xml version="1.0" encoding="UTF-8"?>
<svg xmlns="http://www.w3.org/2000/svg" version="1.1" width="200" height="200" viewBox="0 0 200 200"><rect x="0" y="0" width="200" height="200" fill="#ffffff"/><g transform="scale(5.405)"><g transform="translate(0,0)"><path fill-rule="evenodd" d="M8 0L8 3L9 3L9 5L8 5L8 9L7 9L7 8L6 8L6 9L5 9L5 8L2 8L2 10L1 10L1 9L0 9L0 10L1 10L1 12L2 12L2 14L0 14L0 20L1 20L1 22L0 22L0 29L1 29L1 26L2 26L2 27L3 27L3 26L5 26L5 25L7 25L7 26L6 26L6 27L7 27L7 28L5 28L5 27L4 27L4 29L7 29L7 28L8 28L8 30L9 30L9 28L8 28L8 25L7 25L7 24L9 24L9 23L10 23L10 25L9 25L9 26L10 26L10 25L11 25L11 28L10 28L10 32L8 32L8 35L9 35L9 37L11 37L11 35L12 35L12 37L13 37L13 35L12 35L12 34L11 34L11 35L9 35L9 34L10 34L10 32L11 32L11 33L13 33L13 34L14 34L14 33L16 33L16 34L15 34L15 35L14 35L14 37L15 37L15 35L16 35L16 34L17 34L17 36L18 36L18 34L17 34L17 33L19 33L19 36L21 36L21 37L22 37L22 36L23 36L23 37L24 37L24 35L25 35L25 34L22 34L22 33L23 33L23 32L24 32L24 33L27 33L27 34L26 34L26 35L28 35L28 36L27 36L27 37L28 37L28 36L29 36L29 35L28 35L28 33L29 33L29 34L33 34L33 36L32 36L32 35L30 35L30 37L37 37L37 34L36 34L36 36L34 36L34 35L35 35L35 34L34 34L34 33L37 33L37 32L36 32L36 31L37 31L37 30L34 30L34 29L35 29L35 28L36 28L36 29L37 29L37 28L36 28L36 27L37 27L37 26L35 26L35 28L31 28L31 27L32 27L32 26L31 26L31 23L32 23L32 22L30 22L30 21L33 21L33 20L34 20L34 21L35 21L35 22L33 22L33 25L35 25L35 24L34 24L34 23L35 23L35 22L36 22L36 23L37 23L37 22L36 22L36 21L37 21L37 18L34 18L34 17L35 17L35 16L33 16L33 15L34 15L34 14L33 14L33 15L32 15L32 13L35 13L35 12L33 12L33 10L35 10L35 11L37 11L37 10L35 10L35 9L37 9L37 8L34 8L34 9L32 9L32 8L28 8L28 7L29 7L29 4L28 4L28 3L29 3L29 1L27 1L27 3L23 3L23 2L25 2L25 1L26 1L26 0L25 0L25 1L23 1L23 2L22 2L22 3L21 3L21 4L20 4L20 9L21 9L21 11L20 11L20 10L18 10L18 11L19 11L19 13L22 13L22 11L23 11L23 12L24 12L24 13L25 13L25 14L26 14L26 16L25 16L25 17L26 17L26 18L25 18L25 19L24 19L24 18L23 18L23 17L24 17L24 15L23 15L23 14L21 14L21 15L19 15L19 16L18 16L18 15L15 15L15 17L14 17L14 14L16 14L16 13L15 13L15 11L14 11L14 10L13 10L13 9L12 9L12 8L11 8L11 5L12 5L12 7L13 7L13 8L14 8L14 7L15 7L15 5L16 5L16 8L15 8L15 10L17 10L17 9L16 9L16 8L17 8L17 4L19 4L19 3L20 3L20 2L21 2L21 1L22 1L22 0L21 0L21 1L19 1L19 0L14 0L14 7L13 7L13 5L12 5L12 4L13 4L13 3L12 3L12 1L13 1L13 0L11 0L11 1L10 1L10 0ZM9 1L9 2L10 2L10 4L12 4L12 3L11 3L11 2L10 2L10 1ZM16 1L16 2L15 2L15 4L16 4L16 3L17 3L17 2L18 2L18 3L19 3L19 1ZM21 4L21 7L22 7L22 8L21 8L21 9L22 9L22 8L23 8L23 9L24 9L24 10L27 10L27 9L26 9L26 8L27 8L27 7L28 7L28 6L27 6L27 7L26 7L26 6L25 6L25 5L24 5L24 4L23 4L23 7L22 7L22 4ZM26 4L26 5L28 5L28 4ZM9 5L9 7L10 7L10 5ZM18 5L18 8L19 8L19 5ZM24 6L24 9L25 9L25 8L26 8L26 7L25 7L25 6ZM10 8L10 9L11 9L11 10L10 10L10 11L9 11L9 13L6 13L6 12L7 12L7 11L3 11L3 14L2 14L2 15L3 15L3 16L2 16L2 17L3 17L3 16L4 16L4 15L5 15L5 18L8 18L8 19L9 19L9 18L10 18L10 19L11 19L11 20L7 20L7 19L5 19L5 20L4 20L4 18L3 18L3 20L2 20L2 21L3 21L3 22L5 22L5 23L3 23L3 24L7 24L7 23L6 23L6 22L7 22L7 21L8 21L8 23L9 23L9 22L10 22L10 23L11 23L11 22L10 22L10 21L11 21L11 20L12 20L12 22L13 22L13 23L12 23L12 24L13 24L13 25L14 25L14 26L13 26L13 27L15 27L15 28L16 28L16 29L14 29L14 28L12 28L12 30L13 30L13 32L15 32L15 31L14 31L14 30L17 30L17 31L16 31L16 32L17 32L17 31L19 31L19 33L20 33L20 34L21 34L21 36L22 36L22 34L21 34L21 33L22 33L22 32L21 32L21 31L19 31L19 30L17 30L17 28L19 28L19 29L20 29L20 30L23 30L23 31L24 31L24 30L25 30L25 32L26 32L26 31L27 31L27 32L28 32L28 30L25 30L25 29L24 29L24 27L25 27L25 28L26 28L26 29L28 29L28 27L31 27L31 26L27 26L27 28L26 28L26 26L24 26L24 25L27 25L27 24L28 24L28 25L30 25L30 24L29 24L29 23L30 23L30 22L29 22L29 21L30 21L30 20L29 20L29 17L30 17L30 18L32 18L32 19L33 19L33 17L30 17L30 15L29 15L29 13L30 13L30 14L31 14L31 13L32 13L32 12L31 12L31 13L30 13L30 12L29 12L29 11L30 11L30 9L28 9L28 10L29 10L29 11L28 11L28 12L29 12L29 13L27 13L27 11L24 11L24 12L26 12L26 14L28 14L28 15L27 15L27 16L26 16L26 17L27 17L27 18L28 18L28 20L27 20L27 19L25 19L25 20L26 20L26 21L25 21L25 22L23 22L23 23L21 23L21 21L22 21L22 20L23 20L23 21L24 21L24 20L23 20L23 19L22 19L22 16L23 16L23 15L22 15L22 16L21 16L21 17L20 17L20 16L19 16L19 17L20 17L20 18L21 18L21 20L20 20L20 19L19 19L19 18L18 18L18 17L17 17L17 18L14 18L14 21L13 21L13 19L11 19L11 18L13 18L13 16L12 16L12 15L13 15L13 14L14 14L14 13L13 13L13 12L12 12L12 9L11 9L11 8ZM4 9L4 10L5 10L5 9ZM6 9L6 10L7 10L7 9ZM31 10L31 11L32 11L32 10ZM16 11L16 12L17 12L17 11ZM10 12L10 13L11 13L11 15L12 15L12 13L11 13L11 12ZM36 12L36 13L37 13L37 12ZM5 13L5 14L6 14L6 15L8 15L8 16L6 16L6 17L8 17L8 16L9 16L9 17L11 17L11 16L9 16L9 14L6 14L6 13ZM3 14L3 15L4 15L4 14ZM35 14L35 15L37 15L37 14ZM31 15L31 16L32 16L32 15ZM27 16L27 17L29 17L29 16ZM36 16L36 17L37 17L37 16ZM1 18L1 19L2 19L2 18ZM15 19L15 20L16 20L16 21L14 21L14 22L19 22L19 21L20 21L20 20L19 20L19 21L18 21L18 19L17 19L17 20L16 20L16 19ZM34 19L34 20L36 20L36 19ZM3 20L3 21L4 21L4 20ZM6 20L6 21L7 21L7 20ZM28 20L28 21L29 21L29 20ZM26 21L26 22L27 22L27 23L26 23L26 24L27 24L27 23L28 23L28 22L27 22L27 21ZM13 23L13 24L14 24L14 23ZM16 23L16 25L17 25L17 23ZM18 23L18 24L20 24L20 26L21 26L21 27L19 27L19 26L16 26L16 28L17 28L17 27L19 27L19 28L20 28L20 29L21 29L21 28L22 28L22 29L23 29L23 30L24 30L24 29L23 29L23 26L21 26L21 25L24 25L24 24L25 24L25 23L23 23L23 24L20 24L20 23ZM36 24L36 25L37 25L37 24ZM33 26L33 27L34 27L34 26ZM29 29L29 32L32 32L32 29ZM30 30L30 31L31 31L31 30ZM11 31L11 32L12 32L12 31ZM33 31L33 32L35 32L35 31ZM20 32L20 33L21 33L21 32ZM25 36L25 37L26 37L26 36ZM0 0L0 7L7 7L7 0ZM1 1L1 6L6 6L6 1ZM2 2L2 5L5 5L5 2ZM30 0L30 7L37 7L37 0ZM31 1L31 6L36 6L36 1ZM32 2L32 5L35 5L35 2ZM0 30L0 37L7 37L7 30ZM1 31L1 36L6 36L6 31ZM2 32L2 35L5 35L5 32Z" fill="#000000"/></g></g></svg>
