<?xml version="1.0" encoding="UTF-8"?>
<svg xmlns="http://www.w3.org/2000/svg" version="1.1" width="200" height="200" viewBox="0 0 200 200"><rect x="0" y="0" width="200" height="200" fill="#ffffff"/><g transform="scale(5.405)"><g transform="translate(0,0)"><path fill-rule="evenodd" d="M8 0L8 3L11 3L11 4L9 4L9 5L8 5L8 12L10 12L10 14L13 14L13 15L11 15L11 16L10 16L10 15L8 15L8 16L6 16L6 17L3 17L3 16L4 16L4 15L2 15L2 14L6 14L6 15L7 15L7 14L8 14L8 13L7 13L7 12L6 12L6 13L5 13L5 12L3 12L3 10L4 10L4 9L5 9L5 11L7 11L7 10L6 10L6 9L7 9L7 8L6 8L6 9L5 9L5 8L2 8L2 9L0 9L0 10L1 10L1 12L3 12L3 13L2 13L2 14L0 14L0 15L1 15L1 16L2 16L2 18L0 18L0 19L1 19L1 20L0 20L0 21L2 21L2 20L3 20L3 21L7 21L7 22L5 22L5 24L6 24L6 25L5 25L5 26L4 26L4 25L3 25L3 27L2 27L2 29L4 29L4 27L5 27L5 26L6 26L6 27L7 27L7 28L5 28L5 29L8 29L8 30L10 30L10 31L9 31L9 32L8 32L8 35L9 35L9 34L11 34L11 33L13 33L13 34L12 34L12 36L11 36L11 35L10 35L10 36L9 36L9 37L13 37L13 34L14 34L14 35L15 35L15 33L13 33L13 32L16 32L16 35L17 35L17 36L16 36L16 37L18 37L18 36L20 36L20 37L21 37L21 36L22 36L22 37L27 37L27 36L29 36L29 37L37 37L37 34L36 34L36 36L34 36L34 35L35 35L35 34L34 34L34 35L33 35L33 36L32 36L32 34L33 34L33 33L35 33L35 32L36 32L36 33L37 33L37 30L36 30L36 29L35 29L35 28L37 28L37 26L35 26L35 28L32 28L32 26L31 26L31 22L30 22L30 21L33 21L33 22L32 22L32 23L33 23L33 26L34 26L34 25L35 25L35 24L34 24L34 21L37 21L37 18L33 18L33 19L32 19L32 18L30 18L30 17L33 17L33 16L34 16L34 17L37 17L37 14L36 14L36 13L37 13L37 10L36 10L36 9L37 9L37 8L34 8L34 9L32 9L32 8L28 8L28 7L29 7L29 6L28 6L28 5L27 5L27 4L29 4L29 2L28 2L28 1L27 1L27 2L26 2L26 3L25 3L25 2L24 2L24 1L25 1L25 0L22 0L22 1L20 1L20 0L16 0L16 2L15 2L15 1L14 1L14 3L13 3L13 0L10 0L10 1L9 1L9 0ZM11 1L11 2L12 2L12 1ZM17 1L17 3L16 3L16 4L15 4L15 3L14 3L14 4L13 4L13 3L12 3L12 4L11 4L11 5L12 5L12 6L11 6L11 7L10 7L10 6L9 6L9 11L10 11L10 10L11 10L11 9L10 9L10 8L11 8L11 7L12 7L12 8L17 8L17 7L18 7L18 8L19 8L19 10L18 10L18 9L14 9L14 10L15 10L15 11L14 11L14 12L15 12L15 11L16 11L16 10L18 10L18 12L16 12L16 13L18 13L18 14L15 14L15 15L16 15L16 16L15 16L15 17L14 17L14 15L13 15L13 16L12 16L12 19L11 19L11 18L10 18L10 16L9 16L9 18L7 18L7 17L6 17L6 18L7 18L7 19L5 19L5 18L3 18L3 20L4 20L4 19L5 19L5 20L7 20L7 21L8 21L8 22L7 22L7 23L6 23L6 24L7 24L7 23L8 23L8 24L9 24L9 23L8 23L8 22L9 22L9 21L8 21L8 20L7 20L7 19L9 19L9 20L11 20L11 21L14 21L14 23L16 23L16 24L14 24L14 25L12 25L12 26L13 26L13 27L12 27L12 28L11 28L11 25L8 25L8 26L7 26L7 25L6 25L6 26L7 26L7 27L10 27L10 28L11 28L11 30L12 30L12 31L14 31L14 29L15 29L15 31L16 31L16 32L17 32L17 34L18 34L18 35L19 35L19 34L18 34L18 33L19 33L19 32L20 32L20 30L21 30L21 31L22 31L22 30L23 30L23 34L25 34L25 35L24 35L24 36L26 36L26 33L27 33L27 34L28 34L28 35L29 35L29 36L30 36L30 35L31 35L31 34L32 34L32 33L31 33L31 34L28 34L28 33L27 33L27 32L28 32L28 30L26 30L26 29L28 29L28 27L29 27L29 28L30 28L30 27L29 27L29 26L27 26L27 28L26 28L26 26L24 26L24 25L27 25L27 24L28 24L28 25L30 25L30 24L29 24L29 23L30 23L30 22L29 22L29 21L30 21L30 20L29 20L29 21L27 21L27 20L28 20L28 19L30 19L30 18L28 18L28 17L30 17L30 15L29 15L29 13L30 13L30 14L32 14L32 16L33 16L33 15L34 15L34 16L35 16L35 15L36 15L36 14L35 14L35 13L30 13L30 12L29 12L29 11L32 11L32 10L30 10L30 9L28 9L28 8L27 8L27 7L28 7L28 6L27 6L27 7L26 7L26 6L25 6L25 7L26 7L26 8L25 8L25 9L24 9L24 8L23 8L23 7L24 7L24 6L23 6L23 7L22 7L22 6L21 6L21 5L20 5L20 4L21 4L21 2L20 2L20 1L19 1L19 5L18 5L18 1ZM22 1L22 2L23 2L23 4L22 4L22 5L23 5L23 4L24 4L24 5L25 5L25 3L24 3L24 2L23 2L23 1ZM26 3L26 4L27 4L27 3ZM14 4L14 5L13 5L13 6L12 6L12 7L13 7L13 6L14 6L14 7L15 7L15 6L16 6L16 7L17 7L17 6L16 6L16 5L17 5L17 4L16 4L16 5L15 5L15 4ZM14 5L14 6L15 6L15 5ZM18 6L18 7L19 7L19 6ZM20 6L20 7L21 7L21 8L20 8L20 9L21 9L21 8L22 8L22 10L23 10L23 11L22 11L22 12L21 12L21 11L20 11L20 10L19 10L19 12L18 12L18 13L20 13L20 14L18 14L18 17L17 17L17 16L16 16L16 17L15 17L15 18L14 18L14 19L12 19L12 20L14 20L14 21L15 21L15 22L16 22L16 21L17 21L17 20L16 20L16 19L15 19L15 18L17 18L17 19L18 19L18 21L19 21L19 22L20 22L20 24L19 24L19 25L18 25L18 22L17 22L17 26L19 26L19 27L18 27L18 28L19 28L19 27L22 27L22 26L20 26L20 24L21 24L21 23L22 23L22 24L23 24L23 25L24 25L24 21L26 21L26 22L27 22L27 23L26 23L26 24L27 24L27 23L29 23L29 22L27 22L27 21L26 21L26 20L25 20L25 18L24 18L24 17L28 17L28 16L29 16L29 15L28 15L28 14L26 14L26 12L27 12L27 13L29 13L29 12L28 12L28 11L29 11L29 10L28 10L28 9L27 9L27 8L26 8L26 9L25 9L25 10L23 10L23 8L22 8L22 7L21 7L21 6ZM26 9L26 10L25 10L25 12L24 12L24 14L23 14L23 16L20 16L20 15L19 15L19 17L20 17L20 18L19 18L19 21L20 21L20 22L21 22L21 20L22 20L22 22L23 22L23 21L24 21L24 18L23 18L23 17L24 17L24 16L26 16L26 14L25 14L25 12L26 12L26 11L27 11L27 9ZM34 9L34 10L35 10L35 11L33 11L33 12L35 12L35 11L36 11L36 10L35 10L35 9ZM12 10L12 11L11 11L11 12L12 12L12 13L13 13L13 14L14 14L14 13L13 13L13 12L12 12L12 11L13 11L13 10ZM20 12L20 13L21 13L21 12ZM6 13L6 14L7 14L7 13ZM27 15L27 16L28 16L28 15ZM21 17L21 19L20 19L20 20L21 20L21 19L22 19L22 20L23 20L23 18L22 18L22 17ZM9 18L9 19L10 19L10 18ZM26 18L26 19L28 19L28 18ZM14 19L14 20L15 20L15 19ZM34 19L34 20L33 20L33 21L34 21L34 20L36 20L36 19ZM12 22L12 24L13 24L13 22ZM35 22L35 23L36 23L36 24L37 24L37 22ZM1 23L1 25L0 25L0 29L1 29L1 26L2 26L2 24L3 24L3 23ZM15 25L15 26L14 26L14 27L13 27L13 29L12 29L12 30L13 30L13 29L14 29L14 28L15 28L15 29L17 29L17 27L16 27L16 25ZM24 27L24 28L25 28L25 29L23 29L23 30L25 30L25 31L24 31L24 33L26 33L26 32L25 32L25 31L26 31L26 30L25 30L25 29L26 29L26 28L25 28L25 27ZM21 28L21 29L22 29L22 28ZM18 29L18 30L19 30L19 29ZM29 29L29 32L32 32L32 29ZM34 29L34 31L33 31L33 32L35 32L35 31L36 31L36 30L35 30L35 29ZM16 30L16 31L17 31L17 30ZM30 30L30 31L31 31L31 30ZM10 31L10 32L9 32L9 33L11 33L11 31ZM21 32L21 33L20 33L20 36L21 36L21 34L22 34L22 32ZM22 35L22 36L23 36L23 35ZM0 0L0 7L7 7L7 0ZM1 1L1 6L6 6L6 1ZM2 2L2 5L5 5L5 2ZM30 0L30 7L37 7L37 0ZM31 1L31 6L36 6L36 1ZM32 2L32 5L35 5L35 2ZM0 30L0 37L7 37L7 30ZM1 31L1 36L6 36L6 31ZM2 32L2 35L5 35L5 32Z" fill="#000000"/></g></g></svg>
