<?xml version="1.0" encoding="UTF-8"?>
<svg xmlns="http://www.w3.org/2000/svg" version="1.1" width="200" height="200" viewBox="0 0 200 200"><rect x="0" y="0" width="200" height="200" fill="#ffffff"/><g transform="scale(5.405)"><g transform="translate(0,0)"><path fill-rule="evenodd" d="M9 0L9 1L10 1L10 2L9 2L9 3L10 3L10 4L8 4L8 5L10 5L10 4L11 4L11 3L12 3L12 4L13 4L13 5L11 5L11 6L10 6L10 7L9 7L9 6L8 6L8 8L6 8L6 9L5 9L5 10L4 10L4 8L2 8L2 9L0 9L0 10L4 10L4 12L3 12L3 11L1 11L1 12L0 12L0 13L1 13L1 12L2 12L2 13L3 13L3 15L4 15L4 16L2 16L2 14L1 14L1 15L0 15L0 17L1 17L1 16L2 16L2 18L0 18L0 21L1 21L1 20L3 20L3 19L2 19L2 18L3 18L3 17L5 17L5 15L7 15L7 16L6 16L6 17L7 17L7 18L5 18L5 19L4 19L4 21L3 21L3 23L2 23L2 24L1 24L1 23L0 23L0 25L1 25L1 27L0 27L0 28L1 28L1 27L2 27L2 29L3 29L3 27L4 27L4 26L3 26L3 25L4 25L4 24L6 24L6 25L5 25L5 27L7 27L7 28L4 28L4 29L8 29L8 31L9 31L9 30L11 30L11 31L10 31L10 33L8 33L8 35L9 35L9 37L15 37L15 36L14 36L14 34L15 34L15 35L17 35L17 36L16 36L16 37L18 37L18 36L19 36L19 37L24 37L24 36L25 36L25 37L26 37L26 36L27 36L27 34L28 34L28 35L29 35L29 34L28 34L28 33L30 33L30 36L29 36L29 37L37 37L37 36L35 36L35 35L36 35L36 34L35 34L35 35L34 35L34 36L31 36L31 34L32 34L32 35L33 35L33 34L34 34L34 33L33 33L33 32L34 32L34 31L33 31L33 30L36 30L36 31L35 31L35 32L37 32L37 29L36 29L36 28L34 28L34 27L36 27L36 26L37 26L37 25L35 25L35 24L36 24L36 23L35 23L35 22L32 22L32 21L34 21L34 20L32 20L32 15L33 15L33 17L35 17L35 16L34 16L34 15L35 15L35 14L34 14L34 13L35 13L35 12L36 12L36 14L37 14L37 11L36 11L36 9L35 9L35 10L34 10L34 9L33 9L33 8L32 8L32 9L31 9L31 8L29 8L29 9L30 9L30 10L33 10L33 11L32 11L32 12L30 12L30 11L29 11L29 10L28 10L28 9L27 9L27 5L28 5L28 7L29 7L29 5L28 5L28 4L29 4L29 3L28 3L28 2L27 2L27 1L26 1L26 2L25 2L25 3L24 3L24 2L23 2L23 1L24 1L24 0L22 0L22 2L21 2L21 1L20 1L20 0L17 0L17 2L16 2L16 0L11 0L11 1L10 1L10 0ZM11 1L11 2L10 2L10 3L11 3L11 2L12 2L12 3L13 3L13 4L14 4L14 6L13 6L13 7L14 7L14 6L15 6L15 7L16 7L16 6L17 6L17 7L18 7L18 5L15 5L15 4L19 4L19 8L20 8L20 10L21 10L21 13L19 13L19 12L18 12L18 11L17 11L17 12L16 12L16 13L15 13L15 11L16 11L16 10L15 10L15 11L14 11L14 12L12 12L12 14L13 14L13 15L12 15L12 17L10 17L10 16L11 16L11 12L10 12L10 9L11 9L11 10L13 10L13 9L12 9L12 6L11 6L11 7L10 7L10 8L9 8L9 9L6 9L6 10L5 10L5 12L4 12L4 15L5 15L5 13L6 13L6 14L7 14L7 13L6 13L6 12L9 12L9 13L8 13L8 14L10 14L10 15L8 15L8 16L7 16L7 17L8 17L8 18L7 18L7 19L5 19L5 20L7 20L7 21L5 21L5 22L7 22L7 21L8 21L8 22L10 22L10 21L11 21L11 20L12 20L12 21L13 21L13 22L14 22L14 24L13 24L13 23L12 23L12 22L11 22L11 23L12 23L12 24L11 24L11 25L10 25L10 23L9 23L9 25L10 25L10 26L9 26L9 29L12 29L12 30L15 30L15 32L16 32L16 33L15 33L15 34L17 34L17 32L19 32L19 33L18 33L18 35L19 35L19 36L22 36L22 35L25 35L25 34L27 34L27 33L28 33L28 30L27 30L27 28L28 28L28 27L27 27L27 28L26 28L26 27L25 27L25 28L26 28L26 31L25 31L25 32L24 32L24 30L25 30L25 29L24 29L24 30L22 30L22 29L23 29L23 28L24 28L24 26L25 26L25 25L26 25L26 26L28 26L28 25L29 25L29 28L30 28L30 27L32 27L32 28L33 28L33 27L34 27L34 25L33 25L33 24L34 24L34 23L31 23L31 20L29 20L29 19L30 19L30 18L29 18L29 16L30 16L30 17L31 17L31 16L30 16L30 15L32 15L32 13L31 13L31 14L30 14L30 12L29 12L29 13L28 13L28 14L27 14L27 16L26 16L26 15L24 15L24 14L25 14L25 12L24 12L24 11L26 11L26 13L27 13L27 12L28 12L28 10L27 10L27 9L25 9L25 7L26 7L26 5L27 5L27 2L26 2L26 5L25 5L25 4L24 4L24 3L23 3L23 2L22 2L22 3L23 3L23 4L21 4L21 2L18 2L18 3L16 3L16 2L15 2L15 1L14 1L14 2L12 2L12 1ZM14 2L14 4L15 4L15 2ZM19 3L19 4L20 4L20 5L21 5L21 6L20 6L20 7L21 7L21 6L22 6L22 7L23 7L23 8L22 8L22 9L21 9L21 10L23 10L23 11L24 11L24 10L25 10L25 9L24 9L24 7L25 7L25 6L24 6L24 7L23 7L23 6L22 6L22 5L21 5L21 4L20 4L20 3ZM15 8L15 9L16 9L16 8ZM17 9L17 10L19 10L19 9ZM23 9L23 10L24 10L24 9ZM6 10L6 11L9 11L9 10ZM26 10L26 11L27 11L27 10ZM33 11L33 13L34 13L34 11ZM23 12L23 13L24 13L24 12ZM14 13L14 14L15 14L15 16L14 16L14 15L13 15L13 16L14 16L14 18L15 18L15 19L14 19L14 20L13 20L13 21L14 21L14 22L15 22L15 23L16 23L16 21L17 21L17 20L16 20L16 18L17 18L17 17L18 17L18 19L19 19L19 20L20 20L20 21L18 21L18 22L17 22L17 24L16 24L16 25L15 25L15 24L14 24L14 25L13 25L13 26L12 26L12 25L11 25L11 27L10 27L10 28L13 28L13 26L14 26L14 27L16 27L16 28L15 28L15 30L16 30L16 32L17 32L17 29L18 29L18 28L19 28L19 30L20 30L20 31L19 31L19 32L20 32L20 33L19 33L19 35L20 35L20 34L21 34L21 35L22 35L22 34L23 34L23 33L22 33L22 32L23 32L23 31L21 31L21 30L20 30L20 29L22 29L22 27L23 27L23 26L24 26L24 25L23 25L23 24L22 24L22 23L23 23L23 22L22 22L22 21L24 21L24 23L25 23L25 24L27 24L27 25L28 25L28 24L27 24L27 21L26 21L26 23L25 23L25 18L26 18L26 16L25 16L25 17L24 17L24 15L23 15L23 14L22 14L22 13L21 13L21 14L22 14L22 17L23 17L23 18L22 18L22 19L21 19L21 20L20 20L20 18L21 18L21 15L20 15L20 14L19 14L19 13L17 13L17 17L15 17L15 16L16 16L16 14L15 14L15 13ZM18 14L18 15L19 15L19 16L20 16L20 15L19 15L19 14ZM28 14L28 15L30 15L30 14ZM36 15L36 16L37 16L37 15ZM9 17L9 18L8 18L8 19L7 19L7 20L8 20L8 19L9 19L9 21L10 21L10 20L11 20L11 19L12 19L12 18L10 18L10 17ZM19 17L19 18L20 18L20 17ZM27 17L27 19L26 19L26 20L27 20L27 19L29 19L29 18L28 18L28 17ZM36 17L36 18L35 18L35 21L36 21L36 19L37 19L37 17ZM23 18L23 20L24 20L24 18ZM14 20L14 21L16 21L16 20ZM20 21L20 23L19 23L19 22L18 22L18 24L17 24L17 25L20 25L20 24L21 24L21 26L23 26L23 25L22 25L22 24L21 24L21 21ZM29 21L29 24L30 24L30 25L31 25L31 24L30 24L30 21ZM6 23L6 24L8 24L8 23ZM2 24L2 25L3 25L3 24ZM6 25L6 26L8 26L8 25ZM32 25L32 26L33 26L33 25ZM2 26L2 27L3 27L3 26ZM16 26L16 27L17 27L17 28L16 28L16 29L17 29L17 28L18 28L18 27L20 27L20 28L21 28L21 27L20 27L20 26L18 26L18 27L17 27L17 26ZM29 29L29 32L32 32L32 29ZM30 30L30 31L31 31L31 30ZM11 31L11 32L12 32L12 33L10 33L10 35L11 35L11 36L13 36L13 35L11 35L11 34L13 34L13 32L14 32L14 31L13 31L13 32L12 32L12 31ZM20 31L20 32L21 32L21 31ZM26 31L26 33L27 33L27 31ZM0 0L0 7L7 7L7 0ZM1 1L1 6L6 6L6 1ZM2 2L2 5L5 5L5 2ZM30 0L30 7L37 7L37 0ZM31 1L31 6L36 6L36 1ZM32 2L32 5L35 5L35 2ZM0 30L0 37L7 37L7 30ZM1 31L1 36L6 36L6 31ZM2 32L2 35L5 35L5 32Z" fill="#000000"/></g></g></svg>
