<?xml version="1.0" encoding="UTF-8"?>
<svg xmlns="http://www.w3.org/2000/svg" version="1.1" width="200" height="200" viewBox="0 0 200 200"><rect x="0" y="0" width="200" height="200" fill="#ffffff"/><g transform="scale(5.405)"><g transform="translate(0,0)"><path fill-rule="evenodd" d="M8 0L8 3L9 3L9 4L10 4L10 3L9 3L9 0ZM11 0L11 1L10 1L10 2L11 2L11 4L12 4L12 5L13 5L13 6L12 6L12 7L11 7L11 6L10 6L10 7L9 7L9 5L8 5L8 9L7 9L7 8L6 8L6 9L5 9L5 8L2 8L2 9L0 9L0 13L1 13L1 12L2 12L2 11L5 11L5 10L6 10L6 11L7 11L7 10L8 10L8 12L5 12L5 14L4 14L4 13L3 13L3 14L2 14L2 15L0 15L0 20L1 20L1 16L2 16L2 17L5 17L5 19L7 19L7 20L4 20L4 19L2 19L2 21L1 21L1 22L0 22L0 29L1 29L1 26L4 26L4 27L7 27L7 26L8 26L8 28L9 28L9 29L8 29L8 30L10 30L10 28L12 28L12 27L10 27L10 25L7 25L7 24L6 24L6 23L7 23L7 22L6 22L6 23L5 23L5 22L3 22L3 23L2 23L2 21L3 21L3 20L4 20L4 21L7 21L7 20L9 20L9 21L10 21L10 22L8 22L8 23L9 23L9 24L10 24L10 23L11 23L11 21L12 21L12 22L14 22L14 23L15 23L15 24L14 24L14 26L13 26L13 27L14 27L14 28L13 28L13 29L11 29L11 31L12 31L12 32L10 32L10 31L9 31L9 32L8 32L8 35L9 35L9 34L10 34L10 33L11 33L11 34L14 34L14 35L11 35L11 36L13 36L13 37L14 37L14 35L17 35L17 36L19 36L19 37L20 37L20 36L21 36L21 37L22 37L22 36L21 36L21 35L22 35L22 34L21 34L21 33L22 33L22 31L23 31L23 30L24 30L24 29L25 29L25 30L27 30L27 29L26 29L26 28L27 28L27 26L29 26L29 27L28 27L28 31L26 31L26 32L25 32L25 31L24 31L24 33L27 33L27 34L33 34L33 36L32 36L32 35L26 35L26 36L24 36L24 35L25 35L25 34L23 34L23 37L27 37L27 36L31 36L31 37L37 37L37 34L36 34L36 36L34 36L34 34L33 34L33 32L34 32L34 33L35 33L35 32L34 32L34 29L35 29L35 28L36 28L36 29L37 29L37 26L34 26L34 25L35 25L35 24L34 24L34 23L37 23L37 22L34 22L34 21L37 21L37 18L35 18L35 19L36 19L36 20L34 20L34 19L32 19L32 18L30 18L30 17L33 17L33 16L34 16L34 17L37 17L37 14L36 14L36 13L37 13L37 10L36 10L36 9L37 9L37 8L34 8L34 9L32 9L32 8L28 8L28 7L29 7L29 4L28 4L28 3L27 3L27 2L29 2L29 1L27 1L27 2L26 2L26 3L24 3L24 2L25 2L25 1L26 1L26 0L22 0L22 1L23 1L23 2L22 2L22 3L21 3L21 0L20 0L20 4L21 4L21 6L20 6L20 7L21 7L21 8L22 8L22 9L23 9L23 10L21 10L21 9L20 9L20 8L19 8L19 9L16 9L16 8L18 8L18 7L19 7L19 6L18 6L18 5L19 5L19 4L18 4L18 1L19 1L19 0L16 0L16 1L17 1L17 2L13 2L13 1L15 1L15 0ZM11 1L11 2L12 2L12 1ZM13 3L13 4L14 4L14 6L13 6L13 7L14 7L14 6L15 6L15 7L16 7L16 6L17 6L17 7L18 7L18 6L17 6L17 5L16 5L16 3L15 3L15 4L14 4L14 3ZM26 3L26 4L27 4L27 5L28 5L28 4L27 4L27 3ZM22 4L22 6L21 6L21 7L22 7L22 8L24 8L24 4ZM15 5L15 6L16 6L16 5ZM22 6L22 7L23 7L23 6ZM25 6L25 7L26 7L26 8L25 8L25 9L24 9L24 10L27 10L27 9L26 9L26 8L27 8L27 7L28 7L28 6L27 6L27 7L26 7L26 6ZM10 7L10 8L9 8L9 9L10 9L10 10L9 10L9 11L10 11L10 13L9 13L9 12L8 12L8 13L9 13L9 14L8 14L8 15L6 15L6 16L8 16L8 15L9 15L9 18L11 18L11 19L9 19L9 20L10 20L10 21L11 21L11 20L12 20L12 21L15 21L15 19L16 19L16 21L17 21L17 22L18 22L18 24L19 24L19 23L21 23L21 24L22 24L22 25L23 25L23 29L21 29L21 27L22 27L22 26L21 26L21 27L20 27L20 25L19 25L19 27L20 27L20 28L17 28L17 29L16 29L16 26L17 26L17 27L18 27L18 25L16 25L16 24L17 24L17 23L16 23L16 24L15 24L15 26L14 26L14 27L15 27L15 28L14 28L14 29L13 29L13 31L14 31L14 30L15 30L15 31L16 31L16 30L17 30L17 31L18 31L18 32L12 32L12 33L14 33L14 34L17 34L17 35L18 35L18 34L19 34L19 35L20 35L20 33L21 33L21 31L20 31L20 30L23 30L23 29L24 29L24 27L25 27L25 28L26 28L26 26L24 26L24 25L27 25L27 24L28 24L28 25L30 25L30 24L29 24L29 23L30 23L30 22L32 22L32 24L31 24L31 27L30 27L30 28L31 28L31 27L32 27L32 28L33 28L33 29L34 29L34 28L35 28L35 27L34 27L34 26L33 26L33 23L34 23L34 22L33 22L33 21L34 21L34 20L33 20L33 21L30 21L30 19L29 19L29 18L28 18L28 17L30 17L30 15L29 15L29 16L28 16L28 17L27 17L27 16L26 16L26 14L29 14L29 13L30 13L30 14L31 14L31 16L33 16L33 14L35 14L35 15L34 15L34 16L36 16L36 14L35 14L35 13L36 13L36 12L35 12L35 11L36 11L36 10L35 10L35 9L34 9L34 10L35 10L35 11L33 11L33 12L35 12L35 13L30 13L30 11L32 11L32 10L30 10L30 9L28 9L28 10L29 10L29 11L28 11L28 12L29 12L29 13L27 13L27 11L25 11L25 12L24 12L24 11L21 11L21 10L20 10L20 11L19 11L19 10L17 10L17 11L19 11L19 12L20 12L20 15L19 15L19 13L17 13L17 12L16 12L16 10L15 10L15 9L14 9L14 8L13 8L13 11L12 11L12 10L11 10L11 9L12 9L12 8L11 8L11 7ZM2 9L2 10L3 10L3 9ZM4 9L4 10L5 10L5 9ZM6 9L6 10L7 10L7 9ZM10 10L10 11L11 11L11 10ZM14 11L14 12L13 12L13 14L12 14L12 13L10 13L10 15L11 15L11 16L10 16L10 17L12 17L12 18L13 18L13 14L14 14L14 15L17 15L17 14L14 14L14 13L15 13L15 11ZM20 11L20 12L21 12L21 11ZM25 12L25 14L26 14L26 12ZM6 13L6 14L7 14L7 13ZM21 13L21 14L22 14L22 13ZM11 14L11 15L12 15L12 14ZM3 15L3 16L5 16L5 15ZM20 15L20 16L17 16L17 17L15 17L15 16L14 16L14 19L12 19L12 20L14 20L14 19L15 19L15 18L16 18L16 19L17 19L17 20L20 20L20 19L19 19L19 18L20 18L20 16L21 16L21 18L22 18L22 16L23 16L23 19L22 19L22 20L21 20L21 21L18 21L18 22L21 22L21 21L23 21L23 20L25 20L25 21L24 21L24 23L23 23L23 22L22 22L22 24L24 24L24 23L25 23L25 21L26 21L26 22L27 22L27 23L26 23L26 24L27 24L27 23L29 23L29 22L30 22L30 21L29 21L29 20L27 20L27 21L26 21L26 20L25 20L25 19L28 19L28 18L27 18L27 17L26 17L26 16L25 16L25 15L24 15L24 16L23 16L23 15ZM24 16L24 18L26 18L26 17L25 17L25 16ZM6 17L6 18L7 18L7 19L8 19L8 18L7 18L7 17ZM17 17L17 18L19 18L19 17ZM27 21L27 22L29 22L29 21ZM1 23L1 25L4 25L4 26L5 26L5 23L4 23L4 24L2 24L2 23ZM11 24L11 25L13 25L13 24ZM36 24L36 25L37 25L37 24ZM6 25L6 26L7 26L7 25ZM2 27L2 28L3 28L3 29L5 29L5 28L3 28L3 27ZM33 27L33 28L34 28L34 27ZM6 28L6 29L7 29L7 28ZM15 29L15 30L16 30L16 29ZM29 29L29 32L32 32L32 29ZM18 30L18 31L19 31L19 32L20 32L20 31L19 31L19 30ZM30 30L30 31L31 31L31 30ZM35 30L35 31L37 31L37 30ZM36 32L36 33L37 33L37 32ZM15 36L15 37L16 37L16 36ZM0 0L0 7L7 7L7 0ZM1 1L1 6L6 6L6 1ZM2 2L2 5L5 5L5 2ZM30 0L30 7L37 7L37 0ZM31 1L31 6L36 6L36 1ZM32 2L32 5L35 5L35 2ZM0 30L0 37L7 37L7 30ZM1 31L1 36L6 36L6 31ZM2 32L2 35L5 35L5 32Z" fill="#000000"/></g></g></svg>
