<?xml version="1.0" encoding="UTF-8"?>
<svg xmlns="http://www.w3.org/2000/svg" version="1.1" width="200" height="200" viewBox="0 0 200 200"><rect x="0" y="0" width="200" height="200" fill="#ffffff"/><g transform="scale(5.405)"><g transform="translate(0,0)"><path fill-rule="evenodd" d="M12 0L12 1L10 1L10 4L9 4L9 5L8 5L8 8L4 8L4 9L3 9L3 12L4 12L4 14L3 14L3 13L2 13L2 14L1 14L1 13L0 13L0 14L1 14L1 16L2 16L2 14L3 14L3 15L4 15L4 16L3 16L3 18L2 18L2 17L0 17L0 19L1 19L1 20L0 20L0 21L2 21L2 22L1 22L1 23L2 23L2 24L4 24L4 25L7 25L7 24L5 24L5 23L4 23L4 22L6 22L6 23L8 23L8 25L9 25L9 23L8 23L8 22L11 22L11 23L12 23L12 24L10 24L10 26L2 26L2 28L0 28L0 29L8 29L8 33L10 33L10 34L9 34L9 35L10 35L10 37L11 37L11 33L10 33L10 32L11 32L11 31L12 31L12 30L14 30L14 32L13 32L13 33L12 33L12 35L15 35L15 36L16 36L16 34L17 34L17 36L19 36L19 37L20 37L20 36L19 36L19 34L20 34L20 35L21 35L21 37L22 37L22 34L21 34L21 33L22 33L22 32L23 32L23 31L24 31L24 33L25 33L25 35L24 35L24 36L23 36L23 37L24 37L24 36L25 36L25 35L26 35L26 33L27 33L27 36L26 36L26 37L28 37L28 33L30 33L30 35L31 35L31 36L30 36L30 37L31 37L31 36L32 36L32 33L35 33L35 31L36 31L36 33L37 33L37 31L36 31L36 29L37 29L37 28L35 28L35 27L36 27L36 25L37 25L37 23L36 23L36 21L37 21L37 20L36 20L36 19L32 19L32 18L33 18L33 17L37 17L37 16L36 16L36 13L37 13L37 11L36 11L36 8L35 8L35 10L32 10L32 11L31 11L31 12L29 12L29 11L30 11L30 10L31 10L31 9L32 9L32 8L30 8L30 10L29 10L29 11L28 11L28 10L27 10L27 9L26 9L26 7L27 7L27 6L26 6L26 7L25 7L25 6L24 6L24 7L25 7L25 10L23 10L23 9L24 9L24 8L23 8L23 5L24 5L24 3L23 3L23 0L19 0L19 1L20 1L20 2L22 2L22 4L21 4L21 3L18 3L18 1L17 1L17 3L18 3L18 4L17 4L17 5L18 5L18 7L17 7L17 6L16 6L16 4L15 4L15 3L16 3L16 2L15 2L15 1L16 1L16 0ZM25 0L25 1L26 1L26 2L27 2L27 5L28 5L28 3L29 3L29 1L28 1L28 0ZM8 1L8 2L9 2L9 1ZM27 1L27 2L28 2L28 1ZM11 2L11 3L12 3L12 4L10 4L10 5L9 5L9 8L8 8L8 10L7 10L7 9L5 9L5 10L4 10L4 12L5 12L5 13L6 13L6 14L5 14L5 15L6 15L6 16L7 16L7 15L8 15L8 17L6 17L6 18L8 18L8 20L7 20L7 19L6 19L6 20L7 20L7 21L6 21L6 22L7 22L7 21L8 21L8 20L9 20L9 19L11 19L11 20L10 20L10 21L11 21L11 22L12 22L12 21L14 21L14 20L16 20L16 19L15 19L15 18L16 18L16 17L15 17L15 18L13 18L13 20L12 20L12 19L11 19L11 16L12 16L12 14L13 14L13 12L15 12L15 13L14 13L14 15L13 15L13 16L15 16L15 15L16 15L16 13L18 13L18 14L17 14L17 16L18 16L18 14L20 14L20 13L18 13L18 12L17 12L17 11L19 11L19 9L20 9L20 10L21 10L21 9L23 9L23 8L22 8L22 5L23 5L23 4L22 4L22 5L19 5L19 9L17 9L17 11L14 11L14 10L15 10L15 9L16 9L16 8L17 8L17 7L16 7L16 6L15 6L15 7L16 7L16 8L15 8L15 9L14 9L14 6L13 6L13 5L14 5L14 4L13 4L13 2ZM14 2L14 3L15 3L15 2ZM25 3L25 4L26 4L26 3ZM12 4L12 5L10 5L10 8L9 8L9 9L10 9L10 10L9 10L9 11L8 11L8 12L9 12L9 11L10 11L10 13L8 13L8 15L9 15L9 17L8 17L8 18L9 18L9 17L10 17L10 15L11 15L11 14L12 14L12 12L13 12L13 11L10 11L10 10L11 10L11 8L13 8L13 6L12 6L12 5L13 5L13 4ZM11 6L11 7L12 7L12 6ZM20 6L20 9L21 9L21 6ZM28 6L28 9L29 9L29 6ZM0 9L0 10L1 10L1 9ZM13 9L13 10L14 10L14 9ZM6 10L6 11L7 11L7 10ZM22 10L22 12L23 12L23 10ZM25 10L25 14L24 14L24 15L23 15L23 16L24 16L24 17L26 17L26 18L27 18L27 17L28 17L28 19L27 19L27 20L26 20L26 19L23 19L23 17L22 17L22 16L19 16L19 17L17 17L17 18L19 18L19 17L21 17L21 18L22 18L22 20L23 20L23 21L21 21L21 20L20 20L20 19L17 19L17 21L15 21L15 22L17 22L17 21L18 21L18 20L20 20L20 21L19 21L19 24L20 24L20 25L21 25L21 26L22 26L22 27L20 27L20 26L19 26L19 27L18 27L18 25L17 25L17 24L16 24L16 23L15 23L15 24L14 24L14 23L13 23L13 24L14 24L14 25L12 25L12 26L10 26L10 27L8 27L8 28L10 28L10 30L9 30L9 32L10 32L10 31L11 31L11 30L12 30L12 28L10 28L10 27L12 27L12 26L13 26L13 29L15 29L15 27L14 27L14 25L17 25L17 27L16 27L16 29L18 29L18 30L20 30L20 28L22 28L22 29L21 29L21 31L20 31L20 32L19 32L19 31L18 31L18 33L21 33L21 32L22 32L22 30L23 30L23 29L25 29L25 33L26 33L26 31L27 31L27 33L28 33L28 29L26 29L26 26L27 26L27 28L30 28L30 27L31 27L31 26L30 26L30 27L28 27L28 25L30 25L30 24L33 24L33 26L32 26L32 28L33 28L33 29L34 29L34 30L33 30L33 31L34 31L34 30L35 30L35 29L34 29L34 26L35 26L35 25L36 25L36 23L35 23L35 25L34 25L34 24L33 24L33 23L34 23L34 22L35 22L35 21L33 21L33 20L31 20L31 21L30 21L30 20L28 20L28 19L29 19L29 17L30 17L30 19L31 19L31 17L33 17L33 14L32 14L32 13L34 13L34 15L35 15L35 13L34 13L34 11L33 11L33 12L32 12L32 13L29 13L29 12L27 12L27 10ZM1 11L1 12L2 12L2 11ZM35 11L35 12L36 12L36 11ZM6 12L6 13L7 13L7 12ZM26 12L26 17L27 17L27 16L28 16L28 17L29 17L29 16L30 16L30 17L31 17L31 16L32 16L32 15L31 15L31 16L30 16L30 15L29 15L29 13L27 13L27 12ZM10 13L10 14L11 14L11 13ZM6 14L6 15L7 15L7 14ZM24 15L24 16L25 16L25 15ZM28 15L28 16L29 16L29 15ZM4 17L4 18L3 18L3 22L4 22L4 18L5 18L5 17ZM1 18L1 19L2 19L2 18ZM11 20L11 21L12 21L12 20ZM20 21L20 22L21 22L21 23L20 23L20 24L21 24L21 23L22 23L22 24L23 24L23 25L22 25L22 26L23 26L23 28L24 28L24 27L25 27L25 25L27 25L27 23L28 23L28 24L29 24L29 23L30 23L30 21L23 21L23 22L21 22L21 21ZM31 21L31 22L32 22L32 23L33 23L33 21ZM23 22L23 24L24 24L24 25L23 25L23 26L24 26L24 25L25 25L25 24L26 24L26 23L27 23L27 22ZM28 22L28 23L29 23L29 22ZM24 23L24 24L25 24L25 23ZM0 25L0 26L1 26L1 25ZM3 27L3 28L5 28L5 27ZM6 27L6 28L7 28L7 27ZM19 27L19 28L18 28L18 29L19 29L19 28L20 28L20 27ZM29 29L29 32L32 32L32 29ZM15 30L15 31L17 31L17 30ZM30 30L30 31L31 31L31 30ZM14 32L14 33L13 33L13 34L16 34L16 33L17 33L17 32L16 32L16 33L15 33L15 32ZM34 34L34 35L33 35L33 36L34 36L34 37L37 37L37 36L36 36L36 34ZM0 0L0 7L7 7L7 0ZM1 1L1 6L6 6L6 1ZM2 2L2 5L5 5L5 2ZM30 0L30 7L37 7L37 0ZM31 1L31 6L36 6L36 1ZM32 2L32 5L35 5L35 2ZM0 30L0 37L7 37L7 30ZM1 31L1 36L6 36L6 31ZM2 32L2 35L5 35L5 32Z" fill="#000000"/></g></g></svg>
