<?xml version="1.0" encoding="UTF-8"?>
<svg xmlns="http://www.w3.org/2000/svg" version="1.1" width="200" height="200" viewBox="0 0 200 200"><rect x="0" y="0" width="200" height="200" fill="#ffffff"/><g transform="scale(5.405)"><g transform="translate(0,0)"><path fill-rule="evenodd" d="M10 0L10 2L9 2L9 3L10 3L10 2L11 2L11 4L10 4L10 5L9 5L9 4L8 4L8 5L9 5L9 6L8 6L8 8L6 8L6 9L4 9L4 8L2 8L2 9L4 9L4 11L3 11L3 10L2 10L2 11L1 11L1 12L2 12L2 11L3 11L3 12L4 12L4 11L7 11L7 12L5 12L5 13L4 13L4 14L5 14L5 15L4 15L4 16L3 16L3 17L2 17L2 19L0 19L0 24L4 24L4 27L3 27L3 25L1 25L1 27L0 27L0 28L1 28L1 27L3 27L3 28L2 28L2 29L4 29L4 27L5 27L5 29L8 29L8 31L10 31L10 32L9 32L9 33L8 33L8 35L9 35L9 34L11 34L11 33L12 33L12 35L13 35L13 36L11 36L11 35L10 35L10 36L9 36L9 37L14 37L14 35L17 35L17 36L16 36L16 37L17 37L17 36L18 36L18 35L19 35L19 36L20 36L20 37L21 37L21 36L22 36L22 35L23 35L23 37L24 37L24 36L25 36L25 37L26 37L26 36L27 36L27 34L29 34L29 33L30 33L30 35L29 35L29 37L37 37L37 36L35 36L35 35L36 35L36 34L34 34L34 36L30 36L30 35L31 35L31 34L32 34L32 35L33 35L33 33L34 33L34 32L33 32L33 30L34 30L34 31L37 31L37 29L36 29L36 30L35 30L35 28L37 28L37 27L36 27L36 26L37 26L37 24L35 24L35 23L36 23L36 19L37 19L37 17L36 17L36 16L37 16L37 15L36 15L36 14L37 14L37 12L36 12L36 9L33 9L33 8L32 8L32 9L31 9L31 8L29 8L29 9L30 9L30 10L33 10L33 11L32 11L32 12L30 12L30 14L28 14L28 13L29 13L29 10L28 10L28 9L27 9L27 8L28 8L28 7L29 7L29 6L28 6L28 7L27 7L27 5L29 5L29 4L28 4L28 3L29 3L29 1L28 1L28 2L27 2L27 1L25 1L25 0L23 0L23 1L24 1L24 2L22 2L22 0L21 0L21 2L20 2L20 0L18 0L18 1L19 1L19 3L18 3L18 4L15 4L15 2L16 2L16 3L17 3L17 2L16 2L16 1L17 1L17 0ZM11 1L11 2L12 2L12 4L13 4L13 3L14 3L14 2L12 2L12 1ZM24 2L24 3L21 3L21 4L20 4L20 5L19 5L19 4L18 4L18 5L19 5L19 7L20 7L20 8L19 8L19 9L18 9L18 6L17 6L17 5L15 5L15 4L14 4L14 5L12 5L12 6L11 6L11 5L10 5L10 6L9 6L9 7L10 7L10 6L11 6L11 8L10 8L10 9L8 9L8 10L7 10L7 9L6 9L6 10L7 10L7 11L9 11L9 12L8 12L8 13L10 13L10 12L11 12L11 14L9 14L9 15L10 15L10 16L11 16L11 17L10 17L10 18L9 18L9 16L8 16L8 14L7 14L7 13L5 13L5 14L7 14L7 15L5 15L5 17L4 17L4 19L2 19L2 20L1 20L1 22L2 22L2 23L3 23L3 22L2 22L2 21L3 21L3 20L4 20L4 22L8 22L8 23L5 23L5 25L6 25L6 26L7 26L7 27L6 27L6 28L7 28L7 27L8 27L8 28L9 28L9 29L10 29L10 31L11 31L11 32L10 32L10 33L11 33L11 32L13 32L13 34L16 34L16 33L17 33L17 35L18 35L18 33L17 33L17 32L19 32L19 34L21 34L21 33L23 33L23 35L25 35L25 34L26 34L26 33L28 33L28 30L26 30L26 31L25 31L25 30L23 30L23 28L24 28L24 29L25 29L25 28L26 28L26 27L25 27L25 28L24 28L24 26L25 26L25 25L26 25L26 26L28 26L28 25L29 25L29 26L30 26L30 27L31 27L31 26L32 26L32 28L33 28L33 29L34 29L34 28L35 28L35 27L33 27L33 26L34 26L34 25L33 25L33 24L34 24L34 23L35 23L35 19L34 19L34 17L33 17L33 15L34 15L34 16L35 16L35 13L34 13L34 11L35 11L35 10L34 10L34 11L33 11L33 13L34 13L34 14L33 14L33 15L32 15L32 20L31 20L31 19L30 19L30 17L31 17L31 16L30 16L30 15L31 15L31 14L32 14L32 13L31 13L31 14L30 14L30 15L28 15L28 14L27 14L27 15L28 15L28 16L29 16L29 19L30 19L30 20L29 20L29 21L30 21L30 24L28 24L28 25L27 25L27 24L24 24L24 26L23 26L23 28L21 28L21 27L20 27L20 26L21 26L21 24L22 24L22 25L23 25L23 24L22 24L22 23L26 23L26 22L27 22L27 23L29 23L29 22L28 22L28 19L27 19L27 16L26 16L26 15L23 15L23 16L26 16L26 19L25 19L25 21L24 21L24 20L23 20L23 19L22 19L22 18L21 18L21 19L20 19L20 18L18 18L18 16L17 16L17 15L18 15L18 14L19 14L19 12L18 12L18 11L20 11L20 14L22 14L22 13L23 13L23 14L25 14L25 11L27 11L27 12L26 12L26 13L27 13L27 12L28 12L28 10L27 10L27 9L25 9L25 7L26 7L26 5L27 5L27 3L26 3L26 5L25 5L25 7L24 7L24 3L25 3L25 2ZM21 4L21 6L20 6L20 7L21 7L21 10L22 10L22 11L21 11L21 13L22 13L22 11L24 11L24 10L25 10L25 9L23 9L23 8L24 8L24 7L23 7L23 5L22 5L22 4ZM12 6L12 8L14 8L14 9L12 9L12 10L14 10L14 9L15 9L15 6L14 6L14 7L13 7L13 6ZM16 6L16 7L17 7L17 6ZM21 6L21 7L22 7L22 6ZM16 8L16 9L17 9L17 10L15 10L15 13L14 13L14 15L13 15L13 16L14 16L14 17L15 17L15 16L16 16L16 17L17 17L17 16L16 16L16 15L17 15L17 14L18 14L18 12L17 12L17 10L18 10L18 9L17 9L17 8ZM12 11L12 12L14 12L14 11ZM16 12L16 13L15 13L15 14L16 14L16 13L17 13L17 12ZM0 13L0 16L1 16L1 15L3 15L3 14L2 14L2 13ZM11 14L11 15L12 15L12 14ZM19 15L19 17L21 17L21 16L22 16L22 15ZM6 16L6 17L7 17L7 18L5 18L5 19L4 19L4 20L5 20L5 19L7 19L7 18L8 18L8 20L12 20L12 19L13 19L13 21L10 21L10 22L9 22L9 24L6 24L6 25L8 25L8 26L9 26L9 24L10 24L10 22L12 22L12 24L11 24L11 25L10 25L10 26L11 26L11 27L9 27L9 28L12 28L12 31L14 31L14 33L16 33L16 31L17 31L17 30L20 30L20 31L21 31L21 32L25 32L25 31L23 31L23 30L21 30L21 29L18 29L18 28L19 28L19 27L17 27L17 26L20 26L20 24L21 24L21 22L22 22L22 21L23 21L23 20L22 20L22 19L21 19L21 22L19 22L19 21L20 21L20 19L18 19L18 18L16 18L16 19L15 19L15 18L14 18L14 19L13 19L13 17L12 17L12 18L11 18L11 19L9 19L9 18L8 18L8 17L7 17L7 16ZM0 17L0 18L1 18L1 17ZM23 17L23 18L25 18L25 17ZM35 17L35 18L36 18L36 17ZM14 19L14 20L15 20L15 22L14 22L14 21L13 21L13 22L14 22L14 26L13 26L13 27L12 27L12 28L13 28L13 29L14 29L14 30L16 30L16 29L17 29L17 27L16 27L16 28L15 28L15 26L17 26L17 25L19 25L19 24L20 24L20 23L19 23L19 22L17 22L17 19L16 19L16 20L15 20L15 19ZM33 19L33 20L32 20L32 21L33 21L33 22L31 22L31 24L30 24L30 25L31 25L31 24L32 24L32 23L34 23L34 21L33 21L33 20L34 20L34 19ZM6 20L6 21L7 21L7 20ZM18 20L18 21L19 21L19 20ZM26 20L26 21L27 21L27 20ZM15 23L15 25L16 25L16 23ZM18 23L18 24L19 24L19 23ZM12 24L12 25L11 25L11 26L12 26L12 25L13 25L13 24ZM32 25L32 26L33 26L33 25ZM13 27L13 28L14 28L14 29L15 29L15 28L14 28L14 27ZM27 27L27 28L28 28L28 27ZM29 29L29 32L32 32L32 29ZM30 30L30 31L31 31L31 30ZM26 31L26 32L27 32L27 31ZM36 32L36 33L37 33L37 32ZM0 0L0 7L7 7L7 0ZM1 1L1 6L6 6L6 1ZM2 2L2 5L5 5L5 2ZM30 0L30 7L37 7L37 0ZM31 1L31 6L36 6L36 1ZM32 2L32 5L35 5L35 2ZM0 30L0 37L7 37L7 30ZM1 31L1 36L6 36L6 31ZM2 32L2 35L5 35L5 32Z" fill="#000000"/></g></g></svg>
