<?xml version="1.0" encoding="UTF-8"?>
<svg xmlns="http://www.w3.org/2000/svg" version="1.1" width="200" height="200" viewBox="0 0 200 200"><rect x="0" y="0" width="200" height="200" fill="#ffffff"/><g transform="scale(5.405)"><g transform="translate(0,0)"><path fill-rule="evenodd" d="M8 0L8 3L9 3L9 2L10 2L10 4L9 4L9 5L8 5L8 9L11 9L11 10L10 10L10 12L11 12L11 13L10 13L10 14L8 14L8 12L9 12L9 11L7 11L7 10L5 10L5 8L2 8L2 9L3 9L3 10L2 10L2 12L1 12L1 13L3 13L3 11L4 11L4 12L5 12L5 11L7 11L7 12L6 12L6 13L4 13L4 14L5 14L5 17L4 17L4 18L3 18L3 17L2 17L2 16L1 16L1 15L2 15L2 14L0 14L0 17L2 17L2 18L3 18L3 19L4 19L4 18L5 18L5 19L7 19L7 20L6 20L6 21L8 21L8 20L12 20L12 22L11 22L11 21L9 21L9 22L10 22L10 23L8 23L8 24L9 24L9 27L8 27L8 28L6 28L6 27L7 27L7 26L8 26L8 25L7 25L7 24L6 24L6 23L7 23L7 22L5 22L5 20L4 20L4 22L5 22L5 24L4 24L4 23L3 23L3 22L1 22L1 21L3 21L3 20L2 20L2 19L1 19L1 18L0 18L0 19L1 19L1 21L0 21L0 23L3 23L3 24L1 24L1 25L0 25L0 29L1 29L1 26L2 26L2 25L3 25L3 24L4 24L4 26L3 26L3 27L4 27L4 28L3 28L3 29L4 29L4 28L5 28L5 29L8 29L8 30L11 30L11 31L10 31L10 32L11 32L11 31L13 31L13 32L12 32L12 34L13 34L13 35L12 35L12 36L11 36L11 37L12 37L12 36L13 36L13 37L14 37L14 34L15 34L15 31L16 31L16 32L17 32L17 31L18 31L18 35L17 35L17 36L19 36L19 37L20 37L20 35L21 35L21 33L22 33L22 37L27 37L27 36L29 36L29 35L30 35L30 34L34 34L34 33L37 33L37 32L34 32L34 31L35 31L35 30L36 30L36 31L37 31L37 30L36 30L36 29L37 29L37 28L36 28L36 27L37 27L37 26L36 26L36 25L37 25L37 24L34 24L34 23L35 23L35 22L36 22L36 23L37 23L37 22L36 22L36 21L37 21L37 18L35 18L35 19L36 19L36 20L33 20L33 19L32 19L32 18L30 18L30 17L33 17L33 18L34 18L34 17L37 17L37 16L33 16L33 15L37 15L37 14L33 14L33 15L32 15L32 16L31 16L31 14L32 14L32 13L35 13L35 12L33 12L33 11L35 11L35 10L36 10L36 11L37 11L37 10L36 10L36 9L37 9L37 8L34 8L34 9L35 9L35 10L33 10L33 9L32 9L32 8L26 8L26 7L27 7L27 6L28 6L28 7L29 7L29 5L27 5L27 4L29 4L29 1L27 1L27 2L26 2L26 3L25 3L25 4L24 4L24 5L23 5L23 4L22 4L22 3L24 3L24 2L23 2L23 1L25 1L25 0L21 0L21 1L22 1L22 3L21 3L21 4L22 4L22 5L23 5L23 6L22 6L22 7L21 7L21 6L20 6L20 7L19 7L19 5L20 5L20 4L19 4L19 5L18 5L18 7L17 7L17 4L18 4L18 3L17 3L17 0L16 0L16 1L14 1L14 0L13 0L13 1L14 1L14 4L13 4L13 5L12 5L12 3L13 3L13 2L12 2L12 3L11 3L11 1L9 1L9 0ZM18 0L18 1L20 1L20 0ZM15 2L15 3L16 3L16 2ZM27 2L27 3L26 3L26 4L27 4L27 3L28 3L28 2ZM10 4L10 6L9 6L9 7L10 7L10 6L11 6L11 7L12 7L12 8L11 8L11 9L12 9L12 11L11 11L11 12L12 12L12 13L11 13L11 14L12 14L12 17L11 17L11 18L10 18L10 19L12 19L12 20L13 20L13 22L12 22L12 23L11 23L11 24L10 24L10 25L11 25L11 24L13 24L13 25L15 25L15 24L16 24L16 23L15 23L15 22L14 22L14 19L12 19L12 17L14 17L14 18L16 18L16 20L15 20L15 21L16 21L16 22L19 22L19 21L21 21L21 22L22 22L22 20L23 20L23 21L24 21L24 22L25 22L25 24L22 24L22 23L20 23L20 25L21 25L21 24L22 24L22 26L21 26L21 28L20 28L20 27L16 27L16 26L15 26L15 27L14 27L14 26L11 26L11 27L9 27L9 28L8 28L8 29L9 29L9 28L10 28L10 29L11 29L11 27L13 27L13 28L12 28L12 29L13 29L13 28L15 28L15 30L16 30L16 31L17 31L17 30L18 30L18 28L20 28L20 29L19 29L19 31L20 31L20 32L21 32L21 30L20 30L20 29L22 29L22 28L23 28L23 29L24 29L24 30L22 30L22 31L24 31L24 30L25 30L25 32L27 32L27 31L28 31L28 27L29 27L29 28L30 28L30 27L31 27L31 28L32 28L32 27L33 27L33 22L35 22L35 21L30 21L30 20L31 20L31 19L28 19L28 20L29 20L29 21L27 21L27 19L26 19L26 17L27 17L27 18L29 18L29 17L30 17L30 15L29 15L29 13L30 13L30 14L31 14L31 13L32 13L32 12L31 12L31 13L30 13L30 11L28 11L28 12L29 12L29 13L27 13L27 11L25 11L25 10L27 10L27 9L26 9L26 8L24 8L24 6L23 6L23 8L22 8L22 9L21 9L21 10L20 10L20 9L19 9L19 7L18 7L18 8L17 8L17 7L16 7L16 6L15 6L15 7L14 7L14 6L13 6L13 7L12 7L12 6L11 6L11 4ZM25 6L25 7L26 7L26 6ZM13 7L13 8L12 8L12 9L13 9L13 11L12 11L12 12L13 12L13 13L12 13L12 14L13 14L13 15L16 15L16 16L17 16L17 15L21 15L21 14L22 14L22 13L21 13L21 12L23 12L23 11L24 11L24 12L25 12L25 13L23 13L23 14L24 14L24 15L25 15L25 14L26 14L26 16L24 16L24 17L26 17L26 16L27 16L27 17L29 17L29 16L27 16L27 15L28 15L28 14L26 14L26 12L25 12L25 11L24 11L24 10L25 10L25 9L24 9L24 10L23 10L23 11L22 11L22 10L21 10L21 12L19 12L19 13L20 13L20 14L17 14L17 15L16 15L16 14L15 14L15 13L18 13L18 11L19 11L19 10L18 10L18 9L16 9L16 8L15 8L15 9L14 9L14 7ZM20 7L20 8L21 8L21 7ZM6 8L6 9L7 9L7 8ZM0 9L0 11L1 11L1 9ZM15 9L15 10L14 10L14 11L13 11L13 12L14 12L14 11L15 11L15 10L16 10L16 9ZM28 9L28 10L30 10L30 9ZM4 10L4 11L5 11L5 10ZM17 10L17 11L16 11L16 12L17 12L17 11L18 11L18 10ZM31 10L31 11L32 11L32 10ZM36 12L36 13L37 13L37 12ZM6 13L6 14L7 14L7 15L6 15L6 16L7 16L7 17L5 17L5 18L8 18L8 19L9 19L9 17L10 17L10 15L8 15L8 14L7 14L7 13ZM13 13L13 14L14 14L14 13ZM8 16L8 17L9 17L9 16ZM20 16L20 17L21 17L21 19L20 19L20 20L22 20L22 17L23 17L23 16L22 16L22 17L21 17L21 16ZM16 17L16 18L18 18L18 19L19 19L19 17ZM24 18L24 19L25 19L25 18ZM18 20L18 21L19 21L19 20ZM25 20L25 21L26 21L26 22L27 22L27 23L26 23L26 24L27 24L27 25L24 25L24 26L26 26L26 28L25 28L25 27L24 27L24 29L25 29L25 30L27 30L27 29L26 29L26 28L27 28L27 26L31 26L31 22L30 22L30 21L29 21L29 22L30 22L30 23L29 23L29 24L30 24L30 25L28 25L28 22L27 22L27 21L26 21L26 20ZM13 22L13 23L14 23L14 22ZM17 23L17 26L19 26L19 23ZM6 25L6 26L5 26L5 27L6 27L6 26L7 26L7 25ZM34 25L34 26L35 26L35 27L34 27L34 28L33 28L33 30L35 30L35 29L36 29L36 28L35 28L35 27L36 27L36 26L35 26L35 25ZM16 28L16 30L17 30L17 28ZM34 28L34 29L35 29L35 28ZM29 29L29 32L32 32L32 29ZM30 30L30 31L31 31L31 30ZM8 32L8 35L9 35L9 36L10 36L10 35L9 35L9 32ZM13 32L13 33L14 33L14 32ZM22 32L22 33L23 33L23 34L26 34L26 35L24 35L24 36L27 36L27 34L28 34L28 35L29 35L29 34L30 34L30 33L29 33L29 34L28 34L28 33L24 33L24 32ZM33 32L33 33L34 33L34 32ZM10 33L10 34L11 34L11 33ZM36 34L36 36L34 36L34 35L33 35L33 36L32 36L32 35L31 35L31 36L30 36L30 37L37 37L37 34ZM15 35L15 36L16 36L16 35ZM0 0L0 7L7 7L7 0ZM1 1L1 6L6 6L6 1ZM2 2L2 5L5 5L5 2ZM30 0L30 7L37 7L37 0ZM31 1L31 6L36 6L36 1ZM32 2L32 5L35 5L35 2ZM0 30L0 37L7 37L7 30ZM1 31L1 36L6 36L6 31ZM2 32L2 35L5 35L5 32Z" fill="#000000"/></g></g></svg>
