<?xml version="1.0" encoding="UTF-8"?>
<svg xmlns="http://www.w3.org/2000/svg" version="1.1" width="200" height="200" viewBox="0 0 200 200"><rect x="0" y="0" width="200" height="200" fill="#ffffff"/><g transform="scale(6.897)"><g transform="translate(0,0)"><path fill-rule="evenodd" d="M10 0L10 1L8 1L8 7L9 7L9 8L5 8L5 9L4 9L4 10L3 10L3 8L2 8L2 10L3 10L3 13L2 13L2 11L1 11L1 9L0 9L0 13L1 13L1 14L0 14L0 17L1 17L1 16L3 16L3 17L4 17L4 18L3 18L3 19L2 19L2 18L0 18L0 19L2 19L2 20L0 20L0 21L2 21L2 20L3 20L3 19L4 19L4 20L5 20L5 19L4 19L4 18L5 18L5 17L7 17L7 16L6 16L6 15L8 15L8 16L9 16L9 14L6 14L6 13L8 13L8 12L10 12L10 13L11 13L11 14L10 14L10 17L11 17L11 18L10 18L10 19L12 19L12 20L10 20L10 21L9 21L9 20L8 20L8 18L6 18L6 19L7 19L7 20L6 20L6 21L7 21L7 20L8 20L8 24L10 24L10 25L11 25L11 24L12 24L12 26L8 26L8 27L12 27L12 28L11 28L11 29L12 29L12 28L13 28L13 27L15 27L15 29L16 29L16 27L15 27L15 26L17 26L17 25L18 25L18 24L19 24L19 26L18 26L18 27L17 27L17 29L18 29L18 28L19 28L19 26L20 26L20 27L21 27L21 29L22 29L22 28L24 28L24 29L29 29L29 26L27 26L27 25L29 25L29 24L26 24L26 25L25 25L25 23L26 23L26 21L27 21L27 23L28 23L28 22L29 22L29 21L27 21L27 19L26 19L26 18L28 18L28 19L29 19L29 18L28 18L28 17L29 17L29 16L27 16L27 17L25 17L25 16L22 16L22 15L25 15L25 14L26 14L26 13L27 13L27 15L29 15L29 14L28 14L28 13L29 13L29 12L27 12L27 11L29 11L29 9L28 9L28 8L23 8L23 10L22 10L22 11L21 11L21 9L22 9L22 8L21 8L21 0L19 0L19 1L20 1L20 2L19 2L19 3L20 3L20 5L14 5L14 7L13 7L13 5L12 5L12 4L14 4L14 3L15 3L15 2L13 2L13 1L14 1L14 0L13 0L13 1L12 1L12 2L10 2L10 1L11 1L11 0ZM15 0L15 1L16 1L16 4L17 4L17 3L18 3L18 2L17 2L17 1L18 1L18 0L17 0L17 1L16 1L16 0ZM9 2L9 4L10 4L10 5L11 5L11 4L10 4L10 2ZM9 6L9 7L10 7L10 8L9 8L9 9L10 9L10 10L9 10L9 11L10 11L10 12L12 12L12 10L14 10L14 11L16 11L16 12L17 12L17 14L22 14L22 12L21 12L21 13L20 13L20 12L19 12L19 13L18 13L18 12L17 12L17 10L18 10L18 11L20 11L20 9L19 9L19 7L20 7L20 6L19 6L19 7L18 7L18 6L17 6L17 7L16 7L16 6L15 6L15 10L14 10L14 8L12 8L12 6L11 6L11 7L10 7L10 6ZM17 7L17 8L16 8L16 9L18 9L18 7ZM10 8L10 9L11 9L11 8ZM6 9L6 10L5 10L5 11L4 11L4 12L7 12L7 11L8 11L8 9ZM25 9L25 10L24 10L24 11L27 11L27 10L28 10L28 9ZM6 10L6 11L7 11L7 10ZM14 12L14 13L15 13L15 14L16 14L16 13L15 13L15 12ZM23 12L23 14L25 14L25 13L24 13L24 12ZM4 13L4 14L5 14L5 15L6 15L6 14L5 14L5 13ZM12 13L12 14L11 14L11 15L13 15L13 17L12 17L12 19L13 19L13 17L15 17L15 15L14 15L14 14L13 14L13 13ZM2 14L2 15L3 15L3 14ZM18 15L18 17L17 17L17 16L16 16L16 19L14 19L14 20L12 20L12 22L9 22L9 23L10 23L10 24L11 24L11 23L12 23L12 24L13 24L13 25L14 25L14 26L15 26L15 25L16 25L16 24L15 24L15 25L14 25L14 23L12 23L12 22L16 22L16 23L17 23L17 24L18 24L18 23L19 23L19 24L20 24L20 23L19 23L19 22L20 22L20 21L18 21L18 20L22 20L22 19L21 19L21 15ZM19 16L19 17L20 17L20 16ZM22 17L22 18L25 18L25 17ZM19 18L19 19L20 19L20 18ZM17 19L17 20L18 20L18 19ZM23 19L23 20L25 20L25 19ZM15 20L15 21L16 21L16 22L17 22L17 23L18 23L18 21L16 21L16 20ZM21 21L21 24L24 24L24 21ZM22 22L22 23L23 23L23 22ZM21 25L21 26L22 26L22 27L23 27L23 26L24 26L24 28L25 28L25 25ZM12 26L12 27L13 27L13 26ZM27 27L27 28L28 28L28 27ZM0 0L0 7L7 7L7 0ZM1 1L1 6L6 6L6 1ZM2 2L2 5L5 5L5 2ZM22 0L22 7L29 7L29 0ZM23 1L23 6L28 6L28 1ZM24 2L24 5L27 5L27 2ZM0 22L0 29L7 29L7 22ZM1 23L1 28L6 28L6 23ZM2 24L2 27L5 27L5 24Z" fill="#000000"/></g></g></svg>
