<?xml version="1.0" encoding="UTF-8"?>
<svg xmlns="http://www.w3.org/2000/svg" version="1.1" width="200" height="200" viewBox="0 0 200 200"><rect x="0" y="0" width="200" height="200" fill="#ffffff"/><g transform="scale(6.897)"><g transform="translate(0,0)"><path fill-rule="evenodd" d="M9 0L9 1L8 1L8 7L9 7L9 5L10 5L10 4L12 4L12 5L11 5L11 6L10 6L10 7L11 7L11 6L12 6L12 7L13 7L13 6L12 6L12 5L13 5L13 4L14 4L14 5L15 5L15 6L14 6L14 9L15 9L15 6L16 6L16 7L17 7L17 8L16 8L16 9L17 9L17 10L16 10L16 11L17 11L17 10L18 10L18 7L19 7L19 8L20 8L20 11L19 11L19 12L18 12L18 13L19 13L19 12L20 12L20 13L21 13L21 12L22 12L22 14L19 14L19 15L18 15L18 14L17 14L17 12L16 12L16 14L14 14L14 13L15 13L15 10L11 10L11 9L13 9L13 8L11 8L11 9L10 9L10 10L6 10L6 9L9 9L9 8L5 8L5 10L4 10L4 9L3 9L3 8L2 8L2 9L3 9L3 10L4 10L4 11L5 11L5 12L3 12L3 11L2 11L2 12L1 12L1 13L0 13L0 17L1 17L1 18L0 18L0 19L2 19L2 20L0 20L0 21L2 21L2 20L3 20L3 21L5 21L5 20L4 20L4 19L7 19L7 20L6 20L6 21L8 21L8 24L9 24L9 25L11 25L11 26L10 26L10 28L9 28L9 29L11 29L11 28L13 28L13 27L14 27L14 26L15 26L15 27L16 27L16 28L17 28L17 27L16 27L16 26L18 26L18 24L19 24L19 26L20 26L20 27L21 27L21 29L22 29L22 28L24 28L24 29L25 29L25 28L26 28L26 27L28 27L28 28L27 28L27 29L29 29L29 26L26 26L26 27L25 27L25 28L24 28L24 26L23 26L23 27L22 27L22 26L21 26L21 25L25 25L25 23L26 23L26 21L27 21L27 23L28 23L28 22L29 22L29 21L27 21L27 19L26 19L26 18L28 18L28 19L29 19L29 18L28 18L28 17L29 17L29 16L27 16L27 17L25 17L25 16L22 16L22 15L25 15L25 14L26 14L26 13L29 13L29 12L27 12L27 11L29 11L29 9L28 9L28 8L23 8L23 10L22 10L22 11L21 11L21 9L22 9L22 8L20 8L20 7L21 7L21 0L19 0L19 1L20 1L20 2L19 2L19 3L20 3L20 5L16 5L16 4L17 4L17 3L18 3L18 2L17 2L17 3L16 3L16 4L15 4L15 2L16 2L16 1L15 1L15 2L13 2L13 3L11 3L11 2L10 2L10 4L9 4L9 1L10 1L10 0ZM11 0L11 1L12 1L12 0ZM17 0L17 1L18 1L18 0ZM17 6L17 7L18 7L18 6ZM19 6L19 7L20 7L20 6ZM27 9L27 10L24 10L24 11L27 11L27 10L28 10L28 9ZM0 10L0 11L1 11L1 10ZM10 10L10 12L8 12L8 11L6 11L6 12L5 12L5 13L4 13L4 17L3 17L3 15L2 15L2 14L3 14L3 12L2 12L2 13L1 13L1 16L2 16L2 18L4 18L4 17L5 17L5 18L7 18L7 17L8 17L8 18L9 18L9 19L10 19L10 20L9 20L9 24L10 24L10 23L11 23L11 25L12 25L12 26L14 26L14 25L12 25L12 23L15 23L15 24L16 24L16 25L15 25L15 26L16 26L16 25L17 25L17 24L16 24L16 23L17 23L17 22L20 22L20 21L19 21L19 20L22 20L22 19L21 19L21 15L19 15L19 16L20 16L20 17L19 17L19 18L18 18L18 17L16 17L16 15L17 15L17 16L18 16L18 15L17 15L17 14L16 14L16 15L14 15L14 14L12 14L12 15L14 15L14 17L13 17L13 16L11 16L11 15L10 15L10 14L9 14L9 13L11 13L11 10ZM12 11L12 12L13 12L13 13L14 13L14 11ZM6 12L6 13L7 13L7 14L5 14L5 15L7 15L7 16L6 16L6 17L7 17L7 16L8 16L8 15L7 15L7 14L8 14L8 12ZM23 12L23 14L25 14L25 13L24 13L24 12ZM27 14L27 15L29 15L29 14ZM9 15L9 17L10 17L10 15ZM11 17L11 18L10 18L10 19L11 19L11 18L13 18L13 19L14 19L14 18L15 18L15 19L16 19L16 20L17 20L17 19L16 19L16 17L14 17L14 18L13 18L13 17ZM22 17L22 18L25 18L25 17ZM19 18L19 19L18 19L18 20L19 20L19 19L20 19L20 18ZM23 19L23 20L26 20L26 19ZM14 20L14 22L17 22L17 21L15 21L15 20ZM11 21L11 22L13 22L13 21ZM21 21L21 24L24 24L24 21ZM22 22L22 23L23 23L23 22ZM19 23L19 24L20 24L20 23ZM26 24L26 25L29 25L29 24ZM8 26L8 27L9 27L9 26ZM18 28L18 29L19 29L19 28ZM0 0L0 7L7 7L7 0ZM1 1L1 6L6 6L6 1ZM2 2L2 5L5 5L5 2ZM22 0L22 7L29 7L29 0ZM23 1L23 6L28 6L28 1ZM24 2L24 5L27 5L27 2ZM0 22L0 29L7 29L7 22ZM1 23L1 28L6 28L6 23ZM2 24L2 27L5 27L5 24Z" fill="#000000"/></g></g></svg>
