<?xml version="1.0" encoding="UTF-8"?>
<svg xmlns="http://www.w3.org/2000/svg" version="1.1" width="200" height="200" viewBox="0 0 200 200"><rect x="0" y="0" width="200" height="200" fill="#ffffff"/><g transform="scale(4.878)"><g transform="translate(0,0)"><path fill-rule="evenodd" d="M8 0L8 3L9 3L9 5L8 5L8 9L7 9L7 8L6 8L6 9L5 9L5 8L2 8L2 9L5 9L5 10L3 10L3 13L1 13L1 12L2 12L2 10L1 10L1 9L0 9L0 13L1 13L1 14L0 14L0 18L2 18L2 19L0 19L0 20L1 20L1 21L0 21L0 22L2 22L2 19L3 19L3 21L4 21L4 25L3 25L3 24L2 24L2 26L1 26L1 25L0 25L0 27L1 27L1 29L0 29L0 33L1 33L1 29L2 29L2 30L3 30L3 29L2 29L2 27L3 27L3 26L6 26L6 27L5 27L5 28L4 28L4 30L5 30L5 31L4 31L4 32L2 32L2 33L4 33L4 32L6 32L6 33L8 33L8 34L9 34L9 35L10 35L10 36L8 36L8 39L10 39L10 38L11 38L11 39L12 39L12 40L14 40L14 41L15 41L15 40L16 40L16 39L17 39L17 38L18 38L18 39L20 39L20 40L19 40L19 41L20 41L20 40L21 40L21 41L23 41L23 39L24 39L24 41L32 41L32 40L33 40L33 41L34 41L34 40L33 40L33 39L32 39L32 40L31 40L31 39L30 39L30 38L31 38L31 37L30 37L30 38L27 38L27 39L26 39L26 40L25 40L25 38L24 38L24 37L22 37L22 36L23 36L23 35L25 35L25 36L26 36L26 34L27 34L27 36L28 36L28 37L29 37L29 36L31 36L31 35L32 35L32 38L34 38L34 39L35 39L35 40L36 40L36 39L37 39L37 40L40 40L40 38L41 38L41 37L40 37L40 36L38 36L38 33L39 33L39 35L40 35L40 34L41 34L41 33L40 33L40 30L41 30L41 29L40 29L40 28L41 28L41 27L40 27L40 26L41 26L41 23L39 23L39 22L38 22L38 21L39 21L39 20L36 20L36 19L35 19L35 17L36 17L36 18L38 18L38 19L39 19L39 18L41 18L41 16L40 16L40 17L39 17L39 16L38 16L38 15L39 15L39 14L41 14L41 13L40 13L40 10L41 10L41 8L38 8L38 9L40 9L40 10L37 10L37 9L36 9L36 8L33 8L33 9L31 9L31 8L32 8L32 7L33 7L33 5L32 5L32 4L33 4L33 3L32 3L32 2L33 2L33 1L32 1L32 0L31 0L31 1L32 1L32 2L30 2L30 0L29 0L29 1L27 1L27 0L26 0L26 1L27 1L27 2L26 2L26 3L28 3L28 4L29 4L29 3L32 3L32 4L30 4L30 5L32 5L32 7L31 7L31 6L30 6L30 8L29 8L29 6L28 6L28 5L27 5L27 4L25 4L25 1L24 1L24 4L25 4L25 6L24 6L24 7L25 7L25 8L26 8L26 9L24 9L24 10L26 10L26 11L27 11L27 12L25 12L25 14L24 14L24 13L23 13L23 16L24 16L24 17L26 17L26 18L25 18L25 19L22 19L22 20L24 20L24 21L25 21L25 19L26 19L26 23L25 23L25 24L24 24L24 22L23 22L23 21L22 21L22 22L20 22L20 20L21 20L21 19L20 19L20 17L21 17L21 16L22 16L22 14L20 14L20 13L21 13L21 11L23 11L23 12L24 12L24 11L23 11L23 10L21 10L21 8L20 8L20 7L21 7L21 6L20 6L20 7L19 7L19 6L18 6L18 5L19 5L19 4L22 4L22 8L23 8L23 4L22 4L22 3L23 3L23 0L22 0L22 2L20 2L20 3L18 3L18 4L17 4L17 3L16 3L16 4L15 4L15 2L17 2L17 1L21 1L21 0L16 0L16 1L15 1L15 0L14 0L14 1L13 1L13 2L14 2L14 4L13 4L13 5L12 5L12 3L11 3L11 2L12 2L12 0L11 0L11 2L9 2L9 1L10 1L10 0ZM10 3L10 5L9 5L9 8L10 8L10 9L9 9L9 10L10 10L10 11L11 11L11 12L9 12L9 13L10 13L10 15L9 15L9 14L7 14L7 13L8 13L8 12L7 12L7 11L8 11L8 10L7 10L7 9L6 9L6 10L5 10L5 11L4 11L4 12L5 12L5 13L4 13L4 14L3 14L3 15L4 15L4 17L3 17L3 18L5 18L5 16L7 16L7 15L8 15L8 18L7 18L7 17L6 17L6 18L7 18L7 19L6 19L6 20L5 20L5 19L4 19L4 20L5 20L5 24L8 24L8 25L6 25L6 26L7 26L7 27L6 27L6 28L5 28L5 29L6 29L6 30L7 30L7 31L6 31L6 32L8 32L8 33L13 33L13 36L12 36L12 35L11 35L11 36L12 36L12 38L13 38L13 39L14 39L14 37L15 37L15 36L16 36L16 37L18 37L18 38L20 38L20 37L21 37L21 38L22 38L22 37L21 37L21 36L20 36L20 35L21 35L21 34L20 34L20 35L19 35L19 34L15 34L15 33L18 33L18 32L19 32L19 33L20 33L20 32L19 32L19 30L21 30L21 28L23 28L23 27L24 27L24 28L25 28L25 29L23 29L23 30L24 30L24 34L26 34L26 32L25 32L25 31L27 31L27 29L26 29L26 27L24 27L24 24L23 24L23 23L22 23L22 24L23 24L23 25L20 25L20 24L19 24L19 23L18 23L18 22L16 22L16 23L15 23L15 24L14 24L14 25L12 25L12 26L14 26L14 25L15 25L15 26L16 26L16 28L15 28L15 27L13 27L13 28L15 28L15 29L14 29L14 30L13 30L13 29L12 29L12 27L11 27L11 30L10 30L10 29L6 29L6 28L7 28L7 27L8 27L8 28L9 28L9 26L8 26L8 25L11 25L11 24L12 24L12 22L13 22L13 19L14 19L14 20L15 20L15 21L14 21L14 22L15 22L15 21L18 21L18 20L17 20L17 19L16 19L16 20L15 20L15 19L14 19L14 17L15 17L15 18L16 18L16 17L17 17L17 18L18 18L18 19L19 19L19 20L20 20L20 19L19 19L19 18L18 18L18 17L20 17L20 16L21 16L21 15L20 15L20 16L18 16L18 15L19 15L19 14L18 14L18 13L20 13L20 12L19 12L19 11L18 11L18 9L19 9L19 10L20 10L20 11L21 11L21 10L20 10L20 8L18 8L18 9L17 9L17 8L16 8L16 6L17 6L17 7L18 7L18 6L17 6L17 5L15 5L15 7L14 7L14 6L13 6L13 7L12 7L12 6L11 6L11 7L12 7L12 8L13 8L13 7L14 7L14 8L16 8L16 9L14 9L14 10L13 10L13 9L11 9L11 8L10 8L10 5L11 5L11 3ZM25 6L25 7L26 7L26 6ZM27 6L27 7L28 7L28 6ZM10 9L10 10L11 10L11 9ZM26 9L26 10L28 10L28 12L27 12L27 13L26 13L26 15L27 15L27 16L26 16L26 17L27 17L27 18L26 18L26 19L27 19L27 20L28 20L28 21L27 21L27 22L28 22L28 21L30 21L30 22L29 22L29 24L31 24L31 25L30 25L30 26L29 26L29 25L25 25L25 26L28 26L28 28L30 28L30 29L28 29L28 30L29 30L29 31L28 31L28 32L31 32L31 30L32 30L32 31L33 31L33 32L36 32L36 31L37 31L37 32L39 32L39 26L40 26L40 24L39 24L39 23L38 23L38 22L37 22L37 24L36 24L36 23L35 23L35 22L36 22L36 21L35 21L35 19L34 19L34 18L33 18L33 19L32 19L32 18L31 18L31 17L33 17L33 16L34 16L34 17L35 17L35 16L36 16L36 17L38 17L38 18L39 18L39 17L38 17L38 16L36 16L36 15L35 15L35 14L36 14L36 13L38 13L38 14L37 14L37 15L38 15L38 14L39 14L39 11L38 11L38 12L36 12L36 11L37 11L37 10L36 10L36 9L35 9L35 13L34 13L34 12L33 12L33 13L32 13L32 11L34 11L34 9L33 9L33 10L31 10L31 9ZM6 10L6 11L7 11L7 10ZM14 10L14 11L13 11L13 12L12 12L12 13L11 13L11 14L12 14L12 15L10 15L10 16L11 16L11 17L10 17L10 19L9 19L9 18L8 18L8 19L9 19L9 20L10 20L10 21L9 21L9 22L8 22L8 23L10 23L10 24L11 24L11 21L12 21L12 20L10 20L10 19L11 19L11 18L12 18L12 19L13 19L13 17L14 17L14 16L15 16L15 15L16 15L16 14L17 14L17 13L14 13L14 11L15 11L15 10ZM16 10L16 12L17 12L17 10ZM30 10L30 11L31 11L31 10ZM6 12L6 13L5 13L5 14L4 14L4 15L5 15L5 14L6 14L6 15L7 15L7 14L6 14L6 13L7 13L7 12ZM29 12L29 13L27 13L27 14L30 14L30 15L31 15L31 12ZM33 13L33 14L32 14L32 15L34 15L34 13ZM14 14L14 15L13 15L13 16L12 16L12 17L13 17L13 16L14 16L14 15L15 15L15 14ZM1 15L1 17L2 17L2 15ZM24 15L24 16L25 16L25 15ZM28 15L28 16L29 16L29 17L31 17L31 16L29 16L29 15ZM22 17L22 18L23 18L23 17ZM27 18L27 19L28 19L28 20L29 20L29 19L28 19L28 18ZM30 18L30 19L31 19L31 18ZM6 20L6 21L7 21L7 20ZM30 20L30 21L31 21L31 22L30 22L30 23L31 23L31 24L32 24L32 25L31 25L31 26L32 26L32 25L34 25L34 26L33 26L33 27L34 27L34 26L36 26L36 27L35 27L35 28L38 28L38 26L39 26L39 25L34 25L34 22L35 22L35 21L34 21L34 20L33 20L33 21L31 21L31 20ZM40 20L40 21L41 21L41 20ZM33 21L33 22L31 22L31 23L32 23L32 24L33 24L33 22L34 22L34 21ZM6 22L6 23L7 23L7 22ZM0 23L0 24L1 24L1 23ZM16 23L16 24L15 24L15 25L19 25L19 26L20 26L20 27L19 27L19 28L18 28L18 26L17 26L17 29L18 29L18 30L16 30L16 29L15 29L15 30L14 30L14 31L12 31L12 30L11 30L11 31L9 31L9 30L8 30L8 31L9 31L9 32L18 32L18 30L19 30L19 29L20 29L20 27L21 27L21 26L20 26L20 25L19 25L19 24L17 24L17 23ZM26 23L26 24L27 24L27 23ZM31 27L31 28L32 28L32 27ZM33 28L33 29L32 29L32 30L33 30L33 29L34 29L34 28ZM25 29L25 30L26 30L26 29ZM30 29L30 30L31 30L31 29ZM35 29L35 30L34 30L34 31L35 31L35 30L38 30L38 29ZM15 30L15 31L16 31L16 30ZM21 31L21 33L22 33L22 31ZM27 33L27 34L29 34L29 33ZM30 33L30 35L31 35L31 33ZM33 33L33 36L36 36L36 33ZM22 34L22 35L23 35L23 34ZM34 34L34 35L35 35L35 34ZM14 35L14 36L13 36L13 37L14 37L14 36L15 36L15 35ZM16 35L16 36L17 36L17 35ZM28 35L28 36L29 36L29 35ZM19 36L19 37L20 37L20 36ZM37 36L37 37L38 37L38 36ZM34 37L34 38L36 38L36 37ZM37 38L37 39L38 39L38 38ZM21 39L21 40L22 40L22 39ZM28 39L28 40L30 40L30 39ZM9 40L9 41L11 41L11 40ZM17 40L17 41L18 41L18 40ZM0 0L0 7L7 7L7 0ZM1 1L1 6L6 6L6 1ZM2 2L2 5L5 5L5 2ZM34 0L34 7L41 7L41 0ZM35 1L35 6L40 6L40 1ZM36 2L36 5L39 5L39 2ZM0 34L0 41L7 41L7 34ZM1 35L1 40L6 40L6 35ZM2 36L2 39L5 39L5 36Z" fill="#000000"/></g></g></svg>
