<?xml version="1.0" encoding="UTF-8"?>
<svg xmlns="http://www.w3.org/2000/svg" version="1.1" width="200" height="200" viewBox="0 0 200 200"><rect x="0" y="0" width="200" height="200" fill="#ffffff"/><g transform="scale(6.897)"><g transform="translate(0,0)"><path fill-rule="evenodd" d="M9 0L9 1L10 1L10 0ZM11 0L11 1L12 1L12 2L13 2L13 4L12 4L12 3L11 3L11 2L10 2L10 3L11 3L11 4L9 4L9 2L8 2L8 4L9 4L9 6L8 6L8 7L9 7L9 9L10 9L10 10L8 10L8 12L6 12L6 13L8 13L8 15L7 15L7 14L5 14L5 15L4 15L4 13L5 13L5 11L7 11L7 10L6 10L6 9L8 9L8 8L6 8L6 9L5 9L5 8L3 8L3 9L0 9L0 12L1 12L1 14L3 14L3 15L1 15L1 16L3 16L3 18L2 18L2 17L0 17L0 21L2 21L2 20L3 20L3 21L7 21L7 20L3 20L3 18L4 18L4 19L8 19L8 18L9 18L9 17L8 17L8 16L9 16L9 15L10 15L10 14L12 14L12 13L13 13L13 16L12 16L12 15L11 15L11 16L10 16L10 17L11 17L11 16L12 16L12 18L13 18L13 20L15 20L15 22L14 22L14 23L13 23L13 24L12 24L12 23L11 23L11 22L12 22L12 21L10 21L10 22L9 22L9 21L8 21L8 23L10 23L10 24L12 24L12 25L10 25L10 27L12 27L12 28L11 28L11 29L12 29L12 28L13 28L13 29L14 29L14 28L15 28L15 27L16 27L16 29L17 29L17 27L18 27L18 29L20 29L20 28L21 28L21 29L23 29L23 28L24 28L24 29L26 29L26 27L23 27L23 28L22 28L22 26L21 26L21 27L20 27L20 28L19 28L19 27L18 27L18 24L19 24L19 25L24 25L24 26L26 26L26 25L29 25L29 22L28 22L28 21L26 21L26 20L27 20L27 19L26 19L26 18L28 18L28 19L29 19L29 17L28 17L28 16L29 16L29 14L27 14L27 13L29 13L29 11L28 11L28 10L27 10L27 11L26 11L26 9L27 9L27 8L25 8L25 12L24 12L24 16L23 16L23 12L22 12L22 11L21 11L21 10L19 10L19 9L15 9L15 10L14 10L14 13L13 13L13 12L12 12L12 11L11 11L11 8L10 8L10 7L11 7L11 6L10 6L10 5L11 5L11 4L12 4L12 9L14 9L14 7L15 7L15 6L16 6L16 7L17 7L17 8L19 8L19 6L20 6L20 8L21 8L21 4L19 4L19 3L20 3L20 1L21 1L21 0L19 0L19 1L18 1L18 0L17 0L17 1L18 1L18 2L19 2L19 3L18 3L18 4L19 4L19 6L18 6L18 7L17 7L17 6L16 6L16 5L17 5L17 4L16 4L16 3L17 3L17 2L16 2L16 1L15 1L15 0L14 0L14 1L13 1L13 0ZM14 2L14 4L15 4L15 2ZM13 5L13 7L14 7L14 5ZM9 6L9 7L10 7L10 6ZM22 9L22 10L23 10L23 11L24 11L24 9ZM4 10L4 11L3 11L3 12L4 12L4 11L5 11L5 10ZM17 10L17 11L19 11L19 10ZM1 11L1 12L2 12L2 11ZM27 11L27 12L28 12L28 11ZM8 12L8 13L12 13L12 12ZM15 12L15 14L14 14L14 15L15 15L15 17L16 17L16 19L15 19L15 18L14 18L14 17L13 17L13 18L14 18L14 19L15 19L15 20L16 20L16 22L15 22L15 23L14 23L14 24L17 24L17 23L16 23L16 22L18 22L18 21L19 21L19 24L20 24L20 21L19 21L19 18L20 18L20 19L21 19L21 20L22 20L22 19L21 19L21 16L20 16L20 15L21 15L21 14L22 14L22 12L21 12L21 14L20 14L20 15L19 15L19 14L18 14L18 12L17 12L17 14L16 14L16 12ZM19 12L19 13L20 13L20 12ZM25 13L25 16L26 16L26 17L27 17L27 16L28 16L28 15L27 15L27 16L26 16L26 13ZM15 14L15 15L16 15L16 14ZM17 14L17 16L16 16L16 17L17 17L17 18L19 18L19 15L18 15L18 14ZM5 15L5 17L4 17L4 18L5 18L5 17L6 17L6 18L7 18L7 17L6 17L6 16L7 16L7 15ZM22 16L22 17L23 17L23 16ZM10 18L10 19L9 19L9 20L10 20L10 19L11 19L11 20L12 20L12 19L11 19L11 18ZM23 19L23 20L24 20L24 19ZM17 20L17 21L18 21L18 20ZM21 21L21 24L24 24L24 21ZM22 22L22 23L23 23L23 22ZM25 22L25 25L26 25L26 24L28 24L28 23L27 23L27 22ZM8 24L8 26L9 26L9 24ZM12 25L12 27L13 27L13 28L14 28L14 27L13 27L13 25ZM14 25L14 26L15 26L15 25ZM16 25L16 27L17 27L17 25ZM27 26L27 27L29 27L29 26ZM9 28L9 29L10 29L10 28ZM27 28L27 29L28 29L28 28ZM0 0L0 7L7 7L7 0ZM1 1L1 6L6 6L6 1ZM2 2L2 5L5 5L5 2ZM22 0L22 7L29 7L29 0ZM23 1L23 6L28 6L28 1ZM24 2L24 5L27 5L27 2ZM0 22L0 29L7 29L7 22ZM1 23L1 28L6 28L6 23ZM2 24L2 27L5 27L5 24Z" fill="#000000"/></g></g></svg>
