<?xml version="1.0" encoding="UTF-8"?>
<svg xmlns="http://www.w3.org/2000/svg" version="1.1" width="200" height="200" viewBox="0 0 200 200"><rect x="0" y="0" width="200" height="200" fill="#ffffff"/><g transform="scale(4.878)"><g transform="translate(0,0)"><path fill-rule="evenodd" d="M8 0L8 3L9 3L9 5L8 5L8 10L6 10L6 11L5 11L5 10L4 10L4 9L5 9L5 8L2 8L2 10L0 10L0 11L1 11L1 12L2 12L2 14L1 14L1 13L0 13L0 15L1 15L1 16L0 16L0 17L1 17L1 18L0 18L0 20L1 20L1 22L2 22L2 23L3 23L3 22L2 22L2 20L3 20L3 21L4 21L4 25L5 25L5 24L6 24L6 25L8 25L8 26L5 26L5 27L4 27L4 28L3 28L3 29L1 29L1 28L0 28L0 33L1 33L1 30L4 30L4 31L3 31L3 32L2 32L2 33L7 33L7 32L6 32L6 31L8 31L8 34L9 34L9 32L11 32L11 33L13 33L13 32L11 32L11 31L13 31L13 30L18 30L18 29L17 29L17 28L19 28L19 31L20 31L20 33L19 33L19 32L17 32L17 33L19 33L19 34L18 34L18 35L17 35L17 34L16 34L16 31L15 31L15 33L14 33L14 34L13 34L13 35L12 35L12 34L11 34L11 36L10 36L10 35L9 35L9 36L8 36L8 39L9 39L9 40L11 40L11 39L12 39L12 40L13 40L13 41L19 41L19 40L20 40L20 41L21 41L21 40L20 40L20 39L21 39L21 37L22 37L22 35L21 35L21 37L20 37L20 39L18 39L18 38L17 38L17 37L15 37L15 38L14 38L14 37L12 37L12 36L13 36L13 35L14 35L14 36L18 36L18 35L19 35L19 36L20 36L20 34L22 34L22 33L21 33L21 32L22 32L22 30L21 30L21 28L22 28L22 29L23 29L23 30L24 30L24 31L25 31L25 32L26 32L26 33L24 33L24 32L23 32L23 33L24 33L24 34L23 34L23 36L24 36L24 37L23 37L23 38L22 38L22 40L23 40L23 41L31 41L31 40L33 40L33 41L34 41L34 40L33 40L33 39L31 39L31 38L30 38L30 39L31 39L31 40L26 40L26 39L28 39L28 38L27 38L27 37L29 37L29 36L28 36L28 35L29 35L29 33L31 33L31 34L30 34L30 35L32 35L32 37L33 37L33 38L34 38L34 39L35 39L35 40L36 40L36 39L37 39L37 38L38 38L38 37L39 37L39 40L40 40L40 38L41 38L41 37L40 37L40 36L41 36L41 35L40 35L40 34L41 34L41 33L39 33L39 32L38 32L38 31L37 31L37 29L36 29L36 28L38 28L38 26L39 26L39 27L40 27L40 28L39 28L39 29L38 29L38 30L39 30L39 31L40 31L40 30L41 30L41 29L40 29L40 28L41 28L41 27L40 27L40 26L41 26L41 23L40 23L40 26L39 26L39 24L37 24L37 25L36 25L36 23L34 23L34 22L36 22L36 21L38 21L38 22L39 22L39 20L36 20L36 19L35 19L35 17L36 17L36 18L37 18L37 17L39 17L39 18L41 18L41 16L40 16L40 17L39 17L39 16L37 16L37 17L36 17L36 16L35 16L35 17L34 17L34 16L33 16L33 15L34 15L34 14L33 14L33 13L34 13L34 12L33 12L33 11L34 11L34 10L36 10L36 12L38 12L38 11L39 11L39 13L40 13L40 14L39 14L39 15L40 15L40 14L41 14L41 13L40 13L40 12L41 12L41 11L40 11L40 10L41 10L41 8L38 8L38 9L40 9L40 10L37 10L37 9L36 9L36 8L31 8L31 6L30 6L30 5L26 5L26 7L25 7L25 6L24 6L24 5L25 5L25 4L24 4L24 5L23 5L23 4L22 4L22 1L23 1L23 3L24 3L24 1L25 1L25 3L26 3L26 4L27 4L27 3L28 3L28 4L29 4L29 1L27 1L27 0L21 0L21 1L19 1L19 0L16 0L16 1L14 1L14 0L13 0L13 1L11 1L11 2L10 2L10 1L9 1L9 0ZM31 0L31 1L30 1L30 2L31 2L31 1L32 1L32 0ZM13 1L13 2L12 2L12 3L11 3L11 7L12 7L12 8L11 8L11 12L10 12L10 11L8 11L8 13L9 13L9 14L7 14L7 13L6 13L6 12L7 12L7 11L6 11L6 12L4 12L4 11L3 11L3 10L2 10L2 12L3 12L3 13L4 13L4 14L3 14L3 15L2 15L2 16L1 16L1 17L3 17L3 16L4 16L4 19L6 19L6 20L5 20L5 22L7 22L7 23L6 23L6 24L7 24L7 23L8 23L8 24L10 24L10 25L9 25L9 27L5 27L5 28L7 28L7 29L5 29L5 31L6 31L6 30L8 30L8 31L9 31L9 30L10 30L10 31L11 31L11 28L12 28L12 29L14 29L14 28L12 28L12 27L14 27L14 26L15 26L15 23L16 23L16 26L18 26L18 27L20 27L20 26L18 26L18 25L20 25L20 24L21 24L21 25L22 25L22 24L24 24L24 25L23 25L23 26L24 26L24 27L22 27L22 28L23 28L23 29L24 29L24 30L27 30L27 34L28 34L28 33L29 33L29 32L31 32L31 33L32 33L32 32L36 32L36 31L34 31L34 30L36 30L36 29L34 29L34 28L33 28L33 27L34 27L34 25L35 25L35 26L36 26L36 27L35 27L35 28L36 28L36 27L37 27L37 26L36 26L36 25L35 25L35 24L34 24L34 25L32 25L32 24L30 24L30 23L33 23L33 22L34 22L34 21L36 21L36 20L35 20L35 19L34 19L34 18L30 18L30 19L31 19L31 20L29 20L29 21L24 21L24 20L25 20L25 19L26 19L26 20L27 20L27 18L29 18L29 16L30 16L30 17L31 17L31 16L30 16L30 15L31 15L31 14L32 14L32 15L33 15L33 14L32 14L32 13L33 13L33 12L32 12L32 11L33 11L33 9L32 9L32 10L30 10L30 9L31 9L31 8L30 8L30 6L29 6L29 7L28 7L28 6L27 6L27 7L26 7L26 8L27 8L27 9L26 9L26 10L24 10L24 9L23 9L23 8L25 8L25 7L24 7L24 6L23 6L23 5L22 5L22 6L21 6L21 7L20 7L20 6L19 6L19 7L20 7L20 9L19 9L19 10L18 10L18 9L17 9L17 10L14 10L14 12L13 12L13 11L12 11L12 10L13 10L13 8L15 8L15 7L16 7L16 8L18 8L18 5L19 5L19 4L20 4L20 5L21 5L21 2L20 2L20 3L19 3L19 2L17 2L17 3L16 3L16 2L14 2L14 1ZM13 2L13 3L12 3L12 4L13 4L13 3L14 3L14 2ZM26 2L26 3L27 3L27 2ZM32 2L32 3L33 3L33 2ZM30 3L30 4L31 4L31 5L33 5L33 4L31 4L31 3ZM14 4L14 7L15 7L15 5L16 5L16 4ZM17 4L17 5L18 5L18 4ZM9 5L9 7L10 7L10 5ZM12 6L12 7L13 7L13 6ZM16 6L16 7L17 7L17 6ZM22 6L22 7L21 7L21 8L22 8L22 7L23 7L23 6ZM32 6L32 7L33 7L33 6ZM27 7L27 8L28 8L28 7ZM6 8L6 9L7 9L7 8ZM29 8L29 9L28 9L28 10L27 10L27 11L28 11L28 10L29 10L29 9L30 9L30 8ZM20 9L20 10L19 10L19 12L20 12L20 13L19 13L19 14L18 14L18 12L17 12L17 11L18 11L18 10L17 10L17 11L15 11L15 14L14 14L14 13L11 13L11 14L9 14L9 15L8 15L8 16L5 16L5 17L7 17L7 18L6 18L6 19L8 19L8 18L9 18L9 20L6 20L6 21L7 21L7 22L8 22L8 23L10 23L10 24L11 24L11 26L10 26L10 27L9 27L9 28L8 28L8 30L9 30L9 29L10 29L10 27L11 27L11 26L12 26L12 25L13 25L13 26L14 26L14 25L13 25L13 23L14 23L14 21L15 21L15 22L16 22L16 23L17 23L17 24L20 24L20 23L22 23L22 20L23 20L23 19L24 19L24 18L25 18L25 17L24 17L24 18L21 18L21 16L20 16L20 17L19 17L19 18L17 18L17 19L15 19L15 16L17 16L17 17L18 17L18 16L19 16L19 15L22 15L22 17L23 17L23 16L24 16L24 15L25 15L25 16L27 16L27 17L28 17L28 15L29 15L29 14L28 14L28 13L30 13L30 14L31 14L31 12L26 12L26 11L23 11L23 9ZM20 10L20 11L21 11L21 10ZM22 11L22 12L21 12L21 14L22 14L22 12L23 12L23 11ZM24 12L24 13L23 13L23 15L24 15L24 13L25 13L25 12ZM5 13L5 15L7 15L7 14L6 14L6 13ZM36 13L36 14L35 14L35 15L38 15L38 14L37 14L37 13ZM11 14L11 15L10 15L10 16L9 16L9 17L11 17L11 15L12 15L12 14ZM15 14L15 15L13 15L13 16L12 16L12 18L13 18L13 16L15 16L15 15L17 15L17 16L18 16L18 14ZM32 16L32 17L33 17L33 16ZM1 18L1 20L2 20L2 18ZM20 18L20 19L18 19L18 20L16 20L16 21L18 21L18 22L17 22L17 23L18 23L18 22L20 22L20 21L19 21L19 20L21 20L21 18ZM9 20L9 22L11 22L11 21L10 21L10 20ZM12 20L12 21L13 21L13 20ZM31 20L31 21L30 21L30 22L29 22L29 23L30 23L30 22L32 22L32 21L34 21L34 20ZM40 20L40 21L41 21L41 20ZM12 22L12 23L11 23L11 24L12 24L12 23L13 23L13 22ZM24 22L24 24L26 24L26 25L24 25L24 26L26 26L26 28L25 28L25 27L24 27L24 28L25 28L25 29L27 29L27 30L29 30L29 29L30 29L30 30L31 30L31 29L30 29L30 28L29 28L29 26L32 26L32 27L31 27L31 28L32 28L32 29L33 29L33 30L32 30L32 31L33 31L33 30L34 30L34 29L33 29L33 28L32 28L32 27L33 27L33 26L32 26L32 25L30 25L30 24L29 24L29 25L28 25L28 24L26 24L26 23L28 23L28 22L26 22L26 23L25 23L25 22ZM0 23L0 25L1 25L1 23ZM2 24L2 25L3 25L3 24ZM26 25L26 26L28 26L28 25ZM0 26L0 27L3 27L3 26ZM28 28L28 29L29 29L29 28ZM20 30L20 31L21 31L21 30ZM28 31L28 32L29 32L29 31ZM37 32L37 35L38 35L38 36L37 36L37 37L38 37L38 36L40 36L40 35L39 35L39 34L38 34L38 32ZM33 33L33 36L36 36L36 33ZM15 34L15 35L16 35L16 34ZM25 34L25 35L26 35L26 34ZM34 34L34 35L35 35L35 34ZM9 36L9 38L11 38L11 37L10 37L10 36ZM26 36L26 37L27 37L27 36ZM30 36L30 37L31 37L31 36ZM34 37L34 38L36 38L36 37ZM16 38L16 39L14 39L14 40L17 40L17 38ZM24 38L24 40L25 40L25 39L26 39L26 38ZM0 0L0 7L7 7L7 0ZM1 1L1 6L6 6L6 1ZM2 2L2 5L5 5L5 2ZM34 0L34 7L41 7L41 0ZM35 1L35 6L40 6L40 1ZM36 2L36 5L39 5L39 2ZM0 34L0 41L7 41L7 34ZM1 35L1 40L6 40L6 35ZM2 36L2 39L5 39L5 36Z" fill="#000000"/></g></g></svg>
