<?xml version="1.0" encoding="UTF-8"?>
<svg xmlns="http://www.w3.org/2000/svg" version="1.1" width="200" height="200" viewBox="0 0 200 200"><rect x="0" y="0" width="200" height="200" fill="#ffffff"/><g transform="scale(4.878)"><g transform="translate(0,0)"><path fill-rule="evenodd" d="M8 0L8 3L9 3L9 5L8 5L8 9L7 9L7 8L6 8L6 9L7 9L7 10L5 10L5 11L7 11L7 10L8 10L8 9L9 9L9 10L11 10L11 11L13 11L13 12L14 12L14 13L12 13L12 12L9 12L9 11L8 11L8 12L3 12L3 11L2 11L2 10L1 10L1 9L0 9L0 11L1 11L1 12L3 12L3 14L2 14L2 16L0 16L0 17L2 17L2 19L3 19L3 18L5 18L5 17L4 17L4 16L5 16L5 15L3 15L3 14L5 14L5 13L7 13L7 14L6 14L6 15L7 15L7 16L6 16L6 17L8 17L8 18L6 18L6 19L7 19L7 20L1 20L1 21L0 21L0 23L1 23L1 25L2 25L2 26L0 26L0 28L2 28L2 29L3 29L3 30L4 30L4 31L2 31L2 33L3 33L3 32L4 32L4 31L5 31L5 29L8 29L8 28L9 28L9 29L11 29L11 28L12 28L12 27L13 27L13 28L14 28L14 27L13 27L13 25L12 25L12 24L11 24L11 23L10 23L10 22L12 22L12 23L13 23L13 21L14 21L14 20L15 20L15 18L16 18L16 17L17 17L17 19L16 19L16 21L15 21L15 22L16 22L16 21L18 21L18 17L19 17L19 15L18 15L18 13L17 13L17 15L16 15L16 17L15 17L15 14L14 14L14 13L15 13L15 12L14 12L14 11L15 11L15 10L16 10L16 11L23 11L23 12L20 12L20 13L19 13L19 14L20 14L20 15L21 15L21 14L20 14L20 13L23 13L23 16L22 16L22 17L23 17L23 18L19 18L19 19L23 19L23 20L20 20L20 21L22 21L22 24L20 24L20 23L21 23L21 22L17 22L17 23L18 23L18 25L17 25L17 24L14 24L14 25L15 25L15 27L17 27L17 26L19 26L19 24L20 24L20 25L22 25L22 26L21 26L21 27L22 27L22 26L23 26L23 28L21 28L21 29L20 29L20 28L19 28L19 27L18 27L18 28L19 28L19 29L20 29L20 31L18 31L18 32L16 32L16 31L17 31L17 30L18 30L18 29L17 29L17 28L16 28L16 31L15 31L15 29L13 29L13 30L9 30L9 31L11 31L11 32L10 32L10 33L11 33L11 34L12 34L12 35L9 35L9 36L8 36L8 39L9 39L9 40L10 40L10 39L9 39L9 36L13 36L13 37L14 37L14 35L15 35L15 38L13 38L13 39L11 39L11 40L14 40L14 41L15 41L15 40L14 40L14 39L15 39L15 38L16 38L16 40L17 40L17 41L20 41L20 40L21 40L21 39L19 39L19 40L17 40L17 37L19 37L19 38L21 38L21 37L23 37L23 38L22 38L22 39L23 39L23 40L22 40L22 41L23 41L23 40L24 40L24 41L25 41L25 40L26 40L26 39L27 39L27 41L31 41L31 40L33 40L33 41L34 41L34 40L33 40L33 39L35 39L35 40L36 40L36 39L37 39L37 40L40 40L40 38L41 38L41 37L39 37L39 36L40 36L40 34L41 34L41 33L40 33L40 32L37 32L37 31L38 31L38 30L39 30L39 31L40 31L40 30L41 30L41 29L38 29L38 30L37 30L37 29L35 29L35 30L34 30L34 31L35 31L35 30L37 30L37 31L36 31L36 32L33 32L33 31L32 31L32 30L33 30L33 29L34 29L34 28L33 28L33 27L34 27L34 26L37 26L37 27L35 27L35 28L38 28L38 26L39 26L39 27L40 27L40 26L41 26L41 23L39 23L39 22L38 22L38 21L39 21L39 20L38 20L38 19L40 19L40 18L41 18L41 16L40 16L40 18L38 18L38 17L39 17L39 16L37 16L37 15L36 15L36 16L35 16L35 17L34 17L34 16L33 16L33 17L30 17L30 16L31 16L31 15L30 15L30 14L31 14L31 10L33 10L33 9L34 9L34 11L33 11L33 12L32 12L32 13L33 13L33 14L32 14L32 15L34 15L34 13L35 13L35 12L38 12L38 11L40 11L40 12L41 12L41 11L40 11L40 10L41 10L41 8L38 8L38 9L40 9L40 10L37 10L37 9L36 9L36 8L33 8L33 9L31 9L31 8L32 8L32 7L33 7L33 6L32 6L32 7L31 7L31 6L30 6L30 5L32 5L32 4L33 4L33 2L32 2L32 4L30 4L30 5L29 5L29 4L28 4L28 5L27 5L27 4L25 4L25 3L24 3L24 4L23 4L23 5L24 5L24 4L25 4L25 6L24 6L24 8L23 8L23 6L22 6L22 8L21 8L21 10L20 10L20 9L19 9L19 10L18 10L18 9L17 9L17 8L20 8L20 7L21 7L21 5L20 5L20 7L19 7L19 4L20 4L20 2L21 2L21 0L20 0L20 1L19 1L19 0L18 0L18 1L17 1L17 0L16 0L16 1L17 1L17 3L15 3L15 2L14 2L14 0ZM22 0L22 2L23 2L23 0ZM26 0L26 1L27 1L27 2L26 2L26 3L31 3L31 2L30 2L30 1L33 1L33 0L29 0L29 1L27 1L27 0ZM9 1L9 3L10 3L10 2L11 2L11 1ZM12 2L12 3L11 3L11 4L12 4L12 3L13 3L13 5L10 5L10 6L9 6L9 8L11 8L11 10L12 10L12 9L13 9L13 8L12 8L12 6L13 6L13 7L14 7L14 6L15 6L15 8L14 8L14 9L15 9L15 8L17 8L17 7L18 7L18 3L17 3L17 7L16 7L16 6L15 6L15 3L14 3L14 2ZM21 3L21 4L22 4L22 3ZM10 6L10 7L11 7L11 6ZM25 6L25 7L26 7L26 8L27 8L27 9L24 9L24 10L23 10L23 8L22 8L22 10L23 10L23 11L27 11L27 10L28 10L28 11L29 11L29 12L28 12L28 13L29 13L29 14L27 14L27 12L24 12L24 15L25 15L25 13L26 13L26 14L27 14L27 15L26 15L26 17L25 17L25 18L26 18L26 19L27 19L27 20L28 20L28 19L29 19L29 21L27 21L27 22L26 22L26 23L27 23L27 24L26 24L26 25L27 25L27 26L28 26L28 27L29 27L29 28L30 28L30 29L28 29L28 30L30 30L30 29L31 29L31 30L32 30L32 29L33 29L33 28L31 28L31 27L33 27L33 26L34 26L34 25L39 25L39 26L40 26L40 24L39 24L39 23L38 23L38 22L37 22L37 24L36 24L36 23L32 23L32 22L31 22L31 21L33 21L33 22L34 22L34 21L35 21L35 22L36 22L36 21L35 21L35 19L36 19L36 20L37 20L37 21L38 21L38 20L37 20L37 19L38 19L38 18L36 18L36 17L37 17L37 16L36 16L36 17L35 17L35 19L34 19L34 18L31 18L31 19L30 19L30 17L29 17L29 16L30 16L30 15L29 15L29 14L30 14L30 13L29 13L29 12L30 12L30 10L31 10L31 9L28 9L28 8L30 8L30 6L29 6L29 7L28 7L28 6L27 6L27 7L26 7L26 6ZM27 7L27 8L28 8L28 7ZM2 8L2 9L3 9L3 10L4 10L4 9L5 9L5 8ZM35 9L35 11L36 11L36 9ZM13 10L13 11L14 11L14 10ZM33 12L33 13L34 13L34 12ZM8 13L8 14L7 14L7 15L8 15L8 14L10 14L10 13ZM36 13L36 14L38 14L38 13ZM39 13L39 14L41 14L41 13ZM0 14L0 15L1 15L1 14ZM12 15L12 16L14 16L14 15ZM17 15L17 17L18 17L18 15ZM28 15L28 16L29 16L29 15ZM2 16L2 17L3 17L3 16ZM8 16L8 17L9 17L9 16ZM10 16L10 18L11 18L11 16ZM20 16L20 17L21 17L21 16ZM23 16L23 17L24 17L24 16ZM12 17L12 19L11 19L11 20L10 20L10 19L9 19L9 18L8 18L8 19L9 19L9 20L7 20L7 21L4 21L4 23L3 23L3 21L1 21L1 23L3 23L3 24L7 24L7 23L6 23L6 22L7 22L7 21L11 21L11 20L12 20L12 21L13 21L13 20L12 20L12 19L13 19L13 17ZM23 18L23 19L24 19L24 18ZM27 18L27 19L28 19L28 18ZM31 19L31 20L30 20L30 21L31 21L31 20L33 20L33 21L34 21L34 20L33 20L33 19ZM24 20L24 21L23 21L23 24L22 24L22 25L23 25L23 24L24 24L24 28L23 28L23 29L24 29L24 30L25 30L25 28L27 28L27 27L26 27L26 26L25 26L25 20ZM40 20L40 21L41 21L41 20ZM8 22L8 25L6 25L6 26L5 26L5 27L4 27L4 25L3 25L3 27L2 27L2 28L3 28L3 29L4 29L4 28L8 28L8 27L9 27L9 28L10 28L10 27L12 27L12 25L11 25L11 24L9 24L9 22ZM27 22L27 23L30 23L30 24L27 24L27 25L29 25L29 26L30 26L30 25L31 25L31 26L32 26L32 25L34 25L34 24L31 24L31 22ZM9 25L9 27L10 27L10 25ZM16 25L16 26L17 26L17 25ZM6 26L6 27L7 27L7 26ZM3 27L3 28L4 28L4 27ZM0 29L0 33L1 33L1 29ZM21 29L21 31L20 31L20 32L18 32L18 33L15 33L15 32L14 32L14 31L13 31L13 32L12 32L12 34L13 34L13 33L14 33L14 34L17 34L17 35L16 35L16 36L18 36L18 34L19 34L19 36L20 36L20 37L21 37L21 35L22 35L22 36L24 36L24 38L25 38L25 39L24 39L24 40L25 40L25 39L26 39L26 38L28 38L28 37L29 37L29 39L28 39L28 40L31 40L31 39L30 39L30 37L31 37L31 38L32 38L32 39L33 39L33 38L36 38L36 37L32 37L32 35L31 35L31 34L30 34L30 35L31 35L31 36L29 36L29 33L26 33L26 31L25 31L25 32L24 32L24 31L23 31L23 32L24 32L24 33L23 33L23 35L22 35L22 33L21 33L21 32L22 32L22 29ZM26 29L26 30L27 30L27 29ZM6 30L6 31L8 31L8 30ZM28 31L28 32L30 32L30 33L31 33L31 31ZM5 32L5 33L7 33L7 32ZM8 32L8 34L9 34L9 32ZM33 33L33 36L36 36L36 33ZM37 33L37 36L39 36L39 35L38 35L38 34L39 34L39 33ZM20 34L20 35L21 35L21 34ZM27 34L27 35L25 35L25 36L26 36L26 37L28 37L28 36L27 36L27 35L28 35L28 34ZM34 34L34 35L35 35L35 34ZM37 38L37 39L38 39L38 38ZM0 0L0 7L7 7L7 0ZM1 1L1 6L6 6L6 1ZM2 2L2 5L5 5L5 2ZM34 0L34 7L41 7L41 0ZM35 1L35 6L40 6L40 1ZM36 2L36 5L39 5L39 2ZM0 34L0 41L7 41L7 34ZM1 35L1 40L6 40L6 35ZM2 36L2 39L5 39L5 36Z" fill="#000000"/></g></g></svg>
