<?xml version="1.0" encoding="UTF-8"?>
<svg xmlns="http://www.w3.org/2000/svg" version="1.1" width="200" height="200" viewBox="0 0 200 200"><rect x="0" y="0" width="200" height="200" fill="#ffffff"/><g transform="scale(4.878)"><g transform="translate(0,0)"><path fill-rule="evenodd" d="M8 0L8 2L9 2L9 0ZM11 0L11 1L10 1L10 3L11 3L11 1L12 1L12 4L14 4L14 7L15 7L15 6L16 6L16 8L14 8L14 10L15 10L15 9L18 9L18 10L16 10L16 11L17 11L17 12L16 12L16 13L15 13L15 11L12 11L12 12L13 12L13 13L10 13L10 12L11 12L11 11L10 11L10 10L9 10L9 9L8 9L8 10L6 10L6 9L7 9L7 8L6 8L6 9L4 9L4 8L3 8L3 9L4 9L4 10L2 10L2 9L1 9L1 10L0 10L0 11L1 11L1 10L2 10L2 11L3 11L3 12L0 12L0 14L1 14L1 17L2 17L2 18L0 18L0 19L1 19L1 21L2 21L2 22L0 22L0 24L1 24L1 23L2 23L2 25L1 25L1 26L2 26L2 27L0 27L0 29L1 29L1 30L0 30L0 31L1 31L1 30L2 30L2 28L3 28L3 27L4 27L4 30L3 30L3 31L4 31L4 32L3 32L3 33L5 33L5 31L7 31L7 32L6 32L6 33L8 33L8 34L10 34L10 32L9 32L9 33L8 33L8 31L9 31L9 30L10 30L10 29L11 29L11 28L10 28L10 26L11 26L11 27L12 27L12 29L13 29L13 30L12 30L12 32L11 32L11 35L9 35L9 36L10 36L10 39L9 39L9 41L10 41L10 40L12 40L12 41L14 41L14 40L16 40L16 41L17 41L17 40L18 40L18 41L19 41L19 40L18 40L18 38L19 38L19 39L20 39L20 41L22 41L22 40L23 40L23 41L25 41L25 39L26 39L26 41L28 41L28 39L29 39L29 41L30 41L30 40L31 40L31 41L33 41L33 39L32 39L32 40L31 40L31 39L30 39L30 38L31 38L31 36L32 36L32 38L33 38L33 37L34 37L34 38L36 38L36 40L37 40L37 41L40 41L40 39L41 39L41 38L40 38L40 37L41 37L41 36L40 36L40 35L38 35L38 33L39 33L39 34L41 34L41 32L40 32L40 33L39 33L39 32L36 32L36 31L34 31L34 29L36 29L36 28L35 28L35 27L38 27L38 26L39 26L39 25L40 25L40 24L41 24L41 23L40 23L40 22L39 22L39 23L38 23L38 22L37 22L37 21L40 21L40 20L41 20L41 16L39 16L39 17L38 17L38 18L37 18L37 19L36 19L36 20L35 20L35 19L34 19L34 18L35 18L35 17L36 17L36 16L35 16L35 17L32 17L32 20L33 20L33 19L34 19L34 23L35 23L35 24L32 24L32 22L33 22L33 21L32 21L32 22L31 22L31 23L30 23L30 24L28 24L28 25L30 25L30 26L29 26L29 29L27 29L27 28L28 28L28 27L26 27L26 26L27 26L27 25L25 25L25 24L27 24L27 23L25 23L25 22L27 22L27 21L26 21L26 20L28 20L28 19L27 19L27 17L25 17L25 16L24 16L24 15L25 15L25 13L26 13L26 12L29 12L29 13L27 13L27 14L29 14L29 19L30 19L30 18L31 18L31 15L32 15L32 16L33 16L33 15L32 15L32 14L33 14L33 12L32 12L32 11L33 11L33 10L31 10L31 6L32 6L32 9L33 9L33 3L32 3L32 5L31 5L31 6L30 6L30 7L29 7L29 5L28 5L28 4L30 4L30 1L29 1L29 0L27 0L27 1L26 1L26 0L25 0L25 2L22 2L22 1L24 1L24 0L22 0L22 1L21 1L21 0L20 0L20 2L19 2L19 1L16 1L16 3L15 3L15 2L14 2L14 1L15 1L15 0L14 0L14 1L13 1L13 0ZM31 0L31 1L33 1L33 0ZM28 1L28 2L26 2L26 3L27 3L27 4L28 4L28 3L29 3L29 1ZM21 2L21 4L20 4L20 5L21 5L21 7L20 7L20 6L19 6L19 5L18 5L18 6L17 6L17 8L18 8L18 9L19 9L19 10L18 10L18 11L19 11L19 10L20 10L20 12L17 12L17 13L16 13L16 14L15 14L15 13L14 13L14 14L13 14L13 18L12 18L12 16L11 16L11 15L12 15L12 14L11 14L11 15L10 15L10 14L9 14L9 15L10 15L10 16L11 16L11 18L9 18L9 16L8 16L8 15L6 15L6 14L8 14L8 12L9 12L9 10L8 10L8 12L7 12L7 11L6 11L6 10L4 10L4 12L3 12L3 13L2 13L2 14L3 14L3 13L4 13L4 12L5 12L5 14L4 14L4 15L3 15L3 16L2 16L2 17L3 17L3 18L2 18L2 19L3 19L3 20L2 20L2 21L3 21L3 25L2 25L2 26L3 26L3 25L4 25L4 24L5 24L5 26L7 26L7 25L8 25L8 26L9 26L9 25L8 25L8 24L7 24L7 23L6 23L6 22L7 22L7 21L5 21L5 20L9 20L9 23L10 23L10 24L14 24L14 26L12 26L12 25L11 25L11 26L12 26L12 27L13 27L13 28L14 28L14 29L15 29L15 31L14 31L14 30L13 30L13 32L15 32L15 34L14 34L14 35L13 35L13 36L12 36L12 35L11 35L11 38L12 38L12 40L13 40L13 38L17 38L17 37L18 37L18 36L17 36L17 37L16 37L16 35L15 35L15 34L16 34L16 32L17 32L17 33L18 33L18 34L17 34L17 35L19 35L19 36L20 36L20 38L21 38L21 37L22 37L22 38L23 38L23 40L24 40L24 37L25 37L25 38L26 38L26 36L24 36L24 35L26 35L26 34L27 34L27 35L28 35L28 36L27 36L27 39L28 39L28 37L30 37L30 34L29 34L29 35L28 35L28 33L27 33L27 32L29 32L29 33L30 33L30 32L31 32L31 35L32 35L32 32L34 32L34 31L33 31L33 30L31 30L31 31L30 31L30 30L29 30L29 31L27 31L27 29L25 29L25 28L26 28L26 27L25 27L25 26L24 26L24 27L23 27L23 26L22 26L22 24L21 24L21 27L22 27L22 28L24 28L24 29L25 29L25 30L23 30L23 31L22 31L22 30L21 30L21 31L22 31L22 32L17 32L17 31L19 31L19 30L20 30L20 29L19 29L19 28L18 28L18 27L20 27L20 26L18 26L18 25L19 25L19 24L20 24L20 23L21 23L21 22L22 22L22 23L24 23L24 24L25 24L25 23L24 23L24 22L23 22L23 20L22 20L22 19L23 19L23 17L24 17L24 18L25 18L25 19L24 19L24 20L26 20L26 18L25 18L25 17L24 17L24 16L23 16L23 15L22 15L22 14L23 14L23 13L24 13L24 12L23 12L23 13L22 13L22 12L21 12L21 10L23 10L23 7L24 7L24 8L25 8L25 7L26 7L26 8L27 8L27 9L24 9L24 11L25 11L25 12L26 12L26 11L25 11L25 10L27 10L27 11L28 11L28 8L29 8L29 9L30 9L30 8L29 8L29 7L28 7L28 6L27 6L27 7L26 7L26 6L25 6L25 7L24 7L24 6L23 6L23 7L22 7L22 5L21 5L21 4L22 4L22 2ZM8 3L8 7L9 7L9 6L10 6L10 8L12 8L12 9L13 9L13 6L12 6L12 5L10 5L10 4L9 4L9 3ZM23 3L23 5L26 5L26 4L25 4L25 3ZM16 4L16 5L17 5L17 4ZM11 6L11 7L12 7L12 6ZM18 6L18 8L19 8L19 9L22 9L22 8L19 8L19 6ZM27 7L27 8L28 8L28 7ZM35 8L35 9L34 9L34 10L36 10L36 12L37 12L37 10L38 10L38 8ZM39 8L39 9L40 9L40 10L41 10L41 8ZM36 9L36 10L37 10L37 9ZM29 11L29 12L30 12L30 11ZM38 11L38 14L37 14L37 16L38 16L38 14L39 14L39 11ZM6 12L6 13L7 13L7 12ZM20 12L20 14L18 14L18 15L17 15L17 14L16 14L16 15L15 15L15 14L14 14L14 16L15 16L15 17L14 17L14 19L12 19L12 20L10 20L10 21L11 21L11 22L10 22L10 23L11 23L11 22L12 22L12 23L13 23L13 22L14 22L14 24L15 24L15 25L16 25L16 26L14 26L14 27L15 27L15 28L17 28L17 27L18 27L18 26L17 26L17 25L18 25L18 24L16 24L16 23L15 23L15 21L14 21L14 20L15 20L15 17L16 17L16 16L18 16L18 17L17 17L17 18L16 18L16 20L17 20L17 21L16 21L16 22L17 22L17 23L20 23L20 22L21 22L21 21L20 21L20 19L22 19L22 16L18 16L18 15L21 15L21 14L22 14L22 13L21 13L21 12ZM31 12L31 13L30 13L30 14L32 14L32 12ZM34 12L34 15L36 15L36 13L35 13L35 12ZM40 14L40 15L41 15L41 14ZM5 15L5 16L3 16L3 17L5 17L5 18L3 18L3 19L7 19L7 18L6 18L6 17L7 17L7 16L6 16L6 15ZM27 15L27 16L28 16L28 15ZM5 16L5 17L6 17L6 16ZM18 17L18 18L17 18L17 20L19 20L19 19L20 19L20 18L21 18L21 17ZM39 17L39 18L38 18L38 19L37 19L37 20L40 20L40 17ZM8 18L8 19L9 19L9 18ZM18 18L18 19L19 19L19 18ZM29 20L29 22L28 22L28 23L29 23L29 22L30 22L30 20ZM4 21L4 22L5 22L5 21ZM17 21L17 22L18 22L18 21ZM19 21L19 22L20 22L20 21ZM35 21L35 23L37 23L37 22L36 22L36 21ZM39 23L39 24L38 24L38 25L39 25L39 24L40 24L40 23ZM6 24L6 25L7 25L7 24ZM31 24L31 25L32 25L32 24ZM36 24L36 26L37 26L37 24ZM34 25L34 27L35 27L35 25ZM16 26L16 27L17 27L17 26ZM30 26L30 27L31 27L31 28L32 28L32 29L33 29L33 26ZM40 26L40 28L41 28L41 26ZM5 27L5 28L7 28L7 29L5 29L5 30L7 30L7 31L8 31L8 30L9 30L9 29L10 29L10 28L8 28L8 27ZM37 28L37 31L39 31L39 30L40 30L40 31L41 31L41 29L39 29L39 28ZM16 29L16 30L18 30L18 29ZM25 30L25 31L26 31L26 30ZM23 31L23 32L22 32L22 33L21 33L21 34L19 34L19 35L20 35L20 36L22 36L22 37L24 37L24 36L22 36L22 35L24 35L24 34L26 34L26 33L25 33L25 32L24 32L24 31ZM29 31L29 32L30 32L30 31ZM0 32L0 33L1 33L1 32ZM23 32L23 33L22 33L22 34L21 34L21 35L22 35L22 34L23 34L23 33L24 33L24 32ZM33 33L33 36L36 36L36 33ZM34 34L34 35L35 35L35 34ZM14 35L14 37L15 37L15 35ZM37 35L37 37L36 37L36 38L37 38L37 39L38 39L38 40L39 40L39 39L40 39L40 38L39 38L39 36L38 36L38 35ZM8 37L8 38L9 38L9 37ZM12 37L12 38L13 38L13 37ZM37 37L37 38L38 38L38 39L39 39L39 38L38 38L38 37ZM16 39L16 40L17 40L17 39ZM21 39L21 40L22 40L22 39ZM0 0L0 7L7 7L7 0ZM1 1L1 6L6 6L6 1ZM2 2L2 5L5 5L5 2ZM34 0L34 7L41 7L41 0ZM35 1L35 6L40 6L40 1ZM36 2L36 5L39 5L39 2ZM0 34L0 41L7 41L7 34ZM1 35L1 40L6 40L6 35ZM2 36L2 39L5 39L5 36Z" fill="#000000"/></g></g></svg>
