<?xml version="1.0" encoding="UTF-8"?>
<svg xmlns="http://www.w3.org/2000/svg" version="1.1" width="200" height="200" viewBox="0 0 200 200"><rect x="0" y="0" width="200" height="200" fill="#ffffff"/><g transform="scale(6.897)"><g transform="translate(0,0)"><path fill-rule="evenodd" d="M8 0L8 3L10 3L10 4L9 4L9 5L8 5L8 10L6 10L6 9L7 9L7 8L6 8L6 9L5 9L5 8L2 8L2 9L1 9L1 10L2 10L2 11L0 11L0 12L1 12L1 13L0 13L0 15L2 15L2 13L3 13L3 12L4 12L4 13L5 13L5 12L6 12L6 13L9 13L9 14L10 14L10 13L11 13L11 16L9 16L9 15L7 15L7 14L5 14L5 15L4 15L4 17L3 17L3 18L5 18L5 15L7 15L7 16L6 16L6 17L7 17L7 16L8 16L8 19L9 19L9 20L11 20L11 21L8 21L8 20L6 20L6 19L7 19L7 18L6 18L6 19L2 19L2 20L3 20L3 21L8 21L8 22L9 22L9 24L8 24L8 27L9 27L9 28L10 28L10 29L12 29L12 27L11 27L11 26L10 26L10 25L12 25L12 26L13 26L13 29L16 29L16 28L17 28L17 27L18 27L18 29L28 29L28 28L29 28L29 27L28 27L28 25L27 25L27 26L26 26L26 24L25 24L25 22L26 22L26 23L27 23L27 22L26 22L26 21L25 21L25 20L23 20L23 19L22 19L22 18L20 18L20 19L21 19L21 20L20 20L20 25L19 25L19 27L18 27L18 26L17 26L17 27L16 27L16 26L15 26L15 22L14 22L14 21L16 21L16 22L17 22L17 23L16 23L16 25L18 25L18 23L19 23L19 22L17 22L17 18L19 18L19 17L17 17L17 18L16 18L16 16L18 16L18 15L16 15L16 14L15 14L15 13L16 13L16 11L17 11L17 13L20 13L20 12L21 12L21 11L20 11L20 10L22 10L22 9L23 9L23 10L24 10L24 8L21 8L21 9L20 9L20 7L21 7L21 5L20 5L20 4L21 4L21 3L20 3L20 4L19 4L19 3L18 3L18 4L17 4L17 1L16 1L16 0L15 0L15 2L14 2L14 4L13 4L13 1L14 1L14 0L12 0L12 1L10 1L10 0ZM9 1L9 2L10 2L10 1ZM18 1L18 2L19 2L19 1ZM20 1L20 2L21 2L21 1ZM11 2L11 3L12 3L12 2ZM15 2L15 3L16 3L16 2ZM10 4L10 5L11 5L11 10L10 10L10 11L9 11L9 12L11 12L11 13L12 13L12 16L11 16L11 17L9 17L9 18L11 18L11 17L12 17L12 18L13 18L13 19L11 19L11 20L12 20L12 21L13 21L13 20L16 20L16 18L15 18L15 16L16 16L16 15L13 15L13 14L14 14L14 13L13 13L13 12L12 12L12 11L13 11L13 10L12 10L12 9L14 9L14 12L15 12L15 10L16 10L16 9L19 9L19 10L20 10L20 9L19 9L19 8L16 8L16 6L17 6L17 7L18 7L18 6L19 6L19 7L20 7L20 6L19 6L19 5L18 5L18 6L17 6L17 4L16 4L16 5L13 5L13 4L12 4L12 5L11 5L11 4ZM9 6L9 8L10 8L10 6ZM12 6L12 8L13 8L13 6ZM14 6L14 9L16 9L16 8L15 8L15 6ZM26 8L26 9L25 9L25 12L24 12L24 11L22 11L22 12L23 12L23 13L21 13L21 15L22 15L22 14L23 14L23 13L24 13L24 19L27 19L27 20L28 20L28 22L29 22L29 20L28 20L28 19L27 19L27 17L28 17L28 15L29 15L29 13L28 13L28 10L29 10L29 8ZM2 9L2 10L3 10L3 11L2 11L2 12L3 12L3 11L4 11L4 12L5 12L5 11L4 11L4 10L3 10L3 9ZM26 9L26 11L27 11L27 9ZM11 10L11 11L12 11L12 10ZM6 11L6 12L8 12L8 11ZM18 11L18 12L19 12L19 11ZM25 12L25 13L26 13L26 14L28 14L28 13L27 13L27 12ZM25 15L25 16L27 16L27 15ZM1 16L1 17L0 17L0 21L1 21L1 17L2 17L2 16ZM20 16L20 17L22 17L22 16ZM18 19L18 20L19 20L19 19ZM21 21L21 24L24 24L24 21ZM10 22L10 23L11 23L11 24L13 24L13 26L14 26L14 23L12 23L12 22ZM22 22L22 23L23 23L23 22ZM9 24L9 25L10 25L10 24ZM22 25L22 26L23 26L23 27L25 27L25 28L27 28L27 27L25 27L25 26L24 26L24 25ZM9 26L9 27L10 27L10 28L11 28L11 27L10 27L10 26ZM20 26L20 27L19 27L19 28L22 28L22 27L21 27L21 26ZM14 27L14 28L15 28L15 27ZM0 0L0 7L7 7L7 0ZM1 1L1 6L6 6L6 1ZM2 2L2 5L5 5L5 2ZM22 0L22 7L29 7L29 0ZM23 1L23 6L28 6L28 1ZM24 2L24 5L27 5L27 2ZM0 22L0 29L7 29L7 22ZM1 23L1 28L6 28L6 23ZM2 24L2 27L5 27L5 24Z" fill="#000000"/></g></g></svg>
