<?xml version="1.0" encoding="UTF-8"?>
<svg xmlns="http://www.w3.org/2000/svg" version="1.1" width="200" height="200" viewBox="0 0 200 200"><rect x="0" y="0" width="200" height="200" fill="#ffffff"/><g transform="scale(6.897)"><g transform="translate(0,0)"><path fill-rule="evenodd" d="M8 0L8 1L9 1L9 0ZM10 0L10 2L9 2L9 3L8 3L8 4L9 4L9 5L10 5L10 4L11 4L11 6L10 6L10 8L11 8L11 10L10 10L10 9L9 9L9 8L8 8L8 17L9 17L9 15L12 15L12 17L13 17L13 16L14 16L14 17L15 17L15 19L14 19L14 18L13 18L13 22L14 22L14 25L12 25L12 24L13 24L13 23L12 23L12 24L11 24L11 26L10 26L10 24L9 24L9 23L10 23L10 22L9 22L9 21L10 21L10 20L12 20L12 18L11 18L11 19L10 19L10 20L8 20L8 19L7 19L7 18L4 18L4 19L3 19L3 20L4 20L4 19L7 19L7 20L5 20L5 21L7 21L7 20L8 20L8 22L9 22L9 23L8 23L8 25L9 25L9 26L8 26L8 27L9 27L9 29L12 29L12 28L13 28L13 29L14 29L14 27L16 27L16 28L15 28L15 29L16 29L16 28L17 28L17 27L19 27L19 28L18 28L18 29L20 29L20 27L21 27L21 26L22 26L22 25L23 25L23 26L24 26L24 25L27 25L27 26L26 26L26 27L27 27L27 28L23 28L23 27L22 27L22 28L23 28L23 29L27 29L27 28L28 28L28 29L29 29L29 26L28 26L28 25L29 25L29 24L28 24L28 23L27 23L27 24L26 24L26 23L25 23L25 20L24 20L24 19L25 19L25 18L24 18L24 17L26 17L26 18L27 18L27 20L26 20L26 21L28 21L28 22L29 22L29 21L28 21L28 19L29 19L29 18L27 18L27 17L26 17L26 14L24 14L24 13L25 13L25 11L26 11L26 13L27 13L27 12L28 12L28 13L29 13L29 12L28 12L28 11L29 11L29 8L28 8L28 9L27 9L27 10L28 10L28 11L26 11L26 8L25 8L25 9L24 9L24 10L25 10L25 11L24 11L24 12L23 12L23 10L22 10L22 8L21 8L21 0L20 0L20 1L19 1L19 2L20 2L20 3L19 3L19 5L18 5L18 3L17 3L17 2L18 2L18 1L17 1L17 2L16 2L16 3L15 3L15 2L14 2L14 1L13 1L13 0ZM11 1L11 2L12 2L12 4L13 4L13 5L14 5L14 6L13 6L13 7L12 7L12 6L11 6L11 8L14 8L14 6L15 6L15 10L14 10L14 9L13 9L13 10L12 10L12 11L13 11L13 12L12 12L12 15L13 15L13 14L16 14L16 13L17 13L17 12L20 12L20 11L18 11L18 10L19 10L19 8L20 8L20 5L19 5L19 7L18 7L18 5L16 5L16 4L17 4L17 3L16 3L16 4L15 4L15 5L14 5L14 3L13 3L13 1ZM8 6L8 7L9 7L9 6ZM16 6L16 8L17 8L17 6ZM2 8L2 9L3 9L3 10L1 10L1 9L0 9L0 11L1 11L1 12L0 12L0 15L1 15L1 16L0 16L0 17L1 17L1 18L0 18L0 19L1 19L1 20L0 20L0 21L1 21L1 20L2 20L2 19L1 19L1 18L2 18L2 17L3 17L3 16L5 16L5 15L2 15L2 13L3 13L3 14L4 14L4 13L5 13L5 14L6 14L6 15L7 15L7 14L6 14L6 13L7 13L7 12L6 12L6 11L7 11L7 10L6 10L6 9L7 9L7 8L4 8L4 9L3 9L3 8ZM3 10L3 11L2 11L2 12L1 12L1 13L2 13L2 12L3 12L3 11L6 11L6 10ZM16 10L16 11L14 11L14 12L15 12L15 13L16 13L16 12L17 12L17 10ZM9 11L9 14L11 14L11 11ZM21 11L21 12L22 12L22 11ZM18 13L18 14L19 14L19 15L18 15L18 17L16 17L16 16L15 16L15 15L14 15L14 16L15 16L15 17L16 17L16 18L17 18L17 20L16 20L16 19L15 19L15 20L16 20L16 23L15 23L15 26L16 26L16 24L19 24L19 26L20 26L20 24L19 24L19 23L20 23L20 22L17 22L17 21L18 21L18 20L19 20L19 21L20 21L20 20L21 20L21 19L22 19L22 18L23 18L23 19L24 19L24 18L23 18L23 17L24 17L24 16L25 16L25 15L24 15L24 14L23 14L23 15L22 15L22 14L21 14L21 13L20 13L20 14L19 14L19 13ZM20 14L20 15L19 15L19 16L20 16L20 15L21 15L21 14ZM28 14L28 15L27 15L27 16L28 16L28 17L29 17L29 16L28 16L28 15L29 15L29 14ZM23 15L23 16L22 16L22 17L23 17L23 16L24 16L24 15ZM1 16L1 17L2 17L2 16ZM6 16L6 17L7 17L7 16ZM10 16L10 17L11 17L11 16ZM19 17L19 18L18 18L18 19L19 19L19 20L20 20L20 19L19 19L19 18L20 18L20 17ZM21 21L21 24L24 24L24 21ZM22 22L22 23L23 23L23 22ZM27 24L27 25L28 25L28 24ZM17 25L17 26L18 26L18 25ZM11 26L11 27L10 27L10 28L11 28L11 27L14 27L14 26ZM27 26L27 27L28 27L28 26ZM0 0L0 7L7 7L7 0ZM1 1L1 6L6 6L6 1ZM2 2L2 5L5 5L5 2ZM22 0L22 7L29 7L29 0ZM23 1L23 6L28 6L28 1ZM24 2L24 5L27 5L27 2ZM0 22L0 29L7 29L7 22ZM1 23L1 28L6 28L6 23ZM2 24L2 27L5 27L5 24Z" fill="#000000"/></g></g></svg>
