<?xml version="1.0" encoding="UTF-8"?>
<svg xmlns="http://www.w3.org/2000/svg" version="1.1" width="200" height="200" viewBox="0 0 200 200"><rect x="0" y="0" width="200" height="200" fill="#ffffff"/><g transform="scale(6.897)"><g transform="translate(0,0)"><path fill-rule="evenodd" d="M8 0L8 1L9 1L9 0ZM10 0L10 2L9 2L9 3L8 3L8 4L9 4L9 5L10 5L10 4L11 4L11 6L10 6L10 7L11 7L11 6L12 6L12 7L13 7L13 9L14 9L14 10L15 10L15 11L14 11L14 12L16 12L16 11L17 11L17 9L14 9L14 8L15 8L15 2L14 2L14 1L15 1L15 0L14 0L14 1L11 1L11 0ZM20 0L20 1L19 1L19 2L20 2L20 3L19 3L19 5L18 5L18 3L17 3L17 4L16 4L16 5L18 5L18 7L19 7L19 5L20 5L20 8L19 8L19 10L18 10L18 11L20 11L20 12L17 12L17 13L16 13L16 14L15 14L15 15L14 15L14 13L13 13L13 15L12 15L12 12L13 12L13 10L10 10L10 9L9 9L9 8L8 8L8 9L7 9L7 8L4 8L4 9L3 9L3 8L2 8L2 9L0 9L0 11L1 11L1 12L0 12L0 14L2 14L2 13L3 13L3 14L4 14L4 13L5 13L5 15L7 15L7 14L6 14L6 13L7 13L7 12L6 12L6 11L8 11L8 17L9 17L9 16L10 16L10 18L12 18L12 19L10 19L10 20L9 20L9 19L7 19L7 18L2 18L2 17L3 17L3 16L4 16L4 15L2 15L2 16L0 16L0 17L1 17L1 18L0 18L0 19L1 19L1 20L0 20L0 21L1 21L1 20L2 20L2 21L3 21L3 19L7 19L7 20L5 20L5 21L8 21L8 22L9 22L9 21L10 21L10 20L12 20L12 19L13 19L13 21L14 21L14 22L15 22L15 23L16 23L16 20L17 20L17 19L16 19L16 18L17 18L17 17L18 17L18 16L20 16L20 15L21 15L21 14L22 14L22 15L23 15L23 16L22 16L22 17L23 17L23 18L22 18L22 19L21 19L21 20L20 20L20 19L19 19L19 18L20 18L20 17L19 17L19 18L18 18L18 19L19 19L19 20L18 20L18 22L17 22L17 23L19 23L19 24L20 24L20 26L19 26L19 25L18 25L18 24L16 24L16 25L18 25L18 26L14 26L14 23L12 23L12 24L10 24L10 23L11 23L11 22L10 22L10 23L8 23L8 25L9 25L9 26L8 26L8 27L9 27L9 29L12 29L12 28L10 28L10 27L11 27L11 26L12 26L12 25L13 25L13 26L14 26L14 27L13 27L13 29L14 29L14 27L15 27L15 28L16 28L16 27L19 27L19 28L18 28L18 29L20 29L20 27L21 27L21 26L22 26L22 25L23 25L23 26L24 26L24 25L27 25L27 26L28 26L28 27L27 27L27 28L26 28L26 29L27 29L27 28L28 28L28 29L29 29L29 26L28 26L28 25L29 25L29 24L28 24L28 23L27 23L27 24L26 24L26 23L25 23L25 20L24 20L24 19L26 19L26 18L27 18L27 20L26 20L26 21L28 21L28 22L29 22L29 21L28 21L28 19L29 19L29 18L27 18L27 17L26 17L26 14L24 14L24 13L25 13L25 11L26 11L26 13L27 13L27 14L28 14L28 15L27 15L27 16L28 16L28 17L29 17L29 16L28 16L28 15L29 15L29 14L28 14L28 13L29 13L29 12L28 12L28 11L29 11L29 8L28 8L28 9L27 9L27 10L28 10L28 11L26 11L26 10L25 10L25 9L26 9L26 8L25 8L25 9L24 9L24 10L25 10L25 11L24 11L24 12L23 12L23 10L22 10L22 8L21 8L21 0ZM16 1L16 2L18 2L18 1ZM11 2L11 4L13 4L13 7L14 7L14 3L13 3L13 2ZM8 6L8 7L9 7L9 6ZM16 6L16 8L17 8L17 6ZM11 8L11 9L12 9L12 8ZM2 9L2 11L3 11L3 12L4 12L4 11L6 11L6 10L7 10L7 9L5 9L5 10L4 10L4 11L3 11L3 9ZM8 9L8 11L9 11L9 13L10 13L10 14L9 14L9 15L10 15L10 14L11 14L11 12L12 12L12 11L9 11L9 9ZM21 11L21 12L22 12L22 11ZM1 12L1 13L2 13L2 12ZM27 12L27 13L28 13L28 12ZM18 13L18 14L17 14L17 16L18 16L18 15L20 15L20 14L21 14L21 13L20 13L20 14L19 14L19 13ZM23 14L23 15L24 15L24 16L23 16L23 17L24 17L24 18L23 18L23 19L24 19L24 18L26 18L26 17L24 17L24 16L25 16L25 15L24 15L24 14ZM11 15L11 17L12 17L12 18L14 18L14 19L15 19L15 18L16 18L16 16L12 16L12 15ZM5 16L5 17L7 17L7 16ZM1 18L1 19L2 19L2 18ZM19 20L19 21L20 21L20 20ZM21 21L21 24L24 24L24 21ZM19 22L19 23L20 23L20 22ZM22 22L22 23L23 23L23 22ZM9 24L9 25L10 25L10 26L11 26L11 25L10 25L10 24ZM27 24L27 25L28 25L28 24ZM25 26L25 27L26 27L26 26ZM22 27L22 28L23 28L23 29L25 29L25 28L23 28L23 27ZM0 0L0 7L7 7L7 0ZM1 1L1 6L6 6L6 1ZM2 2L2 5L5 5L5 2ZM22 0L22 7L29 7L29 0ZM23 1L23 6L28 6L28 1ZM24 2L24 5L27 5L27 2ZM0 22L0 29L7 29L7 22ZM1 23L1 28L6 28L6 23ZM2 24L2 27L5 27L5 24Z" fill="#000000"/></g></g></svg>
