<?xml version="1.0" encoding="UTF-8"?>
<svg xmlns="http://www.w3.org/2000/svg" version="1.1" width="200" height="200" viewBox="0 0 200 200"><rect x="0" y="0" width="200" height="200" fill="#ffffff"/><g transform="scale(4.878)"><g transform="translate(0,0)"><path fill-rule="evenodd" d="M8 0L8 3L9 3L9 4L11 4L11 5L10 5L10 9L9 9L9 5L8 5L8 9L7 9L7 8L6 8L6 9L7 9L7 10L6 10L6 11L5 11L5 12L6 12L6 13L5 13L5 14L2 14L2 13L1 13L1 12L0 12L0 13L1 13L1 14L0 14L0 15L2 15L2 16L3 16L3 18L2 18L2 17L1 17L1 16L0 16L0 18L2 18L2 20L0 20L0 24L1 24L1 23L3 23L3 25L1 25L1 26L0 26L0 33L1 33L1 30L2 30L2 29L3 29L3 32L5 32L5 31L7 31L7 30L8 30L8 31L11 31L11 29L12 29L12 33L11 33L11 32L10 32L10 33L8 33L8 32L6 32L6 33L8 33L8 34L9 34L9 36L8 36L8 39L9 39L9 37L10 37L10 36L11 36L11 37L13 37L13 39L12 39L12 38L11 38L11 39L10 39L10 40L9 40L9 41L11 41L11 40L12 40L12 41L13 41L13 40L14 40L14 38L15 38L15 39L16 39L16 40L17 40L17 39L16 39L16 38L15 38L15 37L16 37L16 36L17 36L17 37L18 37L18 38L21 38L21 41L22 41L22 39L23 39L23 38L24 38L24 37L25 37L25 38L27 38L27 39L24 39L24 40L26 40L26 41L28 41L28 40L27 40L27 39L28 39L28 38L29 38L29 37L28 37L28 36L31 36L31 35L32 35L32 37L30 37L30 38L31 38L31 40L33 40L33 41L34 41L34 40L33 40L33 39L32 39L32 37L33 37L33 38L34 38L34 39L35 39L35 40L36 40L36 39L37 39L37 40L40 40L40 38L41 38L41 37L39 37L39 36L41 36L41 35L40 35L40 34L41 34L41 33L40 33L40 32L38 32L38 31L40 31L40 30L41 30L41 29L40 29L40 28L39 28L39 30L38 30L38 29L36 29L36 28L38 28L38 26L39 26L39 27L40 27L40 26L41 26L41 23L39 23L39 24L40 24L40 26L39 26L39 25L36 25L36 24L37 24L37 21L38 21L38 22L39 22L39 20L36 20L36 19L35 19L35 17L36 17L36 18L37 18L37 17L36 17L36 16L35 16L35 17L34 17L34 16L32 16L32 17L30 17L30 16L29 16L29 15L28 15L28 16L29 16L29 17L30 17L30 19L31 19L31 18L32 18L32 17L33 17L33 18L34 18L34 19L35 19L35 21L34 21L34 20L33 20L33 21L32 21L32 20L30 20L30 21L29 21L29 20L27 20L27 19L29 19L29 18L26 18L26 19L25 19L25 20L24 20L24 18L23 18L23 15L24 15L24 17L26 17L26 15L27 15L27 14L30 14L30 15L31 15L31 10L32 10L32 13L33 13L33 14L32 14L32 15L34 15L34 13L35 13L35 9L36 9L36 11L37 11L37 12L38 12L38 11L39 11L39 13L40 13L40 14L39 14L39 15L40 15L40 14L41 14L41 12L40 12L40 10L41 10L41 8L38 8L38 9L40 9L40 10L37 10L37 9L36 9L36 8L33 8L33 6L32 6L32 7L31 7L31 5L32 5L32 4L33 4L33 3L32 3L32 2L30 2L30 0L29 0L29 1L27 1L27 0L26 0L26 1L27 1L27 2L26 2L26 3L28 3L28 4L29 4L29 5L27 5L27 4L26 4L26 5L25 5L25 4L22 4L22 1L23 1L23 0L21 0L21 1L19 1L19 0L18 0L18 2L17 2L17 1L15 1L15 0L14 0L14 1L15 1L15 2L14 2L14 3L13 3L13 2L12 2L12 1L11 1L11 0ZM24 0L24 2L23 2L23 3L25 3L25 0ZM31 0L31 1L32 1L32 0ZM9 1L9 3L11 3L11 1ZM16 2L16 3L14 3L14 4L13 4L13 5L14 5L14 4L16 4L16 5L17 5L17 2ZM19 2L19 3L20 3L20 4L19 4L19 7L18 7L18 6L17 6L17 7L16 7L16 6L15 6L15 7L14 7L14 6L13 6L13 8L14 8L14 10L13 10L13 11L12 11L12 5L11 5L11 9L10 9L10 10L9 10L9 11L8 11L8 12L11 12L11 11L12 11L12 14L10 14L10 16L11 16L11 17L10 17L10 18L9 18L9 17L8 17L8 18L9 18L9 19L10 19L10 20L9 20L9 23L8 23L8 22L7 22L7 21L8 21L8 19L6 19L6 18L7 18L7 17L6 17L6 16L7 16L7 15L5 15L5 17L4 17L4 18L5 18L5 19L6 19L6 20L7 20L7 21L6 21L6 22L7 22L7 23L6 23L6 24L4 24L4 25L3 25L3 26L2 26L2 27L3 27L3 29L4 29L4 27L5 27L5 28L7 28L7 27L6 27L6 26L10 26L10 27L8 27L8 29L9 29L9 30L10 30L10 29L11 29L11 28L10 28L10 27L12 27L12 25L11 25L11 24L10 24L10 25L9 25L9 23L11 23L11 22L14 22L14 21L15 21L15 22L16 22L16 21L15 21L15 20L16 20L16 19L14 19L14 20L13 20L13 21L12 21L12 20L11 20L11 18L12 18L12 19L13 19L13 18L14 18L14 17L15 17L15 18L16 18L16 17L15 17L15 16L14 16L14 13L15 13L15 15L16 15L16 16L17 16L17 18L18 18L18 19L17 19L17 21L18 21L18 22L17 22L17 24L16 24L16 23L15 23L15 24L14 24L14 23L13 23L13 24L14 24L14 25L13 25L13 28L12 28L12 29L13 29L13 28L14 28L14 29L15 29L15 30L14 30L14 31L13 31L13 32L14 32L14 33L12 33L12 34L11 34L11 35L12 35L12 36L13 36L13 37L15 37L15 36L14 36L14 34L16 34L16 35L17 35L17 36L18 36L18 33L20 33L20 34L19 34L19 37L20 37L20 35L21 35L21 32L22 32L22 31L21 31L21 32L19 32L19 30L18 30L18 29L19 29L19 28L20 28L20 27L19 27L19 28L18 28L18 29L17 29L17 27L16 27L16 26L17 26L17 25L18 25L18 26L21 26L21 27L22 27L22 28L23 28L23 27L24 27L24 34L23 34L23 35L22 35L22 36L21 36L21 38L22 38L22 37L23 37L23 36L24 36L24 35L25 35L25 37L26 37L26 36L27 36L27 34L28 34L28 35L29 35L29 33L27 33L27 29L26 29L26 28L30 28L30 29L28 29L28 30L29 30L29 31L28 31L28 32L30 32L30 33L31 33L31 31L30 31L30 29L31 29L31 30L32 30L32 31L33 31L33 32L36 32L36 31L34 31L34 30L36 30L36 29L35 29L35 28L36 28L36 27L37 27L37 26L36 26L36 25L35 25L35 24L36 24L36 23L35 23L35 22L36 22L36 21L35 21L35 22L34 22L34 21L33 21L33 22L34 22L34 24L33 24L33 23L32 23L32 22L31 22L31 21L30 21L30 22L29 22L29 21L27 21L27 22L29 22L29 23L26 23L26 22L25 22L25 21L24 21L24 22L23 22L23 20L19 20L19 19L22 19L22 17L21 17L21 15L23 15L23 14L24 14L24 15L25 15L25 13L23 13L23 10L22 10L22 9L23 9L23 8L24 8L24 12L27 12L27 13L26 13L26 14L27 14L27 13L29 13L29 12L30 12L30 10L31 10L31 9L32 9L32 10L33 10L33 11L34 11L34 9L32 9L32 8L31 8L31 9L30 9L30 10L29 10L29 9L28 9L28 8L30 8L30 5L29 5L29 7L28 7L28 6L27 6L27 5L26 5L26 6L25 6L25 7L26 7L26 8L24 8L24 6L23 6L23 5L22 5L22 4L21 4L21 2ZM29 3L29 4L32 4L32 3ZM21 5L21 6L20 6L20 7L21 7L21 6L22 6L22 8L21 8L21 9L22 9L22 8L23 8L23 6L22 6L22 5ZM26 6L26 7L27 7L27 8L26 8L26 9L25 9L25 11L26 11L26 9L27 9L27 8L28 8L28 7L27 7L27 6ZM17 7L17 8L15 8L15 9L17 9L17 10L16 10L16 11L15 11L15 10L14 10L14 11L13 11L13 13L14 13L14 12L16 12L16 13L17 13L17 14L16 14L16 15L17 15L17 16L18 16L18 15L17 15L17 14L19 14L19 12L18 12L18 11L20 11L20 13L21 13L21 14L22 14L22 13L21 13L21 12L22 12L22 11L21 11L21 10L18 10L18 7ZM2 8L2 9L0 9L0 10L1 10L1 11L2 11L2 12L4 12L4 11L3 11L3 10L5 10L5 8ZM19 8L19 9L20 9L20 8ZM2 9L2 10L3 10L3 9ZM10 10L10 11L11 11L11 10ZM17 10L17 11L18 11L18 10ZM27 10L27 12L28 12L28 10ZM6 11L6 12L7 12L7 11ZM33 12L33 13L34 13L34 12ZM6 13L6 14L7 14L7 13ZM8 13L8 14L9 14L9 13ZM36 13L36 15L37 15L37 16L38 16L38 17L39 17L39 16L38 16L38 14L37 14L37 13ZM3 15L3 16L4 16L4 15ZM12 15L12 16L13 16L13 17L14 17L14 16L13 16L13 15ZM19 15L19 16L20 16L20 15ZM40 16L40 18L39 18L39 19L40 19L40 18L41 18L41 16ZM18 17L18 18L21 18L21 17ZM3 19L3 20L2 20L2 21L1 21L1 22L3 22L3 21L4 21L4 22L5 22L5 21L4 21L4 19ZM10 20L10 21L11 21L11 20ZM40 20L40 21L41 21L41 20ZM19 21L19 22L20 22L20 21ZM30 22L30 23L31 23L31 24L25 24L25 25L29 25L29 26L26 26L26 27L29 27L29 26L30 26L30 25L31 25L31 26L32 26L32 28L33 28L33 29L32 29L32 30L33 30L33 29L34 29L34 28L33 28L33 27L34 27L34 26L35 26L35 27L36 27L36 26L35 26L35 25L31 25L31 24L32 24L32 23L31 23L31 22ZM7 23L7 24L6 24L6 25L8 25L8 23ZM23 23L23 24L24 24L24 23ZM19 24L19 25L21 25L21 26L22 26L22 27L23 27L23 26L22 26L22 24ZM14 25L14 26L16 26L16 25ZM24 26L24 27L25 27L25 26ZM14 27L14 28L15 28L15 27ZM9 28L9 29L10 29L10 28ZM6 29L6 30L7 30L7 29ZM16 29L16 31L15 31L15 33L16 33L16 34L17 34L17 32L18 32L18 30L17 30L17 29ZM20 29L20 30L21 30L21 29ZM22 29L22 30L23 30L23 29ZM37 30L37 31L38 31L38 30ZM25 31L25 34L26 34L26 31ZM37 32L37 33L38 33L38 34L37 34L37 35L38 35L38 36L37 36L37 37L38 37L38 36L39 36L39 35L38 35L38 34L39 34L39 33L38 33L38 32ZM33 33L33 36L36 36L36 33ZM30 34L30 35L31 35L31 34ZM34 34L34 35L35 35L35 34ZM27 37L27 38L28 38L28 37ZM34 37L34 38L36 38L36 37ZM37 38L37 39L38 39L38 38ZM18 39L18 40L20 40L20 39ZM29 40L29 41L30 41L30 40ZM0 0L0 7L7 7L7 0ZM1 1L1 6L6 6L6 1ZM2 2L2 5L5 5L5 2ZM34 0L34 7L41 7L41 0ZM35 1L35 6L40 6L40 1ZM36 2L36 5L39 5L39 2ZM0 34L0 41L7 41L7 34ZM1 35L1 40L6 40L6 35ZM2 36L2 39L5 39L5 36Z" fill="#000000"/></g></g></svg>
