<?xml version="1.0" encoding="UTF-8"?>
<svg xmlns="http://www.w3.org/2000/svg" version="1.1" width="200" height="200" viewBox="0 0 200 200"><rect x="0" y="0" width="200" height="200" fill="#ffffff"/><g transform="scale(6.897)"><g transform="translate(0,0)"><path fill-rule="evenodd" d="M8 0L8 1L9 1L9 0ZM13 0L13 2L14 2L14 1L15 1L15 2L16 2L16 5L18 5L18 7L19 7L19 5L20 5L20 7L21 7L21 0L20 0L20 1L19 1L19 2L20 2L20 3L19 3L19 4L18 4L18 3L17 3L17 2L18 2L18 1L17 1L17 2L16 2L16 0ZM10 1L10 2L11 2L11 1ZM8 3L8 4L9 4L9 3ZM10 3L10 8L8 8L8 11L9 11L9 10L10 10L10 11L11 11L11 13L12 13L12 14L10 14L10 13L9 13L9 14L8 14L8 13L7 13L7 12L6 12L6 13L4 13L4 10L5 10L5 11L7 11L7 10L5 10L5 9L7 9L7 8L4 8L4 10L3 10L3 8L2 8L2 9L0 9L0 10L3 10L3 12L1 12L1 13L0 13L0 14L1 14L1 13L4 13L4 14L2 14L2 15L5 15L5 17L4 17L4 18L3 18L3 16L1 16L1 15L0 15L0 16L1 16L1 18L0 18L0 19L1 19L1 20L0 20L0 21L1 21L1 20L2 20L2 21L3 21L3 20L5 20L5 21L7 21L7 20L8 20L8 22L9 22L9 23L8 23L8 25L9 25L9 26L8 26L8 27L9 27L9 29L10 29L10 26L11 26L11 27L12 27L12 26L13 26L13 27L14 27L14 24L15 24L15 27L16 27L16 28L15 28L15 29L17 29L17 28L18 28L18 29L20 29L20 27L21 27L21 26L22 26L22 25L23 25L23 26L24 26L24 25L27 25L27 26L26 26L26 27L27 27L27 28L23 28L23 27L22 27L22 28L23 28L23 29L27 29L27 28L28 28L28 29L29 29L29 26L28 26L28 25L29 25L29 24L26 24L26 23L25 23L25 20L26 20L26 21L28 21L28 22L27 22L27 23L29 23L29 21L28 21L28 19L29 19L29 18L27 18L27 17L26 17L26 14L24 14L24 13L25 13L25 11L26 11L26 13L27 13L27 12L28 12L28 13L29 13L29 12L28 12L28 11L29 11L29 8L28 8L28 9L26 9L26 8L25 8L25 9L24 9L24 10L25 10L25 11L24 11L24 12L23 12L23 10L22 10L22 8L19 8L19 10L16 10L16 11L15 11L15 10L13 10L13 9L14 9L14 8L15 8L15 5L14 5L14 7L13 7L13 5L12 5L12 3ZM13 3L13 4L15 4L15 3ZM8 6L8 7L9 7L9 6ZM11 6L11 7L12 7L12 8L11 8L11 9L12 9L12 8L13 8L13 7L12 7L12 6ZM16 6L16 8L17 8L17 6ZM25 9L25 10L26 10L26 11L28 11L28 10L26 10L26 9ZM11 10L11 11L12 11L12 13L13 13L13 12L14 12L14 13L15 13L15 17L14 17L14 18L13 18L13 19L14 19L14 21L13 21L13 20L12 20L12 21L11 21L11 23L9 23L9 25L11 25L11 23L12 23L12 22L14 22L14 23L15 23L15 24L16 24L16 27L17 27L17 24L18 24L18 23L20 23L20 22L17 22L17 24L16 24L16 23L15 23L15 22L16 22L16 21L20 21L20 20L21 20L21 19L22 19L22 18L23 18L23 19L24 19L24 20L25 20L25 19L27 19L27 18L26 18L26 17L24 17L24 16L25 16L25 15L24 15L24 14L23 14L23 15L22 15L22 14L21 14L21 13L20 13L20 14L19 14L19 15L20 15L20 16L19 16L19 17L20 17L20 18L18 18L18 16L17 16L17 19L18 19L18 20L16 20L16 19L14 19L14 18L16 18L16 14L17 14L17 15L18 15L18 14L17 14L17 13L15 13L15 11L13 11L13 10ZM16 11L16 12L18 12L18 11ZM19 11L19 12L20 12L20 11ZM21 11L21 12L22 12L22 11ZM6 13L6 14L7 14L7 15L6 15L6 16L7 16L7 17L5 17L5 20L7 20L7 19L8 19L8 18L7 18L7 17L8 17L8 14L7 14L7 13ZM9 14L9 15L10 15L10 14ZM12 14L12 15L11 15L11 17L10 17L10 16L9 16L9 19L11 19L11 17L13 17L13 16L12 16L12 15L14 15L14 14ZM20 14L20 15L21 15L21 14ZM28 14L28 15L27 15L27 16L28 16L28 17L29 17L29 14ZM23 15L23 16L22 16L22 17L23 17L23 18L24 18L24 19L25 19L25 18L24 18L24 17L23 17L23 16L24 16L24 15ZM1 18L1 19L2 19L2 20L3 20L3 19L2 19L2 18ZM6 18L6 19L7 19L7 18ZM19 19L19 20L20 20L20 19ZM15 20L15 21L16 21L16 20ZM21 21L21 24L24 24L24 21ZM22 22L22 23L23 23L23 22ZM19 24L19 26L18 26L18 28L19 28L19 26L20 26L20 24ZM27 26L27 27L28 27L28 26ZM11 28L11 29L12 29L12 28ZM13 28L13 29L14 29L14 28ZM0 0L0 7L7 7L7 0ZM1 1L1 6L6 6L6 1ZM2 2L2 5L5 5L5 2ZM22 0L22 7L29 7L29 0ZM23 1L23 6L28 6L28 1ZM24 2L24 5L27 5L27 2ZM0 22L0 29L7 29L7 22ZM1 23L1 28L6 28L6 23ZM2 24L2 27L5 27L5 24Z" fill="#000000"/></g></g></svg>
