<?xml version="1.0" encoding="UTF-8"?>
<svg xmlns="http://www.w3.org/2000/svg" version="1.1" width="200" height="200" viewBox="0 0 200 200"><rect x="0" y="0" width="200" height="200" fill="#ffffff"/><g transform="scale(4.878)"><g transform="translate(0,0)"><path fill-rule="evenodd" d="M8 0L8 3L9 3L9 5L8 5L8 10L6 10L6 9L7 9L7 8L6 8L6 9L5 9L5 8L2 8L2 9L5 9L5 10L6 10L6 11L7 11L7 12L5 12L5 13L4 13L4 14L5 14L5 16L6 16L6 17L7 17L7 16L9 16L9 15L8 15L8 14L5 14L5 13L7 13L7 12L9 12L9 13L10 13L10 16L11 16L11 13L13 13L13 11L14 11L14 13L16 13L16 14L17 14L17 12L18 12L18 13L19 13L19 12L20 12L20 18L21 18L21 19L17 19L17 18L16 18L16 17L15 17L15 16L14 16L14 15L12 15L12 16L14 16L14 17L11 17L11 18L10 18L10 17L9 17L9 18L10 18L10 19L7 19L7 18L6 18L6 19L5 19L5 20L4 20L4 18L2 18L2 19L1 19L1 20L0 20L0 21L1 21L1 20L3 20L3 21L2 21L2 22L0 22L0 24L3 24L3 26L4 26L4 28L3 28L3 27L2 27L2 26L0 26L0 27L1 27L1 28L0 28L0 33L1 33L1 29L2 29L2 32L3 32L3 33L5 33L5 32L6 32L6 33L8 33L8 34L9 34L9 35L10 35L10 36L8 36L8 39L10 39L10 37L11 37L11 35L12 35L12 37L15 37L15 38L16 38L16 39L15 39L15 40L14 40L14 39L13 39L13 38L12 38L12 41L13 41L13 40L14 40L14 41L16 41L16 40L17 40L17 39L19 39L19 40L18 40L18 41L19 41L19 40L20 40L20 41L22 41L22 40L24 40L24 41L26 41L26 40L25 40L25 39L22 39L22 38L26 38L26 39L28 39L28 38L27 38L27 37L29 37L29 38L30 38L30 39L32 39L32 40L27 40L27 41L32 41L32 40L33 40L33 41L34 41L34 40L33 40L33 39L32 39L32 37L33 37L33 38L34 38L34 39L35 39L35 40L36 40L36 39L37 39L37 40L40 40L40 38L41 38L41 36L37 36L37 32L38 32L38 34L39 34L39 35L40 35L40 34L41 34L41 33L40 33L40 32L38 32L38 31L37 31L37 30L38 30L38 29L36 29L36 28L38 28L38 26L39 26L39 27L40 27L40 28L39 28L39 31L40 31L40 30L41 30L41 29L40 29L40 28L41 28L41 27L40 27L40 26L41 26L41 23L39 23L39 24L40 24L40 26L39 26L39 25L34 25L34 24L32 24L32 23L34 23L34 22L35 22L35 23L36 23L36 24L37 24L37 22L38 22L38 21L39 21L39 20L36 20L36 19L35 19L35 17L36 17L36 18L37 18L37 19L38 19L38 18L37 18L37 17L39 17L39 16L37 16L37 15L36 15L36 14L37 14L37 13L36 13L36 14L35 14L35 17L34 17L34 16L33 16L33 17L30 17L30 16L29 16L29 15L28 15L28 16L29 16L29 17L30 17L30 19L31 19L31 18L32 18L32 20L33 20L33 21L31 21L31 20L30 20L30 21L31 21L31 22L29 22L29 21L28 21L28 20L29 20L29 19L28 19L28 18L27 18L27 19L25 19L25 20L27 20L27 21L26 21L26 22L25 22L25 24L24 24L24 25L23 25L23 26L20 26L20 27L19 27L19 28L18 28L18 25L19 25L19 24L20 24L20 25L22 25L22 24L21 24L21 21L22 21L22 23L24 23L24 22L23 22L23 21L24 21L24 18L25 18L25 16L27 16L27 15L25 15L25 16L24 16L24 14L25 14L25 13L26 13L26 14L30 14L30 15L31 15L31 12L32 12L32 13L33 13L33 14L32 14L32 15L34 15L34 13L35 13L35 11L36 11L36 12L38 12L38 11L39 11L39 13L38 13L38 14L39 14L39 15L40 15L40 14L41 14L41 13L40 13L40 12L41 12L41 11L40 11L40 10L41 10L41 8L38 8L38 9L40 9L40 10L37 10L37 9L36 9L36 8L33 8L33 6L32 6L32 8L33 8L33 9L31 9L31 8L27 8L27 6L28 6L28 7L29 7L29 5L27 5L27 4L26 4L26 5L25 5L25 4L23 4L23 2L25 2L25 0L24 0L24 1L23 1L23 0L19 0L19 1L18 1L18 7L19 7L19 6L20 6L20 7L21 7L21 8L18 8L18 9L17 9L17 8L16 8L16 7L17 7L17 4L16 4L16 3L15 3L15 4L14 4L14 3L13 3L13 2L15 2L15 1L11 1L11 2L10 2L10 3L9 3L9 0ZM16 0L16 2L17 2L17 0ZM26 0L26 1L27 1L27 2L26 2L26 3L28 3L28 4L29 4L29 3L31 3L31 2L30 2L30 0L29 0L29 1L27 1L27 0ZM31 0L31 1L32 1L32 2L33 2L33 1L32 1L32 0ZM22 1L22 2L19 2L19 4L20 4L20 3L22 3L22 2L23 2L23 1ZM11 3L11 4L10 4L10 5L11 5L11 8L10 8L10 9L9 9L9 11L10 11L10 10L11 10L11 11L12 11L12 10L13 10L13 7L14 7L14 6L13 6L13 7L12 7L12 5L11 5L11 4L12 4L12 3ZM32 3L32 4L30 4L30 7L31 7L31 5L32 5L32 4L33 4L33 3ZM15 4L15 7L16 7L16 4ZM20 5L20 6L21 6L21 7L22 7L22 8L23 8L23 9L22 9L22 10L21 10L21 9L19 9L19 10L21 10L21 11L20 11L20 12L21 12L21 11L24 11L24 10L25 10L25 11L26 11L26 13L27 13L27 12L28 12L28 13L29 13L29 12L31 12L31 11L34 11L34 9L33 9L33 10L31 10L31 9L30 9L30 10L29 10L29 9L27 9L27 10L25 10L25 9L24 9L24 8L23 8L23 7L24 7L24 6L25 6L25 8L26 8L26 6L27 6L27 5L26 5L26 6L25 6L25 5L23 5L23 7L22 7L22 6L21 6L21 5ZM9 6L9 7L10 7L10 6ZM11 8L11 9L12 9L12 8ZM14 8L14 9L15 9L15 11L17 11L17 10L16 10L16 8ZM0 9L0 11L1 11L1 12L2 12L2 13L1 13L1 14L0 14L0 15L1 15L1 17L0 17L0 18L1 18L1 17L2 17L2 16L3 16L3 15L1 15L1 14L2 14L2 13L3 13L3 12L2 12L2 11L3 11L3 10L1 10L1 9ZM23 9L23 10L24 10L24 9ZM35 9L35 10L36 10L36 11L37 11L37 10L36 10L36 9ZM27 10L27 11L28 11L28 12L29 12L29 10ZM30 10L30 11L31 11L31 10ZM10 12L10 13L11 13L11 12ZM33 12L33 13L34 13L34 12ZM21 13L21 14L24 14L24 13ZM39 13L39 14L40 14L40 13ZM18 14L18 15L17 15L17 17L18 17L18 18L19 18L19 17L18 17L18 15L19 15L19 14ZM6 15L6 16L7 16L7 15ZM21 16L21 18L22 18L22 16ZM36 16L36 17L37 17L37 16ZM40 16L40 18L39 18L39 19L40 19L40 18L41 18L41 16ZM23 17L23 18L24 18L24 17ZM12 18L12 20L7 20L7 19L6 19L6 20L5 20L5 22L2 22L2 23L5 23L5 25L4 25L4 26L5 26L5 25L6 25L6 26L8 26L8 27L5 27L5 28L4 28L4 29L3 29L3 28L2 28L2 29L3 29L3 32L4 32L4 30L5 30L5 28L7 28L7 29L6 29L6 30L9 30L9 29L10 29L10 28L11 28L11 26L12 26L12 27L13 27L13 26L14 26L14 27L15 27L15 26L16 26L16 25L15 25L15 26L14 26L14 24L12 24L12 23L11 23L11 22L10 22L10 21L12 21L12 20L13 20L13 18ZM14 18L14 21L15 21L15 20L16 20L16 22L15 22L15 24L16 24L16 23L18 23L18 24L19 24L19 23L20 23L20 21L21 21L21 20L20 20L20 21L19 21L19 20L18 20L18 22L17 22L17 20L16 20L16 18ZM33 18L33 20L34 20L34 21L33 21L33 22L34 22L34 21L35 21L35 22L36 22L36 21L35 21L35 19L34 19L34 18ZM22 19L22 20L23 20L23 19ZM27 19L27 20L28 20L28 19ZM6 20L6 21L7 21L7 22L6 22L6 23L8 23L8 22L9 22L9 23L10 23L10 22L9 22L9 21L7 21L7 20ZM40 20L40 21L41 21L41 20ZM27 21L27 22L26 22L26 23L27 23L27 22L28 22L28 23L29 23L29 24L30 24L30 23L29 23L29 22L28 22L28 21ZM13 22L13 23L14 23L14 22ZM31 22L31 23L32 23L32 22ZM6 24L6 25L8 25L8 26L9 26L9 27L8 27L8 29L9 29L9 28L10 28L10 26L11 26L11 25L12 25L12 26L13 26L13 25L12 25L12 24ZM31 24L31 25L30 25L30 26L29 26L29 25L27 25L27 26L28 26L28 28L30 28L30 29L28 29L28 30L30 30L30 31L28 31L28 33L27 33L27 32L26 32L26 33L25 33L25 31L26 31L26 29L25 29L25 26L26 26L26 25L25 25L25 26L23 26L23 28L24 28L24 29L22 29L22 28L21 28L21 27L20 27L20 28L21 28L21 29L20 29L20 30L21 30L21 32L20 32L20 31L18 31L18 33L15 33L15 34L14 34L14 32L13 32L13 33L12 33L12 32L11 32L11 31L10 31L10 32L11 32L11 34L10 34L10 35L11 35L11 34L13 34L13 35L14 35L14 36L15 36L15 35L16 35L16 38L18 38L18 37L17 37L17 34L18 34L18 35L20 35L20 36L21 36L21 37L19 37L19 38L21 38L21 37L25 37L25 36L23 36L23 34L24 34L24 33L25 33L25 34L26 34L26 37L27 37L27 34L28 34L28 33L29 33L29 32L30 32L30 33L31 33L31 34L30 34L30 35L31 35L31 34L32 34L32 33L31 33L31 32L30 32L30 31L31 31L31 30L32 30L32 31L33 31L33 32L35 32L35 31L34 31L34 30L36 30L36 29L35 29L35 28L36 28L36 27L37 27L37 26L34 26L34 25L32 25L32 24ZM9 25L9 26L10 26L10 25ZM31 25L31 26L32 26L32 27L34 27L34 26L32 26L32 25ZM12 28L12 29L13 29L13 30L14 30L14 29L13 29L13 28ZM16 28L16 29L17 29L17 30L18 30L18 28ZM31 28L31 29L30 29L30 30L31 30L31 29L32 29L32 30L33 30L33 29L34 29L34 28L33 28L33 29L32 29L32 28ZM21 29L21 30L22 30L22 31L23 31L23 30L22 30L22 29ZM24 29L24 31L25 31L25 29ZM15 30L15 31L16 31L16 30ZM6 31L6 32L9 32L9 31ZM22 32L22 33L23 33L23 32ZM19 33L19 34L20 34L20 35L21 35L21 36L22 36L22 35L21 35L21 33ZM26 33L26 34L27 34L27 33ZM33 33L33 36L36 36L36 33ZM34 34L34 35L35 35L35 34ZM28 35L28 36L29 36L29 37L32 37L32 36L29 36L29 35ZM34 37L34 38L36 38L36 37ZM37 38L37 39L38 39L38 38ZM20 39L20 40L21 40L21 39ZM9 40L9 41L11 41L11 40ZM0 0L0 7L7 7L7 0ZM1 1L1 6L6 6L6 1ZM2 2L2 5L5 5L5 2ZM34 0L34 7L41 7L41 0ZM35 1L35 6L40 6L40 1ZM36 2L36 5L39 5L39 2ZM0 34L0 41L7 41L7 34ZM1 35L1 40L6 40L6 35ZM2 36L2 39L5 39L5 36Z" fill="#000000"/></g></g></svg>
