<?xml version="1.0" encoding="UTF-8"?>
<svg xmlns="http://www.w3.org/2000/svg" version="1.1" width="200" height="200" viewBox="0 0 200 200"><rect x="0" y="0" width="200" height="200" fill="#ffffff"/><g transform="scale(6.897)"><g transform="translate(0,0)"><path fill-rule="evenodd" d="M8 0L8 1L9 1L9 3L8 3L8 4L9 4L9 5L10 5L10 9L9 9L9 8L8 8L8 10L6 10L6 9L7 9L7 8L4 8L4 9L5 9L5 10L3 10L3 11L2 11L2 9L3 9L3 8L2 8L2 9L1 9L1 10L0 10L0 11L1 11L1 12L3 12L3 11L5 11L5 10L6 10L6 11L8 11L8 10L10 10L10 9L11 9L11 8L12 8L12 10L14 10L14 11L11 11L11 13L10 13L10 12L9 12L9 13L10 13L10 14L9 14L9 15L10 15L10 16L9 16L9 18L8 18L8 16L6 16L6 15L8 15L8 14L6 14L6 13L8 13L8 12L4 12L4 13L5 13L5 14L6 14L6 15L5 15L5 16L3 16L3 17L2 17L2 19L1 19L1 18L0 18L0 19L1 19L1 20L0 20L0 21L1 21L1 20L2 20L2 19L3 19L3 20L4 20L4 21L8 21L8 22L9 22L9 23L8 23L8 25L9 25L9 26L8 26L8 27L9 27L9 28L10 28L10 29L11 29L11 28L12 28L12 27L13 27L13 29L14 29L14 27L13 27L13 26L15 26L15 24L16 24L16 25L17 25L17 23L19 23L19 24L20 24L20 26L19 26L19 28L18 28L18 26L16 26L16 27L17 27L17 29L20 29L20 27L21 27L21 26L22 26L22 25L23 25L23 26L24 26L24 25L25 25L25 26L26 26L26 27L27 27L27 28L28 28L28 29L29 29L29 26L28 26L28 25L29 25L29 23L28 23L28 25L27 25L27 24L26 24L26 23L25 23L25 20L24 20L24 19L25 19L25 18L24 18L24 17L26 17L26 18L27 18L27 19L26 19L26 21L27 21L27 22L28 22L28 19L29 19L29 18L27 18L27 17L26 17L26 14L24 14L24 13L25 13L25 11L26 11L26 13L27 13L27 14L28 14L28 15L27 15L27 16L28 16L28 17L29 17L29 16L28 16L28 15L29 15L29 14L28 14L28 13L29 13L29 12L28 12L28 11L29 11L29 8L28 8L28 9L26 9L26 8L25 8L25 9L24 9L24 10L25 10L25 11L24 11L24 12L23 12L23 10L22 10L22 8L19 8L19 11L20 11L20 12L18 12L18 10L17 10L17 12L16 12L16 9L17 9L17 8L16 8L16 7L17 7L17 5L18 5L18 7L19 7L19 5L20 5L20 7L21 7L21 0L20 0L20 1L19 1L19 2L20 2L20 3L19 3L19 5L18 5L18 3L17 3L17 2L18 2L18 1L17 1L17 2L16 2L16 1L15 1L15 0L13 0L13 1L11 1L11 2L10 2L10 1L9 1L9 0ZM14 1L14 2L13 2L13 4L14 4L14 2L15 2L15 1ZM15 3L15 7L16 7L16 5L17 5L17 4L16 4L16 3ZM10 4L10 5L11 5L11 7L12 7L12 8L14 8L14 6L13 6L13 5L11 5L11 4ZM8 6L8 7L9 7L9 6ZM12 6L12 7L13 7L13 6ZM14 9L14 10L15 10L15 9ZM25 9L25 10L26 10L26 11L28 11L28 10L26 10L26 9ZM21 11L21 12L22 12L22 11ZM27 12L27 13L28 13L28 12ZM1 13L1 16L2 16L2 15L3 15L3 14L2 14L2 13ZM11 13L11 16L10 16L10 18L11 18L11 16L12 16L12 15L13 15L13 17L12 17L12 19L9 19L9 20L10 20L10 21L9 21L9 22L10 22L10 23L9 23L9 24L11 24L11 22L12 22L12 23L13 23L13 24L12 24L12 25L10 25L10 26L12 26L12 25L14 25L14 23L15 23L15 22L16 22L16 23L17 23L17 22L16 22L16 21L17 21L17 20L16 20L16 19L17 19L17 18L16 18L16 17L15 17L15 18L13 18L13 17L14 17L14 16L15 16L15 15L17 15L17 16L18 16L18 19L20 19L20 20L18 20L18 22L19 22L19 23L20 23L20 22L19 22L19 21L20 21L20 20L21 20L21 19L22 19L22 18L23 18L23 19L24 19L24 18L23 18L23 17L24 17L24 16L25 16L25 15L24 15L24 14L23 14L23 15L22 15L22 14L21 14L21 13L20 13L20 14L19 14L19 13L18 13L18 14L15 14L15 13L13 13L13 14L12 14L12 13ZM18 14L18 15L19 15L19 16L20 16L20 15L21 15L21 14L20 14L20 15L19 15L19 14ZM23 15L23 16L22 16L22 17L23 17L23 16L24 16L24 15ZM5 17L5 19L4 19L4 18L3 18L3 19L4 19L4 20L5 20L5 19L6 19L6 20L8 20L8 19L6 19L6 18L7 18L7 17ZM19 17L19 18L20 18L20 17ZM15 18L15 19L16 19L16 18ZM13 19L13 21L12 21L12 22L13 22L13 23L14 23L14 22L15 22L15 20L14 20L14 19ZM21 21L21 24L24 24L24 21ZM22 22L22 23L23 23L23 22ZM27 26L27 27L28 27L28 26ZM22 27L22 28L23 28L23 29L26 29L26 28L23 28L23 27ZM15 28L15 29L16 29L16 28ZM0 0L0 7L7 7L7 0ZM1 1L1 6L6 6L6 1ZM2 2L2 5L5 5L5 2ZM22 0L22 7L29 7L29 0ZM23 1L23 6L28 6L28 1ZM24 2L24 5L27 5L27 2ZM0 22L0 29L7 29L7 22ZM1 23L1 28L6 28L6 23ZM2 24L2 27L5 27L5 24Z" fill="#000000"/></g></g></svg>
