<?xml version="1.0" encoding="UTF-8"?>
<svg xmlns="http://www.w3.org/2000/svg" version="1.1" width="200" height="200" viewBox="0 0 200 200"><rect x="0" y="0" width="200" height="200" fill="#ffffff"/><g transform="scale(4.878)"><g transform="translate(0,0)"><path fill-rule="evenodd" d="M8 0L8 3L9 3L9 5L8 5L8 10L6 10L6 9L7 9L7 8L6 8L6 9L5 9L5 8L2 8L2 9L0 9L0 11L1 11L1 12L0 12L0 14L1 14L1 13L3 13L3 12L4 12L4 11L5 11L5 12L6 12L6 13L4 13L4 14L2 14L2 17L3 17L3 16L4 16L4 19L2 19L2 18L1 18L1 17L0 17L0 18L1 18L1 20L0 20L0 21L2 21L2 23L3 23L3 24L0 24L0 25L1 25L1 26L0 26L0 33L1 33L1 28L3 28L3 29L2 29L2 31L4 31L4 32L2 32L2 33L4 33L4 32L5 32L5 33L8 33L8 34L10 34L10 33L8 33L8 31L9 31L9 32L12 32L12 33L11 33L11 35L9 35L9 36L8 36L8 39L10 39L10 38L11 38L11 40L9 40L9 41L13 41L13 39L14 39L14 38L13 38L13 37L14 37L14 36L15 36L15 38L16 38L16 40L17 40L17 41L18 41L18 40L21 40L21 39L20 39L20 35L22 35L22 34L25 34L25 35L26 35L26 36L27 36L27 37L29 37L29 36L27 36L27 35L28 35L28 34L25 34L25 33L26 33L26 32L27 32L27 31L26 31L26 32L25 32L25 33L22 33L22 32L24 32L24 29L25 29L25 30L29 30L29 29L30 29L30 32L29 32L29 31L28 31L28 33L30 33L30 35L31 35L31 36L30 36L30 37L31 37L31 36L32 36L32 38L31 38L31 40L28 40L28 39L29 39L29 38L27 38L27 39L26 39L26 41L31 41L31 40L33 40L33 41L34 41L34 40L33 40L33 39L32 39L32 38L34 38L34 39L35 39L35 40L36 40L36 39L37 39L37 38L38 38L38 39L39 39L39 40L40 40L40 38L41 38L41 37L39 37L39 36L41 36L41 35L40 35L40 34L41 34L41 33L40 33L40 32L41 32L41 31L40 31L40 30L41 30L41 29L39 29L39 30L37 30L37 29L35 29L35 28L38 28L38 26L39 26L39 28L40 28L40 26L41 26L41 23L40 23L40 26L39 26L39 24L37 24L37 25L34 25L34 24L36 24L36 23L34 23L34 22L36 22L36 21L37 21L37 23L39 23L39 22L38 22L38 21L39 21L39 20L38 20L38 19L37 19L37 20L36 20L36 19L35 19L35 17L36 17L36 18L38 18L38 17L39 17L39 16L38 16L38 15L36 15L36 16L35 16L35 17L34 17L34 16L33 16L33 15L34 15L34 14L33 14L33 13L34 13L34 12L33 12L33 11L34 11L34 10L35 10L35 9L36 9L36 10L37 10L37 11L36 11L36 12L38 12L38 11L39 11L39 13L38 13L38 14L41 14L41 13L40 13L40 10L41 10L41 8L38 8L38 9L40 9L40 10L37 10L37 9L36 9L36 8L33 8L33 5L32 5L32 4L33 4L33 3L30 3L30 4L31 4L31 5L29 5L29 4L28 4L28 5L26 5L26 4L27 4L27 3L29 3L29 1L27 1L27 0L24 0L24 1L23 1L23 2L25 2L25 3L23 3L23 4L22 4L22 8L23 8L23 11L24 11L24 9L25 9L25 11L28 11L28 10L29 10L29 11L30 11L30 12L27 12L27 15L25 15L25 13L26 13L26 12L25 12L25 13L24 13L24 12L22 12L22 10L21 10L21 13L22 13L22 14L19 14L19 15L18 15L18 14L17 14L17 13L16 13L16 12L18 12L18 13L20 13L20 12L18 12L18 11L19 11L19 10L20 10L20 9L21 9L21 8L20 8L20 7L21 7L21 5L20 5L20 7L19 7L19 6L18 6L18 7L17 7L17 6L16 6L16 5L18 5L18 4L21 4L21 3L22 3L22 1L20 1L20 0L19 0L19 1L17 1L17 3L15 3L15 2L14 2L14 1L15 1L15 0L14 0L14 1L11 1L11 0ZM31 0L31 1L30 1L30 2L31 2L31 1L32 1L32 0ZM10 1L10 5L9 5L9 9L10 9L10 11L9 11L9 10L8 10L8 11L6 11L6 12L7 12L7 13L6 13L6 14L7 14L7 15L6 15L6 16L7 16L7 17L6 17L6 18L7 18L7 19L6 19L6 20L5 20L5 19L4 19L4 20L3 20L3 21L6 21L6 22L5 22L5 24L4 24L4 25L3 25L3 28L4 28L4 31L5 31L5 32L7 32L7 31L8 31L8 29L9 29L9 30L11 30L11 31L12 31L12 32L13 32L13 31L12 31L12 30L11 30L11 29L13 29L13 30L14 30L14 31L17 31L17 32L20 32L20 31L18 31L18 30L19 30L19 29L18 29L18 28L19 28L19 26L18 26L18 25L19 25L19 24L23 24L23 26L22 26L22 25L20 25L20 27L23 27L23 29L24 29L24 28L25 28L25 29L27 29L27 28L28 28L28 29L29 29L29 28L30 28L30 29L31 29L31 32L30 32L30 33L31 33L31 34L32 34L32 32L39 32L39 31L34 31L34 30L35 30L35 29L34 29L34 28L33 28L33 27L34 27L34 25L32 25L32 26L28 26L28 25L29 25L29 24L30 24L30 25L31 25L31 24L34 24L34 23L32 23L32 22L34 22L34 21L36 21L36 20L35 20L35 19L34 19L34 18L33 18L33 17L32 17L32 18L31 18L31 17L30 17L30 19L31 19L31 20L29 20L29 16L30 16L30 13L28 13L28 14L29 14L29 15L28 15L28 17L27 17L27 18L26 18L26 19L27 19L27 18L28 18L28 20L27 20L27 22L28 22L28 21L29 21L29 22L30 22L30 21L32 21L32 22L31 22L31 24L30 24L30 23L29 23L29 24L28 24L28 23L26 23L26 22L25 22L25 25L27 25L27 26L28 26L28 27L26 27L26 26L24 26L24 24L23 24L23 23L24 23L24 22L23 22L23 23L22 23L22 22L21 22L21 21L26 21L26 20L25 20L25 17L26 17L26 16L25 16L25 15L24 15L24 16L23 16L23 15L22 15L22 16L19 16L19 17L18 17L18 16L16 16L16 15L17 15L17 14L16 14L16 15L15 15L15 14L14 14L14 15L13 15L13 13L15 13L15 12L13 12L13 10L12 10L12 9L10 9L10 8L13 8L13 9L15 9L15 10L14 10L14 11L16 11L16 9L17 9L17 11L18 11L18 9L17 9L17 8L16 8L16 6L15 6L15 5L16 5L16 4L15 4L15 3L14 3L14 2L12 2L12 3L11 3L11 1ZM18 2L18 3L17 3L17 4L18 4L18 3L19 3L19 2ZM20 2L20 3L21 3L21 2ZM26 2L26 3L25 3L25 4L23 4L23 5L25 5L25 4L26 4L26 3L27 3L27 2ZM12 3L12 5L11 5L11 6L10 6L10 7L11 7L11 6L12 6L12 7L13 7L13 5L14 5L14 3ZM28 5L28 6L27 6L27 8L25 8L25 7L26 7L26 6L25 6L25 7L24 7L24 6L23 6L23 8L25 8L25 9L26 9L26 10L28 10L28 9L29 9L29 10L30 10L30 11L31 11L31 14L32 14L32 15L33 15L33 14L32 14L32 13L33 13L33 12L32 12L32 10L34 10L34 9L32 9L32 5L31 5L31 9L29 9L29 8L30 8L30 6L29 6L29 5ZM14 6L14 8L15 8L15 6ZM28 6L28 7L29 7L29 6ZM18 7L18 8L19 8L19 7ZM27 8L27 9L28 9L28 8ZM2 9L2 10L3 10L3 11L4 11L4 10L3 10L3 9ZM31 9L31 10L32 10L32 9ZM8 11L8 15L10 15L10 16L8 16L8 17L7 17L7 18L9 18L9 20L8 20L8 25L7 25L7 24L5 24L5 25L4 25L4 27L5 27L5 25L7 25L7 26L6 26L6 27L7 27L7 28L5 28L5 29L7 29L7 28L9 28L9 29L10 29L10 28L9 28L9 27L8 27L8 25L9 25L9 24L10 24L10 27L11 27L11 28L12 28L12 27L13 27L13 26L16 26L16 28L17 28L17 27L18 27L18 26L17 26L17 25L15 25L15 23L14 23L14 25L13 25L13 26L12 26L12 27L11 27L11 24L13 24L13 23L11 23L11 22L12 22L12 21L13 21L13 22L14 22L14 20L13 20L13 19L12 19L12 18L14 18L14 19L15 19L15 21L17 21L17 22L19 22L19 23L17 23L17 24L19 24L19 23L20 23L20 20L22 20L22 18L23 18L23 20L24 20L24 18L23 18L23 17L22 17L22 18L21 18L21 17L19 17L19 19L17 19L17 18L18 18L18 17L16 17L16 16L14 16L14 17L13 17L13 16L12 16L12 15L10 15L10 14L12 14L12 13L11 13L11 12L9 12L9 11ZM23 13L23 14L24 14L24 13ZM36 13L36 14L37 14L37 13ZM4 15L4 16L5 16L5 15ZM11 16L11 18L10 18L10 17L9 17L9 18L10 18L10 20L11 20L11 21L12 21L12 19L11 19L11 18L12 18L12 16ZM24 16L24 17L25 17L25 16ZM36 16L36 17L38 17L38 16ZM40 16L40 18L39 18L39 19L40 19L40 18L41 18L41 16ZM14 17L14 18L15 18L15 17ZM20 18L20 19L21 19L21 18ZM32 18L32 19L33 19L33 18ZM16 19L16 20L17 20L17 21L19 21L19 20L17 20L17 19ZM6 20L6 21L7 21L7 20ZM32 20L32 21L34 21L34 20ZM37 20L37 21L38 21L38 20ZM40 20L40 21L41 21L41 20ZM6 22L6 23L7 23L7 22ZM9 22L9 23L10 23L10 24L11 24L11 23L10 23L10 22ZM27 24L27 25L28 25L28 24ZM32 28L32 29L33 29L33 30L32 30L32 31L33 31L33 30L34 30L34 29L33 29L33 28ZM14 29L14 30L15 30L15 29ZM16 29L16 30L18 30L18 29ZM21 29L21 31L22 31L22 29ZM6 30L6 31L7 31L7 30ZM12 33L12 34L13 34L13 33ZM15 33L15 34L14 34L14 35L13 35L13 36L12 36L12 35L11 35L11 38L12 38L12 37L13 37L13 36L14 36L14 35L15 35L15 36L17 36L17 35L18 35L18 34L22 34L22 33L18 33L18 34L16 34L16 33ZM33 33L33 36L36 36L36 33ZM38 33L38 34L37 34L37 35L38 35L38 36L37 36L37 37L38 37L38 38L39 38L39 37L38 37L38 36L39 36L39 33ZM34 34L34 35L35 35L35 34ZM23 35L23 36L22 36L22 37L21 37L21 38L22 38L22 37L23 37L23 38L24 38L24 39L22 39L22 41L25 41L25 36L24 36L24 35ZM18 36L18 37L17 37L17 38L19 38L19 36ZM34 37L34 38L36 38L36 37ZM17 39L17 40L18 40L18 39ZM0 0L0 7L7 7L7 0ZM1 1L1 6L6 6L6 1ZM2 2L2 5L5 5L5 2ZM34 0L34 7L41 7L41 0ZM35 1L35 6L40 6L40 1ZM36 2L36 5L39 5L39 2ZM0 34L0 41L7 41L7 34ZM1 35L1 40L6 40L6 35ZM2 36L2 39L5 39L5 36Z" fill="#000000"/></g></g></svg>
