<?xml version="1.0" encoding="UTF-8"?>
<svg xmlns="http://www.w3.org/2000/svg" version="1.1" width="200" height="200" viewBox="0 0 200 200"><rect x="0" y="0" width="200" height="200" fill="#ffffff"/><g transform="scale(4.878)"><g transform="translate(0,0)"><path fill-rule="evenodd" d="M8 0L8 3L9 3L9 5L8 5L8 9L10 9L10 8L12 8L12 9L15 9L15 8L13 8L13 6L14 6L14 7L15 7L15 6L16 6L16 9L17 9L17 11L16 11L16 10L15 10L15 11L14 11L14 10L13 10L13 12L15 12L15 13L13 13L13 14L12 14L12 18L11 18L11 17L10 17L10 20L9 20L9 22L6 22L6 23L7 23L7 24L6 24L6 25L7 25L7 26L6 26L6 27L7 27L7 26L8 26L8 28L9 28L9 29L7 29L7 28L6 28L6 29L7 29L7 30L6 30L6 31L7 31L7 30L8 30L8 32L6 32L6 33L8 33L8 34L10 34L10 35L9 35L9 36L8 36L8 39L9 39L9 41L11 41L11 39L12 39L12 41L13 41L13 38L15 38L15 40L18 40L18 41L21 41L21 39L22 39L22 40L23 40L23 38L24 38L24 39L25 39L25 40L24 40L24 41L25 41L25 40L28 40L28 41L31 41L31 40L33 40L33 41L34 41L34 40L33 40L33 39L31 39L31 38L34 38L34 39L35 39L35 40L36 40L36 39L37 39L37 38L38 38L38 39L39 39L39 40L40 40L40 38L41 38L41 37L40 37L40 36L38 36L38 33L39 33L39 35L40 35L40 34L41 34L41 33L39 33L39 32L40 32L40 30L41 30L41 29L39 29L39 30L38 30L38 31L36 31L36 32L32 32L32 33L31 33L31 32L29 32L29 31L28 31L28 33L31 33L31 34L30 34L30 35L32 35L32 37L31 37L31 36L30 36L30 37L31 37L31 38L27 38L27 37L29 37L29 34L26 34L26 35L25 35L25 33L24 33L24 34L23 34L23 35L22 35L22 32L23 32L23 31L22 31L22 30L23 30L23 29L25 29L25 30L24 30L24 31L25 31L25 30L29 30L29 29L33 29L33 30L32 30L32 31L33 31L33 30L34 30L34 31L35 31L35 30L37 30L37 29L35 29L35 26L37 26L37 27L36 27L36 28L38 28L38 26L39 26L39 28L40 28L40 26L41 26L41 23L40 23L40 26L39 26L39 24L37 24L37 25L34 25L34 24L31 24L31 25L30 25L30 24L29 24L29 23L31 23L31 22L32 22L32 23L35 23L35 24L36 24L36 23L35 23L35 22L36 22L36 21L37 21L37 23L38 23L38 21L39 21L39 20L36 20L36 19L35 19L35 17L36 17L36 18L37 18L37 19L38 19L38 18L37 18L37 17L39 17L39 18L41 18L41 16L40 16L40 17L39 17L39 16L37 16L37 15L36 15L36 16L35 16L35 17L34 17L34 16L33 16L33 15L34 15L34 14L33 14L33 13L34 13L34 12L33 12L33 13L32 13L32 14L31 14L31 12L32 12L32 11L31 11L31 12L28 12L28 11L29 11L29 10L26 10L26 11L25 11L25 10L24 10L24 9L23 9L23 8L25 8L25 9L31 9L31 10L33 10L33 11L34 11L34 10L35 10L35 9L36 9L36 10L37 10L37 11L35 11L35 12L38 12L38 11L40 11L40 10L41 10L41 8L38 8L38 9L40 9L40 10L37 10L37 9L36 9L36 8L33 8L33 9L31 9L31 8L26 8L26 7L27 7L27 6L28 6L28 7L29 7L29 6L28 6L28 5L26 5L26 7L25 7L25 6L24 6L24 7L23 7L23 6L22 6L22 5L23 5L23 4L24 4L24 3L23 3L23 2L25 2L25 3L26 3L26 4L27 4L27 3L28 3L28 4L29 4L29 1L27 1L27 0L19 0L19 2L18 2L18 1L17 1L17 0L16 0L16 2L13 2L13 0L11 0L11 1L10 1L10 0ZM14 0L14 1L15 1L15 0ZM31 0L31 1L30 1L30 2L31 2L31 3L30 3L30 4L31 4L31 5L30 5L30 7L31 7L31 5L32 5L32 7L33 7L33 4L31 4L31 3L33 3L33 1L32 1L32 0ZM11 1L11 2L10 2L10 3L11 3L11 4L10 4L10 5L9 5L9 7L10 7L10 5L12 5L12 6L11 6L11 7L12 7L12 6L13 6L13 5L14 5L14 6L15 6L15 5L16 5L16 6L17 6L17 7L18 7L18 4L19 4L19 5L20 5L20 4L23 4L23 3L22 3L22 2L23 2L23 1L20 1L20 2L21 2L21 3L18 3L18 4L17 4L17 2L16 2L16 3L11 3L11 2L12 2L12 1ZM31 1L31 2L32 2L32 1ZM26 2L26 3L27 3L27 2ZM12 4L12 5L13 5L13 4ZM16 4L16 5L17 5L17 4ZM19 6L19 9L18 9L18 11L19 11L19 12L18 12L18 13L17 13L17 12L16 12L16 11L15 11L15 12L16 12L16 13L17 13L17 14L16 14L16 16L15 16L15 19L13 19L13 18L12 18L12 19L11 19L11 20L10 20L10 23L9 23L9 24L7 24L7 25L9 25L9 26L10 26L10 27L9 27L9 28L11 28L11 29L10 29L10 30L9 30L9 32L8 32L8 33L10 33L10 30L11 30L11 31L12 31L12 28L11 28L11 27L13 27L13 30L14 30L14 32L13 32L13 33L14 33L14 35L13 35L13 34L12 34L12 35L10 35L10 36L9 36L9 38L11 38L11 37L12 37L12 38L13 38L13 37L12 37L12 35L13 35L13 36L16 36L16 35L17 35L17 37L15 37L15 38L17 38L17 37L18 37L18 39L21 39L21 37L22 37L22 35L21 35L21 33L20 33L20 32L22 32L22 31L21 31L21 30L20 30L20 29L21 29L21 27L23 27L23 25L24 25L24 24L22 24L22 23L19 23L19 22L18 22L18 23L16 23L16 21L17 21L17 19L16 19L16 16L18 16L18 15L19 15L19 14L21 14L21 15L22 15L22 16L24 16L24 17L23 17L23 18L22 18L22 17L20 17L20 18L19 18L19 20L18 20L18 21L20 21L20 20L21 20L21 22L22 22L22 21L23 21L23 23L24 23L24 20L27 20L27 18L29 18L29 16L30 16L30 15L28 15L28 17L27 17L27 15L26 15L26 17L25 17L25 12L24 12L24 11L23 11L23 9L21 9L21 10L22 10L22 11L19 11L19 10L20 10L20 6ZM21 6L21 7L22 7L22 6ZM2 8L2 9L1 9L1 11L2 11L2 10L3 10L3 11L4 11L4 12L3 12L3 13L2 13L2 12L0 12L0 14L1 14L1 13L2 13L2 15L1 15L1 16L0 16L0 17L1 17L1 18L0 18L0 19L3 19L3 17L1 17L1 16L2 16L2 15L3 15L3 16L4 16L4 20L5 20L5 21L4 21L4 24L3 24L3 26L1 26L1 25L0 25L0 26L1 26L1 27L2 27L2 28L0 28L0 33L1 33L1 30L2 30L2 33L5 33L5 31L3 31L3 30L5 30L5 28L3 28L3 27L5 27L5 21L7 21L7 20L8 20L8 19L7 19L7 18L6 18L6 17L7 17L7 16L6 16L6 15L7 15L7 14L9 14L9 16L8 16L8 17L9 17L9 16L10 16L10 14L11 14L11 13L12 13L12 10L11 10L11 11L10 11L10 12L11 12L11 13L8 13L8 12L9 12L9 11L8 11L8 10L5 10L5 8ZM6 8L6 9L7 9L7 8ZM3 9L3 10L4 10L4 9ZM33 9L33 10L34 10L34 9ZM5 11L5 12L4 12L4 13L5 13L5 14L7 14L7 13L5 13L5 12L7 12L7 11ZM22 11L22 12L21 12L21 14L22 14L22 15L24 15L24 12L23 12L23 11ZM26 11L26 14L27 14L27 11ZM19 12L19 13L20 13L20 12ZM22 12L22 13L23 13L23 12ZM28 13L28 14L30 14L30 13ZM36 13L36 14L38 14L38 15L40 15L40 14L41 14L41 13L40 13L40 14L38 14L38 13ZM3 14L3 15L4 15L4 14ZM14 14L14 15L15 15L15 14ZM32 14L32 15L33 15L33 14ZM5 16L5 17L6 17L6 16ZM13 16L13 17L14 17L14 16ZM36 16L36 17L37 17L37 16ZM26 17L26 18L27 18L27 17ZM30 17L30 19L31 19L31 20L29 20L29 19L28 19L28 20L29 20L29 21L27 21L27 22L28 22L28 23L27 23L27 24L26 24L26 21L25 21L25 24L26 24L26 26L25 26L25 27L24 27L24 28L25 28L25 29L27 29L27 28L26 28L26 26L28 26L28 25L29 25L29 24L28 24L28 23L29 23L29 22L30 22L30 21L32 21L32 22L34 22L34 21L36 21L36 20L35 20L35 19L34 19L34 18L33 18L33 17L32 17L32 18L31 18L31 17ZM5 18L5 20L7 20L7 19L6 19L6 18ZM20 18L20 19L21 19L21 20L22 20L22 18ZM23 18L23 20L24 20L24 19L25 19L25 18ZM32 18L32 21L34 21L34 20L33 20L33 18ZM12 19L12 20L13 20L13 19ZM15 19L15 20L16 20L16 19ZM0 20L0 21L1 21L1 22L0 22L0 23L3 23L3 20L2 20L2 21L1 21L1 20ZM40 20L40 21L41 21L41 20ZM11 21L11 24L10 24L10 25L11 25L11 26L12 26L12 25L11 25L11 24L14 24L14 23L15 23L15 25L13 25L13 26L14 26L14 27L15 27L15 26L16 26L16 25L20 25L20 26L18 26L18 28L17 28L17 29L18 29L18 30L17 30L17 35L20 35L20 36L21 36L21 35L20 35L20 34L18 34L18 31L19 31L19 29L20 29L20 28L19 28L19 27L21 27L21 25L20 25L20 24L19 24L19 23L18 23L18 24L16 24L16 23L15 23L15 21L14 21L14 22L13 22L13 21ZM27 24L27 25L28 25L28 24ZM32 25L32 26L29 26L29 28L28 28L28 29L29 29L29 28L33 28L33 29L34 29L34 30L35 30L35 29L34 29L34 28L33 28L33 27L34 27L34 25ZM2 28L2 30L3 30L3 28ZM14 28L14 30L15 30L15 33L16 33L16 30L15 30L15 29L16 29L16 28ZM18 28L18 29L19 29L19 28ZM22 28L22 29L23 29L23 28ZM30 30L30 31L31 31L31 30ZM26 31L26 32L27 32L27 31ZM38 31L38 32L37 32L37 33L38 33L38 32L39 32L39 31ZM11 32L11 33L12 33L12 32ZM33 33L33 36L36 36L36 33ZM34 34L34 35L35 35L35 34ZM23 35L23 37L24 37L24 38L25 38L25 39L27 39L27 38L25 38L25 36L24 36L24 35ZM26 35L26 36L27 36L27 35ZM10 36L10 37L11 37L11 36ZM37 36L37 37L38 37L38 38L39 38L39 37L38 37L38 36ZM19 37L19 38L20 38L20 37ZM34 37L34 38L36 38L36 37ZM28 39L28 40L30 40L30 39ZM0 0L0 7L7 7L7 0ZM1 1L1 6L6 6L6 1ZM2 2L2 5L5 5L5 2ZM34 0L34 7L41 7L41 0ZM35 1L35 6L40 6L40 1ZM36 2L36 5L39 5L39 2ZM0 34L0 41L7 41L7 34ZM1 35L1 40L6 40L6 35ZM2 36L2 39L5 39L5 36Z" fill="#000000"/></g></g></svg>
