<?xml version="1.0" encoding="UTF-8"?>
<svg xmlns="http://www.w3.org/2000/svg" version="1.1" width="200" height="200" viewBox="0 0 200 200"><rect x="0" y="0" width="200" height="200" fill="#ffffff"/><g transform="scale(4.878)"><g transform="translate(0,0)"><path fill-rule="evenodd" d="M8 0L8 3L9 3L9 4L10 4L10 3L9 3L9 1L10 1L10 2L11 2L11 0ZM12 0L12 2L15 2L15 3L18 3L18 4L19 4L19 2L15 2L15 1L16 1L16 0L14 0L14 1L13 1L13 0ZM20 0L20 4L21 4L21 5L19 5L19 6L18 6L18 5L17 5L17 4L15 4L15 5L14 5L14 3L13 3L13 5L14 5L14 7L13 7L13 6L12 6L12 7L11 7L11 6L10 6L10 7L11 7L11 8L10 8L10 9L9 9L9 5L8 5L8 11L11 11L11 12L13 12L13 15L14 15L14 13L15 13L15 12L16 12L16 14L17 14L17 15L18 15L18 13L19 13L19 17L17 17L17 16L16 16L16 17L15 17L15 18L14 18L14 16L12 16L12 13L11 13L11 14L10 14L10 13L9 13L9 12L6 12L6 13L7 13L7 14L5 14L5 15L4 15L4 14L2 14L2 15L0 15L0 16L1 16L1 18L4 18L4 19L5 19L5 18L4 18L4 17L5 17L5 16L6 16L6 17L7 17L7 16L6 16L6 15L7 15L7 14L8 14L8 16L9 16L9 14L10 14L10 15L11 15L11 17L10 17L10 18L9 18L9 19L8 19L8 18L6 18L6 19L7 19L7 20L6 20L6 21L8 21L8 22L5 22L5 20L4 20L4 22L1 22L1 21L3 21L3 19L2 19L2 20L1 20L1 19L0 19L0 22L1 22L1 23L0 23L0 24L1 24L1 25L0 25L0 26L1 26L1 28L3 28L3 27L2 27L2 26L3 26L3 25L7 25L7 26L5 26L5 27L4 27L4 29L2 29L2 31L3 31L3 32L4 32L4 33L5 33L5 30L6 30L6 31L7 31L7 30L8 30L8 31L9 31L9 30L12 30L12 32L8 32L8 34L9 34L9 33L10 33L10 34L11 34L11 35L13 35L13 34L11 34L11 33L12 33L12 32L13 32L13 31L15 31L15 32L14 32L14 34L15 34L15 35L14 35L14 38L13 38L13 39L12 39L12 40L9 40L9 41L12 41L12 40L13 40L13 39L14 39L14 40L15 40L15 41L16 41L16 40L17 40L17 39L16 39L16 38L15 38L15 36L16 36L16 37L17 37L17 38L18 38L18 39L19 39L19 38L20 38L20 39L21 39L21 40L20 40L20 41L21 41L21 40L22 40L22 38L23 38L23 39L24 39L24 41L27 41L27 40L28 40L28 41L31 41L31 40L33 40L33 41L34 41L34 40L33 40L33 39L35 39L35 40L36 40L36 39L37 39L37 40L40 40L40 38L41 38L41 37L39 37L39 36L40 36L40 34L41 34L41 33L40 33L40 32L37 32L37 31L38 31L38 30L37 30L37 29L36 29L36 28L38 28L38 26L39 26L39 31L40 31L40 30L41 30L41 28L40 28L40 26L41 26L41 23L39 23L39 22L38 22L38 23L39 23L39 24L40 24L40 26L39 26L39 25L33 25L33 24L32 24L32 25L31 25L31 22L33 22L33 23L34 23L34 22L35 22L35 23L36 23L36 24L37 24L37 21L39 21L39 20L36 20L36 19L35 19L35 17L36 17L36 18L37 18L37 19L38 19L38 18L37 18L37 17L39 17L39 16L37 16L37 17L36 17L36 16L35 16L35 17L34 17L34 16L32 16L32 17L31 17L31 16L29 16L29 15L28 15L28 16L29 16L29 17L31 17L31 18L30 18L30 19L31 19L31 20L30 20L30 21L31 21L31 22L30 22L30 24L28 24L28 23L29 23L29 22L27 22L27 23L25 23L25 22L26 22L26 21L29 21L29 19L28 19L28 18L27 18L27 17L25 17L25 18L26 18L26 19L28 19L28 20L25 20L25 22L24 22L24 23L21 23L21 22L23 22L23 20L22 20L22 19L24 19L24 18L22 18L22 17L23 17L23 16L24 16L24 15L23 15L23 14L22 14L22 13L21 13L21 11L20 11L20 10L19 10L19 9L21 9L21 8L22 8L22 7L23 7L23 10L22 10L22 12L24 12L24 13L25 13L25 14L26 14L26 15L25 15L25 16L26 16L26 15L27 15L27 14L30 14L30 15L31 15L31 12L29 12L29 13L28 13L28 12L27 12L27 11L29 11L29 10L25 10L25 9L31 9L31 10L30 10L30 11L31 11L31 10L33 10L33 9L34 9L34 11L33 11L33 12L32 12L32 13L33 13L33 14L32 14L32 15L34 15L34 13L35 13L35 12L38 12L38 11L40 11L40 10L41 10L41 8L38 8L38 9L40 9L40 10L37 10L37 9L36 9L36 8L33 8L33 9L31 9L31 8L32 8L32 7L33 7L33 4L30 4L30 5L32 5L32 7L31 7L31 6L30 6L30 7L31 7L31 8L29 8L29 6L28 6L28 5L29 5L29 4L28 4L28 5L27 5L27 4L26 4L26 5L23 5L23 4L24 4L24 3L23 3L23 1L24 1L24 0ZM26 0L26 1L27 1L27 2L26 2L26 3L31 3L31 2L30 2L30 0L29 0L29 1L27 1L27 0ZM31 0L31 1L32 1L32 2L33 2L33 1L32 1L32 0ZM11 3L11 4L12 4L12 3ZM21 3L21 4L22 4L22 3ZM15 5L15 7L14 7L14 8L15 8L15 7L16 7L16 5ZM21 5L21 7L20 7L20 6L19 6L19 7L18 7L18 6L17 6L17 7L18 7L18 8L19 8L19 7L20 7L20 8L21 8L21 7L22 7L22 5ZM23 6L23 7L24 7L24 6ZM25 6L25 7L26 7L26 6ZM27 6L27 7L28 7L28 6ZM12 7L12 8L13 8L13 7ZM2 8L2 9L5 9L5 10L4 10L4 11L3 11L3 10L2 10L2 12L4 12L4 11L7 11L7 10L6 10L6 9L7 9L7 8L6 8L6 9L5 9L5 8ZM16 8L16 10L17 10L17 8ZM24 8L24 9L25 9L25 8ZM11 9L11 10L12 10L12 11L14 11L14 12L15 12L15 9L13 9L13 10L12 10L12 9ZM35 9L35 11L36 11L36 9ZM0 10L0 11L1 11L1 10ZM18 10L18 11L19 11L19 13L20 13L20 14L21 14L21 15L20 15L20 17L19 17L19 18L18 18L18 20L17 20L17 19L16 19L16 18L17 18L17 17L16 17L16 18L15 18L15 19L13 19L13 20L14 20L14 21L13 21L13 22L11 22L11 21L12 21L12 18L13 18L13 17L12 17L12 18L11 18L11 21L10 21L10 23L5 23L5 22L4 22L4 23L1 23L1 24L9 24L9 26L7 26L7 27L5 27L5 29L6 29L6 30L7 30L7 29L6 29L6 28L7 28L7 27L8 27L8 28L10 28L10 29L12 29L12 30L13 30L13 28L14 28L14 30L15 30L15 27L16 27L16 29L17 29L17 30L16 30L16 31L19 31L19 33L20 33L20 34L19 34L19 36L17 36L17 35L18 35L18 34L16 34L16 32L15 32L15 34L16 34L16 36L17 36L17 37L18 37L18 38L19 38L19 36L21 36L21 37L20 37L20 38L22 38L22 37L23 37L23 38L24 38L24 39L25 39L25 40L27 40L27 38L28 38L28 40L31 40L31 38L32 38L32 39L33 39L33 38L36 38L36 37L32 37L32 36L29 36L29 35L26 35L26 36L29 36L29 37L27 37L27 38L24 38L24 37L25 37L25 36L24 36L24 35L25 35L25 33L26 33L26 34L28 34L28 33L29 33L29 32L30 32L30 31L31 31L31 30L32 30L32 31L33 31L33 32L35 32L35 31L34 31L34 30L36 30L36 31L37 31L37 30L36 30L36 29L35 29L35 26L34 26L34 27L32 27L32 26L33 26L33 25L32 25L32 26L31 26L31 25L30 25L30 26L29 26L29 25L27 25L27 24L25 24L25 25L26 25L26 26L24 26L24 25L23 25L23 24L21 24L21 23L19 23L19 21L22 21L22 20L21 20L21 19L20 19L20 17L22 17L22 16L23 16L23 15L22 15L22 14L21 14L21 13L20 13L20 11L19 11L19 10ZM23 10L23 11L24 11L24 12L25 12L25 13L26 13L26 14L27 14L27 12L26 12L26 11L24 11L24 10ZM33 12L33 13L34 13L34 12ZM39 12L39 14L41 14L41 12ZM8 13L8 14L9 14L9 13ZM36 13L36 14L35 14L35 15L37 15L37 14L38 14L38 13ZM2 15L2 17L3 17L3 15ZM21 15L21 16L22 16L22 15ZM40 16L40 18L39 18L39 19L40 19L40 18L41 18L41 16ZM32 17L32 18L31 18L31 19L33 19L33 20L31 20L31 21L33 21L33 22L34 22L34 21L35 21L35 22L36 22L36 21L35 21L35 19L34 19L34 18L33 18L33 17ZM15 20L15 21L14 21L14 22L16 22L16 20ZM33 20L33 21L34 21L34 20ZM40 20L40 21L41 21L41 20ZM17 21L17 22L18 22L18 21ZM10 23L10 25L11 25L11 26L10 26L10 27L11 27L11 28L13 28L13 26L14 26L14 25L16 25L16 27L17 27L17 26L19 26L19 28L17 28L17 29L19 29L19 31L20 31L20 29L22 29L22 30L21 30L21 31L22 31L22 30L23 30L23 32L21 32L21 35L24 35L24 34L22 34L22 33L25 33L25 32L27 32L27 33L28 33L28 31L29 31L29 30L28 30L28 29L31 29L31 28L28 28L28 26L27 26L27 27L26 27L26 28L25 28L25 29L24 29L24 28L23 28L23 29L22 29L22 28L21 28L21 27L22 27L22 26L23 26L23 25L21 25L21 24L19 24L19 23L13 23L13 24L14 24L14 25L11 25L11 23ZM17 24L17 25L19 25L19 24ZM1 25L1 26L2 26L2 25ZM11 26L11 27L12 27L12 26ZM20 26L20 27L21 27L21 26ZM36 26L36 27L37 27L37 26ZM26 28L26 29L25 29L25 31L27 31L27 28ZM33 28L33 29L32 29L32 30L33 30L33 29L34 29L34 28ZM0 29L0 33L1 33L1 29ZM8 29L8 30L9 30L9 29ZM3 30L3 31L4 31L4 30ZM6 32L6 33L7 33L7 32ZM17 32L17 33L18 33L18 32ZM30 33L30 35L31 35L31 34L32 34L32 33ZM33 33L33 36L36 36L36 33ZM38 33L38 34L37 34L37 36L39 36L39 35L38 35L38 34L39 34L39 33ZM34 34L34 35L35 35L35 34ZM9 35L9 36L8 36L8 39L10 39L10 38L9 38L9 37L11 37L11 36L10 36L10 35ZM12 36L12 37L13 37L13 36ZM30 37L30 38L29 38L29 39L30 39L30 38L31 38L31 37ZM14 38L14 39L15 39L15 38ZM37 38L37 39L38 39L38 38ZM0 0L0 7L7 7L7 0ZM1 1L1 6L6 6L6 1ZM2 2L2 5L5 5L5 2ZM34 0L34 7L41 7L41 0ZM35 1L35 6L40 6L40 1ZM36 2L36 5L39 5L39 2ZM0 34L0 41L7 41L7 34ZM1 35L1 40L6 40L6 35ZM2 36L2 39L5 39L5 36Z" fill="#000000"/></g></g></svg>
