<?xml version="1.0" encoding="UTF-8"?>
<svg xmlns="http://www.w3.org/2000/svg" version="1.1" width="200" height="200" viewBox="0 0 200 200"><rect x="0" y="0" width="200" height="200" fill="#ffffff"/><g transform="scale(4.878)"><g transform="translate(0,0)"><path fill-rule="evenodd" d="M8 0L8 3L10 3L10 2L9 2L9 1L10 1L10 0ZM11 0L11 1L14 1L14 3L13 3L13 2L11 2L11 3L12 3L12 5L11 5L11 4L9 4L9 5L8 5L8 9L7 9L7 8L6 8L6 9L5 9L5 8L2 8L2 9L0 9L0 10L2 10L2 9L4 9L4 10L5 10L5 11L4 11L4 12L3 12L3 11L0 11L0 15L1 15L1 18L2 18L2 19L4 19L4 21L7 21L7 20L5 20L5 18L6 18L6 19L7 19L7 18L8 18L8 19L9 19L9 18L10 18L10 17L12 17L12 16L13 16L13 15L14 15L14 16L15 16L15 17L14 17L14 18L12 18L12 20L11 20L11 19L10 19L10 20L11 20L11 21L12 21L12 22L11 22L11 23L10 23L10 25L12 25L12 24L13 24L13 23L14 23L14 21L17 21L17 22L15 22L15 24L14 24L14 25L16 25L16 23L17 23L17 22L19 22L19 21L20 21L20 22L21 22L21 23L22 23L22 24L23 24L23 25L19 25L19 24L18 24L18 25L19 25L19 26L17 26L17 27L18 27L18 28L19 28L19 30L18 30L18 29L17 29L17 28L16 28L16 27L15 27L15 26L13 26L13 28L12 28L12 27L11 27L11 29L10 29L10 28L9 28L9 27L10 27L10 26L9 26L9 25L8 25L8 23L9 23L9 22L10 22L10 21L9 21L9 22L6 22L6 23L4 23L4 22L2 22L2 20L1 20L1 21L0 21L0 27L1 27L1 25L2 25L2 26L3 26L3 27L2 27L2 28L1 28L1 29L0 29L0 33L1 33L1 30L2 30L2 31L4 31L4 30L5 30L5 29L8 29L8 30L6 30L6 31L5 31L5 32L4 32L4 33L7 33L7 32L8 32L8 34L9 34L9 36L8 36L8 39L9 39L9 36L12 36L12 38L11 38L11 37L10 37L10 38L11 38L11 39L12 39L12 40L13 40L13 41L14 41L14 40L13 40L13 39L15 39L15 38L16 38L16 39L17 39L17 40L16 40L16 41L23 41L23 38L24 38L24 39L25 39L25 40L24 40L24 41L25 41L25 40L27 40L27 41L32 41L32 40L33 40L33 41L34 41L34 40L33 40L33 39L32 39L32 40L31 40L31 38L32 38L32 37L33 37L33 38L34 38L34 39L35 39L35 40L36 40L36 39L37 39L37 37L39 37L39 38L38 38L38 39L39 39L39 40L40 40L40 38L41 38L41 37L40 37L40 36L37 36L37 32L38 32L38 33L39 33L39 34L38 34L38 35L40 35L40 34L41 34L41 33L40 33L40 32L38 32L38 30L37 30L37 29L35 29L35 28L38 28L38 26L39 26L39 27L40 27L40 26L41 26L41 23L40 23L40 26L39 26L39 24L37 24L37 25L34 25L34 24L36 24L36 23L34 23L34 22L36 22L36 21L39 21L39 20L36 20L36 19L35 19L35 17L36 17L36 18L38 18L38 17L39 17L39 16L38 16L38 13L36 13L36 14L35 14L35 15L36 15L36 16L35 16L35 17L34 17L34 16L33 16L33 15L34 15L34 14L33 14L33 13L34 13L34 12L33 12L33 11L34 11L34 10L35 10L35 9L36 9L36 11L35 11L35 12L38 12L38 11L39 11L39 13L40 13L40 14L39 14L39 15L40 15L40 14L41 14L41 13L40 13L40 10L41 10L41 8L38 8L38 9L40 9L40 10L37 10L37 9L36 9L36 8L33 8L33 6L32 6L32 9L30 9L30 8L28 8L28 7L29 7L29 6L30 6L30 7L31 7L31 6L30 6L30 5L29 5L29 4L28 4L28 5L26 5L26 4L27 4L27 3L29 3L29 1L27 1L27 0L25 0L25 3L24 3L24 2L22 2L22 1L21 1L21 0L20 0L20 1L21 1L21 5L20 5L20 2L17 2L17 3L16 3L16 2L15 2L15 1L17 1L17 0ZM31 0L31 1L30 1L30 2L31 2L31 3L30 3L30 4L31 4L31 5L33 5L33 4L31 4L31 3L33 3L33 2L31 2L31 1L32 1L32 0ZM26 2L26 3L25 3L25 4L24 4L24 3L23 3L23 4L24 4L24 5L23 5L23 8L22 8L22 9L23 9L23 10L21 10L21 9L20 9L20 8L21 8L21 7L22 7L22 5L21 5L21 7L20 7L20 6L19 6L19 9L18 9L18 10L17 10L17 8L18 8L18 4L16 4L16 5L14 5L14 6L13 6L13 7L12 7L12 6L11 6L11 5L9 5L9 7L10 7L10 9L9 9L9 10L10 10L10 11L8 11L8 12L7 12L7 11L6 11L6 12L4 12L4 15L3 15L3 14L2 14L2 15L3 15L3 16L2 16L2 17L3 17L3 16L4 16L4 15L6 15L6 16L5 16L5 17L4 17L4 18L5 18L5 17L6 17L6 18L7 18L7 17L8 17L8 18L9 18L9 17L8 17L8 15L9 15L9 16L10 16L10 15L11 15L11 16L12 16L12 15L13 15L13 14L14 14L14 15L17 15L17 14L16 14L16 13L18 13L18 15L19 15L19 17L18 17L18 16L16 16L16 17L18 17L18 20L17 20L17 19L16 19L16 20L17 20L17 21L19 21L19 20L21 20L21 19L22 19L22 23L23 23L23 20L24 20L24 22L25 22L25 20L28 20L28 19L29 19L29 16L30 16L30 15L31 15L31 14L32 14L32 15L33 15L33 14L32 14L32 13L33 13L33 12L31 12L31 11L33 11L33 10L34 10L34 9L32 9L32 10L31 10L31 11L27 11L27 10L30 10L30 9L28 9L28 8L25 8L25 7L26 7L26 5L25 5L25 4L26 4L26 3L27 3L27 2ZM16 5L16 7L17 7L17 5ZM24 5L24 7L25 7L25 5ZM28 5L28 6L27 6L27 7L28 7L28 6L29 6L29 5ZM10 6L10 7L11 7L11 8L12 8L12 9L14 9L14 10L15 10L15 9L16 9L16 8L15 8L15 9L14 9L14 8L12 8L12 7L11 7L11 6ZM14 6L14 7L15 7L15 6ZM24 8L24 9L25 9L25 10L23 10L23 11L22 11L22 13L21 13L21 12L20 12L20 13L19 13L19 12L18 12L18 11L19 11L19 10L18 10L18 11L17 11L17 10L16 10L16 11L17 11L17 12L18 12L18 13L19 13L19 14L20 14L20 17L19 17L19 19L21 19L21 18L22 18L22 19L23 19L23 18L24 18L24 19L25 19L25 18L26 18L26 19L28 19L28 18L27 18L27 17L28 17L28 15L30 15L30 14L31 14L31 12L26 12L26 11L25 11L25 10L26 10L26 9L25 9L25 8ZM6 9L6 10L7 10L7 9ZM11 10L11 11L10 11L10 12L11 12L11 11L12 11L12 12L13 12L13 13L10 13L10 14L11 14L11 15L12 15L12 14L13 14L13 13L14 13L14 14L15 14L15 13L16 13L16 12L13 12L13 10ZM23 11L23 12L24 12L24 13L22 13L22 14L21 14L21 15L22 15L22 17L23 17L23 15L26 15L26 13L25 13L25 12L24 12L24 11ZM2 12L2 13L3 13L3 12ZM6 12L6 13L7 13L7 12ZM24 13L24 14L25 14L25 13ZM28 13L28 14L30 14L30 13ZM6 14L6 15L8 15L8 14ZM22 14L22 15L23 15L23 14ZM36 14L36 15L37 15L37 14ZM6 16L6 17L7 17L7 16ZM26 16L26 17L27 17L27 16ZM32 16L32 17L33 17L33 16ZM36 16L36 17L38 17L38 16ZM40 16L40 18L39 18L39 19L40 19L40 18L41 18L41 16ZM20 17L20 18L21 18L21 17ZM24 17L24 18L25 18L25 17ZM30 17L30 19L31 19L31 20L29 20L29 21L26 21L26 22L28 22L28 24L27 24L27 26L26 26L26 24L24 24L24 25L23 25L23 26L26 26L26 27L23 27L23 28L22 28L22 27L21 27L21 26L19 26L19 28L20 28L20 29L21 29L21 30L20 30L20 31L17 31L17 30L16 30L16 28L15 28L15 27L14 27L14 30L11 30L11 32L10 32L10 33L9 33L9 34L10 34L10 33L13 33L13 32L12 32L12 31L14 31L14 32L15 32L15 31L17 31L17 32L20 32L20 33L16 33L16 34L15 34L15 33L14 33L14 34L13 34L13 35L12 35L12 34L11 34L11 35L12 35L12 36L14 36L14 34L15 34L15 35L19 35L19 36L18 36L18 37L19 37L19 38L17 38L17 37L16 37L16 38L17 38L17 39L18 39L18 40L20 40L20 39L19 39L19 38L20 38L20 37L22 37L22 38L21 38L21 40L22 40L22 38L23 38L23 37L25 37L25 38L26 38L26 35L27 35L27 36L28 36L28 35L29 35L29 37L27 37L27 38L28 38L28 39L27 39L27 40L30 40L30 39L29 39L29 38L31 38L31 37L32 37L32 35L30 35L30 33L32 33L32 32L35 32L35 31L34 31L34 30L35 30L35 29L34 29L34 28L33 28L33 29L32 29L32 27L34 27L34 25L32 25L32 24L34 24L34 23L32 23L32 22L31 22L31 23L29 23L29 22L30 22L30 21L33 21L33 22L34 22L34 21L36 21L36 20L35 20L35 19L34 19L34 18L33 18L33 19L32 19L32 18L31 18L31 17ZM14 18L14 19L13 19L13 20L15 20L15 18ZM33 20L33 21L34 21L34 20ZM40 20L40 21L41 21L41 20ZM6 23L6 24L7 24L7 23ZM3 24L3 26L4 26L4 24ZM29 24L29 25L28 25L28 26L27 26L27 27L28 27L28 28L23 28L23 29L22 29L22 30L21 30L21 33L22 33L22 35L20 35L20 36L19 36L19 37L20 37L20 36L22 36L22 37L23 37L23 36L24 36L24 35L23 35L23 32L24 32L24 33L26 33L26 32L27 32L27 31L25 31L25 30L26 30L26 29L27 29L27 30L29 30L29 31L28 31L28 32L29 32L29 33L28 33L28 34L27 34L27 35L28 35L28 34L29 34L29 33L30 33L30 32L31 32L31 29L30 29L30 28L29 28L29 27L28 27L28 26L32 26L32 25L30 25L30 24ZM6 25L6 26L7 26L7 27L5 27L5 28L4 28L4 29L5 29L5 28L7 28L7 27L8 27L8 25ZM35 26L35 27L36 27L36 26ZM20 27L20 28L21 28L21 27ZM8 28L8 29L9 29L9 30L8 30L8 32L9 32L9 31L10 31L10 29L9 29L9 28ZM28 28L28 29L29 29L29 30L30 30L30 29L29 29L29 28ZM39 28L39 31L40 31L40 30L41 30L41 29L40 29L40 28ZM2 29L2 30L3 30L3 29ZM23 29L23 30L22 30L22 32L23 32L23 30L25 30L25 29ZM33 29L33 30L32 30L32 31L33 31L33 30L34 30L34 29ZM6 31L6 32L7 32L7 31ZM29 31L29 32L30 32L30 31ZM33 33L33 36L36 36L36 33ZM25 34L25 35L26 35L26 34ZM34 34L34 35L35 35L35 34ZM22 35L22 36L23 36L23 35ZM30 36L30 37L31 37L31 36ZM13 37L13 38L12 38L12 39L13 39L13 38L15 38L15 37ZM34 37L34 38L36 38L36 37ZM0 0L0 7L7 7L7 0ZM1 1L1 6L6 6L6 1ZM2 2L2 5L5 5L5 2ZM34 0L34 7L41 7L41 0ZM35 1L35 6L40 6L40 1ZM36 2L36 5L39 5L39 2ZM0 34L0 41L7 41L7 34ZM1 35L1 40L6 40L6 35ZM2 36L2 39L5 39L5 36Z" fill="#000000"/></g></g></svg>
