<?xml version="1.0" encoding="UTF-8"?>
<svg xmlns="http://www.w3.org/2000/svg" version="1.1" width="200" height="200" viewBox="0 0 200 200"><rect x="0" y="0" width="200" height="200" fill="#ffffff"/><g transform="scale(4.878)"><g transform="translate(0,0)"><path fill-rule="evenodd" d="M8 0L8 3L9 3L9 5L8 5L8 9L7 9L7 8L6 8L6 9L5 9L5 8L2 8L2 9L0 9L0 13L2 13L2 12L1 12L1 11L2 11L2 9L5 9L5 11L4 11L4 10L3 10L3 11L4 11L4 12L3 12L3 14L0 14L0 15L3 15L3 14L4 14L4 15L5 15L5 14L4 14L4 12L5 12L5 13L7 13L7 14L6 14L6 15L7 15L7 16L6 16L6 17L7 17L7 18L6 18L6 19L7 19L7 20L5 20L5 19L4 19L4 20L5 20L5 22L4 22L4 21L3 21L3 19L2 19L2 18L5 18L5 16L4 16L4 17L2 17L2 16L0 16L0 18L1 18L1 20L0 20L0 25L2 25L2 27L3 27L3 28L4 28L4 27L3 27L3 25L4 25L4 26L5 26L5 25L7 25L7 24L6 24L6 23L7 23L7 22L6 22L6 21L7 21L7 20L8 20L8 19L7 19L7 18L9 18L9 19L10 19L10 21L8 21L8 23L9 23L9 22L11 22L11 21L13 21L13 20L14 20L14 19L13 19L13 18L11 18L11 19L10 19L10 17L9 17L9 16L10 16L10 15L9 15L9 14L11 14L11 13L12 13L12 12L13 12L13 10L14 10L14 9L13 9L13 6L14 6L14 8L15 8L15 11L16 11L16 7L17 7L17 8L18 8L18 9L20 9L20 10L19 10L19 11L18 11L18 10L17 10L17 11L18 11L18 13L17 13L17 12L16 12L16 13L15 13L15 12L14 12L14 13L13 13L13 15L11 15L11 16L14 16L14 18L15 18L15 17L17 17L17 16L18 16L18 15L16 15L16 13L17 13L17 14L19 14L19 12L20 12L20 14L21 14L21 15L23 15L23 14L25 14L25 17L24 17L24 16L23 16L23 17L22 17L22 18L20 18L20 19L15 19L15 21L14 21L14 22L13 22L13 23L11 23L11 24L8 24L8 27L7 27L7 26L6 26L6 27L5 27L5 30L6 30L6 31L4 31L4 33L5 33L5 32L6 32L6 33L8 33L8 34L9 34L9 36L8 36L8 39L9 39L9 37L10 37L10 35L12 35L12 38L11 38L11 39L10 39L10 40L9 40L9 41L11 41L11 39L13 39L13 40L14 40L14 41L15 41L15 39L16 39L16 38L15 38L15 36L16 36L16 35L17 35L17 31L19 31L19 32L20 32L20 31L19 31L19 30L20 30L20 29L21 29L21 28L22 28L22 27L23 27L23 25L25 25L25 26L24 26L24 31L22 31L22 30L23 30L23 29L22 29L22 30L21 30L21 33L19 33L19 35L21 35L21 33L23 33L23 32L24 32L24 34L23 34L23 35L22 35L22 36L21 36L21 38L20 38L20 41L23 41L23 40L22 40L22 39L21 39L21 38L22 38L22 37L23 37L23 39L26 39L26 40L24 40L24 41L26 41L26 40L28 40L28 41L32 41L32 40L33 40L33 41L34 41L34 40L33 40L33 39L32 39L32 40L28 40L28 38L29 38L29 39L31 39L31 38L34 38L34 39L35 39L35 40L36 40L36 39L37 39L37 40L40 40L40 38L41 38L41 37L39 37L39 36L37 36L37 35L38 35L38 33L39 33L39 35L40 35L40 34L41 34L41 33L40 33L40 30L41 30L41 29L40 29L40 28L39 28L39 30L37 30L37 29L36 29L36 28L38 28L38 26L39 26L39 27L40 27L40 26L41 26L41 23L39 23L39 22L38 22L38 23L39 23L39 24L40 24L40 26L39 26L39 25L36 25L36 24L37 24L37 21L39 21L39 20L36 20L36 19L35 19L35 17L36 17L36 18L37 18L37 19L38 19L38 18L37 18L37 17L39 17L39 16L37 16L37 13L36 13L36 14L35 14L35 17L34 17L34 16L32 16L32 17L31 17L31 15L30 15L30 16L29 16L29 15L28 15L28 16L29 16L29 17L31 17L31 18L30 18L30 19L31 19L31 18L32 18L32 17L33 17L33 18L34 18L34 19L35 19L35 21L34 21L34 20L33 20L33 19L32 19L32 20L33 20L33 21L31 21L31 20L30 20L30 21L31 21L31 22L33 22L33 21L34 21L34 22L35 22L35 23L30 23L30 24L29 24L29 23L28 23L28 22L27 22L27 23L26 23L26 24L27 24L27 25L25 25L25 24L24 24L24 22L26 22L26 20L27 20L27 21L29 21L29 20L28 20L28 19L29 19L29 18L27 18L27 19L26 19L26 18L25 18L25 17L26 17L26 14L29 14L29 13L30 13L30 14L31 14L31 12L32 12L32 13L33 13L33 14L32 14L32 15L34 15L34 13L35 13L35 9L36 9L36 10L37 10L37 11L36 11L36 12L38 12L38 11L40 11L40 10L41 10L41 8L38 8L38 9L40 9L40 10L37 10L37 9L36 9L36 8L33 8L33 9L31 9L31 8L32 8L32 7L33 7L33 6L32 6L32 7L31 7L31 5L33 5L33 4L30 4L30 5L27 5L27 4L26 4L26 5L23 5L23 4L21 4L21 3L22 3L22 1L23 1L23 0L22 0L22 1L21 1L21 3L20 3L20 2L18 2L18 3L20 3L20 5L21 5L21 6L20 6L20 7L21 7L21 9L20 9L20 8L19 8L19 6L18 6L18 4L16 4L16 5L15 5L15 4L14 4L14 3L13 3L13 2L11 2L11 3L12 3L12 4L10 4L10 0ZM11 0L11 1L13 1L13 0ZM14 0L14 1L15 1L15 3L17 3L17 2L16 2L16 0ZM17 0L17 1L19 1L19 0ZM26 0L26 1L27 1L27 2L26 2L26 3L28 3L28 4L29 4L29 3L33 3L33 1L32 1L32 0L31 0L31 1L32 1L32 2L30 2L30 0L29 0L29 1L27 1L27 0ZM23 2L23 3L25 3L25 2ZM12 4L12 5L14 5L14 4ZM16 5L16 6L15 6L15 7L16 7L16 6L17 6L17 7L18 7L18 6L17 6L17 5ZM22 5L22 6L21 6L21 7L22 7L22 8L23 8L23 10L24 10L24 12L23 12L23 11L22 11L22 9L21 9L21 11L20 11L20 12L23 12L23 13L22 13L22 14L23 14L23 13L25 13L25 14L26 14L26 13L25 13L25 12L26 12L26 11L27 11L27 10L29 10L29 11L28 11L28 13L29 13L29 12L30 12L30 11L32 11L32 12L33 12L33 13L34 13L34 12L33 12L33 11L34 11L34 9L33 9L33 11L32 11L32 10L31 10L31 9L25 9L25 8L24 8L24 6L23 6L23 5ZM26 5L26 6L25 6L25 7L26 7L26 6L27 6L27 7L28 7L28 8L31 8L31 7L30 7L30 6L29 6L29 7L28 7L28 6L27 6L27 5ZM9 6L9 8L10 8L10 6ZM11 6L11 7L12 7L12 6ZM22 6L22 7L23 7L23 6ZM11 8L11 9L8 9L8 11L5 11L5 12L7 12L7 13L8 13L8 14L9 14L9 12L10 12L10 13L11 13L11 12L10 12L10 11L12 11L12 10L13 10L13 9L12 9L12 8ZM6 9L6 10L7 10L7 9ZM11 9L11 10L12 10L12 9ZM24 9L24 10L25 10L25 11L26 11L26 10L25 10L25 9ZM39 12L39 13L40 13L40 14L39 14L39 15L40 15L40 14L41 14L41 13L40 13L40 12ZM14 14L14 16L16 16L16 15L15 15L15 14ZM19 16L19 17L18 17L18 18L19 18L19 17L20 17L20 16ZM36 16L36 17L37 17L37 16ZM40 16L40 18L39 18L39 19L40 19L40 18L41 18L41 16ZM1 17L1 18L2 18L2 17ZM23 17L23 18L22 18L22 21L21 21L21 22L20 22L20 20L18 20L18 21L17 21L17 20L16 20L16 21L15 21L15 22L14 22L14 23L13 23L13 25L12 25L12 24L11 24L11 25L12 25L12 26L13 26L13 29L11 29L11 30L10 30L10 29L8 29L8 28L9 28L9 27L8 27L8 28L7 28L7 27L6 27L6 28L7 28L7 29L6 29L6 30L7 30L7 31L6 31L6 32L9 32L9 31L11 31L11 32L10 32L10 33L12 33L12 34L13 34L13 35L15 35L15 33L16 33L16 31L17 31L17 30L18 30L18 29L16 29L16 28L17 28L17 26L16 26L16 28L14 28L14 26L13 26L13 25L14 25L14 24L15 24L15 25L16 25L16 24L15 24L15 22L16 22L16 23L17 23L17 25L18 25L18 24L19 24L19 25L20 25L20 26L21 26L21 27L22 27L22 24L20 24L20 23L22 23L22 21L23 21L23 22L24 22L24 19L23 19L23 18L24 18L24 17ZM25 19L25 20L26 20L26 19ZM40 20L40 21L41 21L41 20ZM16 21L16 22L17 22L17 23L20 23L20 22L17 22L17 21ZM35 21L35 22L36 22L36 21ZM2 22L2 23L1 23L1 24L2 24L2 23L3 23L3 24L4 24L4 25L5 25L5 24L4 24L4 22ZM35 23L35 24L33 24L33 25L32 25L32 24L31 24L31 25L30 25L30 26L29 26L29 25L27 25L27 26L29 26L29 27L28 27L28 28L31 28L31 29L28 29L28 30L32 30L32 31L33 31L33 32L36 32L36 31L37 31L37 32L39 32L39 31L37 31L37 30L36 30L36 29L35 29L35 28L36 28L36 27L37 27L37 26L36 26L36 25L35 25L35 24L36 24L36 23ZM9 25L9 26L10 26L10 25ZM31 25L31 26L32 26L32 25ZM33 25L33 27L31 27L31 28L33 28L33 29L32 29L32 30L33 30L33 29L34 29L34 28L33 28L33 27L34 27L34 26L35 26L35 27L36 27L36 26L35 26L35 25ZM0 26L0 27L1 27L1 26ZM18 26L18 28L19 28L19 29L20 29L20 28L19 28L19 26ZM25 26L25 27L26 27L26 26ZM0 29L0 33L1 33L1 29ZM2 29L2 30L4 30L4 29ZM14 29L14 31L13 31L13 30L11 30L11 31L12 31L12 33L14 33L14 32L15 32L15 31L16 31L16 30L15 30L15 29ZM25 29L25 32L27 32L27 31L26 31L26 29ZM34 30L34 31L35 31L35 30ZM28 31L28 32L31 32L31 31ZM2 32L2 33L3 33L3 32ZM25 33L25 34L26 34L26 35L25 35L25 36L28 36L28 37L27 37L27 38L26 38L26 37L25 37L25 38L26 38L26 39L27 39L27 38L28 38L28 37L29 37L29 38L30 38L30 37L32 37L32 35L31 35L31 33L30 33L30 35L31 35L31 36L28 36L28 35L29 35L29 33L27 33L27 34L26 34L26 33ZM33 33L33 36L36 36L36 33ZM27 34L27 35L28 35L28 34ZM34 34L34 35L35 35L35 34ZM13 36L13 37L14 37L14 36ZM17 36L17 37L18 37L18 38L17 38L17 39L18 39L18 40L16 40L16 41L18 41L18 40L19 40L19 39L18 39L18 38L19 38L19 37L20 37L20 36L19 36L19 37L18 37L18 36ZM23 36L23 37L24 37L24 36ZM34 37L34 38L36 38L36 37ZM13 38L13 39L15 39L15 38ZM37 38L37 39L38 39L38 38ZM0 0L0 7L7 7L7 0ZM1 1L1 6L6 6L6 1ZM2 2L2 5L5 5L5 2ZM34 0L34 7L41 7L41 0ZM35 1L35 6L40 6L40 1ZM36 2L36 5L39 5L39 2ZM0 34L0 41L7 41L7 34ZM1 35L1 40L6 40L6 35ZM2 36L2 39L5 39L5 36Z" fill="#000000"/></g></g></svg>
