<?xml version="1.0" encoding="UTF-8"?>
<svg xmlns="http://www.w3.org/2000/svg" version="1.1" width="200" height="200" viewBox="0 0 200 200"><rect x="0" y="0" width="200" height="200" fill="#ffffff"/><g transform="scale(6.897)"><g transform="translate(0,0)"><path fill-rule="evenodd" d="M9 0L9 1L8 1L8 7L9 7L9 6L10 6L10 7L11 7L11 8L10 8L10 11L8 11L8 10L5 10L5 9L9 9L9 8L5 8L5 9L3 9L3 8L2 8L2 9L0 9L0 11L1 11L1 10L2 10L2 11L3 11L3 12L0 12L0 15L1 15L1 17L2 17L2 18L0 18L0 19L2 19L2 18L4 18L4 19L3 19L3 20L0 20L0 21L4 21L4 19L5 19L5 20L6 20L6 21L8 21L8 24L12 24L12 25L10 25L10 27L12 27L12 25L13 25L13 24L14 24L14 26L13 26L13 27L15 27L15 29L16 29L16 27L17 27L17 29L19 29L19 28L18 28L18 27L19 27L19 26L20 26L20 27L21 27L21 29L22 29L22 28L24 28L24 29L26 29L26 28L27 28L27 29L29 29L29 26L27 26L27 27L26 27L26 26L25 26L25 28L24 28L24 26L23 26L23 27L22 27L22 26L21 26L21 25L25 25L25 23L26 23L26 21L27 21L27 23L28 23L28 22L29 22L29 21L27 21L27 19L26 19L26 18L28 18L28 19L29 19L29 18L28 18L28 17L29 17L29 16L27 16L27 17L25 17L25 16L22 16L22 15L25 15L25 14L26 14L26 13L29 13L29 12L27 12L27 11L29 11L29 9L28 9L28 8L23 8L23 10L22 10L22 11L21 11L21 9L22 9L22 8L21 8L21 0L19 0L19 1L20 1L20 2L19 2L19 3L20 3L20 5L17 5L17 4L16 4L16 2L17 2L17 3L18 3L18 2L17 2L17 1L18 1L18 0L17 0L17 1L15 1L15 2L14 2L14 3L13 3L13 4L12 4L12 7L11 7L11 6L10 6L10 5L9 5L9 2L10 2L10 4L11 4L11 1L10 1L10 0ZM13 0L13 1L14 1L14 0ZM14 5L14 6L13 6L13 7L12 7L12 8L11 8L11 9L12 9L12 10L11 10L11 11L10 11L10 14L9 14L9 15L10 15L10 19L12 19L12 23L14 23L14 24L15 24L15 23L16 23L16 24L17 24L17 25L19 25L19 24L20 24L20 23L19 23L19 22L20 22L20 21L19 21L19 22L18 22L18 23L19 23L19 24L17 24L17 20L16 20L16 19L17 19L17 18L16 18L16 17L14 17L14 16L16 16L16 14L15 14L15 12L14 12L14 14L15 14L15 15L13 15L13 9L12 9L12 8L13 8L13 7L14 7L14 6L15 6L15 7L16 7L16 6L17 6L17 7L18 7L18 10L19 10L19 11L18 11L18 12L17 12L17 11L16 11L16 10L17 10L17 8L16 8L16 10L14 10L14 11L16 11L16 13L18 13L18 14L17 14L17 17L18 17L18 18L20 18L20 19L18 19L18 20L22 20L22 19L21 19L21 15L19 15L19 14L22 14L22 12L21 12L21 13L20 13L20 12L19 12L19 11L20 11L20 8L19 8L19 7L20 7L20 6L19 6L19 7L18 7L18 6L17 6L17 5L16 5L16 6L15 6L15 5ZM2 9L2 10L3 10L3 11L5 11L5 14L7 14L7 13L6 13L6 12L8 12L8 11L5 11L5 10L3 10L3 9ZM25 9L25 10L24 10L24 11L27 11L27 10L28 10L28 9ZM11 11L11 12L12 12L12 11ZM3 12L3 13L1 13L1 15L3 15L3 17L4 17L4 18L5 18L5 19L6 19L6 20L9 20L9 23L11 23L11 20L9 20L9 19L6 19L6 18L9 18L9 16L8 16L8 17L6 17L6 16L7 16L7 15L5 15L5 16L4 16L4 15L3 15L3 14L4 14L4 12ZM18 12L18 13L19 13L19 12ZM23 12L23 14L25 14L25 13L24 13L24 12ZM27 14L27 15L29 15L29 14ZM11 15L11 18L12 18L12 19L13 19L13 18L14 18L14 17L13 17L13 15ZM18 15L18 16L19 16L19 17L20 17L20 16L19 16L19 15ZM5 17L5 18L6 18L6 17ZM12 17L12 18L13 18L13 17ZM22 17L22 18L25 18L25 17ZM15 18L15 19L14 19L14 21L13 21L13 22L14 22L14 23L15 23L15 21L16 21L16 20L15 20L15 19L16 19L16 18ZM23 19L23 20L24 20L24 19ZM21 21L21 24L24 24L24 21ZM22 22L22 23L23 23L23 22ZM26 24L26 25L29 25L29 24ZM8 26L8 27L9 27L9 26ZM15 26L15 27L16 27L16 26ZM17 26L17 27L18 27L18 26ZM27 27L27 28L28 28L28 27ZM10 28L10 29L12 29L12 28ZM0 0L0 7L7 7L7 0ZM1 1L1 6L6 6L6 1ZM2 2L2 5L5 5L5 2ZM22 0L22 7L29 7L29 0ZM23 1L23 6L28 6L28 1ZM24 2L24 5L27 5L27 2ZM0 22L0 29L7 29L7 22ZM1 23L1 28L6 28L6 23ZM2 24L2 27L5 27L5 24Z" fill="#000000"/></g></g></svg>
