<?xml version="1.0" encoding="UTF-8"?>
<svg xmlns="http://www.w3.org/2000/svg" version="1.1" width="200" height="200" viewBox="0 0 200 200"><rect x="0" y="0" width="200" height="200" fill="#ffffff"/><g transform="scale(4.878)"><g transform="translate(0,0)"><path fill-rule="evenodd" d="M8 0L8 1L9 1L9 2L8 2L8 3L9 3L9 2L10 2L10 1L12 1L12 2L11 2L11 3L10 3L10 4L8 4L8 5L10 5L10 7L9 7L9 6L8 6L8 8L9 8L9 9L10 9L10 10L8 10L8 9L7 9L7 8L5 8L5 9L4 9L4 11L2 11L2 10L3 10L3 9L2 9L2 10L1 10L1 13L0 13L0 18L1 18L1 19L2 19L2 20L3 20L3 22L1 22L1 21L0 21L0 23L3 23L3 24L2 24L2 25L4 25L4 27L3 27L3 26L2 26L2 28L1 28L1 27L0 27L0 33L1 33L1 31L4 31L4 32L5 32L5 33L7 33L7 32L5 32L5 31L4 31L4 30L2 30L2 29L5 29L5 30L6 30L6 31L7 31L7 30L6 30L6 29L8 29L8 30L9 30L9 29L10 29L10 31L9 31L9 32L8 32L8 34L9 34L9 35L8 35L8 36L9 36L9 38L10 38L10 39L9 39L9 41L10 41L10 39L13 39L13 38L10 38L10 36L11 36L11 37L13 37L13 36L12 36L12 34L13 34L13 35L14 35L14 32L13 32L13 29L15 29L15 28L14 28L14 25L16 25L16 24L15 24L15 22L16 22L16 21L17 21L17 22L18 22L18 23L17 23L17 24L18 24L18 25L17 25L17 26L18 26L18 27L20 27L20 28L18 28L18 29L16 29L16 30L18 30L18 31L16 31L16 32L15 32L15 34L16 34L16 32L17 32L17 35L15 35L15 36L14 36L14 37L15 37L15 36L17 36L17 37L16 37L16 38L17 38L17 39L18 39L18 36L17 36L17 35L18 35L18 33L21 33L21 32L23 32L23 33L22 33L22 34L20 34L20 35L19 35L19 36L20 36L20 35L21 35L21 36L22 36L22 37L21 37L21 39L23 39L23 40L20 40L20 39L19 39L19 40L18 40L18 41L23 41L23 40L26 40L26 39L24 39L24 38L27 38L27 39L28 39L28 41L31 41L31 40L32 40L32 38L33 38L33 37L36 37L36 38L34 38L34 39L33 39L33 41L34 41L34 40L36 40L36 39L37 39L37 40L38 40L38 39L40 39L40 40L41 40L41 39L40 39L40 38L41 38L41 36L39 36L39 37L37 37L37 35L40 35L40 34L39 34L39 32L38 32L38 31L40 31L40 32L41 32L41 29L40 29L40 28L41 28L41 27L40 27L40 26L41 26L41 25L39 25L39 24L37 24L37 23L39 23L39 22L41 22L41 20L40 20L40 19L41 19L41 15L40 15L40 14L41 14L41 11L40 11L40 9L41 9L41 8L40 8L40 9L39 9L39 8L38 8L38 10L37 10L37 8L36 8L36 9L35 9L35 8L34 8L34 9L35 9L35 10L34 10L34 12L35 12L35 13L36 13L36 14L35 14L35 15L34 15L34 14L32 14L32 16L33 16L33 17L30 17L30 16L31 16L31 13L32 13L32 12L31 12L31 11L30 11L30 10L29 10L29 9L31 9L31 10L32 10L32 11L33 11L33 3L32 3L32 2L33 2L33 1L32 1L32 2L30 2L30 1L31 1L31 0L30 0L30 1L29 1L29 0L28 0L28 2L26 2L26 5L25 5L25 3L24 3L24 5L23 5L23 2L25 2L25 1L26 1L26 0L25 0L25 1L24 1L24 0L22 0L22 1L23 1L23 2L22 2L22 5L20 5L20 7L21 7L21 6L22 6L22 8L21 8L21 11L22 11L22 12L20 12L20 11L19 11L19 10L20 10L20 8L19 8L19 6L18 6L18 5L19 5L19 4L20 4L20 3L19 3L19 2L21 2L21 1L20 1L20 0L19 0L19 1L18 1L18 0L16 0L16 2L17 2L17 3L16 3L16 4L15 4L15 0L14 0L14 2L13 2L13 0ZM17 1L17 2L18 2L18 1ZM12 3L12 5L11 5L11 4L10 4L10 5L11 5L11 7L10 7L10 8L12 8L12 10L13 10L13 8L14 8L14 10L15 10L15 7L16 7L16 8L18 8L18 9L16 9L16 11L14 11L14 12L13 12L13 11L11 11L11 10L10 10L10 12L9 12L9 11L6 11L6 10L7 10L7 9L6 9L6 10L5 10L5 11L4 11L4 13L5 13L5 15L4 15L4 16L5 16L5 17L3 17L3 15L2 15L2 14L3 14L3 13L1 13L1 17L2 17L2 19L3 19L3 20L4 20L4 19L5 19L5 21L4 21L4 22L3 22L3 23L4 23L4 24L5 24L5 27L4 27L4 28L5 28L5 27L6 27L6 28L9 28L9 27L10 27L10 25L8 25L8 23L6 23L6 22L7 22L7 21L6 21L6 20L9 20L9 21L8 21L8 22L9 22L9 24L10 24L10 22L13 22L13 23L14 23L14 22L15 22L15 21L16 21L16 19L15 19L15 21L14 21L14 20L12 20L12 19L13 19L13 17L14 17L14 18L16 18L16 17L17 17L17 18L21 18L21 19L22 19L22 22L21 22L21 20L20 20L20 19L18 19L18 20L17 20L17 21L19 21L19 20L20 20L20 24L19 24L19 23L18 23L18 24L19 24L19 25L20 25L20 27L22 27L22 28L21 28L21 29L20 29L20 30L21 30L21 31L20 31L20 32L21 32L21 31L23 31L23 32L24 32L24 33L23 33L23 37L22 37L22 38L23 38L23 37L24 37L24 36L26 36L26 37L27 37L27 36L26 36L26 35L25 35L25 33L26 33L26 31L27 31L27 32L30 32L30 33L31 33L31 31L32 31L32 29L33 29L33 27L32 27L32 26L33 26L33 24L34 24L34 23L35 23L35 26L34 26L34 27L37 27L37 26L36 26L36 25L37 25L37 24L36 24L36 23L35 23L35 22L36 22L36 21L35 21L35 18L36 18L36 20L37 20L37 22L38 22L38 20L39 20L39 21L40 21L40 20L39 20L39 19L38 19L38 20L37 20L37 18L36 18L36 17L37 17L37 16L38 16L38 14L39 14L39 13L40 13L40 11L38 11L38 12L39 12L39 13L37 13L37 12L36 12L36 13L37 13L37 14L36 14L36 15L35 15L35 16L34 16L34 17L33 17L33 18L32 18L32 19L34 19L34 23L33 23L33 22L31 22L31 21L32 21L32 20L31 20L31 19L29 19L29 18L30 18L30 17L29 17L29 16L30 16L30 15L29 15L29 14L30 14L30 11L29 11L29 10L28 10L28 11L27 11L27 12L26 12L26 10L23 10L23 9L24 9L24 6L25 6L25 8L26 8L26 9L27 9L27 7L28 7L28 4L27 4L27 7L26 7L26 6L25 6L25 5L24 5L24 6L23 6L23 5L22 5L22 6L23 6L23 9L22 9L22 10L23 10L23 12L22 12L22 14L20 14L20 12L19 12L19 11L17 11L17 10L19 10L19 8L18 8L18 6L17 6L17 7L16 7L16 6L15 6L15 7L14 7L14 6L13 6L13 8L12 8L12 5L14 5L14 4L13 4L13 3ZM29 3L29 8L30 8L30 4L32 4L32 3ZM16 4L16 5L17 5L17 4ZM31 5L31 9L32 9L32 5ZM35 10L35 11L37 11L37 10ZM16 11L16 14L17 14L17 15L18 15L18 16L19 16L19 17L20 17L20 16L21 16L21 17L22 17L22 18L23 18L23 21L25 21L25 19L26 19L26 18L25 18L25 17L24 17L24 16L25 16L25 15L26 15L26 12L24 12L24 13L23 13L23 14L22 14L22 16L21 16L21 15L20 15L20 16L19 16L19 14L18 14L18 13L19 13L19 12L17 12L17 11ZM28 11L28 12L27 12L27 13L28 13L28 14L29 14L29 11ZM5 12L5 13L8 13L8 14L9 14L9 15L8 15L8 19L9 19L9 20L10 20L10 19L9 19L9 16L10 16L10 17L11 17L11 19L12 19L12 17L13 17L13 16L12 16L12 15L13 15L13 14L14 14L14 16L15 16L15 12L14 12L14 13L13 13L13 12L12 12L12 13L13 13L13 14L11 14L11 12L10 12L10 14L9 14L9 12ZM6 14L6 15L7 15L7 14ZM10 14L10 15L11 15L11 14ZM23 14L23 15L24 15L24 14ZM27 15L27 16L26 16L26 17L27 17L27 20L26 20L26 21L27 21L27 23L26 23L26 24L25 24L25 26L27 26L27 27L26 27L26 28L25 28L25 29L24 29L24 28L22 28L22 29L21 29L21 30L22 30L22 29L24 29L24 32L25 32L25 31L26 31L26 30L27 30L27 31L28 31L28 30L27 30L27 29L31 29L31 28L28 28L28 24L29 24L29 19L28 19L28 17L27 17L27 16L28 16L28 15ZM36 15L36 16L35 16L35 17L34 17L34 18L35 18L35 17L36 17L36 16L37 16L37 15ZM6 16L6 17L7 17L7 16ZM11 16L11 17L12 17L12 16ZM39 16L39 17L38 17L38 18L39 18L39 17L40 17L40 16ZM23 17L23 18L24 18L24 19L25 19L25 18L24 18L24 17ZM5 18L5 19L7 19L7 18ZM11 20L11 21L12 21L12 20ZM30 20L30 21L31 21L31 20ZM5 21L5 22L4 22L4 23L5 23L5 22L6 22L6 21ZM9 21L9 22L10 22L10 21ZM13 21L13 22L14 22L14 21ZM23 22L23 25L22 25L22 23L21 23L21 26L23 26L23 25L24 25L24 22ZM30 22L30 24L31 24L31 25L29 25L29 26L32 26L32 24L33 24L33 23L32 23L32 24L31 24L31 22ZM40 23L40 24L41 24L41 23ZM0 24L0 26L1 26L1 24ZM6 24L6 25L7 25L7 24ZM11 24L11 30L12 30L12 29L13 29L13 24ZM6 26L6 27L8 27L8 26ZM15 26L15 27L16 27L16 28L17 28L17 27L16 27L16 26ZM38 26L38 27L39 27L39 28L34 28L34 30L33 30L33 31L34 31L34 32L36 32L36 31L37 31L37 30L38 30L38 29L39 29L39 30L40 30L40 29L39 29L39 28L40 28L40 27L39 27L39 26ZM18 29L18 30L19 30L19 29ZM25 29L25 30L26 30L26 29ZM35 29L35 30L37 30L37 29ZM29 30L29 31L31 31L31 30ZM11 32L11 33L12 33L12 32ZM37 32L37 34L38 34L38 32ZM9 33L9 34L10 34L10 35L11 35L11 34L10 34L10 33ZM33 33L33 36L36 36L36 33ZM28 34L28 39L29 39L29 40L30 40L30 39L31 39L31 38L30 38L30 37L31 37L31 36L32 36L32 35L31 35L31 34L30 34L30 35L31 35L31 36L30 36L30 37L29 37L29 34ZM34 34L34 35L35 35L35 34ZM39 37L39 38L40 38L40 37ZM29 38L29 39L30 39L30 38ZM37 38L37 39L38 39L38 38ZM14 39L14 40L13 40L13 41L15 41L15 39ZM0 0L0 7L7 7L7 0ZM1 1L1 6L6 6L6 1ZM2 2L2 5L5 5L5 2ZM34 0L34 7L41 7L41 0ZM35 1L35 6L40 6L40 1ZM36 2L36 5L39 5L39 2ZM0 34L0 41L7 41L7 34ZM1 35L1 40L6 40L6 35ZM2 36L2 39L5 39L5 36Z" fill="#000000"/></g></g></svg>
