<?xml version="1.0" encoding="UTF-8"?>
<svg xmlns="http://www.w3.org/2000/svg" version="1.1" width="200" height="200" viewBox="0 0 200 200"><rect x="0" y="0" width="200" height="200" fill="#ffffff"/><g transform="scale(4.878)"><g transform="translate(0,0)"><path fill-rule="evenodd" d="M8 0L8 3L9 3L9 5L8 5L8 9L7 9L7 8L6 8L6 9L7 9L7 10L4 10L4 9L5 9L5 8L2 8L2 9L0 9L0 11L1 11L1 12L2 12L2 13L1 13L1 14L0 14L0 18L1 18L1 16L2 16L2 14L3 14L3 15L4 15L4 16L6 16L6 17L3 17L3 18L2 18L2 19L3 19L3 20L2 20L2 22L3 22L3 21L5 21L5 22L4 22L4 23L3 23L3 25L2 25L2 26L3 26L3 25L5 25L5 27L7 27L7 26L8 26L8 25L9 25L9 26L10 26L10 28L9 28L9 29L7 29L7 28L6 28L6 29L4 29L4 27L1 27L1 24L2 24L2 23L1 23L1 20L0 20L0 27L1 27L1 29L0 29L0 33L1 33L1 30L2 30L2 28L3 28L3 32L4 32L4 30L5 30L5 31L7 31L7 32L5 32L5 33L7 33L7 32L10 32L10 33L8 33L8 34L11 34L11 35L12 35L12 36L8 36L8 39L10 39L10 38L12 38L12 36L13 36L13 37L15 37L15 36L16 36L16 37L17 37L17 39L15 39L15 40L14 40L14 39L13 39L13 41L16 41L16 40L18 40L18 41L19 41L19 40L20 40L20 41L21 41L21 40L22 40L22 39L23 39L23 40L25 40L25 41L27 41L27 40L28 40L28 39L29 39L29 38L27 38L27 36L28 36L28 37L29 37L29 36L32 36L32 37L30 37L30 38L33 38L33 39L30 39L30 40L29 40L29 41L30 41L30 40L33 40L33 41L34 41L34 40L33 40L33 39L35 39L35 40L36 40L36 39L37 39L37 40L40 40L40 38L41 38L41 37L40 37L40 36L37 36L37 35L38 35L38 34L39 34L39 35L40 35L40 34L41 34L41 33L39 33L39 32L40 32L40 30L41 30L41 29L39 29L39 32L38 32L38 31L37 31L37 30L38 30L38 29L36 29L36 28L38 28L38 26L39 26L39 28L40 28L40 26L41 26L41 23L39 23L39 22L38 22L38 21L39 21L39 20L36 20L36 19L35 19L35 17L36 17L36 18L37 18L37 19L38 19L38 18L39 18L39 19L40 19L40 18L41 18L41 16L40 16L40 18L39 18L39 16L38 16L38 15L40 15L40 14L41 14L41 13L40 13L40 12L41 12L41 11L40 11L40 10L41 10L41 8L38 8L38 9L40 9L40 10L37 10L37 9L36 9L36 8L32 8L32 7L33 7L33 6L32 6L32 7L31 7L31 5L32 5L32 4L33 4L33 1L32 1L32 0L31 0L31 1L32 1L32 2L30 2L30 0L29 0L29 1L27 1L27 0L26 0L26 1L27 1L27 2L26 2L26 3L32 3L32 4L28 4L28 5L27 5L27 4L25 4L25 3L24 3L24 2L25 2L25 0L20 0L20 2L22 2L22 4L21 4L21 6L20 6L20 7L19 7L19 6L18 6L18 5L19 5L19 0L16 0L16 2L17 2L17 1L18 1L18 4L16 4L16 5L15 5L15 6L14 6L14 5L11 5L11 4L14 4L14 2L15 2L15 0L12 0L12 1L11 1L11 2L13 2L13 3L11 3L11 4L10 4L10 3L9 3L9 2L10 2L10 0ZM23 1L23 2L24 2L24 1ZM23 3L23 5L22 5L22 6L21 6L21 7L20 7L20 8L22 8L22 9L20 9L20 10L19 10L19 11L18 11L18 9L19 9L19 8L18 8L18 9L15 9L15 8L13 8L13 7L14 7L14 6L13 6L13 7L12 7L12 6L11 6L11 7L10 7L10 5L9 5L9 7L10 7L10 8L11 8L11 9L9 9L9 10L8 10L8 11L4 11L4 10L3 10L3 9L2 9L2 10L3 10L3 11L2 11L2 12L3 12L3 14L4 14L4 15L6 15L6 16L7 16L7 17L6 17L6 18L5 18L5 19L6 19L6 20L5 20L5 21L6 21L6 22L7 22L7 23L5 23L5 25L6 25L6 26L7 26L7 25L8 25L8 24L10 24L10 23L12 23L12 24L13 24L13 25L15 25L15 24L13 24L13 22L11 22L11 21L13 21L13 18L14 18L14 17L13 17L13 16L12 16L12 15L11 15L11 16L10 16L10 15L8 15L8 16L7 16L7 15L6 15L6 14L7 14L7 13L8 13L8 14L9 14L9 13L10 13L10 14L13 14L13 15L14 15L14 16L16 16L16 17L18 17L18 18L15 18L15 19L14 19L14 23L16 23L16 24L18 24L18 26L19 26L19 25L20 25L20 27L21 27L21 29L19 29L19 30L20 30L20 32L19 32L19 31L18 31L18 30L17 30L17 29L18 29L18 28L19 28L19 27L18 27L18 28L17 28L17 25L16 25L16 26L14 26L14 27L13 27L13 26L11 26L11 28L10 28L10 30L11 30L11 31L10 31L10 32L11 32L11 31L13 31L13 32L12 32L12 33L11 33L11 34L13 34L13 35L14 35L14 34L15 34L15 35L17 35L17 36L18 36L18 35L19 35L19 36L20 36L20 34L19 34L19 33L20 33L20 32L22 32L22 34L21 34L21 35L24 35L24 36L25 36L25 37L23 37L23 36L22 36L22 38L20 38L20 37L18 37L18 40L19 40L19 39L22 39L22 38L23 38L23 39L24 39L24 38L25 38L25 39L26 39L26 40L27 40L27 38L25 38L25 37L26 37L26 35L27 35L27 34L28 34L28 33L29 33L29 32L30 32L30 31L31 31L31 30L32 30L32 31L33 31L33 32L35 32L35 31L34 31L34 30L36 30L36 29L35 29L35 28L36 28L36 25L39 25L39 26L40 26L40 24L39 24L39 23L38 23L38 22L37 22L37 24L36 24L36 23L35 23L35 22L36 22L36 21L35 21L35 19L34 19L34 18L33 18L33 17L32 17L32 16L34 16L34 17L35 17L35 16L36 16L36 17L37 17L37 18L38 18L38 16L36 16L36 15L37 15L37 14L40 14L40 13L39 13L39 11L38 11L38 12L35 12L35 13L34 13L34 12L33 12L33 11L34 11L34 9L32 9L32 8L31 8L31 7L30 7L30 5L28 5L28 6L27 6L27 5L25 5L25 4L24 4L24 3ZM24 5L24 7L23 7L23 6L22 6L22 7L23 7L23 9L22 9L22 10L23 10L23 9L26 9L26 8L27 8L27 9L30 9L30 10L27 10L27 11L26 11L26 10L25 10L25 11L24 11L24 14L25 14L25 13L26 13L26 14L30 14L30 16L29 16L29 15L28 15L28 16L29 16L29 17L30 17L30 19L31 19L31 18L32 18L32 17L30 17L30 16L31 16L31 12L32 12L32 13L33 13L33 14L32 14L32 15L34 15L34 13L33 13L33 12L32 12L32 11L33 11L33 10L32 10L32 9L30 9L30 8L29 8L29 6L28 6L28 7L27 7L27 6L26 6L26 7L25 7L25 5ZM15 6L15 7L16 7L16 6ZM17 6L17 7L18 7L18 6ZM11 7L11 8L12 8L12 9L11 9L11 10L10 10L10 12L11 12L11 13L12 13L12 12L11 12L11 10L12 10L12 11L13 11L13 10L14 10L14 12L13 12L13 14L14 14L14 12L15 12L15 11L16 11L16 10L14 10L14 9L13 9L13 8L12 8L12 7ZM24 7L24 8L25 8L25 7ZM12 9L12 10L13 10L13 9ZM35 9L35 10L36 10L36 9ZM20 10L20 11L19 11L19 12L20 12L20 13L21 13L21 14L20 14L20 15L19 15L19 14L18 14L18 15L17 15L17 14L16 14L16 13L18 13L18 11L17 11L17 12L16 12L16 13L15 13L15 14L16 14L16 15L17 15L17 16L18 16L18 17L19 17L19 18L18 18L18 19L22 19L22 18L23 18L23 20L24 20L24 21L21 21L21 20L19 20L19 21L18 21L18 20L17 20L17 19L16 19L16 21L18 21L18 23L19 23L19 24L20 24L20 23L22 23L22 25L21 25L21 27L22 27L22 28L23 28L23 29L21 29L21 30L22 30L22 32L25 32L25 33L28 33L28 31L29 31L29 30L28 30L28 29L31 29L31 28L27 28L27 29L26 29L26 27L29 27L29 26L30 26L30 25L31 25L31 26L32 26L32 27L34 27L34 26L35 26L35 25L36 25L36 24L35 24L35 23L34 23L34 22L35 22L35 21L34 21L34 20L33 20L33 19L32 19L32 20L33 20L33 21L31 21L31 20L30 20L30 21L31 21L31 22L29 22L29 21L28 21L28 20L27 20L27 21L28 21L28 22L27 22L27 24L26 24L26 23L25 23L25 24L23 24L23 23L22 23L22 22L25 22L25 19L29 19L29 18L27 18L27 17L26 17L26 18L25 18L25 17L24 17L24 16L25 16L25 15L23 15L23 14L22 14L22 11L21 11L21 10ZM31 10L31 11L28 11L28 13L29 13L29 12L31 12L31 11L32 11L32 10ZM3 11L3 12L4 12L4 13L5 13L5 14L6 14L6 13L7 13L7 12L4 12L4 11ZM20 11L20 12L21 12L21 11ZM25 11L25 12L26 12L26 13L27 13L27 12L26 12L26 11ZM36 13L36 14L35 14L35 15L36 15L36 14L37 14L37 13ZM21 14L21 16L19 16L19 15L18 15L18 16L19 16L19 17L20 17L20 18L21 18L21 16L22 16L22 17L23 17L23 18L24 18L24 19L25 19L25 18L24 18L24 17L23 17L23 15L22 15L22 14ZM26 15L26 16L27 16L27 15ZM7 17L7 18L6 18L6 19L7 19L7 20L6 20L6 21L7 21L7 22L8 22L8 23L10 23L10 22L9 22L9 21L8 21L8 20L10 20L10 21L11 21L11 19L12 19L12 18L13 18L13 17L12 17L12 18L11 18L11 17L10 17L10 18L9 18L9 19L8 19L8 17ZM3 18L3 19L4 19L4 18ZM10 18L10 19L11 19L11 18ZM40 20L40 21L41 21L41 20ZM19 21L19 22L20 22L20 21ZM33 21L33 22L31 22L31 23L33 23L33 22L34 22L34 21ZM16 22L16 23L17 23L17 22ZM29 23L29 24L30 24L30 23ZM6 24L6 25L7 25L7 24ZM31 24L31 25L33 25L33 26L34 26L34 25L35 25L35 24L34 24L34 25L33 25L33 24ZM26 25L26 26L24 26L24 27L23 27L23 28L25 28L25 27L26 27L26 26L29 26L29 25ZM12 27L12 28L13 28L13 29L11 29L11 30L13 30L13 29L14 29L14 30L15 30L15 31L14 31L14 32L15 32L15 33L17 33L17 35L18 35L18 33L19 33L19 32L15 32L15 31L17 31L17 30L16 30L16 29L17 29L17 28L16 28L16 29L15 29L15 28L13 28L13 27ZM33 28L33 29L32 29L32 30L33 30L33 29L34 29L34 28ZM6 29L6 30L7 30L7 29ZM23 29L23 31L25 31L25 32L26 32L26 31L25 31L25 29ZM37 32L37 34L38 34L38 32ZM13 33L13 34L14 34L14 33ZM23 33L23 34L24 34L24 33ZM30 33L30 35L31 35L31 34L32 34L32 33ZM33 33L33 36L36 36L36 33ZM34 34L34 35L35 35L35 34ZM28 35L28 36L29 36L29 35ZM9 37L9 38L10 38L10 37ZM33 37L33 38L36 38L36 37ZM37 38L37 39L38 39L38 38ZM9 40L9 41L12 41L12 40ZM0 0L0 7L7 7L7 0ZM1 1L1 6L6 6L6 1ZM2 2L2 5L5 5L5 2ZM34 0L34 7L41 7L41 0ZM35 1L35 6L40 6L40 1ZM36 2L36 5L39 5L39 2ZM0 34L0 41L7 41L7 34ZM1 35L1 40L6 40L6 35ZM2 36L2 39L5 39L5 36Z" fill="#000000"/></g></g></svg>
