<?xml version="1.0" encoding="UTF-8"?>
<svg xmlns="http://www.w3.org/2000/svg" version="1.1" width="200" height="200" viewBox="0 0 200 200"><rect x="0" y="0" width="200" height="200" fill="#ffffff"/><g transform="scale(4.878)"><g transform="translate(0,0)"><path fill-rule="evenodd" d="M9 0L9 1L8 1L8 2L9 2L9 5L8 5L8 8L4 8L4 9L7 9L7 10L6 10L6 11L5 11L5 13L4 13L4 12L1 12L1 10L2 10L2 11L4 11L4 10L2 10L2 9L0 9L0 12L1 12L1 13L0 13L0 16L2 16L2 17L0 17L0 20L1 20L1 21L0 21L0 23L1 23L1 21L2 21L2 19L3 19L3 21L5 21L5 24L4 24L4 22L2 22L2 25L1 25L1 24L0 24L0 25L1 25L1 26L0 26L0 30L1 30L1 27L2 27L2 28L3 28L3 27L2 27L2 26L3 26L3 24L4 24L4 26L5 26L5 27L4 27L4 29L5 29L5 27L7 27L7 28L6 28L6 29L7 29L7 30L5 30L5 31L7 31L7 30L8 30L8 31L10 31L10 32L11 32L11 31L12 31L12 32L13 32L13 31L12 31L12 29L11 29L11 28L10 28L10 27L11 27L11 26L10 26L10 25L9 25L9 24L10 24L10 23L8 23L8 25L9 25L9 26L5 26L5 25L7 25L7 24L6 24L6 23L7 23L7 22L6 22L6 21L8 21L8 20L9 20L9 21L10 21L10 20L11 20L11 19L12 19L12 18L13 18L13 19L14 19L14 18L13 18L13 17L15 17L15 21L14 21L14 22L13 22L13 24L15 24L15 25L12 25L12 24L11 24L11 25L12 25L12 28L13 28L13 29L14 29L14 30L15 30L15 31L14 31L14 32L17 32L17 34L16 34L16 33L15 33L15 34L16 34L16 35L17 35L17 36L15 36L15 35L14 35L14 33L11 33L11 34L10 34L10 33L8 33L8 32L4 32L4 30L2 30L2 32L0 32L0 33L2 33L2 32L4 32L4 33L8 33L8 37L10 37L10 39L9 39L9 40L10 40L10 41L16 41L16 40L17 40L17 39L18 39L18 38L17 38L17 39L16 39L16 40L15 40L15 38L16 38L16 37L19 37L19 38L20 38L20 37L19 37L19 36L20 36L20 34L21 34L21 35L22 35L22 37L21 37L21 39L22 39L22 40L21 40L21 41L23 41L23 37L26 37L26 38L24 38L24 40L27 40L27 39L28 39L28 41L31 41L31 40L30 40L30 39L31 39L31 37L32 37L32 38L33 38L33 37L36 37L36 38L37 38L37 35L38 35L38 34L39 34L39 35L40 35L40 38L38 38L38 39L36 39L36 40L37 40L37 41L40 41L40 40L41 40L41 29L40 29L40 28L38 28L38 26L37 26L37 25L39 25L39 27L41 27L41 24L40 24L40 23L41 23L41 22L40 22L40 21L41 21L41 13L39 13L39 12L41 12L41 9L40 9L40 8L39 8L39 9L36 9L36 8L34 8L34 9L32 9L32 8L33 8L33 6L32 6L32 5L33 5L33 2L32 2L32 1L33 1L33 0L32 0L32 1L31 1L31 2L32 2L32 5L31 5L31 3L29 3L29 5L28 5L28 4L27 4L27 5L26 5L26 4L25 4L25 5L24 5L24 4L23 4L23 2L24 2L24 3L25 3L25 2L26 2L26 3L28 3L28 2L30 2L30 0L29 0L29 1L28 1L28 0L27 0L27 1L26 1L26 0L25 0L25 2L24 2L24 0L23 0L23 1L22 1L22 0L17 0L17 1L16 1L16 2L13 2L13 3L15 3L15 4L14 4L14 5L13 5L13 4L11 4L11 5L10 5L10 3L12 3L12 1L13 1L13 0L11 0L11 2L9 2L9 1L10 1L10 0ZM18 1L18 2L16 2L16 4L17 4L17 7L16 7L16 6L15 6L15 7L14 7L14 6L13 6L13 8L14 8L14 9L11 9L11 8L12 8L12 5L11 5L11 8L10 8L10 9L9 9L9 8L8 8L8 10L7 10L7 11L6 11L6 12L7 12L7 13L5 13L5 14L4 14L4 13L3 13L3 15L2 15L2 14L1 14L1 15L2 15L2 16L3 16L3 15L5 15L5 14L7 14L7 15L6 15L6 16L4 16L4 17L3 17L3 18L4 18L4 19L5 19L5 20L8 20L8 19L6 19L6 18L7 18L7 17L8 17L8 16L10 16L10 15L11 15L11 14L10 14L10 13L9 13L9 14L8 14L8 12L9 12L9 11L10 11L10 10L12 10L12 11L11 11L11 12L12 12L12 13L14 13L14 14L13 14L13 15L12 15L12 16L11 16L11 18L9 18L9 19L11 19L11 18L12 18L12 17L13 17L13 16L14 16L14 15L15 15L15 13L14 13L14 12L15 12L15 11L16 11L16 15L19 15L19 14L18 14L18 13L19 13L19 12L20 12L20 13L22 13L22 14L20 14L20 16L21 16L21 17L20 17L20 20L19 20L19 21L18 21L18 20L17 20L17 19L19 19L19 17L18 17L18 18L17 18L17 17L16 17L16 16L15 16L15 17L16 17L16 21L15 21L15 22L14 22L14 23L15 23L15 24L16 24L16 25L15 25L15 26L13 26L13 28L14 28L14 29L15 29L15 27L16 27L16 29L17 29L17 32L19 32L19 33L20 33L20 32L19 32L19 31L21 31L21 32L22 32L22 35L23 35L23 36L24 36L24 35L23 35L23 32L25 32L25 31L26 31L26 32L27 32L27 33L28 33L28 34L29 34L29 35L27 35L27 34L26 34L26 33L25 33L25 36L26 36L26 37L28 37L28 38L29 38L29 39L30 39L30 37L31 37L31 36L32 36L32 35L30 35L30 34L32 34L32 32L31 32L31 33L30 33L30 34L29 34L29 33L28 33L28 32L27 32L27 30L28 30L28 31L31 31L31 30L30 30L30 29L32 29L32 31L33 31L33 32L34 32L34 31L35 31L35 32L37 32L37 34L38 34L38 33L39 33L39 34L40 34L40 31L38 31L38 30L36 30L36 31L35 31L35 29L37 29L37 27L35 27L35 28L34 28L34 27L33 27L33 26L34 26L34 25L35 25L35 26L36 26L36 25L37 25L37 24L39 24L39 23L40 23L40 22L38 22L38 23L37 23L37 22L36 22L36 21L35 21L35 20L36 20L36 19L35 19L35 18L36 18L36 17L37 17L37 21L39 21L39 20L40 20L40 17L39 17L39 16L40 16L40 15L39 15L39 14L38 14L38 15L37 15L37 14L36 14L36 13L37 13L37 10L36 10L36 9L35 9L35 10L33 10L33 11L34 11L34 12L35 12L35 13L33 13L33 12L32 12L32 13L33 13L33 14L36 14L36 15L35 15L35 16L34 16L34 15L32 15L32 14L30 14L30 15L31 15L31 16L32 16L32 17L29 17L29 15L28 15L28 13L29 13L29 12L28 12L28 11L27 11L27 12L24 12L24 11L26 11L26 10L27 10L27 9L28 9L28 10L29 10L29 11L30 11L30 12L31 12L31 11L32 11L32 9L28 9L28 8L29 8L29 7L30 7L30 8L32 8L32 6L31 6L31 7L30 7L30 5L29 5L29 7L28 7L28 5L27 5L27 7L26 7L26 5L25 5L25 7L26 7L26 8L27 8L27 9L26 9L26 10L24 10L24 9L23 9L23 7L24 7L24 6L23 6L23 5L22 5L22 3L21 3L21 4L20 4L20 3L18 3L18 2L20 2L20 1ZM27 1L27 2L28 2L28 1ZM19 4L19 5L20 5L20 7L19 7L19 6L18 6L18 7L19 7L19 8L18 8L18 9L20 9L20 10L21 10L21 12L22 12L22 13L24 13L24 12L23 12L23 9L22 9L22 7L23 7L23 6L22 6L22 5L20 5L20 4ZM9 6L9 7L10 7L10 6ZM21 6L21 7L20 7L20 8L21 8L21 7L22 7L22 6ZM15 7L15 10L13 10L13 11L12 11L12 12L13 12L13 11L15 11L15 10L16 10L16 11L19 11L19 10L16 10L16 9L17 9L17 8L16 8L16 7ZM21 9L21 10L22 10L22 9ZM30 10L30 11L31 11L31 10ZM7 11L7 12L8 12L8 11ZM35 11L35 12L36 12L36 11ZM38 11L38 12L39 12L39 11ZM26 13L26 14L25 14L25 19L23 19L23 22L24 22L24 20L26 20L26 21L25 21L25 22L27 22L27 23L26 23L26 24L25 24L25 23L22 23L22 19L21 19L21 20L20 20L20 21L21 21L21 23L22 23L22 24L21 24L21 25L19 25L19 23L17 23L17 21L16 21L16 23L17 23L17 24L18 24L18 25L19 25L19 26L17 26L17 27L19 27L19 29L18 29L18 30L19 30L19 29L20 29L20 30L21 30L21 31L22 31L22 32L23 32L23 29L24 29L24 31L25 31L25 30L26 30L26 29L25 29L25 28L26 28L26 27L27 27L27 29L30 29L30 28L31 28L31 25L32 25L32 26L33 26L33 25L34 25L34 23L35 23L35 25L36 25L36 23L35 23L35 21L33 21L33 20L32 20L32 19L30 19L30 18L29 18L29 19L28 19L28 16L27 16L27 15L26 15L26 14L27 14L27 13ZM23 14L23 16L22 16L22 18L24 18L24 17L23 17L23 16L24 16L24 14ZM7 15L7 16L6 16L6 17L7 17L7 16L8 16L8 15ZM26 16L26 17L27 17L27 16ZM35 16L35 17L34 17L34 18L35 18L35 17L36 17L36 16ZM4 17L4 18L5 18L5 17ZM32 17L32 18L33 18L33 17ZM38 17L38 18L39 18L39 17ZM1 18L1 19L2 19L2 18ZM34 19L34 20L35 20L35 19ZM12 20L12 21L11 21L11 22L12 22L12 21L13 21L13 20ZM29 20L29 21L28 21L28 23L29 23L29 21L30 21L30 23L34 23L34 22L33 22L33 21L30 21L30 20ZM22 24L22 25L21 25L21 28L20 28L20 29L21 29L21 30L22 30L22 29L23 29L23 28L22 28L22 27L24 27L24 28L25 28L25 27L24 27L24 26L27 26L27 25L25 25L25 24L24 24L24 26L22 26L22 25L23 25L23 24ZM30 24L30 25L31 25L31 24ZM32 24L32 25L33 25L33 24ZM28 25L28 26L29 26L29 25ZM8 28L8 30L10 30L10 31L11 31L11 29L10 29L10 28ZM32 28L32 29L33 29L33 30L34 30L34 29L33 29L33 28ZM39 29L39 30L40 30L40 29ZM33 33L33 36L36 36L36 33ZM9 34L9 35L10 35L10 34ZM11 34L11 35L13 35L13 37L15 37L15 36L14 36L14 35L13 35L13 34ZM34 34L34 35L35 35L35 34ZM26 35L26 36L27 36L27 35ZM11 36L11 38L12 38L12 36ZM28 36L28 37L29 37L29 36ZM13 38L13 39L14 39L14 38ZM10 39L10 40L11 40L11 39ZM19 39L19 40L18 40L18 41L20 41L20 39ZM32 39L32 41L33 41L33 39ZM34 39L34 40L35 40L35 39ZM0 0L0 7L7 7L7 0ZM1 1L1 6L6 6L6 1ZM2 2L2 5L5 5L5 2ZM34 0L34 7L41 7L41 0ZM35 1L35 6L40 6L40 1ZM36 2L36 5L39 5L39 2ZM0 34L0 41L7 41L7 34ZM1 35L1 40L6 40L6 35ZM2 36L2 39L5 39L5 36Z" fill="#000000"/></g></g></svg>
