<?xml version="1.0" encoding="UTF-8"?>
<svg xmlns="http://www.w3.org/2000/svg" version="1.1" width="200" height="200" viewBox="0 0 200 200"><rect x="0" y="0" width="200" height="200" fill="#ffffff"/><g transform="scale(4.878)"><g transform="translate(0,0)"><path fill-rule="evenodd" d="M10 0L10 1L9 1L9 2L8 2L8 4L10 4L10 8L9 8L9 9L8 9L8 8L6 8L6 9L5 9L5 8L3 8L3 9L1 9L1 11L0 11L0 12L1 12L1 13L0 13L0 15L2 15L2 14L3 14L3 15L5 15L5 16L6 16L6 17L7 17L7 16L6 16L6 15L7 15L7 14L3 14L3 12L2 12L2 11L4 11L4 9L5 9L5 13L8 13L8 14L10 14L10 15L9 15L9 17L10 17L10 18L9 18L9 19L8 19L8 18L6 18L6 19L7 19L7 20L6 20L6 21L7 21L7 22L5 22L5 23L2 23L2 22L4 22L4 21L2 21L2 19L3 19L3 20L5 20L5 18L4 18L4 16L3 16L3 18L2 18L2 16L0 16L0 18L1 18L1 19L0 19L0 21L1 21L1 22L0 22L0 27L1 27L1 28L0 28L0 33L5 33L5 32L6 32L6 33L8 33L8 35L10 35L10 36L8 36L8 38L9 38L9 37L11 37L11 38L10 38L10 39L9 39L9 40L10 40L10 41L11 41L11 40L12 40L12 39L13 39L13 41L20 41L20 39L21 39L21 40L22 40L22 41L23 41L23 40L24 40L24 39L25 39L25 40L26 40L26 41L27 41L27 39L28 39L28 41L29 41L29 39L28 39L28 36L29 36L29 37L30 37L30 39L31 39L31 40L30 40L30 41L31 41L31 40L32 40L32 41L34 41L34 40L35 40L35 41L36 41L36 39L37 39L37 40L38 40L38 41L39 41L39 40L38 40L38 39L40 39L40 40L41 40L41 36L40 36L40 34L39 34L39 33L41 33L41 32L39 32L39 31L41 31L41 30L38 30L38 29L40 29L40 28L41 28L41 25L39 25L39 24L37 24L37 23L39 23L39 22L41 22L41 21L39 21L39 20L40 20L40 19L41 19L41 18L40 18L40 17L41 17L41 12L40 12L40 13L39 13L39 12L38 12L38 10L39 10L39 11L40 11L40 9L39 9L39 8L37 8L37 9L36 9L36 10L37 10L37 11L35 11L35 10L34 10L34 9L33 9L33 10L32 10L32 8L33 8L33 6L32 6L32 8L31 8L31 6L30 6L30 5L32 5L32 4L33 4L33 3L32 3L32 2L33 2L33 1L31 1L31 0L30 0L30 1L29 1L29 0L28 0L28 2L27 2L27 1L26 1L26 0L25 0L25 1L24 1L24 0L23 0L23 1L24 1L24 2L25 2L25 3L24 3L24 4L25 4L25 3L26 3L26 4L28 4L28 2L29 2L29 3L32 3L32 4L29 4L29 6L28 6L28 7L27 7L27 6L26 6L26 7L25 7L25 5L23 5L23 4L22 4L22 5L21 5L21 4L19 4L19 3L18 3L18 2L19 2L19 0L18 0L18 2L17 2L17 1L14 1L14 0L13 0L13 1L12 1L12 3L13 3L13 4L14 4L14 7L13 7L13 5L11 5L11 4L10 4L10 2L11 2L11 0ZM20 0L20 3L23 3L23 2L21 2L21 1L22 1L22 0ZM30 1L30 2L31 2L31 1ZM13 2L13 3L14 3L14 4L16 4L16 6L15 6L15 7L14 7L14 8L15 8L15 9L14 9L14 10L15 10L15 11L14 11L14 12L15 12L15 14L17 14L17 15L15 15L15 16L14 16L14 15L11 15L11 16L10 16L10 17L11 17L11 16L12 16L12 18L10 18L10 21L12 21L12 22L11 22L11 23L10 23L10 24L9 24L9 22L7 22L7 23L5 23L5 25L4 25L4 26L5 26L5 29L3 29L3 30L2 30L2 28L1 28L1 30L2 30L2 32L4 32L4 30L5 30L5 29L6 29L6 30L8 30L8 31L6 31L6 32L8 32L8 33L11 33L11 32L13 32L13 33L14 33L14 34L10 34L10 35L12 35L12 36L11 36L11 37L13 37L13 39L14 39L14 40L15 40L15 39L14 39L14 38L15 38L15 37L16 37L16 39L19 39L19 38L20 38L20 37L21 37L21 36L20 36L20 35L18 35L18 34L17 34L17 36L19 36L19 37L16 37L16 36L15 36L15 37L13 37L13 36L14 36L14 35L16 35L16 33L17 33L17 32L18 32L18 33L19 33L19 34L20 34L20 33L22 33L22 34L23 34L23 35L24 35L24 36L26 36L26 37L27 37L27 36L28 36L28 35L29 35L29 36L30 36L30 37L31 37L31 38L32 38L32 40L33 40L33 38L32 38L32 37L31 37L31 36L32 36L32 35L31 35L31 33L32 33L32 32L33 32L33 31L34 31L34 32L35 32L35 30L33 30L33 31L32 31L32 27L31 27L31 26L32 26L32 25L33 25L33 26L34 26L34 24L35 24L35 26L36 26L36 25L37 25L37 27L39 27L39 28L40 28L40 27L39 27L39 25L37 25L37 24L35 24L35 23L36 23L36 21L34 21L34 22L33 22L33 23L34 23L34 24L32 24L32 25L30 25L30 24L28 24L28 23L29 23L29 22L28 22L28 23L27 23L27 24L26 24L26 21L27 21L27 20L28 20L28 21L30 21L30 22L31 22L31 23L32 23L32 22L31 22L31 21L30 21L30 20L32 20L32 19L34 19L34 20L35 20L35 17L38 17L38 18L36 18L36 20L38 20L38 19L39 19L39 17L40 17L40 16L36 16L36 15L35 15L35 16L34 16L34 17L33 17L33 16L32 16L32 15L31 15L31 14L30 14L30 12L29 12L29 14L30 14L30 15L28 15L28 13L27 13L27 12L28 12L28 11L29 11L29 10L30 10L30 11L32 11L32 10L31 10L31 9L28 9L28 11L26 11L26 10L27 10L27 7L26 7L26 8L25 8L25 9L24 9L24 6L23 6L23 5L22 5L22 6L21 6L21 5L20 5L20 6L19 6L19 5L18 5L18 4L17 4L17 3L16 3L16 2ZM8 6L8 7L9 7L9 6ZM11 6L11 7L12 7L12 9L13 9L13 7L12 7L12 6ZM16 6L16 7L15 7L15 8L16 8L16 9L17 9L17 10L18 10L18 11L17 11L17 12L16 12L16 13L17 13L17 14L18 14L18 13L20 13L20 12L19 12L19 10L20 10L20 9L22 9L22 10L21 10L21 11L22 11L22 12L21 12L21 13L23 13L23 14L21 14L21 16L20 16L20 18L21 18L21 19L20 19L20 20L18 20L18 22L19 22L19 23L18 23L18 24L19 24L19 23L20 23L20 22L19 22L19 21L22 21L22 22L21 22L21 23L22 23L22 22L23 22L23 23L24 23L24 25L22 25L22 26L21 26L21 27L20 27L20 26L19 26L19 27L20 27L20 28L19 28L19 30L18 30L18 32L19 32L19 33L20 33L20 28L21 28L21 29L22 29L22 31L21 31L21 32L23 32L23 33L24 33L24 32L23 32L23 31L24 31L24 29L23 29L23 28L21 28L21 27L22 27L22 26L23 26L23 27L24 27L24 26L26 26L26 27L25 27L25 28L26 28L26 29L27 29L27 27L28 27L28 30L27 30L27 31L28 31L28 30L29 30L29 31L30 31L30 32L27 32L27 33L26 33L26 32L25 32L25 33L26 33L26 34L24 34L24 35L26 35L26 36L27 36L27 35L28 35L28 33L29 33L29 34L30 34L30 33L31 33L31 30L30 30L30 29L31 29L31 28L30 28L30 29L29 29L29 26L30 26L30 25L29 25L29 26L28 26L28 25L27 25L27 26L26 26L26 24L25 24L25 23L24 23L24 22L25 22L25 20L24 20L24 19L22 19L22 18L21 18L21 16L22 16L22 17L23 17L23 18L24 18L24 16L25 16L25 19L28 19L28 20L29 20L29 19L32 19L32 17L31 17L31 15L30 15L30 17L27 17L27 16L28 16L28 15L27 15L27 14L25 14L25 13L26 13L26 12L24 12L24 11L25 11L25 10L23 10L23 9L22 9L22 8L21 8L21 6L20 6L20 7L19 7L19 6L18 6L18 7L19 7L19 8L16 8L16 7L17 7L17 6ZM22 6L22 7L23 7L23 6ZM29 6L29 8L30 8L30 6ZM6 9L6 10L7 10L7 11L6 11L6 12L12 12L12 13L13 13L13 14L14 14L14 13L13 13L13 12L12 12L12 10L11 10L11 11L10 11L10 9L9 9L9 10L8 10L8 9ZM37 9L37 10L38 10L38 9ZM22 10L22 11L23 11L23 10ZM33 10L33 12L32 12L32 13L33 13L33 14L36 14L36 13L37 13L37 12L36 12L36 13L35 13L35 11L34 11L34 10ZM10 13L10 14L11 14L11 13ZM38 13L38 14L37 14L37 15L39 15L39 13ZM19 14L19 15L20 15L20 14ZM23 14L23 15L22 15L22 16L24 16L24 14ZM25 15L25 16L27 16L27 15ZM13 16L13 17L14 17L14 16ZM15 16L15 18L14 18L14 19L15 19L15 20L16 20L16 21L15 21L15 22L17 22L17 20L16 20L16 19L17 19L17 18L18 18L18 19L19 19L19 18L18 18L18 17L19 17L19 16L18 16L18 17L17 17L17 18L16 18L16 16ZM26 17L26 18L27 18L27 17ZM30 17L30 18L31 18L31 17ZM3 18L3 19L4 19L4 18ZM12 18L12 19L13 19L13 18ZM28 18L28 19L29 19L29 18ZM7 20L7 21L9 21L9 20ZM12 20L12 21L13 21L13 23L12 23L12 24L10 24L10 25L9 25L9 24L8 24L8 23L7 23L7 24L6 24L6 25L5 25L5 26L6 26L6 27L7 27L7 26L8 26L8 28L9 28L9 26L11 26L11 27L12 27L12 26L13 26L13 28L14 28L14 27L17 27L17 28L18 28L18 27L17 27L17 25L15 25L15 24L16 24L16 23L14 23L14 20ZM37 21L37 22L38 22L38 21ZM1 23L1 24L2 24L2 23ZM13 23L13 24L12 24L12 25L11 25L11 26L12 26L12 25L13 25L13 24L14 24L14 23ZM1 25L1 26L2 26L2 27L3 27L3 28L4 28L4 27L3 27L3 26L2 26L2 25ZM6 25L6 26L7 26L7 25ZM8 25L8 26L9 26L9 25ZM14 25L14 26L15 26L15 25ZM6 28L6 29L7 29L7 28ZM10 28L10 29L8 29L8 30L9 30L9 31L8 31L8 32L9 32L9 31L12 31L12 30L15 30L15 32L16 32L16 30L17 30L17 29L12 29L12 28ZM34 28L34 29L38 29L38 28ZM10 29L10 30L12 30L12 29ZM37 30L37 31L38 31L38 30ZM13 31L13 32L14 32L14 31ZM37 32L37 34L38 34L38 32ZM33 33L33 36L36 36L36 33ZM34 34L34 35L35 35L35 34ZM30 35L30 36L31 36L31 35ZM38 35L38 37L37 37L37 38L40 38L40 37L39 37L39 35ZM22 36L22 37L23 37L23 36ZM34 37L34 39L35 39L35 38L36 38L36 37ZM11 38L11 39L10 39L10 40L11 40L11 39L12 39L12 38ZM21 38L21 39L24 39L24 38ZM0 0L0 7L7 7L7 0ZM1 1L1 6L6 6L6 1ZM2 2L2 5L5 5L5 2ZM34 0L34 7L41 7L41 0ZM35 1L35 6L40 6L40 1ZM36 2L36 5L39 5L39 2ZM0 34L0 41L7 41L7 34ZM1 35L1 40L6 40L6 35ZM2 36L2 39L5 39L5 36Z" fill="#000000"/></g></g></svg>
