<?xml version="1.0" encoding="UTF-8"?>
<svg xmlns="http://www.w3.org/2000/svg" version="1.1" width="200" height="200" viewBox="0 0 200 200"><rect x="0" y="0" width="200" height="200" fill="#ffffff"/><g transform="scale(6.897)"><g transform="translate(0,0)"><path fill-rule="evenodd" d="M8 0L8 1L9 1L9 0ZM11 0L11 1L10 1L10 2L9 2L9 3L8 3L8 4L9 4L9 5L11 5L11 2L12 2L12 1L13 1L13 0ZM14 0L14 1L15 1L15 2L13 2L13 3L12 3L12 4L13 4L13 6L12 6L12 8L13 8L13 9L12 9L12 12L11 12L11 13L13 13L13 14L14 14L14 15L16 15L16 14L15 14L15 13L13 13L13 12L15 12L15 11L14 11L14 10L15 10L15 8L13 8L13 6L14 6L14 7L15 7L15 5L18 5L18 7L19 7L19 5L20 5L20 7L21 7L21 0L20 0L20 1L19 1L19 2L20 2L20 3L19 3L19 4L18 4L18 3L17 3L17 2L18 2L18 1L17 1L17 0ZM16 1L16 2L15 2L15 4L16 4L16 2L17 2L17 1ZM9 3L9 4L10 4L10 3ZM8 6L8 7L9 7L9 6ZM10 6L10 7L11 7L11 6ZM16 6L16 10L17 10L17 11L16 11L16 13L17 13L17 12L18 12L18 9L17 9L17 6ZM2 8L2 11L1 11L1 13L0 13L0 14L2 14L2 13L3 13L3 14L4 14L4 15L3 15L3 16L2 16L2 15L0 15L0 17L2 17L2 19L1 19L1 18L0 18L0 19L1 19L1 20L0 20L0 21L1 21L1 20L3 20L3 21L4 21L4 20L5 20L5 21L7 21L7 20L8 20L8 22L12 22L12 23L13 23L13 24L12 24L12 25L11 25L11 24L10 24L10 23L8 23L8 25L9 25L9 26L8 26L8 27L10 27L10 28L9 28L9 29L11 29L11 28L12 28L12 29L13 29L13 28L12 28L12 27L13 27L13 26L17 26L17 25L18 25L18 28L17 28L17 27L14 27L14 29L15 29L15 28L17 28L17 29L20 29L20 25L21 25L21 26L22 26L22 25L23 25L23 26L24 26L24 25L25 25L25 26L26 26L26 27L25 27L25 28L23 28L23 27L22 27L22 28L23 28L23 29L25 29L25 28L28 28L28 29L29 29L29 26L28 26L28 25L29 25L29 24L26 24L26 23L25 23L25 20L24 20L24 19L25 19L25 18L24 18L24 17L26 17L26 18L27 18L27 20L26 20L26 21L28 21L28 22L27 22L27 23L29 23L29 21L28 21L28 19L29 19L29 18L27 18L27 17L26 17L26 14L24 14L24 13L25 13L25 11L26 11L26 13L27 13L27 12L28 12L28 14L29 14L29 12L28 12L28 11L29 11L29 8L28 8L28 9L27 9L27 10L25 10L25 9L26 9L26 8L25 8L25 9L24 9L24 10L25 10L25 11L24 11L24 12L23 12L23 10L22 10L22 8L19 8L19 11L20 11L20 12L19 12L19 14L17 14L17 16L18 16L18 17L16 17L16 18L15 18L15 19L16 19L16 18L20 18L20 17L19 17L19 16L20 16L20 15L21 15L21 14L22 14L22 15L23 15L23 16L22 16L22 17L23 17L23 18L22 18L22 19L21 19L21 20L20 20L20 19L17 19L17 20L14 20L14 18L13 18L13 20L12 20L12 18L10 18L10 16L11 16L11 17L12 17L12 16L11 16L11 15L12 15L12 14L10 14L10 12L6 12L6 11L8 11L8 10L9 10L9 11L11 11L11 10L10 10L10 9L11 9L11 8L8 8L8 10L6 10L6 9L7 9L7 8L4 8L4 9L5 9L5 12L6 12L6 13L4 13L4 10L3 10L3 8ZM13 9L13 10L14 10L14 9ZM27 10L27 11L28 11L28 10ZM21 11L21 12L22 12L22 11ZM6 13L6 14L8 14L8 15L4 15L4 16L7 16L7 17L3 17L3 20L4 20L4 18L8 18L8 19L9 19L9 21L12 21L12 22L13 22L13 23L14 23L14 21L12 21L12 20L11 20L11 19L9 19L9 14L8 14L8 13ZM20 13L20 14L19 14L19 15L20 15L20 14L21 14L21 13ZM23 14L23 15L24 15L24 16L23 16L23 17L24 17L24 16L25 16L25 15L24 15L24 14ZM27 15L27 16L28 16L28 17L29 17L29 16L28 16L28 15ZM14 16L14 17L15 17L15 16ZM23 18L23 19L24 19L24 18ZM6 19L6 20L7 20L7 19ZM17 20L17 21L16 21L16 23L17 23L17 24L16 24L16 25L17 25L17 24L19 24L19 23L17 23L17 21L18 21L18 20ZM19 20L19 21L20 21L20 20ZM21 21L21 24L24 24L24 21ZM22 22L22 23L23 23L23 22ZM13 24L13 25L12 25L12 26L10 26L10 27L12 27L12 26L13 26L13 25L15 25L15 24ZM27 26L27 27L28 27L28 26ZM0 0L0 7L7 7L7 0ZM1 1L1 6L6 6L6 1ZM2 2L2 5L5 5L5 2ZM22 0L22 7L29 7L29 0ZM23 1L23 6L28 6L28 1ZM24 2L24 5L27 5L27 2ZM0 22L0 29L7 29L7 22ZM1 23L1 28L6 28L6 23ZM2 24L2 27L5 27L5 24Z" fill="#000000"/></g></g></svg>
