<?xml version="1.0" encoding="UTF-8"?>
<svg xmlns="http://www.w3.org/2000/svg" version="1.1" width="200" height="200" viewBox="0 0 200 200"><rect x="0" y="0" width="200" height="200" fill="#ffffff"/><g transform="scale(4.878)"><g transform="translate(0,0)"><path fill-rule="evenodd" d="M8 0L8 3L9 3L9 0ZM10 0L10 2L11 2L11 4L10 4L10 5L8 5L8 9L7 9L7 8L6 8L6 9L5 9L5 8L2 8L2 9L0 9L0 11L1 11L1 10L5 10L5 12L4 12L4 14L3 14L3 11L2 11L2 13L0 13L0 16L1 16L1 17L0 17L0 19L1 19L1 18L3 18L3 19L2 19L2 20L1 20L1 21L0 21L0 24L1 24L1 23L2 23L2 20L4 20L4 21L3 21L3 22L4 22L4 23L5 23L5 22L6 22L6 23L7 23L7 24L6 24L6 25L5 25L5 24L3 24L3 25L1 25L1 26L0 26L0 33L1 33L1 29L3 29L3 30L2 30L2 32L3 32L3 33L8 33L8 34L10 34L10 35L9 35L9 36L8 36L8 39L9 39L9 41L10 41L10 39L11 39L11 41L12 41L12 39L13 39L13 40L14 40L14 41L16 41L16 40L18 40L18 41L19 41L19 40L18 40L18 38L19 38L19 37L20 37L20 38L21 38L21 39L20 39L20 40L21 40L21 41L25 41L25 40L26 40L26 39L25 39L25 40L23 40L23 39L24 39L24 37L23 37L23 36L25 36L25 38L26 38L26 37L28 37L28 38L27 38L27 40L28 40L28 41L31 41L31 40L33 40L33 41L34 41L34 40L33 40L33 38L34 38L34 39L35 39L35 40L36 40L36 39L37 39L37 40L40 40L40 38L41 38L41 37L39 37L39 36L40 36L40 34L41 34L41 33L39 33L39 32L41 32L41 31L40 31L40 30L41 30L41 29L39 29L39 32L37 32L37 31L38 31L38 30L37 30L37 29L36 29L36 28L38 28L38 26L39 26L39 28L41 28L41 27L40 27L40 26L41 26L41 23L39 23L39 24L40 24L40 26L39 26L39 25L34 25L34 24L33 24L33 23L36 23L36 24L37 24L37 23L38 23L38 22L39 22L39 20L38 20L38 18L37 18L37 17L36 17L36 16L38 16L38 17L39 17L39 16L38 16L38 14L41 14L41 13L38 13L38 14L37 14L37 13L36 13L36 14L35 14L35 15L36 15L36 16L35 16L35 17L34 17L34 16L32 16L32 17L31 17L31 16L29 16L29 15L28 15L28 16L29 16L29 17L31 17L31 18L30 18L30 19L31 19L31 20L30 20L30 21L31 21L31 22L29 22L29 21L28 21L28 20L29 20L29 18L23 18L23 16L24 16L24 17L25 17L25 16L27 16L27 14L29 14L29 13L30 13L30 14L31 14L31 12L29 12L29 13L28 13L28 12L26 12L26 13L25 13L25 12L23 12L23 13L24 13L24 14L26 14L26 15L23 15L23 16L22 16L22 12L21 12L21 11L19 11L19 12L18 12L18 13L17 13L17 11L16 11L16 13L17 13L17 14L19 14L19 13L20 13L20 12L21 12L21 15L15 15L15 13L14 13L14 12L13 12L13 13L12 13L12 12L10 12L10 14L11 14L11 16L10 16L10 15L9 15L9 12L8 12L8 11L9 11L9 10L10 10L10 11L11 11L11 9L12 9L12 10L13 10L13 9L14 9L14 11L15 11L15 10L20 10L20 9L16 9L16 8L17 8L17 5L18 5L18 4L19 4L19 5L20 5L20 7L19 7L19 6L18 6L18 7L19 7L19 8L21 8L21 10L22 10L22 9L23 9L23 8L24 8L24 7L25 7L25 5L26 5L26 8L25 8L25 10L24 10L24 11L25 11L25 10L26 10L26 11L31 11L31 10L33 10L33 9L34 9L34 11L32 11L32 13L33 13L33 14L32 14L32 15L34 15L34 13L35 13L35 9L36 9L36 10L37 10L37 11L36 11L36 12L38 12L38 11L40 11L40 10L41 10L41 8L38 8L38 9L40 9L40 10L37 10L37 9L36 9L36 8L33 8L33 5L32 5L32 4L33 4L33 0L29 0L29 1L27 1L27 0L26 0L26 1L27 1L27 2L26 2L26 3L28 3L28 4L29 4L29 3L32 3L32 4L30 4L30 5L32 5L32 7L31 7L31 6L30 6L30 8L29 8L29 6L28 6L28 5L27 5L27 4L25 4L25 2L24 2L24 3L23 3L23 2L22 2L22 0L21 0L21 2L22 2L22 4L23 4L23 5L22 5L22 8L21 8L21 5L20 5L20 4L21 4L21 3L20 3L20 1L17 1L17 0L15 0L15 1L14 1L14 0ZM23 0L23 1L24 1L24 0ZM11 1L11 2L12 2L12 3L13 3L13 5L14 5L14 4L16 4L16 5L17 5L17 4L18 4L18 3L16 3L16 1L15 1L15 3L14 3L14 1L13 1L13 2L12 2L12 1ZM30 1L30 2L32 2L32 1ZM19 3L19 4L20 4L20 3ZM24 4L24 5L25 5L25 4ZM9 6L9 7L10 7L10 9L11 9L11 7L12 7L12 9L13 9L13 8L14 8L14 9L15 9L15 8L16 8L16 6L15 6L15 7L14 7L14 6L13 6L13 7L12 7L12 6L11 6L11 7L10 7L10 6ZM23 6L23 7L24 7L24 6ZM27 6L27 7L28 7L28 6ZM26 8L26 10L28 10L28 9L29 9L29 10L31 10L31 9L33 9L33 8L31 8L31 9L29 9L29 8L28 8L28 9L27 9L27 8ZM6 9L6 10L7 10L7 9ZM6 11L6 12L7 12L7 13L6 13L6 14L7 14L7 13L8 13L8 12L7 12L7 11ZM33 12L33 13L34 13L34 12ZM11 13L11 14L12 14L12 13ZM1 14L1 15L3 15L3 14ZM13 14L13 15L12 15L12 16L11 16L11 17L12 17L12 18L13 18L13 19L15 19L15 21L14 21L14 20L12 20L12 22L10 22L10 21L11 21L11 20L9 20L9 19L11 19L11 18L10 18L10 16L8 16L8 15L6 15L6 16L5 16L5 15L4 15L4 16L5 16L5 17L4 17L4 18L5 18L5 17L6 17L6 18L7 18L7 19L6 19L6 20L7 20L7 21L6 21L6 22L8 22L8 23L11 23L11 26L10 26L10 25L6 25L6 26L4 26L4 27L3 27L3 26L2 26L2 28L3 28L3 29L4 29L4 32L5 32L5 31L6 31L6 32L7 32L7 31L8 31L8 33L9 33L9 31L10 31L10 34L12 34L12 36L14 36L14 37L15 37L15 36L16 36L16 38L14 38L14 40L16 40L16 38L17 38L17 36L16 36L16 34L17 34L17 35L18 35L18 37L19 37L19 35L18 35L18 34L20 34L20 37L22 37L22 34L23 34L23 35L25 35L25 33L26 33L26 35L27 35L27 36L28 36L28 37L31 37L31 39L30 39L30 38L28 38L28 40L31 40L31 39L32 39L32 38L33 38L33 37L32 37L32 35L31 35L31 33L30 33L30 35L31 35L31 36L28 36L28 35L27 35L27 34L29 34L29 33L26 33L26 32L27 32L27 30L26 30L26 29L24 29L24 28L25 28L25 27L24 27L24 26L23 26L23 27L22 27L22 26L21 26L21 24L23 24L23 23L24 23L24 24L26 24L26 28L27 28L27 26L28 26L28 25L29 25L29 24L31 24L31 25L30 25L30 26L29 26L29 28L32 28L32 29L28 29L28 30L29 30L29 31L28 31L28 32L31 32L31 30L32 30L32 31L33 31L33 32L35 32L35 31L37 31L37 30L36 30L36 29L35 29L35 27L36 27L36 26L34 26L34 25L32 25L32 24L31 24L31 23L33 23L33 22L34 22L34 21L35 21L35 22L36 22L36 21L35 21L35 19L36 19L36 20L37 20L37 22L38 22L38 20L37 20L37 18L36 18L36 17L35 17L35 19L34 19L34 18L33 18L33 17L32 17L32 18L31 18L31 19L32 19L32 20L31 20L31 21L32 21L32 22L31 22L31 23L28 23L28 25L27 25L27 24L26 24L26 23L27 23L27 22L28 22L28 21L26 21L26 23L24 23L24 22L25 22L25 19L23 19L23 20L22 20L22 21L20 21L20 20L21 20L21 19L22 19L22 18L21 18L21 19L19 19L19 17L22 17L22 16L18 16L18 17L16 17L16 16L15 16L15 18L13 18L13 17L12 17L12 16L14 16L14 14ZM2 16L2 17L3 17L3 16ZM6 16L6 17L7 17L7 18L8 18L8 19L7 19L7 20L8 20L8 19L9 19L9 18L8 18L8 16ZM40 16L40 18L39 18L39 19L40 19L40 18L41 18L41 16ZM15 18L15 19L17 19L17 20L18 20L18 22L16 22L16 21L15 21L15 22L14 22L14 23L13 23L13 22L12 22L12 23L13 23L13 24L14 24L14 23L15 23L15 25L16 25L16 23L17 23L17 24L20 24L20 23L22 23L22 22L20 22L20 21L19 21L19 19L18 19L18 18ZM32 18L32 19L33 19L33 18ZM4 19L4 20L5 20L5 19ZM27 19L27 20L28 20L28 19ZM32 20L32 21L34 21L34 20ZM40 20L40 21L41 21L41 20ZM8 21L8 22L9 22L9 21ZM23 21L23 22L24 22L24 21ZM15 22L15 23L16 23L16 22ZM18 22L18 23L20 23L20 22ZM12 25L12 26L11 26L11 28L8 28L8 29L7 29L7 28L6 28L6 29L5 29L5 27L4 27L4 29L5 29L5 30L6 30L6 31L7 31L7 30L9 30L9 29L10 29L10 31L11 31L11 30L12 30L12 29L13 29L13 28L14 28L14 27L15 27L15 26L14 26L14 25ZM31 25L31 26L32 26L32 25ZM6 26L6 27L8 27L8 26ZM9 26L9 27L10 27L10 26ZM13 26L13 27L14 27L14 26ZM20 26L20 29L22 29L22 27L21 27L21 26ZM33 26L33 27L34 27L34 26ZM17 27L17 28L15 28L15 29L14 29L14 30L13 30L13 31L12 31L12 32L11 32L11 33L12 33L12 32L15 32L15 31L17 31L17 29L18 29L18 30L19 30L19 31L21 31L21 32L20 32L20 33L21 33L21 34L22 34L22 33L21 33L21 32L24 32L24 33L25 33L25 32L26 32L26 31L25 31L25 30L24 30L24 29L23 29L23 31L22 31L22 30L19 30L19 27ZM11 28L11 29L12 29L12 28ZM33 28L33 29L32 29L32 30L33 30L33 29L34 29L34 28ZM6 29L6 30L7 30L7 29ZM15 29L15 30L14 30L14 31L15 31L15 30L16 30L16 29ZM34 30L34 31L35 31L35 30ZM24 31L24 32L25 32L25 31ZM17 32L17 33L19 33L19 32ZM13 33L13 34L14 34L14 36L15 36L15 33ZM33 33L33 36L36 36L36 33ZM37 33L37 35L38 35L38 36L37 36L37 37L38 37L38 36L39 36L39 35L38 35L38 34L39 34L39 33ZM34 34L34 35L35 35L35 34ZM9 36L9 37L10 37L10 38L11 38L11 39L12 39L12 38L13 38L13 37L12 37L12 38L11 38L11 36ZM34 37L34 38L36 38L36 37ZM22 38L22 39L23 39L23 38ZM37 38L37 39L38 39L38 38ZM0 0L0 7L7 7L7 0ZM1 1L1 6L6 6L6 1ZM2 2L2 5L5 5L5 2ZM34 0L34 7L41 7L41 0ZM35 1L35 6L40 6L40 1ZM36 2L36 5L39 5L39 2ZM0 34L0 41L7 41L7 34ZM1 35L1 40L6 40L6 35ZM2 36L2 39L5 39L5 36Z" fill="#000000"/></g></g></svg>
