<?xml version="1.0" encoding="UTF-8"?>
<svg xmlns="http://www.w3.org/2000/svg" version="1.1" width="200" height="200" viewBox="0 0 200 200"><rect x="0" y="0" width="200" height="200" fill="#ffffff"/><g transform="scale(6.897)"><g transform="translate(0,0)"><path fill-rule="evenodd" d="M8 0L8 3L9 3L9 5L8 5L8 9L7 9L7 8L6 8L6 9L7 9L7 10L6 10L6 11L7 11L7 12L5 12L5 8L2 8L2 9L3 9L3 11L2 11L2 10L0 10L0 14L1 14L1 15L0 15L0 21L1 21L1 18L2 18L2 19L4 19L4 16L5 16L5 14L4 14L4 13L3 13L3 14L1 14L1 11L2 11L2 12L5 12L5 13L7 13L7 14L6 14L6 15L7 15L7 16L6 16L6 17L7 17L7 18L5 18L5 20L3 20L3 21L8 21L8 22L10 22L10 23L11 23L11 24L10 24L10 25L9 25L9 24L8 24L8 27L9 27L9 28L10 28L10 27L9 27L9 26L12 26L12 28L13 28L13 29L15 29L15 28L16 28L16 29L17 29L17 28L18 28L18 29L28 29L28 28L29 28L29 27L28 27L28 23L29 23L29 20L28 20L28 19L27 19L27 17L28 17L28 10L29 10L29 8L26 8L26 9L27 9L27 10L25 10L25 12L24 12L24 11L22 11L22 12L23 12L23 13L21 13L21 15L22 15L22 14L23 14L23 13L24 13L24 20L23 20L23 19L22 19L22 18L20 18L20 19L21 19L21 20L20 20L20 25L16 25L16 24L15 24L15 23L14 23L14 26L15 26L15 28L13 28L13 26L12 26L12 23L11 23L11 22L13 22L13 21L14 21L14 22L16 22L16 23L18 23L18 24L19 24L19 22L16 22L16 21L17 21L17 20L18 20L18 21L19 21L19 18L18 18L18 17L19 17L19 15L18 15L18 14L19 14L19 13L20 13L20 12L21 12L21 11L20 11L20 10L22 10L22 9L23 9L23 10L24 10L24 8L21 8L21 5L20 5L20 4L21 4L21 3L20 3L20 4L19 4L19 3L18 3L18 4L17 4L17 6L16 6L16 8L14 8L14 9L12 9L12 8L13 8L13 6L12 6L12 7L11 7L11 5L14 5L14 7L15 7L15 5L16 5L16 3L14 3L14 2L13 2L13 1L12 1L12 0L11 0L11 1L10 1L10 0ZM15 0L15 1L17 1L17 0ZM9 1L9 3L11 3L11 4L12 4L12 3L13 3L13 2L10 2L10 1ZM18 1L18 2L19 2L19 1ZM20 1L20 2L21 2L21 1ZM14 4L14 5L15 5L15 4ZM18 4L18 6L17 6L17 7L18 7L18 6L19 6L19 7L20 7L20 6L19 6L19 4ZM9 5L9 7L10 7L10 8L9 8L9 9L8 9L8 10L7 10L7 11L8 11L8 13L9 13L9 12L11 12L11 11L12 11L12 10L11 10L11 9L10 9L10 8L11 8L11 7L10 7L10 5ZM16 8L16 9L14 9L14 10L13 10L13 11L14 11L14 10L15 10L15 12L16 12L16 9L19 9L19 10L20 10L20 9L21 9L21 8L20 8L20 9L19 9L19 8ZM9 9L9 10L8 10L8 11L9 11L9 10L10 10L10 9ZM17 10L17 11L18 11L18 10ZM12 12L12 13L10 13L10 14L12 14L12 16L11 16L11 17L9 17L9 16L10 16L10 15L9 15L9 14L7 14L7 15L9 15L9 16L7 16L7 17L9 17L9 18L12 18L12 16L14 16L14 17L15 17L15 15L17 15L17 14L16 14L16 13L14 13L14 12ZM25 12L25 13L26 13L26 14L27 14L27 12ZM12 13L12 14L14 14L14 13ZM1 15L1 16L2 16L2 18L3 18L3 16L2 16L2 15ZM25 15L25 16L27 16L27 15ZM16 16L16 17L18 17L18 16ZM20 16L20 17L22 17L22 16ZM15 18L15 19L16 19L16 20L14 20L14 19L13 19L13 20L12 20L12 19L11 19L11 21L10 21L10 19L9 19L9 20L8 20L8 21L10 21L10 22L11 22L11 21L13 21L13 20L14 20L14 21L16 21L16 20L17 20L17 19L18 19L18 18ZM25 18L25 19L26 19L26 20L25 20L25 21L26 21L26 22L25 22L25 24L26 24L26 25L27 25L27 23L26 23L26 22L28 22L28 20L27 20L27 19L26 19L26 18ZM6 19L6 20L7 20L7 19ZM21 21L21 24L24 24L24 21ZM22 22L22 23L23 23L23 22ZM15 25L15 26L16 26L16 25ZM22 25L22 26L23 26L23 27L25 27L25 28L26 28L26 27L27 27L27 26L24 26L24 25ZM20 26L20 27L19 27L19 28L22 28L22 27L21 27L21 26ZM16 27L16 28L17 28L17 27ZM0 0L0 7L7 7L7 0ZM1 1L1 6L6 6L6 1ZM2 2L2 5L5 5L5 2ZM22 0L22 7L29 7L29 0ZM23 1L23 6L28 6L28 1ZM24 2L24 5L27 5L27 2ZM0 22L0 29L7 29L7 22ZM1 23L1 28L6 28L6 23ZM2 24L2 27L5 27L5 24Z" fill="#000000"/></g></g></svg>
