<?xml version="1.0" encoding="UTF-8"?>
<svg xmlns="http://www.w3.org/2000/svg" version="1.1" width="200" height="200" viewBox="0 0 200 200"><rect x="0" y="0" width="200" height="200" fill="#ffffff"/><g transform="scale(4.878)"><g transform="translate(0,0)"><path fill-rule="evenodd" d="M8 0L8 3L9 3L9 4L11 4L11 5L8 5L8 10L6 10L6 11L7 11L7 12L6 12L6 13L9 13L9 12L8 12L8 10L9 10L9 11L10 11L10 10L9 10L9 6L10 6L10 7L11 7L11 8L12 8L12 9L11 9L11 12L12 12L12 13L13 13L13 12L12 12L12 11L14 11L14 12L15 12L15 14L13 14L13 15L12 15L12 14L11 14L11 13L10 13L10 14L8 14L8 15L10 15L10 16L11 16L11 17L9 17L9 18L8 18L8 17L7 17L7 16L6 16L6 15L7 15L7 14L6 14L6 15L5 15L5 14L4 14L4 15L3 15L3 13L0 13L0 14L1 14L1 15L2 15L2 16L1 16L1 17L0 17L0 20L1 20L1 19L2 19L2 21L1 21L1 22L2 22L2 24L0 24L0 26L1 26L1 27L0 27L0 28L1 28L1 29L0 29L0 33L1 33L1 30L2 30L2 31L3 31L3 30L6 30L6 31L7 31L7 30L6 30L6 29L8 29L8 28L9 28L9 31L8 31L8 32L5 32L5 31L4 31L4 32L2 32L2 33L4 33L4 32L5 32L5 33L8 33L8 34L9 34L9 36L8 36L8 39L9 39L9 41L11 41L11 39L13 39L13 38L12 38L12 37L14 37L14 38L18 38L18 40L17 40L17 39L16 39L16 40L15 40L15 39L14 39L14 40L13 40L13 41L16 41L16 40L17 40L17 41L18 41L18 40L19 40L19 38L18 38L18 36L21 36L21 37L20 37L20 38L21 38L21 40L20 40L20 41L21 41L21 40L22 40L22 41L23 41L23 40L22 40L22 39L24 39L24 38L23 38L23 37L25 37L25 40L24 40L24 41L32 41L32 40L33 40L33 41L34 41L34 40L33 40L33 39L32 39L32 40L28 40L28 39L29 39L29 38L27 38L27 37L29 37L29 36L31 36L31 35L32 35L32 37L33 37L33 38L34 38L34 39L35 39L35 40L36 40L36 39L37 39L37 40L40 40L40 38L41 38L41 37L40 37L40 34L41 34L41 33L40 33L40 32L41 32L41 31L40 31L40 30L41 30L41 29L39 29L39 30L37 30L37 29L35 29L35 30L34 30L34 31L35 31L35 32L33 32L33 31L32 31L32 30L33 30L33 29L34 29L34 28L33 28L33 27L34 27L34 26L35 26L35 27L36 27L36 28L38 28L38 26L39 26L39 28L41 28L41 27L40 27L40 26L41 26L41 23L39 23L39 22L38 22L38 21L39 21L39 20L38 20L38 19L37 19L37 20L36 20L36 19L35 19L35 17L36 17L36 18L38 18L38 17L39 17L39 18L41 18L41 16L40 16L40 17L39 17L39 16L38 16L38 15L36 15L36 14L38 14L38 13L36 13L36 14L35 14L35 15L36 15L36 16L35 16L35 17L34 17L34 16L32 16L32 17L30 17L30 16L29 16L29 15L31 15L31 12L32 12L32 13L33 13L33 14L32 14L32 15L34 15L34 13L35 13L35 9L36 9L36 12L38 12L38 11L40 11L40 10L41 10L41 8L38 8L38 9L40 9L40 10L37 10L37 9L36 9L36 8L32 8L32 7L33 7L33 5L32 5L32 4L33 4L33 3L31 3L31 2L30 2L30 1L32 1L32 2L33 2L33 0L29 0L29 1L27 1L27 0L26 0L26 1L27 1L27 2L26 2L26 3L31 3L31 4L30 4L30 7L31 7L31 8L32 8L32 9L30 9L30 8L28 8L28 7L29 7L29 4L28 4L28 5L27 5L27 4L24 4L24 3L25 3L25 2L24 2L24 1L23 1L23 0L22 0L22 2L23 2L23 3L21 3L21 2L20 2L20 1L21 1L21 0L19 0L19 2L20 2L20 3L19 3L19 4L18 4L18 0L15 0L15 1L14 1L14 0L11 0L11 1L9 1L9 0ZM11 1L11 2L9 2L9 3L11 3L11 2L12 2L12 4L14 4L14 5L15 5L15 4L16 4L16 6L15 6L15 7L14 7L14 6L13 6L13 5L12 5L12 6L11 6L11 7L12 7L12 6L13 6L13 7L14 7L14 9L13 9L13 10L14 10L14 11L15 11L15 10L16 10L16 11L17 11L17 12L16 12L16 14L15 14L15 15L17 15L17 16L16 16L16 17L15 17L15 16L14 16L14 15L13 15L13 16L12 16L12 15L11 15L11 14L10 14L10 15L11 15L11 16L12 16L12 17L14 17L14 18L11 18L11 19L10 19L10 20L9 20L9 22L10 22L10 24L12 24L12 25L14 25L14 27L13 27L13 28L18 28L18 27L17 27L17 26L18 26L18 24L20 24L20 23L18 23L18 24L17 24L17 23L16 23L16 24L17 24L17 26L16 26L16 25L15 25L15 24L12 24L12 22L13 22L13 23L14 23L14 21L10 21L10 20L11 20L11 19L12 19L12 20L15 20L15 22L18 22L18 21L22 21L22 20L25 20L25 21L24 21L24 23L23 23L23 22L22 22L22 23L21 23L21 24L22 24L22 25L21 25L21 27L22 27L22 25L24 25L24 26L23 26L23 27L24 27L24 26L25 26L25 25L27 25L27 26L26 26L26 27L25 27L25 28L24 28L24 30L21 30L21 29L20 29L20 30L18 30L18 29L17 29L17 30L16 30L16 29L15 29L15 30L14 30L14 31L13 31L13 30L11 30L11 29L12 29L12 27L11 27L11 26L10 26L10 25L9 25L9 26L8 26L8 19L6 19L6 18L7 18L7 17L6 17L6 16L2 16L2 18L4 18L4 19L3 19L3 20L4 20L4 19L5 19L5 22L7 22L7 23L6 23L6 24L7 24L7 25L6 25L6 26L4 26L4 25L5 25L5 23L4 23L4 22L3 22L3 21L2 21L2 22L3 22L3 23L4 23L4 24L3 24L3 25L2 25L2 26L3 26L3 27L1 27L1 28L3 28L3 29L4 29L4 28L5 28L5 29L6 29L6 28L7 28L7 27L9 27L9 28L10 28L10 31L12 31L12 32L11 32L11 33L10 33L10 32L9 32L9 34L10 34L10 37L11 37L11 35L13 35L13 36L14 36L14 35L15 35L15 36L16 36L16 35L17 35L17 36L18 36L18 35L21 35L21 36L22 36L22 35L24 35L24 34L23 34L23 33L22 33L22 32L23 32L23 31L24 31L24 33L25 33L25 32L26 32L26 31L24 31L24 30L27 30L27 29L28 29L28 30L29 30L29 31L28 31L28 33L27 33L27 34L28 34L28 33L29 33L29 32L30 32L30 33L31 33L31 32L30 32L30 31L31 31L31 30L32 30L32 29L33 29L33 28L31 28L31 27L33 27L33 26L34 26L34 25L35 25L35 26L36 26L36 27L37 27L37 26L36 26L36 25L39 25L39 26L40 26L40 24L39 24L39 23L37 23L37 24L36 24L36 23L35 23L35 22L36 22L36 21L35 21L35 19L34 19L34 18L33 18L33 17L32 17L32 18L31 18L31 19L30 19L30 17L29 17L29 16L28 16L28 15L29 15L29 14L30 14L30 13L29 13L29 12L30 12L30 11L32 11L32 12L33 12L33 13L34 13L34 12L33 12L33 11L34 11L34 9L32 9L32 10L30 10L30 9L27 9L27 8L25 8L25 7L26 7L26 6L27 6L27 7L28 7L28 6L27 6L27 5L26 5L26 6L25 6L25 5L23 5L23 7L24 7L24 8L23 8L23 9L22 9L22 6L21 6L21 8L20 8L20 4L19 4L19 5L18 5L18 4L17 4L17 3L16 3L16 1L15 1L15 2L14 2L14 1ZM21 4L21 5L22 5L22 4ZM17 5L17 6L16 6L16 7L15 7L15 8L17 8L17 9L18 9L18 8L19 8L19 10L18 10L18 13L17 13L17 15L18 15L18 16L19 16L19 14L20 14L20 15L22 15L22 17L23 17L23 18L22 18L22 19L21 19L21 20L22 20L22 19L23 19L23 18L25 18L25 17L26 17L26 16L27 16L27 15L25 15L25 16L24 16L24 15L22 15L22 12L20 12L20 11L22 11L22 9L20 9L20 8L19 8L19 6L18 6L18 5ZM31 5L31 7L32 7L32 5ZM17 6L17 7L18 7L18 6ZM24 6L24 7L25 7L25 6ZM2 8L2 9L0 9L0 10L2 10L2 9L3 9L3 10L4 10L4 12L5 12L5 8ZM6 8L6 9L7 9L7 8ZM14 9L14 10L15 10L15 9ZM23 9L23 11L24 11L24 12L25 12L25 13L26 13L26 14L29 14L29 13L26 13L26 12L28 12L28 10L24 10L24 9ZM19 10L19 11L20 11L20 10ZM29 10L29 11L30 11L30 10ZM32 10L32 11L33 11L33 10ZM0 11L0 12L2 12L2 11ZM25 11L25 12L26 12L26 11ZM19 12L19 13L20 13L20 14L21 14L21 13L20 13L20 12ZM23 13L23 14L24 14L24 13ZM40 13L40 14L39 14L39 15L40 15L40 14L41 14L41 13ZM23 16L23 17L24 17L24 16ZM36 16L36 17L38 17L38 16ZM4 17L4 18L6 18L6 17ZM16 17L16 18L14 18L14 19L16 19L16 18L17 18L17 20L16 20L16 21L17 21L17 20L19 20L19 18L20 18L20 17ZM26 18L26 19L25 19L25 20L27 20L27 21L25 21L25 22L26 22L26 23L25 23L25 24L26 24L26 23L27 23L27 24L28 24L28 25L29 25L29 26L30 26L30 25L31 25L31 26L33 26L33 25L34 25L34 23L33 23L33 21L34 21L34 22L35 22L35 21L34 21L34 20L33 20L33 18L32 18L32 19L31 19L31 20L30 20L30 21L31 21L31 22L32 22L32 23L30 23L30 24L28 24L28 23L29 23L29 21L28 21L28 20L27 20L27 19L29 19L29 18ZM6 20L6 21L7 21L7 20ZM31 20L31 21L33 21L33 20ZM37 20L37 21L38 21L38 20ZM40 20L40 21L41 21L41 20ZM27 21L27 22L28 22L28 21ZM22 23L22 24L23 24L23 23ZM32 23L32 24L31 24L31 25L33 25L33 23ZM35 24L35 25L36 25L36 24ZM19 25L19 28L20 28L20 25ZM6 26L6 27L7 27L7 26ZM15 26L15 27L16 27L16 26ZM27 26L27 28L28 28L28 29L30 29L30 30L31 30L31 29L30 29L30 28L28 28L28 26ZM3 27L3 28L4 28L4 27ZM25 28L25 29L26 29L26 28ZM15 30L15 32L14 32L14 33L11 33L11 34L14 34L14 33L16 33L16 34L17 34L17 35L18 35L18 34L21 34L21 33L20 33L20 32L22 32L22 31L21 31L21 30L20 30L20 31L19 31L19 32L17 32L17 33L16 33L16 30ZM17 30L17 31L18 31L18 30ZM38 31L38 32L37 32L37 33L38 33L38 35L37 35L37 36L39 36L39 33L38 33L38 32L40 32L40 31ZM33 33L33 36L36 36L36 33ZM25 34L25 36L26 36L26 37L27 37L27 35L26 35L26 34ZM30 34L30 35L31 35L31 34ZM34 34L34 35L35 35L35 34ZM28 35L28 36L29 36L29 35ZM21 37L21 38L22 38L22 37ZM30 37L30 38L31 38L31 37ZM34 37L34 38L36 38L36 37ZM10 38L10 39L11 39L11 38ZM37 38L37 39L38 39L38 38ZM0 0L0 7L7 7L7 0ZM1 1L1 6L6 6L6 1ZM2 2L2 5L5 5L5 2ZM34 0L34 7L41 7L41 0ZM35 1L35 6L40 6L40 1ZM36 2L36 5L39 5L39 2ZM0 34L0 41L7 41L7 34ZM1 35L1 40L6 40L6 35ZM2 36L2 39L5 39L5 36Z" fill="#000000"/></g></g></svg>
