<?xml version="1.0" encoding="UTF-8"?>
<svg xmlns="http://www.w3.org/2000/svg" version="1.1" width="200" height="200" viewBox="0 0 200 200"><rect x="0" y="0" width="200" height="200" fill="#ffffff"/><g transform="scale(4.878)"><g transform="translate(0,0)"><path fill-rule="evenodd" d="M9 0L9 2L8 2L8 4L9 4L9 5L10 5L10 7L9 7L9 6L8 6L8 7L9 7L9 8L10 8L10 7L11 7L11 9L10 9L10 10L8 10L8 13L7 13L7 12L6 12L6 13L7 13L7 14L6 14L6 15L9 15L9 16L8 16L8 17L7 17L7 16L5 16L5 18L6 18L6 19L7 19L7 18L8 18L8 20L10 20L10 22L11 22L11 21L12 21L12 23L10 23L10 24L12 24L12 23L13 23L13 24L14 24L14 25L13 25L13 26L12 26L12 27L11 27L11 28L9 28L9 27L8 27L8 26L10 26L10 25L9 25L9 24L5 24L5 23L7 23L7 22L8 22L8 23L9 23L9 22L8 22L8 21L7 21L7 20L6 20L6 21L7 21L7 22L4 22L4 21L3 21L3 20L5 20L5 19L3 19L3 20L2 20L2 19L1 19L1 20L0 20L0 21L1 21L1 20L2 20L2 21L3 21L3 22L4 22L4 23L3 23L3 24L2 24L2 22L0 22L0 23L1 23L1 24L0 24L0 26L1 26L1 27L0 27L0 33L2 33L2 31L3 31L3 33L8 33L8 35L9 35L9 33L10 33L10 34L11 34L11 35L12 35L12 34L11 34L11 32L10 32L10 31L13 31L13 28L17 28L17 29L18 29L18 30L19 30L19 32L18 32L18 31L17 31L17 30L16 30L16 31L15 31L15 32L16 32L16 34L17 34L17 35L15 35L15 34L14 34L14 33L13 33L13 32L12 32L12 33L13 33L13 34L14 34L14 35L13 35L13 37L14 37L14 38L15 38L15 36L17 36L17 37L19 37L19 34L20 34L20 38L21 38L21 39L18 39L18 40L19 40L19 41L20 41L20 40L21 40L21 41L22 41L22 40L23 40L23 39L22 39L22 38L23 38L23 37L21 37L21 34L20 34L20 33L21 33L21 32L25 32L25 33L24 33L24 35L23 35L23 34L22 34L22 35L23 35L23 36L24 36L24 35L25 35L25 38L24 38L24 39L25 39L25 38L26 38L26 40L27 40L27 39L28 39L28 41L29 41L29 38L28 38L28 36L29 36L29 37L30 37L30 38L31 38L31 39L30 39L30 41L34 41L34 40L35 40L35 41L36 41L36 39L37 39L37 40L38 40L38 41L39 41L39 40L38 40L38 39L40 39L40 40L41 40L41 36L39 36L39 37L40 37L40 38L37 38L37 34L38 34L38 35L40 35L40 34L39 34L39 33L40 33L40 31L41 31L41 30L39 30L39 29L41 29L41 25L39 25L39 24L37 24L37 23L39 23L39 22L41 22L41 21L39 21L39 20L40 20L40 19L41 19L41 18L40 18L40 17L41 17L41 11L40 11L40 9L39 9L39 8L37 8L37 9L35 9L35 10L34 10L34 11L35 11L35 10L37 10L37 11L36 11L36 12L35 12L35 13L36 13L36 14L37 14L37 15L35 15L35 14L33 14L33 13L32 13L32 12L33 12L33 11L29 11L29 10L28 10L28 9L30 9L30 10L33 10L33 8L32 8L32 7L33 7L33 4L30 4L30 5L29 5L29 6L28 6L28 7L27 7L27 6L26 6L26 7L25 7L25 6L24 6L24 5L23 5L23 4L22 4L22 3L21 3L21 4L20 4L20 0L19 0L19 1L18 1L18 0L17 0L17 1L18 1L18 2L16 2L16 0L13 0L13 1L15 1L15 3L14 3L14 4L13 4L13 5L11 5L11 4L12 4L12 3L13 3L13 2L12 2L12 1L11 1L11 0ZM22 0L22 1L21 1L21 2L22 2L22 1L24 1L24 4L25 4L25 3L26 3L26 4L28 4L28 2L29 2L29 3L33 3L33 0L32 0L32 1L31 1L31 2L30 2L30 1L29 1L29 0L28 0L28 2L27 2L27 1L26 1L26 0L25 0L25 1L24 1L24 0ZM10 1L10 2L9 2L9 3L10 3L10 4L11 4L11 1ZM17 3L17 4L16 4L16 5L17 5L17 8L16 8L16 9L15 9L15 8L13 8L13 7L14 7L14 5L15 5L15 4L14 4L14 5L13 5L13 7L12 7L12 6L11 6L11 7L12 7L12 8L13 8L13 10L14 10L14 9L15 9L15 10L16 10L16 11L17 11L17 12L16 12L16 13L17 13L17 14L14 14L14 12L15 12L15 11L14 11L14 12L13 12L13 11L11 11L11 10L10 10L10 11L11 11L11 12L12 12L12 13L10 13L10 12L9 12L9 13L8 13L8 14L11 14L11 16L12 16L12 15L13 15L13 16L14 16L14 17L13 17L13 18L12 18L12 17L8 17L8 18L9 18L9 19L10 19L10 20L11 20L11 19L12 19L12 21L13 21L13 23L15 23L15 25L14 25L14 26L13 26L13 27L15 27L15 25L16 25L16 26L17 26L17 24L16 24L16 23L15 23L15 22L14 22L14 20L15 20L15 19L17 19L17 18L18 18L18 17L19 17L19 19L18 19L18 21L17 21L17 20L16 20L16 22L18 22L18 26L20 26L20 27L21 27L21 29L20 29L20 28L19 28L19 27L18 27L18 29L19 29L19 30L22 30L22 31L25 31L25 32L26 32L26 33L25 33L25 35L27 35L27 36L26 36L26 38L27 38L27 36L28 36L28 35L27 35L27 32L28 32L28 33L29 33L29 32L30 32L30 33L32 33L32 32L33 32L33 31L34 31L34 32L36 32L36 31L38 31L38 28L37 28L37 27L39 27L39 28L40 28L40 27L39 27L39 25L37 25L37 24L35 24L35 28L34 28L34 29L35 29L35 30L33 30L33 31L32 31L32 28L31 28L31 26L32 26L32 27L33 27L33 26L32 26L32 25L33 25L33 22L31 22L31 21L32 21L32 20L31 20L31 19L29 19L29 21L28 21L28 22L29 22L29 23L27 23L27 21L26 21L26 17L32 17L32 15L31 15L31 16L30 16L30 14L29 14L29 15L28 15L28 13L26 13L26 12L28 12L28 11L27 11L27 10L26 10L26 9L27 9L27 7L26 7L26 9L25 9L25 10L24 10L24 8L20 8L20 9L19 9L19 7L20 7L20 6L19 6L19 4L18 4L18 3ZM21 4L21 7L22 7L22 4ZM31 5L31 7L32 7L32 5ZM15 6L15 7L16 7L16 6ZM18 6L18 7L19 7L19 6ZM23 6L23 7L24 7L24 6ZM29 6L29 7L28 7L28 8L30 8L30 9L31 9L31 8L30 8L30 6ZM3 8L3 9L0 9L0 11L1 11L1 13L5 13L5 12L2 12L2 11L3 11L3 10L6 10L6 11L7 11L7 10L6 10L6 9L8 9L8 8L6 8L6 9L5 9L5 8ZM18 9L18 10L17 10L17 11L19 11L19 13L18 13L18 14L19 14L19 17L20 17L20 18L21 18L21 19L20 19L20 20L19 20L19 23L21 23L21 24L20 24L20 26L21 26L21 27L23 27L23 28L22 28L22 30L24 30L24 29L25 29L25 28L26 28L26 26L25 26L25 28L24 28L24 25L23 25L23 26L22 26L22 25L21 25L21 24L22 24L22 23L23 23L23 24L24 24L24 23L23 23L23 22L22 22L22 21L23 21L23 18L22 18L22 16L24 16L24 17L25 17L25 16L26 16L26 15L25 15L25 16L24 16L24 14L22 14L22 13L24 13L24 12L25 12L25 11L24 11L24 10L23 10L23 9L22 9L22 10L23 10L23 11L21 11L21 9L20 9L20 11L19 11L19 9ZM37 9L37 10L38 10L38 12L39 12L39 13L40 13L40 12L39 12L39 10L38 10L38 9ZM1 10L1 11L2 11L2 10ZM20 12L20 13L19 13L19 14L20 14L20 13L21 13L21 12ZM29 12L29 13L30 13L30 12ZM36 12L36 13L37 13L37 14L38 14L38 15L37 15L37 16L34 16L34 17L33 17L33 18L32 18L32 19L34 19L34 20L35 20L35 17L37 17L37 16L38 16L38 19L37 19L37 18L36 18L36 20L38 20L38 19L39 19L39 17L40 17L40 16L38 16L38 15L39 15L39 14L38 14L38 13L37 13L37 12ZM1 14L1 15L0 15L0 16L1 16L1 18L4 18L4 16L3 16L3 17L2 17L2 16L1 16L1 15L3 15L3 14ZM4 14L4 15L5 15L5 14ZM21 14L21 15L22 15L22 14ZM14 15L14 16L16 16L16 15ZM17 15L17 17L15 17L15 18L17 18L17 17L18 17L18 15ZM27 15L27 16L28 16L28 15ZM6 17L6 18L7 18L7 17ZM10 18L10 19L11 19L11 18ZM13 18L13 20L14 20L14 18ZM24 18L24 19L25 19L25 18ZM21 19L21 21L20 21L20 22L21 22L21 23L22 23L22 22L21 22L21 21L22 21L22 19ZM24 20L24 21L25 21L25 24L26 24L26 25L27 25L27 27L28 27L28 24L27 24L27 23L26 23L26 21L25 21L25 20ZM30 20L30 21L31 21L31 20ZM34 21L34 23L36 23L36 21ZM37 21L37 22L39 22L39 21ZM30 22L30 23L29 23L29 24L31 24L31 25L29 25L29 26L31 26L31 25L32 25L32 24L31 24L31 22ZM1 24L1 26L2 26L2 27L3 27L3 29L2 29L2 30L3 30L3 29L4 29L4 32L5 32L5 29L6 29L6 30L7 30L7 29L8 29L8 28L7 28L7 27L6 27L6 26L8 26L8 25L5 25L5 24L4 24L4 25L5 25L5 26L4 26L4 27L3 27L3 26L2 26L2 24ZM36 25L36 27L37 27L37 25ZM5 27L5 28L6 28L6 29L7 29L7 28L6 28L6 27ZM23 28L23 29L24 29L24 28ZM27 28L27 29L28 29L28 30L25 30L25 31L26 31L26 32L27 32L27 31L28 31L28 30L29 30L29 31L30 31L30 29L31 29L31 28L30 28L30 29L29 29L29 28ZM35 28L35 29L36 29L36 30L35 30L35 31L36 31L36 30L37 30L37 29L36 29L36 28ZM9 29L9 30L8 30L8 31L9 31L9 30L10 30L10 29ZM11 29L11 30L12 30L12 29ZM14 29L14 30L15 30L15 29ZM6 31L6 32L7 32L7 31ZM16 31L16 32L17 32L17 31ZM8 32L8 33L9 33L9 32ZM37 32L37 33L38 33L38 32ZM33 33L33 36L36 36L36 33ZM29 34L29 36L30 36L30 37L31 37L31 36L32 36L32 35L31 35L31 34ZM34 34L34 35L35 35L35 34ZM14 35L14 36L15 36L15 35ZM17 35L17 36L18 36L18 35ZM30 35L30 36L31 36L31 35ZM8 36L8 38L9 38L9 41L10 41L10 38L11 38L11 39L12 39L12 40L11 40L11 41L12 41L12 40L13 40L13 38L12 38L12 36L11 36L11 37L10 37L10 36ZM34 37L34 39L35 39L35 38L36 38L36 37ZM16 38L16 41L17 41L17 38ZM32 38L32 39L31 39L31 40L33 40L33 38ZM14 39L14 41L15 41L15 39ZM21 39L21 40L22 40L22 39ZM0 0L0 7L7 7L7 0ZM1 1L1 6L6 6L6 1ZM2 2L2 5L5 5L5 2ZM34 0L34 7L41 7L41 0ZM35 1L35 6L40 6L40 1ZM36 2L36 5L39 5L39 2ZM0 34L0 41L7 41L7 34ZM1 35L1 40L6 40L6 35ZM2 36L2 39L5 39L5 36Z" fill="#000000"/></g></g></svg>
