<?xml version="1.0" encoding="UTF-8"?>
<svg xmlns="http://www.w3.org/2000/svg" version="1.1" width="200" height="200" viewBox="0 0 200 200"><rect x="0" y="0" width="200" height="200" fill="#ffffff"/><g transform="scale(4.878)"><g transform="translate(0,0)"><path fill-rule="evenodd" d="M12 0L12 1L8 1L8 2L9 2L9 5L8 5L8 8L4 8L4 9L3 9L3 10L2 10L2 9L0 9L0 10L2 10L2 11L3 11L3 12L2 12L2 13L3 13L3 14L1 14L1 12L0 12L0 14L1 14L1 15L2 15L2 16L1 16L1 19L0 19L0 20L1 20L1 21L0 21L0 22L1 22L1 23L2 23L2 22L3 22L3 24L2 24L2 25L1 25L1 26L0 26L0 27L1 27L1 28L2 28L2 25L3 25L3 26L4 26L4 28L3 28L3 29L4 29L4 31L3 31L3 32L0 32L0 33L4 33L4 31L7 31L7 30L6 30L6 29L8 29L8 30L9 30L9 31L10 31L10 30L9 30L9 29L11 29L11 30L12 30L12 29L13 29L13 28L14 28L14 29L15 29L15 30L13 30L13 31L11 31L11 32L10 32L10 33L8 33L8 37L9 37L9 38L11 38L11 37L12 37L12 40L11 40L11 41L12 41L12 40L13 40L13 39L14 39L14 38L15 38L15 40L17 40L17 41L21 41L21 40L19 40L19 38L17 38L17 37L19 37L19 35L20 35L20 34L21 34L21 36L20 36L20 37L21 37L21 38L22 38L22 37L23 37L23 38L24 38L24 37L25 37L25 38L26 38L26 41L33 41L33 39L32 39L32 38L31 38L31 37L36 37L36 38L37 38L37 37L38 37L38 35L37 35L37 33L38 33L38 34L39 34L39 37L40 37L40 38L38 38L38 39L36 39L36 40L37 40L37 41L40 41L40 40L41 40L41 37L40 37L40 36L41 36L41 33L40 33L40 31L41 31L41 29L40 29L40 30L39 30L39 28L40 28L40 27L41 27L41 24L40 24L40 23L41 23L41 22L40 22L40 21L41 21L41 13L39 13L39 12L38 12L38 11L41 11L41 9L40 9L40 8L39 8L39 9L36 9L36 8L34 8L34 9L33 9L33 8L31 8L31 9L30 9L30 7L31 7L31 6L32 6L32 7L33 7L33 6L32 6L32 5L33 5L33 3L32 3L32 1L31 1L31 0L29 0L29 1L28 1L28 0L27 0L27 1L26 1L26 0L22 0L22 2L21 2L21 4L23 4L23 5L24 5L24 3L22 3L22 2L23 2L23 1L25 1L25 2L26 2L26 3L28 3L28 2L30 2L30 1L31 1L31 3L29 3L29 4L30 4L30 5L31 5L31 6L30 6L30 7L29 7L29 6L28 6L28 8L29 8L29 9L27 9L27 8L26 8L26 7L27 7L27 5L28 5L28 4L27 4L27 5L26 5L26 7L25 7L25 6L24 6L24 7L23 7L23 6L22 6L22 5L20 5L20 8L18 8L18 9L20 9L20 8L21 8L21 10L18 10L18 12L19 12L19 13L18 13L18 14L19 14L19 16L18 16L18 15L17 15L17 11L15 11L15 12L13 12L13 13L12 13L12 16L10 16L10 14L9 14L9 16L6 16L6 15L8 15L8 13L9 13L9 12L8 12L8 13L7 13L7 12L6 12L6 13L7 13L7 14L5 14L5 16L4 16L4 13L3 13L3 12L5 12L5 11L7 11L7 10L8 10L8 8L9 8L9 5L10 5L10 7L11 7L11 8L14 8L14 9L16 9L16 10L17 10L17 8L14 8L14 7L15 7L15 6L14 6L14 4L15 4L15 5L17 5L17 6L16 6L16 7L17 7L17 6L18 6L18 7L19 7L19 5L18 5L18 3L19 3L19 4L20 4L20 1L21 1L21 0L15 0L15 2L14 2L14 1L13 1L13 0ZM16 1L16 2L17 2L17 3L15 3L15 4L17 4L17 3L18 3L18 2L19 2L19 1L18 1L18 2L17 2L17 1ZM27 1L27 2L28 2L28 1ZM10 2L10 5L11 5L11 7L12 7L12 5L13 5L13 4L14 4L14 2L13 2L13 4L11 4L11 2ZM31 3L31 5L32 5L32 3ZM13 6L13 7L14 7L14 6ZM21 6L21 8L22 8L22 11L20 11L20 15L21 15L21 12L24 12L24 13L22 13L22 16L20 16L20 17L21 17L21 18L22 18L22 19L20 19L20 20L19 20L19 17L18 17L18 20L17 20L17 18L16 18L16 19L15 19L15 17L16 17L16 16L17 16L17 15L16 15L16 16L15 16L15 17L14 17L14 15L13 15L13 17L14 17L14 19L15 19L15 20L17 20L17 21L15 21L15 22L14 22L14 20L13 20L13 18L11 18L11 19L10 19L10 18L9 18L9 17L8 17L8 18L7 18L7 17L6 17L6 16L5 16L5 17L3 17L3 18L2 18L2 19L3 19L3 18L5 18L5 17L6 17L6 18L7 18L7 19L5 19L5 21L4 21L4 20L2 20L2 21L4 21L4 22L5 22L5 23L6 23L6 24L7 24L7 25L6 25L6 26L5 26L5 28L7 28L7 27L6 27L6 26L9 26L9 28L11 28L11 29L12 29L12 28L13 28L13 27L12 27L12 28L11 28L11 26L12 26L12 25L13 25L13 24L15 24L15 25L14 25L14 27L15 27L15 28L16 28L16 30L15 30L15 31L14 31L14 32L13 32L13 33L11 33L11 34L12 34L12 35L11 35L11 36L13 36L13 38L14 38L14 36L15 36L15 38L16 38L16 36L17 36L17 34L16 34L16 33L15 33L15 31L16 31L16 30L17 30L17 31L18 31L18 32L19 32L19 33L18 33L18 34L20 34L20 32L19 32L19 31L20 31L20 29L21 29L21 28L22 28L22 26L21 26L21 28L20 28L20 27L15 27L15 26L16 26L16 24L17 24L17 26L20 26L20 25L23 25L23 28L24 28L24 29L22 29L22 32L21 32L21 34L22 34L22 32L23 32L23 34L24 34L24 35L22 35L22 36L21 36L21 37L22 37L22 36L23 36L23 37L24 37L24 36L25 36L25 37L26 37L26 36L25 36L25 35L27 35L27 37L28 37L28 38L29 38L29 37L31 37L31 36L32 36L32 35L30 35L30 34L29 34L29 33L28 33L28 32L27 32L27 33L26 33L26 31L27 31L27 30L28 30L28 31L29 31L29 30L31 30L31 29L28 29L28 27L29 27L29 26L28 26L28 27L25 27L25 25L29 25L29 22L31 22L31 23L33 23L33 25L30 25L30 26L31 26L31 27L32 27L32 28L33 28L33 29L32 29L32 31L33 31L33 32L34 32L34 31L35 31L35 29L37 29L37 27L36 27L36 25L37 25L37 26L38 26L38 28L39 28L39 25L37 25L37 24L39 24L39 23L40 23L40 22L39 22L39 20L40 20L40 17L39 17L39 16L40 16L40 15L38 15L38 14L37 14L37 15L36 15L36 17L35 17L35 16L34 16L34 15L32 15L32 14L31 14L31 16L33 16L33 17L29 17L29 15L28 15L28 13L29 13L29 14L30 14L30 13L29 13L29 11L28 11L28 12L27 12L27 15L26 15L26 16L28 16L28 18L30 18L30 19L31 19L31 20L32 20L32 21L30 21L30 20L29 20L29 19L28 19L28 20L27 20L27 21L28 21L28 24L27 24L27 22L24 22L24 24L23 24L23 23L21 23L21 22L23 22L23 21L21 21L21 20L26 20L26 18L27 18L27 17L25 17L25 18L24 18L24 17L23 17L23 14L24 14L24 16L25 16L25 14L26 14L26 13L25 13L25 12L26 12L26 11L27 11L27 10L25 10L25 9L26 9L26 8L25 8L25 7L24 7L24 8L22 8L22 6ZM5 9L5 10L7 10L7 9ZM9 9L9 10L10 10L10 9ZM11 9L11 11L10 11L10 12L11 12L11 11L13 11L13 9ZM23 9L23 11L24 11L24 12L25 12L25 10L24 10L24 9ZM31 9L31 10L30 10L30 12L32 12L32 13L33 13L33 14L36 14L36 13L37 13L37 11L36 11L36 9L35 9L35 10L33 10L33 9ZM32 11L32 12L33 12L33 13L35 13L35 12L36 12L36 11L35 11L35 12L34 12L34 11ZM14 13L14 14L16 14L16 13ZM24 13L24 14L25 14L25 13ZM22 17L22 18L23 18L23 19L24 19L24 18L23 18L23 17ZM34 17L34 18L35 18L35 19L34 19L34 20L35 20L35 21L32 21L32 22L33 22L33 23L34 23L34 24L35 24L35 25L33 25L33 27L34 27L34 28L36 28L36 27L35 27L35 25L36 25L36 23L34 23L34 22L35 22L35 21L36 21L36 22L37 22L37 23L38 23L38 19L39 19L39 17L38 17L38 18L37 18L37 17L36 17L36 18L35 18L35 17ZM7 19L7 20L6 20L6 21L7 21L7 22L6 22L6 23L7 23L7 22L8 22L8 23L9 23L9 25L10 25L10 26L11 26L11 25L12 25L12 24L10 24L10 23L9 23L9 22L11 22L11 21L7 21L7 20L9 20L9 19ZM11 19L11 20L12 20L12 19ZM32 19L32 20L33 20L33 19ZM35 19L35 20L36 20L36 19ZM18 20L18 21L17 21L17 22L16 22L16 23L17 23L17 22L18 22L18 25L20 25L20 22L19 22L19 20ZM28 20L28 21L29 21L29 20ZM12 21L12 23L13 23L13 21ZM25 23L25 24L26 24L26 23ZM4 24L4 25L5 25L5 24ZM17 28L17 30L19 30L19 29L20 29L20 28ZM25 28L25 29L24 29L24 32L25 32L25 31L26 31L26 30L27 30L27 29L26 29L26 28ZM0 29L0 30L2 30L2 29ZM25 29L25 30L26 30L26 29ZM33 29L33 30L34 30L34 29ZM37 30L37 31L36 31L36 32L37 32L37 31L38 31L38 33L39 33L39 34L40 34L40 33L39 33L39 31L38 31L38 30ZM5 32L5 33L7 33L7 32ZM30 32L30 33L31 33L31 34L32 34L32 32ZM14 33L14 35L16 35L16 34L15 34L15 33ZM25 33L25 34L26 34L26 33ZM27 33L27 35L28 35L28 37L29 37L29 35L28 35L28 33ZM33 33L33 36L36 36L36 33ZM9 34L9 35L10 35L10 34ZM34 34L34 35L35 35L35 34ZM9 36L9 37L10 37L10 36ZM30 38L30 40L31 40L31 38ZM9 39L9 41L10 41L10 39ZM17 39L17 40L18 40L18 39ZM23 39L23 40L22 40L22 41L23 41L23 40L24 40L24 41L25 41L25 39ZM34 39L34 40L35 40L35 39ZM0 0L0 7L7 7L7 0ZM1 1L1 6L6 6L6 1ZM2 2L2 5L5 5L5 2ZM34 0L34 7L41 7L41 0ZM35 1L35 6L40 6L40 1ZM36 2L36 5L39 5L39 2ZM0 34L0 41L7 41L7 34ZM1 35L1 40L6 40L6 35ZM2 36L2 39L5 39L5 36Z" fill="#000000"/></g></g></svg>
