<?xml version="1.0" encoding="UTF-8"?>
<svg xmlns="http://www.w3.org/2000/svg" version="1.1" width="200" height="200" viewBox="0 0 200 200"><rect x="0" y="0" width="200" height="200" fill="#ffffff"/><g transform="scale(6.897)"><g transform="translate(0,0)"><path fill-rule="evenodd" d="M8 0L8 1L9 1L9 2L11 2L11 3L10 3L10 4L9 4L9 3L8 3L8 4L9 4L9 6L8 6L8 7L9 7L9 8L8 8L8 9L7 9L7 8L4 8L4 9L3 9L3 8L2 8L2 9L1 9L1 10L2 10L2 9L3 9L3 12L2 12L2 11L0 11L0 14L3 14L3 15L2 15L2 17L1 17L1 16L0 16L0 17L1 17L1 18L0 18L0 19L1 19L1 20L0 20L0 21L1 21L1 20L2 20L2 19L3 19L3 21L7 21L7 20L4 20L4 18L5 18L5 19L7 19L7 18L6 18L6 17L7 17L7 16L8 16L8 18L9 18L9 17L13 17L13 15L15 15L15 17L17 17L17 15L18 15L18 14L20 14L20 15L19 15L19 16L18 16L18 17L19 17L19 18L20 18L20 17L19 17L19 16L20 16L20 15L21 15L21 14L22 14L22 15L23 15L23 16L22 16L22 17L23 17L23 18L22 18L22 19L21 19L21 20L20 20L20 19L18 19L18 21L16 21L16 20L13 20L13 21L12 21L12 20L11 20L11 19L10 19L10 20L9 20L9 19L8 19L8 22L9 22L9 23L8 23L8 25L9 25L9 26L8 26L8 27L9 27L9 28L10 28L10 29L11 29L11 28L12 28L12 27L15 27L15 26L16 26L16 25L18 25L18 26L17 26L17 27L16 27L16 29L18 29L18 28L19 28L19 29L20 29L20 27L21 27L21 26L22 26L22 25L23 25L23 26L24 26L24 25L25 25L25 27L26 27L26 26L28 26L28 27L27 27L27 28L26 28L26 29L27 29L27 28L28 28L28 29L29 29L29 26L28 26L28 25L27 25L27 24L28 24L28 23L29 23L29 22L28 22L28 19L29 19L29 18L27 18L27 17L26 17L26 14L24 14L24 13L25 13L25 11L26 11L26 13L27 13L27 14L28 14L28 15L27 15L27 16L28 16L28 17L29 17L29 16L28 16L28 15L29 15L29 14L28 14L28 13L29 13L29 12L28 12L28 11L29 11L29 8L28 8L28 9L26 9L26 8L25 8L25 9L24 9L24 10L25 10L25 11L24 11L24 12L23 12L23 10L22 10L22 8L21 8L21 0L20 0L20 1L19 1L19 2L20 2L20 3L19 3L19 4L18 4L18 3L17 3L17 2L18 2L18 1L17 1L17 0L16 0L16 4L14 4L14 3L13 3L13 4L12 4L12 2L11 2L11 1L10 1L10 0ZM13 1L13 2L14 2L14 1ZM11 4L11 5L12 5L12 6L11 6L11 7L12 7L12 6L13 6L13 7L14 7L14 8L13 8L13 9L11 9L11 8L10 8L10 9L9 9L9 10L7 10L7 9L4 9L4 13L3 13L3 14L5 14L5 16L4 16L4 15L3 15L3 18L4 18L4 17L5 17L5 16L7 16L7 15L6 15L6 14L8 14L8 16L10 16L10 12L11 12L11 16L12 16L12 15L13 15L13 14L15 14L15 15L17 15L17 13L14 13L14 12L17 12L17 11L18 11L18 12L20 12L20 11L18 11L18 10L19 10L19 9L20 9L20 5L19 5L19 7L18 7L18 5L15 5L15 7L14 7L14 4L13 4L13 5L12 5L12 4ZM9 6L9 7L10 7L10 6ZM16 6L16 8L17 8L17 6ZM14 8L14 10L13 10L13 11L12 11L12 12L14 12L14 10L15 10L15 11L17 11L17 10L18 10L18 9L17 9L17 10L16 10L16 9L15 9L15 8ZM25 9L25 10L26 10L26 11L28 11L28 10L26 10L26 9ZM6 10L6 11L5 11L5 13L8 13L8 12L9 12L9 11L11 11L11 10L9 10L9 11L7 11L7 10ZM6 11L6 12L7 12L7 11ZM21 11L21 12L22 12L22 11ZM27 12L27 13L28 13L28 12ZM20 13L20 14L21 14L21 13ZM23 14L23 15L24 15L24 16L23 16L23 17L24 17L24 18L23 18L23 19L24 19L24 20L25 20L25 23L26 23L26 24L27 24L27 21L26 21L26 20L27 20L27 18L26 18L26 17L24 17L24 16L25 16L25 15L24 15L24 14ZM1 18L1 19L2 19L2 18ZM12 18L12 19L13 19L13 18ZM24 18L24 19L25 19L25 18ZM10 20L10 23L9 23L9 25L10 25L10 26L9 26L9 27L12 27L12 26L11 26L11 25L10 25L10 23L11 23L11 24L12 24L12 25L13 25L13 26L15 26L15 25L16 25L16 24L15 24L15 25L13 25L13 23L16 23L16 22L12 22L12 21L11 21L11 20ZM19 20L19 21L20 21L20 20ZM21 21L21 24L24 24L24 21ZM19 22L19 23L20 23L20 22ZM22 22L22 23L23 23L23 22ZM19 24L19 26L20 26L20 24ZM17 27L17 28L18 28L18 27ZM22 27L22 28L23 28L23 29L25 29L25 28L23 28L23 27ZM13 28L13 29L14 29L14 28ZM0 0L0 7L7 7L7 0ZM1 1L1 6L6 6L6 1ZM2 2L2 5L5 5L5 2ZM22 0L22 7L29 7L29 0ZM23 1L23 6L28 6L28 1ZM24 2L24 5L27 5L27 2ZM0 22L0 29L7 29L7 22ZM1 23L1 28L6 28L6 23ZM2 24L2 27L5 27L5 24Z" fill="#000000"/></g></g></svg>
