<?xml version="1.0" encoding="UTF-8"?>
<svg xmlns="http://www.w3.org/2000/svg" version="1.1" width="200" height="200" viewBox="0 0 200 200"><rect x="0" y="0" width="200" height="200" fill="#ffffff"/><g transform="scale(4.878)"><g transform="translate(0,0)"><path fill-rule="evenodd" d="M12 0L12 1L14 1L14 3L13 3L13 2L11 2L11 3L12 3L12 4L13 4L13 6L12 6L12 8L11 8L11 4L10 4L10 1L8 1L8 2L9 2L9 4L10 4L10 5L8 5L8 8L4 8L4 9L3 9L3 10L2 10L2 9L0 9L0 10L1 10L1 11L0 11L0 13L1 13L1 12L2 12L2 13L3 13L3 14L1 14L1 15L3 15L3 16L2 16L2 17L1 17L1 16L0 16L0 22L1 22L1 23L0 23L0 24L1 24L1 25L3 25L3 26L1 26L1 27L0 27L0 28L1 28L1 29L0 29L0 30L1 30L1 29L2 29L2 28L3 28L3 27L4 27L4 25L5 25L5 24L6 24L6 25L7 25L7 26L6 26L6 27L5 27L5 29L7 29L7 30L6 30L6 31L5 31L5 30L4 30L4 31L3 31L3 30L2 30L2 32L0 32L0 33L7 33L7 32L8 32L8 37L9 37L9 38L11 38L11 37L9 37L9 36L10 36L10 35L9 35L9 33L10 33L10 34L11 34L11 36L12 36L12 34L11 34L11 32L10 32L10 31L11 31L11 30L12 30L12 29L13 29L13 31L12 31L12 32L13 32L13 33L14 33L14 36L13 36L13 40L12 40L12 39L10 39L10 40L9 40L9 41L13 41L13 40L14 40L14 37L15 37L15 38L16 38L16 37L17 37L17 36L18 36L18 37L19 37L19 38L18 38L18 40L19 40L19 41L20 41L20 40L21 40L21 41L22 41L22 40L23 40L23 41L24 41L24 40L23 40L23 37L24 37L24 38L25 38L25 39L26 39L26 37L25 37L25 36L24 36L24 35L23 35L23 37L22 37L22 30L23 30L23 32L24 32L24 33L26 33L26 36L28 36L28 37L27 37L27 41L28 41L28 40L29 40L29 41L30 41L30 40L31 40L31 41L33 41L33 39L30 39L30 38L31 38L31 37L32 37L32 38L33 38L33 37L36 37L36 38L37 38L37 34L38 34L38 30L39 30L39 31L41 31L41 29L40 29L40 30L39 30L39 28L38 28L38 26L37 26L37 25L39 25L39 27L40 27L40 28L41 28L41 24L40 24L40 23L41 23L41 22L40 22L40 21L41 21L41 9L40 9L40 8L39 8L39 9L36 9L36 8L34 8L34 9L32 9L32 7L33 7L33 5L31 5L31 3L28 3L28 2L30 2L30 0L29 0L29 1L28 1L28 0L27 0L27 1L26 1L26 0L22 0L22 1L21 1L21 0L19 0L19 1L18 1L18 2L17 2L17 0ZM32 0L32 1L31 1L31 2L32 2L32 1L33 1L33 0ZM19 1L19 2L18 2L18 3L19 3L19 4L18 4L18 5L19 5L19 7L18 7L18 6L17 6L17 2L16 2L16 4L15 4L15 3L14 3L14 5L16 5L16 6L15 6L15 9L14 9L14 6L13 6L13 10L11 10L11 11L8 11L8 10L10 10L10 9L11 9L11 8L10 8L10 9L9 9L9 8L8 8L8 9L4 9L4 10L3 10L3 11L2 11L2 12L3 12L3 13L4 13L4 10L7 10L7 11L5 11L5 15L6 15L6 16L3 16L3 17L2 17L2 18L1 18L1 20L2 20L2 19L3 19L3 21L4 21L4 22L3 22L3 23L2 23L2 24L3 24L3 25L4 25L4 24L5 24L5 23L6 23L6 24L10 24L10 23L6 23L6 22L8 22L8 21L11 21L11 22L12 22L12 21L13 21L13 22L14 22L14 21L16 21L16 22L17 22L17 21L16 21L16 20L15 20L15 19L16 19L16 18L17 18L17 15L19 15L19 14L21 14L21 16L20 16L20 18L19 18L19 16L18 16L18 19L17 19L17 20L19 20L19 21L18 21L18 24L17 24L17 25L16 25L16 23L14 23L14 24L13 24L13 23L12 23L12 24L11 24L11 25L8 25L8 26L7 26L7 27L6 27L6 28L7 28L7 29L8 29L8 30L7 30L7 31L6 31L6 32L7 32L7 31L8 31L8 30L11 30L11 27L12 27L12 26L13 26L13 29L16 29L16 28L15 28L15 27L16 27L16 26L17 26L17 25L18 25L18 26L19 26L19 28L18 28L18 27L17 27L17 30L16 30L16 31L15 31L15 30L14 30L14 31L13 31L13 32L15 32L15 34L16 34L16 35L15 35L15 36L17 36L17 34L16 34L16 32L17 32L17 31L19 31L19 32L20 32L20 33L18 33L18 35L19 35L19 34L21 34L21 31L19 31L19 30L18 30L18 29L19 29L19 28L20 28L20 29L23 29L23 30L24 30L24 32L25 32L25 31L26 31L26 32L27 32L27 33L28 33L28 34L29 34L29 35L28 35L28 36L29 36L29 37L28 37L28 39L29 39L29 37L31 37L31 36L32 36L32 35L30 35L30 34L32 34L32 32L31 32L31 31L30 31L30 32L31 32L31 33L30 33L30 34L29 34L29 33L28 33L28 32L27 32L27 31L26 31L26 30L28 30L28 31L29 31L29 30L31 30L31 29L28 29L28 27L29 27L29 25L28 25L28 23L30 23L30 24L31 24L31 25L30 25L30 26L31 26L31 28L33 28L33 29L32 29L32 31L33 31L33 32L34 32L34 31L35 31L35 32L37 32L37 30L38 30L38 29L37 29L37 26L36 26L36 25L37 25L37 24L39 24L39 23L40 23L40 22L38 22L38 21L39 21L39 20L40 20L40 17L39 17L39 16L40 16L40 15L38 15L38 14L37 14L37 15L36 15L36 13L37 13L37 10L36 10L36 9L35 9L35 10L32 10L32 9L28 9L28 8L29 8L29 7L30 7L30 6L31 6L31 7L32 7L32 6L31 6L31 5L30 5L30 4L29 4L29 5L27 5L27 4L28 4L28 3L26 3L26 2L25 2L25 1L24 1L24 2L23 2L23 1L22 1L22 2L23 2L23 3L24 3L24 4L25 4L25 7L24 7L24 5L23 5L23 4L22 4L22 5L20 5L20 4L21 4L21 1ZM27 1L27 2L28 2L28 1ZM19 2L19 3L20 3L20 2ZM24 2L24 3L25 3L25 2ZM29 5L29 6L28 6L28 7L27 7L27 6L26 6L26 7L27 7L27 8L24 8L24 9L25 9L25 10L21 10L21 11L20 11L20 12L18 12L18 11L16 11L16 10L20 10L20 7L21 7L21 6L20 6L20 7L19 7L19 8L16 8L16 9L15 9L15 11L11 11L11 12L12 12L12 15L11 15L11 14L10 14L10 12L8 12L8 13L7 13L7 12L6 12L6 13L7 13L7 14L6 14L6 15L7 15L7 14L10 14L10 15L9 15L9 17L10 17L10 15L11 15L11 16L12 16L12 19L10 19L10 20L11 20L11 21L12 21L12 20L13 20L13 21L14 21L14 20L13 20L13 16L16 16L16 13L15 13L15 14L13 14L13 13L14 13L14 12L17 12L17 13L21 13L21 14L26 14L26 12L25 12L25 13L24 13L24 11L29 11L29 13L28 13L28 15L29 15L29 17L30 17L30 18L29 18L29 20L30 20L30 21L33 21L33 22L32 22L32 23L35 23L35 25L34 25L34 24L33 24L33 25L32 25L32 27L34 27L34 28L35 28L35 29L36 29L36 30L37 30L37 29L36 29L36 27L35 27L35 25L36 25L36 23L35 23L35 21L36 21L36 22L37 22L37 23L38 23L38 22L37 22L37 19L38 19L38 18L39 18L39 17L38 17L38 18L37 18L37 17L36 17L36 16L35 16L35 14L33 14L33 13L35 13L35 12L36 12L36 10L35 10L35 12L34 12L34 11L33 11L33 13L32 13L32 11L31 11L31 10L28 10L28 9L27 9L27 8L28 8L28 7L29 7L29 6L30 6L30 5ZM9 6L9 7L10 7L10 6ZM16 6L16 7L17 7L17 6ZM22 6L22 7L23 7L23 6ZM21 8L21 9L23 9L23 8ZM22 11L22 12L21 12L21 13L23 13L23 11ZM30 11L30 12L31 12L31 11ZM38 11L38 12L39 12L39 13L40 13L40 12L39 12L39 11ZM29 13L29 15L30 15L30 17L31 17L31 18L30 18L30 19L32 19L32 18L33 18L33 21L35 21L35 20L36 20L36 19L35 19L35 18L36 18L36 17L35 17L35 16L34 16L34 15L32 15L32 14L31 14L31 15L30 15L30 13ZM22 15L22 16L21 16L21 18L20 18L20 19L21 19L21 20L20 20L20 22L19 22L19 23L20 23L20 22L22 22L22 23L21 23L21 24L20 24L20 26L21 26L21 27L20 27L20 28L21 28L21 27L23 27L23 28L24 28L24 29L25 29L25 30L26 30L26 29L27 29L27 28L26 28L26 27L28 27L28 25L27 25L27 24L26 24L26 22L27 22L27 23L28 23L28 22L29 22L29 21L26 21L26 22L22 22L22 20L23 20L23 21L24 21L24 20L25 20L25 18L26 18L26 19L27 19L27 20L28 20L28 16L27 16L27 15L25 15L25 18L24 18L24 20L23 20L23 19L22 19L22 18L23 18L23 17L24 17L24 16L23 16L23 15ZM6 16L6 17L7 17L7 18L6 18L6 19L7 19L7 18L8 18L8 19L9 19L9 18L8 18L8 16ZM31 16L31 17L33 17L33 16ZM4 17L4 18L5 18L5 17ZM26 17L26 18L27 18L27 17ZM34 17L34 18L35 18L35 17ZM14 18L14 19L15 19L15 18ZM4 19L4 21L5 21L5 19ZM34 19L34 20L35 20L35 19ZM6 20L6 21L8 21L8 20ZM30 22L30 23L31 23L31 22ZM22 23L22 24L21 24L21 25L22 25L22 26L23 26L23 25L24 25L24 27L25 27L25 26L27 26L27 25L25 25L25 23L24 23L24 24L23 24L23 23ZM22 24L22 25L23 25L23 24ZM13 25L13 26L14 26L14 25ZM15 25L15 26L16 26L16 25ZM33 25L33 26L34 26L34 25ZM8 26L8 27L7 27L7 28L8 28L8 29L10 29L10 28L9 28L9 27L10 27L10 26ZM1 27L1 28L2 28L2 27ZM25 28L25 29L26 29L26 28ZM33 29L33 30L34 30L34 29ZM33 33L33 36L36 36L36 33ZM40 33L40 34L39 34L39 35L40 35L40 36L39 36L39 37L40 37L40 38L38 38L38 39L36 39L36 40L37 40L37 41L40 41L40 40L41 40L41 37L40 37L40 36L41 36L41 33ZM34 34L34 35L35 35L35 34ZM20 36L20 39L19 39L19 40L20 40L20 39L21 39L21 40L22 40L22 39L21 39L21 36ZM34 39L34 40L35 40L35 39ZM16 40L16 41L17 41L17 40ZM0 0L0 7L7 7L7 0ZM1 1L1 6L6 6L6 1ZM2 2L2 5L5 5L5 2ZM34 0L34 7L41 7L41 0ZM35 1L35 6L40 6L40 1ZM36 2L36 5L39 5L39 2ZM0 34L0 41L7 41L7 34ZM1 35L1 40L6 40L6 35ZM2 36L2 39L5 39L5 36Z" fill="#000000"/></g></g></svg>
