<?xml version="1.0" encoding="UTF-8"?>
<svg xmlns="http://www.w3.org/2000/svg" version="1.1" width="200" height="200" viewBox="0 0 200 200"><rect x="0" y="0" width="200" height="200" fill="#ffffff"/><g transform="scale(6.897)"><g transform="translate(0,0)"><path fill-rule="evenodd" d="M10 0L10 2L9 2L9 1L8 1L8 7L9 7L9 4L10 4L10 8L11 8L11 5L13 5L13 6L12 6L12 8L13 8L13 6L14 6L14 7L15 7L15 9L13 9L13 10L11 10L11 9L9 9L9 8L5 8L5 9L7 9L7 10L5 10L5 11L7 11L7 12L6 12L6 13L2 13L2 14L5 14L5 15L1 15L1 11L2 11L2 9L3 9L3 8L2 8L2 9L1 9L1 11L0 11L0 17L1 17L1 18L0 18L0 19L2 19L2 18L5 18L5 17L8 17L8 19L7 19L7 18L6 18L6 19L5 19L5 20L4 20L4 21L5 21L5 20L6 20L6 21L7 21L7 20L8 20L8 24L10 24L10 25L11 25L11 27L10 27L10 26L8 26L8 27L10 27L10 28L9 28L9 29L12 29L12 28L11 28L11 27L13 27L13 28L14 28L14 27L15 27L15 28L16 28L16 29L17 29L17 28L19 28L19 26L20 26L20 27L21 27L21 29L22 29L22 28L24 28L24 29L25 29L25 28L24 28L24 26L23 26L23 27L22 27L22 26L21 26L21 25L25 25L25 23L26 23L26 21L27 21L27 20L26 20L26 18L28 18L28 19L29 19L29 18L28 18L28 17L29 17L29 16L27 16L27 17L25 17L25 16L22 16L22 15L25 15L25 14L26 14L26 13L29 13L29 12L27 12L27 11L29 11L29 9L28 9L28 8L23 8L23 10L22 10L22 11L21 11L21 9L22 9L22 8L21 8L21 0L19 0L19 1L20 1L20 2L19 2L19 3L20 3L20 5L19 5L19 4L18 4L18 5L17 5L17 3L18 3L18 2L17 2L17 1L18 1L18 0L16 0L16 2L15 2L15 3L16 3L16 5L15 5L15 4L14 4L14 5L13 5L13 4L12 4L12 3L14 3L14 2L11 2L11 0ZM13 0L13 1L14 1L14 0ZM10 2L10 3L11 3L11 2ZM16 5L16 6L15 6L15 7L16 7L16 6L17 6L17 7L18 7L18 9L15 9L15 10L13 10L13 12L12 12L12 11L10 11L10 10L9 10L9 11L8 11L8 12L7 12L7 13L6 13L6 14L7 14L7 15L5 15L5 16L3 16L3 17L5 17L5 16L10 16L10 19L12 19L12 20L9 20L9 19L8 19L8 20L9 20L9 21L10 21L10 22L9 22L9 23L10 23L10 24L11 24L11 25L14 25L14 22L12 22L12 24L11 24L11 21L14 21L14 20L15 20L15 22L16 22L16 21L17 21L17 20L15 20L15 18L16 18L16 19L17 19L17 18L16 18L16 17L17 17L17 16L18 16L18 19L19 19L19 20L22 20L22 19L21 19L21 15L19 15L19 14L22 14L22 12L21 12L21 13L20 13L20 12L19 12L19 11L20 11L20 9L19 9L19 7L20 7L20 6L19 6L19 7L18 7L18 6L17 6L17 5ZM25 9L25 10L24 10L24 11L26 11L26 9ZM27 9L27 10L28 10L28 9ZM3 10L3 12L4 12L4 10ZM15 10L15 12L13 12L13 15L12 15L12 12L10 12L10 11L9 11L9 14L10 14L10 16L13 16L13 15L14 15L14 17L12 17L12 19L13 19L13 20L14 20L14 18L15 18L15 15L16 15L16 16L17 16L17 15L18 15L18 14L19 14L19 12L18 12L18 13L17 13L17 12L16 12L16 11L19 11L19 10ZM23 12L23 14L25 14L25 13L24 13L24 12ZM7 13L7 14L8 14L8 13ZM14 13L14 15L15 15L15 13ZM16 13L16 15L17 15L17 13ZM27 14L27 15L29 15L29 14ZM1 16L1 17L2 17L2 16ZM19 16L19 17L20 17L20 16ZM22 17L22 18L25 18L25 17ZM19 18L19 19L20 19L20 18ZM6 19L6 20L7 20L7 19ZM23 19L23 20L24 20L24 19ZM0 20L0 21L3 21L3 20ZM19 21L19 22L20 22L20 21ZM21 21L21 24L24 24L24 21ZM28 21L28 22L29 22L29 21ZM22 22L22 23L23 23L23 22ZM15 23L15 24L16 24L16 23ZM18 23L18 26L17 26L17 25L15 25L15 27L18 27L18 26L19 26L19 24L20 24L20 23ZM27 23L27 24L26 24L26 26L25 26L25 27L26 27L26 29L29 29L29 26L27 26L27 24L28 24L28 23ZM13 26L13 27L14 27L14 26ZM27 27L27 28L28 28L28 27ZM0 0L0 7L7 7L7 0ZM1 1L1 6L6 6L6 1ZM2 2L2 5L5 5L5 2ZM22 0L22 7L29 7L29 0ZM23 1L23 6L28 6L28 1ZM24 2L24 5L27 5L27 2ZM0 22L0 29L7 29L7 22ZM1 23L1 28L6 28L6 23ZM2 24L2 27L5 27L5 24Z" fill="#000000"/></g></g></svg>
