<?xml version="1.0" encoding="UTF-8"?>
<svg xmlns="http://www.w3.org/2000/svg" version="1.1" width="200" height="200" viewBox="0 0 200 200"><rect x="0" y="0" width="200" height="200" fill="#ffffff"/><g transform="scale(4.878)"><g transform="translate(0,0)"><path fill-rule="evenodd" d="M8 0L8 3L10 3L10 1L11 1L11 4L10 4L10 7L9 7L9 5L8 5L8 9L10 9L10 8L12 8L12 7L13 7L13 6L14 6L14 7L15 7L15 6L14 6L14 5L12 5L12 2L14 2L14 3L13 3L13 4L15 4L15 5L16 5L16 8L17 8L17 9L18 9L18 10L17 10L17 13L15 13L15 15L14 15L14 16L15 16L15 15L16 15L16 14L17 14L17 17L18 17L18 14L19 14L19 13L18 13L18 11L20 11L20 12L21 12L21 13L22 13L22 14L21 14L21 16L20 16L20 18L19 18L19 19L21 19L21 20L20 20L20 21L19 21L19 20L17 20L17 19L15 19L15 18L16 18L16 17L14 17L14 18L12 18L12 19L8 19L8 17L10 17L10 16L9 16L9 15L10 15L10 14L11 14L11 12L10 12L10 11L9 11L9 10L8 10L8 12L5 12L5 14L4 14L4 11L3 11L3 12L2 12L2 10L0 10L0 13L1 13L1 12L2 12L2 14L0 14L0 15L2 15L2 14L3 14L3 16L0 16L0 17L2 17L2 18L1 18L1 19L0 19L0 21L1 21L1 22L0 22L0 23L1 23L1 24L2 24L2 23L3 23L3 24L5 24L5 25L8 25L8 24L9 24L9 26L5 26L5 28L3 28L3 27L4 27L4 25L3 25L3 27L1 27L1 26L2 26L2 25L1 25L1 26L0 26L0 27L1 27L1 28L0 28L0 33L1 33L1 28L3 28L3 30L2 30L2 31L4 31L4 30L6 30L6 31L7 31L7 32L4 32L4 33L8 33L8 34L9 34L9 36L8 36L8 39L9 39L9 41L10 41L10 40L11 40L11 41L13 41L13 39L14 39L14 38L16 38L16 40L14 40L14 41L18 41L18 40L17 40L17 39L19 39L19 40L20 40L20 41L21 41L21 40L23 40L23 41L26 41L26 40L27 40L27 41L28 41L28 40L27 40L27 39L28 39L28 38L27 38L27 39L26 39L26 40L25 40L25 37L26 37L26 36L27 36L27 37L29 37L29 38L30 38L30 39L31 39L31 38L32 38L32 40L31 40L31 41L32 41L32 40L33 40L33 41L34 41L34 40L33 40L33 38L34 38L34 39L35 39L35 40L36 40L36 39L37 39L37 40L40 40L40 38L41 38L41 37L39 37L39 36L41 36L41 35L40 35L40 34L41 34L41 33L39 33L39 32L41 32L41 31L40 31L40 30L41 30L41 29L40 29L40 26L41 26L41 23L39 23L39 24L40 24L40 26L39 26L39 25L36 25L36 24L37 24L37 21L38 21L38 22L39 22L39 20L36 20L36 19L35 19L35 17L36 17L36 18L37 18L37 17L39 17L39 16L37 16L37 17L36 17L36 16L35 16L35 17L34 17L34 16L33 16L33 17L30 17L30 16L29 16L29 15L31 15L31 12L32 12L32 13L33 13L33 14L32 14L32 15L34 15L34 13L35 13L35 12L38 12L38 11L39 11L39 14L38 14L38 15L39 15L39 14L41 14L41 12L40 12L40 10L41 10L41 8L38 8L38 9L40 9L40 10L37 10L37 9L36 9L36 8L32 8L32 7L33 7L33 5L32 5L32 4L33 4L33 3L32 3L32 2L33 2L33 1L32 1L32 0L31 0L31 1L32 1L32 2L30 2L30 0L29 0L29 1L27 1L27 0L26 0L26 1L27 1L27 2L26 2L26 3L28 3L28 4L29 4L29 3L32 3L32 4L30 4L30 5L27 5L27 4L25 4L25 1L24 1L24 0L22 0L22 1L19 1L19 2L18 2L18 1L17 1L17 0L16 0L16 1L15 1L15 2L14 2L14 0L10 0L10 1L9 1L9 0ZM16 1L16 5L17 5L17 4L18 4L18 5L19 5L19 7L18 7L18 6L17 6L17 7L18 7L18 8L19 8L19 7L20 7L20 5L21 5L21 7L22 7L22 10L21 10L21 8L20 8L20 9L19 9L19 10L21 10L21 11L22 11L22 12L24 12L24 13L23 13L23 15L22 15L22 16L21 16L21 17L23 17L23 16L24 16L24 18L29 18L29 20L28 20L28 21L27 21L27 22L28 22L28 21L29 21L29 22L31 22L31 23L29 23L29 24L31 24L31 25L30 25L30 26L29 26L29 25L27 25L27 26L28 26L28 27L27 27L27 28L30 28L30 29L28 29L28 30L30 30L30 31L28 31L28 32L30 32L30 31L31 31L31 30L32 30L32 31L33 31L33 32L36 32L36 31L34 31L34 30L36 30L36 29L37 29L37 30L38 30L38 31L37 31L37 32L39 32L39 30L38 30L38 29L39 29L39 26L38 26L38 28L36 28L36 29L35 29L35 26L36 26L36 25L35 25L35 24L36 24L36 23L35 23L35 22L36 22L36 21L35 21L35 19L34 19L34 18L33 18L33 20L31 20L31 19L32 19L32 18L31 18L31 19L30 19L30 17L29 17L29 16L28 16L28 15L29 15L29 14L30 14L30 13L29 13L29 12L31 12L31 11L32 11L32 12L33 12L33 13L34 13L34 12L33 12L33 11L34 11L34 10L33 10L33 9L32 9L32 8L31 8L31 7L32 7L32 5L31 5L31 7L30 7L30 6L29 6L29 7L28 7L28 6L27 6L27 5L26 5L26 6L25 6L25 7L24 7L24 6L23 6L23 7L22 7L22 5L23 5L23 3L24 3L24 1L22 1L22 2L23 2L23 3L20 3L20 2L19 2L19 3L18 3L18 2L17 2L17 1ZM24 4L24 5L25 5L25 4ZM11 5L11 7L12 7L12 5ZM26 6L26 7L27 7L27 8L24 8L24 10L25 10L25 9L26 9L26 11L24 11L24 12L25 12L25 13L26 13L26 14L29 14L29 13L28 13L28 12L29 12L29 9L31 9L31 10L32 10L32 9L31 9L31 8L29 8L29 9L28 9L28 7L27 7L27 6ZM2 8L2 9L3 9L3 10L4 10L4 9L5 9L5 10L6 10L6 11L7 11L7 10L6 10L6 9L7 9L7 8L6 8L6 9L5 9L5 8ZM13 8L13 9L11 9L11 11L12 11L12 10L13 10L13 9L14 9L14 8ZM27 9L27 10L28 10L28 9ZM35 10L35 11L37 11L37 10ZM26 11L26 12L27 12L27 11ZM12 12L12 13L13 13L13 14L12 14L12 15L11 15L11 17L12 17L12 16L13 16L13 14L14 14L14 13L13 13L13 12ZM6 13L6 14L5 14L5 16L4 16L4 17L3 17L3 19L1 19L1 20L3 20L3 19L4 19L4 23L5 23L5 24L8 24L8 23L9 23L9 24L10 24L10 27L12 27L12 28L15 28L15 30L17 30L17 28L15 28L15 27L18 27L18 26L16 26L16 25L17 25L17 24L18 24L18 25L19 25L19 24L18 24L18 23L19 23L19 22L17 22L17 20L15 20L15 21L14 21L14 22L15 22L15 21L16 21L16 23L17 23L17 24L15 24L15 23L14 23L14 24L15 24L15 25L13 25L13 24L12 24L12 23L11 23L11 24L10 24L10 23L9 23L9 22L10 22L10 21L11 21L11 20L10 20L10 21L9 21L9 22L8 22L8 23L5 23L5 22L7 22L7 21L8 21L8 19L6 19L6 20L7 20L7 21L5 21L5 16L7 16L7 15L9 15L9 14L10 14L10 13L8 13L8 14L7 14L7 13ZM17 13L17 14L18 14L18 13ZM36 13L36 14L35 14L35 15L37 15L37 13ZM6 14L6 15L7 15L7 14ZM24 14L24 16L26 16L26 17L27 17L27 15L25 15L25 14ZM40 16L40 18L38 18L38 19L40 19L40 18L41 18L41 16ZM6 17L6 18L7 18L7 17ZM22 18L22 20L23 20L23 18ZM25 19L25 22L24 22L24 21L23 21L23 22L22 22L22 21L21 21L21 22L20 22L20 23L22 23L22 25L23 25L23 24L24 24L24 27L23 27L23 26L22 26L22 27L21 27L21 24L20 24L20 26L19 26L19 28L18 28L18 30L20 30L20 31L19 31L19 33L21 33L21 34L22 34L22 35L23 35L23 36L22 36L22 37L23 37L23 40L24 40L24 37L25 37L25 36L26 36L26 35L25 35L25 34L28 34L28 35L27 35L27 36L28 36L28 35L29 35L29 33L25 33L25 34L24 34L24 32L23 32L23 31L24 31L24 30L23 30L23 31L21 31L21 30L20 30L20 27L21 27L21 29L22 29L22 27L23 27L23 28L25 28L25 29L26 29L26 26L25 26L25 24L28 24L28 23L26 23L26 20L27 20L27 19ZM12 20L12 21L13 21L13 20ZM30 20L30 21L31 21L31 22L33 22L33 21L34 21L34 22L35 22L35 21L34 21L34 20L33 20L33 21L31 21L31 20ZM40 20L40 21L41 21L41 20ZM2 21L2 22L1 22L1 23L2 23L2 22L3 22L3 21ZM23 22L23 23L24 23L24 22ZM31 23L31 24L32 24L32 25L31 25L31 26L32 26L32 27L31 27L31 28L32 28L32 27L34 27L34 26L35 26L35 25L34 25L34 23L33 23L33 24L32 24L32 23ZM11 24L11 25L12 25L12 27L13 27L13 25L12 25L12 24ZM32 25L32 26L34 26L34 25ZM6 27L6 28L8 28L8 29L6 29L6 30L8 30L8 32L11 32L11 31L10 31L10 29L9 29L9 27ZM33 28L33 29L32 29L32 30L33 30L33 29L34 29L34 28ZM8 29L8 30L9 30L9 29ZM12 29L12 30L13 30L13 29ZM30 29L30 30L31 30L31 29ZM25 30L25 32L27 32L27 30ZM20 31L20 32L21 32L21 33L23 33L23 32L21 32L21 31ZM12 32L12 33L13 33L13 36L12 36L12 37L11 37L11 35L12 35L12 34L10 34L10 37L9 37L9 39L10 39L10 38L11 38L11 40L12 40L12 37L13 37L13 38L14 38L14 37L15 37L15 35L16 35L16 34L17 34L17 37L19 37L19 39L20 39L20 38L21 38L21 35L18 35L18 34L17 34L17 32L15 32L15 33L14 33L14 32ZM15 33L15 34L16 34L16 33ZM30 33L30 35L31 35L31 36L29 36L29 37L32 37L32 38L33 38L33 37L32 37L32 35L31 35L31 33ZM33 33L33 36L36 36L36 33ZM38 33L38 34L39 34L39 33ZM23 34L23 35L24 35L24 34ZM34 34L34 35L35 35L35 34ZM38 35L38 36L37 36L37 37L38 37L38 36L39 36L39 35ZM13 36L13 37L14 37L14 36ZM19 36L19 37L20 37L20 36ZM23 36L23 37L24 37L24 36ZM34 37L34 38L36 38L36 37ZM37 38L37 39L38 39L38 38ZM29 40L29 41L30 41L30 40ZM0 0L0 7L7 7L7 0ZM1 1L1 6L6 6L6 1ZM2 2L2 5L5 5L5 2ZM34 0L34 7L41 7L41 0ZM35 1L35 6L40 6L40 1ZM36 2L36 5L39 5L39 2ZM0 34L0 41L7 41L7 34ZM1 35L1 40L6 40L6 35ZM2 36L2 39L5 39L5 36Z" fill="#000000"/></g></g></svg>
