<?xml version="1.0" encoding="UTF-8"?>
<svg xmlns="http://www.w3.org/2000/svg" version="1.1" width="200" height="200" viewBox="0 0 200 200"><rect x="0" y="0" width="200" height="200" fill="#ffffff"/><g transform="scale(6.897)"><g transform="translate(0,0)"><path fill-rule="evenodd" d="M8 0L8 1L9 1L9 2L12 2L12 4L13 4L13 5L11 5L11 3L10 3L10 4L9 4L9 3L8 3L8 4L9 4L9 6L8 6L8 7L9 7L9 8L8 8L8 9L7 9L7 8L4 8L4 9L3 9L3 8L2 8L2 9L3 9L3 10L1 10L1 9L0 9L0 10L1 10L1 11L0 11L0 12L3 12L3 10L4 10L4 12L5 12L5 14L6 14L6 15L5 15L5 16L4 16L4 17L2 17L2 16L3 16L3 15L4 15L4 13L3 13L3 15L2 15L2 14L1 14L1 13L0 13L0 14L1 14L1 15L0 15L0 17L1 17L1 18L0 18L0 19L1 19L1 20L0 20L0 21L1 21L1 20L2 20L2 21L7 21L7 20L6 20L6 19L7 19L7 18L4 18L4 17L5 17L5 16L6 16L6 17L7 17L7 16L6 16L6 15L8 15L8 16L9 16L9 15L11 15L11 16L10 16L10 17L13 17L13 21L14 21L14 22L15 22L15 21L14 21L14 19L15 19L15 18L16 18L16 17L17 17L17 18L18 18L18 17L17 17L17 15L16 15L16 14L17 14L17 13L16 13L16 14L13 14L13 13L15 13L15 12L17 12L17 11L19 11L19 12L18 12L18 14L20 14L20 15L18 15L18 16L20 16L20 17L19 17L19 19L20 19L20 20L19 20L19 21L18 21L18 19L17 19L17 20L16 20L16 22L17 22L17 21L18 21L18 23L19 23L19 24L18 24L18 25L19 25L19 24L20 24L20 26L17 26L17 23L16 23L16 26L15 26L15 25L13 25L13 24L15 24L15 23L12 23L12 24L11 24L11 23L10 23L10 22L12 22L12 21L11 21L11 20L12 20L12 19L11 19L11 18L10 18L10 19L9 19L9 17L8 17L8 20L9 20L9 21L8 21L8 22L9 22L9 23L8 23L8 25L10 25L10 28L9 28L9 29L11 29L11 27L12 27L12 26L11 26L11 25L13 25L13 26L14 26L14 29L16 29L16 28L17 28L17 29L19 29L19 28L17 28L17 27L21 27L21 28L20 28L20 29L25 29L25 28L26 28L26 26L25 26L25 28L22 28L22 27L21 27L21 26L22 26L22 25L23 25L23 26L24 26L24 25L27 25L27 26L28 26L28 27L27 27L27 28L28 28L28 29L29 29L29 26L28 26L28 25L27 25L27 24L28 24L28 23L29 23L29 22L28 22L28 18L27 18L27 17L26 17L26 14L24 14L24 13L25 13L25 12L24 12L24 11L26 11L26 13L27 13L27 14L28 14L28 15L27 15L27 16L28 16L28 17L29 17L29 16L28 16L28 15L29 15L29 14L28 14L28 13L29 13L29 12L28 12L28 11L29 11L29 8L28 8L28 9L27 9L27 10L28 10L28 11L26 11L26 8L25 8L25 10L24 10L24 9L23 9L23 10L22 10L22 8L21 8L21 3L20 3L20 2L19 2L19 3L20 3L20 4L18 4L18 3L17 3L17 4L16 4L16 3L14 3L14 1L15 1L15 0L12 0L12 1L11 1L11 0L10 0L10 1L9 1L9 0ZM16 0L16 1L17 1L17 2L18 2L18 1L19 1L19 0L18 0L18 1L17 1L17 0ZM12 1L12 2L13 2L13 1ZM14 4L14 5L13 5L13 8L14 8L14 5L15 5L15 7L16 7L16 6L17 6L17 7L18 7L18 6L19 6L19 8L20 8L20 10L19 10L19 11L20 11L20 12L19 12L19 13L20 13L20 14L21 14L21 13L20 13L20 12L22 12L22 11L21 11L21 8L20 8L20 5L18 5L18 4L17 4L17 5L15 5L15 4ZM17 5L17 6L18 6L18 5ZM9 6L9 7L10 7L10 6ZM11 6L11 7L12 7L12 6ZM10 8L10 9L11 9L11 10L12 10L12 11L11 11L11 12L10 12L10 11L9 11L9 9L8 9L8 11L9 11L9 12L10 12L10 13L11 13L11 15L12 15L12 16L14 16L14 18L15 18L15 17L16 17L16 16L14 16L14 15L13 15L13 14L12 14L12 11L13 11L13 12L14 12L14 11L16 11L16 9L15 9L15 10L14 10L14 9L11 9L11 8ZM17 8L17 10L18 10L18 8ZM4 9L4 10L5 10L5 9ZM6 9L6 10L7 10L7 9ZM23 10L23 11L24 11L24 10ZM5 11L5 12L7 12L7 11ZM27 12L27 13L28 13L28 12ZM6 13L6 14L8 14L8 13ZM22 14L22 15L24 15L24 16L22 16L22 18L21 18L21 19L22 19L22 18L23 18L23 17L24 17L24 18L25 18L25 19L24 19L24 20L25 20L25 23L26 23L26 24L27 24L27 21L26 21L26 20L27 20L27 18L26 18L26 17L24 17L24 16L25 16L25 15L24 15L24 14ZM20 15L20 16L21 16L21 15ZM1 18L1 19L2 19L2 20L3 20L3 19L2 19L2 18ZM4 19L4 20L5 20L5 19ZM25 19L25 20L26 20L26 19ZM21 21L21 24L24 24L24 21ZM19 22L19 23L20 23L20 22ZM22 22L22 23L23 23L23 22ZM9 23L9 24L10 24L10 25L11 25L11 24L10 24L10 23ZM8 26L8 27L9 27L9 26ZM15 27L15 28L16 28L16 27ZM12 28L12 29L13 29L13 28ZM0 0L0 7L7 7L7 0ZM1 1L1 6L6 6L6 1ZM2 2L2 5L5 5L5 2ZM22 0L22 7L29 7L29 0ZM23 1L23 6L28 6L28 1ZM24 2L24 5L27 5L27 2ZM0 22L0 29L7 29L7 22ZM1 23L1 28L6 28L6 23ZM2 24L2 27L5 27L5 24Z" fill="#000000"/></g></g></svg>
