<?xml version="1.0" encoding="UTF-8"?>
<svg xmlns="http://www.w3.org/2000/svg" version="1.1" width="200" height="200" viewBox="0 0 200 200"><rect x="0" y="0" width="200" height="200" fill="#ffffff"/><g transform="scale(6.897)"><g transform="translate(0,0)"><path fill-rule="evenodd" d="M8 0L8 1L9 1L9 2L12 2L12 4L13 4L13 5L11 5L11 3L10 3L10 4L9 4L9 3L8 3L8 4L9 4L9 5L11 5L11 6L10 6L10 8L8 8L8 9L9 9L9 10L6 10L6 9L7 9L7 8L4 8L4 9L3 9L3 8L2 8L2 9L0 9L0 10L1 10L1 11L0 11L0 12L2 12L2 13L3 13L3 15L2 15L2 16L1 16L1 18L0 18L0 19L1 19L1 20L0 20L0 21L1 21L1 20L3 20L3 21L8 21L8 22L10 22L10 23L8 23L8 25L9 25L9 24L10 24L10 23L11 23L11 22L12 22L12 20L13 20L13 21L14 21L14 22L13 22L13 23L12 23L12 24L11 24L11 25L10 25L10 28L9 28L9 29L13 29L13 28L11 28L11 27L13 27L13 26L14 26L14 29L15 29L15 28L17 28L17 29L19 29L19 28L17 28L17 27L21 27L21 28L20 28L20 29L27 29L27 28L28 28L28 29L29 29L29 26L28 26L28 25L27 25L27 24L28 24L28 23L29 23L29 22L28 22L28 18L27 18L27 17L26 17L26 14L24 14L24 13L25 13L25 12L24 12L24 11L26 11L26 13L27 13L27 14L28 14L28 15L27 15L27 16L28 16L28 17L29 17L29 16L28 16L28 15L29 15L29 14L28 14L28 13L29 13L29 12L28 12L28 11L29 11L29 8L28 8L28 9L27 9L27 10L28 10L28 11L26 11L26 8L25 8L25 10L24 10L24 9L23 9L23 10L22 10L22 8L21 8L21 3L20 3L20 2L19 2L19 3L20 3L20 4L18 4L18 3L17 3L17 2L18 2L18 1L19 1L19 0L18 0L18 1L17 1L17 0L13 0L13 2L12 2L12 0L10 0L10 1L9 1L9 0ZM14 1L14 3L15 3L15 1ZM16 3L16 4L17 4L17 5L15 5L15 4L14 4L14 5L15 5L15 7L16 7L16 6L17 6L17 7L18 7L18 6L19 6L19 8L20 8L20 10L19 10L19 11L17 11L17 12L16 12L16 11L15 11L15 10L18 10L18 8L17 8L17 9L15 9L15 8L13 8L13 9L12 9L12 10L13 10L13 12L14 12L14 11L15 11L15 12L16 12L16 13L13 13L13 14L12 14L12 12L10 12L10 11L9 11L9 12L10 12L10 13L9 13L9 14L10 14L10 15L9 15L9 16L8 16L8 15L6 15L6 14L8 14L8 11L5 11L5 12L4 12L4 10L5 10L5 9L4 9L4 10L3 10L3 9L2 9L2 10L3 10L3 11L2 11L2 12L3 12L3 13L4 13L4 15L3 15L3 16L2 16L2 18L1 18L1 19L4 19L4 20L5 20L5 19L4 19L4 18L5 18L5 16L4 16L4 15L6 15L6 16L7 16L7 17L6 17L6 18L7 18L7 17L9 17L9 18L8 18L8 19L6 19L6 20L8 20L8 21L9 21L9 19L10 19L10 15L12 15L12 16L13 16L13 17L11 17L11 20L12 20L12 18L13 18L13 17L14 17L14 18L15 18L15 19L14 19L14 21L15 21L15 22L14 22L14 23L15 23L15 24L14 24L14 25L15 25L15 26L16 26L16 27L17 27L17 26L18 26L18 25L19 25L19 26L20 26L20 24L18 24L18 23L17 23L17 22L18 22L18 21L19 21L19 20L20 20L20 19L19 19L19 18L17 18L17 19L18 19L18 21L17 21L17 22L16 22L16 20L15 20L15 19L16 19L16 16L13 16L13 14L16 14L16 15L17 15L17 14L16 14L16 13L18 13L18 12L19 12L19 13L20 13L20 14L18 14L18 16L17 16L17 17L18 17L18 16L19 16L19 17L20 17L20 16L21 16L21 15L20 15L20 14L21 14L21 13L20 13L20 12L22 12L22 11L21 11L21 8L20 8L20 5L18 5L18 4L17 4L17 3ZM17 5L17 6L18 6L18 5ZM8 6L8 7L9 7L9 6ZM11 6L11 7L12 7L12 6ZM13 6L13 7L14 7L14 6ZM10 9L10 10L11 10L11 9ZM14 9L14 10L15 10L15 9ZM23 10L23 11L24 11L24 10ZM19 11L19 12L20 12L20 11ZM5 12L5 14L6 14L6 13L7 13L7 12ZM27 12L27 13L28 13L28 12ZM0 13L0 14L1 14L1 13ZM10 13L10 14L11 14L11 13ZM22 14L22 15L24 15L24 16L22 16L22 18L21 18L21 19L22 19L22 18L23 18L23 19L24 19L24 20L25 20L25 23L26 23L26 24L27 24L27 21L26 21L26 20L27 20L27 18L26 18L26 17L25 17L25 19L24 19L24 18L23 18L23 17L24 17L24 16L25 16L25 15L24 15L24 14ZM19 15L19 16L20 16L20 15ZM3 17L3 18L4 18L4 17ZM21 21L21 24L24 24L24 21ZM19 22L19 23L20 23L20 22ZM22 22L22 23L23 23L23 22ZM16 23L16 25L17 25L17 23ZM12 24L12 25L11 25L11 26L12 26L12 25L13 25L13 24ZM22 25L22 26L21 26L21 27L22 27L22 28L27 28L27 27L28 27L28 26L27 26L27 25L24 25L24 26L23 26L23 25ZM8 26L8 27L9 27L9 26ZM26 26L26 27L27 27L27 26ZM0 0L0 7L7 7L7 0ZM1 1L1 6L6 6L6 1ZM2 2L2 5L5 5L5 2ZM22 0L22 7L29 7L29 0ZM23 1L23 6L28 6L28 1ZM24 2L24 5L27 5L27 2ZM0 22L0 29L7 29L7 22ZM1 23L1 28L6 28L6 23ZM2 24L2 27L5 27L5 24Z" fill="#000000"/></g></g></svg>
