<?xml version="1.0" encoding="UTF-8"?>
<svg xmlns="http://www.w3.org/2000/svg" version="1.1" width="200" height="200" viewBox="0 0 200 200"><rect x="0" y="0" width="200" height="200" fill="#ffffff"/><g transform="scale(4.878)"><g transform="translate(0,0)"><path fill-rule="evenodd" d="M8 0L8 3L9 3L9 4L10 4L10 7L9 7L9 5L8 5L8 10L9 10L9 8L10 8L10 10L12 10L12 11L13 11L13 13L14 13L14 14L12 14L12 15L11 15L11 14L10 14L10 13L9 13L9 12L11 12L11 11L8 11L8 12L5 12L5 11L4 11L4 10L6 10L6 11L7 11L7 10L6 10L6 9L7 9L7 8L6 8L6 9L5 9L5 8L2 8L2 10L3 10L3 11L0 11L0 12L1 12L1 13L3 13L3 14L1 14L1 15L4 15L4 16L5 16L5 17L3 17L3 16L0 16L0 17L1 17L1 18L0 18L0 20L1 20L1 23L0 23L0 25L1 25L1 23L2 23L2 26L0 26L0 28L1 28L1 27L3 27L3 30L4 30L4 28L5 28L5 27L7 27L7 28L6 28L6 29L5 29L5 30L6 30L6 31L7 31L7 30L6 30L6 29L8 29L8 30L9 30L9 32L8 32L8 34L10 34L10 36L13 36L13 37L14 37L14 38L13 38L13 39L9 39L9 38L11 38L11 37L9 37L9 36L8 36L8 39L9 39L9 41L10 41L10 40L11 40L11 41L12 41L12 40L13 40L13 41L14 41L14 40L15 40L15 41L16 41L16 40L17 40L17 41L18 41L18 40L19 40L19 41L20 41L20 38L19 38L19 39L18 39L18 38L17 38L17 39L16 39L16 36L15 36L15 34L16 34L16 35L17 35L17 36L18 36L18 35L17 35L17 34L16 34L16 33L15 33L15 32L18 32L18 30L19 30L19 32L20 32L20 33L19 33L19 36L20 36L20 37L21 37L21 36L22 36L22 38L21 38L21 41L26 41L26 39L28 39L28 38L26 38L26 37L25 37L25 36L24 36L24 37L25 37L25 39L24 39L24 38L23 38L23 35L24 35L24 34L22 34L22 31L23 31L23 33L25 33L25 32L27 32L27 33L26 33L26 34L27 34L27 37L29 37L29 38L30 38L30 40L29 40L29 41L30 41L30 40L33 40L33 41L34 41L34 40L33 40L33 39L31 39L31 38L34 38L34 39L35 39L35 40L36 40L36 39L37 39L37 40L40 40L40 38L41 38L41 37L39 37L39 36L41 36L41 35L40 35L40 34L41 34L41 33L39 33L39 32L38 32L38 31L35 31L35 30L34 30L34 31L35 31L35 32L33 32L33 31L32 31L32 30L33 30L33 29L34 29L34 28L33 28L33 27L34 27L34 26L35 26L35 25L36 25L36 26L37 26L37 27L36 27L36 28L35 28L35 29L36 29L36 30L37 30L37 29L36 29L36 28L38 28L38 26L39 26L39 28L41 28L41 27L40 27L40 26L41 26L41 23L39 23L39 24L40 24L40 26L39 26L39 25L36 25L36 24L37 24L37 23L38 23L38 22L39 22L39 20L36 20L36 19L35 19L35 17L36 17L36 18L38 18L38 17L39 17L39 16L37 16L37 13L36 13L36 14L35 14L35 15L36 15L36 16L35 16L35 17L34 17L34 16L32 16L32 17L30 17L30 16L29 16L29 15L30 15L30 14L31 14L31 11L30 11L30 12L29 12L29 13L28 13L28 12L27 12L27 14L29 14L29 15L28 15L28 16L29 16L29 17L30 17L30 19L31 19L31 18L32 18L32 21L31 21L31 20L30 20L30 21L31 21L31 22L32 22L32 23L34 23L34 24L35 24L35 25L33 25L33 24L32 24L32 25L31 25L31 23L30 23L30 24L29 24L29 25L28 25L28 24L27 24L27 23L28 23L28 22L29 22L29 21L28 21L28 20L29 20L29 19L28 19L28 18L26 18L26 16L27 16L27 15L26 15L26 16L25 16L25 18L24 18L24 15L23 15L23 14L25 14L25 13L26 13L26 12L25 12L25 9L26 9L26 11L28 11L28 10L27 10L27 9L31 9L31 10L32 10L32 13L33 13L33 14L32 14L32 15L34 15L34 13L35 13L35 9L36 9L36 12L38 12L38 11L40 11L40 10L41 10L41 8L38 8L38 9L40 9L40 10L37 10L37 9L36 9L36 8L25 8L25 9L23 9L23 10L24 10L24 11L23 11L23 13L22 13L22 14L21 14L21 12L20 12L20 11L21 11L21 10L22 10L22 9L21 9L21 8L22 8L22 7L23 7L23 8L24 8L24 7L25 7L25 3L22 3L22 4L24 4L24 5L22 5L22 7L21 7L21 6L20 6L20 7L21 7L21 8L20 8L20 9L19 9L19 6L18 6L18 10L19 10L19 11L17 11L17 8L16 8L16 7L17 7L17 6L16 6L16 3L17 3L17 5L18 5L18 4L19 4L19 2L17 2L17 1L18 1L18 0L15 0L15 2L13 2L13 3L11 3L11 0L10 0L10 1L9 1L9 0ZM13 0L13 1L14 1L14 0ZM19 0L19 1L20 1L20 2L21 2L21 1L22 1L22 2L24 2L24 0L21 0L21 1L20 1L20 0ZM26 0L26 1L27 1L27 2L26 2L26 3L28 3L28 4L29 4L29 3L32 3L32 2L33 2L33 1L32 1L32 0L31 0L31 1L32 1L32 2L30 2L30 0L29 0L29 1L27 1L27 0ZM9 2L9 3L10 3L10 4L11 4L11 7L10 7L10 8L11 8L11 9L12 9L12 10L13 10L13 11L14 11L14 9L16 9L16 8L15 8L15 7L16 7L16 6L15 6L15 7L14 7L14 5L15 5L15 3L13 3L13 5L12 5L12 4L11 4L11 3L10 3L10 2ZM20 3L20 4L21 4L21 3ZM26 4L26 7L27 7L27 6L28 6L28 7L29 7L29 6L28 6L28 5L27 5L27 4ZM30 4L30 7L31 7L31 5L32 5L32 7L33 7L33 4ZM12 6L12 7L13 7L13 6ZM23 6L23 7L24 7L24 6ZM12 8L12 9L13 9L13 8ZM3 9L3 10L4 10L4 9ZM20 9L20 10L21 10L21 9ZM32 9L32 10L33 10L33 11L34 11L34 9ZM15 10L15 14L14 14L14 15L13 15L13 16L12 16L12 17L11 17L11 16L10 16L10 15L9 15L9 13L8 13L8 15L6 15L6 14L7 14L7 13L6 13L6 14L4 14L4 15L5 15L5 16L10 16L10 17L11 17L11 18L12 18L12 17L13 17L13 18L14 18L14 17L15 17L15 15L16 15L16 14L17 14L17 17L16 17L16 19L15 19L15 20L16 20L16 19L17 19L17 21L15 21L15 24L17 24L17 23L16 23L16 22L18 22L18 23L19 23L19 25L18 25L18 26L17 26L17 25L15 25L15 26L12 26L12 27L11 27L11 29L12 29L12 30L11 30L11 31L13 31L13 32L10 32L10 34L11 34L11 35L14 35L14 31L16 31L16 30L17 30L17 29L19 29L19 30L20 30L20 29L19 29L19 27L18 27L18 26L19 26L19 25L20 25L20 27L21 27L21 26L22 26L22 28L21 28L21 31L22 31L22 30L23 30L23 31L24 31L24 32L25 32L25 31L26 31L26 30L27 30L27 29L26 29L26 30L25 30L25 29L24 29L24 30L23 30L23 29L22 29L22 28L24 28L24 27L25 27L25 28L27 28L27 27L25 27L25 26L26 26L26 25L24 25L24 26L22 26L22 25L23 25L23 22L25 22L25 23L24 23L24 24L25 24L25 23L26 23L26 22L28 22L28 21L27 21L27 20L26 20L26 19L25 19L25 20L24 20L24 21L23 21L23 22L22 22L22 20L23 20L23 19L24 19L24 18L23 18L23 19L22 19L22 20L21 20L21 18L22 18L22 17L21 17L21 16L19 16L19 14L18 14L18 13L20 13L20 12L17 12L17 13L16 13L16 10ZM3 12L3 13L5 13L5 12ZM24 12L24 13L25 13L25 12ZM33 12L33 13L34 13L34 12ZM39 12L39 13L38 13L38 14L39 14L39 15L40 15L40 14L41 14L41 12ZM29 13L29 14L30 14L30 13ZM39 13L39 14L40 14L40 13ZM20 14L20 15L21 15L21 14ZM22 15L22 16L23 16L23 15ZM36 16L36 17L37 17L37 16ZM40 16L40 18L39 18L39 19L40 19L40 18L41 18L41 16ZM5 17L5 18L4 18L4 19L5 19L5 18L7 18L7 19L6 19L6 20L3 20L3 18L1 18L1 19L2 19L2 21L6 21L6 22L7 22L7 23L5 23L5 22L2 22L2 23L3 23L3 26L4 26L4 27L5 27L5 26L7 26L7 25L6 25L6 24L7 24L7 23L8 23L8 22L9 22L9 21L11 21L11 22L10 22L10 23L11 23L11 25L10 25L10 26L8 26L8 29L9 29L9 30L10 30L10 29L9 29L9 27L10 27L10 26L11 26L11 25L13 25L13 24L14 24L14 22L13 22L13 21L14 21L14 19L12 19L12 20L13 20L13 21L11 21L11 19L10 19L10 18L9 18L9 17L8 17L8 18L7 18L7 17ZM17 17L17 18L18 18L18 22L19 22L19 23L20 23L20 24L21 24L21 25L22 25L22 24L21 24L21 23L22 23L22 22L20 22L20 18L18 18L18 17ZM32 17L32 18L33 18L33 20L34 20L34 21L32 21L32 22L34 22L34 23L35 23L35 24L36 24L36 23L35 23L35 22L36 22L36 21L35 21L35 19L34 19L34 18L33 18L33 17ZM8 18L8 19L7 19L7 20L6 20L6 21L7 21L7 20L8 20L8 21L9 21L9 20L8 20L8 19L9 19L9 18ZM25 20L25 22L26 22L26 20ZM40 20L40 21L41 21L41 20ZM34 21L34 22L35 22L35 21ZM37 21L37 22L38 22L38 21ZM11 22L11 23L13 23L13 22ZM4 23L4 24L5 24L5 23ZM4 25L4 26L5 26L5 25ZM27 25L27 26L28 26L28 27L29 27L29 28L30 28L30 29L28 29L28 30L30 30L30 29L31 29L31 30L32 30L32 29L33 29L33 28L31 28L31 27L33 27L33 25L32 25L32 26L31 26L31 25L30 25L30 26L28 26L28 25ZM15 26L15 27L16 27L16 26ZM13 27L13 31L14 31L14 27ZM15 28L15 30L16 30L16 29L17 29L17 28ZM0 29L0 33L1 33L1 29ZM38 29L38 30L39 30L39 31L40 31L40 32L41 32L41 31L40 31L40 30L41 30L41 29ZM24 30L24 31L25 31L25 30ZM2 31L2 33L3 33L3 32L4 32L4 33L5 33L5 31ZM28 31L28 33L27 33L27 34L28 34L28 36L29 36L29 37L32 37L32 35L31 35L31 33L30 33L30 35L31 35L31 36L29 36L29 34L28 34L28 33L29 33L29 32L30 32L30 31ZM6 32L6 33L7 33L7 32ZM37 32L37 33L38 33L38 34L37 34L37 36L39 36L39 35L38 35L38 34L39 34L39 33L38 33L38 32ZM11 33L11 34L12 34L12 33ZM33 33L33 36L36 36L36 33ZM20 34L20 36L21 36L21 35L22 35L22 34ZM34 34L34 35L35 35L35 34ZM14 36L14 37L15 37L15 36ZM34 37L34 38L36 38L36 37ZM37 38L37 39L38 39L38 38ZM13 39L13 40L14 40L14 39ZM27 40L27 41L28 41L28 40ZM0 0L0 7L7 7L7 0ZM1 1L1 6L6 6L6 1ZM2 2L2 5L5 5L5 2ZM34 0L34 7L41 7L41 0ZM35 1L35 6L40 6L40 1ZM36 2L36 5L39 5L39 2ZM0 34L0 41L7 41L7 34ZM1 35L1 40L6 40L6 35ZM2 36L2 39L5 39L5 36Z" fill="#000000"/></g></g></svg>
