<?xml version="1.0" encoding="UTF-8"?>
<svg xmlns="http://www.w3.org/2000/svg" version="1.1" width="200" height="200" viewBox="0 0 200 200"><rect x="0" y="0" width="200" height="200" fill="#ffffff"/><g transform="scale(4.878)"><g transform="translate(0,0)"><path fill-rule="evenodd" d="M8 0L8 3L9 3L9 1L10 1L10 2L12 2L12 3L13 3L13 2L12 2L12 1L10 1L10 0ZM14 0L14 2L15 2L15 3L14 3L14 4L16 4L16 5L11 5L11 3L10 3L10 4L9 4L9 5L8 5L8 10L6 10L6 9L7 9L7 8L6 8L6 9L5 9L5 8L2 8L2 9L0 9L0 12L1 12L1 13L2 13L2 12L3 12L3 14L2 14L2 15L3 15L3 16L2 16L2 18L1 18L1 17L0 17L0 18L1 18L1 20L0 20L0 21L1 21L1 20L2 20L2 22L0 22L0 27L2 27L2 28L1 28L1 29L0 29L0 33L1 33L1 30L2 30L2 32L3 32L3 30L6 30L6 31L5 31L5 33L8 33L8 34L9 34L9 33L10 33L10 35L9 35L9 36L8 36L8 39L10 39L10 36L11 36L11 37L12 37L12 38L11 38L11 39L13 39L13 38L14 38L14 40L9 40L9 41L15 41L15 40L16 40L16 39L15 39L15 37L16 37L16 38L17 38L17 41L19 41L19 40L20 40L20 41L32 41L32 40L33 40L33 41L34 41L34 40L33 40L33 39L32 39L32 40L28 40L28 39L31 39L31 38L34 38L34 39L35 39L35 40L36 40L36 39L37 39L37 40L40 40L40 38L41 38L41 37L40 37L40 36L41 36L41 35L40 35L40 34L41 34L41 33L39 33L39 32L38 32L38 31L40 31L40 32L41 32L41 31L40 31L40 30L41 30L41 29L40 29L40 28L41 28L41 27L40 27L40 26L41 26L41 23L39 23L39 24L40 24L40 26L39 26L39 25L36 25L36 24L37 24L37 20L38 20L38 22L39 22L39 20L38 20L38 19L40 19L40 18L41 18L41 16L40 16L40 18L38 18L38 19L37 19L37 20L36 20L36 19L35 19L35 17L36 17L36 18L37 18L37 17L39 17L39 16L37 16L37 15L39 15L39 14L41 14L41 12L40 12L40 10L41 10L41 8L38 8L38 9L40 9L40 10L37 10L37 9L36 9L36 8L33 8L33 6L32 6L32 7L31 7L31 5L33 5L33 4L30 4L30 5L27 5L27 4L25 4L25 5L24 5L24 4L23 4L23 6L22 6L22 7L21 7L21 5L22 5L22 4L21 4L21 3L20 3L20 4L16 4L16 0ZM17 0L17 1L19 1L19 2L20 2L20 1L22 1L22 0ZM24 0L24 1L25 1L25 0ZM26 0L26 1L27 1L27 2L26 2L26 3L28 3L28 4L29 4L29 3L31 3L31 2L30 2L30 1L32 1L32 3L33 3L33 0L29 0L29 1L27 1L27 0ZM22 2L22 3L23 3L23 2ZM24 2L24 3L25 3L25 2ZM9 5L9 7L10 7L10 6L11 6L11 7L12 7L12 9L14 9L14 8L13 8L13 7L14 7L14 6L13 6L13 7L12 7L12 6L11 6L11 5ZM16 5L16 6L15 6L15 8L17 8L17 11L15 11L15 10L16 10L16 9L15 9L15 10L14 10L14 11L13 11L13 10L12 10L12 11L11 11L11 10L10 10L10 8L9 8L9 10L10 10L10 11L9 11L9 12L7 12L7 11L6 11L6 10L5 10L5 11L4 11L4 9L2 9L2 10L1 10L1 12L2 12L2 11L3 11L3 12L4 12L4 14L3 14L3 15L4 15L4 16L3 16L3 18L4 18L4 19L2 19L2 20L3 20L3 21L4 21L4 23L6 23L6 24L7 24L7 25L6 25L6 26L5 26L5 27L6 27L6 28L7 28L7 27L6 27L6 26L8 26L8 23L9 23L9 22L7 22L7 21L6 21L6 20L9 20L9 18L8 18L8 19L6 19L6 18L7 18L7 17L6 17L6 16L8 16L8 17L9 17L9 12L10 12L10 11L11 11L11 14L10 14L10 16L11 16L11 17L10 17L10 19L11 19L11 21L12 21L12 22L11 22L11 24L9 24L9 25L10 25L10 27L12 27L12 28L10 28L10 29L12 29L12 28L15 28L15 27L17 27L17 29L14 29L14 31L12 31L12 30L11 30L11 31L10 31L10 30L9 30L9 27L8 27L8 29L6 29L6 30L7 30L7 31L6 31L6 32L8 32L8 33L9 33L9 31L10 31L10 32L11 32L11 34L13 34L13 33L14 33L14 32L15 32L15 31L16 31L16 30L18 30L18 32L17 32L17 33L16 33L16 36L19 36L19 37L17 37L17 38L18 38L18 39L19 39L19 37L21 37L21 38L23 38L23 37L24 37L24 38L25 38L25 39L26 39L26 40L27 40L27 39L26 39L26 38L28 38L28 37L29 37L29 38L30 38L30 37L32 37L32 36L28 36L28 35L29 35L29 33L27 33L27 32L25 32L25 30L24 30L24 29L23 29L23 28L24 28L24 27L25 27L25 28L26 28L26 29L27 29L27 28L30 28L30 29L28 29L28 30L29 30L29 31L28 31L28 32L31 32L31 31L30 31L30 29L31 29L31 30L32 30L32 31L33 31L33 32L35 32L35 31L38 31L38 30L39 30L39 28L40 28L40 27L39 27L39 26L38 26L38 28L36 28L36 27L37 27L37 26L36 26L36 25L35 25L35 24L36 24L36 23L35 23L35 22L36 22L36 21L35 21L35 19L34 19L34 18L31 18L31 17L33 17L33 16L34 16L34 17L35 17L35 16L36 16L36 17L37 17L37 16L36 16L36 15L37 15L37 14L39 14L39 11L38 11L38 12L35 12L35 13L34 13L34 12L33 12L33 11L34 11L34 9L33 9L33 8L31 8L31 7L30 7L30 6L29 6L29 7L28 7L28 6L27 6L27 5L25 5L25 7L24 7L24 6L23 6L23 7L22 7L22 8L24 8L24 10L25 10L25 11L27 11L27 12L28 12L28 13L29 13L29 14L27 14L27 13L26 13L26 12L24 12L24 13L25 13L25 14L23 14L23 12L22 12L22 13L20 13L20 12L21 12L21 11L18 11L18 9L20 9L20 10L22 10L22 11L23 11L23 10L22 10L22 9L20 9L20 8L21 8L21 7L20 7L20 5L18 5L18 6L17 6L17 5ZM16 6L16 7L17 7L17 6ZM18 6L18 7L19 7L19 8L20 8L20 7L19 7L19 6ZM26 6L26 8L27 8L27 9L28 9L28 10L27 10L27 11L29 11L29 9L30 9L30 11L31 11L31 10L32 10L32 11L33 11L33 9L30 9L30 8L29 8L29 9L28 9L28 8L27 8L27 6ZM35 9L35 11L36 11L36 9ZM12 11L12 13L13 13L13 14L11 14L11 16L12 16L12 17L11 17L11 19L12 19L12 21L13 21L13 22L15 22L15 20L13 20L13 18L12 18L12 17L14 17L14 19L15 19L15 17L16 17L16 16L18 16L18 17L19 17L19 18L17 18L17 19L16 19L16 23L15 23L15 25L14 25L14 23L12 23L12 24L13 24L13 25L11 25L11 26L12 26L12 27L13 27L13 25L14 25L14 26L18 26L18 25L19 25L19 29L18 29L18 30L20 30L20 31L21 31L21 33L20 33L20 34L19 34L19 32L18 32L18 34L17 34L17 35L21 35L21 33L22 33L22 32L23 32L23 31L24 31L24 30L23 30L23 29L22 29L22 28L20 28L20 27L21 27L21 26L22 26L22 27L24 27L24 26L23 26L23 25L25 25L25 26L26 26L26 25L25 25L25 24L27 24L27 25L29 25L29 26L27 26L27 27L29 27L29 26L32 26L32 27L31 27L31 28L33 28L33 29L32 29L32 30L33 30L33 29L34 29L34 28L33 28L33 27L34 27L34 26L35 26L35 25L33 25L33 24L34 24L34 22L35 22L35 21L34 21L34 20L32 20L32 19L31 19L31 18L30 18L30 19L31 19L31 20L30 20L30 21L31 21L31 22L30 22L30 23L31 23L31 24L32 24L32 25L30 25L30 24L27 24L27 23L29 23L29 22L27 22L27 21L29 21L29 20L27 20L27 21L26 21L26 18L25 18L25 24L23 24L23 23L24 23L24 22L23 22L23 21L22 21L22 18L23 18L23 19L24 19L24 18L23 18L23 16L25 16L25 17L27 17L27 16L25 16L25 15L27 15L27 14L25 14L25 15L22 15L22 16L21 16L21 15L19 15L19 14L20 14L20 13L19 13L19 14L18 14L18 15L17 15L17 14L16 14L16 13L15 13L15 14L14 14L14 12L13 12L13 11ZM5 12L5 13L7 13L7 12ZM29 12L29 13L30 13L30 14L29 14L29 15L28 15L28 16L29 16L29 17L31 17L31 15L30 15L30 14L31 14L31 12ZM32 12L32 13L33 13L33 14L32 14L32 15L34 15L34 13L33 13L33 12ZM36 13L36 14L37 14L37 13ZM0 14L0 16L1 16L1 14ZM4 14L4 15L5 15L5 16L4 16L4 18L5 18L5 16L6 16L6 15L7 15L7 14ZM13 14L13 15L12 15L12 16L14 16L14 17L15 17L15 16L16 16L16 14L15 14L15 15L14 15L14 14ZM29 15L29 16L30 16L30 15ZM19 16L19 17L20 17L20 16ZM20 18L20 19L21 19L21 18ZM27 18L27 19L29 19L29 18ZM5 19L5 20L6 20L6 19ZM18 19L18 20L19 20L19 19ZM20 20L20 21L18 21L18 22L17 22L17 23L16 23L16 24L17 24L17 23L18 23L18 24L19 24L19 25L20 25L20 26L21 26L21 25L20 25L20 24L22 24L22 23L23 23L23 22L22 22L22 23L20 23L20 22L21 22L21 20ZM31 20L31 21L32 21L32 22L31 22L31 23L32 23L32 24L33 24L33 22L34 22L34 21L32 21L32 20ZM40 20L40 21L41 21L41 20ZM6 22L6 23L7 23L7 22ZM18 22L18 23L19 23L19 24L20 24L20 23L19 23L19 22ZM2 23L2 24L1 24L1 25L2 25L2 27L4 27L4 26L3 26L3 23ZM4 24L4 25L5 25L5 24ZM32 25L32 26L33 26L33 25ZM2 28L2 30L3 30L3 28ZM35 28L35 29L36 29L36 30L37 30L37 29L36 29L36 28ZM21 29L21 31L23 31L23 30L22 30L22 29ZM8 30L8 31L9 31L9 30ZM26 30L26 31L27 31L27 30ZM34 30L34 31L35 31L35 30ZM24 32L24 33L23 33L23 34L22 34L22 36L23 36L23 35L26 35L26 36L24 36L24 37L28 37L28 36L27 36L27 35L28 35L28 34L25 34L25 32ZM37 32L37 34L38 34L38 35L37 35L37 36L40 36L40 35L39 35L39 33L38 33L38 32ZM30 33L30 35L31 35L31 34L32 34L32 33ZM33 33L33 36L36 36L36 33ZM34 34L34 35L35 35L35 34ZM13 35L13 37L14 37L14 35ZM34 37L34 38L36 38L36 37ZM37 38L37 39L38 39L38 38ZM20 39L20 40L21 40L21 39ZM22 39L22 40L24 40L24 39ZM0 0L0 7L7 7L7 0ZM1 1L1 6L6 6L6 1ZM2 2L2 5L5 5L5 2ZM34 0L34 7L41 7L41 0ZM35 1L35 6L40 6L40 1ZM36 2L36 5L39 5L39 2ZM0 34L0 41L7 41L7 34ZM1 35L1 40L6 40L6 35ZM2 36L2 39L5 39L5 36Z" fill="#000000"/></g></g></svg>
