<?xml version="1.0" encoding="UTF-8"?>
<svg xmlns="http://www.w3.org/2000/svg" version="1.1" width="200" height="200" viewBox="0 0 200 200"><rect x="0" y="0" width="200" height="200" fill="#ffffff"/><g transform="scale(6.897)"><g transform="translate(0,0)"><path fill-rule="evenodd" d="M9 0L9 1L10 1L10 0ZM11 0L11 2L9 2L9 4L8 4L8 5L11 5L11 6L10 6L10 7L9 7L9 6L8 6L8 8L6 8L6 9L5 9L5 11L4 11L4 10L3 10L3 11L2 11L2 9L4 9L4 8L2 8L2 9L0 9L0 10L1 10L1 12L2 12L2 14L4 14L4 15L7 15L7 16L4 16L4 17L8 17L8 19L7 19L7 18L6 18L6 19L5 19L5 20L4 20L4 18L3 18L3 17L1 17L1 18L0 18L0 19L1 19L1 18L3 18L3 20L1 20L1 21L3 21L3 20L4 20L4 21L8 21L8 23L9 23L9 22L10 22L10 24L9 24L9 25L8 25L8 27L9 27L9 28L11 28L11 29L14 29L14 28L12 28L12 27L11 27L11 26L13 26L13 27L15 27L15 29L17 29L17 28L16 28L16 27L15 27L15 26L16 26L16 25L18 25L18 26L17 26L17 27L18 27L18 28L19 28L19 29L20 29L20 28L19 28L19 26L20 26L20 25L23 25L23 26L24 26L24 27L22 27L22 29L23 29L23 28L25 28L25 27L27 27L27 28L26 28L26 29L27 29L27 28L29 28L29 26L28 26L28 27L27 27L27 26L24 26L24 25L26 25L26 23L25 23L25 22L26 22L26 20L27 20L27 22L28 22L28 23L27 23L27 25L28 25L28 23L29 23L29 22L28 22L28 20L27 20L27 19L26 19L26 18L29 18L29 17L26 17L26 16L25 16L25 15L24 15L24 16L23 16L23 17L21 17L21 18L20 18L20 17L19 17L19 16L17 16L17 15L18 15L18 13L20 13L20 14L19 14L19 15L20 15L20 14L21 14L21 13L20 13L20 12L22 12L22 9L23 9L23 13L22 13L22 15L23 15L23 14L24 14L24 13L25 13L25 14L26 14L26 15L27 15L27 16L28 16L28 15L29 15L29 14L28 14L28 15L27 15L27 13L28 13L28 12L29 12L29 11L28 11L28 12L27 12L27 11L26 11L26 10L29 10L29 9L25 9L25 8L24 8L24 9L23 9L23 8L21 8L21 3L20 3L20 2L18 2L18 1L17 1L17 0L15 0L15 1L14 1L14 0L13 0L13 1L12 1L12 0ZM13 1L13 2L14 2L14 3L15 3L15 2L14 2L14 1ZM16 1L16 3L17 3L17 5L16 5L16 4L15 4L15 5L14 5L14 4L13 4L13 3L12 3L12 2L11 2L11 5L12 5L12 6L11 6L11 7L12 7L12 8L11 8L11 9L13 9L13 11L11 11L11 14L9 14L9 15L8 15L8 14L7 14L7 13L6 13L6 14L7 14L7 15L8 15L8 16L9 16L9 15L10 15L10 16L11 16L11 17L12 17L12 16L14 16L14 17L15 17L15 16L14 16L14 15L17 15L17 14L16 14L16 13L17 13L17 12L20 12L20 11L18 11L18 10L17 10L17 9L18 9L18 8L19 8L19 10L20 10L20 9L21 9L21 8L19 8L19 7L20 7L20 5L19 5L19 7L18 7L18 6L17 6L17 5L18 5L18 2L17 2L17 1ZM19 3L19 4L20 4L20 3ZM13 5L13 6L12 6L12 7L13 7L13 6L14 6L14 7L15 7L15 6L16 6L16 7L17 7L17 6L16 6L16 5L15 5L15 6L14 6L14 5ZM9 8L9 9L8 9L8 10L7 10L7 9L6 9L6 10L7 10L7 11L6 11L6 12L9 12L9 13L10 13L10 12L9 12L9 11L10 11L10 10L9 10L9 9L10 9L10 8ZM13 8L13 9L17 9L17 8ZM24 9L24 10L25 10L25 9ZM14 10L14 11L13 11L13 12L12 12L12 15L11 15L11 16L12 16L12 15L14 15L14 14L15 14L15 13L14 13L14 12L16 12L16 11L17 11L17 10L16 10L16 11L15 11L15 10ZM25 11L25 13L27 13L27 12L26 12L26 11ZM4 12L4 13L5 13L5 12ZM0 15L0 16L1 16L1 15ZM16 16L16 18L15 18L15 20L14 20L14 18L13 18L13 21L12 21L12 20L11 20L11 19L12 19L12 18L10 18L10 17L9 17L9 19L10 19L10 22L11 22L11 24L12 24L12 25L13 25L13 26L15 26L15 24L19 24L19 25L20 25L20 24L19 24L19 23L20 23L20 21L19 21L19 22L18 22L18 23L15 23L15 22L16 22L16 21L17 21L17 20L16 20L16 19L17 19L17 18L18 18L18 19L19 19L19 20L20 20L20 18L19 18L19 17L17 17L17 16ZM24 16L24 17L23 17L23 18L22 18L22 19L21 19L21 20L22 20L22 19L24 19L24 18L26 18L26 17L25 17L25 16ZM6 19L6 20L7 20L7 19ZM8 20L8 21L9 21L9 20ZM11 21L11 22L12 22L12 24L13 24L13 25L14 25L14 24L15 24L15 23L14 23L14 22L15 22L15 21L14 21L14 22L12 22L12 21ZM21 21L21 24L24 24L24 21ZM22 22L22 23L23 23L23 22ZM9 25L9 26L11 26L11 25ZM0 0L0 7L7 7L7 0ZM1 1L1 6L6 6L6 1ZM2 2L2 5L5 5L5 2ZM22 0L22 7L29 7L29 0ZM23 1L23 6L28 6L28 1ZM24 2L24 5L27 5L27 2ZM0 22L0 29L7 29L7 22ZM1 23L1 28L6 28L6 23ZM2 24L2 27L5 27L5 24Z" fill="#000000"/></g></g></svg>
