<?xml version="1.0" encoding="UTF-8"?>
<svg xmlns="http://www.w3.org/2000/svg" version="1.1" width="200" height="200" viewBox="0 0 200 200"><rect x="0" y="0" width="200" height="200" fill="#ffffff"/><g transform="scale(6.897)"><g transform="translate(0,0)"><path fill-rule="evenodd" d="M8 0L8 1L9 1L9 2L10 2L10 1L9 1L9 0ZM11 0L11 1L12 1L12 2L11 2L11 3L10 3L10 4L9 4L9 3L8 3L8 4L9 4L9 6L8 6L8 7L9 7L9 6L10 6L10 7L11 7L11 5L12 5L12 4L13 4L13 6L12 6L12 7L13 7L13 8L10 8L10 9L9 9L9 8L8 8L8 9L9 9L9 10L6 10L6 9L7 9L7 8L4 8L4 9L3 9L3 8L2 8L2 9L1 9L1 10L2 10L2 11L4 11L4 12L6 12L6 13L3 13L3 15L2 15L2 16L1 16L1 13L2 13L2 12L0 12L0 16L1 16L1 18L0 18L0 19L1 19L1 20L0 20L0 21L1 21L1 20L2 20L2 19L1 19L1 18L3 18L3 19L4 19L4 21L7 21L7 20L6 20L6 19L8 19L8 17L9 17L9 20L8 20L8 22L9 22L9 21L10 21L10 23L8 23L8 25L9 25L9 26L8 26L8 27L9 27L9 28L12 28L12 26L13 26L13 27L15 27L15 29L20 29L20 27L21 27L21 26L22 26L22 25L23 25L23 26L24 26L24 25L25 25L25 26L26 26L26 27L25 27L25 28L23 28L23 27L22 27L22 28L23 28L23 29L27 29L27 28L28 28L28 29L29 29L29 26L28 26L28 25L27 25L27 24L28 24L28 23L29 23L29 22L28 22L28 19L29 19L29 18L27 18L27 17L26 17L26 14L24 14L24 13L25 13L25 11L26 11L26 13L27 13L27 14L28 14L28 15L27 15L27 16L28 16L28 17L29 17L29 16L28 16L28 15L29 15L29 14L28 14L28 13L29 13L29 12L28 12L28 11L29 11L29 8L28 8L28 9L27 9L27 10L28 10L28 11L26 11L26 8L25 8L25 9L24 9L24 10L25 10L25 11L24 11L24 12L23 12L23 10L22 10L22 8L21 8L21 0L20 0L20 1L19 1L19 2L20 2L20 3L19 3L19 4L18 4L18 3L17 3L17 2L18 2L18 1L16 1L16 3L17 3L17 5L16 5L16 7L15 7L15 5L14 5L14 4L15 4L15 3L14 3L14 1L12 1L12 0ZM12 2L12 3L13 3L13 2ZM17 5L17 7L16 7L16 10L17 10L17 11L16 11L16 12L15 12L15 9L14 9L14 8L15 8L15 7L14 7L14 6L13 6L13 7L14 7L14 8L13 8L13 9L12 9L12 12L11 12L11 10L10 10L10 11L8 11L8 12L10 12L10 13L12 13L12 14L11 14L11 15L10 15L10 14L8 14L8 15L6 15L6 16L4 16L4 17L3 17L3 16L2 16L2 17L3 17L3 18L5 18L5 17L6 17L6 18L7 18L7 17L6 17L6 16L9 16L9 17L10 17L10 16L12 16L12 15L14 15L14 16L13 16L13 17L11 17L11 19L10 19L10 20L12 20L12 21L11 21L11 22L12 22L12 21L13 21L13 22L15 22L15 21L16 21L16 22L17 22L17 23L16 23L16 24L17 24L17 25L16 25L16 28L19 28L19 27L17 27L17 25L18 25L18 26L20 26L20 24L19 24L19 25L18 25L18 22L19 22L19 23L20 23L20 22L19 22L19 21L20 21L20 20L21 20L21 19L22 19L22 18L23 18L23 19L24 19L24 18L25 18L25 23L26 23L26 24L27 24L27 21L26 21L26 20L27 20L27 18L26 18L26 17L24 17L24 16L25 16L25 15L24 15L24 14L23 14L23 15L22 15L22 14L21 14L21 13L20 13L20 14L19 14L19 15L18 15L18 14L17 14L17 11L19 11L19 12L20 12L20 11L19 11L19 8L20 8L20 5L19 5L19 7L18 7L18 5ZM4 9L4 10L5 10L5 9ZM13 9L13 12L12 12L12 13L13 13L13 12L14 12L14 14L15 14L15 15L16 15L16 16L14 16L14 17L15 17L15 18L13 18L13 19L12 19L12 20L13 20L13 21L14 21L14 20L15 20L15 19L16 19L16 20L17 20L17 22L18 22L18 21L19 21L19 20L20 20L20 19L19 19L19 18L20 18L20 17L19 17L19 18L18 18L18 17L17 17L17 16L18 16L18 15L16 15L16 13L15 13L15 12L14 12L14 9ZM6 11L6 12L7 12L7 11ZM21 11L21 12L22 12L22 11ZM27 12L27 13L28 13L28 12ZM6 13L6 14L7 14L7 13ZM4 14L4 15L5 15L5 14ZM20 14L20 15L19 15L19 16L20 16L20 15L21 15L21 14ZM23 15L23 16L22 16L22 17L23 17L23 18L24 18L24 17L23 17L23 16L24 16L24 15ZM16 17L16 19L17 19L17 20L18 20L18 19L17 19L17 17ZM21 21L21 24L24 24L24 21ZM22 22L22 23L23 23L23 22ZM10 23L10 24L12 24L12 23ZM14 23L14 25L15 25L15 23ZM11 25L11 26L10 26L10 27L11 27L11 26L12 26L12 25ZM26 25L26 26L27 26L27 27L26 27L26 28L27 28L27 27L28 27L28 26L27 26L27 25ZM13 28L13 29L14 29L14 28ZM0 0L0 7L7 7L7 0ZM1 1L1 6L6 6L6 1ZM2 2L2 5L5 5L5 2ZM22 0L22 7L29 7L29 0ZM23 1L23 6L28 6L28 1ZM24 2L24 5L27 5L27 2ZM0 22L0 29L7 29L7 22ZM1 23L1 28L6 28L6 23ZM2 24L2 27L5 27L5 24Z" fill="#000000"/></g></g></svg>
