<?xml version="1.0" encoding="UTF-8"?>
<svg xmlns="http://www.w3.org/2000/svg" version="1.1" width="200" height="200" viewBox="0 0 200 200"><rect x="0" y="0" width="200" height="200" fill="#ffffff"/><g transform="scale(4.878)"><g transform="translate(0,0)"><path fill-rule="evenodd" d="M11 0L11 1L9 1L9 2L8 2L8 4L9 4L9 6L8 6L8 7L9 7L9 9L8 9L8 8L6 8L6 9L8 9L8 11L9 11L9 13L8 13L8 12L6 12L6 13L8 13L8 14L6 14L6 15L9 15L9 14L10 14L10 11L9 11L9 10L11 10L11 16L12 16L12 17L11 17L11 18L10 18L10 19L9 19L9 20L8 20L8 19L7 19L7 18L6 18L6 17L9 17L9 16L5 16L5 13L4 13L4 12L5 12L5 11L7 11L7 10L5 10L5 8L3 8L3 10L2 10L2 9L0 9L0 13L1 13L1 14L2 14L2 13L3 13L3 15L1 15L1 16L0 16L0 17L1 17L1 19L2 19L2 20L1 20L1 22L0 22L0 24L1 24L1 22L2 22L2 20L3 20L3 23L4 23L4 22L5 22L5 23L7 23L7 24L5 24L5 26L4 26L4 24L2 24L2 26L1 26L1 27L0 27L0 28L1 28L1 27L2 27L2 29L0 29L0 33L2 33L2 31L3 31L3 32L4 32L4 33L7 33L7 32L6 32L6 31L7 31L7 30L8 30L8 29L9 29L9 28L10 28L10 27L11 27L11 29L10 29L10 30L9 30L9 31L8 31L8 32L9 32L9 33L8 33L8 35L9 35L9 36L8 36L8 38L10 38L10 39L9 39L9 40L10 40L10 41L13 41L13 40L14 40L14 41L15 41L15 38L16 38L16 41L18 41L18 40L19 40L19 41L20 41L20 40L21 40L21 39L22 39L22 41L23 41L23 39L22 39L22 38L24 38L24 37L26 37L26 38L25 38L25 40L24 40L24 41L25 41L25 40L26 40L26 41L27 41L27 40L26 40L26 38L27 38L27 39L28 39L28 41L29 41L29 39L30 39L30 41L34 41L34 40L35 40L35 41L36 41L36 39L37 39L37 40L38 40L38 41L39 41L39 40L38 40L38 39L40 39L40 40L41 40L41 35L40 35L40 34L39 34L39 33L40 33L40 32L39 32L39 31L41 31L41 30L38 30L38 29L39 29L39 27L41 27L41 25L39 25L39 24L37 24L37 23L39 23L39 22L41 22L41 21L39 21L39 20L40 20L40 19L41 19L41 18L40 18L40 19L39 19L39 18L38 18L38 19L37 19L37 20L36 20L36 18L37 18L37 17L38 17L38 16L40 16L40 17L41 17L41 11L40 11L40 9L39 9L39 8L37 8L37 9L35 9L35 10L34 10L34 11L35 11L35 10L36 10L36 12L35 12L35 13L36 13L36 14L38 14L38 16L37 16L37 15L36 15L36 16L37 16L37 17L35 17L35 20L34 20L34 19L33 19L33 22L32 22L32 18L33 18L33 17L34 17L34 16L35 16L35 14L33 14L33 13L32 13L32 12L33 12L33 10L32 10L32 7L33 7L33 5L32 5L32 4L33 4L33 0L32 0L32 1L31 1L31 2L30 2L30 1L29 1L29 0L28 0L28 2L27 2L27 1L26 1L26 0L25 0L25 2L24 2L24 3L23 3L23 2L22 2L22 1L21 1L21 0L15 0L15 1L16 1L16 5L14 5L14 4L15 4L15 2L14 2L14 1L13 1L13 0ZM23 0L23 1L24 1L24 0ZM12 1L12 2L10 2L10 6L9 6L9 7L10 7L10 8L11 8L11 9L12 9L12 8L13 8L13 7L14 7L14 8L15 8L15 7L16 7L16 6L17 6L17 7L18 7L18 9L22 9L22 8L24 8L24 5L23 5L23 4L22 4L22 5L23 5L23 7L22 7L22 6L21 6L21 5L20 5L20 4L21 4L21 3L22 3L22 2L21 2L21 3L19 3L19 2L20 2L20 1L19 1L19 2L17 2L17 5L16 5L16 6L15 6L15 7L14 7L14 6L13 6L13 5L11 5L11 3L13 3L13 4L14 4L14 2L13 2L13 1ZM28 2L28 4L26 4L26 3L24 3L24 4L26 4L26 5L27 5L27 9L25 9L25 10L23 10L23 11L22 11L22 12L21 12L21 10L20 10L20 11L19 11L19 10L17 10L17 11L16 11L16 10L15 10L15 9L14 9L14 12L13 12L13 10L12 10L12 16L14 16L14 17L17 17L17 18L18 18L18 20L17 20L17 21L14 21L14 19L16 19L16 18L14 18L14 19L13 19L13 18L12 18L12 19L13 19L13 21L12 21L12 22L11 22L11 21L10 21L10 22L7 22L7 21L6 21L6 20L7 20L7 19L6 19L6 20L5 20L5 19L4 19L4 21L5 21L5 22L7 22L7 23L8 23L8 24L7 24L7 25L6 25L6 26L5 26L5 28L3 28L3 29L2 29L2 30L3 30L3 31L4 31L4 32L5 32L5 31L4 31L4 30L3 30L3 29L6 29L6 30L7 30L7 29L6 29L6 28L9 28L9 27L6 27L6 26L7 26L7 25L8 25L8 26L10 26L10 25L12 25L12 26L13 26L13 28L14 28L14 27L16 27L16 29L14 29L14 30L15 30L15 31L14 31L14 32L15 32L15 31L16 31L16 33L15 33L15 34L16 34L16 33L17 33L17 35L15 35L15 36L14 36L14 37L13 37L13 36L12 36L12 35L14 35L14 34L13 34L13 32L12 32L12 31L13 31L13 29L12 29L12 31L9 31L9 32L10 32L10 33L9 33L9 34L10 34L10 36L9 36L9 37L10 37L10 38L12 38L12 39L14 39L14 37L15 37L15 36L17 36L17 35L19 35L19 34L18 34L18 33L17 33L17 30L20 30L20 32L19 32L19 31L18 31L18 32L19 32L19 33L20 33L20 32L21 32L21 33L23 33L23 34L24 34L24 35L22 35L22 36L25 36L25 34L26 34L26 36L28 36L28 38L30 38L30 37L31 37L31 38L32 38L32 37L31 37L31 36L30 36L30 35L31 35L31 34L32 34L32 32L33 32L33 31L34 31L34 32L35 32L35 30L36 30L36 31L37 31L37 32L38 32L38 31L37 31L37 30L36 30L36 29L38 29L38 28L36 28L36 29L35 29L35 28L34 28L34 29L35 29L35 30L33 30L33 31L32 31L32 28L33 28L33 26L32 26L32 25L33 25L33 23L32 23L32 22L31 22L31 21L30 21L30 20L31 20L31 19L28 19L28 21L29 21L29 22L28 22L28 23L27 23L27 24L28 24L28 27L27 27L27 26L26 26L26 28L25 28L25 27L24 27L24 29L23 29L23 30L24 30L24 29L26 29L26 28L28 28L28 27L29 27L29 29L30 29L30 31L29 31L29 30L28 30L28 29L27 29L27 30L28 30L28 31L26 31L26 30L25 30L25 31L22 31L22 29L21 29L21 30L20 30L20 28L21 28L21 27L20 27L20 26L22 26L22 28L23 28L23 25L22 25L22 24L25 24L25 25L24 25L24 26L25 26L25 25L26 25L26 24L25 24L25 23L23 23L23 22L27 22L27 20L26 20L26 19L25 19L25 20L23 20L23 21L22 21L22 20L21 20L21 19L22 19L22 18L24 18L24 15L26 15L26 14L27 14L27 15L28 15L28 16L25 16L25 18L27 18L27 17L30 17L30 18L31 18L31 17L32 17L32 15L30 15L30 12L29 12L29 15L28 15L28 13L26 13L26 12L28 12L28 11L29 11L29 10L30 10L30 11L31 11L31 12L32 12L32 10L31 10L31 9L29 9L29 8L31 8L31 7L32 7L32 5L31 5L31 7L30 7L30 5L29 5L29 4L32 4L32 2L31 2L31 3L29 3L29 2ZM18 3L18 5L17 5L17 6L18 6L18 7L19 7L19 6L20 6L20 8L21 8L21 6L20 6L20 5L19 5L19 3ZM10 6L10 7L11 7L11 6ZM12 6L12 7L13 7L13 6ZM25 6L25 7L26 7L26 6ZM28 6L28 7L29 7L29 6ZM16 8L16 9L17 9L17 8ZM27 9L27 10L26 10L26 11L25 11L25 12L24 12L24 11L23 11L23 12L22 12L22 13L23 13L23 14L24 14L24 13L25 13L25 12L26 12L26 11L28 11L28 10L29 10L29 9ZM37 9L37 10L38 10L38 12L39 12L39 10L38 10L38 9ZM3 10L3 12L4 12L4 10ZM15 11L15 12L14 12L14 13L13 13L13 15L14 15L14 16L17 16L17 17L21 17L21 18L19 18L19 19L21 19L21 18L22 18L22 17L23 17L23 16L22 16L22 17L21 17L21 16L19 16L19 15L21 15L21 14L20 14L20 13L19 13L19 15L18 15L18 16L17 16L17 15L16 15L16 14L18 14L18 13L17 13L17 12L18 12L18 11L17 11L17 12L16 12L16 11ZM36 12L36 13L37 13L37 12ZM15 13L15 14L14 14L14 15L15 15L15 14L16 14L16 13ZM3 15L3 16L4 16L4 15ZM30 16L30 17L31 17L31 16ZM3 17L3 18L2 18L2 19L3 19L3 18L4 18L4 17ZM10 19L10 20L11 20L11 19ZM18 20L18 21L17 21L17 22L18 22L18 23L17 23L17 24L15 24L15 25L14 25L14 23L16 23L16 22L14 22L14 21L13 21L13 24L12 24L12 23L11 23L11 22L10 22L10 23L9 23L9 25L10 25L10 24L12 24L12 25L14 25L14 26L16 26L16 27L17 27L17 28L20 28L20 27L19 27L19 26L20 26L20 23L21 23L21 24L22 24L22 22L19 22L19 21L20 21L20 20ZM25 20L25 21L26 21L26 20ZM37 20L37 21L38 21L38 20ZM34 21L34 23L36 23L36 21ZM29 22L29 24L30 24L30 25L29 25L29 26L30 26L30 25L32 25L32 23L31 23L31 22ZM30 23L30 24L31 24L31 23ZM18 24L18 25L19 25L19 24ZM35 24L35 27L39 27L39 25L37 25L37 24ZM36 25L36 26L37 26L37 25ZM2 26L2 27L3 27L3 26ZM31 26L31 27L32 27L32 26ZM30 28L30 29L31 29L31 28ZM16 29L16 30L17 30L17 29ZM25 31L25 32L23 32L23 33L26 33L26 34L27 34L27 35L29 35L29 34L30 34L30 33L31 33L31 32L29 32L29 33L28 33L28 32L26 32L26 31ZM33 33L33 36L36 36L36 33ZM20 34L20 35L21 35L21 34ZM34 34L34 35L35 35L35 34ZM37 34L37 35L38 35L38 37L37 37L37 38L40 38L40 35L39 35L39 34ZM10 36L10 37L11 37L11 36ZM20 36L20 37L18 37L18 38L17 38L17 37L16 37L16 38L17 38L17 39L18 39L18 38L20 38L20 39L21 39L21 38L22 38L22 37L21 37L21 36ZM29 36L29 37L30 37L30 36ZM33 37L33 39L31 39L31 40L33 40L33 39L35 39L35 38L36 38L36 37ZM10 39L10 40L11 40L11 39ZM0 0L0 7L7 7L7 0ZM1 1L1 6L6 6L6 1ZM2 2L2 5L5 5L5 2ZM34 0L34 7L41 7L41 0ZM35 1L35 6L40 6L40 1ZM36 2L36 5L39 5L39 2ZM0 34L0 41L7 41L7 34ZM1 35L1 40L6 40L6 35ZM2 36L2 39L5 39L5 36Z" fill="#000000"/></g></g></svg>
