<?xml version="1.0" encoding="UTF-8"?>
<svg xmlns="http://www.w3.org/2000/svg" version="1.1" width="200" height="200" viewBox="0 0 200 200"><rect x="0" y="0" width="200" height="200" fill="#ffffff"/><g transform="scale(4.878)"><g transform="translate(0,0)"><path fill-rule="evenodd" d="M8 0L8 3L12 3L12 0ZM13 0L13 1L14 1L14 2L16 2L16 1L15 1L15 0ZM17 0L17 1L18 1L18 3L15 3L15 4L14 4L14 3L13 3L13 4L11 4L11 5L13 5L13 6L12 6L12 9L11 9L11 6L10 6L10 7L9 7L9 5L8 5L8 9L7 9L7 8L6 8L6 9L5 9L5 8L2 8L2 9L3 9L3 10L2 10L2 11L1 11L1 10L0 10L0 11L1 11L1 12L0 12L0 13L1 13L1 12L2 12L2 13L3 13L3 12L4 12L4 13L5 13L5 14L3 14L3 16L2 16L2 15L1 15L1 14L0 14L0 15L1 15L1 16L0 16L0 17L1 17L1 18L0 18L0 22L1 22L1 21L2 21L2 20L3 20L3 21L4 21L4 22L5 22L5 21L8 21L8 19L9 19L9 22L6 22L6 23L7 23L7 24L6 24L6 25L5 25L5 24L4 24L4 25L3 25L3 22L2 22L2 23L0 23L0 28L1 28L1 26L2 26L2 28L3 28L3 27L4 27L4 28L5 28L5 30L6 30L6 31L4 31L4 30L2 30L2 32L3 32L3 33L4 33L4 32L6 32L6 33L8 33L8 34L9 34L9 36L8 36L8 39L9 39L9 40L10 40L10 41L11 41L11 39L12 39L12 41L16 41L16 40L17 40L17 41L21 41L21 40L22 40L22 41L23 41L23 40L25 40L25 41L26 41L26 40L27 40L27 41L28 41L28 40L27 40L27 39L28 39L28 38L27 38L27 39L26 39L26 38L25 38L25 39L22 39L22 38L24 38L24 37L22 37L22 36L23 36L23 35L22 35L22 34L23 34L23 33L24 33L24 34L25 34L25 32L27 32L27 31L24 31L24 29L27 29L27 30L29 30L29 29L30 29L30 31L31 31L31 29L30 29L30 28L29 28L29 27L28 27L28 26L26 26L26 28L23 28L23 32L22 32L22 34L20 34L20 33L21 33L21 31L18 31L18 29L19 29L19 30L20 30L20 29L21 29L21 30L22 30L22 29L21 29L21 26L20 26L20 27L19 27L19 28L18 28L18 27L17 27L17 28L16 28L16 29L14 29L14 28L15 28L15 27L16 27L16 26L18 26L18 25L19 25L19 23L18 23L18 21L17 21L17 23L16 23L16 25L15 25L15 23L13 23L13 20L14 20L14 21L15 21L15 22L16 22L16 21L15 21L15 20L17 20L17 19L16 19L16 17L17 17L17 15L18 15L18 18L19 18L19 19L18 19L18 20L19 20L19 22L20 22L20 20L21 20L21 19L20 19L20 17L19 17L19 15L18 15L18 14L19 14L19 13L20 13L20 15L21 15L21 18L23 18L23 19L22 19L22 21L21 21L21 22L22 22L22 24L23 24L23 26L22 26L22 27L24 27L24 25L27 25L27 24L28 24L28 25L29 25L29 26L30 26L30 25L31 25L31 26L33 26L33 25L34 25L34 27L33 27L33 28L32 28L32 29L33 29L33 30L32 30L32 31L33 31L33 30L34 30L34 31L36 31L36 32L32 32L32 33L31 33L31 32L29 32L29 31L28 31L28 33L31 33L31 34L30 34L30 35L32 35L32 37L31 37L31 36L30 36L30 37L31 37L31 38L32 38L32 37L33 37L33 38L34 38L34 39L35 39L35 40L36 40L36 39L39 39L39 40L40 40L40 38L41 38L41 36L37 36L37 35L38 35L38 33L39 33L39 35L40 35L40 34L41 34L41 33L40 33L40 32L41 32L41 31L40 31L40 30L41 30L41 29L40 29L40 28L39 28L39 32L37 32L37 31L36 31L36 30L37 30L37 29L36 29L36 28L35 28L35 27L37 27L37 28L38 28L38 26L39 26L39 27L40 27L40 26L41 26L41 23L40 23L40 26L39 26L39 24L37 24L37 25L36 25L36 23L34 23L34 22L36 22L36 21L38 21L38 22L37 22L37 23L38 23L38 22L39 22L39 20L36 20L36 19L35 19L35 17L36 17L36 18L37 18L37 17L39 17L39 18L38 18L38 19L39 19L39 18L41 18L41 16L40 16L40 17L39 17L39 16L37 16L37 15L36 15L36 14L37 14L37 13L36 13L36 14L35 14L35 15L36 15L36 16L35 16L35 17L34 17L34 16L33 16L33 15L34 15L34 14L33 14L33 13L34 13L34 12L33 12L33 11L34 11L34 10L36 10L36 11L37 11L37 12L38 12L38 11L40 11L40 12L41 12L41 11L40 11L40 10L41 10L41 8L38 8L38 9L40 9L40 10L37 10L37 9L36 9L36 8L32 8L32 7L33 7L33 5L32 5L32 4L33 4L33 1L32 1L32 0L31 0L31 1L30 1L30 2L31 2L31 3L30 3L30 4L31 4L31 5L29 5L29 4L28 4L28 5L27 5L27 6L26 6L26 4L27 4L27 3L29 3L29 1L27 1L27 0L25 0L25 1L24 1L24 0L20 0L20 1L18 1L18 0ZM10 1L10 2L11 2L11 1ZM20 1L20 3L18 3L18 4L16 4L16 5L15 5L15 7L14 7L14 6L13 6L13 7L14 7L14 8L15 8L15 10L14 10L14 9L13 9L13 12L12 12L12 13L11 13L11 14L9 14L9 15L10 15L10 17L9 17L9 16L8 16L8 15L6 15L6 14L8 14L8 12L9 12L9 13L10 13L10 12L9 12L9 10L8 10L8 12L7 12L7 11L6 11L6 10L7 10L7 9L6 9L6 10L5 10L5 9L4 9L4 10L3 10L3 11L2 11L2 12L3 12L3 11L4 11L4 10L5 10L5 12L7 12L7 13L6 13L6 14L5 14L5 15L4 15L4 17L5 17L5 16L7 16L7 17L6 17L6 18L7 18L7 19L5 19L5 18L4 18L4 21L5 21L5 20L7 20L7 19L8 19L8 17L9 17L9 19L10 19L10 20L11 20L11 22L9 22L9 23L8 23L8 24L7 24L7 25L6 25L6 26L5 26L5 25L4 25L4 27L6 27L6 28L7 28L7 27L9 27L9 26L10 26L10 24L11 24L11 26L12 26L12 20L11 20L11 19L10 19L10 17L11 17L11 14L12 14L12 15L13 15L13 12L14 12L14 11L15 11L15 10L16 10L16 11L18 11L18 12L20 12L20 13L23 13L23 17L24 17L24 16L25 16L25 17L26 17L26 16L27 16L27 15L26 15L26 16L25 16L25 15L24 15L24 13L26 13L26 12L27 12L27 11L26 11L26 10L29 10L29 11L28 11L28 12L31 12L31 14L30 14L30 13L28 13L28 14L30 14L30 15L28 15L28 17L27 17L27 18L29 18L29 16L30 16L30 17L31 17L31 16L30 16L30 15L31 15L31 14L32 14L32 15L33 15L33 14L32 14L32 13L33 13L33 12L32 12L32 10L33 10L33 9L32 9L32 8L30 8L30 6L29 6L29 7L28 7L28 6L27 6L27 7L26 7L26 6L25 6L25 7L26 7L26 8L30 8L30 9L26 9L26 10L25 10L25 8L24 8L24 5L25 5L25 4L26 4L26 3L27 3L27 2L26 2L26 3L25 3L25 2L24 2L24 1L23 1L23 2L24 2L24 3L23 3L23 4L24 4L24 5L23 5L23 7L22 7L22 6L21 6L21 5L20 5L20 4L22 4L22 3L21 3L21 1ZM31 1L31 2L32 2L32 1ZM24 3L24 4L25 4L25 3ZM31 3L31 4L32 4L32 3ZM13 4L13 5L14 5L14 4ZM18 4L18 5L16 5L16 7L17 7L17 6L18 6L18 7L19 7L19 6L20 6L20 9L19 9L19 8L17 8L17 9L16 9L16 10L20 10L20 9L21 9L21 8L22 8L22 10L21 10L21 11L22 11L22 12L23 12L23 11L22 11L22 10L23 10L23 8L22 8L22 7L21 7L21 6L20 6L20 5L19 5L19 4ZM18 5L18 6L19 6L19 5ZM31 5L31 7L32 7L32 5ZM10 9L10 11L11 11L11 9ZM30 9L30 10L32 10L32 9ZM24 10L24 12L26 12L26 11L25 11L25 10ZM14 13L14 14L15 14L15 13ZM16 13L16 14L17 14L17 13ZM40 13L40 14L38 14L38 15L40 15L40 14L41 14L41 13ZM14 15L14 17L12 17L12 18L13 18L13 19L14 19L14 20L15 20L15 18L14 18L14 17L15 17L15 16L16 16L16 15ZM36 16L36 17L37 17L37 16ZM2 17L2 18L1 18L1 20L2 20L2 19L3 19L3 17ZM32 17L32 18L30 18L30 19L31 19L31 20L28 20L28 21L27 21L27 22L26 22L26 24L27 24L27 22L28 22L28 21L29 21L29 23L28 23L28 24L30 24L30 23L31 23L31 24L32 24L32 25L33 25L33 24L34 24L34 25L35 25L35 26L36 26L36 25L35 25L35 24L34 24L34 23L33 23L33 22L34 22L34 21L36 21L36 20L35 20L35 19L34 19L34 18L33 18L33 17ZM25 18L25 19L26 19L26 18ZM32 18L32 21L30 21L30 22L32 22L32 21L34 21L34 20L33 20L33 18ZM23 19L23 22L25 22L25 21L26 21L26 20L24 20L24 19ZM40 20L40 21L41 21L41 20ZM9 23L9 24L8 24L8 25L7 25L7 26L6 26L6 27L7 27L7 26L9 26L9 24L10 24L10 23ZM17 23L17 24L18 24L18 23ZM20 23L20 25L21 25L21 23ZM23 23L23 24L25 24L25 23ZM13 24L13 28L12 28L12 27L10 27L10 29L11 29L11 28L12 28L12 29L13 29L13 28L14 28L14 27L15 27L15 25L14 25L14 24ZM2 25L2 26L3 26L3 25ZM28 28L28 29L29 29L29 28ZM33 28L33 29L34 29L34 30L36 30L36 29L34 29L34 28ZM0 29L0 33L1 33L1 29ZM6 29L6 30L8 30L8 29ZM12 30L12 32L13 32L13 33L10 33L10 31L9 31L9 34L10 34L10 35L12 35L12 36L9 36L9 37L10 37L10 38L9 38L9 39L10 39L10 38L11 38L11 37L12 37L12 39L13 39L13 40L14 40L14 39L15 39L15 40L16 40L16 39L17 39L17 38L16 38L16 37L17 37L17 32L18 32L18 34L19 34L19 35L20 35L20 34L19 34L19 33L20 33L20 32L18 32L18 31L16 31L16 30L15 30L15 31L16 31L16 33L15 33L15 34L14 34L14 35L15 35L15 38L14 38L14 39L13 39L13 37L14 37L14 36L13 36L13 35L12 35L12 34L13 34L13 33L14 33L14 32L13 32L13 31L14 31L14 30ZM6 31L6 32L8 32L8 31ZM26 33L26 35L24 35L24 36L25 36L25 37L26 37L26 35L27 35L27 37L29 37L29 36L28 36L28 35L29 35L29 34L27 34L27 33ZM33 33L33 36L36 36L36 33ZM15 34L15 35L16 35L16 34ZM34 34L34 35L35 35L35 34ZM21 35L21 36L22 36L22 35ZM18 36L18 37L19 37L19 36ZM20 37L20 38L22 38L22 37ZM34 37L34 38L36 38L36 37ZM37 37L37 38L39 38L39 37ZM15 38L15 39L16 39L16 38ZM29 38L29 39L30 39L30 38ZM19 39L19 40L20 40L20 39ZM31 39L31 40L33 40L33 41L34 41L34 40L33 40L33 39ZM29 40L29 41L30 41L30 40ZM0 0L0 7L7 7L7 0ZM1 1L1 6L6 6L6 1ZM2 2L2 5L5 5L5 2ZM34 0L34 7L41 7L41 0ZM35 1L35 6L40 6L40 1ZM36 2L36 5L39 5L39 2ZM0 34L0 41L7 41L7 34ZM1 35L1 40L6 40L6 35ZM2 36L2 39L5 39L5 36Z" fill="#000000"/></g></g></svg>
