<?xml version="1.0" encoding="UTF-8"?>
<svg xmlns="http://www.w3.org/2000/svg" version="1.1" width="200" height="200" viewBox="0 0 200 200"><rect x="0" y="0" width="200" height="200" fill="#ffffff"/><g transform="scale(6.897)"><g transform="translate(0,0)"><path fill-rule="evenodd" d="M13 0L13 1L12 1L12 2L11 2L11 1L10 1L10 2L9 2L9 3L10 3L10 4L8 4L8 5L9 5L9 6L8 6L8 8L6 8L6 9L4 9L4 8L2 8L2 9L1 9L1 10L0 10L0 14L1 14L1 15L2 15L2 16L0 16L0 17L1 17L1 18L0 18L0 19L1 19L1 18L2 18L2 19L3 19L3 20L1 20L1 21L3 21L3 20L4 20L4 21L8 21L8 23L12 23L12 24L14 24L14 25L13 25L13 27L12 27L12 28L10 28L10 29L12 29L12 28L14 28L14 29L15 29L15 28L16 28L16 29L20 29L20 28L19 28L19 26L18 26L18 24L16 24L16 23L19 23L19 25L20 25L20 27L21 27L21 25L23 25L23 26L24 26L24 27L22 27L22 29L23 29L23 28L26 28L26 29L27 29L27 28L29 28L29 26L28 26L28 27L27 27L27 28L26 28L26 26L27 26L27 25L26 25L26 23L25 23L25 22L26 22L26 20L27 20L27 21L28 21L28 22L27 22L27 24L29 24L29 23L28 23L28 22L29 22L29 21L28 21L28 20L27 20L27 18L29 18L29 17L26 17L26 16L25 16L25 15L24 15L24 16L23 16L23 17L21 17L21 18L20 18L20 17L18 17L18 18L20 18L20 20L18 20L18 21L17 21L17 19L16 19L16 20L15 20L15 19L14 19L14 18L15 18L15 17L17 17L17 16L19 16L19 15L20 15L20 14L21 14L21 13L20 13L20 12L22 12L22 9L23 9L23 13L22 13L22 15L23 15L23 14L24 14L24 13L25 13L25 14L26 14L26 15L27 15L27 16L29 16L29 15L28 15L28 12L29 12L29 11L28 11L28 12L27 12L27 10L29 10L29 9L27 9L27 10L26 10L26 9L25 9L25 8L24 8L24 9L23 9L23 8L21 8L21 9L20 9L20 7L21 7L21 3L20 3L20 2L18 2L18 1L17 1L17 0L15 0L15 1L14 1L14 0ZM15 1L15 2L12 2L12 4L10 4L10 6L9 6L9 11L11 11L11 12L8 12L8 9L6 9L6 10L7 10L7 11L6 11L6 12L8 12L8 13L5 13L5 14L4 14L4 12L2 12L2 10L1 10L1 12L2 12L2 15L4 15L4 16L3 16L3 17L2 17L2 18L3 18L3 19L4 19L4 20L5 20L5 19L6 19L6 20L8 20L8 21L10 21L10 22L13 22L13 23L16 23L16 22L17 22L17 21L14 21L14 20L13 20L13 19L11 19L11 18L10 18L10 17L11 17L11 16L10 16L10 13L11 13L11 15L12 15L12 11L13 11L13 12L14 12L14 13L15 13L15 12L16 12L16 14L17 14L17 15L16 15L16 16L17 16L17 15L19 15L19 14L20 14L20 13L19 13L19 12L20 12L20 11L19 11L19 12L16 12L16 8L15 8L15 12L14 12L14 11L13 11L13 10L12 10L12 9L13 9L13 7L14 7L14 6L15 6L15 7L16 7L16 6L15 6L15 5L19 5L19 7L18 7L18 6L17 6L17 9L18 9L18 8L19 8L19 7L20 7L20 5L19 5L19 4L20 4L20 3L19 3L19 4L18 4L18 2L17 2L17 1ZM16 2L16 3L15 3L15 4L17 4L17 2ZM11 5L11 6L10 6L10 7L11 7L11 6L12 6L12 7L13 7L13 6L14 6L14 5ZM10 8L10 9L12 9L12 8ZM3 9L3 10L4 10L4 9ZM19 9L19 10L20 10L20 9ZM24 9L24 10L25 10L25 9ZM11 10L11 11L12 11L12 10ZM25 11L25 13L27 13L27 12L26 12L26 11ZM17 13L17 14L18 14L18 13ZM5 14L5 15L8 15L8 16L9 16L9 17L10 17L10 16L9 16L9 15L8 15L8 14ZM14 14L14 15L15 15L15 14ZM5 16L5 17L3 17L3 18L4 18L4 19L5 19L5 17L7 17L7 16ZM12 16L12 17L14 17L14 16ZM24 16L24 17L23 17L23 18L22 18L22 19L21 19L21 20L22 20L22 19L24 19L24 18L25 18L25 20L26 20L26 17L25 17L25 16ZM6 18L6 19L7 19L7 18ZM10 20L10 21L12 21L12 20ZM18 21L18 22L20 22L20 21ZM21 21L21 24L24 24L24 21ZM22 22L22 23L23 23L23 22ZM9 24L9 25L8 25L8 27L9 27L9 25L10 25L10 24ZM15 25L15 26L14 26L14 27L15 27L15 26L16 26L16 28L18 28L18 26L17 26L17 25ZM24 25L24 26L26 26L26 25ZM0 0L0 7L7 7L7 0ZM1 1L1 6L6 6L6 1ZM2 2L2 5L5 5L5 2ZM22 0L22 7L29 7L29 0ZM23 1L23 6L28 6L28 1ZM24 2L24 5L27 5L27 2ZM0 22L0 29L7 29L7 22ZM1 23L1 28L6 28L6 23ZM2 24L2 27L5 27L5 24Z" fill="#000000"/></g></g></svg>
