<?xml version="1.0" encoding="UTF-8"?>
<svg xmlns="http://www.w3.org/2000/svg" version="1.1" width="200" height="200" viewBox="0 0 200 200"><rect x="0" y="0" width="200" height="200" fill="#ffffff"/><g transform="scale(4.878)"><g transform="translate(0,0)"><path fill-rule="evenodd" d="M8 0L8 3L9 3L9 1L10 1L10 0ZM18 0L18 1L19 1L19 4L18 4L18 3L17 3L17 1L16 1L16 2L15 2L15 3L16 3L16 4L15 4L15 5L13 5L13 6L12 6L12 7L11 7L11 5L10 5L10 4L11 4L11 3L12 3L12 2L13 2L13 3L14 3L14 1L11 1L11 3L10 3L10 4L9 4L9 5L8 5L8 10L6 10L6 11L8 11L8 12L6 12L6 13L8 13L8 14L3 14L3 12L5 12L5 11L4 11L4 10L5 10L5 8L2 8L2 11L1 11L1 12L2 12L2 14L0 14L0 15L2 15L2 16L0 16L0 17L2 17L2 18L0 18L0 20L2 20L2 21L0 21L0 24L1 24L1 23L2 23L2 22L3 22L3 18L4 18L4 17L3 17L3 16L5 16L5 15L7 15L7 16L6 16L6 17L5 17L5 19L4 19L4 20L5 20L5 22L4 22L4 23L7 23L7 24L5 24L5 25L8 25L8 24L9 24L9 23L7 23L7 22L6 22L6 21L7 21L7 20L5 20L5 19L8 19L8 21L9 21L9 22L10 22L10 25L12 25L12 23L13 23L13 25L17 25L17 24L16 24L16 23L18 23L18 22L20 22L20 25L19 25L19 24L18 24L18 25L19 25L19 26L18 26L18 27L17 27L17 26L15 26L15 27L13 27L13 29L11 29L11 26L5 26L5 27L7 27L7 28L4 28L4 29L2 29L2 28L1 28L1 27L3 27L3 26L4 26L4 24L3 24L3 25L2 25L2 26L1 26L1 25L0 25L0 26L1 26L1 27L0 27L0 28L1 28L1 29L0 29L0 33L1 33L1 30L3 30L3 31L4 31L4 30L5 30L5 29L8 29L8 32L6 32L6 31L7 31L7 30L6 30L6 31L5 31L5 32L2 32L2 33L5 33L5 32L6 32L6 33L8 33L8 34L9 34L9 35L10 35L10 34L9 34L9 33L11 33L11 32L9 32L9 30L10 30L10 31L11 31L11 30L13 30L13 32L14 32L14 31L15 31L15 30L16 30L16 31L19 31L19 33L18 33L18 34L19 34L19 35L17 35L17 32L16 32L16 33L14 33L14 34L12 34L12 36L10 36L10 37L9 37L9 36L8 36L8 39L9 39L9 41L12 41L12 40L13 40L13 41L14 41L14 39L15 39L15 38L16 38L16 39L17 39L17 41L18 41L18 38L17 38L17 36L21 36L21 37L19 37L19 38L20 38L20 39L19 39L19 41L21 41L21 40L22 40L22 41L23 41L23 37L24 37L24 39L25 39L25 37L27 37L27 36L28 36L28 37L29 37L29 38L26 38L26 39L27 39L27 40L28 40L28 41L31 41L31 40L33 40L33 41L34 41L34 40L33 40L33 39L32 39L32 37L33 37L33 38L34 38L34 39L35 39L35 40L36 40L36 39L37 39L37 40L40 40L40 38L41 38L41 37L39 37L39 36L38 36L38 33L39 33L39 35L40 35L40 34L41 34L41 33L39 33L39 32L40 32L40 30L41 30L41 29L40 29L40 26L41 26L41 23L39 23L39 24L40 24L40 26L39 26L39 25L36 25L36 24L37 24L37 23L38 23L38 22L39 22L39 20L38 20L38 19L39 19L39 18L41 18L41 16L40 16L40 17L39 17L39 16L38 16L38 14L37 14L37 13L36 13L36 14L37 14L37 15L35 15L35 17L34 17L34 16L32 16L32 17L31 17L31 16L29 16L29 15L31 15L31 12L32 12L32 13L33 13L33 14L32 14L32 15L34 15L34 13L35 13L35 11L36 11L36 12L38 12L38 11L40 11L40 10L41 10L41 8L38 8L38 9L40 9L40 10L37 10L37 9L36 9L36 8L33 8L33 6L32 6L32 9L31 9L31 6L30 6L30 8L29 8L29 9L28 9L28 8L27 8L27 6L28 6L28 7L29 7L29 4L28 4L28 5L27 5L27 4L26 4L26 5L25 5L25 4L24 4L24 3L25 3L25 1L24 1L24 0L20 0L20 1L19 1L19 0ZM26 0L26 1L27 1L27 2L26 2L26 3L31 3L31 2L30 2L30 0L29 0L29 1L27 1L27 0ZM31 0L31 1L32 1L32 2L33 2L33 1L32 1L32 0ZM20 2L20 3L21 3L21 4L23 4L23 7L24 7L24 4L23 4L23 3L24 3L24 2L23 2L23 3L21 3L21 2ZM32 3L32 4L30 4L30 5L32 5L32 4L33 4L33 3ZM16 4L16 6L15 6L15 7L16 7L16 9L15 9L15 8L14 8L14 9L15 9L15 10L13 10L13 7L14 7L14 6L13 6L13 7L12 7L12 10L11 10L11 9L10 9L10 8L9 8L9 11L10 11L10 12L11 12L11 11L12 11L12 12L13 12L13 13L11 13L11 15L10 15L10 14L8 14L8 15L9 15L9 16L8 16L8 17L9 17L9 19L10 19L10 20L9 20L9 21L10 21L10 22L11 22L11 23L12 23L12 22L13 22L13 23L15 23L15 22L16 22L16 21L12 21L12 20L13 20L13 18L11 18L11 15L12 15L12 17L15 17L15 16L16 16L16 15L17 15L17 16L18 16L18 17L19 17L19 16L18 16L18 15L20 15L20 19L21 19L21 20L22 20L22 21L20 21L20 20L19 20L19 19L18 19L18 20L19 20L19 21L20 21L20 22L21 22L21 25L20 25L20 26L19 26L19 29L18 29L18 30L20 30L20 33L19 33L19 34L20 34L20 35L21 35L21 36L22 36L22 37L23 37L23 35L24 35L24 36L26 36L26 35L27 35L27 34L29 34L29 33L27 33L27 31L26 31L26 30L27 30L27 29L26 29L26 30L24 30L24 31L23 31L23 30L22 30L22 29L23 29L23 28L28 28L28 27L27 27L27 26L29 26L29 28L31 28L31 29L28 29L28 30L32 30L32 31L33 31L33 32L35 32L35 31L34 31L34 30L36 30L36 31L37 31L37 32L39 32L39 31L38 31L38 30L39 30L39 26L38 26L38 28L36 28L36 27L35 27L35 26L36 26L36 25L35 25L35 24L36 24L36 23L33 23L33 22L34 22L34 21L35 21L35 22L36 22L36 21L35 21L35 19L36 19L36 20L37 20L37 22L38 22L38 20L37 20L37 19L38 19L38 18L39 18L39 17L38 17L38 16L36 16L36 17L35 17L35 19L34 19L34 18L33 18L33 17L32 17L32 18L31 18L31 17L29 17L29 16L28 16L28 15L29 15L29 14L30 14L30 13L29 13L29 12L30 12L30 10L31 10L31 11L32 11L32 12L33 12L33 13L34 13L34 12L33 12L33 11L34 11L34 9L32 9L32 10L31 10L31 9L30 9L30 10L28 10L28 9L27 9L27 8L26 8L26 9L25 9L25 8L24 8L24 13L22 13L22 14L23 14L23 15L22 15L22 18L21 18L21 14L18 14L18 15L17 15L17 14L16 14L16 13L18 13L18 12L14 12L14 11L15 11L15 10L17 10L17 11L18 11L18 9L19 9L19 8L21 8L21 10L20 10L20 12L19 12L19 13L21 13L21 12L22 12L22 11L21 11L21 10L22 10L22 8L21 8L21 7L22 7L22 5L20 5L20 4L19 4L19 5L17 5L17 4ZM9 5L9 7L10 7L10 5ZM16 6L16 7L17 7L17 9L18 9L18 7L19 7L19 6L18 6L18 7L17 7L17 6ZM20 6L20 7L21 7L21 6ZM25 6L25 7L26 7L26 6ZM6 8L6 9L7 9L7 8ZM35 9L35 10L36 10L36 9ZM10 10L10 11L11 11L11 10ZM25 10L25 12L26 12L26 13L24 13L24 15L26 15L26 16L27 16L27 14L29 14L29 13L28 13L28 12L29 12L29 11L28 11L28 10L27 10L27 11L26 11L26 10ZM32 10L32 11L33 11L33 10ZM2 11L2 12L3 12L3 11ZM27 11L27 12L28 12L28 11ZM8 12L8 13L9 13L9 12ZM26 13L26 14L27 14L27 13ZM40 13L40 14L39 14L39 15L40 15L40 14L41 14L41 13ZM2 14L2 15L3 15L3 14ZM12 14L12 15L13 15L13 16L15 16L15 15L14 15L14 14ZM24 16L24 17L25 17L25 19L23 19L23 18L22 18L22 20L24 20L24 21L25 21L25 22L24 22L24 23L22 23L22 26L20 26L20 27L21 27L21 28L20 28L20 30L21 30L21 32L22 32L22 34L23 34L23 33L24 33L24 32L25 32L25 34L24 34L24 35L26 35L26 34L27 34L27 33L26 33L26 31L24 31L24 32L23 32L23 31L22 31L22 30L21 30L21 28L22 28L22 26L24 26L24 25L23 25L23 24L24 24L24 23L26 23L26 24L27 24L27 25L26 25L26 26L25 26L25 27L26 27L26 26L27 26L27 25L29 25L29 26L30 26L30 25L31 25L31 26L32 26L32 27L31 27L31 28L33 28L33 29L32 29L32 30L33 30L33 29L34 29L34 28L33 28L33 27L34 27L34 26L35 26L35 25L34 25L34 24L33 24L33 25L31 25L31 24L32 24L32 23L30 23L30 22L29 22L29 21L28 21L28 19L29 19L29 18L27 18L27 17L25 17L25 16ZM6 17L6 18L7 18L7 17ZM36 17L36 18L38 18L38 17ZM10 18L10 19L11 19L11 20L10 20L10 21L11 21L11 22L12 22L12 21L11 21L11 20L12 20L12 19L11 19L11 18ZM15 18L15 19L14 19L14 20L16 20L16 19L17 19L17 18ZM30 18L30 19L31 19L31 18ZM32 18L32 19L33 19L33 18ZM25 19L25 20L26 20L26 22L28 22L28 24L30 24L30 23L29 23L29 22L28 22L28 21L27 21L27 19ZM30 20L30 21L31 21L31 22L33 22L33 21L34 21L34 20L33 20L33 21L32 21L32 20ZM40 20L40 21L41 21L41 20ZM33 25L33 26L34 26L34 25ZM8 28L8 29L9 29L9 28ZM16 28L16 30L17 30L17 28ZM35 28L35 29L36 29L36 30L37 30L37 29L36 29L36 28ZM10 29L10 30L11 30L11 29ZM14 29L14 30L15 30L15 29ZM28 31L28 32L30 32L30 31ZM8 32L8 33L9 33L9 32ZM30 33L30 35L31 35L31 36L29 36L29 35L28 35L28 36L29 36L29 37L32 37L32 35L31 35L31 33ZM33 33L33 36L36 36L36 33ZM14 34L14 35L13 35L13 36L12 36L12 37L11 37L11 38L10 38L10 39L11 39L11 40L12 40L12 37L13 37L13 36L14 36L14 38L15 38L15 37L16 37L16 36L15 36L15 34ZM34 34L34 35L35 35L35 34ZM37 36L37 37L38 37L38 36ZM34 37L34 38L36 38L36 37ZM29 38L29 39L28 39L28 40L31 40L31 39L30 39L30 38ZM37 38L37 39L38 39L38 38ZM24 40L24 41L25 41L25 40ZM0 0L0 7L7 7L7 0ZM1 1L1 6L6 6L6 1ZM2 2L2 5L5 5L5 2ZM34 0L34 7L41 7L41 0ZM35 1L35 6L40 6L40 1ZM36 2L36 5L39 5L39 2ZM0 34L0 41L7 41L7 34ZM1 35L1 40L6 40L6 35ZM2 36L2 39L5 39L5 36Z" fill="#000000"/></g></g></svg>
