<?xml version="1.0" encoding="UTF-8"?>
<svg xmlns="http://www.w3.org/2000/svg" version="1.1" width="200" height="200" viewBox="0 0 200 200"><rect x="0" y="0" width="200" height="200" fill="#ffffff"/><g transform="scale(4.878)"><g transform="translate(0,0)"><path fill-rule="evenodd" d="M8 0L8 1L9 1L9 0ZM10 0L10 5L9 5L9 6L8 6L8 7L9 7L9 6L10 6L10 8L8 8L8 9L11 9L11 6L12 6L12 8L13 8L13 9L12 9L12 10L13 10L13 9L14 9L14 11L13 11L13 12L15 12L15 11L16 11L16 9L14 9L14 8L18 8L18 9L17 9L17 12L16 12L16 13L11 13L11 12L10 12L10 13L8 13L8 14L6 14L6 13L7 13L7 12L9 12L9 11L10 11L10 10L9 10L9 11L7 11L7 10L6 10L6 9L7 9L7 8L4 8L4 10L3 10L3 11L2 11L2 9L3 9L3 8L2 8L2 9L1 9L1 12L0 12L0 13L3 13L3 11L7 11L7 12L6 12L6 13L5 13L5 12L4 12L4 14L2 14L2 16L1 16L1 18L0 18L0 19L1 19L1 20L0 20L0 21L1 21L1 20L2 20L2 21L3 21L3 22L2 22L2 23L1 23L1 22L0 22L0 26L2 26L2 27L3 27L3 28L1 28L1 27L0 27L0 28L1 28L1 30L0 30L0 31L1 31L1 32L0 32L0 33L1 33L1 32L2 32L2 33L4 33L4 32L3 32L3 31L1 31L1 30L3 30L3 29L4 29L4 31L7 31L7 32L5 32L5 33L7 33L7 32L8 32L8 34L9 34L9 35L8 35L8 37L9 37L9 35L10 35L10 36L12 36L12 37L10 37L10 38L8 38L8 39L14 39L14 36L15 36L15 37L16 37L16 38L15 38L15 40L14 40L14 41L15 41L15 40L16 40L16 41L18 41L18 40L17 40L17 39L18 39L18 38L17 38L17 37L19 37L19 38L20 38L20 39L19 39L19 41L20 41L20 40L21 40L21 41L23 41L23 40L24 40L24 41L27 41L27 40L28 40L28 39L26 39L26 40L25 40L25 39L24 39L24 38L22 38L22 33L24 33L24 34L23 34L23 37L24 37L24 34L25 34L25 33L26 33L26 32L27 32L27 33L28 33L28 34L30 34L30 35L27 35L27 34L26 34L26 35L25 35L25 38L26 38L26 35L27 35L27 36L30 36L30 37L29 37L29 38L31 38L31 36L32 36L32 41L33 41L33 37L35 37L35 39L36 39L36 40L38 40L38 41L41 41L41 40L40 40L40 39L41 39L41 33L39 33L39 34L38 34L38 31L39 31L39 32L40 32L40 31L41 31L41 25L40 25L40 24L41 24L41 22L38 22L38 23L36 23L36 24L37 24L37 25L38 25L38 26L37 26L37 27L39 27L39 28L38 28L38 29L37 29L37 30L36 30L36 31L35 31L35 32L32 32L32 31L31 31L31 30L32 30L32 29L31 29L31 30L30 30L30 28L33 28L33 31L34 31L34 28L36 28L36 26L35 26L35 24L34 24L34 26L33 26L33 23L31 23L31 22L30 22L30 21L29 21L29 25L30 25L30 26L31 26L31 24L32 24L32 27L28 27L28 29L26 29L26 30L27 30L27 31L24 31L24 32L23 32L23 30L25 30L25 29L24 29L24 27L26 27L26 28L27 28L27 25L26 25L26 23L27 23L27 22L26 22L26 23L24 23L24 22L25 22L25 21L22 21L22 20L23 20L23 19L24 19L24 16L25 16L25 17L26 17L26 19L25 19L25 20L26 20L26 21L27 21L27 16L28 16L28 17L30 17L30 18L28 18L28 19L30 19L30 18L31 18L31 17L32 17L32 16L33 16L33 12L32 12L32 13L31 13L31 11L30 11L30 10L31 10L31 6L32 6L32 7L33 7L33 2L32 2L32 1L33 1L33 0L31 0L31 6L30 6L30 5L29 5L29 4L30 4L30 3L28 3L28 4L27 4L27 2L30 2L30 1L29 1L29 0L27 0L27 1L26 1L26 0L20 0L20 1L19 1L19 0L18 0L18 2L21 2L21 1L22 1L22 2L24 2L24 1L26 1L26 2L25 2L25 4L24 4L24 3L23 3L23 4L24 4L24 5L23 5L23 6L22 6L22 7L23 7L23 6L24 6L24 8L22 8L22 9L20 9L20 8L19 8L19 5L20 5L20 7L21 7L21 4L22 4L22 3L21 3L21 4L20 4L20 3L16 3L16 2L17 2L17 1L15 1L15 3L16 3L16 4L14 4L14 3L13 3L13 2L14 2L14 1L13 1L13 0L12 0L12 1L13 1L13 2L11 2L11 0ZM8 3L8 4L9 4L9 3ZM12 3L12 4L13 4L13 5L12 5L12 6L13 6L13 8L14 8L14 6L13 6L13 5L14 5L14 4L13 4L13 3ZM18 4L18 5L19 5L19 4ZM10 5L10 6L11 6L11 5ZM15 5L15 7L16 7L16 6L17 6L17 7L18 7L18 6L17 6L17 5ZM26 5L26 6L25 6L25 9L24 9L24 11L23 11L23 9L22 9L22 10L21 10L21 11L23 11L23 12L25 12L25 11L26 11L26 12L27 12L27 13L25 13L25 14L23 14L23 13L22 13L22 14L21 14L21 12L19 12L19 11L18 11L18 12L17 12L17 15L18 15L18 17L17 17L17 16L16 16L16 17L17 17L17 18L15 18L15 16L14 16L14 15L16 15L16 14L13 14L13 15L12 15L12 14L11 14L11 13L10 13L10 14L9 14L9 15L8 15L8 16L7 16L7 15L6 15L6 14L4 14L4 15L3 15L3 17L2 17L2 18L3 18L3 17L4 17L4 18L5 18L5 19L4 19L4 20L5 20L5 21L4 21L4 22L3 22L3 24L4 24L4 22L5 22L5 23L6 23L6 24L7 24L7 25L6 25L6 26L5 26L5 25L3 25L3 27L4 27L4 26L5 26L5 28L7 28L7 27L9 27L9 28L8 28L8 30L9 30L9 34L10 34L10 33L11 33L11 35L12 35L12 36L13 36L13 35L16 35L16 34L15 34L15 32L16 32L16 33L18 33L18 35L17 35L17 36L16 36L16 37L17 37L17 36L19 36L19 37L20 37L20 38L21 38L21 40L23 40L23 39L22 39L22 38L21 38L21 37L20 37L20 36L21 36L21 35L20 35L20 32L21 32L21 33L22 33L22 32L21 32L21 31L22 31L22 30L21 30L21 29L23 29L23 28L22 28L22 27L24 27L24 26L22 26L22 25L21 25L21 24L20 24L20 22L21 22L21 20L22 20L22 19L23 19L23 17L21 17L21 18L20 18L20 17L19 17L19 15L18 15L18 12L19 12L19 13L20 13L20 14L21 14L21 16L22 16L22 14L23 14L23 15L25 15L25 16L26 16L26 14L27 14L27 15L28 15L28 16L29 16L29 15L30 15L30 16L32 16L32 15L30 15L30 14L31 14L31 13L29 13L29 12L27 12L27 11L28 11L28 10L29 10L29 7L30 7L30 6L29 6L29 7L28 7L28 6L27 6L27 5ZM26 6L26 7L27 7L27 8L26 8L26 9L25 9L25 10L26 10L26 9L27 9L27 8L28 8L28 7L27 7L27 6ZM33 8L33 10L32 10L32 11L33 11L33 10L34 10L34 11L38 11L38 8L37 8L37 10L35 10L35 9L34 9L34 8ZM40 8L40 11L39 11L39 12L38 12L38 13L37 13L37 14L36 14L36 13L35 13L35 12L34 12L34 13L35 13L35 14L34 14L34 15L35 15L35 14L36 14L36 15L37 15L37 17L38 17L38 15L39 15L39 14L38 14L38 13L39 13L39 12L40 12L40 15L41 15L41 8ZM18 9L18 10L19 10L19 9ZM27 13L27 14L28 14L28 13ZM0 14L0 15L1 15L1 14ZM10 15L10 16L9 16L9 17L10 17L10 18L12 18L12 19L11 19L11 20L10 20L10 19L8 19L8 17L7 17L7 16L6 16L6 17L7 17L7 18L6 18L6 19L5 19L5 20L6 20L6 21L5 21L5 22L6 22L6 23L7 23L7 24L9 24L9 23L10 23L10 22L8 22L8 21L9 21L9 20L10 20L10 21L11 21L11 22L12 22L12 23L11 23L11 25L10 25L10 26L11 26L11 27L12 27L12 28L11 28L11 29L10 29L10 28L9 28L9 30L10 30L10 31L11 31L11 32L12 32L12 33L13 33L13 32L12 32L12 31L13 31L13 30L15 30L15 28L16 28L16 27L17 27L17 26L18 26L18 28L17 28L17 29L18 29L18 30L16 30L16 31L18 31L18 30L20 30L20 31L21 31L21 30L20 30L20 29L21 29L21 28L20 28L20 27L22 27L22 26L19 26L19 25L20 25L20 24L19 24L19 22L20 22L20 20L21 20L21 19L22 19L22 18L21 18L21 19L20 19L20 18L19 18L19 17L18 17L18 18L19 18L19 19L16 19L16 20L19 20L19 22L18 22L18 24L19 24L19 25L17 25L17 23L15 23L15 22L17 22L17 21L15 21L15 20L14 20L14 19L15 19L15 18L14 18L14 17L11 17L11 15ZM34 16L34 17L33 17L33 19L34 19L34 18L36 18L36 16ZM39 16L39 19L41 19L41 17L40 17L40 16ZM13 18L13 19L14 19L14 18ZM2 19L2 20L3 20L3 19ZM6 19L6 20L8 20L8 19ZM31 19L31 20L32 20L32 22L33 22L33 20L32 20L32 19ZM36 19L36 22L37 22L37 19ZM12 20L12 21L13 21L13 20ZM34 20L34 23L35 23L35 20ZM39 20L39 21L40 21L40 20ZM6 21L6 22L7 22L7 21ZM14 21L14 22L15 22L15 21ZM22 22L22 24L23 24L23 25L25 25L25 26L26 26L26 25L25 25L25 24L23 24L23 22ZM12 23L12 27L13 27L13 25L14 25L14 26L15 26L15 27L16 27L16 26L17 26L17 25L14 25L14 23ZM38 23L38 25L39 25L39 27L40 27L40 25L39 25L39 24L40 24L40 23ZM1 24L1 25L2 25L2 24ZM8 25L8 26L9 26L9 25ZM6 26L6 27L7 27L7 26ZM34 26L34 27L35 27L35 26ZM13 28L13 29L14 29L14 28ZM18 28L18 29L20 29L20 28ZM39 28L39 29L38 29L38 30L39 30L39 31L40 31L40 30L39 30L39 29L40 29L40 28ZM6 29L6 30L7 30L7 29ZM14 31L14 32L15 32L15 31ZM27 31L27 32L28 32L28 31ZM18 32L18 33L19 33L19 32ZM30 32L30 34L32 34L32 32ZM33 33L33 36L36 36L36 33ZM12 34L12 35L13 35L13 34ZM34 34L34 35L35 35L35 34ZM39 34L39 35L37 35L37 37L36 37L36 38L37 38L37 39L38 39L38 40L39 40L39 39L40 39L40 38L39 38L39 39L38 39L38 38L37 38L37 37L39 37L39 36L40 36L40 34ZM19 35L19 36L20 36L20 35ZM12 37L12 38L13 38L13 37ZM29 39L29 41L31 41L31 40L30 40L30 39ZM10 40L10 41L12 41L12 40ZM34 40L34 41L35 41L35 40ZM0 0L0 7L7 7L7 0ZM1 1L1 6L6 6L6 1ZM2 2L2 5L5 5L5 2ZM34 0L34 7L41 7L41 0ZM35 1L35 6L40 6L40 1ZM36 2L36 5L39 5L39 2ZM0 34L0 41L7 41L7 34ZM1 35L1 40L6 40L6 35ZM2 36L2 39L5 39L5 36Z" fill="#000000"/></g></g></svg>
