<?xml version="1.0" encoding="UTF-8"?>
<svg xmlns="http://www.w3.org/2000/svg" version="1.1" width="200" height="200" viewBox="0 0 200 200"><rect x="0" y="0" width="200" height="200" fill="#ffffff"/><g transform="scale(4.878)"><g transform="translate(0,0)"><path fill-rule="evenodd" d="M8 0L8 3L9 3L9 5L8 5L8 9L7 9L7 8L6 8L6 9L7 9L7 10L6 10L6 11L7 11L7 12L6 12L6 13L7 13L7 14L6 14L6 15L5 15L5 14L3 14L3 11L2 11L2 9L4 9L4 11L5 11L5 8L2 8L2 9L1 9L1 11L2 11L2 13L1 13L1 12L0 12L0 13L1 13L1 14L3 14L3 15L2 15L2 16L3 16L3 17L1 17L1 16L0 16L0 19L4 19L4 20L6 20L6 21L4 21L4 22L3 22L3 21L2 21L2 20L0 20L0 21L1 21L1 22L0 22L0 24L1 24L1 22L2 22L2 23L3 23L3 25L2 25L2 26L1 26L1 27L2 27L2 28L1 28L1 29L0 29L0 33L1 33L1 29L2 29L2 31L3 31L3 32L2 32L2 33L3 33L3 32L4 32L4 33L8 33L8 34L9 34L9 35L11 35L11 37L12 37L12 36L13 36L13 38L12 38L12 39L14 39L14 40L15 40L15 41L17 41L17 40L15 40L15 38L16 38L16 39L17 39L17 38L18 38L18 39L19 39L19 40L20 40L20 38L21 38L21 37L19 37L19 38L18 38L18 36L17 36L17 35L18 35L18 33L17 33L17 34L16 34L16 33L15 33L15 32L14 32L14 31L12 31L12 30L13 30L13 29L11 29L11 28L12 28L12 27L11 27L11 28L10 28L10 27L9 27L9 26L10 26L10 25L11 25L11 26L15 26L15 27L13 27L13 28L15 28L15 29L14 29L14 30L15 30L15 31L17 31L17 32L19 32L19 34L20 34L20 32L21 32L21 35L19 35L19 36L21 36L21 35L22 35L22 30L23 30L23 31L24 31L24 32L27 32L27 33L28 33L28 34L27 34L27 35L23 35L23 36L24 36L24 37L22 37L22 38L24 38L24 39L23 39L23 40L22 40L22 39L21 39L21 40L22 40L22 41L23 41L23 40L25 40L25 41L27 41L27 40L28 40L28 41L31 41L31 40L33 40L33 41L34 41L34 40L33 40L33 38L34 38L34 39L35 39L35 40L36 40L36 39L37 39L37 40L40 40L40 38L41 38L41 36L37 36L37 32L38 32L38 34L39 34L39 35L40 35L40 34L41 34L41 33L39 33L39 32L38 32L38 31L40 31L40 30L41 30L41 29L39 29L39 30L38 30L38 29L36 29L36 28L35 28L35 29L36 29L36 30L34 30L34 31L36 31L36 32L33 32L33 31L32 31L32 30L33 30L33 29L34 29L34 28L33 28L33 29L32 29L32 30L30 30L30 32L29 32L29 33L28 33L28 31L29 31L29 30L28 30L28 29L31 29L31 28L32 28L32 27L31 27L31 28L28 28L28 26L32 26L32 25L34 25L34 26L33 26L33 27L34 27L34 26L36 26L36 27L37 27L37 28L38 28L38 26L39 26L39 27L40 27L40 28L41 28L41 27L40 27L40 26L41 26L41 23L39 23L39 24L40 24L40 26L39 26L39 25L34 25L34 24L35 24L35 23L36 23L36 24L37 24L37 23L38 23L38 21L39 21L39 20L36 20L36 19L35 19L35 17L36 17L36 18L37 18L37 19L38 19L38 18L41 18L41 16L40 16L40 17L39 17L39 16L38 16L38 15L40 15L40 14L41 14L41 13L40 13L40 12L39 12L39 13L40 13L40 14L37 14L37 13L36 13L36 14L35 14L35 15L37 15L37 16L38 16L38 18L37 18L37 17L36 17L36 16L35 16L35 17L34 17L34 16L32 16L32 17L31 17L31 16L29 16L29 15L28 15L28 16L29 16L29 17L31 17L31 18L30 18L30 19L31 19L31 18L32 18L32 17L33 17L33 18L34 18L34 19L35 19L35 21L34 21L34 20L33 20L33 19L32 19L32 21L31 21L31 20L30 20L30 21L31 21L31 22L32 22L32 23L34 23L34 24L31 24L31 23L30 23L30 22L27 22L27 21L29 21L29 19L28 19L28 18L27 18L27 19L26 19L26 18L25 18L25 19L26 19L26 20L24 20L24 18L23 18L23 15L24 15L24 16L25 16L25 17L26 17L26 16L27 16L27 15L26 15L26 14L24 14L24 13L23 13L23 11L24 11L24 12L25 12L25 13L27 13L27 14L29 14L29 13L30 13L30 15L31 15L31 12L29 12L29 13L28 13L28 12L27 12L27 11L30 11L30 10L33 10L33 9L34 9L34 11L33 11L33 12L32 12L32 13L33 13L33 14L32 14L32 15L34 15L34 13L35 13L35 11L36 11L36 12L38 12L38 11L40 11L40 10L41 10L41 8L38 8L38 9L40 9L40 10L37 10L37 9L36 9L36 8L33 8L33 9L30 9L30 8L27 8L27 6L28 6L28 7L29 7L29 6L30 6L30 7L31 7L31 5L32 5L32 4L33 4L33 2L30 2L30 0L29 0L29 1L27 1L27 0L26 0L26 1L27 1L27 2L26 2L26 3L32 3L32 4L30 4L30 5L29 5L29 4L28 4L28 5L27 5L27 4L26 4L26 5L25 5L25 4L24 4L24 3L23 3L23 2L22 2L22 3L20 3L20 2L21 2L21 1L23 1L23 0L21 0L21 1L20 1L20 0L19 0L19 4L20 4L20 5L18 5L18 2L16 2L16 3L17 3L17 4L16 4L16 5L17 5L17 6L16 6L16 7L15 7L15 6L14 6L14 7L13 7L13 5L14 5L14 4L15 4L15 1L13 1L13 0L12 0L12 1L11 1L11 0ZM24 0L24 1L25 1L25 0ZM31 0L31 1L32 1L32 0ZM9 2L9 3L10 3L10 4L14 4L14 3L10 3L10 2ZM22 3L22 4L23 4L23 8L22 8L22 6L21 6L21 7L20 7L20 6L19 6L19 7L20 7L20 8L15 8L15 7L14 7L14 8L13 8L13 7L12 7L12 5L11 5L11 7L10 7L10 5L9 5L9 7L10 7L10 8L11 8L11 9L10 9L10 10L9 10L9 9L8 9L8 10L9 10L9 11L8 11L8 12L7 12L7 13L8 13L8 12L9 12L9 11L10 11L10 12L11 12L11 14L8 14L8 15L6 15L6 16L5 16L5 17L3 17L3 18L4 18L4 19L5 19L5 18L7 18L7 17L8 17L8 18L9 18L9 19L8 19L8 20L7 20L7 19L6 19L6 20L7 20L7 21L6 21L6 22L4 22L4 23L6 23L6 24L5 24L5 25L4 25L4 27L5 27L5 25L6 25L6 26L7 26L7 25L6 25L6 24L8 24L8 26L9 26L9 24L11 24L11 25L15 25L15 26L17 26L17 27L16 27L16 29L20 29L20 30L17 30L17 31L21 31L21 28L22 28L22 27L23 27L23 28L26 28L26 29L24 29L24 31L27 31L27 30L26 30L26 29L28 29L28 28L26 28L26 27L25 27L25 26L24 26L24 25L25 25L25 24L24 24L24 23L23 23L23 24L24 24L24 25L23 25L23 26L20 26L20 27L19 27L19 25L17 25L17 23L16 23L16 20L13 20L13 19L14 19L14 18L13 18L13 17L12 17L12 16L13 16L13 15L14 15L14 16L15 16L15 15L16 15L16 17L19 17L19 18L18 18L18 21L17 21L17 22L18 22L18 23L19 23L19 22L23 22L23 21L24 21L24 20L23 20L23 19L21 19L21 18L20 18L20 17L19 17L19 16L18 16L18 15L20 15L20 13L22 13L22 12L21 12L21 11L22 11L22 10L25 10L25 12L26 12L26 11L27 11L27 10L30 10L30 9L27 9L27 8L26 8L26 6L25 6L25 7L24 7L24 4L23 4L23 3ZM28 5L28 6L29 6L29 5ZM17 6L17 7L18 7L18 6ZM32 6L32 7L33 7L33 6ZM21 8L21 9L22 9L22 8ZM24 8L24 9L25 9L25 10L26 10L26 8ZM14 9L14 10L13 10L13 11L12 11L12 10L10 10L10 11L12 11L12 13L14 13L14 14L15 14L15 12L14 12L14 10L15 10L15 9ZM16 9L16 10L17 10L17 11L18 11L18 10L20 10L20 9L18 9L18 10L17 10L17 9ZM35 9L35 10L36 10L36 11L37 11L37 10L36 10L36 9ZM19 11L19 12L20 12L20 11ZM4 12L4 13L5 13L5 12ZM16 12L16 13L17 13L17 15L18 15L18 14L19 14L19 13L18 13L18 12ZM33 12L33 13L34 13L34 12ZM11 14L11 15L9 15L9 16L8 16L8 17L9 17L9 16L10 16L10 18L11 18L11 19L10 19L10 21L11 21L11 24L12 24L12 22L13 22L13 23L14 23L14 24L15 24L15 23L14 23L14 22L13 22L13 20L11 20L11 19L12 19L12 17L11 17L11 15L13 15L13 14ZM21 14L21 17L22 17L22 14ZM25 15L25 16L26 16L26 15ZM6 16L6 17L7 17L7 16ZM16 18L16 19L17 19L17 18ZM19 19L19 21L20 21L20 20L21 20L21 21L23 21L23 20L21 20L21 19ZM8 20L8 21L7 21L7 22L6 22L6 23L8 23L8 24L9 24L9 23L10 23L10 22L9 22L9 23L8 23L8 21L9 21L9 20ZM26 20L26 21L27 21L27 20ZM40 20L40 21L41 21L41 20ZM32 21L32 22L34 22L34 23L35 23L35 22L36 22L36 21L35 21L35 22L34 22L34 21ZM26 22L26 23L27 23L27 24L28 24L28 25L27 25L27 26L28 26L28 25L29 25L29 24L30 24L30 25L31 25L31 24L30 24L30 23L27 23L27 22ZM20 23L20 24L21 24L21 23ZM2 26L2 27L3 27L3 26ZM23 26L23 27L24 27L24 26ZM6 27L6 28L7 28L7 29L5 29L5 28L3 28L3 31L4 31L4 29L5 29L5 30L7 30L7 29L8 29L8 27ZM18 27L18 28L19 28L19 27ZM20 27L20 28L21 28L21 27ZM9 28L9 30L8 30L8 31L6 31L6 32L11 32L11 30L10 30L10 28ZM37 30L37 31L38 31L38 30ZM13 32L13 33L14 33L14 32ZM10 33L10 34L12 34L12 33ZM24 33L24 34L26 34L26 33ZM30 33L30 35L31 35L31 36L28 36L28 37L27 37L27 38L28 38L28 37L29 37L29 39L28 39L28 40L30 40L30 39L32 39L32 38L33 38L33 37L32 37L32 35L31 35L31 33ZM33 33L33 36L36 36L36 33ZM13 34L13 35L14 35L14 36L16 36L16 34L15 34L15 35L14 35L14 34ZM28 34L28 35L29 35L29 34ZM34 34L34 35L35 35L35 34ZM8 36L8 39L10 39L10 40L11 40L11 41L12 41L12 40L11 40L11 38L10 38L10 37L9 37L9 36ZM14 37L14 38L15 38L15 37ZM16 37L16 38L17 38L17 37ZM24 37L24 38L26 38L26 37ZM30 37L30 38L32 38L32 37ZM34 37L34 38L36 38L36 37ZM37 38L37 39L38 39L38 38ZM26 39L26 40L27 40L27 39ZM0 0L0 7L7 7L7 0ZM1 1L1 6L6 6L6 1ZM2 2L2 5L5 5L5 2ZM34 0L34 7L41 7L41 0ZM35 1L35 6L40 6L40 1ZM36 2L36 5L39 5L39 2ZM0 34L0 41L7 41L7 34ZM1 35L1 40L6 40L6 35ZM2 36L2 39L5 39L5 36Z" fill="#000000"/></g></g></svg>
