<?xml version="1.0" encoding="UTF-8"?>
<svg xmlns="http://www.w3.org/2000/svg" version="1.1" width="200" height="200" viewBox="0 0 200 200"><rect x="0" y="0" width="200" height="200" fill="#ffffff"/><g transform="scale(4.878)"><g transform="translate(0,0)"><path fill-rule="evenodd" d="M8 0L8 3L10 3L10 4L9 4L9 5L8 5L8 10L6 10L6 11L7 11L7 12L4 12L4 11L5 11L5 8L2 8L2 10L1 10L1 11L0 11L0 12L1 12L1 13L2 13L2 15L1 15L1 14L0 14L0 15L1 15L1 16L2 16L2 17L1 17L1 18L0 18L0 19L1 19L1 20L0 20L0 22L1 22L1 24L2 24L2 25L1 25L1 26L0 26L0 28L1 28L1 27L4 27L4 28L3 28L3 29L5 29L5 30L4 30L4 31L3 31L3 30L2 30L2 31L3 31L3 32L4 32L4 33L5 33L5 31L7 31L7 30L8 30L8 32L6 32L6 33L8 33L8 34L11 34L11 35L9 35L9 36L8 36L8 39L10 39L10 40L9 40L9 41L10 41L10 40L11 40L11 41L13 41L13 40L14 40L14 41L15 41L15 37L14 37L14 36L15 36L15 35L14 35L14 34L15 34L15 32L16 32L16 33L18 33L18 32L22 32L22 31L23 31L23 30L24 30L24 31L26 31L26 32L27 32L27 33L26 33L26 34L27 34L27 36L26 36L26 35L24 35L24 36L22 36L22 35L21 35L21 34L22 34L22 33L20 33L20 34L19 34L19 36L17 36L17 35L16 35L16 36L17 36L17 38L16 38L16 39L17 39L17 41L18 41L18 39L19 39L19 40L20 40L20 41L23 41L23 40L22 40L22 39L24 39L24 40L25 40L25 39L26 39L26 40L27 40L27 41L31 41L31 40L33 40L33 41L34 41L34 40L33 40L33 39L32 39L32 38L31 38L31 37L30 37L30 39L31 39L31 40L27 40L27 39L28 39L28 38L25 38L25 37L24 37L24 36L26 36L26 37L29 37L29 36L32 36L32 37L33 37L33 38L34 38L34 39L35 39L35 40L36 40L36 39L37 39L37 40L40 40L40 38L41 38L41 37L40 37L40 36L41 36L41 35L40 35L40 34L41 34L41 33L39 33L39 32L40 32L40 30L41 30L41 29L39 29L39 30L38 30L38 31L36 31L36 32L33 32L33 31L32 31L32 30L33 30L33 29L34 29L34 28L33 28L33 29L32 29L32 28L31 28L31 29L30 29L30 28L26 28L26 27L29 27L29 26L32 26L32 27L34 27L34 26L35 26L35 25L36 25L36 26L37 26L37 27L35 27L35 28L38 28L38 26L39 26L39 27L40 27L40 26L41 26L41 23L39 23L39 22L38 22L38 21L39 21L39 20L36 20L36 19L35 19L35 17L36 17L36 18L38 18L38 19L40 19L40 18L41 18L41 16L40 16L40 18L38 18L38 17L39 17L39 16L37 16L37 15L39 15L39 14L41 14L41 13L40 13L40 12L41 12L41 11L40 11L40 10L41 10L41 8L38 8L38 9L40 9L40 10L37 10L37 9L36 9L36 8L33 8L33 6L32 6L32 8L33 8L33 9L31 9L31 6L30 6L30 8L29 8L29 9L28 9L28 7L29 7L29 6L28 6L28 5L29 5L29 4L28 4L28 5L27 5L27 4L25 4L25 5L24 5L24 3L25 3L25 2L24 2L24 3L23 3L23 5L22 5L22 4L21 4L21 5L19 5L19 6L18 6L18 8L16 8L16 7L17 7L17 5L18 5L18 3L19 3L19 1L20 1L20 3L22 3L22 1L23 1L23 0L22 0L22 1L20 1L20 0L17 0L17 2L16 2L16 0L15 0L15 2L16 2L16 5L15 5L15 4L14 4L14 0L13 0L13 6L12 6L12 3L10 3L10 2L12 2L12 1L10 1L10 0ZM24 0L24 1L25 1L25 0ZM26 0L26 1L27 1L27 2L26 2L26 3L32 3L32 2L33 2L33 0L29 0L29 1L27 1L27 0ZM30 1L30 2L32 2L32 1ZM17 2L17 3L18 3L18 2ZM30 4L30 5L33 5L33 4ZM9 5L9 7L10 7L10 6L11 6L11 8L13 8L13 7L14 7L14 10L13 10L13 9L12 9L12 13L13 13L13 12L14 12L14 10L15 10L15 7L16 7L16 6L15 6L15 5L14 5L14 6L13 6L13 7L12 7L12 6L11 6L11 5ZM25 5L25 7L26 7L26 5ZM14 6L14 7L15 7L15 6ZM19 6L19 7L20 7L20 6ZM21 6L21 7L22 7L22 6ZM23 6L23 8L22 8L22 9L21 9L21 8L20 8L20 9L19 9L19 12L21 12L21 13L22 13L22 14L24 14L24 16L23 16L23 15L20 15L20 19L19 19L19 20L18 20L18 19L17 19L17 17L18 17L18 16L17 16L17 17L16 17L16 16L14 16L14 17L13 17L13 18L12 18L12 16L11 16L11 15L12 15L12 14L11 14L11 13L9 13L9 14L8 14L8 15L6 15L6 14L7 14L7 13L6 13L6 14L4 14L4 13L3 13L3 16L4 16L4 18L3 18L3 17L2 17L2 18L3 18L3 19L4 19L4 21L5 21L5 20L7 20L7 19L9 19L9 20L8 20L8 21L9 21L9 20L10 20L10 19L11 19L11 21L10 21L10 22L9 22L9 23L8 23L8 22L7 22L7 21L6 21L6 22L7 22L7 23L6 23L6 24L5 24L5 25L6 25L6 26L7 26L7 27L5 27L5 26L4 26L4 27L5 27L5 29L6 29L6 30L7 30L7 29L8 29L8 30L9 30L9 32L8 32L8 33L9 33L9 32L10 32L10 33L11 33L11 34L12 34L12 33L13 33L13 34L14 34L14 33L13 33L13 31L14 31L14 32L15 32L15 31L17 31L17 32L18 32L18 31L22 31L22 30L23 30L23 28L24 28L24 30L27 30L27 29L25 29L25 26L26 26L26 25L27 25L27 26L29 26L29 25L27 25L27 24L26 24L26 23L27 23L27 22L29 22L29 24L30 24L30 25L32 25L32 26L33 26L33 25L35 25L35 24L36 24L36 25L39 25L39 26L40 26L40 24L39 24L39 23L37 23L37 24L36 24L36 23L35 23L35 22L36 22L36 21L35 21L35 19L34 19L34 18L31 18L31 19L30 19L30 17L33 17L33 16L34 16L34 17L35 17L35 15L37 15L37 14L39 14L39 11L38 11L38 12L36 12L36 9L35 9L35 13L34 13L34 12L33 12L33 11L34 11L34 9L33 9L33 11L32 11L32 10L31 10L31 9L29 9L29 10L28 10L28 9L27 9L27 8L26 8L26 10L25 10L25 8L24 8L24 6ZM27 6L27 7L28 7L28 6ZM6 8L6 9L7 9L7 8ZM9 8L9 10L8 10L8 12L9 12L9 11L10 11L10 12L11 12L11 10L10 10L10 8ZM23 8L23 12L22 12L22 13L24 13L24 14L25 14L25 13L24 13L24 12L26 12L26 11L24 11L24 8ZM16 9L16 11L17 11L17 12L15 12L15 13L14 13L14 14L15 14L15 13L16 13L16 15L19 15L19 14L18 14L18 11L17 11L17 10L18 10L18 9ZM20 9L20 11L21 11L21 9ZM2 10L2 11L1 11L1 12L3 12L3 10ZM27 10L27 13L26 13L26 14L29 14L29 13L30 13L30 14L31 14L31 11L30 11L30 12L29 12L29 11L28 11L28 10ZM28 12L28 13L29 13L29 12ZM32 12L32 13L33 13L33 14L32 14L32 15L34 15L34 13L33 13L33 12ZM36 13L36 14L37 14L37 13ZM9 14L9 16L8 16L8 17L7 17L7 16L6 16L6 17L7 17L7 18L6 18L6 19L7 19L7 18L8 18L8 17L11 17L11 16L10 16L10 15L11 15L11 14ZM4 15L4 16L5 16L5 15ZM25 15L25 16L26 16L26 15ZM28 15L28 16L29 16L29 17L30 17L30 16L29 16L29 15ZM21 16L21 18L22 18L22 19L23 19L23 22L22 22L22 21L21 21L21 19L20 19L20 20L19 20L19 22L20 22L20 23L21 23L21 24L20 24L20 25L21 25L21 26L20 26L20 28L18 28L18 26L17 26L17 25L16 25L16 27L17 27L17 28L18 28L18 30L22 30L22 28L23 28L23 27L24 27L24 26L25 26L25 25L24 25L24 24L23 24L23 25L21 25L21 24L22 24L22 23L23 23L23 22L24 22L24 20L25 20L25 21L26 21L26 22L25 22L25 23L26 23L26 22L27 22L27 21L29 21L29 20L27 20L27 19L29 19L29 18L27 18L27 17L25 17L25 19L23 19L23 16ZM36 16L36 17L37 17L37 16ZM4 18L4 19L5 19L5 18ZM9 18L9 19L10 19L10 18ZM13 18L13 21L11 21L11 22L10 22L10 23L9 23L9 24L6 24L6 25L7 25L7 26L8 26L8 27L7 27L7 28L6 28L6 29L7 29L7 28L9 28L9 29L10 29L10 30L11 30L11 29L12 29L12 26L13 26L13 28L15 28L15 27L14 27L14 26L13 26L13 25L15 25L15 24L17 24L17 23L18 23L18 25L19 25L19 23L18 23L18 20L16 20L16 19L15 19L15 20L14 20L14 18ZM26 18L26 19L27 19L27 18ZM31 19L31 20L30 20L30 21L31 21L31 22L30 22L30 24L31 24L31 22L32 22L32 25L33 25L33 24L34 24L34 23L33 23L33 22L32 22L32 21L34 21L34 22L35 22L35 21L34 21L34 20L32 20L32 19ZM2 20L2 22L3 22L3 20ZM15 20L15 21L16 21L16 23L17 23L17 21L16 21L16 20ZM26 20L26 21L27 21L27 20ZM31 20L31 21L32 21L32 20ZM40 20L40 21L41 21L41 20ZM20 21L20 22L21 22L21 21ZM4 22L4 23L5 23L5 22ZM12 22L12 25L11 25L11 23L10 23L10 24L9 24L9 25L11 25L11 26L9 26L9 28L11 28L11 26L12 26L12 25L13 25L13 24L15 24L15 23L14 23L14 22ZM2 23L2 24L3 24L3 23ZM0 29L0 33L1 33L1 29ZM28 29L28 30L29 30L29 31L28 31L28 32L31 32L31 30L32 30L32 29L31 29L31 30L30 30L30 29ZM35 29L35 30L34 30L34 31L35 31L35 30L37 30L37 29ZM12 30L12 31L11 31L11 32L12 32L12 31L13 31L13 30ZM38 31L38 32L37 32L37 33L38 33L38 34L39 34L39 33L38 33L38 32L39 32L39 31ZM23 32L23 33L24 33L24 32ZM27 33L27 34L29 34L29 33ZM30 33L30 35L31 35L31 34L32 34L32 33ZM33 33L33 36L36 36L36 33ZM34 34L34 35L35 35L35 34ZM20 35L20 36L19 36L19 37L18 37L18 38L19 38L19 39L22 39L22 36L21 36L21 35ZM37 35L37 36L40 36L40 35ZM9 36L9 37L11 37L11 38L10 38L10 39L14 39L14 37L13 37L13 36ZM20 36L20 37L21 37L21 36ZM23 37L23 38L24 38L24 39L25 39L25 38L24 38L24 37ZM34 37L34 38L36 38L36 37ZM37 38L37 39L38 39L38 38ZM0 0L0 7L7 7L7 0ZM1 1L1 6L6 6L6 1ZM2 2L2 5L5 5L5 2ZM34 0L34 7L41 7L41 0ZM35 1L35 6L40 6L40 1ZM36 2L36 5L39 5L39 2ZM0 34L0 41L7 41L7 34ZM1 35L1 40L6 40L6 35ZM2 36L2 39L5 39L5 36Z" fill="#000000"/></g></g></svg>
