<?xml version="1.0" encoding="UTF-8"?>
<svg xmlns="http://www.w3.org/2000/svg" version="1.1" width="200" height="200" viewBox="0 0 200 200"><rect x="0" y="0" width="200" height="200" fill="#ffffff"/><g transform="scale(6.897)"><g transform="translate(0,0)"><path fill-rule="evenodd" d="M9 0L9 2L8 2L8 4L9 4L9 2L10 2L10 3L11 3L11 4L10 4L10 5L9 5L9 6L8 6L8 7L9 7L9 8L10 8L10 9L11 9L11 11L9 11L9 9L8 9L8 8L6 8L6 9L7 9L7 10L4 10L4 11L5 11L5 12L4 12L4 13L5 13L5 12L6 12L6 13L10 13L10 12L11 12L11 11L12 11L12 8L13 8L13 10L14 10L14 9L15 9L15 10L16 10L16 11L13 11L13 13L12 13L12 14L10 14L10 15L9 15L9 16L8 16L8 14L3 14L3 9L5 9L5 8L3 8L3 9L1 9L1 10L0 10L0 13L1 13L1 14L0 14L0 21L4 21L4 19L5 19L5 21L8 21L8 23L10 23L10 24L8 24L8 26L9 26L9 25L10 25L10 24L11 24L11 23L12 23L12 22L13 22L13 25L12 25L12 26L10 26L10 28L11 28L11 29L12 29L12 28L11 28L11 27L12 27L12 26L13 26L13 27L14 27L14 28L13 28L13 29L14 29L14 28L15 28L15 27L14 27L14 22L13 22L13 21L10 21L10 22L9 22L9 21L8 21L8 18L9 18L9 20L11 20L11 19L10 19L10 17L9 17L9 16L10 16L10 15L11 15L11 17L12 17L12 14L13 14L13 13L14 13L14 14L16 14L16 15L17 15L17 14L19 14L19 15L20 15L20 16L21 16L21 19L20 19L20 18L19 18L19 17L18 17L18 16L17 16L17 17L18 17L18 18L16 18L16 19L15 19L15 20L16 20L16 19L17 19L17 20L18 20L18 21L16 21L16 23L15 23L15 26L17 26L17 28L16 28L16 29L20 29L20 28L21 28L21 29L23 29L23 28L24 28L24 29L25 29L25 27L23 27L23 28L22 28L22 26L21 26L21 27L20 27L20 28L19 28L19 25L24 25L24 26L25 26L25 22L27 22L27 23L28 23L28 24L26 24L26 29L28 29L28 28L27 28L27 27L29 27L29 26L27 26L27 25L29 25L29 22L28 22L28 21L26 21L26 19L27 19L27 18L28 18L28 19L29 19L29 17L28 17L28 16L29 16L29 14L27 14L27 13L29 13L29 11L28 11L28 10L27 10L27 8L25 8L25 12L24 12L24 16L23 16L23 12L22 12L22 11L21 11L21 10L19 10L19 9L17 9L17 8L19 8L19 6L20 6L20 7L21 7L21 4L19 4L19 3L20 3L20 1L21 1L21 0L19 0L19 1L18 1L18 0L16 0L16 1L15 1L15 0ZM17 1L17 2L11 2L11 3L14 3L14 4L13 4L13 5L12 5L12 4L11 4L11 5L10 5L10 6L9 6L9 7L10 7L10 6L11 6L11 7L12 7L12 6L13 6L13 8L14 8L14 6L15 6L15 7L16 7L16 6L15 6L15 5L14 5L14 4L16 4L16 5L17 5L17 7L18 7L18 6L19 6L19 4L18 4L18 3L19 3L19 2L18 2L18 1ZM16 3L16 4L17 4L17 3ZM11 5L11 6L12 6L12 5ZM16 9L16 10L17 10L17 9ZM22 9L22 10L23 10L23 11L24 11L24 9ZM7 10L7 11L6 11L6 12L9 12L9 11L8 11L8 10ZM26 10L26 11L27 11L27 12L28 12L28 11L27 11L27 10ZM1 11L1 12L2 12L2 11ZM17 11L17 12L16 12L16 13L18 13L18 11ZM14 12L14 13L15 13L15 12ZM19 12L19 13L20 13L20 12ZM21 12L21 14L20 14L20 15L21 15L21 14L22 14L22 12ZM25 13L25 16L26 16L26 17L27 17L27 16L28 16L28 15L27 15L27 16L26 16L26 13ZM1 15L1 17L2 17L2 19L3 19L3 18L4 18L4 17L2 17L2 16L5 16L5 19L6 19L6 20L7 20L7 19L6 19L6 18L7 18L7 17L8 17L8 16L7 16L7 15ZM14 15L14 17L13 17L13 18L14 18L14 17L16 17L16 16L15 16L15 15ZM6 16L6 17L7 17L7 16ZM22 16L22 17L23 17L23 16ZM25 18L25 19L23 19L23 20L25 20L25 19L26 19L26 18ZM12 19L12 20L14 20L14 19ZM21 19L21 20L22 20L22 19ZM18 21L18 22L17 22L17 23L18 23L18 24L17 24L17 25L18 25L18 24L20 24L20 21ZM21 21L21 24L24 24L24 21ZM22 22L22 23L23 23L23 22ZM0 0L0 7L7 7L7 0ZM1 1L1 6L6 6L6 1ZM2 2L2 5L5 5L5 2ZM22 0L22 7L29 7L29 0ZM23 1L23 6L28 6L28 1ZM24 2L24 5L27 5L27 2ZM0 22L0 29L7 29L7 22ZM1 23L1 28L6 28L6 23ZM2 24L2 27L5 27L5 24Z" fill="#000000"/></g></g></svg>
