<?xml version="1.0" encoding="UTF-8"?>
<svg xmlns="http://www.w3.org/2000/svg" version="1.1" width="200" height="200" viewBox="0 0 200 200"><rect x="0" y="0" width="200" height="200" fill="#ffffff"/><g transform="scale(6.897)"><g transform="translate(0,0)"><path fill-rule="evenodd" d="M9 0L9 1L8 1L8 7L9 7L9 4L10 4L10 5L11 5L11 6L10 6L10 7L11 7L11 8L10 8L10 11L9 11L9 8L5 8L5 9L7 9L7 10L6 10L6 11L7 11L7 10L8 10L8 11L9 11L9 12L8 12L8 13L7 13L7 12L5 12L5 13L4 13L4 14L3 14L3 15L4 15L4 16L5 16L5 15L7 15L7 16L6 16L6 17L5 17L5 18L4 18L4 17L3 17L3 16L2 16L2 18L0 18L0 19L2 19L2 20L0 20L0 21L3 21L3 20L5 20L5 18L6 18L6 19L7 19L7 18L6 18L6 17L8 17L8 18L9 18L9 16L8 16L8 15L7 15L7 14L9 14L9 15L11 15L11 16L10 16L10 17L11 17L11 16L12 16L12 15L11 15L11 14L12 14L12 13L14 13L14 14L16 14L16 13L18 13L18 12L17 12L17 9L18 9L18 7L19 7L19 8L20 8L20 11L19 11L19 12L20 12L20 13L21 13L21 12L22 12L22 14L18 14L18 15L17 15L17 17L18 17L18 18L16 18L16 19L15 19L15 20L14 20L14 22L11 22L11 21L13 21L13 20L11 20L11 21L10 21L10 19L12 19L12 18L10 18L10 19L8 19L8 20L6 20L6 21L8 21L8 24L9 24L9 25L10 25L10 24L11 24L11 25L12 25L12 27L9 27L9 26L8 26L8 27L9 27L9 28L10 28L10 29L15 29L15 28L16 28L16 27L17 27L17 28L18 28L18 29L19 29L19 26L18 26L18 25L19 25L19 21L20 21L20 25L25 25L25 26L26 26L26 25L27 25L27 24L28 24L28 25L29 25L29 24L28 24L28 23L29 23L29 21L27 21L27 19L26 19L26 18L28 18L28 19L29 19L29 18L28 18L28 17L29 17L29 16L27 16L27 17L25 17L25 16L22 16L22 15L25 15L25 14L26 14L26 13L27 13L27 14L28 14L28 15L29 15L29 14L28 14L28 13L29 13L29 12L27 12L27 11L29 11L29 9L28 9L28 8L23 8L23 10L22 10L22 11L21 11L21 9L22 9L22 8L20 8L20 7L21 7L21 0L19 0L19 1L20 1L20 2L19 2L19 3L20 3L20 5L19 5L19 4L18 4L18 5L17 5L17 3L18 3L18 2L17 2L17 1L18 1L18 0L17 0L17 1L16 1L16 0L15 0L15 2L14 2L14 0L13 0L13 2L12 2L12 1L11 1L11 0ZM9 2L9 3L10 3L10 2ZM13 2L13 4L12 4L12 6L11 6L11 7L12 7L12 6L13 6L13 9L11 9L11 10L13 10L13 11L10 11L10 12L9 12L9 14L11 14L11 12L14 12L14 13L15 13L15 12L14 12L14 11L15 11L15 10L16 10L16 9L17 9L17 8L16 8L16 9L15 9L15 10L13 10L13 9L14 9L14 6L15 6L15 7L16 7L16 6L17 6L17 7L18 7L18 6L17 6L17 5L16 5L16 3L17 3L17 2L15 2L15 5L14 5L14 6L13 6L13 4L14 4L14 2ZM15 5L15 6L16 6L16 5ZM19 6L19 7L20 7L20 6ZM2 8L2 10L1 10L1 11L2 11L2 13L3 13L3 12L4 12L4 9L3 9L3 8ZM27 9L27 10L28 10L28 9ZM24 10L24 11L26 11L26 10ZM23 12L23 14L25 14L25 13L24 13L24 12ZM0 13L0 14L1 14L1 15L0 15L0 16L1 16L1 15L2 15L2 14L1 14L1 13ZM5 13L5 14L7 14L7 13ZM14 15L14 17L13 17L13 18L14 18L14 17L16 17L16 15ZM18 15L18 16L20 16L20 17L19 17L19 18L18 18L18 19L17 19L17 20L18 20L18 19L19 19L19 20L22 20L22 19L21 19L21 15ZM22 17L22 18L25 18L25 17ZM19 18L19 19L20 19L20 18ZM23 19L23 20L26 20L26 19ZM15 20L15 22L14 22L14 23L12 23L12 25L13 25L13 26L14 26L14 27L15 27L15 26L17 26L17 25L16 25L16 23L17 23L17 24L18 24L18 22L17 22L17 21L16 21L16 20ZM9 21L9 22L10 22L10 21ZM21 21L21 24L24 24L24 21ZM26 21L26 23L25 23L25 25L26 25L26 24L27 24L27 23L28 23L28 22L27 22L27 21ZM22 22L22 23L23 23L23 22ZM14 23L14 24L13 24L13 25L14 25L14 26L15 26L15 23ZM21 26L21 29L22 29L22 28L24 28L24 29L26 29L26 28L24 28L24 26L23 26L23 27L22 27L22 26ZM27 26L27 27L28 27L28 28L27 28L27 29L29 29L29 26ZM12 27L12 28L13 28L13 27ZM0 0L0 7L7 7L7 0ZM1 1L1 6L6 6L6 1ZM2 2L2 5L5 5L5 2ZM22 0L22 7L29 7L29 0ZM23 1L23 6L28 6L28 1ZM24 2L24 5L27 5L27 2ZM0 22L0 29L7 29L7 22ZM1 23L1 28L6 28L6 23ZM2 24L2 27L5 27L5 24Z" fill="#000000"/></g></g></svg>
