<?xml version="1.0" encoding="UTF-8"?>
<svg xmlns="http://www.w3.org/2000/svg" version="1.1" width="200" height="200" viewBox="0 0 200 200"><rect x="0" y="0" width="200" height="200" fill="#ffffff"/><g transform="scale(4.878)"><g transform="translate(0,0)"><path fill-rule="evenodd" d="M8 0L8 3L12 3L12 4L10 4L10 7L11 7L11 6L12 6L12 10L11 10L11 8L9 8L9 5L8 5L8 9L10 9L10 11L9 11L9 12L8 12L8 13L9 13L9 12L11 12L11 11L12 11L12 10L13 10L13 6L14 6L14 9L15 9L15 10L16 10L16 13L15 13L15 14L14 14L14 12L12 12L12 14L13 14L13 15L14 15L14 16L13 16L13 18L12 18L12 15L11 15L11 16L10 16L10 14L8 14L8 15L7 15L7 14L5 14L5 13L7 13L7 12L6 12L6 11L8 11L8 10L5 10L5 8L2 8L2 9L1 9L1 10L0 10L0 11L1 11L1 12L0 12L0 13L1 13L1 12L2 12L2 13L3 13L3 14L2 14L2 15L1 15L1 14L0 14L0 17L1 17L1 18L2 18L2 19L3 19L3 20L1 20L1 19L0 19L0 20L1 20L1 21L0 21L0 22L2 22L2 23L0 23L0 25L1 25L1 27L2 27L2 26L4 26L4 27L3 27L3 31L2 31L2 33L5 33L5 31L4 31L4 29L5 29L5 30L6 30L6 31L7 31L7 32L6 32L6 33L7 33L7 32L8 32L8 34L10 34L10 31L11 31L11 27L12 27L12 26L14 26L14 27L13 27L13 29L12 29L12 31L16 31L16 27L17 27L17 28L18 28L18 29L17 29L17 32L18 32L18 33L20 33L20 34L22 34L22 36L21 36L21 39L19 39L19 40L18 40L18 41L20 41L20 40L21 40L21 41L22 41L22 39L23 39L23 41L27 41L27 40L28 40L28 41L31 41L31 40L33 40L33 41L34 41L34 40L33 40L33 39L32 39L32 37L33 37L33 38L34 38L34 39L35 39L35 40L36 40L36 39L37 39L37 40L40 40L40 38L41 38L41 37L40 37L40 36L41 36L41 35L40 35L40 34L41 34L41 33L39 33L39 32L38 32L38 29L36 29L36 28L38 28L38 26L39 26L39 28L41 28L41 27L40 27L40 26L41 26L41 23L39 23L39 22L37 22L37 21L39 21L39 20L36 20L36 19L35 19L35 17L36 17L36 18L37 18L37 19L38 19L38 18L37 18L37 17L39 17L39 16L37 16L37 15L36 15L36 14L37 14L37 13L36 13L36 14L35 14L35 17L34 17L34 16L32 16L32 17L31 17L31 16L29 16L29 15L28 15L28 16L29 16L29 17L31 17L31 18L30 18L30 19L31 19L31 20L30 20L30 21L31 21L31 22L32 22L32 23L30 23L30 22L29 22L29 21L28 21L28 19L29 19L29 18L27 18L27 17L26 17L26 16L27 16L27 15L26 15L26 16L25 16L25 14L30 14L30 15L31 15L31 12L32 12L32 13L33 13L33 14L32 14L32 15L34 15L34 13L35 13L35 12L38 12L38 11L40 11L40 12L41 12L41 11L40 11L40 10L41 10L41 8L38 8L38 9L40 9L40 10L37 10L37 9L36 9L36 8L32 8L32 9L30 9L30 8L29 8L29 6L30 6L30 7L31 7L31 5L32 5L32 7L33 7L33 5L32 5L32 4L33 4L33 3L31 3L31 2L30 2L30 0L29 0L29 1L27 1L27 0L26 0L26 1L27 1L27 2L26 2L26 3L28 3L28 4L29 4L29 3L31 3L31 4L30 4L30 5L29 5L29 6L28 6L28 5L27 5L27 4L25 4L25 5L26 5L26 7L27 7L27 6L28 6L28 8L26 8L26 10L27 10L27 11L28 11L28 12L27 12L27 13L25 13L25 12L23 12L23 11L24 11L24 10L25 10L25 8L23 8L23 4L24 4L24 2L25 2L25 1L23 1L23 0L21 0L21 1L23 1L23 4L22 4L22 5L21 5L21 2L18 2L18 1L19 1L19 0L16 0L16 1L15 1L15 0L14 0L14 1L15 1L15 2L14 2L14 3L16 3L16 4L17 4L17 5L16 5L16 7L15 7L15 4L14 4L14 5L13 5L13 3L12 3L12 1L13 1L13 0L11 0L11 2L10 2L10 1L9 1L9 0ZM31 0L31 1L32 1L32 2L33 2L33 1L32 1L32 0ZM16 1L16 3L17 3L17 4L19 4L19 3L17 3L17 1ZM12 5L12 6L13 6L13 5ZM17 5L17 7L18 7L18 6L19 6L19 7L20 7L20 8L21 8L21 7L22 7L22 6L21 6L21 7L20 7L20 6L19 6L19 5ZM24 6L24 7L25 7L25 6ZM6 8L6 9L7 9L7 8ZM16 8L16 9L17 9L17 10L18 10L18 8ZM22 8L22 9L19 9L19 16L18 16L18 15L17 15L17 16L18 16L18 18L17 18L17 17L16 17L16 18L15 18L15 19L14 19L14 18L13 18L13 19L12 19L12 18L9 18L9 17L10 17L10 16L8 16L8 18L9 18L9 20L12 20L12 21L14 21L14 23L15 23L15 24L16 24L16 26L15 26L15 25L14 25L14 24L13 24L13 25L14 25L14 26L15 26L15 27L16 27L16 26L17 26L17 27L18 27L18 28L19 28L19 27L20 27L20 26L21 26L21 29L20 29L20 31L21 31L21 29L22 29L22 31L24 31L24 32L21 32L21 33L22 33L22 34L23 34L23 33L24 33L24 34L28 34L28 36L27 36L27 35L26 35L26 36L25 36L25 38L26 38L26 37L27 37L27 38L28 38L28 37L32 37L32 35L31 35L31 33L30 33L30 35L31 35L31 36L29 36L29 34L28 34L28 33L29 33L29 32L31 32L31 30L32 30L32 31L33 31L33 32L35 32L35 31L36 31L36 29L35 29L35 28L36 28L36 27L37 27L37 26L36 26L36 25L39 25L39 26L40 26L40 24L39 24L39 23L37 23L37 24L36 24L36 23L35 23L35 22L36 22L36 21L35 21L35 19L34 19L34 18L33 18L33 17L32 17L32 18L31 18L31 19L32 19L32 20L31 20L31 21L32 21L32 22L34 22L34 23L33 23L33 25L32 25L32 24L31 24L31 25L30 25L30 26L29 26L29 28L31 28L31 29L28 29L28 30L29 30L29 31L28 31L28 33L25 33L25 32L27 32L27 30L26 30L26 31L24 31L24 30L23 30L23 29L22 29L22 28L24 28L24 29L27 29L27 26L28 26L28 25L29 25L29 24L30 24L30 23L27 23L27 22L28 22L28 21L27 21L27 20L26 20L26 19L27 19L27 18L26 18L26 17L24 17L24 18L23 18L23 16L24 16L24 14L25 14L25 13L23 13L23 16L22 16L22 14L20 14L20 13L22 13L22 12L21 12L21 11L23 11L23 8ZM3 9L3 10L4 10L4 9ZM27 9L27 10L28 10L28 11L29 11L29 12L28 12L28 13L29 13L29 12L31 12L31 11L32 11L32 10L33 10L33 11L34 11L34 9L32 9L32 10L31 10L31 11L30 11L30 9ZM35 9L35 11L37 11L37 10L36 10L36 9ZM1 10L1 11L2 11L2 12L3 12L3 11L2 11L2 10ZM20 10L20 11L21 11L21 10ZM17 12L17 14L18 14L18 12ZM33 12L33 13L34 13L34 12ZM40 13L40 14L39 14L39 15L40 15L40 14L41 14L41 13ZM2 15L2 16L1 16L1 17L2 17L2 18L3 18L3 19L5 19L5 20L4 20L4 21L5 21L5 20L7 20L7 21L6 21L6 22L5 22L5 23L4 23L4 22L3 22L3 23L4 23L4 24L5 24L5 23L6 23L6 24L7 24L7 25L5 25L5 26L7 26L7 27L6 27L6 28L5 28L5 27L4 27L4 28L5 28L5 29L6 29L6 30L7 30L7 31L8 31L8 32L9 32L9 31L10 31L10 29L9 29L9 28L10 28L10 26L9 26L9 27L8 27L8 26L7 26L7 25L11 25L11 26L12 26L12 24L11 24L11 23L10 23L10 22L11 22L11 21L10 21L10 22L9 22L9 21L8 21L8 20L7 20L7 19L5 19L5 18L7 18L7 17L6 17L6 16L7 16L7 15L4 15L4 16L5 16L5 17L2 17L2 16L3 16L3 15ZM15 15L15 16L14 16L14 17L15 17L15 16L16 16L16 15ZM21 16L21 17L19 17L19 19L21 19L21 18L22 18L22 16ZM36 16L36 17L37 17L37 16ZM40 16L40 18L39 18L39 19L40 19L40 18L41 18L41 16ZM24 18L24 19L22 19L22 20L21 20L21 21L20 21L20 20L18 20L18 19L17 19L17 20L18 20L18 21L16 21L16 22L19 22L19 23L21 23L21 22L23 22L23 23L22 23L22 25L23 25L23 26L22 26L22 27L23 27L23 26L25 26L25 27L26 27L26 26L27 26L27 25L28 25L28 24L27 24L27 25L26 25L26 23L24 23L24 22L25 22L25 21L26 21L26 22L27 22L27 21L26 21L26 20L25 20L25 19L26 19L26 18ZM32 18L32 19L33 19L33 18ZM14 20L14 21L15 21L15 20ZM32 20L32 21L34 21L34 22L35 22L35 21L34 21L34 20ZM40 20L40 21L41 21L41 20ZM19 21L19 22L20 22L20 21ZM23 21L23 22L24 22L24 21ZM6 22L6 23L9 23L9 22ZM12 22L12 23L13 23L13 22ZM16 23L16 24L17 24L17 23ZM34 23L34 24L35 24L35 25L33 25L33 27L32 27L32 28L33 28L33 29L32 29L32 30L33 30L33 29L34 29L34 28L33 28L33 27L34 27L34 26L35 26L35 25L36 25L36 24L35 24L35 23ZM2 24L2 25L3 25L3 24ZM18 24L18 25L17 25L17 26L18 26L18 27L19 27L19 26L20 26L20 24ZM23 24L23 25L25 25L25 24ZM31 25L31 26L32 26L32 25ZM1 28L1 29L0 29L0 33L1 33L1 30L2 30L2 28ZM6 28L6 29L7 29L7 28ZM8 29L8 30L9 30L9 29ZM13 29L13 30L15 30L15 29ZM39 29L39 31L40 31L40 32L41 32L41 31L40 31L40 30L41 30L41 29ZM34 30L34 31L35 31L35 30ZM3 31L3 32L4 32L4 31ZM18 31L18 32L19 32L19 31ZM11 32L11 33L12 33L12 34L11 34L11 35L12 35L12 37L13 37L13 36L14 36L14 38L12 38L12 39L13 39L13 41L17 41L17 40L14 40L14 38L15 38L15 39L16 39L16 38L20 38L20 37L19 37L19 36L20 36L20 35L19 35L19 34L18 34L18 35L17 35L17 33L16 33L16 32L15 32L15 33L16 33L16 34L14 34L14 35L13 35L13 33L12 33L12 32ZM37 32L37 34L38 34L38 36L37 36L37 37L38 37L38 36L40 36L40 35L39 35L39 33L38 33L38 32ZM33 33L33 36L36 36L36 33ZM34 34L34 35L35 35L35 34ZM14 35L14 36L15 36L15 38L16 38L16 37L17 37L17 35L16 35L16 36L15 36L15 35ZM18 35L18 36L19 36L19 35ZM23 35L23 36L22 36L22 37L23 37L23 39L24 39L24 40L27 40L27 39L24 39L24 37L23 37L23 36L24 36L24 35ZM8 36L8 39L9 39L9 38L11 38L11 37L10 37L10 36ZM34 37L34 38L36 38L36 37ZM29 38L29 39L28 39L28 40L31 40L31 39L30 39L30 38ZM37 38L37 39L38 39L38 38ZM9 40L9 41L12 41L12 40ZM0 0L0 7L7 7L7 0ZM1 1L1 6L6 6L6 1ZM2 2L2 5L5 5L5 2ZM34 0L34 7L41 7L41 0ZM35 1L35 6L40 6L40 1ZM36 2L36 5L39 5L39 2ZM0 34L0 41L7 41L7 34ZM1 35L1 40L6 40L6 35ZM2 36L2 39L5 39L5 36Z" fill="#000000"/></g></g></svg>
