<?xml version="1.0" encoding="UTF-8"?>
<svg xmlns="http://www.w3.org/2000/svg" version="1.1" width="200" height="200" viewBox="0 0 200 200"><rect x="0" y="0" width="200" height="200" fill="#ffffff"/><g transform="scale(6.897)"><g transform="translate(0,0)"><path fill-rule="evenodd" d="M11 0L11 1L13 1L13 0ZM9 1L9 4L8 4L8 5L9 5L9 4L10 4L10 5L11 5L11 6L10 6L10 8L9 8L9 6L8 6L8 8L6 8L6 9L4 9L4 8L2 8L2 9L1 9L1 11L0 11L0 13L1 13L1 14L0 14L0 15L1 15L1 16L3 16L3 17L2 17L2 19L3 19L3 17L4 17L4 16L5 16L5 17L7 17L7 18L4 18L4 20L3 20L3 21L4 21L4 20L5 20L5 21L7 21L7 20L9 20L9 21L8 21L8 23L9 23L9 24L11 24L11 25L10 25L10 27L9 27L9 25L8 25L8 27L9 27L9 29L11 29L11 28L10 28L10 27L11 27L11 25L13 25L13 27L12 27L12 29L14 29L14 28L13 28L13 27L14 27L14 25L15 25L15 28L16 28L16 29L20 29L20 28L18 28L18 26L20 26L20 25L23 25L23 26L24 26L24 27L22 27L22 29L23 29L23 28L25 28L25 26L26 26L26 27L27 27L27 28L29 28L29 26L28 26L28 27L27 27L27 25L28 25L28 24L29 24L29 21L28 21L28 20L27 20L27 18L29 18L29 17L26 17L26 16L25 16L25 15L24 15L24 16L23 16L23 17L21 17L21 18L20 18L20 17L19 17L19 18L20 18L20 20L19 20L19 21L18 21L18 20L17 20L17 21L15 21L15 20L16 20L16 19L13 19L13 18L12 18L12 15L13 15L13 16L14 16L14 18L15 18L15 14L14 14L14 15L13 15L13 14L10 14L10 15L8 15L8 14L9 14L9 12L12 12L12 13L13 13L13 12L12 12L12 11L13 11L13 8L14 8L14 9L16 9L16 10L15 10L15 11L14 11L14 13L15 13L15 12L16 12L16 11L17 11L17 13L16 13L16 18L17 18L17 19L18 19L18 18L17 18L17 14L18 14L18 16L19 16L19 15L20 15L20 14L21 14L21 13L20 13L20 12L22 12L22 9L23 9L23 13L22 13L22 15L23 15L23 14L24 14L24 13L25 13L25 14L26 14L26 15L27 15L27 16L28 16L28 15L29 15L29 14L28 14L28 12L29 12L29 11L28 11L28 12L27 12L27 11L26 11L26 10L24 10L24 9L25 9L25 8L24 8L24 9L23 9L23 8L21 8L21 9L20 9L20 7L21 7L21 3L20 3L20 2L18 2L18 1L16 1L16 2L15 2L15 1L14 1L14 2L13 2L13 4L11 4L11 2L10 2L10 1ZM14 2L14 4L13 4L13 5L14 5L14 6L13 6L13 7L14 7L14 8L17 8L17 10L18 10L18 8L19 8L19 7L20 7L20 5L19 5L19 7L18 7L18 6L17 6L17 5L18 5L18 2L16 2L16 3L15 3L15 2ZM16 3L16 4L15 4L15 6L14 6L14 7L15 7L15 6L16 6L16 7L17 7L17 6L16 6L16 5L17 5L17 3ZM19 3L19 4L20 4L20 3ZM11 6L11 7L12 7L12 6ZM3 9L3 10L4 10L4 11L5 11L5 12L4 12L4 14L3 14L3 13L2 13L2 12L3 12L3 11L1 11L1 13L2 13L2 14L3 14L3 16L4 16L4 14L8 14L8 13L6 13L6 12L7 12L7 11L6 11L6 10L7 10L7 9L6 9L6 10L4 10L4 9ZM9 9L9 10L8 10L8 12L9 12L9 10L10 10L10 9ZM11 9L11 11L12 11L12 9ZM19 9L19 10L20 10L20 9ZM27 9L27 10L29 10L29 9ZM19 11L19 12L20 12L20 11ZM25 11L25 13L27 13L27 12L26 12L26 11ZM18 13L18 14L20 14L20 13ZM27 14L27 15L28 15L28 14ZM5 15L5 16L8 16L8 18L9 18L9 20L11 20L11 21L12 21L12 20L13 20L13 22L11 22L11 23L12 23L12 24L14 24L14 23L13 23L13 22L15 22L15 23L16 23L16 24L15 24L15 25L16 25L16 27L17 27L17 25L18 25L18 24L19 24L19 25L20 25L20 24L19 24L19 23L20 23L20 21L19 21L19 23L16 23L16 22L15 22L15 21L14 21L14 20L13 20L13 19L12 19L12 18L10 18L10 17L11 17L11 15L10 15L10 16L8 16L8 15ZM24 16L24 17L23 17L23 18L22 18L22 19L21 19L21 20L22 20L22 19L24 19L24 20L26 20L26 22L25 22L25 23L26 23L26 25L27 25L27 24L28 24L28 21L27 21L27 20L26 20L26 17L25 17L25 16ZM0 18L0 19L1 19L1 18ZM24 18L24 19L25 19L25 18ZM6 19L6 20L7 20L7 19ZM11 19L11 20L12 20L12 19ZM1 20L1 21L2 21L2 20ZM21 21L21 24L24 24L24 21ZM9 22L9 23L10 23L10 22ZM22 22L22 23L23 23L23 22ZM16 24L16 25L17 25L17 24ZM24 25L24 26L25 26L25 25ZM0 0L0 7L7 7L7 0ZM1 1L1 6L6 6L6 1ZM2 2L2 5L5 5L5 2ZM22 0L22 7L29 7L29 0ZM23 1L23 6L28 6L28 1ZM24 2L24 5L27 5L27 2ZM0 22L0 29L7 29L7 22ZM1 23L1 28L6 28L6 23ZM2 24L2 27L5 27L5 24Z" fill="#000000"/></g></g></svg>
