<?xml version="1.0" encoding="UTF-8"?>
<svg xmlns="http://www.w3.org/2000/svg" version="1.1" width="200" height="200" viewBox="0 0 200 200"><rect x="0" y="0" width="200" height="200" fill="#ffffff"/><g transform="scale(6.897)"><g transform="translate(0,0)"><path fill-rule="evenodd" d="M9 0L9 1L11 1L11 2L10 2L10 3L11 3L11 2L12 2L12 3L13 3L13 4L12 4L12 8L13 8L13 9L14 9L14 7L15 7L15 6L16 6L16 7L17 7L17 8L16 8L16 10L19 10L19 11L17 11L17 12L16 12L16 14L15 14L15 10L14 10L14 15L13 15L13 16L12 16L12 15L11 15L11 14L12 14L12 13L13 13L13 12L12 12L12 13L10 13L10 15L9 15L9 13L8 13L8 12L11 12L11 10L8 10L8 8L6 8L6 9L5 9L5 8L3 8L3 9L2 9L2 10L1 10L1 9L0 9L0 12L1 12L1 15L0 15L0 21L2 21L2 16L4 16L4 17L3 17L3 18L4 18L4 19L7 19L7 18L8 18L8 20L10 20L10 19L13 19L13 20L15 20L15 22L14 22L14 21L13 21L13 22L14 22L14 23L15 23L15 22L16 22L16 23L17 23L17 24L18 24L18 22L19 22L19 21L20 21L20 24L19 24L19 25L16 25L16 24L14 24L14 25L13 25L13 26L12 26L12 25L11 25L11 26L10 26L10 27L14 27L14 28L13 28L13 29L14 29L14 28L15 28L15 29L17 29L17 28L16 28L16 27L15 27L15 26L14 26L14 25L16 25L16 26L17 26L17 27L18 27L18 29L20 29L20 28L21 28L21 29L23 29L23 28L24 28L24 29L25 29L25 27L23 27L23 28L22 28L22 26L21 26L21 27L20 27L20 28L19 28L19 27L18 27L18 26L19 26L19 25L24 25L24 26L25 26L25 22L27 22L27 23L28 23L28 24L26 24L26 28L27 28L27 29L28 29L28 28L27 28L27 27L29 27L29 26L27 26L27 25L29 25L29 22L28 22L28 21L26 21L26 20L25 20L25 19L26 19L26 18L28 18L28 19L29 19L29 17L28 17L28 16L29 16L29 11L28 11L28 10L27 10L27 8L25 8L25 9L26 9L26 10L25 10L25 12L24 12L24 16L23 16L23 12L22 12L22 11L21 11L21 10L19 10L19 9L17 9L17 8L19 8L19 6L20 6L20 8L21 8L21 4L19 4L19 3L20 3L20 1L21 1L21 0L19 0L19 1L18 1L18 0L17 0L17 1L16 1L16 2L15 2L15 1L13 1L13 2L12 2L12 0ZM17 1L17 3L16 3L16 4L17 4L17 5L16 5L16 6L17 6L17 7L18 7L18 6L19 6L19 4L18 4L18 3L19 3L19 2L18 2L18 1ZM8 2L8 4L9 4L9 6L8 6L8 7L9 7L9 6L10 6L10 7L11 7L11 6L10 6L10 5L11 5L11 4L9 4L9 2ZM14 2L14 4L13 4L13 7L14 7L14 6L15 6L15 5L14 5L14 4L15 4L15 2ZM9 8L9 9L11 9L11 8ZM3 9L3 10L4 10L4 11L1 11L1 12L4 12L4 11L5 11L5 13L4 13L4 14L7 14L7 15L6 15L6 16L7 16L7 15L8 15L8 13L6 13L6 12L7 12L7 11L8 11L8 10L7 10L7 9L6 9L6 10L7 10L7 11L5 11L5 10L4 10L4 9ZM22 9L22 10L23 10L23 11L24 11L24 9ZM12 10L12 11L13 11L13 10ZM26 10L26 11L27 11L27 12L28 12L28 11L27 11L27 10ZM17 12L17 14L16 14L16 15L15 15L15 18L14 18L14 17L13 17L13 18L14 18L14 19L15 19L15 18L17 18L17 19L16 19L16 22L17 22L17 20L18 20L18 21L19 21L19 18L20 18L20 19L21 19L21 20L22 20L22 19L21 19L21 16L20 16L20 15L21 15L21 14L22 14L22 12L21 12L21 14L20 14L20 15L18 15L18 12ZM19 12L19 13L20 13L20 12ZM25 13L25 16L26 16L26 17L27 17L27 16L28 16L28 13L27 13L27 16L26 16L26 13ZM2 14L2 15L1 15L1 16L2 16L2 15L3 15L3 14ZM4 15L4 16L5 16L5 15ZM10 15L10 16L11 16L11 17L9 17L9 16L8 16L8 17L9 17L9 19L10 19L10 18L11 18L11 17L12 17L12 16L11 16L11 15ZM17 15L17 18L18 18L18 17L19 17L19 16L18 16L18 15ZM22 16L22 17L23 17L23 16ZM4 17L4 18L5 18L5 17ZM6 17L6 18L7 18L7 17ZM23 19L23 20L24 20L24 19ZM3 20L3 21L7 21L7 20ZM11 20L11 21L10 21L10 22L12 22L12 20ZM8 21L8 23L9 23L9 21ZM21 21L21 24L24 24L24 21ZM22 22L22 23L23 23L23 22ZM10 23L10 24L12 24L12 23ZM8 24L8 26L9 26L9 24ZM9 28L9 29L10 29L10 28ZM11 28L11 29L12 29L12 28ZM0 0L0 7L7 7L7 0ZM1 1L1 6L6 6L6 1ZM2 2L2 5L5 5L5 2ZM22 0L22 7L29 7L29 0ZM23 1L23 6L28 6L28 1ZM24 2L24 5L27 5L27 2ZM0 22L0 29L7 29L7 22ZM1 23L1 28L6 28L6 23ZM2 24L2 27L5 27L5 24Z" fill="#000000"/></g></g></svg>
