<?xml version="1.0" encoding="UTF-8"?>
<svg xmlns="http://www.w3.org/2000/svg" version="1.1" width="200" height="200" viewBox="0 0 200 200"><rect x="0" y="0" width="200" height="200" fill="#ffffff"/><g transform="scale(4.878)"><g transform="translate(0,0)"><path fill-rule="evenodd" d="M8 0L8 3L9 3L9 5L8 5L8 9L7 9L7 8L6 8L6 9L7 9L7 10L5 10L5 8L2 8L2 10L3 10L3 11L1 11L1 12L3 12L3 13L2 13L2 14L1 14L1 13L0 13L0 14L1 14L1 15L0 15L0 17L1 17L1 18L0 18L0 25L1 25L1 26L0 26L0 33L1 33L1 29L2 29L2 30L3 30L3 29L4 29L4 31L5 31L5 32L4 32L4 33L7 33L7 32L9 32L9 33L8 33L8 34L10 34L10 35L9 35L9 36L8 36L8 39L9 39L9 40L11 40L11 41L17 41L17 40L18 40L18 41L20 41L20 40L21 40L21 39L19 39L19 40L18 40L18 39L17 39L17 40L14 40L14 39L16 39L16 38L19 38L19 37L20 37L20 38L21 38L21 37L20 37L20 35L21 35L21 36L22 36L22 37L23 37L23 38L22 38L22 41L24 41L24 40L23 40L23 39L24 39L24 38L25 38L25 37L23 37L23 36L22 36L22 35L21 35L21 34L22 34L22 33L23 33L23 34L24 34L24 36L25 36L25 34L26 34L26 35L27 35L27 36L28 36L28 35L29 35L29 36L31 36L31 35L32 35L32 37L33 37L33 38L32 38L32 39L31 39L31 40L33 40L33 41L34 41L34 40L33 40L33 38L34 38L34 39L35 39L35 40L36 40L36 39L37 39L37 40L40 40L40 38L41 38L41 37L39 37L39 36L37 36L37 34L38 34L38 35L40 35L40 36L41 36L41 35L40 35L40 34L41 34L41 33L40 33L40 32L41 32L41 31L40 31L40 30L41 30L41 29L40 29L40 28L41 28L41 27L40 27L40 26L41 26L41 23L39 23L39 24L40 24L40 26L39 26L39 25L36 25L36 24L37 24L37 20L38 20L38 22L39 22L39 20L38 20L38 19L39 19L39 18L41 18L41 16L40 16L40 17L39 17L39 16L38 16L38 15L35 15L35 17L34 17L34 16L32 16L32 17L31 17L31 16L29 16L29 15L31 15L31 12L29 12L29 13L28 13L28 12L25 12L25 15L26 15L26 17L25 17L25 20L24 20L24 18L23 18L23 16L24 16L24 13L23 13L23 12L22 12L22 11L23 11L23 10L24 10L24 11L25 11L25 10L26 10L26 11L28 11L28 10L27 10L27 9L29 9L29 10L30 10L30 11L31 11L31 10L33 10L33 9L34 9L34 11L32 11L32 13L33 13L33 14L32 14L32 15L34 15L34 13L35 13L35 9L36 9L36 10L37 10L37 11L36 11L36 12L38 12L38 11L40 11L40 10L41 10L41 8L38 8L38 9L40 9L40 10L37 10L37 9L36 9L36 8L33 8L33 9L30 9L30 8L29 8L29 6L30 6L30 7L31 7L31 5L32 5L32 7L33 7L33 5L32 5L32 4L33 4L33 3L32 3L32 2L30 2L30 1L33 1L33 0L29 0L29 1L27 1L27 0L26 0L26 1L27 1L27 2L26 2L26 3L32 3L32 4L30 4L30 5L29 5L29 4L28 4L28 5L27 5L27 4L25 4L25 6L24 6L24 5L23 5L23 4L24 4L24 3L25 3L25 1L24 1L24 0L23 0L23 1L22 1L22 3L21 3L21 2L20 2L20 1L21 1L21 0L20 0L20 1L19 1L19 0L16 0L16 2L17 2L17 4L18 4L18 5L16 5L16 3L15 3L15 0L14 0L14 3L13 3L13 4L12 4L12 5L15 5L15 6L14 6L14 7L13 7L13 6L12 6L12 7L13 7L13 8L11 8L11 4L10 4L10 3L9 3L9 1L10 1L10 2L11 2L11 3L12 3L12 1L13 1L13 0L11 0L11 1L10 1L10 0ZM17 1L17 2L18 2L18 4L20 4L20 6L19 6L19 7L20 7L20 8L19 8L19 9L17 9L17 11L18 11L18 10L20 10L20 11L21 11L21 10L23 10L23 9L22 9L22 8L21 8L21 7L22 7L22 6L23 6L23 7L24 7L24 6L23 6L23 5L22 5L22 6L21 6L21 3L19 3L19 2L18 2L18 1ZM23 2L23 3L24 3L24 2ZM26 5L26 6L25 6L25 7L26 7L26 8L24 8L24 10L25 10L25 9L26 9L26 8L28 8L28 6L27 6L27 5ZM9 6L9 7L10 7L10 6ZM15 6L15 7L14 7L14 9L15 9L15 10L14 10L14 11L13 11L13 12L14 12L14 13L12 13L12 11L10 11L10 10L13 10L13 9L11 9L11 8L9 8L9 13L8 13L8 14L7 14L7 13L6 13L6 14L7 14L7 15L5 15L5 13L3 13L3 14L2 14L2 17L3 17L3 18L4 18L4 20L2 20L2 21L1 21L1 23L2 23L2 24L1 24L1 25L2 25L2 26L1 26L1 27L2 27L2 28L4 28L4 27L6 27L6 28L5 28L5 30L7 30L7 29L6 29L6 28L8 28L8 31L9 31L9 32L11 32L11 31L10 31L10 30L12 30L12 32L14 32L14 33L11 33L11 34L12 34L12 35L10 35L10 36L9 36L9 38L11 38L11 40L13 40L13 39L14 39L14 37L15 37L15 38L16 38L16 37L18 37L18 36L19 36L19 35L20 35L20 34L19 34L19 35L18 35L18 34L15 34L15 35L14 35L14 33L15 33L15 31L16 31L16 32L17 32L17 31L18 31L18 30L17 30L17 29L19 29L19 27L20 27L20 29L22 29L22 28L24 28L24 29L25 29L25 28L30 28L30 29L28 29L28 30L30 30L30 31L28 31L28 32L31 32L31 30L32 30L32 31L33 31L33 32L35 32L35 31L37 31L37 32L39 32L39 26L38 26L38 28L37 28L37 27L35 27L35 26L36 26L36 25L35 25L35 24L36 24L36 23L35 23L35 22L36 22L36 21L35 21L35 19L36 19L36 20L37 20L37 19L38 19L38 18L39 18L39 17L38 17L38 16L36 16L36 17L35 17L35 19L34 19L34 18L33 18L33 17L32 17L32 18L31 18L31 17L29 17L29 16L28 16L28 15L29 15L29 14L30 14L30 13L29 13L29 14L27 14L27 13L26 13L26 14L27 14L27 18L28 18L28 19L27 19L27 20L25 20L25 21L23 21L23 20L22 20L22 23L21 23L21 22L20 22L20 21L21 21L21 20L19 20L19 19L20 19L20 17L21 17L21 15L22 15L22 16L23 16L23 13L22 13L22 12L20 12L20 13L21 13L21 14L20 14L20 15L19 15L19 14L18 14L18 13L19 13L19 12L17 12L17 13L16 13L16 11L15 11L15 10L16 10L16 9L15 9L15 7L16 7L16 8L18 8L18 6L17 6L17 7L16 7L16 6ZM20 6L20 7L21 7L21 6ZM26 6L26 7L27 7L27 6ZM20 8L20 10L21 10L21 8ZM3 9L3 10L4 10L4 11L5 11L5 10L4 10L4 9ZM6 11L6 12L7 12L7 11ZM10 12L10 13L9 13L9 15L10 15L10 14L12 14L12 15L14 15L14 16L12 16L12 17L10 17L10 16L9 16L9 18L8 18L8 15L7 15L7 16L5 16L5 15L4 15L4 14L3 14L3 16L4 16L4 17L7 17L7 18L6 18L6 19L8 19L8 20L6 20L6 21L7 21L7 22L5 22L5 20L4 20L4 23L7 23L7 24L6 24L6 25L9 25L9 26L6 26L6 27L8 27L8 28L10 28L10 29L9 29L9 30L10 30L10 29L11 29L11 28L15 28L15 27L16 27L16 29L17 29L17 26L18 26L18 27L19 27L19 26L24 26L24 28L25 28L25 27L28 27L28 26L30 26L30 25L31 25L31 26L33 26L33 27L32 27L32 28L33 28L33 29L32 29L32 30L33 30L33 29L34 29L34 28L33 28L33 27L34 27L34 26L35 26L35 25L34 25L34 23L33 23L33 21L34 21L34 22L35 22L35 21L34 21L34 20L33 20L33 18L32 18L32 20L33 20L33 21L31 21L31 20L30 20L30 21L31 21L31 22L32 22L32 23L33 23L33 25L31 25L31 24L29 24L29 25L28 25L28 24L27 24L27 23L28 23L28 22L26 22L26 21L25 21L25 23L23 23L23 24L24 24L24 25L22 25L22 24L21 24L21 23L20 23L20 22L19 22L19 20L18 20L18 19L19 19L19 15L18 15L18 14L16 14L16 15L17 15L17 16L15 16L15 15L14 15L14 14L15 14L15 13L14 13L14 14L12 14L12 13L11 13L11 12ZM33 12L33 13L34 13L34 12ZM39 12L39 13L40 13L40 14L39 14L39 15L40 15L40 14L41 14L41 13L40 13L40 12ZM36 13L36 14L38 14L38 13ZM13 17L13 18L14 18L14 19L16 19L16 21L13 21L13 20L12 20L12 18L10 18L10 21L9 21L9 20L8 20L8 22L7 22L7 23L9 23L9 24L10 24L10 25L11 25L11 26L12 26L12 27L13 27L13 26L14 26L14 27L15 27L15 26L17 26L17 25L16 25L16 23L15 23L15 26L14 26L14 24L13 24L13 25L11 25L11 23L13 23L13 22L17 22L17 17ZM36 17L36 18L38 18L38 17ZM21 18L21 19L22 19L22 18ZM30 18L30 19L31 19L31 18ZM28 19L28 20L27 20L27 21L29 21L29 19ZM11 20L11 21L12 21L12 20ZM40 20L40 21L41 21L41 20ZM2 21L2 23L3 23L3 21ZM10 22L10 23L11 23L11 22ZM18 23L18 24L20 24L20 25L21 25L21 24L20 24L20 23ZM25 23L25 25L24 25L24 26L26 26L26 25L27 25L27 26L28 26L28 25L27 25L27 24L26 24L26 23ZM3 24L3 25L5 25L5 24ZM18 25L18 26L19 26L19 25ZM33 25L33 26L34 26L34 25ZM3 26L3 27L4 27L4 26ZM21 27L21 28L22 28L22 27ZM35 28L35 29L36 29L36 30L37 30L37 31L38 31L38 29L36 29L36 28ZM13 29L13 30L14 30L14 31L15 31L15 29ZM26 29L26 30L25 30L25 31L24 31L24 32L23 32L23 30L20 30L20 31L21 31L21 32L23 32L23 33L24 33L24 34L25 34L25 31L26 31L26 32L27 32L27 31L26 31L26 30L27 30L27 29ZM30 29L30 30L31 30L31 29ZM16 30L16 31L17 31L17 30ZM34 30L34 31L35 31L35 30ZM2 31L2 33L3 33L3 31ZM6 31L6 32L7 32L7 31ZM19 32L19 33L20 33L20 32ZM26 33L26 34L29 34L29 33ZM30 33L30 35L31 35L31 33ZM33 33L33 36L36 36L36 33ZM38 33L38 34L39 34L39 33ZM34 34L34 35L35 35L35 34ZM12 35L12 36L10 36L10 37L11 37L11 38L12 38L12 39L13 39L13 38L12 38L12 36L14 36L14 35ZM16 35L16 36L17 36L17 35ZM26 37L26 39L25 39L25 40L26 40L26 41L28 41L28 39L29 39L29 37L28 37L28 38L27 38L27 37ZM30 37L30 38L31 38L31 37ZM34 37L34 38L36 38L36 37ZM37 38L37 39L38 39L38 38ZM26 39L26 40L27 40L27 39ZM29 40L29 41L30 41L30 40ZM0 0L0 7L7 7L7 0ZM1 1L1 6L6 6L6 1ZM2 2L2 5L5 5L5 2ZM34 0L34 7L41 7L41 0ZM35 1L35 6L40 6L40 1ZM36 2L36 5L39 5L39 2ZM0 34L0 41L7 41L7 34ZM1 35L1 40L6 40L6 35ZM2 36L2 39L5 39L5 36Z" fill="#000000"/></g></g></svg>
