<?xml version="1.0" encoding="UTF-8"?>
<svg xmlns="http://www.w3.org/2000/svg" version="1.1" width="200" height="200" viewBox="0 0 200 200"><rect x="0" y="0" width="200" height="200" fill="#ffffff"/><g transform="scale(4.878)"><g transform="translate(0,0)"><path fill-rule="evenodd" d="M8 0L8 3L9 3L9 1L10 1L10 0ZM11 0L11 1L12 1L12 2L10 2L10 4L13 4L13 5L14 5L14 4L15 4L15 5L16 5L16 7L15 7L15 6L14 6L14 7L13 7L13 6L12 6L12 7L11 7L11 5L10 5L10 7L11 7L11 8L10 8L10 9L9 9L9 5L8 5L8 10L6 10L6 11L3 11L3 10L5 10L5 8L2 8L2 11L0 11L0 12L2 12L2 13L0 13L0 14L4 14L4 15L3 15L3 16L2 16L2 17L3 17L3 18L2 18L2 19L3 19L3 20L1 20L1 17L0 17L0 20L1 20L1 21L0 21L0 22L1 22L1 21L4 21L4 23L3 23L3 24L2 24L2 26L1 26L1 23L0 23L0 28L1 28L1 29L0 29L0 33L1 33L1 30L3 30L3 32L4 32L4 33L8 33L8 34L9 34L9 35L10 35L10 36L8 36L8 39L9 39L9 41L10 41L10 40L11 40L11 41L15 41L15 40L16 40L16 39L17 39L17 40L18 40L18 41L19 41L19 40L18 40L18 39L17 39L17 38L18 38L18 37L20 37L20 36L21 36L21 37L22 37L22 38L21 38L21 39L20 39L20 38L19 38L19 39L20 39L20 40L21 40L21 39L22 39L22 40L23 40L23 37L22 37L22 35L20 35L20 33L19 33L19 34L18 34L18 32L19 32L19 30L20 30L20 28L21 28L21 31L20 31L20 32L21 32L21 33L22 33L22 34L23 34L23 32L24 32L24 34L26 34L26 33L29 33L29 35L28 35L28 34L27 34L27 37L28 37L28 38L25 38L25 39L24 39L24 40L26 40L26 41L28 41L28 39L29 39L29 37L28 37L28 36L32 36L32 38L34 38L34 39L35 39L35 40L36 40L36 39L37 39L37 40L40 40L40 38L41 38L41 37L39 37L39 36L37 36L37 33L39 33L39 34L38 34L38 35L40 35L40 36L41 36L41 35L40 35L40 34L41 34L41 33L39 33L39 32L41 32L41 31L40 31L40 30L41 30L41 29L40 29L40 28L41 28L41 27L40 27L40 26L41 26L41 23L39 23L39 24L40 24L40 26L39 26L39 25L36 25L36 24L37 24L37 22L38 22L38 21L39 21L39 20L36 20L36 19L35 19L35 17L36 17L36 18L37 18L37 19L38 19L38 18L41 18L41 16L40 16L40 17L39 17L39 16L38 16L38 13L36 13L36 14L35 14L35 15L36 15L36 16L35 16L35 17L34 17L34 16L33 16L33 17L31 17L31 15L30 15L30 16L29 16L29 15L28 15L28 16L29 16L29 17L31 17L31 18L30 18L30 19L31 19L31 20L30 20L30 21L31 21L31 22L29 22L29 21L28 21L28 20L29 20L29 18L27 18L27 19L26 19L26 18L25 18L25 17L26 17L26 15L27 15L27 14L29 14L29 13L30 13L30 14L31 14L31 13L33 13L33 14L32 14L32 15L34 15L34 13L35 13L35 10L37 10L37 11L36 11L36 12L38 12L38 11L40 11L40 10L41 10L41 8L38 8L38 9L40 9L40 10L37 10L37 9L36 9L36 8L32 8L32 7L33 7L33 5L32 5L32 4L33 4L33 2L30 2L30 1L33 1L33 0L29 0L29 1L27 1L27 0L26 0L26 1L27 1L27 2L26 2L26 3L28 3L28 4L29 4L29 3L32 3L32 4L30 4L30 5L32 5L32 7L31 7L31 6L30 6L30 7L31 7L31 8L32 8L32 9L30 9L30 8L29 8L29 5L27 5L27 4L25 4L25 3L24 3L24 2L25 2L25 0L24 0L24 1L23 1L23 4L22 4L22 0L21 0L21 5L23 5L23 4L24 4L24 5L25 5L25 6L24 6L24 7L23 7L23 6L22 6L22 7L23 7L23 8L21 8L21 9L19 9L19 10L22 10L22 11L23 11L23 12L20 12L20 13L19 13L19 12L18 12L18 13L19 13L19 15L18 15L18 14L17 14L17 15L18 15L18 16L16 16L16 15L14 15L14 16L13 16L13 14L12 14L12 12L11 12L11 9L12 9L12 7L13 7L13 10L12 10L12 11L13 11L13 13L15 13L15 12L16 12L16 13L17 13L17 11L18 11L18 10L17 10L17 9L18 9L18 7L19 7L19 4L20 4L20 0L19 0L19 1L18 1L18 0L16 0L16 1L17 1L17 2L14 2L14 1L12 1L12 0ZM12 2L12 3L14 3L14 2ZM17 2L17 3L18 3L18 4L17 4L17 5L18 5L18 4L19 4L19 2ZM17 6L17 7L18 7L18 6ZM20 6L20 7L21 7L21 6ZM25 6L25 9L23 9L23 10L24 10L24 12L23 12L23 13L22 13L22 14L21 14L21 15L19 15L19 16L18 16L18 17L17 17L17 18L18 18L18 19L17 19L17 22L16 22L16 24L15 24L15 21L16 21L16 19L15 19L15 21L13 21L13 20L14 20L14 18L13 18L13 17L12 17L12 16L11 16L11 15L12 15L12 14L11 14L11 13L10 13L10 10L8 10L8 12L9 12L9 13L8 13L8 14L7 14L7 13L5 13L5 12L3 12L3 11L2 11L2 12L3 12L3 13L4 13L4 14L5 14L5 15L6 15L6 16L4 16L4 17L5 17L5 18L4 18L4 20L5 20L5 18L7 18L7 19L6 19L6 20L7 20L7 21L5 21L5 23L4 23L4 25L5 25L5 26L8 26L8 27L9 27L9 28L10 28L10 29L9 29L9 30L10 30L10 32L9 32L9 31L5 31L5 30L4 30L4 32L8 32L8 33L10 33L10 32L11 32L11 33L12 33L12 32L14 32L14 33L13 33L13 34L14 34L14 36L13 36L13 37L14 37L14 38L12 38L12 39L11 39L11 38L10 38L10 37L12 37L12 36L10 36L10 37L9 37L9 38L10 38L10 39L11 39L11 40L12 40L12 39L16 39L16 37L17 37L17 36L19 36L19 35L17 35L17 36L15 36L15 35L16 35L16 32L14 32L14 30L13 30L13 29L15 29L15 26L14 26L14 28L13 28L13 29L11 29L11 28L12 28L12 27L13 27L13 26L12 26L12 27L11 27L11 25L12 25L12 24L13 24L13 23L12 23L12 24L10 24L10 21L9 21L9 18L8 18L8 17L9 17L9 16L8 16L8 17L6 17L6 16L7 16L7 15L8 15L8 14L10 14L10 16L11 16L11 18L12 18L12 21L11 21L11 22L12 22L12 21L13 21L13 22L14 22L14 24L15 24L15 25L16 25L16 28L20 28L20 27L17 27L17 26L20 26L20 25L21 25L21 26L22 26L22 27L21 27L21 28L23 28L23 26L22 26L22 24L23 24L23 25L24 25L24 26L25 26L25 27L26 27L26 26L29 26L29 28L30 28L30 29L28 29L28 30L29 30L29 31L28 31L28 32L30 32L30 33L31 33L31 34L30 34L30 35L31 35L31 34L32 34L32 33L31 33L31 31L30 31L30 29L31 29L31 30L32 30L32 31L33 31L33 32L35 32L35 31L34 31L34 30L35 30L35 29L37 29L37 30L39 30L39 28L40 28L40 27L39 27L39 26L38 26L38 28L36 28L36 27L35 27L35 26L36 26L36 25L35 25L35 24L36 24L36 23L35 23L35 22L36 22L36 21L35 21L35 19L34 19L34 18L31 18L31 19L33 19L33 20L34 20L34 21L32 21L32 20L31 20L31 21L32 21L32 22L31 22L31 25L30 25L30 26L29 26L29 25L26 25L26 26L25 26L25 24L30 24L30 23L27 23L27 22L28 22L28 21L27 21L27 20L28 20L28 19L27 19L27 20L26 20L26 22L25 22L25 20L24 20L24 19L23 19L23 18L21 18L21 19L22 19L22 21L24 21L24 22L25 22L25 23L21 23L21 20L20 20L20 18L19 18L19 16L21 16L21 17L22 17L22 16L23 16L23 17L25 17L25 16L24 16L24 13L25 13L25 14L27 14L27 13L26 13L26 12L27 12L27 10L29 10L29 11L28 11L28 13L29 13L29 12L30 12L30 11L31 11L31 12L33 12L33 13L34 13L34 12L33 12L33 11L34 11L34 10L33 10L33 9L32 9L32 10L30 10L30 9L27 9L27 8L26 8L26 6ZM27 6L27 7L28 7L28 6ZM14 7L14 10L13 10L13 11L14 11L14 12L15 12L15 11L17 11L17 10L15 10L15 7ZM6 8L6 9L7 9L7 8ZM16 8L16 9L17 9L17 8ZM0 9L0 10L1 10L1 9ZM26 9L26 10L25 10L25 11L26 11L26 10L27 10L27 9ZM14 10L14 11L15 11L15 10ZM32 10L32 11L33 11L33 10ZM6 11L6 12L7 12L7 11ZM39 12L39 13L40 13L40 14L39 14L39 15L40 15L40 14L41 14L41 13L40 13L40 12ZM6 14L6 15L7 15L7 14ZM22 14L22 15L21 15L21 16L22 16L22 15L23 15L23 14ZM36 14L36 15L37 15L37 14ZM0 15L0 16L1 16L1 15ZM15 16L15 17L16 17L16 16ZM36 16L36 17L37 17L37 18L38 18L38 16ZM10 19L10 20L11 20L11 19ZM40 20L40 21L41 21L41 20ZM7 21L7 22L6 22L6 23L8 23L8 24L5 24L5 25L8 25L8 26L10 26L10 24L9 24L9 23L8 23L8 22L9 22L9 21ZM19 21L19 22L20 22L20 21ZM34 21L34 22L32 22L32 25L31 25L31 26L32 26L32 25L34 25L34 26L33 26L33 27L32 27L32 28L33 28L33 29L32 29L32 30L33 30L33 29L34 29L34 28L33 28L33 27L34 27L34 26L35 26L35 25L34 25L34 24L35 24L35 23L34 23L34 22L35 22L35 21ZM33 23L33 24L34 24L34 23ZM8 24L8 25L9 25L9 24ZM16 24L16 25L17 25L17 24ZM18 24L18 25L19 25L19 24ZM4 27L4 28L2 28L2 29L4 29L4 28L5 28L5 29L6 29L6 30L7 30L7 29L8 29L8 28L7 28L7 27L6 27L6 28L5 28L5 27ZM10 27L10 28L11 28L11 27ZM6 28L6 29L7 29L7 28ZM24 28L24 29L25 29L25 30L26 30L26 31L24 31L24 30L22 30L22 31L21 31L21 32L23 32L23 31L24 31L24 32L25 32L25 33L26 33L26 31L27 31L27 30L26 30L26 29L27 29L27 28ZM16 29L16 30L15 30L15 31L17 31L17 32L18 32L18 29ZM12 30L12 31L13 31L13 30ZM37 31L37 32L39 32L39 31ZM33 33L33 36L36 36L36 33ZM34 34L34 35L35 35L35 34ZM25 35L25 36L24 36L24 37L26 37L26 35ZM14 36L14 37L15 37L15 36ZM30 37L30 38L31 38L31 37ZM34 37L34 38L36 38L36 37ZM37 38L37 39L38 39L38 38ZM26 39L26 40L27 40L27 39ZM31 39L31 40L33 40L33 41L34 41L34 40L33 40L33 39ZM29 40L29 41L30 41L30 40ZM0 0L0 7L7 7L7 0ZM1 1L1 6L6 6L6 1ZM2 2L2 5L5 5L5 2ZM34 0L34 7L41 7L41 0ZM35 1L35 6L40 6L40 1ZM36 2L36 5L39 5L39 2ZM0 34L0 41L7 41L7 34ZM1 35L1 40L6 40L6 35ZM2 36L2 39L5 39L5 36Z" fill="#000000"/></g></g></svg>
