<?xml version="1.0" encoding="UTF-8"?>
<svg xmlns="http://www.w3.org/2000/svg" version="1.1" width="200" height="200" viewBox="0 0 200 200"><rect x="0" y="0" width="200" height="200" fill="#ffffff"/><g transform="scale(6.897)"><g transform="translate(0,0)"><path fill-rule="evenodd" d="M9 0L9 1L8 1L8 7L9 7L9 8L5 8L5 9L4 9L4 10L3 10L3 8L2 8L2 10L1 10L1 9L0 9L0 10L1 10L1 11L2 11L2 13L3 13L3 14L1 14L1 12L0 12L0 16L3 16L3 17L1 17L1 18L0 18L0 19L3 19L3 20L4 20L4 21L5 21L5 20L6 20L6 21L7 21L7 20L6 20L6 19L8 19L8 24L9 24L9 25L10 25L10 26L11 26L11 27L12 27L12 28L10 28L10 27L9 27L9 26L8 26L8 27L9 27L9 29L15 29L15 27L16 27L16 26L17 26L17 27L18 27L18 28L17 28L17 29L19 29L19 27L18 27L18 26L19 26L19 22L17 22L17 20L18 20L18 19L20 19L20 18L19 18L19 17L20 17L20 16L18 16L18 15L17 15L17 14L15 14L15 12L17 12L17 13L18 13L18 11L19 11L19 12L20 12L20 13L21 13L21 12L22 12L22 14L19 14L19 15L21 15L21 19L22 19L22 20L19 20L19 21L20 21L20 25L25 25L25 23L26 23L26 21L27 21L27 22L28 22L28 23L27 23L27 24L26 24L26 26L25 26L25 27L26 27L26 26L27 26L27 27L28 27L28 28L26 28L26 29L29 29L29 26L27 26L27 24L28 24L28 25L29 25L29 24L28 24L28 23L29 23L29 21L27 21L27 19L26 19L26 18L28 18L28 19L29 19L29 18L28 18L28 17L29 17L29 16L27 16L27 17L25 17L25 16L22 16L22 15L25 15L25 14L26 14L26 13L29 13L29 12L27 12L27 11L29 11L29 9L28 9L28 8L23 8L23 10L22 10L22 11L21 11L21 9L22 9L22 8L21 8L21 0L19 0L19 1L20 1L20 2L19 2L19 3L20 3L20 5L19 5L19 4L18 4L18 5L15 5L15 2L16 2L16 0L15 0L15 2L14 2L14 1L13 1L13 3L14 3L14 5L12 5L12 3L11 3L11 2L12 2L12 0L11 0L11 2L10 2L10 3L9 3L9 1L10 1L10 0ZM17 0L17 1L18 1L18 0ZM17 2L17 3L18 3L18 2ZM11 5L11 7L10 7L10 6L9 6L9 7L10 7L10 8L9 8L9 9L8 9L8 10L7 10L7 9L6 9L6 10L5 10L5 11L6 11L6 12L7 12L7 13L5 13L5 12L4 12L4 11L3 11L3 10L2 10L2 11L3 11L3 12L4 12L4 13L5 13L5 14L4 14L4 15L5 15L5 14L7 14L7 13L8 13L8 14L9 14L9 15L10 15L10 16L11 16L11 15L10 15L10 14L9 14L9 12L8 12L8 11L9 11L9 10L10 10L10 13L11 13L11 14L12 14L12 16L13 16L13 17L12 17L12 18L14 18L14 19L13 19L13 21L14 21L14 19L16 19L16 20L15 20L15 21L16 21L16 20L17 20L17 19L18 19L18 18L17 18L17 19L16 19L16 18L15 18L15 17L16 17L16 16L17 16L17 17L18 17L18 16L17 16L17 15L16 15L16 16L15 16L15 15L13 15L13 14L12 14L12 13L14 13L14 12L12 12L12 13L11 13L11 11L12 11L12 10L13 10L13 11L14 11L14 10L15 10L15 11L16 11L16 10L19 10L19 11L20 11L20 8L19 8L19 7L20 7L20 6L19 6L19 7L18 7L18 6L17 6L17 7L16 7L16 6L15 6L15 5L14 5L14 6L13 6L13 9L12 9L12 5ZM14 6L14 9L15 9L15 6ZM17 7L17 9L18 9L18 7ZM10 8L10 9L11 9L11 8ZM25 9L25 10L24 10L24 11L26 11L26 9ZM27 9L27 10L28 10L28 9ZM6 10L6 11L7 11L7 10ZM23 12L23 14L25 14L25 13L24 13L24 12ZM27 14L27 15L29 15L29 14ZM6 15L6 16L7 16L7 17L5 17L5 18L7 18L7 17L9 17L9 16L7 16L7 15ZM14 16L14 17L15 17L15 16ZM3 17L3 18L4 18L4 17ZM10 17L10 19L11 19L11 20L10 20L10 21L11 21L11 24L10 24L10 25L11 25L11 24L12 24L12 25L13 25L13 26L14 26L14 24L13 24L13 23L12 23L12 21L11 21L11 20L12 20L12 19L11 19L11 17ZM22 17L22 18L25 18L25 17ZM8 18L8 19L9 19L9 18ZM23 19L23 20L24 20L24 19ZM25 19L25 20L26 20L26 19ZM0 20L0 21L2 21L2 20ZM21 21L21 24L24 24L24 21ZM9 22L9 23L10 23L10 22ZM14 22L14 23L16 23L16 24L15 24L15 26L16 26L16 24L18 24L18 23L17 23L17 22ZM22 22L22 23L23 23L23 22ZM21 26L21 29L22 29L22 28L24 28L24 29L25 29L25 28L24 28L24 26L23 26L23 27L22 27L22 26ZM0 0L0 7L7 7L7 0ZM1 1L1 6L6 6L6 1ZM2 2L2 5L5 5L5 2ZM22 0L22 7L29 7L29 0ZM23 1L23 6L28 6L28 1ZM24 2L24 5L27 5L27 2ZM0 22L0 29L7 29L7 22ZM1 23L1 28L6 28L6 23ZM2 24L2 27L5 27L5 24Z" fill="#000000"/></g></g></svg>
