<?xml version="1.0" encoding="UTF-8"?>
<svg xmlns="http://www.w3.org/2000/svg" version="1.1" width="200" height="200" viewBox="0 0 200 200"><rect x="0" y="0" width="200" height="200" fill="#ffffff"/><g transform="scale(6.897)"><g transform="translate(0,0)"><path fill-rule="evenodd" d="M8 0L8 3L10 3L10 4L9 4L9 5L8 5L8 9L9 9L9 11L7 11L7 10L6 10L6 9L7 9L7 8L6 8L6 9L5 9L5 8L2 8L2 9L1 9L1 10L4 10L4 11L5 11L5 12L4 12L4 13L5 13L5 12L6 12L6 13L7 13L7 12L8 12L8 13L11 13L11 15L7 15L7 14L6 14L6 15L7 15L7 16L5 16L5 15L4 15L4 18L3 18L3 17L2 17L2 15L1 15L1 17L0 17L0 21L1 21L1 18L3 18L3 19L2 19L2 20L3 20L3 21L8 21L8 22L9 22L9 23L10 23L10 24L11 24L11 26L10 26L10 25L9 25L9 24L8 24L8 27L9 27L9 28L10 28L10 29L12 29L12 28L13 28L13 29L15 29L15 28L17 28L17 27L18 27L18 29L26 29L26 27L27 27L27 29L28 29L28 28L29 28L29 27L28 27L28 25L26 25L26 24L25 24L25 22L26 22L26 23L27 23L27 22L26 22L26 21L25 21L25 20L23 20L23 19L22 19L22 18L20 18L20 19L21 19L21 20L20 20L20 25L19 25L19 22L18 22L18 23L16 23L16 25L15 25L15 24L14 24L14 23L13 23L13 22L14 22L14 21L15 21L15 20L16 20L16 22L17 22L17 20L16 20L16 19L17 19L17 18L19 18L19 17L16 17L16 16L17 16L17 15L16 15L16 14L15 14L15 12L14 12L14 10L16 10L16 11L17 11L17 13L20 13L20 12L21 12L21 11L20 11L20 10L22 10L22 9L23 9L23 10L24 10L24 8L21 8L21 9L20 9L20 7L21 7L21 5L20 5L20 4L21 4L21 3L20 3L20 4L19 4L19 3L18 3L18 4L17 4L17 1L16 1L16 0L15 0L15 1L16 1L16 4L15 4L15 2L14 2L14 5L13 5L13 6L12 6L12 10L11 10L11 8L10 8L10 7L11 7L11 6L10 6L10 4L11 4L11 5L12 5L12 4L13 4L13 3L12 3L12 4L11 4L11 2L13 2L13 1L14 1L14 0L12 0L12 1L10 1L10 0ZM9 1L9 2L10 2L10 1ZM18 1L18 2L19 2L19 1ZM20 1L20 2L21 2L21 1ZM16 4L16 5L14 5L14 6L13 6L13 7L14 7L14 8L16 8L16 6L17 6L17 7L18 7L18 6L19 6L19 7L20 7L20 6L19 6L19 5L18 5L18 6L17 6L17 4ZM9 6L9 7L10 7L10 6ZM14 6L14 7L15 7L15 6ZM9 8L9 9L10 9L10 8ZM17 8L17 9L19 9L19 10L20 10L20 9L19 9L19 8ZM26 8L26 9L25 9L25 12L24 12L24 11L22 11L22 12L23 12L23 13L21 13L21 15L22 15L22 14L23 14L23 13L24 13L24 19L26 19L26 20L28 20L28 22L29 22L29 20L28 20L28 19L27 19L27 17L28 17L28 16L25 16L25 15L28 15L28 10L29 10L29 8ZM10 10L10 11L9 11L9 12L11 12L11 13L12 13L12 16L11 16L11 20L8 20L8 21L13 21L13 20L15 20L15 18L16 18L16 17L15 17L15 16L16 16L16 15L15 15L15 14L14 14L14 13L13 13L13 10L12 10L12 12L11 12L11 10ZM0 11L0 12L1 12L1 13L0 13L0 14L2 14L2 12L3 12L3 11ZM6 11L6 12L7 12L7 11ZM18 11L18 12L19 12L19 11ZM25 12L25 13L26 13L26 14L27 14L27 12ZM13 14L13 16L15 16L15 15L14 15L14 14ZM7 16L7 17L5 17L5 18L4 18L4 19L3 19L3 20L4 20L4 19L6 19L6 20L7 20L7 19L6 19L6 18L7 18L7 17L9 17L9 18L8 18L8 19L9 19L9 18L10 18L10 17L9 17L9 16ZM20 16L20 17L22 17L22 16ZM12 17L12 19L13 19L13 17ZM18 19L18 20L19 20L19 19ZM21 21L21 24L24 24L24 21ZM11 22L11 24L12 24L12 26L15 26L15 27L14 27L14 28L15 28L15 27L17 27L17 26L18 26L18 27L19 27L19 28L22 28L22 27L21 27L21 26L20 26L20 27L19 27L19 26L18 26L18 24L17 24L17 26L15 26L15 25L13 25L13 23L12 23L12 22ZM22 22L22 23L23 23L23 22ZM22 25L22 26L23 26L23 27L25 27L25 26L26 26L26 25L25 25L25 26L24 26L24 25ZM9 26L9 27L10 27L10 28L12 28L12 27L10 27L10 26ZM0 0L0 7L7 7L7 0ZM1 1L1 6L6 6L6 1ZM2 2L2 5L5 5L5 2ZM22 0L22 7L29 7L29 0ZM23 1L23 6L28 6L28 1ZM24 2L24 5L27 5L27 2ZM0 22L0 29L7 29L7 22ZM1 23L1 28L6 28L6 23ZM2 24L2 27L5 27L5 24Z" fill="#000000"/></g></g></svg>
