<?xml version="1.0" encoding="UTF-8"?>
<svg xmlns="http://www.w3.org/2000/svg" version="1.1" width="200" height="200" viewBox="0 0 200 200"><rect x="0" y="0" width="200" height="200" fill="#ffffff"/><g transform="scale(6.897)"><g transform="translate(0,0)"><path fill-rule="evenodd" d="M9 0L9 1L8 1L8 7L9 7L9 5L11 5L11 6L10 6L10 7L11 7L11 8L12 8L12 7L13 7L13 6L12 6L12 5L11 5L11 4L13 4L13 5L14 5L14 4L15 4L15 6L14 6L14 7L15 7L15 6L16 6L16 7L17 7L17 11L16 11L16 9L15 9L15 12L13 12L13 10L12 10L12 13L14 13L14 14L13 14L13 15L12 15L12 14L11 14L11 13L10 13L10 14L11 14L11 15L9 15L9 16L8 16L8 15L7 15L7 14L5 14L5 13L8 13L8 14L9 14L9 12L10 12L10 11L9 11L9 10L8 10L8 9L10 9L10 8L5 8L5 10L4 10L4 9L3 9L3 8L2 8L2 9L1 9L1 12L0 12L0 13L1 13L1 14L2 14L2 13L1 13L1 12L3 12L3 13L4 13L4 14L5 14L5 16L6 16L6 17L7 17L7 18L6 18L6 19L7 19L7 18L9 18L9 16L13 16L13 17L12 17L12 18L14 18L14 20L15 20L15 21L16 21L16 20L15 20L15 19L16 19L16 17L17 17L17 16L19 16L19 17L18 17L18 19L17 19L17 20L18 20L18 21L20 21L20 22L19 22L19 23L20 23L20 24L19 24L19 26L18 26L18 27L17 27L17 28L16 28L16 25L15 25L15 23L14 23L14 21L11 21L11 20L13 20L13 19L11 19L11 17L10 17L10 19L11 19L11 20L10 20L10 21L9 21L9 20L8 20L8 24L9 24L9 25L11 25L11 27L10 27L10 28L9 28L9 29L10 29L10 28L11 28L11 29L12 29L12 28L14 28L14 27L15 27L15 28L16 28L16 29L17 29L17 28L18 28L18 29L19 29L19 28L18 28L18 27L19 27L19 26L20 26L20 27L21 27L21 29L22 29L22 28L24 28L24 29L26 29L26 28L24 28L24 26L23 26L23 27L22 27L22 26L21 26L21 25L25 25L25 26L26 26L26 25L28 25L28 24L26 24L26 25L25 25L25 23L26 23L26 21L27 21L27 20L26 20L26 19L27 19L27 18L28 18L28 19L29 19L29 18L28 18L28 17L29 17L29 16L27 16L27 17L25 17L25 16L22 16L22 15L25 15L25 14L26 14L26 13L29 13L29 12L27 12L27 11L29 11L29 9L28 9L28 8L23 8L23 10L22 10L22 11L21 11L21 9L22 9L22 8L21 8L21 0L19 0L19 1L20 1L20 2L19 2L19 3L20 3L20 5L19 5L19 4L18 4L18 5L16 5L16 3L18 3L18 2L16 2L16 0L13 0L13 1L12 1L12 0ZM17 0L17 1L18 1L18 0ZM9 1L9 2L10 2L10 3L13 3L13 4L14 4L14 3L16 3L16 2L15 2L15 1L13 1L13 2L11 2L11 1ZM11 6L11 7L12 7L12 6ZM17 6L17 7L18 7L18 11L17 11L17 12L16 12L16 13L15 13L15 14L14 14L14 15L13 15L13 16L14 16L14 18L15 18L15 17L16 17L16 16L14 16L14 15L18 15L18 11L20 11L20 8L19 8L19 7L20 7L20 6L19 6L19 7L18 7L18 6ZM6 9L6 10L5 10L5 12L4 12L4 10L3 10L3 12L4 12L4 13L5 13L5 12L9 12L9 11L6 11L6 10L7 10L7 9ZM25 9L25 10L24 10L24 11L27 11L27 10L28 10L28 9ZM19 12L19 14L22 14L22 12L21 12L21 13L20 13L20 12ZM23 12L23 14L25 14L25 13L24 13L24 12ZM27 14L27 15L29 15L29 14ZM0 15L0 16L1 16L1 17L2 17L2 16L3 16L3 17L4 17L4 16L3 16L3 15ZM6 15L6 16L7 16L7 17L8 17L8 16L7 16L7 15ZM19 15L19 16L20 16L20 17L19 17L19 18L20 18L20 19L19 19L19 20L22 20L22 19L21 19L21 15ZM22 17L22 18L25 18L25 19L23 19L23 20L25 20L25 19L26 19L26 18L25 18L25 17ZM0 18L0 19L2 19L2 20L0 20L0 21L5 21L5 18ZM3 19L3 20L4 20L4 19ZM6 20L6 21L7 21L7 20ZM21 21L21 24L24 24L24 21ZM9 22L9 24L11 24L11 25L13 25L13 26L12 26L12 27L14 27L14 26L15 26L15 25L13 25L13 24L14 24L14 23L13 23L13 24L11 24L11 23L12 23L12 22L11 22L11 23L10 23L10 22ZM16 22L16 23L17 23L17 24L18 24L18 23L17 23L17 22ZM22 22L22 23L23 23L23 22ZM28 22L28 23L29 23L29 22ZM8 26L8 27L9 27L9 26ZM27 26L27 27L28 27L28 28L27 28L27 29L29 29L29 26ZM0 0L0 7L7 7L7 0ZM1 1L1 6L6 6L6 1ZM2 2L2 5L5 5L5 2ZM22 0L22 7L29 7L29 0ZM23 1L23 6L28 6L28 1ZM24 2L24 5L27 5L27 2ZM0 22L0 29L7 29L7 22ZM1 23L1 28L6 28L6 23ZM2 24L2 27L5 27L5 24Z" fill="#000000"/></g></g></svg>
