<?xml version="1.0" encoding="UTF-8"?>
<svg xmlns="http://www.w3.org/2000/svg" version="1.1" width="200" height="200" viewBox="0 0 200 200"><rect x="0" y="0" width="200" height="200" fill="#ffffff"/><g transform="scale(4.878)"><g transform="translate(0,0)"><path fill-rule="evenodd" d="M8 0L8 3L10 3L10 4L11 4L11 5L12 5L12 7L11 7L11 6L10 6L10 7L9 7L9 5L8 5L8 9L7 9L7 8L6 8L6 9L7 9L7 10L6 10L6 11L7 11L7 12L5 12L5 10L4 10L4 9L5 9L5 8L2 8L2 9L0 9L0 10L1 10L1 11L0 11L0 13L1 13L1 11L3 11L3 12L2 12L2 13L3 13L3 14L4 14L4 15L7 15L7 16L5 16L5 17L4 17L4 16L3 16L3 15L2 15L2 14L1 14L1 15L2 15L2 16L0 16L0 17L2 17L2 18L1 18L1 19L0 19L0 20L2 20L2 22L1 22L1 24L0 24L0 25L2 25L2 24L3 24L3 23L4 23L4 24L5 24L5 23L7 23L7 22L6 22L6 21L7 21L7 20L6 20L6 21L5 21L5 23L4 23L4 22L3 22L3 19L2 19L2 18L4 18L4 19L7 19L7 18L6 18L6 17L9 17L9 16L10 16L10 18L9 18L9 19L8 19L8 20L10 20L10 19L11 19L11 20L12 20L12 21L14 21L14 20L16 20L16 21L15 21L15 23L13 23L13 22L12 22L12 24L11 24L11 25L10 25L10 24L9 24L9 23L8 23L8 24L9 24L9 25L10 25L10 26L11 26L11 27L7 27L7 26L8 26L8 25L7 25L7 24L6 24L6 25L7 25L7 26L5 26L5 25L4 25L4 27L2 27L2 28L1 28L1 29L0 29L0 33L1 33L1 30L2 30L2 31L4 31L4 33L5 33L5 31L7 31L7 32L6 32L6 33L7 33L7 32L8 32L8 34L11 34L11 36L10 36L10 35L9 35L9 36L8 36L8 39L9 39L9 40L13 40L13 41L14 41L14 40L13 40L13 38L16 38L16 37L17 37L17 39L15 39L15 40L16 40L16 41L17 41L17 40L18 40L18 41L19 41L19 40L20 40L20 41L22 41L22 40L24 40L24 41L26 41L26 40L28 40L28 41L31 41L31 40L33 40L33 41L34 41L34 40L33 40L33 39L35 39L35 40L36 40L36 39L38 39L38 37L39 37L39 40L40 40L40 38L41 38L41 37L40 37L40 36L41 36L41 35L40 35L40 34L41 34L41 33L39 33L39 32L37 32L37 31L38 31L38 29L36 29L36 28L38 28L38 26L39 26L39 27L40 27L40 26L41 26L41 23L40 23L40 26L39 26L39 24L37 24L37 25L34 25L34 24L36 24L36 23L33 23L33 22L32 22L32 21L34 21L34 22L36 22L36 21L37 21L37 23L38 23L38 21L39 21L39 20L36 20L36 19L35 19L35 17L36 17L36 18L38 18L38 19L39 19L39 18L41 18L41 16L40 16L40 17L39 17L39 16L38 16L38 15L39 15L39 14L41 14L41 13L39 13L39 14L37 14L37 13L36 13L36 16L35 16L35 17L34 17L34 16L33 16L33 15L34 15L34 14L33 14L33 13L34 13L34 12L33 12L33 11L34 11L34 10L35 10L35 11L36 11L36 12L38 12L38 11L39 11L39 12L41 12L41 11L40 11L40 10L41 10L41 8L38 8L38 9L40 9L40 10L37 10L37 9L36 9L36 8L33 8L33 5L32 5L32 4L33 4L33 2L32 2L32 4L31 4L31 3L30 3L30 4L31 4L31 5L32 5L32 7L31 7L31 6L30 6L30 8L29 8L29 6L28 6L28 5L29 5L29 4L28 4L28 5L26 5L26 7L25 7L25 5L23 5L23 4L25 4L25 3L26 3L26 4L27 4L27 3L29 3L29 1L27 1L27 0L24 0L24 1L25 1L25 2L24 2L24 3L23 3L23 4L22 4L22 2L23 2L23 1L17 1L17 2L15 2L15 1L16 1L16 0L15 0L15 1L11 1L11 0L10 0L10 1L9 1L9 0ZM30 0L30 2L31 2L31 1L33 1L33 0ZM10 2L10 3L13 3L13 4L12 4L12 5L13 5L13 7L14 7L14 8L16 8L16 6L17 6L17 9L16 9L16 10L15 10L15 11L17 11L17 12L16 12L16 14L17 14L17 15L15 15L15 14L14 14L14 12L12 12L12 11L10 11L10 12L11 12L11 13L9 13L9 12L8 12L8 13L5 13L5 14L7 14L7 15L8 15L8 16L9 16L9 15L8 15L8 13L9 13L9 14L11 14L11 15L10 15L10 16L12 16L12 17L13 17L13 16L12 16L12 14L11 14L11 13L13 13L13 15L14 15L14 16L15 16L15 17L16 17L16 18L15 18L15 19L16 19L16 18L17 18L17 16L19 16L19 17L18 17L18 18L19 18L19 19L20 19L20 20L21 20L21 21L22 21L22 23L23 23L23 25L22 25L22 24L21 24L21 22L19 22L19 23L18 23L18 25L17 25L17 21L18 21L18 20L17 20L17 21L16 21L16 25L15 25L15 24L14 24L14 25L13 25L13 24L12 24L12 26L14 26L14 27L15 27L15 26L16 26L16 25L17 25L17 26L19 26L19 24L20 24L20 28L19 28L19 29L18 29L18 27L16 27L16 28L15 28L15 29L13 29L13 27L12 27L12 28L11 28L11 29L12 29L12 30L10 30L10 32L9 32L9 33L11 33L11 34L12 34L12 33L13 33L13 34L16 34L16 35L15 35L15 36L14 36L14 37L16 37L16 35L18 35L18 34L19 34L19 36L17 36L17 37L18 37L18 39L19 39L19 36L20 36L20 37L21 37L21 39L20 39L20 40L21 40L21 39L23 39L23 38L25 38L25 39L26 39L26 37L27 37L27 38L29 38L29 39L28 39L28 40L31 40L31 39L33 39L33 38L36 38L36 37L32 37L32 36L31 36L31 35L30 35L30 34L32 34L32 32L35 32L35 31L34 31L34 30L36 30L36 29L34 29L34 28L33 28L33 29L32 29L32 27L34 27L34 25L33 25L33 24L31 24L31 23L32 23L32 22L31 22L31 23L30 23L30 21L32 21L32 20L34 20L34 21L36 21L36 20L35 20L35 19L34 19L34 18L33 18L33 17L32 17L32 18L30 18L30 19L32 19L32 20L28 20L28 21L27 21L27 19L25 19L25 18L23 18L23 17L26 17L26 18L29 18L29 16L30 16L30 17L31 17L31 14L32 14L32 15L33 15L33 14L32 14L32 13L33 13L33 12L32 12L32 11L33 11L33 10L34 10L34 9L32 9L32 8L30 8L30 9L26 9L26 8L25 8L25 7L24 7L24 6L23 6L23 8L20 8L20 11L19 11L19 10L18 10L18 8L19 8L19 7L20 7L20 5L22 5L22 4L21 4L21 2L19 2L19 3L17 3L17 4L20 4L20 5L19 5L19 7L18 7L18 5L16 5L16 4L15 4L15 2L14 2L14 3L13 3L13 2ZM26 2L26 3L27 3L27 2ZM13 4L13 5L14 5L14 4ZM14 6L14 7L15 7L15 6ZM21 6L21 7L22 7L22 6ZM27 6L27 7L28 7L28 6ZM10 7L10 9L9 9L9 10L8 10L8 11L9 11L9 10L12 10L12 9L13 9L13 8L12 8L12 9L11 9L11 7ZM2 9L2 10L3 10L3 9ZM23 9L23 10L22 10L22 11L20 11L20 12L19 12L19 11L18 11L18 12L17 12L17 13L19 13L19 14L18 14L18 15L20 15L20 16L21 16L21 17L19 17L19 18L20 18L20 19L21 19L21 17L22 17L22 16L23 16L23 15L24 15L24 16L26 16L26 17L28 17L28 15L29 15L29 14L28 14L28 13L30 13L30 14L31 14L31 10L32 10L32 9L30 9L30 12L27 12L27 11L29 11L29 10L27 10L27 11L25 11L25 9ZM35 9L35 10L36 10L36 11L37 11L37 10L36 10L36 9ZM22 12L22 13L21 13L21 14L20 14L20 15L22 15L22 13L23 13L23 12ZM25 13L25 14L24 14L24 15L25 15L25 14L26 14L26 15L27 15L27 14L26 14L26 13ZM2 16L2 17L3 17L3 16ZM36 16L36 17L38 17L38 18L39 18L39 17L38 17L38 16ZM11 18L11 19L13 19L13 20L14 20L14 18ZM22 18L22 20L23 20L23 22L24 22L24 21L25 21L25 24L24 24L24 25L23 25L23 26L22 26L22 25L21 25L21 26L22 26L22 27L21 27L21 28L23 28L23 26L24 26L24 30L23 30L23 29L21 29L21 32L24 32L24 33L22 33L22 34L21 34L21 33L20 33L20 36L22 36L22 38L23 38L23 37L24 37L24 36L26 36L26 35L28 35L28 36L27 36L27 37L29 37L29 33L31 33L31 31L30 31L30 32L29 32L29 31L28 31L28 32L29 32L29 33L28 33L28 34L27 34L27 31L26 31L26 30L29 30L29 29L31 29L31 28L29 28L29 29L28 29L28 28L27 28L27 27L29 27L29 26L30 26L30 25L31 25L31 26L33 26L33 25L31 25L31 24L29 24L29 23L28 23L28 22L29 22L29 21L28 21L28 22L27 22L27 21L25 21L25 20L24 20L24 19L23 19L23 18ZM32 18L32 19L33 19L33 18ZM40 20L40 21L41 21L41 20ZM9 21L9 22L10 22L10 23L11 23L11 22L10 22L10 21ZM14 25L14 26L15 26L15 25ZM26 25L26 26L29 26L29 25ZM6 27L6 28L7 28L7 27ZM25 28L25 29L26 29L26 28ZM39 28L39 31L40 31L40 30L41 30L41 29L40 29L40 28ZM2 29L2 30L4 30L4 31L5 31L5 30L7 30L7 31L9 31L9 29L8 29L8 30L7 30L7 29ZM16 29L16 30L17 30L17 29ZM19 29L19 32L18 32L18 33L17 33L17 32L16 32L16 31L14 31L14 30L13 30L13 31L14 31L14 32L13 32L13 33L14 33L14 32L15 32L15 33L16 33L16 34L18 34L18 33L19 33L19 32L20 32L20 29ZM33 29L33 30L32 30L32 31L33 31L33 30L34 30L34 29ZM22 30L22 31L23 31L23 30ZM11 31L11 33L12 33L12 31ZM24 31L24 32L25 32L25 33L24 33L24 34L26 34L26 31ZM2 32L2 33L3 33L3 32ZM33 33L33 36L36 36L36 33ZM38 33L38 34L37 34L37 36L39 36L39 33ZM34 34L34 35L35 35L35 34ZM12 35L12 36L11 36L11 37L13 37L13 35ZM23 35L23 36L24 36L24 35ZM9 36L9 37L10 37L10 36ZM30 36L30 37L31 37L31 38L32 38L32 37L31 37L31 36ZM11 38L11 39L12 39L12 38ZM0 0L0 7L7 7L7 0ZM1 1L1 6L6 6L6 1ZM2 2L2 5L5 5L5 2ZM34 0L34 7L41 7L41 0ZM35 1L35 6L40 6L40 1ZM36 2L36 5L39 5L39 2ZM0 34L0 41L7 41L7 34ZM1 35L1 40L6 40L6 35ZM2 36L2 39L5 39L5 36Z" fill="#000000"/></g></g></svg>
