<?xml version="1.0" encoding="UTF-8"?>
<svg xmlns="http://www.w3.org/2000/svg" version="1.1" width="200" height="200" viewBox="0 0 200 200"><rect x="0" y="0" width="200" height="200" fill="#ffffff"/><g transform="scale(6.897)"><g transform="translate(0,0)"><path fill-rule="evenodd" d="M11 0L11 2L10 2L10 1L9 1L9 4L8 4L8 5L9 5L9 4L10 4L10 5L11 5L11 6L10 6L10 7L9 7L9 6L8 6L8 8L6 8L6 9L4 9L4 8L2 8L2 9L4 9L4 10L6 10L6 11L8 11L8 10L9 10L9 12L6 12L6 13L8 13L8 14L6 14L6 15L8 15L8 16L3 16L3 14L5 14L5 13L4 13L4 12L5 12L5 11L3 11L3 10L1 10L1 11L0 11L0 13L1 13L1 14L0 14L0 15L1 15L1 16L0 16L0 17L1 17L1 18L0 18L0 19L1 19L1 18L2 18L2 20L1 20L1 21L4 21L4 20L5 20L5 21L8 21L8 23L11 23L11 24L9 24L9 25L8 25L8 27L9 27L9 29L11 29L11 28L12 28L12 29L14 29L14 28L12 28L12 26L13 26L13 27L14 27L14 26L16 26L16 27L17 27L17 28L15 28L15 29L20 29L20 28L18 28L18 25L19 25L19 26L20 26L20 25L23 25L23 26L24 26L24 27L22 27L22 29L23 29L23 28L25 28L25 26L24 26L24 25L26 25L26 27L27 27L27 28L26 28L26 29L27 29L27 28L29 28L29 26L28 26L28 27L27 27L27 25L28 25L28 24L29 24L29 21L28 21L28 20L27 20L27 18L29 18L29 17L26 17L26 16L25 16L25 15L24 15L24 16L23 16L23 17L21 17L21 18L20 18L20 17L19 17L19 18L20 18L20 20L19 20L19 21L18 21L18 20L17 20L17 19L18 19L18 18L17 18L17 16L18 16L18 14L17 14L17 13L20 13L20 14L19 14L19 15L20 15L20 14L21 14L21 13L20 13L20 12L22 12L22 9L23 9L23 13L22 13L22 15L23 15L23 14L24 14L24 13L25 13L25 14L26 14L26 15L27 15L27 16L28 16L28 15L29 15L29 14L28 14L28 12L29 12L29 11L28 11L28 12L27 12L27 11L26 11L26 10L24 10L24 9L25 9L25 8L24 8L24 9L23 9L23 8L21 8L21 9L20 9L20 7L21 7L21 3L20 3L20 2L18 2L18 1L17 1L17 2L18 2L18 5L17 5L17 3L16 3L16 2L15 2L15 1L16 1L16 0L15 0L15 1L14 1L14 2L13 2L13 0ZM14 2L14 6L13 6L13 7L14 7L14 8L16 8L16 9L13 9L13 8L12 8L12 9L11 9L11 11L12 11L12 12L9 12L9 13L10 13L10 14L8 14L8 15L9 15L9 16L8 16L8 18L7 18L7 17L3 17L3 16L2 16L2 17L3 17L3 20L4 20L4 18L7 18L7 19L6 19L6 20L8 20L8 21L9 21L9 20L11 20L11 21L12 21L12 20L13 20L13 22L11 22L11 23L12 23L12 25L9 25L9 27L10 27L10 28L11 28L11 27L10 27L10 26L12 26L12 25L16 25L16 26L17 26L17 25L18 25L18 21L17 21L17 20L16 20L16 19L17 19L17 18L16 18L16 13L17 13L17 11L16 11L16 9L17 9L17 10L18 10L18 8L19 8L19 7L20 7L20 5L19 5L19 7L18 7L18 6L17 6L17 5L16 5L16 6L15 6L15 4L16 4L16 3L15 3L15 2ZM12 3L12 4L13 4L13 3ZM19 3L19 4L20 4L20 3ZM11 6L11 7L12 7L12 6ZM14 6L14 7L15 7L15 6ZM16 6L16 7L17 7L17 6ZM6 9L6 10L7 10L7 9ZM9 9L9 10L10 10L10 9ZM19 9L19 10L20 10L20 9ZM27 9L27 10L29 10L29 9ZM1 11L1 13L2 13L2 14L1 14L1 15L2 15L2 14L3 14L3 13L2 13L2 11ZM14 11L14 13L13 13L13 12L12 12L12 13L13 13L13 14L11 14L11 16L9 16L9 17L11 17L11 18L13 18L13 17L14 17L14 18L15 18L15 19L13 19L13 20L14 20L14 21L15 21L15 22L14 22L14 23L13 23L13 24L14 24L14 23L15 23L15 24L16 24L16 25L17 25L17 24L16 24L16 23L17 23L17 21L15 21L15 19L16 19L16 18L15 18L15 16L14 16L14 15L15 15L15 14L14 14L14 13L15 13L15 11ZM19 11L19 12L20 12L20 11ZM25 11L25 13L27 13L27 12L26 12L26 11ZM27 14L27 15L28 15L28 14ZM12 15L12 16L13 16L13 15ZM24 16L24 17L23 17L23 18L22 18L22 19L21 19L21 20L22 20L22 19L24 19L24 20L25 20L25 19L26 19L26 17L25 17L25 16ZM24 18L24 19L25 19L25 18ZM26 20L26 22L25 22L25 23L26 23L26 25L27 25L27 24L28 24L28 21L27 21L27 20ZM19 21L19 23L20 23L20 21ZM21 21L21 24L24 24L24 21ZM15 22L15 23L16 23L16 22ZM22 22L22 23L23 23L23 22ZM19 24L19 25L20 25L20 24ZM0 0L0 7L7 7L7 0ZM1 1L1 6L6 6L6 1ZM2 2L2 5L5 5L5 2ZM22 0L22 7L29 7L29 0ZM23 1L23 6L28 6L28 1ZM24 2L24 5L27 5L27 2ZM0 22L0 29L7 29L7 22ZM1 23L1 28L6 28L6 23ZM2 24L2 27L5 27L5 24Z" fill="#000000"/></g></g></svg>
