<?xml version="1.0" encoding="UTF-8"?>
<svg xmlns="http://www.w3.org/2000/svg" version="1.1" width="200" height="200" viewBox="0 0 200 200"><rect x="0" y="0" width="200" height="200" fill="#ffffff"/><g transform="scale(6.897)"><g transform="translate(0,0)"><path fill-rule="evenodd" d="M8 0L8 2L9 2L9 3L8 3L8 7L9 7L9 6L10 6L10 8L9 8L9 9L8 9L8 10L6 10L6 9L7 9L7 8L6 8L6 9L5 9L5 10L4 10L4 11L7 11L7 12L6 12L6 13L5 13L5 14L4 14L4 12L3 12L3 14L2 14L2 15L3 15L3 16L2 16L2 17L3 17L3 18L2 18L2 20L3 20L3 21L4 21L4 20L3 20L3 19L5 19L5 20L6 20L6 21L8 21L8 22L12 22L12 23L11 23L11 24L9 24L9 25L8 25L8 26L9 26L9 27L10 27L10 28L9 28L9 29L10 29L10 28L11 28L11 27L10 27L10 26L11 26L11 24L12 24L12 25L13 25L13 24L15 24L15 25L16 25L16 26L17 26L17 27L18 27L18 28L16 28L16 27L15 27L15 26L14 26L14 28L13 28L13 27L12 27L12 29L19 29L19 28L20 28L20 27L21 27L21 26L23 26L23 27L22 27L22 29L25 29L25 28L23 28L23 27L24 27L24 25L26 25L26 26L28 26L28 27L27 27L27 28L29 28L29 24L27 24L27 23L28 23L28 22L29 22L29 21L28 21L28 20L29 20L29 18L24 18L24 19L23 19L23 18L22 18L22 19L21 19L21 20L20 20L20 21L19 21L19 19L16 19L16 18L17 18L17 17L19 17L19 18L21 18L21 17L20 17L20 15L19 15L19 14L18 14L18 13L17 13L17 12L15 12L15 13L14 13L14 16L13 16L13 17L12 17L12 16L11 16L11 17L12 17L12 18L13 18L13 19L14 19L14 18L15 18L15 19L16 19L16 21L14 21L14 20L12 20L12 21L8 21L8 20L9 20L9 19L10 19L10 20L11 20L11 18L10 18L10 17L9 17L9 16L6 16L6 17L7 17L7 18L4 18L4 17L3 17L3 16L4 16L4 15L9 15L9 14L10 14L10 15L11 15L11 13L10 13L10 12L8 12L8 11L10 11L10 8L11 8L11 9L12 9L12 8L14 8L14 9L15 9L15 11L18 11L18 8L16 8L16 9L15 9L15 8L14 8L14 7L15 7L15 5L16 5L16 4L17 4L17 6L16 6L16 7L17 7L17 6L18 6L18 7L19 7L19 10L20 10L20 11L22 11L22 12L19 12L19 13L21 13L21 14L22 14L22 15L23 15L23 16L24 16L24 17L25 17L25 16L26 16L26 15L27 15L27 16L28 16L28 15L27 15L27 14L26 14L26 13L27 13L27 12L28 12L28 13L29 13L29 12L28 12L28 11L27 11L27 10L29 10L29 8L27 8L27 10L26 10L26 11L27 11L27 12L26 12L26 13L25 13L25 11L22 11L22 9L20 9L20 7L21 7L21 6L20 6L20 7L19 7L19 4L20 4L20 5L21 5L21 3L19 3L19 4L18 4L18 1L17 1L17 0L16 0L16 1L15 1L15 0L14 0L14 1L13 1L13 0L10 0L10 1L13 1L13 3L12 3L12 2L9 2L9 0ZM20 0L20 2L21 2L21 0ZM14 1L14 3L15 3L15 4L16 4L16 3L17 3L17 1L16 1L16 2L15 2L15 1ZM9 3L9 5L12 5L12 6L11 6L11 8L12 8L12 6L13 6L13 7L14 7L14 6L13 6L13 5L14 5L14 4L12 4L12 3L11 3L11 4L10 4L10 3ZM3 8L3 9L1 9L1 13L2 13L2 10L3 10L3 9L4 9L4 8ZM23 8L23 9L24 9L24 10L25 10L25 9L26 9L26 8ZM12 10L12 11L13 11L13 12L12 12L12 13L13 13L13 12L14 12L14 11L13 11L13 10ZM7 12L7 13L6 13L6 14L7 14L7 13L8 13L8 12ZM15 13L15 14L16 14L16 15L15 15L15 16L14 16L14 17L13 17L13 18L14 18L14 17L17 17L17 16L19 16L19 15L17 15L17 14L16 14L16 13ZM22 13L22 14L23 14L23 13ZM24 13L24 14L25 14L25 13ZM3 14L3 15L4 15L4 14ZM0 15L0 17L1 17L1 15ZM24 15L24 16L25 16L25 15ZM8 17L8 19L9 19L9 17ZM0 18L0 19L1 19L1 18ZM6 19L6 20L7 20L7 19ZM22 19L22 20L23 20L23 19ZM24 19L24 20L25 20L25 22L26 22L26 23L27 23L27 22L28 22L28 21L27 21L27 20L26 20L26 19ZM0 20L0 21L1 21L1 20ZM12 21L12 22L13 22L13 23L12 23L12 24L13 24L13 23L15 23L15 22L14 22L14 21ZM16 21L16 22L17 22L17 21ZM21 21L21 24L24 24L24 21ZM18 22L18 23L17 23L17 24L18 24L18 23L20 23L20 22ZM22 22L22 23L23 23L23 22ZM17 25L17 26L18 26L18 25ZM19 25L19 26L21 26L21 25ZM0 0L0 7L7 7L7 0ZM1 1L1 6L6 6L6 1ZM2 2L2 5L5 5L5 2ZM22 0L22 7L29 7L29 0ZM23 1L23 6L28 6L28 1ZM24 2L24 5L27 5L27 2ZM0 22L0 29L7 29L7 22ZM1 23L1 28L6 28L6 23ZM2 24L2 27L5 27L5 24Z" fill="#000000"/></g></g></svg>
