<?xml version="1.0" encoding="UTF-8"?>
<svg xmlns="http://www.w3.org/2000/svg" version="1.1" width="200" height="200" viewBox="0 0 200 200"><rect x="0" y="0" width="200" height="200" fill="#ffffff"/><g transform="scale(4.878)"><g transform="translate(0,0)"><path fill-rule="evenodd" d="M8 0L8 3L9 3L9 4L10 4L10 5L8 5L8 9L9 9L9 11L10 11L10 10L11 10L11 13L12 13L12 14L11 14L11 15L13 15L13 14L14 14L14 15L15 15L15 14L16 14L16 16L17 16L17 15L20 15L20 16L19 16L19 18L18 18L18 17L17 17L17 18L16 18L16 17L14 17L14 18L16 18L16 20L15 20L15 21L13 21L13 20L12 20L12 19L11 19L11 21L13 21L13 22L12 22L12 23L11 23L11 22L9 22L9 21L8 21L8 22L9 22L9 24L8 24L8 27L9 27L9 28L11 28L11 30L8 30L8 29L7 29L7 28L5 28L5 27L7 27L7 26L6 26L6 25L7 25L7 24L6 24L6 23L7 23L7 22L6 22L6 23L5 23L5 22L4 22L4 21L5 21L5 20L4 20L4 21L2 21L2 22L3 22L3 23L2 23L2 24L1 24L1 23L0 23L0 26L1 26L1 25L4 25L4 24L5 24L5 26L4 26L4 27L0 27L0 28L1 28L1 29L0 29L0 33L1 33L1 29L2 29L2 33L3 33L3 32L4 32L4 31L5 31L5 33L7 33L7 32L6 32L6 31L7 31L7 30L8 30L8 32L9 32L9 33L8 33L8 34L9 34L9 36L8 36L8 39L9 39L9 41L12 41L12 39L11 39L11 40L10 40L10 38L14 38L14 37L15 37L15 38L16 38L16 36L14 36L14 35L10 35L10 32L11 32L11 34L13 34L13 33L14 33L14 34L15 34L15 35L17 35L17 34L18 34L18 35L19 35L19 36L22 36L22 35L19 35L19 34L21 34L21 33L22 33L22 34L23 34L23 32L24 32L24 31L22 31L22 32L21 32L21 33L19 33L19 32L20 32L20 31L21 31L21 30L23 30L23 29L24 29L24 30L25 30L25 29L24 29L24 28L26 28L26 30L29 30L29 31L28 31L28 32L29 32L29 33L28 33L28 34L27 34L27 35L28 35L28 36L26 36L26 34L25 34L25 33L24 33L24 34L25 34L25 35L24 35L24 36L23 36L23 38L22 38L22 40L21 40L21 38L20 38L20 40L19 40L19 38L18 38L18 36L17 36L17 40L19 40L19 41L24 41L24 39L23 39L23 38L24 38L24 36L26 36L26 37L29 37L29 35L28 35L28 34L29 34L29 33L31 33L31 29L30 29L30 28L29 28L29 27L28 27L28 26L30 26L30 25L31 25L31 26L32 26L32 29L33 29L33 30L32 30L32 31L33 31L33 30L34 30L34 31L36 31L36 32L32 32L32 34L30 34L30 35L31 35L31 36L30 36L30 37L31 37L31 36L32 36L32 37L33 37L33 38L32 38L32 39L31 39L31 38L30 38L30 39L31 39L31 40L33 40L33 41L34 41L34 40L33 40L33 38L34 38L34 39L35 39L35 40L36 40L36 39L37 39L37 37L38 37L38 38L39 38L39 40L40 40L40 38L41 38L41 37L40 37L40 36L37 36L37 35L40 35L40 34L41 34L41 33L39 33L39 32L37 32L37 31L40 31L40 32L41 32L41 31L40 31L40 30L41 30L41 29L40 29L40 28L41 28L41 27L40 27L40 26L41 26L41 23L40 23L40 26L39 26L39 24L37 24L37 25L36 25L36 23L35 23L35 25L34 25L34 24L33 24L33 25L31 25L31 24L32 24L32 23L34 23L34 22L36 22L36 21L37 21L37 20L38 20L38 21L39 21L39 20L38 20L38 19L37 19L37 20L36 20L36 19L35 19L35 17L36 17L36 18L38 18L38 17L39 17L39 18L41 18L41 16L40 16L40 17L39 17L39 16L37 16L37 13L36 13L36 14L35 14L35 15L36 15L36 16L35 16L35 17L34 17L34 16L33 16L33 15L34 15L34 14L33 14L33 13L34 13L34 12L33 12L33 11L34 11L34 10L36 10L36 11L37 11L37 12L38 12L38 11L39 11L39 13L40 13L40 14L38 14L38 15L40 15L40 14L41 14L41 13L40 13L40 10L41 10L41 8L38 8L38 9L40 9L40 10L37 10L37 9L36 9L36 8L33 8L33 6L32 6L32 8L33 8L33 9L30 9L30 8L31 8L31 5L33 5L33 4L31 4L31 3L30 3L30 4L31 4L31 5L29 5L29 6L28 6L28 5L27 5L27 6L26 6L26 8L28 8L28 7L29 7L29 6L30 6L30 8L29 8L29 9L28 9L28 10L27 10L27 9L26 9L26 10L27 10L27 11L26 11L26 12L25 12L25 13L26 13L26 14L24 14L24 13L23 13L23 12L24 12L24 10L25 10L25 8L24 8L24 10L23 10L23 9L22 9L22 8L23 8L23 6L22 6L22 8L21 8L21 6L20 6L20 7L19 7L19 6L18 6L18 7L17 7L17 4L18 4L18 3L20 3L20 2L18 2L18 1L20 1L20 0L18 0L18 1L17 1L17 0L16 0L16 1L14 1L14 0L13 0L13 1L11 1L11 0ZM21 0L21 1L22 1L22 0ZM25 0L25 1L23 1L23 2L21 2L21 3L22 3L22 4L19 4L19 5L24 5L24 7L25 7L25 5L26 5L26 4L27 4L27 3L28 3L28 4L29 4L29 1L27 1L27 0ZM30 0L30 2L31 2L31 1L32 1L32 3L33 3L33 0ZM9 1L9 3L10 3L10 4L11 4L11 5L10 5L10 6L9 6L9 8L10 8L10 9L11 9L11 10L13 10L13 12L12 12L12 13L15 13L15 12L16 12L16 10L15 10L15 9L16 9L16 8L17 8L17 9L18 9L18 8L17 8L17 7L16 7L16 6L15 6L15 7L14 7L14 6L13 6L13 8L12 8L12 5L14 5L14 4L16 4L16 2L17 2L17 3L18 3L18 2L17 2L17 1L16 1L16 2L14 2L14 1L13 1L13 2L12 2L12 3L10 3L10 2L11 2L11 1ZM24 2L24 3L23 3L23 4L24 4L24 5L25 5L25 4L26 4L26 3L27 3L27 2L26 2L26 3L25 3L25 2ZM24 3L24 4L25 4L25 3ZM10 6L10 7L11 7L11 6ZM27 6L27 7L28 7L28 6ZM2 8L2 10L0 10L0 11L2 11L2 12L1 12L1 13L0 13L0 17L1 17L1 18L2 18L2 19L3 19L3 18L2 18L2 16L3 16L3 17L4 17L4 18L5 18L5 17L8 17L8 18L6 18L6 19L7 19L7 20L6 20L6 21L7 21L7 20L8 20L8 18L9 18L9 17L10 17L10 18L13 18L13 17L11 17L11 16L10 16L10 15L9 15L9 14L10 14L10 13L9 13L9 12L8 12L8 11L7 11L7 10L6 10L6 9L7 9L7 8L6 8L6 9L5 9L5 8ZM13 8L13 9L14 9L14 8ZM19 8L19 10L20 10L20 11L19 11L19 13L22 13L22 12L23 12L23 10L21 10L21 9L20 9L20 8ZM29 9L29 10L28 10L28 11L27 11L27 12L30 12L30 11L33 11L33 10L30 10L30 9ZM3 10L3 11L4 11L4 12L7 12L7 13L4 13L4 14L5 14L5 15L4 15L4 17L5 17L5 15L6 15L6 16L7 16L7 15L6 15L6 14L7 14L7 13L8 13L8 14L9 14L9 13L8 13L8 12L7 12L7 11L6 11L6 10ZM14 11L14 12L15 12L15 11ZM21 11L21 12L22 12L22 11ZM2 12L2 13L1 13L1 16L2 16L2 13L3 13L3 12ZM31 12L31 14L30 14L30 13L28 13L28 14L30 14L30 15L28 15L28 17L27 17L27 18L28 18L28 19L27 19L27 20L26 20L26 22L22 22L22 21L21 21L21 19L22 19L22 20L24 20L24 21L25 21L25 19L24 19L24 18L23 18L23 17L26 17L26 15L25 15L25 16L22 16L22 14L21 14L21 16L20 16L20 17L22 17L22 18L19 18L19 19L20 19L20 20L19 20L19 21L20 21L20 22L19 22L19 23L18 23L18 24L17 24L17 23L16 23L16 21L15 21L15 24L14 24L14 23L13 23L13 24L12 24L12 25L15 25L15 26L14 26L14 27L16 27L16 29L17 29L17 28L18 28L18 27L19 27L19 28L20 28L20 29L18 29L18 30L16 30L16 32L15 32L15 30L14 30L14 29L13 29L13 28L12 28L12 31L13 31L13 32L12 32L12 33L13 33L13 32L14 32L14 33L16 33L16 32L17 32L17 31L18 31L18 30L21 30L21 28L20 28L20 27L21 27L21 26L20 26L20 23L22 23L22 24L23 24L23 25L24 25L24 24L26 24L26 23L27 23L27 22L28 22L28 24L27 24L27 25L25 25L25 26L28 26L28 25L29 25L29 24L31 24L31 23L32 23L32 22L31 22L31 23L29 23L29 22L30 22L30 21L33 21L33 22L34 22L34 21L36 21L36 20L35 20L35 19L34 19L34 18L33 18L33 17L32 17L32 18L31 18L31 17L30 17L30 19L31 19L31 20L29 20L29 21L27 21L27 20L28 20L28 19L29 19L29 16L30 16L30 15L31 15L31 14L32 14L32 15L33 15L33 14L32 14L32 13L33 13L33 12ZM16 13L16 14L18 14L18 13ZM23 14L23 15L24 15L24 14ZM8 15L8 16L9 16L9 15ZM36 16L36 17L37 17L37 16ZM17 19L17 21L18 21L18 19ZM32 19L32 20L33 20L33 21L34 21L34 20L33 20L33 19ZM0 20L0 21L1 21L1 20ZM40 20L40 21L41 21L41 20ZM3 23L3 24L4 24L4 23ZM10 24L10 26L9 26L9 27L10 27L10 26L11 26L11 27L13 27L13 26L11 26L11 24ZM18 24L18 25L17 25L17 27L18 27L18 26L19 26L19 27L20 27L20 26L19 26L19 24ZM33 25L33 27L34 27L34 25ZM35 25L35 29L34 29L34 28L33 28L33 29L34 29L34 30L35 30L35 29L37 29L37 30L36 30L36 31L37 31L37 30L39 30L39 26L38 26L38 28L37 28L37 27L36 27L36 25ZM23 26L23 27L24 27L24 26ZM27 27L27 28L28 28L28 29L29 29L29 30L30 30L30 29L29 29L29 28L28 28L28 27ZM2 28L2 29L3 29L3 30L4 30L4 29L5 29L5 31L6 31L6 30L7 30L7 29L5 29L5 28ZM29 31L29 32L30 32L30 31ZM26 32L26 33L27 33L27 32ZM18 33L18 34L19 34L19 33ZM33 33L33 36L36 36L36 33ZM37 33L37 34L39 34L39 33ZM34 34L34 35L35 35L35 34ZM12 36L12 37L14 37L14 36ZM34 37L34 38L36 38L36 37ZM26 38L26 39L28 39L28 38ZM15 40L15 41L16 41L16 40ZM26 40L26 41L28 41L28 40ZM29 40L29 41L30 41L30 40ZM0 0L0 7L7 7L7 0ZM1 1L1 6L6 6L6 1ZM2 2L2 5L5 5L5 2ZM34 0L34 7L41 7L41 0ZM35 1L35 6L40 6L40 1ZM36 2L36 5L39 5L39 2ZM0 34L0 41L7 41L7 34ZM1 35L1 40L6 40L6 35ZM2 36L2 39L5 39L5 36Z" fill="#000000"/></g></g></svg>
