<?xml version="1.0" encoding="UTF-8"?>
<svg xmlns="http://www.w3.org/2000/svg" version="1.1" width="200" height="200" viewBox="0 0 200 200"><rect x="0" y="0" width="200" height="200" fill="#ffffff"/><g transform="scale(4.878)"><g transform="translate(0,0)"><path fill-rule="evenodd" d="M8 0L8 3L9 3L9 5L8 5L8 9L7 9L7 8L6 8L6 9L5 9L5 8L2 8L2 9L1 9L1 10L0 10L0 12L3 12L3 11L1 11L1 10L3 10L3 9L4 9L4 10L6 10L6 11L7 11L7 10L10 10L10 11L9 11L9 13L10 13L10 14L9 14L9 15L8 15L8 16L9 16L9 17L8 17L8 18L6 18L6 17L7 17L7 16L6 16L6 17L5 17L5 16L4 16L4 17L5 17L5 18L6 18L6 19L8 19L8 20L3 20L3 19L4 19L4 18L3 18L3 17L2 17L2 16L3 16L3 15L2 15L2 14L1 14L1 13L0 13L0 21L1 21L1 24L0 24L0 25L1 25L1 26L0 26L0 27L1 27L1 29L0 29L0 33L1 33L1 29L3 29L3 30L2 30L2 33L5 33L5 30L6 30L6 31L7 31L7 32L6 32L6 33L8 33L8 34L9 34L9 36L8 36L8 39L10 39L10 40L9 40L9 41L10 41L10 40L11 40L11 39L12 39L12 38L11 38L11 37L14 37L14 38L15 38L15 39L18 39L18 38L19 38L19 39L20 39L20 38L21 38L21 37L24 37L24 39L23 39L23 38L22 38L22 40L18 40L18 41L23 41L23 40L24 40L24 39L25 39L25 41L26 41L26 39L27 39L27 40L28 40L28 39L29 39L29 38L27 38L27 37L29 37L29 36L32 36L32 37L30 37L30 39L31 39L31 38L34 38L34 39L35 39L35 40L36 40L36 39L37 39L37 40L40 40L40 38L41 38L41 36L40 36L40 34L41 34L41 33L39 33L39 32L38 32L38 29L36 29L36 28L38 28L38 26L39 26L39 27L40 27L40 26L41 26L41 23L39 23L39 24L40 24L40 26L39 26L39 25L36 25L36 24L37 24L37 20L38 20L38 21L39 21L39 20L38 20L38 18L37 18L37 17L39 17L39 16L37 16L37 15L36 15L36 14L37 14L37 13L36 13L36 14L35 14L35 15L36 15L36 16L35 16L35 17L34 17L34 16L33 16L33 17L30 17L30 16L29 16L29 15L28 15L28 16L29 16L29 17L30 17L30 19L31 19L31 20L30 20L30 21L31 21L31 22L32 22L32 23L33 23L33 22L32 22L32 21L34 21L34 22L35 22L35 23L34 23L34 24L35 24L35 25L33 25L33 24L32 24L32 25L31 25L31 23L30 23L30 24L28 24L28 23L29 23L29 21L28 21L28 20L29 20L29 18L27 18L27 20L26 20L26 21L25 21L25 19L23 19L23 18L24 18L24 17L23 17L23 16L25 16L25 17L26 17L26 16L27 16L27 14L29 14L29 13L30 13L30 15L31 15L31 10L32 10L32 9L34 9L34 11L32 11L32 13L33 13L33 14L32 14L32 15L34 15L34 13L35 13L35 12L38 12L38 11L40 11L40 10L41 10L41 8L38 8L38 9L40 9L40 10L37 10L37 9L36 9L36 8L33 8L33 5L32 5L32 4L33 4L33 1L32 1L32 0L31 0L31 1L32 1L32 4L30 4L30 5L29 5L29 4L28 4L28 5L27 5L27 4L25 4L25 3L24 3L24 0L23 0L23 1L22 1L22 0L21 0L21 1L20 1L20 0L19 0L19 1L20 1L20 2L19 2L19 4L17 4L17 6L16 6L16 7L15 7L15 5L14 5L14 7L13 7L13 3L15 3L15 2L16 2L16 1L12 1L12 0ZM17 0L17 2L18 2L18 0ZM26 0L26 1L27 1L27 2L26 2L26 3L31 3L31 2L30 2L30 0L29 0L29 1L27 1L27 0ZM11 1L11 3L10 3L10 2L9 2L9 3L10 3L10 6L9 6L9 8L10 8L10 9L11 9L11 10L12 10L12 8L13 8L13 7L12 7L12 5L11 5L11 3L12 3L12 1ZM21 1L21 2L20 2L20 4L19 4L19 5L18 5L18 6L17 6L17 7L16 7L16 8L18 8L18 9L19 9L19 12L18 12L18 13L19 13L19 12L20 12L20 14L18 14L18 15L17 15L17 13L14 13L14 12L16 12L16 11L17 11L17 10L16 10L16 9L15 9L15 8L14 8L14 9L13 9L13 11L12 11L12 12L11 12L11 11L10 11L10 12L11 12L11 15L12 15L12 17L11 17L11 16L10 16L10 15L9 15L9 16L10 16L10 18L11 18L11 20L13 20L13 22L12 22L12 21L10 21L10 19L9 19L9 20L8 20L8 21L6 21L6 22L5 22L5 21L2 21L2 20L1 20L1 21L2 21L2 24L1 24L1 25L2 25L2 26L1 26L1 27L2 27L2 26L4 26L4 28L3 28L3 29L4 29L4 30L3 30L3 31L4 31L4 30L5 30L5 29L6 29L6 30L7 30L7 31L8 31L8 33L9 33L9 34L10 34L10 37L9 37L9 38L10 38L10 37L11 37L11 35L12 35L12 36L13 36L13 35L12 35L12 34L14 34L14 35L16 35L16 37L15 37L15 36L14 36L14 37L15 37L15 38L17 38L17 37L18 37L18 36L19 36L19 37L20 37L20 36L21 36L21 33L22 33L22 34L23 34L23 35L22 35L22 36L24 36L24 37L26 37L26 36L25 36L25 35L27 35L27 34L28 34L28 35L29 35L29 34L28 34L28 33L29 33L29 32L30 32L30 33L31 33L31 34L30 34L30 35L31 35L31 34L32 34L32 33L31 33L31 30L32 30L32 31L33 31L33 32L35 32L35 31L37 31L37 30L36 30L36 29L35 29L35 27L37 27L37 26L36 26L36 25L35 25L35 26L34 26L34 27L33 27L33 25L32 25L32 26L31 26L31 25L30 25L30 26L29 26L29 25L27 25L27 22L28 22L28 21L27 21L27 22L25 22L25 21L24 21L24 20L23 20L23 19L19 19L19 18L18 18L18 23L17 23L17 19L16 19L16 17L15 17L15 19L16 19L16 20L14 20L14 19L13 19L13 16L14 16L14 14L15 14L15 16L17 16L17 17L18 17L18 15L19 15L19 16L20 16L20 15L21 15L21 16L22 16L22 15L21 15L21 14L25 14L25 16L26 16L26 13L25 13L25 12L23 12L23 13L21 13L21 12L20 12L20 10L22 10L22 11L23 11L23 10L24 10L24 11L27 11L27 10L29 10L29 11L28 11L28 12L27 12L27 13L29 13L29 12L30 12L30 9L32 9L32 5L30 5L30 6L29 6L29 8L30 8L30 9L27 9L27 8L24 8L24 9L23 9L23 7L24 7L24 6L25 6L25 7L26 7L26 6L25 6L25 5L24 5L24 3L23 3L23 2L22 2L22 1ZM21 3L21 4L20 4L20 5L22 5L22 7L23 7L23 6L24 6L24 5L23 5L23 4L22 4L22 3ZM10 6L10 7L11 7L11 8L12 8L12 7L11 7L11 6ZM18 6L18 7L19 7L19 9L21 9L21 8L20 8L20 7L21 7L21 6L20 6L20 7L19 7L19 6ZM27 6L27 7L28 7L28 6ZM30 6L30 8L31 8L31 6ZM6 9L6 10L7 10L7 9ZM24 9L24 10L25 10L25 9ZM26 9L26 10L27 10L27 9ZM35 9L35 11L36 11L36 9ZM14 10L14 11L16 11L16 10ZM4 11L4 13L3 13L3 14L4 14L4 15L7 15L7 14L8 14L8 12L5 12L5 11ZM12 12L12 13L13 13L13 14L12 14L12 15L13 15L13 14L14 14L14 13L13 13L13 12ZM33 12L33 13L34 13L34 12ZM39 12L39 13L38 13L38 14L41 14L41 13L40 13L40 12ZM5 13L5 14L7 14L7 13ZM36 16L36 17L35 17L35 19L34 19L34 18L33 18L33 19L32 19L32 18L31 18L31 19L32 19L32 20L31 20L31 21L32 21L32 20L34 20L34 21L35 21L35 22L36 22L36 21L35 21L35 19L36 19L36 20L37 20L37 18L36 18L36 17L37 17L37 16ZM40 16L40 18L39 18L39 19L40 19L40 18L41 18L41 16ZM20 17L20 18L21 18L21 17ZM22 17L22 18L23 18L23 17ZM1 18L1 19L3 19L3 18ZM19 20L19 21L21 21L21 22L19 22L19 23L18 23L18 26L19 26L19 25L20 25L20 24L19 24L19 23L22 23L22 24L21 24L21 25L24 25L24 26L23 26L23 29L21 29L21 27L22 27L22 26L21 26L21 27L18 27L18 28L20 28L20 29L19 29L19 31L18 31L18 30L17 30L17 28L16 28L16 27L17 27L17 25L16 25L16 24L17 24L17 23L16 23L16 22L15 22L15 21L14 21L14 23L13 23L13 24L12 24L12 22L10 22L10 21L8 21L8 22L10 22L10 24L11 24L11 25L10 25L10 26L9 26L9 25L8 25L8 26L5 26L5 28L6 28L6 29L7 29L7 28L6 28L6 27L8 27L8 28L9 28L9 29L8 29L8 30L9 30L9 29L12 29L12 30L10 30L10 31L9 31L9 32L10 32L10 33L11 33L11 32L12 32L12 30L13 30L13 31L14 31L14 32L13 32L13 33L18 33L18 34L17 34L17 36L18 36L18 34L19 34L19 35L20 35L20 34L19 34L19 31L20 31L20 29L21 29L21 31L23 31L23 32L25 32L25 33L24 33L24 35L25 35L25 33L28 33L28 31L29 31L29 30L28 30L28 29L31 29L31 28L29 28L29 27L28 27L28 26L27 26L27 27L28 27L28 28L27 28L27 29L26 29L26 25L25 25L25 23L22 23L22 22L24 22L24 21L21 21L21 20ZM40 20L40 21L41 21L41 20ZM6 22L6 23L4 23L4 24L2 24L2 25L4 25L4 24L6 24L6 25L7 25L7 24L6 24L6 23L7 23L7 22ZM15 23L15 24L16 24L16 23ZM35 23L35 24L36 24L36 23ZM11 25L11 28L12 28L12 26L13 26L13 27L14 27L14 28L15 28L15 27L14 27L14 26L13 26L13 25ZM15 25L15 26L16 26L16 25ZM24 26L24 27L25 27L25 26ZM24 28L24 30L25 30L25 32L26 32L26 31L27 31L27 30L26 30L26 29L25 29L25 28ZM33 28L33 29L32 29L32 30L33 30L33 29L34 29L34 28ZM13 29L13 30L14 30L14 31L15 31L15 30L16 30L16 32L18 32L18 31L17 31L17 30L16 30L16 29ZM39 29L39 31L40 31L40 30L41 30L41 29ZM34 30L34 31L35 31L35 30ZM20 32L20 33L21 33L21 32ZM37 32L37 33L38 33L38 34L37 34L37 35L38 35L38 36L37 36L37 37L38 37L38 36L39 36L39 33L38 33L38 32ZM33 33L33 36L36 36L36 33ZM34 34L34 35L35 35L35 34ZM34 37L34 38L36 38L36 37ZM37 38L37 39L38 39L38 38ZM13 39L13 40L12 40L12 41L13 41L13 40L14 40L14 39ZM32 39L32 40L31 40L31 41L32 41L32 40L33 40L33 41L34 41L34 40L33 40L33 39ZM15 40L15 41L16 41L16 40ZM29 40L29 41L30 41L30 40ZM0 0L0 7L7 7L7 0ZM1 1L1 6L6 6L6 1ZM2 2L2 5L5 5L5 2ZM34 0L34 7L41 7L41 0ZM35 1L35 6L40 6L40 1ZM36 2L36 5L39 5L39 2ZM0 34L0 41L7 41L7 34ZM1 35L1 40L6 40L6 35ZM2 36L2 39L5 39L5 36Z" fill="#000000"/></g></g></svg>
