<?xml version="1.0" encoding="UTF-8"?>
<svg xmlns="http://www.w3.org/2000/svg" version="1.1" width="200" height="200" viewBox="0 0 200 200"><rect x="0" y="0" width="200" height="200" fill="#ffffff"/><g transform="scale(4.878)"><g transform="translate(0,0)"><path fill-rule="evenodd" d="M8 0L8 3L9 3L9 4L10 4L10 7L11 7L11 8L9 8L9 5L8 5L8 9L11 9L11 8L13 8L13 10L12 10L12 11L11 11L11 10L10 10L10 11L9 11L9 12L10 12L10 13L9 13L9 17L8 17L8 14L6 14L6 13L8 13L8 11L7 11L7 10L5 10L5 11L7 11L7 12L6 12L6 13L5 13L5 14L4 14L4 12L3 12L3 11L4 11L4 9L5 9L5 8L2 8L2 9L1 9L1 12L2 12L2 14L4 14L4 15L2 15L2 16L4 16L4 15L5 15L5 14L6 14L6 15L7 15L7 16L6 16L6 17L3 17L3 18L4 18L4 20L3 20L3 21L2 21L2 22L1 22L1 19L0 19L0 24L1 24L1 23L2 23L2 24L3 24L3 22L4 22L4 25L2 25L2 26L1 26L1 27L0 27L0 28L1 28L1 29L0 29L0 33L1 33L1 29L2 29L2 31L4 31L4 32L3 32L3 33L8 33L8 34L11 34L11 36L8 36L8 39L9 39L9 41L14 41L14 39L13 39L13 38L12 38L12 37L14 37L14 36L16 36L16 34L12 34L12 33L13 33L13 32L14 32L14 33L16 33L16 32L14 32L14 31L17 31L17 30L16 30L16 29L18 29L18 28L20 28L20 29L22 29L22 26L23 26L23 27L24 27L24 26L26 26L26 27L25 27L25 28L24 28L24 29L25 29L25 28L26 28L26 27L27 27L27 30L25 30L25 32L27 32L27 33L24 33L24 30L20 30L20 32L17 32L17 33L18 33L18 34L17 34L17 36L18 36L18 34L19 34L19 36L20 36L20 37L22 37L22 39L20 39L20 40L19 40L19 37L18 37L18 40L17 40L17 37L16 37L16 38L15 38L15 41L24 41L24 40L25 40L25 41L27 41L27 40L28 40L28 39L30 39L30 40L29 40L29 41L30 41L30 40L33 40L33 41L34 41L34 40L33 40L33 39L35 39L35 40L36 40L36 39L37 39L37 40L40 40L40 38L41 38L41 37L39 37L39 36L40 36L40 34L41 34L41 33L40 33L40 32L41 32L41 31L40 31L40 30L41 30L41 29L39 29L39 30L38 30L38 31L40 31L40 32L33 32L33 31L32 31L32 30L33 30L33 29L34 29L34 28L33 28L33 27L34 27L34 26L35 26L35 25L36 25L36 28L35 28L35 29L36 29L36 31L37 31L37 29L36 29L36 28L38 28L38 26L39 26L39 27L40 27L40 28L41 28L41 27L40 27L40 26L41 26L41 23L39 23L39 24L40 24L40 26L39 26L39 25L36 25L36 24L37 24L37 23L38 23L38 22L37 22L37 20L38 20L38 21L39 21L39 20L38 20L38 18L41 18L41 16L40 16L40 17L39 17L39 16L37 16L37 13L36 13L36 15L35 15L35 17L34 17L34 16L32 16L32 17L31 17L31 16L29 16L29 15L30 15L30 14L31 14L31 11L30 11L30 10L32 10L32 9L34 9L34 11L33 11L33 12L32 12L32 13L33 13L33 14L32 14L32 15L34 15L34 13L35 13L35 9L36 9L36 10L37 10L37 11L36 11L36 12L38 12L38 11L39 11L39 12L41 12L41 11L40 11L40 10L41 10L41 8L38 8L38 9L40 9L40 10L37 10L37 9L36 9L36 8L32 8L32 9L30 9L30 8L31 8L31 5L32 5L32 7L33 7L33 5L32 5L32 4L33 4L33 1L32 1L32 0L31 0L31 1L32 1L32 2L30 2L30 0L29 0L29 1L27 1L27 0L26 0L26 1L27 1L27 2L26 2L26 3L32 3L32 4L30 4L30 5L29 5L29 4L28 4L28 5L27 5L27 4L25 4L25 5L24 5L24 7L23 7L23 6L22 6L22 5L23 5L23 4L24 4L24 3L25 3L25 0L24 0L24 1L18 1L18 0L17 0L17 1L16 1L16 2L15 2L15 1L14 1L14 3L12 3L12 4L11 4L11 2L10 2L10 1L9 1L9 0ZM11 0L11 1L12 1L12 0ZM17 1L17 2L16 2L16 3L14 3L14 4L13 4L13 7L14 7L14 9L15 9L15 8L16 8L16 10L14 10L14 11L13 11L13 12L12 12L12 13L11 13L11 15L12 15L12 16L11 16L11 17L9 17L9 18L10 18L10 19L6 19L6 18L8 18L8 17L6 17L6 18L5 18L5 19L6 19L6 20L5 20L5 21L4 21L4 22L5 22L5 26L3 26L3 27L1 27L1 28L2 28L2 29L3 29L3 28L5 28L5 29L6 29L6 30L9 30L9 31L10 31L10 30L12 30L12 31L13 31L13 30L12 30L12 29L13 29L13 28L14 28L14 29L16 29L16 28L17 28L17 27L18 27L18 26L19 26L19 27L20 27L20 28L21 28L21 26L22 26L22 24L23 24L23 22L21 22L21 23L22 23L22 24L20 24L20 23L19 23L19 24L18 24L18 22L20 22L20 21L19 21L19 20L21 20L21 21L22 21L22 20L23 20L23 19L24 19L24 25L23 25L23 26L24 26L24 25L26 25L26 26L28 26L28 27L29 27L29 28L31 28L31 29L28 29L28 30L32 30L32 29L33 29L33 28L32 28L32 26L33 26L33 25L35 25L35 24L36 24L36 23L35 23L35 22L36 22L36 21L35 21L35 19L36 19L36 20L37 20L37 18L38 18L38 17L37 17L37 16L36 16L36 17L35 17L35 19L34 19L34 18L33 18L33 17L32 17L32 18L31 18L31 17L29 17L29 16L28 16L28 15L29 15L29 14L30 14L30 13L29 13L29 12L30 12L30 11L29 11L29 12L28 12L28 13L29 13L29 14L27 14L27 18L26 18L26 17L25 17L25 15L24 15L24 17L23 17L23 15L22 15L22 16L21 16L21 13L22 13L22 12L23 12L23 13L24 13L24 12L25 12L25 10L24 10L24 9L23 9L23 7L22 7L22 6L21 6L21 7L22 7L22 9L21 9L21 8L20 8L20 13L17 13L17 12L18 12L18 11L19 11L19 9L17 9L17 8L19 8L19 7L20 7L20 6L19 6L19 7L18 7L18 5L17 5L17 2L18 2L18 1ZM9 2L9 3L10 3L10 2ZM19 2L19 3L20 3L20 2ZM21 2L21 5L22 5L22 4L23 4L23 3L24 3L24 2L23 2L23 3L22 3L22 2ZM19 4L19 5L20 5L20 4ZM14 5L14 7L15 7L15 6L16 6L16 7L17 7L17 5ZM25 5L25 7L24 7L24 8L25 8L25 9L26 9L26 10L28 10L28 9L29 9L29 10L30 10L30 9L29 9L29 8L30 8L30 6L29 6L29 5L28 5L28 6L27 6L27 8L25 8L25 7L26 7L26 5ZM11 6L11 7L12 7L12 6ZM28 6L28 8L27 8L27 9L28 9L28 8L29 8L29 6ZM6 8L6 9L7 9L7 8ZM2 9L2 10L3 10L3 9ZM21 10L21 11L23 11L23 10ZM10 11L10 12L11 12L11 11ZM14 11L14 12L13 12L13 13L15 13L15 12L17 12L17 11ZM26 12L26 13L27 13L27 12ZM33 12L33 13L34 13L34 12ZM0 13L0 18L2 18L2 17L1 17L1 13ZM40 13L40 14L38 14L38 15L40 15L40 14L41 14L41 13ZM13 14L13 15L15 15L15 17L14 17L14 19L13 19L13 18L12 18L12 20L10 20L10 21L13 21L13 22L12 22L12 23L14 23L14 21L15 21L15 20L16 20L16 19L17 19L17 18L19 18L19 17L20 17L20 19L21 19L21 20L22 20L22 19L21 19L21 17L20 17L20 15L19 15L19 14L16 14L16 15L15 15L15 14ZM18 15L18 16L19 16L19 15ZM16 16L16 17L15 17L15 18L16 18L16 17L17 17L17 16ZM36 17L36 18L37 18L37 17ZM24 18L24 19L25 19L25 20L26 20L26 21L27 21L27 20L28 20L28 21L29 21L29 20L28 20L28 18L27 18L27 19L26 19L26 18ZM30 18L30 19L31 19L31 20L30 20L30 21L31 21L31 22L30 22L30 23L31 23L31 24L32 24L32 25L30 25L30 24L29 24L29 25L28 25L28 24L27 24L27 23L29 23L29 22L26 22L26 24L27 24L27 25L28 25L28 26L32 26L32 25L33 25L33 24L35 24L35 23L34 23L34 22L35 22L35 21L34 21L34 20L32 20L32 19L31 19L31 18ZM18 19L18 20L19 20L19 19ZM6 20L6 21L7 21L7 22L6 22L6 23L7 23L7 22L9 22L9 20ZM13 20L13 21L14 21L14 20ZM31 20L31 21L32 21L32 22L31 22L31 23L33 23L33 22L34 22L34 21L32 21L32 20ZM40 20L40 21L41 21L41 20ZM16 21L16 23L15 23L15 24L14 24L14 26L11 26L11 27L10 27L10 26L9 26L9 27L8 27L8 28L6 28L6 27L7 27L7 26L8 26L8 25L9 25L9 23L8 23L8 25L7 25L7 24L6 24L6 25L7 25L7 26L6 26L6 27L5 27L5 28L6 28L6 29L8 29L8 28L9 28L9 27L10 27L10 28L11 28L11 29L12 29L12 28L13 28L13 27L14 27L14 26L16 26L16 27L17 27L17 26L18 26L18 25L17 25L17 26L16 26L16 25L15 25L15 24L17 24L17 21ZM10 22L10 23L11 23L11 22ZM12 24L12 25L13 25L13 24ZM19 24L19 25L20 25L20 26L21 26L21 25L20 25L20 24ZM9 29L9 30L10 30L10 29ZM4 30L4 31L5 31L5 32L7 32L7 31L5 31L5 30ZM34 30L34 31L35 31L35 30ZM21 31L21 34L20 34L20 33L19 33L19 34L20 34L20 35L21 35L21 36L22 36L22 37L23 37L23 39L24 39L24 38L25 38L25 40L26 40L26 39L27 39L27 38L28 38L28 37L29 37L29 38L30 38L30 37L31 37L31 39L33 39L33 38L36 38L36 37L33 37L33 38L32 38L32 35L31 35L31 34L30 34L30 35L31 35L31 36L29 36L29 35L28 35L28 37L27 37L27 35L26 35L26 34L24 34L24 35L21 35L21 34L23 34L23 31ZM28 31L28 32L30 32L30 33L31 33L31 32L30 32L30 31ZM27 33L27 34L29 34L29 33ZM33 33L33 36L36 36L36 33ZM38 33L38 34L37 34L37 36L39 36L39 33ZM34 34L34 35L35 35L35 34ZM13 35L13 36L14 36L14 35ZM24 35L24 37L25 37L25 38L27 38L27 37L26 37L26 35ZM11 36L11 37L12 37L12 36ZM9 38L9 39L10 39L10 40L11 40L11 39L12 39L12 38L11 38L11 39L10 39L10 38ZM37 38L37 39L38 39L38 38ZM0 0L0 7L7 7L7 0ZM1 1L1 6L6 6L6 1ZM2 2L2 5L5 5L5 2ZM34 0L34 7L41 7L41 0ZM35 1L35 6L40 6L40 1ZM36 2L36 5L39 5L39 2ZM0 34L0 41L7 41L7 34ZM1 35L1 40L6 40L6 35ZM2 36L2 39L5 39L5 36Z" fill="#000000"/></g></g></svg>
