<?xml version="1.0" encoding="UTF-8"?>
<svg xmlns="http://www.w3.org/2000/svg" version="1.1" width="200" height="200" viewBox="0 0 200 200"><rect x="0" y="0" width="200" height="200" fill="#ffffff"/><g transform="scale(6.897)"><g transform="translate(0,0)"><path fill-rule="evenodd" d="M11 0L11 1L10 1L10 2L9 2L9 1L8 1L8 2L9 2L9 3L10 3L10 2L11 2L11 1L12 1L12 2L13 2L13 3L12 3L12 4L13 4L13 3L14 3L14 4L15 4L15 5L13 5L13 6L12 6L12 7L11 7L11 6L10 6L10 7L9 7L9 5L10 5L10 4L9 4L9 5L8 5L8 8L4 8L4 9L8 9L8 10L6 10L6 11L8 11L8 10L9 10L9 9L13 9L13 8L14 8L14 9L15 9L15 10L14 10L14 11L13 11L13 12L12 12L12 11L11 11L11 10L10 10L10 11L11 11L11 12L4 12L4 11L5 11L5 10L3 10L3 9L1 9L1 10L0 10L0 12L1 12L1 13L2 13L2 15L0 15L0 18L2 18L2 20L0 20L0 21L4 21L4 20L5 20L5 21L7 21L7 20L6 20L6 19L7 19L7 18L9 18L9 21L8 21L8 25L9 25L9 27L11 27L11 26L12 26L12 24L13 24L13 23L14 23L14 24L15 24L15 23L16 23L16 22L17 22L17 23L18 23L18 24L16 24L16 25L15 25L15 26L16 26L16 27L12 27L12 29L15 29L15 28L16 28L16 29L22 29L22 28L23 28L23 29L27 29L27 28L28 28L28 27L29 27L29 26L27 26L27 24L28 24L28 25L29 25L29 22L28 22L28 23L27 23L27 21L29 21L29 19L26 19L26 18L25 18L25 17L23 17L23 16L24 16L24 14L25 14L25 15L27 15L27 16L29 16L29 14L27 14L27 12L29 12L29 9L28 9L28 8L27 8L27 9L24 9L24 8L22 8L22 9L24 9L24 10L22 10L22 11L23 11L23 13L22 13L22 12L18 12L18 13L19 13L19 14L21 14L21 13L22 13L22 14L23 14L23 16L22 16L22 15L21 15L21 16L19 16L19 15L18 15L18 14L17 14L17 11L15 11L15 10L16 10L16 7L17 7L17 8L18 8L18 9L17 9L17 10L18 10L18 9L19 9L19 10L20 10L20 11L21 11L21 9L19 9L19 8L21 8L21 6L20 6L20 7L19 7L19 4L20 4L20 5L21 5L21 1L20 1L20 0L18 0L18 2L17 2L17 0L14 0L14 1L12 1L12 0ZM15 1L15 4L16 4L16 6L15 6L15 7L14 7L14 6L13 6L13 7L14 7L14 8L15 8L15 7L16 7L16 6L17 6L17 7L18 7L18 4L19 4L19 3L18 3L18 4L16 4L16 3L17 3L17 2L16 2L16 1ZM19 1L19 2L20 2L20 1ZM10 7L10 8L11 8L11 7ZM8 8L8 9L9 9L9 8ZM27 9L27 10L28 10L28 9ZM24 10L24 12L25 12L25 10ZM1 11L1 12L3 12L3 16L1 16L1 17L3 17L3 16L5 16L5 15L4 15L4 12L3 12L3 11ZM11 12L11 13L12 13L12 14L13 14L13 15L12 15L12 17L13 17L13 16L14 16L14 19L13 19L13 20L12 20L12 21L11 21L11 19L10 19L10 21L9 21L9 22L10 22L10 21L11 21L11 22L12 22L12 21L13 21L13 22L14 22L14 23L15 23L15 21L17 21L17 22L19 22L19 24L20 24L20 22L19 22L19 21L20 21L20 20L19 20L19 19L18 19L18 21L17 21L17 19L16 19L16 16L17 16L17 18L19 18L19 16L18 16L18 15L17 15L17 14L14 14L14 12L13 12L13 13L12 13L12 12ZM15 12L15 13L16 13L16 12ZM5 13L5 14L8 14L8 15L9 15L9 16L8 16L8 17L9 17L9 16L10 16L10 18L11 18L11 16L10 16L10 14L9 14L9 13ZM23 13L23 14L24 14L24 13ZM25 13L25 14L26 14L26 13ZM6 15L6 16L7 16L7 15ZM14 15L14 16L16 16L16 15ZM4 17L4 18L3 18L3 19L4 19L4 18L5 18L5 19L6 19L6 18L7 18L7 17ZM20 17L20 19L21 19L21 18L23 18L23 17ZM27 17L27 18L28 18L28 17ZM24 18L24 20L25 20L25 18ZM15 19L15 20L16 20L16 19ZM22 19L22 20L23 20L23 19ZM21 21L21 24L24 24L24 21ZM25 21L25 25L26 25L26 24L27 24L27 23L26 23L26 21ZM22 22L22 23L23 23L23 22ZM9 23L9 25L10 25L10 26L11 26L11 25L10 25L10 24L12 24L12 23ZM13 25L13 26L14 26L14 25ZM18 25L18 26L17 26L17 27L16 27L16 28L19 28L19 26L20 26L20 28L21 28L21 26L22 26L22 27L23 27L23 28L25 28L25 27L26 27L26 28L27 28L27 26L25 26L25 27L23 27L23 26L24 26L24 25ZM9 28L9 29L10 29L10 28ZM0 0L0 7L7 7L7 0ZM1 1L1 6L6 6L6 1ZM2 2L2 5L5 5L5 2ZM22 0L22 7L29 7L29 0ZM23 1L23 6L28 6L28 1ZM24 2L24 5L27 5L27 2ZM0 22L0 29L7 29L7 22ZM1 23L1 28L6 28L6 23ZM2 24L2 27L5 27L5 24Z" fill="#000000"/></g></g></svg>
