<?xml version="1.0" encoding="UTF-8"?>
<svg xmlns="http://www.w3.org/2000/svg" version="1.1" width="200" height="200" viewBox="0 0 200 200"><rect x="0" y="0" width="200" height="200" fill="#ffffff"/><g transform="scale(6.897)"><g transform="translate(0,0)"><path fill-rule="evenodd" d="M8 0L8 3L9 3L9 4L10 4L10 5L13 5L13 4L15 4L15 5L14 5L14 7L15 7L15 5L16 5L16 4L15 4L15 3L17 3L17 2L15 2L15 3L14 3L14 2L12 2L12 3L9 3L9 1L10 1L10 2L11 2L11 1L10 1L10 0ZM14 0L14 1L16 1L16 0ZM18 1L18 2L19 2L19 1ZM20 1L20 2L21 2L21 1ZM18 3L18 4L17 4L17 6L16 6L16 8L13 8L13 6L12 6L12 7L11 7L11 6L10 6L10 7L11 7L11 9L10 9L10 8L9 8L9 5L8 5L8 9L7 9L7 8L6 8L6 9L7 9L7 10L6 10L6 11L7 11L7 12L5 12L5 8L2 8L2 10L0 10L0 15L2 15L2 16L3 16L3 17L2 17L2 20L3 20L3 21L7 21L7 20L9 20L9 19L10 19L10 21L8 21L8 22L10 22L10 23L9 23L9 24L8 24L8 27L9 27L9 28L10 28L10 27L9 27L9 26L10 26L10 24L11 24L11 25L13 25L13 24L14 24L14 26L16 26L16 27L15 27L15 28L13 28L13 29L17 29L17 28L18 28L18 29L25 29L25 28L26 28L26 29L28 29L28 28L29 28L29 27L28 27L28 23L29 23L29 20L28 20L28 19L27 19L27 17L28 17L28 10L29 10L29 8L26 8L26 9L27 9L27 10L25 10L25 12L24 12L24 11L22 11L22 12L23 12L23 13L21 13L21 15L22 15L22 14L23 14L23 13L24 13L24 19L25 19L25 18L26 18L26 19L27 19L27 20L28 20L28 22L26 22L26 21L25 21L25 20L23 20L23 19L22 19L22 18L20 18L20 19L21 19L21 20L20 20L20 25L16 25L16 24L14 24L14 23L13 23L13 24L12 24L12 23L11 23L11 22L13 22L13 21L14 21L14 22L16 22L16 23L17 23L17 24L19 24L19 22L18 22L18 23L17 23L17 22L16 22L16 21L17 21L17 20L18 20L18 21L19 21L19 15L15 15L15 14L14 14L14 13L16 13L16 14L17 14L17 13L18 13L18 14L19 14L19 13L20 13L20 12L21 12L21 11L20 11L20 10L22 10L22 9L23 9L23 10L24 10L24 8L21 8L21 5L20 5L20 4L21 4L21 3L20 3L20 4L19 4L19 3ZM18 4L18 6L17 6L17 7L18 7L18 6L19 6L19 7L20 7L20 6L19 6L19 4ZM12 8L12 10L13 10L13 11L14 11L14 10L15 10L15 9L14 9L14 10L13 10L13 8ZM16 8L16 9L19 9L19 10L20 10L20 9L21 9L21 8L20 8L20 9L19 9L19 8ZM3 10L3 11L4 11L4 10ZM7 10L7 11L8 11L8 12L7 12L7 13L5 13L5 12L3 12L3 13L2 13L2 11L1 11L1 14L3 14L3 13L4 13L4 15L6 15L6 16L7 16L7 17L4 17L4 18L3 18L3 19L4 19L4 20L5 20L5 18L7 18L7 19L6 19L6 20L7 20L7 19L9 19L9 18L10 18L10 16L11 16L11 19L12 19L12 18L13 18L13 17L15 17L15 16L13 16L13 15L14 15L14 14L12 14L12 13L14 13L14 12L12 12L12 11L11 11L11 10ZM17 10L17 11L15 11L15 12L17 12L17 11L18 11L18 10ZM9 12L9 13L7 13L7 14L6 14L6 15L7 15L7 16L8 16L8 18L9 18L9 16L10 16L10 15L11 15L11 16L12 16L12 17L13 17L13 16L12 16L12 14L10 14L10 15L7 15L7 14L9 14L9 13L11 13L11 12ZM25 12L25 13L26 13L26 14L27 14L27 12ZM25 15L25 16L27 16L27 15ZM17 16L17 17L18 17L18 16ZM20 16L20 17L22 17L22 16ZM0 17L0 21L1 21L1 17ZM16 18L16 19L15 19L15 20L14 20L14 19L13 19L13 20L12 20L12 21L13 21L13 20L14 20L14 21L15 21L15 20L17 20L17 19L18 19L18 18ZM10 21L10 22L11 22L11 21ZM21 21L21 24L24 24L24 21ZM22 22L22 23L23 23L23 22ZM25 22L25 24L26 24L26 25L25 25L25 26L24 26L24 25L22 25L22 26L23 26L23 27L26 27L26 26L27 26L27 23L26 23L26 22ZM11 26L11 29L12 29L12 27L13 27L13 26ZM20 26L20 27L19 27L19 28L22 28L22 27L21 27L21 26ZM16 27L16 28L17 28L17 27ZM0 0L0 7L7 7L7 0ZM1 1L1 6L6 6L6 1ZM2 2L2 5L5 5L5 2ZM22 0L22 7L29 7L29 0ZM23 1L23 6L28 6L28 1ZM24 2L24 5L27 5L27 2ZM0 22L0 29L7 29L7 22ZM1 23L1 28L6 28L6 23ZM2 24L2 27L5 27L5 24Z" fill="#000000"/></g></g></svg>
