<?xml version="1.0" encoding="UTF-8"?>
<svg xmlns="http://www.w3.org/2000/svg" version="1.1" width="200" height="200" viewBox="0 0 200 200"><rect x="0" y="0" width="200" height="200" fill="#ffffff"/><g transform="scale(4.878)"><g transform="translate(0,0)"><path fill-rule="evenodd" d="M9 0L9 1L8 1L8 2L9 2L9 3L10 3L10 4L9 4L9 5L8 5L8 8L4 8L4 9L1 9L1 10L0 10L0 11L2 11L2 13L3 13L3 14L2 14L2 15L3 15L3 16L2 16L2 17L3 17L3 16L4 16L4 18L6 18L6 19L7 19L7 20L5 20L5 19L3 19L3 22L4 22L4 20L5 20L5 23L7 23L7 22L6 22L6 21L9 21L9 20L12 20L12 21L10 21L10 22L9 22L9 23L8 23L8 24L4 24L4 23L3 23L3 25L2 25L2 24L0 24L0 25L1 25L1 26L3 26L3 25L8 25L8 26L11 26L11 27L10 27L10 28L12 28L12 30L14 30L14 29L15 29L15 28L16 28L16 27L17 27L17 30L15 30L15 31L14 31L14 32L16 32L16 33L17 33L17 32L16 32L16 31L17 31L17 30L18 30L18 31L23 31L23 32L18 32L18 33L20 33L20 34L19 34L19 35L18 35L18 34L17 34L17 36L19 36L19 37L18 37L18 38L16 38L16 39L17 39L17 40L19 40L19 39L20 39L20 41L21 41L21 40L22 40L22 41L23 41L23 39L24 39L24 41L25 41L25 39L27 39L27 41L33 41L33 39L34 39L34 40L35 40L35 39L34 39L34 37L36 37L36 38L37 38L37 37L38 37L38 35L41 35L41 33L40 33L40 34L39 34L39 33L38 33L38 34L37 34L37 32L36 32L36 31L34 31L34 32L33 32L33 31L32 31L32 29L33 29L33 30L34 30L34 29L33 29L33 28L31 28L31 26L30 26L30 25L34 25L34 26L32 26L32 27L34 27L34 28L35 28L35 27L37 27L37 29L35 29L35 30L37 30L37 31L38 31L38 30L39 30L39 32L41 32L41 29L40 29L40 30L39 30L39 28L41 28L41 24L40 24L40 23L41 23L41 22L40 22L40 21L41 21L41 13L39 13L39 12L38 12L38 11L40 11L40 12L41 12L41 9L40 9L40 8L39 8L39 9L36 9L36 8L34 8L34 10L35 10L35 11L37 11L37 13L36 13L36 15L35 15L35 14L33 14L33 13L35 13L35 12L34 12L34 11L33 11L33 10L32 10L32 12L30 12L30 11L29 11L29 10L28 10L28 9L30 9L30 10L31 10L31 9L30 9L30 7L31 7L31 6L32 6L32 7L33 7L33 3L32 3L32 2L33 2L33 1L31 1L31 0L29 0L29 1L28 1L28 0L27 0L27 1L26 1L26 0L25 0L25 2L22 2L22 1L24 1L24 0L21 0L21 2L22 2L22 3L20 3L20 2L19 2L19 1L18 1L18 2L17 2L17 3L18 3L18 4L19 4L19 6L18 6L18 5L17 5L17 6L16 6L16 5L15 5L15 4L16 4L16 2L15 2L15 3L14 3L14 4L13 4L13 3L12 3L12 2L11 2L11 1L13 1L13 2L14 2L14 1L15 1L15 0L14 0L14 1L13 1L13 0L11 0L11 1L10 1L10 0ZM9 1L9 2L10 2L10 3L11 3L11 4L10 4L10 5L9 5L9 8L8 8L8 9L6 9L6 10L8 10L8 11L5 11L5 9L4 9L4 14L5 14L5 12L8 12L8 13L6 13L6 14L7 14L7 15L6 15L6 16L5 16L5 17L6 17L6 18L8 18L8 17L6 17L6 16L7 16L7 15L8 15L8 16L9 16L9 17L10 17L10 18L9 18L9 19L12 19L12 20L13 20L13 22L11 22L11 23L9 23L9 24L8 24L8 25L11 25L11 26L13 26L13 27L12 27L12 28L15 28L15 27L16 27L16 26L17 26L17 27L18 27L18 28L19 28L19 29L20 29L20 27L22 27L22 25L23 25L23 23L24 23L24 24L25 24L25 26L24 26L24 27L23 27L23 29L22 29L22 30L23 30L23 31L24 31L24 32L23 32L23 33L22 33L22 35L21 35L21 34L20 34L20 35L19 35L19 36L22 36L22 37L19 37L19 38L24 38L24 39L25 39L25 38L26 38L26 37L28 37L28 38L30 38L30 40L31 40L31 38L30 38L30 37L31 37L31 36L32 36L32 35L30 35L30 34L29 34L29 33L28 33L28 32L27 32L27 31L24 31L24 29L26 29L26 30L28 30L28 31L29 31L29 30L31 30L31 29L26 29L26 28L27 28L27 27L26 27L26 26L27 26L27 25L28 25L28 27L29 27L29 25L28 25L28 24L25 24L25 23L26 23L26 22L25 22L25 23L24 23L24 21L23 21L23 22L22 22L22 23L21 23L21 22L20 22L20 20L21 20L21 21L22 21L22 20L21 20L21 19L22 19L22 18L23 18L23 16L25 16L25 17L26 17L26 16L28 16L28 18L30 18L30 19L31 19L31 21L30 21L30 20L29 20L29 21L28 21L28 19L27 19L27 20L26 20L26 19L25 19L25 20L26 20L26 21L28 21L28 23L30 23L30 24L32 24L32 23L33 23L33 24L34 24L34 25L35 25L35 26L36 26L36 25L37 25L37 26L38 26L38 28L39 28L39 25L37 25L37 24L39 24L39 23L40 23L40 22L38 22L38 21L39 21L39 20L40 20L40 19L38 19L38 18L37 18L37 22L36 22L36 21L35 21L35 20L36 20L36 19L35 19L35 18L36 18L36 17L37 17L37 15L36 15L36 17L35 17L35 16L34 16L34 15L32 15L32 14L31 14L31 15L30 15L30 13L29 13L29 11L28 11L28 12L27 12L27 11L26 11L26 12L25 12L25 10L26 10L26 9L28 9L28 6L29 6L29 7L30 7L30 6L31 6L31 5L32 5L32 3L31 3L31 1L30 1L30 2L28 2L28 1L27 1L27 2L28 2L28 3L26 3L26 2L25 2L25 3L23 3L23 4L24 4L24 5L23 5L23 7L24 7L24 6L25 6L25 8L22 8L22 6L21 6L21 4L20 4L20 6L19 6L19 8L20 8L20 6L21 6L21 8L22 8L22 9L21 9L21 10L20 10L20 9L19 9L19 10L18 10L18 11L17 11L17 9L18 9L18 6L17 6L17 9L16 9L16 10L15 10L15 12L12 12L12 10L13 10L13 11L14 11L14 9L13 9L13 8L14 8L14 6L15 6L15 7L16 7L16 6L15 6L15 5L13 5L13 4L12 4L12 3L11 3L11 2L10 2L10 1ZM18 2L18 3L19 3L19 2ZM29 3L29 4L30 4L30 5L31 5L31 3ZM27 4L27 5L26 5L26 8L25 8L25 9L26 9L26 8L27 8L27 5L28 5L28 4ZM10 5L10 7L11 7L11 8L10 8L10 9L8 9L8 10L9 10L9 11L10 11L10 10L12 10L12 9L11 9L11 8L12 8L12 7L13 7L13 5L12 5L12 7L11 7L11 5ZM32 8L32 9L33 9L33 8ZM2 10L2 11L3 11L3 10ZM19 10L19 11L18 11L18 12L15 12L15 13L13 13L13 14L15 14L15 15L12 15L12 16L10 16L10 17L11 17L11 18L12 18L12 19L13 19L13 20L14 20L14 19L15 19L15 21L16 21L16 22L13 22L13 23L11 23L11 24L14 24L14 23L15 23L15 25L13 25L13 26L14 26L14 27L15 27L15 25L17 25L17 26L18 26L18 27L19 27L19 25L22 25L22 24L18 24L18 22L19 22L19 23L20 23L20 22L19 22L19 21L16 21L16 20L17 20L17 19L18 19L18 20L19 20L19 19L18 19L18 18L19 18L19 16L21 16L21 17L20 17L20 19L21 19L21 17L22 17L22 15L26 15L26 14L27 14L27 12L26 12L26 14L24 14L24 12L23 12L23 11L24 11L24 10L23 10L23 11L20 11L20 10ZM19 11L19 12L20 12L20 11ZM0 12L0 16L1 16L1 12ZM9 12L9 13L8 13L8 15L9 15L9 13L10 13L10 12ZM22 12L22 13L20 13L20 14L21 14L21 15L22 15L22 14L23 14L23 12ZM32 12L32 13L33 13L33 12ZM11 13L11 14L10 14L10 15L11 15L11 14L12 14L12 13ZM17 13L17 14L16 14L16 16L14 16L14 17L13 17L13 18L18 18L18 16L19 16L19 15L18 15L18 13ZM28 13L28 15L29 15L29 17L30 17L30 18L31 18L31 17L32 17L32 19L33 19L33 17L32 17L32 16L31 16L31 17L30 17L30 15L29 15L29 13ZM38 14L38 17L39 17L39 16L40 16L40 15L39 15L39 14ZM34 17L34 18L35 18L35 17ZM1 18L1 19L0 19L0 20L1 20L1 21L2 21L2 18ZM34 19L34 20L35 20L35 19ZM32 21L32 22L33 22L33 23L35 23L35 25L36 25L36 23L35 23L35 21ZM0 22L0 23L2 23L2 22ZM16 22L16 23L17 23L17 22ZM4 26L4 27L3 27L3 29L5 29L5 30L4 30L4 32L0 32L0 33L4 33L4 32L5 32L5 33L7 33L7 32L8 32L8 37L9 37L9 39L11 39L11 40L12 40L12 41L14 41L14 40L13 40L13 39L15 39L15 37L16 37L16 36L15 36L15 34L14 34L14 35L13 35L13 33L12 33L12 32L11 32L11 31L10 31L10 33L9 33L9 30L11 30L11 29L9 29L9 30L6 30L6 29L8 29L8 28L9 28L9 27L8 27L8 28L6 28L6 29L5 29L5 28L4 28L4 27L7 27L7 26ZM24 27L24 28L25 28L25 27ZM0 28L0 30L2 30L2 31L3 31L3 30L2 30L2 28ZM37 29L37 30L38 30L38 29ZM5 30L5 31L6 31L6 32L7 32L7 31L6 31L6 30ZM30 31L30 33L31 33L31 34L32 34L32 32L31 32L31 31ZM24 32L24 33L23 33L23 34L24 34L24 33L25 33L25 32ZM26 32L26 34L27 34L27 36L28 36L28 37L29 37L29 36L28 36L28 35L29 35L29 34L28 34L28 33L27 33L27 32ZM10 33L10 34L9 34L9 37L11 37L11 39L13 39L13 37L14 37L14 36L13 36L13 35L12 35L12 34L11 34L11 33ZM33 33L33 36L36 36L36 33ZM10 34L10 36L11 36L11 37L12 37L12 35L11 35L11 34ZM34 34L34 35L35 35L35 34ZM22 35L22 36L23 36L23 37L24 37L24 36L26 36L26 35L24 35L24 36L23 36L23 35ZM39 36L39 37L40 37L40 38L38 38L38 39L36 39L36 40L37 40L37 41L40 41L40 40L41 40L41 37L40 37L40 36ZM32 37L32 39L33 39L33 37ZM15 40L15 41L16 41L16 40ZM0 0L0 7L7 7L7 0ZM1 1L1 6L6 6L6 1ZM2 2L2 5L5 5L5 2ZM34 0L34 7L41 7L41 0ZM35 1L35 6L40 6L40 1ZM36 2L36 5L39 5L39 2ZM0 34L0 41L7 41L7 34ZM1 35L1 40L6 40L6 35ZM2 36L2 39L5 39L5 36Z" fill="#000000"/></g></g></svg>
