<?xml version="1.0" encoding="UTF-8"?>
<svg xmlns="http://www.w3.org/2000/svg" version="1.1" width="200" height="200" viewBox="0 0 200 200"><rect x="0" y="0" width="200" height="200" fill="#ffffff"/><g transform="scale(4.878)"><g transform="translate(0,0)"><path fill-rule="evenodd" d="M8 0L8 3L9 3L9 5L8 5L8 9L7 9L7 8L6 8L6 9L5 9L5 8L2 8L2 10L3 10L3 9L4 9L4 10L5 10L5 11L3 11L3 12L5 12L5 13L8 13L8 12L9 12L9 10L8 10L8 9L9 9L9 6L10 6L10 7L11 7L11 6L10 6L10 4L11 4L11 5L12 5L12 7L13 7L13 6L14 6L14 9L13 9L13 8L12 8L12 10L10 10L10 11L12 11L12 10L13 10L13 12L14 12L14 13L13 13L13 14L14 14L14 16L13 16L13 18L12 18L12 12L10 12L10 13L9 13L9 14L8 14L8 15L7 15L7 14L5 14L5 15L4 15L4 17L3 17L3 15L2 15L2 11L0 11L0 13L1 13L1 15L2 15L2 17L1 17L1 16L0 16L0 17L1 17L1 19L0 19L0 24L3 24L3 29L2 29L2 27L1 27L1 29L0 29L0 33L1 33L1 30L3 30L3 29L7 29L7 30L4 30L4 31L3 31L3 32L2 32L2 33L4 33L4 32L5 32L5 33L7 33L7 32L9 32L9 31L10 31L10 30L9 30L9 31L7 31L7 30L8 30L8 29L7 29L7 28L10 28L10 29L11 29L11 30L12 30L12 28L13 28L13 27L14 27L14 28L16 28L16 29L15 29L15 30L13 30L13 31L11 31L11 34L10 34L10 33L8 33L8 34L10 34L10 35L9 35L9 36L8 36L8 39L10 39L10 40L9 40L9 41L13 41L13 40L14 40L14 39L15 39L15 40L18 40L18 41L20 41L20 38L21 38L21 40L25 40L25 41L26 41L26 40L28 40L28 41L31 41L31 40L33 40L33 41L34 41L34 40L33 40L33 39L31 39L31 38L27 38L27 37L29 37L29 33L31 33L31 32L29 32L29 31L28 31L28 32L29 32L29 33L28 33L28 34L26 34L26 32L24 32L24 33L23 33L23 32L21 32L21 31L22 31L22 30L21 30L21 28L22 28L22 27L21 27L21 28L19 28L19 27L18 27L18 26L19 26L19 25L18 25L18 22L19 22L19 24L21 24L21 22L22 22L22 23L23 23L23 19L22 19L22 18L21 18L21 17L22 17L22 16L23 16L23 15L24 15L24 14L23 14L23 15L22 15L22 13L23 13L23 11L22 11L22 9L23 9L23 10L24 10L24 11L26 11L26 12L28 12L28 13L25 13L25 12L24 12L24 13L25 13L25 16L24 16L24 17L23 17L23 18L24 18L24 24L23 24L23 25L22 25L22 26L23 26L23 29L24 29L24 28L25 28L25 30L29 30L29 29L31 29L31 28L32 28L32 29L33 29L33 30L32 30L32 31L33 31L33 30L34 30L34 31L35 31L35 30L37 30L37 31L36 31L36 32L32 32L32 34L30 34L30 35L31 35L31 36L30 36L30 37L31 37L31 36L32 36L32 38L34 38L34 39L35 39L35 40L36 40L36 39L39 39L39 40L40 40L40 38L41 38L41 37L40 37L40 34L41 34L41 33L40 33L40 32L37 32L37 31L38 31L38 30L37 30L37 29L35 29L35 26L36 26L36 28L38 28L38 26L39 26L39 27L40 27L40 26L41 26L41 23L40 23L40 26L39 26L39 24L37 24L37 25L33 25L33 24L32 24L32 25L31 25L31 24L28 24L28 22L29 22L29 23L31 23L31 22L32 22L32 23L35 23L35 24L36 24L36 23L35 23L35 22L36 22L36 21L37 21L37 22L38 22L38 23L39 23L39 22L38 22L38 21L39 21L39 20L36 20L36 19L35 19L35 17L36 17L36 18L38 18L38 17L39 17L39 16L38 16L38 15L36 15L36 14L37 14L37 13L36 13L36 14L35 14L35 15L36 15L36 16L35 16L35 17L34 17L34 16L33 16L33 15L34 15L34 14L33 14L33 13L34 13L34 12L33 12L33 13L32 13L32 12L31 12L31 10L32 10L32 11L34 11L34 10L35 10L35 9L36 9L36 10L37 10L37 11L35 11L35 12L38 12L38 11L39 11L39 13L40 13L40 14L39 14L39 15L40 15L40 14L41 14L41 13L40 13L40 10L41 10L41 8L38 8L38 9L40 9L40 10L37 10L37 9L36 9L36 8L33 8L33 9L31 9L31 8L32 8L32 7L33 7L33 6L32 6L32 7L31 7L31 5L32 5L32 4L33 4L33 3L30 3L30 4L31 4L31 5L30 5L30 7L31 7L31 8L29 8L29 6L28 6L28 5L29 5L29 4L28 4L28 5L26 5L26 7L27 7L27 8L25 8L25 9L23 9L23 8L24 8L24 7L25 7L25 5L23 5L23 4L22 4L22 3L21 3L21 2L20 2L20 1L25 1L25 3L24 3L24 4L25 4L25 3L26 3L26 4L27 4L27 3L29 3L29 1L27 1L27 0L20 0L20 1L19 1L19 0L16 0L16 1L14 1L14 0ZM30 0L30 2L31 2L31 1L32 1L32 2L33 2L33 0ZM9 1L9 2L10 2L10 3L11 3L11 1ZM13 1L13 3L12 3L12 5L14 5L14 6L15 6L15 10L14 10L14 11L15 11L15 12L16 12L16 13L17 13L17 14L19 14L19 11L20 11L20 14L21 14L21 10L19 10L19 9L20 9L20 6L19 6L19 7L18 7L18 5L19 5L19 4L20 4L20 5L21 5L21 8L23 8L23 7L24 7L24 6L23 6L23 7L22 7L22 5L21 5L21 4L20 4L20 2L19 2L19 4L18 4L18 3L17 3L17 1L16 1L16 6L15 6L15 5L14 5L14 4L13 4L13 3L15 3L15 2L14 2L14 1ZM26 2L26 3L27 3L27 2ZM17 4L17 5L18 5L18 4ZM16 6L16 8L17 8L17 6ZM27 6L27 7L28 7L28 6ZM18 8L18 9L19 9L19 8ZM6 9L6 10L7 10L7 9ZM27 9L27 10L29 10L29 11L28 11L28 12L30 12L30 10L31 10L31 9ZM33 9L33 10L34 10L34 9ZM15 10L15 11L16 11L16 12L18 12L18 11L19 11L19 10L18 10L18 11L16 11L16 10ZM5 11L5 12L8 12L8 11ZM3 13L3 14L4 14L4 13ZM10 13L10 14L9 14L9 17L10 17L10 18L11 18L11 19L9 19L9 18L8 18L8 19L4 19L4 20L5 20L5 21L6 21L6 22L4 22L4 23L3 23L3 20L2 20L2 19L1 19L1 20L2 20L2 23L3 23L3 24L4 24L4 27L5 27L5 28L7 28L7 27L9 27L9 26L10 26L10 27L11 27L11 28L12 28L12 27L13 27L13 26L12 26L12 25L15 25L15 23L16 23L16 22L18 22L18 21L21 21L21 20L22 20L22 19L21 19L21 18L19 18L19 19L18 19L18 17L20 17L20 16L17 16L17 17L15 17L15 16L16 16L16 14L15 14L15 16L14 16L14 17L15 17L15 19L16 19L16 20L13 20L13 19L14 19L14 18L13 18L13 19L12 19L12 18L11 18L11 16L10 16L10 14L11 14L11 13ZM28 13L28 14L30 14L30 15L28 15L28 17L26 17L26 18L25 18L25 17L24 17L24 18L25 18L25 20L26 20L26 21L27 21L27 22L28 22L28 21L29 21L29 22L30 22L30 21L33 21L33 22L34 22L34 21L36 21L36 20L35 20L35 19L34 19L34 18L33 18L33 17L32 17L32 18L30 18L30 19L32 19L32 20L28 20L28 21L27 21L27 18L29 18L29 16L30 16L30 17L31 17L31 16L30 16L30 15L31 15L31 14L32 14L32 15L33 15L33 14L32 14L32 13L31 13L31 14L30 14L30 13ZM5 15L5 16L7 16L7 15ZM26 15L26 16L27 16L27 15ZM36 16L36 17L38 17L38 16ZM40 16L40 18L39 18L39 19L40 19L40 18L41 18L41 16ZM6 17L6 18L7 18L7 17ZM32 18L32 19L33 19L33 18ZM17 19L17 20L16 20L16 21L15 21L15 22L13 22L13 20L11 20L11 21L10 21L10 20L9 20L9 21L10 21L10 22L9 22L9 25L10 25L10 26L11 26L11 23L10 23L10 22L11 22L11 21L12 21L12 23L15 23L15 22L16 22L16 21L17 21L17 20L18 20L18 19ZM19 19L19 20L21 20L21 19ZM6 20L6 21L7 21L7 20ZM33 20L33 21L34 21L34 20ZM40 20L40 21L41 21L41 20ZM6 22L6 23L8 23L8 22ZM25 22L25 24L26 24L26 22ZM5 24L5 25L8 25L8 24ZM27 24L27 25L26 25L26 26L29 26L29 27L28 27L28 28L26 28L26 27L25 27L25 26L24 26L24 25L23 25L23 26L24 26L24 27L25 27L25 28L26 28L26 29L29 29L29 28L31 28L31 27L32 27L32 28L33 28L33 29L34 29L34 30L35 30L35 29L34 29L34 28L33 28L33 27L34 27L34 26L33 26L33 25L32 25L32 26L31 26L31 25L30 25L30 26L29 26L29 25L28 25L28 24ZM0 25L0 26L1 26L1 25ZM17 25L17 26L18 26L18 25ZM20 25L20 26L21 26L21 25ZM6 26L6 27L7 27L7 26ZM15 26L15 27L16 27L16 28L17 28L17 29L16 29L16 31L18 31L18 30L19 30L19 31L20 31L20 29L19 29L19 28L17 28L17 27L16 27L16 26ZM32 26L32 27L33 27L33 26ZM39 28L39 31L40 31L40 30L41 30L41 29L40 29L40 28ZM17 29L17 30L18 30L18 29ZM5 31L5 32L7 32L7 31ZM13 31L13 32L12 32L12 34L11 34L11 36L10 36L10 37L9 37L9 38L10 38L10 37L11 37L11 40L13 40L13 39L14 39L14 31ZM16 32L16 34L15 34L15 37L18 37L18 38L16 38L16 39L18 39L18 40L19 40L19 38L20 38L20 37L21 37L21 38L22 38L22 37L23 37L23 36L22 36L22 35L21 35L21 34L23 34L23 35L24 35L24 34L23 34L23 33L21 33L21 32L20 32L20 35L19 35L19 36L18 36L18 35L17 35L17 36L16 36L16 34L17 34L17 32ZM33 33L33 36L36 36L36 33ZM38 33L38 34L39 34L39 33ZM34 34L34 35L35 35L35 34ZM26 35L26 37L27 37L27 35ZM37 35L37 36L39 36L39 35ZM11 36L11 37L13 37L13 36ZM24 37L24 39L26 39L26 38L25 38L25 37ZM34 37L34 38L36 38L36 37ZM38 37L38 38L39 38L39 37ZM28 39L28 40L31 40L31 39ZM0 0L0 7L7 7L7 0ZM1 1L1 6L6 6L6 1ZM2 2L2 5L5 5L5 2ZM34 0L34 7L41 7L41 0ZM35 1L35 6L40 6L40 1ZM36 2L36 5L39 5L39 2ZM0 34L0 41L7 41L7 34ZM1 35L1 40L6 40L6 35ZM2 36L2 39L5 39L5 36Z" fill="#000000"/></g></g></svg>
