<?xml version="1.0" encoding="UTF-8"?>
<svg xmlns="http://www.w3.org/2000/svg" version="1.1" width="200" height="200" viewBox="0 0 200 200"><rect x="0" y="0" width="200" height="200" fill="#ffffff"/><g transform="scale(6.897)"><g transform="translate(0,0)"><path fill-rule="evenodd" d="M8 0L8 1L9 1L9 2L11 2L11 3L10 3L10 5L9 5L9 6L8 6L8 7L9 7L9 6L10 6L10 8L8 8L8 9L10 9L10 10L8 10L8 11L7 11L7 10L6 10L6 9L7 9L7 8L4 8L4 9L3 9L3 8L2 8L2 9L1 9L1 10L2 10L2 11L0 11L0 13L1 13L1 14L3 14L3 15L0 15L0 16L1 16L1 17L4 17L4 18L2 18L2 19L1 19L1 18L0 18L0 19L1 19L1 20L0 20L0 21L1 21L1 20L2 20L2 21L7 21L7 20L8 20L8 22L10 22L10 20L11 20L11 21L12 21L12 22L13 22L13 21L14 21L14 22L16 22L16 23L14 23L14 24L13 24L13 25L12 25L12 24L10 24L10 23L8 23L8 25L9 25L9 26L8 26L8 27L9 27L9 28L10 28L10 29L11 29L11 28L12 28L12 27L15 27L15 25L14 25L14 24L18 24L18 25L19 25L19 24L20 24L20 26L17 26L17 25L16 25L16 29L18 29L18 28L19 28L19 29L20 29L20 27L21 27L21 26L22 26L22 25L23 25L23 26L24 26L24 25L25 25L25 26L26 26L26 25L27 25L27 26L28 26L28 27L26 27L26 28L23 28L23 27L22 27L22 28L23 28L23 29L26 29L26 28L28 28L28 29L29 29L29 26L28 26L28 24L26 24L26 23L25 23L25 20L26 20L26 21L27 21L27 23L28 23L28 22L29 22L29 21L28 21L28 19L29 19L29 18L27 18L27 17L26 17L26 14L24 14L24 13L25 13L25 11L26 11L26 13L27 13L27 14L28 14L28 15L27 15L27 16L28 16L28 17L29 17L29 16L28 16L28 15L29 15L29 14L28 14L28 13L29 13L29 12L28 12L28 11L29 11L29 8L28 8L28 9L27 9L27 10L25 10L25 9L26 9L26 8L25 8L25 9L24 9L24 10L25 10L25 11L24 11L24 12L23 12L23 10L22 10L22 8L21 8L21 0L20 0L20 1L19 1L19 2L20 2L20 3L19 3L19 4L18 4L18 3L15 3L15 4L14 4L14 3L13 3L13 4L12 4L12 5L11 5L11 3L12 3L12 2L11 2L11 0ZM12 0L12 1L13 1L13 2L14 2L14 1L17 1L17 2L18 2L18 1L17 1L17 0L14 0L14 1L13 1L13 0ZM8 3L8 4L9 4L9 3ZM12 5L12 6L11 6L11 7L12 7L12 6L13 6L13 7L14 7L14 9L13 9L13 10L14 10L14 12L13 12L13 11L12 11L12 13L11 13L11 16L12 16L12 15L13 15L13 16L14 16L14 17L8 17L8 16L9 16L9 14L10 14L10 12L11 12L11 11L8 11L8 13L5 13L5 11L6 11L6 12L7 12L7 11L6 11L6 10L5 10L5 9L4 9L4 13L3 13L3 11L2 11L2 13L3 13L3 14L4 14L4 13L5 13L5 16L4 16L4 15L3 15L3 16L4 16L4 17L5 17L5 18L4 18L4 20L7 20L7 19L8 19L8 18L9 18L9 20L10 20L10 19L11 19L11 18L12 18L12 21L13 21L13 20L15 20L15 21L17 21L17 23L20 23L20 22L18 22L18 19L20 19L20 20L19 20L19 21L20 21L20 20L21 20L21 19L22 19L22 18L23 18L23 19L24 19L24 20L25 20L25 19L24 19L24 18L26 18L26 20L27 20L27 18L26 18L26 17L24 17L24 16L25 16L25 15L24 15L24 14L23 14L23 15L22 15L22 14L21 14L21 13L20 13L20 14L18 14L18 15L17 15L17 13L16 13L16 10L17 10L17 11L18 11L18 12L20 12L20 11L18 11L18 10L19 10L19 9L20 9L20 5L19 5L19 7L18 7L18 5L14 5L14 6L13 6L13 5ZM14 6L14 7L15 7L15 6ZM16 6L16 9L14 9L14 10L16 10L16 9L17 9L17 10L18 10L18 9L17 9L17 6ZM10 8L10 9L11 9L11 8ZM2 9L2 10L3 10L3 9ZM27 10L27 11L28 11L28 10ZM21 11L21 12L22 12L22 11ZM14 12L14 13L13 13L13 15L14 15L14 13L15 13L15 12ZM27 12L27 13L28 13L28 12ZM6 14L6 15L7 15L7 16L5 16L5 17L7 17L7 18L5 18L5 19L7 19L7 18L8 18L8 17L7 17L7 16L8 16L8 14ZM20 14L20 15L19 15L19 16L20 16L20 15L21 15L21 14ZM15 15L15 19L17 19L17 18L16 18L16 16L17 16L17 17L18 17L18 18L20 18L20 17L18 17L18 16L17 16L17 15ZM23 15L23 16L22 16L22 17L23 17L23 18L24 18L24 17L23 17L23 16L24 16L24 15ZM2 19L2 20L3 20L3 19ZM21 21L21 24L24 24L24 21ZM22 22L22 23L23 23L23 22ZM10 25L10 26L9 26L9 27L12 27L12 25ZM13 25L13 26L14 26L14 25ZM17 27L17 28L18 28L18 27ZM13 28L13 29L14 29L14 28ZM0 0L0 7L7 7L7 0ZM1 1L1 6L6 6L6 1ZM2 2L2 5L5 5L5 2ZM22 0L22 7L29 7L29 0ZM23 1L23 6L28 6L28 1ZM24 2L24 5L27 5L27 2ZM0 22L0 29L7 29L7 22ZM1 23L1 28L6 28L6 23ZM2 24L2 27L5 27L5 24Z" fill="#000000"/></g></g></svg>
