<?xml version="1.0" encoding="UTF-8"?>
<svg xmlns="http://www.w3.org/2000/svg" version="1.1" width="200" height="200" viewBox="0 0 200 200"><rect x="0" y="0" width="200" height="200" fill="#ffffff"/><g transform="scale(6.897)"><g transform="translate(0,0)"><path fill-rule="evenodd" d="M9 0L9 1L8 1L8 7L9 7L9 8L5 8L5 10L4 10L4 11L5 11L5 12L3 12L3 11L2 11L2 12L1 12L1 13L2 13L2 12L3 12L3 14L1 14L1 15L0 15L0 17L2 17L2 18L0 18L0 19L2 19L2 20L0 20L0 21L2 21L2 20L3 20L3 21L5 21L5 20L3 20L3 19L2 19L2 18L4 18L4 19L7 19L7 20L6 20L6 21L7 21L7 20L8 20L8 24L9 24L9 25L10 25L10 28L9 28L9 29L11 29L11 27L14 27L14 26L15 26L15 29L16 29L16 28L17 28L17 27L16 27L16 26L18 26L18 21L15 21L15 20L14 20L14 21L11 21L11 22L13 22L13 23L12 23L12 25L13 25L13 24L14 24L14 26L11 26L11 25L10 25L10 23L9 23L9 22L10 22L10 21L9 21L9 20L10 20L10 19L11 19L11 20L12 20L12 19L14 19L14 18L15 18L15 19L16 19L16 20L17 20L17 18L16 18L16 17L17 17L17 15L16 15L16 14L17 14L17 12L16 12L16 11L15 11L15 9L14 9L14 10L13 10L13 11L12 11L12 10L11 10L11 9L13 9L13 8L15 8L15 6L16 6L16 7L17 7L17 9L16 9L16 10L18 10L18 7L19 7L19 8L20 8L20 11L19 11L19 12L18 12L18 13L19 13L19 12L20 12L20 13L21 13L21 12L22 12L22 14L18 14L18 15L21 15L21 19L22 19L22 20L19 20L19 19L20 19L20 18L19 18L19 19L18 19L18 20L19 20L19 21L20 21L20 22L19 22L19 23L20 23L20 24L19 24L19 26L20 26L20 27L21 27L21 29L22 29L22 28L24 28L24 29L25 29L25 28L24 28L24 26L23 26L23 27L22 27L22 26L21 26L21 25L25 25L25 23L26 23L26 21L27 21L27 18L28 18L28 19L29 19L29 18L28 18L28 17L29 17L29 16L28 16L28 15L27 15L27 17L25 17L25 16L22 16L22 15L25 15L25 14L26 14L26 13L29 13L29 12L27 12L27 11L29 11L29 9L28 9L28 8L23 8L23 10L22 10L22 11L21 11L21 9L22 9L22 8L20 8L20 7L21 7L21 0L19 0L19 1L20 1L20 2L19 2L19 3L20 3L20 5L16 5L16 4L17 4L17 3L18 3L18 2L17 2L17 1L18 1L18 0L17 0L17 1L15 1L15 2L12 2L12 1L13 1L13 0L12 0L12 1L11 1L11 0ZM9 1L9 5L12 5L12 6L11 6L11 8L13 8L13 7L14 7L14 4L13 4L13 5L12 5L12 3L11 3L11 4L10 4L10 2L11 2L11 1ZM16 2L16 3L15 3L15 4L16 4L16 3L17 3L17 2ZM9 6L9 7L10 7L10 6ZM12 6L12 7L13 7L13 6ZM17 6L17 7L18 7L18 6ZM19 6L19 7L20 7L20 6ZM2 8L2 9L1 9L1 10L0 10L0 11L1 11L1 10L3 10L3 8ZM6 9L6 10L7 10L7 9ZM9 9L9 10L8 10L8 14L7 14L7 13L6 13L6 12L7 12L7 11L6 11L6 12L5 12L5 14L4 14L4 15L6 15L6 16L5 16L5 18L7 18L7 17L8 17L8 16L9 16L9 19L8 19L8 20L9 20L9 19L10 19L10 17L11 17L11 19L12 19L12 17L13 17L13 18L14 18L14 17L13 17L13 16L11 16L11 14L9 14L9 13L11 13L11 10L10 10L10 9ZM25 9L25 10L24 10L24 11L27 11L27 10L28 10L28 9ZM9 10L9 12L10 12L10 10ZM13 11L13 14L12 14L12 15L14 15L14 16L15 16L15 17L16 17L16 15L14 15L14 14L16 14L16 12L15 12L15 13L14 13L14 11ZM23 12L23 14L25 14L25 13L24 13L24 12ZM6 14L6 15L7 15L7 16L6 16L6 17L7 17L7 16L8 16L8 15L7 15L7 14ZM1 15L1 16L2 16L2 17L4 17L4 16L3 16L3 15ZM19 16L19 17L20 17L20 16ZM22 17L22 18L25 18L25 19L26 19L26 18L25 18L25 17ZM23 19L23 20L24 20L24 19ZM21 21L21 24L24 24L24 21ZM14 22L14 24L16 24L16 23L17 23L17 22ZM22 22L22 23L23 23L23 22ZM27 22L27 24L26 24L26 25L29 25L29 23L28 23L28 22ZM8 26L8 27L9 27L9 26ZM27 26L27 27L28 27L28 28L26 28L26 29L29 29L29 26ZM18 28L18 29L19 29L19 28ZM0 0L0 7L7 7L7 0ZM1 1L1 6L6 6L6 1ZM2 2L2 5L5 5L5 2ZM22 0L22 7L29 7L29 0ZM23 1L23 6L28 6L28 1ZM24 2L24 5L27 5L27 2ZM0 22L0 29L7 29L7 22ZM1 23L1 28L6 28L6 23ZM2 24L2 27L5 27L5 24Z" fill="#000000"/></g></g></svg>
