<?xml version="1.0" encoding="UTF-8"?>
<svg xmlns="http://www.w3.org/2000/svg" version="1.1" width="200" height="200" viewBox="0 0 200 200"><rect x="0" y="0" width="200" height="200" fill="#ffffff"/><g transform="scale(4.878)"><g transform="translate(0,0)"><path fill-rule="evenodd" d="M10 0L10 1L12 1L12 2L10 2L10 3L9 3L9 5L8 5L8 8L4 8L4 9L1 9L1 10L5 10L5 9L8 9L8 8L9 8L9 11L7 11L7 10L6 10L6 11L7 11L7 12L5 12L5 11L4 11L4 12L3 12L3 11L2 11L2 12L1 12L1 15L0 15L0 16L1 16L1 18L0 18L0 21L1 21L1 22L0 22L0 23L2 23L2 24L3 24L3 26L2 26L2 25L1 25L1 24L0 24L0 25L1 25L1 28L0 28L0 30L2 30L2 31L3 31L3 32L0 32L0 33L4 33L4 32L6 32L6 33L8 33L8 37L9 37L9 33L10 33L10 34L12 34L12 32L9 32L9 31L13 31L13 35L15 35L15 36L16 36L16 38L15 38L15 37L14 37L14 38L15 38L15 39L16 39L16 38L17 38L17 40L15 40L15 41L20 41L20 40L21 40L21 41L22 41L22 40L24 40L24 39L25 39L25 40L26 40L26 41L27 41L27 39L28 39L28 40L29 40L29 41L30 41L30 40L31 40L31 41L33 41L33 39L34 39L34 40L35 40L35 39L34 39L34 37L36 37L36 38L37 38L37 35L38 35L38 34L39 34L39 37L40 37L40 38L38 38L38 39L36 39L36 40L37 40L37 41L40 41L40 40L41 40L41 37L40 37L40 36L41 36L41 33L40 33L40 34L39 34L39 33L38 33L38 30L39 30L39 31L41 31L41 29L40 29L40 30L39 30L39 28L41 28L41 24L40 24L40 23L41 23L41 22L40 22L40 21L41 21L41 13L40 13L40 12L41 12L41 9L40 9L40 8L39 8L39 9L36 9L36 8L34 8L34 9L33 9L33 3L28 3L28 2L30 2L30 1L31 1L31 2L33 2L33 1L31 1L31 0L29 0L29 1L28 1L28 0L27 0L27 1L26 1L26 0L25 0L25 1L24 1L24 0L21 0L21 1L20 1L20 0L17 0L17 1L18 1L18 2L17 2L17 3L16 3L16 1L14 1L14 0ZM8 1L8 2L9 2L9 1ZM13 1L13 2L12 2L12 3L13 3L13 4L12 4L12 5L11 5L11 7L10 7L10 6L9 6L9 7L10 7L10 9L11 9L11 10L10 10L10 11L9 11L9 12L10 12L10 11L11 11L11 10L13 10L13 12L11 12L11 14L10 14L10 13L8 13L8 14L9 14L9 16L10 16L10 17L8 17L8 16L7 16L7 15L5 15L5 13L3 13L3 12L2 12L2 13L3 13L3 14L2 14L2 15L1 15L1 16L2 16L2 15L3 15L3 18L5 18L5 19L6 19L6 20L7 20L7 19L8 19L8 20L9 20L9 19L8 19L8 18L11 18L11 19L10 19L10 21L12 21L12 22L11 22L11 25L9 25L9 24L10 24L10 22L9 22L9 24L8 24L8 23L6 23L6 22L7 22L7 21L5 21L5 20L3 20L3 19L2 19L2 18L1 18L1 20L2 20L2 22L3 22L3 23L4 23L4 26L3 26L3 27L4 27L4 28L5 28L5 27L6 27L6 28L7 28L7 27L6 27L6 26L7 26L7 25L6 25L6 26L5 26L5 24L8 24L8 28L9 28L9 29L8 29L8 30L7 30L7 29L4 29L4 30L3 30L3 29L2 29L2 28L1 28L1 29L2 29L2 30L3 30L3 31L5 31L5 30L7 30L7 31L6 31L6 32L8 32L8 30L11 30L11 27L13 27L13 28L12 28L12 30L14 30L14 34L16 34L16 33L17 33L17 32L18 32L18 33L19 33L19 34L17 34L17 35L16 35L16 36L17 36L17 37L20 37L20 39L18 39L18 40L20 40L20 39L22 39L22 38L21 38L21 36L22 36L22 37L24 37L24 38L25 38L25 39L26 39L26 38L27 38L27 37L28 37L28 38L29 38L29 39L30 39L30 37L31 37L31 38L32 38L32 39L33 39L33 38L32 38L32 37L31 37L31 36L32 36L32 35L30 35L30 34L32 34L32 32L31 32L31 31L30 31L30 29L31 29L31 28L33 28L33 29L32 29L32 31L33 31L33 32L34 32L34 31L35 31L35 32L37 32L37 30L36 30L36 29L37 29L37 27L36 27L36 25L37 25L37 26L38 26L38 28L39 28L39 25L37 25L37 24L39 24L39 23L40 23L40 22L39 22L39 23L37 23L37 22L38 22L38 21L39 21L39 20L40 20L40 17L39 17L39 16L40 16L40 15L39 15L39 14L38 14L38 13L37 13L37 11L35 11L35 10L36 10L36 9L35 9L35 10L33 10L33 9L29 9L29 8L28 8L28 9L29 9L29 10L31 10L31 12L32 12L32 13L33 13L33 14L35 14L35 16L34 16L34 15L32 15L32 14L30 14L30 13L29 13L29 11L28 11L28 12L27 12L27 11L26 11L26 12L25 12L25 11L24 11L24 10L21 10L21 11L24 11L24 12L25 12L25 13L24 13L24 16L23 16L23 15L22 15L22 14L23 14L23 13L22 13L22 14L21 14L21 12L19 12L19 11L17 11L17 10L18 10L18 9L17 9L17 7L18 7L18 8L19 8L19 9L20 9L20 5L19 5L19 4L21 4L21 2L20 2L20 3L19 3L19 2L18 2L18 5L15 5L15 4L16 4L16 3L13 3L13 2L14 2L14 1ZM22 1L22 2L24 2L24 3L23 3L23 4L22 4L22 5L21 5L21 7L22 7L22 6L23 6L23 8L26 8L26 5L27 5L27 7L28 7L28 5L27 5L27 4L28 4L28 3L26 3L26 2L24 2L24 1ZM27 1L27 2L28 2L28 1ZM24 3L24 4L23 4L23 5L26 5L26 4L25 4L25 3ZM29 4L29 5L30 5L30 6L29 6L29 7L30 7L30 8L31 8L31 7L32 7L32 6L31 6L31 5L32 5L32 4L31 4L31 5L30 5L30 4ZM12 5L12 7L11 7L11 9L13 9L13 8L14 8L14 7L15 7L15 5L14 5L14 7L13 7L13 5ZM18 5L18 7L19 7L19 5ZM16 6L16 7L17 7L17 6ZM24 6L24 7L25 7L25 6ZM30 6L30 7L31 7L31 6ZM15 8L15 9L14 9L14 11L15 11L15 13L16 13L16 15L17 15L17 17L18 17L18 20L17 20L17 18L15 18L15 19L14 19L14 18L12 18L12 17L16 17L16 16L12 16L12 15L13 15L13 13L14 13L14 12L13 12L13 13L12 13L12 14L11 14L11 16L12 16L12 17L11 17L11 18L12 18L12 19L11 19L11 20L13 20L13 21L14 21L14 20L16 20L16 21L15 21L15 22L14 22L14 23L15 23L15 24L14 24L14 26L13 26L13 25L12 25L12 26L13 26L13 27L14 27L14 26L16 26L16 28L13 28L13 29L16 29L16 28L17 28L17 26L16 26L16 23L17 23L17 24L18 24L18 23L19 23L19 24L21 24L21 23L22 23L22 26L24 26L24 28L22 28L22 29L21 29L21 30L22 30L22 31L20 31L20 32L19 32L19 33L23 33L23 32L24 32L24 31L25 31L25 32L29 32L29 33L26 33L26 35L25 35L25 36L26 36L26 37L27 37L27 36L28 36L28 37L29 37L29 36L28 36L28 34L30 34L30 33L31 33L31 32L30 32L30 31L28 31L28 30L27 30L27 28L28 28L28 29L30 29L30 28L31 28L31 26L30 26L30 25L32 25L32 27L34 27L34 28L35 28L35 29L36 29L36 28L35 28L35 25L36 25L36 23L35 23L35 21L36 21L36 22L37 22L37 21L38 21L38 19L37 19L37 18L38 18L38 14L37 14L37 13L36 13L36 15L37 15L37 17L36 17L36 16L35 16L35 17L34 17L34 18L35 18L35 19L34 19L34 20L35 20L35 21L33 21L33 20L32 20L32 21L33 21L33 22L32 22L32 23L33 23L33 24L35 24L35 25L32 25L32 24L30 24L30 21L31 21L31 19L30 19L30 18L28 18L28 16L27 16L27 18L26 18L26 19L27 19L27 20L28 20L28 21L27 21L27 22L26 22L26 23L24 23L24 24L23 24L23 23L22 23L22 22L24 22L24 21L26 21L26 20L25 20L25 16L26 16L26 15L27 15L27 14L26 14L26 13L27 13L27 12L26 12L26 13L25 13L25 14L26 14L26 15L25 15L25 16L24 16L24 17L23 17L23 19L22 19L22 20L21 20L21 18L22 18L22 15L21 15L21 14L20 14L20 13L17 13L17 11L15 11L15 9L16 9L16 8ZM25 9L25 10L27 10L27 9ZM32 11L32 12L33 12L33 13L35 13L35 12L34 12L34 11ZM38 11L38 12L40 12L40 11ZM6 13L6 14L7 14L7 13ZM28 13L28 15L29 15L29 17L32 17L32 18L33 18L33 17L32 17L32 16L31 16L31 15L30 15L30 14L29 14L29 13ZM14 14L14 15L15 15L15 14ZM19 14L19 20L18 20L18 21L17 21L17 23L18 23L18 21L19 21L19 20L20 20L20 14ZM4 15L4 17L7 17L7 18L6 18L6 19L7 19L7 18L8 18L8 17L7 17L7 16L5 16L5 15ZM35 17L35 18L36 18L36 17ZM13 19L13 20L14 20L14 19ZM23 19L23 20L24 20L24 19ZM28 19L28 20L29 20L29 21L28 21L28 23L27 23L27 24L25 24L25 26L26 26L26 28L24 28L24 29L25 29L25 31L27 31L27 30L26 30L26 28L27 28L27 26L26 26L26 25L28 25L28 28L29 28L29 25L28 25L28 24L29 24L29 21L30 21L30 20L29 20L29 19ZM35 19L35 20L36 20L36 19ZM3 21L3 22L4 22L4 23L5 23L5 21ZM20 21L20 22L19 22L19 23L20 23L20 22L22 22L22 21ZM12 22L12 24L13 24L13 22ZM15 22L15 23L16 23L16 22ZM33 22L33 23L34 23L34 22ZM18 25L18 27L19 27L19 28L18 28L18 30L16 30L16 31L15 31L15 32L17 32L17 31L18 31L18 30L19 30L19 28L21 28L21 26L20 26L20 25ZM4 26L4 27L5 27L5 26ZM9 26L9 28L10 28L10 27L11 27L11 26ZM19 26L19 27L20 27L20 26ZM33 29L33 30L34 30L34 29ZM33 33L33 36L36 36L36 33ZM19 34L19 35L17 35L17 36L20 36L20 35L21 35L21 34ZM34 34L34 35L35 35L35 34ZM11 35L11 36L10 36L10 37L11 37L11 39L10 39L10 40L9 40L9 41L11 41L11 39L12 39L12 41L13 41L13 39L12 39L12 38L13 38L13 36L12 36L12 35ZM22 35L22 36L24 36L24 35ZM26 35L26 36L27 36L27 35ZM11 36L11 37L12 37L12 36ZM0 0L0 7L7 7L7 0ZM1 1L1 6L6 6L6 1ZM2 2L2 5L5 5L5 2ZM34 0L34 7L41 7L41 0ZM35 1L35 6L40 6L40 1ZM36 2L36 5L39 5L39 2ZM0 34L0 41L7 41L7 34ZM1 35L1 40L6 40L6 35ZM2 36L2 39L5 39L5 36Z" fill="#000000"/></g></g></svg>
