<?xml version="1.0" encoding="UTF-8"?>
<svg xmlns="http://www.w3.org/2000/svg" version="1.1" width="200" height="200" viewBox="0 0 200 200"><rect x="0" y="0" width="200" height="200" fill="#ffffff"/><g transform="scale(4.878)"><g transform="translate(0,0)"><path fill-rule="evenodd" d="M9 0L9 1L8 1L8 2L9 2L9 1L11 1L11 2L10 2L10 5L12 5L12 4L11 4L11 3L13 3L13 4L15 4L15 5L14 5L14 7L15 7L15 6L16 6L16 8L17 8L17 5L16 5L16 4L15 4L15 3L16 3L16 2L15 2L15 1L14 1L14 2L13 2L13 1L12 1L12 0ZM16 0L16 1L17 1L17 3L18 3L18 7L19 7L19 5L21 5L21 6L20 6L20 7L21 7L21 6L22 6L22 8L21 8L21 9L20 9L20 10L21 10L21 11L20 11L20 12L19 12L19 13L20 13L20 14L19 14L19 15L15 15L15 14L14 14L14 16L12 16L12 17L13 17L13 18L12 18L12 19L13 19L13 18L14 18L14 17L15 17L15 18L16 18L16 19L17 19L17 18L18 18L18 17L19 17L19 16L20 16L20 17L21 17L21 18L19 18L19 21L18 21L18 22L20 22L20 23L19 23L19 25L18 25L18 24L17 24L17 23L16 23L16 22L17 22L17 21L16 21L16 20L15 20L15 19L14 19L14 20L15 20L15 21L16 21L16 22L15 22L15 24L14 24L14 21L12 21L12 20L11 20L11 17L9 17L9 16L8 16L8 15L7 15L7 14L6 14L6 13L7 13L7 12L9 12L9 13L8 13L8 14L9 14L9 13L11 13L11 14L10 14L10 15L11 15L11 14L12 14L12 15L13 15L13 14L12 14L12 13L16 13L16 14L18 14L18 12L17 12L17 11L19 11L19 9L18 9L18 10L13 10L13 9L12 9L12 8L13 8L13 6L12 6L12 7L11 7L11 6L10 6L10 7L9 7L9 5L8 5L8 8L4 8L4 10L3 10L3 9L2 9L2 10L3 10L3 11L1 11L1 9L0 9L0 11L1 11L1 13L0 13L0 14L1 14L1 15L2 15L2 17L4 17L4 16L5 16L5 18L4 18L4 20L5 20L5 18L6 18L6 19L8 19L8 17L9 17L9 18L10 18L10 19L9 19L9 20L6 20L6 21L4 21L4 23L2 23L2 22L3 22L3 18L2 18L2 20L1 20L1 19L0 19L0 20L1 20L1 21L2 21L2 22L1 22L1 23L2 23L2 24L1 24L1 26L2 26L2 24L5 24L5 25L4 25L4 26L3 26L3 28L4 28L4 29L3 29L3 30L2 30L2 29L1 29L1 28L2 28L2 27L1 27L1 28L0 28L0 30L2 30L2 32L0 32L0 33L3 33L3 31L4 31L4 33L7 33L7 32L5 32L5 31L7 31L7 30L6 30L6 29L7 29L7 28L8 28L8 30L10 30L10 31L8 31L8 37L9 37L9 33L12 33L12 32L15 32L15 34L12 34L12 35L10 35L10 36L11 36L11 38L10 38L10 39L11 39L11 40L12 40L12 39L16 39L16 37L18 37L18 38L20 38L20 39L18 39L18 40L17 40L17 41L18 41L18 40L19 40L19 41L21 41L21 40L22 40L22 41L24 41L24 37L23 37L23 40L22 40L22 38L21 38L21 37L22 37L22 35L23 35L23 36L24 36L24 33L23 33L23 32L24 32L24 31L25 31L25 32L28 32L28 33L26 33L26 34L25 34L25 35L26 35L26 36L25 36L25 37L26 37L26 38L25 38L25 39L26 39L26 40L25 40L25 41L26 41L26 40L28 40L28 41L33 41L33 39L34 39L34 40L35 40L35 39L34 39L34 37L36 37L36 38L37 38L37 35L39 35L39 36L40 36L40 35L41 35L41 29L40 29L40 28L41 28L41 24L40 24L40 23L41 23L41 22L40 22L40 21L41 21L41 13L39 13L39 12L38 12L38 11L40 11L40 12L41 12L41 9L40 9L40 8L39 8L39 9L36 9L36 8L34 8L34 9L33 9L33 5L31 5L31 3L32 3L32 2L33 2L33 0L32 0L32 1L31 1L31 3L29 3L29 4L30 4L30 7L29 7L29 6L28 6L28 7L27 7L27 5L28 5L28 4L27 4L27 5L26 5L26 4L25 4L25 3L24 3L24 5L23 5L23 2L26 2L26 3L28 3L28 2L30 2L30 0L29 0L29 1L28 1L28 0L27 0L27 1L26 1L26 0L24 0L24 1L22 1L22 2L21 2L21 3L22 3L22 5L21 5L21 4L20 4L20 3L19 3L19 2L20 2L20 1L21 1L21 0L19 0L19 1L17 1L17 0ZM27 1L27 2L28 2L28 1ZM22 5L22 6L23 6L23 8L22 8L22 9L21 9L21 10L22 10L22 11L21 11L21 12L20 12L20 13L21 13L21 14L22 14L22 12L23 12L23 10L24 10L24 13L23 13L23 15L25 15L25 16L26 16L26 18L25 18L25 17L24 17L24 16L23 16L23 17L22 17L22 18L21 18L21 19L20 19L20 20L22 20L22 19L23 19L23 18L25 18L25 23L26 23L26 24L27 24L27 25L29 25L29 24L28 24L28 23L27 23L27 21L28 21L28 22L31 22L31 23L32 23L32 24L33 24L33 25L30 25L30 26L31 26L31 28L30 28L30 29L28 29L28 28L29 28L29 27L28 27L28 28L27 28L27 26L26 26L26 25L25 25L25 26L26 26L26 27L25 27L25 28L26 28L26 30L28 30L28 31L31 31L31 30L30 30L30 29L31 29L31 28L32 28L32 27L33 27L33 29L32 29L32 31L33 31L33 32L34 32L34 31L35 31L35 30L36 30L36 32L37 32L37 34L38 34L38 33L39 33L39 34L40 34L40 31L38 31L38 29L37 29L37 26L38 26L38 28L39 28L39 25L37 25L37 24L39 24L39 23L40 23L40 22L39 22L39 23L38 23L38 21L39 21L39 20L40 20L40 17L39 17L39 16L40 16L40 15L38 15L38 13L37 13L37 10L36 10L36 9L35 9L35 10L33 10L33 9L28 9L28 8L27 8L27 9L28 9L28 11L30 11L30 12L31 12L31 11L32 11L32 13L33 13L33 14L36 14L36 15L35 15L35 16L34 16L34 15L32 15L32 14L30 14L30 13L29 13L29 12L27 12L27 16L26 16L26 14L24 14L24 13L26 13L26 12L25 12L25 9L24 9L24 8L25 8L25 7L26 7L26 6L25 6L25 5L24 5L24 6L23 6L23 5ZM24 6L24 7L25 7L25 6ZM31 6L31 7L32 7L32 6ZM10 7L10 8L8 8L8 9L10 9L10 10L12 10L12 11L10 11L10 12L11 12L11 13L12 13L12 12L15 12L15 11L13 11L13 10L12 10L12 9L10 9L10 8L11 8L11 7ZM5 9L5 10L4 10L4 12L3 12L3 13L1 13L1 14L3 14L3 15L6 15L6 16L7 16L7 15L6 15L6 14L5 14L5 13L4 13L4 12L7 12L7 11L6 11L6 10L7 10L7 9ZM26 10L26 11L27 11L27 10ZM32 10L32 11L33 11L33 13L35 13L35 12L34 12L34 11L33 11L33 10ZM3 13L3 14L4 14L4 13ZM28 13L28 15L29 15L29 17L32 17L32 19L33 19L33 17L32 17L32 16L30 16L30 15L29 15L29 13ZM36 13L36 14L37 14L37 13ZM20 15L20 16L22 16L22 15ZM37 15L37 17L36 17L36 16L35 16L35 17L34 17L34 18L35 18L35 19L34 19L34 20L35 20L35 21L32 21L32 20L31 20L31 19L30 19L30 18L28 18L28 16L27 16L27 18L26 18L26 19L28 19L28 21L29 21L29 20L30 20L30 21L32 21L32 22L34 22L34 23L33 23L33 24L35 24L35 25L33 25L33 27L34 27L34 28L35 28L35 29L36 29L36 30L37 30L37 29L36 29L36 26L37 26L37 25L36 25L36 23L35 23L35 21L36 21L36 22L37 22L37 18L39 18L39 17L38 17L38 15ZM15 16L15 17L16 17L16 16ZM17 16L17 17L18 17L18 16ZM0 17L0 18L1 18L1 17ZM6 17L6 18L7 18L7 17ZM35 17L35 18L36 18L36 17ZM35 19L35 20L36 20L36 19ZM9 20L9 21L6 21L6 22L7 22L7 23L6 23L6 24L8 24L8 25L6 25L6 26L5 26L5 27L4 27L4 28L7 28L7 27L8 27L8 28L9 28L9 27L10 27L10 23L9 23L9 24L8 24L8 22L11 22L11 23L13 23L13 22L12 22L12 21L11 21L11 20ZM23 20L23 21L24 21L24 20ZM26 20L26 21L27 21L27 20ZM20 21L20 22L21 22L21 21ZM23 23L23 25L19 25L19 26L20 26L20 27L21 27L21 28L22 28L22 29L21 29L21 30L22 30L22 31L23 31L23 30L22 30L22 29L23 29L23 28L24 28L24 27L22 27L22 26L23 26L23 25L24 25L24 23ZM12 24L12 25L11 25L11 26L12 26L12 25L13 25L13 24ZM15 24L15 26L13 26L13 27L11 27L11 28L13 28L13 29L10 29L10 30L11 30L11 31L12 31L12 30L14 30L14 31L15 31L15 32L16 32L16 33L17 33L17 34L15 34L15 35L17 35L17 36L18 36L18 35L19 35L19 36L20 36L20 37L21 37L21 36L20 36L20 35L22 35L22 34L23 34L23 33L21 33L21 31L20 31L20 30L19 30L19 31L18 31L18 29L19 29L19 28L17 28L17 27L18 27L18 25L17 25L17 24ZM16 25L16 26L15 26L15 27L14 27L14 28L15 28L15 29L16 29L16 30L15 30L15 31L16 31L16 32L18 32L18 31L17 31L17 29L16 29L16 28L15 28L15 27L16 27L16 26L17 26L17 25ZM35 25L35 26L36 26L36 25ZM6 26L6 27L7 27L7 26ZM24 29L24 30L25 30L25 29ZM33 29L33 30L34 30L34 29ZM39 29L39 30L40 30L40 29ZM4 30L4 31L5 31L5 30ZM19 31L19 33L18 33L18 34L21 34L21 33L20 33L20 31ZM31 32L31 33L30 33L30 34L29 34L29 33L28 33L28 34L29 34L29 37L28 37L28 39L30 39L30 40L31 40L31 38L30 38L30 37L31 37L31 36L32 36L32 35L30 35L30 34L32 34L32 32ZM33 33L33 36L36 36L36 33ZM26 34L26 35L27 35L27 34ZM34 34L34 35L35 35L35 34ZM12 35L12 38L11 38L11 39L12 39L12 38L14 38L14 37L16 37L16 36L14 36L14 37L13 37L13 35ZM26 36L26 37L27 37L27 36ZM40 37L40 38L38 38L38 39L36 39L36 40L37 40L37 41L40 41L40 40L41 40L41 37ZM32 38L32 39L33 39L33 38ZM20 39L20 40L21 40L21 39ZM13 40L13 41L16 41L16 40ZM0 0L0 7L7 7L7 0ZM1 1L1 6L6 6L6 1ZM2 2L2 5L5 5L5 2ZM34 0L34 7L41 7L41 0ZM35 1L35 6L40 6L40 1ZM36 2L36 5L39 5L39 2ZM0 34L0 41L7 41L7 34ZM1 35L1 40L6 40L6 35ZM2 36L2 39L5 39L5 36Z" fill="#000000"/></g></g></svg>
