<?xml version="1.0" encoding="UTF-8"?>
<svg xmlns="http://www.w3.org/2000/svg" version="1.1" width="200" height="200" viewBox="0 0 200 200"><rect x="0" y="0" width="200" height="200" fill="#ffffff"/><g transform="scale(6.897)"><g transform="translate(0,0)"><path fill-rule="evenodd" d="M8 0L8 3L10 3L10 4L9 4L9 5L8 5L8 9L7 9L7 8L6 8L6 9L7 9L7 10L5 10L5 8L2 8L2 9L1 9L1 10L4 10L4 11L0 11L0 12L1 12L1 13L0 13L0 14L1 14L1 15L2 15L2 13L3 13L3 12L4 12L4 14L5 14L5 15L7 15L7 16L3 16L3 18L2 18L2 17L0 17L0 21L1 21L1 18L2 18L2 21L7 21L7 20L11 20L11 21L8 21L8 22L10 22L10 23L11 23L11 22L12 22L12 23L13 23L13 25L15 25L15 26L13 26L13 27L12 27L12 28L10 28L10 27L11 27L11 26L12 26L12 24L11 24L11 25L10 25L10 24L8 24L8 27L9 27L9 28L10 28L10 29L12 29L12 28L13 28L13 29L15 29L15 28L14 28L14 27L16 27L16 25L15 25L15 24L14 24L14 23L15 23L15 22L14 22L14 21L15 21L15 20L16 20L16 22L18 22L18 21L17 21L17 18L19 18L19 15L18 15L18 16L17 16L17 15L16 15L16 14L15 14L15 13L16 13L16 12L14 12L14 9L15 9L15 10L17 10L17 14L18 14L18 13L20 13L20 12L21 12L21 11L20 11L20 10L22 10L22 9L23 9L23 10L24 10L24 8L21 8L21 9L20 9L20 7L21 7L21 5L20 5L20 4L21 4L21 3L20 3L20 4L19 4L19 3L18 3L18 4L17 4L17 2L16 2L16 1L15 1L15 2L14 2L14 7L15 7L15 5L16 5L16 4L17 4L17 6L16 6L16 8L14 8L14 9L13 9L13 6L12 6L12 10L11 10L11 5L12 5L12 4L13 4L13 3L11 3L11 1L14 1L14 0L11 0L11 1L10 1L10 0ZM9 1L9 2L10 2L10 1ZM18 1L18 2L19 2L19 1ZM20 1L20 2L21 2L21 1ZM15 2L15 4L16 4L16 2ZM10 4L10 5L9 5L9 7L10 7L10 5L11 5L11 4ZM18 5L18 6L17 6L17 7L18 7L18 6L19 6L19 7L20 7L20 6L19 6L19 5ZM9 8L9 9L8 9L8 10L7 10L7 11L6 11L6 12L5 12L5 11L4 11L4 12L5 12L5 14L7 14L7 15L11 15L11 13L6 13L6 12L7 12L7 11L9 11L9 12L12 12L12 16L10 16L10 17L9 17L9 18L12 18L12 19L13 19L13 20L12 20L12 21L13 21L13 20L15 20L15 18L17 18L17 16L16 16L16 15L15 15L15 14L14 14L14 13L13 13L13 12L12 12L12 11L13 11L13 10L12 10L12 11L11 11L11 10L10 10L10 11L9 11L9 9L10 9L10 8ZM16 8L16 9L19 9L19 10L20 10L20 9L19 9L19 8ZM26 8L26 9L25 9L25 12L24 12L24 11L22 11L22 12L23 12L23 13L21 13L21 15L22 15L22 14L23 14L23 13L24 13L24 19L26 19L26 20L28 20L28 22L29 22L29 20L28 20L28 19L26 19L26 18L27 18L27 17L28 17L28 15L27 15L27 14L26 14L26 13L25 13L25 12L27 12L27 13L28 13L28 10L29 10L29 8ZM26 10L26 11L27 11L27 10ZM18 11L18 12L19 12L19 11ZM13 14L13 15L14 15L14 16L13 16L13 17L14 17L14 18L15 18L15 17L16 17L16 16L15 16L15 15L14 15L14 14ZM25 15L25 16L27 16L27 15ZM7 16L7 17L5 17L5 18L4 18L4 19L3 19L3 20L4 20L4 19L6 19L6 20L7 20L7 19L8 19L8 16ZM14 16L14 17L15 17L15 16ZM20 16L20 17L22 17L22 16ZM6 18L6 19L7 19L7 18ZM20 18L20 19L21 19L21 20L20 20L20 25L19 25L19 27L18 27L18 26L17 26L17 27L18 27L18 29L25 29L25 27L27 27L27 29L28 29L28 28L29 28L29 27L28 27L28 25L27 25L27 26L26 26L26 24L25 24L25 22L26 22L26 23L27 23L27 22L26 22L26 21L25 21L25 20L23 20L23 19L22 19L22 18ZM18 19L18 20L19 20L19 19ZM21 21L21 24L24 24L24 21ZM13 22L13 23L14 23L14 22ZM22 22L22 23L23 23L23 22ZM16 23L16 24L17 24L17 25L18 25L18 23ZM22 25L22 26L23 26L23 27L25 27L25 26L24 26L24 25ZM9 26L9 27L10 27L10 26ZM20 26L20 27L19 27L19 28L22 28L22 27L21 27L21 26ZM0 0L0 7L7 7L7 0ZM1 1L1 6L6 6L6 1ZM2 2L2 5L5 5L5 2ZM22 0L22 7L29 7L29 0ZM23 1L23 6L28 6L28 1ZM24 2L24 5L27 5L27 2ZM0 22L0 29L7 29L7 22ZM1 23L1 28L6 28L6 23ZM2 24L2 27L5 27L5 24Z" fill="#000000"/></g></g></svg>
