<?xml version="1.0" encoding="UTF-8"?>
<svg xmlns="http://www.w3.org/2000/svg" version="1.1" width="200" height="200" viewBox="0 0 200 200"><rect x="0" y="0" width="200" height="200" fill="#ffffff"/><g transform="scale(6.897)"><g transform="translate(0,0)"><path fill-rule="evenodd" d="M10 0L10 2L12 2L12 3L10 3L10 4L8 4L8 5L10 5L10 8L11 8L11 11L10 11L10 10L9 10L9 12L8 12L8 13L7 13L7 12L5 12L5 11L7 11L7 10L3 10L3 11L1 11L1 10L2 10L2 9L4 9L4 8L2 8L2 9L0 9L0 13L3 13L3 14L0 14L0 15L1 15L1 18L0 18L0 19L1 19L1 18L2 18L2 19L3 19L3 18L4 18L4 19L7 19L7 20L3 20L3 21L8 21L8 23L9 23L9 24L10 24L10 25L12 25L12 23L13 23L13 22L17 22L17 24L15 24L15 27L16 27L16 25L18 25L18 26L17 26L17 28L18 28L18 29L20 29L20 28L18 28L18 26L20 26L20 25L23 25L23 26L24 26L24 27L22 27L22 29L23 29L23 28L25 28L25 27L26 27L26 29L27 29L27 28L29 28L29 26L28 26L28 27L26 27L26 26L24 26L24 25L26 25L26 23L25 23L25 22L26 22L26 20L27 20L27 21L28 21L28 20L27 20L27 18L29 18L29 17L26 17L26 16L25 16L25 15L24 15L24 16L23 16L23 17L21 17L21 18L20 18L20 17L19 17L19 18L20 18L20 20L19 20L19 19L18 19L18 20L19 20L19 21L20 21L20 23L19 23L19 22L17 22L17 21L13 21L13 20L16 20L16 16L17 16L17 18L18 18L18 16L17 16L17 15L18 15L18 14L19 14L19 15L20 15L20 14L21 14L21 13L20 13L20 12L22 12L22 9L23 9L23 13L22 13L22 15L23 15L23 14L24 14L24 13L25 13L25 14L26 14L26 15L27 15L27 16L28 16L28 15L29 15L29 14L28 14L28 12L29 12L29 11L28 11L28 12L27 12L27 10L29 10L29 9L27 9L27 10L24 10L24 9L25 9L25 8L24 8L24 9L23 9L23 8L21 8L21 9L20 9L20 7L21 7L21 3L20 3L20 2L18 2L18 1L15 1L15 0L14 0L14 2L12 2L12 1L13 1L13 0ZM16 2L16 3L17 3L17 4L16 4L16 5L19 5L19 7L18 7L18 6L17 6L17 9L16 9L16 8L14 8L14 12L12 12L12 13L11 13L11 12L10 12L10 13L9 13L9 15L8 15L8 14L7 14L7 13L5 13L5 15L6 15L6 16L4 16L4 15L3 15L3 17L2 17L2 18L3 18L3 17L4 17L4 18L7 18L7 19L8 19L8 21L9 21L9 22L10 22L10 24L11 24L11 21L12 21L12 22L13 22L13 21L12 21L12 20L13 20L13 19L14 19L14 17L13 17L13 15L12 15L12 14L13 14L13 13L16 13L16 14L14 14L14 15L17 15L17 14L18 14L18 13L17 13L17 12L20 12L20 11L19 11L19 10L20 10L20 9L19 9L19 10L18 10L18 8L19 8L19 7L20 7L20 5L19 5L19 4L20 4L20 3L19 3L19 4L18 4L18 2ZM13 3L13 4L12 4L12 5L11 5L11 4L10 4L10 5L11 5L11 7L12 7L12 6L13 6L13 7L14 7L14 6L13 6L13 4L15 4L15 3ZM8 6L8 8L6 8L6 9L9 9L9 6ZM15 6L15 7L16 7L16 6ZM12 9L12 11L13 11L13 9ZM16 10L16 11L15 11L15 12L17 12L17 11L18 11L18 10ZM25 11L25 13L27 13L27 12L26 12L26 11ZM3 12L3 13L4 13L4 12ZM10 13L10 14L11 14L11 13ZM19 13L19 14L20 14L20 13ZM6 14L6 15L7 15L7 14ZM27 14L27 15L28 15L28 14ZM10 15L10 16L12 16L12 15ZM6 16L6 17L7 17L7 16ZM24 16L24 17L23 17L23 18L22 18L22 19L21 19L21 20L22 20L22 19L24 19L24 18L26 18L26 17L25 17L25 16ZM9 17L9 21L10 21L10 20L11 20L11 18L10 18L10 17ZM12 17L12 19L13 19L13 17ZM25 19L25 20L26 20L26 19ZM1 20L1 21L2 21L2 20ZM21 21L21 24L24 24L24 21ZM22 22L22 23L23 23L23 22ZM18 23L18 24L19 24L19 25L20 25L20 24L19 24L19 23ZM27 23L27 25L29 25L29 24L28 24L28 23ZM13 24L13 26L12 26L12 27L9 27L9 25L8 25L8 27L9 27L9 28L12 28L12 29L14 29L14 27L13 27L13 26L14 26L14 24ZM0 0L0 7L7 7L7 0ZM1 1L1 6L6 6L6 1ZM2 2L2 5L5 5L5 2ZM22 0L22 7L29 7L29 0ZM23 1L23 6L28 6L28 1ZM24 2L24 5L27 5L27 2ZM0 22L0 29L7 29L7 22ZM1 23L1 28L6 28L6 23ZM2 24L2 27L5 27L5 24Z" fill="#000000"/></g></g></svg>
