<?xml version="1.0" encoding="UTF-8"?>
<svg xmlns="http://www.w3.org/2000/svg" version="1.1" width="200" height="200" viewBox="0 0 200 200"><rect x="0" y="0" width="200" height="200" fill="#ffffff"/><g transform="scale(4.878)"><g transform="translate(0,0)"><path fill-rule="evenodd" d="M8 0L8 1L9 1L9 2L8 2L8 3L9 3L9 4L8 4L8 5L10 5L10 7L11 7L11 5L12 5L12 7L13 7L13 8L12 8L12 9L10 9L10 8L9 8L9 6L8 6L8 8L9 8L9 9L8 9L8 11L7 11L7 10L6 10L6 11L5 11L5 10L4 10L4 9L1 9L1 10L0 10L0 11L1 11L1 12L0 12L0 15L1 15L1 16L2 16L2 17L0 17L0 19L2 19L2 20L3 20L3 19L2 19L2 17L3 17L3 18L4 18L4 22L6 22L6 23L3 23L3 21L2 21L2 22L0 22L0 26L1 26L1 27L0 27L0 33L1 33L1 31L2 31L2 33L3 33L3 32L4 32L4 33L8 33L8 34L9 34L9 35L8 35L8 36L9 36L9 37L10 37L10 38L9 38L9 39L12 39L12 37L11 37L11 36L13 36L13 34L15 34L15 33L16 33L16 35L17 35L17 33L18 33L18 34L19 34L19 35L18 35L18 37L17 37L17 36L15 36L15 37L17 37L17 38L16 38L16 39L15 39L15 38L14 38L14 37L13 37L13 39L15 39L15 40L14 40L14 41L16 41L16 40L17 40L17 38L18 38L18 39L20 39L20 38L19 38L19 37L20 37L20 36L19 36L19 35L20 35L20 33L21 33L21 32L22 32L22 33L23 33L23 34L22 34L22 36L23 36L23 35L25 35L25 33L26 33L26 35L27 35L27 36L24 36L24 37L23 37L23 38L26 38L26 37L27 37L27 39L28 39L28 41L32 41L32 40L29 40L29 39L31 39L31 38L32 38L32 37L33 37L33 41L34 41L34 40L36 40L36 39L38 39L38 40L39 40L39 39L40 39L40 40L41 40L41 39L40 39L40 38L41 38L41 35L40 35L40 34L39 34L39 35L40 35L40 36L39 36L39 37L40 37L40 38L37 38L37 37L38 37L38 34L37 34L37 33L40 33L40 32L41 32L41 29L40 29L40 30L39 30L39 32L37 32L37 31L38 31L38 30L37 30L37 29L35 29L35 28L39 28L39 27L40 27L40 28L41 28L41 27L40 27L40 26L41 26L41 25L36 25L36 26L37 26L37 27L35 27L35 24L36 24L36 23L34 23L34 19L33 19L33 18L32 18L32 17L34 17L34 18L35 18L35 20L36 20L36 21L35 21L35 22L36 22L36 21L38 21L38 22L41 22L41 20L40 20L40 19L41 19L41 15L40 15L40 14L41 14L41 12L38 12L38 11L40 11L40 9L41 9L41 8L40 8L40 9L39 9L39 8L38 8L38 10L37 10L37 8L36 8L36 9L35 9L35 8L34 8L34 9L35 9L35 11L36 11L36 12L34 12L34 10L33 10L33 12L31 12L31 11L30 11L30 13L29 13L29 14L26 14L26 13L28 13L28 12L29 12L29 10L28 10L28 8L29 8L29 9L31 9L31 10L32 10L32 9L31 9L31 8L33 8L33 5L32 5L32 4L31 4L31 3L33 3L33 2L31 2L31 1L30 1L30 0L28 0L28 2L27 2L27 1L25 1L25 0L23 0L23 1L22 1L22 0L21 0L21 1L19 1L19 0L18 0L18 2L19 2L19 3L17 3L17 1L16 1L16 0L14 0L14 2L15 2L15 3L17 3L17 5L15 5L15 6L14 6L14 7L13 7L13 4L14 4L14 3L13 3L13 2L12 2L12 1L13 1L13 0L12 0L12 1L11 1L11 0L10 0L10 1L9 1L9 0ZM32 0L32 1L33 1L33 0ZM15 1L15 2L16 2L16 1ZM29 1L29 3L28 3L28 4L27 4L27 2L26 2L26 3L25 3L25 4L24 4L24 3L23 3L23 4L24 4L24 5L25 5L25 7L24 7L24 6L23 6L23 7L22 7L22 5L20 5L20 4L22 4L22 3L21 3L21 2L20 2L20 4L19 4L19 7L18 7L18 6L17 6L17 7L16 7L16 6L15 6L15 7L16 7L16 9L15 9L15 8L13 8L13 9L12 9L12 10L11 10L11 11L10 11L10 9L9 9L9 11L8 11L8 12L7 12L7 11L6 11L6 12L7 12L7 13L6 13L6 14L5 14L5 13L4 13L4 14L5 14L5 15L4 15L4 17L6 17L6 18L7 18L7 19L5 19L5 20L7 20L7 21L6 21L6 22L9 22L9 21L10 21L10 22L11 22L11 21L12 21L12 20L13 20L13 19L14 19L14 20L15 20L15 17L13 17L13 16L12 16L12 15L11 15L11 13L10 13L10 14L9 14L9 12L12 12L12 11L14 11L14 10L16 10L16 12L17 12L17 13L15 13L15 12L14 12L14 13L12 13L12 14L14 14L14 13L15 13L15 14L17 14L17 17L16 17L16 22L15 22L15 23L14 23L14 24L13 24L13 25L10 25L10 26L9 26L9 25L8 25L8 24L11 24L11 23L6 23L6 24L5 24L5 25L6 25L6 26L4 26L4 24L3 24L3 23L2 23L2 25L1 25L1 26L4 26L4 27L6 27L6 28L7 28L7 29L5 29L5 28L3 28L3 29L5 29L5 30L4 30L4 32L5 32L5 31L6 31L6 32L7 32L7 31L6 31L6 30L8 30L8 32L9 32L9 33L10 33L10 34L11 34L11 35L12 35L12 34L11 34L11 32L10 32L10 31L13 31L13 33L15 33L15 32L14 32L14 31L15 31L15 30L14 30L14 31L13 31L13 29L15 29L15 28L17 28L17 27L16 27L16 26L17 26L17 22L18 22L18 21L17 21L17 19L18 19L18 20L19 20L19 19L18 19L18 17L19 17L19 18L20 18L20 19L22 19L22 21L23 21L23 23L24 23L24 24L23 24L23 25L22 25L22 23L20 23L20 22L21 22L21 21L20 21L20 22L19 22L19 23L18 23L18 26L21 26L21 28L20 28L20 29L19 29L19 28L18 28L18 31L17 31L17 30L16 30L16 33L17 33L17 32L20 32L20 31L22 31L22 30L23 30L23 31L24 31L24 29L25 29L25 28L23 28L23 27L24 27L24 24L25 24L25 26L27 26L27 24L28 24L28 26L29 26L29 27L28 27L28 29L27 29L27 28L26 28L26 30L25 30L25 32L23 32L23 33L25 33L25 32L26 32L26 33L28 33L28 32L26 32L26 30L27 30L27 31L28 31L28 29L29 29L29 32L31 32L31 33L29 33L29 34L28 34L28 38L31 38L31 37L29 37L29 36L32 36L32 35L30 35L30 34L31 34L31 33L32 33L32 32L33 32L33 31L34 31L34 32L36 32L36 30L35 30L35 29L34 29L34 28L35 28L35 27L34 27L34 24L33 24L33 22L31 22L31 23L32 23L32 26L29 26L29 25L31 25L31 24L30 24L30 22L29 22L29 21L31 21L31 20L33 20L33 19L31 19L31 17L30 17L30 18L29 18L29 16L30 16L30 14L29 14L29 16L28 16L28 15L25 15L25 13L23 13L23 10L24 10L24 9L25 9L25 8L26 8L26 9L27 9L27 7L28 7L28 6L29 6L29 8L31 8L31 7L32 7L32 5L31 5L31 4L30 4L30 3L31 3L31 2L30 2L30 1ZM10 2L10 5L11 5L11 3L12 3L12 2ZM25 4L25 5L26 5L26 4ZM29 5L29 6L30 6L30 7L31 7L31 5ZM20 6L20 7L19 7L19 8L18 8L18 7L17 7L17 10L18 10L18 11L17 11L17 12L18 12L18 11L19 11L19 9L20 9L20 10L21 10L21 9L22 9L22 10L23 10L23 9L24 9L24 8L22 8L22 7L21 7L21 6ZM26 6L26 7L27 7L27 6ZM5 8L5 9L7 9L7 8ZM20 8L20 9L21 9L21 8ZM2 10L2 13L1 13L1 15L3 15L3 10ZM4 11L4 12L5 12L5 11ZM24 11L24 12L25 12L25 11ZM26 11L26 12L28 12L28 11ZM19 12L19 17L20 17L20 18L25 18L25 19L24 19L24 21L25 21L25 22L26 22L26 21L25 21L25 20L27 20L27 23L26 23L26 24L27 24L27 23L28 23L28 24L29 24L29 23L28 23L28 16L26 16L26 17L27 17L27 18L25 18L25 16L23 16L23 15L22 15L22 17L20 17L20 16L21 16L21 14L23 14L23 13L21 13L21 12ZM36 12L36 13L34 13L34 15L38 15L38 14L39 14L39 13L37 13L37 12ZM7 13L7 14L6 14L6 15L7 15L7 14L8 14L8 13ZM17 13L17 14L18 14L18 13ZM20 13L20 14L21 14L21 13ZM31 13L31 14L32 14L32 16L33 16L33 14L32 14L32 13ZM36 13L36 14L37 14L37 13ZM8 15L8 17L10 17L10 18L11 18L11 20L12 20L12 19L13 19L13 17L12 17L12 16L11 16L11 17L10 17L10 16L9 16L9 15ZM14 15L14 16L16 16L16 15ZM6 16L6 17L7 17L7 16ZM34 16L34 17L35 17L35 18L36 18L36 20L39 20L39 21L40 21L40 20L39 20L39 19L40 19L40 16L39 16L39 19L38 19L38 16L36 16L36 17L35 17L35 16ZM11 17L11 18L12 18L12 17ZM36 17L36 18L37 18L37 17ZM8 18L8 19L7 19L7 20L8 20L8 21L9 21L9 20L10 20L10 19L9 19L9 18ZM29 19L29 20L31 20L31 19ZM0 20L0 21L1 21L1 20ZM12 22L12 23L13 23L13 22ZM39 23L39 24L41 24L41 23ZM6 24L6 25L7 25L7 24ZM15 24L15 25L14 25L14 27L15 27L15 25L16 25L16 24ZM20 24L20 25L21 25L21 26L22 26L22 25L21 25L21 24ZM6 26L6 27L8 27L8 28L9 28L9 31L10 31L10 29L11 29L11 30L12 30L12 28L13 28L13 26L11 26L11 27L9 27L9 26ZM32 26L32 27L31 27L31 28L29 28L29 29L31 29L31 28L32 28L32 29L33 29L33 26ZM38 26L38 27L39 27L39 26ZM11 27L11 28L12 28L12 27ZM1 28L1 30L2 30L2 31L3 31L3 30L2 30L2 28ZM21 28L21 29L20 29L20 30L22 30L22 29L23 29L23 28ZM31 30L31 31L32 31L32 30ZM33 33L33 36L36 36L36 33ZM34 34L34 35L35 35L35 34ZM34 37L34 38L36 38L36 37ZM21 38L21 40L20 40L20 41L23 41L23 40L24 40L24 41L25 41L25 39L22 39L22 38ZM10 40L10 41L12 41L12 40ZM18 40L18 41L19 41L19 40ZM0 0L0 7L7 7L7 0ZM1 1L1 6L6 6L6 1ZM2 2L2 5L5 5L5 2ZM34 0L34 7L41 7L41 0ZM35 1L35 6L40 6L40 1ZM36 2L36 5L39 5L39 2ZM0 34L0 41L7 41L7 34ZM1 35L1 40L6 40L6 35ZM2 36L2 39L5 39L5 36Z" fill="#000000"/></g></g></svg>
