<?xml version="1.0" encoding="UTF-8"?>
<svg xmlns="http://www.w3.org/2000/svg" version="1.1" width="200" height="200" viewBox="0 0 200 200"><rect x="0" y="0" width="200" height="200" fill="#ffffff"/><g transform="scale(4.878)"><g transform="translate(0,0)"><path fill-rule="evenodd" d="M8 0L8 3L10 3L10 7L9 7L9 5L8 5L8 9L7 9L7 8L6 8L6 9L5 9L5 8L2 8L2 9L0 9L0 10L1 10L1 11L2 11L2 9L5 9L5 11L4 11L4 10L3 10L3 12L2 12L2 13L1 13L1 12L0 12L0 13L1 13L1 14L0 14L0 16L1 16L1 15L2 15L2 16L3 16L3 18L4 18L4 17L7 17L7 16L3 16L3 15L5 15L5 14L4 14L4 13L3 13L3 12L5 12L5 13L7 13L7 14L6 14L6 15L7 15L7 14L8 14L8 16L9 16L9 20L6 20L6 19L7 19L7 18L5 18L5 22L6 22L6 23L5 23L5 25L4 25L4 26L1 26L1 27L2 27L2 28L0 28L0 33L1 33L1 30L3 30L3 31L2 31L2 32L3 32L3 33L5 33L5 32L4 32L4 30L6 30L6 31L7 31L7 30L6 30L6 29L10 29L10 31L8 31L8 32L6 32L6 33L8 33L8 34L9 34L9 33L10 33L10 31L12 31L12 30L13 30L13 32L11 32L11 34L12 34L12 36L10 36L10 37L9 37L9 36L8 36L8 39L9 39L9 40L10 40L10 41L13 41L13 40L15 40L15 41L17 41L17 40L16 40L16 39L17 39L17 37L15 37L15 36L16 36L16 35L17 35L17 36L23 36L23 35L24 35L24 34L25 34L25 33L26 33L26 32L25 32L25 33L24 33L24 34L23 34L23 32L24 32L24 31L23 31L23 32L22 32L22 31L21 31L21 30L23 30L23 29L24 29L24 28L25 28L25 29L26 29L26 30L25 30L25 31L27 31L27 33L29 33L29 35L28 35L28 34L26 34L26 37L24 37L24 39L23 39L23 40L22 40L22 39L21 39L21 38L23 38L23 37L20 37L20 39L19 39L19 40L18 40L18 41L19 41L19 40L20 40L20 39L21 39L21 41L31 41L31 40L33 40L33 41L34 41L34 40L33 40L33 39L31 39L31 37L30 37L30 38L27 38L27 37L29 37L29 36L31 36L31 35L32 35L32 38L34 38L34 39L35 39L35 40L36 40L36 39L37 39L37 40L40 40L40 38L41 38L41 37L40 37L40 36L41 36L41 35L40 35L40 34L41 34L41 32L40 32L40 30L41 30L41 29L40 29L40 28L41 28L41 27L40 27L40 26L41 26L41 23L39 23L39 24L40 24L40 26L39 26L39 25L36 25L36 24L37 24L37 21L38 21L38 22L39 22L39 20L36 20L36 19L35 19L35 17L36 17L36 18L37 18L37 17L39 17L39 16L37 16L37 15L38 15L38 13L36 13L36 14L35 14L35 17L34 17L34 16L32 16L32 17L30 17L30 16L31 16L31 15L30 15L30 14L31 14L31 10L32 10L32 9L34 9L34 11L33 11L33 12L32 12L32 13L33 13L33 14L32 14L32 15L34 15L34 13L35 13L35 12L38 12L38 11L39 11L39 14L41 14L41 13L40 13L40 10L41 10L41 8L38 8L38 9L40 9L40 10L37 10L37 9L36 9L36 8L33 8L33 6L32 6L32 9L31 9L31 5L32 5L32 4L33 4L33 2L32 2L32 4L30 4L30 8L29 8L29 6L28 6L28 5L27 5L27 4L25 4L25 3L24 3L24 2L23 2L23 3L24 3L24 4L23 4L23 5L24 5L24 7L25 7L25 5L26 5L26 8L24 8L24 9L25 9L25 10L23 10L23 12L24 12L24 14L22 14L22 15L20 15L20 14L19 14L19 15L20 15L20 16L22 16L22 17L20 17L20 19L19 19L19 17L17 17L17 16L18 16L18 15L17 15L17 16L15 16L15 15L16 15L16 14L18 14L18 13L19 13L19 12L18 12L18 11L17 11L17 10L14 10L14 7L15 7L15 9L16 9L16 8L18 8L18 7L19 7L19 6L20 6L20 8L19 8L19 9L20 9L20 12L22 12L22 11L21 11L21 10L22 10L22 8L23 8L23 6L22 6L22 4L21 4L21 5L18 5L18 7L17 7L17 5L16 5L16 4L18 4L18 3L22 3L22 0L21 0L21 1L20 1L20 0L19 0L19 1L18 1L18 3L16 3L16 2L15 2L15 0L14 0L14 1L12 1L12 0L11 0L11 2L10 2L10 0ZM16 0L16 1L17 1L17 0ZM24 0L24 1L25 1L25 0ZM26 0L26 1L27 1L27 2L26 2L26 3L28 3L28 4L29 4L29 3L31 3L31 2L30 2L30 1L33 1L33 0L29 0L29 1L27 1L27 0ZM19 1L19 2L20 2L20 1ZM12 2L12 5L11 5L11 7L10 7L10 8L9 8L9 9L8 9L8 12L7 12L7 11L6 11L6 12L7 12L7 13L8 13L8 14L9 14L9 15L10 15L10 16L11 16L11 17L10 17L10 19L11 19L11 20L9 20L9 21L6 21L6 22L8 22L8 24L7 24L7 23L6 23L6 24L7 24L7 25L5 25L5 26L4 26L4 27L6 27L6 28L5 28L5 29L6 29L6 28L7 28L7 27L6 27L6 26L8 26L8 24L10 24L10 25L9 25L9 26L13 26L13 24L14 24L14 26L15 26L15 24L14 24L14 22L13 22L13 21L14 21L14 19L15 19L15 18L14 18L14 15L15 15L15 14L16 14L16 12L17 12L17 13L18 13L18 12L17 12L17 11L14 11L14 10L13 10L13 9L12 9L12 6L13 6L13 7L14 7L14 6L13 6L13 4L14 4L14 5L15 5L15 7L16 7L16 5L15 5L15 4L16 4L16 3L15 3L15 2ZM14 3L14 4L15 4L15 3ZM24 4L24 5L25 5L25 4ZM21 6L21 8L22 8L22 6ZM27 6L27 7L28 7L28 6ZM10 8L10 9L9 9L9 10L10 10L10 9L11 9L11 10L12 10L12 11L13 11L13 15L14 15L14 13L15 13L15 12L14 12L14 11L13 11L13 10L12 10L12 9L11 9L11 8ZM26 8L26 9L27 9L27 10L26 10L26 11L24 11L24 12L25 12L25 13L26 13L26 12L28 12L28 13L29 13L29 14L27 14L27 15L26 15L26 14L25 14L25 16L23 16L23 17L22 17L22 18L21 18L21 19L20 19L20 20L23 20L23 21L19 21L19 20L17 20L17 21L19 21L19 22L16 22L16 21L15 21L15 22L16 22L16 23L18 23L18 24L17 24L17 25L16 25L16 27L12 27L12 28L11 28L11 30L12 30L12 28L15 28L15 29L14 29L14 33L13 33L13 36L14 36L14 33L15 33L15 34L19 34L19 35L20 35L20 34L22 34L22 32L21 32L21 31L20 31L20 30L21 30L21 28L22 28L22 27L18 27L18 26L17 26L17 25L20 25L20 26L23 26L23 27L26 27L26 26L29 26L29 28L30 28L30 29L28 29L28 30L30 30L30 29L31 29L31 30L32 30L32 31L33 31L33 32L36 32L36 31L37 31L37 32L39 32L39 31L37 31L37 30L36 30L36 29L38 29L38 30L39 30L39 26L38 26L38 28L36 28L36 29L35 29L35 27L37 27L37 26L36 26L36 25L35 25L35 24L36 24L36 23L35 23L35 22L36 22L36 21L35 21L35 19L34 19L34 18L33 18L33 17L32 17L32 18L31 18L31 19L30 19L30 17L29 17L29 16L30 16L30 15L29 15L29 14L30 14L30 13L29 13L29 12L30 12L30 10L31 10L31 9L27 9L27 8ZM6 9L6 10L7 10L7 9ZM35 9L35 11L36 11L36 9ZM27 10L27 11L28 11L28 10ZM10 11L10 12L9 12L9 14L10 14L10 13L11 13L11 14L12 14L12 13L11 13L11 11ZM33 12L33 13L34 13L34 12ZM2 13L2 14L3 14L3 13ZM36 14L36 15L37 15L37 14ZM28 15L28 16L29 16L29 15ZM25 16L25 17L23 17L23 20L24 20L24 21L23 21L23 23L22 23L22 22L19 22L19 23L21 23L21 24L20 24L20 25L22 25L22 24L23 24L23 26L24 26L24 21L26 21L26 20L27 20L27 21L28 21L28 22L26 22L26 24L27 24L27 25L29 25L29 26L30 26L30 25L31 25L31 26L32 26L32 27L34 27L34 26L35 26L35 25L33 25L33 24L27 24L27 23L28 23L28 22L30 22L30 23L31 23L31 22L33 22L33 21L34 21L34 22L35 22L35 21L34 21L34 20L33 20L33 19L31 19L31 20L30 20L30 21L28 21L28 18L27 18L27 16ZM36 16L36 17L37 17L37 16ZM40 16L40 18L38 18L38 19L40 19L40 18L41 18L41 16ZM0 17L0 22L1 22L1 23L0 23L0 24L4 24L4 23L3 23L3 22L2 22L2 18L1 18L1 17ZM11 17L11 19L12 19L12 18L13 18L13 17ZM25 17L25 19L24 19L24 20L26 20L26 19L27 19L27 18L26 18L26 17ZM16 18L16 19L17 19L17 18ZM11 20L11 22L10 22L10 21L9 21L9 22L10 22L10 23L13 23L13 22L12 22L12 20ZM31 20L31 21L30 21L30 22L31 22L31 21L33 21L33 20ZM40 20L40 21L41 21L41 20ZM34 23L34 24L35 24L35 23ZM11 24L11 25L12 25L12 24ZM32 25L32 26L33 26L33 25ZM8 27L8 28L9 28L9 27ZM27 27L27 28L26 28L26 29L27 29L27 28L28 28L28 27ZM2 28L2 29L4 29L4 28ZM17 28L17 31L16 31L16 32L15 32L15 33L17 33L17 31L18 31L18 28ZM19 28L19 30L20 30L20 28ZM33 28L33 29L32 29L32 30L33 30L33 29L34 29L34 28ZM15 29L15 30L16 30L16 29ZM34 30L34 31L35 31L35 30ZM28 31L28 32L31 32L31 31ZM8 32L8 33L9 33L9 32ZM19 32L19 34L20 34L20 32ZM30 33L30 35L31 35L31 33ZM33 33L33 36L36 36L36 33ZM37 33L37 35L38 35L38 36L37 36L37 37L38 37L38 36L39 36L39 35L38 35L38 34L39 34L39 33ZM34 34L34 35L35 35L35 34ZM10 37L10 38L9 38L9 39L10 39L10 40L13 40L13 38L14 38L14 39L16 39L16 38L14 38L14 37L12 37L12 38L11 38L11 37ZM18 37L18 38L19 38L19 37ZM34 37L34 38L36 38L36 37ZM26 38L26 39L27 39L27 38ZM37 38L37 39L38 39L38 38ZM24 39L24 40L25 40L25 39ZM28 39L28 40L31 40L31 39ZM0 0L0 7L7 7L7 0ZM1 1L1 6L6 6L6 1ZM2 2L2 5L5 5L5 2ZM34 0L34 7L41 7L41 0ZM35 1L35 6L40 6L40 1ZM36 2L36 5L39 5L39 2ZM0 34L0 41L7 41L7 34ZM1 35L1 40L6 40L6 35ZM2 36L2 39L5 39L5 36Z" fill="#000000"/></g></g></svg>
