<?xml version="1.0" encoding="UTF-8"?>
<svg xmlns="http://www.w3.org/2000/svg" version="1.1" width="200" height="200" viewBox="0 0 200 200"><rect x="0" y="0" width="200" height="200" fill="#ffffff"/><g transform="scale(4.878)"><g transform="translate(0,0)"><path fill-rule="evenodd" d="M8 0L8 3L9 3L9 5L8 5L8 9L7 9L7 8L6 8L6 9L5 9L5 8L2 8L2 10L3 10L3 9L5 9L5 10L4 10L4 11L5 11L5 13L4 13L4 12L3 12L3 11L2 11L2 12L1 12L1 13L0 13L0 16L1 16L1 17L0 17L0 18L1 18L1 19L0 19L0 22L1 22L1 23L2 23L2 22L4 22L4 23L5 23L5 24L4 24L4 25L1 25L1 24L0 24L0 25L1 25L1 27L2 27L2 28L3 28L3 30L4 30L4 31L3 31L3 33L4 33L4 32L5 32L5 33L7 33L7 32L9 32L9 33L8 33L8 34L9 34L9 33L10 33L10 32L11 32L11 33L12 33L12 29L17 29L17 30L13 30L13 31L18 31L18 28L19 28L19 30L20 30L20 31L19 31L19 32L20 32L20 33L19 33L19 34L18 34L18 32L17 32L17 33L16 33L16 34L15 34L15 32L13 32L13 34L10 34L10 35L12 35L12 37L11 37L11 38L10 38L10 39L9 39L9 36L8 36L8 39L9 39L9 40L10 40L10 41L11 41L11 39L12 39L12 40L14 40L14 41L15 41L15 40L18 40L18 41L20 41L20 40L18 40L18 39L19 39L19 38L18 38L18 39L17 39L17 37L19 37L19 36L20 36L20 38L22 38L22 37L23 37L23 36L22 36L22 37L21 37L21 35L22 35L22 34L21 34L21 33L24 33L24 36L25 36L25 33L26 33L26 34L27 34L27 35L28 35L28 36L27 36L27 37L26 37L26 38L25 38L25 37L24 37L24 38L23 38L23 39L22 39L22 40L21 40L21 41L22 41L22 40L23 40L23 39L25 39L25 40L26 40L26 41L32 41L32 40L33 40L33 41L34 41L34 40L33 40L33 39L32 39L32 38L34 38L34 39L35 39L35 40L36 40L36 39L37 39L37 40L40 40L40 38L41 38L41 37L40 37L40 36L38 36L38 35L40 35L40 34L41 34L41 33L39 33L39 32L40 32L40 30L41 30L41 28L40 28L40 26L41 26L41 23L39 23L39 22L37 22L37 21L39 21L39 20L36 20L36 19L35 19L35 17L36 17L36 18L38 18L38 17L39 17L39 18L41 18L41 16L40 16L40 17L39 17L39 16L37 16L37 14L38 14L38 13L36 13L36 14L35 14L35 15L36 15L36 16L35 16L35 17L34 17L34 16L32 16L32 17L30 17L30 16L31 16L31 15L30 15L30 14L31 14L31 12L32 12L32 13L33 13L33 14L32 14L32 15L34 15L34 13L35 13L35 12L38 12L38 11L40 11L40 10L41 10L41 8L38 8L38 9L40 9L40 10L37 10L37 9L36 9L36 8L32 8L32 7L33 7L33 6L32 6L32 7L31 7L31 5L32 5L32 4L33 4L33 2L32 2L32 4L30 4L30 5L29 5L29 4L28 4L28 5L27 5L27 4L26 4L26 5L25 5L25 6L24 6L24 4L22 4L22 3L23 3L23 2L22 2L22 0L19 0L19 1L18 1L18 4L17 4L17 5L16 5L16 8L15 8L15 6L14 6L14 7L13 7L13 6L12 6L12 8L11 8L11 6L10 6L10 7L9 7L9 5L12 5L12 4L13 4L13 5L14 5L14 4L15 4L15 3L13 3L13 1L14 1L14 0L11 0L11 1L12 1L12 3L11 3L11 4L10 4L10 3L9 3L9 2L10 2L10 1L9 1L9 0ZM16 0L16 2L17 2L17 0ZM26 0L26 1L27 1L27 2L26 2L26 3L31 3L31 2L30 2L30 0L29 0L29 1L27 1L27 0ZM31 0L31 1L32 1L32 0ZM24 1L24 2L25 2L25 1ZM21 2L21 3L22 3L22 2ZM19 3L19 4L18 4L18 5L17 5L17 8L16 8L16 9L15 9L15 8L12 8L12 10L11 10L11 8L9 8L9 11L6 11L6 10L7 10L7 9L6 9L6 10L5 10L5 11L6 11L6 12L8 12L8 13L9 13L9 12L11 12L11 13L12 13L12 12L13 12L13 13L14 13L14 14L13 14L13 15L12 15L12 14L10 14L10 15L9 15L9 14L7 14L7 13L5 13L5 14L3 14L3 13L1 13L1 14L3 14L3 16L2 16L2 15L1 15L1 16L2 16L2 20L3 20L3 19L5 19L5 18L7 18L7 19L6 19L6 20L8 20L8 18L7 18L7 17L9 17L9 16L10 16L10 18L12 18L12 20L11 20L11 19L9 19L9 20L10 20L10 21L12 21L12 20L13 20L13 22L14 22L14 21L15 21L15 22L16 22L16 23L15 23L15 25L13 25L13 26L11 26L11 25L12 25L12 24L14 24L14 23L12 23L12 22L8 22L8 21L5 21L5 20L4 20L4 22L7 22L7 23L6 23L6 24L5 24L5 25L6 25L6 26L4 26L4 27L3 27L3 28L4 28L4 29L6 29L6 30L5 30L5 31L6 31L6 32L7 32L7 31L6 31L6 30L8 30L8 29L9 29L9 31L11 31L11 30L10 30L10 29L11 29L11 28L13 28L13 27L14 27L14 28L15 28L15 25L17 25L17 24L16 24L16 23L17 23L17 20L16 20L16 21L15 21L15 20L14 20L14 19L16 19L16 15L17 15L17 16L19 16L19 17L21 17L21 18L22 18L22 17L25 17L25 18L23 18L23 20L22 20L22 21L21 21L21 22L19 22L19 21L18 21L18 24L19 24L19 26L18 26L18 27L21 27L21 26L23 26L23 24L22 24L22 23L21 23L21 22L22 22L22 21L23 21L23 22L24 22L24 25L25 25L25 26L26 26L26 27L25 27L25 28L24 28L24 29L23 29L23 28L22 28L22 29L20 29L20 30L22 30L22 29L23 29L23 31L21 31L21 32L24 32L24 33L25 33L25 32L27 32L27 30L26 30L26 29L25 29L25 28L26 28L26 27L27 27L27 26L28 26L28 27L29 27L29 28L30 28L30 29L28 29L28 30L29 30L29 31L28 31L28 33L27 33L27 34L28 34L28 35L29 35L29 34L28 34L28 33L29 33L29 32L30 32L30 33L31 33L31 32L30 32L30 31L31 31L31 30L32 30L32 31L33 31L33 32L35 32L35 31L37 31L37 30L38 30L38 32L37 32L37 35L38 35L38 34L39 34L39 33L38 33L38 32L39 32L39 30L38 30L38 29L39 29L39 26L40 26L40 24L39 24L39 23L37 23L37 24L36 24L36 23L35 23L35 22L36 22L36 21L35 21L35 19L34 19L34 18L33 18L33 17L32 17L32 18L31 18L31 19L30 19L30 17L29 17L29 16L30 16L30 15L29 15L29 14L30 14L30 13L29 13L29 12L31 12L31 11L32 11L32 12L33 12L33 13L34 13L34 12L33 12L33 11L34 11L34 10L33 10L33 9L32 9L32 8L30 8L30 6L29 6L29 8L28 8L28 6L27 6L27 5L26 5L26 6L25 6L25 7L24 7L24 6L23 6L23 5L22 5L22 4L21 4L21 5L20 5L20 3ZM18 5L18 8L17 8L17 10L16 10L16 11L15 11L15 9L14 9L14 10L13 10L13 11L14 11L14 12L16 12L16 13L15 13L15 14L14 14L14 16L15 16L15 14L16 14L16 13L17 13L17 14L18 14L18 13L19 13L19 12L18 12L18 10L20 10L20 12L21 12L21 13L20 13L20 16L22 16L22 15L21 15L21 13L22 13L22 12L23 12L23 13L26 13L26 15L27 15L27 14L29 14L29 13L28 13L28 12L27 12L27 11L28 11L28 10L29 10L29 11L31 11L31 10L32 10L32 11L33 11L33 10L32 10L32 9L30 9L30 8L29 8L29 9L28 9L28 8L27 8L27 6L26 6L26 9L28 9L28 10L27 10L27 11L26 11L26 10L25 10L25 9L24 9L24 11L23 11L23 9L22 9L22 8L21 8L21 9L20 9L20 7L21 7L21 6L22 6L22 7L23 7L23 6L22 6L22 5L21 5L21 6L20 6L20 7L19 7L19 5ZM21 9L21 10L22 10L22 9ZM29 9L29 10L30 10L30 9ZM0 10L0 11L1 11L1 10ZM10 10L10 11L11 11L11 12L12 12L12 11L11 11L11 10ZM35 10L35 11L37 11L37 10ZM21 11L21 12L22 12L22 11ZM24 11L24 12L26 12L26 13L27 13L27 12L26 12L26 11ZM17 12L17 13L18 13L18 12ZM39 12L39 13L40 13L40 14L39 14L39 15L40 15L40 14L41 14L41 12ZM5 14L5 15L4 15L4 16L3 16L3 17L7 17L7 16L6 16L6 15L7 15L7 14ZM24 14L24 15L23 15L23 16L25 16L25 17L27 17L27 16L25 16L25 14ZM8 15L8 16L9 16L9 15ZM10 15L10 16L12 16L12 17L13 17L13 19L14 19L14 18L15 18L15 17L13 17L13 16L12 16L12 15ZM28 15L28 16L29 16L29 15ZM36 16L36 17L37 17L37 16ZM18 18L18 19L19 19L19 20L21 20L21 19L20 19L20 18ZM25 18L25 19L24 19L24 20L23 20L23 21L25 21L25 25L26 25L26 26L27 26L27 25L29 25L29 26L30 26L30 25L31 25L31 26L32 26L32 27L34 27L34 26L35 26L35 25L36 25L36 26L37 26L37 27L36 27L36 28L35 28L35 29L36 29L36 30L37 30L37 29L36 29L36 28L38 28L38 26L39 26L39 25L36 25L36 24L35 24L35 25L33 25L33 24L34 24L34 23L33 23L33 24L32 24L32 23L30 23L30 24L27 24L27 25L26 25L26 22L27 22L27 23L29 23L29 22L27 22L27 21L29 21L29 20L25 20L25 19L26 19L26 18ZM27 18L27 19L29 19L29 18ZM31 19L31 20L30 20L30 21L31 21L31 22L32 22L32 21L34 21L34 22L35 22L35 21L34 21L34 20L32 20L32 19ZM31 20L31 21L32 21L32 20ZM40 20L40 21L41 21L41 20ZM1 21L1 22L2 22L2 21ZM7 23L7 24L6 24L6 25L7 25L7 26L6 26L6 27L4 27L4 28L6 28L6 29L8 29L8 28L9 28L9 27L10 27L10 28L11 28L11 26L9 26L9 27L8 27L8 28L6 28L6 27L7 27L7 26L8 26L8 25L7 25L7 24L9 24L9 25L11 25L11 24L12 24L12 23L10 23L10 24L9 24L9 23ZM20 24L20 25L21 25L21 24ZM31 24L31 25L32 25L32 26L33 26L33 25L32 25L32 24ZM16 27L16 28L17 28L17 27ZM33 28L33 29L32 29L32 30L33 30L33 29L34 29L34 28ZM0 29L0 33L1 33L1 29ZM30 29L30 30L31 30L31 29ZM24 30L24 32L25 32L25 31L26 31L26 30ZM34 30L34 31L35 31L35 30ZM33 33L33 36L36 36L36 33ZM14 34L14 35L13 35L13 36L14 36L14 37L13 37L13 38L12 38L12 39L13 39L13 38L15 38L15 37L16 37L16 35L15 35L15 34ZM19 34L19 35L21 35L21 34ZM30 34L30 35L31 35L31 36L29 36L29 37L27 37L27 38L29 38L29 39L28 39L28 40L32 40L32 39L30 39L30 38L29 38L29 37L31 37L31 38L32 38L32 35L31 35L31 34ZM34 34L34 35L35 35L35 34ZM37 36L37 37L38 37L38 36ZM34 37L34 38L36 38L36 37ZM37 38L37 39L38 39L38 38ZM14 39L14 40L15 40L15 39ZM0 0L0 7L7 7L7 0ZM1 1L1 6L6 6L6 1ZM2 2L2 5L5 5L5 2ZM34 0L34 7L41 7L41 0ZM35 1L35 6L40 6L40 1ZM36 2L36 5L39 5L39 2ZM0 34L0 41L7 41L7 34ZM1 35L1 40L6 40L6 35ZM2 36L2 39L5 39L5 36Z" fill="#000000"/></g></g></svg>
