<?xml version="1.0" encoding="UTF-8"?>
<svg xmlns="http://www.w3.org/2000/svg" version="1.1" width="200" height="200" viewBox="0 0 200 200"><rect x="0" y="0" width="200" height="200" fill="#ffffff"/><g transform="scale(4.878)"><g transform="translate(0,0)"><path fill-rule="evenodd" d="M8 0L8 3L9 3L9 5L8 5L8 9L7 9L7 8L6 8L6 9L5 9L5 8L2 8L2 10L3 10L3 12L2 12L2 11L1 11L1 12L0 12L0 13L2 13L2 15L0 15L0 19L2 19L2 20L1 20L1 23L0 23L0 27L3 27L3 28L2 28L2 30L3 30L3 31L2 31L2 32L3 32L3 33L4 33L4 31L5 31L5 32L6 32L6 33L8 33L8 34L9 34L9 35L10 35L10 36L8 36L8 39L9 39L9 37L11 37L11 35L10 35L10 34L13 34L13 36L12 36L12 37L13 37L13 38L16 38L16 39L17 39L17 40L15 40L15 41L17 41L17 40L18 40L18 41L20 41L20 40L21 40L21 41L22 41L22 40L23 40L23 41L26 41L26 40L28 40L28 41L32 41L32 40L33 40L33 41L34 41L34 40L33 40L33 39L32 39L32 40L31 40L31 38L32 38L32 37L33 37L33 38L34 38L34 39L35 39L35 40L36 40L36 39L37 39L37 40L40 40L40 38L41 38L41 37L39 37L39 36L38 36L38 34L37 34L37 33L39 33L39 35L40 35L40 34L41 34L41 33L39 33L39 32L37 32L37 31L36 31L36 32L33 32L33 31L32 31L32 30L33 30L33 29L34 29L34 28L33 28L33 27L34 27L34 26L35 26L35 27L36 27L36 28L35 28L35 29L36 29L36 30L37 30L37 29L36 29L36 28L38 28L38 26L39 26L39 27L40 27L40 26L41 26L41 23L39 23L39 24L40 24L40 26L39 26L39 25L36 25L36 24L37 24L37 20L38 20L38 22L39 22L39 20L38 20L38 19L37 19L37 20L36 20L36 19L35 19L35 17L36 17L36 18L38 18L38 17L39 17L39 18L41 18L41 16L40 16L40 17L39 17L39 16L37 16L37 15L36 15L36 14L37 14L37 13L36 13L36 14L35 14L35 15L36 15L36 16L35 16L35 17L34 17L34 16L32 16L32 17L31 17L31 12L32 12L32 13L33 13L33 14L32 14L32 15L34 15L34 13L35 13L35 12L38 12L38 11L40 11L40 12L41 12L41 11L40 11L40 10L41 10L41 8L38 8L38 9L40 9L40 10L37 10L37 9L36 9L36 8L32 8L32 7L33 7L33 5L32 5L32 4L33 4L33 3L32 3L32 2L33 2L33 0L29 0L29 1L27 1L27 0L26 0L26 1L27 1L27 2L26 2L26 3L28 3L28 4L29 4L29 3L32 3L32 4L30 4L30 5L27 5L27 4L25 4L25 3L24 3L24 2L23 2L23 1L22 1L22 0L20 0L20 1L22 1L22 2L23 2L23 3L21 3L21 4L22 4L22 5L20 5L20 3L19 3L19 4L18 4L18 2L17 2L17 1L15 1L15 0L14 0L14 1L15 1L15 2L16 2L16 3L17 3L17 4L15 4L15 3L14 3L14 2L13 2L13 0L10 0L10 1L9 1L9 0ZM10 1L10 2L9 2L9 3L10 3L10 2L11 2L11 1ZM30 1L30 2L32 2L32 1ZM12 2L12 3L13 3L13 2ZM10 4L10 5L9 5L9 7L10 7L10 8L9 8L9 9L10 9L10 8L11 8L11 10L9 10L9 12L12 12L12 11L11 11L11 10L14 10L14 11L13 11L13 15L12 15L12 17L11 17L11 16L9 16L9 17L6 17L6 16L8 16L8 15L11 15L11 14L12 14L12 13L11 13L11 14L10 14L10 13L9 13L9 14L8 14L8 15L6 15L6 16L4 16L4 14L5 14L5 13L6 13L6 14L7 14L7 13L8 13L8 10L7 10L7 9L6 9L6 10L7 10L7 11L6 11L6 12L5 12L5 9L3 9L3 10L4 10L4 12L3 12L3 15L2 15L2 16L3 16L3 17L4 17L4 18L2 18L2 17L1 17L1 18L2 18L2 19L4 19L4 20L2 20L2 22L5 22L5 23L4 23L4 24L5 24L5 25L6 25L6 26L7 26L7 25L6 25L6 24L7 24L7 23L6 23L6 22L7 22L7 21L8 21L8 23L9 23L9 24L8 24L8 27L9 27L9 28L11 28L11 26L12 26L12 30L13 30L13 31L11 31L11 29L9 29L9 30L8 30L8 28L7 28L7 27L6 27L6 28L5 28L5 26L4 26L4 28L5 28L5 29L6 29L6 30L7 30L7 31L6 31L6 32L7 32L7 31L9 31L9 32L8 32L8 33L10 33L10 32L13 32L13 31L15 31L15 32L14 32L14 33L16 33L16 34L17 34L17 35L15 35L15 36L14 36L14 37L15 37L15 36L16 36L16 37L17 37L17 39L19 39L19 40L20 40L20 38L22 38L22 37L23 37L23 39L24 39L24 40L26 40L26 38L29 38L29 39L28 39L28 40L30 40L30 38L29 38L29 37L32 37L32 35L31 35L31 33L30 33L30 35L31 35L31 36L29 36L29 34L28 34L28 33L29 33L29 32L30 32L30 30L32 30L32 29L33 29L33 28L32 28L32 26L31 26L31 25L35 25L35 26L36 26L36 25L35 25L35 24L36 24L36 23L35 23L35 22L36 22L36 21L35 21L35 19L34 19L34 18L33 18L33 17L32 17L32 18L31 18L31 17L29 17L29 16L30 16L30 15L29 15L29 14L30 14L30 13L29 13L29 12L31 12L31 11L34 11L34 9L32 9L32 8L31 8L31 7L32 7L32 5L31 5L31 7L30 7L30 6L29 6L29 7L28 7L28 6L27 6L27 5L25 5L25 4L24 4L24 6L23 6L23 8L22 8L22 6L21 6L21 7L20 7L20 6L19 6L19 8L17 8L17 10L16 10L16 11L17 11L17 10L18 10L18 11L19 11L19 12L18 12L18 13L17 13L17 14L16 14L16 13L15 13L15 15L14 15L14 12L15 12L15 10L14 10L14 9L15 9L15 7L16 7L16 6L17 6L17 7L18 7L18 4L17 4L17 5L16 5L16 6L15 6L15 5L14 5L14 4L13 4L13 5L12 5L12 6L11 6L11 4ZM10 6L10 7L11 7L11 6ZM12 6L12 7L13 7L13 8L12 8L12 9L13 9L13 8L14 8L14 7L15 7L15 6L14 6L14 7L13 7L13 6ZM24 6L24 8L23 8L23 9L22 9L22 8L19 8L19 9L18 9L18 10L19 10L19 11L22 11L22 13L23 13L23 14L21 14L21 13L20 13L20 12L19 12L19 13L18 13L18 14L17 14L17 15L18 15L18 16L16 16L16 17L15 17L15 18L14 18L14 16L13 16L13 17L12 17L12 18L13 18L13 19L12 19L12 21L13 21L13 20L14 20L14 22L13 22L13 23L12 23L12 22L11 22L11 23L10 23L10 22L9 22L9 23L10 23L10 24L9 24L9 25L10 25L10 26L11 26L11 25L12 25L12 26L14 26L14 25L12 25L12 24L13 24L13 23L16 23L16 24L17 24L17 25L21 25L21 26L19 26L19 27L18 27L18 26L16 26L16 25L15 25L15 26L16 26L16 28L15 28L15 27L14 27L14 28L13 28L13 30L15 30L15 31L16 31L16 30L17 30L17 29L18 29L18 28L21 28L21 29L19 29L19 30L18 30L18 31L17 31L17 32L18 32L18 31L19 31L19 30L22 30L22 29L23 29L23 28L25 28L25 32L26 32L26 33L22 33L22 32L23 32L23 31L21 31L21 32L20 32L20 33L21 33L21 35L20 35L20 36L21 36L21 37L22 37L22 36L21 36L21 35L24 35L24 34L27 34L27 35L25 35L25 37L24 37L24 38L25 38L25 37L26 37L26 36L28 36L28 37L29 37L29 36L28 36L28 34L27 34L27 33L28 33L28 31L29 31L29 30L28 30L28 29L31 29L31 28L29 28L29 26L30 26L30 25L31 25L31 24L27 24L27 23L28 23L28 22L27 22L27 23L25 23L25 22L24 22L24 20L25 20L25 19L26 19L26 20L27 20L27 21L29 21L29 20L28 20L28 19L29 19L29 18L26 18L26 17L27 17L27 15L26 15L26 13L27 13L27 14L29 14L29 13L28 13L28 12L29 12L29 9L31 9L31 10L30 10L30 11L31 11L31 10L32 10L32 9L31 9L31 8L29 8L29 9L28 9L28 7L27 7L27 6L26 6L26 7L25 7L25 6ZM24 8L24 9L25 9L25 8ZM26 8L26 10L28 10L28 9L27 9L27 8ZM19 9L19 10L20 10L20 9ZM21 9L21 10L22 10L22 9ZM35 9L35 10L36 10L36 11L37 11L37 10L36 10L36 9ZM25 11L25 13L24 13L24 14L23 14L23 15L22 15L22 16L20 16L20 18L21 18L21 19L22 19L22 21L23 21L23 20L24 20L24 19L25 19L25 18L24 18L24 16L23 16L23 15L24 15L24 14L25 14L25 13L26 13L26 11ZM4 12L4 13L5 13L5 12ZM6 12L6 13L7 13L7 12ZM33 12L33 13L34 13L34 12ZM19 13L19 14L18 14L18 15L21 15L21 14L20 14L20 13ZM40 13L40 14L38 14L38 15L40 15L40 14L41 14L41 13ZM28 15L28 16L29 16L29 15ZM18 16L18 18L19 18L19 16ZM22 16L22 17L23 17L23 16ZM25 16L25 17L26 17L26 16ZM36 16L36 17L37 17L37 16ZM10 17L10 18L6 18L6 19L5 19L5 20L4 20L4 21L5 21L5 22L6 22L6 21L7 21L7 20L8 20L8 19L11 19L11 17ZM15 18L15 22L16 22L16 23L17 23L17 22L19 22L19 23L20 23L20 22L21 22L21 23L23 23L23 22L21 22L21 20L20 20L20 19L19 19L19 20L18 20L18 19L17 19L17 18ZM23 18L23 19L24 19L24 18ZM30 18L30 19L31 19L31 18ZM6 19L6 20L5 20L5 21L6 21L6 20L7 20L7 19ZM16 19L16 22L17 22L17 21L18 21L18 20L17 20L17 19ZM9 20L9 21L10 21L10 20ZM30 20L30 21L31 21L31 22L33 22L33 21L34 21L34 22L35 22L35 21L34 21L34 20L33 20L33 21L31 21L31 20ZM40 20L40 21L41 21L41 20ZM29 22L29 23L30 23L30 22ZM1 23L1 26L3 26L3 23ZM11 23L11 24L10 24L10 25L11 25L11 24L12 24L12 23ZM32 23L32 24L33 24L33 23ZM34 23L34 24L35 24L35 23ZM23 24L23 25L24 25L24 26L21 26L21 27L22 27L22 28L23 28L23 27L25 27L25 28L26 28L26 29L27 29L27 28L26 28L26 27L27 27L27 26L29 26L29 25L26 25L26 27L25 27L25 24ZM17 27L17 28L18 28L18 27ZM0 28L0 33L1 33L1 28ZM6 28L6 29L7 29L7 28ZM39 28L39 29L38 29L38 30L39 30L39 31L40 31L40 30L41 30L41 29L40 29L40 28ZM3 29L3 30L4 30L4 29ZM26 30L26 32L27 32L27 30ZM34 30L34 31L35 31L35 30ZM17 33L17 34L18 34L18 35L17 35L17 36L18 36L18 38L19 38L19 36L18 36L18 35L19 35L19 34L18 34L18 33ZM33 33L33 36L36 36L36 33ZM34 34L34 35L35 35L35 34ZM37 36L37 37L38 37L38 36ZM34 37L34 38L36 38L36 37ZM10 38L10 40L9 40L9 41L11 41L11 39L12 39L12 40L13 40L13 41L14 41L14 40L13 40L13 39L12 39L12 38ZM37 38L37 39L38 39L38 38ZM21 39L21 40L22 40L22 39ZM0 0L0 7L7 7L7 0ZM1 1L1 6L6 6L6 1ZM2 2L2 5L5 5L5 2ZM34 0L34 7L41 7L41 0ZM35 1L35 6L40 6L40 1ZM36 2L36 5L39 5L39 2ZM0 34L0 41L7 41L7 34ZM1 35L1 40L6 40L6 35ZM2 36L2 39L5 39L5 36Z" fill="#000000"/></g></g></svg>
