<?xml version="1.0" encoding="UTF-8"?>
<svg xmlns="http://www.w3.org/2000/svg" version="1.1" width="200" height="200" viewBox="0 0 200 200"><rect x="0" y="0" width="200" height="200" fill="#ffffff"/><g transform="scale(4.878)"><g transform="translate(0,0)"><path fill-rule="evenodd" d="M8 0L8 1L9 1L9 2L8 2L8 3L10 3L10 4L12 4L12 5L9 5L9 4L8 4L8 5L9 5L9 6L8 6L8 8L11 8L11 6L12 6L12 12L11 12L11 10L10 10L10 12L9 12L9 11L7 11L7 10L4 10L4 9L2 9L2 10L1 10L1 11L0 11L0 12L1 12L1 13L0 13L0 17L1 17L1 16L2 16L2 18L4 18L4 17L5 17L5 19L7 19L7 20L5 20L5 21L1 21L1 23L3 23L3 24L4 24L4 25L3 25L3 26L2 26L2 28L1 28L1 29L0 29L0 33L1 33L1 31L3 31L3 32L2 32L2 33L5 33L5 32L6 32L6 33L7 33L7 32L8 32L8 34L9 34L9 33L10 33L10 34L11 34L11 33L10 33L10 32L9 32L9 31L7 31L7 30L5 30L5 32L4 32L4 31L3 31L3 27L4 27L4 26L6 26L6 27L7 27L7 28L4 28L4 29L7 29L7 28L8 28L8 29L9 29L9 30L10 30L10 31L11 31L11 32L13 32L13 33L14 33L14 34L15 34L15 35L17 35L17 34L18 34L18 33L19 33L19 35L18 35L18 36L14 36L14 37L13 37L13 35L12 35L12 37L11 37L11 35L8 35L8 36L10 36L10 37L11 37L11 38L9 38L9 40L10 40L10 39L11 39L11 41L13 41L13 40L12 40L12 39L14 39L14 40L16 40L16 41L17 41L17 40L18 40L18 41L19 41L19 40L18 40L18 39L17 39L17 37L19 37L19 39L20 39L20 40L21 40L21 41L26 41L26 40L27 40L27 41L32 41L32 40L29 40L29 39L31 39L31 38L32 38L32 39L33 39L33 41L34 41L34 40L36 40L36 39L37 39L37 40L38 40L38 39L40 39L40 40L41 40L41 39L40 39L40 38L41 38L41 36L40 36L40 38L39 38L39 37L38 37L38 34L39 34L39 35L40 35L40 34L39 34L39 33L40 33L40 32L41 32L41 29L40 29L40 28L41 28L41 27L40 27L40 26L41 26L41 25L39 25L39 24L37 24L37 23L38 23L38 22L41 22L41 20L40 20L40 19L41 19L41 15L40 15L40 14L41 14L41 11L40 11L40 9L41 9L41 8L40 8L40 9L39 9L39 8L38 8L38 10L37 10L37 8L36 8L36 10L34 10L34 9L35 9L35 8L34 8L34 9L33 9L33 8L32 8L32 7L33 7L33 1L32 1L32 4L30 4L30 7L31 7L31 8L32 8L32 9L30 9L30 8L28 8L28 9L27 9L27 8L26 8L26 7L27 7L27 4L28 4L28 7L29 7L29 3L31 3L31 2L30 2L30 1L31 1L31 0L30 0L30 1L29 1L29 0L28 0L28 2L26 2L26 4L24 4L24 5L23 5L23 4L22 4L22 3L23 3L23 2L21 2L21 3L19 3L19 2L20 2L20 1L19 1L19 0L17 0L17 1L18 1L18 2L15 2L15 0L14 0L14 1L13 1L13 0L12 0L12 1L11 1L11 0ZM22 0L22 1L26 1L26 0ZM12 1L12 2L10 2L10 3L12 3L12 4L13 4L13 8L14 8L14 4L13 4L13 3L15 3L15 4L17 4L17 7L16 7L16 6L15 6L15 8L19 8L19 7L20 7L20 8L21 8L21 9L13 9L13 10L14 10L14 11L17 11L17 12L18 12L18 13L17 13L17 14L19 14L19 13L20 13L20 12L22 12L22 10L23 10L23 14L22 14L22 13L21 13L21 14L22 14L22 15L23 15L23 16L25 16L25 17L22 17L22 16L21 16L21 17L19 17L19 19L20 19L20 18L21 18L21 19L23 19L23 20L24 20L24 21L25 21L25 22L24 22L24 23L23 23L23 24L22 24L22 22L21 22L21 23L20 23L20 24L19 24L19 23L17 23L17 22L19 22L19 21L18 21L18 19L17 19L17 18L18 18L18 15L17 15L17 17L16 17L16 15L15 15L15 13L14 13L14 12L12 12L12 13L13 13L13 14L14 14L14 16L15 16L15 17L14 17L14 18L13 18L13 17L10 17L10 20L9 20L9 19L8 19L8 18L7 18L7 17L8 17L8 16L9 16L9 15L10 15L10 16L11 16L11 15L12 15L12 16L13 16L13 15L12 15L12 14L9 14L9 15L8 15L8 13L9 13L9 12L8 12L8 13L6 13L6 12L7 12L7 11L4 11L4 10L2 10L2 11L1 11L1 12L3 12L3 11L4 11L4 14L2 14L2 16L4 16L4 14L7 14L7 15L6 15L6 16L7 16L7 17L6 17L6 18L7 18L7 19L8 19L8 20L7 20L7 21L6 21L6 22L8 22L8 23L5 23L5 22L4 22L4 24L5 24L5 25L6 25L6 26L7 26L7 27L10 27L10 26L9 26L9 25L10 25L10 24L11 24L11 25L12 25L12 24L13 24L13 25L15 25L15 24L16 24L16 26L13 26L13 27L12 27L12 28L13 28L13 27L16 27L16 28L17 28L17 29L20 29L20 33L21 33L21 34L20 34L20 35L19 35L19 37L20 37L20 36L21 36L21 38L24 38L24 40L25 40L25 38L27 38L27 37L26 37L26 36L28 36L28 39L29 39L29 38L30 38L30 37L31 37L31 36L30 36L30 37L29 37L29 36L28 36L28 35L29 35L29 34L28 34L28 35L27 35L27 34L26 34L26 35L25 35L25 36L24 36L24 37L22 37L22 36L23 36L23 35L24 35L24 34L25 34L25 33L27 33L27 32L30 32L30 33L31 33L31 34L30 34L30 35L31 35L31 34L32 34L32 33L31 33L31 31L32 31L32 29L33 29L33 23L32 23L32 22L33 22L33 19L34 19L34 22L36 22L36 21L35 21L35 18L36 18L36 20L37 20L37 21L38 21L38 20L39 20L39 21L40 21L40 20L39 20L39 17L40 17L40 16L39 16L39 17L38 17L38 16L36 16L36 17L35 17L35 16L34 16L34 17L32 17L32 14L34 14L34 15L35 15L35 14L36 14L36 13L37 13L37 12L36 12L36 11L35 11L35 12L34 12L34 10L31 10L31 11L30 11L30 9L29 9L29 10L28 10L28 11L26 11L26 10L25 10L25 7L26 7L26 6L25 6L25 5L24 5L24 6L23 6L23 5L22 5L22 4L19 4L19 3L18 3L18 4L17 4L17 3L15 3L15 2L13 2L13 1ZM18 5L18 7L19 7L19 5ZM31 5L31 7L32 7L32 5ZM9 6L9 7L10 7L10 6ZM20 6L20 7L21 7L21 6ZM22 6L22 8L24 8L24 7L25 7L25 6L24 6L24 7L23 7L23 6ZM5 8L5 9L7 9L7 8ZM8 9L8 10L9 10L9 9ZM21 9L21 10L20 10L20 11L21 11L21 10L22 10L22 9ZM18 10L18 12L19 12L19 10ZM24 10L24 14L25 14L25 16L26 16L26 15L27 15L27 16L28 16L28 15L27 15L27 14L25 14L25 13L26 13L26 12L25 12L25 10ZM31 11L31 12L30 12L30 14L29 14L29 12L28 12L28 14L29 14L29 15L31 15L31 13L32 13L32 11ZM38 11L38 12L39 12L39 11ZM35 12L35 13L36 13L36 12ZM38 13L38 14L37 14L37 15L39 15L39 13ZM29 16L29 17L31 17L31 18L28 18L28 17L26 17L26 18L27 18L27 19L31 19L31 20L30 20L30 21L31 21L31 22L32 22L32 21L31 21L31 20L32 20L32 17L31 17L31 16ZM21 17L21 18L22 18L22 17ZM34 17L34 18L35 18L35 17ZM36 17L36 18L38 18L38 17ZM15 18L15 19L13 19L13 20L12 20L12 19L11 19L11 20L10 20L10 21L9 21L9 20L8 20L8 21L9 21L9 22L10 22L10 21L11 21L11 22L12 22L12 23L13 23L13 24L14 24L14 23L16 23L16 24L17 24L17 23L16 23L16 22L17 22L17 19L16 19L16 18ZM0 19L0 20L1 20L1 19ZM2 19L2 20L4 20L4 19ZM37 19L37 20L38 20L38 19ZM11 20L11 21L12 21L12 22L13 22L13 21L14 21L14 20L13 20L13 21L12 21L12 20ZM15 20L15 22L16 22L16 20ZM20 20L20 21L21 21L21 20ZM25 20L25 21L26 21L26 22L25 22L25 23L24 23L24 24L23 24L23 25L24 25L24 26L21 26L21 27L20 27L20 25L22 25L22 24L20 24L20 25L17 25L17 27L19 27L19 28L20 28L20 29L21 29L21 27L24 27L24 26L25 26L25 27L26 27L26 28L24 28L24 29L23 29L23 28L22 28L22 30L23 30L23 31L22 31L22 32L23 32L23 33L22 33L22 34L24 34L24 32L23 32L23 31L24 31L24 29L25 29L25 32L26 32L26 30L27 30L27 31L28 31L28 30L27 30L27 29L30 29L30 30L31 30L31 29L30 29L30 28L29 28L29 26L32 26L32 23L31 23L31 25L29 25L29 26L28 26L28 23L29 23L29 20L28 20L28 21L27 21L27 20ZM26 22L26 23L25 23L25 24L27 24L27 22ZM8 23L8 24L6 24L6 25L8 25L8 24L9 24L9 23ZM34 23L34 24L35 24L35 26L34 26L34 27L36 27L36 25L37 25L37 24L36 24L36 23ZM40 23L40 24L41 24L41 23ZM0 24L0 25L2 25L2 24ZM25 25L25 26L26 26L26 27L27 27L27 28L26 28L26 29L27 29L27 28L28 28L28 27L27 27L27 25ZM38 26L38 27L39 27L39 26ZM31 27L31 28L32 28L32 27ZM9 28L9 29L10 29L10 30L12 30L12 31L13 31L13 32L14 32L14 30L15 30L15 32L16 32L16 31L18 31L18 32L19 32L19 30L16 30L16 29L15 29L15 28L14 28L14 29L11 29L11 28ZM34 28L34 30L33 30L33 31L34 31L34 32L36 32L36 31L37 31L37 32L39 32L39 30L40 30L40 29L39 29L39 28L36 28L36 29L35 29L35 28ZM36 29L36 30L37 30L37 31L38 31L38 29ZM6 31L6 32L7 32L7 31ZM33 33L33 36L36 36L36 33ZM37 33L37 34L38 34L38 33ZM34 34L34 35L35 35L35 34ZM21 35L21 36L22 36L22 35ZM12 37L12 38L11 38L11 39L12 39L12 38L13 38L13 37ZM15 37L15 39L16 39L16 37ZM24 37L24 38L25 38L25 37ZM32 37L32 38L33 38L33 39L34 39L34 38L36 38L36 37ZM37 38L37 39L38 39L38 38ZM22 39L22 40L23 40L23 39ZM0 0L0 7L7 7L7 0ZM1 1L1 6L6 6L6 1ZM2 2L2 5L5 5L5 2ZM34 0L34 7L41 7L41 0ZM35 1L35 6L40 6L40 1ZM36 2L36 5L39 5L39 2ZM0 34L0 41L7 41L7 34ZM1 35L1 40L6 40L6 35ZM2 36L2 39L5 39L5 36Z" fill="#000000"/></g></g></svg>
