<?xml version="1.0" encoding="UTF-8"?>
<svg xmlns="http://www.w3.org/2000/svg" version="1.1" width="200" height="200" viewBox="0 0 200 200"><rect x="0" y="0" width="200" height="200" fill="#ffffff"/><g transform="scale(4.878)"><g transform="translate(0,0)"><path fill-rule="evenodd" d="M8 0L8 1L10 1L10 0ZM13 0L13 2L12 2L12 1L11 1L11 2L12 2L12 4L13 4L13 2L14 2L14 4L16 4L16 5L14 5L14 7L13 7L13 6L12 6L12 5L11 5L11 6L10 6L10 5L9 5L9 4L10 4L10 2L8 2L8 3L9 3L9 4L8 4L8 5L9 5L9 6L8 6L8 8L9 8L9 10L6 10L6 9L7 9L7 8L5 8L5 9L3 9L3 10L1 10L1 9L0 9L0 10L1 10L1 12L0 12L0 13L1 13L1 17L0 17L0 18L1 18L1 19L0 19L0 21L1 21L1 23L0 23L0 24L1 24L1 23L3 23L3 24L2 24L2 29L3 29L3 31L2 31L2 30L1 30L1 26L0 26L0 33L1 33L1 31L2 31L2 33L3 33L3 32L4 32L4 33L7 33L7 32L8 32L8 34L11 34L11 35L12 35L12 34L11 34L11 33L13 33L13 36L14 36L14 35L16 35L16 36L17 36L17 35L16 35L16 33L15 33L15 32L17 32L17 33L19 33L19 32L18 32L18 31L19 31L19 30L18 30L18 27L20 27L20 28L19 28L19 29L21 29L21 30L20 30L20 31L21 31L21 30L22 30L22 32L23 32L23 31L24 31L24 32L25 32L25 34L26 34L26 33L27 33L27 35L25 35L25 36L23 36L23 34L22 34L22 33L20 33L20 34L18 34L18 37L19 37L19 38L18 38L18 39L17 39L17 37L16 37L16 39L15 39L15 37L12 37L12 36L10 36L10 35L8 35L8 36L10 36L10 37L9 37L9 39L10 39L10 41L11 41L11 40L12 40L12 41L16 41L16 40L18 40L18 39L19 39L19 38L20 38L20 40L19 40L19 41L20 41L20 40L21 40L21 41L22 41L22 40L23 40L23 41L24 41L24 40L25 40L25 41L28 41L28 40L29 40L29 41L30 41L30 40L31 40L31 41L32 41L32 40L31 40L31 39L32 39L32 38L33 38L33 41L34 41L34 40L36 40L36 39L38 39L38 40L39 40L39 39L40 39L40 40L41 40L41 39L40 39L40 38L41 38L41 37L40 37L40 34L39 34L39 33L40 33L40 32L41 32L41 29L40 29L40 26L41 26L41 25L36 25L36 26L35 26L35 24L36 24L36 23L35 23L35 24L33 24L33 26L32 26L32 23L31 23L31 24L30 24L30 25L29 25L29 26L28 26L28 24L29 24L29 23L28 23L28 22L29 22L29 20L31 20L31 19L32 19L32 21L30 21L30 22L33 22L33 23L34 23L34 19L32 19L32 17L34 17L34 18L35 18L35 20L36 20L36 21L35 21L35 22L36 22L36 21L38 21L38 22L37 22L37 23L38 23L38 22L41 22L41 20L40 20L40 19L41 19L41 15L40 15L40 14L41 14L41 11L40 11L40 9L41 9L41 8L40 8L40 9L39 9L39 8L38 8L38 10L37 10L37 8L36 8L36 10L35 10L35 11L37 11L37 13L36 13L36 12L34 12L34 9L35 9L35 8L34 8L34 9L33 9L33 10L32 10L32 9L31 9L31 5L32 5L32 4L31 4L31 3L30 3L30 4L31 4L31 5L29 5L29 1L30 1L30 2L31 2L31 0L28 0L28 2L27 2L27 1L25 1L25 2L24 2L24 1L23 1L23 2L24 2L24 3L23 3L23 5L22 5L22 7L21 7L21 5L20 5L20 4L22 4L22 2L21 2L21 1L22 1L22 0L20 0L20 2L19 2L19 1L15 1L15 0ZM15 2L15 3L16 3L16 2ZM18 2L18 3L17 3L17 4L18 4L18 5L17 5L17 8L16 8L16 6L15 6L15 8L16 8L16 9L14 9L14 8L13 8L13 7L12 7L12 6L11 6L11 9L10 9L10 10L9 10L9 11L8 11L8 14L7 14L7 13L6 13L6 14L5 14L5 10L4 10L4 13L3 13L3 11L2 11L2 12L1 12L1 13L2 13L2 16L3 16L3 15L4 15L4 17L1 17L1 18L2 18L2 19L1 19L1 21L2 21L2 19L4 19L4 20L7 20L7 21L5 21L5 22L3 22L3 23L5 23L5 24L3 24L3 28L4 28L4 30L5 30L5 31L6 31L6 32L7 32L7 31L6 31L6 30L8 30L8 31L9 31L9 32L13 32L13 33L14 33L14 34L15 34L15 33L14 33L14 32L15 32L15 31L17 31L17 28L16 28L16 27L14 27L14 28L13 28L13 29L11 29L11 28L10 28L10 25L9 25L9 28L8 28L8 26L7 26L7 25L6 25L6 26L5 26L5 28L4 28L4 25L5 25L5 24L7 24L7 23L8 23L8 24L11 24L11 26L12 26L12 27L13 27L13 23L14 23L14 24L16 24L16 26L19 26L19 23L20 23L20 25L21 25L21 26L20 26L20 27L21 27L21 28L22 28L22 29L23 29L23 30L25 30L25 32L27 32L27 33L28 33L28 34L29 34L29 36L31 36L31 35L30 35L30 34L32 34L32 32L33 32L33 31L34 31L34 32L35 32L35 31L36 31L36 29L37 29L37 32L39 32L39 31L38 31L38 30L40 30L40 29L39 29L39 28L36 28L36 27L37 27L37 26L36 26L36 27L34 27L34 26L33 26L33 27L32 27L32 26L31 26L31 25L30 25L30 26L29 26L29 28L28 28L28 27L27 27L27 24L26 24L26 26L25 26L25 24L24 24L24 26L23 26L23 27L22 27L22 25L23 25L23 21L24 21L24 23L25 23L25 20L26 20L26 22L27 22L27 19L26 19L26 18L25 18L25 16L28 16L28 20L29 20L29 19L31 19L31 17L30 17L30 18L29 18L29 16L31 16L31 15L29 15L29 16L28 16L28 15L27 15L27 14L30 14L30 11L31 11L31 12L32 12L32 10L31 10L31 9L29 9L29 10L30 10L30 11L27 11L27 7L28 7L28 6L29 6L29 8L30 8L30 6L29 6L29 5L28 5L28 4L27 4L27 2L26 2L26 3L25 3L25 4L26 4L26 5L27 5L27 7L26 7L26 6L25 6L25 7L24 7L24 5L23 5L23 7L22 7L22 15L21 15L21 11L20 11L20 12L18 12L18 13L20 13L20 14L18 14L18 15L17 15L17 13L15 13L15 12L16 12L16 11L18 11L18 10L17 10L17 9L19 9L19 10L20 10L20 9L21 9L21 8L20 8L20 9L19 9L19 8L18 8L18 6L19 6L19 7L20 7L20 6L19 6L19 2ZM32 2L32 3L33 3L33 2ZM9 6L9 7L10 7L10 6ZM32 6L32 8L33 8L33 6ZM12 8L12 9L13 9L13 8ZM23 8L23 9L25 9L25 10L26 10L26 8ZM10 10L10 11L11 11L11 12L12 12L12 13L11 13L11 14L13 14L13 12L15 12L15 10L14 10L14 11L11 11L11 10ZM6 11L6 12L7 12L7 11ZM24 11L24 14L25 14L25 15L26 15L26 14L25 14L25 13L27 13L27 11L26 11L26 12L25 12L25 11ZM38 11L38 12L40 12L40 11ZM9 12L9 14L8 14L8 15L9 15L9 14L10 14L10 12ZM14 13L14 14L15 14L15 13ZM31 13L31 14L32 14L32 16L33 16L33 14L32 14L32 13ZM34 13L34 15L35 15L35 16L34 16L34 17L35 17L35 18L36 18L36 20L39 20L39 21L40 21L40 20L39 20L39 19L37 19L37 18L38 18L38 17L37 17L37 16L38 16L38 15L36 15L36 13ZM38 13L38 14L39 14L39 13ZM6 14L6 15L7 15L7 14ZM10 15L10 16L8 16L8 17L7 17L7 16L5 16L5 18L4 18L4 19L7 19L7 18L8 18L8 22L9 22L9 23L10 23L10 22L11 22L11 24L12 24L12 20L13 20L13 22L14 22L14 23L16 23L16 24L17 24L17 25L18 25L18 23L19 23L19 21L17 21L17 20L18 20L18 19L19 19L19 20L20 20L20 19L22 19L22 20L24 20L24 19L25 19L25 18L23 18L23 16L24 16L24 15L22 15L22 16L21 16L21 15L20 15L20 16L21 16L21 17L22 17L22 18L20 18L20 17L19 17L19 16L16 16L16 15L15 15L15 16L16 16L16 17L18 17L18 18L13 18L13 17L14 17L14 15L13 15L13 16L12 16L12 20L11 20L11 21L10 21L10 22L9 22L9 20L10 20L10 19L11 19L11 15ZM35 16L35 17L36 17L36 18L37 18L37 17L36 17L36 16ZM39 16L39 17L40 17L40 16ZM6 17L6 18L7 18L7 17ZM8 17L8 18L9 18L9 19L10 19L10 18L9 18L9 17ZM13 19L13 20L14 20L14 22L16 22L16 23L17 23L17 22L16 22L16 20L17 20L17 19L16 19L16 20L15 20L15 19ZM5 22L5 23L7 23L7 22ZM21 22L21 24L22 24L22 22ZM39 23L39 24L41 24L41 23ZM6 26L6 27L7 27L7 26ZM24 26L24 27L25 27L25 28L24 28L24 29L25 29L25 30L26 30L26 27L25 27L25 26ZM38 26L38 27L39 27L39 26ZM5 28L5 30L6 30L6 29L7 29L7 28ZM15 28L15 29L14 29L14 31L15 31L15 30L16 30L16 28ZM27 28L27 29L28 29L28 31L27 31L27 32L29 32L29 33L31 33L31 32L29 32L29 31L32 31L32 30L31 30L31 29L30 29L30 28L29 28L29 29L28 29L28 28ZM32 28L32 29L33 29L33 28ZM34 28L34 29L36 29L36 28ZM8 29L8 30L9 30L9 31L10 31L10 30L9 30L9 29ZM29 29L29 30L30 30L30 29ZM12 30L12 31L13 31L13 30ZM33 33L33 36L36 36L36 33ZM21 34L21 36L20 36L20 35L19 35L19 37L21 37L21 36L22 36L22 39L21 39L21 40L22 40L22 39L23 39L23 40L24 40L24 39L25 39L25 40L26 40L26 39L27 39L27 40L28 40L28 39L27 39L27 38L25 38L25 37L24 37L24 39L23 39L23 36L22 36L22 34ZM34 34L34 35L35 35L35 34ZM37 34L37 37L38 37L38 38L40 38L40 37L39 37L39 35L38 35L38 34ZM26 36L26 37L27 37L27 36ZM11 37L11 38L10 38L10 39L12 39L12 40L13 40L13 38L12 38L12 37ZM29 37L29 38L30 38L30 39L29 39L29 40L30 40L30 39L31 39L31 37ZM34 37L34 38L36 38L36 37ZM0 0L0 7L7 7L7 0ZM1 1L1 6L6 6L6 1ZM2 2L2 5L5 5L5 2ZM34 0L34 7L41 7L41 0ZM35 1L35 6L40 6L40 1ZM36 2L36 5L39 5L39 2ZM0 34L0 41L7 41L7 34ZM1 35L1 40L6 40L6 35ZM2 36L2 39L5 39L5 36Z" fill="#000000"/></g></g></svg>
