<?xml version="1.0" encoding="UTF-8"?>
<svg xmlns="http://www.w3.org/2000/svg" version="1.1" width="200" height="200" viewBox="0 0 200 200"><rect x="0" y="0" width="200" height="200" fill="#ffffff"/><g transform="scale(6.897)"><g transform="translate(0,0)"><path fill-rule="evenodd" d="M9 0L9 1L13 1L13 2L10 2L10 3L11 3L11 4L9 4L9 2L8 2L8 4L9 4L9 5L10 5L10 7L9 7L9 6L8 6L8 7L9 7L9 9L8 9L8 8L6 8L6 9L7 9L7 10L5 10L5 8L3 8L3 9L2 9L2 10L1 10L1 9L0 9L0 12L1 12L1 13L0 13L0 16L3 16L3 17L5 17L5 18L3 18L3 19L7 19L7 18L8 18L8 20L2 20L2 17L0 17L0 21L8 21L8 23L9 23L9 24L8 24L8 26L9 26L9 24L10 24L10 27L11 27L11 29L12 29L12 27L14 27L14 28L13 28L13 29L14 29L14 28L16 28L16 29L17 29L17 27L18 27L18 29L20 29L20 28L21 28L21 29L23 29L23 28L24 28L24 29L25 29L25 27L23 27L23 28L22 28L22 26L21 26L21 27L20 27L20 28L19 28L19 27L18 27L18 26L19 26L19 25L24 25L24 26L25 26L25 22L27 22L27 24L26 24L26 29L28 29L28 28L27 28L27 27L29 27L29 26L27 26L27 25L29 25L29 24L28 24L28 23L29 23L29 21L28 21L28 22L27 22L27 21L26 21L26 20L27 20L27 19L26 19L26 18L28 18L28 19L29 19L29 17L28 17L28 16L29 16L29 14L27 14L27 13L29 13L29 11L28 11L28 10L27 10L27 11L26 11L26 9L27 9L27 8L25 8L25 12L24 12L24 16L23 16L23 12L22 12L22 11L21 11L21 10L19 10L19 9L17 9L17 8L19 8L19 6L20 6L20 8L21 8L21 4L19 4L19 3L20 3L20 1L21 1L21 0L19 0L19 1L18 1L18 0L15 0L15 1L13 1L13 0ZM16 1L16 2L14 2L14 4L15 4L15 3L16 3L16 4L17 4L17 5L16 5L16 6L15 6L15 14L16 14L16 15L13 15L13 13L14 13L14 9L13 9L13 8L12 8L12 4L13 4L13 3L12 3L12 4L11 4L11 7L10 7L10 9L9 9L9 10L7 10L7 11L5 11L5 10L4 10L4 11L5 11L5 14L7 14L7 15L4 15L4 16L5 16L5 17L6 17L6 18L7 18L7 17L6 17L6 16L7 16L7 15L8 15L8 13L9 13L9 16L8 16L8 17L9 17L9 19L10 19L10 20L8 20L8 21L12 21L12 22L10 22L10 23L12 23L12 24L11 24L11 25L14 25L14 23L15 23L15 24L17 24L17 25L19 25L19 24L20 24L20 21L19 21L19 18L20 18L20 19L21 19L21 20L22 20L22 19L21 19L21 16L20 16L20 15L21 15L21 14L22 14L22 12L21 12L21 14L20 14L20 15L18 15L18 12L17 12L17 11L19 11L19 10L17 10L17 9L16 9L16 8L17 8L17 7L18 7L18 6L19 6L19 4L18 4L18 3L19 3L19 2L18 2L18 1ZM13 6L13 7L14 7L14 6ZM16 6L16 7L17 7L17 6ZM11 9L11 10L9 10L9 12L12 12L12 13L10 13L10 14L12 14L12 13L13 13L13 12L12 12L12 11L13 11L13 9ZM22 9L22 10L23 10L23 11L24 11L24 9ZM1 11L1 12L2 12L2 11ZM7 11L7 12L6 12L6 13L7 13L7 12L8 12L8 11ZM27 11L27 12L28 12L28 11ZM16 12L16 14L17 14L17 12ZM19 12L19 13L20 13L20 12ZM25 13L25 16L26 16L26 17L27 17L27 16L28 16L28 15L27 15L27 16L26 16L26 13ZM1 14L1 15L3 15L3 14ZM10 15L10 17L11 17L11 16L12 16L12 15ZM17 15L17 16L16 16L16 17L17 17L17 18L19 18L19 16L18 16L18 15ZM17 16L17 17L18 17L18 16ZM22 16L22 17L23 17L23 16ZM14 17L14 18L13 18L13 20L15 20L15 22L16 22L16 23L18 23L18 24L19 24L19 23L18 23L18 22L19 22L19 21L18 21L18 20L17 20L17 21L18 21L18 22L16 22L16 20L15 20L15 19L14 19L14 18L15 18L15 17ZM10 18L10 19L11 19L11 18ZM23 19L23 20L26 20L26 19ZM13 21L13 22L14 22L14 21ZM21 21L21 24L24 24L24 21ZM22 22L22 23L23 23L23 22ZM15 25L15 27L16 27L16 25ZM11 26L11 27L12 27L12 26ZM9 28L9 29L10 29L10 28ZM0 0L0 7L7 7L7 0ZM1 1L1 6L6 6L6 1ZM2 2L2 5L5 5L5 2ZM22 0L22 7L29 7L29 0ZM23 1L23 6L28 6L28 1ZM24 2L24 5L27 5L27 2ZM0 22L0 29L7 29L7 22ZM1 23L1 28L6 28L6 23ZM2 24L2 27L5 27L5 24Z" fill="#000000"/></g></g></svg>
