<?xml version="1.0" encoding="UTF-8"?>
<svg xmlns="http://www.w3.org/2000/svg" version="1.1" width="200" height="200" viewBox="0 0 200 200"><rect x="0" y="0" width="200" height="200" fill="#ffffff"/><g transform="scale(6.897)"><g transform="translate(0,0)"><path fill-rule="evenodd" d="M11 0L11 1L10 1L10 2L12 2L12 3L10 3L10 4L11 4L11 5L10 5L10 7L9 7L9 6L8 6L8 8L6 8L6 9L5 9L5 10L4 10L4 13L3 13L3 10L2 10L2 9L4 9L4 8L2 8L2 9L0 9L0 14L1 14L1 15L0 15L0 16L1 16L1 15L2 15L2 20L1 20L1 21L8 21L8 23L9 23L9 24L10 24L10 25L11 25L11 27L9 27L9 25L8 25L8 27L9 27L9 28L11 28L11 27L13 27L13 28L12 28L12 29L14 29L14 27L13 27L13 26L15 26L15 25L17 25L17 24L18 24L18 26L16 26L16 27L15 27L15 28L18 28L18 29L20 29L20 28L18 28L18 26L20 26L20 25L23 25L23 26L24 26L24 27L22 27L22 29L23 29L23 28L25 28L25 29L27 29L27 28L29 28L29 26L28 26L28 27L27 27L27 26L26 26L26 27L25 27L25 26L24 26L24 25L26 25L26 23L25 23L25 22L26 22L26 20L27 20L27 24L28 24L28 25L29 25L29 21L28 21L28 20L27 20L27 18L29 18L29 17L26 17L26 16L25 16L25 15L24 15L24 16L23 16L23 17L21 17L21 18L20 18L20 17L18 17L18 16L19 16L19 15L20 15L20 14L21 14L21 13L20 13L20 12L22 12L22 9L23 9L23 13L22 13L22 15L23 15L23 14L24 14L24 13L25 13L25 14L26 14L26 15L27 15L27 16L28 16L28 15L29 15L29 14L28 14L28 15L27 15L27 13L28 13L28 12L29 12L29 11L28 11L28 12L27 12L27 10L29 10L29 9L27 9L27 10L26 10L26 9L25 9L25 8L24 8L24 9L23 9L23 8L21 8L21 9L20 9L20 7L21 7L21 3L20 3L20 2L18 2L18 1L14 1L14 2L12 2L12 1L13 1L13 0ZM16 2L16 3L13 3L13 4L12 4L12 5L11 5L11 7L10 7L10 8L9 8L9 10L10 10L10 11L11 11L11 12L10 12L10 13L9 13L9 15L8 15L8 14L7 14L7 13L5 13L5 15L3 15L3 16L5 16L5 17L3 17L3 20L8 20L8 21L9 21L9 19L4 19L4 18L8 18L8 16L9 16L9 17L10 17L10 18L11 18L11 17L13 17L13 19L14 19L14 18L15 18L15 20L13 20L13 21L12 21L12 22L14 22L14 23L12 23L12 25L13 25L13 24L14 24L14 23L15 23L15 24L17 24L17 23L20 23L20 21L19 21L19 20L20 20L20 18L16 18L16 17L15 17L15 15L19 15L19 14L20 14L20 13L19 13L19 14L18 14L18 13L17 13L17 12L20 12L20 11L19 11L19 10L20 10L20 9L19 9L19 10L18 10L18 8L19 8L19 7L20 7L20 5L19 5L19 4L20 4L20 3L19 3L19 4L18 4L18 2ZM16 3L16 4L13 4L13 5L15 5L15 6L14 6L14 9L13 9L13 6L12 6L12 7L11 7L11 9L12 9L12 10L11 10L11 11L12 11L12 12L14 12L14 9L15 9L15 8L17 8L17 6L18 6L18 7L19 7L19 5L16 5L16 4L17 4L17 3ZM8 4L8 5L9 5L9 4ZM15 6L15 7L16 7L16 6ZM6 9L6 10L7 10L7 11L5 11L5 12L7 12L7 11L8 11L8 10L7 10L7 9ZM24 9L24 10L25 10L25 9ZM1 10L1 11L2 11L2 10ZM15 10L15 12L17 12L17 11L18 11L18 10ZM25 11L25 13L27 13L27 12L26 12L26 11ZM1 13L1 14L3 14L3 13ZM10 13L10 14L11 14L11 13ZM13 13L13 14L12 14L12 15L10 15L10 16L12 16L12 15L13 15L13 16L14 16L14 15L15 15L15 14L16 14L16 13ZM6 14L6 15L7 15L7 14ZM6 16L6 17L7 17L7 16ZM24 16L24 17L23 17L23 18L22 18L22 19L21 19L21 20L22 20L22 19L24 19L24 20L26 20L26 19L24 19L24 18L26 18L26 17L25 17L25 16ZM0 18L0 19L1 19L1 18ZM18 19L18 20L19 20L19 19ZM10 20L10 22L9 22L9 23L11 23L11 20ZM14 21L14 22L17 22L17 21ZM21 21L21 24L24 24L24 21ZM22 22L22 23L23 23L23 22ZM19 24L19 25L20 25L20 24ZM26 27L26 28L27 28L27 27ZM0 0L0 7L7 7L7 0ZM1 1L1 6L6 6L6 1ZM2 2L2 5L5 5L5 2ZM22 0L22 7L29 7L29 0ZM23 1L23 6L28 6L28 1ZM24 2L24 5L27 5L27 2ZM0 22L0 29L7 29L7 22ZM1 23L1 28L6 28L6 23ZM2 24L2 27L5 27L5 24Z" fill="#000000"/></g></g></svg>
