<?xml version="1.0" encoding="UTF-8"?>
<svg xmlns="http://www.w3.org/2000/svg" version="1.1" width="200" height="200" viewBox="0 0 200 200"><rect x="0" y="0" width="200" height="200" fill="#ffffff"/><g transform="scale(4.878)"><g transform="translate(0,0)"><path fill-rule="evenodd" d="M8 0L8 3L10 3L10 4L9 4L9 5L8 5L8 9L7 9L7 8L6 8L6 9L7 9L7 10L5 10L5 11L3 11L3 13L2 13L2 12L1 12L1 11L2 11L2 10L3 10L3 9L5 9L5 8L2 8L2 9L0 9L0 16L1 16L1 15L2 15L2 16L3 16L3 15L4 15L4 14L6 14L6 15L7 15L7 16L4 16L4 17L3 17L3 18L1 18L1 17L0 17L0 18L1 18L1 19L0 19L0 21L1 21L1 22L0 22L0 24L1 24L1 22L2 22L2 24L4 24L4 25L7 25L7 24L8 24L8 23L10 23L10 22L12 22L12 23L11 23L11 26L9 26L9 25L10 25L10 24L9 24L9 25L8 25L8 26L9 26L9 27L8 27L8 28L9 28L9 27L11 27L11 28L10 28L10 29L13 29L13 30L12 30L12 31L11 31L11 32L12 32L12 33L11 33L11 36L10 36L10 32L9 32L9 31L10 31L10 30L9 30L9 29L7 29L7 28L6 28L6 29L7 29L7 30L6 30L6 31L4 31L4 32L2 32L2 33L8 33L8 34L9 34L9 36L8 36L8 39L9 39L9 41L10 41L10 39L13 39L13 41L19 41L19 40L18 40L18 39L16 39L16 37L15 37L15 39L13 39L13 37L14 37L14 36L16 36L16 35L18 35L18 36L17 36L17 38L20 38L20 39L21 39L21 37L23 37L23 36L24 36L24 34L23 34L23 31L24 31L24 33L25 33L25 32L26 32L26 30L25 30L25 31L24 31L24 27L25 27L25 28L26 28L26 26L27 26L27 33L26 33L26 34L25 34L25 35L27 35L27 36L25 36L25 37L24 37L24 38L22 38L22 39L24 39L24 38L25 38L25 37L26 37L26 38L27 38L27 39L28 39L28 38L27 38L27 36L28 36L28 37L29 37L29 36L31 36L31 35L32 35L32 37L30 37L30 38L31 38L31 40L33 40L33 41L34 41L34 40L33 40L33 39L32 39L32 38L34 38L34 39L35 39L35 40L36 40L36 39L37 39L37 40L40 40L40 38L41 38L41 37L39 37L39 36L40 36L40 34L41 34L41 33L40 33L40 32L41 32L41 31L40 31L40 30L41 30L41 29L39 29L39 30L38 30L38 31L40 31L40 32L37 32L37 31L36 31L36 32L33 32L33 31L32 31L32 30L33 30L33 29L34 29L34 28L33 28L33 29L32 29L32 30L31 30L31 29L30 29L30 28L28 28L28 27L29 27L29 26L32 26L32 27L34 27L34 26L35 26L35 25L36 25L36 26L37 26L37 27L35 27L35 29L36 29L36 30L37 30L37 29L36 29L36 28L38 28L38 26L39 26L39 27L40 27L40 26L41 26L41 23L39 23L39 24L40 24L40 26L39 26L39 25L36 25L36 24L37 24L37 23L38 23L38 22L37 22L37 21L39 21L39 20L36 20L36 19L35 19L35 17L36 17L36 18L37 18L37 17L36 17L36 16L35 16L35 17L34 17L34 16L32 16L32 17L30 17L30 16L29 16L29 15L31 15L31 12L32 12L32 13L33 13L33 14L32 14L32 15L34 15L34 13L35 13L35 11L37 11L37 12L38 12L38 11L39 11L39 13L38 13L38 14L39 14L39 15L40 15L40 14L41 14L41 13L40 13L40 10L41 10L41 8L38 8L38 9L40 9L40 10L37 10L37 9L36 9L36 8L33 8L33 9L30 9L30 8L29 8L29 6L30 6L30 7L31 7L31 5L32 5L32 7L33 7L33 5L32 5L32 4L33 4L33 2L32 2L32 4L30 4L30 5L27 5L27 4L26 4L26 7L25 7L25 4L23 4L23 5L22 5L22 3L24 3L24 2L23 2L23 1L21 1L21 2L22 2L22 3L21 3L21 6L20 6L20 4L19 4L19 5L18 5L18 7L17 7L17 5L16 5L16 4L17 4L17 3L16 3L16 4L15 4L15 3L14 3L14 1L15 1L15 2L18 2L18 3L20 3L20 0L18 0L18 1L16 1L16 0L13 0L13 3L10 3L10 2L12 2L12 1L11 1L11 0L10 0L10 1L9 1L9 0ZM24 0L24 1L25 1L25 0ZM26 0L26 1L27 1L27 2L26 2L26 3L28 3L28 4L29 4L29 3L31 3L31 2L30 2L30 1L33 1L33 0L29 0L29 1L27 1L27 0ZM11 5L11 7L12 7L12 8L13 8L13 7L14 7L14 8L15 8L15 10L13 10L13 9L12 9L12 10L11 10L11 9L9 9L9 10L11 10L11 11L12 11L12 10L13 10L13 11L14 11L14 12L13 12L13 13L14 13L14 14L15 14L15 13L16 13L16 14L19 14L19 13L20 13L20 15L21 15L21 16L19 16L19 15L18 15L18 16L17 16L17 17L15 17L15 16L16 16L16 15L12 15L12 16L10 16L10 17L8 17L8 16L9 16L9 15L10 15L10 14L12 14L12 13L11 13L11 12L10 12L10 14L9 14L9 13L6 13L6 12L7 12L7 11L8 11L8 10L7 10L7 11L6 11L6 12L4 12L4 13L3 13L3 14L2 14L2 15L3 15L3 14L4 14L4 13L6 13L6 14L7 14L7 15L8 15L8 16L7 16L7 17L4 17L4 19L3 19L3 20L2 20L2 19L1 19L1 20L2 20L2 22L3 22L3 21L4 21L4 23L5 23L5 24L7 24L7 23L8 23L8 22L7 22L7 21L6 21L6 20L9 20L9 18L11 18L11 17L12 17L12 18L13 18L13 19L14 19L14 20L12 20L12 21L13 21L13 23L12 23L12 24L13 24L13 25L14 25L14 24L15 24L15 22L16 22L16 21L17 21L17 22L21 22L21 23L25 23L25 22L26 22L26 25L27 25L27 26L28 26L28 25L29 25L29 24L30 24L30 25L32 25L32 26L34 26L34 25L35 25L35 24L36 24L36 23L35 23L35 22L36 22L36 21L35 21L35 19L34 19L34 18L33 18L33 17L32 17L32 18L31 18L31 19L30 19L30 17L29 17L29 16L28 16L28 15L29 15L29 14L30 14L30 13L29 13L29 12L30 12L30 11L32 11L32 12L33 12L33 13L34 13L34 12L33 12L33 11L34 11L34 9L33 9L33 10L30 10L30 9L27 9L27 7L28 7L28 6L27 6L27 7L26 7L26 8L25 8L25 7L24 7L24 5L23 5L23 7L22 7L22 6L21 6L21 7L20 7L20 6L19 6L19 7L18 7L18 8L17 8L17 7L16 7L16 5L15 5L15 7L14 7L14 6L13 6L13 5ZM9 6L9 7L10 7L10 6ZM12 6L12 7L13 7L13 6ZM15 7L15 8L16 8L16 9L17 9L17 11L18 11L18 12L16 12L16 13L18 13L18 12L20 12L20 13L22 13L22 14L21 14L21 15L22 15L22 16L21 16L21 17L20 17L20 20L21 20L21 22L23 22L23 21L22 21L22 18L23 18L23 20L24 20L24 21L28 21L28 22L27 22L27 24L28 24L28 23L29 23L29 21L28 21L28 20L29 20L29 18L27 18L27 17L26 17L26 18L27 18L27 20L26 20L26 19L24 19L24 18L25 18L25 17L24 17L24 18L23 18L23 16L26 16L26 15L25 15L25 13L26 13L26 14L29 14L29 13L28 13L28 11L30 11L30 10L27 10L27 9L25 9L25 10L24 10L24 7L23 7L23 8L22 8L22 7L21 7L21 9L20 9L20 10L19 10L19 11L18 11L18 9L17 9L17 8L16 8L16 7ZM19 7L19 8L20 8L20 7ZM21 9L21 10L20 10L20 11L21 11L21 12L24 12L24 10L22 10L22 9ZM35 9L35 10L36 10L36 9ZM21 10L21 11L22 11L22 10ZM26 10L26 11L25 11L25 12L27 12L27 10ZM36 13L36 15L37 15L37 16L38 16L38 18L39 18L39 19L40 19L40 18L41 18L41 16L40 16L40 18L39 18L39 16L38 16L38 15L37 15L37 13ZM39 13L39 14L40 14L40 13ZM18 16L18 17L17 17L17 18L16 18L16 19L15 19L15 20L17 20L17 21L18 21L18 17L19 17L19 16ZM7 17L7 18L6 18L6 19L8 19L8 17ZM13 17L13 18L15 18L15 17ZM21 17L21 18L22 18L22 17ZM32 18L32 21L31 21L31 20L30 20L30 21L31 21L31 22L32 22L32 23L31 23L31 24L32 24L32 25L34 25L34 24L33 24L33 22L32 22L32 21L34 21L34 22L35 22L35 21L34 21L34 20L33 20L33 18ZM4 19L4 20L5 20L5 19ZM10 20L10 21L9 21L9 22L10 22L10 21L11 21L11 20ZM40 20L40 21L41 21L41 20ZM5 22L5 23L7 23L7 22ZM16 23L16 24L17 24L17 26L16 26L16 25L15 25L15 26L13 26L13 27L15 27L15 28L13 28L13 29L14 29L14 30L16 30L16 32L18 32L18 35L22 35L22 34L20 34L20 33L19 33L19 32L21 32L21 33L22 33L22 32L21 32L21 30L20 30L20 31L19 31L19 32L18 32L18 29L20 29L20 28L18 28L18 27L21 27L21 26L24 26L24 24L21 24L21 25L20 25L20 23L18 23L18 24L17 24L17 23ZM18 24L18 25L19 25L19 26L20 26L20 25L19 25L19 24ZM0 25L0 26L1 26L1 27L0 27L0 28L1 28L1 29L0 29L0 33L1 33L1 30L2 30L2 31L3 31L3 30L5 30L5 28L4 28L4 27L3 27L3 25ZM6 26L6 27L7 27L7 26ZM11 26L11 27L12 27L12 26ZM15 26L15 27L16 27L16 28L15 28L15 29L17 29L17 27L16 27L16 26ZM2 28L2 30L3 30L3 28ZM21 28L21 29L22 29L22 30L23 30L23 28ZM28 29L28 30L30 30L30 29ZM7 30L7 31L6 31L6 32L7 32L7 31L9 31L9 30ZM34 30L34 31L35 31L35 30ZM13 31L13 32L14 32L14 31ZM28 31L28 33L27 33L27 34L28 34L28 33L29 33L29 32L30 32L30 31ZM8 32L8 33L9 33L9 32ZM15 33L15 34L12 34L12 35L13 35L13 36L14 36L14 35L15 35L15 34L16 34L16 33ZM30 33L30 35L31 35L31 33ZM33 33L33 36L36 36L36 33ZM37 33L37 34L38 34L38 35L37 35L37 36L39 36L39 34L38 34L38 33ZM34 34L34 35L35 35L35 34ZM28 35L28 36L29 36L29 35ZM9 36L9 39L10 39L10 36ZM19 36L19 37L21 37L21 36ZM34 37L34 38L36 38L36 37ZM37 38L37 39L38 39L38 38ZM15 39L15 40L16 40L16 39ZM25 39L25 40L22 40L22 41L26 41L26 39ZM27 40L27 41L28 41L28 40ZM29 40L29 41L30 41L30 40ZM0 0L0 7L7 7L7 0ZM1 1L1 6L6 6L6 1ZM2 2L2 5L5 5L5 2ZM34 0L34 7L41 7L41 0ZM35 1L35 6L40 6L40 1ZM36 2L36 5L39 5L39 2ZM0 34L0 41L7 41L7 34ZM1 35L1 40L6 40L6 35ZM2 36L2 39L5 39L5 36Z" fill="#000000"/></g></g></svg>
