<?xml version="1.0" encoding="UTF-8"?>
<svg xmlns="http://www.w3.org/2000/svg" version="1.1" width="200" height="200" viewBox="0 0 200 200"><rect x="0" y="0" width="200" height="200" fill="#ffffff"/><g transform="scale(4.878)"><g transform="translate(0,0)"><path fill-rule="evenodd" d="M9 0L9 1L11 1L11 0ZM12 0L12 1L13 1L13 0ZM14 0L14 1L15 1L15 4L14 4L14 2L13 2L13 3L11 3L11 2L10 2L10 3L9 3L9 2L8 2L8 4L9 4L9 5L10 5L10 7L9 7L9 6L8 6L8 7L9 7L9 9L8 9L8 8L6 8L6 9L7 9L7 10L5 10L5 8L3 8L3 9L1 9L1 10L0 10L0 12L3 12L3 11L4 11L4 12L5 12L5 13L3 13L3 14L5 14L5 15L3 15L3 16L2 16L2 15L1 15L1 14L2 14L2 13L0 13L0 18L1 18L1 16L2 16L2 18L3 18L3 19L4 19L4 16L5 16L5 21L4 21L4 20L2 20L2 19L0 19L0 22L2 22L2 25L1 25L1 23L0 23L0 25L1 25L1 26L0 26L0 27L2 27L2 28L1 28L1 29L0 29L0 33L2 33L2 32L3 32L3 33L4 33L4 32L3 32L3 31L2 31L2 30L4 30L4 31L5 31L5 30L6 30L6 31L7 31L7 32L5 32L5 33L7 33L7 32L8 32L8 35L9 35L9 36L8 36L8 38L9 38L9 37L10 37L10 39L11 39L11 40L9 40L9 41L14 41L14 40L12 40L12 39L13 39L13 37L14 37L14 39L15 39L15 41L16 41L16 39L15 39L15 38L17 38L17 39L18 39L18 40L17 40L17 41L22 41L22 40L21 40L21 39L20 39L20 38L22 38L22 39L23 39L23 41L25 41L25 40L24 40L24 38L25 38L25 39L26 39L26 40L27 40L27 39L28 39L28 41L29 41L29 39L28 39L28 36L29 36L29 38L30 38L30 39L31 39L31 40L30 40L30 41L31 41L31 40L32 40L32 41L34 41L34 40L35 40L35 41L36 41L36 39L37 39L37 40L38 40L38 41L39 41L39 40L38 40L38 39L40 39L40 40L41 40L41 35L40 35L40 34L39 34L39 31L40 31L40 33L41 33L41 30L38 30L38 31L36 31L36 30L37 30L37 29L34 29L34 28L38 28L38 29L40 29L40 28L39 28L39 27L41 27L41 25L39 25L39 24L37 24L37 23L39 23L39 22L41 22L41 21L39 21L39 20L40 20L40 19L41 19L41 18L40 18L40 17L41 17L41 12L38 12L38 10L39 10L39 11L40 11L40 9L39 9L39 8L37 8L37 9L35 9L35 10L34 10L34 11L35 11L35 13L36 13L36 16L37 16L37 17L35 17L35 20L34 20L34 19L33 19L33 18L32 18L32 17L31 17L31 15L32 15L32 16L33 16L33 17L34 17L34 16L35 16L35 14L33 14L33 13L32 13L32 12L30 12L30 10L32 10L32 11L33 11L33 10L32 10L32 8L33 8L33 5L32 5L32 4L33 4L33 2L32 2L32 1L33 1L33 0L32 0L32 1L31 1L31 2L30 2L30 1L29 1L29 0L28 0L28 2L27 2L27 1L26 1L26 0L24 0L24 1L23 1L23 2L22 2L22 1L21 1L21 0L19 0L19 2L18 2L18 0L16 0L16 1L15 1L15 0ZM16 2L16 3L17 3L17 4L18 4L18 2ZM20 2L20 4L19 4L19 5L22 5L22 4L23 4L23 3L24 3L24 5L26 5L26 6L25 6L25 7L26 7L26 8L25 8L25 9L23 9L23 10L24 10L24 11L23 11L23 12L21 12L21 9L22 9L22 6L21 6L21 9L20 9L20 8L19 8L19 9L17 9L17 11L15 11L15 10L14 10L14 11L13 11L13 12L15 12L15 14L14 14L14 13L13 13L13 14L14 14L14 15L12 15L12 16L11 16L11 17L10 17L10 18L9 18L9 17L8 17L8 14L7 14L7 13L9 13L9 14L10 14L10 15L11 15L11 14L12 14L12 13L9 13L9 12L11 12L11 11L12 11L12 10L11 10L11 8L12 8L12 9L13 9L13 8L12 8L12 6L13 6L13 7L14 7L14 8L15 8L15 9L16 9L16 6L15 6L15 5L16 5L16 4L15 4L15 5L12 5L12 4L10 4L10 5L12 5L12 6L11 6L11 7L10 7L10 9L9 9L9 11L8 11L8 12L7 12L7 11L5 11L5 10L4 10L4 9L3 9L3 10L2 10L2 11L3 11L3 10L4 10L4 11L5 11L5 12L7 12L7 13L6 13L6 14L7 14L7 15L5 15L5 16L7 16L7 17L6 17L6 18L8 18L8 20L7 20L7 19L6 19L6 20L7 20L7 21L6 21L6 22L7 22L7 21L9 21L9 22L8 22L8 23L6 23L6 24L8 24L8 23L9 23L9 27L8 27L8 26L7 26L7 25L6 25L6 26L7 26L7 27L6 27L6 28L5 28L5 29L4 29L4 27L3 27L3 29L4 29L4 30L5 30L5 29L6 29L6 30L7 30L7 31L9 31L9 32L10 32L10 30L11 30L11 31L12 31L12 33L13 33L13 32L14 32L14 34L12 34L12 35L11 35L11 36L10 36L10 37L13 37L13 36L12 36L12 35L15 35L15 34L16 34L16 36L17 36L17 37L18 37L18 39L19 39L19 40L20 40L20 39L19 39L19 36L20 36L20 37L21 37L21 36L22 36L22 34L23 34L23 33L24 33L24 35L23 35L23 36L24 36L24 37L23 37L23 38L24 38L24 37L25 37L25 38L26 38L26 37L27 37L27 36L28 36L28 35L29 35L29 36L30 36L30 37L31 37L31 36L32 36L32 35L31 35L31 33L32 33L32 32L33 32L33 31L34 31L34 32L35 32L35 30L33 30L33 31L32 31L32 29L30 29L30 28L32 28L32 27L33 27L33 26L32 26L32 25L33 25L33 24L35 24L35 23L36 23L36 21L34 21L34 22L31 22L31 21L30 21L30 20L31 20L31 19L29 19L29 20L28 20L28 21L29 21L29 22L28 22L28 23L27 23L27 22L26 22L26 21L27 21L27 19L26 19L26 17L30 17L30 18L31 18L31 17L30 17L30 12L29 12L29 10L30 10L30 9L31 9L31 8L30 8L30 6L31 6L31 7L32 7L32 5L30 5L30 6L29 6L29 7L28 7L28 4L26 4L26 3L25 3L25 2L23 2L23 3L22 3L22 2ZM28 2L28 3L29 3L29 4L32 4L32 2L31 2L31 3L29 3L29 2ZM21 3L21 4L22 4L22 3ZM14 6L14 7L15 7L15 6ZM17 6L17 8L18 8L18 6ZM19 6L19 7L20 7L20 6ZM23 6L23 8L24 8L24 6ZM26 6L26 7L27 7L27 8L26 8L26 9L27 9L27 10L25 10L25 11L24 11L24 12L23 12L23 13L20 13L20 14L21 14L21 15L19 15L19 14L18 14L18 15L19 15L19 16L21 16L21 15L22 15L22 14L24 14L24 13L25 13L25 16L28 16L28 15L29 15L29 12L28 12L28 10L29 10L29 9L30 9L30 8L29 8L29 9L28 9L28 7L27 7L27 6ZM19 9L19 10L18 10L18 11L17 11L17 13L19 13L19 12L20 12L20 9ZM37 9L37 10L35 10L35 11L37 11L37 10L38 10L38 9ZM25 12L25 13L26 13L26 15L28 15L28 13L27 13L27 12ZM36 12L36 13L37 13L37 16L38 16L38 17L37 17L37 18L36 18L36 20L38 20L38 17L40 17L40 16L38 16L38 13L37 13L37 12ZM14 15L14 16L12 16L12 17L15 17L15 18L12 18L12 19L13 19L13 21L14 21L14 19L16 19L16 16L15 16L15 15ZM17 16L17 17L18 17L18 18L17 18L17 19L19 19L19 21L18 21L18 20L17 20L17 21L18 21L18 22L16 22L16 25L15 25L15 24L14 24L14 22L12 22L12 20L10 20L10 19L11 19L11 18L10 18L10 19L9 19L9 20L10 20L10 21L11 21L11 22L12 22L12 24L11 24L11 23L10 23L10 22L9 22L9 23L10 23L10 24L11 24L11 25L10 25L10 26L11 26L11 28L10 28L10 29L9 29L9 28L8 28L8 29L9 29L9 30L10 30L10 29L11 29L11 28L14 28L14 30L13 30L13 29L12 29L12 31L14 31L14 30L15 30L15 27L16 27L16 30L17 30L17 31L15 31L15 32L16 32L16 33L17 33L17 31L18 31L18 32L19 32L19 35L18 35L18 36L19 36L19 35L21 35L21 34L22 34L22 33L23 33L23 32L24 32L24 33L25 33L25 34L26 34L26 35L25 35L25 36L26 36L26 35L28 35L28 34L30 34L30 33L31 33L31 31L30 31L30 29L29 29L29 27L28 27L28 24L30 24L30 25L29 25L29 26L30 26L30 25L32 25L32 24L33 24L33 23L31 23L31 22L29 22L29 23L28 23L28 24L27 24L27 23L26 23L26 22L23 22L23 21L25 21L25 20L24 20L24 19L25 19L25 17L24 17L24 19L23 19L23 17L22 17L22 18L21 18L21 19L23 19L23 20L22 20L22 22L23 22L23 23L21 23L21 22L20 22L20 18L19 18L19 17L18 17L18 16ZM1 20L1 21L2 21L2 22L3 22L3 21L2 21L2 20ZM15 20L15 21L16 21L16 20ZM37 21L37 22L39 22L39 21ZM4 22L4 24L3 24L3 26L5 26L5 22ZM19 22L19 23L20 23L20 22ZM25 23L25 24L24 24L24 25L21 25L21 26L20 26L20 24L17 24L17 25L16 25L16 26L18 26L18 27L17 27L17 29L18 29L18 30L19 30L19 31L20 31L20 30L19 30L19 29L21 29L21 33L22 33L22 29L23 29L23 30L25 30L25 31L24 31L24 32L25 32L25 33L26 33L26 34L27 34L27 33L26 33L26 30L28 30L28 31L27 31L27 32L28 32L28 33L29 33L29 32L30 32L30 31L29 31L29 30L28 30L28 27L27 27L27 26L24 26L24 25L25 25L25 24L26 24L26 25L27 25L27 24L26 24L26 23ZM30 23L30 24L31 24L31 23ZM13 24L13 25L12 25L12 27L15 27L15 25L14 25L14 24ZM36 24L36 25L37 25L37 26L35 26L35 27L39 27L39 25L37 25L37 24ZM21 26L21 28L22 28L22 27L23 27L23 26ZM31 26L31 27L32 27L32 26ZM19 27L19 28L18 28L18 29L19 29L19 28L20 28L20 27ZM24 27L24 28L23 28L23 29L24 29L24 28L25 28L25 29L26 29L26 28L27 28L27 27L26 27L26 28L25 28L25 27ZM6 28L6 29L7 29L7 28ZM37 32L37 34L38 34L38 32ZM9 33L9 35L10 35L10 33ZM33 33L33 36L36 36L36 33ZM34 34L34 35L35 35L35 34ZM30 35L30 36L31 36L31 35ZM38 35L38 37L37 37L37 38L40 38L40 35ZM14 36L14 37L15 37L15 36ZM33 37L33 39L32 39L32 40L33 40L33 39L35 39L35 38L36 38L36 37ZM0 0L0 7L7 7L7 0ZM1 1L1 6L6 6L6 1ZM2 2L2 5L5 5L5 2ZM34 0L34 7L41 7L41 0ZM35 1L35 6L40 6L40 1ZM36 2L36 5L39 5L39 2ZM0 34L0 41L7 41L7 34ZM1 35L1 40L6 40L6 35ZM2 36L2 39L5 39L5 36Z" fill="#000000"/></g></g></svg>
