<?xml version="1.0" encoding="UTF-8"?>
<svg xmlns="http://www.w3.org/2000/svg" version="1.1" width="200" height="200" viewBox="0 0 200 200"><rect x="0" y="0" width="200" height="200" fill="#ffffff"/><g transform="scale(6.897)"><g transform="translate(0,0)"><path fill-rule="evenodd" d="M9 0L9 2L8 2L8 4L9 4L9 5L10 5L10 7L11 7L11 9L10 9L10 10L11 10L11 11L9 11L9 10L8 10L8 8L6 8L6 9L7 9L7 10L4 10L4 9L5 9L5 8L3 8L3 9L2 9L2 10L0 10L0 13L1 13L1 14L0 14L0 16L1 16L1 14L2 14L2 15L5 15L5 16L4 16L4 18L3 18L3 20L2 20L2 17L3 17L3 16L2 16L2 17L0 17L0 21L4 21L4 19L5 19L5 21L7 21L7 20L11 20L11 19L10 19L10 16L9 16L9 17L7 17L7 16L8 16L8 14L6 14L6 15L5 15L5 14L3 14L3 13L2 13L2 12L1 12L1 11L2 11L2 10L3 10L3 12L4 12L4 13L5 13L5 12L6 12L6 13L7 13L7 12L8 12L8 13L10 13L10 12L11 12L11 13L12 13L12 14L9 14L9 15L11 15L11 18L12 18L12 19L13 19L13 20L14 20L14 19L13 19L13 18L14 18L14 17L15 17L15 20L18 20L18 21L16 21L16 23L15 23L15 22L13 22L13 21L10 21L10 22L9 22L9 21L8 21L8 23L10 23L10 24L8 24L8 26L9 26L9 25L10 25L10 24L11 24L11 23L12 23L12 22L13 22L13 24L12 24L12 25L13 25L13 26L10 26L10 28L12 28L12 27L14 27L14 28L13 28L13 29L14 29L14 28L15 28L15 29L20 29L20 28L21 28L21 29L23 29L23 28L24 28L24 29L26 29L26 27L29 27L29 26L27 26L27 25L29 25L29 22L28 22L28 21L26 21L26 20L27 20L27 19L26 19L26 20L23 20L23 19L25 19L25 18L28 18L28 19L29 19L29 17L28 17L28 16L29 16L29 14L28 14L28 13L29 13L29 11L28 11L28 10L27 10L27 8L25 8L25 9L26 9L26 10L25 10L25 12L24 12L24 16L23 16L23 12L22 12L22 11L21 11L21 10L19 10L19 9L17 9L17 8L19 8L19 6L20 6L20 7L21 7L21 4L19 4L19 3L20 3L20 1L21 1L21 0L19 0L19 1L18 1L18 0L15 0L15 1L14 1L14 0L13 0L13 1L12 1L12 0ZM16 1L16 2L13 2L13 3L14 3L14 4L13 4L13 5L12 5L12 2L11 2L11 3L10 3L10 2L9 2L9 4L11 4L11 5L12 5L12 6L11 6L11 7L12 7L12 6L13 6L13 7L14 7L14 8L15 8L15 7L16 7L16 6L15 6L15 7L14 7L14 4L15 4L15 3L17 3L17 4L16 4L16 5L17 5L17 7L18 7L18 6L19 6L19 4L18 4L18 3L19 3L19 2L18 2L18 1ZM8 6L8 7L9 7L9 6ZM12 8L12 9L11 9L11 10L12 10L12 9L13 9L13 8ZM15 9L15 10L13 10L13 11L11 11L11 12L12 12L12 13L13 13L13 11L15 11L15 12L14 12L14 13L15 13L15 12L16 12L16 13L18 13L18 11L17 11L17 10L16 10L16 9ZM22 9L22 10L23 10L23 11L24 11L24 9ZM26 10L26 11L27 11L27 12L28 12L28 11L27 11L27 10ZM4 11L4 12L5 12L5 11ZM6 11L6 12L7 12L7 11ZM16 11L16 12L17 12L17 11ZM19 12L19 13L20 13L20 12ZM21 12L21 14L20 14L20 15L19 15L19 14L17 14L17 15L16 15L16 14L15 14L15 16L17 16L17 15L19 15L19 16L18 16L18 17L17 17L17 18L16 18L16 19L17 19L17 18L18 18L18 17L19 17L19 18L20 18L20 19L21 19L21 20L22 20L22 19L21 19L21 16L20 16L20 15L21 15L21 14L22 14L22 12ZM25 13L25 16L26 16L26 17L27 17L27 16L28 16L28 15L27 15L27 16L26 16L26 13ZM12 14L12 16L13 16L13 17L12 17L12 18L13 18L13 17L14 17L14 16L13 16L13 15L14 15L14 14ZM6 15L6 16L5 16L5 19L6 19L6 20L7 20L7 19L6 19L6 18L7 18L7 17L6 17L6 16L7 16L7 15ZM22 16L22 17L23 17L23 16ZM18 21L18 23L17 23L17 25L15 25L15 24L13 24L13 25L15 25L15 26L14 26L14 27L15 27L15 26L17 26L17 25L19 25L19 28L20 28L20 27L21 27L21 26L22 26L22 28L23 28L23 27L25 27L25 26L24 26L24 25L19 25L19 24L20 24L20 21ZM21 21L21 24L24 24L24 21ZM22 22L22 23L23 23L23 22ZM25 22L25 25L26 25L26 24L28 24L28 23L27 23L27 22ZM18 23L18 24L19 24L19 23ZM16 27L16 28L17 28L17 27ZM27 28L27 29L28 29L28 28ZM0 0L0 7L7 7L7 0ZM1 1L1 6L6 6L6 1ZM2 2L2 5L5 5L5 2ZM22 0L22 7L29 7L29 0ZM23 1L23 6L28 6L28 1ZM24 2L24 5L27 5L27 2ZM0 22L0 29L7 29L7 22ZM1 23L1 28L6 28L6 23ZM2 24L2 27L5 27L5 24Z" fill="#000000"/></g></g></svg>
