<?xml version="1.0" encoding="UTF-8"?>
<svg xmlns="http://www.w3.org/2000/svg" version="1.1" width="200" height="200" viewBox="0 0 200 200"><rect x="0" y="0" width="200" height="200" fill="#ffffff"/><g transform="scale(4.878)"><g transform="translate(0,0)"><path fill-rule="evenodd" d="M8 0L8 2L9 2L9 3L8 3L8 7L9 7L9 8L10 8L10 9L8 9L8 10L6 10L6 9L7 9L7 8L6 8L6 9L4 9L4 8L3 8L3 9L0 9L0 10L1 10L1 11L2 11L2 10L3 10L3 11L4 11L4 10L5 10L5 11L7 11L7 12L4 12L4 13L3 13L3 12L1 12L1 13L0 13L0 15L1 15L1 17L2 17L2 16L4 16L4 17L3 17L3 18L4 18L4 17L5 17L5 18L6 18L6 19L5 19L5 20L4 20L4 19L0 19L0 23L1 23L1 21L3 21L3 22L4 22L4 21L5 21L5 22L6 22L6 23L5 23L5 24L4 24L4 25L5 25L5 26L6 26L6 27L7 27L7 28L6 28L6 29L7 29L7 28L8 28L8 30L10 30L10 29L13 29L13 30L11 30L11 31L8 31L8 34L9 34L9 35L12 35L12 34L11 34L11 33L12 33L12 32L11 32L11 31L13 31L13 33L14 33L14 34L13 34L13 37L12 37L12 36L11 36L11 37L10 37L10 36L9 36L9 37L8 37L8 38L9 38L9 39L10 39L10 38L11 38L11 40L9 40L9 41L12 41L12 40L14 40L14 39L15 39L15 40L16 40L16 41L20 41L20 40L18 40L18 39L17 39L17 38L18 38L18 37L19 37L19 35L18 35L18 37L16 37L16 36L14 36L14 35L17 35L17 34L16 34L16 33L17 33L17 30L16 30L16 28L17 28L17 24L16 24L16 25L15 25L15 23L16 23L16 22L15 22L15 19L16 19L16 20L18 20L18 21L17 21L17 23L18 23L18 27L19 27L19 28L18 28L18 29L19 29L19 28L20 28L20 29L22 29L22 28L23 28L23 27L22 27L22 28L20 28L20 27L21 27L21 26L19 26L19 24L22 24L22 25L23 25L23 23L24 23L24 24L25 24L25 23L26 23L26 24L28 24L28 23L27 23L27 21L26 21L26 19L27 19L27 20L28 20L28 19L30 19L30 18L31 18L31 15L32 15L32 16L33 16L33 15L32 15L32 14L33 14L33 12L32 12L32 14L31 14L31 15L29 15L29 18L28 18L28 19L27 19L27 16L28 16L28 15L27 15L27 14L30 14L30 13L31 13L31 11L33 11L33 10L35 10L35 9L37 9L37 10L38 10L38 8L35 8L35 9L33 9L33 8L32 8L32 7L33 7L33 6L32 6L32 5L33 5L33 0L31 0L31 1L32 1L32 3L31 3L31 4L32 4L32 5L31 5L31 6L30 6L30 5L29 5L29 4L30 4L30 1L29 1L29 0L27 0L27 1L26 1L26 0L23 0L23 1L22 1L22 0L21 0L21 1L20 1L20 0L19 0L19 1L20 1L20 3L18 3L18 4L17 4L17 5L15 5L15 3L16 3L16 2L15 2L15 0L13 0L13 1L12 1L12 0L11 0L11 2L10 2L10 0ZM17 0L17 2L18 2L18 0ZM23 1L23 2L24 2L24 1ZM28 1L28 2L26 2L26 3L27 3L27 4L29 4L29 1ZM11 2L11 3L9 3L9 4L11 4L11 3L13 3L13 2ZM14 2L14 3L15 3L15 2ZM21 2L21 3L22 3L22 4L21 4L21 5L24 5L24 6L23 6L23 7L24 7L24 8L20 8L20 4L18 4L18 5L17 5L17 7L16 7L16 6L15 6L15 5L14 5L14 4L13 4L13 5L12 5L12 6L11 6L11 5L9 5L9 7L10 7L10 6L11 6L11 9L10 9L10 12L9 12L9 13L8 13L8 12L7 12L7 13L5 13L5 14L3 14L3 15L4 15L4 16L5 16L5 17L6 17L6 18L7 18L7 17L6 17L6 16L7 16L7 15L11 15L11 14L9 14L9 13L11 13L11 12L12 12L12 11L13 11L13 12L14 12L14 15L13 15L13 14L12 14L12 15L13 15L13 16L12 16L12 17L13 17L13 18L12 18L12 19L10 19L10 20L8 20L8 19L9 19L9 18L10 18L10 17L11 17L11 16L10 16L10 17L9 17L9 16L8 16L8 17L9 17L9 18L8 18L8 19L6 19L6 20L7 20L7 21L6 21L6 22L9 22L9 23L6 23L6 24L7 24L7 25L6 25L6 26L8 26L8 28L9 28L9 29L10 29L10 28L11 28L11 27L13 27L13 29L14 29L14 31L15 31L15 32L14 32L14 33L15 33L15 32L16 32L16 30L15 30L15 28L16 28L16 26L15 26L15 25L11 25L11 24L13 24L13 23L15 23L15 22L12 22L12 21L10 21L10 20L13 20L13 18L14 18L14 19L15 19L15 17L14 17L14 15L15 15L15 16L16 16L16 17L17 17L17 16L16 16L16 15L18 15L18 16L19 16L19 18L20 18L20 20L19 20L19 19L18 19L18 20L19 20L19 21L18 21L18 23L19 23L19 22L20 22L20 23L22 23L22 21L25 21L25 22L26 22L26 21L25 21L25 20L22 20L22 21L21 21L21 18L22 18L22 19L26 19L26 18L24 18L24 16L23 16L23 18L22 18L22 17L21 17L21 18L20 18L20 16L21 16L21 15L22 15L22 14L21 14L21 13L20 13L20 14L19 14L19 12L20 12L20 9L21 9L21 11L22 11L22 13L24 13L24 12L25 12L25 13L26 13L26 14L23 14L23 15L26 15L26 16L27 16L27 15L26 15L26 14L27 14L27 13L29 13L29 12L30 12L30 11L31 11L31 10L33 10L33 9L32 9L32 8L31 8L31 7L32 7L32 6L31 6L31 7L30 7L30 6L29 6L29 7L28 7L28 6L27 6L27 7L26 7L26 4L25 4L25 5L24 5L24 3L22 3L22 2ZM18 5L18 7L17 7L17 8L14 8L14 9L13 9L13 8L12 8L12 9L11 9L11 11L12 11L12 9L13 9L13 11L15 11L15 14L16 14L16 13L17 13L17 14L18 14L18 13L17 13L17 12L16 12L16 11L19 11L19 9L20 9L20 8L19 8L19 9L17 9L17 8L18 8L18 7L19 7L19 5ZM12 6L12 7L13 7L13 6ZM14 6L14 7L15 7L15 6ZM21 6L21 7L22 7L22 6ZM24 6L24 7L25 7L25 8L24 8L24 9L25 9L25 10L24 10L24 11L25 11L25 12L26 12L26 13L27 13L27 11L25 11L25 10L27 10L27 9L26 9L26 7L25 7L25 6ZM27 7L27 8L28 8L28 11L30 11L30 9L29 9L29 8L30 8L30 7L29 7L29 8L28 8L28 7ZM39 8L39 9L40 9L40 10L41 10L41 8ZM3 9L3 10L4 10L4 9ZM38 11L38 13L39 13L39 11ZM34 12L34 15L35 15L35 17L32 17L32 18L33 18L33 19L32 19L32 21L33 21L33 19L34 19L34 22L31 22L31 23L32 23L32 25L31 25L31 24L29 24L29 25L28 25L28 27L27 27L27 25L24 25L24 28L25 28L25 27L26 27L26 28L29 28L29 29L27 29L27 30L26 30L26 29L25 29L25 30L24 30L24 29L23 29L23 30L22 30L22 32L21 32L21 31L19 31L19 30L18 30L18 32L21 32L21 33L22 33L22 34L23 34L23 33L24 33L24 35L25 35L25 37L24 37L24 39L23 39L23 40L22 40L22 38L23 38L23 37L22 37L22 38L20 38L20 39L21 39L21 41L23 41L23 40L24 40L24 39L25 39L25 41L26 41L26 40L28 40L28 39L27 39L27 38L26 38L26 37L28 37L28 38L29 38L29 41L30 41L30 40L32 40L32 41L33 41L33 39L34 39L34 38L36 38L36 40L37 40L37 41L40 41L40 39L41 39L41 38L40 38L40 37L41 37L41 35L39 35L39 34L41 34L41 29L39 29L39 28L37 28L37 27L38 27L38 26L39 26L39 25L40 25L40 24L41 24L41 23L40 23L40 22L39 22L39 21L40 21L40 20L41 20L41 16L39 16L39 17L38 17L38 16L37 16L37 18L38 18L38 19L39 19L39 17L40 17L40 20L37 20L37 19L36 19L36 20L35 20L35 19L34 19L34 18L35 18L35 17L36 17L36 15L35 15L35 14L36 14L36 13L35 13L35 12ZM6 14L6 15L5 15L5 16L6 16L6 15L7 15L7 14ZM20 14L20 15L19 15L19 16L20 16L20 15L21 15L21 14ZM37 14L37 15L39 15L39 14ZM40 14L40 15L41 15L41 14ZM16 18L16 19L17 19L17 18ZM3 20L3 21L4 21L4 20ZM29 20L29 22L30 22L30 20ZM9 21L9 22L10 22L10 24L9 24L9 25L8 25L8 26L9 26L9 28L10 28L10 26L11 26L11 25L10 25L10 24L11 24L11 23L12 23L12 22L10 22L10 21ZM35 21L35 22L34 22L34 23L37 23L37 22L36 22L36 21ZM2 23L2 25L1 25L1 24L0 24L0 29L1 29L1 30L0 30L0 31L1 31L1 30L4 30L4 31L2 31L2 33L3 33L3 32L4 32L4 33L7 33L7 32L6 32L6 31L7 31L7 30L5 30L5 27L4 27L4 29L3 29L3 27L2 27L2 28L1 28L1 26L2 26L2 25L3 25L3 23ZM39 23L39 24L38 24L38 25L39 25L39 24L40 24L40 23ZM36 24L36 26L35 26L35 25L34 25L34 27L36 27L36 26L37 26L37 24ZM9 25L9 26L10 26L10 25ZM29 25L29 26L30 26L30 27L31 27L31 28L30 28L30 30L29 30L29 31L27 31L27 32L26 32L26 31L24 31L24 30L23 30L23 31L24 31L24 33L25 33L25 32L26 32L26 34L25 34L25 35L26 35L26 36L27 36L27 35L28 35L28 37L30 37L30 34L29 34L29 33L30 33L30 32L31 32L31 35L32 35L32 32L34 32L34 31L35 31L35 29L36 29L36 30L37 30L37 31L36 31L36 32L37 32L37 33L38 33L38 32L39 32L39 33L40 33L40 30L39 30L39 31L38 31L38 29L37 29L37 28L35 28L35 29L34 29L34 31L33 31L33 30L31 30L31 28L32 28L32 29L33 29L33 27L32 27L32 26L30 26L30 25ZM14 26L14 27L15 27L15 26ZM40 26L40 27L41 27L41 26ZM30 30L30 31L29 31L29 32L30 32L30 31L31 31L31 30ZM37 31L37 32L38 32L38 31ZM0 32L0 33L1 33L1 32ZM9 32L9 33L10 33L10 32ZM27 32L27 33L28 33L28 32ZM19 33L19 34L20 34L20 33ZM33 33L33 36L36 36L36 33ZM26 34L26 35L27 35L27 34ZM28 34L28 35L29 35L29 34ZM34 34L34 35L35 35L35 34ZM37 34L37 35L38 35L38 34ZM31 36L31 37L32 37L32 38L31 38L31 39L33 39L33 37L32 37L32 36ZM38 36L38 37L36 37L36 38L38 38L38 40L39 40L39 39L40 39L40 38L38 38L38 37L40 37L40 36ZM13 37L13 38L12 38L12 39L13 39L13 38L15 38L15 39L16 39L16 40L17 40L17 39L16 39L16 38L15 38L15 37ZM25 38L25 39L26 39L26 38ZM0 0L0 7L7 7L7 0ZM1 1L1 6L6 6L6 1ZM2 2L2 5L5 5L5 2ZM34 0L34 7L41 7L41 0ZM35 1L35 6L40 6L40 1ZM36 2L36 5L39 5L39 2ZM0 34L0 41L7 41L7 34ZM1 35L1 40L6 40L6 35ZM2 36L2 39L5 39L5 36Z" fill="#000000"/></g></g></svg>
