<?xml version="1.0" encoding="UTF-8"?>
<svg xmlns="http://www.w3.org/2000/svg" version="1.1" width="200" height="200" viewBox="0 0 200 200"><rect x="0" y="0" width="200" height="200" fill="#ffffff"/><g transform="scale(4.878)"><g transform="translate(0,0)"><path fill-rule="evenodd" d="M8 0L8 3L9 3L9 4L10 4L10 5L8 5L8 9L7 9L7 8L6 8L6 9L5 9L5 8L2 8L2 10L1 10L1 12L0 12L0 13L1 13L1 14L0 14L0 17L1 17L1 16L2 16L2 18L0 18L0 23L1 23L1 24L0 24L0 25L1 25L1 26L4 26L4 27L1 27L1 29L0 29L0 33L1 33L1 30L2 30L2 31L3 31L3 32L4 32L4 33L7 33L7 32L8 32L8 34L9 34L9 35L10 35L10 36L8 36L8 39L9 39L9 41L11 41L11 40L10 40L10 39L11 39L11 38L13 38L13 35L14 35L14 36L16 36L16 35L17 35L17 37L16 37L16 39L15 39L15 37L14 37L14 39L15 39L15 41L20 41L20 39L21 39L21 40L22 40L22 41L25 41L25 39L24 39L24 38L25 38L25 37L24 37L24 36L27 36L27 37L26 37L26 38L27 38L27 39L28 39L28 38L27 38L27 37L29 37L29 36L28 36L28 35L29 35L29 34L27 34L27 32L26 32L26 34L27 34L27 35L24 35L24 36L23 36L23 37L22 37L22 35L23 35L23 34L24 34L24 33L25 33L25 31L24 31L24 32L23 32L23 30L24 30L24 28L26 28L26 29L27 29L27 30L26 30L26 31L27 31L27 30L29 30L29 29L30 29L30 30L31 30L31 29L30 29L30 28L29 28L29 29L28 29L28 28L26 28L26 27L28 27L28 26L30 26L30 25L31 25L31 26L32 26L32 25L34 25L34 27L31 27L31 28L32 28L32 29L33 29L33 30L32 30L32 31L33 31L33 30L34 30L34 31L37 31L37 29L36 29L36 28L38 28L38 26L39 26L39 27L40 27L40 26L41 26L41 23L40 23L40 26L39 26L39 24L37 24L37 25L36 25L36 23L31 23L31 22L32 22L32 21L34 21L34 22L36 22L36 21L37 21L37 20L38 20L38 22L37 22L37 23L38 23L38 22L39 22L39 20L38 20L38 18L37 18L37 17L36 17L36 16L38 16L38 17L39 17L39 16L38 16L38 15L39 15L39 14L41 14L41 13L39 13L39 14L38 14L38 13L36 13L36 14L38 14L38 15L35 15L35 17L34 17L34 16L33 16L33 15L34 15L34 14L33 14L33 13L34 13L34 12L33 12L33 13L32 13L32 14L31 14L31 12L28 12L28 11L31 11L31 10L33 10L33 11L34 11L34 10L35 10L35 11L36 11L36 12L38 12L38 11L39 11L39 12L40 12L40 10L41 10L41 8L38 8L38 9L40 9L40 10L37 10L37 9L36 9L36 8L33 8L33 9L32 9L32 8L31 8L31 5L32 5L32 7L33 7L33 4L32 4L32 3L30 3L30 4L31 4L31 5L29 5L29 6L28 6L28 5L27 5L27 6L26 6L26 5L25 5L25 3L26 3L26 4L27 4L27 3L28 3L28 4L29 4L29 1L27 1L27 0L25 0L25 2L24 2L24 3L23 3L23 4L22 4L22 3L20 3L20 2L23 2L23 0L18 0L18 2L17 2L17 3L16 3L16 1L17 1L17 0L16 0L16 1L15 1L15 0L13 0L13 2L12 2L12 0L11 0L11 1L10 1L10 0ZM31 0L31 1L30 1L30 2L31 2L31 1L32 1L32 0ZM14 1L14 2L13 2L13 3L14 3L14 6L13 6L13 7L14 7L14 6L15 6L15 7L16 7L16 6L15 6L15 4L16 4L16 5L17 5L17 4L20 4L20 3L19 3L19 2L20 2L20 1L19 1L19 2L18 2L18 3L17 3L17 4L16 4L16 3L15 3L15 1ZM26 2L26 3L27 3L27 2ZM12 4L12 5L13 5L13 4ZM21 4L21 7L20 7L20 6L19 6L19 7L20 7L20 8L18 8L18 6L17 6L17 8L16 8L16 9L14 9L14 8L12 8L12 6L11 6L11 5L10 5L10 6L9 6L9 9L8 9L8 10L7 10L7 9L6 9L6 10L4 10L4 9L3 9L3 13L5 13L5 14L4 14L4 15L3 15L3 14L2 14L2 15L3 15L3 16L4 16L4 17L3 17L3 19L2 19L2 20L1 20L1 21L2 21L2 22L3 22L3 23L4 23L4 22L5 22L5 25L4 25L4 24L3 24L3 25L4 25L4 26L5 26L5 27L6 27L6 28L4 28L4 29L6 29L6 30L4 30L4 31L6 31L6 32L7 32L7 31L8 31L8 32L9 32L9 34L11 34L11 36L10 36L10 37L12 37L12 34L14 34L14 35L15 35L15 32L16 32L16 31L17 31L17 29L16 29L16 30L15 30L15 27L16 27L16 28L17 28L17 27L18 27L18 25L17 25L17 27L16 27L16 26L15 26L15 27L14 27L14 28L13 28L13 27L12 27L12 28L11 28L11 27L9 27L9 26L11 26L11 23L14 23L14 24L12 24L12 26L13 26L13 25L14 25L14 24L15 24L15 25L16 25L16 23L17 23L17 24L18 24L18 22L20 22L20 23L19 23L19 25L20 25L20 26L19 26L19 29L20 29L20 26L21 26L21 27L22 27L22 26L23 26L23 27L25 27L25 26L28 26L28 25L29 25L29 24L31 24L31 25L32 25L32 24L31 24L31 23L28 23L28 24L26 24L26 25L25 25L25 21L26 21L26 23L27 23L27 22L30 22L30 21L32 21L32 20L29 20L29 21L26 21L26 20L27 20L27 19L25 19L25 18L24 18L24 17L27 17L27 18L29 18L29 16L30 16L30 17L31 17L31 16L30 16L30 15L28 15L28 17L27 17L27 16L26 16L26 14L25 14L25 15L24 15L24 13L26 13L26 11L27 11L27 10L30 10L30 9L31 9L31 8L30 8L30 6L29 6L29 7L28 7L28 6L27 6L27 7L28 7L28 8L30 8L30 9L27 9L27 8L25 8L25 7L26 7L26 6L25 6L25 7L24 7L24 5L23 5L23 7L22 7L22 4ZM10 6L10 9L9 9L9 10L10 10L10 11L9 11L9 12L10 12L10 11L11 11L11 10L12 10L12 9L11 9L11 6ZM21 7L21 9L22 9L22 10L23 10L23 11L24 11L24 12L21 12L21 13L19 13L19 11L21 11L21 10L19 10L19 11L18 11L18 12L16 12L16 11L17 11L17 10L14 10L14 11L15 11L15 12L16 12L16 13L18 13L18 14L16 14L16 15L15 15L15 13L14 13L14 12L12 12L12 13L11 13L11 14L10 14L10 13L7 13L7 12L8 12L8 11L7 11L7 10L6 10L6 11L7 11L7 12L5 12L5 13L7 13L7 14L6 14L6 15L4 15L4 16L5 16L5 17L7 17L7 16L6 16L6 15L7 15L7 14L8 14L8 15L10 15L10 18L9 18L9 17L8 17L8 19L7 19L7 18L6 18L6 19L5 19L5 18L4 18L4 19L3 19L3 20L2 20L2 21L3 21L3 22L4 22L4 19L5 19L5 20L6 20L6 21L5 21L5 22L6 22L6 23L7 23L7 24L6 24L6 25L7 25L7 24L8 24L8 26L9 26L9 25L10 25L10 22L9 22L9 20L8 20L8 19L10 19L10 18L11 18L11 19L12 19L12 20L10 20L10 21L11 21L11 22L12 22L12 20L13 20L13 22L14 22L14 23L15 23L15 20L16 20L16 21L17 21L17 22L18 22L18 21L17 21L17 20L16 20L16 18L18 18L18 20L19 20L19 21L20 21L20 22L22 22L22 23L23 23L23 24L24 24L24 22L22 22L22 21L23 21L23 20L24 20L24 21L25 21L25 19L23 19L23 17L24 17L24 15L23 15L23 14L22 14L22 15L20 15L20 14L21 14L21 13L24 13L24 12L25 12L25 10L26 10L26 9L25 9L25 8L23 8L23 9L22 9L22 7ZM10 9L10 10L11 10L11 9ZM24 9L24 10L25 10L25 9ZM1 12L1 13L2 13L2 12ZM12 13L12 14L13 14L13 15L14 15L14 17L13 17L13 18L14 18L14 17L15 17L15 15L14 15L14 14L13 14L13 13ZM28 13L28 14L30 14L30 13ZM18 14L18 15L19 15L19 17L18 17L18 18L19 18L19 20L20 20L20 18L19 18L19 17L21 17L21 18L22 18L22 17L23 17L23 15L22 15L22 16L20 16L20 15L19 15L19 14ZM32 14L32 15L33 15L33 14ZM16 15L16 17L17 17L17 15ZM11 16L11 17L12 17L12 16ZM40 16L40 18L39 18L39 19L40 19L40 18L41 18L41 16ZM32 17L32 18L30 18L30 19L33 19L33 20L34 20L34 21L36 21L36 20L37 20L37 18L36 18L36 17L35 17L35 19L34 19L34 18L33 18L33 17ZM6 19L6 20L7 20L7 19ZM13 19L13 20L14 20L14 19ZM21 19L21 21L22 21L22 20L23 20L23 19ZM35 19L35 20L36 20L36 19ZM40 20L40 21L41 21L41 20ZM6 21L6 22L7 22L7 23L8 23L8 24L9 24L9 22L8 22L8 21ZM20 23L20 25L22 25L22 24L21 24L21 23ZM1 24L1 25L2 25L2 24ZM34 24L34 25L35 25L35 28L36 28L36 27L37 27L37 26L36 26L36 25L35 25L35 24ZM24 25L24 26L25 26L25 25ZM6 26L6 27L7 27L7 28L6 28L6 29L7 29L7 30L6 30L6 31L7 31L7 30L10 30L10 33L13 33L13 32L15 32L15 30L14 30L14 29L12 29L12 32L11 32L11 29L9 29L9 28L8 28L8 27L7 27L7 26ZM2 28L2 29L3 29L3 28ZM22 28L22 29L23 29L23 28ZM33 28L33 29L34 29L34 30L36 30L36 29L34 29L34 28ZM39 28L39 30L38 30L38 31L39 31L39 32L32 32L32 34L30 34L30 35L31 35L31 36L30 36L30 37L31 37L31 39L30 39L30 40L29 40L29 41L30 41L30 40L31 40L31 41L32 41L32 40L33 40L33 41L34 41L34 40L33 40L33 39L35 39L35 40L36 40L36 39L38 39L38 38L37 38L37 36L38 36L38 37L39 37L39 40L40 40L40 38L41 38L41 37L39 37L39 36L41 36L41 35L40 35L40 34L41 34L41 32L40 32L40 30L41 30L41 29L40 29L40 28ZM13 30L13 31L14 31L14 30ZM18 30L18 31L19 31L19 35L18 35L18 34L17 34L17 35L18 35L18 36L19 36L19 35L20 35L20 34L22 34L22 33L23 33L23 32L22 32L22 31L19 31L19 30ZM28 31L28 33L31 33L31 32L29 32L29 31ZM33 33L33 36L36 36L36 33ZM38 33L38 34L37 34L37 35L38 35L38 36L39 36L39 33ZM34 34L34 35L35 35L35 34ZM20 36L20 37L19 37L19 38L20 38L20 37L21 37L21 38L22 38L22 39L23 39L23 40L24 40L24 39L23 39L23 38L22 38L22 37L21 37L21 36ZM31 36L31 37L32 37L32 36ZM17 37L17 38L18 38L18 37ZM33 37L33 38L32 38L32 39L31 39L31 40L32 40L32 39L33 39L33 38L36 38L36 37ZM12 39L12 41L14 41L14 40L13 40L13 39ZM16 39L16 40L17 40L17 39ZM26 40L26 41L28 41L28 40ZM0 0L0 7L7 7L7 0ZM1 1L1 6L6 6L6 1ZM2 2L2 5L5 5L5 2ZM34 0L34 7L41 7L41 0ZM35 1L35 6L40 6L40 1ZM36 2L36 5L39 5L39 2ZM0 34L0 41L7 41L7 34ZM1 35L1 40L6 40L6 35ZM2 36L2 39L5 39L5 36Z" fill="#000000"/></g></g></svg>
