<?xml version="1.0" encoding="UTF-8"?>
<svg xmlns="http://www.w3.org/2000/svg" version="1.1" width="200" height="200" viewBox="0 0 200 200"><rect x="0" y="0" width="200" height="200" fill="#ffffff"/><g transform="scale(4.878)"><g transform="translate(0,0)"><path fill-rule="evenodd" d="M8 0L8 3L9 3L9 4L10 4L10 5L8 5L8 12L9 12L9 14L10 14L10 15L11 15L11 16L9 16L9 17L11 17L11 19L10 19L10 21L9 21L9 23L8 23L8 20L9 20L9 19L7 19L7 18L8 18L8 13L7 13L7 12L6 12L6 11L7 11L7 10L6 10L6 11L5 11L5 10L4 10L4 9L5 9L5 8L2 8L2 10L1 10L1 9L0 9L0 12L1 12L1 13L2 13L2 14L3 14L3 15L2 15L2 16L1 16L1 17L0 17L0 18L2 18L2 19L1 19L1 21L0 21L0 22L1 22L1 21L2 21L2 20L3 20L3 21L5 21L5 20L3 20L3 19L4 19L4 18L5 18L5 17L7 17L7 18L6 18L6 19L7 19L7 20L6 20L6 21L7 21L7 22L6 22L6 23L5 23L5 22L3 22L3 23L2 23L2 24L1 24L1 23L0 23L0 24L1 24L1 25L4 25L4 26L5 26L5 27L7 27L7 26L5 26L5 25L8 25L8 24L9 24L9 23L10 23L10 21L11 21L11 22L12 22L12 23L11 23L11 25L9 25L9 26L11 26L11 28L12 28L12 29L10 29L10 30L9 30L9 31L10 31L10 32L8 32L8 30L6 30L6 29L7 29L7 28L5 28L5 29L4 29L4 27L3 27L3 29L1 29L1 28L0 28L0 33L1 33L1 30L2 30L2 33L5 33L5 32L6 32L6 33L8 33L8 34L9 34L9 36L8 36L8 39L9 39L9 40L10 40L10 41L11 41L11 39L9 39L9 38L12 38L12 40L14 40L14 41L15 41L15 38L14 38L14 37L18 37L18 35L19 35L19 34L14 34L14 33L16 33L16 32L15 32L15 30L17 30L17 29L16 29L16 28L18 28L18 29L19 29L19 31L20 31L20 32L18 32L18 31L17 31L17 32L18 32L18 33L22 33L22 29L24 29L24 34L20 34L20 35L22 35L22 36L20 36L20 37L19 37L19 38L20 38L20 39L21 39L21 40L20 40L20 41L22 41L22 40L23 40L23 41L25 41L25 40L26 40L26 41L31 41L31 40L33 40L33 41L34 41L34 40L33 40L33 38L34 38L34 39L35 39L35 40L36 40L36 39L37 39L37 37L38 37L38 38L39 38L39 40L40 40L40 38L41 38L41 37L39 37L39 36L41 36L41 35L40 35L40 34L41 34L41 33L39 33L39 32L37 32L37 30L38 30L38 29L36 29L36 28L38 28L38 26L39 26L39 27L40 27L40 28L39 28L39 31L40 31L40 30L41 30L41 29L40 29L40 28L41 28L41 27L40 27L40 26L41 26L41 23L40 23L40 26L39 26L39 24L37 24L37 25L36 25L36 23L35 23L35 25L34 25L34 22L36 22L36 21L38 21L38 22L37 22L37 23L38 23L38 22L39 22L39 20L36 20L36 19L35 19L35 17L36 17L36 18L37 18L37 19L38 19L38 17L39 17L39 18L41 18L41 16L40 16L40 17L39 17L39 16L38 16L38 13L36 13L36 14L37 14L37 15L35 15L35 17L34 17L34 16L33 16L33 15L34 15L34 14L33 14L33 13L34 13L34 12L33 12L33 11L34 11L34 10L35 10L35 11L37 11L37 12L38 12L38 11L40 11L40 10L41 10L41 8L38 8L38 9L40 9L40 10L37 10L37 9L36 9L36 8L33 8L33 9L30 9L30 8L32 8L32 7L33 7L33 5L32 5L32 4L33 4L33 3L32 3L32 2L31 2L31 1L32 1L32 0L31 0L31 1L30 1L30 2L31 2L31 3L30 3L30 4L31 4L31 5L32 5L32 7L31 7L31 6L30 6L30 8L29 8L29 6L28 6L28 5L27 5L27 6L26 6L26 4L27 4L27 3L28 3L28 4L29 4L29 1L27 1L27 0L25 0L25 2L24 2L24 1L23 1L23 0L22 0L22 2L21 2L21 1L20 1L20 5L18 5L18 7L17 7L17 6L16 6L16 5L17 5L17 4L18 4L18 2L19 2L19 0L18 0L18 2L17 2L17 3L16 3L16 2L15 2L15 1L17 1L17 0L14 0L14 2L15 2L15 3L14 3L14 4L13 4L13 0L12 0L12 1L11 1L11 0L10 0L10 1L9 1L9 0ZM10 1L10 3L11 3L11 1ZM26 2L26 3L25 3L25 4L21 4L21 5L22 5L22 6L21 6L21 7L20 7L20 6L19 6L19 8L18 8L18 9L19 9L19 8L21 8L21 9L20 9L20 10L19 10L19 11L18 11L18 12L19 12L19 13L18 13L18 15L17 15L17 17L16 17L16 15L15 15L15 14L16 14L16 13L17 13L17 12L16 12L16 11L17 11L17 9L16 9L16 8L17 8L17 7L16 7L16 6L15 6L15 5L14 5L14 6L13 6L13 7L12 7L12 6L11 6L11 8L14 8L14 6L15 6L15 9L13 9L13 10L12 10L12 9L10 9L10 11L9 11L9 12L10 12L10 11L11 11L11 13L12 13L12 12L14 12L14 11L15 11L15 14L13 14L13 15L12 15L12 14L11 14L11 15L12 15L12 16L11 16L11 17L12 17L12 19L13 19L13 20L11 20L11 21L13 21L13 23L15 23L15 25L16 25L16 26L14 26L14 27L18 27L18 28L19 28L19 29L21 29L21 28L20 28L20 27L21 27L21 26L22 26L22 27L23 27L23 28L24 28L24 29L25 29L25 26L29 26L29 27L28 27L28 29L29 29L29 28L30 28L30 29L31 29L31 33L29 33L29 32L30 32L30 30L27 30L27 31L25 31L25 32L27 32L27 34L28 34L28 33L29 33L29 35L28 35L28 36L27 36L27 37L26 37L26 38L24 38L24 37L23 37L23 38L22 38L22 37L21 37L21 39L23 39L23 38L24 38L24 40L25 40L25 39L26 39L26 40L31 40L31 39L32 39L32 38L33 38L33 37L32 37L32 36L31 36L31 35L30 35L30 34L32 34L32 32L36 32L36 31L34 31L34 30L36 30L36 29L34 29L34 28L33 28L33 29L32 29L32 28L31 28L31 27L34 27L34 25L33 25L33 23L32 23L32 22L30 22L30 21L33 21L33 22L34 22L34 21L36 21L36 20L35 20L35 19L34 19L34 18L33 18L33 19L32 19L32 18L31 18L31 17L30 17L30 19L31 19L31 20L28 20L28 21L27 21L27 20L26 20L26 19L27 19L27 18L28 18L28 19L29 19L29 16L31 16L31 15L28 15L28 17L26 17L26 15L25 15L25 17L23 17L23 18L22 18L22 20L20 20L20 19L21 19L21 17L22 17L22 16L24 16L24 13L27 13L27 12L28 12L28 11L29 11L29 12L31 12L31 14L32 14L32 15L33 15L33 14L32 14L32 13L33 13L33 12L31 12L31 11L33 11L33 10L34 10L34 9L33 9L33 10L31 10L31 11L29 11L29 10L30 10L30 9L29 9L29 8L28 8L28 6L27 6L27 7L26 7L26 6L25 6L25 4L26 4L26 3L27 3L27 2ZM15 3L15 4L16 4L16 3ZM31 3L31 4L32 4L32 3ZM23 5L23 6L22 6L22 7L21 7L21 8L22 8L22 9L21 9L21 11L19 11L19 12L20 12L20 13L19 13L19 14L20 14L20 15L18 15L18 16L21 16L21 13L22 13L22 14L23 14L23 13L24 13L24 12L25 12L25 9L26 9L26 8L25 8L25 9L24 9L24 8L23 8L23 6L24 6L24 7L25 7L25 6L24 6L24 5ZM9 6L9 8L10 8L10 6ZM6 8L6 9L7 9L7 8ZM27 8L27 9L28 9L28 10L26 10L26 11L28 11L28 10L29 10L29 9L28 9L28 8ZM23 9L23 10L22 10L22 11L21 11L21 12L24 12L24 11L23 11L23 10L24 10L24 9ZM35 9L35 10L36 10L36 9ZM3 10L3 11L4 11L4 12L3 12L3 14L4 14L4 16L3 16L3 18L4 18L4 17L5 17L5 13L6 13L6 14L7 14L7 13L6 13L6 12L5 12L5 11L4 11L4 10ZM11 10L11 11L12 11L12 10ZM4 12L4 13L5 13L5 12ZM39 12L39 13L40 13L40 14L39 14L39 15L40 15L40 14L41 14L41 12ZM28 13L28 14L30 14L30 13ZM6 15L6 16L7 16L7 15ZM14 15L14 16L15 16L15 15ZM12 16L12 17L13 17L13 18L14 18L14 17L13 17L13 16ZM32 16L32 17L33 17L33 16ZM36 16L36 17L38 17L38 16ZM17 17L17 18L15 18L15 21L16 21L16 22L15 22L15 23L16 23L16 24L17 24L17 26L19 26L19 27L20 27L20 26L21 26L21 25L23 25L23 26L24 26L24 23L23 23L23 22L22 22L22 23L21 23L21 24L20 24L20 26L19 26L19 23L20 23L20 22L21 22L21 21L20 21L20 22L18 22L18 20L19 20L19 18L20 18L20 17L19 17L19 18L18 18L18 17ZM25 17L25 18L24 18L24 19L23 19L23 20L22 20L22 21L23 21L23 20L24 20L24 22L25 22L25 24L27 24L27 25L29 25L29 26L30 26L30 25L31 25L31 26L33 26L33 25L32 25L32 24L31 24L31 23L30 23L30 22L29 22L29 21L28 21L28 22L27 22L27 21L26 21L26 20L24 20L24 19L25 19L25 18L26 18L26 17ZM17 18L17 19L16 19L16 20L18 20L18 18ZM33 20L33 21L34 21L34 20ZM40 20L40 21L41 21L41 20ZM25 21L25 22L26 22L26 23L27 23L27 24L28 24L28 23L29 23L29 24L30 24L30 23L29 23L29 22L28 22L28 23L27 23L27 22L26 22L26 21ZM17 22L17 24L18 24L18 22ZM6 23L6 24L8 24L8 23ZM22 23L22 24L23 24L23 23ZM12 24L12 25L11 25L11 26L12 26L12 28L13 28L13 29L12 29L12 30L10 30L10 31L11 31L11 32L12 32L12 33L9 33L9 34L10 34L10 36L9 36L9 37L10 37L10 36L11 36L11 37L12 37L12 38L13 38L13 36L14 36L14 34L13 34L13 36L12 36L12 35L11 35L11 34L12 34L12 33L14 33L14 30L15 30L15 28L13 28L13 26L12 26L12 25L13 25L13 24ZM35 25L35 28L36 28L36 25ZM0 26L0 27L1 27L1 26ZM9 27L9 28L8 28L8 29L9 29L9 28L10 28L10 27ZM3 29L3 32L4 32L4 29ZM13 29L13 30L14 30L14 29ZM33 29L33 30L32 30L32 31L33 31L33 30L34 30L34 29ZM6 31L6 32L7 32L7 31ZM12 31L12 32L13 32L13 31ZM28 31L28 32L29 32L29 31ZM25 33L25 36L26 36L26 33ZM33 33L33 36L36 36L36 33ZM38 33L38 35L37 35L37 36L39 36L39 33ZM34 34L34 35L35 35L35 34ZM15 35L15 36L17 36L17 35ZM28 36L28 37L29 37L29 36ZM30 36L30 37L31 37L31 36ZM34 37L34 38L36 38L36 37ZM16 38L16 40L17 40L17 38ZM26 38L26 39L28 39L28 38ZM30 38L30 39L31 39L31 38ZM18 40L18 41L19 41L19 40ZM0 0L0 7L7 7L7 0ZM1 1L1 6L6 6L6 1ZM2 2L2 5L5 5L5 2ZM34 0L34 7L41 7L41 0ZM35 1L35 6L40 6L40 1ZM36 2L36 5L39 5L39 2ZM0 34L0 41L7 41L7 34ZM1 35L1 40L6 40L6 35ZM2 36L2 39L5 39L5 36Z" fill="#000000"/></g></g></svg>
