<?xml version="1.0" encoding="UTF-8"?>
<svg xmlns="http://www.w3.org/2000/svg" version="1.1" width="200" height="200" viewBox="0 0 200 200"><rect x="0" y="0" width="200" height="200" fill="#ffffff"/><g transform="scale(6.897)"><g transform="translate(0,0)"><path fill-rule="evenodd" d="M9 0L9 1L10 1L10 0ZM12 0L12 1L11 1L11 2L10 2L10 3L11 3L11 2L12 2L12 3L13 3L13 4L12 4L12 9L14 9L14 13L13 13L13 12L12 12L12 10L11 10L11 8L10 8L10 7L11 7L11 6L10 6L10 7L9 7L9 6L8 6L8 7L9 7L9 8L10 8L10 10L9 10L9 12L11 12L11 13L8 13L8 12L6 12L6 13L8 13L8 15L7 15L7 14L6 14L6 15L5 15L5 14L4 14L4 13L5 13L5 11L8 11L8 10L5 10L5 8L3 8L3 9L2 9L2 10L1 10L1 9L0 9L0 12L1 12L1 14L0 14L0 15L1 15L1 14L3 14L3 15L2 15L2 16L6 16L6 17L5 17L5 18L4 18L4 19L8 19L8 20L10 20L10 19L11 19L11 20L12 20L12 19L13 19L13 20L15 20L15 22L16 22L16 23L18 23L18 22L19 22L19 21L20 21L20 24L19 24L19 25L24 25L24 26L25 26L25 22L27 22L27 24L26 24L26 26L27 26L27 27L29 27L29 26L27 26L27 25L29 25L29 24L28 24L28 23L29 23L29 21L28 21L28 22L27 22L27 21L26 21L26 20L25 20L25 19L26 19L26 18L28 18L28 19L29 19L29 17L28 17L28 16L29 16L29 14L27 14L27 13L29 13L29 11L28 11L28 10L27 10L27 11L26 11L26 9L27 9L27 8L25 8L25 12L24 12L24 16L23 16L23 12L22 12L22 11L21 11L21 10L19 10L19 9L16 9L16 10L19 10L19 11L16 11L16 12L15 12L15 8L13 8L13 6L14 6L14 7L15 7L15 6L16 6L16 7L17 7L17 8L19 8L19 6L20 6L20 8L21 8L21 4L19 4L19 3L20 3L20 1L21 1L21 0L19 0L19 1L18 1L18 0L14 0L14 1L13 1L13 0ZM12 1L12 2L13 2L13 1ZM15 1L15 2L14 2L14 4L17 4L17 5L16 5L16 6L17 6L17 7L18 7L18 6L19 6L19 4L18 4L18 3L19 3L19 2L18 2L18 1L17 1L17 2L16 2L16 1ZM8 2L8 4L9 4L9 2ZM15 2L15 3L16 3L16 2ZM10 4L10 5L11 5L11 4ZM14 5L14 6L15 6L15 5ZM6 8L6 9L8 9L8 8ZM3 9L3 11L5 11L5 10L4 10L4 9ZM22 9L22 10L23 10L23 11L24 11L24 9ZM1 11L1 12L2 12L2 13L3 13L3 12L2 12L2 11ZM27 11L27 12L28 12L28 11ZM17 12L17 14L16 14L16 13L15 13L15 14L16 14L16 15L15 15L15 16L14 16L14 15L13 15L13 13L12 13L12 14L11 14L11 15L10 15L10 14L9 14L9 18L8 18L8 19L10 19L10 18L11 18L11 17L12 17L12 18L14 18L14 19L15 19L15 18L17 18L17 20L16 20L16 22L17 22L17 20L18 20L18 21L19 21L19 18L20 18L20 19L21 19L21 20L22 20L22 19L21 19L21 16L20 16L20 15L21 15L21 14L22 14L22 12L21 12L21 14L20 14L20 15L19 15L19 14L18 14L18 12ZM19 12L19 13L20 13L20 12ZM25 13L25 16L26 16L26 17L27 17L27 16L28 16L28 15L27 15L27 16L26 16L26 13ZM6 15L6 16L7 16L7 15ZM11 15L11 16L10 16L10 17L11 17L11 16L12 16L12 17L13 17L13 16L12 16L12 15ZM17 15L17 16L16 16L16 17L17 17L17 18L19 18L19 17L18 17L18 15ZM0 16L0 21L2 21L2 19L3 19L3 17L2 17L2 18L1 18L1 16ZM22 16L22 17L23 17L23 16ZM6 17L6 18L7 18L7 17ZM23 19L23 20L24 20L24 19ZM3 20L3 21L7 21L7 20ZM8 21L8 23L9 23L9 24L8 24L8 26L9 26L9 24L10 24L10 25L11 25L11 26L10 26L10 27L11 27L11 28L12 28L12 27L14 27L14 28L13 28L13 29L14 29L14 28L16 28L16 29L17 29L17 27L18 27L18 29L20 29L20 28L21 28L21 29L23 29L23 28L24 28L24 29L28 29L28 28L26 28L26 27L23 27L23 28L22 28L22 26L21 26L21 27L20 27L20 28L19 28L19 27L18 27L18 25L17 25L17 24L15 24L15 23L14 23L14 22L13 22L13 23L14 23L14 25L11 25L11 24L12 24L12 23L11 23L11 22L12 22L12 21ZM21 21L21 24L24 24L24 21ZM9 22L9 23L10 23L10 24L11 24L11 23L10 23L10 22ZM22 22L22 23L23 23L23 22ZM14 25L14 26L15 26L15 27L16 27L16 26L17 26L17 25L16 25L16 26L15 26L15 25ZM11 26L11 27L12 27L12 26ZM9 28L9 29L10 29L10 28ZM0 0L0 7L7 7L7 0ZM1 1L1 6L6 6L6 1ZM2 2L2 5L5 5L5 2ZM22 0L22 7L29 7L29 0ZM23 1L23 6L28 6L28 1ZM24 2L24 5L27 5L27 2ZM0 22L0 29L7 29L7 22ZM1 23L1 28L6 28L6 23ZM2 24L2 27L5 27L5 24Z" fill="#000000"/></g></g></svg>
