<?xml version="1.0" encoding="UTF-8"?>
<svg xmlns="http://www.w3.org/2000/svg" version="1.1" width="200" height="200" viewBox="0 0 200 200"><rect x="0" y="0" width="200" height="200" fill="#ffffff"/><g transform="scale(4.878)"><g transform="translate(0,0)"><path fill-rule="evenodd" d="M8 0L8 3L9 3L9 4L10 4L10 5L8 5L8 9L7 9L7 8L6 8L6 9L7 9L7 10L4 10L4 9L5 9L5 8L2 8L2 9L3 9L3 11L4 11L4 12L3 12L3 13L2 13L2 14L3 14L3 15L1 15L1 16L3 16L3 15L4 15L4 13L5 13L5 15L7 15L7 16L6 16L6 17L5 17L5 18L4 18L4 19L7 19L7 18L8 18L8 19L9 19L9 20L10 20L10 23L9 23L9 21L8 21L8 23L7 23L7 22L6 22L6 21L7 21L7 20L6 20L6 21L5 21L5 20L3 20L3 18L2 18L2 19L0 19L0 22L2 22L2 23L4 23L4 24L6 24L6 25L7 25L7 26L4 26L4 28L3 28L3 27L2 27L2 26L3 26L3 25L1 25L1 24L0 24L0 25L1 25L1 26L0 26L0 27L1 27L1 28L0 28L0 33L1 33L1 30L2 30L2 29L1 29L1 28L3 28L3 30L4 30L4 31L2 31L2 33L3 33L3 32L4 32L4 31L5 31L5 32L6 32L6 33L7 33L7 32L9 32L9 29L8 29L8 31L7 31L7 30L6 30L6 29L7 29L7 28L8 28L8 27L7 27L7 26L8 26L8 25L7 25L7 24L9 24L9 25L10 25L10 26L9 26L9 27L10 27L10 28L11 28L11 29L12 29L12 28L13 28L13 29L15 29L15 30L16 30L16 33L17 33L17 34L16 34L16 36L15 36L15 34L13 34L13 33L14 33L14 32L15 32L15 31L14 31L14 30L10 30L10 33L8 33L8 34L11 34L11 35L10 35L10 38L11 38L11 39L10 39L10 41L11 41L11 40L12 40L12 39L14 39L14 40L13 40L13 41L15 41L15 40L16 40L16 41L17 41L17 40L16 40L16 39L17 39L17 38L18 38L18 37L21 37L21 36L20 36L20 35L21 35L21 32L22 32L22 33L23 33L23 32L24 32L24 33L25 33L25 35L24 35L24 34L22 34L22 35L24 35L24 37L25 37L25 39L23 39L23 40L22 40L22 38L21 38L21 39L20 39L20 38L19 38L19 39L20 39L20 40L18 40L18 41L20 41L20 40L22 40L22 41L23 41L23 40L25 40L25 41L26 41L26 40L27 40L27 41L28 41L28 39L30 39L30 40L29 40L29 41L30 41L30 40L33 40L33 41L34 41L34 40L33 40L33 39L32 39L32 38L34 38L34 39L35 39L35 40L36 40L36 39L37 39L37 40L40 40L40 38L41 38L41 36L37 36L37 32L38 32L38 33L39 33L39 35L40 35L40 34L41 34L41 33L40 33L40 32L41 32L41 31L40 31L40 30L41 30L41 29L39 29L39 30L37 30L37 29L35 29L35 30L34 30L34 31L35 31L35 32L33 32L33 31L32 31L32 30L33 30L33 29L34 29L34 28L33 28L33 27L34 27L34 26L35 26L35 25L36 25L36 28L38 28L38 26L39 26L39 28L41 28L41 27L40 27L40 26L41 26L41 23L39 23L39 24L40 24L40 26L39 26L39 25L36 25L36 24L37 24L37 23L38 23L38 22L37 22L37 21L39 21L39 20L36 20L36 19L35 19L35 17L36 17L36 18L37 18L37 17L36 17L36 16L38 16L38 17L39 17L39 16L38 16L38 14L37 14L37 13L36 13L36 14L35 14L35 17L34 17L34 16L33 16L33 17L31 17L31 16L29 16L29 15L30 15L30 14L31 14L31 13L33 13L33 14L32 14L32 15L34 15L34 13L35 13L35 11L36 11L36 12L38 12L38 11L40 11L40 10L41 10L41 8L38 8L38 9L40 9L40 10L37 10L37 9L36 9L36 8L33 8L33 9L31 9L31 6L30 6L30 5L32 5L32 7L33 7L33 4L30 4L30 5L29 5L29 6L28 6L28 5L27 5L27 4L25 4L25 2L24 2L24 1L25 1L25 0L24 0L24 1L23 1L23 2L24 2L24 4L23 4L23 3L22 3L22 4L21 4L21 2L22 2L22 1L21 1L21 0L19 0L19 1L18 1L18 2L16 2L16 0L14 0L14 1L13 1L13 2L12 2L12 1L10 1L10 0ZM26 0L26 1L27 1L27 2L26 2L26 3L28 3L28 4L29 4L29 3L31 3L31 2L30 2L30 0L29 0L29 1L27 1L27 0ZM31 0L31 1L32 1L32 0ZM19 1L19 2L21 2L21 1ZM11 2L11 5L10 5L10 6L9 6L9 9L10 9L10 6L11 6L11 7L12 7L12 6L11 6L11 5L12 5L12 2ZM14 2L14 3L15 3L15 2ZM32 2L32 3L33 3L33 2ZM17 3L17 4L18 4L18 6L17 6L17 5L15 5L15 4L13 4L13 7L14 7L14 5L15 5L15 8L13 8L13 10L14 10L14 11L15 11L15 8L16 8L16 6L17 6L17 10L18 10L18 8L20 8L20 9L19 9L19 10L21 10L21 11L20 11L20 12L19 12L19 11L18 11L18 12L19 12L19 13L21 13L21 11L22 11L22 13L23 13L23 12L24 12L24 13L25 13L25 14L26 14L26 15L27 15L27 18L26 18L26 22L29 22L29 23L27 23L27 24L26 24L26 23L25 23L25 22L24 22L24 21L23 21L23 20L24 20L24 19L25 19L25 18L24 18L24 19L23 19L23 20L22 20L22 19L20 19L20 18L23 18L23 17L20 17L20 15L21 15L21 14L20 14L20 15L19 15L19 16L17 16L17 15L15 15L15 14L14 14L14 15L13 15L13 14L12 14L12 13L15 13L15 12L12 12L12 13L11 13L11 12L10 12L10 10L8 10L8 11L6 11L6 12L5 12L5 13L6 13L6 14L8 14L8 16L9 16L9 17L8 17L8 18L9 18L9 19L10 19L10 20L11 20L11 23L10 23L10 24L12 24L12 22L13 22L13 24L15 24L15 25L12 25L12 26L10 26L10 27L12 27L12 26L15 26L15 27L16 27L16 24L17 24L17 25L18 25L18 23L17 23L17 21L18 21L18 18L19 18L19 24L20 24L20 23L21 23L21 21L20 21L20 20L22 20L22 21L23 21L23 22L22 22L22 24L23 24L23 25L24 25L24 24L25 24L25 26L23 26L23 27L22 27L22 30L21 30L21 29L19 29L19 28L17 28L17 29L16 29L16 30L17 30L17 31L18 31L18 30L20 30L20 32L17 32L17 33L20 33L20 32L21 32L21 31L22 31L22 30L23 30L23 29L27 29L27 26L29 26L29 28L30 28L30 29L28 29L28 30L29 30L29 31L28 31L28 32L30 32L30 33L31 33L31 32L30 32L30 29L31 29L31 30L32 30L32 29L33 29L33 28L32 28L32 27L33 27L33 25L35 25L35 24L36 24L36 23L35 23L35 22L36 22L36 21L35 21L35 19L34 19L34 18L33 18L33 20L34 20L34 21L32 21L32 20L31 20L31 19L32 19L32 18L31 18L31 17L29 17L29 16L28 16L28 15L29 15L29 14L30 14L30 13L29 13L29 12L30 12L30 11L31 11L31 12L33 12L33 13L34 13L34 12L33 12L33 11L34 11L34 9L33 9L33 10L31 10L31 9L27 9L27 10L28 10L28 11L29 11L29 12L28 12L28 13L29 13L29 14L26 14L26 13L27 13L27 11L26 11L26 9L25 9L25 10L23 10L23 9L24 9L24 8L27 8L27 7L28 7L28 6L27 6L27 5L25 5L25 7L24 7L24 5L22 5L22 6L21 6L21 4L20 4L20 3ZM19 4L19 5L20 5L20 4ZM18 6L18 7L19 7L19 6ZM20 6L20 8L21 8L21 9L23 9L23 8L24 8L24 7L23 7L23 6L22 6L22 7L21 7L21 6ZM26 6L26 7L27 7L27 6ZM29 6L29 8L30 8L30 6ZM11 8L11 9L12 9L12 8ZM0 9L0 14L1 14L1 11L2 11L2 10L1 10L1 9ZM35 9L35 10L36 10L36 11L37 11L37 10L36 10L36 9ZM11 10L11 11L12 11L12 10ZM22 10L22 11L23 11L23 10ZM29 10L29 11L30 11L30 10ZM16 11L16 12L17 12L17 11ZM25 11L25 12L26 12L26 11ZM6 12L6 13L7 13L7 12ZM8 12L8 13L9 13L9 14L10 14L10 15L9 15L9 16L11 16L11 18L10 18L10 17L9 17L9 18L10 18L10 19L11 19L11 20L13 20L13 22L14 22L14 23L15 23L15 24L16 24L16 20L15 20L15 19L16 19L16 18L18 18L18 17L17 17L17 16L16 16L16 17L15 17L15 16L14 16L14 17L13 17L13 18L14 18L14 17L15 17L15 19L12 19L12 16L13 16L13 15L11 15L11 13L10 13L10 12ZM39 12L39 13L40 13L40 14L39 14L39 15L40 15L40 14L41 14L41 13L40 13L40 12ZM16 13L16 14L17 14L17 13ZM22 14L22 15L23 15L23 16L24 16L24 17L26 17L26 16L25 16L25 15L23 15L23 14ZM40 16L40 18L39 18L39 19L40 19L40 18L41 18L41 16ZM6 17L6 18L7 18L7 17ZM27 18L27 21L29 21L29 20L28 20L28 19L29 19L29 18ZM30 18L30 19L31 19L31 18ZM14 20L14 22L15 22L15 20ZM30 20L30 21L31 21L31 22L30 22L30 24L27 24L27 25L29 25L29 26L30 26L30 25L31 25L31 26L32 26L32 25L33 25L33 24L32 24L32 23L34 23L34 22L35 22L35 21L34 21L34 22L32 22L32 21L31 21L31 20ZM40 20L40 21L41 21L41 20ZM2 21L2 22L3 22L3 21ZM31 22L31 23L32 23L32 22ZM6 23L6 24L7 24L7 23ZM23 23L23 24L24 24L24 23ZM31 24L31 25L32 25L32 24ZM17 26L17 27L21 27L21 26ZM25 26L25 27L24 27L24 28L26 28L26 26ZM5 27L5 29L4 29L4 30L5 30L5 31L6 31L6 32L7 32L7 31L6 31L6 30L5 30L5 29L6 29L6 28L7 28L7 27ZM13 27L13 28L14 28L14 27ZM17 29L17 30L18 30L18 29ZM24 30L24 32L25 32L25 31L26 31L26 34L28 34L28 35L29 35L29 33L27 33L27 30ZM35 30L35 31L36 31L36 30ZM12 31L12 33L11 33L11 34L12 34L12 35L13 35L13 34L12 34L12 33L13 33L13 32L14 32L14 31ZM38 31L38 32L39 32L39 31ZM33 33L33 36L36 36L36 33ZM18 34L18 36L16 36L16 38L17 38L17 37L18 37L18 36L19 36L19 34ZM30 34L30 35L31 35L31 36L29 36L29 37L27 37L27 38L26 38L26 39L27 39L27 38L30 38L30 39L31 39L31 38L32 38L32 35L31 35L31 34ZM34 34L34 35L35 35L35 34ZM25 35L25 36L26 36L26 35ZM8 36L8 39L9 39L9 36ZM11 36L11 38L12 38L12 37L13 37L13 38L15 38L15 36L14 36L14 37L13 37L13 36ZM30 37L30 38L31 38L31 37ZM34 37L34 38L36 38L36 37ZM37 38L37 39L38 39L38 38ZM0 0L0 7L7 7L7 0ZM1 1L1 6L6 6L6 1ZM2 2L2 5L5 5L5 2ZM34 0L34 7L41 7L41 0ZM35 1L35 6L40 6L40 1ZM36 2L36 5L39 5L39 2ZM0 34L0 41L7 41L7 34ZM1 35L1 40L6 40L6 35ZM2 36L2 39L5 39L5 36Z" fill="#000000"/></g></g></svg>
