<?xml version="1.0" encoding="UTF-8"?>
<svg xmlns="http://www.w3.org/2000/svg" version="1.1" width="200" height="200" viewBox="0 0 200 200"><rect x="0" y="0" width="200" height="200" fill="#ffffff"/><g transform="scale(6.897)"><g transform="translate(0,0)"><path fill-rule="evenodd" d="M9 0L9 1L8 1L8 7L9 7L9 6L10 6L10 9L11 9L11 6L10 6L10 5L12 5L12 8L13 8L13 6L14 6L14 7L15 7L15 6L16 6L16 8L17 8L17 10L18 10L18 11L14 11L14 9L15 9L15 8L14 8L14 9L13 9L13 11L11 11L11 10L10 10L10 11L8 11L8 10L9 10L9 8L5 8L5 9L8 9L8 10L6 10L6 11L5 11L5 10L4 10L4 9L3 9L3 8L2 8L2 9L0 9L0 10L2 10L2 9L3 9L3 10L4 10L4 11L3 11L3 12L1 12L1 11L0 11L0 12L1 12L1 14L2 14L2 13L4 13L4 12L6 12L6 13L7 13L7 14L6 14L6 15L7 15L7 16L4 16L4 15L2 15L2 16L4 16L4 17L3 17L3 18L0 18L0 19L2 19L2 20L0 20L0 21L2 21L2 20L3 20L3 19L5 19L5 18L4 18L4 17L9 17L9 19L8 19L8 18L6 18L6 19L8 19L8 20L9 20L9 19L10 19L10 22L11 22L11 23L9 23L9 21L8 21L8 24L10 24L10 25L9 25L9 26L8 26L8 27L9 27L9 28L10 28L10 29L16 29L16 28L15 28L15 26L16 26L16 27L17 27L17 28L18 28L18 29L21 29L21 28L20 28L20 27L22 27L22 26L21 26L21 25L25 25L25 28L24 28L24 26L23 26L23 28L22 28L22 29L23 29L23 28L24 28L24 29L29 29L29 26L26 26L26 25L28 25L28 24L26 24L26 25L25 25L25 23L26 23L26 21L27 21L27 18L28 18L28 17L29 17L29 16L27 16L27 17L25 17L25 18L24 18L24 19L25 19L25 18L26 18L26 20L23 20L23 18L21 18L21 16L19 16L19 15L21 15L21 14L19 14L19 13L21 13L21 12L22 12L22 14L23 14L23 15L22 15L22 16L23 16L23 17L24 17L24 16L23 16L23 15L25 15L25 14L26 14L26 13L29 13L29 12L27 12L27 11L29 11L29 9L28 9L28 8L23 8L23 9L28 9L28 10L27 10L27 11L25 11L25 10L22 10L22 11L21 11L21 12L18 12L18 11L20 11L20 10L19 10L19 8L21 8L21 9L22 9L22 8L21 8L21 3L19 3L19 4L16 4L16 5L15 5L15 6L14 6L14 5L12 5L12 4L13 4L13 2L12 2L12 3L10 3L10 2L11 2L11 0ZM14 0L14 1L15 1L15 0ZM16 0L16 1L19 1L19 2L20 2L20 0ZM9 1L9 2L10 2L10 1ZM15 2L15 3L14 3L14 4L15 4L15 3L18 3L18 2ZM19 4L19 5L16 5L16 6L17 6L17 8L18 8L18 6L19 6L19 7L20 7L20 6L19 6L19 5L20 5L20 4ZM6 11L6 12L7 12L7 13L8 13L8 11ZM23 11L23 14L25 14L25 13L24 13L24 12L25 12L25 11ZM9 12L9 16L10 16L10 15L11 15L11 19L12 19L12 21L11 21L11 22L12 22L12 23L15 23L15 22L14 22L14 21L15 21L15 19L16 19L16 20L17 20L17 21L19 21L19 22L20 22L20 20L19 20L19 19L20 19L20 17L17 17L17 16L16 16L16 15L19 15L19 14L15 14L15 13L17 13L17 12L15 12L15 13L14 13L14 12L13 12L13 14L12 14L12 15L11 15L11 14L10 14L10 13L12 13L12 12ZM7 14L7 15L8 15L8 14ZM13 14L13 17L12 17L12 18L13 18L13 17L14 17L14 14ZM27 14L27 15L29 15L29 14ZM15 16L15 18L14 18L14 19L15 19L15 18L16 18L16 16ZM17 18L17 19L18 19L18 18ZM21 19L21 20L22 20L22 19ZM4 20L4 21L5 21L5 20ZM6 20L6 21L7 21L7 20ZM21 21L21 24L24 24L24 21ZM16 22L16 23L17 23L17 24L16 24L16 26L17 26L17 27L18 27L18 28L19 28L19 27L20 27L20 26L19 26L19 27L18 27L18 26L17 26L17 24L18 24L18 25L19 25L19 24L20 24L20 23L19 23L19 24L18 24L18 23L17 23L17 22ZM22 22L22 23L23 23L23 22ZM28 22L28 23L29 23L29 22ZM11 24L11 25L12 25L12 26L11 26L11 28L12 28L12 27L13 27L13 26L15 26L15 25L13 25L13 24ZM26 27L26 28L28 28L28 27ZM0 0L0 7L7 7L7 0ZM1 1L1 6L6 6L6 1ZM2 2L2 5L5 5L5 2ZM22 0L22 7L29 7L29 0ZM23 1L23 6L28 6L28 1ZM24 2L24 5L27 5L27 2ZM0 22L0 29L7 29L7 22ZM1 23L1 28L6 28L6 23ZM2 24L2 27L5 27L5 24Z" fill="#000000"/></g></g></svg>
