<?xml version="1.0" encoding="UTF-8"?>
<svg xmlns="http://www.w3.org/2000/svg" version="1.1" width="200" height="200" viewBox="0 0 200 200"><rect x="0" y="0" width="200" height="200" fill="#ffffff"/><g transform="scale(4.878)"><g transform="translate(0,0)"><path fill-rule="evenodd" d="M8 0L8 3L9 3L9 2L10 2L10 3L12 3L12 2L13 2L13 4L9 4L9 5L8 5L8 10L9 10L9 11L7 11L7 10L6 10L6 9L7 9L7 8L6 8L6 9L5 9L5 8L2 8L2 9L3 9L3 10L1 10L1 9L0 9L0 11L1 11L1 12L3 12L3 10L4 10L4 13L5 13L5 14L6 14L6 15L5 15L5 17L3 17L3 16L4 16L4 15L2 15L2 17L3 17L3 20L5 20L5 19L7 19L7 20L6 20L6 21L5 21L5 22L2 22L2 21L1 21L1 23L0 23L0 33L1 33L1 30L2 30L2 31L4 31L4 32L2 32L2 33L7 33L7 32L6 32L6 31L7 31L7 30L5 30L5 28L6 28L6 29L7 29L7 28L6 28L6 27L7 27L7 26L3 26L3 25L4 25L4 23L7 23L7 22L6 22L6 21L7 21L7 20L8 20L8 22L9 22L9 24L6 24L6 25L8 25L8 28L9 28L9 29L8 29L8 30L9 30L9 31L8 31L8 34L11 34L11 35L10 35L10 36L8 36L8 39L10 39L10 36L12 36L12 37L11 37L11 38L12 38L12 41L13 41L13 38L12 38L12 37L14 37L14 38L15 38L15 40L14 40L14 41L15 41L15 40L16 40L16 41L18 41L18 38L19 38L19 37L18 37L18 36L21 36L21 35L23 35L23 36L24 36L24 37L26 37L26 38L25 38L25 39L23 39L23 37L20 37L20 38L22 38L22 40L19 40L19 41L24 41L24 40L26 40L26 41L31 41L31 40L33 40L33 41L34 41L34 40L33 40L33 39L35 39L35 40L36 40L36 39L38 39L38 38L39 38L39 40L40 40L40 38L41 38L41 37L40 37L40 36L41 36L41 35L40 35L40 34L41 34L41 33L40 33L40 32L41 32L41 31L40 31L40 30L41 30L41 29L40 29L40 28L41 28L41 27L40 27L40 26L41 26L41 23L40 23L40 26L39 26L39 24L37 24L37 25L36 25L36 23L35 23L35 25L34 25L34 24L33 24L33 23L34 23L34 22L36 22L36 21L37 21L37 23L39 23L39 22L38 22L38 21L39 21L39 20L36 20L36 19L35 19L35 17L36 17L36 18L37 18L37 19L38 19L38 17L39 17L39 18L41 18L41 16L40 16L40 17L39 17L39 16L38 16L38 15L39 15L39 14L41 14L41 13L40 13L40 12L41 12L41 11L40 11L40 10L41 10L41 8L38 8L38 9L40 9L40 10L37 10L37 9L36 9L36 8L33 8L33 9L30 9L30 8L31 8L31 6L30 6L30 8L29 8L29 6L28 6L28 5L29 5L29 4L28 4L28 5L26 5L26 4L27 4L27 3L29 3L29 1L27 1L27 0L25 0L25 3L24 3L24 1L23 1L23 2L21 2L21 1L19 1L19 0L17 0L17 1L16 1L16 0L15 0L15 1L16 1L16 3L17 3L17 1L19 1L19 2L21 2L21 3L20 3L20 4L17 4L17 6L16 6L16 4L15 4L15 2L13 2L13 1L14 1L14 0L13 0L13 1L12 1L12 0ZM30 0L30 2L31 2L31 3L30 3L30 4L31 4L31 5L32 5L32 4L33 4L33 3L32 3L32 2L33 2L33 0ZM10 1L10 2L11 2L11 1ZM31 1L31 2L32 2L32 1ZM26 2L26 3L25 3L25 4L26 4L26 3L27 3L27 2ZM22 3L22 4L23 4L23 3ZM31 3L31 4L32 4L32 3ZM13 4L13 5L12 5L12 6L11 6L11 5L9 5L9 7L10 7L10 8L9 8L9 9L11 9L11 10L12 10L12 11L11 11L11 13L10 13L10 11L9 11L9 13L8 13L8 12L7 12L7 11L6 11L6 10L5 10L5 9L4 9L4 10L5 10L5 12L7 12L7 13L6 13L6 14L7 14L7 13L8 13L8 15L6 15L6 16L7 16L7 17L5 17L5 18L4 18L4 19L5 19L5 18L7 18L7 19L8 19L8 20L12 20L12 21L11 21L11 22L12 22L12 24L11 24L11 23L10 23L10 24L9 24L9 26L10 26L10 27L11 27L11 28L12 28L12 27L13 27L13 28L15 28L15 26L12 26L12 27L11 27L11 25L14 25L14 24L15 24L15 23L14 23L14 24L13 24L13 22L15 22L15 21L19 21L19 22L20 22L20 21L19 21L19 19L17 19L17 20L16 20L16 18L17 18L17 16L18 16L18 17L19 17L19 18L20 18L20 17L19 17L19 16L22 16L22 15L23 15L23 18L21 18L21 19L20 19L20 20L21 20L21 22L22 22L22 21L23 21L23 23L22 23L22 24L20 24L20 23L19 23L19 24L18 24L18 22L16 22L16 25L17 25L17 24L18 24L18 26L20 26L20 25L23 25L23 23L24 23L24 24L25 24L25 25L24 25L24 26L23 26L23 27L22 27L22 28L21 28L21 27L19 27L19 28L20 28L20 30L19 30L19 31L18 31L18 30L17 30L17 29L18 29L18 27L17 27L17 26L16 26L16 30L15 30L15 29L14 29L14 30L13 30L13 29L9 29L9 30L10 30L10 31L9 31L9 33L10 33L10 32L11 32L11 30L13 30L13 32L15 32L15 31L18 31L18 32L17 32L17 33L16 33L16 34L14 34L14 33L11 33L11 34L13 34L13 35L12 35L12 36L14 36L14 35L17 35L17 34L18 34L18 35L20 35L20 34L23 34L23 35L25 35L25 36L29 36L29 37L27 37L27 38L26 38L26 40L31 40L31 39L33 39L33 38L36 38L36 37L33 37L33 38L31 38L31 37L32 37L32 36L31 36L31 35L30 35L30 34L32 34L32 32L36 32L36 31L37 31L37 30L36 30L36 29L38 29L38 32L37 32L37 34L38 34L38 35L37 35L37 36L40 36L40 35L39 35L39 34L38 34L38 32L39 32L39 28L40 28L40 27L39 27L39 26L38 26L38 28L36 28L36 27L37 27L37 26L36 26L36 25L35 25L35 28L36 28L36 29L34 29L34 28L33 28L33 27L34 27L34 25L33 25L33 24L32 24L32 23L33 23L33 22L34 22L34 21L36 21L36 20L35 20L35 19L34 19L34 18L30 18L30 19L31 19L31 20L28 20L28 19L27 19L27 18L29 18L29 16L30 16L30 17L31 17L31 16L30 16L30 15L31 15L31 14L32 14L32 15L33 15L33 16L32 16L32 17L33 17L33 16L34 16L34 17L35 17L35 15L37 15L37 14L39 14L39 11L38 11L38 12L35 12L35 10L36 10L36 9L35 9L35 10L34 10L34 9L33 9L33 10L34 10L34 11L33 11L33 12L32 12L32 10L31 10L31 14L30 14L30 13L28 13L28 14L30 14L30 15L28 15L28 17L26 17L26 18L25 18L25 17L24 17L24 15L26 15L26 16L27 16L27 14L26 14L26 12L27 12L27 10L28 10L28 9L29 9L29 10L30 10L30 9L29 9L29 8L28 8L28 6L27 6L27 8L26 8L26 11L25 11L25 10L23 10L23 9L24 9L24 8L25 8L25 7L26 7L26 5L25 5L25 7L24 7L24 5L23 5L23 9L22 9L22 10L21 10L21 11L22 11L22 10L23 10L23 12L22 12L22 13L23 13L23 12L24 12L24 15L23 15L23 14L22 14L22 15L21 15L21 14L20 14L20 13L21 13L21 12L20 12L20 10L19 10L19 13L18 13L18 12L16 12L16 13L15 13L15 12L13 12L13 11L14 11L14 10L13 10L13 9L15 9L15 10L17 10L17 8L18 8L18 9L19 9L19 7L20 7L20 9L21 9L21 8L22 8L22 6L21 6L21 4L20 4L20 5L18 5L18 6L17 6L17 7L16 7L16 6L15 6L15 4ZM10 6L10 7L11 7L11 9L12 9L12 8L14 8L14 7L15 7L15 8L16 8L16 7L15 7L15 6L14 6L14 7L13 7L13 6L12 6L12 7L11 7L11 6ZM18 6L18 7L19 7L19 6ZM20 6L20 7L21 7L21 6ZM32 6L32 7L33 7L33 6ZM27 8L27 9L28 9L28 8ZM24 11L24 12L25 12L25 11ZM28 11L28 12L30 12L30 11ZM12 12L12 13L13 13L13 14L14 14L14 13L13 13L13 12ZM33 12L33 13L32 13L32 14L33 14L33 15L34 15L34 14L33 14L33 13L34 13L34 12ZM0 13L0 14L1 14L1 13ZM2 13L2 14L3 14L3 13ZM16 13L16 14L15 14L15 15L14 15L14 16L13 16L13 18L11 18L11 17L10 17L10 16L12 16L12 14L10 14L10 15L8 15L8 16L9 16L9 18L8 18L8 17L7 17L7 18L8 18L8 19L12 19L12 20L13 20L13 19L15 19L15 17L14 17L14 16L16 16L16 15L18 15L18 14L17 14L17 13ZM36 13L36 14L37 14L37 13ZM19 14L19 15L20 15L20 14ZM0 15L0 18L1 18L1 15ZM36 16L36 17L38 17L38 16ZM1 19L1 20L2 20L2 19ZM25 19L25 20L24 20L24 23L25 23L25 20L27 20L27 21L26 21L26 22L27 22L27 24L26 24L26 28L25 28L25 29L24 29L24 30L25 30L25 31L27 31L27 30L29 30L29 31L28 31L28 33L31 33L31 32L29 32L29 31L31 31L31 29L30 29L30 28L29 28L29 26L30 26L30 25L31 25L31 26L33 26L33 25L31 25L31 23L30 23L30 24L28 24L28 22L29 22L29 21L28 21L28 20L27 20L27 19ZM32 19L32 21L30 21L30 22L32 22L32 21L34 21L34 20L33 20L33 19ZM40 20L40 21L41 21L41 20ZM9 21L9 22L10 22L10 21ZM12 21L12 22L13 22L13 21ZM27 21L27 22L28 22L28 21ZM1 23L1 25L2 25L2 23ZM10 24L10 25L11 25L11 24ZM27 24L27 26L29 26L29 25L28 25L28 24ZM24 26L24 27L25 27L25 26ZM1 27L1 28L2 28L2 30L4 30L4 28L5 28L5 27L3 27L3 28L2 28L2 27ZM27 27L27 28L26 28L26 29L25 29L25 30L27 30L27 28L28 28L28 29L29 29L29 30L30 30L30 29L29 29L29 28L28 28L28 27ZM31 27L31 28L32 28L32 29L33 29L33 30L32 30L32 31L33 31L33 30L34 30L34 31L36 31L36 30L34 30L34 29L33 29L33 28L32 28L32 27ZM22 28L22 30L21 30L21 31L22 31L22 32L21 32L21 33L23 33L23 34L25 34L25 35L26 35L26 34L27 34L27 35L28 35L28 34L27 34L27 32L26 32L26 34L25 34L25 32L23 32L23 28ZM14 30L14 31L15 31L15 30ZM19 31L19 32L20 32L20 31ZM33 33L33 36L36 36L36 33ZM34 34L34 35L35 35L35 34ZM15 36L15 37L16 37L16 36ZM30 36L30 37L31 37L31 36ZM17 37L17 38L16 38L16 39L17 39L17 38L18 38L18 37ZM37 37L37 38L38 38L38 37ZM27 38L27 39L28 39L28 38ZM29 38L29 39L31 39L31 38ZM0 0L0 7L7 7L7 0ZM1 1L1 6L6 6L6 1ZM2 2L2 5L5 5L5 2ZM34 0L34 7L41 7L41 0ZM35 1L35 6L40 6L40 1ZM36 2L36 5L39 5L39 2ZM0 34L0 41L7 41L7 34ZM1 35L1 40L6 40L6 35ZM2 36L2 39L5 39L5 36Z" fill="#000000"/></g></g></svg>
