<?xml version="1.0" encoding="UTF-8"?>
<svg xmlns="http://www.w3.org/2000/svg" version="1.1" width="200" height="200" viewBox="0 0 200 200"><rect x="0" y="0" width="200" height="200" fill="#ffffff"/><g transform="scale(4.878)"><g transform="translate(0,0)"><path fill-rule="evenodd" d="M8 0L8 3L9 3L9 4L10 4L10 5L11 5L11 6L10 6L10 7L9 7L9 5L8 5L8 10L12 10L12 16L13 16L13 17L14 17L14 16L15 16L15 17L17 17L17 16L16 16L16 14L17 14L17 15L20 15L20 16L21 16L21 15L22 15L22 16L23 16L23 17L21 17L21 19L19 19L19 20L18 20L18 19L17 19L17 20L16 20L16 19L15 19L15 18L13 18L13 19L14 19L14 20L13 20L13 21L12 21L12 19L11 19L11 18L12 18L12 17L11 17L11 18L10 18L10 14L9 14L9 13L8 13L8 12L6 12L6 11L7 11L7 10L6 10L6 9L7 9L7 8L6 8L6 9L5 9L5 8L2 8L2 9L3 9L3 11L1 11L1 12L2 12L2 13L0 13L0 14L2 14L2 17L1 17L1 18L0 18L0 20L1 20L1 22L0 22L0 23L1 23L1 24L0 24L0 26L1 26L1 27L3 27L3 28L4 28L4 30L3 30L3 29L2 29L2 30L3 30L3 31L2 31L2 32L3 32L3 33L4 33L4 32L3 32L3 31L7 31L7 32L5 32L5 33L8 33L8 34L9 34L9 36L8 36L8 39L9 39L9 38L12 38L12 41L14 41L14 40L15 40L15 41L19 41L19 40L20 40L20 41L21 41L21 40L20 40L20 39L21 39L21 38L22 38L22 39L23 39L23 38L24 38L24 39L25 39L25 41L26 41L26 40L28 40L28 41L32 41L32 40L33 40L33 41L34 41L34 40L33 40L33 39L32 39L32 38L31 38L31 37L30 37L30 38L29 38L29 39L30 39L30 40L28 40L28 38L27 38L27 37L29 37L29 36L31 36L31 35L32 35L32 37L33 37L33 38L34 38L34 39L35 39L35 40L36 40L36 39L37 39L37 40L40 40L40 38L41 38L41 37L40 37L40 36L37 36L37 35L40 35L40 34L41 34L41 33L39 33L39 32L37 32L37 29L36 29L36 28L38 28L38 26L39 26L39 27L40 27L40 28L39 28L39 30L38 30L38 31L40 31L40 30L41 30L41 29L40 29L40 28L41 28L41 27L40 27L40 26L41 26L41 23L39 23L39 22L38 22L38 21L39 21L39 20L38 20L38 19L40 19L40 18L41 18L41 16L40 16L40 18L37 18L37 17L39 17L39 16L37 16L37 15L36 15L36 16L35 16L35 17L34 17L34 16L33 16L33 17L31 17L31 15L30 15L30 14L31 14L31 12L29 12L29 13L28 13L28 10L29 10L29 11L31 11L31 10L32 10L32 9L34 9L34 11L32 11L32 13L33 13L33 14L32 14L32 15L34 15L34 13L35 13L35 9L36 9L36 12L38 12L38 11L40 11L40 10L41 10L41 8L38 8L38 9L40 9L40 10L37 10L37 9L36 9L36 8L33 8L33 4L30 4L30 5L29 5L29 4L28 4L28 5L27 5L27 4L25 4L25 5L27 5L27 6L26 6L26 7L27 7L27 6L28 6L28 8L25 8L25 6L24 6L24 7L23 7L23 4L24 4L24 2L25 2L25 0L23 0L23 1L24 1L24 2L22 2L22 1L21 1L21 0L19 0L19 1L16 1L16 0L15 0L15 1L14 1L14 0L12 0L12 1L10 1L10 2L9 2L9 0ZM26 0L26 1L27 1L27 2L26 2L26 3L33 3L33 2L30 2L30 1L33 1L33 0L29 0L29 1L27 1L27 0ZM15 1L15 2L13 2L13 3L14 3L14 4L15 4L15 2L16 2L16 1ZM19 1L19 2L20 2L20 3L18 3L18 2L17 2L17 3L16 3L16 5L18 5L18 6L17 6L17 8L18 8L18 6L19 6L19 7L20 7L20 8L19 8L19 9L20 9L20 10L18 10L18 9L16 9L16 8L15 8L15 9L14 9L14 6L13 6L13 8L12 8L12 6L11 6L11 7L10 7L10 8L12 8L12 9L13 9L13 10L14 10L14 14L16 14L16 13L15 13L15 12L16 12L16 10L17 10L17 11L20 11L20 12L19 12L19 14L20 14L20 13L21 13L21 14L23 14L23 15L24 15L24 13L25 13L25 14L27 14L27 15L25 15L25 17L26 17L26 16L27 16L27 18L29 18L29 19L28 19L28 20L29 20L29 21L27 21L27 22L26 22L26 20L27 20L27 19L25 19L25 20L24 20L24 19L23 19L23 18L24 18L24 17L23 17L23 18L22 18L22 19L23 19L23 20L22 20L22 22L21 22L21 23L19 23L19 21L18 21L18 20L17 20L17 22L16 22L16 20L14 20L14 21L13 21L13 22L16 22L16 23L13 23L13 25L14 25L14 24L15 24L15 25L16 25L16 24L18 24L18 26L13 26L13 29L12 29L12 24L11 24L11 26L9 26L9 27L10 27L10 28L9 28L9 29L8 29L8 28L7 28L7 27L5 27L5 26L8 26L8 25L9 25L9 21L10 21L10 23L11 23L11 19L10 19L10 18L9 18L9 19L8 19L8 17L6 17L6 16L9 16L9 14L8 14L8 13L5 13L5 11L6 11L6 10L5 10L5 9L4 9L4 10L5 10L5 11L4 11L4 13L2 13L2 14L4 14L4 13L5 13L5 14L7 14L7 15L6 15L6 16L5 16L5 18L7 18L7 19L3 19L3 17L4 17L4 16L3 16L3 17L2 17L2 21L3 21L3 22L2 22L2 23L4 23L4 25L2 25L2 24L1 24L1 25L2 25L2 26L4 26L4 27L5 27L5 30L7 30L7 31L8 31L8 32L10 32L10 31L13 31L13 32L12 32L12 33L9 33L9 34L11 34L11 35L10 35L10 36L11 36L11 35L12 35L12 34L13 34L13 35L14 35L14 34L16 34L16 35L17 35L17 33L18 33L18 32L19 32L19 31L20 31L20 32L23 32L23 33L24 33L24 34L25 34L25 35L26 35L26 37L27 37L27 35L26 35L26 34L29 34L29 33L25 33L25 32L23 32L23 31L22 31L22 30L23 30L23 29L24 29L24 31L25 31L25 29L27 29L27 28L31 28L31 29L28 29L28 30L29 30L29 31L28 31L28 32L30 32L30 33L31 33L31 32L30 32L30 30L32 30L32 31L33 31L33 32L35 32L35 31L36 31L36 29L35 29L35 28L36 28L36 25L39 25L39 26L40 26L40 24L39 24L39 23L38 23L38 22L37 22L37 24L36 24L36 23L32 23L32 22L31 22L31 21L33 21L33 22L34 22L34 21L35 21L35 22L36 22L36 21L35 21L35 19L36 19L36 20L37 20L37 21L38 21L38 20L37 20L37 18L36 18L36 17L37 17L37 16L36 16L36 17L35 17L35 19L34 19L34 18L33 18L33 19L32 19L32 18L31 18L31 17L29 17L29 16L30 16L30 15L29 15L29 14L30 14L30 13L29 13L29 14L27 14L27 11L26 11L26 10L28 10L28 9L29 9L29 10L31 10L31 9L32 9L32 5L30 5L30 6L29 6L29 5L28 5L28 6L29 6L29 8L28 8L28 9L25 9L25 10L24 10L24 9L23 9L23 11L22 11L22 9L20 9L20 8L21 8L21 7L22 7L22 6L21 6L21 7L20 7L20 5L21 5L21 3L22 3L22 2L20 2L20 1ZM10 2L10 4L11 4L11 2ZM17 3L17 4L18 4L18 5L20 5L20 4L18 4L18 3ZM15 6L15 7L16 7L16 6ZM30 6L30 8L29 8L29 9L31 9L31 6ZM0 9L0 10L1 10L1 9ZM20 10L20 11L21 11L21 10ZM9 11L9 12L10 12L10 13L11 13L11 12L10 12L10 11ZM25 11L25 12L26 12L26 11ZM21 12L21 13L23 13L23 12ZM33 12L33 13L34 13L34 12ZM39 12L39 14L41 14L41 13L40 13L40 12ZM36 13L36 14L38 14L38 13ZM0 15L0 16L1 16L1 15ZM28 15L28 16L29 16L29 15ZM18 16L18 17L19 17L19 18L20 18L20 17L19 17L19 16ZM30 18L30 19L31 19L31 18ZM9 19L9 20L8 20L8 21L7 21L7 20L5 20L5 24L6 24L6 25L7 25L7 24L8 24L8 23L7 23L7 22L8 22L8 21L9 21L9 20L10 20L10 19ZM30 20L30 21L31 21L31 20ZM33 20L33 21L34 21L34 20ZM40 20L40 21L41 21L41 20ZM6 21L6 22L7 22L7 21ZM23 21L23 23L21 23L21 24L22 24L22 25L21 25L21 26L20 26L20 25L19 25L19 26L20 26L20 27L21 27L21 28L22 28L22 29L23 29L23 27L21 27L21 26L24 26L24 25L23 25L23 23L24 23L24 24L25 24L25 26L27 26L27 27L28 27L28 26L27 26L27 25L29 25L29 26L30 26L30 25L31 25L31 26L32 26L32 25L33 25L33 27L34 27L34 26L35 26L35 25L36 25L36 24L35 24L35 25L33 25L33 24L32 24L32 25L31 25L31 24L28 24L28 22L27 22L27 23L26 23L26 24L25 24L25 23L24 23L24 22L25 22L25 21ZM6 23L6 24L7 24L7 23ZM15 27L15 28L14 28L14 31L16 31L16 30L17 30L17 31L18 31L18 29L19 29L19 30L20 30L20 31L21 31L21 30L20 30L20 29L19 29L19 28L16 28L16 27ZM24 27L24 28L26 28L26 27ZM31 27L31 28L32 28L32 27ZM6 28L6 29L7 29L7 30L8 30L8 29L7 29L7 28ZM10 28L10 29L9 29L9 31L10 31L10 30L12 30L12 29L11 29L11 28ZM33 28L33 29L32 29L32 30L33 30L33 29L34 29L34 28ZM0 29L0 33L1 33L1 29ZM15 29L15 30L16 30L16 29ZM26 30L26 32L27 32L27 30ZM34 30L34 31L35 31L35 30ZM13 32L13 33L14 33L14 32ZM15 32L15 33L17 33L17 32ZM19 33L19 34L18 34L18 37L17 37L17 36L15 36L15 38L14 38L14 39L18 39L18 38L19 38L19 37L20 37L20 38L21 38L21 37L22 37L22 38L23 38L23 37L24 37L24 36L23 36L23 37L22 37L22 36L21 36L21 35L23 35L23 34L20 34L20 33ZM33 33L33 36L36 36L36 33ZM37 33L37 34L39 34L39 33ZM19 34L19 36L20 36L20 34ZM30 34L30 35L31 35L31 34ZM34 34L34 35L35 35L35 34ZM28 35L28 36L29 36L29 35ZM12 36L12 38L13 38L13 36ZM34 37L34 38L36 38L36 37ZM26 38L26 39L27 39L27 38ZM30 38L30 39L31 39L31 40L32 40L32 39L31 39L31 38ZM37 38L37 39L38 39L38 38ZM10 39L10 41L11 41L11 39ZM22 40L22 41L24 41L24 40ZM0 0L0 7L7 7L7 0ZM1 1L1 6L6 6L6 1ZM2 2L2 5L5 5L5 2ZM34 0L34 7L41 7L41 0ZM35 1L35 6L40 6L40 1ZM36 2L36 5L39 5L39 2ZM0 34L0 41L7 41L7 34ZM1 35L1 40L6 40L6 35ZM2 36L2 39L5 39L5 36Z" fill="#000000"/></g></g></svg>
