<?xml version="1.0" encoding="UTF-8"?>
<svg xmlns="http://www.w3.org/2000/svg" version="1.1" width="200" height="200" viewBox="0 0 200 200"><rect x="0" y="0" width="200" height="200" fill="#ffffff"/><g transform="scale(4.878)"><g transform="translate(0,0)"><path fill-rule="evenodd" d="M9 0L9 1L8 1L8 2L10 2L10 4L9 4L9 5L8 5L8 8L4 8L4 9L3 9L3 10L1 10L1 9L0 9L0 10L1 10L1 12L0 12L0 13L1 13L1 12L3 12L3 13L5 13L5 12L4 12L4 11L3 11L3 10L5 10L5 11L8 11L8 8L10 8L10 7L11 7L11 6L12 6L12 7L13 7L13 4L14 4L14 8L16 8L16 7L17 7L17 8L18 8L18 9L19 9L19 10L18 10L18 12L17 12L17 10L16 10L16 11L15 11L15 10L14 10L14 13L13 13L13 14L12 14L12 13L10 13L10 14L6 14L6 15L7 15L7 16L5 16L5 17L4 17L4 19L2 19L2 20L0 20L0 23L2 23L2 24L0 24L0 25L2 25L2 26L0 26L0 27L1 27L1 28L3 28L3 27L4 27L4 28L5 28L5 29L4 29L4 30L5 30L5 31L4 31L4 32L3 32L3 31L2 31L2 32L0 32L0 33L4 33L4 32L6 32L6 33L7 33L7 32L6 32L6 31L8 31L8 30L10 30L10 31L9 31L9 32L8 32L8 37L9 37L9 39L10 39L10 40L9 40L9 41L10 41L10 40L12 40L12 39L11 39L11 38L12 38L12 35L14 35L14 34L12 34L12 33L14 33L14 32L12 32L12 31L13 31L13 30L15 30L15 28L16 28L16 29L17 29L17 31L15 31L15 33L16 33L16 34L15 34L15 35L18 35L18 36L19 36L19 37L20 37L20 40L19 40L19 38L18 38L18 39L17 39L17 38L16 38L16 39L15 39L15 36L14 36L14 40L13 40L13 41L14 41L14 40L16 40L16 41L17 41L17 40L19 40L19 41L27 41L27 40L26 40L26 39L25 39L25 34L26 34L26 28L23 28L23 27L22 27L22 26L23 26L23 24L24 24L24 26L25 26L25 27L26 27L26 26L27 26L27 27L28 27L28 29L30 29L30 30L29 30L29 31L28 31L28 30L27 30L27 32L28 32L28 33L27 33L27 35L26 35L26 36L27 36L27 35L28 35L28 36L29 36L29 35L28 35L28 33L29 33L29 34L30 34L30 35L32 35L32 36L31 36L31 37L30 37L30 38L33 38L33 39L29 39L29 37L26 37L26 38L27 38L27 39L28 39L28 40L29 40L29 41L30 41L30 40L31 40L31 41L33 41L33 39L34 39L34 40L35 40L35 39L34 39L34 37L36 37L36 38L37 38L37 37L38 37L38 34L39 34L39 37L40 37L40 38L38 38L38 39L36 39L36 40L37 40L37 41L40 41L40 40L41 40L41 37L40 37L40 35L41 35L41 33L40 33L40 34L39 34L39 33L37 33L37 32L35 32L35 31L37 31L37 30L38 30L38 31L41 31L41 29L40 29L40 30L39 30L39 28L38 28L38 26L37 26L37 25L39 25L39 27L40 27L40 28L41 28L41 24L40 24L40 23L41 23L41 22L40 22L40 21L41 21L41 9L40 9L40 8L39 8L39 9L36 9L36 8L34 8L34 9L32 9L32 7L33 7L33 1L31 1L31 0L29 0L29 1L28 1L28 0L27 0L27 1L26 1L26 0L24 0L24 1L23 1L23 2L24 2L24 3L25 3L25 2L26 2L26 3L28 3L28 2L30 2L30 1L31 1L31 2L32 2L32 5L31 5L31 3L29 3L29 4L30 4L30 7L29 7L29 5L28 5L28 4L27 4L27 5L26 5L26 4L24 4L24 5L26 5L26 7L27 7L27 5L28 5L28 8L29 8L29 9L27 9L27 8L26 8L26 9L25 9L25 6L24 6L24 7L23 7L23 6L22 6L22 3L21 3L21 6L20 6L20 9L19 9L19 8L18 8L18 7L19 7L19 5L20 5L20 3L19 3L19 1L21 1L21 2L22 2L22 0L17 0L17 1L15 1L15 0L14 0L14 1L15 1L15 3L12 3L12 5L11 5L11 6L10 6L10 7L9 7L9 5L10 5L10 4L11 4L11 2L13 2L13 0ZM17 1L17 2L16 2L16 3L15 3L15 4L16 4L16 5L15 5L15 7L16 7L16 6L17 6L17 7L18 7L18 5L19 5L19 4L16 4L16 3L17 3L17 2L18 2L18 1ZM24 1L24 2L25 2L25 1ZM27 1L27 2L28 2L28 1ZM21 6L21 8L22 8L22 9L21 9L21 10L22 10L22 12L21 12L21 11L20 11L20 10L19 10L19 11L20 11L20 14L21 14L21 15L20 15L20 16L19 16L19 15L18 15L18 16L17 16L17 14L15 14L15 15L16 15L16 16L17 16L17 17L18 17L18 16L19 16L19 18L16 18L16 17L15 17L15 18L16 18L16 19L12 19L12 20L11 20L11 21L8 21L8 20L10 20L10 19L11 19L11 18L12 18L12 14L11 14L11 15L8 15L8 16L7 16L7 17L5 17L5 18L7 18L7 19L5 19L5 20L4 20L4 22L3 22L3 21L1 21L1 22L3 22L3 26L2 26L2 27L3 27L3 26L4 26L4 25L5 25L5 28L7 28L7 29L6 29L6 30L7 30L7 29L8 29L8 28L9 28L9 29L10 29L10 30L11 30L11 31L10 31L10 32L9 32L9 33L10 33L10 34L9 34L9 37L10 37L10 35L12 35L12 34L11 34L11 31L12 31L12 30L13 30L13 29L11 29L11 28L12 28L12 27L13 27L13 28L15 28L15 27L16 27L16 28L17 28L17 29L18 29L18 28L19 28L19 29L22 29L22 30L20 30L20 31L22 31L22 30L23 30L23 31L24 31L24 29L22 29L22 28L21 28L21 27L18 27L18 28L17 28L17 26L18 26L18 25L19 25L19 26L20 26L20 25L19 25L19 24L20 24L20 23L21 23L21 26L22 26L22 22L21 22L21 19L22 19L22 21L23 21L23 22L24 22L24 23L25 23L25 24L26 24L26 23L27 23L27 25L29 25L29 23L30 23L30 24L31 24L31 25L30 25L30 26L31 26L31 28L30 28L30 29L31 29L31 28L32 28L32 27L33 27L33 29L32 29L32 31L33 31L33 32L34 32L34 31L35 31L35 30L36 30L36 29L37 29L37 26L36 26L36 25L37 25L37 24L39 24L39 23L40 23L40 22L39 22L39 23L37 23L37 22L38 22L38 21L39 21L39 20L40 20L40 17L39 17L39 16L40 16L40 15L39 15L39 14L38 14L38 17L39 17L39 18L37 18L37 19L38 19L38 21L37 21L37 22L36 22L36 21L35 21L35 20L36 20L36 19L35 19L35 18L36 18L36 17L37 17L37 15L36 15L36 13L37 13L37 11L36 11L36 9L35 9L35 10L33 10L33 11L34 11L34 12L35 12L35 13L33 13L33 12L32 12L32 9L31 9L31 7L32 7L32 6L31 6L31 7L30 7L30 9L29 9L29 10L30 10L30 11L31 11L31 12L32 12L32 13L33 13L33 14L35 14L35 15L36 15L36 17L35 17L35 16L34 16L34 15L32 15L32 14L31 14L31 15L30 15L30 17L29 17L29 15L28 15L28 13L29 13L29 14L30 14L30 13L29 13L29 11L27 11L27 10L26 10L26 11L25 11L25 9L24 9L24 8L23 8L23 7L22 7L22 6ZM12 8L12 9L13 9L13 8ZM5 9L5 10L7 10L7 9ZM30 9L30 10L31 10L31 9ZM9 10L9 12L8 12L8 13L9 13L9 12L10 12L10 11L11 11L11 12L12 12L12 11L11 11L11 10ZM26 11L26 12L25 12L25 13L23 13L23 12L22 12L22 13L23 13L23 14L25 14L25 16L24 16L24 15L22 15L22 17L21 17L21 16L20 16L20 19L21 19L21 18L22 18L22 17L23 17L23 19L24 19L24 20L25 20L25 21L27 21L27 23L29 23L29 21L27 21L27 20L28 20L28 19L29 19L29 20L30 20L30 21L32 21L32 23L33 23L33 22L34 22L34 23L35 23L35 25L32 25L32 26L33 26L33 27L34 27L34 28L35 28L35 29L36 29L36 28L35 28L35 25L36 25L36 23L35 23L35 21L32 21L32 20L31 20L31 19L30 19L30 18L31 18L31 17L32 17L32 19L33 19L33 17L32 17L32 16L31 16L31 17L30 17L30 18L28 18L28 16L26 16L26 14L27 14L27 11ZM35 11L35 12L36 12L36 11ZM38 11L38 12L39 12L39 13L40 13L40 12L39 12L39 11ZM6 12L6 13L7 13L7 12ZM16 12L16 13L17 13L17 12ZM18 12L18 14L19 14L19 12ZM25 13L25 14L26 14L26 13ZM1 14L1 15L0 15L0 16L1 16L1 17L0 17L0 19L1 19L1 18L2 18L2 16L4 16L4 15L5 15L5 14ZM1 15L1 16L2 16L2 15ZM10 16L10 17L11 17L11 16ZM13 16L13 17L14 17L14 16ZM23 16L23 17L24 17L24 18L25 18L25 19L27 19L27 17L24 17L24 16ZM7 17L7 18L8 18L8 19L10 19L10 18L8 18L8 17ZM34 17L34 18L35 18L35 17ZM16 19L16 21L17 21L17 22L16 22L16 23L14 23L14 22L15 22L15 20L12 20L12 21L13 21L13 23L14 23L14 24L17 24L17 25L18 25L18 24L19 24L19 23L17 23L17 22L18 22L18 19ZM34 19L34 20L35 20L35 19ZM5 20L5 22L4 22L4 24L5 24L5 25L7 25L7 24L8 24L8 26L6 26L6 27L7 27L7 28L8 28L8 26L9 26L9 28L11 28L11 27L12 27L12 26L16 26L16 25L10 25L10 24L11 24L11 23L10 23L10 22L8 22L8 23L7 23L7 22L6 22L6 21L7 21L7 20ZM19 20L19 21L20 21L20 20ZM30 22L30 23L31 23L31 22ZM6 23L6 24L7 24L7 23ZM0 29L0 30L2 30L2 29ZM33 29L33 30L34 30L34 29ZM30 30L30 31L31 31L31 30ZM16 32L16 33L17 33L17 32ZM18 32L18 34L20 34L20 36L21 36L21 37L22 37L22 38L21 38L21 39L22 39L22 40L24 40L24 39L22 39L22 38L24 38L24 36L23 36L23 37L22 37L22 36L21 36L21 34L22 34L22 35L23 35L23 34L25 34L25 32ZM30 32L30 33L31 33L31 34L32 34L32 32ZM20 33L20 34L21 34L21 33ZM33 33L33 36L36 36L36 33ZM34 34L34 35L35 35L35 34ZM0 0L0 7L7 7L7 0ZM1 1L1 6L6 6L6 1ZM2 2L2 5L5 5L5 2ZM34 0L34 7L41 7L41 0ZM35 1L35 6L40 6L40 1ZM36 2L36 5L39 5L39 2ZM0 34L0 41L7 41L7 34ZM1 35L1 40L6 40L6 35ZM2 36L2 39L5 39L5 36Z" fill="#000000"/></g></g></svg>
