<?xml version="1.0" encoding="UTF-8"?>
<svg xmlns="http://www.w3.org/2000/svg" version="1.1" width="200" height="200" viewBox="0 0 200 200"><rect x="0" y="0" width="200" height="200" fill="#ffffff"/><g transform="scale(4.878)"><g transform="translate(0,0)"><path fill-rule="evenodd" d="M8 0L8 3L9 3L9 5L8 5L8 10L9 10L9 5L10 5L10 4L11 4L11 2L10 2L10 3L9 3L9 1L11 1L11 0ZM12 0L12 1L13 1L13 2L12 2L12 3L13 3L13 2L14 2L14 4L13 4L13 5L11 5L11 6L10 6L10 7L11 7L11 8L10 8L10 9L11 9L11 8L12 8L12 7L13 7L13 8L14 8L14 9L16 9L16 10L17 10L17 11L16 11L16 12L15 12L15 11L14 11L14 10L11 10L11 11L10 11L10 12L9 12L9 11L7 11L7 10L6 10L6 9L7 9L7 8L6 8L6 9L5 9L5 8L2 8L2 9L0 9L0 10L3 10L3 11L4 11L4 13L3 13L3 16L4 16L4 17L2 17L2 16L1 16L1 15L0 15L0 17L2 17L2 20L1 20L1 19L0 19L0 21L1 21L1 22L2 22L2 23L0 23L0 24L1 24L1 26L2 26L2 24L3 24L3 27L4 27L4 28L3 28L3 30L2 30L2 33L4 33L4 32L5 32L5 31L4 31L4 30L6 30L6 31L8 31L8 32L9 32L9 33L8 33L8 34L10 34L10 36L8 36L8 39L9 39L9 40L10 40L10 41L11 41L11 40L12 40L12 41L14 41L14 39L12 39L12 38L11 38L11 37L10 37L10 36L11 36L11 32L12 32L12 34L13 34L13 33L15 33L15 35L13 35L13 36L12 36L12 37L14 37L14 38L16 38L16 40L15 40L15 41L16 41L16 40L17 40L17 41L19 41L19 40L20 40L20 41L21 41L21 40L22 40L22 41L25 41L25 40L26 40L26 41L27 41L27 40L28 40L28 41L32 41L32 40L33 40L33 41L34 41L34 40L33 40L33 39L35 39L35 40L36 40L36 39L37 39L37 40L40 40L40 38L41 38L41 37L40 37L40 36L41 36L41 35L40 35L40 34L41 34L41 33L40 33L40 32L41 32L41 31L40 31L40 30L41 30L41 29L39 29L39 30L38 30L38 29L35 29L35 30L34 30L34 31L35 31L35 32L33 32L33 31L32 31L32 30L33 30L33 29L34 29L34 28L33 28L33 27L34 27L34 26L35 26L35 27L36 27L36 28L38 28L38 26L39 26L39 27L40 27L40 28L41 28L41 27L40 27L40 26L41 26L41 23L39 23L39 22L37 22L37 21L39 21L39 20L36 20L36 19L35 19L35 17L36 17L36 18L37 18L37 17L38 17L38 18L39 18L39 19L40 19L40 18L41 18L41 16L40 16L40 18L39 18L39 16L37 16L37 15L40 15L40 14L41 14L41 13L40 13L40 14L38 14L38 13L36 13L36 14L35 14L35 15L36 15L36 16L35 16L35 17L34 17L34 16L32 16L32 17L30 17L30 16L31 16L31 12L32 12L32 13L33 13L33 14L32 14L32 15L34 15L34 13L35 13L35 12L38 12L38 11L40 11L40 12L41 12L41 11L40 11L40 10L41 10L41 8L38 8L38 9L40 9L40 10L37 10L37 9L36 9L36 8L29 8L29 9L28 9L28 8L27 8L27 6L28 6L28 7L29 7L29 6L30 6L30 7L31 7L31 5L33 5L33 4L30 4L30 5L29 5L29 4L28 4L28 5L27 5L27 4L23 4L23 5L22 5L22 3L23 3L23 2L22 2L22 3L19 3L19 2L20 2L20 1L21 1L21 0L20 0L20 1L18 1L18 0L16 0L16 1L18 1L18 3L17 3L17 4L21 4L21 5L20 5L20 10L19 10L19 11L18 11L18 10L17 10L17 9L16 9L16 8L15 8L15 5L14 5L14 4L16 4L16 3L15 3L15 2L14 2L14 0ZM23 0L23 1L25 1L25 0ZM26 0L26 1L27 1L27 2L26 2L26 3L31 3L31 2L30 2L30 0L29 0L29 1L27 1L27 0ZM31 0L31 1L32 1L32 0ZM16 5L16 7L17 7L17 6L18 6L18 8L19 8L19 5ZM21 5L21 8L22 8L22 5ZM23 5L23 8L26 8L26 6L27 6L27 5L26 5L26 6L25 6L25 7L24 7L24 5ZM28 5L28 6L29 6L29 5ZM11 6L11 7L12 7L12 6ZM13 6L13 7L14 7L14 6ZM32 6L32 7L33 7L33 6ZM4 9L4 10L5 10L5 9ZM21 9L21 10L20 10L20 11L19 11L19 12L21 12L21 13L22 13L22 15L21 15L21 14L20 14L20 13L18 13L18 12L16 12L16 13L15 13L15 12L14 12L14 11L11 11L11 13L9 13L9 14L8 14L8 12L7 12L7 11L5 11L5 15L6 15L6 16L5 16L5 17L6 17L6 18L7 18L7 17L9 17L9 18L8 18L8 19L6 19L6 20L9 20L9 21L5 21L5 23L4 23L4 22L3 22L3 23L4 23L4 24L5 24L5 25L6 25L6 26L5 26L5 29L6 29L6 30L7 30L7 29L8 29L8 28L9 28L9 30L8 30L8 31L9 31L9 30L10 30L10 32L11 32L11 27L10 27L10 26L9 26L9 25L10 25L10 23L9 23L9 22L10 22L10 21L11 21L11 22L12 22L12 23L13 23L13 25L14 25L14 24L15 24L15 25L16 25L16 26L15 26L15 27L12 27L12 28L13 28L13 29L12 29L12 30L13 30L13 31L12 31L12 32L14 32L14 31L15 31L15 33L16 33L16 32L17 32L17 33L18 33L18 34L17 34L17 35L15 35L15 36L17 36L17 37L16 37L16 38L17 38L17 39L18 39L18 40L19 40L19 39L18 39L18 38L17 38L17 37L20 37L20 39L23 39L23 40L24 40L24 38L25 38L25 37L24 37L24 36L25 36L25 35L27 35L27 36L28 36L28 37L26 37L26 38L28 38L28 37L29 37L29 38L30 38L30 37L32 37L32 38L31 38L31 40L32 40L32 39L33 39L33 38L36 38L36 37L32 37L32 36L29 36L29 35L27 35L27 34L29 34L29 33L27 33L27 32L26 32L26 30L27 30L27 29L24 29L24 31L25 31L25 32L24 32L24 33L23 33L23 32L22 32L22 33L21 33L21 36L17 36L17 35L18 35L18 34L19 34L19 32L20 32L20 31L19 31L19 30L20 30L20 29L17 29L17 28L21 28L21 31L22 31L22 30L23 30L23 29L22 29L22 28L24 28L24 27L25 27L25 28L26 28L26 26L24 26L24 25L25 25L25 24L26 24L26 25L27 25L27 26L28 26L28 25L29 25L29 24L30 24L30 23L31 23L31 25L30 25L30 26L29 26L29 28L31 28L31 29L28 29L28 30L30 30L30 31L28 31L28 32L30 32L30 31L31 31L31 30L32 30L32 29L33 29L33 28L32 28L32 26L31 26L31 25L33 25L33 26L34 26L34 25L35 25L35 26L36 26L36 25L39 25L39 26L40 26L40 24L39 24L39 23L37 23L37 24L36 24L36 23L35 23L35 22L36 22L36 21L35 21L35 19L34 19L34 18L33 18L33 17L32 17L32 18L31 18L31 19L30 19L30 17L29 17L29 16L30 16L30 13L29 13L29 12L31 12L31 11L32 11L32 12L33 12L33 13L34 13L34 12L33 12L33 11L34 11L34 9L32 9L32 10L31 10L31 9L29 9L29 10L28 10L28 9L27 9L27 10L25 10L25 9L24 9L24 10L23 10L23 9ZM35 9L35 11L37 11L37 10L36 10L36 9ZM22 10L22 11L21 11L21 12L23 12L23 13L24 13L24 11L25 11L25 12L26 12L26 11L25 11L25 10L24 10L24 11L23 11L23 10ZM27 10L27 11L28 11L28 12L27 12L27 13L25 13L25 15L24 15L24 14L23 14L23 15L24 15L24 17L25 17L25 16L26 16L26 18L27 18L27 20L28 20L28 18L27 18L27 16L26 16L26 14L29 14L29 13L28 13L28 12L29 12L29 11L28 11L28 10ZM30 10L30 11L31 11L31 10ZM32 10L32 11L33 11L33 10ZM0 11L0 14L2 14L2 13L1 13L1 11ZM6 12L6 13L7 13L7 12ZM11 13L11 14L10 14L10 15L9 15L9 17L10 17L10 15L11 15L11 14L12 14L12 15L13 15L13 13ZM6 14L6 15L7 15L7 16L6 16L6 17L7 17L7 16L8 16L8 14ZM17 14L17 15L14 15L14 16L13 16L13 18L11 18L11 19L10 19L10 20L11 20L11 21L12 21L12 22L13 22L13 23L15 23L15 24L17 24L17 23L15 23L15 22L18 22L18 24L19 24L19 25L18 25L18 27L21 27L21 28L22 28L22 25L21 25L21 23L23 23L23 25L24 25L24 24L25 24L25 23L26 23L26 24L27 24L27 25L28 25L28 24L29 24L29 23L30 23L30 22L29 22L29 21L28 21L28 22L27 22L27 21L24 21L24 22L21 22L21 20L20 20L20 22L18 22L18 18L20 18L20 19L23 19L23 20L26 20L26 19L25 19L25 18L23 18L23 16L21 16L21 17L22 17L22 18L20 18L20 17L19 17L19 16L20 16L20 15L19 15L19 16L17 16L17 15L18 15L18 14ZM28 15L28 16L29 16L29 15ZM15 16L15 19L17 19L17 18L16 18L16 16ZM36 16L36 17L37 17L37 16ZM3 18L3 19L4 19L4 18ZM13 18L13 19L12 19L12 21L13 21L13 22L14 22L14 21L16 21L16 20L14 20L14 18ZM31 19L31 20L30 20L30 21L31 21L31 22L32 22L32 24L33 24L33 25L34 25L34 24L33 24L33 22L32 22L32 21L34 21L34 22L35 22L35 21L34 21L34 20L33 20L33 19ZM2 20L2 21L4 21L4 20ZM13 20L13 21L14 21L14 20ZM31 20L31 21L32 21L32 20ZM40 20L40 21L41 21L41 20ZM6 22L6 23L7 23L7 24L6 24L6 25L7 25L7 26L6 26L6 27L7 27L7 26L8 26L8 27L9 27L9 28L10 28L10 27L9 27L9 26L8 26L8 25L7 25L7 24L9 24L9 23L7 23L7 22ZM19 23L19 24L20 24L20 23ZM11 24L11 26L12 26L12 24ZM35 24L35 25L36 25L36 24ZM0 27L0 28L1 28L1 27ZM15 27L15 28L14 28L14 29L15 29L15 30L17 30L17 29L16 29L16 28L17 28L17 27ZM6 28L6 29L7 29L7 28ZM0 29L0 33L1 33L1 29ZM35 30L35 31L37 31L37 30ZM3 31L3 32L4 32L4 31ZM18 31L18 32L19 32L19 31ZM38 31L38 32L37 32L37 36L39 36L39 34L38 34L38 32L40 32L40 31ZM6 32L6 33L7 33L7 32ZM25 32L25 34L24 34L24 35L23 35L23 36L24 36L24 35L25 35L25 34L26 34L26 32ZM22 33L22 34L23 34L23 33ZM30 33L30 35L31 35L31 34L32 34L32 33ZM33 33L33 36L36 36L36 33ZM34 34L34 35L35 35L35 34ZM9 37L9 38L10 38L10 37ZM21 37L21 38L24 38L24 37ZM37 38L37 39L38 39L38 38ZM28 39L28 40L30 40L30 39ZM0 0L0 7L7 7L7 0ZM1 1L1 6L6 6L6 1ZM2 2L2 5L5 5L5 2ZM34 0L34 7L41 7L41 0ZM35 1L35 6L40 6L40 1ZM36 2L36 5L39 5L39 2ZM0 34L0 41L7 41L7 34ZM1 35L1 40L6 40L6 35ZM2 36L2 39L5 39L5 36Z" fill="#000000"/></g></g></svg>
