<?xml version="1.0" encoding="UTF-8"?>
<svg xmlns="http://www.w3.org/2000/svg" version="1.1" width="200" height="200" viewBox="0 0 200 200"><rect x="0" y="0" width="200" height="200" fill="#ffffff"/><g transform="scale(4.878)"><g transform="translate(0,0)"><path fill-rule="evenodd" d="M8 0L8 3L9 3L9 5L8 5L8 9L7 9L7 8L6 8L6 9L7 9L7 10L4 10L4 9L5 9L5 8L2 8L2 9L3 9L3 11L4 11L4 15L5 15L5 14L6 14L6 15L8 15L8 17L7 17L7 16L5 16L5 17L7 17L7 18L6 18L6 19L5 19L5 18L4 18L4 19L1 19L1 18L3 18L3 16L2 16L2 15L1 15L1 13L3 13L3 12L1 12L1 13L0 13L0 17L1 17L1 18L0 18L0 20L1 20L1 21L0 21L0 22L1 22L1 24L2 24L2 23L3 23L3 24L5 24L5 23L7 23L7 24L6 24L6 25L5 25L5 26L4 26L4 25L3 25L3 27L0 27L0 33L1 33L1 30L2 30L2 31L3 31L3 30L4 30L4 32L2 32L2 33L4 33L4 32L5 32L5 33L7 33L7 32L8 32L8 31L9 31L9 32L10 32L10 33L8 33L8 34L9 34L9 35L10 35L10 36L8 36L8 39L9 39L9 41L10 41L10 39L11 39L11 41L12 41L12 39L11 39L11 38L14 38L14 37L15 37L15 38L16 38L16 39L17 39L17 38L16 38L16 37L18 37L18 39L19 39L19 41L21 41L21 38L22 38L22 39L24 39L24 41L31 41L31 40L33 40L33 41L34 41L34 40L33 40L33 39L35 39L35 40L36 40L36 39L37 39L37 40L40 40L40 38L41 38L41 37L39 37L39 36L41 36L41 35L40 35L40 34L41 34L41 33L39 33L39 32L33 32L33 31L32 31L32 30L33 30L33 29L34 29L34 28L33 28L33 29L32 29L32 30L31 30L31 29L30 29L30 28L29 28L29 26L32 26L32 27L31 27L31 28L32 28L32 27L34 27L34 26L37 26L37 27L35 27L35 29L36 29L36 30L34 30L34 31L37 31L37 29L36 29L36 28L38 28L38 26L39 26L39 28L40 28L40 26L41 26L41 23L39 23L39 24L40 24L40 26L39 26L39 25L34 25L34 22L35 22L35 23L36 23L36 24L37 24L37 21L38 21L38 22L39 22L39 20L36 20L36 19L35 19L35 17L36 17L36 18L38 18L38 19L40 19L40 18L41 18L41 16L40 16L40 18L38 18L38 17L39 17L39 16L37 16L37 15L35 15L35 17L34 17L34 16L32 16L32 17L30 17L30 16L29 16L29 15L31 15L31 12L29 12L29 13L28 13L28 12L26 12L26 11L23 11L23 10L25 10L25 9L24 9L24 7L25 7L25 8L26 8L26 7L27 7L27 6L28 6L28 8L27 8L27 9L26 9L26 10L27 10L27 11L28 11L28 10L27 10L27 9L31 9L31 10L29 10L29 11L31 11L31 10L32 10L32 13L33 13L33 14L32 14L32 15L34 15L34 13L35 13L35 11L36 11L36 12L38 12L38 11L39 11L39 13L40 13L40 14L38 14L38 13L36 13L36 14L38 14L38 15L40 15L40 14L41 14L41 12L40 12L40 10L41 10L41 8L38 8L38 9L40 9L40 10L37 10L37 9L36 9L36 8L32 8L32 7L33 7L33 6L32 6L32 7L31 7L31 5L33 5L33 4L30 4L30 5L29 5L29 6L28 6L28 5L27 5L27 4L24 4L24 3L25 3L25 2L24 2L24 1L25 1L25 0L24 0L24 1L22 1L22 2L21 2L21 4L23 4L23 6L22 6L22 5L21 5L21 6L20 6L20 5L19 5L19 4L18 4L18 5L17 5L17 4L16 4L16 2L17 2L17 1L19 1L19 2L18 2L18 3L19 3L19 2L20 2L20 0L17 0L17 1L15 1L15 2L12 2L12 1L11 1L11 0ZM26 0L26 1L27 1L27 2L26 2L26 3L28 3L28 4L29 4L29 3L32 3L32 2L30 2L30 1L33 1L33 0L29 0L29 1L27 1L27 0ZM10 1L10 3L12 3L12 2L11 2L11 1ZM22 2L22 3L24 3L24 2ZM13 3L13 4L12 4L12 6L11 6L11 5L9 5L9 8L10 8L10 9L8 9L8 11L5 11L5 12L7 12L7 13L6 13L6 14L7 14L7 13L9 13L9 11L10 11L10 13L12 13L12 12L13 12L13 11L14 11L14 12L15 12L15 14L14 14L14 16L13 16L13 14L11 14L11 17L8 17L8 18L7 18L7 19L6 19L6 20L5 20L5 19L4 19L4 21L1 21L1 22L4 22L4 23L5 23L5 22L7 22L7 23L8 23L8 24L7 24L7 25L6 25L6 26L5 26L5 31L6 31L6 32L7 32L7 31L6 31L6 30L7 30L7 29L6 29L6 28L7 28L7 27L9 27L9 28L8 28L8 29L9 29L9 28L10 28L10 31L11 31L11 30L12 30L12 29L11 29L11 27L9 27L9 25L8 25L8 24L10 24L10 25L11 25L11 26L12 26L12 28L13 28L13 31L14 31L14 32L15 32L15 34L16 34L16 35L15 35L15 36L16 36L16 35L17 35L17 36L18 36L18 37L19 37L19 36L20 36L20 37L22 37L22 38L23 38L23 37L24 37L24 39L25 39L25 40L26 40L26 39L25 39L25 38L26 38L26 37L27 37L27 38L28 38L28 39L27 39L27 40L30 40L30 39L33 39L33 38L36 38L36 37L33 37L33 38L30 38L30 37L32 37L32 36L29 36L29 37L27 37L27 34L29 34L29 33L27 33L27 28L28 28L28 27L27 27L27 28L25 28L25 27L26 27L26 26L25 26L25 25L24 25L24 26L22 26L22 24L21 24L21 23L20 23L20 21L22 21L22 22L23 22L23 23L24 23L24 24L26 24L26 25L27 25L27 26L28 26L28 25L29 25L29 24L30 24L30 25L31 25L31 24L33 24L33 23L32 23L32 22L31 22L31 21L33 21L33 22L34 22L34 21L35 21L35 22L36 22L36 21L35 21L35 19L34 19L34 18L33 18L33 17L32 17L32 18L31 18L31 19L30 19L30 17L29 17L29 16L28 16L28 15L29 15L29 14L30 14L30 13L29 13L29 14L27 14L27 13L26 13L26 14L24 14L24 15L23 15L23 13L22 13L22 15L21 15L21 14L20 14L20 13L21 13L21 12L22 12L22 10L23 10L23 9L22 9L22 8L21 8L21 9L20 9L20 10L19 10L19 9L18 9L18 8L20 8L20 6L19 6L19 5L18 5L18 6L17 6L17 7L16 7L16 6L15 6L15 7L14 7L14 5L15 5L15 3ZM13 4L13 5L14 5L14 4ZM26 5L26 6L25 6L25 7L26 7L26 6L27 6L27 5ZM10 6L10 7L11 7L11 6ZM12 6L12 7L13 7L13 8L12 8L12 9L11 9L11 11L13 11L13 10L14 10L14 9L15 9L15 10L16 10L16 11L18 11L18 12L17 12L17 13L18 13L18 14L17 14L17 15L16 15L16 14L15 14L15 15L16 15L16 16L14 16L14 17L15 17L15 20L17 20L17 21L16 21L16 23L15 23L15 22L13 22L13 21L14 21L14 20L12 20L12 19L14 19L14 18L12 18L12 19L11 19L11 18L9 18L9 19L7 19L7 20L6 20L6 21L7 21L7 22L8 22L8 23L9 23L9 22L10 22L10 24L11 24L11 22L13 22L13 23L14 23L14 24L12 24L12 25L13 25L13 27L14 27L14 29L15 29L15 30L14 30L14 31L15 31L15 32L16 32L16 33L17 33L17 35L18 35L18 34L20 34L20 32L19 32L19 33L18 33L18 31L17 31L17 30L16 30L16 28L17 28L17 25L16 25L16 26L15 26L15 24L16 24L16 23L17 23L17 21L18 21L18 23L19 23L19 21L20 21L20 20L21 20L21 18L19 18L19 19L16 19L16 18L18 18L18 14L19 14L19 12L20 12L20 11L19 11L19 10L17 10L17 9L16 9L16 8L14 8L14 7L13 7L13 6ZM18 6L18 7L19 7L19 6ZM21 6L21 7L22 7L22 6ZM23 6L23 7L24 7L24 6ZM29 6L29 8L30 8L30 6ZM13 8L13 9L12 9L12 10L13 10L13 9L14 9L14 8ZM31 8L31 9L32 9L32 10L33 10L33 11L34 11L34 9L32 9L32 8ZM0 9L0 11L1 11L1 9ZM21 9L21 10L22 10L22 9ZM35 9L35 10L36 10L36 9ZM24 12L24 13L25 13L25 12ZM33 12L33 13L34 13L34 12ZM8 14L8 15L9 15L9 14ZM26 14L26 15L27 15L27 14ZM22 15L22 21L23 21L23 22L24 22L24 23L25 23L25 22L27 22L27 23L28 23L28 24L27 24L27 25L28 25L28 24L29 24L29 23L31 23L31 22L27 22L27 21L29 21L29 19L28 19L28 18L27 18L27 19L28 19L28 20L26 20L26 19L25 19L25 18L26 18L26 17L27 17L27 16L26 16L26 17L25 17L25 16L23 16L23 15ZM19 16L19 17L21 17L21 16ZM36 16L36 17L37 17L37 16ZM23 17L23 18L24 18L24 17ZM32 18L32 20L33 20L33 21L34 21L34 20L33 20L33 18ZM19 19L19 20L18 20L18 21L19 21L19 20L20 20L20 19ZM8 20L8 22L9 22L9 21L10 21L10 20ZM23 20L23 21L24 21L24 22L25 22L25 21L26 21L26 20ZM30 20L30 21L31 21L31 20ZM40 20L40 21L41 21L41 20ZM19 24L19 26L21 26L21 25L20 25L20 24ZM7 25L7 26L6 26L6 27L7 27L7 26L8 26L8 25ZM32 25L32 26L34 26L34 25ZM24 26L24 27L25 27L25 26ZM15 27L15 28L16 28L16 27ZM18 27L18 28L19 28L19 29L18 29L18 30L19 30L19 29L20 29L20 31L21 31L21 27ZM1 28L1 29L2 29L2 30L3 30L3 29L4 29L4 28L3 28L3 29L2 29L2 28ZM22 28L22 30L23 30L23 28ZM24 29L24 30L25 30L25 32L26 32L26 30L25 30L25 29ZM28 29L28 30L29 30L29 31L28 31L28 32L31 32L31 30L30 30L30 29ZM39 29L39 30L38 30L38 31L40 31L40 32L41 32L41 31L40 31L40 30L41 30L41 29ZM15 30L15 31L16 31L16 30ZM22 31L22 37L23 37L23 36L24 36L24 37L25 37L25 36L26 36L26 35L25 35L25 36L24 36L24 35L23 35L23 34L27 34L27 33L23 33L23 32L24 32L24 31ZM11 32L11 33L10 33L10 34L11 34L11 33L13 33L13 36L12 36L12 35L11 35L11 37L13 37L13 36L14 36L14 33L13 33L13 32ZM30 33L30 35L31 35L31 34L32 34L32 33ZM33 33L33 36L36 36L36 33ZM38 33L38 35L37 35L37 36L39 36L39 33ZM34 34L34 35L35 35L35 34ZM37 38L37 39L38 39L38 38ZM13 39L13 40L14 40L14 41L18 41L18 40L14 40L14 39ZM22 40L22 41L23 41L23 40ZM0 0L0 7L7 7L7 0ZM1 1L1 6L6 6L6 1ZM2 2L2 5L5 5L5 2ZM34 0L34 7L41 7L41 0ZM35 1L35 6L40 6L40 1ZM36 2L36 5L39 5L39 2ZM0 34L0 41L7 41L7 34ZM1 35L1 40L6 40L6 35ZM2 36L2 39L5 39L5 36Z" fill="#000000"/></g></g></svg>
