<?xml version="1.0" encoding="UTF-8"?>
<svg xmlns="http://www.w3.org/2000/svg" version="1.1" width="200" height="200" viewBox="0 0 200 200"><rect x="0" y="0" width="200" height="200" fill="#ffffff"/><g transform="scale(4.878)"><g transform="translate(0,0)"><path fill-rule="evenodd" d="M8 0L8 3L9 3L9 4L10 4L10 5L11 5L11 4L12 4L12 7L11 7L11 6L10 6L10 9L11 9L11 11L10 11L10 10L8 10L8 9L9 9L9 5L8 5L8 9L7 9L7 8L6 8L6 9L7 9L7 10L5 10L5 8L2 8L2 9L0 9L0 11L1 11L1 12L2 12L2 11L5 11L5 12L3 12L3 13L7 13L7 14L6 14L6 15L5 15L5 14L4 14L4 15L3 15L3 14L2 14L2 13L1 13L1 15L3 15L3 16L6 16L6 17L5 17L5 20L4 20L4 17L2 17L2 16L1 16L1 17L0 17L0 18L1 18L1 17L2 17L2 19L0 19L0 20L1 20L1 21L0 21L0 22L3 22L3 21L5 21L5 27L7 27L7 28L5 28L5 29L4 29L4 28L3 28L3 27L2 27L2 25L0 25L0 26L1 26L1 27L0 27L0 28L1 28L1 29L0 29L0 33L1 33L1 30L6 30L6 31L7 31L7 32L6 32L6 33L7 33L7 32L8 32L8 34L9 34L9 33L10 33L10 34L13 34L13 33L16 33L16 34L15 34L15 35L16 35L16 36L15 36L15 37L16 37L16 36L17 36L17 35L19 35L19 36L18 36L18 37L19 37L19 36L20 36L20 35L21 35L21 37L20 37L20 38L21 38L21 41L23 41L23 39L24 39L24 41L25 41L25 40L27 40L27 41L28 41L28 40L27 40L27 39L28 39L28 38L26 38L26 37L29 37L29 36L31 36L31 35L32 35L32 37L30 37L30 38L29 38L29 39L30 39L30 40L29 40L29 41L30 41L30 40L31 40L31 41L32 41L32 40L33 40L33 41L34 41L34 40L33 40L33 39L32 39L32 37L33 37L33 38L34 38L34 39L35 39L35 40L36 40L36 39L37 39L37 40L40 40L40 38L41 38L41 36L40 36L40 34L41 34L41 33L39 33L39 32L41 32L41 31L40 31L40 30L41 30L41 28L40 28L40 26L41 26L41 23L39 23L39 22L37 22L37 20L38 20L38 21L39 21L39 20L38 20L38 19L37 19L37 20L36 20L36 19L35 19L35 17L36 17L36 18L38 18L38 17L39 17L39 16L38 16L38 15L37 15L37 14L38 14L38 13L36 13L36 15L37 15L37 16L38 16L38 17L36 17L36 16L35 16L35 17L34 17L34 16L32 16L32 17L31 17L31 16L29 16L29 15L28 15L28 16L29 16L29 17L31 17L31 18L30 18L30 19L31 19L31 20L30 20L30 21L31 21L31 22L29 22L29 23L31 23L31 24L28 24L28 22L26 22L26 21L24 21L24 19L25 19L25 20L26 20L26 19L25 19L25 18L27 18L27 21L29 21L29 19L28 19L28 18L27 18L27 17L25 17L25 15L26 15L26 14L29 14L29 13L30 13L30 15L31 15L31 12L32 12L32 13L33 13L33 14L32 14L32 15L34 15L34 13L35 13L35 9L36 9L36 10L37 10L37 11L36 11L36 12L38 12L38 11L39 11L39 12L41 12L41 11L40 11L40 10L41 10L41 8L38 8L38 9L40 9L40 10L37 10L37 9L36 9L36 8L33 8L33 6L32 6L32 7L31 7L31 6L30 6L30 7L31 7L31 8L28 8L28 7L29 7L29 4L28 4L28 5L27 5L27 4L25 4L25 2L24 2L24 3L23 3L23 0L21 0L21 1L22 1L22 2L19 2L19 3L21 3L21 4L22 4L22 5L23 5L23 6L22 6L22 7L21 7L21 6L20 6L20 7L21 7L21 8L20 8L20 9L21 9L21 8L22 8L22 7L23 7L23 8L24 8L24 7L25 7L25 8L26 8L26 9L25 9L25 10L24 10L24 9L23 9L23 10L22 10L22 11L21 11L21 10L20 10L20 13L21 13L21 14L20 14L20 15L21 15L21 16L19 16L19 17L20 17L20 19L21 19L21 20L18 20L18 19L19 19L19 18L17 18L17 17L18 17L18 15L19 15L19 12L18 12L18 11L17 11L17 10L18 10L18 9L19 9L19 6L18 6L18 7L17 7L17 6L16 6L16 5L13 5L13 4L14 4L14 3L15 3L15 4L16 4L16 3L17 3L17 0L13 0L13 1L16 1L16 3L15 3L15 2L13 2L13 4L12 4L12 3L11 3L11 2L12 2L12 1L11 1L11 0ZM24 0L24 1L25 1L25 0ZM26 0L26 1L27 1L27 2L26 2L26 3L31 3L31 2L30 2L30 1L33 1L33 0L29 0L29 1L27 1L27 0ZM9 1L9 3L10 3L10 4L11 4L11 3L10 3L10 2L11 2L11 1ZM32 2L32 4L30 4L30 5L32 5L32 4L33 4L33 2ZM23 4L23 5L25 5L25 7L26 7L26 6L27 6L27 7L28 7L28 6L27 6L27 5L25 5L25 4ZM13 6L13 7L12 7L12 8L16 8L16 9L13 9L13 11L14 11L14 12L12 12L12 11L11 11L11 14L12 14L12 15L11 15L11 16L10 16L10 15L9 15L9 14L10 14L10 13L9 13L9 12L10 12L10 11L9 11L9 12L8 12L8 11L6 11L6 12L8 12L8 13L9 13L9 14L7 14L7 15L6 15L6 16L10 16L10 17L6 17L6 18L7 18L7 19L6 19L6 20L5 20L5 21L6 21L6 22L9 22L9 23L8 23L8 24L7 24L7 23L6 23L6 24L7 24L7 25L6 25L6 26L7 26L7 27L8 27L8 28L7 28L7 29L6 29L6 30L7 30L7 31L9 31L9 32L10 32L10 29L9 29L9 27L10 27L10 28L11 28L11 27L12 27L12 28L13 28L13 29L14 29L14 30L15 30L15 31L17 31L17 32L16 32L16 33L17 33L17 34L18 34L18 33L17 33L17 32L19 32L19 35L20 35L20 33L21 33L21 34L22 34L22 36L23 36L23 37L21 37L21 38L22 38L22 39L23 39L23 38L24 38L24 39L26 39L26 38L24 38L24 36L25 36L25 35L27 35L27 36L29 36L29 33L26 33L26 31L27 31L27 28L30 28L30 29L28 29L28 30L30 30L30 31L28 31L28 32L30 32L30 33L31 33L31 32L30 32L30 31L31 31L31 30L32 30L32 31L33 31L33 32L36 32L36 31L37 31L37 32L39 32L39 26L40 26L40 24L39 24L39 23L37 23L37 24L36 24L36 23L35 23L35 22L36 22L36 21L35 21L35 19L34 19L34 18L33 18L33 17L32 17L32 18L31 18L31 19L33 19L33 20L34 20L34 21L32 21L32 20L31 20L31 21L32 21L32 22L31 22L31 23L32 23L32 24L31 24L31 25L30 25L30 26L29 26L29 25L28 25L28 24L26 24L26 22L25 22L25 24L26 24L26 29L25 29L25 26L24 26L24 25L23 25L23 22L24 22L24 21L23 21L23 17L24 17L24 15L25 15L25 13L24 13L24 12L25 12L25 11L27 11L27 10L30 10L30 11L28 11L28 13L29 13L29 12L30 12L30 11L32 11L32 10L33 10L33 11L34 11L34 9L32 9L32 8L31 8L31 9L28 9L28 8L27 8L27 9L26 9L26 10L25 10L25 11L24 11L24 10L23 10L23 12L21 12L21 13L24 13L24 15L23 15L23 14L21 14L21 15L22 15L22 16L21 16L21 18L22 18L22 20L21 20L21 21L18 21L18 20L16 20L16 19L17 19L17 18L16 18L16 17L15 17L15 18L14 18L14 17L13 17L13 16L14 16L14 15L13 15L13 14L14 14L14 13L16 13L16 12L15 12L15 11L16 11L16 9L17 9L17 7L16 7L16 6L15 6L15 7L14 7L14 6ZM23 6L23 7L24 7L24 6ZM2 9L2 10L3 10L3 9ZM31 9L31 10L32 10L32 9ZM14 10L14 11L15 11L15 10ZM26 12L26 13L27 13L27 12ZM33 12L33 13L34 13L34 12ZM17 13L17 14L18 14L18 13ZM40 13L40 14L39 14L39 15L40 15L40 14L41 14L41 13ZM15 14L15 15L16 15L16 14ZM12 15L12 16L11 16L11 17L10 17L10 18L11 18L11 20L10 20L10 19L9 19L9 18L8 18L8 19L7 19L7 20L6 20L6 21L8 21L8 20L10 20L10 21L9 21L9 22L11 22L11 23L9 23L9 24L10 24L10 25L8 25L8 27L9 27L9 26L10 26L10 27L11 27L11 26L12 26L12 27L14 27L14 28L15 28L15 27L16 27L16 26L17 26L17 28L18 28L18 29L19 29L19 30L17 30L17 31L20 31L20 30L21 30L21 31L22 31L22 32L21 32L21 33L22 33L22 34L23 34L23 36L24 36L24 34L25 34L25 30L24 30L24 28L23 28L23 29L22 29L22 26L23 26L23 27L24 27L24 26L23 26L23 25L22 25L22 23L20 23L20 22L18 22L18 21L16 21L16 20L14 20L14 22L13 22L13 23L12 23L12 21L13 21L13 19L14 19L14 18L13 18L13 17L12 17L12 16L13 16L13 15ZM40 16L40 18L39 18L39 19L40 19L40 18L41 18L41 16ZM12 18L12 19L13 19L13 18ZM15 18L15 19L16 19L16 18ZM2 20L2 21L3 21L3 20ZM11 20L11 21L12 21L12 20ZM40 20L40 21L41 21L41 20ZM15 21L15 22L14 22L14 23L13 23L13 25L14 25L14 27L15 27L15 25L14 25L14 24L16 24L16 23L17 23L17 22L16 22L16 21ZM21 21L21 22L22 22L22 21ZM34 21L34 22L35 22L35 21ZM32 22L32 23L33 23L33 24L32 24L32 25L31 25L31 26L32 26L32 25L34 25L34 26L33 26L33 27L32 27L32 28L33 28L33 29L32 29L32 30L33 30L33 29L34 29L34 28L33 28L33 27L34 27L34 26L35 26L35 25L36 25L36 26L37 26L37 27L35 27L35 29L36 29L36 30L37 30L37 31L38 31L38 29L36 29L36 28L38 28L38 26L39 26L39 25L36 25L36 24L35 24L35 25L34 25L34 23L33 23L33 22ZM0 23L0 24L2 24L2 23ZM3 24L3 26L4 26L4 24ZM11 24L11 25L12 25L12 24ZM17 24L17 25L18 25L18 27L20 27L20 28L19 28L19 29L21 29L21 30L22 30L22 31L23 31L23 30L22 30L22 29L21 29L21 27L20 27L20 26L19 26L19 25L21 25L21 24L19 24L19 25L18 25L18 24ZM27 26L27 27L29 27L29 26ZM8 29L8 30L9 30L9 29ZM11 29L11 31L13 31L13 30L12 30L12 29ZM15 29L15 30L16 30L16 29ZM30 29L30 30L31 30L31 29ZM34 30L34 31L35 31L35 30ZM2 31L2 33L4 33L4 32L3 32L3 31ZM11 32L11 33L13 33L13 32ZM23 32L23 33L24 33L24 32ZM33 33L33 36L36 36L36 33ZM37 33L37 35L38 35L38 36L37 36L37 37L38 37L38 36L39 36L39 35L38 35L38 34L39 34L39 33ZM27 34L27 35L28 35L28 34ZM30 34L30 35L31 35L31 34ZM34 34L34 35L35 35L35 34ZM9 35L9 36L8 36L8 39L9 39L9 41L10 41L10 40L11 40L11 41L12 41L12 40L13 40L13 39L14 39L14 40L15 40L15 38L14 38L14 37L13 37L13 36L14 36L14 35L11 35L11 36L10 36L10 35ZM9 36L9 37L10 37L10 38L11 38L11 40L12 40L12 38L11 38L11 37L10 37L10 36ZM34 37L34 38L36 38L36 37ZM16 38L16 39L17 39L17 40L16 40L16 41L17 41L17 40L18 40L18 41L19 41L19 40L20 40L20 39L18 39L18 38ZM37 38L37 39L38 39L38 38ZM31 39L31 40L32 40L32 39ZM0 0L0 7L7 7L7 0ZM1 1L1 6L6 6L6 1ZM2 2L2 5L5 5L5 2ZM34 0L34 7L41 7L41 0ZM35 1L35 6L40 6L40 1ZM36 2L36 5L39 5L39 2ZM0 34L0 41L7 41L7 34ZM1 35L1 40L6 40L6 35ZM2 36L2 39L5 39L5 36Z" fill="#000000"/></g></g></svg>
