<?xml version="1.0" encoding="UTF-8"?>
<svg xmlns="http://www.w3.org/2000/svg" version="1.1" width="200" height="200" viewBox="0 0 200 200"><rect x="0" y="0" width="200" height="200" fill="#ffffff"/><g transform="scale(4.878)"><g transform="translate(0,0)"><path fill-rule="evenodd" d="M8 0L8 3L10 3L10 4L9 4L9 5L8 5L8 9L9 9L9 8L10 8L10 10L8 10L8 11L7 11L7 10L6 10L6 9L7 9L7 8L6 8L6 9L5 9L5 8L2 8L2 9L1 9L1 10L0 10L0 11L1 11L1 10L2 10L2 9L3 9L3 10L4 10L4 11L3 11L3 12L4 12L4 13L3 13L3 15L2 15L2 13L1 13L1 12L0 12L0 15L2 15L2 16L1 16L1 17L0 17L0 18L1 18L1 19L0 19L0 20L1 20L1 21L0 21L0 23L1 23L1 24L0 24L0 26L1 26L1 27L2 27L2 30L5 30L5 31L3 31L3 32L2 32L2 33L4 33L4 32L6 32L6 33L7 33L7 32L8 32L8 34L9 34L9 35L14 35L14 34L15 34L15 36L14 36L14 37L13 37L13 36L12 36L12 38L14 38L14 37L15 37L15 39L12 39L12 41L16 41L16 40L17 40L17 38L18 38L18 41L22 41L22 40L20 40L20 39L19 39L19 38L21 38L21 39L22 39L22 37L18 37L18 36L17 36L17 35L19 35L19 34L20 34L20 36L22 36L22 34L23 34L23 37L24 37L24 36L25 36L25 37L29 37L29 36L32 36L32 37L30 37L30 38L29 38L29 39L31 39L31 40L28 40L28 38L27 38L27 39L26 39L26 40L28 40L28 41L31 41L31 40L33 40L33 41L34 41L34 40L33 40L33 39L35 39L35 40L36 40L36 39L37 39L37 40L40 40L40 38L41 38L41 37L40 37L40 34L41 34L41 33L40 33L40 32L41 32L41 31L40 31L40 30L41 30L41 29L40 29L40 28L41 28L41 27L40 27L40 26L41 26L41 23L39 23L39 24L40 24L40 26L39 26L39 25L36 25L36 24L37 24L37 22L38 22L38 21L39 21L39 20L38 20L38 17L39 17L39 16L38 16L38 15L36 15L36 14L37 14L37 13L36 13L36 14L35 14L35 15L36 15L36 16L35 16L35 17L34 17L34 16L33 16L33 17L30 17L30 16L29 16L29 15L28 15L28 16L29 16L29 17L30 17L30 19L31 19L31 20L30 20L30 21L31 21L31 22L30 22L30 24L29 24L29 25L28 25L28 26L27 26L27 25L26 25L26 24L24 24L24 22L25 22L25 23L27 23L27 24L28 24L28 22L29 22L29 21L28 21L28 20L26 20L26 18L27 18L27 19L28 19L28 18L27 18L27 16L26 16L26 15L27 15L27 14L29 14L29 13L30 13L30 15L31 15L31 12L32 12L32 13L33 13L33 14L32 14L32 15L34 15L34 13L35 13L35 11L36 11L36 12L38 12L38 11L39 11L39 12L41 12L41 11L40 11L40 10L41 10L41 8L38 8L38 9L40 9L40 10L37 10L37 9L36 9L36 8L32 8L32 7L33 7L33 5L32 5L32 4L33 4L33 2L30 2L30 1L33 1L33 0L29 0L29 1L27 1L27 0L26 0L26 1L27 1L27 2L26 2L26 3L32 3L32 4L30 4L30 5L29 5L29 4L28 4L28 5L27 5L27 4L26 4L26 5L25 5L25 0L23 0L23 1L22 1L22 0L20 0L20 1L21 1L21 3L20 3L20 2L19 2L19 0L18 0L18 1L16 1L16 0L14 0L14 1L16 1L16 2L19 2L19 3L18 3L18 4L19 4L19 3L20 3L20 5L21 5L21 4L22 4L22 7L21 7L21 6L20 6L20 7L19 7L19 5L18 5L18 7L17 7L17 5L15 5L15 6L14 6L14 2L13 2L13 6L12 6L12 5L11 5L11 6L10 6L10 7L9 7L9 5L10 5L10 4L12 4L12 0L11 0L11 1L10 1L10 2L9 2L9 0ZM23 1L23 2L24 2L24 1ZM15 3L15 4L17 4L17 3ZM23 3L23 4L24 4L24 3ZM23 5L23 7L24 7L24 6L25 6L25 7L26 7L26 8L24 8L24 10L22 10L22 8L19 8L19 7L18 7L18 8L19 8L19 9L20 9L20 10L22 10L22 11L24 11L24 12L23 12L23 14L22 14L22 15L21 15L21 17L22 17L22 18L23 18L23 17L26 17L26 16L23 16L23 15L24 15L24 12L26 12L26 13L25 13L25 14L26 14L26 13L27 13L27 11L25 11L25 10L29 10L29 12L28 12L28 13L29 13L29 12L30 12L30 10L31 10L31 11L34 11L34 9L32 9L32 8L31 8L31 7L32 7L32 5L31 5L31 7L30 7L30 6L29 6L29 5L28 5L28 6L27 6L27 5L26 5L26 6L25 6L25 5ZM11 6L11 8L14 8L14 10L13 10L13 9L12 9L12 13L13 13L13 15L12 15L12 14L11 14L11 13L9 13L9 18L7 18L7 17L8 17L8 16L7 16L7 15L5 15L5 16L4 16L4 15L3 15L3 16L4 16L4 17L6 17L6 18L4 18L4 19L3 19L3 18L2 18L2 19L1 19L1 20L2 20L2 21L3 21L3 22L1 22L1 23L3 23L3 22L4 22L4 23L5 23L5 24L3 24L3 28L4 28L4 27L5 27L5 29L6 29L6 30L7 30L7 31L6 31L6 32L7 32L7 31L8 31L8 30L7 30L7 29L6 29L6 28L9 28L9 27L10 27L10 29L9 29L9 30L11 30L11 32L9 32L9 33L11 33L11 34L14 34L14 32L15 32L15 31L14 31L14 32L13 32L13 33L12 33L12 31L13 31L13 30L12 30L12 26L13 26L13 28L14 28L14 30L15 30L15 28L16 28L16 27L18 27L18 28L20 28L20 30L21 30L21 29L23 29L23 30L22 30L22 31L20 31L20 32L21 32L21 33L20 33L20 34L22 34L22 33L23 33L23 32L22 32L22 31L24 31L24 32L27 32L27 31L24 31L24 30L25 30L25 29L24 29L24 28L23 28L23 27L24 27L24 26L26 26L26 25L24 25L24 24L23 24L23 25L22 25L22 26L21 26L21 24L20 24L20 23L19 23L19 22L21 22L21 23L23 23L23 22L21 22L21 21L22 21L22 19L16 19L16 18L18 18L18 15L20 15L20 14L21 14L21 13L22 13L22 12L21 12L21 11L18 11L18 12L14 12L14 10L15 10L15 8L16 8L16 9L17 9L17 10L18 10L18 9L17 9L17 8L16 8L16 6L15 6L15 7L14 7L14 6L13 6L13 7L12 7L12 6ZM26 6L26 7L27 7L27 6ZM28 6L28 7L29 7L29 6ZM27 8L27 9L29 9L29 10L30 10L30 9L31 9L31 10L32 10L32 9L31 9L31 8ZM35 9L35 10L36 10L36 11L37 11L37 10L36 10L36 9ZM5 10L5 11L4 11L4 12L7 12L7 11L6 11L6 10ZM10 10L10 11L9 11L9 12L11 12L11 10ZM13 12L13 13L14 13L14 12ZM18 12L18 13L17 13L17 15L16 15L16 13L15 13L15 15L13 15L13 17L12 17L12 15L10 15L10 16L11 16L11 17L10 17L10 18L11 18L11 17L12 17L12 19L13 19L13 17L15 17L15 18L16 18L16 16L17 16L17 15L18 15L18 14L19 14L19 12ZM20 12L20 13L21 13L21 12ZM33 12L33 13L34 13L34 12ZM4 13L4 14L8 14L8 13ZM38 13L38 14L39 14L39 15L40 15L40 14L41 14L41 13L40 13L40 14L39 14L39 13ZM15 15L15 16L16 16L16 15ZM6 16L6 17L7 17L7 16ZM19 16L19 18L20 18L20 16ZM22 16L22 17L23 17L23 16ZM36 16L36 17L35 17L35 19L34 19L34 18L33 18L33 19L32 19L32 18L31 18L31 19L32 19L32 20L31 20L31 21L32 21L32 22L31 22L31 24L30 24L30 25L32 25L32 26L29 26L29 28L31 28L31 29L28 29L28 30L32 30L32 31L33 31L33 32L39 32L39 26L38 26L38 28L36 28L36 27L37 27L37 26L36 26L36 25L35 25L35 24L36 24L36 23L33 23L33 22L34 22L34 21L35 21L35 22L36 22L36 21L35 21L35 19L36 19L36 20L37 20L37 21L38 21L38 20L37 20L37 18L36 18L36 17L38 17L38 16ZM40 16L40 18L39 18L39 19L40 19L40 18L41 18L41 16ZM6 18L6 19L7 19L7 18ZM24 18L24 19L25 19L25 18ZM14 19L14 20L15 20L15 22L14 22L14 23L13 23L13 24L14 24L14 25L13 25L13 26L15 26L15 24L14 24L14 23L18 23L18 24L16 24L16 25L17 25L17 26L18 26L18 27L21 27L21 28L22 28L22 27L21 27L21 26L19 26L19 25L18 25L18 24L19 24L19 23L18 23L18 22L19 22L19 21L20 21L20 20L18 20L18 21L17 21L17 20L16 20L16 19ZM3 20L3 21L4 21L4 22L5 22L5 23L7 23L7 24L5 24L5 26L6 26L6 27L8 27L8 26L6 26L6 25L9 25L9 26L10 26L10 25L12 25L12 22L9 22L9 21L12 21L12 20L8 20L8 22L6 22L6 21L7 21L7 20L6 20L6 21L5 21L5 20ZM23 20L23 21L26 21L26 22L28 22L28 21L26 21L26 20ZM32 20L32 21L34 21L34 20ZM40 20L40 21L41 21L41 20ZM16 21L16 22L17 22L17 21ZM9 23L9 25L10 25L10 23ZM1 24L1 25L2 25L2 24ZM32 24L32 25L34 25L34 26L33 26L33 27L32 27L32 28L33 28L33 29L32 29L32 30L33 30L33 29L34 29L34 28L33 28L33 27L34 27L34 26L35 26L35 27L36 27L36 26L35 26L35 25L34 25L34 24ZM0 28L0 33L1 33L1 28ZM26 28L26 29L27 29L27 28ZM35 28L35 29L36 29L36 31L38 31L38 29L36 29L36 28ZM16 29L16 33L15 33L15 34L16 34L16 35L17 35L17 34L19 34L19 33L18 33L18 32L19 32L19 30L18 30L18 32L17 32L17 29ZM34 30L34 31L35 31L35 30ZM28 31L28 33L27 33L27 34L26 34L26 35L25 35L25 36L26 36L26 35L27 35L27 36L29 36L29 35L27 35L27 34L28 34L28 33L29 33L29 32L30 32L30 33L31 33L31 34L30 34L30 35L31 35L31 34L32 34L32 33L31 33L31 32L30 32L30 31ZM16 33L16 34L17 34L17 33ZM24 33L24 34L25 34L25 33ZM33 33L33 36L36 36L36 33ZM37 33L37 34L39 34L39 33ZM34 34L34 35L35 35L35 34ZM37 35L37 36L39 36L39 35ZM8 36L8 39L9 39L9 38L11 38L11 37L9 37L9 36ZM15 36L15 37L16 37L16 36ZM33 37L33 38L31 38L31 39L33 39L33 38L36 38L36 37ZM23 38L23 39L24 39L24 38ZM37 38L37 39L38 39L38 38ZM15 39L15 40L16 40L16 39ZM9 40L9 41L11 41L11 40ZM23 40L23 41L24 41L24 40ZM0 0L0 7L7 7L7 0ZM1 1L1 6L6 6L6 1ZM2 2L2 5L5 5L5 2ZM34 0L34 7L41 7L41 0ZM35 1L35 6L40 6L40 1ZM36 2L36 5L39 5L39 2ZM0 34L0 41L7 41L7 34ZM1 35L1 40L6 40L6 35ZM2 36L2 39L5 39L5 36Z" fill="#000000"/></g></g></svg>
