<?xml version="1.0" encoding="UTF-8"?>
<svg xmlns="http://www.w3.org/2000/svg" version="1.1" width="200" height="200" viewBox="0 0 200 200"><rect x="0" y="0" width="200" height="200" fill="#ffffff"/><g transform="scale(4.878)"><g transform="translate(0,0)"><path fill-rule="evenodd" d="M8 0L8 3L9 3L9 0ZM10 0L10 5L8 5L8 9L9 9L9 8L10 8L10 9L12 9L12 7L13 7L13 6L14 6L14 7L15 7L15 5L16 5L16 8L15 8L15 9L16 9L16 10L15 10L15 11L14 11L14 12L12 12L12 13L13 13L13 14L10 14L10 13L11 13L11 11L12 11L12 10L10 10L10 12L9 12L9 14L8 14L8 15L7 15L7 14L6 14L6 15L5 15L5 14L4 14L4 13L5 13L5 12L6 12L6 13L8 13L8 11L9 11L9 10L6 10L6 11L5 11L5 10L4 10L4 11L2 11L2 12L0 12L0 14L2 14L2 12L4 12L4 13L3 13L3 15L2 15L2 16L0 16L0 17L1 17L1 18L0 18L0 22L1 22L1 20L3 20L3 21L2 21L2 22L4 22L4 21L5 21L5 20L3 20L3 19L4 19L4 18L3 18L3 16L5 16L5 18L6 18L6 19L9 19L9 20L6 20L6 21L7 21L7 22L6 22L6 23L7 23L7 24L3 24L3 25L0 25L0 26L1 26L1 28L0 28L0 33L1 33L1 29L2 29L2 27L4 27L4 28L3 28L3 29L4 29L4 30L5 30L5 32L4 32L4 31L3 31L3 32L4 32L4 33L5 33L5 32L6 32L6 33L7 33L7 32L6 32L6 31L7 31L7 30L8 30L8 29L7 29L7 28L5 28L5 27L4 27L4 25L7 25L7 26L6 26L6 27L7 27L7 26L8 26L8 27L10 27L10 28L9 28L9 29L10 29L10 30L9 30L9 31L8 31L8 32L9 32L9 33L8 33L8 34L9 34L9 33L11 33L11 31L12 31L12 34L14 34L14 35L12 35L12 36L13 36L13 37L12 37L12 38L11 38L11 34L10 34L10 35L9 35L9 36L8 36L8 39L9 39L9 41L11 41L11 40L12 40L12 39L13 39L13 41L14 41L14 40L16 40L16 41L18 41L18 40L19 40L19 41L20 41L20 40L21 40L21 41L22 41L22 40L23 40L23 41L24 41L24 40L25 40L25 38L23 38L23 36L22 36L22 38L21 38L21 37L19 37L19 39L18 39L18 38L17 38L17 36L16 36L16 34L17 34L17 35L18 35L18 36L20 36L20 33L21 33L21 34L22 34L22 35L24 35L24 34L25 34L25 36L24 36L24 37L25 37L25 36L26 36L26 37L29 37L29 36L28 36L28 34L27 34L27 31L26 31L26 33L25 33L25 31L24 31L24 30L25 30L25 29L27 29L27 30L29 30L29 31L28 31L28 33L31 33L31 34L30 34L30 35L32 35L32 37L33 37L33 38L34 38L34 39L35 39L35 40L36 40L36 39L37 39L37 37L39 37L39 38L38 38L38 39L39 39L39 40L40 40L40 38L41 38L41 37L40 37L40 36L37 36L37 33L39 33L39 34L38 34L38 35L40 35L40 34L41 34L41 33L39 33L39 32L41 32L41 31L40 31L40 30L41 30L41 29L40 29L40 28L41 28L41 27L40 27L40 26L41 26L41 23L40 23L40 26L39 26L39 24L37 24L37 25L34 25L34 24L33 24L33 25L30 25L30 24L29 24L29 25L28 25L28 24L27 24L27 23L29 23L29 22L27 22L27 21L25 21L25 20L28 20L28 21L29 21L29 20L31 20L31 21L30 21L30 23L31 23L31 22L32 22L32 21L34 21L34 22L36 22L36 21L37 21L37 20L38 20L38 21L39 21L39 20L38 20L38 17L39 17L39 16L37 16L37 15L38 15L38 14L37 14L37 13L36 13L36 14L35 14L35 17L34 17L34 16L33 16L33 15L34 15L34 14L33 14L33 13L34 13L34 12L33 12L33 13L32 13L32 14L31 14L31 12L32 12L32 11L31 11L31 12L29 12L29 11L30 11L30 10L33 10L33 11L34 11L34 10L37 10L37 11L35 11L35 12L38 12L38 11L40 11L40 10L41 10L41 8L38 8L38 9L40 9L40 10L37 10L37 9L36 9L36 8L33 8L33 9L30 9L30 8L29 8L29 4L28 4L28 5L26 5L26 4L27 4L27 3L29 3L29 1L27 1L27 0L24 0L24 1L23 1L23 2L22 2L22 0L21 0L21 1L19 1L19 0L18 0L18 1L19 1L19 2L18 2L18 3L19 3L19 2L20 2L20 4L19 4L19 5L18 5L18 4L15 4L15 1L17 1L17 0L14 0L14 3L11 3L11 2L12 2L12 1L13 1L13 0ZM31 0L31 1L30 1L30 2L31 2L31 3L30 3L30 4L31 4L31 5L32 5L32 4L33 4L33 2L31 2L31 1L32 1L32 0ZM16 2L16 3L17 3L17 2ZM21 2L21 5L20 5L20 6L19 6L19 8L18 8L18 6L17 6L17 8L16 8L16 9L18 9L18 10L16 10L16 11L15 11L15 12L14 12L14 13L15 13L15 14L13 14L13 15L12 15L12 16L11 16L11 15L10 15L10 14L9 14L9 15L8 15L8 16L7 16L7 15L6 15L6 16L7 16L7 17L6 17L6 18L8 18L8 17L9 17L9 18L10 18L10 20L9 20L9 21L8 21L8 22L10 22L10 24L7 24L7 25L8 25L8 26L9 26L9 25L10 25L10 24L11 24L11 25L12 25L12 26L11 26L11 28L12 28L12 29L11 29L11 30L13 30L13 28L12 28L12 26L13 26L13 25L14 25L14 24L12 24L12 23L11 23L11 22L13 22L13 21L15 21L15 20L16 20L16 22L14 22L14 23L16 23L16 24L15 24L15 25L16 25L16 24L17 24L17 25L22 25L22 26L23 26L23 27L25 27L25 28L24 28L24 29L25 29L25 28L27 28L27 27L25 27L25 26L28 26L28 29L29 29L29 30L30 30L30 31L29 31L29 32L30 32L30 31L31 31L31 33L32 33L32 32L35 32L35 31L34 31L34 30L35 30L35 29L38 29L38 30L37 30L37 32L39 32L39 28L40 28L40 27L39 27L39 26L38 26L38 28L35 28L35 29L34 29L34 28L33 28L33 29L32 29L32 27L34 27L34 25L33 25L33 26L28 26L28 25L27 25L27 24L25 24L25 23L24 23L24 24L23 24L23 25L22 25L22 24L19 24L19 22L18 22L18 21L17 21L17 20L19 20L19 19L17 19L17 17L18 17L18 18L19 18L19 15L17 15L17 16L16 16L16 15L15 15L15 14L16 14L16 13L15 13L15 12L17 12L17 13L18 13L18 14L20 14L20 13L21 13L21 14L22 14L22 12L24 12L24 13L23 13L23 14L24 14L24 15L23 15L23 16L24 16L24 17L22 17L22 16L21 16L21 15L20 15L20 16L21 16L21 17L22 17L22 18L23 18L23 19L24 19L24 20L22 20L22 19L21 19L21 18L20 18L20 22L22 22L22 21L23 21L23 22L25 22L25 21L24 21L24 20L25 20L25 18L24 18L24 17L25 17L25 16L26 16L26 15L27 15L27 12L28 12L28 11L29 11L29 10L30 10L30 9L26 9L26 5L25 5L25 4L26 4L26 3L27 3L27 2L26 2L26 3L25 3L25 2L23 2L23 3L25 3L25 4L23 4L23 5L22 5L22 2ZM31 3L31 4L32 4L32 3ZM11 4L11 5L10 5L10 6L9 6L9 7L10 7L10 6L11 6L11 7L12 7L12 6L13 6L13 5L12 5L12 4ZM11 5L11 6L12 6L12 5ZM24 5L24 7L25 7L25 5ZM20 6L20 8L19 8L19 9L20 9L20 12L18 12L18 13L20 13L20 12L22 12L22 11L24 11L24 10L25 10L25 8L24 8L24 9L22 9L22 10L21 10L21 9L20 9L20 8L21 8L21 6ZM22 6L22 8L23 8L23 6ZM27 6L27 7L28 7L28 6ZM30 6L30 7L31 7L31 8L32 8L32 7L33 7L33 6L32 6L32 7L31 7L31 6ZM2 8L2 9L1 9L1 10L0 10L0 11L1 11L1 10L2 10L2 9L5 9L5 8ZM6 8L6 9L7 9L7 8ZM13 8L13 9L14 9L14 8ZM18 10L18 11L19 11L19 10ZM26 10L26 11L25 11L25 13L24 13L24 14L25 14L25 13L26 13L26 11L28 11L28 10ZM6 11L6 12L7 12L7 11ZM39 12L39 14L41 14L41 13L40 13L40 12ZM28 13L28 14L30 14L30 13ZM32 14L32 15L33 15L33 14ZM14 15L14 18L11 18L11 17L10 17L10 18L11 18L11 20L10 20L10 21L13 21L13 20L12 20L12 19L14 19L14 20L15 20L15 19L16 19L16 16L15 16L15 15ZM24 15L24 16L25 16L25 15ZM28 15L28 17L26 17L26 19L27 19L27 18L29 18L29 16L30 16L30 17L31 17L31 15ZM12 16L12 17L13 17L13 16ZM32 16L32 17L33 17L33 16ZM36 16L36 17L35 17L35 19L34 19L34 18L33 18L33 19L32 19L32 18L30 18L30 19L31 19L31 20L34 20L34 21L36 21L36 20L37 20L37 18L36 18L36 17L37 17L37 16ZM40 16L40 18L39 18L39 19L40 19L40 18L41 18L41 16ZM1 18L1 19L3 19L3 18ZM28 19L28 20L29 20L29 19ZM35 19L35 20L36 20L36 19ZM21 20L21 21L22 21L22 20ZM40 20L40 21L41 21L41 20ZM16 22L16 23L17 23L17 24L18 24L18 22ZM37 22L37 23L38 23L38 22ZM35 23L35 24L36 24L36 23ZM15 26L15 29L14 29L14 31L17 31L17 32L16 32L16 33L15 33L15 32L14 32L14 33L15 33L15 34L16 34L16 33L20 33L20 32L19 32L19 31L21 31L21 33L22 33L22 32L23 32L23 31L22 31L22 30L18 30L18 29L21 29L21 28L22 28L22 29L23 29L23 28L22 28L22 27L19 27L19 26ZM36 26L36 27L37 27L37 26ZM17 27L17 28L19 28L19 27ZM29 28L29 29L30 29L30 30L31 30L31 29L30 29L30 28ZM6 29L6 30L7 30L7 29ZM16 29L16 30L17 30L17 29ZM33 29L33 30L32 30L32 31L33 31L33 30L34 30L34 29ZM23 33L23 34L24 34L24 33ZM33 33L33 36L36 36L36 33ZM18 34L18 35L19 35L19 34ZM26 34L26 35L27 35L27 34ZM34 34L34 35L35 35L35 34ZM14 36L14 37L15 37L15 38L16 38L16 40L18 40L18 39L17 39L17 38L16 38L16 36ZM30 36L30 37L31 37L31 36ZM9 37L9 38L10 38L10 39L11 39L11 38L10 38L10 37ZM34 37L34 38L36 38L36 37ZM13 38L13 39L14 39L14 38ZM22 38L22 39L23 39L23 38ZM27 38L27 39L28 39L28 38ZM29 38L29 39L30 39L30 40L26 40L26 41L31 41L31 40L33 40L33 41L34 41L34 40L33 40L33 39L31 39L31 38ZM0 0L0 7L7 7L7 0ZM1 1L1 6L6 6L6 1ZM2 2L2 5L5 5L5 2ZM34 0L34 7L41 7L41 0ZM35 1L35 6L40 6L40 1ZM36 2L36 5L39 5L39 2ZM0 34L0 41L7 41L7 34ZM1 35L1 40L6 40L6 35ZM2 36L2 39L5 39L5 36Z" fill="#000000"/></g></g></svg>
