<?xml version="1.0" encoding="UTF-8"?>
<svg xmlns="http://www.w3.org/2000/svg" version="1.1" width="200" height="200" viewBox="0 0 200 200"><rect x="0" y="0" width="200" height="200" fill="#ffffff"/><g transform="scale(4.878)"><g transform="translate(0,0)"><path fill-rule="evenodd" d="M8 0L8 3L10 3L10 4L11 4L11 6L10 6L10 9L11 9L11 10L13 10L13 6L14 6L14 7L15 7L15 6L16 6L16 7L17 7L17 9L16 9L16 8L14 8L14 9L16 9L16 10L14 10L14 11L16 11L16 12L14 12L14 13L13 13L13 12L12 12L12 13L10 13L10 14L12 14L12 17L11 17L11 18L12 18L12 17L13 17L13 18L14 18L14 20L13 20L13 19L12 19L12 20L13 20L13 21L14 21L14 20L15 20L15 19L16 19L16 20L17 20L17 21L18 21L18 20L19 20L19 24L18 24L18 22L15 22L15 23L14 23L14 24L15 24L15 25L16 25L16 26L19 26L19 27L20 27L20 26L19 26L19 25L21 25L21 24L22 24L22 23L21 23L21 22L22 22L22 21L21 21L21 22L20 22L20 19L21 19L21 20L22 20L22 19L21 19L21 18L20 18L20 19L19 19L19 18L18 18L18 19L17 19L17 18L16 18L16 17L15 17L15 15L14 15L14 14L15 14L15 13L16 13L16 14L17 14L17 16L18 16L18 17L21 17L21 16L22 16L22 11L23 11L23 10L24 10L24 9L23 9L23 8L26 8L26 10L25 10L25 12L26 12L26 13L25 13L25 15L23 15L23 17L22 17L22 18L23 18L23 17L24 17L24 18L25 18L25 20L24 20L24 21L23 21L23 24L24 24L24 25L25 25L25 24L26 24L26 25L28 25L28 26L24 26L24 30L23 30L23 27L22 27L22 26L23 26L23 25L22 25L22 26L21 26L21 27L22 27L22 29L21 29L21 30L20 30L20 29L18 29L18 30L17 30L17 27L16 27L16 32L15 32L15 33L12 33L12 32L13 32L13 31L14 31L14 28L13 28L13 27L14 27L14 26L13 26L13 24L12 24L12 23L13 23L13 22L10 22L10 21L11 21L11 20L10 20L10 21L9 21L9 20L8 20L8 21L7 21L7 20L6 20L6 19L7 19L7 18L9 18L9 16L8 16L8 15L9 15L9 14L8 14L8 13L9 13L9 12L11 12L11 11L9 11L9 5L8 5L8 10L6 10L6 11L4 11L4 10L5 10L5 8L2 8L2 10L3 10L3 11L2 11L2 12L1 12L1 13L2 13L2 14L0 14L0 15L1 15L1 16L0 16L0 18L2 18L2 19L4 19L4 21L3 21L3 20L1 20L1 19L0 19L0 21L2 21L2 23L3 23L3 22L4 22L4 26L3 26L3 25L1 25L1 24L0 24L0 26L1 26L1 27L0 27L0 33L1 33L1 30L2 30L2 33L3 33L3 32L4 32L4 33L5 33L5 32L6 32L6 33L7 33L7 32L6 32L6 31L7 31L7 30L6 30L6 29L7 29L7 28L6 28L6 27L8 27L8 26L11 26L11 27L10 27L10 29L12 29L12 30L10 30L10 31L12 31L12 32L9 32L9 30L8 30L8 34L10 34L10 35L9 35L9 36L8 36L8 39L9 39L9 40L11 40L11 41L12 41L12 40L13 40L13 41L14 41L14 40L16 40L16 39L13 39L13 38L14 38L14 36L15 36L15 35L17 35L17 38L18 38L18 39L17 39L17 41L20 41L20 39L19 39L19 38L18 38L18 36L20 36L20 37L21 37L21 39L22 39L22 40L21 40L21 41L22 41L22 40L23 40L23 37L24 37L24 39L25 39L25 38L26 38L26 37L25 37L25 36L23 36L23 35L24 35L24 34L23 34L23 35L21 35L21 34L22 34L22 33L23 33L23 32L21 32L21 30L22 30L22 31L26 31L26 30L25 30L25 29L27 29L27 30L29 30L29 31L28 31L28 32L29 32L29 33L28 33L28 34L27 34L27 32L24 32L24 33L25 33L25 35L28 35L28 36L27 36L27 37L28 37L28 38L27 38L27 41L31 41L31 40L33 40L33 41L34 41L34 40L33 40L33 39L32 39L32 37L33 37L33 38L34 38L34 39L35 39L35 40L36 40L36 39L38 39L38 38L37 38L37 37L39 37L39 40L40 40L40 38L41 38L41 37L40 37L40 36L41 36L41 35L40 35L40 34L41 34L41 33L39 33L39 32L37 32L37 31L38 31L38 30L37 30L37 29L35 29L35 28L38 28L38 26L39 26L39 27L40 27L40 26L41 26L41 23L40 23L40 26L39 26L39 24L37 24L37 25L34 25L34 24L33 24L33 21L34 21L34 22L36 22L36 21L37 21L37 22L38 22L38 23L39 23L39 22L38 22L38 21L39 21L39 20L36 20L36 19L35 19L35 17L36 17L36 18L38 18L38 19L40 19L40 18L41 18L41 16L40 16L40 18L38 18L38 17L39 17L39 16L38 16L38 15L39 15L39 14L41 14L41 13L40 13L40 10L41 10L41 8L38 8L38 9L40 9L40 10L37 10L37 9L36 9L36 8L32 8L32 7L33 7L33 6L32 6L32 7L31 7L31 5L33 5L33 4L31 4L31 3L30 3L30 4L31 4L31 5L30 5L30 8L26 8L26 7L27 7L27 6L28 6L28 7L29 7L29 4L28 4L28 5L27 5L27 6L26 6L26 4L27 4L27 3L29 3L29 1L27 1L27 0L21 0L21 1L20 1L20 2L19 2L19 5L17 5L17 4L16 4L16 3L15 3L15 2L16 2L16 1L18 1L18 0L16 0L16 1L15 1L15 0ZM30 0L30 2L31 2L31 1L33 1L33 0ZM9 1L9 2L10 2L10 1ZM13 1L13 2L15 2L15 1ZM21 1L21 2L20 2L20 5L19 5L19 7L20 7L20 8L19 8L19 10L20 10L20 11L22 11L22 10L20 10L20 9L21 9L21 8L22 8L22 6L23 6L23 7L24 7L24 5L25 5L25 4L26 4L26 3L27 3L27 2L26 2L26 3L25 3L25 4L24 4L24 3L23 3L23 1ZM24 1L24 2L25 2L25 1ZM17 2L17 3L18 3L18 2ZM11 3L11 4L12 4L12 3ZM14 3L14 4L15 4L15 5L14 5L14 6L15 6L15 5L16 5L16 4L15 4L15 3ZM22 3L22 4L21 4L21 5L24 5L24 4L23 4L23 3ZM11 6L11 7L12 7L12 6ZM17 6L17 7L18 7L18 6ZM20 6L20 7L21 7L21 6ZM25 6L25 7L26 7L26 6ZM6 8L6 9L7 9L7 8ZM31 8L31 9L27 9L27 10L29 10L29 11L27 11L27 12L31 12L31 14L32 14L32 15L33 15L33 16L34 16L34 17L35 17L35 14L36 14L36 13L38 13L38 14L37 14L37 15L38 15L38 14L39 14L39 11L38 11L38 12L35 12L35 10L36 10L36 9L35 9L35 10L34 10L34 9L32 9L32 8ZM3 9L3 10L4 10L4 9ZM31 9L31 10L30 10L30 11L31 11L31 12L32 12L32 11L34 11L34 10L32 10L32 9ZM31 10L31 11L32 11L32 10ZM6 11L6 12L3 12L3 14L4 14L4 15L3 15L3 16L1 16L1 17L2 17L2 18L3 18L3 16L4 16L4 18L5 18L5 19L6 19L6 18L7 18L7 17L5 17L5 16L7 16L7 15L8 15L8 14L7 14L7 13L8 13L8 12L9 12L9 11ZM17 11L17 12L16 12L16 13L17 13L17 14L18 14L18 16L20 16L20 14L18 14L18 12L19 12L19 13L20 13L20 12L19 12L19 11ZM6 12L6 13L4 13L4 14L5 14L5 15L7 15L7 14L6 14L6 13L7 13L7 12ZM23 12L23 14L24 14L24 12ZM33 12L33 13L32 13L32 14L33 14L33 15L34 15L34 14L33 14L33 13L34 13L34 12ZM28 13L28 14L30 14L30 13ZM26 14L26 15L25 15L25 16L24 16L24 17L25 17L25 16L26 16L26 15L27 15L27 14ZM13 15L13 16L14 16L14 15ZM28 15L28 17L26 17L26 20L25 20L25 23L27 23L27 22L28 22L28 21L33 21L33 20L34 20L34 21L36 21L36 20L35 20L35 19L34 19L34 18L33 18L33 17L32 17L32 18L31 18L31 17L30 17L30 19L31 19L31 20L29 20L29 19L28 19L28 21L27 21L27 22L26 22L26 20L27 20L27 18L29 18L29 16L30 16L30 15ZM36 16L36 17L38 17L38 16ZM14 17L14 18L15 18L15 17ZM32 18L32 20L33 20L33 18ZM5 20L5 21L6 21L6 22L5 22L5 23L6 23L6 24L7 24L7 25L5 25L5 26L4 26L4 27L3 27L3 26L2 26L2 27L1 27L1 28L2 28L2 27L3 27L3 29L2 29L2 30L3 30L3 31L6 31L6 30L5 30L5 28L4 28L4 27L5 27L5 26L8 26L8 25L9 25L9 24L7 24L7 23L6 23L6 22L7 22L7 21L6 21L6 20ZM40 20L40 21L41 21L41 20ZM8 22L8 23L10 23L10 22ZM29 22L29 24L28 24L28 25L29 25L29 24L30 24L30 25L33 25L33 26L28 26L28 29L29 29L29 30L30 30L30 29L31 29L31 31L29 31L29 32L31 32L31 33L29 33L29 34L28 34L28 35L29 35L29 36L28 36L28 37L29 37L29 39L28 39L28 40L31 40L31 37L32 37L32 35L30 35L30 34L31 34L31 33L32 33L32 32L35 32L35 31L34 31L34 30L35 30L35 29L34 29L34 28L33 28L33 27L34 27L34 25L33 25L33 24L30 24L30 22ZM31 22L31 23L32 23L32 22ZM35 23L35 24L36 24L36 23ZM11 24L11 25L12 25L12 24ZM16 24L16 25L18 25L18 24ZM12 26L12 27L13 27L13 26ZM35 26L35 27L37 27L37 26ZM25 27L25 28L27 28L27 27ZM8 28L8 29L9 29L9 28ZM29 28L29 29L30 29L30 28ZM31 28L31 29L33 29L33 30L32 30L32 31L33 31L33 30L34 30L34 29L33 29L33 28ZM39 28L39 31L40 31L40 30L41 30L41 29L40 29L40 28ZM3 29L3 30L4 30L4 29ZM36 30L36 31L37 31L37 30ZM17 31L17 32L16 32L16 33L15 33L15 34L14 34L14 35L15 35L15 34L17 34L17 35L18 35L18 34L17 34L17 33L18 33L18 32L19 32L19 34L20 34L20 33L21 33L21 32L20 32L20 31ZM10 33L10 34L11 34L11 35L10 35L10 36L9 36L9 38L10 38L10 37L11 37L11 38L13 38L13 34L12 34L12 33ZM33 33L33 36L36 36L36 33ZM37 33L37 34L38 34L38 35L37 35L37 36L39 36L39 33ZM34 34L34 35L35 35L35 34ZM20 35L20 36L21 36L21 35ZM30 36L30 37L31 37L31 36ZM15 37L15 38L16 38L16 37ZM34 37L34 38L36 38L36 37ZM11 39L11 40L12 40L12 39ZM24 40L24 41L25 41L25 40ZM0 0L0 7L7 7L7 0ZM1 1L1 6L6 6L6 1ZM2 2L2 5L5 5L5 2ZM34 0L34 7L41 7L41 0ZM35 1L35 6L40 6L40 1ZM36 2L36 5L39 5L39 2ZM0 34L0 41L7 41L7 34ZM1 35L1 40L6 40L6 35ZM2 36L2 39L5 39L5 36Z" fill="#000000"/></g></g></svg>
