<?xml version="1.0" encoding="UTF-8"?>
<svg xmlns="http://www.w3.org/2000/svg" version="1.1" width="200" height="200" viewBox="0 0 200 200"><rect x="0" y="0" width="200" height="200" fill="#ffffff"/><g transform="scale(4.878)"><g transform="translate(0,0)"><path fill-rule="evenodd" d="M8 0L8 3L9 3L9 4L10 4L10 5L8 5L8 10L9 10L9 11L7 11L7 10L6 10L6 9L7 9L7 8L6 8L6 9L5 9L5 8L2 8L2 9L1 9L1 10L0 10L0 12L1 12L1 13L2 13L2 11L3 11L3 13L4 13L4 11L3 11L3 9L5 9L5 11L7 11L7 12L5 12L5 13L7 13L7 14L6 14L6 15L5 15L5 14L3 14L3 15L2 15L2 16L1 16L1 17L2 17L2 18L0 18L0 22L1 22L1 25L0 25L0 26L1 26L1 28L0 28L0 33L1 33L1 29L2 29L2 28L3 28L3 27L4 27L4 29L5 29L5 27L4 27L4 26L1 26L1 25L2 25L2 24L3 24L3 25L4 25L4 24L3 24L3 23L5 23L5 26L6 26L6 27L7 27L7 28L6 28L6 29L7 29L7 30L6 30L6 31L5 31L5 30L3 30L3 32L2 32L2 33L8 33L8 34L9 34L9 36L8 36L8 39L9 39L9 38L10 38L10 40L9 40L9 41L11 41L11 40L12 40L12 41L13 41L13 39L11 39L11 38L10 38L10 37L14 37L14 40L15 40L15 41L17 41L17 40L18 40L18 38L19 38L19 39L20 39L20 40L22 40L22 39L20 39L20 38L22 38L22 37L23 37L23 38L24 38L24 36L27 36L27 37L26 37L26 39L27 39L27 40L28 40L28 41L32 41L32 40L33 40L33 41L34 41L34 40L33 40L33 39L32 39L32 40L31 40L31 37L29 37L29 36L32 36L32 37L33 37L33 38L34 38L34 39L35 39L35 40L36 40L36 39L37 39L37 40L40 40L40 38L41 38L41 37L40 37L40 36L37 36L37 34L38 34L38 33L39 33L39 35L40 35L40 34L41 34L41 33L39 33L39 32L40 32L40 30L41 30L41 29L40 29L40 26L41 26L41 23L39 23L39 24L40 24L40 26L39 26L39 25L36 25L36 24L37 24L37 21L38 21L38 22L39 22L39 20L36 20L36 19L35 19L35 17L36 17L36 18L38 18L38 17L39 17L39 18L41 18L41 16L40 16L40 17L39 17L39 16L37 16L37 15L40 15L40 14L41 14L41 13L40 13L40 14L37 14L37 13L36 13L36 14L35 14L35 15L36 15L36 16L35 16L35 17L34 17L34 16L32 16L32 17L31 17L31 16L29 16L29 15L28 15L28 16L29 16L29 17L31 17L31 18L30 18L30 19L31 19L31 18L32 18L32 19L33 19L33 18L34 18L34 19L35 19L35 21L34 21L34 20L32 20L32 21L31 21L31 20L30 20L30 21L31 21L31 22L30 22L30 23L31 23L31 24L29 24L29 25L28 25L28 24L27 24L27 23L28 23L28 22L27 22L27 23L26 23L26 22L25 22L25 24L24 24L24 22L23 22L23 26L20 26L20 25L22 25L22 24L20 24L20 25L19 25L19 26L20 26L20 28L21 28L21 27L22 27L22 28L24 28L24 29L23 29L23 30L24 30L24 29L27 29L27 31L26 31L26 30L25 30L25 31L24 31L24 32L23 32L23 31L22 31L22 30L21 30L21 29L20 29L20 30L19 30L19 31L20 31L20 32L18 32L18 31L17 31L17 30L18 30L18 27L17 27L17 30L16 30L16 31L15 31L15 29L14 29L14 27L15 27L15 26L14 26L14 27L13 27L13 25L14 25L14 24L13 24L13 23L15 23L15 24L16 24L16 26L18 26L18 24L19 24L19 23L22 23L22 21L21 21L21 22L19 22L19 21L20 21L20 19L22 19L22 18L23 18L23 19L24 19L24 20L25 20L25 19L26 19L26 18L27 18L27 19L28 19L28 20L27 20L27 21L29 21L29 18L27 18L27 15L25 15L25 14L26 14L26 13L27 13L27 14L29 14L29 13L30 13L30 15L31 15L31 12L32 12L32 13L33 13L33 14L32 14L32 15L34 15L34 13L35 13L35 12L38 12L38 11L39 11L39 12L41 12L41 11L40 11L40 10L41 10L41 8L38 8L38 9L40 9L40 10L37 10L37 9L36 9L36 8L32 8L32 9L30 9L30 8L28 8L28 7L29 7L29 6L28 6L28 5L29 5L29 4L28 4L28 5L27 5L27 4L25 4L25 3L24 3L24 2L25 2L25 1L24 1L24 0L23 0L23 1L24 1L24 2L23 2L23 4L22 4L22 0L21 0L21 1L18 1L18 0L17 0L17 2L16 2L16 0L15 0L15 2L13 2L13 1L14 1L14 0L13 0L13 1L11 1L11 0ZM26 0L26 1L27 1L27 2L26 2L26 3L32 3L32 4L30 4L30 5L32 5L32 7L33 7L33 5L32 5L32 4L33 4L33 3L32 3L32 2L30 2L30 0L29 0L29 1L27 1L27 0ZM31 0L31 1L32 1L32 0ZM9 2L9 3L12 3L12 4L11 4L11 5L10 5L10 6L9 6L9 7L10 7L10 6L11 6L11 9L10 9L10 10L11 10L11 11L9 11L9 12L11 12L11 11L12 11L12 10L15 10L15 9L16 9L16 10L17 10L17 12L16 12L16 11L14 11L14 12L13 12L13 14L14 14L14 15L16 15L16 16L17 16L17 17L19 17L19 18L20 18L20 17L19 17L19 16L22 16L22 17L23 17L23 18L24 18L24 19L25 19L25 18L26 18L26 16L25 16L25 15L24 15L24 16L25 16L25 18L24 18L24 17L23 17L23 15L22 15L22 14L24 14L24 13L22 13L22 12L23 12L23 10L22 10L22 12L21 12L21 13L20 13L20 12L19 12L19 11L21 11L21 9L24 9L24 8L26 8L26 5L25 5L25 4L24 4L24 5L22 5L22 4L21 4L21 5L22 5L22 6L21 6L21 9L20 9L20 10L19 10L19 9L18 9L18 3L16 3L16 2L15 2L15 3L12 3L12 2ZM19 2L19 3L21 3L21 2ZM14 4L14 5L13 5L13 6L12 6L12 5L11 5L11 6L12 6L12 7L13 7L13 6L14 6L14 7L15 7L15 8L13 8L13 9L15 9L15 8L17 8L17 6L16 6L16 7L15 7L15 6L14 6L14 5L15 5L15 4ZM16 4L16 5L17 5L17 4ZM19 5L19 8L20 8L20 5ZM24 5L24 7L23 7L23 6L22 6L22 7L23 7L23 8L24 8L24 7L25 7L25 5ZM27 6L27 7L28 7L28 6ZM30 6L30 7L31 7L31 6ZM11 9L11 10L12 10L12 9ZM17 9L17 10L18 10L18 11L19 11L19 10L18 10L18 9ZM26 9L26 10L24 10L24 11L25 11L25 13L26 13L26 12L27 12L27 10L29 10L29 12L28 12L28 13L29 13L29 12L30 12L30 10L29 10L29 9ZM32 9L32 10L31 10L31 11L34 11L34 9ZM35 9L35 11L37 11L37 10L36 10L36 9ZM7 12L7 13L8 13L8 14L7 14L7 15L6 15L6 16L7 16L7 17L6 17L6 18L7 18L7 19L6 19L6 20L7 20L7 19L8 19L8 20L11 20L11 19L13 19L13 20L12 20L12 22L9 22L9 21L6 21L6 22L9 22L9 23L10 23L10 24L11 24L11 25L13 25L13 24L11 24L11 23L12 23L12 22L14 22L14 21L15 21L15 22L17 22L17 20L18 20L18 21L19 21L19 19L18 19L18 18L17 18L17 19L16 19L16 17L15 17L15 19L14 19L14 18L13 18L13 17L14 17L14 16L13 16L13 15L11 15L11 16L10 16L10 15L9 15L9 13L8 13L8 12ZM17 12L17 13L14 13L14 14L18 14L18 15L19 15L19 14L20 14L20 13L19 13L19 14L18 14L18 12ZM33 12L33 13L34 13L34 12ZM10 13L10 14L11 14L11 13ZM21 13L21 14L22 14L22 13ZM0 14L0 15L1 15L1 14ZM3 15L3 16L2 16L2 17L3 17L3 18L2 18L2 19L1 19L1 20L2 20L2 21L3 21L3 22L4 22L4 21L5 21L5 20L4 20L4 21L3 21L3 19L5 19L5 15ZM8 16L8 17L9 17L9 18L8 18L8 19L11 19L11 17L10 17L10 16ZM36 16L36 17L37 17L37 16ZM32 17L32 18L33 18L33 17ZM15 20L15 21L16 21L16 20ZM40 20L40 21L41 21L41 20ZM32 21L32 22L31 22L31 23L32 23L32 24L31 24L31 25L30 25L30 26L29 26L29 27L28 27L28 28L31 28L31 29L28 29L28 30L29 30L29 31L28 31L28 32L30 32L30 30L32 30L32 31L33 31L33 32L35 32L35 31L34 31L34 30L36 30L36 29L37 29L37 30L38 30L38 31L37 31L37 32L39 32L39 30L38 30L38 29L39 29L39 26L38 26L38 28L36 28L36 27L37 27L37 26L36 26L36 25L35 25L35 24L36 24L36 23L35 23L35 22L36 22L36 21L35 21L35 22L34 22L34 21ZM32 22L32 23L33 23L33 25L31 25L31 26L33 26L33 27L32 27L32 28L33 28L33 29L32 29L32 30L33 30L33 29L34 29L34 28L33 28L33 27L34 27L34 26L35 26L35 27L36 27L36 26L35 26L35 25L34 25L34 24L35 24L35 23L34 23L34 22ZM6 23L6 24L7 24L7 25L6 25L6 26L7 26L7 27L8 27L8 26L9 26L9 25L8 25L8 23ZM16 23L16 24L18 24L18 23ZM26 24L26 25L25 25L25 27L24 27L24 28L27 28L27 26L28 26L28 25L27 25L27 24ZM7 25L7 26L8 26L8 25ZM26 25L26 26L27 26L27 25ZM33 25L33 26L34 26L34 25ZM11 26L11 28L12 28L12 29L10 29L10 30L9 30L9 29L8 29L8 30L7 30L7 31L6 31L6 32L8 32L8 33L9 33L9 34L10 34L10 36L14 36L14 35L15 35L15 40L16 40L16 39L17 39L17 38L16 38L16 37L17 37L17 36L19 36L19 35L15 35L15 34L16 34L16 33L14 33L14 35L13 35L13 34L12 34L12 35L11 35L11 34L10 34L10 33L12 33L12 32L13 32L13 31L12 31L12 30L14 30L14 29L13 29L13 27L12 27L12 26ZM35 28L35 29L36 29L36 28ZM20 30L20 31L21 31L21 32L20 32L20 33L19 33L19 34L20 34L20 36L21 36L21 37L22 37L22 36L24 36L24 35L25 35L25 34L24 34L24 35L22 35L22 34L21 34L21 32L22 32L22 33L23 33L23 32L22 32L22 31L21 31L21 30ZM9 31L9 33L10 33L10 31ZM14 31L14 32L15 32L15 31ZM25 31L25 32L24 32L24 33L27 33L27 34L29 34L29 33L27 33L27 32L26 32L26 31ZM17 32L17 33L18 33L18 32ZM30 33L30 35L31 35L31 34L32 34L32 33ZM33 33L33 36L36 36L36 33ZM34 34L34 35L35 35L35 34ZM19 37L19 38L20 38L20 37ZM27 37L27 38L28 38L28 40L30 40L30 38L29 38L29 37ZM34 37L34 38L36 38L36 37ZM37 38L37 39L38 39L38 38ZM23 40L23 41L24 41L24 40ZM0 0L0 7L7 7L7 0ZM1 1L1 6L6 6L6 1ZM2 2L2 5L5 5L5 2ZM34 0L34 7L41 7L41 0ZM35 1L35 6L40 6L40 1ZM36 2L36 5L39 5L39 2ZM0 34L0 41L7 41L7 34ZM1 35L1 40L6 40L6 35ZM2 36L2 39L5 39L5 36Z" fill="#000000"/></g></g></svg>
