<?xml version="1.0" encoding="UTF-8"?>
<svg xmlns="http://www.w3.org/2000/svg" version="1.1" width="200" height="200" viewBox="0 0 200 200"><rect x="0" y="0" width="200" height="200" fill="#ffffff"/><g transform="scale(6.897)"><g transform="translate(0,0)"><path fill-rule="evenodd" d="M9 0L9 1L8 1L8 7L9 7L9 8L5 8L5 9L9 9L9 8L10 8L10 7L11 7L11 6L12 6L12 7L13 7L13 6L14 6L14 7L15 7L15 6L16 6L16 7L17 7L17 8L16 8L16 9L14 9L14 8L11 8L11 9L14 9L14 10L13 10L13 11L12 11L12 10L11 10L11 13L10 13L10 15L9 15L9 16L12 16L12 17L11 17L11 18L10 18L10 19L9 19L9 20L8 20L8 24L9 24L9 25L11 25L11 22L14 22L14 26L13 26L13 23L12 23L12 26L10 26L10 28L9 28L9 29L12 29L12 28L11 28L11 27L14 27L14 26L15 26L15 27L16 27L16 26L18 26L18 24L19 24L19 26L20 26L20 27L21 27L21 29L22 29L22 28L24 28L24 29L29 29L29 26L26 26L26 25L29 25L29 24L26 24L26 25L25 25L25 23L26 23L26 21L27 21L27 23L28 23L28 22L29 22L29 21L27 21L27 20L26 20L26 18L28 18L28 19L29 19L29 18L28 18L28 17L29 17L29 16L27 16L27 17L25 17L25 16L22 16L22 15L25 15L25 14L26 14L26 13L28 13L28 15L29 15L29 12L27 12L27 11L29 11L29 9L28 9L28 8L23 8L23 10L22 10L22 11L21 11L21 9L22 9L22 8L20 8L20 7L21 7L21 0L19 0L19 1L20 1L20 2L19 2L19 3L20 3L20 5L16 5L16 4L17 4L17 3L18 3L18 2L17 2L17 3L16 3L16 1L15 1L15 2L13 2L13 3L12 3L12 0L11 0L11 2L10 2L10 4L11 4L11 3L12 3L12 5L11 5L11 6L10 6L10 7L9 7L9 1L10 1L10 0ZM17 0L17 1L18 1L18 0ZM12 5L12 6L13 6L13 5ZM17 6L17 7L18 7L18 10L17 10L17 9L16 9L16 10L17 10L17 11L15 11L15 13L14 13L14 11L13 11L13 13L14 13L14 14L12 14L12 15L13 15L13 17L12 17L12 19L10 19L10 20L9 20L9 21L10 21L10 22L11 22L11 20L12 20L12 21L14 21L14 20L15 20L15 18L16 18L16 21L17 21L17 22L15 22L15 24L16 24L16 23L17 23L17 22L20 22L20 21L19 21L19 20L22 20L22 19L21 19L21 15L19 15L19 14L22 14L22 12L21 12L21 13L20 13L20 12L19 12L19 11L20 11L20 8L19 8L19 7L20 7L20 6L19 6L19 7L18 7L18 6ZM2 8L2 9L1 9L1 10L0 10L0 11L1 11L1 10L2 10L2 11L5 11L5 12L3 12L3 14L2 14L2 15L1 15L1 16L0 16L0 17L1 17L1 16L2 16L2 15L3 15L3 18L0 18L0 19L7 19L7 18L5 18L5 17L7 17L7 16L8 16L8 15L7 15L7 14L8 14L8 12L10 12L10 10L9 10L9 11L8 11L8 10L2 10L2 9L3 9L3 8ZM25 9L25 10L24 10L24 11L27 11L27 10L28 10L28 9ZM6 11L6 12L5 12L5 14L4 14L4 15L5 15L5 16L4 16L4 17L5 17L5 16L7 16L7 15L6 15L6 14L7 14L7 13L6 13L6 12L8 12L8 11ZM1 12L1 13L2 13L2 12ZM16 12L16 14L14 14L14 15L16 15L16 18L17 18L17 16L19 16L19 17L18 17L18 18L19 18L19 19L18 19L18 20L19 20L19 19L20 19L20 18L19 18L19 17L20 17L20 16L19 16L19 15L18 15L18 13L19 13L19 12L18 12L18 13L17 13L17 12ZM23 12L23 14L25 14L25 13L24 13L24 12ZM16 14L16 15L17 15L17 14ZM8 17L8 18L9 18L9 17ZM14 17L14 18L13 18L13 19L14 19L14 18L15 18L15 17ZM22 17L22 18L25 18L25 17ZM23 19L23 20L24 20L24 19ZM0 20L0 21L2 21L2 20ZM3 20L3 21L5 21L5 20ZM6 20L6 21L7 21L7 20ZM21 21L21 24L24 24L24 21ZM22 22L22 23L23 23L23 22ZM9 23L9 24L10 24L10 23ZM19 23L19 24L20 24L20 23ZM21 25L21 26L22 26L22 27L23 27L23 26L24 26L24 28L25 28L25 25ZM8 26L8 27L9 27L9 26ZM26 27L26 28L28 28L28 27ZM18 28L18 29L19 29L19 28ZM0 0L0 7L7 7L7 0ZM1 1L1 6L6 6L6 1ZM2 2L2 5L5 5L5 2ZM22 0L22 7L29 7L29 0ZM23 1L23 6L28 6L28 1ZM24 2L24 5L27 5L27 2ZM0 22L0 29L7 29L7 22ZM1 23L1 28L6 28L6 23ZM2 24L2 27L5 27L5 24Z" fill="#000000"/></g></g></svg>
