<?xml version="1.0" encoding="UTF-8"?>
<svg xmlns="http://www.w3.org/2000/svg" version="1.1" width="200" height="200" viewBox="0 0 200 200"><rect x="0" y="0" width="200" height="200" fill="#ffffff"/><g transform="scale(4.878)"><g transform="translate(0,0)"><path fill-rule="evenodd" d="M8 0L8 3L9 3L9 2L10 2L10 4L9 4L9 5L8 5L8 9L7 9L7 8L6 8L6 9L7 9L7 10L6 10L6 11L7 11L7 12L6 12L6 13L5 13L5 12L3 12L3 13L2 13L2 14L1 14L1 12L2 12L2 11L0 11L0 14L1 14L1 16L2 16L2 17L1 17L1 19L0 19L0 20L1 20L1 21L0 21L0 25L1 25L1 26L5 26L5 27L2 27L2 28L1 28L1 27L0 27L0 33L1 33L1 29L2 29L2 31L3 31L3 33L8 33L8 34L9 34L9 33L10 33L10 32L13 32L13 31L14 31L14 30L16 30L16 31L17 31L17 32L15 32L15 33L14 33L14 34L13 34L13 33L12 33L12 34L11 34L11 35L12 35L12 36L13 36L13 37L12 37L12 38L14 38L14 39L11 39L11 40L9 40L9 41L11 41L11 40L14 40L14 39L15 39L15 41L16 41L16 40L17 40L17 41L19 41L19 40L20 40L20 41L22 41L22 40L20 40L20 37L21 37L21 39L22 39L22 38L24 38L24 39L23 39L23 41L26 41L26 39L27 39L27 40L28 40L28 39L29 39L29 38L30 38L30 40L29 40L29 41L30 41L30 40L31 40L31 41L32 41L32 40L33 40L33 41L34 41L34 40L33 40L33 39L32 39L32 40L31 40L31 38L30 38L30 37L31 37L31 36L32 36L32 38L34 38L34 39L35 39L35 40L36 40L36 39L38 39L38 37L39 37L39 40L40 40L40 38L41 38L41 36L40 36L40 34L41 34L41 33L39 33L39 32L41 32L41 31L40 31L40 30L41 30L41 29L40 29L40 28L39 28L39 32L37 32L37 31L36 31L36 32L32 32L32 34L30 34L30 35L31 35L31 36L30 36L30 37L29 37L29 36L28 36L28 35L29 35L29 34L27 34L27 35L26 35L26 34L25 34L25 35L26 35L26 36L24 36L24 35L23 35L23 32L24 32L24 33L27 33L27 32L26 32L26 31L27 31L27 30L29 30L29 29L33 29L33 30L32 30L32 31L33 31L33 30L34 30L34 31L35 31L35 30L34 30L34 29L36 29L36 30L38 30L38 29L36 29L36 28L38 28L38 26L39 26L39 27L40 27L40 26L41 26L41 23L40 23L40 26L39 26L39 24L37 24L37 25L34 25L34 24L32 24L32 25L31 25L31 22L32 22L32 23L33 23L33 21L34 21L34 22L36 22L36 21L37 21L37 23L38 23L38 21L39 21L39 20L36 20L36 19L35 19L35 17L36 17L36 18L38 18L38 19L40 19L40 18L41 18L41 16L40 16L40 18L38 18L38 17L39 17L39 16L38 16L38 14L37 14L37 13L36 13L36 14L35 14L35 15L37 15L37 16L38 16L38 17L36 17L36 16L35 16L35 17L34 17L34 16L33 16L33 15L34 15L34 14L33 14L33 13L34 13L34 12L33 12L33 11L34 11L34 10L36 10L36 11L35 11L35 12L38 12L38 11L39 11L39 13L40 13L40 14L39 14L39 15L40 15L40 14L41 14L41 13L40 13L40 10L41 10L41 8L38 8L38 9L40 9L40 10L37 10L37 9L36 9L36 8L33 8L33 6L32 6L32 7L31 7L31 5L32 5L32 4L33 4L33 0L30 0L30 2L31 2L31 1L32 1L32 4L31 4L31 3L30 3L30 4L31 4L31 5L30 5L30 7L31 7L31 8L29 8L29 4L28 4L28 5L27 5L27 6L26 6L26 5L24 5L24 4L25 4L25 3L26 3L26 4L27 4L27 3L29 3L29 1L27 1L27 0L22 0L22 3L21 3L21 2L20 2L20 1L19 1L19 0L18 0L18 1L19 1L19 3L20 3L20 4L19 4L19 5L20 5L20 7L21 7L21 8L20 8L20 9L19 9L19 6L18 6L18 8L15 8L15 6L14 6L14 7L13 7L13 6L12 6L12 4L11 4L11 3L12 3L12 2L13 2L13 1L14 1L14 2L15 2L15 4L16 4L16 3L18 3L18 2L15 2L15 1L16 1L16 0L15 0L15 1L14 1L14 0L12 0L12 1L9 1L9 0ZM23 1L23 2L24 2L24 3L22 3L22 4L21 4L21 5L22 5L22 6L21 6L21 7L22 7L22 9L21 9L21 10L20 10L20 11L19 11L19 13L21 13L21 12L22 12L22 13L23 13L23 14L22 14L22 16L20 16L20 15L21 15L21 14L17 14L17 11L18 11L18 10L14 10L14 9L15 9L15 8L14 8L14 9L13 9L13 10L14 10L14 11L13 11L13 12L12 12L12 11L11 11L11 12L10 12L10 11L9 11L9 10L7 10L7 11L9 11L9 13L10 13L10 14L9 14L9 16L7 16L7 15L3 15L3 14L5 14L5 13L3 13L3 14L2 14L2 16L3 16L3 18L2 18L2 20L3 20L3 18L5 18L5 17L6 17L6 18L7 18L7 19L5 19L5 20L7 20L7 19L8 19L8 21L5 21L5 23L4 23L4 21L3 21L3 23L4 23L4 25L5 25L5 26L8 26L8 25L5 25L5 24L8 24L8 23L9 23L9 28L11 28L11 29L9 29L9 30L12 30L12 29L13 29L13 30L14 30L14 29L16 29L16 30L18 30L18 32L17 32L17 33L16 33L16 34L19 34L19 33L20 33L20 34L22 34L22 32L23 32L23 30L27 30L27 27L26 27L26 28L25 28L25 29L24 29L24 28L23 28L23 27L24 27L24 26L28 26L28 25L29 25L29 24L30 24L30 21L33 21L33 20L34 20L34 21L36 21L36 20L35 20L35 19L34 19L34 18L33 18L33 17L32 17L32 18L30 18L30 19L32 19L32 20L29 20L29 21L27 21L27 22L28 22L28 23L29 23L29 24L28 24L28 25L27 25L27 24L26 24L26 23L22 23L22 20L23 20L23 21L24 21L24 22L26 22L26 21L25 21L25 20L27 20L27 18L28 18L28 19L29 19L29 16L30 16L30 17L31 17L31 16L30 16L30 15L31 15L31 14L32 14L32 15L33 15L33 14L32 14L32 13L33 13L33 12L31 12L31 14L30 14L30 13L28 13L28 14L29 14L29 15L28 15L28 17L27 17L27 16L25 16L25 15L27 15L27 14L26 14L26 13L27 13L27 12L26 12L26 13L25 13L25 12L24 12L24 11L25 11L25 9L26 9L26 10L28 10L28 11L29 11L29 12L30 12L30 11L33 11L33 10L31 10L31 9L33 9L33 8L31 8L31 9L26 9L26 8L28 8L28 6L27 6L27 7L26 7L26 6L25 6L25 7L24 7L24 5L22 5L22 4L24 4L24 3L25 3L25 1ZM26 2L26 3L27 3L27 2ZM13 3L13 4L14 4L14 3ZM9 5L9 7L10 7L10 6L11 6L11 7L12 7L12 8L13 8L13 7L12 7L12 6L11 6L11 5ZM16 5L16 7L17 7L17 5ZM22 6L22 7L23 7L23 6ZM2 8L2 9L1 9L1 10L3 10L3 9L5 9L5 8ZM10 8L10 9L11 9L11 10L12 10L12 9L11 9L11 8ZM15 11L15 12L13 12L13 14L12 14L12 15L11 15L11 14L10 14L10 15L11 15L11 16L9 16L9 17L7 17L7 16L6 16L6 17L7 17L7 18L8 18L8 19L9 19L9 17L10 17L10 18L11 18L11 19L13 19L13 20L10 20L10 21L9 21L9 22L10 22L10 21L11 21L11 22L12 22L12 23L11 23L11 24L10 24L10 26L11 26L11 28L14 28L14 27L13 27L13 26L11 26L11 24L13 24L13 25L14 25L14 26L15 26L15 28L16 28L16 29L17 29L17 28L16 28L16 27L17 27L17 26L18 26L18 27L20 27L20 28L21 28L21 29L22 29L22 28L21 28L21 27L22 27L22 26L24 26L24 24L21 24L21 25L19 25L19 23L18 23L18 22L19 22L19 21L16 21L16 19L17 19L17 20L18 20L18 19L17 19L17 18L18 18L18 17L19 17L19 19L21 19L21 18L22 18L22 17L24 17L24 15L23 15L23 16L22 16L22 17L20 17L20 16L17 16L17 14L16 14L16 11ZM11 12L11 13L12 13L12 12ZM6 13L6 14L8 14L8 13ZM13 14L13 15L12 15L12 17L11 17L11 18L14 18L14 20L13 20L13 21L12 21L12 22L15 22L15 19L16 19L16 18L17 18L17 17L16 17L16 14ZM14 15L14 16L13 16L13 17L14 17L14 18L16 18L16 17L14 17L14 16L15 16L15 15ZM4 16L4 17L5 17L5 16ZM25 17L25 18L24 18L24 20L25 20L25 19L26 19L26 17ZM32 18L32 19L33 19L33 18ZM40 20L40 21L41 21L41 20ZM6 22L6 23L7 23L7 22ZM16 22L16 23L13 23L13 24L14 24L14 25L15 25L15 26L17 26L17 24L18 24L18 23L17 23L17 22ZM20 22L20 23L21 23L21 22ZM35 23L35 24L36 24L36 23ZM2 24L2 25L3 25L3 24ZM25 24L25 25L26 25L26 24ZM18 25L18 26L19 26L19 25ZM30 25L30 26L29 26L29 27L28 27L28 29L29 29L29 28L33 28L33 29L34 29L34 28L33 28L33 27L34 27L34 25L32 25L32 26L31 26L31 25ZM32 26L32 27L33 27L33 26ZM36 26L36 27L35 27L35 28L36 28L36 27L37 27L37 26ZM6 27L6 28L7 28L7 29L6 29L6 30L5 30L5 31L4 31L4 32L5 32L5 31L6 31L6 32L8 32L8 31L6 31L6 30L7 30L7 29L8 29L8 27ZM3 28L3 30L4 30L4 28ZM18 28L18 29L19 29L19 28ZM19 30L19 31L21 31L21 32L22 32L22 31L21 31L21 30ZM9 31L9 32L10 32L10 31ZM28 31L28 33L31 33L31 32L29 32L29 31ZM33 33L33 36L36 36L36 33ZM37 33L37 34L39 34L39 33ZM14 34L14 35L15 35L15 34ZM34 34L34 35L35 35L35 34ZM16 35L16 38L18 38L18 39L19 39L19 38L18 38L18 37L17 37L17 36L18 36L18 35ZM19 35L19 36L20 36L20 35ZM38 35L38 36L37 36L37 37L38 37L38 36L39 36L39 35ZM8 36L8 39L9 39L9 37L10 37L10 38L11 38L11 36ZM21 36L21 37L24 37L24 36ZM27 36L27 37L26 37L26 38L25 38L25 39L24 39L24 40L25 40L25 39L26 39L26 38L29 38L29 37L28 37L28 36ZM34 37L34 38L36 38L36 37ZM0 0L0 7L7 7L7 0ZM1 1L1 6L6 6L6 1ZM2 2L2 5L5 5L5 2ZM34 0L34 7L41 7L41 0ZM35 1L35 6L40 6L40 1ZM36 2L36 5L39 5L39 2ZM0 34L0 41L7 41L7 34ZM1 35L1 40L6 40L6 35ZM2 36L2 39L5 39L5 36Z" fill="#000000"/></g></g></svg>
