<?xml version="1.0" encoding="UTF-8"?>
<svg xmlns="http://www.w3.org/2000/svg" version="1.1" width="200" height="200" viewBox="0 0 200 200"><rect x="0" y="0" width="200" height="200" fill="#ffffff"/><g transform="scale(4.878)"><g transform="translate(0,0)"><path fill-rule="evenodd" d="M8 0L8 2L9 2L9 3L8 3L8 7L9 7L9 6L10 6L10 7L11 7L11 8L9 8L9 9L11 9L11 10L10 10L10 11L8 11L8 12L6 12L6 11L7 11L7 10L8 10L8 9L7 9L7 8L6 8L6 9L7 9L7 10L5 10L5 9L4 9L4 8L3 8L3 9L4 9L4 10L5 10L5 11L3 11L3 12L4 12L4 14L2 14L2 13L1 13L1 12L0 12L0 13L1 13L1 14L0 14L0 15L1 15L1 16L2 16L2 17L1 17L1 19L2 19L2 20L1 20L1 21L0 21L0 23L1 23L1 22L2 22L2 20L3 20L3 22L4 22L4 23L2 23L2 25L4 25L4 27L5 27L5 28L6 28L6 29L7 29L7 30L5 30L5 29L3 29L3 30L4 30L4 31L2 31L2 32L4 32L4 33L8 33L8 34L9 34L9 35L11 35L11 34L9 34L9 33L12 33L12 32L13 32L13 34L14 34L14 33L15 33L15 32L16 32L16 35L17 35L17 37L15 37L15 36L14 36L14 37L15 37L15 38L13 38L13 37L11 37L11 36L9 36L9 37L8 37L8 38L9 38L9 39L10 39L10 40L9 40L9 41L10 41L10 40L11 40L11 41L15 41L15 40L16 40L16 39L17 39L17 41L18 41L18 40L19 40L19 39L17 39L17 37L18 37L18 38L20 38L20 40L21 40L21 41L23 41L23 40L24 40L24 41L25 41L25 40L26 40L26 41L27 41L27 40L28 40L28 41L31 41L31 40L32 40L32 41L33 41L33 38L32 38L32 39L31 39L31 34L32 34L32 37L34 37L34 38L36 38L36 40L37 40L37 41L40 41L40 39L41 39L41 38L40 38L40 37L41 37L41 36L40 36L40 35L38 35L38 33L39 33L39 34L41 34L41 29L40 29L40 27L41 27L41 26L40 26L40 27L39 27L39 28L37 28L37 30L36 30L36 29L35 29L35 28L36 28L36 27L38 27L38 26L39 26L39 25L40 25L40 24L41 24L41 23L40 23L40 22L39 22L39 23L38 23L38 22L37 22L37 21L40 21L40 20L41 20L41 16L39 16L39 17L38 17L38 19L40 19L40 20L37 20L37 19L36 19L36 20L35 20L35 19L34 19L34 18L35 18L35 17L36 17L36 13L35 13L35 12L34 12L34 15L35 15L35 17L32 17L32 18L33 18L33 19L34 19L34 22L33 22L33 21L32 21L32 22L31 22L31 23L30 23L30 24L28 24L28 23L27 23L27 21L25 21L25 20L23 20L23 18L25 18L25 19L27 19L27 20L28 20L28 19L30 19L30 18L31 18L31 16L30 16L30 15L32 15L32 16L33 16L33 15L32 15L32 14L33 14L33 10L35 10L35 9L37 9L37 10L38 10L38 8L35 8L35 9L33 9L33 8L32 8L32 7L33 7L33 5L30 5L30 7L29 7L29 4L30 4L30 1L29 1L29 0L27 0L27 1L26 1L26 0L22 0L22 2L20 2L20 1L19 1L19 0L18 0L18 1L17 1L17 0L16 0L16 1L17 1L17 3L15 3L15 0L11 0L11 1L10 1L10 0ZM31 0L31 1L33 1L33 0ZM11 1L11 2L12 2L12 3L13 3L13 2L14 2L14 1ZM18 1L18 2L19 2L19 1ZM24 1L24 2L23 2L23 3L19 3L19 5L18 5L18 3L17 3L17 5L18 5L18 6L17 6L17 8L16 8L16 6L15 6L15 5L16 5L16 4L15 4L15 3L14 3L14 4L13 4L13 5L12 5L12 4L11 4L11 3L9 3L9 5L10 5L10 6L11 6L11 7L12 7L12 8L11 8L11 9L12 9L12 11L10 11L10 12L9 12L9 15L8 15L8 14L7 14L7 13L6 13L6 12L5 12L5 13L6 13L6 14L7 14L7 15L6 15L6 16L5 16L5 17L6 17L6 18L7 18L7 19L5 19L5 20L4 20L4 19L3 19L3 18L2 18L2 19L3 19L3 20L4 20L4 21L5 21L5 23L4 23L4 24L7 24L7 23L9 23L9 24L8 24L8 25L5 25L5 26L7 26L7 27L6 27L6 28L8 28L8 25L9 25L9 24L11 24L11 25L12 25L12 27L14 27L14 28L13 28L13 29L12 29L12 28L11 28L11 27L10 27L10 32L12 32L12 31L14 31L14 32L15 32L15 31L16 31L16 30L17 30L17 31L19 31L19 32L18 32L18 34L17 34L17 35L18 35L18 36L20 36L20 35L21 35L21 37L20 37L20 38L21 38L21 37L22 37L22 36L23 36L23 37L25 37L25 38L23 38L23 39L22 39L22 40L23 40L23 39L24 39L24 40L25 40L25 39L26 39L26 40L27 40L27 39L28 39L28 40L29 40L29 39L30 39L30 40L31 40L31 39L30 39L30 38L28 38L28 37L30 37L30 34L31 34L31 33L32 33L32 32L34 32L34 31L35 31L35 32L39 32L39 33L40 33L40 30L39 30L39 29L38 29L38 30L37 30L37 31L35 31L35 29L34 29L34 31L33 31L33 30L31 30L31 28L30 28L30 29L29 29L29 28L26 28L26 29L24 29L24 31L23 31L23 30L21 30L21 31L19 31L19 30L18 30L18 26L17 26L17 24L18 24L18 25L19 25L19 24L20 24L20 22L21 22L21 23L22 23L22 24L21 24L21 25L20 25L20 26L21 26L21 27L19 27L19 29L20 29L20 28L21 28L21 29L22 29L22 28L21 28L21 27L24 27L24 28L25 28L25 26L26 26L26 27L28 27L28 26L30 26L30 27L33 27L33 26L34 26L34 27L36 27L36 26L37 26L37 24L35 24L35 25L34 25L34 24L33 24L33 23L32 23L32 24L30 24L30 25L28 25L28 24L25 24L25 23L26 23L26 22L25 22L25 23L24 23L24 21L23 21L23 20L22 20L22 21L20 21L20 20L21 20L21 19L22 19L22 18L23 18L23 17L24 17L24 16L25 16L25 18L26 18L26 17L27 17L27 19L28 19L28 18L29 18L29 14L27 14L27 13L29 13L29 12L31 12L31 11L29 11L29 10L28 10L28 6L27 6L27 7L26 7L26 4L25 4L25 1ZM28 1L28 2L26 2L26 3L27 3L27 4L29 4L29 1ZM31 2L31 4L32 4L32 2ZM14 4L14 5L13 5L13 6L12 6L12 7L13 7L13 8L12 8L12 9L14 9L14 10L13 10L13 11L12 11L12 12L10 12L10 13L11 13L11 17L10 17L10 19L9 19L9 21L7 21L7 20L8 20L8 19L7 19L7 20L5 20L5 21L7 21L7 22L6 22L6 23L7 23L7 22L9 22L9 23L10 23L10 20L11 20L11 17L13 17L13 16L12 16L12 14L13 14L13 15L15 15L15 17L16 17L16 15L17 15L17 16L18 16L18 15L17 15L17 14L16 14L16 15L15 15L15 10L16 10L16 8L15 8L15 6L14 6L14 5L15 5L15 4ZM20 4L20 5L19 5L19 6L18 6L18 8L17 8L17 9L19 9L19 10L18 10L18 12L19 12L19 14L22 14L22 15L21 15L21 16L19 16L19 17L18 17L18 20L20 20L20 19L19 19L19 18L21 18L21 16L22 16L22 17L23 17L23 15L26 15L26 16L28 16L28 15L27 15L27 14L25 14L25 13L27 13L27 12L29 12L29 11L27 11L27 12L25 12L25 11L26 11L26 9L25 9L25 10L24 10L24 7L25 7L25 6L24 6L24 5L25 5L25 4L24 4L24 5L22 5L22 4ZM20 5L20 6L19 6L19 9L20 9L20 10L19 10L19 11L20 11L20 12L21 12L21 11L22 11L22 12L24 12L24 13L25 13L25 12L24 12L24 10L23 10L23 11L22 11L22 10L21 10L21 9L23 9L23 8L21 8L21 9L20 9L20 6L21 6L21 7L22 7L22 5ZM13 6L13 7L14 7L14 6ZM23 6L23 7L24 7L24 6ZM31 6L31 7L32 7L32 6ZM29 8L29 9L30 9L30 8ZM31 8L31 10L33 10L33 9L32 9L32 8ZM39 8L39 9L40 9L40 10L41 10L41 8ZM0 9L0 10L1 10L1 9ZM16 11L16 13L17 13L17 11ZM38 11L38 13L39 13L39 12L40 12L40 13L41 13L41 11ZM12 12L12 13L13 13L13 12ZM30 13L30 14L32 14L32 13ZM1 14L1 15L2 15L2 14ZM4 14L4 15L3 15L3 17L4 17L4 15L5 15L5 14ZM37 14L37 16L38 16L38 15L39 15L39 14ZM40 14L40 15L41 15L41 14ZM6 16L6 17L8 17L8 18L9 18L9 17L8 17L8 16ZM13 19L13 21L11 21L11 24L12 24L12 25L13 25L13 24L14 24L14 27L16 27L16 28L17 28L17 26L15 26L15 25L16 25L16 23L17 23L17 22L16 22L16 21L17 21L17 19L15 19L15 22L13 22L13 21L14 21L14 19ZM29 20L29 22L30 22L30 20ZM18 21L18 24L19 24L19 21ZM22 21L22 22L23 22L23 21ZM35 21L35 22L34 22L34 23L37 23L37 22L36 22L36 21ZM12 22L12 23L13 23L13 22ZM15 22L15 23L14 23L14 24L15 24L15 23L16 23L16 22ZM39 23L39 24L38 24L38 25L39 25L39 24L40 24L40 23ZM0 24L0 28L1 28L1 27L2 27L2 26L1 26L1 24ZM24 24L24 25L22 25L22 26L25 26L25 24ZM26 25L26 26L27 26L27 25ZM31 25L31 26L32 26L32 25ZM32 28L32 29L33 29L33 28ZM1 29L1 30L0 30L0 31L1 31L1 30L2 30L2 29ZM8 29L8 30L9 30L9 29ZM11 29L11 31L12 31L12 29ZM14 29L14 31L15 31L15 30L16 30L16 29ZM27 29L27 31L29 31L29 32L27 32L27 33L28 33L28 34L30 34L30 33L29 33L29 32L31 32L31 30L29 30L29 29ZM25 30L25 31L24 31L24 32L23 32L23 31L22 31L22 32L23 32L23 33L21 33L21 32L19 32L19 34L18 34L18 35L19 35L19 34L23 34L23 36L24 36L24 34L23 34L23 33L25 33L25 37L27 37L27 36L29 36L29 35L27 35L27 36L26 36L26 33L25 33L25 31L26 31L26 30ZM38 30L38 31L39 31L39 30ZM5 31L5 32L7 32L7 31ZM0 32L0 33L1 33L1 32ZM8 32L8 33L9 33L9 32ZM33 33L33 36L36 36L36 33ZM34 34L34 35L35 35L35 34ZM12 35L12 36L13 36L13 35ZM38 36L38 37L36 37L36 38L37 38L37 39L38 39L38 40L39 40L39 39L40 39L40 38L39 38L39 36ZM9 37L9 38L10 38L10 37ZM11 38L11 40L12 40L12 39L13 39L13 38ZM15 38L15 39L16 39L16 38ZM38 38L38 39L39 39L39 38ZM0 0L0 7L7 7L7 0ZM1 1L1 6L6 6L6 1ZM2 2L2 5L5 5L5 2ZM34 0L34 7L41 7L41 0ZM35 1L35 6L40 6L40 1ZM36 2L36 5L39 5L39 2ZM0 34L0 41L7 41L7 34ZM1 35L1 40L6 40L6 35ZM2 36L2 39L5 39L5 36Z" fill="#000000"/></g></g></svg>
