<?xml version="1.0" encoding="UTF-8"?>
<svg xmlns="http://www.w3.org/2000/svg" version="1.1" width="200" height="200" viewBox="0 0 200 200"><rect x="0" y="0" width="200" height="200" fill="#ffffff"/><g transform="scale(6.897)"><g transform="translate(0,0)"><path fill-rule="evenodd" d="M8 0L8 1L10 1L10 2L8 2L8 3L9 3L9 4L8 4L8 5L9 5L9 6L8 6L8 8L11 8L11 9L10 9L10 10L12 10L12 12L11 12L11 11L9 11L9 12L8 12L8 11L7 11L7 10L9 10L9 9L7 9L7 8L5 8L5 9L2 9L2 10L1 10L1 11L2 11L2 12L1 12L1 14L0 14L0 16L2 16L2 17L3 17L3 16L4 16L4 17L5 17L5 18L3 18L3 19L5 19L5 18L6 18L6 19L7 19L7 20L5 20L5 21L8 21L8 22L9 22L9 23L8 23L8 24L10 24L10 25L9 25L9 28L10 28L10 25L11 25L11 24L12 24L12 25L17 25L17 28L16 28L16 27L15 27L15 29L19 29L19 28L21 28L21 27L22 27L22 28L23 28L23 29L26 29L26 28L27 28L27 29L28 29L28 28L27 28L27 27L28 27L28 26L27 26L27 27L26 27L26 28L25 28L25 27L23 27L23 26L21 26L21 25L24 25L24 26L25 26L25 22L26 22L26 23L27 23L27 21L25 21L25 20L26 20L26 18L28 18L28 16L29 16L29 15L28 15L28 14L26 14L26 13L29 13L29 12L27 12L27 11L28 11L28 10L27 10L27 8L26 8L26 10L25 10L25 8L24 8L24 17L23 17L23 16L22 16L22 17L23 17L23 18L21 18L21 17L20 17L20 19L18 19L18 18L17 18L17 17L18 17L18 16L19 16L19 15L18 15L18 16L15 16L15 17L16 17L16 18L17 18L17 19L18 19L18 20L17 20L17 22L16 22L16 19L15 19L15 18L14 18L14 19L15 19L15 20L13 20L13 21L12 21L12 22L13 22L13 21L15 21L15 22L14 22L14 23L13 23L13 24L12 24L12 23L11 23L11 22L10 22L10 21L9 21L9 20L8 20L8 19L7 19L7 18L6 18L6 17L7 17L7 16L8 16L8 17L9 17L9 19L10 19L10 20L11 20L11 18L10 18L10 17L12 17L12 19L13 19L13 16L14 16L14 15L15 15L15 14L16 14L16 15L17 15L17 14L18 14L18 13L21 13L21 12L22 12L22 15L23 15L23 11L21 11L21 5L20 5L20 3L21 3L21 2L20 2L20 0L15 0L15 1L16 1L16 4L17 4L17 1L18 1L18 2L19 2L19 3L18 3L18 7L19 7L19 8L18 8L18 9L17 9L17 6L16 6L16 5L15 5L15 4L14 4L14 5L13 5L13 6L12 6L12 7L13 7L13 6L14 6L14 7L15 7L15 6L16 6L16 9L17 9L17 11L16 11L16 10L15 10L15 8L11 8L11 6L10 6L10 3L11 3L11 4L12 4L12 3L11 3L11 1L12 1L12 0ZM13 2L13 3L15 3L15 2ZM14 5L14 6L15 6L15 5ZM9 6L9 7L10 7L10 6ZM19 6L19 7L20 7L20 6ZM22 8L22 10L23 10L23 8ZM28 8L28 9L29 9L29 8ZM6 9L6 10L7 10L7 9ZM12 9L12 10L13 10L13 11L14 11L14 10L13 10L13 9ZM18 9L18 10L19 10L19 12L21 12L21 11L20 11L20 9ZM2 10L2 11L3 11L3 12L2 12L2 14L1 14L1 15L2 15L2 16L3 16L3 15L4 15L4 16L5 16L5 17L6 17L6 16L7 16L7 15L4 15L4 14L7 14L7 13L6 13L6 12L7 12L7 11L6 11L6 12L4 12L4 11L5 11L5 10ZM15 11L15 13L14 13L14 12L13 12L13 13L12 13L12 14L11 14L11 15L9 15L9 14L8 14L8 16L9 16L9 17L10 17L10 16L12 16L12 15L13 15L13 14L15 14L15 13L17 13L17 12L16 12L16 11ZM3 12L3 13L4 13L4 12ZM9 12L9 13L11 13L11 12ZM2 14L2 15L3 15L3 14ZM20 15L20 16L21 16L21 15ZM25 15L25 16L26 16L26 15ZM27 15L27 16L28 16L28 15ZM0 17L0 21L1 21L1 19L2 19L2 18L1 18L1 17ZM24 17L24 18L25 18L25 17ZM21 19L21 20L22 20L22 19ZM23 19L23 20L24 20L24 19ZM2 20L2 21L3 21L3 20ZM18 20L18 22L17 22L17 23L19 23L19 24L20 24L20 21L19 21L19 20ZM28 20L28 22L29 22L29 20ZM21 21L21 24L24 24L24 21ZM22 22L22 23L23 23L23 22ZM10 23L10 24L11 24L11 23ZM17 24L17 25L18 25L18 24ZM26 24L26 25L28 25L28 24ZM12 26L12 27L11 27L11 29L13 29L13 28L14 28L14 27L13 27L13 26ZM20 26L20 27L21 27L21 26ZM0 0L0 7L7 7L7 0ZM1 1L1 6L6 6L6 1ZM2 2L2 5L5 5L5 2ZM22 0L22 7L29 7L29 0ZM23 1L23 6L28 6L28 1ZM24 2L24 5L27 5L27 2ZM0 22L0 29L7 29L7 22ZM1 23L1 28L6 28L6 23ZM2 24L2 27L5 27L5 24Z" fill="#000000"/></g></g></svg>
