<?xml version="1.0" encoding="UTF-8"?>
<svg xmlns="http://www.w3.org/2000/svg" version="1.1" width="200" height="200" viewBox="0 0 200 200"><rect x="0" y="0" width="200" height="200" fill="#ffffff"/><g transform="scale(4.878)"><g transform="translate(0,0)"><path fill-rule="evenodd" d="M8 0L8 2L9 2L9 3L8 3L8 7L9 7L9 6L10 6L10 7L11 7L11 6L10 6L10 4L11 4L11 5L12 5L12 4L11 4L11 3L10 3L10 2L13 2L13 3L15 3L15 4L14 4L14 5L13 5L13 6L12 6L12 7L13 7L13 6L14 6L14 8L12 8L12 10L11 10L11 8L9 8L9 9L7 9L7 8L6 8L6 9L4 9L4 8L3 8L3 10L2 10L2 11L3 11L3 12L0 12L0 14L1 14L1 13L3 13L3 14L2 14L2 15L4 15L4 19L2 19L2 17L0 17L0 20L2 20L2 21L1 21L1 22L0 22L0 23L2 23L2 22L4 22L4 23L3 23L3 24L6 24L6 25L8 25L8 27L10 27L10 28L9 28L9 29L7 29L7 28L6 28L6 27L7 27L7 26L6 26L6 27L5 27L5 25L4 25L4 27L2 27L2 26L3 26L3 25L1 25L1 24L0 24L0 27L1 27L1 29L2 29L2 31L3 31L3 33L4 33L4 32L5 32L5 33L7 33L7 32L5 32L5 31L8 31L8 34L10 34L10 37L11 37L11 38L13 38L13 39L12 39L12 41L16 41L16 40L18 40L18 39L20 39L20 37L23 37L23 36L24 36L24 41L26 41L26 40L27 40L27 36L30 36L30 34L28 34L28 35L27 35L27 34L26 34L26 33L27 33L27 32L31 32L31 34L32 34L32 37L31 37L31 38L32 38L32 37L34 37L34 38L36 38L36 40L37 40L37 41L40 41L40 39L41 39L41 38L40 38L40 37L41 37L41 35L40 35L40 37L38 37L38 36L39 36L39 35L37 35L37 34L38 34L38 33L39 33L39 34L41 34L41 32L38 32L38 31L37 31L37 30L40 30L40 31L41 31L41 29L39 29L39 28L37 28L37 27L38 27L38 26L39 26L39 25L40 25L40 24L41 24L41 23L40 23L40 22L39 22L39 21L40 21L40 20L41 20L41 16L39 16L39 17L38 17L38 18L37 18L37 19L36 19L36 21L35 21L35 19L34 19L34 18L35 18L35 17L36 17L36 16L35 16L35 17L33 17L33 16L32 16L32 15L33 15L33 14L34 14L34 15L37 15L37 16L38 16L38 15L37 15L37 14L36 14L36 13L34 13L34 12L35 12L35 10L36 10L36 12L37 12L37 10L38 10L38 8L35 8L35 9L34 9L34 10L33 10L33 9L32 9L32 10L31 10L31 8L32 8L32 7L33 7L33 2L32 2L32 3L31 3L31 1L33 1L33 0L31 0L31 1L30 1L30 0L27 0L27 2L26 2L26 3L25 3L25 6L24 6L24 7L23 7L23 6L22 6L22 5L23 5L23 4L24 4L24 2L25 2L25 0L22 0L22 1L23 1L23 4L22 4L22 3L21 3L21 4L20 4L20 5L19 5L19 4L18 4L18 3L19 3L19 1L20 1L20 0L14 0L14 2L13 2L13 0L11 0L11 1L9 1L9 0ZM16 1L16 2L17 2L17 3L18 3L18 1ZM28 1L28 2L27 2L27 3L26 3L26 5L27 5L27 4L28 4L28 5L30 5L30 4L28 4L28 3L30 3L30 1ZM9 3L9 4L10 4L10 3ZM15 4L15 7L16 7L16 10L17 10L17 8L18 8L18 9L19 9L19 7L20 7L20 6L19 6L19 5L18 5L18 4ZM21 4L21 5L22 5L22 4ZM31 4L31 5L32 5L32 4ZM16 5L16 7L17 7L17 6L18 6L18 7L19 7L19 6L18 6L18 5ZM21 6L21 8L20 8L20 10L21 10L21 11L15 11L15 12L14 12L14 10L13 10L13 12L12 12L12 11L11 11L11 10L9 10L9 11L10 11L10 12L8 12L8 11L5 11L5 10L3 10L3 11L5 11L5 12L3 12L3 13L5 13L5 14L7 14L7 15L5 15L5 17L6 17L6 18L5 18L5 19L4 19L4 20L5 20L5 19L6 19L6 20L8 20L8 21L6 21L6 22L5 22L5 21L4 21L4 22L5 22L5 23L6 23L6 24L8 24L8 22L9 22L9 23L10 23L10 22L11 22L11 23L14 23L14 24L12 24L12 25L14 25L14 24L15 24L15 27L16 27L16 28L14 28L14 27L13 27L13 26L11 26L11 28L10 28L10 29L9 29L9 30L8 30L8 31L9 31L9 33L10 33L10 34L11 34L11 36L12 36L12 37L14 37L14 36L16 36L16 34L17 34L17 39L18 39L18 36L19 36L19 34L21 34L21 36L23 36L23 35L22 35L22 34L23 34L23 33L22 33L22 32L24 32L24 33L26 33L26 32L24 32L24 31L25 31L25 30L23 30L23 29L22 29L22 30L23 30L23 31L22 31L22 32L21 32L21 28L23 28L23 26L24 26L24 29L25 29L25 28L26 28L26 30L27 30L27 31L30 31L30 30L31 30L31 28L33 28L33 29L32 29L32 30L34 30L34 31L33 31L33 32L34 32L34 31L35 31L35 32L37 32L37 33L38 33L38 32L37 32L37 31L35 31L35 29L36 29L36 30L37 30L37 28L35 28L35 27L34 27L34 26L35 26L35 25L34 25L34 24L33 24L33 22L34 22L34 23L35 23L35 24L36 24L36 26L37 26L37 25L38 25L38 24L37 24L37 23L35 23L35 22L34 22L34 19L33 19L33 21L32 21L32 20L31 20L31 22L30 22L30 23L29 23L29 22L28 22L28 21L27 21L27 20L26 20L26 19L28 19L28 18L29 18L29 19L30 19L30 17L29 17L29 16L28 16L28 15L27 15L27 16L28 16L28 17L27 17L27 18L26 18L26 16L25 16L25 17L23 17L23 15L26 15L26 14L27 14L27 13L28 13L28 14L29 14L29 13L28 13L28 6L27 6L27 8L26 8L26 9L25 9L25 8L22 8L22 6ZM25 6L25 7L26 7L26 6ZM29 6L29 7L30 7L30 8L29 8L29 9L30 9L30 8L31 8L31 7L32 7L32 6L31 6L31 7L30 7L30 6ZM39 8L39 9L40 9L40 10L41 10L41 8ZM0 9L0 11L1 11L1 9ZM6 9L6 10L7 10L7 9ZM21 9L21 10L22 10L22 9ZM24 9L24 10L23 10L23 11L21 11L21 12L20 12L20 13L19 13L19 14L18 14L18 13L16 13L16 12L15 12L15 13L13 13L13 15L11 15L11 14L10 14L10 13L12 13L12 12L10 12L10 13L9 13L9 14L8 14L8 13L7 13L7 12L6 12L6 13L7 13L7 14L8 14L8 16L6 16L6 17L8 17L8 16L9 16L9 15L11 15L11 16L10 16L10 18L8 18L8 20L9 20L9 22L10 22L10 20L9 20L9 19L10 19L10 18L11 18L11 19L12 19L12 20L13 20L13 18L12 18L12 16L14 16L14 17L16 17L16 18L18 18L18 20L17 20L17 22L16 22L16 19L15 19L15 18L14 18L14 19L15 19L15 22L16 22L16 23L15 23L15 24L16 24L16 25L17 25L17 26L16 26L16 27L17 27L17 26L18 26L18 30L19 30L19 31L18 31L18 33L17 33L17 34L18 34L18 33L19 33L19 31L20 31L20 30L19 30L19 27L20 27L20 28L21 28L21 27L22 27L22 25L23 25L23 24L24 24L24 22L23 22L23 21L22 21L22 22L21 22L21 20L24 20L24 19L25 19L25 18L24 18L24 19L21 19L21 18L22 18L22 17L20 17L20 16L19 16L19 15L20 15L20 14L22 14L22 13L24 13L24 14L25 14L25 13L26 13L26 12L27 12L27 10L25 10L25 9ZM36 9L36 10L37 10L37 9ZM24 10L24 11L23 11L23 12L24 12L24 13L25 13L25 12L24 12L24 11L25 11L25 10ZM29 10L29 12L31 12L31 13L30 13L30 14L31 14L31 15L32 15L32 14L33 14L33 12L31 12L31 10ZM38 11L38 14L39 14L39 15L41 15L41 14L40 14L40 13L41 13L41 12L40 12L40 11ZM15 13L15 14L16 14L16 13ZM17 14L17 15L16 15L16 16L17 16L17 15L18 15L18 14ZM21 15L21 16L22 16L22 15ZM19 17L19 18L20 18L20 17ZM31 17L31 19L32 19L32 18L33 18L33 17ZM39 17L39 19L37 19L37 20L40 20L40 17ZM6 18L6 19L7 19L7 18ZM18 20L18 21L20 21L20 20ZM25 20L25 23L26 23L26 24L25 24L25 25L26 25L26 26L25 26L25 27L26 27L26 28L28 28L28 29L27 29L27 30L28 30L28 29L29 29L29 30L30 30L30 28L31 28L31 27L30 27L30 26L32 26L32 27L33 27L33 26L32 26L32 25L31 25L31 24L32 24L32 22L31 22L31 23L30 23L30 24L29 24L29 25L28 25L28 27L27 27L27 24L28 24L28 23L26 23L26 22L27 22L27 21L26 21L26 20ZM12 21L12 22L13 22L13 21ZM36 21L36 22L37 22L37 21ZM6 22L6 23L7 23L7 22ZM17 22L17 23L16 23L16 24L17 24L17 25L18 25L18 26L20 26L20 27L21 27L21 25L19 25L19 22ZM20 22L20 23L21 23L21 24L23 24L23 22L22 22L22 23L21 23L21 22ZM17 23L17 24L18 24L18 23ZM9 24L9 26L10 26L10 24ZM29 25L29 26L30 26L30 25ZM40 26L40 27L41 27L41 26ZM12 27L12 29L14 29L14 30L12 30L12 31L14 31L14 30L16 30L16 29L14 29L14 28L13 28L13 27ZM3 28L3 31L5 31L5 28ZM6 29L6 30L7 30L7 29ZM0 30L0 31L1 31L1 30ZM9 30L9 31L10 31L10 30ZM16 31L16 32L17 32L17 31ZM0 32L0 33L1 33L1 32ZM12 32L12 33L11 33L11 34L13 34L13 35L14 35L14 34L13 34L13 33L14 33L14 32ZM20 32L20 33L21 33L21 34L22 34L22 33L21 33L21 32ZM15 33L15 34L16 34L16 33ZM33 33L33 36L36 36L36 33ZM24 34L24 36L27 36L27 35L26 35L26 34ZM34 34L34 35L35 35L35 34ZM8 37L8 38L9 38L9 40L10 40L10 38L9 38L9 37ZM15 37L15 38L16 38L16 37ZM28 37L28 39L29 39L29 40L28 40L28 41L31 41L31 40L32 40L32 41L33 41L33 39L30 39L30 37ZM36 37L36 38L37 38L37 40L38 40L38 38L37 38L37 37ZM21 38L21 41L22 41L22 40L23 40L23 38ZM25 38L25 40L26 40L26 38ZM39 38L39 39L40 39L40 38ZM13 39L13 40L14 40L14 39ZM0 0L0 7L7 7L7 0ZM1 1L1 6L6 6L6 1ZM2 2L2 5L5 5L5 2ZM34 0L34 7L41 7L41 0ZM35 1L35 6L40 6L40 1ZM36 2L36 5L39 5L39 2ZM0 34L0 41L7 41L7 34ZM1 35L1 40L6 40L6 35ZM2 36L2 39L5 39L5 36Z" fill="#000000"/></g></g></svg>
