<?xml version="1.0" encoding="UTF-8"?>
<svg xmlns="http://www.w3.org/2000/svg" version="1.1" width="200" height="200" viewBox="0 0 200 200"><rect x="0" y="0" width="200" height="200" fill="#ffffff"/><g transform="scale(4.878)"><g transform="translate(0,0)"><path fill-rule="evenodd" d="M8 0L8 3L9 3L9 5L8 5L8 9L7 9L7 8L6 8L6 9L5 9L5 8L2 8L2 10L3 10L3 11L4 11L4 9L5 9L5 11L7 11L7 12L6 12L6 13L7 13L7 14L4 14L4 15L3 15L3 16L4 16L4 17L7 17L7 18L5 18L5 19L4 19L4 18L3 18L3 17L2 17L2 15L1 15L1 14L2 14L2 11L1 11L1 10L0 10L0 13L1 13L1 14L0 14L0 15L1 15L1 16L0 16L0 18L1 18L1 17L2 17L2 19L1 19L1 20L0 20L0 24L1 24L1 23L2 23L2 22L1 22L1 20L2 20L2 21L4 21L4 22L5 22L5 24L6 24L6 25L5 25L5 28L4 28L4 25L3 25L3 26L2 26L2 25L0 25L0 27L2 27L2 28L0 28L0 33L1 33L1 29L2 29L2 30L4 30L4 29L5 29L5 31L4 31L4 32L3 32L3 31L2 31L2 33L8 33L8 34L9 34L9 36L8 36L8 39L10 39L10 41L13 41L13 40L12 40L12 39L13 39L13 38L12 38L12 37L11 37L11 35L13 35L13 36L14 36L14 38L15 38L15 39L16 39L16 41L17 41L17 39L18 39L18 41L22 41L22 40L23 40L23 41L25 41L25 40L26 40L26 41L27 41L27 40L28 40L28 41L31 41L31 40L33 40L33 41L34 41L34 40L33 40L33 39L35 39L35 40L36 40L36 39L37 39L37 40L40 40L40 38L41 38L41 37L40 37L40 36L37 36L37 33L39 33L39 34L38 34L38 35L40 35L40 34L41 34L41 33L40 33L40 30L41 30L41 29L40 29L40 26L41 26L41 23L39 23L39 22L38 22L38 23L39 23L39 24L40 24L40 26L39 26L39 25L34 25L34 24L35 24L35 23L36 23L36 24L37 24L37 21L39 21L39 20L36 20L36 19L35 19L35 17L36 17L36 18L37 18L37 19L38 19L38 18L37 18L37 17L39 17L39 16L37 16L37 15L39 15L39 14L41 14L41 13L40 13L40 12L41 12L41 11L40 11L40 10L41 10L41 8L38 8L38 9L40 9L40 10L37 10L37 9L36 9L36 8L33 8L33 6L32 6L32 9L30 9L30 8L29 8L29 6L30 6L30 7L31 7L31 6L30 6L30 5L33 5L33 4L30 4L30 5L27 5L27 4L26 4L26 7L25 7L25 6L24 6L24 5L25 5L25 1L23 1L23 2L24 2L24 5L23 5L23 6L22 6L22 5L20 5L20 3L21 3L21 4L23 4L23 3L21 3L21 2L22 2L22 0L21 0L21 2L20 2L20 0L19 0L19 1L18 1L18 2L17 2L17 0L12 0L12 1L11 1L11 2L12 2L12 1L13 1L13 2L14 2L14 3L9 3L9 1L10 1L10 0ZM26 0L26 1L27 1L27 2L26 2L26 3L28 3L28 4L29 4L29 3L32 3L32 2L33 2L33 1L32 1L32 0L31 0L31 1L32 1L32 2L30 2L30 0L29 0L29 1L27 1L27 0ZM15 2L15 3L14 3L14 4L13 4L13 5L11 5L11 4L10 4L10 5L9 5L9 9L10 9L10 10L8 10L8 12L7 12L7 13L8 13L8 14L7 14L7 15L6 15L6 16L7 16L7 15L10 15L10 16L8 16L8 18L7 18L7 19L5 19L5 20L7 20L7 19L8 19L8 21L6 21L6 22L8 22L8 24L7 24L7 23L6 23L6 24L7 24L7 25L6 25L6 26L7 26L7 27L6 27L6 28L5 28L5 29L6 29L6 30L7 30L7 31L5 31L5 32L7 32L7 31L8 31L8 30L9 30L9 32L8 32L8 33L9 33L9 32L10 32L10 34L11 34L11 32L13 32L13 31L11 31L11 30L14 30L14 31L15 31L15 33L12 33L12 34L16 34L16 38L19 38L19 39L20 39L20 35L21 35L21 36L23 36L23 37L22 37L22 39L23 39L23 40L24 40L24 38L26 38L26 37L27 37L27 38L28 38L28 40L31 40L31 38L30 38L30 37L32 37L32 39L33 39L33 38L36 38L36 37L32 37L32 36L29 36L29 37L27 37L27 36L28 36L28 35L29 35L29 33L27 33L27 30L25 30L25 29L27 29L27 28L28 28L28 27L27 27L27 28L26 28L26 25L27 25L27 26L28 26L28 25L29 25L29 24L30 24L30 25L32 25L32 26L29 26L29 28L31 28L31 29L28 29L28 30L29 30L29 31L28 31L28 32L31 32L31 31L30 31L30 30L32 30L32 31L33 31L33 32L36 32L36 31L37 31L37 32L39 32L39 31L38 31L38 30L39 30L39 26L38 26L38 28L36 28L36 29L35 29L35 26L34 26L34 25L32 25L32 24L33 24L33 23L35 23L35 22L36 22L36 21L35 21L35 19L34 19L34 18L33 18L33 17L32 17L32 16L34 16L34 17L35 17L35 16L36 16L36 17L37 17L37 16L36 16L36 13L37 13L37 14L39 14L39 11L38 11L38 12L36 12L36 11L37 11L37 10L36 10L36 9L35 9L35 10L36 10L36 11L35 11L35 13L34 13L34 12L33 12L33 13L32 13L32 12L31 12L31 17L29 17L29 16L30 16L30 15L29 15L29 14L30 14L30 13L29 13L29 12L30 12L30 11L34 11L34 9L32 9L32 10L30 10L30 9L29 9L29 8L28 8L28 6L27 6L27 8L26 8L26 10L28 10L28 9L29 9L29 11L28 11L28 13L29 13L29 14L27 14L27 16L26 16L26 13L27 13L27 12L26 12L26 13L25 13L25 11L24 11L24 13L25 13L25 14L22 14L22 13L21 13L21 12L23 12L23 9L25 9L25 7L24 7L24 6L23 6L23 7L22 7L22 6L21 6L21 7L20 7L20 5L19 5L19 7L18 7L18 6L17 6L17 5L15 5L15 8L17 8L17 7L18 7L18 8L19 8L19 10L18 10L18 9L17 9L17 10L18 10L18 11L16 11L16 9L14 9L14 10L12 10L12 11L11 11L11 9L13 9L13 7L14 7L14 4L19 4L19 2L18 2L18 3L17 3L17 2ZM10 5L10 7L11 7L11 8L10 8L10 9L11 9L11 8L12 8L12 7L13 7L13 6L12 6L12 7L11 7L11 5ZM16 6L16 7L17 7L17 6ZM21 8L21 9L20 9L20 10L19 10L19 13L18 13L18 12L17 12L17 14L16 14L16 17L17 17L17 16L18 16L18 14L19 14L19 16L20 16L20 17L19 17L19 18L20 18L20 19L21 19L21 20L20 20L20 21L19 21L19 20L16 20L16 21L14 21L14 20L13 20L13 19L16 19L16 18L13 18L13 17L12 17L12 16L13 16L13 15L11 15L11 16L10 16L10 18L11 18L11 19L10 19L10 21L11 21L11 22L10 22L10 23L9 23L9 24L10 24L10 25L8 25L8 27L9 27L9 26L10 26L10 27L11 27L11 28L10 28L10 29L9 29L9 28L6 28L6 29L7 29L7 30L8 30L8 29L9 29L9 30L10 30L10 29L11 29L11 28L12 28L12 29L13 29L13 28L12 28L12 27L11 27L11 24L12 24L12 23L13 23L13 22L14 22L14 27L15 27L15 22L17 22L17 25L18 25L18 26L17 26L17 27L19 27L19 26L20 26L20 21L21 21L21 20L23 20L23 22L21 22L21 24L22 24L22 25L21 25L21 26L24 26L24 28L23 28L23 27L20 27L20 28L18 28L18 30L16 30L16 32L17 32L17 31L18 31L18 33L19 33L19 31L20 31L20 30L23 30L23 31L24 31L24 28L25 28L25 26L24 26L24 25L26 25L26 22L27 22L27 23L28 23L28 22L27 22L27 21L29 21L29 19L28 19L28 18L27 18L27 19L28 19L28 20L27 20L27 21L26 21L26 18L25 18L25 17L26 17L26 16L25 16L25 15L23 15L23 16L22 16L22 15L20 15L20 14L21 14L21 13L20 13L20 11L22 11L22 9L23 9L23 8ZM27 8L27 9L28 9L28 8ZM6 9L6 10L7 10L7 9ZM10 11L10 13L9 13L9 14L11 14L11 11ZM12 11L12 12L13 12L13 11ZM14 11L14 12L15 12L15 13L16 13L16 11ZM13 13L13 14L14 14L14 17L15 17L15 14L14 14L14 13ZM33 13L33 14L32 14L32 15L34 15L34 13ZM28 15L28 16L29 16L29 15ZM21 16L21 17L20 17L20 18L22 18L22 19L23 19L23 18L24 18L24 17L22 17L22 16ZM40 16L40 18L39 18L39 19L40 19L40 18L41 18L41 16ZM31 17L31 18L30 18L30 19L31 19L31 20L30 20L30 21L31 21L31 22L29 22L29 23L30 23L30 24L31 24L31 22L32 22L32 21L34 21L34 22L35 22L35 21L34 21L34 20L33 20L33 19L31 19L31 18L32 18L32 17ZM12 18L12 19L13 19L13 18ZM3 19L3 20L4 20L4 19ZM24 19L24 21L25 21L25 19ZM12 20L12 21L13 21L13 20ZM31 20L31 21L32 21L32 20ZM40 20L40 21L41 21L41 20ZM8 21L8 22L9 22L9 21ZM18 22L18 25L19 25L19 22ZM24 22L24 24L25 24L25 22ZM22 23L22 24L23 24L23 23ZM27 24L27 25L28 25L28 24ZM12 25L12 26L13 26L13 25ZM32 26L32 28L33 28L33 29L32 29L32 30L33 30L33 29L34 29L34 28L33 28L33 27L34 27L34 26ZM2 28L2 29L4 29L4 28ZM14 28L14 30L15 30L15 29L16 29L16 28ZM20 28L20 29L19 29L19 30L18 30L18 31L19 31L19 30L20 30L20 29L22 29L22 28ZM36 29L36 30L34 30L34 31L36 31L36 30L38 30L38 29ZM20 32L20 33L21 33L21 34L22 34L22 35L24 35L24 36L25 36L25 35L26 35L26 36L27 36L27 35L28 35L28 34L27 34L27 33L26 33L26 32L22 32L22 33L21 33L21 32ZM22 33L22 34L24 34L24 33ZM25 33L25 34L26 34L26 33ZM30 33L30 35L31 35L31 34L32 34L32 33ZM33 33L33 36L36 36L36 33ZM18 34L18 35L17 35L17 36L18 36L18 37L19 37L19 36L18 36L18 35L20 35L20 34ZM34 34L34 35L35 35L35 34ZM14 35L14 36L15 36L15 35ZM9 37L9 38L10 38L10 39L12 39L12 38L10 38L10 37ZM37 38L37 39L38 39L38 38ZM26 39L26 40L27 40L27 39ZM14 40L14 41L15 41L15 40ZM0 0L0 7L7 7L7 0ZM1 1L1 6L6 6L6 1ZM2 2L2 5L5 5L5 2ZM34 0L34 7L41 7L41 0ZM35 1L35 6L40 6L40 1ZM36 2L36 5L39 5L39 2ZM0 34L0 41L7 41L7 34ZM1 35L1 40L6 40L6 35ZM2 36L2 39L5 39L5 36Z" fill="#000000"/></g></g></svg>
