<?xml version="1.0" encoding="UTF-8"?>
<svg xmlns="http://www.w3.org/2000/svg" version="1.1" width="200" height="200" viewBox="0 0 200 200"><rect x="0" y="0" width="200" height="200" fill="#ffffff"/><g transform="scale(4.878)"><g transform="translate(0,0)"><path fill-rule="evenodd" d="M9 0L9 1L11 1L11 0ZM13 0L13 1L15 1L15 0ZM17 0L17 1L16 1L16 3L15 3L15 4L14 4L14 7L15 7L15 8L16 8L16 9L15 9L15 10L17 10L17 11L18 11L18 13L19 13L19 14L18 14L18 15L19 15L19 16L18 16L18 17L19 17L19 18L18 18L18 19L17 19L17 20L16 20L16 18L15 18L15 17L16 17L16 15L17 15L17 13L15 13L15 12L16 12L16 11L15 11L15 12L14 12L14 8L13 8L13 6L12 6L12 4L13 4L13 2L12 2L12 4L9 4L9 3L10 3L10 2L8 2L8 4L9 4L9 6L8 6L8 7L9 7L9 9L8 9L8 8L6 8L6 9L5 9L5 8L3 8L3 11L1 11L1 10L0 10L0 11L1 11L1 12L4 12L4 14L2 14L2 17L1 17L1 18L2 18L2 19L0 19L0 21L2 21L2 20L3 20L3 22L2 22L2 23L1 23L1 24L0 24L0 27L2 27L2 28L0 28L0 33L2 33L2 32L3 32L3 33L4 33L4 32L5 32L5 33L7 33L7 32L9 32L9 33L8 33L8 35L9 35L9 33L11 33L11 34L12 34L12 36L11 36L11 35L10 35L10 36L8 36L8 38L9 38L9 37L10 37L10 39L9 39L9 40L11 40L11 41L12 41L12 40L11 40L11 38L12 38L12 36L13 36L13 40L14 40L14 41L15 41L15 40L16 40L16 41L21 41L21 39L20 39L20 40L19 40L19 38L22 38L22 40L23 40L23 41L24 41L24 40L23 40L23 39L24 39L24 38L25 38L25 39L27 39L27 41L28 41L28 40L29 40L29 38L30 38L30 39L31 39L31 40L32 40L32 41L34 41L34 40L35 40L35 41L36 41L36 39L37 39L37 40L38 40L38 41L39 41L39 40L38 40L38 39L40 39L40 40L41 40L41 36L39 36L39 37L40 37L40 38L37 38L37 34L38 34L38 35L40 35L40 34L39 34L39 32L40 32L40 33L41 33L41 32L40 32L40 31L41 31L41 30L38 30L38 29L39 29L39 27L41 27L41 25L39 25L39 24L37 24L37 21L38 21L38 22L41 22L41 21L39 21L39 20L40 20L40 19L41 19L41 18L40 18L40 19L39 19L39 18L38 18L38 20L36 20L36 18L37 18L37 17L38 17L38 16L40 16L40 17L41 17L41 11L40 11L40 9L39 9L39 8L37 8L37 9L35 9L35 10L34 10L34 11L36 11L36 12L35 12L35 13L36 13L36 14L37 14L37 13L38 13L38 14L39 14L39 15L38 15L38 16L37 16L37 15L35 15L35 14L33 14L33 13L32 13L32 12L30 12L30 10L29 10L29 11L28 11L28 9L31 9L31 10L33 10L33 8L32 8L32 7L33 7L33 4L32 4L32 2L33 2L33 0L32 0L32 1L31 1L31 2L30 2L30 1L29 1L29 0L28 0L28 2L27 2L27 1L26 1L26 0L24 0L24 1L23 1L23 2L22 2L22 1L20 1L20 0L19 0L19 2L17 2L17 1L18 1L18 0ZM20 2L20 3L21 3L21 2ZM23 2L23 4L22 4L22 5L21 5L21 4L19 4L19 3L16 3L16 6L15 6L15 7L16 7L16 6L17 6L17 7L18 7L18 6L19 6L19 8L18 8L18 9L19 9L19 8L20 8L20 9L21 9L21 8L20 8L20 6L19 6L19 5L21 5L21 7L22 7L22 5L23 5L23 7L24 7L24 5L25 5L25 4L26 4L26 6L25 6L25 7L26 7L26 8L25 8L25 9L26 9L26 10L25 10L25 11L26 11L26 12L25 12L25 13L24 13L24 12L23 12L23 8L22 8L22 10L20 10L20 11L19 11L19 10L18 10L18 11L19 11L19 12L20 12L20 11L22 11L22 12L23 12L23 13L20 13L20 15L21 15L21 16L19 16L19 17L20 17L20 20L17 20L17 21L14 21L14 20L12 20L12 19L11 19L11 16L12 16L12 17L13 17L13 18L14 18L14 19L15 19L15 18L14 18L14 17L13 17L13 16L15 16L15 13L14 13L14 14L12 14L12 15L11 15L11 14L10 14L10 13L11 13L11 12L13 12L13 11L11 11L11 10L12 10L12 9L11 9L11 10L10 10L10 9L9 9L9 10L10 10L10 11L11 11L11 12L10 12L10 13L9 13L9 11L8 11L8 10L7 10L7 9L6 9L6 10L7 10L7 11L6 11L6 12L5 12L5 14L7 14L7 15L4 15L4 16L5 16L5 17L6 17L6 18L7 18L7 19L6 19L6 20L4 20L4 19L5 19L5 18L3 18L3 17L2 17L2 18L3 18L3 20L4 20L4 22L3 22L3 23L2 23L2 24L1 24L1 25L2 25L2 27L3 27L3 26L4 26L4 25L3 25L3 24L5 24L5 25L6 25L6 26L5 26L5 28L2 28L2 29L5 29L5 30L4 30L4 31L6 31L6 32L7 32L7 31L8 31L8 30L7 30L7 29L8 29L8 28L9 28L9 29L11 29L11 30L12 30L12 29L13 29L13 27L14 27L14 30L13 30L13 31L11 31L11 33L12 33L12 32L13 32L13 33L14 33L14 32L17 32L17 33L16 33L16 34L15 34L15 35L13 35L13 36L16 36L16 38L15 38L15 39L16 39L16 38L17 38L17 39L18 39L18 38L19 38L19 37L21 37L21 35L20 35L20 34L19 34L19 33L18 33L18 31L20 31L20 32L21 32L21 31L22 31L22 32L23 32L23 33L21 33L21 34L23 34L23 36L22 36L22 37L23 37L23 36L24 36L24 35L26 35L26 37L25 37L25 38L26 38L26 37L27 37L27 36L30 36L30 37L31 37L31 36L32 36L32 35L31 35L31 33L32 33L32 32L33 32L33 31L34 31L34 32L37 32L37 33L38 33L38 32L37 32L37 31L35 31L35 30L33 30L33 31L32 31L32 27L33 27L33 26L34 26L34 24L33 24L33 23L36 23L36 21L34 21L34 22L33 22L33 23L32 23L32 22L31 22L31 21L30 21L30 20L33 20L33 19L34 19L34 20L35 20L35 17L37 17L37 16L34 16L34 17L33 17L33 16L32 16L32 15L31 15L31 14L30 14L30 12L29 12L29 14L30 14L30 15L28 15L28 13L27 13L27 15L28 15L28 16L27 16L27 17L25 17L25 19L22 19L22 17L21 17L21 16L23 16L23 15L22 15L22 14L25 14L25 13L26 13L26 12L27 12L27 9L26 9L26 8L28 8L28 4L26 4L26 3L25 3L25 2ZM28 2L28 3L29 3L29 5L30 5L30 4L31 4L31 3L29 3L29 2ZM17 4L17 6L18 6L18 5L19 5L19 4ZM23 4L23 5L24 5L24 4ZM10 5L10 6L9 6L9 7L10 7L10 8L12 8L12 6L11 6L11 5ZM31 5L31 7L30 7L30 6L29 6L29 8L31 8L31 7L32 7L32 5ZM10 6L10 7L11 7L11 6ZM26 6L26 7L27 7L27 6ZM37 9L37 10L38 10L38 12L40 12L40 11L39 11L39 10L38 10L38 9ZM4 10L4 11L5 11L5 10ZM6 12L6 13L7 13L7 14L8 14L8 13L7 13L7 12ZM36 12L36 13L37 13L37 12ZM0 13L0 14L1 14L1 13ZM0 15L0 16L1 16L1 15ZM7 15L7 16L6 16L6 17L9 17L9 18L8 18L8 19L7 19L7 20L6 20L6 21L5 21L5 22L6 22L6 23L5 23L5 24L6 24L6 25L7 25L7 26L6 26L6 27L7 27L7 26L8 26L8 25L7 25L7 24L8 24L8 23L12 23L12 25L11 25L11 24L9 24L9 25L10 25L10 26L9 26L9 28L10 28L10 26L11 26L11 27L12 27L12 26L13 26L13 23L12 23L12 21L11 21L11 22L9 22L9 21L8 21L8 20L10 20L10 17L9 17L9 16L11 16L11 15L9 15L9 16L8 16L8 15ZM12 15L12 16L13 16L13 15ZM24 15L24 16L25 16L25 15ZM30 16L30 17L27 17L27 19L32 19L32 17L31 17L31 16ZM30 17L30 18L31 18L31 17ZM20 20L20 22L19 22L19 21L17 21L17 22L16 22L16 23L17 23L17 24L16 24L16 25L18 25L18 27L17 27L17 28L16 28L16 26L14 26L14 27L15 27L15 30L14 30L14 31L16 31L16 30L18 30L18 29L20 29L20 30L21 30L21 29L20 29L20 28L23 28L23 29L24 29L24 26L25 26L25 27L27 27L27 29L28 29L28 30L26 30L26 28L25 28L25 30L26 30L26 31L28 31L28 30L30 30L30 31L31 31L31 29L29 29L29 26L30 26L30 25L31 25L31 23L29 23L29 21L28 21L28 20L26 20L26 22L25 22L25 20L22 20L22 21L21 21L21 20ZM6 21L6 22L7 22L7 21ZM23 21L23 24L25 24L25 22L24 22L24 21ZM14 22L14 25L15 25L15 22ZM17 22L17 23L18 23L18 22ZM20 22L20 23L19 23L19 24L18 24L18 25L21 25L21 26L20 26L20 27L23 27L23 26L24 26L24 25L21 25L21 24L20 24L20 23L21 23L21 22ZM6 23L6 24L7 24L7 23ZM26 23L26 24L29 24L29 25L30 25L30 24L29 24L29 23ZM32 24L32 25L33 25L33 24ZM35 24L35 26L36 26L36 25L37 25L37 27L39 27L39 25L37 25L37 24ZM25 25L25 26L26 26L26 25ZM31 26L31 27L32 27L32 26ZM18 27L18 28L17 28L17 29L18 29L18 28L19 28L19 27ZM35 27L35 28L34 28L34 29L38 29L38 28L36 28L36 27ZM5 28L5 29L7 29L7 28ZM11 28L11 29L12 29L12 28ZM6 30L6 31L7 31L7 30ZM9 30L9 31L10 31L10 30ZM23 30L23 31L24 31L24 32L25 32L25 31L24 31L24 30ZM27 32L27 35L29 35L29 34L30 34L30 33L31 33L31 32L29 32L29 33L28 33L28 32ZM23 33L23 34L25 34L25 33ZM33 33L33 36L36 36L36 33ZM18 34L18 36L20 36L20 35L19 35L19 34ZM34 34L34 35L35 35L35 34ZM30 35L30 36L31 36L31 35ZM10 36L10 37L11 37L11 36ZM33 37L33 38L31 38L31 39L32 39L32 40L33 40L33 39L35 39L35 38L36 38L36 37ZM25 40L25 41L26 41L26 40ZM0 0L0 7L7 7L7 0ZM1 1L1 6L6 6L6 1ZM2 2L2 5L5 5L5 2ZM34 0L34 7L41 7L41 0ZM35 1L35 6L40 6L40 1ZM36 2L36 5L39 5L39 2ZM0 34L0 41L7 41L7 34ZM1 35L1 40L6 40L6 35ZM2 36L2 39L5 39L5 36Z" fill="#000000"/></g></g></svg>
