<?xml version="1.0" encoding="UTF-8"?>
<svg xmlns="http://www.w3.org/2000/svg" version="1.1" width="200" height="200" viewBox="0 0 200 200"><rect x="0" y="0" width="200" height="200" fill="#ffffff"/><g transform="scale(4.878)"><g transform="translate(0,0)"><path fill-rule="evenodd" d="M9 0L9 1L8 1L8 2L9 2L9 3L10 3L10 4L9 4L9 5L8 5L8 8L4 8L4 9L5 9L5 10L4 10L4 12L5 12L5 13L4 13L4 14L0 14L0 15L1 15L1 17L2 17L2 15L3 15L3 16L4 16L4 17L3 17L3 18L1 18L1 19L0 19L0 20L1 20L1 21L0 21L0 22L1 22L1 23L0 23L0 25L1 25L1 24L3 24L3 25L2 25L2 26L1 26L1 27L0 27L0 28L1 28L1 29L0 29L0 30L2 30L2 29L3 29L3 30L4 30L4 31L3 31L3 33L4 33L4 31L5 31L5 30L4 30L4 28L5 28L5 29L7 29L7 30L6 30L6 31L7 31L7 30L8 30L8 31L9 31L9 32L8 32L8 37L9 37L9 38L10 38L10 39L9 39L9 41L11 41L11 40L10 40L10 39L12 39L12 38L10 38L10 37L13 37L13 38L14 38L14 39L13 39L13 41L14 41L14 40L15 40L15 41L16 41L16 40L17 40L17 41L18 41L18 40L19 40L19 41L21 41L21 40L22 40L22 41L23 41L23 40L25 40L25 39L28 39L28 41L31 41L31 40L30 40L30 39L29 39L29 38L28 38L28 37L29 37L29 35L28 35L28 33L29 33L29 34L30 34L30 35L31 35L31 37L30 37L30 38L31 38L31 37L33 37L33 39L32 39L32 41L33 41L33 39L34 39L34 40L35 40L35 39L34 39L34 37L36 37L36 38L37 38L37 33L38 33L38 34L39 34L39 35L40 35L40 36L41 36L41 33L40 33L40 34L39 34L39 33L38 33L38 31L40 31L40 32L41 32L41 29L40 29L40 28L41 28L41 24L40 24L40 23L41 23L41 22L40 22L40 21L41 21L41 13L40 13L40 12L41 12L41 9L40 9L40 8L39 8L39 9L36 9L36 8L34 8L34 9L32 9L32 8L31 8L31 9L30 9L30 7L31 7L31 6L32 6L32 7L33 7L33 2L32 2L32 1L31 1L31 0L29 0L29 1L28 1L28 0L27 0L27 1L26 1L26 0L24 0L24 1L25 1L25 2L23 2L23 1L20 1L20 0L18 0L18 1L17 1L17 0L15 0L15 1L13 1L13 0L12 0L12 1L11 1L11 0ZM9 1L9 2L11 2L11 5L9 5L9 8L8 8L8 10L9 10L9 12L8 12L8 14L7 14L7 13L5 13L5 14L4 14L4 15L5 15L5 16L9 16L9 17L10 17L10 18L8 18L8 17L4 17L4 18L3 18L3 19L4 19L4 20L5 20L5 21L4 21L4 22L3 22L3 24L4 24L4 23L6 23L6 24L8 24L8 25L9 25L9 27L10 27L10 29L9 29L9 28L8 28L8 26L7 26L7 25L3 25L3 26L2 26L2 27L1 27L1 28L4 28L4 27L3 27L3 26L7 26L7 27L6 27L6 28L8 28L8 30L10 30L10 33L9 33L9 34L10 34L10 36L9 36L9 37L10 37L10 36L11 36L11 34L12 34L12 35L13 35L13 37L14 37L14 38L15 38L15 36L16 36L16 37L18 37L18 35L17 35L17 36L16 36L16 35L15 35L15 34L14 34L14 33L13 33L13 32L14 32L14 31L13 31L13 30L14 30L14 29L13 29L13 28L11 28L11 26L12 26L12 27L13 27L13 25L11 25L11 24L10 24L10 23L12 23L12 24L13 24L13 23L14 23L14 22L15 22L15 23L17 23L17 22L18 22L18 23L19 23L19 22L21 22L21 21L23 21L23 22L22 22L22 24L21 24L21 23L20 23L20 24L19 24L19 25L18 25L18 26L17 26L17 27L14 27L14 28L15 28L15 29L16 29L16 28L18 28L18 29L17 29L17 30L18 30L18 31L16 31L16 30L15 30L15 31L16 31L16 32L15 32L15 33L19 33L19 34L20 34L20 36L21 36L21 37L19 37L19 38L17 38L17 40L18 40L18 39L20 39L20 40L21 40L21 38L22 38L22 39L23 39L23 38L24 38L24 39L25 39L25 37L23 37L23 38L22 38L22 36L21 36L21 35L23 35L23 36L25 36L25 35L26 35L26 34L24 34L24 32L25 32L25 33L26 33L26 31L27 31L27 30L28 30L28 31L29 31L29 30L30 30L30 32L31 32L31 33L30 33L30 34L31 34L31 33L32 33L32 32L31 32L31 30L30 30L30 29L31 29L31 28L30 28L30 29L28 29L28 27L29 27L29 25L28 25L28 24L29 24L29 23L27 23L27 22L26 22L26 24L24 24L24 25L25 25L25 26L24 26L24 28L22 28L22 27L21 27L21 28L22 28L22 29L23 29L23 30L24 30L24 31L23 31L23 34L21 34L21 32L20 32L20 30L21 30L21 29L20 29L20 30L18 30L18 29L19 29L19 28L20 28L20 24L21 24L21 26L22 26L22 25L23 25L23 23L25 23L25 22L24 22L24 21L25 21L25 20L26 20L26 21L27 21L27 20L26 20L26 19L27 19L27 17L25 17L25 15L26 15L26 14L25 14L25 13L21 13L21 12L23 12L23 11L24 11L24 10L25 10L25 9L23 9L23 11L22 11L22 8L23 8L23 7L24 7L24 6L25 6L25 8L26 8L26 11L25 11L25 12L27 12L27 16L28 16L28 19L29 19L29 18L30 18L30 19L31 19L31 20L32 20L32 21L30 21L30 20L28 20L28 21L29 21L29 22L31 22L31 24L30 24L30 25L31 25L31 27L33 27L33 29L32 29L32 31L33 31L33 32L34 32L34 31L35 31L35 32L37 32L37 30L38 30L38 29L37 29L37 26L38 26L38 28L40 28L40 27L39 27L39 25L37 25L37 24L39 24L39 23L40 23L40 22L39 22L39 23L37 23L37 22L36 22L36 21L35 21L35 20L36 20L36 19L35 19L35 18L36 18L36 17L39 17L39 16L40 16L40 13L39 13L39 14L38 14L38 13L37 13L37 10L36 10L36 9L35 9L35 10L33 10L33 11L34 11L34 12L35 12L35 13L33 13L33 12L32 12L32 9L31 9L31 10L30 10L30 9L29 9L29 8L28 8L28 5L29 5L29 7L30 7L30 4L29 4L29 3L31 3L31 5L32 5L32 3L31 3L31 1L30 1L30 2L28 2L28 1L27 1L27 2L28 2L28 3L26 3L26 2L25 2L25 5L24 5L24 3L23 3L23 4L22 4L22 5L21 5L21 2L20 2L20 4L19 4L19 3L16 3L16 2L11 2L11 1ZM18 1L18 2L19 2L19 1ZM14 3L14 4L12 4L12 5L11 5L11 6L10 6L10 9L12 9L12 10L11 10L11 11L12 11L12 10L13 10L13 12L9 12L9 13L10 13L10 15L9 15L9 14L8 14L8 15L9 15L9 16L10 16L10 15L11 15L11 16L12 16L12 17L11 17L11 18L10 18L10 21L9 21L9 20L8 20L8 22L6 22L6 23L9 23L9 22L10 22L10 21L11 21L11 22L12 22L12 23L13 23L13 22L14 22L14 21L16 21L16 18L17 18L17 19L18 19L18 20L19 20L19 19L20 19L20 21L21 21L21 20L23 20L23 21L24 21L24 20L23 20L23 19L26 19L26 18L25 18L25 17L24 17L24 15L25 15L25 14L24 14L24 15L20 15L20 14L21 14L21 13L20 13L20 14L19 14L19 13L18 13L18 12L17 12L17 11L18 11L18 9L19 9L19 12L20 12L20 10L21 10L21 8L22 8L22 7L23 7L23 6L24 6L24 5L22 5L22 7L21 7L21 6L20 6L20 7L19 7L19 6L18 6L18 5L19 5L19 4L15 4L15 3ZM14 4L14 5L12 5L12 6L11 6L11 8L13 8L13 10L17 10L17 9L16 9L16 8L17 8L17 7L18 7L18 6L17 6L17 5L15 5L15 4ZM27 4L27 5L28 5L28 4ZM25 5L25 6L26 6L26 8L27 8L27 6L26 6L26 5ZM12 6L12 7L13 7L13 6ZM14 6L14 7L15 7L15 8L16 8L16 7L17 7L17 6L16 6L16 7L15 7L15 6ZM20 7L20 8L21 8L21 7ZM1 9L1 10L0 10L0 11L1 11L1 12L0 12L0 13L1 13L1 12L2 12L2 11L3 11L3 9ZM6 9L6 10L5 10L5 11L6 11L6 12L7 12L7 11L6 11L6 10L7 10L7 9ZM27 9L27 11L28 11L28 10L29 10L29 9ZM14 11L14 12L13 12L13 13L14 13L14 15L12 15L12 14L11 14L11 15L12 15L12 16L13 16L13 18L11 18L11 19L13 19L13 18L14 18L14 20L13 20L13 21L14 21L14 20L15 20L15 17L14 17L14 15L15 15L15 14L16 14L16 15L18 15L18 16L19 16L19 18L18 18L18 19L19 19L19 18L21 18L21 17L22 17L22 18L23 18L23 17L22 17L22 16L19 16L19 15L18 15L18 14L17 14L17 13L16 13L16 11ZM29 11L29 13L28 13L28 15L29 15L29 17L32 17L32 18L33 18L33 17L32 17L32 16L31 16L31 15L29 15L29 13L30 13L30 14L32 14L32 15L34 15L34 16L35 16L35 17L34 17L34 18L35 18L35 17L36 17L36 16L35 16L35 15L36 15L36 14L37 14L37 13L36 13L36 14L33 14L33 13L32 13L32 12L30 12L30 11ZM35 11L35 12L36 12L36 11ZM38 11L38 12L40 12L40 11ZM14 12L14 13L15 13L15 12ZM6 14L6 15L7 15L7 14ZM16 16L16 17L17 17L17 16ZM4 18L4 19L5 19L5 18ZM6 18L6 19L7 19L7 18ZM1 19L1 20L2 20L2 21L3 21L3 20L2 20L2 19ZM32 19L32 20L33 20L33 19ZM34 19L34 20L35 20L35 19ZM38 19L38 21L39 21L39 20L40 20L40 19ZM6 20L6 21L7 21L7 20ZM11 20L11 21L12 21L12 20ZM32 21L32 22L33 22L33 23L32 23L32 24L31 24L31 25L33 25L33 27L34 27L34 28L35 28L35 29L36 29L36 30L37 30L37 29L36 29L36 28L35 28L35 27L36 27L36 26L37 26L37 25L36 25L36 23L35 23L35 21ZM9 24L9 25L10 25L10 24ZM14 24L14 25L15 25L15 24ZM33 24L33 25L35 25L35 26L36 26L36 25L35 25L35 24ZM26 25L26 26L25 26L25 29L26 29L26 30L25 30L25 31L26 31L26 30L27 30L27 27L28 27L28 25ZM26 26L26 27L27 27L27 26ZM18 27L18 28L19 28L19 27ZM10 29L10 30L11 30L11 31L12 31L12 32L13 32L13 31L12 31L12 29ZM33 29L33 30L34 30L34 29ZM39 29L39 30L40 30L40 29ZM18 31L18 32L19 32L19 33L20 33L20 32L19 32L19 31ZM0 32L0 33L2 33L2 32ZM5 32L5 33L7 33L7 32ZM27 32L27 33L28 33L28 32ZM12 33L12 34L13 34L13 33ZM33 33L33 36L36 36L36 33ZM23 34L23 35L24 35L24 34ZM34 34L34 35L35 35L35 34ZM27 35L27 37L28 37L28 35ZM40 37L40 38L38 38L38 39L36 39L36 40L37 40L37 41L40 41L40 40L41 40L41 37ZM0 0L0 7L7 7L7 0ZM1 1L1 6L6 6L6 1ZM2 2L2 5L5 5L5 2ZM34 0L34 7L41 7L41 0ZM35 1L35 6L40 6L40 1ZM36 2L36 5L39 5L39 2ZM0 34L0 41L7 41L7 34ZM1 35L1 40L6 40L6 35ZM2 36L2 39L5 39L5 36Z" fill="#000000"/></g></g></svg>
