<?xml version="1.0" encoding="UTF-8"?>
<svg xmlns="http://www.w3.org/2000/svg" version="1.1" width="200" height="200" viewBox="0 0 200 200"><rect x="0" y="0" width="200" height="200" fill="#ffffff"/><g transform="scale(4.878)"><g transform="translate(0,0)"><path fill-rule="evenodd" d="M8 0L8 3L9 3L9 4L10 4L10 7L9 7L9 5L8 5L8 9L7 9L7 8L6 8L6 9L7 9L7 10L6 10L6 11L5 11L5 10L4 10L4 9L5 9L5 8L2 8L2 9L0 9L0 10L2 10L2 11L1 11L1 12L4 12L4 11L5 11L5 13L4 13L4 14L5 14L5 13L7 13L7 14L6 14L6 15L7 15L7 16L6 16L6 17L7 17L7 16L9 16L9 14L8 14L8 13L9 13L9 12L10 12L10 13L11 13L11 12L12 12L12 18L13 18L13 19L12 19L12 23L11 23L11 22L9 22L9 23L11 23L11 24L8 24L8 23L7 23L7 22L8 22L8 21L9 21L9 20L10 20L10 19L11 19L11 16L10 16L10 17L9 17L9 18L5 18L5 19L4 19L4 18L3 18L3 17L4 17L4 16L5 16L5 15L3 15L3 17L2 17L2 18L1 18L1 16L0 16L0 19L2 19L2 20L0 20L0 22L1 22L1 21L2 21L2 22L3 22L3 21L2 21L2 20L3 20L3 19L4 19L4 21L5 21L5 22L4 22L4 23L2 23L2 25L0 25L0 26L1 26L1 27L2 27L2 26L3 26L3 28L2 28L2 29L3 29L3 30L2 30L2 32L3 32L3 30L5 30L5 27L7 27L7 28L6 28L6 29L7 29L7 30L6 30L6 31L5 31L5 32L4 32L4 33L7 33L7 32L8 32L8 34L9 34L9 36L8 36L8 39L9 39L9 40L10 40L10 41L11 41L11 40L10 40L10 39L11 39L11 36L13 36L13 38L12 38L12 39L13 39L13 38L15 38L15 39L14 39L14 40L12 40L12 41L14 41L14 40L15 40L15 41L16 41L16 40L18 40L18 41L22 41L22 39L23 39L23 38L24 38L24 41L26 41L26 40L28 40L28 38L29 38L29 37L28 37L28 36L32 36L32 37L36 37L36 38L33 38L33 39L32 39L32 38L31 38L31 37L30 37L30 38L31 38L31 39L30 39L30 40L29 40L29 41L30 41L30 40L33 40L33 41L34 41L34 40L33 40L33 39L35 39L35 40L36 40L36 39L37 39L37 40L40 40L40 38L41 38L41 37L40 37L40 36L38 36L38 35L40 35L40 34L41 34L41 33L40 33L40 32L41 32L41 31L40 31L40 30L41 30L41 29L40 29L40 28L41 28L41 27L40 27L40 26L41 26L41 23L39 23L39 22L38 22L38 21L39 21L39 20L36 20L36 19L35 19L35 17L36 17L36 18L37 18L37 19L38 19L38 17L39 17L39 18L41 18L41 16L40 16L40 17L39 17L39 16L37 16L37 13L36 13L36 15L35 15L35 17L34 17L34 16L33 16L33 17L30 17L30 16L31 16L31 15L30 15L30 16L29 16L29 15L28 15L28 16L29 16L29 17L30 17L30 19L31 19L31 18L32 18L32 21L31 21L31 20L30 20L30 21L31 21L31 22L30 22L30 24L27 24L27 23L29 23L29 22L27 22L27 21L29 21L29 18L26 18L26 16L25 16L25 15L27 15L27 14L29 14L29 13L30 13L30 14L31 14L31 12L32 12L32 13L33 13L33 14L32 14L32 15L34 15L34 13L35 13L35 10L36 10L36 11L37 11L37 12L38 12L38 11L40 11L40 10L41 10L41 8L38 8L38 9L40 9L40 10L37 10L37 9L36 9L36 8L33 8L33 6L32 6L32 9L31 9L31 8L29 8L29 9L28 9L28 7L29 7L29 4L28 4L28 5L27 5L27 4L25 4L25 5L24 5L24 3L23 3L23 2L22 2L22 1L24 1L24 0L22 0L22 1L21 1L21 0L20 0L20 1L17 1L17 0L16 0L16 1L17 1L17 2L16 2L16 4L18 4L18 7L17 7L17 5L15 5L15 4L14 4L14 3L13 3L13 4L10 4L10 2L11 2L11 3L12 3L12 2L11 2L11 1L13 1L13 2L15 2L15 1L14 1L14 0L11 0L11 1L10 1L10 2L9 2L9 0ZM26 0L26 1L27 1L27 2L26 2L26 3L31 3L31 2L30 2L30 0L29 0L29 1L27 1L27 0ZM31 0L31 1L32 1L32 2L33 2L33 1L32 1L32 0ZM17 2L17 3L18 3L18 4L19 4L19 7L20 7L20 6L21 6L21 8L22 8L22 9L21 9L21 10L19 10L19 11L21 11L21 12L20 12L20 13L18 13L18 14L16 14L16 13L15 13L15 11L14 11L14 10L13 10L13 8L14 8L14 9L15 9L15 10L16 10L16 11L17 11L17 12L18 12L18 11L17 11L17 10L16 10L16 9L15 9L15 8L16 8L16 6L15 6L15 5L14 5L14 6L13 6L13 8L12 8L12 5L11 5L11 7L10 7L10 8L9 8L9 10L10 10L10 12L11 12L11 11L12 11L12 12L13 12L13 11L14 11L14 13L15 13L15 14L16 14L16 16L17 16L17 18L16 18L16 21L17 21L17 22L16 22L16 23L17 23L17 24L16 24L16 25L14 25L14 26L13 26L13 23L12 23L12 25L11 25L11 26L10 26L10 29L11 29L11 27L12 27L12 26L13 26L13 28L14 28L14 31L15 31L15 32L16 32L16 34L15 34L15 33L14 33L14 32L12 32L12 34L11 34L11 31L13 31L13 29L12 29L12 30L11 30L11 31L9 31L9 34L11 34L11 35L10 35L10 36L11 36L11 35L14 35L14 34L15 34L15 38L16 38L16 39L18 39L18 40L21 40L21 39L20 39L20 37L21 37L21 38L23 38L23 37L22 37L22 36L21 36L21 35L23 35L23 36L24 36L24 35L26 35L26 37L25 37L25 38L26 38L26 37L27 37L27 38L28 38L28 37L27 37L27 35L26 35L26 30L27 30L27 28L28 28L28 27L29 27L29 28L31 28L31 29L28 29L28 30L30 30L30 31L28 31L28 32L30 32L30 31L31 31L31 30L32 30L32 31L33 31L33 32L36 32L36 31L37 31L37 32L39 32L39 28L40 28L40 27L39 27L39 26L40 26L40 24L39 24L39 23L38 23L38 22L37 22L37 24L36 24L36 23L35 23L35 22L36 22L36 21L35 21L35 19L34 19L34 18L33 18L33 20L34 20L34 21L32 21L32 22L31 22L31 24L33 24L33 23L34 23L34 25L32 25L32 26L31 26L31 25L30 25L30 26L29 26L29 25L27 25L27 26L28 26L28 27L27 27L27 28L26 28L26 25L23 25L23 24L24 24L24 23L25 23L25 22L24 22L24 23L23 23L23 21L26 21L26 20L27 20L27 19L25 19L25 16L24 16L24 19L23 19L23 18L22 18L22 19L23 19L23 20L22 20L22 21L21 21L21 22L19 22L19 21L18 21L18 20L20 20L20 19L21 19L21 17L22 17L22 16L23 16L23 15L24 15L24 13L27 13L27 12L28 12L28 13L29 13L29 12L31 12L31 11L32 11L32 12L33 12L33 13L34 13L34 12L33 12L33 11L34 11L34 10L33 10L33 9L32 9L32 10L31 10L31 9L29 9L29 10L28 10L28 9L26 9L26 8L23 8L23 7L24 7L24 5L23 5L23 7L22 7L22 6L21 6L21 5L20 5L20 4L21 4L21 3L22 3L22 2L19 2L19 3L18 3L18 2ZM19 3L19 4L20 4L20 3ZM30 4L30 5L33 5L33 4ZM25 5L25 7L26 7L26 6L27 6L27 7L28 7L28 6L27 6L27 5ZM14 6L14 7L15 7L15 6ZM30 6L30 7L31 7L31 6ZM10 8L10 10L11 10L11 8ZM17 8L17 9L18 9L18 8ZM19 8L19 9L20 9L20 8ZM22 9L22 10L21 10L21 11L22 11L22 12L21 12L21 13L20 13L20 14L19 14L19 15L20 15L20 16L22 16L22 15L23 15L23 13L22 13L22 12L25 12L25 11L26 11L26 9ZM12 10L12 11L13 11L13 10ZM23 10L23 11L24 11L24 10ZM27 10L27 11L28 11L28 10ZM30 10L30 11L31 11L31 10ZM32 10L32 11L33 11L33 10ZM6 11L6 12L7 12L7 13L8 13L8 12L9 12L9 11L8 11L8 12L7 12L7 11ZM39 12L39 14L38 14L38 15L39 15L39 14L41 14L41 13L40 13L40 12ZM0 13L0 15L2 15L2 14L3 14L3 13ZM7 14L7 15L8 15L8 14ZM10 14L10 15L11 15L11 14ZM13 14L13 15L14 15L14 16L13 16L13 18L14 18L14 16L15 16L15 15L14 15L14 14ZM21 14L21 15L22 15L22 14ZM17 15L17 16L18 16L18 15ZM36 16L36 17L37 17L37 16ZM2 18L2 19L3 19L3 18ZM9 18L9 19L8 19L8 20L9 20L9 19L10 19L10 18ZM19 18L19 19L20 19L20 18ZM6 19L6 20L5 20L5 21L6 21L6 22L5 22L5 23L4 23L4 24L5 24L5 23L6 23L6 24L7 24L7 25L6 25L6 26L7 26L7 27L8 27L8 24L7 24L7 23L6 23L6 22L7 22L7 21L6 21L6 20L7 20L7 19ZM13 19L13 20L14 20L14 22L15 22L15 20L14 20L14 19ZM17 19L17 20L18 20L18 19ZM40 20L40 21L41 21L41 20ZM34 21L34 22L35 22L35 21ZM17 22L17 23L18 23L18 24L21 24L21 23L22 23L22 24L23 24L23 23L22 23L22 22L21 22L21 23L19 23L19 22ZM26 22L26 23L27 23L27 22ZM32 22L32 23L33 23L33 22ZM0 23L0 24L1 24L1 23ZM14 23L14 24L15 24L15 23ZM35 24L35 25L34 25L34 26L33 26L33 27L31 27L31 28L33 28L33 29L32 29L32 30L33 30L33 29L34 29L34 28L33 28L33 27L34 27L34 26L35 26L35 25L36 25L36 27L35 27L35 29L36 29L36 30L38 30L38 29L36 29L36 28L38 28L38 26L39 26L39 25L36 25L36 24ZM4 25L4 27L5 27L5 25ZM16 25L16 26L14 26L14 28L15 28L15 29L16 29L16 30L15 30L15 31L16 31L16 30L17 30L17 28L18 28L18 29L19 29L19 30L18 30L18 31L19 31L19 33L18 33L18 32L17 32L17 34L16 34L16 36L17 36L17 37L18 37L18 34L19 34L19 37L20 37L20 35L21 35L21 34L22 34L22 33L23 33L23 32L25 32L25 31L24 31L24 29L23 29L23 27L24 27L24 26L23 26L23 25L22 25L22 26L20 26L20 25L19 25L19 26L18 26L18 25ZM15 27L15 28L17 28L17 27ZM19 27L19 29L20 29L20 30L19 30L19 31L20 31L20 33L19 33L19 34L20 34L20 33L21 33L21 31L22 31L22 32L23 32L23 29L22 29L22 27ZM3 28L3 29L4 29L4 28ZM7 28L7 29L8 29L8 30L7 30L7 31L6 31L6 32L7 32L7 31L8 31L8 30L9 30L9 28ZM25 28L25 29L26 29L26 28ZM0 29L0 33L1 33L1 29ZM21 29L21 30L20 30L20 31L21 31L21 30L22 30L22 29ZM34 30L34 31L35 31L35 30ZM24 33L24 34L23 34L23 35L24 35L24 34L25 34L25 33ZM27 33L27 34L28 34L28 35L29 35L29 33ZM30 33L30 35L31 35L31 34L32 34L32 33ZM33 33L33 36L36 36L36 33ZM38 33L38 34L37 34L37 35L38 35L38 34L39 34L39 33ZM34 34L34 35L35 35L35 34ZM37 36L37 37L38 37L38 36ZM9 37L9 39L10 39L10 37ZM18 38L18 39L19 39L19 38ZM37 38L37 39L38 39L38 38ZM0 0L0 7L7 7L7 0ZM1 1L1 6L6 6L6 1ZM2 2L2 5L5 5L5 2ZM34 0L34 7L41 7L41 0ZM35 1L35 6L40 6L40 1ZM36 2L36 5L39 5L39 2ZM0 34L0 41L7 41L7 34ZM1 35L1 40L6 40L6 35ZM2 36L2 39L5 39L5 36Z" fill="#000000"/></g></g></svg>
