<?xml version="1.0" encoding="UTF-8"?>
<svg xmlns="http://www.w3.org/2000/svg" version="1.1" width="200" height="200" viewBox="0 0 200 200"><rect x="0" y="0" width="200" height="200" fill="#ffffff"/><g transform="scale(4.878)"><g transform="translate(0,0)"><path fill-rule="evenodd" d="M8 0L8 3L9 3L9 4L10 4L10 7L9 7L9 5L8 5L8 9L9 9L9 8L10 8L10 9L11 9L11 10L8 10L8 11L7 11L7 10L5 10L5 12L4 12L4 13L7 13L7 14L4 14L4 15L3 15L3 12L1 12L1 11L0 11L0 12L1 12L1 13L0 13L0 15L1 15L1 13L2 13L2 17L1 17L1 16L0 16L0 18L2 18L2 19L3 19L3 20L0 20L0 21L2 21L2 23L0 23L0 25L1 25L1 26L0 26L0 27L1 27L1 28L2 28L2 27L3 27L3 29L4 29L4 27L3 27L3 26L6 26L6 27L9 27L9 24L10 24L10 27L12 27L12 28L11 28L11 29L12 29L12 31L13 31L13 32L11 32L11 35L10 35L10 32L9 32L9 29L7 29L7 28L6 28L6 29L5 29L5 30L2 30L2 29L0 29L0 33L1 33L1 30L2 30L2 31L3 31L3 32L2 32L2 33L4 33L4 32L5 32L5 33L7 33L7 32L6 32L6 31L7 31L7 30L8 30L8 34L9 34L9 36L8 36L8 39L9 39L9 40L10 40L10 41L12 41L12 40L10 40L10 38L11 38L11 39L12 39L12 38L11 38L11 35L12 35L12 33L15 33L15 34L14 34L14 35L13 35L13 37L14 37L14 38L13 38L13 39L14 39L14 41L15 41L15 39L17 39L17 40L16 40L16 41L17 41L17 40L18 40L18 41L20 41L20 39L19 39L19 38L20 38L20 36L21 36L21 41L23 41L23 40L24 40L24 41L25 41L25 40L26 40L26 41L28 41L28 40L27 40L27 39L28 39L28 38L27 38L27 36L28 36L28 37L29 37L29 36L31 36L31 35L32 35L32 37L30 37L30 39L31 39L31 40L33 40L33 41L34 41L34 40L33 40L33 39L35 39L35 40L36 40L36 39L37 39L37 40L40 40L40 38L41 38L41 37L39 37L39 36L40 36L40 34L41 34L41 33L40 33L40 30L41 30L41 28L39 28L39 32L38 32L38 31L36 31L36 32L33 32L33 31L32 31L32 30L33 30L33 29L34 29L34 28L33 28L33 27L34 27L34 26L36 26L36 27L35 27L35 29L36 29L36 30L38 30L38 29L36 29L36 28L38 28L38 26L39 26L39 27L40 27L40 26L41 26L41 23L39 23L39 22L38 22L38 21L39 21L39 20L36 20L36 19L35 19L35 17L36 17L36 18L37 18L37 19L40 19L40 18L41 18L41 16L40 16L40 18L37 18L37 17L39 17L39 16L37 16L37 15L38 15L38 13L36 13L36 16L35 16L35 17L34 17L34 16L32 16L32 17L30 17L30 16L31 16L31 12L29 12L29 13L28 13L28 11L29 11L29 9L31 9L31 10L30 10L30 11L31 11L31 10L32 10L32 11L33 11L33 12L32 12L32 13L33 13L33 14L32 14L32 15L34 15L34 13L35 13L35 12L38 12L38 11L39 11L39 14L41 14L41 13L40 13L40 10L41 10L41 8L38 8L38 9L40 9L40 10L37 10L37 9L36 9L36 8L33 8L33 6L32 6L32 7L31 7L31 6L30 6L30 5L32 5L32 4L33 4L33 3L31 3L31 2L30 2L30 0L29 0L29 1L27 1L27 0L26 0L26 1L27 1L27 2L26 2L26 3L28 3L28 4L29 4L29 3L31 3L31 4L30 4L30 5L29 5L29 6L28 6L28 5L27 5L27 4L25 4L25 5L24 5L24 7L23 7L23 6L22 6L22 7L21 7L21 6L20 6L20 5L21 5L21 4L22 4L22 5L23 5L23 4L24 4L24 2L25 2L25 1L23 1L23 0L22 0L22 1L23 1L23 2L21 2L21 1L17 1L17 4L16 4L16 3L13 3L13 1L14 1L14 2L15 2L15 1L14 1L14 0L13 0L13 1L12 1L12 0L11 0L11 1L9 1L9 0ZM31 0L31 1L32 1L32 2L33 2L33 1L32 1L32 0ZM9 2L9 3L11 3L11 8L12 8L12 6L13 6L13 7L14 7L14 5L15 5L15 9L13 9L13 11L12 11L12 10L11 10L11 11L12 11L12 12L10 12L10 11L8 11L8 12L7 12L7 11L6 11L6 12L7 12L7 13L9 13L9 12L10 12L10 14L11 14L11 13L16 13L16 14L15 14L15 16L12 16L12 15L14 15L14 14L12 14L12 15L10 15L10 16L12 16L12 17L16 17L16 15L17 15L17 14L18 14L18 15L19 15L19 18L20 18L20 19L21 19L21 18L20 18L20 17L22 17L22 16L23 16L23 17L24 17L24 16L25 16L25 15L24 15L24 14L25 14L25 12L27 12L27 11L25 11L25 10L28 10L28 9L29 9L29 8L30 8L30 6L29 6L29 8L28 8L28 9L25 9L25 8L27 8L27 7L28 7L28 6L27 6L27 5L25 5L25 7L24 7L24 8L23 8L23 7L22 7L22 8L21 8L21 7L20 7L20 6L19 6L19 8L20 8L20 9L21 9L21 10L22 10L22 11L20 11L20 10L19 10L19 11L20 11L20 12L19 12L19 14L18 14L18 12L17 12L17 11L16 11L16 9L18 9L18 8L17 8L17 7L18 7L18 6L17 6L17 7L16 7L16 5L15 5L15 4L12 4L12 2ZM18 2L18 4L17 4L17 5L18 5L18 4L19 4L19 3L20 3L20 2ZM26 6L26 7L27 7L27 6ZM2 8L2 9L3 9L3 10L4 10L4 9L5 9L5 8ZM6 8L6 9L7 9L7 8ZM31 8L31 9L32 9L32 10L33 10L33 11L34 11L34 9L32 9L32 8ZM0 9L0 10L1 10L1 9ZM23 9L23 10L24 10L24 9ZM35 9L35 11L37 11L37 10L36 10L36 9ZM14 11L14 12L16 12L16 13L17 13L17 12L16 12L16 11ZM22 11L22 13L24 13L24 12L25 12L25 11L24 11L24 12L23 12L23 11ZM20 12L20 14L19 14L19 15L20 15L20 16L22 16L22 15L23 15L23 16L24 16L24 15L23 15L23 14L22 14L22 15L20 15L20 14L21 14L21 12ZM33 12L33 13L34 13L34 12ZM29 13L29 14L26 14L26 17L27 17L27 18L26 18L26 19L25 19L25 18L24 18L24 19L25 19L25 20L24 20L24 21L22 21L22 23L20 23L20 25L21 25L21 24L22 24L22 26L23 26L23 27L24 27L24 26L23 26L23 24L22 24L22 23L23 23L23 22L24 22L24 23L25 23L25 22L24 22L24 21L25 21L25 20L26 20L26 19L27 19L27 18L28 18L28 19L29 19L29 20L28 20L28 21L26 21L26 22L28 22L28 21L29 21L29 23L28 23L28 24L27 24L27 23L26 23L26 25L27 25L27 26L28 26L28 25L29 25L29 24L30 24L30 25L32 25L32 26L29 26L29 27L26 27L26 26L25 26L25 27L26 27L26 28L25 28L25 29L26 29L26 30L25 30L25 32L26 32L26 34L23 34L23 33L24 33L24 32L22 32L22 30L20 30L20 31L18 31L18 30L19 30L19 29L18 29L18 28L17 28L17 26L18 26L18 27L19 27L19 24L18 24L18 23L19 23L19 22L18 22L18 23L17 23L17 24L15 24L15 25L11 25L11 26L15 26L15 27L16 27L16 28L15 28L15 29L16 29L16 28L17 28L17 29L18 29L18 30L16 30L16 31L17 31L17 33L16 33L16 34L15 34L15 35L14 35L14 36L15 36L15 38L16 38L16 37L17 37L17 36L18 36L18 37L19 37L19 36L20 36L20 33L21 33L21 35L22 35L22 36L23 36L23 37L22 37L22 38L24 38L24 39L27 39L27 38L25 38L25 36L27 36L27 35L26 35L26 34L28 34L28 36L29 36L29 34L28 34L28 33L29 33L29 32L31 32L31 31L28 31L28 33L27 33L27 32L26 32L26 31L27 31L27 29L26 29L26 28L30 28L30 29L28 29L28 30L30 30L30 29L31 29L31 30L32 30L32 29L33 29L33 28L32 28L32 27L33 27L33 26L34 26L34 25L39 25L39 26L40 26L40 24L39 24L39 23L38 23L38 22L37 22L37 24L36 24L36 23L35 23L35 22L36 22L36 21L35 21L35 19L34 19L34 18L33 18L33 17L32 17L32 18L31 18L31 19L30 19L30 17L29 17L29 16L30 16L30 15L29 15L29 14L30 14L30 13ZM7 14L7 15L4 15L4 17L3 17L3 19L5 19L5 20L7 20L7 21L6 21L6 22L5 22L5 21L4 21L4 20L3 20L3 23L2 23L2 24L5 24L5 23L6 23L6 24L7 24L7 23L6 23L6 22L7 22L7 21L8 21L8 20L7 20L7 19L5 19L5 16L8 16L8 17L9 17L9 18L10 18L10 19L9 19L9 21L10 21L10 20L12 20L12 21L11 21L11 22L12 22L12 23L10 23L10 22L9 22L9 23L10 23L10 24L14 24L14 22L12 22L12 21L13 21L13 19L14 19L14 20L16 20L16 19L17 19L17 21L19 21L19 20L18 20L18 19L17 19L17 18L18 18L18 17L17 17L17 18L16 18L16 19L14 19L14 18L10 18L10 17L9 17L9 16L8 16L8 15L9 15L9 14ZM28 15L28 16L29 16L29 15ZM36 16L36 17L37 17L37 16ZM6 17L6 18L7 18L7 17ZM20 20L20 21L21 21L21 20ZM30 20L30 21L31 21L31 22L33 22L33 21L34 21L34 22L35 22L35 21L34 21L34 20L33 20L33 21L32 21L32 20ZM40 20L40 21L41 21L41 20ZM15 21L15 23L16 23L16 21ZM30 23L30 24L32 24L32 25L34 25L34 24L33 24L33 23ZM6 25L6 26L7 26L7 25ZM20 27L20 28L22 28L22 27ZM12 28L12 29L13 29L13 31L14 31L14 32L15 32L15 30L14 30L14 29L13 29L13 28ZM23 28L23 31L24 31L24 28ZM6 29L6 30L7 30L7 29ZM34 30L34 31L35 31L35 30ZM19 32L19 33L17 33L17 34L16 34L16 35L19 35L19 33L20 33L20 32ZM37 32L37 33L38 33L38 34L37 34L37 35L38 35L38 36L37 36L37 37L38 37L38 36L39 36L39 33L38 33L38 32ZM30 33L30 35L31 35L31 33ZM33 33L33 36L36 36L36 33ZM34 34L34 35L35 35L35 34ZM23 35L23 36L24 36L24 35ZM9 36L9 38L10 38L10 36ZM32 37L32 39L33 39L33 38L36 38L36 37ZM17 38L17 39L18 39L18 38ZM37 38L37 39L38 39L38 38ZM22 39L22 40L23 40L23 39ZM29 40L29 41L30 41L30 40ZM0 0L0 7L7 7L7 0ZM1 1L1 6L6 6L6 1ZM2 2L2 5L5 5L5 2ZM34 0L34 7L41 7L41 0ZM35 1L35 6L40 6L40 1ZM36 2L36 5L39 5L39 2ZM0 34L0 41L7 41L7 34ZM1 35L1 40L6 40L6 35ZM2 36L2 39L5 39L5 36Z" fill="#000000"/></g></g></svg>
