<?xml version="1.0" encoding="UTF-8"?>
<svg xmlns="http://www.w3.org/2000/svg" version="1.1" width="200" height="200" viewBox="0 0 200 200"><rect x="0" y="0" width="200" height="200" fill="#ffffff"/><g transform="scale(4.878)"><g transform="translate(0,0)"><path fill-rule="evenodd" d="M8 0L8 3L9 3L9 2L10 2L10 3L13 3L13 2L14 2L14 3L15 3L15 2L16 2L16 3L18 3L18 4L17 4L17 5L16 5L16 8L15 8L15 6L14 6L14 4L11 4L11 5L12 5L12 8L11 8L11 9L10 9L10 11L9 11L9 12L8 12L8 9L9 9L9 6L10 6L10 7L11 7L11 6L10 6L10 4L9 4L9 5L8 5L8 9L7 9L7 8L6 8L6 9L7 9L7 10L5 10L5 11L4 11L4 9L5 9L5 8L2 8L2 9L3 9L3 12L4 12L4 13L2 13L2 14L1 14L1 13L0 13L0 17L1 17L1 16L2 16L2 18L3 18L3 17L4 17L4 16L5 16L5 19L7 19L7 18L6 18L6 17L7 17L7 16L6 16L6 15L8 15L8 17L9 17L9 19L8 19L8 20L9 20L9 21L8 21L8 22L6 22L6 23L5 23L5 22L4 22L4 20L3 20L3 21L2 21L2 20L1 20L1 18L0 18L0 20L1 20L1 21L0 21L0 22L1 22L1 23L0 23L0 26L1 26L1 25L4 25L4 24L1 24L1 23L3 23L3 22L4 22L4 23L5 23L5 26L2 26L2 28L0 28L0 33L1 33L1 30L2 30L2 31L3 31L3 33L5 33L5 32L6 32L6 33L8 33L8 34L9 34L9 35L10 35L10 37L13 37L13 36L15 36L15 37L14 37L14 38L13 38L13 39L10 39L10 38L9 38L9 36L8 36L8 39L10 39L10 40L9 40L9 41L10 41L10 40L13 40L13 39L14 39L14 40L15 40L15 39L16 39L16 41L18 41L18 38L19 38L19 40L20 40L20 38L21 38L21 40L24 40L24 41L26 41L26 40L24 40L24 39L27 39L27 41L31 41L31 40L33 40L33 41L34 41L34 40L33 40L33 39L31 39L31 40L28 40L28 39L29 39L29 37L28 37L28 38L27 38L27 37L26 37L26 36L25 36L25 35L27 35L27 36L28 36L28 34L29 34L29 33L31 33L31 34L30 34L30 35L32 35L32 37L31 37L31 36L30 36L30 37L31 37L31 38L32 38L32 37L33 37L33 38L34 38L34 39L35 39L35 40L36 40L36 39L37 39L37 36L38 36L38 38L39 38L39 40L40 40L40 38L41 38L41 37L39 37L39 36L41 36L41 35L40 35L40 34L41 34L41 33L39 33L39 32L40 32L40 30L41 30L41 29L40 29L40 28L41 28L41 27L40 27L40 26L41 26L41 23L40 23L40 26L39 26L39 24L37 24L37 25L36 25L36 23L34 23L34 22L36 22L36 21L39 21L39 20L36 20L36 19L35 19L35 17L36 17L36 18L37 18L37 17L39 17L39 16L37 16L37 15L40 15L40 14L41 14L41 13L40 13L40 12L41 12L41 11L40 11L40 10L41 10L41 8L38 8L38 9L40 9L40 10L37 10L37 9L36 9L36 8L33 8L33 4L31 4L31 3L30 3L30 4L31 4L31 5L30 5L30 7L31 7L31 8L32 8L32 9L30 9L30 8L29 8L29 9L28 9L28 8L27 8L27 6L28 6L28 7L29 7L29 6L28 6L28 5L29 5L29 4L28 4L28 5L27 5L27 6L26 6L26 7L25 7L25 5L26 5L26 4L27 4L27 3L29 3L29 1L27 1L27 0L21 0L21 1L22 1L22 2L21 2L21 4L20 4L20 5L21 5L21 6L20 6L20 7L19 7L19 6L18 6L18 4L19 4L19 3L20 3L20 0L19 0L19 1L18 1L18 0L17 0L17 1L18 1L18 2L16 2L16 1L12 1L12 0ZM30 0L30 2L31 2L31 1L32 1L32 3L33 3L33 0ZM23 1L23 2L22 2L22 3L23 3L23 5L24 5L24 3L25 3L25 4L26 4L26 3L27 3L27 2L26 2L26 3L25 3L25 2L24 2L24 1ZM18 2L18 3L19 3L19 2ZM23 2L23 3L24 3L24 2ZM21 4L21 5L22 5L22 4ZM31 5L31 7L32 7L32 5ZM13 6L13 7L14 7L14 6ZM17 6L17 7L18 7L18 8L19 8L19 9L15 9L15 8L14 8L14 9L13 9L13 10L14 10L14 11L12 11L12 10L11 10L11 12L12 12L12 14L11 14L11 13L8 13L8 15L9 15L9 17L10 17L10 21L11 21L11 22L9 22L9 23L8 23L8 25L6 25L6 26L5 26L5 27L3 27L3 28L2 28L2 30L3 30L3 31L4 31L4 29L5 29L5 30L9 30L9 31L6 31L6 32L9 32L9 33L10 33L10 30L9 30L9 29L6 29L6 28L7 28L7 27L8 27L8 26L9 26L9 25L10 25L10 24L11 24L11 27L12 27L12 28L10 28L10 29L11 29L11 30L12 30L12 29L13 29L13 30L16 30L16 31L13 31L13 32L12 32L12 33L14 33L14 34L12 34L12 35L11 35L11 34L10 34L10 35L11 35L11 36L13 36L13 35L15 35L15 36L17 36L17 38L16 38L16 39L17 39L17 38L18 38L18 36L17 36L17 35L15 35L15 34L18 34L18 35L19 35L19 37L21 37L21 38L22 38L22 37L21 37L21 36L20 36L20 34L21 34L21 35L22 35L22 36L23 36L23 38L24 38L24 35L22 35L22 34L26 34L26 33L27 33L27 34L28 34L28 33L29 33L29 32L31 32L31 33L32 33L32 32L39 32L39 31L34 31L34 30L36 30L36 29L37 29L37 30L39 30L39 26L38 26L38 28L36 28L36 29L34 29L34 28L33 28L33 27L34 27L34 25L35 25L35 27L36 27L36 25L35 25L35 24L34 24L34 23L33 23L33 22L34 22L34 21L36 21L36 20L35 20L35 19L34 19L34 18L33 18L33 17L32 17L32 18L31 18L31 17L30 17L30 19L32 19L32 20L29 20L29 16L31 16L31 15L28 15L28 17L27 17L27 18L26 18L26 17L25 17L25 16L26 16L26 14L27 14L27 12L28 12L28 11L29 11L29 12L32 12L32 13L31 13L31 14L32 14L32 15L33 15L33 16L34 16L34 17L35 17L35 16L36 16L36 17L37 17L37 16L36 16L36 15L37 15L37 14L40 14L40 13L39 13L39 12L40 12L40 11L38 11L38 12L37 12L37 11L35 11L35 10L34 10L34 11L32 11L32 10L33 10L33 9L32 9L32 10L31 10L31 11L29 11L29 10L30 10L30 9L29 9L29 10L28 10L28 9L26 9L26 10L28 10L28 11L27 11L27 12L26 12L26 11L25 11L25 12L26 12L26 13L24 13L24 12L22 12L22 11L21 11L21 10L19 10L19 9L21 9L21 8L22 8L22 6L21 6L21 8L19 8L19 7L18 7L18 6ZM23 6L23 7L24 7L24 8L23 8L23 10L24 10L24 8L25 8L25 7L24 7L24 6ZM18 10L18 11L17 11L17 12L16 12L16 11L15 11L15 12L16 12L16 13L17 13L17 12L18 12L18 11L19 11L19 13L18 13L18 14L19 14L19 15L18 15L18 17L17 17L17 16L16 16L16 15L17 15L17 14L16 14L16 15L15 15L15 16L16 16L16 17L14 17L14 18L11 18L11 21L16 21L16 20L19 20L19 21L17 21L17 22L18 22L18 23L17 23L17 24L15 24L15 25L13 25L13 24L12 24L12 22L11 22L11 24L12 24L12 25L13 25L13 26L12 26L12 27L15 27L15 26L16 26L16 27L17 27L17 28L18 28L18 29L19 29L19 27L20 27L20 26L21 26L21 28L20 28L20 29L21 29L21 30L19 30L19 31L18 31L18 32L17 32L17 31L16 31L16 32L14 32L14 33L18 33L18 32L19 32L19 31L20 31L20 33L19 33L19 34L20 34L20 33L21 33L21 34L22 34L22 33L23 33L23 32L24 32L24 33L26 33L26 31L25 31L25 32L24 32L24 30L22 30L22 27L26 27L26 28L25 28L25 30L26 30L26 28L27 28L27 30L29 30L29 31L28 31L28 32L29 32L29 31L30 31L30 30L31 30L31 29L30 29L30 28L29 28L29 29L28 29L28 26L32 26L32 27L33 27L33 26L32 26L32 25L34 25L34 24L31 24L31 22L32 22L32 21L34 21L34 20L32 20L32 21L30 21L30 22L29 22L29 23L30 23L30 24L29 24L29 25L28 25L28 24L27 24L27 23L28 23L28 22L26 22L26 21L25 21L25 23L24 23L24 24L22 24L22 25L24 25L24 24L25 24L25 23L26 23L26 24L27 24L27 25L28 25L28 26L27 26L27 27L26 27L26 26L21 26L21 25L20 25L20 26L19 26L19 27L18 27L18 24L21 24L21 23L22 23L22 22L23 22L23 19L24 19L24 18L23 18L23 17L24 17L24 16L25 16L25 14L24 14L24 13L23 13L23 14L22 14L22 13L21 13L21 11L19 11L19 10ZM0 11L0 12L1 12L1 11ZM5 11L5 14L2 14L2 16L3 16L3 15L6 15L6 14L7 14L7 13L6 13L6 12L7 12L7 11ZM33 12L33 13L32 13L32 14L33 14L33 15L34 15L34 14L33 14L33 13L34 13L34 12ZM14 13L14 14L15 14L15 13ZM20 13L20 14L21 14L21 15L22 15L22 16L21 16L21 17L23 17L23 16L24 16L24 15L22 15L22 14L21 14L21 13ZM28 13L28 14L30 14L30 13ZM36 13L36 14L35 14L35 15L36 15L36 14L37 14L37 13ZM9 14L9 15L11 15L11 16L10 16L10 17L12 17L12 15L13 15L13 16L14 16L14 15L13 15L13 14L12 14L12 15L11 15L11 14ZM40 16L40 18L39 18L39 19L40 19L40 18L41 18L41 16ZM16 17L16 19L15 19L15 18L14 18L14 20L16 20L16 19L18 19L18 18L17 18L17 17ZM25 18L25 20L27 20L27 21L29 21L29 20L27 20L27 19L28 19L28 18L27 18L27 19L26 19L26 18ZM19 19L19 20L20 20L20 19ZM5 20L5 21L7 21L7 20ZM21 20L21 21L22 21L22 20ZM40 20L40 21L41 21L41 20ZM1 21L1 22L2 22L2 21ZM14 22L14 23L16 23L16 22ZM37 22L37 23L38 23L38 22ZM6 23L6 24L7 24L7 23ZM9 23L9 24L10 24L10 23ZM30 24L30 25L31 25L31 24ZM16 25L16 26L17 26L17 25ZM6 26L6 27L7 27L7 26ZM3 28L3 29L4 29L4 28ZM15 28L15 29L16 29L16 30L17 30L17 29L16 29L16 28ZM23 28L23 29L24 29L24 28ZM32 28L32 29L33 29L33 30L32 30L32 31L33 31L33 30L34 30L34 29L33 29L33 28ZM29 29L29 30L30 30L30 29ZM21 31L21 32L23 32L23 31ZM33 33L33 36L36 36L36 33ZM37 33L37 34L38 34L38 36L39 36L39 33ZM34 34L34 35L35 35L35 34ZM25 37L25 38L26 38L26 37ZM34 37L34 38L36 38L36 37ZM14 38L14 39L15 39L15 38ZM0 0L0 7L7 7L7 0ZM1 1L1 6L6 6L6 1ZM2 2L2 5L5 5L5 2ZM34 0L34 7L41 7L41 0ZM35 1L35 6L40 6L40 1ZM36 2L36 5L39 5L39 2ZM0 34L0 41L7 41L7 34ZM1 35L1 40L6 40L6 35ZM2 36L2 39L5 39L5 36Z" fill="#000000"/></g></g></svg>
