<?xml version="1.0" encoding="UTF-8"?>
<svg xmlns="http://www.w3.org/2000/svg" version="1.1" width="200" height="200" viewBox="0 0 200 200"><rect x="0" y="0" width="200" height="200" fill="#ffffff"/><g transform="scale(6.897)"><g transform="translate(0,0)"><path fill-rule="evenodd" d="M10 0L10 2L12 2L12 3L10 3L10 4L11 4L11 5L9 5L9 4L8 4L8 5L9 5L9 6L8 6L8 8L6 8L6 9L5 9L5 10L4 10L4 13L3 13L3 12L2 12L2 11L3 11L3 10L2 10L2 9L4 9L4 8L2 8L2 9L0 9L0 13L3 13L3 14L2 14L2 16L1 16L1 14L0 14L0 17L3 17L3 18L2 18L2 20L1 20L1 21L7 21L7 20L4 20L4 19L7 19L7 18L6 18L6 17L7 17L7 16L6 16L6 15L7 15L7 14L8 14L8 15L9 15L9 18L8 18L8 20L9 20L9 21L8 21L8 23L9 23L9 21L10 21L10 20L12 20L12 21L11 21L11 22L10 22L10 24L9 24L9 25L8 25L8 27L9 27L9 28L12 28L12 29L14 29L14 27L13 27L13 26L14 26L14 25L15 25L15 29L16 29L16 28L18 28L18 29L20 29L20 28L18 28L18 26L20 26L20 25L23 25L23 26L24 26L24 27L22 27L22 29L23 29L23 28L25 28L25 29L26 29L26 28L29 28L29 26L28 26L28 27L26 27L26 28L25 28L25 26L24 26L24 25L26 25L26 26L27 26L27 25L29 25L29 23L28 23L28 20L27 20L27 23L28 23L28 24L27 24L27 25L26 25L26 23L25 23L25 22L26 22L26 20L24 20L24 19L26 19L26 18L29 18L29 17L26 17L26 16L25 16L25 15L24 15L24 16L23 16L23 17L21 17L21 18L20 18L20 17L19 17L19 18L20 18L20 20L19 20L19 19L18 19L18 20L19 20L19 21L20 21L20 23L19 23L19 22L17 22L17 21L16 21L16 19L15 19L15 18L14 18L14 19L12 19L12 18L13 18L13 16L12 16L12 15L13 15L13 14L12 14L12 15L9 15L9 14L11 14L11 13L10 13L10 12L11 12L11 11L10 11L10 10L12 10L12 12L14 12L14 9L15 9L15 8L17 8L17 6L18 6L18 7L19 7L19 8L18 8L18 10L17 10L17 9L16 9L16 10L15 10L15 11L16 11L16 10L17 10L17 11L18 11L18 10L19 10L19 11L20 11L20 12L17 12L17 13L18 13L18 15L15 15L15 14L16 14L16 12L15 12L15 13L14 13L14 15L15 15L15 16L14 16L14 17L16 17L16 18L18 18L18 17L16 17L16 16L18 16L18 15L20 15L20 14L21 14L21 13L20 13L20 12L22 12L22 9L23 9L23 13L22 13L22 15L23 15L23 14L24 14L24 13L25 13L25 14L26 14L26 15L27 15L27 16L28 16L28 15L29 15L29 14L28 14L28 15L27 15L27 13L28 13L28 12L29 12L29 11L28 11L28 12L27 12L27 11L26 11L26 10L29 10L29 9L25 9L25 8L24 8L24 9L23 9L23 8L21 8L21 9L20 9L20 7L21 7L21 3L20 3L20 2L18 2L18 1L17 1L17 0L16 0L16 1L14 1L14 2L12 2L12 1L13 1L13 0ZM16 1L16 2L15 2L15 3L13 3L13 4L12 4L12 5L11 5L11 7L10 7L10 6L9 6L9 10L8 10L8 9L6 9L6 10L8 10L8 12L7 12L7 11L5 11L5 12L7 12L7 13L4 13L4 14L7 14L7 13L8 13L8 12L9 12L9 10L10 10L10 8L11 8L11 7L12 7L12 6L13 6L13 7L14 7L14 8L13 8L13 9L14 9L14 8L15 8L15 7L16 7L16 6L15 6L15 5L14 5L14 4L16 4L16 5L19 5L19 7L20 7L20 5L19 5L19 4L20 4L20 3L19 3L19 4L18 4L18 2L17 2L17 1ZM16 3L16 4L17 4L17 3ZM13 5L13 6L14 6L14 7L15 7L15 6L14 6L14 5ZM19 9L19 10L20 10L20 9ZM24 9L24 10L25 10L25 9ZM1 10L1 11L2 11L2 10ZM25 11L25 13L27 13L27 12L26 12L26 11ZM19 13L19 14L20 14L20 13ZM3 15L3 16L4 16L4 18L3 18L3 19L4 19L4 18L5 18L5 16L4 16L4 15ZM10 16L10 18L11 18L11 17L12 17L12 16ZM24 16L24 17L23 17L23 18L22 18L22 19L21 19L21 20L22 20L22 19L24 19L24 18L26 18L26 17L25 17L25 16ZM0 18L0 19L1 19L1 18ZM13 20L13 21L12 21L12 22L13 22L13 23L12 23L12 24L13 24L13 25L11 25L11 24L10 24L10 25L9 25L9 27L12 27L12 28L13 28L13 27L12 27L12 26L13 26L13 25L14 25L14 24L19 24L19 25L20 25L20 24L19 24L19 23L17 23L17 22L14 22L14 21L15 21L15 20ZM21 21L21 24L24 24L24 21ZM22 22L22 23L23 23L23 22ZM13 23L13 24L14 24L14 23ZM10 25L10 26L11 26L11 25ZM17 25L17 26L18 26L18 25ZM0 0L0 7L7 7L7 0ZM1 1L1 6L6 6L6 1ZM2 2L2 5L5 5L5 2ZM22 0L22 7L29 7L29 0ZM23 1L23 6L28 6L28 1ZM24 2L24 5L27 5L27 2ZM0 22L0 29L7 29L7 22ZM1 23L1 28L6 28L6 23ZM2 24L2 27L5 27L5 24Z" fill="#000000"/></g></g></svg>
