<?xml version="1.0" encoding="UTF-8"?>
<svg xmlns="http://www.w3.org/2000/svg" version="1.1" width="200" height="200" viewBox="0 0 200 200"><rect x="0" y="0" width="200" height="200" fill="#ffffff"/><g transform="scale(4.878)"><g transform="translate(0,0)"><path fill-rule="evenodd" d="M9 0L9 2L10 2L10 3L9 3L9 4L8 4L8 5L9 5L9 6L8 6L8 8L6 8L6 9L5 9L5 10L3 10L3 9L4 9L4 8L2 8L2 13L0 13L0 15L1 15L1 17L0 17L0 18L2 18L2 16L3 16L3 19L0 19L0 20L3 20L3 21L5 21L5 22L2 22L2 21L1 21L1 22L2 22L2 23L5 23L5 25L7 25L7 26L6 26L6 27L5 27L5 28L6 28L6 29L5 29L5 30L3 30L3 31L2 31L2 32L1 32L1 33L2 33L2 32L4 32L4 31L7 31L7 32L5 32L5 33L8 33L8 35L9 35L9 36L10 36L10 37L8 37L8 39L9 39L9 38L10 38L10 40L9 40L9 41L12 41L12 40L11 40L11 39L12 39L12 37L11 37L11 36L15 36L15 37L13 37L13 41L14 41L14 40L16 40L16 41L17 41L17 40L18 40L18 41L20 41L20 40L21 40L21 41L22 41L22 38L23 38L23 40L24 40L24 39L25 39L25 38L26 38L26 37L27 37L27 38L28 38L28 39L26 39L26 40L25 40L25 41L29 41L29 40L28 40L28 39L30 39L30 40L32 40L32 41L33 41L33 39L34 39L34 38L33 38L33 37L35 37L35 41L37 41L37 40L38 40L38 41L40 41L40 39L41 39L41 37L40 37L40 39L39 39L39 38L38 38L38 37L39 37L39 36L40 36L40 35L39 35L39 36L38 36L38 37L37 37L37 32L34 32L34 31L37 31L37 30L35 30L35 29L33 29L33 28L32 28L32 26L34 26L34 27L35 27L35 25L34 25L34 24L35 24L35 23L33 23L33 22L32 22L32 21L33 21L33 20L34 20L34 22L35 22L35 21L36 21L36 22L37 22L37 24L38 24L38 23L40 23L40 22L39 22L39 21L40 21L40 19L38 19L38 17L37 17L37 16L38 16L38 15L39 15L39 14L40 14L40 15L41 15L41 11L40 11L40 12L39 12L39 13L38 13L38 15L35 15L35 14L36 14L36 13L35 13L35 12L34 12L34 13L35 13L35 14L34 14L34 15L35 15L35 16L36 16L36 17L37 17L37 19L36 19L36 20L34 20L34 19L35 19L35 18L34 18L34 19L33 19L33 18L32 18L32 19L31 19L31 17L30 17L30 19L29 19L29 17L28 17L28 16L29 16L29 13L31 13L31 12L29 12L29 13L28 13L28 11L31 11L31 10L32 10L32 9L33 9L33 11L35 11L35 10L37 10L37 11L38 11L38 10L37 10L37 8L36 8L36 9L35 9L35 8L32 8L32 7L33 7L33 6L32 6L32 5L33 5L33 2L32 2L32 4L31 4L31 6L30 6L30 7L29 7L29 6L28 6L28 7L29 7L29 9L30 9L30 8L31 8L31 10L28 10L28 11L27 11L27 12L26 12L26 10L23 10L23 11L22 11L22 12L23 12L23 13L28 13L28 14L27 14L27 15L25 15L25 14L23 14L23 15L22 15L22 13L21 13L21 12L16 12L16 13L18 13L18 14L16 14L16 15L15 15L15 17L14 17L14 13L15 13L15 12L14 12L14 11L13 11L13 12L12 12L12 10L13 10L13 9L16 9L16 10L15 10L15 11L16 11L16 10L17 10L17 11L19 11L19 10L20 10L20 9L18 9L18 8L19 8L19 6L20 6L20 7L21 7L21 8L22 8L22 9L21 9L21 10L22 10L22 9L24 9L24 7L25 7L25 8L26 8L26 9L27 9L27 8L26 8L26 7L27 7L27 5L28 5L28 4L29 4L29 3L30 3L30 2L31 2L31 1L32 1L32 0L31 0L31 1L30 1L30 0L29 0L29 1L28 1L28 2L29 2L29 3L28 3L28 4L27 4L27 5L25 5L25 6L24 6L24 7L23 7L23 3L24 3L24 4L25 4L25 3L27 3L27 0L26 0L26 2L25 2L25 1L24 1L24 0L22 0L22 1L21 1L21 0L20 0L20 1L21 1L21 2L20 2L20 3L19 3L19 0L17 0L17 1L18 1L18 3L17 3L17 2L16 2L16 3L17 3L17 4L18 4L18 5L14 5L14 4L15 4L15 3L14 3L14 2L15 2L15 1L16 1L16 0L14 0L14 2L12 2L12 1L11 1L11 0ZM10 1L10 2L11 2L11 1ZM29 1L29 2L30 2L30 1ZM21 2L21 4L22 4L22 2ZM24 2L24 3L25 3L25 2ZM10 3L10 4L11 4L11 5L10 5L10 6L9 6L9 8L10 8L10 6L11 6L11 7L12 7L12 6L13 6L13 7L14 7L14 8L15 8L15 7L16 7L16 6L15 6L15 7L14 7L14 5L12 5L12 4L14 4L14 3L12 3L12 4L11 4L11 3ZM11 5L11 6L12 6L12 5ZM18 5L18 6L17 6L17 7L18 7L18 6L19 6L19 5ZM20 5L20 6L21 6L21 7L22 7L22 8L23 8L23 7L22 7L22 6L21 6L21 5ZM25 6L25 7L26 7L26 6ZM31 6L31 7L32 7L32 6ZM11 8L11 9L10 9L10 10L12 10L12 9L13 9L13 8ZM16 8L16 9L17 9L17 10L18 10L18 9L17 9L17 8ZM6 9L6 10L5 10L5 12L4 12L4 11L3 11L3 13L2 13L2 14L3 14L3 16L4 16L4 20L5 20L5 21L6 21L6 22L7 22L7 23L6 23L6 24L7 24L7 23L8 23L8 22L7 22L7 21L8 21L8 20L9 20L9 19L8 19L8 18L10 18L10 19L11 19L11 20L10 20L10 21L12 21L12 22L14 22L14 23L13 23L13 24L12 24L12 23L10 23L10 22L9 22L9 24L8 24L8 25L9 25L9 24L10 24L10 25L11 25L11 26L13 26L13 24L14 24L14 23L15 23L15 22L16 22L16 23L17 23L17 25L18 25L18 26L19 26L19 25L18 25L18 23L17 23L17 21L15 21L15 20L18 20L18 21L19 21L19 22L20 22L20 23L19 23L19 24L20 24L20 23L21 23L21 26L20 26L20 27L19 27L19 28L18 28L18 27L17 27L17 28L16 28L16 27L13 27L13 28L12 28L12 27L10 27L10 26L9 26L9 27L10 27L10 28L12 28L12 29L11 29L11 30L9 30L9 29L6 29L6 30L7 30L7 31L8 31L8 30L9 30L9 31L12 31L12 32L13 32L13 33L12 33L12 35L14 35L14 33L15 33L15 34L16 34L16 33L17 33L17 30L16 30L16 29L17 29L17 28L18 28L18 31L19 31L19 32L18 32L18 35L17 35L17 36L16 36L16 37L15 37L15 38L16 38L16 37L17 37L17 38L18 38L18 40L19 40L19 38L20 38L20 39L21 39L21 38L22 38L22 37L19 37L19 38L18 38L18 37L17 37L17 36L21 36L21 35L19 35L19 32L20 32L20 33L21 33L21 34L22 34L22 33L23 33L23 34L26 34L26 35L25 35L25 36L24 36L24 37L23 37L23 38L24 38L24 37L25 37L25 36L27 36L27 35L30 35L30 36L29 36L29 37L28 37L28 38L29 38L29 37L30 37L30 39L31 39L31 37L32 37L32 36L31 36L31 35L30 35L30 34L28 34L28 32L29 32L29 31L27 31L27 30L28 30L28 28L27 28L27 27L29 27L29 30L30 30L30 29L32 29L32 28L31 28L31 27L30 27L30 25L28 25L28 26L25 26L25 24L26 24L26 25L27 25L27 24L30 24L30 23L32 23L32 24L31 24L31 25L32 25L32 24L33 24L33 23L32 23L32 22L31 22L31 20L29 20L29 19L28 19L28 20L27 20L27 19L25 19L25 18L26 18L26 17L25 17L25 15L24 15L24 16L22 16L22 17L21 17L21 13L19 13L19 14L18 14L18 15L20 15L20 17L19 17L19 16L17 16L17 15L16 15L16 16L17 16L17 17L15 17L15 18L12 18L12 17L11 17L11 16L13 16L13 13L14 13L14 12L13 12L13 13L11 13L11 12L10 12L10 13L8 13L8 12L7 12L7 11L8 11L8 10L7 10L7 9ZM40 9L40 10L41 10L41 9ZM0 10L0 12L1 12L1 10ZM6 10L6 11L7 11L7 10ZM23 11L23 12L24 12L24 11ZM5 12L5 14L4 14L4 13L3 13L3 14L4 14L4 16L5 16L5 14L6 14L6 15L8 15L8 14L6 14L6 13L7 13L7 12ZM32 12L32 14L31 14L31 15L30 15L30 16L31 16L31 15L33 15L33 12ZM10 13L10 14L11 14L11 13ZM10 15L10 16L8 16L8 17L10 17L10 18L11 18L11 17L10 17L10 16L11 16L11 15ZM27 15L27 16L28 16L28 15ZM6 16L6 17L5 17L5 19L7 19L7 20L6 20L6 21L7 21L7 20L8 20L8 19L7 19L7 18L6 18L6 17L7 17L7 16ZM39 16L39 17L41 17L41 16ZM20 17L20 18L18 18L18 19L20 19L20 20L19 20L19 21L20 21L20 22L22 22L22 21L24 21L24 17L22 17L22 19L23 19L23 20L22 20L22 21L21 21L21 19L20 19L20 18L21 18L21 17ZM12 19L12 20L13 20L13 19ZM14 19L14 20L15 20L15 19ZM32 19L32 20L33 20L33 19ZM37 19L37 20L36 20L36 21L37 21L37 22L38 22L38 19ZM25 20L25 21L26 21L26 20ZM28 20L28 23L30 23L30 21L29 21L29 20ZM23 22L23 23L24 23L24 24L25 24L25 23L26 23L26 24L27 24L27 23L26 23L26 22ZM0 24L0 26L1 26L1 27L0 27L0 29L1 29L1 30L0 30L0 31L1 31L1 30L2 30L2 29L1 29L1 28L4 28L4 27L2 27L2 26L1 26L1 24ZM2 24L2 25L3 25L3 26L4 26L4 24ZM22 24L22 26L23 26L23 27L22 27L22 28L21 28L21 27L20 27L20 28L21 28L21 29L22 29L22 30L23 30L23 31L25 31L25 32L23 32L23 33L26 33L26 34L27 34L27 32L26 32L26 30L27 30L27 29L25 29L25 28L26 28L26 27L25 27L25 26L23 26L23 24ZM40 24L40 25L39 25L39 26L40 26L40 27L39 27L39 28L38 28L38 27L37 27L37 26L38 26L38 25L37 25L37 26L36 26L36 29L37 29L37 28L38 28L38 29L39 29L39 28L41 28L41 24ZM6 27L6 28L7 28L7 27ZM24 27L24 28L23 28L23 29L24 29L24 30L25 30L25 29L24 29L24 28L25 28L25 27ZM14 28L14 29L12 29L12 30L13 30L13 32L15 32L15 33L16 33L16 30L14 30L14 29L15 29L15 28ZM19 29L19 31L21 31L21 32L22 32L22 31L21 31L21 30L20 30L20 29ZM32 30L32 32L31 32L31 31L30 31L30 32L31 32L31 33L32 33L32 32L33 32L33 31L34 31L34 30ZM38 30L38 33L39 33L39 34L41 34L41 31L40 31L40 30ZM9 32L9 34L10 34L10 32ZM33 33L33 36L36 36L36 33ZM34 34L34 35L35 35L35 34ZM10 37L10 38L11 38L11 37ZM36 37L36 40L37 40L37 37ZM16 39L16 40L17 40L17 39ZM0 0L0 7L7 7L7 0ZM1 1L1 6L6 6L6 1ZM2 2L2 5L5 5L5 2ZM34 0L34 7L41 7L41 0ZM35 1L35 6L40 6L40 1ZM36 2L36 5L39 5L39 2ZM0 34L0 41L7 41L7 34ZM1 35L1 40L6 40L6 35ZM2 36L2 39L5 39L5 36Z" fill="#000000"/></g></g></svg>
