<?xml version="1.0" encoding="UTF-8"?>
<svg xmlns="http://www.w3.org/2000/svg" version="1.1" width="200" height="200" viewBox="0 0 200 200"><rect x="0" y="0" width="200" height="200" fill="#ffffff"/><g transform="scale(6.897)"><g transform="translate(0,0)"><path fill-rule="evenodd" d="M8 0L8 1L9 1L9 0ZM10 0L10 2L9 2L9 3L8 3L8 4L9 4L9 5L11 5L11 3L12 3L12 4L13 4L13 5L18 5L18 7L19 7L19 5L20 5L20 7L21 7L21 0L20 0L20 1L19 1L19 2L20 2L20 3L19 3L19 4L18 4L18 3L17 3L17 2L18 2L18 1L17 1L17 2L16 2L16 1L15 1L15 2L13 2L13 0ZM12 2L12 3L13 3L13 2ZM9 3L9 4L10 4L10 3ZM8 6L8 7L9 7L9 6ZM10 6L10 7L11 7L11 6ZM12 6L12 8L13 8L13 9L12 9L12 10L10 10L10 9L11 9L11 8L8 8L8 9L7 9L7 8L4 8L4 9L3 9L3 8L2 8L2 9L1 9L1 10L2 10L2 11L1 11L1 13L0 13L0 15L1 15L1 16L0 16L0 17L3 17L3 18L4 18L4 20L3 20L3 19L1 19L1 18L0 18L0 19L1 19L1 20L0 20L0 21L1 21L1 20L3 20L3 21L4 21L4 20L5 20L5 21L8 21L8 22L12 22L12 23L13 23L13 24L12 24L12 25L11 25L11 23L8 23L8 25L9 25L9 26L8 26L8 27L10 27L10 28L9 28L9 29L11 29L11 28L12 28L12 29L13 29L13 28L12 28L12 26L15 26L15 27L14 27L14 29L15 29L15 28L16 28L16 27L17 27L17 26L15 26L15 25L16 25L16 24L17 24L17 25L18 25L18 28L17 28L17 29L20 29L20 25L21 25L21 26L22 26L22 25L23 25L23 26L24 26L24 25L25 25L25 26L26 26L26 27L25 27L25 28L23 28L23 27L22 27L22 28L23 28L23 29L26 29L26 28L28 28L28 29L29 29L29 26L28 26L28 25L29 25L29 24L26 24L26 23L25 23L25 20L26 20L26 21L28 21L28 22L27 22L27 23L29 23L29 21L28 21L28 19L29 19L29 18L27 18L27 17L26 17L26 14L24 14L24 13L25 13L25 11L26 11L26 13L27 13L27 12L28 12L28 14L29 14L29 12L28 12L28 11L29 11L29 8L28 8L28 9L27 9L27 10L25 10L25 9L26 9L26 8L25 8L25 9L24 9L24 10L25 10L25 11L24 11L24 12L23 12L23 10L22 10L22 8L19 8L19 11L20 11L20 12L19 12L19 14L18 14L18 13L17 13L17 12L18 12L18 9L17 9L17 10L16 10L16 9L15 9L15 6L14 6L14 8L13 8L13 6ZM16 6L16 8L17 8L17 6ZM2 9L2 10L3 10L3 12L4 12L4 14L3 14L3 13L2 13L2 14L1 14L1 15L2 15L2 16L3 16L3 15L4 15L4 18L5 18L5 16L7 16L7 17L6 17L6 18L7 18L7 19L6 19L6 20L7 20L7 19L8 19L8 18L9 18L9 17L11 17L11 16L12 16L12 18L11 18L11 19L9 19L9 21L11 21L11 19L13 19L13 18L14 18L14 20L15 20L15 21L16 21L16 23L17 23L17 24L19 24L19 22L18 22L18 23L17 23L17 21L18 21L18 20L17 20L17 21L16 21L16 19L15 19L15 18L16 18L16 16L17 16L17 15L18 15L18 14L17 14L17 13L16 13L16 12L17 12L17 11L16 11L16 10L15 10L15 9L13 9L13 10L12 10L12 12L13 12L13 13L11 13L11 11L9 11L9 9L8 9L8 10L7 10L7 9L6 9L6 10L7 10L7 11L6 11L6 12L5 12L5 9L4 9L4 10L3 10L3 9ZM13 10L13 12L16 12L16 11L14 11L14 10ZM27 10L27 11L28 11L28 10ZM8 11L8 14L6 14L6 13L7 13L7 12L6 12L6 13L5 13L5 14L4 14L4 15L5 15L5 14L6 14L6 15L8 15L8 14L9 14L9 13L10 13L10 12L9 12L9 11ZM21 11L21 12L22 12L22 11ZM14 13L14 16L15 16L15 15L16 15L16 14L15 14L15 13ZM20 13L20 14L19 14L19 15L20 15L20 16L19 16L19 17L20 17L20 18L17 18L17 19L20 19L20 20L19 20L19 21L20 21L20 20L21 20L21 19L22 19L22 18L23 18L23 19L24 19L24 18L25 18L25 19L27 19L27 18L26 18L26 17L24 17L24 16L25 16L25 15L24 15L24 14L23 14L23 15L22 15L22 14L21 14L21 13ZM10 14L10 16L11 16L11 15L12 15L12 14ZM20 14L20 15L21 15L21 14ZM23 15L23 16L22 16L22 17L23 17L23 18L24 18L24 17L23 17L23 16L24 16L24 15ZM27 15L27 16L28 16L28 17L29 17L29 16L28 16L28 15ZM8 16L8 17L9 17L9 16ZM14 17L14 18L15 18L15 17ZM12 21L12 22L13 22L13 23L14 23L14 24L15 24L15 23L14 23L14 21ZM21 21L21 24L24 24L24 21ZM22 22L22 23L23 23L23 22ZM9 24L9 25L10 25L10 27L11 27L11 25L10 25L10 24ZM27 26L27 27L28 27L28 26ZM0 0L0 7L7 7L7 0ZM1 1L1 6L6 6L6 1ZM2 2L2 5L5 5L5 2ZM22 0L22 7L29 7L29 0ZM23 1L23 6L28 6L28 1ZM24 2L24 5L27 5L27 2ZM0 22L0 29L7 29L7 22ZM1 23L1 28L6 28L6 23ZM2 24L2 27L5 27L5 24Z" fill="#000000"/></g></g></svg>
