<?xml version="1.0" encoding="UTF-8"?>
<svg xmlns="http://www.w3.org/2000/svg" version="1.1" width="200" height="200" viewBox="0 0 200 200"><rect x="0" y="0" width="200" height="200" fill="#ffffff"/><g transform="scale(6.897)"><g transform="translate(0,0)"><path fill-rule="evenodd" d="M9 0L9 1L10 1L10 2L8 2L8 4L10 4L10 2L11 2L11 3L13 3L13 2L14 2L14 3L16 3L16 4L17 4L17 5L14 5L14 4L13 4L13 5L14 5L14 7L13 7L13 6L12 6L12 4L11 4L11 5L10 5L10 7L9 7L9 6L8 6L8 7L9 7L9 9L8 9L8 8L6 8L6 9L7 9L7 10L6 10L6 11L7 11L7 10L8 10L8 11L9 11L9 12L8 12L8 13L9 13L9 16L11 16L11 15L10 15L10 14L12 14L12 13L13 13L13 12L14 12L14 15L15 15L15 14L18 14L18 13L19 13L19 15L20 15L20 19L22 19L22 20L20 20L20 24L19 24L19 23L18 23L18 20L19 20L19 19L18 19L18 17L17 17L17 18L16 18L16 16L13 16L13 15L12 15L12 16L13 16L13 17L12 17L12 18L13 18L13 17L14 17L14 19L11 19L11 17L9 17L9 19L8 19L8 18L6 18L6 19L8 19L8 20L4 20L4 19L5 19L5 15L3 15L3 13L4 13L4 12L1 12L1 13L2 13L2 14L1 14L1 17L0 17L0 21L2 21L2 20L4 20L4 21L8 21L8 23L9 23L9 24L8 24L8 26L9 26L9 28L10 28L10 27L12 27L12 26L13 26L13 28L12 28L12 29L13 29L13 28L14 28L14 29L15 29L15 28L16 28L16 29L17 29L17 28L18 28L18 29L19 29L19 28L20 28L20 29L21 29L21 27L22 27L22 28L24 28L24 29L28 29L28 28L26 28L26 27L29 27L29 26L27 26L27 25L28 25L28 24L29 24L29 23L28 23L28 24L26 24L26 25L25 25L25 22L27 22L27 21L26 21L26 19L27 19L27 18L29 18L29 17L28 17L28 16L29 16L29 14L27 14L27 13L29 13L29 11L28 11L28 10L27 10L27 8L25 8L25 9L24 9L24 10L23 10L23 9L22 9L22 10L23 10L23 12L22 12L22 11L21 11L21 12L19 12L19 10L18 10L18 9L19 9L19 8L18 8L18 9L17 9L17 6L18 6L18 7L19 7L19 6L20 6L20 7L21 7L21 4L20 4L20 3L21 3L21 1L20 1L20 0L17 0L17 1L16 1L16 0L14 0L14 1L13 1L13 2L11 2L11 1L12 1L12 0ZM15 1L15 2L16 2L16 1ZM17 1L17 4L18 4L18 3L20 3L20 1L19 1L19 2L18 2L18 1ZM11 6L11 8L12 8L12 10L10 10L10 9L9 9L9 11L10 11L10 12L9 12L9 13L12 13L12 12L13 12L13 11L17 11L17 12L16 12L16 13L17 13L17 12L18 12L18 10L17 10L17 9L16 9L16 6L15 6L15 7L14 7L14 8L15 8L15 10L13 10L13 7L12 7L12 6ZM3 8L3 9L2 9L2 10L1 10L1 11L2 11L2 10L3 10L3 9L4 9L4 10L5 10L5 8ZM20 8L20 10L21 10L21 8ZM25 9L25 10L26 10L26 11L27 11L27 12L28 12L28 11L27 11L27 10L26 10L26 9ZM12 10L12 11L11 11L11 12L12 12L12 11L13 11L13 10ZM6 12L6 13L7 13L7 12ZM21 12L21 14L20 14L20 15L21 15L21 18L22 18L22 16L24 16L24 12L23 12L23 14L22 14L22 12ZM25 13L25 16L26 16L26 17L27 17L27 16L28 16L28 15L27 15L27 16L26 16L26 13ZM6 14L6 15L7 15L7 16L6 16L6 17L7 17L7 16L8 16L8 15L7 15L7 14ZM2 15L2 17L3 17L3 18L2 18L2 19L4 19L4 16L3 16L3 15ZM25 18L25 19L26 19L26 18ZM9 19L9 23L10 23L10 24L9 24L9 25L11 25L11 26L12 26L12 25L14 25L14 28L15 28L15 26L17 26L17 24L18 24L18 23L16 23L16 25L14 25L14 24L15 24L15 23L14 23L14 22L15 22L15 21L16 21L16 22L17 22L17 21L16 21L16 19L15 19L15 21L14 21L14 20L11 20L11 21L10 21L10 19ZM17 19L17 20L18 20L18 19ZM23 19L23 20L24 20L24 19ZM12 21L12 22L10 22L10 23L12 23L12 22L14 22L14 21ZM21 21L21 24L24 24L24 21ZM28 21L28 22L29 22L29 21ZM22 22L22 23L23 23L23 22ZM13 23L13 24L14 24L14 23ZM19 25L19 27L21 27L21 26L22 26L22 27L25 27L25 26L24 26L24 25ZM0 0L0 7L7 7L7 0ZM1 1L1 6L6 6L6 1ZM2 2L2 5L5 5L5 2ZM22 0L22 7L29 7L29 0ZM23 1L23 6L28 6L28 1ZM24 2L24 5L27 5L27 2ZM0 22L0 29L7 29L7 22ZM1 23L1 28L6 28L6 23ZM2 24L2 27L5 27L5 24Z" fill="#000000"/></g></g></svg>
