<?xml version="1.0" encoding="UTF-8"?>
<svg xmlns="http://www.w3.org/2000/svg" version="1.1" width="200" height="200" viewBox="0 0 200 200"><rect x="0" y="0" width="200" height="200" fill="#ffffff"/><g transform="scale(6.897)"><g transform="translate(0,0)"><path fill-rule="evenodd" d="M8 0L8 3L10 3L10 4L9 4L9 5L8 5L8 9L9 9L9 11L10 11L10 10L11 10L11 11L13 11L13 14L15 14L15 15L16 15L16 16L12 16L12 12L8 12L8 13L9 13L9 15L7 15L7 14L6 14L6 15L7 15L7 16L4 16L4 17L3 17L3 18L2 18L2 20L3 20L3 21L7 21L7 20L6 20L6 19L7 19L7 18L9 18L9 19L8 19L8 20L13 20L13 21L8 21L8 22L9 22L9 24L8 24L8 27L9 27L9 28L10 28L10 29L11 29L11 28L12 28L12 27L13 27L13 29L15 29L15 28L16 28L16 27L15 27L15 26L17 26L17 27L18 27L18 29L26 29L26 28L25 28L25 27L27 27L27 29L28 29L28 28L29 28L29 27L28 27L28 25L27 25L27 26L25 26L25 25L26 25L26 24L25 24L25 22L26 22L26 23L27 23L27 22L26 22L26 21L25 21L25 20L23 20L23 19L22 19L22 18L20 18L20 19L21 19L21 20L20 20L20 25L19 25L19 27L18 27L18 26L17 26L17 25L18 25L18 24L19 24L19 22L18 22L18 21L17 21L17 18L19 18L19 16L18 16L18 15L19 15L19 14L18 14L18 15L16 15L16 14L15 14L15 12L14 12L14 10L17 10L17 13L20 13L20 12L21 12L21 11L20 11L20 10L22 10L22 9L23 9L23 10L24 10L24 8L21 8L21 9L20 9L20 7L21 7L21 5L20 5L20 4L21 4L21 3L20 3L20 4L19 4L19 3L18 3L18 4L17 4L17 3L16 3L16 4L15 4L15 2L14 2L14 5L13 5L13 6L12 6L12 8L14 8L14 7L15 7L15 6L14 6L14 5L16 5L16 4L17 4L17 6L16 6L16 8L15 8L15 9L9 9L9 5L10 5L10 4L11 4L11 5L12 5L12 4L13 4L13 2L11 2L11 0ZM13 0L13 1L14 1L14 0ZM15 0L15 1L16 1L16 0ZM9 1L9 2L10 2L10 1ZM18 1L18 2L19 2L19 1ZM20 1L20 2L21 2L21 1ZM18 5L18 6L17 6L17 7L18 7L18 6L19 6L19 7L20 7L20 6L19 6L19 5ZM10 6L10 7L11 7L11 6ZM13 6L13 7L14 7L14 6ZM2 8L2 9L1 9L1 10L2 10L2 11L0 11L0 12L1 12L1 14L0 14L0 16L1 16L1 17L0 17L0 21L1 21L1 17L2 17L2 16L1 16L1 15L2 15L2 11L5 11L5 12L4 12L4 14L5 14L5 12L6 12L6 13L7 13L7 12L6 12L6 11L8 11L8 10L5 10L5 8ZM6 8L6 9L7 9L7 8ZM17 8L17 9L19 9L19 10L20 10L20 9L19 9L19 8ZM26 8L26 9L25 9L25 12L24 12L24 11L22 11L22 12L23 12L23 13L21 13L21 15L22 15L22 14L23 14L23 13L24 13L24 19L26 19L26 20L28 20L28 22L29 22L29 20L28 20L28 19L26 19L26 18L27 18L27 17L28 17L28 16L25 16L25 15L28 15L28 10L29 10L29 8ZM2 9L2 10L4 10L4 9ZM18 11L18 12L19 12L19 11ZM25 12L25 13L26 13L26 14L27 14L27 12ZM10 13L10 15L9 15L9 16L7 16L7 17L5 17L5 18L3 18L3 20L4 20L4 19L6 19L6 18L7 18L7 17L9 17L9 18L12 18L12 16L11 16L11 13ZM9 16L9 17L11 17L11 16ZM20 16L20 17L22 17L22 16ZM13 17L13 20L16 20L16 18L15 18L15 17ZM18 19L18 20L19 20L19 19ZM13 21L13 23L12 23L12 22L10 22L10 24L9 24L9 25L10 25L10 26L9 26L9 27L10 27L10 28L11 28L11 27L10 27L10 26L11 26L11 25L10 25L10 24L12 24L12 25L13 25L13 26L14 26L14 25L17 25L17 24L18 24L18 23L17 23L17 22L16 22L16 21ZM21 21L21 24L24 24L24 21ZM22 22L22 23L23 23L23 22ZM16 23L16 24L17 24L17 23ZM13 24L13 25L14 25L14 24ZM22 25L22 26L23 26L23 27L25 27L25 26L24 26L24 25ZM20 26L20 27L19 27L19 28L22 28L22 27L21 27L21 26ZM14 27L14 28L15 28L15 27ZM0 0L0 7L7 7L7 0ZM1 1L1 6L6 6L6 1ZM2 2L2 5L5 5L5 2ZM22 0L22 7L29 7L29 0ZM23 1L23 6L28 6L28 1ZM24 2L24 5L27 5L27 2ZM0 22L0 29L7 29L7 22ZM1 23L1 28L6 28L6 23ZM2 24L2 27L5 27L5 24Z" fill="#000000"/></g></g></svg>
