<?xml version="1.0" encoding="UTF-8"?>
<svg xmlns="http://www.w3.org/2000/svg" version="1.1" width="200" height="200" viewBox="0 0 200 200"><rect x="0" y="0" width="200" height="200" fill="#ffffff"/><g transform="scale(4.878)"><g transform="translate(0,0)"><path fill-rule="evenodd" d="M8 0L8 1L9 1L9 3L8 3L8 4L9 4L9 6L8 6L8 7L9 7L9 8L8 8L8 9L10 9L10 10L11 10L11 11L13 11L13 12L11 12L11 13L10 13L10 11L9 11L9 10L8 10L8 11L7 11L7 10L6 10L6 9L7 9L7 8L4 8L4 9L3 9L3 8L2 8L2 9L1 9L1 10L0 10L0 11L1 11L1 10L2 10L2 11L3 11L3 12L2 12L2 13L0 13L0 14L1 14L1 15L0 15L0 16L1 16L1 15L2 15L2 17L0 17L0 20L1 20L1 21L0 21L0 24L1 24L1 21L2 21L2 22L3 22L3 23L2 23L2 26L3 26L3 27L4 27L4 28L2 28L2 27L1 27L1 25L0 25L0 27L1 27L1 30L0 30L0 31L1 31L1 32L0 32L0 33L1 33L1 32L2 32L2 33L3 33L3 32L4 32L4 33L8 33L8 34L10 34L10 35L11 35L11 36L9 36L9 35L8 35L8 37L9 37L9 38L8 38L8 39L9 39L9 40L11 40L11 41L15 41L15 40L13 40L13 39L14 39L14 38L13 38L13 36L14 36L14 37L15 37L15 39L17 39L17 41L18 41L18 40L19 40L19 38L18 38L18 39L17 39L17 37L20 37L20 38L21 38L21 39L22 39L22 38L23 38L23 39L24 39L24 40L25 40L25 39L27 39L27 40L26 40L26 41L27 41L27 40L28 40L28 39L27 39L27 37L26 37L26 35L27 35L27 36L30 36L30 39L29 39L29 41L31 41L31 40L30 40L30 39L31 39L31 36L32 36L32 37L33 37L33 38L32 38L32 41L33 41L33 39L34 39L34 37L35 37L35 39L36 39L36 40L38 40L38 41L41 41L41 40L40 40L40 39L41 39L41 36L40 36L40 35L41 35L41 25L40 25L40 24L41 24L41 22L39 22L39 23L40 23L40 24L39 24L39 25L38 25L38 23L36 23L36 24L37 24L37 25L38 25L38 26L37 26L37 27L39 27L39 25L40 25L40 29L39 29L39 28L38 28L38 29L39 29L39 30L40 30L40 33L39 33L39 34L37 34L37 32L32 32L32 31L29 31L29 30L30 30L30 28L32 28L32 27L33 27L33 31L34 31L34 28L35 28L35 30L36 30L36 28L35 28L35 27L36 27L36 26L35 26L35 20L34 20L34 26L33 26L33 24L32 24L32 23L33 23L33 22L32 22L32 23L31 23L31 22L30 22L30 21L29 21L29 19L30 19L30 18L28 18L28 19L27 19L27 16L28 16L28 17L30 17L30 15L32 15L32 16L31 16L31 17L32 17L32 18L33 18L33 19L34 19L34 18L36 18L36 16L37 16L37 18L38 18L38 15L41 15L41 12L40 12L40 13L39 13L39 12L38 12L38 13L39 13L39 14L36 14L36 13L35 13L35 12L36 12L36 11L38 11L38 8L37 8L37 10L36 10L36 9L34 9L34 8L32 8L32 7L33 7L33 6L32 6L32 3L33 3L33 2L32 2L32 0L30 0L30 1L29 1L29 0L27 0L27 1L26 1L26 0L25 0L25 1L26 1L26 2L24 2L24 0L23 0L23 1L22 1L22 0L21 0L21 1L22 1L22 2L20 2L20 3L23 3L23 2L24 2L24 3L25 3L25 4L24 4L24 7L23 7L23 6L22 6L22 7L21 7L21 5L22 5L22 4L20 4L20 7L19 7L19 6L18 6L18 8L19 8L19 10L18 10L18 9L17 9L17 10L16 10L16 9L14 9L14 8L15 8L15 6L14 6L14 5L13 5L13 6L12 6L12 4L13 4L13 3L14 3L14 4L15 4L15 3L14 3L14 2L15 2L15 1L14 1L14 0L13 0L13 1L14 1L14 2L12 2L12 1L9 1L9 0ZM17 0L17 3L18 3L18 0ZM19 0L19 1L20 1L20 0ZM30 1L30 2L27 2L27 4L28 4L28 5L29 5L29 7L28 7L28 6L27 6L27 5L26 5L26 4L25 4L25 8L23 8L23 7L22 7L22 8L23 8L23 9L21 9L21 10L23 10L23 11L24 11L24 13L23 13L23 14L22 14L22 13L21 13L21 12L22 12L22 11L20 11L20 10L19 10L19 11L18 11L18 10L17 10L17 11L18 11L18 12L16 12L16 10L15 10L15 11L14 11L14 12L13 12L13 13L12 13L12 14L14 14L14 15L13 15L13 16L12 16L12 15L11 15L11 16L8 16L8 17L9 17L9 18L8 18L8 19L5 19L5 18L7 18L7 17L6 17L6 16L7 16L7 15L8 15L8 14L9 14L9 12L8 12L8 13L5 13L5 12L3 12L3 13L2 13L2 15L3 15L3 16L5 16L5 18L1 18L1 20L4 20L4 21L6 21L6 22L4 22L4 23L6 23L6 24L3 24L3 26L4 26L4 27L5 27L5 26L7 26L7 27L6 27L6 28L7 28L7 29L6 29L6 30L5 30L5 31L6 31L6 32L7 32L7 31L8 31L8 32L9 32L9 31L11 31L11 32L12 32L12 31L11 31L11 30L12 30L12 29L8 29L8 28L7 28L7 27L8 27L8 26L9 26L9 24L7 24L7 23L9 23L9 22L7 22L7 21L8 21L8 19L9 19L9 20L10 20L10 21L12 21L12 22L10 22L10 24L11 24L11 25L10 25L10 27L11 27L11 28L12 28L12 27L11 27L11 25L12 25L12 26L13 26L13 24L16 24L16 27L15 27L15 25L14 25L14 28L15 28L15 29L14 29L14 30L13 30L13 33L10 33L10 34L12 34L12 36L11 36L11 38L12 38L12 36L13 36L13 35L14 35L14 36L15 36L15 35L14 35L14 34L13 34L13 33L15 33L15 34L16 34L16 32L17 32L17 33L18 33L18 34L17 34L17 35L16 35L16 37L17 37L17 35L18 35L18 36L20 36L20 35L21 35L21 37L22 37L22 35L23 35L23 37L24 37L24 38L26 38L26 37L24 37L24 36L25 36L25 35L26 35L26 33L25 33L25 32L28 32L28 31L27 31L27 30L26 30L26 31L25 31L25 28L26 28L26 27L28 27L28 28L29 28L29 27L32 27L32 24L31 24L31 23L30 23L30 24L31 24L31 26L30 26L30 25L29 25L29 26L28 26L28 25L27 25L27 24L26 24L26 23L28 23L28 24L29 24L29 23L28 23L28 20L27 20L27 22L26 22L26 21L25 21L25 20L24 20L24 19L25 19L25 18L24 18L24 19L22 19L22 18L21 18L21 19L20 19L20 20L21 20L21 22L22 22L22 24L19 24L19 23L20 23L20 21L19 21L19 20L18 20L18 21L16 21L16 20L17 20L17 19L19 19L19 18L20 18L20 17L19 17L19 15L21 15L21 17L22 17L22 16L23 16L23 14L24 14L24 13L25 13L25 14L26 14L26 15L25 15L25 17L26 17L26 15L28 15L28 16L29 16L29 11L30 11L30 10L31 10L31 11L32 11L32 12L31 12L31 13L30 13L30 14L31 14L31 13L32 13L32 12L33 12L33 17L34 17L34 16L35 16L35 15L36 15L36 14L35 14L35 13L34 13L34 12L35 12L35 11L34 11L34 9L33 9L33 10L32 10L32 9L31 9L31 8L30 8L30 10L28 10L28 8L29 8L29 7L30 7L30 6L31 6L31 7L32 7L32 6L31 6L31 1ZM11 2L11 3L9 3L9 4L10 4L10 6L9 6L9 7L10 7L10 6L11 6L11 7L12 7L12 8L10 8L10 9L11 9L11 10L13 10L13 8L14 8L14 6L13 6L13 7L12 7L12 6L11 6L11 3L12 3L12 2ZM29 3L29 4L30 4L30 3ZM16 4L16 8L17 8L17 5L19 5L19 4ZM26 6L26 7L27 7L27 8L28 8L28 7L27 7L27 6ZM20 7L20 8L21 8L21 7ZM40 8L40 11L41 11L41 8ZM4 9L4 11L6 11L6 12L7 12L7 11L6 11L6 10L5 10L5 9ZM23 9L23 10L24 10L24 11L25 11L25 13L27 13L27 14L28 14L28 13L27 13L27 12L26 12L26 11L27 11L27 10L25 10L25 9ZM14 12L14 13L15 13L15 14L16 14L16 13L15 13L15 12ZM19 12L19 13L20 13L20 12ZM3 13L3 14L4 14L4 15L5 15L5 16L6 16L6 15L7 15L7 14L5 14L5 13ZM17 13L17 14L18 14L18 15L19 15L19 14L18 14L18 13ZM21 14L21 15L22 15L22 14ZM34 14L34 15L35 15L35 14ZM15 15L15 17L14 17L14 16L13 16L13 17L14 17L14 18L15 18L15 17L16 17L16 16L17 16L17 15ZM39 16L39 19L41 19L41 17L40 17L40 16ZM11 17L11 18L10 18L10 19L11 19L11 18L12 18L12 21L13 21L13 23L14 23L14 22L15 22L15 21L14 21L14 20L15 20L15 19L13 19L13 18L12 18L12 17ZM17 17L17 18L16 18L16 19L17 19L17 18L19 18L19 17ZM36 19L36 22L37 22L37 19ZM6 20L6 21L7 21L7 20ZM23 20L23 21L22 21L22 22L23 22L23 24L22 24L22 25L20 25L20 26L18 26L18 28L19 28L19 27L20 27L20 29L21 29L21 30L18 30L18 29L17 29L17 30L16 30L16 29L15 29L15 30L14 30L14 31L15 31L15 32L16 32L16 31L18 31L18 32L19 32L19 33L20 33L20 34L21 34L21 35L22 35L22 34L23 34L23 35L24 35L24 34L25 34L25 33L24 33L24 32L25 32L25 31L24 31L24 32L23 32L23 31L22 31L22 30L24 30L24 28L23 28L23 27L25 27L25 26L27 26L27 25L26 25L26 24L24 24L24 22L23 22L23 21L24 21L24 20ZM39 20L39 21L40 21L40 20ZM18 21L18 23L19 23L19 21ZM6 22L6 23L7 23L7 22ZM25 22L25 23L26 23L26 22ZM6 24L6 25L7 25L7 26L8 26L8 25L7 25L7 24ZM17 24L17 25L19 25L19 24ZM4 25L4 26L5 26L5 25ZM22 25L22 26L20 26L20 27L22 27L22 26L23 26L23 25ZM24 25L24 26L25 26L25 25ZM34 26L34 27L35 27L35 26ZM2 29L2 30L1 30L1 31L2 31L2 32L3 32L3 31L4 31L4 29ZM31 29L31 30L32 30L32 29ZM2 30L2 31L3 31L3 30ZM6 30L6 31L7 31L7 30ZM8 30L8 31L9 31L9 30ZM37 30L37 31L38 31L38 30ZM21 31L21 32L22 32L22 33L23 33L23 34L24 34L24 33L23 33L23 32L22 32L22 31ZM30 32L30 34L29 34L29 35L30 35L30 34L32 34L32 32ZM27 33L27 35L28 35L28 33ZM33 33L33 36L36 36L36 33ZM18 34L18 35L19 35L19 34ZM34 34L34 35L35 35L35 34ZM39 34L39 35L38 35L38 38L39 38L39 39L38 39L38 40L39 40L39 39L40 39L40 38L39 38L39 35L40 35L40 34ZM36 37L36 38L37 38L37 37ZM9 38L9 39L10 39L10 38ZM11 39L11 40L12 40L12 39ZM34 40L34 41L35 41L35 40ZM0 0L0 7L7 7L7 0ZM1 1L1 6L6 6L6 1ZM2 2L2 5L5 5L5 2ZM34 0L34 7L41 7L41 0ZM35 1L35 6L40 6L40 1ZM36 2L36 5L39 5L39 2ZM0 34L0 41L7 41L7 34ZM1 35L1 40L6 40L6 35ZM2 36L2 39L5 39L5 36Z" fill="#000000"/></g></g></svg>
