<?xml version="1.0" encoding="UTF-8"?>
<svg xmlns="http://www.w3.org/2000/svg" version="1.1" width="200" height="200" viewBox="0 0 200 200"><rect x="0" y="0" width="200" height="200" fill="#ffffff"/><g transform="scale(6.897)"><g transform="translate(0,0)"><path fill-rule="evenodd" d="M9 0L9 2L11 2L11 1L10 1L10 0ZM12 0L12 3L10 3L10 4L12 4L12 7L11 7L11 5L9 5L9 4L8 4L8 5L9 5L9 6L8 6L8 8L6 8L6 9L4 9L4 8L2 8L2 9L1 9L1 10L0 10L0 11L1 11L1 10L2 10L2 11L3 11L3 12L1 12L1 14L0 14L0 17L1 17L1 18L0 18L0 19L1 19L1 18L2 18L2 19L3 19L3 20L5 20L5 21L7 21L7 20L5 20L5 19L3 19L3 18L4 18L4 16L2 16L2 14L3 14L3 15L4 15L4 13L5 13L5 15L7 15L7 16L5 16L5 17L7 17L7 16L8 16L8 17L9 17L9 19L8 19L8 20L9 20L9 21L8 21L8 23L10 23L10 25L11 25L11 27L12 27L12 28L10 28L10 26L9 26L9 25L8 25L8 27L9 27L9 29L14 29L14 27L15 27L15 26L17 26L17 27L18 27L18 28L17 28L17 29L18 29L18 28L19 28L19 29L20 29L20 28L19 28L19 26L20 26L20 25L23 25L23 26L24 26L24 27L22 27L22 29L23 29L23 28L25 28L25 29L26 29L26 27L25 27L25 26L24 26L24 25L26 25L26 26L27 26L27 25L26 25L26 23L25 23L25 22L26 22L26 18L29 18L29 17L26 17L26 16L25 16L25 15L24 15L24 16L23 16L23 17L21 17L21 18L20 18L20 17L19 17L19 15L20 15L20 14L21 14L21 13L20 13L20 12L22 12L22 9L23 9L23 13L22 13L22 15L23 15L23 14L24 14L24 13L25 13L25 14L26 14L26 15L27 15L27 16L28 16L28 15L29 15L29 14L28 14L28 15L27 15L27 13L28 13L28 12L29 12L29 11L28 11L28 12L27 12L27 10L29 10L29 9L25 9L25 8L24 8L24 9L23 9L23 8L21 8L21 3L20 3L20 2L18 2L18 1L17 1L17 2L18 2L18 4L19 4L19 5L15 5L15 6L14 6L14 5L13 5L13 3L14 3L14 4L15 4L15 2L16 2L16 0L15 0L15 1L14 1L14 0ZM13 1L13 2L14 2L14 1ZM16 3L16 4L17 4L17 3ZM19 3L19 4L20 4L20 3ZM19 5L19 7L18 7L18 6L17 6L17 8L14 8L14 6L13 6L13 7L12 7L12 8L9 8L9 9L12 9L12 10L9 10L9 11L8 11L8 12L9 12L9 11L12 11L12 13L9 13L9 14L8 14L8 13L6 13L6 12L7 12L7 11L6 11L6 10L7 10L7 9L6 9L6 10L5 10L5 11L6 11L6 12L5 12L5 13L6 13L6 14L8 14L8 15L9 15L9 16L11 16L11 15L9 15L9 14L12 14L12 13L13 13L13 14L15 14L15 15L12 15L12 16L14 16L14 18L13 18L13 17L12 17L12 18L11 18L11 17L10 17L10 18L11 18L11 19L12 19L12 20L13 20L13 22L12 22L12 23L11 23L11 24L12 24L12 25L13 25L13 27L14 27L14 25L17 25L17 22L19 22L19 23L18 23L18 26L19 26L19 25L20 25L20 24L19 24L19 23L20 23L20 21L18 21L18 20L20 20L20 18L17 18L17 19L18 19L18 20L16 20L16 21L14 21L14 19L16 19L16 18L15 18L15 17L16 17L16 14L17 14L17 16L18 16L18 14L17 14L17 11L19 11L19 12L20 12L20 11L19 11L19 10L20 10L20 9L21 9L21 8L19 8L19 7L20 7L20 5ZM9 6L9 7L10 7L10 6ZM15 6L15 7L16 7L16 6ZM18 8L18 9L17 9L17 10L19 10L19 8ZM3 9L3 10L4 10L4 9ZM13 9L13 11L15 11L15 12L13 12L13 13L15 13L15 14L16 14L16 13L15 13L15 12L16 12L16 11L15 11L15 10L16 10L16 9ZM24 9L24 10L25 10L25 9ZM25 11L25 13L27 13L27 12L26 12L26 11ZM3 12L3 13L4 13L4 12ZM19 13L19 14L20 14L20 13ZM1 16L1 17L2 17L2 18L3 18L3 17L2 17L2 16ZM24 16L24 17L23 17L23 18L22 18L22 19L21 19L21 20L22 20L22 19L24 19L24 20L25 20L25 19L24 19L24 18L26 18L26 17L25 17L25 16ZM6 18L6 19L7 19L7 18ZM12 18L12 19L13 19L13 18ZM9 19L9 20L10 20L10 19ZM1 20L1 21L2 21L2 20ZM27 20L27 21L28 21L28 22L27 22L27 24L29 24L29 23L28 23L28 22L29 22L29 21L28 21L28 20ZM9 21L9 22L10 22L10 21ZM16 21L16 22L14 22L14 23L12 23L12 24L13 24L13 25L14 25L14 24L16 24L16 22L17 22L17 21ZM21 21L21 24L24 24L24 21ZM22 22L22 23L23 23L23 22ZM28 26L28 27L27 27L27 28L29 28L29 26ZM0 0L0 7L7 7L7 0ZM1 1L1 6L6 6L6 1ZM2 2L2 5L5 5L5 2ZM22 0L22 7L29 7L29 0ZM23 1L23 6L28 6L28 1ZM24 2L24 5L27 5L27 2ZM0 22L0 29L7 29L7 22ZM1 23L1 28L6 28L6 23ZM2 24L2 27L5 27L5 24Z" fill="#000000"/></g></g></svg>
