<?xml version="1.0" encoding="UTF-8"?>
<svg xmlns="http://www.w3.org/2000/svg" version="1.1" width="200" height="200" viewBox="0 0 200 200"><rect x="0" y="0" width="200" height="200" fill="#ffffff"/><g transform="scale(6.897)"><g transform="translate(0,0)"><path fill-rule="evenodd" d="M9 0L9 1L10 1L10 2L8 2L8 4L10 4L10 2L11 2L11 6L10 6L10 5L9 5L9 6L8 6L8 7L9 7L9 8L10 8L10 7L11 7L11 6L12 6L12 7L13 7L13 6L12 6L12 3L13 3L13 2L14 2L14 3L15 3L15 4L17 4L17 5L14 5L14 4L13 4L13 5L14 5L14 7L15 7L15 6L16 6L16 9L13 9L13 8L11 8L11 9L10 9L10 10L11 10L11 9L12 9L12 10L15 10L15 11L12 11L12 13L9 13L9 12L10 12L10 11L9 11L9 9L8 9L8 8L6 8L6 9L7 9L7 10L6 10L6 11L7 11L7 12L6 12L6 13L7 13L7 12L8 12L8 13L9 13L9 14L12 14L12 13L13 13L13 14L17 14L17 16L15 16L15 15L14 15L14 17L15 17L15 18L14 18L14 19L13 19L13 17L9 17L9 16L11 16L11 15L9 15L9 16L8 16L8 15L7 15L7 14L5 14L5 13L4 13L4 12L1 12L1 13L0 13L0 16L1 16L1 15L3 15L3 16L5 16L5 17L3 17L3 20L4 20L4 21L8 21L8 23L9 23L9 19L10 19L10 21L12 21L12 22L10 22L10 24L11 24L11 23L12 23L12 22L13 22L13 21L12 21L12 20L11 20L11 19L13 19L13 20L14 20L14 21L15 21L15 23L13 23L13 24L12 24L12 25L9 25L9 24L8 24L8 26L9 26L9 28L10 28L10 27L11 27L11 28L12 28L12 29L13 29L13 28L14 28L14 29L15 29L15 28L14 28L14 25L16 25L16 26L15 26L15 27L16 27L16 29L17 29L17 28L18 28L18 29L19 29L19 28L20 28L20 29L21 29L21 27L22 27L22 28L24 28L24 29L25 29L25 28L26 28L26 29L28 29L28 28L26 28L26 27L22 27L22 26L21 26L21 27L19 27L19 26L18 26L18 24L19 24L19 25L24 25L24 26L25 26L25 22L27 22L27 21L26 21L26 19L27 19L27 18L29 18L29 17L28 17L28 16L29 16L29 14L27 14L27 13L29 13L29 11L28 11L28 10L27 10L27 8L25 8L25 9L24 9L24 10L23 10L23 9L22 9L22 10L23 10L23 12L22 12L22 11L21 11L21 12L19 12L19 10L18 10L18 9L19 9L19 8L18 8L18 9L17 9L17 6L18 6L18 7L19 7L19 6L20 6L20 7L21 7L21 4L20 4L20 3L21 3L21 1L20 1L20 0L17 0L17 1L13 1L13 2L11 2L11 1L12 1L12 0L11 0L11 1L10 1L10 0ZM17 1L17 2L16 2L16 3L17 3L17 4L18 4L18 3L20 3L20 1L19 1L19 2L18 2L18 1ZM9 6L9 7L10 7L10 6ZM3 8L3 9L2 9L2 10L1 10L1 11L2 11L2 10L3 10L3 9L4 9L4 10L5 10L5 8ZM20 8L20 10L21 10L21 8ZM25 9L25 10L26 10L26 11L27 11L27 12L28 12L28 11L27 11L27 10L26 10L26 9ZM7 10L7 11L8 11L8 12L9 12L9 11L8 11L8 10ZM16 10L16 11L17 11L17 12L15 12L15 13L17 13L17 14L18 14L18 15L19 15L19 16L18 16L18 19L17 19L17 18L16 18L16 19L15 19L15 21L16 21L16 22L17 22L17 23L16 23L16 24L17 24L17 23L19 23L19 24L20 24L20 20L22 20L22 19L20 19L20 15L21 15L21 18L22 18L22 16L24 16L24 12L23 12L23 14L22 14L22 12L21 12L21 14L20 14L20 15L19 15L19 13L17 13L17 12L18 12L18 10ZM13 12L13 13L14 13L14 12ZM1 13L1 14L2 14L2 13ZM3 13L3 15L5 15L5 16L7 16L7 17L6 17L6 18L5 18L5 19L4 19L4 20L8 20L8 18L9 18L9 17L8 17L8 16L7 16L7 15L5 15L5 14L4 14L4 13ZM25 13L25 16L26 16L26 17L27 17L27 16L28 16L28 15L27 15L27 16L26 16L26 13ZM12 15L12 16L13 16L13 15ZM0 17L0 21L2 21L2 18L1 18L1 17ZM7 17L7 18L6 18L6 19L7 19L7 18L8 18L8 17ZM23 18L23 20L25 20L25 19L26 19L26 18L25 18L25 19L24 19L24 18ZM16 19L16 21L17 21L17 22L18 22L18 20L19 20L19 19L18 19L18 20L17 20L17 19ZM21 21L21 24L24 24L24 21ZM28 21L28 22L29 22L29 21ZM22 22L22 23L23 23L23 22ZM28 23L28 24L26 24L26 26L27 26L27 27L29 27L29 26L27 26L27 25L28 25L28 24L29 24L29 23ZM13 24L13 25L14 25L14 24ZM11 26L11 27L12 27L12 28L13 28L13 27L12 27L12 26ZM0 0L0 7L7 7L7 0ZM1 1L1 6L6 6L6 1ZM2 2L2 5L5 5L5 2ZM22 0L22 7L29 7L29 0ZM23 1L23 6L28 6L28 1ZM24 2L24 5L27 5L27 2ZM0 22L0 29L7 29L7 22ZM1 23L1 28L6 28L6 23ZM2 24L2 27L5 27L5 24Z" fill="#000000"/></g></g></svg>
