<?xml version="1.0" encoding="UTF-8"?>
<svg xmlns="http://www.w3.org/2000/svg" version="1.1" width="200" height="200" viewBox="0 0 200 200"><rect x="0" y="0" width="200" height="200" fill="#ffffff"/><g transform="scale(4.878)"><g transform="translate(0,0)"><path fill-rule="evenodd" d="M8 0L8 3L10 3L10 4L11 4L11 3L10 3L10 2L11 2L11 1L12 1L12 0L10 0L10 2L9 2L9 0ZM13 0L13 1L14 1L14 2L16 2L16 1L19 1L19 3L18 3L18 5L16 5L16 4L17 4L17 3L13 3L13 2L12 2L12 3L13 3L13 5L14 5L14 8L13 8L13 6L12 6L12 8L11 8L11 5L8 5L8 9L10 9L10 10L9 10L9 11L11 11L11 12L10 12L10 13L9 13L9 12L8 12L8 10L6 10L6 9L7 9L7 8L6 8L6 9L5 9L5 8L2 8L2 9L1 9L1 10L0 10L0 11L1 11L1 12L0 12L0 13L1 13L1 14L0 14L0 16L1 16L1 14L2 14L2 16L3 16L3 17L8 17L8 18L6 18L6 19L5 19L5 18L2 18L2 17L0 17L0 19L1 19L1 20L5 20L5 23L4 23L4 22L2 22L2 21L0 21L0 22L2 22L2 23L4 23L4 24L5 24L5 25L3 25L3 24L1 24L1 23L0 23L0 24L1 24L1 25L3 25L3 26L2 26L2 27L1 27L1 26L0 26L0 28L2 28L2 29L0 29L0 33L1 33L1 30L2 30L2 31L3 31L3 32L2 32L2 33L4 33L4 32L5 32L5 33L7 33L7 32L5 32L5 31L8 31L8 29L9 29L9 31L11 31L11 30L12 30L12 33L11 33L11 32L10 32L10 33L11 33L11 34L9 34L9 32L8 32L8 34L9 34L9 35L11 35L11 34L15 34L15 35L14 35L14 36L13 36L13 37L14 37L14 36L16 36L16 37L15 37L15 38L14 38L14 40L13 40L13 39L12 39L12 38L11 38L11 40L12 40L12 41L16 41L16 40L17 40L17 41L21 41L21 40L19 40L19 38L20 38L20 39L21 39L21 37L22 37L22 39L24 39L24 40L23 40L23 41L31 41L31 40L33 40L33 41L34 41L34 40L33 40L33 39L32 39L32 38L34 38L34 39L35 39L35 40L36 40L36 39L37 39L37 40L40 40L40 38L41 38L41 37L39 37L39 36L41 36L41 35L40 35L40 34L41 34L41 33L39 33L39 32L41 32L41 31L40 31L40 30L41 30L41 29L39 29L39 30L38 30L38 31L39 31L39 32L37 32L37 31L36 31L36 32L33 32L33 31L32 31L32 30L33 30L33 29L34 29L34 28L33 28L33 27L34 27L34 26L35 26L35 27L36 27L36 28L38 28L38 26L39 26L39 27L40 27L40 26L41 26L41 23L39 23L39 24L40 24L40 26L39 26L39 25L34 25L34 24L35 24L35 23L36 23L36 24L37 24L37 21L38 21L38 22L39 22L39 20L36 20L36 19L35 19L35 17L36 17L36 18L37 18L37 19L39 19L39 18L41 18L41 16L40 16L40 17L39 17L39 16L38 16L38 15L40 15L40 14L41 14L41 13L40 13L40 14L37 14L37 13L36 13L36 14L37 14L37 15L35 15L35 17L34 17L34 16L32 16L32 17L31 17L31 16L29 16L29 15L28 15L28 16L29 16L29 17L31 17L31 18L30 18L30 19L31 19L31 18L32 18L32 17L33 17L33 18L34 18L34 19L35 19L35 21L34 21L34 20L33 20L33 19L32 19L32 21L31 21L31 20L30 20L30 21L31 21L31 22L32 22L32 21L34 21L34 22L35 22L35 23L31 23L31 24L33 24L33 25L30 25L30 24L29 24L29 23L30 23L30 22L29 22L29 21L28 21L28 20L27 20L27 19L28 19L28 18L27 18L27 15L26 15L26 14L29 14L29 13L30 13L30 14L31 14L31 12L32 12L32 13L33 13L33 14L32 14L32 15L34 15L34 13L35 13L35 12L38 12L38 11L40 11L40 10L41 10L41 8L38 8L38 9L40 9L40 10L37 10L37 9L36 9L36 8L33 8L33 6L32 6L32 7L31 7L31 5L33 5L33 4L30 4L30 7L31 7L31 8L27 8L27 9L31 9L31 10L33 10L33 9L34 9L34 11L30 11L30 10L26 10L26 9L25 9L25 10L24 10L24 11L25 11L25 12L24 12L24 13L23 13L23 12L22 12L22 11L23 11L23 10L22 10L22 11L20 11L20 12L19 12L19 13L20 13L20 14L18 14L18 13L17 13L17 12L16 12L16 13L15 13L15 12L14 12L14 11L17 11L17 10L19 10L19 9L24 9L24 7L25 7L25 5L27 5L27 6L26 6L26 7L27 7L27 6L28 6L28 7L29 7L29 6L28 6L28 5L27 5L27 4L25 4L25 5L24 5L24 4L23 4L23 5L22 5L22 8L19 8L19 4L20 4L20 7L21 7L21 4L22 4L22 3L23 3L23 0L22 0L22 3L21 3L21 4L20 4L20 1L21 1L21 0L16 0L16 1L14 1L14 0ZM24 0L24 1L25 1L25 0ZM26 0L26 1L27 1L27 2L26 2L26 3L28 3L28 4L29 4L29 3L31 3L31 2L30 2L30 0L29 0L29 1L27 1L27 0ZM31 0L31 1L32 1L32 3L33 3L33 1L32 1L32 0ZM23 5L23 7L24 7L24 5ZM9 6L9 7L10 7L10 6ZM15 6L15 8L14 8L14 9L13 9L13 10L12 10L12 9L11 9L11 8L10 8L10 9L11 9L11 11L12 11L12 12L13 12L13 10L16 10L16 9L15 9L15 8L17 8L17 7L18 7L18 6L17 6L17 7L16 7L16 6ZM31 8L31 9L33 9L33 8ZM2 9L2 12L1 12L1 13L3 13L3 16L5 16L5 15L4 15L4 14L7 14L7 15L6 15L6 16L8 16L8 17L9 17L9 18L10 18L10 19L9 19L9 20L8 20L8 19L6 19L6 20L7 20L7 21L6 21L6 22L8 22L8 21L10 21L10 22L9 22L9 23L6 23L6 24L9 24L9 25L10 25L10 22L11 22L11 20L12 20L12 18L10 18L10 16L11 16L11 17L12 17L12 16L11 16L11 14L12 14L12 15L13 15L13 16L14 16L14 14L15 14L15 13L11 13L11 14L7 14L7 13L6 13L6 12L7 12L7 11L6 11L6 10L5 10L5 9L4 9L4 10L5 10L5 11L3 11L3 9ZM35 9L35 11L37 11L37 10L36 10L36 9ZM25 10L25 11L26 11L26 12L25 12L25 13L24 13L24 14L23 14L23 13L22 13L22 12L20 12L20 13L22 13L22 15L21 15L21 14L20 14L20 15L21 15L21 16L20 16L20 19L18 19L18 17L19 17L19 16L18 16L18 17L17 17L17 18L15 18L15 22L14 22L14 21L12 21L12 24L13 24L13 22L14 22L14 24L16 24L16 25L13 25L13 26L14 26L14 28L15 28L15 29L16 29L16 30L15 30L15 31L14 31L14 30L13 30L13 31L14 31L14 32L13 32L13 33L15 33L15 34L16 34L16 33L15 33L15 31L18 31L18 32L17 32L17 33L18 33L18 34L17 34L17 35L16 35L16 36L17 36L17 35L18 35L18 38L16 38L16 39L15 39L15 40L16 40L16 39L18 39L18 38L19 38L19 37L21 37L21 35L20 35L20 36L19 36L19 35L18 35L18 34L20 34L20 32L21 32L21 34L23 34L23 33L25 33L25 35L23 35L23 36L22 36L22 37L23 37L23 38L24 38L24 39L25 39L25 38L26 38L26 39L27 39L27 40L31 40L31 39L29 39L29 38L30 38L30 37L31 37L31 38L32 38L32 35L31 35L31 34L30 34L30 35L31 35L31 36L29 36L29 34L28 34L28 33L29 33L29 32L30 32L30 33L31 33L31 32L30 32L30 31L28 31L28 33L27 33L27 32L26 32L26 31L27 31L27 30L26 30L26 28L25 28L25 27L27 27L27 26L29 26L29 27L28 27L28 28L27 28L27 29L28 29L28 30L30 30L30 29L31 29L31 30L32 30L32 29L33 29L33 28L32 28L32 27L33 27L33 26L34 26L34 25L33 25L33 26L29 26L29 25L27 25L27 24L26 24L26 25L24 25L24 24L22 24L22 26L23 26L23 25L24 25L24 28L22 28L22 27L21 27L21 26L19 26L19 24L20 24L20 25L21 25L21 24L20 24L20 22L19 22L19 21L20 21L20 20L21 20L21 21L22 21L22 22L21 22L21 23L26 23L26 22L23 22L23 19L22 19L22 17L21 17L21 16L22 16L22 15L23 15L23 16L24 16L24 18L25 18L25 19L24 19L24 21L27 21L27 22L28 22L28 23L29 23L29 22L28 22L28 21L27 21L27 20L26 20L26 18L25 18L25 14L26 14L26 12L27 12L27 11L26 11L26 10ZM28 11L28 13L29 13L29 12L30 12L30 11ZM4 12L4 13L5 13L5 12ZM33 12L33 13L34 13L34 12ZM16 13L16 14L17 14L17 13ZM9 15L9 16L10 16L10 15ZM36 16L36 17L37 17L37 18L39 18L39 17L38 17L38 16ZM1 18L1 19L2 19L2 18ZM13 19L13 20L14 20L14 19ZM16 19L16 24L17 24L17 25L16 25L16 27L18 27L18 30L19 30L19 32L20 32L20 31L21 31L21 32L25 32L25 33L26 33L26 32L25 32L25 31L24 31L24 30L25 30L25 28L24 28L24 29L23 29L23 31L21 31L21 30L20 30L20 29L22 29L22 28L20 28L20 29L19 29L19 27L18 27L18 26L17 26L17 25L18 25L18 24L19 24L19 22L18 22L18 23L17 23L17 21L18 21L18 20L17 20L17 19ZM21 19L21 20L22 20L22 19ZM40 20L40 21L41 21L41 20ZM35 21L35 22L36 22L36 21ZM6 25L6 26L5 26L5 27L4 27L4 26L3 26L3 27L2 27L2 28L4 28L4 29L2 29L2 30L3 30L3 31L4 31L4 30L5 30L5 29L6 29L6 30L7 30L7 29L6 29L6 28L7 28L7 27L6 27L6 26L8 26L8 25ZM9 26L9 29L10 29L10 30L11 30L11 29L13 29L13 28L10 28L10 26ZM5 27L5 28L6 28L6 27ZM16 28L16 29L17 29L17 28ZM28 28L28 29L30 29L30 28ZM35 29L35 30L34 30L34 31L35 31L35 30L37 30L37 29ZM33 33L33 36L36 36L36 33ZM37 33L37 36L39 36L39 34L38 34L38 33ZM26 34L26 37L28 37L28 38L27 38L27 39L28 39L28 38L29 38L29 37L28 37L28 36L27 36L27 35L28 35L28 34ZM34 34L34 35L35 35L35 34ZM8 36L8 39L10 39L10 37L11 37L11 36ZM34 37L34 38L36 38L36 37ZM37 38L37 39L38 39L38 38ZM9 40L9 41L10 41L10 40ZM0 0L0 7L7 7L7 0ZM1 1L1 6L6 6L6 1ZM2 2L2 5L5 5L5 2ZM34 0L34 7L41 7L41 0ZM35 1L35 6L40 6L40 1ZM36 2L36 5L39 5L39 2ZM0 34L0 41L7 41L7 34ZM1 35L1 40L6 40L6 35ZM2 36L2 39L5 39L5 36Z" fill="#000000"/></g></g></svg>
