<?xml version="1.0" encoding="UTF-8"?>
<svg xmlns="http://www.w3.org/2000/svg" version="1.1" width="200" height="200" viewBox="0 0 200 200"><rect x="0" y="0" width="200" height="200" fill="#ffffff"/><g transform="scale(6.897)"><g transform="translate(0,0)"><path fill-rule="evenodd" d="M9 0L9 1L11 1L11 2L10 2L10 3L11 3L11 4L9 4L9 2L8 2L8 4L9 4L9 6L8 6L8 7L9 7L9 9L10 9L10 10L9 10L9 12L11 12L11 6L10 6L10 5L11 5L11 4L12 4L12 10L13 10L13 9L14 9L14 13L13 13L13 11L12 11L12 13L10 13L10 14L9 14L9 13L8 13L8 15L7 15L7 14L5 14L5 15L4 15L4 13L5 13L5 11L8 11L8 8L6 8L6 9L7 9L7 10L5 10L5 8L3 8L3 9L4 9L4 10L2 10L2 9L0 9L0 12L1 12L1 14L3 14L3 15L2 15L2 16L0 16L0 21L7 21L7 20L10 20L10 19L13 19L13 20L17 20L17 21L18 21L18 22L16 22L16 21L15 21L15 22L14 22L14 21L13 21L13 25L12 25L12 26L13 26L13 27L14 27L14 28L13 28L13 29L14 29L14 28L15 28L15 29L17 29L17 28L16 28L16 27L18 27L18 29L20 29L20 28L21 28L21 29L23 29L23 28L24 28L24 29L25 29L25 27L23 27L23 28L22 28L22 26L21 26L21 27L20 27L20 28L19 28L19 27L18 27L18 26L19 26L19 25L24 25L24 26L25 26L25 22L27 22L27 24L26 24L26 28L27 28L27 29L28 29L28 28L27 28L27 27L29 27L29 26L27 26L27 25L29 25L29 24L28 24L28 23L29 23L29 21L28 21L28 22L27 22L27 21L26 21L26 19L25 19L25 18L28 18L28 19L29 19L29 17L28 17L28 16L29 16L29 15L27 15L27 13L29 13L29 11L28 11L28 10L27 10L27 8L25 8L25 9L26 9L26 10L25 10L25 12L24 12L24 16L23 16L23 12L22 12L22 11L21 11L21 10L19 10L19 9L17 9L17 10L16 10L16 9L14 9L14 8L15 8L15 6L16 6L16 7L17 7L17 8L19 8L19 6L20 6L20 8L21 8L21 4L19 4L19 3L20 3L20 1L21 1L21 0L19 0L19 1L18 1L18 0L17 0L17 1L18 1L18 2L19 2L19 3L18 3L18 4L19 4L19 6L18 6L18 7L17 7L17 6L16 6L16 5L17 5L17 4L14 4L14 2L15 2L15 3L17 3L17 2L16 2L16 1L13 1L13 0ZM12 1L12 2L11 2L11 3L12 3L12 4L13 4L13 5L14 5L14 4L13 4L13 3L12 3L12 2L13 2L13 1ZM9 6L9 7L10 7L10 6ZM13 6L13 7L14 7L14 6ZM22 9L22 10L23 10L23 11L24 11L24 9ZM4 10L4 11L5 11L5 10ZM17 10L17 11L16 11L16 12L15 12L15 14L16 14L16 15L15 15L15 16L14 16L14 14L13 14L13 13L12 13L12 14L11 14L11 15L12 15L12 16L8 16L8 17L9 17L9 18L7 18L7 17L5 17L5 16L7 16L7 15L5 15L5 16L4 16L4 17L3 17L3 16L2 16L2 17L3 17L3 18L2 18L2 19L3 19L3 18L7 18L7 19L4 19L4 20L7 20L7 19L10 19L10 17L11 17L11 18L12 18L12 16L13 16L13 18L14 18L14 19L15 19L15 18L16 18L16 19L17 19L17 20L18 20L18 21L19 21L19 22L18 22L18 23L19 23L19 24L20 24L20 21L19 21L19 18L20 18L20 19L21 19L21 20L22 20L22 19L21 19L21 16L20 16L20 15L21 15L21 14L22 14L22 12L21 12L21 14L20 14L20 15L18 15L18 16L17 16L17 14L16 14L16 12L17 12L17 13L18 13L18 12L17 12L17 11L19 11L19 10ZM26 10L26 11L27 11L27 12L28 12L28 11L27 11L27 10ZM1 11L1 12L2 12L2 13L3 13L3 11ZM6 12L6 13L7 13L7 12ZM19 12L19 13L20 13L20 12ZM25 13L25 16L26 16L26 17L27 17L27 16L26 16L26 13ZM16 16L16 18L19 18L19 16L18 16L18 17L17 17L17 16ZM22 16L22 17L23 17L23 16ZM23 19L23 20L25 20L25 19ZM11 20L11 21L8 21L8 23L9 23L9 24L8 24L8 26L9 26L9 25L10 25L10 27L11 27L11 28L12 28L12 27L11 27L11 24L12 24L12 23L11 23L11 22L12 22L12 20ZM21 21L21 24L24 24L24 21ZM15 22L15 24L17 24L17 25L16 25L16 26L17 26L17 25L18 25L18 24L17 24L17 23L16 23L16 22ZM22 22L22 23L23 23L23 22ZM9 28L9 29L10 29L10 28ZM0 0L0 7L7 7L7 0ZM1 1L1 6L6 6L6 1ZM2 2L2 5L5 5L5 2ZM22 0L22 7L29 7L29 0ZM23 1L23 6L28 6L28 1ZM24 2L24 5L27 5L27 2ZM0 22L0 29L7 29L7 22ZM1 23L1 28L6 28L6 23ZM2 24L2 27L5 27L5 24Z" fill="#000000"/></g></g></svg>
