<?xml version="1.0" encoding="UTF-8"?>
<svg xmlns="http://www.w3.org/2000/svg" version="1.1" width="200" height="200" viewBox="0 0 200 200"><rect x="0" y="0" width="200" height="200" fill="#ffffff"/><g transform="scale(6.897)"><g transform="translate(0,0)"><path fill-rule="evenodd" d="M9 0L9 1L8 1L8 7L9 7L9 4L10 4L10 5L12 5L12 8L13 8L13 5L14 5L14 4L16 4L16 5L15 5L15 6L14 6L14 8L15 8L15 6L16 6L16 8L17 8L17 10L16 10L16 9L12 9L12 10L10 10L10 11L9 11L9 8L5 8L5 9L8 9L8 11L7 11L7 10L6 10L6 11L5 11L5 10L4 10L4 9L3 9L3 8L2 8L2 10L4 10L4 11L3 11L3 12L1 12L1 11L0 11L0 12L1 12L1 14L0 14L0 15L2 15L2 16L3 16L3 18L2 18L2 17L1 17L1 18L0 18L0 19L3 19L3 20L0 20L0 21L3 21L3 20L4 20L4 21L5 21L5 20L4 20L4 19L5 19L5 18L6 18L6 19L7 19L7 18L6 18L6 17L9 17L9 18L8 18L8 20L6 20L6 21L8 21L8 24L9 24L9 23L10 23L10 24L12 24L12 25L17 25L17 26L18 26L18 27L16 27L16 26L13 26L13 28L12 28L12 27L11 27L11 25L9 25L9 26L8 26L8 27L9 27L9 28L10 28L10 29L11 29L11 28L12 28L12 29L15 29L15 28L18 28L18 29L21 29L21 28L20 28L20 27L22 27L22 26L21 26L21 25L25 25L25 28L24 28L24 26L23 26L23 28L22 28L22 29L23 29L23 28L24 28L24 29L29 29L29 26L26 26L26 25L28 25L28 24L26 24L26 25L25 25L25 23L26 23L26 21L27 21L27 20L26 20L26 18L28 18L28 17L29 17L29 16L27 16L27 17L24 17L24 16L23 16L23 15L25 15L25 14L26 14L26 13L29 13L29 12L27 12L27 11L29 11L29 9L28 9L28 8L23 8L23 9L28 9L28 10L27 10L27 11L25 11L25 10L22 10L22 11L21 11L21 12L18 12L18 11L20 11L20 10L19 10L19 8L21 8L21 9L22 9L22 8L21 8L21 3L19 3L19 4L16 4L16 1L19 1L19 2L20 2L20 0L15 0L15 3L14 3L14 4L13 4L13 3L12 3L12 2L13 2L13 0ZM9 1L9 2L10 2L10 3L11 3L11 2L10 2L10 1ZM17 2L17 3L18 3L18 2ZM12 4L12 5L13 5L13 4ZM19 4L19 5L16 5L16 6L17 6L17 8L18 8L18 6L19 6L19 7L20 7L20 6L19 6L19 5L20 5L20 4ZM10 6L10 9L11 9L11 6ZM0 9L0 10L1 10L1 9ZM12 10L12 11L13 11L13 10ZM14 10L14 11L15 11L15 12L16 12L16 13L17 13L17 14L15 14L15 13L14 13L14 12L13 12L13 13L14 13L14 14L12 14L12 15L10 15L10 13L11 13L11 12L9 12L9 11L8 11L8 12L9 12L9 15L10 15L10 16L9 16L9 17L11 17L11 20L12 20L12 21L11 21L11 22L12 22L12 23L15 23L15 22L14 22L14 21L15 21L15 19L14 19L14 17L15 17L15 18L16 18L16 17L15 17L15 16L16 16L16 15L17 15L17 14L18 14L18 15L19 15L19 16L18 16L18 17L17 17L17 18L18 18L18 19L16 19L16 20L17 20L17 21L19 21L19 22L20 22L20 20L19 20L19 19L20 19L20 17L19 17L19 16L21 16L21 18L24 18L24 17L23 17L23 16L22 16L22 15L23 15L23 14L25 14L25 13L24 13L24 12L25 12L25 11L23 11L23 14L22 14L22 12L21 12L21 13L19 13L19 14L18 14L18 13L17 13L17 11L18 11L18 10L17 10L17 11L16 11L16 10ZM6 11L6 12L4 12L4 13L2 13L2 15L4 15L4 18L5 18L5 15L6 15L6 16L7 16L7 15L8 15L8 14L7 14L7 13L6 13L6 12L7 12L7 11ZM4 13L4 14L5 14L5 13ZM6 14L6 15L7 15L7 14ZM14 14L14 16L13 16L13 17L14 17L14 16L15 16L15 14ZM19 14L19 15L21 15L21 14ZM27 14L27 15L29 15L29 14ZM18 17L18 18L19 18L19 17ZM9 19L9 20L8 20L8 21L10 21L10 19ZM12 19L12 20L13 20L13 19ZM21 19L21 20L22 20L22 19ZM23 19L23 20L25 20L25 19ZM21 21L21 24L24 24L24 21ZM16 22L16 23L17 23L17 25L18 25L18 26L19 26L19 27L18 27L18 28L19 28L19 27L20 27L20 26L19 26L19 25L18 25L18 23L17 23L17 22ZM22 22L22 23L23 23L23 22ZM28 22L28 23L29 23L29 22ZM19 23L19 24L20 24L20 23ZM26 27L26 28L28 28L28 27ZM0 0L0 7L7 7L7 0ZM1 1L1 6L6 6L6 1ZM2 2L2 5L5 5L5 2ZM22 0L22 7L29 7L29 0ZM23 1L23 6L28 6L28 1ZM24 2L24 5L27 5L27 2ZM0 22L0 29L7 29L7 22ZM1 23L1 28L6 28L6 23ZM2 24L2 27L5 27L5 24Z" fill="#000000"/></g></g></svg>
