<?xml version="1.0" encoding="UTF-8"?>
<svg xmlns="http://www.w3.org/2000/svg" version="1.1" width="200" height="200" viewBox="0 0 200 200"><rect x="0" y="0" width="200" height="200" fill="#ffffff"/><g transform="scale(4.878)"><g transform="translate(0,0)"><path fill-rule="evenodd" d="M8 0L8 1L9 1L9 0ZM10 0L10 1L11 1L11 2L10 2L10 4L8 4L8 5L10 5L10 7L9 7L9 6L8 6L8 8L10 8L10 7L11 7L11 6L12 6L12 8L11 8L11 10L10 10L10 9L9 9L9 10L8 10L8 9L7 9L7 8L5 8L5 9L7 9L7 10L4 10L4 9L2 9L2 10L1 10L1 9L0 9L0 17L3 17L3 18L0 18L0 19L3 19L3 20L0 20L0 21L4 21L4 22L5 22L5 23L4 23L4 24L3 24L3 23L2 23L2 24L1 24L1 25L0 25L0 28L1 28L1 27L2 27L2 26L5 26L5 27L3 27L3 30L1 30L1 29L0 29L0 33L1 33L1 31L4 31L4 30L5 30L5 31L7 31L7 30L6 30L6 29L8 29L8 30L9 30L9 33L8 33L8 34L10 34L10 35L8 35L8 36L10 36L10 35L12 35L12 37L10 37L10 38L9 38L9 41L10 41L10 39L11 39L11 40L12 40L12 41L13 41L13 40L14 40L14 41L15 41L15 40L16 40L16 39L17 39L17 41L20 41L20 40L19 40L19 38L20 38L20 39L21 39L21 40L23 40L23 41L24 41L24 40L23 40L23 39L24 39L24 38L22 38L22 39L21 39L21 38L20 38L20 37L19 37L19 35L20 35L20 36L21 36L21 37L23 37L23 36L24 36L24 35L25 35L25 37L26 37L26 35L29 35L29 33L30 33L30 35L32 35L32 36L27 36L27 40L26 40L26 39L25 39L25 40L26 40L26 41L31 41L31 40L32 40L32 39L31 39L31 40L29 40L29 39L30 39L30 38L29 38L29 37L31 37L31 38L33 38L33 37L36 37L36 38L34 38L34 39L33 39L33 41L34 41L34 40L36 40L36 39L38 39L38 40L39 40L39 39L40 39L40 40L41 40L41 39L40 39L40 38L41 38L41 36L40 36L40 34L39 34L39 33L41 33L41 32L38 32L38 31L41 31L41 29L40 29L40 26L41 26L41 25L36 25L36 23L33 23L33 24L32 24L32 25L31 25L31 24L30 24L30 25L29 25L29 23L28 23L28 22L29 22L29 20L31 20L31 19L32 19L32 21L30 21L30 22L34 22L34 19L33 19L33 18L32 18L32 17L34 17L34 18L35 18L35 20L36 20L36 21L35 21L35 22L36 22L36 21L39 21L39 22L41 22L41 20L40 20L40 19L41 19L41 15L34 15L34 13L36 13L36 14L38 14L38 13L40 13L40 14L41 14L41 11L40 11L40 9L41 9L41 8L40 8L40 9L39 9L39 8L38 8L38 10L37 10L37 8L36 8L36 10L35 10L35 12L34 12L34 9L35 9L35 8L34 8L34 9L33 9L33 8L32 8L32 9L31 9L31 6L30 6L30 8L29 8L29 5L28 5L28 7L27 7L27 5L25 5L25 6L24 6L24 5L23 5L23 6L22 6L22 7L21 7L21 5L22 5L22 3L21 3L21 2L18 2L18 1L20 1L20 0L18 0L18 1L17 1L17 0L15 0L15 1L17 1L17 4L14 4L14 3L15 3L15 2L14 2L14 0ZM21 0L21 1L22 1L22 2L23 2L23 4L25 4L25 3L26 3L26 2L27 2L27 4L28 4L28 3L29 3L29 1L30 1L30 2L31 2L31 0L28 0L28 2L27 2L27 1L25 1L25 0L23 0L23 1L22 1L22 0ZM23 1L23 2L24 2L24 3L25 3L25 1ZM8 2L8 3L9 3L9 2ZM11 2L11 3L12 3L12 4L10 4L10 5L12 5L12 4L13 4L13 5L14 5L14 6L13 6L13 7L14 7L14 8L12 8L12 10L13 10L13 9L16 9L16 8L18 8L18 10L19 10L19 11L20 11L20 10L19 10L19 8L20 8L20 9L21 9L21 10L22 10L22 11L23 11L23 10L24 10L24 11L27 11L27 10L24 10L24 9L27 9L27 7L26 7L26 6L25 6L25 8L24 8L24 9L23 9L23 8L21 8L21 7L20 7L20 6L19 6L19 7L18 7L18 6L17 6L17 7L16 7L16 5L14 5L14 4L13 4L13 3L14 3L14 2ZM19 3L19 4L17 4L17 5L19 5L19 4L21 4L21 3ZM30 3L30 4L31 4L31 5L32 5L32 7L33 7L33 5L32 5L32 4L31 4L31 3ZM14 6L14 7L15 7L15 6ZM23 6L23 7L24 7L24 6ZM28 8L28 11L29 11L29 12L28 12L28 13L27 13L27 12L26 12L26 13L25 13L25 12L22 12L22 13L20 13L20 12L19 12L19 13L18 13L18 14L16 14L16 13L15 13L15 14L14 14L14 15L17 15L17 16L15 16L15 17L16 17L16 18L15 18L15 19L14 19L14 18L12 18L12 17L13 17L13 15L12 15L12 16L11 16L11 15L10 15L10 16L9 16L9 18L7 18L7 17L8 17L8 14L9 14L9 13L8 13L8 12L9 12L9 11L10 11L10 10L9 10L9 11L6 11L6 12L7 12L7 13L5 13L5 12L4 12L4 13L3 13L3 11L4 11L4 10L3 10L3 11L2 11L2 12L1 12L1 14L2 14L2 13L3 13L3 14L4 14L4 13L5 13L5 15L3 15L3 16L4 16L4 17L5 17L5 18L7 18L7 19L6 19L6 20L5 20L5 22L7 22L7 21L6 21L6 20L8 20L8 19L10 19L10 20L9 20L9 21L8 21L8 23L9 23L9 22L10 22L10 25L11 25L11 24L12 24L12 25L13 25L13 27L14 27L14 24L15 24L15 25L17 25L17 24L18 24L18 25L19 25L19 29L20 29L20 30L19 30L19 31L15 31L15 30L16 30L16 29L17 29L17 28L18 28L18 26L16 26L16 29L14 29L14 28L13 28L13 29L12 29L12 26L9 26L9 27L8 27L8 26L7 26L7 25L9 25L9 24L7 24L7 23L5 23L5 24L4 24L4 25L5 25L5 26L7 26L7 27L5 27L5 28L4 28L4 29L6 29L6 28L7 28L7 27L8 27L8 28L9 28L9 27L11 27L11 28L10 28L10 29L12 29L12 31L13 31L13 29L14 29L14 31L15 31L15 32L13 32L13 33L12 33L12 32L11 32L11 33L12 33L12 35L13 35L13 36L14 36L14 35L15 35L15 37L14 37L14 40L15 40L15 39L16 39L16 38L15 38L15 37L18 37L18 38L17 38L17 39L18 39L18 38L19 38L19 37L18 37L18 35L19 35L19 34L20 34L20 33L21 33L21 32L22 32L22 33L23 33L23 35L22 35L22 36L23 36L23 35L24 35L24 34L25 34L25 35L26 35L26 33L28 33L28 32L27 32L27 31L28 31L28 29L29 29L29 32L30 32L30 33L32 33L32 32L33 32L33 31L34 31L34 32L36 32L36 29L38 29L38 30L40 30L40 29L39 29L39 28L37 28L37 27L36 27L36 26L35 26L35 27L34 27L34 24L33 24L33 26L31 26L31 25L30 25L30 26L29 26L29 28L28 28L28 29L27 29L27 30L26 30L26 29L25 29L25 30L26 30L26 33L24 33L24 32L25 32L25 31L24 31L24 32L22 32L22 30L23 30L23 29L24 29L24 28L25 28L25 26L27 26L27 24L28 24L28 23L26 23L26 21L27 21L27 18L25 18L25 17L26 17L26 15L25 15L25 14L29 14L29 16L28 16L28 15L27 15L27 16L28 16L28 18L29 18L29 19L28 19L28 20L29 20L29 19L31 19L31 18L29 18L29 16L30 16L30 17L31 17L31 14L32 14L32 16L33 16L33 14L32 14L32 13L31 13L31 14L30 14L30 10L31 10L31 11L33 11L33 10L31 10L31 9L29 9L29 8ZM22 9L22 10L23 10L23 9ZM16 10L16 12L17 12L17 10ZM11 11L11 12L10 12L10 14L11 14L11 12L13 12L13 13L12 13L12 14L13 14L13 13L14 13L14 12L15 12L15 11ZM38 11L38 12L40 12L40 11ZM36 12L36 13L37 13L37 12ZM22 13L22 14L18 14L18 15L19 15L19 17L18 17L18 16L17 16L17 17L18 17L18 18L17 18L17 19L18 19L18 18L19 18L19 17L20 17L20 18L21 18L21 19L22 19L22 18L24 18L24 19L23 19L23 20L25 20L25 21L26 21L26 20L25 20L25 18L24 18L24 16L25 16L25 15L24 15L24 16L23 16L23 17L22 17L22 16L21 16L21 15L22 15L22 14L25 14L25 13ZM6 14L6 15L7 15L7 14ZM1 15L1 16L2 16L2 15ZM5 16L5 17L7 17L7 16ZM34 16L34 17L35 17L35 18L36 18L36 20L39 20L39 21L40 21L40 20L39 20L39 19L40 19L40 16L39 16L39 17L38 17L38 16L36 16L36 17L35 17L35 16ZM36 17L36 18L37 18L37 17ZM38 18L38 19L39 19L39 18ZM11 19L11 20L12 20L12 21L13 21L13 22L11 22L11 23L12 23L12 24L14 24L14 23L15 23L15 24L17 24L17 22L19 22L19 23L18 23L18 24L19 24L19 25L20 25L20 29L21 29L21 28L22 28L22 29L23 29L23 28L24 28L24 27L22 27L22 26L21 26L21 24L24 24L24 23L25 23L25 24L26 24L26 23L25 23L25 22L24 22L24 23L22 23L22 22L23 22L23 21L21 21L21 20L20 20L20 19L19 19L19 20L20 20L20 21L18 21L18 20L16 20L16 19L15 19L15 20L14 20L14 19L13 19L13 20L12 20L12 19ZM14 21L14 22L13 22L13 23L14 23L14 22L16 22L16 21ZM20 21L20 22L21 22L21 21ZM37 22L37 23L38 23L38 22ZM39 23L39 24L41 24L41 23ZM6 24L6 25L7 25L7 24ZM1 25L1 26L2 26L2 25ZM38 26L38 27L39 27L39 26ZM32 27L32 29L33 29L33 27ZM29 28L29 29L30 29L30 32L31 32L31 31L32 31L32 30L31 30L31 29L30 29L30 28ZM34 28L34 29L36 29L36 28ZM10 30L10 31L11 31L11 30ZM20 30L20 31L21 31L21 30ZM4 32L4 33L5 33L5 32ZM6 32L6 33L7 33L7 32ZM19 32L19 33L17 33L17 34L16 34L16 33L13 33L13 34L15 34L15 35L16 35L16 36L17 36L17 34L19 34L19 33L20 33L20 32ZM37 32L37 37L38 37L38 39L39 39L39 38L40 38L40 36L39 36L39 34L38 34L38 32ZM33 33L33 36L36 36L36 33ZM34 34L34 35L35 35L35 34ZM12 38L12 39L13 39L13 38ZM28 38L28 39L29 39L29 38ZM0 0L0 7L7 7L7 0ZM1 1L1 6L6 6L6 1ZM2 2L2 5L5 5L5 2ZM34 0L34 7L41 7L41 0ZM35 1L35 6L40 6L40 1ZM36 2L36 5L39 5L39 2ZM0 34L0 41L7 41L7 34ZM1 35L1 40L6 40L6 35ZM2 36L2 39L5 39L5 36Z" fill="#000000"/></g></g></svg>
