<?xml version="1.0" encoding="UTF-8"?>
<svg xmlns="http://www.w3.org/2000/svg" version="1.1" width="200" height="200" viewBox="0 0 200 200"><rect x="0" y="0" width="200" height="200" fill="#ffffff"/><g transform="scale(6.897)"><g transform="translate(0,0)"><path fill-rule="evenodd" d="M8 0L8 1L10 1L10 2L8 2L8 3L9 3L9 4L8 4L8 5L9 5L9 4L10 4L10 3L11 3L11 4L12 4L12 3L16 3L16 4L17 4L17 1L18 1L18 2L19 2L19 3L18 3L18 7L19 7L19 8L18 8L18 9L12 9L12 8L11 8L11 9L10 9L10 10L11 10L11 11L9 11L9 9L7 9L7 8L5 8L5 9L4 9L4 10L5 10L5 11L3 11L3 9L1 9L1 11L3 11L3 12L1 12L1 13L0 13L0 15L3 15L3 16L1 16L1 17L0 17L0 21L1 21L1 19L3 19L3 20L2 20L2 21L3 21L3 20L4 20L4 19L5 19L5 18L6 18L6 19L7 19L7 20L5 20L5 21L7 21L7 20L8 20L8 22L10 22L10 21L9 21L9 20L8 20L8 18L9 18L9 19L10 19L10 20L13 20L13 21L12 21L12 22L13 22L13 23L15 23L15 24L13 24L13 25L15 25L15 28L16 28L16 29L19 29L19 28L21 28L21 27L22 27L22 28L23 28L23 29L28 29L28 28L27 28L27 27L28 27L28 26L27 26L27 27L26 27L26 28L25 28L25 27L23 27L23 26L21 26L21 25L24 25L24 26L25 26L25 22L26 22L26 23L27 23L27 21L25 21L25 20L26 20L26 18L28 18L28 16L29 16L29 15L28 15L28 14L26 14L26 13L29 13L29 12L27 12L27 11L28 11L28 10L27 10L27 8L26 8L26 10L25 10L25 8L24 8L24 16L25 16L25 17L24 17L24 19L25 19L25 20L23 20L23 18L21 18L21 17L20 17L20 19L18 19L18 18L19 18L19 17L18 17L18 16L19 16L19 15L18 15L18 16L17 16L17 17L16 17L16 16L15 16L15 14L16 14L16 15L17 15L17 13L21 13L21 12L22 12L22 15L23 15L23 11L21 11L21 5L20 5L20 3L21 3L21 2L20 2L20 0L17 0L17 1L16 1L16 0L15 0L15 1L16 1L16 2L12 2L12 3L11 3L11 0ZM12 0L12 1L13 1L13 0ZM14 4L14 7L13 7L13 6L12 6L12 7L13 7L13 8L15 8L15 6L16 6L16 8L17 8L17 6L16 6L16 5L15 5L15 4ZM10 5L10 7L9 7L9 6L8 6L8 8L10 8L10 7L11 7L11 5ZM19 6L19 7L20 7L20 6ZM22 8L22 10L23 10L23 8ZM28 8L28 9L29 9L29 8ZM5 9L5 10L7 10L7 9ZM18 9L18 10L19 10L19 12L21 12L21 11L20 11L20 9ZM12 10L12 11L11 11L11 12L9 12L9 11L6 11L6 12L4 12L4 13L2 13L2 14L3 14L3 15L4 15L4 16L5 16L5 15L6 15L6 16L7 16L7 17L6 17L6 18L7 18L7 17L8 17L8 16L9 16L9 15L10 15L10 13L11 13L11 12L13 12L13 13L12 13L12 14L11 14L11 16L10 16L10 18L12 18L12 19L13 19L13 20L15 20L15 21L13 21L13 22L15 22L15 21L16 21L16 22L17 22L17 25L18 25L18 26L19 26L19 24L20 24L20 21L19 21L19 20L18 20L18 19L16 19L16 17L11 17L11 16L12 16L12 15L13 15L13 16L14 16L14 15L13 15L13 14L15 14L15 13L14 13L14 12L13 12L13 11L14 11L14 10ZM16 10L16 11L15 11L15 12L16 12L16 13L17 13L17 10ZM6 12L6 13L7 13L7 14L6 14L6 15L7 15L7 16L8 16L8 14L9 14L9 12ZM4 14L4 15L5 15L5 14ZM20 15L20 16L21 16L21 15ZM25 15L25 16L26 16L26 15ZM27 15L27 16L28 16L28 15ZM22 16L22 17L23 17L23 16ZM4 17L4 18L5 18L5 17ZM17 17L17 18L18 18L18 17ZM14 18L14 19L15 19L15 18ZM21 19L21 20L22 20L22 19ZM17 20L17 22L18 22L18 23L19 23L19 22L18 22L18 20ZM28 20L28 22L29 22L29 20ZM21 21L21 24L24 24L24 21ZM22 22L22 23L23 23L23 22ZM8 23L8 24L9 24L9 23ZM11 23L11 24L10 24L10 25L9 25L9 28L10 28L10 25L11 25L11 24L12 24L12 23ZM26 24L26 25L28 25L28 24ZM11 26L11 29L13 29L13 28L14 28L14 27L12 27L12 26ZM16 26L16 28L17 28L17 26ZM20 26L20 27L21 27L21 26ZM0 0L0 7L7 7L7 0ZM1 1L1 6L6 6L6 1ZM2 2L2 5L5 5L5 2ZM22 0L22 7L29 7L29 0ZM23 1L23 6L28 6L28 1ZM24 2L24 5L27 5L27 2ZM0 22L0 29L7 29L7 22ZM1 23L1 28L6 28L6 23ZM2 24L2 27L5 27L5 24Z" fill="#000000"/></g></g></svg>
