<?xml version="1.0" encoding="UTF-8"?>
<svg xmlns="http://www.w3.org/2000/svg" version="1.1" width="200" height="200" viewBox="0 0 200 200"><rect x="0" y="0" width="200" height="200" fill="#ffffff"/><g transform="scale(4.878)"><g transform="translate(0,0)"><path fill-rule="evenodd" d="M9 0L9 2L8 2L8 4L9 4L9 3L10 3L10 5L9 5L9 6L8 6L8 7L9 7L9 6L10 6L10 8L9 8L9 9L8 9L8 8L6 8L6 9L8 9L8 10L5 10L5 11L8 11L8 12L6 12L6 13L8 13L8 14L6 14L6 15L5 15L5 12L3 12L3 9L5 9L5 8L3 8L3 9L1 9L1 10L2 10L2 12L3 12L3 13L1 13L1 14L2 14L2 18L4 18L4 17L3 17L3 16L4 16L4 15L5 15L5 16L6 16L6 17L5 17L5 19L4 19L4 20L5 20L5 21L7 21L7 22L6 22L6 23L7 23L7 22L8 22L8 23L9 23L9 22L11 22L11 24L9 24L9 25L14 25L14 23L13 23L13 24L12 24L12 21L11 21L11 20L12 20L12 19L13 19L13 20L14 20L14 19L15 19L15 20L16 20L16 23L15 23L15 26L14 26L14 27L13 27L13 28L12 28L12 27L11 27L11 26L10 26L10 27L9 27L9 28L8 28L8 27L7 27L7 26L8 26L8 25L7 25L7 24L6 24L6 25L5 25L5 22L3 22L3 21L2 21L2 20L3 20L3 19L2 19L2 20L1 20L1 21L0 21L0 22L2 22L2 23L3 23L3 24L4 24L4 25L2 25L2 26L3 26L3 27L2 27L2 28L3 28L3 29L4 29L4 30L1 30L1 28L0 28L0 33L4 33L4 31L5 31L5 30L6 30L6 31L7 31L7 32L6 32L6 33L7 33L7 32L9 32L9 33L8 33L8 35L9 35L9 36L8 36L8 38L9 38L9 41L11 41L11 40L13 40L13 38L14 38L14 34L15 34L15 36L16 36L16 37L15 37L15 39L14 39L14 41L17 41L17 40L18 40L18 41L19 41L19 40L18 40L18 39L16 39L16 37L17 37L17 38L18 38L18 37L20 37L20 38L21 38L21 39L20 39L20 41L22 41L22 40L21 40L21 39L22 39L22 37L23 37L23 38L24 38L24 40L25 40L25 38L26 38L26 40L27 40L27 41L29 41L29 39L28 39L28 33L29 33L29 34L30 34L30 33L31 33L31 35L30 35L30 36L29 36L29 38L30 38L30 39L31 39L31 40L30 40L30 41L31 41L31 40L32 40L32 41L34 41L34 40L35 40L35 41L36 41L36 39L37 39L37 40L38 40L38 41L39 41L39 40L38 40L38 39L40 39L40 40L41 40L41 36L40 36L40 34L39 34L39 33L41 33L41 30L39 30L39 31L38 31L38 32L37 32L37 31L36 31L36 30L38 30L38 29L41 29L41 25L39 25L39 24L37 24L37 20L38 20L38 21L39 21L39 22L38 22L38 23L39 23L39 22L41 22L41 21L39 21L39 20L40 20L40 19L41 19L41 18L40 18L40 17L41 17L41 11L40 11L40 9L39 9L39 8L37 8L37 9L36 9L36 12L35 12L35 13L36 13L36 14L33 14L33 13L32 13L32 12L33 12L33 10L34 10L34 11L35 11L35 10L34 10L34 9L33 9L33 10L32 10L32 7L33 7L33 5L32 5L32 4L33 4L33 2L32 2L32 1L31 1L31 0L30 0L30 1L29 1L29 0L28 0L28 2L27 2L27 1L26 1L26 0L25 0L25 3L26 3L26 4L28 4L28 2L29 2L29 3L31 3L31 2L32 2L32 4L29 4L29 6L28 6L28 7L27 7L27 5L24 5L24 7L23 7L23 6L22 6L22 7L21 7L21 5L22 5L22 4L23 4L23 2L24 2L24 0L21 0L21 1L20 1L20 0L19 0L19 1L18 1L18 0L16 0L16 1L14 1L14 0L12 0L12 1L11 1L11 0ZM13 1L13 3L12 3L12 4L11 4L11 5L10 5L10 6L11 6L11 7L12 7L12 6L11 6L11 5L14 5L14 3L15 3L15 4L17 4L17 3L16 3L16 2L17 2L17 1L16 1L16 2L14 2L14 1ZM30 1L30 2L31 2L31 1ZM10 2L10 3L11 3L11 2ZM20 2L20 3L18 3L18 4L19 4L19 5L18 5L18 6L17 6L17 5L15 5L15 7L14 7L14 6L13 6L13 9L12 9L12 8L11 8L11 10L13 10L13 12L11 12L11 11L10 11L10 10L8 10L8 11L10 11L10 12L11 12L11 13L10 13L10 14L8 14L8 15L6 15L6 16L7 16L7 17L6 17L6 18L7 18L7 19L5 19L5 20L7 20L7 19L9 19L9 20L8 20L8 22L9 22L9 20L11 20L11 19L10 19L10 16L11 16L11 13L13 13L13 14L12 14L12 15L13 15L13 16L12 16L12 18L14 18L14 17L13 17L13 16L16 16L16 17L17 17L17 19L18 19L18 17L17 17L17 16L16 16L16 15L13 15L13 14L15 14L15 13L16 13L16 12L18 12L18 11L16 11L16 10L15 10L15 11L16 11L16 12L14 12L14 10L13 10L13 9L14 9L14 8L17 8L17 10L19 10L19 12L20 12L20 14L19 14L19 13L18 13L18 14L17 14L17 15L20 15L20 16L19 16L19 17L20 17L20 16L22 16L22 15L20 15L20 14L21 14L21 11L22 11L22 10L23 10L23 9L22 9L22 10L21 10L21 11L20 11L20 10L19 10L19 9L20 9L20 8L21 8L21 7L20 7L20 4L21 4L21 2ZM30 5L30 6L29 6L29 8L28 8L28 9L29 9L29 11L31 11L31 12L32 12L32 10L31 10L31 9L29 9L29 8L31 8L31 7L32 7L32 5ZM16 6L16 7L17 7L17 6ZM18 6L18 7L19 7L19 6ZM25 6L25 7L26 7L26 8L27 8L27 7L26 7L26 6ZM30 6L30 7L31 7L31 6ZM18 8L18 9L19 9L19 8ZM25 9L25 10L24 10L24 11L23 11L23 12L22 12L22 13L23 13L23 15L25 15L25 16L26 16L26 18L25 18L25 17L22 17L22 18L21 18L21 19L19 19L19 20L18 20L18 21L19 21L19 20L21 20L21 21L20 21L20 22L22 22L22 19L24 19L24 20L23 20L23 22L24 22L24 20L25 20L25 19L26 19L26 20L28 20L28 21L29 21L29 22L30 22L30 23L31 23L31 25L30 25L30 24L29 24L29 23L28 23L28 27L26 27L26 26L27 26L27 25L26 25L26 24L27 24L27 23L26 23L26 21L25 21L25 23L23 23L23 26L24 26L24 27L23 27L23 30L22 30L22 29L21 29L21 30L22 30L22 31L23 31L23 32L22 32L22 33L21 33L21 34L20 34L20 33L17 33L17 32L19 32L19 31L20 31L20 32L21 32L21 31L20 31L20 30L19 30L19 29L16 29L16 31L15 31L15 32L13 32L13 34L10 34L10 33L9 33L9 35L13 35L13 34L14 34L14 33L15 33L15 32L16 32L16 33L17 33L17 34L16 34L16 36L20 36L20 37L21 37L21 36L22 36L22 33L23 33L23 32L25 32L25 33L24 33L24 35L23 35L23 37L24 37L24 38L25 38L25 36L26 36L26 37L27 37L27 33L26 33L26 32L31 32L31 33L32 33L32 32L33 32L33 31L34 31L34 32L36 32L36 31L35 31L35 30L33 30L33 31L32 31L32 28L33 28L33 26L32 26L32 25L33 25L33 23L32 23L32 22L33 22L33 20L32 20L32 19L34 19L34 20L35 20L35 17L37 17L37 18L36 18L36 20L37 20L37 19L38 19L38 17L40 17L40 16L38 16L38 13L37 13L37 12L36 12L36 13L37 13L37 16L36 16L36 15L35 15L35 16L34 16L34 17L33 17L33 16L32 16L32 15L30 15L30 12L29 12L29 15L28 15L28 11L27 11L27 12L26 12L26 14L25 14L25 13L24 13L24 11L26 11L26 10L27 10L27 9ZM37 9L37 10L38 10L38 12L39 12L39 13L40 13L40 12L39 12L39 10L38 10L38 9ZM0 11L0 12L1 12L1 11ZM8 12L8 13L9 13L9 12ZM3 13L3 14L4 14L4 13ZM26 14L26 16L28 16L28 15L27 15L27 14ZM0 15L0 17L1 17L1 15ZM9 15L9 16L8 16L8 17L9 17L9 16L10 16L10 15ZM30 16L30 17L27 17L27 19L28 19L28 18L29 18L29 19L32 19L32 17L31 17L31 16ZM37 16L37 17L38 17L38 16ZM30 17L30 18L31 18L31 17ZM0 18L0 19L1 19L1 18ZM15 18L15 19L16 19L16 18ZM24 18L24 19L25 19L25 18ZM30 20L30 21L31 21L31 22L32 22L32 20ZM13 21L13 22L14 22L14 21ZM34 21L34 22L35 22L35 23L36 23L36 21ZM17 22L17 23L18 23L18 24L17 24L17 25L19 25L19 27L18 27L18 28L20 28L20 27L21 27L21 28L22 28L22 26L20 26L20 25L21 25L21 24L22 24L22 23L21 23L21 24L19 24L19 22ZM25 23L25 24L26 24L26 23ZM36 24L36 25L37 25L37 26L35 26L35 28L34 28L34 29L38 29L38 28L36 28L36 27L39 27L39 25L37 25L37 24ZM4 25L4 27L6 27L6 28L5 28L5 29L6 29L6 30L7 30L7 31L10 31L10 32L12 32L12 31L13 31L13 30L15 30L15 27L14 27L14 28L13 28L13 29L12 29L12 31L11 31L11 30L8 30L8 29L6 29L6 28L7 28L7 27L6 27L6 26L7 26L7 25L6 25L6 26L5 26L5 25ZM24 25L24 26L26 26L26 25ZM29 25L29 26L30 26L30 25ZM16 26L16 28L17 28L17 26ZM31 26L31 27L32 27L32 26ZM24 27L24 28L25 28L25 30L24 30L24 31L25 31L25 32L26 32L26 31L28 31L28 30L31 30L31 29L29 29L29 28L27 28L27 29L26 29L26 28L25 28L25 27ZM9 28L9 29L11 29L11 28ZM27 29L27 30L28 30L28 29ZM25 30L25 31L26 31L26 30ZM2 31L2 32L3 32L3 31ZM16 31L16 32L17 32L17 31ZM39 31L39 32L40 32L40 31ZM33 33L33 36L36 36L36 33ZM37 33L37 38L40 38L40 37L39 37L39 35L38 35L38 33ZM18 34L18 35L20 35L20 36L21 36L21 35L20 35L20 34ZM34 34L34 35L35 35L35 34ZM31 35L31 36L30 36L30 37L31 37L31 36L32 36L32 35ZM9 36L9 38L10 38L10 36ZM11 36L11 38L12 38L12 36ZM32 37L32 38L31 38L31 39L32 39L32 40L33 40L33 39L35 39L35 38L36 38L36 37ZM27 39L27 40L28 40L28 39ZM0 0L0 7L7 7L7 0ZM1 1L1 6L6 6L6 1ZM2 2L2 5L5 5L5 2ZM34 0L34 7L41 7L41 0ZM35 1L35 6L40 6L40 1ZM36 2L36 5L39 5L39 2ZM0 34L0 41L7 41L7 34ZM1 35L1 40L6 40L6 35ZM2 36L2 39L5 39L5 36Z" fill="#000000"/></g></g></svg>
