<?xml version="1.0" encoding="UTF-8"?>
<svg xmlns="http://www.w3.org/2000/svg" version="1.1" width="200" height="200" viewBox="0 0 200 200"><rect x="0" y="0" width="200" height="200" fill="#ffffff"/><g transform="scale(4.878)"><g transform="translate(0,0)"><path fill-rule="evenodd" d="M8 0L8 3L9 3L9 5L8 5L8 9L9 9L9 8L10 8L10 9L11 9L11 10L9 10L9 11L10 11L10 13L12 13L12 12L13 12L13 14L12 14L12 15L11 15L11 14L9 14L9 15L8 15L8 13L9 13L9 12L8 12L8 11L7 11L7 10L6 10L6 11L7 11L7 12L6 12L6 13L7 13L7 14L6 14L6 15L8 15L8 16L5 16L5 14L4 14L4 13L3 13L3 12L2 12L2 11L3 11L3 9L5 9L5 8L2 8L2 10L0 10L0 11L1 11L1 12L0 12L0 15L1 15L1 16L5 16L5 17L4 17L4 18L3 18L3 17L2 17L2 18L0 18L0 19L2 19L2 20L3 20L3 21L4 21L4 22L2 22L2 21L0 21L0 22L1 22L1 24L2 24L2 25L0 25L0 26L5 26L5 27L1 27L1 28L0 28L0 33L1 33L1 30L3 30L3 29L4 29L4 28L6 28L6 29L7 29L7 28L6 28L6 27L7 27L7 26L6 26L6 25L8 25L8 27L9 27L9 25L12 25L12 26L10 26L10 28L8 28L8 30L5 30L5 31L4 31L4 33L8 33L8 34L9 34L9 33L8 33L8 32L9 32L9 31L10 31L10 28L12 28L12 29L11 29L11 31L13 31L13 30L14 30L14 31L18 31L18 32L17 32L17 34L15 34L15 32L11 32L11 34L10 34L10 35L9 35L9 36L8 36L8 39L10 39L10 38L9 38L9 37L11 37L11 39L12 39L12 36L13 36L13 37L14 37L14 36L15 36L15 38L16 38L16 39L18 39L18 41L21 41L21 40L20 40L20 37L17 37L17 38L16 38L16 36L17 36L17 34L18 34L18 36L19 36L19 34L21 34L21 35L20 35L20 36L21 36L21 35L23 35L23 36L22 36L22 37L21 37L21 38L24 38L24 40L23 40L23 41L25 41L25 40L26 40L26 41L27 41L27 40L28 40L28 39L31 39L31 40L33 40L33 41L34 41L34 40L33 40L33 39L35 39L35 40L36 40L36 39L37 39L37 40L40 40L40 38L41 38L41 37L40 37L40 34L41 34L41 33L40 33L40 32L41 32L41 31L40 31L40 30L41 30L41 29L39 29L39 30L37 30L37 29L36 29L36 28L38 28L38 26L39 26L39 28L41 28L41 27L40 27L40 26L41 26L41 23L39 23L39 24L40 24L40 26L39 26L39 25L34 25L34 24L33 24L33 23L36 23L36 24L37 24L37 20L38 20L38 22L39 22L39 20L38 20L38 18L41 18L41 16L40 16L40 17L39 17L39 16L37 16L37 13L36 13L36 16L35 16L35 17L34 17L34 16L32 16L32 17L31 17L31 16L29 16L29 15L31 15L31 12L32 12L32 13L33 13L33 14L32 14L32 15L34 15L34 13L35 13L35 11L36 11L36 12L38 12L38 11L39 11L39 12L40 12L40 10L41 10L41 8L38 8L38 9L40 9L40 10L37 10L37 9L36 9L36 8L32 8L32 9L31 9L31 8L28 8L28 7L29 7L29 6L30 6L30 7L31 7L31 5L33 5L33 4L32 4L32 3L31 3L31 2L30 2L30 0L29 0L29 1L27 1L27 0L26 0L26 1L27 1L27 2L26 2L26 3L31 3L31 4L30 4L30 5L29 5L29 4L28 4L28 5L27 5L27 4L25 4L25 2L23 2L23 3L22 3L22 5L21 5L21 4L20 4L20 7L21 7L21 6L22 6L22 7L23 7L23 6L24 6L24 9L23 9L23 8L22 8L22 9L23 9L23 10L20 10L20 9L21 9L21 8L19 8L19 9L18 9L18 8L15 8L15 9L12 9L12 8L11 8L11 6L10 6L10 4L11 4L11 5L12 5L12 7L13 7L13 8L14 8L14 7L15 7L15 6L16 6L16 7L17 7L17 6L18 6L18 7L19 7L19 6L18 6L18 5L19 5L19 3L21 3L21 2L20 2L20 1L19 1L19 0L16 0L16 2L15 2L15 3L13 3L13 0L12 0L12 1L10 1L10 0ZM14 0L14 1L15 1L15 0ZM22 0L22 1L23 1L23 0ZM31 0L31 1L32 1L32 2L33 2L33 1L32 1L32 0ZM9 1L9 2L10 2L10 1ZM18 1L18 3L17 3L17 2L16 2L16 3L17 3L17 5L16 5L16 6L17 6L17 5L18 5L18 3L19 3L19 1ZM11 3L11 4L12 4L12 5L13 5L13 7L14 7L14 6L15 6L15 4L14 4L14 5L13 5L13 4L12 4L12 3ZM25 5L25 9L24 9L24 10L23 10L23 11L21 11L21 12L23 12L23 13L24 13L24 14L22 14L22 13L19 13L19 14L17 14L17 13L16 13L16 12L18 12L18 11L20 11L20 10L18 10L18 9L16 9L16 10L17 10L17 11L16 11L16 12L15 12L15 13L16 13L16 14L17 14L17 15L16 15L16 16L15 16L15 15L12 15L12 17L11 17L11 16L9 16L9 17L6 17L6 18L9 18L9 20L10 20L10 19L12 19L12 21L10 21L10 22L9 22L9 24L8 24L8 23L6 23L6 22L7 22L7 21L8 21L8 19L6 19L6 20L4 20L4 21L6 21L6 22L5 22L5 23L4 23L4 24L3 24L3 25L6 25L6 24L8 24L8 25L9 25L9 24L10 24L10 23L11 23L11 22L13 22L13 24L14 24L14 25L13 25L13 26L12 26L12 27L14 27L14 28L13 28L13 29L15 29L15 30L17 30L17 29L15 29L15 28L16 28L16 25L17 25L17 27L20 27L20 26L21 26L21 25L22 25L22 26L23 26L23 24L24 24L24 28L23 28L23 27L22 27L22 29L24 29L24 31L23 31L23 33L24 33L24 32L26 32L26 33L27 33L27 34L29 34L29 33L27 33L27 32L26 32L26 31L27 31L27 26L29 26L29 27L28 27L28 28L31 28L31 29L28 29L28 30L30 30L30 31L28 31L28 32L30 32L30 31L31 31L31 30L32 30L32 31L33 31L33 32L40 32L40 31L36 31L36 29L35 29L35 28L36 28L36 27L37 27L37 26L34 26L34 25L32 25L32 24L31 24L31 23L33 23L33 22L34 22L34 21L35 21L35 22L36 22L36 21L35 21L35 19L36 19L36 20L37 20L37 18L38 18L38 17L37 17L37 16L36 16L36 17L35 17L35 19L34 19L34 18L33 18L33 17L32 17L32 18L31 18L31 17L29 17L29 16L28 16L28 15L29 15L29 14L30 14L30 13L29 13L29 12L31 12L31 11L32 11L32 12L33 12L33 13L34 13L34 12L33 12L33 11L34 11L34 9L32 9L32 10L31 10L31 9L26 9L26 8L27 8L27 7L28 7L28 6L27 6L27 5ZM9 6L9 7L10 7L10 6ZM26 6L26 7L27 7L27 6ZM32 6L32 7L33 7L33 6ZM6 8L6 9L7 9L7 8ZM35 9L35 10L36 10L36 11L37 11L37 10L36 10L36 9ZM11 10L11 12L12 12L12 10ZM14 10L14 11L15 11L15 10ZM24 10L24 11L23 11L23 12L24 12L24 11L25 11L25 10ZM26 10L26 11L28 11L28 12L27 12L27 13L26 13L26 12L25 12L25 13L26 13L26 14L25 14L25 15L22 15L22 16L27 16L27 15L26 15L26 14L29 14L29 13L28 13L28 12L29 12L29 11L28 11L28 10ZM30 10L30 11L31 11L31 10ZM1 13L1 15L4 15L4 14L3 14L3 13ZM40 13L40 14L38 14L38 15L40 15L40 14L41 14L41 13ZM19 14L19 15L18 15L18 18L17 18L17 16L16 16L16 17L15 17L15 16L14 16L14 17L12 17L12 18L13 18L13 19L16 19L16 20L14 20L14 21L13 21L13 22L14 22L14 23L15 23L15 24L17 24L17 23L16 23L16 22L17 22L17 20L18 20L18 23L19 23L19 25L21 25L21 24L23 24L23 22L24 22L24 23L26 23L26 26L27 26L27 25L29 25L29 26L32 26L32 25L30 25L30 24L27 24L27 23L28 23L28 22L29 22L29 21L28 21L28 22L27 22L27 20L28 20L28 19L29 19L29 18L27 18L27 17L26 17L26 18L25 18L25 19L26 19L26 21L25 21L25 20L23 20L23 19L24 19L24 17L23 17L23 19L22 19L22 20L23 20L23 22L22 22L22 23L19 23L19 22L20 22L20 21L19 21L19 20L21 20L21 15L20 15L20 14ZM19 15L19 16L20 16L20 15ZM9 17L9 18L11 18L11 17ZM36 17L36 18L37 18L37 17ZM18 18L18 19L20 19L20 18ZM30 18L30 19L31 19L31 18ZM32 18L32 21L31 21L31 20L30 20L30 21L31 21L31 22L32 22L32 21L34 21L34 20L33 20L33 18ZM6 20L6 21L7 21L7 20ZM40 20L40 21L41 21L41 20ZM15 21L15 22L16 22L16 21ZM24 21L24 22L25 22L25 21ZM5 23L5 24L6 24L6 23ZM33 26L33 27L34 27L34 26ZM25 27L25 28L24 28L24 29L25 29L25 30L26 30L26 27ZM31 27L31 28L32 28L32 27ZM2 28L2 29L3 29L3 28ZM18 28L18 29L19 29L19 30L18 30L18 31L19 31L19 32L18 32L18 33L19 33L19 32L21 32L21 33L22 33L22 32L21 32L21 31L19 31L19 30L20 30L20 29L19 29L19 28ZM33 28L33 29L32 29L32 30L33 30L33 29L34 29L34 28ZM8 30L8 31L9 31L9 30ZM34 30L34 31L35 31L35 30ZM5 31L5 32L7 32L7 31ZM2 32L2 33L3 33L3 32ZM12 33L12 34L11 34L11 35L12 35L12 34L14 34L14 33ZM30 33L30 35L31 35L31 36L28 36L28 35L26 35L26 34L24 34L24 36L23 36L23 37L26 37L26 38L25 38L25 39L27 39L27 38L28 38L28 37L29 37L29 38L30 38L30 37L32 37L32 35L31 35L31 33ZM33 33L33 36L36 36L36 33ZM37 33L37 35L38 35L38 36L37 36L37 37L38 37L38 36L39 36L39 35L38 35L38 34L39 34L39 33ZM34 34L34 35L35 35L35 34ZM26 36L26 37L28 37L28 36ZM33 37L33 38L32 38L32 39L33 39L33 38L36 38L36 37ZM13 38L13 39L14 39L14 38ZM18 38L18 39L19 39L19 38ZM37 38L37 39L38 39L38 38ZM11 40L11 41L12 41L12 40ZM14 40L14 41L15 41L15 40ZM16 40L16 41L17 41L17 40ZM29 40L29 41L30 41L30 40ZM0 0L0 7L7 7L7 0ZM1 1L1 6L6 6L6 1ZM2 2L2 5L5 5L5 2ZM34 0L34 7L41 7L41 0ZM35 1L35 6L40 6L40 1ZM36 2L36 5L39 5L39 2ZM0 34L0 41L7 41L7 34ZM1 35L1 40L6 40L6 35ZM2 36L2 39L5 39L5 36Z" fill="#000000"/></g></g></svg>
