<?xml version="1.0" encoding="UTF-8"?>
<svg xmlns="http://www.w3.org/2000/svg" version="1.1" width="200" height="200" viewBox="0 0 200 200"><rect x="0" y="0" width="200" height="200" fill="#ffffff"/><g transform="scale(4.878)"><g transform="translate(0,0)"><path fill-rule="evenodd" d="M8 0L8 3L10 3L10 4L9 4L9 5L8 5L8 10L6 10L6 9L7 9L7 8L6 8L6 9L5 9L5 8L2 8L2 11L1 11L1 13L2 13L2 14L3 14L3 13L4 13L4 15L3 15L3 17L4 17L4 18L2 18L2 16L1 16L1 15L0 15L0 18L2 18L2 19L3 19L3 21L2 21L2 20L1 20L1 21L0 21L0 28L1 28L1 29L0 29L0 33L1 33L1 30L2 30L2 29L3 29L3 30L4 30L4 29L5 29L5 31L7 31L7 32L6 32L6 33L8 33L8 34L9 34L9 35L15 35L15 34L16 34L16 33L15 33L15 32L14 32L14 33L15 33L15 34L12 34L12 31L18 31L18 32L17 32L17 33L18 33L18 34L17 34L17 36L19 36L19 35L18 35L18 34L19 34L19 32L20 32L20 33L21 33L21 34L22 34L22 33L23 33L23 32L24 32L24 34L25 34L25 35L28 35L28 36L26 36L26 38L27 38L27 39L26 39L26 40L25 40L25 41L26 41L26 40L27 40L27 41L28 41L28 40L27 40L27 39L28 39L28 38L27 38L27 37L29 37L29 36L31 36L31 35L32 35L32 37L33 37L33 38L32 38L32 39L31 39L31 40L33 40L33 41L34 41L34 40L33 40L33 38L34 38L34 39L35 39L35 40L36 40L36 39L37 39L37 40L40 40L40 38L41 38L41 37L40 37L40 36L41 36L41 35L40 35L40 34L41 34L41 32L38 32L38 29L36 29L36 28L38 28L38 26L39 26L39 27L40 27L40 28L41 28L41 27L40 27L40 26L41 26L41 23L39 23L39 24L40 24L40 26L39 26L39 25L36 25L36 24L37 24L37 22L38 22L38 21L39 21L39 20L36 20L36 19L35 19L35 17L36 17L36 18L37 18L37 19L38 19L38 17L39 17L39 18L41 18L41 16L40 16L40 17L39 17L39 16L38 16L38 15L40 15L40 14L41 14L41 13L40 13L40 10L41 10L41 8L38 8L38 9L40 9L40 10L37 10L37 9L36 9L36 8L33 8L33 9L30 9L30 8L29 8L29 9L28 9L28 8L27 8L27 6L28 6L28 7L29 7L29 6L28 6L28 5L27 5L27 4L26 4L26 5L27 5L27 6L26 6L26 8L27 8L27 9L28 9L28 10L27 10L27 11L26 11L26 10L25 10L25 11L24 11L24 10L22 10L22 11L21 11L21 9L22 9L22 8L23 8L23 5L21 5L21 4L22 4L22 3L21 3L21 4L20 4L20 7L19 7L19 4L18 4L18 3L19 3L19 0L16 0L16 1L18 1L18 2L17 2L17 4L16 4L16 2L15 2L15 4L14 4L14 1L15 1L15 0L13 0L13 2L11 2L11 0L10 0L10 1L9 1L9 0ZM23 0L23 1L25 1L25 0ZM26 0L26 1L27 1L27 2L26 2L26 3L28 3L28 4L29 4L29 3L32 3L32 4L30 4L30 5L32 5L32 4L33 4L33 3L32 3L32 2L30 2L30 0L29 0L29 1L27 1L27 0ZM31 0L31 1L32 1L32 0ZM20 1L20 2L22 2L22 1ZM10 2L10 3L11 3L11 2ZM24 2L24 3L23 3L23 4L25 4L25 2ZM10 4L10 5L9 5L9 7L10 7L10 6L11 6L11 7L12 7L12 8L9 8L9 11L6 11L6 12L7 12L7 13L6 13L6 14L7 14L7 15L6 15L6 16L4 16L4 17L5 17L5 19L4 19L4 20L5 20L5 21L4 21L4 22L1 22L1 23L3 23L3 24L7 24L7 23L6 23L6 22L9 22L9 24L10 24L10 25L9 25L9 27L8 27L8 25L4 25L4 26L1 26L1 28L2 28L2 27L3 27L3 28L4 28L4 27L5 27L5 28L7 28L7 29L6 29L6 30L8 30L8 28L9 28L9 29L11 29L11 27L13 27L13 28L12 28L12 30L9 30L9 31L12 31L12 30L14 30L14 29L16 29L16 30L18 30L18 29L19 29L19 28L16 28L16 27L19 27L19 26L20 26L20 25L18 25L18 23L17 23L17 22L19 22L19 21L20 21L20 22L21 22L21 26L22 26L22 27L23 27L23 28L22 28L22 29L21 29L21 27L20 27L20 29L21 29L21 30L19 30L19 31L22 31L22 32L23 32L23 31L22 31L22 29L23 29L23 28L24 28L24 27L26 27L26 26L28 26L28 27L27 27L27 28L28 28L28 27L29 27L29 28L30 28L30 29L28 29L28 30L29 30L29 31L28 31L28 32L30 32L30 33L31 33L31 31L30 31L30 29L31 29L31 30L32 30L32 31L33 31L33 32L36 32L36 31L34 31L34 30L36 30L36 29L35 29L35 28L36 28L36 27L37 27L37 26L36 26L36 25L35 25L35 24L36 24L36 23L35 23L35 22L36 22L36 21L35 21L35 19L34 19L34 18L33 18L33 17L32 17L32 16L34 16L34 17L35 17L35 16L36 16L36 17L38 17L38 16L36 16L36 15L38 15L38 14L40 14L40 13L39 13L39 11L38 11L38 12L36 12L36 11L35 11L35 13L34 13L34 12L33 12L33 13L32 13L32 10L31 10L31 15L30 15L30 13L29 13L29 12L30 12L30 9L29 9L29 10L28 10L28 13L29 13L29 14L27 14L27 13L25 13L25 16L24 16L24 15L23 15L23 14L24 14L24 13L22 13L22 14L21 14L21 15L23 15L23 17L21 17L21 16L20 16L20 15L17 15L17 17L18 17L18 21L15 21L15 20L17 20L17 19L16 19L16 17L14 17L14 19L11 19L11 18L13 18L13 15L12 15L12 13L9 13L9 14L8 14L8 12L9 12L9 11L10 11L10 9L11 9L11 11L13 11L13 13L14 13L14 14L15 14L15 12L17 12L17 11L19 11L19 10L16 10L16 11L15 11L15 9L16 9L16 8L17 8L17 9L19 9L19 8L18 8L18 4L17 4L17 7L16 7L16 5L13 5L13 7L12 7L12 6L11 6L11 4ZM14 6L14 7L13 7L13 11L14 11L14 7L15 7L15 8L16 8L16 7L15 7L15 6ZM21 6L21 7L22 7L22 6ZM24 6L24 8L25 8L25 6ZM30 6L30 7L31 7L31 8L32 8L32 7L33 7L33 6L32 6L32 7L31 7L31 6ZM0 9L0 10L1 10L1 9ZM3 9L3 12L2 12L2 13L3 13L3 12L4 12L4 13L5 13L5 11L4 11L4 10L5 10L5 9ZM33 10L33 11L34 11L34 10ZM20 11L20 12L21 12L21 11ZM23 11L23 12L24 12L24 11ZM18 12L18 13L19 13L19 14L20 14L20 13L19 13L19 12ZM16 13L16 14L17 14L17 13ZM33 13L33 14L32 14L32 15L34 15L34 13ZM36 13L36 14L38 14L38 13ZM9 14L9 15L8 15L8 16L6 16L6 17L7 17L7 18L6 18L6 19L5 19L5 20L6 20L6 21L5 21L5 22L4 22L4 23L5 23L5 22L6 22L6 21L7 21L7 20L8 20L8 19L7 19L7 18L8 18L8 17L9 17L9 18L10 18L10 17L12 17L12 16L11 16L11 14ZM26 14L26 15L27 15L27 14ZM9 15L9 16L10 16L10 15ZM14 15L14 16L15 16L15 15ZM28 15L28 16L29 16L29 17L30 17L30 19L31 19L31 18L32 18L32 19L33 19L33 18L32 18L32 17L30 17L30 16L29 16L29 15ZM18 16L18 17L19 17L19 18L20 18L20 17L19 17L19 16ZM25 16L25 17L26 17L26 18L24 18L24 19L25 19L25 20L27 20L27 21L28 21L28 22L26 22L26 21L24 21L24 22L25 22L25 23L26 23L26 24L27 24L27 25L29 25L29 26L32 26L32 27L31 27L31 28L33 28L33 29L32 29L32 30L33 30L33 29L34 29L34 28L33 28L33 27L34 27L34 26L35 26L35 25L34 25L34 24L35 24L35 23L33 23L33 21L34 21L34 22L35 22L35 21L34 21L34 20L33 20L33 21L32 21L32 20L30 20L30 21L31 21L31 22L32 22L32 23L30 23L30 24L29 24L29 21L28 21L28 20L27 20L27 19L28 19L28 18L27 18L27 17L26 17L26 16ZM21 18L21 20L20 20L20 19L19 19L19 20L20 20L20 21L21 21L21 22L22 22L22 26L25 26L25 25L24 25L24 23L23 23L23 22L22 22L22 21L23 21L23 20L22 20L22 18ZM26 18L26 19L27 19L27 18ZM6 19L6 20L7 20L7 19ZM9 19L9 21L10 21L10 24L11 24L11 23L13 23L13 24L14 24L14 25L15 25L15 26L13 26L13 27L14 27L14 28L15 28L15 26L16 26L16 25L17 25L17 26L18 26L18 25L17 25L17 23L16 23L16 22L15 22L15 21L14 21L14 23L13 23L13 20L11 20L11 19ZM10 20L10 21L11 21L11 20ZM21 20L21 21L22 21L22 20ZM40 20L40 21L41 21L41 20ZM14 23L14 24L15 24L15 25L16 25L16 24L15 24L15 23ZM19 23L19 24L20 24L20 23ZM32 23L32 24L30 24L30 25L33 25L33 26L34 26L34 25L33 25L33 23ZM6 26L6 27L7 27L7 26ZM9 27L9 28L10 28L10 27ZM25 28L25 29L24 29L24 30L25 30L25 29L26 29L26 28ZM39 29L39 31L40 31L40 30L41 30L41 29ZM26 30L26 31L27 31L27 30ZM2 31L2 32L3 32L3 33L5 33L5 32L3 32L3 31ZM9 32L9 34L11 34L11 33L10 33L10 32ZM37 32L37 33L38 33L38 34L39 34L39 33L38 33L38 32ZM27 33L27 34L28 34L28 35L29 35L29 33ZM33 33L33 36L36 36L36 33ZM30 34L30 35L31 35L31 34ZM34 34L34 35L35 35L35 34ZM20 35L20 36L21 36L21 35ZM22 35L22 36L24 36L24 35ZM38 35L38 36L37 36L37 37L38 37L38 36L39 36L39 35ZM8 36L8 39L9 39L9 37L12 37L12 38L10 38L10 40L9 40L9 41L12 41L12 40L13 40L13 41L14 41L14 40L15 40L15 41L16 41L16 40L17 40L17 39L19 39L19 38L20 38L20 39L23 39L23 40L21 40L21 41L23 41L23 40L24 40L24 39L25 39L25 38L23 38L23 37L19 37L19 38L17 38L17 37L15 37L15 36ZM30 37L30 38L31 38L31 37ZM34 37L34 38L36 38L36 37ZM13 38L13 40L14 40L14 38ZM37 38L37 39L38 39L38 38ZM19 40L19 41L20 41L20 40ZM29 40L29 41L30 41L30 40ZM0 0L0 7L7 7L7 0ZM1 1L1 6L6 6L6 1ZM2 2L2 5L5 5L5 2ZM34 0L34 7L41 7L41 0ZM35 1L35 6L40 6L40 1ZM36 2L36 5L39 5L39 2ZM0 34L0 41L7 41L7 34ZM1 35L1 40L6 40L6 35ZM2 36L2 39L5 39L5 36Z" fill="#000000"/></g></g></svg>
