<?xml version="1.0" encoding="UTF-8"?>
<svg xmlns="http://www.w3.org/2000/svg" version="1.1" width="200" height="200" viewBox="0 0 200 200"><rect x="0" y="0" width="200" height="200" fill="#ffffff"/><g transform="scale(4.878)"><g transform="translate(0,0)"><path fill-rule="evenodd" d="M9 0L9 1L8 1L8 7L9 7L9 8L5 8L5 9L8 9L8 11L7 11L7 10L5 10L5 11L4 11L4 9L3 9L3 8L2 8L2 9L1 9L1 11L0 11L0 12L1 12L1 14L3 14L3 15L1 15L1 16L0 16L0 17L1 17L1 16L2 16L2 18L3 18L3 19L4 19L4 20L5 20L5 19L4 19L4 18L3 18L3 17L5 17L5 16L3 16L3 15L4 15L4 14L5 14L5 13L2 13L2 12L1 12L1 11L4 11L4 12L5 12L5 11L7 11L7 12L6 12L6 13L7 13L7 12L9 12L9 14L6 14L6 15L8 15L8 16L6 16L6 17L8 17L8 18L9 18L9 19L7 19L7 18L6 18L6 19L7 19L7 20L6 20L6 21L5 21L5 24L6 24L6 25L7 25L7 24L8 24L8 25L9 25L9 22L10 22L10 24L11 24L11 23L12 23L12 25L13 25L13 26L14 26L14 22L15 22L15 24L16 24L16 26L15 26L15 27L16 27L16 28L17 28L17 29L16 29L16 30L14 30L14 29L15 29L15 28L14 28L14 29L13 29L13 30L11 30L11 32L12 32L12 33L13 33L13 35L14 35L14 37L16 37L16 38L14 38L14 39L13 39L13 41L15 41L15 40L17 40L17 38L18 38L18 37L19 37L19 39L18 39L18 40L19 40L19 41L22 41L22 40L24 40L24 41L25 41L25 40L24 40L24 39L25 39L25 38L24 38L24 39L23 39L23 38L21 38L21 37L20 37L20 36L22 36L22 37L25 37L25 36L24 36L24 34L26 34L26 35L28 35L28 36L26 36L26 41L27 41L27 39L28 39L28 36L29 36L29 37L30 37L30 35L29 35L29 34L30 34L30 33L29 33L29 34L28 34L28 32L27 32L27 34L26 34L26 32L25 32L25 31L24 31L24 30L25 30L25 29L26 29L26 31L28 31L28 30L27 30L27 29L28 29L28 28L29 28L29 27L30 27L30 30L29 30L29 31L30 31L30 32L32 32L32 33L31 33L31 34L32 34L32 36L31 36L31 37L37 37L37 38L36 38L36 39L35 39L35 40L34 40L34 39L33 39L33 38L31 38L31 39L30 39L30 38L29 38L29 39L30 39L30 41L31 41L31 39L32 39L32 41L36 41L36 40L37 40L37 41L39 41L39 39L41 39L41 36L40 36L40 35L41 35L41 33L40 33L40 31L41 31L41 28L40 28L40 27L41 27L41 25L39 25L39 24L37 24L37 26L38 26L38 27L37 27L37 30L35 30L35 32L34 32L34 31L33 31L33 30L34 30L34 29L35 29L35 28L34 28L34 27L35 27L35 26L36 26L36 24L35 24L35 20L36 20L36 21L37 21L37 19L36 19L36 18L35 18L35 16L36 16L36 15L35 15L35 14L33 14L33 17L34 17L34 18L35 18L35 20L34 20L34 19L33 19L33 18L32 18L32 16L31 16L31 15L32 15L32 14L30 14L30 13L32 13L32 12L33 12L33 11L32 11L32 10L33 10L33 9L34 9L34 10L36 10L36 11L34 11L34 12L35 12L35 13L36 13L36 11L37 11L37 14L38 14L38 13L39 13L39 16L40 16L40 15L41 15L41 12L40 12L40 11L41 11L41 9L40 9L40 8L35 8L35 9L34 9L34 8L33 8L33 6L32 6L32 7L31 7L31 3L32 3L32 5L33 5L33 0L32 0L32 2L31 2L31 1L29 1L29 0L28 0L28 2L27 2L27 4L28 4L28 5L30 5L30 11L31 11L31 12L30 12L30 13L29 13L29 10L28 10L28 9L27 9L27 6L26 6L26 8L25 8L25 6L24 6L24 5L23 5L23 4L24 4L24 3L26 3L26 2L24 2L24 1L23 1L23 2L24 2L24 3L22 3L22 2L21 2L21 1L22 1L22 0L21 0L21 1L20 1L20 0L18 0L18 2L17 2L17 3L15 3L15 2L14 2L14 1L15 1L15 0L13 0L13 1L12 1L12 0ZM16 0L16 1L17 1L17 0ZM25 0L25 1L26 1L26 0ZM9 1L9 2L11 2L11 1ZM19 1L19 2L18 2L18 4L16 4L16 6L15 6L15 3L14 3L14 2L13 2L13 3L11 3L11 4L10 4L10 3L9 3L9 4L10 4L10 5L9 5L9 7L10 7L10 6L11 6L11 7L12 7L12 6L13 6L13 7L14 7L14 6L15 6L15 8L14 8L14 10L12 10L12 9L9 9L9 10L11 10L11 12L10 12L10 13L11 13L11 14L9 14L9 16L10 16L10 15L12 15L12 11L13 11L13 14L14 14L14 16L13 16L13 17L12 17L12 16L11 16L11 17L12 17L12 18L10 18L10 20L7 20L7 21L6 21L6 22L7 22L7 21L10 21L10 22L11 22L11 21L10 21L10 20L11 20L11 19L12 19L12 20L13 20L13 21L12 21L12 23L13 23L13 22L14 22L14 21L15 21L15 20L14 20L14 19L15 19L15 17L14 17L14 16L16 16L16 17L17 17L17 18L16 18L16 20L20 20L20 21L19 21L19 22L20 22L20 21L21 21L21 23L22 23L22 25L21 25L21 26L20 26L20 24L19 24L19 23L17 23L17 22L18 22L18 21L16 21L16 23L17 23L17 25L18 25L18 24L19 24L19 27L20 27L20 28L21 28L21 30L22 30L22 32L21 32L21 31L20 31L20 29L18 29L18 30L17 30L17 31L18 31L18 34L17 34L17 33L15 33L15 32L16 32L16 31L14 31L14 32L13 32L13 33L15 33L15 34L14 34L14 35L15 35L15 34L17 34L17 35L18 35L18 34L21 34L21 33L22 33L22 32L23 32L23 30L22 30L22 29L24 29L24 28L25 28L25 27L24 27L24 28L22 28L22 27L23 27L23 26L25 26L25 25L27 25L27 24L26 24L26 23L27 23L27 20L28 20L28 22L29 22L29 25L30 25L30 27L31 27L31 22L30 22L30 21L29 21L29 20L30 20L30 19L29 19L29 20L28 20L28 19L27 19L27 18L26 18L26 17L28 17L28 18L30 18L30 15L29 15L29 17L28 17L28 16L25 16L25 17L24 17L24 15L23 15L23 13L22 13L22 14L21 14L21 18L20 18L20 17L18 17L18 16L19 16L19 15L20 15L20 14L19 14L19 15L18 15L18 16L16 16L16 15L17 15L17 14L18 14L18 12L20 12L20 13L21 13L21 11L23 11L23 12L24 12L24 11L23 11L23 10L24 10L24 6L23 6L23 7L22 7L22 4L20 4L20 5L19 5L19 3L21 3L21 2L20 2L20 1ZM28 2L28 3L29 3L29 4L30 4L30 2ZM13 3L13 5L14 5L14 3ZM11 4L11 6L12 6L12 4ZM25 4L25 5L26 5L26 4ZM17 5L17 6L16 6L16 9L15 9L15 11L14 11L14 14L15 14L15 15L16 15L16 14L17 14L17 13L16 13L16 12L18 12L18 11L21 11L21 10L22 10L22 9L23 9L23 8L22 8L22 9L21 9L21 10L20 10L20 7L21 7L21 5L20 5L20 7L19 7L19 5ZM17 6L17 10L18 10L18 9L19 9L19 8L18 8L18 6ZM28 6L28 7L29 7L29 6ZM25 9L25 10L26 10L26 9ZM36 9L36 10L37 10L37 11L38 11L38 12L39 12L39 13L40 13L40 12L39 12L39 9ZM15 11L15 12L16 12L16 11ZM26 11L26 12L28 12L28 11ZM24 13L24 14L25 14L25 15L28 15L28 13ZM34 15L34 16L35 16L35 15ZM13 17L13 18L12 18L12 19L13 19L13 18L14 18L14 17ZM38 17L38 19L39 19L39 20L40 20L40 19L41 19L41 17ZM0 18L0 19L1 19L1 18ZM17 18L17 19L20 19L20 20L22 20L22 21L23 21L23 22L22 22L22 23L25 23L25 21L26 21L26 20L27 20L27 19L26 19L26 18L23 18L23 19L20 19L20 18ZM23 19L23 21L25 21L25 20L24 20L24 19ZM1 20L1 22L0 22L0 23L1 23L1 22L2 22L2 21L3 21L3 20ZM32 20L32 28L33 28L33 24L34 24L34 22L33 22L33 20ZM39 21L39 22L40 22L40 24L41 24L41 22L40 22L40 21ZM36 22L36 23L37 23L37 22ZM2 23L2 24L3 24L3 25L2 25L2 26L3 26L3 27L2 27L2 28L1 28L1 30L0 30L0 31L4 31L4 32L3 32L3 33L4 33L4 32L5 32L5 33L7 33L7 32L8 32L8 36L9 36L9 38L8 38L8 39L10 39L10 40L9 40L9 41L10 41L10 40L12 40L12 37L13 37L13 36L10 36L10 35L12 35L12 34L9 34L9 33L10 33L10 32L9 32L9 31L10 31L10 29L12 29L12 28L13 28L13 27L12 27L12 26L11 26L11 27L10 27L10 26L8 26L8 27L7 27L7 26L6 26L6 27L4 27L4 26L3 26L3 25L4 25L4 23ZM6 23L6 24L7 24L7 23ZM0 24L0 26L1 26L1 24ZM23 24L23 25L22 25L22 26L23 26L23 25L24 25L24 24ZM16 26L16 27L17 27L17 28L18 28L18 26ZM26 26L26 28L28 28L28 27L27 27L27 26ZM6 27L6 28L7 28L7 27ZM9 27L9 29L8 29L8 30L7 30L7 29L6 29L6 30L4 30L4 28L3 28L3 29L2 29L2 30L4 30L4 31L5 31L5 32L7 32L7 31L8 31L8 30L9 30L9 29L10 29L10 27ZM11 27L11 28L12 28L12 27ZM38 27L38 28L39 28L39 27ZM31 29L31 30L30 30L30 31L32 31L32 29ZM38 29L38 33L37 33L37 34L40 34L40 33L39 33L39 30L40 30L40 29ZM6 30L6 31L7 31L7 30ZM18 30L18 31L19 31L19 30ZM36 31L36 32L37 32L37 31ZM0 32L0 33L2 33L2 32ZM24 32L24 33L23 33L23 34L24 34L24 33L25 33L25 32ZM33 33L33 36L36 36L36 33ZM34 34L34 35L35 35L35 34ZM22 35L22 36L23 36L23 35ZM38 35L38 37L39 37L39 38L38 38L38 39L39 39L39 38L40 38L40 36L39 36L39 35ZM16 36L16 37L18 37L18 36ZM10 38L10 39L11 39L11 38ZM19 39L19 40L22 40L22 39ZM40 40L40 41L41 41L41 40ZM0 0L0 7L7 7L7 0ZM1 1L1 6L6 6L6 1ZM2 2L2 5L5 5L5 2ZM34 0L34 7L41 7L41 0ZM35 1L35 6L40 6L40 1ZM36 2L36 5L39 5L39 2ZM0 34L0 41L7 41L7 34ZM1 35L1 40L6 40L6 35ZM2 36L2 39L5 39L5 36Z" fill="#000000"/></g></g></svg>
