<?xml version="1.0" encoding="UTF-8"?>
<svg xmlns="http://www.w3.org/2000/svg" version="1.1" width="200" height="200" viewBox="0 0 200 200"><rect x="0" y="0" width="200" height="200" fill="#ffffff"/><g transform="scale(6.897)"><g transform="translate(0,0)"><path fill-rule="evenodd" d="M9 0L9 1L11 1L11 0ZM17 0L17 1L18 1L18 2L19 2L19 3L18 3L18 4L19 4L19 6L18 6L18 7L17 7L17 6L16 6L16 5L17 5L17 4L16 4L16 3L17 3L17 2L16 2L16 3L15 3L15 4L14 4L14 2L15 2L15 1L12 1L12 2L10 2L10 3L12 3L12 2L13 2L13 4L12 4L12 10L11 10L11 9L10 9L10 7L11 7L11 6L10 6L10 7L9 7L9 6L8 6L8 7L9 7L9 9L8 9L8 8L6 8L6 9L5 9L5 8L3 8L3 9L2 9L2 10L1 10L1 9L0 9L0 12L1 12L1 13L0 13L0 16L1 16L1 15L2 15L2 16L3 16L3 17L2 17L2 18L1 18L1 17L0 17L0 21L2 21L2 19L7 19L7 18L6 18L6 17L8 17L8 18L9 18L9 17L11 17L11 18L10 18L10 19L8 19L8 20L10 20L10 19L12 19L12 20L15 20L15 22L16 22L16 23L18 23L18 24L17 24L17 25L16 25L16 24L15 24L15 23L14 23L14 24L12 24L12 23L11 23L11 22L12 22L12 21L10 21L10 22L9 22L9 21L8 21L8 23L9 23L9 24L8 24L8 26L9 26L9 24L10 24L10 25L11 25L11 24L12 24L12 26L10 26L10 27L12 27L12 28L11 28L11 29L12 29L12 28L13 28L13 29L14 29L14 28L16 28L16 29L17 29L17 27L18 27L18 29L20 29L20 28L21 28L21 29L23 29L23 28L24 28L24 29L26 29L26 28L25 28L25 27L23 27L23 28L22 28L22 26L21 26L21 27L20 27L20 28L19 28L19 27L18 27L18 26L19 26L19 25L24 25L24 26L25 26L25 22L27 22L27 24L26 24L26 26L27 26L27 27L29 27L29 26L27 26L27 25L29 25L29 24L28 24L28 23L29 23L29 21L28 21L28 22L27 22L27 21L26 21L26 20L27 20L27 19L26 19L26 18L28 18L28 19L29 19L29 17L28 17L28 16L29 16L29 15L27 15L27 13L29 13L29 11L28 11L28 10L27 10L27 8L25 8L25 9L26 9L26 10L25 10L25 12L24 12L24 16L23 16L23 12L22 12L22 11L21 11L21 10L19 10L19 9L17 9L17 8L19 8L19 6L20 6L20 8L21 8L21 4L19 4L19 3L20 3L20 1L21 1L21 0L19 0L19 1L18 1L18 0ZM8 2L8 4L9 4L9 2ZM10 4L10 5L11 5L11 4ZM13 4L13 7L14 7L14 6L15 6L15 8L13 8L13 10L12 10L12 11L11 11L11 12L9 12L9 11L8 11L8 9L6 9L6 10L7 10L7 11L5 11L5 10L4 10L4 11L5 11L5 14L4 14L4 17L3 17L3 18L5 18L5 16L7 16L7 15L8 15L8 13L9 13L9 16L10 16L10 13L12 13L12 14L11 14L11 15L12 15L12 16L11 16L11 17L13 17L13 18L12 18L12 19L13 19L13 18L14 18L14 19L17 19L17 20L16 20L16 22L17 22L17 20L18 20L18 21L19 21L19 24L18 24L18 25L19 25L19 24L20 24L20 21L19 21L19 18L20 18L20 19L21 19L21 20L22 20L22 19L21 19L21 16L20 16L20 15L21 15L21 14L22 14L22 12L21 12L21 14L20 14L20 15L19 15L19 14L18 14L18 12L17 12L17 14L16 14L16 10L17 10L17 11L19 11L19 10L17 10L17 9L16 9L16 8L17 8L17 7L16 7L16 6L15 6L15 5L14 5L14 4ZM9 9L9 10L10 10L10 9ZM14 9L14 13L13 13L13 12L12 12L12 13L13 13L13 16L14 16L14 18L15 18L15 15L16 15L16 14L15 14L15 9ZM22 9L22 10L23 10L23 11L24 11L24 9ZM26 10L26 11L27 11L27 12L28 12L28 11L27 11L27 10ZM1 11L1 12L2 12L2 13L3 13L3 11ZM7 11L7 12L6 12L6 13L8 13L8 11ZM19 12L19 13L20 13L20 12ZM25 13L25 16L26 16L26 17L27 17L27 16L26 16L26 13ZM2 14L2 15L3 15L3 14ZM5 14L5 15L7 15L7 14ZM17 14L17 15L18 15L18 16L17 16L17 18L19 18L19 15L18 15L18 14ZM22 16L22 17L23 17L23 16ZM23 19L23 20L26 20L26 19ZM3 20L3 21L7 21L7 20ZM13 21L13 22L14 22L14 21ZM21 21L21 24L24 24L24 21ZM22 22L22 23L23 23L23 22ZM14 24L14 25L15 25L15 24ZM12 26L12 27L13 27L13 28L14 28L14 27L13 27L13 26ZM15 26L15 27L16 27L16 26ZM9 28L9 29L10 29L10 28ZM27 28L27 29L28 29L28 28ZM0 0L0 7L7 7L7 0ZM1 1L1 6L6 6L6 1ZM2 2L2 5L5 5L5 2ZM22 0L22 7L29 7L29 0ZM23 1L23 6L28 6L28 1ZM24 2L24 5L27 5L27 2ZM0 22L0 29L7 29L7 22ZM1 23L1 28L6 28L6 23ZM2 24L2 27L5 27L5 24Z" fill="#000000"/></g></g></svg>
