<?xml version="1.0" encoding="UTF-8"?>
<svg xmlns="http://www.w3.org/2000/svg" version="1.1" width="200" height="200" viewBox="0 0 200 200"><rect x="0" y="0" width="200" height="200" fill="#ffffff"/><g transform="scale(6.897)"><g transform="translate(0,0)"><path fill-rule="evenodd" d="M9 0L9 1L8 1L8 7L9 7L9 5L10 5L10 7L11 7L11 6L12 6L12 7L13 7L13 6L14 6L14 7L15 7L15 6L16 6L16 7L17 7L17 8L16 8L16 9L15 9L15 8L11 8L11 13L9 13L9 14L11 14L11 16L12 16L12 19L11 19L11 18L10 18L10 19L9 19L9 17L10 17L10 16L8 16L8 15L7 15L7 14L8 14L8 12L6 12L6 11L7 11L7 10L4 10L4 9L3 9L3 8L2 8L2 9L3 9L3 10L4 10L4 11L5 11L5 12L3 12L3 14L1 14L1 16L0 16L0 17L1 17L1 18L0 18L0 19L2 19L2 20L0 20L0 21L2 21L2 20L3 20L3 21L5 21L5 20L4 20L4 19L7 19L7 18L6 18L6 17L7 17L7 16L8 16L8 19L9 19L9 20L8 20L8 24L9 24L9 25L10 25L10 28L9 28L9 29L11 29L11 27L14 27L14 26L12 26L12 25L11 25L11 24L9 24L9 20L10 20L10 19L11 19L11 20L13 20L13 19L14 19L14 18L15 18L15 20L14 20L14 21L11 21L11 22L13 22L13 23L12 23L12 24L13 24L13 25L14 25L14 24L15 24L15 25L17 25L17 26L15 26L15 27L17 27L17 26L20 26L20 27L21 27L21 29L22 29L22 28L24 28L24 29L25 29L25 28L24 28L24 26L23 26L23 27L22 27L22 26L21 26L21 25L25 25L25 23L26 23L26 21L27 21L27 23L28 23L28 22L29 22L29 21L27 21L27 19L26 19L26 20L23 20L23 19L25 19L25 18L28 18L28 19L29 19L29 18L28 18L28 17L29 17L29 16L27 16L27 17L25 17L25 16L22 16L22 15L25 15L25 14L26 14L26 13L28 13L28 15L29 15L29 12L27 12L27 11L29 11L29 9L28 9L28 8L23 8L23 10L22 10L22 11L21 11L21 9L22 9L22 8L20 8L20 7L21 7L21 0L19 0L19 1L20 1L20 2L19 2L19 3L20 3L20 5L16 5L16 4L17 4L17 3L18 3L18 2L13 2L13 3L12 3L12 1L13 1L13 0L12 0L12 1L11 1L11 2L10 2L10 4L9 4L9 1L10 1L10 0ZM16 0L16 1L18 1L18 0ZM15 3L15 4L16 4L16 3ZM10 4L10 5L12 5L12 6L13 6L13 5L12 5L12 4ZM14 5L14 6L15 6L15 5ZM17 6L17 7L18 7L18 10L17 10L17 9L16 9L16 10L15 10L15 13L14 13L14 11L13 11L13 13L14 13L14 15L13 15L13 14L12 14L12 15L13 15L13 18L14 18L14 15L15 15L15 17L16 17L16 15L17 15L17 20L15 20L15 21L18 21L18 22L15 22L15 24L16 24L16 23L17 23L17 25L19 25L19 24L20 24L20 23L18 23L18 22L20 22L20 21L19 21L19 20L22 20L22 19L21 19L21 15L19 15L19 16L18 16L18 15L17 15L17 14L22 14L22 12L21 12L21 13L20 13L20 12L19 12L19 11L20 11L20 8L19 8L19 7L20 7L20 6L19 6L19 7L18 7L18 6ZM5 8L5 9L9 9L9 8ZM13 9L13 10L14 10L14 9ZM25 9L25 10L24 10L24 11L27 11L27 10L28 10L28 9ZM0 10L0 11L1 11L1 10ZM9 10L9 12L10 12L10 10ZM16 11L16 14L15 14L15 15L16 15L16 14L17 14L17 11ZM1 12L1 13L2 13L2 12ZM5 12L5 14L4 14L4 16L7 16L7 15L6 15L6 14L7 14L7 13L6 13L6 12ZM18 12L18 13L19 13L19 12ZM23 12L23 14L25 14L25 13L24 13L24 12ZM2 15L2 17L3 17L3 18L4 18L4 17L3 17L3 15ZM19 16L19 17L20 17L20 16ZM22 17L22 18L25 18L25 17ZM19 18L19 19L18 19L18 20L19 20L19 19L20 19L20 18ZM6 20L6 21L7 21L7 20ZM21 21L21 24L24 24L24 21ZM22 22L22 23L23 23L23 22ZM26 24L26 25L29 25L29 24ZM8 26L8 27L9 27L9 26ZM25 26L25 27L28 27L28 28L27 28L27 29L29 29L29 26ZM15 28L15 29L16 29L16 28ZM18 28L18 29L19 29L19 28ZM0 0L0 7L7 7L7 0ZM1 1L1 6L6 6L6 1ZM2 2L2 5L5 5L5 2ZM22 0L22 7L29 7L29 0ZM23 1L23 6L28 6L28 1ZM24 2L24 5L27 5L27 2ZM0 22L0 29L7 29L7 22ZM1 23L1 28L6 28L6 23ZM2 24L2 27L5 27L5 24Z" fill="#000000"/></g></g></svg>
