<?xml version="1.0" encoding="UTF-8"?>
<svg xmlns="http://www.w3.org/2000/svg" version="1.1" width="200" height="200" viewBox="0 0 200 200"><rect x="0" y="0" width="200" height="200" fill="#ffffff"/><g transform="scale(6.897)"><g transform="translate(0,0)"><path fill-rule="evenodd" d="M9 0L9 1L8 1L8 7L9 7L9 5L10 5L10 8L5 8L5 10L4 10L4 9L3 9L3 8L2 8L2 12L1 12L1 13L0 13L0 14L1 14L1 16L2 16L2 15L3 15L3 16L4 16L4 17L3 17L3 18L2 18L2 17L1 17L1 18L0 18L0 19L7 19L7 18L8 18L8 19L9 19L9 20L6 20L6 21L8 21L8 24L9 24L9 25L10 25L10 28L9 28L9 29L11 29L11 26L13 26L13 27L12 27L12 28L13 28L13 27L14 27L14 26L18 26L18 25L16 25L16 24L17 24L17 23L16 23L16 24L15 24L15 22L18 22L18 21L15 21L15 20L17 20L17 19L15 19L15 20L14 20L14 21L12 21L12 20L13 20L13 19L14 19L14 18L13 18L13 17L12 17L12 18L13 18L13 19L12 19L12 20L11 20L11 22L14 22L14 23L12 23L12 24L13 24L13 25L11 25L11 24L10 24L10 23L9 23L9 20L10 20L10 19L11 19L11 16L13 16L13 15L12 15L12 14L13 14L13 11L14 11L14 13L16 13L16 14L14 14L14 17L15 17L15 18L16 18L16 17L17 17L17 16L19 16L19 17L18 17L18 18L19 18L19 19L18 19L18 20L19 20L19 21L20 21L20 22L19 22L19 23L20 23L20 24L19 24L19 26L20 26L20 27L21 27L21 29L22 29L22 28L24 28L24 29L26 29L26 28L24 28L24 26L23 26L23 27L22 27L22 26L21 26L21 25L25 25L25 23L26 23L26 21L27 21L27 23L28 23L28 22L29 22L29 21L27 21L27 19L26 19L26 18L28 18L28 19L29 19L29 18L28 18L28 17L29 17L29 16L27 16L27 17L25 17L25 16L22 16L22 15L25 15L25 14L26 14L26 13L28 13L28 15L29 15L29 12L27 12L27 11L29 11L29 9L28 9L28 8L23 8L23 10L22 10L22 11L21 11L21 9L22 9L22 8L20 8L20 7L21 7L21 0L19 0L19 1L20 1L20 2L19 2L19 3L20 3L20 5L16 5L16 4L17 4L17 3L18 3L18 2L17 2L17 1L18 1L18 0L15 0L15 1L16 1L16 2L17 2L17 3L16 3L16 4L15 4L15 2L13 2L13 0ZM9 1L9 4L10 4L10 5L12 5L12 6L11 6L11 8L10 8L10 9L8 9L8 10L10 10L10 12L7 12L7 11L6 11L6 12L5 12L5 11L3 11L3 12L2 12L2 13L1 13L1 14L3 14L3 12L5 12L5 14L7 14L7 15L6 15L6 16L7 16L7 17L6 17L6 18L7 18L7 17L8 17L8 18L9 18L9 19L10 19L10 16L11 16L11 15L10 15L10 14L9 14L9 13L12 13L12 12L11 12L11 10L12 10L12 11L13 11L13 10L15 10L15 11L16 11L16 9L17 9L17 7L18 7L18 10L17 10L17 13L18 13L18 14L16 14L16 15L15 15L15 17L16 17L16 15L18 15L18 14L22 14L22 12L21 12L21 13L20 13L20 12L19 12L19 11L20 11L20 8L19 8L19 7L20 7L20 6L19 6L19 7L18 7L18 6L17 6L17 7L16 7L16 6L15 6L15 9L13 9L13 8L14 8L14 6L13 6L13 5L12 5L12 3L13 3L13 2L12 2L12 1ZM10 2L10 4L11 4L11 3L12 3L12 2ZM12 6L12 7L13 7L13 6ZM11 8L11 9L12 9L12 8ZM6 9L6 10L7 10L7 9ZM25 9L25 10L24 10L24 11L27 11L27 10L28 10L28 9ZM0 10L0 11L1 11L1 10ZM6 12L6 13L7 13L7 14L8 14L8 13L7 13L7 12ZM18 12L18 13L19 13L19 12ZM23 12L23 14L25 14L25 13L24 13L24 12ZM7 15L7 16L8 16L8 17L9 17L9 16L10 16L10 15L9 15L9 16L8 16L8 15ZM19 15L19 16L20 16L20 17L19 17L19 18L20 18L20 19L19 19L19 20L22 20L22 19L21 19L21 15ZM22 17L22 18L25 18L25 17ZM23 19L23 20L24 20L24 19ZM25 19L25 20L26 20L26 19ZM0 20L0 21L5 21L5 20ZM21 21L21 24L24 24L24 21ZM22 22L22 23L23 23L23 22ZM26 24L26 25L29 25L29 24ZM13 25L13 26L14 26L14 25ZM8 26L8 27L9 27L9 26ZM25 26L25 27L28 27L28 28L27 28L27 29L29 29L29 26ZM16 27L16 28L17 28L17 27ZM18 28L18 29L19 29L19 28ZM0 0L0 7L7 7L7 0ZM1 1L1 6L6 6L6 1ZM2 2L2 5L5 5L5 2ZM22 0L22 7L29 7L29 0ZM23 1L23 6L28 6L28 1ZM24 2L24 5L27 5L27 2ZM0 22L0 29L7 29L7 22ZM1 23L1 28L6 28L6 23ZM2 24L2 27L5 27L5 24Z" fill="#000000"/></g></g></svg>
