<?xml version="1.0" encoding="UTF-8"?>
<svg xmlns="http://www.w3.org/2000/svg" version="1.1" width="200" height="200" viewBox="0 0 200 200"><rect x="0" y="0" width="200" height="200" fill="#ffffff"/><g transform="scale(4.878)"><g transform="translate(0,0)"><path fill-rule="evenodd" d="M8 0L8 3L9 3L9 4L10 4L10 7L9 7L9 5L8 5L8 11L7 11L7 10L6 10L6 11L5 11L5 14L4 14L4 15L2 15L2 16L4 16L4 17L2 17L2 19L4 19L4 20L2 20L2 21L0 21L0 22L2 22L2 21L4 21L4 23L2 23L2 24L0 24L0 25L1 25L1 26L2 26L2 27L1 27L1 28L0 28L0 33L1 33L1 30L3 30L3 29L2 29L2 28L4 28L4 29L5 29L5 28L4 28L4 27L5 27L5 26L6 26L6 27L7 27L7 26L8 26L8 25L9 25L9 26L10 26L10 25L9 25L9 24L10 24L10 22L9 22L9 24L8 24L8 21L9 21L9 20L10 20L10 21L11 21L11 20L10 20L10 19L13 19L13 21L12 21L12 23L11 23L11 25L12 25L12 23L14 23L14 22L15 22L15 21L16 21L16 23L17 23L17 24L15 24L15 25L14 25L14 24L13 24L13 26L11 26L11 28L9 28L9 29L8 29L8 28L6 28L6 29L7 29L7 30L6 30L6 31L5 31L5 30L4 30L4 31L5 31L5 32L3 32L3 31L2 31L2 32L3 32L3 33L8 33L8 34L11 34L11 35L9 35L9 36L8 36L8 39L10 39L10 40L9 40L9 41L10 41L10 40L11 40L11 41L14 41L14 40L15 40L15 39L13 39L13 38L12 38L12 37L13 37L13 36L14 36L14 33L15 33L15 32L14 32L14 31L15 31L15 30L14 30L14 29L13 29L13 28L17 28L17 29L16 29L16 30L17 30L17 32L16 32L16 34L15 34L15 36L16 36L16 40L20 40L20 41L22 41L22 38L23 38L23 40L24 40L24 41L26 41L26 40L27 40L27 41L31 41L31 40L33 40L33 41L34 41L34 40L33 40L33 39L35 39L35 40L36 40L36 39L37 39L37 40L40 40L40 38L41 38L41 37L39 37L39 36L41 36L41 35L40 35L40 34L41 34L41 33L39 33L39 32L40 32L40 30L41 30L41 29L40 29L40 26L41 26L41 23L39 23L39 22L38 22L38 21L39 21L39 20L38 20L38 19L40 19L40 18L41 18L41 16L40 16L40 18L38 18L38 17L39 17L39 16L37 16L37 17L36 17L36 16L35 16L35 17L34 17L34 16L33 16L33 17L30 17L30 16L29 16L29 15L28 15L28 16L29 16L29 17L30 17L30 19L31 19L31 18L34 18L34 19L35 19L35 21L34 21L34 20L33 20L33 19L32 19L32 21L31 21L31 20L30 20L30 21L31 21L31 22L30 22L30 23L31 23L31 24L33 24L33 23L34 23L34 22L35 22L35 23L36 23L36 24L35 24L35 25L30 25L30 24L29 24L29 23L28 23L28 22L27 22L27 21L29 21L29 20L27 20L27 21L26 21L26 17L27 17L27 16L26 16L26 17L25 17L25 15L24 15L24 17L25 17L25 19L22 19L22 18L23 18L23 17L21 17L21 19L20 19L20 18L19 18L19 17L18 17L18 16L20 16L20 15L21 15L21 16L23 16L23 15L21 15L21 12L22 12L22 13L23 13L23 14L24 14L24 12L27 12L27 14L29 14L29 13L30 13L30 15L31 15L31 12L29 12L29 11L31 11L31 10L32 10L32 11L33 11L33 12L32 12L32 13L33 13L33 14L32 14L32 15L34 15L34 13L35 13L35 12L38 12L38 11L40 11L40 10L41 10L41 8L38 8L38 9L40 9L40 10L37 10L37 9L36 9L36 8L33 8L33 9L32 9L32 8L31 8L31 9L30 9L30 8L26 8L26 7L27 7L27 6L28 6L28 7L29 7L29 4L28 4L28 5L27 5L27 4L25 4L25 5L27 5L27 6L26 6L26 7L25 7L25 6L24 6L24 7L23 7L23 5L24 5L24 3L23 3L23 2L21 2L21 1L22 1L22 0L17 0L17 1L15 1L15 2L14 2L14 3L15 3L15 4L11 4L11 3L13 3L13 2L12 2L12 1L13 1L13 0L11 0L11 3L9 3L9 2L10 2L10 0ZM24 0L24 2L25 2L25 0ZM26 0L26 1L27 1L27 2L26 2L26 3L31 3L31 2L30 2L30 0L29 0L29 1L27 1L27 0ZM31 0L31 1L32 1L32 0ZM17 1L17 3L18 3L18 5L20 5L20 4L21 4L21 2L18 2L18 1ZM32 2L32 3L33 3L33 2ZM19 3L19 4L20 4L20 3ZM16 4L16 5L17 5L17 4ZM30 4L30 5L32 5L32 7L33 7L33 4ZM21 5L21 7L20 7L20 6L19 6L19 7L18 7L18 6L17 6L17 7L16 7L16 6L15 6L15 7L14 7L14 6L13 6L13 7L12 7L12 6L11 6L11 7L10 7L10 8L9 8L9 9L10 9L10 8L11 8L11 7L12 7L12 9L13 9L13 11L12 11L12 10L11 10L11 12L14 12L14 11L15 11L15 13L14 13L14 14L15 14L15 15L16 15L16 14L18 14L18 15L17 15L17 16L15 16L15 19L14 19L14 17L13 17L13 16L14 16L14 15L10 15L10 16L9 16L9 17L6 17L6 16L8 16L8 13L9 13L9 12L7 12L7 11L6 11L6 12L7 12L7 13L6 13L6 14L5 14L5 17L4 17L4 18L5 18L5 20L4 20L4 21L5 21L5 22L7 22L7 21L5 21L5 20L8 20L8 18L11 18L11 16L12 16L12 17L13 17L13 19L14 19L14 21L13 21L13 22L14 22L14 21L15 21L15 19L16 19L16 20L17 20L17 22L18 22L18 20L19 20L19 19L17 19L17 18L18 18L18 17L17 17L17 16L18 16L18 15L19 15L19 13L18 13L18 12L17 12L17 13L16 13L16 11L15 11L15 10L18 10L18 11L21 11L21 10L22 10L22 11L23 11L23 12L24 12L24 11L23 11L23 10L24 10L24 8L23 8L23 7L22 7L22 5ZM30 6L30 7L31 7L31 6ZM13 7L13 9L16 9L16 8L14 8L14 7ZM19 7L19 8L17 8L17 9L21 9L21 8L22 8L22 9L23 9L23 8L22 8L22 7L21 7L21 8L20 8L20 7ZM2 8L2 9L1 9L1 11L3 11L3 12L0 12L0 13L1 13L1 14L2 14L2 13L4 13L4 11L3 11L3 10L5 10L5 8ZM6 8L6 9L7 9L7 8ZM25 8L25 9L26 9L26 10L28 10L28 11L27 11L27 12L28 12L28 13L29 13L29 12L28 12L28 11L29 11L29 10L30 10L30 9L26 9L26 8ZM33 9L33 11L34 11L34 9ZM35 9L35 10L36 10L36 11L37 11L37 10L36 10L36 9ZM33 12L33 13L34 13L34 12ZM39 12L39 13L38 13L38 14L37 14L37 13L36 13L36 14L35 14L35 15L38 15L38 14L39 14L39 15L40 15L40 14L41 14L41 13L40 13L40 12ZM11 13L11 14L12 14L12 13ZM25 13L25 14L26 14L26 13ZM39 13L39 14L40 14L40 13ZM6 14L6 15L7 15L7 14ZM0 15L0 17L1 17L1 15ZM5 17L5 18L6 18L6 19L7 19L7 18L6 18L6 17ZM35 17L35 19L36 19L36 20L37 20L37 21L38 21L38 20L37 20L37 18L36 18L36 17ZM0 18L0 19L1 19L1 18ZM27 18L27 19L29 19L29 18ZM23 20L23 21L22 21L22 23L19 23L19 24L18 24L18 26L17 26L17 27L18 27L18 28L19 28L19 29L18 29L18 32L17 32L17 35L18 35L18 36L17 36L17 39L19 39L19 38L20 38L20 39L21 39L21 38L20 38L20 36L22 36L22 35L21 35L21 32L22 32L22 34L23 34L23 38L24 38L24 40L25 40L25 39L27 39L27 38L28 38L28 37L29 37L29 38L30 38L30 37L32 37L32 39L33 39L33 38L36 38L36 37L32 37L32 35L31 35L31 34L30 34L30 35L31 35L31 36L28 36L28 37L27 37L27 38L24 38L24 36L25 36L25 35L26 35L26 36L27 36L27 35L26 35L26 33L27 33L27 34L29 34L29 33L27 33L27 32L26 32L26 31L27 31L27 29L25 29L25 28L27 28L27 26L28 26L28 27L29 27L29 28L30 28L30 29L28 29L28 30L30 30L30 31L28 31L28 32L30 32L30 33L31 33L31 32L30 32L30 31L31 31L31 30L32 30L32 31L33 31L33 32L36 32L36 31L37 31L37 30L38 30L38 32L37 32L37 33L38 33L38 35L37 35L37 36L39 36L39 33L38 33L38 32L39 32L39 26L40 26L40 24L39 24L39 23L38 23L38 22L37 22L37 24L36 24L36 25L35 25L35 26L34 26L34 27L32 27L32 26L29 26L29 25L26 25L26 24L28 24L28 23L26 23L26 22L25 22L25 20ZM40 20L40 21L41 21L41 20ZM19 21L19 22L20 22L20 21ZM32 21L32 22L31 22L31 23L32 23L32 22L34 22L34 21ZM35 21L35 22L36 22L36 21ZM23 22L23 23L22 23L22 24L20 24L20 26L22 26L22 27L21 27L21 28L22 28L22 30L21 30L21 31L20 31L20 30L19 30L19 32L18 32L18 33L20 33L20 32L21 32L21 31L22 31L22 32L23 32L23 31L22 31L22 30L23 30L23 28L25 28L25 27L23 27L23 26L26 26L26 25L25 25L25 22ZM4 23L4 25L5 25L5 24L7 24L7 23ZM23 23L23 24L22 24L22 25L23 25L23 24L24 24L24 23ZM2 25L2 26L3 26L3 25ZM6 25L6 26L7 26L7 25ZM36 25L36 26L35 26L35 27L36 27L36 28L35 28L35 29L36 29L36 30L34 30L34 31L36 31L36 30L37 30L37 29L36 29L36 28L38 28L38 26L39 26L39 25ZM13 26L13 27L15 27L15 26ZM18 26L18 27L19 27L19 28L20 28L20 27L19 27L19 26ZM33 28L33 29L32 29L32 30L33 30L33 29L34 29L34 28ZM9 29L9 30L11 30L11 29ZM30 29L30 30L31 30L31 29ZM7 30L7 31L6 31L6 32L11 32L11 34L12 34L12 36L11 36L11 37L12 37L12 36L13 36L13 33L14 33L14 32L13 32L13 30L12 30L12 31L8 31L8 30ZM24 30L24 31L25 31L25 30ZM12 32L12 33L13 33L13 32ZM23 33L23 34L24 34L24 35L25 35L25 34L24 34L24 33ZM33 33L33 36L36 36L36 33ZM19 34L19 36L18 36L18 38L19 38L19 36L20 36L20 34ZM34 34L34 35L35 35L35 34ZM9 37L9 38L10 38L10 37ZM14 37L14 38L15 38L15 37ZM37 38L37 39L38 39L38 38ZM11 39L11 40L12 40L12 39ZM28 39L28 40L31 40L31 39ZM0 0L0 7L7 7L7 0ZM1 1L1 6L6 6L6 1ZM2 2L2 5L5 5L5 2ZM34 0L34 7L41 7L41 0ZM35 1L35 6L40 6L40 1ZM36 2L36 5L39 5L39 2ZM0 34L0 41L7 41L7 34ZM1 35L1 40L6 40L6 35ZM2 36L2 39L5 39L5 36Z" fill="#000000"/></g></g></svg>
