<?xml version="1.0" encoding="UTF-8"?>
<svg xmlns="http://www.w3.org/2000/svg" version="1.1" width="200" height="200" viewBox="0 0 200 200"><rect x="0" y="0" width="200" height="200" fill="#ffffff"/><g transform="scale(6.897)"><g transform="translate(0,0)"><path fill-rule="evenodd" d="M8 0L8 1L9 1L9 2L10 2L10 1L9 1L9 0ZM14 0L14 1L13 1L13 3L12 3L12 1L11 1L11 3L10 3L10 4L9 4L9 3L8 3L8 4L9 4L9 6L8 6L8 7L9 7L9 8L8 8L8 9L7 9L7 8L4 8L4 9L3 9L3 8L2 8L2 11L3 11L3 12L0 12L0 13L3 13L3 15L2 15L2 14L1 14L1 16L0 16L0 17L1 17L1 18L0 18L0 19L1 19L1 20L0 20L0 21L1 21L1 20L2 20L2 19L3 19L3 20L4 20L4 21L7 21L7 20L6 20L6 19L8 19L8 18L6 18L6 17L8 17L8 16L6 16L6 17L5 17L5 16L4 16L4 15L8 15L8 14L12 14L12 13L13 13L13 12L14 12L14 14L13 14L13 15L12 15L12 16L11 16L11 15L9 15L9 20L8 20L8 22L9 22L9 23L8 23L8 25L9 25L9 26L8 26L8 27L9 27L9 28L11 28L11 29L12 29L12 27L10 27L10 25L9 25L9 24L11 24L11 26L13 26L13 27L16 27L16 29L20 29L20 27L21 27L21 26L22 26L22 25L23 25L23 26L24 26L24 25L27 25L27 26L28 26L28 27L27 27L27 28L28 28L28 29L29 29L29 26L28 26L28 25L27 25L27 24L28 24L28 23L29 23L29 22L28 22L28 19L29 19L29 18L27 18L27 17L26 17L26 14L24 14L24 13L25 13L25 11L26 11L26 13L27 13L27 14L28 14L28 15L27 15L27 16L28 16L28 17L29 17L29 16L28 16L28 15L29 15L29 14L28 14L28 13L29 13L29 12L28 12L28 11L29 11L29 8L28 8L28 9L27 9L27 10L28 10L28 11L26 11L26 8L25 8L25 9L24 9L24 10L25 10L25 11L24 11L24 12L23 12L23 10L22 10L22 8L21 8L21 0L20 0L20 1L19 1L19 2L20 2L20 3L19 3L19 4L18 4L18 3L17 3L17 5L16 5L16 7L15 7L15 5L13 5L13 6L12 6L12 7L13 7L13 8L14 8L14 7L15 7L15 9L16 9L16 10L15 10L15 12L14 12L14 9L13 9L13 10L12 10L12 8L11 8L11 9L10 9L10 7L11 7L11 6L10 6L10 5L12 5L12 4L15 4L15 3L16 3L16 2L18 2L18 1L17 1L17 0L16 0L16 2L15 2L15 3L14 3L14 1L15 1L15 0ZM17 5L17 7L16 7L16 9L17 9L17 11L16 11L16 12L15 12L15 13L16 13L16 15L15 15L15 14L14 14L14 15L15 15L15 16L16 16L16 15L17 15L17 14L18 14L18 16L17 16L17 17L16 17L16 19L15 19L15 20L14 20L14 22L15 22L15 21L16 21L16 22L17 22L17 23L16 23L16 25L17 25L17 23L18 23L18 24L19 24L19 25L18 25L18 26L20 26L20 24L19 24L19 23L20 23L20 22L19 22L19 21L20 21L20 20L21 20L21 19L22 19L22 18L23 18L23 19L24 19L24 20L25 20L25 23L26 23L26 24L27 24L27 21L26 21L26 20L25 20L25 19L24 19L24 18L26 18L26 19L27 19L27 18L26 18L26 17L24 17L24 16L25 16L25 15L24 15L24 14L23 14L23 15L22 15L22 14L21 14L21 13L20 13L20 14L18 14L18 13L17 13L17 11L19 11L19 12L20 12L20 11L19 11L19 8L20 8L20 5L19 5L19 7L18 7L18 5ZM9 6L9 7L10 7L10 6ZM13 6L13 7L14 7L14 6ZM4 9L4 10L5 10L5 9ZM6 9L6 10L7 10L7 9ZM8 10L8 11L6 11L6 12L3 12L3 13L4 13L4 14L5 14L5 13L6 13L6 14L7 14L7 13L6 13L6 12L8 12L8 11L9 11L9 12L10 12L10 13L11 13L11 12L13 12L13 11L12 11L12 10L10 10L10 11L9 11L9 10ZM21 11L21 12L22 12L22 11ZM27 12L27 13L28 13L28 12ZM20 14L20 15L19 15L19 16L20 16L20 15L21 15L21 14ZM23 15L23 16L22 16L22 17L23 17L23 18L24 18L24 17L23 17L23 16L24 16L24 15ZM1 16L1 17L2 17L2 18L1 18L1 19L2 19L2 18L3 18L3 17L4 17L4 18L5 18L5 17L4 17L4 16ZM10 16L10 18L11 18L11 16ZM12 16L12 18L15 18L15 17L14 17L14 16ZM17 17L17 19L18 19L18 20L17 20L17 21L19 21L19 20L20 20L20 19L19 19L19 18L20 18L20 17ZM10 19L10 20L11 20L11 22L12 22L12 21L13 21L13 19ZM9 21L9 22L10 22L10 21ZM21 21L21 24L24 24L24 21ZM18 22L18 23L19 23L19 22ZM22 22L22 23L23 23L23 22ZM11 23L11 24L12 24L12 25L13 25L13 24L14 24L14 23L13 23L13 24L12 24L12 23ZM14 25L14 26L15 26L15 25ZM25 26L25 28L23 28L23 27L22 27L22 28L23 28L23 29L26 29L26 26ZM17 27L17 28L19 28L19 27ZM13 28L13 29L14 29L14 28ZM0 0L0 7L7 7L7 0ZM1 1L1 6L6 6L6 1ZM2 2L2 5L5 5L5 2ZM22 0L22 7L29 7L29 0ZM23 1L23 6L28 6L28 1ZM24 2L24 5L27 5L27 2ZM0 22L0 29L7 29L7 22ZM1 23L1 28L6 28L6 23ZM2 24L2 27L5 27L5 24Z" fill="#000000"/></g></g></svg>
