<?xml version="1.0" encoding="UTF-8"?>
<svg xmlns="http://www.w3.org/2000/svg" version="1.1" width="200" height="200" viewBox="0 0 200 200"><rect x="0" y="0" width="200" height="200" fill="#ffffff"/><g transform="scale(4.878)"><g transform="translate(0,0)"><path fill-rule="evenodd" d="M8 0L8 3L11 3L11 1L12 1L12 0ZM15 0L15 1L13 1L13 2L12 2L12 3L15 3L15 4L13 4L13 6L12 6L12 5L11 5L11 6L10 6L10 4L9 4L9 5L8 5L8 10L6 10L6 9L7 9L7 8L6 8L6 9L5 9L5 8L2 8L2 10L4 10L4 11L2 11L2 12L1 12L1 10L0 10L0 12L1 12L1 14L0 14L0 15L1 15L1 16L2 16L2 17L0 17L0 18L1 18L1 22L0 22L0 23L1 23L1 24L0 24L0 26L1 26L1 27L0 27L0 28L2 28L2 26L3 26L3 24L2 24L2 23L1 23L1 22L3 22L3 23L4 23L4 22L3 22L3 21L2 21L2 18L4 18L4 19L5 19L5 20L4 20L4 21L7 21L7 22L5 22L5 23L11 23L11 24L10 24L10 26L9 26L9 27L10 27L10 28L8 28L8 25L9 25L9 24L8 24L8 25L7 25L7 24L4 24L4 26L5 26L5 27L7 27L7 28L6 28L6 29L5 29L5 28L3 28L3 29L2 29L2 32L3 32L3 33L7 33L7 32L8 32L8 34L10 34L10 35L9 35L9 36L8 36L8 39L9 39L9 38L10 38L10 37L9 37L9 36L10 36L10 35L11 35L11 36L13 36L13 37L11 37L11 39L10 39L10 40L11 40L11 39L12 39L12 40L13 40L13 37L14 37L14 38L15 38L15 37L14 37L14 36L15 36L15 35L14 35L14 34L15 34L15 33L16 33L16 31L14 31L14 29L16 29L16 28L17 28L17 27L18 27L18 25L19 25L19 26L20 26L20 27L19 27L19 28L20 28L20 29L22 29L22 28L23 28L23 27L24 27L24 25L23 25L23 27L21 27L21 26L20 26L20 25L21 25L21 24L25 24L25 25L26 25L26 26L27 26L27 31L26 31L26 30L25 30L25 29L24 29L24 30L22 30L22 32L20 32L20 31L21 31L21 30L19 30L19 32L18 32L18 29L17 29L17 32L18 32L18 33L17 33L17 34L16 34L16 38L17 38L17 34L18 34L18 33L19 33L19 35L20 35L20 36L19 36L19 38L18 38L18 39L21 39L21 40L22 40L22 41L23 41L23 40L24 40L24 41L25 41L25 40L24 40L24 39L26 39L26 38L25 38L25 37L26 37L26 36L25 36L25 35L23 35L23 34L24 34L24 33L23 33L23 32L24 32L24 30L25 30L25 34L26 34L26 35L27 35L27 37L28 37L28 38L27 38L27 39L28 39L28 38L29 38L29 39L30 39L30 40L29 40L29 41L30 41L30 40L33 40L33 41L34 41L34 40L33 40L33 39L30 39L30 38L32 38L32 37L33 37L33 38L34 38L34 39L35 39L35 40L36 40L36 39L37 39L37 40L40 40L40 38L41 38L41 37L40 37L40 36L41 36L41 35L40 35L40 34L41 34L41 33L40 33L40 30L41 30L41 29L39 29L39 32L38 32L38 31L37 31L37 30L38 30L38 29L36 29L36 28L35 28L35 29L36 29L36 31L35 31L35 30L34 30L34 31L35 31L35 32L33 32L33 31L32 31L32 30L33 30L33 29L34 29L34 28L33 28L33 29L32 29L32 28L31 28L31 29L30 29L30 28L29 28L29 27L28 27L28 26L32 26L32 27L34 27L34 26L35 26L35 27L37 27L37 28L38 28L38 26L39 26L39 27L40 27L40 26L41 26L41 23L39 23L39 24L40 24L40 26L39 26L39 25L36 25L36 24L37 24L37 22L38 22L38 21L39 21L39 20L36 20L36 19L35 19L35 17L36 17L36 18L37 18L37 19L38 19L38 18L39 18L39 19L40 19L40 18L41 18L41 16L40 16L40 18L39 18L39 16L38 16L38 15L37 15L37 13L36 13L36 15L37 15L37 16L38 16L38 18L37 18L37 17L36 17L36 16L35 16L35 17L34 17L34 16L33 16L33 17L30 17L30 16L29 16L29 15L28 15L28 16L29 16L29 17L30 17L30 19L31 19L31 18L32 18L32 19L33 19L33 18L34 18L34 19L35 19L35 21L34 21L34 20L32 20L32 21L31 21L31 20L30 20L30 21L28 21L28 20L26 20L26 19L29 19L29 18L27 18L27 17L26 17L26 19L25 19L25 14L24 14L24 15L23 15L23 12L25 12L25 10L24 10L24 11L23 11L23 10L22 10L22 11L20 11L20 10L18 10L18 11L19 11L19 12L18 12L18 13L17 13L17 14L15 14L15 16L16 16L16 19L15 19L15 18L14 18L14 15L11 15L11 14L13 14L13 13L12 13L12 12L13 12L13 11L12 11L12 10L15 10L15 11L14 11L14 12L15 12L15 11L16 11L16 12L17 12L17 11L16 11L16 9L14 9L14 8L15 8L15 6L16 6L16 8L17 8L17 6L18 6L18 7L19 7L19 6L18 6L18 5L19 5L19 4L20 4L20 2L18 2L18 1L21 1L21 2L22 2L22 3L21 3L21 5L20 5L20 8L18 8L18 9L21 9L21 6L22 6L22 7L23 7L23 8L24 8L24 9L25 9L25 8L24 8L24 7L25 7L25 5L24 5L24 3L25 3L25 2L22 2L22 1L23 1L23 0ZM24 0L24 1L25 1L25 0ZM26 0L26 1L27 1L27 2L26 2L26 3L28 3L28 4L29 4L29 3L31 3L31 2L30 2L30 1L32 1L32 4L30 4L30 5L29 5L29 6L28 6L28 5L27 5L27 4L26 4L26 5L27 5L27 6L26 6L26 9L29 9L29 10L30 10L30 12L29 12L29 13L28 13L28 12L27 12L27 13L26 13L26 14L29 14L29 13L30 13L30 14L31 14L31 13L33 13L33 14L32 14L32 15L34 15L34 13L35 13L35 12L38 12L38 11L39 11L39 13L40 13L40 14L39 14L39 15L40 15L40 14L41 14L41 12L40 12L40 10L41 10L41 8L38 8L38 9L40 9L40 10L37 10L37 9L36 9L36 8L29 8L29 6L30 6L30 7L31 7L31 5L32 5L32 7L33 7L33 5L32 5L32 4L33 4L33 0L29 0L29 1L27 1L27 0ZM15 1L15 2L16 2L16 3L17 3L17 4L16 4L16 5L18 5L18 4L19 4L19 3L17 3L17 1ZM22 3L22 5L23 5L23 3ZM9 6L9 8L11 8L11 7L12 7L12 8L14 8L14 6L13 6L13 7L12 7L12 6L11 6L11 7L10 7L10 6ZM23 6L23 7L24 7L24 6ZM27 6L27 7L28 7L28 6ZM4 9L4 10L5 10L5 12L3 12L3 13L2 13L2 14L1 14L1 15L4 15L4 16L3 16L3 17L4 17L4 18L5 18L5 17L4 17L4 16L7 16L7 15L5 15L5 14L7 14L7 13L5 13L5 12L8 12L8 11L6 11L6 10L5 10L5 9ZM9 9L9 10L10 10L10 11L9 11L9 12L12 12L12 11L11 11L11 10L12 10L12 9L11 9L11 10L10 10L10 9ZM30 9L30 10L31 10L31 12L33 12L33 13L34 13L34 12L33 12L33 11L34 11L34 10L33 10L33 9L32 9L32 10L31 10L31 9ZM26 10L26 11L28 11L28 10ZM36 10L36 11L37 11L37 10ZM4 13L4 14L5 14L5 13ZM8 13L8 17L6 17L6 18L8 18L8 17L9 17L9 18L10 18L10 19L11 19L11 20L8 20L8 19L6 19L6 20L7 20L7 21L10 21L10 22L13 22L13 23L12 23L12 24L11 24L11 25L13 25L13 26L15 26L15 27L14 27L14 28L12 28L12 26L10 26L10 27L11 27L11 30L10 30L10 29L6 29L6 30L10 30L10 31L11 31L11 32L12 32L12 33L11 33L11 34L12 34L12 33L13 33L13 34L14 34L14 33L15 33L15 32L14 32L14 31L13 31L13 30L12 30L12 29L14 29L14 28L16 28L16 26L17 26L17 24L16 24L16 23L15 23L15 19L14 19L14 18L12 18L12 17L13 17L13 16L11 16L11 15L10 15L10 13ZM18 13L18 14L17 14L17 16L19 16L19 17L21 17L21 18L20 18L20 19L19 19L19 20L20 20L20 19L21 19L21 22L22 22L22 20L23 20L23 22L24 22L24 23L25 23L25 22L26 22L26 21L24 21L24 20L25 20L25 19L24 19L24 17L23 17L23 18L22 18L22 16L23 16L23 15L22 15L22 14L21 14L21 15L20 15L20 13ZM9 15L9 17L10 17L10 15ZM17 17L17 19L16 19L16 20L17 20L17 21L16 21L16 22L19 22L19 21L18 21L18 17ZM13 19L13 22L14 22L14 19ZM23 19L23 20L24 20L24 19ZM11 20L11 21L12 21L12 20ZM40 20L40 21L41 21L41 20ZM27 21L27 22L28 22L28 23L27 23L27 24L28 24L28 25L27 25L27 26L28 26L28 25L29 25L29 24L30 24L30 25L32 25L32 26L34 26L34 25L35 25L35 26L36 26L36 25L35 25L35 24L36 24L36 23L35 23L35 22L36 22L36 21L35 21L35 22L34 22L34 21L32 21L32 22L31 22L31 21L30 21L30 22L28 22L28 21ZM30 22L30 23L31 23L31 22ZM20 23L20 24L19 24L19 25L20 25L20 24L21 24L21 23ZM28 23L28 24L29 24L29 23ZM33 23L33 24L32 24L32 25L34 25L34 24L35 24L35 23ZM1 24L1 26L2 26L2 24ZM6 25L6 26L7 26L7 25ZM15 25L15 26L16 26L16 25ZM20 27L20 28L21 28L21 27ZM0 29L0 33L1 33L1 29ZM28 29L28 30L30 30L30 29ZM31 29L31 30L32 30L32 29ZM3 30L3 31L4 31L4 32L5 32L5 31L4 31L4 30ZM6 31L6 32L7 32L7 31ZM8 31L8 32L9 32L9 31ZM12 31L12 32L13 32L13 31ZM28 31L28 33L27 33L27 32L26 32L26 34L28 34L28 33L29 33L29 32L30 32L30 31ZM37 32L37 33L38 33L38 34L37 34L37 36L39 36L39 33L38 33L38 32ZM20 33L20 34L21 34L21 36L20 36L20 37L21 37L21 39L22 39L22 40L23 40L23 39L22 39L22 37L23 37L23 38L24 38L24 37L25 37L25 36L22 36L22 34L21 34L21 33ZM30 33L30 35L31 35L31 34L32 34L32 33ZM33 33L33 36L36 36L36 33ZM34 34L34 35L35 35L35 34ZM13 35L13 36L14 36L14 35ZM28 35L28 37L29 37L29 38L30 38L30 37L32 37L32 36L29 36L29 35ZM21 36L21 37L22 37L22 36ZM34 37L34 38L36 38L36 37ZM37 38L37 39L38 39L38 38ZM14 39L14 41L16 41L16 40L17 40L17 39L16 39L16 40L15 40L15 39ZM18 40L18 41L19 41L19 40ZM27 40L27 41L28 41L28 40ZM0 0L0 7L7 7L7 0ZM1 1L1 6L6 6L6 1ZM2 2L2 5L5 5L5 2ZM34 0L34 7L41 7L41 0ZM35 1L35 6L40 6L40 1ZM36 2L36 5L39 5L39 2ZM0 34L0 41L7 41L7 34ZM1 35L1 40L6 40L6 35ZM2 36L2 39L5 39L5 36Z" fill="#000000"/></g></g></svg>
