<?xml version="1.0" encoding="UTF-8"?>
<svg xmlns="http://www.w3.org/2000/svg" version="1.1" width="200" height="200" viewBox="0 0 200 200"><rect x="0" y="0" width="200" height="200" fill="#ffffff"/><g transform="scale(6.897)"><g transform="translate(0,0)"><path fill-rule="evenodd" d="M11 0L11 1L10 1L10 2L9 2L9 1L8 1L8 7L9 7L9 5L10 5L10 7L11 7L11 5L13 5L13 4L12 4L12 2L11 2L11 1L15 1L15 2L16 2L16 5L15 5L15 4L14 4L14 8L15 8L15 9L13 9L13 6L12 6L12 9L9 9L9 8L5 8L5 11L7 11L7 12L6 12L6 13L5 13L5 14L6 14L6 15L7 15L7 14L8 14L8 11L7 11L7 10L6 10L6 9L9 9L9 10L10 10L10 11L9 11L9 15L10 15L10 16L12 16L12 17L11 17L11 19L10 19L10 17L9 17L9 20L8 20L8 24L9 24L9 25L10 25L10 26L8 26L8 27L10 27L10 28L9 28L9 29L11 29L11 27L12 27L12 28L14 28L14 27L15 27L15 29L17 29L17 28L19 28L19 26L20 26L20 27L21 27L21 29L22 29L22 28L24 28L24 29L25 29L25 28L24 28L24 26L23 26L23 27L22 27L22 26L21 26L21 25L25 25L25 26L26 26L26 25L28 25L28 24L29 24L29 22L28 22L28 21L27 21L27 18L28 18L28 19L29 19L29 18L28 18L28 17L29 17L29 16L27 16L27 17L25 17L25 16L22 16L22 15L25 15L25 14L26 14L26 13L27 13L27 15L29 15L29 14L28 14L28 13L29 13L29 12L27 12L27 11L29 11L29 9L28 9L28 8L23 8L23 10L22 10L22 11L21 11L21 9L22 9L22 8L21 8L21 0L19 0L19 1L20 1L20 2L19 2L19 3L20 3L20 5L19 5L19 4L18 4L18 5L17 5L17 3L18 3L18 2L17 2L17 1L18 1L18 0L17 0L17 1L15 1L15 0ZM10 2L10 3L11 3L11 2ZM13 2L13 3L14 3L14 2ZM16 5L16 6L15 6L15 7L16 7L16 6L17 6L17 7L18 7L18 9L17 9L17 8L16 8L16 9L17 9L17 10L19 10L19 11L17 11L17 13L16 13L16 15L15 15L15 17L16 17L16 15L17 15L17 14L18 14L18 16L17 16L17 17L18 17L18 16L20 16L20 17L19 17L19 18L18 18L18 19L19 19L19 20L22 20L22 19L21 19L21 15L19 15L19 14L22 14L22 12L21 12L21 13L20 13L20 12L19 12L19 11L20 11L20 9L19 9L19 7L20 7L20 6L19 6L19 7L18 7L18 6L17 6L17 5ZM2 8L2 9L1 9L1 11L0 11L0 16L2 16L2 17L3 17L3 18L0 18L0 19L2 19L2 20L0 20L0 21L3 21L3 19L4 19L4 18L5 18L5 17L7 17L7 18L6 18L6 19L5 19L5 20L4 20L4 21L5 21L5 20L6 20L6 21L7 21L7 20L6 20L6 19L8 19L8 16L5 16L5 15L2 15L2 14L4 14L4 13L2 13L2 14L1 14L1 11L2 11L2 9L3 9L3 8ZM12 9L12 10L11 10L11 11L10 11L10 12L11 12L11 13L12 13L12 15L13 15L13 14L15 14L15 13L13 13L13 12L16 12L16 10L13 10L13 9ZM25 9L25 10L24 10L24 11L26 11L26 10L28 10L28 9ZM3 10L3 11L4 11L4 10ZM12 11L12 12L13 12L13 11ZM18 12L18 14L19 14L19 12ZM23 12L23 14L25 14L25 13L24 13L24 12ZM6 13L6 14L7 14L7 13ZM3 16L3 17L4 17L4 16ZM13 16L13 17L14 17L14 16ZM22 17L22 18L25 18L25 19L23 19L23 20L25 20L25 19L26 19L26 18L25 18L25 17ZM14 18L14 20L13 20L13 19L11 19L11 20L9 20L9 21L10 21L10 23L11 23L11 20L12 20L12 21L14 21L14 20L15 20L15 18ZM19 18L19 19L20 19L20 18ZM16 20L16 21L15 21L15 22L14 22L14 25L15 25L15 24L16 24L16 23L15 23L15 22L16 22L16 21L17 21L17 22L18 22L18 23L19 23L19 24L18 24L18 25L19 25L19 24L20 24L20 23L19 23L19 22L20 22L20 21L19 21L19 22L18 22L18 21L17 21L17 20ZM21 21L21 24L24 24L24 21ZM26 21L26 23L25 23L25 25L26 25L26 24L27 24L27 21ZM12 22L12 24L10 24L10 25L12 25L12 26L13 26L13 27L14 27L14 26L13 26L13 22ZM22 22L22 23L23 23L23 22ZM16 25L16 28L17 28L17 27L18 27L18 26L17 26L17 25ZM10 26L10 27L11 27L11 26ZM27 26L27 27L28 27L28 28L26 28L26 29L29 29L29 26ZM0 0L0 7L7 7L7 0ZM1 1L1 6L6 6L6 1ZM2 2L2 5L5 5L5 2ZM22 0L22 7L29 7L29 0ZM23 1L23 6L28 6L28 1ZM24 2L24 5L27 5L27 2ZM0 22L0 29L7 29L7 22ZM1 23L1 28L6 28L6 23ZM2 24L2 27L5 27L5 24Z" fill="#000000"/></g></g></svg>
