<?xml version="1.0" encoding="UTF-8"?>
<svg xmlns="http://www.w3.org/2000/svg" version="1.1" width="200" height="200" viewBox="0 0 200 200"><rect x="0" y="0" width="200" height="200" fill="#ffffff"/><g transform="scale(6.897)"><g transform="translate(0,0)"><path fill-rule="evenodd" d="M8 0L8 1L9 1L9 0ZM10 0L10 2L9 2L9 3L8 3L8 4L9 4L9 5L10 5L10 7L11 7L11 2L12 2L12 4L14 4L14 5L13 5L13 6L12 6L12 8L13 8L13 6L14 6L14 10L13 10L13 9L11 9L11 10L10 10L10 8L8 8L8 9L9 9L9 10L6 10L6 9L7 9L7 8L4 8L4 9L3 9L3 8L2 8L2 11L1 11L1 14L0 14L0 15L1 15L1 14L2 14L2 13L3 13L3 14L4 14L4 12L3 12L3 11L4 11L4 9L5 9L5 12L6 12L6 13L5 13L5 14L6 14L6 15L8 15L8 14L9 14L9 15L10 15L10 12L9 12L9 11L12 11L12 10L13 10L13 12L11 12L11 13L13 13L13 14L14 14L14 15L16 15L16 14L15 14L15 13L17 13L17 14L18 14L18 13L17 13L17 12L18 12L18 9L17 9L17 6L16 6L16 10L15 10L15 6L14 6L14 5L18 5L18 7L19 7L19 5L20 5L20 7L21 7L21 0L20 0L20 1L19 1L19 2L20 2L20 3L19 3L19 4L18 4L18 3L17 3L17 2L18 2L18 1L17 1L17 0L16 0L16 3L15 3L15 2L13 2L13 0ZM14 0L14 1L15 1L15 0ZM9 3L9 4L10 4L10 3ZM8 6L8 7L9 7L9 6ZM19 8L19 11L20 11L20 12L19 12L19 14L20 14L20 15L17 15L17 16L16 16L16 20L14 20L14 18L15 18L15 17L14 17L14 16L11 16L11 17L8 17L8 18L4 18L4 17L3 17L3 16L5 16L5 15L3 15L3 16L2 16L2 17L1 17L1 16L0 16L0 17L1 17L1 18L0 18L0 19L1 19L1 20L0 20L0 21L1 21L1 20L2 20L2 19L1 19L1 18L4 18L4 19L3 19L3 21L4 21L4 20L5 20L5 21L7 21L7 20L8 20L8 22L9 22L9 23L8 23L8 25L9 25L9 26L8 26L8 27L10 27L10 28L9 28L9 29L11 29L11 27L12 27L12 29L13 29L13 26L14 26L14 24L15 24L15 27L14 27L14 29L16 29L16 28L15 28L15 27L16 27L16 25L19 25L19 26L18 26L18 28L17 28L17 29L20 29L20 25L21 25L21 26L22 26L22 25L23 25L23 26L24 26L24 25L27 25L27 26L28 26L28 27L27 27L27 28L28 28L28 29L29 29L29 26L28 26L28 25L29 25L29 24L26 24L26 23L25 23L25 20L26 20L26 21L28 21L28 22L27 22L27 23L29 23L29 21L28 21L28 19L29 19L29 18L27 18L27 17L26 17L26 14L24 14L24 13L25 13L25 11L26 11L26 13L27 13L27 12L28 12L28 14L29 14L29 12L28 12L28 11L29 11L29 8L28 8L28 9L27 9L27 10L25 10L25 9L26 9L26 8L25 8L25 9L24 9L24 10L25 10L25 11L24 11L24 12L23 12L23 10L22 10L22 8ZM14 10L14 11L15 11L15 12L13 12L13 13L15 13L15 12L17 12L17 10L16 10L16 11L15 11L15 10ZM27 10L27 11L28 11L28 10ZM6 11L6 12L7 12L7 13L6 13L6 14L8 14L8 11ZM21 11L21 12L22 12L22 11ZM20 13L20 14L21 14L21 15L20 15L20 16L19 16L19 17L20 17L20 18L17 18L17 19L20 19L20 20L19 20L19 21L20 21L20 20L21 20L21 19L22 19L22 18L23 18L23 19L24 19L24 20L25 20L25 19L24 19L24 18L26 18L26 20L27 20L27 18L26 18L26 17L24 17L24 16L25 16L25 15L24 15L24 14L23 14L23 15L22 15L22 14L21 14L21 13ZM11 14L11 15L12 15L12 14ZM23 15L23 16L22 16L22 17L23 17L23 18L24 18L24 17L23 17L23 16L24 16L24 15ZM27 15L27 16L28 16L28 17L29 17L29 16L28 16L28 15ZM6 16L6 17L7 17L7 16ZM11 17L11 19L9 19L9 18L8 18L8 19L9 19L9 21L12 21L12 22L11 22L11 26L10 26L10 27L11 27L11 26L12 26L12 25L13 25L13 24L14 24L14 23L12 23L12 22L13 22L13 21L12 21L12 20L13 20L13 19L12 19L12 17ZM13 17L13 18L14 18L14 17ZM6 19L6 20L7 20L7 19ZM17 20L17 21L16 21L16 23L17 23L17 24L19 24L19 23L17 23L17 21L18 21L18 20ZM21 21L21 24L24 24L24 21ZM22 22L22 23L23 23L23 22ZM9 23L9 25L10 25L10 23ZM25 26L25 28L23 28L23 27L22 27L22 28L23 28L23 29L26 29L26 26ZM0 0L0 7L7 7L7 0ZM1 1L1 6L6 6L6 1ZM2 2L2 5L5 5L5 2ZM22 0L22 7L29 7L29 0ZM23 1L23 6L28 6L28 1ZM24 2L24 5L27 5L27 2ZM0 22L0 29L7 29L7 22ZM1 23L1 28L6 28L6 23ZM2 24L2 27L5 27L5 24Z" fill="#000000"/></g></g></svg>
