<?xml version="1.0" encoding="UTF-8"?>
<svg xmlns="http://www.w3.org/2000/svg" version="1.1" width="200" height="200" viewBox="0 0 200 200"><rect x="0" y="0" width="200" height="200" fill="#ffffff"/><g transform="scale(4.878)"><g transform="translate(0,0)"><path fill-rule="evenodd" d="M8 0L8 3L9 3L9 5L8 5L8 9L7 9L7 8L6 8L6 9L5 9L5 8L2 8L2 9L1 9L1 11L0 11L0 17L2 17L2 16L1 16L1 15L5 15L5 16L6 16L6 17L5 17L5 18L4 18L4 19L3 19L3 20L1 20L1 22L0 22L0 23L4 23L4 24L5 24L5 23L4 23L4 22L3 22L3 21L4 21L4 20L5 20L5 21L9 21L9 22L6 22L6 23L7 23L7 24L6 24L6 25L4 25L4 26L3 26L3 27L2 27L2 26L1 26L1 25L2 25L2 24L0 24L0 26L1 26L1 27L2 27L2 29L4 29L4 30L5 30L5 29L7 29L7 30L6 30L6 31L5 31L5 32L4 32L4 33L5 33L5 32L6 32L6 33L7 33L7 32L8 32L8 34L9 34L9 36L8 36L8 39L12 39L12 38L13 38L13 39L14 39L14 38L15 38L15 40L10 40L10 41L18 41L18 40L16 40L16 38L17 38L17 39L19 39L19 40L21 40L21 41L23 41L23 40L24 40L24 39L26 39L26 40L28 40L28 39L31 39L31 37L30 37L30 38L27 38L27 37L29 37L29 36L31 36L31 35L32 35L32 37L36 37L36 38L33 38L33 39L32 39L32 40L31 40L31 41L32 41L32 40L33 40L33 41L34 41L34 40L33 40L33 39L35 39L35 40L36 40L36 39L37 39L37 40L40 40L40 38L41 38L41 37L40 37L40 36L37 36L37 34L38 34L38 33L39 33L39 35L40 35L40 34L41 34L41 33L39 33L39 32L40 32L40 30L41 30L41 29L40 29L40 26L41 26L41 23L39 23L39 24L40 24L40 26L39 26L39 25L34 25L34 24L33 24L33 23L34 23L34 22L35 22L35 23L36 23L36 24L37 24L37 23L38 23L38 22L37 22L37 21L39 21L39 20L36 20L36 19L35 19L35 17L36 17L36 18L37 18L37 17L36 17L36 16L38 16L38 17L39 17L39 16L38 16L38 15L40 15L40 14L41 14L41 13L40 13L40 12L39 12L39 13L40 13L40 14L38 14L38 13L36 13L36 14L37 14L37 15L35 15L35 17L34 17L34 16L32 16L32 17L31 17L31 10L34 10L34 11L32 11L32 13L33 13L33 14L32 14L32 15L34 15L34 13L35 13L35 12L38 12L38 11L40 11L40 10L41 10L41 8L38 8L38 9L40 9L40 10L37 10L37 9L36 9L36 8L33 8L33 9L30 9L30 8L31 8L31 6L30 6L30 5L32 5L32 7L33 7L33 5L32 5L32 4L33 4L33 3L32 3L32 2L30 2L30 0L29 0L29 1L27 1L27 0L26 0L26 1L27 1L27 2L26 2L26 3L28 3L28 4L29 4L29 3L32 3L32 4L30 4L30 5L29 5L29 6L28 6L28 5L27 5L27 4L24 4L24 3L25 3L25 0L24 0L24 1L23 1L23 0L22 0L22 1L21 1L21 0L18 0L18 1L17 1L17 0L16 0L16 1L15 1L15 0L13 0L13 1L15 1L15 2L14 2L14 3L13 3L13 2L12 2L12 0L10 0L10 1L9 1L9 0ZM31 0L31 1L32 1L32 0ZM10 1L10 2L11 2L11 3L10 3L10 5L11 5L11 4L13 4L13 5L12 5L12 6L11 6L11 7L10 7L10 6L9 6L9 8L10 8L10 10L11 10L11 11L12 11L12 12L10 12L10 11L9 11L9 12L7 12L7 11L8 11L8 10L7 10L7 9L6 9L6 10L5 10L5 9L3 9L3 10L2 10L2 12L1 12L1 13L2 13L2 14L5 14L5 15L6 15L6 16L7 16L7 17L6 17L6 18L7 18L7 17L8 17L8 18L9 18L9 19L8 19L8 20L9 20L9 21L10 21L10 22L9 22L9 24L10 24L10 26L8 26L8 24L7 24L7 25L6 25L6 26L5 26L5 27L3 27L3 28L7 28L7 29L8 29L8 30L7 30L7 31L6 31L6 32L7 32L7 31L8 31L8 32L10 32L10 33L9 33L9 34L11 34L11 33L13 33L13 32L10 32L10 30L12 30L12 28L15 28L15 26L16 26L16 27L17 27L17 28L16 28L16 29L14 29L14 32L15 32L15 34L13 34L13 35L14 35L14 37L13 37L13 36L12 36L12 35L10 35L10 36L9 36L9 37L10 37L10 38L12 38L12 37L13 37L13 38L14 38L14 37L15 37L15 38L16 38L16 37L17 37L17 35L15 35L15 34L17 34L17 33L19 33L19 32L21 32L21 33L20 33L20 34L19 34L19 38L20 38L20 34L21 34L21 36L22 36L22 35L23 35L23 36L24 36L24 37L25 37L25 38L26 38L26 39L27 39L27 38L26 38L26 37L25 37L25 32L24 32L24 31L23 31L23 29L24 29L24 30L27 30L27 27L25 27L25 28L22 28L22 27L21 27L21 31L19 31L19 30L20 30L20 28L19 28L19 29L18 29L18 27L17 27L17 26L16 26L16 24L17 24L17 25L19 25L19 26L21 26L21 25L22 25L22 26L23 26L23 27L24 27L24 26L23 26L23 25L24 25L24 24L25 24L25 26L26 26L26 25L27 25L27 26L29 26L29 28L31 28L31 29L28 29L28 30L32 30L32 31L33 31L33 32L36 32L36 31L34 31L34 30L35 30L35 29L37 29L37 30L38 30L38 32L37 32L37 33L38 33L38 32L39 32L39 26L38 26L38 28L35 28L35 27L37 27L37 26L34 26L34 25L32 25L32 23L33 23L33 22L34 22L34 21L35 21L35 22L36 22L36 21L35 21L35 19L34 19L34 18L33 18L33 17L32 17L32 18L31 18L31 17L29 17L29 16L30 16L30 13L29 13L29 12L30 12L30 11L29 11L29 10L30 10L30 9L27 9L27 10L26 10L26 8L25 8L25 7L26 7L26 6L27 6L27 7L28 7L28 6L27 6L27 5L24 5L24 4L23 4L23 3L24 3L24 2L22 2L22 3L21 3L21 2L20 2L20 1L18 1L18 2L17 2L17 1L16 1L16 2L17 2L17 3L15 3L15 4L16 4L16 5L14 5L14 4L13 4L13 3L12 3L12 2L11 2L11 1ZM17 3L17 4L18 4L18 5L22 5L22 8L21 8L21 9L20 9L20 11L21 11L21 12L22 12L22 11L21 11L21 9L23 9L23 5L22 5L22 4L21 4L21 3ZM13 5L13 6L12 6L12 8L14 8L14 7L15 7L15 6L14 6L14 5ZM16 5L16 7L17 7L17 9L18 9L18 10L19 10L19 8L20 8L20 7L21 7L21 6L20 6L20 7L19 7L19 6L18 6L18 7L17 7L17 5ZM13 6L13 7L14 7L14 6ZM24 6L24 7L25 7L25 6ZM29 6L29 8L30 8L30 6ZM15 8L15 9L16 9L16 8ZM24 8L24 10L23 10L23 11L24 11L24 10L25 10L25 8ZM11 9L11 10L13 10L13 11L14 11L14 13L13 13L13 12L12 12L12 13L13 13L13 15L12 15L12 14L10 14L10 12L9 12L9 14L8 14L8 15L7 15L7 14L6 14L6 15L7 15L7 16L8 16L8 17L9 17L9 18L11 18L11 19L9 19L9 20L11 20L11 21L12 21L12 17L11 17L11 16L14 16L14 17L13 17L13 20L14 20L14 19L15 19L15 20L16 20L16 19L17 19L17 18L16 18L16 15L17 15L17 13L18 13L18 12L17 12L17 13L16 13L16 12L15 12L15 11L16 11L16 10L15 10L15 11L14 11L14 9ZM3 10L3 12L4 12L4 11L5 11L5 10ZM6 10L6 11L7 11L7 10ZM27 10L27 11L25 11L25 12L24 12L24 13L22 13L22 14L23 14L23 15L22 15L22 16L23 16L23 17L22 17L22 18L21 18L21 17L20 17L20 16L17 16L17 17L18 17L18 18L19 18L19 20L17 20L17 21L15 21L15 22L14 22L14 21L13 21L13 22L14 22L14 23L13 23L13 24L11 24L11 25L13 25L13 24L14 24L14 26L13 26L13 27L14 27L14 26L15 26L15 22L16 22L16 23L17 23L17 24L18 24L18 23L17 23L17 22L19 22L19 20L20 20L20 21L22 21L22 22L20 22L20 23L19 23L19 25L20 25L20 24L22 24L22 25L23 25L23 24L22 24L22 23L25 23L25 21L28 21L28 22L26 22L26 23L27 23L27 25L29 25L29 26L30 26L30 25L31 25L31 26L32 26L32 28L33 28L33 29L32 29L32 30L33 30L33 29L34 29L34 28L33 28L33 27L34 27L34 26L32 26L32 25L31 25L31 22L33 22L33 21L34 21L34 20L33 20L33 19L32 19L32 20L33 20L33 21L31 21L31 20L30 20L30 21L31 21L31 22L29 22L29 21L28 21L28 20L29 20L29 19L28 19L28 18L27 18L27 16L26 16L26 18L25 18L25 17L24 17L24 16L25 16L25 15L26 15L26 12L27 12L27 14L29 14L29 13L28 13L28 12L27 12L27 11L28 11L28 10ZM35 10L35 11L37 11L37 10ZM5 12L5 13L7 13L7 12ZM33 12L33 13L34 13L34 12ZM9 14L9 15L8 15L8 16L9 16L9 17L10 17L10 16L11 16L11 15L10 15L10 14ZM14 14L14 16L15 16L15 14ZM19 14L19 15L20 15L20 14ZM24 14L24 15L25 15L25 14ZM28 15L28 16L29 16L29 15ZM40 16L40 18L39 18L39 19L40 19L40 18L41 18L41 16ZM14 17L14 18L15 18L15 17ZM19 17L19 18L20 18L20 17ZM23 18L23 20L22 20L22 21L24 21L24 20L26 20L26 19L27 19L27 20L28 20L28 19L27 19L27 18L26 18L26 19L24 19L24 18ZM30 18L30 19L31 19L31 18ZM5 19L5 20L7 20L7 19ZM40 20L40 21L41 21L41 20ZM10 22L10 23L11 23L11 22ZM28 22L28 24L30 24L30 23L29 23L29 22ZM6 26L6 27L7 27L7 28L8 28L8 27L7 27L7 26ZM11 26L11 27L10 27L10 28L11 28L11 27L12 27L12 26ZM0 29L0 33L1 33L1 29ZM9 29L9 30L8 30L8 31L9 31L9 30L10 30L10 29ZM16 29L16 30L15 30L15 31L16 31L16 32L18 32L18 29ZM2 31L2 32L3 32L3 31ZM22 31L22 32L23 32L23 33L21 33L21 34L23 34L23 35L24 35L24 32L23 32L23 31ZM28 31L28 32L30 32L30 33L31 33L31 31ZM26 33L26 34L29 34L29 33ZM33 33L33 36L36 36L36 33ZM30 34L30 35L31 35L31 34ZM34 34L34 35L35 35L35 34ZM28 35L28 36L29 36L29 35ZM15 36L15 37L16 37L16 36ZM21 37L21 38L22 38L22 39L21 39L21 40L22 40L22 39L23 39L23 37ZM37 38L37 39L38 39L38 38ZM29 40L29 41L30 41L30 40ZM0 0L0 7L7 7L7 0ZM1 1L1 6L6 6L6 1ZM2 2L2 5L5 5L5 2ZM34 0L34 7L41 7L41 0ZM35 1L35 6L40 6L40 1ZM36 2L36 5L39 5L39 2ZM0 34L0 41L7 41L7 34ZM1 35L1 40L6 40L6 35ZM2 36L2 39L5 39L5 36Z" fill="#000000"/></g></g></svg>
