<?xml version="1.0" encoding="UTF-8"?>
<svg xmlns="http://www.w3.org/2000/svg" version="1.1" width="200" height="200" viewBox="0 0 200 200"><rect x="0" y="0" width="200" height="200" fill="#ffffff"/><g transform="scale(4.878)"><g transform="translate(0,0)"><path fill-rule="evenodd" d="M8 0L8 3L9 3L9 1L12 1L12 0ZM15 0L15 1L16 1L16 4L15 4L15 2L11 2L11 3L10 3L10 5L8 5L8 9L7 9L7 8L6 8L6 9L7 9L7 10L5 10L5 8L2 8L2 10L1 10L1 11L0 11L0 13L2 13L2 12L3 12L3 14L4 14L4 15L5 15L5 17L7 17L7 18L5 18L5 19L4 19L4 18L3 18L3 17L4 17L4 16L3 16L3 15L1 15L1 14L0 14L0 17L2 17L2 18L3 18L3 20L6 20L6 21L7 21L7 22L6 22L6 23L7 23L7 24L6 24L6 25L5 25L5 24L3 24L3 22L4 22L4 23L5 23L5 21L3 21L3 22L2 22L2 19L1 19L1 20L0 20L0 21L1 21L1 22L2 22L2 23L1 23L1 24L0 24L0 33L1 33L1 30L2 30L2 31L3 31L3 28L6 28L6 29L7 29L7 30L6 30L6 31L5 31L5 32L4 32L4 33L5 33L5 32L6 32L6 33L8 33L8 34L9 34L9 36L8 36L8 39L9 39L9 41L11 41L11 40L10 40L10 39L9 39L9 38L10 38L10 36L11 36L11 37L12 37L12 38L11 38L11 39L12 39L12 40L14 40L14 41L15 41L15 39L16 39L16 38L17 38L17 39L18 39L18 38L20 38L20 39L19 39L19 40L18 40L18 41L25 41L25 40L27 40L27 41L32 41L32 40L33 40L33 41L34 41L34 40L33 40L33 39L32 39L32 38L34 38L34 39L35 39L35 40L36 40L36 39L37 39L37 40L40 40L40 38L41 38L41 37L39 37L39 36L40 36L40 34L41 34L41 33L40 33L40 32L37 32L37 29L35 29L35 30L34 30L34 31L35 31L35 30L36 30L36 32L33 32L33 31L32 31L32 30L33 30L33 29L34 29L34 28L33 28L33 27L34 27L34 26L35 26L35 27L36 27L36 28L38 28L38 26L39 26L39 27L40 27L40 28L41 28L41 27L40 27L40 26L41 26L41 23L39 23L39 22L38 22L38 21L39 21L39 20L36 20L36 19L35 19L35 17L36 17L36 18L37 18L37 17L36 17L36 16L38 16L38 18L39 18L39 19L40 19L40 18L41 18L41 16L40 16L40 18L39 18L39 16L38 16L38 15L37 15L37 13L36 13L36 14L35 14L35 15L36 15L36 16L35 16L35 17L34 17L34 16L33 16L33 17L31 17L31 12L32 12L32 13L33 13L33 14L32 14L32 15L34 15L34 13L35 13L35 11L36 11L36 12L38 12L38 11L39 11L39 13L38 13L38 14L39 14L39 15L40 15L40 14L41 14L41 12L40 12L40 10L41 10L41 8L38 8L38 9L40 9L40 10L37 10L37 9L36 9L36 8L32 8L32 7L33 7L33 6L32 6L32 7L31 7L31 5L32 5L32 4L33 4L33 2L30 2L30 1L33 1L33 0L29 0L29 1L27 1L27 0L26 0L26 1L27 1L27 2L26 2L26 3L28 3L28 4L29 4L29 3L32 3L32 4L30 4L30 7L31 7L31 8L29 8L29 6L28 6L28 5L27 5L27 4L25 4L25 5L24 5L24 7L25 7L25 10L24 10L24 11L23 11L23 9L24 9L24 8L22 8L22 7L23 7L23 6L22 6L22 7L21 7L21 4L22 4L22 5L23 5L23 4L24 4L24 3L25 3L25 2L24 2L24 0L23 0L23 1L22 1L22 2L21 2L21 0L20 0L20 2L18 2L18 0L17 0L17 1L16 1L16 0ZM20 2L20 4L19 4L19 5L18 5L18 6L17 6L17 4L16 4L16 5L14 5L14 6L13 6L13 9L10 9L10 10L9 10L9 9L8 9L8 10L7 10L7 11L4 11L4 9L3 9L3 10L2 10L2 11L1 11L1 12L2 12L2 11L3 11L3 12L4 12L4 13L5 13L5 12L7 12L7 13L6 13L6 14L5 14L5 15L6 15L6 16L7 16L7 17L8 17L8 16L9 16L9 11L10 11L10 13L11 13L11 12L14 12L14 13L13 13L13 14L11 14L11 15L12 15L12 17L10 17L10 19L9 19L9 18L8 18L8 19L6 19L6 20L9 20L9 21L8 21L8 22L9 22L9 21L12 21L12 22L11 22L11 23L10 23L10 24L13 24L13 25L14 25L14 24L15 24L15 25L16 25L16 26L12 26L12 29L11 29L11 30L12 30L12 31L10 31L10 28L9 28L9 27L8 27L8 26L9 26L9 24L8 24L8 25L6 25L6 26L5 26L5 25L4 25L4 26L2 26L2 25L3 25L3 24L1 24L1 26L2 26L2 27L1 27L1 28L2 28L2 27L6 27L6 28L7 28L7 27L8 27L8 29L9 29L9 31L8 31L8 32L11 32L11 33L10 33L10 35L13 35L13 36L14 36L14 37L15 37L15 38L16 38L16 37L17 37L17 38L18 38L18 37L20 37L20 36L18 36L18 37L17 37L17 35L18 35L18 34L17 34L17 33L16 33L16 32L17 32L17 31L16 31L16 32L15 32L15 30L16 30L16 29L17 29L17 30L18 30L18 33L19 33L19 34L20 34L20 35L21 35L21 34L22 34L22 35L23 35L23 36L21 36L21 39L20 39L20 40L22 40L22 39L24 39L24 36L25 36L25 35L27 35L27 36L29 36L29 37L26 37L26 38L25 38L25 39L26 39L26 38L29 38L29 39L28 39L28 40L30 40L30 38L29 38L29 37L31 37L31 38L32 38L32 35L31 35L31 34L30 34L30 35L31 35L31 36L29 36L29 35L27 35L27 34L28 34L28 33L29 33L29 32L30 32L30 33L31 33L31 31L28 31L28 33L27 33L27 34L26 34L26 33L25 33L25 32L24 32L24 34L25 34L25 35L23 35L23 33L21 33L21 34L20 34L20 31L19 31L19 30L20 30L20 29L19 29L19 28L18 28L18 27L20 27L20 26L21 26L21 27L22 27L22 26L23 26L23 25L22 25L22 26L21 26L21 25L19 25L19 24L20 24L20 23L19 23L19 24L18 24L18 23L17 23L17 22L19 22L19 19L20 19L20 20L21 20L21 21L20 21L20 22L22 22L22 21L24 21L24 22L25 22L25 21L26 21L26 20L27 20L27 18L29 18L29 20L28 20L28 21L27 21L27 22L26 22L26 26L29 26L29 27L28 27L28 28L30 28L30 29L28 29L28 30L30 30L30 29L31 29L31 30L32 30L32 29L33 29L33 28L31 28L31 27L33 27L33 26L34 26L34 25L39 25L39 26L40 26L40 24L39 24L39 23L37 23L37 24L36 24L36 23L35 23L35 22L36 22L36 21L35 21L35 19L34 19L34 18L31 18L31 17L29 17L29 16L30 16L30 15L29 15L29 14L30 14L30 13L29 13L29 12L31 12L31 11L32 11L32 12L33 12L33 13L34 13L34 12L33 12L33 11L34 11L34 10L33 10L33 9L32 9L32 8L31 8L31 9L27 9L27 8L28 8L28 6L27 6L27 5L25 5L25 7L26 7L26 9L27 9L27 10L31 10L31 11L29 11L29 12L28 12L28 13L29 13L29 14L26 14L26 13L27 13L27 11L24 11L24 12L23 12L23 11L22 11L22 13L20 13L20 14L23 14L23 13L24 13L24 12L26 12L26 13L25 13L25 14L24 14L24 16L23 16L23 15L22 15L22 17L20 17L20 16L19 16L19 18L18 18L18 16L17 16L17 17L16 17L16 18L14 18L14 17L13 17L13 16L16 16L16 14L17 14L17 15L18 15L18 14L19 14L19 11L20 11L20 12L21 12L21 10L22 10L22 9L21 9L21 10L20 10L20 9L19 9L19 11L18 11L18 12L17 12L17 11L16 11L16 12L17 12L17 13L15 13L15 12L14 12L14 11L13 11L13 9L14 9L14 8L15 8L15 10L18 10L18 6L19 6L19 7L20 7L20 6L19 6L19 5L20 5L20 4L21 4L21 2ZM23 2L23 3L22 3L22 4L23 4L23 3L24 3L24 2ZM12 4L12 5L13 5L13 4ZM10 5L10 6L9 6L9 7L10 7L10 6L11 6L11 8L12 8L12 6L11 6L11 5ZM14 6L14 7L15 7L15 8L16 8L16 7L17 7L17 6L16 6L16 7L15 7L15 6ZM26 6L26 7L27 7L27 6ZM31 9L31 10L32 10L32 11L33 11L33 10L32 10L32 9ZM8 10L8 11L9 11L9 10ZM10 10L10 11L11 11L11 10ZM14 13L14 14L13 14L13 15L14 15L14 14L15 14L15 13ZM39 13L39 14L40 14L40 13ZM6 14L6 15L7 15L7 14ZM25 14L25 15L26 15L26 14ZM28 15L28 16L29 16L29 15ZM2 16L2 17L3 17L3 16ZM24 16L24 17L23 17L23 18L22 18L22 20L24 20L24 21L25 21L25 19L24 19L24 18L25 18L25 16ZM12 17L12 18L13 18L13 17ZM17 18L17 19L18 19L18 18ZM20 18L20 19L21 19L21 18ZM30 18L30 19L31 19L31 18ZM10 19L10 20L11 20L11 19ZM14 19L14 20L13 20L13 22L12 22L12 23L13 23L13 22L14 22L14 23L15 23L15 24L16 24L16 23L15 23L15 22L14 22L14 20L16 20L16 19ZM32 19L32 20L33 20L33 21L31 21L31 20L30 20L30 21L31 21L31 22L30 22L30 24L27 24L27 25L29 25L29 26L30 26L30 25L31 25L31 26L32 26L32 25L34 25L34 24L35 24L35 23L34 23L34 22L35 22L35 21L34 21L34 20L33 20L33 19ZM40 20L40 21L41 21L41 20ZM16 21L16 22L17 22L17 21ZM28 21L28 22L27 22L27 23L28 23L28 22L29 22L29 21ZM33 21L33 22L31 22L31 23L32 23L32 24L31 24L31 25L32 25L32 24L33 24L33 22L34 22L34 21ZM21 23L21 24L23 24L23 23ZM17 24L17 25L18 25L18 24ZM10 25L10 27L11 27L11 25ZM24 25L24 27L25 27L25 29L24 29L24 28L21 28L21 29L22 29L22 30L21 30L21 32L22 32L22 31L23 31L23 30L26 30L26 32L27 32L27 30L26 30L26 29L27 29L27 27L25 27L25 25ZM6 26L6 27L7 27L7 26ZM14 27L14 28L13 28L13 29L12 29L12 30L13 30L13 29L14 29L14 30L15 30L15 29L16 29L16 28L15 28L15 27ZM14 28L14 29L15 29L15 28ZM17 28L17 29L18 29L18 30L19 30L19 29L18 29L18 28ZM39 29L39 30L38 30L38 31L40 31L40 30L41 30L41 29ZM6 31L6 32L7 32L7 31ZM12 32L12 33L11 33L11 34L12 34L12 33L14 33L14 36L15 36L15 37L16 37L16 36L15 36L15 35L17 35L17 34L16 34L16 33L14 33L14 32ZM33 33L33 36L36 36L36 33ZM38 33L38 34L39 34L39 33ZM34 34L34 35L35 35L35 34ZM38 35L38 36L37 36L37 37L38 37L38 36L39 36L39 35ZM34 37L34 38L36 38L36 37ZM12 38L12 39L13 39L13 38ZM37 38L37 39L38 39L38 38ZM31 39L31 40L32 40L32 39ZM16 40L16 41L17 41L17 40ZM0 0L0 7L7 7L7 0ZM1 1L1 6L6 6L6 1ZM2 2L2 5L5 5L5 2ZM34 0L34 7L41 7L41 0ZM35 1L35 6L40 6L40 1ZM36 2L36 5L39 5L39 2ZM0 34L0 41L7 41L7 34ZM1 35L1 40L6 40L6 35ZM2 36L2 39L5 39L5 36Z" fill="#000000"/></g></g></svg>
