<?xml version="1.0" encoding="UTF-8"?>
<svg xmlns="http://www.w3.org/2000/svg" version="1.1" width="200" height="200" viewBox="0 0 200 200"><rect x="0" y="0" width="200" height="200" fill="#ffffff"/><g transform="scale(4.878)"><g transform="translate(0,0)"><path fill-rule="evenodd" d="M8 0L8 3L9 3L9 5L8 5L8 10L9 10L9 11L10 11L10 15L9 15L9 14L6 14L6 13L7 13L7 12L8 12L8 11L7 11L7 10L6 10L6 11L7 11L7 12L5 12L5 11L2 11L2 12L4 12L4 13L2 13L2 14L1 14L1 15L0 15L0 16L1 16L1 18L0 18L0 26L3 26L3 27L2 27L2 28L1 28L1 29L0 29L0 33L1 33L1 29L2 29L2 31L3 31L3 32L4 32L4 30L5 30L5 33L8 33L8 34L9 34L9 36L8 36L8 39L9 39L9 36L10 36L10 37L11 37L11 38L10 38L10 40L9 40L9 41L10 41L10 40L11 40L11 39L12 39L12 40L14 40L14 41L15 41L15 40L16 40L16 41L18 41L18 40L19 40L19 39L18 39L18 38L19 38L19 37L20 37L20 38L22 38L22 37L23 37L23 34L22 34L22 33L24 33L24 32L22 32L22 31L21 31L21 30L22 30L22 27L21 27L21 28L20 28L20 29L21 29L21 30L20 30L20 31L21 31L21 32L22 32L22 33L21 33L21 35L22 35L22 37L21 37L21 36L20 36L20 35L19 35L19 36L18 36L18 35L17 35L17 36L16 36L16 37L15 37L15 36L13 36L13 35L15 35L15 33L16 33L16 32L17 32L17 31L16 31L16 32L15 32L15 30L14 30L14 29L13 29L13 30L14 30L14 32L15 32L15 33L12 33L12 29L11 29L11 31L10 31L10 30L9 30L9 31L10 31L10 34L9 34L9 33L8 33L8 31L7 31L7 30L5 30L5 29L7 29L7 28L6 28L6 27L7 27L7 26L8 26L8 28L9 28L9 27L10 27L10 25L11 25L11 26L13 26L13 27L15 27L15 29L18 29L18 31L19 31L19 29L18 29L18 28L17 28L17 27L18 27L18 25L19 25L19 26L21 26L21 25L24 25L24 23L25 23L25 22L24 22L24 21L26 21L26 22L27 22L27 23L28 23L28 22L27 22L27 21L29 21L29 20L27 20L27 21L26 21L26 20L25 20L25 19L24 19L24 18L25 18L25 16L26 16L26 18L27 18L27 19L29 19L29 18L27 18L27 15L26 15L26 14L29 14L29 13L30 13L30 14L31 14L31 10L32 10L32 13L33 13L33 14L32 14L32 15L34 15L34 13L35 13L35 11L36 11L36 12L38 12L38 11L39 11L39 13L40 13L40 14L39 14L39 15L40 15L40 14L41 14L41 13L40 13L40 10L41 10L41 8L38 8L38 9L40 9L40 10L37 10L37 9L36 9L36 8L32 8L32 7L33 7L33 5L32 5L32 4L33 4L33 2L32 2L32 4L30 4L30 5L29 5L29 6L28 6L28 5L27 5L27 4L24 4L24 3L23 3L23 4L22 4L22 2L19 2L19 3L18 3L18 1L20 1L20 0L18 0L18 1L17 1L17 0L14 0L14 1L13 1L13 2L14 2L14 3L15 3L15 4L13 4L13 6L12 6L12 8L11 8L11 9L10 9L10 7L11 7L11 6L10 6L10 7L9 7L9 5L11 5L11 4L12 4L12 2L9 2L9 1L12 1L12 0ZM23 0L23 1L24 1L24 2L25 2L25 0ZM26 0L26 1L27 1L27 2L26 2L26 3L28 3L28 4L29 4L29 3L31 3L31 2L30 2L30 0L29 0L29 1L27 1L27 0ZM31 0L31 1L32 1L32 0ZM15 1L15 3L16 3L16 5L15 5L15 9L16 9L16 12L15 12L15 13L17 13L17 14L16 14L16 16L14 16L14 15L15 15L15 14L14 14L14 11L13 11L13 10L12 10L12 11L13 11L13 14L14 14L14 15L13 15L13 16L12 16L12 15L11 15L11 16L10 16L10 20L9 20L9 18L8 18L8 20L7 20L7 19L5 19L5 18L4 18L4 17L6 17L6 18L7 18L7 17L9 17L9 15L8 15L8 16L7 16L7 15L5 15L5 16L4 16L4 17L3 17L3 18L4 18L4 20L2 20L2 21L3 21L3 22L4 22L4 24L7 24L7 25L5 25L5 26L4 26L4 27L6 27L6 26L7 26L7 25L8 25L8 26L9 26L9 24L10 24L10 23L12 23L12 24L17 24L17 23L18 23L18 20L16 20L16 16L17 16L17 18L18 18L18 19L20 19L20 20L19 20L19 22L20 22L20 23L19 23L19 24L20 24L20 23L21 23L21 22L23 22L23 23L22 23L22 24L23 24L23 23L24 23L24 22L23 22L23 21L21 21L21 20L22 20L22 19L23 19L23 18L24 18L24 16L25 16L25 15L23 15L23 18L22 18L22 17L21 17L21 19L20 19L20 18L19 18L19 17L20 17L20 16L21 16L21 14L22 14L22 13L21 13L21 14L20 14L20 13L18 13L18 11L17 11L17 10L18 10L18 9L16 9L16 8L19 8L19 11L21 11L21 12L22 12L22 11L24 11L24 13L23 13L23 14L25 14L25 13L27 13L27 11L26 11L26 12L25 12L25 10L26 10L26 9L27 9L27 10L28 10L28 11L29 11L29 12L28 12L28 13L29 13L29 12L30 12L30 11L29 11L29 10L31 10L31 9L32 9L32 10L33 10L33 11L34 11L34 10L33 10L33 9L32 9L32 8L31 8L31 9L27 9L27 8L28 8L28 6L27 6L27 5L26 5L26 6L25 6L25 5L24 5L24 4L23 4L23 7L22 7L22 5L21 5L21 7L22 7L22 8L21 8L21 9L20 9L20 8L19 8L19 7L20 7L20 6L19 6L19 4L18 4L18 6L17 6L17 7L16 7L16 5L17 5L17 3L16 3L16 2L17 2L17 1ZM10 3L10 4L11 4L11 3ZM31 5L31 7L32 7L32 5ZM13 6L13 9L14 9L14 6ZM18 6L18 7L19 7L19 6ZM24 6L24 7L25 7L25 9L26 9L26 7L27 7L27 6L26 6L26 7L25 7L25 6ZM29 6L29 8L30 8L30 6ZM2 8L2 10L4 10L4 9L5 9L5 8ZM6 8L6 9L7 9L7 8ZM22 8L22 9L21 9L21 10L24 10L24 8ZM0 9L0 10L1 10L1 9ZM10 10L10 11L11 11L11 10ZM36 10L36 11L37 11L37 10ZM11 12L11 13L12 13L12 12ZM33 12L33 13L34 13L34 12ZM4 13L4 14L5 14L5 13ZM36 13L36 14L37 14L37 15L35 15L35 17L34 17L34 16L32 16L32 17L30 17L30 16L31 16L31 15L30 15L30 16L29 16L29 15L28 15L28 16L29 16L29 17L30 17L30 19L31 19L31 18L32 18L32 17L33 17L33 18L34 18L34 19L35 19L35 21L34 21L34 20L33 20L33 19L32 19L32 21L31 21L31 20L30 20L30 21L31 21L31 22L32 22L32 23L33 23L33 24L32 24L32 25L30 25L30 24L29 24L29 25L28 25L28 24L27 24L27 25L28 25L28 26L24 26L24 27L23 27L23 29L24 29L24 27L25 27L25 28L26 28L26 27L27 27L27 30L23 30L23 31L25 31L25 34L24 34L24 35L25 35L25 38L26 38L26 39L27 39L27 41L28 41L28 39L32 39L32 40L31 40L31 41L32 41L32 40L33 40L33 41L34 41L34 40L33 40L33 39L32 39L32 38L34 38L34 39L35 39L35 40L36 40L36 39L37 39L37 40L40 40L40 38L41 38L41 37L39 37L39 36L38 36L38 35L37 35L37 34L38 34L38 33L39 33L39 35L40 35L40 34L41 34L41 32L38 32L38 31L40 31L40 30L41 30L41 29L40 29L40 26L41 26L41 23L39 23L39 22L37 22L37 20L38 20L38 21L39 21L39 20L38 20L38 19L37 19L37 20L36 20L36 19L35 19L35 17L36 17L36 18L38 18L38 17L39 17L39 16L38 16L38 13ZM2 14L2 15L3 15L3 14ZM19 14L19 15L20 15L20 14ZM6 16L6 17L7 17L7 16ZM18 16L18 17L19 17L19 16ZM36 16L36 17L38 17L38 16ZM40 16L40 18L39 18L39 19L40 19L40 18L41 18L41 16ZM11 17L11 19L12 19L12 20L10 20L10 22L9 22L9 20L8 20L8 21L7 21L7 20L6 20L6 21L5 21L5 23L8 23L8 24L9 24L9 23L10 23L10 22L12 22L12 23L13 23L13 22L14 22L14 23L15 23L15 22L16 22L16 23L17 23L17 21L16 21L16 20L13 20L13 19L15 19L15 17L14 17L14 18L13 18L13 17ZM12 18L12 19L13 19L13 18ZM40 20L40 21L41 21L41 20ZM6 21L6 22L7 22L7 21ZM32 21L32 22L34 22L34 23L35 23L35 24L33 24L33 25L32 25L32 26L29 26L29 28L30 28L30 29L28 29L28 30L30 30L30 29L31 29L31 30L32 30L32 31L33 31L33 32L35 32L35 31L36 31L36 30L35 30L35 29L37 29L37 30L39 30L39 26L40 26L40 24L39 24L39 23L37 23L37 24L36 24L36 23L35 23L35 22L36 22L36 21L35 21L35 22L34 22L34 21ZM1 22L1 23L2 23L2 24L1 24L1 25L3 25L3 23L2 23L2 22ZM29 22L29 23L30 23L30 22ZM13 25L13 26L14 26L14 25ZM33 25L33 27L32 27L32 28L33 28L33 29L32 29L32 30L33 30L33 29L34 29L34 28L33 28L33 27L34 27L34 26L37 26L37 27L36 27L36 28L38 28L38 26L39 26L39 25ZM11 27L11 28L12 28L12 27ZM2 28L2 29L3 29L3 28ZM34 30L34 31L35 31L35 30ZM6 31L6 32L7 32L7 31ZM28 31L28 33L27 33L27 32L26 32L26 38L28 38L28 37L29 37L29 38L30 38L30 37L31 37L31 38L32 38L32 36L28 36L28 35L29 35L29 34L28 34L28 33L29 33L29 32L30 32L30 33L31 33L31 34L30 34L30 35L31 35L31 34L32 34L32 33L31 33L31 31ZM18 32L18 34L19 34L19 33L20 33L20 32ZM37 32L37 33L38 33L38 32ZM33 33L33 36L36 36L36 33ZM10 34L10 35L13 35L13 34ZM27 34L27 35L28 35L28 34ZM34 34L34 35L35 35L35 34ZM27 36L27 37L28 37L28 36ZM37 36L37 37L38 37L38 36ZM12 37L12 39L14 39L14 40L15 40L15 37ZM16 37L16 40L17 40L17 37ZM34 37L34 38L36 38L36 37ZM37 38L37 39L38 39L38 38ZM21 39L21 40L20 40L20 41L22 41L22 40L23 40L23 41L24 41L24 40L23 40L23 39ZM29 40L29 41L30 41L30 40ZM0 0L0 7L7 7L7 0ZM1 1L1 6L6 6L6 1ZM2 2L2 5L5 5L5 2ZM34 0L34 7L41 7L41 0ZM35 1L35 6L40 6L40 1ZM36 2L36 5L39 5L39 2ZM0 34L0 41L7 41L7 34ZM1 35L1 40L6 40L6 35ZM2 36L2 39L5 39L5 36Z" fill="#000000"/></g></g></svg>
