<?xml version="1.0" encoding="UTF-8"?>
<svg xmlns="http://www.w3.org/2000/svg" version="1.1" width="200" height="200" viewBox="0 0 200 200"><rect x="0" y="0" width="200" height="200" fill="#ffffff"/><g transform="scale(6.897)"><g transform="translate(0,0)"><path fill-rule="evenodd" d="M10 0L10 2L9 2L9 1L8 1L8 7L9 7L9 6L10 6L10 9L9 9L9 8L5 8L5 11L7 11L7 12L6 12L6 13L2 13L2 14L4 14L4 15L2 15L2 17L1 17L1 18L0 18L0 19L2 19L2 17L3 17L3 20L0 20L0 21L3 21L3 20L4 20L4 21L5 21L5 20L6 20L6 21L8 21L8 24L10 24L10 23L11 23L11 24L12 24L12 22L13 22L13 23L14 23L14 24L13 24L13 25L12 25L12 28L14 28L14 27L15 27L15 28L16 28L16 29L17 29L17 28L19 28L19 26L20 26L20 27L21 27L21 29L22 29L22 28L24 28L24 29L29 29L29 26L27 26L27 25L28 25L28 24L29 24L29 22L28 22L28 21L27 21L27 19L26 19L26 18L28 18L28 19L29 19L29 18L28 18L28 17L29 17L29 16L27 16L27 17L25 17L25 16L22 16L22 15L25 15L25 14L26 14L26 13L27 13L27 15L29 15L29 14L28 14L28 13L29 13L29 12L27 12L27 11L29 11L29 9L28 9L28 8L23 8L23 10L22 10L22 11L21 11L21 9L22 9L22 8L21 8L21 0L19 0L19 1L20 1L20 2L19 2L19 3L20 3L20 5L19 5L19 4L18 4L18 5L17 5L17 3L18 3L18 2L17 2L17 1L18 1L18 0L17 0L17 1L15 1L15 2L16 2L16 5L15 5L15 4L14 4L14 5L13 5L13 4L11 4L11 3L10 3L10 2L11 2L11 0ZM12 0L12 1L14 1L14 0ZM12 2L12 3L14 3L14 2ZM10 5L10 6L11 6L11 10L12 10L12 15L13 15L13 17L14 17L14 20L12 20L12 16L11 16L11 15L10 15L10 16L9 16L9 14L10 14L10 13L9 13L9 12L8 12L8 14L7 14L7 13L6 13L6 14L5 14L5 15L4 15L4 16L3 16L3 17L5 17L5 18L4 18L4 20L5 20L5 19L6 19L6 20L7 20L7 19L6 19L6 18L9 18L9 17L10 17L10 19L11 19L11 20L9 20L9 21L10 21L10 22L11 22L11 21L13 21L13 22L14 22L14 23L15 23L15 24L16 24L16 23L15 23L15 22L16 22L16 21L17 21L17 20L16 20L16 19L17 19L17 17L18 17L18 19L19 19L19 20L22 20L22 19L21 19L21 15L19 15L19 14L22 14L22 12L21 12L21 13L20 13L20 12L19 12L19 11L20 11L20 9L19 9L19 7L20 7L20 6L19 6L19 7L18 7L18 6L17 6L17 5L16 5L16 6L15 6L15 5L14 5L14 6L13 6L13 5ZM12 6L12 10L15 10L15 12L13 12L13 13L15 13L15 15L16 15L16 17L15 17L15 16L14 16L14 17L15 17L15 18L16 18L16 17L17 17L17 16L19 16L19 17L20 17L20 16L19 16L19 15L18 15L18 14L19 14L19 12L18 12L18 13L17 13L17 12L16 12L16 11L19 11L19 10L17 10L17 9L18 9L18 7L17 7L17 6L16 6L16 7L15 7L15 6L14 6L14 7L13 7L13 6ZM2 8L2 9L3 9L3 10L1 10L1 11L0 11L0 13L1 13L1 11L3 11L3 12L4 12L4 11L3 11L3 10L4 10L4 9L3 9L3 8ZM13 8L13 9L14 9L14 8ZM6 9L6 10L7 10L7 11L8 11L8 10L9 10L9 11L10 11L10 12L11 12L11 11L10 11L10 10L9 10L9 9L8 9L8 10L7 10L7 9ZM15 9L15 10L16 10L16 9ZM25 9L25 10L24 10L24 11L26 11L26 10L28 10L28 9ZM23 12L23 14L25 14L25 13L24 13L24 12ZM16 13L16 15L17 15L17 13ZM0 14L0 16L1 16L1 14ZM6 14L6 15L5 15L5 17L8 17L8 16L6 16L6 15L7 15L7 14ZM13 14L13 15L14 15L14 14ZM22 17L22 18L25 18L25 17ZM19 18L19 19L20 19L20 18ZM23 19L23 20L26 20L26 19ZM14 20L14 22L15 22L15 21L16 21L16 20ZM19 21L19 22L17 22L17 24L18 24L18 25L19 25L19 24L20 24L20 23L19 23L19 22L20 22L20 21ZM21 21L21 24L24 24L24 21ZM26 21L26 23L25 23L25 25L21 25L21 26L22 26L22 27L23 27L23 26L24 26L24 28L26 28L26 27L25 27L25 26L26 26L26 24L27 24L27 21ZM22 22L22 23L23 23L23 22ZM10 25L10 26L8 26L8 27L10 27L10 28L9 28L9 29L11 29L11 27L10 27L10 26L11 26L11 25ZM15 25L15 26L16 26L16 25ZM13 26L13 27L14 27L14 26ZM17 26L17 27L16 27L16 28L17 28L17 27L18 27L18 26ZM27 27L27 28L28 28L28 27ZM0 0L0 7L7 7L7 0ZM1 1L1 6L6 6L6 1ZM2 2L2 5L5 5L5 2ZM22 0L22 7L29 7L29 0ZM23 1L23 6L28 6L28 1ZM24 2L24 5L27 5L27 2ZM0 22L0 29L7 29L7 22ZM1 23L1 28L6 28L6 23ZM2 24L2 27L5 27L5 24Z" fill="#000000"/></g></g></svg>
