<?xml version="1.0" encoding="UTF-8"?>
<svg xmlns="http://www.w3.org/2000/svg" version="1.1" width="200" height="200" viewBox="0 0 200 200"><rect x="0" y="0" width="200" height="200" fill="#ffffff"/><g transform="scale(6.897)"><g transform="translate(0,0)"><path fill-rule="evenodd" d="M8 0L8 1L9 1L9 3L8 3L8 4L9 4L9 6L8 6L8 7L9 7L9 6L10 6L10 8L8 8L8 9L7 9L7 8L4 8L4 9L5 9L5 10L3 10L3 12L4 12L4 13L5 13L5 14L4 14L4 16L3 16L3 17L1 17L1 15L3 15L3 14L2 14L2 13L1 13L1 14L0 14L0 17L1 17L1 18L0 18L0 19L1 19L1 20L0 20L0 21L1 21L1 20L4 20L4 21L8 21L8 22L9 22L9 21L10 21L10 20L9 20L9 19L11 19L11 21L12 21L12 22L11 22L11 23L10 23L10 25L9 25L9 23L8 23L8 25L9 25L9 26L8 26L8 27L9 27L9 28L10 28L10 29L12 29L12 28L13 28L13 29L14 29L14 27L13 27L13 26L15 26L15 28L17 28L17 29L20 29L20 27L21 27L21 26L22 26L22 25L23 25L23 26L24 26L24 25L27 25L27 26L28 26L28 27L27 27L27 28L28 28L28 29L29 29L29 26L28 26L28 25L29 25L29 24L28 24L28 23L27 23L27 24L26 24L26 23L25 23L25 19L26 19L26 21L28 21L28 22L29 22L29 21L28 21L28 19L29 19L29 18L27 18L27 17L26 17L26 14L24 14L24 13L25 13L25 11L26 11L26 13L27 13L27 14L28 14L28 15L27 15L27 16L28 16L28 17L29 17L29 16L28 16L28 15L29 15L29 14L28 14L28 13L29 13L29 12L28 12L28 11L29 11L29 8L28 8L28 9L26 9L26 8L25 8L25 9L24 9L24 10L25 10L25 11L24 11L24 12L23 12L23 10L22 10L22 8L19 8L19 11L20 11L20 12L18 12L18 10L14 10L14 9L11 9L11 8L12 8L12 7L13 7L13 6L12 6L12 7L11 7L11 6L10 6L10 4L11 4L11 5L14 5L14 8L15 8L15 9L17 9L17 8L16 8L16 7L17 7L17 5L18 5L18 7L19 7L19 5L20 5L20 7L21 7L21 0L20 0L20 1L19 1L19 2L20 2L20 3L19 3L19 5L18 5L18 3L17 3L17 2L18 2L18 1L17 1L17 0L15 0L15 2L14 2L14 0L13 0L13 2L12 2L12 1L11 1L11 0L10 0L10 1L9 1L9 0ZM10 1L10 2L11 2L11 3L12 3L12 2L11 2L11 1ZM16 1L16 2L15 2L15 7L16 7L16 5L17 5L17 4L16 4L16 2L17 2L17 1ZM13 2L13 4L14 4L14 2ZM2 8L2 9L3 9L3 8ZM6 9L6 10L5 10L5 11L4 11L4 12L7 12L7 11L6 11L6 10L7 10L7 9ZM25 9L25 10L26 10L26 11L28 11L28 10L26 10L26 9ZM0 10L0 11L1 11L1 12L2 12L2 10ZM9 10L9 12L8 12L8 13L6 13L6 14L5 14L5 16L9 16L9 15L10 15L10 16L12 16L12 15L13 15L13 17L14 17L14 15L20 15L20 16L17 16L17 17L15 17L15 18L13 18L13 19L12 19L12 21L13 21L13 22L12 22L12 23L13 23L13 22L14 22L14 23L15 23L15 22L16 22L16 23L17 23L17 26L16 26L16 27L17 27L17 26L18 26L18 28L19 28L19 26L20 26L20 24L19 24L19 23L20 23L20 22L19 22L19 21L20 21L20 20L21 20L21 19L22 19L22 18L23 18L23 19L24 19L24 18L26 18L26 17L24 17L24 16L25 16L25 15L24 15L24 14L23 14L23 15L22 15L22 14L21 14L21 13L20 13L20 14L19 14L19 13L18 13L18 14L15 14L15 13L14 13L14 15L13 15L13 14L12 14L12 13L11 13L11 12L13 12L13 11L14 11L14 10ZM15 11L15 12L16 12L16 11ZM21 11L21 12L22 12L22 11ZM9 12L9 14L10 14L10 15L11 15L11 13L10 13L10 12ZM27 12L27 13L28 13L28 12ZM6 14L6 15L8 15L8 14ZM20 14L20 15L21 15L21 14ZM23 15L23 16L22 16L22 17L23 17L23 18L24 18L24 17L23 17L23 16L24 16L24 15ZM3 17L3 18L4 18L4 17ZM5 17L5 19L4 19L4 20L5 20L5 19L6 19L6 20L7 20L7 19L8 19L8 18L9 18L9 17L8 17L8 18L7 18L7 17ZM17 17L17 18L15 18L15 19L16 19L16 20L14 20L14 19L13 19L13 21L14 21L14 22L15 22L15 21L16 21L16 22L17 22L17 23L18 23L18 22L17 22L17 21L18 21L18 20L20 20L20 19L18 19L18 17ZM19 17L19 18L20 18L20 17ZM1 18L1 19L2 19L2 18ZM6 18L6 19L7 19L7 18ZM16 20L16 21L17 21L17 20ZM21 21L21 24L24 24L24 21ZM22 22L22 23L23 23L23 22ZM12 24L12 25L10 25L10 26L11 26L11 27L12 27L12 25L13 25L13 24ZM15 24L15 25L16 25L16 24ZM27 24L27 25L28 25L28 24ZM18 25L18 26L19 26L19 25ZM25 26L25 28L23 28L23 27L22 27L22 28L23 28L23 29L26 29L26 26ZM0 0L0 7L7 7L7 0ZM1 1L1 6L6 6L6 1ZM2 2L2 5L5 5L5 2ZM22 0L22 7L29 7L29 0ZM23 1L23 6L28 6L28 1ZM24 2L24 5L27 5L27 2ZM0 22L0 29L7 29L7 22ZM1 23L1 28L6 28L6 23ZM2 24L2 27L5 27L5 24Z" fill="#000000"/></g></g></svg>
