<?xml version="1.0" encoding="UTF-8"?>
<svg xmlns="http://www.w3.org/2000/svg" version="1.1" width="200" height="200" viewBox="0 0 200 200"><rect x="0" y="0" width="200" height="200" fill="#ffffff"/><g transform="scale(4.878)"><g transform="translate(0,0)"><path fill-rule="evenodd" d="M9 0L9 2L8 2L8 4L9 4L9 6L8 6L8 7L9 7L9 8L10 8L10 9L12 9L12 8L14 8L14 7L15 7L15 8L16 8L16 9L17 9L17 10L18 10L18 8L19 8L19 9L20 9L20 10L19 10L19 11L18 11L18 12L17 12L17 11L15 11L15 10L14 10L14 9L13 9L13 11L9 11L9 12L8 12L8 10L9 10L9 9L8 9L8 8L6 8L6 9L5 9L5 8L3 8L3 9L5 9L5 10L6 10L6 11L4 11L4 10L2 10L2 11L1 11L1 13L2 13L2 15L3 15L3 13L4 13L4 12L6 12L6 13L7 13L7 12L8 12L8 15L9 15L9 16L10 16L10 17L8 17L8 16L6 16L6 17L5 17L5 16L3 16L3 17L2 17L2 16L0 16L0 17L2 17L2 18L1 18L1 20L2 20L2 21L3 21L3 20L2 20L2 19L3 19L3 18L4 18L4 17L5 17L5 19L4 19L4 21L7 21L7 20L6 20L6 19L7 19L7 18L6 18L6 17L8 17L8 18L10 18L10 20L12 20L12 21L14 21L14 23L16 23L16 24L15 24L15 25L14 25L14 24L13 24L13 23L12 23L12 22L11 22L11 21L9 21L9 20L8 20L8 21L9 21L9 22L10 22L10 24L9 24L9 25L8 25L8 27L7 27L7 26L5 26L5 27L4 27L4 25L5 25L5 24L6 24L6 25L7 25L7 24L6 24L6 23L7 23L7 22L5 22L5 24L4 24L4 23L3 23L3 22L2 22L2 23L1 23L1 21L0 21L0 24L2 24L2 23L3 23L3 25L1 25L1 26L0 26L0 33L2 33L2 32L3 32L3 33L4 33L4 31L3 31L3 30L2 30L2 29L3 29L3 28L4 28L4 29L5 29L5 31L7 31L7 32L5 32L5 33L7 33L7 32L8 32L8 35L9 35L9 36L8 36L8 38L9 38L9 40L10 40L10 41L12 41L12 40L13 40L13 41L14 41L14 40L13 40L13 39L12 39L12 38L13 38L13 37L15 37L15 38L14 38L14 39L15 39L15 38L17 38L17 39L16 39L16 40L17 40L17 41L18 41L18 40L17 40L17 39L20 39L20 38L23 38L23 36L21 36L21 35L22 35L22 34L21 34L21 33L20 33L20 34L21 34L21 35L20 35L20 36L19 36L19 32L18 32L18 30L19 30L19 31L21 31L21 29L22 29L22 28L23 28L23 27L22 27L22 26L21 26L21 25L22 25L22 23L23 23L23 24L24 24L24 25L23 25L23 26L24 26L24 25L25 25L25 24L26 24L26 25L27 25L27 26L26 26L26 27L28 27L28 28L25 28L25 27L24 27L24 28L25 28L25 29L23 29L23 30L22 30L22 33L23 33L23 35L25 35L25 36L24 36L24 37L25 37L25 40L26 40L26 41L29 41L29 39L31 39L31 40L30 40L30 41L31 41L31 40L32 40L32 41L34 41L34 40L35 40L35 41L36 41L36 39L37 39L37 40L38 40L38 41L39 41L39 40L38 40L38 39L40 39L40 40L41 40L41 37L40 37L40 36L41 36L41 35L40 35L40 34L39 34L39 33L41 33L41 32L40 32L40 31L41 31L41 30L39 30L39 31L38 31L38 29L41 29L41 25L39 25L39 24L37 24L37 23L39 23L39 22L41 22L41 21L39 21L39 20L40 20L40 19L41 19L41 18L40 18L40 17L41 17L41 11L40 11L40 9L39 9L39 8L37 8L37 9L36 9L36 11L35 11L35 10L34 10L34 9L33 9L33 10L32 10L32 7L33 7L33 6L32 6L32 7L31 7L31 6L30 6L30 8L29 8L29 5L33 5L33 4L29 4L29 3L31 3L31 2L32 2L32 3L33 3L33 2L32 2L32 1L33 1L33 0L32 0L32 1L31 1L31 2L30 2L30 1L29 1L29 0L28 0L28 2L27 2L27 1L26 1L26 0L25 0L25 1L24 1L24 4L25 4L25 5L26 5L26 4L28 4L28 7L27 7L27 6L26 6L26 7L25 7L25 6L24 6L24 8L23 8L23 9L24 9L24 10L23 10L23 14L22 14L22 15L21 15L21 13L22 13L22 11L21 11L21 10L22 10L22 9L21 9L21 8L19 8L19 6L18 6L18 4L19 4L19 5L21 5L21 3L22 3L22 2L23 2L23 0L22 0L22 1L21 1L21 0L13 0L13 2L14 2L14 3L12 3L12 0ZM15 1L15 2L16 2L16 3L15 3L15 4L16 4L16 5L14 5L14 4L12 4L12 5L14 5L14 6L13 6L13 7L14 7L14 6L15 6L15 7L16 7L16 5L17 5L17 3L21 3L21 1L18 1L18 2L17 2L17 1ZM28 2L28 3L29 3L29 2ZM9 3L9 4L10 4L10 5L11 5L11 3ZM25 3L25 4L26 4L26 3ZM22 4L22 7L23 7L23 4ZM9 6L9 7L10 7L10 6ZM11 6L11 7L12 7L12 6ZM17 6L17 7L18 7L18 6ZM20 6L20 7L21 7L21 6ZM26 8L26 9L25 9L25 10L24 10L24 11L25 11L25 10L26 10L26 9L27 9L27 8ZM28 8L28 9L29 9L29 10L30 10L30 9L31 9L31 8L30 8L30 9L29 9L29 8ZM0 9L0 10L1 10L1 9ZM6 9L6 10L8 10L8 9ZM37 9L37 10L38 10L38 12L39 12L39 13L40 13L40 12L39 12L39 10L38 10L38 9ZM31 10L31 11L32 11L32 13L33 13L33 14L36 14L36 15L35 15L35 16L34 16L34 17L33 17L33 16L32 16L32 15L31 15L31 14L30 14L30 12L29 12L29 15L28 15L28 13L27 13L27 14L26 14L26 16L25 16L25 15L24 15L24 14L25 14L25 12L24 12L24 14L23 14L23 15L22 15L22 16L21 16L21 18L20 18L20 17L19 17L19 16L20 16L20 14L19 14L19 12L18 12L18 15L19 15L19 16L17 16L17 14L16 14L16 13L17 13L17 12L15 12L15 11L14 11L14 13L15 13L15 14L13 14L13 15L15 15L15 14L16 14L16 16L15 16L15 17L16 17L16 19L15 19L15 18L12 18L12 20L16 20L16 23L18 23L18 22L19 22L19 23L20 23L20 24L18 24L18 25L17 25L17 24L16 24L16 25L15 25L15 27L16 27L16 28L17 28L17 30L16 30L16 34L17 34L17 35L18 35L18 34L17 34L17 30L18 30L18 29L19 29L19 28L17 28L17 27L18 27L18 26L19 26L19 27L20 27L20 29L21 29L21 28L22 28L22 27L21 27L21 26L20 26L20 24L21 24L21 21L22 21L22 22L24 22L24 23L25 23L25 19L26 19L26 20L27 20L27 18L26 18L26 17L30 17L30 18L31 18L31 17L32 17L32 18L33 18L33 19L34 19L34 20L35 20L35 17L37 17L37 18L36 18L36 20L37 20L37 22L38 22L38 20L37 20L37 18L38 18L38 17L40 17L40 16L36 16L36 15L37 15L37 14L38 14L38 13L37 13L37 11L36 11L36 13L35 13L35 11L34 11L34 10L33 10L33 11L32 11L32 10ZM2 11L2 13L3 13L3 12L4 12L4 11ZM6 11L6 12L7 12L7 11ZM27 11L27 12L28 12L28 11ZM9 12L9 13L10 13L10 12ZM11 12L11 14L12 14L12 13L13 13L13 12ZM36 13L36 14L37 14L37 13ZM0 14L0 15L1 15L1 14ZM4 14L4 15L5 15L5 14ZM6 14L6 15L7 15L7 14ZM11 15L11 17L10 17L10 18L11 18L11 17L14 17L14 16L12 16L12 15ZM27 15L27 16L28 16L28 15ZM23 16L23 17L24 17L24 18L25 18L25 16ZM30 16L30 17L31 17L31 16ZM17 17L17 18L18 18L18 19L16 19L16 20L17 20L17 22L18 22L18 20L20 20L20 21L19 21L19 22L20 22L20 21L21 21L21 19L22 19L22 20L23 20L23 21L24 21L24 19L22 19L22 18L21 18L21 19L20 19L20 18L18 18L18 17ZM28 19L28 21L29 21L29 22L30 22L30 24L29 24L29 23L28 23L28 24L29 24L29 25L31 25L31 26L28 26L28 27L29 27L29 29L31 29L31 31L29 31L29 30L28 30L28 29L27 29L27 30L26 30L26 29L25 29L25 30L24 30L24 31L23 31L23 33L25 33L25 34L26 34L26 35L27 35L27 36L25 36L25 37L27 37L27 36L28 36L28 39L27 39L27 38L26 38L26 40L28 40L28 39L29 39L29 38L30 38L30 37L31 37L31 36L30 36L30 35L31 35L31 34L32 34L32 32L33 32L33 31L34 31L34 32L37 32L37 33L38 33L38 32L37 32L37 31L35 31L35 30L33 30L33 31L32 31L32 28L33 28L33 27L31 27L31 26L32 26L32 25L33 25L33 26L34 26L34 24L35 24L35 26L36 26L36 25L37 25L37 27L39 27L39 28L40 28L40 27L39 27L39 25L37 25L37 24L35 24L35 23L36 23L36 21L34 21L34 24L33 24L33 22L31 22L31 21L30 21L30 20L32 20L32 19ZM26 22L26 24L27 24L27 22ZM31 23L31 25L32 25L32 23ZM10 24L10 26L11 26L11 27L8 27L8 28L9 28L9 29L6 29L6 30L9 30L9 31L8 31L8 32L10 32L10 33L9 33L9 35L10 35L10 36L9 36L9 37L12 37L12 36L13 36L13 35L15 35L15 34L14 34L14 33L15 33L15 32L12 32L12 33L11 33L11 31L12 31L12 30L13 30L13 31L14 31L14 29L13 29L13 28L12 28L12 27L14 27L14 25L13 25L13 26L12 26L12 24ZM16 25L16 27L17 27L17 25ZM1 26L1 29L2 29L2 27L3 27L3 26ZM5 27L5 28L7 28L7 27ZM10 28L10 29L9 29L9 30L10 30L10 31L11 31L11 30L12 30L12 29L11 29L11 28ZM34 28L34 29L38 29L38 28ZM10 29L10 30L11 30L11 29ZM27 30L27 31L26 31L26 32L27 32L27 35L28 35L28 36L29 36L29 37L30 37L30 36L29 36L29 34L30 34L30 33L31 33L31 32L29 32L29 33L28 33L28 32L27 32L27 31L28 31L28 30ZM33 33L33 36L36 36L36 33ZM10 34L10 35L11 35L11 34ZM12 34L12 35L13 35L13 34ZM34 34L34 35L35 35L35 34ZM38 34L38 37L37 37L37 38L40 38L40 37L39 37L39 36L40 36L40 35L39 35L39 34ZM18 36L18 37L19 37L19 36ZM32 37L32 38L31 38L31 39L32 39L32 40L33 40L33 37ZM34 37L34 39L35 39L35 38L36 38L36 37ZM10 38L10 40L11 40L11 38ZM23 39L23 40L22 40L22 41L24 41L24 39ZM19 40L19 41L21 41L21 40ZM0 0L0 7L7 7L7 0ZM1 1L1 6L6 6L6 1ZM2 2L2 5L5 5L5 2ZM34 0L34 7L41 7L41 0ZM35 1L35 6L40 6L40 1ZM36 2L36 5L39 5L39 2ZM0 34L0 41L7 41L7 34ZM1 35L1 40L6 40L6 35ZM2 36L2 39L5 39L5 36Z" fill="#000000"/></g></g></svg>
