<?xml version="1.0" encoding="UTF-8"?>
<svg xmlns="http://www.w3.org/2000/svg" version="1.1" width="200" height="200" viewBox="0 0 200 200"><rect x="0" y="0" width="200" height="200" fill="#ffffff"/><g transform="scale(6.897)"><g transform="translate(0,0)"><path fill-rule="evenodd" d="M8 0L8 3L9 3L9 4L10 4L10 7L9 7L9 5L8 5L8 9L7 9L7 8L6 8L6 9L5 9L5 8L2 8L2 10L0 10L0 16L3 16L3 17L2 17L2 20L3 20L3 21L7 21L7 20L6 20L6 19L10 19L10 21L8 21L8 22L10 22L10 23L9 23L9 24L8 24L8 27L9 27L9 28L10 28L10 27L9 27L9 26L11 26L11 27L12 27L12 28L13 28L13 29L15 29L15 28L16 28L16 29L17 29L17 28L18 28L18 29L28 29L28 28L29 28L29 27L28 27L28 23L29 23L29 20L28 20L28 19L27 19L27 17L28 17L28 10L29 10L29 8L26 8L26 9L25 9L25 12L24 12L24 11L22 11L22 12L23 12L23 13L21 13L21 15L22 15L22 14L23 14L23 13L24 13L24 19L25 19L25 18L26 18L26 20L28 20L28 22L26 22L26 21L25 21L25 20L23 20L23 19L22 19L22 18L20 18L20 19L21 19L21 20L20 20L20 25L19 25L19 23L18 23L18 21L19 21L19 18L18 18L18 17L17 17L17 16L19 16L19 13L20 13L20 12L21 12L21 11L20 11L20 10L22 10L22 9L23 9L23 10L24 10L24 8L21 8L21 5L20 5L20 4L21 4L21 3L20 3L20 4L19 4L19 3L18 3L18 4L17 4L17 6L16 6L16 8L14 8L14 9L12 9L12 8L13 8L13 6L14 6L14 7L15 7L15 6L14 6L14 4L15 4L15 5L16 5L16 3L14 3L14 2L13 2L13 3L9 3L9 1L10 1L10 2L11 2L11 1L12 1L12 0ZM14 0L14 1L17 1L17 0ZM18 1L18 2L19 2L19 1ZM20 1L20 2L21 2L21 1ZM18 4L18 6L17 6L17 7L18 7L18 6L19 6L19 7L20 7L20 6L19 6L19 4ZM11 5L11 7L10 7L10 8L9 8L9 9L10 9L10 10L9 10L9 11L8 11L8 10L7 10L7 9L6 9L6 10L5 10L5 12L4 12L4 11L3 11L3 10L4 10L4 9L3 9L3 10L2 10L2 11L1 11L1 15L2 15L2 14L3 14L3 13L4 13L4 14L5 14L5 15L4 15L4 16L5 16L5 15L6 15L6 16L7 16L7 17L6 17L6 18L8 18L8 16L7 16L7 15L9 15L9 18L12 18L12 16L13 16L13 17L14 17L14 18L16 18L16 19L18 19L18 18L17 18L17 17L14 17L14 16L15 16L15 15L18 15L18 13L17 13L17 14L16 14L16 13L14 13L14 12L13 12L13 11L14 11L14 10L16 10L16 9L19 9L19 10L20 10L20 9L21 9L21 8L20 8L20 9L19 9L19 8L16 8L16 9L14 9L14 10L11 10L11 9L10 9L10 8L11 8L11 7L12 7L12 6L13 6L13 5ZM26 9L26 10L27 10L27 9ZM6 10L6 11L7 11L7 10ZM17 10L17 11L15 11L15 12L17 12L17 11L18 11L18 10ZM2 11L2 12L3 12L3 11ZM5 12L5 13L7 13L7 14L6 14L6 15L7 15L7 14L9 14L9 15L10 15L10 14L9 14L9 13L11 13L11 12L9 12L9 13L8 13L8 12ZM25 12L25 13L26 13L26 14L27 14L27 12ZM12 13L12 14L11 14L11 16L10 16L10 17L11 17L11 16L12 16L12 14L13 14L13 15L15 15L15 14L13 14L13 13ZM25 15L25 16L27 16L27 15ZM20 16L20 17L22 17L22 16ZM0 17L0 21L1 21L1 17ZM3 17L3 19L4 19L4 20L5 20L5 17ZM12 19L12 21L13 21L13 22L11 22L11 21L10 21L10 22L11 22L11 23L12 23L12 24L13 24L13 25L11 25L11 26L13 26L13 28L15 28L15 27L16 27L16 28L17 28L17 27L16 27L16 25L18 25L18 26L19 26L19 25L18 25L18 23L16 23L16 22L17 22L17 21L18 21L18 20L17 20L17 21L16 21L16 20L14 20L14 19ZM13 20L13 21L14 21L14 22L13 22L13 23L15 23L15 22L16 22L16 21L14 21L14 20ZM21 21L21 24L24 24L24 21ZM22 22L22 23L23 23L23 22ZM25 22L25 24L26 24L26 25L25 25L25 26L24 26L24 25L22 25L22 26L23 26L23 27L25 27L25 28L26 28L26 27L27 27L27 26L26 26L26 25L27 25L27 23L26 23L26 22ZM14 24L14 26L15 26L15 25L16 25L16 24ZM20 26L20 27L19 27L19 28L22 28L22 27L21 27L21 26ZM0 0L0 7L7 7L7 0ZM1 1L1 6L6 6L6 1ZM2 2L2 5L5 5L5 2ZM22 0L22 7L29 7L29 0ZM23 1L23 6L28 6L28 1ZM24 2L24 5L27 5L27 2ZM0 22L0 29L7 29L7 22ZM1 23L1 28L6 28L6 23ZM2 24L2 27L5 27L5 24Z" fill="#000000"/></g></g></svg>
