<?xml version="1.0" encoding="UTF-8"?>
<svg xmlns="http://www.w3.org/2000/svg" version="1.1" width="200" height="200" viewBox="0 0 200 200"><rect x="0" y="0" width="200" height="200" fill="#ffffff"/><g transform="scale(6.897)"><g transform="translate(0,0)"><path fill-rule="evenodd" d="M8 0L8 1L9 1L9 0ZM10 0L10 2L11 2L11 3L10 3L10 5L9 5L9 6L8 6L8 7L9 7L9 8L8 8L8 9L7 9L7 8L4 8L4 9L3 9L3 8L2 8L2 9L0 9L0 10L2 10L2 11L3 11L3 10L5 10L5 11L8 11L8 12L9 12L9 10L10 10L10 11L12 11L12 12L11 12L11 13L12 13L12 14L11 14L11 15L10 15L10 16L9 16L9 14L8 14L8 13L7 13L7 12L6 12L6 13L4 13L4 12L1 12L1 13L4 13L4 14L2 14L2 15L4 15L4 16L2 16L2 19L1 19L1 18L0 18L0 19L1 19L1 20L0 20L0 21L1 21L1 20L5 20L5 21L7 21L7 20L8 20L8 22L9 22L9 23L8 23L8 25L9 25L9 26L8 26L8 27L9 27L9 29L10 29L10 24L11 24L11 27L12 27L12 25L13 25L13 27L14 27L14 25L16 25L16 24L17 24L17 21L16 21L16 20L18 20L18 19L17 19L17 18L16 18L16 17L15 17L15 16L14 16L14 17L11 17L11 15L12 15L12 16L13 16L13 15L15 15L15 13L17 13L17 14L16 14L16 16L17 16L17 15L18 15L18 16L20 16L20 15L21 15L21 14L22 14L22 15L23 15L23 16L22 16L22 17L23 17L23 18L22 18L22 19L21 19L21 20L20 20L20 19L19 19L19 20L20 20L20 21L18 21L18 22L20 22L20 23L18 23L18 24L20 24L20 26L19 26L19 25L17 25L17 27L15 27L15 29L17 29L17 28L18 28L18 29L20 29L20 27L21 27L21 26L22 26L22 25L23 25L23 26L24 26L24 25L25 25L25 26L26 26L26 27L25 27L25 28L23 28L23 27L22 27L22 28L23 28L23 29L27 29L27 28L28 28L28 29L29 29L29 26L28 26L28 25L29 25L29 24L26 24L26 23L25 23L25 20L26 20L26 21L28 21L28 22L27 22L27 23L29 23L29 21L28 21L28 19L29 19L29 18L27 18L27 17L26 17L26 14L24 14L24 13L25 13L25 11L26 11L26 13L27 13L27 12L28 12L28 13L29 13L29 12L28 12L28 11L29 11L29 8L28 8L28 9L26 9L26 8L25 8L25 9L24 9L24 10L25 10L25 11L24 11L24 12L23 12L23 10L22 10L22 8L19 8L19 10L17 10L17 11L18 11L18 12L15 12L15 13L14 13L14 12L13 12L13 11L16 11L16 9L15 9L15 10L13 10L13 9L14 9L14 8L15 8L15 5L14 5L14 4L16 4L16 5L18 5L18 7L19 7L19 5L20 5L20 7L21 7L21 0L20 0L20 1L19 1L19 2L20 2L20 3L19 3L19 4L18 4L18 3L17 3L17 2L18 2L18 1L17 1L17 0L12 0L12 1L11 1L11 0ZM12 1L12 5L13 5L13 7L12 7L12 6L11 6L11 5L10 5L10 6L9 6L9 7L10 7L10 8L9 8L9 9L8 9L8 10L9 10L9 9L11 9L11 10L12 10L12 8L13 8L13 7L14 7L14 5L13 5L13 3L16 3L16 1L14 1L14 2L13 2L13 1ZM8 3L8 4L9 4L9 3ZM10 6L10 7L11 7L11 8L12 8L12 7L11 7L11 6ZM16 6L16 8L17 8L17 6ZM2 9L2 10L3 10L3 9ZM5 9L5 10L7 10L7 9ZM25 9L25 10L26 10L26 9ZM27 10L27 11L28 11L28 10ZM19 11L19 12L20 12L20 11ZM21 11L21 12L22 12L22 11ZM12 12L12 13L13 13L13 14L12 14L12 15L13 15L13 14L14 14L14 13L13 13L13 12ZM6 13L6 14L7 14L7 15L5 15L5 14L4 14L4 15L5 15L5 17L6 17L6 18L5 18L5 20L7 20L7 19L11 19L11 17L8 17L8 14L7 14L7 13ZM20 13L20 14L19 14L19 15L20 15L20 14L21 14L21 13ZM23 14L23 15L24 15L24 16L23 16L23 17L24 17L24 18L23 18L23 19L24 19L24 18L25 18L25 19L27 19L27 18L26 18L26 17L24 17L24 16L25 16L25 15L24 15L24 14ZM27 14L27 16L28 16L28 17L29 17L29 16L28 16L28 15L29 15L29 14ZM0 15L0 17L1 17L1 15ZM6 16L6 17L7 17L7 18L6 18L6 19L7 19L7 18L8 18L8 17L7 17L7 16ZM14 17L14 18L13 18L13 19L12 19L12 20L11 20L11 23L12 23L12 22L13 22L13 19L14 19L14 22L16 22L16 21L15 21L15 19L16 19L16 18L15 18L15 17ZM18 17L18 18L20 18L20 17ZM3 18L3 19L4 19L4 18ZM14 18L14 19L15 19L15 18ZM21 21L21 24L24 24L24 21ZM22 22L22 23L23 23L23 22ZM9 23L9 24L10 24L10 23ZM15 23L15 24L16 24L16 23ZM13 24L13 25L14 25L14 24ZM18 26L18 28L19 28L19 26ZM27 26L27 27L28 27L28 26ZM13 28L13 29L14 29L14 28ZM0 0L0 7L7 7L7 0ZM1 1L1 6L6 6L6 1ZM2 2L2 5L5 5L5 2ZM22 0L22 7L29 7L29 0ZM23 1L23 6L28 6L28 1ZM24 2L24 5L27 5L27 2ZM0 22L0 29L7 29L7 22ZM1 23L1 28L6 28L6 23ZM2 24L2 27L5 27L5 24Z" fill="#000000"/></g></g></svg>
