<?xml version="1.0" encoding="UTF-8"?>
<svg xmlns="http://www.w3.org/2000/svg" version="1.1" width="200" height="200" viewBox="0 0 200 200"><rect x="0" y="0" width="200" height="200" fill="#ffffff"/><g transform="scale(4.878)"><g transform="translate(0,0)"><path fill-rule="evenodd" d="M8 0L8 3L9 3L9 4L10 4L10 5L8 5L8 9L7 9L7 8L6 8L6 9L5 9L5 8L2 8L2 9L3 9L3 11L2 11L2 13L0 13L0 15L1 15L1 16L2 16L2 18L3 18L3 16L2 16L2 15L1 15L1 14L3 14L3 15L5 15L5 16L4 16L4 17L7 17L7 16L9 16L9 15L8 15L8 14L9 14L9 13L8 13L8 10L9 10L9 12L10 12L10 10L12 10L12 11L11 11L11 13L10 13L10 14L11 14L11 17L10 17L10 18L9 18L9 19L11 19L11 18L13 18L13 19L14 19L14 20L13 20L13 21L11 21L11 22L10 22L10 21L9 21L9 20L8 20L8 18L5 18L5 19L4 19L4 20L5 20L5 21L3 21L3 22L2 22L2 21L0 21L0 22L1 22L1 23L0 23L0 25L2 25L2 26L1 26L1 27L0 27L0 28L1 28L1 27L2 27L2 26L3 26L3 27L4 27L4 28L3 28L3 30L2 30L2 29L0 29L0 33L1 33L1 30L2 30L2 32L3 32L3 30L4 30L4 33L5 33L5 30L6 30L6 31L7 31L7 32L6 32L6 33L8 33L8 34L9 34L9 35L10 35L10 34L11 34L11 35L12 35L12 36L11 36L11 37L10 37L10 36L8 36L8 39L9 39L9 38L10 38L10 39L11 39L11 38L14 38L14 39L12 39L12 41L17 41L17 40L16 40L16 38L14 38L14 36L15 36L15 33L16 33L16 34L17 34L17 39L18 39L18 38L19 38L19 41L22 41L22 40L21 40L21 39L20 39L20 38L21 38L21 36L20 36L20 35L22 35L22 34L21 34L21 33L23 33L23 32L24 32L24 31L23 31L23 30L24 30L24 29L27 29L27 30L26 30L26 32L25 32L25 34L23 34L23 36L24 36L24 37L23 37L23 38L22 38L22 39L23 39L23 41L24 41L24 40L25 40L25 39L26 39L26 40L27 40L27 41L32 41L32 40L33 40L33 41L34 41L34 40L33 40L33 39L32 39L32 40L27 40L27 39L28 39L28 38L27 38L27 37L29 37L29 36L31 36L31 35L32 35L32 37L30 37L30 39L31 39L31 38L34 38L34 39L35 39L35 40L36 40L36 39L37 39L37 40L40 40L40 38L41 38L41 37L39 37L39 36L40 36L40 34L41 34L41 33L39 33L39 32L40 32L40 30L41 30L41 29L40 29L40 28L39 28L39 30L37 30L37 29L35 29L35 30L34 30L34 31L35 31L35 32L33 32L33 31L32 31L32 30L33 30L33 29L34 29L34 28L33 28L33 29L32 29L32 30L31 30L31 29L30 29L30 28L29 28L29 26L30 26L30 25L31 25L31 26L33 26L33 27L34 27L34 26L35 26L35 27L36 27L36 28L38 28L38 26L39 26L39 27L40 27L40 26L41 26L41 23L39 23L39 22L37 22L37 21L39 21L39 20L36 20L36 19L35 19L35 17L36 17L36 18L37 18L37 19L40 19L40 18L41 18L41 16L40 16L40 18L37 18L37 17L36 17L36 16L38 16L38 17L39 17L39 16L38 16L38 14L39 14L39 15L40 15L40 14L41 14L41 13L40 13L40 14L39 14L39 13L38 13L38 14L37 14L37 13L36 13L36 14L35 14L35 15L36 15L36 16L35 16L35 17L34 17L34 16L32 16L32 17L30 17L30 16L29 16L29 15L30 15L30 14L31 14L31 10L32 10L32 13L33 13L33 14L32 14L32 15L34 15L34 13L35 13L35 9L36 9L36 10L37 10L37 11L36 11L36 12L38 12L38 11L40 11L40 10L41 10L41 8L38 8L38 9L40 9L40 10L37 10L37 9L36 9L36 8L32 8L32 7L33 7L33 5L32 5L32 4L33 4L33 1L32 1L32 0L31 0L31 1L32 1L32 2L30 2L30 0L29 0L29 1L27 1L27 0L26 0L26 1L27 1L27 2L26 2L26 3L28 3L28 4L29 4L29 3L32 3L32 4L30 4L30 8L29 8L29 5L27 5L27 4L25 4L25 3L24 3L24 2L25 2L25 1L24 1L24 0L19 0L19 3L17 3L17 4L16 4L16 5L15 5L15 4L14 4L14 1L13 1L13 3L12 3L12 5L11 5L11 3L10 3L10 0ZM11 0L11 1L12 1L12 0ZM15 0L15 1L16 1L16 2L15 2L15 3L16 3L16 2L17 2L17 1L18 1L18 0L17 0L17 1L16 1L16 0ZM22 1L22 2L24 2L24 1ZM20 2L20 3L21 3L21 4L22 4L22 5L23 5L23 4L22 4L22 3L21 3L21 2ZM13 4L13 5L12 5L12 6L11 6L11 7L10 7L10 6L9 6L9 10L10 10L10 8L11 8L11 9L12 9L12 10L13 10L13 11L14 11L14 13L11 13L11 14L14 14L14 16L15 16L15 14L16 14L16 12L15 12L15 10L14 10L14 8L15 8L15 9L16 9L16 8L17 8L17 7L18 7L18 8L19 8L19 7L20 7L20 4L18 4L18 5L19 5L19 7L18 7L18 6L17 6L17 7L16 7L16 6L15 6L15 5L14 5L14 4ZM13 5L13 6L12 6L12 7L13 7L13 8L12 8L12 9L13 9L13 8L14 8L14 7L15 7L15 6L14 6L14 5ZM24 5L24 6L23 6L23 7L22 7L22 6L21 6L21 7L22 7L22 8L21 8L21 9L22 9L22 8L24 8L24 9L23 9L23 10L22 10L22 11L21 11L21 10L19 10L19 9L18 9L18 10L17 10L17 13L18 13L18 14L17 14L17 15L18 15L18 16L19 16L19 17L17 17L17 22L18 22L18 24L17 24L17 23L16 23L16 22L15 22L15 23L14 23L14 22L12 22L12 23L10 23L10 22L7 22L7 21L8 21L8 20L7 20L7 19L6 19L6 20L7 20L7 21L6 21L6 22L7 22L7 23L6 23L6 24L5 24L5 23L4 23L4 22L3 22L3 25L4 25L4 26L7 26L7 27L6 27L6 28L4 28L4 30L5 30L5 29L6 29L6 30L8 30L8 33L9 33L9 29L8 29L8 28L9 28L9 26L10 26L10 27L11 27L11 26L15 26L15 28L13 28L13 27L12 27L12 29L11 29L11 30L10 30L10 33L11 33L11 34L12 34L12 35L13 35L13 36L12 36L12 37L13 37L13 36L14 36L14 34L13 34L13 31L14 31L14 30L15 30L15 28L16 28L16 26L17 26L17 27L18 27L18 28L17 28L17 30L16 30L16 31L17 31L17 32L18 32L18 33L19 33L19 34L20 34L20 33L19 33L19 32L21 32L21 30L20 30L20 29L23 29L23 28L21 28L21 27L22 27L22 26L20 26L20 25L21 25L21 24L23 24L23 23L25 23L25 22L26 22L26 24L27 24L27 26L26 26L26 25L24 25L24 26L25 26L25 27L24 27L24 28L25 28L25 27L27 27L27 26L29 26L29 25L28 25L28 24L31 24L31 25L33 25L33 26L34 26L34 25L35 25L35 26L36 26L36 25L39 25L39 26L40 26L40 24L39 24L39 23L37 23L37 24L36 24L36 23L34 23L34 25L33 25L33 24L32 24L32 23L33 23L33 22L34 22L34 21L35 21L35 22L36 22L36 21L35 21L35 19L34 19L34 18L33 18L33 17L32 17L32 18L31 18L31 19L30 19L30 17L29 17L29 16L28 16L28 15L29 15L29 14L30 14L30 13L29 13L29 12L30 12L30 9L32 9L32 10L33 10L33 11L34 11L34 9L32 9L32 8L30 8L30 9L29 9L29 8L28 8L28 9L27 9L27 8L26 8L26 6L27 6L27 7L28 7L28 6L27 6L27 5ZM31 5L31 7L32 7L32 5ZM13 6L13 7L14 7L14 6ZM24 6L24 8L25 8L25 9L26 9L26 8L25 8L25 6ZM0 9L0 10L1 10L1 9ZM4 9L4 10L5 10L5 12L7 12L7 11L6 11L6 10L7 10L7 9L6 9L6 10L5 10L5 9ZM28 9L28 10L27 10L27 11L26 11L26 10L23 10L23 11L22 11L22 13L23 13L23 14L24 14L24 15L25 15L25 16L27 16L27 14L29 14L29 13L28 13L28 12L27 12L27 11L29 11L29 9ZM20 11L20 12L18 12L18 13L19 13L19 16L21 16L21 17L20 17L20 18L22 18L22 20L23 20L23 17L24 17L24 18L25 18L25 17L24 17L24 16L21 16L21 15L22 15L22 14L21 14L21 11ZM24 11L24 12L25 12L25 13L26 13L26 14L25 14L25 15L26 15L26 14L27 14L27 12L25 12L25 11ZM33 12L33 13L34 13L34 12ZM3 13L3 14L7 14L7 13ZM14 13L14 14L15 14L15 13ZM20 14L20 15L21 15L21 14ZM6 15L6 16L7 16L7 15ZM12 15L12 16L13 16L13 15ZM14 17L14 18L15 18L15 19L16 19L16 18L15 18L15 17ZM26 17L26 19L25 19L25 20L26 20L26 21L28 21L28 22L27 22L27 24L28 24L28 23L29 23L29 21L28 21L28 20L29 20L29 18L27 18L27 17ZM18 18L18 21L19 21L19 20L20 20L20 21L21 21L21 20L20 20L20 19L19 19L19 18ZM32 18L32 21L31 21L31 20L30 20L30 21L31 21L31 22L30 22L30 23L31 23L31 22L32 22L32 21L34 21L34 20L33 20L33 18ZM0 19L0 20L1 20L1 19ZM2 19L2 20L3 20L3 19ZM40 20L40 21L41 21L41 20ZM23 21L23 22L25 22L25 21ZM20 22L20 23L19 23L19 24L21 24L21 22ZM1 23L1 24L2 24L2 23ZM7 23L7 24L6 24L6 25L7 25L7 26L8 26L8 24L10 24L10 26L11 26L11 25L12 25L12 24L14 24L14 25L16 25L16 23L15 23L15 24L14 24L14 23L12 23L12 24L10 24L10 23ZM4 24L4 25L5 25L5 24ZM35 24L35 25L36 25L36 24ZM19 26L19 28L18 28L18 30L19 30L19 31L20 31L20 30L19 30L19 28L20 28L20 26ZM7 27L7 28L6 28L6 29L7 29L7 28L8 28L8 27ZM31 27L31 28L32 28L32 27ZM12 29L12 31L11 31L11 33L12 33L12 31L13 31L13 30L14 30L14 29ZM28 29L28 30L30 30L30 31L28 31L28 32L30 32L30 33L31 33L31 32L30 32L30 31L31 31L31 30L30 30L30 29ZM37 31L37 32L39 32L39 31ZM14 32L14 33L15 33L15 32ZM27 33L27 34L26 34L26 35L24 35L24 36L26 36L26 37L27 37L27 36L29 36L29 33ZM33 33L33 36L36 36L36 33ZM38 33L38 34L37 34L37 36L39 36L39 33ZM27 34L27 35L28 35L28 34ZM30 34L30 35L31 35L31 34ZM34 34L34 35L35 35L35 34ZM18 35L18 36L19 36L19 38L20 38L20 36L19 36L19 35ZM24 37L24 39L25 39L25 37ZM34 37L34 38L36 38L36 37ZM26 38L26 39L27 39L27 38ZM37 38L37 39L38 39L38 38ZM14 39L14 40L15 40L15 39ZM9 40L9 41L10 41L10 40ZM0 0L0 7L7 7L7 0ZM1 1L1 6L6 6L6 1ZM2 2L2 5L5 5L5 2ZM34 0L34 7L41 7L41 0ZM35 1L35 6L40 6L40 1ZM36 2L36 5L39 5L39 2ZM0 34L0 41L7 41L7 34ZM1 35L1 40L6 40L6 35ZM2 36L2 39L5 39L5 36Z" fill="#000000"/></g></g></svg>
