<?xml version="1.0" encoding="UTF-8"?>
<svg xmlns="http://www.w3.org/2000/svg" version="1.1" width="200" height="200" viewBox="0 0 200 200"><rect x="0" y="0" width="200" height="200" fill="#ffffff"/><g transform="scale(6.897)"><g transform="translate(0,0)"><path fill-rule="evenodd" d="M9 0L9 1L8 1L8 7L9 7L9 8L5 8L5 10L4 10L4 9L3 9L3 8L2 8L2 9L3 9L3 10L2 10L2 11L3 11L3 14L1 14L1 15L3 15L3 16L5 16L5 17L3 17L3 20L0 20L0 21L5 21L5 20L4 20L4 19L8 19L8 20L6 20L6 21L8 21L8 24L9 24L9 25L10 25L10 28L9 28L9 29L12 29L12 27L14 27L14 26L12 26L12 25L14 25L14 24L13 24L13 23L14 23L14 22L17 22L17 21L16 21L16 20L17 20L17 19L16 19L16 18L17 18L17 16L18 16L18 18L19 18L19 19L18 19L18 20L19 20L19 21L20 21L20 22L18 22L18 24L17 24L17 23L16 23L16 24L15 24L15 25L16 25L16 26L15 26L15 27L17 27L17 26L18 26L18 24L19 24L19 26L20 26L20 27L21 27L21 29L22 29L22 28L24 28L24 29L29 29L29 26L27 26L27 27L28 27L28 28L26 28L26 27L25 27L25 28L24 28L24 26L23 26L23 27L22 27L22 26L21 26L21 25L25 25L25 26L26 26L26 25L29 25L29 24L26 24L26 25L25 25L25 23L26 23L26 21L27 21L27 23L28 23L28 22L29 22L29 21L27 21L27 18L28 18L28 19L29 19L29 18L28 18L28 17L29 17L29 16L27 16L27 17L25 17L25 16L22 16L22 15L25 15L25 14L26 14L26 13L28 13L28 15L29 15L29 12L27 12L27 11L29 11L29 9L28 9L28 8L23 8L23 10L22 10L22 11L21 11L21 9L22 9L22 8L20 8L20 7L21 7L21 0L19 0L19 1L20 1L20 2L19 2L19 3L20 3L20 5L16 5L16 4L17 4L17 3L18 3L18 2L17 2L17 1L18 1L18 0L16 0L16 1L15 1L15 0L14 0L14 1L15 1L15 2L13 2L13 3L12 3L12 0ZM9 1L9 5L12 5L12 6L11 6L11 8L9 8L9 9L6 9L6 10L7 10L7 11L6 11L6 12L5 12L5 11L4 11L4 12L5 12L5 13L4 13L4 15L5 15L5 16L7 16L7 17L5 17L5 18L7 18L7 17L9 17L9 19L10 19L10 20L9 20L9 21L10 21L10 22L9 22L9 24L10 24L10 25L12 25L12 23L13 23L13 22L14 22L14 20L16 20L16 19L15 19L15 18L14 18L14 17L13 17L13 16L9 16L9 13L12 13L12 12L11 12L11 10L12 10L12 11L13 11L13 13L14 13L14 14L12 14L12 15L14 15L14 14L16 14L16 15L15 15L15 17L16 17L16 15L17 15L17 14L16 14L16 12L15 12L15 13L14 13L14 11L13 11L13 10L14 10L14 8L15 8L15 10L16 10L16 11L17 11L17 13L18 13L18 15L19 15L19 16L20 16L20 17L19 17L19 18L20 18L20 19L19 19L19 20L22 20L22 19L21 19L21 15L19 15L19 14L22 14L22 12L21 12L21 13L20 13L20 12L19 12L19 11L20 11L20 8L19 8L19 7L20 7L20 6L19 6L19 7L18 7L18 6L17 6L17 7L16 7L16 6L15 6L15 5L12 5L12 3L11 3L11 4L10 4L10 2L11 2L11 1ZM16 2L16 3L17 3L17 2ZM9 6L9 7L10 7L10 6ZM12 6L12 7L13 7L13 6ZM14 6L14 7L15 7L15 6ZM17 7L17 8L16 8L16 9L17 9L17 10L18 10L18 7ZM11 8L11 9L13 9L13 8ZM25 9L25 10L24 10L24 11L27 11L27 10L28 10L28 9ZM0 10L0 11L1 11L1 10ZM9 10L9 11L8 11L8 12L6 12L6 13L7 13L7 14L6 14L6 15L7 15L7 16L8 16L8 15L7 15L7 14L8 14L8 12L10 12L10 10ZM1 12L1 13L2 13L2 12ZM18 12L18 13L19 13L19 12ZM23 12L23 14L25 14L25 13L24 13L24 12ZM1 16L1 17L2 17L2 16ZM10 17L10 19L11 19L11 22L10 22L10 24L11 24L11 22L13 22L13 21L12 21L12 20L13 20L13 19L14 19L14 18L13 18L13 19L12 19L12 18L11 18L11 17ZM22 17L22 18L25 18L25 19L23 19L23 20L26 20L26 18L25 18L25 17ZM0 18L0 19L2 19L2 18ZM21 21L21 24L24 24L24 21ZM22 22L22 23L23 23L23 22ZM19 23L19 24L20 24L20 23ZM16 24L16 25L17 25L17 24ZM8 26L8 27L9 27L9 26ZM15 28L15 29L16 29L16 28ZM18 28L18 29L19 29L19 28ZM0 0L0 7L7 7L7 0ZM1 1L1 6L6 6L6 1ZM2 2L2 5L5 5L5 2ZM22 0L22 7L29 7L29 0ZM23 1L23 6L28 6L28 1ZM24 2L24 5L27 5L27 2ZM0 22L0 29L7 29L7 22ZM1 23L1 28L6 28L6 23ZM2 24L2 27L5 27L5 24Z" fill="#000000"/></g></g></svg>
