<?xml version="1.0" encoding="UTF-8"?>
<svg xmlns="http://www.w3.org/2000/svg" version="1.1" width="200" height="200" viewBox="0 0 200 200"><rect x="0" y="0" width="200" height="200" fill="#ffffff"/><g transform="scale(6.897)"><g transform="translate(0,0)"><path fill-rule="evenodd" d="M9 0L9 1L8 1L8 7L9 7L9 8L5 8L5 9L7 9L7 10L6 10L6 11L7 11L7 12L5 12L5 10L4 10L4 11L3 11L3 12L2 12L2 10L3 10L3 8L2 8L2 10L1 10L1 12L0 12L0 17L2 17L2 18L0 18L0 19L2 19L2 20L0 20L0 21L2 21L2 20L3 20L3 21L5 21L5 18L6 18L6 19L7 19L7 20L6 20L6 21L7 21L7 20L8 20L8 24L10 24L10 23L11 23L11 24L12 24L12 25L10 25L10 26L12 26L12 25L14 25L14 27L13 27L13 28L14 28L14 27L15 27L15 29L17 29L17 28L18 28L18 29L19 29L19 28L18 28L18 27L19 27L19 26L20 26L20 27L21 27L21 29L22 29L22 28L24 28L24 29L26 29L26 27L25 27L25 28L24 28L24 26L23 26L23 27L22 27L22 26L21 26L21 25L25 25L25 23L26 23L26 21L27 21L27 20L26 20L26 19L25 19L25 18L28 18L28 19L29 19L29 18L28 18L28 17L29 17L29 16L27 16L27 17L25 17L25 16L22 16L22 15L25 15L25 14L26 14L26 13L29 13L29 12L27 12L27 11L29 11L29 9L28 9L28 8L23 8L23 10L22 10L22 11L21 11L21 9L22 9L22 8L21 8L21 0L19 0L19 1L20 1L20 2L19 2L19 3L20 3L20 5L19 5L19 4L18 4L18 5L16 5L16 2L17 2L17 3L18 3L18 2L17 2L17 1L18 1L18 0L13 0L13 1L11 1L11 3L10 3L10 2L9 2L9 1L10 1L10 0ZM13 1L13 4L12 4L12 3L11 3L11 5L12 5L12 6L11 6L11 7L12 7L12 8L11 8L11 9L10 9L10 8L9 8L9 9L8 9L8 10L7 10L7 11L8 11L8 12L9 12L9 14L8 14L8 13L5 13L5 12L4 12L4 13L2 13L2 12L1 12L1 13L2 13L2 14L1 14L1 15L3 15L3 16L2 16L2 17L3 17L3 18L2 18L2 19L3 19L3 20L4 20L4 18L5 18L5 17L6 17L6 18L7 18L7 19L8 19L8 20L9 20L9 21L10 21L10 20L11 20L11 19L10 19L10 17L11 17L11 18L12 18L12 19L13 19L13 20L12 20L12 21L13 21L13 23L14 23L14 22L15 22L15 24L14 24L14 25L17 25L17 27L16 27L16 28L17 28L17 27L18 27L18 26L19 26L19 24L20 24L20 23L19 23L19 22L20 22L20 21L18 21L18 20L16 20L16 19L18 19L18 18L20 18L20 19L19 19L19 20L22 20L22 19L21 19L21 15L19 15L19 14L22 14L22 12L21 12L21 13L20 13L20 12L19 12L19 14L18 14L18 16L17 16L17 18L16 18L16 16L15 16L15 15L17 15L17 13L18 13L18 11L20 11L20 8L19 8L19 7L20 7L20 6L19 6L19 7L18 7L18 6L17 6L17 7L16 7L16 6L15 6L15 7L14 7L14 5L15 5L15 4L14 4L14 3L15 3L15 2L16 2L16 1ZM9 4L9 5L10 5L10 4ZM9 6L9 7L10 7L10 6ZM12 6L12 7L13 7L13 8L14 8L14 9L15 9L15 8L14 8L14 7L13 7L13 6ZM17 7L17 10L15 10L15 11L18 11L18 7ZM25 9L25 10L24 10L24 11L27 11L27 10L28 10L28 9ZM11 10L11 11L13 11L13 10ZM9 11L9 12L10 12L10 11ZM12 12L12 13L13 13L13 14L14 14L14 15L12 15L12 14L11 14L11 13L10 13L10 14L11 14L11 16L14 16L14 17L12 17L12 18L14 18L14 20L15 20L15 21L16 21L16 20L15 20L15 18L14 18L14 17L15 17L15 16L14 16L14 15L15 15L15 12ZM23 12L23 14L25 14L25 13L24 13L24 12ZM6 14L6 15L7 15L7 16L6 16L6 17L7 17L7 16L8 16L8 15L7 15L7 14ZM27 14L27 15L29 15L29 14ZM9 16L9 17L8 17L8 18L9 18L9 17L10 17L10 16ZM18 16L18 17L20 17L20 16ZM22 17L22 18L25 18L25 17ZM23 19L23 20L24 20L24 19ZM17 21L17 22L16 22L16 23L17 23L17 24L18 24L18 21ZM21 21L21 24L24 24L24 21ZM11 22L11 23L12 23L12 22ZM22 22L22 23L23 23L23 22ZM28 22L28 23L29 23L29 22ZM26 24L26 26L27 26L27 27L28 27L28 28L27 28L27 29L29 29L29 26L27 26L27 25L28 25L28 24ZM8 26L8 27L9 27L9 26ZM10 27L10 28L9 28L9 29L10 29L10 28L11 28L11 29L12 29L12 27ZM0 0L0 7L7 7L7 0ZM1 1L1 6L6 6L6 1ZM2 2L2 5L5 5L5 2ZM22 0L22 7L29 7L29 0ZM23 1L23 6L28 6L28 1ZM24 2L24 5L27 5L27 2ZM0 22L0 29L7 29L7 22ZM1 23L1 28L6 28L6 23ZM2 24L2 27L5 27L5 24Z" fill="#000000"/></g></g></svg>
