<?xml version="1.0" encoding="UTF-8"?>
<svg xmlns="http://www.w3.org/2000/svg" version="1.1" width="200" height="200" viewBox="0 0 200 200"><rect x="0" y="0" width="200" height="200" fill="#ffffff"/><g transform="scale(4.878)"><g transform="translate(0,0)"><path fill-rule="evenodd" d="M8 0L8 3L9 3L9 2L11 2L11 1L12 1L12 2L13 2L13 3L10 3L10 8L9 8L9 5L8 5L8 10L10 10L10 11L11 11L11 5L12 5L12 7L13 7L13 8L12 8L12 9L13 9L13 10L12 10L12 12L9 12L9 11L8 11L8 12L6 12L6 11L7 11L7 10L6 10L6 9L7 9L7 8L6 8L6 9L5 9L5 8L2 8L2 9L1 9L1 10L0 10L0 11L1 11L1 12L2 12L2 11L4 11L4 12L5 12L5 14L6 14L6 15L5 15L5 16L4 16L4 13L3 13L3 16L2 16L2 18L3 18L3 16L4 16L4 17L5 17L5 19L4 19L4 20L6 20L6 21L8 21L8 22L6 22L6 23L8 23L8 24L5 24L5 21L4 21L4 23L3 23L3 22L0 22L0 23L1 23L1 24L0 24L0 25L1 25L1 26L2 26L2 28L1 28L1 27L0 27L0 33L1 33L1 30L3 30L3 29L2 29L2 28L4 28L4 29L5 29L5 30L6 30L6 31L3 31L3 32L4 32L4 33L5 33L5 32L6 32L6 33L7 33L7 32L6 32L6 31L8 31L8 30L6 30L6 29L7 29L7 28L4 28L4 27L3 27L3 25L1 25L1 24L4 24L4 26L5 26L5 27L7 27L7 26L6 26L6 25L8 25L8 24L9 24L9 25L10 25L10 26L8 26L8 27L10 27L10 28L11 28L11 29L9 29L9 28L8 28L8 29L9 29L9 30L12 30L12 31L9 31L9 32L10 32L10 34L9 34L9 33L8 33L8 34L9 34L9 36L8 36L8 39L9 39L9 38L11 38L11 39L10 39L10 41L11 41L11 39L12 39L12 40L16 40L16 41L17 41L17 40L18 40L18 41L19 41L19 40L20 40L20 41L21 41L21 40L20 40L20 39L22 39L22 40L23 40L23 41L24 41L24 40L23 40L23 39L25 39L25 41L26 41L26 39L25 39L25 37L26 37L26 36L27 36L27 37L28 37L28 38L27 38L27 40L28 40L28 41L31 41L31 40L33 40L33 41L34 41L34 40L33 40L33 39L32 39L32 38L34 38L34 39L35 39L35 40L36 40L36 39L37 39L37 40L40 40L40 38L41 38L41 36L40 36L40 34L41 34L41 33L40 33L40 30L41 30L41 29L39 29L39 32L37 32L37 31L38 31L38 30L37 30L37 29L35 29L35 30L34 30L34 31L35 31L35 32L33 32L33 31L32 31L32 30L33 30L33 29L34 29L34 28L33 28L33 29L32 29L32 30L30 30L30 31L31 31L31 33L30 33L30 32L29 32L29 33L28 33L28 31L29 31L29 30L28 30L28 29L31 29L31 28L32 28L32 27L34 27L34 26L35 26L35 27L37 27L37 28L38 28L38 26L39 26L39 27L40 27L40 26L41 26L41 23L39 23L39 22L37 22L37 20L38 20L38 21L39 21L39 20L38 20L38 19L40 19L40 18L41 18L41 16L40 16L40 18L38 18L38 19L37 19L37 20L36 20L36 19L35 19L35 17L36 17L36 18L37 18L37 17L36 17L36 16L38 16L38 17L39 17L39 16L38 16L38 15L40 15L40 14L41 14L41 12L40 12L40 10L41 10L41 8L38 8L38 9L40 9L40 10L37 10L37 9L36 9L36 8L33 8L33 4L30 4L30 5L29 5L29 6L28 6L28 5L27 5L27 4L26 4L26 5L24 5L24 7L23 7L23 6L22 6L22 7L21 7L21 5L23 5L23 4L25 4L25 3L24 3L24 2L23 2L23 1L25 1L25 0L23 0L23 1L22 1L22 2L23 2L23 3L22 3L22 4L19 4L19 3L21 3L21 2L20 2L20 1L19 1L19 0L18 0L18 2L17 2L17 1L16 1L16 2L15 2L15 1L14 1L14 0L10 0L10 1L9 1L9 0ZM26 0L26 1L27 1L27 2L26 2L26 3L28 3L28 4L29 4L29 3L31 3L31 2L30 2L30 0L29 0L29 1L27 1L27 0ZM31 0L31 1L32 1L32 2L33 2L33 1L32 1L32 0ZM16 2L16 3L15 3L15 8L14 8L14 9L15 9L15 10L13 10L13 11L15 11L15 10L17 10L17 11L16 11L16 12L15 12L15 13L16 13L16 12L18 12L18 14L17 14L17 15L16 15L16 14L15 14L15 15L16 15L16 16L17 16L17 18L18 18L18 19L17 19L17 20L18 20L18 19L20 19L20 20L21 20L21 23L19 23L19 22L20 22L20 21L18 21L18 23L16 23L16 24L17 24L17 25L15 25L15 26L14 26L14 24L15 24L15 23L13 23L13 22L14 22L14 21L15 21L15 20L16 20L16 19L14 19L14 20L13 20L13 21L12 21L12 20L11 20L11 19L12 19L12 18L14 18L14 17L15 17L15 18L16 18L16 17L15 17L15 16L14 16L14 15L12 15L12 14L14 14L14 12L12 12L12 14L9 14L9 15L8 15L8 14L7 14L7 13L6 13L6 14L7 14L7 15L6 15L6 16L5 16L5 17L6 17L6 18L7 18L7 17L6 17L6 16L7 16L7 15L8 15L8 17L10 17L10 18L8 18L8 21L10 21L10 22L8 22L8 23L9 23L9 24L10 24L10 23L11 23L11 24L12 24L12 25L11 25L11 26L10 26L10 27L12 27L12 29L13 29L13 30L17 30L17 31L19 31L19 32L16 32L16 33L15 33L15 31L14 31L14 33L13 33L13 34L12 34L12 33L11 33L11 34L10 34L10 35L11 35L11 36L13 36L13 38L12 38L12 37L11 37L11 38L12 38L12 39L14 39L14 37L15 37L15 38L16 38L16 40L17 40L17 38L18 38L18 40L19 40L19 37L20 37L20 36L22 36L22 39L23 39L23 38L24 38L24 37L25 37L25 36L26 36L26 35L25 35L25 36L24 36L24 37L23 37L23 36L22 36L22 35L23 35L23 32L20 32L20 31L22 31L22 28L21 28L21 27L23 27L23 28L24 28L24 29L25 29L25 30L23 30L23 31L25 31L25 33L24 33L24 34L28 34L28 35L27 35L27 36L28 36L28 37L29 37L29 38L30 38L30 39L28 39L28 40L31 40L31 38L30 38L30 37L32 37L32 36L29 36L29 34L28 34L28 33L26 33L26 32L27 32L27 29L26 29L26 28L27 28L27 27L26 27L26 28L25 28L25 27L24 27L24 26L25 26L25 24L26 24L26 23L27 23L27 22L28 22L28 23L29 23L29 24L28 24L28 25L27 25L27 26L28 26L28 28L31 28L31 27L32 27L32 26L34 26L34 25L39 25L39 26L40 26L40 24L39 24L39 23L37 23L37 24L36 24L36 23L35 23L35 22L36 22L36 21L35 21L35 19L34 19L34 18L33 18L33 17L32 17L32 16L34 16L34 17L35 17L35 15L36 15L36 13L37 13L37 14L40 14L40 13L39 13L39 11L38 11L38 12L35 12L35 13L34 13L34 12L33 12L33 11L34 11L34 9L33 9L33 8L32 8L32 5L31 5L31 7L30 7L30 6L29 6L29 7L28 7L28 6L27 6L27 8L31 8L31 9L26 9L26 8L25 8L25 7L26 7L26 6L25 6L25 7L24 7L24 9L23 9L23 8L22 8L22 10L24 10L24 11L22 11L22 12L19 12L19 11L20 11L20 10L21 10L21 9L19 9L19 8L21 8L21 7L20 7L20 5L19 5L19 4L18 4L18 3L17 3L17 2ZM13 4L13 5L14 5L14 4ZM17 4L17 5L16 5L16 7L17 7L17 6L18 6L18 8L15 8L15 9L18 9L18 11L19 11L19 9L18 9L18 8L19 8L19 6L18 6L18 4ZM13 6L13 7L14 7L14 6ZM3 9L3 10L4 10L4 11L6 11L6 10L4 10L4 9ZM25 9L25 10L26 10L26 12L25 12L25 11L24 11L24 12L22 12L22 13L21 13L21 15L24 15L24 16L25 16L25 14L26 14L26 16L27 16L27 14L29 14L29 13L30 13L30 16L29 16L29 15L28 15L28 16L29 16L29 17L31 17L31 18L30 18L30 19L31 19L31 20L30 20L30 21L31 21L31 22L29 22L29 21L28 21L28 20L27 20L27 19L28 19L28 18L27 18L27 17L25 17L25 18L24 18L24 19L25 19L25 18L26 18L26 20L25 20L25 21L23 21L23 22L22 22L22 23L21 23L21 24L19 24L19 25L18 25L18 26L19 26L19 25L22 25L22 26L23 26L23 25L24 25L24 24L23 24L23 23L24 23L24 22L25 22L25 23L26 23L26 20L27 20L27 21L28 21L28 22L29 22L29 23L31 23L31 24L29 24L29 25L28 25L28 26L30 26L30 25L31 25L31 26L32 26L32 25L34 25L34 24L33 24L33 23L31 23L31 22L33 22L33 21L34 21L34 22L35 22L35 21L34 21L34 20L33 20L33 21L31 21L31 20L32 20L32 19L31 19L31 18L32 18L32 17L31 17L31 12L32 12L32 13L33 13L33 14L32 14L32 15L34 15L34 13L33 13L33 12L32 12L32 11L33 11L33 9L31 9L31 10L32 10L32 11L30 11L30 12L29 12L29 11L28 11L28 10L26 10L26 9ZM35 9L35 11L36 11L36 9ZM1 10L1 11L2 11L2 10ZM27 11L27 12L26 12L26 14L27 14L27 12L28 12L28 13L29 13L29 12L28 12L28 11ZM1 13L1 15L2 15L2 13ZM19 13L19 14L20 14L20 13ZM22 13L22 14L24 14L24 13ZM10 15L10 16L11 16L11 17L14 17L14 16L11 16L11 15ZM17 15L17 16L18 16L18 18L22 18L22 19L23 19L23 18L22 18L22 17L21 17L21 16L20 16L20 15ZM0 18L0 21L1 21L1 18ZM10 18L10 19L9 19L9 20L10 20L10 21L11 21L11 23L12 23L12 24L13 24L13 23L12 23L12 21L11 21L11 20L10 20L10 19L11 19L11 18ZM2 19L2 20L3 20L3 19ZM6 19L6 20L7 20L7 19ZM40 20L40 21L41 21L41 20ZM31 24L31 25L32 25L32 24ZM12 25L12 26L13 26L13 25ZM20 26L20 27L21 27L21 26ZM16 27L16 28L13 28L13 29L16 29L16 28L18 28L18 30L19 30L19 31L20 31L20 30L21 30L21 29L20 29L20 28L18 28L18 27ZM19 29L19 30L20 30L20 29ZM25 30L25 31L26 31L26 30ZM35 30L35 31L36 31L36 30ZM12 31L12 32L13 32L13 31ZM19 32L19 34L17 34L17 33L16 33L16 35L14 35L14 36L16 36L16 35L18 35L18 36L17 36L17 37L16 37L16 38L17 38L17 37L18 37L18 36L20 36L20 32ZM14 33L14 34L15 34L15 33ZM21 33L21 35L22 35L22 33ZM31 33L31 34L30 34L30 35L31 35L31 34L32 34L32 33ZM33 33L33 36L36 36L36 33ZM38 33L38 34L37 34L37 36L39 36L39 33ZM34 34L34 35L35 35L35 34ZM34 37L34 38L36 38L36 37ZM37 38L37 39L38 39L38 38ZM0 0L0 7L7 7L7 0ZM1 1L1 6L6 6L6 1ZM2 2L2 5L5 5L5 2ZM34 0L34 7L41 7L41 0ZM35 1L35 6L40 6L40 1ZM36 2L36 5L39 5L39 2ZM0 34L0 41L7 41L7 34ZM1 35L1 40L6 40L6 35ZM2 36L2 39L5 39L5 36Z" fill="#000000"/></g></g></svg>
