<?xml version="1.0" encoding="UTF-8"?>
<svg xmlns="http://www.w3.org/2000/svg" version="1.1" width="200" height="200" viewBox="0 0 200 200"><rect x="0" y="0" width="200" height="200" fill="#ffffff"/><g transform="scale(4.878)"><g transform="translate(0,0)"><path fill-rule="evenodd" d="M8 0L8 3L9 3L9 4L10 4L10 5L8 5L8 9L7 9L7 8L6 8L6 9L5 9L5 8L2 8L2 10L3 10L3 12L2 12L2 11L1 11L1 10L0 10L0 11L1 11L1 12L0 12L0 13L4 13L4 12L5 12L5 13L7 13L7 14L5 14L5 15L4 15L4 14L2 14L2 15L1 15L1 17L2 17L2 18L0 18L0 20L1 20L1 19L2 19L2 21L3 21L3 18L4 18L4 20L5 20L5 18L6 18L6 19L8 19L8 20L10 20L10 21L13 21L13 20L14 20L14 19L13 19L13 18L12 18L12 17L13 17L13 16L12 16L12 17L8 17L8 18L6 18L6 17L7 17L7 16L8 16L8 15L7 15L7 14L9 14L9 13L10 13L10 12L12 12L12 11L11 11L11 10L14 10L14 11L15 11L15 10L18 10L18 11L20 11L20 10L18 10L18 9L19 9L19 8L20 8L20 9L21 9L21 11L22 11L22 12L19 12L19 14L18 14L18 13L17 13L17 14L18 14L18 15L17 15L17 17L19 17L19 19L18 19L18 18L16 18L16 14L15 14L15 13L16 13L16 12L17 12L17 11L16 11L16 12L13 12L13 13L14 13L14 17L15 17L15 18L16 18L16 19L15 19L15 21L14 21L14 22L11 22L11 23L8 23L8 22L9 22L9 21L8 21L8 22L6 22L6 21L7 21L7 20L6 20L6 21L5 21L5 22L1 22L1 23L2 23L2 25L1 25L1 27L0 27L0 33L1 33L1 29L3 29L3 31L2 31L2 33L3 33L3 32L4 32L4 33L5 33L5 32L6 32L6 33L8 33L8 34L9 34L9 36L8 36L8 39L9 39L9 41L10 41L10 39L9 39L9 38L11 38L11 39L12 39L12 38L11 38L11 36L10 36L10 34L11 34L11 35L12 35L12 36L13 36L13 37L14 37L14 40L15 40L15 41L16 41L16 40L18 40L18 41L20 41L20 40L19 40L19 38L20 38L20 39L21 39L21 38L22 38L22 41L25 41L25 40L26 40L26 41L31 41L31 40L33 40L33 41L34 41L34 40L33 40L33 38L34 38L34 39L35 39L35 40L36 40L36 39L37 39L37 40L40 40L40 38L41 38L41 37L40 37L40 36L37 36L37 34L38 34L38 33L39 33L39 35L40 35L40 34L41 34L41 33L39 33L39 32L38 32L38 31L40 31L40 30L41 30L41 28L40 28L40 26L41 26L41 23L39 23L39 22L38 22L38 21L39 21L39 20L36 20L36 19L35 19L35 17L36 17L36 18L37 18L37 17L39 17L39 16L37 16L37 14L38 14L38 15L40 15L40 14L41 14L41 13L40 13L40 14L38 14L38 13L36 13L36 14L35 14L35 17L34 17L34 16L32 16L32 17L30 17L30 16L29 16L29 15L31 15L31 10L32 10L32 9L34 9L34 11L32 11L32 13L33 13L33 14L32 14L32 15L34 15L34 13L35 13L35 11L36 11L36 12L38 12L38 11L40 11L40 12L41 12L41 11L40 11L40 10L41 10L41 8L38 8L38 9L40 9L40 10L37 10L37 9L36 9L36 8L32 8L32 9L30 9L30 8L28 8L28 7L29 7L29 6L28 6L28 5L30 5L30 7L31 7L31 5L33 5L33 4L28 4L28 5L27 5L27 4L26 4L26 7L25 7L25 6L24 6L24 7L23 7L23 6L22 6L22 5L23 5L23 4L22 4L22 2L23 2L23 1L22 1L22 2L21 2L21 4L22 4L22 5L20 5L20 3L18 3L18 2L19 2L19 0L17 0L17 2L16 2L16 5L17 5L17 6L16 6L16 7L15 7L15 6L14 6L14 7L13 7L13 5L14 5L14 3L15 3L15 1L16 1L16 0L12 0L12 1L11 1L11 2L12 2L12 4L11 4L11 3L10 3L10 0ZM24 0L24 1L25 1L25 0ZM26 0L26 1L27 1L27 2L26 2L26 3L33 3L33 2L30 2L30 1L33 1L33 0L29 0L29 1L27 1L27 0ZM24 2L24 4L25 4L25 2ZM17 3L17 5L19 5L19 4L18 4L18 3ZM12 4L12 5L13 5L13 4ZM9 6L9 8L11 8L11 9L12 9L12 8L13 8L13 7L12 7L12 6L11 6L11 7L10 7L10 6ZM17 6L17 7L16 7L16 8L17 8L17 9L18 9L18 8L19 8L19 7L20 7L20 8L21 8L21 9L22 9L22 10L24 10L24 8L25 8L25 7L24 7L24 8L23 8L23 7L22 7L22 6L21 6L21 7L20 7L20 6L19 6L19 7L18 7L18 6ZM27 6L27 7L26 7L26 8L27 8L27 10L30 10L30 9L28 9L28 8L27 8L27 7L28 7L28 6ZM32 6L32 7L33 7L33 6ZM21 7L21 8L22 8L22 7ZM4 9L4 10L5 10L5 9ZM6 9L6 10L7 10L7 11L5 11L5 12L8 12L8 10L7 10L7 9ZM35 9L35 10L36 10L36 11L37 11L37 10L36 10L36 9ZM9 10L9 11L10 11L10 10ZM23 11L23 13L20 13L20 14L19 14L19 15L20 15L20 16L21 16L21 15L22 15L22 18L21 18L21 17L20 17L20 19L19 19L19 21L18 21L18 19L17 19L17 21L15 21L15 22L14 22L14 24L13 24L13 25L14 25L14 24L15 24L15 26L16 26L16 27L17 27L17 26L16 26L16 25L18 25L18 26L19 26L19 27L18 27L18 28L20 28L20 26L21 26L21 28L22 28L22 29L21 29L21 30L23 30L23 31L24 31L24 30L26 30L26 31L25 31L25 33L23 33L23 34L22 34L22 33L20 33L20 32L19 32L19 31L20 31L20 30L19 30L19 29L17 29L17 30L14 30L14 28L15 28L15 27L14 27L14 26L12 26L12 25L9 25L9 24L8 24L8 23L6 23L6 24L8 24L8 25L6 25L6 26L7 26L7 27L6 27L6 28L4 28L4 29L6 29L6 30L5 30L5 31L4 31L4 32L5 32L5 31L6 31L6 32L8 32L8 33L9 33L9 30L10 30L10 31L11 31L11 32L10 32L10 33L11 33L11 34L13 34L13 36L15 36L15 38L17 38L17 39L18 39L18 38L19 38L19 37L18 37L18 38L17 38L17 37L16 37L16 34L18 34L18 33L19 33L19 34L22 34L22 36L21 36L21 35L17 35L17 36L20 36L20 38L21 38L21 37L22 37L22 36L24 36L24 37L23 37L23 39L24 39L24 38L25 38L25 39L26 39L26 38L25 38L25 35L24 35L24 34L25 34L25 33L26 33L26 34L29 34L29 33L27 33L27 28L26 28L26 27L24 27L24 26L23 26L23 25L22 25L22 26L21 26L21 23L20 23L20 22L19 22L19 21L20 21L20 19L21 19L21 21L22 21L22 22L23 22L23 20L24 20L24 21L26 21L26 22L24 22L24 23L26 23L26 24L27 24L27 22L30 22L30 23L29 23L29 24L30 24L30 25L32 25L32 26L29 26L29 25L27 25L27 26L29 26L29 27L28 27L28 28L30 28L30 29L28 29L28 30L30 30L30 31L28 31L28 32L30 32L30 33L31 33L31 32L30 32L30 31L31 31L31 30L32 30L32 31L33 31L33 32L36 32L36 31L37 31L37 30L39 30L39 26L40 26L40 24L39 24L39 23L38 23L38 22L37 22L37 24L36 24L36 23L35 23L35 22L36 22L36 21L35 21L35 19L34 19L34 18L33 18L33 17L32 17L32 18L31 18L31 19L30 19L30 17L29 17L29 16L28 16L28 15L29 15L29 14L30 14L30 13L29 13L29 12L30 12L30 11L29 11L29 12L28 12L28 11L27 11L27 12L26 12L26 11ZM24 12L24 13L25 13L25 14L24 14L24 15L27 15L27 14L29 14L29 13L28 13L28 12L27 12L27 14L26 14L26 12ZM33 12L33 13L34 13L34 12ZM11 13L11 15L10 15L10 16L11 16L11 15L12 15L12 13ZM2 15L2 16L3 16L3 17L4 17L4 18L5 18L5 16L7 16L7 15L5 15L5 16L3 16L3 15ZM24 16L24 17L23 17L23 19L24 19L24 18L25 18L25 19L26 19L26 18L25 18L25 17L26 17L26 16ZM36 16L36 17L37 17L37 16ZM40 16L40 18L38 18L38 19L40 19L40 18L41 18L41 16ZM9 18L9 19L10 19L10 20L11 20L11 19L12 19L12 20L13 20L13 19L12 19L12 18L11 18L11 19L10 19L10 18ZM27 18L27 21L29 21L29 20L28 20L28 18ZM32 19L32 21L31 21L31 20L30 20L30 21L31 21L31 22L32 22L32 25L34 25L34 26L32 26L32 27L31 27L31 28L33 28L33 29L32 29L32 30L33 30L33 29L34 29L34 28L33 28L33 27L34 27L34 26L36 26L36 28L35 28L35 29L36 29L36 30L37 30L37 29L36 29L36 28L38 28L38 26L39 26L39 25L34 25L34 24L33 24L33 22L32 22L32 21L34 21L34 22L35 22L35 21L34 21L34 20L33 20L33 19ZM40 20L40 21L41 21L41 20ZM17 21L17 22L15 22L15 23L16 23L16 24L17 24L17 23L18 23L18 25L19 25L19 24L20 24L20 23L19 23L19 22L18 22L18 21ZM3 23L3 25L2 25L2 27L1 27L1 28L2 28L2 27L4 27L4 26L5 26L5 25L4 25L4 23ZM11 23L11 24L12 24L12 23ZM30 23L30 24L31 24L31 23ZM8 25L8 27L7 27L7 28L6 28L6 29L7 29L7 28L8 28L8 27L9 27L9 29L10 29L10 28L11 28L11 29L12 29L12 28L13 28L13 27L12 27L12 26L11 26L11 27L10 27L10 26L9 26L9 25ZM11 27L11 28L12 28L12 27ZM22 27L22 28L24 28L24 27ZM23 29L23 30L24 30L24 29ZM30 29L30 30L31 30L31 29ZM6 30L6 31L8 31L8 30ZM13 30L13 31L12 31L12 32L11 32L11 33L14 33L14 35L15 35L15 33L14 33L14 32L16 32L16 33L18 33L18 30L17 30L17 32L16 32L16 31L14 31L14 30ZM34 30L34 31L35 31L35 30ZM37 32L37 33L38 33L38 32ZM33 33L33 36L36 36L36 33ZM30 34L30 35L31 35L31 36L29 36L29 35L28 35L28 37L27 37L27 36L26 36L26 37L27 37L27 38L28 38L28 39L27 39L27 40L31 40L31 39L32 39L32 38L33 38L33 37L32 37L32 35L31 35L31 34ZM34 34L34 35L35 35L35 34ZM28 37L28 38L29 38L29 39L31 39L31 37L30 37L30 38L29 38L29 37ZM34 37L34 38L36 38L36 37ZM37 38L37 39L38 39L38 38ZM15 39L15 40L16 40L16 39ZM12 40L12 41L13 41L13 40ZM0 0L0 7L7 7L7 0ZM1 1L1 6L6 6L6 1ZM2 2L2 5L5 5L5 2ZM34 0L34 7L41 7L41 0ZM35 1L35 6L40 6L40 1ZM36 2L36 5L39 5L39 2ZM0 34L0 41L7 41L7 34ZM1 35L1 40L6 40L6 35ZM2 36L2 39L5 39L5 36Z" fill="#000000"/></g></g></svg>
