<?xml version="1.0" encoding="UTF-8"?>
<svg xmlns="http://www.w3.org/2000/svg" version="1.1" width="200" height="200" viewBox="0 0 200 200"><rect x="0" y="0" width="200" height="200" fill="#ffffff"/><g transform="scale(4.878)"><g transform="translate(0,0)"><path fill-rule="evenodd" d="M8 0L8 1L9 1L9 2L8 2L8 3L9 3L9 4L8 4L8 5L9 5L9 6L8 6L8 8L9 8L9 9L8 9L8 11L7 11L7 10L6 10L6 11L7 11L7 12L4 12L4 13L3 13L3 11L5 11L5 9L7 9L7 8L5 8L5 9L4 9L4 10L3 10L3 9L2 9L2 14L1 14L1 12L0 12L0 14L1 14L1 15L2 15L2 16L1 16L1 17L2 17L2 18L3 18L3 20L4 20L4 21L5 21L5 22L6 22L6 23L4 23L4 22L2 22L2 21L0 21L0 24L1 24L1 25L2 25L2 26L3 26L3 27L1 27L1 26L0 26L0 27L1 27L1 29L0 29L0 33L1 33L1 31L2 31L2 32L3 32L3 31L5 31L5 33L7 33L7 32L8 32L8 34L9 34L9 29L10 29L10 34L11 34L11 32L12 32L12 33L13 33L13 34L12 34L12 35L11 35L11 36L9 36L9 35L8 35L8 36L9 36L9 37L11 37L11 36L12 36L12 35L14 35L14 33L16 33L16 32L17 32L17 34L15 34L15 35L16 35L16 36L18 36L18 37L20 37L20 39L18 39L18 41L21 41L21 39L22 39L22 40L23 40L23 39L24 39L24 41L25 41L25 40L26 40L26 39L28 39L28 41L31 41L31 40L32 40L32 39L31 39L31 37L32 37L32 38L33 38L33 37L36 37L36 38L34 38L34 39L33 39L33 41L34 41L34 40L36 40L36 39L37 39L37 40L38 40L38 39L40 39L40 40L41 40L41 39L40 39L40 38L41 38L41 36L40 36L40 34L39 34L39 36L40 36L40 38L39 38L39 37L37 37L37 35L38 35L38 34L37 34L37 33L41 33L41 32L37 32L37 31L38 31L38 30L37 30L37 29L35 29L35 32L34 32L34 31L33 31L33 30L34 30L34 28L35 28L35 27L36 27L36 28L39 28L39 29L40 29L40 30L39 30L39 31L41 31L41 27L40 27L40 26L41 26L41 25L39 25L39 24L37 24L37 21L38 21L38 23L39 23L39 22L41 22L41 20L40 20L40 19L41 19L41 15L38 15L38 16L37 16L37 15L34 15L34 14L32 14L32 17L31 17L31 16L29 16L29 17L31 17L31 18L29 18L29 19L28 19L28 17L27 17L27 18L26 18L26 17L25 17L25 19L28 19L28 20L27 20L27 23L26 23L26 22L24 22L24 23L22 23L22 22L23 22L23 21L24 21L24 20L23 20L23 21L22 21L22 18L20 18L20 17L23 17L23 15L24 15L24 16L28 16L28 15L27 15L27 14L26 14L26 13L28 13L28 14L29 14L29 15L31 15L31 13L32 13L32 11L33 11L33 10L34 10L34 12L35 12L35 13L36 13L36 14L37 14L37 13L38 13L38 14L39 14L39 12L40 12L40 14L41 14L41 11L40 11L40 9L41 9L41 8L40 8L40 9L39 9L39 8L38 8L38 10L37 10L37 8L36 8L36 10L34 10L34 9L35 9L35 8L34 8L34 9L33 9L33 10L32 10L32 9L31 9L31 6L30 6L30 5L33 5L33 3L32 3L32 4L30 4L30 5L28 5L28 7L29 7L29 6L30 6L30 8L29 8L29 9L31 9L31 10L29 10L29 11L28 11L28 8L27 8L27 4L28 4L28 3L31 3L31 2L30 2L30 1L29 1L29 0L28 0L28 2L26 2L26 7L25 7L25 3L23 3L23 5L22 5L22 4L21 4L21 3L22 3L22 2L25 2L25 1L26 1L26 0L23 0L23 1L22 1L22 2L21 2L21 0L19 0L19 1L18 1L18 3L19 3L19 1L20 1L20 2L21 2L21 3L20 3L20 4L17 4L17 5L16 5L16 8L15 8L15 6L14 6L14 5L15 5L15 4L16 4L16 2L17 2L17 0L12 0L12 1L11 1L11 0L10 0L10 1L9 1L9 0ZM32 0L32 1L33 1L33 0ZM10 1L10 4L9 4L9 5L11 5L11 7L10 7L10 6L9 6L9 8L10 8L10 9L9 9L9 11L10 11L10 9L11 9L11 7L12 7L12 5L11 5L11 4L15 4L15 2L16 2L16 1L15 1L15 2L14 2L14 1L12 1L12 2L11 2L11 1ZM12 2L12 3L14 3L14 2ZM20 5L20 6L19 6L19 7L18 7L18 6L17 6L17 7L18 7L18 8L19 8L19 7L20 7L20 8L21 8L21 9L18 9L18 10L17 10L17 9L16 9L16 10L15 10L15 9L13 9L13 8L12 8L12 9L13 9L13 10L11 10L11 11L12 11L12 12L10 12L10 13L6 13L6 14L8 14L8 16L7 16L7 15L6 15L6 16L4 16L4 15L3 15L3 14L2 14L2 15L3 15L3 16L2 16L2 17L4 17L4 20L5 20L5 18L7 18L7 17L8 17L8 18L9 18L9 19L8 19L8 20L9 20L9 19L10 19L10 21L11 21L11 22L8 22L8 23L6 23L6 24L5 24L5 25L4 25L4 23L3 23L3 24L2 24L2 23L1 23L1 24L2 24L2 25L3 25L3 26L4 26L4 27L3 27L3 28L4 28L4 27L6 27L6 28L8 28L8 29L5 29L5 30L7 30L7 31L6 31L6 32L7 32L7 31L8 31L8 29L9 29L9 28L10 28L10 27L9 27L9 26L8 26L8 25L6 25L6 24L9 24L9 25L10 25L10 26L11 26L11 28L12 28L12 27L15 27L15 29L11 29L11 31L12 31L12 32L13 32L13 33L14 33L14 32L13 32L13 31L12 31L12 30L15 30L15 32L16 32L16 29L17 29L17 31L18 31L18 33L19 33L19 34L20 34L20 35L19 35L19 36L20 36L20 37L21 37L21 38L22 38L22 39L23 39L23 38L27 38L27 37L28 37L28 38L29 38L29 40L30 40L30 37L31 37L31 36L32 36L32 35L31 35L31 33L30 33L30 35L31 35L31 36L30 36L30 37L29 37L29 32L31 32L31 31L32 31L32 29L33 29L33 28L32 28L32 26L31 26L31 25L30 25L30 23L32 23L32 24L36 24L36 25L37 25L37 24L36 24L36 23L35 23L35 22L36 22L36 21L35 21L35 18L36 18L36 20L39 20L39 21L40 21L40 20L39 20L39 17L40 17L40 16L39 16L39 17L37 17L37 16L36 16L36 17L35 17L35 16L34 16L34 17L32 17L32 20L31 20L31 19L29 19L29 22L28 22L28 23L27 23L27 24L29 24L29 25L30 25L30 26L28 26L28 27L27 27L27 26L26 26L26 25L25 25L25 26L26 26L26 27L27 27L27 28L26 28L26 29L25 29L25 27L23 27L23 25L24 25L24 24L26 24L26 23L24 23L24 24L21 24L21 25L20 25L20 24L19 24L19 26L18 26L18 27L17 27L17 28L16 28L16 27L15 27L15 25L14 25L14 24L15 24L15 23L16 23L16 25L17 25L17 23L16 23L16 22L19 22L19 21L20 21L20 23L21 23L21 22L22 22L22 21L21 21L21 20L20 20L20 18L19 18L19 17L20 17L20 16L19 16L19 14L21 14L21 15L23 15L23 14L24 14L24 15L25 15L25 14L24 14L24 13L25 13L25 11L26 11L26 12L28 12L28 11L26 11L26 10L27 10L27 9L24 9L24 8L23 8L23 10L24 10L24 11L21 11L21 10L22 10L22 5ZM23 5L23 7L24 7L24 5ZM13 6L13 7L14 7L14 6ZM20 6L20 7L21 7L21 6ZM32 6L32 8L33 8L33 6ZM0 10L0 11L1 11L1 10ZM14 10L14 12L13 12L13 13L12 13L12 14L13 14L13 13L15 13L15 14L14 14L14 15L12 15L12 16L13 16L13 17L12 17L12 18L10 18L10 19L13 19L13 20L11 20L11 21L13 21L13 20L14 20L14 22L11 22L11 23L9 23L9 24L11 24L11 26L13 26L13 25L12 25L12 24L11 24L11 23L13 23L13 24L14 24L14 22L15 22L15 21L17 21L17 20L18 20L18 21L19 21L19 20L18 20L18 19L19 19L19 18L18 18L18 19L17 19L17 20L16 20L16 19L14 19L14 18L17 18L17 17L16 17L16 16L18 16L18 15L16 15L16 14L19 14L19 13L21 13L21 14L22 14L22 12L19 12L19 11L15 11L15 10ZM31 10L31 11L32 11L32 10ZM29 11L29 14L30 14L30 11ZM35 11L35 12L36 12L36 13L37 13L37 12L36 12L36 11ZM38 11L38 12L39 12L39 11ZM16 12L16 13L18 13L18 12ZM23 12L23 13L24 13L24 12ZM10 13L10 14L9 14L9 16L11 16L11 15L10 15L10 14L11 14L11 13ZM15 15L15 16L14 16L14 17L13 17L13 18L14 18L14 17L15 17L15 16L16 16L16 15ZM6 16L6 17L7 17L7 16ZM34 17L34 18L35 18L35 17ZM36 17L36 18L37 18L37 19L38 19L38 18L37 18L37 17ZM0 18L0 19L1 19L1 20L2 20L2 19L1 19L1 18ZM6 19L6 20L7 20L7 19ZM33 19L33 20L32 20L32 21L31 21L31 20L30 20L30 21L31 21L31 22L33 22L33 23L34 23L34 19ZM25 20L25 21L26 21L26 20ZM6 21L6 22L7 22L7 21ZM40 23L40 24L41 24L41 23ZM21 25L21 30L20 30L20 28L19 28L19 27L18 27L18 28L17 28L17 29L18 29L18 30L20 30L20 31L21 31L21 32L22 32L22 30L24 30L24 29L23 29L23 27L22 27L22 25ZM6 26L6 27L7 27L7 26ZM34 26L34 27L35 27L35 26ZM38 26L38 27L39 27L39 28L40 28L40 27L39 27L39 26ZM28 27L28 28L27 28L27 29L26 29L26 31L24 31L24 32L26 32L26 31L28 31L28 30L27 30L27 29L31 29L31 28L29 28L29 27ZM18 28L18 29L19 29L19 28ZM1 29L1 30L2 30L2 31L3 31L3 30L4 30L4 29L3 29L3 30L2 30L2 29ZM29 30L29 31L30 31L30 30ZM19 32L19 33L20 33L20 32ZM27 32L27 34L25 34L25 35L24 35L24 33L23 33L23 35L22 35L22 36L21 36L21 37L22 37L22 36L23 36L23 37L26 37L26 36L25 36L25 35L28 35L28 32ZM21 33L21 34L22 34L22 33ZM33 33L33 36L36 36L36 33ZM34 34L34 35L35 35L35 34ZM13 36L13 37L12 37L12 38L9 38L9 41L11 41L11 40L12 40L12 41L15 41L15 40L16 40L16 41L17 41L17 40L16 40L16 38L15 38L15 36ZM13 37L13 38L12 38L12 40L15 40L15 38L14 38L14 37ZM13 38L13 39L14 39L14 38ZM37 38L37 39L38 39L38 38ZM0 0L0 7L7 7L7 0ZM1 1L1 6L6 6L6 1ZM2 2L2 5L5 5L5 2ZM34 0L34 7L41 7L41 0ZM35 1L35 6L40 6L40 1ZM36 2L36 5L39 5L39 2ZM0 34L0 41L7 41L7 34ZM1 35L1 40L6 40L6 35ZM2 36L2 39L5 39L5 36Z" fill="#000000"/></g></g></svg>
