<?xml version="1.0" encoding="UTF-8"?>
<svg xmlns="http://www.w3.org/2000/svg" version="1.1" width="200" height="200" viewBox="0 0 200 200"><rect x="0" y="0" width="200" height="200" fill="#ffffff"/><g transform="scale(6.897)"><g transform="translate(0,0)"><path fill-rule="evenodd" d="M9 0L9 1L8 1L8 7L9 7L9 6L10 6L10 7L11 7L11 6L10 6L10 5L11 5L11 4L12 4L12 3L14 3L14 4L15 4L15 6L14 6L14 5L12 5L12 7L13 7L13 6L14 6L14 8L13 8L13 10L12 10L12 11L11 11L11 9L12 9L12 8L10 8L10 10L9 10L9 8L5 8L5 9L3 9L3 8L2 8L2 9L3 9L3 11L4 11L4 10L6 10L6 11L5 11L5 13L7 13L7 12L6 12L6 11L7 11L7 10L8 10L8 12L9 12L9 14L6 14L6 15L5 15L5 14L4 14L4 13L3 13L3 12L2 12L2 10L1 10L1 9L0 9L0 10L1 10L1 12L2 12L2 13L0 13L0 14L1 14L1 15L0 15L0 17L1 17L1 18L0 18L0 19L3 19L3 21L4 21L4 20L6 20L6 21L8 21L8 24L10 24L10 25L11 25L11 26L12 26L12 27L11 27L11 28L12 28L12 27L13 27L13 28L14 28L14 27L13 27L13 26L12 26L12 25L11 25L11 23L12 23L12 24L13 24L13 25L14 25L14 23L13 23L13 22L14 22L14 21L13 21L13 22L12 22L12 20L13 20L13 19L15 19L15 20L16 20L16 19L18 19L18 17L20 17L20 16L17 16L17 14L18 14L18 15L21 15L21 19L22 19L22 20L19 20L19 21L18 21L18 20L17 20L17 21L15 21L15 22L16 22L16 23L15 23L15 24L16 24L16 25L15 25L15 28L16 28L16 29L19 29L19 28L17 28L17 27L16 27L16 25L18 25L18 26L20 26L20 27L21 27L21 29L22 29L22 28L24 28L24 29L26 29L26 27L28 27L28 28L27 28L27 29L29 29L29 26L26 26L26 25L27 25L27 24L28 24L28 25L29 25L29 24L28 24L28 23L29 23L29 21L27 21L27 18L28 18L28 19L29 19L29 18L28 18L28 17L29 17L29 16L28 16L28 15L29 15L29 14L27 14L27 17L25 17L25 16L22 16L22 15L25 15L25 14L26 14L26 13L29 13L29 12L27 12L27 11L29 11L29 9L28 9L28 8L23 8L23 10L22 10L22 11L21 11L21 9L22 9L22 8L20 8L20 7L21 7L21 0L19 0L19 1L20 1L20 2L19 2L19 3L20 3L20 5L19 5L19 4L18 4L18 5L17 5L17 3L18 3L18 2L17 2L17 3L14 3L14 2L11 2L11 1L13 1L13 0ZM14 0L14 1L15 1L15 2L16 2L16 1L18 1L18 0L16 0L16 1L15 1L15 0ZM10 2L10 3L11 3L11 2ZM9 4L9 5L10 5L10 4ZM16 5L16 6L15 6L15 7L16 7L16 6L17 6L17 7L18 7L18 10L17 10L17 11L16 11L16 12L17 12L17 13L16 13L16 14L17 14L17 13L18 13L18 12L17 12L17 11L18 11L18 10L19 10L19 11L20 11L20 8L19 8L19 7L20 7L20 6L19 6L19 7L18 7L18 6L17 6L17 5ZM14 8L14 9L15 9L15 10L16 10L16 9L15 9L15 8ZM6 9L6 10L7 10L7 9ZM27 9L27 10L24 10L24 11L27 11L27 10L28 10L28 9ZM13 10L13 11L14 11L14 12L11 12L11 11L10 11L10 14L9 14L9 16L8 16L8 18L7 18L7 17L6 17L6 18L7 18L7 19L6 19L6 20L7 20L7 19L9 19L9 21L10 21L10 19L11 19L11 20L12 20L12 19L11 19L11 16L10 16L10 14L11 14L11 15L13 15L13 17L12 17L12 18L15 18L15 19L16 19L16 18L17 18L17 17L14 17L14 14L11 14L11 13L15 13L15 11L14 11L14 10ZM19 12L19 14L22 14L22 12L21 12L21 13L20 13L20 12ZM23 12L23 14L25 14L25 13L24 13L24 12ZM2 13L2 14L3 14L3 15L2 15L2 16L3 16L3 19L4 19L4 16L3 16L3 15L4 15L4 14L3 14L3 13ZM6 15L6 16L7 16L7 15ZM9 16L9 19L10 19L10 16ZM22 17L22 18L25 18L25 20L26 20L26 18L25 18L25 17ZM19 18L19 19L20 19L20 18ZM23 19L23 20L24 20L24 19ZM0 20L0 21L2 21L2 20ZM19 21L19 22L20 22L20 21ZM21 21L21 24L24 24L24 21ZM26 21L26 23L25 23L25 25L21 25L21 26L22 26L22 27L23 27L23 26L24 26L24 28L25 28L25 25L26 25L26 24L27 24L27 23L28 23L28 22L27 22L27 21ZM9 22L9 23L11 23L11 22ZM22 22L22 23L23 23L23 22ZM18 23L18 25L19 25L19 24L20 24L20 23ZM8 26L8 27L9 27L9 26ZM0 0L0 7L7 7L7 0ZM1 1L1 6L6 6L6 1ZM2 2L2 5L5 5L5 2ZM22 0L22 7L29 7L29 0ZM23 1L23 6L28 6L28 1ZM24 2L24 5L27 5L27 2ZM0 22L0 29L7 29L7 22ZM1 23L1 28L6 28L6 23ZM2 24L2 27L5 27L5 24Z" fill="#000000"/></g></g></svg>
