<?xml version="1.0" encoding="UTF-8"?>
<svg xmlns="http://www.w3.org/2000/svg" version="1.1" width="200" height="200" viewBox="0 0 200 200"><rect x="0" y="0" width="200" height="200" fill="#ffffff"/><g transform="scale(4.878)"><g transform="translate(0,0)"><path fill-rule="evenodd" d="M8 0L8 3L9 3L9 2L10 2L10 0ZM11 0L11 2L12 2L12 4L9 4L9 5L8 5L8 9L7 9L7 8L6 8L6 9L5 9L5 8L2 8L2 10L1 10L1 13L2 13L2 14L1 14L1 16L0 16L0 17L2 17L2 16L3 16L3 18L0 18L0 22L2 22L2 24L1 24L1 27L2 27L2 28L0 28L0 33L1 33L1 30L2 30L2 31L3 31L3 33L5 33L5 31L4 31L4 30L6 30L6 31L7 31L7 30L6 30L6 29L8 29L8 34L9 34L9 36L8 36L8 39L11 39L11 38L12 38L12 39L15 39L15 38L14 38L14 37L13 37L13 36L16 36L16 39L17 39L17 40L18 40L18 39L17 39L17 36L16 36L16 34L15 34L15 33L14 33L14 34L13 34L13 35L12 35L12 34L11 34L11 36L12 36L12 37L10 37L10 33L13 33L13 32L12 32L12 31L14 31L14 30L16 30L16 31L15 31L15 32L16 32L16 33L17 33L17 32L16 32L16 31L18 31L18 32L19 32L19 31L20 31L20 33L21 33L21 34L23 34L23 35L20 35L20 34L19 34L19 33L18 33L18 34L19 34L19 35L20 35L20 36L22 36L22 40L21 40L21 37L19 37L19 38L20 38L20 39L19 39L19 40L20 40L20 41L23 41L23 40L24 40L24 41L26 41L26 40L25 40L25 39L26 39L26 38L27 38L27 40L28 40L28 38L27 38L27 37L29 37L29 36L31 36L31 35L32 35L32 38L34 38L34 39L35 39L35 40L36 40L36 39L37 39L37 40L40 40L40 38L41 38L41 37L40 37L40 36L41 36L41 35L40 35L40 34L41 34L41 33L40 33L40 32L38 32L38 31L40 31L40 30L41 30L41 28L39 28L39 30L38 30L38 29L36 29L36 28L38 28L38 26L39 26L39 27L40 27L40 26L41 26L41 23L39 23L39 24L40 24L40 26L39 26L39 25L34 25L34 24L32 24L32 25L31 25L31 24L29 24L29 23L31 23L31 22L32 22L32 23L33 23L33 21L34 21L34 22L35 22L35 23L36 23L36 24L37 24L37 22L38 22L38 21L39 21L39 20L38 20L38 19L37 19L37 20L36 20L36 19L35 19L35 17L36 17L36 18L38 18L38 17L39 17L39 18L41 18L41 16L40 16L40 17L39 17L39 16L37 16L37 17L36 17L36 16L35 16L35 17L34 17L34 16L32 16L32 17L30 17L30 16L31 16L31 10L34 10L34 11L33 11L33 12L32 12L32 13L33 13L33 14L32 14L32 15L34 15L34 13L35 13L35 11L36 11L36 12L38 12L38 11L39 11L39 12L41 12L41 11L40 11L40 10L41 10L41 8L38 8L38 9L40 9L40 10L37 10L37 9L36 9L36 8L33 8L33 9L30 9L30 8L32 8L32 7L33 7L33 6L32 6L32 7L31 7L31 6L30 6L30 8L28 8L28 7L29 7L29 6L28 6L28 5L29 5L29 4L28 4L28 5L27 5L27 4L24 4L24 3L23 3L23 2L25 2L25 1L24 1L24 0L21 0L21 3L20 3L20 7L19 7L19 6L18 6L18 8L20 8L20 10L17 10L17 11L21 11L21 12L20 12L20 13L19 13L19 12L16 12L16 11L15 11L15 10L14 10L14 11L11 11L11 10L13 10L13 9L14 9L14 7L15 7L15 6L16 6L16 8L15 8L15 9L17 9L17 6L16 6L16 5L15 5L15 4L16 4L16 3L15 3L15 2L14 2L14 1L18 1L18 0L13 0L13 2L12 2L12 0ZM26 0L26 1L27 1L27 2L26 2L26 3L32 3L32 4L30 4L30 5L32 5L32 4L33 4L33 3L32 3L32 2L30 2L30 0L29 0L29 1L27 1L27 0ZM31 0L31 1L32 1L32 0ZM19 1L19 2L20 2L20 1ZM22 1L22 2L23 2L23 1ZM17 2L17 5L18 5L18 2ZM13 3L13 4L12 4L12 5L11 5L11 8L10 8L10 10L9 10L9 9L8 9L8 10L7 10L7 9L6 9L6 10L7 10L7 11L6 11L6 12L5 12L5 10L4 10L4 9L3 9L3 11L2 11L2 12L3 12L3 13L4 13L4 17L5 17L5 18L4 18L4 20L1 20L1 21L2 21L2 22L4 22L4 21L5 21L5 18L7 18L7 19L6 19L6 20L7 20L7 21L6 21L6 22L7 22L7 23L6 23L6 24L3 24L3 25L2 25L2 26L4 26L4 27L3 27L3 28L2 28L2 29L3 29L3 30L4 30L4 29L6 29L6 28L8 28L8 27L6 27L6 26L8 26L8 25L6 25L6 24L10 24L10 23L11 23L11 22L12 22L12 24L11 24L11 25L9 25L9 26L11 26L11 27L10 27L10 28L9 28L9 29L10 29L10 30L14 30L14 29L13 29L13 28L12 28L12 27L13 27L13 26L11 26L11 25L14 25L14 26L15 26L15 27L14 27L14 28L15 28L15 29L17 29L17 30L18 30L18 31L19 31L19 30L20 30L20 31L22 31L22 32L21 32L21 33L23 33L23 34L24 34L24 35L23 35L23 37L24 37L24 38L23 38L23 39L25 39L25 37L27 37L27 36L25 36L25 37L24 37L24 35L26 35L26 33L27 33L27 34L28 34L28 36L29 36L29 33L27 33L27 32L26 32L26 31L25 31L25 30L24 30L24 28L32 28L32 29L28 29L28 30L29 30L29 31L28 31L28 32L31 32L31 31L30 31L30 30L32 30L32 31L33 31L33 32L35 32L35 31L38 31L38 30L36 30L36 29L35 29L35 27L36 27L36 26L34 26L34 25L32 25L32 26L31 26L31 25L30 25L30 26L29 26L29 25L27 25L27 24L28 24L28 23L29 23L29 22L31 22L31 21L33 21L33 20L34 20L34 21L35 21L35 22L36 22L36 21L35 21L35 19L34 19L34 18L33 18L33 17L32 17L32 18L31 18L31 19L30 19L30 17L29 17L29 16L30 16L30 14L27 14L27 12L25 12L25 13L26 13L26 16L23 16L23 14L22 14L22 16L23 16L23 17L21 17L21 18L18 18L18 16L19 16L19 17L20 17L20 16L21 16L21 14L19 14L19 13L17 13L17 14L15 14L15 12L14 12L14 13L13 13L13 14L12 14L12 15L10 15L10 13L8 13L8 12L9 12L9 11L10 11L10 10L11 10L11 8L13 8L13 7L14 7L14 6L15 6L15 5L14 5L14 6L13 6L13 7L12 7L12 5L13 5L13 4L15 4L15 3ZM22 3L22 4L21 4L21 5L22 5L22 6L21 6L21 8L22 8L22 10L23 10L23 8L24 8L24 10L25 10L25 9L27 9L27 10L26 10L26 11L27 11L27 10L29 10L29 11L28 11L28 13L29 13L29 12L30 12L30 9L27 9L27 7L28 7L28 6L27 6L27 5L25 5L25 7L26 7L26 8L24 8L24 6L23 6L23 5L24 5L24 4L23 4L23 3ZM22 4L22 5L23 5L23 4ZM9 5L9 7L10 7L10 5ZM22 6L22 7L23 7L23 6ZM26 6L26 7L27 7L27 6ZM36 10L36 11L37 11L37 10ZM23 11L23 12L24 12L24 11ZM4 12L4 13L5 13L5 15L8 15L8 17L7 17L7 16L5 16L5 17L7 17L7 18L8 18L8 20L9 20L9 22L8 22L8 21L7 21L7 22L8 22L8 23L10 23L10 21L11 21L11 20L12 20L12 21L13 21L13 23L14 23L14 24L15 24L15 25L17 25L17 26L16 26L16 27L15 27L15 28L16 28L16 27L17 27L17 28L18 28L18 29L19 29L19 27L18 27L18 26L20 26L20 27L21 27L21 26L20 26L20 24L21 24L21 23L22 23L22 25L24 25L24 23L25 23L25 24L27 24L27 23L28 23L28 22L27 22L27 21L29 21L29 18L27 18L27 20L26 20L26 18L25 18L25 17L23 17L23 19L21 19L21 21L20 21L20 20L19 20L19 21L18 21L18 22L19 22L19 23L18 23L18 24L16 24L16 23L17 23L17 20L18 20L18 18L17 18L17 19L16 19L16 18L15 18L15 17L17 17L17 16L15 16L15 14L13 14L13 18L11 18L11 17L12 17L12 16L11 16L11 17L10 17L10 18L9 18L9 16L10 16L10 15L8 15L8 13L7 13L7 12L6 12L6 13L5 13L5 12ZM11 12L11 13L12 13L12 12ZM21 12L21 13L22 13L22 12ZM33 12L33 13L34 13L34 12ZM6 13L6 14L7 14L7 13ZM36 13L36 14L35 14L35 15L39 15L39 14L41 14L41 13L39 13L39 14L37 14L37 13ZM28 15L28 16L29 16L29 15ZM14 16L14 17L15 17L15 16ZM26 16L26 17L27 17L27 16ZM13 18L13 19L12 19L12 20L13 20L13 21L15 21L15 22L14 22L14 23L15 23L15 22L16 22L16 21L15 21L15 20L14 20L14 19L15 19L15 18ZM10 19L10 20L11 20L11 19ZM23 19L23 20L22 20L22 23L24 23L24 21L25 21L25 20L24 20L24 19ZM30 20L30 21L31 21L31 20ZM37 20L37 21L38 21L38 20ZM40 20L40 21L41 21L41 20ZM25 22L25 23L26 23L26 22ZM25 25L25 27L29 27L29 26L26 26L26 25ZM32 26L32 27L34 27L34 26ZM4 27L4 28L3 28L3 29L4 29L4 28L6 28L6 27ZM23 27L23 28L20 28L20 30L23 30L23 32L25 32L25 33L24 33L24 34L25 34L25 33L26 33L26 32L25 32L25 31L24 31L24 30L23 30L23 28L24 28L24 27ZM11 28L11 29L12 29L12 28ZM33 28L33 29L32 29L32 30L33 30L33 29L34 29L34 28ZM34 30L34 31L35 31L35 30ZM6 32L6 33L7 33L7 32ZM37 32L37 34L38 34L38 36L37 36L37 37L38 37L38 36L40 36L40 35L39 35L39 33L38 33L38 32ZM30 33L30 35L31 35L31 33ZM33 33L33 36L36 36L36 33ZM34 34L34 35L35 35L35 34ZM12 37L12 38L13 38L13 37ZM30 37L30 40L29 40L29 41L30 41L30 40L31 40L31 41L32 41L32 40L33 40L33 41L34 41L34 40L33 40L33 39L32 39L32 40L31 40L31 37ZM34 37L34 38L36 38L36 37ZM37 38L37 39L38 39L38 38ZM10 40L10 41L11 41L11 40ZM12 40L12 41L13 41L13 40ZM14 40L14 41L15 41L15 40ZM0 0L0 7L7 7L7 0ZM1 1L1 6L6 6L6 1ZM2 2L2 5L5 5L5 2ZM34 0L34 7L41 7L41 0ZM35 1L35 6L40 6L40 1ZM36 2L36 5L39 5L39 2ZM0 34L0 41L7 41L7 34ZM1 35L1 40L6 40L6 35ZM2 36L2 39L5 39L5 36Z" fill="#000000"/></g></g></svg>
