<?xml version="1.0" encoding="UTF-8"?>
<svg xmlns="http://www.w3.org/2000/svg" version="1.1" width="200" height="200" viewBox="0 0 200 200"><rect x="0" y="0" width="200" height="200" fill="#ffffff"/><g transform="scale(4.878)"><g transform="translate(0,0)"><path fill-rule="evenodd" d="M13 0L13 2L11 2L11 1L10 1L10 2L11 2L11 4L10 4L10 3L9 3L9 1L8 1L8 7L9 7L9 8L5 8L5 9L3 9L3 8L2 8L2 9L0 9L0 10L2 10L2 11L0 11L0 12L1 12L1 14L0 14L0 18L1 18L1 19L0 19L0 20L1 20L1 22L0 22L0 26L2 26L2 27L1 27L1 28L2 28L2 30L0 30L0 31L5 31L5 29L7 29L7 28L8 28L8 29L9 29L9 33L8 33L8 30L6 30L6 31L7 31L7 32L6 32L6 33L8 33L8 36L9 36L9 37L10 37L10 38L11 38L11 40L12 40L12 41L13 41L13 40L14 40L14 41L15 41L15 40L16 40L16 41L17 41L17 40L18 40L18 41L19 41L19 40L21 40L21 41L23 41L23 39L22 39L22 38L24 38L24 39L25 39L25 38L24 38L24 37L27 37L27 39L28 39L28 36L26 36L26 35L28 35L28 33L24 33L24 32L23 32L23 31L22 31L22 29L23 29L23 30L25 30L25 28L26 28L26 27L30 27L30 28L31 28L31 29L32 29L32 28L33 28L33 27L32 27L32 25L31 25L31 24L30 24L30 25L29 25L29 26L28 26L28 23L30 23L30 22L28 22L28 20L29 20L29 21L30 21L30 19L28 19L28 17L29 17L29 18L31 18L31 19L32 19L32 20L31 20L31 23L34 23L34 24L33 24L33 26L36 26L36 27L34 27L34 28L35 28L35 30L36 30L36 31L35 31L35 32L34 32L34 31L33 31L33 32L31 32L31 31L32 31L32 30L31 30L31 31L30 31L30 30L29 30L29 28L27 28L27 29L26 29L26 32L29 32L29 31L30 31L30 32L31 32L31 33L32 33L32 35L31 35L31 34L29 34L29 35L30 35L30 36L29 36L29 37L30 37L30 38L31 38L31 39L30 39L30 41L36 41L36 40L37 40L37 41L39 41L39 40L37 40L37 38L36 38L36 39L35 39L35 40L34 40L34 39L32 39L32 37L37 37L37 35L38 35L38 31L39 31L39 32L40 32L40 34L39 34L39 35L41 35L41 32L40 32L40 31L41 31L41 28L40 28L40 30L38 30L38 31L37 31L37 30L36 30L36 27L37 27L37 29L39 29L39 28L38 28L38 27L41 27L41 25L37 25L37 26L36 26L36 24L37 24L37 23L39 23L39 24L41 24L41 22L40 22L40 21L38 21L38 19L36 19L36 18L35 18L35 16L34 16L34 15L35 15L35 14L34 14L34 13L36 13L36 11L37 11L37 13L39 13L39 14L36 14L36 15L37 15L37 17L38 17L38 15L39 15L39 16L40 16L40 15L41 15L41 9L40 9L40 8L35 8L35 9L34 9L34 8L33 8L33 9L34 9L34 10L33 10L33 12L32 12L32 8L31 8L31 10L30 10L30 9L29 9L29 6L28 6L28 7L27 7L27 4L28 4L28 5L30 5L30 4L29 4L29 3L30 3L30 2L29 2L29 1L31 1L31 0L28 0L28 2L27 2L27 1L25 1L25 2L24 2L24 0L22 0L22 1L21 1L21 0L19 0L19 1L21 1L21 2L23 2L23 3L22 3L22 5L23 5L23 6L22 6L22 7L23 7L23 6L24 6L24 7L25 7L25 8L24 8L24 9L25 9L25 8L26 8L26 7L27 7L27 9L26 9L26 10L27 10L27 11L25 11L25 10L23 10L23 9L22 9L22 10L23 10L23 14L22 14L22 13L21 13L21 12L20 12L20 11L21 11L21 10L19 10L19 8L20 8L20 9L21 9L21 8L20 8L20 7L21 7L21 3L20 3L20 2L16 2L16 1L15 1L15 0ZM17 0L17 1L18 1L18 0ZM14 1L14 2L13 2L13 4L11 4L11 5L10 5L10 4L9 4L9 7L10 7L10 8L11 8L11 9L10 9L10 10L11 10L11 11L9 11L9 12L7 12L7 11L4 11L4 12L5 12L5 13L6 13L6 14L4 14L4 16L5 16L5 15L6 15L6 16L8 16L8 17L5 17L5 19L4 19L4 18L3 18L3 19L1 19L1 20L2 20L2 21L3 21L3 19L4 19L4 20L5 20L5 19L6 19L6 20L7 20L7 19L6 19L6 18L8 18L8 19L9 19L9 18L8 18L8 17L9 17L9 16L11 16L11 15L10 15L10 14L12 14L12 13L13 13L13 11L12 11L12 10L13 10L13 9L14 9L14 15L13 15L13 16L12 16L12 17L13 17L13 18L15 18L15 17L13 17L13 16L16 16L16 14L15 14L15 12L17 12L17 14L19 14L19 16L17 16L17 17L19 17L19 16L20 16L20 18L21 18L21 20L22 20L22 21L20 21L20 20L19 20L19 18L16 18L16 19L15 19L15 20L14 20L14 19L12 19L12 20L11 20L11 19L10 19L10 20L11 20L11 21L13 21L13 22L14 22L14 21L15 21L15 20L16 20L16 22L15 22L15 23L12 23L12 22L11 22L11 23L12 23L12 24L11 24L11 25L10 25L10 26L11 26L11 27L9 27L9 25L8 25L8 27L9 27L9 29L10 29L10 30L11 30L11 31L10 31L10 32L11 32L11 34L10 34L10 35L9 35L9 36L10 36L10 35L11 35L11 37L12 37L12 39L14 39L14 40L15 40L15 39L14 39L14 38L13 38L13 37L12 37L12 35L11 35L11 34L15 34L15 35L14 35L14 37L16 37L16 38L17 38L17 39L18 39L18 38L19 38L19 39L21 39L21 40L22 40L22 39L21 39L21 38L20 38L20 37L19 37L19 36L20 36L20 35L21 35L21 36L23 36L23 35L24 35L24 36L25 36L25 35L26 35L26 34L23 34L23 33L22 33L22 32L21 32L21 33L22 33L22 34L20 34L20 32L19 32L19 31L18 31L18 30L20 30L20 31L21 31L21 30L20 30L20 29L21 29L21 28L25 28L25 27L26 27L26 26L25 26L25 25L27 25L27 23L26 23L26 24L25 24L25 22L27 22L27 20L28 20L28 19L27 19L27 16L29 16L29 17L30 17L30 16L31 16L31 17L32 17L32 16L31 16L31 15L32 15L32 13L30 13L30 11L29 11L29 12L28 12L28 11L27 11L27 12L25 12L25 13L26 13L26 14L24 14L24 15L23 15L23 16L22 16L22 14L19 14L19 13L20 13L20 12L19 12L19 13L18 13L18 11L17 11L17 10L15 10L15 9L16 9L16 8L14 8L14 6L13 6L13 8L11 8L11 7L12 7L12 6L11 6L11 5L14 5L14 2L15 2L15 1ZM25 2L25 3L23 3L23 5L24 5L24 6L25 6L25 7L26 7L26 5L25 5L25 4L26 4L26 2ZM28 2L28 3L29 3L29 2ZM31 2L31 3L32 3L32 5L33 5L33 3L32 3L32 2ZM16 3L16 4L17 4L17 5L15 5L15 7L16 7L16 6L17 6L17 7L18 7L18 8L19 8L19 7L20 7L20 3ZM18 4L18 5L17 5L17 6L18 6L18 7L19 7L19 4ZM10 6L10 7L11 7L11 6ZM30 6L30 7L31 7L31 6ZM32 6L32 7L33 7L33 6ZM2 9L2 10L3 10L3 9ZM5 9L5 10L8 10L8 9ZM36 9L36 10L35 10L35 11L34 11L34 12L35 12L35 11L36 11L36 10L37 10L37 11L38 11L38 12L39 12L39 13L40 13L40 12L39 12L39 9ZM11 11L11 12L12 12L12 11ZM2 12L2 14L3 14L3 12ZM6 12L6 13L7 13L7 14L6 14L6 15L7 15L7 14L9 14L9 13L7 13L7 12ZM27 12L27 13L28 13L28 12ZM26 14L26 15L24 15L24 17L22 17L22 16L21 16L21 15L20 15L20 16L21 16L21 18L22 18L22 19L23 19L23 20L24 20L24 21L22 21L22 22L24 22L24 21L25 21L25 20L26 20L26 19L25 19L25 18L26 18L26 15L28 15L28 14ZM29 14L29 15L30 15L30 14ZM1 15L1 16L3 16L3 15ZM8 15L8 16L9 16L9 15ZM1 17L1 18L2 18L2 17ZM10 17L10 18L11 18L11 17ZM24 17L24 18L25 18L25 17ZM33 17L33 19L34 19L34 20L35 20L35 18L34 18L34 17ZM39 17L39 20L40 20L40 19L41 19L41 17ZM16 19L16 20L17 20L17 22L16 22L16 23L15 23L15 25L17 25L17 22L18 22L18 23L19 23L19 22L18 22L18 21L19 21L19 20L18 20L18 19ZM24 19L24 20L25 20L25 19ZM8 20L8 21L5 21L5 22L4 22L4 23L5 23L5 22L8 22L8 21L9 21L9 22L10 22L10 21L9 21L9 20ZM13 20L13 21L14 21L14 20ZM32 20L32 22L33 22L33 20ZM37 21L37 22L36 22L36 23L37 23L37 22L38 22L38 21ZM1 22L1 25L2 25L2 22ZM20 22L20 23L21 23L21 24L22 24L22 26L21 26L21 25L20 25L20 24L19 24L19 25L18 25L18 26L17 26L17 27L18 27L18 26L19 26L19 25L20 25L20 26L21 26L21 27L20 27L20 28L21 28L21 27L22 27L22 26L24 26L24 27L25 27L25 26L24 26L24 25L23 25L23 24L24 24L24 23L23 23L23 24L22 24L22 23L21 23L21 22ZM39 22L39 23L40 23L40 22ZM6 23L6 24L8 24L8 23ZM12 24L12 26L13 26L13 30L12 30L12 27L11 27L11 28L10 28L10 29L11 29L11 30L12 30L12 31L11 31L11 32L12 32L12 31L13 31L13 33L15 33L15 32L18 32L18 33L19 33L19 32L18 32L18 31L17 31L17 28L16 28L16 31L15 31L15 28L14 28L14 25L13 25L13 24ZM6 25L6 26L3 26L3 27L2 27L2 28L3 28L3 27L5 27L5 28L4 28L4 29L5 29L5 28L7 28L7 27L6 27L6 26L7 26L7 25ZM15 26L15 27L16 27L16 26ZM30 26L30 27L31 27L31 28L32 28L32 27L31 27L31 26ZM37 26L37 27L38 27L38 26ZM18 28L18 29L19 29L19 28ZM27 29L27 31L28 31L28 29ZM13 30L13 31L14 31L14 32L15 32L15 31L14 31L14 30ZM36 31L36 32L37 32L37 31ZM0 32L0 33L2 33L2 32ZM3 32L3 33L4 33L4 32ZM33 33L33 36L36 36L36 33ZM16 34L16 35L15 35L15 36L16 36L16 37L17 37L17 38L18 38L18 36L19 36L19 35L20 35L20 34L19 34L19 35L17 35L17 34ZM34 34L34 35L35 35L35 34ZM40 36L40 38L39 38L39 39L41 39L41 36ZM8 38L8 39L9 39L9 38ZM24 40L24 41L25 41L25 40ZM27 40L27 41L28 41L28 40ZM40 40L40 41L41 41L41 40ZM0 0L0 7L7 7L7 0ZM1 1L1 6L6 6L6 1ZM2 2L2 5L5 5L5 2ZM34 0L34 7L41 7L41 0ZM35 1L35 6L40 6L40 1ZM36 2L36 5L39 5L39 2ZM0 34L0 41L7 41L7 34ZM1 35L1 40L6 40L6 35ZM2 36L2 39L5 39L5 36Z" fill="#000000"/></g></g></svg>
