<?xml version="1.0" encoding="UTF-8"?>
<svg xmlns="http://www.w3.org/2000/svg" version="1.1" width="200" height="200" viewBox="0 0 200 200"><rect x="0" y="0" width="200" height="200" fill="#ffffff"/><g transform="scale(4.878)"><g transform="translate(0,0)"><path fill-rule="evenodd" d="M8 0L8 2L9 2L9 3L8 3L8 7L9 7L9 8L10 8L10 11L9 11L9 10L6 10L6 9L7 9L7 8L6 8L6 9L5 9L5 10L6 10L6 11L4 11L4 10L2 10L2 9L1 9L1 11L2 11L2 12L4 12L4 13L5 13L5 12L6 12L6 13L7 13L7 14L6 14L6 15L7 15L7 14L8 14L8 13L9 13L9 14L10 14L10 16L6 16L6 17L7 17L7 18L5 18L5 15L3 15L3 13L1 13L1 12L0 12L0 13L1 13L1 14L2 14L2 15L1 15L1 16L0 16L0 18L1 18L1 16L4 16L4 21L3 21L3 24L1 24L1 23L0 23L0 26L4 26L4 28L3 28L3 30L2 30L2 29L1 29L1 27L0 27L0 29L1 29L1 30L0 30L0 31L1 31L1 30L2 30L2 31L3 31L3 33L4 33L4 31L5 31L5 33L7 33L7 32L8 32L8 34L9 34L9 35L10 35L10 36L9 36L9 37L8 37L8 38L9 38L9 37L10 37L10 36L11 36L11 35L10 35L10 33L9 33L9 32L11 32L11 34L12 34L12 35L13 35L13 34L14 34L14 32L15 32L15 33L19 33L19 34L15 34L15 35L14 35L14 36L12 36L12 37L11 37L11 38L10 38L10 41L11 41L11 39L12 39L12 40L13 40L13 38L14 38L14 40L15 40L15 39L16 39L16 40L17 40L17 41L18 41L18 40L17 40L17 39L19 39L19 41L20 41L20 40L21 40L21 41L22 41L22 40L21 40L21 39L22 39L22 38L23 38L23 35L22 35L22 32L23 32L23 31L26 31L26 32L24 32L24 33L23 33L23 34L25 34L25 35L24 35L24 36L25 36L25 35L26 35L26 36L27 36L27 35L26 35L26 33L28 33L28 34L30 34L30 37L28 37L28 38L30 38L30 39L29 39L29 40L28 40L28 39L27 39L27 37L25 37L25 38L24 38L24 39L23 39L23 40L24 40L24 41L31 41L31 40L32 40L32 41L33 41L33 39L34 39L34 38L36 38L36 40L37 40L37 41L40 41L40 39L41 39L41 38L40 38L40 37L38 37L38 36L40 36L40 35L38 35L38 33L39 33L39 34L41 34L41 32L35 32L35 31L34 31L34 29L36 29L36 28L35 28L35 27L34 27L34 26L33 26L33 24L34 24L34 25L35 25L35 26L36 26L36 24L37 24L37 27L38 27L38 26L39 26L39 25L40 25L40 24L41 24L41 23L40 23L40 22L39 22L39 23L34 23L34 22L35 22L35 21L36 21L36 22L37 22L37 21L40 21L40 20L41 20L41 16L39 16L39 17L37 17L37 18L39 18L39 17L40 17L40 20L37 20L37 19L36 19L36 20L35 20L35 19L34 19L34 18L35 18L35 17L36 17L36 16L35 16L35 17L33 17L33 15L32 15L32 14L33 14L33 11L32 11L32 10L31 10L31 6L32 6L32 9L33 9L33 6L32 6L32 5L33 5L33 3L32 3L32 2L33 2L33 0L31 0L31 1L32 1L32 2L31 2L31 4L32 4L32 5L28 5L28 4L30 4L30 1L29 1L29 0L27 0L27 1L26 1L26 0L25 0L25 2L21 2L21 3L23 3L23 5L24 5L24 3L25 3L25 5L26 5L26 7L25 7L25 6L24 6L24 7L23 7L23 6L22 6L22 5L21 5L21 4L20 4L20 3L19 3L19 2L20 2L20 1L21 1L21 0L20 0L20 1L19 1L19 0L16 0L16 1L17 1L17 2L15 2L15 1L14 1L14 3L17 3L17 2L18 2L18 3L19 3L19 4L17 4L17 5L19 5L19 6L18 6L18 9L17 9L17 6L16 6L16 7L15 7L15 6L14 6L14 5L16 5L16 4L14 4L14 5L13 5L13 6L12 6L12 4L13 4L13 3L12 3L12 4L11 4L11 3L10 3L10 2L9 2L9 1L11 1L11 2L13 2L13 0L12 0L12 1L11 1L11 0ZM22 0L22 1L24 1L24 0ZM18 1L18 2L19 2L19 1ZM28 1L28 2L26 2L26 3L27 3L27 4L28 4L28 3L29 3L29 1ZM9 3L9 7L10 7L10 5L11 5L11 4L10 4L10 3ZM19 4L19 5L20 5L20 6L19 6L19 9L20 9L20 10L17 10L17 9L16 9L16 8L15 8L15 7L14 7L14 6L13 6L13 9L12 9L12 8L11 8L11 10L12 10L12 11L11 11L11 13L12 13L12 14L11 14L11 16L10 16L10 17L11 17L11 19L12 19L12 20L8 20L8 19L10 19L10 18L9 18L9 17L8 17L8 18L7 18L7 19L5 19L5 21L4 21L4 22L7 22L7 23L5 23L5 24L7 24L7 23L8 23L8 21L9 21L9 22L10 22L10 21L11 21L11 23L13 23L13 24L14 24L14 23L13 23L13 21L14 21L14 22L15 22L15 25L14 25L14 27L12 27L12 26L13 26L13 25L12 25L12 24L11 24L11 25L10 25L10 27L9 27L9 26L8 26L8 25L9 25L9 24L10 24L10 23L9 23L9 24L8 24L8 25L5 25L5 27L6 27L6 28L8 28L8 29L5 29L5 28L4 28L4 29L5 29L5 31L6 31L6 32L7 32L7 31L6 31L6 30L8 30L8 32L9 32L9 29L10 29L10 27L11 27L11 30L12 30L12 31L11 31L11 32L13 32L13 31L14 31L14 29L12 29L12 28L14 28L14 27L17 27L17 25L18 25L18 26L19 26L19 27L18 27L18 28L17 28L17 29L16 29L16 28L15 28L15 29L16 29L16 31L17 31L17 32L18 32L18 31L17 31L17 30L18 30L18 28L19 28L19 29L20 29L20 30L19 30L19 31L21 31L21 32L20 32L20 33L21 33L21 32L22 32L22 31L21 31L21 29L23 29L23 30L25 30L25 27L24 27L24 28L23 28L23 27L22 27L22 25L24 25L24 26L26 26L26 28L27 28L27 29L26 29L26 31L27 31L27 32L29 32L29 33L30 33L30 34L31 34L31 35L32 35L32 32L34 32L34 31L33 31L33 30L30 30L30 29L29 29L29 26L30 26L30 27L31 27L31 28L32 28L32 29L33 29L33 27L32 27L32 26L31 26L31 25L32 25L32 24L33 24L33 22L34 22L34 19L33 19L33 17L32 17L32 15L31 15L31 16L30 16L30 19L28 19L28 18L29 18L29 15L30 15L30 14L32 14L32 11L31 11L31 10L30 10L30 11L29 11L29 9L30 9L30 8L27 8L27 7L28 7L28 6L27 6L27 7L26 7L26 8L25 8L25 7L24 7L24 8L23 8L23 9L24 9L24 11L22 11L22 10L21 10L21 9L22 9L22 6L21 6L21 5L20 5L20 4ZM11 6L11 7L12 7L12 6ZM20 6L20 7L21 7L21 6ZM29 6L29 7L30 7L30 6ZM3 8L3 9L4 9L4 8ZM20 8L20 9L21 9L21 8ZM35 8L35 9L34 9L34 10L36 10L36 11L37 11L37 10L38 10L38 8ZM39 8L39 9L40 9L40 10L41 10L41 8ZM14 9L14 11L12 11L12 13L14 13L14 11L15 11L15 9ZM26 9L26 10L25 10L25 12L22 12L22 13L24 13L24 14L25 14L25 13L27 13L27 14L30 14L30 13L31 13L31 11L30 11L30 12L29 12L29 11L28 11L28 12L29 12L29 13L27 13L27 9ZM36 9L36 10L37 10L37 9ZM16 10L16 11L17 11L17 12L15 12L15 13L17 13L17 14L16 14L16 16L15 16L15 15L14 15L14 16L13 16L13 18L12 18L12 19L13 19L13 20L14 20L14 21L15 21L15 22L17 22L17 21L18 21L18 20L17 20L17 19L18 19L18 18L19 18L19 19L21 19L21 21L20 21L20 20L19 20L19 24L18 24L18 25L19 25L19 26L20 26L20 27L19 27L19 28L21 28L21 25L22 25L22 23L21 23L21 21L22 21L22 20L23 20L23 24L24 24L24 25L25 25L25 24L27 24L27 22L26 22L26 21L27 21L27 20L28 20L28 24L29 24L29 25L28 25L28 26L29 26L29 25L30 25L30 24L32 24L32 22L31 22L31 23L30 23L30 20L28 20L28 19L27 19L27 18L26 18L26 17L27 17L27 16L28 16L28 15L26 15L26 17L25 17L25 15L23 15L23 14L21 14L21 16L22 16L22 15L23 15L23 16L24 16L24 17L25 17L25 18L26 18L26 20L25 20L25 22L24 22L24 18L23 18L23 19L21 19L21 18L22 18L22 17L21 17L21 18L19 18L19 17L18 17L18 15L19 15L19 16L20 16L20 14L19 14L19 13L17 13L17 12L20 12L20 11L21 11L21 10L20 10L20 11L17 11L17 10ZM6 11L6 12L7 12L7 13L8 13L8 12L7 12L7 11ZM38 11L38 13L41 13L41 11ZM34 12L34 15L35 15L35 14L36 14L36 15L37 15L37 16L38 16L38 15L39 15L39 14L36 14L36 13L35 13L35 12ZM40 14L40 15L41 15L41 14ZM14 16L14 18L13 18L13 19L14 19L14 20L16 20L16 19L17 19L17 18L16 18L16 19L15 19L15 16ZM2 19L2 20L1 20L1 21L0 21L0 22L2 22L2 20L3 20L3 19ZM31 19L31 20L32 20L32 21L33 21L33 20L32 20L32 19ZM6 20L6 21L7 21L7 20ZM25 22L25 23L24 23L24 24L25 24L25 23L26 23L26 22ZM20 23L20 25L21 25L21 23ZM29 23L29 24L30 24L30 23ZM39 23L39 24L38 24L38 25L39 25L39 24L40 24L40 23ZM3 24L3 25L4 25L4 24ZM11 25L11 26L12 26L12 25ZM15 25L15 26L16 26L16 25ZM26 25L26 26L27 26L27 25ZM6 26L6 27L8 27L8 28L9 28L9 27L8 27L8 26ZM40 26L40 28L41 28L41 26ZM27 27L27 28L28 28L28 27ZM37 28L37 30L36 30L36 31L37 31L37 30L38 30L38 31L39 31L39 30L40 30L40 31L41 31L41 29L39 29L39 28ZM27 29L27 31L29 31L29 32L30 32L30 31L29 31L29 29ZM0 32L0 33L1 33L1 32ZM12 33L12 34L13 34L13 33ZM33 33L33 36L36 36L36 33ZM34 34L34 35L35 35L35 34ZM15 35L15 36L14 36L14 37L15 37L15 38L16 38L16 39L17 39L17 38L16 38L16 37L15 37L15 36L17 36L17 37L18 37L18 38L19 38L19 39L21 39L21 38L20 38L20 37L22 37L22 35L21 35L21 36L20 36L20 35ZM28 35L28 36L29 36L29 35ZM19 36L19 37L20 37L20 36ZM31 36L31 37L32 37L32 39L33 39L33 37L32 37L32 36ZM12 37L12 38L13 38L13 37ZM36 37L36 38L38 38L38 40L39 40L39 39L40 39L40 38L38 38L38 37ZM25 38L25 39L26 39L26 40L27 40L27 39L26 39L26 38ZM30 39L30 40L31 40L31 39ZM0 0L0 7L7 7L7 0ZM1 1L1 6L6 6L6 1ZM2 2L2 5L5 5L5 2ZM34 0L34 7L41 7L41 0ZM35 1L35 6L40 6L40 1ZM36 2L36 5L39 5L39 2ZM0 34L0 41L7 41L7 34ZM1 35L1 40L6 40L6 35ZM2 36L2 39L5 39L5 36Z" fill="#000000"/></g></g></svg>
