<?xml version="1.0" encoding="UTF-8"?>
<svg xmlns="http://www.w3.org/2000/svg" version="1.1" width="200" height="200" viewBox="0 0 200 200"><rect x="0" y="0" width="200" height="200" fill="#ffffff"/><g transform="scale(6.897)"><g transform="translate(0,0)"><path fill-rule="evenodd" d="M8 0L8 1L9 1L9 3L8 3L8 4L9 4L9 3L10 3L10 7L9 7L9 6L8 6L8 7L9 7L9 8L8 8L8 9L7 9L7 8L4 8L4 10L3 10L3 8L2 8L2 9L0 9L0 10L2 10L2 12L1 12L1 11L0 11L0 13L2 13L2 14L0 14L0 15L2 15L2 16L0 16L0 17L3 17L3 16L4 16L4 15L5 15L5 17L7 17L7 16L8 16L8 17L9 17L9 19L8 19L8 18L6 18L6 19L5 19L5 20L4 20L4 18L2 18L2 19L1 19L1 18L0 18L0 19L1 19L1 20L0 20L0 21L1 21L1 20L2 20L2 21L3 21L3 20L4 20L4 21L7 21L7 20L8 20L8 22L10 22L10 25L9 25L9 23L8 23L8 25L9 25L9 26L8 26L8 27L9 27L9 26L11 26L11 27L12 27L12 26L13 26L13 24L14 24L14 29L16 29L16 28L18 28L18 27L17 27L17 26L19 26L19 29L20 29L20 25L21 25L21 26L22 26L22 25L23 25L23 26L24 26L24 25L25 25L25 26L28 26L28 27L27 27L27 28L26 28L26 27L25 27L25 28L23 28L23 27L22 27L22 28L23 28L23 29L25 29L25 28L26 28L26 29L27 29L27 28L28 28L28 29L29 29L29 26L28 26L28 25L29 25L29 24L26 24L26 23L25 23L25 19L26 19L26 21L28 21L28 22L27 22L27 23L29 23L29 21L28 21L28 19L29 19L29 18L27 18L27 17L26 17L26 14L24 14L24 13L25 13L25 11L26 11L26 13L27 13L27 12L28 12L28 13L29 13L29 12L28 12L28 11L29 11L29 8L28 8L28 9L27 9L27 10L25 10L25 9L26 9L26 8L25 8L25 9L24 9L24 10L25 10L25 11L24 11L24 12L23 12L23 10L22 10L22 8L21 8L21 0L20 0L20 1L19 1L19 2L20 2L20 3L19 3L19 4L18 4L18 3L17 3L17 2L18 2L18 1L17 1L17 0L15 0L15 2L13 2L13 3L12 3L12 2L11 2L11 1L10 1L10 0ZM12 0L12 1L14 1L14 0ZM16 1L16 2L17 2L17 1ZM11 3L11 4L12 4L12 3ZM14 3L14 6L13 6L13 7L12 7L12 5L11 5L11 7L10 7L10 8L9 8L9 12L14 12L14 11L13 11L13 10L15 10L15 12L16 12L16 10L17 10L17 13L13 13L13 14L12 14L12 13L11 13L11 16L10 16L10 18L11 18L11 17L12 17L12 19L10 19L10 20L9 20L9 21L10 21L10 22L11 22L11 23L13 23L13 22L11 22L11 21L10 21L10 20L14 20L14 22L15 22L15 26L16 26L16 23L17 23L17 21L20 21L20 20L21 20L21 19L22 19L22 18L23 18L23 19L24 19L24 18L26 18L26 17L24 17L24 16L25 16L25 15L24 15L24 14L23 14L23 15L22 15L22 14L21 14L21 13L20 13L20 14L19 14L19 12L20 12L20 11L19 11L19 9L20 9L20 5L19 5L19 7L18 7L18 5L16 5L16 3ZM14 6L14 7L13 7L13 9L12 9L12 8L10 8L10 9L11 9L11 10L10 10L10 11L12 11L12 10L13 10L13 9L14 9L14 7L15 7L15 6ZM16 6L16 8L17 8L17 6ZM6 9L6 10L4 10L4 13L5 13L5 14L7 14L7 15L6 15L6 16L7 16L7 15L8 15L8 14L7 14L7 13L8 13L8 12L7 12L7 11L8 11L8 10L7 10L7 9ZM6 10L6 11L7 11L7 10ZM27 10L27 11L28 11L28 10ZM18 11L18 12L19 12L19 11ZM21 11L21 12L22 12L22 11ZM2 12L2 13L3 13L3 12ZM5 12L5 13L7 13L7 12ZM17 13L17 14L15 14L15 16L12 16L12 17L13 17L13 19L16 19L16 21L17 21L17 19L16 19L16 17L17 17L17 18L18 18L18 17L17 17L17 16L20 16L20 15L21 15L21 14L20 14L20 15L19 15L19 14L18 14L18 13ZM3 14L3 15L4 15L4 14ZM17 14L17 15L16 15L16 16L17 16L17 15L18 15L18 14ZM27 14L27 16L28 16L28 17L29 17L29 15L28 15L28 14ZM23 15L23 16L22 16L22 17L23 17L23 18L24 18L24 17L23 17L23 16L24 16L24 15ZM14 17L14 18L15 18L15 17ZM19 17L19 18L20 18L20 17ZM2 19L2 20L3 20L3 19ZM6 19L6 20L7 20L7 19ZM19 19L19 20L20 20L20 19ZM21 21L21 24L24 24L24 21ZM18 22L18 24L17 24L17 25L19 25L19 22ZM22 22L22 23L23 23L23 22ZM11 24L11 25L12 25L12 24ZM11 28L11 29L13 29L13 28ZM0 0L0 7L7 7L7 0ZM1 1L1 6L6 6L6 1ZM2 2L2 5L5 5L5 2ZM22 0L22 7L29 7L29 0ZM23 1L23 6L28 6L28 1ZM24 2L24 5L27 5L27 2ZM0 22L0 29L7 29L7 22ZM1 23L1 28L6 28L6 23ZM2 24L2 27L5 27L5 24Z" fill="#000000"/></g></g></svg>
