<?xml version="1.0" encoding="UTF-8"?>
<svg xmlns="http://www.w3.org/2000/svg" version="1.1" width="200" height="200" viewBox="0 0 200 200"><rect x="0" y="0" width="200" height="200" fill="#ffffff"/><g transform="scale(4.878)"><g transform="translate(0,0)"><path fill-rule="evenodd" d="M9 0L9 1L10 1L10 0ZM12 0L12 1L13 1L13 2L12 2L12 3L10 3L10 2L8 2L8 4L10 4L10 7L11 7L11 6L12 6L12 8L10 8L10 10L11 10L11 9L12 9L12 8L13 8L13 9L14 9L14 10L15 10L15 9L16 9L16 10L17 10L17 9L16 9L16 8L18 8L18 12L17 12L17 11L16 11L16 14L15 14L15 12L14 12L14 13L12 13L12 12L11 12L11 11L10 11L10 12L11 12L11 15L10 15L10 13L9 13L9 14L8 14L8 13L7 13L7 12L6 12L6 11L8 11L8 12L9 12L9 9L8 9L8 8L6 8L6 9L5 9L5 8L3 8L3 9L0 9L0 10L2 10L2 11L1 11L1 13L0 13L0 15L2 15L2 16L0 16L0 19L1 19L1 18L2 18L2 20L3 20L3 19L4 19L4 22L6 22L6 23L7 23L7 24L6 24L6 25L7 25L7 26L6 26L6 27L5 27L5 28L3 28L3 27L4 27L4 25L5 25L5 24L4 24L4 25L2 25L2 24L1 24L1 23L2 23L2 22L1 22L1 20L0 20L0 22L1 22L1 23L0 23L0 24L1 24L1 25L0 25L0 27L1 27L1 28L2 28L2 29L5 29L5 30L6 30L6 31L4 31L4 30L3 30L3 31L2 31L2 30L1 30L1 29L0 29L0 33L3 33L3 32L4 32L4 33L5 33L5 32L6 32L6 33L7 33L7 32L6 32L6 31L8 31L8 35L9 35L9 36L8 36L8 38L9 38L9 41L11 41L11 39L12 39L12 40L13 40L13 41L21 41L21 40L22 40L22 41L23 41L23 40L24 40L24 39L26 39L26 40L27 40L27 39L28 39L28 41L29 41L29 38L28 38L28 36L26 36L26 38L25 38L25 37L24 37L24 36L25 36L25 33L24 33L24 32L25 32L25 31L23 31L23 33L22 33L22 31L21 31L21 30L20 30L20 28L21 28L21 27L20 27L20 26L21 26L21 25L23 25L23 26L24 26L24 27L25 27L25 25L23 25L23 24L26 24L26 26L27 26L27 27L28 27L28 30L26 30L26 29L27 29L27 28L26 28L26 29L24 29L24 28L22 28L22 30L23 30L23 29L24 29L24 30L26 30L26 31L28 31L28 30L30 30L30 31L31 31L31 30L30 30L30 29L31 29L31 28L30 28L30 29L29 29L29 26L30 26L30 25L32 25L32 26L31 26L31 27L32 27L32 26L33 26L33 28L32 28L32 31L33 31L33 32L32 32L32 33L30 33L30 32L29 32L29 33L28 33L28 32L26 32L26 33L27 33L27 34L26 34L26 35L29 35L29 34L31 34L31 35L30 35L30 36L29 36L29 37L30 37L30 39L31 39L31 40L30 40L30 41L31 41L31 40L32 40L32 41L34 41L34 40L35 40L35 41L36 41L36 39L37 39L37 40L38 40L38 41L39 41L39 40L38 40L38 39L40 39L40 40L41 40L41 37L40 37L40 36L41 36L41 35L40 35L40 34L39 34L39 33L41 33L41 32L40 32L40 31L41 31L41 30L39 30L39 31L36 31L36 30L37 30L37 29L34 29L34 28L38 28L38 29L39 29L39 27L41 27L41 25L39 25L39 24L37 24L37 23L39 23L39 22L41 22L41 21L39 21L39 20L40 20L40 19L41 19L41 18L40 18L40 17L41 17L41 11L40 11L40 9L39 9L39 8L37 8L37 9L36 9L36 10L34 10L34 9L33 9L33 10L32 10L32 8L33 8L33 5L32 5L32 4L33 4L33 2L32 2L32 1L33 1L33 0L32 0L32 1L31 1L31 2L30 2L30 1L29 1L29 0L28 0L28 2L27 2L27 1L26 1L26 0L25 0L25 1L24 1L24 2L23 2L23 0L20 0L20 1L19 1L19 0L17 0L17 2L16 2L16 0ZM18 1L18 2L19 2L19 3L18 3L18 4L19 4L19 3L20 3L20 2L19 2L19 1ZM15 2L15 3L13 3L13 4L12 4L12 6L13 6L13 7L14 7L14 6L13 6L13 4L14 4L14 5L15 5L15 7L16 7L16 5L17 5L17 7L18 7L18 8L19 8L19 7L20 7L20 9L21 9L21 8L22 8L22 11L21 11L21 10L20 10L20 11L19 11L19 12L18 12L18 13L17 13L17 14L18 14L18 16L17 16L17 15L15 15L15 18L14 18L14 16L10 16L10 15L8 15L8 14L7 14L7 13L5 13L5 14L4 14L4 15L3 15L3 13L4 13L4 12L3 12L3 13L1 13L1 14L2 14L2 15L3 15L3 16L2 16L2 18L4 18L4 19L5 19L5 20L7 20L7 21L6 21L6 22L8 22L8 24L7 24L7 25L9 25L9 23L10 23L10 25L11 25L11 26L7 26L7 27L6 27L6 28L8 28L8 27L9 27L9 28L10 28L10 29L8 29L8 31L9 31L9 34L10 34L10 37L9 37L9 38L10 38L10 37L11 37L11 38L13 38L13 36L14 36L14 37L15 37L15 38L14 38L14 39L13 39L13 40L14 40L14 39L15 39L15 40L20 40L20 37L18 37L18 34L20 34L20 36L21 36L21 37L22 37L22 38L23 38L23 39L22 39L22 40L23 40L23 39L24 39L24 38L23 38L23 37L22 37L22 36L21 36L21 35L23 35L23 34L24 34L24 33L23 33L23 34L22 34L22 33L21 33L21 32L20 32L20 33L18 33L18 32L15 32L15 31L16 31L16 28L17 28L17 27L16 27L16 26L17 26L17 24L18 24L18 29L17 29L17 30L19 30L19 25L21 25L21 24L22 24L22 21L23 21L23 22L24 22L24 23L25 23L25 22L24 22L24 21L26 21L26 20L25 20L25 16L27 16L27 17L26 17L26 18L27 18L27 17L32 17L32 19L34 19L34 20L35 20L35 17L37 17L37 18L36 18L36 20L37 20L37 21L38 21L38 20L37 20L37 18L39 18L39 17L40 17L40 16L34 16L34 17L33 17L33 16L32 16L32 15L31 15L31 16L30 16L30 14L29 14L29 15L28 15L28 13L25 13L25 11L23 11L23 8L25 8L25 7L26 7L26 9L27 9L27 7L28 7L28 6L29 6L29 8L28 8L28 9L29 9L29 10L28 10L28 11L27 11L27 10L26 10L26 12L29 12L29 13L30 13L30 12L29 12L29 10L30 10L30 11L32 11L32 10L31 10L31 9L29 9L29 8L30 8L30 5L29 5L29 4L32 4L32 3L29 3L29 2L28 2L28 4L26 4L26 3L25 3L25 2L24 2L24 3L23 3L23 2L22 2L22 3L21 3L21 4L20 4L20 5L21 5L21 4L22 4L22 3L23 3L23 5L22 5L22 6L21 6L21 7L20 7L20 6L19 6L19 5L17 5L17 3L16 3L16 2ZM15 4L15 5L16 5L16 4ZM24 4L24 7L25 7L25 6L26 6L26 7L27 7L27 5L26 5L26 4ZM31 5L31 8L32 8L32 5ZM8 6L8 7L9 7L9 6ZM18 6L18 7L19 7L19 6ZM22 6L22 7L23 7L23 6ZM14 8L14 9L15 9L15 8ZM6 9L6 10L7 10L7 9ZM37 9L37 10L36 10L36 11L37 11L37 10L38 10L38 12L39 12L39 13L40 13L40 12L39 12L39 10L38 10L38 9ZM3 10L3 11L5 11L5 10ZM12 10L12 11L13 11L13 10ZM33 10L33 12L32 12L32 13L33 13L33 14L35 14L35 15L38 15L38 13L37 13L37 12L36 12L36 13L35 13L35 11L34 11L34 10ZM22 11L22 12L20 12L20 13L18 13L18 14L19 14L19 15L21 15L21 16L19 16L19 17L20 17L20 18L21 18L21 19L20 19L20 22L21 22L21 19L22 19L22 20L24 20L24 19L22 19L22 18L24 18L24 17L23 17L23 16L22 16L22 15L21 15L21 14L24 14L24 13L22 13L22 12L23 12L23 11ZM36 13L36 14L37 14L37 13ZM6 14L6 15L4 15L4 16L3 16L3 17L4 17L4 16L6 16L6 17L5 17L5 19L7 19L7 18L8 18L8 16L6 16L6 15L7 15L7 14ZM12 14L12 15L14 15L14 14ZM27 15L27 16L28 16L28 15ZM21 16L21 17L22 17L22 16ZM6 17L6 18L7 18L7 17ZM10 17L10 18L11 18L11 20L9 20L9 21L8 21L8 22L9 22L9 21L12 21L12 22L10 22L10 23L12 23L12 26L13 26L13 27L12 27L12 28L11 28L11 29L10 29L10 30L11 30L11 31L10 31L10 34L11 34L11 36L13 36L13 35L14 35L14 34L15 34L15 33L13 33L13 32L14 32L14 31L15 31L15 30L14 30L14 31L13 31L13 27L14 27L14 25L13 25L13 24L15 24L15 25L16 25L16 24L17 24L17 23L16 23L16 22L14 22L14 21L13 21L13 20L15 20L15 19L18 19L18 24L20 24L20 23L19 23L19 18L15 18L15 19L13 19L13 18L11 18L11 17ZM12 19L12 20L13 20L13 19ZM28 19L28 21L29 21L29 23L30 23L30 24L28 24L28 23L26 23L26 24L27 24L27 25L28 25L28 26L29 26L29 25L30 25L30 24L32 24L32 25L33 25L33 24L32 24L32 22L33 22L33 23L36 23L36 21L34 21L34 22L33 22L33 20L32 20L32 22L31 22L31 21L30 21L30 20L31 20L31 19ZM16 20L16 21L17 21L17 20ZM12 22L12 23L13 23L13 22ZM36 24L36 25L37 25L37 27L39 27L39 25L37 25L37 24ZM1 25L1 27L3 27L3 26L2 26L2 25ZM35 26L35 27L36 27L36 26ZM15 27L15 28L16 28L16 27ZM6 29L6 30L7 30L7 29ZM33 30L33 31L34 31L34 32L36 32L36 31L35 31L35 30ZM11 31L11 32L12 32L12 31ZM37 32L37 33L38 33L38 32ZM11 33L11 34L12 34L12 33ZM17 33L17 34L16 34L16 35L15 35L15 36L16 36L16 35L17 35L17 34L18 34L18 33ZM33 33L33 36L36 36L36 33ZM34 34L34 35L35 35L35 34ZM38 34L38 35L37 35L37 38L40 38L40 37L39 37L39 36L40 36L40 35L39 35L39 34ZM31 35L31 36L30 36L30 37L31 37L31 36L32 36L32 35ZM16 37L16 39L18 39L18 37ZM34 37L34 39L35 39L35 38L36 38L36 37ZM26 38L26 39L27 39L27 38ZM32 39L32 40L33 40L33 39ZM0 0L0 7L7 7L7 0ZM1 1L1 6L6 6L6 1ZM2 2L2 5L5 5L5 2ZM34 0L34 7L41 7L41 0ZM35 1L35 6L40 6L40 1ZM36 2L36 5L39 5L39 2ZM0 34L0 41L7 41L7 34ZM1 35L1 40L6 40L6 35ZM2 36L2 39L5 39L5 36Z" fill="#000000"/></g></g></svg>
