<?xml version="1.0" encoding="UTF-8"?>
<svg xmlns="http://www.w3.org/2000/svg" version="1.1" width="200" height="200" viewBox="0 0 200 200"><rect x="0" y="0" width="200" height="200" fill="#ffffff"/><g transform="scale(4.878)"><g transform="translate(0,0)"><path fill-rule="evenodd" d="M8 0L8 3L9 3L9 5L8 5L8 9L9 9L9 10L10 10L10 11L9 11L9 16L10 16L10 14L11 14L11 17L12 17L12 18L10 18L10 19L9 19L9 17L8 17L8 22L6 22L6 21L7 21L7 20L6 20L6 19L7 19L7 18L6 18L6 19L5 19L5 20L4 20L4 19L3 19L3 18L5 18L5 17L7 17L7 16L8 16L8 14L6 14L6 13L7 13L7 12L8 12L8 10L6 10L6 11L7 11L7 12L6 12L6 13L5 13L5 10L3 10L3 9L5 9L5 8L2 8L2 9L0 9L0 10L1 10L1 11L2 11L2 10L3 10L3 11L4 11L4 12L1 12L1 13L0 13L0 14L2 14L2 15L0 15L0 18L1 18L1 17L2 17L2 15L7 15L7 16L5 16L5 17L4 17L4 16L3 16L3 18L2 18L2 19L1 19L1 20L0 20L0 22L2 22L2 24L1 24L1 23L0 23L0 25L2 25L2 27L4 27L4 28L5 28L5 27L7 27L7 28L6 28L6 29L5 29L5 32L4 32L4 33L7 33L7 32L8 32L8 34L9 34L9 35L10 35L10 37L11 37L11 36L12 36L12 39L13 39L13 37L15 37L15 36L16 36L16 38L15 38L15 39L14 39L14 41L16 41L16 40L17 40L17 41L18 41L18 39L21 39L21 35L20 35L20 37L19 37L19 33L20 33L20 30L21 30L21 31L22 31L22 32L21 32L21 33L23 33L23 34L22 34L22 36L23 36L23 37L22 37L22 38L23 38L23 39L22 39L22 40L20 40L20 41L24 41L24 40L23 40L23 39L26 39L26 41L28 41L28 39L30 39L30 40L29 40L29 41L30 41L30 40L33 40L33 41L34 41L34 40L33 40L33 38L34 38L34 39L35 39L35 40L36 40L36 39L38 39L38 37L39 37L39 40L40 40L40 38L41 38L41 37L40 37L40 36L37 36L37 35L40 35L40 34L41 34L41 33L40 33L40 32L32 32L32 34L30 34L30 35L31 35L31 36L30 36L30 37L31 37L31 36L32 36L32 37L33 37L33 38L32 38L32 39L31 39L31 38L29 38L29 37L28 37L28 36L29 36L29 33L31 33L31 29L30 29L30 28L29 28L29 29L28 29L28 28L26 28L26 29L24 29L24 28L23 28L23 29L24 29L24 30L25 30L25 31L23 31L23 30L22 30L22 28L20 28L20 26L21 26L21 25L20 25L20 26L19 26L19 28L20 28L20 29L19 29L19 31L17 31L17 30L16 30L16 27L15 27L15 28L13 28L13 26L16 26L16 25L17 25L17 26L18 26L18 25L17 25L17 24L20 24L20 22L21 22L21 24L22 24L22 27L26 27L26 26L24 26L24 25L25 25L25 24L26 24L26 23L25 23L25 22L27 22L27 23L28 23L28 24L27 24L27 25L29 25L29 26L27 26L27 27L29 27L29 26L32 26L32 25L34 25L34 27L32 27L32 29L33 29L33 30L32 30L32 31L33 31L33 30L34 30L34 31L35 31L35 30L34 30L34 29L36 29L36 31L38 31L38 30L37 30L37 29L36 29L36 28L35 28L35 27L37 27L37 28L38 28L38 26L39 26L39 27L40 27L40 28L39 28L39 31L40 31L40 30L41 30L41 29L40 29L40 28L41 28L41 27L40 27L40 26L41 26L41 23L40 23L40 26L39 26L39 24L37 24L37 25L36 25L36 23L35 23L35 22L36 22L36 21L37 21L37 23L39 23L39 22L38 22L38 21L39 21L39 20L38 20L38 18L39 18L39 19L40 19L40 18L41 18L41 16L40 16L40 18L39 18L39 16L38 16L38 15L36 15L36 16L35 16L35 17L34 17L34 16L33 16L33 15L34 15L34 14L33 14L33 13L34 13L34 12L33 12L33 13L32 13L32 12L31 12L31 10L32 10L32 11L34 11L34 10L35 10L35 9L36 9L36 10L37 10L37 11L35 11L35 12L38 12L38 11L40 11L40 10L41 10L41 8L38 8L38 9L40 9L40 10L37 10L37 9L36 9L36 8L33 8L33 5L32 5L32 4L33 4L33 2L32 2L32 4L31 4L31 3L30 3L30 4L28 4L28 5L27 5L27 6L26 6L26 5L25 5L25 6L24 6L24 7L23 7L23 5L22 5L22 4L21 4L21 3L20 3L20 4L21 4L21 5L22 5L22 8L23 8L23 10L22 10L22 9L20 9L20 10L19 10L19 11L16 11L16 10L15 10L15 11L16 11L16 12L15 12L15 13L14 13L14 11L13 11L13 10L12 10L12 9L14 9L14 8L13 8L13 6L12 6L12 9L11 9L11 8L10 8L10 7L11 7L11 5L10 5L10 3L11 3L11 4L12 4L12 3L13 3L13 4L14 4L14 7L15 7L15 6L16 6L16 8L15 8L15 9L17 9L17 8L20 8L20 7L21 7L21 6L20 6L20 7L19 7L19 4L18 4L18 7L17 7L17 1L18 1L18 0L16 0L16 1L15 1L15 2L14 2L14 0L13 0L13 2L12 2L12 3L11 3L11 1L9 1L9 0ZM19 0L19 1L20 1L20 2L21 2L21 1L22 1L22 3L23 3L23 4L24 4L24 1L23 1L23 0ZM25 0L25 3L26 3L26 4L27 4L27 3L29 3L29 1L27 1L27 0ZM31 0L31 1L30 1L30 2L31 2L31 1L32 1L32 0ZM9 2L9 3L10 3L10 2ZM26 2L26 3L27 3L27 2ZM15 3L15 4L16 4L16 3ZM30 4L30 5L29 5L29 7L28 7L28 6L27 6L27 7L26 7L26 6L25 6L25 7L26 7L26 8L25 8L25 9L24 9L24 10L25 10L25 11L23 11L23 14L22 14L22 12L20 12L20 11L19 11L19 13L18 13L18 12L17 12L17 13L15 13L15 14L13 14L13 13L12 13L12 12L13 12L13 11L12 11L12 10L11 10L11 9L10 9L10 8L9 8L9 9L10 9L10 10L11 10L11 11L12 11L12 12L11 12L11 14L13 14L13 15L12 15L12 16L13 16L13 18L12 18L12 19L10 19L10 21L9 21L9 22L11 22L11 23L5 23L5 21L4 21L4 23L3 23L3 25L4 25L4 26L7 26L7 27L8 27L8 26L9 26L9 25L10 25L10 24L11 24L11 26L12 26L12 25L13 25L13 24L11 24L11 23L15 23L15 24L14 24L14 25L16 25L16 24L17 24L17 22L18 22L18 23L19 23L19 22L20 22L20 21L19 21L19 22L18 22L18 20L19 20L19 19L21 19L21 20L22 20L22 19L21 19L21 18L24 18L24 16L25 16L25 15L24 15L24 16L23 16L23 14L25 14L25 13L24 13L24 12L26 12L26 13L27 13L27 12L28 12L28 11L26 11L26 10L28 10L28 9L29 9L29 10L30 10L30 9L32 9L32 10L34 10L34 9L32 9L32 8L30 8L30 5L31 5L31 7L32 7L32 5L31 5L31 4ZM9 6L9 7L10 7L10 6ZM6 8L6 9L7 9L7 8ZM26 8L26 9L25 9L25 10L26 10L26 9L28 9L28 8ZM29 8L29 9L30 9L30 8ZM21 10L21 11L22 11L22 10ZM29 11L29 12L30 12L30 11ZM4 13L4 14L5 14L5 13ZM17 13L17 14L16 14L16 16L15 16L15 15L14 15L14 16L15 16L15 20L14 20L14 21L13 21L13 20L11 20L11 21L12 21L12 22L17 22L17 20L16 20L16 19L18 19L18 17L16 17L16 16L17 16L17 14L18 14L18 13ZM20 13L20 14L21 14L21 16L22 16L22 14L21 14L21 13ZM28 13L28 14L29 14L29 15L28 15L28 17L27 17L27 14L26 14L26 17L25 17L25 18L26 18L26 17L27 17L27 18L28 18L28 19L26 19L26 20L25 20L25 21L27 21L27 22L28 22L28 23L29 23L29 24L30 24L30 25L32 25L32 24L34 24L34 25L35 25L35 26L36 26L36 25L35 25L35 23L33 23L33 22L34 22L34 21L36 21L36 20L37 20L37 21L38 21L38 20L37 20L37 18L38 18L38 16L36 16L36 17L35 17L35 19L34 19L34 18L31 18L31 17L30 17L30 19L33 19L33 20L34 20L34 21L32 21L32 20L29 20L29 16L30 16L30 14L29 14L29 13ZM31 13L31 14L32 14L32 15L33 15L33 14L32 14L32 13ZM36 13L36 14L37 14L37 13ZM38 13L38 14L39 14L39 15L40 15L40 14L41 14L41 13L40 13L40 14L39 14L39 13ZM32 16L32 17L33 17L33 16ZM19 17L19 18L20 18L20 17ZM36 17L36 18L37 18L37 17ZM13 18L13 19L14 19L14 18ZM2 19L2 22L3 22L3 19ZM35 19L35 20L36 20L36 19ZM15 20L15 21L16 21L16 20ZM27 20L27 21L28 21L28 22L29 22L29 23L30 23L30 24L31 24L31 23L30 23L30 22L32 22L32 21L30 21L30 22L29 22L29 21L28 21L28 20ZM40 20L40 21L41 21L41 20ZM21 21L21 22L22 22L22 23L24 23L24 24L23 24L23 25L24 25L24 24L25 24L25 23L24 23L24 22L23 22L23 21ZM6 24L6 25L7 25L7 24ZM8 24L8 25L9 25L9 24ZM0 26L0 28L1 28L1 26ZM17 27L17 29L18 29L18 27ZM8 28L8 29L6 29L6 30L7 30L7 31L6 31L6 32L7 32L7 31L8 31L8 32L11 32L11 33L10 33L10 34L11 34L11 35L12 35L12 36L13 36L13 35L14 35L14 36L15 36L15 35L16 35L16 33L15 33L15 32L16 32L16 31L15 31L15 30L13 30L13 31L14 31L14 34L12 34L12 33L13 33L13 32L11 32L11 31L10 31L10 30L12 30L12 29L13 29L13 28ZM33 28L33 29L34 29L34 28ZM0 29L0 33L1 33L1 30L2 30L2 32L3 32L3 31L4 31L4 30L3 30L3 29ZM8 29L8 30L9 30L9 29ZM26 29L26 30L27 30L27 32L26 32L26 31L25 31L25 33L24 33L24 35L25 35L25 33L26 33L26 34L28 34L28 33L29 33L29 32L30 32L30 30L27 30L27 29ZM28 31L28 32L29 32L29 31ZM17 32L17 34L18 34L18 32ZM33 33L33 36L36 36L36 33ZM37 33L37 34L39 34L39 33ZM34 34L34 35L35 35L35 34ZM27 35L27 36L26 36L26 38L28 38L28 37L27 37L27 36L28 36L28 35ZM8 36L8 39L9 39L9 40L10 40L10 41L13 41L13 40L11 40L11 39L10 39L10 38L9 38L9 36ZM17 36L17 37L18 37L18 38L19 38L19 37L18 37L18 36ZM24 36L24 38L25 38L25 36ZM34 37L34 38L36 38L36 37ZM0 0L0 7L7 7L7 0ZM1 1L1 6L6 6L6 1ZM2 2L2 5L5 5L5 2ZM34 0L34 7L41 7L41 0ZM35 1L35 6L40 6L40 1ZM36 2L36 5L39 5L39 2ZM0 34L0 41L7 41L7 34ZM1 35L1 40L6 40L6 35ZM2 36L2 39L5 39L5 36Z" fill="#000000"/></g></g></svg>
