<?xml version="1.0" encoding="UTF-8"?>
<svg xmlns="http://www.w3.org/2000/svg" version="1.1" width="200" height="200" viewBox="0 0 200 200"><rect x="0" y="0" width="200" height="200" fill="#ffffff"/><g transform="scale(4.878)"><g transform="translate(0,0)"><path fill-rule="evenodd" d="M10 0L10 1L8 1L8 2L9 2L9 3L10 3L10 4L9 4L9 5L8 5L8 8L4 8L4 10L5 10L5 9L8 9L8 8L9 8L9 10L6 10L6 11L5 11L5 12L4 12L4 13L7 13L7 14L4 14L4 16L3 16L3 17L2 17L2 16L1 16L1 17L0 17L0 18L1 18L1 19L0 19L0 20L1 20L1 23L0 23L0 24L1 24L1 27L2 27L2 28L1 28L1 29L0 29L0 30L1 30L1 29L2 29L2 32L0 32L0 33L5 33L5 31L4 31L4 30L6 30L6 31L8 31L8 32L9 32L9 33L8 33L8 37L9 37L9 39L10 39L10 40L9 40L9 41L11 41L11 39L13 39L13 38L14 38L14 37L13 37L13 36L12 36L12 37L11 37L11 35L14 35L14 36L15 36L15 37L16 37L16 39L18 39L18 40L17 40L17 41L18 41L18 40L19 40L19 41L20 41L20 40L21 40L21 39L22 39L22 41L23 41L23 40L24 40L24 39L25 39L25 38L27 38L27 40L26 40L26 41L27 41L27 40L28 40L28 41L31 41L31 40L30 40L30 39L31 39L31 38L30 38L30 39L28 39L28 37L29 37L29 36L30 36L30 37L36 37L36 38L37 38L37 39L36 39L36 40L37 40L37 41L40 41L40 40L41 40L41 37L40 37L40 38L39 38L39 37L37 37L37 32L35 32L35 31L34 31L34 32L31 32L31 33L30 33L30 31L29 31L29 29L30 29L30 30L32 30L32 31L33 31L33 29L36 29L36 31L37 31L37 30L38 30L38 31L40 31L40 32L39 32L39 33L38 33L38 34L39 34L39 36L40 36L40 35L41 35L41 33L40 33L40 32L41 32L41 29L40 29L40 30L39 30L39 28L40 28L40 27L41 27L41 24L39 24L39 28L38 28L38 26L37 26L37 25L36 25L36 24L37 24L37 22L40 22L40 23L41 23L41 22L40 22L40 21L41 21L41 13L40 13L40 16L39 16L39 17L38 17L38 14L39 14L39 12L41 12L41 9L40 9L40 8L39 8L39 9L36 9L36 8L34 8L34 9L32 9L32 7L33 7L33 3L31 3L31 2L32 2L32 1L33 1L33 0L32 0L32 1L30 1L30 2L29 2L29 1L28 1L28 0L27 0L27 1L28 1L28 2L27 2L27 3L26 3L26 2L25 2L25 0L24 0L24 1L23 1L23 2L25 2L25 3L26 3L26 4L25 4L25 5L26 5L26 7L25 7L25 6L24 6L24 5L23 5L23 6L22 6L22 7L21 7L21 5L20 5L20 7L21 7L21 8L22 8L22 7L23 7L23 9L21 9L21 10L20 10L20 9L18 9L18 11L16 11L16 10L17 10L17 9L16 9L16 8L18 8L18 7L19 7L19 6L18 6L18 4L22 4L22 3L17 3L17 5L16 5L16 7L15 7L15 5L14 5L14 4L15 4L15 3L16 3L16 1L15 1L15 0ZM17 0L17 2L18 2L18 0ZM19 0L19 2L20 2L20 1L21 1L21 2L22 2L22 1L21 1L21 0ZM10 1L10 2L11 2L11 3L12 3L12 4L11 4L11 5L10 5L10 6L9 6L9 8L11 8L11 9L10 9L10 11L12 11L12 9L13 9L13 12L9 12L9 11L8 11L8 12L7 12L7 11L6 11L6 12L7 12L7 13L8 13L8 14L9 14L9 13L10 13L10 15L8 15L8 16L7 16L7 15L5 15L5 16L4 16L4 18L2 18L2 17L1 17L1 18L2 18L2 19L3 19L3 20L2 20L2 22L3 22L3 23L2 23L2 27L3 27L3 28L4 28L4 29L3 29L3 30L4 30L4 29L6 29L6 30L7 30L7 29L8 29L8 27L6 27L6 26L7 26L7 25L9 25L9 24L10 24L10 27L9 27L9 28L11 28L11 26L13 26L13 27L12 27L12 28L14 28L14 30L15 30L15 33L14 33L14 34L15 34L15 33L16 33L16 34L18 34L18 35L19 35L19 34L18 34L18 33L19 33L19 31L18 31L18 30L19 30L19 29L20 29L20 27L23 27L23 28L21 28L21 30L20 30L20 31L21 31L21 30L22 30L22 32L21 32L21 33L23 33L23 31L24 31L24 30L25 30L25 28L26 28L26 29L27 29L27 31L25 31L25 32L24 32L24 33L25 33L25 32L26 32L26 33L27 33L27 32L28 32L28 33L29 33L29 34L28 34L28 36L27 36L27 35L26 35L26 34L23 34L23 35L24 35L24 36L21 36L21 35L22 35L22 34L21 34L21 35L20 35L20 36L21 36L21 38L19 38L19 37L18 37L18 36L17 36L17 35L15 35L15 36L16 36L16 37L17 37L17 38L19 38L19 40L20 40L20 39L21 39L21 38L23 38L23 39L24 39L24 38L25 38L25 37L24 37L24 36L25 36L25 35L26 35L26 36L27 36L27 37L28 37L28 36L29 36L29 34L30 34L30 35L31 35L31 36L32 36L32 35L31 35L31 34L32 34L32 33L31 33L31 34L30 34L30 33L29 33L29 31L28 31L28 29L29 29L29 28L28 28L28 29L27 29L27 28L26 28L26 27L27 27L27 25L26 25L26 24L24 24L24 22L27 22L27 21L29 21L29 22L28 22L28 23L31 23L31 24L30 24L30 25L31 25L31 28L30 28L30 29L33 29L33 27L34 27L34 28L36 28L36 29L37 29L37 26L36 26L36 25L35 25L35 24L36 24L36 23L34 23L34 25L33 25L33 24L32 24L32 22L33 22L33 21L36 21L36 22L37 22L37 21L39 21L39 20L40 20L40 19L38 19L38 17L37 17L37 14L36 14L36 13L37 13L37 10L36 10L36 9L35 9L35 10L36 10L36 11L35 11L35 12L34 12L34 11L33 11L33 13L32 13L32 15L33 15L33 16L31 16L31 17L30 17L30 18L29 18L29 16L27 16L27 15L26 15L26 14L28 14L28 15L29 15L29 14L30 14L30 15L31 15L31 14L30 14L30 13L28 13L28 11L29 11L29 9L28 9L28 8L29 8L29 7L30 7L30 5L32 5L32 4L31 4L31 3L30 3L30 4L29 4L29 5L27 5L27 7L26 7L26 10L25 10L25 11L24 11L24 10L22 10L22 11L21 11L21 12L22 12L22 13L23 13L23 14L22 14L22 15L21 15L21 17L19 17L19 14L16 14L16 13L15 13L15 12L16 12L16 11L15 11L15 9L13 9L13 7L14 7L14 8L15 8L15 7L14 7L14 6L13 6L13 7L12 7L12 6L11 6L11 5L13 5L13 2L14 2L14 1ZM28 2L28 3L27 3L27 4L28 4L28 3L29 3L29 2ZM23 3L23 4L24 4L24 3ZM10 6L10 7L11 7L11 8L12 8L12 7L11 7L11 6ZM17 6L17 7L18 7L18 6ZM23 6L23 7L24 7L24 6ZM28 6L28 7L29 7L29 6ZM31 6L31 7L32 7L32 6ZM24 8L24 9L25 9L25 8ZM0 9L0 13L2 13L2 15L3 15L3 9ZM27 9L27 11L26 11L26 12L25 12L25 14L26 14L26 13L27 13L27 11L28 11L28 9ZM30 9L30 11L31 11L31 12L32 12L32 9ZM19 10L19 11L18 11L18 12L19 12L19 13L20 13L20 14L21 14L21 13L20 13L20 10ZM1 11L1 12L2 12L2 11ZM14 11L14 12L13 12L13 13L11 13L11 16L12 16L12 14L14 14L14 15L16 15L16 16L13 16L13 17L12 17L12 18L15 18L15 17L16 17L16 20L17 20L17 18L18 18L18 19L19 19L19 20L18 20L18 22L20 22L20 23L22 23L22 24L23 24L23 25L21 25L21 24L20 24L20 25L21 25L21 26L23 26L23 27L24 27L24 28L25 28L25 26L26 26L26 25L25 25L25 26L24 26L24 24L23 24L23 22L24 22L24 21L26 21L26 20L25 20L25 17L24 17L24 16L23 16L23 15L24 15L24 14L23 14L23 15L22 15L22 17L21 17L21 18L23 18L23 19L21 19L21 20L23 20L23 22L20 22L20 18L19 18L19 17L17 17L17 16L18 16L18 15L16 15L16 14L15 14L15 13L14 13L14 12L15 12L15 11ZM38 11L38 12L39 12L39 11ZM8 12L8 13L9 13L9 12ZM23 12L23 13L24 13L24 12ZM33 13L33 15L34 15L34 16L35 16L35 17L34 17L34 18L35 18L35 19L34 19L34 20L35 20L35 19L36 19L36 21L37 21L37 17L36 17L36 14L34 14L34 13ZM0 14L0 15L1 15L1 14ZM25 15L25 16L26 16L26 15ZM6 16L6 17L7 17L7 18L6 18L6 19L4 19L4 20L3 20L3 22L4 22L4 20L6 20L6 21L7 21L7 22L6 22L6 23L4 23L4 25L3 25L3 27L5 27L5 26L6 26L6 25L7 25L7 24L6 24L6 23L7 23L7 22L8 22L8 23L9 23L9 22L10 22L10 23L11 23L11 25L12 25L12 24L13 24L13 23L11 23L11 22L10 22L10 21L12 21L12 19L11 19L11 18L10 18L10 19L11 19L11 20L9 20L9 18L8 18L8 17L7 17L7 16ZM9 16L9 17L10 17L10 16ZM27 17L27 20L29 20L29 19L28 19L28 17ZM32 17L32 19L31 19L31 18L30 18L30 19L31 19L31 21L30 21L30 22L31 22L31 21L33 21L33 20L32 20L32 19L33 19L33 17ZM35 17L35 18L36 18L36 17ZM6 19L6 20L7 20L7 21L8 21L8 20L7 20L7 19ZM13 19L13 22L14 22L14 23L15 23L15 24L14 24L14 25L13 25L13 26L14 26L14 25L15 25L15 26L19 26L19 27L20 27L20 26L19 26L19 25L18 25L18 24L19 24L19 23L17 23L17 24L16 24L16 21L14 21L14 20L15 20L15 19ZM23 19L23 20L24 20L24 19ZM28 24L28 25L29 25L29 24ZM31 24L31 25L32 25L32 27L33 27L33 25L32 25L32 24ZM4 25L4 26L5 26L5 25ZM34 25L34 26L35 26L35 27L36 27L36 26L35 26L35 25ZM28 26L28 27L29 27L29 26ZM14 27L14 28L15 28L15 29L16 29L16 27ZM17 27L17 29L18 29L18 27ZM6 28L6 29L7 29L7 28ZM9 29L9 32L11 32L11 33L9 33L9 35L10 35L10 34L13 34L13 32L12 32L12 30L11 30L11 29ZM22 29L22 30L23 30L23 29ZM10 30L10 31L11 31L11 30ZM16 31L16 32L17 32L17 33L18 33L18 31ZM6 32L6 33L7 33L7 32ZM33 33L33 36L36 36L36 33ZM39 33L39 34L40 34L40 33ZM34 34L34 35L35 35L35 34ZM9 36L9 37L10 37L10 39L11 39L11 37L10 37L10 36ZM14 39L14 40L13 40L13 41L14 41L14 40L15 40L15 41L16 41L16 40L15 40L15 39ZM32 39L32 41L33 41L33 39ZM34 39L34 40L35 40L35 39ZM37 39L37 40L39 40L39 39ZM0 0L0 7L7 7L7 0ZM1 1L1 6L6 6L6 1ZM2 2L2 5L5 5L5 2ZM34 0L34 7L41 7L41 0ZM35 1L35 6L40 6L40 1ZM36 2L36 5L39 5L39 2ZM0 34L0 41L7 41L7 34ZM1 35L1 40L6 40L6 35ZM2 36L2 39L5 39L5 36Z" fill="#000000"/></g></g></svg>
