<?xml version="1.0" encoding="UTF-8"?>
<svg xmlns="http://www.w3.org/2000/svg" version="1.1" width="200" height="200" viewBox="0 0 200 200"><rect x="0" y="0" width="200" height="200" fill="#ffffff"/><g transform="scale(6.897)"><g transform="translate(0,0)"><path fill-rule="evenodd" d="M8 0L8 1L9 1L9 2L8 2L8 3L9 3L9 4L8 4L8 5L9 5L9 6L8 6L8 8L10 8L10 9L11 9L11 8L10 8L10 7L11 7L11 5L12 5L12 4L13 4L13 6L12 6L12 9L13 9L13 12L14 12L14 10L16 10L16 8L19 8L19 9L17 9L17 11L15 11L15 12L16 12L16 13L14 13L14 15L15 15L15 16L13 16L13 17L15 17L15 18L13 18L13 19L12 19L12 20L11 20L11 19L10 19L10 17L11 17L11 16L12 16L12 13L11 13L11 14L9 14L9 15L11 15L11 16L8 16L8 15L7 15L7 14L5 14L5 13L7 13L7 12L6 12L6 11L7 11L7 10L8 10L8 9L7 9L7 8L5 8L5 9L7 9L7 10L4 10L4 9L1 9L1 10L2 10L2 11L0 11L0 12L2 12L2 13L0 13L0 14L1 14L1 15L0 15L0 21L1 21L1 19L2 19L2 20L3 20L3 21L8 21L8 22L9 22L9 23L8 23L8 24L9 24L9 25L10 25L10 29L11 29L11 27L12 27L12 25L14 25L14 24L12 24L12 25L10 25L10 24L11 24L11 23L10 23L10 21L8 21L8 20L9 20L9 19L10 19L10 20L11 20L11 22L12 22L12 23L15 23L15 24L17 24L17 25L15 25L15 26L13 26L13 29L15 29L15 28L17 28L17 27L18 27L18 29L25 29L25 27L23 27L23 26L21 26L21 25L24 25L24 26L25 26L25 22L26 22L26 23L27 23L27 24L26 24L26 25L27 25L27 24L28 24L28 25L29 25L29 24L28 24L28 23L27 23L27 22L28 22L28 21L29 21L29 20L28 20L28 21L25 21L25 20L26 20L26 19L25 19L25 18L28 18L28 19L29 19L29 18L28 18L28 16L27 16L27 15L28 15L28 13L29 13L29 12L27 12L27 11L28 11L28 10L26 10L26 9L27 9L27 8L26 8L26 9L25 9L25 8L24 8L24 9L23 9L23 8L22 8L22 10L24 10L24 9L25 9L25 12L24 12L24 11L20 11L20 10L19 10L19 9L20 9L20 7L21 7L21 5L20 5L20 4L19 4L19 3L18 3L18 4L17 4L17 6L16 6L16 0L15 0L15 2L14 2L14 3L15 3L15 4L13 4L13 3L12 3L12 0ZM17 0L17 1L18 1L18 2L19 2L19 1L20 1L20 2L21 2L21 0L19 0L19 1L18 1L18 0ZM10 3L10 5L11 5L11 4L12 4L12 3ZM14 5L14 6L13 6L13 9L14 9L14 8L15 8L15 7L16 7L16 6L15 6L15 5ZM18 5L18 6L17 6L17 7L18 7L18 6L19 6L19 7L20 7L20 6L19 6L19 5ZM9 6L9 7L10 7L10 6ZM14 6L14 7L15 7L15 6ZM28 8L28 9L29 9L29 8ZM9 10L9 11L8 11L8 12L9 12L9 13L10 13L10 10ZM2 11L2 12L3 12L3 13L2 13L2 15L1 15L1 16L2 16L2 17L1 17L1 18L2 18L2 17L3 17L3 16L2 16L2 15L4 15L4 16L5 16L5 17L6 17L6 18L8 18L8 19L9 19L9 17L8 17L8 16L7 16L7 15L6 15L6 16L5 16L5 15L4 15L4 14L3 14L3 13L5 13L5 11L4 11L4 12L3 12L3 11ZM11 11L11 12L12 12L12 11ZM18 11L18 12L17 12L17 13L16 13L16 17L18 17L18 19L17 19L17 18L15 18L15 19L13 19L13 20L12 20L12 21L13 21L13 20L15 20L15 21L16 21L16 22L15 22L15 23L17 23L17 24L18 24L18 25L17 25L17 26L16 26L16 27L17 27L17 26L18 26L18 27L19 27L19 28L20 28L20 27L21 27L21 26L20 26L20 27L19 27L19 26L18 26L18 25L19 25L19 24L20 24L20 20L22 20L22 19L21 19L21 17L20 17L20 15L21 15L21 14L22 14L22 15L23 15L23 16L22 16L22 18L24 18L24 12L23 12L23 14L22 14L22 12L21 12L21 13L20 13L20 12L19 12L19 11ZM18 12L18 13L17 13L17 15L18 15L18 13L19 13L19 12ZM26 13L26 14L27 14L27 13ZM25 15L25 16L26 16L26 15ZM6 16L6 17L7 17L7 16ZM18 16L18 17L19 17L19 16ZM3 18L3 19L4 19L4 18ZM19 18L19 19L18 19L18 20L19 20L19 19L20 19L20 18ZM6 19L6 20L7 20L7 19ZM16 19L16 21L17 21L17 23L18 23L18 24L19 24L19 23L18 23L18 21L17 21L17 19ZM23 19L23 20L24 20L24 19ZM21 21L21 24L24 24L24 21ZM22 22L22 23L23 23L23 22ZM9 23L9 24L10 24L10 23ZM27 26L27 27L26 27L26 28L27 28L27 29L28 29L28 28L27 28L27 27L28 27L28 26ZM22 27L22 28L23 28L23 27ZM0 0L0 7L7 7L7 0ZM1 1L1 6L6 6L6 1ZM2 2L2 5L5 5L5 2ZM22 0L22 7L29 7L29 0ZM23 1L23 6L28 6L28 1ZM24 2L24 5L27 5L27 2ZM0 22L0 29L7 29L7 22ZM1 23L1 28L6 28L6 23ZM2 24L2 27L5 27L5 24Z" fill="#000000"/></g></g></svg>
