<?xml version="1.0" encoding="UTF-8"?>
<svg xmlns="http://www.w3.org/2000/svg" version="1.1" width="200" height="200" viewBox="0 0 200 200"><rect x="0" y="0" width="200" height="200" fill="#ffffff"/><g transform="scale(4.878)"><g transform="translate(0,0)"><path fill-rule="evenodd" d="M11 0L11 2L12 2L12 4L10 4L10 3L9 3L9 2L10 2L10 1L9 1L9 2L8 2L8 4L10 4L10 7L9 7L9 6L8 6L8 7L9 7L9 8L10 8L10 7L11 7L11 10L13 10L13 9L14 9L14 10L15 10L15 9L16 9L16 10L17 10L17 11L20 11L20 12L18 12L18 13L17 13L17 12L16 12L16 11L14 11L14 12L10 12L10 11L9 11L9 12L10 12L10 13L8 13L8 11L7 11L7 10L9 10L9 9L8 9L8 8L6 8L6 9L5 9L5 8L3 8L3 9L1 9L1 11L3 11L3 12L1 12L1 13L0 13L0 16L2 16L2 17L0 17L0 18L1 18L1 19L0 19L0 22L1 22L1 23L0 23L0 24L1 24L1 23L2 23L2 24L4 24L4 25L5 25L5 26L6 26L6 27L4 27L4 29L3 29L3 26L2 26L2 25L1 25L1 26L0 26L0 28L2 28L2 29L3 29L3 30L1 30L1 29L0 29L0 33L2 33L2 32L6 32L6 33L8 33L8 35L9 35L9 34L10 34L10 33L11 33L11 34L12 34L12 33L14 33L14 32L10 32L10 31L9 31L9 32L8 32L8 31L7 31L7 30L9 30L9 29L10 29L10 30L11 30L11 31L13 31L13 30L14 30L14 31L15 31L15 32L16 32L16 30L18 30L18 31L19 31L19 32L18 32L18 33L16 33L16 36L17 36L17 37L15 37L15 35L14 35L14 34L13 34L13 35L10 35L10 36L13 36L13 37L12 37L12 38L10 38L10 39L9 39L9 40L10 40L10 39L12 39L12 38L13 38L13 37L14 37L14 39L13 39L13 40L14 40L14 41L15 41L15 40L16 40L16 39L15 39L15 38L18 38L18 36L19 36L19 34L22 34L22 33L23 33L23 34L24 34L24 36L25 36L25 35L26 35L26 34L27 34L27 35L28 35L28 36L29 36L29 38L28 38L28 37L27 37L27 36L26 36L26 37L22 37L22 35L21 35L21 36L20 36L20 37L19 37L19 39L17 39L17 40L18 40L18 41L21 41L21 40L20 40L20 37L22 37L22 38L21 38L21 39L22 39L22 38L23 38L23 40L24 40L24 41L27 41L27 40L26 40L26 39L25 39L25 40L24 40L24 38L26 38L26 37L27 37L27 39L28 39L28 41L29 41L29 38L30 38L30 39L31 39L31 40L30 40L30 41L31 41L31 40L32 40L32 41L34 41L34 40L35 40L35 41L36 41L36 39L37 39L37 40L38 40L38 41L39 41L39 40L38 40L38 39L40 39L40 40L41 40L41 36L40 36L40 34L37 34L37 33L39 33L39 31L41 31L41 30L39 30L39 31L38 31L38 30L37 30L37 29L34 29L34 28L35 28L35 26L36 26L36 27L37 27L37 28L38 28L38 29L40 29L40 28L41 28L41 25L39 25L39 24L37 24L37 23L38 23L38 22L41 22L41 21L39 21L39 20L40 20L40 19L41 19L41 18L40 18L40 17L41 17L41 12L40 12L40 9L39 9L39 8L37 8L37 9L35 9L35 10L34 10L34 11L35 11L35 13L36 13L36 15L35 15L35 14L33 14L33 13L32 13L32 12L33 12L33 11L32 11L32 12L30 12L30 10L33 10L33 8L31 8L31 5L32 5L32 4L33 4L33 3L32 3L32 1L33 1L33 0L32 0L32 1L31 1L31 2L30 2L30 1L29 1L29 0L28 0L28 2L27 2L27 1L26 1L26 0L24 0L24 1L23 1L23 2L22 2L22 3L19 3L19 5L15 5L15 4L14 4L14 3L17 3L17 4L18 4L18 2L19 2L19 1L20 1L20 0L19 0L19 1L18 1L18 2L15 2L15 1L16 1L16 0L13 0L13 1L12 1L12 0ZM21 0L21 1L22 1L22 0ZM13 1L13 2L14 2L14 1ZM24 1L24 2L23 2L23 3L24 3L24 4L26 4L26 5L27 5L27 7L26 7L26 6L25 6L25 5L22 5L22 6L21 6L21 7L22 7L22 6L23 6L23 7L24 7L24 6L25 6L25 7L26 7L26 8L25 8L25 9L24 9L24 8L20 8L20 6L19 6L19 8L18 8L18 6L17 6L17 7L16 7L16 6L15 6L15 5L14 5L14 4L13 4L13 8L12 8L12 9L13 9L13 8L16 8L16 9L17 9L17 10L18 10L18 9L19 9L19 10L20 10L20 11L21 11L21 12L20 12L20 14L19 14L19 13L18 13L18 14L17 14L17 13L16 13L16 14L15 14L15 16L14 16L14 13L15 13L15 12L14 12L14 13L10 13L10 14L11 14L11 15L10 15L10 18L9 18L9 17L8 17L8 16L9 16L9 15L8 15L8 14L7 14L7 13L6 13L6 12L7 12L7 11L6 11L6 10L7 10L7 9L6 9L6 10L4 10L4 14L2 14L2 13L1 13L1 15L4 15L4 14L7 14L7 15L5 15L5 16L3 16L3 17L2 17L2 23L3 23L3 20L4 20L4 19L5 19L5 20L7 20L7 21L5 21L5 22L4 22L4 24L5 24L5 25L6 25L6 26L7 26L7 27L6 27L6 28L5 28L5 30L4 30L4 31L6 31L6 32L7 32L7 31L6 31L6 30L7 30L7 29L6 29L6 28L10 28L10 29L11 29L11 30L13 30L13 29L14 29L14 30L15 30L15 29L16 29L16 26L14 26L14 24L15 24L15 25L16 25L16 24L15 24L15 23L14 23L14 24L13 24L13 25L11 25L11 24L12 24L12 23L13 23L13 22L12 22L12 23L11 23L11 22L10 22L10 21L9 21L9 19L10 19L10 20L11 20L11 21L13 21L13 20L14 20L14 21L16 21L16 23L17 23L17 22L18 22L18 24L17 24L17 25L19 25L19 27L17 27L17 28L18 28L18 30L19 30L19 29L20 29L20 30L21 30L21 31L20 31L20 32L22 32L22 30L23 30L23 32L24 32L24 27L23 27L23 25L21 25L21 27L20 27L20 25L19 25L19 20L17 20L17 21L16 21L16 20L15 20L15 16L16 16L16 19L18 19L18 18L21 18L21 17L20 17L20 16L21 16L21 15L20 15L20 14L22 14L22 15L24 15L24 18L23 18L23 16L22 16L22 22L23 22L23 23L22 23L22 24L23 24L23 23L24 23L24 24L26 24L26 22L27 22L27 20L28 20L28 19L29 19L29 21L28 21L28 23L27 23L27 24L29 24L29 25L30 25L30 26L29 26L29 27L27 27L27 25L26 25L26 26L25 26L25 27L26 27L26 29L27 29L27 30L28 30L28 31L27 31L27 32L26 32L26 30L25 30L25 32L26 32L26 33L24 33L24 34L26 34L26 33L27 33L27 32L30 32L30 31L31 31L31 33L30 33L30 34L29 34L29 33L28 33L28 34L29 34L29 36L30 36L30 37L31 37L31 38L32 38L32 40L33 40L33 39L35 39L35 38L36 38L36 37L33 37L33 38L32 38L32 37L31 37L31 36L32 36L32 35L31 35L31 33L32 33L32 32L33 32L33 31L34 31L34 32L36 32L36 31L37 31L37 32L38 32L38 31L37 31L37 30L33 30L33 31L32 31L32 28L33 28L33 26L32 26L32 25L33 25L33 24L32 24L32 23L33 23L33 22L31 22L31 21L30 21L30 20L31 20L31 19L29 19L29 18L28 18L28 19L26 19L26 18L25 18L25 17L30 17L30 18L31 18L31 17L32 17L32 19L34 19L34 20L35 20L35 17L37 17L37 16L38 16L38 18L39 18L39 17L40 17L40 16L38 16L38 14L37 14L37 16L34 16L34 17L33 17L33 16L32 16L32 15L30 15L30 12L29 12L29 10L30 10L30 9L31 9L31 8L30 8L30 6L29 6L29 8L30 8L30 9L28 9L28 11L27 11L27 12L29 12L29 15L28 15L28 13L25 13L25 14L24 14L24 13L23 13L23 11L24 11L24 10L26 10L26 8L27 8L27 7L28 7L28 5L29 5L29 4L31 4L31 3L29 3L29 2L28 2L28 4L26 4L26 3L25 3L25 1ZM20 4L20 5L21 5L21 4ZM11 5L11 7L12 7L12 5ZM14 6L14 7L15 7L15 6ZM32 6L32 7L33 7L33 6ZM17 8L17 9L18 9L18 8ZM19 8L19 9L20 9L20 10L21 10L21 9L20 9L20 8ZM23 9L23 10L22 10L22 11L23 11L23 10L24 10L24 9ZM37 9L37 10L38 10L38 12L39 12L39 10L38 10L38 9ZM35 10L35 11L36 11L36 10ZM5 11L5 12L6 12L6 11ZM36 12L36 13L37 13L37 12ZM22 13L22 14L23 14L23 13ZM12 14L12 15L13 15L13 14ZM18 14L18 15L16 15L16 16L17 16L17 18L18 18L18 15L19 15L19 16L20 16L20 15L19 15L19 14ZM25 14L25 15L26 15L26 14ZM7 15L7 16L5 16L5 18L6 18L6 19L7 19L7 20L8 20L8 19L7 19L7 18L6 18L6 17L7 17L7 16L8 16L8 15ZM27 15L27 16L28 16L28 15ZM30 16L30 17L31 17L31 16ZM3 17L3 19L4 19L4 17ZM11 17L11 19L12 19L12 20L13 20L13 19L14 19L14 18L12 18L12 17ZM36 18L36 20L37 20L37 21L38 21L38 20L37 20L37 18ZM20 19L20 22L21 22L21 19ZM23 19L23 22L24 22L24 21L26 21L26 20L25 20L25 19ZM8 21L8 23L7 23L7 22L6 22L6 23L7 23L7 24L6 24L6 25L7 25L7 24L8 24L8 23L9 23L9 26L8 26L8 27L9 27L9 26L10 26L10 28L11 28L11 29L13 29L13 28L14 28L14 29L15 29L15 27L13 27L13 26L12 26L12 27L11 27L11 25L10 25L10 22L9 22L9 21ZM34 21L34 23L36 23L36 21ZM30 22L30 23L29 23L29 24L30 24L30 25L32 25L32 24L31 24L31 22ZM36 24L36 25L37 25L37 27L39 27L39 25L37 25L37 24ZM31 26L31 27L32 27L32 26ZM21 27L21 30L22 30L22 29L23 29L23 28L22 28L22 27ZM27 28L27 29L28 29L28 30L29 30L29 31L30 31L30 29L31 29L31 28L30 28L30 29L29 29L29 28ZM40 32L40 33L41 33L41 32ZM18 33L18 34L19 34L19 33ZM33 33L33 36L36 36L36 33ZM34 34L34 35L35 35L35 34ZM13 35L13 36L14 36L14 35ZM17 35L17 36L18 36L18 35ZM30 35L30 36L31 36L31 35ZM37 35L37 38L40 38L40 37L39 37L39 35ZM8 36L8 38L9 38L9 36ZM14 39L14 40L15 40L15 39ZM0 0L0 7L7 7L7 0ZM1 1L1 6L6 6L6 1ZM2 2L2 5L5 5L5 2ZM34 0L34 7L41 7L41 0ZM35 1L35 6L40 6L40 1ZM36 2L36 5L39 5L39 2ZM0 34L0 41L7 41L7 34ZM1 35L1 40L6 40L6 35ZM2 36L2 39L5 39L5 36Z" fill="#000000"/></g></g></svg>
