<?xml version="1.0" encoding="UTF-8"?>
<svg xmlns="http://www.w3.org/2000/svg" version="1.1" width="200" height="200" viewBox="0 0 200 200"><rect x="0" y="0" width="200" height="200" fill="#ffffff"/><g transform="scale(6.897)"><g transform="translate(0,0)"><path fill-rule="evenodd" d="M8 0L8 3L10 3L10 4L9 4L9 5L8 5L8 9L7 9L7 8L6 8L6 9L5 9L5 8L2 8L2 9L1 9L1 10L2 10L2 9L4 9L4 10L3 10L3 12L2 12L2 11L0 11L0 12L1 12L1 13L0 13L0 14L2 14L2 13L3 13L3 12L4 12L4 13L5 13L5 12L6 12L6 13L9 13L9 14L10 14L10 13L11 13L11 15L10 15L10 18L9 18L9 17L7 17L7 16L9 16L9 15L7 15L7 14L5 14L5 16L4 16L4 18L3 18L3 17L1 17L1 16L2 16L2 15L0 15L0 21L1 21L1 18L2 18L2 19L4 19L4 20L2 20L2 21L8 21L8 22L10 22L10 24L11 24L11 26L10 26L10 25L9 25L9 24L8 24L8 27L9 27L9 28L10 28L10 29L11 29L11 28L12 28L12 27L11 27L11 26L12 26L12 24L11 24L11 22L12 22L12 23L13 23L13 22L14 22L14 23L15 23L15 22L14 22L14 21L16 21L16 22L17 22L17 23L16 23L16 24L17 24L17 25L15 25L15 24L13 24L13 25L14 25L14 26L13 26L13 29L15 29L15 28L17 28L17 27L18 27L18 29L25 29L25 28L26 28L26 29L28 29L28 28L29 28L29 27L28 27L28 25L27 25L27 26L26 26L26 27L23 27L23 26L22 26L22 25L24 25L24 26L25 26L25 25L26 25L26 24L25 24L25 22L26 22L26 23L27 23L27 22L26 22L26 21L25 21L25 20L28 20L28 22L29 22L29 20L28 20L28 19L27 19L27 17L28 17L28 10L29 10L29 8L26 8L26 9L25 9L25 12L24 12L24 11L22 11L22 12L23 12L23 13L21 13L21 15L22 15L22 14L23 14L23 13L24 13L24 19L25 19L25 20L23 20L23 19L22 19L22 18L20 18L20 19L21 19L21 20L20 20L20 25L19 25L19 27L18 27L18 26L17 26L17 25L18 25L18 24L17 24L17 23L18 23L18 22L17 22L17 20L13 20L13 21L12 21L12 20L11 20L11 18L12 18L12 19L13 19L13 17L14 17L14 18L15 18L15 17L17 17L17 18L16 18L16 19L17 19L17 18L19 18L19 17L17 17L17 15L18 15L18 14L17 14L17 15L16 15L16 14L15 14L15 13L16 13L16 10L15 10L15 9L16 9L16 8L19 8L19 9L17 9L17 13L20 13L20 12L21 12L21 11L20 11L20 10L22 10L22 9L23 9L23 10L24 10L24 8L21 8L21 9L20 9L20 7L21 7L21 5L20 5L20 4L21 4L21 3L20 3L20 4L19 4L19 3L18 3L18 4L17 4L17 3L16 3L16 2L17 2L17 0L15 0L15 2L14 2L14 4L13 4L13 3L12 3L12 1L10 1L10 0ZM13 0L13 1L14 1L14 0ZM9 1L9 2L10 2L10 1ZM18 1L18 2L19 2L19 1ZM20 1L20 2L21 2L21 1ZM11 3L11 4L10 4L10 5L11 5L11 10L10 10L10 11L9 11L9 10L7 10L7 9L6 9L6 10L7 10L7 11L6 11L6 12L12 12L12 16L11 16L11 17L12 17L12 16L14 16L14 17L15 17L15 16L16 16L16 15L14 15L14 14L13 14L13 12L12 12L12 11L13 11L13 9L14 9L14 6L13 6L13 4L12 4L12 3ZM15 3L15 4L16 4L16 5L15 5L15 8L16 8L16 6L17 6L17 7L18 7L18 6L19 6L19 7L20 7L20 6L19 6L19 5L18 5L18 6L17 6L17 4L16 4L16 3ZM11 4L11 5L12 5L12 4ZM9 6L9 9L10 9L10 6ZM12 6L12 8L13 8L13 6ZM19 9L19 10L20 10L20 9ZM11 10L11 11L12 11L12 10ZM14 10L14 12L15 12L15 10ZM26 10L26 11L27 11L27 10ZM4 11L4 12L5 12L5 11ZM18 11L18 12L19 12L19 11ZM25 12L25 13L26 13L26 14L27 14L27 12ZM6 15L6 16L7 16L7 15ZM25 15L25 16L27 16L27 15ZM20 16L20 17L22 17L22 16ZM6 17L6 18L4 18L4 19L6 19L6 20L7 20L7 19L6 19L6 18L7 18L7 17ZM8 18L8 21L11 21L11 20L9 20L9 18ZM25 18L25 19L26 19L26 18ZM18 19L18 20L19 20L19 19ZM21 21L21 24L24 24L24 21ZM22 22L22 23L23 23L23 22ZM9 26L9 27L10 27L10 28L11 28L11 27L10 27L10 26ZM15 26L15 27L14 27L14 28L15 28L15 27L17 27L17 26ZM20 26L20 27L19 27L19 28L22 28L22 27L21 27L21 26ZM0 0L0 7L7 7L7 0ZM1 1L1 6L6 6L6 1ZM2 2L2 5L5 5L5 2ZM22 0L22 7L29 7L29 0ZM23 1L23 6L28 6L28 1ZM24 2L24 5L27 5L27 2ZM0 22L0 29L7 29L7 22ZM1 23L1 28L6 28L6 23ZM2 24L2 27L5 27L5 24Z" fill="#000000"/></g></g></svg>
