<?xml version="1.0" encoding="UTF-8"?>
<svg xmlns="http://www.w3.org/2000/svg" version="1.1" width="200" height="200" viewBox="0 0 200 200"><rect x="0" y="0" width="200" height="200" fill="#ffffff"/><g transform="scale(6.897)"><g transform="translate(0,0)"><path fill-rule="evenodd" d="M8 0L8 1L9 1L9 3L8 3L8 4L9 4L9 3L10 3L10 5L11 5L11 6L10 6L10 7L9 7L9 6L8 6L8 7L9 7L9 8L8 8L8 9L7 9L7 8L4 8L4 9L3 9L3 8L2 8L2 9L3 9L3 10L2 10L2 11L1 11L1 12L0 12L0 14L2 14L2 15L1 15L1 16L0 16L0 17L2 17L2 16L3 16L3 14L2 14L2 13L3 13L3 12L5 12L5 11L7 11L7 12L6 12L6 13L4 13L4 15L5 15L5 16L4 16L4 17L3 17L3 18L2 18L2 19L1 19L1 18L0 18L0 19L1 19L1 20L0 20L0 21L1 21L1 20L2 20L2 21L7 21L7 20L8 20L8 22L9 22L9 23L8 23L8 25L9 25L9 26L8 26L8 27L10 27L10 26L12 26L12 28L10 28L10 29L13 29L13 26L14 26L14 29L16 29L16 28L18 28L18 29L20 29L20 25L21 25L21 26L22 26L22 25L23 25L23 26L24 26L24 25L27 25L27 26L28 26L28 27L27 27L27 28L26 28L26 26L25 26L25 28L23 28L23 27L22 27L22 28L23 28L23 29L27 29L27 28L28 28L28 29L29 29L29 26L28 26L28 25L29 25L29 24L26 24L26 23L25 23L25 20L26 20L26 21L28 21L28 22L27 22L27 23L29 23L29 21L28 21L28 19L29 19L29 18L27 18L27 17L26 17L26 14L24 14L24 13L25 13L25 11L26 11L26 13L27 13L27 14L28 14L28 15L27 15L27 16L28 16L28 17L29 17L29 16L28 16L28 15L29 15L29 14L28 14L28 13L29 13L29 12L28 12L28 11L29 11L29 8L28 8L28 9L26 9L26 8L25 8L25 9L24 9L24 10L25 10L25 11L24 11L24 12L23 12L23 10L22 10L22 8L21 8L21 0L20 0L20 1L19 1L19 2L20 2L20 3L19 3L19 4L18 4L18 3L17 3L17 5L16 5L16 4L15 4L15 3L16 3L16 2L18 2L18 1L15 1L15 0L12 0L12 1L11 1L11 2L10 2L10 1L9 1L9 0ZM12 1L12 2L11 2L11 3L12 3L12 4L11 4L11 5L13 5L13 3L14 3L14 2L15 2L15 1ZM12 2L12 3L13 3L13 2ZM15 5L15 7L16 7L16 9L18 9L18 10L16 10L16 11L15 11L15 13L16 13L16 14L14 14L14 13L13 13L13 12L14 12L14 11L12 11L12 10L9 10L9 12L7 12L7 13L6 13L6 14L5 14L5 15L6 15L6 16L8 16L8 18L7 18L7 17L6 17L6 18L5 18L5 20L7 20L7 19L8 19L8 18L9 18L9 21L11 21L11 20L13 20L13 19L15 19L15 17L14 17L14 16L17 16L17 17L16 17L16 19L17 19L17 20L18 20L18 22L16 22L16 20L15 20L15 22L13 22L13 23L12 23L12 24L10 24L10 23L11 23L11 22L10 22L10 23L9 23L9 24L10 24L10 25L12 25L12 26L13 26L13 25L12 25L12 24L13 24L13 23L14 23L14 24L17 24L17 26L16 26L16 27L15 27L15 28L16 28L16 27L19 27L19 26L18 26L18 22L19 22L19 21L20 21L20 20L21 20L21 19L22 19L22 18L23 18L23 19L24 19L24 20L25 20L25 19L24 19L24 18L26 18L26 20L27 20L27 18L26 18L26 17L24 17L24 16L25 16L25 15L24 15L24 14L23 14L23 15L22 15L22 14L21 14L21 13L20 13L20 14L19 14L19 12L20 12L20 11L18 11L18 10L19 10L19 8L20 8L20 5L19 5L19 7L18 7L18 5L17 5L17 7L16 7L16 5ZM11 6L11 7L12 7L12 6ZM13 6L13 7L14 7L14 6ZM9 8L9 9L10 9L10 8ZM13 8L13 9L14 9L14 10L15 10L15 9L14 9L14 8ZM0 9L0 10L1 10L1 9ZM6 9L6 10L7 10L7 11L8 11L8 10L7 10L7 9ZM3 10L3 11L2 11L2 12L3 12L3 11L4 11L4 10ZM27 10L27 11L28 11L28 10ZM11 11L11 13L9 13L9 14L8 14L8 16L9 16L9 17L11 17L11 18L12 18L12 17L13 17L13 18L14 18L14 17L13 17L13 16L12 16L12 17L11 17L11 15L10 15L10 14L13 14L13 15L14 15L14 14L13 14L13 13L12 13L12 11ZM21 11L21 12L22 12L22 11ZM27 12L27 13L28 13L28 12ZM6 14L6 15L7 15L7 14ZM16 14L16 15L18 15L18 14ZM20 14L20 15L19 15L19 16L18 16L18 18L17 18L17 19L19 19L19 20L20 20L20 19L19 19L19 18L20 18L20 17L19 17L19 16L20 16L20 15L21 15L21 14ZM23 15L23 16L22 16L22 17L23 17L23 18L24 18L24 17L23 17L23 16L24 16L24 15ZM6 18L6 19L7 19L7 18ZM3 19L3 20L4 20L4 19ZM10 19L10 20L11 20L11 19ZM21 21L21 24L24 24L24 21ZM15 22L15 23L16 23L16 22ZM22 22L22 23L23 23L23 22ZM14 25L14 26L15 26L15 25ZM0 0L0 7L7 7L7 0ZM1 1L1 6L6 6L6 1ZM2 2L2 5L5 5L5 2ZM22 0L22 7L29 7L29 0ZM23 1L23 6L28 6L28 1ZM24 2L24 5L27 5L27 2ZM0 22L0 29L7 29L7 22ZM1 23L1 28L6 28L6 23ZM2 24L2 27L5 27L5 24Z" fill="#000000"/></g></g></svg>
