<?xml version="1.0" encoding="UTF-8"?>
<svg xmlns="http://www.w3.org/2000/svg" version="1.1" width="200" height="200" viewBox="0 0 200 200"><rect x="0" y="0" width="200" height="200" fill="#ffffff"/><g transform="scale(4.878)"><g transform="translate(0,0)"><path fill-rule="evenodd" d="M8 0L8 3L9 3L9 5L8 5L8 9L7 9L7 8L6 8L6 9L5 9L5 8L2 8L2 12L1 12L1 13L0 13L0 16L2 16L2 17L0 17L0 21L3 21L3 20L4 20L4 21L8 21L8 20L9 20L9 21L10 21L10 23L12 23L12 25L11 25L11 24L10 24L10 25L8 25L8 23L9 23L9 22L8 22L8 23L7 23L7 22L1 22L1 23L2 23L2 24L0 24L0 26L2 26L2 24L3 24L3 27L4 27L4 28L2 28L2 27L0 27L0 33L1 33L1 30L2 30L2 31L3 31L3 32L5 32L5 33L8 33L8 34L9 34L9 36L8 36L8 39L9 39L9 41L11 41L11 40L12 40L12 39L13 39L13 38L15 38L15 39L14 39L14 40L13 40L13 41L14 41L14 40L15 40L15 41L18 41L18 40L19 40L19 41L20 41L20 40L21 40L21 41L22 41L22 39L21 39L21 38L19 38L19 37L21 37L21 36L19 36L19 37L15 37L15 36L18 36L18 35L20 35L20 34L22 34L22 35L23 35L23 36L22 36L22 37L26 37L26 36L27 36L27 37L29 37L29 34L27 34L27 32L26 32L26 30L24 30L24 28L27 28L27 30L30 30L30 31L31 31L31 29L30 29L30 28L29 28L29 26L30 26L30 25L31 25L31 26L32 26L32 25L34 25L34 27L31 27L31 28L32 28L32 29L33 29L33 30L32 30L32 31L33 31L33 30L34 30L34 31L35 31L35 32L32 32L32 33L30 33L30 32L29 32L29 31L28 31L28 33L30 33L30 35L32 35L32 37L31 37L31 36L30 36L30 37L31 37L31 38L26 38L26 40L27 40L27 41L32 41L32 40L33 40L33 41L34 41L34 40L33 40L33 39L35 39L35 40L36 40L36 39L38 39L38 37L39 37L39 40L40 40L40 38L41 38L41 37L39 37L39 36L40 36L40 34L41 34L41 33L39 33L39 32L40 32L40 30L41 30L41 29L40 29L40 28L41 28L41 27L40 27L40 26L41 26L41 23L40 23L40 26L39 26L39 24L37 24L37 25L34 25L34 22L36 22L36 21L37 21L37 23L38 23L38 21L39 21L39 20L38 20L38 19L40 19L40 18L41 18L41 16L40 16L40 18L38 18L38 17L39 17L39 16L37 16L37 15L36 15L36 16L35 16L35 17L34 17L34 16L33 16L33 15L34 15L34 14L33 14L33 13L34 13L34 12L33 12L33 11L34 11L34 10L35 10L35 9L36 9L36 10L37 10L37 11L35 11L35 12L38 12L38 11L39 11L39 12L41 12L41 11L40 11L40 10L41 10L41 8L38 8L38 9L40 9L40 10L37 10L37 9L36 9L36 8L33 8L33 6L32 6L32 7L31 7L31 5L32 5L32 4L33 4L33 2L32 2L32 4L31 4L31 3L30 3L30 4L31 4L31 5L30 5L30 7L31 7L31 8L33 8L33 9L30 9L30 8L29 8L29 6L28 6L28 5L29 5L29 4L28 4L28 5L26 5L26 4L27 4L27 3L29 3L29 1L27 1L27 0L25 0L25 1L24 1L24 0L22 0L22 3L23 3L23 5L21 5L21 0L20 0L20 1L19 1L19 3L17 3L17 2L18 2L18 0L17 0L17 1L16 1L16 0L15 0L15 2L14 2L14 1L12 1L12 2L13 2L13 5L12 5L12 7L11 7L11 4L12 4L12 3L10 3L10 1L11 1L11 0L10 0L10 1L9 1L9 0ZM30 0L30 2L31 2L31 1L33 1L33 0ZM23 2L23 3L24 3L24 4L26 4L26 3L27 3L27 2L26 2L26 3L24 3L24 2ZM15 3L15 4L16 4L16 3ZM19 3L19 4L20 4L20 3ZM15 5L15 8L14 8L14 6L13 6L13 7L12 7L12 8L10 8L10 10L9 10L9 9L8 9L8 12L9 12L9 11L10 11L10 13L8 13L8 15L10 15L10 17L9 17L9 16L8 16L8 18L7 18L7 17L6 17L6 16L7 16L7 15L6 15L6 14L7 14L7 13L6 13L6 12L7 12L7 11L6 11L6 10L7 10L7 9L6 9L6 10L5 10L5 9L4 9L4 10L3 10L3 11L6 11L6 12L5 12L5 13L4 13L4 12L3 12L3 13L2 13L2 14L1 14L1 15L3 15L3 16L4 16L4 15L6 15L6 16L5 16L5 17L6 17L6 18L5 18L5 19L4 19L4 17L2 17L2 18L1 18L1 20L2 20L2 18L3 18L3 19L4 19L4 20L5 20L5 19L6 19L6 20L8 20L8 19L10 19L10 18L11 18L11 20L10 20L10 21L12 21L12 20L13 20L13 21L14 21L14 22L13 22L13 26L14 26L14 27L11 27L11 28L10 28L10 26L7 26L7 25L6 25L6 24L7 24L7 23L6 23L6 24L5 24L5 25L4 25L4 27L5 27L5 28L7 28L7 27L8 27L8 28L10 28L10 30L9 30L9 29L2 29L2 30L9 30L9 32L8 32L8 31L6 31L6 32L8 32L8 33L9 33L9 34L10 34L10 36L9 36L9 37L10 37L10 36L11 36L11 37L12 37L12 38L13 38L13 37L12 37L12 36L13 36L13 35L14 35L14 34L16 34L16 33L18 33L18 32L19 32L19 33L20 33L20 31L22 31L22 32L21 32L21 33L22 33L22 34L23 34L23 32L25 32L25 33L24 33L24 36L25 36L25 35L27 35L27 34L25 34L25 33L26 33L26 32L25 32L25 31L22 31L22 30L19 30L19 31L18 31L18 32L17 32L17 30L18 30L18 29L21 29L21 28L19 28L19 27L17 27L17 26L21 26L21 25L22 25L22 26L25 26L25 25L26 25L26 27L27 27L27 28L28 28L28 29L29 29L29 28L28 28L28 27L27 27L27 26L29 26L29 25L27 25L27 24L28 24L28 23L27 23L27 22L28 22L28 21L29 21L29 24L31 24L31 25L32 25L32 24L31 24L31 23L33 23L33 22L34 22L34 21L36 21L36 20L37 20L37 21L38 21L38 20L37 20L37 19L38 19L38 18L36 18L36 17L37 17L37 16L36 16L36 17L35 17L35 19L34 19L34 18L33 18L33 17L32 17L32 18L31 18L31 17L30 17L30 19L33 19L33 20L34 20L34 21L32 21L32 20L29 20L29 16L31 16L31 15L28 15L28 17L27 17L27 14L26 14L26 13L25 13L25 11L27 11L27 10L28 10L28 11L29 11L29 12L31 12L31 14L32 14L32 15L33 15L33 14L32 14L32 13L33 13L33 12L31 12L31 11L32 11L32 10L31 10L31 11L30 11L30 9L27 9L27 8L26 8L26 5L23 5L23 7L22 7L22 6L21 6L21 5L18 5L18 6L17 6L17 5ZM9 6L9 7L10 7L10 6ZM16 6L16 7L17 7L17 8L15 8L15 10L14 10L14 9L12 9L12 10L10 10L10 11L12 11L12 10L14 10L14 11L15 11L15 10L16 10L16 9L18 9L18 8L19 8L19 9L20 9L20 10L18 10L18 13L19 13L19 11L20 11L20 10L24 10L24 11L23 11L23 12L24 12L24 11L25 11L25 10L24 10L24 9L20 9L20 8L22 8L22 7L21 7L21 6L20 6L20 7L19 7L19 6L18 6L18 7L17 7L17 6ZM24 6L24 7L23 7L23 8L25 8L25 6ZM27 6L27 7L28 7L28 6ZM0 9L0 11L1 11L1 9ZM26 9L26 10L27 10L27 9ZM33 9L33 10L34 10L34 9ZM11 12L11 13L12 13L12 14L11 14L11 18L12 18L12 19L13 19L13 20L14 20L14 21L15 21L15 22L14 22L14 24L16 24L16 25L15 25L15 27L14 27L14 28L12 28L12 29L14 29L14 31L15 31L15 32L13 32L13 31L11 31L11 30L10 30L10 32L11 32L11 33L10 33L10 34L12 34L12 33L13 33L13 34L14 34L14 33L16 33L16 31L15 31L15 29L17 29L17 28L16 28L16 26L17 26L17 24L20 24L20 25L21 25L21 24L20 24L20 23L22 23L22 22L23 22L23 24L24 24L24 25L25 25L25 24L27 24L27 23L25 23L25 22L27 22L27 20L28 20L28 18L27 18L27 19L26 19L26 21L24 21L24 20L25 20L25 18L26 18L26 14L25 14L25 15L23 15L23 16L22 16L22 12L20 12L20 14L18 14L18 15L20 15L20 14L21 14L21 16L22 16L22 17L21 17L21 18L20 18L20 17L19 17L19 16L17 16L17 14L15 14L15 13L14 13L14 16L13 16L13 18L12 18L12 14L13 14L13 12ZM16 12L16 13L17 13L17 12ZM3 13L3 15L4 15L4 13ZM5 13L5 14L6 14L6 13ZM28 13L28 14L30 14L30 13ZM36 13L36 14L37 14L37 13ZM38 13L38 14L39 14L39 15L40 15L40 14L41 14L41 13L40 13L40 14L39 14L39 13ZM14 16L14 17L16 17L16 18L17 18L17 16ZM23 16L23 17L22 17L22 19L20 19L20 21L19 21L19 20L18 20L18 19L19 19L19 18L18 18L18 19L16 19L16 20L15 20L15 21L17 21L17 22L15 22L15 23L16 23L16 24L17 24L17 22L18 22L18 23L20 23L20 21L21 21L21 20L22 20L22 21L23 21L23 20L24 20L24 19L23 19L23 17L24 17L24 18L25 18L25 17L24 17L24 16ZM6 18L6 19L7 19L7 18ZM35 19L35 20L36 20L36 19ZM17 20L17 21L18 21L18 22L19 22L19 21L18 21L18 20ZM40 20L40 21L41 21L41 20ZM30 21L30 23L31 23L31 22L32 22L32 21ZM3 23L3 24L4 24L4 23ZM24 23L24 24L25 24L25 23ZM35 23L35 24L36 24L36 23ZM5 25L5 27L7 27L7 26L6 26L6 25ZM38 26L38 28L37 28L37 27L35 27L35 29L34 29L34 28L33 28L33 29L34 29L34 30L35 30L35 29L38 29L38 30L37 30L37 31L38 31L38 32L37 32L37 33L38 33L38 34L37 34L37 36L39 36L39 35L38 35L38 34L39 34L39 33L38 33L38 32L39 32L39 28L40 28L40 27L39 27L39 26ZM22 27L22 28L24 28L24 27ZM14 28L14 29L15 29L15 28ZM33 33L33 36L36 36L36 33ZM34 34L34 35L35 35L35 34ZM11 35L11 36L12 36L12 35ZM32 37L32 39L31 39L31 40L32 40L32 39L33 39L33 38L36 38L36 37ZM9 38L9 39L11 39L11 38ZM23 38L23 41L25 41L25 38ZM17 39L17 40L18 40L18 39ZM28 39L28 40L30 40L30 39ZM0 0L0 7L7 7L7 0ZM1 1L1 6L6 6L6 1ZM2 2L2 5L5 5L5 2ZM34 0L34 7L41 7L41 0ZM35 1L35 6L40 6L40 1ZM36 2L36 5L39 5L39 2ZM0 34L0 41L7 41L7 34ZM1 35L1 40L6 40L6 35ZM2 36L2 39L5 39L5 36Z" fill="#000000"/></g></g></svg>
