<?xml version="1.0" encoding="UTF-8"?>
<svg xmlns="http://www.w3.org/2000/svg" version="1.1" width="200" height="200" viewBox="0 0 200 200"><rect x="0" y="0" width="200" height="200" fill="#ffffff"/><g transform="scale(4.878)"><g transform="translate(0,0)"><path fill-rule="evenodd" d="M8 0L8 2L9 2L9 3L8 3L8 7L9 7L9 6L10 6L10 8L9 8L9 9L10 9L10 10L8 10L8 11L9 11L9 12L10 12L10 13L9 13L9 14L8 14L8 13L7 13L7 12L6 12L6 11L7 11L7 10L4 10L4 8L3 8L3 10L2 10L2 9L0 9L0 11L1 11L1 12L3 12L3 10L4 10L4 11L5 11L5 12L6 12L6 13L7 13L7 14L5 14L5 18L4 18L4 19L0 19L0 20L2 20L2 21L0 21L0 22L1 22L1 23L3 23L3 24L0 24L0 25L1 25L1 26L0 26L0 27L1 27L1 28L0 28L0 29L2 29L2 28L3 28L3 30L2 30L2 32L3 32L3 30L4 30L4 33L8 33L8 34L9 34L9 36L10 36L10 38L11 38L11 35L12 35L12 34L14 34L14 35L15 35L15 36L16 36L16 35L17 35L17 34L14 34L14 32L15 32L15 33L17 33L17 32L18 32L18 33L19 33L19 34L20 34L20 35L21 35L21 36L20 36L20 37L19 37L19 35L18 35L18 36L17 36L17 37L19 37L19 38L18 38L18 40L19 40L19 41L20 41L20 39L21 39L21 38L22 38L22 36L23 36L23 37L24 37L24 38L23 38L23 39L22 39L22 41L26 41L26 39L25 39L25 38L26 38L26 37L27 37L27 36L30 36L30 34L31 34L31 33L32 33L32 35L31 35L31 36L32 36L32 37L31 37L31 40L30 40L30 37L28 37L28 38L29 38L29 40L28 40L28 39L27 39L27 41L31 41L31 40L32 40L32 41L33 41L33 39L34 39L34 38L36 38L36 40L37 40L37 41L40 41L40 39L41 39L41 38L40 38L40 37L41 37L41 36L40 36L40 35L39 35L39 34L41 34L41 33L39 33L39 32L41 32L41 28L40 28L40 27L41 27L41 26L40 26L40 27L39 27L39 28L37 28L37 29L38 29L38 30L37 30L37 31L39 31L39 32L35 32L35 31L34 31L34 30L32 30L32 29L33 29L33 26L34 26L34 27L35 27L35 29L36 29L36 27L38 27L38 26L39 26L39 25L40 25L40 24L41 24L41 23L40 23L40 22L38 22L38 21L40 21L40 20L41 20L41 16L39 16L39 17L38 17L38 16L37 16L37 17L38 17L38 18L39 18L39 19L40 19L40 20L37 20L37 19L36 19L36 21L35 21L35 19L34 19L34 18L35 18L35 17L36 17L36 15L35 15L35 14L36 14L36 13L34 13L34 12L35 12L35 11L37 11L37 10L38 10L38 8L35 8L35 9L34 9L34 10L33 10L33 11L32 11L32 10L31 10L31 11L30 11L30 9L29 9L29 8L30 8L30 7L31 7L31 6L32 6L32 9L33 9L33 6L32 6L32 5L33 5L33 2L31 2L31 1L33 1L33 0L31 0L31 1L30 1L30 0L27 0L27 2L26 2L26 3L25 3L25 1L24 1L24 2L23 2L23 4L22 4L22 3L21 3L21 4L22 4L22 5L21 5L21 6L20 6L20 7L19 7L19 4L20 4L20 3L18 3L18 2L17 2L17 6L16 6L16 1L19 1L19 2L22 2L22 0L20 0L20 1L19 1L19 0L16 0L16 1L14 1L14 0L13 0L13 1L11 1L11 0ZM9 1L9 2L10 2L10 3L9 3L9 4L10 4L10 3L11 3L11 4L12 4L12 6L11 6L11 5L10 5L10 6L11 6L11 8L10 8L10 9L13 9L13 10L15 10L15 11L17 11L17 12L16 12L16 13L17 13L17 12L20 12L20 14L21 14L21 17L20 17L20 16L19 16L19 15L17 15L17 14L16 14L16 17L14 17L14 19L15 19L15 20L14 20L14 21L15 21L15 22L16 22L16 20L17 20L17 19L15 19L15 18L16 18L16 17L17 17L17 18L18 18L18 20L19 20L19 22L18 22L18 21L17 21L17 22L18 22L18 23L19 23L19 22L21 22L21 21L20 21L20 20L21 20L21 17L24 17L24 19L23 19L23 18L22 18L22 19L23 19L23 20L22 20L22 22L25 22L25 21L27 21L27 22L26 22L26 23L28 23L28 24L25 24L25 25L24 25L24 24L21 24L21 23L20 23L20 26L19 26L19 24L18 24L18 26L19 26L19 27L17 27L17 26L16 26L16 25L17 25L17 23L15 23L15 26L14 26L14 23L13 23L13 21L12 21L12 23L11 23L11 25L12 25L12 27L13 27L13 28L14 28L14 29L13 29L13 30L12 30L12 29L11 29L11 28L8 28L8 29L6 29L6 30L5 30L5 31L6 31L6 32L7 32L7 31L6 31L6 30L8 30L8 31L9 31L9 32L8 32L8 33L9 33L9 34L10 34L10 35L11 35L11 34L12 34L12 33L13 33L13 31L14 31L14 30L15 30L15 31L17 31L17 30L18 30L18 32L20 32L20 31L19 31L19 30L18 30L18 29L19 29L19 28L20 28L20 26L21 26L21 29L20 29L20 30L21 30L21 31L22 31L22 32L26 32L26 33L25 33L25 34L21 34L21 33L20 33L20 34L21 34L21 35L23 35L23 36L24 36L24 37L26 37L26 36L25 36L25 34L27 34L27 35L29 35L29 34L30 34L30 32L31 32L31 30L30 30L30 29L28 29L28 28L29 28L29 27L28 27L28 26L30 26L30 27L32 27L32 26L33 26L33 24L34 24L34 23L35 23L35 24L36 24L36 26L35 26L35 25L34 25L34 26L35 26L35 27L36 27L36 26L37 26L37 25L38 25L38 24L37 24L37 23L38 23L38 22L37 22L37 21L36 21L36 22L37 22L37 23L35 23L35 22L34 22L34 19L32 19L32 17L35 17L35 15L34 15L34 14L33 14L33 12L32 12L32 11L31 11L31 13L28 13L28 12L27 12L27 11L28 11L28 6L29 6L29 7L30 7L30 6L31 6L31 5L32 5L32 4L31 4L31 5L30 5L30 4L28 4L28 3L30 3L30 1L28 1L28 2L27 2L27 3L26 3L26 5L24 5L24 6L23 6L23 7L24 7L24 6L25 6L25 8L26 8L26 9L27 9L27 10L26 10L26 11L25 11L25 10L24 10L24 11L23 11L23 10L22 10L22 6L21 6L21 7L20 7L20 8L21 8L21 9L19 9L19 11L17 11L17 8L18 8L18 6L17 6L17 8L16 8L16 6L15 6L15 7L14 7L14 5L15 5L15 4L14 4L14 5L13 5L13 3L15 3L15 2L12 2L12 3L11 3L11 1ZM24 3L24 4L25 4L25 3ZM27 4L27 5L26 5L26 8L27 8L27 6L28 6L28 4ZM12 6L12 7L13 7L13 8L14 8L14 9L15 9L15 10L16 10L16 8L14 8L14 7L13 7L13 6ZM6 8L6 9L7 9L7 8ZM23 8L23 9L24 9L24 8ZM39 8L39 9L40 9L40 10L41 10L41 8ZM36 9L36 10L37 10L37 9ZM10 10L10 12L11 12L11 11L12 11L12 12L14 12L14 11L12 11L12 10ZM20 11L20 12L21 12L21 11ZM22 11L22 16L24 16L24 17L25 17L25 18L26 18L26 20L27 20L27 17L28 17L28 16L29 16L29 17L30 17L30 16L31 16L31 17L32 17L32 15L33 15L33 14L32 14L32 15L31 15L31 14L28 14L28 13L25 13L25 15L24 15L24 13L23 13L23 11ZM24 11L24 12L25 12L25 11ZM29 11L29 12L30 12L30 11ZM38 11L38 13L39 13L39 12L40 12L40 13L41 13L41 12L40 12L40 11ZM1 13L1 14L0 14L0 15L1 15L1 17L2 17L2 16L3 16L3 17L4 17L4 16L3 16L3 15L4 15L4 14L2 14L2 13ZM13 13L13 14L11 14L11 15L9 15L9 18L8 18L8 19L6 19L6 20L3 20L3 21L2 21L2 22L3 22L3 23L4 23L4 24L3 24L3 25L4 25L4 26L2 26L2 27L4 27L4 26L5 26L5 28L4 28L4 29L5 29L5 28L7 28L7 27L11 27L11 26L10 26L10 25L8 25L8 24L10 24L10 23L9 23L9 22L11 22L11 20L12 20L12 19L13 19L13 18L11 18L11 15L13 15L13 16L15 16L15 14L14 14L14 13ZM18 13L18 14L19 14L19 13ZM1 14L1 15L2 15L2 14ZM7 14L7 15L6 15L6 16L7 16L7 17L6 17L6 18L7 18L7 17L8 17L8 16L7 16L7 15L8 15L8 14ZM13 14L13 15L14 15L14 14ZM26 14L26 16L28 16L28 15L27 15L27 14ZM37 14L37 15L38 15L38 14ZM40 14L40 15L41 15L41 14ZM18 16L18 17L19 17L19 18L20 18L20 17L19 17L19 16ZM9 18L9 19L8 19L8 20L6 20L6 21L7 21L7 22L6 22L6 23L5 23L5 22L4 22L4 23L5 23L5 26L6 26L6 27L7 27L7 26L6 26L6 25L7 25L7 24L8 24L8 22L9 22L9 19L10 19L10 20L11 20L11 19L10 19L10 18ZM28 18L28 20L29 20L29 22L31 22L31 23L30 23L30 24L28 24L28 25L30 25L30 26L32 26L32 25L31 25L31 24L32 24L32 22L31 22L31 20L32 20L32 21L33 21L33 20L32 20L32 19L31 19L31 18L30 18L30 19L29 19L29 18ZM19 19L19 20L20 20L20 19ZM24 19L24 20L25 20L25 19ZM33 22L33 23L34 23L34 22ZM6 23L6 24L7 24L7 23ZM12 24L12 25L13 25L13 24ZM21 25L21 26L23 26L23 27L22 27L22 28L23 28L23 29L22 29L22 31L23 31L23 30L25 30L25 31L26 31L26 30L25 30L25 29L24 29L24 28L23 28L23 27L25 27L25 26L23 26L23 25ZM26 25L26 27L27 27L27 25ZM15 26L15 27L14 27L14 28L16 28L16 29L15 29L15 30L16 30L16 29L17 29L17 28L16 28L16 26ZM39 28L39 29L40 29L40 28ZM9 29L9 30L10 30L10 29ZM27 29L27 30L28 30L28 29ZM0 30L0 31L1 31L1 30ZM11 30L11 33L12 33L12 30ZM39 30L39 31L40 31L40 30ZM27 31L27 32L30 32L30 31ZM33 31L33 32L34 32L34 31ZM0 32L0 33L1 33L1 32ZM9 32L9 33L10 33L10 32ZM33 33L33 36L36 36L36 33ZM34 34L34 35L35 35L35 34ZM37 34L37 35L38 35L38 34ZM13 36L13 39L10 39L10 40L9 40L9 41L12 41L12 40L13 40L13 41L15 41L15 39L16 39L16 41L17 41L17 38L15 38L15 37L14 37L14 36ZM38 36L38 37L39 37L39 36ZM8 37L8 38L9 38L9 37ZM32 37L32 39L33 39L33 37ZM36 37L36 38L37 38L37 40L38 40L38 38L37 38L37 37ZM14 38L14 39L13 39L13 40L14 40L14 39L15 39L15 38ZM19 38L19 39L20 39L20 38ZM39 38L39 39L40 39L40 38ZM24 39L24 40L25 40L25 39ZM0 0L0 7L7 7L7 0ZM1 1L1 6L6 6L6 1ZM2 2L2 5L5 5L5 2ZM34 0L34 7L41 7L41 0ZM35 1L35 6L40 6L40 1ZM36 2L36 5L39 5L39 2ZM0 34L0 41L7 41L7 34ZM1 35L1 40L6 40L6 35ZM2 36L2 39L5 39L5 36Z" fill="#000000"/></g></g></svg>
