<?xml version="1.0" encoding="UTF-8"?>
<svg xmlns="http://www.w3.org/2000/svg" version="1.1" width="200" height="200" viewBox="0 0 200 200"><rect x="0" y="0" width="200" height="200" fill="#ffffff"/><g transform="scale(4.878)"><g transform="translate(0,0)"><path fill-rule="evenodd" d="M8 0L8 3L9 3L9 4L12 4L12 3L13 3L13 5L12 5L12 7L11 7L11 6L10 6L10 8L9 8L9 5L8 5L8 9L7 9L7 8L6 8L6 9L7 9L7 10L5 10L5 8L2 8L2 10L3 10L3 11L4 11L4 12L3 12L3 13L2 13L2 14L0 14L0 25L1 25L1 26L0 26L0 27L1 27L1 28L2 28L2 29L0 29L0 33L1 33L1 30L3 30L3 32L4 32L4 31L5 31L5 33L8 33L8 34L9 34L9 33L11 33L11 31L10 31L10 30L8 30L8 29L7 29L7 28L8 28L8 26L4 26L4 27L3 27L3 25L4 25L4 24L6 24L6 25L7 25L7 24L9 24L9 29L10 29L10 26L12 26L12 27L11 27L11 30L13 30L13 31L14 31L14 33L15 33L15 34L14 34L14 35L13 35L13 33L12 33L12 34L10 34L10 35L9 35L9 36L8 36L8 39L9 39L9 40L10 40L10 39L12 39L12 38L13 38L13 39L14 39L14 38L13 38L13 37L15 37L15 38L16 38L16 37L15 37L15 36L16 36L16 35L15 35L15 34L16 34L16 33L17 33L17 30L18 30L18 33L19 33L19 34L18 34L18 35L17 35L17 38L18 38L18 39L17 39L17 40L16 40L16 39L15 39L15 40L16 40L16 41L18 41L18 39L22 39L22 40L23 40L23 39L24 39L24 41L26 41L26 40L28 40L28 41L32 41L32 40L33 40L33 41L34 41L34 40L33 40L33 39L35 39L35 40L36 40L36 39L37 39L37 40L40 40L40 38L41 38L41 37L40 37L40 36L41 36L41 35L40 35L40 34L41 34L41 33L40 33L40 32L41 32L41 31L40 31L40 30L41 30L41 29L39 29L39 30L38 30L38 29L36 29L36 28L38 28L38 26L39 26L39 28L41 28L41 27L40 27L40 26L41 26L41 23L39 23L39 22L38 22L38 23L39 23L39 24L40 24L40 26L39 26L39 25L34 25L34 24L35 24L35 23L36 23L36 24L37 24L37 20L38 20L38 21L39 21L39 20L38 20L38 18L41 18L41 16L40 16L40 17L39 17L39 16L37 16L37 13L36 13L36 16L35 16L35 17L34 17L34 16L32 16L32 17L31 17L31 16L29 16L29 15L28 15L28 16L29 16L29 17L31 17L31 18L30 18L30 19L31 19L31 20L30 20L30 21L31 21L31 22L30 22L30 24L28 24L28 22L27 22L27 21L29 21L29 20L28 20L28 19L29 19L29 18L27 18L27 19L26 19L26 20L24 20L24 22L22 22L22 21L23 21L23 20L22 20L22 19L21 19L21 18L20 18L20 17L19 17L19 16L21 16L21 15L22 15L22 13L21 13L21 15L20 15L20 14L18 14L18 16L17 16L17 17L19 17L19 18L18 18L18 19L17 19L17 20L16 20L16 17L15 17L15 16L16 16L16 15L17 15L17 14L16 14L16 15L15 15L15 16L13 16L13 13L12 13L12 12L14 12L14 11L16 11L16 13L18 13L18 12L19 12L19 13L20 13L20 12L23 12L23 13L24 13L24 14L23 14L23 17L22 17L22 18L23 18L23 19L24 19L24 18L26 18L26 16L27 16L27 15L26 15L26 14L29 14L29 13L30 13L30 15L31 15L31 12L29 12L29 11L31 11L31 10L32 10L32 13L33 13L33 14L32 14L32 15L34 15L34 13L35 13L35 12L38 12L38 11L40 11L40 10L41 10L41 8L38 8L38 9L40 9L40 10L37 10L37 9L36 9L36 8L33 8L33 4L30 4L30 5L29 5L29 6L28 6L28 5L27 5L27 4L26 4L26 5L25 5L25 2L24 2L24 1L25 1L25 0L24 0L24 1L22 1L22 2L21 2L21 3L22 3L22 4L23 4L23 6L22 6L22 5L21 5L21 6L20 6L20 7L19 7L19 5L18 5L18 4L19 4L19 2L18 2L18 1L16 1L16 0L13 0L13 1L12 1L12 0L11 0L11 1L12 1L12 3L11 3L11 2L10 2L10 3L9 3L9 0ZM20 0L20 1L21 1L21 0ZM26 0L26 1L27 1L27 2L26 2L26 3L28 3L28 4L29 4L29 3L31 3L31 2L30 2L30 0L29 0L29 1L27 1L27 0ZM31 0L31 1L32 1L32 2L33 2L33 1L32 1L32 0ZM13 1L13 2L14 2L14 1ZM15 1L15 3L14 3L14 5L13 5L13 7L12 7L12 8L11 8L11 9L9 9L9 10L8 10L8 11L5 11L5 13L3 13L3 14L2 14L2 17L1 17L1 18L2 18L2 17L4 17L4 18L3 18L3 19L4 19L4 18L5 18L5 20L3 20L3 21L5 21L5 23L6 23L6 24L7 24L7 23L8 23L8 22L7 22L7 21L8 21L8 20L12 20L12 21L11 21L11 22L10 22L10 21L9 21L9 24L10 24L10 23L11 23L11 25L12 25L12 23L13 23L13 26L14 26L14 25L15 25L15 27L12 27L12 29L13 29L13 28L15 28L15 29L14 29L14 31L16 31L16 27L17 27L17 26L18 26L18 27L19 27L19 29L20 29L20 30L19 30L19 33L22 33L22 34L24 34L24 33L23 33L23 32L22 32L22 31L23 31L23 30L24 30L24 32L25 32L25 35L26 35L26 36L25 36L25 40L26 40L26 39L27 39L27 38L28 38L28 40L30 40L30 38L29 38L29 37L32 37L32 38L31 38L31 40L32 40L32 38L36 38L36 37L32 37L32 36L29 36L29 34L28 34L28 33L29 33L29 32L31 32L31 30L32 30L32 31L33 31L33 32L35 32L35 31L34 31L34 30L36 30L36 29L35 29L35 26L34 26L34 25L33 25L33 23L35 23L35 22L36 22L36 21L35 21L35 19L36 19L36 20L37 20L37 18L38 18L38 17L37 17L37 16L36 16L36 17L35 17L35 19L34 19L34 18L33 18L33 17L32 17L32 18L31 18L31 19L32 19L32 20L31 20L31 21L32 21L32 22L31 22L31 23L32 23L32 24L31 24L31 25L30 25L30 26L29 26L29 25L27 25L27 24L26 24L26 28L24 28L24 27L25 27L25 25L24 25L24 23L27 23L27 22L24 22L24 23L23 23L23 24L22 24L22 22L21 22L21 25L24 25L24 27L23 27L23 28L22 28L22 26L20 26L20 25L19 25L19 24L20 24L20 23L18 23L18 24L17 24L17 25L16 25L16 23L17 23L17 22L18 22L18 21L17 21L17 22L15 22L15 24L14 24L14 23L13 23L13 22L14 22L14 21L15 21L15 18L14 18L14 17L11 17L11 16L12 16L12 14L11 14L11 13L10 13L10 12L12 12L12 11L13 11L13 10L12 10L12 11L10 11L10 12L9 12L9 10L11 10L11 9L14 9L14 10L15 10L15 9L14 9L14 6L15 6L15 8L17 8L17 9L16 9L16 11L18 11L18 10L19 10L19 9L20 9L20 8L19 8L19 7L18 7L18 6L17 6L17 4L18 4L18 3L16 3L16 1ZM23 2L23 3L24 3L24 2ZM15 3L15 4L16 4L16 3ZM15 5L15 6L16 6L16 7L17 7L17 8L18 8L18 9L19 9L19 8L18 8L18 7L17 7L17 6L16 6L16 5ZM26 5L26 6L25 6L25 7L26 7L26 6L27 6L27 7L28 7L28 8L25 8L25 9L24 9L24 8L22 8L22 9L21 9L21 10L22 10L22 9L23 9L23 10L24 10L24 13L25 13L25 14L24 14L24 15L25 15L25 16L26 16L26 15L25 15L25 14L26 14L26 13L25 13L25 9L27 9L27 10L28 10L28 9L29 9L29 10L31 10L31 9L32 9L32 10L33 10L33 11L34 11L34 10L33 10L33 9L32 9L32 8L31 8L31 7L32 7L32 5L30 5L30 6L29 6L29 7L28 7L28 6L27 6L27 5ZM21 6L21 7L22 7L22 6ZM23 6L23 7L24 7L24 6ZM30 6L30 7L31 7L31 6ZM29 8L29 9L31 9L31 8ZM0 10L0 11L1 11L1 12L2 12L2 11L1 11L1 10ZM35 10L35 11L37 11L37 10ZM19 11L19 12L20 12L20 11ZM26 11L26 12L28 12L28 13L29 13L29 12L28 12L28 11ZM6 12L6 13L5 13L5 14L3 14L3 16L4 16L4 17L5 17L5 18L6 18L6 19L7 19L7 18L6 18L6 17L9 17L9 18L8 18L8 19L12 19L12 18L10 18L10 15L11 15L11 14L10 14L10 13L9 13L9 14L6 14L6 13L7 13L7 12ZM33 12L33 13L34 13L34 12ZM39 12L39 13L40 13L40 14L38 14L38 15L40 15L40 14L41 14L41 12ZM5 14L5 15L4 15L4 16L5 16L5 17L6 17L6 16L9 16L9 15L6 15L6 14ZM5 15L5 16L6 16L6 15ZM23 17L23 18L24 18L24 17ZM36 17L36 18L37 18L37 17ZM13 18L13 20L14 20L14 18ZM32 18L32 19L33 19L33 18ZM19 19L19 22L20 22L20 20L21 20L21 19ZM6 20L6 21L7 21L7 20ZM32 20L32 21L34 21L34 22L35 22L35 21L34 21L34 20ZM40 20L40 21L41 21L41 20ZM2 22L2 23L1 23L1 24L4 24L4 23L3 23L3 22ZM6 22L6 23L7 23L7 22ZM32 22L32 23L33 23L33 22ZM31 25L31 26L33 26L33 27L31 27L31 28L28 28L28 26L27 26L27 28L26 28L26 29L27 29L27 31L26 31L26 34L27 34L27 36L26 36L26 37L29 37L29 36L28 36L28 34L27 34L27 33L28 33L28 31L30 31L30 30L28 30L28 29L31 29L31 28L33 28L33 29L32 29L32 30L33 30L33 29L34 29L34 28L33 28L33 27L34 27L34 26L33 26L33 25ZM1 26L1 27L2 27L2 26ZM19 26L19 27L20 27L20 26ZM6 27L6 28L7 28L7 27ZM4 28L4 29L3 29L3 30L4 30L4 29L5 29L5 31L6 31L6 32L8 32L8 33L9 33L9 32L10 32L10 31L8 31L8 30L7 30L7 29L5 29L5 28ZM17 28L17 29L18 29L18 28ZM21 28L21 30L20 30L20 31L21 31L21 30L23 30L23 29L24 29L24 30L25 30L25 29L24 29L24 28L23 28L23 29L22 29L22 28ZM6 30L6 31L7 31L7 30ZM38 31L38 32L37 32L37 33L38 33L38 34L37 34L37 36L39 36L39 35L38 35L38 34L39 34L39 33L38 33L38 32L39 32L39 31ZM15 32L15 33L16 33L16 32ZM30 33L30 35L31 35L31 34L32 34L32 33ZM33 33L33 36L36 36L36 33ZM20 34L20 35L18 35L18 36L19 36L19 38L22 38L22 39L23 39L23 38L24 38L24 37L23 37L23 36L24 36L24 35L22 35L22 36L21 36L21 37L20 37L20 35L21 35L21 34ZM34 34L34 35L35 35L35 34ZM10 35L10 36L9 36L9 37L13 37L13 36L11 36L11 35ZM14 35L14 36L15 36L15 35ZM22 37L22 38L23 38L23 37ZM37 38L37 39L38 39L38 38ZM19 40L19 41L21 41L21 40ZM0 0L0 7L7 7L7 0ZM1 1L1 6L6 6L6 1ZM2 2L2 5L5 5L5 2ZM34 0L34 7L41 7L41 0ZM35 1L35 6L40 6L40 1ZM36 2L36 5L39 5L39 2ZM0 34L0 41L7 41L7 34ZM1 35L1 40L6 40L6 35ZM2 36L2 39L5 39L5 36Z" fill="#000000"/></g></g></svg>
