<?xml version="1.0" encoding="UTF-8"?>
<svg xmlns="http://www.w3.org/2000/svg" version="1.1" width="200" height="200" viewBox="0 0 200 200"><rect x="0" y="0" width="200" height="200" fill="#ffffff"/><g transform="scale(4.878)"><g transform="translate(0,0)"><path fill-rule="evenodd" d="M8 0L8 3L10 3L10 5L8 5L8 9L7 9L7 8L6 8L6 9L7 9L7 10L6 10L6 11L5 11L5 10L4 10L4 11L2 11L2 9L5 9L5 8L2 8L2 9L1 9L1 11L0 11L0 12L1 12L1 13L2 13L2 15L0 15L0 16L1 16L1 17L2 17L2 18L3 18L3 16L5 16L5 17L4 17L4 20L2 20L2 19L1 19L1 20L0 20L0 21L3 21L3 22L0 22L0 24L1 24L1 25L3 25L3 24L2 24L2 23L4 23L4 20L5 20L5 19L7 19L7 18L5 18L5 17L7 17L7 16L5 16L5 13L7 13L7 14L6 14L6 15L7 15L7 14L8 14L8 16L9 16L9 14L13 14L13 15L11 15L11 18L12 18L12 19L11 19L11 20L9 20L9 22L6 22L6 23L5 23L5 24L4 24L4 26L2 26L2 29L3 29L3 30L2 30L2 31L3 31L3 32L2 32L2 33L8 33L8 34L9 34L9 33L10 33L10 32L11 32L11 33L12 33L12 34L11 34L11 35L10 35L10 36L8 36L8 39L9 39L9 40L11 40L11 41L12 41L12 39L13 39L13 40L14 40L14 38L15 38L15 40L16 40L16 39L19 39L19 38L20 38L20 39L21 39L21 38L22 38L22 39L23 39L23 37L21 37L21 36L24 36L24 37L26 37L26 38L27 38L27 39L24 39L24 40L27 40L27 41L28 41L28 39L29 39L29 38L27 38L27 37L29 37L29 36L31 36L31 35L32 35L32 37L30 37L30 40L29 40L29 41L30 41L30 40L33 40L33 41L34 41L34 40L33 40L33 39L35 39L35 40L36 40L36 39L37 39L37 40L40 40L40 38L41 38L41 37L39 37L39 36L37 36L37 35L38 35L38 34L37 34L37 32L38 32L38 33L39 33L39 35L40 35L40 36L41 36L41 35L40 35L40 34L41 34L41 33L39 33L39 32L41 32L41 31L40 31L40 30L41 30L41 28L39 28L39 32L38 32L38 31L37 31L37 29L36 29L36 28L38 28L38 26L39 26L39 27L40 27L40 26L41 26L41 23L39 23L39 22L38 22L38 23L39 23L39 24L40 24L40 26L39 26L39 25L32 25L32 24L31 24L31 23L30 23L30 24L28 24L28 22L27 22L27 21L29 21L29 20L28 20L28 19L29 19L29 18L27 18L27 16L26 16L26 15L27 15L27 14L29 14L29 15L28 15L28 16L29 16L29 17L31 17L31 18L30 18L30 19L31 19L31 20L30 20L30 21L31 21L31 22L32 22L32 21L34 21L34 22L33 22L33 23L34 23L34 24L35 24L35 23L36 23L36 24L37 24L37 21L39 21L39 20L36 20L36 19L35 19L35 17L36 17L36 18L37 18L37 17L39 17L39 16L37 16L37 15L36 15L36 14L37 14L37 13L36 13L36 14L35 14L35 15L36 15L36 16L35 16L35 17L34 17L34 16L33 16L33 17L31 17L31 12L32 12L32 13L33 13L33 14L32 14L32 15L34 15L34 13L35 13L35 11L36 11L36 12L38 12L38 11L39 11L39 12L41 12L41 11L40 11L40 10L41 10L41 8L38 8L38 9L40 9L40 10L37 10L37 9L36 9L36 8L33 8L33 9L32 9L32 8L27 8L27 6L28 6L28 7L29 7L29 4L28 4L28 5L27 5L27 4L26 4L26 5L27 5L27 6L26 6L26 9L25 9L25 5L24 5L24 9L22 9L22 12L21 12L21 11L20 11L20 12L19 12L19 15L18 15L18 14L17 14L17 13L18 13L18 11L19 11L19 10L21 10L21 9L19 9L19 8L16 8L16 10L17 10L17 9L19 9L19 10L18 10L18 11L17 11L17 13L15 13L15 12L16 12L16 11L15 11L15 10L14 10L14 11L13 11L13 13L8 13L8 12L6 12L6 11L8 11L8 10L10 10L10 12L12 12L12 11L11 11L11 10L10 10L10 8L9 8L9 6L10 6L10 7L11 7L11 6L12 6L12 8L11 8L11 9L12 9L12 8L13 8L13 9L14 9L14 8L15 8L15 5L17 5L17 6L16 6L16 7L17 7L17 6L18 6L18 7L19 7L19 6L18 6L18 5L19 5L19 3L16 3L16 4L14 4L14 3L15 3L15 2L18 2L18 1L17 1L17 0L16 0L16 1L15 1L15 0L13 0L13 1L11 1L11 0ZM19 0L19 1L20 1L20 8L23 8L23 6L22 6L22 3L21 3L21 0ZM22 0L22 1L24 1L24 0ZM26 0L26 1L27 1L27 2L26 2L26 3L32 3L32 4L30 4L30 7L31 7L31 5L32 5L32 4L33 4L33 3L32 3L32 2L30 2L30 1L33 1L33 0L29 0L29 1L27 1L27 0ZM9 1L9 2L10 2L10 1ZM13 1L13 2L11 2L11 3L13 3L13 2L14 2L14 1ZM23 2L23 3L25 3L25 2ZM13 4L13 5L12 5L12 6L13 6L13 7L14 7L14 4ZM21 6L21 7L22 7L22 6ZM32 6L32 7L33 7L33 6ZM24 9L24 10L25 10L25 11L26 11L26 12L23 12L23 13L22 13L22 14L21 14L21 15L23 15L23 16L25 16L25 14L26 14L26 13L27 13L27 11L26 11L26 10L30 10L30 11L29 11L29 12L28 12L28 13L29 13L29 14L30 14L30 13L29 13L29 12L31 12L31 11L32 11L32 12L33 12L33 13L34 13L34 12L33 12L33 11L34 11L34 10L31 10L31 9L26 9L26 10L25 10L25 9ZM36 10L36 11L37 11L37 10ZM1 11L1 12L2 12L2 11ZM4 11L4 12L5 12L5 11ZM13 13L13 14L15 14L15 13ZM23 13L23 14L24 14L24 13ZM38 13L38 14L39 14L39 15L40 15L40 14L41 14L41 13L40 13L40 14L39 14L39 13ZM16 14L16 15L14 15L14 16L12 16L12 17L13 17L13 18L15 18L15 19L13 19L13 20L12 20L12 21L11 21L11 23L10 23L10 22L9 22L9 23L8 23L8 26L7 26L7 25L6 25L6 26L7 26L7 27L5 27L5 26L4 26L4 27L3 27L3 28L4 28L4 27L5 27L5 28L8 28L8 26L10 26L10 27L9 27L9 29L10 29L10 31L8 31L8 29L6 29L6 30L7 30L7 31L5 31L5 29L4 29L4 30L3 30L3 31L5 31L5 32L10 32L10 31L12 31L12 33L13 33L13 32L15 32L15 33L18 33L18 31L15 31L15 30L18 30L18 28L17 28L17 27L18 27L18 26L20 26L20 27L19 27L19 28L20 28L20 29L19 29L19 33L21 33L21 34L20 34L20 35L19 35L19 36L21 36L21 34L22 34L22 35L23 35L23 32L25 32L25 33L24 33L24 35L25 35L25 36L29 36L29 34L28 34L28 33L29 33L29 32L31 32L31 31L28 31L28 33L27 33L27 31L26 31L26 28L25 28L25 26L26 26L26 27L27 27L27 26L29 26L29 28L30 28L30 29L28 29L28 30L30 30L30 29L31 29L31 30L32 30L32 31L33 31L33 32L36 32L36 31L34 31L34 30L36 30L36 29L35 29L35 26L34 26L34 27L33 27L33 26L31 26L31 25L30 25L30 26L29 26L29 25L28 25L28 24L27 24L27 23L26 23L26 25L25 25L25 23L23 23L23 24L24 24L24 25L25 25L25 26L24 26L24 28L22 28L22 27L23 27L23 25L22 25L22 26L21 26L21 25L19 25L19 23L20 23L20 24L21 24L21 23L22 23L22 22L18 22L18 20L15 20L15 19L16 19L16 18L17 18L17 19L18 19L18 18L20 18L20 15L19 15L19 17L18 17L18 15L17 15L17 14ZM29 15L29 16L30 16L30 15ZM36 16L36 17L37 17L37 16ZM40 16L40 18L39 18L39 19L40 19L40 18L41 18L41 16ZM15 17L15 18L16 18L16 17ZM21 17L21 19L19 19L19 21L20 21L20 20L21 20L21 21L23 21L23 19L24 19L24 17ZM25 17L25 20L24 20L24 22L25 22L25 20L26 20L26 21L27 21L27 20L26 20L26 17ZM22 18L22 19L21 19L21 20L22 20L22 19L23 19L23 18ZM31 18L31 19L33 19L33 20L34 20L34 21L35 21L35 22L34 22L34 23L35 23L35 22L36 22L36 21L35 21L35 19L34 19L34 18ZM6 20L6 21L7 21L7 20ZM31 20L31 21L32 21L32 20ZM40 20L40 21L41 21L41 20ZM12 21L12 22L13 22L13 23L12 23L12 25L10 25L10 26L11 26L11 28L10 28L10 29L11 29L11 30L12 30L12 31L13 31L13 30L15 30L15 29L17 29L17 28L16 28L16 26L15 26L15 25L16 25L16 23L18 23L18 22L17 22L17 21L15 21L15 25L14 25L14 27L15 27L15 29L13 29L13 28L12 28L12 26L13 26L13 24L14 24L14 22L13 22L13 21ZM6 23L6 24L7 24L7 23ZM9 23L9 24L10 24L10 23ZM17 25L17 26L18 26L18 25ZM20 27L20 28L21 28L21 27ZM32 27L32 28L33 28L33 29L32 29L32 30L33 30L33 29L34 29L34 28L33 28L33 27ZM24 28L24 29L25 29L25 28ZM0 29L0 33L1 33L1 29ZM12 29L12 30L13 30L13 29ZM21 29L21 30L22 30L22 31L20 31L20 32L21 32L21 33L22 33L22 31L24 31L24 30L23 30L23 29ZM30 33L30 35L31 35L31 33ZM33 33L33 36L36 36L36 33ZM17 34L17 36L16 36L16 38L17 38L17 37L18 37L18 38L19 38L19 37L18 37L18 34ZM27 34L27 35L28 35L28 34ZM34 34L34 35L35 35L35 34ZM12 35L12 36L10 36L10 37L9 37L9 38L10 38L10 39L12 39L12 37L14 37L14 36L15 36L15 35L14 35L14 36L13 36L13 35ZM20 37L20 38L21 38L21 37ZM33 37L33 38L31 38L31 39L33 39L33 38L36 38L36 37ZM37 38L37 39L38 39L38 38ZM18 40L18 41L19 41L19 40ZM20 40L20 41L23 41L23 40ZM0 0L0 7L7 7L7 0ZM1 1L1 6L6 6L6 1ZM2 2L2 5L5 5L5 2ZM34 0L34 7L41 7L41 0ZM35 1L35 6L40 6L40 1ZM36 2L36 5L39 5L39 2ZM0 34L0 41L7 41L7 34ZM1 35L1 40L6 40L6 35ZM2 36L2 39L5 39L5 36Z" fill="#000000"/></g></g></svg>
