<?xml version="1.0" encoding="UTF-8"?>
<svg xmlns="http://www.w3.org/2000/svg" version="1.1" width="200" height="200" viewBox="0 0 200 200"><rect x="0" y="0" width="200" height="200" fill="#ffffff"/><g transform="scale(6.897)"><g transform="translate(0,0)"><path fill-rule="evenodd" d="M9 0L9 1L8 1L8 7L9 7L9 6L10 6L10 8L5 8L5 9L3 9L3 8L2 8L2 9L0 9L0 11L1 11L1 10L2 10L2 11L3 11L3 12L4 12L4 14L3 14L3 15L2 15L2 14L0 14L0 15L1 15L1 16L0 16L0 17L1 17L1 18L0 18L0 19L2 19L2 17L3 17L3 18L4 18L4 19L3 19L3 20L0 20L0 21L4 21L4 19L5 19L5 20L6 20L6 21L7 21L7 20L6 20L6 19L7 19L7 18L6 18L6 17L8 17L8 18L9 18L9 19L8 19L8 24L9 24L9 20L11 20L11 19L10 19L10 18L11 18L11 17L13 17L13 18L12 18L12 20L13 20L13 18L15 18L15 19L14 19L14 21L13 21L13 22L15 22L15 21L16 21L16 20L17 20L17 21L18 21L18 24L19 24L19 26L18 26L18 25L17 25L17 24L16 24L16 23L12 23L12 21L11 21L11 22L10 22L10 27L12 27L12 26L13 26L13 27L15 27L15 29L16 29L16 28L17 28L17 29L19 29L19 28L18 28L18 27L19 27L19 26L20 26L20 27L21 27L21 29L22 29L22 28L24 28L24 29L25 29L25 28L24 28L24 26L23 26L23 27L22 27L22 26L21 26L21 25L25 25L25 23L26 23L26 21L27 21L27 23L28 23L28 22L29 22L29 21L27 21L27 20L26 20L26 18L28 18L28 19L29 19L29 18L28 18L28 17L29 17L29 16L27 16L27 17L25 17L25 16L22 16L22 15L25 15L25 14L26 14L26 13L29 13L29 12L27 12L27 11L29 11L29 9L28 9L28 8L23 8L23 10L22 10L22 11L21 11L21 9L22 9L22 8L21 8L21 0L19 0L19 1L20 1L20 2L19 2L19 3L20 3L20 5L17 5L17 4L16 4L16 3L15 3L15 2L17 2L17 3L18 3L18 2L17 2L17 1L18 1L18 0L17 0L17 1L16 1L16 0L12 0L12 2L11 2L11 1L10 1L10 0ZM13 1L13 3L12 3L12 4L10 4L10 2L9 2L9 4L10 4L10 6L11 6L11 7L12 7L12 8L11 8L11 9L5 9L5 10L4 10L4 11L5 11L5 14L7 14L7 13L6 13L6 12L8 12L8 10L9 10L9 11L10 11L10 13L9 13L9 14L11 14L11 15L13 15L13 14L15 14L15 15L14 15L14 16L13 16L13 17L15 17L15 18L16 18L16 19L15 19L15 20L16 20L16 19L17 19L17 17L18 17L18 18L20 18L20 19L18 19L18 20L22 20L22 19L21 19L21 15L19 15L19 16L20 16L20 17L18 17L18 16L17 16L17 17L15 17L15 16L16 16L16 14L15 14L15 12L16 12L16 13L18 13L18 14L22 14L22 12L21 12L21 13L20 13L20 12L19 12L19 11L20 11L20 8L19 8L19 7L20 7L20 6L19 6L19 7L18 7L18 6L17 6L17 5L16 5L16 6L15 6L15 7L14 7L14 5L13 5L13 7L12 7L12 4L13 4L13 3L14 3L14 2L15 2L15 1ZM16 6L16 7L15 7L15 9L14 9L14 7L13 7L13 8L12 8L12 9L13 9L13 13L14 13L14 12L15 12L15 11L14 11L14 10L15 10L15 9L16 9L16 10L17 10L17 12L18 12L18 13L19 13L19 12L18 12L18 11L19 11L19 10L18 10L18 7L17 7L17 6ZM26 9L26 10L24 10L24 11L27 11L27 10L28 10L28 9ZM5 10L5 11L7 11L7 10ZM10 10L10 11L12 11L12 10ZM0 12L0 13L2 13L2 12ZM23 12L23 14L25 14L25 13L24 13L24 12ZM27 14L27 15L29 15L29 14ZM3 15L3 17L4 17L4 18L5 18L5 19L6 19L6 18L5 18L5 17L4 17L4 16L5 16L5 15ZM6 15L6 16L7 16L7 15ZM1 16L1 17L2 17L2 16ZM8 16L8 17L10 17L10 16ZM22 17L22 18L25 18L25 17ZM23 19L23 20L25 20L25 19ZM19 21L19 22L20 22L20 21ZM21 21L21 24L24 24L24 21ZM22 22L22 23L23 23L23 22ZM19 23L19 24L20 24L20 23ZM11 24L11 25L13 25L13 26L16 26L16 25L15 25L15 24ZM26 24L26 26L25 26L25 27L26 27L26 29L29 29L29 26L27 26L27 25L29 25L29 24ZM8 26L8 27L9 27L9 26ZM17 26L17 27L18 27L18 26ZM27 27L27 28L28 28L28 27ZM10 28L10 29L11 29L11 28ZM0 0L0 7L7 7L7 0ZM1 1L1 6L6 6L6 1ZM2 2L2 5L5 5L5 2ZM22 0L22 7L29 7L29 0ZM23 1L23 6L28 6L28 1ZM24 2L24 5L27 5L27 2ZM0 22L0 29L7 29L7 22ZM1 23L1 28L6 28L6 23ZM2 24L2 27L5 27L5 24Z" fill="#000000"/></g></g></svg>
