<?xml version="1.0" encoding="UTF-8"?>
<svg xmlns="http://www.w3.org/2000/svg" version="1.1" width="200" height="200" viewBox="0 0 200 200"><rect x="0" y="0" width="200" height="200" fill="#ffffff"/><g transform="scale(4.878)"><g transform="translate(0,0)"><path fill-rule="evenodd" d="M8 0L8 3L9 3L9 2L10 2L10 4L9 4L9 5L8 5L8 9L9 9L9 8L10 8L10 9L14 9L14 8L15 8L15 11L13 11L13 13L14 13L14 14L15 14L15 11L16 11L16 10L17 10L17 12L16 12L16 15L14 15L14 16L10 16L10 15L11 15L11 14L12 14L12 15L13 15L13 14L12 14L12 12L11 12L11 14L10 14L10 15L9 15L9 13L10 13L10 11L12 11L12 10L9 10L9 12L8 12L8 10L5 10L5 11L4 11L4 10L3 10L3 9L5 9L5 8L2 8L2 12L0 12L0 14L2 14L2 16L1 16L1 17L0 17L0 18L1 18L1 17L2 17L2 16L3 16L3 18L2 18L2 20L1 20L1 21L0 21L0 24L2 24L2 22L3 22L3 24L5 24L5 27L7 27L7 26L8 26L8 28L6 28L6 29L7 29L7 30L6 30L6 31L5 31L5 30L4 30L4 29L5 29L5 28L4 28L4 25L0 25L0 27L1 27L1 26L2 26L2 28L3 28L3 29L2 29L2 33L4 33L4 32L3 32L3 30L4 30L4 31L5 31L5 33L8 33L8 34L9 34L9 35L10 35L10 34L11 34L11 33L12 33L12 34L13 34L13 35L15 35L15 37L14 37L14 38L13 38L13 36L12 36L12 35L11 35L11 37L12 37L12 39L11 39L11 38L9 38L9 37L10 37L10 36L8 36L8 39L9 39L9 40L12 40L12 39L14 39L14 40L13 40L13 41L14 41L14 40L17 40L17 39L19 39L19 38L20 38L20 40L18 40L18 41L20 41L20 40L21 40L21 39L22 39L22 36L23 36L23 39L24 39L24 35L27 35L27 36L26 36L26 37L25 37L25 39L27 39L27 40L25 40L25 41L27 41L27 40L28 40L28 41L31 41L31 40L33 40L33 41L34 41L34 40L33 40L33 39L32 39L32 38L34 38L34 39L35 39L35 40L36 40L36 39L37 39L37 40L40 40L40 38L41 38L41 37L39 37L39 36L41 36L41 35L40 35L40 34L41 34L41 33L40 33L40 30L41 30L41 29L39 29L39 32L33 32L33 31L32 31L32 30L33 30L33 29L34 29L34 28L33 28L33 29L32 29L32 30L31 30L31 31L30 31L30 32L28 32L28 31L29 31L29 30L28 30L28 29L31 29L31 28L27 28L27 30L26 30L26 28L24 28L24 26L25 26L25 27L26 27L26 26L25 26L25 25L24 25L24 26L23 26L23 25L22 25L22 23L23 23L23 22L25 22L25 21L29 21L29 19L28 19L28 18L27 18L27 14L30 14L30 15L31 15L31 10L32 10L32 9L33 9L33 10L34 10L34 11L32 11L32 13L33 13L33 14L32 14L32 15L34 15L34 13L35 13L35 10L36 10L36 12L38 12L38 11L40 11L40 12L39 12L39 13L40 13L40 14L37 14L37 13L36 13L36 14L35 14L35 15L36 15L36 16L35 16L35 17L34 17L34 16L32 16L32 17L31 17L31 16L29 16L29 15L28 15L28 16L29 16L29 17L31 17L31 18L30 18L30 19L31 19L31 18L32 18L32 17L33 17L33 18L34 18L34 19L35 19L35 21L34 21L34 20L32 20L32 21L31 21L31 20L30 20L30 21L31 21L31 22L32 22L32 24L34 24L34 23L33 23L33 22L32 22L32 21L34 21L34 22L35 22L35 23L36 23L36 24L35 24L35 25L31 25L31 23L30 23L30 24L29 24L29 22L27 22L27 24L26 24L26 23L25 23L25 24L26 24L26 25L28 25L28 26L27 26L27 27L29 27L29 26L30 26L30 25L31 25L31 26L32 26L32 27L34 27L34 26L35 26L35 27L36 27L36 28L38 28L38 26L39 26L39 27L40 27L40 26L41 26L41 23L39 23L39 24L40 24L40 26L39 26L39 25L36 25L36 24L37 24L37 23L38 23L38 22L39 22L39 20L36 20L36 19L35 19L35 17L36 17L36 18L37 18L37 17L39 17L39 16L37 16L37 15L40 15L40 14L41 14L41 13L40 13L40 12L41 12L41 11L40 11L40 10L41 10L41 8L38 8L38 9L40 9L40 10L37 10L37 9L36 9L36 8L33 8L33 4L32 4L32 3L31 3L31 2L30 2L30 0L29 0L29 1L27 1L27 0L26 0L26 1L27 1L27 2L26 2L26 3L28 3L28 4L29 4L29 3L31 3L31 4L30 4L30 5L32 5L32 7L31 7L31 6L30 6L30 7L31 7L31 8L32 8L32 9L30 9L30 8L29 8L29 9L28 9L28 8L27 8L27 6L28 6L28 7L29 7L29 6L28 6L28 5L27 5L27 4L26 4L26 5L25 5L25 0L23 0L23 1L24 1L24 2L23 2L23 3L22 3L22 4L23 4L23 3L24 3L24 5L22 5L22 7L21 7L21 3L20 3L20 1L21 1L21 2L22 2L22 1L21 1L21 0L19 0L19 2L18 2L18 0L17 0L17 3L16 3L16 0L13 0L13 1L15 1L15 3L16 3L16 4L14 4L14 8L13 8L13 3L14 3L14 2L12 2L12 0ZM31 0L31 1L32 1L32 2L33 2L33 1L32 1L32 0ZM10 1L10 2L11 2L11 1ZM17 3L17 4L16 4L16 6L15 6L15 7L16 7L16 6L17 6L17 10L18 10L18 8L19 8L19 9L20 9L20 10L19 10L19 11L18 11L18 12L17 12L17 13L19 13L19 12L20 12L20 15L19 15L19 14L18 14L18 17L17 17L17 16L16 16L16 17L10 17L10 16L9 16L9 15L8 15L8 13L6 13L6 12L7 12L7 11L6 11L6 12L5 12L5 13L4 13L4 11L3 11L3 13L2 13L2 14L3 14L3 13L4 13L4 14L5 14L5 15L3 15L3 16L4 16L4 17L6 17L6 18L8 18L8 19L9 19L9 20L7 20L7 19L6 19L6 20L7 20L7 21L5 21L5 22L4 22L4 23L6 23L6 24L7 24L7 23L9 23L9 22L8 22L8 21L12 21L12 20L10 20L10 18L11 18L11 19L14 19L14 18L18 18L18 19L16 19L16 20L15 20L15 21L17 21L17 22L14 22L14 21L13 21L13 22L10 22L10 24L9 24L9 25L8 25L8 26L10 26L10 27L9 27L9 29L10 29L10 28L13 28L13 27L15 27L15 29L16 29L16 30L14 30L14 29L11 29L11 30L10 30L10 31L9 31L9 33L11 33L11 31L12 31L12 30L13 30L13 34L14 34L14 33L15 33L15 35L17 35L17 36L16 36L16 37L15 37L15 38L16 38L16 37L17 37L17 36L18 36L18 37L19 37L19 36L20 36L20 38L21 38L21 36L20 36L20 35L18 35L18 34L20 34L20 32L18 32L18 33L17 33L17 30L19 30L19 31L20 31L20 30L21 30L21 33L24 33L24 34L25 34L25 33L24 33L24 32L25 32L25 31L26 31L26 30L24 30L24 28L23 28L23 30L22 30L22 27L21 27L21 26L22 26L22 25L21 25L21 24L20 24L20 25L17 25L17 26L16 26L16 24L17 24L17 22L19 22L19 23L20 23L20 22L22 22L22 21L23 21L23 20L24 20L24 21L25 21L25 20L26 20L26 19L25 19L25 20L24 20L24 18L26 18L26 15L24 15L24 16L21 16L21 15L23 15L23 14L24 14L24 13L25 13L25 14L27 14L27 12L28 12L28 13L29 13L29 12L30 12L30 11L29 11L29 10L30 10L30 9L29 9L29 10L28 10L28 9L27 9L27 8L26 8L26 6L25 6L25 7L24 7L24 6L23 6L23 7L22 7L22 8L21 8L21 7L20 7L20 5L19 5L19 4L20 4L20 3L19 3L19 4L18 4L18 3ZM10 4L10 5L9 5L9 7L10 7L10 8L11 8L11 7L12 7L12 4ZM17 4L17 5L18 5L18 7L19 7L19 5L18 5L18 4ZM10 5L10 7L11 7L11 5ZM23 7L23 9L22 9L22 10L20 10L20 12L21 12L21 11L23 11L23 12L22 12L22 13L23 13L23 12L24 12L24 11L25 11L25 13L26 13L26 10L25 10L25 9L26 9L26 8L25 8L25 9L24 9L24 7ZM6 8L6 9L7 9L7 8ZM0 9L0 11L1 11L1 9ZM23 9L23 10L24 10L24 9ZM27 10L27 11L28 11L28 12L29 12L29 11L28 11L28 10ZM33 12L33 13L34 13L34 12ZM5 13L5 14L6 14L6 15L7 15L7 14L6 14L6 13ZM36 14L36 15L37 15L37 14ZM6 16L6 17L7 17L7 16ZM19 16L19 17L18 17L18 18L19 18L19 17L21 17L21 16ZM36 16L36 17L37 17L37 16ZM40 16L40 18L39 18L39 19L40 19L40 18L41 18L41 16ZM9 17L9 18L10 18L10 17ZM22 17L22 18L24 18L24 17ZM3 19L3 21L4 21L4 20L5 20L5 19ZM21 19L21 20L19 20L19 21L22 21L22 19ZM40 20L40 21L41 21L41 20ZM35 21L35 22L36 22L36 21ZM37 21L37 22L38 22L38 21ZM6 22L6 23L7 23L7 22ZM11 23L11 24L10 24L10 25L11 25L11 27L12 27L12 26L13 26L13 25L14 25L14 26L15 26L15 24L13 24L13 23ZM28 24L28 25L29 25L29 24ZM6 25L6 26L7 26L7 25ZM35 25L35 26L36 26L36 27L37 27L37 26L36 26L36 25ZM18 26L18 27L16 27L16 29L17 29L17 28L18 28L18 29L21 29L21 27L20 27L20 26ZM0 28L0 33L1 33L1 28ZM35 29L35 30L34 30L34 31L38 31L38 29ZM7 30L7 31L6 31L6 32L7 32L7 31L8 31L8 30ZM15 31L15 33L16 33L16 34L17 34L17 33L16 33L16 31ZM22 31L22 32L23 32L23 31ZM26 33L26 34L28 34L28 36L27 36L27 38L30 38L30 37L31 37L31 38L32 38L32 35L31 35L31 33L30 33L30 35L31 35L31 36L29 36L29 33ZM33 33L33 36L36 36L36 33ZM38 33L38 34L39 34L39 33ZM22 34L22 35L23 35L23 34ZM34 34L34 35L35 35L35 34ZM38 35L38 36L37 36L37 37L38 37L38 36L39 36L39 35ZM28 36L28 37L29 37L29 36ZM34 37L34 38L36 38L36 37ZM37 38L37 39L38 39L38 38ZM28 39L28 40L31 40L31 39ZM23 40L23 41L24 41L24 40ZM0 0L0 7L7 7L7 0ZM1 1L1 6L6 6L6 1ZM2 2L2 5L5 5L5 2ZM34 0L34 7L41 7L41 0ZM35 1L35 6L40 6L40 1ZM36 2L36 5L39 5L39 2ZM0 34L0 41L7 41L7 34ZM1 35L1 40L6 40L6 35ZM2 36L2 39L5 39L5 36Z" fill="#000000"/></g></g></svg>
