<?xml version="1.0" encoding="UTF-8"?>
<svg xmlns="http://www.w3.org/2000/svg" version="1.1" width="200" height="200" viewBox="0 0 200 200"><rect x="0" y="0" width="200" height="200" fill="#ffffff"/><g transform="scale(6.897)"><g transform="translate(0,0)"><path fill-rule="evenodd" d="M9 0L9 1L8 1L8 7L9 7L9 8L5 8L5 10L4 10L4 12L2 12L2 9L3 9L3 8L2 8L2 9L1 9L1 12L0 12L0 14L2 14L2 13L4 13L4 12L5 12L5 13L7 13L7 12L8 12L8 14L11 14L11 15L9 15L9 17L10 17L10 19L11 19L11 20L10 20L10 23L11 23L11 24L13 24L13 25L12 25L12 27L10 27L10 28L9 28L9 29L10 29L10 28L14 28L14 27L15 27L15 28L16 28L16 29L17 29L17 28L18 28L18 29L19 29L19 28L18 28L18 27L19 27L19 26L20 26L20 27L21 27L21 29L22 29L22 28L24 28L24 29L25 29L25 28L27 28L27 29L29 29L29 26L27 26L27 25L28 25L28 24L26 24L26 27L25 27L25 28L24 28L24 26L23 26L23 27L22 27L22 26L21 26L21 25L25 25L25 23L26 23L26 21L27 21L27 19L26 19L26 18L28 18L28 19L29 19L29 18L28 18L28 17L29 17L29 16L27 16L27 17L25 17L25 16L22 16L22 15L25 15L25 14L26 14L26 13L29 13L29 12L27 12L27 11L29 11L29 9L28 9L28 8L23 8L23 10L22 10L22 11L21 11L21 9L22 9L22 8L21 8L21 0L19 0L19 1L20 1L20 2L19 2L19 3L20 3L20 5L19 5L19 4L18 4L18 5L16 5L16 3L14 3L14 4L15 4L15 5L13 5L13 6L12 6L12 5L11 5L11 4L13 4L13 2L12 2L12 1L14 1L14 0L12 0L12 1L11 1L11 0ZM15 0L15 2L16 2L16 1L18 1L18 0ZM9 1L9 2L10 2L10 3L12 3L12 2L11 2L11 1ZM17 2L17 3L18 3L18 2ZM9 4L9 5L10 5L10 4ZM9 6L9 7L10 7L10 6ZM11 6L11 7L12 7L12 8L11 8L11 10L10 10L10 8L9 8L9 9L8 9L8 10L7 10L7 9L6 9L6 10L5 10L5 12L7 12L7 11L8 11L8 10L9 10L9 11L10 11L10 12L9 12L9 13L11 13L11 14L12 14L12 15L14 15L14 16L11 16L11 18L12 18L12 21L14 21L14 22L13 22L13 23L15 23L15 25L13 25L13 27L14 27L14 26L16 26L16 27L18 27L18 25L19 25L19 24L20 24L20 23L18 23L18 22L20 22L20 21L18 21L18 20L16 20L16 21L15 21L15 20L14 20L14 18L17 18L17 19L18 19L18 17L19 17L19 18L20 18L20 19L19 19L19 20L22 20L22 19L21 19L21 15L19 15L19 14L22 14L22 12L21 12L21 13L20 13L20 12L19 12L19 14L18 14L18 11L20 11L20 8L19 8L19 7L20 7L20 6L19 6L19 7L18 7L18 6L17 6L17 7L16 7L16 6L15 6L15 10L14 10L14 8L13 8L13 7L14 7L14 6L13 6L13 7L12 7L12 6ZM17 7L17 8L16 8L16 10L17 10L17 11L18 11L18 7ZM12 9L12 10L11 10L11 12L12 12L12 13L14 13L14 15L15 15L15 16L14 16L14 17L12 17L12 18L14 18L14 17L15 17L15 16L16 16L16 17L18 17L18 16L19 16L19 17L20 17L20 16L19 16L19 15L18 15L18 16L17 16L17 15L15 15L15 12L16 12L16 11L15 11L15 12L13 12L13 11L12 11L12 10L13 10L13 9ZM25 9L25 10L24 10L24 11L27 11L27 10L28 10L28 9ZM6 10L6 11L7 11L7 10ZM1 12L1 13L2 13L2 12ZM23 12L23 14L25 14L25 13L24 13L24 12ZM4 14L4 16L5 16L5 18L3 18L3 17L2 17L2 16L3 16L3 15L2 15L2 16L1 16L1 15L0 15L0 16L1 16L1 17L2 17L2 18L0 18L0 19L2 19L2 18L3 18L3 21L5 21L5 18L6 18L6 19L9 19L9 18L8 18L8 17L7 17L7 16L8 16L8 15L7 15L7 14ZM27 14L27 15L29 15L29 14ZM6 15L6 16L7 16L7 15ZM6 17L6 18L7 18L7 17ZM22 17L22 18L25 18L25 17ZM23 19L23 20L25 20L25 19ZM0 20L0 21L2 21L2 20ZM6 20L6 21L7 21L7 20ZM8 20L8 24L9 24L9 20ZM17 21L17 22L16 22L16 23L17 23L17 24L16 24L16 26L17 26L17 24L18 24L18 23L17 23L17 22L18 22L18 21ZM21 21L21 24L24 24L24 21ZM11 22L11 23L12 23L12 22ZM22 22L22 23L23 23L23 22ZM28 22L28 23L29 23L29 22ZM8 26L8 27L9 27L9 26ZM27 27L27 28L28 28L28 27ZM0 0L0 7L7 7L7 0ZM1 1L1 6L6 6L6 1ZM2 2L2 5L5 5L5 2ZM22 0L22 7L29 7L29 0ZM23 1L23 6L28 6L28 1ZM24 2L24 5L27 5L27 2ZM0 22L0 29L7 29L7 22ZM1 23L1 28L6 28L6 23ZM2 24L2 27L5 27L5 24Z" fill="#000000"/></g></g></svg>
