<?xml version="1.0" encoding="UTF-8"?>
<svg xmlns="http://www.w3.org/2000/svg" version="1.1" width="200" height="200" viewBox="0 0 200 200"><rect x="0" y="0" width="200" height="200" fill="#ffffff"/><g transform="scale(6.897)"><g transform="translate(0,0)"><path fill-rule="evenodd" d="M9 0L9 1L8 1L8 7L9 7L9 5L12 5L12 8L13 8L13 9L14 9L14 8L15 8L15 6L16 6L16 7L17 7L17 9L18 9L18 7L19 7L19 8L20 8L20 11L19 11L19 10L16 10L16 9L15 9L15 10L14 10L14 11L13 11L13 12L14 12L14 14L15 14L15 16L14 16L14 15L13 15L13 17L12 17L12 14L13 14L13 13L12 13L12 14L11 14L11 13L10 13L10 10L8 10L8 11L7 11L7 10L6 10L6 9L9 9L9 8L5 8L5 9L3 9L3 8L2 8L2 9L3 9L3 10L1 10L1 9L0 9L0 10L1 10L1 11L3 11L3 12L2 12L2 13L3 13L3 14L0 14L0 17L1 17L1 18L0 18L0 19L2 19L2 18L3 18L3 19L4 19L4 21L5 21L5 20L6 20L6 21L7 21L7 20L6 20L6 19L7 19L7 18L5 18L5 17L7 17L7 16L11 16L11 17L8 17L8 18L9 18L9 19L8 19L8 24L9 24L9 25L12 25L12 26L11 26L11 28L10 28L10 27L9 27L9 26L8 26L8 27L9 27L9 29L15 29L15 28L17 28L17 29L19 29L19 27L18 27L18 25L19 25L19 22L17 22L17 20L18 20L18 19L20 19L20 18L18 18L18 17L17 17L17 16L16 16L16 15L21 15L21 19L22 19L22 20L19 20L19 21L20 21L20 25L25 25L25 23L26 23L26 21L27 21L27 22L28 22L28 23L27 23L27 24L26 24L26 25L27 25L27 24L28 24L28 25L29 25L29 24L28 24L28 23L29 23L29 21L27 21L27 18L28 18L28 19L29 19L29 18L28 18L28 17L29 17L29 16L27 16L27 17L25 17L25 16L22 16L22 15L25 15L25 14L26 14L26 13L29 13L29 12L27 12L27 11L29 11L29 9L28 9L28 8L23 8L23 10L22 10L22 11L21 11L21 9L22 9L22 8L21 8L21 0L19 0L19 1L20 1L20 2L19 2L19 3L20 3L20 5L19 5L19 4L18 4L18 5L15 5L15 2L17 2L17 3L18 3L18 2L17 2L17 1L18 1L18 0L17 0L17 1L15 1L15 0L14 0L14 1L12 1L12 2L13 2L13 3L14 3L14 4L13 4L13 5L12 5L12 3L11 3L11 2L10 2L10 3L9 3L9 1L11 1L11 0ZM14 1L14 2L15 2L15 1ZM13 5L13 7L14 7L14 5ZM10 6L10 8L11 8L11 6ZM17 6L17 7L18 7L18 6ZM19 6L19 7L20 7L20 6ZM11 9L11 11L12 11L12 9ZM25 9L25 10L24 10L24 11L26 11L26 9ZM27 9L27 10L28 10L28 9ZM5 10L5 11L6 11L6 12L7 12L7 13L5 13L5 12L4 12L4 13L5 13L5 14L4 14L4 15L5 15L5 16L7 16L7 15L6 15L6 14L7 14L7 13L8 13L8 14L9 14L9 15L11 15L11 14L9 14L9 11L8 11L8 12L7 12L7 11L6 11L6 10ZM15 10L15 11L16 11L16 12L15 12L15 14L22 14L22 12L21 12L21 13L20 13L20 12L19 12L19 11L18 11L18 13L17 13L17 11L16 11L16 10ZM0 12L0 13L1 13L1 12ZM23 12L23 14L25 14L25 13L24 13L24 12ZM27 14L27 15L29 15L29 14ZM1 15L1 16L2 16L2 17L3 17L3 18L4 18L4 17L3 17L3 16L2 16L2 15ZM15 16L15 17L16 17L16 18L14 18L14 17L13 17L13 18L12 18L12 17L11 17L11 18L10 18L10 19L12 19L12 20L10 20L10 21L11 21L11 22L10 22L10 23L9 23L9 24L10 24L10 23L11 23L11 24L13 24L13 23L16 23L16 24L15 24L15 25L13 25L13 26L15 26L15 27L17 27L17 28L18 28L18 27L17 27L17 25L16 25L16 24L17 24L17 22L14 22L14 19L18 19L18 18L17 18L17 17L16 17L16 16ZM19 16L19 17L20 17L20 16ZM22 17L22 18L25 18L25 20L26 20L26 18L25 18L25 17ZM13 18L13 19L14 19L14 18ZM23 19L23 20L24 20L24 19ZM0 20L0 21L3 21L3 20ZM12 20L12 23L13 23L13 20ZM15 20L15 21L16 21L16 20ZM21 21L21 24L24 24L24 21ZM22 22L22 23L23 23L23 22ZM15 25L15 26L16 26L16 25ZM21 26L21 29L22 29L22 28L24 28L24 29L26 29L26 28L27 28L27 29L29 29L29 26L26 26L26 28L24 28L24 26L23 26L23 27L22 27L22 26ZM12 27L12 28L13 28L13 27ZM27 27L27 28L28 28L28 27ZM0 0L0 7L7 7L7 0ZM1 1L1 6L6 6L6 1ZM2 2L2 5L5 5L5 2ZM22 0L22 7L29 7L29 0ZM23 1L23 6L28 6L28 1ZM24 2L24 5L27 5L27 2ZM0 22L0 29L7 29L7 22ZM1 23L1 28L6 28L6 23ZM2 24L2 27L5 27L5 24Z" fill="#000000"/></g></g></svg>
