<?xml version="1.0" encoding="UTF-8"?>
<svg xmlns="http://www.w3.org/2000/svg" version="1.1" width="200" height="200" viewBox="0 0 200 200"><rect x="0" y="0" width="200" height="200" fill="#ffffff"/><g transform="scale(4.878)"><g transform="translate(0,0)"><path fill-rule="evenodd" d="M8 0L8 3L9 3L9 5L8 5L8 9L7 9L7 8L6 8L6 9L5 9L5 8L2 8L2 9L1 9L1 11L2 11L2 12L0 12L0 13L2 13L2 14L0 14L0 17L1 17L1 19L4 19L4 20L3 20L3 21L0 21L0 22L1 22L1 23L2 23L2 22L3 22L3 23L4 23L4 24L3 24L3 25L2 25L2 24L0 24L0 26L1 26L1 27L0 27L0 33L1 33L1 28L2 28L2 27L3 27L3 30L4 30L4 31L5 31L5 32L4 32L4 33L5 33L5 32L6 32L6 33L7 33L7 32L9 32L9 33L8 33L8 34L9 34L9 33L10 33L10 34L14 34L14 33L15 33L15 32L16 32L16 36L15 36L15 35L13 35L13 36L12 36L12 35L11 35L11 38L9 38L9 36L8 36L8 39L9 39L9 41L14 41L14 40L10 40L10 39L15 39L15 41L17 41L17 38L18 38L18 39L19 39L19 40L18 40L18 41L19 41L19 40L20 40L20 41L22 41L22 40L23 40L23 39L22 39L22 40L20 40L20 39L19 39L19 36L21 36L21 37L20 37L20 38L24 38L24 36L25 36L25 38L26 38L26 37L28 37L28 38L27 38L27 39L24 39L24 40L25 40L25 41L31 41L31 40L33 40L33 41L34 41L34 40L33 40L33 39L35 39L35 40L36 40L36 39L37 39L37 40L40 40L40 38L41 38L41 36L37 36L37 32L38 32L38 34L39 34L39 35L40 35L40 34L41 34L41 32L40 32L40 30L41 30L41 29L40 29L40 28L39 28L39 29L38 29L38 30L39 30L39 32L38 32L38 31L36 31L36 32L33 32L33 31L32 31L32 30L33 30L33 29L34 29L34 28L33 28L33 29L32 29L32 30L31 30L31 29L30 29L30 28L29 28L29 27L28 27L28 26L26 26L26 28L27 28L27 29L26 29L26 30L25 30L25 32L27 32L27 33L28 33L28 34L26 34L26 35L27 35L27 36L25 36L25 35L24 35L24 34L25 34L25 33L24 33L24 29L25 29L25 28L24 28L24 29L23 29L23 31L22 31L22 32L21 32L21 30L22 30L22 29L21 29L21 28L22 28L22 27L24 27L24 26L25 26L25 25L29 25L29 26L32 26L32 27L31 27L31 28L32 28L32 27L34 27L34 26L35 26L35 27L36 27L36 28L35 28L35 29L36 29L36 30L37 30L37 29L36 29L36 28L38 28L38 26L39 26L39 27L40 27L40 26L41 26L41 23L39 23L39 22L38 22L38 21L39 21L39 20L36 20L36 19L35 19L35 17L36 17L36 18L37 18L37 17L39 17L39 16L37 16L37 14L38 14L38 13L36 13L36 14L35 14L35 17L34 17L34 16L33 16L33 17L30 17L30 16L31 16L31 12L32 12L32 13L33 13L33 14L32 14L32 15L34 15L34 13L35 13L35 11L36 11L36 12L38 12L38 11L39 11L39 12L40 12L40 10L41 10L41 8L38 8L38 9L40 9L40 10L37 10L37 9L36 9L36 8L33 8L33 6L32 6L32 7L31 7L31 6L30 6L30 5L33 5L33 4L30 4L30 5L27 5L27 4L26 4L26 5L27 5L27 6L26 6L26 7L25 7L25 6L24 6L24 7L25 7L25 9L24 9L24 8L23 8L23 6L22 6L22 7L21 7L21 6L20 6L20 7L19 7L19 5L21 5L21 4L20 4L20 3L22 3L22 1L23 1L23 0L22 0L22 1L21 1L21 0L20 0L20 1L17 1L17 0L15 0L15 1L14 1L14 2L13 2L13 0L12 0L12 1L11 1L11 2L10 2L10 3L9 3L9 1L10 1L10 0ZM26 0L26 1L27 1L27 2L26 2L26 3L28 3L28 4L29 4L29 3L32 3L32 2L33 2L33 1L32 1L32 0L31 0L31 1L32 1L32 2L30 2L30 0L29 0L29 1L27 1L27 0ZM15 1L15 2L14 2L14 4L13 4L13 2L11 2L11 3L10 3L10 4L12 4L12 5L13 5L13 8L12 8L12 9L11 9L11 8L10 8L10 9L8 9L8 10L7 10L7 9L6 9L6 10L5 10L5 11L4 11L4 10L3 10L3 9L2 9L2 10L3 10L3 11L4 11L4 12L3 12L3 14L2 14L2 15L3 15L3 16L1 16L1 17L2 17L2 18L3 18L3 16L4 16L4 15L3 15L3 14L5 14L5 16L7 16L7 17L6 17L6 18L7 18L7 19L6 19L6 20L4 20L4 21L5 21L5 23L6 23L6 24L4 24L4 29L5 29L5 28L7 28L7 29L6 29L6 30L5 30L5 31L6 31L6 32L7 32L7 31L10 31L10 30L7 30L7 29L8 29L8 28L7 28L7 27L5 27L5 25L6 25L6 26L8 26L8 25L9 25L9 23L11 23L11 24L10 24L10 25L11 25L11 26L10 26L10 27L9 27L9 29L11 29L11 32L10 32L10 33L14 33L14 31L15 31L15 29L14 29L14 28L16 28L16 32L18 32L18 34L19 34L19 32L18 32L18 31L17 31L17 29L18 29L18 30L19 30L19 31L20 31L20 28L21 28L21 27L19 27L19 26L21 26L21 25L22 25L22 23L23 23L23 25L24 25L24 24L25 24L25 22L28 22L28 21L29 21L29 23L28 23L28 24L30 24L30 25L32 25L32 26L34 26L34 25L35 25L35 26L36 26L36 25L39 25L39 26L40 26L40 24L39 24L39 23L38 23L38 22L37 22L37 24L36 24L36 23L35 23L35 22L36 22L36 21L35 21L35 19L34 19L34 18L33 18L33 19L32 19L32 18L31 18L31 19L30 19L30 17L29 17L29 16L30 16L30 15L29 15L29 14L30 14L30 13L29 13L29 12L31 12L31 11L34 11L34 9L32 9L32 8L31 8L31 9L27 9L27 10L26 10L26 9L25 9L25 10L23 10L23 8L21 8L21 7L20 7L20 9L22 9L22 10L19 10L19 7L18 7L18 5L19 5L19 3L20 3L20 2L18 2L18 4L16 4L16 6L15 6L15 5L14 5L14 4L15 4L15 2L16 2L16 3L17 3L17 1ZM24 2L24 3L23 3L23 5L25 5L25 2ZM9 5L9 7L10 7L10 5ZM11 6L11 7L12 7L12 6ZM14 6L14 7L15 7L15 8L16 8L16 7L17 7L17 6L16 6L16 7L15 7L15 6ZM27 6L27 7L26 7L26 8L30 8L30 6L29 6L29 7L28 7L28 6ZM13 8L13 9L12 9L12 10L11 10L11 9L10 9L10 10L11 10L11 11L12 11L12 12L10 12L10 11L7 11L7 10L6 10L6 11L5 11L5 13L7 13L7 14L6 14L6 15L7 15L7 14L8 14L8 18L9 18L9 19L8 19L8 21L7 21L7 20L6 20L6 21L7 21L7 22L6 22L6 23L7 23L7 22L8 22L8 23L9 23L9 22L11 22L11 21L12 21L12 22L13 22L13 21L14 21L14 22L15 22L15 24L16 24L16 23L18 23L18 24L19 24L19 25L21 25L21 24L20 24L20 23L21 23L21 22L22 22L22 21L21 21L21 20L24 20L24 19L26 19L26 21L28 21L28 20L27 20L27 19L28 19L28 18L26 18L26 17L25 17L25 15L27 15L27 14L29 14L29 13L28 13L28 12L27 12L27 14L25 14L25 13L26 13L26 12L24 12L24 11L23 11L23 10L22 10L22 11L23 11L23 12L22 12L22 14L23 14L23 15L21 15L21 11L18 11L18 12L17 12L17 14L18 14L18 15L17 15L17 16L16 16L16 15L15 15L15 14L16 14L16 13L15 13L15 14L12 14L12 13L14 13L14 11L15 11L15 12L16 12L16 11L17 11L17 10L18 10L18 9L16 9L16 10L14 10L14 8ZM31 9L31 10L29 10L29 11L31 11L31 10L32 10L32 9ZM35 9L35 10L36 10L36 11L37 11L37 10L36 10L36 9ZM12 10L12 11L13 11L13 10ZM25 10L25 11L26 11L26 10ZM27 10L27 11L28 11L28 10ZM6 11L6 12L7 12L7 13L8 13L8 14L9 14L9 17L10 17L10 16L11 16L11 18L10 18L10 19L9 19L9 21L8 21L8 22L9 22L9 21L11 21L11 20L12 20L12 21L13 21L13 19L14 19L14 18L15 18L15 20L14 20L14 21L15 21L15 20L17 20L17 22L18 22L18 23L20 23L20 20L21 20L21 19L19 19L19 18L18 18L18 17L20 17L20 18L23 18L23 19L24 19L24 18L23 18L23 17L22 17L22 16L20 16L20 15L19 15L19 16L18 16L18 17L17 17L17 19L16 19L16 18L15 18L15 15L14 15L14 16L13 16L13 17L14 17L14 18L13 18L13 19L12 19L12 16L11 16L11 15L10 15L10 14L9 14L9 12L7 12L7 11ZM18 12L18 13L19 13L19 14L20 14L20 12ZM33 12L33 13L34 13L34 12ZM23 13L23 14L24 14L24 15L23 15L23 16L24 16L24 15L25 15L25 14L24 14L24 13ZM39 13L39 14L41 14L41 13ZM28 15L28 16L29 16L29 15ZM36 16L36 17L37 17L37 16ZM40 16L40 18L38 18L38 19L40 19L40 18L41 18L41 16ZM4 17L4 19L5 19L5 17ZM17 19L17 20L18 20L18 21L19 21L19 20L18 20L18 19ZM30 20L30 21L31 21L31 22L32 22L32 23L30 23L30 24L32 24L32 25L34 25L34 24L35 24L35 25L36 25L36 24L35 24L35 23L34 23L34 24L33 24L33 22L32 22L32 21L34 21L34 22L35 22L35 21L34 21L34 20ZM40 20L40 21L41 21L41 20ZM12 23L12 24L13 24L13 23ZM6 24L6 25L7 25L7 24ZM12 25L12 26L11 26L11 27L10 27L10 28L11 28L11 29L13 29L13 30L12 30L12 31L13 31L13 30L14 30L14 29L13 29L13 28L14 28L14 26L16 26L16 28L18 28L18 25L14 25L14 26L13 26L13 25ZM11 27L11 28L13 28L13 27ZM28 29L28 30L29 30L29 31L28 31L28 33L29 33L29 32L31 32L31 30L30 30L30 29ZM6 30L6 31L7 31L7 30ZM26 30L26 31L27 31L27 30ZM34 30L34 31L35 31L35 30ZM2 31L2 33L3 33L3 31ZM20 32L20 35L21 35L21 36L22 36L22 37L23 37L23 36L24 36L24 35L23 35L23 34L24 34L24 33L23 33L23 32L22 32L22 33L21 33L21 32ZM30 33L30 35L31 35L31 36L28 36L28 37L29 37L29 38L28 38L28 39L27 39L27 40L31 40L31 39L29 39L29 38L30 38L30 37L31 37L31 38L32 38L32 39L33 39L33 38L36 38L36 37L32 37L32 35L31 35L31 33ZM33 33L33 36L36 36L36 33ZM21 34L21 35L22 35L22 34ZM34 34L34 35L35 35L35 34ZM18 35L18 36L16 36L16 38L15 38L15 39L16 39L16 38L17 38L17 37L18 37L18 36L19 36L19 35ZM13 36L13 37L12 37L12 38L13 38L13 37L14 37L14 36ZM37 38L37 39L38 39L38 38ZM0 0L0 7L7 7L7 0ZM1 1L1 6L6 6L6 1ZM2 2L2 5L5 5L5 2ZM34 0L34 7L41 7L41 0ZM35 1L35 6L40 6L40 1ZM36 2L36 5L39 5L39 2ZM0 34L0 41L7 41L7 34ZM1 35L1 40L6 40L6 35ZM2 36L2 39L5 39L5 36Z" fill="#000000"/></g></g></svg>
