<?xml version="1.0" encoding="UTF-8"?>
<svg xmlns="http://www.w3.org/2000/svg" version="1.1" width="200" height="200" viewBox="0 0 200 200"><rect x="0" y="0" width="200" height="200" fill="#ffffff"/><g transform="scale(6.897)"><g transform="translate(0,0)"><path fill-rule="evenodd" d="M10 0L10 2L11 2L11 1L13 1L13 0ZM16 0L16 1L14 1L14 2L12 2L12 3L10 3L10 4L11 4L11 5L10 5L10 7L9 7L9 6L8 6L8 8L6 8L6 9L5 9L5 10L4 10L4 13L3 13L3 14L1 14L1 13L2 13L2 12L3 12L3 11L1 11L1 9L0 9L0 15L1 15L1 16L0 16L0 17L1 17L1 18L0 18L0 19L1 19L1 18L2 18L2 17L3 17L3 18L4 18L4 19L9 19L9 21L8 21L8 20L3 20L3 19L2 19L2 20L1 20L1 21L8 21L8 23L9 23L9 25L8 25L8 27L9 27L9 28L11 28L11 29L14 29L14 27L13 27L13 26L14 26L14 25L15 25L15 29L16 29L16 24L14 24L14 23L15 23L15 22L17 22L17 24L20 24L20 25L18 25L18 26L17 26L17 28L18 28L18 29L20 29L20 28L18 28L18 26L20 26L20 25L23 25L23 26L24 26L24 27L22 27L22 29L23 29L23 28L25 28L25 26L24 26L24 25L26 25L26 26L27 26L27 25L26 25L26 23L25 23L25 22L26 22L26 20L27 20L27 24L28 24L28 25L29 25L29 21L28 21L28 20L27 20L27 18L29 18L29 17L26 17L26 16L25 16L25 15L24 15L24 16L23 16L23 17L21 17L21 18L20 18L20 17L18 17L18 16L17 16L17 15L18 15L18 14L19 14L19 15L20 15L20 14L21 14L21 13L20 13L20 12L22 12L22 9L23 9L23 13L22 13L22 15L23 15L23 14L24 14L24 13L25 13L25 14L26 14L26 15L27 15L27 16L28 16L28 15L29 15L29 14L28 14L28 15L27 15L27 13L28 13L28 12L29 12L29 11L28 11L28 12L27 12L27 10L29 10L29 9L27 9L27 10L26 10L26 9L25 9L25 8L24 8L24 9L23 9L23 8L21 8L21 9L20 9L20 7L21 7L21 3L20 3L20 2L18 2L18 1L17 1L17 0ZM15 2L15 3L13 3L13 4L12 4L12 5L11 5L11 7L12 7L12 6L13 6L13 8L14 8L14 12L13 12L13 11L11 11L11 10L10 10L10 9L9 9L9 10L10 10L10 11L11 11L11 12L10 12L10 13L11 13L11 15L12 15L12 16L11 16L11 17L13 17L13 18L12 18L12 20L13 20L13 21L12 21L12 22L13 22L13 21L15 21L15 20L16 20L16 21L18 21L18 23L20 23L20 21L19 21L19 20L20 20L20 18L15 18L15 20L13 20L13 19L14 19L14 17L15 17L15 16L14 16L14 14L13 14L13 13L15 13L15 10L16 10L16 11L17 11L17 12L16 12L16 14L15 14L15 15L17 15L17 14L18 14L18 13L17 13L17 12L20 12L20 11L19 11L19 10L20 10L20 9L19 9L19 10L18 10L18 8L19 8L19 7L20 7L20 5L19 5L19 4L20 4L20 3L19 3L19 4L18 4L18 2L17 2L17 4L16 4L16 5L19 5L19 7L18 7L18 6L17 6L17 9L16 9L16 8L15 8L15 7L16 7L16 6L15 6L15 7L14 7L14 6L13 6L13 5L14 5L14 4L15 4L15 3L16 3L16 2ZM8 4L8 5L9 5L9 4ZM2 8L2 10L3 10L3 9L4 9L4 8ZM6 9L6 10L7 10L7 9ZM12 9L12 10L13 10L13 9ZM24 9L24 10L25 10L25 9ZM17 10L17 11L18 11L18 10ZM5 11L5 12L7 12L7 11ZM8 11L8 12L9 12L9 11ZM25 11L25 13L27 13L27 12L26 12L26 11ZM11 12L11 13L12 13L12 12ZM5 13L5 14L4 14L4 15L3 15L3 16L5 16L5 17L4 17L4 18L5 18L5 17L6 17L6 18L9 18L9 17L10 17L10 16L9 16L9 15L8 15L8 14L7 14L7 13ZM19 13L19 14L20 14L20 13ZM6 14L6 15L5 15L5 16L6 16L6 17L7 17L7 16L6 16L6 15L7 15L7 14ZM12 14L12 15L13 15L13 14ZM8 16L8 17L9 17L9 16ZM13 16L13 17L14 17L14 16ZM16 16L16 17L17 17L17 16ZM24 16L24 17L23 17L23 18L22 18L22 19L21 19L21 20L22 20L22 19L24 19L24 18L25 18L25 19L26 19L26 17L25 17L25 16ZM16 19L16 20L17 20L17 19ZM18 19L18 20L19 20L19 19ZM10 20L10 21L9 21L9 23L10 23L10 24L11 24L11 23L10 23L10 22L11 22L11 20ZM21 21L21 24L24 24L24 21ZM22 22L22 23L23 23L23 22ZM12 23L12 26L11 26L11 25L9 25L9 27L12 27L12 28L13 28L13 27L12 27L12 26L13 26L13 23ZM28 26L28 27L26 27L26 29L27 29L27 28L29 28L29 26ZM0 0L0 7L7 7L7 0ZM1 1L1 6L6 6L6 1ZM2 2L2 5L5 5L5 2ZM22 0L22 7L29 7L29 0ZM23 1L23 6L28 6L28 1ZM24 2L24 5L27 5L27 2ZM0 22L0 29L7 29L7 22ZM1 23L1 28L6 28L6 23ZM2 24L2 27L5 27L5 24Z" fill="#000000"/></g></g></svg>
