<?xml version="1.0" encoding="UTF-8"?>
<svg xmlns="http://www.w3.org/2000/svg" version="1.1" width="200" height="200" viewBox="0 0 200 200"><rect x="0" y="0" width="200" height="200" fill="#ffffff"/><g transform="scale(4.878)"><g transform="translate(0,0)"><path fill-rule="evenodd" d="M8 0L8 3L10 3L10 4L9 4L9 5L8 5L8 9L7 9L7 8L6 8L6 9L7 9L7 10L6 10L6 11L5 11L5 8L2 8L2 9L0 9L0 11L1 11L1 12L0 12L0 14L1 14L1 18L0 18L0 20L1 20L1 21L0 21L0 23L2 23L2 24L1 24L1 25L2 25L2 26L3 26L3 27L4 27L4 28L6 28L6 29L7 29L7 30L6 30L6 31L5 31L5 29L4 29L4 30L3 30L3 31L2 31L2 33L3 33L3 32L4 32L4 31L5 31L5 33L8 33L8 34L10 34L10 31L12 31L12 30L13 30L13 32L11 32L11 34L12 34L12 35L11 35L11 36L14 36L14 37L13 37L13 38L10 38L10 37L9 37L9 36L10 36L10 35L9 35L9 36L8 36L8 39L10 39L10 41L13 41L13 40L14 40L14 41L17 41L17 39L18 39L18 38L17 38L17 37L18 37L18 36L16 36L16 37L15 37L15 35L14 35L14 33L15 33L15 34L16 34L16 33L17 33L17 31L18 31L18 35L21 35L21 34L22 34L22 36L25 36L25 35L23 35L23 34L27 34L27 35L26 35L26 38L25 38L25 37L22 37L22 39L19 39L19 40L20 40L20 41L21 41L21 40L22 40L22 41L23 41L23 38L24 38L24 40L25 40L25 39L27 39L27 41L28 41L28 39L29 39L29 38L30 38L30 40L29 40L29 41L30 41L30 40L33 40L33 41L34 41L34 40L33 40L33 39L32 39L32 38L34 38L34 39L35 39L35 40L36 40L36 39L37 39L37 40L40 40L40 38L41 38L41 37L40 37L40 36L41 36L41 35L40 35L40 34L41 34L41 33L40 33L40 32L41 32L41 31L40 31L40 30L41 30L41 28L40 28L40 26L41 26L41 23L39 23L39 22L37 22L37 20L38 20L38 21L39 21L39 20L38 20L38 19L40 19L40 18L41 18L41 16L40 16L40 18L38 18L38 17L39 17L39 16L37 16L37 17L36 17L36 16L35 16L35 17L34 17L34 16L32 16L32 17L30 17L30 16L31 16L31 12L32 12L32 13L33 13L33 14L32 14L32 15L34 15L34 13L35 13L35 9L36 9L36 10L37 10L37 11L36 11L36 12L38 12L38 11L39 11L39 14L38 14L38 13L36 13L36 15L37 15L37 14L38 14L38 15L39 15L39 14L41 14L41 12L40 12L40 10L41 10L41 8L38 8L38 9L40 9L40 10L37 10L37 9L36 9L36 8L32 8L32 7L33 7L33 6L32 6L32 7L31 7L31 5L33 5L33 4L30 4L30 5L29 5L29 4L28 4L28 5L27 5L27 4L25 4L25 2L24 2L24 0L23 0L23 1L22 1L22 2L20 2L20 3L18 3L18 2L19 2L19 1L20 1L20 0L19 0L19 1L18 1L18 0L17 0L17 1L16 1L16 0L13 0L13 2L14 2L14 4L13 4L13 3L12 3L12 4L13 4L13 6L12 6L12 7L13 7L13 8L12 8L12 10L9 10L9 9L11 9L11 8L9 8L9 5L10 5L10 7L11 7L11 2L12 2L12 1L11 1L11 0L10 0L10 2L9 2L9 0ZM26 0L26 1L27 1L27 2L26 2L26 3L32 3L32 2L33 2L33 0L29 0L29 1L27 1L27 0ZM14 1L14 2L15 2L15 3L16 3L16 4L15 4L15 5L14 5L14 6L13 6L13 7L14 7L14 10L15 10L15 9L16 9L16 8L17 8L17 9L18 9L18 8L19 8L19 7L20 7L20 5L21 5L21 4L22 4L22 5L24 5L24 6L23 6L23 7L22 7L22 6L21 6L21 7L22 7L22 8L20 8L20 9L19 9L19 10L18 10L18 11L14 11L14 12L12 12L12 11L9 11L9 10L8 10L8 11L6 11L6 12L7 12L7 13L6 13L6 14L5 14L5 15L3 15L3 14L2 14L2 15L3 15L3 17L6 17L6 18L7 18L7 19L6 19L6 20L5 20L5 18L1 18L1 19L4 19L4 22L3 22L3 21L2 21L2 23L5 23L5 24L7 24L7 23L5 23L5 21L6 21L6 22L7 22L7 21L6 21L6 20L8 20L8 21L11 21L11 20L12 20L12 18L13 18L13 19L15 19L15 20L14 20L14 21L12 21L12 22L13 22L13 23L11 23L11 24L10 24L10 22L8 22L8 24L9 24L9 25L11 25L11 27L10 27L10 26L9 26L9 27L10 27L10 28L11 28L11 27L13 27L13 28L12 28L12 29L13 29L13 30L15 30L15 29L13 29L13 28L15 28L15 27L16 27L16 31L17 31L17 30L19 30L19 28L20 28L20 27L21 27L21 28L22 28L22 27L21 27L21 26L22 26L22 25L23 25L23 29L22 29L22 30L23 30L23 29L25 29L25 30L24 30L24 31L21 31L21 30L20 30L20 31L19 31L19 32L20 32L20 33L23 33L23 32L24 32L24 33L27 33L27 34L29 34L29 33L27 33L27 32L26 32L26 31L25 31L25 30L27 30L27 29L25 29L25 27L26 27L26 28L27 28L27 26L28 26L28 25L29 25L29 24L30 24L30 23L31 23L31 25L30 25L30 26L29 26L29 28L30 28L30 29L28 29L28 30L30 30L30 29L31 29L31 30L32 30L32 31L33 31L33 32L35 32L35 31L36 31L36 29L38 29L38 30L37 30L37 31L38 31L38 32L37 32L37 36L40 36L40 35L38 35L38 34L39 34L39 33L38 33L38 32L39 32L39 31L38 31L38 30L39 30L39 26L40 26L40 24L39 24L39 23L37 23L37 24L36 24L36 23L33 23L33 22L34 22L34 21L35 21L35 22L36 22L36 21L35 21L35 19L36 19L36 20L37 20L37 19L38 19L38 18L36 18L36 17L35 17L35 19L34 19L34 18L33 18L33 17L32 17L32 18L31 18L31 19L30 19L30 17L29 17L29 16L30 16L30 15L29 15L29 14L30 14L30 13L29 13L29 12L31 12L31 11L34 11L34 9L32 9L32 8L31 8L31 7L30 7L30 6L29 6L29 7L28 7L28 6L27 6L27 7L26 7L26 5L25 5L25 4L22 4L22 3L24 3L24 2L22 2L22 3L20 3L20 4L19 4L19 7L18 7L18 5L17 5L17 7L16 7L16 6L15 6L15 5L16 5L16 4L18 4L18 3L17 3L17 2L18 2L18 1L17 1L17 2L16 2L16 1ZM30 1L30 2L32 2L32 1ZM14 6L14 7L15 7L15 8L16 8L16 7L15 7L15 6ZM24 6L24 7L23 7L23 9L24 9L24 12L25 12L25 9L28 9L28 10L27 10L27 11L26 11L26 14L25 14L25 13L23 13L23 12L22 12L22 11L23 11L23 10L22 10L22 9L21 9L21 10L20 10L20 11L21 11L21 12L22 12L22 13L23 13L23 14L25 14L25 15L26 15L26 16L24 16L24 15L23 15L23 16L24 16L24 17L23 17L23 20L21 20L21 19L22 19L22 18L19 18L19 19L20 19L20 22L19 22L19 23L17 23L17 22L16 22L16 21L17 21L17 20L18 20L18 17L17 17L17 14L18 14L18 13L17 13L17 12L16 12L16 13L15 13L15 12L14 12L14 14L13 14L13 13L11 13L11 12L10 12L10 15L8 15L8 16L6 16L6 17L7 17L7 18L9 18L9 19L10 19L10 20L11 20L11 18L12 18L12 17L13 17L13 18L15 18L15 19L16 19L16 21L15 21L15 22L16 22L16 23L15 23L15 24L14 24L14 23L13 23L13 24L12 24L12 25L13 25L13 24L14 24L14 25L15 25L15 26L16 26L16 27L17 27L17 29L18 29L18 28L19 28L19 25L18 25L18 27L17 27L17 24L20 24L20 26L21 26L21 25L22 25L22 24L23 24L23 25L24 25L24 26L26 26L26 25L24 25L24 24L25 24L25 23L22 23L22 24L20 24L20 23L21 23L21 21L22 21L22 22L23 22L23 20L24 20L24 19L25 19L25 20L26 20L26 24L27 24L27 25L28 25L28 24L29 24L29 23L30 23L30 22L29 22L29 23L28 23L28 22L27 22L27 21L29 21L29 19L28 19L28 18L26 18L26 17L27 17L27 15L26 15L26 14L29 14L29 13L28 13L28 12L29 12L29 11L31 11L31 10L32 10L32 9L30 9L30 8L29 8L29 9L28 9L28 7L27 7L27 8L26 8L26 7L25 7L25 6ZM24 8L24 9L25 9L25 8ZM2 9L2 10L3 10L3 9ZM29 9L29 10L28 10L28 11L27 11L27 12L28 12L28 11L29 11L29 10L30 10L30 9ZM21 10L21 11L22 11L22 10ZM3 11L3 13L4 13L4 12L5 12L5 11ZM8 11L8 12L9 12L9 11ZM18 11L18 12L19 12L19 11ZM33 12L33 13L34 13L34 12ZM7 13L7 14L6 14L6 15L7 15L7 14L8 14L8 13ZM19 13L19 14L20 14L20 15L21 15L21 14L20 14L20 13ZM11 14L11 15L12 15L12 16L9 16L9 17L10 17L10 18L11 18L11 17L12 17L12 16L13 16L13 17L15 17L15 18L16 18L16 15L15 15L15 14L14 14L14 15L13 15L13 14ZM18 15L18 16L19 16L19 15ZM28 15L28 16L29 16L29 15ZM25 18L25 19L26 19L26 20L28 20L28 19L26 19L26 18ZM32 18L32 19L31 19L31 20L30 20L30 21L31 21L31 22L33 22L33 21L34 21L34 20L33 20L33 21L31 21L31 20L32 20L32 19L33 19L33 18ZM40 20L40 21L41 21L41 20ZM24 21L24 22L25 22L25 21ZM16 23L16 24L17 24L17 23ZM2 24L2 25L3 25L3 26L4 26L4 27L6 27L6 28L7 28L7 27L8 27L8 26L7 26L7 25L3 25L3 24ZM31 25L31 26L32 26L32 27L34 27L34 26L36 26L36 27L37 27L37 28L38 28L38 26L39 26L39 25ZM0 26L0 28L2 28L2 27L1 27L1 26ZM6 26L6 27L7 27L7 26ZM13 26L13 27L14 27L14 26ZM31 28L31 29L32 29L32 30L33 30L33 29L34 29L34 28L33 28L33 29L32 29L32 28ZM35 28L35 29L36 29L36 28ZM0 29L0 33L1 33L1 30L2 30L2 29ZM10 29L10 30L7 30L7 31L6 31L6 32L8 32L8 33L9 33L9 31L10 31L10 30L11 30L11 29ZM34 30L34 31L35 31L35 30ZM24 31L24 32L25 32L25 31ZM28 31L28 32L30 32L30 33L31 33L31 32L30 32L30 31ZM13 32L13 33L14 33L14 32ZM15 32L15 33L16 33L16 32ZM33 33L33 36L36 36L36 33ZM30 34L30 35L31 35L31 36L29 36L29 35L28 35L28 36L29 36L29 37L27 37L27 38L29 38L29 37L31 37L31 38L32 38L32 35L31 35L31 34ZM34 34L34 35L35 35L35 34ZM20 36L20 37L19 37L19 38L21 38L21 36ZM14 37L14 39L15 39L15 40L16 40L16 39L17 39L17 38L16 38L16 39L15 39L15 37ZM34 37L34 38L36 38L36 37ZM37 38L37 39L38 39L38 38ZM11 39L11 40L12 40L12 39ZM0 0L0 7L7 7L7 0ZM1 1L1 6L6 6L6 1ZM2 2L2 5L5 5L5 2ZM34 0L34 7L41 7L41 0ZM35 1L35 6L40 6L40 1ZM36 2L36 5L39 5L39 2ZM0 34L0 41L7 41L7 34ZM1 35L1 40L6 40L6 35ZM2 36L2 39L5 39L5 36Z" fill="#000000"/></g></g></svg>
