<?xml version="1.0" encoding="UTF-8"?>
<svg xmlns="http://www.w3.org/2000/svg" version="1.1" width="200" height="200" viewBox="0 0 200 200"><rect x="0" y="0" width="200" height="200" fill="#ffffff"/><g transform="scale(6.897)"><g transform="translate(0,0)"><path fill-rule="evenodd" d="M8 0L8 1L9 1L9 3L8 3L8 4L9 4L9 5L10 5L10 4L11 4L11 5L13 5L13 6L12 6L12 7L11 7L11 6L10 6L10 7L9 7L9 6L8 6L8 7L9 7L9 8L8 8L8 9L9 9L9 10L6 10L6 9L7 9L7 8L4 8L4 9L5 9L5 10L0 10L0 11L1 11L1 12L2 12L2 13L1 13L1 15L0 15L0 16L1 16L1 17L2 17L2 18L3 18L3 19L5 19L5 20L4 20L4 21L7 21L7 20L6 20L6 19L8 19L8 18L9 18L9 19L11 19L11 20L12 20L12 19L13 19L13 21L12 21L12 22L10 22L10 24L11 24L11 25L13 25L13 26L10 26L10 25L9 25L9 23L8 23L8 25L9 25L9 26L8 26L8 27L9 27L9 28L10 28L10 29L11 29L11 28L12 28L12 27L13 27L13 29L14 29L14 27L13 27L13 26L15 26L15 24L16 24L16 25L17 25L17 23L18 23L18 24L20 24L20 26L19 26L19 28L18 28L18 26L17 26L17 27L16 27L16 28L15 28L15 29L16 29L16 28L17 28L17 29L20 29L20 27L21 27L21 26L22 26L22 25L23 25L23 26L24 26L24 25L25 25L25 27L26 27L26 28L23 28L23 27L22 27L22 28L23 28L23 29L26 29L26 28L28 28L28 29L29 29L29 26L28 26L28 25L29 25L29 24L28 24L28 23L27 23L27 24L26 24L26 23L25 23L25 20L24 20L24 19L25 19L25 18L24 18L24 17L26 17L26 18L27 18L27 20L26 20L26 21L28 21L28 22L29 22L29 21L28 21L28 19L29 19L29 18L27 18L27 17L26 17L26 14L24 14L24 13L25 13L25 11L26 11L26 13L27 13L27 16L28 16L28 17L29 17L29 16L28 16L28 15L29 15L29 12L28 12L28 11L29 11L29 8L28 8L28 9L27 9L27 10L28 10L28 11L26 11L26 8L25 8L25 9L24 9L24 10L25 10L25 11L24 11L24 12L23 12L23 10L22 10L22 8L19 8L19 11L20 11L20 12L18 12L18 10L17 10L17 11L16 11L16 10L15 10L15 9L16 9L16 7L17 7L17 5L18 5L18 7L19 7L19 5L20 5L20 7L21 7L21 0L20 0L20 1L19 1L19 2L20 2L20 3L19 3L19 5L18 5L18 3L17 3L17 2L18 2L18 1L17 1L17 0L12 0L12 1L11 1L11 2L10 2L10 1L9 1L9 0ZM12 1L12 2L13 2L13 5L14 5L14 6L13 6L13 7L12 7L12 8L10 8L10 10L9 10L9 12L7 12L7 11L6 11L6 10L5 10L5 11L4 11L4 12L3 12L3 13L2 13L2 14L3 14L3 15L2 15L2 17L3 17L3 18L4 18L4 17L3 17L3 16L4 16L4 12L7 12L7 13L6 13L6 14L5 14L5 15L6 15L6 16L5 16L5 19L6 19L6 18L8 18L8 17L9 17L9 15L10 15L10 13L11 13L11 16L10 16L10 17L11 17L11 18L13 18L13 19L14 19L14 20L15 20L15 18L16 18L16 17L18 17L18 16L16 16L16 17L15 17L15 15L18 15L18 14L19 14L19 15L20 15L20 16L19 16L19 17L20 17L20 18L18 18L18 19L20 19L20 20L18 20L18 23L20 23L20 22L19 22L19 21L20 21L20 20L21 20L21 19L22 19L22 18L23 18L23 19L24 19L24 18L23 18L23 17L24 17L24 16L25 16L25 15L24 15L24 14L23 14L23 15L22 15L22 14L21 14L21 13L20 13L20 14L19 14L19 13L17 13L17 14L15 14L15 13L16 13L16 11L15 11L15 13L13 13L13 14L12 14L12 12L13 12L13 11L14 11L14 10L12 10L12 9L15 9L15 7L16 7L16 5L17 5L17 4L16 4L16 2L17 2L17 1L14 1L14 2L13 2L13 1ZM14 2L14 5L15 5L15 2ZM11 3L11 4L12 4L12 3ZM14 6L14 7L15 7L15 6ZM2 8L2 9L3 9L3 8ZM11 10L11 11L12 11L12 10ZM21 11L21 12L22 12L22 11ZM9 12L9 13L10 13L10 12ZM27 12L27 13L28 13L28 12ZM6 14L6 15L8 15L8 14ZM13 14L13 15L12 15L12 16L11 16L11 17L13 17L13 18L14 18L14 17L13 17L13 16L14 16L14 14ZM20 14L20 15L21 15L21 14ZM23 15L23 16L22 16L22 17L23 17L23 16L24 16L24 15ZM6 16L6 17L8 17L8 16ZM0 18L0 19L1 19L1 20L0 20L0 21L1 21L1 20L2 20L2 21L3 21L3 20L2 20L2 19L1 19L1 18ZM16 19L16 21L15 21L15 22L16 22L16 23L17 23L17 22L16 22L16 21L17 21L17 19ZM8 20L8 22L9 22L9 21L10 21L10 20ZM21 21L21 24L24 24L24 21ZM12 22L12 23L13 23L13 25L14 25L14 24L15 24L15 23L14 23L14 22ZM22 22L22 23L23 23L23 22ZM27 24L27 25L28 25L28 24ZM27 26L27 27L28 27L28 26ZM0 0L0 7L7 7L7 0ZM1 1L1 6L6 6L6 1ZM2 2L2 5L5 5L5 2ZM22 0L22 7L29 7L29 0ZM23 1L23 6L28 6L28 1ZM24 2L24 5L27 5L27 2ZM0 22L0 29L7 29L7 22ZM1 23L1 28L6 28L6 23ZM2 24L2 27L5 27L5 24Z" fill="#000000"/></g></g></svg>
