<?xml version="1.0" encoding="UTF-8"?>
<svg xmlns="http://www.w3.org/2000/svg" version="1.1" width="200" height="200" viewBox="0 0 200 200"><rect x="0" y="0" width="200" height="200" fill="#ffffff"/><g transform="scale(4.878)"><g transform="translate(0,0)"><path fill-rule="evenodd" d="M8 0L8 3L9 3L9 4L10 4L10 5L11 5L11 2L13 2L13 3L12 3L12 7L11 7L11 6L10 6L10 7L9 7L9 5L8 5L8 11L7 11L7 10L6 10L6 9L7 9L7 8L6 8L6 9L5 9L5 8L2 8L2 9L5 9L5 10L4 10L4 11L3 11L3 13L4 13L4 16L3 16L3 14L2 14L2 10L1 10L1 12L0 12L0 20L1 20L1 18L2 18L2 20L3 20L3 18L5 18L5 19L4 19L4 20L5 20L5 21L7 21L7 20L5 20L5 19L7 19L7 18L5 18L5 16L6 16L6 17L7 17L7 16L6 16L6 15L7 15L7 14L5 14L5 13L7 13L7 12L8 12L8 16L9 16L9 17L12 17L12 18L11 18L11 19L12 19L12 20L15 20L15 21L14 21L14 22L16 22L16 20L17 20L17 23L14 23L14 24L15 24L15 25L13 25L13 24L12 24L12 21L11 21L11 22L9 22L9 24L10 24L10 25L11 25L11 26L13 26L13 28L11 28L11 27L10 27L10 26L9 26L9 27L10 27L10 28L11 28L11 29L9 29L9 30L10 30L10 31L8 31L8 30L5 30L5 28L6 28L6 29L8 29L8 28L6 28L6 27L8 27L8 26L6 26L6 25L7 25L7 24L6 24L6 23L7 23L7 22L6 22L6 23L5 23L5 25L3 25L3 21L2 21L2 22L1 22L1 21L0 21L0 23L2 23L2 24L1 24L1 25L0 25L0 26L6 26L6 27L5 27L5 28L4 28L4 27L3 27L3 28L2 28L2 29L1 29L1 27L0 27L0 33L1 33L1 30L3 30L3 32L2 32L2 33L5 33L5 32L4 32L4 31L8 31L8 32L9 32L9 33L8 33L8 34L9 34L9 36L8 36L8 39L9 39L9 38L11 38L11 40L10 40L10 41L11 41L11 40L12 40L12 39L13 39L13 41L15 41L15 39L14 39L14 38L15 38L15 37L16 37L16 38L19 38L19 35L20 35L20 37L21 37L21 35L20 35L20 33L19 33L19 32L21 32L21 31L22 31L22 33L24 33L24 34L25 34L25 35L23 35L23 34L22 34L22 36L25 36L25 37L24 37L24 38L25 38L25 37L26 37L26 38L27 38L27 39L25 39L25 40L24 40L24 39L23 39L23 37L22 37L22 38L20 38L20 39L18 39L18 40L22 40L22 41L26 41L26 40L27 40L27 41L28 41L28 39L29 39L29 38L27 38L27 37L29 37L29 34L27 34L27 30L30 30L30 31L31 31L31 29L30 29L30 28L29 28L29 29L28 29L28 28L27 28L27 27L28 27L28 26L32 26L32 27L31 27L31 28L32 28L32 29L33 29L33 30L32 30L32 31L33 31L33 30L34 30L34 31L35 31L35 32L32 32L32 33L30 33L30 32L29 32L29 31L28 31L28 33L30 33L30 35L32 35L32 38L33 38L33 39L30 39L30 40L29 40L29 41L30 41L30 40L33 40L33 41L34 41L34 40L33 40L33 39L35 39L35 40L36 40L36 39L37 39L37 38L38 38L38 39L39 39L39 40L40 40L40 38L41 38L41 37L40 37L40 36L37 36L37 34L38 34L38 35L40 35L40 34L41 34L41 33L40 33L40 32L41 32L41 31L40 31L40 30L41 30L41 29L40 29L40 28L39 28L39 32L37 32L37 29L36 29L36 28L38 28L38 26L39 26L39 27L40 27L40 26L41 26L41 23L40 23L40 26L39 26L39 24L37 24L37 25L34 25L34 24L33 24L33 23L34 23L34 22L36 22L36 21L39 21L39 20L36 20L36 19L35 19L35 17L36 17L36 18L37 18L37 19L38 19L38 17L39 17L39 18L41 18L41 16L40 16L40 17L39 17L39 16L37 16L37 15L40 15L40 14L41 14L41 12L40 12L40 10L41 10L41 8L38 8L38 9L40 9L40 10L37 10L37 9L36 9L36 8L31 8L31 9L30 9L30 8L29 8L29 9L28 9L28 7L29 7L29 5L27 5L27 6L26 6L26 7L25 7L25 5L24 5L24 3L26 3L26 4L27 4L27 3L28 3L28 4L29 4L29 1L27 1L27 0L25 0L25 2L24 2L24 3L23 3L23 5L22 5L22 3L21 3L21 4L20 4L20 2L19 2L19 4L18 4L18 3L17 3L17 2L18 2L18 1L16 1L16 3L15 3L15 4L14 4L14 2L13 2L13 1L11 1L11 0ZM19 0L19 1L20 1L20 0ZM31 0L31 1L30 1L30 2L31 2L31 1L32 1L32 4L31 4L31 3L30 3L30 4L31 4L31 5L32 5L32 4L33 4L33 1L32 1L32 0ZM22 1L22 2L23 2L23 1ZM9 2L9 3L10 3L10 2ZM26 2L26 3L27 3L27 2ZM13 4L13 5L14 5L14 6L13 6L13 7L12 7L12 8L11 8L11 7L10 7L10 8L9 8L9 9L10 9L10 10L13 10L13 13L12 13L12 12L11 12L11 15L10 15L10 16L11 16L11 15L12 15L12 17L13 17L13 16L14 16L14 17L16 17L16 18L13 18L13 19L15 19L15 20L16 20L16 19L18 19L18 23L17 23L17 24L16 24L16 25L17 25L17 26L16 26L16 27L14 27L14 28L13 28L13 29L12 29L12 30L11 30L11 32L12 32L12 30L13 30L13 31L14 31L14 32L13 32L13 33L14 33L14 35L12 35L12 33L10 33L10 35L11 35L11 36L9 36L9 37L11 37L11 36L12 36L12 37L13 37L13 36L14 36L14 37L15 37L15 36L16 36L16 37L17 37L17 36L16 36L16 34L18 34L18 35L19 35L19 34L18 34L18 31L19 31L19 30L18 30L18 31L15 31L15 30L16 30L16 29L17 29L17 27L20 27L20 28L22 28L22 29L21 29L21 30L24 30L24 31L25 31L25 32L24 32L24 33L25 33L25 34L26 34L26 35L25 35L25 36L26 36L26 35L27 35L27 34L26 34L26 31L25 31L25 30L24 30L24 28L26 28L26 30L27 30L27 28L26 28L26 26L28 26L28 25L29 25L29 24L30 24L30 25L32 25L32 26L33 26L33 27L32 27L32 28L33 28L33 29L34 29L34 30L36 30L36 29L34 29L34 28L33 28L33 27L34 27L34 25L32 25L32 22L34 22L34 21L36 21L36 20L35 20L35 19L34 19L34 18L33 18L33 19L32 19L32 18L31 18L31 17L30 17L30 19L32 19L32 20L28 20L28 21L27 21L27 22L25 22L25 21L24 21L24 20L25 20L25 19L26 19L26 20L27 20L27 19L26 19L26 18L28 18L28 19L29 19L29 16L30 16L30 13L28 13L28 14L29 14L29 15L28 15L28 17L27 17L27 15L26 15L26 14L24 14L24 13L27 13L27 12L28 12L28 11L29 11L29 12L31 12L31 14L32 14L32 15L33 15L33 16L32 16L32 17L33 17L33 16L34 16L34 17L35 17L35 16L36 16L36 17L37 17L37 16L36 16L36 15L37 15L37 14L40 14L40 13L39 13L39 11L38 11L38 12L35 12L35 11L36 11L36 9L35 9L35 10L34 10L34 9L32 9L32 10L31 10L31 11L29 11L29 10L30 10L30 9L29 9L29 10L28 10L28 9L26 9L26 8L27 8L27 7L28 7L28 6L27 6L27 7L26 7L26 8L25 8L25 9L24 9L24 11L23 11L23 12L24 12L24 13L23 13L23 14L22 14L22 13L21 13L21 12L22 12L22 11L20 11L20 10L21 10L21 9L22 9L22 10L23 10L23 8L22 8L22 6L21 6L21 7L20 7L20 6L19 6L19 5L17 5L17 7L18 7L18 8L19 8L19 9L20 9L20 10L19 10L19 14L20 14L20 15L19 15L19 17L18 17L18 18L17 18L17 17L16 17L16 14L17 14L17 11L16 11L16 12L14 12L14 9L15 9L15 10L16 10L16 9L15 9L15 8L16 8L16 4L15 4L15 5L14 5L14 4ZM14 6L14 7L13 7L13 8L12 8L12 9L14 9L14 8L15 8L15 6ZM18 6L18 7L19 7L19 6ZM23 6L23 7L24 7L24 6ZM30 6L30 7L31 7L31 6ZM32 6L32 7L33 7L33 6ZM10 8L10 9L11 9L11 8ZM5 10L5 12L7 12L7 11L6 11L6 10ZM27 10L27 11L26 11L26 12L27 12L27 11L28 11L28 10ZM32 10L32 11L34 11L34 10ZM8 11L8 12L9 12L9 11ZM33 12L33 13L32 13L32 14L33 14L33 15L34 15L34 14L33 14L33 13L34 13L34 12ZM9 13L9 14L10 14L10 13ZM13 13L13 14L14 14L14 16L15 16L15 14L16 14L16 13L15 13L15 14L14 14L14 13ZM20 13L20 14L21 14L21 13ZM36 13L36 14L35 14L35 15L36 15L36 14L37 14L37 13ZM1 14L1 16L2 16L2 14ZM17 15L17 16L18 16L18 15ZM20 15L20 16L22 16L22 17L21 17L21 18L22 18L22 17L23 17L23 18L24 18L24 17L25 17L25 18L26 18L26 17L25 17L25 16L26 16L26 15L25 15L25 16L24 16L24 15L23 15L23 16L22 16L22 15ZM23 16L23 17L24 17L24 16ZM2 17L2 18L3 18L3 17ZM18 18L18 19L19 19L19 20L20 20L20 21L21 21L21 22L20 22L20 23L21 23L21 22L22 22L22 23L23 23L23 26L22 26L22 27L23 27L23 28L24 28L24 26L25 26L25 25L27 25L27 24L28 24L28 22L29 22L29 21L28 21L28 22L27 22L27 23L25 23L25 24L24 24L24 23L23 23L23 22L24 22L24 21L23 21L23 19L20 19L20 18ZM8 19L8 21L9 21L9 19ZM21 20L21 21L22 21L22 20ZM32 20L32 21L30 21L30 23L31 23L31 22L32 22L32 21L34 21L34 20ZM40 20L40 21L41 21L41 20ZM37 22L37 23L39 23L39 22ZM35 23L35 24L36 24L36 23ZM11 24L11 25L12 25L12 24ZM18 24L18 25L19 25L19 26L20 26L20 27L21 27L21 24L20 24L20 25L19 25L19 24ZM35 27L35 28L36 28L36 27ZM14 28L14 30L15 30L15 28ZM3 29L3 30L4 30L4 29ZM6 32L6 33L7 33L7 32ZM14 32L14 33L15 33L15 32ZM33 33L33 36L36 36L36 33ZM38 33L38 34L39 34L39 33ZM34 34L34 35L35 35L35 34ZM30 36L30 37L31 37L31 36ZM33 37L33 38L36 38L36 37ZM38 37L38 38L39 38L39 37ZM16 39L16 41L17 41L17 39ZM0 0L0 7L7 7L7 0ZM1 1L1 6L6 6L6 1ZM2 2L2 5L5 5L5 2ZM34 0L34 7L41 7L41 0ZM35 1L35 6L40 6L40 1ZM36 2L36 5L39 5L39 2ZM0 34L0 41L7 41L7 34ZM1 35L1 40L6 40L6 35ZM2 36L2 39L5 39L5 36Z" fill="#000000"/></g></g></svg>
