<?xml version="1.0" encoding="UTF-8"?>
<svg xmlns="http://www.w3.org/2000/svg" version="1.1" width="200" height="200" viewBox="0 0 200 200"><rect x="0" y="0" width="200" height="200" fill="#ffffff"/><g transform="scale(6.897)"><g transform="translate(0,0)"><path fill-rule="evenodd" d="M9 0L9 1L8 1L8 7L9 7L9 5L10 5L10 8L5 8L5 10L4 10L4 9L3 9L3 8L2 8L2 9L1 9L1 10L0 10L0 11L1 11L1 10L2 10L2 11L3 11L3 10L4 10L4 11L5 11L5 12L1 12L1 13L3 13L3 14L2 14L2 15L3 15L3 16L4 16L4 17L2 17L2 16L1 16L1 17L2 17L2 18L0 18L0 19L2 19L2 20L0 20L0 21L2 21L2 20L3 20L3 21L5 21L5 20L4 20L4 19L7 19L7 20L6 20L6 21L7 21L7 20L8 20L8 24L9 24L9 25L10 25L10 28L9 28L9 29L11 29L11 28L13 28L13 27L14 27L14 26L13 26L13 27L11 27L11 24L9 24L9 22L10 22L10 21L9 21L9 20L10 20L10 19L11 19L11 18L12 18L12 19L14 19L14 18L12 18L12 17L10 17L10 14L11 14L11 16L13 16L13 17L15 17L15 16L14 16L14 13L15 13L15 11L16 11L16 10L18 10L18 7L19 7L19 8L20 8L20 11L19 11L19 12L18 12L18 13L17 13L17 12L16 12L16 14L15 14L15 15L16 15L16 17L17 17L17 15L21 15L21 19L22 19L22 20L19 20L19 19L20 19L20 18L19 18L19 17L20 17L20 16L19 16L19 17L18 17L18 18L19 18L19 19L18 19L18 20L19 20L19 21L20 21L20 22L18 22L18 23L20 23L20 24L19 24L19 26L20 26L20 27L21 27L21 29L22 29L22 28L24 28L24 29L25 29L25 28L26 28L26 27L28 27L28 28L27 28L27 29L29 29L29 26L27 26L27 25L29 25L29 23L28 23L28 22L27 22L27 24L26 24L26 26L25 26L25 28L24 28L24 26L23 26L23 27L22 27L22 26L21 26L21 25L25 25L25 23L26 23L26 21L27 21L27 20L25 20L25 18L28 18L28 19L29 19L29 18L28 18L28 17L29 17L29 16L28 16L28 15L27 15L27 17L25 17L25 16L22 16L22 15L25 15L25 14L26 14L26 13L29 13L29 12L27 12L27 11L29 11L29 9L28 9L28 8L23 8L23 10L22 10L22 11L21 11L21 9L22 9L22 8L20 8L20 7L21 7L21 0L19 0L19 1L20 1L20 2L19 2L19 3L20 3L20 5L16 5L16 4L17 4L17 3L18 3L18 2L12 2L12 1L13 1L13 0L12 0L12 1L11 1L11 0ZM15 0L15 1L16 1L16 0ZM17 0L17 1L18 1L18 0ZM9 1L9 4L10 4L10 5L12 5L12 6L11 6L11 8L12 8L12 10L10 10L10 9L8 9L8 10L7 10L7 9L6 9L6 10L7 10L7 11L6 11L6 12L5 12L5 14L4 14L4 15L5 15L5 14L7 14L7 15L6 15L6 16L5 16L5 17L6 17L6 18L7 18L7 19L10 19L10 17L9 17L9 14L10 14L10 13L12 13L12 11L13 11L13 13L14 13L14 11L13 11L13 10L15 10L15 9L16 9L16 8L17 8L17 7L18 7L18 6L17 6L17 7L16 7L16 6L15 6L15 7L14 7L14 4L13 4L13 5L12 5L12 4L10 4L10 2L11 2L11 3L12 3L12 2L11 2L11 1ZM12 6L12 7L13 7L13 9L15 9L15 8L14 8L14 7L13 7L13 6ZM19 6L19 7L20 7L20 6ZM2 9L2 10L3 10L3 9ZM25 9L25 10L24 10L24 11L27 11L27 10L28 10L28 9ZM9 10L9 12L10 12L10 10ZM7 11L7 12L6 12L6 13L7 13L7 14L8 14L8 11ZM19 12L19 13L18 13L18 14L22 14L22 12L21 12L21 13L20 13L20 12ZM23 12L23 14L25 14L25 13L24 13L24 12ZM0 14L0 15L1 15L1 14ZM12 14L12 15L13 15L13 14ZM16 14L16 15L17 15L17 14ZM7 15L7 16L6 16L6 17L7 17L7 16L8 16L8 15ZM8 17L8 18L9 18L9 17ZM22 17L22 18L25 18L25 17ZM15 18L15 20L14 20L14 23L12 23L12 25L13 25L13 24L14 24L14 23L15 23L15 22L17 22L17 21L16 21L16 20L17 20L17 19L16 19L16 18ZM23 19L23 20L24 20L24 19ZM11 20L11 22L13 22L13 21L12 21L12 20ZM21 21L21 24L24 24L24 21ZM22 22L22 23L23 23L23 22ZM16 23L16 24L15 24L15 25L16 25L16 26L15 26L15 28L16 28L16 27L17 27L17 26L18 26L18 24L17 24L17 23ZM8 26L8 27L9 27L9 26ZM18 28L18 29L19 29L19 28ZM0 0L0 7L7 7L7 0ZM1 1L1 6L6 6L6 1ZM2 2L2 5L5 5L5 2ZM22 0L22 7L29 7L29 0ZM23 1L23 6L28 6L28 1ZM24 2L24 5L27 5L27 2ZM0 22L0 29L7 29L7 22ZM1 23L1 28L6 28L6 23ZM2 24L2 27L5 27L5 24Z" fill="#000000"/></g></g></svg>
