<?xml version="1.0" encoding="UTF-8"?>
<svg xmlns="http://www.w3.org/2000/svg" version="1.1" width="200" height="200" viewBox="0 0 200 200"><rect x="0" y="0" width="200" height="200" fill="#ffffff"/><g transform="scale(6.897)"><g transform="translate(0,0)"><path fill-rule="evenodd" d="M9 0L9 3L10 3L10 4L11 4L11 6L10 6L10 5L9 5L9 4L8 4L8 5L9 5L9 6L8 6L8 8L6 8L6 9L5 9L5 10L3 10L3 11L1 11L1 9L0 9L0 11L1 11L1 13L2 13L2 15L1 15L1 14L0 14L0 16L2 16L2 18L3 18L3 19L2 19L2 20L1 20L1 21L4 21L4 20L5 20L5 21L7 21L7 20L8 20L8 19L9 19L9 20L10 20L10 19L9 19L9 18L8 18L8 17L9 17L9 16L8 16L8 15L11 15L11 16L10 16L10 18L12 18L12 17L14 17L14 18L13 18L13 19L11 19L11 20L13 20L13 19L14 19L14 20L15 20L15 19L16 19L16 21L12 21L12 22L11 22L11 21L8 21L8 23L9 23L9 22L10 22L10 26L9 26L9 25L8 25L8 27L10 27L10 28L9 28L9 29L10 29L10 28L11 28L11 27L10 27L10 26L12 26L12 25L11 25L11 24L12 24L12 22L14 22L14 24L13 24L13 25L14 25L14 26L13 26L13 27L12 27L12 28L14 28L14 29L17 29L17 28L18 28L18 27L17 27L17 24L16 24L16 27L15 27L15 23L17 23L17 22L18 22L18 21L17 21L17 20L19 20L19 21L20 21L20 22L19 22L19 23L18 23L18 24L19 24L19 25L20 25L20 27L21 27L21 25L23 25L23 26L24 26L24 27L22 27L22 29L23 29L23 28L25 28L25 29L26 29L26 28L25 28L25 27L26 27L26 26L27 26L27 25L26 25L26 23L25 23L25 22L26 22L26 19L27 19L27 18L29 18L29 17L26 17L26 16L25 16L25 15L24 15L24 16L23 16L23 17L21 17L21 18L20 18L20 17L18 17L18 18L20 18L20 20L19 20L19 19L16 19L16 18L15 18L15 17L14 17L14 14L10 14L10 13L11 13L11 12L12 12L12 13L13 13L13 12L14 12L14 13L15 13L15 15L16 15L16 13L15 13L15 11L16 11L16 12L17 12L17 11L16 11L16 10L17 10L17 9L11 9L11 11L10 11L10 9L9 9L9 8L11 8L11 6L12 6L12 8L17 8L17 6L18 6L18 7L19 7L19 8L18 8L18 11L20 11L20 12L19 12L19 13L20 13L20 14L19 14L19 15L20 15L20 14L21 14L21 13L20 13L20 12L22 12L22 9L23 9L23 13L22 13L22 15L23 15L23 14L24 14L24 13L25 13L25 14L26 14L26 15L27 15L27 16L28 16L28 15L27 15L27 14L29 14L29 13L28 13L28 12L29 12L29 11L28 11L28 12L27 12L27 10L29 10L29 9L27 9L27 10L26 10L26 9L25 9L25 8L24 8L24 9L23 9L23 8L21 8L21 3L20 3L20 2L18 2L18 1L12 1L12 0ZM11 1L11 2L12 2L12 3L11 3L11 4L13 4L13 5L12 5L12 6L13 6L13 7L14 7L14 6L15 6L15 7L16 7L16 6L15 6L15 5L14 5L14 3L15 3L15 4L16 4L16 5L19 5L19 7L20 7L20 5L19 5L19 4L20 4L20 3L19 3L19 4L18 4L18 2L17 2L17 4L16 4L16 3L15 3L15 2L12 2L12 1ZM13 5L13 6L14 6L14 5ZM9 6L9 7L10 7L10 6ZM2 8L2 9L4 9L4 8ZM19 8L19 10L20 10L20 9L21 9L21 8ZM6 9L6 10L5 10L5 13L6 13L6 14L4 14L4 12L3 12L3 15L2 15L2 16L3 16L3 15L4 15L4 16L5 16L5 18L4 18L4 17L3 17L3 18L4 18L4 19L5 19L5 18L7 18L7 17L8 17L8 16L7 16L7 15L8 15L8 14L9 14L9 13L10 13L10 12L9 12L9 10L8 10L8 9ZM24 9L24 10L25 10L25 9ZM6 10L6 11L7 11L7 10ZM14 10L14 11L15 11L15 10ZM25 11L25 13L27 13L27 12L26 12L26 11ZM6 12L6 13L7 13L7 14L6 14L6 15L5 15L5 16L6 16L6 17L7 17L7 16L6 16L6 15L7 15L7 14L8 14L8 12ZM17 15L17 16L18 16L18 15ZM11 16L11 17L12 17L12 16ZM24 16L24 17L23 17L23 18L22 18L22 19L21 19L21 20L22 20L22 19L24 19L24 20L25 20L25 19L26 19L26 17L25 17L25 16ZM0 18L0 19L1 19L1 18ZM24 18L24 19L25 19L25 18ZM6 19L6 20L7 20L7 19ZM27 20L27 21L28 21L28 22L27 22L27 24L29 24L29 23L28 23L28 22L29 22L29 21L28 21L28 20ZM16 21L16 22L17 22L17 21ZM21 21L21 24L24 24L24 21ZM22 22L22 23L23 23L23 22ZM24 25L24 26L26 26L26 25ZM28 26L28 27L27 27L27 28L29 28L29 26ZM16 27L16 28L17 28L17 27ZM19 28L19 29L20 29L20 28ZM0 0L0 7L7 7L7 0ZM1 1L1 6L6 6L6 1ZM2 2L2 5L5 5L5 2ZM22 0L22 7L29 7L29 0ZM23 1L23 6L28 6L28 1ZM24 2L24 5L27 5L27 2ZM0 22L0 29L7 29L7 22ZM1 23L1 28L6 28L6 23ZM2 24L2 27L5 27L5 24Z" fill="#000000"/></g></g></svg>
