<?xml version="1.0" encoding="UTF-8"?>
<svg xmlns="http://www.w3.org/2000/svg" version="1.1" width="200" height="200" viewBox="0 0 200 200"><rect x="0" y="0" width="200" height="200" fill="#ffffff"/><g transform="scale(4.878)"><g transform="translate(0,0)"><path fill-rule="evenodd" d="M8 0L8 3L11 3L11 1L10 1L10 2L9 2L9 0ZM12 0L12 1L16 1L16 0ZM17 0L17 2L16 2L16 3L15 3L15 2L13 2L13 3L12 3L12 4L9 4L9 5L8 5L8 13L7 13L7 12L4 12L4 13L5 13L5 14L6 14L6 15L8 15L8 14L9 14L9 16L8 16L8 18L9 18L9 16L10 16L10 15L11 15L11 13L12 13L12 12L13 12L13 11L14 11L14 12L15 12L15 11L16 11L16 12L18 12L18 15L16 15L16 14L15 14L15 13L13 13L13 14L12 14L12 16L13 16L13 14L14 14L14 15L15 15L15 17L14 17L14 19L15 19L15 18L16 18L16 19L17 19L17 20L16 20L16 21L15 21L15 20L14 20L14 22L15 22L15 23L13 23L13 21L11 21L11 20L13 20L13 18L12 18L12 19L11 19L11 20L10 20L10 19L9 19L9 20L10 20L10 21L9 21L9 22L6 22L6 23L7 23L7 24L6 24L6 25L7 25L7 24L8 24L8 25L9 25L9 24L8 24L8 23L11 23L11 22L12 22L12 24L10 24L10 25L12 25L12 24L14 24L14 25L15 25L15 27L14 27L14 26L13 26L13 27L12 27L12 26L11 26L11 27L10 27L10 26L5 26L5 23L4 23L4 22L3 22L3 21L4 21L4 18L5 18L5 19L7 19L7 18L6 18L6 17L7 17L7 16L5 16L5 17L4 17L4 15L1 15L1 14L0 14L0 16L1 16L1 18L0 18L0 19L1 19L1 21L2 21L2 22L0 22L0 23L2 23L2 22L3 22L3 24L2 24L2 25L3 25L3 26L4 26L4 27L0 27L0 28L1 28L1 29L0 29L0 33L1 33L1 29L2 29L2 28L3 28L3 30L2 30L2 31L4 31L4 32L3 32L3 33L4 33L4 32L5 32L5 33L7 33L7 32L8 32L8 31L7 31L7 30L6 30L6 29L7 29L7 28L6 28L6 27L9 27L9 28L8 28L8 30L9 30L9 32L10 32L10 29L11 29L11 30L12 30L12 31L13 31L13 30L12 30L12 29L14 29L14 30L15 30L15 31L14 31L14 32L12 32L12 33L8 33L8 34L12 34L12 33L15 33L15 34L14 34L14 35L9 35L9 36L8 36L8 39L9 39L9 36L10 36L10 37L11 37L11 36L12 36L12 39L11 39L11 38L10 38L10 41L12 41L12 39L13 39L13 37L15 37L15 36L17 36L17 35L18 35L18 36L20 36L20 37L21 37L21 38L20 38L20 39L21 39L21 40L22 40L22 41L32 41L32 40L33 40L33 41L34 41L34 40L33 40L33 39L35 39L35 40L36 40L36 39L37 39L37 40L40 40L40 38L41 38L41 36L40 36L40 34L41 34L41 33L40 33L40 32L41 32L41 31L40 31L40 30L41 30L41 29L39 29L39 32L37 32L37 31L36 31L36 30L37 30L37 29L36 29L36 28L38 28L38 26L39 26L39 27L40 27L40 26L41 26L41 23L39 23L39 22L38 22L38 21L39 21L39 20L36 20L36 19L35 19L35 17L36 17L36 18L37 18L37 19L38 19L38 18L39 18L39 19L40 19L40 18L41 18L41 16L40 16L40 18L39 18L39 16L37 16L37 15L38 15L38 13L36 13L36 14L37 14L37 15L36 15L36 16L35 16L35 17L34 17L34 16L32 16L32 17L31 17L31 15L30 15L30 16L29 16L29 15L28 15L28 16L29 16L29 17L31 17L31 18L30 18L30 19L31 19L31 18L32 18L32 17L33 17L33 18L34 18L34 19L35 19L35 21L34 21L34 20L33 20L33 21L32 21L32 20L30 20L30 21L31 21L31 22L29 22L29 21L28 21L28 20L27 20L27 19L28 19L28 18L27 18L27 16L26 16L26 18L21 18L21 16L18 16L18 15L19 15L19 13L20 13L20 12L21 12L21 10L24 10L24 11L22 11L22 13L23 13L23 14L22 14L22 16L23 16L23 14L25 14L25 15L27 15L27 14L29 14L29 13L30 13L30 14L31 14L31 11L30 11L30 10L29 10L29 11L30 11L30 12L29 12L29 13L28 13L28 10L27 10L27 9L31 9L31 10L34 10L34 11L32 11L32 13L33 13L33 14L32 14L32 15L34 15L34 13L35 13L35 11L36 11L36 12L38 12L38 11L40 11L40 10L41 10L41 8L38 8L38 9L40 9L40 10L37 10L37 9L36 9L36 8L33 8L33 6L32 6L32 8L33 8L33 9L31 9L31 8L27 8L27 9L26 9L26 7L27 7L27 6L28 6L28 7L29 7L29 6L30 6L30 7L31 7L31 5L32 5L32 4L33 4L33 3L32 3L32 4L30 4L30 5L27 5L27 4L26 4L26 7L25 7L25 5L23 5L23 4L24 4L24 3L23 3L23 0L20 0L20 1L19 1L19 0ZM24 0L24 2L25 2L25 0ZM26 0L26 1L27 1L27 2L26 2L26 3L28 3L28 4L29 4L29 3L31 3L31 2L30 2L30 0L29 0L29 1L27 1L27 0ZM31 0L31 1L32 1L32 0ZM18 1L18 2L17 2L17 3L16 3L16 4L15 4L15 8L14 8L14 9L13 9L13 10L15 10L15 8L20 8L20 6L19 6L19 3L18 3L18 2L19 2L19 1ZM20 1L20 3L21 3L21 4L20 4L20 5L21 5L21 9L22 9L22 5L21 5L21 4L23 4L23 3L22 3L22 1ZM12 4L12 6L11 6L11 7L10 7L10 5L9 5L9 7L10 7L10 8L11 8L11 9L12 9L12 8L13 8L13 7L14 7L14 6L13 6L13 5L14 5L14 4ZM16 4L16 5L17 5L17 6L16 6L16 7L17 7L17 6L18 6L18 7L19 7L19 6L18 6L18 5L17 5L17 4ZM12 6L12 7L13 7L13 6ZM23 6L23 7L24 7L24 8L23 8L23 9L25 9L25 7L24 7L24 6ZM2 8L2 10L1 10L1 9L0 9L0 11L1 11L1 12L0 12L0 13L2 13L2 11L3 11L3 9L5 9L5 10L6 10L6 11L7 11L7 10L6 10L6 9L7 9L7 8L6 8L6 9L5 9L5 8ZM9 9L9 10L10 10L10 9ZM17 9L17 10L16 10L16 11L18 11L18 12L20 12L20 11L19 11L19 10L20 10L20 9L19 9L19 10L18 10L18 9ZM25 10L25 12L26 12L26 13L25 13L25 14L26 14L26 13L27 13L27 12L26 12L26 10ZM9 11L9 12L10 12L10 11ZM11 11L11 12L12 12L12 11ZM23 12L23 13L24 13L24 12ZM33 12L33 13L34 13L34 12ZM39 12L39 13L40 13L40 14L39 14L39 15L40 15L40 14L41 14L41 12ZM6 13L6 14L7 14L7 13ZM9 13L9 14L10 14L10 13ZM20 14L20 15L21 15L21 14ZM2 16L2 18L1 18L1 19L2 19L2 18L4 18L4 17L3 17L3 16ZM16 16L16 17L17 17L17 18L18 18L18 16ZM36 16L36 17L37 17L37 18L38 18L38 17L37 17L37 16ZM10 17L10 18L11 18L11 17ZM19 18L19 19L18 19L18 20L20 20L20 22L19 22L19 21L17 21L17 24L16 24L16 25L17 25L17 24L18 24L18 26L16 26L16 28L17 28L17 29L18 29L18 31L20 31L20 32L21 32L21 33L18 33L18 32L17 32L17 31L16 31L16 32L15 32L15 33L16 33L16 32L17 32L17 34L19 34L19 35L21 35L21 37L23 37L23 38L21 38L21 39L22 39L22 40L23 40L23 39L24 39L24 38L25 38L25 36L26 36L26 35L27 35L27 36L29 36L29 37L27 37L27 38L28 38L28 39L25 39L25 40L32 40L32 39L33 39L33 38L36 38L36 37L32 37L32 35L31 35L31 33L30 33L30 35L31 35L31 36L29 36L29 35L27 35L27 34L28 34L28 33L29 33L29 32L30 32L30 29L31 29L31 30L32 30L32 31L33 31L33 32L36 32L36 31L34 31L34 30L36 30L36 29L35 29L35 27L36 27L36 26L34 26L34 27L32 27L32 26L33 26L33 25L39 25L39 26L40 26L40 24L39 24L39 23L38 23L38 22L37 22L37 24L36 24L36 23L35 23L35 22L36 22L36 21L35 21L35 22L34 22L34 21L33 21L33 22L31 22L31 23L33 23L33 25L32 25L32 24L31 24L31 25L30 25L30 26L29 26L29 25L27 25L27 24L30 24L30 23L27 23L27 22L28 22L28 21L27 21L27 20L26 20L26 22L25 22L25 21L24 21L24 20L25 20L25 19L22 19L22 20L20 20L20 19L21 19L21 18ZM6 20L6 21L7 21L7 20ZM40 20L40 21L41 21L41 20ZM18 22L18 24L19 24L19 26L21 26L21 27L19 27L19 28L18 28L18 27L17 27L17 28L18 28L18 29L20 29L20 31L21 31L21 32L22 32L22 33L21 33L21 35L22 35L22 36L23 36L23 37L24 37L24 36L25 36L25 34L27 34L27 33L28 33L28 31L29 31L29 30L28 30L28 29L30 29L30 28L28 28L28 26L27 26L27 29L24 29L24 27L23 27L23 26L25 26L25 27L26 27L26 26L25 26L25 25L26 25L26 24L27 24L27 23L26 23L26 24L25 24L25 23L21 23L21 22L20 22L20 23L19 23L19 22ZM33 22L33 23L34 23L34 24L35 24L35 23L34 23L34 22ZM20 23L20 25L21 25L21 26L22 26L22 24L21 24L21 23ZM3 24L3 25L4 25L4 24ZM0 25L0 26L1 26L1 25ZM31 25L31 26L32 26L32 25ZM11 27L11 28L12 28L12 27ZM13 27L13 28L14 28L14 29L15 29L15 30L16 30L16 29L15 29L15 28L14 28L14 27ZM5 28L5 29L6 29L6 28ZM9 28L9 29L10 29L10 28ZM21 28L21 29L23 29L23 28ZM33 28L33 29L32 29L32 30L33 30L33 29L34 29L34 28ZM4 30L4 31L5 31L5 30ZM21 30L21 31L22 31L22 30ZM24 30L24 31L25 31L25 32L27 32L27 31L26 31L26 30ZM6 31L6 32L7 32L7 31ZM23 32L23 33L22 33L22 35L23 35L23 34L24 34L24 32ZM33 33L33 36L36 36L36 33ZM37 33L37 34L38 34L38 36L37 36L37 37L38 37L38 36L39 36L39 33ZM34 34L34 35L35 35L35 34ZM16 37L16 38L17 38L17 39L16 39L16 40L15 40L15 41L18 41L18 40L19 40L19 41L20 41L20 40L19 40L19 38L18 38L18 37ZM29 37L29 38L30 38L30 39L32 39L32 37ZM14 38L14 39L15 39L15 38ZM37 38L37 39L38 39L38 38ZM0 0L0 7L7 7L7 0ZM1 1L1 6L6 6L6 1ZM2 2L2 5L5 5L5 2ZM34 0L34 7L41 7L41 0ZM35 1L35 6L40 6L40 1ZM36 2L36 5L39 5L39 2ZM0 34L0 41L7 41L7 34ZM1 35L1 40L6 40L6 35ZM2 36L2 39L5 39L5 36Z" fill="#000000"/></g></g></svg>
