<?xml version="1.0" encoding="UTF-8"?>
<svg xmlns="http://www.w3.org/2000/svg" version="1.1" width="200" height="200" viewBox="0 0 200 200"><rect x="0" y="0" width="200" height="200" fill="#ffffff"/><g transform="scale(4.878)"><g transform="translate(0,0)"><path fill-rule="evenodd" d="M8 0L8 3L10 3L10 2L11 2L11 3L12 3L12 4L11 4L11 5L8 5L8 9L7 9L7 8L6 8L6 9L5 9L5 8L2 8L2 9L0 9L0 10L6 10L6 11L7 11L7 12L5 12L5 11L4 11L4 12L5 12L5 13L4 13L4 14L3 14L3 12L2 12L2 11L0 11L0 14L2 14L2 15L0 15L0 19L1 19L1 20L2 20L2 19L3 19L3 21L0 21L0 22L1 22L1 25L2 25L2 24L3 24L3 26L4 26L4 29L2 29L2 27L1 27L1 26L0 26L0 27L1 27L1 29L0 29L0 33L1 33L1 30L4 30L4 31L5 31L5 32L2 32L2 33L8 33L8 34L9 34L9 35L10 35L10 36L8 36L8 39L9 39L9 40L10 40L10 41L16 41L16 40L15 40L15 39L16 39L16 37L13 37L13 35L16 35L16 32L15 32L15 30L16 30L16 31L18 31L18 32L19 32L19 33L18 33L18 34L17 34L17 36L18 36L18 37L17 37L17 41L18 41L18 40L19 40L19 41L20 41L20 40L22 40L22 41L23 41L23 40L24 40L24 41L26 41L26 40L28 40L28 38L29 38L29 37L28 37L28 36L29 36L29 34L27 34L27 33L26 33L26 32L25 32L25 27L26 27L26 29L27 29L27 30L29 30L29 29L31 29L31 28L32 28L32 29L33 29L33 30L32 30L32 31L33 31L33 30L34 30L34 31L35 31L35 32L32 32L32 33L30 33L30 32L31 32L31 30L30 30L30 32L29 32L29 31L28 31L28 33L30 33L30 35L32 35L32 38L33 38L33 39L32 39L32 40L31 40L31 39L30 39L30 40L29 40L29 41L30 41L30 40L31 40L31 41L32 41L32 40L33 40L33 41L34 41L34 40L33 40L33 39L35 39L35 40L36 40L36 39L37 39L37 37L39 37L39 38L38 38L38 39L39 39L39 40L40 40L40 38L41 38L41 37L40 37L40 36L41 36L41 35L40 35L40 34L41 34L41 33L39 33L39 32L40 32L40 30L41 30L41 29L40 29L40 28L39 28L39 30L38 30L38 31L39 31L39 32L37 32L37 29L36 29L36 28L35 28L35 27L37 27L37 28L38 28L38 26L39 26L39 27L40 27L40 26L41 26L41 23L40 23L40 26L39 26L39 24L37 24L37 25L33 25L33 24L32 24L32 25L31 25L31 24L27 24L27 23L31 23L31 22L32 22L32 23L33 23L33 22L32 22L32 21L34 21L34 22L36 22L36 21L39 21L39 20L36 20L36 19L35 19L35 17L36 17L36 18L37 18L37 19L38 19L38 18L39 18L39 19L40 19L40 18L41 18L41 16L40 16L40 18L39 18L39 16L37 16L37 13L36 13L36 15L35 15L35 17L34 17L34 16L33 16L33 15L34 15L34 14L33 14L33 13L34 13L34 12L33 12L33 11L34 11L34 10L35 10L35 9L36 9L36 10L37 10L37 11L35 11L35 12L38 12L38 11L39 11L39 13L38 13L38 14L39 14L39 15L40 15L40 14L41 14L41 13L40 13L40 10L41 10L41 8L38 8L38 9L40 9L40 10L37 10L37 9L36 9L36 8L32 8L32 9L31 9L31 5L32 5L32 7L33 7L33 4L31 4L31 3L33 3L33 0L30 0L30 2L31 2L31 3L30 3L30 4L31 4L31 5L30 5L30 8L27 8L27 6L28 6L28 7L29 7L29 6L28 6L28 5L26 5L26 4L27 4L27 3L28 3L28 4L29 4L29 1L27 1L27 0L22 0L22 1L18 1L18 3L17 3L17 1L16 1L16 2L14 2L14 1L15 1L15 0L14 0L14 1L13 1L13 0L11 0L11 1L9 1L9 0ZM12 1L12 3L14 3L14 4L15 4L15 3L14 3L14 2L13 2L13 1ZM23 1L23 2L24 2L24 1ZM31 1L31 2L32 2L32 1ZM21 2L21 3L20 3L20 4L23 4L23 7L24 7L24 5L25 5L25 4L26 4L26 3L27 3L27 2L26 2L26 3L24 3L24 4L23 4L23 3L22 3L22 2ZM17 4L17 5L18 5L18 6L17 6L17 7L16 7L16 5L15 5L15 8L13 8L13 7L14 7L14 6L13 6L13 7L12 7L12 6L11 6L11 7L12 7L12 8L9 8L9 9L8 9L8 10L7 10L7 9L6 9L6 10L7 10L7 11L8 11L8 13L9 13L9 14L10 14L10 15L6 15L6 14L7 14L7 13L5 13L5 15L2 15L2 16L1 16L1 17L3 17L3 18L5 18L5 15L6 15L6 16L7 16L7 17L6 17L6 18L7 18L7 17L8 17L8 18L9 18L9 19L10 19L10 20L8 20L8 19L6 19L6 20L5 20L5 19L4 19L4 21L5 21L5 22L2 22L2 23L4 23L4 26L5 26L5 27L6 27L6 28L7 28L7 27L6 27L6 26L7 26L7 25L8 25L8 23L9 23L9 21L10 21L10 20L11 20L11 18L12 18L12 20L13 20L13 21L11 21L11 22L13 22L13 23L14 23L14 24L13 24L13 25L12 25L12 23L11 23L11 24L9 24L9 26L8 26L8 29L9 29L9 26L10 26L10 27L11 27L11 26L12 26L12 28L10 28L10 29L13 29L13 27L16 27L16 30L19 30L19 31L20 31L20 30L19 30L19 28L18 28L18 27L21 27L21 28L20 28L20 29L21 29L21 33L19 33L19 34L18 34L18 35L19 35L19 36L20 36L20 37L19 37L19 38L20 38L20 37L23 37L23 38L21 38L21 39L22 39L22 40L23 40L23 38L24 38L24 40L26 40L26 39L27 39L27 38L28 38L28 37L27 37L27 36L26 36L26 37L25 37L25 36L24 36L24 35L26 35L26 34L24 34L24 33L25 33L25 32L24 32L24 30L23 30L23 31L22 31L22 29L23 29L23 27L24 27L24 26L23 26L23 25L24 25L24 24L25 24L25 20L27 20L27 18L28 18L28 21L27 21L27 22L28 22L28 21L29 21L29 22L30 22L30 21L31 21L31 20L34 20L34 21L36 21L36 20L35 20L35 19L34 19L34 18L33 18L33 17L32 17L32 18L31 18L31 17L30 17L30 19L31 19L31 20L29 20L29 16L30 16L30 15L31 15L31 14L32 14L32 15L33 15L33 14L32 14L32 13L33 13L33 12L32 12L32 10L34 10L34 9L32 9L32 10L31 10L31 9L27 9L27 10L26 10L26 6L25 6L25 9L22 9L22 6L21 6L21 5L20 5L20 6L19 6L19 5L18 5L18 4ZM9 6L9 7L10 7L10 6ZM18 6L18 7L19 7L19 8L20 8L20 9L18 9L18 8L17 8L17 9L16 9L16 8L15 8L15 9L14 9L14 10L13 10L13 12L12 12L12 11L11 11L11 13L10 13L10 11L9 11L9 10L10 10L10 9L9 9L9 10L8 10L8 11L9 11L9 13L10 13L10 14L12 14L12 16L13 16L13 17L12 17L12 18L13 18L13 19L14 19L14 21L13 21L13 22L14 22L14 23L15 23L15 24L14 24L14 25L13 25L13 26L17 26L17 27L18 27L18 26L20 26L20 24L19 24L19 23L18 23L18 25L15 25L15 24L17 24L17 22L20 22L20 21L21 21L21 20L22 20L22 21L23 21L23 22L21 22L21 24L22 24L22 25L21 25L21 26L22 26L22 25L23 25L23 22L24 22L24 20L25 20L25 19L26 19L26 18L25 18L25 17L26 17L26 16L24 16L24 15L25 15L25 13L26 13L26 14L27 14L27 17L28 17L28 15L30 15L30 14L31 14L31 12L28 12L28 11L29 11L29 10L27 10L27 12L26 12L26 10L25 10L25 13L24 13L24 10L22 10L22 11L21 11L21 6L20 6L20 7L19 7L19 6ZM11 9L11 10L12 10L12 9ZM15 9L15 11L16 11L16 9ZM17 10L17 11L18 11L18 13L19 13L19 14L18 14L18 15L17 15L17 12L16 12L16 14L15 14L15 12L14 12L14 14L15 14L15 15L16 15L16 17L15 17L15 16L14 16L14 17L13 17L13 18L14 18L14 17L15 17L15 18L16 18L16 20L15 20L15 21L14 21L14 22L15 22L15 21L16 21L16 22L17 22L17 18L16 18L16 17L18 17L18 19L19 19L19 20L21 20L21 19L22 19L22 16L21 16L21 15L24 15L24 13L23 13L23 12L21 12L21 11L20 11L20 10L19 10L19 11L18 11L18 10ZM30 10L30 11L31 11L31 10ZM1 12L1 13L2 13L2 12ZM27 12L27 13L28 13L28 14L30 14L30 13L28 13L28 12ZM12 13L12 14L13 14L13 13ZM39 13L39 14L40 14L40 13ZM19 14L19 15L18 15L18 16L19 16L19 17L21 17L21 16L20 16L20 15L21 15L21 14ZM10 15L10 16L11 16L11 15ZM3 16L3 17L4 17L4 16ZM8 16L8 17L9 17L9 16ZM36 16L36 17L37 17L37 18L38 18L38 17L37 17L37 16ZM23 17L23 19L24 19L24 17ZM1 18L1 19L2 19L2 18ZM19 18L19 19L21 19L21 18ZM6 20L6 21L8 21L8 20ZM40 20L40 21L41 21L41 20ZM5 22L5 24L6 24L6 25L5 25L5 26L6 26L6 25L7 25L7 24L6 24L6 23L7 23L7 22ZM37 22L37 23L38 23L38 22ZM35 23L35 24L36 24L36 23ZM26 24L26 25L27 25L27 26L28 26L28 27L27 27L27 28L28 28L28 29L29 29L29 28L31 28L31 27L34 27L34 26L33 26L33 25L32 25L32 26L31 26L31 25L30 25L30 26L29 26L29 25L27 25L27 24ZM10 25L10 26L11 26L11 25ZM28 27L28 28L29 28L29 27ZM14 28L14 29L15 29L15 28ZM33 28L33 29L34 29L34 30L35 30L35 31L36 31L36 29L34 29L34 28ZM4 29L4 30L7 30L7 29ZM9 30L9 31L6 31L6 32L8 32L8 33L9 33L9 34L10 34L10 35L11 35L11 36L12 36L12 35L13 35L13 34L15 34L15 32L14 32L14 31L12 31L12 32L9 32L9 31L10 31L10 30ZM12 32L12 34L13 34L13 32ZM21 33L21 34L20 34L20 36L22 36L22 35L21 35L21 34L22 34L22 33ZM33 33L33 36L36 36L36 33ZM37 33L37 34L38 34L38 35L37 35L37 36L39 36L39 34L38 34L38 33ZM34 34L34 35L35 35L35 34ZM23 36L23 37L24 37L24 36ZM30 36L30 37L31 37L31 36ZM9 37L9 38L10 38L10 37ZM11 37L11 38L12 38L12 40L13 40L13 39L14 39L14 38L12 38L12 37ZM26 37L26 38L25 38L25 39L26 39L26 38L27 38L27 37ZM33 37L33 38L36 38L36 37ZM10 39L10 40L11 40L11 39ZM0 0L0 7L7 7L7 0ZM1 1L1 6L6 6L6 1ZM2 2L2 5L5 5L5 2ZM34 0L34 7L41 7L41 0ZM35 1L35 6L40 6L40 1ZM36 2L36 5L39 5L39 2ZM0 34L0 41L7 41L7 34ZM1 35L1 40L6 40L6 35ZM2 36L2 39L5 39L5 36Z" fill="#000000"/></g></g></svg>
