<?xml version="1.0" encoding="UTF-8"?>
<svg xmlns="http://www.w3.org/2000/svg" version="1.1" width="200" height="200" viewBox="0 0 200 200"><rect x="0" y="0" width="200" height="200" fill="#ffffff"/><g transform="scale(6.897)"><g transform="translate(0,0)"><path fill-rule="evenodd" d="M9 0L9 1L8 1L8 7L9 7L9 6L10 6L10 7L11 7L11 5L12 5L12 9L10 9L10 10L9 10L9 8L5 8L5 9L3 9L3 8L2 8L2 9L0 9L0 10L1 10L1 11L2 11L2 12L3 12L3 14L2 14L2 16L1 16L1 15L0 15L0 17L1 17L1 18L0 18L0 19L3 19L3 20L0 20L0 21L3 21L3 20L4 20L4 21L5 21L5 20L6 20L6 21L7 21L7 20L8 20L8 24L10 24L10 26L11 26L11 27L12 27L12 29L15 29L15 28L17 28L17 29L19 29L19 27L18 27L18 26L19 26L19 25L18 25L18 24L19 24L19 23L18 23L18 22L17 22L17 20L18 20L18 19L20 19L20 18L19 18L19 17L20 17L20 16L18 16L18 17L15 17L15 18L16 18L16 21L15 21L15 19L14 19L14 18L13 18L13 17L14 17L14 16L16 16L16 15L17 15L17 14L15 14L15 13L16 13L16 12L15 12L15 11L16 11L16 10L15 10L15 9L14 9L14 11L12 11L12 12L11 12L11 13L10 13L10 10L13 10L13 8L15 8L15 6L16 6L16 7L17 7L17 9L18 9L18 7L19 7L19 8L20 8L20 11L19 11L19 10L17 10L17 13L18 13L18 11L19 11L19 12L20 12L20 13L21 13L21 12L22 12L22 14L18 14L18 15L21 15L21 19L22 19L22 20L19 20L19 21L20 21L20 25L25 25L25 28L24 28L24 26L23 26L23 27L22 27L22 26L21 26L21 29L22 29L22 28L24 28L24 29L29 29L29 26L27 26L27 24L28 24L28 25L29 25L29 24L28 24L28 23L29 23L29 21L27 21L27 20L25 20L25 18L28 18L28 19L29 19L29 18L28 18L28 17L29 17L29 16L27 16L27 17L25 17L25 16L22 16L22 15L25 15L25 14L26 14L26 13L29 13L29 12L27 12L27 11L29 11L29 9L28 9L28 8L23 8L23 10L22 10L22 11L21 11L21 9L22 9L22 8L21 8L21 0L19 0L19 1L20 1L20 2L19 2L19 3L20 3L20 5L19 5L19 4L18 4L18 5L15 5L15 2L16 2L16 3L18 3L18 2L17 2L17 1L18 1L18 0L16 0L16 1L15 1L15 2L14 2L14 1L13 1L13 0L11 0L11 1L13 1L13 2L10 2L10 3L9 3L9 1L10 1L10 0ZM11 3L11 4L12 4L12 5L13 5L13 4L14 4L14 3ZM13 6L13 7L14 7L14 6ZM17 6L17 7L18 7L18 6ZM19 6L19 7L20 7L20 6ZM5 9L5 11L6 11L6 12L7 12L7 11L6 11L6 10L7 10L7 9ZM25 9L25 10L24 10L24 11L26 11L26 9ZM27 9L27 10L28 10L28 9ZM2 10L2 11L3 11L3 10ZM0 12L0 13L1 13L1 12ZM4 12L4 14L7 14L7 13L5 13L5 12ZM8 12L8 14L9 14L9 16L10 16L10 19L12 19L12 17L13 17L13 15L15 15L15 14L12 14L12 13L14 13L14 12L12 12L12 13L11 13L11 14L12 14L12 17L11 17L11 16L10 16L10 13L9 13L9 12ZM23 12L23 14L25 14L25 13L24 13L24 12ZM27 14L27 15L29 15L29 14ZM4 15L4 16L5 16L5 15ZM6 15L6 16L7 16L7 17L6 17L6 18L7 18L7 19L6 19L6 20L7 20L7 19L8 19L8 20L9 20L9 18L7 18L7 17L8 17L8 16L7 16L7 15ZM2 16L2 18L3 18L3 19L4 19L4 17L3 17L3 16ZM22 17L22 18L25 18L25 17ZM17 18L17 19L18 19L18 18ZM13 19L13 21L14 21L14 19ZM23 19L23 20L24 20L24 19ZM10 20L10 21L11 21L11 23L10 23L10 22L9 22L9 23L10 23L10 24L13 24L13 25L11 25L11 26L12 26L12 27L13 27L13 26L14 26L14 25L15 25L15 26L16 26L16 27L17 27L17 28L18 28L18 27L17 27L17 26L16 26L16 24L17 24L17 22L15 22L15 23L14 23L14 24L13 24L13 23L12 23L12 21L11 21L11 20ZM21 21L21 24L24 24L24 21ZM26 21L26 23L25 23L25 25L26 25L26 24L27 24L27 23L28 23L28 22L27 22L27 21ZM22 22L22 23L23 23L23 22ZM15 23L15 24L16 24L16 23ZM8 26L8 27L9 27L9 29L11 29L11 28L10 28L10 27L9 27L9 26ZM27 27L27 28L28 28L28 27ZM0 0L0 7L7 7L7 0ZM1 1L1 6L6 6L6 1ZM2 2L2 5L5 5L5 2ZM22 0L22 7L29 7L29 0ZM23 1L23 6L28 6L28 1ZM24 2L24 5L27 5L27 2ZM0 22L0 29L7 29L7 22ZM1 23L1 28L6 28L6 23ZM2 24L2 27L5 27L5 24Z" fill="#000000"/></g></g></svg>
