<?xml version="1.0" encoding="UTF-8"?>
<svg xmlns="http://www.w3.org/2000/svg" version="1.1" width="200" height="200" viewBox="0 0 200 200"><rect x="0" y="0" width="200" height="200" fill="#ffffff"/><g transform="scale(4.878)"><g transform="translate(0,0)"><path fill-rule="evenodd" d="M8 0L8 3L10 3L10 4L9 4L9 5L8 5L8 9L7 9L7 8L6 8L6 9L7 9L7 10L5 10L5 8L2 8L2 10L3 10L3 9L4 9L4 10L5 10L5 13L1 13L1 11L0 11L0 14L3 14L3 15L1 15L1 19L0 19L0 24L1 24L1 26L0 26L0 33L1 33L1 30L2 30L2 29L3 29L3 28L4 28L4 29L5 29L5 30L3 30L3 31L4 31L4 33L5 33L5 32L6 32L6 33L8 33L8 34L9 34L9 35L10 35L10 36L11 36L11 35L12 35L12 36L13 36L13 34L12 34L12 33L11 33L11 35L10 35L10 33L9 33L9 32L6 32L6 31L9 31L9 30L10 30L10 29L11 29L11 30L12 30L12 29L11 29L11 28L10 28L10 26L12 26L12 27L13 27L13 29L14 29L14 31L11 31L11 32L14 32L14 33L15 33L15 32L14 32L14 31L16 31L16 32L18 32L18 31L17 31L17 30L18 30L18 29L19 29L19 28L18 28L18 27L16 27L16 26L17 26L17 25L16 25L16 23L17 23L17 24L20 24L20 25L18 25L18 26L19 26L19 27L20 27L20 28L22 28L22 29L23 29L23 30L20 30L20 31L19 31L19 32L20 32L20 35L21 35L21 34L22 34L22 33L21 33L21 31L23 31L23 30L24 30L24 31L25 31L25 30L26 30L26 31L27 31L27 30L29 30L29 29L31 29L31 28L29 28L29 29L28 29L28 28L27 28L27 27L29 27L29 26L30 26L30 25L31 25L31 26L33 26L33 25L34 25L34 27L32 27L32 29L33 29L33 30L32 30L32 31L33 31L33 30L34 30L34 31L36 31L36 32L32 32L32 33L31 33L31 30L30 30L30 32L29 32L29 31L28 31L28 32L29 32L29 33L28 33L28 34L27 34L27 32L26 32L26 33L25 33L25 32L23 32L23 33L25 33L25 34L23 34L23 36L20 36L20 37L19 37L19 36L18 36L18 35L19 35L19 34L18 34L18 35L17 35L17 33L16 33L16 37L19 37L19 38L18 38L18 39L17 39L17 40L15 40L15 39L14 39L14 38L13 38L13 37L12 37L12 38L13 38L13 39L12 39L12 40L11 40L11 41L12 41L12 40L14 40L14 41L17 41L17 40L20 40L20 41L21 41L21 40L22 40L22 41L26 41L26 39L25 39L25 40L23 40L23 39L22 39L22 38L25 38L25 37L26 37L26 36L27 36L27 37L28 37L28 38L27 38L27 40L28 40L28 41L32 41L32 40L33 40L33 41L34 41L34 40L33 40L33 39L32 39L32 38L31 38L31 39L32 39L32 40L28 40L28 38L29 38L29 37L28 37L28 35L29 35L29 33L31 33L31 34L30 34L30 35L32 35L32 37L33 37L33 38L34 38L34 39L35 39L35 40L36 40L36 39L39 39L39 40L40 40L40 38L41 38L41 37L40 37L40 34L41 34L41 33L39 33L39 32L37 32L37 31L38 31L38 30L37 30L37 29L35 29L35 25L36 25L36 26L37 26L37 27L36 27L36 28L38 28L38 26L39 26L39 27L40 27L40 26L41 26L41 23L40 23L40 26L39 26L39 24L37 24L37 25L36 25L36 23L35 23L35 25L34 25L34 24L33 24L33 23L34 23L34 22L36 22L36 21L39 21L39 20L36 20L36 19L35 19L35 17L36 17L36 18L37 18L37 19L38 19L38 18L37 18L37 17L39 17L39 18L41 18L41 16L40 16L40 17L39 17L39 16L37 16L37 15L38 15L38 14L37 14L37 13L36 13L36 14L35 14L35 15L36 15L36 16L35 16L35 17L34 17L34 16L33 16L33 15L34 15L34 14L33 14L33 13L34 13L34 12L33 12L33 11L34 11L34 10L35 10L35 9L36 9L36 11L35 11L35 12L38 12L38 11L39 11L39 13L40 13L40 14L39 14L39 15L40 15L40 14L41 14L41 13L40 13L40 10L41 10L41 8L38 8L38 9L40 9L40 10L37 10L37 9L36 9L36 8L33 8L33 5L32 5L32 4L33 4L33 3L32 3L32 4L31 4L31 3L30 3L30 4L31 4L31 5L29 5L29 6L28 6L28 5L27 5L27 6L26 6L26 8L27 8L27 9L31 9L31 10L32 10L32 9L34 9L34 10L33 10L33 11L32 11L32 12L33 12L33 13L32 13L32 14L31 14L31 12L28 12L28 10L27 10L27 12L28 12L28 13L27 13L27 15L26 15L26 13L24 13L24 12L26 12L26 10L25 10L25 11L22 11L22 10L23 10L23 9L22 9L22 10L21 10L21 11L19 11L19 9L20 9L20 8L18 8L18 7L19 7L19 5L20 5L20 7L21 7L21 5L20 5L20 4L18 4L18 7L17 7L17 6L16 6L16 7L15 7L15 5L16 5L16 2L14 2L14 4L15 4L15 5L14 5L14 7L13 7L13 4L12 4L12 2L11 2L11 0ZM12 0L12 1L14 1L14 0ZM17 0L17 1L20 1L20 2L19 2L19 3L20 3L20 2L21 2L21 3L22 3L22 2L24 2L24 1L22 1L22 0ZM25 0L25 3L26 3L26 4L27 4L27 3L28 3L28 4L29 4L29 1L27 1L27 0ZM31 0L31 1L30 1L30 2L31 2L31 1L32 1L32 0ZM9 1L9 2L10 2L10 3L11 3L11 2L10 2L10 1ZM17 2L17 3L18 3L18 2ZM26 2L26 3L27 3L27 2ZM10 4L10 6L9 6L9 9L8 9L8 10L9 10L9 13L6 13L6 14L5 14L5 15L4 15L4 17L6 17L6 18L2 18L2 21L1 21L1 24L2 24L2 22L3 22L3 23L4 23L4 22L7 22L7 23L5 23L5 24L4 24L4 25L5 25L5 27L4 27L4 26L3 26L3 25L2 25L2 26L3 26L3 27L4 27L4 28L5 28L5 29L6 29L6 30L8 30L8 29L9 29L9 28L8 28L8 29L6 29L6 28L7 28L7 27L9 27L9 26L10 26L10 25L11 25L11 22L12 22L12 23L14 23L14 22L13 22L13 21L12 21L12 18L11 18L11 17L12 17L12 16L10 16L10 14L13 14L13 15L14 15L14 16L17 16L17 15L16 15L16 12L18 12L18 13L19 13L19 12L18 12L18 8L15 8L15 7L14 7L14 8L12 8L12 9L11 9L11 7L12 7L12 4ZM23 4L23 5L22 5L22 7L23 7L23 5L24 5L24 7L25 7L25 4ZM31 5L31 7L32 7L32 5ZM10 6L10 7L11 7L11 6ZM27 6L27 7L28 7L28 6ZM29 6L29 8L30 8L30 6ZM31 8L31 9L32 9L32 8ZM10 9L10 10L11 10L11 11L10 11L10 12L11 12L11 13L13 13L13 14L14 14L14 15L15 15L15 13L14 13L14 12L13 12L13 11L14 11L14 10L13 10L13 9L12 9L12 10L11 10L11 9ZM15 9L15 10L16 10L16 9ZM29 10L29 11L30 11L30 10ZM6 11L6 12L7 12L7 11ZM11 11L11 12L12 12L12 11ZM21 11L21 12L20 12L20 13L22 13L22 11ZM23 13L23 14L20 14L20 15L19 15L19 14L18 14L18 17L17 17L17 20L16 20L16 17L15 17L15 23L16 23L16 22L17 22L17 23L19 23L19 22L20 22L20 24L23 24L23 26L24 26L24 27L23 27L23 28L24 28L24 29L25 29L25 28L24 28L24 27L25 27L25 26L24 26L24 25L26 25L26 27L27 27L27 26L29 26L29 25L26 25L26 24L27 24L27 23L26 23L26 21L27 21L27 22L28 22L28 21L32 21L32 22L31 22L31 23L30 23L30 22L29 22L29 24L31 24L31 25L33 25L33 24L31 24L31 23L33 23L33 22L34 22L34 21L36 21L36 20L35 20L35 19L34 19L34 18L33 18L33 17L32 17L32 18L31 18L31 17L30 17L30 19L31 19L31 20L29 20L29 19L26 19L26 18L29 18L29 16L31 16L31 15L30 15L30 13L28 13L28 14L29 14L29 15L28 15L28 17L27 17L27 16L26 16L26 15L25 15L25 14L24 14L24 13ZM6 14L6 15L7 15L7 14ZM8 14L8 16L9 16L9 17L7 17L7 16L6 16L6 17L7 17L7 18L6 18L6 19L7 19L7 20L5 20L5 21L7 21L7 22L8 22L8 23L7 23L7 24L5 24L5 25L7 25L7 26L6 26L6 27L5 27L5 28L6 28L6 27L7 27L7 26L9 26L9 24L10 24L10 23L9 23L9 22L10 22L10 21L9 21L9 19L10 19L10 20L11 20L11 19L10 19L10 18L9 18L9 17L10 17L10 16L9 16L9 14ZM32 14L32 15L33 15L33 14ZM36 14L36 15L37 15L37 14ZM2 16L2 17L3 17L3 16ZM20 16L20 17L19 17L19 18L22 18L22 19L23 19L23 20L24 20L24 19L25 19L25 18L26 18L26 16L24 16L24 17L25 17L25 18L23 18L23 16L22 16L22 17L21 17L21 16ZM36 16L36 17L37 17L37 16ZM8 18L8 19L9 19L9 18ZM13 18L13 19L14 19L14 18ZM3 19L3 20L4 20L4 19ZM20 19L20 20L17 20L17 21L18 21L18 22L19 22L19 21L20 21L20 20L21 20L21 21L22 21L22 22L21 22L21 23L22 23L22 22L23 22L23 21L22 21L22 20L21 20L21 19ZM32 19L32 21L34 21L34 20L33 20L33 19ZM27 20L27 21L28 21L28 20ZM40 20L40 21L41 21L41 20ZM3 21L3 22L4 22L4 21ZM24 22L24 23L23 23L23 24L25 24L25 22ZM37 22L37 23L39 23L39 22ZM8 23L8 24L9 24L9 23ZM13 24L13 25L12 25L12 26L13 26L13 27L15 27L15 26L16 26L16 25L14 25L14 24ZM21 26L21 27L22 27L22 26ZM26 28L26 29L27 29L27 28ZM33 28L33 29L34 29L34 30L35 30L35 29L34 29L34 28ZM39 28L39 31L40 31L40 32L41 32L41 31L40 31L40 30L41 30L41 29L40 29L40 28ZM15 29L15 30L16 30L16 29ZM36 30L36 31L37 31L37 30ZM2 32L2 33L3 33L3 32ZM33 33L33 36L36 36L36 33ZM37 33L37 34L38 34L38 35L37 35L37 36L39 36L39 33ZM25 34L25 35L24 35L24 36L23 36L23 37L25 37L25 35L27 35L27 34ZM34 34L34 35L35 35L35 34ZM8 36L8 39L11 39L11 38L10 38L10 37L9 37L9 36ZM14 36L14 37L15 37L15 36ZM30 36L30 37L31 37L31 36ZM20 37L20 38L19 38L19 39L21 39L21 38L22 38L22 37ZM34 37L34 38L36 38L36 37ZM38 37L38 38L39 38L39 37ZM0 0L0 7L7 7L7 0ZM1 1L1 6L6 6L6 1ZM2 2L2 5L5 5L5 2ZM34 0L34 7L41 7L41 0ZM35 1L35 6L40 6L40 1ZM36 2L36 5L39 5L39 2ZM0 34L0 41L7 41L7 34ZM1 35L1 40L6 40L6 35ZM2 36L2 39L5 39L5 36Z" fill="#000000"/></g></g></svg>
