<?xml version="1.0" encoding="UTF-8"?>
<svg xmlns="http://www.w3.org/2000/svg" version="1.1" width="200" height="200" viewBox="0 0 200 200"><rect x="0" y="0" width="200" height="200" fill="#ffffff"/><g transform="scale(4.878)"><g transform="translate(0,0)"><path fill-rule="evenodd" d="M13 0L13 1L14 1L14 2L13 2L13 3L12 3L12 4L11 4L11 3L10 3L10 2L12 2L12 1L8 1L8 2L9 2L9 5L8 5L8 8L4 8L4 9L2 9L2 11L1 11L1 10L0 10L0 11L1 11L1 13L0 13L0 19L1 19L1 20L0 20L0 21L1 21L1 20L6 20L6 21L5 21L5 22L6 22L6 23L4 23L4 21L3 21L3 23L1 23L1 22L0 22L0 24L1 24L1 25L0 25L0 26L1 26L1 28L0 28L0 30L2 30L2 31L3 31L3 33L4 33L4 31L5 31L5 29L7 29L7 28L8 28L8 30L6 30L6 31L7 31L7 32L5 32L5 33L8 33L8 37L9 37L9 34L10 34L10 35L11 35L11 36L10 36L10 38L11 38L11 40L10 40L10 39L9 39L9 40L10 40L10 41L11 41L11 40L12 40L12 41L13 41L13 40L14 40L14 39L15 39L15 41L16 41L16 39L18 39L18 40L17 40L17 41L22 41L22 40L24 40L24 41L26 41L26 39L27 39L27 41L28 41L28 40L29 40L29 41L30 41L30 39L28 39L28 37L29 37L29 34L30 34L30 35L32 35L32 36L31 36L31 37L30 37L30 38L31 38L31 39L32 39L32 41L33 41L33 39L32 39L32 38L33 38L33 37L36 37L36 38L37 38L37 34L38 34L38 31L37 31L37 32L35 32L35 31L36 31L36 30L37 30L37 29L38 29L38 30L39 30L39 31L40 31L40 32L41 32L41 29L40 29L40 27L41 27L41 24L40 24L40 23L41 23L41 22L40 22L40 21L41 21L41 13L40 13L40 16L39 16L39 17L38 17L38 15L37 15L37 17L36 17L36 14L37 14L37 13L38 13L38 14L39 14L39 12L41 12L41 9L40 9L40 8L39 8L39 9L36 9L36 8L34 8L34 9L32 9L32 10L35 10L35 9L36 9L36 10L37 10L37 13L36 13L36 14L33 14L33 13L35 13L35 12L34 12L34 11L31 11L31 10L29 10L29 9L31 9L31 8L30 8L30 7L31 7L31 6L32 6L32 7L33 7L33 3L29 3L29 4L30 4L30 5L29 5L29 6L28 6L28 8L29 8L29 9L26 9L26 8L27 8L27 5L28 5L28 4L27 4L27 5L26 5L26 7L25 7L25 6L24 6L24 8L23 8L23 5L25 5L25 4L24 4L24 3L25 3L25 2L26 2L26 3L28 3L28 2L30 2L30 1L31 1L31 2L33 2L33 1L31 1L31 0L29 0L29 1L28 1L28 0L27 0L27 1L26 1L26 0L25 0L25 1L24 1L24 0L22 0L22 1L21 1L21 0ZM15 1L15 2L14 2L14 3L16 3L16 4L18 4L18 3L19 3L19 2L20 2L20 1L18 1L18 2L16 2L16 1ZM22 1L22 2L21 2L21 4L22 4L22 5L23 5L23 4L22 4L22 3L23 3L23 1ZM27 1L27 2L28 2L28 1ZM10 4L10 6L9 6L9 8L8 8L8 11L6 11L6 10L7 10L7 9L6 9L6 10L5 10L5 9L4 9L4 10L3 10L3 11L2 11L2 12L3 12L3 11L6 11L6 12L5 12L5 14L4 14L4 15L3 15L3 13L1 13L1 17L2 17L2 16L3 16L3 17L4 17L4 18L1 18L1 19L4 19L4 18L5 18L5 19L6 19L6 20L8 20L8 19L9 19L9 21L8 21L8 25L6 25L6 24L7 24L7 23L6 23L6 24L5 24L5 25L4 25L4 26L3 26L3 24L2 24L2 26L3 26L3 27L5 27L5 28L1 28L1 29L5 29L5 28L7 28L7 27L5 27L5 26L8 26L8 25L9 25L9 27L8 27L8 28L9 28L9 30L8 30L8 31L9 31L9 30L11 30L11 29L12 29L12 31L11 31L11 32L10 32L10 33L12 33L12 32L13 32L13 34L11 34L11 35L12 35L12 36L14 36L14 37L13 37L13 38L15 38L15 37L18 37L18 36L20 36L20 35L21 35L21 38L20 38L20 39L19 39L19 40L22 40L22 39L23 39L23 38L22 38L22 37L23 37L23 35L24 35L24 36L27 36L27 37L28 37L28 35L26 35L26 34L25 34L25 35L24 35L24 32L26 32L26 33L29 33L29 32L27 32L27 31L25 31L25 30L24 30L24 29L23 29L23 26L24 26L24 27L26 27L26 30L28 30L28 31L31 31L31 29L32 29L32 31L33 31L33 32L34 32L34 31L35 31L35 30L36 30L36 29L37 29L37 26L38 26L38 28L39 28L39 25L37 25L37 24L39 24L39 23L40 23L40 22L39 22L39 20L40 20L40 17L39 17L39 19L38 19L38 17L37 17L37 21L38 21L38 23L37 23L37 22L36 22L36 21L35 21L35 20L36 20L36 19L35 19L35 18L36 18L36 17L35 17L35 16L34 16L34 15L32 15L32 14L31 14L31 16L32 16L32 17L29 17L29 15L28 15L28 13L29 13L29 14L30 14L30 13L29 13L29 12L28 12L28 11L25 11L25 12L27 12L27 13L24 13L24 12L23 12L23 11L24 11L24 10L23 10L23 9L22 9L22 6L21 6L21 7L20 7L20 4L19 4L19 7L18 7L18 6L17 6L17 7L18 7L18 10L16 10L16 5L14 5L14 4L13 4L13 5L12 5L12 6L11 6L11 4ZM31 4L31 5L32 5L32 4ZM10 6L10 7L11 7L11 6ZM12 6L12 8L13 8L13 6ZM14 6L14 7L15 7L15 6ZM29 6L29 7L30 7L30 6ZM19 7L19 8L20 8L20 7ZM9 8L9 9L10 9L10 8ZM11 9L11 10L13 10L13 11L12 11L12 12L11 12L11 11L10 11L10 10L9 10L9 11L10 11L10 12L9 12L9 13L8 13L8 14L6 14L6 15L5 15L5 17L7 17L7 16L8 16L8 17L9 17L9 18L10 18L10 17L11 17L11 14L10 14L10 15L9 15L9 13L10 13L10 12L11 12L11 13L13 13L13 11L14 11L14 12L15 12L15 9L14 9L14 10L13 10L13 9ZM19 9L19 10L18 10L18 11L17 11L17 12L16 12L16 13L15 13L15 14L12 14L12 15L13 15L13 16L14 16L14 17L12 17L12 18L11 18L11 19L10 19L10 20L11 20L11 19L12 19L12 18L16 18L16 20L15 20L15 19L13 19L13 20L12 20L12 21L13 21L13 20L14 20L14 21L16 21L16 22L15 22L15 24L14 24L14 27L13 27L13 32L14 32L14 28L15 28L15 27L17 27L17 26L16 26L16 25L17 25L17 24L21 24L21 25L20 25L20 27L19 27L19 25L18 25L18 28L16 28L16 30L15 30L15 32L16 32L16 36L17 36L17 32L19 32L19 33L22 33L22 34L23 34L23 33L22 33L22 32L24 32L24 31L22 31L22 30L23 30L23 29L22 29L22 30L21 30L21 28L22 28L22 24L23 24L23 23L24 23L24 22L25 22L25 21L24 21L24 20L26 20L26 21L27 21L27 22L26 22L26 23L25 23L25 24L27 24L27 23L28 23L28 24L29 24L29 25L25 25L25 26L27 26L27 28L28 28L28 29L31 29L31 25L33 25L33 27L34 27L34 28L35 28L35 29L36 29L36 28L35 28L35 26L37 26L37 25L33 25L33 24L36 24L36 23L34 23L34 22L35 22L35 21L32 21L32 20L31 20L31 19L30 19L30 18L29 18L29 19L28 19L28 16L27 16L27 15L26 15L26 14L25 14L25 15L26 15L26 17L25 17L25 16L24 16L24 17L23 17L23 16L22 16L22 18L21 18L21 20L23 20L23 21L22 21L22 22L21 22L21 23L17 23L17 24L16 24L16 22L19 22L19 21L18 21L18 19L17 19L17 18L16 18L16 17L17 17L17 14L19 14L19 13L18 13L18 12L19 12L19 10L20 10L20 9ZM21 9L21 10L22 10L22 11L20 11L20 12L21 12L21 13L20 13L20 14L21 14L21 13L23 13L23 15L24 15L24 13L23 13L23 12L22 12L22 11L23 11L23 10L22 10L22 9ZM25 9L25 10L26 10L26 9ZM30 11L30 12L31 12L31 11ZM38 11L38 12L39 12L39 11ZM6 12L6 13L7 13L7 12ZM32 12L32 13L33 13L33 12ZM6 15L6 16L7 16L7 15ZM8 15L8 16L9 16L9 15ZM14 15L14 16L16 16L16 15ZM19 15L19 17L20 17L20 15ZM26 17L26 18L25 18L25 19L27 19L27 21L28 21L28 23L30 23L30 25L31 25L31 24L33 24L33 23L32 23L32 21L30 21L30 20L29 20L29 21L28 21L28 19L27 19L27 17ZM32 17L32 18L33 18L33 17ZM34 17L34 18L35 18L35 17ZM6 18L6 19L7 19L7 18ZM19 18L19 20L20 20L20 18ZM22 18L22 19L23 19L23 20L24 20L24 18ZM34 19L34 20L35 20L35 19ZM16 20L16 21L17 21L17 20ZM6 21L6 22L7 22L7 21ZM9 21L9 23L14 23L14 22L11 22L11 21ZM30 22L30 23L31 23L31 22ZM9 24L9 25L10 25L10 24ZM11 24L11 25L12 25L12 26L13 26L13 25L12 25L12 24ZM15 24L15 25L16 25L16 24ZM10 26L10 27L9 27L9 28L12 28L12 27L11 27L11 26ZM28 26L28 28L29 28L29 26ZM18 28L18 29L19 29L19 31L20 31L20 32L21 32L21 31L20 31L20 28ZM32 28L32 29L33 29L33 30L34 30L34 29L33 29L33 28ZM39 29L39 30L40 30L40 29ZM16 30L16 31L18 31L18 30ZM0 32L0 33L2 33L2 32ZM30 32L30 33L31 33L31 34L32 34L32 32ZM33 33L33 36L36 36L36 33ZM40 33L40 34L39 34L39 35L40 35L40 36L39 36L39 37L40 37L40 38L38 38L38 39L36 39L36 40L37 40L37 41L40 41L40 40L41 40L41 37L40 37L40 36L41 36L41 33ZM13 34L13 35L14 35L14 36L15 36L15 35L14 35L14 34ZM18 34L18 35L19 35L19 34ZM34 34L34 35L35 35L35 34ZM31 37L31 38L32 38L32 37ZM25 38L25 39L26 39L26 38ZM34 39L34 40L35 40L35 39ZM0 0L0 7L7 7L7 0ZM1 1L1 6L6 6L6 1ZM2 2L2 5L5 5L5 2ZM34 0L34 7L41 7L41 0ZM35 1L35 6L40 6L40 1ZM36 2L36 5L39 5L39 2ZM0 34L0 41L7 41L7 34ZM1 35L1 40L6 40L6 35ZM2 36L2 39L5 39L5 36Z" fill="#000000"/></g></g></svg>
