<?xml version="1.0" encoding="UTF-8"?>
<svg xmlns="http://www.w3.org/2000/svg" version="1.1" width="200" height="200" viewBox="0 0 200 200"><rect x="0" y="0" width="200" height="200" fill="#ffffff"/><g transform="scale(4.878)"><g transform="translate(0,0)"><path fill-rule="evenodd" d="M8 0L8 3L10 3L10 4L9 4L9 5L8 5L8 9L9 9L9 10L8 10L8 12L6 12L6 11L7 11L7 10L6 10L6 9L7 9L7 8L6 8L6 9L5 9L5 8L2 8L2 9L0 9L0 12L1 12L1 13L4 13L4 15L3 15L3 14L1 14L1 15L0 15L0 17L1 17L1 18L2 18L2 17L3 17L3 16L4 16L4 15L5 15L5 17L7 17L7 16L8 16L8 17L9 17L9 18L6 18L6 19L5 19L5 18L4 18L4 20L3 20L3 22L1 22L1 21L2 21L2 19L0 19L0 25L1 25L1 26L2 26L2 27L1 27L1 28L0 28L0 33L1 33L1 29L3 29L3 30L2 30L2 32L4 32L4 31L5 31L5 32L6 32L6 33L7 33L7 32L8 32L8 34L9 34L9 36L8 36L8 39L9 39L9 38L11 38L11 39L10 39L10 41L12 41L12 38L13 38L13 40L14 40L14 41L16 41L16 40L14 40L14 38L13 38L13 37L15 37L15 38L20 38L20 39L17 39L17 40L18 40L18 41L19 41L19 40L21 40L21 41L25 41L25 40L24 40L24 39L25 39L25 38L27 38L27 40L26 40L26 41L27 41L27 40L28 40L28 41L32 41L32 40L33 40L33 41L34 41L34 40L33 40L33 39L32 39L32 40L31 40L31 38L32 38L32 37L33 37L33 38L34 38L34 39L35 39L35 40L36 40L36 39L37 39L37 40L40 40L40 38L41 38L41 37L40 37L40 36L41 36L41 35L40 35L40 34L41 34L41 32L40 32L40 30L41 30L41 29L40 29L40 28L41 28L41 27L40 27L40 26L41 26L41 23L39 23L39 22L38 22L38 21L39 21L39 20L36 20L36 19L35 19L35 17L36 17L36 18L37 18L37 17L38 17L38 18L41 18L41 16L40 16L40 17L39 17L39 16L37 16L37 14L38 14L38 15L40 15L40 14L41 14L41 13L40 13L40 14L38 14L38 13L36 13L36 14L35 14L35 15L36 15L36 16L35 16L35 17L34 17L34 16L33 16L33 17L31 17L31 16L29 16L29 15L31 15L31 13L33 13L33 14L32 14L32 15L34 15L34 13L35 13L35 9L36 9L36 12L38 12L38 11L40 11L40 12L41 12L41 11L40 11L40 10L41 10L41 8L38 8L38 9L40 9L40 10L37 10L37 9L36 9L36 8L32 8L32 7L33 7L33 4L30 4L30 5L27 5L27 4L26 4L26 5L27 5L27 6L26 6L26 7L27 7L27 8L26 8L26 10L27 10L27 13L26 13L26 11L23 11L23 10L22 10L22 9L25 9L25 6L24 6L24 3L23 3L23 2L25 2L25 0L24 0L24 1L22 1L22 0L20 0L20 2L19 2L19 3L18 3L18 4L17 4L17 5L19 5L19 4L20 4L20 5L22 5L22 7L21 7L21 6L20 6L20 7L19 7L19 6L18 6L18 8L19 8L19 9L17 9L17 8L16 8L16 7L17 7L17 6L16 6L16 7L15 7L15 6L14 6L14 4L13 4L13 3L14 3L14 2L13 2L13 1L12 1L12 2L9 2L9 0ZM14 0L14 1L16 1L16 2L15 2L15 5L16 5L16 2L18 2L18 1L19 1L19 0L18 0L18 1L17 1L17 0ZM26 0L26 1L27 1L27 2L26 2L26 3L28 3L28 4L29 4L29 3L32 3L32 2L33 2L33 0L29 0L29 1L27 1L27 0ZM21 1L21 2L20 2L20 4L21 4L21 3L22 3L22 5L23 5L23 3L22 3L22 1ZM30 1L30 2L32 2L32 1ZM12 2L12 3L13 3L13 2ZM10 4L10 5L9 5L9 8L10 8L10 9L11 9L11 8L12 8L12 6L13 6L13 7L14 7L14 6L13 6L13 4ZM10 5L10 8L11 8L11 5ZM31 5L31 7L32 7L32 5ZM23 6L23 8L24 8L24 6ZM27 6L27 7L28 7L28 8L30 8L30 9L27 9L27 10L28 10L28 13L29 13L29 14L26 14L26 13L25 13L25 12L24 12L24 14L23 14L23 11L22 11L22 12L21 12L21 13L20 13L20 12L17 12L17 9L16 9L16 8L14 8L14 9L16 9L16 10L15 10L15 11L13 11L13 10L12 10L12 11L11 11L11 10L10 10L10 11L9 11L9 12L8 12L8 14L7 14L7 13L6 13L6 12L4 12L4 13L6 13L6 14L7 14L7 15L6 15L6 16L7 16L7 15L8 15L8 16L9 16L9 17L10 17L10 20L11 20L11 21L8 21L8 22L7 22L7 21L5 21L5 20L4 20L4 21L5 21L5 22L3 22L3 24L2 24L2 26L3 26L3 25L5 25L5 26L7 26L7 25L8 25L8 26L9 26L9 27L8 27L8 29L9 29L9 27L10 27L10 30L11 30L11 29L12 29L12 31L14 31L14 32L13 32L13 33L14 33L14 32L15 32L15 33L16 33L16 34L15 34L15 37L16 37L16 36L17 36L17 37L18 37L18 35L19 35L19 32L20 32L20 31L21 31L21 30L20 30L20 31L19 31L19 30L18 30L18 29L21 29L21 28L22 28L22 30L24 30L24 28L26 28L26 29L27 29L27 28L28 28L28 27L29 27L29 28L31 28L31 29L28 29L28 30L29 30L29 31L28 31L28 32L30 32L30 33L31 33L31 32L30 32L30 30L32 30L32 31L33 31L33 32L35 32L35 31L34 31L34 30L35 30L35 29L37 29L37 31L38 31L38 32L37 32L37 33L38 33L38 36L37 36L37 37L38 37L38 36L40 36L40 35L39 35L39 33L38 33L38 32L39 32L39 31L38 31L38 30L39 30L39 26L40 26L40 24L39 24L39 23L37 23L37 24L36 24L36 23L35 23L35 22L36 22L36 21L35 21L35 19L34 19L34 18L31 18L31 17L29 17L29 16L28 16L28 15L29 15L29 14L30 14L30 13L29 13L29 12L33 12L33 13L34 13L34 12L33 12L33 11L34 11L34 9L32 9L32 8L30 8L30 6L29 6L29 7L28 7L28 6ZM20 7L20 8L21 8L21 9L19 9L19 10L18 10L18 11L19 11L19 10L20 10L20 11L21 11L21 9L22 9L22 8L21 8L21 7ZM30 9L30 10L29 10L29 11L31 11L31 10L32 10L32 9ZM2 10L2 11L5 11L5 10ZM10 11L10 17L11 17L11 18L12 18L12 19L13 19L13 20L12 20L12 21L11 21L11 23L10 23L10 22L9 22L9 24L10 24L10 25L12 25L12 26L13 26L13 25L14 25L14 26L15 26L15 24L16 24L16 23L17 23L17 24L18 24L18 25L17 25L17 27L18 27L18 28L19 28L19 26L18 26L18 25L19 25L19 24L21 24L21 22L20 22L20 20L21 20L21 21L23 21L23 22L24 22L24 24L25 24L25 25L24 25L24 26L25 26L25 25L26 25L26 26L27 26L27 27L26 27L26 28L27 28L27 27L28 27L28 26L27 26L27 25L29 25L29 26L30 26L30 25L31 25L31 26L32 26L32 27L34 27L34 26L35 26L35 25L36 25L36 26L37 26L37 27L35 27L35 28L38 28L38 26L39 26L39 25L36 25L36 24L35 24L35 23L34 23L34 22L35 22L35 21L34 21L34 20L32 20L32 21L31 21L31 20L30 20L30 21L31 21L31 22L32 22L32 21L34 21L34 22L33 22L33 23L34 23L34 24L32 24L32 23L30 23L30 22L29 22L29 23L28 23L28 22L27 22L27 23L28 23L28 24L26 24L26 21L24 21L24 20L22 20L22 19L20 19L20 18L19 18L19 17L18 17L18 19L17 19L17 18L16 18L16 17L13 17L13 18L12 18L12 17L11 17L11 15L13 15L13 16L15 16L15 15L17 15L17 16L19 16L19 15L21 15L21 16L20 16L20 17L22 17L22 18L23 18L23 19L25 19L25 20L27 20L27 21L29 21L29 19L28 19L28 18L27 18L27 17L26 17L26 16L25 16L25 15L26 15L26 14L24 14L24 16L23 16L23 17L22 17L22 13L21 13L21 14L20 14L20 13L19 13L19 15L17 15L17 14L18 14L18 13L16 13L16 12L13 12L13 11L12 11L12 14L11 14L11 11ZM13 13L13 14L14 14L14 15L15 15L15 14L16 14L16 13ZM36 16L36 17L37 17L37 16ZM24 17L24 18L26 18L26 17ZM13 18L13 19L14 19L14 20L13 20L13 21L12 21L12 22L13 22L13 21L14 21L14 20L15 20L15 21L16 21L16 20L15 20L15 19L16 19L16 18L15 18L15 19L14 19L14 18ZM30 18L30 19L31 19L31 18ZM6 19L6 20L9 20L9 19ZM18 19L18 20L17 20L17 23L19 23L19 22L18 22L18 21L19 21L19 19ZM40 20L40 21L41 21L41 20ZM6 22L6 23L7 23L7 24L5 24L5 23L4 23L4 24L5 24L5 25L7 25L7 24L8 24L8 23L7 23L7 22ZM15 22L15 23L11 23L11 24L12 24L12 25L13 25L13 24L15 24L15 23L16 23L16 22ZM29 23L29 24L30 24L30 23ZM31 24L31 25L32 25L32 26L34 26L34 25L35 25L35 24L34 24L34 25L32 25L32 24ZM20 25L20 26L22 26L22 28L24 28L24 27L23 27L23 25ZM4 27L4 28L3 28L3 29L4 29L4 30L5 30L5 29L6 29L6 30L7 30L7 31L6 31L6 32L7 32L7 31L8 31L8 32L10 32L10 31L9 31L9 30L7 30L7 29L6 29L6 28L7 28L7 27ZM15 27L15 28L16 28L16 29L17 29L17 28L16 28L16 27ZM12 28L12 29L13 29L13 28ZM33 28L33 29L32 29L32 30L33 30L33 29L34 29L34 28ZM16 31L16 32L17 32L17 34L16 34L16 35L18 35L18 32L19 32L19 31L18 31L18 32L17 32L17 31ZM23 31L23 32L24 32L24 31ZM25 31L25 33L24 33L24 34L21 34L21 33L22 33L22 32L21 32L21 33L20 33L20 36L19 36L19 37L21 37L21 38L22 38L22 39L21 39L21 40L23 40L23 39L24 39L24 38L25 38L25 37L26 37L26 36L27 36L27 34L29 34L29 33L27 33L27 32L26 32L26 31ZM10 33L10 34L11 34L11 33ZM26 33L26 34L27 34L27 33ZM33 33L33 36L36 36L36 33ZM30 34L30 35L31 35L31 36L29 36L29 35L28 35L28 37L27 37L27 38L28 38L28 37L29 37L29 39L28 39L28 40L30 40L30 37L32 37L32 35L31 35L31 34ZM34 34L34 35L35 35L35 34ZM12 35L12 36L10 36L10 37L13 37L13 35ZM21 35L21 37L22 37L22 38L23 38L23 37L25 37L25 36L26 36L26 35L23 35L23 36L22 36L22 35ZM34 37L34 38L36 38L36 37ZM37 38L37 39L38 39L38 38ZM0 0L0 7L7 7L7 0ZM1 1L1 6L6 6L6 1ZM2 2L2 5L5 5L5 2ZM34 0L34 7L41 7L41 0ZM35 1L35 6L40 6L40 1ZM36 2L36 5L39 5L39 2ZM0 34L0 41L7 41L7 34ZM1 35L1 40L6 40L6 35ZM2 36L2 39L5 39L5 36Z" fill="#000000"/></g></g></svg>
