<?xml version="1.0" encoding="UTF-8"?>
<svg xmlns="http://www.w3.org/2000/svg" version="1.1" width="200" height="200" viewBox="0 0 200 200"><rect x="0" y="0" width="200" height="200" fill="#ffffff"/><g transform="scale(4.878)"><g transform="translate(0,0)"><path fill-rule="evenodd" d="M9 0L9 1L8 1L8 2L9 2L9 4L10 4L10 8L11 8L11 9L10 9L10 10L4 10L4 9L8 9L8 8L9 8L9 5L8 5L8 8L4 8L4 9L2 9L2 10L4 10L4 11L5 11L5 12L6 12L6 13L7 13L7 14L6 14L6 15L7 15L7 16L5 16L5 14L3 14L3 13L2 13L2 12L1 12L1 11L0 11L0 12L1 12L1 14L0 14L0 17L2 17L2 19L7 19L7 20L5 20L5 22L6 22L6 23L3 23L3 25L2 25L2 27L0 27L0 28L1 28L1 29L0 29L0 30L2 30L2 32L0 32L0 33L2 33L2 32L4 32L4 33L5 33L5 32L6 32L6 33L8 33L8 37L9 37L9 39L10 39L10 40L9 40L9 41L10 41L10 40L11 40L11 39L12 39L12 37L13 37L13 36L15 36L15 37L14 37L14 39L16 39L16 37L17 37L17 38L18 38L18 37L17 37L17 36L18 36L18 35L17 35L17 34L16 34L16 33L17 33L17 32L18 32L18 33L21 33L21 31L22 31L22 32L23 32L23 33L22 33L22 34L23 34L23 37L22 37L22 35L21 35L21 34L20 34L20 35L19 35L19 39L20 39L20 40L18 40L18 41L21 41L21 38L22 38L22 40L24 40L24 41L25 41L25 40L29 40L29 41L30 41L30 40L31 40L31 41L33 41L33 39L34 39L34 40L35 40L35 39L34 39L34 37L36 37L36 38L37 38L37 34L38 34L38 35L40 35L40 36L39 36L39 37L40 37L40 38L38 38L38 39L36 39L36 40L37 40L37 41L40 41L40 40L41 40L41 37L40 37L40 36L41 36L41 33L40 33L40 34L39 34L39 33L37 33L37 31L38 31L38 30L39 30L39 31L41 31L41 29L40 29L40 30L39 30L39 28L40 28L40 27L41 27L41 24L40 24L40 23L41 23L41 22L40 22L40 21L41 21L41 13L40 13L40 16L39 16L39 17L38 17L38 18L39 18L39 19L40 19L40 20L39 20L39 21L38 21L38 22L40 22L40 23L39 23L39 24L37 24L37 25L36 25L36 23L34 23L34 22L35 22L35 21L36 21L36 22L37 22L37 17L36 17L36 16L35 16L35 15L36 15L36 14L37 14L37 15L38 15L38 14L39 14L39 12L38 12L38 11L40 11L40 12L41 12L41 9L40 9L40 8L39 8L39 9L36 9L36 8L34 8L34 9L32 9L32 7L33 7L33 5L31 5L31 3L28 3L28 2L30 2L30 0L29 0L29 1L28 1L28 0L27 0L27 1L26 1L26 0L24 0L24 1L23 1L23 0L20 0L20 1L19 1L19 2L18 2L18 3L17 3L17 1L18 1L18 0L14 0L14 1L13 1L13 0L12 0L12 1L11 1L11 3L10 3L10 2L9 2L9 1L10 1L10 0ZM32 0L32 1L31 1L31 2L32 2L32 3L33 3L33 2L32 2L32 1L33 1L33 0ZM15 1L15 2L16 2L16 1ZM20 1L20 2L19 2L19 3L18 3L18 5L17 5L17 4L15 4L15 3L14 3L14 2L13 2L13 3L12 3L12 4L11 4L11 7L12 7L12 5L13 5L13 7L14 7L14 8L15 8L15 10L14 10L14 9L13 9L13 8L12 8L12 9L11 9L11 11L13 11L13 12L14 12L14 16L13 16L13 15L12 15L12 17L11 17L11 14L13 14L13 13L12 13L12 12L11 12L11 13L10 13L10 12L8 12L8 14L7 14L7 15L8 15L8 16L7 16L7 17L6 17L6 18L7 18L7 19L8 19L8 20L9 20L9 19L8 19L8 18L9 18L9 17L8 17L8 16L10 16L10 17L11 17L11 18L10 18L10 22L9 22L9 21L6 21L6 22L7 22L7 23L6 23L6 24L7 24L7 25L5 25L5 24L4 24L4 25L5 25L5 26L3 26L3 27L2 27L2 28L3 28L3 31L4 31L4 32L5 32L5 29L6 29L6 30L8 30L8 31L9 31L9 32L10 32L10 33L9 33L9 34L10 34L10 33L11 33L11 34L12 34L12 33L11 33L11 32L12 32L12 31L15 31L15 30L16 30L16 29L15 29L15 28L18 28L18 27L15 27L15 28L13 28L13 23L14 23L14 24L15 24L15 26L16 26L16 25L17 25L17 26L19 26L19 29L20 29L20 30L18 30L18 31L20 31L20 30L21 30L21 29L20 29L20 27L21 27L21 28L23 28L23 29L24 29L24 30L23 30L23 32L24 32L24 34L25 34L25 32L26 32L26 33L28 33L28 36L26 36L26 37L25 37L25 35L24 35L24 40L25 40L25 38L26 38L26 39L27 39L27 37L29 37L29 38L28 38L28 39L29 39L29 38L30 38L30 37L31 37L31 36L32 36L32 35L30 35L30 34L29 34L29 33L28 33L28 32L26 32L26 31L27 31L27 30L28 30L28 31L30 31L30 33L31 33L31 34L32 34L32 32L31 32L31 31L30 31L30 29L31 29L31 28L30 28L30 29L28 29L28 28L29 28L29 27L26 27L26 26L27 26L27 25L28 25L28 26L29 26L29 25L28 25L28 23L27 23L27 24L26 24L26 22L25 22L25 21L24 21L24 23L23 23L23 21L20 21L20 24L19 24L19 23L18 23L18 24L16 24L16 22L17 22L17 21L16 21L16 20L17 20L17 18L18 18L18 17L17 17L17 18L16 18L16 19L14 19L14 16L15 16L15 17L16 17L16 15L17 15L17 16L19 16L19 20L21 20L21 18L20 18L20 16L21 16L21 15L20 15L20 16L19 16L19 14L21 14L21 13L23 13L23 14L22 14L22 15L24 15L24 16L25 16L25 15L24 15L24 13L23 13L23 12L24 12L24 11L25 11L25 13L27 13L27 14L26 14L26 17L27 17L27 16L28 16L28 19L29 19L29 18L30 18L30 19L31 19L31 20L32 20L32 21L30 21L30 20L27 20L27 18L25 18L25 17L23 17L23 18L22 18L22 20L24 20L24 19L23 19L23 18L25 18L25 20L27 20L27 21L29 21L29 23L30 23L30 25L31 25L31 27L32 27L32 28L33 28L33 29L32 29L32 31L33 31L33 32L34 32L34 31L37 31L37 30L36 30L36 29L37 29L37 27L36 27L36 25L35 25L35 24L34 24L34 25L32 25L32 24L33 24L33 23L32 23L32 21L35 21L35 20L36 20L36 19L35 19L35 18L36 18L36 17L35 17L35 16L34 16L34 15L32 15L32 14L31 14L31 15L30 15L30 13L29 13L29 12L27 12L27 11L25 11L25 8L27 8L27 9L28 9L28 11L30 11L30 12L31 12L31 11L32 11L32 13L33 13L33 14L36 14L36 13L37 13L37 14L38 14L38 13L37 13L37 12L35 12L35 11L37 11L37 10L36 10L36 9L35 9L35 10L33 10L33 11L32 11L32 9L28 9L28 6L29 6L29 7L30 7L30 8L31 8L31 7L32 7L32 6L31 6L31 7L30 7L30 6L29 6L29 5L30 5L30 4L29 4L29 5L27 5L27 4L28 4L28 3L26 3L26 2L25 2L25 4L24 4L24 2L23 2L23 1ZM27 1L27 2L28 2L28 1ZM20 2L20 3L19 3L19 4L21 4L21 3L22 3L22 4L23 4L23 3L22 3L22 2ZM13 3L13 4L14 4L14 3ZM18 5L18 7L19 7L19 5ZM24 5L24 7L25 7L25 6L26 6L26 7L27 7L27 5ZM14 6L14 7L15 7L15 8L16 8L16 7L17 7L17 6L16 6L16 7L15 7L15 6ZM20 6L20 7L21 7L21 6ZM22 6L22 8L20 8L20 10L18 10L18 9L19 9L19 8L18 8L18 9L16 9L16 10L15 10L15 11L14 11L14 12L17 12L17 13L16 13L16 14L15 14L15 15L16 15L16 14L18 14L18 11L20 11L20 13L21 13L21 10L22 10L22 12L23 12L23 11L24 11L24 10L22 10L22 9L24 9L24 8L23 8L23 6ZM12 9L12 10L13 10L13 9ZM30 10L30 11L31 11L31 10ZM6 11L6 12L7 12L7 11ZM33 11L33 13L35 13L35 12L34 12L34 11ZM28 13L28 15L29 15L29 17L32 17L32 20L33 20L33 17L32 17L32 16L30 16L30 15L29 15L29 13ZM2 14L2 15L1 15L1 16L2 16L2 17L5 17L5 16L4 16L4 15L3 15L3 14ZM8 14L8 15L10 15L10 14ZM2 15L2 16L3 16L3 15ZM7 17L7 18L8 18L8 17ZM34 17L34 18L35 18L35 17ZM0 18L0 19L1 19L1 18ZM11 18L11 20L13 20L13 21L11 21L11 22L10 22L10 23L9 23L9 22L8 22L8 23L7 23L7 24L8 24L8 25L7 25L7 26L5 26L5 28L4 28L4 29L5 29L5 28L6 28L6 29L7 29L7 28L8 28L8 30L9 30L9 31L10 31L10 32L11 32L11 31L10 31L10 30L9 30L9 28L8 28L8 27L10 27L10 26L11 26L11 27L12 27L12 26L11 26L11 25L12 25L12 24L10 24L10 23L12 23L12 22L14 22L14 23L15 23L15 22L16 22L16 21L15 21L15 20L13 20L13 18ZM34 19L34 20L35 20L35 19ZM0 20L0 21L1 21L1 20ZM2 20L2 22L1 22L1 24L2 24L2 22L4 22L4 20ZM14 21L14 22L15 22L15 21ZM8 23L8 24L9 24L9 25L8 25L8 26L7 26L7 27L6 27L6 28L7 28L7 27L8 27L8 26L10 26L10 24L9 24L9 23ZM21 23L21 25L19 25L19 24L18 24L18 25L19 25L19 26L21 26L21 25L22 25L22 26L23 26L23 27L24 27L24 29L26 29L26 30L27 30L27 29L26 29L26 28L25 28L25 25L24 25L24 26L23 26L23 25L22 25L22 24L23 24L23 23ZM24 23L24 24L25 24L25 23ZM0 25L0 26L1 26L1 25ZM34 25L34 26L32 26L32 27L34 27L34 28L35 28L35 29L36 29L36 27L35 27L35 25ZM37 25L37 26L38 26L38 28L39 28L39 25ZM10 28L10 29L11 29L11 30L13 30L13 29L11 29L11 28ZM14 29L14 30L15 30L15 29ZM33 29L33 30L34 30L34 29ZM24 30L24 31L25 31L25 30ZM6 31L6 32L7 32L7 31ZM16 31L16 32L15 32L15 33L16 33L16 32L17 32L17 31ZM13 32L13 33L14 33L14 32ZM33 33L33 36L36 36L36 33ZM15 34L15 36L16 36L16 34ZM34 34L34 35L35 35L35 34ZM9 35L9 37L12 37L12 36L13 36L13 35L11 35L11 36L10 36L10 35ZM20 37L20 38L21 38L21 37ZM32 37L32 39L33 39L33 37ZM10 38L10 39L11 39L11 38ZM12 40L12 41L14 41L14 40ZM15 40L15 41L17 41L17 40ZM0 0L0 7L7 7L7 0ZM1 1L1 6L6 6L6 1ZM2 2L2 5L5 5L5 2ZM34 0L34 7L41 7L41 0ZM35 1L35 6L40 6L40 1ZM36 2L36 5L39 5L39 2ZM0 34L0 41L7 41L7 34ZM1 35L1 40L6 40L6 35ZM2 36L2 39L5 39L5 36Z" fill="#000000"/></g></g></svg>
