<?xml version="1.0" encoding="UTF-8"?>
<svg xmlns="http://www.w3.org/2000/svg" version="1.1" width="200" height="200" viewBox="0 0 200 200"><rect x="0" y="0" width="200" height="200" fill="#ffffff"/><g transform="scale(4.878)"><g transform="translate(0,0)"><path fill-rule="evenodd" d="M8 0L8 3L9 3L9 0ZM13 0L13 2L15 2L15 4L14 4L14 3L13 3L13 4L14 4L14 5L16 5L16 7L17 7L17 8L18 8L18 9L16 9L16 8L15 8L15 9L16 9L16 11L17 11L17 10L19 10L19 8L18 8L18 7L19 7L19 4L20 4L20 3L21 3L21 5L20 5L20 7L21 7L21 5L23 5L23 4L24 4L24 3L25 3L25 1L24 1L24 0L22 0L22 1L21 1L21 2L20 2L20 3L19 3L19 4L17 4L17 3L16 3L16 2L18 2L18 1L20 1L20 0L18 0L18 1L16 1L16 2L15 2L15 0ZM26 0L26 1L27 1L27 2L26 2L26 3L31 3L31 2L30 2L30 1L32 1L32 2L33 2L33 0L29 0L29 1L27 1L27 0ZM10 1L10 4L9 4L9 5L8 5L8 12L5 12L5 11L4 11L4 10L6 10L6 11L7 11L7 10L6 10L6 9L7 9L7 8L6 8L6 9L5 9L5 8L2 8L2 9L1 9L1 10L0 10L0 12L1 12L1 13L2 13L2 14L1 14L1 15L0 15L0 20L1 20L1 15L2 15L2 16L3 16L3 17L2 17L2 22L3 22L3 23L4 23L4 25L3 25L3 27L2 27L2 23L1 23L1 24L0 24L0 25L1 25L1 28L0 28L0 33L1 33L1 30L2 30L2 29L3 29L3 27L4 27L4 29L5 29L5 30L6 30L6 31L4 31L4 33L5 33L5 32L6 32L6 33L7 33L7 32L8 32L8 34L10 34L10 33L9 33L9 32L10 32L10 30L11 30L11 33L12 33L12 32L13 32L13 35L11 35L11 36L10 36L10 35L9 35L9 36L8 36L8 39L9 39L9 40L11 40L11 41L12 41L12 40L13 40L13 41L15 41L15 40L13 40L13 39L12 39L12 40L11 40L11 39L9 39L9 38L10 38L10 37L11 37L11 38L13 38L13 37L14 37L14 38L15 38L15 39L17 39L17 41L19 41L19 40L20 40L20 41L31 41L31 40L33 40L33 41L34 41L34 40L33 40L33 39L35 39L35 40L36 40L36 39L37 39L37 40L40 40L40 38L41 38L41 37L39 37L39 36L38 36L38 35L37 35L37 32L38 32L38 34L39 34L39 35L40 35L40 36L41 36L41 35L40 35L40 34L41 34L41 33L40 33L40 32L41 32L41 31L40 31L40 30L41 30L41 29L39 29L39 31L40 31L40 32L38 32L38 31L37 31L37 29L36 29L36 28L38 28L38 26L39 26L39 27L40 27L40 28L41 28L41 27L40 27L40 26L41 26L41 23L39 23L39 24L40 24L40 26L39 26L39 25L36 25L36 24L37 24L37 21L39 21L39 20L36 20L36 19L35 19L35 17L36 17L36 18L38 18L38 17L39 17L39 18L41 18L41 16L40 16L40 17L39 17L39 16L37 16L37 15L36 15L36 14L38 14L38 15L40 15L40 14L41 14L41 13L40 13L40 14L38 14L38 13L36 13L36 14L35 14L35 15L36 15L36 16L35 16L35 17L34 17L34 16L32 16L32 17L31 17L31 16L29 16L29 15L31 15L31 12L29 12L29 13L28 13L28 11L29 11L29 10L26 10L26 11L24 11L24 10L25 10L25 9L24 9L24 8L23 8L23 6L22 6L22 8L23 8L23 12L26 12L26 13L27 13L27 14L29 14L29 15L28 15L28 16L29 16L29 17L31 17L31 18L30 18L30 19L31 19L31 20L30 20L30 21L31 21L31 22L32 22L32 23L30 23L30 24L29 24L29 23L28 23L28 22L26 22L26 21L29 21L29 20L27 20L27 19L29 19L29 18L26 18L26 15L25 15L25 13L22 13L22 14L21 14L21 11L22 11L22 10L21 10L21 9L20 9L20 12L18 12L18 13L17 13L17 14L16 14L16 12L15 12L15 11L13 11L13 8L12 8L12 11L11 11L11 9L10 9L10 8L9 8L9 5L10 5L10 7L11 7L11 5L10 5L10 4L11 4L11 2L12 2L12 1ZM22 1L22 2L21 2L21 3L22 3L22 4L23 4L23 2L24 2L24 1ZM32 3L32 4L30 4L30 5L29 5L29 4L28 4L28 5L27 5L27 4L26 4L26 5L25 5L25 6L24 6L24 7L25 7L25 8L28 8L28 9L31 9L31 10L30 10L30 11L31 11L31 10L34 10L34 11L33 11L33 12L32 12L32 13L33 13L33 14L32 14L32 15L34 15L34 13L35 13L35 12L38 12L38 11L40 11L40 10L41 10L41 8L38 8L38 9L40 9L40 10L37 10L37 9L36 9L36 8L33 8L33 9L31 9L31 8L32 8L32 7L33 7L33 5L32 5L32 4L33 4L33 3ZM16 4L16 5L17 5L17 4ZM26 5L26 6L25 6L25 7L26 7L26 6L27 6L27 7L28 7L28 8L30 8L30 6L31 6L31 7L32 7L32 5L30 5L30 6L29 6L29 5L28 5L28 6L27 6L27 5ZM12 6L12 7L13 7L13 6ZM14 6L14 7L15 7L15 6ZM17 6L17 7L18 7L18 6ZM28 6L28 7L29 7L29 6ZM3 9L3 10L1 10L1 11L3 11L3 10L4 10L4 9ZM9 10L9 12L8 12L8 13L6 13L6 14L7 14L7 15L6 15L6 16L7 16L7 17L5 17L5 16L4 16L4 17L3 17L3 19L4 19L4 17L5 17L5 19L6 19L6 20L7 20L7 21L5 21L5 22L4 22L4 23L5 23L5 22L7 22L7 21L8 21L8 20L9 20L9 19L10 19L10 20L12 20L12 21L11 21L11 22L10 22L10 21L9 21L9 22L10 22L10 24L9 24L9 25L6 25L6 26L9 26L9 25L10 25L10 24L11 24L11 27L10 27L10 28L11 28L11 29L12 29L12 30L13 30L13 31L14 31L14 28L15 28L15 30L18 30L18 31L17 31L17 32L14 32L14 33L15 33L15 34L16 34L16 35L17 35L17 36L18 36L18 34L19 34L19 33L18 33L18 32L19 32L19 31L20 31L20 32L21 32L21 33L20 33L20 35L19 35L19 36L21 36L21 38L20 38L20 40L22 40L22 39L24 39L24 38L25 38L25 37L26 37L26 39L25 39L25 40L26 40L26 39L27 39L27 38L28 38L28 37L32 37L32 38L31 38L31 39L30 39L30 38L29 38L29 39L28 39L28 40L31 40L31 39L33 39L33 38L36 38L36 37L32 37L32 36L28 36L28 37L26 37L26 36L27 36L27 34L28 34L28 35L29 35L29 33L27 33L27 32L26 32L26 31L27 31L27 29L26 29L26 30L24 30L24 29L23 29L23 28L25 28L25 27L26 27L26 26L28 26L28 27L29 27L29 28L30 28L30 29L31 29L31 30L32 30L32 31L33 31L33 32L35 32L35 31L36 31L36 29L35 29L35 27L37 27L37 26L36 26L36 25L35 25L35 24L36 24L36 23L35 23L35 22L36 22L36 21L35 21L35 19L34 19L34 18L33 18L33 17L32 17L32 18L31 18L31 19L33 19L33 20L31 20L31 21L33 21L33 24L34 24L34 25L32 25L32 24L31 24L31 25L30 25L30 26L29 26L29 25L27 25L27 24L28 24L28 23L25 23L25 22L24 22L24 18L23 18L23 17L24 17L24 16L25 16L25 15L24 15L24 14L22 14L22 15L23 15L23 16L21 16L21 14L20 14L20 13L18 13L18 14L17 14L17 15L16 15L16 14L15 14L15 16L17 16L17 17L15 17L15 18L17 18L17 17L18 17L18 19L20 19L20 21L21 21L21 22L19 22L19 21L18 21L18 20L16 20L16 21L15 21L15 20L14 20L14 19L13 19L13 18L14 18L14 15L13 15L13 14L14 14L14 13L15 13L15 12L14 12L14 13L13 13L13 12L12 12L12 13L13 13L13 14L12 14L12 15L11 15L11 13L10 13L10 12L11 12L11 11L10 11L10 10ZM36 10L36 11L37 11L37 10ZM26 11L26 12L27 12L27 11ZM2 12L2 13L3 13L3 15L4 15L4 14L5 14L5 12ZM33 12L33 13L34 13L34 12ZM8 13L8 14L10 14L10 13ZM29 13L29 14L30 14L30 13ZM7 15L7 16L8 16L8 17L9 17L9 18L10 18L10 16L11 16L11 18L12 18L12 17L13 17L13 16L11 16L11 15L10 15L10 16L9 16L9 15ZM18 16L18 17L21 17L21 16ZM36 16L36 17L37 17L37 16ZM6 18L6 19L8 19L8 18ZM20 18L20 19L21 19L21 21L22 21L22 23L18 23L18 22L15 22L15 21L14 21L14 20L13 20L13 19L12 19L12 20L13 20L13 21L14 21L14 22L15 22L15 24L14 24L14 25L13 25L13 24L12 24L12 22L11 22L11 24L12 24L12 25L13 25L13 26L12 26L12 27L11 27L11 28L13 28L13 27L15 27L15 28L16 28L16 29L17 29L17 28L16 28L16 26L15 26L15 24L16 24L16 25L17 25L17 26L18 26L18 28L19 28L19 27L20 27L20 28L21 28L21 29L22 29L22 31L23 31L23 33L21 33L21 35L22 35L22 34L24 34L24 33L25 33L25 34L26 34L26 32L24 32L24 31L23 31L23 29L22 29L22 28L23 28L23 27L25 27L25 26L26 26L26 25L25 25L25 26L24 26L24 25L22 25L22 24L23 24L23 23L24 23L24 22L23 22L23 18ZM3 20L3 21L4 21L4 20ZM33 20L33 21L34 21L34 22L35 22L35 21L34 21L34 20ZM40 20L40 21L41 21L41 20ZM6 23L6 24L7 24L7 23ZM16 23L16 24L18 24L18 26L20 26L20 27L21 27L21 28L22 28L22 25L20 25L20 24L18 24L18 23ZM31 25L31 26L32 26L32 27L31 27L31 28L32 28L32 27L34 27L34 26L35 26L35 25L34 25L34 26L32 26L32 25ZM4 26L4 27L5 27L5 26ZM6 27L6 28L7 28L7 27ZM8 27L8 29L6 29L6 30L7 30L7 31L6 31L6 32L7 32L7 31L8 31L8 30L9 30L9 27ZM33 28L33 29L32 29L32 30L33 30L33 29L34 29L34 28ZM28 29L28 30L29 30L29 31L28 31L28 32L31 32L31 31L30 31L30 30L29 30L29 29ZM20 30L20 31L21 31L21 30ZM34 30L34 31L35 31L35 30ZM2 31L2 32L3 32L3 31ZM17 33L17 34L18 34L18 33ZM30 33L30 35L31 35L31 34L32 34L32 33ZM33 33L33 36L36 36L36 33ZM34 34L34 35L35 35L35 34ZM13 35L13 36L15 36L15 35ZM23 35L23 36L22 36L22 37L23 37L23 36L25 36L25 35ZM9 36L9 37L10 37L10 36ZM11 36L11 37L12 37L12 36ZM37 36L37 37L38 37L38 36ZM16 37L16 38L18 38L18 40L19 40L19 37ZM37 38L37 39L38 39L38 38ZM0 0L0 7L7 7L7 0ZM1 1L1 6L6 6L6 1ZM2 2L2 5L5 5L5 2ZM34 0L34 7L41 7L41 0ZM35 1L35 6L40 6L40 1ZM36 2L36 5L39 5L39 2ZM0 34L0 41L7 41L7 34ZM1 35L1 40L6 40L6 35ZM2 36L2 39L5 39L5 36Z" fill="#000000"/></g></g></svg>
