<?xml version="1.0" encoding="UTF-8"?>
<svg xmlns="http://www.w3.org/2000/svg" version="1.1" width="200" height="200" viewBox="0 0 200 200"><rect x="0" y="0" width="200" height="200" fill="#ffffff"/><g transform="scale(6.897)"><g transform="translate(0,0)"><path fill-rule="evenodd" d="M8 0L8 3L10 3L10 4L9 4L9 5L8 5L8 9L7 9L7 8L6 8L6 9L5 9L5 8L2 8L2 9L4 9L4 10L3 10L3 12L4 12L4 13L5 13L5 12L6 12L6 13L7 13L7 12L6 12L6 11L10 11L10 10L11 10L11 12L8 12L8 13L9 13L9 15L7 15L7 14L6 14L6 15L7 15L7 16L5 16L5 15L4 15L4 16L3 16L3 17L2 17L2 11L0 11L0 12L1 12L1 13L0 13L0 15L1 15L1 16L0 16L0 21L1 21L1 18L3 18L3 19L2 19L2 21L7 21L7 20L6 20L6 19L8 19L8 20L13 20L13 21L10 21L10 22L9 22L9 21L8 21L8 22L9 22L9 24L8 24L8 27L9 27L9 28L10 28L10 29L12 29L12 28L13 28L13 29L16 29L16 28L17 28L17 27L18 27L18 29L25 29L25 27L23 27L23 26L22 26L22 25L24 25L24 26L25 26L25 25L26 25L26 26L27 26L27 27L26 27L26 29L28 29L28 28L29 28L29 27L28 27L28 25L29 25L29 24L28 24L28 25L26 25L26 24L25 24L25 22L26 22L26 23L27 23L27 22L28 22L28 23L29 23L29 20L28 20L28 19L27 19L27 17L28 17L28 10L29 10L29 8L26 8L26 9L25 9L25 12L24 12L24 11L22 11L22 12L23 12L23 13L21 13L21 15L22 15L22 14L23 14L23 13L24 13L24 19L25 19L25 20L23 20L23 19L22 19L22 18L20 18L20 19L21 19L21 20L20 20L20 25L19 25L19 23L18 23L18 22L17 22L17 18L19 18L19 17L17 17L17 18L15 18L15 19L16 19L16 20L13 20L13 19L12 19L12 18L11 18L11 17L10 17L10 16L9 16L9 15L10 15L10 13L11 13L11 16L12 16L12 17L13 17L13 16L14 16L14 15L16 15L16 16L15 16L15 17L16 17L16 16L17 16L17 15L16 15L16 14L15 14L15 13L16 13L16 12L14 12L14 10L16 10L16 9L17 9L17 14L18 14L18 13L20 13L20 12L21 12L21 11L20 11L20 10L22 10L22 9L23 9L23 10L24 10L24 8L21 8L21 9L20 9L20 7L21 7L21 5L20 5L20 4L21 4L21 3L20 3L20 4L19 4L19 3L18 3L18 4L17 4L17 3L16 3L16 4L15 4L15 2L17 2L17 1L16 1L16 0L13 0L13 1L12 1L12 2L11 2L11 0ZM9 1L9 2L10 2L10 1ZM13 1L13 4L12 4L12 3L11 3L11 4L10 4L10 5L11 5L11 10L12 10L12 9L13 9L13 8L12 8L12 6L13 6L13 7L14 7L14 9L15 9L15 8L16 8L16 6L17 6L17 7L18 7L18 6L19 6L19 7L20 7L20 6L19 6L19 5L18 5L18 6L17 6L17 4L16 4L16 5L14 5L14 2L15 2L15 1ZM18 1L18 2L19 2L19 1ZM20 1L20 2L21 2L21 1ZM11 4L11 5L12 5L12 4ZM9 6L9 7L10 7L10 6ZM14 6L14 7L15 7L15 6ZM17 8L17 9L19 9L19 10L20 10L20 9L19 9L19 8ZM6 9L6 10L7 10L7 9ZM8 9L8 10L9 10L9 9ZM26 10L26 11L27 11L27 10ZM4 11L4 12L5 12L5 11ZM12 11L12 12L11 12L11 13L12 13L12 16L13 16L13 15L14 15L14 13L13 13L13 11ZM18 11L18 12L19 12L19 11ZM25 12L25 13L26 13L26 14L27 14L27 12ZM18 15L18 16L19 16L19 15ZM25 15L25 16L27 16L27 15ZM4 16L4 17L5 17L5 16ZM7 16L7 17L6 17L6 18L4 18L4 19L6 19L6 18L7 18L7 17L8 17L8 19L9 19L9 18L10 18L10 17L9 17L9 16ZM20 16L20 17L22 17L22 16ZM25 18L25 19L26 19L26 18ZM18 19L18 20L19 20L19 19ZM25 20L25 21L26 21L26 22L27 22L27 21L28 21L28 20ZM13 21L13 23L12 23L12 22L11 22L11 24L9 24L9 25L11 25L11 24L12 24L12 25L13 25L13 26L15 26L15 25L17 25L17 26L16 26L16 27L14 27L14 28L16 28L16 27L17 27L17 26L18 26L18 27L19 27L19 28L22 28L22 27L21 27L21 26L20 26L20 27L19 27L19 25L17 25L17 24L16 24L16 23L17 23L17 22L16 22L16 21ZM21 21L21 24L24 24L24 21ZM14 22L14 23L13 23L13 24L14 24L14 25L15 25L15 24L14 24L14 23L15 23L15 22ZM22 22L22 23L23 23L23 22ZM9 26L9 27L10 27L10 28L12 28L12 26L11 26L11 27L10 27L10 26ZM0 0L0 7L7 7L7 0ZM1 1L1 6L6 6L6 1ZM2 2L2 5L5 5L5 2ZM22 0L22 7L29 7L29 0ZM23 1L23 6L28 6L28 1ZM24 2L24 5L27 5L27 2ZM0 22L0 29L7 29L7 22ZM1 23L1 28L6 28L6 23ZM2 24L2 27L5 27L5 24Z" fill="#000000"/></g></g></svg>
