<?xml version="1.0" encoding="UTF-8"?>
<svg xmlns="http://www.w3.org/2000/svg" version="1.1" width="200" height="200" viewBox="0 0 200 200"><rect x="0" y="0" width="200" height="200" fill="#ffffff"/><g transform="scale(6.897)"><g transform="translate(0,0)"><path fill-rule="evenodd" d="M8 0L8 3L9 3L9 4L10 4L10 5L13 5L13 6L12 6L12 7L11 7L11 6L10 6L10 7L9 7L9 5L8 5L8 10L6 10L6 9L7 9L7 8L6 8L6 9L5 9L5 8L2 8L2 9L1 9L1 10L0 10L0 14L1 14L1 15L0 15L0 16L1 16L1 15L2 15L2 16L5 16L5 17L7 17L7 16L9 16L9 15L7 15L7 14L9 14L9 13L12 13L12 14L11 14L11 15L10 15L10 18L8 18L8 19L10 19L10 21L8 21L8 20L6 20L6 19L7 19L7 18L5 18L5 20L3 20L3 19L4 19L4 18L2 18L2 17L0 17L0 21L1 21L1 18L2 18L2 20L3 20L3 21L8 21L8 22L9 22L9 24L8 24L8 27L9 27L9 28L10 28L10 27L9 27L9 26L10 26L10 25L12 25L12 26L11 26L11 29L12 29L12 27L13 27L13 24L12 24L12 23L11 23L11 22L14 22L14 23L15 23L15 22L16 22L16 23L18 23L18 24L17 24L17 25L16 25L16 24L15 24L15 25L16 25L16 26L15 26L15 27L17 27L17 28L16 28L16 29L17 29L17 28L18 28L18 29L26 29L26 28L25 28L25 27L23 27L23 26L22 26L22 25L24 25L24 26L25 26L25 25L26 25L26 24L25 24L25 22L26 22L26 23L27 23L27 29L28 29L28 28L29 28L29 27L28 27L28 23L29 23L29 20L28 20L28 19L27 19L27 17L28 17L28 10L29 10L29 8L26 8L26 9L27 9L27 10L25 10L25 12L24 12L24 11L22 11L22 12L23 12L23 13L21 13L21 15L22 15L22 14L23 14L23 13L24 13L24 19L27 19L27 20L28 20L28 22L26 22L26 21L25 21L25 20L23 20L23 19L22 19L22 18L20 18L20 19L21 19L21 20L20 20L20 25L19 25L19 22L16 22L16 21L17 21L17 20L18 20L18 21L19 21L19 17L18 17L18 16L19 16L19 15L18 15L18 16L17 16L17 15L15 15L15 14L14 14L14 15L13 15L13 16L12 16L12 14L13 14L13 13L12 13L12 12L14 12L14 13L15 13L15 10L14 10L14 9L16 9L16 8L19 8L19 9L17 9L17 10L16 10L16 14L17 14L17 13L18 13L18 14L19 14L19 13L20 13L20 12L21 12L21 11L20 11L20 10L22 10L22 9L23 9L23 10L24 10L24 8L21 8L21 5L20 5L20 4L21 4L21 3L20 3L20 4L19 4L19 3L18 3L18 4L17 4L17 6L16 6L16 8L15 8L15 5L16 5L16 4L15 4L15 3L16 3L16 2L17 2L17 1L16 1L16 2L15 2L15 3L14 3L14 2L13 2L13 3L12 3L12 2L11 2L11 1L13 1L13 0ZM14 0L14 1L15 1L15 0ZM9 1L9 3L11 3L11 4L12 4L12 3L11 3L11 2L10 2L10 1ZM18 1L18 2L19 2L19 1ZM20 1L20 2L21 2L21 1ZM13 4L13 5L15 5L15 4ZM18 4L18 6L17 6L17 7L18 7L18 6L19 6L19 7L20 7L20 6L19 6L19 4ZM13 6L13 8L12 8L12 9L10 9L10 8L11 8L11 7L10 7L10 8L9 8L9 9L10 9L10 10L8 10L8 11L6 11L6 10L5 10L5 12L3 12L3 13L2 13L2 11L3 11L3 10L2 10L2 11L1 11L1 14L3 14L3 13L5 13L5 14L4 14L4 15L5 15L5 16L7 16L7 15L5 15L5 14L7 14L7 13L5 13L5 12L8 12L8 13L9 13L9 12L12 12L12 11L14 11L14 10L12 10L12 9L13 9L13 8L14 8L14 6ZM20 8L20 9L19 9L19 10L20 10L20 9L21 9L21 8ZM11 10L11 11L12 11L12 10ZM17 10L17 11L18 11L18 10ZM8 11L8 12L9 12L9 11ZM25 12L25 13L26 13L26 14L27 14L27 12ZM14 15L14 16L15 16L15 15ZM25 15L25 16L27 16L27 15ZM11 16L11 19L13 19L13 20L11 20L11 21L10 21L10 22L11 22L11 21L13 21L13 20L14 20L14 21L15 21L15 20L14 20L14 19L13 19L13 18L12 18L12 16ZM20 16L20 17L22 17L22 16ZM14 17L14 18L15 18L15 19L16 19L16 18L15 18L15 17ZM17 18L17 19L18 19L18 18ZM21 21L21 24L24 24L24 21ZM22 22L22 23L23 23L23 22ZM9 24L9 25L10 25L10 24ZM20 26L20 27L19 27L19 28L22 28L22 27L21 27L21 26ZM13 28L13 29L15 29L15 28ZM0 0L0 7L7 7L7 0ZM1 1L1 6L6 6L6 1ZM2 2L2 5L5 5L5 2ZM22 0L22 7L29 7L29 0ZM23 1L23 6L28 6L28 1ZM24 2L24 5L27 5L27 2ZM0 22L0 29L7 29L7 22ZM1 23L1 28L6 28L6 23ZM2 24L2 27L5 27L5 24Z" fill="#000000"/></g></g></svg>
