<?xml version="1.0" encoding="UTF-8"?>
<svg xmlns="http://www.w3.org/2000/svg" version="1.1" width="200" height="200" viewBox="0 0 200 200"><rect x="0" y="0" width="200" height="200" fill="#ffffff"/><g transform="scale(6.897)"><g transform="translate(0,0)"><path fill-rule="evenodd" d="M8 0L8 1L10 1L10 0ZM15 0L15 1L17 1L17 2L18 2L18 1L17 1L17 0ZM20 0L20 1L19 1L19 2L20 2L20 3L19 3L19 5L18 5L18 3L16 3L16 2L14 2L14 1L12 1L12 2L14 2L14 3L15 3L15 5L16 5L16 7L15 7L15 6L14 6L14 7L13 7L13 5L12 5L12 7L11 7L11 6L10 6L10 4L11 4L11 2L9 2L9 3L8 3L8 4L9 4L9 6L8 6L8 7L9 7L9 6L10 6L10 7L11 7L11 8L10 8L10 10L8 10L8 9L9 9L9 8L8 8L8 9L7 9L7 8L4 8L4 9L3 9L3 8L2 8L2 9L0 9L0 13L1 13L1 11L2 11L2 14L3 14L3 10L4 10L4 11L5 11L5 12L4 12L4 13L5 13L5 12L6 12L6 13L7 13L7 14L6 14L6 15L7 15L7 16L6 16L6 17L5 17L5 15L4 15L4 17L3 17L3 18L2 18L2 19L1 19L1 18L0 18L0 19L1 19L1 20L0 20L0 21L1 21L1 20L2 20L2 21L4 21L4 20L5 20L5 21L7 21L7 20L8 20L8 22L10 22L10 23L8 23L8 25L9 25L9 26L8 26L8 27L9 27L9 29L10 29L10 27L11 27L11 28L13 28L13 29L14 29L14 27L18 27L18 28L19 28L19 29L20 29L20 27L21 27L21 26L22 26L22 25L23 25L23 26L24 26L24 25L27 25L27 26L28 26L28 27L27 27L27 28L26 28L26 26L25 26L25 28L23 28L23 27L22 27L22 28L23 28L23 29L27 29L27 28L28 28L28 29L29 29L29 26L28 26L28 25L29 25L29 24L28 24L28 23L27 23L27 24L26 24L26 23L25 23L25 20L26 20L26 21L28 21L28 22L29 22L29 21L28 21L28 19L29 19L29 18L27 18L27 17L26 17L26 14L24 14L24 13L25 13L25 11L26 11L26 13L27 13L27 12L28 12L28 13L29 13L29 12L28 12L28 11L29 11L29 8L28 8L28 9L27 9L27 10L28 10L28 11L26 11L26 8L25 8L25 9L24 9L24 10L25 10L25 11L24 11L24 12L23 12L23 10L22 10L22 8L21 8L21 0ZM12 3L12 4L13 4L13 3ZM16 4L16 5L17 5L17 7L16 7L16 8L17 8L17 9L15 9L15 7L14 7L14 9L15 9L15 10L13 10L13 11L11 11L11 10L12 10L12 9L13 9L13 8L12 8L12 9L11 9L11 10L10 10L10 11L8 11L8 10L7 10L7 9L5 9L5 10L7 10L7 11L6 11L6 12L7 12L7 13L8 13L8 14L7 14L7 15L8 15L8 14L9 14L9 15L10 15L10 17L12 17L12 15L13 15L13 16L14 16L14 17L13 17L13 18L12 18L12 20L11 20L11 19L10 19L10 20L11 20L11 22L13 22L13 20L14 20L14 23L15 23L15 24L14 24L14 25L11 25L11 24L13 24L13 23L11 23L11 24L9 24L9 25L10 25L10 26L9 26L9 27L10 27L10 26L12 26L12 27L14 27L14 26L15 26L15 24L16 24L16 23L17 23L17 24L18 24L18 25L19 25L19 26L20 26L20 24L18 24L18 23L17 23L17 22L15 22L15 21L17 21L17 20L19 20L19 21L18 21L18 22L19 22L19 23L20 23L20 22L19 22L19 21L20 21L20 20L21 20L21 19L22 19L22 18L23 18L23 19L24 19L24 20L25 20L25 19L27 19L27 18L26 18L26 17L24 17L24 16L25 16L25 15L24 15L24 14L23 14L23 15L22 15L22 14L21 14L21 13L20 13L20 14L19 14L19 13L17 13L17 14L19 14L19 15L18 15L18 16L19 16L19 17L20 17L20 18L18 18L18 19L17 19L17 18L15 18L15 17L17 17L17 16L16 16L16 14L15 14L15 16L14 16L14 14L13 14L13 13L16 13L16 12L14 12L14 11L16 11L16 10L17 10L17 12L18 12L18 11L19 11L19 12L20 12L20 11L19 11L19 9L20 9L20 5L19 5L19 7L18 7L18 5L17 5L17 4ZM2 9L2 10L3 10L3 9ZM17 9L17 10L18 10L18 9ZM21 11L21 12L22 12L22 11ZM9 12L9 13L13 13L13 12ZM0 14L0 17L2 17L2 16L3 16L3 15L1 15L1 14ZM11 14L11 15L12 15L12 14ZM20 14L20 15L19 15L19 16L20 16L20 15L21 15L21 14ZM28 14L28 15L27 15L27 16L28 16L28 17L29 17L29 16L28 16L28 15L29 15L29 14ZM23 15L23 16L22 16L22 17L23 17L23 18L24 18L24 19L25 19L25 18L24 18L24 17L23 17L23 16L24 16L24 15ZM8 16L8 17L6 17L6 18L7 18L7 19L6 19L6 20L7 20L7 19L9 19L9 16ZM4 18L4 19L5 19L5 18ZM14 18L14 19L15 19L15 18ZM2 19L2 20L3 20L3 19ZM19 19L19 20L20 20L20 19ZM21 21L21 24L24 24L24 21ZM22 22L22 23L23 23L23 22ZM27 24L27 25L28 25L28 24ZM16 25L16 26L17 26L17 25ZM0 0L0 7L7 7L7 0ZM1 1L1 6L6 6L6 1ZM2 2L2 5L5 5L5 2ZM22 0L22 7L29 7L29 0ZM23 1L23 6L28 6L28 1ZM24 2L24 5L27 5L27 2ZM0 22L0 29L7 29L7 22ZM1 23L1 28L6 28L6 23ZM2 24L2 27L5 27L5 24Z" fill="#000000"/></g></g></svg>
