<?xml version="1.0" encoding="UTF-8"?>
<svg xmlns="http://www.w3.org/2000/svg" version="1.1" width="200" height="200" viewBox="0 0 200 200"><rect x="0" y="0" width="200" height="200" fill="#ffffff"/><g transform="scale(4.878)"><g transform="translate(0,0)"><path fill-rule="evenodd" d="M8 0L8 3L9 3L9 2L10 2L10 4L9 4L9 5L8 5L8 10L6 10L6 11L4 11L4 10L3 10L3 9L5 9L5 8L2 8L2 10L1 10L1 11L2 11L2 12L1 12L1 13L0 13L0 14L3 14L3 13L2 13L2 12L4 12L4 13L5 13L5 12L6 12L6 13L7 13L7 14L4 14L4 15L5 15L5 17L4 17L4 16L3 16L3 17L4 17L4 19L3 19L3 18L2 18L2 17L1 17L1 16L2 16L2 15L1 15L1 16L0 16L0 17L1 17L1 18L0 18L0 20L1 20L1 18L2 18L2 19L3 19L3 20L2 20L2 21L3 21L3 22L5 22L5 21L8 21L8 20L5 20L5 21L3 21L3 20L4 20L4 19L9 19L9 21L10 21L10 22L6 22L6 23L4 23L4 24L3 24L3 23L2 23L2 24L3 24L3 26L2 26L2 25L1 25L1 24L0 24L0 28L1 28L1 26L2 26L2 29L3 29L3 30L2 30L2 31L4 31L4 32L2 32L2 33L5 33L5 31L8 31L8 32L9 32L9 33L8 33L8 34L9 34L9 33L11 33L11 34L10 34L10 35L12 35L12 36L11 36L11 37L14 37L14 38L13 38L13 39L12 39L12 38L9 38L9 37L10 37L10 36L8 36L8 39L9 39L9 40L10 40L10 39L12 39L12 41L13 41L13 39L14 39L14 41L15 41L15 38L16 38L16 41L17 41L17 40L18 40L18 41L19 41L19 40L20 40L20 41L23 41L23 40L24 40L24 41L25 41L25 40L26 40L26 39L27 39L27 40L28 40L28 41L31 41L31 40L33 40L33 41L34 41L34 40L33 40L33 39L35 39L35 40L36 40L36 39L37 39L37 40L40 40L40 38L41 38L41 37L40 37L40 36L41 36L41 35L40 35L40 34L41 34L41 33L40 33L40 32L37 32L37 31L36 31L36 30L38 30L38 31L40 31L40 30L41 30L41 29L40 29L40 28L39 28L39 30L38 30L38 29L36 29L36 28L35 28L35 29L36 29L36 30L34 30L34 31L35 31L35 32L33 32L33 31L32 31L32 30L33 30L33 29L34 29L34 28L33 28L33 29L32 29L32 30L31 30L31 32L28 32L28 31L30 31L30 30L28 30L28 29L31 29L31 28L28 28L28 27L29 27L29 26L30 26L30 25L31 25L31 26L32 26L32 27L34 27L34 26L36 26L36 27L37 27L37 28L38 28L38 26L39 26L39 27L40 27L40 26L41 26L41 23L39 23L39 22L38 22L38 21L39 21L39 20L36 20L36 19L35 19L35 17L36 17L36 18L38 18L38 17L39 17L39 16L38 16L38 14L41 14L41 13L40 13L40 12L41 12L41 11L40 11L40 10L41 10L41 8L38 8L38 9L40 9L40 10L37 10L37 9L36 9L36 8L33 8L33 6L32 6L32 9L30 9L30 8L29 8L29 6L30 6L30 7L31 7L31 6L30 6L30 5L32 5L32 4L33 4L33 0L29 0L29 1L27 1L27 0L26 0L26 1L27 1L27 2L26 2L26 3L31 3L31 2L30 2L30 1L32 1L32 4L30 4L30 5L29 5L29 4L28 4L28 5L27 5L27 4L25 4L25 6L24 6L24 8L25 8L25 9L24 9L24 10L25 10L25 11L26 11L26 10L25 10L25 9L26 9L26 8L25 8L25 6L26 6L26 7L27 7L27 6L28 6L28 8L27 8L27 9L30 9L30 11L31 11L31 10L32 10L32 11L33 11L33 12L32 12L32 13L33 13L33 14L32 14L32 15L34 15L34 13L35 13L35 11L36 11L36 12L38 12L38 11L40 11L40 12L39 12L39 13L38 13L38 14L37 14L37 13L36 13L36 14L35 14L35 15L37 15L37 16L38 16L38 17L36 17L36 16L35 16L35 17L34 17L34 16L33 16L33 17L31 17L31 15L30 15L30 16L29 16L29 15L28 15L28 16L29 16L29 17L31 17L31 18L30 18L30 19L31 19L31 20L30 20L30 21L31 21L31 22L30 22L30 23L31 23L31 24L29 24L29 23L28 23L28 22L27 22L27 23L28 23L28 24L26 24L26 23L25 23L25 24L24 24L24 26L23 26L23 25L22 25L22 26L20 26L20 25L21 25L21 24L22 24L22 23L24 23L24 22L25 22L25 20L28 20L28 21L29 21L29 20L28 20L28 19L29 19L29 18L26 18L26 19L25 19L25 18L24 18L24 17L27 17L27 14L29 14L29 13L30 13L30 14L31 14L31 12L29 12L29 11L28 11L28 10L27 10L27 11L28 11L28 12L27 12L27 14L26 14L26 12L24 12L24 11L23 11L23 10L22 10L22 9L23 9L23 8L22 8L22 7L23 7L23 5L24 5L24 4L23 4L23 3L22 3L22 2L24 2L24 3L25 3L25 2L24 2L24 1L25 1L25 0L23 0L23 1L22 1L22 0L17 0L17 1L16 1L16 2L17 2L17 1L20 1L20 4L19 4L19 5L18 5L18 7L17 7L17 6L16 6L16 7L15 7L15 6L14 6L14 7L13 7L13 6L12 6L12 5L14 5L14 3L15 3L15 4L18 4L18 3L15 3L15 1L14 1L14 0ZM11 1L11 2L12 2L12 3L14 3L14 1L13 1L13 2L12 2L12 1ZM10 4L10 5L12 5L12 4ZM9 6L9 8L11 8L11 7L12 7L12 8L13 8L13 9L10 9L10 11L9 11L9 10L8 10L8 11L6 11L6 12L7 12L7 13L8 13L8 15L6 15L6 16L7 16L7 17L6 17L6 18L9 18L9 19L10 19L10 18L9 18L9 17L8 17L8 16L9 16L9 14L12 14L12 15L10 15L10 16L11 16L11 18L12 18L12 17L13 17L13 19L11 19L11 20L12 20L12 22L11 22L11 23L10 23L10 24L8 24L8 23L6 23L6 24L5 24L5 26L7 26L7 27L4 27L4 31L5 31L5 28L7 28L7 29L6 29L6 30L8 30L8 31L9 31L9 32L11 32L11 28L10 28L10 29L9 29L9 30L8 30L8 28L7 28L7 27L8 27L8 26L9 26L9 27L10 27L10 26L11 26L11 25L12 25L12 24L11 24L11 23L12 23L12 22L13 22L13 23L14 23L14 24L15 24L15 23L14 23L14 22L15 22L15 21L17 21L17 20L16 20L16 19L17 19L17 18L21 18L21 17L24 17L24 16L21 16L21 15L20 15L20 14L21 14L21 13L22 13L22 15L24 15L24 13L23 13L23 12L21 12L21 9L20 9L20 6L19 6L19 7L18 7L18 8L19 8L19 9L18 9L18 10L16 10L16 9L15 9L15 10L16 10L16 11L15 11L15 12L14 12L14 8L13 8L13 7L12 7L12 6L11 6L11 7L10 7L10 6ZM21 6L21 7L22 7L22 6ZM16 7L16 8L17 8L17 7ZM6 8L6 9L7 9L7 8ZM19 9L19 10L18 10L18 11L16 11L16 12L17 12L17 13L14 13L14 12L13 12L13 13L12 13L12 11L10 11L10 13L12 13L12 14L14 14L14 15L13 15L13 16L14 16L14 17L15 17L15 19L16 19L16 18L17 18L17 17L16 17L16 16L17 16L17 13L18 13L18 11L19 11L19 14L20 14L20 9ZM32 9L32 10L33 10L33 11L34 11L34 9ZM35 9L35 10L36 10L36 9ZM8 11L8 12L9 12L9 11ZM28 12L28 13L29 13L29 12ZM33 12L33 13L34 13L34 12ZM15 14L15 15L16 15L16 14ZM18 15L18 16L19 16L19 17L20 17L20 16L19 16L19 15ZM25 15L25 16L26 16L26 15ZM40 16L40 18L39 18L39 19L40 19L40 18L41 18L41 16ZM23 18L23 20L22 20L22 19L21 19L21 20L19 20L19 19L18 19L18 20L19 20L19 21L18 21L18 22L16 22L16 23L17 23L17 24L16 24L16 25L13 25L13 26L12 26L12 31L13 31L13 32L12 32L12 33L13 33L13 32L14 32L14 30L15 30L15 29L14 29L14 28L16 28L16 29L17 29L17 30L16 30L16 31L17 31L17 33L16 33L16 32L15 32L15 33L14 33L14 34L13 34L13 36L15 36L15 37L17 37L17 35L14 35L14 34L15 34L15 33L16 33L16 34L17 34L17 33L20 33L20 34L19 34L19 37L18 37L18 38L20 38L20 39L21 39L21 38L23 38L23 39L24 39L24 40L25 40L25 38L26 38L26 36L27 36L27 34L29 34L29 33L27 33L27 34L25 34L25 33L26 33L26 32L27 32L27 31L26 31L26 32L24 32L24 33L22 33L22 34L21 34L21 31L20 31L20 32L18 32L18 31L17 31L17 30L19 30L19 28L18 28L18 26L17 26L17 25L19 25L19 24L20 24L20 22L21 22L21 21L24 21L24 20L25 20L25 19L24 19L24 18ZM31 18L31 19L32 19L32 18ZM33 18L33 20L31 20L31 21L33 21L33 23L35 23L35 24L33 24L33 25L32 25L32 24L31 24L31 25L32 25L32 26L33 26L33 25L39 25L39 26L40 26L40 24L39 24L39 23L38 23L38 22L37 22L37 24L36 24L36 23L35 23L35 22L36 22L36 21L35 21L35 19L34 19L34 18ZM13 19L13 22L14 22L14 19ZM33 20L33 21L34 21L34 22L35 22L35 21L34 21L34 20ZM40 20L40 21L41 21L41 20ZM0 22L0 23L1 23L1 22ZM31 22L31 23L32 23L32 22ZM18 23L18 24L19 24L19 23ZM6 24L6 25L7 25L7 26L8 26L8 25L7 25L7 24ZM10 24L10 25L9 25L9 26L10 26L10 25L11 25L11 24ZM28 24L28 25L27 25L27 26L28 26L28 25L29 25L29 24ZM22 26L22 27L23 27L23 26ZM24 26L24 28L23 28L23 29L22 29L22 28L21 28L21 27L20 27L20 28L21 28L21 29L20 29L20 30L21 30L21 29L22 29L22 32L23 32L23 31L24 31L24 30L25 30L25 29L24 29L24 28L26 28L26 26ZM16 27L16 28L17 28L17 27ZM27 28L27 29L26 29L26 30L27 30L27 29L28 29L28 28ZM0 29L0 33L1 33L1 29ZM6 32L6 33L7 33L7 32ZM30 33L30 35L31 35L31 36L29 36L29 35L28 35L28 36L29 36L29 37L27 37L27 38L28 38L28 40L30 40L30 37L32 37L32 35L31 35L31 33ZM33 33L33 36L36 36L36 33ZM37 33L37 36L40 36L40 35L39 35L39 34L38 34L38 33ZM22 34L22 36L21 36L21 35L20 35L20 36L21 36L21 37L22 37L22 36L23 36L23 35L24 35L24 34ZM34 34L34 35L35 35L35 34ZM25 35L25 36L24 36L24 38L25 38L25 36L26 36L26 35ZM33 37L33 38L31 38L31 39L33 39L33 38L36 38L36 37ZM37 38L37 39L38 39L38 38ZM18 39L18 40L19 40L19 39ZM0 0L0 7L7 7L7 0ZM1 1L1 6L6 6L6 1ZM2 2L2 5L5 5L5 2ZM34 0L34 7L41 7L41 0ZM35 1L35 6L40 6L40 1ZM36 2L36 5L39 5L39 2ZM0 34L0 41L7 41L7 34ZM1 35L1 40L6 40L6 35ZM2 36L2 39L5 39L5 36Z" fill="#000000"/></g></g></svg>
