<?xml version="1.0" encoding="UTF-8"?>
<svg xmlns="http://www.w3.org/2000/svg" version="1.1" width="200" height="200" viewBox="0 0 200 200"><rect x="0" y="0" width="200" height="200" fill="#ffffff"/><g transform="scale(6.897)"><g transform="translate(0,0)"><path fill-rule="evenodd" d="M9 0L9 1L8 1L8 7L9 7L9 5L10 5L10 7L11 7L11 5L12 5L12 9L13 9L13 12L11 12L11 11L12 11L12 10L11 10L11 8L10 8L10 11L8 11L8 9L9 9L9 8L5 8L5 9L7 9L7 10L6 10L6 11L5 11L5 10L4 10L4 9L3 9L3 8L2 8L2 9L0 9L0 10L2 10L2 12L1 12L1 11L0 11L0 12L1 12L1 14L2 14L2 12L3 12L3 13L4 13L4 12L6 12L6 13L7 13L7 14L6 14L6 15L5 15L5 14L4 14L4 15L2 15L2 16L1 16L1 17L2 17L2 18L0 18L0 19L2 19L2 18L3 18L3 17L2 17L2 16L4 16L4 17L5 17L5 18L4 18L4 19L5 19L5 18L6 18L6 19L7 19L7 20L6 20L6 21L8 21L8 24L9 24L9 26L8 26L8 27L9 27L9 28L10 28L10 29L15 29L15 27L17 27L17 28L18 28L18 29L21 29L21 28L20 28L20 27L22 27L22 26L21 26L21 25L25 25L25 23L26 23L26 21L27 21L27 18L28 18L28 17L29 17L29 16L27 16L27 17L25 17L25 18L21 18L21 16L19 16L19 15L21 15L21 14L19 14L19 13L21 13L21 12L22 12L22 14L23 14L23 15L22 15L22 16L23 16L23 17L24 17L24 16L23 16L23 15L25 15L25 14L26 14L26 13L29 13L29 12L27 12L27 11L29 11L29 9L28 9L28 8L23 8L23 9L28 9L28 10L27 10L27 11L25 11L25 10L22 10L22 11L21 11L21 12L18 12L18 11L20 11L20 10L19 10L19 8L21 8L21 9L22 9L22 8L21 8L21 3L19 3L19 4L16 4L16 2L17 2L17 3L18 3L18 2L17 2L17 1L19 1L19 2L20 2L20 0L16 0L16 1L15 1L15 3L14 3L14 4L16 4L16 5L15 5L15 6L14 6L14 5L12 5L12 4L13 4L13 3L12 3L12 2L11 2L11 1L12 1L12 0L11 0L11 1L10 1L10 0ZM9 1L9 2L10 2L10 3L11 3L11 4L12 4L12 3L11 3L11 2L10 2L10 1ZM19 4L19 5L16 5L16 6L15 6L15 7L14 7L14 6L13 6L13 7L14 7L14 8L13 8L13 9L14 9L14 8L15 8L15 9L16 9L16 10L17 10L17 11L18 11L18 10L17 10L17 8L18 8L18 6L19 6L19 7L20 7L20 6L19 6L19 5L20 5L20 4ZM16 6L16 8L17 8L17 6ZM3 10L3 11L4 11L4 10ZM14 10L14 11L15 11L15 12L16 12L16 13L17 13L17 12L16 12L16 11L15 11L15 10ZM6 11L6 12L7 12L7 13L8 13L8 11ZM23 11L23 14L25 14L25 13L24 13L24 12L25 12L25 11ZM9 12L9 13L11 13L11 12ZM13 12L13 13L14 13L14 16L13 16L13 14L12 14L12 15L11 15L11 14L10 14L10 16L8 16L8 17L6 17L6 16L7 16L7 15L8 15L8 14L7 14L7 15L6 15L6 16L5 16L5 15L4 15L4 16L5 16L5 17L6 17L6 18L8 18L8 21L9 21L9 23L10 23L10 19L9 19L9 17L10 17L10 18L11 18L11 17L12 17L12 16L13 16L13 19L11 19L11 20L12 20L12 21L11 21L11 22L12 22L12 23L13 23L13 21L16 21L16 20L15 20L15 19L16 19L16 18L18 18L18 19L17 19L17 22L16 22L16 23L19 23L19 24L20 24L20 23L19 23L19 22L20 22L20 20L19 20L19 19L20 19L20 17L19 17L19 16L18 16L18 14L15 14L15 13L14 13L14 12ZM27 14L27 15L29 15L29 14ZM16 15L16 16L14 16L14 19L15 19L15 18L16 18L16 16L17 16L17 15ZM25 18L25 19L23 19L23 20L25 20L25 19L26 19L26 18ZM21 19L21 20L22 20L22 19ZM0 20L0 21L3 21L3 20ZM4 20L4 21L5 21L5 20ZM18 21L18 22L19 22L19 21ZM21 21L21 24L24 24L24 21ZM22 22L22 23L23 23L23 22ZM28 22L28 23L29 23L29 22ZM10 24L10 26L11 26L11 28L13 28L13 26L16 26L16 25L13 25L13 26L12 26L12 24ZM17 24L17 25L18 25L18 24ZM26 24L26 27L25 27L25 28L24 28L24 26L23 26L23 28L22 28L22 29L23 29L23 28L24 28L24 29L25 29L25 28L27 28L27 29L29 29L29 26L27 26L27 25L28 25L28 24ZM17 26L17 27L18 27L18 28L19 28L19 27L20 27L20 26L19 26L19 27L18 27L18 26ZM27 27L27 28L28 28L28 27ZM0 0L0 7L7 7L7 0ZM1 1L1 6L6 6L6 1ZM2 2L2 5L5 5L5 2ZM22 0L22 7L29 7L29 0ZM23 1L23 6L28 6L28 1ZM24 2L24 5L27 5L27 2ZM0 22L0 29L7 29L7 22ZM1 23L1 28L6 28L6 23ZM2 24L2 27L5 27L5 24Z" fill="#000000"/></g></g></svg>
