<?xml version="1.0" encoding="UTF-8"?>
<svg xmlns="http://www.w3.org/2000/svg" version="1.1" width="200" height="200" viewBox="0 0 200 200"><rect x="0" y="0" width="200" height="200" fill="#ffffff"/><g transform="scale(6.897)"><g transform="translate(0,0)"><path fill-rule="evenodd" d="M15 0L15 1L14 1L14 2L12 2L12 4L11 4L11 3L10 3L10 4L8 4L8 5L10 5L10 4L11 4L11 5L12 5L12 4L13 4L13 3L15 3L15 2L16 2L16 4L14 4L14 7L13 7L13 6L12 6L12 7L11 7L11 6L10 6L10 7L11 7L11 8L9 8L9 6L8 6L8 8L6 8L6 9L8 9L8 11L7 11L7 10L3 10L3 12L4 12L4 13L3 13L3 14L2 14L2 15L1 15L1 16L2 16L2 17L1 17L1 18L0 18L0 19L1 19L1 18L2 18L2 20L1 20L1 21L7 21L7 20L8 20L8 19L9 19L9 21L8 21L8 23L10 23L10 26L11 26L11 27L9 27L9 25L8 25L8 27L9 27L9 28L12 28L12 29L14 29L14 27L13 27L13 26L16 26L16 27L15 27L15 29L16 29L16 28L18 28L18 29L20 29L20 28L18 28L18 26L20 26L20 25L23 25L23 26L24 26L24 27L22 27L22 29L23 29L23 28L25 28L25 27L26 27L26 29L27 29L27 28L29 28L29 26L28 26L28 27L26 27L26 26L24 26L24 25L26 25L26 23L25 23L25 22L26 22L26 20L27 20L27 24L28 24L28 25L29 25L29 21L28 21L28 20L27 20L27 18L29 18L29 17L26 17L26 16L25 16L25 15L24 15L24 16L23 16L23 17L21 17L21 18L20 18L20 17L19 17L19 15L20 15L20 14L21 14L21 13L20 13L20 12L22 12L22 9L23 9L23 13L22 13L22 15L23 15L23 14L24 14L24 13L25 13L25 14L26 14L26 15L27 15L27 16L28 16L28 15L29 15L29 14L28 14L28 15L27 15L27 13L28 13L28 12L29 12L29 11L28 11L28 12L27 12L27 10L29 10L29 9L26 9L26 10L24 10L24 9L25 9L25 8L24 8L24 9L23 9L23 8L21 8L21 9L20 9L20 7L21 7L21 3L20 3L20 2L18 2L18 1L16 1L16 0ZM10 1L10 2L11 2L11 1ZM17 2L17 4L16 4L16 5L19 5L19 7L18 7L18 6L17 6L17 8L14 8L14 12L12 12L12 11L13 11L13 8L12 8L12 10L10 10L10 9L9 9L9 10L10 10L10 11L11 11L11 12L10 12L10 13L9 13L9 15L8 15L8 14L7 14L7 13L4 13L4 14L7 14L7 15L6 15L6 16L5 16L5 15L3 15L3 16L5 16L5 17L3 17L3 19L4 19L4 20L7 20L7 19L4 19L4 18L7 18L7 17L10 17L10 18L11 18L11 20L10 20L10 21L9 21L9 22L11 22L11 21L12 21L12 22L13 22L13 21L15 21L15 20L16 20L16 21L17 21L17 22L14 22L14 23L15 23L15 24L16 24L16 26L18 26L18 25L20 25L20 24L18 24L18 22L19 22L19 23L20 23L20 21L19 21L19 20L20 20L20 18L17 18L17 17L18 17L18 15L19 15L19 14L20 14L20 13L19 13L19 14L17 14L17 12L20 12L20 11L19 11L19 10L20 10L20 9L19 9L19 10L18 10L18 8L19 8L19 7L20 7L20 5L19 5L19 4L20 4L20 3L19 3L19 4L18 4L18 2ZM15 6L15 7L16 7L16 6ZM2 8L2 9L0 9L0 14L1 14L1 13L2 13L2 11L1 11L1 10L2 10L2 9L4 9L4 8ZM15 9L15 13L13 13L13 14L12 14L12 15L11 15L11 13L10 13L10 15L11 15L11 16L12 16L12 15L13 15L13 14L14 14L14 17L15 17L15 18L14 18L14 19L13 19L13 17L11 17L11 18L12 18L12 21L13 21L13 20L15 20L15 19L16 19L16 20L17 20L17 19L16 19L16 16L17 16L17 15L15 15L15 14L16 14L16 9ZM17 10L17 11L18 11L18 10ZM5 11L5 12L7 12L7 11ZM8 11L8 12L9 12L9 11ZM25 11L25 13L27 13L27 12L26 12L26 11ZM6 16L6 17L7 17L7 16ZM24 16L24 17L23 17L23 18L22 18L22 19L21 19L21 20L22 20L22 19L24 19L24 20L26 20L26 19L24 19L24 18L26 18L26 17L25 17L25 16ZM18 19L18 20L19 20L19 19ZM21 21L21 24L24 24L24 21ZM22 22L22 23L23 23L23 22ZM12 23L12 24L13 24L13 25L11 25L11 26L13 26L13 25L14 25L14 24L13 24L13 23ZM17 24L17 25L18 25L18 24ZM12 27L12 28L13 28L13 27ZM0 0L0 7L7 7L7 0ZM1 1L1 6L6 6L6 1ZM2 2L2 5L5 5L5 2ZM22 0L22 7L29 7L29 0ZM23 1L23 6L28 6L28 1ZM24 2L24 5L27 5L27 2ZM0 22L0 29L7 29L7 22ZM1 23L1 28L6 28L6 23ZM2 24L2 27L5 27L5 24Z" fill="#000000"/></g></g></svg>
