<?xml version="1.0" encoding="UTF-8"?>
<svg xmlns="http://www.w3.org/2000/svg" version="1.1" width="200" height="200" viewBox="0 0 200 200"><rect x="0" y="0" width="200" height="200" fill="#ffffff"/><g transform="scale(4.878)"><g transform="translate(0,0)"><path fill-rule="evenodd" d="M8 0L8 3L9 3L9 5L8 5L8 10L6 10L6 11L5 11L5 12L3 12L3 13L2 13L2 11L3 11L3 10L4 10L4 9L5 9L5 8L2 8L2 9L1 9L1 10L0 10L0 12L1 12L1 13L0 13L0 14L1 14L1 13L2 13L2 15L1 15L1 16L0 16L0 17L1 17L1 18L0 18L0 19L1 19L1 20L0 20L0 25L2 25L2 26L3 26L3 25L4 25L4 24L5 24L5 25L7 25L7 26L5 26L5 30L4 30L4 27L3 27L3 30L2 30L2 33L3 33L3 32L4 32L4 33L8 33L8 34L12 34L12 33L13 33L13 34L14 34L14 35L15 35L15 36L14 36L14 37L12 37L12 36L13 36L13 35L12 35L12 36L11 36L11 35L10 35L10 37L9 37L9 36L8 36L8 39L10 39L10 41L12 41L12 40L13 40L13 41L14 41L14 40L15 40L15 38L14 38L14 37L15 37L15 36L17 36L17 37L19 37L19 38L20 38L20 41L21 41L21 40L22 40L22 41L24 41L24 40L22 40L22 38L23 38L23 37L24 37L24 39L26 39L26 38L27 38L27 40L28 40L28 38L27 38L27 37L29 37L29 34L27 34L27 35L26 35L26 36L25 36L25 37L24 37L24 35L25 35L25 32L27 32L27 31L26 31L26 30L25 30L25 29L27 29L27 30L29 30L29 29L31 29L31 28L32 28L32 29L33 29L33 30L32 30L32 31L33 31L33 30L34 30L34 31L35 31L35 30L34 30L34 29L36 29L36 30L38 30L38 29L36 29L36 28L38 28L38 26L39 26L39 28L40 28L40 26L41 26L41 23L40 23L40 26L39 26L39 24L37 24L37 25L36 25L36 23L35 23L35 25L31 25L31 24L29 24L29 23L28 23L28 22L26 22L26 21L23 21L23 20L25 20L25 19L23 19L23 18L22 18L22 16L21 16L21 19L23 19L23 20L21 20L21 21L19 21L19 23L21 23L21 25L22 25L22 26L20 26L20 27L22 27L22 28L23 28L23 27L22 27L22 26L23 26L23 25L22 25L22 22L23 22L23 23L24 23L24 24L25 24L25 25L24 25L24 30L25 30L25 32L24 32L24 31L23 31L23 32L22 32L22 30L21 30L21 28L20 28L20 29L19 29L19 30L20 30L20 32L18 32L18 31L15 31L15 30L16 30L16 29L15 29L15 30L14 30L14 29L13 29L13 30L12 30L12 31L11 31L11 29L12 29L12 27L14 27L14 26L16 26L16 25L18 25L18 21L17 21L17 24L15 24L15 22L14 22L14 23L13 23L13 22L12 22L12 23L13 23L13 24L15 24L15 25L14 25L14 26L13 26L13 25L12 25L12 27L11 27L11 24L9 24L9 25L8 25L8 24L5 24L5 23L7 23L7 22L8 22L8 21L7 21L7 20L6 20L6 19L9 19L9 23L10 23L10 21L13 21L13 18L15 18L15 19L14 19L14 20L15 20L15 21L16 21L16 19L17 19L17 20L18 20L18 18L19 18L19 15L20 15L20 14L21 14L21 12L22 12L22 11L23 11L23 13L26 13L26 14L27 14L27 17L28 17L28 15L29 15L29 14L28 14L28 13L30 13L30 16L29 16L29 20L28 20L28 18L27 18L27 19L26 19L26 20L27 20L27 21L29 21L29 20L32 20L32 19L33 19L33 18L34 18L34 19L35 19L35 20L36 20L36 21L34 21L34 20L33 20L33 21L30 21L30 22L32 22L32 23L34 23L34 22L36 22L36 21L37 21L37 23L38 23L38 21L39 21L39 20L36 20L36 19L35 19L35 17L36 17L36 18L38 18L38 17L39 17L39 16L37 16L37 15L38 15L38 13L36 13L36 15L35 15L35 17L34 17L34 16L33 16L33 15L34 15L34 14L33 14L33 13L34 13L34 12L33 12L33 11L34 11L34 10L35 10L35 11L36 11L36 12L38 12L38 11L39 11L39 12L41 12L41 11L40 11L40 10L41 10L41 8L38 8L38 9L40 9L40 10L37 10L37 9L36 9L36 8L33 8L33 5L32 5L32 4L33 4L33 2L31 2L31 1L32 1L32 0L31 0L31 1L30 1L30 2L31 2L31 3L30 3L30 4L31 4L31 5L30 5L30 7L31 7L31 5L32 5L32 9L31 9L31 8L29 8L29 5L27 5L27 6L26 6L26 7L25 7L25 6L24 6L24 7L25 7L25 9L24 9L24 8L23 8L23 4L21 4L21 5L20 5L20 3L22 3L22 2L20 2L20 3L19 3L19 0L16 0L16 2L15 2L15 3L14 3L14 4L13 4L13 2L14 2L14 1L15 1L15 0L14 0L14 1L13 1L13 0ZM21 0L21 1L24 1L24 2L23 2L23 3L24 3L24 2L25 2L25 3L26 3L26 4L27 4L27 3L28 3L28 4L29 4L29 1L27 1L27 0L25 0L25 1L24 1L24 0ZM11 1L11 2L13 2L13 1ZM17 1L17 3L15 3L15 4L17 4L17 7L16 7L16 6L15 6L15 7L14 7L14 6L13 6L13 7L14 7L14 8L13 8L13 9L14 9L14 8L15 8L15 7L16 7L16 9L15 9L15 10L16 10L16 9L17 9L17 10L18 10L18 12L17 12L17 11L16 11L16 13L17 13L17 14L19 14L19 13L20 13L20 12L21 12L21 11L20 11L20 9L19 9L19 7L20 7L20 8L21 8L21 10L23 10L23 9L22 9L22 6L21 6L21 7L20 7L20 6L19 6L19 5L18 5L18 1ZM26 2L26 3L27 3L27 2ZM10 3L10 4L11 4L11 7L12 7L12 4L11 4L11 3ZM31 3L31 4L32 4L32 3ZM24 4L24 5L25 5L25 4ZM9 5L9 7L10 7L10 5ZM18 6L18 7L19 7L19 6ZM27 6L27 8L28 8L28 6ZM6 8L6 9L7 9L7 8ZM9 8L9 10L8 10L8 11L6 11L6 12L5 12L5 13L4 13L4 14L3 14L3 15L4 15L4 16L2 16L2 17L5 17L5 18L1 18L1 19L2 19L2 20L1 20L1 22L2 22L2 23L3 23L3 21L2 21L2 20L3 20L3 19L4 19L4 20L5 20L5 18L8 18L8 16L11 16L11 18L12 18L12 17L13 17L13 15L14 15L14 17L15 17L15 16L17 16L17 15L16 15L16 14L15 14L15 13L14 13L14 12L15 12L15 11L14 11L14 10L12 10L12 13L13 13L13 15L12 15L12 16L11 16L11 13L10 13L10 12L11 12L11 10L10 10L10 9L12 9L12 8ZM25 9L25 10L24 10L24 12L26 12L26 13L27 13L27 12L28 12L28 11L29 11L29 12L30 12L30 11L29 11L29 10L31 10L31 14L32 14L32 15L33 15L33 14L32 14L32 13L33 13L33 12L32 12L32 10L34 10L34 9L32 9L32 10L31 10L31 9ZM35 9L35 10L36 10L36 11L37 11L37 10L36 10L36 9ZM1 10L1 11L2 11L2 10ZM9 10L9 11L8 11L8 12L10 12L10 10ZM25 10L25 11L28 11L28 10ZM19 11L19 12L18 12L18 13L19 13L19 12L20 12L20 11ZM6 12L6 13L7 13L7 12ZM40 13L40 14L39 14L39 15L40 15L40 14L41 14L41 13ZM5 14L5 17L7 17L7 16L6 16L6 15L7 15L7 14ZM8 14L8 15L10 15L10 14ZM24 15L24 16L23 16L23 17L24 17L24 18L25 18L25 17L26 17L26 16L25 16L25 15ZM30 16L30 17L31 17L31 16ZM36 16L36 17L37 17L37 16ZM40 16L40 18L39 18L39 19L40 19L40 18L41 18L41 16ZM17 17L17 18L18 18L18 17ZM32 17L32 18L30 18L30 19L32 19L32 18L33 18L33 17ZM9 18L9 19L10 19L10 18ZM11 19L11 20L12 20L12 19ZM19 19L19 20L20 20L20 19ZM40 20L40 21L41 21L41 20ZM4 21L4 23L5 23L5 22L7 22L7 21ZM33 21L33 22L34 22L34 21ZM24 22L24 23L25 23L25 24L26 24L26 23L25 23L25 22ZM2 24L2 25L3 25L3 24ZM28 24L28 25L26 25L26 26L28 26L28 27L27 27L27 28L28 28L28 29L29 29L29 28L31 28L31 27L34 27L34 26L31 26L31 25L30 25L30 26L28 26L28 25L29 25L29 24ZM35 25L35 26L36 26L36 27L35 27L35 28L36 28L36 27L37 27L37 26L36 26L36 25ZM0 26L0 27L1 27L1 26ZM18 26L18 27L19 27L19 26ZM6 27L6 28L7 28L7 29L6 29L6 30L5 30L5 31L6 31L6 32L7 32L7 31L8 31L8 32L9 32L9 33L10 33L10 29L11 29L11 28L9 28L9 27ZM8 28L8 29L9 29L9 28ZM17 28L17 29L18 29L18 28ZM33 28L33 29L34 29L34 28ZM0 29L0 33L1 33L1 29ZM39 29L39 32L37 32L37 31L36 31L36 32L32 32L32 33L31 33L31 32L29 32L29 31L28 31L28 33L31 33L31 34L30 34L30 35L32 35L32 38L31 38L31 39L30 39L30 40L29 40L29 41L30 41L30 40L31 40L31 41L32 41L32 40L33 40L33 41L34 41L34 40L33 40L33 39L32 39L32 38L34 38L34 39L35 39L35 40L36 40L36 39L37 39L37 36L38 36L38 37L39 37L39 38L38 38L38 39L39 39L39 40L40 40L40 38L41 38L41 37L40 37L40 36L38 36L38 35L40 35L40 34L41 34L41 33L40 33L40 30L41 30L41 29ZM6 30L6 31L7 31L7 30ZM13 30L13 31L12 31L12 32L11 32L11 33L12 33L12 32L13 32L13 33L15 33L15 34L16 34L16 35L17 35L17 34L16 34L16 33L17 33L17 32L16 32L16 33L15 33L15 32L14 32L14 30ZM20 32L20 33L18 33L18 34L19 34L19 35L20 35L20 36L19 36L19 37L20 37L20 38L21 38L21 37L20 37L20 36L22 36L22 37L23 37L23 34L24 34L24 32L23 32L23 34L22 34L22 33L21 33L21 32ZM33 33L33 36L36 36L36 33ZM38 33L38 34L37 34L37 35L38 35L38 34L39 34L39 33ZM20 34L20 35L21 35L21 34ZM34 34L34 35L35 35L35 34ZM30 36L30 37L31 37L31 36ZM11 37L11 38L12 38L12 39L11 39L11 40L12 40L12 39L13 39L13 38L12 38L12 37ZM25 37L25 38L26 38L26 37ZM34 37L34 38L36 38L36 37ZM16 39L16 41L19 41L19 39L18 39L18 40L17 40L17 39ZM31 39L31 40L32 40L32 39ZM25 40L25 41L26 41L26 40ZM0 0L0 7L7 7L7 0ZM1 1L1 6L6 6L6 1ZM2 2L2 5L5 5L5 2ZM34 0L34 7L41 7L41 0ZM35 1L35 6L40 6L40 1ZM36 2L36 5L39 5L39 2ZM0 34L0 41L7 41L7 34ZM1 35L1 40L6 40L6 35ZM2 36L2 39L5 39L5 36Z" fill="#000000"/></g></g></svg>
