<?xml version="1.0" encoding="UTF-8"?>
<svg xmlns="http://www.w3.org/2000/svg" version="1.1" width="200" height="200" viewBox="0 0 200 200"><rect x="0" y="0" width="200" height="200" fill="#ffffff"/><g transform="scale(4.878)"><g transform="translate(0,0)"><path fill-rule="evenodd" d="M8 0L8 3L9 3L9 5L8 5L8 9L9 9L9 10L10 10L10 11L11 11L11 10L12 10L12 12L13 12L13 13L10 13L10 15L13 15L13 16L14 16L14 17L13 17L13 18L11 18L11 20L10 20L10 23L9 23L9 24L6 24L6 23L7 23L7 22L8 22L8 20L9 20L9 19L8 19L8 17L9 17L9 18L10 18L10 16L9 16L9 15L8 15L8 17L7 17L7 16L6 16L6 15L7 15L7 14L6 14L6 15L4 15L4 14L3 14L3 15L2 15L2 14L0 14L0 19L1 19L1 15L2 15L2 17L3 17L3 19L2 19L2 20L1 20L1 21L2 21L2 22L0 22L0 24L2 24L2 22L3 22L3 21L4 21L4 23L3 23L3 24L4 24L4 26L3 26L3 25L2 25L2 26L0 26L0 27L1 27L1 29L0 29L0 33L1 33L1 30L2 30L2 31L3 31L3 30L2 30L2 29L3 29L3 28L4 28L4 29L5 29L5 30L4 30L4 32L5 32L5 33L8 33L8 34L9 34L9 33L10 33L10 35L9 35L9 36L8 36L8 39L9 39L9 41L11 41L11 40L10 40L10 39L9 39L9 37L10 37L10 38L11 38L11 39L12 39L12 40L13 40L13 39L15 39L15 40L14 40L14 41L15 41L15 40L16 40L16 41L17 41L17 39L19 39L19 38L21 38L21 39L20 39L20 41L22 41L22 38L23 38L23 40L24 40L24 39L25 39L25 38L26 38L26 37L25 37L25 36L24 36L24 37L25 37L25 38L23 38L23 36L22 36L22 35L23 35L23 34L24 34L24 35L26 35L26 34L27 34L27 37L28 37L28 38L27 38L27 39L26 39L26 40L25 40L25 41L26 41L26 40L28 40L28 38L29 38L29 37L28 37L28 35L29 35L29 36L32 36L32 38L31 38L31 37L30 37L30 39L31 39L31 40L33 40L33 41L34 41L34 40L33 40L33 39L32 39L32 38L34 38L34 39L35 39L35 40L36 40L36 39L37 39L37 40L40 40L40 38L41 38L41 37L40 37L40 36L37 36L37 35L38 35L38 34L37 34L37 32L38 32L38 33L39 33L39 35L40 35L40 34L41 34L41 33L40 33L40 32L38 32L38 31L40 31L40 30L41 30L41 29L40 29L40 28L41 28L41 27L40 27L40 26L41 26L41 23L39 23L39 24L40 24L40 26L39 26L39 25L36 25L36 24L37 24L37 21L39 21L39 20L36 20L36 19L35 19L35 17L36 17L36 18L37 18L37 19L39 19L39 18L41 18L41 16L40 16L40 17L39 17L39 16L38 16L38 13L36 13L36 14L35 14L35 15L36 15L36 16L35 16L35 17L34 17L34 16L33 16L33 17L31 17L31 16L29 16L29 15L28 15L28 16L29 16L29 17L31 17L31 18L30 18L30 19L31 19L31 18L32 18L32 19L33 19L33 18L34 18L34 19L35 19L35 21L34 21L34 20L32 20L32 21L31 21L31 20L30 20L30 21L31 21L31 22L30 22L30 23L31 23L31 24L29 24L29 22L25 22L25 20L24 20L24 19L25 19L25 16L24 16L24 15L23 15L23 14L26 14L26 20L27 20L27 21L29 21L29 18L27 18L27 14L29 14L29 13L30 13L30 15L31 15L31 12L32 12L32 13L33 13L33 14L32 14L32 15L34 15L34 13L35 13L35 11L36 11L36 12L38 12L38 11L40 11L40 12L39 12L39 13L40 13L40 14L39 14L39 15L40 15L40 14L41 14L41 13L40 13L40 12L41 12L41 11L40 11L40 10L41 10L41 8L38 8L38 9L40 9L40 10L37 10L37 9L36 9L36 8L33 8L33 5L32 5L32 4L33 4L33 2L32 2L32 4L30 4L30 5L32 5L32 7L31 7L31 6L30 6L30 8L27 8L27 9L26 9L26 10L24 10L24 9L22 9L22 10L21 10L21 9L20 9L20 8L19 8L19 6L18 6L18 9L15 9L15 8L14 8L14 9L15 9L15 10L14 10L14 11L13 11L13 9L9 9L9 6L10 6L10 7L11 7L11 6L10 6L10 5L13 5L13 6L12 6L12 8L13 8L13 6L14 6L14 7L15 7L15 6L14 6L14 5L15 5L15 4L16 4L16 3L17 3L17 2L18 2L18 3L19 3L19 4L18 4L18 5L22 5L22 8L23 8L23 5L24 5L24 8L25 8L25 6L26 6L26 7L27 7L27 6L28 6L28 7L29 7L29 4L28 4L28 5L27 5L27 4L25 4L25 5L24 5L24 4L23 4L23 3L25 3L25 1L21 1L21 0L20 0L20 1L19 1L19 0L17 0L17 1L14 1L14 0ZM26 0L26 1L27 1L27 2L26 2L26 3L31 3L31 2L30 2L30 0L29 0L29 1L27 1L27 0ZM31 0L31 1L32 1L32 0ZM9 1L9 2L10 2L10 4L11 4L11 2L13 2L13 3L16 3L16 2L13 2L13 1L11 1L11 2L10 2L10 1ZM20 1L20 2L19 2L19 3L20 3L20 4L22 4L22 3L23 3L23 2L22 2L22 3L21 3L21 1ZM13 4L13 5L14 5L14 4ZM26 5L26 6L27 6L27 5ZM16 6L16 7L17 7L17 6ZM20 6L20 7L21 7L21 6ZM2 8L2 10L3 10L3 9L4 9L4 10L5 10L5 11L4 11L4 13L5 13L5 11L7 11L7 10L5 10L5 8ZM6 8L6 9L7 9L7 8ZM31 8L31 9L30 9L30 10L29 10L29 9L27 9L27 10L26 10L26 14L27 14L27 12L28 12L28 13L29 13L29 12L31 12L31 11L34 11L34 10L33 10L33 9L32 9L32 8ZM18 9L18 10L19 10L19 11L20 11L20 12L18 12L18 11L17 11L17 10L16 10L16 13L15 13L15 12L14 12L14 13L15 13L15 14L14 14L14 15L15 15L15 19L17 19L17 21L18 21L18 22L19 22L19 21L20 21L20 22L21 22L21 23L18 23L18 25L17 25L17 24L16 24L16 25L15 25L15 24L14 24L14 23L17 23L17 22L14 22L14 23L13 23L13 24L14 24L14 25L13 25L13 26L12 26L12 22L13 22L13 21L14 21L14 18L13 18L13 21L12 21L12 20L11 20L11 26L9 26L9 27L6 27L6 26L7 26L7 25L5 25L5 26L4 26L4 28L5 28L5 29L6 29L6 30L5 30L5 31L6 31L6 32L8 32L8 33L9 33L9 31L10 31L10 33L11 33L11 31L12 31L12 33L14 33L14 34L15 34L15 33L17 33L17 34L16 34L16 35L15 35L15 37L14 37L14 38L16 38L16 39L17 39L17 38L18 38L18 37L20 37L20 34L21 34L21 35L22 35L22 34L23 34L23 33L22 33L22 32L23 32L23 31L24 31L24 33L25 33L25 34L26 34L26 33L27 33L27 34L29 34L29 33L27 33L27 32L26 32L26 31L27 31L27 28L31 28L31 29L28 29L28 30L32 30L32 31L33 31L33 32L36 32L36 31L37 31L37 30L39 30L39 28L40 28L40 27L39 27L39 26L38 26L38 28L36 28L36 25L35 25L35 24L36 24L36 23L35 23L35 22L36 22L36 21L35 21L35 22L34 22L34 21L32 21L32 22L31 22L31 23L32 23L32 24L31 24L31 25L30 25L30 26L29 26L29 27L27 27L27 26L28 26L28 25L29 25L29 24L28 24L28 25L27 25L27 26L26 26L26 25L25 25L25 24L26 24L26 23L25 23L25 24L24 24L24 26L23 26L23 28L21 28L21 27L20 27L20 26L19 26L19 27L17 27L17 28L16 28L16 29L15 29L15 27L16 27L16 25L17 25L17 26L18 26L18 25L19 25L19 24L20 24L20 25L22 25L22 24L23 24L23 23L22 23L22 21L24 21L24 20L22 20L22 18L24 18L24 17L23 17L23 15L22 15L22 14L23 14L23 13L24 13L24 11L22 11L22 12L23 12L23 13L21 13L21 10L19 10L19 9ZM31 9L31 10L30 10L30 11L31 11L31 10L32 10L32 9ZM0 10L0 11L1 11L1 12L0 12L0 13L1 13L1 12L2 12L2 13L3 13L3 11L1 11L1 10ZM27 10L27 11L29 11L29 10ZM8 11L8 14L9 14L9 11ZM6 12L6 13L7 13L7 12ZM17 12L17 13L16 13L16 14L15 14L15 15L17 15L17 16L16 16L16 17L18 17L18 21L19 21L19 18L20 18L20 16L19 16L19 15L20 15L20 14L18 14L18 12ZM33 12L33 13L34 13L34 12ZM36 14L36 15L37 15L37 14ZM21 16L21 17L22 17L22 16ZM36 16L36 17L38 17L38 18L39 18L39 17L38 17L38 16ZM4 17L4 19L6 19L6 20L5 20L5 21L6 21L6 22L7 22L7 21L6 21L6 20L7 20L7 19L6 19L6 18L7 18L7 17L6 17L6 18L5 18L5 17ZM27 19L27 20L28 20L28 19ZM2 20L2 21L3 21L3 20ZM20 20L20 21L21 21L21 20ZM40 20L40 21L41 21L41 20ZM32 22L32 23L33 23L33 24L32 24L32 25L31 25L31 26L32 26L32 25L33 25L33 27L34 27L34 26L35 26L35 25L33 25L33 24L35 24L35 23L33 23L33 22ZM14 25L14 27L13 27L13 30L14 30L14 31L15 31L15 30L14 30L14 27L15 27L15 25ZM2 26L2 28L3 28L3 26ZM11 26L11 28L10 28L10 29L11 29L11 30L10 30L10 31L11 31L11 30L12 30L12 29L11 29L11 28L12 28L12 26ZM25 26L25 29L26 29L26 26ZM31 27L31 28L32 28L32 27ZM6 28L6 29L7 29L7 30L6 30L6 31L8 31L8 29L7 29L7 28ZM17 28L17 29L16 29L16 30L18 30L18 28ZM19 28L19 31L18 31L18 32L17 32L17 31L16 31L16 32L17 32L17 33L19 33L19 34L20 34L20 33L19 33L19 31L20 31L20 32L22 32L22 30L24 30L24 31L26 31L26 30L24 30L24 28L23 28L23 29L22 29L22 30L20 30L20 28ZM33 28L33 29L32 29L32 30L33 30L33 29L34 29L34 28ZM35 28L35 29L36 29L36 30L37 30L37 29L36 29L36 28ZM34 30L34 31L35 31L35 30ZM28 31L28 32L30 32L30 33L31 33L31 34L30 34L30 35L31 35L31 34L32 34L32 33L31 33L31 31ZM21 33L21 34L22 34L22 33ZM33 33L33 36L36 36L36 33ZM12 34L12 36L10 36L10 37L12 37L12 36L14 36L14 35L13 35L13 34ZM34 34L34 35L35 35L35 34ZM16 35L16 36L17 36L17 37L16 37L16 38L17 38L17 37L18 37L18 36L19 36L19 35ZM21 37L21 38L22 38L22 37ZM34 37L34 38L36 38L36 37ZM12 38L12 39L13 39L13 38ZM37 38L37 39L38 39L38 38ZM29 40L29 41L30 41L30 40ZM0 0L0 7L7 7L7 0ZM1 1L1 6L6 6L6 1ZM2 2L2 5L5 5L5 2ZM34 0L34 7L41 7L41 0ZM35 1L35 6L40 6L40 1ZM36 2L36 5L39 5L39 2ZM0 34L0 41L7 41L7 34ZM1 35L1 40L6 40L6 35ZM2 36L2 39L5 39L5 36Z" fill="#000000"/></g></g></svg>
