<?xml version="1.0" encoding="UTF-8"?>
<svg xmlns="http://www.w3.org/2000/svg" version="1.1" width="200" height="200" viewBox="0 0 200 200"><rect x="0" y="0" width="200" height="200" fill="#ffffff"/><g transform="scale(4.878)"><g transform="translate(0,0)"><path fill-rule="evenodd" d="M8 0L8 3L11 3L11 4L10 4L10 7L9 7L9 5L8 5L8 10L5 10L5 12L2 12L2 10L0 10L0 11L1 11L1 12L0 12L0 14L1 14L1 13L2 13L2 15L0 15L0 16L3 16L3 17L4 17L4 18L3 18L3 19L2 19L2 18L1 18L1 19L0 19L0 20L1 20L1 22L0 22L0 23L1 23L1 22L2 22L2 21L4 21L4 22L3 22L3 23L2 23L2 25L1 25L1 26L0 26L0 27L2 27L2 26L3 26L3 25L4 25L4 26L6 26L6 27L7 27L7 28L5 28L5 29L7 29L7 28L8 28L8 29L10 29L10 30L9 30L9 32L8 32L8 34L9 34L9 35L10 35L10 36L8 36L8 39L9 39L9 41L10 41L10 39L9 39L9 37L10 37L10 38L11 38L11 40L12 40L12 41L15 41L15 40L12 40L12 38L11 38L11 37L12 37L12 36L13 36L13 33L14 33L14 34L15 34L15 35L14 35L14 36L15 36L15 35L16 35L16 34L15 34L15 33L18 33L18 30L16 30L16 28L17 28L17 29L18 29L18 28L17 28L17 26L16 26L16 25L17 25L17 24L20 24L20 23L17 23L17 22L16 22L16 19L17 19L17 20L18 20L18 22L20 22L20 21L21 21L21 20L23 20L23 19L20 19L20 18L21 18L21 16L22 16L22 18L23 18L23 15L24 15L24 16L25 16L25 17L24 17L24 18L25 18L25 20L24 20L24 21L23 21L23 23L21 23L21 24L23 24L23 25L22 25L22 26L21 26L21 25L18 25L18 26L21 26L21 27L19 27L19 28L22 28L22 29L23 29L23 31L22 31L22 30L21 30L21 29L19 29L19 31L20 31L20 32L21 32L21 33L22 33L22 32L23 32L23 33L24 33L24 35L23 35L23 34L20 34L20 33L19 33L19 34L20 34L20 35L19 35L19 36L18 36L18 35L17 35L17 36L18 36L18 37L20 37L20 36L21 36L21 38L20 38L20 39L19 39L19 40L18 40L18 39L17 39L17 37L14 37L14 38L13 38L13 39L14 39L14 38L16 38L16 41L17 41L17 40L18 40L18 41L21 41L21 39L22 39L22 40L23 40L23 41L24 41L24 40L25 40L25 39L27 39L27 41L32 41L32 40L33 40L33 41L34 41L34 40L33 40L33 39L35 39L35 40L36 40L36 39L37 39L37 40L40 40L40 38L41 38L41 37L40 37L40 36L41 36L41 35L40 35L40 34L41 34L41 33L39 33L39 32L41 32L41 31L40 31L40 30L41 30L41 29L39 29L39 30L37 30L37 29L36 29L36 28L38 28L38 26L39 26L39 28L40 28L40 26L41 26L41 23L39 23L39 24L40 24L40 26L39 26L39 25L36 25L36 24L37 24L37 23L38 23L38 22L39 22L39 20L38 20L38 19L37 19L37 20L36 20L36 19L35 19L35 17L36 17L36 18L38 18L38 17L39 17L39 16L38 16L38 14L37 14L37 13L36 13L36 14L35 14L35 15L36 15L36 16L35 16L35 17L34 17L34 16L32 16L32 17L30 17L30 16L29 16L29 15L31 15L31 12L29 12L29 11L28 11L28 10L29 10L29 9L31 9L31 10L30 10L30 11L31 11L31 10L32 10L32 13L33 13L33 14L32 14L32 15L34 15L34 13L35 13L35 11L36 11L36 12L38 12L38 11L39 11L39 13L40 13L40 14L39 14L39 15L40 15L40 14L41 14L41 13L40 13L40 10L41 10L41 8L38 8L38 9L40 9L40 10L37 10L37 9L36 9L36 8L32 8L32 9L31 9L31 5L32 5L32 7L33 7L33 4L30 4L30 5L29 5L29 4L28 4L28 5L27 5L27 4L26 4L26 5L27 5L27 6L26 6L26 7L27 7L27 6L28 6L28 8L27 8L27 9L28 9L28 10L26 10L26 9L24 9L24 8L25 8L25 6L24 6L24 7L23 7L23 4L22 4L22 0L21 0L21 3L18 3L18 7L19 7L19 8L18 8L18 10L20 10L20 11L21 11L21 12L18 12L18 11L17 11L17 12L18 12L18 14L17 14L17 13L16 13L16 11L15 11L15 10L17 10L17 6L16 6L16 8L14 8L14 7L15 7L15 6L14 6L14 5L15 5L15 4L16 4L16 5L17 5L17 4L16 4L16 3L15 3L15 1L12 1L12 0L11 0L11 2L9 2L9 1L10 1L10 0ZM16 0L16 1L17 1L17 2L20 2L20 1L19 1L19 0L18 0L18 1L17 1L17 0ZM24 0L24 1L23 1L23 2L24 2L24 1L25 1L25 0ZM26 0L26 1L27 1L27 2L26 2L26 3L33 3L33 1L32 1L32 0L31 0L31 1L32 1L32 2L30 2L30 0L29 0L29 1L27 1L27 0ZM11 2L11 3L12 3L12 2ZM13 3L13 4L15 4L15 3ZM11 4L11 9L9 9L9 10L10 10L10 12L9 12L9 11L8 11L8 12L7 12L7 11L6 11L6 12L7 12L7 13L6 13L6 14L7 14L7 15L6 15L6 16L7 16L7 17L5 17L5 16L4 16L4 15L5 15L5 14L3 14L3 16L4 16L4 17L5 17L5 18L7 18L7 19L3 19L3 20L5 20L5 21L6 21L6 22L8 22L8 21L9 21L9 22L13 22L13 23L14 23L14 26L13 26L13 24L12 24L12 23L11 23L11 24L12 24L12 26L13 26L13 27L8 27L8 26L9 26L9 25L10 25L10 26L11 26L11 25L10 25L10 24L9 24L9 25L8 25L8 26L7 26L7 25L6 25L6 26L7 26L7 27L8 27L8 28L10 28L10 29L11 29L11 30L10 30L10 31L12 31L12 32L11 32L11 33L13 33L13 32L14 32L14 33L15 33L15 32L14 32L14 31L15 31L15 30L14 30L14 29L15 29L15 28L16 28L16 27L15 27L15 28L14 28L14 29L11 29L11 28L13 28L13 27L14 27L14 26L15 26L15 25L16 25L16 24L15 24L15 23L16 23L16 22L15 22L15 23L14 23L14 19L16 19L16 18L14 18L14 17L13 17L13 15L12 15L12 14L13 14L13 11L14 11L14 10L15 10L15 9L12 9L12 6L13 6L13 7L14 7L14 6L13 6L13 5L12 5L12 4ZM20 4L20 5L19 5L19 7L20 7L20 9L21 9L21 8L22 8L22 9L23 9L23 12L21 12L21 13L19 13L19 15L17 15L17 14L16 14L16 15L17 15L17 16L15 16L15 15L14 15L14 16L15 16L15 17L17 17L17 18L18 18L18 19L19 19L19 17L20 17L20 16L19 16L19 15L21 15L21 13L23 13L23 14L24 14L24 13L25 13L25 10L24 10L24 9L23 9L23 8L22 8L22 6L21 6L21 4ZM24 4L24 5L25 5L25 4ZM20 6L20 7L21 7L21 6ZM29 6L29 8L28 8L28 9L29 9L29 8L30 8L30 6ZM2 8L2 9L3 9L3 10L4 10L4 9L5 9L5 8ZM6 8L6 9L7 9L7 8ZM11 9L11 12L10 12L10 13L9 13L9 14L8 14L8 13L7 13L7 14L8 14L8 15L7 15L7 16L8 16L8 17L7 17L7 18L8 18L8 20L9 20L9 19L10 19L10 20L11 20L11 19L12 19L12 21L13 21L13 19L14 19L14 18L13 18L13 17L11 17L11 18L9 18L9 17L10 17L10 16L11 16L11 15L10 15L10 14L12 14L12 9ZM32 9L32 10L33 10L33 11L34 11L34 10L33 10L33 9ZM21 10L21 11L22 11L22 10ZM26 11L26 12L28 12L28 13L29 13L29 14L27 14L27 13L26 13L26 14L27 14L27 17L25 17L25 18L29 18L29 19L28 19L28 20L27 20L27 19L26 19L26 20L27 20L27 22L26 22L26 21L25 21L25 22L24 22L24 23L23 23L23 24L24 24L24 26L22 26L22 28L23 28L23 29L24 29L24 30L25 30L25 28L26 28L26 31L25 31L25 32L26 32L26 31L27 31L27 28L28 28L28 27L27 27L27 28L26 28L26 27L24 27L24 26L25 26L25 25L27 25L27 26L28 26L28 25L29 25L29 24L30 24L30 25L35 25L35 26L34 26L34 27L32 27L32 26L29 26L29 28L30 28L30 29L28 29L28 30L29 30L29 31L28 31L28 32L31 32L31 31L30 31L30 29L31 29L31 30L32 30L32 31L33 31L33 32L36 32L36 31L37 31L37 30L36 30L36 29L35 29L35 26L36 26L36 25L35 25L35 24L36 24L36 23L35 23L35 22L36 22L36 21L35 21L35 19L34 19L34 18L33 18L33 17L32 17L32 18L31 18L31 19L30 19L30 17L29 17L29 16L28 16L28 15L29 15L29 14L30 14L30 13L29 13L29 12L28 12L28 11ZM14 12L14 13L15 13L15 12ZM23 12L23 13L24 13L24 12ZM33 12L33 13L34 13L34 12ZM36 14L36 15L37 15L37 14ZM8 15L8 16L9 16L9 15ZM25 15L25 16L26 16L26 15ZM18 16L18 17L19 17L19 16ZM36 16L36 17L38 17L38 16ZM40 16L40 18L39 18L39 19L40 19L40 18L41 18L41 16ZM12 18L12 19L13 19L13 18ZM1 19L1 20L2 20L2 19ZM31 19L31 20L30 20L30 21L31 21L31 22L32 22L32 21L34 21L34 22L35 22L35 21L34 21L34 20L33 20L33 19ZM6 20L6 21L7 21L7 20ZM28 20L28 21L29 21L29 20ZM31 20L31 21L32 21L32 20ZM37 20L37 22L38 22L38 20ZM40 20L40 21L41 21L41 20ZM4 22L4 23L5 23L5 24L4 24L4 25L5 25L5 24L8 24L8 23L5 23L5 22ZM27 22L27 23L30 23L30 22ZM24 23L24 24L25 24L25 23ZM31 23L31 24L34 24L34 23ZM27 24L27 25L28 25L28 24ZM23 27L23 28L24 28L24 27ZM1 28L1 29L0 29L0 33L1 33L1 29L2 29L2 30L3 30L3 29L2 29L2 28ZM33 28L33 29L32 29L32 30L33 30L33 29L34 29L34 28ZM5 30L5 33L7 33L7 32L6 32L6 31L8 31L8 30ZM12 30L12 31L13 31L13 30ZM34 30L34 31L36 31L36 30ZM3 31L3 33L4 33L4 31ZM16 31L16 32L17 32L17 31ZM21 31L21 32L22 32L22 31ZM38 31L38 32L37 32L37 34L39 34L39 33L38 33L38 32L39 32L39 31ZM9 32L9 33L10 33L10 32ZM26 33L26 35L25 35L25 36L24 36L24 37L23 37L23 35L22 35L22 38L24 38L24 39L25 39L25 38L26 38L26 37L27 37L27 38L28 38L28 37L29 37L29 39L28 39L28 40L30 40L30 39L31 39L31 40L32 40L32 39L33 39L33 38L36 38L36 37L32 37L32 36L28 36L28 37L27 37L27 36L26 36L26 35L27 35L27 34L28 34L28 35L29 35L29 33ZM30 33L30 35L31 35L31 34L32 34L32 33ZM33 33L33 36L36 36L36 33ZM10 34L10 35L11 35L11 34ZM34 34L34 35L35 35L35 34ZM37 35L37 36L40 36L40 35ZM25 36L25 37L26 37L26 36ZM30 37L30 38L32 38L32 37ZM37 38L37 39L38 39L38 38ZM0 0L0 7L7 7L7 0ZM1 1L1 6L6 6L6 1ZM2 2L2 5L5 5L5 2ZM34 0L34 7L41 7L41 0ZM35 1L35 6L40 6L40 1ZM36 2L36 5L39 5L39 2ZM0 34L0 41L7 41L7 34ZM1 35L1 40L6 40L6 35ZM2 36L2 39L5 39L5 36Z" fill="#000000"/></g></g></svg>
