<?xml version="1.0" encoding="UTF-8"?>
<svg xmlns="http://www.w3.org/2000/svg" version="1.1" width="200" height="200" viewBox="0 0 200 200"><rect x="0" y="0" width="200" height="200" fill="#ffffff"/><g transform="scale(4.878)"><g transform="translate(0,0)"><path fill-rule="evenodd" d="M9 0L9 1L8 1L8 2L9 2L9 1L10 1L10 2L12 2L12 3L9 3L9 5L8 5L8 8L4 8L4 9L3 9L3 11L1 11L1 9L0 9L0 11L1 11L1 12L0 12L0 13L3 13L3 14L4 14L4 15L2 15L2 14L0 14L0 18L1 18L1 20L0 20L0 28L1 28L1 29L0 29L0 30L1 30L1 29L3 29L3 30L2 30L2 31L3 31L3 30L5 30L5 31L4 31L4 32L3 32L3 33L7 33L7 32L6 32L6 31L7 31L7 30L5 30L5 29L3 29L3 27L7 27L7 26L8 26L8 27L11 27L11 28L13 28L13 29L12 29L12 31L15 31L15 33L14 33L14 32L12 32L12 33L11 33L11 34L10 34L10 33L9 33L9 32L10 32L10 28L9 28L9 29L8 29L8 28L6 28L6 29L8 29L8 31L9 31L9 32L8 32L8 37L9 37L9 36L10 36L10 38L9 38L9 40L10 40L10 38L12 38L12 39L11 39L11 40L13 40L13 38L15 38L15 37L16 37L16 39L17 39L17 40L16 40L16 41L19 41L19 40L20 40L20 39L21 39L21 40L23 40L23 41L25 41L25 40L28 40L28 41L31 41L31 40L30 40L30 38L31 38L31 39L32 39L32 41L33 41L33 39L32 39L32 37L36 37L36 38L37 38L37 37L38 37L38 35L40 35L40 36L41 36L41 33L40 33L40 34L39 34L39 33L38 33L38 31L41 31L41 29L40 29L40 28L41 28L41 24L40 24L40 23L41 23L41 22L40 22L40 21L41 21L41 13L39 13L39 12L38 12L38 11L41 11L41 9L40 9L40 8L39 8L39 9L36 9L36 8L34 8L34 9L33 9L33 8L32 8L32 7L33 7L33 6L32 6L32 5L33 5L33 3L28 3L28 2L30 2L30 1L31 1L31 2L32 2L32 1L31 1L31 0L29 0L29 1L28 1L28 0L27 0L27 1L26 1L26 0L24 0L24 2L26 2L26 3L28 3L28 4L27 4L27 5L26 5L26 4L25 4L25 3L24 3L24 4L25 4L25 5L26 5L26 7L27 7L27 9L26 9L26 8L25 8L25 9L24 9L24 7L25 7L25 6L24 6L24 7L23 7L23 3L22 3L22 1L23 1L23 0L22 0L22 1L21 1L21 0L19 0L19 1L21 1L21 3L22 3L22 4L21 4L21 5L20 5L20 7L19 7L19 6L18 6L18 7L17 7L17 5L19 5L19 2L18 2L18 1L17 1L17 0L13 0L13 1L15 1L15 2L12 2L12 0L11 0L11 1L10 1L10 0ZM16 1L16 4L15 4L15 5L14 5L14 6L13 6L13 7L14 7L14 10L15 10L15 11L16 11L16 10L17 10L17 9L18 9L18 12L16 12L16 14L13 14L13 13L14 13L14 11L13 11L13 12L11 12L11 13L12 13L12 14L11 14L11 16L14 16L14 17L15 17L15 15L17 15L17 16L16 16L16 17L18 17L18 15L17 15L17 13L19 13L19 16L21 16L21 17L22 17L22 18L17 18L17 19L18 19L18 21L15 21L15 20L14 20L14 18L13 18L13 17L10 17L10 15L9 15L9 14L10 14L10 12L9 12L9 11L10 11L10 10L9 10L9 9L10 9L10 8L11 8L11 7L12 7L12 4L14 4L14 3L12 3L12 4L10 4L10 5L11 5L11 7L10 7L10 6L9 6L9 8L8 8L8 10L7 10L7 9L6 9L6 10L5 10L5 9L4 9L4 11L3 11L3 13L5 13L5 16L4 16L4 17L3 17L3 16L2 16L2 15L1 15L1 18L2 18L2 17L3 17L3 18L4 18L4 19L6 19L6 20L5 20L5 21L4 21L4 22L2 22L2 21L3 21L3 19L2 19L2 20L1 20L1 23L3 23L3 24L4 24L4 25L3 25L3 26L4 26L4 25L5 25L5 26L7 26L7 25L8 25L8 26L9 26L9 25L11 25L11 24L13 24L13 26L12 26L12 27L13 27L13 26L14 26L14 27L15 27L15 26L14 26L14 24L13 24L13 23L14 23L14 21L15 21L15 25L16 25L16 23L18 23L18 22L19 22L19 24L18 24L18 25L19 25L19 26L16 26L16 27L18 27L18 29L17 29L17 28L15 28L15 29L17 29L17 30L18 30L18 31L21 31L21 32L19 32L19 33L20 33L20 36L19 36L19 35L17 35L17 36L16 36L16 37L18 37L18 38L19 38L19 37L21 37L21 38L22 38L22 39L23 39L23 40L24 40L24 38L25 38L25 39L27 39L27 38L26 38L26 37L29 37L29 38L28 38L28 39L29 39L29 38L30 38L30 37L31 37L31 36L32 36L32 35L30 35L30 34L32 34L32 32L31 32L31 31L30 31L30 29L31 29L31 28L33 28L33 29L32 29L32 31L33 31L33 32L34 32L34 31L36 31L36 32L37 32L37 31L36 31L36 29L37 29L37 26L38 26L38 28L40 28L40 27L39 27L39 25L37 25L37 24L39 24L39 23L40 23L40 22L39 22L39 23L38 23L38 21L39 21L39 20L40 20L40 17L39 17L39 16L40 16L40 15L39 15L39 14L38 14L38 13L37 13L37 11L36 11L36 12L35 12L35 10L36 10L36 9L35 9L35 10L33 10L33 9L29 9L29 8L28 8L28 9L29 9L29 10L28 10L28 12L25 12L25 13L24 13L24 10L23 10L23 9L22 9L22 8L23 8L23 7L22 7L22 5L21 5L21 7L20 7L20 8L19 8L19 7L18 7L18 8L17 8L17 7L16 7L16 5L17 5L17 4L18 4L18 3L17 3L17 1ZM27 1L27 2L28 2L28 1ZM29 4L29 5L30 5L30 4ZM31 4L31 5L32 5L32 4ZM27 5L27 7L28 7L28 5ZM14 6L14 7L15 7L15 8L16 8L16 9L15 9L15 10L16 10L16 9L17 9L17 8L16 8L16 7L15 7L15 6ZM29 6L29 7L30 7L30 6ZM31 6L31 7L32 7L32 6ZM18 8L18 9L19 9L19 10L20 10L20 11L21 11L21 10L22 10L22 9L21 9L21 8L20 8L20 9L19 9L19 8ZM12 9L12 10L13 10L13 9ZM6 10L6 11L7 11L7 10ZM25 10L25 11L26 11L26 10ZM32 10L32 11L31 11L31 12L30 12L30 11L29 11L29 13L28 13L28 15L29 15L29 17L30 17L30 18L29 18L29 20L28 20L28 21L27 21L27 19L28 19L28 16L26 16L26 15L27 15L27 13L25 13L25 14L24 14L24 13L23 13L23 12L19 12L19 13L21 13L21 14L20 14L20 15L21 15L21 16L23 16L23 15L21 15L21 14L24 14L24 17L27 17L27 19L26 19L26 18L25 18L25 19L26 19L26 20L23 20L23 19L24 19L24 18L22 18L22 19L19 19L19 20L23 20L23 22L24 22L24 24L23 24L23 23L22 23L22 24L21 24L21 22L22 22L22 21L21 21L21 22L20 22L20 24L19 24L19 25L22 25L22 26L19 26L19 28L20 28L20 27L21 27L21 28L22 28L22 30L21 30L21 29L20 29L20 30L21 30L21 31L22 31L22 32L21 32L21 33L22 33L22 34L21 34L21 37L22 37L22 38L24 38L24 36L22 36L22 35L23 35L23 33L25 33L25 34L24 34L24 35L26 35L26 36L27 36L27 35L28 35L28 33L29 33L29 34L30 34L30 33L31 33L31 32L30 32L30 31L28 31L28 30L27 30L27 28L28 28L28 29L30 29L30 28L31 28L31 26L30 26L30 25L33 25L33 27L34 27L34 28L35 28L35 29L36 29L36 28L35 28L35 26L37 26L37 25L33 25L33 23L34 23L34 24L36 24L36 23L34 23L34 22L35 22L35 21L36 21L36 22L37 22L37 17L38 17L38 18L39 18L39 17L38 17L38 14L37 14L37 13L36 13L36 14L37 14L37 15L35 15L35 14L33 14L33 13L35 13L35 12L34 12L34 11L33 11L33 10ZM4 11L4 12L5 12L5 11ZM32 11L32 13L33 13L33 11ZM6 12L6 13L7 13L7 12ZM8 12L8 13L9 13L9 12ZM29 13L29 15L31 15L31 16L30 16L30 17L31 17L31 18L30 18L30 19L32 19L32 21L30 21L30 20L29 20L29 21L28 21L28 23L29 23L29 22L31 22L31 23L30 23L30 24L31 24L31 23L33 23L33 22L32 22L32 21L35 21L35 20L36 20L36 19L35 19L35 18L36 18L36 17L37 17L37 16L36 16L36 17L35 17L35 16L34 16L34 15L32 15L32 14L30 14L30 13ZM6 14L6 15L7 15L7 14ZM25 14L25 15L26 15L26 14ZM8 15L8 16L6 16L6 17L7 17L7 18L6 18L6 19L7 19L7 20L6 20L6 21L5 21L5 22L6 22L6 23L7 23L7 24L5 24L5 25L7 25L7 24L8 24L8 23L7 23L7 22L8 22L8 21L7 21L7 20L8 20L8 18L9 18L9 22L10 22L10 24L11 24L11 23L13 23L13 19L12 19L12 18L9 18L9 17L8 17L8 16L9 16L9 15ZM31 16L31 17L32 17L32 18L33 18L33 17L32 17L32 16ZM4 17L4 18L5 18L5 17ZM34 17L34 18L35 18L35 17ZM15 18L15 19L16 19L16 18ZM10 19L10 21L11 21L11 22L12 22L12 21L11 21L11 19ZM34 19L34 20L35 20L35 19ZM6 21L6 22L7 22L7 21ZM25 21L25 22L26 22L26 21ZM24 24L24 25L26 25L26 27L25 27L25 26L24 26L24 27L23 27L23 28L24 28L24 30L25 30L25 28L27 28L27 25L28 25L28 27L29 27L29 25L28 25L28 24ZM1 26L1 28L2 28L2 26ZM24 27L24 28L25 28L25 27ZM18 29L18 30L19 30L19 29ZM33 29L33 30L34 30L34 29ZM39 29L39 30L40 30L40 29ZM15 30L15 31L16 31L16 34L14 34L14 33L13 33L13 35L12 35L12 36L11 36L11 35L10 35L10 34L9 34L9 35L10 35L10 36L11 36L11 37L14 37L14 35L16 35L16 34L17 34L17 33L18 33L18 32L17 32L17 31L16 31L16 30ZM26 30L26 31L25 31L25 32L26 32L26 31L27 31L27 30ZM23 31L23 32L22 32L22 33L23 33L23 32L24 32L24 31ZM0 32L0 33L2 33L2 32ZM27 32L27 33L28 33L28 32ZM33 33L33 36L36 36L36 33ZM34 34L34 35L35 35L35 34ZM37 34L37 35L38 35L38 34ZM18 36L18 37L19 37L19 36ZM40 37L40 38L38 38L38 39L36 39L36 40L37 40L37 41L40 41L40 40L41 40L41 37ZM14 39L14 41L15 41L15 39ZM34 39L34 40L35 40L35 39ZM0 0L0 7L7 7L7 0ZM1 1L1 6L6 6L6 1ZM2 2L2 5L5 5L5 2ZM34 0L34 7L41 7L41 0ZM35 1L35 6L40 6L40 1ZM36 2L36 5L39 5L39 2ZM0 34L0 41L7 41L7 34ZM1 35L1 40L6 40L6 35ZM2 36L2 39L5 39L5 36Z" fill="#000000"/></g></g></svg>
