<?xml version="1.0" encoding="UTF-8"?>
<svg xmlns="http://www.w3.org/2000/svg" version="1.1" width="200" height="200" viewBox="0 0 200 200"><rect x="0" y="0" width="200" height="200" fill="#ffffff"/><g transform="scale(6.897)"><g transform="translate(0,0)"><path fill-rule="evenodd" d="M9 0L9 1L8 1L8 7L9 7L9 8L5 8L5 9L4 9L4 10L3 10L3 8L2 8L2 10L1 10L1 9L0 9L0 10L1 10L1 12L2 12L2 13L0 13L0 14L1 14L1 15L0 15L0 16L1 16L1 15L3 15L3 16L2 16L2 17L1 17L1 18L0 18L0 19L4 19L4 20L3 20L3 21L4 21L4 20L6 20L6 21L7 21L7 20L6 20L6 19L7 19L7 18L8 18L8 24L9 24L9 25L11 25L11 26L13 26L13 25L14 25L14 24L13 24L13 23L14 23L14 21L13 21L13 22L12 22L12 20L13 20L13 19L15 19L15 20L16 20L16 19L18 19L18 18L19 18L19 19L20 19L20 18L19 18L19 17L20 17L20 16L19 16L19 17L16 17L16 16L17 16L17 15L18 15L18 14L19 14L19 15L21 15L21 19L22 19L22 20L19 20L19 21L18 21L18 20L17 20L17 21L15 21L15 22L16 22L16 23L15 23L15 24L17 24L17 25L18 25L18 26L20 26L20 27L21 27L21 29L22 29L22 28L24 28L24 29L26 29L26 27L28 27L28 28L27 28L27 29L29 29L29 26L26 26L26 25L27 25L27 24L28 24L28 23L27 23L27 24L26 24L26 25L25 25L25 23L26 23L26 21L27 21L27 20L26 20L26 19L27 19L27 18L28 18L28 19L29 19L29 18L28 18L28 17L29 17L29 16L27 16L27 17L25 17L25 16L22 16L22 15L25 15L25 14L26 14L26 13L29 13L29 12L27 12L27 11L29 11L29 9L28 9L28 8L23 8L23 10L22 10L22 11L21 11L21 9L22 9L22 8L20 8L20 7L21 7L21 0L19 0L19 1L20 1L20 2L19 2L19 3L20 3L20 5L19 5L19 4L18 4L18 5L17 5L17 3L18 3L18 2L16 2L16 1L15 1L15 3L14 3L14 2L12 2L12 1L13 1L13 0L11 0L11 1L10 1L10 0ZM17 0L17 1L18 1L18 0ZM10 2L10 3L12 3L12 4L11 4L11 5L10 5L10 4L9 4L9 5L10 5L10 6L9 6L9 7L10 7L10 9L6 9L6 10L4 10L4 12L3 12L3 13L2 13L2 14L3 14L3 15L4 15L4 17L6 17L6 18L7 18L7 17L6 17L6 16L7 16L7 15L6 15L6 16L5 16L5 15L4 15L4 14L3 14L3 13L5 13L5 14L11 14L11 15L13 15L13 14L14 14L14 13L15 13L15 12L17 12L17 13L16 13L16 14L17 14L17 13L18 13L18 12L17 12L17 11L18 11L18 10L19 10L19 11L20 11L20 8L19 8L19 7L20 7L20 6L19 6L19 7L18 7L18 6L17 6L17 5L16 5L16 6L15 6L15 7L16 7L16 6L17 6L17 7L18 7L18 10L17 10L17 8L16 8L16 10L17 10L17 11L14 11L14 10L15 10L15 9L14 9L14 10L12 10L12 9L13 9L13 7L14 7L14 5L15 5L15 4L16 4L16 3L15 3L15 4L14 4L14 3L12 3L12 2ZM12 5L12 7L13 7L13 5ZM10 6L10 7L11 7L11 6ZM11 8L11 9L10 9L10 10L6 10L6 11L5 11L5 13L8 13L8 12L6 12L6 11L9 11L9 13L10 13L10 11L11 11L11 9L12 9L12 8ZM27 9L27 10L28 10L28 9ZM2 10L2 11L3 11L3 10ZM24 10L24 11L26 11L26 10ZM13 11L13 12L14 12L14 11ZM19 12L19 14L22 14L22 12L21 12L21 13L20 13L20 12ZM23 12L23 14L25 14L25 13L24 13L24 12ZM11 13L11 14L13 14L13 13ZM27 14L27 15L29 15L29 14ZM14 15L14 16L12 16L12 17L11 17L11 16L9 16L9 17L11 17L11 18L10 18L10 19L9 19L9 22L10 22L10 24L11 24L11 25L13 25L13 24L12 24L12 23L11 23L11 22L10 22L10 19L11 19L11 20L12 20L12 19L13 19L13 18L15 18L15 19L16 19L16 17L15 17L15 15ZM12 17L12 18L13 18L13 17ZM22 17L22 18L25 18L25 19L26 19L26 18L25 18L25 17ZM23 19L23 20L24 20L24 19ZM0 20L0 21L2 21L2 20ZM17 21L17 24L20 24L20 23L18 23L18 21ZM19 21L19 22L20 22L20 21ZM21 21L21 24L24 24L24 21ZM28 21L28 22L29 22L29 21ZM22 22L22 23L23 23L23 22ZM15 25L15 28L16 28L16 29L19 29L19 28L16 28L16 27L17 27L17 26L16 26L16 25ZM21 25L21 26L22 26L22 27L23 27L23 26L24 26L24 28L25 28L25 25ZM8 26L8 27L9 27L9 26ZM11 27L11 29L12 29L12 28L14 28L14 27ZM0 0L0 7L7 7L7 0ZM1 1L1 6L6 6L6 1ZM2 2L2 5L5 5L5 2ZM22 0L22 7L29 7L29 0ZM23 1L23 6L28 6L28 1ZM24 2L24 5L27 5L27 2ZM0 22L0 29L7 29L7 22ZM1 23L1 28L6 28L6 23ZM2 24L2 27L5 27L5 24Z" fill="#000000"/></g></g></svg>
