<?xml version="1.0" encoding="UTF-8"?>
<svg xmlns="http://www.w3.org/2000/svg" version="1.1" width="200" height="200" viewBox="0 0 200 200"><rect x="0" y="0" width="200" height="200" fill="#ffffff"/><g transform="scale(4.878)"><g transform="translate(0,0)"><path fill-rule="evenodd" d="M9 0L9 1L10 1L10 2L8 2L8 4L9 4L9 5L10 5L10 10L9 10L9 11L7 11L7 10L8 10L8 8L6 8L6 9L5 9L5 8L3 8L3 11L2 11L2 10L1 10L1 11L0 11L0 12L1 12L1 16L0 16L0 17L2 17L2 18L0 18L0 20L1 20L1 21L0 21L0 23L1 23L1 21L3 21L3 20L4 20L4 21L5 21L5 19L7 19L7 20L6 20L6 21L9 21L9 22L10 22L10 23L7 23L7 22L6 22L6 23L7 23L7 24L4 24L4 25L7 25L7 26L5 26L5 27L7 27L7 28L5 28L5 29L8 29L8 30L9 30L9 29L10 29L10 28L11 28L11 29L12 29L12 31L11 31L11 30L10 30L10 31L11 31L11 32L10 32L10 33L8 33L8 35L9 35L9 34L11 34L11 32L12 32L12 34L13 34L13 35L10 35L10 36L8 36L8 38L9 38L9 37L10 37L10 39L9 39L9 41L12 41L12 39L11 39L11 38L14 38L14 40L13 40L13 41L14 41L14 40L16 40L16 38L18 38L18 39L17 39L17 41L18 41L18 39L20 39L20 36L22 36L22 35L23 35L23 41L25 41L25 40L24 40L24 39L26 39L26 41L27 41L27 39L28 39L28 40L29 40L29 39L28 39L28 38L29 38L29 37L30 37L30 38L33 38L33 40L31 40L31 41L34 41L34 40L35 40L35 41L36 41L36 39L37 39L37 40L38 40L38 41L39 41L39 40L38 40L38 39L40 39L40 40L41 40L41 35L40 35L40 34L39 34L39 33L41 33L41 30L38 30L38 29L40 29L40 28L41 28L41 25L39 25L39 24L37 24L37 23L39 23L39 22L41 22L41 21L39 21L39 20L40 20L40 19L41 19L41 18L40 18L40 17L41 17L41 12L40 12L40 13L39 13L39 12L38 12L38 10L39 10L39 11L40 11L40 9L39 9L39 8L37 8L37 9L36 9L36 10L34 10L34 9L33 9L33 8L32 8L32 7L33 7L33 5L32 5L32 4L33 4L33 3L32 3L32 4L29 4L29 3L31 3L31 2L33 2L33 0L32 0L32 1L31 1L31 2L30 2L30 1L29 1L29 0L28 0L28 2L27 2L27 1L26 1L26 0L25 0L25 1L24 1L24 0L18 0L18 1L17 1L17 0L14 0L14 4L13 4L13 3L12 3L12 5L10 5L10 4L9 4L9 3L10 3L10 2L12 2L12 0L11 0L11 1L10 1L10 0ZM20 1L20 2L21 2L21 1ZM22 1L22 2L24 2L24 1ZM15 2L15 3L16 3L16 2ZM17 2L17 3L18 3L18 4L16 4L16 5L17 5L17 7L16 7L16 6L15 6L15 4L14 4L14 5L12 5L12 6L11 6L11 7L12 7L12 9L11 9L11 10L10 10L10 11L9 11L9 12L7 12L7 11L6 11L6 10L7 10L7 9L6 9L6 10L5 10L5 9L4 9L4 11L6 11L6 12L2 12L2 11L1 11L1 12L2 12L2 13L6 13L6 14L4 14L4 18L7 18L7 19L8 19L8 20L9 20L9 21L10 21L10 20L12 20L12 19L8 19L8 18L7 18L7 17L6 17L6 16L7 16L7 15L6 15L6 14L7 14L7 13L8 13L8 14L9 14L9 12L12 12L12 13L10 13L10 14L11 14L11 16L10 16L10 17L9 17L9 18L11 18L11 16L12 16L12 18L13 18L13 20L14 20L14 19L15 19L15 20L16 20L16 22L15 22L15 24L16 24L16 23L17 23L17 24L18 24L18 26L16 26L16 27L14 27L14 26L12 26L12 27L11 27L11 28L13 28L13 30L15 30L15 29L16 29L16 27L17 27L17 29L18 29L18 26L19 26L19 29L20 29L20 26L19 26L19 25L20 25L20 23L21 23L21 27L22 27L22 29L23 29L23 24L22 24L22 23L21 23L21 21L22 21L22 20L20 20L20 18L17 18L17 19L16 19L16 17L17 17L17 16L18 16L18 17L19 17L19 16L20 16L20 17L21 17L21 19L22 19L22 18L23 18L23 16L24 16L24 17L25 17L25 18L24 18L24 19L23 19L23 20L24 20L24 21L23 21L23 23L25 23L25 24L24 24L24 30L21 30L21 31L22 31L22 32L23 32L23 33L22 33L22 34L21 34L21 32L20 32L20 30L18 30L18 31L17 31L17 30L16 30L16 31L17 31L17 32L16 32L16 33L17 33L17 34L15 34L15 36L14 36L14 35L13 35L13 36L12 36L12 37L14 37L14 38L16 38L16 37L17 37L17 35L18 35L18 34L19 34L19 35L20 35L20 34L21 34L21 35L22 35L22 34L23 34L23 33L24 33L24 34L25 34L25 33L26 33L26 32L25 32L25 31L24 31L24 30L28 30L28 31L27 31L27 32L28 32L28 33L29 33L29 32L30 32L30 33L31 33L31 34L29 34L29 36L30 36L30 37L31 37L31 36L30 36L30 35L31 35L31 34L32 34L32 32L33 32L33 31L34 31L34 32L35 32L35 31L36 31L36 30L33 30L33 31L32 31L32 28L31 28L31 26L32 26L32 27L33 27L33 26L34 26L34 24L35 24L35 23L36 23L36 21L34 21L34 22L33 22L33 20L32 20L32 19L34 19L34 20L35 20L35 17L37 17L37 18L36 18L36 20L38 20L38 19L37 19L37 18L39 18L39 17L40 17L40 16L36 16L36 15L38 15L38 13L37 13L37 12L36 12L36 13L35 13L35 11L34 11L34 10L31 10L31 11L30 11L30 12L29 12L29 13L30 13L30 12L32 12L32 13L33 13L33 14L35 14L35 16L34 16L34 17L33 17L33 16L32 16L32 15L30 15L30 14L29 14L29 15L28 15L28 13L27 13L27 9L26 9L26 8L30 8L30 9L28 9L28 11L29 11L29 10L30 10L30 9L31 9L31 7L32 7L32 5L31 5L31 7L30 7L30 5L28 5L28 4L26 4L26 3L25 3L25 5L26 5L26 6L25 6L25 7L26 7L26 8L24 8L24 10L23 10L23 9L22 9L22 5L24 5L24 4L22 4L22 3L20 3L20 4L21 4L21 5L20 5L20 6L19 6L19 7L18 7L18 5L19 5L19 3L18 3L18 2ZM28 2L28 3L29 3L29 2ZM8 6L8 7L9 7L9 6ZM12 6L12 7L13 7L13 6ZM14 6L14 10L13 10L13 11L14 11L14 12L15 12L15 13L16 13L16 14L14 14L14 13L13 13L13 14L12 14L12 16L14 16L14 15L17 15L17 14L18 14L18 13L19 13L19 14L20 14L20 15L22 15L22 16L23 16L23 15L24 15L24 13L23 13L23 11L21 11L21 9L20 9L20 10L19 10L19 9L18 9L18 7L17 7L17 10L16 10L16 7L15 7L15 6ZM20 6L20 7L19 7L19 8L20 8L20 7L21 7L21 6ZM23 6L23 7L24 7L24 6ZM26 6L26 7L27 7L27 6ZM28 6L28 7L29 7L29 6ZM25 9L25 10L24 10L24 11L25 11L25 13L26 13L26 11L25 11L25 10L26 10L26 9ZM37 9L37 10L36 10L36 11L37 11L37 10L38 10L38 9ZM11 10L11 11L12 11L12 10ZM15 10L15 11L16 11L16 13L18 13L18 12L17 12L17 11L16 11L16 10ZM18 10L18 11L19 11L19 12L20 12L20 11L19 11L19 10ZM6 12L6 13L7 13L7 12ZM20 13L20 14L21 14L21 13ZM22 13L22 15L23 15L23 13ZM36 13L36 14L37 14L37 13ZM2 14L2 16L3 16L3 14ZM13 14L13 15L14 15L14 14ZM8 15L8 16L9 16L9 15ZM18 15L18 16L19 16L19 15ZM27 15L27 16L25 16L25 17L26 17L26 19L32 19L32 17L31 17L31 16L30 16L30 17L27 17L27 16L28 16L28 15ZM15 16L15 17L14 17L14 18L15 18L15 17L16 17L16 16ZM30 17L30 18L31 18L31 17ZM2 18L2 19L1 19L1 20L3 20L3 18ZM17 19L17 20L18 20L18 21L17 21L17 22L18 22L18 23L20 23L20 22L19 22L19 21L20 21L20 20L19 20L19 19ZM25 20L25 21L24 21L24 22L25 22L25 23L26 23L26 24L25 24L25 29L28 29L28 30L29 30L29 31L30 31L30 29L31 29L31 28L30 28L30 29L29 29L29 28L26 28L26 27L28 27L28 26L31 26L31 25L33 25L33 24L34 24L34 23L33 23L33 22L32 22L32 20L30 20L30 21L31 21L31 22L30 22L30 23L29 23L29 24L28 24L28 22L29 22L29 21L27 21L27 22L25 22L25 21L26 21L26 20ZM13 21L13 22L14 22L14 21ZM4 22L4 23L5 23L5 22ZM31 22L31 23L30 23L30 24L29 24L29 25L31 25L31 24L32 24L32 22ZM2 23L2 24L0 24L0 26L1 26L1 25L2 25L2 30L1 30L1 29L0 29L0 33L2 33L2 31L3 31L3 32L4 32L4 33L5 33L5 32L6 32L6 33L7 33L7 32L9 32L9 31L7 31L7 30L6 30L6 31L5 31L5 30L4 30L4 29L3 29L3 27L4 27L4 26L3 26L3 23ZM10 23L10 24L7 24L7 25L8 25L8 26L7 26L7 27L9 27L9 26L11 26L11 25L12 25L12 24L13 24L13 25L14 25L14 23L12 23L12 24L11 24L11 23ZM10 24L10 25L11 25L11 24ZM36 24L36 25L37 25L37 27L39 27L39 28L40 28L40 27L39 27L39 25L37 25L37 24ZM26 25L26 26L27 26L27 25ZM35 26L35 28L34 28L34 29L38 29L38 28L36 28L36 26ZM0 27L0 28L1 28L1 27ZM13 27L13 28L14 28L14 29L15 29L15 28L14 28L14 27ZM8 28L8 29L9 29L9 28ZM37 30L37 31L38 31L38 30ZM4 31L4 32L5 32L5 31ZM6 31L6 32L7 32L7 31ZM14 31L14 32L13 32L13 34L14 34L14 32L15 32L15 31ZM18 31L18 32L17 32L17 33L19 33L19 31ZM23 31L23 32L24 32L24 31ZM37 32L37 38L40 38L40 37L39 37L39 34L38 34L38 32ZM33 33L33 36L36 36L36 33ZM34 34L34 35L35 35L35 34ZM26 35L26 36L25 36L25 37L26 37L26 39L27 39L27 37L26 37L26 36L28 36L28 35ZM10 36L10 37L11 37L11 36ZM15 36L15 37L16 37L16 36ZM18 37L18 38L19 38L19 37ZM34 37L34 39L35 39L35 38L36 38L36 37ZM19 40L19 41L21 41L21 40ZM0 0L0 7L7 7L7 0ZM1 1L1 6L6 6L6 1ZM2 2L2 5L5 5L5 2ZM34 0L34 7L41 7L41 0ZM35 1L35 6L40 6L40 1ZM36 2L36 5L39 5L39 2ZM0 34L0 41L7 41L7 34ZM1 35L1 40L6 40L6 35ZM2 36L2 39L5 39L5 36Z" fill="#000000"/></g></g></svg>
