<?xml version="1.0" encoding="UTF-8"?>
<svg xmlns="http://www.w3.org/2000/svg" version="1.1" width="200" height="200" viewBox="0 0 200 200"><rect x="0" y="0" width="200" height="200" fill="#ffffff"/><g transform="scale(6.897)"><g transform="translate(0,0)"><path fill-rule="evenodd" d="M9 0L9 2L8 2L8 4L9 4L9 6L8 6L8 7L9 7L9 8L10 8L10 10L11 10L11 11L8 11L8 8L6 8L6 9L7 9L7 10L4 10L4 11L3 11L3 9L5 9L5 8L3 8L3 9L2 9L2 10L0 10L0 15L4 15L4 14L5 14L5 16L6 16L6 17L7 17L7 18L6 18L6 19L5 19L5 17L4 17L4 16L1 16L1 17L0 17L0 21L2 21L2 19L5 19L5 21L7 21L7 20L8 20L8 19L9 19L9 20L14 20L14 19L10 19L10 17L11 17L11 18L12 18L12 17L13 17L13 18L15 18L15 19L17 19L17 20L18 20L18 21L20 21L20 24L19 24L19 22L18 22L18 24L19 24L19 25L17 25L17 21L16 21L16 20L15 20L15 21L16 21L16 23L14 23L14 22L13 22L13 21L10 21L10 22L9 22L9 21L8 21L8 23L9 23L9 24L8 24L8 26L9 26L9 24L11 24L11 23L12 23L12 22L13 22L13 24L14 24L14 25L11 25L11 26L10 26L10 28L11 28L11 27L12 27L12 28L13 28L13 29L14 29L14 28L15 28L15 29L20 29L20 28L21 28L21 29L23 29L23 28L24 28L24 29L28 29L28 28L25 28L25 27L26 27L26 25L29 25L29 22L28 22L28 21L26 21L26 19L25 19L25 18L28 18L28 19L29 19L29 17L28 17L28 16L29 16L29 14L27 14L27 13L29 13L29 11L28 11L28 10L27 10L27 8L25 8L25 9L26 9L26 10L25 10L25 12L24 12L24 16L23 16L23 12L22 12L22 11L21 11L21 10L19 10L19 9L16 9L16 8L19 8L19 6L20 6L20 7L21 7L21 4L19 4L19 3L20 3L20 1L21 1L21 0L19 0L19 1L18 1L18 0L16 0L16 2L15 2L15 0L13 0L13 1L12 1L12 0L11 0L11 1L10 1L10 0ZM17 1L17 4L16 4L16 3L15 3L15 2L11 2L11 3L10 3L10 2L9 2L9 4L11 4L11 5L10 5L10 6L9 6L9 7L10 7L10 6L11 6L11 7L12 7L12 6L13 6L13 8L12 8L12 9L11 9L11 10L12 10L12 9L13 9L13 8L14 8L14 9L15 9L15 10L13 10L13 11L12 11L12 12L10 12L10 14L12 14L12 16L14 16L14 17L15 17L15 16L16 16L16 18L18 18L18 17L17 17L17 16L19 16L19 18L20 18L20 19L21 19L21 20L22 20L22 19L21 19L21 16L20 16L20 15L21 15L21 14L22 14L22 12L21 12L21 14L20 14L20 15L19 15L19 14L18 14L18 11L17 11L17 10L16 10L16 9L15 9L15 7L16 7L16 6L15 6L15 5L14 5L14 6L13 6L13 5L12 5L12 3L14 3L14 4L16 4L16 5L17 5L17 7L18 7L18 6L19 6L19 4L18 4L18 3L19 3L19 2L18 2L18 1ZM11 5L11 6L12 6L12 5ZM14 6L14 7L15 7L15 6ZM22 9L22 10L23 10L23 11L24 11L24 9ZM26 10L26 11L27 11L27 12L28 12L28 11L27 11L27 10ZM1 11L1 12L2 12L2 13L3 13L3 14L4 14L4 12L5 12L5 14L8 14L8 16L7 16L7 15L6 15L6 16L7 16L7 17L8 17L8 16L10 16L10 15L9 15L9 13L6 13L6 12L7 12L7 11L6 11L6 12L5 12L5 11L4 11L4 12L3 12L3 11ZM13 11L13 13L12 13L12 14L13 14L13 15L14 15L14 16L15 16L15 15L14 15L14 14L16 14L16 15L18 15L18 14L17 14L17 13L16 13L16 11ZM14 12L14 13L13 13L13 14L14 14L14 13L15 13L15 12ZM19 12L19 13L20 13L20 12ZM25 13L25 16L26 16L26 17L27 17L27 16L28 16L28 15L27 15L27 16L26 16L26 13ZM22 16L22 17L23 17L23 16ZM3 17L3 18L4 18L4 17ZM7 18L7 19L6 19L6 20L7 20L7 19L8 19L8 18ZM23 19L23 20L24 20L24 19ZM3 20L3 21L4 21L4 20ZM21 21L21 24L24 24L24 21ZM22 22L22 23L23 23L23 22ZM25 22L25 25L26 25L26 24L28 24L28 23L27 23L27 22ZM14 25L14 27L13 27L13 28L14 28L14 27L15 27L15 28L16 28L16 26L17 26L17 25L16 25L16 26L15 26L15 25ZM19 25L19 28L20 28L20 27L21 27L21 26L22 26L22 28L23 28L23 27L25 27L25 26L24 26L24 25ZM27 26L27 27L29 27L29 26ZM0 0L0 7L7 7L7 0ZM1 1L1 6L6 6L6 1ZM2 2L2 5L5 5L5 2ZM22 0L22 7L29 7L29 0ZM23 1L23 6L28 6L28 1ZM24 2L24 5L27 5L27 2ZM0 22L0 29L7 29L7 22ZM1 23L1 28L6 28L6 23ZM2 24L2 27L5 27L5 24Z" fill="#000000"/></g></g></svg>
