<?xml version="1.0" encoding="UTF-8"?>
<svg xmlns="http://www.w3.org/2000/svg" version="1.1" width="200" height="200" viewBox="0 0 200 200"><rect x="0" y="0" width="200" height="200" fill="#ffffff"/><g transform="scale(6.897)"><g transform="translate(0,0)"><path fill-rule="evenodd" d="M9 0L9 1L8 1L8 7L9 7L9 5L10 5L10 7L11 7L11 4L12 4L12 3L10 3L10 2L11 2L11 1L13 1L13 0ZM14 0L14 1L16 1L16 2L15 2L15 3L14 3L14 2L13 2L13 3L14 3L14 4L15 4L15 6L14 6L14 5L12 5L12 7L13 7L13 8L14 8L14 9L13 9L13 10L14 10L14 11L13 11L13 12L14 12L14 11L15 11L15 12L16 12L16 13L12 13L12 11L11 11L11 10L12 10L12 8L11 8L11 9L10 9L10 8L5 8L5 9L3 9L3 8L2 8L2 9L3 9L3 12L2 12L2 10L1 10L1 9L0 9L0 10L1 10L1 12L2 12L2 13L1 13L1 14L0 14L0 15L1 15L1 16L0 16L0 17L2 17L2 18L0 18L0 19L2 19L2 20L0 20L0 21L2 21L2 20L3 20L3 21L4 21L4 20L6 20L6 21L8 21L8 24L9 24L9 25L10 25L10 26L11 26L11 27L12 27L12 28L11 28L11 29L12 29L12 28L14 28L14 27L12 27L12 25L13 25L13 22L12 22L12 21L11 21L11 20L13 20L13 19L16 19L16 18L17 18L17 19L18 19L18 18L19 18L19 19L20 19L20 18L19 18L19 17L20 17L20 16L18 16L18 14L19 14L19 15L21 15L21 19L22 19L22 20L19 20L19 21L18 21L18 20L17 20L17 21L16 21L16 20L15 20L15 22L16 22L16 23L14 23L14 24L16 24L16 25L15 25L15 26L16 26L16 27L15 27L15 28L16 28L16 29L19 29L19 28L16 28L16 27L17 27L17 25L18 25L18 26L20 26L20 27L21 27L21 29L22 29L22 28L24 28L24 29L26 29L26 28L24 28L24 26L23 26L23 27L22 27L22 26L21 26L21 25L25 25L25 26L26 26L26 25L27 25L27 24L28 24L28 25L29 25L29 24L28 24L28 23L29 23L29 21L27 21L27 19L26 19L26 18L28 18L28 19L29 19L29 18L28 18L28 17L29 17L29 16L27 16L27 17L25 17L25 16L22 16L22 15L25 15L25 14L26 14L26 13L27 13L27 15L28 15L28 14L29 14L29 12L27 12L27 11L29 11L29 9L28 9L28 8L23 8L23 10L22 10L22 11L21 11L21 9L22 9L22 8L20 8L20 7L21 7L21 0L19 0L19 1L20 1L20 2L19 2L19 3L20 3L20 5L19 5L19 4L18 4L18 5L17 5L17 3L18 3L18 2L17 2L17 1L18 1L18 0L17 0L17 1L16 1L16 0ZM15 3L15 4L16 4L16 3ZM16 5L16 6L15 6L15 7L16 7L16 6L17 6L17 7L18 7L18 10L15 10L15 9L14 9L14 10L15 10L15 11L16 11L16 12L17 12L17 13L16 13L16 14L18 14L18 12L17 12L17 11L18 11L18 10L19 10L19 11L20 11L20 8L19 8L19 7L20 7L20 6L19 6L19 7L18 7L18 6L17 6L17 5ZM13 6L13 7L14 7L14 6ZM5 9L5 10L4 10L4 12L3 12L3 13L2 13L2 14L1 14L1 15L2 15L2 16L3 16L3 20L4 20L4 17L5 17L5 16L7 16L7 15L5 15L5 14L9 14L9 15L10 15L10 16L11 16L11 15L13 15L13 14L11 14L11 11L10 11L10 13L9 13L9 12L8 12L8 11L9 11L9 10L10 10L10 9ZM26 9L26 10L24 10L24 11L26 11L26 10L28 10L28 9ZM6 10L6 11L5 11L5 13L3 13L3 14L2 14L2 15L3 15L3 16L4 16L4 15L3 15L3 14L5 14L5 13L8 13L8 12L6 12L6 11L8 11L8 10ZM19 12L19 14L22 14L22 12L21 12L21 13L20 13L20 12ZM23 12L23 14L25 14L25 13L24 13L24 12ZM14 14L14 15L15 15L15 14ZM8 16L8 17L9 17L9 16ZM13 16L13 17L10 17L10 19L9 19L9 18L8 18L8 19L9 19L9 22L10 22L10 19L11 19L11 18L12 18L12 19L13 19L13 18L16 18L16 17L18 17L18 16L16 16L16 17L14 17L14 16ZM6 17L6 18L7 18L7 17ZM22 17L22 18L25 18L25 17ZM6 19L6 20L7 20L7 19ZM23 19L23 20L25 20L25 19ZM19 21L19 22L20 22L20 21ZM21 21L21 24L24 24L24 21ZM26 21L26 23L25 23L25 25L26 25L26 24L27 24L27 23L28 23L28 22L27 22L27 21ZM17 22L17 23L18 23L18 25L19 25L19 24L20 24L20 23L18 23L18 22ZM22 22L22 23L23 23L23 22ZM9 23L9 24L10 24L10 23ZM11 23L11 25L12 25L12 23ZM8 26L8 27L9 27L9 26ZM27 26L27 27L28 27L28 28L27 28L27 29L29 29L29 26ZM0 0L0 7L7 7L7 0ZM1 1L1 6L6 6L6 1ZM2 2L2 5L5 5L5 2ZM22 0L22 7L29 7L29 0ZM23 1L23 6L28 6L28 1ZM24 2L24 5L27 5L27 2ZM0 22L0 29L7 29L7 22ZM1 23L1 28L6 28L6 23ZM2 24L2 27L5 27L5 24Z" fill="#000000"/></g></g></svg>
