<?xml version="1.0" encoding="UTF-8"?>
<svg xmlns="http://www.w3.org/2000/svg" version="1.1" width="200" height="200" viewBox="0 0 200 200"><rect x="0" y="0" width="200" height="200" fill="#ffffff"/><g transform="scale(4.878)"><g transform="translate(0,0)"><path fill-rule="evenodd" d="M8 0L8 3L10 3L10 4L11 4L11 6L10 6L10 7L11 7L11 6L12 6L12 7L13 7L13 6L14 6L14 8L9 8L9 5L8 5L8 9L7 9L7 8L6 8L6 9L7 9L7 10L5 10L5 11L4 11L4 9L5 9L5 8L2 8L2 9L1 9L1 10L0 10L0 11L1 11L1 10L2 10L2 11L4 11L4 12L3 12L3 13L5 13L5 17L4 17L4 15L3 15L3 17L1 17L1 15L2 15L2 14L0 14L0 19L1 19L1 20L2 20L2 21L1 21L1 22L2 22L2 23L3 23L3 24L1 24L1 23L0 23L0 24L1 24L1 27L2 27L2 26L3 26L3 24L4 24L4 27L5 27L5 28L3 28L3 29L5 29L5 31L2 31L2 33L5 33L5 31L8 31L8 32L6 32L6 33L8 33L8 34L9 34L9 33L10 33L10 32L11 32L11 31L10 31L10 30L11 30L11 29L12 29L12 27L13 27L13 30L12 30L12 31L14 31L14 33L15 33L15 31L16 31L16 35L14 35L14 38L12 38L12 37L11 37L11 38L10 38L10 35L11 35L11 34L10 34L10 35L9 35L9 36L8 36L8 39L11 39L11 40L12 40L12 41L13 41L13 39L14 39L14 40L15 40L15 41L16 41L16 40L18 40L18 41L20 41L20 40L19 40L19 39L18 39L18 38L20 38L20 39L21 39L21 38L22 38L22 37L23 37L23 38L24 38L24 40L23 40L23 39L22 39L22 41L24 41L24 40L25 40L25 41L31 41L31 40L33 40L33 41L34 41L34 40L33 40L33 39L35 39L35 40L36 40L36 39L37 39L37 40L40 40L40 38L41 38L41 37L40 37L40 36L37 36L37 33L38 33L38 34L39 34L39 35L40 35L40 34L41 34L41 33L40 33L40 32L41 32L41 31L40 31L40 30L41 30L41 29L40 29L40 26L41 26L41 23L39 23L39 24L40 24L40 26L39 26L39 25L33 25L33 24L34 24L34 23L33 23L33 24L32 24L32 25L31 25L31 22L32 22L32 21L34 21L34 22L35 22L35 23L36 23L36 24L37 24L37 23L38 23L38 21L39 21L39 20L36 20L36 19L35 19L35 17L36 17L36 18L37 18L37 19L38 19L38 17L39 17L39 18L41 18L41 16L40 16L40 17L39 17L39 16L38 16L38 15L39 15L39 14L41 14L41 13L39 13L39 14L38 14L38 15L36 15L36 16L35 16L35 17L34 17L34 16L32 16L32 17L30 17L30 16L29 16L29 15L31 15L31 12L32 12L32 13L33 13L33 14L32 14L32 15L34 15L34 13L35 13L35 11L36 11L36 12L38 12L38 11L40 11L40 10L41 10L41 8L38 8L38 9L40 9L40 10L37 10L37 9L36 9L36 8L32 8L32 9L31 9L31 8L29 8L29 6L30 6L30 7L31 7L31 6L30 6L30 5L32 5L32 4L33 4L33 3L32 3L32 2L33 2L33 1L32 1L32 0L31 0L31 1L32 1L32 2L30 2L30 0L29 0L29 1L27 1L27 0L26 0L26 1L27 1L27 2L26 2L26 3L28 3L28 4L29 4L29 3L32 3L32 4L30 4L30 5L27 5L27 4L25 4L25 3L24 3L24 2L22 2L22 3L21 3L21 4L23 4L23 6L22 6L22 5L20 5L20 7L19 7L19 6L18 6L18 5L17 5L17 4L16 4L16 5L15 5L15 6L14 6L14 4L15 4L15 3L17 3L17 0L10 0L10 1L9 1L9 0ZM19 0L19 1L18 1L18 2L19 2L19 3L18 3L18 4L20 4L20 1L22 1L22 0ZM23 0L23 1L25 1L25 0ZM12 1L12 2L11 2L11 4L14 4L14 3L15 3L15 2L16 2L16 1L15 1L15 2L14 2L14 3L13 3L13 1ZM24 4L24 5L25 5L25 8L23 8L23 7L24 7L24 6L23 6L23 7L22 7L22 6L21 6L21 10L19 10L19 9L20 9L20 8L17 8L17 9L18 9L18 10L19 10L19 13L18 13L18 11L17 11L17 10L16 10L16 11L17 11L17 13L16 13L16 12L15 12L15 11L14 11L14 10L13 10L13 11L14 11L14 12L13 12L13 13L12 13L12 14L11 14L11 13L9 13L9 12L12 12L12 10L11 10L11 9L8 9L8 10L9 10L9 12L8 12L8 13L9 13L9 15L8 15L8 14L7 14L7 13L6 13L6 14L7 14L7 15L6 15L6 16L7 16L7 17L6 17L6 18L7 18L7 19L5 19L5 18L3 18L3 19L2 19L2 18L1 18L1 19L2 19L2 20L3 20L3 21L2 21L2 22L3 22L3 23L4 23L4 24L5 24L5 26L7 26L7 27L6 27L6 28L7 28L7 27L8 27L8 26L9 26L9 28L10 28L10 29L11 29L11 26L12 26L12 25L13 25L13 26L15 26L15 27L14 27L14 31L15 31L15 30L16 30L16 31L17 31L17 33L18 33L18 32L19 32L19 31L20 31L20 36L19 36L19 34L18 34L18 36L17 36L17 35L16 35L16 36L15 36L15 37L16 37L16 38L14 38L14 39L16 39L16 38L17 38L17 37L18 37L18 36L19 36L19 37L20 37L20 38L21 38L21 37L20 37L20 36L22 36L22 33L23 33L23 34L24 34L24 33L25 33L25 35L26 35L26 39L25 39L25 40L27 40L27 38L28 38L28 37L29 37L29 38L30 38L30 37L31 37L31 39L28 39L28 40L31 40L31 39L33 39L33 38L36 38L36 37L33 37L33 38L32 38L32 35L31 35L31 33L30 33L30 35L31 35L31 36L29 36L29 33L25 33L25 32L27 32L27 28L28 28L28 27L26 27L26 28L25 28L25 27L24 27L24 28L22 28L22 27L18 27L18 26L21 26L21 25L22 25L22 24L21 24L21 23L20 23L20 22L21 22L21 21L22 21L22 22L23 22L23 21L22 21L22 19L21 19L21 18L22 18L22 17L23 17L23 20L24 20L24 21L25 21L25 20L24 20L24 17L23 17L23 16L22 16L22 17L20 17L20 16L21 16L21 15L22 15L22 14L21 14L21 15L20 15L20 14L19 14L19 13L22 13L22 11L23 11L23 12L24 12L24 10L25 10L25 13L24 13L24 14L23 14L23 15L24 15L24 14L26 14L26 15L27 15L27 16L26 16L26 17L25 17L25 19L27 19L27 18L29 18L29 21L27 21L27 20L26 20L26 22L24 22L24 23L23 23L23 25L26 25L26 24L25 24L25 23L27 23L27 24L30 24L30 23L27 23L27 22L31 22L31 21L32 21L32 19L33 19L33 20L34 20L34 21L35 21L35 22L36 22L36 21L35 21L35 19L34 19L34 18L33 18L33 17L32 17L32 18L31 18L31 19L30 19L30 17L29 17L29 16L28 16L28 15L29 15L29 14L30 14L30 13L29 13L29 12L31 12L31 11L32 11L32 12L33 12L33 13L34 13L34 12L33 12L33 11L34 11L34 9L32 9L32 10L31 10L31 9L29 9L29 8L28 8L28 9L27 9L27 7L28 7L28 6L27 6L27 5L25 5L25 4ZM15 6L15 7L16 7L16 6ZM17 6L17 7L18 7L18 6ZM26 6L26 7L27 7L27 6ZM32 6L32 7L33 7L33 6ZM14 8L14 9L15 9L15 8ZM22 8L22 10L21 10L21 11L22 11L22 10L23 10L23 8ZM26 9L26 10L27 10L27 11L28 11L28 10L29 10L29 9L28 9L28 10L27 10L27 9ZM35 9L35 10L36 10L36 9ZM10 10L10 11L11 11L11 10ZM30 10L30 11L31 11L31 10ZM6 11L6 12L7 12L7 11ZM26 12L26 14L29 14L29 13L28 13L28 12ZM13 13L13 14L14 14L14 15L11 15L11 16L10 16L10 17L9 17L9 16L8 16L8 17L9 17L9 18L8 18L8 23L7 23L7 22L6 22L6 21L7 21L7 20L6 20L6 21L5 21L5 19L4 19L4 23L7 23L7 24L6 24L6 25L8 25L8 23L9 23L9 22L10 22L10 21L11 21L11 19L9 19L9 18L12 18L12 19L13 19L13 18L12 18L12 17L11 17L11 16L14 16L14 18L16 18L16 17L17 17L17 15L18 15L18 18L19 18L19 15L18 15L18 14L17 14L17 15L16 15L16 13L15 13L15 14L14 14L14 13ZM36 13L36 14L37 14L37 13ZM14 15L14 16L16 16L16 15ZM36 16L36 17L38 17L38 16ZM14 19L14 20L16 20L16 19ZM17 20L17 23L16 23L16 24L15 24L15 26L16 26L16 27L15 27L15 28L18 28L18 27L17 27L17 23L18 23L18 24L19 24L19 25L20 25L20 24L19 24L19 21L21 21L21 20ZM30 20L30 21L31 21L31 20ZM40 20L40 21L41 21L41 20ZM12 21L12 22L11 22L11 24L9 24L9 25L11 25L11 24L13 24L13 23L15 23L15 21ZM12 22L12 23L13 23L13 22ZM27 25L27 26L29 26L29 28L30 28L30 29L28 29L28 30L30 30L30 31L28 31L28 32L30 32L30 31L31 31L31 30L32 30L32 31L33 31L33 32L36 32L36 30L35 30L35 29L37 29L37 30L38 30L38 31L37 31L37 32L39 32L39 26L38 26L38 28L36 28L36 26L34 26L34 27L33 27L33 25L32 25L32 26L31 26L31 25L30 25L30 26L29 26L29 25ZM32 27L32 28L33 28L33 29L32 29L32 30L33 30L33 29L34 29L34 28L33 28L33 27ZM0 28L0 33L1 33L1 30L2 30L2 29L1 29L1 28ZM19 28L19 30L20 30L20 31L21 31L21 32L22 32L22 31L25 31L25 30L24 30L24 29L22 29L22 28ZM6 29L6 30L8 30L8 29ZM16 29L16 30L17 30L17 31L18 31L18 29ZM21 29L21 30L22 30L22 29ZM30 29L30 30L31 30L31 29ZM34 30L34 31L35 31L35 30ZM12 32L12 34L13 34L13 32ZM33 33L33 36L36 36L36 33ZM27 34L27 36L28 36L28 34ZM34 34L34 35L35 35L35 34ZM23 35L23 37L25 37L25 36L24 36L24 35ZM16 36L16 37L17 37L17 36ZM37 38L37 39L38 39L38 38ZM0 0L0 7L7 7L7 0ZM1 1L1 6L6 6L6 1ZM2 2L2 5L5 5L5 2ZM34 0L34 7L41 7L41 0ZM35 1L35 6L40 6L40 1ZM36 2L36 5L39 5L39 2ZM0 34L0 41L7 41L7 34ZM1 35L1 40L6 40L6 35ZM2 36L2 39L5 39L5 36Z" fill="#000000"/></g></g></svg>
