<?xml version="1.0" encoding="UTF-8"?>
<svg xmlns="http://www.w3.org/2000/svg" version="1.1" width="200" height="200" viewBox="0 0 200 200"><rect x="0" y="0" width="200" height="200" fill="#ffffff"/><g transform="scale(4.878)"><g transform="translate(0,0)"><path fill-rule="evenodd" d="M8 0L8 3L9 3L9 0ZM14 0L14 1L13 1L13 2L12 2L12 1L11 1L11 3L10 3L10 4L11 4L11 5L10 5L10 7L11 7L11 8L10 8L10 9L11 9L11 8L12 8L12 10L6 10L6 9L7 9L7 8L6 8L6 9L5 9L5 8L2 8L2 9L0 9L0 11L2 11L2 9L3 9L3 10L6 10L6 11L4 11L4 13L3 13L3 12L2 12L2 14L3 14L3 15L2 15L2 16L1 16L1 14L0 14L0 16L1 16L1 17L2 17L2 19L0 19L0 20L1 20L1 21L0 21L0 22L1 22L1 21L2 21L2 22L3 22L3 23L2 23L2 24L1 24L1 23L0 23L0 24L1 24L1 25L2 25L2 26L0 26L0 33L1 33L1 27L2 27L2 26L5 26L5 27L4 27L4 28L3 28L3 29L4 29L4 28L5 28L5 30L4 30L4 31L7 31L7 32L6 32L6 33L7 33L7 32L9 32L9 33L8 33L8 34L9 34L9 35L10 35L10 36L8 36L8 39L9 39L9 40L10 40L10 41L11 41L11 40L13 40L13 39L14 39L14 41L17 41L17 40L18 40L18 38L17 38L17 36L18 36L18 37L19 37L19 39L20 39L20 40L21 40L21 39L22 39L22 41L23 41L23 40L25 40L25 39L27 39L27 40L28 40L28 41L32 41L32 40L33 40L33 41L34 41L34 40L33 40L33 39L35 39L35 40L36 40L36 39L37 39L37 40L40 40L40 38L41 38L41 37L40 37L40 34L41 34L41 33L40 33L40 30L41 30L41 28L39 28L39 30L38 30L38 29L35 29L35 30L34 30L34 31L36 31L36 32L33 32L33 31L32 31L32 30L33 30L33 29L34 29L34 28L33 28L33 27L34 27L34 26L35 26L35 25L36 25L36 26L37 26L37 27L35 27L35 28L38 28L38 26L39 26L39 27L40 27L40 26L41 26L41 23L39 23L39 22L38 22L38 21L39 21L39 20L36 20L36 19L35 19L35 17L36 17L36 18L37 18L37 19L38 19L38 18L37 18L37 17L36 17L36 16L38 16L38 17L39 17L39 16L38 16L38 14L39 14L39 15L40 15L40 14L41 14L41 13L40 13L40 12L41 12L41 11L40 11L40 10L41 10L41 8L38 8L38 9L40 9L40 10L37 10L37 9L36 9L36 8L33 8L33 6L32 6L32 7L31 7L31 5L32 5L32 4L33 4L33 2L30 2L30 0L29 0L29 1L27 1L27 0L26 0L26 1L27 1L27 2L26 2L26 3L28 3L28 4L29 4L29 3L32 3L32 4L30 4L30 7L31 7L31 8L33 8L33 9L30 9L30 8L24 8L24 7L25 7L25 6L26 6L26 7L27 7L27 6L28 6L28 7L29 7L29 6L28 6L28 5L27 5L27 4L25 4L25 3L24 3L24 2L25 2L25 1L22 1L22 2L21 2L21 0L20 0L20 1L19 1L19 2L18 2L18 5L16 5L16 4L15 4L15 3L17 3L17 1L18 1L18 0L17 0L17 1L16 1L16 0ZM31 0L31 1L32 1L32 0ZM15 1L15 2L16 2L16 1ZM13 2L13 3L12 3L12 4L13 4L13 10L12 10L12 11L6 11L6 12L5 12L5 13L4 13L4 15L3 15L3 16L4 16L4 15L5 15L5 14L7 14L7 13L10 13L10 16L9 16L9 17L10 17L10 18L8 18L8 17L5 17L5 18L4 18L4 19L6 19L6 20L5 20L5 21L3 21L3 22L5 22L5 23L3 23L3 24L4 24L4 25L5 25L5 24L7 24L7 25L6 25L6 26L7 26L7 27L5 27L5 28L7 28L7 29L6 29L6 30L7 30L7 31L11 31L11 32L12 32L12 33L13 33L13 31L14 31L14 33L15 33L15 34L16 34L16 35L15 35L15 36L14 36L14 39L15 39L15 40L17 40L17 39L15 39L15 38L16 38L16 35L20 35L20 36L19 36L19 37L20 37L20 38L21 38L21 37L23 37L23 39L25 39L25 38L29 38L29 39L28 39L28 40L32 40L32 39L33 39L33 38L36 38L36 37L32 37L32 35L31 35L31 34L30 34L30 35L31 35L31 36L29 36L29 33L27 33L27 32L25 32L25 33L27 33L27 34L24 34L24 32L23 32L23 30L25 30L25 31L27 31L27 30L25 30L25 29L26 29L26 28L27 28L27 27L26 27L26 26L25 26L25 25L27 25L27 26L28 26L28 28L31 28L31 29L28 29L28 30L30 30L30 31L28 31L28 32L30 32L30 33L31 33L31 32L30 32L30 31L31 31L31 30L32 30L32 29L33 29L33 28L32 28L32 26L33 26L33 25L35 25L35 24L36 24L36 25L39 25L39 26L40 26L40 24L39 24L39 23L37 23L37 24L36 24L36 23L35 23L35 22L36 22L36 21L35 21L35 19L34 19L34 18L33 18L33 17L32 17L32 16L34 16L34 17L35 17L35 15L36 15L36 13L37 13L37 14L38 14L38 13L39 13L39 14L40 14L40 13L39 13L39 12L40 12L40 11L38 11L38 12L36 12L36 10L35 10L35 13L34 13L34 12L33 12L33 13L32 13L32 12L31 12L31 11L32 11L32 10L31 10L31 11L29 11L29 12L28 12L28 13L29 13L29 12L31 12L31 16L30 16L30 14L27 14L27 12L26 12L26 14L25 14L25 13L23 13L23 12L25 12L25 9L24 9L24 8L23 8L23 10L24 10L24 11L22 11L22 9L21 9L21 10L20 10L20 9L19 9L19 8L21 8L21 7L22 7L22 6L23 6L23 7L24 7L24 6L25 6L25 5L22 5L22 6L21 6L21 7L20 7L20 5L21 5L21 4L22 4L22 3L23 3L23 4L24 4L24 3L23 3L23 2L22 2L22 3L21 3L21 4L20 4L20 2L19 2L19 4L20 4L20 5L18 5L18 6L17 6L17 7L16 7L16 5L14 5L14 4L13 4L13 3L14 3L14 2ZM8 5L8 9L9 9L9 5ZM11 5L11 7L12 7L12 5ZM26 5L26 6L27 6L27 5ZM14 6L14 7L15 7L15 10L16 10L16 11L15 11L15 12L13 12L13 11L12 11L12 12L13 12L13 13L14 13L14 14L13 14L13 15L11 15L11 16L10 16L10 17L11 17L11 20L10 20L10 19L9 19L9 20L8 20L8 18L6 18L6 19L7 19L7 20L6 20L6 21L7 21L7 22L6 22L6 23L7 23L7 22L9 22L9 23L8 23L8 27L9 27L9 29L11 29L11 30L12 30L12 28L15 28L15 29L13 29L13 30L14 30L14 31L16 31L16 30L18 30L18 31L17 31L17 33L19 33L19 34L20 34L20 33L21 33L21 34L22 34L22 35L21 35L21 36L22 36L22 35L23 35L23 37L24 37L24 38L25 38L25 37L24 37L24 35L23 35L23 33L21 33L21 32L22 32L22 30L23 30L23 29L22 29L22 28L24 28L24 29L25 29L25 28L24 28L24 26L23 26L23 25L22 25L22 24L21 24L21 25L22 25L22 28L21 28L21 29L20 29L20 28L18 28L18 27L20 27L20 22L19 22L19 21L21 21L21 23L22 23L22 21L23 21L23 22L25 22L25 19L26 19L26 21L29 21L29 20L27 20L27 19L29 19L29 18L27 18L27 16L23 16L23 15L25 15L25 14L23 14L23 13L22 13L22 12L21 12L21 13L22 13L22 14L21 14L21 15L20 15L20 14L19 14L19 15L17 15L17 17L18 17L18 19L15 19L15 18L16 18L16 17L15 17L15 16L16 16L16 15L15 15L15 16L14 16L14 17L11 17L11 16L13 16L13 15L14 15L14 14L15 14L15 13L17 13L17 14L18 14L18 13L19 13L19 12L20 12L20 10L19 10L19 12L18 12L18 11L17 11L17 10L18 10L18 7L19 7L19 6L18 6L18 7L17 7L17 8L16 8L16 7L15 7L15 6ZM16 9L16 10L17 10L17 9ZM27 9L27 10L26 10L26 11L27 11L27 10L30 10L30 9ZM33 10L33 11L34 11L34 10ZM6 12L6 13L7 13L7 12ZM17 12L17 13L18 13L18 12ZM33 13L33 14L32 14L32 15L34 15L34 13ZM8 14L8 15L9 15L9 14ZM6 15L6 16L7 16L7 15ZM28 15L28 16L29 16L29 17L30 17L30 19L31 19L31 20L30 20L30 21L31 21L31 22L32 22L32 25L31 25L31 24L29 24L29 25L28 25L28 22L26 22L26 23L25 23L25 24L26 24L26 23L27 23L27 25L28 25L28 26L30 26L30 25L31 25L31 26L32 26L32 25L33 25L33 23L34 23L34 22L35 22L35 21L34 21L34 20L32 20L32 19L31 19L31 18L32 18L32 17L30 17L30 16L29 16L29 15ZM19 16L19 17L23 17L23 16ZM40 16L40 18L39 18L39 19L40 19L40 18L41 18L41 16ZM25 17L25 18L24 18L24 19L25 19L25 18L26 18L26 17ZM12 18L12 19L13 19L13 20L11 20L11 21L10 21L10 22L11 22L11 23L12 23L12 21L14 21L14 22L13 22L13 23L14 23L14 24L10 24L10 23L9 23L9 24L10 24L10 25L9 25L9 27L10 27L10 28L11 28L11 26L10 26L10 25L12 25L12 27L13 27L13 25L14 25L14 27L15 27L15 26L16 26L16 25L15 25L15 24L17 24L17 26L19 26L19 25L18 25L18 20L15 20L15 19L13 19L13 18ZM19 18L19 19L20 19L20 18ZM21 18L21 19L22 19L22 20L21 20L21 21L22 21L22 20L23 20L23 21L24 21L24 20L23 20L23 18ZM7 20L7 21L8 21L8 20ZM31 20L31 21L32 21L32 22L34 22L34 21L32 21L32 20ZM40 20L40 21L41 21L41 20ZM16 21L16 22L14 22L14 23L16 23L16 22L17 22L17 21ZM23 23L23 24L24 24L24 23ZM16 27L16 28L17 28L17 29L18 29L18 28L17 28L17 27ZM7 29L7 30L8 30L8 29ZM15 29L15 30L16 30L16 29ZM20 30L20 31L21 31L21 30ZM37 30L37 31L38 31L38 32L37 32L37 33L38 33L38 36L37 36L37 37L38 37L38 36L39 36L39 33L38 33L38 32L39 32L39 31L38 31L38 30ZM2 31L2 33L4 33L4 32L3 32L3 31ZM18 31L18 32L19 32L19 31ZM10 33L10 35L11 35L11 36L12 36L12 37L9 37L9 39L10 39L10 40L11 40L11 39L13 39L13 38L12 38L12 37L13 37L13 35L14 35L14 34L11 34L11 33ZM33 33L33 36L36 36L36 33ZM27 34L27 35L28 35L28 34ZM34 34L34 35L35 35L35 34ZM25 35L25 36L26 36L26 35ZM27 36L27 37L29 37L29 38L30 38L30 39L32 39L32 38L31 38L31 37L29 37L29 36ZM37 38L37 39L38 39L38 38ZM0 0L0 7L7 7L7 0ZM1 1L1 6L6 6L6 1ZM2 2L2 5L5 5L5 2ZM34 0L34 7L41 7L41 0ZM35 1L35 6L40 6L40 1ZM36 2L36 5L39 5L39 2ZM0 34L0 41L7 41L7 34ZM1 35L1 40L6 40L6 35ZM2 36L2 39L5 39L5 36Z" fill="#000000"/></g></g></svg>
