<?xml version="1.0" encoding="UTF-8"?>
<svg xmlns="http://www.w3.org/2000/svg" version="1.1" width="200" height="200" viewBox="0 0 200 200"><rect x="0" y="0" width="200" height="200" fill="#ffffff"/><g transform="scale(6.897)"><g transform="translate(0,0)"><path fill-rule="evenodd" d="M9 0L9 1L8 1L8 7L9 7L9 8L5 8L5 10L4 10L4 9L3 9L3 8L2 8L2 9L1 9L1 10L0 10L0 11L1 11L1 10L2 10L2 12L1 12L1 13L2 13L2 12L3 12L3 14L2 14L2 15L3 15L3 16L4 16L4 15L5 15L5 16L6 16L6 17L2 17L2 16L1 16L1 18L0 18L0 19L2 19L2 20L0 20L0 21L5 21L5 20L3 20L3 18L4 18L4 19L7 19L7 18L8 18L8 17L7 17L7 16L8 16L8 15L7 15L7 14L8 14L8 13L7 13L7 12L6 12L6 11L7 11L7 10L8 10L8 12L10 12L10 10L8 10L8 9L9 9L9 8L10 8L10 9L11 9L11 11L12 11L12 8L11 8L11 6L12 6L12 7L13 7L13 6L14 6L14 7L15 7L15 6L16 6L16 7L17 7L17 8L16 8L16 9L15 9L15 8L14 8L14 10L13 10L13 11L14 11L14 13L13 13L13 12L11 12L11 13L9 13L9 17L10 17L10 19L9 19L9 20L6 20L6 21L8 21L8 24L10 24L10 23L11 23L11 22L13 22L13 21L12 21L12 19L14 19L14 18L12 18L12 19L11 19L11 16L13 16L13 17L14 17L14 16L13 16L13 15L14 15L14 13L16 13L16 14L15 14L15 15L16 15L16 16L17 16L17 17L20 17L20 16L18 16L18 15L16 15L16 14L18 14L18 13L19 13L19 12L20 12L20 13L21 13L21 12L22 12L22 14L19 14L19 15L21 15L21 19L22 19L22 20L19 20L19 19L20 19L20 18L19 18L19 19L18 19L18 20L19 20L19 21L20 21L20 22L19 22L19 23L18 23L18 22L17 22L17 21L16 21L16 20L17 20L17 18L16 18L16 17L15 17L15 20L14 20L14 24L13 24L13 23L12 23L12 24L13 24L13 25L12 25L12 26L11 26L11 25L10 25L10 28L9 28L9 29L11 29L11 27L12 27L12 26L13 26L13 27L14 27L14 26L13 26L13 25L14 25L14 24L15 24L15 26L16 26L16 28L17 28L17 26L18 26L18 25L19 25L19 26L20 26L20 27L21 27L21 29L22 29L22 28L24 28L24 29L25 29L25 28L24 28L24 26L23 26L23 27L22 27L22 26L21 26L21 25L25 25L25 23L26 23L26 21L27 21L27 19L26 19L26 20L23 20L23 19L25 19L25 18L28 18L28 19L29 19L29 18L28 18L28 17L29 17L29 16L27 16L27 17L25 17L25 16L22 16L22 15L25 15L25 14L26 14L26 13L29 13L29 12L27 12L27 11L29 11L29 9L28 9L28 8L23 8L23 10L22 10L22 11L21 11L21 9L22 9L22 8L20 8L20 7L21 7L21 0L19 0L19 1L20 1L20 2L19 2L19 3L20 3L20 5L16 5L16 4L17 4L17 3L18 3L18 2L17 2L17 1L18 1L18 0L17 0L17 1L16 1L16 0L15 0L15 1L16 1L16 2L13 2L13 0L12 0L12 2L13 2L13 3L12 3L12 5L9 5L9 1L11 1L11 0ZM10 2L10 4L11 4L11 2ZM16 2L16 3L15 3L15 4L16 4L16 3L17 3L17 2ZM13 4L13 5L12 5L12 6L13 6L13 5L14 5L14 4ZM9 6L9 7L10 7L10 6ZM17 6L17 7L18 7L18 10L17 10L17 9L16 9L16 10L15 10L15 12L17 12L17 13L18 13L18 12L19 12L19 11L20 11L20 8L19 8L19 7L20 7L20 6L19 6L19 7L18 7L18 6ZM6 9L6 10L7 10L7 9ZM27 9L27 10L24 10L24 11L27 11L27 10L28 10L28 9ZM3 10L3 11L4 11L4 12L5 12L5 13L4 13L4 14L5 14L5 15L6 15L6 16L7 16L7 15L6 15L6 14L7 14L7 13L6 13L6 12L5 12L5 11L4 11L4 10ZM16 10L16 11L17 11L17 10ZM23 12L23 14L25 14L25 13L24 13L24 12ZM0 14L0 15L1 15L1 14ZM10 14L10 15L11 15L11 14ZM12 14L12 15L13 15L13 14ZM27 14L27 15L29 15L29 14ZM6 17L6 18L7 18L7 17ZM22 17L22 18L25 18L25 17ZM10 19L10 20L9 20L9 21L10 21L10 22L11 22L11 19ZM21 21L21 24L24 24L24 21ZM15 22L15 24L16 24L16 23L17 23L17 25L18 25L18 23L17 23L17 22ZM22 22L22 23L23 23L23 22ZM27 22L27 24L26 24L26 25L29 25L29 23L28 23L28 22ZM19 23L19 24L20 24L20 23ZM8 26L8 27L9 27L9 26ZM25 26L25 27L28 27L28 28L27 28L27 29L29 29L29 26ZM18 28L18 29L19 29L19 28ZM0 0L0 7L7 7L7 0ZM1 1L1 6L6 6L6 1ZM2 2L2 5L5 5L5 2ZM22 0L22 7L29 7L29 0ZM23 1L23 6L28 6L28 1ZM24 2L24 5L27 5L27 2ZM0 22L0 29L7 29L7 22ZM1 23L1 28L6 28L6 23ZM2 24L2 27L5 27L5 24Z" fill="#000000"/></g></g></svg>
