<?xml version="1.0" encoding="UTF-8"?>
<svg xmlns="http://www.w3.org/2000/svg" version="1.1" width="200" height="200" viewBox="0 0 200 200"><rect x="0" y="0" width="200" height="200" fill="#ffffff"/><g transform="scale(4.878)"><g transform="translate(0,0)"><path fill-rule="evenodd" d="M8 0L8 3L9 3L9 4L11 4L11 5L10 5L10 7L11 7L11 6L12 6L12 7L13 7L13 6L14 6L14 7L15 7L15 5L16 5L16 7L17 7L17 6L18 6L18 9L19 9L19 13L17 13L17 16L16 16L16 17L15 17L15 18L16 18L16 17L17 17L17 16L19 16L19 15L18 15L18 14L19 14L19 13L20 13L20 17L21 17L21 19L20 19L20 22L18 22L18 24L17 24L17 21L18 21L18 20L19 20L19 19L17 19L17 20L16 20L16 19L15 19L15 20L16 20L16 21L15 21L15 22L14 22L14 23L13 23L13 21L14 21L14 20L13 20L13 21L12 21L12 20L11 20L11 19L13 19L13 17L14 17L14 16L13 16L13 15L16 15L16 13L13 13L13 12L11 12L11 10L13 10L13 9L15 9L15 10L16 10L16 11L15 11L15 12L16 12L16 11L17 11L17 12L18 12L18 10L17 10L17 9L16 9L16 8L11 8L11 10L10 10L10 9L9 9L9 5L8 5L8 9L7 9L7 8L6 8L6 9L5 9L5 8L2 8L2 9L1 9L1 10L0 10L0 11L1 11L1 10L2 10L2 9L3 9L3 10L6 10L6 11L7 11L7 10L8 10L8 12L5 12L5 13L7 13L7 14L2 14L2 15L1 15L1 13L2 13L2 12L0 12L0 16L1 16L1 17L0 17L0 18L1 18L1 19L0 19L0 20L1 20L1 21L2 21L2 22L0 22L0 23L1 23L1 24L2 24L2 25L1 25L1 26L0 26L0 28L1 28L1 29L0 29L0 33L1 33L1 29L2 29L2 28L1 28L1 27L3 27L3 30L2 30L2 33L3 33L3 32L4 32L4 33L5 33L5 31L3 31L3 30L4 30L4 29L5 29L5 28L4 28L4 27L7 27L7 28L6 28L6 29L8 29L8 31L7 31L7 30L6 30L6 31L7 31L7 32L6 32L6 33L7 33L7 32L8 32L8 31L9 31L9 29L10 29L10 28L8 28L8 27L7 27L7 26L8 26L8 25L10 25L10 26L11 26L11 24L12 24L12 27L13 27L13 28L14 28L14 29L17 29L17 28L19 28L19 29L18 29L18 30L16 30L16 32L17 32L17 33L18 33L18 34L17 34L17 36L19 36L19 37L20 37L20 36L19 36L19 34L20 34L20 35L22 35L22 36L21 36L21 38L20 38L20 39L19 39L19 38L18 38L18 37L17 37L17 38L16 38L16 39L14 39L14 37L16 37L16 35L15 35L15 33L14 33L14 32L15 32L15 30L13 30L13 29L12 29L12 28L11 28L11 29L12 29L12 30L10 30L10 31L12 31L12 30L13 30L13 31L14 31L14 32L11 32L11 33L12 33L12 35L13 35L13 36L14 36L14 37L12 37L12 36L11 36L11 34L10 34L10 33L8 33L8 34L10 34L10 35L9 35L9 36L8 36L8 39L9 39L9 40L11 40L11 41L13 41L13 39L14 39L14 41L15 41L15 40L16 40L16 41L18 41L18 40L20 40L20 39L21 39L21 41L23 41L23 40L24 40L24 41L25 41L25 40L24 40L24 37L27 37L27 36L28 36L28 37L29 37L29 36L31 36L31 35L32 35L32 37L36 37L36 38L33 38L33 39L31 39L31 37L30 37L30 38L27 38L27 40L28 40L28 39L30 39L30 40L29 40L29 41L30 41L30 40L33 40L33 41L34 41L34 40L33 40L33 39L35 39L35 40L36 40L36 39L37 39L37 40L40 40L40 38L41 38L41 37L39 37L39 36L41 36L41 35L40 35L40 34L41 34L41 33L40 33L40 32L41 32L41 31L40 31L40 30L41 30L41 29L40 29L40 28L39 28L39 31L40 31L40 32L38 32L38 31L35 31L35 30L34 30L34 31L35 31L35 32L33 32L33 31L32 31L32 30L33 30L33 29L34 29L34 28L33 28L33 29L32 29L32 30L28 30L28 29L31 29L31 28L32 28L32 27L34 27L34 26L35 26L35 25L36 25L36 26L37 26L37 27L36 27L36 28L35 28L35 29L36 29L36 30L37 30L37 29L36 29L36 28L38 28L38 26L39 26L39 27L40 27L40 26L41 26L41 23L39 23L39 24L40 24L40 26L39 26L39 25L36 25L36 24L37 24L37 22L38 22L38 21L39 21L39 20L36 20L36 19L35 19L35 17L36 17L36 18L37 18L37 19L39 19L39 18L41 18L41 16L40 16L40 17L39 17L39 16L37 16L37 15L39 15L39 14L41 14L41 13L39 13L39 14L37 14L37 13L36 13L36 14L35 14L35 17L34 17L34 16L32 16L32 17L30 17L30 16L29 16L29 15L30 15L30 14L31 14L31 12L29 12L29 13L27 13L27 12L28 12L28 10L29 10L29 9L30 9L30 10L32 10L32 11L33 11L33 12L32 12L32 13L33 13L33 14L32 14L32 15L34 15L34 13L35 13L35 10L36 10L36 11L37 11L37 12L38 12L38 11L40 11L40 12L41 12L41 11L40 11L40 10L41 10L41 8L38 8L38 9L40 9L40 10L37 10L37 9L36 9L36 8L33 8L33 6L32 6L32 7L31 7L31 5L33 5L33 4L30 4L30 5L27 5L27 4L26 4L26 5L25 5L25 1L23 1L23 5L22 5L22 7L23 7L23 8L21 8L21 5L18 5L18 4L19 4L19 3L20 3L20 4L21 4L21 3L22 3L22 0L18 0L18 2L16 2L16 4L14 4L14 2L15 2L15 1L14 1L14 0L13 0L13 1L14 1L14 2L13 2L13 5L12 5L12 4L11 4L11 3L12 3L12 0L11 0L11 1L10 1L10 0ZM26 0L26 1L27 1L27 2L26 2L26 3L28 3L28 4L29 4L29 3L31 3L31 2L30 2L30 0L29 0L29 1L27 1L27 0ZM31 0L31 1L32 1L32 3L33 3L33 1L32 1L32 0ZM9 1L9 2L10 2L10 3L11 3L11 2L10 2L10 1ZM20 1L20 3L21 3L21 1ZM18 2L18 3L17 3L17 4L18 4L18 3L19 3L19 2ZM23 5L23 7L24 7L24 8L23 8L23 9L20 9L20 8L19 8L19 9L20 9L20 10L23 10L23 12L22 12L22 11L21 11L21 12L20 12L20 13L21 13L21 12L22 12L22 13L23 13L23 14L21 14L21 15L22 15L22 17L23 17L23 18L22 18L22 20L21 20L21 22L20 22L20 23L22 23L22 25L21 25L21 26L22 26L22 28L23 28L23 29L22 29L22 31L23 31L23 32L21 32L21 31L19 31L19 30L20 30L20 29L21 29L21 27L19 27L19 26L20 26L20 25L19 25L19 24L18 24L18 27L19 27L19 28L20 28L20 29L19 29L19 30L18 30L18 31L19 31L19 33L20 33L20 34L21 34L21 33L22 33L22 35L23 35L23 32L24 32L24 33L25 33L25 34L26 34L26 35L25 35L25 36L27 36L27 34L28 34L28 33L29 33L29 32L30 32L30 31L28 31L28 33L27 33L27 28L28 28L28 27L29 27L29 28L31 28L31 27L32 27L32 26L34 26L34 25L35 25L35 24L36 24L36 23L35 23L35 22L36 22L36 21L35 21L35 19L34 19L34 18L33 18L33 17L32 17L32 18L31 18L31 19L30 19L30 17L29 17L29 16L28 16L28 15L29 15L29 14L30 14L30 13L29 13L29 14L27 14L27 13L25 13L25 11L27 11L27 10L28 10L28 9L29 9L29 8L30 8L30 9L33 9L33 8L30 8L30 6L29 6L29 8L28 8L28 9L27 9L27 10L26 10L26 6L25 6L25 5ZM19 6L19 7L20 7L20 6ZM24 6L24 7L25 7L25 6ZM27 6L27 7L28 7L28 6ZM24 8L24 10L25 10L25 8ZM6 9L6 10L7 10L7 9ZM9 10L9 12L8 12L8 13L9 13L9 14L10 14L10 13L11 13L11 12L10 12L10 10ZM33 10L33 11L34 11L34 10ZM3 11L3 12L4 12L4 11ZM9 12L9 13L10 13L10 12ZM33 12L33 13L34 13L34 12ZM24 13L24 15L25 15L25 16L23 16L23 17L24 17L24 18L23 18L23 19L24 19L24 22L23 22L23 20L22 20L22 22L23 22L23 23L24 23L24 22L25 22L25 20L26 20L26 19L24 19L24 18L25 18L25 16L27 16L27 14L25 14L25 13ZM7 14L7 15L2 15L2 16L7 16L7 17L6 17L6 18L5 18L5 17L3 17L3 18L2 18L2 17L1 17L1 18L2 18L2 19L1 19L1 20L2 20L2 21L3 21L3 22L2 22L2 24L3 24L3 25L2 25L2 26L3 26L3 25L4 25L4 26L5 26L5 25L6 25L6 26L7 26L7 25L6 25L6 24L7 24L7 23L6 23L6 22L7 22L7 21L9 21L9 22L10 22L10 23L11 23L11 20L10 20L10 19L11 19L11 18L12 18L12 17L13 17L13 16L11 16L11 15L9 15L9 16L7 16L7 15L8 15L8 14ZM12 14L12 15L13 15L13 14ZM36 16L36 17L37 17L37 18L39 18L39 17L37 17L37 16ZM7 17L7 18L6 18L6 19L5 19L5 20L4 20L4 18L3 18L3 20L4 20L4 21L5 21L5 22L6 22L6 21L7 21L7 20L8 20L8 19L10 19L10 18L11 18L11 17ZM27 18L27 19L29 19L29 18ZM6 19L6 20L7 20L7 19ZM27 20L27 21L29 21L29 20ZM30 20L30 21L31 21L31 22L32 22L32 23L33 23L33 24L31 24L31 23L30 23L30 24L29 24L29 22L26 22L26 24L24 24L24 25L22 25L22 26L23 26L23 28L24 28L24 32L25 32L25 30L26 30L26 29L25 29L25 28L27 28L27 27L28 27L28 26L27 26L27 25L29 25L29 26L32 26L32 25L34 25L34 23L33 23L33 22L32 22L32 21L34 21L34 22L35 22L35 21L34 21L34 20L32 20L32 21L31 21L31 20ZM40 20L40 21L41 21L41 20ZM3 22L3 23L4 23L4 22ZM15 22L15 23L14 23L14 24L13 24L13 26L14 26L14 28L15 28L15 27L17 27L17 25L16 25L16 24L15 24L15 23L16 23L16 22ZM5 23L5 24L6 24L6 23ZM8 23L8 24L9 24L9 23ZM14 24L14 25L15 25L15 24ZM30 24L30 25L31 25L31 24ZM25 25L25 26L24 26L24 27L25 27L25 26L26 26L26 27L27 27L27 26L26 26L26 25ZM37 32L37 33L38 33L38 34L37 34L37 35L38 35L38 36L37 36L37 37L38 37L38 36L39 36L39 35L38 35L38 34L39 34L39 33L38 33L38 32ZM30 33L30 35L31 35L31 33ZM33 33L33 36L36 36L36 33ZM13 34L13 35L14 35L14 36L15 36L15 35L14 35L14 34ZM34 34L34 35L35 35L35 34ZM28 35L28 36L29 36L29 35ZM9 36L9 38L10 38L10 37L11 37L11 38L12 38L12 39L13 39L13 38L12 38L12 37L11 37L11 36ZM23 36L23 37L22 37L22 38L21 38L21 39L22 39L22 40L23 40L23 37L24 37L24 36ZM25 38L25 39L26 39L26 38ZM37 38L37 39L38 39L38 38ZM17 39L17 40L18 40L18 39ZM0 0L0 7L7 7L7 0ZM1 1L1 6L6 6L6 1ZM2 2L2 5L5 5L5 2ZM34 0L34 7L41 7L41 0ZM35 1L35 6L40 6L40 1ZM36 2L36 5L39 5L39 2ZM0 34L0 41L7 41L7 34ZM1 35L1 40L6 40L6 35ZM2 36L2 39L5 39L5 36Z" fill="#000000"/></g></g></svg>
