<?xml version="1.0" encoding="UTF-8"?>
<svg xmlns="http://www.w3.org/2000/svg" version="1.1" width="200" height="200" viewBox="0 0 200 200"><rect x="0" y="0" width="200" height="200" fill="#ffffff"/><g transform="scale(4.878)"><g transform="translate(0,0)"><path fill-rule="evenodd" d="M10 0L10 1L13 1L13 2L11 2L11 3L12 3L12 5L11 5L11 4L10 4L10 5L9 5L9 6L8 6L8 7L9 7L9 10L6 10L6 9L8 9L8 8L6 8L6 9L5 9L5 8L3 8L3 9L2 9L2 10L1 10L1 12L0 12L0 14L1 14L1 15L0 15L0 17L2 17L2 19L3 19L3 20L2 20L2 21L3 21L3 22L1 22L1 21L0 21L0 22L1 22L1 23L3 23L3 24L4 24L4 23L5 23L5 22L6 22L6 23L7 23L7 24L5 24L5 26L4 26L4 25L3 25L3 26L2 26L2 27L1 27L1 29L0 29L0 33L8 33L8 35L9 35L9 36L8 36L8 38L9 38L9 41L14 41L14 40L15 40L15 41L16 41L16 40L17 40L17 41L18 41L18 40L17 40L17 34L18 34L18 31L19 31L19 30L18 30L18 29L17 29L17 28L18 28L18 27L17 27L17 26L16 26L16 27L15 27L15 26L14 26L14 25L16 25L16 24L17 24L17 25L18 25L18 26L19 26L19 25L20 25L20 26L21 26L21 28L19 28L19 29L20 29L20 30L21 30L21 28L22 28L22 27L23 27L23 26L25 26L25 27L24 27L24 28L23 28L23 29L22 29L22 30L23 30L23 31L21 31L21 33L20 33L20 34L19 34L19 35L18 35L18 36L19 36L19 37L18 37L18 39L19 39L19 40L20 40L20 41L23 41L23 40L22 40L22 39L23 39L23 38L22 38L22 39L21 39L21 40L20 40L20 37L21 37L21 36L22 36L22 35L23 35L23 36L24 36L24 33L23 33L23 34L22 34L22 32L24 32L24 30L23 30L23 29L24 29L24 28L25 28L25 33L26 33L26 35L28 35L28 36L25 36L25 37L24 37L24 38L25 38L25 37L26 37L26 38L27 38L27 39L25 39L25 41L27 41L27 39L28 39L28 41L29 41L29 39L30 39L30 41L31 41L31 40L32 40L32 41L34 41L34 40L35 40L35 41L36 41L36 39L37 39L37 40L38 40L38 41L39 41L39 40L38 40L38 39L40 39L40 40L41 40L41 35L40 35L40 34L39 34L39 33L41 33L41 32L40 32L40 31L41 31L41 30L39 30L39 29L40 29L40 27L41 27L41 25L39 25L39 24L37 24L37 20L38 20L38 22L41 22L41 21L39 21L39 20L40 20L40 19L41 19L41 18L40 18L40 19L37 19L37 20L36 20L36 18L38 18L38 16L40 16L40 17L41 17L41 13L40 13L40 12L41 12L41 11L40 11L40 9L39 9L39 8L37 8L37 9L35 9L35 10L34 10L34 11L36 11L36 12L35 12L35 13L36 13L36 14L33 14L33 13L31 13L31 12L30 12L30 11L31 11L31 10L32 10L32 8L33 8L33 5L32 5L32 4L33 4L33 0L32 0L32 1L31 1L31 2L30 2L30 1L29 1L29 0L28 0L28 2L27 2L27 1L26 1L26 0L25 0L25 2L23 2L23 3L22 3L22 2L21 2L21 1L22 1L22 0L21 0L21 1L20 1L20 3L21 3L21 4L22 4L22 5L21 5L21 6L20 6L20 8L19 8L19 5L20 5L20 4L19 4L19 5L17 5L17 4L18 4L18 3L19 3L19 0L18 0L18 1L17 1L17 0L14 0L14 1L13 1L13 0ZM14 1L14 2L15 2L15 4L14 4L14 3L13 3L13 7L14 7L14 5L16 5L16 1ZM8 2L8 4L9 4L9 3L10 3L10 2ZM17 2L17 3L18 3L18 2ZM28 2L28 3L29 3L29 4L32 4L32 3L29 3L29 2ZM25 3L25 4L23 4L23 5L22 5L22 6L21 6L21 8L20 8L20 10L19 10L19 8L17 8L17 11L16 11L16 10L11 10L11 9L10 9L10 10L9 10L9 12L8 12L8 11L5 11L5 10L4 10L4 9L3 9L3 10L2 10L2 12L1 12L1 14L2 14L2 12L3 12L3 11L5 11L5 13L6 13L6 14L3 14L3 15L6 15L6 16L5 16L5 18L7 18L7 17L8 17L8 18L9 18L9 19L10 19L10 18L9 18L9 17L10 17L10 16L11 16L11 18L13 18L13 19L16 19L16 18L15 18L15 17L16 17L16 16L17 16L17 22L16 22L16 20L12 20L12 19L11 19L11 20L10 20L10 21L12 21L12 22L11 22L11 24L12 24L12 25L13 25L13 24L15 24L15 23L19 23L19 24L18 24L18 25L19 25L19 24L20 24L20 25L21 25L21 24L24 24L24 25L25 25L25 26L26 26L26 27L25 27L25 28L28 28L28 27L27 27L27 26L26 26L26 25L27 25L27 24L28 24L28 26L29 26L29 29L30 29L30 30L31 30L31 31L29 31L29 30L28 30L28 29L26 29L26 32L28 32L28 33L29 33L29 32L31 32L31 33L30 33L30 34L28 34L28 35L29 35L29 36L28 36L28 39L29 39L29 38L30 38L30 39L32 39L32 40L33 40L33 39L35 39L35 38L36 38L36 37L33 37L33 38L32 38L32 37L31 37L31 36L32 36L32 35L31 35L31 33L32 33L32 32L33 32L33 31L34 31L34 32L37 32L37 34L38 34L38 35L37 35L37 38L40 38L40 36L39 36L39 34L38 34L38 32L37 32L37 31L36 31L36 29L37 29L37 30L38 30L38 28L36 28L36 27L35 27L35 28L34 28L34 29L35 29L35 30L33 30L33 31L32 31L32 29L30 29L30 28L32 28L32 27L31 27L31 26L32 26L32 25L33 25L33 23L36 23L36 21L34 21L34 22L33 22L33 23L32 23L32 22L31 22L31 21L30 21L30 20L32 20L32 19L34 19L34 20L35 20L35 17L37 17L37 16L38 16L38 15L39 15L39 14L36 14L36 15L35 15L35 16L34 16L34 17L33 17L33 16L32 16L32 15L31 15L31 16L30 16L30 12L29 12L29 15L28 15L28 13L27 13L27 14L26 14L26 15L25 15L25 13L24 13L24 18L26 18L26 19L27 19L27 18L26 18L26 16L27 16L27 17L32 17L32 19L29 19L29 18L28 18L28 19L29 19L29 20L28 20L28 21L29 21L29 22L31 22L31 23L30 23L30 24L29 24L29 23L25 23L25 22L27 22L27 21L25 21L25 22L24 22L24 21L23 21L23 22L22 22L22 23L20 23L20 22L21 22L21 21L20 21L20 20L19 20L19 19L18 19L18 16L20 16L20 17L19 17L19 18L20 18L20 17L22 17L22 18L21 18L21 19L22 19L22 20L23 20L23 19L22 19L22 18L23 18L23 17L22 17L22 16L23 16L23 14L22 14L22 13L23 13L23 12L22 12L22 10L21 10L21 8L23 8L23 9L24 9L24 10L23 10L23 11L24 11L24 10L25 10L25 8L24 8L24 6L23 6L23 5L25 5L25 4L26 4L26 6L25 6L25 7L26 7L26 8L28 8L28 6L29 6L29 8L30 8L30 9L28 9L28 10L30 10L30 9L31 9L31 8L32 8L32 5L30 5L30 6L29 6L29 5L28 5L28 4L26 4L26 3ZM9 6L9 7L10 7L10 6ZM11 6L11 7L12 7L12 6ZM15 6L15 9L16 9L16 6ZM17 6L17 7L18 7L18 6ZM22 6L22 7L23 7L23 6ZM26 6L26 7L27 7L27 6ZM30 6L30 7L31 7L31 6ZM26 9L26 12L28 12L28 11L27 11L27 9ZM37 9L37 10L36 10L36 11L37 11L37 10L38 10L38 12L39 12L39 10L38 10L38 9ZM11 11L11 12L9 12L9 14L8 14L8 15L7 15L7 14L6 14L6 15L7 15L7 16L6 16L6 17L7 17L7 16L8 16L8 17L9 17L9 15L11 15L11 14L12 14L12 15L15 15L15 16L16 16L16 15L18 15L18 14L16 14L16 13L17 13L17 12L16 12L16 11L14 11L14 13L13 13L13 12L12 12L12 11ZM19 11L19 12L18 12L18 13L19 13L19 14L20 14L20 11ZM6 12L6 13L7 13L7 12ZM15 12L15 13L14 13L14 14L15 14L15 13L16 13L16 12ZM21 12L21 13L22 13L22 12ZM36 12L36 13L37 13L37 12ZM10 13L10 14L11 14L11 13ZM12 13L12 14L13 14L13 13ZM21 15L21 16L22 16L22 15ZM27 15L27 16L28 16L28 15ZM36 15L36 16L37 16L37 15ZM2 16L2 17L3 17L3 19L4 19L4 16ZM0 19L0 20L1 20L1 19ZM6 19L6 20L7 20L7 21L6 21L6 22L7 22L7 23L9 23L9 24L7 24L7 25L6 25L6 26L7 26L7 25L8 25L8 27L6 27L6 28L8 28L8 30L9 30L9 31L10 31L10 32L9 32L9 33L10 33L10 34L9 34L9 35L10 35L10 34L11 34L11 33L12 33L12 32L13 32L13 30L14 30L14 31L15 31L15 32L14 32L14 33L13 33L13 35L11 35L11 36L9 36L9 38L11 38L11 39L12 39L12 38L13 38L13 40L14 40L14 38L15 38L15 40L16 40L16 38L15 38L15 37L16 37L16 35L15 35L15 32L16 32L16 31L17 31L17 30L16 30L16 29L15 29L15 27L14 27L14 26L12 26L12 28L13 28L13 27L14 27L14 29L13 29L13 30L12 30L12 29L10 29L10 30L9 30L9 28L10 28L10 27L11 27L11 26L9 26L9 25L10 25L10 22L7 22L7 21L9 21L9 20L7 20L7 19ZM4 20L4 21L5 21L5 20ZM18 20L18 21L19 21L19 20ZM13 21L13 22L12 22L12 24L13 24L13 22L15 22L15 21ZM23 22L23 23L24 23L24 22ZM1 24L1 25L2 25L2 24ZM25 24L25 25L26 25L26 24ZM35 24L35 26L36 26L36 25L37 25L37 27L39 27L39 25L37 25L37 24ZM22 25L22 26L23 26L23 25ZM29 25L29 26L31 26L31 25ZM2 27L2 28L3 28L3 32L4 32L4 31L6 31L6 32L8 32L8 31L6 31L6 30L7 30L7 29L5 29L5 27L4 27L4 28L3 28L3 27ZM16 27L16 28L17 28L17 27ZM35 28L35 29L36 29L36 28ZM4 29L4 30L5 30L5 29ZM27 30L27 31L28 31L28 30ZM11 31L11 32L12 32L12 31ZM33 33L33 36L36 36L36 33ZM21 34L21 35L22 35L22 34ZM34 34L34 35L35 35L35 34ZM13 35L13 38L14 38L14 37L15 37L15 36L14 36L14 35ZM30 35L30 36L29 36L29 37L30 37L30 38L31 38L31 37L30 37L30 36L31 36L31 35ZM0 0L0 7L7 7L7 0ZM1 1L1 6L6 6L6 1ZM2 2L2 5L5 5L5 2ZM34 0L34 7L41 7L41 0ZM35 1L35 6L40 6L40 1ZM36 2L36 5L39 5L39 2ZM0 34L0 41L7 41L7 34ZM1 35L1 40L6 40L6 35ZM2 36L2 39L5 39L5 36Z" fill="#000000"/></g></g></svg>
