<?xml version="1.0" encoding="UTF-8"?>
<svg xmlns="http://www.w3.org/2000/svg" version="1.1" width="200" height="200" viewBox="0 0 200 200"><rect x="0" y="0" width="200" height="200" fill="#ffffff"/><g transform="scale(6.897)"><g transform="translate(0,0)"><path fill-rule="evenodd" d="M9 0L9 1L10 1L10 0ZM11 0L11 2L9 2L9 3L10 3L10 4L11 4L11 5L9 5L9 4L8 4L8 5L9 5L9 6L8 6L8 8L6 8L6 9L4 9L4 8L2 8L2 10L3 10L3 11L1 11L1 10L0 10L0 11L1 11L1 12L0 12L0 14L1 14L1 15L0 15L0 17L1 17L1 15L2 15L2 16L3 16L3 17L8 17L8 18L9 18L9 19L7 19L7 18L6 18L6 19L7 19L7 20L5 20L5 19L4 19L4 18L2 18L2 19L4 19L4 20L3 20L3 21L7 21L7 20L11 20L11 21L8 21L8 23L9 23L9 24L10 24L10 26L9 26L9 25L8 25L8 27L10 27L10 26L11 26L11 28L14 28L14 29L18 29L18 28L17 28L17 26L16 26L16 25L15 25L15 24L17 24L17 25L20 25L20 27L21 27L21 25L23 25L23 26L24 26L24 27L22 27L22 29L23 29L23 28L25 28L25 27L26 27L26 28L29 28L29 26L28 26L28 27L26 27L26 26L24 26L24 25L26 25L26 23L25 23L25 22L26 22L26 20L27 20L27 21L28 21L28 22L27 22L27 24L29 24L29 23L28 23L28 22L29 22L29 21L28 21L28 20L27 20L27 19L26 19L26 18L29 18L29 17L26 17L26 16L25 16L25 15L24 15L24 16L23 16L23 17L21 17L21 18L20 18L20 17L19 17L19 15L20 15L20 14L21 14L21 13L20 13L20 12L22 12L22 9L23 9L23 13L22 13L22 15L23 15L23 14L24 14L24 13L25 13L25 14L26 14L26 15L27 15L27 16L28 16L28 15L29 15L29 14L28 14L28 15L27 15L27 13L28 13L28 12L29 12L29 11L28 11L28 12L27 12L27 10L29 10L29 9L26 9L26 10L24 10L24 9L25 9L25 8L24 8L24 9L23 9L23 8L21 8L21 9L20 9L20 10L19 10L19 8L20 8L20 7L21 7L21 3L20 3L20 2L18 2L18 1L16 1L16 0L13 0L13 1L12 1L12 0ZM11 2L11 4L12 4L12 3L13 3L13 4L14 4L14 3L15 3L15 4L17 4L17 5L16 5L16 6L15 6L15 7L14 7L14 5L13 5L13 7L14 7L14 9L13 9L13 8L12 8L12 9L13 9L13 10L12 10L12 11L13 11L13 12L12 12L12 13L13 13L13 12L14 12L14 14L15 14L15 15L13 15L13 16L12 16L12 17L11 17L11 16L10 16L10 15L12 15L12 14L8 14L8 15L9 15L9 16L10 16L10 17L11 17L11 18L13 18L13 20L12 20L12 21L11 21L11 23L10 23L10 22L9 22L9 23L10 23L10 24L11 24L11 26L12 26L12 27L13 27L13 26L14 26L14 27L15 27L15 28L16 28L16 27L15 27L15 25L14 25L14 23L13 23L13 21L15 21L15 22L16 22L16 21L15 21L15 19L14 19L14 18L13 18L13 17L14 17L14 16L16 16L16 17L15 17L15 18L16 18L16 20L20 20L20 18L19 18L19 19L17 19L17 17L18 17L18 16L17 16L17 15L16 15L16 14L20 14L20 13L19 13L19 12L20 12L20 11L19 11L19 10L18 10L18 8L19 8L19 7L20 7L20 5L19 5L19 4L20 4L20 3L19 3L19 4L18 4L18 2L17 2L17 3L16 3L16 2L14 2L14 3L13 3L13 2ZM11 5L11 7L12 7L12 5ZM17 5L17 6L16 6L16 7L17 7L17 6L18 6L18 7L19 7L19 5ZM9 6L9 8L10 8L10 6ZM15 8L15 10L13 10L13 11L14 11L14 12L15 12L15 13L17 13L17 12L18 12L18 10L17 10L17 8ZM6 9L6 10L4 10L4 12L5 12L5 13L4 13L4 14L2 14L2 13L3 13L3 12L2 12L2 13L1 13L1 14L2 14L2 15L3 15L3 16L5 16L5 15L4 15L4 14L5 14L5 13L6 13L6 14L7 14L7 13L8 13L8 12L7 12L7 11L6 11L6 10L7 10L7 9ZM8 9L8 10L9 10L9 11L10 11L10 10L11 10L11 9L10 9L10 10L9 10L9 9ZM15 10L15 12L16 12L16 10ZM5 11L5 12L6 12L6 13L7 13L7 12L6 12L6 11ZM25 11L25 13L27 13L27 12L26 12L26 11ZM6 15L6 16L7 16L7 15ZM24 16L24 17L23 17L23 18L22 18L22 19L21 19L21 20L22 20L22 19L24 19L24 20L25 20L25 19L24 19L24 18L26 18L26 17L25 17L25 16ZM0 18L0 19L1 19L1 18ZM1 20L1 21L2 21L2 20ZM17 21L17 24L19 24L19 23L18 23L18 21ZM19 21L19 22L20 22L20 21ZM21 21L21 24L24 24L24 21ZM22 22L22 23L23 23L23 22ZM12 24L12 25L13 25L13 24ZM18 26L18 27L19 27L19 26ZM19 28L19 29L20 29L20 28ZM0 0L0 7L7 7L7 0ZM1 1L1 6L6 6L6 1ZM2 2L2 5L5 5L5 2ZM22 0L22 7L29 7L29 0ZM23 1L23 6L28 6L28 1ZM24 2L24 5L27 5L27 2ZM0 22L0 29L7 29L7 22ZM1 23L1 28L6 28L6 23ZM2 24L2 27L5 27L5 24Z" fill="#000000"/></g></g></svg>
