<?xml version="1.0" encoding="UTF-8"?>
<svg xmlns="http://www.w3.org/2000/svg" version="1.1" width="200" height="200" viewBox="0 0 200 200"><rect x="0" y="0" width="200" height="200" fill="#ffffff"/><g transform="scale(6.897)"><g transform="translate(0,0)"><path fill-rule="evenodd" d="M9 0L9 2L8 2L8 4L9 4L9 6L8 6L8 7L9 7L9 9L8 9L8 8L6 8L6 9L5 9L5 8L3 8L3 9L1 9L1 10L4 10L4 12L5 12L5 13L7 13L7 14L4 14L4 13L3 13L3 12L2 12L2 11L0 11L0 12L2 12L2 14L1 14L1 13L0 13L0 14L1 14L1 16L0 16L0 21L4 21L4 20L5 20L5 21L8 21L8 23L9 23L9 24L8 24L8 26L9 26L9 24L10 24L10 23L11 23L11 24L12 24L12 26L11 26L11 25L10 25L10 26L11 26L11 27L10 27L10 29L12 29L12 28L13 28L13 29L14 29L14 28L15 28L15 29L16 29L16 28L15 28L15 27L16 27L16 25L18 25L18 24L19 24L19 25L24 25L24 26L25 26L25 27L23 27L23 28L22 28L22 26L21 26L21 27L20 27L20 28L19 28L19 27L18 27L18 26L17 26L17 27L18 27L18 28L17 28L17 29L20 29L20 28L21 28L21 29L23 29L23 28L24 28L24 29L25 29L25 27L26 27L26 25L27 25L27 24L28 24L28 25L29 25L29 23L27 23L27 24L26 24L26 25L25 25L25 22L28 22L28 21L26 21L26 20L27 20L27 19L26 19L26 18L28 18L28 19L29 19L29 17L28 17L28 16L27 16L27 15L29 15L29 14L28 14L28 13L29 13L29 11L28 11L28 10L27 10L27 11L26 11L26 9L27 9L27 8L25 8L25 12L24 12L24 16L23 16L23 12L22 12L22 11L21 11L21 10L19 10L19 9L17 9L17 8L19 8L19 6L20 6L20 8L21 8L21 4L19 4L19 3L20 3L20 1L21 1L21 0L19 0L19 1L18 1L18 0L17 0L17 1L16 1L16 2L15 2L15 0L14 0L14 1L13 1L13 3L12 3L12 4L13 4L13 5L14 5L14 7L15 7L15 8L13 8L13 6L12 6L12 5L11 5L11 6L10 6L10 2L12 2L12 1L10 1L10 0ZM17 1L17 3L13 3L13 4L14 4L14 5L15 5L15 4L16 4L16 5L17 5L17 7L18 7L18 6L19 6L19 5L18 5L18 3L19 3L19 2L18 2L18 1ZM9 6L9 7L10 7L10 6ZM11 6L11 8L10 8L10 9L9 9L9 10L10 10L10 11L11 11L11 12L10 12L10 13L9 13L9 12L7 12L7 11L6 11L6 10L8 10L8 9L6 9L6 10L5 10L5 9L4 9L4 10L5 10L5 12L7 12L7 13L9 13L9 14L8 14L8 16L7 16L7 15L5 15L5 17L4 17L4 18L3 18L3 19L4 19L4 18L5 18L5 17L6 17L6 18L8 18L8 19L9 19L9 20L8 20L8 21L10 21L10 22L11 22L11 21L13 21L13 23L12 23L12 24L14 24L14 23L16 23L16 24L15 24L15 25L14 25L14 26L12 26L12 27L11 27L11 28L12 28L12 27L14 27L14 26L15 26L15 25L16 25L16 24L18 24L18 23L19 23L19 24L20 24L20 21L19 21L19 20L18 20L18 19L19 19L19 18L20 18L20 19L21 19L21 20L22 20L22 19L21 19L21 16L20 16L20 15L21 15L21 14L22 14L22 12L21 12L21 14L20 14L20 15L19 15L19 13L20 13L20 12L19 12L19 11L18 11L18 10L16 10L16 9L15 9L15 11L14 11L14 12L12 12L12 11L13 11L13 8L12 8L12 6ZM15 6L15 7L16 7L16 6ZM22 9L22 10L23 10L23 11L24 11L24 9ZM11 10L11 11L12 11L12 10ZM16 11L16 13L15 13L15 14L13 14L13 16L12 16L12 12L11 12L11 14L9 14L9 15L11 15L11 16L8 16L8 18L9 18L9 19L10 19L10 21L11 21L11 19L13 19L13 20L14 20L14 22L16 22L16 21L15 21L15 20L16 20L16 19L18 19L18 18L17 18L17 17L18 17L18 16L19 16L19 15L18 15L18 13L19 13L19 12L18 12L18 13L17 13L17 11ZM27 11L27 12L28 12L28 11ZM16 13L16 14L17 14L17 13ZM25 13L25 16L26 16L26 17L27 17L27 16L26 16L26 13ZM2 14L2 15L4 15L4 14ZM14 15L14 16L15 16L15 15ZM16 15L16 17L17 17L17 16L18 16L18 15ZM1 16L1 17L2 17L2 16ZM6 16L6 17L7 17L7 16ZM22 16L22 17L23 17L23 16ZM12 17L12 18L14 18L14 17ZM10 18L10 19L11 19L11 18ZM15 18L15 19L16 19L16 18ZM6 19L6 20L7 20L7 19ZM23 19L23 20L24 20L24 19ZM17 21L17 22L18 22L18 21ZM21 21L21 24L24 24L24 21ZM22 22L22 23L23 23L23 22ZM27 26L27 27L29 27L29 26ZM27 28L27 29L28 29L28 28ZM0 0L0 7L7 7L7 0ZM1 1L1 6L6 6L6 1ZM2 2L2 5L5 5L5 2ZM22 0L22 7L29 7L29 0ZM23 1L23 6L28 6L28 1ZM24 2L24 5L27 5L27 2ZM0 22L0 29L7 29L7 22ZM1 23L1 28L6 28L6 23ZM2 24L2 27L5 27L5 24Z" fill="#000000"/></g></g></svg>
