<?xml version="1.0" encoding="UTF-8"?>
<svg xmlns="http://www.w3.org/2000/svg" version="1.1" width="200" height="200" viewBox="0 0 200 200"><rect x="0" y="0" width="200" height="200" fill="#ffffff"/><g transform="scale(4.878)"><g transform="translate(0,0)"><path fill-rule="evenodd" d="M12 0L12 1L13 1L13 3L12 3L12 4L14 4L14 2L15 2L15 5L10 5L10 4L9 4L9 2L8 2L8 4L9 4L9 5L10 5L10 8L9 8L9 9L8 9L8 8L6 8L6 9L7 9L7 10L5 10L5 11L3 11L3 13L2 13L2 15L1 15L1 16L0 16L0 17L2 17L2 16L4 16L4 17L3 17L3 18L2 18L2 19L1 19L1 18L0 18L0 20L1 20L1 21L0 21L0 22L2 22L2 23L3 23L3 24L4 24L4 25L1 25L1 26L0 26L0 27L2 27L2 26L4 26L4 25L5 25L5 24L6 24L6 25L8 25L8 24L6 24L6 23L8 23L8 22L10 22L10 23L9 23L9 25L10 25L10 26L9 26L9 28L6 28L6 27L8 27L8 26L5 26L5 28L4 28L4 27L3 27L3 28L2 28L2 29L1 29L1 28L0 28L0 33L3 33L3 32L5 32L5 31L3 31L3 32L2 32L2 29L3 29L3 28L4 28L4 30L5 30L5 29L8 29L8 30L6 30L6 31L8 31L8 30L9 30L9 32L10 32L10 33L8 33L8 32L6 32L6 33L8 33L8 35L9 35L9 36L8 36L8 38L9 38L9 39L10 39L10 40L12 40L12 41L15 41L15 40L16 40L16 41L18 41L18 39L19 39L19 41L23 41L23 38L22 38L22 37L23 37L23 36L22 36L22 35L25 35L25 38L27 38L27 39L26 39L26 40L27 40L27 39L28 39L28 41L29 41L29 39L28 39L28 36L27 36L27 37L26 37L26 35L29 35L29 34L30 34L30 33L31 33L31 35L30 35L30 36L29 36L29 37L30 37L30 38L31 38L31 39L30 39L30 41L34 41L34 40L35 40L35 41L36 41L36 39L37 39L37 40L38 40L38 41L39 41L39 40L38 40L38 39L40 39L40 40L41 40L41 36L40 36L40 34L39 34L39 33L41 33L41 32L40 32L40 31L41 31L41 30L39 30L39 31L38 31L38 29L40 29L40 28L41 28L41 25L39 25L39 24L37 24L37 22L41 22L41 21L39 21L39 20L40 20L40 19L41 19L41 18L40 18L40 17L41 17L41 11L40 11L40 9L39 9L39 8L37 8L37 9L36 9L36 10L37 10L37 11L35 11L35 10L34 10L34 9L33 9L33 8L32 8L32 7L33 7L33 4L32 4L32 2L33 2L33 0L32 0L32 1L31 1L31 2L30 2L30 1L29 1L29 0L28 0L28 2L27 2L27 1L26 1L26 0L25 0L25 1L24 1L24 0L15 0L15 1L13 1L13 0ZM10 1L10 2L11 2L11 1ZM16 1L16 2L17 2L17 4L16 4L16 5L15 5L15 7L14 7L14 6L13 6L13 7L12 7L12 6L11 6L11 8L13 8L13 9L11 9L11 10L12 10L12 11L13 11L13 10L14 10L14 14L13 14L13 15L12 15L12 17L13 17L13 19L14 19L14 20L13 20L13 21L14 21L14 22L12 22L12 20L11 20L11 16L10 16L10 15L11 15L11 14L10 14L10 13L11 13L11 11L10 11L10 9L9 9L9 11L8 11L8 12L7 12L7 11L6 11L6 12L7 12L7 13L5 13L5 12L4 12L4 16L7 16L7 17L6 17L6 18L5 18L5 20L8 20L8 21L6 21L6 22L8 22L8 21L10 21L10 22L11 22L11 24L12 24L12 26L10 26L10 27L11 27L11 28L9 28L9 30L10 30L10 31L11 31L11 32L12 32L12 33L10 33L10 34L9 34L9 35L13 35L13 36L10 36L10 37L9 37L9 38L10 38L10 37L11 37L11 39L12 39L12 40L13 40L13 39L14 39L14 38L15 38L15 37L16 37L16 38L17 38L17 37L18 37L18 36L19 36L19 35L20 35L20 36L21 36L21 37L22 37L22 36L21 36L21 35L22 35L22 34L24 34L24 33L23 33L23 32L24 32L24 31L22 31L22 33L21 33L21 32L20 32L20 31L19 31L19 29L20 29L20 30L22 30L22 29L23 29L23 30L26 30L26 29L23 29L23 27L25 27L25 28L27 28L27 20L28 20L28 19L27 19L27 17L32 17L32 19L29 19L29 21L28 21L28 23L29 23L29 22L30 22L30 23L32 23L32 25L30 25L30 24L28 24L28 26L29 26L29 27L28 27L28 28L29 28L29 29L30 29L30 31L29 31L29 30L28 30L28 29L27 29L27 30L28 30L28 31L27 31L27 32L28 32L28 33L29 33L29 32L30 32L30 31L31 31L31 33L32 33L32 32L33 32L33 31L34 31L34 32L35 32L35 30L33 30L33 31L32 31L32 28L31 28L31 26L32 26L32 25L33 25L33 24L35 24L35 26L36 26L36 25L37 25L37 27L35 27L35 28L34 28L34 29L38 29L38 28L37 28L37 27L39 27L39 25L37 25L37 24L35 24L35 23L36 23L36 21L34 21L34 23L33 23L33 22L31 22L31 21L30 21L30 20L32 20L32 19L34 19L34 20L35 20L35 17L38 17L38 18L36 18L36 20L37 20L37 21L38 21L38 20L37 20L37 19L38 19L38 18L39 18L39 17L40 17L40 16L34 16L34 17L33 17L33 16L32 16L32 15L31 15L31 14L30 14L30 12L31 12L31 13L33 13L33 14L36 14L36 15L40 15L40 13L39 13L39 14L38 14L38 13L37 13L37 12L36 12L36 13L35 13L35 11L34 11L34 10L31 10L31 9L28 9L28 11L27 11L27 10L26 10L26 9L27 9L27 7L28 7L28 8L30 8L30 5L29 5L29 4L31 4L31 3L29 3L29 2L28 2L28 4L26 4L26 3L25 3L25 2L24 2L24 1L23 1L23 2L22 2L22 1L21 1L21 4L18 4L18 2L19 2L19 3L20 3L20 1L18 1L18 2L17 2L17 1ZM22 3L22 5L21 5L21 6L20 6L20 9L19 9L19 8L18 8L18 7L19 7L19 5L18 5L18 4L17 4L17 5L18 5L18 7L17 7L17 6L16 6L16 8L15 8L15 9L14 9L14 10L15 10L15 11L16 11L16 12L15 12L15 13L18 13L18 14L17 14L17 15L19 15L19 14L20 14L20 15L21 15L21 12L22 12L22 13L23 13L23 11L24 11L24 12L27 12L27 13L26 13L26 14L25 14L25 13L24 13L24 14L23 14L23 15L22 15L22 16L23 16L23 15L24 15L24 14L25 14L25 16L26 16L26 17L27 17L27 16L28 16L28 15L30 15L30 14L29 14L29 12L30 12L30 11L28 11L28 12L27 12L27 11L26 11L26 10L25 10L25 9L26 9L26 7L27 7L27 5L26 5L26 4L25 4L25 3ZM24 4L24 5L23 5L23 7L22 7L22 6L21 6L21 8L22 8L22 9L23 9L23 8L24 8L24 9L25 9L25 8L24 8L24 6L25 6L25 7L26 7L26 6L25 6L25 4ZM31 5L31 7L32 7L32 5ZM8 6L8 7L9 7L9 6ZM28 6L28 7L29 7L29 6ZM3 8L3 9L5 9L5 8ZM16 8L16 10L17 10L17 12L18 12L18 10L19 10L19 9L18 9L18 10L17 10L17 8ZM20 9L20 10L21 10L21 11L19 11L19 12L21 12L21 11L23 11L23 10L21 10L21 9ZM37 9L37 10L38 10L38 12L40 12L40 11L39 11L39 10L38 10L38 9ZM0 10L0 12L1 12L1 10ZM0 13L0 14L1 14L1 13ZM8 13L8 15L7 15L7 14L6 14L6 15L7 15L7 16L8 16L8 17L7 17L7 18L6 18L6 19L7 19L7 18L8 18L8 19L10 19L10 18L9 18L9 17L10 17L10 16L8 16L8 15L10 15L10 14L9 14L9 13ZM27 13L27 15L26 15L26 16L27 16L27 15L28 15L28 13ZM36 13L36 14L37 14L37 13ZM14 14L14 16L13 16L13 17L15 17L15 18L16 18L16 19L15 19L15 20L14 20L14 21L15 21L15 22L16 22L16 24L17 24L17 25L18 25L18 26L19 26L19 25L20 25L20 24L22 24L22 23L23 23L23 24L25 24L25 25L26 25L26 23L25 23L25 22L26 22L26 21L24 21L24 18L23 18L23 17L21 17L21 18L22 18L22 19L20 19L20 18L18 18L18 17L19 17L19 16L17 16L17 18L16 18L16 15L15 15L15 14ZM3 18L3 19L2 19L2 20L3 20L3 21L2 21L2 22L3 22L3 23L4 23L4 24L5 24L5 23L4 23L4 22L5 22L5 21L4 21L4 18ZM16 19L16 22L17 22L17 21L18 21L18 22L19 22L19 21L18 21L18 19ZM10 20L10 21L11 21L11 20ZM20 20L20 22L21 22L21 23L22 23L22 22L24 22L24 21L23 21L23 20ZM3 21L3 22L4 22L4 21ZM12 23L12 24L13 24L13 25L14 25L14 26L12 26L12 27L15 27L15 28L11 28L11 29L10 29L10 30L11 30L11 31L12 31L12 30L15 30L15 31L16 31L16 32L15 32L15 33L12 33L12 34L13 34L13 35L14 35L14 34L17 34L17 31L16 31L16 30L17 30L17 29L18 29L18 28L19 28L19 27L18 27L18 28L17 28L17 27L16 27L16 25L15 25L15 23L14 23L14 24L13 24L13 23ZM17 23L17 24L18 24L18 23ZM22 25L22 26L24 26L24 25ZM29 25L29 26L30 26L30 25ZM25 26L25 27L26 27L26 26ZM15 28L15 30L16 30L16 28ZM20 28L20 29L21 29L21 28ZM30 28L30 29L31 29L31 28ZM13 31L13 32L14 32L14 31ZM19 32L19 33L20 33L20 34L21 34L21 33L20 33L20 32ZM25 32L25 34L26 34L26 32ZM37 32L37 34L38 34L38 35L37 35L37 38L40 38L40 37L39 37L39 34L38 34L38 32ZM33 33L33 36L36 36L36 33ZM34 34L34 35L35 35L35 34ZM15 35L15 36L16 36L16 37L17 37L17 36L18 36L18 35ZM31 35L31 36L30 36L30 37L31 37L31 36L32 36L32 35ZM13 36L13 37L12 37L12 38L13 38L13 37L14 37L14 36ZM32 37L32 39L31 39L31 40L33 40L33 39L35 39L35 38L36 38L36 37ZM19 38L19 39L20 39L20 38ZM21 39L21 40L22 40L22 39ZM0 0L0 7L7 7L7 0ZM1 1L1 6L6 6L6 1ZM2 2L2 5L5 5L5 2ZM34 0L34 7L41 7L41 0ZM35 1L35 6L40 6L40 1ZM36 2L36 5L39 5L39 2ZM0 34L0 41L7 41L7 34ZM1 35L1 40L6 40L6 35ZM2 36L2 39L5 39L5 36Z" fill="#000000"/></g></g></svg>
