<?xml version="1.0" encoding="UTF-8"?>
<svg xmlns="http://www.w3.org/2000/svg" version="1.1" width="200" height="200" viewBox="0 0 200 200"><rect x="0" y="0" width="200" height="200" fill="#ffffff"/><g transform="scale(4.878)"><g transform="translate(0,0)"><path fill-rule="evenodd" d="M9 0L9 1L8 1L8 2L9 2L9 1L10 1L10 0ZM11 0L11 1L12 1L12 0ZM14 0L14 1L13 1L13 2L12 2L12 3L10 3L10 5L11 5L11 6L10 6L10 7L9 7L9 5L8 5L8 8L4 8L4 9L3 9L3 10L2 10L2 11L0 11L0 12L2 12L2 13L3 13L3 12L4 12L4 14L3 14L3 15L4 15L4 16L3 16L3 18L2 18L2 17L1 17L1 18L0 18L0 20L1 20L1 21L0 21L0 22L1 22L1 23L2 23L2 21L3 21L3 25L2 25L2 24L1 24L1 25L2 25L2 26L0 26L0 27L1 27L1 28L2 28L2 26L3 26L3 25L5 25L5 23L7 23L7 24L6 24L6 25L7 25L7 24L8 24L8 21L9 21L9 24L10 24L10 25L8 25L8 27L9 27L9 29L8 29L8 30L6 30L6 29L7 29L7 28L6 28L6 29L4 29L4 28L3 28L3 29L0 29L0 30L2 30L2 31L3 31L3 29L4 29L4 32L3 32L3 33L5 33L5 32L6 32L6 33L8 33L8 37L9 37L9 38L10 38L10 39L12 39L12 38L15 38L15 39L16 39L16 38L15 38L15 37L13 37L13 35L14 35L14 36L16 36L16 37L17 37L17 35L18 35L18 33L19 33L19 34L20 34L20 35L19 35L19 36L18 36L18 38L17 38L17 40L15 40L15 41L20 41L20 39L19 39L19 40L18 40L18 38L19 38L19 37L20 37L20 38L22 38L22 37L23 37L23 38L24 38L24 39L23 39L23 40L24 40L24 41L25 41L25 40L26 40L26 38L27 38L27 40L28 40L28 41L31 41L31 39L28 39L28 37L29 37L29 35L28 35L28 33L29 33L29 34L30 34L30 35L32 35L32 36L31 36L31 37L30 37L30 38L32 38L32 37L33 37L33 39L32 39L32 41L33 41L33 39L34 39L34 40L35 40L35 39L34 39L34 37L36 37L36 38L37 38L37 34L38 34L38 35L40 35L40 36L39 36L39 37L40 37L40 38L38 38L38 39L36 39L36 40L37 40L37 41L40 41L40 40L41 40L41 37L40 37L40 36L41 36L41 33L40 33L40 34L39 34L39 33L37 33L37 32L35 32L35 31L34 31L34 32L33 32L33 31L32 31L32 29L33 29L33 30L34 30L34 29L33 29L33 27L34 27L34 28L35 28L35 25L36 25L36 26L37 26L37 29L35 29L35 30L36 30L36 31L37 31L37 29L38 29L38 31L39 31L39 32L40 32L40 31L41 31L41 29L40 29L40 30L39 30L39 28L40 28L40 27L41 27L41 24L40 24L40 23L41 23L41 22L40 22L40 21L41 21L41 9L40 9L40 8L39 8L39 9L36 9L36 8L34 8L34 9L33 9L33 8L31 8L31 6L32 6L32 7L33 7L33 2L32 2L32 1L33 1L33 0L32 0L32 1L31 1L31 2L32 2L32 5L31 5L31 3L29 3L29 4L30 4L30 7L29 7L29 6L28 6L28 8L29 8L29 9L27 9L27 10L26 10L26 9L25 9L25 8L26 8L26 7L27 7L27 6L26 6L26 7L25 7L25 4L24 4L24 5L23 5L23 3L25 3L25 2L26 2L26 3L28 3L28 2L30 2L30 0L29 0L29 1L28 1L28 0L27 0L27 1L26 1L26 0L25 0L25 2L24 2L24 1L22 1L22 0L20 0L20 1L19 1L19 2L20 2L20 1L21 1L21 3L22 3L22 5L21 5L21 4L20 4L20 3L19 3L19 4L20 4L20 5L18 5L18 2L17 2L17 1L18 1L18 0L17 0L17 1L15 1L15 0ZM27 1L27 2L28 2L28 1ZM13 2L13 3L14 3L14 4L15 4L15 3L14 3L14 2ZM16 2L16 4L17 4L17 2ZM11 4L11 5L12 5L12 4ZM27 4L27 5L28 5L28 4ZM14 5L14 6L13 6L13 7L12 7L12 6L11 6L11 7L12 7L12 8L11 8L11 10L12 10L12 8L14 8L14 9L13 9L13 11L12 11L12 13L14 13L14 15L16 15L16 16L17 16L17 15L16 15L16 12L19 12L19 13L21 13L21 14L20 14L20 15L21 15L21 16L22 16L22 13L21 13L21 12L20 12L20 11L22 11L22 12L23 12L23 14L24 14L24 12L26 12L26 13L27 13L27 15L26 15L26 18L24 18L24 19L22 19L22 17L21 17L21 18L20 18L20 17L19 17L19 15L18 15L18 17L19 17L19 18L17 18L17 17L15 17L15 16L14 16L14 17L13 17L13 16L11 16L11 15L10 15L10 16L9 16L9 15L5 15L5 16L8 16L8 18L7 18L7 17L6 17L6 18L7 18L7 19L2 19L2 18L1 18L1 20L3 20L3 21L6 21L6 22L7 22L7 21L6 21L6 20L7 20L7 19L9 19L9 20L11 20L11 21L10 21L10 23L11 23L11 24L13 24L13 22L14 22L14 20L13 20L13 21L12 21L12 20L11 20L11 19L13 19L13 18L14 18L14 17L15 17L15 23L14 23L14 25L15 25L15 27L16 27L16 25L19 25L19 28L18 28L18 26L17 26L17 28L15 28L15 31L14 31L14 30L12 30L12 32L11 32L11 30L10 30L10 29L12 29L12 28L10 28L10 29L9 29L9 30L8 30L8 31L6 31L6 30L5 30L5 31L6 31L6 32L9 32L9 33L11 33L11 34L9 34L9 36L10 36L10 38L11 38L11 36L12 36L12 35L13 35L13 34L12 34L12 32L14 32L14 34L16 34L16 32L17 32L17 33L18 33L18 31L16 31L16 30L17 30L17 29L19 29L19 33L20 33L20 34L22 34L22 35L21 35L21 36L20 36L20 37L21 37L21 36L22 36L22 35L23 35L23 37L24 37L24 38L26 38L26 36L27 36L27 37L28 37L28 35L27 35L27 33L28 33L28 32L27 32L27 30L28 30L28 31L29 31L29 29L27 29L27 25L28 25L28 26L29 26L29 25L28 25L28 24L29 24L29 23L28 23L28 24L27 24L27 25L24 25L24 24L25 24L25 23L27 23L27 22L26 22L26 20L27 20L27 19L26 19L26 18L27 18L27 16L28 16L28 19L29 19L29 18L30 18L30 19L31 19L31 21L30 21L30 20L28 20L28 21L30 21L30 24L31 24L31 23L32 23L32 24L33 24L33 25L30 25L30 26L31 26L31 28L30 28L30 29L31 29L31 28L32 28L32 26L33 26L33 25L35 25L35 24L34 24L34 23L32 23L32 21L35 21L35 23L36 23L36 25L37 25L37 26L38 26L38 28L39 28L39 25L37 25L37 24L39 24L39 23L40 23L40 22L36 22L36 21L35 21L35 20L36 20L36 19L35 19L35 18L36 18L36 17L37 17L37 15L36 15L36 13L37 13L37 10L36 10L36 9L35 9L35 10L33 10L33 9L29 9L29 10L28 10L28 11L29 11L29 10L31 10L31 11L32 11L32 13L33 13L33 14L35 14L35 15L36 15L36 17L35 17L35 16L34 16L34 15L32 15L32 14L30 14L30 13L29 13L29 12L28 12L28 13L27 13L27 11L26 11L26 10L23 10L23 9L24 9L24 8L22 8L22 6L21 6L21 8L22 8L22 10L21 10L21 9L20 9L20 8L19 8L19 7L20 7L20 6L19 6L19 7L18 7L18 6L17 6L17 5L16 5L16 6L15 6L15 5ZM14 6L14 8L15 8L15 9L16 9L16 11L15 11L15 12L16 12L16 11L17 11L17 10L18 10L18 11L20 11L20 9L19 9L19 8L17 8L17 6L16 6L16 8L15 8L15 6ZM23 6L23 7L24 7L24 6ZM8 8L8 9L9 9L9 8ZM5 9L5 10L3 10L3 11L4 11L4 12L5 12L5 14L8 14L8 13L6 13L6 12L9 12L9 11L6 11L6 12L5 12L5 10L7 10L7 9ZM18 9L18 10L19 10L19 9ZM32 10L32 11L33 11L33 13L35 13L35 12L36 12L36 11L35 11L35 12L34 12L34 11L33 11L33 10ZM13 11L13 12L14 12L14 11ZM23 11L23 12L24 12L24 11ZM38 11L38 12L39 12L39 13L40 13L40 12L39 12L39 11ZM10 12L10 14L11 14L11 12ZM0 13L0 15L1 15L1 16L2 16L2 15L1 15L1 13ZM28 13L28 15L29 15L29 17L32 17L32 19L33 19L33 17L32 17L32 16L31 16L31 15L29 15L29 13ZM12 14L12 15L13 15L13 14ZM38 14L38 18L37 18L37 21L39 21L39 20L40 20L40 17L39 17L39 16L40 16L40 15L39 15L39 14ZM24 15L24 16L23 16L23 17L24 17L24 16L25 16L25 15ZM10 16L10 18L9 18L9 19L11 19L11 18L12 18L12 17L11 17L11 16ZM4 17L4 18L5 18L5 17ZM34 17L34 18L35 18L35 17ZM16 19L16 20L17 20L17 19ZM19 19L19 20L21 20L21 21L22 21L22 19ZM25 19L25 20L26 20L26 19ZM34 19L34 20L35 20L35 19ZM16 21L16 22L17 22L17 23L16 23L16 24L17 24L17 23L19 23L19 25L21 25L21 27L20 27L20 28L19 28L19 29L21 29L21 28L22 28L22 29L24 29L24 30L26 30L26 29L25 29L25 28L26 28L26 27L25 27L25 28L22 28L22 26L23 26L23 27L24 27L24 25L23 25L23 24L24 24L24 23L25 23L25 22L20 22L20 21ZM4 22L4 23L5 23L5 22ZM22 23L22 24L21 24L21 25L22 25L22 24L23 24L23 23ZM11 25L11 26L9 26L9 27L13 27L13 28L14 28L14 26L13 26L13 25ZM5 26L5 27L7 27L7 26ZM9 30L9 32L10 32L10 30ZM30 30L30 32L31 32L31 33L30 33L30 34L32 34L32 32L31 32L31 30ZM15 31L15 32L16 32L16 31ZM20 31L20 33L22 33L22 32L23 32L23 34L24 34L24 36L25 36L25 35L26 35L26 34L24 34L24 33L26 33L26 31L24 31L24 32L23 32L23 31ZM0 32L0 33L2 33L2 32ZM33 33L33 36L36 36L36 33ZM11 34L11 35L10 35L10 36L11 36L11 35L12 35L12 34ZM34 34L34 35L35 35L35 34ZM13 39L13 40L12 40L12 41L14 41L14 39ZM24 39L24 40L25 40L25 39ZM9 40L9 41L11 41L11 40ZM21 40L21 41L22 41L22 40ZM0 0L0 7L7 7L7 0ZM1 1L1 6L6 6L6 1ZM2 2L2 5L5 5L5 2ZM34 0L34 7L41 7L41 0ZM35 1L35 6L40 6L40 1ZM36 2L36 5L39 5L39 2ZM0 34L0 41L7 41L7 34ZM1 35L1 40L6 40L6 35ZM2 36L2 39L5 39L5 36Z" fill="#000000"/></g></g></svg>
