<?xml version="1.0" encoding="UTF-8"?>
<svg xmlns="http://www.w3.org/2000/svg" version="1.1" width="200" height="200" viewBox="0 0 200 200"><rect x="0" y="0" width="200" height="200" fill="#ffffff"/><g transform="scale(6.897)"><g transform="translate(0,0)"><path fill-rule="evenodd" d="M9 0L9 1L11 1L11 0ZM13 0L13 1L14 1L14 2L9 2L9 4L8 4L8 5L9 5L9 6L8 6L8 8L6 8L6 9L8 9L8 10L5 10L5 11L3 11L3 10L4 10L4 8L2 8L2 9L0 9L0 10L1 10L1 12L2 12L2 14L1 14L1 13L0 13L0 14L1 14L1 15L0 15L0 16L2 16L2 14L4 14L4 15L7 15L7 16L4 16L4 17L2 17L2 18L3 18L3 19L2 19L2 20L1 20L1 21L2 21L2 20L3 20L3 19L4 19L4 17L7 17L7 18L6 18L6 19L5 19L5 20L4 20L4 21L8 21L8 23L9 23L9 24L10 24L10 23L11 23L11 22L12 22L12 24L11 24L11 25L10 25L10 26L9 26L9 25L8 25L8 27L9 27L9 28L11 28L11 29L14 29L14 28L12 28L12 27L11 27L11 26L13 26L13 27L15 27L15 29L17 29L17 28L16 28L16 27L18 27L18 28L19 28L19 29L20 29L20 28L19 28L19 26L20 26L20 25L23 25L23 26L24 26L24 27L22 27L22 29L23 29L23 28L25 28L25 29L27 29L27 28L29 28L29 26L28 26L28 27L27 27L27 26L24 26L24 25L26 25L26 23L25 23L25 22L26 22L26 20L27 20L27 21L28 21L28 24L27 24L27 25L28 25L28 24L29 24L29 21L28 21L28 20L27 20L27 18L29 18L29 17L26 17L26 16L25 16L25 15L24 15L24 16L23 16L23 17L21 17L21 18L20 18L20 17L19 17L19 18L20 18L20 20L19 20L19 19L18 19L18 18L17 18L17 17L18 17L18 16L19 16L19 15L20 15L20 14L21 14L21 13L20 13L20 12L22 12L22 9L23 9L23 13L22 13L22 15L23 15L23 14L24 14L24 13L25 13L25 14L26 14L26 15L27 15L27 16L28 16L28 15L29 15L29 14L28 14L28 15L27 15L27 13L28 13L28 12L29 12L29 11L28 11L28 12L27 12L27 11L26 11L26 10L29 10L29 9L25 9L25 8L24 8L24 9L23 9L23 8L21 8L21 3L20 3L20 2L18 2L18 1L17 1L17 0L16 0L16 1L17 1L17 2L18 2L18 5L17 5L17 3L14 3L14 2L15 2L15 1L14 1L14 0ZM12 3L12 4L11 4L11 5L12 5L12 6L11 6L11 7L10 7L10 6L9 6L9 7L10 7L10 8L9 8L9 9L10 9L10 10L8 10L8 11L6 11L6 12L7 12L7 13L6 13L6 14L7 14L7 15L8 15L8 16L9 16L9 18L7 18L7 19L6 19L6 20L8 20L8 21L9 21L9 20L8 20L8 19L10 19L10 22L11 22L11 21L12 21L12 22L14 22L14 24L13 24L13 26L14 26L14 25L15 25L15 24L17 24L17 26L19 26L19 25L20 25L20 24L19 24L19 25L18 25L18 24L17 24L17 23L15 23L15 22L16 22L16 21L17 21L17 22L18 22L18 21L17 21L17 19L16 19L16 18L15 18L15 20L14 20L14 18L13 18L13 19L12 19L12 18L10 18L10 16L11 16L11 17L12 17L12 16L13 16L13 17L15 17L15 16L13 16L13 15L14 15L14 13L15 13L15 15L19 15L19 14L20 14L20 13L17 13L17 12L20 12L20 11L18 11L18 10L17 10L17 9L18 9L18 8L19 8L19 10L20 10L20 9L21 9L21 8L19 8L19 7L20 7L20 5L19 5L19 7L18 7L18 6L17 6L17 5L16 5L16 4L15 4L15 5L13 5L13 3ZM19 3L19 4L20 4L20 3ZM9 4L9 5L10 5L10 4ZM15 5L15 6L14 6L14 7L15 7L15 6L16 6L16 7L17 7L17 6L16 6L16 5ZM12 6L12 7L11 7L11 8L12 8L12 9L11 9L11 10L10 10L10 11L8 11L8 13L7 13L7 14L8 14L8 15L9 15L9 16L10 16L10 15L11 15L11 16L12 16L12 15L13 15L13 13L14 13L14 12L17 12L17 11L16 11L16 9L17 9L17 8L14 8L14 9L15 9L15 10L14 10L14 11L13 11L13 8L12 8L12 7L13 7L13 6ZM2 9L2 10L3 10L3 9ZM24 9L24 10L25 10L25 9ZM11 10L11 12L13 12L13 11L12 11L12 10ZM25 11L25 13L27 13L27 12L26 12L26 11ZM4 12L4 14L5 14L5 12ZM9 12L9 13L10 13L10 12ZM11 13L11 15L12 15L12 13ZM16 13L16 14L17 14L17 13ZM9 14L9 15L10 15L10 14ZM24 16L24 17L23 17L23 18L22 18L22 19L21 19L21 20L22 20L22 19L24 19L24 18L25 18L25 19L26 19L26 17L25 17L25 16ZM0 18L0 19L1 19L1 18ZM12 20L12 21L13 21L13 20ZM15 20L15 21L14 21L14 22L15 22L15 21L16 21L16 20ZM19 21L19 23L20 23L20 21ZM21 21L21 24L24 24L24 21ZM22 22L22 23L23 23L23 22ZM15 26L15 27L16 27L16 26ZM25 27L25 28L27 28L27 27ZM0 0L0 7L7 7L7 0ZM1 1L1 6L6 6L6 1ZM2 2L2 5L5 5L5 2ZM22 0L22 7L29 7L29 0ZM23 1L23 6L28 6L28 1ZM24 2L24 5L27 5L27 2ZM0 22L0 29L7 29L7 22ZM1 23L1 28L6 28L6 23ZM2 24L2 27L5 27L5 24Z" fill="#000000"/></g></g></svg>
