<?xml version="1.0" encoding="UTF-8"?>
<svg xmlns="http://www.w3.org/2000/svg" version="1.1" width="200" height="200" viewBox="0 0 200 200"><rect x="0" y="0" width="200" height="200" fill="#ffffff"/><g transform="scale(4.878)"><g transform="translate(0,0)"><path fill-rule="evenodd" d="M8 0L8 1L10 1L10 2L8 2L8 3L9 3L9 4L8 4L8 5L10 5L10 7L11 7L11 6L12 6L12 9L11 9L11 8L10 8L10 9L11 9L11 10L8 10L8 9L7 9L7 8L5 8L5 11L12 11L12 9L13 9L13 11L14 11L14 8L16 8L16 7L17 7L17 9L16 9L16 10L15 10L15 11L16 11L16 13L17 13L17 14L18 14L18 15L16 15L16 14L15 14L15 12L13 12L13 13L12 13L12 12L9 12L9 14L10 14L10 16L9 16L9 15L8 15L8 13L7 13L7 12L6 12L6 13L7 13L7 14L6 14L6 15L5 15L5 16L4 16L4 11L3 11L3 10L4 10L4 9L3 9L3 10L2 10L2 11L3 11L3 12L0 12L0 14L1 14L1 15L0 15L0 16L1 16L1 15L2 15L2 17L0 17L0 18L1 18L1 19L0 19L0 20L1 20L1 19L3 19L3 21L4 21L4 20L5 20L5 21L7 21L7 20L5 20L5 19L3 19L3 18L5 18L5 16L6 16L6 17L8 17L8 18L10 18L10 21L12 21L12 18L10 18L10 16L11 16L11 14L13 14L13 15L14 15L14 14L15 14L15 15L16 15L16 16L17 16L17 18L16 18L16 19L19 19L19 20L18 20L18 21L17 21L17 20L15 20L15 16L14 16L14 20L13 20L13 22L11 22L11 23L10 23L10 22L9 22L9 20L8 20L8 22L9 22L9 23L8 23L8 24L6 24L6 23L7 23L7 22L5 22L5 24L4 24L4 25L3 25L3 26L1 26L1 27L0 27L0 28L1 28L1 27L3 27L3 30L2 30L2 29L0 29L0 33L1 33L1 31L2 31L2 32L3 32L3 33L4 33L4 32L3 32L3 31L5 31L5 32L6 32L6 33L8 33L8 34L9 34L9 33L10 33L10 32L11 32L11 34L10 34L10 35L8 35L8 36L10 36L10 35L11 35L11 34L12 34L12 32L13 32L13 34L15 34L15 35L14 35L14 37L13 37L13 38L12 38L12 36L11 36L11 38L10 38L10 37L9 37L9 40L10 40L10 39L11 39L11 41L12 41L12 39L16 39L16 38L14 38L14 37L17 37L17 39L18 39L18 37L19 37L19 35L16 35L16 34L15 34L15 32L14 32L14 31L16 31L16 33L17 33L17 31L19 31L19 30L22 30L22 28L24 28L24 26L25 26L25 24L27 24L27 25L26 25L26 26L27 26L27 27L28 27L28 26L30 26L30 25L31 25L31 26L32 26L32 27L33 27L33 26L34 26L34 27L35 27L35 28L34 28L34 29L35 29L35 31L41 31L41 29L40 29L40 30L38 30L38 29L35 29L35 28L39 28L39 27L40 27L40 28L41 28L41 27L40 27L40 26L41 26L41 25L36 25L36 26L35 26L35 24L36 24L36 23L35 23L35 24L33 24L33 23L31 23L31 22L34 22L34 19L33 19L33 20L32 20L32 21L29 21L29 22L30 22L30 23L31 23L31 24L30 24L30 25L29 25L29 23L28 23L28 20L31 20L31 19L32 19L32 17L34 17L34 18L35 18L35 20L36 20L36 21L35 21L35 22L36 22L36 21L37 21L37 22L38 22L38 23L39 23L39 24L41 24L41 23L39 23L39 22L41 22L41 20L40 20L40 19L41 19L41 15L38 15L38 14L37 14L37 13L39 13L39 12L38 12L38 11L40 11L40 9L41 9L41 8L40 8L40 9L39 9L39 8L38 8L38 10L37 10L37 8L36 8L36 9L35 9L35 8L34 8L34 9L35 9L35 12L34 12L34 10L33 10L33 8L32 8L32 7L33 7L33 6L32 6L32 7L31 7L31 5L32 5L32 4L31 4L31 3L33 3L33 2L31 2L31 1L30 1L30 0L28 0L28 2L27 2L27 1L25 1L25 3L24 3L24 1L23 1L23 0L21 0L21 1L20 1L20 0L17 0L17 1L20 1L20 2L21 2L21 3L18 3L18 2L16 2L16 1L15 1L15 0L11 0L11 1L10 1L10 0ZM32 0L32 1L33 1L33 0ZM11 1L11 3L10 3L10 5L12 5L12 4L11 4L11 3L14 3L14 4L13 4L13 5L14 5L14 6L13 6L13 8L14 8L14 6L15 6L15 7L16 7L16 5L17 5L17 7L18 7L18 9L20 9L20 10L21 10L21 11L19 11L19 12L18 12L18 10L16 10L16 11L17 11L17 13L18 13L18 14L19 14L19 13L21 13L21 12L22 12L22 9L24 9L24 8L25 8L25 7L26 7L26 5L27 5L27 7L28 7L28 8L31 8L31 9L29 9L29 11L27 11L27 8L26 8L26 12L25 12L25 10L23 10L23 12L24 12L24 13L25 13L25 14L21 14L21 15L22 15L22 17L20 17L20 16L19 16L19 15L18 15L18 16L19 16L19 17L18 17L18 18L22 18L22 19L20 19L20 20L21 20L21 21L20 21L20 22L21 22L21 24L22 24L22 25L23 25L23 24L25 24L25 22L26 22L26 23L27 23L27 24L28 24L28 23L27 23L27 21L26 21L26 20L24 20L24 18L25 18L25 19L27 19L27 20L28 20L28 19L31 19L31 17L30 17L30 18L29 18L29 16L31 16L31 14L32 14L32 16L33 16L33 14L32 14L32 13L31 13L31 14L30 14L30 10L31 10L31 11L33 11L33 10L31 10L31 9L32 9L32 8L31 8L31 7L30 7L30 5L31 5L31 4L30 4L30 3L31 3L31 2L30 2L30 1L29 1L29 7L28 7L28 4L27 4L27 2L26 2L26 3L25 3L25 7L24 7L24 5L23 5L23 4L24 4L24 3L23 3L23 4L22 4L22 3L21 3L21 4L20 4L20 5L19 5L19 4L18 4L18 5L17 5L17 4L16 4L16 3L15 3L15 2L14 2L14 1L13 1L13 2L12 2L12 1ZM21 1L21 2L23 2L23 1ZM15 4L15 5L16 5L16 4ZM21 4L21 5L20 5L20 7L21 7L21 8L20 8L20 9L22 9L22 7L23 7L23 8L24 8L24 7L23 7L23 6L22 6L22 7L21 7L21 5L22 5L22 4ZM8 6L8 8L9 8L9 6ZM18 6L18 7L19 7L19 6ZM0 9L0 10L1 10L1 9ZM6 9L6 10L7 10L7 9ZM36 10L36 11L37 11L37 10ZM26 12L26 14L27 14L27 15L24 15L24 16L23 16L23 17L22 17L22 18L23 18L23 17L24 17L24 16L27 16L27 19L28 19L28 16L29 16L29 15L30 15L30 14L27 14L27 13L28 13L28 12ZM36 12L36 13L34 13L34 15L35 15L35 16L34 16L34 17L35 17L35 18L36 18L36 20L39 20L39 21L40 21L40 20L39 20L39 19L40 19L40 16L39 16L39 17L38 17L38 19L37 19L37 18L36 18L36 17L37 17L37 16L38 16L38 15L37 15L37 16L36 16L36 15L35 15L35 14L36 14L36 13L37 13L37 12ZM40 12L40 14L41 14L41 12ZM1 13L1 14L2 14L2 15L3 15L3 14L2 14L2 13ZM10 13L10 14L11 14L11 13ZM6 15L6 16L8 16L8 17L9 17L9 16L8 16L8 15ZM27 15L27 16L28 16L28 15ZM35 16L35 17L36 17L36 16ZM25 17L25 18L26 18L26 17ZM6 18L6 19L7 19L7 18ZM22 20L22 21L23 21L23 20ZM1 21L1 22L2 22L2 23L1 23L1 24L0 24L0 25L2 25L2 24L3 24L3 22L2 22L2 21ZM15 21L15 23L11 23L11 25L10 25L10 26L11 26L11 27L9 27L9 26L8 26L8 25L9 25L9 24L8 24L8 25L6 25L6 24L5 24L5 25L6 25L6 26L4 26L4 28L5 28L5 29L4 29L4 30L5 30L5 31L6 31L6 32L8 32L8 33L9 33L9 32L8 32L8 31L6 31L6 30L7 30L7 29L6 29L6 28L7 28L7 27L6 27L6 26L8 26L8 27L9 27L9 28L8 28L8 30L9 30L9 31L11 31L11 30L12 30L12 31L13 31L13 30L15 30L15 29L14 29L14 27L16 27L16 29L18 29L18 28L21 28L21 27L23 27L23 26L21 26L21 27L20 27L20 26L19 26L19 25L20 25L20 23L18 23L18 22L19 22L19 21L18 21L18 22L16 22L16 21ZM22 22L22 23L23 23L23 22ZM17 23L17 24L13 24L13 27L11 27L11 28L9 28L9 29L10 29L10 30L11 30L11 28L13 28L13 27L14 27L14 26L15 26L15 25L17 25L17 28L18 28L18 25L19 25L19 24L18 24L18 23ZM17 24L17 25L18 25L18 24ZM32 24L32 26L33 26L33 24ZM38 26L38 27L39 27L39 26ZM5 27L5 28L6 28L6 27ZM25 27L25 28L26 28L26 27ZM27 28L27 29L25 29L25 31L24 31L24 30L23 30L23 31L22 31L22 33L23 33L23 32L25 32L25 33L24 33L24 34L21 34L21 31L20 31L20 32L19 32L19 33L18 33L18 34L19 34L19 33L20 33L20 34L21 34L21 35L22 35L22 36L23 36L23 38L25 38L25 39L28 39L28 41L32 41L32 40L29 40L29 39L28 39L28 37L25 37L25 36L27 36L27 35L29 35L29 33L31 33L31 34L30 34L30 35L32 35L32 36L29 36L29 37L31 37L31 38L30 38L30 39L31 39L31 38L33 38L33 37L36 37L36 38L34 38L34 39L33 39L33 41L34 41L34 40L36 40L36 39L37 39L37 37L38 37L38 34L37 34L37 33L39 33L39 32L34 32L34 31L33 31L33 32L32 32L32 33L31 33L31 31L32 31L32 30L29 30L29 29L31 29L31 28L29 28L29 29L28 29L28 28ZM32 28L32 29L33 29L33 28ZM5 29L5 30L6 30L6 29ZM12 29L12 30L13 30L13 29ZM27 29L27 30L26 30L26 31L28 31L28 29ZM16 30L16 31L17 31L17 30ZM29 31L29 32L30 32L30 31ZM27 32L27 33L26 33L26 34L27 34L27 33L28 33L28 32ZM33 33L33 36L36 36L36 33ZM24 34L24 35L23 35L23 36L25 36L25 34ZM34 34L34 35L35 35L35 34ZM39 34L39 36L40 36L40 38L39 38L39 39L38 39L38 40L39 40L39 39L40 39L40 40L41 40L41 39L40 39L40 38L41 38L41 35L40 35L40 34ZM15 35L15 36L16 36L16 35ZM20 36L20 38L21 38L21 39L19 39L19 40L18 40L18 41L19 41L19 40L20 40L20 41L21 41L21 40L22 40L22 41L25 41L25 40L24 40L24 39L23 39L23 40L22 40L22 38L21 38L21 36ZM11 38L11 39L12 39L12 38ZM13 40L13 41L14 41L14 40ZM16 40L16 41L17 41L17 40ZM0 0L0 7L7 7L7 0ZM1 1L1 6L6 6L6 1ZM2 2L2 5L5 5L5 2ZM34 0L34 7L41 7L41 0ZM35 1L35 6L40 6L40 1ZM36 2L36 5L39 5L39 2ZM0 34L0 41L7 41L7 34ZM1 35L1 40L6 40L6 35ZM2 36L2 39L5 39L5 36Z" fill="#000000"/></g></g></svg>
