<?xml version="1.0" encoding="UTF-8"?>
<svg xmlns="http://www.w3.org/2000/svg" version="1.1" width="200" height="200" viewBox="0 0 200 200"><rect x="0" y="0" width="200" height="200" fill="#ffffff"/><g transform="scale(4.878)"><g transform="translate(0,0)"><path fill-rule="evenodd" d="M8 0L8 3L9 3L9 4L10 4L10 5L8 5L8 9L7 9L7 8L6 8L6 9L5 9L5 8L2 8L2 9L0 9L0 12L2 12L2 14L0 14L0 15L1 15L1 17L0 17L0 20L1 20L1 23L2 23L2 24L1 24L1 25L0 25L0 26L1 26L1 27L2 27L2 28L3 28L3 27L2 27L2 24L3 24L3 22L5 22L5 24L4 24L4 25L3 25L3 26L5 26L5 25L7 25L7 24L8 24L8 25L9 25L9 26L8 26L8 27L7 27L7 26L6 26L6 27L4 27L4 28L5 28L5 29L3 29L3 30L2 30L2 31L4 31L4 32L5 32L5 33L8 33L8 34L9 34L9 36L8 36L8 39L9 39L9 38L10 38L10 39L12 39L12 38L13 38L13 40L14 40L14 41L16 41L16 38L13 38L13 35L14 35L14 36L16 36L16 35L15 35L15 34L12 34L12 33L14 33L14 32L19 32L19 33L17 33L17 34L19 34L19 35L20 35L20 36L19 36L19 37L18 37L18 35L17 35L17 37L18 37L18 39L17 39L17 41L21 41L21 40L23 40L23 39L20 39L20 38L21 38L21 36L22 36L22 35L20 35L20 34L19 34L19 33L20 33L20 32L21 32L21 31L22 31L22 32L27 32L27 31L22 31L22 30L23 30L23 29L25 29L25 30L26 30L26 29L25 29L25 27L26 27L26 28L27 28L27 30L29 30L29 29L30 29L30 30L31 30L31 29L30 29L30 28L29 28L29 29L28 29L28 27L29 27L29 26L30 26L30 25L31 25L31 26L32 26L32 27L31 27L31 28L32 28L32 29L33 29L33 30L32 30L32 31L33 31L33 30L34 30L34 31L35 31L35 32L32 32L32 34L31 34L31 33L30 33L30 32L29 32L29 31L28 31L28 33L30 33L30 35L31 35L31 36L30 36L30 37L31 37L31 38L29 38L29 37L28 37L28 36L29 36L29 34L27 34L27 33L26 33L26 34L25 34L25 33L23 33L23 36L24 36L24 35L27 35L27 36L26 36L26 37L28 37L28 38L27 38L27 39L25 39L25 40L26 40L26 41L31 41L31 40L33 40L33 41L34 41L34 40L33 40L33 39L31 39L31 38L32 38L32 37L33 37L33 38L34 38L34 39L35 39L35 40L36 40L36 39L39 39L39 40L40 40L40 38L41 38L41 37L39 37L39 36L37 36L37 32L38 32L38 33L39 33L39 34L38 34L38 35L40 35L40 34L41 34L41 33L40 33L40 32L41 32L41 31L40 31L40 30L41 30L41 29L39 29L39 30L38 30L38 31L37 31L37 29L36 29L36 28L35 28L35 25L36 25L36 27L37 27L37 28L38 28L38 26L39 26L39 28L40 28L40 26L41 26L41 23L40 23L40 26L39 26L39 24L37 24L37 25L36 25L36 23L34 23L34 22L36 22L36 21L37 21L37 20L38 20L38 22L39 22L39 20L38 20L38 18L39 18L39 19L40 19L40 18L41 18L41 16L40 16L40 18L39 18L39 16L37 16L37 17L36 17L36 16L35 16L35 17L34 17L34 16L33 16L33 15L34 15L34 14L33 14L33 13L34 13L34 12L33 12L33 13L32 13L32 14L31 14L31 11L30 11L30 12L26 12L26 11L29 11L29 9L31 9L31 10L33 10L33 11L34 11L34 10L35 10L35 9L36 9L36 12L38 12L38 11L40 11L40 10L41 10L41 8L38 8L38 9L40 9L40 10L37 10L37 9L36 9L36 8L33 8L33 9L31 9L31 8L32 8L32 7L33 7L33 4L31 4L31 3L30 3L30 4L31 4L31 5L29 5L29 4L28 4L28 5L27 5L27 6L26 6L26 7L25 7L25 6L24 6L24 8L23 8L23 10L22 10L22 9L21 9L21 8L22 8L22 7L23 7L23 6L22 6L22 7L21 7L21 4L20 4L20 5L16 5L16 4L18 4L18 3L17 3L17 2L18 2L18 1L17 1L17 0L16 0L16 1L17 1L17 2L16 2L16 4L15 4L15 6L14 6L14 7L13 7L13 5L14 5L14 3L13 3L13 2L14 2L14 1L15 1L15 0L14 0L14 1L11 1L11 2L9 2L9 0ZM20 0L20 3L21 3L21 2L22 2L22 3L23 3L23 4L22 4L22 5L26 5L26 4L27 4L27 3L29 3L29 1L27 1L27 0L24 0L24 1L25 1L25 3L26 3L26 4L24 4L24 2L22 2L22 0ZM30 0L30 2L31 2L31 1L33 1L33 0ZM26 2L26 3L27 3L27 2ZM32 2L32 3L33 3L33 2ZM10 3L10 4L11 4L11 5L13 5L13 4L12 4L12 3ZM28 5L28 6L27 6L27 7L26 7L26 8L25 8L25 9L24 9L24 10L23 10L23 11L22 11L22 10L21 10L21 9L20 9L20 11L18 11L18 10L17 10L17 11L16 11L16 10L15 10L15 9L14 9L14 11L13 11L13 8L12 8L12 11L11 11L11 12L10 12L10 11L9 11L9 14L11 14L11 13L12 13L12 12L13 12L13 14L12 14L12 15L10 15L10 16L9 16L9 15L6 15L6 14L8 14L8 11L6 11L6 12L4 12L4 11L3 11L3 9L2 9L2 12L3 12L3 13L5 13L5 14L4 14L4 15L3 15L3 18L4 18L4 19L2 19L2 20L3 20L3 21L4 21L4 20L7 20L7 21L6 21L6 22L7 22L7 23L6 23L6 24L7 24L7 23L8 23L8 21L9 21L9 22L10 22L10 20L9 20L9 19L6 19L6 18L7 18L7 17L6 17L6 16L9 16L9 17L8 17L8 18L9 18L9 17L11 17L11 18L10 18L10 19L11 19L11 20L12 20L12 19L14 19L14 20L17 20L17 21L16 21L16 22L15 22L15 26L16 26L16 25L21 25L21 21L22 21L22 20L21 20L21 19L23 19L23 20L24 20L24 19L25 19L25 20L26 20L26 21L25 21L25 22L24 22L24 23L25 23L25 24L24 24L24 25L23 25L23 24L22 24L22 25L23 25L23 26L24 26L24 27L25 27L25 26L29 26L29 25L27 25L27 24L26 24L26 21L27 21L27 22L28 22L28 21L29 21L29 24L30 24L30 23L31 23L31 25L32 25L32 26L33 26L33 27L34 27L34 25L35 25L35 24L34 24L34 23L32 23L32 22L34 22L34 21L36 21L36 20L37 20L37 18L38 18L38 17L37 17L37 18L36 18L36 17L35 17L35 19L34 19L34 18L33 18L33 17L32 17L32 18L30 18L30 19L31 19L31 20L28 20L28 19L29 19L29 16L30 16L30 17L31 17L31 16L30 16L30 15L31 15L31 14L30 14L30 13L28 13L28 14L29 14L29 15L28 15L28 17L26 17L26 15L27 15L27 13L25 13L25 15L23 15L23 13L24 13L24 12L25 12L25 11L26 11L26 10L28 10L28 9L29 9L29 8L30 8L30 6L29 6L29 5ZM31 5L31 7L32 7L32 5ZM9 6L9 8L10 8L10 6ZM11 6L11 7L12 7L12 6ZM15 6L15 7L16 7L16 6ZM17 6L17 7L18 7L18 9L19 9L19 7L20 7L20 8L21 8L21 7L20 7L20 6L19 6L19 7L18 7L18 6ZM28 6L28 7L27 7L27 8L26 8L26 9L28 9L28 8L29 8L29 6ZM6 9L6 10L7 10L7 9ZM10 9L10 10L11 10L11 9ZM33 9L33 10L34 10L34 9ZM14 11L14 12L15 12L15 13L14 13L14 15L12 15L12 18L11 18L11 19L12 19L12 18L13 18L13 17L14 17L14 15L15 15L15 13L16 13L16 12L15 12L15 11ZM23 11L23 12L22 12L22 13L21 13L21 12L17 12L17 13L19 13L19 17L18 17L18 18L17 18L17 15L16 15L16 17L15 17L15 18L14 18L14 19L16 19L16 18L17 18L17 20L19 20L19 22L18 22L18 21L17 21L17 23L16 23L16 24L19 24L19 23L20 23L20 20L19 20L19 18L20 18L20 19L21 19L21 18L22 18L22 17L23 17L23 19L24 19L24 16L23 16L23 15L22 15L22 13L23 13L23 12L24 12L24 11ZM6 12L6 13L7 13L7 12ZM36 13L36 14L35 14L35 15L37 15L37 14L38 14L38 15L40 15L40 14L41 14L41 13L40 13L40 14L38 14L38 13ZM20 14L20 15L21 15L21 16L20 16L20 17L22 17L22 15L21 15L21 14ZM32 14L32 15L33 15L33 14ZM4 15L4 18L5 18L5 16L6 16L6 15ZM1 17L1 18L2 18L2 17ZM27 18L27 19L26 19L26 20L27 20L27 21L28 21L28 20L27 20L27 19L28 19L28 18ZM32 19L32 21L30 21L30 22L32 22L32 21L34 21L34 20L33 20L33 19ZM35 19L35 20L36 20L36 19ZM40 20L40 21L41 21L41 20ZM12 21L12 22L13 22L13 21ZM13 23L13 24L12 24L12 25L11 25L11 24L9 24L9 25L11 25L11 27L10 27L10 26L9 26L9 28L7 28L7 27L6 27L6 28L7 28L7 29L5 29L5 32L8 32L8 33L10 33L10 34L11 34L11 35L10 35L10 38L11 38L11 37L12 37L12 36L11 36L11 35L12 35L12 34L11 34L11 33L10 33L10 32L9 32L9 30L10 30L10 31L11 31L11 32L14 32L14 31L15 31L15 29L14 29L14 31L11 31L11 29L13 29L13 27L14 27L14 28L15 28L15 27L14 27L14 26L13 26L13 25L14 25L14 23ZM32 24L32 25L34 25L34 24ZM12 26L12 27L11 27L11 28L9 28L9 29L8 29L8 30L9 30L9 29L11 29L11 28L12 28L12 27L13 27L13 26ZM18 26L18 27L17 27L17 28L18 28L18 30L17 30L17 31L18 31L18 30L19 30L19 28L20 28L20 30L22 30L22 29L23 29L23 28L22 28L22 29L21 29L21 27L22 27L22 26ZM0 28L0 33L1 33L1 28ZM33 28L33 29L34 29L34 30L36 30L36 29L34 29L34 28ZM6 30L6 31L7 31L7 30ZM19 31L19 32L20 32L20 31ZM38 31L38 32L40 32L40 31ZM2 32L2 33L3 33L3 32ZM33 33L33 36L36 36L36 33ZM34 34L34 35L35 35L35 34ZM31 36L31 37L32 37L32 36ZM19 37L19 38L20 38L20 37ZM34 37L34 38L36 38L36 37ZM38 37L38 38L39 38L39 37ZM14 39L14 40L15 40L15 39ZM18 39L18 40L19 40L19 39ZM28 39L28 40L31 40L31 39ZM9 40L9 41L10 41L10 40ZM0 0L0 7L7 7L7 0ZM1 1L1 6L6 6L6 1ZM2 2L2 5L5 5L5 2ZM34 0L34 7L41 7L41 0ZM35 1L35 6L40 6L40 1ZM36 2L36 5L39 5L39 2ZM0 34L0 41L7 41L7 34ZM1 35L1 40L6 40L6 35ZM2 36L2 39L5 39L5 36Z" fill="#000000"/></g></g></svg>
