<?xml version="1.0" encoding="UTF-8"?>
<svg xmlns="http://www.w3.org/2000/svg" version="1.1" width="200" height="200" viewBox="0 0 200 200"><rect x="0" y="0" width="200" height="200" fill="#ffffff"/><g transform="scale(6.897)"><g transform="translate(0,0)"><path fill-rule="evenodd" d="M8 0L8 3L10 3L10 4L11 4L11 5L12 5L12 4L13 4L13 3L12 3L12 2L13 2L13 1L14 1L14 0ZM16 0L16 1L15 1L15 2L14 2L14 5L13 5L13 6L12 6L12 8L14 8L14 9L11 9L11 11L13 11L13 15L16 15L16 16L12 16L12 13L11 13L11 12L9 12L9 11L10 11L10 9L9 9L9 8L11 8L11 6L10 6L10 7L9 7L9 5L8 5L8 9L7 9L7 8L6 8L6 9L7 9L7 10L5 10L5 8L2 8L2 9L1 9L1 10L2 10L2 9L4 9L4 11L5 11L5 12L4 12L4 13L5 13L5 12L6 12L6 13L7 13L7 12L6 12L6 11L7 11L7 10L9 10L9 11L8 11L8 13L9 13L9 15L7 15L7 14L4 14L4 15L5 15L5 16L4 16L4 18L6 18L6 19L3 19L3 18L2 18L2 15L1 15L1 17L0 17L0 21L1 21L1 18L2 18L2 19L3 19L3 21L7 21L7 20L6 20L6 19L7 19L7 18L8 18L8 20L11 20L11 21L10 21L10 22L9 22L9 21L8 21L8 22L9 22L9 24L8 24L8 27L9 27L9 28L10 28L10 29L12 29L12 28L13 28L13 29L16 29L16 28L17 28L17 27L18 27L18 29L25 29L25 28L26 28L26 27L23 27L23 26L22 26L22 25L24 25L24 26L25 26L25 25L26 25L26 24L25 24L25 22L26 22L26 23L27 23L27 22L26 22L26 21L25 21L25 18L26 18L26 20L28 20L28 22L29 22L29 20L28 20L28 19L27 19L27 17L28 17L28 15L27 15L27 14L26 14L26 13L25 13L25 12L27 12L27 13L28 13L28 10L29 10L29 8L26 8L26 9L25 9L25 12L24 12L24 11L22 11L22 12L23 12L23 13L21 13L21 15L22 15L22 14L23 14L23 13L24 13L24 20L23 20L23 19L22 19L22 18L20 18L20 19L21 19L21 20L20 20L20 25L18 25L18 26L17 26L17 27L15 27L15 26L16 26L16 25L17 25L17 24L18 24L18 23L19 23L19 22L18 22L18 23L16 23L16 25L15 25L15 24L14 24L14 26L13 26L13 24L11 24L11 22L12 22L12 23L13 23L13 22L14 22L14 23L15 23L15 22L14 22L14 21L16 21L16 22L17 22L17 20L16 20L16 18L15 18L15 17L16 17L16 16L17 16L17 15L16 15L16 14L15 14L15 13L16 13L16 12L14 12L14 9L15 9L15 10L17 10L17 14L18 14L18 17L17 17L17 18L19 18L19 14L18 14L18 13L20 13L20 12L21 12L21 11L20 11L20 10L22 10L22 9L23 9L23 10L24 10L24 8L21 8L21 9L20 9L20 7L21 7L21 5L20 5L20 4L21 4L21 3L20 3L20 4L19 4L19 3L18 3L18 4L17 4L17 2L16 2L16 1L17 1L17 0ZM9 1L9 2L10 2L10 1ZM11 1L11 2L12 2L12 1ZM18 1L18 2L19 2L19 1ZM20 1L20 2L21 2L21 1ZM15 2L15 4L16 4L16 5L14 5L14 6L13 6L13 7L14 7L14 8L16 8L16 9L19 9L19 10L20 10L20 9L19 9L19 8L16 8L16 6L17 6L17 7L18 7L18 6L19 6L19 7L20 7L20 6L19 6L19 5L18 5L18 6L17 6L17 4L16 4L16 2ZM11 3L11 4L12 4L12 3ZM14 6L14 7L15 7L15 6ZM26 10L26 11L27 11L27 10ZM0 11L0 12L1 12L1 13L0 13L0 14L2 14L2 12L3 12L3 11ZM18 11L18 12L19 12L19 11ZM10 13L10 14L11 14L11 13ZM6 15L6 16L5 16L5 17L6 17L6 18L7 18L7 17L9 17L9 18L10 18L10 17L12 17L12 18L11 18L11 20L12 20L12 21L13 21L13 20L15 20L15 18L14 18L14 17L12 17L12 16L10 16L10 15L9 15L9 16L7 16L7 15ZM25 15L25 16L27 16L27 15ZM6 16L6 17L7 17L7 16ZM20 16L20 17L22 17L22 16ZM18 19L18 20L19 20L19 19ZM21 21L21 24L24 24L24 21ZM22 22L22 23L23 23L23 22ZM9 24L9 25L11 25L11 27L10 27L10 26L9 26L9 27L10 27L10 28L12 28L12 27L13 27L13 26L12 26L12 25L11 25L11 24ZM27 25L27 29L28 29L28 28L29 28L29 27L28 27L28 25ZM18 26L18 27L19 27L19 28L22 28L22 27L21 27L21 26L20 26L20 27L19 27L19 26ZM14 27L14 28L15 28L15 27ZM0 0L0 7L7 7L7 0ZM1 1L1 6L6 6L6 1ZM2 2L2 5L5 5L5 2ZM22 0L22 7L29 7L29 0ZM23 1L23 6L28 6L28 1ZM24 2L24 5L27 5L27 2ZM0 22L0 29L7 29L7 22ZM1 23L1 28L6 28L6 23ZM2 24L2 27L5 27L5 24Z" fill="#000000"/></g></g></svg>
