<?xml version="1.0" encoding="UTF-8"?>
<svg xmlns="http://www.w3.org/2000/svg" version="1.1" width="200" height="200" viewBox="0 0 200 200"><rect x="0" y="0" width="200" height="200" fill="#ffffff"/><g transform="scale(6.897)"><g transform="translate(0,0)"><path fill-rule="evenodd" d="M8 0L8 1L9 1L9 2L11 2L11 3L10 3L10 4L9 4L9 3L8 3L8 4L9 4L9 6L8 6L8 7L9 7L9 6L10 6L10 8L8 8L8 10L6 10L6 9L7 9L7 8L4 8L4 9L3 9L3 8L2 8L2 10L1 10L1 9L0 9L0 10L1 10L1 11L0 11L0 12L5 12L5 14L6 14L6 15L8 15L8 16L9 16L9 15L11 15L11 16L10 16L10 19L9 19L9 18L3 18L3 17L2 17L2 16L3 16L3 15L4 15L4 17L5 17L5 15L4 15L4 13L3 13L3 15L1 15L1 17L2 17L2 19L1 19L1 18L0 18L0 19L1 19L1 20L0 20L0 21L1 21L1 20L2 20L2 21L8 21L8 22L10 22L10 23L8 23L8 25L9 25L9 24L10 24L10 23L11 23L11 22L12 22L12 21L11 21L11 20L12 20L12 19L13 19L13 21L14 21L14 22L13 22L13 23L12 23L12 24L11 24L11 25L10 25L10 28L9 28L9 29L13 29L13 28L12 28L12 26L11 26L11 25L12 25L12 24L13 24L13 23L14 23L14 22L15 22L15 21L16 21L16 22L17 22L17 23L16 23L16 24L17 24L17 25L19 25L19 24L20 24L20 26L17 26L17 27L21 27L21 28L20 28L20 29L25 29L25 28L26 28L26 29L27 29L27 28L28 28L28 29L29 29L29 26L28 26L28 25L27 25L27 24L28 24L28 23L29 23L29 22L28 22L28 18L27 18L27 17L26 17L26 14L24 14L24 13L25 13L25 12L24 12L24 11L26 11L26 13L27 13L27 14L28 14L28 15L27 15L27 16L28 16L28 17L29 17L29 16L28 16L28 15L29 15L29 14L28 14L28 13L29 13L29 12L28 12L28 11L29 11L29 8L28 8L28 9L27 9L27 10L28 10L28 11L26 11L26 8L25 8L25 10L24 10L24 9L23 9L23 10L22 10L22 8L21 8L21 3L20 3L20 2L19 2L19 3L20 3L20 4L18 4L18 3L17 3L17 4L16 4L16 2L18 2L18 1L19 1L19 0L18 0L18 1L16 1L16 2L15 2L15 3L14 3L14 0L12 0L12 2L11 2L11 0L10 0L10 1L9 1L9 0ZM12 2L12 3L11 3L11 5L10 5L10 6L11 6L11 7L12 7L12 6L11 6L11 5L14 5L14 6L13 6L13 8L12 8L12 9L13 9L13 10L12 10L12 11L11 11L11 12L10 12L10 11L8 11L8 12L10 12L10 13L9 13L9 14L10 14L10 13L11 13L11 15L12 15L12 16L13 16L13 17L12 17L12 18L11 18L11 19L12 19L12 18L13 18L13 17L14 17L14 18L16 18L16 19L18 19L18 21L17 21L17 22L18 22L18 21L19 21L19 20L20 20L20 19L19 19L19 18L16 18L16 16L13 16L13 14L14 14L14 15L15 15L15 14L16 14L16 15L20 15L20 16L19 16L19 17L20 17L20 16L21 16L21 15L20 15L20 14L21 14L21 13L20 13L20 12L22 12L22 11L21 11L21 8L20 8L20 5L18 5L18 4L17 4L17 5L15 5L15 4L12 4L12 3L13 3L13 2ZM17 5L17 6L16 6L16 7L15 7L15 6L14 6L14 7L15 7L15 9L14 9L14 8L13 8L13 9L14 9L14 10L16 10L16 11L14 11L14 12L13 12L13 11L12 11L12 12L11 12L11 13L12 13L12 14L13 14L13 13L15 13L15 12L16 12L16 11L19 11L19 12L18 12L18 13L16 13L16 14L20 14L20 13L19 13L19 12L20 12L20 11L19 11L19 10L20 10L20 8L19 8L19 6L18 6L18 5ZM17 6L17 7L18 7L18 6ZM16 8L16 9L17 9L17 10L18 10L18 8ZM4 9L4 10L5 10L5 9ZM10 9L10 10L11 10L11 9ZM2 10L2 11L3 11L3 10ZM23 10L23 11L24 11L24 10ZM5 11L5 12L7 12L7 11ZM27 12L27 13L28 13L28 12ZM0 13L0 14L1 14L1 13ZM6 13L6 14L8 14L8 13ZM22 14L22 15L24 15L24 16L22 16L22 18L21 18L21 19L22 19L22 18L23 18L23 19L24 19L24 18L25 18L25 19L26 19L26 20L25 20L25 23L26 23L26 24L27 24L27 21L26 21L26 20L27 20L27 18L26 18L26 17L25 17L25 15L24 15L24 14ZM6 16L6 17L7 17L7 16ZM23 17L23 18L24 18L24 17ZM2 19L2 20L3 20L3 19ZM4 19L4 20L5 20L5 19ZM6 19L6 20L7 20L7 19ZM14 19L14 21L15 21L15 19ZM8 20L8 21L9 21L9 20ZM21 21L21 24L24 24L24 21ZM19 22L19 23L18 23L18 24L19 24L19 23L20 23L20 22ZM22 22L22 23L23 23L23 22ZM13 25L13 26L14 26L14 29L15 29L15 28L16 28L16 25L15 25L15 26L14 26L14 25ZM22 25L22 26L21 26L21 27L22 27L22 28L25 28L25 27L26 27L26 28L27 28L27 27L28 27L28 26L25 26L25 25L24 25L24 26L23 26L23 25ZM8 26L8 27L9 27L9 26ZM17 28L17 29L19 29L19 28ZM0 0L0 7L7 7L7 0ZM1 1L1 6L6 6L6 1ZM2 2L2 5L5 5L5 2ZM22 0L22 7L29 7L29 0ZM23 1L23 6L28 6L28 1ZM24 2L24 5L27 5L27 2ZM0 22L0 29L7 29L7 22ZM1 23L1 28L6 28L6 23ZM2 24L2 27L5 27L5 24Z" fill="#000000"/></g></g></svg>
