<?xml version="1.0" encoding="UTF-8"?>
<svg xmlns="http://www.w3.org/2000/svg" version="1.1" width="200" height="200" viewBox="0 0 200 200"><rect x="0" y="0" width="200" height="200" fill="#ffffff"/><g transform="scale(4.878)"><g transform="translate(0,0)"><path fill-rule="evenodd" d="M9 0L9 2L8 2L8 4L9 4L9 6L8 6L8 7L9 7L9 8L11 8L11 5L13 5L13 4L14 4L14 7L15 7L15 8L13 8L13 6L12 6L12 9L11 9L11 11L10 11L10 13L9 13L9 15L8 15L8 13L7 13L7 12L9 12L9 10L10 10L10 9L8 9L8 8L6 8L6 9L5 9L5 8L3 8L3 9L2 9L2 10L1 10L1 9L0 9L0 11L2 11L2 10L3 10L3 9L4 9L4 14L3 14L3 12L2 12L2 14L1 14L1 12L0 12L0 15L2 15L2 17L3 17L3 18L4 18L4 14L5 14L5 15L7 15L7 16L5 16L5 17L7 17L7 18L6 18L6 19L5 19L5 21L4 21L4 19L3 19L3 20L2 20L2 19L1 19L1 16L0 16L0 20L2 20L2 21L0 21L0 23L2 23L2 21L4 21L4 22L3 22L3 24L1 24L1 25L0 25L0 26L1 26L1 27L0 27L0 28L1 28L1 27L3 27L3 26L1 26L1 25L4 25L4 26L5 26L5 25L4 25L4 23L5 23L5 22L6 22L6 23L7 23L7 24L6 24L6 25L7 25L7 24L9 24L9 25L8 25L8 26L10 26L10 27L11 27L11 28L14 28L14 29L13 29L13 30L14 30L14 29L15 29L15 28L17 28L17 27L15 27L15 26L16 26L16 25L17 25L17 26L19 26L19 25L21 25L21 24L22 24L22 26L20 26L20 27L22 27L22 28L20 28L20 29L21 29L21 30L22 30L22 28L23 28L23 30L26 30L26 29L28 29L28 30L27 30L27 31L28 31L28 30L30 30L30 31L31 31L31 30L30 30L30 29L32 29L32 31L33 31L33 32L32 32L32 33L31 33L31 32L27 32L27 33L25 33L25 34L23 34L23 32L22 32L22 34L21 34L21 32L20 32L20 31L19 31L19 30L18 30L18 29L19 29L19 28L18 28L18 29L17 29L17 30L18 30L18 31L17 31L17 33L14 33L14 34L13 34L13 35L14 35L14 36L15 36L15 35L16 35L16 34L17 34L17 33L20 33L20 35L19 35L19 36L21 36L21 35L25 35L25 37L26 37L26 35L29 35L29 34L30 34L30 33L31 33L31 35L30 35L30 36L27 36L27 39L26 39L26 40L24 40L24 37L22 37L22 38L21 38L21 37L18 37L18 36L16 36L16 37L17 37L17 38L15 38L15 39L14 39L14 37L13 37L13 36L8 36L8 38L9 38L9 39L11 39L11 38L12 38L12 39L14 39L14 40L12 40L12 41L14 41L14 40L18 40L18 41L22 41L22 40L23 40L23 41L27 41L27 39L28 39L28 40L29 40L29 39L32 39L32 37L36 37L36 38L35 38L35 39L33 39L33 40L31 40L31 41L34 41L34 40L35 40L35 41L36 41L36 39L37 39L37 40L38 40L38 41L39 41L39 40L38 40L38 39L40 39L40 40L41 40L41 35L40 35L40 34L39 34L39 33L41 33L41 30L38 30L38 29L41 29L41 25L39 25L39 24L37 24L37 22L41 22L41 21L39 21L39 20L40 20L40 19L41 19L41 18L40 18L40 17L41 17L41 11L40 11L40 9L39 9L39 8L37 8L37 9L35 9L35 10L34 10L34 11L35 11L35 10L36 10L36 12L35 12L35 13L36 13L36 14L38 14L38 13L39 13L39 12L38 12L38 10L39 10L39 11L40 11L40 15L36 15L36 16L40 16L40 17L39 17L39 19L38 19L38 17L35 17L35 20L34 20L34 19L32 19L32 18L33 18L33 17L34 17L34 16L35 16L35 14L33 14L33 13L32 13L32 11L33 11L33 6L32 6L32 7L31 7L31 5L33 5L33 4L29 4L29 5L28 5L28 7L27 7L27 5L26 5L26 4L28 4L28 2L29 2L29 3L33 3L33 2L32 2L32 1L33 1L33 0L32 0L32 1L31 1L31 2L30 2L30 1L29 1L29 0L28 0L28 2L27 2L27 1L26 1L26 0L25 0L25 1L24 1L24 2L23 2L23 1L22 1L22 0L21 0L21 1L20 1L20 0L19 0L19 2L18 2L18 0L16 0L16 1L17 1L17 2L15 2L15 0L11 0L11 2L10 2L10 0ZM12 1L12 2L13 2L13 3L15 3L15 2L13 2L13 1ZM9 2L9 4L10 4L10 5L11 5L11 4L12 4L12 3L11 3L11 4L10 4L10 2ZM17 2L17 3L16 3L16 4L15 4L15 7L16 7L16 9L15 9L15 10L17 10L17 11L16 11L16 13L15 13L15 14L14 14L14 15L13 15L13 13L14 13L14 12L15 12L15 11L14 11L14 9L13 9L13 11L11 11L11 13L10 13L10 15L9 15L9 16L7 16L7 17L8 17L8 18L7 18L7 19L6 19L6 20L7 20L7 19L8 19L8 18L9 18L9 16L11 16L11 17L12 17L12 18L10 18L10 19L9 19L9 20L8 20L8 21L6 21L6 22L7 22L7 23L9 23L9 24L11 24L11 25L10 25L10 26L11 26L11 27L14 27L14 28L15 28L15 27L14 27L14 26L15 26L15 24L16 24L16 23L18 23L18 24L17 24L17 25L19 25L19 22L21 22L21 23L22 23L22 24L23 24L23 26L22 26L22 27L24 27L24 28L25 28L25 29L26 29L26 27L27 27L27 25L25 25L25 23L26 23L26 22L27 22L27 19L26 19L26 17L32 17L32 15L31 15L31 14L30 14L30 12L31 12L31 11L32 11L32 10L31 10L31 9L32 9L32 8L31 8L31 7L30 7L30 5L29 5L29 7L28 7L28 8L31 8L31 9L28 9L28 11L29 11L29 10L31 10L31 11L30 11L30 12L29 12L29 14L30 14L30 15L28 15L28 13L26 13L26 12L27 12L27 9L26 9L26 8L27 8L27 7L26 7L26 6L25 6L25 4L26 4L26 3L24 3L24 4L23 4L23 3L22 3L22 2L20 2L20 3L19 3L19 5L20 5L20 4L21 4L21 5L22 5L22 6L21 6L21 7L22 7L22 8L24 8L24 6L25 6L25 9L21 9L21 8L19 8L19 9L18 9L18 10L17 10L17 8L18 8L18 6L17 6L17 5L18 5L18 2ZM21 3L21 4L22 4L22 3ZM16 4L16 5L17 5L17 4ZM9 6L9 7L10 7L10 6ZM16 6L16 7L17 7L17 6ZM19 6L19 7L20 7L20 6ZM22 6L22 7L23 7L23 6ZM6 9L6 10L5 10L5 11L6 11L6 12L7 12L7 11L8 11L8 9ZM19 9L19 10L20 10L20 11L17 11L17 13L18 13L18 12L19 12L19 14L18 14L18 15L16 15L16 16L17 16L17 17L16 17L16 18L15 18L15 15L14 15L14 18L15 18L15 19L13 19L13 18L12 18L12 19L13 19L13 20L11 20L11 23L12 23L12 24L13 24L13 23L15 23L15 22L13 22L13 20L15 20L15 21L16 21L16 20L18 20L18 19L17 19L17 18L19 18L19 17L18 17L18 15L19 15L19 14L21 14L21 15L22 15L22 17L23 17L23 18L22 18L22 19L20 19L20 20L19 20L19 21L17 21L17 22L19 22L19 21L20 21L20 20L21 20L21 21L23 21L23 19L24 19L24 20L25 20L25 21L24 21L24 23L23 23L23 24L24 24L24 23L25 23L25 21L26 21L26 20L25 20L25 18L24 18L24 16L25 16L25 17L26 17L26 14L24 14L24 15L23 15L23 13L21 13L21 12L23 12L23 11L24 11L24 13L25 13L25 12L26 12L26 10L25 10L25 11L24 11L24 10L23 10L23 11L21 11L21 9ZM37 9L37 10L38 10L38 9ZM6 10L6 11L7 11L7 10ZM36 12L36 13L37 13L37 12ZM5 13L5 14L7 14L7 13ZM11 13L11 15L12 15L12 13ZM27 15L27 16L28 16L28 15ZM30 15L30 16L31 16L31 15ZM12 16L12 17L13 17L13 16ZM20 17L20 18L21 18L21 17ZM28 18L28 20L29 20L29 21L28 21L28 22L31 22L31 23L32 23L32 25L31 25L31 24L28 24L28 23L27 23L27 24L28 24L28 27L29 27L29 29L30 29L30 28L32 28L32 27L33 27L33 26L32 26L32 25L33 25L33 23L36 23L36 21L34 21L34 22L31 22L31 21L30 21L30 20L31 20L31 19L29 19L29 18ZM36 18L36 20L38 20L38 19L37 19L37 18ZM9 21L9 22L10 22L10 21ZM35 24L35 26L36 26L36 25L37 25L37 27L39 27L39 25L37 25L37 24ZM12 25L12 26L14 26L14 25ZM24 25L24 27L25 27L25 25ZM29 25L29 26L31 26L31 27L32 27L32 26L31 26L31 25ZM6 26L6 27L5 27L5 28L4 28L4 29L3 29L3 30L1 30L1 29L0 29L0 33L2 33L2 31L3 31L3 30L4 30L4 31L5 31L5 30L4 30L4 29L5 29L5 28L6 28L6 29L7 29L7 30L6 30L6 31L10 31L10 32L9 32L9 33L8 33L8 35L10 35L10 34L11 34L11 35L12 35L12 34L11 34L11 31L12 31L12 29L11 29L11 30L9 30L9 29L10 29L10 28L9 28L9 29L7 29L7 28L6 28L6 27L7 27L7 26ZM34 28L34 29L35 29L35 30L33 30L33 31L34 31L34 32L36 32L36 29L38 29L38 28L36 28L36 29L35 29L35 28ZM15 30L15 31L13 31L13 32L12 32L12 33L13 33L13 32L15 32L15 31L16 31L16 30ZM37 30L37 31L38 31L38 30ZM4 32L4 33L5 33L5 32ZM6 32L6 33L7 33L7 32ZM37 32L37 33L38 33L38 32ZM9 33L9 34L10 34L10 33ZM28 33L28 34L29 34L29 33ZM33 33L33 36L36 36L36 33ZM34 34L34 35L35 35L35 34ZM37 34L37 38L40 38L40 37L39 37L39 35L38 35L38 34ZM31 35L31 36L30 36L30 37L29 37L29 38L30 38L30 37L31 37L31 36L32 36L32 35ZM9 37L9 38L11 38L11 37ZM12 37L12 38L13 38L13 37ZM17 38L17 39L18 39L18 38ZM19 38L19 39L21 39L21 38ZM22 38L22 39L23 39L23 38ZM10 40L10 41L11 41L11 40ZM0 0L0 7L7 7L7 0ZM1 1L1 6L6 6L6 1ZM2 2L2 5L5 5L5 2ZM34 0L34 7L41 7L41 0ZM35 1L35 6L40 6L40 1ZM36 2L36 5L39 5L39 2ZM0 34L0 41L7 41L7 34ZM1 35L1 40L6 40L6 35ZM2 36L2 39L5 39L5 36Z" fill="#000000"/></g></g></svg>
