<?xml version="1.0" encoding="UTF-8"?>
<svg xmlns="http://www.w3.org/2000/svg" version="1.1" width="200" height="200" viewBox="0 0 200 200"><rect x="0" y="0" width="200" height="200" fill="#ffffff"/><g transform="scale(4.878)"><g transform="translate(0,0)"><path fill-rule="evenodd" d="M8 0L8 3L12 3L12 4L11 4L11 5L10 5L10 4L9 4L9 5L8 5L8 9L7 9L7 8L6 8L6 9L7 9L7 10L6 10L6 11L5 11L5 10L4 10L4 9L5 9L5 8L2 8L2 9L1 9L1 10L0 10L0 11L1 11L1 12L0 12L0 13L1 13L1 16L0 16L0 20L1 20L1 21L3 21L3 22L4 22L4 24L5 24L5 25L4 25L4 26L3 26L3 25L2 25L2 26L3 26L3 28L2 28L2 27L1 27L1 26L0 26L0 27L1 27L1 28L2 28L2 29L3 29L3 31L2 31L2 33L4 33L4 31L7 31L7 30L9 30L9 29L12 29L12 28L10 28L10 26L11 26L11 27L13 27L13 31L12 31L12 32L10 32L10 31L11 31L11 30L10 30L10 31L9 31L9 32L10 32L10 34L9 34L9 33L8 33L8 34L9 34L9 36L8 36L8 39L9 39L9 37L10 37L10 36L12 36L12 35L14 35L14 36L13 36L13 38L11 38L11 39L10 39L10 40L12 40L12 41L14 41L14 39L15 39L15 41L16 41L16 38L17 38L17 39L19 39L19 38L20 38L20 40L19 40L19 41L20 41L20 40L22 40L22 41L26 41L26 40L27 40L27 41L32 41L32 40L33 40L33 41L34 41L34 40L33 40L33 39L32 39L32 37L33 37L33 38L34 38L34 39L35 39L35 40L36 40L36 39L37 39L37 38L38 38L38 37L39 37L39 40L40 40L40 38L41 38L41 37L39 37L39 36L38 36L38 34L37 34L37 33L39 33L39 35L40 35L40 36L41 36L41 35L40 35L40 34L41 34L41 33L39 33L39 32L32 32L32 34L30 34L30 35L31 35L31 36L30 36L30 37L31 37L31 39L30 39L30 38L27 38L27 39L26 39L26 35L29 35L29 34L27 34L27 32L26 32L26 33L23 33L23 34L22 34L22 33L20 33L20 34L22 34L22 35L24 35L24 34L26 34L26 35L25 35L25 40L24 40L24 36L23 36L23 39L21 39L21 38L22 38L22 36L21 36L21 37L20 37L20 35L17 35L17 34L16 34L16 33L17 33L17 32L20 32L20 31L21 31L21 30L23 30L23 28L24 28L24 27L26 27L26 26L27 26L27 30L26 30L26 28L25 28L25 29L24 29L24 30L26 30L26 31L27 31L27 30L29 30L29 31L28 31L28 33L31 33L31 29L30 29L30 28L29 28L29 29L28 29L28 27L29 27L29 26L30 26L30 25L31 25L31 26L32 26L32 25L34 25L34 27L33 27L33 28L32 28L32 27L31 27L31 28L32 28L32 29L33 29L33 30L32 30L32 31L33 31L33 30L34 30L34 31L35 31L35 30L36 30L36 31L37 31L37 30L38 30L38 29L35 29L35 28L38 28L38 26L39 26L39 27L40 27L40 26L41 26L41 23L40 23L40 26L39 26L39 24L37 24L37 25L36 25L36 23L32 23L32 25L31 25L31 22L33 22L33 21L34 21L34 22L36 22L36 21L39 21L39 20L36 20L36 19L35 19L35 17L36 17L36 18L38 18L38 19L39 19L39 18L41 18L41 16L40 16L40 17L39 17L39 16L38 16L38 15L39 15L39 14L41 14L41 13L40 13L40 12L41 12L41 11L40 11L40 10L41 10L41 8L38 8L38 9L40 9L40 10L37 10L37 9L36 9L36 8L33 8L33 6L32 6L32 7L31 7L31 5L32 5L32 4L33 4L33 2L31 2L31 1L33 1L33 0L30 0L30 2L31 2L31 3L30 3L30 4L29 4L29 1L27 1L27 0L25 0L25 3L26 3L26 4L27 4L27 3L28 3L28 4L29 4L29 5L30 5L30 7L31 7L31 8L29 8L29 6L28 6L28 5L27 5L27 6L26 6L26 5L24 5L24 4L23 4L23 3L21 3L21 6L20 6L20 3L19 3L19 2L20 2L20 1L21 1L21 0L20 0L20 1L18 1L18 0L15 0L15 1L18 1L18 4L17 4L17 5L18 5L18 4L19 4L19 6L18 6L18 7L17 7L17 6L16 6L16 5L14 5L14 4L13 4L13 3L15 3L15 4L16 4L16 3L17 3L17 2L16 2L16 3L15 3L15 2L14 2L14 1L13 1L13 0L12 0L12 1L13 1L13 3L12 3L12 2L11 2L11 1L10 1L10 0ZM23 0L23 1L22 1L22 2L23 2L23 1L24 1L24 0ZM26 2L26 3L27 3L27 2ZM31 3L31 4L30 4L30 5L31 5L31 4L32 4L32 3ZM22 4L22 5L23 5L23 7L22 7L22 6L21 6L21 7L20 7L20 6L19 6L19 7L18 7L18 8L17 8L17 7L16 7L16 6L15 6L15 7L14 7L14 5L13 5L13 7L12 7L12 6L11 6L11 7L10 7L10 5L9 5L9 7L10 7L10 8L9 8L9 9L8 9L8 10L7 10L7 11L6 11L6 12L7 12L7 11L8 11L8 10L9 10L9 11L11 11L11 12L8 12L8 13L4 13L4 12L3 12L3 10L1 10L1 11L2 11L2 14L3 14L3 16L1 16L1 20L2 20L2 19L3 19L3 21L4 21L4 22L9 22L9 21L10 21L10 22L11 22L11 23L12 23L12 21L13 21L13 19L14 19L14 18L15 18L15 19L16 19L16 20L15 20L15 21L14 21L14 22L13 22L13 23L14 23L14 24L15 24L15 27L14 27L14 28L17 28L17 29L16 29L16 30L14 30L14 31L13 31L13 32L12 32L12 33L13 33L13 34L14 34L14 33L15 33L15 32L16 32L16 30L19 30L19 31L20 31L20 29L22 29L22 28L23 28L23 27L24 27L24 24L25 24L25 23L27 23L27 22L30 22L30 21L33 21L33 20L34 20L34 21L36 21L36 20L35 20L35 19L34 19L34 18L31 18L31 17L30 17L30 19L31 19L31 20L29 20L29 19L28 19L28 20L29 20L29 21L22 21L22 20L20 20L20 19L19 19L19 18L20 18L20 17L21 17L21 18L24 18L24 19L23 19L23 20L25 20L25 14L26 14L26 16L27 16L27 12L28 12L28 11L29 11L29 12L31 12L31 14L32 14L32 15L33 15L33 16L32 16L32 17L33 17L33 16L34 16L34 17L35 17L35 14L36 14L36 13L38 13L38 14L37 14L37 15L38 15L38 14L39 14L39 11L38 11L38 12L35 12L35 11L37 11L37 10L36 10L36 9L35 9L35 10L34 10L34 9L32 9L32 8L31 8L31 9L26 9L26 10L25 10L25 9L24 9L24 5L23 5L23 4ZM25 6L25 7L26 7L26 6ZM27 6L27 8L28 8L28 6ZM13 7L13 9L15 9L15 10L16 10L16 11L15 11L15 12L14 12L14 10L13 10L13 11L12 11L12 9L11 9L11 8L10 8L10 10L11 10L11 11L12 11L12 12L11 12L11 14L10 14L10 15L9 15L9 13L8 13L8 15L9 15L9 17L8 17L8 16L6 16L6 17L5 17L5 18L4 18L4 16L3 16L3 18L4 18L4 19L5 19L5 20L6 20L6 21L7 21L7 20L6 20L6 19L7 19L7 18L6 18L6 17L8 17L8 18L9 18L9 19L10 19L10 21L11 21L11 19L13 19L13 18L14 18L14 17L15 17L15 18L16 18L16 19L17 19L17 21L16 21L16 22L15 22L15 23L17 23L17 25L16 25L16 27L17 27L17 28L18 28L18 29L19 29L19 26L18 26L18 27L17 27L17 25L18 25L18 24L19 24L19 25L21 25L21 26L22 26L22 27L23 27L23 26L22 26L22 24L24 24L24 22L23 22L23 23L22 23L22 24L21 24L21 22L20 22L20 20L19 20L19 19L18 19L18 16L19 16L19 17L20 17L20 15L21 15L21 16L23 16L23 15L22 15L22 14L23 14L23 13L22 13L22 12L23 12L23 11L24 11L24 9L23 9L23 10L22 10L22 9L21 9L21 8L22 8L22 7L21 7L21 8L20 8L20 7L19 7L19 8L18 8L18 9L16 9L16 7L15 7L15 8L14 8L14 7ZM19 8L19 9L18 9L18 11L19 11L19 12L18 12L18 13L17 13L17 12L15 12L15 13L14 13L14 14L13 14L13 15L12 15L12 14L11 14L11 15L12 15L12 16L11 16L11 18L12 18L12 16L13 16L13 17L14 17L14 16L13 16L13 15L14 15L14 14L15 14L15 16L17 16L17 15L20 15L20 11L22 11L22 10L21 10L21 9L20 9L20 8ZM19 9L19 10L20 10L20 9ZM31 9L31 10L32 10L32 11L31 11L31 12L33 12L33 13L32 13L32 14L33 14L33 15L34 15L34 14L33 14L33 13L34 13L34 12L33 12L33 11L34 11L34 10L32 10L32 9ZM27 10L27 11L28 11L28 10ZM29 10L29 11L30 11L30 10ZM25 11L25 12L24 12L24 13L25 13L25 12L26 12L26 11ZM12 12L12 13L13 13L13 12ZM15 13L15 14L16 14L16 13ZM28 13L28 14L29 14L29 15L28 15L28 17L27 17L27 18L29 18L29 16L31 16L31 15L30 15L30 13ZM6 14L6 15L7 15L7 14ZM36 16L36 17L38 17L38 18L39 18L39 17L38 17L38 16ZM9 17L9 18L10 18L10 17ZM16 17L16 18L17 18L17 17ZM32 19L32 20L33 20L33 19ZM8 20L8 21L9 21L9 20ZM18 20L18 22L17 22L17 23L18 23L18 22L19 22L19 23L20 23L20 22L19 22L19 20ZM40 20L40 21L41 21L41 20ZM1 22L1 23L2 23L2 24L3 24L3 23L2 23L2 22ZM38 22L38 23L39 23L39 22ZM6 23L6 24L7 24L7 25L5 25L5 26L4 26L4 27L6 27L6 28L3 28L3 29L6 29L6 30L7 30L7 29L9 29L9 27L8 27L8 26L9 26L9 25L10 25L10 24L9 24L9 23L8 23L8 24L7 24L7 23ZM29 23L29 24L30 24L30 23ZM0 24L0 25L1 25L1 24ZM8 24L8 25L9 25L9 24ZM26 24L26 25L25 25L25 26L26 26L26 25L27 25L27 26L29 26L29 25L27 25L27 24ZM34 24L34 25L35 25L35 27L36 27L36 25L35 25L35 24ZM12 25L12 26L14 26L14 25ZM6 26L6 27L7 27L7 26ZM6 28L6 29L7 29L7 28ZM33 28L33 29L34 29L34 30L35 30L35 29L34 29L34 28ZM39 28L39 31L40 31L40 32L41 32L41 31L40 31L40 30L41 30L41 29L40 29L40 28ZM0 29L0 33L1 33L1 29ZM29 29L29 30L30 30L30 29ZM14 31L14 32L15 32L15 31ZM29 31L29 32L30 32L30 31ZM6 32L6 33L7 33L7 32ZM33 33L33 36L36 36L36 33ZM11 34L11 35L12 35L12 34ZM34 34L34 35L35 35L35 34ZM16 35L16 36L17 36L17 38L19 38L19 36L17 36L17 35ZM27 36L27 37L29 37L29 36ZM31 36L31 37L32 37L32 36ZM37 36L37 37L38 37L38 36ZM14 37L14 38L16 38L16 37ZM34 37L34 38L36 38L36 37ZM28 39L28 40L30 40L30 39ZM31 39L31 40L32 40L32 39ZM0 0L0 7L7 7L7 0ZM1 1L1 6L6 6L6 1ZM2 2L2 5L5 5L5 2ZM34 0L34 7L41 7L41 0ZM35 1L35 6L40 6L40 1ZM36 2L36 5L39 5L39 2ZM0 34L0 41L7 41L7 34ZM1 35L1 40L6 40L6 35ZM2 36L2 39L5 39L5 36Z" fill="#000000"/></g></g></svg>
