<?xml version="1.0" encoding="UTF-8"?>
<svg xmlns="http://www.w3.org/2000/svg" version="1.1" width="200" height="200" viewBox="0 0 200 200"><rect x="0" y="0" width="200" height="200" fill="#ffffff"/><g transform="scale(6.897)"><g transform="translate(0,0)"><path fill-rule="evenodd" d="M10 0L10 2L9 2L9 1L8 1L8 7L9 7L9 4L10 4L10 5L13 5L13 6L12 6L12 8L13 8L13 6L14 6L14 9L12 9L12 10L10 10L10 9L11 9L11 6L10 6L10 8L5 8L5 11L7 11L7 10L10 10L10 11L8 11L8 12L6 12L6 13L2 13L2 14L5 14L5 15L2 15L2 16L0 16L0 17L2 17L2 18L0 18L0 19L2 19L2 18L3 18L3 19L4 19L4 18L5 18L5 17L7 17L7 18L6 18L6 19L5 19L5 20L4 20L4 21L5 21L5 20L6 20L6 21L7 21L7 20L8 20L8 24L10 24L10 26L8 26L8 27L10 27L10 28L9 28L9 29L11 29L11 27L12 27L12 26L14 26L14 27L13 27L13 28L14 28L14 27L16 27L16 29L17 29L17 28L19 28L19 26L20 26L20 27L21 27L21 29L22 29L22 28L24 28L24 29L29 29L29 26L26 26L26 25L28 25L28 24L29 24L29 22L28 22L28 21L27 21L27 19L26 19L26 18L28 18L28 19L29 19L29 18L28 18L28 17L29 17L29 16L27 16L27 17L25 17L25 16L22 16L22 15L25 15L25 14L26 14L26 13L27 13L27 15L29 15L29 14L28 14L28 13L29 13L29 12L27 12L27 11L29 11L29 9L28 9L28 8L23 8L23 10L22 10L22 11L21 11L21 9L22 9L22 8L21 8L21 0L19 0L19 1L20 1L20 2L19 2L19 3L20 3L20 5L19 5L19 4L18 4L18 5L17 5L17 3L18 3L18 2L17 2L17 1L18 1L18 0L16 0L16 2L17 2L17 3L15 3L15 4L11 4L11 3L10 3L10 2L12 2L12 3L14 3L14 2L12 2L12 1L11 1L11 0ZM13 0L13 1L14 1L14 0ZM15 4L15 5L16 5L16 6L15 6L15 7L16 7L16 6L17 6L17 7L18 7L18 9L16 9L16 10L15 10L15 9L14 9L14 10L12 10L12 11L10 11L10 12L11 12L11 13L12 13L12 15L13 15L13 17L14 17L14 14L15 14L15 13L16 13L16 15L15 15L15 17L19 17L19 18L18 18L18 19L19 19L19 20L22 20L22 19L21 19L21 15L19 15L19 16L16 16L16 15L17 15L17 14L18 14L18 12L19 12L19 14L22 14L22 12L21 12L21 13L20 13L20 12L19 12L19 11L20 11L20 9L19 9L19 7L20 7L20 6L19 6L19 7L18 7L18 6L17 6L17 5L16 5L16 4ZM2 8L2 9L1 9L1 11L0 11L0 13L1 13L1 11L2 11L2 10L4 10L4 9L3 9L3 8ZM6 9L6 10L7 10L7 9ZM25 9L25 10L24 10L24 11L26 11L26 10L28 10L28 9ZM17 10L17 11L15 11L15 12L13 12L13 11L12 11L12 12L13 12L13 13L15 13L15 12L16 12L16 13L17 13L17 11L19 11L19 10ZM8 12L8 14L7 14L7 13L6 13L6 14L7 14L7 15L5 15L5 16L3 16L3 17L5 17L5 16L10 16L10 17L11 17L11 18L10 18L10 19L11 19L11 20L9 20L9 19L8 19L8 20L9 20L9 23L10 23L10 24L11 24L11 25L13 25L13 24L14 24L14 22L12 22L12 24L11 24L11 21L14 21L14 20L16 20L16 21L15 21L15 22L16 22L16 21L17 21L17 18L16 18L16 19L15 19L15 18L14 18L14 20L12 20L12 19L13 19L13 18L12 18L12 16L10 16L10 13L9 13L9 12ZM23 12L23 14L25 14L25 13L24 13L24 12ZM0 14L0 15L1 15L1 14ZM19 16L19 17L20 17L20 16ZM8 17L8 18L9 18L9 17ZM22 17L22 18L25 18L25 17ZM11 18L11 19L12 19L12 18ZM19 18L19 19L20 19L20 18ZM6 19L6 20L7 20L7 19ZM23 19L23 20L26 20L26 19ZM0 20L0 21L3 21L3 20ZM19 21L19 22L18 22L18 24L17 24L17 25L18 25L18 24L20 24L20 23L19 23L19 22L20 22L20 21ZM21 21L21 24L24 24L24 21ZM26 21L26 23L25 23L25 25L21 25L21 26L22 26L22 27L23 27L23 26L24 26L24 28L26 28L26 27L25 27L25 25L26 25L26 24L27 24L27 21ZM22 22L22 23L23 23L23 22ZM15 23L15 24L16 24L16 23ZM10 26L10 27L11 27L11 26ZM16 26L16 27L18 27L18 26ZM27 27L27 28L28 28L28 27ZM0 0L0 7L7 7L7 0ZM1 1L1 6L6 6L6 1ZM2 2L2 5L5 5L5 2ZM22 0L22 7L29 7L29 0ZM23 1L23 6L28 6L28 1ZM24 2L24 5L27 5L27 2ZM0 22L0 29L7 29L7 22ZM1 23L1 28L6 28L6 23ZM2 24L2 27L5 27L5 24Z" fill="#000000"/></g></g></svg>
