<?xml version="1.0" encoding="UTF-8"?>
<svg xmlns="http://www.w3.org/2000/svg" version="1.1" width="200" height="200" viewBox="0 0 200 200"><rect x="0" y="0" width="200" height="200" fill="#ffffff"/><g transform="scale(6.897)"><g transform="translate(0,0)"><path fill-rule="evenodd" d="M10 0L10 2L9 2L9 1L8 1L8 2L9 2L9 3L10 3L10 2L11 2L11 4L13 4L13 3L14 3L14 4L15 4L15 5L14 5L14 8L13 8L13 6L12 6L12 7L11 7L11 5L10 5L10 4L9 4L9 5L8 5L8 8L4 8L4 9L1 9L1 10L0 10L0 12L1 12L1 13L0 13L0 16L1 16L1 15L2 15L2 16L3 16L3 17L2 17L2 20L0 20L0 21L4 21L4 20L5 20L5 21L8 21L8 25L9 25L9 27L11 27L11 29L15 29L15 27L13 27L13 26L19 26L19 28L16 28L16 29L22 29L22 28L23 28L23 29L27 29L27 28L28 28L28 27L29 27L29 26L27 26L27 27L25 27L25 21L26 21L26 23L27 23L27 24L26 24L26 25L27 25L27 24L28 24L28 25L29 25L29 22L28 22L28 23L27 23L27 21L29 21L29 19L26 19L26 18L25 18L25 20L24 20L24 18L21 18L21 19L20 19L20 17L23 17L23 16L24 16L24 14L25 14L25 15L27 15L27 16L29 16L29 14L27 14L27 12L29 12L29 9L28 9L28 8L27 8L27 9L24 9L24 8L22 8L22 9L24 9L24 10L22 10L22 11L23 11L23 13L22 13L22 12L18 12L18 13L17 13L17 12L16 12L16 11L17 11L17 10L18 10L18 9L19 9L19 10L20 10L20 11L21 11L21 9L19 9L19 8L21 8L21 6L20 6L20 7L19 7L19 4L20 4L20 5L21 5L21 1L20 1L20 0L18 0L18 2L17 2L17 1L16 1L16 2L17 2L17 3L15 3L15 0L14 0L14 1L13 1L13 3L12 3L12 2L11 2L11 1L12 1L12 0ZM19 1L19 2L20 2L20 1ZM18 3L18 4L16 4L16 6L15 6L15 7L16 7L16 9L15 9L15 8L14 8L14 9L13 9L13 8L12 8L12 11L10 11L10 8L11 8L11 7L10 7L10 5L9 5L9 7L10 7L10 8L8 8L8 11L9 11L9 12L11 12L11 13L12 13L12 14L13 14L13 13L14 13L14 12L13 12L13 13L12 13L12 11L14 11L14 10L15 10L15 11L16 11L16 9L18 9L18 8L17 8L17 7L18 7L18 4L19 4L19 3ZM16 6L16 7L17 7L17 6ZM4 9L4 10L3 10L3 11L1 11L1 12L3 12L3 16L4 16L4 17L3 17L3 19L4 19L4 18L5 18L5 19L6 19L6 20L8 20L8 21L9 21L9 20L8 20L8 18L7 18L7 17L6 17L6 18L5 18L5 15L6 15L6 16L7 16L7 15L6 15L6 14L8 14L8 15L9 15L9 16L8 16L8 17L10 17L10 18L11 18L11 19L10 19L10 21L11 21L11 22L12 22L12 21L13 21L13 22L14 22L14 24L12 24L12 23L9 23L9 25L10 25L10 26L11 26L11 27L12 27L12 28L13 28L13 27L12 27L12 26L11 26L11 25L10 25L10 24L12 24L12 25L14 25L14 24L15 24L15 25L16 25L16 24L17 24L17 25L18 25L18 24L20 24L20 22L19 22L19 21L20 21L20 20L19 20L19 19L18 19L18 22L16 22L16 23L15 23L15 21L17 21L17 20L16 20L16 19L17 19L17 18L18 18L18 17L19 17L19 16L21 16L21 15L22 15L22 16L23 16L23 14L24 14L24 13L23 13L23 14L22 14L22 13L21 13L21 14L19 14L19 13L18 13L18 14L15 14L15 15L12 15L12 16L13 16L13 17L12 17L12 18L11 18L11 14L10 14L10 13L8 13L8 12L7 12L7 11L6 11L6 10L7 10L7 9L6 9L6 10L5 10L5 9ZM27 9L27 10L28 10L28 9ZM4 10L4 11L5 11L5 10ZM24 10L24 12L25 12L25 10ZM4 12L4 15L5 15L5 13L7 13L7 12ZM15 12L15 13L16 13L16 12ZM1 13L1 14L2 14L2 13ZM25 13L25 14L26 14L26 13ZM15 15L15 16L14 16L14 17L13 17L13 18L12 18L12 19L14 19L14 18L15 18L15 16L16 16L16 15ZM17 15L17 17L18 17L18 15ZM0 17L0 18L1 18L1 17ZM27 17L27 18L28 18L28 17ZM6 18L6 19L7 19L7 18ZM22 19L22 20L23 20L23 19ZM11 20L11 21L12 21L12 20ZM21 21L21 24L24 24L24 21ZM18 22L18 23L17 23L17 24L18 24L18 23L19 23L19 22ZM22 22L22 23L23 23L23 22ZM19 25L19 26L20 26L20 28L21 28L21 26L22 26L22 27L23 27L23 28L25 28L25 27L23 27L23 26L24 26L24 25ZM9 28L9 29L10 29L10 28ZM0 0L0 7L7 7L7 0ZM1 1L1 6L6 6L6 1ZM2 2L2 5L5 5L5 2ZM22 0L22 7L29 7L29 0ZM23 1L23 6L28 6L28 1ZM24 2L24 5L27 5L27 2ZM0 22L0 29L7 29L7 22ZM1 23L1 28L6 28L6 23ZM2 24L2 27L5 27L5 24Z" fill="#000000"/></g></g></svg>
