<?xml version="1.0" encoding="UTF-8"?>
<svg xmlns="http://www.w3.org/2000/svg" version="1.1" width="200" height="200" viewBox="0 0 200 200"><rect x="0" y="0" width="200" height="200" fill="#ffffff"/><g transform="scale(6.897)"><g transform="translate(0,0)"><path fill-rule="evenodd" d="M9 0L9 1L10 1L10 0ZM14 0L14 1L11 1L11 2L10 2L10 3L11 3L11 4L9 4L9 2L8 2L8 4L9 4L9 6L8 6L8 7L9 7L9 9L10 9L10 8L11 8L11 6L10 6L10 5L11 5L11 4L12 4L12 9L11 9L11 10L8 10L8 8L6 8L6 9L7 9L7 10L5 10L5 8L3 8L3 9L0 9L0 12L1 12L1 13L0 13L0 14L3 14L3 15L2 15L2 16L3 16L3 17L2 17L2 18L1 18L1 15L0 15L0 21L8 21L8 23L9 23L9 24L8 24L8 26L9 26L9 24L10 24L10 23L11 23L11 24L12 24L12 25L10 25L10 27L11 27L11 26L12 26L12 28L11 28L11 29L12 29L12 28L13 28L13 29L14 29L14 28L15 28L15 26L16 26L16 27L18 27L18 29L20 29L20 28L21 28L21 29L23 29L23 28L24 28L24 29L25 29L25 27L26 27L26 25L29 25L29 24L28 24L28 23L29 23L29 21L28 21L28 22L27 22L27 21L26 21L26 20L27 20L27 18L28 18L28 19L29 19L29 17L28 17L28 16L29 16L29 15L27 15L27 13L29 13L29 11L28 11L28 10L27 10L27 8L25 8L25 9L26 9L26 10L25 10L25 12L24 12L24 16L23 16L23 12L22 12L22 11L21 11L21 10L19 10L19 9L17 9L17 10L16 10L16 9L15 9L15 6L16 6L16 7L17 7L17 8L19 8L19 6L20 6L20 8L21 8L21 4L19 4L19 3L20 3L20 1L21 1L21 0L19 0L19 1L18 1L18 0L17 0L17 1L16 1L16 0ZM17 1L17 3L16 3L16 2L14 2L14 4L17 4L17 5L16 5L16 6L17 6L17 7L18 7L18 6L19 6L19 4L18 4L18 3L19 3L19 2L18 2L18 1ZM12 2L12 4L13 4L13 2ZM9 6L9 7L10 7L10 6ZM13 6L13 7L14 7L14 6ZM13 8L13 9L12 9L12 10L11 10L11 12L9 12L9 11L8 11L8 10L7 10L7 11L5 11L5 10L4 10L4 9L3 9L3 10L4 10L4 11L5 11L5 14L4 14L4 15L5 15L5 14L7 14L7 15L6 15L6 16L7 16L7 15L8 15L8 13L11 13L11 12L12 12L12 11L13 11L13 13L12 13L12 14L9 14L9 15L10 15L10 16L9 16L9 18L8 18L8 19L4 19L4 18L5 18L5 16L4 16L4 18L2 18L2 20L8 20L8 21L12 21L12 22L11 22L11 23L12 23L12 24L13 24L13 25L12 25L12 26L13 26L13 25L14 25L14 26L15 26L15 25L14 25L14 23L13 23L13 22L15 22L15 24L16 24L16 25L18 25L18 27L19 27L19 28L20 28L20 27L21 27L21 26L22 26L22 28L23 28L23 27L25 27L25 26L24 26L24 25L18 25L18 24L17 24L17 23L16 23L16 22L17 22L17 20L18 20L18 21L19 21L19 22L18 22L18 23L19 23L19 24L20 24L20 21L19 21L19 18L20 18L20 19L21 19L21 20L22 20L22 19L21 19L21 16L20 16L20 15L21 15L21 14L22 14L22 12L21 12L21 14L20 14L20 15L19 15L19 14L18 14L18 12L17 12L17 11L19 11L19 10L17 10L17 11L15 11L15 12L17 12L17 14L16 14L16 13L15 13L15 14L14 14L14 16L15 16L15 17L13 17L13 18L14 18L14 19L15 19L15 17L16 17L16 16L18 16L18 17L19 17L19 18L16 18L16 19L17 19L17 20L12 20L12 16L13 16L13 13L14 13L14 10L15 10L15 9L14 9L14 8ZM22 9L22 10L23 10L23 11L24 11L24 9ZM26 10L26 11L27 11L27 12L28 12L28 11L27 11L27 10ZM1 11L1 12L3 12L3 11ZM6 12L6 13L7 13L7 12ZM19 12L19 13L20 13L20 12ZM25 13L25 16L26 16L26 17L27 17L27 16L26 16L26 13ZM15 14L15 15L16 15L16 14ZM17 14L17 15L18 15L18 14ZM11 15L11 16L12 16L12 15ZM22 16L22 17L23 17L23 16ZM6 17L6 18L7 18L7 17ZM10 18L10 19L8 19L8 20L10 20L10 19L11 19L11 18ZM25 18L25 20L26 20L26 18ZM23 19L23 20L24 20L24 19ZM15 21L15 22L16 22L16 21ZM21 21L21 24L24 24L24 21ZM9 22L9 23L10 23L10 22ZM22 22L22 23L23 23L23 22ZM25 22L25 25L26 25L26 24L27 24L27 22ZM27 26L27 27L29 27L29 26ZM13 27L13 28L14 28L14 27ZM9 28L9 29L10 29L10 28ZM16 28L16 29L17 29L17 28ZM26 28L26 29L28 29L28 28ZM0 0L0 7L7 7L7 0ZM1 1L1 6L6 6L6 1ZM2 2L2 5L5 5L5 2ZM22 0L22 7L29 7L29 0ZM23 1L23 6L28 6L28 1ZM24 2L24 5L27 5L27 2ZM0 22L0 29L7 29L7 22ZM1 23L1 28L6 28L6 23ZM2 24L2 27L5 27L5 24Z" fill="#000000"/></g></g></svg>
