<?xml version="1.0" encoding="UTF-8"?>
<svg xmlns="http://www.w3.org/2000/svg" version="1.1" width="200" height="200" viewBox="0 0 200 200"><rect x="0" y="0" width="200" height="200" fill="#ffffff"/><g transform="scale(6.897)"><g transform="translate(0,0)"><path fill-rule="evenodd" d="M9 0L9 2L13 2L13 3L10 3L10 4L8 4L8 5L10 5L10 7L9 7L9 6L8 6L8 8L6 8L6 9L7 9L7 10L6 10L6 11L5 11L5 9L4 9L4 8L2 8L2 10L4 10L4 11L3 11L3 12L4 12L4 13L2 13L2 12L1 12L1 13L0 13L0 14L3 14L3 15L4 15L4 17L3 17L3 16L2 16L2 17L1 17L1 15L0 15L0 17L1 17L1 18L0 18L0 19L1 19L1 18L2 18L2 17L3 17L3 19L4 19L4 20L5 20L5 21L7 21L7 20L8 20L8 18L9 18L9 19L10 19L10 20L9 20L9 21L8 21L8 23L9 23L9 24L10 24L10 23L9 23L9 21L10 21L10 22L11 22L11 23L12 23L12 24L11 24L11 25L12 25L12 26L13 26L13 24L16 24L16 22L17 22L17 21L16 21L16 20L15 20L15 19L17 19L17 20L18 20L18 21L20 21L20 23L19 23L19 22L18 22L18 23L17 23L17 25L16 25L16 26L14 26L14 27L13 27L13 28L12 28L12 27L11 27L11 28L10 28L10 26L9 26L9 25L8 25L8 27L9 27L9 29L11 29L11 28L12 28L12 29L14 29L14 27L18 27L18 28L17 28L17 29L18 29L18 28L19 28L19 29L20 29L20 28L19 28L19 26L20 26L20 25L23 25L23 26L24 26L24 27L22 27L22 29L23 29L23 28L25 28L25 27L26 27L26 29L27 29L27 28L29 28L29 26L28 26L28 27L26 27L26 26L24 26L24 25L26 25L26 23L25 23L25 22L26 22L26 19L27 19L27 18L29 18L29 17L26 17L26 16L25 16L25 15L24 15L24 16L23 16L23 17L21 17L21 18L20 18L20 17L19 17L19 15L20 15L20 14L21 14L21 13L20 13L20 12L22 12L22 9L23 9L23 13L22 13L22 15L23 15L23 14L24 14L24 13L25 13L25 14L26 14L26 15L27 15L27 16L28 16L28 15L29 15L29 14L28 14L28 15L27 15L27 13L28 13L28 12L29 12L29 11L28 11L28 12L27 12L27 10L29 10L29 9L25 9L25 8L24 8L24 9L23 9L23 8L21 8L21 3L20 3L20 2L18 2L18 1L17 1L17 0L16 0L16 2L15 2L15 1L14 1L14 0L11 0L11 1L10 1L10 0ZM13 1L13 2L14 2L14 1ZM16 2L16 3L17 3L17 4L14 4L14 3L13 3L13 4L14 4L14 6L13 6L13 7L12 7L12 4L10 4L10 5L11 5L11 7L10 7L10 8L9 8L9 9L8 9L8 10L7 10L7 11L6 11L6 12L5 12L5 13L4 13L4 15L6 15L6 16L7 16L7 17L4 17L4 19L5 19L5 20L7 20L7 19L6 19L6 18L8 18L8 16L7 16L7 15L6 15L6 14L8 14L8 15L10 15L10 14L12 14L12 13L13 13L13 15L12 15L12 18L11 18L11 17L10 17L10 18L11 18L11 19L12 19L12 20L13 20L13 22L12 22L12 23L13 23L13 22L14 22L14 23L15 23L15 22L16 22L16 21L14 21L14 19L15 19L15 18L16 18L16 17L17 17L17 16L16 16L16 14L18 14L18 13L17 13L17 12L16 12L16 11L12 11L12 10L13 10L13 9L12 9L12 8L13 8L13 7L14 7L14 8L15 8L15 9L16 9L16 8L15 8L15 7L16 7L16 6L15 6L15 5L19 5L19 7L18 7L18 6L17 6L17 9L18 9L18 8L19 8L19 10L17 10L17 11L19 11L19 12L20 12L20 11L19 11L19 10L20 10L20 9L21 9L21 8L19 8L19 7L20 7L20 5L19 5L19 4L20 4L20 3L19 3L19 4L18 4L18 2ZM14 6L14 7L15 7L15 6ZM11 7L11 8L10 8L10 9L9 9L9 10L12 10L12 9L11 9L11 8L12 8L12 7ZM24 9L24 10L25 10L25 9ZM0 10L0 11L1 11L1 10ZM9 11L9 12L6 12L6 13L5 13L5 14L6 14L6 13L8 13L8 14L10 14L10 13L11 13L11 11ZM25 11L25 13L27 13L27 12L26 12L26 11ZM13 12L13 13L15 13L15 14L14 14L14 15L13 15L13 16L14 16L14 17L13 17L13 18L14 18L14 17L15 17L15 14L16 14L16 12ZM19 13L19 14L20 14L20 13ZM24 16L24 17L23 17L23 18L22 18L22 19L21 19L21 20L22 20L22 19L24 19L24 20L25 20L25 19L26 19L26 17L25 17L25 16ZM17 18L17 19L18 19L18 20L20 20L20 18ZM24 18L24 19L25 19L25 18ZM1 20L1 21L3 21L3 20ZM27 20L27 24L28 24L28 25L29 25L29 21L28 21L28 20ZM21 21L21 24L24 24L24 21ZM22 22L22 23L23 23L23 22ZM18 23L18 25L20 25L20 24L19 24L19 23ZM15 28L15 29L16 29L16 28ZM0 0L0 7L7 7L7 0ZM1 1L1 6L6 6L6 1ZM2 2L2 5L5 5L5 2ZM22 0L22 7L29 7L29 0ZM23 1L23 6L28 6L28 1ZM24 2L24 5L27 5L27 2ZM0 22L0 29L7 29L7 22ZM1 23L1 28L6 28L6 23ZM2 24L2 27L5 27L5 24Z" fill="#000000"/></g></g></svg>
