<?xml version="1.0" encoding="UTF-8"?>
<svg xmlns="http://www.w3.org/2000/svg" version="1.1" width="200" height="200" viewBox="0 0 200 200"><rect x="0" y="0" width="200" height="200" fill="#ffffff"/><g transform="scale(4.878)"><g transform="translate(0,0)"><path fill-rule="evenodd" d="M8 0L8 1L9 1L9 2L8 2L8 3L9 3L9 4L8 4L8 5L9 5L9 6L8 6L8 8L11 8L11 9L7 9L7 8L5 8L5 9L1 9L1 10L0 10L0 14L1 14L1 12L2 12L2 13L3 13L3 14L2 14L2 16L1 16L1 15L0 15L0 23L1 23L1 22L2 22L2 23L4 23L4 24L3 24L3 27L0 27L0 33L1 33L1 31L2 31L2 32L4 32L4 31L7 31L7 32L6 32L6 33L8 33L8 34L9 34L9 35L8 35L8 36L9 36L9 35L10 35L10 37L11 37L11 39L12 39L12 35L15 35L15 34L16 34L16 35L17 35L17 37L18 37L18 36L19 36L19 35L21 35L21 34L23 34L23 35L24 35L24 37L26 37L26 38L25 38L25 39L24 39L24 38L23 38L23 39L22 39L22 41L24 41L24 40L25 40L25 41L26 41L26 38L27 38L27 41L31 41L31 40L32 40L32 39L31 39L31 38L33 38L33 41L34 41L34 40L36 40L36 39L37 39L37 40L38 40L38 39L40 39L40 40L41 40L41 39L40 39L40 38L41 38L41 35L40 35L40 34L39 34L39 32L41 32L41 29L40 29L40 30L38 30L38 29L36 29L36 28L35 28L35 27L37 27L37 28L39 28L39 27L40 27L40 28L41 28L41 27L40 27L40 26L41 26L41 25L39 25L39 24L37 24L37 23L38 23L38 22L41 22L41 20L40 20L40 19L41 19L41 15L40 15L40 14L41 14L41 11L40 11L40 9L41 9L41 8L40 8L40 9L39 9L39 8L38 8L38 10L37 10L37 8L36 8L36 9L35 9L35 8L34 8L34 9L35 9L35 10L34 10L34 12L35 12L35 13L36 13L36 14L37 14L37 15L36 15L36 16L35 16L35 15L34 15L34 14L32 14L32 17L30 17L30 16L31 16L31 13L32 13L32 12L33 12L33 11L32 11L32 12L31 12L31 10L32 10L32 9L30 9L30 8L32 8L32 7L33 7L33 6L32 6L32 7L31 7L31 6L30 6L30 5L32 5L32 4L30 4L30 5L28 5L28 8L26 8L26 7L27 7L27 4L28 4L28 3L31 3L31 2L30 2L30 1L29 1L29 0L28 0L28 2L26 2L26 4L24 4L24 3L25 3L25 1L26 1L26 0L25 0L25 1L24 1L24 0L21 0L21 1L19 1L19 4L18 4L18 5L19 5L19 4L20 4L20 3L21 3L21 6L20 6L20 7L19 7L19 6L18 6L18 7L17 7L17 6L16 6L16 7L15 7L15 6L14 6L14 7L13 7L13 5L12 5L12 7L13 7L13 8L11 8L11 5L9 5L9 4L11 4L11 3L12 3L12 4L14 4L14 5L15 5L15 4L14 4L14 3L15 3L15 1L14 1L14 0L12 0L12 1L11 1L11 0L10 0L10 1L9 1L9 0ZM32 0L32 3L33 3L33 0ZM12 1L12 3L13 3L13 2L14 2L14 1ZM16 1L16 3L18 3L18 1ZM21 1L21 2L22 2L22 1ZM23 1L23 2L24 2L24 1ZM9 2L9 3L11 3L11 2ZM22 3L22 4L23 4L23 3ZM16 4L16 5L17 5L17 4ZM22 5L22 6L21 6L21 8L16 8L16 10L13 10L13 9L11 9L11 10L13 10L13 11L16 11L16 12L17 12L17 11L18 11L18 13L16 13L16 14L15 14L15 12L13 12L13 13L14 13L14 14L13 14L13 15L12 15L12 17L9 17L9 20L10 20L10 21L11 21L11 22L10 22L10 23L9 23L9 21L8 21L8 18L7 18L7 17L6 17L6 18L4 18L4 16L5 16L5 15L3 15L3 16L2 16L2 17L1 17L1 18L2 18L2 19L1 19L1 21L2 21L2 22L3 22L3 21L2 21L2 19L3 19L3 20L5 20L5 21L6 21L6 22L7 22L7 21L8 21L8 23L5 23L5 24L9 24L9 25L8 25L8 26L7 26L7 25L6 25L6 26L7 26L7 27L5 27L5 26L4 26L4 27L5 27L5 28L3 28L3 29L2 29L2 28L1 28L1 29L2 29L2 31L4 31L4 30L8 30L8 32L9 32L9 34L10 34L10 35L12 35L12 34L10 34L10 33L11 33L11 31L9 31L9 29L10 29L10 30L13 30L13 31L12 31L12 33L13 33L13 31L15 31L15 32L14 32L14 33L15 33L15 32L16 32L16 34L17 34L17 33L18 33L18 34L19 34L19 32L17 32L17 31L19 31L19 30L21 30L21 31L20 31L20 32L21 32L21 31L22 31L22 33L23 33L23 31L22 31L22 30L24 30L24 29L22 29L22 28L23 28L23 27L20 27L20 26L19 26L19 28L18 28L18 27L17 27L17 26L16 26L16 25L21 25L21 26L22 26L22 25L21 25L21 22L22 22L22 21L23 21L23 22L25 22L25 20L26 20L26 19L25 19L25 18L27 18L27 17L28 17L28 19L27 19L27 20L29 20L29 23L25 23L25 24L27 24L27 25L28 25L28 24L29 24L29 25L30 25L30 26L28 26L28 27L26 27L26 28L27 28L27 30L28 30L28 31L24 31L24 33L25 33L25 34L24 34L24 35L25 35L25 36L26 36L26 35L27 35L27 34L26 34L26 33L27 33L27 32L28 32L28 39L29 39L29 40L30 40L30 37L31 37L31 36L32 36L32 35L31 35L31 34L30 34L30 35L31 35L31 36L30 36L30 37L29 37L29 32L30 32L30 33L31 33L31 31L32 31L32 29L33 29L33 28L31 28L31 27L32 27L32 26L31 26L31 25L30 25L30 24L33 24L33 26L34 26L34 27L35 27L35 26L36 26L36 25L37 25L37 24L36 24L36 23L35 23L35 22L36 22L36 21L35 21L35 18L36 18L36 20L39 20L39 21L40 21L40 20L39 20L39 19L40 19L40 16L39 16L39 17L38 17L38 16L36 16L36 17L35 17L35 16L34 16L34 17L32 17L32 18L33 18L33 19L32 19L32 20L31 20L31 19L29 19L29 18L30 18L30 17L29 17L29 16L30 16L30 15L29 15L29 14L30 14L30 9L29 9L29 10L28 10L28 11L29 11L29 14L28 14L28 13L27 13L27 14L26 14L26 15L23 15L23 14L21 14L21 13L19 13L19 10L20 10L20 9L21 9L21 10L22 10L22 13L24 13L24 12L25 12L25 11L26 11L26 12L27 12L27 11L26 11L26 10L25 10L25 9L24 9L24 10L23 10L23 9L21 9L21 8L24 8L24 5ZM9 6L9 7L10 7L10 6ZM22 6L22 7L23 7L23 6ZM25 6L25 7L26 7L26 6ZM29 6L29 8L30 8L30 6ZM14 7L14 9L15 9L15 7ZM5 9L5 10L4 10L4 11L3 11L3 13L4 13L4 12L5 12L5 13L6 13L6 14L7 14L7 15L6 15L6 16L8 16L8 14L9 14L9 13L11 13L11 14L12 14L12 11L10 11L10 12L9 12L9 11L8 11L8 10L7 10L7 9ZM17 9L17 10L18 10L18 9ZM1 10L1 11L2 11L2 10ZM5 10L5 12L6 12L6 13L7 13L7 12L8 12L8 13L9 13L9 12L8 12L8 11L7 11L7 10ZM6 11L6 12L7 12L7 11ZM20 11L20 12L21 12L21 11ZM38 11L38 12L39 12L39 11ZM36 12L36 13L37 13L37 14L38 14L38 15L39 15L39 13L37 13L37 12ZM14 15L14 17L12 17L12 19L10 19L10 20L13 20L13 21L12 21L12 22L11 22L11 23L10 23L10 24L11 24L11 23L12 23L12 22L13 22L13 25L14 25L14 26L13 26L13 27L12 27L12 25L11 25L11 27L12 27L12 28L10 28L10 29L13 29L13 30L14 30L14 29L15 29L15 30L16 30L16 28L17 28L17 27L16 27L16 26L15 26L15 25L16 25L16 24L17 24L17 23L16 23L16 22L15 22L15 21L18 21L18 22L21 22L21 20L20 20L20 19L22 19L22 20L23 20L23 21L24 21L24 20L25 20L25 19L24 19L24 18L25 18L25 17L26 17L26 16L24 16L24 18L22 18L22 16L21 16L21 15L20 15L20 16L19 16L19 15L18 15L18 16L16 16L16 15ZM27 15L27 16L28 16L28 15ZM15 16L15 17L16 17L16 16ZM18 16L18 17L19 17L19 18L17 18L17 20L18 20L18 19L20 19L20 18L21 18L21 16L20 16L20 17L19 17L19 16ZM34 17L34 18L35 18L35 17ZM36 17L36 18L37 18L37 19L39 19L39 18L38 18L38 17ZM3 18L3 19L4 19L4 18ZM6 18L6 19L5 19L5 20L6 20L6 21L7 21L7 20L6 20L6 19L7 19L7 18ZM13 18L13 20L14 20L14 21L13 21L13 22L14 22L14 24L15 24L15 22L14 22L14 21L15 21L15 20L16 20L16 19L15 19L15 18ZM23 19L23 20L24 20L24 19ZM33 19L33 22L32 22L32 21L31 21L31 20L30 20L30 21L31 21L31 22L30 22L30 23L31 23L31 22L32 22L32 23L34 23L34 26L35 26L35 23L34 23L34 19ZM26 21L26 22L27 22L27 21ZM37 21L37 22L38 22L38 21ZM18 23L18 24L19 24L19 23ZM23 23L23 24L24 24L24 23ZM40 23L40 24L41 24L41 23ZM0 24L0 25L1 25L1 26L2 26L2 25L1 25L1 24ZM23 25L23 26L24 26L24 28L25 28L25 25ZM14 26L14 27L13 27L13 29L14 29L14 27L15 27L15 28L16 28L16 27L15 27L15 26ZM38 26L38 27L39 27L39 26ZM28 27L28 29L30 29L30 30L29 30L29 31L31 31L31 29L30 29L30 28L29 28L29 27ZM5 28L5 29L7 29L7 28ZM8 28L8 29L9 29L9 28ZM34 28L34 30L33 30L33 31L34 31L34 32L36 32L36 31L37 31L37 32L39 32L39 31L38 31L38 30L36 30L36 29L35 29L35 28ZM3 29L3 30L4 30L4 29ZM18 29L18 30L19 30L19 29ZM25 29L25 30L26 30L26 29ZM25 32L25 33L26 33L26 32ZM20 33L20 34L21 34L21 33ZM33 33L33 36L36 36L36 33ZM37 33L37 37L39 37L39 38L40 38L40 37L39 37L39 36L40 36L40 35L38 35L38 33ZM25 34L25 35L26 35L26 34ZM34 34L34 35L35 35L35 34ZM14 36L14 37L13 37L13 40L14 40L14 41L16 41L16 40L15 40L15 39L14 39L14 37L15 37L15 38L16 38L16 39L17 39L17 41L19 41L19 40L21 40L21 39L20 39L20 38L22 38L22 36L21 36L21 37L20 37L20 38L19 38L19 39L17 39L17 38L16 38L16 37L15 37L15 36ZM34 37L34 38L36 38L36 37ZM37 38L37 39L38 39L38 38ZM9 39L9 40L10 40L10 39ZM23 39L23 40L24 40L24 39ZM0 0L0 7L7 7L7 0ZM1 1L1 6L6 6L6 1ZM2 2L2 5L5 5L5 2ZM34 0L34 7L41 7L41 0ZM35 1L35 6L40 6L40 1ZM36 2L36 5L39 5L39 2ZM0 34L0 41L7 41L7 34ZM1 35L1 40L6 40L6 35ZM2 36L2 39L5 39L5 36Z" fill="#000000"/></g></g></svg>
