<?xml version="1.0" encoding="UTF-8"?>
<svg xmlns="http://www.w3.org/2000/svg" version="1.1" width="200" height="200" viewBox="0 0 200 200"><rect x="0" y="0" width="200" height="200" fill="#ffffff"/><g transform="scale(4.878)"><g transform="translate(0,0)"><path fill-rule="evenodd" d="M8 0L8 1L9 1L9 0ZM10 0L10 2L8 2L8 3L10 3L10 4L11 4L11 6L10 6L10 7L9 7L9 6L8 6L8 8L9 8L9 9L7 9L7 8L5 8L5 10L6 10L6 11L4 11L4 10L3 10L3 9L2 9L2 10L1 10L1 11L0 11L0 15L1 15L1 14L2 14L2 15L3 15L3 14L2 14L2 12L3 12L3 13L4 13L4 12L6 12L6 13L5 13L5 14L6 14L6 15L8 15L8 16L10 16L10 14L11 14L11 13L12 13L12 16L13 16L13 17L12 17L12 18L11 18L11 19L10 19L10 18L8 18L8 17L7 17L7 16L4 16L4 17L3 17L3 16L0 16L0 17L2 17L2 18L4 18L4 19L5 19L5 21L7 21L7 22L6 22L6 23L7 23L7 22L8 22L8 24L9 24L9 26L6 26L6 27L4 27L4 26L5 26L5 22L4 22L4 21L3 21L3 19L1 19L1 18L0 18L0 20L2 20L2 22L1 22L1 24L0 24L0 25L2 25L2 26L1 26L1 27L0 27L0 28L1 28L1 29L0 29L0 33L1 33L1 31L4 31L4 30L5 30L5 29L7 29L7 30L6 30L6 31L5 31L5 32L4 32L4 33L8 33L8 34L10 34L10 35L11 35L11 38L15 38L15 39L14 39L14 41L15 41L15 39L16 39L16 41L17 41L17 40L18 40L18 41L19 41L19 40L20 40L20 41L22 41L22 40L23 40L23 39L24 39L24 41L27 41L27 39L28 39L28 40L29 40L29 41L30 41L30 40L29 40L29 39L31 39L31 40L32 40L32 39L31 39L31 38L33 38L33 41L34 41L34 40L36 40L36 39L37 39L37 38L38 38L38 40L39 40L39 39L40 39L40 40L41 40L41 39L40 39L40 38L41 38L41 36L40 36L40 34L39 34L39 33L40 33L40 31L41 31L41 29L40 29L40 28L41 28L41 27L40 27L40 26L41 26L41 25L36 25L36 26L37 26L37 27L35 27L35 24L36 24L36 23L35 23L35 24L34 24L34 19L33 19L33 20L31 20L31 19L32 19L32 18L33 18L33 17L34 17L34 18L35 18L35 20L36 20L36 21L35 21L35 22L36 22L36 21L37 21L37 22L41 22L41 20L40 20L40 19L41 19L41 15L40 15L40 14L41 14L41 13L40 13L40 12L38 12L38 11L40 11L40 9L41 9L41 8L40 8L40 9L39 9L39 8L38 8L38 10L37 10L37 8L36 8L36 9L35 9L35 8L34 8L34 9L35 9L35 10L37 10L37 11L36 11L36 12L34 12L34 10L33 10L33 8L31 8L31 5L32 5L32 7L33 7L33 5L32 5L32 4L31 4L31 3L32 3L32 2L31 2L31 1L30 1L30 0L28 0L28 2L27 2L27 1L25 1L25 3L26 3L26 2L27 2L27 4L28 4L28 7L29 7L29 5L30 5L30 8L27 8L27 5L26 5L26 4L24 4L24 0L19 0L19 1L18 1L18 2L19 2L19 1L20 1L20 3L16 3L16 2L17 2L17 1L16 1L16 2L15 2L15 4L13 4L13 3L14 3L14 2L13 2L13 0L12 0L12 4L11 4L11 3L10 3L10 2L11 2L11 0ZM14 0L14 1L15 1L15 0ZM32 0L32 1L33 1L33 0ZM21 1L21 3L20 3L20 4L15 4L15 8L14 8L14 6L13 6L13 5L12 5L12 6L11 6L11 7L12 7L12 6L13 6L13 8L11 8L11 9L9 9L9 10L8 10L8 11L6 11L6 12L7 12L7 13L6 13L6 14L7 14L7 13L8 13L8 14L10 14L10 13L11 13L11 9L14 9L14 10L15 10L15 11L13 11L13 13L14 13L14 14L15 14L15 13L17 13L17 12L18 12L18 13L19 13L19 12L20 12L20 14L21 14L21 12L25 12L25 13L22 13L22 15L20 15L20 16L22 16L22 15L23 15L23 16L25 16L25 18L24 18L24 17L22 17L22 18L21 18L21 17L20 17L20 18L17 18L17 17L15 17L15 15L14 15L14 17L13 17L13 18L12 18L12 19L14 19L14 17L15 17L15 19L16 19L16 20L14 20L14 21L15 21L15 23L14 23L14 22L13 22L13 21L12 21L12 20L11 20L11 21L12 21L12 22L11 22L11 23L12 23L12 24L13 24L13 25L11 25L11 24L10 24L10 25L11 25L11 26L12 26L12 27L13 27L13 29L12 29L12 28L10 28L10 30L9 30L9 27L8 27L8 28L7 28L7 27L6 27L6 28L7 28L7 29L8 29L8 30L9 30L9 31L10 31L10 32L9 32L9 33L10 33L10 34L12 34L12 35L13 35L13 36L12 36L12 37L13 37L13 36L15 36L15 37L17 37L17 39L18 39L18 40L19 40L19 39L18 39L18 37L17 37L17 36L16 36L16 35L18 35L18 36L20 36L20 35L21 35L21 33L20 33L20 32L21 32L21 31L20 31L20 30L21 30L21 28L18 28L18 30L17 30L17 33L18 33L18 34L16 34L16 32L14 32L14 31L16 31L16 30L14 30L14 29L15 29L15 28L16 28L16 29L17 29L17 27L15 27L15 26L16 26L16 25L17 25L17 24L19 24L19 25L18 25L18 26L20 26L20 27L22 27L22 32L23 32L23 33L22 33L22 35L25 35L25 37L22 37L22 36L21 36L21 37L22 37L22 38L21 38L21 39L20 39L20 40L22 40L22 39L23 39L23 38L26 38L26 39L25 39L25 40L26 40L26 39L27 39L27 38L26 38L26 37L27 37L27 36L28 36L28 38L31 38L31 37L29 37L29 36L32 36L32 35L30 35L30 33L32 33L32 32L33 32L33 31L34 31L34 32L36 32L36 31L38 31L38 32L37 32L37 33L38 33L38 32L39 32L39 31L38 31L38 30L40 30L40 29L39 29L39 28L35 28L35 27L34 27L34 24L33 24L33 22L31 22L31 23L30 23L30 21L31 21L31 20L29 20L29 19L31 19L31 17L30 17L30 18L29 18L29 16L31 16L31 15L29 15L29 16L28 16L28 15L27 15L27 16L26 16L26 14L30 14L30 11L27 11L27 8L26 8L26 9L24 9L24 8L25 8L25 7L26 7L26 6L25 6L25 7L24 7L24 4L23 4L23 3L22 3L22 2L23 2L23 1ZM29 1L29 4L30 4L30 5L31 5L31 4L30 4L30 3L31 3L31 2L30 2L30 1ZM21 3L21 5L20 5L20 7L21 7L21 6L22 6L22 8L24 8L24 7L23 7L23 6L22 6L22 5L23 5L23 4L22 4L22 3ZM8 4L8 5L9 5L9 4ZM17 5L17 6L16 6L16 8L15 8L15 9L16 9L16 12L17 12L17 11L20 11L20 12L21 12L21 11L25 11L25 10L21 10L21 8L20 8L20 9L19 9L19 8L18 8L18 7L19 7L19 5ZM17 6L17 7L18 7L18 6ZM16 8L16 9L17 9L17 10L18 10L18 9L17 9L17 8ZM30 8L30 9L29 9L29 10L30 10L30 9L31 9L31 8ZM6 9L6 10L7 10L7 9ZM20 10L20 11L21 11L21 10ZM31 10L31 11L33 11L33 10ZM1 11L1 12L2 12L2 11ZM3 11L3 12L4 12L4 11ZM8 12L8 13L9 13L9 12ZM14 12L14 13L15 13L15 12ZM27 12L27 13L28 13L28 12ZM36 12L36 13L34 13L34 15L35 15L35 16L34 16L34 17L35 17L35 18L36 18L36 20L39 20L39 21L40 21L40 20L39 20L39 19L40 19L40 16L39 16L39 17L38 17L38 16L36 16L36 15L38 15L38 14L39 14L39 13L37 13L37 12ZM25 13L25 14L26 14L26 13ZM31 13L31 14L32 14L32 17L33 17L33 14L32 14L32 13ZM36 13L36 14L35 14L35 15L36 15L36 14L37 14L37 13ZM17 14L17 16L18 16L18 17L19 17L19 16L18 16L18 15L19 15L19 14ZM23 14L23 15L24 15L24 14ZM27 16L27 19L26 19L26 18L25 18L25 19L26 19L26 20L25 20L25 21L24 21L24 18L23 18L23 19L22 19L22 20L23 20L23 21L21 21L21 20L20 20L20 21L19 21L19 23L20 23L20 24L21 24L21 25L22 25L22 26L24 26L24 29L23 29L23 32L24 32L24 33L23 33L23 34L26 34L26 31L25 31L25 32L24 32L24 30L26 30L26 29L28 29L28 31L27 31L27 32L28 32L28 33L27 33L27 35L28 35L28 36L29 36L29 33L30 33L30 32L31 32L31 31L32 31L32 30L30 30L30 29L31 29L31 28L29 28L29 29L28 29L28 28L26 28L26 27L29 27L29 26L30 26L30 25L31 25L31 26L32 26L32 24L30 24L30 25L29 25L29 26L28 26L28 24L29 24L29 23L28 23L28 22L29 22L29 20L28 20L28 19L29 19L29 18L28 18L28 16ZM35 16L35 17L36 17L36 18L37 18L37 17L36 17L36 16ZM4 17L4 18L5 18L5 19L6 19L6 20L7 20L7 21L8 21L8 20L9 20L9 21L10 21L10 20L9 20L9 19L8 19L8 18L7 18L7 17L6 17L6 18L5 18L5 17ZM6 18L6 19L7 19L7 18ZM16 18L16 19L17 19L17 20L18 20L18 19L17 19L17 18ZM26 20L26 21L27 21L27 20ZM2 22L2 24L3 24L3 26L4 26L4 23L3 23L3 22ZM9 22L9 23L10 23L10 22ZM16 22L16 24L15 24L15 25L16 25L16 24L17 24L17 22ZM20 22L20 23L23 23L23 24L22 24L22 25L25 25L25 26L26 26L26 25L27 25L27 24L28 24L28 23L27 23L27 22L25 22L25 23L23 23L23 22ZM13 23L13 24L14 24L14 23ZM39 23L39 24L41 24L41 23ZM6 24L6 25L7 25L7 24ZM25 24L25 25L26 25L26 24ZM13 26L13 27L14 27L14 26ZM38 26L38 27L39 27L39 26ZM2 27L2 29L1 29L1 30L4 30L4 29L3 29L3 28L4 28L4 27ZM25 28L25 29L26 29L26 28ZM32 28L32 29L33 29L33 28ZM34 28L34 29L35 29L35 31L36 31L36 30L37 30L37 29L35 29L35 28ZM19 29L19 30L18 30L18 32L19 32L19 30L20 30L20 29ZM10 30L10 31L11 31L11 32L10 32L10 33L12 33L12 34L14 34L14 33L12 33L12 30ZM13 30L13 31L14 31L14 30ZM6 31L6 32L7 32L7 31ZM29 31L29 32L30 32L30 31ZM33 33L33 36L36 36L36 33ZM15 34L15 35L16 35L16 34ZM18 34L18 35L20 35L20 34ZM34 34L34 35L35 35L35 34ZM37 34L37 35L38 35L38 38L40 38L40 36L39 36L39 34ZM8 35L8 36L9 36L9 37L10 37L10 36L9 36L9 35ZM34 37L34 38L36 38L36 37ZM9 39L9 40L10 40L10 41L11 41L11 40L12 40L12 41L13 41L13 39ZM0 0L0 7L7 7L7 0ZM1 1L1 6L6 6L6 1ZM2 2L2 5L5 5L5 2ZM34 0L34 7L41 7L41 0ZM35 1L35 6L40 6L40 1ZM36 2L36 5L39 5L39 2ZM0 34L0 41L7 41L7 34ZM1 35L1 40L6 40L6 35ZM2 36L2 39L5 39L5 36Z" fill="#000000"/></g></g></svg>
