<?xml version="1.0" encoding="UTF-8"?>
<svg xmlns="http://www.w3.org/2000/svg" version="1.1" width="200" height="200" viewBox="0 0 200 200"><rect x="0" y="0" width="200" height="200" fill="#ffffff"/><g transform="scale(4.878)"><g transform="translate(0,0)"><path fill-rule="evenodd" d="M8 0L8 3L9 3L9 4L10 4L10 3L9 3L9 0ZM10 0L10 2L11 2L11 6L10 6L10 5L8 5L8 9L9 9L9 10L8 10L8 13L7 13L7 12L6 12L6 11L7 11L7 10L6 10L6 9L7 9L7 8L6 8L6 9L5 9L5 8L2 8L2 9L5 9L5 10L3 10L3 11L5 11L5 12L4 12L4 13L3 13L3 12L2 12L2 10L1 10L1 9L0 9L0 11L1 11L1 14L0 14L0 15L1 15L1 16L0 16L0 17L1 17L1 18L4 18L4 21L3 21L3 22L2 22L2 20L3 20L3 19L1 19L1 20L0 20L0 21L1 21L1 23L0 23L0 25L1 25L1 24L2 24L2 25L3 25L3 26L5 26L5 25L8 25L8 26L6 26L6 27L5 27L5 28L4 28L4 27L3 27L3 28L1 28L1 29L0 29L0 33L1 33L1 30L3 30L3 31L2 31L2 32L3 32L3 33L5 33L5 31L4 31L4 29L5 29L5 30L6 30L6 31L9 31L9 32L6 32L6 33L8 33L8 34L10 34L10 35L9 35L9 36L8 36L8 39L10 39L10 41L12 41L12 39L10 39L10 38L12 38L12 37L13 37L13 36L14 36L14 35L15 35L15 34L18 34L18 33L19 33L19 35L18 35L18 36L19 36L19 37L21 37L21 38L18 38L18 37L17 37L17 36L15 36L15 37L14 37L14 38L13 38L13 39L14 39L14 41L15 41L15 39L16 39L16 38L18 38L18 40L19 40L19 39L20 39L20 40L21 40L21 39L23 39L23 41L26 41L26 40L28 40L28 39L30 39L30 38L31 38L31 37L30 37L30 38L27 38L27 37L26 37L26 36L28 36L28 37L29 37L29 36L31 36L31 35L32 35L32 37L36 37L36 38L33 38L33 39L32 39L32 40L31 40L31 41L32 41L32 40L33 40L33 41L34 41L34 40L33 40L33 39L35 39L35 40L36 40L36 39L37 39L37 40L40 40L40 38L41 38L41 37L39 37L39 36L37 36L37 35L38 35L38 34L37 34L37 33L39 33L39 35L40 35L40 34L41 34L41 33L39 33L39 32L40 32L40 30L41 30L41 29L39 29L39 30L38 30L38 31L39 31L39 32L37 32L37 29L36 29L36 28L38 28L38 26L39 26L39 28L40 28L40 26L41 26L41 23L39 23L39 22L38 22L38 21L39 21L39 20L36 20L36 19L35 19L35 17L36 17L36 18L37 18L37 19L38 19L38 17L39 17L39 16L37 16L37 15L36 15L36 14L37 14L37 13L36 13L36 14L35 14L35 15L36 15L36 16L35 16L35 17L34 17L34 16L33 16L33 17L31 17L31 16L29 16L29 15L28 15L28 16L29 16L29 17L31 17L31 18L30 18L30 19L31 19L31 20L30 20L30 21L31 21L31 22L27 22L27 21L29 21L29 18L27 18L27 19L28 19L28 20L27 20L27 21L26 21L26 22L24 22L24 23L23 23L23 21L25 21L25 20L23 20L23 19L22 19L22 18L21 18L21 16L19 16L19 15L21 15L21 13L19 13L19 12L20 12L20 11L21 11L21 10L22 10L22 11L24 11L24 12L22 12L22 14L23 14L23 13L24 13L24 15L22 15L22 16L23 16L23 17L24 17L24 19L25 19L25 18L26 18L26 17L24 17L24 15L26 15L26 16L27 16L27 15L26 15L26 14L25 14L25 13L27 13L27 14L29 14L29 13L30 13L30 14L31 14L31 13L33 13L33 14L32 14L32 15L34 15L34 13L35 13L35 9L36 9L36 10L37 10L37 11L36 11L36 12L38 12L38 11L39 11L39 14L41 14L41 13L40 13L40 12L41 12L41 11L40 11L40 10L41 10L41 8L38 8L38 9L40 9L40 10L37 10L37 9L36 9L36 8L32 8L32 7L33 7L33 6L32 6L32 7L31 7L31 5L33 5L33 4L30 4L30 5L27 5L27 4L26 4L26 5L27 5L27 6L26 6L26 7L27 7L27 9L31 9L31 10L29 10L29 11L31 11L31 10L32 10L32 11L33 11L33 12L29 12L29 13L28 13L28 12L25 12L25 11L26 11L26 8L25 8L25 6L24 6L24 8L23 8L23 9L24 9L24 8L25 8L25 10L22 10L22 7L23 7L23 6L22 6L22 5L23 5L23 4L22 4L22 3L23 3L23 2L24 2L24 4L25 4L25 2L24 2L24 1L25 1L25 0L24 0L24 1L23 1L23 2L22 2L22 0L20 0L20 1L19 1L19 2L17 2L17 1L18 1L18 0L17 0L17 1L16 1L16 0L14 0L14 1L16 1L16 2L17 2L17 3L16 3L16 4L15 4L15 3L14 3L14 2L13 2L13 4L15 4L15 5L14 5L14 7L13 7L13 5L12 5L12 2L11 2L11 0ZM26 0L26 1L27 1L27 2L26 2L26 3L28 3L28 4L29 4L29 3L31 3L31 2L30 2L30 0L29 0L29 1L27 1L27 0ZM31 0L31 1L32 1L32 2L33 2L33 1L32 1L32 0ZM20 1L20 2L19 2L19 5L16 5L16 6L15 6L15 7L16 7L16 8L12 8L12 6L11 6L11 7L10 7L10 6L9 6L9 7L10 7L10 10L11 10L11 11L9 11L9 12L14 12L14 14L15 14L15 15L14 15L14 16L13 16L13 18L14 18L14 19L16 19L16 18L17 18L17 21L16 21L16 20L12 20L12 19L11 19L11 18L12 18L12 17L10 17L10 19L9 19L9 16L8 16L8 15L9 15L9 14L10 14L10 15L11 15L11 16L12 16L12 15L13 15L13 14L12 14L12 13L8 13L8 15L6 15L6 16L5 16L5 13L6 13L6 14L7 14L7 13L6 13L6 12L5 12L5 13L4 13L4 14L3 14L3 13L2 13L2 14L1 14L1 15L2 15L2 14L3 14L3 15L4 15L4 16L2 16L2 17L4 17L4 16L5 16L5 18L7 18L7 19L5 19L5 20L7 20L7 21L6 21L6 22L7 22L7 21L11 21L11 22L10 22L10 23L9 23L9 22L8 22L8 23L9 23L9 24L8 24L8 25L9 25L9 26L8 26L8 28L7 28L7 27L6 27L6 28L5 28L5 29L6 29L6 30L8 30L8 28L9 28L9 29L10 29L10 30L11 30L11 29L10 29L10 28L11 28L11 27L10 27L10 26L12 26L12 24L13 24L13 23L15 23L15 25L13 25L13 27L12 27L12 28L15 28L15 29L13 29L13 31L11 31L11 32L10 32L10 34L11 34L11 35L10 35L10 36L9 36L9 37L11 37L11 35L12 35L12 36L13 36L13 35L12 35L12 34L14 34L14 33L11 33L11 32L13 32L13 31L14 31L14 30L16 30L16 31L17 31L17 32L16 32L16 33L17 33L17 32L19 32L19 33L20 33L20 30L21 30L21 34L20 34L20 36L21 36L21 35L22 35L22 30L21 30L21 29L22 29L22 28L23 28L23 26L22 26L22 25L21 25L21 24L23 24L23 23L22 23L22 21L19 21L19 22L21 22L21 23L19 23L19 24L20 24L20 25L18 25L18 24L17 24L17 22L18 22L18 18L17 18L17 17L18 17L18 16L16 16L16 13L15 13L15 12L16 12L16 11L17 11L17 9L16 9L16 8L17 8L17 7L18 7L18 6L19 6L19 8L20 8L20 6L21 6L21 7L22 7L22 6L21 6L21 5L20 5L20 2L21 2L21 1ZM17 3L17 4L18 4L18 3ZM19 5L19 6L20 6L20 5ZM16 6L16 7L17 7L17 6ZM27 6L27 7L28 7L28 8L31 8L31 9L32 9L32 10L33 10L33 11L34 11L34 9L32 9L32 8L31 8L31 7L30 7L30 6L29 6L29 7L28 7L28 6ZM11 8L11 9L12 9L12 8ZM19 9L19 11L18 11L18 12L19 12L19 11L20 11L20 10L21 10L21 9ZM5 10L5 11L6 11L6 10ZM12 10L12 11L14 11L14 12L15 12L15 11L16 11L16 10ZM27 10L27 11L28 11L28 10ZM33 12L33 13L34 13L34 12ZM17 13L17 15L18 15L18 13ZM6 16L6 17L7 17L7 16ZM15 16L15 17L14 17L14 18L15 18L15 17L16 17L16 16ZM36 16L36 17L37 17L37 16ZM40 16L40 18L39 18L39 19L40 19L40 18L41 18L41 16ZM19 17L19 19L20 19L20 17ZM31 18L31 19L32 19L32 18ZM33 18L33 20L31 20L31 21L33 21L33 22L31 22L31 23L32 23L32 24L31 24L31 25L30 25L30 26L28 26L28 25L29 25L29 24L30 24L30 23L28 23L28 25L27 25L27 26L28 26L28 27L25 27L25 26L24 26L24 27L25 27L25 29L27 29L27 28L28 28L28 27L29 27L29 28L31 28L31 29L28 29L28 30L29 30L29 31L28 31L28 32L31 32L31 31L30 31L30 30L32 30L32 31L33 31L33 32L36 32L36 29L35 29L35 28L36 28L36 25L39 25L39 26L40 26L40 24L39 24L39 23L37 23L37 24L36 24L36 23L35 23L35 22L36 22L36 21L35 21L35 19L34 19L34 18ZM7 19L7 20L8 20L8 19ZM21 19L21 20L22 20L22 19ZM11 20L11 21L12 21L12 20ZM33 20L33 21L34 21L34 22L33 22L33 24L32 24L32 25L31 25L31 26L32 26L32 28L33 28L33 29L32 29L32 30L33 30L33 29L34 29L34 28L33 28L33 27L34 27L34 26L35 26L35 25L36 25L36 24L35 24L35 23L34 23L34 22L35 22L35 21L34 21L34 20ZM40 20L40 21L41 21L41 20ZM4 22L4 24L5 24L5 22ZM11 22L11 24L9 24L9 25L11 25L11 24L12 24L12 23L13 23L13 22ZM15 22L15 23L16 23L16 22ZM26 22L26 23L25 23L25 24L24 24L24 25L25 25L25 24L26 24L26 23L27 23L27 22ZM2 23L2 24L3 24L3 23ZM6 23L6 24L7 24L7 23ZM16 24L16 25L17 25L17 24ZM34 24L34 25L32 25L32 26L34 26L34 25L35 25L35 24ZM20 25L20 27L19 27L19 29L16 29L16 30L19 30L19 29L21 29L21 28L22 28L22 27L21 27L21 25ZM0 26L0 27L1 27L1 26ZM14 26L14 27L16 27L16 28L17 28L17 26ZM6 28L6 29L7 29L7 28ZM24 30L24 31L23 31L23 33L25 33L25 32L24 32L24 31L25 31L25 30ZM34 30L34 31L35 31L35 30ZM3 31L3 32L4 32L4 31ZM26 32L26 33L27 33L27 34L28 34L28 36L29 36L29 33L27 33L27 32ZM30 33L30 35L31 35L31 33ZM33 33L33 36L36 36L36 33ZM23 34L23 35L24 35L24 36L23 36L23 37L24 37L24 38L23 38L23 39L24 39L24 40L25 40L25 35L24 35L24 34ZM34 34L34 35L35 35L35 34ZM15 37L15 38L16 38L16 37ZM26 38L26 39L27 39L27 38ZM37 38L37 39L38 39L38 38ZM29 40L29 41L30 41L30 40ZM0 0L0 7L7 7L7 0ZM1 1L1 6L6 6L6 1ZM2 2L2 5L5 5L5 2ZM34 0L34 7L41 7L41 0ZM35 1L35 6L40 6L40 1ZM36 2L36 5L39 5L39 2ZM0 34L0 41L7 41L7 34ZM1 35L1 40L6 40L6 35ZM2 36L2 39L5 39L5 36Z" fill="#000000"/></g></g></svg>
