<?xml version="1.0" encoding="UTF-8"?>
<svg xmlns="http://www.w3.org/2000/svg" version="1.1" width="200" height="200" viewBox="0 0 200 200"><rect x="0" y="0" width="200" height="200" fill="#ffffff"/><g transform="scale(6.897)"><g transform="translate(0,0)"><path fill-rule="evenodd" d="M9 0L9 2L11 2L11 3L10 3L10 4L11 4L11 3L12 3L12 7L11 7L11 6L10 6L10 7L9 7L9 6L8 6L8 8L6 8L6 9L4 9L4 8L2 8L2 9L1 9L1 10L0 10L0 11L1 11L1 10L2 10L2 9L3 9L3 11L4 11L4 13L3 13L3 12L1 12L1 13L0 13L0 15L1 15L1 16L0 16L0 17L1 17L1 18L0 18L0 19L1 19L1 18L2 18L2 17L5 17L5 18L6 18L6 19L7 19L7 20L5 20L5 19L2 19L2 20L1 20L1 21L3 21L3 20L5 20L5 21L7 21L7 20L8 20L8 18L9 18L9 19L10 19L10 20L9 20L9 21L8 21L8 23L9 23L9 22L11 22L11 23L10 23L10 26L9 26L9 25L8 25L8 27L9 27L9 29L14 29L14 27L15 27L15 29L16 29L16 28L17 28L17 29L18 29L18 28L19 28L19 29L20 29L20 28L19 28L19 26L20 26L20 25L23 25L23 26L24 26L24 27L22 27L22 29L23 29L23 28L26 28L26 27L27 27L27 28L29 28L29 26L28 26L28 27L27 27L27 26L26 26L26 27L25 27L25 26L24 26L24 25L26 25L26 23L25 23L25 22L26 22L26 20L27 20L27 21L28 21L28 22L27 22L27 24L29 24L29 23L28 23L28 22L29 22L29 21L28 21L28 20L27 20L27 19L26 19L26 18L29 18L29 17L26 17L26 16L25 16L25 15L24 15L24 16L23 16L23 17L21 17L21 18L20 18L20 17L19 17L19 15L20 15L20 14L21 14L21 13L20 13L20 12L22 12L22 9L23 9L23 13L22 13L22 15L23 15L23 14L24 14L24 13L25 13L25 14L26 14L26 15L27 15L27 13L28 13L28 12L29 12L29 11L28 11L28 12L27 12L27 11L26 11L26 10L29 10L29 9L25 9L25 8L24 8L24 9L23 9L23 8L21 8L21 3L20 3L20 2L18 2L18 1L17 1L17 2L18 2L18 4L19 4L19 5L14 5L14 4L17 4L17 3L16 3L16 1L15 1L15 0L13 0L13 1L14 1L14 2L12 2L12 0L11 0L11 1L10 1L10 0ZM13 3L13 4L14 4L14 3ZM19 3L19 4L20 4L20 3ZM8 4L8 5L9 5L9 4ZM13 5L13 7L12 7L12 8L11 8L11 9L10 9L10 8L9 8L9 9L10 9L10 10L7 10L7 9L6 9L6 10L5 10L5 11L6 11L6 12L5 12L5 13L6 13L6 14L8 14L8 15L10 15L10 17L11 17L11 15L10 15L10 14L12 14L12 13L13 13L13 12L15 12L15 13L14 13L14 14L13 14L13 15L12 15L12 16L13 16L13 17L12 17L12 19L11 19L11 21L12 21L12 20L13 20L13 22L12 22L12 23L11 23L11 24L12 24L12 23L13 23L13 25L12 25L12 27L11 27L11 26L10 26L10 28L12 28L12 27L14 27L14 26L15 26L15 25L16 25L16 27L17 27L17 28L18 28L18 27L17 27L17 25L18 25L18 26L19 26L19 25L20 25L20 24L19 24L19 23L20 23L20 21L18 21L18 20L20 20L20 18L17 18L17 17L18 17L18 15L19 15L19 14L20 14L20 13L19 13L19 14L18 14L18 13L17 13L17 11L19 11L19 12L20 12L20 11L19 11L19 10L20 10L20 9L21 9L21 8L19 8L19 7L20 7L20 5L19 5L19 7L18 7L18 6L17 6L17 9L18 9L18 8L19 8L19 10L17 10L17 11L16 11L16 10L15 10L15 11L13 11L13 9L16 9L16 8L15 8L15 7L16 7L16 6L15 6L15 7L14 7L14 5ZM13 7L13 8L14 8L14 7ZM11 9L11 11L9 11L9 12L8 12L8 14L9 14L9 13L11 13L11 12L13 12L13 11L12 11L12 9ZM24 9L24 10L25 10L25 9ZM6 10L6 11L7 11L7 10ZM15 11L15 12L16 12L16 11ZM25 11L25 13L27 13L27 12L26 12L26 11ZM6 12L6 13L7 13L7 12ZM15 13L15 14L16 14L16 16L17 16L17 15L18 15L18 14L16 14L16 13ZM2 14L2 16L1 16L1 17L2 17L2 16L4 16L4 15L3 15L3 14ZM28 14L28 15L29 15L29 14ZM6 15L6 16L5 16L5 17L6 17L6 18L8 18L8 17L9 17L9 16L7 16L7 15ZM13 15L13 16L14 16L14 15ZM6 16L6 17L7 17L7 16ZM24 16L24 17L23 17L23 18L22 18L22 19L21 19L21 20L22 20L22 19L24 19L24 20L25 20L25 19L24 19L24 18L26 18L26 17L25 17L25 16ZM13 17L13 18L14 18L14 17ZM15 17L15 18L16 18L16 20L18 20L18 19L17 19L17 18L16 18L16 17ZM14 19L14 21L15 21L15 19ZM16 21L16 22L15 22L15 23L14 23L14 24L16 24L16 25L17 25L17 24L16 24L16 22L18 22L18 23L19 23L19 22L18 22L18 21ZM21 21L21 24L24 24L24 21ZM22 22L22 23L23 23L23 22ZM18 24L18 25L19 25L19 24ZM0 0L0 7L7 7L7 0ZM1 1L1 6L6 6L6 1ZM2 2L2 5L5 5L5 2ZM22 0L22 7L29 7L29 0ZM23 1L23 6L28 6L28 1ZM24 2L24 5L27 5L27 2ZM0 22L0 29L7 29L7 22ZM1 23L1 28L6 28L6 23ZM2 24L2 27L5 27L5 24Z" fill="#000000"/></g></g></svg>
