<?xml version="1.0" encoding="UTF-8"?>
<svg xmlns="http://www.w3.org/2000/svg" version="1.1" width="200" height="200" viewBox="0 0 200 200"><rect x="0" y="0" width="200" height="200" fill="#ffffff"/><g transform="scale(6.897)"><g transform="translate(0,0)"><path fill-rule="evenodd" d="M15 0L15 1L13 1L13 3L11 3L11 4L13 4L13 3L14 3L14 4L15 4L15 5L13 5L13 6L12 6L12 7L11 7L11 5L10 5L10 7L9 7L9 5L8 5L8 8L4 8L4 9L1 9L1 10L0 10L0 12L1 12L1 13L0 13L0 16L1 16L1 15L2 15L2 16L3 16L3 13L2 13L2 12L3 12L3 11L5 11L5 10L4 10L4 9L7 9L7 10L6 10L6 11L7 11L7 12L4 12L4 13L9 13L9 14L11 14L11 17L9 17L9 15L8 15L8 14L6 14L6 15L5 15L5 14L4 14L4 17L3 17L3 18L2 18L2 19L3 19L3 21L4 21L4 20L5 20L5 21L7 21L7 20L6 20L6 19L8 19L8 20L9 20L9 21L8 21L8 25L9 25L9 27L11 27L11 26L12 26L12 27L13 27L13 28L12 28L12 29L22 29L22 28L23 28L23 29L25 29L25 28L26 28L26 29L27 29L27 28L28 28L28 27L29 27L29 26L27 26L27 24L28 24L28 25L29 25L29 22L28 22L28 23L27 23L27 21L29 21L29 19L26 19L26 18L25 18L25 16L24 16L24 14L25 14L25 15L27 15L27 16L29 16L29 14L27 14L27 12L29 12L29 9L28 9L28 8L27 8L27 9L24 9L24 8L22 8L22 9L24 9L24 10L22 10L22 11L23 11L23 13L22 13L22 12L18 12L18 13L19 13L19 14L21 14L21 13L22 13L22 14L23 14L23 16L22 16L22 15L21 15L21 16L19 16L19 15L18 15L18 14L17 14L17 11L15 11L15 10L14 10L14 11L11 11L11 9L12 9L12 10L13 10L13 9L12 9L12 8L13 8L13 6L14 6L14 7L15 7L15 9L16 9L16 10L18 10L18 9L19 9L19 10L20 10L20 11L21 11L21 9L19 9L19 8L21 8L21 6L20 6L20 7L19 7L19 4L20 4L20 5L21 5L21 1L20 1L20 0L18 0L18 2L17 2L17 0ZM8 1L8 2L9 2L9 3L10 3L10 2L12 2L12 1L10 1L10 2L9 2L9 1ZM19 1L19 2L20 2L20 1ZM15 2L15 4L16 4L16 6L15 6L15 7L16 7L16 9L18 9L18 8L17 8L17 7L18 7L18 4L19 4L19 3L18 3L18 4L16 4L16 3L17 3L17 2ZM16 6L16 7L17 7L17 6ZM10 7L10 8L8 8L8 10L7 10L7 11L8 11L8 10L9 10L9 12L11 12L11 13L12 13L12 14L13 14L13 15L12 15L12 16L13 16L13 17L12 17L12 18L13 18L13 17L14 17L14 19L12 19L12 20L11 20L11 19L10 19L10 21L9 21L9 22L10 22L10 24L9 24L9 25L11 25L11 24L12 24L12 23L11 23L11 22L12 22L12 21L14 21L14 22L13 22L13 25L12 25L12 26L13 26L13 27L15 27L15 28L19 28L19 26L20 26L20 28L21 28L21 26L22 26L22 27L23 27L23 28L25 28L25 27L23 27L23 26L24 26L24 25L18 25L18 23L17 23L17 22L16 22L16 23L14 23L14 22L15 22L15 17L16 17L16 18L18 18L18 17L19 17L19 16L17 16L17 14L15 14L15 15L14 15L14 14L13 14L13 13L14 13L14 12L13 12L13 13L12 13L12 12L11 12L11 11L10 11L10 9L11 9L11 7ZM27 9L27 10L28 10L28 9ZM2 10L2 11L1 11L1 12L2 12L2 11L3 11L3 10ZM24 10L24 12L25 12L25 10ZM1 13L1 14L2 14L2 13ZM23 13L23 14L24 14L24 13ZM25 13L25 14L26 14L26 13ZM6 15L6 16L7 16L7 15ZM15 15L15 16L14 16L14 17L15 17L15 16L16 16L16 15ZM23 16L23 17L20 17L20 19L21 19L21 18L23 18L23 19L22 19L22 20L23 20L23 19L25 19L25 18L24 18L24 16ZM0 17L0 18L1 18L1 17ZM4 17L4 18L3 18L3 19L4 19L4 18L5 18L5 19L6 19L6 18L8 18L8 19L9 19L9 18L8 18L8 17L6 17L6 18L5 18L5 17ZM27 17L27 18L28 18L28 17ZM16 19L16 21L17 21L17 19ZM18 19L18 22L19 22L19 24L20 24L20 22L19 22L19 21L20 21L20 20L19 20L19 19ZM0 20L0 21L2 21L2 20ZM10 21L10 22L11 22L11 21ZM21 21L21 24L24 24L24 21ZM25 21L25 26L26 26L26 27L27 27L27 26L26 26L26 24L27 24L27 23L26 23L26 21ZM22 22L22 23L23 23L23 22ZM14 24L14 25L13 25L13 26L15 26L15 27L16 27L16 26L18 26L18 25L15 25L15 24ZM9 28L9 29L10 29L10 28ZM0 0L0 7L7 7L7 0ZM1 1L1 6L6 6L6 1ZM2 2L2 5L5 5L5 2ZM22 0L22 7L29 7L29 0ZM23 1L23 6L28 6L28 1ZM24 2L24 5L27 5L27 2ZM0 22L0 29L7 29L7 22ZM1 23L1 28L6 28L6 23ZM2 24L2 27L5 27L5 24Z" fill="#000000"/></g></g></svg>
