<?xml version="1.0" encoding="UTF-8"?>
<svg xmlns="http://www.w3.org/2000/svg" version="1.1" width="200" height="200" viewBox="0 0 200 200"><rect x="0" y="0" width="200" height="200" fill="#ffffff"/><g transform="scale(4.878)"><g transform="translate(0,0)"><path fill-rule="evenodd" d="M8 0L8 3L10 3L10 4L11 4L11 5L10 5L10 7L9 7L9 5L8 5L8 9L7 9L7 8L6 8L6 9L5 9L5 8L2 8L2 9L1 9L1 10L0 10L0 12L1 12L1 10L4 10L4 9L5 9L5 10L6 10L6 11L4 11L4 16L3 16L3 13L1 13L1 14L0 14L0 17L1 17L1 16L2 16L2 17L4 17L4 16L5 16L5 15L8 15L8 17L7 17L7 16L6 16L6 17L7 17L7 18L6 18L6 19L4 19L4 20L3 20L3 18L2 18L2 19L1 19L1 18L0 18L0 19L1 19L1 21L5 21L5 22L4 22L4 25L1 25L1 24L3 24L3 22L2 22L2 23L1 23L1 24L0 24L0 26L3 26L3 28L2 28L2 29L1 29L1 27L0 27L0 33L1 33L1 30L2 30L2 31L3 31L3 33L5 33L5 32L4 32L4 31L5 31L5 30L6 30L6 31L7 31L7 32L6 32L6 33L8 33L8 34L9 34L9 35L10 35L10 36L8 36L8 39L9 39L9 41L10 41L10 39L11 39L11 38L12 38L12 39L13 39L13 40L14 40L14 37L16 37L16 38L15 38L15 39L16 39L16 38L17 38L17 40L15 40L15 41L18 41L18 40L19 40L19 41L20 41L20 40L21 40L21 39L22 39L22 40L25 40L25 41L27 41L27 40L28 40L28 39L29 39L29 38L27 38L27 40L26 40L26 39L25 39L25 38L26 38L26 36L27 36L27 37L29 37L29 36L31 36L31 35L32 35L32 37L30 37L30 39L31 39L31 40L33 40L33 41L34 41L34 40L33 40L33 39L35 39L35 40L36 40L36 39L37 39L37 40L40 40L40 38L41 38L41 36L40 36L40 34L41 34L41 33L40 33L40 32L38 32L38 31L40 31L40 30L41 30L41 29L40 29L40 28L41 28L41 27L40 27L40 26L41 26L41 23L39 23L39 22L38 22L38 21L39 21L39 20L36 20L36 19L35 19L35 17L36 17L36 18L37 18L37 19L38 19L38 18L41 18L41 16L40 16L40 17L39 17L39 16L38 16L38 15L40 15L40 14L41 14L41 12L40 12L40 10L41 10L41 8L38 8L38 9L40 9L40 10L37 10L37 9L36 9L36 8L32 8L32 7L33 7L33 6L32 6L32 7L31 7L31 6L30 6L30 7L31 7L31 8L28 8L28 7L29 7L29 5L27 5L27 4L26 4L26 7L25 7L25 5L24 5L24 4L23 4L23 3L25 3L25 0L23 0L23 1L24 1L24 2L22 2L22 0L18 0L18 1L17 1L17 0L16 0L16 1L15 1L15 2L14 2L14 4L16 4L16 7L15 7L15 5L13 5L13 3L12 3L12 2L11 2L11 3L10 3L10 1L11 1L11 0ZM12 0L12 1L13 1L13 0ZM26 0L26 1L27 1L27 2L26 2L26 3L28 3L28 4L29 4L29 3L31 3L31 4L30 4L30 5L33 5L33 4L32 4L32 3L31 3L31 2L30 2L30 0L29 0L29 1L27 1L27 0ZM31 0L31 1L32 1L32 2L33 2L33 1L32 1L32 0ZM20 1L20 3L18 3L18 2L16 2L16 4L17 4L17 8L15 8L15 10L14 10L14 8L13 8L13 7L14 7L14 6L13 6L13 7L12 7L12 5L11 5L11 7L10 7L10 8L9 8L9 9L8 9L8 10L7 10L7 9L6 9L6 10L7 10L7 11L6 11L6 12L5 12L5 13L6 13L6 14L8 14L8 15L9 15L9 16L10 16L10 17L8 17L8 18L9 18L9 20L7 20L7 19L6 19L6 20L7 20L7 21L6 21L6 22L7 22L7 21L9 21L9 23L10 23L10 22L12 22L12 24L11 24L11 25L10 25L10 24L9 24L9 25L8 25L8 24L7 24L7 23L6 23L6 24L7 24L7 25L4 25L4 26L5 26L5 27L6 27L6 28L7 28L7 29L6 29L6 30L7 30L7 31L12 31L12 32L10 32L10 35L11 35L11 34L13 34L13 36L11 36L11 37L12 37L12 38L13 38L13 37L14 37L14 33L15 33L15 32L14 32L14 31L15 31L15 28L16 28L16 30L17 30L17 31L16 31L16 34L15 34L15 35L16 35L16 36L17 36L17 34L18 34L18 36L19 36L19 33L18 33L18 32L19 32L19 31L20 31L20 32L21 32L21 33L20 33L20 35L21 35L21 36L20 36L20 37L19 37L19 38L18 38L18 39L19 39L19 40L20 40L20 39L19 39L19 38L20 38L20 37L21 37L21 38L22 38L22 36L26 36L26 35L27 35L27 34L28 34L28 33L29 33L29 32L30 32L30 33L31 33L31 32L30 32L30 30L32 30L32 31L33 31L33 32L35 32L35 31L36 31L36 30L35 30L35 29L37 29L37 31L38 31L38 30L39 30L39 26L40 26L40 24L39 24L39 23L37 23L37 24L36 24L36 23L35 23L35 22L36 22L36 21L35 21L35 19L34 19L34 18L33 18L33 17L32 17L32 16L34 16L34 17L35 17L35 16L36 16L36 17L37 17L37 18L38 18L38 16L36 16L36 15L35 15L35 14L36 14L36 13L38 13L38 14L37 14L37 15L38 15L38 14L40 14L40 13L39 13L39 11L38 11L38 12L36 12L36 11L37 11L37 10L36 10L36 9L35 9L35 10L36 10L36 11L35 11L35 13L34 13L34 12L33 12L33 13L32 13L32 10L33 10L33 11L34 11L34 9L32 9L32 8L31 8L31 9L26 9L26 11L25 11L25 12L24 12L24 13L23 13L23 12L22 12L22 11L23 11L23 9L22 9L22 8L24 8L24 9L25 9L25 8L24 8L24 6L23 6L23 4L22 4L22 6L21 6L21 7L22 7L22 8L21 8L21 9L20 9L20 8L19 8L19 7L20 7L20 5L21 5L21 4L20 4L20 3L21 3L21 1ZM18 4L18 7L19 7L19 4ZM22 6L22 7L23 7L23 6ZM27 6L27 7L26 7L26 8L27 8L27 7L28 7L28 6ZM10 8L10 10L8 10L8 12L6 12L6 13L8 13L8 14L12 14L12 13L10 13L10 11L11 11L11 12L12 12L12 11L11 11L11 8ZM12 8L12 10L13 10L13 8ZM17 8L17 9L16 9L16 11L17 11L17 10L19 10L19 11L18 11L18 12L17 12L17 15L20 15L20 16L19 16L19 17L20 17L20 16L21 16L21 15L22 15L22 14L23 14L23 16L22 16L22 17L25 17L25 18L26 18L26 20L25 20L25 21L24 21L24 19L23 19L23 18L22 18L22 19L20 19L20 20L19 20L19 19L16 19L16 20L17 20L17 21L18 21L18 22L21 22L21 23L20 23L20 24L21 24L21 25L22 25L22 26L23 26L23 25L22 25L22 24L21 24L21 23L22 23L22 22L23 22L23 21L24 21L24 22L25 22L25 23L26 23L26 24L25 24L25 25L24 25L24 27L22 27L22 28L21 28L21 27L20 27L20 28L19 28L19 27L18 27L18 26L19 26L19 25L18 25L18 26L16 26L16 25L17 25L17 22L15 22L15 21L14 21L14 22L13 22L13 23L15 23L15 24L12 24L12 25L11 25L11 26L6 26L6 27L8 27L8 29L7 29L7 30L11 30L11 29L12 29L12 30L13 30L13 31L14 31L14 27L15 27L15 26L16 26L16 28L17 28L17 29L18 29L18 28L19 28L19 30L20 30L20 31L21 31L21 32L22 32L22 33L21 33L21 34L22 34L22 33L23 33L23 32L25 32L25 33L28 33L28 31L29 31L29 30L28 30L28 29L31 29L31 28L32 28L32 27L34 27L34 26L35 26L35 27L36 27L36 28L38 28L38 26L39 26L39 25L36 25L36 24L35 24L35 23L34 23L34 22L35 22L35 21L34 21L34 20L33 20L33 19L31 19L31 18L32 18L32 17L31 17L31 15L30 15L30 14L31 14L31 12L29 12L29 13L27 13L27 14L26 14L26 13L25 13L25 14L26 14L26 15L24 15L24 14L23 14L23 13L22 13L22 14L21 14L21 13L19 13L19 11L20 11L20 12L21 12L21 11L22 11L22 10L21 10L21 11L20 11L20 10L19 10L19 9L18 9L18 8ZM31 9L31 10L30 10L30 11L31 11L31 10L32 10L32 9ZM27 10L27 11L26 11L26 12L28 12L28 11L29 11L29 10ZM13 11L13 14L14 14L14 12L15 12L15 13L16 13L16 12L15 12L15 11ZM8 12L8 13L9 13L9 12ZM29 13L29 14L27 14L27 17L26 17L26 16L25 16L25 17L26 17L26 18L28 18L28 19L27 19L27 20L28 20L28 21L27 21L27 22L26 22L26 23L27 23L27 22L28 22L28 24L26 24L26 26L25 26L25 28L31 28L31 27L32 27L32 26L29 26L29 25L28 25L28 24L30 24L30 25L33 25L33 26L34 26L34 25L35 25L35 26L36 26L36 27L37 27L37 26L36 26L36 25L35 25L35 24L34 24L34 23L32 23L32 22L34 22L34 21L32 21L32 20L31 20L31 19L30 19L30 18L31 18L31 17L29 17L29 16L30 16L30 15L29 15L29 14L30 14L30 13ZM33 13L33 14L32 14L32 15L34 15L34 13ZM1 14L1 15L2 15L2 14ZM15 14L15 16L13 16L13 15L11 15L11 17L10 17L10 19L11 19L11 20L12 20L12 21L13 21L13 20L15 20L15 18L14 18L14 19L13 19L13 17L16 17L16 18L18 18L18 16L16 16L16 14ZM28 15L28 16L29 16L29 15ZM12 16L12 17L13 17L13 16ZM12 19L12 20L13 20L13 19ZM28 19L28 20L29 20L29 19ZM18 20L18 21L19 21L19 20ZM20 20L20 21L22 21L22 20ZM30 20L30 21L31 21L31 22L30 22L30 23L31 23L31 22L32 22L32 21L31 21L31 20ZM40 20L40 21L41 21L41 20ZM28 21L28 22L29 22L29 21ZM18 23L18 24L19 24L19 23ZM15 24L15 25L13 25L13 26L11 26L11 28L13 28L13 27L14 27L14 26L15 26L15 25L16 25L16 24ZM33 24L33 25L34 25L34 24ZM26 26L26 27L29 27L29 26ZM9 27L9 28L10 28L10 27ZM3 28L3 29L2 29L2 30L5 30L5 28ZM22 28L22 29L20 29L20 30L21 30L21 31L22 31L22 32L23 32L23 31L24 31L24 30L22 30L22 29L23 29L23 28ZM33 28L33 29L32 29L32 30L33 30L33 29L34 29L34 28ZM25 29L25 30L26 30L26 31L25 31L25 32L26 32L26 31L27 31L27 29ZM34 30L34 31L35 31L35 30ZM12 32L12 33L13 33L13 32ZM37 32L37 35L38 35L38 36L37 36L37 37L38 37L38 36L39 36L39 34L38 34L38 32ZM33 33L33 36L36 36L36 33ZM24 34L24 35L25 35L25 34ZM30 34L30 35L31 35L31 34ZM34 34L34 35L35 35L35 34ZM23 37L23 38L24 38L24 37ZM32 37L32 39L33 39L33 38L36 38L36 37ZM37 38L37 39L38 39L38 38ZM29 40L29 41L30 41L30 40ZM0 0L0 7L7 7L7 0ZM1 1L1 6L6 6L6 1ZM2 2L2 5L5 5L5 2ZM34 0L34 7L41 7L41 0ZM35 1L35 6L40 6L40 1ZM36 2L36 5L39 5L39 2ZM0 34L0 41L7 41L7 34ZM1 35L1 40L6 40L6 35ZM2 36L2 39L5 39L5 36Z" fill="#000000"/></g></g></svg>
