<?xml version="1.0" encoding="UTF-8"?>
<svg xmlns="http://www.w3.org/2000/svg" version="1.1" width="200" height="200" viewBox="0 0 200 200"><rect x="0" y="0" width="200" height="200" fill="#ffffff"/><g transform="scale(4.878)"><g transform="translate(0,0)"><path fill-rule="evenodd" d="M12 0L12 1L11 1L11 2L10 2L10 1L8 1L8 2L10 2L10 3L9 3L9 4L10 4L10 5L8 5L8 8L4 8L4 9L2 9L2 10L1 10L1 11L0 11L0 13L1 13L1 14L0 14L0 18L1 18L1 16L3 16L3 15L1 15L1 14L4 14L4 16L5 16L5 20L4 20L4 17L3 17L3 20L4 20L4 21L3 21L3 22L2 22L2 25L3 25L3 24L4 24L4 25L5 25L5 26L6 26L6 27L7 27L7 28L5 28L5 27L4 27L4 26L3 26L3 27L4 27L4 30L6 30L6 31L8 31L8 32L5 32L5 31L2 31L2 32L0 32L0 33L3 33L3 32L5 32L5 33L8 33L8 37L9 37L9 39L10 39L10 38L11 38L11 39L12 39L12 41L14 41L14 40L15 40L15 41L18 41L18 40L21 40L21 41L24 41L24 38L25 38L25 40L26 40L26 39L27 39L27 41L28 41L28 40L29 40L29 41L30 41L30 40L31 40L31 41L33 41L33 39L32 39L32 37L36 37L36 38L38 38L38 35L37 35L37 33L38 33L38 34L39 34L39 35L40 35L40 36L39 36L39 37L40 37L40 38L39 38L39 40L37 40L37 39L36 39L36 40L37 40L37 41L40 41L40 40L41 40L41 37L40 37L40 36L41 36L41 33L40 33L40 32L41 32L41 29L40 29L40 30L39 30L39 28L38 28L38 26L37 26L37 25L33 25L33 24L35 24L35 23L36 23L36 24L37 24L37 23L38 23L38 22L40 22L40 23L41 23L41 22L40 22L40 21L41 21L41 13L40 13L40 11L41 11L41 9L40 9L40 8L39 8L39 9L36 9L36 8L34 8L34 9L32 9L32 11L31 11L31 12L30 12L30 9L31 9L31 8L30 8L30 7L31 7L31 6L32 6L32 7L33 7L33 3L32 3L32 2L33 2L33 1L31 1L31 0L30 0L30 2L29 2L29 1L28 1L28 0L27 0L27 1L28 1L28 2L27 2L27 3L26 3L26 2L25 2L25 1L24 1L24 0L21 0L21 1L20 1L20 2L22 2L22 3L20 3L20 4L19 4L19 3L18 3L18 4L19 4L19 5L20 5L20 8L19 8L19 6L18 6L18 8L17 8L17 9L16 9L16 11L15 11L15 12L16 12L16 13L13 13L13 11L14 11L14 10L13 10L13 9L12 9L12 8L16 8L16 7L17 7L17 4L16 4L16 5L15 5L15 6L14 6L14 5L13 5L13 4L12 4L12 5L11 5L11 4L10 4L10 3L11 3L11 2L12 2L12 1L15 1L15 2L13 2L13 3L14 3L14 4L15 4L15 2L16 2L16 3L17 3L17 2L18 2L18 0L17 0L17 1L15 1L15 0ZM23 1L23 2L24 2L24 1ZM28 2L28 3L27 3L27 4L28 4L28 5L26 5L26 3L25 3L25 7L26 7L26 8L24 8L24 10L23 10L23 11L22 11L22 10L21 10L21 12L19 12L19 11L20 11L20 10L17 10L17 11L18 11L18 12L19 12L19 13L18 13L18 14L20 14L20 13L21 13L21 16L20 16L20 15L19 15L19 16L18 16L18 15L17 15L17 16L18 16L18 18L17 18L17 17L16 17L16 14L17 14L17 13L16 13L16 14L13 14L13 16L12 16L12 14L11 14L11 13L12 13L12 12L9 12L9 11L13 11L13 10L9 10L9 9L11 9L11 8L12 8L12 6L11 6L11 5L10 5L10 6L9 6L9 7L10 7L10 6L11 6L11 8L8 8L8 10L7 10L7 9L6 9L6 10L5 10L5 9L4 9L4 10L5 10L5 11L3 11L3 13L4 13L4 12L8 12L8 13L5 13L5 14L7 14L7 15L5 15L5 16L7 16L7 17L6 17L6 18L7 18L7 19L6 19L6 20L5 20L5 21L4 21L4 24L7 24L7 25L6 25L6 26L7 26L7 27L8 27L8 25L9 25L9 29L11 29L11 30L8 30L8 29L6 29L6 30L8 30L8 31L9 31L9 32L8 32L8 33L9 33L9 35L10 35L10 34L11 34L11 35L12 35L12 36L9 36L9 37L11 37L11 38L12 38L12 39L13 39L13 40L14 40L14 38L15 38L15 40L18 40L18 39L16 39L16 38L19 38L19 39L20 39L20 38L24 38L24 37L23 37L23 36L22 36L22 35L21 35L21 36L20 36L20 35L19 35L19 34L20 34L20 33L19 33L19 34L17 34L17 33L18 33L18 31L19 31L19 30L18 30L18 31L16 31L16 29L15 29L15 28L19 28L19 29L20 29L20 28L22 28L22 25L23 25L23 27L24 27L24 28L23 28L23 29L22 29L22 30L20 30L20 32L21 32L21 34L24 34L24 33L25 33L25 35L27 35L27 32L28 32L28 33L29 33L29 34L28 34L28 36L27 36L27 37L25 37L25 38L27 38L27 37L28 37L28 38L29 38L29 39L31 39L31 37L30 37L30 36L29 36L29 34L30 34L30 35L31 35L31 36L32 36L32 35L31 35L31 34L32 34L32 33L31 33L31 32L34 32L34 31L35 31L35 32L37 32L37 31L38 31L38 33L39 33L39 34L40 34L40 33L39 33L39 31L38 31L38 30L37 30L37 31L35 31L35 29L37 29L37 26L33 26L33 25L32 25L32 24L33 24L33 22L32 22L32 21L36 21L36 22L37 22L37 21L36 21L36 19L35 19L35 18L36 18L36 17L37 17L37 19L38 19L38 21L39 21L39 20L40 20L40 17L39 17L39 16L40 16L40 15L38 15L38 13L37 13L37 11L36 11L36 9L35 9L35 11L36 11L36 12L34 12L34 11L32 11L32 12L33 12L33 13L32 13L32 15L33 15L33 16L30 16L30 17L31 17L31 19L30 19L30 18L29 18L29 16L27 16L27 17L28 17L28 19L29 19L29 21L28 21L28 20L27 20L27 21L26 21L26 19L27 19L27 18L25 18L25 21L26 21L26 22L24 22L24 23L23 23L23 24L21 24L21 23L22 23L22 22L23 22L23 21L24 21L24 18L23 18L23 17L24 17L24 16L25 16L25 17L26 17L26 16L25 16L25 15L27 15L27 14L28 14L28 15L29 15L29 14L30 14L30 15L31 15L31 14L30 14L30 13L28 13L28 11L29 11L29 9L28 9L28 8L29 8L29 7L30 7L30 6L31 6L31 5L32 5L32 3L30 3L30 4L29 4L29 2ZM23 3L23 7L24 7L24 3ZM21 4L21 8L20 8L20 9L22 9L22 4ZM28 5L28 7L29 7L29 6L30 6L30 5ZM13 6L13 7L14 7L14 6ZM15 6L15 7L16 7L16 6ZM26 6L26 7L27 7L27 6ZM25 9L25 10L24 10L24 11L25 11L25 10L26 10L26 12L27 12L27 11L28 11L28 9ZM6 10L6 11L7 11L7 10ZM8 10L8 11L9 11L9 10ZM1 11L1 13L2 13L2 11ZM38 11L38 12L39 12L39 11ZM21 12L21 13L22 13L22 14L24 14L24 13L25 13L25 12L24 12L24 13L23 13L23 12ZM8 13L8 15L7 15L7 16L8 16L8 19L9 19L9 18L10 18L10 17L9 17L9 15L10 15L10 16L11 16L11 15L10 15L10 14L9 14L9 13ZM26 13L26 14L27 14L27 13ZM33 13L33 15L34 15L34 16L35 16L35 17L34 17L34 18L35 18L35 17L36 17L36 16L35 16L35 15L36 15L36 14L37 14L37 13L36 13L36 14L34 14L34 13ZM22 15L22 16L21 16L21 17L22 17L22 16L23 16L23 15ZM37 15L37 17L38 17L38 18L39 18L39 17L38 17L38 15ZM13 16L13 17L12 17L12 18L11 18L11 20L6 20L6 21L5 21L5 23L7 23L7 24L10 24L10 23L11 23L11 24L12 24L12 25L11 25L11 29L14 29L14 31L15 31L15 32L16 32L16 33L17 33L17 32L16 32L16 31L15 31L15 29L14 29L14 28L13 28L13 27L12 27L12 25L14 25L14 26L15 26L15 27L20 27L20 24L18 24L18 23L16 23L16 22L17 22L17 21L19 21L19 23L21 23L21 21L22 21L22 20L23 20L23 19L21 19L21 21L20 21L20 20L15 20L15 19L14 19L14 20L12 20L12 19L13 19L13 17L14 17L14 16ZM15 17L15 18L16 18L16 19L17 19L17 18L16 18L16 17ZM19 17L19 19L20 19L20 17ZM32 17L32 19L33 19L33 17ZM0 19L0 20L2 20L2 19ZM34 19L34 20L35 20L35 19ZM11 20L11 21L12 21L12 20ZM6 21L6 22L7 22L7 23L8 23L8 22L9 22L9 21L8 21L8 22L7 22L7 21ZM15 21L15 22L13 22L13 24L14 24L14 25L15 25L15 26L19 26L19 25L17 25L17 24L16 24L16 23L15 23L15 22L16 22L16 21ZM27 21L27 22L26 22L26 23L25 23L25 24L24 24L24 25L25 25L25 26L26 26L26 25L25 25L25 24L26 24L26 23L27 23L27 27L26 27L26 29L24 29L24 30L22 30L22 31L21 31L21 32L23 32L23 31L24 31L24 32L27 32L27 28L29 28L29 29L28 29L28 31L29 31L29 33L30 33L30 34L31 34L31 33L30 33L30 32L31 32L31 31L30 31L30 30L29 30L29 29L31 29L31 30L32 30L32 31L33 31L33 29L35 29L35 28L34 28L34 27L33 27L33 26L32 26L32 27L33 27L33 29L32 29L32 28L31 28L31 26L30 26L30 25L31 25L31 23L30 23L30 22L31 22L31 21L30 21L30 22L28 22L28 21ZM0 22L0 28L1 28L1 29L0 29L0 30L2 30L2 26L1 26L1 22ZM34 22L34 23L35 23L35 22ZM39 24L39 27L40 27L40 28L41 28L41 24ZM28 25L28 27L29 27L29 25ZM11 30L11 31L10 31L10 33L12 33L12 32L13 32L13 30ZM24 30L24 31L25 31L25 30ZM11 31L11 32L12 32L12 31ZM13 33L13 34L15 34L15 35L16 35L16 36L14 36L14 35L13 35L13 36L12 36L12 38L14 38L14 37L16 37L16 36L17 36L17 34L15 34L15 33ZM33 33L33 36L36 36L36 33ZM34 34L34 35L35 35L35 34ZM18 35L18 37L20 37L20 36L19 36L19 35ZM28 36L28 37L29 37L29 36ZM34 39L34 40L35 40L35 39ZM0 0L0 7L7 7L7 0ZM1 1L1 6L6 6L6 1ZM2 2L2 5L5 5L5 2ZM34 0L34 7L41 7L41 0ZM35 1L35 6L40 6L40 1ZM36 2L36 5L39 5L39 2ZM0 34L0 41L7 41L7 34ZM1 35L1 40L6 40L6 35ZM2 36L2 39L5 39L5 36Z" fill="#000000"/></g></g></svg>
