<?xml version="1.0" encoding="UTF-8"?>
<svg xmlns="http://www.w3.org/2000/svg" version="1.1" width="200" height="200" viewBox="0 0 200 200"><rect x="0" y="0" width="200" height="200" fill="#ffffff"/><g transform="scale(6.897)"><g transform="translate(0,0)"><path fill-rule="evenodd" d="M11 0L11 1L10 1L10 2L11 2L11 1L12 1L12 0ZM16 0L16 1L14 1L14 2L12 2L12 3L10 3L10 4L8 4L8 5L10 5L10 4L11 4L11 5L12 5L12 4L13 4L13 3L15 3L15 4L14 4L14 7L13 7L13 6L12 6L12 7L11 7L11 6L10 6L10 8L11 8L11 9L10 9L10 10L9 10L9 6L8 6L8 8L6 8L6 9L5 9L5 10L4 10L4 8L2 8L2 9L3 9L3 11L1 11L1 9L0 9L0 13L3 13L3 14L1 14L1 15L0 15L0 17L1 17L1 18L0 18L0 19L1 19L1 18L2 18L2 19L3 19L3 18L2 18L2 17L4 17L4 16L3 16L3 15L5 15L5 16L6 16L6 17L7 17L7 16L6 16L6 15L7 15L7 14L8 14L8 15L9 15L9 17L8 17L8 19L7 19L7 18L4 18L4 19L7 19L7 20L3 20L3 21L7 21L7 20L9 20L9 21L8 21L8 23L9 23L9 25L8 25L8 27L9 27L9 28L11 28L11 27L9 27L9 25L10 25L10 26L12 26L12 29L14 29L14 27L13 27L13 26L14 26L14 25L16 25L16 26L15 26L15 27L16 27L16 28L18 28L18 29L20 29L20 28L18 28L18 26L17 26L17 25L19 25L19 26L20 26L20 25L23 25L23 26L24 26L24 27L22 27L22 29L23 29L23 28L26 28L26 29L27 29L27 28L29 28L29 26L28 26L28 27L27 27L27 28L26 28L26 26L27 26L27 25L26 25L26 23L25 23L25 22L26 22L26 20L27 20L27 24L28 24L28 25L29 25L29 21L28 21L28 20L27 20L27 18L29 18L29 17L26 17L26 16L25 16L25 15L24 15L24 16L23 16L23 17L21 17L21 18L20 18L20 17L19 17L19 16L18 16L18 15L14 15L14 19L13 19L13 16L12 16L12 15L13 15L13 14L12 14L12 15L11 15L11 13L12 13L12 12L14 12L14 9L15 9L15 8L17 8L17 6L18 6L18 7L19 7L19 8L18 8L18 10L17 10L17 11L18 11L18 10L19 10L19 11L20 11L20 12L17 12L17 14L19 14L19 15L20 15L20 14L21 14L21 13L20 13L20 12L22 12L22 9L23 9L23 13L22 13L22 15L23 15L23 14L24 14L24 13L25 13L25 14L26 14L26 15L27 15L27 16L28 16L28 15L29 15L29 14L28 14L28 15L27 15L27 13L28 13L28 12L29 12L29 11L28 11L28 12L27 12L27 10L29 10L29 9L26 9L26 10L24 10L24 9L25 9L25 8L24 8L24 9L23 9L23 8L21 8L21 9L20 9L20 7L21 7L21 3L20 3L20 2L18 2L18 1L17 1L17 0ZM16 2L16 3L17 3L17 4L16 4L16 5L19 5L19 7L20 7L20 5L19 5L19 4L20 4L20 3L19 3L19 4L18 4L18 2ZM15 6L15 7L16 7L16 6ZM12 8L12 9L11 9L11 10L10 10L10 11L11 11L11 12L10 12L10 13L11 13L11 12L12 12L12 9L14 9L14 8ZM6 9L6 10L7 10L7 11L5 11L5 12L8 12L8 10L7 10L7 9ZM19 9L19 10L20 10L20 9ZM3 11L3 13L4 13L4 11ZM15 11L15 12L16 12L16 11ZM25 11L25 13L27 13L27 12L26 12L26 11ZM5 13L5 14L7 14L7 13ZM14 13L14 14L16 14L16 13ZM19 13L19 14L20 14L20 13ZM9 14L9 15L10 15L10 16L11 16L11 20L10 20L10 23L11 23L11 20L12 20L12 16L11 16L11 15L10 15L10 14ZM1 15L1 16L2 16L2 15ZM24 16L24 17L23 17L23 18L22 18L22 19L21 19L21 20L22 20L22 19L24 19L24 18L25 18L25 20L26 20L26 17L25 17L25 16ZM16 17L16 19L15 19L15 20L13 20L13 21L12 21L12 22L13 22L13 21L15 21L15 20L16 20L16 21L18 21L18 22L14 22L14 23L12 23L12 26L13 26L13 24L16 24L16 25L17 25L17 24L19 24L19 25L20 25L20 24L19 24L19 23L20 23L20 21L19 21L19 20L20 20L20 18L19 18L19 17L18 17L18 18L17 18L17 17ZM18 19L18 20L19 20L19 19ZM1 20L1 21L2 21L2 20ZM21 21L21 24L24 24L24 21ZM18 22L18 23L19 23L19 22ZM22 22L22 23L23 23L23 22ZM24 25L24 26L26 26L26 25ZM16 26L16 27L17 27L17 26ZM0 0L0 7L7 7L7 0ZM1 1L1 6L6 6L6 1ZM2 2L2 5L5 5L5 2ZM22 0L22 7L29 7L29 0ZM23 1L23 6L28 6L28 1ZM24 2L24 5L27 5L27 2ZM0 22L0 29L7 29L7 22ZM1 23L1 28L6 28L6 23ZM2 24L2 27L5 27L5 24Z" fill="#000000"/></g></g></svg>
