<?xml version="1.0" encoding="UTF-8"?>
<svg xmlns="http://www.w3.org/2000/svg" version="1.1" width="200" height="200" viewBox="0 0 200 200"><rect x="0" y="0" width="200" height="200" fill="#ffffff"/><g transform="scale(6.897)"><g transform="translate(0,0)"><path fill-rule="evenodd" d="M9 0L9 4L8 4L8 5L9 5L9 6L8 6L8 8L6 8L6 9L7 9L7 10L5 10L5 9L4 9L4 8L2 8L2 10L1 10L1 12L0 12L0 16L2 16L2 17L3 17L3 16L5 16L5 17L4 17L4 18L2 18L2 19L3 19L3 20L4 20L4 18L5 18L5 19L7 19L7 20L5 20L5 21L7 21L7 20L8 20L8 18L9 18L9 21L8 21L8 23L9 23L9 25L8 25L8 27L9 27L9 29L10 29L10 27L11 27L11 29L14 29L14 28L13 28L13 27L14 27L14 26L15 26L15 25L16 25L16 26L17 26L17 27L16 27L16 29L18 29L18 28L19 28L19 29L20 29L20 28L19 28L19 27L18 27L18 26L17 26L17 25L16 25L16 24L17 24L17 22L16 22L16 21L14 21L14 22L15 22L15 25L14 25L14 24L13 24L13 20L12 20L12 19L11 19L11 18L13 18L13 19L15 19L15 20L16 20L16 19L17 19L17 18L18 18L18 19L19 19L19 18L20 18L20 20L19 20L19 21L20 21L20 23L19 23L19 24L18 24L18 25L19 25L19 26L20 26L20 25L23 25L23 26L24 26L24 27L22 27L22 29L23 29L23 28L26 28L26 26L27 26L27 25L28 25L28 24L29 24L29 21L28 21L28 20L27 20L27 19L26 19L26 18L29 18L29 17L26 17L26 16L25 16L25 15L24 15L24 16L23 16L23 17L21 17L21 18L20 18L20 17L19 17L19 16L18 16L18 13L20 13L20 14L19 14L19 15L20 15L20 14L21 14L21 13L20 13L20 12L22 12L22 9L23 9L23 13L22 13L22 15L23 15L23 14L24 14L24 13L25 13L25 14L26 14L26 15L27 15L27 16L28 16L28 15L29 15L29 14L28 14L28 12L29 12L29 11L28 11L28 12L27 12L27 11L26 11L26 10L29 10L29 9L26 9L26 10L24 10L24 9L25 9L25 8L24 8L24 9L23 9L23 8L21 8L21 9L20 9L20 10L19 10L19 8L20 8L20 7L21 7L21 3L20 3L20 2L18 2L18 1L17 1L17 0L16 0L16 3L12 3L12 2L13 2L13 0ZM11 1L11 2L12 2L12 1ZM14 1L14 2L15 2L15 1ZM17 2L17 3L16 3L16 4L15 4L15 5L14 5L14 4L12 4L12 3L11 3L11 5L10 5L10 4L9 4L9 5L10 5L10 6L9 6L9 9L8 9L8 10L9 10L9 9L10 9L10 8L13 8L13 7L14 7L14 10L13 10L13 9L12 9L12 10L10 10L10 11L12 11L12 10L13 10L13 12L11 12L11 13L9 13L9 12L8 12L8 11L4 11L4 12L3 12L3 11L2 11L2 12L1 12L1 15L2 15L2 13L3 13L3 15L5 15L5 16L7 16L7 17L5 17L5 18L7 18L7 17L9 17L9 16L7 16L7 15L5 15L5 14L4 14L4 13L5 13L5 12L7 12L7 13L6 13L6 14L7 14L7 13L8 13L8 15L9 15L9 14L11 14L11 13L12 13L12 14L13 14L13 15L12 15L12 16L14 16L14 17L13 17L13 18L15 18L15 17L16 17L16 18L17 18L17 17L16 17L16 16L14 16L14 11L15 11L15 10L16 10L16 12L17 12L17 10L16 10L16 8L15 8L15 7L16 7L16 6L15 6L15 5L18 5L18 2ZM19 3L19 4L20 4L20 3ZM12 5L12 7L13 7L13 6L14 6L14 7L15 7L15 6L14 6L14 5ZM19 5L19 7L18 7L18 6L17 6L17 9L18 9L18 8L19 8L19 7L20 7L20 5ZM10 6L10 7L11 7L11 6ZM18 10L18 12L20 12L20 11L19 11L19 10ZM25 11L25 13L27 13L27 12L26 12L26 11ZM10 15L10 16L11 16L11 15ZM24 16L24 17L23 17L23 18L22 18L22 19L21 19L21 20L22 20L22 19L24 19L24 18L26 18L26 17L25 17L25 16ZM10 17L10 18L11 18L11 17ZM18 17L18 18L19 18L19 17ZM0 18L0 19L1 19L1 18ZM1 20L1 21L2 21L2 20ZM10 20L10 24L11 24L11 21L12 21L12 20ZM26 20L26 22L25 22L25 23L26 23L26 25L27 25L27 24L28 24L28 21L27 21L27 20ZM21 21L21 24L24 24L24 21ZM22 22L22 23L23 23L23 22ZM12 24L12 25L9 25L9 26L12 26L12 25L13 25L13 26L14 26L14 25L13 25L13 24ZM19 24L19 25L20 25L20 24ZM24 25L24 26L25 26L25 25ZM28 26L28 27L27 27L27 28L29 28L29 26ZM0 0L0 7L7 7L7 0ZM1 1L1 6L6 6L6 1ZM2 2L2 5L5 5L5 2ZM22 0L22 7L29 7L29 0ZM23 1L23 6L28 6L28 1ZM24 2L24 5L27 5L27 2ZM0 22L0 29L7 29L7 22ZM1 23L1 28L6 28L6 23ZM2 24L2 27L5 27L5 24Z" fill="#000000"/></g></g></svg>
