<?xml version="1.0" encoding="UTF-8"?>
<svg xmlns="http://www.w3.org/2000/svg" version="1.1" width="200" height="200" viewBox="0 0 200 200"><rect x="0" y="0" width="200" height="200" fill="#ffffff"/><g transform="scale(4.878)"><g transform="translate(0,0)"><path fill-rule="evenodd" d="M8 0L8 3L9 3L9 4L11 4L11 3L12 3L12 4L14 4L14 3L16 3L16 7L17 7L17 8L14 8L14 7L15 7L15 6L14 6L14 7L13 7L13 6L12 6L12 7L11 7L11 5L10 5L10 7L9 7L9 5L8 5L8 9L7 9L7 8L6 8L6 9L7 9L7 10L6 10L6 11L5 11L5 10L4 10L4 9L5 9L5 8L2 8L2 11L1 11L1 10L0 10L0 12L2 12L2 11L3 11L3 13L0 13L0 14L1 14L1 15L0 15L0 21L1 21L1 22L0 22L0 26L1 26L1 25L2 25L2 24L3 24L3 23L4 23L4 22L5 22L5 24L6 24L6 25L10 25L10 28L11 28L11 29L12 29L12 28L13 28L13 27L14 27L14 28L15 28L15 30L14 30L14 29L13 29L13 30L12 30L12 31L11 31L11 35L10 35L10 34L9 34L9 32L10 32L10 31L9 31L9 32L8 32L8 30L10 30L10 29L9 29L9 27L7 27L7 26L6 26L6 27L5 27L5 25L3 25L3 27L5 27L5 28L4 28L4 30L3 30L3 28L2 28L2 27L1 27L1 28L2 28L2 29L0 29L0 33L1 33L1 30L2 30L2 31L3 31L3 32L4 32L4 33L5 33L5 32L6 32L6 33L7 33L7 32L8 32L8 34L9 34L9 36L8 36L8 39L9 39L9 38L10 38L10 39L11 39L11 37L12 37L12 39L13 39L13 40L12 40L12 41L15 41L15 39L16 39L16 40L17 40L17 41L18 41L18 40L19 40L19 41L20 41L20 40L22 40L22 41L24 41L24 40L23 40L23 39L28 39L28 38L27 38L27 37L29 37L29 36L31 36L31 35L32 35L32 37L30 37L30 38L29 38L29 39L31 39L31 38L34 38L34 39L35 39L35 40L36 40L36 39L37 39L37 40L40 40L40 38L41 38L41 37L40 37L40 36L41 36L41 35L40 35L40 34L41 34L41 32L38 32L38 31L36 31L36 30L38 30L38 29L35 29L35 30L34 30L34 31L36 31L36 32L33 32L33 31L32 31L32 30L33 30L33 29L34 29L34 28L33 28L33 27L34 27L34 26L35 26L35 28L38 28L38 26L39 26L39 31L40 31L40 30L41 30L41 28L40 28L40 26L41 26L41 23L39 23L39 24L40 24L40 26L39 26L39 25L36 25L36 24L37 24L37 23L38 23L38 21L39 21L39 20L38 20L38 19L39 19L39 18L41 18L41 16L40 16L40 17L39 17L39 16L38 16L38 13L36 13L36 15L35 15L35 17L34 17L34 16L33 16L33 17L31 17L31 15L30 15L30 16L29 16L29 15L28 15L28 16L29 16L29 17L31 17L31 18L30 18L30 19L31 19L31 20L30 20L30 21L31 21L31 22L27 22L27 24L28 24L28 23L30 23L30 24L29 24L29 25L28 25L28 26L27 26L27 25L25 25L25 24L26 24L26 23L25 23L25 22L24 22L24 21L23 21L23 20L24 20L24 19L23 19L23 20L22 20L22 18L23 18L23 16L22 16L22 17L21 17L21 15L24 15L24 16L25 16L25 17L24 17L24 18L25 18L25 19L26 19L26 20L25 20L25 21L26 21L26 20L27 20L27 21L29 21L29 20L27 20L27 19L28 19L28 18L27 18L27 17L26 17L26 15L25 15L25 14L29 14L29 13L30 13L30 14L31 14L31 12L32 12L32 13L33 13L33 14L32 14L32 15L34 15L34 13L35 13L35 9L36 9L36 10L37 10L37 11L36 11L36 12L38 12L38 11L39 11L39 13L40 13L40 14L39 14L39 15L40 15L40 14L41 14L41 13L40 13L40 10L41 10L41 8L38 8L38 9L40 9L40 10L37 10L37 9L36 9L36 8L33 8L33 6L32 6L32 7L31 7L31 5L32 5L32 4L33 4L33 3L32 3L32 2L33 2L33 0L29 0L29 1L27 1L27 0L26 0L26 1L27 1L27 2L26 2L26 3L28 3L28 4L29 4L29 3L32 3L32 4L30 4L30 7L31 7L31 8L32 8L32 9L30 9L30 8L29 8L29 5L27 5L27 4L26 4L26 5L27 5L27 6L26 6L26 7L25 7L25 6L24 6L24 7L25 7L25 8L24 8L24 9L23 9L23 5L25 5L25 2L23 2L23 1L22 1L22 2L20 2L20 3L21 3L21 5L20 5L20 4L19 4L19 1L21 1L21 0L17 0L17 1L18 1L18 2L15 2L15 1L16 1L16 0L15 0L15 1L14 1L14 3L12 3L12 2L13 2L13 1L12 1L12 2L11 2L11 0ZM30 1L30 2L32 2L32 1ZM9 2L9 3L10 3L10 2ZM17 3L17 5L19 5L19 7L18 7L18 6L17 6L17 7L18 7L18 8L17 8L17 9L16 9L16 10L15 10L15 9L14 9L14 8L13 8L13 9L12 9L12 8L11 8L11 7L10 7L10 8L11 8L11 10L14 10L14 11L13 11L13 12L14 12L14 13L13 13L13 14L11 14L11 13L10 13L10 15L8 15L8 14L9 14L9 12L8 12L8 14L7 14L7 13L3 13L3 14L2 14L2 15L1 15L1 17L2 17L2 18L1 18L1 20L2 20L2 21L3 21L3 20L2 20L2 18L3 18L3 17L5 17L5 16L3 16L3 14L7 14L7 15L6 15L6 16L7 16L7 17L6 17L6 18L4 18L4 21L5 21L5 22L7 22L7 23L6 23L6 24L9 24L9 23L11 23L11 22L12 22L12 20L13 20L13 19L12 19L12 20L11 20L11 17L9 17L9 16L12 16L12 17L13 17L13 18L14 18L14 20L15 20L15 19L17 19L17 18L18 18L18 17L19 17L19 19L18 19L18 20L16 20L16 24L15 24L15 26L16 26L16 27L15 27L15 28L16 28L16 30L18 30L18 31L20 31L20 32L19 32L19 33L18 33L18 32L16 32L16 33L17 33L17 34L16 34L16 37L15 37L15 36L13 36L13 35L14 35L14 34L13 34L13 35L12 35L12 37L15 37L15 38L18 38L18 37L17 37L17 35L19 35L19 37L20 37L20 36L21 36L21 35L22 35L22 36L23 36L23 37L22 37L22 39L23 39L23 38L25 38L25 36L23 36L23 35L24 35L24 34L25 34L25 35L27 35L27 34L28 34L28 35L29 35L29 33L27 33L27 32L26 32L26 31L27 31L27 30L26 30L26 29L27 29L27 28L28 28L28 27L26 27L26 28L25 28L25 26L23 26L23 25L24 25L24 24L25 24L25 23L24 23L24 22L23 22L23 21L22 21L22 23L24 23L24 24L23 24L23 25L22 25L22 24L20 24L20 25L19 25L19 26L20 26L20 27L19 27L19 28L17 28L17 27L18 27L18 24L17 24L17 23L18 23L18 22L19 22L19 21L18 21L18 20L20 20L20 23L21 23L21 20L20 20L20 19L21 19L21 17L20 17L20 15L21 15L21 14L25 14L25 13L27 13L27 12L28 12L28 13L29 13L29 12L30 12L30 11L32 11L32 12L33 12L33 13L34 13L34 12L33 12L33 11L34 11L34 9L32 9L32 10L30 10L30 9L27 9L27 8L28 8L28 6L27 6L27 7L26 7L26 9L25 9L25 13L24 13L24 11L23 11L23 10L22 10L22 9L21 9L21 7L22 7L22 5L23 5L23 4L24 4L24 3L23 3L23 4L22 4L22 5L21 5L21 7L20 7L20 5L19 5L19 4L18 4L18 3ZM19 7L19 8L18 8L18 9L17 9L17 10L16 10L16 11L15 11L15 12L16 12L16 11L17 11L17 12L18 12L18 11L17 11L17 10L18 10L18 9L19 9L19 10L20 10L20 12L21 12L21 13L23 13L23 12L22 12L22 10L20 10L20 7ZM9 9L9 11L10 11L10 9ZM26 10L26 11L28 11L28 10ZM29 10L29 11L30 11L30 10ZM6 11L6 12L7 12L7 11ZM14 13L14 14L13 14L13 15L12 15L12 16L13 16L13 17L15 17L15 18L16 18L16 17L15 17L15 16L16 16L16 15L17 15L17 17L18 17L18 16L19 16L19 15L18 15L18 14L17 14L17 13ZM14 14L14 15L13 15L13 16L14 16L14 15L16 15L16 14ZM36 16L36 17L35 17L35 19L34 19L34 18L31 18L31 19L33 19L33 20L31 20L31 21L33 21L33 23L32 23L32 22L31 22L31 23L32 23L32 24L31 24L31 25L30 25L30 26L29 26L29 28L30 28L30 29L28 29L28 30L29 30L29 31L28 31L28 32L31 32L31 30L32 30L32 29L33 29L33 28L32 28L32 27L33 27L33 26L31 26L31 25L35 25L35 26L36 26L36 27L37 27L37 26L36 26L36 25L35 25L35 24L36 24L36 23L35 23L35 22L36 22L36 21L35 21L35 19L36 19L36 20L37 20L37 21L38 21L38 20L37 20L37 18L39 18L39 17L38 17L38 16ZM36 17L36 18L37 18L37 17ZM6 18L6 19L7 19L7 18ZM26 18L26 19L27 19L27 18ZM8 19L8 20L10 20L10 19ZM5 20L5 21L7 21L7 22L8 22L8 23L9 23L9 22L8 22L8 21L7 21L7 20ZM33 20L33 21L34 21L34 22L35 22L35 21L34 21L34 20ZM40 20L40 21L41 21L41 20ZM14 21L14 23L15 23L15 21ZM2 22L2 23L3 23L3 22ZM12 23L12 24L10 24L10 25L11 25L11 28L12 28L12 26L14 26L14 24L13 24L13 23ZM33 23L33 24L35 24L35 23ZM12 24L12 25L13 25L13 24ZM16 25L16 26L17 26L17 25ZM21 25L21 28L20 28L20 29L23 29L23 31L22 31L22 30L20 30L20 31L22 31L22 33L21 33L21 34L20 34L20 35L21 35L21 34L24 34L24 32L25 32L25 33L26 33L26 34L27 34L27 33L26 33L26 32L25 32L25 31L26 31L26 30L24 30L24 29L23 29L23 28L22 28L22 25ZM6 27L6 28L5 28L5 30L7 30L7 29L8 29L8 28L7 28L7 27ZM6 28L6 29L7 29L7 28ZM30 29L30 30L31 30L31 29ZM13 30L13 31L12 31L12 32L13 32L13 33L15 33L15 32L14 32L14 30ZM6 31L6 32L7 32L7 31ZM23 31L23 32L24 32L24 31ZM37 32L37 33L38 33L38 34L37 34L37 36L40 36L40 35L38 35L38 34L39 34L39 33L38 33L38 32ZM30 33L30 35L31 35L31 33ZM33 33L33 36L36 36L36 33ZM34 34L34 35L35 35L35 34ZM34 37L34 38L36 38L36 37ZM19 38L19 40L20 40L20 38ZM37 38L37 39L38 39L38 38ZM32 39L32 40L27 40L27 41L32 41L32 40L33 40L33 41L34 41L34 40L33 40L33 39ZM9 40L9 41L11 41L11 40ZM25 40L25 41L26 41L26 40ZM0 0L0 7L7 7L7 0ZM1 1L1 6L6 6L6 1ZM2 2L2 5L5 5L5 2ZM34 0L34 7L41 7L41 0ZM35 1L35 6L40 6L40 1ZM36 2L36 5L39 5L39 2ZM0 34L0 41L7 41L7 34ZM1 35L1 40L6 40L6 35ZM2 36L2 39L5 39L5 36Z" fill="#000000"/></g></g></svg>
