<?xml version="1.0" encoding="UTF-8"?>
<svg xmlns="http://www.w3.org/2000/svg" version="1.1" width="200" height="200" viewBox="0 0 200 200"><rect x="0" y="0" width="200" height="200" fill="#ffffff"/><g transform="scale(4.878)"><g transform="translate(0,0)"><path fill-rule="evenodd" d="M8 0L8 1L10 1L10 2L8 2L8 3L9 3L9 4L8 4L8 5L9 5L9 6L8 6L8 8L9 8L9 10L6 10L6 9L7 9L7 8L5 8L5 9L4 9L4 10L2 10L2 11L1 11L1 9L0 9L0 11L1 11L1 12L0 12L0 13L1 13L1 14L3 14L3 13L1 13L1 12L2 12L2 11L3 11L3 12L4 12L4 13L5 13L5 14L4 14L4 15L5 15L5 14L6 14L6 15L7 15L7 16L5 16L5 17L3 17L3 15L2 15L2 17L0 17L0 19L2 19L2 21L1 21L1 20L0 20L0 21L1 21L1 22L0 22L0 23L1 23L1 25L0 25L0 27L7 27L7 28L5 28L5 30L4 30L4 31L5 31L5 32L3 32L3 28L1 28L1 29L0 29L0 33L1 33L1 31L2 31L2 33L5 33L5 32L6 32L6 33L8 33L8 34L9 34L9 35L8 35L8 36L9 36L9 39L10 39L10 41L12 41L12 40L13 40L13 39L14 39L14 41L17 41L17 39L18 39L18 40L19 40L19 39L21 39L21 41L25 41L25 40L26 40L26 41L31 41L31 40L32 40L32 39L31 39L31 38L28 38L28 36L27 36L27 35L29 35L29 34L28 34L28 33L27 33L27 35L26 35L26 33L25 33L25 32L29 32L29 33L31 33L31 34L30 34L30 35L32 35L32 36L29 36L29 37L36 37L36 38L34 38L34 39L33 39L33 41L34 41L34 40L36 40L36 39L37 39L37 37L38 37L38 38L39 38L39 39L38 39L38 40L39 40L39 39L40 39L40 40L41 40L41 39L40 39L40 38L41 38L41 36L40 36L40 34L39 34L39 36L40 36L40 38L39 38L39 37L38 37L38 34L37 34L37 33L41 33L41 32L40 32L40 31L41 31L41 29L40 29L40 28L39 28L39 27L40 27L40 26L41 26L41 25L36 25L36 26L35 26L35 24L36 24L36 23L35 23L35 24L33 24L33 26L32 26L32 25L29 25L29 24L26 24L26 23L24 23L24 21L23 21L23 22L22 22L22 26L23 26L23 24L26 24L26 25L27 25L27 27L26 27L26 26L25 26L25 25L24 25L24 28L25 28L25 27L26 27L26 28L27 28L27 29L26 29L26 30L27 30L27 29L28 29L28 31L25 31L25 30L24 30L24 29L23 29L23 28L22 28L22 29L23 29L23 30L24 30L24 31L22 31L22 32L21 32L21 29L20 29L20 28L21 28L21 27L20 27L20 26L21 26L21 22L20 22L20 23L19 23L19 21L18 21L18 20L17 20L17 22L16 22L16 23L17 23L17 24L18 24L18 25L17 25L17 27L18 27L18 25L19 25L19 28L18 28L18 31L16 31L16 30L17 30L17 28L16 28L16 25L15 25L15 29L14 29L14 28L12 28L12 27L13 27L13 26L14 26L14 24L13 24L13 23L10 23L10 24L9 24L9 23L8 23L8 21L9 21L9 22L11 22L11 21L10 21L10 20L11 20L11 19L12 19L12 20L13 20L13 21L12 21L12 22L15 22L15 21L14 21L14 19L15 19L15 20L16 20L16 19L17 19L17 18L18 18L18 19L20 19L20 20L21 20L21 21L22 21L22 20L23 20L23 19L24 19L24 20L25 20L25 19L26 19L26 20L27 20L27 21L26 21L26 22L27 22L27 23L30 23L30 24L31 24L31 23L30 23L30 22L32 22L32 23L33 23L33 22L34 22L34 19L33 19L33 22L32 22L32 20L31 20L31 19L32 19L32 17L34 17L34 18L35 18L35 20L36 20L36 21L35 21L35 22L36 22L36 21L38 21L38 22L41 22L41 20L40 20L40 19L41 19L41 15L39 15L39 14L38 14L38 13L40 13L40 14L41 14L41 12L40 12L40 9L41 9L41 8L40 8L40 9L39 9L39 8L38 8L38 10L37 10L37 8L36 8L36 9L35 9L35 8L34 8L34 9L35 9L35 10L36 10L36 12L34 12L34 10L32 10L32 9L31 9L31 8L33 8L33 6L32 6L32 7L31 7L31 6L30 6L30 8L29 8L29 9L31 9L31 10L32 10L32 11L31 11L31 12L30 12L30 14L27 14L27 15L26 15L26 16L27 16L27 18L24 18L24 17L25 17L25 16L24 16L24 15L23 15L23 16L24 16L24 17L22 17L22 18L23 18L23 19L20 19L20 18L18 18L18 17L21 17L21 16L22 16L22 15L21 15L21 14L23 14L23 13L24 13L24 14L25 14L25 13L28 13L28 12L29 12L29 11L30 11L30 10L29 10L29 11L28 11L28 7L29 7L29 5L28 5L28 7L27 7L27 6L26 6L26 7L25 7L25 5L26 5L26 4L25 4L25 3L26 3L26 2L27 2L27 4L28 4L28 3L29 3L29 1L30 1L30 2L31 2L31 1L30 1L30 0L28 0L28 2L27 2L27 1L25 1L25 0L22 0L22 2L24 2L24 4L25 4L25 5L22 5L22 7L21 7L21 2L20 2L20 3L19 3L19 4L18 4L18 1L19 1L19 0L18 0L18 1L13 1L13 0L11 0L11 1L10 1L10 0ZM20 0L20 1L21 1L21 0ZM32 0L32 3L33 3L33 0ZM10 2L10 4L9 4L9 5L10 5L10 4L12 4L12 6L11 6L11 7L10 7L10 6L9 6L9 7L10 7L10 8L11 8L11 9L12 9L12 8L11 8L11 7L12 7L12 6L13 6L13 8L14 8L14 9L13 9L13 10L12 10L12 11L6 11L6 10L4 10L4 12L5 12L5 13L6 13L6 14L7 14L7 13L9 13L9 15L10 15L10 18L9 18L9 16L8 16L8 18L7 18L7 17L6 17L6 18L7 18L7 19L6 19L6 20L5 20L5 18L4 18L4 20L3 20L3 22L1 22L1 23L2 23L2 25L1 25L1 26L3 26L3 25L5 25L5 26L7 26L7 27L8 27L8 26L9 26L9 28L8 28L8 30L9 30L9 28L11 28L11 29L12 29L12 28L11 28L11 27L12 27L12 26L13 26L13 24L12 24L12 25L9 25L9 24L8 24L8 23L6 23L6 24L7 24L7 25L5 25L5 22L7 22L7 21L6 21L6 20L7 20L7 19L8 19L8 18L9 18L9 19L10 19L10 18L13 18L13 19L14 19L14 17L15 17L15 19L16 19L16 18L17 18L17 17L16 17L16 16L18 16L18 15L19 15L19 16L20 16L20 15L19 15L19 14L21 14L21 13L23 13L23 11L24 11L24 12L26 12L26 11L27 11L27 7L26 7L26 11L24 11L24 10L25 10L25 7L24 7L24 6L23 6L23 7L22 7L22 8L21 8L21 7L20 7L20 5L18 5L18 4L14 4L14 5L17 5L17 7L16 7L16 6L15 6L15 8L14 8L14 6L13 6L13 4L12 4L12 3L11 3L11 2ZM13 2L13 3L14 3L14 2ZM15 2L15 3L16 3L16 2ZM22 3L22 4L23 4L23 3ZM30 3L30 4L31 4L31 5L32 5L32 4L31 4L31 3ZM18 6L18 7L17 7L17 8L18 8L18 7L19 7L19 6ZM23 7L23 9L24 9L24 7ZM19 8L19 9L18 9L18 10L17 10L17 9L16 9L16 10L17 10L17 11L16 11L16 12L15 12L15 13L14 13L14 15L15 15L15 16L16 16L16 14L19 14L19 11L20 11L20 13L21 13L21 11L23 11L23 10L22 10L22 9L21 9L21 8ZM14 9L14 10L13 10L13 11L12 11L12 12L11 12L11 13L10 13L10 15L12 15L12 14L13 14L13 12L14 12L14 11L15 11L15 9ZM20 9L20 11L21 11L21 9ZM38 11L38 12L39 12L39 11ZM6 12L6 13L7 13L7 12ZM16 12L16 13L15 13L15 14L16 14L16 13L18 13L18 12ZM36 12L36 13L34 13L34 15L35 15L35 14L36 14L36 13L37 13L37 12ZM11 13L11 14L12 14L12 13ZM31 13L31 14L30 14L30 15L29 15L29 16L28 16L28 15L27 15L27 16L28 16L28 19L27 19L27 20L28 20L28 22L30 22L30 21L31 21L31 20L28 20L28 19L31 19L31 17L30 17L30 18L29 18L29 16L31 16L31 14L32 14L32 16L33 16L33 14L32 14L32 13ZM0 15L0 16L1 16L1 15ZM37 15L37 16L36 16L36 17L35 17L35 16L34 16L34 17L35 17L35 18L36 18L36 20L39 20L39 21L40 21L40 20L39 20L39 19L38 19L38 18L39 18L39 17L40 17L40 16L39 16L39 17L37 17L37 16L38 16L38 15ZM12 16L12 17L14 17L14 16ZM36 17L36 18L37 18L37 17ZM3 22L3 23L4 23L4 22ZM39 23L39 24L41 24L41 23ZM19 24L19 25L20 25L20 24ZM29 26L29 27L27 27L27 28L28 28L28 29L29 29L29 28L30 28L30 29L31 29L31 30L32 30L32 31L31 31L31 33L32 33L32 32L33 32L33 31L34 31L34 32L36 32L36 31L35 31L35 30L36 30L36 29L37 29L37 32L39 32L39 30L40 30L40 29L39 29L39 28L36 28L36 29L34 29L34 28L35 28L35 27L34 27L34 26L33 26L33 27L32 27L32 26ZM38 26L38 27L39 27L39 26ZM32 28L32 29L33 29L33 28ZM6 29L6 30L7 30L7 29ZM19 29L19 30L20 30L20 29ZM11 30L11 32L12 32L12 33L11 33L11 34L13 34L13 37L14 37L14 38L15 38L15 40L16 40L16 37L17 37L17 38L22 38L22 37L23 37L23 38L24 38L24 37L25 37L25 35L24 35L24 34L23 34L23 36L22 36L22 35L21 35L21 36L20 36L20 37L18 37L18 36L17 36L17 34L18 34L18 32L15 32L15 30ZM6 31L6 32L7 32L7 31ZM12 31L12 32L13 32L13 31ZM19 31L19 32L20 32L20 31ZM24 31L24 32L23 32L23 33L24 33L24 32L25 32L25 31ZM29 31L29 32L30 32L30 31ZM8 32L8 33L9 33L9 32ZM14 32L14 34L15 34L15 35L14 35L14 37L15 37L15 35L16 35L16 33L15 33L15 32ZM19 33L19 35L20 35L20 33ZM21 33L21 34L22 34L22 33ZM33 33L33 36L36 36L36 33ZM34 34L34 35L35 35L35 34ZM10 36L10 37L11 37L11 36ZM23 36L23 37L24 37L24 36ZM26 37L26 40L28 40L28 39L27 39L27 37ZM11 38L11 39L12 39L12 38ZM22 39L22 40L25 40L25 39ZM29 39L29 40L31 40L31 39ZM0 0L0 7L7 7L7 0ZM1 1L1 6L6 6L6 1ZM2 2L2 5L5 5L5 2ZM34 0L34 7L41 7L41 0ZM35 1L35 6L40 6L40 1ZM36 2L36 5L39 5L39 2ZM0 34L0 41L7 41L7 34ZM1 35L1 40L6 40L6 35ZM2 36L2 39L5 39L5 36Z" fill="#000000"/></g></g></svg>
