<?xml version="1.0" encoding="UTF-8"?>
<svg xmlns="http://www.w3.org/2000/svg" version="1.1" width="200" height="200" viewBox="0 0 200 200"><rect x="0" y="0" width="200" height="200" fill="#ffffff"/><g transform="scale(4.878)"><g transform="translate(0,0)"><path fill-rule="evenodd" d="M8 0L8 2L9 2L9 3L8 3L8 7L9 7L9 9L7 9L7 8L6 8L6 9L7 9L7 10L6 10L6 11L5 11L5 13L3 13L3 12L4 12L4 10L5 10L5 9L4 9L4 8L3 8L3 10L2 10L2 9L1 9L1 11L0 11L0 12L1 12L1 13L3 13L3 16L2 16L2 14L0 14L0 15L1 15L1 16L2 16L2 17L0 17L0 19L2 19L2 21L3 21L3 18L4 18L4 22L5 22L5 21L7 21L7 22L6 22L6 23L5 23L5 24L6 24L6 25L7 25L7 26L6 26L6 27L7 27L7 28L6 28L6 29L7 29L7 28L8 28L8 30L5 30L5 29L4 29L4 28L5 28L5 26L4 26L4 23L3 23L3 22L2 22L2 23L3 23L3 26L4 26L4 28L2 28L2 27L1 27L1 26L2 26L2 25L1 25L1 24L0 24L0 27L1 27L1 28L2 28L2 29L1 29L1 30L0 30L0 31L1 31L1 30L3 30L3 31L2 31L2 33L4 33L4 32L5 32L5 33L8 33L8 34L9 34L9 37L8 37L8 38L9 38L9 41L11 41L11 40L12 40L12 37L13 37L13 41L15 41L15 40L14 40L14 39L16 39L16 38L15 38L15 37L16 37L16 36L17 36L17 37L21 37L21 38L20 38L20 40L19 40L19 41L20 41L20 40L21 40L21 41L22 41L22 39L23 39L23 41L24 41L24 40L25 40L25 41L27 41L27 40L25 40L25 39L26 39L26 37L23 37L23 36L26 36L26 35L27 35L27 36L28 36L28 37L29 37L29 38L28 38L28 39L29 39L29 40L28 40L28 41L33 41L33 39L32 39L32 38L33 38L33 37L34 37L34 38L36 38L36 40L37 40L37 41L40 41L40 39L41 39L41 38L40 38L40 37L41 37L41 36L40 36L40 37L38 37L38 36L39 36L39 35L38 35L38 34L37 34L37 33L39 33L39 34L41 34L41 29L39 29L39 28L37 28L37 29L38 29L38 31L39 31L39 30L40 30L40 33L39 33L39 32L36 32L36 31L34 31L34 30L32 30L32 29L33 29L33 26L32 26L32 25L31 25L31 24L28 24L28 25L30 25L30 26L29 26L29 28L28 28L28 27L27 27L27 25L26 25L26 26L25 26L25 25L24 25L24 24L25 24L25 22L26 22L26 24L27 24L27 20L29 20L29 22L28 22L28 23L30 23L30 22L31 22L31 23L33 23L33 24L34 24L34 25L35 25L35 24L34 24L34 22L35 22L35 23L37 23L37 24L38 24L38 25L37 25L37 26L34 26L34 27L38 27L38 26L39 26L39 25L40 25L40 24L41 24L41 23L40 23L40 22L39 22L39 23L38 23L38 21L40 21L40 20L41 20L41 16L39 16L39 17L38 17L38 16L37 16L37 17L38 17L38 18L37 18L37 19L36 19L36 21L35 21L35 19L34 19L34 18L35 18L35 17L36 17L36 15L37 15L37 14L38 14L38 13L39 13L39 12L40 12L40 11L38 11L38 13L37 13L37 14L36 14L36 13L34 13L34 12L36 12L36 11L35 11L35 10L36 10L36 9L37 9L37 10L38 10L38 8L35 8L35 9L34 9L34 10L33 10L33 9L32 9L32 10L30 10L30 9L29 9L29 8L30 8L30 7L31 7L31 6L32 6L32 7L33 7L33 5L31 5L31 4L32 4L32 2L31 2L31 1L33 1L33 0L31 0L31 1L30 1L30 0L27 0L27 2L26 2L26 3L25 3L25 4L24 4L24 1L23 1L23 0L21 0L21 1L23 1L23 2L21 2L21 5L22 5L22 4L23 4L23 5L24 5L24 8L26 8L26 7L27 7L27 8L28 8L28 10L30 10L30 12L28 12L28 13L27 13L27 12L26 12L26 11L25 11L25 14L24 14L24 13L23 13L23 14L24 14L24 15L25 15L25 16L26 16L26 14L27 14L27 15L28 15L28 16L27 16L27 17L26 17L26 18L25 18L25 17L23 17L23 15L22 15L22 18L21 18L21 19L20 19L20 18L18 18L18 17L17 17L17 19L16 19L16 20L15 20L15 21L11 21L11 22L10 22L10 24L11 24L11 25L10 25L10 28L8 28L8 27L9 27L9 26L8 26L8 25L9 25L9 23L8 23L8 25L7 25L7 24L6 24L6 23L7 23L7 22L8 22L8 21L10 21L10 20L14 20L14 19L11 19L11 18L6 18L6 19L7 19L7 20L5 20L5 16L4 16L4 15L5 15L5 14L6 14L6 15L7 15L7 16L6 16L6 17L7 17L7 16L8 16L8 17L10 17L10 16L8 16L8 14L10 14L10 13L12 13L12 14L11 14L11 17L12 17L12 16L13 16L13 18L14 18L14 15L16 15L16 16L15 16L15 18L16 18L16 16L20 16L20 17L21 17L21 16L20 16L20 13L19 13L19 12L18 12L18 11L17 11L17 10L19 10L19 11L20 11L20 12L21 12L21 11L22 11L22 12L24 12L24 11L22 11L22 10L23 10L23 9L22 9L22 10L21 10L21 9L20 9L20 8L21 8L21 6L20 6L20 0L18 0L18 1L19 1L19 3L18 3L18 4L17 4L17 3L15 3L15 4L12 4L12 3L13 3L13 2L15 2L15 1L14 1L14 0L12 0L12 1L13 1L13 2L12 2L12 3L11 3L11 2L9 2L9 1L11 1L11 0ZM16 0L16 2L17 2L17 0ZM28 1L28 2L27 2L27 3L26 3L26 4L25 4L25 5L27 5L27 4L28 4L28 6L27 6L27 7L28 7L28 8L29 8L29 7L30 7L30 6L29 6L29 5L30 5L30 4L28 4L28 3L30 3L30 1ZM9 3L9 7L10 7L10 9L9 9L9 11L10 11L10 12L8 12L8 11L6 11L6 12L8 12L8 13L10 13L10 12L11 12L11 11L10 11L10 9L11 9L11 10L13 10L13 11L12 11L12 13L14 13L14 14L16 14L16 15L17 15L17 14L18 14L18 15L19 15L19 13L14 13L14 12L17 12L17 11L16 11L16 6L17 6L17 8L18 8L18 9L19 9L19 8L20 8L20 6L19 6L19 8L18 8L18 5L17 5L17 4L15 4L15 5L11 5L11 7L10 7L10 4L11 4L11 3ZM15 5L15 6L14 6L14 8L13 8L13 10L14 10L14 9L15 9L15 6L16 6L16 5ZM12 6L12 7L13 7L13 6ZM22 6L22 7L23 7L23 6ZM25 6L25 7L26 7L26 6ZM28 6L28 7L29 7L29 6ZM39 8L39 9L40 9L40 10L41 10L41 8ZM25 9L25 10L26 10L26 9ZM20 10L20 11L21 11L21 10ZM32 10L32 11L31 11L31 13L30 13L30 17L29 17L29 16L28 16L28 17L27 17L27 19L26 19L26 20L27 20L27 19L28 19L28 18L29 18L29 19L30 19L30 18L31 18L31 22L34 22L34 19L33 19L33 17L35 17L35 15L34 15L34 14L33 14L33 12L32 12L32 11L33 11L33 10ZM13 11L13 12L14 12L14 11ZM6 13L6 14L7 14L7 13ZM21 13L21 14L22 14L22 13ZM28 13L28 14L29 14L29 13ZM12 14L12 15L13 15L13 14ZM32 14L32 15L31 15L31 17L33 17L33 16L32 16L32 15L33 15L33 14ZM40 14L40 15L41 15L41 14ZM3 16L3 17L2 17L2 18L3 18L3 17L4 17L4 16ZM22 18L22 20L21 20L21 21L20 21L20 22L18 22L18 23L17 23L17 22L16 22L16 21L15 21L15 22L13 22L13 23L11 23L11 24L12 24L12 25L11 25L11 28L10 28L10 29L9 29L9 30L8 30L8 31L9 31L9 32L10 32L10 31L11 31L11 28L12 28L12 29L13 29L13 30L12 30L12 31L13 31L13 32L15 32L15 33L16 33L16 34L14 34L14 37L15 37L15 36L16 36L16 35L17 35L17 36L18 36L18 35L21 35L21 36L23 36L23 33L22 33L22 32L24 32L24 31L23 31L23 30L25 30L25 34L27 34L27 35L28 35L28 36L29 36L29 37L30 37L30 38L29 38L29 39L30 39L30 38L31 38L31 37L32 37L32 36L31 36L31 35L32 35L32 33L31 33L31 34L30 34L30 32L27 32L27 33L26 33L26 29L27 29L27 28L25 28L25 27L24 27L24 25L22 25L22 24L21 24L21 25L19 25L19 23L20 23L20 22L21 22L21 21L22 21L22 22L23 22L23 24L24 24L24 22L25 22L25 20L23 20L23 19L24 19L24 18ZM38 18L38 20L37 20L37 21L36 21L36 22L37 22L37 21L38 21L38 20L40 20L40 19L39 19L39 18ZM9 19L9 20L10 20L10 19ZM18 19L18 20L17 20L17 21L19 21L19 20L20 20L20 19ZM32 19L32 21L33 21L33 19ZM0 20L0 21L1 21L1 20ZM7 20L7 21L8 21L8 20ZM23 21L23 22L24 22L24 21ZM15 22L15 24L17 24L17 25L16 25L16 26L15 26L15 27L14 27L14 26L13 26L13 28L15 28L15 29L16 29L16 28L15 28L15 27L16 27L16 26L17 26L17 28L18 28L18 29L19 29L19 30L20 30L20 31L22 31L22 30L23 30L23 29L22 29L22 30L21 30L21 26L20 26L20 27L19 27L19 26L17 26L17 25L18 25L18 24L17 24L17 23L16 23L16 22ZM22 26L22 28L23 28L23 26ZM30 26L30 27L32 27L32 26ZM40 26L40 28L41 28L41 26ZM30 28L30 29L28 29L28 30L27 30L27 31L31 31L31 28ZM35 28L35 29L36 29L36 28ZM4 30L4 31L3 31L3 32L4 32L4 31L5 31L5 32L7 32L7 31L5 31L5 30ZM15 30L15 31L16 31L16 32L17 32L17 34L19 34L19 31L18 31L18 30ZM17 31L17 32L18 32L18 31ZM33 31L33 32L34 32L34 31ZM0 32L0 33L1 33L1 32ZM20 32L20 33L21 33L21 34L22 34L22 33L21 33L21 32ZM10 33L10 37L9 37L9 38L10 38L10 37L12 37L12 36L13 36L13 33ZM33 33L33 36L36 36L36 33ZM28 34L28 35L29 35L29 36L30 36L30 34ZM34 34L34 35L35 35L35 34ZM22 37L22 38L21 38L21 39L22 39L22 38L23 38L23 39L25 39L25 38L23 38L23 37ZM36 37L36 38L37 38L37 40L38 40L38 38L37 38L37 37ZM18 38L18 39L17 39L17 41L18 41L18 39L19 39L19 38ZM39 38L39 39L40 39L40 38ZM10 39L10 40L11 40L11 39ZM31 39L31 40L32 40L32 39ZM0 0L0 7L7 7L7 0ZM1 1L1 6L6 6L6 1ZM2 2L2 5L5 5L5 2ZM34 0L34 7L41 7L41 0ZM35 1L35 6L40 6L40 1ZM36 2L36 5L39 5L39 2ZM0 34L0 41L7 41L7 34ZM1 35L1 40L6 40L6 35ZM2 36L2 39L5 39L5 36Z" fill="#000000"/></g></g></svg>
