<?xml version="1.0" encoding="UTF-8"?>
<svg xmlns="http://www.w3.org/2000/svg" version="1.1" width="200" height="200" viewBox="0 0 200 200"><rect x="0" y="0" width="200" height="200" fill="#ffffff"/><g transform="scale(6.897)"><g transform="translate(0,0)"><path fill-rule="evenodd" d="M10 0L10 2L12 2L12 4L11 4L11 3L10 3L10 4L11 4L11 5L12 5L12 4L13 4L13 6L12 6L12 7L11 7L11 6L10 6L10 8L9 8L9 6L8 6L8 8L6 8L6 9L10 9L10 10L9 10L9 12L8 12L8 13L7 13L7 12L5 12L5 11L8 11L8 10L4 10L4 8L2 8L2 10L4 10L4 11L3 11L3 12L2 12L2 11L1 11L1 9L0 9L0 13L3 13L3 14L2 14L2 16L1 16L1 14L0 14L0 16L1 16L1 18L0 18L0 19L1 19L1 18L2 18L2 17L3 17L3 15L4 15L4 16L6 16L6 17L5 17L5 18L4 18L4 19L7 19L7 20L3 20L3 19L2 19L2 20L1 20L1 21L7 21L7 20L9 20L9 21L8 21L8 23L9 23L9 21L10 21L10 20L11 20L11 18L12 18L12 21L11 21L11 23L10 23L10 24L9 24L9 25L8 25L8 27L9 27L9 28L11 28L11 29L14 29L14 27L13 27L13 26L15 26L15 27L17 27L17 28L18 28L18 29L20 29L20 28L18 28L18 26L17 26L17 25L19 25L19 26L20 26L20 25L23 25L23 26L24 26L24 27L22 27L22 29L23 29L23 28L26 28L26 27L27 27L27 28L29 28L29 26L28 26L28 27L27 27L27 26L26 26L26 27L25 27L25 26L24 26L24 25L26 25L26 23L25 23L25 22L26 22L26 20L27 20L27 21L28 21L28 20L27 20L27 19L26 19L26 18L29 18L29 17L26 17L26 16L25 16L25 15L24 15L24 16L23 16L23 17L21 17L21 18L20 18L20 17L19 17L19 18L20 18L20 20L19 20L19 19L18 19L18 20L19 20L19 21L20 21L20 23L17 23L17 25L16 25L16 24L15 24L15 23L14 23L14 24L13 24L13 25L12 25L12 23L13 23L13 22L12 22L12 21L13 21L13 20L15 20L15 19L16 19L16 20L17 20L17 18L18 18L18 16L19 16L19 15L20 15L20 14L21 14L21 13L20 13L20 12L22 12L22 9L23 9L23 13L22 13L22 15L23 15L23 14L24 14L24 13L25 13L25 14L26 14L26 15L27 15L27 16L28 16L28 15L29 15L29 14L28 14L28 12L29 12L29 11L28 11L28 12L27 12L27 10L29 10L29 9L27 9L27 10L24 10L24 9L25 9L25 8L24 8L24 9L23 9L23 8L21 8L21 9L20 9L20 7L21 7L21 3L20 3L20 2L18 2L18 1L17 1L17 2L18 2L18 4L19 4L19 5L16 5L16 4L17 4L17 3L15 3L15 1L16 1L16 0L15 0L15 1L14 1L14 2L12 2L12 0ZM13 3L13 4L15 4L15 3ZM19 3L19 4L20 4L20 3ZM8 4L8 5L9 5L9 4ZM14 5L14 6L13 6L13 7L14 7L14 8L15 8L15 9L14 9L14 12L13 12L13 11L12 11L12 13L11 13L11 12L10 12L10 13L11 13L11 15L10 15L10 14L9 14L9 15L8 15L8 14L7 14L7 13L5 13L5 15L6 15L6 16L7 16L7 17L6 17L6 18L7 18L7 17L8 17L8 16L9 16L9 17L12 17L12 16L13 16L13 19L14 19L14 18L16 18L16 17L15 17L15 16L13 16L13 15L12 15L12 14L13 14L13 13L16 13L16 14L15 14L15 15L17 15L17 12L20 12L20 11L19 11L19 10L20 10L20 9L19 9L19 10L18 10L18 8L19 8L19 7L20 7L20 5L19 5L19 7L18 7L18 6L17 6L17 9L16 9L16 8L15 8L15 7L16 7L16 6L15 6L15 5ZM14 6L14 7L15 7L15 6ZM12 8L12 9L11 9L11 10L10 10L10 11L11 11L11 10L12 10L12 9L13 9L13 8ZM17 10L17 11L15 11L15 12L17 12L17 11L18 11L18 10ZM25 11L25 13L27 13L27 12L26 12L26 11ZM3 12L3 13L4 13L4 12ZM19 13L19 14L18 14L18 15L19 15L19 14L20 14L20 13ZM6 14L6 15L7 15L7 14ZM27 14L27 15L28 15L28 14ZM11 15L11 16L12 16L12 15ZM24 16L24 17L23 17L23 18L22 18L22 19L21 19L21 20L22 20L22 19L24 19L24 18L26 18L26 17L25 17L25 16ZM8 18L8 19L9 19L9 18ZM14 21L14 22L18 22L18 21ZM21 21L21 24L24 24L24 21ZM22 22L22 23L23 23L23 22ZM27 23L27 25L29 25L29 24L28 24L28 23ZM19 24L19 25L20 25L20 24ZM9 25L9 27L12 27L12 25L11 25L11 26L10 26L10 25ZM15 28L15 29L16 29L16 28ZM0 0L0 7L7 7L7 0ZM1 1L1 6L6 6L6 1ZM2 2L2 5L5 5L5 2ZM22 0L22 7L29 7L29 0ZM23 1L23 6L28 6L28 1ZM24 2L24 5L27 5L27 2ZM0 22L0 29L7 29L7 22ZM1 23L1 28L6 28L6 23ZM2 24L2 27L5 27L5 24Z" fill="#000000"/></g></g></svg>
