<?xml version="1.0" encoding="UTF-8"?>
<svg xmlns="http://www.w3.org/2000/svg" version="1.1" width="200" height="200" viewBox="0 0 200 200"><rect x="0" y="0" width="200" height="200" fill="#ffffff"/><g transform="scale(4.878)"><g transform="translate(0,0)"><path fill-rule="evenodd" d="M8 0L8 3L11 3L11 2L13 2L13 1L11 1L11 2L10 2L10 0ZM16 0L16 1L15 1L15 2L14 2L14 3L13 3L13 4L12 4L12 5L10 5L10 4L9 4L9 5L8 5L8 9L9 9L9 10L6 10L6 9L7 9L7 8L6 8L6 9L5 9L5 8L2 8L2 9L3 9L3 11L2 11L2 12L1 12L1 13L2 13L2 14L0 14L0 15L3 15L3 17L2 17L2 16L0 16L0 20L1 20L1 23L0 23L0 24L1 24L1 23L2 23L2 26L1 26L1 27L0 27L0 28L1 28L1 29L0 29L0 33L1 33L1 29L2 29L2 33L8 33L8 34L9 34L9 35L10 35L10 34L11 34L11 35L12 35L12 36L11 36L11 37L9 37L9 36L8 36L8 39L9 39L9 38L10 38L10 39L11 39L11 40L10 40L10 41L11 41L11 40L12 40L12 41L13 41L13 40L15 40L15 39L13 39L13 38L12 38L12 37L13 37L13 36L14 36L14 37L15 37L15 38L16 38L16 39L17 39L17 40L19 40L19 39L17 39L17 37L18 37L18 38L19 38L19 36L20 36L20 35L21 35L21 36L24 36L24 35L21 35L21 34L25 34L25 32L24 32L24 30L23 30L23 31L22 31L22 30L21 30L21 29L23 29L23 28L24 28L24 29L25 29L25 28L24 28L24 26L25 26L25 27L26 27L26 28L27 28L27 31L26 31L26 33L28 33L28 34L27 34L27 36L25 36L25 38L24 38L24 37L21 37L21 38L20 38L20 40L21 40L21 38L24 38L24 40L25 40L25 41L26 41L26 40L28 40L28 41L32 41L32 40L33 40L33 41L34 41L34 40L33 40L33 39L32 39L32 38L34 38L34 39L35 39L35 40L36 40L36 39L37 39L37 40L40 40L40 38L41 38L41 37L40 37L40 36L41 36L41 35L40 35L40 34L41 34L41 33L39 33L39 32L41 32L41 31L40 31L40 30L41 30L41 28L39 28L39 32L37 32L37 31L38 31L38 30L37 30L37 29L35 29L35 30L34 30L34 31L35 31L35 32L33 32L33 31L32 31L32 30L33 30L33 29L34 29L34 28L33 28L33 29L32 29L32 30L30 30L30 29L31 29L31 28L32 28L32 27L34 27L34 26L36 26L36 27L35 27L35 28L38 28L38 26L39 26L39 27L40 27L40 26L41 26L41 23L39 23L39 24L40 24L40 26L39 26L39 25L34 25L34 24L35 24L35 23L36 23L36 24L37 24L37 22L38 22L38 21L39 21L39 20L36 20L36 19L35 19L35 17L36 17L36 18L38 18L38 19L40 19L40 18L41 18L41 16L40 16L40 18L38 18L38 17L39 17L39 16L38 16L38 15L39 15L39 14L41 14L41 13L40 13L40 10L41 10L41 8L38 8L38 9L40 9L40 10L37 10L37 9L36 9L36 8L33 8L33 9L31 9L31 5L32 5L32 7L33 7L33 5L32 5L32 4L33 4L33 2L32 2L32 4L30 4L30 5L29 5L29 4L28 4L28 5L27 5L27 4L22 4L22 3L21 3L21 1L22 1L22 0L21 0L21 1L20 1L20 3L19 3L19 1L18 1L18 0ZM23 0L23 1L24 1L24 2L25 2L25 1L24 1L24 0ZM26 0L26 1L27 1L27 2L26 2L26 3L31 3L31 2L30 2L30 0L29 0L29 1L27 1L27 0ZM31 0L31 1L32 1L32 0ZM14 3L14 4L13 4L13 5L12 5L12 6L11 6L11 7L10 7L10 5L9 5L9 7L10 7L10 9L11 9L11 7L12 7L12 6L13 6L13 8L14 8L14 10L15 10L15 11L16 11L16 12L20 12L20 13L22 13L22 12L21 12L21 11L23 11L23 16L26 16L26 17L24 17L24 18L23 18L23 19L22 19L22 18L21 18L21 17L19 17L19 16L22 16L22 15L21 15L21 14L20 14L20 15L19 15L19 16L18 16L18 15L17 15L17 14L16 14L16 15L15 15L15 12L14 12L14 11L13 11L13 13L12 13L12 10L13 10L13 9L12 9L12 10L10 10L10 11L8 11L8 12L10 12L10 13L11 13L11 14L8 14L8 15L4 15L4 14L7 14L7 13L4 13L4 12L2 12L2 13L3 13L3 15L4 15L4 18L5 18L5 16L7 16L7 17L6 17L6 18L7 18L7 19L4 19L4 21L2 21L2 22L3 22L3 24L4 24L4 25L3 25L3 26L2 26L2 27L1 27L1 28L3 28L3 29L5 29L5 30L3 30L3 32L5 32L5 31L6 31L6 32L7 32L7 31L6 31L6 30L8 30L8 28L9 28L9 29L10 29L10 31L8 31L8 32L10 32L10 31L13 31L13 32L11 32L11 34L12 34L12 33L13 33L13 34L14 34L14 35L15 35L15 37L16 37L16 36L17 36L17 35L16 35L16 34L15 34L15 33L17 33L17 32L19 32L19 34L18 34L18 36L19 36L19 34L20 34L20 33L22 33L22 31L21 31L21 32L19 32L19 31L17 31L17 30L18 30L18 29L14 29L14 30L15 30L15 32L14 32L14 31L13 31L13 30L11 30L11 29L13 29L13 28L14 28L14 26L18 26L18 20L16 20L16 21L15 21L15 19L18 19L18 17L19 17L19 19L20 19L20 20L21 20L21 19L22 19L22 20L24 20L24 19L25 19L25 18L28 18L28 19L26 19L26 20L25 20L25 22L24 22L24 21L23 21L23 22L21 22L21 21L20 21L20 23L19 23L19 25L20 25L20 24L21 24L21 27L20 27L20 26L19 26L19 27L20 27L20 28L19 28L19 29L20 29L20 28L21 28L21 27L22 27L22 25L25 25L25 26L28 26L28 28L31 28L31 27L32 27L32 26L31 26L31 25L33 25L33 26L34 26L34 25L33 25L33 24L32 24L32 22L31 22L31 21L33 21L33 22L34 22L34 23L35 23L35 22L36 22L36 21L35 21L35 19L34 19L34 18L33 18L33 20L32 20L32 18L31 18L31 17L33 17L33 16L34 16L34 17L35 17L35 16L36 16L36 17L38 17L38 16L36 16L36 15L38 15L38 14L39 14L39 11L38 11L38 12L36 12L36 11L37 11L37 10L36 10L36 11L35 11L35 13L34 13L34 12L33 12L33 13L32 13L32 11L34 11L34 10L31 10L31 9L30 9L30 10L28 10L28 9L29 9L29 8L30 8L30 6L29 6L29 5L28 5L28 6L27 6L27 5L26 5L26 6L25 6L25 7L24 7L24 5L23 5L23 7L22 7L22 6L21 6L21 7L20 7L20 4L21 4L21 5L22 5L22 4L21 4L21 3L20 3L20 4L19 4L19 3L18 3L18 4L19 4L19 7L20 7L20 8L19 8L19 9L18 9L18 11L16 11L16 10L17 10L17 7L18 7L18 6L17 6L17 5L16 5L16 4L17 4L17 3L16 3L16 4L15 4L15 3ZM14 4L14 5L13 5L13 6L14 6L14 8L16 8L16 7L17 7L17 6L16 6L16 5L15 5L15 4ZM15 6L15 7L16 7L16 6ZM26 6L26 7L25 7L25 8L26 8L26 7L27 7L27 9L26 9L26 12L27 12L27 13L26 13L26 14L24 14L24 15L26 15L26 16L27 16L27 14L29 14L29 15L28 15L28 16L29 16L29 17L31 17L31 16L29 16L29 15L31 15L31 10L30 10L30 12L29 12L29 11L28 11L28 10L27 10L27 9L28 9L28 8L29 8L29 6L28 6L28 7L27 7L27 6ZM23 7L23 9L24 9L24 12L25 12L25 9L24 9L24 7ZM20 8L20 10L21 10L21 8ZM0 9L0 10L1 10L1 9ZM15 9L15 10L16 10L16 9ZM6 11L6 12L7 12L7 11ZM28 12L28 13L29 13L29 14L30 14L30 13L29 13L29 12ZM33 13L33 14L32 14L32 15L34 15L34 13ZM36 13L36 14L38 14L38 13ZM11 14L11 15L8 15L8 17L7 17L7 18L8 18L8 19L7 19L7 20L6 20L6 21L7 21L7 22L6 22L6 23L4 23L4 24L5 24L5 26L3 26L3 27L4 27L4 28L6 28L6 29L7 29L7 28L6 28L6 27L8 27L8 26L6 26L6 25L7 25L7 24L6 24L6 23L7 23L7 22L8 22L8 23L10 23L10 22L8 22L8 19L9 19L9 18L8 18L8 17L9 17L9 16L10 16L10 18L11 18L11 19L12 19L12 18L13 18L13 22L11 22L11 24L10 24L10 25L9 25L9 24L8 24L8 25L9 25L9 28L10 28L10 29L11 29L11 28L13 28L13 27L11 27L11 25L12 25L12 26L14 26L14 25L12 25L12 23L14 23L14 24L15 24L15 23L17 23L17 22L15 22L15 21L14 21L14 19L15 19L15 18L16 18L16 16L17 16L17 15L16 15L16 16L15 16L15 15L14 15L14 16L15 16L15 18L13 18L13 17L12 17L12 16L13 16L13 15L12 15L12 14ZM1 17L1 18L2 18L2 19L1 19L1 20L2 20L2 19L3 19L3 18L2 18L2 17ZM11 17L11 18L12 18L12 17ZM30 18L30 19L31 19L31 18ZM28 19L28 20L27 20L27 21L26 21L26 22L25 22L25 24L27 24L27 25L28 25L28 26L30 26L30 25L31 25L31 24L29 24L29 25L28 25L28 24L27 24L27 23L30 23L30 22L27 22L27 21L29 21L29 19ZM9 20L9 21L10 21L10 20ZM30 20L30 21L31 21L31 20ZM33 20L33 21L34 21L34 22L35 22L35 21L34 21L34 20ZM40 20L40 21L41 21L41 20ZM26 22L26 23L27 23L27 22ZM21 23L21 24L22 24L22 23ZM23 23L23 24L24 24L24 23ZM5 26L5 27L6 27L6 26ZM10 27L10 28L11 28L11 27ZM16 27L16 28L18 28L18 27ZM28 29L28 30L29 30L29 31L28 31L28 33L29 33L29 32L31 32L31 31L30 31L30 30L29 30L29 29ZM36 30L36 31L37 31L37 30ZM13 32L13 33L14 33L14 32ZM23 32L23 33L24 33L24 32ZM9 33L9 34L10 34L10 33ZM30 33L30 35L31 35L31 36L28 36L28 37L26 37L26 38L25 38L25 40L26 40L26 39L27 39L27 38L28 38L28 37L29 37L29 39L28 39L28 40L32 40L32 39L31 39L31 38L32 38L32 35L31 35L31 33ZM33 33L33 36L36 36L36 33ZM37 33L37 34L39 34L39 33ZM34 34L34 35L35 35L35 34ZM38 35L38 36L37 36L37 37L38 37L38 36L40 36L40 35ZM30 37L30 38L31 38L31 37ZM34 37L34 38L36 38L36 37ZM37 38L37 39L38 39L38 38ZM12 39L12 40L13 40L13 39ZM22 40L22 41L23 41L23 40ZM0 0L0 7L7 7L7 0ZM1 1L1 6L6 6L6 1ZM2 2L2 5L5 5L5 2ZM34 0L34 7L41 7L41 0ZM35 1L35 6L40 6L40 1ZM36 2L36 5L39 5L39 2ZM0 34L0 41L7 41L7 34ZM1 35L1 40L6 40L6 35ZM2 36L2 39L5 39L5 36Z" fill="#000000"/></g></g></svg>
