<?xml version="1.0" encoding="UTF-8"?>
<svg xmlns="http://www.w3.org/2000/svg" version="1.1" width="200" height="200" viewBox="0 0 200 200"><rect x="0" y="0" width="200" height="200" fill="#ffffff"/><g transform="scale(6.897)"><g transform="translate(0,0)"><path fill-rule="evenodd" d="M9 0L9 1L8 1L8 7L9 7L9 8L5 8L5 9L7 9L7 10L6 10L6 11L5 11L5 10L3 10L3 8L2 8L2 9L0 9L0 10L2 10L2 12L1 12L1 11L0 11L0 12L1 12L1 14L2 14L2 13L4 13L4 15L1 15L1 16L4 16L4 17L5 17L5 18L4 18L4 19L3 19L3 17L1 17L1 18L0 18L0 19L3 19L3 20L4 20L4 21L5 21L5 20L4 20L4 19L5 19L5 18L6 18L6 19L7 19L7 20L6 20L6 21L7 21L7 20L9 20L9 19L10 19L10 22L11 22L11 23L10 23L10 25L9 25L9 26L8 26L8 27L9 27L9 28L10 28L10 29L15 29L15 28L18 28L18 29L21 29L21 28L20 28L20 27L22 27L22 26L21 26L21 25L25 25L25 28L24 28L24 26L23 26L23 28L22 28L22 29L23 29L23 28L24 28L24 29L25 29L25 28L26 28L26 29L29 29L29 26L26 26L26 25L28 25L28 24L26 24L26 25L25 25L25 23L26 23L26 21L27 21L27 18L28 18L28 17L29 17L29 16L27 16L27 17L25 17L25 18L24 18L24 16L23 16L23 15L25 15L25 14L26 14L26 13L29 13L29 12L27 12L27 11L29 11L29 9L28 9L28 8L23 8L23 9L28 9L28 10L27 10L27 11L25 11L25 10L22 10L22 11L21 11L21 12L18 12L18 11L20 11L20 10L19 10L19 8L21 8L21 9L22 9L22 8L21 8L21 3L19 3L19 4L16 4L16 5L14 5L14 4L15 4L15 3L14 3L14 4L13 4L13 3L12 3L12 4L11 4L11 3L10 3L10 2L13 2L13 0L12 0L12 1L11 1L11 0ZM16 0L16 1L15 1L15 2L16 2L16 1L19 1L19 2L20 2L20 0ZM9 1L9 2L10 2L10 1ZM17 2L17 3L18 3L18 2ZM12 4L12 5L11 5L11 7L10 7L10 5L9 5L9 7L10 7L10 8L9 8L9 9L8 9L8 10L9 10L9 11L10 11L10 10L11 10L11 11L12 11L12 12L13 12L13 14L12 14L12 15L10 15L10 14L9 14L9 15L10 15L10 16L11 16L11 17L12 17L12 16L13 16L13 18L12 18L12 19L13 19L13 20L12 20L12 21L11 21L11 22L12 22L12 23L13 23L13 26L14 26L14 25L15 25L15 22L14 22L14 21L15 21L15 20L16 20L16 18L18 18L18 19L17 19L17 21L19 21L19 22L18 22L18 23L17 23L17 22L16 22L16 23L17 23L17 25L19 25L19 24L20 24L20 23L19 23L19 22L20 22L20 20L19 20L19 19L20 19L20 17L18 17L18 16L17 16L17 17L15 17L15 19L14 19L14 16L13 16L13 14L15 14L15 16L16 16L16 15L18 15L18 14L15 14L15 13L17 13L17 11L18 11L18 10L17 10L17 9L16 9L16 6L17 6L17 8L18 8L18 6L19 6L19 7L20 7L20 6L19 6L19 5L20 5L20 4L19 4L19 5L16 5L16 6L15 6L15 7L14 7L14 5L13 5L13 4ZM12 5L12 9L11 9L11 10L12 10L12 9L13 9L13 12L14 12L14 13L15 13L15 11L16 11L16 10L15 10L15 9L13 9L13 8L14 8L14 7L13 7L13 5ZM14 10L14 11L15 11L15 10ZM6 11L6 12L4 12L4 13L5 13L5 14L7 14L7 15L4 15L4 16L5 16L5 17L6 17L6 18L7 18L7 17L6 17L6 16L7 16L7 15L8 15L8 14L7 14L7 13L8 13L8 12L7 12L7 11ZM23 11L23 14L22 14L22 12L21 12L21 13L19 13L19 14L21 14L21 15L19 15L19 16L21 16L21 18L23 18L23 16L22 16L22 15L23 15L23 14L25 14L25 13L24 13L24 12L25 12L25 11ZM6 12L6 13L7 13L7 12ZM9 12L9 13L11 13L11 12ZM27 14L27 15L29 15L29 14ZM8 16L8 17L9 17L9 16ZM8 18L8 19L9 19L9 18ZM25 18L25 19L23 19L23 20L25 20L25 19L26 19L26 18ZM21 19L21 20L22 20L22 19ZM0 20L0 21L2 21L2 20ZM8 21L8 24L9 24L9 21ZM21 21L21 24L24 24L24 21ZM22 22L22 23L23 23L23 22ZM28 22L28 23L29 23L29 22ZM11 24L11 26L12 26L12 24ZM16 26L16 27L18 27L18 28L19 28L19 27L20 27L20 26L19 26L19 27L18 27L18 26ZM12 27L12 28L13 28L13 27ZM26 27L26 28L28 28L28 27ZM0 0L0 7L7 7L7 0ZM1 1L1 6L6 6L6 1ZM2 2L2 5L5 5L5 2ZM22 0L22 7L29 7L29 0ZM23 1L23 6L28 6L28 1ZM24 2L24 5L27 5L27 2ZM0 22L0 29L7 29L7 22ZM1 23L1 28L6 28L6 23ZM2 24L2 27L5 27L5 24Z" fill="#000000"/></g></g></svg>
