<?xml version="1.0" encoding="UTF-8"?>
<svg xmlns="http://www.w3.org/2000/svg" version="1.1" width="200" height="200" viewBox="0 0 200 200"><rect x="0" y="0" width="200" height="200" fill="#ffffff"/><g transform="scale(4.878)"><g transform="translate(0,0)"><path fill-rule="evenodd" d="M8 0L8 3L9 3L9 4L10 4L10 5L11 5L11 6L10 6L10 7L9 7L9 5L8 5L8 9L7 9L7 8L6 8L6 9L5 9L5 8L2 8L2 10L1 10L1 9L0 9L0 11L1 11L1 12L0 12L0 13L1 13L1 14L0 14L0 16L1 16L1 17L2 17L2 16L3 16L3 15L4 15L4 17L7 17L7 18L4 18L4 20L5 20L5 19L9 19L9 18L10 18L10 20L8 20L8 21L7 21L7 20L6 20L6 21L7 21L7 22L5 22L5 21L4 21L4 23L3 23L3 22L2 22L2 19L3 19L3 18L0 18L0 20L1 20L1 22L0 22L0 26L1 26L1 27L2 27L2 28L0 28L0 33L1 33L1 29L2 29L2 30L3 30L3 29L2 29L2 28L5 28L5 27L7 27L7 26L5 26L5 25L4 25L4 23L7 23L7 24L6 24L6 25L8 25L8 28L9 28L9 26L10 26L10 27L11 27L11 29L12 29L12 30L10 30L10 29L7 29L7 28L6 28L6 29L7 29L7 30L6 30L6 31L7 31L7 32L5 32L5 29L4 29L4 31L2 31L2 32L5 32L5 33L7 33L7 32L8 32L8 34L10 34L10 33L11 33L11 32L10 32L10 33L9 33L9 31L12 31L12 30L13 30L13 29L12 29L12 25L10 25L10 24L9 24L9 25L8 25L8 21L11 21L11 22L9 22L9 23L11 23L11 22L12 22L12 21L14 21L14 22L15 22L15 23L14 23L14 24L13 24L13 23L12 23L12 24L13 24L13 25L14 25L14 26L15 26L15 28L14 28L14 29L15 29L15 28L16 28L16 27L19 27L19 29L16 29L16 30L19 30L19 32L18 32L18 31L16 31L16 32L18 32L18 33L17 33L17 36L16 36L16 35L14 35L14 36L12 36L12 37L9 37L9 36L10 36L10 35L9 35L9 36L8 36L8 39L9 39L9 38L10 38L10 39L11 39L11 40L10 40L10 41L11 41L11 40L12 40L12 41L13 41L13 40L14 40L14 39L15 39L15 40L16 40L16 41L17 41L17 40L16 40L16 39L15 39L15 37L16 37L16 38L17 38L17 39L18 39L18 38L20 38L20 37L21 37L21 38L22 38L22 35L23 35L23 34L22 34L22 35L20 35L20 31L22 31L22 32L21 32L21 33L24 33L24 34L25 34L25 35L24 35L24 36L25 36L25 35L26 35L26 34L27 34L27 36L26 36L26 37L23 37L23 38L26 38L26 39L28 39L28 38L27 38L27 36L28 36L28 37L29 37L29 36L28 36L28 35L29 35L29 33L31 33L31 29L33 29L33 30L32 30L32 31L33 31L33 30L34 30L34 31L36 31L36 32L32 32L32 34L30 34L30 35L31 35L31 36L30 36L30 37L31 37L31 38L30 38L30 40L29 40L29 41L30 41L30 40L31 40L31 41L32 41L32 40L33 40L33 41L34 41L34 40L33 40L33 39L32 39L32 38L34 38L34 39L35 39L35 40L36 40L36 39L38 39L38 38L39 38L39 40L40 40L40 38L41 38L41 36L40 36L40 34L41 34L41 33L40 33L40 32L41 32L41 31L40 31L40 30L41 30L41 29L40 29L40 28L41 28L41 27L40 27L40 26L41 26L41 23L40 23L40 26L39 26L39 24L37 24L37 25L36 25L36 23L33 23L33 22L32 22L32 21L34 21L34 22L36 22L36 21L37 21L37 23L39 23L39 22L38 22L38 21L39 21L39 20L38 20L38 19L40 19L40 18L41 18L41 16L40 16L40 18L38 18L38 17L39 17L39 16L38 16L38 15L36 15L36 14L37 14L37 13L36 13L36 14L35 14L35 17L34 17L34 16L33 16L33 15L34 15L34 14L33 14L33 13L34 13L34 12L33 12L33 13L32 13L32 14L31 14L31 10L32 10L32 11L34 11L34 10L36 10L36 11L37 11L37 12L38 12L38 11L40 11L40 10L41 10L41 8L38 8L38 9L40 9L40 10L37 10L37 9L36 9L36 8L33 8L33 5L32 5L32 4L33 4L33 3L32 3L32 4L31 4L31 3L30 3L30 4L31 4L31 5L29 5L29 4L28 4L28 5L27 5L27 6L26 6L26 7L25 7L25 5L26 5L26 4L27 4L27 3L29 3L29 1L27 1L27 0L24 0L24 1L23 1L23 2L22 2L22 1L21 1L21 0L20 0L20 3L21 3L21 5L22 5L22 9L23 9L23 10L21 10L21 6L20 6L20 7L19 7L19 6L18 6L18 7L17 7L17 5L18 5L18 4L19 4L19 3L18 3L18 4L17 4L17 5L16 5L16 2L19 2L19 0L16 0L16 2L15 2L15 0L12 0L12 2L11 2L11 1L10 1L10 2L9 2L9 0ZM30 0L30 2L31 2L31 1L32 1L32 2L33 2L33 0ZM10 2L10 4L11 4L11 5L13 5L13 7L14 7L14 6L15 6L15 8L16 8L16 10L13 10L13 9L14 9L14 8L13 8L13 9L12 9L12 10L13 10L13 11L16 11L16 12L17 12L17 11L16 11L16 10L19 10L19 9L17 9L17 8L16 8L16 5L14 5L14 4L15 4L15 2L14 2L14 4L13 4L13 3L12 3L12 4L11 4L11 2ZM23 2L23 3L25 3L25 4L24 4L24 5L23 5L23 7L24 7L24 5L25 5L25 4L26 4L26 3L27 3L27 2L26 2L26 3L25 3L25 2ZM28 5L28 6L27 6L27 7L26 7L26 8L25 8L25 9L24 9L24 8L23 8L23 9L24 9L24 10L23 10L23 11L22 11L22 13L21 13L21 14L20 14L20 11L19 11L19 14L18 14L18 15L17 15L17 14L14 14L14 16L13 16L13 13L15 13L15 12L13 12L13 13L12 13L12 12L9 12L9 10L7 10L7 9L6 9L6 10L7 10L7 11L5 11L5 9L3 9L3 10L2 10L2 11L3 11L3 12L2 12L2 14L3 14L3 12L4 12L4 11L5 11L5 12L7 12L7 11L8 11L8 12L9 12L9 14L8 14L8 13L6 13L6 14L7 14L7 15L6 15L6 16L7 16L7 17L10 17L10 15L12 15L12 16L11 16L11 17L12 17L12 16L13 16L13 17L14 17L14 18L13 18L13 19L14 19L14 20L16 20L16 19L18 19L18 20L17 20L17 21L18 21L18 23L19 23L19 22L20 22L20 20L21 20L21 21L22 21L22 22L21 22L21 23L20 23L20 24L18 24L18 26L19 26L19 27L20 27L20 26L21 26L21 28L20 28L20 29L21 29L21 28L22 28L22 31L23 31L23 32L26 32L26 31L27 31L27 34L28 34L28 33L29 33L29 32L30 32L30 31L29 31L29 30L30 30L30 29L31 29L31 28L33 28L33 29L34 29L34 30L36 30L36 29L38 29L38 30L37 30L37 32L39 32L39 26L38 26L38 28L36 28L36 29L34 29L34 28L33 28L33 27L34 27L34 25L35 25L35 26L36 26L36 27L37 27L37 26L36 26L36 25L35 25L35 24L34 24L34 25L32 25L32 22L31 22L31 25L30 25L30 26L29 26L29 25L26 25L26 26L28 26L28 27L29 27L29 28L28 28L28 29L29 29L29 30L26 30L26 31L25 31L25 29L24 29L24 31L23 31L23 28L22 28L22 25L23 25L23 26L24 26L24 25L25 25L25 23L24 23L24 22L25 22L25 20L26 20L26 21L27 21L27 22L28 22L28 23L29 23L29 24L30 24L30 23L29 23L29 22L30 22L30 21L32 21L32 20L34 20L34 21L36 21L36 20L37 20L37 21L38 21L38 20L37 20L37 18L36 18L36 17L38 17L38 16L36 16L36 17L35 17L35 19L34 19L34 18L33 18L33 19L32 19L32 18L30 18L30 19L31 19L31 20L28 20L28 21L27 21L27 18L29 18L29 16L30 16L30 17L31 17L31 15L30 15L30 13L28 13L28 14L29 14L29 15L28 15L28 17L27 17L27 16L26 16L26 17L27 17L27 18L24 18L24 17L25 17L25 15L27 15L27 11L26 11L26 10L30 10L30 9L33 9L33 8L30 8L30 6L29 6L29 5ZM31 5L31 7L32 7L32 5ZM11 6L11 7L10 7L10 8L9 8L9 9L10 9L10 10L11 10L11 9L10 9L10 8L12 8L12 6ZM28 6L28 8L26 8L26 9L30 9L30 8L29 8L29 6ZM18 7L18 8L19 8L19 7ZM24 10L24 11L23 11L23 12L24 12L24 11L25 11L25 10ZM29 11L29 12L30 12L30 11ZM39 12L39 13L38 13L38 14L39 14L39 15L40 15L40 14L41 14L41 12ZM4 13L4 15L5 15L5 13ZM22 13L22 14L21 14L21 15L20 15L20 14L19 14L19 16L17 16L17 15L16 15L16 17L18 17L18 19L19 19L19 18L20 18L20 19L21 19L21 20L22 20L22 19L23 19L23 20L24 20L24 18L23 18L23 17L24 17L24 14L23 14L23 13ZM25 13L25 14L26 14L26 13ZM39 13L39 14L40 14L40 13ZM22 14L22 16L23 16L23 14ZM32 14L32 15L33 15L33 14ZM1 15L1 16L2 16L2 15ZM8 15L8 16L9 16L9 15ZM19 16L19 17L20 17L20 16ZM32 16L32 17L33 17L33 16ZM21 17L21 19L22 19L22 17ZM14 18L14 19L16 19L16 18ZM11 19L11 21L12 21L12 19ZM35 19L35 20L36 20L36 19ZM18 20L18 21L19 21L19 20ZM40 20L40 21L41 21L41 20ZM15 21L15 22L16 22L16 23L15 23L15 25L16 25L16 26L17 26L17 22L16 22L16 21ZM23 21L23 22L24 22L24 21ZM28 21L28 22L29 22L29 21ZM1 22L1 24L2 24L2 25L1 25L1 26L3 26L3 24L2 24L2 22ZM21 23L21 24L20 24L20 25L22 25L22 23ZM23 23L23 24L24 24L24 23ZM26 23L26 24L27 24L27 23ZM31 25L31 26L32 26L32 25ZM4 26L4 27L5 27L5 26ZM24 27L24 28L26 28L26 29L27 29L27 28L26 28L26 27ZM29 28L29 29L30 29L30 28ZM7 30L7 31L9 31L9 30ZM14 30L14 33L12 33L12 34L11 34L11 35L12 35L12 34L15 34L15 30ZM28 31L28 32L29 32L29 31ZM18 33L18 34L19 34L19 33ZM33 33L33 36L36 36L36 33ZM37 33L37 34L38 34L38 35L37 35L37 36L39 36L39 33ZM34 34L34 35L35 35L35 34ZM17 36L17 38L18 38L18 36ZM19 36L19 37L20 37L20 36ZM31 36L31 37L32 37L32 36ZM34 37L34 38L36 38L36 37ZM37 37L37 38L38 38L38 37ZM11 38L11 39L12 39L12 38ZM13 38L13 39L14 39L14 38ZM20 39L20 40L19 40L19 41L21 41L21 40L22 40L22 41L23 41L23 40L24 40L24 41L25 41L25 40L24 40L24 39ZM31 39L31 40L32 40L32 39ZM27 40L27 41L28 41L28 40ZM0 0L0 7L7 7L7 0ZM1 1L1 6L6 6L6 1ZM2 2L2 5L5 5L5 2ZM34 0L34 7L41 7L41 0ZM35 1L35 6L40 6L40 1ZM36 2L36 5L39 5L39 2ZM0 34L0 41L7 41L7 34ZM1 35L1 40L6 40L6 35ZM2 36L2 39L5 39L5 36Z" fill="#000000"/></g></g></svg>
