<?xml version="1.0" encoding="UTF-8"?>
<svg xmlns="http://www.w3.org/2000/svg" version="1.1" width="200" height="200" viewBox="0 0 200 200"><rect x="0" y="0" width="200" height="200" fill="#ffffff"/><g transform="scale(4.878)"><g transform="translate(0,0)"><path fill-rule="evenodd" d="M8 0L8 3L9 3L9 5L8 5L8 9L7 9L7 8L6 8L6 9L7 9L7 10L6 10L6 11L7 11L7 12L6 12L6 13L5 13L5 14L4 14L4 12L5 12L5 10L4 10L4 12L2 12L2 10L3 10L3 9L5 9L5 8L2 8L2 10L1 10L1 12L0 12L0 13L1 13L1 14L0 14L0 17L1 17L1 18L0 18L0 21L1 21L1 22L2 22L2 21L3 21L3 24L4 24L4 25L2 25L2 23L0 23L0 27L1 27L1 25L2 25L2 27L3 27L3 28L1 28L1 29L0 29L0 33L1 33L1 30L3 30L3 29L5 29L5 31L7 31L7 32L5 32L5 33L7 33L7 32L9 32L9 33L8 33L8 34L9 34L9 35L10 35L10 33L11 33L11 36L8 36L8 39L9 39L9 41L11 41L11 38L12 38L12 41L19 41L19 39L17 39L17 38L19 38L19 37L21 37L21 38L20 38L20 40L21 40L21 41L24 41L24 40L23 40L23 39L24 39L24 38L25 38L25 37L21 37L21 36L22 36L22 34L23 34L23 36L26 36L26 37L29 37L29 38L26 38L26 39L25 39L25 40L28 40L28 41L32 41L32 40L33 40L33 41L34 41L34 40L33 40L33 39L35 39L35 40L36 40L36 39L37 39L37 40L40 40L40 38L41 38L41 37L40 37L40 34L41 34L41 33L40 33L40 32L41 32L41 31L40 31L40 30L41 30L41 28L39 28L39 32L37 32L37 31L36 31L36 32L33 32L33 31L32 31L32 30L33 30L33 29L34 29L34 28L33 28L33 29L32 29L32 30L31 30L31 33L30 33L30 32L28 32L28 31L30 31L30 30L28 30L28 29L31 29L31 28L32 28L32 27L31 27L31 28L29 28L29 26L30 26L30 25L31 25L31 26L33 26L33 27L34 27L34 26L36 26L36 28L35 28L35 29L36 29L36 30L38 30L38 29L36 29L36 28L38 28L38 26L39 26L39 27L40 27L40 26L41 26L41 23L39 23L39 24L40 24L40 26L39 26L39 25L34 25L34 24L35 24L35 23L36 23L36 24L37 24L37 23L38 23L38 21L39 21L39 20L36 20L36 19L35 19L35 17L36 17L36 18L37 18L37 19L38 19L38 18L37 18L37 17L39 17L39 18L41 18L41 16L40 16L40 17L39 17L39 16L37 16L37 14L38 14L38 15L39 15L39 14L41 14L41 13L40 13L40 12L39 12L39 14L38 14L38 13L36 13L36 14L35 14L35 17L34 17L34 16L33 16L33 17L31 17L31 12L29 12L29 13L28 13L28 11L29 11L29 10L27 10L27 11L25 11L25 10L24 10L24 11L25 11L25 12L20 12L20 13L19 13L19 12L18 12L18 13L19 13L19 14L18 14L18 16L20 16L20 15L19 15L19 14L21 14L21 15L22 15L22 18L23 18L23 20L22 20L22 22L21 22L21 21L20 21L20 22L19 22L19 19L20 19L20 18L21 18L21 17L20 17L20 18L18 18L18 19L16 19L16 17L17 17L17 16L15 16L15 14L14 14L14 15L11 15L11 16L12 16L12 17L9 17L9 16L8 16L8 17L9 17L9 18L8 18L8 21L9 21L9 20L10 20L10 22L11 22L11 20L13 20L13 22L12 22L12 23L14 23L14 24L13 24L13 25L11 25L11 24L10 24L10 25L11 25L11 26L10 26L10 28L9 28L9 24L8 24L8 23L7 23L7 22L4 22L4 21L5 21L5 20L6 20L6 21L7 21L7 20L6 20L6 19L7 19L7 18L6 18L6 19L4 19L4 21L3 21L3 18L2 18L2 16L1 16L1 15L3 15L3 16L4 16L4 15L8 15L8 14L6 14L6 13L9 13L9 14L11 14L11 13L12 13L12 14L13 14L13 13L14 13L14 11L13 11L13 10L16 10L16 11L18 11L18 10L19 10L19 11L20 11L20 8L21 8L21 10L22 10L22 8L23 8L23 9L25 9L25 8L27 8L27 9L30 9L30 10L32 10L32 11L33 11L33 12L32 12L32 13L33 13L33 14L32 14L32 15L34 15L34 13L35 13L35 11L36 11L36 12L38 12L38 11L40 11L40 10L41 10L41 8L38 8L38 9L40 9L40 10L37 10L37 9L36 9L36 8L33 8L33 6L32 6L32 9L30 9L30 8L31 8L31 6L30 6L30 5L32 5L32 4L33 4L33 3L32 3L32 2L33 2L33 0L29 0L29 1L27 1L27 0L26 0L26 1L27 1L27 2L26 2L26 3L28 3L28 4L29 4L29 3L32 3L32 4L30 4L30 5L29 5L29 6L28 6L28 5L27 5L27 4L23 4L23 5L27 5L27 6L26 6L26 7L25 7L25 6L24 6L24 8L23 8L23 6L22 6L22 3L23 3L23 2L22 2L22 1L23 1L23 0L22 0L22 1L21 1L21 0L18 0L18 1L16 1L16 0L15 0L15 1L14 1L14 0L12 0L12 1L11 1L11 0L10 0L10 1L9 1L9 0ZM24 0L24 1L25 1L25 0ZM10 1L10 2L9 2L9 3L11 3L11 1ZM13 1L13 5L12 5L12 4L11 4L11 5L10 5L10 6L9 6L9 9L8 9L8 10L7 10L7 11L8 11L8 12L9 12L9 13L10 13L10 12L12 12L12 11L10 11L10 10L9 10L9 9L10 9L10 6L11 6L11 8L12 8L12 9L13 9L13 8L14 8L14 6L15 6L15 7L16 7L16 6L17 6L17 8L16 8L16 10L18 10L18 9L19 9L19 8L20 8L20 6L21 6L21 7L22 7L22 6L21 6L21 5L20 5L20 4L21 4L21 3L22 3L22 2L21 2L21 3L20 3L20 4L19 4L19 1L18 1L18 4L17 4L17 2L14 2L14 1ZM30 1L30 2L32 2L32 1ZM24 2L24 3L25 3L25 2ZM14 3L14 4L15 4L15 6L16 6L16 3ZM18 5L18 8L17 8L17 9L18 9L18 8L19 8L19 6L20 6L20 5ZM12 6L12 7L13 7L13 6ZM27 6L27 7L28 7L28 8L30 8L30 6L29 6L29 7L28 7L28 6ZM32 9L32 10L33 10L33 11L34 11L34 9ZM35 9L35 10L36 10L36 9ZM1 12L1 13L2 13L2 12ZM15 12L15 13L16 13L16 15L17 15L17 12ZM25 12L25 14L27 14L27 17L26 17L26 15L24 15L24 14L23 14L23 13L22 13L22 14L23 14L23 16L24 16L24 19L25 19L25 20L23 20L23 22L22 22L22 23L21 23L21 22L20 22L20 23L19 23L19 22L17 22L17 21L18 21L18 20L17 20L17 21L16 21L16 20L14 20L14 19L15 19L15 18L14 18L14 17L15 17L15 16L13 16L13 17L12 17L12 18L13 18L13 20L14 20L14 22L15 22L15 23L16 23L16 22L17 22L17 25L16 25L16 24L15 24L15 25L14 25L14 27L15 27L15 28L16 28L16 27L20 27L20 28L21 28L21 29L20 29L20 30L21 30L21 31L22 31L22 33L23 33L23 34L26 34L26 33L27 33L27 34L28 34L28 35L29 35L29 33L27 33L27 32L26 32L26 31L22 31L22 26L23 26L23 30L27 30L27 28L26 28L26 26L28 26L28 25L29 25L29 24L31 24L31 25L33 25L33 26L34 26L34 25L33 25L33 24L31 24L31 23L35 23L35 22L36 22L36 21L35 21L35 19L34 19L34 18L31 18L31 17L29 17L29 16L30 16L30 15L29 15L29 14L30 14L30 13L29 13L29 14L27 14L27 12ZM33 12L33 13L34 13L34 12ZM28 15L28 16L29 16L29 15ZM6 16L6 17L7 17L7 16ZM36 16L36 17L37 17L37 16ZM4 17L4 18L5 18L5 17ZM1 18L1 19L2 19L2 18ZM9 18L9 19L10 19L10 20L11 20L11 18ZM25 18L25 19L27 19L27 20L28 20L28 21L29 21L29 20L28 20L28 19L29 19L29 18ZM30 18L30 19L31 19L31 20L30 20L30 21L31 21L31 22L33 22L33 21L34 21L34 22L35 22L35 21L34 21L34 20L33 20L33 21L31 21L31 20L32 20L32 19L31 19L31 18ZM25 20L25 22L24 22L24 24L23 24L23 23L22 23L22 24L20 24L20 27L21 27L21 25L22 25L22 24L23 24L23 26L25 26L25 25L24 25L24 24L25 24L25 23L26 23L26 25L28 25L28 24L29 24L29 23L28 23L28 22L27 22L27 23L26 23L26 20ZM40 20L40 21L41 21L41 20ZM15 21L15 22L16 22L16 21ZM6 23L6 24L5 24L5 25L4 25L4 26L3 26L3 27L4 27L4 26L7 26L7 27L5 27L5 29L6 29L6 30L7 30L7 29L8 29L8 30L10 30L10 29L11 29L11 28L12 28L12 30L13 30L13 29L14 29L14 28L12 28L12 27L13 27L13 26L12 26L12 27L11 27L11 28L10 28L10 29L8 29L8 24L7 24L7 23ZM27 23L27 24L28 24L28 23ZM6 24L6 25L7 25L7 24ZM18 24L18 25L17 25L17 26L18 26L18 25L19 25L19 24ZM15 25L15 27L16 27L16 25ZM6 28L6 29L7 29L7 28ZM17 28L17 29L18 29L18 33L17 33L17 34L16 34L16 35L17 35L17 37L18 37L18 35L19 35L19 36L21 36L21 35L19 35L19 34L20 34L20 33L19 33L19 28ZM24 28L24 29L25 29L25 28ZM15 29L15 33L16 33L16 32L17 32L17 30L16 30L16 29ZM34 30L34 31L35 31L35 30ZM3 31L3 32L2 32L2 33L3 33L3 32L4 32L4 31ZM12 31L12 32L11 32L11 33L12 33L12 32L14 32L14 31ZM24 32L24 33L26 33L26 32ZM18 33L18 34L17 34L17 35L18 35L18 34L19 34L19 33ZM31 33L31 34L30 34L30 35L31 35L31 34L32 34L32 33ZM33 33L33 36L36 36L36 33ZM38 33L38 34L39 34L39 33ZM12 34L12 36L11 36L11 37L12 37L12 38L13 38L13 37L14 37L14 35L15 35L15 34ZM34 34L34 35L35 35L35 34ZM37 35L37 36L39 36L39 35ZM15 36L15 38L14 38L14 39L13 39L13 40L16 40L16 39L15 39L15 38L16 38L16 36ZM29 36L29 37L31 37L31 38L32 38L32 39L31 39L31 40L32 40L32 39L33 39L33 38L36 38L36 37L33 37L33 38L32 38L32 36ZM21 38L21 40L22 40L22 38ZM29 38L29 39L28 39L28 40L30 40L30 38ZM37 38L37 39L38 39L38 38ZM0 0L0 7L7 7L7 0ZM1 1L1 6L6 6L6 1ZM2 2L2 5L5 5L5 2ZM34 0L34 7L41 7L41 0ZM35 1L35 6L40 6L40 1ZM36 2L36 5L39 5L39 2ZM0 34L0 41L7 41L7 34ZM1 35L1 40L6 40L6 35ZM2 36L2 39L5 39L5 36Z" fill="#000000"/></g></g></svg>
