<?xml version="1.0" encoding="UTF-8"?>
<svg xmlns="http://www.w3.org/2000/svg" version="1.1" width="200" height="200" viewBox="0 0 200 200"><rect x="0" y="0" width="200" height="200" fill="#ffffff"/><g transform="scale(4.878)"><g transform="translate(0,0)"><path fill-rule="evenodd" d="M8 0L8 3L9 3L9 2L13 2L13 0L12 0L12 1L11 1L11 0L10 0L10 1L9 1L9 0ZM20 0L20 1L19 1L19 2L18 2L18 1L17 1L17 2L18 2L18 4L17 4L17 5L15 5L15 6L14 6L14 8L13 8L13 9L14 9L14 10L10 10L10 9L11 9L11 6L12 6L12 7L13 7L13 6L12 6L12 5L14 5L14 4L16 4L16 1L14 1L14 2L15 2L15 3L13 3L13 4L11 4L11 3L10 3L10 4L9 4L9 5L8 5L8 9L9 9L9 10L8 10L8 11L9 11L9 10L10 10L10 12L11 12L11 13L10 13L10 14L11 14L11 13L12 13L12 14L16 14L16 13L18 13L18 14L17 14L17 15L21 15L21 19L20 19L20 18L19 18L19 17L20 17L20 16L18 16L18 18L17 18L17 16L15 16L15 15L13 15L13 16L12 16L12 17L11 17L11 15L10 15L10 17L8 17L8 16L9 16L9 15L7 15L7 14L9 14L9 12L6 12L6 11L7 11L7 10L6 10L6 9L7 9L7 8L6 8L6 9L5 9L5 8L2 8L2 9L3 9L3 11L2 11L2 10L1 10L1 9L0 9L0 11L1 11L1 12L2 12L2 15L3 15L3 16L2 16L2 19L1 19L1 21L0 21L0 25L1 25L1 22L2 22L2 23L4 23L4 24L2 24L2 25L4 25L4 26L5 26L5 28L4 28L4 27L3 27L3 26L1 26L1 27L0 27L0 28L1 28L1 27L2 27L2 29L3 29L3 30L4 30L4 31L5 31L5 32L6 32L6 33L8 33L8 34L10 34L10 35L11 35L11 37L13 37L13 33L14 33L14 36L15 36L15 37L14 37L14 38L13 38L13 39L12 39L12 41L14 41L14 38L15 38L15 39L20 39L20 40L21 40L21 41L23 41L23 40L21 40L21 39L23 39L23 38L24 38L24 40L25 40L25 39L26 39L26 40L28 40L28 41L31 41L31 40L33 40L33 41L34 41L34 40L33 40L33 39L35 39L35 40L36 40L36 39L37 39L37 40L40 40L40 38L41 38L41 37L40 37L40 36L37 36L37 35L40 35L40 34L41 34L41 33L39 33L39 32L41 32L41 31L40 31L40 30L41 30L41 29L40 29L40 26L41 26L41 23L39 23L39 24L40 24L40 26L39 26L39 25L34 25L34 24L35 24L35 23L36 23L36 24L37 24L37 23L38 23L38 21L39 21L39 20L36 20L36 19L35 19L35 17L36 17L36 18L37 18L37 19L40 19L40 18L41 18L41 16L40 16L40 18L37 18L37 17L39 17L39 16L37 16L37 15L36 15L36 16L35 16L35 17L34 17L34 16L32 16L32 17L31 17L31 12L32 12L32 13L33 13L33 14L32 14L32 15L34 15L34 13L35 13L35 12L38 12L38 11L40 11L40 12L39 12L39 13L40 13L40 14L38 14L38 15L40 15L40 14L41 14L41 13L40 13L40 12L41 12L41 11L40 11L40 10L41 10L41 8L38 8L38 9L40 9L40 10L37 10L37 9L36 9L36 8L33 8L33 6L32 6L32 9L30 9L30 8L29 8L29 9L28 9L28 7L29 7L29 5L30 5L30 7L31 7L31 5L32 5L32 4L33 4L33 1L32 1L32 0L31 0L31 1L32 1L32 4L29 4L29 3L31 3L31 2L30 2L30 0L29 0L29 1L27 1L27 0L26 0L26 1L27 1L27 2L26 2L26 3L28 3L28 4L29 4L29 5L27 5L27 4L25 4L25 0L24 0L24 2L23 2L23 3L22 3L22 0ZM23 3L23 4L19 4L19 5L17 5L17 7L16 7L16 6L15 6L15 7L16 7L16 8L14 8L14 9L15 9L15 10L14 10L14 11L11 11L11 12L13 12L13 13L15 13L15 10L16 10L16 8L17 8L17 10L18 10L18 11L16 11L16 12L18 12L18 13L19 13L19 12L20 12L20 11L19 11L19 9L20 9L20 10L21 10L21 8L22 8L22 9L23 9L23 7L24 7L24 8L25 8L25 7L26 7L26 6L27 6L27 7L28 7L28 6L27 6L27 5L26 5L26 6L25 6L25 4L24 4L24 3ZM23 4L23 5L20 5L20 7L19 7L19 6L18 6L18 7L19 7L19 8L20 8L20 7L21 7L21 6L22 6L22 7L23 7L23 6L24 6L24 7L25 7L25 6L24 6L24 4ZM9 5L9 7L10 7L10 5ZM4 9L4 10L5 10L5 9ZM24 9L24 11L23 11L23 12L24 12L24 13L23 13L23 14L24 14L24 13L26 13L26 15L22 15L22 17L24 17L24 19L26 19L26 18L29 18L29 19L27 19L27 20L29 20L29 21L26 21L26 20L25 20L25 21L23 21L23 18L22 18L22 19L21 19L21 20L20 20L20 19L19 19L19 20L18 20L18 19L16 19L16 18L15 18L15 19L14 19L14 21L15 21L15 24L16 24L16 23L17 23L17 22L16 22L16 20L18 20L18 21L19 21L19 23L18 23L18 25L19 25L19 26L18 26L18 27L21 27L21 26L22 26L22 24L23 24L23 25L24 25L24 26L23 26L23 27L24 27L24 29L25 29L25 31L27 31L27 30L26 30L26 29L28 29L28 30L29 30L29 31L28 31L28 33L27 33L27 34L28 34L28 33L29 33L29 32L30 32L30 33L31 33L31 31L30 31L30 30L32 30L32 31L33 31L33 32L36 32L36 31L34 31L34 30L36 30L36 29L37 29L37 32L39 32L39 31L38 31L38 30L39 30L39 26L38 26L38 28L36 28L36 27L35 27L35 26L34 26L34 25L33 25L33 24L34 24L34 23L35 23L35 22L36 22L36 21L35 21L35 19L34 19L34 18L33 18L33 17L32 17L32 18L31 18L31 17L29 17L29 16L30 16L30 13L29 13L29 12L31 12L31 11L32 11L32 12L33 12L33 13L34 13L34 12L33 12L33 11L34 11L34 10L33 10L33 9L32 9L32 10L31 10L31 11L30 11L30 10L28 10L28 9ZM27 10L27 11L26 11L26 13L27 13L27 14L29 14L29 13L28 13L28 12L29 12L29 11L28 11L28 10ZM32 10L32 11L33 11L33 10ZM35 10L35 11L36 11L36 10ZM3 11L3 12L5 12L5 13L4 13L4 14L3 14L3 15L5 15L5 16L7 16L7 15L6 15L6 14L7 14L7 13L6 13L6 12L5 12L5 11ZM24 11L24 12L25 12L25 11ZM27 11L27 12L28 12L28 11ZM21 12L21 14L22 14L22 12ZM0 13L0 15L1 15L1 13ZM36 13L36 14L37 14L37 13ZM28 15L28 16L29 16L29 15ZM25 16L25 17L26 17L26 16ZM36 16L36 17L37 17L37 16ZM3 17L3 19L4 19L4 20L5 20L5 21L2 21L2 22L4 22L4 23L5 23L5 26L7 26L7 27L6 27L6 28L7 28L7 27L8 27L8 29L4 29L4 30L8 30L8 29L9 29L9 31L6 31L6 32L8 32L8 33L10 33L10 32L12 32L12 31L13 31L13 30L12 30L12 31L10 31L10 29L11 29L11 24L12 24L12 29L13 29L13 27L14 27L14 30L15 30L15 29L16 29L16 30L17 30L17 29L19 29L19 31L17 31L17 33L16 33L16 32L15 32L15 31L14 31L14 33L16 33L16 35L15 35L15 36L16 36L16 37L15 37L15 38L16 38L16 37L17 37L17 36L18 36L18 38L19 38L19 37L21 37L21 36L22 36L22 38L23 38L23 37L25 37L25 38L26 38L26 39L27 39L27 38L29 38L29 39L28 39L28 40L30 40L30 38L29 38L29 37L32 37L32 38L31 38L31 39L32 39L32 38L36 38L36 37L32 37L32 35L31 35L31 34L30 34L30 35L31 35L31 36L29 36L29 35L28 35L28 36L29 36L29 37L27 37L27 38L26 38L26 32L24 32L24 31L23 31L23 30L20 30L20 29L19 29L19 28L17 28L17 29L16 29L16 28L15 28L15 27L17 27L17 25L16 25L16 26L15 26L15 25L14 25L14 24L12 24L12 22L13 22L13 23L14 23L14 22L13 22L13 21L12 21L12 20L13 20L13 17L12 17L12 18L11 18L11 20L10 20L10 19L6 19L6 18L7 18L7 17L5 17L5 18L4 18L4 17ZM30 18L30 19L31 19L31 20L30 20L30 21L31 21L31 22L32 22L32 23L31 23L31 24L29 24L29 23L28 23L28 22L26 22L26 21L25 21L25 22L26 22L26 24L25 24L25 28L28 28L28 29L31 29L31 28L32 28L32 27L31 27L31 28L28 28L28 26L30 26L30 25L31 25L31 26L33 26L33 27L34 27L34 26L33 26L33 25L31 25L31 24L33 24L33 23L34 23L34 22L35 22L35 21L34 21L34 20L33 20L33 19L31 19L31 18ZM5 19L5 20L6 20L6 21L5 21L5 23L7 23L7 24L6 24L6 25L7 25L7 24L8 24L8 26L9 26L9 29L10 29L10 26L9 26L9 24L10 24L10 23L9 23L9 21L10 21L10 20L8 20L8 23L7 23L7 22L6 22L6 21L7 21L7 20L6 20L6 19ZM31 20L31 21L33 21L33 22L34 22L34 21L33 21L33 20ZM40 20L40 21L41 21L41 20ZM11 21L11 22L12 22L12 21ZM20 21L20 22L21 22L21 23L19 23L19 25L20 25L20 26L21 26L21 24L22 24L22 23L24 23L24 22L23 22L23 21L22 21L22 22L21 22L21 21ZM8 23L8 24L9 24L9 23ZM26 24L26 25L27 25L27 26L28 26L28 25L29 25L29 24L28 24L28 25L27 25L27 24ZM13 25L13 26L14 26L14 27L15 27L15 26L14 26L14 25ZM21 28L21 29L23 29L23 28ZM33 28L33 29L32 29L32 30L33 30L33 29L34 29L34 28ZM35 28L35 29L36 29L36 28ZM0 29L0 33L1 33L1 29ZM9 31L9 32L10 32L10 31ZM22 31L22 32L23 32L23 31ZM19 32L19 33L18 33L18 34L19 34L19 36L20 36L20 35L21 35L21 34L20 34L20 32ZM11 33L11 35L12 35L12 33ZM22 33L22 36L25 36L25 34L23 34L23 33ZM33 33L33 36L36 36L36 33ZM38 33L38 34L39 34L39 33ZM34 34L34 35L35 35L35 34ZM8 36L8 39L9 39L9 38L10 38L10 40L9 40L9 41L10 41L10 40L11 40L11 38L10 38L10 37L9 37L9 36ZM37 38L37 39L38 39L38 38ZM17 40L17 41L18 41L18 40ZM0 0L0 7L7 7L7 0ZM1 1L1 6L6 6L6 1ZM2 2L2 5L5 5L5 2ZM34 0L34 7L41 7L41 0ZM35 1L35 6L40 6L40 1ZM36 2L36 5L39 5L39 2ZM0 34L0 41L7 41L7 34ZM1 35L1 40L6 40L6 35ZM2 36L2 39L5 39L5 36Z" fill="#000000"/></g></g></svg>
