<?xml version="1.0" encoding="UTF-8"?>
<svg xmlns="http://www.w3.org/2000/svg" version="1.1" width="200" height="200" viewBox="0 0 200 200"><rect x="0" y="0" width="200" height="200" fill="#ffffff"/><g transform="scale(4.878)"><g transform="translate(0,0)"><path fill-rule="evenodd" d="M10 0L10 1L9 1L9 2L8 2L8 4L12 4L12 5L11 5L11 6L10 6L10 5L9 5L9 6L8 6L8 7L9 7L9 8L10 8L10 9L12 9L12 8L13 8L13 12L12 12L12 13L13 13L13 14L11 14L11 15L13 15L13 16L14 16L14 17L16 17L16 18L15 18L15 20L14 20L14 22L13 22L13 21L12 21L12 20L13 20L13 19L14 19L14 18L13 18L13 19L12 19L12 18L11 18L11 17L10 17L10 18L11 18L11 19L9 19L9 20L8 20L8 21L7 21L7 20L4 20L4 18L3 18L3 17L5 17L5 18L6 18L6 19L8 19L8 17L9 17L9 16L6 16L6 15L8 15L8 13L9 13L9 14L10 14L10 13L11 13L11 12L10 12L10 10L9 10L9 11L8 11L8 12L6 12L6 11L7 11L7 10L6 10L6 9L8 9L8 8L6 8L6 9L5 9L5 8L3 8L3 10L2 10L2 9L0 9L0 12L1 12L1 13L0 13L0 14L1 14L1 15L2 15L2 16L0 16L0 19L1 19L1 18L3 18L3 20L1 20L1 21L0 21L0 22L1 22L1 23L3 23L3 24L4 24L4 22L2 22L2 21L3 21L3 20L4 20L4 21L7 21L7 22L5 22L5 23L7 23L7 22L8 22L8 24L5 24L5 25L8 25L8 24L10 24L10 27L9 27L9 28L10 28L10 29L11 29L11 28L13 28L13 29L14 29L14 30L15 30L15 31L13 31L13 32L12 32L12 33L11 33L11 35L9 35L9 32L11 32L11 31L10 31L10 30L9 30L9 29L8 29L8 30L6 30L6 31L7 31L7 32L5 32L5 33L8 33L8 35L9 35L9 36L8 36L8 38L9 38L9 40L10 40L10 41L11 41L11 38L12 38L12 41L13 41L13 40L14 40L14 41L17 41L17 40L16 40L16 39L17 39L17 38L18 38L18 37L17 37L17 35L18 35L18 36L19 36L19 37L20 37L20 36L21 36L21 35L20 35L20 34L19 34L19 35L18 35L18 34L17 34L17 35L15 35L15 34L16 34L16 33L13 33L13 32L17 32L17 33L19 33L19 32L20 32L20 31L24 31L24 30L25 30L25 29L26 29L26 28L27 28L27 27L28 27L28 30L26 30L26 31L28 31L28 30L31 30L31 29L29 29L29 26L30 26L30 25L32 25L32 26L31 26L31 28L32 28L32 31L33 31L33 32L32 32L32 33L30 33L30 32L31 32L31 31L30 31L30 32L27 32L27 35L25 35L25 37L24 37L24 32L21 32L21 33L22 33L22 35L23 35L23 36L22 36L22 37L21 37L21 38L20 38L20 39L18 39L18 41L21 41L21 40L22 40L22 41L24 41L24 40L25 40L25 41L29 41L29 39L30 39L30 41L34 41L34 40L35 40L35 41L36 41L36 39L37 39L37 40L38 40L38 41L39 41L39 40L38 40L38 39L40 39L40 40L41 40L41 35L40 35L40 34L39 34L39 33L40 33L40 32L39 32L39 31L41 31L41 30L39 30L39 28L41 28L41 25L39 25L39 24L37 24L37 22L38 22L38 23L39 23L39 22L41 22L41 21L39 21L39 20L40 20L40 19L41 19L41 18L40 18L40 17L41 17L41 12L40 12L40 9L39 9L39 8L37 8L37 9L36 9L36 10L37 10L37 11L36 11L36 12L35 12L35 13L36 13L36 14L37 14L37 15L35 15L35 14L33 14L33 13L32 13L32 12L31 12L31 11L29 11L29 9L31 9L31 10L34 10L34 11L35 11L35 10L34 10L34 9L33 9L33 6L32 6L32 7L31 7L31 6L30 6L30 8L29 8L29 9L28 9L28 8L26 8L26 7L27 7L27 6L26 6L26 7L25 7L25 6L24 6L24 4L25 4L25 5L26 5L26 4L28 4L28 2L29 2L29 3L32 3L32 4L29 4L29 5L32 5L32 4L33 4L33 2L32 2L32 1L33 1L33 0L32 0L32 1L31 1L31 2L30 2L30 1L29 1L29 0L28 0L28 2L27 2L27 1L26 1L26 0L25 0L25 1L22 1L22 0L18 0L18 1L17 1L17 0L12 0L12 1L15 1L15 2L16 2L16 1L17 1L17 3L18 3L18 5L19 5L19 6L18 6L18 8L17 8L17 9L19 9L19 8L20 8L20 7L21 7L21 6L22 6L22 7L23 7L23 8L26 8L26 9L27 9L27 10L26 10L26 11L27 11L27 12L25 12L25 14L27 14L27 13L28 13L28 15L24 15L24 13L23 13L23 15L21 15L21 14L22 14L22 13L21 13L21 11L20 11L20 10L23 10L23 12L24 12L24 9L20 9L20 10L16 10L16 7L17 7L17 5L14 5L14 7L13 7L13 3L14 3L14 2L11 2L11 0ZM19 1L19 2L18 2L18 3L19 3L19 4L20 4L20 6L19 6L19 7L20 7L20 6L21 6L21 4L22 4L22 6L23 6L23 7L24 7L24 6L23 6L23 3L24 3L24 2L22 2L22 3L21 3L21 1ZM19 2L19 3L20 3L20 2ZM15 3L15 4L16 4L16 3ZM25 3L25 4L26 4L26 3ZM9 6L9 7L10 7L10 8L12 8L12 6L11 6L11 7L10 7L10 6ZM15 6L15 7L16 7L16 6ZM28 6L28 7L29 7L29 6ZM4 9L4 10L3 10L3 11L2 11L2 12L3 12L3 11L4 11L4 13L3 13L3 14L2 14L2 15L3 15L3 16L2 16L2 17L3 17L3 16L4 16L4 15L5 15L5 14L7 14L7 13L6 13L6 12L5 12L5 11L6 11L6 10L5 10L5 9ZM14 9L14 12L16 12L16 11L15 11L15 9ZM37 9L37 10L38 10L38 12L39 12L39 13L40 13L40 12L39 12L39 10L38 10L38 9ZM4 10L4 11L5 11L5 10ZM11 10L11 11L12 11L12 10ZM19 11L19 13L18 13L18 14L19 14L19 13L20 13L20 11ZM9 12L9 13L10 13L10 12ZM29 12L29 15L28 15L28 16L24 16L24 15L23 15L23 17L22 17L22 16L21 16L21 15L19 15L19 16L20 16L20 19L23 19L23 20L22 20L22 21L23 21L23 20L24 20L24 21L25 21L25 22L26 22L26 23L24 23L24 26L22 26L22 25L21 25L21 24L22 24L22 23L20 23L20 22L21 22L21 20L20 20L20 22L19 22L19 21L17 21L17 22L18 22L18 23L16 23L16 22L15 22L15 23L16 23L16 24L15 24L15 25L16 25L16 24L17 24L17 27L18 27L18 28L17 28L17 29L18 29L18 31L19 31L19 30L20 30L20 28L21 28L21 30L22 30L22 29L23 29L23 30L24 30L24 29L25 29L25 28L24 28L24 27L27 27L27 26L25 26L25 25L26 25L26 24L29 24L29 25L30 25L30 24L32 24L32 25L33 25L33 26L32 26L32 28L33 28L33 26L34 26L34 23L36 23L36 21L34 21L34 23L33 23L33 22L31 22L31 21L30 21L30 20L32 20L32 19L28 19L28 21L29 21L29 23L27 23L27 22L26 22L26 21L27 21L27 20L26 20L26 21L25 21L25 19L27 19L27 17L30 17L30 18L31 18L31 17L32 17L32 18L33 18L33 19L34 19L34 20L35 20L35 17L37 17L37 16L38 16L38 19L39 19L39 17L40 17L40 16L38 16L38 15L37 15L37 16L34 16L34 17L33 17L33 16L32 16L32 15L31 15L31 14L30 14L30 12ZM36 12L36 13L37 13L37 12ZM4 13L4 14L5 14L5 13ZM14 13L14 14L15 14L15 13ZM14 15L14 16L15 16L15 15ZM16 15L16 16L17 16L17 18L16 18L16 20L19 20L19 17L18 17L18 15ZM30 15L30 17L31 17L31 15ZM6 17L6 18L7 18L7 17ZM21 17L21 18L22 18L22 17ZM24 17L24 19L25 19L25 18L26 18L26 17ZM17 18L17 19L18 19L18 18ZM36 18L36 20L37 20L37 21L38 21L38 20L37 20L37 18ZM10 20L10 21L9 21L9 23L10 23L10 24L11 24L11 27L10 27L10 28L11 28L11 27L12 27L12 26L14 26L14 25L12 25L12 24L14 24L14 23L13 23L13 22L12 22L12 21L11 21L11 20ZM10 21L10 23L11 23L11 21ZM29 23L29 24L30 24L30 23ZM1 24L1 25L2 25L2 24ZM18 24L18 25L19 25L19 26L20 26L20 27L21 27L21 26L20 26L20 24ZM35 24L35 27L36 27L36 25L37 25L37 27L39 27L39 25L37 25L37 24ZM3 25L3 26L4 26L4 27L5 27L5 28L1 28L1 29L0 29L0 33L2 33L2 31L4 31L4 30L5 30L5 28L6 28L6 29L7 29L7 28L8 28L8 26L6 26L6 27L5 27L5 26L4 26L4 25ZM15 26L15 27L16 27L16 26ZM6 27L6 28L7 28L7 27ZM22 27L22 28L23 28L23 29L24 29L24 28L23 28L23 27ZM15 28L15 30L16 30L16 31L17 31L17 30L16 30L16 28ZM34 28L34 29L35 29L35 30L33 30L33 31L34 31L34 32L35 32L35 31L38 31L38 28L36 28L36 29L35 29L35 28ZM2 29L2 30L4 30L4 29ZM36 29L36 30L37 30L37 29ZM3 32L3 33L4 33L4 32ZM25 32L25 34L26 34L26 32ZM37 32L37 34L38 34L38 32ZM28 33L28 35L27 35L27 36L26 36L26 40L27 40L27 36L28 36L28 38L30 38L30 37L31 37L31 36L32 36L32 35L31 35L31 34L29 34L29 33ZM33 33L33 36L36 36L36 33ZM13 34L13 35L12 35L12 36L9 36L9 37L10 37L10 38L11 38L11 37L12 37L12 38L14 38L14 40L15 40L15 39L16 39L16 38L17 38L17 37L16 37L16 36L15 36L15 37L13 37L13 35L14 35L14 34ZM34 34L34 35L35 35L35 34ZM19 35L19 36L20 36L20 35ZM30 35L30 36L29 36L29 37L30 37L30 36L31 36L31 35ZM38 35L38 37L37 37L37 38L40 38L40 36L39 36L39 35ZM32 37L32 39L31 39L31 40L33 40L33 37ZM34 37L34 39L35 39L35 38L36 38L36 37ZM21 38L21 39L20 39L20 40L21 40L21 39L23 39L23 40L24 40L24 39L25 39L25 38L24 38L24 39L23 39L23 38ZM0 0L0 7L7 7L7 0ZM1 1L1 6L6 6L6 1ZM2 2L2 5L5 5L5 2ZM34 0L34 7L41 7L41 0ZM35 1L35 6L40 6L40 1ZM36 2L36 5L39 5L39 2ZM0 34L0 41L7 41L7 34ZM1 35L1 40L6 40L6 35ZM2 36L2 39L5 39L5 36Z" fill="#000000"/></g></g></svg>
