<?xml version="1.0" encoding="UTF-8"?>
<svg xmlns="http://www.w3.org/2000/svg" version="1.1" width="200" height="200" viewBox="0 0 200 200"><rect x="0" y="0" width="200" height="200" fill="#ffffff"/><g transform="scale(4.878)"><g transform="translate(0,0)"><path fill-rule="evenodd" d="M8 0L8 3L9 3L9 1L10 1L10 3L11 3L11 4L10 4L10 5L11 5L11 6L10 6L10 7L9 7L9 5L8 5L8 10L5 10L5 8L2 8L2 9L4 9L4 11L3 11L3 10L0 10L0 11L1 11L1 12L0 12L0 13L1 13L1 14L0 14L0 15L1 15L1 14L2 14L2 15L4 15L4 16L5 16L5 17L8 17L8 19L7 19L7 18L6 18L6 19L7 19L7 20L6 20L6 21L7 21L7 20L8 20L8 21L10 21L10 22L6 22L6 23L7 23L7 24L5 24L5 25L3 25L3 26L2 26L2 24L3 24L3 23L5 23L5 22L3 22L3 21L5 21L5 19L4 19L4 18L3 18L3 16L2 16L2 18L0 18L0 23L1 23L1 22L2 22L2 24L1 24L1 26L0 26L0 27L4 27L4 28L3 28L3 30L2 30L2 31L5 31L5 30L6 30L6 31L9 31L9 30L10 30L10 29L9 29L9 30L6 30L6 29L7 29L7 28L6 28L6 29L5 29L5 26L6 26L6 27L8 27L8 28L9 28L9 27L8 27L8 26L9 26L9 25L12 25L12 26L13 26L13 30L11 30L11 31L10 31L10 32L8 32L8 34L9 34L9 36L8 36L8 39L9 39L9 40L10 40L10 39L11 39L11 40L14 40L14 41L16 41L16 39L17 39L17 40L19 40L19 39L20 39L20 35L17 35L17 34L16 34L16 33L18 33L18 34L21 34L21 35L22 35L22 34L23 34L23 32L24 32L24 33L29 33L29 35L28 35L28 34L27 34L27 35L23 35L23 37L22 37L22 38L24 38L24 41L25 41L25 38L26 38L26 41L27 41L27 40L28 40L28 38L27 38L27 37L29 37L29 36L32 36L32 38L31 38L31 37L30 37L30 38L29 38L29 39L30 39L30 38L31 38L31 39L32 39L32 40L31 40L31 41L32 41L32 40L33 40L33 41L34 41L34 40L33 40L33 39L35 39L35 40L36 40L36 39L37 39L37 40L40 40L40 38L41 38L41 36L40 36L40 34L41 34L41 33L40 33L40 32L41 32L41 31L40 31L40 30L41 30L41 29L39 29L39 32L38 32L38 29L35 29L35 30L34 30L34 31L36 31L36 32L33 32L33 31L32 31L32 30L33 30L33 29L34 29L34 28L33 28L33 29L32 29L32 30L31 30L31 31L30 31L30 30L28 30L28 29L31 29L31 28L32 28L32 27L34 27L34 26L35 26L35 27L36 27L36 28L38 28L38 26L39 26L39 28L40 28L40 26L41 26L41 23L39 23L39 24L40 24L40 26L39 26L39 25L36 25L36 24L37 24L37 21L38 21L38 22L39 22L39 20L36 20L36 19L35 19L35 17L36 17L36 18L37 18L37 19L39 19L39 18L41 18L41 16L40 16L40 17L39 17L39 16L37 16L37 13L36 13L36 14L35 14L35 15L36 15L36 16L35 16L35 17L34 17L34 16L32 16L32 17L30 17L30 16L31 16L31 13L33 13L33 14L32 14L32 15L34 15L34 13L35 13L35 12L38 12L38 11L40 11L40 10L41 10L41 8L38 8L38 9L40 9L40 10L37 10L37 9L36 9L36 8L33 8L33 9L31 9L31 8L32 8L32 7L33 7L33 4L32 4L32 3L31 3L31 2L30 2L30 0L29 0L29 1L27 1L27 0L26 0L26 1L27 1L27 2L26 2L26 3L28 3L28 4L29 4L29 3L31 3L31 4L30 4L30 5L29 5L29 6L28 6L28 5L27 5L27 4L25 4L25 0L20 0L20 1L19 1L19 2L20 2L20 3L19 3L19 4L20 4L20 7L21 7L21 6L22 6L22 7L23 7L23 5L24 5L24 4L25 4L25 6L24 6L24 7L25 7L25 8L26 8L26 7L27 7L27 6L28 6L28 7L29 7L29 6L30 6L30 7L31 7L31 8L27 8L27 9L25 9L25 10L26 10L26 11L23 11L23 8L22 8L22 9L20 9L20 8L19 8L19 9L20 9L20 10L19 10L19 11L20 11L20 12L19 12L19 13L18 13L18 10L17 10L17 8L15 8L15 4L14 4L14 1L13 1L13 0L11 0L11 1L10 1L10 0ZM31 0L31 1L32 1L32 0ZM11 1L11 2L12 2L12 6L11 6L11 7L12 7L12 8L14 8L14 6L13 6L13 5L14 5L14 4L13 4L13 2L12 2L12 1ZM15 1L15 2L16 2L16 1ZM22 1L22 2L21 2L21 3L20 3L20 4L21 4L21 5L22 5L22 4L24 4L24 2L23 2L23 1ZM17 2L17 3L18 3L18 2ZM22 2L22 3L23 3L23 2ZM16 4L16 7L17 7L17 5L18 5L18 7L19 7L19 5L18 5L18 4ZM26 5L26 6L25 6L25 7L26 7L26 6L27 6L27 5ZM31 5L31 7L32 7L32 5ZM12 6L12 7L13 7L13 6ZM6 8L6 9L7 9L7 8ZM10 8L10 10L8 10L8 12L7 12L7 11L5 11L5 12L2 12L2 13L3 13L3 14L5 14L5 15L6 15L6 16L7 16L7 15L6 15L6 14L9 14L9 15L8 15L8 17L9 17L9 18L10 18L10 17L11 17L11 19L10 19L10 20L11 20L11 19L12 19L12 21L11 21L11 22L10 22L10 24L11 24L11 23L12 23L12 25L13 25L13 23L14 23L14 21L15 21L15 19L16 19L16 17L15 17L15 16L16 16L16 13L17 13L17 16L18 16L18 15L19 15L19 16L20 16L20 15L21 15L21 17L20 17L20 18L19 18L19 17L18 17L18 18L17 18L17 19L18 19L18 20L17 20L17 21L16 21L16 22L15 22L15 23L16 23L16 22L17 22L17 23L18 23L18 22L17 22L17 21L18 21L18 20L19 20L19 19L22 19L22 20L21 20L21 21L20 21L20 22L19 22L19 24L17 24L17 25L18 25L18 26L19 26L19 27L17 27L17 29L16 29L16 28L15 28L15 26L16 26L16 24L14 24L14 28L15 28L15 29L14 29L14 31L15 31L15 32L14 32L14 33L13 33L13 32L12 32L12 31L11 31L11 32L10 32L10 33L9 33L9 34L10 34L10 35L11 35L11 36L12 36L12 39L14 39L14 38L15 38L15 35L14 35L14 33L16 33L16 32L17 32L17 31L18 31L18 32L19 32L19 33L22 33L22 32L23 32L23 28L24 28L24 30L26 30L26 29L27 29L27 28L31 28L31 27L32 27L32 26L34 26L34 25L35 25L35 26L36 26L36 25L35 25L35 24L36 24L36 23L35 23L35 22L36 22L36 21L35 21L35 19L34 19L34 18L33 18L33 17L32 17L32 18L31 18L31 19L30 19L30 17L29 17L29 16L30 16L30 15L29 15L29 14L30 14L30 13L29 13L29 12L33 12L33 13L34 13L34 12L33 12L33 11L34 11L34 9L33 9L33 11L32 11L32 10L31 10L31 9L27 9L27 10L28 10L28 11L29 11L29 12L28 12L28 13L29 13L29 14L27 14L27 12L25 12L25 13L23 13L23 11L22 11L22 10L21 10L21 11L22 11L22 13L21 13L21 12L20 12L20 14L18 14L18 13L17 13L17 11L15 11L15 9L12 9L12 10L14 10L14 11L12 11L12 12L11 12L11 11L10 11L10 10L11 10L11 8ZM35 9L35 11L37 11L37 10L36 10L36 9ZM30 10L30 11L31 11L31 10ZM9 11L9 12L10 12L10 11ZM14 11L14 12L15 12L15 11ZM5 12L5 13L7 13L7 12ZM39 12L39 14L38 14L38 15L39 15L39 14L41 14L41 12ZM9 13L9 14L10 14L10 15L11 15L11 14L12 14L12 15L13 15L13 17L12 17L12 19L13 19L13 20L14 20L14 19L13 19L13 17L14 17L14 18L15 18L15 17L14 17L14 13ZM22 13L22 14L21 14L21 15L22 15L22 17L23 17L23 18L25 18L25 19L23 19L23 22L24 22L24 23L23 23L23 25L22 25L22 23L21 23L21 22L20 22L20 23L21 23L21 25L22 25L22 26L20 26L20 24L19 24L19 26L20 26L20 28L19 28L19 29L21 29L21 28L22 28L22 27L26 27L26 28L27 28L27 27L28 27L28 26L30 26L30 25L31 25L31 26L32 26L32 25L34 25L34 22L35 22L35 21L34 21L34 20L33 20L33 21L31 21L31 20L32 20L32 19L31 19L31 20L30 20L30 21L31 21L31 22L30 22L30 24L29 24L29 23L28 23L28 22L27 22L27 21L29 21L29 18L27 18L27 17L26 17L26 18L25 18L25 17L24 17L24 16L27 16L27 15L26 15L26 14L23 14L23 13ZM22 14L22 15L23 15L23 16L24 16L24 15L23 15L23 14ZM28 15L28 16L29 16L29 15ZM36 16L36 17L37 17L37 18L39 18L39 17L37 17L37 16ZM2 18L2 20L1 20L1 21L2 21L2 20L3 20L3 18ZM8 19L8 20L9 20L9 19ZM25 19L25 20L27 20L27 19ZM40 20L40 21L41 21L41 20ZM12 21L12 23L13 23L13 21ZM24 21L24 22L25 22L25 21ZM33 21L33 22L31 22L31 25L32 25L32 23L33 23L33 22L34 22L34 21ZM24 23L24 25L23 25L23 26L25 26L25 24L26 24L26 23ZM27 23L27 24L28 24L28 25L26 25L26 26L28 26L28 25L29 25L29 24L28 24L28 23ZM8 24L8 25L9 25L9 24ZM6 25L6 26L7 26L7 25ZM10 26L10 27L11 27L11 26ZM0 28L0 33L1 33L1 28ZM11 28L11 29L12 29L12 28ZM4 29L4 30L5 30L5 29ZM18 30L18 31L19 31L19 32L21 32L21 31L22 31L22 30L21 30L21 31L20 31L20 30ZM24 31L24 32L25 32L25 31ZM28 31L28 32L30 32L30 33L31 33L31 34L30 34L30 35L31 35L31 34L32 34L32 33L31 33L31 32L30 32L30 31ZM3 32L3 33L4 33L4 32ZM6 32L6 33L7 33L7 32ZM37 32L37 33L38 33L38 35L37 35L37 36L39 36L39 33L38 33L38 32ZM12 33L12 34L11 34L11 35L12 35L12 36L14 36L14 35L13 35L13 33ZM33 33L33 36L36 36L36 33ZM34 34L34 35L35 35L35 34ZM16 35L16 36L17 36L17 35ZM27 35L27 36L28 36L28 35ZM25 36L25 37L24 37L24 38L25 38L25 37L26 37L26 36ZM9 37L9 38L10 38L10 37ZM13 37L13 38L14 38L14 37ZM33 37L33 38L32 38L32 39L33 39L33 38L36 38L36 37ZM17 38L17 39L18 39L18 38ZM37 38L37 39L38 39L38 38ZM20 40L20 41L21 41L21 40ZM29 40L29 41L30 41L30 40ZM0 0L0 7L7 7L7 0ZM1 1L1 6L6 6L6 1ZM2 2L2 5L5 5L5 2ZM34 0L34 7L41 7L41 0ZM35 1L35 6L40 6L40 1ZM36 2L36 5L39 5L39 2ZM0 34L0 41L7 41L7 34ZM1 35L1 40L6 40L6 35ZM2 36L2 39L5 39L5 36Z" fill="#000000"/></g></g></svg>
