<?xml version="1.0" encoding="UTF-8"?>
<svg xmlns="http://www.w3.org/2000/svg" version="1.1" width="200" height="200" viewBox="0 0 200 200"><rect x="0" y="0" width="200" height="200" fill="#ffffff"/><g transform="scale(6.897)"><g transform="translate(0,0)"><path fill-rule="evenodd" d="M8 0L8 1L10 1L10 2L8 2L8 3L9 3L9 4L8 4L8 5L9 5L9 6L8 6L8 8L9 8L9 9L7 9L7 8L5 8L5 9L3 9L3 10L5 10L5 11L3 11L3 13L4 13L4 14L5 14L5 13L4 13L4 12L6 12L6 13L7 13L7 14L6 14L6 15L7 15L7 16L6 16L6 17L7 17L7 18L6 18L6 19L7 19L7 18L8 18L8 19L10 19L10 20L11 20L11 18L12 18L12 20L13 20L13 21L12 21L12 22L13 22L13 24L14 24L14 25L16 25L16 26L17 26L17 27L16 27L16 29L19 29L19 28L21 28L21 27L22 27L22 28L23 28L23 29L26 29L26 27L28 27L28 26L26 26L26 27L23 27L23 26L21 26L21 25L24 25L24 26L25 26L25 22L26 22L26 23L27 23L27 21L25 21L25 20L27 20L27 18L28 18L28 16L29 16L29 15L28 15L28 14L26 14L26 13L29 13L29 12L27 12L27 11L28 11L28 10L27 10L27 8L26 8L26 10L25 10L25 8L24 8L24 16L25 16L25 18L21 18L21 17L20 17L20 19L18 19L18 18L19 18L19 17L18 17L18 16L19 16L19 14L17 14L17 13L21 13L21 12L22 12L22 15L23 15L23 11L21 11L21 5L20 5L20 3L21 3L21 2L20 2L20 0L17 0L17 1L18 1L18 2L19 2L19 3L18 3L18 7L19 7L19 8L18 8L18 9L17 9L17 6L16 6L16 5L15 5L15 4L14 4L14 8L11 8L11 5L10 5L10 3L11 3L11 4L12 4L12 3L11 3L11 1L12 1L12 2L13 2L13 3L16 3L16 4L17 4L17 2L13 2L13 0L11 0L11 1L10 1L10 0ZM9 6L9 8L10 8L10 9L9 9L9 10L8 10L8 12L9 12L9 13L11 13L11 12L13 12L13 13L12 13L12 14L11 14L11 15L9 15L9 14L8 14L8 16L7 16L7 17L8 17L8 18L9 18L9 17L11 17L11 16L12 16L12 18L13 18L13 20L15 20L15 21L14 21L14 22L15 22L15 21L16 21L16 22L17 22L17 24L16 24L16 25L17 25L17 24L18 24L18 26L19 26L19 24L20 24L20 21L19 21L19 20L18 20L18 19L17 19L17 18L18 18L18 17L17 17L17 15L16 15L16 14L15 14L15 13L14 13L14 12L13 12L13 11L14 11L14 10L13 10L13 9L12 9L12 10L13 10L13 11L11 11L11 8L10 8L10 6ZM12 6L12 7L13 7L13 6ZM15 6L15 8L14 8L14 9L16 9L16 10L17 10L17 9L16 9L16 6ZM19 6L19 7L20 7L20 6ZM22 8L22 10L23 10L23 8ZM28 8L28 9L29 9L29 8ZM1 9L1 11L2 11L2 9ZM6 9L6 10L7 10L7 9ZM18 9L18 10L19 10L19 12L21 12L21 11L20 11L20 9ZM6 11L6 12L7 12L7 11ZM9 11L9 12L11 12L11 11ZM1 12L1 13L0 13L0 16L1 16L1 14L2 14L2 15L3 15L3 16L2 16L2 17L3 17L3 18L1 18L1 17L0 17L0 21L1 21L1 19L2 19L2 21L3 21L3 18L4 18L4 19L5 19L5 18L4 18L4 17L5 17L5 15L3 15L3 14L2 14L2 12ZM16 12L16 13L17 13L17 12ZM13 14L13 15L12 15L12 16L13 16L13 17L14 17L14 19L15 19L15 17L16 17L16 16L15 16L15 15L14 15L14 14ZM20 15L20 16L21 16L21 15ZM25 15L25 16L26 16L26 15ZM27 15L27 16L28 16L28 15ZM8 16L8 17L9 17L9 16ZM14 16L14 17L15 17L15 16ZM22 16L22 17L23 17L23 16ZM25 18L25 19L26 19L26 18ZM16 19L16 20L17 20L17 21L18 21L18 20L17 20L17 19ZM21 19L21 20L22 20L22 19ZM23 19L23 20L24 20L24 19ZM5 20L5 21L7 21L7 20ZM8 20L8 22L9 22L9 20ZM28 20L28 22L29 22L29 20ZM21 21L21 24L24 24L24 21ZM10 22L10 23L11 23L11 24L12 24L12 23L11 23L11 22ZM22 22L22 23L23 23L23 22ZM8 23L8 24L9 24L9 28L10 28L10 26L12 26L12 27L11 27L11 29L13 29L13 28L14 28L14 27L13 27L13 26L12 26L12 25L10 25L10 24L9 24L9 23ZM14 23L14 24L15 24L15 23ZM18 23L18 24L19 24L19 23ZM26 24L26 25L28 25L28 24ZM20 26L20 27L21 27L21 26ZM27 28L27 29L28 29L28 28ZM0 0L0 7L7 7L7 0ZM1 1L1 6L6 6L6 1ZM2 2L2 5L5 5L5 2ZM22 0L22 7L29 7L29 0ZM23 1L23 6L28 6L28 1ZM24 2L24 5L27 5L27 2ZM0 22L0 29L7 29L7 22ZM1 23L1 28L6 28L6 23ZM2 24L2 27L5 27L5 24Z" fill="#000000"/></g></g></svg>
