<?xml version="1.0" encoding="UTF-8"?>
<svg xmlns="http://www.w3.org/2000/svg" version="1.1" width="200" height="200" viewBox="0 0 200 200"><rect x="0" y="0" width="200" height="200" fill="#ffffff"/><g transform="scale(4.878)"><g transform="translate(0,0)"><path fill-rule="evenodd" d="M9 0L9 1L8 1L8 7L9 7L9 5L10 5L10 8L5 8L5 9L3 9L3 8L2 8L2 10L1 10L1 9L0 9L0 12L1 12L1 13L2 13L2 12L3 12L3 13L4 13L4 14L1 14L1 16L0 16L0 17L1 17L1 18L0 18L0 19L2 19L2 20L0 20L0 26L1 26L1 28L0 28L0 29L1 29L1 30L0 30L0 31L2 31L2 32L0 32L0 33L4 33L4 32L3 32L3 31L7 31L7 32L6 32L6 33L7 33L7 32L8 32L8 36L9 36L9 34L10 34L10 37L9 37L9 38L8 38L8 39L9 39L9 41L12 41L12 40L13 40L13 41L14 41L14 40L16 40L16 41L19 41L19 40L18 40L18 39L20 39L20 40L21 40L21 39L20 39L20 35L22 35L22 36L21 36L21 37L22 37L22 36L23 36L23 35L22 35L22 34L23 34L23 33L22 33L22 32L20 32L20 31L22 31L22 30L23 30L23 31L24 31L24 34L25 34L25 37L24 37L24 38L23 38L23 39L22 39L22 40L23 40L23 39L24 39L24 41L25 41L25 40L26 40L26 41L27 41L27 40L26 40L26 39L28 39L28 36L26 36L26 34L25 34L25 33L27 33L27 35L28 35L28 32L27 32L27 31L28 31L28 30L27 30L27 29L28 29L28 28L29 28L29 27L30 27L30 30L29 30L29 31L30 31L30 32L32 32L32 33L31 33L31 34L32 34L32 36L31 36L31 37L32 37L32 38L31 38L31 40L30 40L30 41L36 41L36 40L37 40L37 41L39 41L39 39L41 39L41 32L40 32L40 31L41 31L41 29L40 29L40 27L41 27L41 25L39 25L39 24L37 24L37 26L36 26L36 24L34 24L34 23L35 23L35 20L36 20L36 21L37 21L37 19L39 19L39 20L40 20L40 19L41 19L41 17L40 17L40 19L39 19L39 18L37 18L37 19L36 19L36 18L35 18L35 16L34 16L34 15L36 15L36 14L33 14L33 17L34 17L34 18L35 18L35 20L34 20L34 19L33 19L33 18L32 18L32 16L30 16L30 18L28 18L28 17L29 17L29 11L28 11L28 10L29 10L29 6L30 6L30 8L31 8L31 11L33 11L33 10L35 10L35 9L39 9L39 12L38 12L38 11L37 11L37 10L36 10L36 11L34 11L34 12L35 12L35 13L36 13L36 11L37 11L37 14L38 14L38 15L39 15L39 16L40 16L40 15L41 15L41 12L40 12L40 11L41 11L41 9L40 9L40 8L35 8L35 9L34 9L34 8L33 8L33 6L32 6L32 8L31 8L31 3L32 3L32 2L31 2L31 1L29 1L29 0L28 0L28 2L27 2L27 4L28 4L28 5L29 5L29 6L28 6L28 8L26 8L26 9L23 9L23 10L22 10L22 9L21 9L21 10L19 10L19 8L20 8L20 7L21 7L21 8L22 8L22 7L23 7L23 6L22 6L22 7L21 7L21 6L20 6L20 7L19 7L19 6L18 6L18 7L17 7L17 5L19 5L19 3L21 3L21 4L20 4L20 5L21 5L21 4L22 4L22 5L24 5L24 7L25 7L25 6L26 6L26 7L27 7L27 6L26 6L26 5L25 5L25 4L24 4L24 2L25 2L25 3L26 3L26 2L25 2L25 1L26 1L26 0L25 0L25 1L24 1L24 2L23 2L23 0L22 0L22 1L21 1L21 0L20 0L20 1L21 1L21 2L18 2L18 4L17 4L17 3L16 3L16 4L14 4L14 3L15 3L15 1L14 1L14 0L11 0L11 1L13 1L13 2L12 2L12 3L10 3L10 2L9 2L9 1L10 1L10 0ZM16 0L16 1L17 1L17 0ZM32 0L32 1L33 1L33 0ZM13 2L13 3L14 3L14 2ZM21 2L21 3L22 3L22 4L23 4L23 2ZM28 2L28 3L29 3L29 4L30 4L30 2ZM9 3L9 4L10 4L10 3ZM13 4L13 5L14 5L14 4ZM15 5L15 7L16 7L16 8L13 8L13 7L14 7L14 6L13 6L13 7L12 7L12 6L11 6L11 7L12 7L12 8L10 8L10 9L12 9L12 11L11 11L11 10L9 10L9 9L5 9L5 10L3 10L3 11L6 11L6 12L8 12L8 11L9 11L9 12L10 12L10 11L11 11L11 14L10 14L10 13L8 13L8 14L7 14L7 13L5 13L5 12L4 12L4 13L5 13L5 14L4 14L4 16L3 16L3 15L2 15L2 16L3 16L3 17L2 17L2 18L3 18L3 21L1 21L1 24L2 24L2 25L1 25L1 26L2 26L2 27L3 27L3 26L4 26L4 25L3 25L3 24L2 24L2 22L3 22L3 23L4 23L4 24L5 24L5 26L7 26L7 27L4 27L4 29L3 29L3 28L2 28L2 29L3 29L3 30L4 30L4 29L5 29L5 28L8 28L8 29L6 29L6 30L7 30L7 31L8 31L8 29L9 29L9 28L11 28L11 30L9 30L9 32L11 32L11 33L10 33L10 34L11 34L11 36L12 36L12 35L15 35L15 36L16 36L16 35L15 35L15 33L13 33L13 32L11 32L11 30L12 30L12 31L13 31L13 29L14 29L14 28L16 28L16 29L15 29L15 30L16 30L16 31L15 31L15 32L16 32L16 31L17 31L17 32L19 32L19 31L17 31L17 29L18 29L18 30L21 30L21 28L20 28L20 29L18 29L18 28L19 28L19 27L17 27L17 25L19 25L19 23L20 23L20 24L22 24L22 25L21 25L21 26L20 26L20 27L22 27L22 28L23 28L23 30L24 30L24 31L25 31L25 32L26 32L26 31L25 31L25 29L24 29L24 28L25 28L25 27L26 27L26 29L27 29L27 28L28 28L28 27L29 27L29 25L30 25L30 27L31 27L31 28L33 28L33 27L31 27L31 23L30 23L30 21L29 21L29 20L30 20L30 19L28 19L28 22L29 22L29 23L27 23L27 24L28 24L28 27L26 27L26 26L27 26L27 25L26 25L26 26L25 26L25 24L24 24L24 25L23 25L23 24L22 24L22 21L21 21L21 20L22 20L22 19L21 19L21 20L19 20L19 19L18 19L18 18L19 18L19 15L21 15L21 17L20 17L20 18L21 18L21 17L22 17L22 18L23 18L23 19L25 19L25 20L24 20L24 21L25 21L25 22L26 22L26 21L25 21L25 20L26 20L26 19L25 19L25 18L24 18L24 17L22 17L22 16L23 16L23 15L28 15L28 13L26 13L26 12L25 12L25 14L23 14L23 15L21 15L21 13L22 13L22 12L21 12L21 11L22 11L22 10L21 10L21 11L20 11L20 12L21 12L21 13L20 13L20 14L19 14L19 13L18 13L18 12L17 12L17 13L18 13L18 17L17 17L17 16L16 16L16 15L15 15L15 16L14 16L14 14L15 14L15 12L16 12L16 11L18 11L18 10L17 10L17 9L18 9L18 8L19 8L19 7L18 7L18 8L17 8L17 7L16 7L16 5ZM12 8L12 9L13 9L13 8ZM16 8L16 9L15 9L15 10L16 10L16 9L17 9L17 8ZM32 8L32 10L33 10L33 8ZM26 9L26 10L27 10L27 9ZM6 10L6 11L7 11L7 10ZM23 10L23 13L24 13L24 10ZM1 11L1 12L2 12L2 11ZM12 11L12 12L13 12L13 11ZM14 11L14 12L15 12L15 11ZM30 12L30 13L32 13L32 12ZM39 12L39 13L38 13L38 14L39 14L39 13L40 13L40 12ZM12 13L12 14L14 14L14 13ZM5 14L5 15L7 15L7 14ZM8 14L8 15L9 15L9 17L8 17L8 16L4 16L4 17L3 17L3 18L6 18L6 19L4 19L4 23L5 23L5 24L6 24L6 25L8 25L8 24L6 24L6 23L9 23L9 22L10 22L10 23L11 23L11 22L12 22L12 24L13 24L13 25L11 25L11 24L10 24L10 25L9 25L9 26L10 26L10 27L13 27L13 28L12 28L12 29L13 29L13 28L14 28L14 27L16 27L16 25L17 25L17 24L18 24L18 23L19 23L19 22L17 22L17 21L18 21L18 20L15 20L15 21L14 21L14 23L15 23L15 22L16 22L16 24L13 24L13 22L12 22L12 21L13 21L13 20L14 20L14 18L13 18L13 20L12 20L12 21L11 21L11 22L10 22L10 21L9 21L9 20L8 20L8 18L9 18L9 19L12 19L12 18L9 18L9 17L14 17L14 16L11 16L11 15L9 15L9 14ZM31 14L31 15L32 15L32 14ZM27 16L27 17L26 17L26 18L27 18L27 17L28 17L28 16ZM6 17L6 18L8 18L8 17ZM15 17L15 18L16 18L16 19L17 19L17 17ZM6 19L6 20L7 20L7 19ZM31 19L31 20L32 20L32 22L33 22L33 19ZM6 21L6 22L5 22L5 23L6 23L6 22L9 22L9 21ZM39 21L39 22L40 22L40 24L41 24L41 22L40 22L40 21ZM23 22L23 23L24 23L24 22ZM36 22L36 23L37 23L37 22ZM32 24L32 26L34 26L34 24ZM10 25L10 26L11 26L11 25ZM13 25L13 26L15 26L15 25ZM22 26L22 27L25 27L25 26ZM35 26L35 27L34 27L34 28L36 28L36 30L35 30L35 29L34 29L34 30L33 30L33 31L34 31L34 32L37 32L37 30L38 30L38 29L37 29L37 27L38 27L38 28L39 28L39 27L38 27L38 26L37 26L37 27L36 27L36 26ZM8 27L8 28L9 28L9 27ZM31 29L31 31L32 31L32 29ZM39 29L39 30L40 30L40 29ZM38 31L38 33L37 33L37 34L38 34L38 33L39 33L39 34L40 34L40 33L39 33L39 31ZM11 33L11 34L13 34L13 33ZM16 33L16 34L17 34L17 35L19 35L19 34L20 34L20 33L19 33L19 34L18 34L18 33ZM21 33L21 34L22 34L22 33ZM29 33L29 34L30 34L30 33ZM33 33L33 36L36 36L36 33ZM34 34L34 35L35 35L35 34ZM29 35L29 37L30 37L30 35ZM37 35L37 37L33 37L33 39L34 39L34 40L35 40L35 39L36 39L36 38L37 38L37 37L39 37L39 38L38 38L38 39L39 39L39 38L40 38L40 37L39 37L39 35ZM17 36L17 37L16 37L16 38L17 38L17 39L16 39L16 40L17 40L17 39L18 39L18 38L19 38L19 36ZM12 37L12 38L13 38L13 37ZM14 37L14 39L13 39L13 40L14 40L14 39L15 39L15 37ZM26 37L26 38L27 38L27 37ZM9 38L9 39L11 39L11 38ZM40 40L40 41L41 41L41 40ZM0 0L0 7L7 7L7 0ZM1 1L1 6L6 6L6 1ZM2 2L2 5L5 5L5 2ZM34 0L34 7L41 7L41 0ZM35 1L35 6L40 6L40 1ZM36 2L36 5L39 5L39 2ZM0 34L0 41L7 41L7 34ZM1 35L1 40L6 40L6 35ZM2 36L2 39L5 39L5 36Z" fill="#000000"/></g></g></svg>
