<?xml version="1.0" encoding="UTF-8"?>
<svg xmlns="http://www.w3.org/2000/svg" version="1.1" width="200" height="200" viewBox="0 0 200 200"><rect x="0" y="0" width="200" height="200" fill="#ffffff"/><g transform="scale(4.878)"><g transform="translate(0,0)"><path fill-rule="evenodd" d="M8 0L8 1L9 1L9 2L8 2L8 3L9 3L9 4L8 4L8 5L9 5L9 4L11 4L11 6L10 6L10 7L9 7L9 6L8 6L8 8L9 8L9 9L7 9L7 8L5 8L5 10L6 10L6 11L7 11L7 12L6 12L6 13L5 13L5 14L6 14L6 15L5 15L5 16L6 16L6 17L7 17L7 16L8 16L8 18L5 18L5 17L3 17L3 16L2 16L2 15L4 15L4 13L3 13L3 12L4 12L4 11L2 11L2 10L3 10L3 9L1 9L1 13L0 13L0 15L1 15L1 16L0 16L0 17L1 17L1 18L2 18L2 17L3 17L3 19L4 19L4 20L3 20L3 21L4 21L4 20L6 20L6 21L5 21L5 23L7 23L7 24L3 24L3 23L0 23L0 26L1 26L1 28L0 28L0 33L1 33L1 31L2 31L2 27L3 27L3 25L4 25L4 26L5 26L5 27L7 27L7 28L6 28L6 29L5 29L5 28L3 28L3 32L2 32L2 33L5 33L5 31L7 31L7 32L6 32L6 33L8 33L8 34L9 34L9 35L8 35L8 36L10 36L10 35L12 35L12 33L13 33L13 34L14 34L14 35L13 35L13 36L12 36L12 37L10 37L10 39L9 39L9 40L11 40L11 39L14 39L14 40L13 40L13 41L14 41L14 40L15 40L15 41L16 41L16 39L17 39L17 40L19 40L19 39L20 39L20 41L21 41L21 35L20 35L20 37L19 37L19 36L18 36L18 37L19 37L19 38L16 38L16 37L17 37L17 36L15 36L15 37L13 37L13 36L14 36L14 35L16 35L16 34L17 34L17 35L18 35L18 34L17 34L17 32L20 32L20 34L22 34L22 37L23 37L23 36L24 36L24 38L23 38L23 41L24 41L24 38L25 38L25 40L26 40L26 41L28 41L28 40L29 40L29 41L30 41L30 40L29 40L29 39L28 39L28 36L27 36L27 35L29 35L29 37L30 37L30 38L31 38L31 40L32 40L32 37L33 37L33 41L34 41L34 40L36 40L36 39L37 39L37 40L38 40L38 39L40 39L40 40L41 40L41 39L40 39L40 38L41 38L41 37L40 37L40 36L39 36L39 37L37 37L37 35L40 35L40 34L39 34L39 32L37 32L37 31L38 31L38 29L35 29L35 30L37 30L37 31L36 31L36 32L34 32L34 31L33 31L33 30L34 30L34 28L35 28L35 27L36 27L36 28L39 28L39 29L40 29L40 30L39 30L39 31L40 31L40 32L41 32L41 27L40 27L40 26L41 26L41 25L39 25L39 24L37 24L37 23L38 23L38 22L41 22L41 20L40 20L40 19L41 19L41 15L40 15L40 14L41 14L41 11L40 11L40 9L41 9L41 8L40 8L40 9L39 9L39 8L38 8L38 10L37 10L37 8L36 8L36 10L34 10L34 9L35 9L35 8L34 8L34 9L33 9L33 8L32 8L32 7L33 7L33 3L32 3L32 4L30 4L30 5L32 5L32 7L31 7L31 6L30 6L30 8L29 8L29 5L28 5L28 8L27 8L27 6L26 6L26 5L27 5L27 4L28 4L28 3L31 3L31 2L30 2L30 1L29 1L29 0L28 0L28 2L26 2L26 4L25 4L25 5L23 5L23 4L24 4L24 3L25 3L25 2L24 2L24 1L23 1L23 0L21 0L21 1L20 1L20 0L19 0L19 1L18 1L18 2L19 2L19 3L20 3L20 4L21 4L21 5L22 5L22 7L21 7L21 6L20 6L20 7L21 7L21 8L22 8L22 9L21 9L21 11L20 11L20 9L19 9L19 8L18 8L18 9L15 9L15 4L16 4L16 5L17 5L17 4L18 4L18 3L17 3L17 4L16 4L16 3L15 3L15 0L12 0L12 1L9 1L9 0ZM25 0L25 1L26 1L26 0ZM32 0L32 2L33 2L33 0ZM12 1L12 2L9 2L9 3L11 3L11 4L12 4L12 6L11 6L11 7L12 7L12 8L10 8L10 10L9 10L9 11L10 11L10 12L9 12L9 13L6 13L6 14L7 14L7 15L6 15L6 16L7 16L7 15L9 15L9 18L10 18L10 19L11 19L11 20L10 20L10 21L9 21L9 20L8 20L8 21L9 21L9 22L8 22L8 23L9 23L9 25L8 25L8 26L7 26L7 25L5 25L5 26L7 26L7 27L8 27L8 28L9 28L9 29L8 29L8 31L9 31L9 30L10 30L10 31L11 31L11 32L10 32L10 33L9 33L9 32L8 32L8 33L9 33L9 34L11 34L11 32L12 32L12 31L14 31L14 32L15 32L15 33L14 33L14 34L16 34L16 32L15 32L15 31L16 31L16 30L18 30L18 29L19 29L19 30L20 30L20 32L21 32L21 33L22 33L22 32L23 32L23 33L26 33L26 32L30 32L30 33L31 33L31 31L32 31L32 29L33 29L33 28L31 28L31 27L32 27L32 26L31 26L31 25L30 25L30 24L35 24L35 26L34 26L34 27L35 27L35 26L36 26L36 27L37 27L37 26L36 26L36 25L37 25L37 24L36 24L36 23L33 23L33 20L32 20L32 19L29 19L29 20L28 20L28 23L27 23L27 22L26 22L26 23L25 23L25 25L24 25L24 24L23 24L23 23L24 23L24 22L25 22L25 21L24 21L24 20L25 20L25 19L24 19L24 18L23 18L23 17L25 17L25 14L24 14L24 16L21 16L21 13L22 13L22 15L23 15L23 13L24 13L24 12L25 12L25 11L26 11L26 10L27 10L27 8L26 8L26 6L25 6L25 8L24 8L24 6L23 6L23 7L22 7L22 8L24 8L24 9L23 9L23 10L22 10L22 12L21 12L21 13L20 13L20 12L18 12L18 11L19 11L19 9L18 9L18 10L14 10L14 5L13 5L13 4L15 4L15 3L13 3L13 4L12 4L12 2L14 2L14 1ZM21 1L21 2L20 2L20 3L22 3L22 4L23 4L23 3L22 3L22 1ZM12 6L12 7L13 7L13 6ZM16 6L16 8L17 8L17 6ZM18 6L18 7L19 7L19 6ZM12 8L12 9L11 9L11 10L12 10L12 9L13 9L13 8ZM25 8L25 10L23 10L23 12L22 12L22 13L23 13L23 12L24 12L24 11L25 11L25 10L26 10L26 8ZM31 8L31 9L29 9L29 10L28 10L28 11L29 11L29 14L28 14L28 13L26 13L26 14L27 14L27 15L26 15L26 16L27 16L27 17L28 17L28 18L31 18L31 17L32 17L32 18L33 18L33 19L34 19L34 22L36 22L36 21L35 21L35 18L36 18L36 20L39 20L39 21L40 21L40 20L39 20L39 19L40 19L40 16L39 16L39 17L38 17L38 16L36 16L36 15L37 15L37 14L36 14L36 13L37 13L37 12L36 12L36 13L35 13L35 12L34 12L34 10L33 10L33 12L32 12L32 10L31 10L31 9L32 9L32 8ZM6 9L6 10L7 10L7 9ZM13 10L13 12L15 12L15 13L13 13L13 14L12 14L12 13L11 13L11 14L10 14L10 13L9 13L9 14L10 14L10 15L11 15L11 14L12 14L12 15L14 15L14 17L13 17L13 16L12 16L12 17L13 17L13 19L12 19L12 21L14 21L14 20L13 20L13 19L14 19L14 17L16 17L16 15L14 15L14 14L16 14L16 12L17 12L17 11L16 11L16 12L15 12L15 11L14 11L14 10ZM11 11L11 12L12 12L12 11ZM30 11L30 16L29 16L29 17L31 17L31 13L32 13L32 12L31 12L31 11ZM38 11L38 12L39 12L39 13L38 13L38 15L39 15L39 13L40 13L40 11ZM1 13L1 14L3 14L3 13ZM17 13L17 14L18 14L18 18L19 18L19 19L16 19L16 18L15 18L15 19L16 19L16 20L17 20L17 21L16 21L16 23L15 23L15 22L14 22L14 23L15 23L15 24L12 24L12 23L13 23L13 22L12 22L12 23L11 23L11 22L9 22L9 23L11 23L11 24L10 24L10 26L9 26L9 28L11 28L11 29L14 29L14 28L15 28L15 27L16 27L16 29L15 29L15 30L16 30L16 29L17 29L17 28L20 28L20 30L21 30L21 29L22 29L22 30L23 30L23 31L24 31L24 32L25 32L25 31L26 31L26 30L25 30L25 31L24 31L24 29L30 29L30 30L29 30L29 31L31 31L31 29L30 29L30 28L27 28L27 27L28 27L28 24L29 24L29 23L28 23L28 24L27 24L27 23L26 23L26 24L27 24L27 25L25 25L25 26L23 26L23 25L21 25L21 23L23 23L23 20L24 20L24 19L23 19L23 18L22 18L22 19L23 19L23 20L22 20L22 21L20 21L20 19L21 19L21 16L20 16L20 14L19 14L19 13ZM32 14L32 17L34 17L34 18L35 18L35 17L36 17L36 18L37 18L37 17L36 17L36 16L35 16L35 15L34 15L34 14ZM27 15L27 16L28 16L28 15ZM34 16L34 17L35 17L35 16ZM26 18L26 20L27 20L27 18ZM38 18L38 19L39 19L39 18ZM0 19L0 21L1 21L1 19ZM6 19L6 20L7 20L7 19ZM30 20L30 21L31 21L31 22L30 22L30 23L31 23L31 22L32 22L32 21L31 21L31 20ZM6 21L6 22L7 22L7 21ZM17 21L17 25L16 25L16 27L18 27L18 26L17 26L17 25L19 25L19 26L21 26L21 25L20 25L20 24L18 24L18 23L19 23L19 22L20 22L20 21L19 21L19 22L18 22L18 21ZM40 23L40 24L41 24L41 23ZM1 24L1 25L2 25L2 24ZM11 24L11 25L12 25L12 26L11 26L11 28L14 28L14 27L15 27L15 25L12 25L12 24ZM29 25L29 26L30 26L30 25ZM13 26L13 27L14 27L14 26ZM22 26L22 27L21 27L21 28L22 28L22 29L24 29L24 27L23 27L23 26ZM38 26L38 27L39 27L39 26ZM6 29L6 30L7 30L7 29ZM11 30L11 31L12 31L12 30ZM27 30L27 31L28 31L28 30ZM21 31L21 32L22 32L22 31ZM33 33L33 36L36 36L36 33ZM37 33L37 34L38 34L38 33ZM23 34L23 35L24 35L24 36L25 36L25 38L26 38L26 37L27 37L27 36L26 36L26 35L27 35L27 34L26 34L26 35L25 35L25 34ZM30 34L30 35L31 35L31 36L30 36L30 37L31 37L31 36L32 36L32 35L31 35L31 34ZM34 34L34 35L35 35L35 34ZM34 37L34 38L36 38L36 37ZM39 37L39 38L40 38L40 37ZM14 38L14 39L16 39L16 38ZM37 38L37 39L38 39L38 38ZM0 0L0 7L7 7L7 0ZM1 1L1 6L6 6L6 1ZM2 2L2 5L5 5L5 2ZM34 0L34 7L41 7L41 0ZM35 1L35 6L40 6L40 1ZM36 2L36 5L39 5L39 2ZM0 34L0 41L7 41L7 34ZM1 35L1 40L6 40L6 35ZM2 36L2 39L5 39L5 36Z" fill="#000000"/></g></g></svg>
