<?xml version="1.0" encoding="UTF-8"?>
<svg xmlns="http://www.w3.org/2000/svg" version="1.1" width="200" height="200" viewBox="0 0 200 200"><rect x="0" y="0" width="200" height="200" fill="#ffffff"/><g transform="scale(6.897)"><g transform="translate(0,0)"><path fill-rule="evenodd" d="M9 0L9 1L8 1L8 7L9 7L9 8L5 8L5 9L4 9L4 10L3 10L3 8L2 8L2 9L0 9L0 10L1 10L1 12L2 12L2 13L1 13L1 14L2 14L2 15L3 15L3 16L1 16L1 17L2 17L2 18L0 18L0 19L2 19L2 18L3 18L3 17L4 17L4 20L0 20L0 21L4 21L4 20L6 20L6 21L7 21L7 20L6 20L6 19L7 19L7 18L8 18L8 19L10 19L10 21L9 21L9 20L8 20L8 24L9 24L9 22L10 22L10 25L11 25L11 23L12 23L12 25L13 25L13 24L14 24L14 26L15 26L15 29L19 29L19 28L17 28L17 25L18 25L18 26L20 26L20 27L21 27L21 29L22 29L22 28L24 28L24 29L26 29L26 28L24 28L24 26L23 26L23 27L22 27L22 26L21 26L21 25L25 25L25 26L26 26L26 25L27 25L27 24L28 24L28 23L27 23L27 24L26 24L26 25L25 25L25 23L26 23L26 21L27 21L27 18L28 18L28 19L29 19L29 18L28 18L28 17L29 17L29 16L27 16L27 17L25 17L25 16L22 16L22 15L25 15L25 14L26 14L26 13L29 13L29 12L27 12L27 11L29 11L29 9L28 9L28 8L23 8L23 10L22 10L22 11L21 11L21 9L22 9L22 8L20 8L20 7L21 7L21 0L19 0L19 1L20 1L20 2L19 2L19 3L20 3L20 5L19 5L19 4L18 4L18 5L17 5L17 3L18 3L18 2L17 2L17 3L16 3L16 4L15 4L15 3L14 3L14 2L13 2L13 1L11 1L11 0ZM15 0L15 2L16 2L16 1L18 1L18 0ZM10 2L10 3L11 3L11 5L10 5L10 4L9 4L9 7L10 7L10 6L11 6L11 8L14 8L14 10L13 10L13 11L14 11L14 12L11 12L11 11L12 11L12 10L11 10L11 9L9 9L9 10L11 10L11 11L10 11L10 13L9 13L9 12L8 12L8 11L6 11L6 10L7 10L7 9L5 9L5 10L4 10L4 11L3 11L3 10L2 10L2 12L3 12L3 13L2 13L2 14L3 14L3 15L4 15L4 16L5 16L5 18L7 18L7 17L6 17L6 16L7 16L7 15L6 15L6 16L5 16L5 15L4 15L4 14L3 14L3 13L5 13L5 14L9 14L9 16L8 16L8 17L9 17L9 16L10 16L10 15L13 15L13 16L12 16L12 18L11 18L11 17L10 17L10 19L11 19L11 20L12 20L12 22L13 22L13 23L14 23L14 24L15 24L15 26L16 26L16 25L17 25L17 24L18 24L18 25L19 25L19 24L20 24L20 23L19 23L19 22L20 22L20 21L19 21L19 20L22 20L22 19L21 19L21 15L19 15L19 14L22 14L22 12L21 12L21 13L20 13L20 12L19 12L19 14L18 14L18 12L17 12L17 11L18 11L18 10L19 10L19 11L20 11L20 8L19 8L19 7L20 7L20 6L19 6L19 7L18 7L18 6L17 6L17 5L16 5L16 6L15 6L15 7L14 7L14 6L13 6L13 7L12 7L12 5L15 5L15 4L14 4L14 3L11 3L11 2ZM16 6L16 7L15 7L15 10L14 10L14 11L17 11L17 10L18 10L18 7L17 7L17 6ZM16 9L16 10L17 10L17 9ZM27 9L27 10L28 10L28 9ZM24 10L24 11L26 11L26 10ZM5 11L5 13L8 13L8 12L6 12L6 11ZM16 12L16 13L11 13L11 14L14 14L14 16L13 16L13 17L17 17L17 19L16 19L16 18L13 18L13 19L12 19L12 20L13 20L13 19L15 19L15 22L14 22L14 21L13 21L13 22L14 22L14 23L15 23L15 24L17 24L17 23L18 23L18 24L19 24L19 23L18 23L18 22L19 22L19 21L18 21L18 20L17 20L17 19L18 19L18 17L20 17L20 16L18 16L18 17L17 17L17 15L18 15L18 14L16 14L16 13L17 13L17 12ZM23 12L23 14L25 14L25 13L24 13L24 12ZM27 14L27 15L29 15L29 14ZM22 17L22 18L25 18L25 20L26 20L26 18L25 18L25 17ZM19 18L19 19L20 19L20 18ZM23 19L23 20L24 20L24 19ZM16 20L16 21L17 21L17 22L18 22L18 21L17 21L17 20ZM21 21L21 24L24 24L24 21ZM28 21L28 22L29 22L29 21ZM15 22L15 23L16 23L16 22ZM22 22L22 23L23 23L23 22ZM8 26L8 27L9 27L9 26ZM11 26L11 28L14 28L14 27L12 27L12 26ZM27 26L27 27L28 27L28 28L27 28L27 29L29 29L29 26ZM0 0L0 7L7 7L7 0ZM1 1L1 6L6 6L6 1ZM2 2L2 5L5 5L5 2ZM22 0L22 7L29 7L29 0ZM23 1L23 6L28 6L28 1ZM24 2L24 5L27 5L27 2ZM0 22L0 29L7 29L7 22ZM1 23L1 28L6 28L6 23ZM2 24L2 27L5 27L5 24Z" fill="#000000"/></g></g></svg>
