<?xml version="1.0" encoding="UTF-8"?>
<svg xmlns="http://www.w3.org/2000/svg" version="1.1" width="200" height="200" viewBox="0 0 200 200"><rect x="0" y="0" width="200" height="200" fill="#ffffff"/><g transform="scale(4.878)"><g transform="translate(0,0)"><path fill-rule="evenodd" d="M8 0L8 3L9 3L9 4L10 4L10 5L8 5L8 9L7 9L7 8L6 8L6 9L5 9L5 8L2 8L2 9L1 9L1 11L2 11L2 10L3 10L3 11L4 11L4 13L5 13L5 12L6 12L6 13L7 13L7 14L3 14L3 13L0 13L0 14L3 14L3 15L0 15L0 17L2 17L2 18L3 18L3 21L1 21L1 20L2 20L2 19L0 19L0 21L1 21L1 22L3 22L3 23L4 23L4 24L5 24L5 22L6 22L6 23L7 23L7 24L6 24L6 25L5 25L5 27L7 27L7 28L4 28L4 27L2 27L2 28L3 28L3 29L2 29L2 31L3 31L3 32L5 32L5 33L8 33L8 34L10 34L10 37L9 37L9 36L8 36L8 39L11 39L11 38L12 38L12 40L14 40L14 39L15 39L15 38L18 38L18 40L19 40L19 41L21 41L21 38L23 38L23 37L24 37L24 34L25 34L25 39L22 39L22 40L23 40L23 41L24 41L24 40L25 40L25 39L26 39L26 41L27 41L27 40L28 40L28 41L31 41L31 40L33 40L33 41L34 41L34 40L33 40L33 39L32 39L32 37L33 37L33 38L34 38L34 39L35 39L35 40L36 40L36 39L37 39L37 40L40 40L40 38L41 38L41 36L37 36L37 35L40 35L40 34L41 34L41 33L40 33L40 32L41 32L41 31L40 31L40 30L41 30L41 29L39 29L39 31L40 31L40 32L37 32L37 29L36 29L36 28L38 28L38 26L39 26L39 28L40 28L40 26L41 26L41 23L39 23L39 24L40 24L40 26L39 26L39 25L33 25L33 23L36 23L36 24L37 24L37 22L38 22L38 21L39 21L39 20L36 20L36 19L35 19L35 17L36 17L36 18L37 18L37 19L40 19L40 18L41 18L41 16L40 16L40 18L37 18L37 17L39 17L39 16L37 16L37 17L36 17L36 16L35 16L35 17L34 17L34 16L32 16L32 17L30 17L30 16L29 16L29 15L28 15L28 16L29 16L29 17L30 17L30 19L31 19L31 20L30 20L30 21L28 21L28 20L27 20L27 19L29 19L29 18L27 18L27 16L25 16L25 14L26 14L26 15L27 15L27 14L29 14L29 13L30 13L30 14L31 14L31 12L29 12L29 13L28 13L28 12L27 12L27 14L26 14L26 10L25 10L25 9L23 9L23 10L22 10L22 8L23 8L23 6L24 6L24 8L25 8L25 6L26 6L26 9L31 9L31 10L32 10L32 9L34 9L34 11L33 11L33 12L32 12L32 13L33 13L33 14L32 14L32 15L34 15L34 13L35 13L35 11L36 11L36 12L38 12L38 11L40 11L40 12L41 12L41 11L40 11L40 10L41 10L41 8L38 8L38 9L40 9L40 10L37 10L37 9L36 9L36 8L32 8L32 9L31 9L31 6L30 6L30 8L28 8L28 7L29 7L29 4L28 4L28 5L27 5L27 4L26 4L26 5L25 5L25 2L24 2L24 1L23 1L23 0L22 0L22 2L21 2L21 3L22 3L22 4L21 4L21 5L22 5L22 8L21 8L21 6L20 6L20 4L19 4L19 6L18 6L18 3L17 3L17 2L16 2L16 3L17 3L17 5L16 5L16 7L15 7L15 5L12 5L12 4L11 4L11 3L9 3L9 2L12 2L12 1L14 1L14 2L15 2L15 1L19 1L19 2L20 2L20 1L21 1L21 0L15 0L15 1L14 1L14 0ZM26 0L26 1L27 1L27 2L26 2L26 3L31 3L31 4L30 4L30 5L32 5L32 7L33 7L33 4L32 4L32 3L31 3L31 2L30 2L30 0L29 0L29 1L27 1L27 0ZM31 0L31 1L32 1L32 0ZM22 2L22 3L23 3L23 5L24 5L24 2ZM10 5L10 6L9 6L9 8L11 8L11 7L12 7L12 5ZM26 5L26 6L27 6L27 7L28 7L28 6L27 6L27 5ZM10 6L10 7L11 7L11 6ZM13 6L13 8L12 8L12 9L9 9L9 10L8 10L8 12L9 12L9 10L12 10L12 9L13 9L13 10L14 10L14 12L15 12L15 13L16 13L16 14L13 14L13 11L12 11L12 16L11 16L11 15L10 15L10 14L11 14L11 13L8 13L8 14L7 14L7 15L5 15L5 17L4 17L4 19L5 19L5 18L7 18L7 19L6 19L6 20L5 20L5 21L6 21L6 22L7 22L7 21L6 21L6 20L7 20L7 19L8 19L8 20L9 20L9 21L8 21L8 22L10 22L10 23L8 23L8 24L7 24L7 25L6 25L6 26L8 26L8 24L10 24L10 23L11 23L11 24L13 24L13 26L11 26L11 25L10 25L10 27L9 27L9 28L8 28L8 31L6 31L6 30L7 30L7 29L6 29L6 30L5 30L5 29L3 29L3 31L4 31L4 30L5 30L5 31L6 31L6 32L8 32L8 31L9 31L9 33L10 33L10 34L13 34L13 35L14 35L14 37L12 37L12 35L11 35L11 37L10 37L10 38L11 38L11 37L12 37L12 38L14 38L14 37L18 37L18 38L20 38L20 36L19 36L19 35L22 35L22 37L23 37L23 34L24 34L24 31L23 31L23 30L22 30L22 31L21 31L21 32L22 32L22 33L21 33L21 34L19 34L19 31L20 31L20 30L21 30L21 28L19 28L19 29L20 29L20 30L18 30L18 29L17 29L17 33L18 33L18 34L17 34L17 35L18 35L18 36L16 36L16 35L14 35L14 34L13 34L13 32L16 32L16 30L14 30L14 29L15 29L15 28L17 28L17 26L16 26L16 27L15 27L15 24L17 24L17 23L18 23L18 21L19 21L19 22L22 22L22 25L21 25L21 24L20 24L20 23L19 23L19 25L18 25L18 27L19 27L19 25L20 25L20 27L25 27L25 26L28 26L28 25L29 25L29 24L30 24L30 25L32 25L32 26L29 26L29 27L27 27L27 28L25 28L25 29L24 29L24 30L25 30L25 31L26 31L26 30L27 30L27 28L31 28L31 29L28 29L28 30L32 30L32 31L33 31L33 32L35 32L35 31L36 31L36 29L35 29L35 26L34 26L34 27L33 27L33 25L32 25L32 24L30 24L30 22L31 22L31 23L33 23L33 22L34 22L34 21L35 21L35 22L36 22L36 21L35 21L35 19L34 19L34 18L33 18L33 17L32 17L32 18L31 18L31 19L32 19L32 20L31 20L31 21L30 21L30 22L29 22L29 23L28 23L28 25L27 25L27 22L28 22L28 21L27 21L27 20L26 20L26 22L25 22L25 20L24 20L24 19L23 19L23 17L24 17L24 14L25 14L25 13L24 13L24 11L21 11L21 10L19 10L19 9L20 9L20 6L19 6L19 8L18 8L18 6L17 6L17 9L18 9L18 10L19 10L19 11L21 11L21 12L23 12L23 13L22 13L22 14L21 14L21 13L19 13L19 12L18 12L18 11L17 11L17 12L18 12L18 13L16 13L16 12L15 12L15 10L14 10L14 9L13 9L13 8L15 8L15 7L14 7L14 6ZM3 9L3 10L5 10L5 9ZM6 9L6 10L7 10L7 9ZM35 9L35 10L36 10L36 11L37 11L37 10L36 10L36 9ZM27 10L27 11L29 11L29 10ZM6 11L6 12L7 12L7 11ZM33 12L33 13L34 13L34 12ZM23 13L23 14L24 14L24 13ZM36 13L36 14L35 14L35 15L38 15L38 13ZM40 13L40 14L39 14L39 15L40 15L40 14L41 14L41 13ZM8 14L8 15L9 15L9 16L8 16L8 18L9 18L9 16L10 16L10 15L9 15L9 14ZM16 14L16 15L13 15L13 16L12 16L12 17L14 17L14 19L12 19L12 18L10 18L10 19L12 19L12 21L10 21L10 22L11 22L11 23L13 23L13 24L14 24L14 23L17 23L17 21L16 21L16 20L15 20L15 21L14 21L14 23L13 23L13 22L12 22L12 21L13 21L13 20L14 20L14 19L15 19L15 17L14 17L14 16L18 16L18 15L19 15L19 21L21 21L21 20L20 20L20 17L21 17L21 19L22 19L22 15L21 15L21 14L20 14L20 15L19 15L19 14ZM3 15L3 16L2 16L2 17L3 17L3 16L4 16L4 15ZM6 16L6 17L7 17L7 16ZM16 17L16 18L17 18L17 19L18 19L18 17ZM25 18L25 19L26 19L26 18ZM33 20L33 21L31 21L31 22L33 22L33 21L34 21L34 20ZM40 20L40 21L41 21L41 20ZM22 21L22 22L24 22L24 24L25 24L25 25L22 25L22 26L25 26L25 25L26 25L26 23L25 23L25 22L24 22L24 21ZM0 23L0 24L1 24L1 26L2 26L2 25L3 25L3 24L1 24L1 23ZM13 26L13 27L14 27L14 28L12 28L12 30L13 30L13 31L14 31L14 30L13 30L13 29L14 29L14 28L15 28L15 27L14 27L14 26ZM36 26L36 27L37 27L37 26ZM0 27L0 28L1 28L1 27ZM32 27L32 28L33 28L33 29L32 29L32 30L33 30L33 29L34 29L34 28L33 28L33 27ZM22 28L22 29L23 29L23 28ZM0 29L0 33L1 33L1 29ZM10 29L10 30L11 30L11 29ZM25 29L25 30L26 30L26 29ZM34 30L34 31L35 31L35 30ZM10 31L10 33L12 33L12 31ZM22 31L22 32L23 32L23 31ZM28 31L28 32L30 32L30 31ZM26 32L26 33L25 33L25 34L26 34L26 38L29 38L29 39L28 39L28 40L31 40L31 39L30 39L30 37L32 37L32 36L29 36L29 33L27 33L27 32ZM30 33L30 35L31 35L31 34L32 34L32 33ZM33 33L33 36L36 36L36 33ZM37 33L37 34L39 34L39 33ZM27 34L27 36L28 36L28 37L29 37L29 36L28 36L28 34ZM34 34L34 35L35 35L35 34ZM18 36L18 37L19 37L19 36ZM34 37L34 38L36 38L36 37ZM37 38L37 39L38 39L38 38ZM19 39L19 40L20 40L20 39ZM9 40L9 41L11 41L11 40ZM15 40L15 41L16 41L16 40ZM0 0L0 7L7 7L7 0ZM1 1L1 6L6 6L6 1ZM2 2L2 5L5 5L5 2ZM34 0L34 7L41 7L41 0ZM35 1L35 6L40 6L40 1ZM36 2L36 5L39 5L39 2ZM0 34L0 41L7 41L7 34ZM1 35L1 40L6 40L6 35ZM2 36L2 39L5 39L5 36Z" fill="#000000"/></g></g></svg>
