<?xml version="1.0" encoding="UTF-8"?>
<svg xmlns="http://www.w3.org/2000/svg" version="1.1" width="200" height="200" viewBox="0 0 200 200"><rect x="0" y="0" width="200" height="200" fill="#ffffff"/><g transform="scale(4.878)"><g transform="translate(0,0)"><path fill-rule="evenodd" d="M8 0L8 3L9 3L9 5L8 5L8 9L7 9L7 8L6 8L6 9L5 9L5 8L2 8L2 10L1 10L1 9L0 9L0 10L1 10L1 12L0 12L0 13L1 13L1 12L2 12L2 13L3 13L3 14L1 14L1 17L0 17L0 21L2 21L2 22L1 22L1 23L2 23L2 25L1 25L1 24L0 24L0 25L1 25L1 26L0 26L0 27L1 27L1 29L0 29L0 33L1 33L1 29L2 29L2 30L5 30L5 31L2 31L2 33L8 33L8 34L9 34L9 33L8 33L8 32L10 32L10 31L8 31L8 32L5 32L5 31L7 31L7 30L9 30L9 29L10 29L10 30L11 30L11 31L12 31L12 30L14 30L14 31L13 31L13 32L12 32L12 33L11 33L11 34L10 34L10 35L9 35L9 36L8 36L8 39L9 39L9 41L10 41L10 40L13 40L13 41L15 41L15 39L16 39L16 41L17 41L17 39L18 39L18 37L19 37L19 38L20 38L20 39L19 39L19 41L21 41L21 40L20 40L20 39L21 39L21 37L24 37L24 38L23 38L23 39L22 39L22 41L25 41L25 40L26 40L26 39L25 39L25 38L27 38L27 40L28 40L28 39L29 39L29 38L30 38L30 39L32 39L32 40L31 40L31 41L32 41L32 40L33 40L33 41L34 41L34 40L33 40L33 39L32 39L32 37L33 37L33 38L34 38L34 39L35 39L35 40L36 40L36 39L37 39L37 37L39 37L39 38L38 38L38 39L39 39L39 40L40 40L40 38L41 38L41 37L40 37L40 36L37 36L37 35L38 35L38 34L39 34L39 35L40 35L40 34L41 34L41 33L39 33L39 32L32 32L32 34L30 34L30 35L31 35L31 36L30 36L30 37L29 37L29 36L28 36L28 34L27 34L27 36L23 36L23 35L22 35L22 34L24 34L24 33L23 33L23 32L22 32L22 31L23 31L23 30L24 30L24 32L25 32L25 33L27 33L27 31L26 31L26 32L25 32L25 30L29 30L29 29L31 29L31 28L32 28L32 29L33 29L33 30L32 30L32 31L33 31L33 30L34 30L34 31L35 31L35 30L34 30L34 29L36 29L36 31L38 31L38 30L39 30L39 31L40 31L40 30L41 30L41 29L40 29L40 28L41 28L41 27L40 27L40 26L41 26L41 23L40 23L40 26L39 26L39 24L37 24L37 25L36 25L36 23L35 23L35 25L33 25L33 24L32 24L32 25L31 25L31 24L29 24L29 23L30 23L30 22L32 22L32 23L34 23L34 22L36 22L36 21L38 21L38 22L39 22L39 20L36 20L36 19L35 19L35 17L36 17L36 18L38 18L38 19L40 19L40 18L41 18L41 16L40 16L40 18L38 18L38 17L39 17L39 16L37 16L37 15L38 15L38 14L37 14L37 13L36 13L36 14L37 14L37 15L36 15L36 16L35 16L35 17L34 17L34 16L33 16L33 15L34 15L34 14L33 14L33 13L34 13L34 12L33 12L33 13L32 13L32 14L31 14L31 12L32 12L32 11L31 11L31 10L32 10L32 9L34 9L34 10L33 10L33 11L34 11L34 10L35 10L35 9L36 9L36 11L35 11L35 12L38 12L38 11L39 11L39 14L41 14L41 13L40 13L40 12L41 12L41 11L40 11L40 10L41 10L41 8L38 8L38 9L40 9L40 10L37 10L37 9L36 9L36 8L31 8L31 6L30 6L30 5L29 5L29 4L28 4L28 5L26 5L26 4L27 4L27 3L29 3L29 1L27 1L27 0L24 0L24 2L22 2L22 1L21 1L21 0L16 0L16 1L15 1L15 2L14 2L14 1L12 1L12 0ZM30 0L30 2L31 2L31 1L32 1L32 2L33 2L33 0ZM9 1L9 3L10 3L10 5L9 5L9 9L8 9L8 10L9 10L9 11L8 11L8 13L6 13L6 12L7 12L7 11L6 11L6 12L4 12L4 10L2 10L2 12L3 12L3 13L5 13L5 14L3 14L3 20L2 20L2 19L1 19L1 20L2 20L2 21L3 21L3 22L2 22L2 23L3 23L3 25L2 25L2 26L4 26L4 29L5 29L5 28L7 28L7 29L6 29L6 30L7 30L7 29L8 29L8 28L12 28L12 29L14 29L14 30L15 30L15 32L13 32L13 33L12 33L12 34L11 34L11 35L10 35L10 36L11 36L11 37L10 37L10 39L11 39L11 37L12 37L12 38L13 38L13 37L14 37L14 36L17 36L17 37L18 37L18 35L14 35L14 34L13 34L13 33L17 33L17 31L18 31L18 32L20 32L20 33L18 33L18 34L20 34L20 35L21 35L21 36L20 36L20 37L21 37L21 36L22 36L22 35L21 35L21 34L20 34L20 33L21 33L21 32L20 32L20 30L19 30L19 27L18 27L18 26L19 26L19 25L18 25L18 24L20 24L20 29L21 29L21 28L22 28L22 26L21 26L21 24L23 24L23 20L24 20L24 21L25 21L25 22L24 22L24 23L25 23L25 24L26 24L26 25L27 25L27 26L28 26L28 25L29 25L29 24L28 24L28 25L27 25L27 22L30 22L30 21L32 21L32 22L34 22L34 21L36 21L36 20L35 20L35 19L34 19L34 18L33 18L33 17L32 17L32 18L30 18L30 19L31 19L31 20L29 20L29 16L30 16L30 17L31 17L31 15L28 15L28 17L25 17L25 16L26 16L26 15L25 15L25 14L21 14L21 13L20 13L20 14L19 14L19 12L22 12L22 10L23 10L23 12L24 12L24 13L27 13L27 12L31 12L31 11L30 11L30 10L31 10L31 9L27 9L27 8L28 8L28 6L27 6L27 7L26 7L26 5L25 5L25 7L24 7L24 3L25 3L25 4L26 4L26 3L27 3L27 2L26 2L26 3L25 3L25 2L24 2L24 3L23 3L23 4L21 4L21 5L20 5L20 6L19 6L19 7L20 7L20 8L21 8L21 9L19 9L19 8L17 8L17 7L18 7L18 4L19 4L19 3L21 3L21 1L19 1L19 3L18 3L18 4L17 4L17 5L16 5L16 4L15 4L15 3L16 3L16 2L17 2L17 1L16 1L16 2L15 2L15 3L14 3L14 2L13 2L13 3L12 3L12 2L10 2L10 1ZM30 3L30 4L31 4L31 5L33 5L33 4L31 4L31 3ZM12 4L12 5L13 5L13 4ZM10 5L10 7L11 7L11 8L12 8L12 9L9 9L9 10L11 10L11 12L13 12L13 14L11 14L11 16L8 16L8 15L10 15L10 12L9 12L9 14L6 14L6 15L4 15L4 16L5 16L5 17L7 17L7 16L8 16L8 20L6 20L6 21L4 21L4 20L5 20L5 19L4 19L4 20L3 20L3 21L4 21L4 22L3 22L3 23L4 23L4 26L5 26L5 27L9 27L9 26L5 26L5 25L7 25L7 24L8 24L8 25L10 25L10 22L9 22L9 24L8 24L8 22L6 22L6 21L8 21L8 20L10 20L10 21L12 21L12 20L13 20L13 22L14 22L14 23L15 23L15 24L11 24L11 25L12 25L12 26L10 26L10 27L12 27L12 28L14 28L14 29L15 29L15 28L16 28L16 31L17 31L17 30L18 30L18 27L16 27L16 26L15 26L15 25L17 25L17 24L16 24L16 23L15 23L15 22L16 22L16 20L18 20L18 21L17 21L17 23L18 23L18 21L19 21L19 20L20 20L20 21L22 21L22 20L23 20L23 19L22 19L22 18L24 18L24 19L25 19L25 21L26 21L26 20L27 20L27 21L29 21L29 20L28 20L28 18L27 18L27 19L25 19L25 17L22 17L22 16L23 16L23 15L22 15L22 16L18 16L18 19L17 19L17 18L16 18L16 17L17 17L17 16L16 16L16 17L15 17L15 15L16 15L16 13L15 13L15 12L16 12L16 8L14 8L14 7L15 7L15 6L16 6L16 7L17 7L17 6L16 6L16 5L14 5L14 7L13 7L13 6L12 6L12 7L11 7L11 5ZM20 6L20 7L21 7L21 6ZM22 6L22 8L23 8L23 9L24 9L24 7L23 7L23 6ZM29 6L29 8L30 8L30 6ZM32 6L32 7L33 7L33 6ZM13 8L13 9L14 9L14 10L12 10L12 11L14 11L14 10L15 10L15 9L14 9L14 8ZM25 8L25 9L26 9L26 8ZM6 9L6 10L7 10L7 9ZM17 10L17 11L19 11L19 10ZM24 10L24 11L25 11L25 12L26 12L26 11L29 11L29 10L26 10L26 11L25 11L25 10ZM17 12L17 13L18 13L18 12ZM14 13L14 14L15 14L15 13ZM28 13L28 14L30 14L30 13ZM17 14L17 15L18 15L18 14ZM20 14L20 15L21 15L21 14ZM32 14L32 15L33 15L33 14ZM6 15L6 16L7 16L7 15ZM12 15L12 16L13 16L13 17L10 17L10 18L9 18L9 19L10 19L10 20L12 20L12 19L13 19L13 20L14 20L14 21L15 21L15 19L13 19L13 17L14 17L14 15ZM24 15L24 16L25 16L25 15ZM36 16L36 17L37 17L37 16ZM1 17L1 18L2 18L2 17ZM19 17L19 18L20 18L20 20L22 20L22 19L21 19L21 17ZM6 18L6 19L7 19L7 18ZM32 18L32 21L34 21L34 20L33 20L33 18ZM40 20L40 21L41 21L41 20ZM5 22L5 23L6 23L6 24L7 24L7 23L6 23L6 22ZM19 22L19 23L22 23L22 22ZM25 22L25 23L26 23L26 22ZM13 25L13 26L12 26L12 27L14 27L14 28L15 28L15 27L14 27L14 25ZM23 25L23 27L25 27L25 25ZM30 25L30 26L29 26L29 27L26 27L26 29L27 29L27 28L28 28L28 29L29 29L29 28L31 28L31 27L32 27L32 26L33 26L33 27L34 27L34 26L33 26L33 25L32 25L32 26L31 26L31 25ZM35 25L35 28L36 28L36 29L37 29L37 30L38 30L38 29L39 29L39 26L38 26L38 28L36 28L36 25ZM2 27L2 28L3 28L3 27ZM23 28L23 29L24 29L24 30L25 30L25 28ZM33 28L33 29L34 29L34 28ZM28 31L28 33L31 33L31 31L30 31L30 32L29 32L29 31ZM33 33L33 36L36 36L36 33ZM37 33L37 34L38 34L38 33ZM12 34L12 35L11 35L11 36L12 36L12 37L13 37L13 36L14 36L14 35L13 35L13 34ZM25 34L25 35L26 35L26 34ZM34 34L34 35L35 35L35 34ZM27 36L27 38L29 38L29 37L28 37L28 36ZM31 36L31 37L30 37L30 38L31 38L31 37L32 37L32 36ZM34 37L34 38L36 38L36 37ZM14 38L14 39L13 39L13 40L14 40L14 39L15 39L15 38ZM16 38L16 39L17 39L17 38ZM24 39L24 40L25 40L25 39ZM29 40L29 41L30 41L30 40ZM0 0L0 7L7 7L7 0ZM1 1L1 6L6 6L6 1ZM2 2L2 5L5 5L5 2ZM34 0L34 7L41 7L41 0ZM35 1L35 6L40 6L40 1ZM36 2L36 5L39 5L39 2ZM0 34L0 41L7 41L7 34ZM1 35L1 40L6 40L6 35ZM2 36L2 39L5 39L5 36Z" fill="#000000"/></g></g></svg>
