<?xml version="1.0" encoding="UTF-8"?>
<svg xmlns="http://www.w3.org/2000/svg" version="1.1" width="200" height="200" viewBox="0 0 200 200"><rect x="0" y="0" width="200" height="200" fill="#ffffff"/><g transform="scale(6.897)"><g transform="translate(0,0)"><path fill-rule="evenodd" d="M8 0L8 1L10 1L10 2L8 2L8 3L9 3L9 4L8 4L8 5L9 5L9 6L8 6L8 8L9 8L9 9L7 9L7 8L5 8L5 9L4 9L4 10L3 10L3 9L2 9L2 10L1 10L1 11L2 11L2 12L1 12L1 14L0 14L0 15L1 15L1 16L2 16L2 17L0 17L0 21L1 21L1 19L2 19L2 21L3 21L3 20L4 20L4 19L5 19L5 18L4 18L4 17L7 17L7 18L6 18L6 19L7 19L7 20L5 20L5 21L8 21L8 22L9 22L9 23L8 23L8 24L9 24L9 28L10 28L10 26L11 26L11 28L12 28L12 29L13 29L13 28L14 28L14 27L13 27L13 25L14 25L14 26L15 26L15 27L16 27L16 29L19 29L19 28L21 28L21 27L22 27L22 28L23 28L23 29L25 29L25 28L26 28L26 29L28 29L28 28L27 28L27 27L28 27L28 26L27 26L27 27L26 27L26 26L25 26L25 22L26 22L26 23L27 23L27 21L25 21L25 20L26 20L26 18L28 18L28 16L29 16L29 15L28 15L28 14L26 14L26 13L29 13L29 12L27 12L27 11L28 11L28 10L27 10L27 8L26 8L26 10L25 10L25 8L24 8L24 16L25 16L25 18L21 18L21 17L20 17L20 19L18 19L18 18L17 18L17 19L18 19L18 20L17 20L17 21L18 21L18 20L19 20L19 21L20 21L20 24L19 24L19 22L18 22L18 24L17 24L17 22L16 22L16 19L15 19L15 18L16 18L16 16L15 16L15 14L16 14L16 15L17 15L17 16L19 16L19 15L18 15L18 13L21 13L21 12L22 12L22 15L23 15L23 11L21 11L21 5L20 5L20 3L21 3L21 2L20 2L20 0L16 0L16 1L15 1L15 2L13 2L13 0L12 0L12 1L11 1L11 0ZM17 1L17 4L16 4L16 3L13 3L13 2L12 2L12 3L10 3L10 5L11 5L11 8L10 8L10 6L9 6L9 8L10 8L10 9L9 9L9 11L8 11L8 10L7 10L7 9L5 9L5 10L4 10L4 11L5 11L5 10L7 10L7 11L6 11L6 12L4 12L4 13L2 13L2 14L3 14L3 15L2 15L2 16L3 16L3 17L2 17L2 19L4 19L4 18L3 18L3 17L4 17L4 16L3 16L3 15L4 15L4 13L5 13L5 14L7 14L7 13L8 13L8 12L9 12L9 13L12 13L12 14L11 14L11 16L12 16L12 17L11 17L11 19L12 19L12 21L11 21L11 20L10 20L10 19L9 19L9 16L10 16L10 14L8 14L8 16L7 16L7 15L5 15L5 16L7 16L7 17L8 17L8 18L7 18L7 19L9 19L9 21L10 21L10 23L9 23L9 24L10 24L10 25L11 25L11 26L12 26L12 24L13 24L13 23L14 23L14 25L15 25L15 21L13 21L13 20L15 20L15 19L14 19L14 18L15 18L15 16L12 16L12 15L13 15L13 14L15 14L15 13L17 13L17 12L15 12L15 13L14 13L14 12L13 12L13 13L12 13L12 10L10 10L10 9L11 9L11 8L13 8L13 7L14 7L14 6L15 6L15 11L17 11L17 10L16 10L16 9L18 9L18 10L19 10L19 12L21 12L21 11L20 11L20 9L18 9L18 8L19 8L19 7L20 7L20 6L19 6L19 7L18 7L18 3L19 3L19 2L18 2L18 1ZM14 4L14 5L15 5L15 6L16 6L16 8L17 8L17 6L16 6L16 5L15 5L15 4ZM12 6L12 7L13 7L13 6ZM22 8L22 10L23 10L23 8ZM28 8L28 9L29 9L29 8ZM2 10L2 11L3 11L3 10ZM13 10L13 11L14 11L14 10ZM9 11L9 12L11 12L11 11ZM6 12L6 13L7 13L7 12ZM20 15L20 16L21 16L21 15ZM25 15L25 16L26 16L26 15ZM27 15L27 16L28 16L28 15ZM22 16L22 17L23 17L23 16ZM21 19L21 20L22 20L22 19ZM23 19L23 20L25 20L25 19ZM28 20L28 22L29 22L29 20ZM12 21L12 22L13 22L13 21ZM21 21L21 24L24 24L24 21ZM22 22L22 23L23 23L23 22ZM10 23L10 24L12 24L12 23ZM16 24L16 26L17 26L17 24ZM18 24L18 25L19 25L19 24ZM26 24L26 25L28 25L28 24ZM21 25L21 26L20 26L20 27L21 27L21 26L23 26L23 27L25 27L25 26L24 26L24 25ZM12 27L12 28L13 28L13 27ZM0 0L0 7L7 7L7 0ZM1 1L1 6L6 6L6 1ZM2 2L2 5L5 5L5 2ZM22 0L22 7L29 7L29 0ZM23 1L23 6L28 6L28 1ZM24 2L24 5L27 5L27 2ZM0 22L0 29L7 29L7 22ZM1 23L1 28L6 28L6 23ZM2 24L2 27L5 27L5 24Z" fill="#000000"/></g></g></svg>
