<?xml version="1.0" encoding="UTF-8"?>
<svg xmlns="http://www.w3.org/2000/svg" version="1.1" width="200" height="200" viewBox="0 0 200 200"><rect x="0" y="0" width="200" height="200" fill="#ffffff"/><g transform="scale(4.878)"><g transform="translate(0,0)"><path fill-rule="evenodd" d="M12 0L12 2L11 2L11 3L10 3L10 2L9 2L9 1L8 1L8 2L9 2L9 5L8 5L8 8L4 8L4 9L2 9L2 10L5 10L5 9L7 9L7 10L6 10L6 11L7 11L7 12L5 12L5 11L3 11L3 12L1 12L1 9L0 9L0 13L2 13L2 15L3 15L3 13L7 13L7 14L6 14L6 15L7 15L7 14L8 14L8 16L10 16L10 17L9 17L9 18L6 18L6 17L7 17L7 16L5 16L5 14L4 14L4 16L3 16L3 20L0 20L0 24L2 24L2 26L3 26L3 27L2 27L2 30L4 30L4 29L5 29L5 28L6 28L6 29L9 29L9 30L13 30L13 31L14 31L14 30L13 30L13 28L14 28L14 27L15 27L15 29L16 29L16 31L15 31L15 32L14 32L14 33L16 33L16 35L15 35L15 34L14 34L14 36L15 36L15 37L16 37L16 35L17 35L17 36L19 36L19 37L17 37L17 38L16 38L16 40L14 40L14 37L13 37L13 35L12 35L12 38L13 38L13 39L12 39L12 41L17 41L17 40L18 40L18 41L19 41L19 39L20 39L20 40L21 40L21 38L19 38L19 37L21 37L21 36L24 36L24 37L23 37L23 38L22 38L22 41L23 41L23 40L24 40L24 39L23 39L23 38L27 38L27 40L25 40L25 41L27 41L27 40L29 40L29 41L30 41L30 40L31 40L31 41L33 41L33 39L32 39L32 38L33 38L33 37L36 37L36 38L37 38L37 35L38 35L38 34L39 34L39 37L40 37L40 38L38 38L38 39L36 39L36 40L37 40L37 41L40 41L40 40L41 40L41 37L40 37L40 35L41 35L41 33L40 33L40 31L41 31L41 29L40 29L40 30L39 30L39 28L40 28L40 27L41 27L41 24L40 24L40 23L41 23L41 22L40 22L40 21L41 21L41 13L39 13L39 12L38 12L38 11L41 11L41 9L40 9L40 8L39 8L39 9L36 9L36 8L34 8L34 10L35 10L35 12L34 12L34 11L29 11L29 9L30 9L30 10L31 10L31 9L33 9L33 8L31 8L31 9L30 9L30 7L31 7L31 6L32 6L32 7L33 7L33 6L32 6L32 5L31 5L31 3L29 3L29 4L30 4L30 5L28 5L28 4L27 4L27 5L28 5L28 7L27 7L27 6L26 6L26 7L27 7L27 8L24 8L24 9L23 9L23 8L22 8L22 10L24 10L24 12L23 12L23 11L22 11L22 12L21 12L21 10L19 10L19 11L18 11L18 9L17 9L17 8L16 8L16 7L17 7L17 6L18 6L18 8L19 8L19 9L20 9L20 7L21 7L21 6L20 6L20 7L19 7L19 6L18 6L18 4L17 4L17 3L16 3L16 4L15 4L15 2L17 2L17 1L16 1L16 0L14 0L14 1L13 1L13 0ZM18 0L18 1L19 1L19 0ZM20 0L20 2L21 2L21 1L22 1L22 3L21 3L21 5L22 5L22 4L23 4L23 5L24 5L24 3L25 3L25 2L26 2L26 3L28 3L28 2L30 2L30 1L31 1L31 2L33 2L33 1L31 1L31 0L29 0L29 1L28 1L28 0L27 0L27 1L26 1L26 0L25 0L25 2L23 2L23 1L24 1L24 0ZM27 1L27 2L28 2L28 1ZM13 2L13 3L14 3L14 2ZM18 2L18 3L19 3L19 4L20 4L20 3L19 3L19 2ZM14 4L14 5L13 5L13 8L14 8L14 10L13 10L13 11L12 11L12 10L11 10L11 7L12 7L12 5L11 5L11 7L10 7L10 5L9 5L9 7L10 7L10 8L8 8L8 10L7 10L7 11L8 11L8 12L9 12L9 14L11 14L11 15L10 15L10 16L11 16L11 15L12 15L12 14L13 14L13 16L12 16L12 17L11 17L11 19L6 19L6 20L7 20L7 21L5 21L5 16L4 16L4 20L3 20L3 21L5 21L5 22L7 22L7 23L6 23L6 24L5 24L5 25L3 25L3 26L4 26L4 27L3 27L3 29L4 29L4 27L6 27L6 28L9 28L9 27L12 27L12 26L13 26L13 27L14 27L14 26L15 26L15 27L16 27L16 25L17 25L17 28L16 28L16 29L17 29L17 30L18 30L18 31L17 31L17 32L16 32L16 33L17 33L17 32L18 32L18 31L19 31L19 33L18 33L18 35L19 35L19 36L20 36L20 35L19 35L19 34L21 34L21 35L22 35L22 34L23 34L23 33L24 33L24 31L25 31L25 33L26 33L26 31L27 31L27 30L28 30L28 31L31 31L31 30L30 30L30 29L31 29L31 28L30 28L30 29L28 29L28 27L29 27L29 26L28 26L28 27L27 27L27 28L26 28L26 26L27 26L27 25L29 25L29 22L31 22L31 24L30 24L30 25L31 25L31 27L32 27L32 25L35 25L35 27L36 27L36 28L34 28L34 27L33 27L33 29L32 29L32 31L33 31L33 32L34 32L34 31L35 31L35 32L37 32L37 31L38 31L38 33L37 33L37 34L38 34L38 33L39 33L39 34L40 34L40 33L39 33L39 31L38 31L38 29L37 29L37 26L38 26L38 28L39 28L39 25L37 25L37 24L39 24L39 23L40 23L40 22L39 22L39 23L38 23L38 22L36 22L36 21L35 21L35 20L36 20L36 19L35 19L35 18L36 18L36 17L37 17L37 19L38 19L38 21L39 21L39 20L40 20L40 17L39 17L39 16L40 16L40 15L39 15L39 14L38 14L38 17L37 17L37 14L36 14L36 13L37 13L37 11L36 11L36 12L35 12L35 13L33 13L33 12L32 12L32 13L33 13L33 14L36 14L36 15L35 15L35 16L34 16L34 15L32 15L32 14L30 14L30 13L29 13L29 11L28 11L28 12L27 12L27 14L26 14L26 13L25 13L25 12L24 12L24 13L25 13L25 14L23 14L23 15L22 15L22 16L23 16L23 15L25 15L25 16L24 16L24 17L21 17L21 19L20 19L20 17L19 17L19 16L17 16L17 18L18 18L18 19L16 19L16 21L15 21L15 19L12 19L12 17L13 17L13 16L15 16L15 14L16 14L16 12L15 12L15 14L13 14L13 12L14 12L14 11L15 11L15 9L16 9L16 8L14 8L14 6L15 6L15 7L16 7L16 6L17 6L17 4L16 4L16 5L15 5L15 4ZM25 4L25 5L26 5L26 4ZM30 5L30 6L29 6L29 7L28 7L28 8L27 8L27 9L29 9L29 7L30 7L30 6L31 6L31 5ZM22 6L22 7L23 7L23 6ZM24 6L24 7L25 7L25 6ZM9 9L9 10L8 10L8 11L9 11L9 12L10 12L10 13L11 13L11 14L12 14L12 12L11 12L11 10L10 10L10 9ZM25 10L25 11L26 11L26 10ZM17 11L17 15L19 15L19 14L20 14L20 15L21 15L21 14L20 14L20 13L19 13L19 12L18 12L18 11ZM18 13L18 14L19 14L19 13ZM28 13L28 15L29 15L29 17L30 17L30 18L29 18L29 20L30 20L30 21L33 21L33 22L32 22L32 23L33 23L33 22L34 22L34 24L35 24L35 25L36 25L36 26L37 26L37 25L36 25L36 23L35 23L35 21L33 21L33 19L32 19L32 20L31 20L31 19L30 19L30 18L31 18L31 17L32 17L32 18L33 18L33 17L32 17L32 16L31 16L31 15L30 15L30 14L29 14L29 13ZM0 14L0 16L1 16L1 17L2 17L2 16L1 16L1 14ZM26 16L26 17L27 17L27 19L26 19L26 18L24 18L24 19L23 19L23 18L22 18L22 19L23 19L23 20L22 20L22 22L20 22L20 21L21 21L21 20L20 20L20 21L19 21L19 20L17 20L17 22L15 22L15 21L14 21L14 22L15 22L15 23L14 23L14 24L13 24L13 21L12 21L12 24L13 24L13 26L14 26L14 24L15 24L15 25L16 25L16 23L17 23L17 24L18 24L18 23L17 23L17 22L19 22L19 25L18 25L18 26L19 26L19 27L20 27L20 28L17 28L17 29L19 29L19 31L21 31L21 30L20 30L20 29L21 29L21 27L22 27L22 29L23 29L23 30L22 30L22 31L24 31L24 29L25 29L25 30L26 30L26 29L25 29L25 25L27 25L27 24L28 24L28 22L29 22L29 21L27 21L27 23L26 23L26 22L25 22L25 21L26 21L26 20L28 20L28 16ZM30 16L30 17L31 17L31 16ZM35 16L35 17L34 17L34 18L35 18L35 17L36 17L36 16ZM14 17L14 18L15 18L15 17ZM18 17L18 18L19 18L19 17ZM38 17L38 19L39 19L39 17ZM1 18L1 19L2 19L2 18ZM11 19L11 20L9 20L9 22L8 22L8 23L9 23L9 26L10 26L10 25L11 25L11 24L10 24L10 23L11 23L11 20L12 20L12 19ZM24 19L24 20L23 20L23 21L24 21L24 20L26 20L26 19ZM34 19L34 20L35 20L35 19ZM1 22L1 23L4 23L4 22ZM9 22L9 23L10 23L10 22ZM23 22L23 23L24 23L24 25L25 25L25 22ZM20 23L20 25L19 25L19 26L20 26L20 25L21 25L21 26L22 26L22 25L23 25L23 24L22 24L22 25L21 25L21 23ZM6 24L6 25L5 25L5 26L6 26L6 27L8 27L8 24ZM31 24L31 25L32 25L32 24ZM6 25L6 26L7 26L7 25ZM0 26L0 28L1 28L1 26ZM23 26L23 28L24 28L24 26ZM11 28L11 29L12 29L12 28ZM0 29L0 30L1 30L1 29ZM33 29L33 30L34 30L34 29ZM35 29L35 31L37 31L37 29ZM5 30L5 31L2 31L2 32L0 32L0 33L3 33L3 32L4 32L4 33L5 33L5 32L6 32L6 33L7 33L7 32L8 32L8 37L9 37L9 38L10 38L10 39L9 39L9 41L10 41L10 39L11 39L11 36L10 36L10 37L9 37L9 33L10 33L10 35L11 35L11 34L12 34L12 33L13 33L13 32L11 32L11 31L10 31L10 32L8 32L8 31L7 31L7 30ZM6 31L6 32L7 32L7 31ZM10 32L10 33L11 33L11 32ZM20 32L20 33L23 33L23 32ZM27 32L27 33L29 33L29 32ZM31 32L31 33L30 33L30 34L28 34L28 35L27 35L27 34L25 34L25 35L24 35L24 36L25 36L25 37L28 37L28 39L29 39L29 38L30 38L30 39L31 39L31 38L32 38L32 37L31 37L31 35L30 35L30 34L31 34L31 33L32 33L32 32ZM33 33L33 36L36 36L36 33ZM34 34L34 35L35 35L35 34ZM26 35L26 36L27 36L27 35ZM28 35L28 37L29 37L29 35ZM30 37L30 38L31 38L31 37ZM17 38L17 39L19 39L19 38ZM34 39L34 40L35 40L35 39ZM0 0L0 7L7 7L7 0ZM1 1L1 6L6 6L6 1ZM2 2L2 5L5 5L5 2ZM34 0L34 7L41 7L41 0ZM35 1L35 6L40 6L40 1ZM36 2L36 5L39 5L39 2ZM0 34L0 41L7 41L7 34ZM1 35L1 40L6 40L6 35ZM2 36L2 39L5 39L5 36Z" fill="#000000"/></g></g></svg>
