<?xml version="1.0" encoding="UTF-8"?>
<svg xmlns="http://www.w3.org/2000/svg" version="1.1" width="200" height="200" viewBox="0 0 200 200"><rect x="0" y="0" width="200" height="200" fill="#ffffff"/><g transform="scale(6.897)"><g transform="translate(0,0)"><path fill-rule="evenodd" d="M8 0L8 2L9 2L9 3L8 3L8 7L9 7L9 8L11 8L11 9L9 9L9 10L8 10L8 9L7 9L7 8L6 8L6 9L5 9L5 10L4 10L4 8L3 8L3 10L1 10L1 13L3 13L3 14L0 14L0 16L2 16L2 17L3 17L3 18L2 18L2 21L4 21L4 20L3 20L3 19L5 19L5 20L6 20L6 21L8 21L8 22L9 22L9 25L8 25L8 26L9 26L9 27L10 27L10 28L9 28L9 29L10 29L10 28L11 28L11 29L15 29L15 28L16 28L16 29L19 29L19 28L20 28L20 27L21 27L21 26L23 26L23 27L22 27L22 29L26 29L26 28L29 28L29 24L27 24L27 23L28 23L28 22L29 22L29 21L28 21L28 20L29 20L29 18L27 18L27 19L26 19L26 18L24 18L24 19L23 19L23 18L22 18L22 19L21 19L21 20L20 20L20 21L19 21L19 19L17 19L17 18L16 18L16 19L15 19L15 21L14 21L14 20L13 20L13 19L14 19L14 18L15 18L15 16L14 16L14 15L16 15L16 14L17 14L17 12L15 12L15 13L13 13L13 12L14 12L14 11L13 11L13 10L12 10L12 9L13 9L13 8L14 8L14 10L15 10L15 11L18 11L18 8L16 8L16 10L15 10L15 5L16 5L16 4L17 4L17 6L16 6L16 7L17 7L17 6L18 6L18 7L19 7L19 10L20 10L20 11L22 11L22 12L19 12L19 13L21 13L21 14L22 14L22 15L23 15L23 16L24 16L24 17L25 17L25 16L26 16L26 15L27 15L27 16L28 16L28 15L27 15L27 14L26 14L26 13L27 13L27 12L28 12L28 13L29 13L29 12L28 12L28 11L27 11L27 10L29 10L29 8L27 8L27 10L26 10L26 11L27 11L27 12L26 12L26 13L25 13L25 11L22 11L22 9L20 9L20 7L21 7L21 6L20 6L20 7L19 7L19 4L20 4L20 5L21 5L21 3L19 3L19 4L18 4L18 1L16 1L16 0L14 0L14 1L13 1L13 0L12 0L12 1L11 1L11 0L10 0L10 1L11 1L11 2L9 2L9 0ZM20 0L20 2L21 2L21 0ZM12 1L12 2L11 2L11 3L13 3L13 1ZM14 1L14 3L15 3L15 4L16 4L16 3L17 3L17 2L16 2L16 1ZM9 3L9 7L10 7L10 6L11 6L11 8L12 8L12 6L13 6L13 7L14 7L14 4L10 4L10 3ZM11 5L11 6L12 6L12 5ZM23 8L23 9L24 9L24 10L25 10L25 9L26 9L26 8ZM6 9L6 10L7 10L7 11L4 11L4 10L3 10L3 11L2 11L2 12L4 12L4 13L6 13L6 14L7 14L7 13L6 13L6 12L8 12L8 10L7 10L7 9ZM10 10L10 11L9 11L9 12L10 12L10 13L9 13L9 14L10 14L10 13L11 13L11 16L13 16L13 13L12 13L12 12L11 12L11 10ZM15 13L15 14L16 14L16 13ZM22 13L22 14L23 14L23 13ZM24 13L24 14L25 14L25 13ZM3 14L3 15L2 15L2 16L3 16L3 15L4 15L4 18L7 18L7 19L6 19L6 20L8 20L8 21L9 21L9 22L10 22L10 21L11 21L11 20L12 20L12 19L13 19L13 18L14 18L14 17L12 17L12 18L11 18L11 20L10 20L10 19L9 19L9 18L7 18L7 17L5 17L5 16L8 16L8 17L10 17L10 15L5 15L5 14ZM17 15L17 16L16 16L16 17L19 17L19 18L21 18L21 17L20 17L20 15L19 15L19 16L18 16L18 15ZM24 15L24 16L25 16L25 15ZM0 18L0 19L1 19L1 18ZM16 19L16 20L17 20L17 19ZM22 19L22 20L23 20L23 19ZM24 19L24 20L25 20L25 22L26 22L26 23L27 23L27 22L28 22L28 21L27 21L27 20L26 20L26 19ZM0 20L0 21L1 21L1 20ZM12 21L12 22L11 22L11 23L12 23L12 24L10 24L10 27L11 27L11 28L14 28L14 26L15 26L15 24L14 24L14 23L12 23L12 22L13 22L13 21ZM16 21L16 22L17 22L17 24L16 24L16 26L21 26L21 25L19 25L19 24L18 24L18 21ZM21 21L21 24L24 24L24 21ZM19 22L19 23L20 23L20 22ZM22 22L22 23L23 23L23 22ZM13 24L13 25L12 25L12 27L13 27L13 25L14 25L14 24ZM17 24L17 25L18 25L18 24ZM24 25L24 27L23 27L23 28L25 28L25 26L26 26L26 27L28 27L28 26L27 26L27 25ZM16 27L16 28L18 28L18 27ZM0 0L0 7L7 7L7 0ZM1 1L1 6L6 6L6 1ZM2 2L2 5L5 5L5 2ZM22 0L22 7L29 7L29 0ZM23 1L23 6L28 6L28 1ZM24 2L24 5L27 5L27 2ZM0 22L0 29L7 29L7 22ZM1 23L1 28L6 28L6 23ZM2 24L2 27L5 27L5 24Z" fill="#000000"/></g></g></svg>
