<?xml version="1.0" encoding="UTF-8"?>
<svg xmlns="http://www.w3.org/2000/svg" version="1.1" width="200" height="200" viewBox="0 0 200 200"><rect x="0" y="0" width="200" height="200" fill="#ffffff"/><g transform="scale(4.878)"><g transform="translate(0,0)"><path fill-rule="evenodd" d="M8 0L8 3L9 3L9 5L8 5L8 9L7 9L7 8L6 8L6 9L7 9L7 10L5 10L5 8L2 8L2 9L3 9L3 10L2 10L2 11L1 11L1 12L0 12L0 15L2 15L2 17L0 17L0 18L2 18L2 19L0 19L0 21L1 21L1 20L2 20L2 22L0 22L0 23L2 23L2 24L1 24L1 25L2 25L2 24L4 24L4 25L5 25L5 27L4 27L4 26L2 26L2 27L1 27L1 28L0 28L0 33L1 33L1 28L3 28L3 33L5 33L5 32L6 32L6 33L8 33L8 34L9 34L9 36L8 36L8 39L10 39L10 41L13 41L13 40L14 40L14 41L15 41L15 37L16 37L16 40L18 40L18 41L20 41L20 39L22 39L22 37L23 37L23 38L24 38L24 37L25 37L25 40L26 40L26 41L27 41L27 40L28 40L28 39L29 39L29 38L27 38L27 36L28 36L28 37L29 37L29 36L32 36L32 38L31 38L31 37L30 37L30 40L29 40L29 41L30 41L30 40L33 40L33 41L34 41L34 40L33 40L33 39L32 39L32 38L34 38L34 39L35 39L35 40L36 40L36 39L37 39L37 40L40 40L40 38L41 38L41 37L40 37L40 36L41 36L41 35L40 35L40 34L41 34L41 33L40 33L40 32L41 32L41 31L40 31L40 30L41 30L41 29L39 29L39 31L40 31L40 32L37 32L37 31L36 31L36 30L38 30L38 29L35 29L35 30L34 30L34 31L35 31L35 32L33 32L33 31L32 31L32 30L33 30L33 29L34 29L34 28L33 28L33 27L34 27L34 26L36 26L36 27L35 27L35 28L38 28L38 26L39 26L39 28L41 28L41 27L40 27L40 26L41 26L41 23L39 23L39 24L40 24L40 26L39 26L39 25L33 25L33 24L34 24L34 23L33 23L33 22L32 22L32 21L34 21L34 22L35 22L35 23L36 23L36 24L37 24L37 22L38 22L38 21L39 21L39 20L36 20L36 19L35 19L35 17L36 17L36 18L37 18L37 17L36 17L36 16L38 16L38 18L41 18L41 16L40 16L40 17L39 17L39 16L38 16L38 14L37 14L37 13L36 13L36 14L35 14L35 17L34 17L34 16L32 16L32 17L31 17L31 16L29 16L29 15L28 15L28 16L29 16L29 17L31 17L31 18L30 18L30 19L31 19L31 20L30 20L30 21L31 21L31 22L27 22L27 21L29 21L29 18L27 18L27 15L26 15L26 14L29 14L29 13L30 13L30 15L31 15L31 12L32 12L32 13L33 13L33 14L32 14L32 15L34 15L34 13L35 13L35 9L36 9L36 10L37 10L37 11L36 11L36 12L38 12L38 11L39 11L39 13L40 13L40 14L39 14L39 15L40 15L40 14L41 14L41 13L40 13L40 12L41 12L41 11L40 11L40 10L41 10L41 8L38 8L38 9L40 9L40 10L37 10L37 9L36 9L36 8L33 8L33 9L32 9L32 8L31 8L31 6L30 6L30 5L33 5L33 4L30 4L30 5L29 5L29 4L28 4L28 5L27 5L27 4L25 4L25 6L24 6L24 7L25 7L25 8L24 8L24 9L25 9L25 8L26 8L26 9L27 9L27 8L28 8L28 7L29 7L29 6L30 6L30 8L29 8L29 9L28 9L28 10L27 10L27 11L26 11L26 10L23 10L23 11L22 11L22 12L21 12L21 11L18 11L18 10L20 10L20 8L21 8L21 9L23 9L23 8L22 8L22 7L23 7L23 5L24 5L24 1L22 1L22 3L21 3L21 0L16 0L16 1L15 1L15 0L14 0L14 1L13 1L13 2L12 2L12 1L11 1L11 0L10 0L10 1L9 1L9 0ZM26 0L26 1L27 1L27 2L26 2L26 3L33 3L33 0L29 0L29 1L27 1L27 0ZM10 1L10 2L11 2L11 1ZM17 1L17 2L16 2L16 5L15 5L15 2L14 2L14 3L11 3L11 5L10 5L10 6L9 6L9 7L10 7L10 6L11 6L11 8L9 8L9 9L11 9L11 10L12 10L12 11L10 11L10 10L8 10L8 13L6 13L6 12L7 12L7 11L6 11L6 12L5 12L5 13L4 13L4 14L3 14L3 15L4 15L4 16L3 16L3 19L2 19L2 20L3 20L3 22L2 22L2 23L4 23L4 24L5 24L5 25L6 25L6 26L7 26L7 27L5 27L5 28L4 28L4 27L3 27L3 28L4 28L4 30L7 30L7 29L6 29L6 28L7 28L7 27L8 27L8 28L11 28L11 29L12 29L12 28L11 28L11 24L12 24L12 25L13 25L13 26L12 26L12 27L16 27L16 26L17 26L17 27L19 27L19 29L17 29L17 28L16 28L16 29L15 29L15 28L14 28L14 29L13 29L13 32L14 32L14 29L15 29L15 31L16 31L16 30L17 30L17 32L15 32L15 33L13 33L13 34L12 34L12 30L9 30L9 29L8 29L8 31L9 31L9 32L8 32L8 33L10 33L10 35L12 35L12 36L13 36L13 37L15 37L15 35L16 35L16 37L17 37L17 39L18 39L18 40L19 40L19 38L18 38L18 37L22 37L22 35L25 35L25 36L27 36L27 34L28 34L28 36L29 36L29 33L25 33L25 32L27 32L27 30L26 30L26 31L23 31L23 29L24 29L24 30L25 30L25 29L26 29L26 28L23 28L23 29L22 29L22 30L21 30L21 31L20 31L20 27L21 27L21 28L22 28L22 27L24 27L24 26L22 26L22 25L23 25L23 24L21 24L21 23L20 23L20 24L19 24L19 23L18 23L18 25L16 25L16 24L17 24L17 23L16 23L16 22L17 22L17 21L20 21L20 22L21 22L21 20L22 20L22 21L23 21L23 19L24 19L24 20L25 20L25 19L26 19L26 21L25 21L25 22L26 22L26 24L24 24L24 25L25 25L25 27L26 27L26 26L29 26L29 27L27 27L27 28L31 28L31 29L28 29L28 30L30 30L30 31L28 31L28 32L31 32L31 30L32 30L32 29L33 29L33 28L31 28L31 27L32 27L32 26L33 26L33 25L32 25L32 24L33 24L33 23L32 23L32 22L31 22L31 25L30 25L30 26L29 26L29 25L28 25L28 24L30 24L30 23L28 23L28 24L27 24L27 22L26 22L26 21L27 21L27 20L28 20L28 19L26 19L26 18L25 18L25 17L26 17L26 15L25 15L25 12L24 12L24 15L25 15L25 16L23 16L23 12L22 12L22 13L21 13L21 12L20 12L20 13L19 13L19 12L18 12L18 11L15 11L15 14L12 14L12 13L14 13L14 11L13 11L13 9L14 9L14 6L15 6L15 7L16 7L16 6L17 6L17 7L18 7L18 8L20 8L20 6L19 6L19 5L21 5L21 7L22 7L22 5L23 5L23 3L22 3L22 4L20 4L20 3L18 3L18 4L19 4L19 5L18 5L18 6L17 6L17 2L20 2L20 1ZM30 1L30 2L32 2L32 1ZM12 5L12 7L13 7L13 6L14 6L14 5ZM26 5L26 6L25 6L25 7L26 7L26 8L27 8L27 7L28 7L28 6L27 6L27 5ZM18 6L18 7L19 7L19 6ZM26 6L26 7L27 7L27 6ZM32 6L32 7L33 7L33 6ZM11 8L11 9L12 9L12 8ZM15 8L15 10L18 10L18 9L16 9L16 8ZM0 9L0 10L1 10L1 9ZM29 9L29 12L28 12L28 13L29 13L29 12L31 12L31 11L32 11L32 10L31 10L31 9ZM33 9L33 11L34 11L34 9ZM3 10L3 11L2 11L2 12L3 12L3 11L4 11L4 10ZM30 10L30 11L31 11L31 10ZM9 11L9 13L11 13L11 12L10 12L10 11ZM26 12L26 13L27 13L27 12ZM33 12L33 13L34 13L34 12ZM1 13L1 14L2 14L2 13ZM16 13L16 14L15 14L15 16L14 16L14 15L13 15L13 19L11 19L11 23L12 23L12 24L13 24L13 25L15 25L15 26L16 26L16 25L15 25L15 24L16 24L16 23L15 23L15 24L13 24L13 23L12 23L12 22L14 22L14 21L13 21L13 19L16 19L16 20L15 20L15 22L16 22L16 21L17 21L17 19L18 19L18 18L19 18L19 19L20 19L20 20L21 20L21 19L23 19L23 17L22 17L22 18L19 18L19 17L20 17L20 16L22 16L22 14L20 14L20 15L19 15L19 14L18 14L18 13ZM4 14L4 15L5 15L5 14ZM6 14L6 15L7 15L7 14ZM9 14L9 15L8 15L8 18L6 18L6 17L7 17L7 16L6 16L6 17L5 17L5 18L4 18L4 19L3 19L3 20L4 20L4 21L5 21L5 24L6 24L6 25L7 25L7 26L8 26L8 27L10 27L10 25L9 25L9 24L8 24L8 25L7 25L7 24L6 24L6 23L8 23L8 21L9 21L9 20L10 20L10 18L9 18L9 17L11 17L11 18L12 18L12 17L11 17L11 14ZM18 15L18 17L19 17L19 15ZM15 16L15 17L16 17L16 18L17 18L17 17L16 17L16 16ZM32 17L32 18L31 18L31 19L32 19L32 20L31 20L31 21L32 21L32 20L34 20L34 21L35 21L35 22L36 22L36 21L35 21L35 19L34 19L34 18L33 18L33 17ZM5 18L5 19L4 19L4 20L5 20L5 21L6 21L6 22L7 22L7 21L8 21L8 19L6 19L6 18ZM32 18L32 19L33 19L33 18ZM6 20L6 21L7 21L7 20ZM40 20L40 21L41 21L41 20ZM9 22L9 23L10 23L10 22ZM8 25L8 26L9 26L9 25ZM18 25L18 26L19 26L19 27L20 27L20 26L21 26L21 27L22 27L22 26L21 26L21 25ZM31 25L31 26L32 26L32 25ZM18 30L18 32L17 32L17 34L18 34L18 35L17 35L17 37L18 37L18 35L19 35L19 34L21 34L21 35L20 35L20 36L21 36L21 35L22 35L22 32L21 32L21 33L20 33L20 31L19 31L19 30ZM4 31L4 32L5 32L5 31ZM6 31L6 32L7 32L7 31ZM18 32L18 33L19 33L19 32ZM23 32L23 33L24 33L24 34L25 34L25 35L26 35L26 34L25 34L25 33L24 33L24 32ZM15 33L15 34L16 34L16 33ZM30 33L30 35L31 35L31 34L32 34L32 33ZM33 33L33 36L36 36L36 33ZM37 33L37 34L39 34L39 33ZM34 34L34 35L35 35L35 34ZM13 35L13 36L14 36L14 35ZM38 35L38 36L37 36L37 37L38 37L38 36L39 36L39 35ZM10 36L10 37L9 37L9 38L10 38L10 39L11 39L11 38L12 38L12 39L13 39L13 38L12 38L12 37L11 37L11 36ZM23 36L23 37L24 37L24 36ZM10 37L10 38L11 38L11 37ZM34 37L34 38L36 38L36 37ZM37 38L37 39L38 39L38 38ZM26 39L26 40L27 40L27 39ZM21 40L21 41L22 41L22 40ZM23 40L23 41L24 41L24 40ZM0 0L0 7L7 7L7 0ZM1 1L1 6L6 6L6 1ZM2 2L2 5L5 5L5 2ZM34 0L34 7L41 7L41 0ZM35 1L35 6L40 6L40 1ZM36 2L36 5L39 5L39 2ZM0 34L0 41L7 41L7 34ZM1 35L1 40L6 40L6 35ZM2 36L2 39L5 39L5 36Z" fill="#000000"/></g></g></svg>
