<?xml version="1.0" encoding="UTF-8"?>
<svg xmlns="http://www.w3.org/2000/svg" version="1.1" width="200" height="200" viewBox="0 0 200 200"><rect x="0" y="0" width="200" height="200" fill="#ffffff"/><g transform="scale(4.878)"><g transform="translate(0,0)"><path fill-rule="evenodd" d="M11 0L11 3L10 3L10 2L9 2L9 1L8 1L8 2L9 2L9 5L8 5L8 8L4 8L4 9L1 9L1 10L4 10L4 9L5 9L5 11L1 11L1 13L2 13L2 14L1 14L1 16L2 16L2 14L3 14L3 15L4 15L4 16L3 16L3 17L0 17L0 22L1 22L1 20L2 20L2 19L4 19L4 17L5 17L5 15L4 15L4 14L3 14L3 13L4 13L4 12L5 12L5 14L6 14L6 15L7 15L7 16L6 16L6 17L7 17L7 18L5 18L5 23L3 23L3 22L4 22L4 21L3 21L3 22L2 22L2 23L0 23L0 24L2 24L2 25L1 25L1 26L2 26L2 25L3 25L3 28L4 28L4 30L5 30L5 29L7 29L7 30L6 30L6 31L8 31L8 32L10 32L10 33L11 33L11 34L9 34L9 33L8 33L8 37L9 37L9 40L10 40L10 39L11 39L11 40L12 40L12 41L14 41L14 39L15 39L15 37L16 37L16 40L15 40L15 41L16 41L16 40L17 40L17 41L20 41L20 39L21 39L21 41L22 41L22 39L21 39L21 38L23 38L23 36L24 36L24 37L25 37L25 38L26 38L26 37L27 37L27 39L26 39L26 40L29 40L29 41L30 41L30 39L31 39L31 41L33 41L33 39L32 39L32 38L33 38L33 37L36 37L36 38L37 38L37 35L41 35L41 33L40 33L40 31L41 31L41 29L40 29L40 28L41 28L41 24L40 24L40 23L41 23L41 22L40 22L40 21L41 21L41 9L40 9L40 8L39 8L39 9L36 9L36 8L34 8L34 9L32 9L32 8L33 8L33 5L31 5L31 3L33 3L33 2L32 2L32 1L31 1L31 0L29 0L29 1L28 1L28 0L27 0L27 1L26 1L26 0L25 0L25 1L24 1L24 0L23 0L23 1L21 1L21 0L16 0L16 1L18 1L18 3L17 3L17 4L16 4L16 2L15 2L15 0L13 0L13 1L12 1L12 0ZM13 1L13 2L14 2L14 4L15 4L15 7L16 7L16 6L17 6L17 8L18 8L18 9L16 9L16 8L14 8L14 5L13 5L13 4L10 4L10 5L11 5L11 7L10 7L10 6L9 6L9 8L8 8L8 10L7 10L7 9L6 9L6 10L7 10L7 11L5 11L5 12L8 12L8 14L9 14L9 13L10 13L10 12L9 12L9 11L10 11L10 10L11 10L11 11L12 11L12 12L13 12L13 13L14 13L14 14L12 14L12 13L11 13L11 14L10 14L10 15L9 15L9 16L8 16L8 18L7 18L7 19L6 19L6 20L7 20L7 21L6 21L6 22L7 22L7 23L5 23L5 24L4 24L4 28L7 28L7 29L8 29L8 30L9 30L9 29L10 29L10 28L8 28L8 26L9 26L9 27L11 27L11 28L12 28L12 29L11 29L11 30L10 30L10 31L11 31L11 30L12 30L12 29L14 29L14 30L13 30L13 31L12 31L12 32L11 32L11 33L15 33L15 34L16 34L16 35L12 35L12 36L10 36L10 35L9 35L9 37L11 37L11 39L13 39L13 38L14 38L14 36L16 36L16 37L17 37L17 36L19 36L19 37L18 37L18 38L17 38L17 40L19 40L19 39L20 39L20 38L21 38L21 36L22 36L22 35L21 35L21 33L23 33L23 35L24 35L24 36L25 36L25 37L26 37L26 35L27 35L27 33L28 33L28 35L29 35L29 36L27 36L27 37L29 37L29 38L28 38L28 39L30 39L30 37L31 37L31 38L32 38L32 37L31 37L31 35L30 35L30 34L31 34L31 33L32 33L32 32L31 32L31 31L30 31L30 29L31 29L31 28L33 28L33 29L32 29L32 31L33 31L33 32L34 32L34 31L35 31L35 32L37 32L37 33L39 33L39 34L40 34L40 33L39 33L39 31L38 31L38 30L37 30L37 31L36 31L36 29L37 29L37 27L35 27L35 28L34 28L34 27L32 27L32 26L33 26L33 25L35 25L35 26L36 26L36 25L37 25L37 26L38 26L38 28L40 28L40 27L39 27L39 25L37 25L37 24L39 24L39 23L40 23L40 22L38 22L38 23L37 23L37 22L36 22L36 21L35 21L35 20L36 20L36 19L35 19L35 18L36 18L36 17L37 17L37 16L36 16L36 17L35 17L35 16L34 16L34 15L32 15L32 14L30 14L30 13L29 13L29 12L28 12L28 11L29 11L29 10L30 10L30 11L31 11L31 12L32 12L32 13L33 13L33 14L35 14L35 15L37 15L37 14L36 14L36 13L37 13L37 11L35 11L35 10L36 10L36 9L35 9L35 10L33 10L33 11L32 11L32 9L31 9L31 8L32 8L32 6L31 6L31 8L30 8L30 9L28 9L28 5L27 5L27 4L28 4L28 3L31 3L31 1L30 1L30 2L28 2L28 1L27 1L27 2L28 2L28 3L26 3L26 2L24 2L24 1L23 1L23 2L22 2L22 3L21 3L21 1L20 1L20 2L19 2L19 3L18 3L18 4L17 4L17 5L16 5L16 4L15 4L15 2L14 2L14 1ZM19 3L19 4L20 4L20 5L19 5L19 6L18 6L18 7L19 7L19 6L20 6L20 8L19 8L19 9L18 9L18 10L16 10L16 11L18 11L18 10L19 10L19 12L16 12L16 13L19 13L19 14L21 14L21 15L16 15L16 14L15 14L15 15L12 15L12 14L11 14L11 15L12 15L12 16L11 16L11 17L10 17L10 18L9 18L9 19L8 19L8 20L13 20L13 21L14 21L14 19L16 19L16 20L15 20L15 22L14 22L14 23L13 23L13 24L14 24L14 23L15 23L15 24L16 24L16 25L13 25L13 26L18 26L18 27L15 27L15 28L14 28L14 29L16 29L16 30L17 30L17 31L16 31L16 32L15 32L15 33L16 33L16 32L19 32L19 33L21 33L21 32L20 32L20 31L21 31L21 30L24 30L24 28L23 28L23 27L22 27L22 26L23 26L23 25L24 25L24 27L25 27L25 28L26 28L26 29L27 29L27 28L28 28L28 29L30 29L30 28L31 28L31 26L30 26L30 25L33 25L33 23L35 23L35 25L36 25L36 23L35 23L35 21L32 21L32 19L33 19L33 17L32 17L32 16L31 16L31 15L29 15L29 13L28 13L28 15L29 15L29 17L32 17L32 19L30 19L30 18L28 18L28 16L26 16L26 15L25 15L25 16L22 16L22 15L23 15L23 14L21 14L21 13L19 13L19 12L24 12L24 14L25 14L25 13L26 13L26 12L27 12L27 11L28 11L28 9L26 9L26 8L25 8L25 9L26 9L26 12L25 12L25 10L24 10L24 11L21 11L21 10L22 10L22 9L21 9L21 6L20 6L20 5L21 5L21 4L20 4L20 3ZM22 3L22 8L23 8L23 9L24 9L24 7L25 7L25 6L26 6L26 7L27 7L27 6L26 6L26 5L24 5L24 4L25 4L25 3L24 3L24 4L23 4L23 3ZM29 4L29 5L30 5L30 4ZM12 5L12 7L13 7L13 5ZM23 5L23 7L24 7L24 5ZM29 6L29 7L30 7L30 6ZM10 8L10 9L9 9L9 10L8 10L8 11L9 11L9 10L10 10L10 9L11 9L11 10L12 10L12 8ZM13 9L13 12L14 12L14 13L15 13L15 12L14 12L14 9ZM19 9L19 10L21 10L21 9ZM30 9L30 10L31 10L31 9ZM33 11L33 13L35 13L35 12L34 12L34 11ZM38 11L38 12L39 12L39 13L40 13L40 12L39 12L39 11ZM6 13L6 14L7 14L7 13ZM38 15L38 17L39 17L39 16L40 16L40 15ZM12 16L12 17L13 17L13 19L14 19L14 16ZM16 16L16 17L15 17L15 18L16 18L16 17L17 17L17 18L18 18L18 17L17 17L17 16ZM25 16L25 17L24 17L24 19L26 19L26 22L25 22L25 21L24 21L24 20L23 20L23 18L22 18L22 17L20 17L20 18L19 18L19 19L17 19L17 20L16 20L16 23L17 23L17 20L18 20L18 23L19 23L19 24L20 24L20 25L19 25L19 27L18 27L18 28L16 28L16 29L19 29L19 28L20 28L20 25L21 25L21 26L22 26L22 22L21 22L21 21L20 21L20 19L21 19L21 20L22 20L22 21L24 21L24 22L23 22L23 23L24 23L24 22L25 22L25 24L24 24L24 25L25 25L25 24L26 24L26 26L27 26L27 25L28 25L28 28L29 28L29 25L28 25L28 23L27 23L27 24L26 24L26 22L27 22L27 21L28 21L28 22L29 22L29 23L30 23L30 24L32 24L32 23L33 23L33 22L32 22L32 21L30 21L30 20L29 20L29 21L28 21L28 19L27 19L27 17L26 17L26 16ZM25 17L25 18L26 18L26 17ZM34 17L34 18L35 18L35 17ZM1 18L1 19L2 19L2 18ZM10 18L10 19L12 19L12 18ZM21 18L21 19L22 19L22 18ZM34 19L34 20L35 20L35 19ZM38 19L38 21L39 21L39 20L40 20L40 19ZM7 21L7 22L9 22L9 23L10 23L10 22L11 22L11 23L12 23L12 21ZM19 21L19 22L20 22L20 21ZM30 22L30 23L31 23L31 22ZM2 23L2 24L3 24L3 23ZM7 23L7 24L6 24L6 25L5 25L5 26L6 26L6 27L7 27L7 26L6 26L6 25L8 25L8 23ZM20 23L20 24L21 24L21 23ZM9 24L9 25L10 25L10 26L12 26L12 24L11 24L11 25L10 25L10 24ZM0 27L0 30L2 30L2 32L0 32L0 33L3 33L3 32L5 32L5 31L3 31L3 29L2 29L2 27ZM35 28L35 29L36 29L36 28ZM20 29L20 30L21 30L21 29ZM33 29L33 30L34 30L34 29ZM39 29L39 30L40 30L40 29ZM18 30L18 31L19 31L19 30ZM27 30L27 31L26 31L26 33L27 33L27 32L28 32L28 33L29 33L29 34L30 34L30 33L31 33L31 32L30 32L30 31L28 31L28 30ZM22 31L22 32L23 32L23 33L25 33L25 31L24 31L24 32L23 32L23 31ZM6 32L6 33L7 33L7 32ZM33 33L33 36L36 36L36 33ZM18 34L18 35L19 35L19 34ZM24 34L24 35L26 35L26 34ZM34 34L34 35L35 35L35 34ZM16 35L16 36L17 36L17 35ZM20 35L20 36L21 36L21 35ZM39 36L39 37L40 37L40 38L38 38L38 39L36 39L36 40L37 40L37 41L40 41L40 40L41 40L41 37L40 37L40 36ZM23 39L23 41L25 41L25 39ZM34 39L34 40L35 40L35 39ZM0 0L0 7L7 7L7 0ZM1 1L1 6L6 6L6 1ZM2 2L2 5L5 5L5 2ZM34 0L34 7L41 7L41 0ZM35 1L35 6L40 6L40 1ZM36 2L36 5L39 5L39 2ZM0 34L0 41L7 41L7 34ZM1 35L1 40L6 40L6 35ZM2 36L2 39L5 39L5 36Z" fill="#000000"/></g></g></svg>
