<?xml version="1.0" encoding="UTF-8"?>
<svg xmlns="http://www.w3.org/2000/svg" version="1.1" width="200" height="200" viewBox="0 0 200 200"><rect x="0" y="0" width="200" height="200" fill="#ffffff"/><g transform="scale(4.878)"><g transform="translate(0,0)"><path fill-rule="evenodd" d="M8 0L8 3L9 3L9 2L10 2L10 1L12 1L12 0L10 0L10 1L9 1L9 0ZM15 0L15 1L14 1L14 2L16 2L16 4L15 4L15 3L14 3L14 4L13 4L13 5L11 5L11 4L12 4L12 3L13 3L13 2L11 2L11 3L10 3L10 4L9 4L9 5L8 5L8 9L9 9L9 11L8 11L8 10L6 10L6 9L7 9L7 8L6 8L6 9L5 9L5 8L2 8L2 9L1 9L1 10L0 10L0 14L1 14L1 15L0 15L0 16L3 16L3 17L1 17L1 18L0 18L0 21L2 21L2 22L0 22L0 24L1 24L1 23L2 23L2 22L4 22L4 23L3 23L3 25L2 25L2 26L3 26L3 28L5 28L5 29L7 29L7 28L9 28L9 30L8 30L8 32L5 32L5 33L8 33L8 34L10 34L10 35L9 35L9 36L8 36L8 39L9 39L9 37L10 37L10 36L12 36L12 37L14 37L14 38L12 38L12 39L11 39L11 38L10 38L10 39L11 39L11 41L16 41L16 40L17 40L17 41L21 41L21 40L22 40L22 41L24 41L24 40L25 40L25 39L26 39L26 38L25 38L25 39L24 39L24 38L23 38L23 37L24 37L24 36L25 36L25 37L27 37L27 36L28 36L28 34L27 34L27 33L29 33L29 36L32 36L32 37L30 37L30 38L29 38L29 37L28 37L28 38L27 38L27 40L28 40L28 41L32 41L32 40L33 40L33 41L34 41L34 40L33 40L33 39L35 39L35 40L36 40L36 39L37 39L37 40L40 40L40 38L41 38L41 37L39 37L39 36L37 36L37 35L40 35L40 34L41 34L41 33L40 33L40 32L41 32L41 31L40 31L40 30L41 30L41 29L40 29L40 26L41 26L41 23L39 23L39 22L38 22L38 21L39 21L39 20L36 20L36 19L35 19L35 17L36 17L36 18L37 18L37 19L38 19L38 18L41 18L41 16L40 16L40 17L39 17L39 16L38 16L38 15L36 15L36 16L35 16L35 17L34 17L34 16L32 16L32 17L31 17L31 16L29 16L29 15L28 15L28 16L29 16L29 17L31 17L31 18L30 18L30 19L31 19L31 18L32 18L32 17L33 17L33 18L34 18L34 19L35 19L35 21L34 21L34 20L33 20L33 19L32 19L32 21L31 21L31 20L30 20L30 21L31 21L31 22L32 22L32 23L33 23L33 24L32 24L32 25L31 25L31 23L30 23L30 24L29 24L29 23L28 23L28 22L29 22L29 21L28 21L28 20L27 20L27 21L28 21L28 22L27 22L27 23L26 23L26 24L25 24L25 23L23 23L23 24L25 24L25 26L24 26L24 25L23 25L23 26L22 26L22 24L18 24L18 23L17 23L17 22L16 22L16 21L18 21L18 22L19 22L19 18L20 18L20 20L21 20L21 21L20 21L20 22L21 22L21 23L22 23L22 20L26 20L26 19L23 19L23 18L24 18L24 15L26 15L26 14L24 14L24 13L27 13L27 14L29 14L29 13L30 13L30 15L31 15L31 12L32 12L32 13L33 13L33 14L32 14L32 15L34 15L34 13L35 13L35 9L36 9L36 11L37 11L37 12L38 12L38 11L39 11L39 13L40 13L40 14L39 14L39 15L40 15L40 14L41 14L41 13L40 13L40 12L41 12L41 11L40 11L40 10L41 10L41 8L38 8L38 9L40 9L40 10L37 10L37 9L36 9L36 8L33 8L33 9L31 9L31 8L32 8L32 7L33 7L33 6L32 6L32 7L31 7L31 5L32 5L32 4L33 4L33 3L31 3L31 2L30 2L30 0L29 0L29 1L27 1L27 0L26 0L26 1L27 1L27 2L26 2L26 3L28 3L28 4L29 4L29 3L31 3L31 4L30 4L30 7L31 7L31 8L29 8L29 5L27 5L27 4L26 4L26 7L25 7L25 3L23 3L23 4L22 4L22 3L21 3L21 4L20 4L20 2L21 2L21 1L23 1L23 2L25 2L25 1L23 1L23 0L20 0L20 1L19 1L19 0L18 0L18 1L17 1L17 0ZM31 0L31 1L32 1L32 0ZM16 1L16 2L17 2L17 5L15 5L15 4L14 4L14 6L13 6L13 8L14 8L14 9L12 9L12 6L11 6L11 8L10 8L10 5L9 5L9 9L10 9L10 11L11 11L11 12L10 12L10 14L11 14L11 12L12 12L12 13L13 13L13 12L12 12L12 11L14 11L14 12L15 12L15 13L14 13L14 14L12 14L12 17L11 17L11 15L9 15L9 14L8 14L8 13L6 13L6 14L8 14L8 15L6 15L6 16L5 16L5 17L6 17L6 18L4 18L4 17L3 17L3 18L1 18L1 20L2 20L2 19L3 19L3 20L4 20L4 19L5 19L5 20L7 20L7 21L6 21L6 22L7 22L7 21L8 21L8 23L9 23L9 24L8 24L8 25L6 25L6 26L5 26L5 24L7 24L7 23L4 23L4 25L3 25L3 26L5 26L5 27L6 27L6 28L7 28L7 27L6 27L6 26L9 26L9 27L10 27L10 28L12 28L12 29L10 29L10 30L9 30L9 31L14 31L14 32L11 32L11 33L14 33L14 34L13 34L13 35L12 35L12 36L13 36L13 35L14 35L14 37L15 37L15 38L14 38L14 39L13 39L13 40L16 40L16 39L17 39L17 40L18 40L18 39L19 39L19 40L21 40L21 39L22 39L22 38L21 38L21 37L22 37L22 35L20 35L20 33L19 33L19 31L20 31L20 30L21 30L21 33L22 33L22 34L23 34L23 33L24 33L24 32L25 32L25 33L27 33L27 30L26 30L26 31L24 31L24 30L25 30L25 29L28 29L28 30L29 30L29 31L28 31L28 32L31 32L31 31L30 31L30 30L32 30L32 31L33 31L33 32L36 32L36 31L34 31L34 30L35 30L35 29L37 29L37 30L38 30L38 31L37 31L37 32L40 32L40 31L39 31L39 26L40 26L40 24L39 24L39 23L38 23L38 22L37 22L37 24L36 24L36 23L35 23L35 22L36 22L36 21L35 21L35 22L34 22L34 21L32 21L32 22L33 22L33 23L34 23L34 25L32 25L32 26L31 26L31 25L30 25L30 26L28 26L28 25L29 25L29 24L28 24L28 25L26 25L26 27L25 27L25 28L24 28L24 27L22 27L22 26L21 26L21 25L20 25L20 26L18 26L18 27L17 27L17 29L15 29L15 28L16 28L16 27L15 27L15 26L16 26L16 25L15 25L15 24L13 24L13 23L12 23L12 24L10 24L10 23L11 23L11 22L12 22L12 20L14 20L14 19L18 19L18 17L16 17L16 12L19 12L19 13L18 13L18 14L17 14L17 16L18 16L18 15L20 15L20 12L22 12L22 11L24 11L24 10L23 10L23 9L24 9L24 8L25 8L25 10L28 10L28 11L26 11L26 12L28 12L28 13L29 13L29 12L31 12L31 11L32 11L32 12L33 12L33 13L34 13L34 12L33 12L33 11L34 11L34 9L33 9L33 11L32 11L32 10L31 10L31 9L29 9L29 8L28 8L28 9L27 9L27 8L25 8L25 7L24 7L24 6L23 6L23 5L19 5L19 4L18 4L18 2L17 2L17 1ZM18 5L18 9L20 9L20 10L19 10L19 11L20 11L20 10L21 10L21 11L22 11L22 10L21 10L21 9L20 9L20 8L21 8L21 6L20 6L20 8L19 8L19 5ZM14 6L14 8L17 8L17 6L16 6L16 7L15 7L15 6ZM22 6L22 8L23 8L23 6ZM27 6L27 7L28 7L28 6ZM2 9L2 10L1 10L1 12L3 12L3 13L5 13L5 12L8 12L8 11L6 11L6 10L5 10L5 9ZM16 9L16 11L15 11L15 12L16 12L16 11L18 11L18 10L17 10L17 9ZM28 9L28 10L29 10L29 11L28 11L28 12L29 12L29 11L31 11L31 10L29 10L29 9ZM2 10L2 11L3 11L3 10ZM4 11L4 12L5 12L5 11ZM23 12L23 13L22 13L22 14L21 14L21 15L23 15L23 13L24 13L24 12ZM36 13L36 14L38 14L38 13ZM2 14L2 15L3 15L3 14ZM4 14L4 15L5 15L5 14ZM14 14L14 16L13 16L13 17L15 17L15 18L16 18L16 17L15 17L15 14ZM6 16L6 17L8 17L8 18L6 18L6 19L7 19L7 20L8 20L8 21L9 21L9 23L10 23L10 20L12 20L12 18L10 18L10 19L9 19L9 16ZM21 16L21 19L22 19L22 18L23 18L23 16ZM36 16L36 17L37 17L37 18L38 18L38 16ZM25 17L25 18L27 18L27 19L28 19L28 18L27 18L27 17ZM3 18L3 19L4 19L4 18ZM13 18L13 19L14 19L14 18ZM40 20L40 21L41 21L41 20ZM4 21L4 22L5 22L5 21ZM13 21L13 22L14 22L14 23L16 23L16 22L15 22L15 21ZM24 21L24 22L26 22L26 21ZM12 24L12 25L13 25L13 24ZM17 24L17 25L18 25L18 24ZM35 24L35 25L34 25L34 26L33 26L33 27L34 27L34 26L35 26L35 25L36 25L36 26L37 26L37 27L36 27L36 28L38 28L38 26L39 26L39 25L36 25L36 24ZM0 25L0 26L1 26L1 25ZM10 26L10 27L12 27L12 26ZM27 26L27 28L28 28L28 29L29 29L29 30L30 30L30 29L31 29L31 28L32 28L32 27L31 27L31 28L28 28L28 26ZM0 27L0 28L1 28L1 29L0 29L0 33L1 33L1 29L2 29L2 30L3 30L3 29L2 29L2 27ZM13 27L13 30L14 30L14 31L15 31L15 29L14 29L14 27ZM20 28L20 29L21 29L21 30L22 30L22 32L24 32L24 31L23 31L23 30L24 30L24 29L23 29L23 30L22 30L22 28ZM33 28L33 29L32 29L32 30L33 30L33 29L34 29L34 28ZM17 29L17 30L16 30L16 31L19 31L19 30L18 30L18 29ZM4 30L4 31L3 31L3 33L4 33L4 31L5 31L5 30ZM6 30L6 31L7 31L7 30ZM15 32L15 33L16 33L16 34L15 34L15 37L16 37L16 38L15 38L15 39L16 39L16 38L17 38L17 37L16 37L16 34L18 34L18 37L19 37L19 39L20 39L20 37L21 37L21 36L20 36L20 35L19 35L19 33L16 33L16 32ZM30 33L30 35L31 35L31 34L32 34L32 33ZM33 33L33 36L36 36L36 33ZM38 33L38 34L39 34L39 33ZM24 34L24 35L23 35L23 36L24 36L24 35L25 35L25 34ZM34 34L34 35L35 35L35 34ZM26 35L26 36L27 36L27 35ZM19 36L19 37L20 37L20 36ZM33 37L33 38L32 38L32 39L31 39L31 38L30 38L30 39L29 39L29 38L28 38L28 40L32 40L32 39L33 39L33 38L36 38L36 37ZM37 38L37 39L38 39L38 38ZM23 39L23 40L24 40L24 39ZM0 0L0 7L7 7L7 0ZM1 1L1 6L6 6L6 1ZM2 2L2 5L5 5L5 2ZM34 0L34 7L41 7L41 0ZM35 1L35 6L40 6L40 1ZM36 2L36 5L39 5L39 2ZM0 34L0 41L7 41L7 34ZM1 35L1 40L6 40L6 35ZM2 36L2 39L5 39L5 36Z" fill="#000000"/></g></g></svg>
