<?xml version="1.0" encoding="UTF-8"?>
<svg xmlns="http://www.w3.org/2000/svg" version="1.1" width="200" height="200" viewBox="0 0 200 200"><rect x="0" y="0" width="200" height="200" fill="#ffffff"/><g transform="scale(6.897)"><g transform="translate(0,0)"><path fill-rule="evenodd" d="M9 0L9 1L8 1L8 7L9 7L9 8L5 8L5 9L3 9L3 8L2 8L2 10L1 10L1 9L0 9L0 10L1 10L1 12L2 12L2 11L3 11L3 12L4 12L4 11L3 11L3 10L5 10L5 9L8 9L8 10L9 10L9 13L10 13L10 11L12 11L12 12L11 12L11 14L15 14L15 16L14 16L14 15L11 15L11 16L10 16L10 14L6 14L6 15L5 15L5 13L7 13L7 12L8 12L8 11L7 11L7 10L6 10L6 11L5 11L5 13L3 13L3 14L2 14L2 13L1 13L1 14L2 14L2 15L0 15L0 16L2 16L2 17L1 17L1 18L0 18L0 19L2 19L2 20L0 20L0 21L2 21L2 20L3 20L3 21L4 21L4 20L6 20L6 21L7 21L7 20L8 20L8 24L9 24L9 25L10 25L10 26L12 26L12 27L11 27L11 29L12 29L12 27L13 27L13 28L14 28L14 27L13 27L13 26L12 26L12 25L14 25L14 26L15 26L15 28L16 28L16 29L19 29L19 28L17 28L17 25L18 25L18 26L20 26L20 27L21 27L21 29L22 29L22 28L24 28L24 29L25 29L25 28L24 28L24 26L23 26L23 27L22 27L22 26L21 26L21 25L25 25L25 23L26 23L26 21L27 21L27 22L28 22L28 23L27 23L27 24L26 24L26 26L25 26L25 27L26 27L26 26L27 26L27 27L28 27L28 28L26 28L26 29L29 29L29 26L27 26L27 24L28 24L28 25L29 25L29 24L28 24L28 23L29 23L29 21L27 21L27 19L26 19L26 18L28 18L28 19L29 19L29 18L28 18L28 17L29 17L29 14L28 14L28 13L29 13L29 12L27 12L27 11L29 11L29 9L28 9L28 8L23 8L23 10L22 10L22 11L21 11L21 9L22 9L22 8L20 8L20 7L21 7L21 0L19 0L19 1L20 1L20 2L19 2L19 3L20 3L20 5L19 5L19 4L18 4L18 5L17 5L17 3L18 3L18 2L17 2L17 1L18 1L18 0L16 0L16 1L15 1L15 0L14 0L14 1L15 1L15 2L16 2L16 3L14 3L14 2L13 2L13 3L14 3L14 4L13 4L13 5L12 5L12 7L13 7L13 6L14 6L14 8L15 8L15 9L13 9L13 10L14 10L14 11L12 11L12 10L11 10L11 9L12 9L12 8L11 8L11 9L10 9L10 7L11 7L11 6L10 6L10 7L9 7L9 5L11 5L11 3L12 3L12 1L10 1L10 0ZM10 2L10 3L11 3L11 2ZM14 4L14 5L15 5L15 4ZM16 5L16 6L15 6L15 7L16 7L16 6L17 6L17 7L18 7L18 10L17 10L17 8L16 8L16 9L15 9L15 11L14 11L14 12L12 12L12 13L15 13L15 12L17 12L17 13L16 13L16 14L17 14L17 16L16 16L16 17L15 17L15 19L13 19L13 20L12 20L12 17L10 17L10 16L9 16L9 17L5 17L5 15L4 15L4 14L3 14L3 15L2 15L2 16L3 16L3 15L4 15L4 17L5 17L5 18L7 18L7 19L6 19L6 20L7 20L7 19L8 19L8 18L9 18L9 17L10 17L10 19L9 19L9 22L10 22L10 19L11 19L11 21L12 21L12 22L13 22L13 21L14 21L14 22L15 22L15 23L16 23L16 22L15 22L15 19L17 19L17 20L16 20L16 21L17 21L17 20L18 20L18 21L19 21L19 22L17 22L17 24L18 24L18 25L19 25L19 24L20 24L20 23L19 23L19 22L20 22L20 21L19 21L19 20L22 20L22 19L21 19L21 15L18 15L18 14L17 14L17 13L18 13L18 12L17 12L17 11L18 11L18 10L19 10L19 11L20 11L20 8L19 8L19 7L20 7L20 6L19 6L19 7L18 7L18 6L17 6L17 5ZM9 9L9 10L10 10L10 9ZM27 9L27 10L24 10L24 11L27 11L27 10L28 10L28 9ZM16 10L16 11L17 11L17 10ZM6 11L6 12L7 12L7 11ZM19 12L19 14L22 14L22 12L21 12L21 13L20 13L20 12ZM23 12L23 14L25 14L25 15L22 15L22 16L25 16L25 17L22 17L22 18L25 18L25 17L27 17L27 16L28 16L28 15L27 15L27 13L26 13L26 14L25 14L25 13L24 13L24 12ZM6 15L6 16L7 16L7 15ZM18 16L18 17L17 17L17 19L18 19L18 18L19 18L19 19L20 19L20 18L19 18L19 17L20 17L20 16ZM2 17L2 18L3 18L3 20L4 20L4 18L3 18L3 17ZM13 17L13 18L14 18L14 17ZM23 19L23 20L24 20L24 19ZM21 21L21 24L24 24L24 21ZM22 22L22 23L23 23L23 22ZM9 23L9 24L11 24L11 25L12 25L12 23ZM13 23L13 24L14 24L14 25L15 25L15 26L16 26L16 24L14 24L14 23ZM18 23L18 24L19 24L19 23ZM8 26L8 27L9 27L9 26ZM0 0L0 7L7 7L7 0ZM1 1L1 6L6 6L6 1ZM2 2L2 5L5 5L5 2ZM22 0L22 7L29 7L29 0ZM23 1L23 6L28 6L28 1ZM24 2L24 5L27 5L27 2ZM0 22L0 29L7 29L7 22ZM1 23L1 28L6 28L6 23ZM2 24L2 27L5 27L5 24Z" fill="#000000"/></g></g></svg>
