<?xml version="1.0" encoding="UTF-8"?>
<svg xmlns="http://www.w3.org/2000/svg" version="1.1" width="200" height="200" viewBox="0 0 200 200"><rect x="0" y="0" width="200" height="200" fill="#ffffff"/><g transform="scale(4.878)"><g transform="translate(0,0)"><path fill-rule="evenodd" d="M8 0L8 3L10 3L10 2L11 2L11 1L15 1L15 2L16 2L16 4L17 4L17 3L18 3L18 5L15 5L15 4L14 4L14 3L13 3L13 2L12 2L12 3L11 3L11 5L10 5L10 4L9 4L9 5L8 5L8 9L7 9L7 8L6 8L6 9L7 9L7 10L6 10L6 11L5 11L5 12L4 12L4 11L2 11L2 10L1 10L1 9L0 9L0 13L1 13L1 15L3 15L3 14L4 14L4 13L5 13L5 14L6 14L6 15L7 15L7 16L6 16L6 17L5 17L5 16L4 16L4 17L3 17L3 16L2 16L2 18L1 18L1 16L0 16L0 19L1 19L1 20L0 20L0 22L1 22L1 21L3 21L3 22L2 22L2 23L1 23L1 25L0 25L0 26L1 26L1 27L3 27L3 26L4 26L4 27L9 27L9 25L7 25L7 24L6 24L6 23L8 23L8 21L11 21L11 20L12 20L12 23L11 23L11 22L10 22L10 23L9 23L9 24L10 24L10 25L11 25L11 27L10 27L10 28L9 28L9 30L8 30L8 31L7 31L7 30L6 30L6 29L8 29L8 28L6 28L6 29L5 29L5 28L4 28L4 30L5 30L5 31L7 31L7 32L4 32L4 33L7 33L7 32L8 32L8 31L9 31L9 30L10 30L10 29L11 29L11 31L10 31L10 32L9 32L9 33L8 33L8 34L9 34L9 36L8 36L8 39L9 39L9 40L10 40L10 39L9 39L9 37L10 37L10 38L12 38L12 39L11 39L11 40L12 40L12 41L14 41L14 40L15 40L15 39L14 39L14 38L12 38L12 37L13 37L13 36L14 36L14 33L15 33L15 34L16 34L16 35L17 35L17 34L18 34L18 37L16 37L16 39L17 39L17 40L18 40L18 41L19 41L19 39L18 39L18 37L19 37L19 38L20 38L20 37L21 37L21 38L23 38L23 39L24 39L24 40L23 40L23 41L25 41L25 40L26 40L26 41L27 41L27 40L28 40L28 39L30 39L30 40L29 40L29 41L30 41L30 40L33 40L33 41L34 41L34 40L33 40L33 39L35 39L35 40L36 40L36 39L37 39L37 40L40 40L40 38L41 38L41 37L40 37L40 36L41 36L41 35L40 35L40 34L41 34L41 33L40 33L40 32L41 32L41 31L40 31L40 30L41 30L41 29L39 29L39 30L38 30L38 29L36 29L36 28L38 28L38 26L39 26L39 27L40 27L40 28L41 28L41 27L40 27L40 26L41 26L41 23L39 23L39 24L40 24L40 26L39 26L39 25L36 25L36 24L37 24L37 23L38 23L38 21L39 21L39 20L36 20L36 19L35 19L35 17L36 17L36 18L37 18L37 19L39 19L39 18L41 18L41 16L40 16L40 17L39 17L39 16L38 16L38 14L37 14L37 13L36 13L36 14L35 14L35 17L34 17L34 16L32 16L32 17L31 17L31 16L29 16L29 15L31 15L31 13L33 13L33 14L32 14L32 15L34 15L34 13L35 13L35 9L36 9L36 11L37 11L37 12L38 12L38 11L39 11L39 12L40 12L40 10L41 10L41 8L38 8L38 9L40 9L40 10L37 10L37 9L36 9L36 8L33 8L33 9L32 9L32 8L31 8L31 5L32 5L32 4L33 4L33 0L29 0L29 1L27 1L27 0L26 0L26 1L27 1L27 2L26 2L26 3L31 3L31 2L30 2L30 1L32 1L32 4L30 4L30 5L29 5L29 4L28 4L28 5L27 5L27 4L25 4L25 3L24 3L24 5L26 5L26 9L25 9L25 8L24 8L24 7L25 7L25 6L24 6L24 7L23 7L23 6L22 6L22 8L24 8L24 9L21 9L21 10L19 10L19 9L18 9L18 7L19 7L19 8L20 8L20 7L21 7L21 5L23 5L23 2L22 2L22 1L24 1L24 0L21 0L21 2L22 2L22 3L21 3L21 5L19 5L19 3L18 3L18 2L19 2L19 0L16 0L16 1L15 1L15 0L10 0L10 1L9 1L9 0ZM16 1L16 2L18 2L18 1ZM13 4L13 5L14 5L14 4ZM9 5L9 8L10 8L10 9L9 9L9 10L8 10L8 11L6 11L6 12L8 12L8 11L10 11L10 12L9 12L9 13L6 13L6 14L9 14L9 13L10 13L10 15L8 15L8 16L7 16L7 17L6 17L6 18L7 18L7 19L5 19L5 20L9 20L9 19L10 19L10 20L11 20L11 19L12 19L12 20L13 20L13 19L14 19L14 17L15 17L15 16L16 16L16 15L17 15L17 14L16 14L16 13L15 13L15 14L16 14L16 15L15 15L15 16L14 16L14 17L13 17L13 16L12 16L12 15L13 15L13 14L14 14L14 11L12 11L12 12L11 12L11 10L10 10L10 9L11 9L11 8L10 8L10 5ZM11 5L11 7L12 7L12 8L13 8L13 7L14 7L14 9L13 9L13 10L15 10L15 12L16 12L16 11L17 11L17 13L18 13L18 11L19 11L19 13L20 13L20 11L19 11L19 10L18 10L18 9L17 9L17 10L16 10L16 8L17 8L17 7L18 7L18 6L19 6L19 7L20 7L20 6L19 6L19 5L18 5L18 6L17 6L17 7L16 7L16 6L15 6L15 7L14 7L14 6L13 6L13 7L12 7L12 5ZM27 6L27 8L28 8L28 9L26 9L26 10L21 10L21 11L22 11L22 12L23 12L23 14L24 14L24 15L23 15L23 17L22 17L22 18L21 18L21 20L22 20L22 18L24 18L24 15L25 15L25 14L26 14L26 16L25 16L25 20L24 20L24 19L23 19L23 20L24 20L24 21L23 21L23 22L21 22L21 23L22 23L22 25L20 25L20 24L19 24L19 25L20 25L20 27L19 27L19 26L18 26L18 25L16 25L16 24L15 24L15 22L14 22L14 24L13 24L13 25L12 25L12 24L11 24L11 25L12 25L12 27L11 27L11 28L12 28L12 27L13 27L13 32L14 32L14 30L16 30L16 29L18 29L18 31L16 31L16 34L17 34L17 32L18 32L18 31L19 31L19 32L20 32L20 31L21 31L21 32L22 32L22 31L23 31L23 30L24 30L24 32L23 32L23 34L22 34L22 35L21 35L21 33L20 33L20 34L19 34L19 33L18 33L18 34L19 34L19 36L23 36L23 38L24 38L24 36L23 36L23 34L28 34L28 36L27 36L27 35L25 35L25 39L26 39L26 40L27 40L27 39L26 39L26 37L27 37L27 38L30 38L30 39L32 39L32 38L36 38L36 37L32 37L32 35L31 35L31 33L30 33L30 35L31 35L31 36L29 36L29 34L28 34L28 33L29 33L29 32L30 32L30 31L31 31L31 30L32 30L32 31L33 31L33 32L40 32L40 31L38 31L38 30L37 30L37 31L34 31L34 30L36 30L36 29L35 29L35 26L36 26L36 25L35 25L35 24L36 24L36 23L34 23L34 25L32 25L32 24L33 24L33 23L32 23L32 22L34 22L34 21L35 21L35 22L36 22L36 21L35 21L35 19L34 19L34 18L33 18L33 17L32 17L32 18L31 18L31 17L29 17L29 16L28 16L28 15L29 15L29 14L30 14L30 13L29 13L29 12L30 12L30 11L31 11L31 12L33 12L33 13L34 13L34 12L33 12L33 11L34 11L34 9L33 9L33 10L30 10L30 9L31 9L31 8L30 8L30 6L29 6L29 8L28 8L28 6ZM32 6L32 7L33 7L33 6ZM2 8L2 9L3 9L3 10L4 10L4 9L5 9L5 8ZM29 8L29 9L28 9L28 10L27 10L27 11L26 11L26 12L27 12L27 13L26 13L26 14L29 14L29 13L28 13L28 12L29 12L29 9L30 9L30 8ZM23 11L23 12L24 12L24 11ZM1 12L1 13L3 13L3 12ZM12 13L12 14L11 14L11 15L10 15L10 16L8 16L8 18L9 18L9 17L10 17L10 16L11 16L11 15L12 15L12 14L13 14L13 13ZM21 13L21 14L22 14L22 13ZM24 13L24 14L25 14L25 13ZM40 13L40 14L39 14L39 15L40 15L40 14L41 14L41 13ZM19 14L19 15L20 15L20 17L21 17L21 16L22 16L22 15L20 15L20 14ZM36 14L36 15L37 15L37 14ZM17 16L17 17L16 17L16 18L15 18L15 20L16 20L16 21L17 21L17 22L16 22L16 23L18 23L18 22L20 22L20 20L19 20L19 19L17 19L17 17L19 17L19 16ZM26 16L26 17L27 17L27 16ZM36 16L36 17L37 17L37 18L39 18L39 17L38 17L38 16ZM11 17L11 18L10 18L10 19L11 19L11 18L13 18L13 17ZM2 18L2 20L4 20L4 18ZM26 18L26 20L25 20L25 23L24 23L24 22L23 22L23 23L24 23L24 25L22 25L22 27L23 27L23 29L24 29L24 30L25 30L25 32L24 32L24 33L25 33L25 32L26 32L26 33L28 33L28 31L30 31L30 30L28 30L28 29L31 29L31 28L33 28L33 29L32 29L32 30L33 30L33 29L34 29L34 28L33 28L33 27L34 27L34 26L35 26L35 25L34 25L34 26L33 26L33 27L31 27L31 28L29 28L29 26L30 26L30 25L31 25L31 26L32 26L32 25L31 25L31 23L30 23L30 22L27 22L27 23L26 23L26 21L29 21L29 18ZM30 18L30 19L31 19L31 20L30 20L30 21L31 21L31 22L32 22L32 21L34 21L34 20L33 20L33 18L32 18L32 19L31 19L31 18ZM18 20L18 21L19 21L19 20ZM31 20L31 21L32 21L32 20ZM40 20L40 21L41 21L41 20ZM4 21L4 22L3 22L3 24L4 24L4 23L6 23L6 22L7 22L7 21ZM25 23L25 25L24 25L24 26L23 26L23 27L24 27L24 26L25 26L25 28L27 28L27 26L29 26L29 25L27 25L27 26L25 26L25 25L26 25L26 23ZM27 23L27 24L28 24L28 23ZM29 23L29 24L30 24L30 23ZM5 24L5 26L7 26L7 25L6 25L6 24ZM14 24L14 26L13 26L13 27L14 27L14 28L15 28L15 27L16 27L16 28L18 28L18 26L17 26L17 27L16 27L16 26L15 26L15 24ZM1 25L1 26L3 26L3 25ZM14 26L14 27L15 27L15 26ZM20 27L20 28L19 28L19 29L21 29L21 31L22 31L22 29L21 29L21 27ZM1 28L1 29L0 29L0 33L1 33L1 29L2 29L2 30L3 30L3 28ZM25 29L25 30L26 30L26 31L27 31L27 30L26 30L26 29ZM19 30L19 31L20 31L20 30ZM2 31L2 32L3 32L3 31ZM11 31L11 33L9 33L9 34L10 34L10 36L13 36L13 35L12 35L12 31ZM33 33L33 36L36 36L36 33ZM37 33L37 36L39 36L39 35L38 35L38 34L39 34L39 33ZM34 34L34 35L35 35L35 34ZM28 36L28 37L29 37L29 36ZM30 37L30 38L31 38L31 37ZM37 38L37 39L38 39L38 38ZM13 39L13 40L14 40L14 39ZM20 39L20 41L22 41L22 39ZM0 0L0 7L7 7L7 0ZM1 1L1 6L6 6L6 1ZM2 2L2 5L5 5L5 2ZM34 0L34 7L41 7L41 0ZM35 1L35 6L40 6L40 1ZM36 2L36 5L39 5L39 2ZM0 34L0 41L7 41L7 34ZM1 35L1 40L6 40L6 35ZM2 36L2 39L5 39L5 36Z" fill="#000000"/></g></g></svg>
