<?xml version="1.0" encoding="UTF-8"?>
<svg xmlns="http://www.w3.org/2000/svg" version="1.1" width="200" height="200" viewBox="0 0 200 200"><rect x="0" y="0" width="200" height="200" fill="#ffffff"/><g transform="scale(6.897)"><g transform="translate(0,0)"><path fill-rule="evenodd" d="M12 0L12 1L11 1L11 2L10 2L10 1L9 1L9 4L8 4L8 5L9 5L9 6L8 6L8 8L6 8L6 9L4 9L4 8L2 8L2 9L4 9L4 10L6 10L6 11L8 11L8 10L9 10L9 12L8 12L8 14L5 14L5 15L4 15L4 16L3 16L3 14L4 14L4 12L5 12L5 11L3 11L3 10L1 10L1 11L0 11L0 14L2 14L2 16L1 16L1 18L0 18L0 19L1 19L1 18L2 18L2 19L4 19L4 20L1 20L1 21L4 21L4 20L5 20L5 21L8 21L8 23L11 23L11 26L10 26L10 27L9 27L9 25L8 25L8 27L9 27L9 29L11 29L11 28L12 28L12 29L14 29L14 28L13 28L13 27L14 27L14 26L15 26L15 28L16 28L16 29L20 29L20 28L18 28L18 23L17 23L17 21L18 21L18 22L19 22L19 21L20 21L20 23L19 23L19 24L20 24L20 25L19 25L19 26L20 26L20 25L23 25L23 26L24 26L24 27L22 27L22 29L23 29L23 28L25 28L25 29L26 29L26 28L25 28L25 26L26 26L26 27L27 27L27 28L29 28L29 26L28 26L28 27L27 27L27 25L28 25L28 24L29 24L29 21L28 21L28 20L27 20L27 21L28 21L28 24L27 24L27 25L26 25L26 23L25 23L25 22L26 22L26 20L24 20L24 19L25 19L25 18L24 18L24 19L22 19L22 18L23 18L23 17L24 17L24 16L25 16L25 17L26 17L26 19L27 19L27 18L29 18L29 17L26 17L26 16L25 16L25 15L24 15L24 16L23 16L23 17L21 17L21 18L20 18L20 17L19 17L19 15L20 15L20 14L21 14L21 13L20 13L20 12L22 12L22 9L23 9L23 13L22 13L22 15L23 15L23 14L24 14L24 13L25 13L25 14L26 14L26 15L27 15L27 16L28 16L28 15L29 15L29 14L28 14L28 12L29 12L29 11L28 11L28 12L27 12L27 11L26 11L26 10L24 10L24 9L25 9L25 8L24 8L24 9L23 9L23 8L21 8L21 9L20 9L20 7L21 7L21 3L20 3L20 2L18 2L18 1L17 1L17 0L15 0L15 1L14 1L14 2L13 2L13 0ZM15 1L15 2L14 2L14 4L13 4L13 3L11 3L11 4L13 4L13 7L14 7L14 8L16 8L16 9L11 9L11 7L12 7L12 6L11 6L11 5L10 5L10 6L9 6L9 8L10 8L10 9L9 9L9 10L11 10L11 11L12 11L12 10L13 10L13 13L12 13L12 12L9 12L9 14L8 14L8 15L6 15L6 16L5 16L5 17L4 17L4 18L7 18L7 17L6 17L6 16L8 16L8 17L9 17L9 20L8 20L8 21L9 21L9 20L11 20L11 21L12 21L12 20L11 20L11 18L10 18L10 17L11 17L11 16L10 16L10 14L15 14L15 15L12 15L12 16L13 16L13 17L12 17L12 19L15 19L15 21L14 21L14 20L13 20L13 21L14 21L14 22L11 22L11 23L12 23L12 24L13 24L13 25L12 25L12 26L11 26L11 27L10 27L10 28L11 28L11 27L13 27L13 25L16 25L16 28L17 28L17 25L16 25L16 24L17 24L17 23L16 23L16 22L15 22L15 21L17 21L17 20L18 20L18 21L19 21L19 20L20 20L20 18L18 18L18 17L17 17L17 18L16 18L16 13L17 13L17 16L18 16L18 15L19 15L19 14L20 14L20 13L17 13L17 11L15 11L15 10L16 10L16 9L17 9L17 10L18 10L18 8L19 8L19 7L20 7L20 5L19 5L19 7L18 7L18 6L17 6L17 5L18 5L18 2L17 2L17 1ZM16 3L16 4L15 4L15 6L14 6L14 7L15 7L15 6L16 6L16 7L17 7L17 6L16 6L16 5L17 5L17 3ZM19 3L19 4L20 4L20 3ZM10 6L10 7L11 7L11 6ZM6 9L6 10L7 10L7 9ZM19 9L19 10L20 10L20 9ZM27 9L27 10L29 10L29 9ZM1 11L1 13L2 13L2 14L3 14L3 13L2 13L2 12L3 12L3 11ZM14 11L14 13L15 13L15 11ZM19 11L19 12L20 12L20 11ZM25 11L25 13L27 13L27 12L26 12L26 11ZM6 12L6 13L7 13L7 12ZM27 14L27 15L28 15L28 14ZM8 15L8 16L9 16L9 15ZM2 16L2 18L3 18L3 16ZM14 16L14 18L15 18L15 16ZM17 18L17 19L16 19L16 20L17 20L17 19L18 19L18 18ZM6 19L6 20L7 20L7 19ZM21 19L21 20L22 20L22 19ZM21 21L21 24L24 24L24 21ZM14 22L14 23L13 23L13 24L14 24L14 23L15 23L15 24L16 24L16 23L15 23L15 22ZM22 22L22 23L23 23L23 22ZM24 25L24 26L25 26L25 25ZM0 0L0 7L7 7L7 0ZM1 1L1 6L6 6L6 1ZM2 2L2 5L5 5L5 2ZM22 0L22 7L29 7L29 0ZM23 1L23 6L28 6L28 1ZM24 2L24 5L27 5L27 2ZM0 22L0 29L7 29L7 22ZM1 23L1 28L6 28L6 23ZM2 24L2 27L5 27L5 24Z" fill="#000000"/></g></g></svg>
