<?xml version="1.0" encoding="UTF-8"?>
<svg xmlns="http://www.w3.org/2000/svg" version="1.1" width="200" height="200" viewBox="0 0 200 200"><rect x="0" y="0" width="200" height="200" fill="#ffffff"/><g transform="scale(4.878)"><g transform="translate(0,0)"><path fill-rule="evenodd" d="M8 0L8 3L9 3L9 0ZM11 0L11 3L12 3L12 4L9 4L9 5L8 5L8 9L7 9L7 8L6 8L6 9L7 9L7 10L6 10L6 11L8 11L8 13L7 13L7 12L4 12L4 11L3 11L3 10L2 10L2 9L5 9L5 8L2 8L2 9L0 9L0 10L2 10L2 11L0 11L0 17L1 17L1 18L2 18L2 19L3 19L3 18L2 18L2 17L1 17L1 15L2 15L2 16L4 16L4 18L5 18L5 17L8 17L8 18L11 18L11 19L10 19L10 20L9 20L9 19L8 19L8 20L6 20L6 21L5 21L5 20L4 20L4 21L3 21L3 20L1 20L1 19L0 19L0 20L1 20L1 21L0 21L0 22L1 22L1 23L3 23L3 24L2 24L2 25L3 25L3 24L4 24L4 25L5 25L5 26L2 26L2 27L1 27L1 25L0 25L0 33L1 33L1 30L2 30L2 29L3 29L3 31L2 31L2 32L3 32L3 31L4 31L4 33L5 33L5 31L8 31L8 30L6 30L6 29L9 29L9 30L10 30L10 29L12 29L12 30L11 30L11 31L9 31L9 32L11 32L11 33L12 33L12 34L14 34L14 35L12 35L12 36L14 36L14 38L17 38L17 37L16 37L16 36L17 36L17 35L18 35L18 34L20 34L20 35L23 35L23 36L20 36L20 37L18 37L18 38L19 38L19 39L18 39L18 40L19 40L19 41L21 41L21 40L22 40L22 41L26 41L26 38L25 38L25 39L24 39L24 40L23 40L23 39L22 39L22 38L20 38L20 37L25 37L25 36L26 36L26 35L25 35L25 34L24 34L24 32L25 32L25 33L26 33L26 32L27 32L27 33L29 33L29 34L27 34L27 37L29 37L29 38L30 38L30 39L31 39L31 40L33 40L33 41L34 41L34 40L33 40L33 39L35 39L35 40L36 40L36 39L37 39L37 40L40 40L40 38L41 38L41 36L40 36L40 34L41 34L41 33L40 33L40 32L33 32L33 31L32 31L32 30L33 30L33 29L34 29L34 28L33 28L33 27L34 27L34 26L35 26L35 29L36 29L36 31L37 31L37 29L36 29L36 28L38 28L38 26L39 26L39 28L41 28L41 27L40 27L40 26L41 26L41 23L39 23L39 22L38 22L38 21L39 21L39 20L36 20L36 19L35 19L35 17L36 17L36 18L37 18L37 19L38 19L38 18L39 18L39 19L40 19L40 18L41 18L41 16L40 16L40 18L39 18L39 16L37 16L37 13L36 13L36 16L35 16L35 17L34 17L34 16L32 16L32 17L31 17L31 16L29 16L29 15L31 15L31 12L29 12L29 13L28 13L28 11L29 11L29 10L30 10L30 11L31 11L31 10L32 10L32 11L33 11L33 12L32 12L32 13L33 13L33 14L32 14L32 15L34 15L34 13L35 13L35 12L38 12L38 11L39 11L39 13L38 13L38 14L39 14L39 15L40 15L40 14L41 14L41 13L40 13L40 12L41 12L41 11L40 11L40 10L41 10L41 8L38 8L38 9L40 9L40 10L37 10L37 9L36 9L36 8L33 8L33 9L32 9L32 8L31 8L31 6L30 6L30 5L32 5L32 4L33 4L33 3L32 3L32 4L30 4L30 5L27 5L27 4L25 4L25 3L24 3L24 2L25 2L25 0L24 0L24 2L23 2L23 4L25 4L25 6L24 6L24 5L23 5L23 6L22 6L22 8L23 8L23 9L21 9L21 4L18 4L18 3L17 3L17 2L16 2L16 1L14 1L14 2L12 2L12 0ZM18 0L18 2L20 2L20 0ZM21 0L21 1L22 1L22 0ZM26 0L26 1L27 1L27 2L26 2L26 3L28 3L28 4L29 4L29 3L31 3L31 2L30 2L30 1L33 1L33 0L29 0L29 1L27 1L27 0ZM13 3L13 5L9 5L9 8L11 8L11 7L12 7L12 8L13 8L13 9L12 9L12 10L11 10L11 9L8 9L8 11L10 11L10 10L11 10L11 11L12 11L12 10L13 10L13 9L14 9L14 8L13 8L13 7L14 7L14 6L15 6L15 7L16 7L16 6L17 6L17 7L18 7L18 8L17 8L17 9L18 9L18 10L17 10L17 11L18 11L18 10L19 10L19 11L21 11L21 10L19 10L19 9L20 9L20 8L19 8L19 7L20 7L20 5L18 5L18 4L17 4L17 5L16 5L16 3ZM14 4L14 5L13 5L13 6L12 6L12 7L13 7L13 6L14 6L14 5L15 5L15 6L16 6L16 5L15 5L15 4ZM10 6L10 7L11 7L11 6ZM18 6L18 7L19 7L19 6ZM23 6L23 8L24 8L24 9L23 9L23 11L22 11L22 12L19 12L19 13L17 13L17 12L16 12L16 10L14 10L14 11L13 11L13 12L12 12L12 13L13 13L13 15L12 15L12 17L11 17L11 18L12 18L12 20L10 20L10 21L9 21L9 20L8 20L8 21L9 21L9 22L10 22L10 24L9 24L9 23L6 23L6 22L7 22L7 21L6 21L6 22L5 22L5 23L6 23L6 24L5 24L5 25L6 25L6 26L5 26L5 27L2 27L2 28L3 28L3 29L4 29L4 31L5 31L5 29L6 29L6 28L9 28L9 27L12 27L12 26L10 26L10 25L11 25L11 24L12 24L12 25L15 25L15 27L14 27L14 26L13 26L13 27L14 27L14 28L16 28L16 27L17 27L17 26L16 26L16 25L17 25L17 24L18 24L18 22L17 22L17 19L19 19L19 18L17 18L17 17L19 17L19 16L20 16L20 18L21 18L21 19L20 19L20 20L18 20L18 21L19 21L19 22L20 22L20 23L19 23L19 24L20 24L20 25L19 25L19 27L18 27L18 28L20 28L20 27L21 27L21 28L22 28L22 27L23 27L23 28L24 28L24 29L23 29L23 30L24 30L24 31L25 31L25 32L26 32L26 30L27 30L27 26L29 26L29 28L31 28L31 29L28 29L28 30L29 30L29 31L28 31L28 32L30 32L30 31L31 31L31 30L32 30L32 29L33 29L33 28L31 28L31 27L33 27L33 26L34 26L34 25L35 25L35 26L36 26L36 27L37 27L37 26L36 26L36 25L39 25L39 26L40 26L40 24L39 24L39 23L37 23L37 24L36 24L36 23L34 23L34 25L33 25L33 22L34 22L34 21L35 21L35 22L36 22L36 21L35 21L35 19L34 19L34 18L33 18L33 17L32 17L32 18L31 18L31 17L29 17L29 16L28 16L28 15L29 15L29 14L30 14L30 13L29 13L29 14L27 14L27 17L26 17L26 15L22 15L22 14L21 14L21 16L20 16L20 15L18 15L18 16L17 16L17 15L16 15L16 14L15 14L15 13L14 13L14 11L15 11L15 12L16 12L16 13L17 13L17 14L20 14L20 13L22 13L22 12L23 12L23 11L25 11L25 12L24 12L24 14L25 14L25 12L27 12L27 10L29 10L29 9L27 9L27 8L26 8L26 9L25 9L25 8L24 8L24 6ZM25 6L25 7L26 7L26 6ZM27 6L27 7L28 7L28 6ZM29 6L29 8L30 8L30 6ZM32 6L32 7L33 7L33 6ZM15 8L15 9L16 9L16 8ZM18 8L18 9L19 9L19 8ZM24 9L24 10L25 10L25 11L26 11L26 10L27 10L27 9L26 9L26 10L25 10L25 9ZM30 9L30 10L31 10L31 9ZM33 9L33 11L34 11L34 9ZM35 9L35 10L36 10L36 11L37 11L37 10L36 10L36 9ZM2 11L2 12L1 12L1 14L2 14L2 12L3 12L3 11ZM9 12L9 13L11 13L11 12ZM33 12L33 13L34 13L34 12ZM3 13L3 15L4 15L4 16L5 16L5 15L6 15L6 16L7 16L7 15L6 15L6 14L7 14L7 13ZM39 13L39 14L40 14L40 13ZM8 14L8 16L9 16L9 17L10 17L10 16L11 16L11 15L10 15L10 16L9 16L9 14ZM14 15L14 17L17 17L17 16L16 16L16 15ZM21 16L21 18L22 18L22 19L23 19L23 20L22 20L22 21L21 21L21 20L20 20L20 22L22 22L22 24L21 24L21 26L22 26L22 25L25 25L25 26L24 26L24 28L25 28L25 30L26 30L26 27L25 27L25 26L27 26L27 25L29 25L29 26L30 26L30 25L31 25L31 26L33 26L33 25L31 25L31 24L32 24L32 23L31 23L31 22L32 22L32 21L34 21L34 20L32 20L32 21L31 21L31 20L30 20L30 21L31 21L31 22L29 22L29 21L28 21L28 19L29 19L29 18L26 18L26 17L25 17L25 16L23 16L23 18L22 18L22 16ZM36 16L36 17L37 17L37 18L38 18L38 17L37 17L37 16ZM12 17L12 18L13 18L13 17ZM24 17L24 19L25 19L25 20L23 20L23 21L22 21L22 22L23 22L23 24L24 24L24 23L25 23L25 25L27 25L27 24L28 24L28 23L27 23L27 22L28 22L28 21L27 21L27 22L26 22L26 19L25 19L25 17ZM6 18L6 19L7 19L7 18ZM15 18L15 19L14 19L14 20L13 20L13 21L15 21L15 22L12 22L12 21L11 21L11 23L13 23L13 24L14 24L14 23L15 23L15 24L16 24L16 23L17 23L17 22L16 22L16 21L15 21L15 19L16 19L16 18ZM30 18L30 19L31 19L31 18ZM32 18L32 19L33 19L33 18ZM40 20L40 21L41 21L41 20ZM23 21L23 22L25 22L25 21ZM26 23L26 24L27 24L27 23ZM29 23L29 24L31 24L31 23ZM6 24L6 25L7 25L7 26L6 26L6 27L7 27L7 26L8 26L8 25L7 25L7 24ZM35 24L35 25L36 25L36 24ZM4 28L4 29L5 29L5 28ZM12 28L12 29L13 29L13 30L14 30L14 31L15 31L15 30L16 30L16 31L18 31L18 32L16 32L16 33L15 33L15 35L14 35L14 36L15 36L15 35L17 35L17 34L16 34L16 33L20 33L20 34L21 34L21 33L22 33L22 34L23 34L23 33L22 33L22 32L21 32L21 31L22 31L22 30L21 30L21 31L20 31L20 32L19 32L19 30L20 30L20 29L19 29L19 30L18 30L18 29L15 29L15 30L14 30L14 29L13 29L13 28ZM39 29L39 30L38 30L38 31L40 31L40 30L41 30L41 29ZM34 30L34 31L35 31L35 30ZM11 31L11 32L12 32L12 31ZM6 32L6 33L7 33L7 32ZM13 32L13 33L14 33L14 32ZM8 33L8 34L9 34L9 36L8 36L8 39L10 39L10 41L11 41L11 40L12 40L12 41L13 41L13 40L14 40L14 39L13 39L13 40L12 40L12 38L11 38L11 37L9 37L9 36L10 36L10 35L11 35L11 34L9 34L9 33ZM30 33L30 35L31 35L31 36L29 36L29 35L28 35L28 36L29 36L29 37L31 37L31 38L32 38L32 39L33 39L33 38L36 38L36 37L33 37L33 38L32 38L32 35L31 35L31 33ZM33 33L33 36L36 36L36 33ZM37 33L37 36L39 36L39 35L38 35L38 34L39 34L39 33ZM34 34L34 35L35 35L35 34ZM24 35L24 36L25 36L25 35ZM27 38L27 40L28 40L28 38ZM37 38L37 39L38 39L38 38ZM15 39L15 41L16 41L16 39ZM19 39L19 40L20 40L20 39ZM29 40L29 41L30 41L30 40ZM0 0L0 7L7 7L7 0ZM1 1L1 6L6 6L6 1ZM2 2L2 5L5 5L5 2ZM34 0L34 7L41 7L41 0ZM35 1L35 6L40 6L40 1ZM36 2L36 5L39 5L39 2ZM0 34L0 41L7 41L7 34ZM1 35L1 40L6 40L6 35ZM2 36L2 39L5 39L5 36Z" fill="#000000"/></g></g></svg>
