<?xml version="1.0" encoding="UTF-8"?>
<svg xmlns="http://www.w3.org/2000/svg" version="1.1" width="200" height="200" viewBox="0 0 200 200"><rect x="0" y="0" width="200" height="200" fill="#ffffff"/><g transform="scale(4.878)"><g transform="translate(0,0)"><path fill-rule="evenodd" d="M8 0L8 1L9 1L9 2L8 2L8 3L9 3L9 4L8 4L8 5L9 5L9 4L11 4L11 3L9 3L9 2L10 2L10 1L11 1L11 2L12 2L12 3L13 3L13 4L14 4L14 7L13 7L13 5L12 5L12 7L11 7L11 6L10 6L10 7L11 7L11 8L12 8L12 7L13 7L13 8L14 8L14 7L15 7L15 5L16 5L16 8L15 8L15 10L13 10L13 11L14 11L14 12L15 12L15 10L16 10L16 11L17 11L17 10L16 10L16 8L19 8L19 6L18 6L18 5L20 5L20 9L19 9L19 10L18 10L18 12L16 12L16 13L15 13L15 14L14 14L14 13L13 13L13 12L10 12L10 11L12 11L12 10L10 10L10 8L9 8L9 6L8 6L8 8L9 8L9 9L7 9L7 8L5 8L5 10L6 10L6 11L7 11L7 10L8 10L8 12L6 12L6 13L5 13L5 12L4 12L4 9L3 9L3 10L2 10L2 9L1 9L1 10L2 10L2 11L0 11L0 15L1 15L1 16L0 16L0 17L1 17L1 18L2 18L2 16L3 16L3 18L5 18L5 16L6 16L6 17L7 17L7 16L8 16L8 18L9 18L9 20L8 20L8 19L7 19L7 18L6 18L6 19L7 19L7 20L6 20L6 21L5 21L5 20L4 20L4 21L2 21L2 19L0 19L0 21L1 21L1 22L0 22L0 23L1 23L1 22L3 22L3 23L4 23L4 25L3 25L3 24L2 24L2 25L3 25L3 26L4 26L4 29L3 29L3 28L2 28L2 29L0 29L0 33L1 33L1 31L2 31L2 33L4 33L4 32L3 32L3 31L2 31L2 29L3 29L3 30L4 30L4 31L5 31L5 32L6 32L6 33L7 33L7 32L6 32L6 31L8 31L8 30L10 30L10 29L9 29L9 28L10 28L10 25L9 25L9 26L8 26L8 28L6 28L6 27L7 27L7 26L6 26L6 25L8 25L8 24L6 24L6 25L5 25L5 22L6 22L6 23L8 23L8 22L6 22L6 21L7 21L7 20L8 20L8 21L9 21L9 20L10 20L10 21L11 21L11 23L9 23L9 24L11 24L11 23L12 23L12 24L13 24L13 27L16 27L16 26L18 26L18 27L19 27L19 26L18 26L18 25L15 25L15 26L14 26L14 24L17 24L17 23L18 23L18 24L19 24L19 23L18 23L18 22L17 22L17 21L16 21L16 19L17 19L17 20L18 20L18 21L20 21L20 20L21 20L21 25L20 25L20 27L21 27L21 28L22 28L22 27L23 27L23 28L24 28L24 27L26 27L26 26L27 26L27 27L28 27L28 28L26 28L26 29L25 29L25 30L24 30L24 29L21 29L21 31L20 31L20 32L23 32L23 31L24 31L24 33L25 33L25 31L27 31L27 32L26 32L26 34L27 34L27 36L26 36L26 37L24 37L24 36L23 36L23 37L21 37L21 36L22 36L22 35L23 35L23 33L21 33L21 34L20 34L20 35L19 35L19 34L18 34L18 33L19 33L19 30L20 30L20 29L19 29L19 30L18 30L18 29L17 29L17 28L15 28L15 30L14 30L14 28L11 28L11 31L10 31L10 32L9 32L9 33L8 33L8 34L9 34L9 33L10 33L10 32L11 32L11 34L10 34L10 36L9 36L9 35L8 35L8 36L9 36L9 37L10 37L10 38L9 38L9 39L13 39L13 40L14 40L14 41L19 41L19 40L20 40L20 41L23 41L23 40L22 40L22 39L26 39L26 37L27 37L27 40L26 40L26 41L31 41L31 40L32 40L32 38L33 38L33 41L34 41L34 40L36 40L36 39L38 39L38 40L39 40L39 39L40 39L40 40L41 40L41 39L40 39L40 38L41 38L41 35L40 35L40 34L39 34L39 32L38 32L38 29L36 29L36 28L39 28L39 29L40 29L40 30L39 30L39 31L40 31L40 32L41 32L41 29L40 29L40 26L41 26L41 25L36 25L36 23L35 23L35 24L34 24L34 23L33 23L33 22L34 22L34 19L33 19L33 18L32 18L32 17L34 17L34 18L35 18L35 20L36 20L36 21L35 21L35 22L36 22L36 21L37 21L37 20L38 20L38 22L37 22L37 23L38 23L38 22L41 22L41 20L40 20L40 19L41 19L41 15L37 15L37 13L40 13L40 14L41 14L41 11L40 11L40 9L41 9L41 8L40 8L40 9L39 9L39 8L38 8L38 10L37 10L37 8L36 8L36 9L35 9L35 8L34 8L34 9L35 9L35 11L36 11L36 12L34 12L34 10L33 10L33 5L32 5L32 4L31 4L31 3L30 3L30 4L31 4L31 5L32 5L32 9L31 9L31 8L29 8L29 6L30 6L30 7L31 7L31 6L30 6L30 5L29 5L29 6L28 6L28 7L27 7L27 5L25 5L25 6L24 6L24 5L23 5L23 4L25 4L25 3L26 3L26 2L27 2L27 4L28 4L28 3L29 3L29 1L30 1L30 2L31 2L31 1L30 1L30 0L28 0L28 2L27 2L27 1L25 1L25 0L23 0L23 1L21 1L21 0L20 0L20 1L19 1L19 2L22 2L22 3L21 3L21 5L20 5L20 4L19 4L19 3L18 3L18 4L14 4L14 3L16 3L16 2L17 2L17 1L18 1L18 0L17 0L17 1L16 1L16 0L12 0L12 1L11 1L11 0ZM32 0L32 2L33 2L33 0ZM12 1L12 2L15 2L15 1ZM24 1L24 2L23 2L23 3L22 3L22 4L23 4L23 3L25 3L25 1ZM21 5L21 7L22 7L22 5ZM17 6L17 7L18 7L18 6ZM23 6L23 7L24 7L24 8L25 8L25 7L26 7L26 6L25 6L25 7L24 7L24 6ZM22 8L22 9L20 9L20 10L19 10L19 11L20 11L20 10L22 10L22 11L23 11L23 12L21 12L21 13L19 13L19 12L18 12L18 13L17 13L17 14L16 14L16 15L17 15L17 16L18 16L18 15L19 15L19 14L20 14L20 16L25 16L25 17L23 17L23 18L22 18L22 17L21 17L21 18L20 18L20 19L21 19L21 20L22 20L22 21L23 21L23 20L24 20L24 22L22 22L22 24L23 24L23 23L24 23L24 22L25 22L25 20L27 20L27 17L26 17L26 16L25 16L25 15L27 15L27 16L28 16L28 18L29 18L29 19L31 19L31 18L29 18L29 16L30 16L30 17L31 17L31 16L30 16L30 14L29 14L29 13L30 13L30 12L31 12L31 11L32 11L32 12L33 12L33 11L32 11L32 10L31 10L31 9L30 9L30 10L29 10L29 8L28 8L28 11L27 11L27 12L28 12L28 13L26 13L26 10L27 10L27 9L25 9L25 13L23 13L23 12L24 12L24 10L23 10L23 8ZM6 9L6 10L7 10L7 9ZM9 10L9 11L10 11L10 10ZM30 10L30 11L31 11L31 10ZM2 11L2 12L1 12L1 13L2 13L2 12L3 12L3 11ZM38 11L38 12L39 12L39 11ZM8 12L8 13L6 13L6 14L7 14L7 15L6 15L6 16L7 16L7 15L8 15L8 16L9 16L9 18L10 18L10 19L12 19L12 21L13 21L13 22L12 22L12 23L13 23L13 22L14 22L14 23L16 23L16 22L14 22L14 21L15 21L15 19L16 19L16 18L18 18L18 17L16 17L16 18L15 18L15 19L14 19L14 17L13 17L13 16L12 16L12 17L13 17L13 19L12 19L12 18L10 18L10 17L11 17L11 15L9 15L9 13L10 13L10 14L11 14L11 13L10 13L10 12ZM36 12L36 13L34 13L34 15L35 15L35 14L36 14L36 13L37 13L37 12ZM4 13L4 14L2 14L2 15L3 15L3 16L5 16L5 15L4 15L4 14L5 14L5 13ZM12 13L12 15L13 15L13 13ZM25 13L25 14L21 14L21 15L25 15L25 14L26 14L26 13ZM31 13L31 14L32 14L32 16L33 16L33 14L32 14L32 13ZM27 14L27 15L28 15L28 16L29 16L29 14ZM34 16L34 17L35 17L35 18L36 18L36 20L37 20L37 18L36 18L36 17L38 17L38 20L39 20L39 21L40 21L40 20L39 20L39 17L40 17L40 16L39 16L39 17L38 17L38 16L36 16L36 17L35 17L35 16ZM18 19L18 20L19 20L19 19ZM22 19L22 20L23 20L23 19ZM32 19L32 20L28 20L28 22L30 22L30 23L27 23L27 21L26 21L26 24L24 24L24 25L23 25L23 26L24 26L24 25L26 25L26 24L27 24L27 25L28 25L28 27L29 27L29 28L28 28L28 29L27 29L27 31L28 31L28 29L29 29L29 32L30 32L30 29L31 29L31 30L32 30L32 31L31 31L31 33L29 33L29 34L28 34L28 39L29 39L29 40L30 40L30 38L32 38L32 37L30 37L30 38L29 38L29 36L31 36L31 35L30 35L30 34L32 34L32 32L33 32L33 31L34 31L34 32L36 32L36 31L37 31L37 30L36 30L36 29L34 29L34 28L35 28L35 27L36 27L36 26L35 26L35 27L34 27L34 26L33 26L33 24L32 24L32 22L33 22L33 19ZM13 20L13 21L14 21L14 20ZM4 21L4 22L5 22L5 21ZM30 21L30 22L32 22L32 21ZM39 23L39 24L41 24L41 23ZM30 24L30 25L29 25L29 26L30 26L30 25L31 25L31 26L32 26L32 24ZM11 25L11 27L12 27L12 25ZM38 26L38 27L39 27L39 26ZM0 27L0 28L1 28L1 27ZM31 27L31 28L32 28L32 29L33 29L33 27ZM29 28L29 29L30 29L30 28ZM6 29L6 30L5 30L5 31L6 31L6 30L7 30L7 29ZM12 29L12 31L11 31L11 32L13 32L13 35L15 35L15 33L17 33L17 32L18 32L18 30L16 30L16 32L13 32L13 29ZM22 30L22 31L23 31L23 30ZM27 32L27 33L28 33L28 32ZM37 32L37 34L38 34L38 32ZM33 33L33 36L36 36L36 33ZM11 34L11 36L12 36L12 34ZM16 34L16 35L17 35L17 36L18 36L18 37L17 37L17 40L19 40L19 39L21 39L21 38L19 38L19 37L20 37L20 36L21 36L21 35L22 35L22 34L21 34L21 35L20 35L20 36L19 36L19 35L18 35L18 34ZM34 34L34 35L35 35L35 34ZM38 35L38 37L37 37L37 38L38 38L38 39L39 39L39 38L40 38L40 37L39 37L39 35ZM13 36L13 37L12 37L12 38L13 38L13 37L14 37L14 40L16 40L16 39L15 39L15 36ZM23 37L23 38L24 38L24 37ZM34 37L34 38L36 38L36 37ZM9 40L9 41L11 41L11 40ZM0 0L0 7L7 7L7 0ZM1 1L1 6L6 6L6 1ZM2 2L2 5L5 5L5 2ZM34 0L34 7L41 7L41 0ZM35 1L35 6L40 6L40 1ZM36 2L36 5L39 5L39 2ZM0 34L0 41L7 41L7 34ZM1 35L1 40L6 40L6 35ZM2 36L2 39L5 39L5 36Z" fill="#000000"/></g></g></svg>
