<?xml version="1.0" encoding="UTF-8"?>
<svg xmlns="http://www.w3.org/2000/svg" version="1.1" width="200" height="200" viewBox="0 0 200 200"><rect x="0" y="0" width="200" height="200" fill="#ffffff"/><g transform="scale(4.878)"><g transform="translate(0,0)"><path fill-rule="evenodd" d="M8 0L8 2L10 2L10 4L11 4L11 5L9 5L9 3L8 3L8 7L9 7L9 9L7 9L7 8L6 8L6 9L7 9L7 10L6 10L6 11L5 11L5 9L4 9L4 8L3 8L3 9L0 9L0 10L1 10L1 11L0 11L0 12L1 12L1 11L2 11L2 10L4 10L4 11L5 11L5 12L4 12L4 13L5 13L5 14L3 14L3 12L2 12L2 15L1 15L1 17L4 17L4 16L2 16L2 15L5 15L5 14L6 14L6 15L7 15L7 16L6 16L6 17L5 17L5 19L7 19L7 20L4 20L4 18L2 18L2 19L1 19L1 18L0 18L0 19L1 19L1 20L0 20L0 21L1 21L1 22L0 22L0 23L1 23L1 22L3 22L3 20L4 20L4 21L10 21L10 20L8 20L8 18L9 18L9 19L10 19L10 17L9 17L9 16L11 16L11 15L9 15L9 16L8 16L8 13L7 13L7 12L6 12L6 11L8 11L8 12L9 12L9 11L10 11L10 12L11 12L11 13L13 13L13 14L12 14L12 18L11 18L11 20L12 20L12 24L9 24L9 25L8 25L8 23L9 23L9 22L8 22L8 23L7 23L7 22L6 22L6 23L5 23L5 22L4 22L4 23L3 23L3 25L2 25L2 26L3 26L3 27L2 27L2 28L3 28L3 27L7 27L7 28L6 28L6 29L9 29L9 30L5 30L5 29L4 29L4 31L3 31L3 32L2 32L2 33L4 33L4 31L7 31L7 32L6 32L6 33L8 33L8 34L9 34L9 33L8 33L8 31L9 31L9 30L10 30L10 32L11 32L11 33L10 33L10 35L9 35L9 36L10 36L10 38L9 38L9 37L8 37L8 38L9 38L9 39L10 39L10 40L9 40L9 41L10 41L10 40L11 40L11 41L12 41L12 40L13 40L13 41L18 41L18 40L19 40L19 39L20 39L20 40L24 40L24 41L25 41L25 40L26 40L26 39L27 39L27 40L28 40L28 41L31 41L31 40L32 40L32 41L33 41L33 39L34 39L34 38L36 38L36 40L37 40L37 41L40 41L40 39L41 39L41 38L40 38L40 37L41 37L41 35L37 35L37 34L38 34L38 33L39 33L39 34L41 34L41 32L40 32L40 31L41 31L41 29L40 29L40 27L41 27L41 26L40 26L40 27L39 27L39 28L37 28L37 27L38 27L38 26L39 26L39 25L40 25L40 24L41 24L41 23L40 23L40 22L38 22L38 21L40 21L40 20L41 20L41 16L39 16L39 17L38 17L38 18L37 18L37 19L36 19L36 20L35 20L35 19L34 19L34 18L35 18L35 17L36 17L36 15L35 15L35 14L36 14L36 13L35 13L35 12L36 12L36 10L35 10L35 9L37 9L37 10L38 10L38 8L35 8L35 9L33 9L33 8L31 8L31 6L32 6L32 7L33 7L33 3L32 3L32 2L31 2L31 4L32 4L32 5L31 5L31 6L30 6L30 7L29 7L29 5L30 5L30 1L29 1L29 0L27 0L27 1L26 1L26 0L20 0L20 2L21 2L21 4L20 4L20 3L19 3L19 0L14 0L14 1L13 1L13 0L12 0L12 1L11 1L11 2L10 2L10 0ZM31 0L31 1L33 1L33 0ZM12 1L12 2L11 2L11 4L12 4L12 6L11 6L11 7L10 7L10 6L9 6L9 7L10 7L10 8L13 8L13 7L14 7L14 8L15 8L15 9L17 9L17 10L18 10L18 11L19 11L19 10L20 10L20 9L22 9L22 10L21 10L21 12L20 12L20 13L21 13L21 14L20 14L20 15L19 15L19 16L21 16L21 19L20 19L20 17L18 17L18 16L17 16L17 15L18 15L18 14L19 14L19 13L18 13L18 12L17 12L17 13L16 13L16 12L15 12L15 13L14 13L14 14L13 14L13 15L14 15L14 14L17 14L17 15L15 15L15 17L16 17L16 18L14 18L14 16L13 16L13 18L12 18L12 20L13 20L13 22L16 22L16 21L17 21L17 22L18 22L18 23L19 23L19 25L16 25L16 24L17 24L17 23L15 23L15 24L13 24L13 25L10 25L10 26L7 26L7 25L5 25L5 26L7 26L7 27L8 27L8 28L9 28L9 27L10 27L10 26L11 26L11 28L10 28L10 29L12 29L12 28L15 28L15 29L14 29L14 30L12 30L12 31L11 31L11 32L12 32L12 33L11 33L11 34L12 34L12 36L11 36L11 37L14 37L14 38L15 38L15 37L16 37L16 36L15 36L15 35L16 35L16 34L17 34L17 33L18 33L18 35L17 35L17 38L18 38L18 37L20 37L20 38L21 38L21 36L22 36L22 38L23 38L23 37L24 37L24 38L25 38L25 39L26 39L26 38L27 38L27 39L28 39L28 40L29 40L29 37L30 37L30 34L31 34L31 35L32 35L32 32L34 32L34 31L35 31L35 29L36 29L36 30L37 30L37 28L35 28L35 29L34 29L34 31L33 31L33 30L31 30L31 29L33 29L33 27L32 27L32 26L34 26L34 27L35 27L35 25L34 25L34 23L37 23L37 22L36 22L36 21L35 21L35 22L34 22L34 19L32 19L32 17L35 17L35 15L34 15L34 12L35 12L35 10L33 10L33 9L31 9L31 10L32 10L32 11L33 11L33 14L32 14L32 12L31 12L31 11L29 11L29 12L27 12L27 11L28 11L28 8L27 8L27 7L28 7L28 6L27 6L27 7L26 7L26 5L25 5L25 4L24 4L24 6L23 6L23 9L22 9L22 6L21 6L21 5L19 5L19 7L18 7L18 4L19 4L19 3L18 3L18 4L16 4L16 3L17 3L17 2L18 2L18 1L14 1L14 2L15 2L15 4L16 4L16 5L17 5L17 7L16 7L16 6L15 6L15 5L14 5L14 3L13 3L13 4L12 4L12 2L13 2L13 1ZM21 1L21 2L22 2L22 1ZM24 1L24 3L25 3L25 1ZM28 1L28 2L26 2L26 3L27 3L27 4L29 4L29 1ZM22 3L22 5L23 5L23 3ZM12 6L12 7L13 7L13 6ZM14 6L14 7L15 7L15 6ZM20 6L20 7L21 7L21 6ZM24 6L24 7L25 7L25 8L24 8L24 9L23 9L23 10L24 10L24 11L25 11L25 12L24 12L24 13L23 13L23 14L24 14L24 15L23 15L23 17L22 17L22 19L21 19L21 20L20 20L20 19L19 19L19 18L18 18L18 17L17 17L17 18L18 18L18 20L17 20L17 21L19 21L19 20L20 20L20 22L19 22L19 23L21 23L21 20L22 20L22 21L23 21L23 22L24 22L24 23L23 23L23 24L20 24L20 26L21 26L21 25L23 25L23 26L22 26L22 28L24 28L24 29L23 29L23 31L22 31L22 29L21 29L21 28L20 28L20 27L19 27L19 26L17 26L17 27L16 27L16 26L15 26L15 25L14 25L14 26L12 26L12 27L14 27L14 26L15 26L15 28L16 28L16 31L15 31L15 32L17 32L17 31L19 31L19 32L21 32L21 31L22 31L22 32L23 32L23 34L22 34L22 36L24 36L24 35L26 35L26 34L27 34L27 33L28 33L28 34L30 34L30 33L29 33L29 32L30 32L30 31L31 31L31 30L29 30L29 29L30 29L30 28L32 28L32 27L30 27L30 26L32 26L32 25L31 25L31 24L33 24L33 23L32 23L32 22L31 22L31 24L29 24L29 25L28 25L28 27L27 27L27 25L25 25L25 24L24 24L24 23L25 23L25 22L26 22L26 21L27 21L27 20L26 20L26 19L27 19L27 16L28 16L28 15L27 15L27 14L29 14L29 18L28 18L28 19L30 19L30 15L32 15L32 16L33 16L33 15L32 15L32 14L29 14L29 13L31 13L31 12L29 12L29 13L26 13L26 15L25 15L25 12L26 12L26 11L25 11L25 10L27 10L27 8L26 8L26 7L25 7L25 6ZM17 7L17 8L18 8L18 7ZM19 8L19 9L20 9L20 8ZM29 8L29 9L30 9L30 8ZM39 8L39 9L40 9L40 10L41 10L41 8ZM9 9L9 10L8 10L8 11L9 11L9 10L10 10L10 11L12 11L12 12L13 12L13 11L12 11L12 10L14 10L14 11L15 11L15 10L14 10L14 9L11 9L11 10L10 10L10 9ZM22 11L22 12L23 12L23 11ZM38 11L38 13L39 13L39 14L38 14L38 15L37 15L37 16L38 16L38 15L41 15L41 14L40 14L40 13L41 13L41 12L40 12L40 11ZM6 13L6 14L7 14L7 13ZM21 14L21 15L22 15L22 14ZM24 16L24 17L23 17L23 19L22 19L22 20L24 20L24 19L26 19L26 16ZM6 17L6 18L7 18L7 17ZM39 17L39 19L38 19L38 20L37 20L37 21L38 21L38 20L40 20L40 17ZM15 19L15 20L14 20L14 21L15 21L15 20L16 20L16 19ZM25 20L25 21L26 21L26 20ZM29 20L29 22L30 22L30 20ZM31 20L31 21L33 21L33 20ZM10 22L10 23L11 23L11 22ZM4 23L4 24L5 24L5 23ZM6 23L6 24L7 24L7 23ZM26 23L26 24L27 24L27 23ZM39 23L39 24L38 24L38 25L39 25L39 24L40 24L40 23ZM23 24L23 25L24 25L24 24ZM36 24L36 26L37 26L37 24ZM0 25L0 26L1 26L1 25ZM29 25L29 26L30 26L30 25ZM23 26L23 27L24 27L24 26ZM25 26L25 27L26 27L26 28L25 28L25 29L24 29L24 31L25 31L25 29L26 29L26 31L27 31L27 32L29 32L29 31L27 31L27 27L26 27L26 26ZM0 27L0 28L1 28L1 27ZM17 27L17 29L18 29L18 30L21 30L21 29L19 29L19 28L18 28L18 27ZM28 27L28 29L29 29L29 27ZM2 29L2 30L3 30L3 29ZM0 30L0 31L1 31L1 30ZM38 30L38 32L37 32L37 31L36 31L36 32L37 32L37 33L38 33L38 32L39 32L39 31L40 31L40 30ZM0 32L0 33L1 33L1 32ZM13 32L13 36L14 36L14 37L15 37L15 36L14 36L14 34L15 34L15 33L14 33L14 32ZM24 32L24 33L25 33L25 34L26 34L26 32ZM19 33L19 36L20 36L20 35L21 35L21 33ZM33 33L33 36L36 36L36 33ZM34 34L34 35L35 35L35 34ZM28 35L28 37L29 37L29 35ZM26 36L26 37L25 37L25 38L26 38L26 37L27 37L27 36ZM31 36L31 38L30 38L30 40L31 40L31 38L32 38L32 39L33 39L33 37L32 37L32 36ZM38 36L38 37L36 37L36 38L38 38L38 40L39 40L39 39L40 39L40 38L39 38L39 36ZM11 38L11 39L13 39L13 38ZM15 39L15 40L16 40L16 39ZM0 0L0 7L7 7L7 0ZM1 1L1 6L6 6L6 1ZM2 2L2 5L5 5L5 2ZM34 0L34 7L41 7L41 0ZM35 1L35 6L40 6L40 1ZM36 2L36 5L39 5L39 2ZM0 34L0 41L7 41L7 34ZM1 35L1 40L6 40L6 35ZM2 36L2 39L5 39L5 36Z" fill="#000000"/></g></g></svg>
