<?xml version="1.0" encoding="UTF-8"?>
<svg xmlns="http://www.w3.org/2000/svg" version="1.1" width="200" height="200" viewBox="0 0 200 200"><rect x="0" y="0" width="200" height="200" fill="#ffffff"/><g transform="scale(6.897)"><g transform="translate(0,0)"><path fill-rule="evenodd" d="M10 0L10 2L11 2L11 3L10 3L10 4L11 4L11 5L12 5L12 4L13 4L13 3L15 3L15 4L14 4L14 5L13 5L13 6L12 6L12 7L11 7L11 6L10 6L10 7L9 7L9 6L8 6L8 8L6 8L6 9L7 9L7 10L4 10L4 11L1 11L1 10L2 10L2 9L4 9L4 8L2 8L2 9L0 9L0 13L3 13L3 14L1 14L1 15L2 15L2 17L1 17L1 18L0 18L0 19L1 19L1 18L4 18L4 19L8 19L8 20L3 20L3 19L2 19L2 20L1 20L1 21L2 21L2 20L3 20L3 21L8 21L8 23L9 23L9 24L10 24L10 25L11 25L11 27L9 27L9 25L8 25L8 27L9 27L9 28L12 28L12 29L14 29L14 27L13 27L13 28L12 28L12 26L16 26L16 24L15 24L15 23L14 23L14 24L15 24L15 25L13 25L13 24L12 24L12 23L13 23L13 22L12 22L12 21L13 21L13 20L15 20L15 18L14 18L14 19L13 19L13 20L12 20L12 21L11 21L11 22L10 22L10 20L11 20L11 19L12 19L12 18L13 18L13 17L11 17L11 18L10 18L10 16L12 16L12 15L14 15L14 16L15 16L15 17L17 17L17 18L16 18L16 19L17 19L17 18L18 18L18 16L19 16L19 15L20 15L20 14L21 14L21 13L20 13L20 12L22 12L22 9L23 9L23 13L22 13L22 15L23 15L23 14L24 14L24 13L25 13L25 14L26 14L26 15L27 15L27 16L28 16L28 14L27 14L27 13L28 13L28 12L29 12L29 11L28 11L28 12L27 12L27 11L26 11L26 10L24 10L24 9L25 9L25 8L24 8L24 9L23 9L23 8L21 8L21 9L20 9L20 7L21 7L21 3L20 3L20 2L18 2L18 1L17 1L17 2L18 2L18 4L19 4L19 5L16 5L16 4L17 4L17 3L16 3L16 1L14 1L14 2L13 2L13 1L11 1L11 0ZM11 3L11 4L12 4L12 3ZM19 3L19 4L20 4L20 3ZM8 4L8 5L9 5L9 4ZM14 5L14 6L13 6L13 7L14 7L14 9L16 9L16 8L15 8L15 7L16 7L16 6L15 6L15 5ZM19 5L19 7L18 7L18 6L17 6L17 10L18 10L18 11L15 11L15 10L14 10L14 12L13 12L13 10L12 10L12 9L11 9L11 10L10 10L10 8L11 8L11 7L10 7L10 8L9 8L9 10L10 10L10 11L12 11L12 12L10 12L10 13L11 13L11 14L9 14L9 15L8 15L8 14L7 14L7 13L8 13L8 12L9 12L9 11L5 11L5 12L7 12L7 13L4 13L4 12L3 12L3 13L4 13L4 14L7 14L7 15L6 15L6 16L5 16L5 15L3 15L3 17L4 17L4 18L7 18L7 17L9 17L9 15L12 15L12 14L14 14L14 15L17 15L17 14L18 14L18 15L19 15L19 14L20 14L20 13L19 13L19 14L18 14L18 13L17 13L17 12L20 12L20 11L19 11L19 10L20 10L20 9L19 9L19 10L18 10L18 8L19 8L19 7L20 7L20 5ZM14 6L14 7L15 7L15 6ZM27 9L27 10L29 10L29 9ZM25 11L25 13L27 13L27 12L26 12L26 11ZM15 12L15 13L14 13L14 14L16 14L16 12ZM24 15L24 16L23 16L23 17L21 17L21 18L20 18L20 17L19 17L19 18L20 18L20 20L19 20L19 19L18 19L18 20L19 20L19 21L20 21L20 23L19 23L19 22L18 22L18 24L20 24L20 25L18 25L18 26L17 26L17 27L16 27L16 28L15 28L15 29L16 29L16 28L18 28L18 29L20 29L20 28L18 28L18 26L20 26L20 25L23 25L23 26L24 26L24 27L22 27L22 29L23 29L23 28L26 28L26 29L27 29L27 28L29 28L29 26L28 26L28 27L25 27L25 26L27 26L27 25L29 25L29 23L28 23L28 20L27 20L27 18L29 18L29 17L26 17L26 16L25 16L25 15ZM4 16L4 17L5 17L5 16ZM6 16L6 17L7 17L7 16ZM24 16L24 17L23 17L23 18L22 18L22 19L21 19L21 20L22 20L22 19L24 19L24 18L26 18L26 17L25 17L25 16ZM8 18L8 19L9 19L9 18ZM8 20L8 21L9 21L9 20ZM26 20L26 22L25 22L25 23L26 23L26 25L27 25L27 24L28 24L28 23L27 23L27 20ZM14 21L14 22L17 22L17 21ZM21 21L21 24L24 24L24 21ZM9 22L9 23L10 23L10 22ZM22 22L22 23L23 23L23 22ZM24 25L24 26L25 26L25 25ZM0 0L0 7L7 7L7 0ZM1 1L1 6L6 6L6 1ZM2 2L2 5L5 5L5 2ZM22 0L22 7L29 7L29 0ZM23 1L23 6L28 6L28 1ZM24 2L24 5L27 5L27 2ZM0 22L0 29L7 29L7 22ZM1 23L1 28L6 28L6 23ZM2 24L2 27L5 27L5 24Z" fill="#000000"/></g></g></svg>
