<?xml version="1.0" encoding="UTF-8"?>
<svg xmlns="http://www.w3.org/2000/svg" version="1.1" width="200" height="200" viewBox="0 0 200 200"><rect x="0" y="0" width="200" height="200" fill="#ffffff"/><g transform="scale(4.878)"><g transform="translate(0,0)"><path fill-rule="evenodd" d="M11 0L11 2L9 2L9 1L8 1L8 7L9 7L9 8L5 8L5 9L7 9L7 10L4 10L4 9L3 9L3 8L2 8L2 9L3 9L3 10L4 10L4 11L2 11L2 12L0 12L0 14L2 14L2 16L1 16L1 17L0 17L0 18L1 18L1 17L2 17L2 18L3 18L3 19L2 19L2 20L1 20L1 21L0 21L0 23L1 23L1 24L0 24L0 27L1 27L1 30L0 30L0 31L2 31L2 32L0 32L0 33L8 33L8 36L9 36L9 35L10 35L10 36L13 36L13 37L12 37L12 38L10 38L10 37L9 37L9 38L8 38L8 39L9 39L9 41L11 41L11 40L15 40L15 41L18 41L18 40L19 40L19 41L20 41L20 40L21 40L21 41L23 41L23 39L24 39L24 38L25 38L25 39L26 39L26 38L25 38L25 37L24 37L24 36L27 36L27 40L25 40L25 41L29 41L29 40L28 40L28 39L30 39L30 40L31 40L31 39L32 39L32 41L36 41L36 40L37 40L37 41L39 41L39 39L41 39L41 37L40 37L40 35L41 35L41 25L39 25L39 24L37 24L37 26L35 26L35 20L36 20L36 21L37 21L37 22L36 22L36 23L37 23L37 22L38 22L38 21L37 21L37 19L36 19L36 18L35 18L35 16L34 16L34 15L37 15L37 14L33 14L33 17L34 17L34 18L35 18L35 20L34 20L34 19L33 19L33 18L32 18L32 16L31 16L31 15L32 15L32 14L29 14L29 12L27 12L27 11L30 11L30 13L32 13L32 8L33 8L33 10L35 10L35 11L34 11L34 12L35 12L35 13L36 13L36 12L35 12L35 11L36 11L36 10L35 10L35 9L39 9L39 12L38 12L38 11L37 11L37 13L38 13L38 15L39 15L39 16L40 16L40 15L41 15L41 12L40 12L40 11L41 11L41 9L40 9L40 8L35 8L35 9L34 9L34 8L33 8L33 6L32 6L32 7L31 7L31 6L30 6L30 7L31 7L31 8L30 8L30 10L28 10L28 7L29 7L29 5L28 5L28 7L27 7L27 5L25 5L25 3L26 3L26 2L25 2L25 1L26 1L26 0L25 0L25 1L24 1L24 0L22 0L22 1L21 1L21 0L20 0L20 1L21 1L21 2L20 2L20 4L19 4L19 0L18 0L18 3L17 3L17 1L16 1L16 0L14 0L14 1L13 1L13 0ZM28 0L28 2L27 2L27 4L28 4L28 2L30 2L30 5L31 5L31 1L29 1L29 0ZM32 0L32 1L33 1L33 0ZM14 1L14 2L12 2L12 3L11 3L11 7L10 7L10 4L9 4L9 7L10 7L10 8L12 8L12 9L13 9L13 10L10 10L10 11L8 11L8 13L11 13L11 11L12 11L12 14L10 14L10 15L9 15L9 17L6 17L6 16L7 16L7 15L6 15L6 14L7 14L7 13L5 13L5 12L7 12L7 11L5 11L5 12L2 12L2 13L4 13L4 15L3 15L3 16L2 16L2 17L3 17L3 18L4 18L4 23L3 23L3 20L2 20L2 23L3 23L3 24L4 24L4 25L6 25L6 26L4 26L4 27L3 27L3 29L2 29L2 31L4 31L4 32L5 32L5 29L6 29L6 30L7 30L7 31L6 31L6 32L9 32L9 33L11 33L11 32L12 32L12 30L13 30L13 28L15 28L15 29L14 29L14 31L13 31L13 32L14 32L14 34L13 34L13 33L12 33L12 34L10 34L10 35L12 35L12 34L13 34L13 35L14 35L14 34L17 34L17 35L18 35L18 34L19 34L19 33L18 33L18 32L21 32L21 33L23 33L23 34L24 34L24 35L23 35L23 36L22 36L22 37L21 37L21 34L20 34L20 36L19 36L19 37L20 37L20 38L19 38L19 40L20 40L20 38L21 38L21 40L22 40L22 38L23 38L23 36L24 36L24 35L25 35L25 34L26 34L26 35L27 35L27 36L28 36L28 35L30 35L30 37L29 37L29 38L30 38L30 39L31 39L31 36L32 36L32 34L28 34L28 35L27 35L27 32L29 32L29 33L30 33L30 32L31 32L31 33L32 33L32 32L31 32L31 31L32 31L32 28L33 28L33 26L32 26L32 27L31 27L31 26L30 26L30 27L29 27L29 25L30 25L30 23L31 23L31 24L32 24L32 23L31 23L31 22L30 22L30 21L29 21L29 20L30 20L30 19L29 19L29 20L28 20L28 19L27 19L27 17L28 17L28 18L31 18L31 16L30 16L30 15L29 15L29 17L28 17L28 16L27 16L27 15L28 15L28 13L27 13L27 15L26 15L26 16L25 16L25 15L24 15L24 14L23 14L23 15L22 15L22 14L20 14L20 16L21 16L21 17L19 17L19 16L18 16L18 15L19 15L19 14L18 14L18 13L17 13L17 12L16 12L16 11L17 11L17 10L18 10L18 11L19 11L19 12L20 12L20 13L21 13L21 10L20 10L20 9L19 9L19 7L20 7L20 8L21 8L21 7L22 7L22 8L23 8L23 7L24 7L24 8L25 8L25 7L26 7L26 8L27 8L27 7L26 7L26 6L25 6L25 5L23 5L23 4L22 4L22 3L21 3L21 4L22 4L22 6L21 6L21 7L20 7L20 6L19 6L19 4L17 4L17 5L18 5L18 6L17 6L17 8L18 8L18 9L17 9L17 10L16 10L16 11L15 11L15 9L13 9L13 8L15 8L15 7L16 7L16 5L15 5L15 3L16 3L16 2L15 2L15 1ZM22 1L22 2L23 2L23 1ZM14 2L14 3L15 3L15 2ZM24 2L24 3L25 3L25 2ZM32 2L32 3L33 3L33 2ZM12 4L12 8L13 8L13 5L14 5L14 4ZM14 6L14 7L15 7L15 6ZM18 6L18 7L19 7L19 6ZM22 6L22 7L23 7L23 6ZM24 6L24 7L25 7L25 6ZM0 9L0 10L1 10L1 9ZM8 9L8 10L9 10L9 9ZM23 9L23 11L22 11L22 12L24 12L24 13L26 13L26 12L25 12L25 11L26 11L26 10L25 10L25 9ZM13 10L13 11L14 11L14 13L15 13L15 15L13 15L13 14L12 14L12 15L11 15L11 16L10 16L10 17L9 17L9 20L8 20L8 19L7 19L7 18L6 18L6 19L7 19L7 20L5 20L5 23L7 23L7 24L6 24L6 25L7 25L7 26L6 26L6 27L8 27L8 29L7 29L7 28L6 28L6 29L7 29L7 30L8 30L8 31L9 31L9 32L10 32L10 31L11 31L11 30L10 30L10 29L11 29L11 28L10 28L10 29L9 29L9 27L10 27L10 26L12 26L12 28L13 28L13 27L16 27L16 25L15 25L15 23L14 23L14 22L13 22L13 21L14 21L14 20L15 20L15 19L13 19L13 18L12 18L12 16L13 16L13 17L14 17L14 18L16 18L16 17L15 17L15 15L17 15L17 13L16 13L16 12L15 12L15 11L14 11L14 10ZM24 10L24 11L25 11L25 10ZM30 10L30 11L31 11L31 10ZM4 15L4 16L3 16L3 17L4 17L4 18L5 18L5 15ZM23 15L23 16L24 16L24 15ZM17 16L17 19L18 19L18 21L16 21L16 22L21 22L21 23L19 23L19 24L18 24L18 23L16 23L16 24L18 24L18 25L17 25L17 28L16 28L16 29L15 29L15 30L16 30L16 29L17 29L17 30L18 30L18 31L16 31L16 32L15 32L15 33L17 33L17 34L18 34L18 33L17 33L17 32L18 32L18 31L20 31L20 29L21 29L21 30L23 30L23 31L24 31L24 32L23 32L23 33L24 33L24 32L25 32L25 31L26 31L26 32L27 32L27 31L28 31L28 30L27 30L27 31L26 31L26 30L24 30L24 29L26 29L26 28L27 28L27 29L28 29L28 28L27 28L27 27L28 27L28 24L29 24L29 23L30 23L30 22L28 22L28 20L27 20L27 22L26 22L26 19L25 19L25 20L23 20L23 19L24 19L24 17L22 17L22 18L23 18L23 19L21 19L21 18L19 18L19 19L18 19L18 16ZM10 17L10 18L11 18L11 17ZM25 17L25 18L26 18L26 17ZM39 17L39 20L40 20L40 19L41 19L41 17ZM19 19L19 21L20 21L20 20L21 20L21 19ZM31 19L31 20L32 20L32 19ZM11 20L11 21L12 21L12 20ZM22 20L22 21L23 21L23 22L22 22L22 23L21 23L21 24L19 24L19 25L18 25L18 26L19 26L19 27L18 27L18 28L19 28L19 29L20 29L20 28L21 28L21 29L23 29L23 28L25 28L25 27L27 27L27 23L26 23L26 22L25 22L25 23L24 23L24 21L23 21L23 20ZM6 21L6 22L7 22L7 21ZM39 21L39 22L40 22L40 24L41 24L41 22L40 22L40 21ZM9 22L9 23L8 23L8 24L9 24L9 25L8 25L8 27L9 27L9 26L10 26L10 25L13 25L13 24L14 24L14 23L12 23L12 22L11 22L11 23L10 23L10 22ZM33 22L33 23L34 23L34 22ZM9 23L9 24L10 24L10 23ZM11 23L11 24L12 24L12 23ZM22 23L22 24L21 24L21 27L25 27L25 25L26 25L26 23L25 23L25 25L24 25L24 26L23 26L23 25L22 25L22 24L24 24L24 23ZM1 24L1 25L2 25L2 24ZM1 26L1 27L2 27L2 26ZM37 26L37 27L34 27L34 28L35 28L35 29L34 29L34 30L33 30L33 31L34 31L34 32L35 32L35 30L37 30L37 27L38 27L38 28L39 28L39 29L38 29L38 31L36 31L36 32L37 32L37 37L32 37L32 38L33 38L33 39L34 39L34 40L35 40L35 39L36 39L36 38L37 38L37 37L39 37L39 38L38 38L38 39L39 39L39 38L40 38L40 37L39 37L39 35L38 35L38 33L39 33L39 34L40 34L40 33L39 33L39 30L40 30L40 28L39 28L39 27L38 27L38 26ZM30 27L30 28L31 28L31 27ZM4 28L4 29L5 29L5 28ZM30 30L30 31L31 31L31 30ZM33 33L33 36L36 36L36 33ZM34 34L34 35L35 35L35 34ZM15 35L15 36L14 36L14 37L15 37L15 39L16 39L16 38L17 38L17 40L18 40L18 38L17 38L17 37L18 37L18 36L17 36L17 37L15 37L15 36L16 36L16 35ZM13 38L13 39L14 39L14 38ZM10 39L10 40L11 40L11 39ZM40 40L40 41L41 41L41 40ZM0 0L0 7L7 7L7 0ZM1 1L1 6L6 6L6 1ZM2 2L2 5L5 5L5 2ZM34 0L34 7L41 7L41 0ZM35 1L35 6L40 6L40 1ZM36 2L36 5L39 5L39 2ZM0 34L0 41L7 41L7 34ZM1 35L1 40L6 40L6 35ZM2 36L2 39L5 39L5 36Z" fill="#000000"/></g></g></svg>
