<?xml version="1.0" encoding="UTF-8"?>
<svg xmlns="http://www.w3.org/2000/svg" version="1.1" width="200" height="200" viewBox="0 0 200 200"><rect x="0" y="0" width="200" height="200" fill="#ffffff"/><g transform="scale(6.897)"><g transform="translate(0,0)"><path fill-rule="evenodd" d="M9 0L9 1L8 1L8 7L9 7L9 8L5 8L5 9L4 9L4 10L3 10L3 8L2 8L2 10L1 10L1 9L0 9L0 10L1 10L1 12L2 12L2 10L3 10L3 12L4 12L4 10L5 10L5 9L7 9L7 10L6 10L6 11L5 11L5 13L3 13L3 14L2 14L2 13L1 13L1 14L0 14L0 16L1 16L1 15L3 15L3 16L2 16L2 18L0 18L0 19L2 19L2 20L0 20L0 21L4 21L4 20L6 20L6 21L8 21L8 24L10 24L10 26L11 26L11 29L12 29L12 25L13 25L13 23L14 23L14 26L16 26L16 25L15 25L15 24L17 24L17 21L18 21L18 22L19 22L19 23L18 23L18 24L19 24L19 25L18 25L18 26L20 26L20 27L21 27L21 29L22 29L22 28L24 28L24 29L26 29L26 28L24 28L24 26L23 26L23 27L22 27L22 26L21 26L21 25L25 25L25 23L26 23L26 21L27 21L27 22L28 22L28 23L27 23L27 24L26 24L26 26L25 26L25 27L26 27L26 26L27 26L27 27L28 27L28 28L27 28L27 29L29 29L29 26L27 26L27 24L28 24L28 25L29 25L29 24L28 24L28 23L29 23L29 21L27 21L27 19L26 19L26 18L28 18L28 19L29 19L29 18L28 18L28 17L29 17L29 14L28 14L28 13L29 13L29 12L27 12L27 11L29 11L29 9L28 9L28 8L23 8L23 10L22 10L22 11L21 11L21 9L22 9L22 8L20 8L20 7L21 7L21 0L19 0L19 1L20 1L20 2L19 2L19 3L20 3L20 5L19 5L19 4L18 4L18 5L17 5L17 3L18 3L18 2L16 2L16 3L14 3L14 2L12 2L12 3L14 3L14 4L13 4L13 5L12 5L12 7L13 7L13 6L14 6L14 7L15 7L15 8L14 8L14 9L13 9L13 8L10 8L10 7L11 7L11 3L10 3L10 2L11 2L11 1L13 1L13 0ZM14 0L14 1L16 1L16 0ZM17 0L17 1L18 1L18 0ZM14 4L14 5L15 5L15 4ZM16 5L16 6L15 6L15 7L16 7L16 6L17 6L17 7L18 7L18 10L16 10L16 9L14 9L14 10L13 10L13 11L14 11L14 12L12 12L12 10L11 10L11 9L8 9L8 10L7 10L7 11L6 11L6 12L8 12L8 13L5 13L5 15L4 15L4 14L3 14L3 15L4 15L4 17L3 17L3 18L4 18L4 17L5 17L5 18L7 18L7 19L6 19L6 20L7 20L7 19L9 19L9 23L11 23L11 25L12 25L12 23L11 23L11 22L10 22L10 19L11 19L11 21L12 21L12 22L13 22L13 21L14 21L14 23L16 23L16 22L15 22L15 21L17 21L17 20L18 20L18 21L19 21L19 22L20 22L20 21L19 21L19 20L22 20L22 19L21 19L21 15L19 15L19 16L20 16L20 17L19 17L19 18L18 18L18 19L16 19L16 20L15 20L15 19L13 19L13 20L12 20L12 18L10 18L10 19L9 19L9 16L10 16L10 17L11 17L11 16L10 16L10 14L11 14L11 15L15 15L15 14L14 14L14 13L16 13L16 14L17 14L17 13L18 13L18 12L17 12L17 13L16 13L16 12L15 12L15 11L18 11L18 10L19 10L19 11L20 11L20 8L19 8L19 7L20 7L20 6L19 6L19 7L18 7L18 6L17 6L17 5ZM9 6L9 7L10 7L10 6ZM27 9L27 10L24 10L24 11L27 11L27 10L28 10L28 9ZM9 10L9 13L10 13L10 11L11 11L11 10ZM14 10L14 11L15 11L15 10ZM11 12L11 14L13 14L13 13L12 13L12 12ZM19 12L19 14L22 14L22 12L21 12L21 13L20 13L20 12ZM23 12L23 14L25 14L25 15L22 15L22 16L25 16L25 17L22 17L22 18L25 18L25 17L27 17L27 16L28 16L28 15L27 15L27 13L26 13L26 14L25 14L25 13L24 13L24 12ZM6 14L6 15L7 15L7 16L6 16L6 17L7 17L7 18L8 18L8 16L9 16L9 14ZM12 16L12 17L13 17L13 18L16 18L16 17L17 17L17 16L16 16L16 17L13 17L13 16ZM19 18L19 19L20 19L20 18ZM23 19L23 20L25 20L25 19ZM21 21L21 24L24 24L24 21ZM22 22L22 23L23 23L23 22ZM19 23L19 24L20 24L20 23ZM8 26L8 27L9 27L9 26ZM13 27L13 28L14 28L14 27ZM15 27L15 28L16 28L16 29L19 29L19 28L16 28L16 27ZM0 0L0 7L7 7L7 0ZM1 1L1 6L6 6L6 1ZM2 2L2 5L5 5L5 2ZM22 0L22 7L29 7L29 0ZM23 1L23 6L28 6L28 1ZM24 2L24 5L27 5L27 2ZM0 22L0 29L7 29L7 22ZM1 23L1 28L6 28L6 23ZM2 24L2 27L5 27L5 24Z" fill="#000000"/></g></g></svg>
