<?xml version="1.0" encoding="UTF-8"?>
<svg xmlns="http://www.w3.org/2000/svg" version="1.1" width="200" height="200" viewBox="0 0 200 200"><rect x="0" y="0" width="200" height="200" fill="#ffffff"/><g transform="scale(6.897)"><g transform="translate(0,0)"><path fill-rule="evenodd" d="M12 0L12 2L13 2L13 3L10 3L10 4L11 4L11 5L12 5L12 4L13 4L13 3L15 3L15 4L14 4L14 5L15 5L15 6L14 6L14 8L13 8L13 6L12 6L12 7L11 7L11 6L10 6L10 7L11 7L11 9L10 9L10 8L9 8L9 6L8 6L8 8L6 8L6 9L5 9L5 10L4 10L4 8L2 8L2 9L3 9L3 10L2 10L2 11L1 11L1 9L0 9L0 15L1 15L1 16L2 16L2 17L1 17L1 18L0 18L0 19L1 19L1 18L2 18L2 17L3 17L3 18L4 18L4 19L2 19L2 20L1 20L1 21L7 21L7 20L8 20L8 19L9 19L9 21L8 21L8 23L10 23L10 25L11 25L11 26L12 26L12 25L13 25L13 26L15 26L15 25L16 25L16 27L17 27L17 28L18 28L18 29L20 29L20 28L18 28L18 26L17 26L17 24L18 24L18 25L19 25L19 26L20 26L20 25L23 25L23 26L24 26L24 27L22 27L22 29L23 29L23 28L25 28L25 26L24 26L24 25L26 25L26 27L27 27L27 28L26 28L26 29L27 29L27 28L29 28L29 26L28 26L28 27L27 27L27 25L26 25L26 23L25 23L25 22L26 22L26 20L27 20L27 24L28 24L28 25L29 25L29 21L28 21L28 20L27 20L27 18L29 18L29 17L26 17L26 16L25 16L25 15L24 15L24 16L23 16L23 17L21 17L21 18L20 18L20 17L19 17L19 16L18 16L18 17L17 17L17 18L20 18L20 20L19 20L19 19L18 19L18 20L19 20L19 21L20 21L20 23L17 23L17 24L15 24L15 22L17 22L17 21L14 21L14 24L12 24L12 23L13 23L13 22L12 22L12 21L13 21L13 20L16 20L16 16L17 16L17 15L20 15L20 14L21 14L21 13L20 13L20 12L22 12L22 9L23 9L23 13L22 13L22 15L23 15L23 14L24 14L24 13L25 13L25 14L26 14L26 15L27 15L27 16L28 16L28 15L29 15L29 14L28 14L28 15L27 15L27 13L28 13L28 12L29 12L29 11L28 11L28 12L27 12L27 10L29 10L29 9L26 9L26 10L24 10L24 9L25 9L25 8L24 8L24 9L23 9L23 8L21 8L21 9L20 9L20 7L21 7L21 3L20 3L20 2L18 2L18 1L17 1L17 0L15 0L15 1L14 1L14 2L13 2L13 0ZM10 1L10 2L11 2L11 1ZM15 2L15 3L17 3L17 4L16 4L16 5L19 5L19 7L18 7L18 6L17 6L17 10L18 10L18 11L16 11L16 10L14 10L14 12L10 12L10 13L11 13L11 15L12 15L12 16L11 16L11 17L12 17L12 18L13 18L13 19L12 19L12 20L10 20L10 21L9 21L9 22L11 22L11 21L12 21L12 20L13 20L13 19L14 19L14 18L15 18L15 16L14 16L14 15L12 15L12 14L14 14L14 13L16 13L16 14L15 14L15 15L17 15L17 14L18 14L18 13L17 13L17 12L20 12L20 11L19 11L19 10L20 10L20 9L19 9L19 10L18 10L18 8L19 8L19 7L20 7L20 5L19 5L19 4L20 4L20 3L19 3L19 4L18 4L18 2ZM8 4L8 5L9 5L9 4ZM15 6L15 7L16 7L16 6ZM12 8L12 9L11 9L11 10L10 10L10 9L8 9L8 11L5 11L5 12L8 12L8 11L9 11L9 10L10 10L10 11L12 11L12 9L13 9L13 8ZM14 8L14 9L16 9L16 8ZM6 9L6 10L7 10L7 9ZM15 11L15 12L16 12L16 11ZM25 11L25 13L27 13L27 12L26 12L26 11ZM3 12L3 13L1 13L1 14L3 14L3 13L4 13L4 12ZM5 13L5 15L6 15L6 16L7 16L7 17L6 17L6 18L7 18L7 19L4 19L4 20L7 20L7 19L8 19L8 18L7 18L7 17L8 17L8 16L10 16L10 15L8 15L8 14L7 14L7 13ZM19 13L19 14L20 14L20 13ZM6 14L6 15L7 15L7 14ZM3 15L3 17L4 17L4 18L5 18L5 16L4 16L4 15ZM12 16L12 17L14 17L14 16ZM24 16L24 17L23 17L23 18L22 18L22 19L21 19L21 20L22 20L22 19L24 19L24 20L25 20L25 19L24 19L24 18L26 18L26 17L25 17L25 16ZM21 21L21 24L24 24L24 21ZM22 22L22 23L23 23L23 22ZM14 24L14 25L15 25L15 24ZM19 24L19 25L20 25L20 24ZM8 25L8 27L9 27L9 28L11 28L11 29L14 29L14 27L13 27L13 28L12 28L12 27L9 27L9 25ZM0 0L0 7L7 7L7 0ZM1 1L1 6L6 6L6 1ZM2 2L2 5L5 5L5 2ZM22 0L22 7L29 7L29 0ZM23 1L23 6L28 6L28 1ZM24 2L24 5L27 5L27 2ZM0 22L0 29L7 29L7 22ZM1 23L1 28L6 28L6 23ZM2 24L2 27L5 27L5 24Z" fill="#000000"/></g></g></svg>
