<?xml version="1.0" encoding="UTF-8"?>
<svg xmlns="http://www.w3.org/2000/svg" version="1.1" width="200" height="200" viewBox="0 0 200 200"><rect x="0" y="0" width="200" height="200" fill="#ffffff"/><g transform="scale(6.897)"><g transform="translate(0,0)"><path fill-rule="evenodd" d="M8 0L8 3L10 3L10 4L9 4L9 5L8 5L8 9L7 9L7 8L6 8L6 9L5 9L5 8L2 8L2 9L4 9L4 10L3 10L3 11L0 11L0 12L1 12L1 14L0 14L0 21L1 21L1 18L2 18L2 17L1 17L1 16L2 16L2 13L3 13L3 12L4 12L4 14L5 14L5 15L4 15L4 16L3 16L3 18L5 18L5 17L7 17L7 16L8 16L8 18L6 18L6 19L3 19L3 20L2 20L2 21L7 21L7 20L6 20L6 19L8 19L8 20L11 20L11 21L10 21L10 22L9 22L9 21L8 21L8 22L9 22L9 23L10 23L10 24L11 24L11 25L12 25L12 28L13 28L13 29L16 29L16 27L18 27L18 29L25 29L25 27L26 27L26 28L27 28L27 29L28 29L28 28L29 28L29 27L28 27L28 25L29 25L29 24L28 24L28 25L26 25L26 24L25 24L25 22L26 22L26 23L27 23L27 22L28 22L28 23L29 23L29 20L28 20L28 19L26 19L26 18L27 18L27 17L28 17L28 10L29 10L29 8L26 8L26 9L25 9L25 12L24 12L24 11L22 11L22 12L23 12L23 13L21 13L21 15L22 15L22 14L23 14L23 13L24 13L24 20L23 20L23 19L22 19L22 18L20 18L20 19L21 19L21 20L20 20L20 25L19 25L19 24L18 24L18 23L19 23L19 22L17 22L17 20L13 20L13 21L12 21L12 19L13 19L13 18L9 18L9 15L10 15L10 14L9 14L9 15L7 15L7 14L5 14L5 12L6 12L6 13L11 13L11 16L10 16L10 17L11 17L11 16L12 16L12 17L13 17L13 16L12 16L12 13L11 13L11 12L8 12L8 11L7 11L7 10L8 10L8 9L9 9L9 11L10 11L10 9L11 9L11 10L12 10L12 9L13 9L13 11L12 11L12 12L13 12L13 14L15 14L15 15L14 15L14 16L15 16L15 17L16 17L16 16L17 16L17 18L15 18L15 19L17 19L17 18L19 18L19 16L17 16L17 15L19 15L19 14L17 14L17 15L16 15L16 14L15 14L15 13L16 13L16 12L14 12L14 10L15 10L15 11L16 11L16 10L17 10L17 13L20 13L20 12L21 12L21 11L20 11L20 10L22 10L22 9L23 9L23 10L24 10L24 8L21 8L21 9L20 9L20 7L21 7L21 5L20 5L20 4L21 4L21 3L20 3L20 4L19 4L19 3L18 3L18 4L17 4L17 2L16 2L16 1L17 1L17 0L15 0L15 2L14 2L14 4L13 4L13 1L14 1L14 0ZM9 1L9 2L10 2L10 1ZM18 1L18 2L19 2L19 1ZM20 1L20 2L21 2L21 1ZM15 2L15 4L16 4L16 5L15 5L15 8L16 8L16 6L17 6L17 7L18 7L18 6L19 6L19 7L20 7L20 6L19 6L19 5L18 5L18 6L17 6L17 4L16 4L16 2ZM11 3L11 4L10 4L10 5L11 5L11 7L10 7L10 6L9 6L9 7L10 7L10 8L9 8L9 9L10 9L10 8L11 8L11 9L12 9L12 6L13 6L13 8L14 8L14 5L13 5L13 4L12 4L12 3ZM11 4L11 5L12 5L12 4ZM17 8L17 9L19 9L19 10L20 10L20 9L19 9L19 8ZM6 9L6 10L7 10L7 9ZM15 9L15 10L16 10L16 9ZM26 10L26 11L27 11L27 10ZM4 11L4 12L5 12L5 11ZM6 11L6 12L7 12L7 11ZM18 11L18 12L19 12L19 11ZM25 12L25 13L26 13L26 14L27 14L27 12ZM6 15L6 16L7 16L7 15ZM15 15L15 16L16 16L16 15ZM25 15L25 16L27 16L27 15ZM20 16L20 17L22 17L22 16ZM8 18L8 19L9 19L9 18ZM18 19L18 20L19 20L19 19ZM25 19L25 21L26 21L26 22L27 22L27 21L28 21L28 20L26 20L26 19ZM14 21L14 22L13 22L13 23L12 23L12 22L10 22L10 23L11 23L11 24L13 24L13 26L14 26L14 25L15 25L15 26L18 26L18 27L19 27L19 28L22 28L22 27L21 27L21 26L20 26L20 27L19 27L19 25L16 25L16 23L17 23L17 22L16 22L16 21ZM21 21L21 24L24 24L24 21ZM22 22L22 23L23 23L23 22ZM13 23L13 24L14 24L14 23ZM8 24L8 27L9 27L9 28L10 28L10 29L11 29L11 28L10 28L10 27L11 27L11 26L10 26L10 25L9 25L9 24ZM22 25L22 26L23 26L23 27L25 27L25 26L26 26L26 25L25 25L25 26L24 26L24 25ZM9 26L9 27L10 27L10 26ZM14 27L14 28L15 28L15 27ZM0 0L0 7L7 7L7 0ZM1 1L1 6L6 6L6 1ZM2 2L2 5L5 5L5 2ZM22 0L22 7L29 7L29 0ZM23 1L23 6L28 6L28 1ZM24 2L24 5L27 5L27 2ZM0 22L0 29L7 29L7 22ZM1 23L1 28L6 28L6 23ZM2 24L2 27L5 27L5 24Z" fill="#000000"/></g></g></svg>
