<?xml version="1.0" encoding="UTF-8"?>
<svg xmlns="http://www.w3.org/2000/svg" version="1.1" width="200" height="200" viewBox="0 0 200 200"><rect x="0" y="0" width="200" height="200" fill="#ffffff"/><g transform="scale(6.897)"><g transform="translate(0,0)"><path fill-rule="evenodd" d="M8 0L8 1L9 1L9 2L11 2L11 3L10 3L10 5L9 5L9 6L8 6L8 7L9 7L9 6L10 6L10 7L11 7L11 8L8 8L8 9L7 9L7 8L4 8L4 9L3 9L3 8L2 8L2 11L0 11L0 14L1 14L1 15L0 15L0 16L1 16L1 15L2 15L2 17L1 17L1 18L0 18L0 19L1 19L1 20L0 20L0 21L1 21L1 20L2 20L2 19L3 19L3 21L8 21L8 22L9 22L9 21L10 21L10 20L11 20L11 21L12 21L12 22L16 22L16 23L15 23L15 24L14 24L14 25L15 25L15 24L17 24L17 25L19 25L19 24L20 24L20 26L17 26L17 27L15 27L15 26L13 26L13 27L15 27L15 29L18 29L18 28L19 28L19 29L20 29L20 27L21 27L21 26L22 26L22 25L23 25L23 26L24 26L24 25L27 25L27 26L25 26L25 28L23 28L23 27L22 27L22 28L23 28L23 29L26 29L26 28L28 28L28 29L29 29L29 26L28 26L28 25L27 25L27 24L28 24L28 23L29 23L29 22L28 22L28 19L29 19L29 18L27 18L27 17L26 17L26 14L24 14L24 13L25 13L25 11L26 11L26 13L27 13L27 14L28 14L28 15L27 15L27 16L28 16L28 17L29 17L29 16L28 16L28 15L29 15L29 14L28 14L28 13L29 13L29 12L28 12L28 11L29 11L29 8L28 8L28 9L26 9L26 8L25 8L25 9L24 9L24 10L25 10L25 11L24 11L24 12L23 12L23 10L22 10L22 8L21 8L21 0L20 0L20 1L19 1L19 2L20 2L20 3L19 3L19 4L18 4L18 3L17 3L17 2L18 2L18 1L16 1L16 4L14 4L14 3L13 3L13 2L14 2L14 1L15 1L15 0L14 0L14 1L11 1L11 0ZM8 3L8 4L9 4L9 3ZM12 3L12 4L11 4L11 5L12 5L12 6L11 6L11 7L12 7L12 6L13 6L13 7L14 7L14 9L13 9L13 8L12 8L12 10L11 10L11 9L9 9L9 10L11 10L11 11L8 11L8 13L5 13L5 11L6 11L6 12L7 12L7 11L6 11L6 10L7 10L7 9L6 9L6 10L5 10L5 9L4 9L4 11L2 11L2 12L4 12L4 13L3 13L3 14L2 14L2 15L3 15L3 19L4 19L4 20L10 20L10 19L11 19L11 17L9 17L9 18L8 18L8 16L10 16L10 15L9 15L9 13L10 13L10 12L12 12L12 13L11 13L11 16L12 16L12 19L13 19L13 20L12 20L12 21L13 21L13 20L16 20L16 21L17 21L17 24L19 24L19 23L20 23L20 22L19 22L19 23L18 23L18 19L20 19L20 20L19 20L19 21L20 21L20 20L21 20L21 19L22 19L22 18L23 18L23 19L24 19L24 20L25 20L25 23L26 23L26 24L27 24L27 21L26 21L26 20L27 20L27 19L24 19L24 18L26 18L26 17L24 17L24 16L25 16L25 15L24 15L24 14L23 14L23 15L22 15L22 14L21 14L21 13L20 13L20 14L18 14L18 13L16 13L16 12L17 12L17 11L18 11L18 12L20 12L20 11L18 11L18 10L19 10L19 9L20 9L20 5L19 5L19 7L18 7L18 5L14 5L14 4L13 4L13 3ZM12 4L12 5L13 5L13 4ZM14 6L14 7L15 7L15 6ZM16 6L16 9L17 9L17 10L18 10L18 9L17 9L17 6ZM25 9L25 10L26 10L26 11L28 11L28 10L26 10L26 9ZM13 10L13 12L14 12L14 13L13 13L13 14L14 14L14 15L12 15L12 16L15 16L15 17L17 17L17 16L18 16L18 17L19 17L19 18L20 18L20 17L19 17L19 16L20 16L20 15L21 15L21 14L20 14L20 15L15 15L15 14L14 14L14 13L15 13L15 12L16 12L16 10L15 10L15 12L14 12L14 10ZM21 11L21 12L22 12L22 11ZM27 12L27 13L28 13L28 12ZM4 13L4 14L3 14L3 15L4 15L4 14L5 14L5 16L4 16L4 18L5 18L5 19L7 19L7 18L6 18L6 17L7 17L7 16L8 16L8 14L5 14L5 13ZM6 15L6 16L5 16L5 17L6 17L6 16L7 16L7 15ZM23 15L23 16L22 16L22 17L23 17L23 18L24 18L24 17L23 17L23 16L24 16L24 15ZM1 18L1 19L2 19L2 18ZM16 18L16 20L17 20L17 18ZM21 21L21 24L24 24L24 21ZM10 22L10 23L8 23L8 25L9 25L9 26L8 26L8 27L9 27L9 28L10 28L10 29L11 29L11 27L12 27L12 26L11 26L11 27L9 27L9 26L10 26L10 25L13 25L13 24L11 24L11 22ZM22 22L22 23L23 23L23 22ZM27 26L27 27L28 27L28 26ZM17 27L17 28L18 28L18 27ZM13 28L13 29L14 29L14 28ZM0 0L0 7L7 7L7 0ZM1 1L1 6L6 6L6 1ZM2 2L2 5L5 5L5 2ZM22 0L22 7L29 7L29 0ZM23 1L23 6L28 6L28 1ZM24 2L24 5L27 5L27 2ZM0 22L0 29L7 29L7 22ZM1 23L1 28L6 28L6 23ZM2 24L2 27L5 27L5 24Z" fill="#000000"/></g></g></svg>
