<?xml version="1.0" encoding="UTF-8"?>
<svg xmlns="http://www.w3.org/2000/svg" version="1.1" width="200" height="200" viewBox="0 0 200 200"><rect x="0" y="0" width="200" height="200" fill="#ffffff"/><g transform="scale(4.878)"><g transform="translate(0,0)"><path fill-rule="evenodd" d="M8 0L8 3L10 3L10 4L9 4L9 5L8 5L8 10L6 10L6 9L7 9L7 8L6 8L6 9L5 9L5 8L2 8L2 9L1 9L1 10L0 10L0 11L1 11L1 10L2 10L2 11L3 11L3 10L2 10L2 9L4 9L4 11L5 11L5 12L6 12L6 13L7 13L7 14L6 14L6 15L5 15L5 13L4 13L4 12L0 12L0 13L4 13L4 14L3 14L3 15L2 15L2 17L0 17L0 18L2 18L2 17L5 17L5 18L4 18L4 21L2 21L2 23L1 23L1 25L7 25L7 26L6 26L6 27L5 27L5 28L4 28L4 26L3 26L3 28L4 28L4 29L3 29L3 30L4 30L4 31L2 31L2 33L3 33L3 32L4 32L4 33L5 33L5 32L6 32L6 33L8 33L8 34L9 34L9 33L10 33L10 34L11 34L11 35L12 35L12 31L13 31L13 32L14 32L14 31L17 31L17 33L16 33L16 32L15 32L15 33L14 33L14 34L13 34L13 35L14 35L14 36L11 36L11 37L10 37L10 40L9 40L9 41L11 41L11 40L12 40L12 41L13 41L13 39L15 39L15 40L14 40L14 41L15 41L15 40L17 40L17 41L18 41L18 40L17 40L17 39L19 39L19 38L20 38L20 40L21 40L21 37L22 37L22 33L23 33L23 32L22 32L22 29L23 29L23 28L24 28L24 29L25 29L25 30L24 30L24 32L25 32L25 33L28 33L28 34L23 34L23 36L25 36L25 37L24 37L24 38L27 38L27 39L28 39L28 38L27 38L27 37L29 37L29 36L32 36L32 37L36 37L36 38L32 38L32 40L27 40L27 41L32 41L32 40L33 40L33 41L34 41L34 40L33 40L33 39L35 39L35 40L36 40L36 39L37 39L37 40L40 40L40 38L41 38L41 37L39 37L39 36L37 36L37 35L38 35L38 33L39 33L39 35L40 35L40 36L41 36L41 35L40 35L40 34L41 34L41 33L40 33L40 32L38 32L38 31L40 31L40 30L41 30L41 29L39 29L39 30L38 30L38 29L36 29L36 28L38 28L38 26L39 26L39 28L40 28L40 26L41 26L41 23L39 23L39 22L38 22L38 21L39 21L39 20L38 20L38 17L39 17L39 16L37 16L37 15L39 15L39 14L41 14L41 13L40 13L40 12L41 12L41 11L40 11L40 10L41 10L41 8L38 8L38 9L40 9L40 10L37 10L37 9L36 9L36 8L33 8L33 5L32 5L32 4L33 4L33 2L32 2L32 4L30 4L30 5L29 5L29 4L28 4L28 5L27 5L27 4L24 4L24 3L25 3L25 0L23 0L23 1L22 1L22 2L23 2L23 1L24 1L24 3L22 3L22 4L19 4L19 3L18 3L18 4L19 4L19 5L18 5L18 8L17 8L17 6L16 6L16 5L17 5L17 2L16 2L16 1L17 1L17 0L16 0L16 1L15 1L15 0L14 0L14 1L13 1L13 0L12 0L12 4L11 4L11 2L10 2L10 1L9 1L9 0ZM26 0L26 1L27 1L27 2L26 2L26 3L31 3L31 2L30 2L30 0L29 0L29 1L27 1L27 0ZM31 0L31 1L32 1L32 0ZM14 1L14 2L15 2L15 3L16 3L16 2L15 2L15 1ZM19 1L19 2L20 2L20 3L21 3L21 2L20 2L20 1ZM13 3L13 4L12 4L12 6L11 6L11 7L12 7L12 8L10 8L10 5L11 5L11 4L10 4L10 5L9 5L9 8L10 8L10 9L12 9L12 8L13 8L13 7L14 7L14 3ZM15 4L15 5L16 5L16 4ZM22 4L22 6L21 6L21 7L22 7L22 6L23 6L23 8L25 8L25 9L26 9L26 10L24 10L24 14L22 14L22 13L23 13L23 12L22 12L22 11L23 11L23 10L21 10L21 12L20 12L20 13L18 13L18 11L20 11L20 10L18 10L18 11L17 11L17 13L16 13L16 10L17 10L17 8L16 8L16 10L15 10L15 9L13 9L13 10L15 10L15 13L14 13L14 12L13 12L13 11L12 11L12 12L11 12L11 13L10 13L10 16L9 16L9 15L6 15L6 16L5 16L5 17L6 17L6 18L8 18L8 17L10 17L10 19L5 19L5 20L10 20L10 21L11 21L11 22L12 22L12 24L10 24L10 26L11 26L11 25L12 25L12 24L13 24L13 26L12 26L12 27L11 27L11 28L10 28L10 27L9 27L9 28L8 28L8 26L9 26L9 25L8 25L8 24L9 24L9 22L8 22L8 21L6 21L6 22L5 22L5 24L7 24L7 25L8 25L8 26L7 26L7 27L6 27L6 28L5 28L5 29L4 29L4 30L5 30L5 31L4 31L4 32L5 32L5 31L6 31L6 32L8 32L8 33L9 33L9 31L6 31L6 30L7 30L7 29L8 29L8 30L10 30L10 31L11 31L11 28L12 28L12 30L15 30L15 29L16 29L16 28L18 28L18 29L17 29L17 31L19 31L19 30L20 30L20 32L21 32L21 30L20 30L20 28L18 28L18 27L17 27L17 26L16 26L16 25L18 25L18 26L20 26L20 27L21 27L21 28L22 28L22 26L23 26L23 25L22 25L22 24L23 24L23 23L26 23L26 24L24 24L24 26L29 26L29 27L26 27L26 29L27 29L27 28L30 28L30 29L31 29L31 30L32 30L32 31L33 31L33 32L36 32L36 31L37 31L37 30L36 30L36 29L35 29L35 27L37 27L37 26L34 26L34 25L39 25L39 26L40 26L40 24L39 24L39 23L37 23L37 24L36 24L36 23L33 23L33 22L34 22L34 21L35 21L35 22L36 22L36 21L35 21L35 19L36 19L36 20L37 20L37 21L38 21L38 20L37 20L37 18L36 18L36 17L37 17L37 16L36 16L36 17L35 17L35 15L36 15L36 13L38 13L38 14L39 14L39 12L40 12L40 11L38 11L38 12L36 12L36 11L37 11L37 10L36 10L36 9L35 9L35 13L34 13L34 12L33 12L33 11L34 11L34 9L33 9L33 8L32 8L32 5L31 5L31 7L30 7L30 6L29 6L29 5L28 5L28 6L27 6L27 5L25 5L25 7L24 7L24 6L23 6L23 4ZM19 5L19 7L20 7L20 5ZM12 6L12 7L13 7L13 6ZM15 6L15 7L16 7L16 6ZM26 6L26 8L27 8L27 9L31 9L31 10L30 10L30 11L31 11L31 10L32 10L32 11L33 11L33 9L31 9L31 8L29 8L29 6L28 6L28 7L27 7L27 6ZM19 8L19 9L20 9L20 8ZM5 10L5 11L6 11L6 12L9 12L9 11L6 11L6 10ZM26 10L26 12L27 12L27 14L30 14L30 16L29 16L29 15L28 15L28 16L29 16L29 17L31 17L31 18L30 18L30 19L31 19L31 18L34 18L34 19L35 19L35 17L34 17L34 16L33 16L33 17L31 17L31 12L29 12L29 10ZM28 12L28 13L29 13L29 12ZM32 12L32 13L33 13L33 14L32 14L32 15L34 15L34 13L33 13L33 12ZM12 13L12 16L11 16L11 17L14 17L14 18L16 18L16 19L17 19L17 18L18 18L18 19L19 19L19 20L20 20L20 21L22 21L22 22L19 22L19 21L18 21L18 20L17 20L17 22L18 22L18 23L16 23L16 22L15 22L15 21L16 21L16 20L15 20L15 19L14 19L14 20L13 20L13 23L14 23L14 24L15 24L15 23L16 23L16 24L21 24L21 23L22 23L22 22L23 22L23 21L24 21L24 20L23 20L23 21L22 21L22 19L23 19L23 18L24 18L24 19L25 19L25 21L26 21L26 22L27 22L27 24L26 24L26 25L27 25L27 24L28 24L28 25L29 25L29 26L30 26L30 25L31 25L31 26L32 26L32 25L34 25L34 24L33 24L33 23L32 23L32 25L31 25L31 22L32 22L32 21L34 21L34 20L33 20L33 19L32 19L32 21L31 21L31 20L30 20L30 21L28 21L28 20L27 20L27 21L26 21L26 19L28 19L28 18L25 18L25 17L27 17L27 15L26 15L26 16L25 16L25 15L21 15L21 14L19 14L19 15L18 15L18 14L17 14L17 15L16 15L16 14L15 14L15 15L13 15L13 14L14 14L14 13ZM0 14L0 16L1 16L1 14ZM15 15L15 16L16 16L16 15ZM19 15L19 16L18 16L18 17L19 17L19 19L20 19L20 20L21 20L21 18L22 18L22 17L21 17L21 16L20 16L20 15ZM6 16L6 17L8 17L8 16ZM19 16L19 17L20 17L20 16ZM24 16L24 17L25 17L25 16ZM40 16L40 18L39 18L39 19L40 19L40 18L41 18L41 16ZM12 18L12 19L13 19L13 18ZM1 19L1 20L3 20L3 19ZM10 19L10 20L11 20L11 21L12 21L12 20L11 20L11 19ZM14 20L14 21L15 21L15 20ZM40 20L40 21L41 21L41 20ZM0 21L0 22L1 22L1 21ZM27 21L27 22L28 22L28 21ZM30 21L30 22L29 22L29 23L28 23L28 24L30 24L30 22L31 22L31 21ZM6 22L6 23L7 23L7 24L8 24L8 23L7 23L7 22ZM14 22L14 23L15 23L15 22ZM3 23L3 24L4 24L4 23ZM14 25L14 26L13 26L13 29L15 29L15 28L16 28L16 26L15 26L15 25ZM20 25L20 26L22 26L22 25ZM1 26L1 27L0 27L0 28L1 28L1 29L0 29L0 33L1 33L1 29L2 29L2 26ZM33 26L33 27L34 27L34 26ZM31 27L31 28L32 28L32 27ZM6 28L6 29L7 29L7 28ZM9 28L9 29L10 29L10 28ZM33 28L33 29L32 29L32 30L33 30L33 29L34 29L34 28ZM28 29L28 30L29 30L29 31L28 31L28 33L29 33L29 32L31 32L31 31L30 31L30 30L29 30L29 29ZM26 30L26 32L27 32L27 30ZM34 30L34 31L36 31L36 30ZM37 32L37 33L38 33L38 32ZM15 33L15 34L16 34L16 33ZM17 33L17 34L18 34L18 36L17 36L17 35L16 35L16 36L17 36L17 38L16 38L16 39L17 39L17 38L19 38L19 37L18 37L18 36L21 36L21 35L19 35L19 33ZM20 33L20 34L21 34L21 33ZM30 33L30 35L31 35L31 34L32 34L32 33ZM33 33L33 36L36 36L36 33ZM34 34L34 35L35 35L35 34ZM26 35L26 36L28 36L28 35ZM8 36L8 39L9 39L9 36ZM30 37L30 39L31 39L31 37ZM11 38L11 39L12 39L12 38ZM37 38L37 39L38 39L38 38ZM23 39L23 41L24 41L24 39ZM25 39L25 41L26 41L26 39ZM0 0L0 7L7 7L7 0ZM1 1L1 6L6 6L6 1ZM2 2L2 5L5 5L5 2ZM34 0L34 7L41 7L41 0ZM35 1L35 6L40 6L40 1ZM36 2L36 5L39 5L39 2ZM0 34L0 41L7 41L7 34ZM1 35L1 40L6 40L6 35ZM2 36L2 39L5 39L5 36Z" fill="#000000"/></g></g></svg>
