<?xml version="1.0" encoding="UTF-8"?>
<svg xmlns="http://www.w3.org/2000/svg" version="1.1" width="200" height="200" viewBox="0 0 200 200"><rect x="0" y="0" width="200" height="200" fill="#ffffff"/><g transform="scale(4.878)"><g transform="translate(0,0)"><path fill-rule="evenodd" d="M8 0L8 3L9 3L9 5L8 5L8 9L7 9L7 8L6 8L6 9L7 9L7 10L6 10L6 11L7 11L7 12L5 12L5 13L4 13L4 14L3 14L3 13L2 13L2 12L0 12L0 13L1 13L1 14L2 14L2 15L0 15L0 17L2 17L2 18L3 18L3 20L2 20L2 19L1 19L1 18L0 18L0 20L1 20L1 21L0 21L0 27L1 27L1 23L2 23L2 24L4 24L4 25L2 25L2 28L4 28L4 26L6 26L6 27L7 27L7 28L5 28L5 30L4 30L4 29L3 29L3 30L4 30L4 31L3 31L3 32L4 32L4 33L5 33L5 30L6 30L6 31L7 31L7 32L6 32L6 33L8 33L8 34L9 34L9 33L10 33L10 31L11 31L11 30L12 30L12 31L13 31L13 30L15 30L15 32L16 32L16 34L14 34L14 32L11 32L11 34L10 34L10 35L11 35L11 36L8 36L8 39L9 39L9 38L10 38L10 37L11 37L11 36L12 36L12 38L11 38L11 39L10 39L10 40L11 40L11 41L12 41L12 40L11 40L11 39L12 39L12 38L14 38L14 37L13 37L13 36L16 36L16 37L17 37L17 36L19 36L19 35L16 35L16 34L18 34L18 33L19 33L19 31L18 31L18 30L19 30L19 29L22 29L22 28L23 28L23 26L22 26L22 23L23 23L23 21L26 21L26 22L25 22L25 23L29 23L29 22L27 22L27 21L29 21L29 19L28 19L28 18L27 18L27 14L29 14L29 15L28 15L28 16L29 16L29 17L31 17L31 18L30 18L30 19L31 19L31 18L34 18L34 19L35 19L35 21L34 21L34 20L33 20L33 19L32 19L32 21L31 21L31 20L30 20L30 21L31 21L31 22L30 22L30 23L31 23L31 24L32 24L32 25L30 25L30 24L27 24L27 25L29 25L29 26L27 26L27 27L29 27L29 26L32 26L32 25L33 25L33 27L32 27L32 28L33 28L33 29L32 29L32 30L31 30L31 31L30 31L30 30L28 30L28 29L31 29L31 28L26 28L26 27L24 27L24 28L25 28L25 29L23 29L23 31L22 31L22 30L21 30L21 31L22 31L22 32L24 32L24 33L23 33L23 34L21 34L21 33L20 33L20 34L21 34L21 35L23 35L23 34L24 34L24 35L25 35L25 37L26 37L26 38L24 38L24 41L25 41L25 39L26 39L26 40L28 40L28 41L32 41L32 40L33 40L33 41L34 41L34 40L33 40L33 39L35 39L35 40L36 40L36 39L37 39L37 40L40 40L40 38L41 38L41 37L40 37L40 36L41 36L41 35L40 35L40 34L41 34L41 33L39 33L39 32L37 32L37 31L36 31L36 30L37 30L37 29L35 29L35 30L34 30L34 31L36 31L36 32L33 32L33 31L32 31L32 30L33 30L33 29L34 29L34 28L33 28L33 27L34 27L34 26L36 26L36 27L35 27L35 28L38 28L38 26L39 26L39 29L38 29L38 30L39 30L39 31L40 31L40 30L41 30L41 29L40 29L40 26L41 26L41 23L39 23L39 24L40 24L40 26L39 26L39 25L33 25L33 24L34 24L34 23L33 23L33 24L32 24L32 23L31 23L31 22L32 22L32 21L34 21L34 22L35 22L35 23L36 23L36 24L37 24L37 22L38 22L38 21L39 21L39 20L36 20L36 19L35 19L35 17L36 17L36 18L37 18L37 17L39 17L39 18L38 18L38 19L39 19L39 18L41 18L41 16L40 16L40 17L39 17L39 16L37 16L37 15L39 15L39 14L41 14L41 13L40 13L40 12L41 12L41 11L40 11L40 10L41 10L41 8L38 8L38 9L40 9L40 10L37 10L37 9L36 9L36 8L33 8L33 9L32 9L32 8L29 8L29 4L28 4L28 5L27 5L27 4L26 4L26 5L27 5L27 6L26 6L26 7L25 7L25 6L24 6L24 7L23 7L23 6L22 6L22 7L21 7L21 6L20 6L20 7L21 7L21 8L18 8L18 7L19 7L19 6L18 6L18 7L17 7L17 6L16 6L16 7L15 7L15 4L17 4L17 3L15 3L15 2L16 2L16 0L15 0L15 2L14 2L14 3L15 3L15 4L14 4L14 7L13 7L13 3L12 3L12 2L11 2L11 1L14 1L14 0ZM17 0L17 2L19 2L19 1L20 1L20 3L18 3L18 4L19 4L19 5L20 5L20 3L21 3L21 5L23 5L23 4L24 4L24 5L25 5L25 1L23 1L23 2L21 2L21 1L20 1L20 0ZM26 0L26 1L27 1L27 2L26 2L26 3L33 3L33 2L30 2L30 1L33 1L33 0L29 0L29 1L27 1L27 0ZM23 2L23 3L24 3L24 2ZM10 3L10 5L9 5L9 10L8 10L8 12L9 12L9 13L8 13L8 14L10 14L10 15L8 15L8 16L10 16L10 15L11 15L11 16L14 16L14 15L15 15L15 16L16 16L16 15L15 15L15 14L17 14L17 15L18 15L18 14L17 14L17 13L15 13L15 11L18 11L18 10L14 10L14 8L15 8L15 9L18 9L18 8L15 8L15 7L14 7L14 8L13 8L13 9L12 9L12 8L11 8L11 9L10 9L10 6L11 6L11 7L12 7L12 6L11 6L11 3ZM30 4L30 7L31 7L31 5L32 5L32 7L33 7L33 4ZM27 6L27 8L28 8L28 9L27 9L27 10L28 10L28 9L29 9L29 10L31 10L31 11L28 11L28 13L29 13L29 14L30 14L30 15L29 15L29 16L30 16L30 15L31 15L31 17L33 17L33 16L34 16L34 17L35 17L35 15L37 15L37 14L39 14L39 11L38 11L38 12L35 12L35 13L34 13L34 12L33 12L33 11L34 11L34 10L33 10L33 11L32 11L32 10L31 10L31 9L29 9L29 8L28 8L28 6ZM2 8L2 10L3 10L3 12L4 12L4 11L5 11L5 8ZM21 8L21 9L22 9L22 11L21 11L21 10L19 10L19 11L21 11L21 12L19 12L19 13L22 13L22 14L23 14L23 13L24 13L24 14L26 14L26 13L27 13L27 12L25 12L25 13L24 13L24 12L23 12L23 10L24 10L24 11L25 11L25 9L26 9L26 8L25 8L25 9L24 9L24 8L23 8L23 9L22 9L22 8ZM0 10L0 11L1 11L1 10ZM10 10L10 11L11 11L11 13L13 13L13 12L12 12L12 11L11 11L11 10ZM13 10L13 11L14 11L14 10ZM35 10L35 11L36 11L36 10ZM22 12L22 13L23 13L23 12ZM29 12L29 13L30 13L30 14L31 14L31 13L33 13L33 14L32 14L32 15L34 15L34 13L33 13L33 12ZM6 13L6 14L7 14L7 13ZM36 13L36 14L37 14L37 13ZM4 14L4 15L2 15L2 17L3 17L3 18L4 18L4 16L5 16L5 17L6 17L6 18L7 18L7 17L6 17L6 16L7 16L7 15L5 15L5 14ZM11 14L11 15L12 15L12 14ZM13 14L13 15L14 15L14 14ZM19 14L19 15L20 15L20 16L19 16L19 20L18 20L18 19L17 19L17 20L16 20L16 21L15 21L15 20L14 20L14 19L15 19L15 17L14 17L14 18L11 18L11 17L8 17L8 19L9 19L9 18L11 18L11 19L13 19L13 20L14 20L14 21L13 21L13 22L12 22L12 21L11 21L11 23L13 23L13 24L12 24L12 26L13 26L13 24L14 24L14 25L17 25L17 27L18 27L18 25L20 25L20 26L19 26L19 28L17 28L17 30L18 30L18 29L19 29L19 28L20 28L20 26L21 26L21 27L22 27L22 26L21 26L21 25L20 25L20 22L21 22L21 23L22 23L22 21L23 21L23 20L24 20L24 18L25 18L25 20L26 20L26 17L24 17L24 16L25 16L25 15L20 15L20 14ZM17 16L17 17L16 17L16 18L18 18L18 16ZM36 16L36 17L37 17L37 16ZM20 17L20 18L21 18L21 20L20 20L20 21L18 21L18 20L17 20L17 22L16 22L16 23L14 23L14 24L16 24L16 23L17 23L17 24L19 24L19 23L17 23L17 22L20 22L20 21L22 21L22 19L23 19L23 18L24 18L24 17L22 17L22 18L21 18L21 17ZM4 19L4 20L3 20L3 21L1 21L1 22L2 22L2 23L4 23L4 24L5 24L5 23L6 23L6 24L7 24L7 25L6 25L6 26L7 26L7 27L8 27L8 28L7 28L7 29L6 29L6 30L7 30L7 31L8 31L8 32L9 32L9 31L10 31L10 30L11 30L11 29L12 29L12 30L13 30L13 29L14 29L14 28L15 28L15 29L16 29L16 26L14 26L14 28L13 28L13 27L11 27L11 24L10 24L10 20L7 20L7 19L6 19L6 20L5 20L5 19ZM27 19L27 20L28 20L28 19ZM4 20L4 21L3 21L3 22L4 22L4 21L5 21L5 20ZM6 20L6 21L7 21L7 22L6 22L6 23L7 23L7 22L9 22L9 21L7 21L7 20ZM40 20L40 21L41 21L41 20ZM35 21L35 22L36 22L36 21ZM9 24L9 25L10 25L10 24ZM24 24L24 26L25 26L25 24ZM8 26L8 27L9 27L9 28L8 28L8 29L9 29L9 30L8 30L8 31L9 31L9 30L10 30L10 29L11 29L11 27L10 27L10 26ZM0 29L0 33L1 33L1 30L2 30L2 29ZM25 29L25 30L24 30L24 31L25 31L25 30L26 30L26 32L25 32L25 34L26 34L26 36L27 36L27 34L28 34L28 33L29 33L29 32L30 32L30 31L28 31L28 33L27 33L27 29ZM26 33L26 34L27 34L27 33ZM30 33L30 35L31 35L31 34L32 34L32 33ZM33 33L33 36L36 36L36 33ZM38 33L38 34L37 34L37 36L40 36L40 35L39 35L39 33ZM11 34L11 35L12 35L12 34ZM34 34L34 35L35 35L35 34ZM28 35L28 36L29 36L29 37L27 37L27 38L26 38L26 39L27 39L27 38L29 38L29 39L28 39L28 40L32 40L32 39L33 39L33 38L36 38L36 37L33 37L33 38L32 38L32 36L29 36L29 35ZM20 36L20 37L19 37L19 38L18 38L18 39L20 39L20 40L18 40L18 41L20 41L20 40L21 40L21 39L20 39L20 37L21 37L21 38L22 38L22 40L23 40L23 38L22 38L22 36ZM23 36L23 37L24 37L24 36ZM30 37L30 38L31 38L31 37ZM15 38L15 39L14 39L14 40L13 40L13 41L15 41L15 39L17 39L17 38ZM37 38L37 39L38 39L38 38ZM0 0L0 7L7 7L7 0ZM1 1L1 6L6 6L6 1ZM2 2L2 5L5 5L5 2ZM34 0L34 7L41 7L41 0ZM35 1L35 6L40 6L40 1ZM36 2L36 5L39 5L39 2ZM0 34L0 41L7 41L7 34ZM1 35L1 40L6 40L6 35ZM2 36L2 39L5 39L5 36Z" fill="#000000"/></g></g></svg>
