<?xml version="1.0" encoding="UTF-8"?>
<svg xmlns="http://www.w3.org/2000/svg" version="1.1" width="200" height="200" viewBox="0 0 200 200"><rect x="0" y="0" width="200" height="200" fill="#ffffff"/><g transform="scale(4.878)"><g transform="translate(0,0)"><path fill-rule="evenodd" d="M8 0L8 3L9 3L9 4L11 4L11 3L12 3L12 0L11 0L11 1L9 1L9 0ZM14 0L14 4L13 4L13 5L11 5L11 6L10 6L10 7L9 7L9 5L8 5L8 10L6 10L6 11L5 11L5 12L3 12L3 9L5 9L5 8L2 8L2 9L0 9L0 11L1 11L1 13L0 13L0 17L2 17L2 18L3 18L3 19L1 19L1 21L0 21L0 22L2 22L2 24L1 24L1 25L0 25L0 28L1 28L1 27L2 27L2 28L3 28L3 26L4 26L4 27L5 27L5 29L7 29L7 30L5 30L5 31L4 31L4 30L3 30L3 32L2 32L2 33L4 33L4 32L6 32L6 33L8 33L8 34L9 34L9 32L8 32L8 31L9 31L9 30L10 30L10 32L11 32L11 34L10 34L10 36L8 36L8 39L10 39L10 38L9 38L9 37L11 37L11 38L13 38L13 39L11 39L11 40L9 40L9 41L12 41L12 40L14 40L14 41L16 41L16 40L17 40L17 38L18 38L18 37L17 37L17 38L16 38L16 37L15 37L15 35L18 35L18 36L19 36L19 35L21 35L21 36L20 36L20 39L19 39L19 40L20 40L20 41L21 41L21 40L22 40L22 41L27 41L27 40L28 40L28 41L31 41L31 40L33 40L33 41L34 41L34 40L33 40L33 39L35 39L35 40L36 40L36 39L37 39L37 40L40 40L40 38L41 38L41 36L37 36L37 35L40 35L40 34L41 34L41 33L39 33L39 32L38 32L38 31L36 31L36 30L37 30L37 29L35 29L35 30L34 30L34 31L36 31L36 32L33 32L33 31L32 31L32 30L33 30L33 29L34 29L34 28L33 28L33 27L34 27L34 26L35 26L35 28L38 28L38 26L39 26L39 27L40 27L40 26L41 26L41 23L39 23L39 22L38 22L38 21L39 21L39 20L38 20L38 19L37 19L37 20L36 20L36 19L35 19L35 17L36 17L36 18L37 18L37 17L39 17L39 16L37 16L37 15L38 15L38 14L37 14L37 13L36 13L36 14L35 14L35 15L36 15L36 16L35 16L35 17L34 17L34 16L32 16L32 17L31 17L31 16L29 16L29 15L28 15L28 16L29 16L29 17L31 17L31 18L30 18L30 19L31 19L31 18L32 18L32 17L33 17L33 18L34 18L34 19L35 19L35 21L34 21L34 20L33 20L33 19L32 19L32 21L31 21L31 20L30 20L30 21L31 21L31 22L30 22L30 23L31 23L31 24L29 24L29 23L28 23L28 22L29 22L29 21L28 21L28 20L29 20L29 19L28 19L28 18L27 18L27 15L26 15L26 14L29 14L29 13L30 13L30 14L31 14L31 12L29 12L29 13L28 13L28 12L27 12L27 13L26 13L26 11L28 11L28 10L24 10L24 11L22 11L22 8L23 8L23 6L24 6L24 7L25 7L25 8L24 8L24 9L25 9L25 8L26 8L26 9L31 9L31 10L30 10L30 11L31 11L31 10L33 10L33 9L34 9L34 11L33 11L33 12L32 12L32 13L33 13L33 14L32 14L32 15L34 15L34 13L35 13L35 12L38 12L38 11L40 11L40 12L41 12L41 11L40 11L40 10L41 10L41 8L38 8L38 9L40 9L40 10L37 10L37 9L36 9L36 8L33 8L33 9L32 9L32 8L29 8L29 6L28 6L28 5L27 5L27 4L25 4L25 5L24 5L24 3L22 3L22 2L18 2L18 1L19 1L19 0L18 0L18 1L17 1L17 0ZM20 0L20 1L21 1L21 0ZM23 0L23 2L25 2L25 0ZM26 0L26 1L27 1L27 2L26 2L26 3L28 3L28 4L29 4L29 3L31 3L31 2L30 2L30 1L32 1L32 2L33 2L33 0L29 0L29 1L27 1L27 0ZM16 1L16 2L15 2L15 4L14 4L14 5L16 5L16 6L15 6L15 7L14 7L14 6L13 6L13 8L15 8L15 9L17 9L17 10L15 10L15 11L16 11L16 13L17 13L17 14L14 14L14 16L13 16L13 13L12 13L12 14L10 14L10 12L11 12L11 10L10 10L10 9L9 9L9 10L10 10L10 11L9 11L9 12L7 12L7 11L6 11L6 12L5 12L5 14L4 14L4 15L1 15L1 16L3 16L3 17L4 17L4 16L5 16L5 14L8 14L8 15L6 15L6 16L8 16L8 19L5 19L5 18L7 18L7 17L5 17L5 18L4 18L4 20L2 20L2 21L3 21L3 24L2 24L2 25L3 25L3 24L5 24L5 25L4 25L4 26L5 26L5 25L6 25L6 26L7 26L7 27L6 27L6 28L7 28L7 29L9 29L9 28L10 28L10 26L9 26L9 28L8 28L8 25L10 25L10 24L8 24L8 22L7 22L7 21L9 21L9 23L11 23L11 24L12 24L12 25L13 25L13 23L11 23L11 21L10 21L10 20L13 20L13 21L12 21L12 22L13 22L13 21L14 21L14 23L15 23L15 24L16 24L16 21L17 21L17 25L15 25L15 26L14 26L14 28L13 28L13 27L12 27L12 26L11 26L11 27L12 27L12 28L11 28L11 29L10 29L10 30L11 30L11 32L12 32L12 33L13 33L13 34L12 34L12 35L14 35L14 34L15 34L15 32L16 32L16 33L17 33L17 34L18 34L18 31L19 31L19 33L21 33L21 32L20 32L20 31L21 31L21 30L23 30L23 31L22 31L22 32L23 32L23 31L24 31L24 29L25 29L25 30L26 30L26 31L25 31L25 33L24 33L24 34L23 34L23 33L22 33L22 34L21 34L21 35L22 35L22 37L21 37L21 38L22 38L22 37L25 37L25 36L26 36L26 38L23 38L23 39L27 39L27 38L28 38L28 37L32 37L32 36L28 36L28 37L27 37L27 36L26 36L26 35L24 35L24 34L25 34L25 33L26 33L26 32L27 32L27 28L28 28L28 27L29 27L29 28L31 28L31 29L28 29L28 30L29 30L29 31L28 31L28 33L27 33L27 34L28 34L28 33L29 33L29 32L31 32L31 30L32 30L32 29L33 29L33 28L32 28L32 26L34 26L34 25L35 25L35 26L36 26L36 27L37 27L37 26L36 26L36 25L39 25L39 26L40 26L40 24L39 24L39 23L37 23L37 24L36 24L36 23L35 23L35 22L36 22L36 21L35 21L35 22L34 22L34 21L32 21L32 22L31 22L31 23L32 23L32 24L31 24L31 25L30 25L30 26L29 26L29 25L27 25L27 26L28 26L28 27L26 27L26 29L25 29L25 28L22 28L22 29L21 29L21 27L22 27L22 26L26 26L26 24L25 24L25 25L23 25L23 24L22 24L22 23L19 23L19 21L20 21L20 22L22 22L22 21L23 21L23 22L24 22L24 23L27 23L27 22L28 22L28 21L26 21L26 22L25 22L25 19L26 19L26 18L25 18L25 19L24 19L24 16L25 16L25 15L24 15L24 16L23 16L23 14L21 14L21 16L23 16L23 20L22 20L22 19L20 19L20 18L18 18L18 19L20 19L20 20L19 20L19 21L18 21L18 20L17 20L17 16L18 16L18 17L19 17L19 16L18 16L18 15L19 15L19 14L20 14L20 13L21 13L21 12L20 12L20 10L21 10L21 8L20 8L20 6L21 6L21 7L22 7L22 6L23 6L23 4L22 4L22 3L21 3L21 4L22 4L22 5L19 5L19 7L18 7L18 6L17 6L17 4L18 4L18 2L17 2L17 1ZM9 2L9 3L10 3L10 2ZM16 2L16 3L17 3L17 2ZM32 3L32 4L30 4L30 5L32 5L32 7L33 7L33 5L32 5L32 4L33 4L33 3ZM25 5L25 7L26 7L26 5ZM11 6L11 9L12 9L12 6ZM16 6L16 7L17 7L17 6ZM27 6L27 8L28 8L28 6ZM30 6L30 7L31 7L31 6ZM6 8L6 9L7 9L7 8ZM17 8L17 9L20 9L20 8ZM35 9L35 11L37 11L37 10L36 10L36 9ZM12 10L12 11L13 11L13 12L14 12L14 13L15 13L15 12L14 12L14 11L13 11L13 10ZM6 12L6 13L7 13L7 12ZM17 12L17 13L18 13L18 14L19 14L19 13L20 13L20 12L19 12L19 13L18 13L18 12ZM22 12L22 13L24 13L24 14L25 14L25 12ZM33 12L33 13L34 13L34 12ZM1 13L1 14L3 14L3 13ZM40 13L40 14L39 14L39 15L40 15L40 14L41 14L41 13ZM9 14L9 15L8 15L8 16L10 16L10 18L9 18L9 19L8 19L8 20L10 20L10 19L12 19L12 18L13 18L13 20L14 20L14 17L15 17L15 18L16 18L16 17L15 17L15 16L14 16L14 17L12 17L12 18L11 18L11 16L12 16L12 15L11 15L11 16L10 16L10 14ZM36 14L36 15L37 15L37 14ZM36 16L36 17L37 17L37 16ZM40 16L40 18L39 18L39 19L40 19L40 18L41 18L41 16ZM15 19L15 20L16 20L16 19ZM27 19L27 20L28 20L28 19ZM4 20L4 23L5 23L5 24L6 24L6 25L7 25L7 24L6 24L6 23L7 23L7 22L6 22L6 23L5 23L5 20ZM6 20L6 21L7 21L7 20ZM23 20L23 21L24 21L24 20ZM37 20L37 21L38 21L38 20ZM40 20L40 21L41 21L41 20ZM33 22L33 24L32 24L32 25L31 25L31 26L32 26L32 25L34 25L34 24L35 24L35 25L36 25L36 24L35 24L35 23L34 23L34 22ZM18 23L18 24L19 24L19 23ZM21 24L21 25L18 25L18 26L17 26L17 27L15 27L15 29L14 29L14 30L13 30L13 31L14 31L14 32L13 32L13 33L14 33L14 32L15 32L15 30L16 30L16 28L17 28L17 31L16 31L16 32L17 32L17 31L18 31L18 30L19 30L19 31L20 31L20 30L21 30L21 29L20 29L20 30L19 30L19 29L18 29L18 28L19 28L19 27L21 27L21 25L22 25L22 24ZM18 26L18 27L17 27L17 28L18 28L18 27L19 27L19 26ZM12 28L12 29L13 29L13 28ZM0 29L0 33L1 33L1 29ZM39 29L39 31L40 31L40 32L41 32L41 31L40 31L40 30L41 30L41 29ZM7 30L7 31L6 31L6 32L7 32L7 31L8 31L8 30ZM37 32L37 34L39 34L39 33L38 33L38 32ZM30 33L30 35L31 35L31 34L32 34L32 33ZM33 33L33 36L36 36L36 33ZM34 34L34 35L35 35L35 34ZM23 35L23 36L24 36L24 35ZM11 36L11 37L14 37L14 36ZM33 37L33 38L31 38L31 39L33 39L33 38L36 38L36 37ZM29 38L29 39L28 39L28 40L30 40L30 38ZM37 38L37 39L38 39L38 38ZM14 39L14 40L16 40L16 39ZM0 0L0 7L7 7L7 0ZM1 1L1 6L6 6L6 1ZM2 2L2 5L5 5L5 2ZM34 0L34 7L41 7L41 0ZM35 1L35 6L40 6L40 1ZM36 2L36 5L39 5L39 2ZM0 34L0 41L7 41L7 34ZM1 35L1 40L6 40L6 35ZM2 36L2 39L5 39L5 36Z" fill="#000000"/></g></g></svg>
