<?xml version="1.0" encoding="UTF-8"?>
<svg xmlns="http://www.w3.org/2000/svg" version="1.1" width="200" height="200" viewBox="0 0 200 200"><rect x="0" y="0" width="200" height="200" fill="#ffffff"/><g transform="scale(6.897)"><g transform="translate(0,0)"><path fill-rule="evenodd" d="M8 0L8 1L9 1L9 0ZM11 0L11 1L10 1L10 2L8 2L8 3L9 3L9 4L8 4L8 5L9 5L9 4L10 4L10 3L12 3L12 7L13 7L13 8L14 8L14 7L15 7L15 9L12 9L12 8L9 8L9 6L8 6L8 8L9 8L9 9L8 9L8 11L7 11L7 10L6 10L6 9L7 9L7 8L5 8L5 9L4 9L4 11L3 11L3 9L0 9L0 10L2 10L2 12L4 12L4 11L5 11L5 10L6 10L6 11L7 11L7 12L6 12L6 13L5 13L5 14L4 14L4 13L2 13L2 14L1 14L1 12L0 12L0 15L1 15L1 17L0 17L0 21L1 21L1 19L2 19L2 18L5 18L5 16L6 16L6 17L7 17L7 16L6 16L6 15L8 15L8 16L10 16L10 17L9 17L9 18L8 18L8 19L7 19L7 18L6 18L6 19L5 19L5 21L8 21L8 22L9 22L9 23L8 23L8 24L10 24L10 26L9 26L9 27L12 27L12 26L13 26L13 29L16 29L16 26L17 26L17 29L18 29L18 27L20 27L20 28L19 28L19 29L25 29L25 27L23 27L23 26L21 26L21 25L24 25L24 26L25 26L25 22L26 22L26 23L27 23L27 21L25 21L25 19L26 19L26 20L27 20L27 19L26 19L26 18L28 18L28 19L29 19L29 18L28 18L28 16L29 16L29 15L28 15L28 14L26 14L26 13L29 13L29 12L27 12L27 11L28 11L28 10L27 10L27 8L26 8L26 10L25 10L25 12L24 12L24 11L20 11L20 10L19 10L19 9L18 9L18 13L19 13L19 12L20 12L20 13L21 13L21 12L22 12L22 14L21 14L21 15L20 15L20 17L21 17L21 19L22 19L22 20L20 20L20 24L18 24L18 23L19 23L19 22L17 22L17 23L16 23L16 22L14 22L14 18L16 18L16 20L15 20L15 21L17 21L17 20L18 20L18 21L19 21L19 20L18 20L18 17L15 17L15 16L14 16L14 17L13 17L13 16L12 16L12 15L11 15L11 14L13 14L13 15L14 15L14 14L13 14L13 13L15 13L15 15L17 15L17 16L19 16L19 15L18 15L18 14L16 14L16 13L17 13L17 12L16 12L16 11L17 11L17 8L21 8L21 5L20 5L20 4L19 4L19 3L18 3L18 4L17 4L17 6L16 6L16 5L14 5L14 7L13 7L13 3L12 3L12 2L13 2L13 1L14 1L14 0L13 0L13 1L12 1L12 0ZM16 0L16 1L15 1L15 2L14 2L14 4L16 4L16 2L17 2L17 1L18 1L18 2L19 2L19 1L20 1L20 2L21 2L21 0L19 0L19 1L18 1L18 0ZM11 1L11 2L12 2L12 1ZM10 5L10 7L11 7L11 5ZM18 5L18 6L17 6L17 7L18 7L18 6L19 6L19 7L20 7L20 6L19 6L19 5ZM15 6L15 7L16 7L16 6ZM22 8L22 10L24 10L24 9L25 9L25 8L24 8L24 9L23 9L23 8ZM28 8L28 9L29 9L29 8ZM10 9L10 10L9 10L9 11L10 11L10 12L11 12L11 11L12 11L12 13L13 13L13 12L15 12L15 11L16 11L16 9L15 9L15 11L12 11L12 10L11 10L11 9ZM7 12L7 13L6 13L6 14L5 14L5 15L4 15L4 14L3 14L3 15L2 15L2 17L1 17L1 18L2 18L2 17L3 17L3 15L4 15L4 16L5 16L5 15L6 15L6 14L7 14L7 13L8 13L8 14L9 14L9 15L10 15L10 16L11 16L11 15L10 15L10 14L9 14L9 12ZM23 12L23 14L22 14L22 15L23 15L23 16L22 16L22 18L24 18L24 12ZM25 15L25 16L26 16L26 15ZM27 15L27 16L28 16L28 15ZM12 17L12 18L10 18L10 19L12 19L12 20L11 20L11 21L12 21L12 22L11 22L11 23L10 23L10 24L11 24L11 25L14 25L14 23L13 23L13 19L12 19L12 18L13 18L13 17ZM19 18L19 19L20 19L20 18ZM3 19L3 20L2 20L2 21L3 21L3 20L4 20L4 19ZM6 19L6 20L7 20L7 19ZM23 19L23 20L24 20L24 19ZM8 20L8 21L10 21L10 20ZM28 20L28 22L29 22L29 20ZM21 21L21 24L24 24L24 21ZM22 22L22 23L23 23L23 22ZM11 23L11 24L13 24L13 23ZM15 23L15 24L16 24L16 25L15 25L15 26L14 26L14 27L15 27L15 26L16 26L16 25L17 25L17 24L16 24L16 23ZM26 24L26 26L27 26L27 27L28 27L28 26L27 26L27 25L28 25L28 24ZM18 25L18 26L19 26L19 25ZM20 26L20 27L21 27L21 26ZM22 27L22 28L23 28L23 27ZM9 28L9 29L10 29L10 28ZM26 28L26 29L28 29L28 28ZM0 0L0 7L7 7L7 0ZM1 1L1 6L6 6L6 1ZM2 2L2 5L5 5L5 2ZM22 0L22 7L29 7L29 0ZM23 1L23 6L28 6L28 1ZM24 2L24 5L27 5L27 2ZM0 22L0 29L7 29L7 22ZM1 23L1 28L6 28L6 23ZM2 24L2 27L5 27L5 24Z" fill="#000000"/></g></g></svg>
