<?xml version="1.0" encoding="UTF-8"?>
<svg xmlns="http://www.w3.org/2000/svg" version="1.1" width="200" height="200" viewBox="0 0 200 200"><rect x="0" y="0" width="200" height="200" fill="#ffffff"/><g transform="scale(4.878)"><g transform="translate(0,0)"><path fill-rule="evenodd" d="M8 0L8 3L9 3L9 5L8 5L8 9L9 9L9 12L8 12L8 10L6 10L6 9L7 9L7 8L6 8L6 9L5 9L5 8L2 8L2 10L1 10L1 11L0 11L0 12L1 12L1 15L3 15L3 16L4 16L4 19L2 19L2 18L1 18L1 19L0 19L0 25L1 25L1 26L2 26L2 27L0 27L0 28L1 28L1 29L0 29L0 33L1 33L1 29L2 29L2 32L3 32L3 33L8 33L8 34L9 34L9 33L11 33L11 35L10 35L10 36L8 36L8 39L9 39L9 40L10 40L10 39L11 39L11 41L13 41L13 40L12 40L12 39L13 39L13 38L14 38L14 39L15 39L15 40L14 40L14 41L15 41L15 40L16 40L16 41L19 41L19 40L20 40L20 41L21 41L21 40L20 40L20 39L21 39L21 36L23 36L23 33L24 33L24 32L25 32L25 35L26 35L26 32L25 32L25 31L26 31L26 30L27 30L27 33L29 33L29 35L28 35L28 34L27 34L27 35L28 35L28 36L26 36L26 37L25 37L25 36L24 36L24 37L25 37L25 38L24 38L24 39L23 39L23 41L25 41L25 40L26 40L26 41L27 41L27 40L28 40L28 41L31 41L31 40L33 40L33 41L34 41L34 40L33 40L33 39L30 39L30 38L31 38L31 37L30 37L30 38L29 38L29 37L28 37L28 36L32 36L32 38L34 38L34 39L35 39L35 40L36 40L36 39L37 39L37 40L40 40L40 38L41 38L41 37L39 37L39 36L40 36L40 34L41 34L41 33L39 33L39 32L41 32L41 31L40 31L40 30L41 30L41 29L40 29L40 28L41 28L41 27L40 27L40 26L41 26L41 23L39 23L39 24L40 24L40 26L39 26L39 25L36 25L36 24L37 24L37 23L38 23L38 22L37 22L37 21L39 21L39 20L36 20L36 19L35 19L35 17L36 17L36 18L37 18L37 19L38 19L38 18L37 18L37 17L36 17L36 16L35 16L35 17L34 17L34 16L32 16L32 17L31 17L31 16L29 16L29 15L31 15L31 12L32 12L32 13L33 13L33 14L32 14L32 15L34 15L34 13L35 13L35 11L36 11L36 12L38 12L38 11L40 11L40 12L41 12L41 11L40 11L40 10L41 10L41 8L38 8L38 9L40 9L40 10L37 10L37 9L36 9L36 8L31 8L31 9L30 9L30 8L29 8L29 6L28 6L28 5L27 5L27 4L26 4L26 5L27 5L27 6L26 6L26 7L27 7L27 8L26 8L26 9L25 9L25 4L24 4L24 8L22 8L22 7L23 7L23 5L21 5L21 6L20 6L20 4L21 4L21 3L25 3L25 2L23 2L23 1L22 1L22 0L21 0L21 2L20 2L20 1L19 1L19 0L17 0L17 2L20 2L20 3L14 3L14 2L16 2L16 1L14 1L14 0L13 0L13 1L12 1L12 0L11 0L11 1L10 1L10 0ZM24 0L24 1L25 1L25 0ZM26 0L26 1L27 1L27 2L26 2L26 3L28 3L28 4L29 4L29 5L30 5L30 7L31 7L31 5L32 5L32 7L33 7L33 4L32 4L32 3L31 3L31 2L30 2L30 0L29 0L29 1L27 1L27 0ZM31 0L31 1L32 1L32 0ZM9 1L9 2L10 2L10 3L11 3L11 4L13 4L13 3L11 3L11 2L12 2L12 1L11 1L11 2L10 2L10 1ZM13 1L13 2L14 2L14 1ZM29 3L29 4L31 4L31 3ZM17 5L17 7L16 7L16 6L15 6L15 7L14 7L14 6L13 6L13 7L14 7L14 8L15 8L15 7L16 7L16 8L17 8L17 9L16 9L16 10L15 10L15 9L13 9L13 8L12 8L12 6L11 6L11 7L10 7L10 6L9 6L9 9L11 9L11 8L12 8L12 9L13 9L13 10L14 10L14 11L13 11L13 12L14 12L14 13L13 13L13 14L10 14L10 15L9 15L9 16L8 16L8 15L6 15L6 16L5 16L5 15L4 15L4 16L5 16L5 17L6 17L6 18L5 18L5 19L4 19L4 21L3 21L3 20L2 20L2 19L1 19L1 21L2 21L2 22L3 22L3 23L2 23L2 25L3 25L3 28L2 28L2 29L3 29L3 30L4 30L4 32L8 32L8 31L5 31L5 30L4 30L4 26L5 26L5 25L4 25L4 24L3 24L3 23L4 23L4 22L5 22L5 23L6 23L6 24L7 24L7 25L6 25L6 26L7 26L7 27L5 27L5 28L7 28L7 27L8 27L8 28L9 28L9 27L10 27L10 26L11 26L11 24L12 24L12 22L11 22L11 20L12 20L12 21L13 21L13 22L14 22L14 25L15 25L15 26L16 26L16 27L17 27L17 26L18 26L18 23L17 23L17 24L15 24L15 23L16 23L16 22L20 22L20 20L21 20L21 17L20 17L20 16L17 16L17 15L18 15L18 14L19 14L19 15L21 15L21 14L22 14L22 17L23 17L23 15L24 15L24 16L26 16L26 15L24 15L24 14L22 14L22 13L21 13L21 12L22 12L22 11L21 11L21 10L20 10L20 9L22 9L22 8L18 8L18 6L19 6L19 7L20 7L20 6L19 6L19 5ZM21 6L21 7L22 7L22 6ZM27 6L27 7L28 7L28 6ZM18 9L18 10L17 10L17 13L19 13L19 14L20 14L20 13L19 13L19 12L20 12L20 10L19 10L19 9ZM23 9L23 10L25 10L25 11L26 11L26 10L29 10L29 11L28 11L28 13L29 13L29 14L27 14L27 17L24 17L24 20L23 20L23 18L22 18L22 21L21 21L21 22L23 22L23 23L24 23L24 24L22 24L22 23L21 23L21 25L20 25L20 24L19 24L19 26L21 26L21 27L22 27L22 25L23 25L23 27L24 27L24 28L23 28L23 30L21 30L21 32L22 32L22 33L23 33L23 31L25 31L25 30L24 30L24 29L27 29L27 28L26 28L26 27L27 27L27 26L28 26L28 27L29 27L29 28L31 28L31 29L28 29L28 30L32 30L32 31L33 31L33 32L36 32L36 31L38 31L38 32L37 32L37 36L39 36L39 33L38 33L38 32L39 32L39 31L38 31L38 30L39 30L39 28L40 28L40 27L39 27L39 26L38 26L38 28L36 28L36 27L37 27L37 26L36 26L36 25L35 25L35 24L36 24L36 23L35 23L35 22L36 22L36 21L35 21L35 19L34 19L34 18L33 18L33 17L32 17L32 18L31 18L31 17L29 17L29 16L28 16L28 15L29 15L29 14L30 14L30 13L29 13L29 12L31 12L31 11L32 11L32 10L33 10L33 11L34 11L34 9L32 9L32 10L31 10L31 11L30 11L30 9L26 9L26 10L25 10L25 9ZM35 9L35 10L36 10L36 9ZM2 10L2 11L3 11L3 12L4 12L4 13L2 13L2 14L7 14L7 13L8 13L8 12L7 12L7 11L6 11L6 10L5 10L5 12L4 12L4 10ZM11 10L11 11L10 11L10 12L9 12L9 13L10 13L10 12L12 12L12 10ZM15 11L15 12L16 12L16 11ZM6 12L6 13L7 13L7 12ZM23 12L23 13L25 13L25 14L26 14L26 13L27 13L27 12ZM33 12L33 13L34 13L34 12ZM14 13L14 14L15 14L15 15L12 15L12 16L10 16L10 17L12 17L12 18L13 18L13 21L14 21L14 22L16 22L16 21L14 21L14 18L13 18L13 17L12 17L12 16L14 16L14 17L15 17L15 16L16 16L16 13ZM36 13L36 15L37 15L37 16L38 16L38 17L39 17L39 16L38 16L38 15L40 15L40 14L41 14L41 13L40 13L40 14L38 14L38 13ZM37 14L37 15L38 15L38 14ZM0 16L0 17L2 17L2 16ZM6 16L6 17L7 17L7 18L6 18L6 19L8 19L8 21L9 21L9 19L8 19L8 17L7 17L7 16ZM40 16L40 18L39 18L39 19L40 19L40 18L41 18L41 16ZM16 17L16 19L15 19L15 20L17 20L17 21L18 21L18 20L19 20L19 19L20 19L20 17L18 17L18 18L19 18L19 19L17 19L17 17ZM10 18L10 20L11 20L11 18ZM25 18L25 21L23 21L23 22L24 22L24 23L25 23L25 22L26 22L26 21L28 21L28 22L27 22L27 23L26 23L26 24L25 24L25 26L26 26L26 25L28 25L28 26L32 26L32 27L31 27L31 28L32 28L32 27L34 27L34 26L35 26L35 25L34 25L34 24L35 24L35 23L34 23L34 22L35 22L35 21L34 21L34 20L33 20L33 19L31 19L31 18L30 18L30 19L31 19L31 20L30 20L30 21L31 21L31 22L32 22L32 21L34 21L34 22L33 22L33 23L34 23L34 24L31 24L31 23L30 23L30 24L29 24L29 23L28 23L28 22L29 22L29 21L28 21L28 20L27 20L27 19L29 19L29 18L27 18L27 19L26 19L26 18ZM6 20L6 21L5 21L5 22L6 22L6 23L7 23L7 24L8 24L8 25L10 25L10 24L9 24L9 23L11 23L11 22L8 22L8 23L7 23L7 22L6 22L6 21L7 21L7 20ZM31 20L31 21L32 21L32 20ZM40 20L40 21L41 21L41 20ZM27 23L27 24L28 24L28 25L29 25L29 24L28 24L28 23ZM30 24L30 25L31 25L31 24ZM32 25L32 26L34 26L34 25ZM8 26L8 27L9 27L9 26ZM12 26L12 27L11 27L11 28L10 28L10 29L9 29L9 30L10 30L10 29L11 29L11 28L12 28L12 27L14 27L14 26ZM18 27L18 28L14 28L14 29L13 29L13 30L12 30L12 31L11 31L11 33L12 33L12 34L14 34L14 35L16 35L16 33L18 33L18 34L19 34L19 33L18 33L18 31L17 31L17 30L18 30L18 29L19 29L19 31L20 31L20 29L19 29L19 27ZM21 28L21 29L22 29L22 28ZM33 28L33 29L32 29L32 30L33 30L33 29L34 29L34 28ZM35 28L35 29L36 29L36 30L34 30L34 31L36 31L36 30L37 30L37 29L36 29L36 28ZM6 29L6 30L7 30L7 29ZM15 29L15 30L16 30L16 29ZM9 31L9 32L10 32L10 31ZM12 31L12 33L16 33L16 32L17 32L17 31ZM28 31L28 32L30 32L30 31ZM20 33L20 35L19 35L19 36L20 36L20 35L21 35L21 33ZM30 33L30 35L31 35L31 34L32 34L32 33ZM33 33L33 36L36 36L36 33ZM34 34L34 35L35 35L35 34ZM11 35L11 36L10 36L10 38L11 38L11 39L12 39L12 37L11 37L11 36L13 36L13 37L17 37L17 39L16 39L16 40L19 40L19 39L18 39L18 37L17 37L17 36L18 36L18 35L17 35L17 36L13 36L13 35ZM22 37L22 38L23 38L23 37ZM26 37L26 38L25 38L25 39L27 39L27 38L28 38L28 40L30 40L30 39L29 39L29 38L28 38L28 37ZM34 37L34 38L36 38L36 37ZM37 38L37 39L38 39L38 38ZM0 0L0 7L7 7L7 0ZM1 1L1 6L6 6L6 1ZM2 2L2 5L5 5L5 2ZM34 0L34 7L41 7L41 0ZM35 1L35 6L40 6L40 1ZM36 2L36 5L39 5L39 2ZM0 34L0 41L7 41L7 34ZM1 35L1 40L6 40L6 35ZM2 36L2 39L5 39L5 36Z" fill="#000000"/></g></g></svg>
