<?xml version="1.0" encoding="UTF-8"?>
<svg xmlns="http://www.w3.org/2000/svg" version="1.1" width="200" height="200" viewBox="0 0 200 200"><rect x="0" y="0" width="200" height="200" fill="#ffffff"/><g transform="scale(4.878)"><g transform="translate(0,0)"><path fill-rule="evenodd" d="M10 0L10 1L9 1L9 2L8 2L8 4L9 4L9 5L10 5L10 4L11 4L11 6L10 6L10 8L9 8L9 9L8 9L8 8L6 8L6 9L8 9L8 10L6 10L6 11L7 11L7 12L5 12L5 11L4 11L4 9L5 9L5 8L3 8L3 10L2 10L2 9L1 9L1 10L0 10L0 12L1 12L1 11L2 11L2 13L4 13L4 12L5 12L5 14L6 14L6 15L5 15L5 16L6 16L6 17L4 17L4 14L2 14L2 15L1 15L1 16L0 16L0 20L2 20L2 22L0 22L0 24L1 24L1 23L2 23L2 22L3 22L3 19L2 19L2 18L1 18L1 16L2 16L2 17L4 17L4 18L5 18L5 21L4 21L4 22L5 22L5 23L3 23L3 24L2 24L2 25L3 25L3 26L2 26L2 27L1 27L1 28L0 28L0 33L2 33L2 32L3 32L3 33L8 33L8 35L9 35L9 34L11 34L11 33L10 33L10 32L12 32L12 31L13 31L13 30L14 30L14 31L16 31L16 30L17 30L17 29L18 29L18 28L16 28L16 26L17 26L17 27L18 27L18 26L19 26L19 25L18 25L18 24L17 24L17 25L16 25L16 24L14 24L14 26L13 26L13 22L14 22L14 21L15 21L15 23L16 23L16 21L17 21L17 23L18 23L18 22L19 22L19 21L18 21L18 20L19 20L19 19L20 19L20 22L22 22L22 21L21 21L21 20L22 20L22 19L23 19L23 20L24 20L24 21L23 21L23 22L24 22L24 21L25 21L25 22L26 22L26 23L23 23L23 26L22 26L22 25L21 25L21 24L20 24L20 23L19 23L19 24L20 24L20 27L19 27L19 28L21 28L21 26L22 26L22 28L23 28L23 29L24 29L24 28L23 28L23 26L24 26L24 27L25 27L25 30L24 30L24 31L23 31L23 30L22 30L22 29L21 29L21 33L20 33L20 32L19 32L19 30L18 30L18 31L17 31L17 32L15 32L15 33L14 33L14 32L13 32L13 33L12 33L12 36L11 36L11 38L9 38L9 37L10 37L10 36L8 36L8 38L9 38L9 39L11 39L11 38L12 38L12 41L14 41L14 39L15 39L15 41L21 41L21 40L19 40L19 39L21 39L21 38L17 38L17 40L16 40L16 39L15 39L15 38L16 38L16 37L17 37L17 36L19 36L19 35L20 35L20 34L21 34L21 36L20 36L20 37L21 37L21 36L23 36L23 35L24 35L24 34L22 34L22 33L23 33L23 32L24 32L24 31L25 31L25 34L26 34L26 35L25 35L25 36L26 36L26 37L25 37L25 38L24 38L24 37L23 37L23 38L22 38L22 39L23 39L23 40L22 40L22 41L23 41L23 40L24 40L24 41L25 41L25 40L26 40L26 39L27 39L27 41L29 41L29 38L28 38L28 36L27 36L27 35L28 35L28 34L29 34L29 37L31 37L31 38L32 38L32 37L36 37L36 38L35 38L35 39L33 39L33 40L32 40L32 39L31 39L31 40L30 40L30 41L31 41L31 40L32 40L32 41L34 41L34 40L35 40L35 41L36 41L36 39L37 39L37 35L40 35L40 34L39 34L39 32L40 32L40 33L41 33L41 32L40 32L40 31L41 31L41 30L39 30L39 31L38 31L38 30L37 30L37 29L35 29L35 28L34 28L34 30L36 30L36 31L37 31L37 32L34 32L34 31L32 31L32 30L31 30L31 29L29 29L29 30L28 30L28 31L27 31L27 30L26 30L26 29L28 29L28 28L29 28L29 26L30 26L30 25L31 25L31 24L30 24L30 23L31 23L31 22L32 22L32 20L33 20L33 24L32 24L32 25L33 25L33 24L34 24L34 26L36 26L36 28L38 28L38 29L40 29L40 27L41 27L41 25L39 25L39 27L37 27L37 25L36 25L36 24L35 24L35 23L36 23L36 21L37 21L37 20L38 20L38 22L37 22L37 23L38 23L38 22L41 22L41 21L39 21L39 20L40 20L40 19L41 19L41 18L40 18L40 19L39 19L39 18L38 18L38 19L37 19L37 20L36 20L36 18L37 18L37 17L38 17L38 16L40 16L40 17L41 17L41 11L40 11L40 9L39 9L39 8L37 8L37 9L36 9L36 10L35 10L35 11L34 11L34 9L33 9L33 8L31 8L31 6L30 6L30 4L31 4L31 5L33 5L33 4L31 4L31 3L33 3L33 0L32 0L32 1L30 1L30 0L28 0L28 2L27 2L27 4L26 4L26 5L25 5L25 3L24 3L24 2L25 2L25 0L23 0L23 1L22 1L22 0L21 0L21 2L20 2L20 0L16 0L16 1L17 1L17 2L16 2L16 3L15 3L15 2L13 2L13 0L12 0L12 2L13 2L13 4L14 4L14 3L15 3L15 5L16 5L16 9L15 9L15 10L13 10L13 9L14 9L14 8L13 8L13 6L14 6L14 7L15 7L15 6L14 6L14 5L13 5L13 6L12 6L12 3L11 3L11 0ZM29 1L29 2L28 2L28 3L29 3L29 4L30 4L30 3L31 3L31 2L30 2L30 1ZM19 2L19 3L18 3L18 4L16 4L16 5L17 5L17 7L18 7L18 6L19 6L19 10L21 10L21 7L22 7L22 6L23 6L23 8L22 8L22 9L23 9L23 10L24 10L24 12L23 12L23 13L20 13L20 14L19 14L19 15L18 15L18 17L17 17L17 18L13 18L13 15L15 15L15 16L16 16L16 15L17 15L17 13L19 13L19 12L18 12L18 11L17 11L17 10L18 10L18 8L17 8L17 10L15 10L15 11L14 11L14 13L13 13L13 12L12 12L12 11L10 11L10 10L8 10L8 11L10 11L10 12L9 12L9 13L10 13L10 16L8 16L8 13L6 13L6 14L7 14L7 15L6 15L6 16L8 16L8 17L10 17L10 18L7 18L7 17L6 17L6 18L7 18L7 19L6 19L6 20L8 20L8 21L9 21L9 20L10 20L10 21L12 21L12 22L13 22L13 21L14 21L14 20L16 20L16 19L17 19L17 20L18 20L18 19L19 19L19 18L18 18L18 17L19 17L19 16L21 16L21 17L23 17L23 19L24 19L24 20L25 20L25 21L26 21L26 22L27 22L27 21L26 21L26 18L24 18L24 17L25 17L25 16L24 16L24 17L23 17L23 15L24 15L24 14L25 14L25 15L26 15L26 14L28 14L28 15L27 15L27 16L26 16L26 17L27 17L27 16L28 16L28 17L29 17L29 18L28 18L28 21L31 21L31 20L32 20L32 19L31 19L31 17L30 17L30 12L31 12L31 11L32 11L32 12L33 12L33 10L31 10L31 9L30 9L30 10L31 10L31 11L30 11L30 12L28 12L28 11L25 11L25 10L26 10L26 9L27 9L27 8L28 8L28 9L29 9L29 8L30 8L30 6L29 6L29 5L28 5L28 4L27 4L27 7L26 7L26 6L25 6L25 5L24 5L24 4L23 4L23 5L22 5L22 6L21 6L21 5L20 5L20 4L21 4L21 3L23 3L23 2L21 2L21 3L20 3L20 2ZM9 3L9 4L10 4L10 3ZM19 3L19 4L18 4L18 5L19 5L19 6L20 6L20 7L21 7L21 6L20 6L20 5L19 5L19 4L20 4L20 3ZM8 6L8 7L9 7L9 6ZM11 6L11 8L12 8L12 9L13 9L13 8L12 8L12 6ZM24 6L24 8L26 8L26 7L25 7L25 6ZM28 6L28 8L29 8L29 6ZM32 6L32 7L33 7L33 6ZM24 9L24 10L25 10L25 9ZM37 9L37 10L38 10L38 12L40 12L40 11L39 11L39 10L38 10L38 9ZM3 11L3 12L4 12L4 11ZM21 11L21 12L22 12L22 11ZM35 11L35 12L36 12L36 13L34 13L34 14L36 14L36 13L37 13L37 12L36 12L36 11ZM11 12L11 14L12 14L12 12ZM15 12L15 13L14 13L14 14L15 14L15 15L16 15L16 13L17 13L17 12ZM25 12L25 14L26 14L26 12ZM27 12L27 13L28 13L28 12ZM23 13L23 14L22 14L22 15L23 15L23 14L24 14L24 13ZM32 13L32 14L31 14L31 15L32 15L32 18L33 18L33 19L34 19L34 20L35 20L35 21L34 21L34 22L35 22L35 21L36 21L36 20L35 20L35 17L37 17L37 16L38 16L38 15L37 15L37 16L34 16L34 17L33 17L33 13ZM39 13L39 15L40 15L40 13ZM20 14L20 15L21 15L21 14ZM2 15L2 16L3 16L3 15ZM11 15L11 16L10 16L10 17L11 17L11 16L12 16L12 15ZM28 15L28 16L29 16L29 15ZM12 18L12 19L10 19L10 20L12 20L12 21L13 21L13 20L14 20L14 19L13 19L13 18ZM8 19L8 20L9 20L9 19ZM12 19L12 20L13 20L13 19ZM29 19L29 20L31 20L31 19ZM5 21L5 22L7 22L7 21ZM8 22L8 23L6 23L6 24L4 24L4 25L6 25L6 26L4 26L4 27L2 27L2 28L1 28L1 29L2 29L2 30L3 30L3 29L5 29L5 32L8 32L8 33L9 33L9 31L10 31L10 30L11 30L11 28L12 28L12 29L13 29L13 28L12 28L12 27L11 27L11 26L10 26L10 25L11 25L11 24L12 24L12 23L11 23L11 22ZM9 23L9 24L6 24L6 25L7 25L7 26L6 26L6 27L5 27L5 29L7 29L7 30L6 30L6 31L7 31L7 30L8 30L8 31L9 31L9 30L10 30L10 29L8 29L8 28L6 28L6 27L7 27L7 26L8 26L8 27L10 27L10 28L11 28L11 27L10 27L10 26L8 26L8 25L9 25L9 24L11 24L11 23ZM28 23L28 24L29 24L29 25L30 25L30 24L29 24L29 23ZM39 23L39 24L40 24L40 23ZM24 24L24 25L25 25L25 27L27 27L27 26L26 26L26 25L27 25L27 24L26 24L26 25L25 25L25 24ZM0 25L0 26L1 26L1 25ZM14 26L14 30L15 30L15 29L16 29L16 28L15 28L15 26ZM31 26L31 27L32 27L32 28L33 28L33 27L32 27L32 26ZM2 28L2 29L3 29L3 28ZM25 30L25 31L26 31L26 30ZM3 31L3 32L4 32L4 31ZM29 31L29 32L27 32L27 33L29 33L29 34L32 34L32 33L29 33L29 32L30 32L30 31ZM18 32L18 35L19 35L19 32ZM37 32L37 34L38 34L38 32ZM13 33L13 35L14 35L14 36L13 36L13 37L15 37L15 36L17 36L17 33L16 33L16 34L15 34L15 35L14 35L14 33ZM33 33L33 36L36 36L36 33ZM34 34L34 35L35 35L35 34ZM30 35L30 36L31 36L31 35ZM40 36L40 38L39 38L39 37L38 37L38 38L39 38L39 39L38 39L38 41L39 41L39 39L40 39L40 40L41 40L41 36ZM26 37L26 38L25 38L25 39L26 39L26 38L27 38L27 37ZM23 38L23 39L24 39L24 38ZM9 40L9 41L11 41L11 40ZM0 0L0 7L7 7L7 0ZM1 1L1 6L6 6L6 1ZM2 2L2 5L5 5L5 2ZM34 0L34 7L41 7L41 0ZM35 1L35 6L40 6L40 1ZM36 2L36 5L39 5L39 2ZM0 34L0 41L7 41L7 34ZM1 35L1 40L6 40L6 35ZM2 36L2 39L5 39L5 36Z" fill="#000000"/></g></g></svg>
