<?xml version="1.0" encoding="UTF-8"?>
<svg xmlns="http://www.w3.org/2000/svg" version="1.1" width="200" height="200" viewBox="0 0 200 200"><rect x="0" y="0" width="200" height="200" fill="#ffffff"/><g transform="scale(4.878)"><g transform="translate(0,0)"><path fill-rule="evenodd" d="M14 0L14 3L15 3L15 4L14 4L14 5L13 5L13 6L12 6L12 7L11 7L11 4L13 4L13 3L12 3L12 2L11 2L11 1L8 1L8 2L11 2L11 4L10 4L10 3L9 3L9 5L8 5L8 8L4 8L4 9L3 9L3 10L2 10L2 9L1 9L1 10L0 10L0 12L1 12L1 13L0 13L0 16L1 16L1 15L3 15L3 16L2 16L2 18L3 18L3 16L6 16L6 17L4 17L4 19L2 19L2 20L0 20L0 21L1 21L1 23L0 23L0 25L2 25L2 26L1 26L1 27L0 27L0 28L1 28L1 29L0 29L0 30L2 30L2 32L0 32L0 33L2 33L2 32L3 32L3 33L5 33L5 31L8 31L8 32L9 32L9 33L8 33L8 37L9 37L9 40L10 40L10 41L12 41L12 40L13 40L13 39L10 39L10 38L11 38L11 37L14 37L14 36L15 36L15 35L13 35L13 36L10 36L10 35L9 35L9 34L10 34L10 31L9 31L9 29L8 29L8 28L10 28L10 26L9 26L9 25L8 25L8 24L6 24L6 25L5 25L5 26L4 26L4 28L3 28L3 29L2 29L2 28L1 28L1 27L2 27L2 26L3 26L3 25L4 25L4 23L7 23L7 22L8 22L8 23L9 23L9 24L10 24L10 25L11 25L11 24L15 24L15 23L16 23L16 24L17 24L17 26L16 26L16 25L15 25L15 26L16 26L16 27L15 27L15 28L16 28L16 27L19 27L19 28L21 28L21 27L22 27L22 28L24 28L24 27L25 27L25 28L26 28L26 26L27 26L27 29L30 29L30 30L31 30L31 32L32 32L32 34L31 34L31 33L30 33L30 31L28 31L28 30L27 30L27 31L26 31L26 30L23 30L23 32L24 32L24 31L26 31L26 33L22 33L22 32L21 32L21 31L22 31L22 30L20 30L20 29L18 29L18 30L20 30L20 32L21 32L21 33L22 33L22 34L21 34L21 35L20 35L20 34L19 34L19 33L18 33L18 31L17 31L17 29L16 29L16 30L14 30L14 31L15 31L15 32L16 32L16 34L17 34L17 35L18 35L18 34L19 34L19 35L20 35L20 36L22 36L22 37L19 37L19 36L16 36L16 37L15 37L15 38L16 38L16 40L18 40L18 41L21 41L21 40L23 40L23 41L26 41L26 40L28 40L28 41L33 41L33 39L34 39L34 40L35 40L35 39L34 39L34 37L36 37L36 38L37 38L37 35L39 35L39 36L41 36L41 33L40 33L40 34L39 34L39 33L38 33L38 34L37 34L37 32L35 32L35 31L36 31L36 30L38 30L38 31L39 31L39 32L40 32L40 31L41 31L41 24L40 24L40 23L41 23L41 22L40 22L40 21L41 21L41 13L39 13L39 12L38 12L38 11L41 11L41 9L40 9L40 8L39 8L39 9L36 9L36 8L34 8L34 10L35 10L35 12L34 12L34 11L31 11L31 10L29 10L29 13L28 13L28 15L29 15L29 17L32 17L32 19L33 19L33 17L32 17L32 16L30 16L30 14L32 14L32 15L34 15L34 16L35 16L35 17L34 17L34 18L35 18L35 19L34 19L34 20L35 20L35 21L32 21L32 23L31 23L31 22L29 22L29 21L27 21L27 19L28 19L28 20L30 20L30 21L31 21L31 19L30 19L30 18L28 18L28 16L23 16L23 15L22 15L22 14L23 14L23 13L19 13L19 14L20 14L20 15L22 15L22 17L20 17L20 16L19 16L19 15L16 15L16 16L15 16L15 14L14 14L14 13L15 13L15 12L16 12L16 14L18 14L18 12L16 12L16 11L18 11L18 10L19 10L19 9L17 9L17 8L18 8L18 7L19 7L19 6L20 6L20 7L21 7L21 8L20 8L20 9L21 9L21 8L22 8L22 7L23 7L23 6L24 6L24 7L25 7L25 6L24 6L24 5L26 5L26 8L23 8L23 11L21 11L21 10L20 10L20 12L23 12L23 11L24 11L24 9L25 9L25 10L27 10L27 11L25 11L25 12L24 12L24 14L26 14L26 13L25 13L25 12L28 12L28 9L32 9L32 10L33 10L33 9L32 9L32 8L31 8L31 6L32 6L32 7L33 7L33 6L32 6L32 5L33 5L33 2L32 2L32 1L33 1L33 0L32 0L32 1L31 1L31 3L29 3L29 4L30 4L30 7L29 7L29 6L28 6L28 9L27 9L27 5L28 5L28 4L27 4L27 5L26 5L26 4L25 4L25 3L24 3L24 1L25 1L25 2L26 2L26 3L28 3L28 2L30 2L30 0L29 0L29 1L28 1L28 0L27 0L27 1L26 1L26 0L19 0L19 1L18 1L18 2L15 2L15 1L17 1L17 0ZM21 1L21 3L20 3L20 2L18 2L18 3L17 3L17 7L16 7L16 6L15 6L15 7L16 7L16 8L15 8L15 9L16 9L16 10L17 10L17 9L16 9L16 8L17 8L17 7L18 7L18 4L19 4L19 5L20 5L20 4L21 4L21 3L22 3L22 4L23 4L23 5L24 5L24 4L23 4L23 3L22 3L22 1ZM27 1L27 2L28 2L28 1ZM31 3L31 5L32 5L32 3ZM15 4L15 5L16 5L16 4ZM9 5L9 8L8 8L8 9L9 9L9 8L10 8L10 10L9 10L9 11L11 11L11 9L13 9L13 10L12 10L12 14L11 14L11 13L10 13L10 12L8 12L8 11L6 11L6 10L7 10L7 9L6 9L6 10L4 10L4 12L5 12L5 13L6 13L6 14L3 14L3 13L1 13L1 14L3 14L3 15L6 15L6 16L7 16L7 15L8 15L8 17L6 17L6 18L5 18L5 20L8 20L8 22L9 22L9 23L10 23L10 24L11 24L11 23L13 23L13 22L14 22L14 23L15 23L15 22L16 22L16 23L19 23L19 24L18 24L18 25L19 25L19 26L20 26L20 27L21 27L21 26L20 26L20 24L21 24L21 23L23 23L23 24L22 24L22 27L23 27L23 25L25 25L25 26L26 26L26 25L29 25L29 23L25 23L25 22L26 22L26 19L27 19L27 17L26 17L26 19L25 19L25 18L23 18L23 19L24 19L24 20L22 20L22 22L21 22L21 21L20 21L20 20L21 20L21 19L19 19L19 21L18 21L18 22L17 22L17 20L18 20L18 19L17 19L17 18L18 18L18 16L17 16L17 17L16 17L16 18L13 18L13 20L11 20L11 18L10 18L10 19L9 19L9 17L10 17L10 16L12 16L12 17L13 17L13 16L14 16L14 17L15 17L15 16L14 16L14 15L13 15L13 13L14 13L14 12L15 12L15 10L14 10L14 6L13 6L13 8L11 8L11 7L10 7L10 5ZM21 6L21 7L22 7L22 6ZM13 10L13 12L14 12L14 10ZM1 11L1 12L2 12L2 11ZM5 11L5 12L6 12L6 13L7 13L7 14L6 14L6 15L7 15L7 14L8 14L8 15L9 15L9 16L10 16L10 15L11 15L11 14L10 14L10 13L7 13L7 12L6 12L6 11ZM36 11L36 12L35 12L35 13L33 13L33 12L32 12L32 13L33 13L33 14L36 14L36 15L35 15L35 16L36 16L36 17L35 17L35 18L36 18L36 17L39 17L39 18L38 18L38 19L37 19L37 21L39 21L39 20L40 20L40 17L39 17L39 16L40 16L40 15L38 15L38 14L36 14L36 13L37 13L37 11ZM29 13L29 14L30 14L30 13ZM12 15L12 16L13 16L13 15ZM19 17L19 18L20 18L20 17ZM6 18L6 19L7 19L7 18ZM16 19L16 20L15 20L15 21L14 21L14 22L15 22L15 21L16 21L16 20L17 20L17 19ZM35 19L35 20L36 20L36 19ZM2 20L2 25L3 25L3 22L5 22L5 21L4 21L4 20ZM9 20L9 21L10 21L10 20ZM24 20L24 22L25 22L25 20ZM6 21L6 22L7 22L7 21ZM12 21L12 22L13 22L13 21ZM19 21L19 22L20 22L20 21ZM35 21L35 23L36 23L36 24L32 24L32 25L31 25L31 23L30 23L30 25L31 25L31 27L33 27L33 29L32 29L32 31L33 31L33 32L34 32L34 31L35 31L35 29L37 29L37 27L35 27L35 28L34 28L34 27L33 27L33 26L32 26L32 25L37 25L37 26L38 26L38 28L39 28L39 30L40 30L40 28L39 28L39 25L37 25L37 24L39 24L39 23L40 23L40 22L38 22L38 23L37 23L37 22L36 22L36 21ZM10 22L10 23L11 23L11 22ZM33 22L33 23L34 23L34 22ZM6 25L6 26L5 26L5 27L6 27L6 28L5 28L5 29L4 29L4 30L3 30L3 31L4 31L4 30L5 30L5 29L6 29L6 30L7 30L7 29L6 29L6 28L8 28L8 25ZM13 25L13 26L14 26L14 25ZM6 26L6 27L7 27L7 26ZM11 26L11 31L12 31L12 32L13 32L13 34L14 34L14 32L13 32L13 29L12 29L12 26ZM28 26L28 27L29 27L29 26ZM13 27L13 28L14 28L14 27ZM30 28L30 29L31 29L31 28ZM33 29L33 30L34 30L34 29ZM6 32L6 33L7 33L7 32ZM27 32L27 33L26 33L26 35L25 35L25 36L24 36L24 37L23 37L23 38L24 38L24 37L25 37L25 39L24 39L24 40L25 40L25 39L26 39L26 38L27 38L27 37L29 37L29 38L28 38L28 39L31 39L31 38L30 38L30 37L31 37L31 36L32 36L32 35L30 35L30 34L29 34L29 33L28 33L28 32ZM11 33L11 35L12 35L12 33ZM17 33L17 34L18 34L18 33ZM27 33L27 35L29 35L29 34L28 34L28 33ZM33 33L33 36L36 36L36 33ZM34 34L34 35L35 35L35 34ZM22 35L22 36L23 36L23 35ZM9 36L9 37L10 37L10 36ZM25 36L25 37L27 37L27 36ZM16 37L16 38L17 38L17 39L18 39L18 40L19 40L19 39L20 39L20 40L21 40L21 39L20 39L20 38L19 38L19 37L18 37L18 38L17 38L17 37ZM32 37L32 39L33 39L33 37ZM40 37L40 38L38 38L38 39L36 39L36 40L37 40L37 41L40 41L40 40L41 40L41 37ZM18 38L18 39L19 39L19 38ZM14 39L14 40L15 40L15 39ZM0 0L0 7L7 7L7 0ZM1 1L1 6L6 6L6 1ZM2 2L2 5L5 5L5 2ZM34 0L34 7L41 7L41 0ZM35 1L35 6L40 6L40 1ZM36 2L36 5L39 5L39 2ZM0 34L0 41L7 41L7 34ZM1 35L1 40L6 40L6 35ZM2 36L2 39L5 39L5 36Z" fill="#000000"/></g></g></svg>
