<?xml version="1.0" encoding="UTF-8"?>
<svg xmlns="http://www.w3.org/2000/svg" version="1.1" width="200" height="200" viewBox="0 0 200 200"><rect x="0" y="0" width="200" height="200" fill="#ffffff"/><g transform="scale(6.897)"><g transform="translate(0,0)"><path fill-rule="evenodd" d="M10 0L10 3L9 3L9 1L8 1L8 7L9 7L9 4L10 4L10 5L11 5L11 6L10 6L10 7L11 7L11 8L12 8L12 7L13 7L13 10L12 10L12 9L11 9L11 10L10 10L10 8L5 8L5 9L4 9L4 10L3 10L3 11L2 11L2 10L1 10L1 9L0 9L0 10L1 10L1 11L0 11L0 17L1 17L1 18L0 18L0 19L2 19L2 18L3 18L3 17L7 17L7 18L5 18L5 19L7 19L7 20L6 20L6 21L7 21L7 20L8 20L8 24L9 24L9 22L10 22L10 23L12 23L12 24L10 24L10 26L8 26L8 27L9 27L9 29L10 29L10 26L11 26L11 25L12 25L12 29L15 29L15 27L16 27L16 26L17 26L17 27L18 27L18 26L19 26L19 25L18 25L18 24L17 24L17 23L16 23L16 21L18 21L18 23L19 23L19 21L20 21L20 25L25 25L25 23L26 23L26 21L27 21L27 22L28 22L28 23L27 23L27 24L26 24L26 25L27 25L27 24L28 24L28 25L29 25L29 24L28 24L28 23L29 23L29 21L27 21L27 19L26 19L26 20L25 20L25 18L28 18L28 19L29 19L29 18L28 18L28 17L29 17L29 15L28 15L28 16L27 16L27 17L25 17L25 16L22 16L22 15L25 15L25 14L26 14L26 13L27 13L27 14L28 14L28 13L29 13L29 12L27 12L27 11L29 11L29 9L28 9L28 8L23 8L23 10L22 10L22 11L21 11L21 9L22 9L22 8L21 8L21 0L19 0L19 1L20 1L20 2L19 2L19 3L20 3L20 5L19 5L19 4L18 4L18 5L17 5L17 3L18 3L18 2L16 2L16 4L15 4L15 6L14 6L14 4L13 4L13 3L12 3L12 5L11 5L11 0ZM16 0L16 1L18 1L18 0ZM13 1L13 2L14 2L14 3L15 3L15 2L14 2L14 1ZM16 5L16 6L15 6L15 7L14 7L14 6L13 6L13 7L14 7L14 8L15 8L15 7L16 7L16 6L17 6L17 7L18 7L18 11L20 11L20 9L19 9L19 7L20 7L20 6L19 6L19 7L18 7L18 6L17 6L17 5ZM11 6L11 7L12 7L12 6ZM2 8L2 9L3 9L3 8ZM5 9L5 10L4 10L4 11L3 11L3 14L4 14L4 13L6 13L6 14L8 14L8 12L9 12L9 13L10 13L10 12L11 12L11 11L12 11L12 12L13 12L13 13L14 13L14 14L15 14L15 15L14 15L14 16L15 16L15 17L13 17L13 14L12 14L12 17L11 17L11 19L10 19L10 17L9 17L9 20L11 20L11 21L10 21L10 22L12 22L12 23L13 23L13 25L15 25L15 26L16 26L16 25L17 25L17 26L18 26L18 25L17 25L17 24L16 24L16 25L15 25L15 24L14 24L14 23L15 23L15 19L16 19L16 20L17 20L17 19L16 19L16 17L17 17L17 18L18 18L18 21L19 21L19 20L22 20L22 19L21 19L21 15L18 15L18 16L17 16L17 15L16 15L16 14L17 14L17 13L16 13L16 11L17 11L17 10L15 10L15 13L14 13L14 12L13 12L13 11L14 11L14 10L13 10L13 11L12 11L12 10L11 10L11 11L10 11L10 12L9 12L9 9L8 9L8 11L6 11L6 12L5 12L5 10L7 10L7 9ZM26 9L26 10L24 10L24 11L26 11L26 10L28 10L28 9ZM1 12L1 13L2 13L2 12ZM6 12L6 13L7 13L7 12ZM18 12L18 14L22 14L22 12L21 12L21 13L20 13L20 12ZM23 12L23 14L25 14L25 13L24 13L24 12ZM15 13L15 14L16 14L16 13ZM1 14L1 17L2 17L2 14ZM9 14L9 15L11 15L11 14ZM3 15L3 16L4 16L4 15ZM5 15L5 16L8 16L8 15ZM19 16L19 17L20 17L20 16ZM12 17L12 19L11 19L11 20L12 20L12 22L13 22L13 23L14 23L14 21L13 21L13 20L14 20L14 19L15 19L15 18L14 18L14 19L13 19L13 17ZM22 17L22 18L25 18L25 17ZM7 18L7 19L8 19L8 18ZM19 18L19 19L20 19L20 18ZM3 19L3 20L0 20L0 21L5 21L5 20L4 20L4 19ZM23 19L23 20L24 20L24 19ZM21 21L21 24L24 24L24 21ZM22 22L22 23L23 23L23 22ZM21 26L21 29L22 29L22 28L24 28L24 29L26 29L26 28L27 28L27 29L29 29L29 26L27 26L27 27L26 27L26 26L25 26L25 28L24 28L24 26L23 26L23 27L22 27L22 26ZM27 27L27 28L28 28L28 27ZM17 28L17 29L18 29L18 28ZM0 0L0 7L7 7L7 0ZM1 1L1 6L6 6L6 1ZM2 2L2 5L5 5L5 2ZM22 0L22 7L29 7L29 0ZM23 1L23 6L28 6L28 1ZM24 2L24 5L27 5L27 2ZM0 22L0 29L7 29L7 22ZM1 23L1 28L6 28L6 23ZM2 24L2 27L5 27L5 24Z" fill="#000000"/></g></g></svg>
