<?xml version="1.0" encoding="UTF-8"?>
<svg xmlns="http://www.w3.org/2000/svg" version="1.1" width="200" height="200" viewBox="0 0 200 200"><rect x="0" y="0" width="200" height="200" fill="#ffffff"/><g transform="scale(4.878)"><g transform="translate(0,0)"><path fill-rule="evenodd" d="M10 0L10 2L8 2L8 4L9 4L9 3L11 3L11 0ZM12 0L12 3L13 3L13 0ZM14 0L14 1L15 1L15 0ZM16 0L16 2L17 2L17 3L15 3L15 2L14 2L14 3L15 3L15 4L10 4L10 5L9 5L9 6L8 6L8 7L9 7L9 8L10 8L10 7L11 7L11 9L13 9L13 10L14 10L14 11L13 11L13 12L14 12L14 13L15 13L15 12L16 12L16 10L17 10L17 8L20 8L20 9L22 9L22 10L23 10L23 12L21 12L21 10L20 10L20 11L19 11L19 9L18 9L18 11L17 11L17 12L18 12L18 11L19 11L19 13L16 13L16 14L15 14L15 15L14 15L14 16L13 16L13 15L12 15L12 10L11 10L11 11L8 11L8 10L6 10L6 11L5 11L5 10L4 10L4 11L5 11L5 12L1 12L1 11L3 11L3 9L5 9L5 8L3 8L3 9L2 9L2 10L1 10L1 11L0 11L0 13L1 13L1 14L3 14L3 15L1 15L1 16L2 16L2 17L1 17L1 19L3 19L3 20L1 20L1 21L0 21L0 22L1 22L1 23L3 23L3 22L2 22L2 21L4 21L4 20L6 20L6 21L7 21L7 22L6 22L6 23L7 23L7 24L6 24L6 25L5 25L5 24L4 24L4 25L2 25L2 24L1 24L1 26L0 26L0 33L5 33L5 32L6 32L6 33L8 33L8 35L9 35L9 36L8 36L8 38L9 38L9 40L10 40L10 41L12 41L12 40L10 40L10 38L12 38L12 39L13 39L13 38L12 38L12 37L11 37L11 36L12 36L12 34L13 34L13 35L14 35L14 36L13 36L13 37L14 37L14 38L15 38L15 37L16 37L16 38L17 38L17 37L18 37L18 38L19 38L19 37L20 37L20 39L19 39L19 40L17 40L17 41L19 41L19 40L20 40L20 39L21 39L21 40L23 40L23 41L26 41L26 40L23 40L23 39L22 39L22 38L23 38L23 36L26 36L26 37L25 37L25 39L26 39L26 37L27 37L27 39L28 39L28 40L27 40L27 41L29 41L29 39L28 39L28 37L27 37L27 36L26 36L26 35L28 35L28 36L29 36L29 37L30 37L30 38L31 38L31 39L30 39L30 41L34 41L34 40L35 40L35 41L36 41L36 39L37 39L37 40L38 40L38 41L39 41L39 40L38 40L38 39L40 39L40 40L41 40L41 35L40 35L40 34L39 34L39 33L41 33L41 30L39 30L39 31L37 31L37 29L34 29L34 28L35 28L35 24L37 24L37 25L36 25L36 26L37 26L37 25L39 25L39 27L36 27L36 28L38 28L38 29L41 29L41 25L39 25L39 24L37 24L37 23L38 23L38 22L41 22L41 21L39 21L39 20L40 20L40 19L41 19L41 18L40 18L40 17L41 17L41 11L40 11L40 9L39 9L39 8L37 8L37 9L36 9L36 10L37 10L37 11L36 11L36 12L35 12L35 13L36 13L36 14L33 14L33 13L32 13L32 11L33 11L33 10L34 10L34 11L35 11L35 10L34 10L34 9L33 9L33 4L32 4L32 1L33 1L33 0L32 0L32 1L31 1L31 2L30 2L30 1L29 1L29 0L28 0L28 2L27 2L27 1L26 1L26 0L23 0L23 4L24 4L24 5L22 5L22 7L23 7L23 6L24 6L24 9L23 9L23 8L21 8L21 5L20 5L20 4L22 4L22 2L21 2L21 1L20 1L20 0ZM18 1L18 3L19 3L19 4L20 4L20 3L21 3L21 2L19 2L19 1ZM24 1L24 2L25 2L25 1ZM28 2L28 3L29 3L29 5L30 5L30 4L31 4L31 3L29 3L29 2ZM24 3L24 4L25 4L25 5L24 5L24 6L25 6L25 7L26 7L26 6L27 6L27 7L28 7L28 4L26 4L26 3ZM15 4L15 5L14 5L14 6L13 6L13 5L12 5L12 6L11 6L11 7L12 7L12 8L13 8L13 9L14 9L14 10L15 10L15 9L16 9L16 8L15 8L15 7L16 7L16 5L17 5L17 7L18 7L18 5L17 5L17 4ZM19 5L19 7L20 7L20 5ZM31 5L31 7L32 7L32 5ZM9 6L9 7L10 7L10 6ZM12 6L12 7L13 7L13 8L14 8L14 7L15 7L15 6L14 6L14 7L13 7L13 6ZM29 6L29 8L28 8L28 9L29 9L29 10L28 10L28 11L27 11L27 8L26 8L26 9L25 9L25 10L24 10L24 12L25 12L25 14L24 14L24 13L21 13L21 12L20 12L20 14L17 14L17 15L16 15L16 16L18 16L18 17L21 17L21 18L20 18L20 19L17 19L17 18L15 18L15 17L12 17L12 16L11 16L11 14L10 14L10 15L8 15L8 14L9 14L9 12L8 12L8 11L6 11L6 12L5 12L5 13L6 13L6 14L7 14L7 15L5 15L5 14L4 14L4 13L3 13L3 14L4 14L4 17L6 17L6 18L5 18L5 19L6 19L6 20L7 20L7 19L9 19L9 21L10 21L10 23L9 23L9 22L7 22L7 23L8 23L8 24L7 24L7 25L6 25L6 26L7 26L7 27L6 27L6 28L7 28L7 27L8 27L8 29L6 29L6 30L7 30L7 31L6 31L6 32L7 32L7 31L9 31L9 32L8 32L8 33L9 33L9 35L11 35L11 34L12 34L12 33L13 33L13 34L15 34L15 36L14 36L14 37L15 37L15 36L16 36L16 37L17 37L17 36L16 36L16 34L18 34L18 37L19 37L19 35L20 35L20 37L22 37L22 36L23 36L23 35L24 35L24 33L25 33L25 34L27 34L27 33L25 33L25 32L24 32L24 31L26 31L26 32L31 32L31 33L30 33L30 34L29 34L29 33L28 33L28 35L29 35L29 36L30 36L30 37L31 37L31 38L32 38L32 37L31 37L31 36L30 36L30 35L31 35L31 34L32 34L32 32L33 32L33 31L34 31L34 32L36 32L36 30L33 30L33 31L32 31L32 28L33 28L33 27L31 27L31 26L33 26L33 25L30 25L30 24L29 24L29 22L30 22L30 23L31 23L31 24L32 24L32 22L31 22L31 21L30 21L30 20L32 20L32 19L34 19L34 20L35 20L35 17L38 17L38 18L36 18L36 20L38 20L38 18L39 18L39 17L40 17L40 16L34 16L34 17L33 17L33 16L32 16L32 15L28 15L28 13L27 13L27 12L28 12L28 11L30 11L30 9L32 9L32 8L30 8L30 6ZM6 8L6 9L8 9L8 8ZM29 8L29 9L30 9L30 8ZM9 9L9 10L10 10L10 9ZM37 9L37 10L38 10L38 12L39 12L39 13L38 13L38 14L36 14L36 15L40 15L40 11L39 11L39 10L38 10L38 9ZM31 10L31 11L32 11L32 10ZM25 11L25 12L27 12L27 11ZM6 12L6 13L7 13L7 14L8 14L8 13L7 13L7 12ZM10 12L10 13L11 13L11 12ZM29 12L29 14L30 14L30 12ZM36 12L36 13L37 13L37 12ZM20 14L20 16L21 16L21 15L22 15L22 17L23 17L23 16L25 16L25 17L26 17L26 16L25 16L25 15L27 15L27 16L28 16L28 15L27 15L27 14L25 14L25 15L22 15L22 14ZM7 15L7 16L6 16L6 17L7 17L7 18L6 18L6 19L7 19L7 18L9 18L9 19L11 19L11 20L10 20L10 21L11 21L11 20L12 20L12 21L13 21L13 20L14 20L14 19L13 19L13 20L12 20L12 19L11 19L11 18L12 18L12 17L11 17L11 18L10 18L10 17L8 17L8 15ZM18 15L18 16L19 16L19 15ZM30 16L30 17L27 17L27 19L26 19L26 18L25 18L25 20L23 20L23 18L22 18L22 19L20 19L20 20L22 20L22 22L21 22L21 21L20 21L20 22L16 22L16 23L15 23L15 22L13 22L13 23L14 23L14 25L15 25L15 24L16 24L16 23L17 23L17 25L16 25L16 27L14 27L14 26L13 26L13 24L12 24L12 25L11 25L11 26L12 26L12 27L14 27L14 28L12 28L12 30L16 30L16 31L15 31L15 32L13 32L13 33L15 33L15 32L16 32L16 33L18 33L18 32L19 32L19 31L18 31L18 32L16 32L16 31L17 31L17 30L16 30L16 29L15 29L15 28L18 28L18 27L19 27L19 28L20 28L20 27L19 27L19 25L21 25L21 30L20 30L20 29L19 29L19 30L20 30L20 31L21 31L21 32L20 32L20 33L19 33L19 34L20 34L20 35L21 35L21 33L22 33L22 30L23 30L23 31L24 31L24 30L25 30L25 29L24 29L24 30L23 30L23 29L22 29L22 28L25 28L25 27L26 27L26 29L27 29L27 27L28 27L28 30L26 30L26 31L28 31L28 30L29 30L29 31L30 31L30 30L31 30L31 29L29 29L29 27L28 27L28 24L27 24L27 23L28 23L28 21L29 21L29 19L32 19L32 17L31 17L31 16ZM30 17L30 18L31 18L31 17ZM3 18L3 19L4 19L4 18ZM28 18L28 19L27 19L27 20L26 20L26 22L25 22L25 23L24 23L24 22L22 22L22 24L23 24L23 26L22 26L22 27L25 27L25 26L26 26L26 27L27 27L27 25L25 25L25 24L26 24L26 22L27 22L27 20L28 20L28 19L29 19L29 18ZM15 19L15 21L16 21L16 20L17 20L17 19ZM34 21L34 23L36 23L36 21ZM37 21L37 22L38 22L38 21ZM11 22L11 23L10 23L10 24L11 24L11 23L12 23L12 22ZM19 23L19 24L20 24L20 23ZM23 23L23 24L24 24L24 23ZM8 24L8 27L10 27L10 28L9 28L9 30L11 30L11 27L10 27L10 26L9 26L9 24ZM4 25L4 26L5 26L5 25ZM17 25L17 26L18 26L18 25ZM24 25L24 26L25 26L25 25ZM29 25L29 26L30 26L30 25ZM2 26L2 27L1 27L1 28L5 28L5 27L3 27L3 26ZM39 27L39 28L40 28L40 27ZM2 29L2 30L3 30L3 29ZM4 31L4 32L5 32L5 31ZM11 31L11 32L12 32L12 31ZM9 32L9 33L10 33L10 34L11 34L11 33L10 33L10 32ZM37 32L37 33L38 33L38 32ZM33 33L33 36L36 36L36 33ZM22 34L22 35L23 35L23 34ZM34 34L34 35L35 35L35 34ZM37 34L37 38L40 38L40 35L38 35L38 34ZM9 36L9 37L10 37L10 36ZM34 37L34 39L35 39L35 38L36 38L36 37ZM15 39L15 40L16 40L16 39ZM31 39L31 40L33 40L33 39ZM13 40L13 41L14 41L14 40ZM0 0L0 7L7 7L7 0ZM1 1L1 6L6 6L6 1ZM2 2L2 5L5 5L5 2ZM34 0L34 7L41 7L41 0ZM35 1L35 6L40 6L40 1ZM36 2L36 5L39 5L39 2ZM0 34L0 41L7 41L7 34ZM1 35L1 40L6 40L6 35ZM2 36L2 39L5 39L5 36Z" fill="#000000"/></g></g></svg>
