<?xml version="1.0" encoding="UTF-8"?>
<svg xmlns="http://www.w3.org/2000/svg" version="1.1" width="200" height="200" viewBox="0 0 200 200"><rect x="0" y="0" width="200" height="200" fill="#ffffff"/><g transform="scale(6.897)"><g transform="translate(0,0)"><path fill-rule="evenodd" d="M9 0L9 1L8 1L8 7L9 7L9 8L5 8L5 10L4 10L4 9L3 9L3 8L2 8L2 9L1 9L1 12L0 12L0 13L1 13L1 14L0 14L0 15L2 15L2 16L3 16L3 17L2 17L2 18L0 18L0 19L2 19L2 20L0 20L0 21L5 21L5 18L6 18L6 19L7 19L7 20L6 20L6 21L7 21L7 20L8 20L8 24L9 24L9 23L10 23L10 25L11 25L11 26L12 26L12 28L14 28L14 27L15 27L15 29L17 29L17 28L18 28L18 29L19 29L19 28L18 28L18 27L19 27L19 26L20 26L20 27L21 27L21 29L22 29L22 28L24 28L24 29L29 29L29 26L27 26L27 25L28 25L28 24L26 24L26 26L25 26L25 27L26 27L26 26L27 26L27 27L28 27L28 28L24 28L24 26L23 26L23 27L22 27L22 26L21 26L21 25L25 25L25 23L26 23L26 21L27 21L27 19L26 19L26 20L23 20L23 19L25 19L25 18L28 18L28 19L29 19L29 18L28 18L28 17L29 17L29 16L27 16L27 17L25 17L25 16L22 16L22 15L25 15L25 14L26 14L26 13L29 13L29 12L27 12L27 11L29 11L29 9L28 9L28 8L23 8L23 10L22 10L22 11L21 11L21 9L22 9L22 8L21 8L21 0L19 0L19 1L20 1L20 2L19 2L19 3L20 3L20 5L19 5L19 4L18 4L18 5L16 5L16 4L15 4L15 3L16 3L16 2L17 2L17 3L18 3L18 2L17 2L17 1L18 1L18 0L16 0L16 2L15 2L15 3L14 3L14 4L15 4L15 5L14 5L14 7L13 7L13 6L12 6L12 5L11 5L11 3L12 3L12 4L13 4L13 1L14 1L14 0L13 0L13 1L12 1L12 0L11 0L11 3L10 3L10 2L9 2L9 1L10 1L10 0ZM9 4L9 5L10 5L10 6L9 6L9 7L10 7L10 9L6 9L6 10L5 10L5 12L4 12L4 13L3 13L3 12L1 12L1 13L2 13L2 15L3 15L3 16L4 16L4 18L2 18L2 19L3 19L3 20L4 20L4 18L5 18L5 17L6 17L6 18L7 18L7 17L8 17L8 16L10 16L10 17L9 17L9 18L8 18L8 19L9 19L9 22L10 22L10 20L11 20L11 21L14 21L14 22L13 22L13 24L11 24L11 25L12 25L12 26L13 26L13 27L14 27L14 26L15 26L15 27L16 27L16 28L17 28L17 27L18 27L18 22L20 22L20 21L18 21L18 20L14 20L14 18L13 18L13 16L11 16L11 14L12 14L12 15L14 15L14 14L13 14L13 13L11 13L11 10L12 10L12 9L13 9L13 11L12 11L12 12L16 12L16 13L15 13L15 15L18 15L18 11L20 11L20 8L19 8L19 7L20 7L20 6L19 6L19 7L18 7L18 6L17 6L17 7L16 7L16 6L15 6L15 7L14 7L14 9L13 9L13 7L12 7L12 6L11 6L11 5L10 5L10 4ZM10 6L10 7L11 7L11 8L12 8L12 7L11 7L11 6ZM17 7L17 8L16 8L16 9L17 9L17 11L18 11L18 7ZM10 9L10 10L11 10L11 9ZM14 9L14 10L15 10L15 11L16 11L16 10L15 10L15 9ZM25 9L25 10L24 10L24 11L27 11L27 10L28 10L28 9ZM6 10L6 11L7 11L7 12L5 12L5 13L8 13L8 14L11 14L11 13L9 13L9 12L10 12L10 11L9 11L9 10L8 10L8 11L7 11L7 10ZM8 11L8 12L9 12L9 11ZM19 12L19 14L22 14L22 12L21 12L21 13L20 13L20 12ZM23 12L23 14L25 14L25 13L24 13L24 12ZM4 14L4 15L5 15L5 14ZM6 14L6 15L7 15L7 16L6 16L6 17L7 17L7 16L8 16L8 15L7 15L7 14ZM27 14L27 15L29 15L29 14ZM19 15L19 16L18 16L18 17L16 17L16 16L14 16L14 17L15 17L15 18L16 18L16 19L18 19L18 18L20 18L20 19L19 19L19 20L22 20L22 19L21 19L21 15ZM19 16L19 17L20 17L20 16ZM10 17L10 19L11 19L11 17ZM22 17L22 18L25 18L25 17ZM12 19L12 20L13 20L13 19ZM17 21L17 22L16 22L16 23L17 23L17 22L18 22L18 21ZM21 21L21 24L24 24L24 21ZM11 22L11 23L12 23L12 22ZM14 22L14 24L13 24L13 25L14 25L14 24L15 24L15 22ZM22 22L22 23L23 23L23 22ZM28 22L28 23L29 23L29 22ZM19 23L19 24L20 24L20 23ZM16 24L16 25L15 25L15 26L17 26L17 24ZM8 26L8 27L9 27L9 26ZM10 27L10 28L9 28L9 29L10 29L10 28L11 28L11 27ZM0 0L0 7L7 7L7 0ZM1 1L1 6L6 6L6 1ZM2 2L2 5L5 5L5 2ZM22 0L22 7L29 7L29 0ZM23 1L23 6L28 6L28 1ZM24 2L24 5L27 5L27 2ZM0 22L0 29L7 29L7 22ZM1 23L1 28L6 28L6 23ZM2 24L2 27L5 27L5 24Z" fill="#000000"/></g></g></svg>
