<?xml version="1.0" encoding="UTF-8"?>
<svg xmlns="http://www.w3.org/2000/svg" version="1.1" width="200" height="200" viewBox="0 0 200 200"><rect x="0" y="0" width="200" height="200" fill="#ffffff"/><g transform="scale(6.897)"><g transform="translate(0,0)"><path fill-rule="evenodd" d="M9 0L9 2L11 2L11 3L10 3L10 4L8 4L8 5L9 5L9 6L8 6L8 8L6 8L6 9L7 9L7 10L6 10L6 11L5 11L5 9L4 9L4 8L2 8L2 12L1 12L1 14L0 14L0 16L1 16L1 14L3 14L3 15L4 15L4 16L2 16L2 17L4 17L4 16L5 16L5 18L6 18L6 19L8 19L8 20L5 20L5 19L4 19L4 20L5 20L5 21L8 21L8 23L10 23L10 22L11 22L11 23L12 23L12 24L10 24L10 25L11 25L11 26L12 26L12 25L13 25L13 24L14 24L14 25L15 25L15 24L16 24L16 22L17 22L17 24L20 24L20 25L17 25L17 27L18 27L18 28L17 28L17 29L18 29L18 28L19 28L19 29L20 29L20 28L19 28L19 26L20 26L20 25L23 25L23 26L24 26L24 27L22 27L22 29L23 29L23 28L25 28L25 29L27 29L27 28L29 28L29 26L28 26L28 27L27 27L27 25L26 25L26 23L25 23L25 22L26 22L26 20L27 20L27 24L28 24L28 25L29 25L29 21L28 21L28 20L27 20L27 18L29 18L29 17L26 17L26 16L25 16L25 15L24 15L24 16L23 16L23 17L21 17L21 18L20 18L20 17L19 17L19 15L20 15L20 14L21 14L21 13L20 13L20 12L22 12L22 9L23 9L23 13L22 13L22 15L23 15L23 14L24 14L24 13L25 13L25 14L26 14L26 15L27 15L27 16L28 16L28 15L29 15L29 14L28 14L28 15L27 15L27 13L28 13L28 12L29 12L29 11L28 11L28 12L27 12L27 10L29 10L29 9L25 9L25 8L24 8L24 9L23 9L23 8L21 8L21 3L20 3L20 2L18 2L18 1L17 1L17 0L16 0L16 1L17 1L17 2L18 2L18 4L19 4L19 5L15 5L15 6L14 6L14 7L13 7L13 5L14 5L14 4L17 4L17 3L15 3L15 0L13 0L13 1L14 1L14 2L12 2L12 1L11 1L11 0ZM11 3L11 4L10 4L10 5L11 5L11 7L10 7L10 6L9 6L9 9L10 9L10 10L9 10L9 11L6 11L6 12L5 12L5 13L6 13L6 14L8 14L8 15L11 15L11 14L12 14L12 13L13 13L13 12L15 12L15 11L12 11L12 12L11 12L11 13L10 13L10 14L8 14L8 12L9 12L9 11L11 11L11 9L12 9L12 10L13 10L13 9L12 9L12 8L13 8L13 7L12 7L12 3ZM13 3L13 4L14 4L14 3ZM19 3L19 4L20 4L20 3ZM19 5L19 7L18 7L18 6L17 6L17 8L14 8L14 9L15 9L15 10L16 10L16 9L18 9L18 8L19 8L19 10L17 10L17 11L16 11L16 14L15 14L15 13L14 13L14 14L15 14L15 15L14 15L14 16L13 16L13 15L12 15L12 16L13 16L13 17L12 17L12 18L11 18L11 17L10 17L10 18L11 18L11 19L13 19L13 21L14 21L14 22L16 22L16 21L17 21L17 22L18 22L18 23L20 23L20 21L18 21L18 20L20 20L20 18L17 18L17 17L18 17L18 16L16 16L16 14L17 14L17 11L19 11L19 12L20 12L20 11L19 11L19 10L20 10L20 9L21 9L21 8L19 8L19 7L20 7L20 5ZM15 6L15 7L16 7L16 6ZM11 7L11 8L10 8L10 9L11 9L11 8L12 8L12 7ZM3 9L3 10L4 10L4 9ZM24 9L24 10L25 10L25 9ZM0 10L0 11L1 11L1 10ZM25 11L25 13L27 13L27 12L26 12L26 11ZM2 12L2 13L4 13L4 12ZM6 12L6 13L7 13L7 12ZM19 13L19 14L20 14L20 13ZM4 14L4 15L5 15L5 16L7 16L7 17L6 17L6 18L7 18L7 17L8 17L8 18L9 18L9 17L8 17L8 16L7 16L7 15L5 15L5 14ZM14 16L14 17L13 17L13 18L15 18L15 16ZM24 16L24 17L23 17L23 18L22 18L22 19L21 19L21 20L22 20L22 19L24 19L24 20L26 20L26 19L24 19L24 18L26 18L26 17L25 17L25 16ZM0 18L0 19L1 19L1 18ZM9 19L9 20L8 20L8 21L9 21L9 22L10 22L10 21L9 21L9 20L10 20L10 19ZM14 19L14 21L16 21L16 19ZM17 19L17 20L18 20L18 19ZM1 20L1 21L3 21L3 20ZM11 20L11 21L12 21L12 20ZM21 21L21 24L24 24L24 21ZM12 22L12 23L13 23L13 22ZM22 22L22 23L23 23L23 22ZM8 25L8 27L9 27L9 29L11 29L11 28L12 28L12 29L14 29L14 27L16 27L16 26L14 26L14 27L13 27L13 28L12 28L12 27L11 27L11 28L10 28L10 26L9 26L9 25ZM24 25L24 26L25 26L25 28L27 28L27 27L26 27L26 25ZM15 28L15 29L16 29L16 28ZM0 0L0 7L7 7L7 0ZM1 1L1 6L6 6L6 1ZM2 2L2 5L5 5L5 2ZM22 0L22 7L29 7L29 0ZM23 1L23 6L28 6L28 1ZM24 2L24 5L27 5L27 2ZM0 22L0 29L7 29L7 22ZM1 23L1 28L6 28L6 23ZM2 24L2 27L5 27L5 24Z" fill="#000000"/></g></g></svg>
