<?xml version="1.0" encoding="UTF-8"?>
<svg xmlns="http://www.w3.org/2000/svg" version="1.1" width="200" height="200" viewBox="0 0 200 200"><rect x="0" y="0" width="200" height="200" fill="#ffffff"/><g transform="scale(6.897)"><g transform="translate(0,0)"><path fill-rule="evenodd" d="M11 0L11 2L10 2L10 1L9 1L9 2L8 2L8 4L9 4L9 2L10 2L10 3L12 3L12 2L13 2L13 5L14 5L14 4L16 4L16 5L15 5L15 6L14 6L14 7L13 7L13 6L12 6L12 7L13 7L13 8L15 8L15 6L16 6L16 7L17 7L17 8L16 8L16 9L17 9L17 8L19 8L19 9L18 9L18 10L17 10L17 11L16 11L16 10L15 10L15 11L13 11L13 12L12 12L12 13L11 13L11 10L10 10L10 8L11 8L11 9L12 9L12 10L13 10L13 9L12 9L12 8L11 8L11 6L10 6L10 8L9 8L9 9L8 9L8 8L6 8L6 9L7 9L7 10L6 10L6 11L4 11L4 9L5 9L5 8L3 8L3 9L2 9L2 10L0 10L0 11L1 11L1 12L0 12L0 15L1 15L1 16L0 16L0 21L3 21L3 20L2 20L2 19L3 19L3 18L4 18L4 13L5 13L5 14L6 14L6 15L5 15L5 17L7 17L7 18L6 18L6 19L7 19L7 20L5 20L5 19L4 19L4 20L5 20L5 21L8 21L8 23L9 23L9 24L8 24L8 26L9 26L9 27L10 27L10 29L11 29L11 26L9 26L9 25L11 25L11 24L10 24L10 23L9 23L9 21L8 21L8 19L9 19L9 17L10 17L10 19L11 19L11 20L10 20L10 21L11 21L11 22L12 22L12 24L13 24L13 25L12 25L12 26L13 26L13 27L12 27L12 28L13 28L13 29L14 29L14 28L15 28L15 29L18 29L18 27L19 27L19 25L24 25L24 26L25 26L25 27L23 27L23 28L22 28L22 26L21 26L21 27L20 27L20 28L19 28L19 29L20 29L20 28L21 28L21 29L23 29L23 28L24 28L24 29L26 29L26 28L27 28L27 29L28 29L28 28L27 28L27 27L29 27L29 26L27 26L27 25L29 25L29 22L28 22L28 21L26 21L26 18L28 18L28 19L29 19L29 17L28 17L28 16L29 16L29 14L28 14L28 13L29 13L29 11L28 11L28 10L27 10L27 8L25 8L25 9L26 9L26 10L25 10L25 12L24 12L24 16L23 16L23 12L22 12L22 11L21 11L21 10L19 10L19 9L20 9L20 8L19 8L19 6L20 6L20 7L21 7L21 4L19 4L19 3L20 3L20 1L21 1L21 0L19 0L19 1L18 1L18 0L16 0L16 1L14 1L14 0L13 0L13 1L12 1L12 0ZM17 1L17 2L16 2L16 4L17 4L17 5L16 5L16 6L17 6L17 7L18 7L18 6L19 6L19 4L18 4L18 3L19 3L19 2L18 2L18 1ZM14 2L14 3L15 3L15 2ZM10 4L10 5L12 5L12 4ZM8 6L8 7L9 7L9 6ZM22 9L22 10L23 10L23 11L24 11L24 9ZM2 10L2 13L1 13L1 15L2 15L2 17L3 17L3 15L2 15L2 14L3 14L3 10ZM7 10L7 11L6 11L6 12L7 12L7 11L8 11L8 10ZM9 10L9 11L10 11L10 10ZM18 10L18 11L17 11L17 15L16 15L16 17L14 17L14 18L15 18L15 19L16 19L16 20L15 20L15 22L13 22L13 23L15 23L15 22L17 22L17 23L16 23L16 24L15 24L15 26L14 26L14 25L13 25L13 26L14 26L14 27L13 27L13 28L14 28L14 27L15 27L15 28L17 28L17 26L18 26L18 25L19 25L19 24L20 24L20 21L19 21L19 24L18 24L18 25L17 25L17 26L16 26L16 24L17 24L17 23L18 23L18 22L17 22L17 19L19 19L19 18L20 18L20 19L21 19L21 20L22 20L22 19L21 19L21 16L20 16L20 15L21 15L21 14L22 14L22 12L21 12L21 14L20 14L20 15L19 15L19 14L18 14L18 12L19 12L19 13L20 13L20 12L19 12L19 10ZM26 10L26 11L27 11L27 12L28 12L28 11L27 11L27 10ZM15 11L15 12L14 12L14 14L16 14L16 11ZM8 12L8 13L9 13L9 14L8 14L8 15L6 15L6 16L8 16L8 17L9 17L9 15L10 15L10 16L11 16L11 13L10 13L10 12ZM6 13L6 14L7 14L7 13ZM25 13L25 16L26 16L26 17L27 17L27 16L28 16L28 15L27 15L27 16L26 16L26 13ZM12 14L12 16L13 16L13 14ZM14 15L14 16L15 16L15 15ZM17 15L17 17L16 17L16 18L18 18L18 17L19 17L19 15ZM22 16L22 17L23 17L23 16ZM12 17L12 18L11 18L11 19L13 19L13 20L12 20L12 21L14 21L14 19L13 19L13 17ZM7 18L7 19L8 19L8 18ZM23 19L23 20L25 20L25 19ZM21 21L21 24L24 24L24 21ZM22 22L22 23L23 23L23 22ZM25 22L25 25L26 25L26 24L28 24L28 23L27 23L27 22ZM26 26L26 27L25 27L25 28L26 28L26 27L27 27L27 26ZM0 0L0 7L7 7L7 0ZM1 1L1 6L6 6L6 1ZM2 2L2 5L5 5L5 2ZM22 0L22 7L29 7L29 0ZM23 1L23 6L28 6L28 1ZM24 2L24 5L27 5L27 2ZM0 22L0 29L7 29L7 22ZM1 23L1 28L6 28L6 23ZM2 24L2 27L5 27L5 24Z" fill="#000000"/></g></g></svg>
