<?xml version="1.0" encoding="UTF-8"?>
<svg xmlns="http://www.w3.org/2000/svg" version="1.1" width="200" height="200" viewBox="0 0 200 200"><rect x="0" y="0" width="200" height="200" fill="#ffffff"/><g transform="scale(4.878)"><g transform="translate(0,0)"><path fill-rule="evenodd" d="M8 0L8 3L9 3L9 5L8 5L8 9L9 9L9 11L8 11L8 10L6 10L6 9L7 9L7 8L6 8L6 9L5 9L5 8L2 8L2 9L1 9L1 10L4 10L4 12L5 12L5 13L3 13L3 11L2 11L2 12L1 12L1 11L0 11L0 12L1 12L1 14L0 14L0 17L1 17L1 16L2 16L2 17L3 17L3 16L4 16L4 15L2 15L2 14L6 14L6 15L7 15L7 14L8 14L8 15L10 15L10 16L11 16L11 17L13 17L13 18L15 18L15 19L16 19L16 20L17 20L17 21L18 21L18 20L19 20L19 22L21 22L21 23L22 23L22 25L23 25L23 23L24 23L24 24L26 24L26 23L27 23L27 25L25 25L25 26L26 26L26 27L24 27L24 26L22 26L22 27L23 27L23 29L22 29L22 28L21 28L21 24L19 24L19 23L18 23L18 22L16 22L16 21L14 21L14 20L13 20L13 19L12 19L12 18L10 18L10 19L12 19L12 20L9 20L9 18L6 18L6 17L9 17L9 16L6 16L6 17L5 17L5 18L1 18L1 22L3 22L3 21L2 21L2 19L3 19L3 20L6 20L6 21L4 21L4 23L2 23L2 24L3 24L3 25L4 25L4 26L2 26L2 28L1 28L1 27L0 27L0 33L1 33L1 30L2 30L2 33L3 33L3 28L4 28L4 26L5 26L5 28L6 28L6 29L4 29L4 32L6 32L6 33L7 33L7 32L8 32L8 31L9 31L9 30L10 30L10 31L12 31L12 32L9 32L9 33L8 33L8 34L9 34L9 33L11 33L11 34L12 34L12 35L13 35L13 36L12 36L12 38L9 38L9 37L11 37L11 35L9 35L9 36L8 36L8 39L9 39L9 41L11 41L11 40L12 40L12 41L13 41L13 40L12 40L12 38L13 38L13 39L14 39L14 38L15 38L15 41L20 41L20 40L21 40L21 38L22 38L22 37L23 37L23 35L24 35L24 37L25 37L25 36L26 36L26 38L27 38L27 39L24 39L24 40L23 40L23 39L22 39L22 40L23 40L23 41L24 41L24 40L26 40L26 41L32 41L32 40L33 40L33 41L34 41L34 40L33 40L33 39L35 39L35 40L36 40L36 39L37 39L37 40L40 40L40 38L41 38L41 37L39 37L39 36L37 36L37 34L38 34L38 33L39 33L39 35L40 35L40 36L41 36L41 35L40 35L40 34L41 34L41 32L33 32L33 31L32 31L32 30L33 30L33 29L34 29L34 28L33 28L33 29L32 29L32 30L31 30L31 29L30 29L30 28L28 28L28 27L29 27L29 26L30 26L30 25L31 25L31 26L32 26L32 27L31 27L31 28L32 28L32 27L34 27L34 26L35 26L35 27L36 27L36 28L38 28L38 26L39 26L39 31L40 31L40 30L41 30L41 28L40 28L40 26L41 26L41 23L39 23L39 24L40 24L40 26L39 26L39 25L36 25L36 24L37 24L37 20L38 20L38 22L39 22L39 20L38 20L38 19L39 19L39 18L41 18L41 16L40 16L40 17L39 17L39 16L38 16L38 15L39 15L39 14L41 14L41 13L40 13L40 10L41 10L41 8L38 8L38 9L40 9L40 10L37 10L37 9L36 9L36 8L29 8L29 6L28 6L28 5L27 5L27 4L25 4L25 5L24 5L24 4L23 4L23 3L25 3L25 2L23 2L23 1L25 1L25 0L22 0L22 1L21 1L21 0L17 0L17 1L16 1L16 0L14 0L14 1L13 1L13 0L11 0L11 1L10 1L10 0ZM26 0L26 1L27 1L27 2L26 2L26 3L28 3L28 4L29 4L29 3L32 3L32 4L30 4L30 5L32 5L32 4L33 4L33 3L32 3L32 2L33 2L33 1L32 1L32 0L31 0L31 1L32 1L32 2L30 2L30 0L29 0L29 1L27 1L27 0ZM12 1L12 3L11 3L11 2L10 2L10 3L11 3L11 4L12 4L12 3L14 3L14 4L13 4L13 5L15 5L15 3L16 3L16 5L17 5L17 9L16 9L16 11L17 11L17 13L20 13L20 12L18 12L18 11L17 11L17 10L18 10L18 9L19 9L19 10L20 10L20 11L21 11L21 10L20 10L20 9L21 9L21 7L22 7L22 8L23 8L23 9L25 9L25 10L22 10L22 11L24 11L24 12L23 12L23 13L25 13L25 12L27 12L27 11L25 11L25 10L26 10L26 9L25 9L25 7L26 7L26 8L27 8L27 7L28 7L28 6L27 6L27 7L26 7L26 6L25 6L25 7L24 7L24 6L23 6L23 5L22 5L22 4L21 4L21 1L20 1L20 4L19 4L19 3L18 3L18 1L17 1L17 3L16 3L16 2L15 2L15 3L14 3L14 2L13 2L13 1ZM17 3L17 4L18 4L18 5L19 5L19 6L18 6L18 7L19 7L19 9L20 9L20 7L21 7L21 6L20 6L20 5L21 5L21 4L20 4L20 5L19 5L19 4L18 4L18 3ZM10 5L10 6L9 6L9 7L10 7L10 6L11 6L11 8L10 8L10 9L11 9L11 10L10 10L10 11L9 11L9 12L8 12L8 11L6 11L6 10L5 10L5 11L6 11L6 12L7 12L7 13L6 13L6 14L7 14L7 13L9 13L9 12L12 12L12 13L11 13L11 14L10 14L10 15L11 15L11 16L13 16L13 15L15 15L15 14L14 14L14 13L16 13L16 12L15 12L15 11L14 11L14 13L13 13L13 10L12 10L12 9L11 9L11 8L12 8L12 6L11 6L11 5ZM13 6L13 9L14 9L14 6ZM15 6L15 7L16 7L16 6ZM19 6L19 7L20 7L20 6ZM22 6L22 7L23 7L23 8L24 8L24 7L23 7L23 6ZM30 6L30 7L31 7L31 6ZM32 6L32 7L33 7L33 6ZM27 9L27 10L29 10L29 12L28 12L28 13L29 13L29 14L27 14L27 15L26 15L26 14L24 14L24 15L26 15L26 16L25 16L25 17L26 17L26 21L24 21L24 20L23 20L23 21L21 21L21 20L20 20L20 21L21 21L21 22L22 22L22 23L23 23L23 21L24 21L24 23L26 23L26 21L27 21L27 22L28 22L28 21L29 21L29 23L28 23L28 25L27 25L27 26L28 26L28 25L29 25L29 24L30 24L30 22L31 22L31 25L35 25L35 26L36 26L36 25L35 25L35 24L36 24L36 23L35 23L35 22L36 22L36 21L35 21L35 19L36 19L36 20L37 20L37 18L39 18L39 17L38 17L38 16L36 16L36 17L35 17L35 15L36 15L36 13L37 13L37 14L39 14L39 11L38 11L38 12L36 12L36 11L37 11L37 10L36 10L36 9L35 9L35 13L34 13L34 12L33 12L33 11L34 11L34 9L32 9L32 10L31 10L31 9ZM11 10L11 11L12 11L12 10ZM30 10L30 11L31 11L31 10ZM32 10L32 11L33 11L33 10ZM21 12L21 15L19 15L19 18L17 18L17 17L18 17L18 16L17 16L17 17L16 17L16 16L15 16L15 17L16 17L16 18L17 18L17 20L18 20L18 19L19 19L19 18L20 18L20 17L22 17L22 18L21 18L21 19L24 19L24 17L23 17L23 15L22 15L22 12ZM29 12L29 13L30 13L30 14L29 14L29 15L28 15L28 16L29 16L29 17L31 17L31 18L30 18L30 19L31 19L31 20L30 20L30 21L31 21L31 22L32 22L32 23L33 23L33 22L32 22L32 21L34 21L34 22L35 22L35 21L34 21L34 20L33 20L33 19L31 19L31 18L34 18L34 19L35 19L35 17L34 17L34 16L33 16L33 17L31 17L31 15L30 15L30 14L31 14L31 12ZM32 12L32 13L33 13L33 14L32 14L32 15L34 15L34 13L33 13L33 12ZM11 14L11 15L12 15L12 14ZM17 14L17 15L18 15L18 14ZM21 15L21 16L22 16L22 15ZM29 15L29 16L30 16L30 15ZM26 16L26 17L27 17L27 16ZM36 17L36 18L37 18L37 17ZM5 18L5 19L6 19L6 20L7 20L7 21L6 21L6 22L5 22L5 23L6 23L6 24L7 24L7 25L6 25L6 26L7 26L7 27L6 27L6 28L8 28L8 27L9 27L9 28L10 28L10 27L9 27L9 26L10 26L10 25L11 25L11 26L13 26L13 27L16 27L16 28L17 28L17 29L16 29L16 30L15 30L15 28L13 28L13 29L14 29L14 30L13 30L13 31L14 31L14 30L15 30L15 32L16 32L16 30L17 30L17 31L18 31L18 34L17 34L17 33L16 33L16 34L15 34L15 33L13 33L13 35L14 35L14 34L15 34L15 35L16 35L16 37L15 37L15 36L13 36L13 37L15 37L15 38L16 38L16 40L19 40L19 39L20 39L20 38L21 38L21 36L19 36L19 33L20 33L20 34L21 34L21 35L23 35L23 34L24 34L24 35L26 35L26 36L28 36L28 37L27 37L27 38L28 38L28 39L27 39L27 40L30 40L30 39L31 39L31 40L32 40L32 39L33 39L33 38L36 38L36 37L32 37L32 35L31 35L31 34L30 34L30 35L31 35L31 36L29 36L29 33L25 33L25 31L26 31L26 32L27 32L27 31L26 31L26 30L27 30L27 29L28 29L28 30L30 30L30 29L28 29L28 28L27 28L27 27L26 27L26 28L27 28L27 29L23 29L23 31L22 31L22 30L21 30L21 29L20 29L20 28L19 28L19 27L20 27L20 26L19 26L19 25L16 25L16 23L15 23L15 22L14 22L14 23L11 23L11 22L9 22L9 23L8 23L8 24L7 24L7 23L6 23L6 22L7 22L7 21L9 21L9 20L7 20L7 19L6 19L6 18ZM27 18L27 19L29 19L29 18ZM12 20L12 22L13 22L13 20ZM27 20L27 21L28 21L28 20ZM31 20L31 21L32 21L32 20ZM40 20L40 21L41 21L41 20ZM14 23L14 26L15 26L15 23ZM17 23L17 24L18 24L18 23ZM34 23L34 24L35 24L35 23ZM4 24L4 25L5 25L5 24ZM8 24L8 25L9 25L9 24ZM11 24L11 25L13 25L13 24ZM0 25L0 26L1 26L1 25ZM16 26L16 27L17 27L17 28L18 28L18 26ZM11 28L11 29L10 29L10 30L11 30L11 29L12 29L12 28ZM6 29L6 30L7 30L7 31L6 31L6 32L7 32L7 31L8 31L8 29ZM19 29L19 30L18 30L18 31L19 31L19 30L20 30L20 33L22 33L22 32L21 32L21 30L20 30L20 29ZM35 29L35 30L34 30L34 31L35 31L35 30L36 30L36 31L37 31L37 30L38 30L38 29ZM23 31L23 32L24 32L24 31ZM28 31L28 32L30 32L30 33L31 33L31 31ZM24 33L24 34L25 34L25 33ZM33 33L33 36L36 36L36 33ZM26 34L26 35L28 35L28 34ZM34 34L34 35L35 35L35 34ZM17 35L17 36L18 36L18 37L19 37L19 38L18 38L18 39L19 39L19 38L20 38L20 37L19 37L19 36L18 36L18 35ZM28 37L28 38L29 38L29 37ZM30 37L30 38L31 38L31 39L32 39L32 37ZM37 38L37 39L38 39L38 38ZM10 39L10 40L11 40L11 39ZM0 0L0 7L7 7L7 0ZM1 1L1 6L6 6L6 1ZM2 2L2 5L5 5L5 2ZM34 0L34 7L41 7L41 0ZM35 1L35 6L40 6L40 1ZM36 2L36 5L39 5L39 2ZM0 34L0 41L7 41L7 34ZM1 35L1 40L6 40L6 35ZM2 36L2 39L5 39L5 36Z" fill="#000000"/></g></g></svg>
