<?xml version="1.0" encoding="UTF-8"?>
<svg xmlns="http://www.w3.org/2000/svg" version="1.1" width="200" height="200" viewBox="0 0 200 200"><rect x="0" y="0" width="200" height="200" fill="#ffffff"/><g transform="scale(6.897)"><g transform="translate(0,0)"><path fill-rule="evenodd" d="M9 0L9 1L10 1L10 2L8 2L8 4L9 4L9 5L10 5L10 7L11 7L11 6L12 6L12 7L13 7L13 8L14 8L14 9L12 9L12 8L9 8L9 9L11 9L11 10L12 10L12 11L13 11L13 12L11 12L11 13L10 13L10 15L9 15L9 16L10 16L10 17L8 17L8 18L6 18L6 17L7 17L7 16L8 16L8 15L7 15L7 14L6 14L6 15L5 15L5 13L4 13L4 12L3 12L3 11L2 11L2 10L3 10L3 9L4 9L4 10L6 10L6 11L7 11L7 10L8 10L8 8L6 8L6 9L5 9L5 8L3 8L3 9L2 9L2 10L1 10L1 11L2 11L2 12L1 12L1 13L2 13L2 14L0 14L0 16L1 16L1 15L3 15L3 16L6 16L6 17L4 17L4 18L3 18L3 19L2 19L2 17L0 17L0 21L2 21L2 20L4 20L4 21L8 21L8 23L10 23L10 24L8 24L8 26L9 26L9 28L10 28L10 27L11 27L11 29L13 29L13 28L14 28L14 29L15 29L15 28L16 28L16 29L17 29L17 28L18 28L18 29L19 29L19 28L20 28L20 29L21 29L21 27L22 27L22 28L24 28L24 29L25 29L25 28L26 28L26 29L28 29L28 28L27 28L27 27L29 27L29 26L27 26L27 25L28 25L28 24L29 24L29 23L28 23L28 24L26 24L26 25L25 25L25 22L27 22L27 21L26 21L26 20L27 20L27 19L26 19L26 18L29 18L29 17L28 17L28 16L29 16L29 14L27 14L27 13L29 13L29 11L28 11L28 10L27 10L27 8L25 8L25 9L24 9L24 10L23 10L23 9L22 9L22 10L23 10L23 12L22 12L22 11L21 11L21 12L19 12L19 10L18 10L18 9L19 9L19 8L18 8L18 9L17 9L17 10L18 10L18 12L17 12L17 11L13 11L13 10L16 10L16 9L15 9L15 6L16 6L16 8L17 8L17 6L18 6L18 7L19 7L19 6L20 6L20 7L21 7L21 4L20 4L20 3L21 3L21 1L20 1L20 0L15 0L15 1L13 1L13 2L14 2L14 3L15 3L15 2L16 2L16 4L17 4L17 5L14 5L14 7L13 7L13 6L12 6L12 2L11 2L11 1L12 1L12 0L11 0L11 1L10 1L10 0ZM16 1L16 2L17 2L17 4L18 4L18 3L20 3L20 1L19 1L19 2L18 2L18 1ZM10 2L10 5L11 5L11 2ZM8 6L8 7L9 7L9 6ZM20 8L20 10L21 10L21 8ZM6 9L6 10L7 10L7 9ZM25 9L25 10L26 10L26 11L27 11L27 12L28 12L28 11L27 11L27 10L26 10L26 9ZM8 11L8 13L9 13L9 12L10 12L10 11ZM6 12L6 13L7 13L7 12ZM13 12L13 13L12 13L12 14L11 14L11 15L10 15L10 16L11 16L11 17L12 17L12 18L11 18L11 20L12 20L12 21L10 21L10 19L9 19L9 18L8 18L8 19L6 19L6 18L5 18L5 19L4 19L4 20L9 20L9 22L10 22L10 23L11 23L11 24L10 24L10 25L11 25L11 27L12 27L12 28L13 28L13 26L12 26L12 24L13 24L13 25L14 25L14 24L13 24L13 23L14 23L14 22L15 22L15 21L14 21L14 20L13 20L13 19L14 19L14 18L16 18L16 19L15 19L15 20L16 20L16 19L17 19L17 20L18 20L18 21L16 21L16 22L18 22L18 23L16 23L16 26L14 26L14 28L15 28L15 27L16 27L16 26L17 26L17 24L18 24L18 25L19 25L19 27L21 27L21 26L22 26L22 27L25 27L25 26L24 26L24 25L19 25L19 24L20 24L20 20L22 20L22 19L20 19L20 15L21 15L21 18L22 18L22 16L24 16L24 17L23 17L23 18L24 18L24 17L25 17L25 16L26 16L26 17L27 17L27 16L28 16L28 15L27 15L27 16L26 16L26 13L25 13L25 16L24 16L24 12L23 12L23 14L22 14L22 12L21 12L21 14L20 14L20 15L19 15L19 16L18 16L18 14L19 14L19 13L17 13L17 12L16 12L16 13L17 13L17 14L14 14L14 15L13 15L13 13L14 13L14 12ZM3 13L3 15L4 15L4 13ZM6 15L6 16L7 16L7 15ZM12 15L12 17L16 17L16 16L13 16L13 15ZM17 16L17 19L18 19L18 20L19 20L19 19L18 19L18 18L19 18L19 17L18 17L18 16ZM12 18L12 19L13 19L13 18ZM23 19L23 20L26 20L26 19ZM12 21L12 22L11 22L11 23L12 23L12 22L13 22L13 21ZM21 21L21 24L24 24L24 21ZM28 21L28 22L29 22L29 21ZM22 22L22 23L23 23L23 22ZM18 23L18 24L19 24L19 23ZM26 26L26 27L27 27L27 26ZM0 0L0 7L7 7L7 0ZM1 1L1 6L6 6L6 1ZM2 2L2 5L5 5L5 2ZM22 0L22 7L29 7L29 0ZM23 1L23 6L28 6L28 1ZM24 2L24 5L27 5L27 2ZM0 22L0 29L7 29L7 22ZM1 23L1 28L6 28L6 23ZM2 24L2 27L5 27L5 24Z" fill="#000000"/></g></g></svg>
