<?xml version="1.0" encoding="UTF-8"?>
<svg xmlns="http://www.w3.org/2000/svg" version="1.1" width="200" height="200" viewBox="0 0 200 200"><rect x="0" y="0" width="200" height="200" fill="#ffffff"/><g transform="scale(4.878)"><g transform="translate(0,0)"><path fill-rule="evenodd" d="M9 0L9 2L8 2L8 4L9 4L9 5L10 5L10 7L9 7L9 6L8 6L8 7L9 7L9 8L10 8L10 7L11 7L11 9L8 9L8 8L6 8L6 9L8 9L8 11L7 11L7 10L6 10L6 11L4 11L4 10L5 10L5 8L3 8L3 10L1 10L1 9L0 9L0 11L1 11L1 14L0 14L0 16L1 16L1 14L2 14L2 17L3 17L3 19L4 19L4 20L1 20L1 22L0 22L0 23L1 23L1 24L5 24L5 25L3 25L3 26L2 26L2 25L1 25L1 26L0 26L0 28L2 28L2 27L3 27L3 29L2 29L2 30L1 30L1 29L0 29L0 33L3 33L3 31L7 31L7 32L6 32L6 33L8 33L8 35L9 35L9 34L11 34L11 36L10 36L10 37L11 37L11 38L9 38L9 36L8 36L8 38L9 38L9 40L11 40L11 41L12 41L12 40L13 40L13 39L14 39L14 40L15 40L15 41L19 41L19 40L18 40L18 38L16 38L16 39L17 39L17 40L15 40L15 39L14 39L14 38L15 38L15 36L14 36L14 33L13 33L13 31L14 31L14 32L15 32L15 34L16 34L16 32L15 32L15 30L16 30L16 29L17 29L17 28L18 28L18 29L19 29L19 26L18 26L18 25L20 25L20 27L21 27L21 26L23 26L23 28L24 28L24 27L26 27L26 26L23 26L23 23L24 23L24 21L25 21L25 18L24 18L24 19L23 19L23 22L22 22L22 18L23 18L23 17L26 17L26 19L28 19L28 18L29 18L29 19L31 19L31 20L30 20L30 21L31 21L31 22L32 22L32 19L33 19L33 25L32 25L32 23L31 23L31 24L30 24L30 22L29 22L29 21L27 21L27 20L26 20L26 21L27 21L27 22L26 22L26 24L24 24L24 25L26 25L26 24L27 24L27 27L28 27L28 30L27 30L27 28L26 28L26 29L25 29L25 30L24 30L24 32L23 32L23 31L22 31L22 32L23 32L23 33L25 33L25 31L26 31L26 32L27 32L27 33L26 33L26 35L24 35L24 34L22 34L22 33L21 33L21 34L22 34L22 36L20 36L20 35L19 35L19 33L20 33L20 32L21 32L21 31L20 31L20 30L22 30L22 28L20 28L20 30L19 30L19 31L20 31L20 32L18 32L18 30L17 30L17 32L18 32L18 34L17 34L17 35L16 35L16 37L17 37L17 36L18 36L18 37L19 37L19 38L21 38L21 39L22 39L22 40L21 40L21 41L23 41L23 40L24 40L24 39L25 39L25 40L26 40L26 41L27 41L27 40L26 40L26 39L25 39L25 38L27 38L27 39L28 39L28 41L29 41L29 39L28 39L28 36L29 36L29 38L30 38L30 41L34 41L34 40L35 40L35 41L36 41L36 39L37 39L37 40L38 40L38 41L39 41L39 40L38 40L38 39L40 39L40 40L41 40L41 36L40 36L40 34L37 34L37 32L38 32L38 33L41 33L41 30L38 30L38 29L39 29L39 28L41 28L41 25L39 25L39 24L37 24L37 22L41 22L41 21L39 21L39 20L40 20L40 19L41 19L41 18L40 18L40 17L41 17L41 12L40 12L40 9L39 9L39 8L37 8L37 9L35 9L35 10L34 10L34 11L35 11L35 13L36 13L36 15L37 15L37 16L40 16L40 17L39 17L39 18L38 18L38 17L35 17L35 20L34 20L34 19L33 19L33 17L34 17L34 16L35 16L35 14L33 14L33 13L31 13L31 12L30 12L30 10L29 10L29 12L25 12L25 11L26 11L26 10L25 10L25 11L24 11L24 9L27 9L27 11L28 11L28 9L31 9L31 10L32 10L32 11L33 11L33 5L32 5L32 4L33 4L33 3L32 3L32 4L30 4L30 5L29 5L29 3L31 3L31 2L33 2L33 0L32 0L32 1L31 1L31 2L30 2L30 1L29 1L29 0L28 0L28 2L27 2L27 1L26 1L26 0L25 0L25 1L24 1L24 2L25 2L25 3L24 3L24 5L23 5L23 6L22 6L22 7L21 7L21 5L22 5L22 4L23 4L23 1L19 1L19 0L17 0L17 1L16 1L16 0L14 0L14 2L13 2L13 0ZM10 1L10 2L9 2L9 4L11 4L11 3L12 3L12 5L11 5L11 7L12 7L12 5L13 5L13 9L11 9L11 10L10 10L10 14L9 14L9 12L7 12L7 11L6 11L6 12L4 12L4 14L3 14L3 15L4 15L4 14L5 14L5 15L6 15L6 16L11 16L11 18L10 18L10 17L5 17L5 16L4 16L4 19L6 19L6 20L8 20L8 22L9 22L9 23L8 23L8 24L7 24L7 23L5 23L5 22L7 22L7 21L5 21L5 20L4 20L4 21L3 21L3 22L4 22L4 23L5 23L5 24L7 24L7 25L5 25L5 26L4 26L4 27L5 27L5 29L4 29L4 30L5 30L5 29L6 29L6 30L8 30L8 29L9 29L9 28L8 28L8 29L6 29L6 28L7 28L7 27L9 27L9 26L10 26L10 31L8 31L8 33L10 33L10 32L11 32L11 31L12 31L12 30L15 30L15 29L16 29L16 28L17 28L17 27L14 27L14 26L15 26L15 25L14 25L14 26L12 26L12 25L11 25L11 24L9 24L9 23L10 23L10 22L11 22L11 23L12 23L12 24L14 24L14 21L16 21L16 23L17 23L17 24L16 24L16 25L18 25L18 22L19 22L19 23L20 23L20 24L21 24L21 25L22 25L22 24L21 24L21 19L20 19L20 18L21 18L21 17L23 17L23 16L20 16L20 15L19 15L19 14L20 14L20 13L21 13L21 14L22 14L22 13L23 13L23 12L22 12L22 11L23 11L23 9L22 9L22 8L21 8L21 9L20 9L20 10L19 10L19 11L18 11L18 13L19 13L19 14L18 14L18 15L19 15L19 16L18 16L18 17L16 17L16 16L17 16L17 15L16 15L16 14L17 14L17 13L16 13L16 11L17 11L17 10L18 10L18 9L19 9L19 8L20 8L20 5L21 5L21 4L22 4L22 2L19 2L19 7L18 7L18 3L17 3L17 5L16 5L16 4L15 4L15 7L14 7L14 5L13 5L13 4L14 4L14 3L13 3L13 2L11 2L11 1ZM15 1L15 3L16 3L16 1ZM28 2L28 3L29 3L29 2ZM20 3L20 4L21 4L21 3ZM25 3L25 4L26 4L26 6L25 6L25 7L24 7L24 6L23 6L23 7L24 7L24 8L26 8L26 6L27 6L27 9L28 9L28 8L31 8L31 7L32 7L32 5L31 5L31 7L30 7L30 6L29 6L29 7L28 7L28 4L26 4L26 3ZM16 6L16 7L15 7L15 8L16 8L16 9L14 9L14 10L11 10L11 11L14 11L14 12L13 12L13 13L12 13L12 12L11 12L11 16L12 16L12 17L13 17L13 18L11 18L11 19L10 19L10 18L9 18L9 20L10 20L10 21L9 21L9 22L10 22L10 21L11 21L11 22L12 22L12 23L13 23L13 22L12 22L12 20L13 20L13 18L14 18L14 17L13 17L13 16L12 16L12 15L13 15L13 14L14 14L14 15L15 15L15 16L16 16L16 15L15 15L15 14L16 14L16 13L15 13L15 11L16 11L16 10L17 10L17 6ZM37 9L37 10L38 10L38 12L39 12L39 13L38 13L38 14L37 14L37 15L40 15L40 12L39 12L39 10L38 10L38 9ZM14 10L14 11L15 11L15 10ZM21 10L21 11L22 11L22 10ZM35 10L35 11L36 11L36 10ZM2 11L2 12L3 12L3 11ZM19 11L19 12L20 12L20 11ZM6 12L6 13L7 13L7 14L6 14L6 15L8 15L8 13L7 13L7 12ZM21 12L21 13L22 13L22 12ZM24 12L24 15L25 15L25 14L26 14L26 15L28 15L28 16L27 16L27 17L30 17L30 18L31 18L31 17L32 17L32 15L28 15L28 13L27 13L27 14L26 14L26 13L25 13L25 12ZM29 12L29 14L30 14L30 12ZM36 12L36 13L37 13L37 12ZM30 16L30 17L31 17L31 16ZM0 17L0 18L1 18L1 17ZM18 17L18 18L20 18L20 17ZM6 18L6 19L7 19L7 18ZM36 18L36 20L37 20L37 21L38 21L38 20L37 20L37 18ZM11 19L11 20L12 20L12 19ZM15 19L15 20L16 20L16 21L18 21L18 19ZM19 20L19 21L20 21L20 20ZM4 21L4 22L5 22L5 21ZM34 21L34 23L36 23L36 21ZM28 22L28 23L27 23L27 24L28 24L28 27L29 27L29 29L30 29L30 30L28 30L28 31L27 31L27 32L28 32L28 33L29 33L29 32L30 32L30 33L32 33L32 32L33 32L33 31L34 31L34 32L37 32L37 31L35 31L35 30L33 30L33 31L32 31L32 28L33 28L33 27L32 27L32 28L31 28L31 26L32 26L32 25L30 25L30 24L29 24L29 22ZM35 24L35 26L36 26L36 27L35 27L35 28L34 28L34 29L38 29L38 28L36 28L36 27L39 27L39 25L37 25L37 24ZM8 25L8 26L9 26L9 25ZM10 25L10 26L11 26L11 25ZM29 25L29 26L30 26L30 25ZM36 25L36 26L37 26L37 25ZM1 26L1 27L2 27L2 26ZM6 26L6 27L7 27L7 26ZM13 27L13 29L14 29L14 27ZM30 28L30 29L31 29L31 28ZM11 29L11 30L12 30L12 29ZM2 30L2 31L3 31L3 30ZM30 31L30 32L31 32L31 31ZM39 31L39 32L40 32L40 31ZM4 32L4 33L5 33L5 32ZM11 33L11 34L12 34L12 37L14 37L14 36L13 36L13 34L12 34L12 33ZM33 33L33 36L36 36L36 33ZM29 34L29 36L30 36L30 37L31 37L31 36L32 36L32 35L31 35L31 34ZM34 34L34 35L35 35L35 34ZM23 35L23 36L22 36L22 37L21 37L21 38L23 38L23 39L24 39L24 38L25 38L25 37L23 37L23 36L24 36L24 35ZM27 35L27 36L26 36L26 37L27 37L27 36L28 36L28 35ZM30 35L30 36L31 36L31 35ZM37 35L37 38L40 38L40 37L39 37L39 35ZM19 36L19 37L20 37L20 36ZM32 37L32 39L31 39L31 40L33 40L33 39L35 39L35 38L36 38L36 37ZM11 38L11 39L13 39L13 38ZM0 0L0 7L7 7L7 0ZM1 1L1 6L6 6L6 1ZM2 2L2 5L5 5L5 2ZM34 0L34 7L41 7L41 0ZM35 1L35 6L40 6L40 1ZM36 2L36 5L39 5L39 2ZM0 34L0 41L7 41L7 34ZM1 35L1 40L6 40L6 35ZM2 36L2 39L5 39L5 36Z" fill="#000000"/></g></g></svg>
