<?xml version="1.0" encoding="UTF-8"?>
<svg xmlns="http://www.w3.org/2000/svg" version="1.1" width="200" height="200" viewBox="0 0 200 200"><rect x="0" y="0" width="200" height="200" fill="#ffffff"/><g transform="scale(6.897)"><g transform="translate(0,0)"><path fill-rule="evenodd" d="M9 0L9 1L11 1L11 0ZM12 0L12 1L14 1L14 2L13 2L13 6L12 6L12 5L11 5L11 4L12 4L12 3L11 3L11 2L9 2L9 4L8 4L8 5L9 5L9 6L8 6L8 8L6 8L6 9L5 9L5 11L4 11L4 8L2 8L2 9L3 9L3 10L1 10L1 9L0 9L0 10L1 10L1 12L3 12L3 13L2 13L2 14L1 14L1 13L0 13L0 14L1 14L1 15L0 15L0 16L2 16L2 14L4 14L4 17L2 17L2 18L3 18L3 19L4 19L4 17L5 17L5 18L6 18L6 19L5 19L5 20L4 20L4 21L7 21L7 20L8 20L8 19L9 19L9 21L8 21L8 23L9 23L9 25L8 25L8 27L9 27L9 28L11 28L11 29L14 29L14 28L11 28L11 27L15 27L15 29L17 29L17 27L18 27L18 28L19 28L19 29L20 29L20 28L19 28L19 26L20 26L20 25L23 25L23 26L24 26L24 27L22 27L22 29L23 29L23 28L25 28L25 26L24 26L24 25L26 25L26 23L25 23L25 22L26 22L26 20L24 20L24 19L26 19L26 18L29 18L29 17L26 17L26 16L25 16L25 15L24 15L24 16L23 16L23 17L21 17L21 18L20 18L20 17L19 17L19 15L20 15L20 14L21 14L21 13L20 13L20 12L22 12L22 9L23 9L23 13L22 13L22 15L23 15L23 14L24 14L24 13L25 13L25 14L26 14L26 15L27 15L27 16L28 16L28 15L29 15L29 13L28 13L28 12L29 12L29 11L28 11L28 12L27 12L27 11L26 11L26 10L24 10L24 9L25 9L25 8L24 8L24 9L23 9L23 8L21 8L21 3L20 3L20 2L18 2L18 1L16 1L16 2L18 2L18 5L17 5L17 3L16 3L16 5L15 5L15 3L14 3L14 2L15 2L15 0ZM19 3L19 4L20 4L20 3ZM9 4L9 5L10 5L10 4ZM14 5L14 6L13 6L13 7L12 7L12 6L11 6L11 7L10 7L10 6L9 6L9 8L11 8L11 9L10 9L10 10L9 10L9 9L6 9L6 10L9 10L9 11L6 11L6 12L7 12L7 13L6 13L6 14L5 14L5 15L6 15L6 16L7 16L7 15L8 15L8 17L9 17L9 19L10 19L10 22L9 22L9 23L10 23L10 25L9 25L9 26L12 26L12 25L11 25L11 24L12 24L12 22L13 22L13 21L15 21L15 22L16 22L16 21L17 21L17 23L13 23L13 24L14 24L14 25L13 25L13 26L14 26L14 25L15 25L15 26L16 26L16 27L17 27L17 26L19 26L19 25L20 25L20 24L17 24L17 23L18 23L18 21L17 21L17 18L18 18L18 19L19 19L19 20L20 20L20 18L19 18L19 17L18 17L18 16L16 16L16 18L15 18L15 20L14 20L14 18L13 18L13 21L12 21L12 22L11 22L11 20L12 20L12 18L10 18L10 15L12 15L12 16L11 16L11 17L13 17L13 16L14 16L14 17L15 17L15 16L14 16L14 15L18 15L18 14L20 14L20 13L17 13L17 12L20 12L20 11L18 11L18 10L16 10L16 9L18 9L18 8L19 8L19 10L20 10L20 9L21 9L21 8L19 8L19 7L20 7L20 5L19 5L19 7L18 7L18 6L17 6L17 5L16 5L16 6L15 6L15 5ZM14 6L14 7L15 7L15 6ZM16 6L16 7L17 7L17 6ZM11 7L11 8L12 8L12 9L11 9L11 10L10 10L10 11L9 11L9 12L8 12L8 13L7 13L7 14L6 14L6 15L7 15L7 14L8 14L8 15L9 15L9 12L10 12L10 14L11 14L11 13L12 13L12 15L14 15L14 14L15 14L15 13L16 13L16 14L17 14L17 13L16 13L16 12L15 12L15 10L14 10L14 11L12 11L12 9L14 9L14 8L12 8L12 7ZM15 8L15 9L16 9L16 8ZM27 9L27 10L29 10L29 9ZM11 11L11 12L12 12L12 11ZM25 11L25 13L27 13L27 14L28 14L28 13L27 13L27 12L26 12L26 11ZM4 12L4 13L5 13L5 12ZM14 12L14 13L13 13L13 14L14 14L14 13L15 13L15 12ZM24 16L24 17L23 17L23 18L22 18L22 19L21 19L21 20L22 20L22 19L24 19L24 18L26 18L26 17L25 17L25 16ZM6 17L6 18L7 18L7 17ZM0 18L0 19L1 19L1 18ZM6 19L6 20L7 20L7 19ZM1 20L1 21L3 21L3 20ZM27 20L27 21L28 21L28 24L27 24L27 25L28 25L28 24L29 24L29 21L28 21L28 20ZM19 21L19 23L20 23L20 21ZM21 21L21 24L24 24L24 21ZM22 22L22 23L23 23L23 22ZM15 24L15 25L16 25L16 26L17 26L17 24ZM26 26L26 29L27 29L27 28L29 28L29 26L28 26L28 27L27 27L27 26ZM0 0L0 7L7 7L7 0ZM1 1L1 6L6 6L6 1ZM2 2L2 5L5 5L5 2ZM22 0L22 7L29 7L29 0ZM23 1L23 6L28 6L28 1ZM24 2L24 5L27 5L27 2ZM0 22L0 29L7 29L7 22ZM1 23L1 28L6 28L6 23ZM2 24L2 27L5 27L5 24Z" fill="#000000"/></g></g></svg>
