<?xml version="1.0" encoding="UTF-8"?>
<svg xmlns="http://www.w3.org/2000/svg" version="1.1" width="200" height="200" viewBox="0 0 200 200"><rect x="0" y="0" width="200" height="200" fill="#ffffff"/><g transform="scale(6.897)"><g transform="translate(0,0)"><path fill-rule="evenodd" d="M9 0L9 1L10 1L10 0ZM12 0L12 1L11 1L11 2L9 2L9 4L8 4L8 5L9 5L9 6L8 6L8 8L6 8L6 9L5 9L5 11L3 11L3 13L2 13L2 14L1 14L1 13L0 13L0 15L1 15L1 16L0 16L0 17L1 17L1 18L0 18L0 19L1 19L1 18L2 18L2 14L4 14L4 16L3 16L3 18L4 18L4 16L5 16L5 18L6 18L6 19L5 19L5 20L4 20L4 19L3 19L3 20L1 20L1 21L3 21L3 20L4 20L4 21L8 21L8 23L9 23L9 25L8 25L8 27L9 27L9 28L11 28L11 27L15 27L15 29L17 29L17 28L16 28L16 27L18 27L18 28L19 28L19 29L20 29L20 28L19 28L19 26L20 26L20 25L23 25L23 26L24 26L24 27L22 27L22 29L23 29L23 28L25 28L25 29L26 29L26 27L27 27L27 28L29 28L29 26L28 26L28 27L27 27L27 26L26 26L26 27L25 27L25 26L24 26L24 25L26 25L26 23L25 23L25 22L26 22L26 20L27 20L27 22L28 22L28 23L27 23L27 25L28 25L28 23L29 23L29 22L28 22L28 20L27 20L27 18L29 18L29 17L26 17L26 16L25 16L25 15L24 15L24 16L23 16L23 17L21 17L21 18L20 18L20 17L19 17L19 15L20 15L20 14L21 14L21 13L20 13L20 12L22 12L22 9L23 9L23 13L22 13L22 15L23 15L23 14L24 14L24 13L25 13L25 14L26 14L26 15L28 15L28 14L27 14L27 13L28 13L28 12L29 12L29 11L28 11L28 12L27 12L27 11L26 11L26 10L24 10L24 9L25 9L25 8L24 8L24 9L23 9L23 8L21 8L21 3L20 3L20 2L18 2L18 1L17 1L17 0ZM13 1L13 2L14 2L14 3L15 3L15 2L16 2L16 3L17 3L17 5L16 5L16 4L15 4L15 5L16 5L16 6L15 6L15 8L14 8L14 5L13 5L13 3L12 3L12 4L11 4L11 5L12 5L12 6L11 6L11 7L10 7L10 6L9 6L9 7L10 7L10 8L9 8L9 9L10 9L10 10L8 10L8 9L6 9L6 10L7 10L7 11L6 11L6 12L7 12L7 13L6 13L6 14L5 14L5 16L7 16L7 15L8 15L8 17L6 17L6 18L8 18L8 17L9 17L9 19L8 19L8 21L9 21L9 23L10 23L10 22L11 22L11 24L12 24L12 22L13 22L13 23L14 23L14 25L13 25L13 26L15 26L15 27L16 27L16 25L15 25L15 24L18 24L18 21L17 21L17 19L16 19L16 17L17 17L17 18L18 18L18 19L19 19L19 20L20 20L20 18L18 18L18 17L17 17L17 16L18 16L18 14L20 14L20 13L18 13L18 14L16 14L16 13L17 13L17 12L20 12L20 11L18 11L18 10L17 10L17 9L18 9L18 8L19 8L19 10L20 10L20 9L21 9L21 8L19 8L19 7L20 7L20 5L19 5L19 7L18 7L18 6L17 6L17 5L18 5L18 2L16 2L16 1L15 1L15 2L14 2L14 1ZM19 3L19 4L20 4L20 3ZM12 6L12 7L11 7L11 8L10 8L10 9L11 9L11 10L10 10L10 11L8 11L8 13L7 13L7 14L6 14L6 15L7 15L7 14L8 14L8 15L9 15L9 16L10 16L10 17L11 17L11 16L12 16L12 15L13 15L13 16L15 16L15 17L16 17L16 16L17 16L17 15L13 15L13 14L15 14L15 13L14 13L14 12L16 12L16 11L17 11L17 10L16 10L16 9L17 9L17 8L15 8L15 10L14 10L14 11L13 11L13 10L12 10L12 9L11 9L11 8L12 8L12 7L13 7L13 6ZM16 6L16 7L17 7L17 6ZM2 8L2 9L4 9L4 8ZM0 9L0 10L1 10L1 12L2 12L2 10L1 10L1 9ZM27 9L27 10L29 10L29 9ZM11 10L11 11L12 11L12 10ZM15 10L15 11L16 11L16 10ZM25 11L25 13L27 13L27 12L26 12L26 11ZM4 12L4 13L5 13L5 12ZM9 12L9 14L10 14L10 16L11 16L11 15L12 15L12 13L11 13L11 14L10 14L10 12ZM24 16L24 17L23 17L23 18L22 18L22 19L21 19L21 20L22 20L22 19L24 19L24 18L25 18L25 20L26 20L26 17L25 17L25 16ZM13 17L13 18L14 18L14 20L15 20L15 21L13 21L13 19L12 19L12 18L11 18L11 19L12 19L12 20L11 20L11 22L12 22L12 21L13 21L13 22L14 22L14 23L17 23L17 21L16 21L16 20L15 20L15 18L14 18L14 17ZM6 19L6 20L7 20L7 19ZM9 19L9 21L10 21L10 19ZM15 21L15 22L16 22L16 21ZM19 21L19 23L20 23L20 21ZM21 21L21 24L24 24L24 21ZM22 22L22 23L23 23L23 22ZM19 24L19 25L20 25L20 24ZM9 25L9 26L12 26L12 25ZM17 25L17 26L18 26L18 25ZM12 28L12 29L14 29L14 28ZM0 0L0 7L7 7L7 0ZM1 1L1 6L6 6L6 1ZM2 2L2 5L5 5L5 2ZM22 0L22 7L29 7L29 0ZM23 1L23 6L28 6L28 1ZM24 2L24 5L27 5L27 2ZM0 22L0 29L7 29L7 22ZM1 23L1 28L6 28L6 23ZM2 24L2 27L5 27L5 24Z" fill="#000000"/></g></g></svg>
