<?xml version="1.0" encoding="UTF-8"?>
<svg xmlns="http://www.w3.org/2000/svg" version="1.1" width="200" height="200" viewBox="0 0 200 200"><rect x="0" y="0" width="200" height="200" fill="#ffffff"/><g transform="scale(4.878)"><g transform="translate(0,0)"><path fill-rule="evenodd" d="M10 0L10 1L9 1L9 2L8 2L8 4L9 4L9 5L12 5L12 7L11 7L11 6L10 6L10 7L9 7L9 6L8 6L8 7L9 7L9 9L10 9L10 10L8 10L8 8L6 8L6 9L5 9L5 8L3 8L3 9L2 9L2 10L3 10L3 11L1 11L1 10L0 10L0 11L1 11L1 12L2 12L2 14L1 14L1 15L0 15L0 17L1 17L1 21L0 21L0 22L1 22L1 23L2 23L2 24L1 24L1 25L0 25L0 26L1 26L1 28L0 28L0 33L2 33L2 32L3 32L3 33L4 33L4 32L3 32L3 30L4 30L4 31L5 31L5 33L7 33L7 32L6 32L6 31L8 31L8 30L9 30L9 32L8 32L8 35L9 35L9 36L8 36L8 38L10 38L10 41L11 41L11 39L12 39L12 41L15 41L15 40L18 40L18 41L20 41L20 40L19 40L19 39L22 39L22 40L21 40L21 41L22 41L22 40L23 40L23 41L24 41L24 40L25 40L25 41L27 41L27 39L28 39L28 41L29 41L29 37L30 37L30 38L31 38L31 39L30 39L30 41L34 41L34 40L35 40L35 41L36 41L36 39L37 39L37 40L38 40L38 41L39 41L39 40L38 40L38 39L40 39L40 40L41 40L41 36L40 36L40 34L39 34L39 33L41 33L41 30L39 30L39 31L38 31L38 32L37 32L37 29L34 29L34 28L38 28L38 29L40 29L40 27L41 27L41 25L39 25L39 24L37 24L37 23L39 23L39 22L41 22L41 21L39 21L39 20L40 20L40 19L41 19L41 18L40 18L40 19L39 19L39 18L38 18L38 17L35 17L35 20L34 20L34 19L32 19L32 18L33 18L33 17L34 17L34 16L35 16L35 14L33 14L33 13L32 13L32 11L33 11L33 10L34 10L34 11L35 11L35 13L36 13L36 15L37 15L37 16L40 16L40 17L41 17L41 11L40 11L40 9L39 9L39 8L37 8L37 9L36 9L36 10L37 10L37 11L35 11L35 10L34 10L34 9L33 9L33 10L32 10L32 8L33 8L33 4L29 4L29 5L28 5L28 7L29 7L29 6L30 6L30 8L29 8L29 9L28 9L28 8L27 8L27 5L26 5L26 4L28 4L28 2L29 2L29 3L31 3L31 2L32 2L32 3L33 3L33 0L32 0L32 1L31 1L31 2L30 2L30 1L29 1L29 0L28 0L28 2L27 2L27 1L26 1L26 0L24 0L24 1L23 1L23 0L21 0L21 1L22 1L22 3L19 3L19 1L18 1L18 0L16 0L16 1L15 1L15 0L14 0L14 1L12 1L12 3L13 3L13 4L14 4L14 8L13 8L13 5L12 5L12 4L10 4L10 3L11 3L11 0ZM16 1L16 2L17 2L17 3L16 3L16 4L15 4L15 5L17 5L17 4L19 4L19 5L18 5L18 6L17 6L17 7L16 7L16 6L15 6L15 7L16 7L16 10L17 10L17 11L19 11L19 12L17 12L17 14L18 14L18 13L19 13L19 12L20 12L20 11L21 11L21 12L22 12L22 13L23 13L23 12L25 12L25 13L26 13L26 12L25 12L25 11L26 11L26 10L25 10L25 9L22 9L22 8L24 8L24 6L23 6L23 7L22 7L22 5L24 5L24 4L23 4L23 3L24 3L24 2L25 2L25 1L24 1L24 2L23 2L23 3L22 3L22 5L21 5L21 4L19 4L19 3L18 3L18 1ZM13 2L13 3L14 3L14 2ZM25 3L25 4L26 4L26 3ZM25 5L25 8L26 8L26 9L27 9L27 8L26 8L26 5ZM30 5L30 6L31 6L31 8L32 8L32 5ZM18 6L18 7L17 7L17 10L21 10L21 11L22 11L22 10L21 10L21 6L20 6L20 7L19 7L19 6ZM10 7L10 9L11 9L11 7ZM3 9L3 10L4 10L4 9ZM6 9L6 10L7 10L7 9ZM12 9L12 10L11 10L11 11L10 11L10 12L8 12L8 13L4 13L4 12L3 12L3 13L4 13L4 14L3 14L3 15L1 15L1 16L4 16L4 18L5 18L5 19L3 19L3 18L2 18L2 21L1 21L1 22L2 22L2 23L3 23L3 24L2 24L2 25L1 25L1 26L2 26L2 27L5 27L5 26L2 26L2 25L3 25L3 24L4 24L4 25L6 25L6 26L9 26L9 30L11 30L11 29L12 29L12 32L11 32L11 31L10 31L10 32L9 32L9 33L12 33L12 34L11 34L11 35L10 35L10 34L9 34L9 35L10 35L10 37L11 37L11 38L13 38L13 40L14 40L14 38L15 38L15 37L14 37L14 36L13 36L13 35L14 35L14 34L16 34L16 33L17 33L17 35L15 35L15 36L17 36L17 37L16 37L16 38L17 38L17 39L19 39L19 37L20 37L20 38L21 38L21 36L23 36L23 38L24 38L24 37L25 37L25 39L26 39L26 38L27 38L27 37L28 37L28 35L26 35L26 32L28 32L28 33L29 33L29 32L31 32L31 33L30 33L30 34L29 34L29 36L30 36L30 37L31 37L31 38L32 38L32 37L31 37L31 36L30 36L30 35L31 35L31 34L32 34L32 32L33 32L33 31L34 31L34 32L35 32L35 31L36 31L36 30L33 30L33 31L32 31L32 28L31 28L31 26L32 26L32 27L33 27L33 26L32 26L32 25L33 25L33 24L35 24L35 23L36 23L36 21L34 21L34 23L33 23L33 22L31 22L31 21L30 21L30 20L31 20L31 19L29 19L29 18L28 18L28 21L29 21L29 22L28 22L28 27L27 27L27 26L26 26L26 27L27 27L27 28L29 28L29 29L30 29L30 30L28 30L28 29L26 29L26 28L24 28L24 27L25 27L25 25L27 25L27 24L26 24L26 23L27 23L27 21L26 21L26 23L25 23L25 20L27 20L27 19L25 19L25 18L26 18L26 17L30 17L30 18L31 18L31 17L32 17L32 15L31 15L31 14L30 14L30 12L31 12L31 11L32 11L32 10L31 10L31 9L29 9L29 10L28 10L28 11L27 11L27 14L24 14L24 15L23 15L23 16L22 16L22 14L19 14L19 15L21 15L21 16L20 16L20 17L19 17L19 16L18 16L18 17L19 17L19 18L17 18L17 21L16 21L16 20L15 20L15 19L16 19L16 16L13 16L13 18L12 18L12 20L13 20L13 21L11 21L11 17L12 17L12 16L11 16L11 15L12 15L12 13L14 13L14 14L13 14L13 15L15 15L15 14L16 14L16 13L15 13L15 12L16 12L16 11L15 11L15 12L13 12L13 9ZM14 9L14 10L15 10L15 9ZM37 9L37 10L38 10L38 12L39 12L39 13L40 13L40 11L39 11L39 10L38 10L38 9ZM24 10L24 11L25 11L25 10ZM29 10L29 11L28 11L28 15L26 15L26 16L28 16L28 15L30 15L30 14L29 14L29 12L30 12L30 10ZM5 11L5 12L7 12L7 11ZM11 11L11 13L12 13L12 11ZM36 12L36 13L37 13L37 12ZM9 13L9 15L8 15L8 14L5 14L5 15L4 15L4 16L5 16L5 17L8 17L8 18L9 18L9 20L8 20L8 19L7 19L7 18L6 18L6 19L7 19L7 20L5 20L5 21L7 21L7 20L8 20L8 22L9 22L9 24L8 24L8 23L7 23L7 22L6 22L6 23L7 23L7 24L6 24L6 25L9 25L9 24L10 24L10 25L11 25L11 26L10 26L10 29L11 29L11 27L12 27L12 28L13 28L13 29L14 29L14 30L15 30L15 29L18 29L18 28L19 28L19 29L20 29L20 31L21 31L21 27L20 27L20 25L22 25L22 27L23 27L23 26L24 26L24 25L22 25L22 23L21 23L21 22L18 22L18 21L17 21L17 22L16 22L16 25L15 25L15 24L14 24L14 25L13 25L13 24L12 24L12 23L15 23L15 20L14 20L14 18L13 18L13 20L14 20L14 21L13 21L13 22L11 22L11 21L10 21L10 15L11 15L11 14L10 14L10 13ZM37 14L37 15L38 15L38 14ZM5 15L5 16L8 16L8 17L9 17L9 16L8 16L8 15ZM24 15L24 16L23 16L23 17L22 17L22 16L21 16L21 18L19 18L19 19L21 19L21 18L24 18L24 17L25 17L25 15ZM30 16L30 17L31 17L31 16ZM36 18L36 20L38 20L38 19L37 19L37 18ZM23 19L23 20L25 20L25 19ZM3 20L3 21L4 21L4 20ZM19 20L19 21L20 21L20 20ZM21 20L21 21L22 21L22 22L24 22L24 21L22 21L22 20ZM37 21L37 22L38 22L38 21ZM4 22L4 23L5 23L5 22ZM10 22L10 23L11 23L11 22ZM17 22L17 23L18 23L18 24L21 24L21 23L18 23L18 22ZM29 22L29 24L31 24L31 25L29 25L29 26L31 26L31 25L32 25L32 24L31 24L31 23L30 23L30 22ZM23 23L23 24L25 24L25 23ZM11 24L11 25L12 25L12 27L13 27L13 28L15 28L15 27L16 27L16 28L17 28L17 27L19 27L19 28L20 28L20 27L19 27L19 25L16 25L16 26L15 26L15 27L13 27L13 25L12 25L12 24ZM36 24L36 25L37 25L37 27L39 27L39 25L37 25L37 24ZM16 26L16 27L17 27L17 26ZM6 27L6 28L7 28L7 29L5 29L5 28L4 28L4 29L5 29L5 31L6 31L6 30L7 30L7 29L8 29L8 28L7 28L7 27ZM2 28L2 30L3 30L3 28ZM23 28L23 29L22 29L22 30L23 30L23 31L24 31L24 32L23 32L23 33L22 33L22 32L21 32L21 33L19 33L19 31L18 31L18 30L17 30L17 31L16 31L16 32L17 32L17 31L18 31L18 33L19 33L19 35L20 35L20 36L21 36L21 35L24 35L24 36L25 36L25 37L26 37L26 36L25 36L25 35L24 35L24 34L25 34L25 33L24 33L24 32L26 32L26 31L28 31L28 30L26 30L26 31L24 31L24 30L25 30L25 29L24 29L24 28ZM30 28L30 29L31 29L31 28ZM23 29L23 30L24 30L24 29ZM30 30L30 31L31 31L31 30ZM14 31L14 33L15 33L15 31ZM39 31L39 32L40 32L40 31ZM12 32L12 33L13 33L13 32ZM21 33L21 34L22 34L22 33ZM23 33L23 34L24 34L24 33ZM33 33L33 36L36 36L36 33ZM37 33L37 34L38 34L38 33ZM12 34L12 35L13 35L13 34ZM34 34L34 35L35 35L35 34ZM38 35L38 37L37 37L37 38L40 38L40 36L39 36L39 35ZM11 36L11 37L12 37L12 36ZM18 36L18 37L17 37L17 38L18 38L18 37L19 37L19 36ZM34 37L34 39L35 39L35 38L36 38L36 37ZM31 39L31 40L33 40L33 39ZM0 0L0 7L7 7L7 0ZM1 1L1 6L6 6L6 1ZM2 2L2 5L5 5L5 2ZM34 0L34 7L41 7L41 0ZM35 1L35 6L40 6L40 1ZM36 2L36 5L39 5L39 2ZM0 34L0 41L7 41L7 34ZM1 35L1 40L6 40L6 35ZM2 36L2 39L5 39L5 36Z" fill="#000000"/></g></g></svg>
