<?xml version="1.0" encoding="UTF-8"?>
<svg xmlns="http://www.w3.org/2000/svg" version="1.1" width="200" height="200" viewBox="0 0 200 200"><rect x="0" y="0" width="200" height="200" fill="#ffffff"/><g transform="scale(4.878)"><g transform="translate(0,0)"><path fill-rule="evenodd" d="M9 0L9 1L10 1L10 2L8 2L8 4L9 4L9 3L10 3L10 2L13 2L13 0ZM16 0L16 2L15 2L15 1L14 1L14 4L13 4L13 3L11 3L11 5L9 5L9 6L8 6L8 7L9 7L9 8L10 8L10 9L12 9L12 10L13 10L13 11L12 11L12 12L13 12L13 11L15 11L15 10L16 10L16 11L17 11L17 10L18 10L18 11L19 11L19 12L20 12L20 13L19 13L19 14L18 14L18 13L16 13L16 14L15 14L15 13L14 13L14 14L15 14L15 15L19 15L19 14L20 14L20 15L21 15L21 16L19 16L19 17L17 17L17 18L16 18L16 19L14 19L14 20L13 20L13 19L12 19L12 18L13 18L13 17L14 17L14 18L15 18L15 17L16 17L16 16L15 16L15 17L14 17L14 15L13 15L13 14L12 14L12 16L11 16L11 14L10 14L10 16L11 16L11 17L12 17L12 18L9 18L9 17L8 17L8 16L9 16L9 14L8 14L8 13L7 13L7 12L8 12L8 11L9 11L9 12L10 12L10 13L11 13L11 12L10 12L10 11L11 11L11 10L8 10L8 8L6 8L6 9L7 9L7 10L6 10L6 11L3 11L3 10L4 10L4 9L5 9L5 8L3 8L3 9L2 9L2 10L1 10L1 11L0 11L0 12L1 12L1 14L0 14L0 16L1 16L1 17L0 17L0 18L1 18L1 19L0 19L0 20L1 20L1 21L3 21L3 20L6 20L6 21L9 21L9 20L6 20L6 19L8 19L8 18L9 18L9 19L12 19L12 20L10 20L10 22L12 22L12 21L14 21L14 24L13 24L13 25L12 25L12 23L11 23L11 25L12 25L12 27L11 27L11 28L10 28L10 27L8 27L8 26L5 26L5 27L8 27L8 28L5 28L5 29L8 29L8 30L9 30L9 31L10 31L10 32L13 32L13 33L12 33L12 34L13 34L13 35L14 35L14 36L15 36L15 38L13 38L13 36L11 36L11 35L10 35L10 36L8 36L8 38L9 38L9 41L12 41L12 38L13 38L13 41L14 41L14 39L16 39L16 41L25 41L25 40L26 40L26 41L29 41L29 39L31 39L31 40L30 40L30 41L31 41L31 40L32 40L32 41L34 41L34 40L35 40L35 41L36 41L36 39L37 39L37 40L38 40L38 41L39 41L39 40L38 40L38 39L40 39L40 40L41 40L41 35L40 35L40 34L37 34L37 33L39 33L39 32L40 32L40 33L41 33L41 30L38 30L38 29L40 29L40 28L41 28L41 25L39 25L39 24L37 24L37 23L39 23L39 22L41 22L41 21L39 21L39 20L40 20L40 19L41 19L41 18L40 18L40 19L39 19L39 18L37 18L37 17L38 17L38 16L40 16L40 17L41 17L41 12L40 12L40 13L39 13L39 12L38 12L38 10L39 10L39 11L40 11L40 9L39 9L39 8L37 8L37 9L36 9L36 10L34 10L34 9L33 9L33 6L32 6L32 7L31 7L31 6L30 6L30 5L33 5L33 4L29 4L29 6L28 6L28 7L29 7L29 6L30 6L30 8L29 8L29 9L27 9L27 8L26 8L26 9L25 9L25 6L26 6L26 7L27 7L27 6L26 6L26 4L28 4L28 2L29 2L29 3L31 3L31 2L32 2L32 3L33 3L33 1L31 1L31 0L30 0L30 1L29 1L29 0L28 0L28 2L27 2L27 1L26 1L26 0L25 0L25 2L24 2L24 1L23 1L23 0L18 0L18 1L17 1L17 0ZM20 1L20 2L19 2L19 3L18 3L18 2L16 2L16 4L17 4L17 3L18 3L18 6L17 6L17 5L16 5L16 6L15 6L15 4L14 4L14 6L13 6L13 7L12 7L12 6L11 6L11 7L10 7L10 6L9 6L9 7L10 7L10 8L12 8L12 9L13 9L13 10L15 10L15 9L16 9L16 10L17 10L17 9L18 9L18 8L19 8L19 11L20 11L20 12L21 12L21 11L20 11L20 10L21 10L21 9L22 9L22 11L23 11L23 12L22 12L22 14L23 14L23 12L24 12L24 15L23 15L23 16L24 16L24 17L25 17L25 18L23 18L23 19L24 19L24 21L23 21L23 22L22 22L22 23L21 23L21 22L20 22L20 21L22 21L22 20L20 20L20 19L22 19L22 16L21 16L21 17L19 17L19 18L17 18L17 19L19 19L19 20L20 20L20 21L19 21L19 23L20 23L20 25L19 25L19 26L20 26L20 25L21 25L21 27L20 27L20 28L19 28L19 27L18 27L18 28L17 28L17 26L15 26L15 25L18 25L18 23L17 23L17 22L16 22L16 20L15 20L15 23L16 23L16 24L14 24L14 25L13 25L13 26L15 26L15 27L12 27L12 28L11 28L11 30L10 30L10 29L9 29L9 28L8 28L8 29L9 29L9 30L10 30L10 31L12 31L12 28L15 28L15 27L16 27L16 28L17 28L17 29L18 29L18 30L19 30L19 33L20 33L20 34L21 34L21 35L19 35L19 36L20 36L20 37L17 37L17 35L18 35L18 33L17 33L17 32L16 32L16 34L15 34L15 36L16 36L16 37L17 37L17 38L16 38L16 39L18 39L18 40L21 40L21 39L20 39L20 38L21 38L21 37L22 37L22 38L23 38L23 35L24 35L24 37L25 37L25 39L24 39L24 40L25 40L25 39L26 39L26 40L28 40L28 39L29 39L29 38L30 38L30 37L31 37L31 38L32 38L32 40L33 40L33 39L35 39L35 38L36 38L36 37L33 37L33 38L32 38L32 37L31 37L31 36L32 36L32 35L31 35L31 33L32 33L32 32L33 32L33 31L34 31L34 32L35 32L35 31L36 31L36 29L38 29L38 28L36 28L36 27L39 27L39 28L40 28L40 27L39 27L39 25L37 25L37 24L35 24L35 28L34 28L34 29L35 29L35 30L33 30L33 31L32 31L32 27L33 27L33 26L32 26L32 25L33 25L33 24L34 24L34 23L36 23L36 21L34 21L34 23L32 23L32 22L31 22L31 21L30 21L30 20L33 20L33 19L34 19L34 20L35 20L35 17L37 17L37 16L38 16L38 14L36 14L36 13L37 13L37 12L36 12L36 13L35 13L35 11L34 11L34 10L33 10L33 11L32 11L32 10L31 10L31 9L32 9L32 8L31 8L31 9L30 9L30 10L31 10L31 11L30 11L30 12L29 12L29 10L28 10L28 12L29 12L29 15L28 15L28 13L27 13L27 14L25 14L25 13L26 13L26 12L25 12L25 11L26 11L26 10L27 10L27 9L26 9L26 10L24 10L24 11L23 11L23 8L22 8L22 5L23 5L23 7L24 7L24 6L25 6L25 5L23 5L23 4L24 4L24 2L23 2L23 1L22 1L22 2L23 2L23 4L22 4L22 3L21 3L21 1ZM30 1L30 2L31 2L31 1ZM25 3L25 4L26 4L26 3ZM12 4L12 5L13 5L13 4ZM19 4L19 5L20 5L20 9L21 9L21 4ZM14 6L14 7L13 7L13 8L14 8L14 9L15 9L15 8L14 8L14 7L15 7L15 6ZM16 6L16 7L17 7L17 8L16 8L16 9L17 9L17 8L18 8L18 7L19 7L19 6L18 6L18 7L17 7L17 6ZM37 9L37 10L38 10L38 9ZM1 11L1 12L3 12L3 11ZM6 11L6 12L4 12L4 13L3 13L3 14L2 14L2 15L1 15L1 16L2 16L2 17L1 17L1 18L2 18L2 19L1 19L1 20L3 20L3 19L6 19L6 18L8 18L8 17L5 17L5 18L4 18L4 17L3 17L3 15L4 15L4 16L8 16L8 15L6 15L6 14L7 14L7 13L6 13L6 12L7 12L7 11ZM30 12L30 14L31 14L31 15L30 15L30 17L27 17L27 18L26 18L26 19L27 19L27 23L26 23L26 27L25 27L25 26L24 26L24 23L25 23L25 22L24 22L24 23L23 23L23 24L21 24L21 25L23 25L23 26L22 26L22 28L25 28L25 29L26 29L26 27L27 27L27 29L28 29L28 30L27 30L27 31L28 31L28 30L29 30L29 31L30 31L30 30L31 30L31 29L29 29L29 27L28 27L28 25L27 25L27 23L28 23L28 24L30 24L30 25L29 25L29 26L30 26L30 25L32 25L32 24L31 24L31 22L29 22L29 21L28 21L28 18L29 18L29 19L33 19L33 18L32 18L32 17L31 17L31 15L32 15L32 16L33 16L33 17L34 17L34 16L35 16L35 14L33 14L33 13L32 13L32 12ZM5 13L5 14L6 14L6 13ZM20 13L20 14L21 14L21 13ZM25 15L25 17L26 17L26 16L28 16L28 15ZM36 15L36 16L37 16L37 15ZM12 16L12 17L13 17L13 16ZM2 17L2 18L3 18L3 17ZM30 17L30 18L31 18L31 17ZM19 18L19 19L20 19L20 18ZM36 18L36 20L37 20L37 21L38 21L38 20L37 20L37 18ZM17 20L17 21L18 21L18 20ZM25 20L25 21L26 21L26 20ZM1 22L1 23L2 23L2 24L1 24L1 25L0 25L0 26L2 26L2 29L3 29L3 32L4 32L4 33L5 33L5 32L4 32L4 31L7 31L7 32L6 32L6 33L8 33L8 35L9 35L9 34L11 34L11 33L8 33L8 31L7 31L7 30L4 30L4 29L3 29L3 28L4 28L4 25L3 25L3 23L2 23L2 22ZM6 22L6 23L7 23L7 24L5 24L5 25L7 25L7 24L8 24L8 25L10 25L10 23L7 23L7 22ZM36 25L36 26L37 26L37 25ZM31 26L31 27L32 27L32 26ZM0 27L0 28L1 28L1 27ZM18 28L18 29L19 29L19 30L20 30L20 33L21 33L21 34L22 34L22 35L21 35L21 36L22 36L22 35L23 35L23 34L24 34L24 33L25 33L25 36L26 36L26 37L27 37L27 39L28 39L28 36L29 36L29 37L30 37L30 36L31 36L31 35L30 35L30 36L29 36L29 35L28 35L28 33L29 33L29 34L30 34L30 33L31 33L31 32L26 32L26 33L25 33L25 32L24 32L24 31L26 31L26 30L24 30L24 29L23 29L23 30L24 30L24 31L23 31L23 32L24 32L24 33L23 33L23 34L22 34L22 33L21 33L21 31L22 31L22 30L21 30L21 28L20 28L20 29L19 29L19 28ZM35 28L35 29L36 29L36 28ZM0 29L0 33L2 33L2 30L1 30L1 29ZM14 29L14 30L13 30L13 32L15 32L15 29ZM16 30L16 31L17 31L17 30ZM37 30L37 32L38 32L38 30ZM13 33L13 34L14 34L14 33ZM33 33L33 36L36 36L36 33ZM34 34L34 35L35 35L35 34ZM26 35L26 36L27 36L27 35ZM38 35L38 37L37 37L37 38L40 38L40 35ZM10 36L10 37L9 37L9 38L10 38L10 37L11 37L11 38L12 38L12 37L11 37L11 36ZM10 39L10 40L11 40L11 39ZM0 0L0 7L7 7L7 0ZM1 1L1 6L6 6L6 1ZM2 2L2 5L5 5L5 2ZM34 0L34 7L41 7L41 0ZM35 1L35 6L40 6L40 1ZM36 2L36 5L39 5L39 2ZM0 34L0 41L7 41L7 34ZM1 35L1 40L6 40L6 35ZM2 36L2 39L5 39L5 36Z" fill="#000000"/></g></g></svg>
