<?xml version="1.0" encoding="UTF-8"?>
<svg xmlns="http://www.w3.org/2000/svg" version="1.1" width="200" height="200" viewBox="0 0 200 200"><rect x="0" y="0" width="200" height="200" fill="#ffffff"/><g transform="scale(6.897)"><g transform="translate(0,0)"><path fill-rule="evenodd" d="M9 0L9 1L11 1L11 2L10 2L10 3L11 3L11 4L9 4L9 2L8 2L8 4L9 4L9 6L8 6L8 7L9 7L9 9L10 9L10 8L11 8L11 6L10 6L10 5L11 5L11 4L12 4L12 8L13 8L13 6L14 6L14 9L15 9L15 10L14 10L14 14L15 14L15 15L13 15L13 16L14 16L14 17L15 17L15 15L16 15L16 14L17 14L17 12L18 12L18 15L20 15L20 16L21 16L21 19L20 19L20 18L19 18L19 17L18 17L18 16L17 16L17 17L16 17L16 18L19 18L19 21L18 21L18 20L17 20L17 22L16 22L16 20L15 20L15 19L14 19L14 18L13 18L13 17L11 17L11 16L12 16L12 15L11 15L11 16L10 16L10 19L7 19L7 18L6 18L6 17L9 17L9 14L12 14L12 13L13 13L13 10L12 10L12 9L11 9L11 10L9 10L9 12L11 12L11 11L12 11L12 13L8 13L8 15L7 15L7 14L5 14L5 11L7 11L7 12L6 12L6 13L7 13L7 12L8 12L8 11L7 11L7 10L8 10L8 8L6 8L6 9L7 9L7 10L5 10L5 8L3 8L3 9L4 9L4 10L5 10L5 11L3 11L3 10L1 10L1 9L0 9L0 12L1 12L1 14L0 14L0 15L1 15L1 14L3 14L3 15L2 15L2 16L0 16L0 21L7 21L7 20L10 20L10 19L11 19L11 21L8 21L8 23L9 23L9 22L10 22L10 27L11 27L11 29L12 29L12 28L13 28L13 29L14 29L14 28L15 28L15 29L17 29L17 28L16 28L16 27L15 27L15 26L16 26L16 24L14 24L14 23L15 23L15 22L16 22L16 23L19 23L19 21L20 21L20 24L19 24L19 25L24 25L24 26L26 26L26 27L23 27L23 28L22 28L22 26L21 26L21 27L20 27L20 28L19 28L19 27L18 27L18 25L17 25L17 27L18 27L18 29L20 29L20 28L21 28L21 29L23 29L23 28L24 28L24 29L26 29L26 28L27 28L27 29L28 29L28 28L27 28L27 27L29 27L29 26L26 26L26 25L29 25L29 22L28 22L28 21L26 21L26 20L25 20L25 19L26 19L26 18L28 18L28 19L29 19L29 17L28 17L28 16L29 16L29 14L27 14L27 13L29 13L29 11L28 11L28 10L27 10L27 11L26 11L26 9L27 9L27 8L25 8L25 12L24 12L24 16L23 16L23 12L22 12L22 11L21 11L21 10L19 10L19 9L17 9L17 10L19 10L19 11L17 11L17 12L16 12L16 14L15 14L15 11L16 11L16 9L15 9L15 6L16 6L16 7L17 7L17 8L19 8L19 6L20 6L20 8L21 8L21 4L19 4L19 3L20 3L20 1L21 1L21 0L19 0L19 1L18 1L18 0L17 0L17 1L16 1L16 0L14 0L14 1L13 1L13 2L12 2L12 1L11 1L11 0ZM17 1L17 3L16 3L16 2L14 2L14 4L13 4L13 3L12 3L12 4L13 4L13 5L14 5L14 4L17 4L17 5L16 5L16 6L17 6L17 7L18 7L18 6L19 6L19 4L18 4L18 3L19 3L19 2L18 2L18 1ZM9 6L9 7L10 7L10 6ZM22 9L22 10L23 10L23 11L24 11L24 9ZM1 11L1 12L2 12L2 13L3 13L3 12L2 12L2 11ZM27 11L27 12L28 12L28 11ZM19 12L19 13L20 13L20 12ZM21 12L21 14L20 14L20 15L21 15L21 14L22 14L22 12ZM25 13L25 16L26 16L26 17L27 17L27 16L28 16L28 15L27 15L27 16L26 16L26 13ZM4 14L4 15L5 15L5 17L3 17L3 16L2 16L2 17L1 17L1 18L5 18L5 17L6 17L6 16L7 16L7 15L5 15L5 14ZM22 16L22 17L23 17L23 16ZM12 18L12 22L11 22L11 23L12 23L12 24L11 24L11 27L13 27L13 28L14 28L14 27L13 27L13 25L14 25L14 26L15 26L15 25L14 25L14 24L13 24L13 23L14 23L14 22L15 22L15 20L13 20L13 18ZM2 19L2 20L7 20L7 19ZM21 19L21 20L22 20L22 19ZM23 19L23 20L24 20L24 19ZM13 21L13 22L14 22L14 21ZM21 21L21 24L24 24L24 21ZM22 22L22 23L23 23L23 22ZM25 22L25 25L26 25L26 24L28 24L28 23L27 23L27 22ZM8 24L8 26L9 26L9 24ZM12 24L12 25L13 25L13 24ZM9 28L9 29L10 29L10 28ZM0 0L0 7L7 7L7 0ZM1 1L1 6L6 6L6 1ZM2 2L2 5L5 5L5 2ZM22 0L22 7L29 7L29 0ZM23 1L23 6L28 6L28 1ZM24 2L24 5L27 5L27 2ZM0 22L0 29L7 29L7 22ZM1 23L1 28L6 28L6 23ZM2 24L2 27L5 27L5 24Z" fill="#000000"/></g></g></svg>
