<?xml version="1.0" encoding="UTF-8"?>
<svg xmlns="http://www.w3.org/2000/svg" version="1.1" width="200" height="200" viewBox="0 0 200 200"><rect x="0" y="0" width="200" height="200" fill="#ffffff"/><g transform="scale(4.878)"><g transform="translate(0,0)"><path fill-rule="evenodd" d="M8 0L8 3L10 3L10 2L11 2L11 3L13 3L13 6L12 6L12 9L14 9L14 11L13 11L13 10L12 10L12 11L13 11L13 13L12 13L12 12L11 12L11 13L9 13L9 14L13 14L13 15L11 15L11 17L10 17L10 15L9 15L9 17L7 17L7 16L8 16L8 15L7 15L7 14L6 14L6 15L7 15L7 16L6 16L6 17L5 17L5 14L4 14L4 13L8 13L8 12L6 12L6 11L8 11L8 9L9 9L9 5L8 5L8 9L7 9L7 8L6 8L6 9L5 9L5 8L2 8L2 9L4 9L4 10L5 10L5 12L4 12L4 11L3 11L3 13L2 13L2 10L0 10L0 16L1 16L1 17L0 17L0 19L1 19L1 20L0 20L0 22L2 22L2 21L1 21L1 20L2 20L2 18L3 18L3 19L7 19L7 20L6 20L6 21L8 21L8 18L9 18L9 17L10 17L10 18L11 18L11 19L12 19L12 18L13 18L13 21L12 21L12 20L11 20L11 21L10 21L10 23L9 23L9 22L6 22L6 23L5 23L5 20L3 20L3 21L4 21L4 22L3 22L3 23L0 23L0 25L1 25L1 26L0 26L0 28L1 28L1 29L0 29L0 33L1 33L1 29L2 29L2 30L3 30L3 31L2 31L2 32L3 32L3 33L4 33L4 32L5 32L5 33L8 33L8 34L9 34L9 35L10 35L10 36L8 36L8 39L9 39L9 40L12 40L12 41L13 41L13 40L12 40L12 38L13 38L13 39L14 39L14 41L16 41L16 40L15 40L15 39L14 39L14 38L15 38L15 36L18 36L18 37L19 37L19 38L20 38L20 35L21 35L21 34L20 34L20 33L22 33L22 35L24 35L24 36L26 36L26 37L28 37L28 38L27 38L27 39L28 39L28 38L29 38L29 37L28 37L28 36L27 36L27 35L28 35L28 34L29 34L29 33L30 33L30 35L31 35L31 36L30 36L30 37L31 37L31 36L32 36L32 37L33 37L33 38L34 38L34 39L35 39L35 40L36 40L36 39L38 39L38 38L37 38L37 37L39 37L39 40L40 40L40 38L41 38L41 37L40 37L40 36L37 36L37 35L40 35L40 34L41 34L41 33L40 33L40 32L41 32L41 31L40 31L40 30L41 30L41 29L39 29L39 30L38 30L38 29L36 29L36 28L35 28L35 26L36 26L36 27L37 27L37 28L38 28L38 26L39 26L39 28L40 28L40 26L41 26L41 23L40 23L40 26L39 26L39 24L37 24L37 25L34 25L34 24L36 24L36 23L34 23L34 22L36 22L36 21L39 21L39 20L36 20L36 19L35 19L35 17L36 17L36 18L37 18L37 19L38 19L38 17L39 17L39 16L38 16L38 15L39 15L39 14L41 14L41 13L40 13L40 10L41 10L41 8L38 8L38 9L40 9L40 10L37 10L37 9L36 9L36 8L32 8L32 9L31 9L31 8L29 8L29 5L30 5L30 7L31 7L31 5L33 5L33 4L31 4L31 3L32 3L32 2L31 2L31 1L32 1L32 0L31 0L31 1L30 1L30 2L31 2L31 3L30 3L30 4L29 4L29 1L27 1L27 0L24 0L24 1L25 1L25 3L26 3L26 4L27 4L27 3L28 3L28 4L29 4L29 5L27 5L27 6L26 6L26 5L25 5L25 4L23 4L23 2L22 2L22 3L21 3L21 2L20 2L20 0L17 0L17 2L18 2L18 1L19 1L19 3L20 3L20 4L18 4L18 3L16 3L16 2L14 2L14 3L13 3L13 2L12 2L12 1L11 1L11 0L10 0L10 1L9 1L9 0ZM21 0L21 1L23 1L23 0ZM26 2L26 3L27 3L27 2ZM11 4L11 5L10 5L10 8L11 8L11 5L12 5L12 4ZM14 4L14 6L13 6L13 8L16 8L16 9L15 9L15 10L16 10L16 11L15 11L15 12L14 12L14 13L13 13L13 14L14 14L14 16L12 16L12 17L11 17L11 18L12 18L12 17L13 17L13 18L14 18L14 19L15 19L15 18L16 18L16 19L17 19L17 20L16 20L16 22L17 22L17 20L18 20L18 21L19 21L19 20L20 20L20 19L19 19L19 18L20 18L20 17L22 17L22 18L21 18L21 21L24 21L24 20L23 20L23 19L22 19L22 18L24 18L24 17L26 17L26 18L28 18L28 19L25 19L25 20L26 20L26 23L25 23L25 22L22 22L22 23L21 23L21 22L20 22L20 23L19 23L19 22L18 22L18 23L19 23L19 24L22 24L22 23L23 23L23 25L22 25L22 27L23 27L23 29L19 29L19 28L20 28L20 27L21 27L21 26L20 26L20 27L18 27L18 29L19 29L19 30L17 30L17 29L16 29L16 31L15 31L15 30L9 30L9 32L8 32L8 31L6 31L6 32L8 32L8 33L9 33L9 34L10 34L10 35L11 35L11 34L12 34L12 36L13 36L13 35L15 35L15 33L16 33L16 35L18 35L18 34L17 34L17 33L16 33L16 32L17 32L17 31L19 31L19 32L18 32L18 33L19 33L19 32L20 32L20 31L21 31L21 32L22 32L22 31L23 31L23 34L24 34L24 35L26 35L26 33L27 33L27 34L28 34L28 33L29 33L29 32L30 32L30 33L31 33L31 34L32 34L32 32L35 32L35 31L34 31L34 30L36 30L36 29L34 29L34 28L33 28L33 29L32 29L32 26L33 26L33 27L34 27L34 25L32 25L32 24L34 24L34 23L32 23L32 22L34 22L34 21L36 21L36 20L35 20L35 19L34 19L34 18L33 18L33 19L32 19L32 18L31 18L31 17L30 17L30 19L31 19L31 20L28 20L28 19L29 19L29 16L30 16L30 15L31 15L31 14L32 14L32 15L33 15L33 16L32 16L32 17L33 17L33 16L34 16L34 17L35 17L35 16L36 16L36 17L38 17L38 16L37 16L37 15L36 15L36 13L37 13L37 14L39 14L39 11L38 11L38 12L36 12L36 11L37 11L37 10L36 10L36 11L35 11L35 10L34 10L34 11L32 11L32 10L33 10L33 9L32 9L32 10L31 10L31 9L27 9L27 7L28 7L28 6L27 6L27 7L26 7L26 6L25 6L25 7L26 7L26 8L24 8L24 6L23 6L23 8L24 8L24 9L25 9L25 10L22 10L22 6L21 6L21 4L20 4L20 5L18 5L18 6L17 6L17 5L16 5L16 4ZM30 4L30 5L31 5L31 4ZM15 5L15 6L14 6L14 7L15 7L15 6L16 6L16 8L17 8L17 9L16 9L16 10L17 10L17 11L19 11L19 12L17 12L17 13L20 13L20 14L21 14L21 12L22 12L22 10L20 10L20 11L19 11L19 10L17 10L17 9L18 9L18 8L19 8L19 9L21 9L21 8L19 8L19 6L18 6L18 8L17 8L17 6L16 6L16 5ZM20 6L20 7L21 7L21 6ZM32 6L32 7L33 7L33 6ZM6 9L6 10L7 10L7 9ZM26 9L26 11L23 11L23 13L24 13L24 12L25 12L25 14L26 14L26 15L25 15L25 16L26 16L26 17L28 17L28 15L29 15L29 14L28 14L28 13L30 13L30 14L31 14L31 12L32 12L32 11L30 11L30 10L29 10L29 11L30 11L30 12L27 12L27 11L28 11L28 10L27 10L27 9ZM26 12L26 13L27 13L27 12ZM33 12L33 13L32 13L32 14L33 14L33 15L34 15L34 14L33 14L33 13L34 13L34 12ZM15 13L15 14L16 14L16 15L15 15L15 16L14 16L14 18L15 18L15 17L16 17L16 18L19 18L19 17L20 17L20 16L23 16L23 17L24 17L24 16L23 16L23 15L24 15L24 14L22 14L22 15L20 15L20 16L19 16L19 15L17 15L17 14L16 14L16 13ZM1 14L1 16L2 16L2 17L1 17L1 18L2 18L2 17L3 17L3 18L4 18L4 17L3 17L3 16L4 16L4 14L3 14L3 15L2 15L2 14ZM16 15L16 16L17 16L17 17L19 17L19 16L17 16L17 15ZM26 15L26 16L27 16L27 15ZM40 16L40 18L39 18L39 19L40 19L40 18L41 18L41 16ZM6 17L6 18L7 18L7 17ZM14 20L14 23L13 23L13 22L12 22L12 23L10 23L10 24L13 24L13 27L15 27L15 28L12 28L12 29L15 29L15 28L16 28L16 26L17 26L17 25L18 25L18 26L19 26L19 25L18 25L18 24L17 24L17 23L15 23L15 20ZM27 20L27 21L28 21L28 22L27 22L27 25L25 25L25 26L24 26L24 25L23 25L23 26L24 26L24 27L26 27L26 28L27 28L27 30L26 30L26 29L25 29L25 28L24 28L24 29L25 29L25 30L23 30L23 31L24 31L24 32L25 32L25 33L26 33L26 32L25 32L25 31L27 31L27 30L29 30L29 31L28 31L28 32L29 32L29 31L31 31L31 29L30 29L30 28L29 28L29 29L28 29L28 27L29 27L29 26L32 26L32 25L30 25L30 24L29 24L29 22L30 22L30 23L31 23L31 24L32 24L32 23L31 23L31 22L32 22L32 21L34 21L34 20L32 20L32 21L28 21L28 20ZM40 20L40 21L41 21L41 20ZM37 22L37 23L38 23L38 22ZM4 23L4 24L3 24L3 25L2 25L2 26L4 26L4 24L5 24L5 25L6 25L6 26L7 26L7 25L8 25L8 27L6 27L6 28L7 28L7 29L5 29L5 28L4 28L4 27L2 27L2 29L3 29L3 30L4 30L4 31L3 31L3 32L4 32L4 31L5 31L5 30L8 30L8 29L10 29L10 28L9 28L9 25L8 25L8 24L9 24L9 23L8 23L8 24L7 24L7 23L6 23L6 24L5 24L5 23ZM24 23L24 24L25 24L25 23ZM6 24L6 25L7 25L7 24ZM15 24L15 25L14 25L14 26L16 26L16 25L17 25L17 24ZM28 24L28 25L27 25L27 26L26 26L26 27L27 27L27 26L28 26L28 25L29 25L29 24ZM10 25L10 27L12 27L12 26L11 26L11 25ZM3 28L3 29L4 29L4 30L5 30L5 29L4 29L4 28ZM29 29L29 30L30 30L30 29ZM33 29L33 30L32 30L32 31L33 31L33 30L34 30L34 29ZM21 30L21 31L22 31L22 30ZM37 30L37 32L40 32L40 31L38 31L38 30ZM10 31L10 32L9 32L9 33L10 33L10 34L11 34L11 33L12 33L12 34L14 34L14 33L15 33L15 32L14 32L14 31L13 31L13 32L11 32L11 31ZM10 32L10 33L11 33L11 32ZM33 33L33 36L36 36L36 33ZM38 33L38 34L39 34L39 33ZM19 34L19 35L20 35L20 34ZM34 34L34 35L35 35L35 34ZM10 36L10 37L9 37L9 38L10 38L10 39L11 39L11 38L10 38L10 37L11 37L11 36ZM21 36L21 39L22 39L22 40L23 40L23 41L31 41L31 40L33 40L33 41L34 41L34 40L33 40L33 39L32 39L32 38L30 38L30 39L31 39L31 40L26 40L26 39L25 39L25 37L22 37L22 36ZM16 37L16 39L17 39L17 37ZM34 37L34 38L36 38L36 37ZM18 39L18 40L17 40L17 41L18 41L18 40L19 40L19 41L21 41L21 40L19 40L19 39ZM23 39L23 40L25 40L25 39ZM0 0L0 7L7 7L7 0ZM1 1L1 6L6 6L6 1ZM2 2L2 5L5 5L5 2ZM34 0L34 7L41 7L41 0ZM35 1L35 6L40 6L40 1ZM36 2L36 5L39 5L39 2ZM0 34L0 41L7 41L7 34ZM1 35L1 40L6 40L6 35ZM2 36L2 39L5 39L5 36Z" fill="#000000"/></g></g></svg>
