<?xml version="1.0" encoding="UTF-8"?>
<svg xmlns="http://www.w3.org/2000/svg" version="1.1" width="200" height="200" viewBox="0 0 200 200"><rect x="0" y="0" width="200" height="200" fill="#ffffff"/><g transform="scale(4.878)"><g transform="translate(0,0)"><path fill-rule="evenodd" d="M9 0L9 1L8 1L8 2L9 2L9 4L10 4L10 7L9 7L9 5L8 5L8 8L4 8L4 10L2 10L2 9L0 9L0 10L1 10L1 11L2 11L2 12L3 12L3 13L2 13L2 14L4 14L4 13L5 13L5 14L6 14L6 15L9 15L9 16L5 16L5 15L0 15L0 17L4 17L4 18L3 18L3 19L2 19L2 18L0 18L0 21L1 21L1 22L2 22L2 23L3 23L3 25L1 25L1 24L0 24L0 26L1 26L1 27L2 27L2 26L3 26L3 27L4 27L4 29L5 29L5 31L4 31L4 30L2 30L2 29L1 29L1 28L0 28L0 30L2 30L2 31L4 31L4 32L5 32L5 33L7 33L7 32L10 32L10 34L9 34L9 33L8 33L8 37L9 37L9 35L10 35L10 37L11 37L11 39L10 39L10 38L9 38L9 39L10 39L10 40L9 40L9 41L12 41L12 39L13 39L13 41L14 41L14 37L18 37L18 39L17 39L17 38L16 38L16 39L15 39L15 40L18 40L18 39L19 39L19 38L20 38L20 37L21 37L21 36L22 36L22 38L21 38L21 39L20 39L20 40L19 40L19 41L20 41L20 40L21 40L21 41L24 41L24 40L22 40L22 39L23 39L23 38L24 38L24 39L25 39L25 41L27 41L27 40L29 40L29 41L30 41L30 39L31 39L31 41L33 41L33 39L32 39L32 37L36 37L36 38L38 38L38 39L39 39L39 40L37 40L37 39L36 39L36 40L37 40L37 41L40 41L40 40L41 40L41 37L40 37L40 38L39 38L39 37L38 37L38 35L39 35L39 36L40 36L40 35L41 35L41 33L40 33L40 34L39 34L39 33L38 33L38 34L37 34L37 32L35 32L35 31L34 31L34 32L30 32L30 31L31 31L31 30L32 30L32 31L33 31L33 29L36 29L36 30L39 30L39 31L40 31L40 32L41 32L41 29L40 29L40 30L39 30L39 28L38 28L38 26L37 26L37 25L34 25L34 23L36 23L36 24L37 24L37 22L36 22L36 21L37 21L37 18L38 18L38 17L36 17L36 16L35 16L35 15L37 15L37 14L38 14L38 15L40 15L40 16L39 16L39 19L40 19L40 20L39 20L39 21L38 21L38 23L39 23L39 22L40 22L40 23L41 23L41 22L40 22L40 21L41 21L41 9L40 9L40 8L39 8L39 9L36 9L36 8L34 8L34 10L33 10L33 9L32 9L32 7L33 7L33 6L32 6L32 5L33 5L33 2L32 2L32 1L31 1L31 0L30 0L30 2L29 2L29 1L28 1L28 0L27 0L27 1L28 1L28 2L27 2L27 3L26 3L26 2L25 2L25 1L22 1L22 2L21 2L21 1L20 1L20 0L19 0L19 1L18 1L18 3L17 3L17 4L18 4L18 7L17 7L17 6L16 6L16 7L15 7L15 6L14 6L14 7L13 7L13 5L16 5L16 4L15 4L15 2L14 2L14 1L16 1L16 0L12 0L12 1L11 1L11 0ZM10 1L10 4L12 4L12 5L11 5L11 7L12 7L12 8L11 8L11 9L10 9L10 8L8 8L8 9L9 9L9 10L12 10L12 11L9 11L9 13L10 13L10 14L9 14L9 15L10 15L10 16L9 16L9 17L10 17L10 18L8 18L8 19L11 19L11 18L12 18L12 20L10 20L10 22L12 22L12 23L10 23L10 24L9 24L9 23L8 23L8 24L7 24L7 23L6 23L6 24L5 24L5 25L3 25L3 26L4 26L4 27L5 27L5 28L10 28L10 27L11 27L11 29L12 29L12 28L13 28L13 27L14 27L14 26L13 26L13 25L12 25L12 24L14 24L14 25L15 25L15 27L16 27L16 28L18 28L18 26L19 26L19 25L20 25L20 27L19 27L19 29L20 29L20 27L22 27L22 28L21 28L21 29L22 29L22 28L23 28L23 30L19 30L19 31L18 31L18 32L17 32L17 33L16 33L16 34L15 34L15 33L14 33L14 34L13 34L13 33L12 33L12 32L11 32L11 31L13 31L13 30L14 30L14 29L15 29L15 31L14 31L14 32L16 32L16 30L17 30L17 29L15 29L15 28L14 28L14 29L13 29L13 30L11 30L11 31L10 31L10 32L11 32L11 37L13 37L13 36L12 36L12 35L14 35L14 36L16 36L16 35L17 35L17 36L18 36L18 37L19 37L19 36L18 36L18 35L19 35L19 34L20 34L20 33L21 33L21 32L22 32L22 33L23 33L23 34L21 34L21 35L20 35L20 36L21 36L21 35L22 35L22 36L23 36L23 37L25 37L25 36L23 36L23 34L24 34L24 33L25 33L25 35L26 35L26 34L27 34L27 33L25 33L25 31L27 31L27 32L28 32L28 33L29 33L29 34L30 34L30 35L31 35L31 33L29 33L29 31L28 31L28 29L29 29L29 30L30 30L30 29L31 29L31 28L30 28L30 29L29 29L29 28L27 28L27 29L26 29L26 28L25 28L25 27L24 27L24 25L25 25L25 26L26 26L26 27L27 27L27 26L26 26L26 25L29 25L29 23L28 23L28 24L26 24L26 23L27 23L27 21L28 21L28 22L29 22L29 21L31 21L31 22L30 22L30 25L31 25L31 27L34 27L34 28L36 28L36 29L37 29L37 26L36 26L36 27L35 27L35 26L34 26L34 25L31 25L31 23L34 23L34 22L32 22L32 21L36 21L36 19L35 19L35 18L36 18L36 17L35 17L35 16L34 16L34 15L33 15L33 13L34 13L34 14L36 14L36 13L37 13L37 11L36 11L36 10L35 10L35 11L36 11L36 12L34 12L34 11L33 11L33 10L32 10L32 9L29 9L29 8L27 8L27 7L28 7L28 5L29 5L29 7L30 7L30 8L31 8L31 7L32 7L32 6L31 6L31 7L30 7L30 5L32 5L32 3L30 3L30 5L29 5L29 2L28 2L28 3L27 3L27 4L28 4L28 5L21 5L21 4L22 4L22 3L21 3L21 4L20 4L20 3L19 3L19 5L20 5L20 6L19 6L19 7L18 7L18 8L17 8L17 9L16 9L16 8L15 8L15 7L14 7L14 8L13 8L13 7L12 7L12 5L13 5L13 4L14 4L14 2L13 2L13 4L12 4L12 2L11 2L11 1ZM24 2L24 3L25 3L25 4L26 4L26 3L25 3L25 2ZM20 6L20 7L19 7L19 9L21 9L21 13L20 13L20 10L18 10L18 9L17 9L17 10L18 10L18 11L19 11L19 13L18 13L18 12L17 12L17 15L19 15L19 14L23 14L23 15L25 15L25 16L26 16L26 17L24 17L24 16L21 16L21 17L22 17L22 18L20 18L20 16L19 16L19 18L18 18L18 19L16 19L16 18L15 18L15 19L14 19L14 20L18 20L18 21L16 21L16 22L14 22L14 21L13 21L13 20L12 20L12 22L14 22L14 24L15 24L15 25L16 25L16 24L17 24L17 25L18 25L18 23L19 23L19 24L21 24L21 23L22 23L22 21L24 21L24 22L23 22L23 23L24 23L24 22L26 22L26 21L25 21L25 20L24 20L24 18L25 18L25 19L26 19L26 17L27 17L27 20L28 20L28 21L29 21L29 19L28 19L28 17L27 17L27 16L29 16L29 18L30 18L30 19L31 19L31 17L30 17L30 15L31 15L31 16L33 16L33 15L32 15L32 13L33 13L33 12L32 12L32 11L30 11L30 10L29 10L29 9L27 9L27 8L25 8L25 6L24 6L24 8L23 8L23 6L22 6L22 7L21 7L21 6ZM26 6L26 7L27 7L27 6ZM21 8L21 9L22 9L22 8ZM24 8L24 9L23 9L23 12L22 12L22 13L24 13L24 14L25 14L25 13L26 13L26 15L27 15L27 14L28 14L28 15L29 15L29 14L30 14L30 13L28 13L28 11L29 11L29 10L28 10L28 11L27 11L27 10L25 10L25 8ZM5 9L5 10L4 10L4 11L3 11L3 12L4 12L4 11L6 11L6 12L8 12L8 10L7 10L7 9ZM13 9L13 10L14 10L14 12L15 12L15 13L16 13L16 9ZM6 10L6 11L7 11L7 10ZM24 10L24 13L25 13L25 10ZM26 11L26 12L27 12L27 11ZM38 11L38 12L39 12L39 13L40 13L40 11ZM10 12L10 13L12 13L12 14L10 14L10 15L11 15L11 16L10 16L10 17L11 17L11 16L12 16L12 18L13 18L13 16L14 16L14 17L15 17L15 16L16 16L16 15L15 15L15 14L13 14L13 12ZM6 13L6 14L7 14L7 13ZM12 15L12 16L13 16L13 15ZM14 15L14 16L15 16L15 15ZM4 16L4 17L5 17L5 16ZM17 16L17 17L18 17L18 16ZM6 17L6 18L4 18L4 19L3 19L3 20L2 20L2 19L1 19L1 21L2 21L2 22L3 22L3 23L5 23L5 22L9 22L9 20L7 20L7 19L6 19L6 18L7 18L7 17ZM32 17L32 18L33 18L33 17ZM34 17L34 18L35 18L35 17ZM22 18L22 19L23 19L23 18ZM4 19L4 20L3 20L3 22L5 22L5 21L7 21L7 20L6 20L6 19ZM18 19L18 20L19 20L19 21L20 21L20 20L21 20L21 19L20 19L20 20L19 20L19 19ZM32 19L32 20L31 20L31 21L32 21L32 20L33 20L33 19ZM34 19L34 20L35 20L35 19ZM16 22L16 23L15 23L15 24L16 24L16 23L17 23L17 22ZM19 22L19 23L20 23L20 22ZM6 24L6 25L5 25L5 26L6 26L6 27L7 27L7 26L8 26L8 27L10 27L10 25L11 25L11 27L12 27L12 25L11 25L11 24L10 24L10 25L9 25L9 24L8 24L8 25L7 25L7 24ZM23 24L23 25L24 25L24 24ZM39 24L39 27L41 27L41 24ZM6 25L6 26L7 26L7 25ZM21 25L21 26L22 26L22 25ZM16 26L16 27L17 27L17 26ZM28 26L28 27L29 27L29 26ZM32 28L32 29L33 29L33 28ZM6 29L6 30L7 30L7 29ZM24 29L24 30L23 30L23 33L24 33L24 30L25 30L25 29ZM6 31L6 32L7 32L7 31ZM19 31L19 32L20 32L20 31ZM0 32L0 33L2 33L2 32ZM17 33L17 35L18 35L18 34L19 34L19 33ZM33 33L33 36L36 36L36 33ZM34 34L34 35L35 35L35 34ZM28 36L28 37L29 37L29 38L28 38L28 39L30 39L30 38L31 38L31 37L30 37L30 36ZM26 38L26 40L27 40L27 38ZM34 39L34 40L35 40L35 39ZM0 0L0 7L7 7L7 0ZM1 1L1 6L6 6L6 1ZM2 2L2 5L5 5L5 2ZM34 0L34 7L41 7L41 0ZM35 1L35 6L40 6L40 1ZM36 2L36 5L39 5L39 2ZM0 34L0 41L7 41L7 34ZM1 35L1 40L6 40L6 35ZM2 36L2 39L5 39L5 36Z" fill="#000000"/></g></g></svg>
