<?xml version="1.0" encoding="UTF-8"?>
<svg xmlns="http://www.w3.org/2000/svg" version="1.1" width="200" height="200" viewBox="0 0 200 200"><rect x="0" y="0" width="200" height="200" fill="#ffffff"/><g transform="scale(6.897)"><g transform="translate(0,0)"><path fill-rule="evenodd" d="M8 0L8 1L9 1L9 3L8 3L8 4L9 4L9 6L8 6L8 7L9 7L9 8L8 8L8 9L7 9L7 8L4 8L4 9L3 9L3 8L2 8L2 10L0 10L0 11L1 11L1 12L2 12L2 13L0 13L0 14L2 14L2 15L3 15L3 14L2 14L2 13L3 13L3 12L2 12L2 11L5 11L5 10L6 10L6 11L7 11L7 10L8 10L8 9L9 9L9 10L10 10L10 8L12 8L12 7L13 7L13 6L14 6L14 9L12 9L12 10L11 10L11 13L10 13L10 12L9 12L9 14L11 14L11 13L12 13L12 14L13 14L13 13L15 13L15 14L17 14L17 13L19 13L19 14L20 14L20 15L19 15L19 16L20 16L20 15L21 15L21 14L22 14L22 15L23 15L23 16L22 16L22 17L23 17L23 18L22 18L22 19L21 19L21 20L20 20L20 19L18 19L18 18L20 18L20 17L16 17L16 16L17 16L17 15L12 15L12 16L11 16L11 15L9 15L9 16L6 16L6 15L8 15L8 14L6 14L6 13L7 13L7 12L4 12L4 14L6 14L6 15L5 15L5 16L6 16L6 17L7 17L7 18L6 18L6 19L5 19L5 17L4 17L4 16L3 16L3 17L2 17L2 16L1 16L1 15L0 15L0 17L1 17L1 18L0 18L0 19L1 19L1 20L0 20L0 21L1 21L1 20L3 20L3 17L4 17L4 19L5 19L5 20L4 20L4 21L7 21L7 20L8 20L8 22L9 22L9 21L10 21L10 20L8 20L8 18L9 18L9 19L12 19L12 20L11 20L11 21L12 21L12 22L11 22L11 23L8 23L8 25L9 25L9 26L8 26L8 27L9 27L9 28L10 28L10 29L11 29L11 28L12 28L12 27L13 27L13 29L14 29L14 27L13 27L13 26L15 26L15 29L16 29L16 27L17 27L17 29L20 29L20 27L21 27L21 26L22 26L22 25L23 25L23 26L24 26L24 25L25 25L25 26L26 26L26 25L27 25L27 26L28 26L28 27L26 27L26 28L23 28L23 27L22 27L22 28L23 28L23 29L26 29L26 28L28 28L28 29L29 29L29 26L28 26L28 25L29 25L29 24L28 24L28 23L27 23L27 24L26 24L26 23L25 23L25 19L27 19L27 20L26 20L26 21L28 21L28 22L29 22L29 21L28 21L28 19L29 19L29 18L27 18L27 17L26 17L26 14L24 14L24 13L25 13L25 11L26 11L26 13L27 13L27 14L28 14L28 15L27 15L27 16L28 16L28 17L29 17L29 16L28 16L28 15L29 15L29 14L28 14L28 13L29 13L29 12L28 12L28 11L29 11L29 8L28 8L28 9L26 9L26 8L25 8L25 9L24 9L24 10L25 10L25 11L24 11L24 12L23 12L23 10L22 10L22 8L19 8L19 11L20 11L20 12L18 12L18 10L17 10L17 8L16 8L16 7L17 7L17 5L18 5L18 7L19 7L19 5L20 5L20 7L21 7L21 0L20 0L20 1L19 1L19 2L20 2L20 3L19 3L19 5L18 5L18 3L16 3L16 2L18 2L18 1L16 1L16 2L14 2L14 1L15 1L15 0L10 0L10 1L9 1L9 0ZM10 1L10 2L12 2L12 3L13 3L13 4L14 4L14 2L13 2L13 1ZM15 3L15 5L14 5L14 6L15 6L15 7L16 7L16 5L17 5L17 4L16 4L16 3ZM10 4L10 5L11 5L11 7L12 7L12 6L13 6L13 5L11 5L11 4ZM9 6L9 7L10 7L10 6ZM4 9L4 10L5 10L5 9ZM6 9L6 10L7 10L7 9ZM14 9L14 10L13 10L13 11L14 11L14 10L15 10L15 12L17 12L17 10L15 10L15 9ZM25 9L25 10L26 10L26 11L28 11L28 10L26 10L26 9ZM21 11L21 12L22 12L22 11ZM27 12L27 13L28 13L28 12ZM20 13L20 14L21 14L21 13ZM23 14L23 15L24 15L24 16L23 16L23 17L24 17L24 18L23 18L23 19L24 19L24 18L26 18L26 17L24 17L24 16L25 16L25 15L24 15L24 14ZM10 16L10 18L11 18L11 16ZM12 16L12 17L13 17L13 16ZM14 17L14 18L12 18L12 19L14 19L14 20L15 20L15 22L14 22L14 23L15 23L15 22L16 22L16 23L17 23L17 22L16 22L16 21L17 21L17 20L15 20L15 17ZM1 18L1 19L2 19L2 18ZM16 18L16 19L17 19L17 18ZM6 19L6 20L7 20L7 19ZM12 20L12 21L13 21L13 20ZM18 20L18 23L20 23L20 22L19 22L19 21L20 21L20 20ZM21 21L21 24L24 24L24 21ZM12 22L12 23L13 23L13 22ZM22 22L22 23L23 23L23 22ZM9 24L9 25L10 25L10 26L13 26L13 25L14 25L14 24L12 24L12 25L10 25L10 24ZM15 24L15 26L18 26L18 28L19 28L19 26L20 26L20 24L19 24L19 25L18 25L18 24L17 24L17 25L16 25L16 24ZM27 24L27 25L28 25L28 24ZM0 0L0 7L7 7L7 0ZM1 1L1 6L6 6L6 1ZM2 2L2 5L5 5L5 2ZM22 0L22 7L29 7L29 0ZM23 1L23 6L28 6L28 1ZM24 2L24 5L27 5L27 2ZM0 22L0 29L7 29L7 22ZM1 23L1 28L6 28L6 23ZM2 24L2 27L5 27L5 24Z" fill="#000000"/></g></g></svg>
