<?xml version="1.0" encoding="UTF-8"?>
<svg xmlns="http://www.w3.org/2000/svg" version="1.1" width="200" height="200" viewBox="0 0 200 200"><rect x="0" y="0" width="200" height="200" fill="#ffffff"/><g transform="scale(6.897)"><g transform="translate(0,0)"><path fill-rule="evenodd" d="M9 0L9 2L8 2L8 4L9 4L9 6L8 6L8 7L9 7L9 6L10 6L10 7L11 7L11 8L9 8L9 9L12 9L12 10L11 10L11 11L8 11L8 8L6 8L6 9L5 9L5 8L3 8L3 9L1 9L1 10L0 10L0 13L1 13L1 14L0 14L0 15L1 15L1 14L2 14L2 15L7 15L7 16L2 16L2 17L4 17L4 18L3 18L3 19L2 19L2 18L1 18L1 16L0 16L0 21L4 21L4 20L3 20L3 19L5 19L5 21L7 21L7 20L6 20L6 19L8 19L8 20L11 20L11 21L10 21L10 22L11 22L11 23L12 23L12 22L14 22L14 21L12 21L12 20L11 20L11 19L12 19L12 18L14 18L14 17L15 17L15 19L16 19L16 18L17 18L17 20L18 20L18 21L16 21L16 23L14 23L14 25L13 25L13 24L12 24L12 25L11 25L11 26L10 26L10 28L11 28L11 29L12 29L12 27L14 27L14 28L13 28L13 29L14 29L14 28L15 28L15 29L20 29L20 28L21 28L21 29L23 29L23 28L24 28L24 29L28 29L28 28L27 28L27 27L29 27L29 26L26 26L26 25L29 25L29 22L28 22L28 21L26 21L26 20L23 20L23 19L25 19L25 18L26 18L26 19L27 19L27 18L28 18L28 19L29 19L29 17L28 17L28 16L29 16L29 14L27 14L27 13L29 13L29 11L28 11L28 10L27 10L27 8L25 8L25 9L26 9L26 10L25 10L25 12L24 12L24 16L23 16L23 12L22 12L22 11L21 11L21 10L19 10L19 9L17 9L17 8L19 8L19 6L20 6L20 7L21 7L21 4L19 4L19 3L20 3L20 1L21 1L21 0L19 0L19 1L18 1L18 0L17 0L17 1L18 1L18 2L19 2L19 3L18 3L18 4L19 4L19 6L18 6L18 7L17 7L17 5L16 5L16 4L17 4L17 3L15 3L15 4L14 4L14 3L12 3L12 1L11 1L11 0ZM13 0L13 2L16 2L16 1L15 1L15 0ZM9 2L9 4L11 4L11 5L10 5L10 6L11 6L11 7L12 7L12 6L13 6L13 9L15 9L15 10L13 10L13 11L11 11L11 12L10 12L10 15L11 15L11 14L12 14L12 17L14 17L14 16L18 16L18 15L19 15L19 17L17 17L17 18L20 18L20 19L21 19L21 20L22 20L22 19L21 19L21 16L20 16L20 15L21 15L21 14L22 14L22 12L21 12L21 14L20 14L20 15L19 15L19 14L17 14L17 15L16 15L16 14L15 14L15 15L14 15L14 13L15 13L15 12L16 12L16 13L18 13L18 11L17 11L17 9L15 9L15 7L16 7L16 6L15 6L15 7L14 7L14 6L13 6L13 5L14 5L14 4L13 4L13 5L12 5L12 3L10 3L10 2ZM11 5L11 6L12 6L12 5ZM3 9L3 10L2 10L2 11L1 11L1 12L2 12L2 13L3 13L3 14L4 14L4 12L5 12L5 14L8 14L8 16L7 16L7 17L5 17L5 19L6 19L6 18L8 18L8 17L11 17L11 16L9 16L9 13L8 13L8 11L6 11L6 12L5 12L5 11L3 11L3 10L5 10L5 9ZM6 9L6 10L7 10L7 9ZM22 9L22 10L23 10L23 11L24 11L24 9ZM26 10L26 11L27 11L27 12L28 12L28 11L27 11L27 10ZM2 11L2 12L3 12L3 11ZM13 11L13 13L12 13L12 14L13 14L13 13L14 13L14 12L15 12L15 11ZM6 12L6 13L7 13L7 12ZM19 12L19 13L20 13L20 12ZM25 13L25 16L26 16L26 17L27 17L27 16L28 16L28 15L27 15L27 16L26 16L26 13ZM22 16L22 17L23 17L23 16ZM10 18L10 19L11 19L11 18ZM13 19L13 20L14 20L14 19ZM8 21L8 23L9 23L9 24L8 24L8 26L9 26L9 25L10 25L10 23L9 23L9 21ZM18 21L18 23L17 23L17 24L16 24L16 25L18 25L18 26L19 26L19 28L20 28L20 27L21 27L21 26L22 26L22 28L23 28L23 27L26 27L26 26L24 26L24 25L18 25L18 24L20 24L20 21ZM21 21L21 24L24 24L24 21ZM22 22L22 23L23 23L23 22ZM25 22L25 25L26 25L26 24L28 24L28 23L27 23L27 22ZM14 25L14 27L15 27L15 28L17 28L17 26L16 26L16 27L15 27L15 25ZM0 0L0 7L7 7L7 0ZM1 1L1 6L6 6L6 1ZM2 2L2 5L5 5L5 2ZM22 0L22 7L29 7L29 0ZM23 1L23 6L28 6L28 1ZM24 2L24 5L27 5L27 2ZM0 22L0 29L7 29L7 22ZM1 23L1 28L6 28L6 23ZM2 24L2 27L5 27L5 24Z" fill="#000000"/></g></g></svg>
