<?xml version="1.0" encoding="UTF-8"?>
<svg xmlns="http://www.w3.org/2000/svg" version="1.1" width="200" height="200" viewBox="0 0 200 200"><rect x="0" y="0" width="200" height="200" fill="#ffffff"/><g transform="scale(4.878)"><g transform="translate(0,0)"><path fill-rule="evenodd" d="M8 0L8 3L9 3L9 1L10 1L10 4L9 4L9 5L8 5L8 9L7 9L7 8L6 8L6 9L7 9L7 10L5 10L5 11L4 11L4 13L3 13L3 14L1 14L1 13L2 13L2 12L1 12L1 13L0 13L0 14L1 14L1 15L0 15L0 16L1 16L1 15L2 15L2 16L3 16L3 15L4 15L4 13L5 13L5 17L4 17L4 18L5 18L5 17L7 17L7 18L6 18L6 19L7 19L7 20L5 20L5 19L4 19L4 20L5 20L5 21L10 21L10 20L8 20L8 19L7 19L7 18L8 18L8 17L10 17L10 18L9 18L9 19L10 19L10 18L13 18L13 20L14 20L14 22L16 22L16 23L17 23L17 24L16 24L16 25L15 25L15 23L14 23L14 24L13 24L13 25L12 25L12 23L11 23L11 22L10 22L10 24L4 24L4 23L3 23L3 22L4 22L4 21L3 21L3 20L2 20L2 19L3 19L3 18L0 18L0 19L1 19L1 20L0 20L0 21L3 21L3 22L0 22L0 26L2 26L2 27L1 27L1 28L0 28L0 33L1 33L1 28L3 28L3 29L2 29L2 31L3 31L3 29L5 29L5 30L6 30L6 31L7 31L7 30L6 30L6 29L7 29L7 28L6 28L6 27L8 27L8 26L6 26L6 27L4 27L4 26L2 26L2 25L1 25L1 23L2 23L2 24L4 24L4 25L10 25L10 26L11 26L11 27L13 27L13 28L14 28L14 30L11 30L11 32L12 32L12 33L11 33L11 34L9 34L9 33L10 33L10 31L9 31L9 29L11 29L11 28L9 28L9 29L8 29L8 31L9 31L9 33L8 33L8 34L9 34L9 35L10 35L10 36L8 36L8 39L10 39L10 38L12 38L12 37L14 37L14 38L13 38L13 39L11 39L11 41L18 41L18 37L17 37L17 36L18 36L18 35L20 35L20 37L21 37L21 36L23 36L23 38L19 38L19 39L20 39L20 41L22 41L22 40L21 40L21 39L24 39L24 38L25 38L25 41L26 41L26 40L27 40L27 41L31 41L31 40L33 40L33 41L34 41L34 40L33 40L33 39L35 39L35 40L36 40L36 39L37 39L37 40L40 40L40 38L41 38L41 37L39 37L39 36L38 36L38 35L40 35L40 34L41 34L41 33L39 33L39 32L40 32L40 30L41 30L41 29L39 29L39 32L38 32L38 30L37 30L37 29L36 29L36 28L38 28L38 26L39 26L39 27L40 27L40 26L41 26L41 23L39 23L39 22L37 22L37 20L38 20L38 21L39 21L39 20L38 20L38 19L37 19L37 20L36 20L36 19L35 19L35 17L36 17L36 18L38 18L38 17L39 17L39 16L37 16L37 15L39 15L39 14L41 14L41 13L39 13L39 14L38 14L38 13L36 13L36 14L35 14L35 17L34 17L34 16L33 16L33 17L30 17L30 16L31 16L31 12L32 12L32 13L33 13L33 14L32 14L32 15L34 15L34 13L35 13L35 11L36 11L36 12L38 12L38 11L40 11L40 12L41 12L41 11L40 11L40 10L41 10L41 8L38 8L38 9L40 9L40 10L37 10L37 9L36 9L36 8L33 8L33 9L32 9L32 8L31 8L31 6L30 6L30 5L32 5L32 7L33 7L33 4L30 4L30 5L29 5L29 6L28 6L28 5L27 5L27 4L25 4L25 2L24 2L24 0L23 0L23 2L24 2L24 5L23 5L23 4L22 4L22 5L19 5L19 6L18 6L18 7L17 7L17 5L16 5L16 7L15 7L15 6L14 6L14 7L15 7L15 8L16 8L16 9L15 9L15 10L17 10L17 9L18 9L18 10L19 10L19 9L21 9L21 8L23 8L23 9L22 9L22 10L20 10L20 11L19 11L19 12L16 12L16 11L14 11L14 10L9 10L9 11L8 11L8 9L11 9L11 6L12 6L12 7L13 7L13 6L12 6L12 5L11 5L11 3L12 3L12 1L13 1L13 2L16 2L16 3L15 3L15 4L14 4L14 3L13 3L13 5L15 5L15 4L16 4L16 3L18 3L18 2L17 2L17 1L15 1L15 0L12 0L12 1L11 1L11 0ZM18 0L18 1L19 1L19 3L22 3L22 1L21 1L21 2L20 2L20 0ZM26 0L26 1L27 1L27 2L26 2L26 3L28 3L28 4L29 4L29 3L33 3L33 2L30 2L30 0L29 0L29 1L27 1L27 0ZM31 0L31 1L32 1L32 0ZM10 5L10 6L9 6L9 7L10 7L10 6L11 6L11 5ZM22 5L22 6L21 6L21 7L20 7L20 6L19 6L19 7L18 7L18 9L19 9L19 7L20 7L20 8L21 8L21 7L22 7L22 6L23 6L23 7L24 7L24 10L23 10L23 11L22 11L22 12L23 12L23 13L24 13L24 12L25 12L25 9L26 9L26 8L27 8L27 7L28 7L28 6L27 6L27 5L25 5L25 7L24 7L24 6L23 6L23 5ZM26 6L26 7L27 7L27 6ZM29 6L29 8L28 8L28 9L27 9L27 10L26 10L26 11L27 11L27 10L28 10L28 9L29 9L29 10L30 10L30 9L31 9L31 8L30 8L30 6ZM16 7L16 8L17 8L17 7ZM2 8L2 9L0 9L0 11L2 11L2 10L3 10L3 9L5 9L5 8ZM12 8L12 9L13 9L13 8ZM29 8L29 9L30 9L30 8ZM33 9L33 10L31 10L31 11L34 11L34 9ZM35 9L35 10L36 10L36 9ZM6 11L6 12L7 12L7 11ZM9 11L9 13L8 13L8 16L10 16L10 17L12 17L12 16L11 16L11 15L10 15L10 14L9 14L9 13L11 13L11 14L12 14L12 15L13 15L13 14L12 14L12 12L11 12L11 11ZM13 11L13 13L14 13L14 16L15 16L15 17L14 17L14 18L15 18L15 19L16 19L16 20L15 20L15 21L16 21L16 22L17 22L17 21L18 21L18 22L19 22L19 23L18 23L18 24L17 24L17 25L16 25L16 26L17 26L17 25L19 25L19 26L18 26L18 27L19 27L19 30L18 30L18 28L17 28L17 27L15 27L15 28L17 28L17 29L16 29L16 30L15 30L15 32L14 32L14 31L13 31L13 32L14 32L14 33L15 33L15 34L14 34L14 35L15 35L15 36L14 36L14 37L16 37L16 35L15 35L15 34L17 34L17 31L20 31L20 32L21 32L21 31L20 31L20 30L21 30L21 29L22 29L22 31L23 31L23 32L22 32L22 35L23 35L23 36L24 36L24 35L23 35L23 33L25 33L25 34L26 34L26 33L27 33L27 34L29 34L29 33L27 33L27 32L24 32L24 31L26 31L26 30L27 30L27 29L28 29L28 30L29 30L29 31L28 31L28 32L31 32L31 30L32 30L32 31L33 31L33 32L36 32L36 31L37 31L37 30L36 30L36 29L35 29L35 27L36 27L36 25L39 25L39 26L40 26L40 24L39 24L39 23L37 23L37 24L36 24L36 23L35 23L35 22L36 22L36 21L35 21L35 19L34 19L34 18L33 18L33 19L32 19L32 18L31 18L31 19L30 19L30 17L29 17L29 16L30 16L30 13L29 13L29 12L30 12L30 11L28 11L28 13L29 13L29 14L27 14L27 13L25 13L25 14L23 14L23 15L25 15L25 18L24 18L24 19L23 19L23 17L24 17L24 16L23 16L23 17L22 17L22 16L21 16L21 17L20 17L20 16L18 16L18 15L17 15L17 14L19 14L19 15L21 15L21 14L22 14L22 13L21 13L21 14L19 14L19 13L20 13L20 12L19 12L19 13L16 13L16 14L15 14L15 12L14 12L14 11ZM23 11L23 12L24 12L24 11ZM33 12L33 13L34 13L34 12ZM6 13L6 14L7 14L7 13ZM6 15L6 16L7 16L7 15ZM26 15L26 18L25 18L25 19L24 19L24 20L23 20L23 19L22 19L22 20L20 20L20 17L19 17L19 18L18 18L18 16L17 16L17 19L19 19L19 20L18 20L18 21L22 21L22 22L20 22L20 23L19 23L19 25L20 25L20 26L19 26L19 27L20 27L20 26L22 26L22 27L21 27L21 28L20 28L20 29L21 29L21 28L23 28L23 27L24 27L24 28L25 28L25 29L24 29L24 30L23 30L23 31L24 31L24 30L26 30L26 29L27 29L27 28L28 28L28 29L30 29L30 30L31 30L31 29L30 29L30 28L28 28L28 26L26 26L26 25L29 25L29 26L30 26L30 25L31 25L31 26L33 26L33 27L32 27L32 28L33 28L33 29L32 29L32 30L33 30L33 29L34 29L34 28L33 28L33 27L34 27L34 26L35 26L35 25L36 25L36 24L35 24L35 25L34 25L34 22L35 22L35 21L34 21L34 20L30 20L30 21L31 21L31 22L30 22L30 23L31 23L31 22L32 22L32 21L34 21L34 22L33 22L33 25L32 25L32 24L29 24L29 22L27 22L27 21L29 21L29 20L28 20L28 19L29 19L29 18L27 18L27 15ZM28 15L28 16L29 16L29 15ZM36 16L36 17L37 17L37 16ZM40 16L40 18L39 18L39 19L40 19L40 18L41 18L41 16ZM15 17L15 18L16 18L16 17ZM21 17L21 18L22 18L22 17ZM11 20L11 21L12 21L12 22L13 22L13 21L12 21L12 20ZM16 20L16 21L17 21L17 20ZM22 20L22 21L23 21L23 20ZM24 20L24 22L25 22L25 21L26 21L26 20ZM40 20L40 21L41 21L41 20ZM5 22L5 23L7 23L7 22ZM8 22L8 23L9 23L9 22ZM22 22L22 23L21 23L21 24L20 24L20 25L21 25L21 24L22 24L22 25L23 25L23 24L25 24L25 23L23 23L23 22ZM11 25L11 26L12 26L12 25ZM33 25L33 26L34 26L34 25ZM13 26L13 27L14 27L14 26ZM24 26L24 27L26 27L26 26ZM3 27L3 28L4 28L4 27ZM5 28L5 29L6 29L6 28ZM34 30L34 31L35 31L35 30ZM2 32L2 33L4 33L4 32ZM6 32L6 33L7 33L7 32ZM18 32L18 33L19 33L19 34L21 34L21 33L19 33L19 32ZM37 32L37 35L38 35L38 34L39 34L39 33L38 33L38 32ZM30 33L30 35L31 35L31 36L29 36L29 37L27 37L27 38L26 38L26 36L27 36L27 35L26 35L26 36L25 36L25 38L26 38L26 39L27 39L27 40L31 40L31 39L33 39L33 38L36 38L36 37L32 37L32 35L31 35L31 33ZM33 33L33 36L36 36L36 33ZM34 34L34 35L35 35L35 34ZM11 35L11 36L10 36L10 37L9 37L9 38L10 38L10 37L11 37L11 36L12 36L12 35ZM37 36L37 37L38 37L38 36ZM30 37L30 39L31 39L31 37ZM15 38L15 40L17 40L17 39L16 39L16 38ZM27 38L27 39L28 39L28 38ZM37 38L37 39L38 39L38 38ZM9 40L9 41L10 41L10 40ZM0 0L0 7L7 7L7 0ZM1 1L1 6L6 6L6 1ZM2 2L2 5L5 5L5 2ZM34 0L34 7L41 7L41 0ZM35 1L35 6L40 6L40 1ZM36 2L36 5L39 5L39 2ZM0 34L0 41L7 41L7 34ZM1 35L1 40L6 40L6 35ZM2 36L2 39L5 39L5 36Z" fill="#000000"/></g></g></svg>
