<?xml version="1.0" encoding="UTF-8"?>
<svg xmlns="http://www.w3.org/2000/svg" version="1.1" width="200" height="200" viewBox="0 0 200 200"><rect x="0" y="0" width="200" height="200" fill="#ffffff"/><g transform="scale(4.878)"><g transform="translate(0,0)"><path fill-rule="evenodd" d="M8 0L8 3L9 3L9 4L11 4L11 6L10 6L10 5L8 5L8 9L7 9L7 8L6 8L6 9L7 9L7 10L5 10L5 8L2 8L2 9L0 9L0 10L1 10L1 11L2 11L2 12L3 12L3 10L5 10L5 12L4 12L4 13L3 13L3 14L4 14L4 13L5 13L5 15L4 15L4 16L3 16L3 17L2 17L2 13L1 13L1 14L0 14L0 15L1 15L1 18L0 18L0 19L1 19L1 18L2 18L2 19L3 19L3 22L0 22L0 23L1 23L1 24L2 24L2 26L1 26L1 25L0 25L0 28L2 28L2 27L3 27L3 25L4 25L4 26L5 26L5 27L4 27L4 28L5 28L5 29L7 29L7 28L6 28L6 27L7 27L7 26L8 26L8 27L9 27L9 26L10 26L10 27L11 27L11 28L9 28L9 30L8 30L8 31L7 31L7 30L6 30L6 31L7 31L7 32L3 32L3 31L2 31L2 33L8 33L8 34L10 34L10 35L9 35L9 36L8 36L8 39L10 39L10 38L11 38L11 40L12 40L12 38L13 38L13 40L15 40L15 41L16 41L16 40L17 40L17 41L18 41L18 40L19 40L19 41L24 41L24 40L28 40L28 39L30 39L30 40L29 40L29 41L30 41L30 40L33 40L33 41L34 41L34 40L33 40L33 39L31 39L31 38L34 38L34 39L35 39L35 40L36 40L36 39L37 39L37 40L40 40L40 38L41 38L41 37L39 37L39 36L40 36L40 34L41 34L41 33L39 33L39 32L40 32L40 30L41 30L41 29L40 29L40 28L41 28L41 27L40 27L40 26L41 26L41 23L39 23L39 24L40 24L40 26L39 26L39 25L36 25L36 24L37 24L37 21L38 21L38 22L39 22L39 20L36 20L36 19L35 19L35 17L36 17L36 18L38 18L38 17L39 17L39 18L41 18L41 16L40 16L40 17L39 17L39 16L37 16L37 13L36 13L36 14L35 14L35 17L34 17L34 16L32 16L32 17L31 17L31 15L30 15L30 14L31 14L31 12L32 12L32 13L33 13L33 14L32 14L32 15L34 15L34 13L35 13L35 11L36 11L36 12L38 12L38 11L39 11L39 13L40 13L40 14L38 14L38 15L40 15L40 14L41 14L41 13L40 13L40 12L41 12L41 11L40 11L40 10L41 10L41 8L38 8L38 9L40 9L40 10L37 10L37 9L36 9L36 8L32 8L32 9L31 9L31 8L27 8L27 9L31 9L31 10L32 10L32 11L30 11L30 10L29 10L29 11L28 11L28 10L25 10L25 5L24 5L24 4L23 4L23 5L22 5L22 4L21 4L21 5L20 5L20 3L25 3L25 0L24 0L24 1L22 1L22 0L18 0L18 1L19 1L19 2L18 2L18 3L17 3L17 1L16 1L16 0L15 0L15 1L16 1L16 2L15 2L15 3L12 3L12 4L11 4L11 3L10 3L10 2L14 2L14 0ZM26 0L26 1L27 1L27 2L26 2L26 3L28 3L28 4L29 4L29 3L32 3L32 4L30 4L30 7L31 7L31 5L32 5L32 7L33 7L33 5L32 5L32 4L33 4L33 3L32 3L32 2L33 2L33 0L29 0L29 1L27 1L27 0ZM20 1L20 2L22 2L22 1ZM30 1L30 2L32 2L32 1ZM15 3L15 5L14 5L14 6L13 6L13 4L12 4L12 6L11 6L11 7L10 7L10 6L9 6L9 7L10 7L10 8L11 8L11 9L9 9L9 10L8 10L8 11L6 11L6 12L5 12L5 13L6 13L6 14L8 14L8 15L9 15L9 14L8 14L8 13L10 13L10 14L11 14L11 15L10 15L10 16L9 16L9 19L10 19L10 21L9 21L9 20L7 20L7 19L5 19L5 18L7 18L7 17L8 17L8 16L7 16L7 15L6 15L6 16L7 16L7 17L5 17L5 16L4 16L4 17L3 17L3 19L4 19L4 22L3 22L3 24L5 24L5 25L6 25L6 26L7 26L7 25L6 25L6 24L8 24L8 25L10 25L10 26L12 26L12 29L10 29L10 30L9 30L9 31L8 31L8 32L10 32L10 33L12 33L12 34L11 34L11 36L9 36L9 37L11 37L11 38L12 38L12 37L11 37L11 36L13 36L13 37L16 37L16 39L17 39L17 40L18 40L18 39L19 39L19 40L21 40L21 37L22 37L22 40L23 40L23 39L25 39L25 38L24 38L24 37L22 37L22 36L20 36L20 37L19 37L19 35L20 35L20 34L21 34L21 35L22 35L22 34L24 34L24 33L20 33L20 31L23 31L23 32L24 32L24 31L26 31L26 34L25 34L25 36L26 36L26 35L27 35L27 36L29 36L29 37L27 37L27 38L26 38L26 39L27 39L27 38L30 38L30 37L32 37L32 35L31 35L31 34L30 34L30 35L31 35L31 36L29 36L29 33L27 33L27 31L26 31L26 30L27 30L27 29L26 29L26 28L27 28L27 27L26 27L26 28L25 28L25 27L24 27L24 26L25 26L25 25L26 25L26 24L27 24L27 23L26 23L26 21L27 21L27 22L28 22L28 25L27 25L27 26L28 26L28 25L29 25L29 24L30 24L30 25L32 25L32 26L29 26L29 28L31 28L31 29L28 29L28 30L29 30L29 31L28 31L28 32L30 32L30 33L31 33L31 32L30 32L30 30L32 30L32 31L33 31L33 32L36 32L36 29L37 29L37 32L39 32L39 31L38 31L38 30L39 30L39 28L40 28L40 27L39 27L39 26L38 26L38 28L36 28L36 27L37 27L37 26L36 26L36 25L35 25L35 24L36 24L36 23L34 23L34 24L33 24L33 25L32 25L32 24L30 24L30 22L31 22L31 23L33 23L33 22L34 22L34 21L35 21L35 22L36 22L36 21L35 21L35 19L34 19L34 18L33 18L33 17L32 17L32 18L31 18L31 17L29 17L29 16L30 16L30 15L29 15L29 14L30 14L30 13L29 13L29 12L30 12L30 11L29 11L29 12L28 12L28 11L26 11L26 12L23 12L23 13L24 13L24 15L22 15L22 13L21 13L21 14L20 14L20 13L19 13L19 12L18 12L18 13L17 13L17 11L20 11L20 12L22 12L22 11L23 11L23 10L24 10L24 11L25 11L25 10L24 10L24 8L22 8L22 5L21 5L21 7L20 7L20 5L19 5L19 3L18 3L18 5L17 5L17 4L16 4L16 3ZM26 4L26 7L27 7L27 6L28 6L28 7L29 7L29 6L28 6L28 5L27 5L27 4ZM15 5L15 6L14 6L14 7L13 7L13 6L12 6L12 7L11 7L11 8L12 8L12 7L13 7L13 10L12 10L12 11L13 11L13 10L15 10L15 9L16 9L16 8L18 8L18 9L17 9L17 10L16 10L16 11L14 11L14 12L16 12L16 11L17 11L17 10L18 10L18 9L19 9L19 8L20 8L20 7L19 7L19 6L18 6L18 7L17 7L17 6L16 6L16 5ZM15 6L15 7L14 7L14 8L15 8L15 7L16 7L16 6ZM23 6L23 7L24 7L24 6ZM21 8L21 9L22 9L22 8ZM2 9L2 10L3 10L3 9ZM32 9L32 10L33 10L33 11L32 11L32 12L33 12L33 13L34 13L34 12L33 12L33 11L34 11L34 9ZM35 9L35 10L36 10L36 11L37 11L37 10L36 10L36 9ZM9 10L9 11L8 11L8 12L6 12L6 13L8 13L8 12L10 12L10 10ZM21 10L21 11L22 11L22 10ZM11 12L11 14L12 14L12 15L14 15L14 16L13 16L13 17L14 17L14 16L15 16L15 15L16 15L16 13L15 13L15 15L14 15L14 13L13 13L13 12ZM26 12L26 13L25 13L25 15L24 15L24 17L23 17L23 18L22 18L22 15L19 15L19 14L17 14L17 15L18 15L18 16L17 16L17 17L16 17L16 18L14 18L14 21L13 21L13 19L12 19L12 16L11 16L11 17L10 17L10 18L11 18L11 19L12 19L12 21L10 21L10 22L8 22L8 21L7 21L7 20L5 20L5 21L7 21L7 22L4 22L4 23L5 23L5 24L6 24L6 23L8 23L8 24L9 24L9 23L10 23L10 24L11 24L11 25L12 25L12 23L13 23L13 24L15 24L15 25L16 25L16 26L15 26L15 28L17 28L17 27L19 27L19 29L17 29L17 31L18 31L18 30L19 30L19 29L21 29L21 28L22 28L22 27L21 27L21 26L22 26L22 25L23 25L23 26L24 26L24 25L23 25L23 24L24 24L24 23L25 23L25 21L24 21L24 22L23 22L23 21L22 21L22 25L21 25L21 24L20 24L20 23L21 23L21 20L22 20L22 19L24 19L24 20L25 20L25 19L27 19L27 20L28 20L28 19L29 19L29 18L27 18L27 17L25 17L25 15L26 15L26 14L29 14L29 13L28 13L28 12ZM12 13L12 14L13 14L13 13ZM28 15L28 16L29 16L29 15ZM20 16L20 18L19 18L19 17L18 17L18 18L19 18L19 19L20 19L20 18L21 18L21 19L22 19L22 18L21 18L21 16ZM36 16L36 17L37 17L37 16ZM24 17L24 18L25 18L25 17ZM30 18L30 19L31 19L31 18ZM32 18L32 19L33 19L33 18ZM15 19L15 21L14 21L14 22L13 22L13 21L12 21L12 22L11 22L11 23L12 23L12 22L13 22L13 23L14 23L14 22L15 22L15 24L17 24L17 26L20 26L20 24L17 24L17 23L18 23L18 22L19 22L19 23L20 23L20 22L19 22L19 20L18 20L18 19L17 19L17 20L16 20L16 19ZM1 20L1 21L2 21L2 20ZM17 20L17 22L16 22L16 21L15 21L15 22L16 22L16 23L17 23L17 22L18 22L18 20ZM30 20L30 21L31 21L31 22L33 22L33 21L34 21L34 20L33 20L33 21L32 21L32 20ZM40 20L40 21L41 21L41 20ZM28 21L28 22L29 22L29 21ZM13 25L13 26L14 26L14 25ZM33 25L33 26L32 26L32 27L31 27L31 28L33 28L33 29L32 29L32 30L33 30L33 29L34 29L34 28L33 28L33 27L34 27L34 26L35 26L35 27L36 27L36 26L35 26L35 25ZM23 27L23 28L24 28L24 29L25 29L25 30L26 30L26 29L25 29L25 28L24 28L24 27ZM35 28L35 29L36 29L36 28ZM0 29L0 33L1 33L1 29ZM2 29L2 30L4 30L4 29ZM13 29L13 30L14 30L14 31L12 31L12 30L10 30L10 31L11 31L11 32L13 32L13 33L14 33L14 31L15 31L15 35L14 35L14 34L13 34L13 36L15 36L15 35L17 35L17 36L16 36L16 37L17 37L17 39L18 39L18 35L17 35L17 34L20 34L20 33L19 33L19 32L16 32L16 30L15 30L15 29ZM34 30L34 31L35 31L35 30ZM33 33L33 36L36 36L36 33ZM38 33L38 34L39 34L39 33ZM27 34L27 35L28 35L28 34ZM34 34L34 35L35 35L35 34ZM23 35L23 36L24 36L24 35ZM38 35L38 36L37 36L37 37L38 37L38 36L39 36L39 35ZM34 37L34 38L36 38L36 37ZM14 38L14 39L15 39L15 38ZM37 38L37 39L38 39L38 38ZM9 40L9 41L10 41L10 40ZM0 0L0 7L7 7L7 0ZM1 1L1 6L6 6L6 1ZM2 2L2 5L5 5L5 2ZM34 0L34 7L41 7L41 0ZM35 1L35 6L40 6L40 1ZM36 2L36 5L39 5L39 2ZM0 34L0 41L7 41L7 34ZM1 35L1 40L6 40L6 35ZM2 36L2 39L5 39L5 36Z" fill="#000000"/></g></g></svg>
