<?xml version="1.0" encoding="UTF-8"?>
<svg xmlns="http://www.w3.org/2000/svg" version="1.1" width="200" height="200" viewBox="0 0 200 200"><rect x="0" y="0" width="200" height="200" fill="#ffffff"/><g transform="scale(4.878)"><g transform="translate(0,0)"><path fill-rule="evenodd" d="M8 0L8 2L9 2L9 3L8 3L8 7L9 7L9 8L10 8L10 9L9 9L9 10L10 10L10 11L9 11L9 12L10 12L10 13L11 13L11 12L15 12L15 13L16 13L16 12L17 12L17 11L16 11L16 12L15 12L15 11L13 11L13 10L12 10L12 8L11 8L11 5L10 5L10 4L9 4L9 3L11 3L11 4L12 4L12 5L17 5L17 6L16 6L16 7L15 7L15 6L14 6L14 8L13 8L13 9L15 9L15 10L16 10L16 9L17 9L17 10L18 10L18 9L19 9L19 8L16 8L16 7L17 7L17 6L18 6L18 7L19 7L19 6L18 6L18 4L20 4L20 5L21 5L21 6L20 6L20 8L22 8L22 9L21 9L21 10L22 10L22 11L19 11L19 13L21 13L21 12L22 12L22 15L21 15L21 14L20 14L20 17L19 17L19 15L17 15L17 14L15 14L15 16L14 16L14 15L13 15L13 17L12 17L12 16L11 16L11 14L10 14L10 15L9 15L9 14L8 14L8 12L6 12L6 11L7 11L7 10L8 10L8 9L7 9L7 8L6 8L6 9L7 9L7 10L6 10L6 11L5 11L5 10L4 10L4 8L3 8L3 10L4 10L4 12L2 12L2 11L0 11L0 12L1 12L1 13L0 13L0 14L1 14L1 13L2 13L2 15L1 15L1 16L0 16L0 17L2 17L2 18L1 18L1 21L0 21L0 23L2 23L2 24L1 24L1 25L0 25L0 28L2 28L2 29L5 29L5 28L6 28L6 29L7 29L7 30L5 30L5 32L6 32L6 33L8 33L8 34L9 34L9 37L8 37L8 38L9 38L9 39L10 39L10 41L14 41L14 40L15 40L15 41L17 41L17 39L18 39L18 40L19 40L19 39L18 39L18 38L20 38L20 41L21 41L21 39L22 39L22 40L23 40L23 41L24 41L24 40L25 40L25 39L26 39L26 40L27 40L27 38L24 38L24 37L25 37L25 36L27 36L27 34L25 34L25 33L26 33L26 32L31 32L31 33L32 33L32 35L31 35L31 36L32 36L32 37L31 37L31 38L30 38L30 37L28 37L28 39L29 39L29 41L30 41L30 40L32 40L32 41L33 41L33 39L32 39L32 37L34 37L34 38L36 38L36 40L37 40L37 41L40 41L40 39L41 39L41 38L40 38L40 37L41 37L41 36L39 36L39 35L38 35L38 34L37 34L37 32L38 32L38 33L39 33L39 34L41 34L41 29L39 29L39 28L40 28L40 27L41 27L41 26L40 26L40 27L39 27L39 28L37 28L37 32L36 32L36 29L35 29L35 31L34 31L34 30L32 30L32 29L33 29L33 28L31 28L31 27L30 27L30 26L29 26L29 25L30 25L30 24L31 24L31 23L32 23L32 25L31 25L31 26L32 26L32 27L33 27L33 23L34 23L34 22L35 22L35 23L37 23L37 24L38 24L38 25L37 25L37 27L38 27L38 26L39 26L39 25L40 25L40 24L41 24L41 23L40 23L40 22L39 22L39 23L38 23L38 22L36 22L36 21L37 21L37 20L38 20L38 21L40 21L40 20L41 20L41 16L39 16L39 17L38 17L38 16L37 16L37 17L38 17L38 18L37 18L37 19L36 19L36 21L35 21L35 19L34 19L34 18L35 18L35 17L36 17L36 16L35 16L35 17L33 17L33 16L32 16L32 15L33 15L33 14L34 14L34 15L38 15L38 14L39 14L39 13L41 13L41 11L38 11L38 14L36 14L36 13L34 13L34 12L35 12L35 11L36 11L36 10L35 10L35 9L37 9L37 10L38 10L38 8L35 8L35 9L33 9L33 5L31 5L31 4L32 4L32 3L33 3L33 2L31 2L31 1L32 1L32 0L27 0L27 2L26 2L26 3L25 3L25 1L23 1L23 2L24 2L24 3L25 3L25 4L26 4L26 3L27 3L27 2L28 2L28 1L30 1L30 3L28 3L28 4L27 4L27 5L26 5L26 9L25 9L25 10L26 10L26 9L28 9L28 8L30 8L30 7L31 7L31 8L32 8L32 9L33 9L33 11L32 11L32 10L30 10L30 9L29 9L29 10L30 10L30 12L29 12L29 11L28 11L28 13L26 13L26 12L27 12L27 11L24 11L24 12L22 12L22 11L23 11L23 10L22 10L22 9L23 9L23 8L25 8L25 6L24 6L24 4L23 4L23 6L22 6L22 4L21 4L21 3L20 3L20 2L21 2L21 1L22 1L22 0L19 0L19 1L18 1L18 2L19 2L19 3L18 3L18 4L16 4L16 3L15 3L15 4L14 4L14 2L9 2L9 0ZM10 0L10 1L11 1L11 0ZM12 0L12 1L16 1L16 2L17 2L17 1L16 1L16 0ZM12 3L12 4L13 4L13 3ZM28 4L28 6L27 6L27 7L28 7L28 6L29 6L29 7L30 7L30 6L31 6L31 7L32 7L32 6L31 6L31 5L29 5L29 4ZM9 5L9 7L10 7L10 5ZM12 6L12 7L13 7L13 6ZM21 6L21 7L22 7L22 6ZM23 6L23 7L24 7L24 6ZM39 8L39 9L40 9L40 10L41 10L41 8ZM0 9L0 10L1 10L1 9ZM10 9L10 10L11 10L11 11L10 11L10 12L11 12L11 11L12 11L12 10L11 10L11 9ZM4 12L4 13L3 13L3 15L2 15L2 17L5 17L5 18L7 18L7 19L6 19L6 20L5 20L5 19L3 19L3 18L2 18L2 21L3 21L3 23L5 23L5 24L8 24L8 26L7 26L7 25L5 25L5 26L7 26L7 27L6 27L6 28L7 28L7 29L8 29L8 30L9 30L9 31L10 31L10 34L11 34L11 35L12 35L12 34L11 34L11 33L12 33L12 32L13 32L13 35L14 35L14 36L15 36L15 35L16 35L16 34L17 34L17 35L18 35L18 36L19 36L19 34L17 34L17 33L20 33L20 32L21 32L21 34L22 34L22 35L20 35L20 36L21 36L21 38L22 38L22 39L23 39L23 38L22 38L22 37L24 37L24 36L23 36L23 33L22 33L22 32L21 32L21 31L20 31L20 30L21 30L21 29L19 29L19 31L20 31L20 32L17 32L17 31L18 31L18 30L17 30L17 29L18 29L18 27L20 27L20 28L22 28L22 27L23 27L23 29L25 29L25 30L24 30L24 33L25 33L25 31L31 31L31 28L30 28L30 29L28 29L28 25L29 25L29 24L30 24L30 22L29 22L29 20L27 20L27 19L28 19L28 18L29 18L29 19L30 19L30 17L29 17L29 16L28 16L28 15L26 15L26 13L25 13L25 12L24 12L24 13L23 13L23 15L22 15L22 16L21 16L21 19L20 19L20 18L18 18L18 16L17 16L17 15L16 15L16 17L13 17L13 18L12 18L12 17L11 17L11 16L7 16L7 15L8 15L8 14L7 14L7 13L6 13L6 12ZM31 12L31 13L30 13L30 16L31 16L31 15L32 15L32 14L33 14L33 12ZM4 13L4 14L5 14L5 16L6 16L6 17L7 17L7 18L8 18L8 19L7 19L7 20L6 20L6 21L7 21L7 22L5 22L5 23L10 23L10 24L9 24L9 26L10 26L10 27L11 27L11 28L9 28L9 27L7 27L7 28L8 28L8 29L10 29L10 30L11 30L11 28L13 28L13 27L12 27L12 26L14 26L14 27L15 27L15 28L14 28L14 29L13 29L13 30L12 30L12 31L14 31L14 34L16 34L16 33L17 33L17 32L15 32L15 31L17 31L17 30L15 30L15 31L14 31L14 29L15 29L15 28L17 28L17 27L18 27L18 26L17 26L17 27L16 27L16 25L17 25L17 23L18 23L18 22L17 22L17 20L18 20L18 21L20 21L20 22L21 22L21 23L22 23L22 22L24 22L24 23L23 23L23 24L22 24L22 25L21 25L21 24L20 24L20 23L19 23L19 24L18 24L18 25L21 25L21 26L23 26L23 27L24 27L24 28L25 28L25 27L26 27L26 28L27 28L27 26L26 26L26 25L27 25L27 24L28 24L28 23L29 23L29 22L28 22L28 23L27 23L27 24L26 24L26 23L25 23L25 22L27 22L27 20L25 20L25 18L26 18L26 19L27 19L27 18L26 18L26 16L25 16L25 17L24 17L24 16L23 16L23 18L22 18L22 19L23 19L23 18L24 18L24 20L23 20L23 21L22 21L22 22L21 22L21 20L19 20L19 19L17 19L17 18L14 18L14 19L13 19L13 21L12 21L12 18L11 18L11 17L10 17L10 18L9 18L9 17L7 17L7 16L6 16L6 15L7 15L7 14L5 14L5 13ZM12 13L12 14L13 14L13 13ZM24 13L24 15L25 15L25 13ZM28 13L28 14L29 14L29 13ZM40 14L40 15L41 15L41 14ZM3 15L3 16L4 16L4 15ZM27 16L27 17L28 17L28 16ZM31 17L31 20L32 20L32 21L31 21L31 22L32 22L32 23L33 23L33 22L34 22L34 19L33 19L33 17ZM39 17L39 18L38 18L38 20L40 20L40 17ZM9 19L9 20L8 20L8 22L9 22L9 21L10 21L10 22L11 22L11 23L12 23L12 22L11 22L11 21L10 21L10 20L11 20L11 19ZM16 19L16 20L14 20L14 21L13 21L13 22L14 22L14 25L16 25L16 24L15 24L15 22L16 22L16 23L17 23L17 22L16 22L16 20L17 20L17 19ZM3 20L3 21L4 21L4 20ZM24 21L24 22L25 22L25 21ZM32 21L32 22L33 22L33 21ZM24 23L24 24L23 24L23 25L26 25L26 24L25 24L25 23ZM2 24L2 25L1 25L1 26L3 26L3 27L2 27L2 28L5 28L5 27L4 27L4 25L3 25L3 24ZM11 24L11 25L10 25L10 26L11 26L11 25L12 25L12 24ZM34 24L34 25L35 25L35 24ZM34 26L34 27L35 27L35 28L36 28L36 26ZM27 29L27 30L28 30L28 29ZM0 30L0 31L1 31L1 30ZM2 30L2 32L4 32L4 31L3 31L3 30ZM38 30L38 32L40 32L40 30ZM6 31L6 32L7 32L7 31ZM33 31L33 32L34 32L34 31ZM0 32L0 33L1 33L1 32ZM8 32L8 33L9 33L9 32ZM33 33L33 36L36 36L36 33ZM24 34L24 35L25 35L25 34ZM29 34L29 35L28 35L28 36L30 36L30 34ZM34 34L34 35L35 35L35 34ZM10 36L10 39L13 39L13 40L14 40L14 39L15 39L15 40L16 40L16 39L17 39L17 38L18 38L18 37L17 37L17 36L16 36L16 37L15 37L15 38L14 38L14 37L13 37L13 38L11 38L11 37L12 37L12 36ZM38 36L38 37L39 37L39 36ZM36 37L36 38L37 38L37 40L38 40L38 38L37 38L37 37ZM13 38L13 39L14 39L14 38ZM39 38L39 39L40 39L40 38ZM0 0L0 7L7 7L7 0ZM1 1L1 6L6 6L6 1ZM2 2L2 5L5 5L5 2ZM34 0L34 7L41 7L41 0ZM35 1L35 6L40 6L40 1ZM36 2L36 5L39 5L39 2ZM0 34L0 41L7 41L7 34ZM1 35L1 40L6 40L6 35ZM2 36L2 39L5 39L5 36Z" fill="#000000"/></g></g></svg>
