<?xml version="1.0" encoding="UTF-8"?>
<svg xmlns="http://www.w3.org/2000/svg" version="1.1" width="200" height="200" viewBox="0 0 200 200"><rect x="0" y="0" width="200" height="200" fill="#ffffff"/><g transform="scale(6.897)"><g transform="translate(0,0)"><path fill-rule="evenodd" d="M10 0L10 2L11 2L11 3L10 3L10 4L11 4L11 5L10 5L10 7L9 7L9 6L8 6L8 8L6 8L6 9L7 9L7 10L4 10L4 8L2 8L2 9L0 9L0 13L2 13L2 11L3 11L3 12L4 12L4 13L3 13L3 14L1 14L1 15L0 15L0 16L2 16L2 17L1 17L1 18L0 18L0 19L1 19L1 18L2 18L2 19L3 19L3 21L8 21L8 23L9 23L9 21L10 21L10 20L11 20L11 22L10 22L10 26L12 26L12 27L9 27L9 25L8 25L8 27L9 27L9 28L11 28L11 29L14 29L14 27L13 27L13 26L15 26L15 28L16 28L16 25L17 25L17 24L20 24L20 25L19 25L19 26L20 26L20 25L23 25L23 26L24 26L24 27L22 27L22 29L23 29L23 28L25 28L25 26L24 26L24 25L26 25L26 26L27 26L27 25L26 25L26 23L25 23L25 22L26 22L26 20L25 20L25 19L27 19L27 18L29 18L29 17L26 17L26 16L25 16L25 15L24 15L24 16L23 16L23 17L21 17L21 18L20 18L20 17L19 17L19 18L20 18L20 20L19 20L19 19L18 19L18 20L19 20L19 21L20 21L20 23L18 23L18 21L13 21L13 20L15 20L15 19L16 19L16 17L17 17L17 18L18 18L18 17L17 17L17 16L18 16L18 14L19 14L19 15L20 15L20 14L21 14L21 13L20 13L20 12L22 12L22 9L23 9L23 13L22 13L22 15L23 15L23 14L24 14L24 13L25 13L25 14L26 14L26 15L27 15L27 16L28 16L28 15L29 15L29 14L28 14L28 15L27 15L27 13L28 13L28 12L29 12L29 11L28 11L28 12L27 12L27 10L29 10L29 9L27 9L27 10L26 10L26 9L25 9L25 8L24 8L24 9L23 9L23 8L21 8L21 9L20 9L20 7L21 7L21 3L20 3L20 2L18 2L18 1L17 1L17 2L18 2L18 4L19 4L19 5L16 5L16 4L17 4L17 3L16 3L16 4L14 4L14 7L15 7L15 8L16 8L16 9L17 9L17 6L18 6L18 7L19 7L19 8L18 8L18 10L17 10L17 11L18 11L18 10L19 10L19 11L20 11L20 12L17 12L17 13L18 13L18 14L17 14L17 15L15 15L15 16L12 16L12 15L14 15L14 14L16 14L16 13L13 13L13 14L12 14L12 15L9 15L9 13L10 13L10 14L11 14L11 13L10 13L10 12L14 12L14 8L13 8L13 6L12 6L12 7L11 7L11 5L12 5L12 4L13 4L13 3L15 3L15 2L16 2L16 1L15 1L15 0L14 0L14 2L12 2L12 1L13 1L13 0L12 0L12 1L11 1L11 0ZM11 3L11 4L12 4L12 3ZM19 3L19 4L20 4L20 3ZM8 4L8 5L9 5L9 4ZM19 5L19 7L20 7L20 5ZM15 6L15 7L16 7L16 6ZM10 7L10 8L9 8L9 9L8 9L8 11L5 11L5 12L9 12L9 10L10 10L10 11L12 11L12 9L13 9L13 8L12 8L12 9L11 9L11 10L10 10L10 8L11 8L11 7ZM19 9L19 10L20 10L20 9ZM24 9L24 10L25 10L25 9ZM1 10L1 11L2 11L2 10ZM3 10L3 11L4 11L4 10ZM15 10L15 12L16 12L16 10ZM25 11L25 13L27 13L27 12L26 12L26 11ZM4 13L4 14L5 14L5 16L4 16L4 15L3 15L3 17L2 17L2 18L3 18L3 19L4 19L4 20L8 20L8 21L9 21L9 18L7 18L7 17L11 17L11 20L12 20L12 16L9 16L9 15L8 15L8 14L7 14L7 13ZM19 13L19 14L20 14L20 13ZM6 14L6 15L7 15L7 14ZM6 16L6 17L7 17L7 16ZM24 16L24 17L23 17L23 18L22 18L22 19L21 19L21 20L22 20L22 19L24 19L24 18L26 18L26 17L25 17L25 16ZM3 17L3 18L4 18L4 19L7 19L7 18L4 18L4 17ZM13 17L13 19L14 19L14 17ZM1 20L1 21L2 21L2 20ZM27 20L27 24L28 24L28 25L29 25L29 21L28 21L28 20ZM12 21L12 22L13 22L13 23L12 23L12 26L13 26L13 25L14 25L14 24L13 24L13 23L14 23L14 22L13 22L13 21ZM21 21L21 24L24 24L24 21ZM15 22L15 24L17 24L17 22ZM22 22L22 23L23 23L23 22ZM17 26L17 28L18 28L18 29L20 29L20 28L18 28L18 26ZM28 26L28 27L26 27L26 29L27 29L27 28L29 28L29 26ZM0 0L0 7L7 7L7 0ZM1 1L1 6L6 6L6 1ZM2 2L2 5L5 5L5 2ZM22 0L22 7L29 7L29 0ZM23 1L23 6L28 6L28 1ZM24 2L24 5L27 5L27 2ZM0 22L0 29L7 29L7 22ZM1 23L1 28L6 28L6 23ZM2 24L2 27L5 27L5 24Z" fill="#000000"/></g></g></svg>
