<?xml version="1.0" encoding="UTF-8"?>
<svg xmlns="http://www.w3.org/2000/svg" version="1.1" width="200" height="200" viewBox="0 0 200 200"><rect x="0" y="0" width="200" height="200" fill="#ffffff"/><g transform="scale(6.897)"><g transform="translate(0,0)"><path fill-rule="evenodd" d="M10 0L10 1L12 1L12 3L11 3L11 2L10 2L10 3L9 3L9 4L10 4L10 5L8 5L8 8L4 8L4 9L0 9L0 10L1 10L1 11L2 11L2 12L1 12L1 13L0 13L0 15L1 15L1 16L0 16L0 18L1 18L1 16L2 16L2 15L1 15L1 14L3 14L3 15L5 15L5 16L3 16L3 17L2 17L2 19L3 19L3 20L0 20L0 21L3 21L3 20L5 20L5 21L8 21L8 25L10 25L10 27L9 27L9 28L10 28L10 27L11 27L11 28L13 28L13 26L14 26L14 27L15 27L15 29L19 29L19 28L18 28L18 27L20 27L20 26L19 26L19 25L24 25L24 26L23 26L23 27L25 27L25 28L22 28L22 29L25 29L25 28L26 28L26 29L27 29L27 28L28 28L28 27L29 27L29 26L27 26L27 24L26 24L26 26L27 26L27 28L26 28L26 27L25 27L25 21L26 21L26 23L28 23L28 22L27 22L27 21L29 21L29 18L28 18L28 17L27 17L27 18L26 18L26 19L27 19L27 20L24 20L24 18L25 18L25 16L24 16L24 14L25 14L25 15L27 15L27 16L29 16L29 14L27 14L27 12L29 12L29 9L28 9L28 8L27 8L27 9L28 9L28 10L24 10L24 8L22 8L22 9L23 9L23 10L22 10L22 11L24 11L24 12L23 12L23 13L22 13L22 12L21 12L21 11L20 11L20 9L21 9L21 8L20 8L20 7L21 7L21 6L20 6L20 7L19 7L19 6L18 6L18 3L19 3L19 2L20 2L20 1L21 1L21 0L19 0L19 1L18 1L18 2L17 2L17 1L16 1L16 2L15 2L15 1L12 1L12 0ZM8 1L8 2L9 2L9 1ZM13 2L13 3L15 3L15 5L13 5L13 7L12 7L12 6L11 6L11 5L10 5L10 6L9 6L9 8L8 8L8 9L4 9L4 10L3 10L3 12L2 12L2 13L5 13L5 14L8 14L8 13L9 13L9 14L10 14L10 16L9 16L9 15L8 15L8 16L7 16L7 15L6 15L6 16L5 16L5 18L7 18L7 19L6 19L6 20L7 20L7 19L8 19L8 20L10 20L10 17L11 17L11 20L12 20L12 22L11 22L11 21L9 21L9 23L12 23L12 22L13 22L13 23L14 23L14 24L15 24L15 25L14 25L14 26L16 26L16 28L17 28L17 27L18 27L18 26L17 26L17 25L18 25L18 24L20 24L20 22L19 22L19 23L18 23L18 24L17 24L17 22L15 22L15 21L16 21L16 19L18 19L18 18L19 18L19 20L18 20L18 21L19 21L19 20L21 20L21 19L20 19L20 18L19 18L19 16L20 16L20 17L22 17L22 18L24 18L24 16L22 16L22 15L21 15L21 14L22 14L22 13L21 13L21 14L19 14L19 16L18 16L18 17L17 17L17 14L18 14L18 13L17 13L17 11L18 11L18 12L19 12L19 13L20 13L20 12L19 12L19 11L18 11L18 10L17 10L17 11L16 11L16 13L15 13L15 14L14 14L14 11L15 11L15 10L16 10L16 9L20 9L20 8L19 8L19 7L18 7L18 6L17 6L17 8L16 8L16 9L15 9L15 8L14 8L14 6L15 6L15 7L16 7L16 6L15 6L15 5L16 5L16 4L17 4L17 2L16 2L16 3L15 3L15 2ZM10 3L10 4L11 4L11 3ZM20 3L20 5L21 5L21 3ZM10 6L10 7L11 7L11 8L9 8L9 9L8 9L8 10L9 10L9 11L7 11L7 10L4 10L4 12L5 12L5 13L7 13L7 12L9 12L9 13L10 13L10 14L11 14L11 15L12 15L12 16L11 16L11 17L12 17L12 18L14 18L14 19L15 19L15 18L17 18L17 17L16 17L16 14L17 14L17 13L16 13L16 14L15 14L15 15L14 15L14 14L12 14L12 13L13 13L13 10L14 10L14 9L13 9L13 8L12 8L12 7L11 7L11 6ZM11 8L11 9L9 9L9 10L10 10L10 11L9 11L9 12L10 12L10 11L11 11L11 10L12 10L12 8ZM5 11L5 12L7 12L7 11ZM11 12L11 13L12 13L12 12ZM23 13L23 14L24 14L24 13ZM25 13L25 14L26 14L26 13ZM6 16L6 17L7 17L7 18L9 18L9 16L8 16L8 17L7 17L7 16ZM12 16L12 17L13 17L13 16ZM14 16L14 17L15 17L15 16ZM3 17L3 19L4 19L4 17ZM27 18L27 19L28 19L28 18ZM12 19L12 20L13 20L13 19ZM22 19L22 20L23 20L23 19ZM14 20L14 21L15 21L15 20ZM21 21L21 24L24 24L24 21ZM14 22L14 23L15 23L15 24L16 24L16 25L17 25L17 24L16 24L16 23L15 23L15 22ZM22 22L22 23L23 23L23 22ZM12 24L12 25L11 25L11 26L12 26L12 25L13 25L13 24ZM21 26L21 27L22 27L22 26ZM0 0L0 7L7 7L7 0ZM1 1L1 6L6 6L6 1ZM2 2L2 5L5 5L5 2ZM22 0L22 7L29 7L29 0ZM23 1L23 6L28 6L28 1ZM24 2L24 5L27 5L27 2ZM0 22L0 29L7 29L7 22ZM1 23L1 28L6 28L6 23ZM2 24L2 27L5 27L5 24Z" fill="#000000"/></g></g></svg>
