<?xml version="1.0" encoding="UTF-8"?>
<svg xmlns="http://www.w3.org/2000/svg" version="1.1" width="200" height="200" viewBox="0 0 200 200"><rect x="0" y="0" width="200" height="200" fill="#ffffff"/><g transform="scale(6.897)"><g transform="translate(0,0)"><path fill-rule="evenodd" d="M9 0L9 1L10 1L10 0ZM12 0L12 1L11 1L11 2L10 2L10 3L12 3L12 1L13 1L13 4L12 4L12 8L13 8L13 4L14 4L14 7L15 7L15 6L16 6L16 7L17 7L17 8L16 8L16 9L14 9L14 13L13 13L13 12L12 12L12 9L11 9L11 8L10 8L10 7L11 7L11 4L9 4L9 2L8 2L8 4L9 4L9 5L10 5L10 7L9 7L9 6L8 6L8 7L9 7L9 8L10 8L10 10L8 10L8 11L7 11L7 10L6 10L6 9L8 9L8 8L6 8L6 9L5 9L5 8L3 8L3 9L4 9L4 10L2 10L2 9L0 9L0 12L1 12L1 13L0 13L0 16L4 16L4 15L7 15L7 16L5 16L5 17L8 17L8 18L4 18L4 17L0 17L0 21L8 21L8 23L10 23L10 25L11 25L11 24L12 24L12 25L13 25L13 26L10 26L10 27L11 27L11 29L12 29L12 27L14 27L14 28L13 28L13 29L14 29L14 28L16 28L16 29L17 29L17 27L18 27L18 29L20 29L20 28L21 28L21 29L23 29L23 28L24 28L24 29L25 29L25 28L26 28L26 29L28 29L28 28L27 28L27 27L29 27L29 26L26 26L26 25L29 25L29 22L28 22L28 21L26 21L26 20L27 20L27 19L25 19L25 18L28 18L28 19L29 19L29 17L28 17L28 16L29 16L29 14L27 14L27 13L29 13L29 11L28 11L28 10L27 10L27 11L26 11L26 9L27 9L27 8L25 8L25 12L24 12L24 16L23 16L23 12L22 12L22 11L21 11L21 10L19 10L19 9L17 9L17 8L19 8L19 6L20 6L20 8L21 8L21 4L19 4L19 3L20 3L20 1L21 1L21 0L19 0L19 1L18 1L18 0L17 0L17 1L16 1L16 2L17 2L17 1L18 1L18 2L19 2L19 3L18 3L18 4L19 4L19 6L18 6L18 7L17 7L17 6L16 6L16 5L17 5L17 4L16 4L16 3L15 3L15 4L14 4L14 2L15 2L15 1L13 1L13 0ZM22 9L22 10L23 10L23 11L24 11L24 9ZM4 10L4 11L1 11L1 12L2 12L2 13L3 13L3 12L4 12L4 11L5 11L5 13L4 13L4 14L7 14L7 15L8 15L8 13L9 13L9 15L12 15L12 16L11 16L11 17L9 17L9 18L8 18L8 19L10 19L10 20L8 20L8 21L11 21L11 20L12 20L12 22L10 22L10 23L12 23L12 24L13 24L13 25L15 25L15 26L16 26L16 25L17 25L17 24L18 24L18 25L19 25L19 26L18 26L18 27L19 27L19 28L20 28L20 27L21 27L21 26L22 26L22 28L23 28L23 27L26 27L26 26L24 26L24 25L19 25L19 24L20 24L20 21L19 21L19 18L20 18L20 19L21 19L21 20L22 20L22 19L21 19L21 16L20 16L20 15L21 15L21 14L22 14L22 12L21 12L21 14L20 14L20 15L19 15L19 16L18 16L18 15L17 15L17 14L18 14L18 12L17 12L17 11L19 11L19 10L17 10L17 11L16 11L16 12L15 12L15 14L16 14L16 15L15 15L15 16L13 16L13 13L12 13L12 14L10 14L10 13L11 13L11 12L9 12L9 11L8 11L8 13L6 13L6 12L7 12L7 11L5 11L5 10ZM27 11L27 12L28 12L28 11ZM16 12L16 14L17 14L17 12ZM19 12L19 13L20 13L20 12ZM25 13L25 16L26 16L26 17L27 17L27 16L28 16L28 15L27 15L27 16L26 16L26 13ZM2 14L2 15L3 15L3 14ZM16 16L16 19L17 19L17 18L18 18L18 16ZM22 16L22 17L23 17L23 16ZM11 17L11 18L10 18L10 19L11 19L11 18L12 18L12 20L15 20L15 22L16 22L16 23L19 23L19 21L18 21L18 20L17 20L17 21L18 21L18 22L16 22L16 20L15 20L15 19L14 19L14 18L15 18L15 17L14 17L14 18L13 18L13 17ZM2 18L2 19L3 19L3 20L7 20L7 19L4 19L4 18ZM23 19L23 20L25 20L25 19ZM13 21L13 24L15 24L15 25L16 25L16 24L15 24L15 23L14 23L14 21ZM21 21L21 24L24 24L24 21ZM22 22L22 23L23 23L23 22ZM25 22L25 25L26 25L26 24L28 24L28 23L27 23L27 22ZM8 24L8 26L9 26L9 24ZM9 28L9 29L10 29L10 28ZM0 0L0 7L7 7L7 0ZM1 1L1 6L6 6L6 1ZM2 2L2 5L5 5L5 2ZM22 0L22 7L29 7L29 0ZM23 1L23 6L28 6L28 1ZM24 2L24 5L27 5L27 2ZM0 22L0 29L7 29L7 22ZM1 23L1 28L6 28L6 23ZM2 24L2 27L5 27L5 24Z" fill="#000000"/></g></g></svg>
