<?xml version="1.0" encoding="UTF-8"?>
<svg xmlns="http://www.w3.org/2000/svg" version="1.1" width="200" height="200" viewBox="0 0 200 200"><rect x="0" y="0" width="200" height="200" fill="#ffffff"/><g transform="scale(6.897)"><g transform="translate(0,0)"><path fill-rule="evenodd" d="M12 0L12 1L13 1L13 2L11 2L11 1L10 1L10 2L8 2L8 4L9 4L9 6L8 6L8 7L9 7L9 6L10 6L10 8L9 8L9 9L8 9L8 8L6 8L6 9L5 9L5 8L3 8L3 9L4 9L4 10L2 10L2 11L4 11L4 12L6 12L6 13L3 13L3 14L2 14L2 13L1 13L1 12L0 12L0 14L2 14L2 15L0 15L0 21L2 21L2 19L3 19L3 20L4 20L4 21L8 21L8 23L9 23L9 24L8 24L8 26L9 26L9 27L10 27L10 26L9 26L9 24L10 24L10 25L11 25L11 24L10 24L10 23L12 23L12 26L11 26L11 27L12 27L12 28L11 28L11 29L12 29L12 28L13 28L13 29L14 29L14 28L18 28L18 27L19 27L19 25L24 25L24 26L25 26L25 27L23 27L23 28L22 28L22 26L21 26L21 27L20 27L20 28L19 28L19 29L20 29L20 28L21 28L21 29L23 29L23 28L24 28L24 29L25 29L25 27L26 27L26 29L28 29L28 28L27 28L27 27L29 27L29 26L26 26L26 25L28 25L28 24L29 24L29 23L28 23L28 24L26 24L26 25L25 25L25 22L27 22L27 21L26 21L26 20L27 20L27 19L26 19L26 20L23 20L23 19L25 19L25 18L28 18L28 19L29 19L29 17L28 17L28 16L29 16L29 15L28 15L28 16L27 16L27 13L29 13L29 11L28 11L28 10L27 10L27 8L25 8L25 9L26 9L26 10L25 10L25 12L24 12L24 16L23 16L23 12L22 12L22 11L21 11L21 10L19 10L19 9L20 9L20 8L19 8L19 6L20 6L20 7L21 7L21 4L19 4L19 3L20 3L20 1L21 1L21 0L19 0L19 1L18 1L18 0ZM15 1L15 2L16 2L16 3L15 3L15 5L17 5L17 7L18 7L18 6L19 6L19 5L18 5L18 3L19 3L19 2L18 2L18 1L17 1L17 2L16 2L16 1ZM10 2L10 6L11 6L11 8L10 8L10 9L11 9L11 10L7 10L7 9L6 9L6 10L7 10L7 11L6 11L6 12L8 12L8 13L6 13L6 14L3 14L3 15L2 15L2 16L1 16L1 17L2 17L2 16L3 16L3 18L4 18L4 20L5 20L5 19L6 19L6 20L7 20L7 19L8 19L8 21L11 21L11 20L9 20L9 19L8 19L8 18L7 18L7 17L8 17L8 13L9 13L9 12L8 12L8 11L11 11L11 12L12 12L12 13L13 13L13 14L10 14L10 15L9 15L9 17L10 17L10 19L12 19L12 18L13 18L13 17L14 17L14 13L13 13L13 12L17 12L17 13L16 13L16 15L15 15L15 18L14 18L14 19L13 19L13 20L12 20L12 23L14 23L14 24L13 24L13 27L17 27L17 25L15 25L15 24L20 24L20 21L18 21L18 20L19 20L19 18L20 18L20 19L21 19L21 20L22 20L22 19L21 19L21 16L20 16L20 15L21 15L21 14L22 14L22 12L21 12L21 14L20 14L20 15L19 15L19 13L20 13L20 12L19 12L19 13L18 13L18 12L17 12L17 11L15 11L15 9L14 9L14 8L15 8L15 7L16 7L16 6L15 6L15 7L14 7L14 6L13 6L13 7L12 7L12 6L11 6L11 2ZM13 3L13 4L14 4L14 3ZM11 8L11 9L12 9L12 10L11 10L11 11L14 11L14 9L12 9L12 8ZM17 8L17 10L18 10L18 9L19 9L19 8ZM0 9L0 10L1 10L1 9ZM22 9L22 10L23 10L23 11L24 11L24 9ZM26 10L26 11L27 11L27 12L28 12L28 11L27 11L27 10ZM17 13L17 14L18 14L18 13ZM25 13L25 16L26 16L26 17L27 17L27 16L26 16L26 13ZM6 14L6 15L5 15L5 17L7 17L7 16L6 16L6 15L7 15L7 14ZM3 15L3 16L4 16L4 15ZM11 15L11 16L10 16L10 17L11 17L11 16L12 16L12 15ZM17 15L17 16L16 16L16 18L15 18L15 19L14 19L14 20L15 20L15 21L16 21L16 20L15 20L15 19L16 19L16 18L17 18L17 20L18 20L18 18L19 18L19 15ZM17 16L17 18L18 18L18 16ZM22 16L22 17L23 17L23 16ZM6 18L6 19L7 19L7 18ZM13 21L13 22L14 22L14 23L16 23L16 22L14 22L14 21ZM17 21L17 22L18 22L18 23L19 23L19 22L18 22L18 21ZM21 21L21 24L24 24L24 21ZM28 21L28 22L29 22L29 21ZM22 22L22 23L23 23L23 22ZM14 25L14 26L15 26L15 25ZM9 28L9 29L10 29L10 28ZM0 0L0 7L7 7L7 0ZM1 1L1 6L6 6L6 1ZM2 2L2 5L5 5L5 2ZM22 0L22 7L29 7L29 0ZM23 1L23 6L28 6L28 1ZM24 2L24 5L27 5L27 2ZM0 22L0 29L7 29L7 22ZM1 23L1 28L6 28L6 23ZM2 24L2 27L5 27L5 24Z" fill="#000000"/></g></g></svg>
