<?xml version="1.0" encoding="UTF-8"?>
<svg xmlns="http://www.w3.org/2000/svg" version="1.1" width="200" height="200" viewBox="0 0 200 200"><rect x="0" y="0" width="200" height="200" fill="#ffffff"/><g transform="scale(4.878)"><g transform="translate(0,0)"><path fill-rule="evenodd" d="M8 0L8 3L9 3L9 5L8 5L8 9L7 9L7 8L6 8L6 9L7 9L7 10L6 10L6 11L5 11L5 12L4 12L4 11L3 11L3 10L5 10L5 8L2 8L2 9L3 9L3 10L1 10L1 11L0 11L0 13L1 13L1 14L0 14L0 16L1 16L1 14L2 14L2 13L3 13L3 12L4 12L4 14L3 14L3 15L4 15L4 16L2 16L2 17L1 17L1 18L6 18L6 19L1 19L1 20L4 20L4 22L3 22L3 21L0 21L0 22L1 22L1 23L2 23L2 22L3 22L3 24L0 24L0 26L1 26L1 28L2 28L2 29L0 29L0 33L1 33L1 30L2 30L2 29L4 29L4 33L5 33L5 32L6 32L6 33L7 33L7 32L6 32L6 31L7 31L7 30L8 30L8 29L9 29L9 30L10 30L10 28L6 28L6 29L5 29L5 28L2 28L2 27L5 27L5 25L7 25L7 26L6 26L6 27L7 27L7 26L9 26L9 25L7 25L7 24L6 24L6 23L7 23L7 22L6 22L6 23L5 23L5 20L6 20L6 21L8 21L8 20L9 20L9 21L10 21L10 20L11 20L11 19L8 19L8 20L6 20L6 19L7 19L7 18L6 18L6 17L7 17L7 16L8 16L8 18L10 18L10 17L9 17L9 16L8 16L8 15L7 15L7 14L8 14L8 13L9 13L9 14L10 14L10 13L11 13L11 14L12 14L12 13L13 13L13 11L14 11L14 10L15 10L15 12L14 12L14 16L13 16L13 15L10 15L10 16L11 16L11 17L12 17L12 16L13 16L13 17L14 17L14 16L15 16L15 14L16 14L16 17L18 17L18 19L15 19L15 18L14 18L14 20L13 20L13 19L12 19L12 24L11 24L11 23L10 23L10 24L11 24L11 25L10 25L10 27L11 27L11 28L12 28L12 27L11 27L11 25L12 25L12 26L16 26L16 27L15 27L15 29L18 29L18 28L19 28L19 30L18 30L18 32L17 32L17 34L15 34L15 35L19 35L19 36L14 36L14 35L13 35L13 33L12 33L12 31L13 31L13 29L14 29L14 27L13 27L13 29L12 29L12 30L11 30L11 31L8 31L8 34L10 34L10 35L9 35L9 36L8 36L8 39L9 39L9 36L10 36L10 37L11 37L11 38L10 38L10 39L12 39L12 37L11 37L11 36L14 36L14 37L16 37L16 39L20 39L20 38L21 38L21 41L24 41L24 40L26 40L26 41L27 41L27 40L28 40L28 38L26 38L26 37L25 37L25 38L24 38L24 40L22 40L22 38L23 38L23 37L22 37L22 36L21 36L21 35L27 35L27 37L29 37L29 36L32 36L32 38L31 38L31 37L30 37L30 38L29 38L29 39L30 39L30 38L31 38L31 39L32 39L32 40L31 40L31 41L32 41L32 40L33 40L33 41L34 41L34 40L33 40L33 39L32 39L32 38L34 38L34 39L35 39L35 40L36 40L36 39L37 39L37 40L40 40L40 38L41 38L41 36L38 36L38 35L40 35L40 34L41 34L41 33L39 33L39 32L41 32L41 31L40 31L40 30L41 30L41 29L39 29L39 30L38 30L38 29L36 29L36 28L38 28L38 26L39 26L39 28L40 28L40 26L41 26L41 23L39 23L39 22L38 22L38 21L39 21L39 20L36 20L36 19L35 19L35 17L36 17L36 18L37 18L37 17L39 17L39 16L37 16L37 15L38 15L38 14L39 14L39 15L40 15L40 14L41 14L41 12L39 12L39 13L38 13L38 14L37 14L37 13L36 13L36 14L35 14L35 17L34 17L34 16L33 16L33 17L31 17L31 16L29 16L29 15L28 15L28 16L29 16L29 17L31 17L31 18L30 18L30 19L31 19L31 18L32 18L32 21L31 21L31 20L30 20L30 21L31 21L31 22L29 22L29 23L30 23L30 24L27 24L27 25L26 25L26 23L24 23L24 21L25 21L25 19L24 19L24 18L25 18L25 17L24 17L24 16L23 16L23 15L25 15L25 13L26 13L26 12L27 12L27 14L29 14L29 13L30 13L30 14L31 14L31 10L32 10L32 13L33 13L33 14L32 14L32 15L34 15L34 13L35 13L35 9L36 9L36 12L38 12L38 11L40 11L40 10L41 10L41 8L38 8L38 9L40 9L40 10L37 10L37 9L36 9L36 8L33 8L33 6L32 6L32 7L31 7L31 6L30 6L30 7L31 7L31 8L28 8L28 7L29 7L29 6L28 6L28 5L29 5L29 4L28 4L28 5L27 5L27 4L26 4L26 5L27 5L27 6L26 6L26 8L27 8L27 9L29 9L29 10L26 10L26 11L25 11L25 13L24 13L24 11L23 11L23 10L21 10L21 8L20 8L20 10L19 10L19 11L17 11L17 12L16 12L16 10L15 10L15 8L14 8L14 9L13 9L13 6L14 6L14 7L15 7L15 6L14 6L14 5L12 5L12 4L14 4L14 3L15 3L15 5L16 5L16 9L17 9L17 10L18 10L18 9L19 9L19 4L22 4L22 3L19 3L19 2L21 2L21 1L20 1L20 0L19 0L19 1L18 1L18 0L16 0L16 1L18 1L18 2L17 2L17 5L16 5L16 2L14 2L14 1L12 1L12 0ZM24 0L24 2L25 2L25 0ZM26 0L26 1L27 1L27 2L26 2L26 3L32 3L32 4L30 4L30 5L32 5L32 4L33 4L33 3L32 3L32 2L33 2L33 1L32 1L32 0L31 0L31 1L32 1L32 2L30 2L30 0L29 0L29 1L27 1L27 0ZM11 1L11 2L12 2L12 1ZM22 1L22 2L23 2L23 1ZM9 2L9 3L10 3L10 2ZM11 3L11 4L10 4L10 5L9 5L9 7L10 7L10 5L11 5L11 8L12 8L12 5L11 5L11 4L12 4L12 3ZM23 3L23 4L24 4L24 3ZM17 5L17 9L18 9L18 5ZM20 5L20 7L21 7L21 6L22 6L22 7L23 7L23 8L24 8L24 7L25 7L25 5ZM23 6L23 7L24 7L24 6ZM27 6L27 7L28 7L28 6ZM9 8L9 9L8 9L8 10L7 10L7 11L6 11L6 12L5 12L5 13L6 13L6 14L5 14L5 15L6 15L6 16L5 16L5 17L6 17L6 16L7 16L7 15L6 15L6 14L7 14L7 13L6 13L6 12L9 12L9 13L10 13L10 12L9 12L9 11L11 11L11 12L12 12L12 11L13 11L13 9L10 9L10 8ZM31 8L31 9L30 9L30 10L29 10L29 11L28 11L28 13L29 13L29 12L30 12L30 10L31 10L31 9L32 9L32 10L33 10L33 11L34 11L34 9L32 9L32 8ZM24 9L24 10L25 10L25 9ZM11 10L11 11L12 11L12 10ZM1 11L1 12L2 12L2 11ZM15 12L15 13L16 13L16 12ZM17 12L17 13L18 13L18 15L20 15L20 17L19 17L19 16L18 16L18 17L19 17L19 19L18 19L18 20L14 20L14 25L16 25L16 26L17 26L17 25L18 25L18 26L19 26L19 27L21 27L21 28L22 28L22 27L23 27L23 25L24 25L24 27L25 27L25 28L26 28L26 29L27 29L27 28L28 28L28 27L29 27L29 28L31 28L31 29L30 29L30 30L29 30L29 29L28 29L28 30L29 30L29 31L28 31L28 33L27 33L27 30L25 30L25 29L24 29L24 28L23 28L23 29L24 29L24 30L23 30L23 31L22 31L22 32L21 32L21 29L20 29L20 30L19 30L19 32L18 32L18 34L23 34L23 31L24 31L24 33L25 33L25 34L26 34L26 33L27 33L27 34L28 34L28 33L29 33L29 32L31 32L31 31L30 31L30 30L32 30L32 31L33 31L33 32L36 32L36 31L37 31L37 32L39 32L39 31L37 31L37 30L36 30L36 29L35 29L35 27L36 27L36 25L39 25L39 26L40 26L40 24L39 24L39 23L38 23L38 22L37 22L37 24L36 24L36 23L35 23L35 22L36 22L36 21L35 21L35 19L34 19L34 18L33 18L33 20L34 20L34 21L32 21L32 22L31 22L31 23L32 23L32 24L31 24L31 25L30 25L30 26L29 26L29 25L27 25L27 26L28 26L28 27L25 27L25 26L26 26L26 25L24 25L24 23L23 23L23 22L22 22L22 23L23 23L23 24L22 24L22 25L21 25L21 23L19 23L19 22L21 22L21 20L20 20L20 18L21 18L21 19L23 19L23 21L24 21L24 19L23 19L23 18L24 18L24 17L22 17L22 18L21 18L21 16L22 16L22 15L23 15L23 12L21 12L21 13L20 13L20 12ZM33 12L33 13L34 13L34 12ZM39 13L39 14L40 14L40 13ZM20 14L20 15L21 15L21 14ZM26 15L26 17L27 17L27 15ZM36 16L36 17L37 17L37 16ZM40 16L40 18L39 18L39 19L40 19L40 18L41 18L41 16ZM26 18L26 19L29 19L29 18ZM19 20L19 21L18 21L18 22L19 22L19 21L20 21L20 20ZM27 20L27 21L29 21L29 20ZM40 20L40 21L41 21L41 20ZM34 21L34 22L32 22L32 23L34 23L34 22L35 22L35 21ZM15 22L15 24L16 24L16 23L17 23L17 24L19 24L19 23L17 23L17 22ZM27 22L27 23L28 23L28 22ZM8 23L8 24L9 24L9 23ZM3 24L3 26L4 26L4 24ZM12 24L12 25L13 25L13 24ZM33 24L33 25L31 25L31 26L32 26L32 28L33 28L33 29L32 29L32 30L33 30L33 29L34 29L34 28L33 28L33 27L34 27L34 26L35 26L35 25L36 25L36 24L35 24L35 25L34 25L34 24ZM1 25L1 26L2 26L2 25ZM20 25L20 26L21 26L21 27L22 27L22 26L21 26L21 25ZM33 25L33 26L34 26L34 25ZM17 27L17 28L18 28L18 27ZM6 29L6 30L7 30L7 29ZM16 30L16 31L15 31L15 32L14 32L14 33L16 33L16 31L17 31L17 30ZM24 30L24 31L25 31L25 33L26 33L26 31L25 31L25 30ZM34 30L34 31L35 31L35 30ZM2 31L2 33L3 33L3 31ZM10 32L10 33L11 33L11 32ZM19 32L19 33L20 33L20 32ZM30 33L30 35L31 35L31 34L32 34L32 33ZM33 33L33 36L36 36L36 33ZM38 33L38 34L37 34L37 35L38 35L38 34L39 34L39 33ZM11 34L11 35L10 35L10 36L11 36L11 35L12 35L12 34ZM34 34L34 35L35 35L35 34ZM28 35L28 36L29 36L29 35ZM20 36L20 37L18 37L18 38L20 38L20 37L21 37L21 36ZM37 36L37 37L38 37L38 36ZM34 37L34 38L36 38L36 37ZM13 38L13 41L15 41L15 40L14 40L14 38ZM25 38L25 39L26 39L26 40L27 40L27 39L26 39L26 38ZM37 38L37 39L38 39L38 38ZM9 40L9 41L11 41L11 40ZM16 40L16 41L20 41L20 40ZM29 40L29 41L30 41L30 40ZM0 0L0 7L7 7L7 0ZM1 1L1 6L6 6L6 1ZM2 2L2 5L5 5L5 2ZM34 0L34 7L41 7L41 0ZM35 1L35 6L40 6L40 1ZM36 2L36 5L39 5L39 2ZM0 34L0 41L7 41L7 34ZM1 35L1 40L6 40L6 35ZM2 36L2 39L5 39L5 36Z" fill="#000000"/></g></g></svg>
