<?xml version="1.0" encoding="UTF-8"?>
<svg xmlns="http://www.w3.org/2000/svg" version="1.1" width="200" height="200" viewBox="0 0 200 200"><rect x="0" y="0" width="200" height="200" fill="#ffffff"/><g transform="scale(4.878)"><g transform="translate(0,0)"><path fill-rule="evenodd" d="M8 0L8 2L10 2L10 3L8 3L8 7L9 7L9 6L10 6L10 8L11 8L11 6L12 6L12 8L13 8L13 9L11 9L11 10L12 10L12 11L11 11L11 12L12 12L12 13L14 13L14 15L15 15L15 16L14 16L14 17L15 17L15 16L18 16L18 15L17 15L17 13L16 13L16 14L15 14L15 12L12 12L12 11L13 11L13 9L14 9L14 10L15 10L15 9L17 9L17 10L18 10L18 11L16 11L16 12L18 12L18 14L19 14L19 18L18 18L18 17L16 17L16 18L17 18L17 20L18 20L18 21L16 21L16 20L15 20L15 21L16 21L16 22L15 22L15 24L13 24L13 25L12 25L12 24L11 24L11 26L9 26L9 24L10 24L10 23L14 23L14 21L13 21L13 22L12 22L12 21L11 21L11 20L12 20L12 19L13 19L13 18L11 18L11 15L12 15L12 17L13 17L13 14L11 14L11 13L10 13L10 15L9 15L9 16L10 16L10 17L9 17L9 18L6 18L6 19L3 19L3 18L5 18L5 17L3 17L3 16L4 16L4 15L3 15L3 14L4 14L4 13L5 13L5 16L6 16L6 17L7 17L7 16L8 16L8 13L9 13L9 11L10 11L10 10L9 10L9 9L8 9L8 10L4 10L4 8L3 8L3 10L2 10L2 11L1 11L1 10L0 10L0 11L1 11L1 12L0 12L0 14L1 14L1 15L3 15L3 16L0 16L0 17L2 17L2 18L0 18L0 19L1 19L1 20L0 20L0 21L1 21L1 22L3 22L3 23L4 23L4 25L1 25L1 24L0 24L0 25L1 25L1 27L2 27L2 28L0 28L0 29L1 29L1 30L0 30L0 31L1 31L1 30L2 30L2 31L3 31L3 30L4 30L4 31L5 31L5 32L4 32L4 33L7 33L7 32L6 32L6 31L7 31L7 30L6 30L6 31L5 31L5 29L7 29L7 28L8 28L8 30L9 30L9 31L8 31L8 34L9 34L9 33L10 33L10 35L9 35L9 37L8 37L8 38L9 38L9 37L11 37L11 38L10 38L10 39L9 39L9 41L10 41L10 40L11 40L11 39L12 39L12 41L13 41L13 37L12 37L12 36L13 36L13 35L14 35L14 34L13 34L13 35L12 35L12 36L10 36L10 35L11 35L11 34L12 34L12 32L13 32L13 31L14 31L14 33L15 33L15 28L16 28L16 29L18 29L18 28L19 28L19 27L18 27L18 28L17 28L17 26L19 26L19 25L20 25L20 28L21 28L21 26L25 26L25 29L24 29L24 28L23 28L23 27L22 27L22 28L23 28L23 30L21 30L21 29L19 29L19 30L20 30L20 31L18 31L18 32L17 32L17 30L16 30L16 32L17 32L17 33L18 33L18 34L17 34L17 36L18 36L18 38L17 38L17 37L16 37L16 36L14 36L14 37L16 37L16 38L14 38L14 39L15 39L15 40L14 40L14 41L15 41L15 40L16 40L16 39L18 39L18 38L24 38L24 39L23 39L23 40L24 40L24 39L25 39L25 40L26 40L26 41L28 41L28 39L26 39L26 38L24 38L24 37L27 37L27 36L26 36L26 35L27 35L27 33L28 33L28 32L26 32L26 31L25 31L25 29L26 29L26 30L27 30L27 31L29 31L29 32L31 32L31 30L33 30L33 31L34 31L34 32L32 32L32 33L31 33L31 34L30 34L30 33L29 33L29 34L30 34L30 37L28 37L28 38L31 38L31 39L29 39L29 41L30 41L30 40L31 40L31 41L33 41L33 39L32 39L32 37L34 37L34 38L36 38L36 40L37 40L37 41L40 41L40 39L41 39L41 38L40 38L40 37L41 37L41 35L40 35L40 37L38 37L38 36L39 36L39 34L41 34L41 29L39 29L39 28L37 28L37 27L38 27L38 26L39 26L39 25L40 25L40 24L41 24L41 23L40 23L40 22L38 22L38 21L40 21L40 20L41 20L41 16L39 16L39 17L38 17L38 16L37 16L37 19L36 19L36 20L35 20L35 19L34 19L34 18L35 18L35 17L36 17L36 16L35 16L35 17L33 17L33 15L32 15L32 14L33 14L33 10L31 10L31 8L32 8L32 9L33 9L33 8L32 8L32 7L33 7L33 6L32 6L32 5L33 5L33 1L32 1L32 0L30 0L30 1L29 1L29 0L27 0L27 1L26 1L26 0L24 0L24 1L23 1L23 0L21 0L21 1L19 1L19 0L15 0L15 1L13 1L13 0L11 0L11 1L9 1L9 0ZM12 1L12 2L11 2L11 3L10 3L10 5L11 5L11 4L12 4L12 2L13 2L13 3L15 3L15 2L13 2L13 1ZM16 1L16 2L17 2L17 1ZM18 1L18 6L17 6L17 7L16 7L16 6L15 6L15 8L14 8L14 5L17 5L17 3L16 3L16 4L14 4L14 5L12 5L12 6L13 6L13 8L14 8L14 9L15 9L15 8L17 8L17 7L18 7L18 6L19 6L19 9L18 9L18 10L19 10L19 11L18 11L18 12L19 12L19 13L20 13L20 14L21 14L21 15L20 15L20 16L21 16L21 17L20 17L20 18L19 18L19 19L18 19L18 20L20 20L20 22L19 22L19 21L18 21L18 22L16 22L16 25L17 25L17 24L18 24L18 25L19 25L19 24L21 24L21 25L23 25L23 24L25 24L25 23L24 23L24 21L27 21L27 23L26 23L26 25L25 25L25 26L26 26L26 27L28 27L28 28L27 28L27 29L29 29L29 31L30 31L30 29L29 29L29 26L30 26L30 27L32 27L32 26L34 26L34 27L36 27L36 26L37 26L37 24L36 24L36 26L35 26L35 25L34 25L34 23L38 23L38 22L36 22L36 21L35 21L35 22L34 22L34 19L33 19L33 20L31 20L31 19L32 19L32 18L33 18L33 17L32 17L32 15L31 15L31 18L30 18L30 19L29 19L29 20L30 20L30 22L29 22L29 24L27 24L27 23L28 23L28 21L27 21L27 19L28 19L28 18L29 18L29 15L30 15L30 14L32 14L32 13L30 13L30 14L27 14L27 15L25 15L25 13L29 13L29 12L31 12L31 11L30 11L30 10L29 10L29 12L26 12L26 11L28 11L28 8L27 8L27 7L28 7L28 6L27 6L27 5L25 5L25 4L24 4L24 6L23 6L23 7L24 7L24 8L23 8L23 9L22 9L22 3L21 3L21 2L19 2L19 1ZM22 1L22 2L23 2L23 3L24 3L24 2L25 2L25 1L24 1L24 2L23 2L23 1ZM28 1L28 2L26 2L26 3L27 3L27 4L28 4L28 5L29 5L29 7L30 7L30 6L31 6L31 7L32 7L32 6L31 6L31 5L32 5L32 4L31 4L31 3L32 3L32 1L30 1L30 4L28 4L28 3L29 3L29 1ZM19 3L19 4L21 4L21 3ZM19 5L19 6L20 6L20 8L21 8L21 5ZM24 6L24 7L25 7L25 6ZM26 6L26 7L27 7L27 6ZM6 8L6 9L7 9L7 8ZM25 8L25 9L23 9L23 10L22 10L22 9L20 9L20 10L21 10L21 11L19 11L19 12L21 12L21 13L22 13L22 17L23 17L23 16L24 16L24 17L25 17L25 18L23 18L23 20L22 20L22 18L21 18L21 20L22 20L22 22L20 22L20 23L21 23L21 24L23 24L23 20L24 20L24 19L25 19L25 20L26 20L26 19L25 19L25 18L27 18L27 16L28 16L28 15L27 15L27 16L26 16L26 17L25 17L25 15L23 15L23 13L25 13L25 12L24 12L24 11L23 11L23 10L25 10L25 11L26 11L26 8ZM29 8L29 9L30 9L30 8ZM35 8L35 9L34 9L34 10L35 10L35 11L36 11L36 9L37 9L37 10L38 10L38 8ZM39 8L39 9L40 9L40 10L41 10L41 8ZM4 11L4 12L3 12L3 13L2 13L2 12L1 12L1 13L2 13L2 14L3 14L3 13L4 13L4 12L7 12L7 13L6 13L6 14L7 14L7 13L8 13L8 11ZM21 11L21 12L23 12L23 11ZM38 11L38 13L37 13L37 15L38 15L38 13L41 13L41 12L39 12L39 11ZM34 12L34 15L35 15L35 14L36 14L36 13L35 13L35 12ZM40 14L40 15L41 15L41 14ZM6 15L6 16L7 16L7 15ZM39 17L39 19L37 19L37 20L40 20L40 17ZM9 18L9 19L8 19L8 21L9 21L9 20L11 20L11 18ZM6 19L6 20L7 20L7 19ZM4 20L4 21L5 21L5 22L7 22L7 21L5 21L5 20ZM10 21L10 22L11 22L11 21ZM32 21L32 22L30 22L30 23L31 23L31 24L29 24L29 25L28 25L28 26L29 26L29 25L30 25L30 26L32 26L32 25L31 25L31 24L32 24L32 23L34 23L34 22L33 22L33 21ZM18 22L18 23L19 23L19 22ZM5 23L5 25L6 25L6 26L7 26L7 27L6 27L6 28L7 28L7 27L9 27L9 28L10 28L10 33L11 33L11 30L12 30L12 31L13 31L13 30L14 30L14 29L13 29L13 30L12 30L12 29L11 29L11 28L12 28L12 27L13 27L13 28L14 28L14 27L16 27L16 26L15 26L15 25L14 25L14 26L12 26L12 27L11 27L11 28L10 28L10 27L9 27L9 26L8 26L8 25L6 25L6 24L9 24L9 23ZM39 23L39 24L38 24L38 25L39 25L39 24L40 24L40 23ZM26 25L26 26L27 26L27 25ZM3 26L3 27L4 27L4 29L5 29L5 27L4 27L4 26ZM40 26L40 28L41 28L41 26ZM2 28L2 30L3 30L3 28ZM32 28L32 29L33 29L33 28ZM36 28L36 29L34 29L34 31L35 31L35 32L37 32L37 34L39 34L39 33L38 33L38 32L39 32L39 31L40 31L40 30L39 30L39 31L38 31L38 32L37 32L37 28ZM23 31L23 32L20 32L20 33L19 33L19 32L18 32L18 33L19 33L19 34L20 34L20 33L21 33L21 35L20 35L20 37L21 37L21 36L22 36L22 37L24 37L24 36L25 36L25 35L26 35L26 32L25 32L25 33L23 33L23 32L24 32L24 31ZM0 32L0 33L1 33L1 32ZM22 33L22 34L23 34L23 35L22 35L22 36L24 36L24 35L25 35L25 34L23 34L23 33ZM33 33L33 36L36 36L36 33ZM15 34L15 35L16 35L16 34ZM31 34L31 37L32 37L32 34ZM34 34L34 35L35 35L35 34ZM18 35L18 36L19 36L19 35ZM36 37L36 38L38 38L38 40L39 40L39 39L40 39L40 38L38 38L38 37ZM31 39L31 40L32 40L32 39ZM0 0L0 7L7 7L7 0ZM1 1L1 6L6 6L6 1ZM2 2L2 5L5 5L5 2ZM34 0L34 7L41 7L41 0ZM35 1L35 6L40 6L40 1ZM36 2L36 5L39 5L39 2ZM0 34L0 41L7 41L7 34ZM1 35L1 40L6 40L6 35ZM2 36L2 39L5 39L5 36Z" fill="#000000"/></g></g></svg>
