<?xml version="1.0" encoding="UTF-8"?>
<svg xmlns="http://www.w3.org/2000/svg" version="1.1" width="200" height="200" viewBox="0 0 200 200"><rect x="0" y="0" width="200" height="200" fill="#ffffff"/><g transform="scale(4.878)"><g transform="translate(0,0)"><path fill-rule="evenodd" d="M8 0L8 3L9 3L9 4L10 4L10 7L11 7L11 6L12 6L12 8L9 8L9 5L8 5L8 9L7 9L7 8L6 8L6 9L7 9L7 10L6 10L6 11L5 11L5 8L2 8L2 9L4 9L4 11L5 11L5 12L3 12L3 13L4 13L4 14L3 14L3 15L4 15L4 16L5 16L5 17L7 17L7 16L8 16L8 15L9 15L9 17L10 17L10 18L8 18L8 19L7 19L7 18L6 18L6 19L4 19L4 18L2 18L2 19L0 19L0 22L1 22L1 21L2 21L2 23L1 23L1 24L0 24L0 27L1 27L1 28L0 28L0 33L1 33L1 29L3 29L3 30L2 30L2 33L8 33L8 34L9 34L9 36L8 36L8 39L9 39L9 38L11 38L11 37L12 37L12 36L13 36L13 39L11 39L11 40L10 40L10 41L11 41L11 40L13 40L13 41L14 41L14 40L13 40L13 39L14 39L14 38L15 38L15 41L16 41L16 39L17 39L17 40L18 40L18 41L19 41L19 40L20 40L20 39L21 39L21 40L22 40L22 39L23 39L23 41L25 41L25 40L24 40L24 39L25 39L25 38L26 38L26 40L27 40L27 41L31 41L31 40L33 40L33 41L34 41L34 40L33 40L33 39L35 39L35 40L36 40L36 39L37 39L37 40L40 40L40 38L41 38L41 37L40 37L40 36L41 36L41 35L40 35L40 34L41 34L41 33L40 33L40 30L41 30L41 29L40 29L40 28L41 28L41 27L40 27L40 26L41 26L41 23L39 23L39 24L40 24L40 26L39 26L39 25L34 25L34 24L32 24L32 23L30 23L30 24L29 24L29 23L28 23L28 22L29 22L29 21L28 21L28 19L29 19L29 18L27 18L27 21L28 21L28 22L25 22L25 21L24 21L24 22L22 22L22 21L23 21L23 20L22 20L22 19L23 19L23 17L22 17L22 16L23 16L23 15L24 15L24 16L25 16L25 15L27 15L27 14L29 14L29 15L28 15L28 16L29 16L29 17L31 17L31 18L30 18L30 19L31 19L31 20L30 20L30 21L31 21L31 22L33 22L33 23L34 23L34 22L35 22L35 23L36 23L36 24L37 24L37 23L38 23L38 21L39 21L39 20L36 20L36 19L35 19L35 17L36 17L36 18L37 18L37 19L39 19L39 18L41 18L41 16L40 16L40 17L39 17L39 16L37 16L37 15L38 15L38 13L36 13L36 14L35 14L35 17L34 17L34 16L32 16L32 17L31 17L31 16L29 16L29 15L30 15L30 14L31 14L31 12L32 12L32 13L33 13L33 14L32 14L32 15L34 15L34 13L35 13L35 11L36 11L36 12L38 12L38 11L39 11L39 13L40 13L40 14L39 14L39 15L40 15L40 14L41 14L41 12L40 12L40 10L41 10L41 8L38 8L38 9L40 9L40 10L37 10L37 9L36 9L36 8L32 8L32 7L33 7L33 6L32 6L32 7L31 7L31 5L32 5L32 4L33 4L33 1L32 1L32 0L31 0L31 1L32 1L32 2L30 2L30 0L29 0L29 1L27 1L27 0L26 0L26 1L27 1L27 2L26 2L26 3L28 3L28 4L29 4L29 5L27 5L27 4L26 4L26 5L25 5L25 3L23 3L23 4L24 4L24 7L25 7L25 8L23 8L23 6L22 6L22 8L21 8L21 4L22 4L22 3L21 3L21 2L22 2L22 1L23 1L23 2L24 2L24 1L23 1L23 0L22 0L22 1L20 1L20 0L17 0L17 1L15 1L15 0L13 0L13 1L12 1L12 0L10 0L10 1L9 1L9 0ZM11 1L11 3L10 3L10 2L9 2L9 3L10 3L10 4L11 4L11 5L12 5L12 6L13 6L13 7L14 7L14 8L16 8L16 9L15 9L15 12L16 12L16 13L14 13L14 10L13 10L13 13L14 13L14 15L13 15L13 14L12 14L12 13L9 13L9 14L11 14L11 15L10 15L10 16L12 16L12 15L13 15L13 17L14 17L14 18L15 18L15 22L14 22L14 20L13 20L13 22L11 22L11 24L12 24L12 25L10 25L10 24L9 24L9 23L10 23L10 21L8 21L8 20L12 20L12 19L13 19L13 18L11 18L11 19L8 19L8 20L7 20L7 19L6 19L6 20L7 20L7 21L6 21L6 22L7 22L7 23L5 23L5 20L4 20L4 19L3 19L3 23L2 23L2 24L1 24L1 25L3 25L3 26L1 26L1 27L2 27L2 28L4 28L4 29L5 29L5 30L7 30L7 31L6 31L6 32L7 32L7 31L8 31L8 33L9 33L9 34L10 34L10 37L11 37L11 36L12 36L12 35L13 35L13 36L16 36L16 37L15 37L15 38L16 38L16 37L17 37L17 39L18 39L18 37L21 37L21 39L22 39L22 38L25 38L25 37L23 37L23 36L24 36L24 32L25 32L25 30L27 30L27 28L30 28L30 29L28 29L28 30L29 30L29 31L28 31L28 32L30 32L30 33L31 33L31 32L30 32L30 29L31 29L31 30L32 30L32 31L33 31L33 32L36 32L36 31L38 31L38 32L37 32L37 33L38 33L38 34L37 34L37 36L39 36L39 33L38 33L38 32L39 32L39 31L38 31L38 30L39 30L39 26L38 26L38 28L36 28L36 29L35 29L35 26L34 26L34 25L32 25L32 24L31 24L31 25L30 25L30 26L29 26L29 27L27 27L27 26L28 26L28 25L29 25L29 24L28 24L28 25L27 25L27 26L25 26L25 28L26 28L26 29L24 29L24 32L23 32L23 30L21 30L21 29L20 29L20 30L19 30L19 28L18 28L18 30L19 30L19 31L17 31L17 32L16 32L16 29L17 29L17 28L16 28L16 29L15 29L15 27L17 27L17 24L16 24L16 22L17 22L17 23L19 23L19 24L18 24L18 25L19 25L19 24L20 24L20 26L22 26L22 27L24 27L24 26L22 26L22 25L21 25L21 24L24 24L24 25L25 25L25 24L24 24L24 23L22 23L22 22L21 22L21 21L22 21L22 20L20 20L20 21L19 21L19 22L17 22L17 20L18 20L18 19L19 19L19 18L20 18L20 19L21 19L21 18L22 18L22 17L21 17L21 18L20 18L20 16L22 16L22 14L21 14L21 15L19 15L19 18L18 18L18 19L17 19L17 18L15 18L15 17L16 17L16 16L17 16L17 15L18 15L18 14L20 14L20 12L18 12L18 10L16 10L16 9L17 9L17 8L16 8L16 6L17 6L17 7L18 7L18 9L20 9L20 8L19 8L19 7L20 7L20 6L19 6L19 5L17 5L17 4L19 4L19 3L20 3L20 4L21 4L21 3L20 3L20 2L17 2L17 3L16 3L16 2L14 2L14 1L13 1L13 2L12 2L12 1ZM15 3L15 4L14 4L14 5L15 5L15 6L14 6L14 7L15 7L15 6L16 6L16 5L15 5L15 4L16 4L16 3ZM29 3L29 4L32 4L32 3ZM12 4L12 5L13 5L13 4ZM29 5L29 8L30 8L30 9L27 9L27 7L28 7L28 6L27 6L27 7L26 7L26 6L25 6L25 7L26 7L26 10L24 10L24 11L23 11L23 8L22 8L22 9L21 9L21 11L22 11L22 12L21 12L21 13L23 13L23 14L24 14L24 15L25 15L25 14L26 14L26 10L29 10L29 11L27 11L27 12L28 12L28 13L29 13L29 14L30 14L30 13L29 13L29 12L30 12L30 11L32 11L32 12L33 12L33 13L34 13L34 12L33 12L33 11L34 11L34 10L33 10L33 9L32 9L32 8L31 8L31 7L30 7L30 5ZM18 6L18 7L19 7L19 6ZM12 8L12 9L13 9L13 8ZM9 9L9 10L7 10L7 11L6 11L6 12L5 12L5 13L6 13L6 14L5 14L5 15L6 15L6 16L7 16L7 15L8 15L8 14L7 14L7 13L6 13L6 12L7 12L7 11L9 11L9 12L10 12L10 11L11 11L11 12L12 12L12 11L11 11L11 10L10 10L10 9ZM30 9L30 10L32 10L32 11L33 11L33 10L32 10L32 9ZM0 10L0 11L1 11L1 10ZM2 10L2 11L3 11L3 10ZM9 10L9 11L10 11L10 10ZM36 10L36 11L37 11L37 10ZM24 11L24 12L23 12L23 13L24 13L24 12L25 12L25 11ZM1 13L1 15L0 15L0 16L1 16L1 17L2 17L2 13ZM16 13L16 14L18 14L18 13ZM6 14L6 15L7 15L7 14ZM36 14L36 15L37 15L37 14ZM14 15L14 16L16 16L16 15ZM36 16L36 17L37 17L37 18L39 18L39 17L37 17L37 16ZM24 17L24 18L25 18L25 17ZM32 17L32 18L31 18L31 19L32 19L32 20L31 20L31 21L33 21L33 22L34 22L34 21L35 21L35 22L36 22L36 21L35 21L35 19L34 19L34 18L33 18L33 17ZM24 19L24 20L26 20L26 19ZM33 20L33 21L34 21L34 20ZM40 20L40 21L41 21L41 20ZM7 21L7 22L8 22L8 23L9 23L9 22L8 22L8 21ZM19 22L19 23L20 23L20 22ZM4 23L4 24L5 24L5 25L4 25L4 26L5 26L5 25L7 25L7 26L6 26L6 27L8 27L8 28L5 28L5 29L7 29L7 30L8 30L8 31L10 31L10 30L12 30L12 32L9 32L9 33L10 33L10 34L11 34L11 35L12 35L12 32L13 32L13 30L14 30L14 31L15 31L15 29L14 29L14 26L15 26L15 25L14 25L14 24L13 24L13 23L12 23L12 24L13 24L13 25L14 25L14 26L12 26L12 27L13 27L13 28L12 28L12 29L10 29L10 30L8 30L8 28L9 28L9 27L11 27L11 26L9 26L9 24L5 24L5 23ZM31 25L31 26L32 26L32 25ZM18 26L18 27L19 27L19 26ZM33 26L33 27L31 27L31 28L33 28L33 29L32 29L32 30L33 30L33 29L34 29L34 28L33 28L33 27L34 27L34 26ZM36 26L36 27L37 27L37 26ZM20 27L20 28L21 28L21 27ZM22 28L22 29L23 29L23 28ZM36 29L36 30L34 30L34 31L36 31L36 30L37 30L37 29ZM3 31L3 32L5 32L5 31ZM20 31L20 33L19 33L19 32L17 32L17 33L18 33L18 34L15 34L15 35L16 35L16 36L17 36L17 37L18 37L18 36L17 36L17 35L19 35L19 36L21 36L21 37L22 37L22 36L23 36L23 35L22 35L22 36L21 36L21 35L19 35L19 34L20 34L20 33L22 33L22 32L21 32L21 31ZM26 33L26 34L25 34L25 36L26 36L26 37L27 37L27 38L28 38L28 39L27 39L27 40L31 40L31 39L33 39L33 38L36 38L36 37L33 37L33 38L31 38L31 39L30 39L30 37L32 37L32 35L31 35L31 34L30 34L30 35L31 35L31 36L28 36L28 37L27 37L27 36L26 36L26 34L29 34L29 33ZM33 33L33 36L36 36L36 33ZM13 34L13 35L14 35L14 34ZM34 34L34 35L35 35L35 34ZM28 37L28 38L29 38L29 37ZM19 38L19 39L20 39L20 38ZM37 38L37 39L38 39L38 38ZM0 0L0 7L7 7L7 0ZM1 1L1 6L6 6L6 1ZM2 2L2 5L5 5L5 2ZM34 0L34 7L41 7L41 0ZM35 1L35 6L40 6L40 1ZM36 2L36 5L39 5L39 2ZM0 34L0 41L7 41L7 34ZM1 35L1 40L6 40L6 35ZM2 36L2 39L5 39L5 36Z" fill="#000000"/></g></g></svg>
