<?xml version="1.0" encoding="UTF-8"?>
<svg xmlns="http://www.w3.org/2000/svg" version="1.1" width="200" height="200" viewBox="0 0 200 200"><rect x="0" y="0" width="200" height="200" fill="#ffffff"/><g transform="scale(4.878)"><g transform="translate(0,0)"><path fill-rule="evenodd" d="M8 0L8 3L9 3L9 4L12 4L12 5L11 5L11 6L10 6L10 8L11 8L11 6L12 6L12 9L14 9L14 10L15 10L15 9L16 9L16 12L15 12L15 11L13 11L13 10L11 10L11 9L9 9L9 5L8 5L8 10L6 10L6 11L7 11L7 12L5 12L5 8L2 8L2 9L4 9L4 12L3 12L3 10L2 10L2 11L1 11L1 10L0 10L0 12L2 12L2 13L0 13L0 14L1 14L1 16L0 16L0 17L1 17L1 18L2 18L2 19L0 19L0 23L1 23L1 22L3 22L3 23L2 23L2 24L4 24L4 25L2 25L2 26L1 26L1 25L0 25L0 28L2 28L2 29L0 29L0 33L1 33L1 30L2 30L2 32L3 32L3 33L8 33L8 34L9 34L9 35L10 35L10 37L11 37L11 38L10 38L10 40L9 40L9 41L10 41L10 40L11 40L11 41L12 41L12 40L11 40L11 38L12 38L12 39L13 39L13 38L12 38L12 36L13 36L13 37L14 37L14 39L19 39L19 41L21 41L21 40L23 40L23 38L22 38L22 39L21 39L21 40L20 40L20 35L21 35L21 37L22 37L22 36L23 36L23 37L24 37L24 40L25 40L25 38L26 38L26 41L27 41L27 40L28 40L28 41L31 41L31 40L33 40L33 41L34 41L34 40L33 40L33 39L30 39L30 40L28 40L28 39L29 39L29 38L26 38L26 37L29 37L29 36L31 36L31 35L32 35L32 37L30 37L30 38L34 38L34 39L35 39L35 40L36 40L36 39L37 39L37 40L40 40L40 38L41 38L41 37L40 37L40 36L41 36L41 35L40 35L40 34L41 34L41 33L40 33L40 32L41 32L41 31L40 31L40 30L41 30L41 29L39 29L39 30L38 30L38 31L40 31L40 32L37 32L37 31L36 31L36 30L37 30L37 29L36 29L36 28L38 28L38 26L39 26L39 28L40 28L40 26L41 26L41 23L39 23L39 24L40 24L40 26L39 26L39 25L36 25L36 24L37 24L37 20L38 20L38 21L39 21L39 20L38 20L38 19L39 19L39 18L41 18L41 16L40 16L40 17L39 17L39 16L38 16L38 14L37 14L37 13L36 13L36 14L35 14L35 17L34 17L34 16L33 16L33 17L30 17L30 16L29 16L29 15L31 15L31 10L32 10L32 9L34 9L34 11L32 11L32 13L33 13L33 14L32 14L32 15L34 15L34 13L35 13L35 9L36 9L36 10L37 10L37 11L36 11L36 12L38 12L38 11L39 11L39 12L40 12L40 10L41 10L41 8L38 8L38 9L40 9L40 10L37 10L37 9L36 9L36 8L33 8L33 4L30 4L30 5L29 5L29 4L28 4L28 5L27 5L27 4L26 4L26 5L27 5L27 6L26 6L26 8L25 8L25 11L24 11L24 12L22 12L22 11L21 11L21 10L22 10L22 9L23 9L23 10L24 10L24 8L23 8L23 6L24 6L24 7L25 7L25 6L24 6L24 5L22 5L22 4L23 4L23 3L25 3L25 2L24 2L24 0L23 0L23 1L21 1L21 0L18 0L18 1L21 1L21 2L20 2L20 4L21 4L21 5L22 5L22 9L20 9L20 10L19 10L19 8L18 8L18 7L19 7L19 4L18 4L18 7L17 7L17 5L16 5L16 4L17 4L17 3L18 3L18 2L17 2L17 3L15 3L15 5L16 5L16 8L15 8L15 6L14 6L14 8L13 8L13 6L12 6L12 5L13 5L13 4L14 4L14 3L13 3L13 2L14 2L14 1L17 1L17 0L14 0L14 1L13 1L13 2L12 2L12 3L9 3L9 1L10 1L10 2L11 2L11 1L12 1L12 0L11 0L11 1L10 1L10 0ZM26 0L26 1L27 1L27 2L26 2L26 3L31 3L31 2L30 2L30 0L29 0L29 1L27 1L27 0ZM31 0L31 1L32 1L32 2L33 2L33 1L32 1L32 0ZM21 2L21 4L22 4L22 2ZM28 5L28 6L27 6L27 8L26 8L26 9L27 9L27 10L26 10L26 11L25 11L25 14L27 14L27 15L26 15L26 16L25 16L25 19L24 19L24 18L23 18L23 15L24 15L24 14L23 14L23 15L22 15L22 17L21 17L21 18L22 18L22 19L21 19L21 20L20 20L20 19L18 19L18 18L17 18L17 19L12 19L12 14L11 14L11 13L12 13L12 12L9 12L9 11L10 11L10 10L8 10L8 12L7 12L7 13L6 13L6 14L7 14L7 15L5 15L5 14L3 14L3 13L2 13L2 15L5 15L5 16L4 16L4 17L5 17L5 18L3 18L3 17L2 17L2 18L3 18L3 19L2 19L2 20L1 20L1 21L3 21L3 20L4 20L4 24L5 24L5 27L4 27L4 26L2 26L2 27L3 27L3 32L4 32L4 31L6 31L6 32L7 32L7 31L8 31L8 30L9 30L9 29L10 29L10 30L11 30L11 31L12 31L12 32L11 32L11 33L10 33L10 35L11 35L11 36L12 36L12 35L14 35L14 36L15 36L15 32L19 32L19 33L21 33L21 34L22 34L22 35L23 35L23 36L24 36L24 37L26 37L26 35L27 35L27 36L29 36L29 33L27 33L27 34L26 34L26 32L27 32L27 29L26 29L26 27L27 27L27 26L29 26L29 28L31 28L31 29L28 29L28 30L30 30L30 31L28 31L28 32L30 32L30 33L31 33L31 32L30 32L30 31L31 31L31 30L32 30L32 31L33 31L33 32L35 32L35 31L34 31L34 30L36 30L36 29L35 29L35 28L36 28L36 27L37 27L37 26L36 26L36 25L35 25L35 24L36 24L36 23L35 23L35 22L36 22L36 21L35 21L35 19L36 19L36 20L37 20L37 19L38 19L38 18L39 18L39 17L38 17L38 16L36 16L36 17L35 17L35 19L34 19L34 18L31 18L31 19L30 19L30 17L29 17L29 16L28 16L28 15L29 15L29 14L30 14L30 13L29 13L29 12L30 12L30 11L29 11L29 10L31 10L31 9L32 9L32 5L30 5L30 6L29 6L29 5ZM20 6L20 8L21 8L21 6ZM28 6L28 7L29 7L29 6ZM30 6L30 7L31 7L31 6ZM6 8L6 9L7 9L7 8ZM14 8L14 9L15 9L15 8ZM17 8L17 11L18 11L18 8ZM27 8L27 9L28 9L28 10L27 10L27 11L26 11L26 12L27 12L27 14L29 14L29 13L28 13L28 12L27 12L27 11L28 11L28 10L29 10L29 9L31 9L31 8L29 8L29 9L28 9L28 8ZM19 11L19 12L20 12L20 13L19 13L19 14L18 14L18 13L17 13L17 12L16 12L16 14L14 14L14 13L15 13L15 12L13 12L13 15L15 15L15 17L19 17L19 16L18 16L18 15L20 15L20 16L21 16L21 11ZM8 12L8 13L7 13L7 14L8 14L8 13L9 13L9 14L10 14L10 17L11 17L11 14L10 14L10 13L9 13L9 12ZM33 12L33 13L34 13L34 12ZM39 13L39 14L41 14L41 13ZM16 14L16 16L17 16L17 14ZM36 14L36 15L37 15L37 14ZM7 15L7 16L5 16L5 17L7 17L7 18L6 18L6 19L4 19L4 20L6 20L6 21L8 21L8 22L5 22L5 24L6 24L6 25L8 25L8 27L9 27L9 25L10 25L10 24L9 24L9 25L8 25L8 23L9 23L9 22L10 22L10 23L11 23L11 24L12 24L12 23L13 23L13 26L11 26L11 27L14 27L14 26L15 26L15 25L14 25L14 23L15 23L15 24L16 24L16 21L18 21L18 22L19 22L19 23L17 23L17 25L18 25L18 28L17 28L17 26L16 26L16 28L15 28L15 29L14 29L14 28L10 28L10 29L11 29L11 30L12 30L12 31L13 31L13 32L12 32L12 33L11 33L11 35L12 35L12 33L14 33L14 31L13 31L13 30L12 30L12 29L14 29L14 30L16 30L16 29L18 29L18 30L20 30L20 31L21 31L21 30L22 30L22 31L23 31L23 29L25 29L25 26L26 26L26 24L27 24L27 25L29 25L29 26L30 26L30 25L31 25L31 26L32 26L32 25L34 25L34 26L33 26L33 27L34 27L34 26L35 26L35 25L34 25L34 22L35 22L35 21L34 21L34 20L33 20L33 21L32 21L32 20L30 20L30 21L31 21L31 22L33 22L33 24L32 24L32 25L31 25L31 23L30 23L30 24L27 24L27 23L28 23L28 22L29 22L29 21L28 21L28 19L29 19L29 18L27 18L27 16L26 16L26 19L25 19L25 20L24 20L24 19L23 19L23 20L21 20L21 22L20 22L20 20L19 20L19 21L18 21L18 20L16 20L16 21L14 21L14 23L13 23L13 21L12 21L12 19L10 19L10 18L8 18L8 16L9 16L9 15ZM13 17L13 18L14 18L14 17ZM36 17L36 18L38 18L38 17ZM7 18L7 19L6 19L6 20L7 20L7 19L8 19L8 18ZM8 20L8 21L11 21L11 22L12 22L12 21L11 21L11 20ZM26 20L26 21L25 21L25 22L24 22L24 21L23 21L23 24L22 24L22 25L21 25L21 26L19 26L19 28L18 28L18 29L21 29L21 28L22 28L22 25L23 25L23 24L25 24L25 22L28 22L28 21L27 21L27 20ZM40 20L40 21L41 21L41 20ZM33 21L33 22L34 22L34 21ZM6 23L6 24L7 24L7 23ZM19 23L19 24L18 24L18 25L19 25L19 24L21 24L21 23ZM24 25L24 26L25 26L25 25ZM6 26L6 27L5 27L5 28L4 28L4 29L8 29L8 28L6 28L6 27L7 27L7 26ZM20 27L20 28L21 28L21 27ZM23 27L23 28L24 28L24 27ZM33 28L33 29L32 29L32 30L33 30L33 29L34 29L34 28ZM6 30L6 31L7 31L7 30ZM24 31L24 32L23 32L23 33L22 33L22 34L23 34L23 35L24 35L24 36L25 36L25 35L24 35L24 34L23 34L23 33L24 33L24 32L26 32L26 31ZM8 32L8 33L9 33L9 32ZM16 33L16 35L18 35L18 36L16 36L16 37L15 37L15 38L17 38L17 37L18 37L18 36L19 36L19 35L20 35L20 34L19 34L19 35L18 35L18 34L17 34L17 33ZM33 33L33 36L36 36L36 33ZM38 33L38 34L37 34L37 35L38 35L38 36L37 36L37 37L38 37L38 36L39 36L39 33ZM27 34L27 35L28 35L28 34ZM30 34L30 35L31 35L31 34ZM34 34L34 35L35 35L35 34ZM8 36L8 39L9 39L9 36ZM34 37L34 38L36 38L36 37ZM37 38L37 39L38 39L38 38ZM13 40L13 41L16 41L16 40ZM17 40L17 41L18 41L18 40ZM0 0L0 7L7 7L7 0ZM1 1L1 6L6 6L6 1ZM2 2L2 5L5 5L5 2ZM34 0L34 7L41 7L41 0ZM35 1L35 6L40 6L40 1ZM36 2L36 5L39 5L39 2ZM0 34L0 41L7 41L7 34ZM1 35L1 40L6 40L6 35ZM2 36L2 39L5 39L5 36Z" fill="#000000"/></g></g></svg>
