<?xml version="1.0" encoding="UTF-8"?>
<svg xmlns="http://www.w3.org/2000/svg" version="1.1" width="200" height="200" viewBox="0 0 200 200"><rect x="0" y="0" width="200" height="200" fill="#ffffff"/><g transform="scale(4.878)"><g transform="translate(0,0)"><path fill-rule="evenodd" d="M8 0L8 2L9 2L9 3L8 3L8 7L9 7L9 6L10 6L10 8L9 8L9 10L8 10L8 11L11 11L11 12L13 12L13 13L12 13L12 14L11 14L11 15L10 15L10 16L9 16L9 15L8 15L8 17L7 17L7 16L6 16L6 15L7 15L7 14L9 14L9 12L6 12L6 11L7 11L7 10L6 10L6 9L7 9L7 8L6 8L6 9L4 9L4 8L3 8L3 11L2 11L2 9L1 9L1 11L0 11L0 12L1 12L1 13L0 13L0 15L1 15L1 22L0 22L0 23L3 23L3 25L4 25L4 24L5 24L5 26L4 26L4 27L3 27L3 26L2 26L2 27L1 27L1 25L2 25L2 24L0 24L0 27L1 27L1 28L2 28L2 29L1 29L1 30L0 30L0 31L1 31L1 30L3 30L3 28L5 28L5 26L6 26L6 27L7 27L7 26L9 26L9 25L10 25L10 29L11 29L11 32L10 32L10 30L9 30L9 28L8 28L8 29L7 29L7 28L6 28L6 29L7 29L7 30L6 30L6 31L5 31L5 30L4 30L4 31L5 31L5 32L3 32L3 31L2 31L2 32L3 32L3 33L5 33L5 32L6 32L6 33L8 33L8 34L9 34L9 37L8 37L8 38L9 38L9 37L10 37L10 38L12 38L12 39L13 39L13 41L15 41L15 39L16 39L16 38L17 38L17 37L19 37L19 38L18 38L18 39L17 39L17 41L21 41L21 40L22 40L22 41L23 41L23 39L25 39L25 38L26 38L26 39L27 39L27 40L28 40L28 39L27 39L27 38L26 38L26 37L25 37L25 36L26 36L26 35L27 35L27 36L30 36L30 34L32 34L32 37L31 37L31 39L30 39L30 37L28 37L28 38L29 38L29 41L30 41L30 40L32 40L32 41L33 41L33 39L34 39L34 38L36 38L36 40L37 40L37 41L40 41L40 39L41 39L41 38L40 38L40 37L41 37L41 35L39 35L39 34L41 34L41 33L39 33L39 32L41 32L41 29L39 29L39 28L37 28L37 32L35 32L35 31L34 31L34 30L32 30L32 29L33 29L33 28L32 28L32 27L33 27L33 26L34 26L34 27L35 27L35 26L34 26L34 25L35 25L35 24L33 24L33 26L32 26L32 25L31 25L31 26L32 26L32 27L30 27L30 26L28 26L28 29L27 29L27 28L26 28L26 27L27 27L27 25L26 25L26 24L28 24L28 25L30 25L30 24L32 24L32 23L34 23L34 22L35 22L35 23L37 23L37 24L38 24L38 25L37 25L37 26L36 26L36 27L38 27L38 26L39 26L39 25L40 25L40 24L41 24L41 23L40 23L40 22L39 22L39 23L38 23L38 21L40 21L40 20L41 20L41 16L39 16L39 17L38 17L38 16L37 16L37 18L39 18L39 17L40 17L40 20L37 20L37 19L36 19L36 21L35 21L35 19L34 19L34 18L35 18L35 17L36 17L36 15L37 15L37 14L36 14L36 13L34 13L34 12L36 12L36 11L37 11L37 10L38 10L38 8L35 8L35 9L32 9L32 10L31 10L31 6L32 6L32 8L33 8L33 6L32 6L32 5L33 5L33 0L31 0L31 1L30 1L30 0L27 0L27 2L26 2L26 3L25 3L25 2L24 2L24 1L25 1L25 0L24 0L24 1L23 1L23 0L20 0L20 1L19 1L19 0L18 0L18 1L19 1L19 3L18 3L18 5L17 5L17 3L16 3L16 2L17 2L17 0ZM9 1L9 2L11 2L11 3L9 3L9 4L11 4L11 5L10 5L10 6L11 6L11 8L10 8L10 9L11 9L11 8L13 8L13 9L12 9L12 10L15 10L15 12L14 12L14 13L13 13L13 14L12 14L12 15L13 15L13 16L12 16L12 18L13 18L13 19L14 19L14 20L13 20L13 21L16 21L16 22L14 22L14 23L13 23L13 22L12 22L12 24L14 24L14 25L13 25L13 26L12 26L12 25L11 25L11 23L9 23L9 22L11 22L11 20L12 20L12 19L11 19L11 20L10 20L10 19L9 19L9 18L11 18L11 17L9 17L9 18L7 18L7 17L4 17L4 16L5 16L5 15L3 15L3 14L4 14L4 13L5 13L5 11L6 11L6 10L4 10L4 11L3 11L3 12L2 12L2 13L1 13L1 15L3 15L3 16L2 16L2 17L3 17L3 19L4 19L4 20L2 20L2 22L3 22L3 23L4 23L4 22L5 22L5 24L7 24L7 25L6 25L6 26L7 26L7 25L8 25L8 23L9 23L9 24L10 24L10 25L11 25L11 27L12 27L12 28L11 28L11 29L13 29L13 30L12 30L12 31L13 31L13 30L14 30L14 31L15 31L15 33L17 33L17 32L16 32L16 31L15 31L15 30L17 30L17 31L18 31L18 32L19 32L19 33L20 33L20 32L21 32L21 33L22 33L22 30L26 30L26 31L30 31L30 30L31 30L31 29L32 29L32 28L30 28L30 30L29 30L29 29L28 29L28 30L26 30L26 29L25 29L25 26L26 26L26 25L25 25L25 24L24 24L24 23L23 23L23 24L21 24L21 25L19 25L19 24L20 24L20 21L22 21L22 22L21 22L21 23L22 23L22 22L24 22L24 21L25 21L25 23L28 23L28 24L30 24L30 23L31 23L31 22L34 22L34 19L33 19L33 17L35 17L35 15L36 15L36 14L35 14L35 15L34 15L34 14L33 14L33 12L31 12L31 11L30 11L30 8L29 8L29 7L30 7L30 6L31 6L31 5L32 5L32 4L31 4L31 5L30 5L30 4L28 4L28 3L30 3L30 1L28 1L28 2L27 2L27 3L26 3L26 4L25 4L25 3L24 3L24 2L23 2L23 1L20 1L20 3L21 3L21 2L23 2L23 4L22 4L22 5L20 5L20 6L19 6L19 8L18 8L18 6L17 6L17 7L16 7L16 6L15 6L15 7L14 7L14 4L15 4L15 5L16 5L16 4L15 4L15 2L13 2L13 1L12 1L12 2L11 2L11 1ZM31 1L31 3L32 3L32 1ZM12 3L12 4L13 4L13 3ZM27 4L27 6L26 6L26 7L25 7L25 5L24 5L24 7L23 7L23 6L22 6L22 7L21 7L21 6L20 6L20 8L19 8L19 9L15 9L15 8L14 8L14 9L15 9L15 10L17 10L17 12L15 12L15 13L18 13L18 15L16 15L16 14L15 14L15 15L14 15L14 16L15 16L15 17L13 17L13 18L15 18L15 19L16 19L16 20L18 20L18 19L19 19L19 18L20 18L20 17L19 17L19 18L18 18L18 17L17 17L17 16L18 16L18 15L19 15L19 16L20 16L20 13L18 13L18 12L20 12L20 11L21 11L21 9L20 9L20 8L23 8L23 9L22 9L22 11L24 11L24 12L22 12L22 13L21 13L21 15L22 15L22 16L21 16L21 17L22 17L22 18L21 18L21 19L20 19L20 20L19 20L19 21L17 21L17 22L19 22L19 21L20 21L20 20L22 20L22 18L23 18L23 14L24 14L24 15L25 15L25 14L24 14L24 12L25 12L25 13L26 13L26 16L25 16L25 17L26 17L26 18L25 18L25 19L24 19L24 20L23 20L23 21L24 21L24 20L25 20L25 21L26 21L26 22L27 22L27 20L26 20L26 19L27 19L27 17L28 17L28 16L29 16L29 17L30 17L30 19L28 19L28 20L29 20L29 22L28 22L28 23L29 23L29 22L31 22L31 20L32 20L32 21L33 21L33 20L32 20L32 19L31 19L31 17L33 17L33 16L32 16L32 15L33 15L33 14L32 14L32 15L29 15L29 14L30 14L30 13L31 13L31 12L28 12L28 13L26 13L26 12L27 12L27 8L28 8L28 11L29 11L29 8L28 8L28 7L29 7L29 6L30 6L30 5L28 5L28 4ZM12 5L12 7L13 7L13 5ZM27 6L27 7L28 7L28 6ZM24 7L24 9L23 9L23 10L24 10L24 11L25 11L25 12L26 12L26 8L25 8L25 7ZM39 8L39 9L40 9L40 10L41 10L41 8ZM24 9L24 10L25 10L25 9ZM35 9L35 10L37 10L37 9ZM38 11L38 14L39 14L39 12L40 12L40 11ZM3 12L3 13L4 13L4 12ZM6 13L6 14L7 14L7 13ZM28 13L28 14L29 14L29 13ZM40 14L40 15L41 15L41 14ZM15 15L15 16L16 16L16 15ZM27 15L27 16L28 16L28 15ZM16 17L16 18L17 18L17 17ZM4 18L4 19L5 19L5 18ZM6 18L6 19L7 19L7 18ZM4 20L4 21L5 21L5 22L6 22L6 23L7 23L7 22L8 22L8 21L10 21L10 20ZM6 21L6 22L7 22L7 21ZM36 21L36 22L37 22L37 21ZM16 23L16 24L15 24L15 26L14 26L14 28L13 28L13 29L14 29L14 28L15 28L15 29L16 29L16 28L17 28L17 30L18 30L18 31L19 31L19 30L20 30L20 31L21 31L21 30L22 30L22 29L23 29L23 28L24 28L24 27L21 27L21 26L23 26L23 25L24 25L24 26L25 26L25 25L24 25L24 24L23 24L23 25L21 25L21 26L19 26L19 25L18 25L18 24L19 24L19 23ZM15 26L15 28L16 28L16 26ZM17 26L17 27L18 27L18 30L19 30L19 27L18 27L18 26ZM40 26L40 28L41 28L41 26ZM2 27L2 28L3 28L3 27ZM20 27L20 28L21 28L21 29L22 29L22 28L21 28L21 27ZM35 28L35 29L36 29L36 28ZM7 30L7 31L6 31L6 32L8 32L8 30ZM38 30L38 32L37 32L37 33L38 33L38 32L39 32L39 31L40 31L40 30ZM23 31L23 32L24 32L24 31ZM33 31L33 32L34 32L34 31ZM0 32L0 33L1 33L1 32ZM9 32L9 33L10 33L10 37L12 37L12 38L13 38L13 35L12 35L12 34L13 34L13 32L12 32L12 33L10 33L10 32ZM27 32L27 35L29 35L29 34L30 34L30 32L29 32L29 34L28 34L28 32ZM23 33L23 34L21 34L21 36L23 36L23 34L24 34L24 33ZM25 33L25 34L26 34L26 33ZM33 33L33 36L36 36L36 33ZM14 34L14 37L15 37L15 38L16 38L16 37L17 37L17 36L18 36L18 35L19 35L19 37L20 37L20 39L21 39L21 38L25 38L25 37L20 37L20 35L19 35L19 34L17 34L17 36L15 36L15 34ZM34 34L34 35L35 35L35 34ZM37 34L37 35L38 35L38 34ZM11 35L11 36L12 36L12 35ZM24 35L24 36L25 36L25 35ZM38 36L38 37L39 37L39 36ZM32 37L32 39L33 39L33 37ZM36 37L36 38L37 38L37 40L38 40L38 38L37 38L37 37ZM39 38L39 39L40 39L40 38ZM18 39L18 40L19 40L19 39ZM10 40L10 41L12 41L12 40ZM0 0L0 7L7 7L7 0ZM1 1L1 6L6 6L6 1ZM2 2L2 5L5 5L5 2ZM34 0L34 7L41 7L41 0ZM35 1L35 6L40 6L40 1ZM36 2L36 5L39 5L39 2ZM0 34L0 41L7 41L7 34ZM1 35L1 40L6 40L6 35ZM2 36L2 39L5 39L5 36Z" fill="#000000"/></g></g></svg>
