<?xml version="1.0" encoding="UTF-8"?>
<svg xmlns="http://www.w3.org/2000/svg" version="1.1" width="200" height="200" viewBox="0 0 200 200"><rect x="0" y="0" width="200" height="200" fill="#ffffff"/><g transform="scale(4.878)"><g transform="translate(0,0)"><path fill-rule="evenodd" d="M8 0L8 3L10 3L10 4L11 4L11 6L10 6L10 5L8 5L8 9L7 9L7 8L6 8L6 9L5 9L5 8L2 8L2 10L3 10L3 9L5 9L5 12L6 12L6 13L4 13L4 12L3 12L3 13L2 13L2 11L1 11L1 15L0 15L0 17L1 17L1 18L0 18L0 19L1 19L1 20L2 20L2 21L3 21L3 22L5 22L5 21L7 21L7 22L6 22L6 23L10 23L10 24L13 24L13 23L14 23L14 22L15 22L15 24L14 24L14 25L11 25L11 27L12 27L12 28L11 28L11 29L12 29L12 30L11 30L11 31L9 31L9 30L8 30L8 29L7 29L7 28L9 28L9 29L10 29L10 28L9 28L9 27L10 27L10 25L9 25L9 26L8 26L8 27L7 27L7 26L6 26L6 27L5 27L5 29L7 29L7 30L6 30L6 31L7 31L7 32L6 32L6 33L8 33L8 34L10 34L10 33L11 33L11 35L10 35L10 36L8 36L8 39L9 39L9 38L10 38L10 41L11 41L11 40L12 40L12 39L14 39L14 40L13 40L13 41L14 41L14 40L15 40L15 39L16 39L16 40L18 40L18 39L20 39L20 37L21 37L21 38L22 38L22 36L23 36L23 40L22 40L22 41L24 41L24 37L26 37L26 36L27 36L27 37L29 37L29 36L27 36L27 35L28 35L28 34L26 34L26 31L25 31L25 30L24 30L24 32L25 32L25 33L24 33L24 34L26 34L26 36L23 36L23 34L22 34L22 33L21 33L21 29L22 29L22 30L23 30L23 29L26 29L26 30L29 30L29 31L28 31L28 33L30 33L30 35L32 35L32 37L31 37L31 36L30 36L30 37L31 37L31 38L30 38L30 39L31 39L31 40L33 40L33 41L34 41L34 40L33 40L33 39L35 39L35 40L36 40L36 39L38 39L38 37L39 37L39 40L40 40L40 38L41 38L41 37L40 37L40 36L41 36L41 35L40 35L40 34L41 34L41 33L39 33L39 32L40 32L40 30L41 30L41 29L40 29L40 28L39 28L39 30L37 30L37 29L35 29L35 28L38 28L38 26L39 26L39 27L40 27L40 26L41 26L41 23L40 23L40 26L39 26L39 24L37 24L37 25L34 25L34 24L33 24L33 23L34 23L34 22L36 22L36 21L37 21L37 22L38 22L38 23L39 23L39 22L38 22L38 21L39 21L39 20L36 20L36 19L35 19L35 17L36 17L36 18L37 18L37 19L40 19L40 18L41 18L41 16L40 16L40 18L37 18L37 17L39 17L39 16L37 16L37 15L39 15L39 14L41 14L41 13L39 13L39 14L38 14L38 13L36 13L36 14L35 14L35 15L36 15L36 16L35 16L35 17L34 17L34 16L33 16L33 15L34 15L34 14L33 14L33 13L34 13L34 12L33 12L33 11L34 11L34 10L35 10L35 11L36 11L36 12L38 12L38 11L40 11L40 12L41 12L41 11L40 11L40 10L41 10L41 8L38 8L38 9L40 9L40 10L37 10L37 9L36 9L36 8L33 8L33 9L30 9L30 8L29 8L29 9L28 9L28 7L29 7L29 6L30 6L30 7L31 7L31 8L32 8L32 7L33 7L33 6L32 6L32 7L31 7L31 5L32 5L32 4L33 4L33 2L32 2L32 4L31 4L31 3L30 3L30 4L31 4L31 5L29 5L29 4L28 4L28 5L27 5L27 6L26 6L26 8L25 8L25 6L24 6L24 8L23 8L23 5L22 5L22 4L25 4L25 5L26 5L26 4L27 4L27 3L29 3L29 1L27 1L27 0L23 0L23 1L22 1L22 2L23 2L23 3L21 3L21 4L20 4L20 5L18 5L18 4L17 4L17 3L19 3L19 2L18 2L18 1L17 1L17 3L16 3L16 4L15 4L15 6L14 6L14 5L13 5L13 4L14 4L14 2L16 2L16 1L13 1L13 0L11 0L11 1L12 1L12 2L11 2L11 3L10 3L10 1L9 1L9 0ZM20 0L20 2L21 2L21 0ZM30 0L30 2L31 2L31 1L33 1L33 0ZM12 2L12 4L13 4L13 2ZM26 2L26 3L25 3L25 4L26 4L26 3L27 3L27 2ZM17 5L17 7L18 7L18 8L17 8L17 9L16 9L16 10L15 10L15 14L16 14L16 15L14 15L14 16L11 16L11 17L10 17L10 15L9 15L9 14L7 14L7 13L6 13L6 14L7 14L7 15L4 15L4 16L5 16L5 17L6 17L6 18L4 18L4 17L2 17L2 18L1 18L1 19L2 19L2 20L3 20L3 21L4 21L4 20L5 20L5 19L6 19L6 20L7 20L7 19L6 19L6 18L8 18L8 17L10 17L10 18L9 18L9 19L8 19L8 21L10 21L10 23L11 23L11 22L12 22L12 21L13 21L13 22L14 22L14 21L13 21L13 19L14 19L14 20L15 20L15 18L16 18L16 25L15 25L15 26L16 26L16 25L17 25L17 21L19 21L19 20L21 20L21 19L20 19L20 18L19 18L19 17L22 17L22 16L23 16L23 14L24 14L24 15L26 15L26 16L27 16L27 15L26 15L26 13L27 13L27 12L30 12L30 9L29 9L29 11L27 11L27 10L28 10L28 9L27 9L27 10L26 10L26 9L23 9L23 8L21 8L21 7L22 7L22 6L21 6L21 5L20 5L20 6L19 6L19 7L18 7L18 5ZM9 6L9 7L10 7L10 6ZM11 6L11 8L14 8L14 6L13 6L13 7L12 7L12 6ZM15 6L15 8L16 8L16 6ZM20 6L20 7L19 7L19 8L18 8L18 9L19 9L19 11L20 11L20 12L19 12L19 13L20 13L20 14L21 14L21 15L22 15L22 12L23 12L23 11L24 11L24 12L25 12L25 13L26 13L26 12L25 12L25 11L24 11L24 10L23 10L23 11L21 11L21 8L20 8L20 7L21 7L21 6ZM27 6L27 7L28 7L28 6ZM6 9L6 10L7 10L7 11L6 11L6 12L8 12L8 13L10 13L10 12L11 12L11 14L12 14L12 11L13 11L13 12L14 12L14 10L11 10L11 9L8 9L8 10L7 10L7 9ZM8 10L8 12L10 12L10 11L9 11L9 10ZM31 10L31 14L32 14L32 15L33 15L33 14L32 14L32 13L33 13L33 12L32 12L32 10ZM36 10L36 11L37 11L37 10ZM16 11L16 12L17 12L17 13L16 13L16 14L18 14L18 11ZM13 13L13 14L14 14L14 13ZM28 13L28 14L30 14L30 13ZM2 14L2 15L1 15L1 16L2 16L2 15L3 15L3 14ZM8 15L8 16L9 16L9 15ZM16 15L16 16L15 16L15 17L14 17L14 18L15 18L15 17L16 17L16 16L18 16L18 17L17 17L17 18L18 18L18 20L19 20L19 18L18 18L18 17L19 17L19 16L20 16L20 15ZM28 15L28 17L27 17L27 18L26 18L26 17L25 17L25 18L24 18L24 19L23 19L23 18L22 18L22 21L21 21L21 22L19 22L19 23L18 23L18 25L19 25L19 26L18 26L18 27L14 27L14 26L13 26L13 27L14 27L14 29L13 29L13 28L12 28L12 29L13 29L13 30L12 30L12 31L11 31L11 33L12 33L12 35L11 35L11 36L12 36L12 35L13 35L13 37L11 37L11 38L14 38L14 39L15 39L15 38L14 38L14 37L15 37L15 34L16 34L16 36L17 36L17 35L18 35L18 36L19 36L19 37L16 37L16 39L18 39L18 38L19 38L19 37L20 37L20 35L22 35L22 34L21 34L21 33L20 33L20 31L19 31L19 28L18 28L18 27L20 27L20 29L21 29L21 27L22 27L22 28L23 28L23 27L24 27L24 28L28 28L28 29L29 29L29 30L30 30L30 29L31 29L31 31L29 31L29 32L30 32L30 33L32 33L32 32L35 32L35 31L36 31L36 30L35 30L35 29L34 29L34 28L33 28L33 27L34 27L34 25L33 25L33 24L32 24L32 23L33 23L33 22L34 22L34 21L36 21L36 20L35 20L35 19L34 19L34 18L30 18L30 19L33 19L33 20L29 20L29 16L30 16L30 17L31 17L31 15ZM6 16L6 17L7 17L7 16ZM32 16L32 17L33 17L33 16ZM36 16L36 17L37 17L37 16ZM11 17L11 18L10 18L10 19L13 19L13 17ZM25 18L25 19L26 19L26 21L25 21L25 23L24 23L24 22L23 22L23 21L24 21L24 20L23 20L23 21L22 21L22 22L21 22L21 25L20 25L20 27L21 27L21 25L23 25L23 26L22 26L22 27L23 27L23 26L25 26L25 27L26 27L26 22L27 22L27 23L28 23L28 24L27 24L27 25L29 25L29 26L33 26L33 25L30 25L30 24L29 24L29 23L28 23L28 22L27 22L27 21L29 21L29 20L28 20L28 18L27 18L27 19L26 19L26 18ZM33 20L33 21L30 21L30 22L33 22L33 21L34 21L34 20ZM40 20L40 21L41 21L41 20ZM0 21L0 23L2 23L2 26L1 26L1 24L0 24L0 26L1 26L1 28L2 28L2 29L0 29L0 33L1 33L1 30L2 30L2 31L4 31L4 30L3 30L3 27L4 27L4 26L3 26L3 25L8 25L8 24L4 24L4 23L2 23L2 22L1 22L1 21ZM19 23L19 24L20 24L20 23ZM22 23L22 24L24 24L24 23ZM35 23L35 24L36 24L36 23ZM27 26L27 27L28 27L28 26ZM36 26L36 27L37 27L37 26ZM6 27L6 28L7 28L7 27ZM31 27L31 28L32 28L32 29L33 29L33 30L32 30L32 31L33 31L33 30L34 30L34 31L35 31L35 30L34 30L34 29L33 29L33 28L32 28L32 27ZM15 28L15 29L14 29L14 30L13 30L13 31L16 31L16 33L18 33L18 34L20 34L20 33L18 33L18 32L19 32L19 31L18 31L18 28L17 28L17 29L16 29L16 28ZM29 28L29 29L30 29L30 28ZM7 30L7 31L8 31L8 33L10 33L10 32L9 32L9 31L8 31L8 30ZM16 30L16 31L17 31L17 30ZM37 31L37 32L39 32L39 31ZM2 32L2 33L4 33L4 32ZM12 32L12 33L13 33L13 35L14 35L14 33L13 33L13 32ZM33 33L33 36L36 36L36 33ZM38 33L38 34L39 34L39 33ZM34 34L34 35L35 35L35 34ZM37 35L37 36L40 36L40 35ZM32 37L32 39L33 39L33 38L36 38L36 37ZM27 38L27 39L26 39L26 41L28 41L28 40L27 40L27 39L28 39L28 38ZM19 40L19 41L20 41L20 40ZM29 40L29 41L30 41L30 40ZM0 0L0 7L7 7L7 0ZM1 1L1 6L6 6L6 1ZM2 2L2 5L5 5L5 2ZM34 0L34 7L41 7L41 0ZM35 1L35 6L40 6L40 1ZM36 2L36 5L39 5L39 2ZM0 34L0 41L7 41L7 34ZM1 35L1 40L6 40L6 35ZM2 36L2 39L5 39L5 36Z" fill="#000000"/></g></g></svg>
