<?xml version="1.0" encoding="UTF-8"?>
<svg xmlns="http://www.w3.org/2000/svg" version="1.1" width="200" height="200" viewBox="0 0 200 200"><rect x="0" y="0" width="200" height="200" fill="#ffffff"/><g transform="scale(4.878)"><g transform="translate(0,0)"><path fill-rule="evenodd" d="M9 0L9 1L10 1L10 0ZM13 0L13 1L12 1L12 2L13 2L13 5L12 5L12 4L11 4L11 5L12 5L12 7L11 7L11 6L10 6L10 7L9 7L9 6L8 6L8 7L9 7L9 11L8 11L8 10L5 10L5 8L3 8L3 9L4 9L4 10L2 10L2 9L0 9L0 10L2 10L2 11L3 11L3 14L4 14L4 12L5 12L5 14L6 14L6 15L5 15L5 17L7 17L7 16L8 16L8 18L10 18L10 19L11 19L11 20L10 20L10 21L11 21L11 22L10 22L10 23L11 23L11 25L10 25L10 24L6 24L6 23L7 23L7 22L6 22L6 21L8 21L8 19L7 19L7 18L6 18L6 19L4 19L4 20L6 20L6 21L5 21L5 22L4 22L4 21L2 21L2 20L3 20L3 18L2 18L2 19L0 19L0 20L1 20L1 21L2 21L2 22L1 22L1 23L0 23L0 26L1 26L1 27L0 27L0 28L1 28L1 29L0 29L0 33L3 33L3 32L5 32L5 33L8 33L8 35L10 35L10 37L9 37L9 36L8 36L8 38L9 38L9 39L10 39L10 41L11 41L11 40L12 40L12 41L13 41L13 40L12 40L12 39L10 39L10 38L12 38L12 37L11 37L11 35L10 35L10 34L13 34L13 35L14 35L14 34L15 34L15 36L14 36L14 37L15 37L15 40L14 40L14 41L15 41L15 40L16 40L16 41L20 41L20 40L21 40L21 41L24 41L24 40L25 40L25 39L26 39L26 40L27 40L27 39L28 39L28 41L29 41L29 39L30 39L30 41L34 41L34 40L35 40L35 41L36 41L36 39L38 39L38 41L39 41L39 39L40 39L40 40L41 40L41 35L40 35L40 34L39 34L39 33L41 33L41 32L40 32L40 31L41 31L41 30L39 30L39 31L37 31L37 29L36 29L36 28L34 28L34 30L35 30L35 31L37 31L37 32L34 32L34 31L32 31L32 30L31 30L31 31L30 31L30 32L29 32L29 30L30 30L30 29L31 29L31 28L30 28L30 29L29 29L29 30L28 30L28 31L27 31L27 29L26 29L26 31L25 31L25 29L24 29L24 31L23 31L23 29L19 29L19 30L20 30L20 31L21 31L21 32L20 32L20 33L19 33L19 32L18 32L18 29L17 29L17 27L18 27L18 28L20 28L20 27L21 27L21 26L20 26L20 27L18 27L18 25L17 25L17 24L18 24L18 22L17 22L17 20L19 20L19 18L16 18L16 17L17 17L17 16L16 16L16 17L13 17L13 15L14 15L14 14L13 14L13 13L12 13L12 12L13 12L13 11L14 11L14 12L15 12L15 13L18 13L18 12L22 12L22 13L21 13L21 14L20 14L20 13L19 13L19 15L18 15L18 14L16 14L16 15L18 15L18 16L20 16L20 18L21 18L21 19L22 19L22 20L23 20L23 19L25 19L25 21L22 21L22 22L21 22L21 21L20 21L20 22L21 22L21 24L20 24L20 25L22 25L22 26L23 26L23 27L22 27L22 28L27 28L27 27L28 27L28 28L29 28L29 26L30 26L30 25L32 25L32 26L31 26L31 27L32 27L32 26L35 26L35 27L37 27L37 28L38 28L38 29L40 29L40 28L41 28L41 25L39 25L39 27L37 27L37 25L36 25L36 26L35 26L35 23L36 23L36 21L37 21L37 20L38 20L38 23L39 23L39 24L40 24L40 23L39 23L39 22L41 22L41 21L39 21L39 20L40 20L40 19L41 19L41 18L40 18L40 17L41 17L41 12L40 12L40 9L39 9L39 8L37 8L37 9L36 9L36 11L34 11L34 9L33 9L33 5L32 5L32 4L33 4L33 2L32 2L32 1L31 1L31 0L28 0L28 2L27 2L27 4L26 4L26 5L27 5L27 4L28 4L28 2L29 2L29 1L30 1L30 2L31 2L31 3L30 3L30 4L29 4L29 5L28 5L28 7L29 7L29 6L30 6L30 7L31 7L31 5L32 5L32 8L31 8L31 9L30 9L30 8L27 8L27 6L26 6L26 8L25 8L25 6L24 6L24 5L22 5L22 4L20 4L20 1L22 1L22 2L21 2L21 3L22 3L22 2L23 2L23 3L24 3L24 2L25 2L25 0L24 0L24 1L22 1L22 0L19 0L19 4L18 4L18 3L16 3L16 5L17 5L17 6L16 6L16 8L17 8L17 9L18 9L18 10L19 10L19 9L18 9L18 7L19 7L19 8L20 8L20 11L17 11L17 10L16 10L16 9L15 9L15 6L14 6L14 5L15 5L15 2L17 2L17 1L16 1L16 0L15 0L15 1L14 1L14 0ZM8 2L8 4L10 4L10 2ZM31 3L31 4L30 4L30 5L31 5L31 4L32 4L32 3ZM19 5L19 7L20 7L20 5ZM13 6L13 7L12 7L12 10L10 10L10 12L11 12L11 11L12 11L12 10L14 10L14 6ZM17 6L17 7L18 7L18 6ZM21 6L21 9L22 9L22 10L21 10L21 11L23 11L23 8L24 8L24 6L23 6L23 7L22 7L22 6ZM6 8L6 9L8 9L8 8ZM26 8L26 9L25 9L25 10L24 10L24 12L25 12L25 13L26 13L26 14L25 14L25 15L24 15L24 14L22 14L22 15L21 15L21 17L22 17L22 15L24 15L24 16L23 16L23 18L22 18L22 19L23 19L23 18L26 18L26 19L27 19L27 20L28 20L28 21L29 21L29 22L28 22L28 23L26 23L26 22L25 22L25 23L24 23L24 22L22 22L22 24L23 24L23 23L24 23L24 26L25 26L25 27L26 27L26 26L25 26L25 25L27 25L27 24L28 24L28 26L29 26L29 25L30 25L30 24L32 24L32 25L33 25L33 24L34 24L34 23L35 23L35 21L36 21L36 20L37 20L37 18L36 18L36 20L35 20L35 17L38 17L38 19L39 19L39 17L40 17L40 16L36 16L36 15L35 15L35 16L34 16L34 17L33 17L33 13L32 13L32 14L31 14L31 15L30 15L30 12L31 12L31 11L32 11L32 12L33 12L33 10L31 10L31 11L30 11L30 9L28 9L28 11L30 11L30 12L28 12L28 13L27 13L27 11L25 11L25 10L26 10L26 9L27 9L27 8ZM37 9L37 10L38 10L38 12L39 12L39 15L40 15L40 12L39 12L39 10L38 10L38 9ZM15 10L15 11L16 11L16 10ZM6 11L6 12L7 12L7 11ZM36 11L36 13L34 13L34 14L36 14L36 13L37 13L37 11ZM0 12L0 13L1 13L1 12ZM6 13L6 14L7 14L7 15L6 15L6 16L7 16L7 15L8 15L8 14L9 14L9 17L11 17L11 16L12 16L12 15L13 15L13 14L12 14L12 13L10 13L10 14L9 14L9 13L8 13L8 14L7 14L7 13ZM1 14L1 15L0 15L0 16L1 16L1 17L0 17L0 18L1 18L1 17L2 17L2 16L4 16L4 15L2 15L2 14ZM27 14L27 15L28 15L28 16L26 16L26 15L25 15L25 16L24 16L24 17L26 17L26 18L27 18L27 19L28 19L28 18L29 18L29 17L28 17L28 16L29 16L29 15L28 15L28 14ZM1 15L1 16L2 16L2 15ZM10 15L10 16L11 16L11 15ZM31 15L31 16L30 16L30 17L31 17L31 19L29 19L29 20L31 20L31 21L30 21L30 23L29 23L29 24L30 24L30 23L31 23L31 22L34 22L34 21L35 21L35 20L34 20L34 19L33 19L33 18L32 18L32 15ZM12 18L12 20L11 20L11 21L12 21L12 20L17 20L17 19L16 19L16 18ZM6 19L6 20L7 20L7 19ZM31 19L31 20L32 20L32 19ZM14 21L14 22L16 22L16 23L14 23L14 24L13 24L13 25L12 25L12 27L13 27L13 28L14 28L14 27L15 27L15 26L16 26L16 25L15 25L15 24L16 24L16 23L17 23L17 22L16 22L16 21ZM5 22L5 23L3 23L3 24L2 24L2 25L1 25L1 26L2 26L2 27L1 27L1 28L5 28L5 30L7 30L7 31L5 31L5 32L7 32L7 31L9 31L9 32L10 32L10 30L12 30L12 31L11 31L11 32L12 32L12 33L13 33L13 34L14 34L14 33L15 33L15 34L16 34L16 33L17 33L17 35L18 35L18 36L15 36L15 37L18 37L18 39L19 39L19 38L20 38L20 39L22 39L22 38L20 38L20 37L19 37L19 35L20 35L20 36L21 36L21 35L22 35L22 36L24 36L24 37L25 37L25 38L27 38L27 36L28 36L28 39L29 39L29 38L31 38L31 37L29 37L29 34L31 34L31 33L28 33L28 32L27 32L27 33L26 33L26 35L25 35L25 34L24 34L24 35L22 35L22 34L18 34L18 33L17 33L17 29L15 29L15 30L16 30L16 33L15 33L15 31L14 31L14 29L10 29L10 28L11 28L11 26L10 26L10 27L9 27L9 26L8 26L8 25L6 25L6 24L5 24L5 23L6 23L6 22ZM11 22L11 23L12 23L12 22ZM32 23L32 24L33 24L33 23ZM3 24L3 25L2 25L2 26L3 26L3 27L5 27L5 28L6 28L6 29L8 29L8 30L10 30L10 29L9 29L9 28L8 28L8 27L7 27L7 26L6 26L6 27L5 27L5 25L4 25L4 24ZM13 25L13 26L15 26L15 25ZM6 27L6 28L7 28L7 27ZM2 29L2 32L3 32L3 30L4 30L4 29ZM35 29L35 30L36 30L36 29ZM22 31L22 32L21 32L21 33L24 33L24 32L25 32L25 31L24 31L24 32L23 32L23 31ZM37 32L37 33L38 33L38 32ZM27 33L27 35L26 35L26 36L25 36L25 35L24 35L24 36L25 36L25 37L26 37L26 36L27 36L27 35L28 35L28 33ZM33 33L33 36L36 36L36 33ZM34 34L34 35L35 35L35 34ZM30 35L30 36L32 36L32 35ZM37 35L37 38L38 38L38 39L39 39L39 38L40 38L40 35ZM34 37L34 39L35 39L35 38L36 38L36 37ZM38 37L38 38L39 38L39 37ZM13 38L13 39L14 39L14 38ZM16 38L16 39L17 39L17 38ZM23 38L23 40L24 40L24 38ZM31 39L31 40L33 40L33 39ZM0 0L0 7L7 7L7 0ZM1 1L1 6L6 6L6 1ZM2 2L2 5L5 5L5 2ZM34 0L34 7L41 7L41 0ZM35 1L35 6L40 6L40 1ZM36 2L36 5L39 5L39 2ZM0 34L0 41L7 41L7 34ZM1 35L1 40L6 40L6 35ZM2 36L2 39L5 39L5 36Z" fill="#000000"/></g></g></svg>
