<?xml version="1.0" encoding="UTF-8"?>
<svg xmlns="http://www.w3.org/2000/svg" version="1.1" width="200" height="200" viewBox="0 0 200 200"><rect x="0" y="0" width="200" height="200" fill="#ffffff"/><g transform="scale(4.878)"><g transform="translate(0,0)"><path fill-rule="evenodd" d="M8 0L8 3L9 3L9 0ZM10 0L10 1L11 1L11 2L10 2L10 4L9 4L9 5L8 5L8 9L9 9L9 10L8 10L8 11L7 11L7 10L6 10L6 9L7 9L7 8L6 8L6 9L5 9L5 8L2 8L2 9L3 9L3 10L4 10L4 11L7 11L7 12L6 12L6 13L7 13L7 14L6 14L6 15L5 15L5 16L4 16L4 13L5 13L5 12L3 12L3 11L1 11L1 10L0 10L0 13L1 13L1 12L2 12L2 13L3 13L3 15L2 15L2 16L0 16L0 18L1 18L1 19L0 19L0 25L1 25L1 24L3 24L3 25L2 25L2 26L1 26L1 27L0 27L0 28L1 28L1 27L3 27L3 28L4 28L4 29L3 29L3 30L2 30L2 31L3 31L3 30L4 30L4 29L5 29L5 28L6 28L6 29L7 29L7 28L8 28L8 25L9 25L9 26L10 26L10 23L11 23L11 25L13 25L13 26L14 26L14 25L13 25L13 23L16 23L16 21L17 21L17 23L18 23L18 25L17 25L17 24L15 24L15 26L17 26L17 28L19 28L19 30L18 30L18 29L17 29L17 31L19 31L19 34L18 34L18 36L16 36L16 35L17 35L17 33L18 33L18 32L17 32L17 33L16 33L16 27L11 27L11 28L13 28L13 30L12 30L12 33L11 33L11 34L10 34L10 33L9 33L9 32L10 32L10 27L9 27L9 29L8 29L8 30L6 30L6 31L8 31L8 32L5 32L5 31L4 31L4 32L5 32L5 33L8 33L8 34L10 34L10 35L11 35L11 36L8 36L8 39L10 39L10 38L11 38L11 40L10 40L10 41L12 41L12 40L14 40L14 41L16 41L16 40L14 40L14 39L16 39L16 38L17 38L17 39L20 39L20 36L23 36L23 35L24 35L24 36L25 36L25 35L28 35L28 34L27 34L27 33L29 33L29 36L31 36L31 35L32 35L32 37L33 37L33 38L34 38L34 39L35 39L35 40L36 40L36 39L37 39L37 40L40 40L40 38L41 38L41 37L39 37L39 36L37 36L37 35L40 35L40 34L41 34L41 33L40 33L40 30L41 30L41 29L40 29L40 28L41 28L41 27L40 27L40 26L41 26L41 23L39 23L39 22L38 22L38 23L39 23L39 24L40 24L40 26L39 26L39 25L34 25L34 24L35 24L35 23L36 23L36 24L37 24L37 21L39 21L39 20L36 20L36 19L35 19L35 17L36 17L36 18L37 18L37 19L38 19L38 17L39 17L39 16L37 16L37 14L38 14L38 13L36 13L36 16L35 16L35 17L34 17L34 16L32 16L32 17L31 17L31 13L33 13L33 14L32 14L32 15L34 15L34 13L35 13L35 12L38 12L38 11L40 11L40 12L39 12L39 14L41 14L41 13L40 13L40 12L41 12L41 11L40 11L40 10L41 10L41 8L38 8L38 9L40 9L40 10L37 10L37 9L36 9L36 8L31 8L31 5L32 5L32 4L33 4L33 3L32 3L32 4L29 4L29 3L31 3L31 2L30 2L30 0L29 0L29 1L27 1L27 0L26 0L26 1L27 1L27 2L26 2L26 3L28 3L28 4L29 4L29 5L27 5L27 4L26 4L26 5L23 5L23 4L22 4L22 8L21 8L21 6L20 6L20 7L19 7L19 6L18 6L18 5L19 5L19 4L20 4L20 3L19 3L19 4L18 4L18 5L16 5L16 7L15 7L15 5L14 5L14 8L12 8L12 7L13 7L13 6L12 6L12 7L11 7L11 5L13 5L13 4L14 4L14 3L15 3L15 4L16 4L16 3L17 3L17 2L22 2L22 3L23 3L23 2L24 2L24 1L25 1L25 0L24 0L24 1L22 1L22 0L21 0L21 1L19 1L19 0L18 0L18 1L17 1L17 2L16 2L16 1L15 1L15 0L14 0L14 1L11 1L11 0ZM31 0L31 1L32 1L32 0ZM14 1L14 2L12 2L12 3L11 3L11 4L10 4L10 5L11 5L11 4L13 4L13 3L14 3L14 2L15 2L15 1ZM24 3L24 4L25 4L25 3ZM29 5L29 7L28 7L28 6L27 6L27 7L26 7L26 6L25 6L25 8L26 8L26 10L30 10L30 11L29 11L29 12L28 12L28 11L26 11L26 12L28 12L28 13L29 13L29 14L26 14L26 13L25 13L25 14L23 14L23 17L20 17L20 15L22 15L22 11L20 11L20 12L21 12L21 13L20 13L20 15L19 15L19 14L17 14L17 12L16 12L16 11L18 11L18 9L12 9L12 10L11 10L11 9L10 9L10 8L11 8L11 7L10 7L10 6L9 6L9 7L10 7L10 8L9 8L9 9L10 9L10 11L8 11L8 12L7 12L7 13L8 13L8 12L9 12L9 13L10 13L10 16L8 16L8 15L6 15L6 16L8 16L8 17L6 17L6 18L7 18L7 19L5 19L5 20L4 20L4 18L5 18L5 17L3 17L3 16L2 16L2 17L3 17L3 20L2 20L2 19L1 19L1 20L2 20L2 21L1 21L1 23L4 23L4 22L5 22L5 25L4 25L4 26L5 26L5 27L6 27L6 28L7 28L7 27L6 27L6 26L7 26L7 25L8 25L8 24L7 24L7 23L6 23L6 22L7 22L7 21L8 21L8 20L7 20L7 19L8 19L8 18L9 18L9 17L10 17L10 16L11 16L11 17L13 17L13 18L14 18L14 17L13 17L13 15L15 15L15 16L17 16L17 15L18 15L18 16L19 16L19 17L20 17L20 18L23 18L23 19L19 19L19 20L17 20L17 21L18 21L18 22L19 22L19 21L21 21L21 22L20 22L20 23L23 23L23 24L22 24L22 26L21 26L21 25L20 25L20 26L21 26L21 27L20 27L20 33L21 33L21 35L22 35L22 34L24 34L24 35L25 35L25 33L27 33L27 29L26 29L26 28L27 28L27 26L28 26L28 28L31 28L31 29L28 29L28 30L30 30L30 31L28 31L28 32L30 32L30 33L31 33L31 30L32 30L32 31L33 31L33 32L39 32L39 28L40 28L40 27L39 27L39 26L38 26L38 28L36 28L36 29L35 29L35 27L37 27L37 26L34 26L34 25L32 25L32 24L33 24L33 23L35 23L35 22L36 22L36 21L35 21L35 19L34 19L34 18L33 18L33 17L32 17L32 18L31 18L31 17L29 17L29 16L30 16L30 15L29 15L29 14L30 14L30 13L29 13L29 12L30 12L30 11L31 11L31 12L33 12L33 13L34 13L34 12L33 12L33 11L34 11L34 9L32 9L32 10L31 10L31 9L28 9L28 8L30 8L30 5ZM17 6L17 7L18 7L18 6ZM23 6L23 9L22 9L22 10L23 10L23 13L24 13L24 12L25 12L25 11L24 11L24 10L23 10L23 9L24 9L24 6ZM32 6L32 7L33 7L33 6ZM27 7L27 8L28 8L28 7ZM19 8L19 10L21 10L21 8ZM4 9L4 10L5 10L5 9ZM35 9L35 11L36 11L36 9ZM12 10L12 13L13 13L13 11L16 11L16 10ZM10 11L10 13L11 13L11 11ZM14 12L14 13L15 13L15 12ZM0 14L0 15L1 15L1 14ZM11 14L11 16L12 16L12 15L13 15L13 14ZM16 14L16 15L17 15L17 14ZM28 15L28 16L29 16L29 15ZM24 16L24 17L23 17L23 18L24 18L24 19L23 19L23 20L24 20L24 24L23 24L23 25L24 25L24 26L22 26L22 27L23 27L23 29L22 29L22 28L21 28L21 29L22 29L22 31L21 31L21 32L22 32L22 31L23 31L23 33L24 33L24 32L25 32L25 31L24 31L24 30L25 30L25 29L24 29L24 28L25 28L25 27L26 27L26 26L27 26L27 25L29 25L29 26L32 26L32 25L30 25L30 24L29 24L29 23L28 23L28 22L27 22L27 21L29 21L29 19L28 19L28 18L27 18L27 19L28 19L28 20L26 20L26 19L25 19L25 18L26 18L26 17L27 17L27 16ZM36 16L36 17L37 17L37 16ZM40 16L40 18L39 18L39 19L40 19L40 18L41 18L41 16ZM17 17L17 18L16 18L16 19L17 19L17 18L18 18L18 17ZM24 17L24 18L25 18L25 17ZM10 18L10 19L9 19L9 20L10 20L10 21L9 21L9 22L8 22L8 23L10 23L10 22L11 22L11 23L12 23L12 22L13 22L13 21L15 21L15 20L14 20L14 19L12 19L12 20L11 20L11 18ZM30 18L30 19L31 19L31 18ZM24 19L24 20L25 20L25 19ZM5 20L5 22L6 22L6 21L7 21L7 20ZM30 20L30 21L31 21L31 22L32 22L32 23L31 23L31 24L32 24L32 23L33 23L33 22L32 22L32 21L34 21L34 22L35 22L35 21L34 21L34 20L32 20L32 21L31 21L31 20ZM40 20L40 21L41 21L41 20ZM25 21L25 23L26 23L26 21ZM6 24L6 25L5 25L5 26L6 26L6 25L7 25L7 24ZM24 24L24 25L26 25L26 24ZM18 26L18 27L19 27L19 26ZM24 26L24 27L25 27L25 26ZM33 26L33 27L32 27L32 28L33 28L33 29L32 29L32 30L33 30L33 29L34 29L34 28L33 28L33 27L34 27L34 26ZM0 29L0 33L1 33L1 29ZM36 29L36 31L37 31L37 29ZM8 30L8 31L9 31L9 30ZM13 30L13 31L15 31L15 30ZM34 30L34 31L35 31L35 30ZM2 32L2 33L3 33L3 32ZM12 33L12 34L11 34L11 35L12 35L12 36L11 36L11 37L12 37L12 36L13 36L13 37L14 37L14 36L15 36L15 34L13 34L13 33ZM33 33L33 36L36 36L36 33ZM37 33L37 34L39 34L39 33ZM19 34L19 36L20 36L20 34ZM30 34L30 35L31 35L31 34ZM34 34L34 35L35 35L35 34ZM27 36L27 37L26 37L26 38L25 38L25 37L24 37L24 38L25 38L25 39L24 39L24 41L26 41L26 40L25 40L25 39L26 39L26 38L27 38L27 40L28 40L28 41L31 41L31 40L33 40L33 41L34 41L34 40L33 40L33 39L31 39L31 37L30 37L30 39L31 39L31 40L28 40L28 38L29 38L29 37L28 37L28 36ZM9 37L9 38L10 38L10 37ZM21 37L21 40L17 40L17 41L22 41L22 39L23 39L23 38L22 38L22 37ZM27 37L27 38L28 38L28 37ZM34 37L34 38L36 38L36 37ZM37 38L37 39L38 39L38 38ZM0 0L0 7L7 7L7 0ZM1 1L1 6L6 6L6 1ZM2 2L2 5L5 5L5 2ZM34 0L34 7L41 7L41 0ZM35 1L35 6L40 6L40 1ZM36 2L36 5L39 5L39 2ZM0 34L0 41L7 41L7 34ZM1 35L1 40L6 40L6 35ZM2 36L2 39L5 39L5 36Z" fill="#000000"/></g></g></svg>
