<?xml version="1.0" encoding="UTF-8"?>
<svg xmlns="http://www.w3.org/2000/svg" version="1.1" width="200" height="200" viewBox="0 0 200 200"><rect x="0" y="0" width="200" height="200" fill="#ffffff"/><g transform="scale(6.897)"><g transform="translate(0,0)"><path fill-rule="evenodd" d="M8 0L8 1L9 1L9 0ZM12 0L12 1L10 1L10 2L9 2L9 3L8 3L8 4L9 4L9 6L8 6L8 7L9 7L9 8L8 8L8 10L9 10L9 11L8 11L8 14L6 14L6 13L7 13L7 12L6 12L6 11L7 11L7 10L6 10L6 9L7 9L7 8L4 8L4 9L3 9L3 8L2 8L2 9L1 9L1 10L2 10L2 9L3 9L3 10L4 10L4 9L5 9L5 12L6 12L6 13L4 13L4 12L3 12L3 11L1 11L1 13L0 13L0 14L2 14L2 13L3 13L3 14L5 14L5 15L3 15L3 16L2 16L2 15L0 15L0 16L1 16L1 17L2 17L2 18L4 18L4 19L3 19L3 20L2 20L2 19L1 19L1 18L0 18L0 19L1 19L1 20L0 20L0 21L1 21L1 20L2 20L2 21L4 21L4 20L5 20L5 21L7 21L7 20L6 20L6 19L7 19L7 18L6 18L6 17L7 17L7 16L6 16L6 15L8 15L8 14L9 14L9 16L8 16L8 17L9 17L9 18L8 18L8 22L9 22L9 23L8 23L8 25L9 25L9 26L8 26L8 27L10 27L10 28L9 28L9 29L11 29L11 27L10 27L10 25L11 25L11 26L12 26L12 29L13 29L13 26L15 26L15 25L19 25L19 26L18 26L18 28L17 28L17 27L14 27L14 29L15 29L15 28L17 28L17 29L20 29L20 25L21 25L21 26L22 26L22 25L23 25L23 26L24 26L24 25L25 25L25 26L26 26L26 27L25 27L25 28L23 28L23 27L22 27L22 28L23 28L23 29L27 29L27 28L28 28L28 29L29 29L29 26L28 26L28 25L29 25L29 24L26 24L26 23L25 23L25 19L27 19L27 20L26 20L26 21L28 21L28 22L27 22L27 23L29 23L29 21L28 21L28 19L29 19L29 18L27 18L27 17L26 17L26 14L24 14L24 13L25 13L25 11L26 11L26 13L27 13L27 12L28 12L28 14L29 14L29 12L28 12L28 11L29 11L29 8L28 8L28 9L27 9L27 10L25 10L25 9L26 9L26 8L25 8L25 9L24 9L24 10L25 10L25 11L24 11L24 12L23 12L23 10L22 10L22 8L19 8L19 11L20 11L20 12L19 12L19 14L17 14L17 16L18 16L18 15L19 15L19 16L20 16L20 15L21 15L21 14L22 14L22 15L23 15L23 16L22 16L22 17L23 17L23 18L22 18L22 19L21 19L21 20L20 20L20 19L17 19L17 18L18 18L18 17L17 17L17 18L16 18L16 17L14 17L14 16L15 16L15 15L16 15L16 14L15 14L15 13L14 13L14 14L15 14L15 15L13 15L13 17L14 17L14 18L11 18L11 17L12 17L12 16L11 16L11 17L10 17L10 14L9 14L9 13L10 13L10 12L9 12L9 11L11 11L11 13L13 13L13 12L15 12L15 11L14 11L14 10L16 10L16 11L17 11L17 12L16 12L16 13L17 13L17 12L18 12L18 9L14 9L14 10L13 10L13 9L12 9L12 11L11 11L11 10L10 10L10 9L9 9L9 8L10 8L10 7L11 7L11 6L10 6L10 5L11 5L11 2L12 2L12 1L13 1L13 0ZM14 0L14 1L17 1L17 2L18 2L18 1L17 1L17 0ZM20 0L20 1L19 1L19 2L20 2L20 3L19 3L19 4L18 4L18 3L16 3L16 4L15 4L15 2L13 2L13 3L12 3L12 4L13 4L13 6L12 6L12 8L13 8L13 6L14 6L14 8L15 8L15 5L18 5L18 7L19 7L19 5L20 5L20 7L21 7L21 0ZM9 3L9 4L10 4L10 3ZM9 6L9 7L10 7L10 6ZM16 6L16 8L17 8L17 6ZM27 10L27 11L28 11L28 10ZM21 11L21 12L22 12L22 11ZM20 13L20 14L19 14L19 15L20 15L20 14L21 14L21 13ZM11 14L11 15L12 15L12 14ZM23 14L23 15L24 15L24 16L23 16L23 17L24 17L24 18L23 18L23 19L24 19L24 18L26 18L26 17L24 17L24 16L25 16L25 15L24 15L24 14ZM27 15L27 16L28 16L28 17L29 17L29 16L28 16L28 15ZM3 16L3 17L4 17L4 18L5 18L5 17L6 17L6 16ZM19 17L19 18L20 18L20 17ZM14 18L14 20L15 20L15 21L16 21L16 23L17 23L17 22L18 22L18 20L17 20L17 19L16 19L16 18ZM9 19L9 21L12 21L12 22L11 22L11 25L12 25L12 24L13 24L13 25L15 25L15 22L14 22L14 21L12 21L12 20L13 20L13 19L12 19L12 20L11 20L11 19ZM16 20L16 21L17 21L17 20ZM19 20L19 21L20 21L20 20ZM21 21L21 24L24 24L24 21ZM12 22L12 23L13 23L13 24L14 24L14 23L13 23L13 22ZM22 22L22 23L23 23L23 22ZM9 23L9 25L10 25L10 23ZM26 25L26 26L27 26L27 27L26 27L26 28L27 28L27 27L28 27L28 26L27 26L27 25ZM0 0L0 7L7 7L7 0ZM1 1L1 6L6 6L6 1ZM2 2L2 5L5 5L5 2ZM22 0L22 7L29 7L29 0ZM23 1L23 6L28 6L28 1ZM24 2L24 5L27 5L27 2ZM0 22L0 29L7 29L7 22ZM1 23L1 28L6 28L6 23ZM2 24L2 27L5 27L5 24Z" fill="#000000"/></g></g></svg>
