<?xml version="1.0" encoding="UTF-8"?>
<svg xmlns="http://www.w3.org/2000/svg" version="1.1" width="200" height="200" viewBox="0 0 200 200"><rect x="0" y="0" width="200" height="200" fill="#ffffff"/><g transform="scale(6.897)"><g transform="translate(0,0)"><path fill-rule="evenodd" d="M9 0L9 1L10 1L10 2L11 2L11 3L10 3L10 4L8 4L8 5L9 5L9 6L8 6L8 8L6 8L6 9L5 9L5 10L6 10L6 11L5 11L5 12L3 12L3 13L0 13L0 14L1 14L1 15L0 15L0 17L1 17L1 18L0 18L0 19L1 19L1 18L2 18L2 17L1 17L1 15L2 15L2 16L3 16L3 15L4 15L4 18L3 18L3 19L2 19L2 20L1 20L1 21L2 21L2 20L3 20L3 21L7 21L7 20L8 20L8 23L9 23L9 25L8 25L8 27L9 27L9 26L10 26L10 28L9 28L9 29L10 29L10 28L12 28L12 27L13 27L13 28L14 28L14 29L17 29L17 28L20 28L20 29L22 29L22 27L21 27L21 28L20 28L20 27L18 27L18 26L20 26L20 25L23 25L23 26L24 26L24 27L23 27L23 28L25 28L25 26L24 26L24 25L26 25L26 23L25 23L25 22L26 22L26 20L27 20L27 23L28 23L28 24L27 24L27 25L29 25L29 23L28 23L28 20L27 20L27 18L28 18L28 19L29 19L29 17L26 17L26 16L25 16L25 15L24 15L24 16L23 16L23 15L22 15L22 14L24 14L24 13L25 13L25 14L26 14L26 15L27 15L27 16L28 16L28 15L29 15L29 14L28 14L28 15L27 15L27 13L28 13L28 12L29 12L29 11L28 11L28 12L27 12L27 11L26 11L26 10L25 10L25 8L24 8L24 10L23 10L23 11L24 11L24 10L25 10L25 11L26 11L26 12L27 12L27 13L25 13L25 12L23 12L23 13L22 13L22 14L21 14L21 13L20 13L20 14L19 14L19 12L20 12L20 11L19 11L19 12L18 12L18 11L17 11L17 10L18 10L18 9L16 9L16 8L20 8L20 9L21 9L21 12L22 12L22 9L23 9L23 8L20 8L20 7L21 7L21 0L20 0L20 1L19 1L19 0L18 0L18 1L17 1L17 0L15 0L15 1L14 1L14 0L13 0L13 1L12 1L12 0L11 0L11 1L10 1L10 0ZM11 1L11 2L12 2L12 1ZM13 1L13 3L12 3L12 4L14 4L14 6L13 6L13 7L14 7L14 8L12 8L12 10L11 10L11 8L9 8L9 9L8 9L8 10L7 10L7 9L6 9L6 10L7 10L7 11L6 11L6 12L7 12L7 13L6 13L6 14L5 14L5 15L6 15L6 16L5 16L5 18L4 18L4 19L3 19L3 20L5 20L5 18L7 18L7 17L8 17L8 18L9 18L9 17L10 17L10 19L9 19L9 20L10 20L10 19L11 19L11 22L12 22L12 20L13 20L13 24L14 24L14 23L16 23L16 25L17 25L17 26L18 26L18 24L19 24L19 25L20 25L20 24L19 24L19 23L20 23L20 20L22 20L22 19L23 19L23 18L25 18L25 19L24 19L24 20L25 20L25 19L26 19L26 17L25 17L25 16L24 16L24 17L23 17L23 18L22 18L22 17L21 17L21 18L20 18L20 20L19 20L19 18L18 18L18 17L20 17L20 16L21 16L21 14L20 14L20 15L19 15L19 16L18 16L18 17L17 17L17 18L16 18L16 19L15 19L15 18L14 18L14 19L13 19L13 18L11 18L11 17L13 17L13 16L14 16L14 15L15 15L15 14L14 14L14 13L16 13L16 12L14 12L14 11L16 11L16 10L13 10L13 9L15 9L15 8L16 8L16 6L15 6L15 4L14 4L14 1ZM15 1L15 3L16 3L16 5L17 5L17 7L18 7L18 6L19 6L19 7L20 7L20 5L19 5L19 4L18 4L18 2L19 2L19 3L20 3L20 2L19 2L19 1L18 1L18 2L16 2L16 1ZM10 4L10 5L11 5L11 7L12 7L12 5L11 5L11 4ZM17 4L17 5L18 5L18 4ZM9 6L9 7L10 7L10 6ZM14 6L14 7L15 7L15 6ZM2 8L2 10L0 10L0 12L2 12L2 10L4 10L4 8ZM9 9L9 11L7 11L7 12L10 12L10 14L9 14L9 15L7 15L7 14L8 14L8 13L7 13L7 14L6 14L6 15L7 15L7 16L6 16L6 17L7 17L7 16L8 16L8 17L9 17L9 16L10 16L10 17L11 17L11 16L10 16L10 14L11 14L11 13L12 13L12 16L13 16L13 13L14 13L14 12L12 12L12 11L13 11L13 10L12 10L12 11L11 11L11 12L10 12L10 9ZM27 9L27 10L29 10L29 9ZM17 12L17 14L16 14L16 15L18 15L18 12ZM3 13L3 14L4 14L4 13ZM15 16L15 17L16 17L16 16ZM21 18L21 19L22 19L22 18ZM6 19L6 20L7 20L7 19ZM14 19L14 22L15 22L15 21L16 21L16 23L17 23L17 24L18 24L18 23L19 23L19 22L17 22L17 21L19 21L19 20L18 20L18 19L16 19L16 20L15 20L15 19ZM21 21L21 24L24 24L24 21ZM22 22L22 23L23 23L23 22ZM10 23L10 24L11 24L11 23ZM13 25L13 26L14 26L14 27L16 27L16 28L17 28L17 27L16 27L16 26L14 26L14 25ZM11 26L11 27L12 27L12 26ZM26 26L26 29L27 29L27 28L29 28L29 26L28 26L28 27L27 27L27 26ZM0 0L0 7L7 7L7 0ZM1 1L1 6L6 6L6 1ZM2 2L2 5L5 5L5 2ZM22 0L22 7L29 7L29 0ZM23 1L23 6L28 6L28 1ZM24 2L24 5L27 5L27 2ZM0 22L0 29L7 29L7 22ZM1 23L1 28L6 28L6 23ZM2 24L2 27L5 27L5 24Z" fill="#000000"/></g></g></svg>
