<?xml version="1.0" encoding="UTF-8"?>
<svg xmlns="http://www.w3.org/2000/svg" version="1.1" width="200" height="200" viewBox="0 0 200 200"><rect x="0" y="0" width="200" height="200" fill="#ffffff"/><g transform="scale(4.878)"><g transform="translate(0,0)"><path fill-rule="evenodd" d="M8 0L8 3L9 3L9 5L8 5L8 9L7 9L7 8L6 8L6 9L7 9L7 10L6 10L6 11L7 11L7 12L6 12L6 13L7 13L7 12L8 12L8 10L9 10L9 12L10 12L10 13L9 13L9 14L10 14L10 16L9 16L9 15L8 15L8 14L6 14L6 15L7 15L7 16L4 16L4 15L5 15L5 13L4 13L4 12L5 12L5 11L4 11L4 12L3 12L3 10L4 10L4 9L5 9L5 8L2 8L2 9L0 9L0 11L2 11L2 12L1 12L1 13L2 13L2 14L1 14L1 16L0 16L0 18L1 18L1 19L0 19L0 21L2 21L2 20L1 20L1 19L4 19L4 21L3 21L3 22L4 22L4 23L2 23L2 22L0 22L0 25L2 25L2 26L0 26L0 27L4 27L4 26L3 26L3 25L2 25L2 24L4 24L4 25L5 25L5 27L7 27L7 26L8 26L8 28L3 28L3 29L0 29L0 33L1 33L1 30L2 30L2 31L3 31L3 32L2 32L2 33L3 33L3 32L4 32L4 33L5 33L5 30L6 30L6 31L8 31L8 32L6 32L6 33L8 33L8 34L11 34L11 35L9 35L9 36L8 36L8 39L9 39L9 40L10 40L10 41L11 41L11 38L9 38L9 37L10 37L10 36L11 36L11 37L12 37L12 38L13 38L13 39L12 39L12 40L13 40L13 39L14 39L14 40L15 40L15 41L18 41L18 40L16 40L16 39L14 39L14 37L13 37L13 36L11 36L11 35L13 35L13 34L14 34L14 36L15 36L15 38L17 38L17 39L21 39L21 40L19 40L19 41L21 41L21 40L22 40L22 41L23 41L23 40L24 40L24 39L25 39L25 40L26 40L26 41L27 41L27 40L28 40L28 41L31 41L31 40L33 40L33 41L34 41L34 40L33 40L33 39L35 39L35 40L36 40L36 39L37 39L37 40L40 40L40 38L41 38L41 36L38 36L38 35L40 35L40 34L41 34L41 33L40 33L40 32L37 32L37 31L38 31L38 30L37 30L37 29L36 29L36 28L38 28L38 26L39 26L39 27L40 27L40 28L41 28L41 27L40 27L40 26L41 26L41 23L39 23L39 22L38 22L38 23L39 23L39 24L40 24L40 26L39 26L39 25L36 25L36 24L37 24L37 20L38 20L38 21L39 21L39 20L38 20L38 17L39 17L39 16L38 16L38 15L39 15L39 14L41 14L41 13L40 13L40 12L41 12L41 11L40 11L40 10L41 10L41 8L38 8L38 9L40 9L40 10L37 10L37 9L36 9L36 8L32 8L32 9L31 9L31 8L28 8L28 7L29 7L29 6L28 6L28 5L29 5L29 4L28 4L28 5L27 5L27 4L25 4L25 2L24 2L24 8L20 8L20 7L21 7L21 6L22 6L22 7L23 7L23 6L22 6L22 5L23 5L23 3L20 3L20 4L22 4L22 5L20 5L20 7L19 7L19 5L18 5L18 4L16 4L16 3L17 3L17 1L18 1L18 2L19 2L19 0L16 0L16 1L15 1L15 0L13 0L13 1L15 1L15 2L13 2L13 3L14 3L14 4L16 4L16 5L18 5L18 8L17 8L17 6L16 6L16 8L15 8L15 6L14 6L14 8L15 8L15 10L14 10L14 11L15 11L15 10L16 10L16 11L17 11L17 12L18 12L18 13L16 13L16 12L14 12L14 13L13 13L13 12L12 12L12 10L13 10L13 9L11 9L11 10L10 10L10 8L13 8L13 5L10 5L10 3L11 3L11 4L12 4L12 2L10 2L10 3L9 3L9 1L10 1L10 0ZM11 0L11 1L12 1L12 0ZM21 0L21 1L20 1L20 2L21 2L21 1L25 1L25 0ZM26 0L26 1L27 1L27 2L26 2L26 3L31 3L31 2L30 2L30 1L32 1L32 4L30 4L30 7L31 7L31 5L32 5L32 7L33 7L33 5L32 5L32 4L33 4L33 0L29 0L29 1L27 1L27 0ZM9 6L9 7L10 7L10 6ZM11 6L11 7L12 7L12 6ZM25 6L25 7L26 7L26 6ZM27 6L27 7L28 7L28 6ZM16 8L16 10L17 10L17 8ZM18 8L18 9L19 9L19 8ZM26 8L26 9L23 9L23 10L24 10L24 11L25 11L25 10L26 10L26 11L27 11L27 12L28 12L28 13L29 13L29 14L27 14L27 15L25 15L25 18L28 18L28 19L29 19L29 21L27 21L27 22L26 22L26 21L25 21L25 20L27 20L27 19L25 19L25 20L24 20L24 22L23 22L23 23L22 23L22 21L23 21L23 20L22 20L22 21L20 21L20 22L19 22L19 21L18 21L18 20L19 20L19 19L20 19L20 18L21 18L21 19L24 19L24 15L23 15L23 14L25 14L25 13L23 13L23 14L20 14L20 15L19 15L19 14L18 14L18 15L19 15L19 16L17 16L17 17L16 17L16 14L15 14L15 13L14 13L14 14L12 14L12 15L11 15L11 16L10 16L10 18L8 18L8 19L6 19L6 18L7 18L7 17L6 17L6 18L5 18L5 17L3 17L3 15L2 15L2 16L1 16L1 17L3 17L3 18L4 18L4 19L6 19L6 20L7 20L7 21L6 21L6 22L7 22L7 23L4 23L4 24L5 24L5 25L6 25L6 26L7 26L7 25L6 25L6 24L11 24L11 23L12 23L12 21L10 21L10 20L11 20L11 19L12 19L12 20L13 20L13 21L14 21L14 20L15 20L15 18L16 18L16 20L17 20L17 21L18 21L18 22L17 22L17 24L16 24L16 21L15 21L15 22L14 22L14 23L13 23L13 24L12 24L12 25L13 25L13 24L14 24L14 23L15 23L15 27L11 27L11 25L10 25L10 27L11 27L11 28L8 28L8 29L6 29L6 30L9 30L9 32L8 32L8 33L11 33L11 32L12 32L12 30L11 30L11 29L14 29L14 28L15 28L15 27L16 27L16 29L15 29L15 30L14 30L14 31L13 31L13 32L15 32L15 31L16 31L16 32L17 32L17 33L16 33L16 34L18 34L18 35L16 35L16 37L18 37L18 35L21 35L21 36L22 36L22 35L23 35L23 36L24 36L24 37L23 37L23 38L21 38L21 39L22 39L22 40L23 40L23 39L24 39L24 38L25 38L25 39L27 39L27 38L30 38L30 39L28 39L28 40L30 40L30 39L33 39L33 38L36 38L36 37L33 37L33 38L32 38L32 36L29 36L29 33L27 33L27 31L26 31L26 30L25 30L25 31L24 31L24 32L25 32L25 31L26 31L26 33L21 33L21 34L20 34L20 32L19 32L19 31L20 31L20 30L21 30L21 31L23 31L23 30L24 30L24 29L22 29L22 27L23 27L23 28L24 28L24 27L25 27L25 26L23 26L23 25L22 25L22 27L21 27L21 26L19 26L19 25L17 25L17 24L19 24L19 23L22 23L22 24L24 24L24 23L25 23L25 25L26 25L26 26L28 26L28 25L29 25L29 24L31 24L31 25L30 25L30 26L29 26L29 27L26 27L26 29L27 29L27 28L31 28L31 29L28 29L28 30L29 30L29 31L28 31L28 32L30 32L30 31L31 31L31 30L32 30L32 31L33 31L33 32L35 32L35 31L34 31L34 30L36 30L36 29L35 29L35 26L36 26L36 25L35 25L35 24L36 24L36 23L35 23L35 22L36 22L36 21L35 21L35 19L36 19L36 20L37 20L37 18L36 18L36 17L38 17L38 16L36 16L36 17L35 17L35 14L36 14L36 15L37 15L37 14L36 14L36 13L38 13L38 14L39 14L39 12L40 12L40 11L38 11L38 12L37 12L37 11L36 11L36 10L35 10L35 13L34 13L34 12L33 12L33 13L32 13L32 10L33 10L33 11L34 11L34 10L33 10L33 9L32 9L32 10L31 10L31 9L30 9L30 10L29 10L29 9L27 9L27 8ZM2 9L2 10L3 10L3 9ZM20 9L20 10L21 10L21 11L22 11L22 9ZM18 10L18 11L19 11L19 12L20 12L20 11L19 11L19 10ZM27 10L27 11L28 11L28 10ZM30 10L30 12L29 12L29 13L30 13L30 14L29 14L29 15L28 15L28 16L29 16L29 17L31 17L31 18L30 18L30 19L31 19L31 20L30 20L30 21L31 21L31 22L32 22L32 23L31 23L31 24L34 24L34 23L33 23L33 22L32 22L32 21L34 21L34 22L35 22L35 21L34 21L34 20L32 20L32 19L33 19L33 18L34 18L34 19L35 19L35 17L34 17L34 16L33 16L33 17L31 17L31 16L29 16L29 15L31 15L31 10ZM21 12L21 13L22 13L22 12ZM10 13L10 14L11 14L11 13ZM33 13L33 14L32 14L32 15L34 15L34 13ZM14 14L14 16L13 16L13 15L12 15L12 16L11 16L11 18L10 18L10 19L11 19L11 18L12 18L12 19L13 19L13 20L14 20L14 18L12 18L12 16L13 16L13 17L14 17L14 16L15 16L15 14ZM20 15L20 16L19 16L19 18L18 18L18 17L17 17L17 19L19 19L19 18L20 18L20 16L21 16L21 18L22 18L22 16L21 16L21 15ZM8 16L8 17L9 17L9 16ZM26 16L26 17L27 17L27 16ZM40 16L40 18L39 18L39 19L40 19L40 18L41 18L41 16ZM31 18L31 19L32 19L32 18ZM8 19L8 20L9 20L9 19ZM31 20L31 21L32 21L32 20ZM40 20L40 21L41 21L41 20ZM4 21L4 22L5 22L5 21ZM7 21L7 22L8 22L8 23L10 23L10 22L8 22L8 21ZM18 22L18 23L19 23L19 22ZM25 22L25 23L26 23L26 24L27 24L27 25L28 25L28 23L29 23L29 22L27 22L27 23L26 23L26 22ZM20 24L20 25L21 25L21 24ZM16 25L16 27L18 27L18 28L19 28L19 29L17 29L17 32L18 32L18 33L19 33L19 32L18 32L18 31L19 31L19 30L20 30L20 28L21 28L21 27L18 27L18 26L17 26L17 25ZM31 25L31 26L33 26L33 27L31 27L31 28L33 28L33 29L32 29L32 30L33 30L33 29L34 29L34 28L33 28L33 27L34 27L34 26L35 26L35 25ZM9 29L9 30L10 30L10 32L11 32L11 30L10 30L10 29ZM39 29L39 31L40 31L40 30L41 30L41 29ZM12 33L12 34L13 34L13 33ZM26 33L26 34L27 34L27 35L25 35L25 34L24 34L24 35L25 35L25 38L26 38L26 36L27 36L27 37L29 37L29 36L28 36L28 34L27 34L27 33ZM30 33L30 35L31 35L31 34L32 34L32 33ZM33 33L33 36L36 36L36 33ZM37 33L37 35L38 35L38 34L39 34L39 33ZM21 34L21 35L22 35L22 34ZM34 34L34 35L35 35L35 34ZM37 36L37 37L38 37L38 36ZM19 37L19 38L20 38L20 37ZM30 37L30 38L31 38L31 37ZM37 38L37 39L38 39L38 38ZM0 0L0 7L7 7L7 0ZM1 1L1 6L6 6L6 1ZM2 2L2 5L5 5L5 2ZM34 0L34 7L41 7L41 0ZM35 1L35 6L40 6L40 1ZM36 2L36 5L39 5L39 2ZM0 34L0 41L7 41L7 34ZM1 35L1 40L6 40L6 35ZM2 36L2 39L5 39L5 36Z" fill="#000000"/></g></g></svg>
