<?xml version="1.0" encoding="UTF-8"?>
<svg xmlns="http://www.w3.org/2000/svg" version="1.1" width="200" height="200" viewBox="0 0 200 200"><rect x="0" y="0" width="200" height="200" fill="#ffffff"/><g transform="scale(6.897)"><g transform="translate(0,0)"><path fill-rule="evenodd" d="M11 0L11 1L10 1L10 2L11 2L11 3L10 3L10 4L8 4L8 5L10 5L10 7L11 7L11 9L10 9L10 10L9 10L9 6L8 6L8 8L6 8L6 9L7 9L7 10L4 10L4 8L2 8L2 10L3 10L3 11L1 11L1 9L0 9L0 13L2 13L2 12L4 12L4 13L3 13L3 14L0 14L0 17L1 17L1 18L0 18L0 19L1 19L1 18L4 18L4 19L7 19L7 20L3 20L3 19L2 19L2 20L1 20L1 21L2 21L2 20L3 20L3 21L7 21L7 20L8 20L8 19L9 19L9 21L8 21L8 23L10 23L10 26L11 26L11 25L12 25L12 23L13 23L13 24L14 24L14 25L13 25L13 26L14 26L14 25L16 25L16 24L14 24L14 22L17 22L17 25L19 25L19 26L20 26L20 25L23 25L23 26L24 26L24 27L22 27L22 29L23 29L23 28L25 28L25 29L26 29L26 28L29 28L29 26L28 26L28 27L27 27L27 25L29 25L29 23L28 23L28 20L27 20L27 23L28 23L28 24L27 24L27 25L26 25L26 23L25 23L25 22L26 22L26 20L25 20L25 18L24 18L24 19L22 19L22 18L23 18L23 17L24 17L24 16L25 16L25 17L26 17L26 19L27 19L27 18L29 18L29 17L26 17L26 16L25 16L25 15L24 15L24 16L23 16L23 17L21 17L21 18L20 18L20 17L19 17L19 15L20 15L20 14L21 14L21 13L20 13L20 12L22 12L22 9L23 9L23 13L22 13L22 15L23 15L23 14L24 14L24 13L25 13L25 14L26 14L26 15L27 15L27 16L28 16L28 15L29 15L29 14L28 14L28 15L27 15L27 13L28 13L28 12L29 12L29 11L28 11L28 12L27 12L27 11L26 11L26 10L29 10L29 9L25 9L25 8L24 8L24 9L23 9L23 8L21 8L21 9L20 9L20 7L21 7L21 3L20 3L20 2L18 2L18 1L17 1L17 0L16 0L16 1L14 1L14 2L13 2L13 1L12 1L12 0ZM16 1L16 2L15 2L15 3L13 3L13 4L12 4L12 3L11 3L11 4L10 4L10 5L11 5L11 7L12 7L12 6L13 6L13 8L14 8L14 9L17 9L17 10L14 10L14 12L12 12L12 11L11 11L11 10L10 10L10 11L11 11L11 12L10 12L10 13L11 13L11 14L9 14L9 15L8 15L8 14L7 14L7 13L8 13L8 12L7 12L7 11L5 11L5 12L7 12L7 13L5 13L5 14L7 14L7 15L3 15L3 17L4 17L4 18L7 18L7 19L8 19L8 18L9 18L9 16L10 16L10 17L11 17L11 18L12 18L12 19L11 19L11 20L10 20L10 23L11 23L11 21L12 21L12 22L13 22L13 21L18 21L18 23L20 23L20 21L19 21L19 20L20 20L20 18L19 18L19 17L18 17L18 18L16 18L16 19L15 19L15 20L13 20L13 19L14 19L14 17L13 17L13 15L12 15L12 14L13 14L13 13L15 13L15 12L16 12L16 14L14 14L14 15L17 15L17 12L20 12L20 11L19 11L19 10L20 10L20 9L19 9L19 10L18 10L18 8L19 8L19 7L20 7L20 5L19 5L19 4L20 4L20 3L19 3L19 4L18 4L18 2L17 2L17 1ZM16 2L16 4L14 4L14 5L15 5L15 6L14 6L14 7L15 7L15 8L17 8L17 6L18 6L18 7L19 7L19 5L16 5L16 4L17 4L17 2ZM11 4L11 5L12 5L12 4ZM15 6L15 7L16 7L16 6ZM12 9L12 10L13 10L13 9ZM24 9L24 10L25 10L25 9ZM8 10L8 11L9 11L9 10ZM17 10L17 11L16 11L16 12L17 12L17 11L18 11L18 10ZM25 11L25 13L27 13L27 12L26 12L26 11ZM11 12L11 13L12 13L12 12ZM19 13L19 14L18 14L18 15L19 15L19 14L20 14L20 13ZM10 15L10 16L12 16L12 15ZM6 16L6 17L7 17L7 18L8 18L8 17L7 17L7 16ZM12 17L12 18L13 18L13 17ZM16 19L16 20L17 20L17 19ZM18 19L18 20L19 20L19 19ZM21 19L21 20L22 20L22 19ZM12 20L12 21L13 21L13 20ZM21 21L21 24L24 24L24 21ZM22 22L22 23L23 23L23 22ZM19 24L19 25L20 25L20 24ZM8 25L8 27L9 27L9 28L11 28L11 27L9 27L9 25ZM24 25L24 26L26 26L26 25ZM15 26L15 28L16 28L16 27L17 27L17 28L18 28L18 29L20 29L20 28L18 28L18 26ZM13 27L13 28L12 28L12 29L14 29L14 27ZM0 0L0 7L7 7L7 0ZM1 1L1 6L6 6L6 1ZM2 2L2 5L5 5L5 2ZM22 0L22 7L29 7L29 0ZM23 1L23 6L28 6L28 1ZM24 2L24 5L27 5L27 2ZM0 22L0 29L7 29L7 22ZM1 23L1 28L6 28L6 23ZM2 24L2 27L5 27L5 24Z" fill="#000000"/></g></g></svg>
