<?xml version="1.0" encoding="UTF-8"?>
<svg xmlns="http://www.w3.org/2000/svg" version="1.1" width="200" height="200" viewBox="0 0 200 200"><rect x="0" y="0" width="200" height="200" fill="#ffffff"/><g transform="scale(6.897)"><g transform="translate(0,0)"><path fill-rule="evenodd" d="M9 0L9 3L10 3L10 4L11 4L11 5L10 5L10 7L11 7L11 6L12 6L12 8L14 8L14 9L13 9L13 12L11 12L11 11L12 11L12 10L11 10L11 9L10 9L10 8L9 8L9 6L8 6L8 8L6 8L6 9L5 9L5 10L4 10L4 15L3 15L3 13L2 13L2 12L3 12L3 11L1 11L1 10L3 10L3 9L4 9L4 8L2 8L2 9L0 9L0 11L1 11L1 13L2 13L2 14L1 14L1 15L0 15L0 16L1 16L1 17L3 17L3 19L2 19L2 20L1 20L1 21L4 21L4 20L5 20L5 21L8 21L8 23L10 23L10 24L9 24L9 25L8 25L8 27L10 27L10 28L9 28L9 29L10 29L10 28L14 28L14 29L15 29L15 28L16 28L16 29L17 29L17 28L18 28L18 27L17 27L17 26L15 26L15 23L18 23L18 21L17 21L17 20L19 20L19 21L20 21L20 22L19 22L19 25L18 25L18 24L17 24L17 25L18 25L18 26L19 26L19 25L20 25L20 27L21 27L21 25L23 25L23 26L24 26L24 27L22 27L22 29L23 29L23 28L25 28L25 26L27 26L27 25L26 25L26 23L25 23L25 22L26 22L26 20L25 20L25 19L26 19L26 18L29 18L29 17L26 17L26 16L25 16L25 15L24 15L24 16L23 16L23 17L21 17L21 18L20 18L20 17L19 17L19 15L20 15L20 14L21 14L21 13L20 13L20 12L22 12L22 9L23 9L23 13L22 13L22 15L23 15L23 14L24 14L24 13L25 13L25 14L26 14L26 15L27 15L27 16L28 16L28 15L29 15L29 14L28 14L28 12L29 12L29 11L28 11L28 12L27 12L27 10L29 10L29 9L25 9L25 8L24 8L24 9L23 9L23 8L21 8L21 3L20 3L20 2L18 2L18 1L17 1L17 2L18 2L18 4L19 4L19 5L16 5L16 4L17 4L17 3L16 3L16 0L14 0L14 1L13 1L13 0ZM13 2L13 3L12 3L12 4L14 4L14 3L15 3L15 4L16 4L16 3L15 3L15 2ZM19 3L19 4L20 4L20 3ZM8 4L8 5L9 5L9 4ZM12 5L12 6L13 6L13 7L14 7L14 8L15 8L15 9L14 9L14 11L15 11L15 13L14 13L14 12L13 12L13 13L10 13L10 12L8 12L8 11L9 11L9 9L6 9L6 10L5 10L5 13L6 13L6 14L5 14L5 15L4 15L4 16L3 16L3 15L1 15L1 16L3 16L3 17L5 17L5 15L6 15L6 16L7 16L7 17L6 17L6 18L7 18L7 19L6 19L6 20L8 20L8 21L9 21L9 22L10 22L10 23L11 23L11 22L12 22L12 24L11 24L11 25L9 25L9 26L10 26L10 27L11 27L11 25L12 25L12 26L14 26L14 21L15 21L15 20L16 20L16 19L15 19L15 20L14 20L14 19L13 19L13 18L16 18L16 17L17 17L17 19L19 19L19 20L20 20L20 18L19 18L19 17L18 17L18 15L19 15L19 14L20 14L20 13L19 13L19 12L20 12L20 11L18 11L18 8L19 8L19 10L20 10L20 9L21 9L21 8L19 8L19 7L20 7L20 5L19 5L19 7L18 7L18 6L17 6L17 9L16 9L16 8L15 8L15 7L16 7L16 6L15 6L15 5L14 5L14 6L13 6L13 5ZM14 6L14 7L15 7L15 6ZM24 9L24 10L25 10L25 9ZM6 10L6 11L8 11L8 10ZM10 10L10 11L11 11L11 10ZM15 10L15 11L17 11L17 10ZM25 11L25 13L27 13L27 12L26 12L26 11ZM6 12L6 13L7 13L7 14L6 14L6 15L7 15L7 16L8 16L8 17L7 17L7 18L8 18L8 20L10 20L10 19L9 19L9 18L8 18L8 17L9 17L9 16L10 16L10 17L11 17L11 19L12 19L12 20L11 20L11 21L10 21L10 22L11 22L11 21L12 21L12 22L13 22L13 21L12 21L12 20L13 20L13 19L12 19L12 18L13 18L13 15L14 15L14 16L15 16L15 15L16 15L16 13L15 13L15 15L14 15L14 13L13 13L13 14L11 14L11 16L10 16L10 15L9 15L9 14L8 14L8 13L7 13L7 12ZM17 13L17 15L18 15L18 13ZM7 14L7 15L8 15L8 16L9 16L9 15L8 15L8 14ZM11 16L11 17L12 17L12 16ZM24 16L24 17L23 17L23 18L22 18L22 19L21 19L21 20L22 20L22 19L24 19L24 18L26 18L26 17L25 17L25 16ZM0 18L0 19L1 19L1 18ZM4 18L4 19L3 19L3 20L4 20L4 19L5 19L5 18ZM27 20L27 21L28 21L28 22L27 22L27 24L29 24L29 23L28 23L28 22L29 22L29 21L28 21L28 20ZM16 21L16 22L17 22L17 21ZM21 21L21 24L24 24L24 21ZM22 22L22 23L23 23L23 22ZM24 25L24 26L25 26L25 25ZM28 26L28 27L26 27L26 28L29 28L29 26ZM19 28L19 29L20 29L20 28ZM0 0L0 7L7 7L7 0ZM1 1L1 6L6 6L6 1ZM2 2L2 5L5 5L5 2ZM22 0L22 7L29 7L29 0ZM23 1L23 6L28 6L28 1ZM24 2L24 5L27 5L27 2ZM0 22L0 29L7 29L7 22ZM1 23L1 28L6 28L6 23ZM2 24L2 27L5 27L5 24Z" fill="#000000"/></g></g></svg>
