<?xml version="1.0" encoding="UTF-8"?>
<svg xmlns="http://www.w3.org/2000/svg" version="1.1" width="200" height="200" viewBox="0 0 200 200"><rect x="0" y="0" width="200" height="200" fill="#ffffff"/><g transform="scale(4.878)"><g transform="translate(0,0)"><path fill-rule="evenodd" d="M8 0L8 3L12 3L12 5L11 5L11 4L10 4L10 5L8 5L8 9L7 9L7 8L6 8L6 9L5 9L5 8L2 8L2 9L0 9L0 10L2 10L2 11L1 11L1 13L7 13L7 14L5 14L5 15L3 15L3 14L1 14L1 15L3 15L3 16L2 16L2 18L1 18L1 19L0 19L0 20L3 20L3 21L2 21L2 22L1 22L1 26L0 26L0 33L1 33L1 29L2 29L2 30L3 30L3 29L2 29L2 28L1 28L1 27L2 27L2 26L4 26L4 27L5 27L5 26L6 26L6 27L8 27L8 28L6 28L6 29L5 29L5 28L4 28L4 29L5 29L5 30L4 30L4 31L3 31L3 32L2 32L2 33L3 33L3 32L4 32L4 33L8 33L8 34L9 34L9 33L10 33L10 36L8 36L8 39L9 39L9 41L16 41L16 40L13 40L13 39L12 39L12 40L11 40L11 39L9 39L9 37L10 37L10 38L11 38L11 37L14 37L14 38L17 38L17 39L19 39L19 40L18 40L18 41L19 41L19 40L20 40L20 41L21 41L21 40L22 40L22 41L26 41L26 40L25 40L25 39L23 39L23 38L22 38L22 39L19 39L19 38L20 38L20 37L15 37L15 36L16 36L16 34L17 34L17 35L18 35L18 36L19 36L19 35L20 35L20 36L21 36L21 37L22 37L22 36L21 36L21 35L20 35L20 34L21 34L21 33L20 33L20 34L19 34L19 35L18 35L18 33L19 33L19 32L18 32L18 30L17 30L17 29L20 29L20 31L21 31L21 32L22 32L22 33L23 33L23 36L24 36L24 35L25 35L25 38L27 38L27 41L28 41L28 39L30 39L30 40L29 40L29 41L30 41L30 40L33 40L33 41L34 41L34 40L33 40L33 39L35 39L35 40L36 40L36 39L37 39L37 40L40 40L40 38L41 38L41 37L39 37L39 36L41 36L41 35L40 35L40 34L41 34L41 33L40 33L40 32L41 32L41 31L40 31L40 30L41 30L41 29L40 29L40 26L41 26L41 23L39 23L39 22L38 22L38 21L39 21L39 20L36 20L36 19L35 19L35 17L36 17L36 18L37 18L37 19L38 19L38 17L39 17L39 16L38 16L38 15L36 15L36 16L35 16L35 17L34 17L34 16L32 16L32 17L31 17L31 16L29 16L29 15L31 15L31 10L32 10L32 9L34 9L34 11L33 11L33 12L32 12L32 13L33 13L33 14L32 14L32 15L34 15L34 13L35 13L35 11L36 11L36 12L38 12L38 11L39 11L39 13L40 13L40 14L39 14L39 15L40 15L40 14L41 14L41 13L40 13L40 10L41 10L41 8L38 8L38 9L40 9L40 10L37 10L37 9L36 9L36 8L32 8L32 9L30 9L30 8L31 8L31 6L30 6L30 8L28 8L28 7L29 7L29 6L28 6L28 5L29 5L29 4L28 4L28 5L27 5L27 4L25 4L25 2L23 2L23 1L24 1L24 0L23 0L23 1L21 1L21 0L18 0L18 2L17 2L17 1L16 1L16 3L15 3L15 5L14 5L14 3L13 3L13 2L14 2L14 1L13 1L13 2L11 2L11 0ZM26 0L26 1L27 1L27 2L26 2L26 3L31 3L31 4L30 4L30 5L32 5L32 4L33 4L33 3L31 3L31 2L30 2L30 1L33 1L33 0L29 0L29 1L27 1L27 0ZM9 1L9 2L10 2L10 1ZM20 1L20 3L18 3L18 4L17 4L17 3L16 3L16 5L15 5L15 7L16 7L16 5L18 5L18 6L17 6L17 7L18 7L18 6L19 6L19 8L17 8L17 9L15 9L15 8L14 8L14 5L13 5L13 7L12 7L12 6L11 6L11 7L10 7L10 6L9 6L9 9L8 9L8 10L9 10L9 12L10 12L10 15L8 15L8 17L6 17L6 18L5 18L5 19L4 19L4 17L5 17L5 16L3 16L3 19L4 19L4 20L5 20L5 21L3 21L3 22L2 22L2 24L3 24L3 25L4 25L4 26L5 26L5 25L6 25L6 26L7 26L7 25L8 25L8 26L9 26L9 25L12 25L12 24L13 24L13 26L12 26L12 27L10 27L10 28L9 28L9 29L10 29L10 31L11 31L11 29L12 29L12 32L11 32L11 33L12 33L12 32L13 32L13 31L14 31L14 30L15 30L15 31L16 31L16 30L15 30L15 29L16 29L16 28L17 28L17 27L18 27L18 26L17 26L17 27L16 27L16 25L15 25L15 23L16 23L16 24L17 24L17 25L19 25L19 24L20 24L20 22L21 22L21 23L23 23L23 22L25 22L25 23L24 23L24 24L21 24L21 25L20 25L20 26L19 26L19 27L20 27L20 29L21 29L21 30L22 30L22 31L23 31L23 33L24 33L24 34L25 34L25 35L26 35L26 34L25 34L25 32L26 32L26 31L27 31L27 28L30 28L30 29L28 29L28 30L29 30L29 31L28 31L28 32L31 32L31 31L30 31L30 29L31 29L31 30L32 30L32 31L33 31L33 32L35 32L35 31L34 31L34 30L35 30L35 29L37 29L37 30L36 30L36 31L37 31L37 32L39 32L39 31L38 31L38 30L39 30L39 26L40 26L40 24L39 24L39 23L38 23L38 22L37 22L37 24L36 24L36 23L34 23L34 25L32 25L32 24L30 24L30 23L33 23L33 22L34 22L34 21L35 21L35 22L36 22L36 21L35 21L35 19L34 19L34 18L33 18L33 17L32 17L32 18L31 18L31 17L29 17L29 16L28 16L28 15L29 15L29 14L30 14L30 13L29 13L29 12L30 12L30 9L28 9L28 8L27 8L27 7L28 7L28 6L27 6L27 7L26 7L26 5L25 5L25 7L26 7L26 8L27 8L27 10L26 10L26 9L25 9L25 8L24 8L24 6L23 6L23 8L24 8L24 9L25 9L25 10L22 10L22 9L21 9L21 8L22 8L22 6L21 6L21 8L20 8L20 5L21 5L21 4L22 4L22 5L24 5L24 4L23 4L23 2L21 2L21 1ZM18 4L18 5L19 5L19 4ZM32 6L32 7L33 7L33 6ZM13 8L13 9L14 9L14 8ZM3 9L3 11L4 11L4 12L5 12L5 11L6 11L6 12L7 12L7 13L8 13L8 12L7 12L7 11L6 11L6 10L7 10L7 9L6 9L6 10L5 10L5 9ZM9 9L9 10L10 10L10 11L12 11L12 12L11 12L11 13L12 13L12 14L11 14L11 15L10 15L10 17L12 17L12 18L9 18L9 19L8 19L8 18L6 18L6 19L7 19L7 20L6 20L6 21L8 21L8 20L9 20L9 22L10 22L10 23L7 23L7 22L5 22L5 24L4 24L4 25L5 25L5 24L6 24L6 25L7 25L7 24L8 24L8 25L9 25L9 24L11 24L11 22L12 22L12 23L13 23L13 24L14 24L14 23L15 23L15 22L14 22L14 23L13 23L13 22L12 22L12 21L11 21L11 20L13 20L13 19L15 19L15 21L16 21L16 22L17 22L17 23L18 23L18 24L19 24L19 22L20 22L20 21L21 21L21 22L22 22L22 20L20 20L20 21L18 21L18 20L19 20L19 18L16 18L16 17L17 17L17 16L18 16L18 15L16 15L16 14L17 14L17 13L18 13L18 14L19 14L19 16L21 16L21 15L22 15L22 14L19 14L19 13L18 13L18 12L16 12L16 14L15 14L15 13L12 13L12 12L13 12L13 11L12 11L12 9ZM18 9L18 10L14 10L14 12L15 12L15 11L19 11L19 10L20 10L20 9ZM35 9L35 10L36 10L36 11L37 11L37 10L36 10L36 9ZM25 10L25 11L26 11L26 10ZM27 10L27 11L28 11L28 10ZM20 11L20 13L22 13L22 12L24 12L24 15L26 15L26 14L29 14L29 13L28 13L28 12L24 12L24 11L22 11L22 12L21 12L21 11ZM33 12L33 13L34 13L34 12ZM36 13L36 14L37 14L37 13ZM12 14L12 15L11 15L11 16L15 16L15 17L13 17L13 18L12 18L12 19L13 19L13 18L15 18L15 19L16 19L16 18L15 18L15 17L16 17L16 16L15 16L15 14L14 14L14 15L13 15L13 14ZM6 15L6 16L7 16L7 15ZM0 16L0 17L1 17L1 16ZM25 16L25 17L24 17L24 18L25 18L25 17L26 17L26 19L27 19L27 20L28 20L28 21L29 21L29 20L28 20L28 18L27 18L27 16ZM36 16L36 17L38 17L38 16ZM40 16L40 18L39 18L39 19L40 19L40 18L41 18L41 16ZM20 17L20 18L21 18L21 19L23 19L23 21L24 21L24 19L23 19L23 18L22 18L22 17ZM30 18L30 19L31 19L31 20L30 20L30 21L31 21L31 22L32 22L32 21L34 21L34 20L32 20L32 19L31 19L31 18ZM17 19L17 20L18 20L18 19ZM31 20L31 21L32 21L32 20ZM40 20L40 21L41 21L41 20ZM10 21L10 22L11 22L11 21ZM17 21L17 22L18 22L18 21ZM26 21L26 23L25 23L25 24L24 24L24 25L23 25L23 26L20 26L20 27L23 27L23 26L24 26L24 28L25 28L25 29L23 29L23 28L22 28L22 30L23 30L23 31L24 31L24 30L25 30L25 29L26 29L26 28L27 28L27 27L29 27L29 26L32 26L32 25L30 25L30 24L27 24L27 25L26 25L26 23L30 23L30 22L27 22L27 21ZM6 23L6 24L7 24L7 23ZM35 24L35 25L34 25L34 26L33 26L33 27L32 27L32 28L33 28L33 29L32 29L32 30L33 30L33 29L34 29L34 28L33 28L33 27L34 27L34 26L35 26L35 25L36 25L36 26L37 26L37 27L35 27L35 28L38 28L38 26L39 26L39 25L36 25L36 24ZM27 25L27 26L29 26L29 25ZM12 27L12 28L13 28L13 27ZM14 27L14 28L16 28L16 27ZM25 27L25 28L26 28L26 27ZM10 28L10 29L11 29L11 28ZM6 29L6 30L5 30L5 31L6 31L6 32L8 32L8 33L9 33L9 30L7 30L7 29ZM6 30L6 31L7 31L7 30ZM14 32L14 33L15 33L15 34L14 34L14 35L13 35L13 34L12 34L12 35L11 35L11 36L12 36L12 35L13 35L13 36L14 36L14 35L15 35L15 34L16 34L16 32ZM17 32L17 33L18 33L18 32ZM27 33L27 34L28 34L28 35L27 35L27 36L26 36L26 37L27 37L27 38L30 38L30 37L31 37L31 38L32 38L32 39L33 39L33 38L36 38L36 37L32 37L32 36L29 36L29 37L27 37L27 36L28 36L28 35L29 35L29 33ZM30 33L30 35L31 35L31 34L32 34L32 33ZM33 33L33 36L36 36L36 33ZM38 33L38 34L37 34L37 36L39 36L39 35L38 35L38 34L39 34L39 33ZM34 34L34 35L35 35L35 34ZM37 38L37 39L38 39L38 38ZM0 0L0 7L7 7L7 0ZM1 1L1 6L6 6L6 1ZM2 2L2 5L5 5L5 2ZM34 0L34 7L41 7L41 0ZM35 1L35 6L40 6L40 1ZM36 2L36 5L39 5L39 2ZM0 34L0 41L7 41L7 34ZM1 35L1 40L6 40L6 35ZM2 36L2 39L5 39L5 36Z" fill="#000000"/></g></g></svg>
