<?xml version="1.0" encoding="UTF-8"?>
<svg xmlns="http://www.w3.org/2000/svg" version="1.1" width="200" height="200" viewBox="0 0 200 200"><rect x="0" y="0" width="200" height="200" fill="#ffffff"/><g transform="scale(6.897)"><g transform="translate(0,0)"><path fill-rule="evenodd" d="M9 0L9 1L8 1L8 7L9 7L9 6L10 6L10 10L11 10L11 11L13 11L13 9L14 9L14 10L15 10L15 12L12 12L12 13L14 13L14 14L15 14L15 13L16 13L16 10L15 10L15 9L14 9L14 8L15 8L15 6L16 6L16 7L17 7L17 11L18 11L18 15L12 15L12 14L11 14L11 13L9 13L9 12L10 12L10 11L9 11L9 10L8 10L8 11L7 11L7 10L6 10L6 11L7 11L7 12L5 12L5 10L4 10L4 9L3 9L3 8L2 8L2 9L1 9L1 12L0 12L0 13L1 13L1 14L0 14L0 15L1 15L1 17L2 17L2 18L0 18L0 19L2 19L2 18L3 18L3 17L7 17L7 16L8 16L8 15L7 15L7 14L6 14L6 15L4 15L4 16L3 16L3 15L1 15L1 14L2 14L2 13L1 13L1 12L3 12L3 13L4 13L4 14L5 14L5 13L7 13L7 12L8 12L8 14L9 14L9 15L10 15L10 16L9 16L9 17L8 17L8 18L6 18L6 19L8 19L8 18L9 18L9 17L10 17L10 19L11 19L11 20L10 20L10 22L9 22L9 20L6 20L6 21L8 21L8 24L9 24L9 25L10 25L10 22L12 22L12 23L11 23L11 24L13 24L13 23L14 23L14 27L13 27L13 26L12 26L12 27L13 27L13 28L14 28L14 27L15 27L15 28L16 28L16 29L17 29L17 28L18 28L18 29L19 29L19 28L18 28L18 27L19 27L19 26L20 26L20 27L21 27L21 29L22 29L22 28L24 28L24 29L25 29L25 28L24 28L24 26L23 26L23 27L22 27L22 26L21 26L21 25L25 25L25 23L26 23L26 21L27 21L27 20L26 20L26 19L25 19L25 18L28 18L28 19L29 19L29 18L28 18L28 17L29 17L29 16L27 16L27 17L25 17L25 16L22 16L22 15L25 15L25 14L26 14L26 13L29 13L29 12L27 12L27 11L29 11L29 9L28 9L28 8L23 8L23 10L22 10L22 11L21 11L21 9L22 9L22 8L21 8L21 0L19 0L19 1L20 1L20 2L19 2L19 3L20 3L20 5L19 5L19 4L18 4L18 5L16 5L16 4L15 4L15 3L18 3L18 2L16 2L16 1L15 1L15 0L13 0L13 1L11 1L11 0ZM17 0L17 1L18 1L18 0ZM9 1L9 2L10 2L10 3L11 3L11 5L12 5L12 6L11 6L11 7L12 7L12 8L11 8L11 10L12 10L12 9L13 9L13 7L14 7L14 6L15 6L15 4L14 4L14 3L15 3L15 1L13 1L13 4L12 4L12 3L11 3L11 1ZM9 4L9 5L10 5L10 4ZM13 5L13 6L12 6L12 7L13 7L13 6L14 6L14 5ZM17 6L17 7L18 7L18 11L20 11L20 8L19 8L19 7L20 7L20 6L19 6L19 7L18 7L18 6ZM5 8L5 9L9 9L9 8ZM2 9L2 11L4 11L4 10L3 10L3 9ZM25 9L25 10L24 10L24 11L27 11L27 10L28 10L28 9ZM4 12L4 13L5 13L5 12ZM19 12L19 14L22 14L22 12L21 12L21 13L20 13L20 12ZM23 12L23 14L25 14L25 13L24 13L24 12ZM27 14L27 15L29 15L29 14ZM6 15L6 16L7 16L7 15ZM18 15L18 17L17 17L17 19L16 19L16 16L14 16L14 18L13 18L13 17L12 17L12 16L10 16L10 17L12 17L12 18L11 18L11 19L12 19L12 20L11 20L11 21L13 21L13 22L15 22L15 25L16 25L16 26L15 26L15 27L16 27L16 28L17 28L17 27L18 27L18 26L19 26L19 25L18 25L18 24L20 24L20 23L16 23L16 22L20 22L20 21L18 21L18 20L17 20L17 19L18 19L18 17L19 17L19 18L20 18L20 19L19 19L19 20L22 20L22 19L21 19L21 15ZM2 16L2 17L3 17L3 16ZM19 16L19 17L20 17L20 16ZM22 17L22 18L25 18L25 17ZM4 18L4 20L0 20L0 21L5 21L5 18ZM12 18L12 19L13 19L13 18ZM14 18L14 20L15 20L15 21L16 21L16 20L15 20L15 18ZM23 19L23 20L25 20L25 19ZM21 21L21 24L24 24L24 21ZM22 22L22 23L23 23L23 22ZM28 22L28 23L29 23L29 22ZM16 24L16 25L17 25L17 24ZM26 24L26 25L28 25L28 24ZM8 26L8 27L9 27L9 26ZM16 26L16 27L17 27L17 26ZM26 26L26 28L27 28L27 29L29 29L29 26ZM10 27L10 28L9 28L9 29L10 29L10 28L11 28L11 27ZM27 27L27 28L28 28L28 27ZM0 0L0 7L7 7L7 0ZM1 1L1 6L6 6L6 1ZM2 2L2 5L5 5L5 2ZM22 0L22 7L29 7L29 0ZM23 1L23 6L28 6L28 1ZM24 2L24 5L27 5L27 2ZM0 22L0 29L7 29L7 22ZM1 23L1 28L6 28L6 23ZM2 24L2 27L5 27L5 24Z" fill="#000000"/></g></g></svg>
