<?xml version="1.0" encoding="UTF-8"?>
<svg xmlns="http://www.w3.org/2000/svg" version="1.1" width="200" height="200" viewBox="0 0 200 200"><rect x="0" y="0" width="200" height="200" fill="#ffffff"/><g transform="scale(4.878)"><g transform="translate(0,0)"><path fill-rule="evenodd" d="M8 0L8 1L9 1L9 3L8 3L8 4L9 4L9 5L10 5L10 7L9 7L9 6L8 6L8 7L9 7L9 8L8 8L8 9L10 9L10 10L12 10L12 7L13 7L13 6L14 6L14 7L15 7L15 8L13 8L13 11L17 11L17 13L16 13L16 12L13 12L13 15L11 15L11 16L10 16L10 17L9 17L9 15L10 15L10 14L11 14L11 13L12 13L12 12L11 12L11 11L8 11L8 12L11 12L11 13L10 13L10 14L6 14L6 13L7 13L7 12L5 12L5 15L4 15L4 14L3 14L3 12L4 12L4 10L5 10L5 11L7 11L7 10L5 10L5 9L7 9L7 8L4 8L4 10L2 10L2 11L1 11L1 10L0 10L0 11L1 11L1 12L0 12L0 13L1 13L1 14L0 14L0 15L1 15L1 19L0 19L0 20L2 20L2 21L0 21L0 27L1 27L1 25L2 25L2 24L3 24L3 25L5 25L5 24L6 24L6 25L7 25L7 24L6 24L6 23L8 23L8 22L9 22L9 23L12 23L12 24L11 24L11 25L10 25L10 27L9 27L9 26L6 26L6 27L5 27L5 28L6 28L6 29L4 29L4 30L3 30L3 29L2 29L2 28L3 28L3 27L4 27L4 26L3 26L3 27L2 27L2 28L1 28L1 30L0 30L0 31L1 31L1 32L0 32L0 33L1 33L1 32L2 32L2 33L4 33L4 30L6 30L6 31L7 31L7 30L6 30L6 29L8 29L8 28L9 28L9 30L10 30L10 31L9 31L9 32L8 32L8 34L9 34L9 33L10 33L10 32L11 32L11 31L12 31L12 32L13 32L13 33L12 33L12 34L10 34L10 35L8 35L8 37L9 37L9 38L8 38L8 39L12 39L12 38L13 38L13 40L14 40L14 41L18 41L18 39L19 39L19 40L20 40L20 39L19 39L19 38L18 38L18 39L17 39L17 40L16 40L16 39L14 39L14 37L11 37L11 38L10 38L10 37L9 37L9 36L10 36L10 35L11 35L11 36L15 36L15 38L17 38L17 36L18 36L18 37L19 37L19 36L22 36L22 38L21 38L21 37L20 37L20 38L21 38L21 40L22 40L22 38L23 38L23 36L24 36L24 34L25 34L25 35L26 35L26 36L25 36L25 37L24 37L24 38L27 38L27 37L28 37L28 35L27 35L27 34L26 34L26 32L27 32L27 33L28 33L28 32L29 32L29 34L30 34L30 35L29 35L29 36L30 36L30 39L29 39L29 41L33 41L33 39L34 39L34 37L35 37L35 39L36 39L36 40L38 40L38 41L41 41L41 40L40 40L40 39L41 39L41 37L38 37L38 35L39 35L39 36L40 36L40 35L41 35L41 32L40 32L40 31L41 31L41 28L40 28L40 27L41 27L41 25L40 25L40 24L41 24L41 22L37 22L37 21L38 21L38 19L39 19L39 18L38 18L38 15L39 15L39 14L38 14L38 13L40 13L40 15L41 15L41 12L40 12L40 11L41 11L41 8L40 8L40 11L39 11L39 12L38 12L38 13L37 13L37 14L38 14L38 15L37 15L37 18L38 18L38 19L36 19L36 22L37 22L37 23L36 23L36 24L34 24L34 26L32 26L32 27L33 27L33 31L34 31L34 28L36 28L36 27L39 27L39 28L38 28L38 29L39 29L39 30L35 30L35 32L32 32L32 31L31 31L31 32L30 32L30 31L29 31L29 30L30 30L30 28L31 28L31 27L28 27L28 29L27 29L27 27L24 27L24 25L21 25L21 24L20 24L20 21L21 21L21 20L23 20L23 22L21 22L21 23L23 23L23 24L24 24L24 23L26 23L26 22L27 22L27 21L28 21L28 23L29 23L29 24L28 24L28 26L29 26L29 25L30 25L30 26L31 26L31 24L33 24L33 23L35 23L35 20L34 20L34 22L33 22L33 20L32 20L32 19L34 19L34 18L36 18L36 13L35 13L35 12L36 12L36 11L38 11L38 8L37 8L37 10L35 10L35 9L34 9L34 8L33 8L33 6L32 6L32 5L33 5L33 2L32 2L32 1L33 1L33 0L31 0L31 2L32 2L32 3L31 3L31 5L30 5L30 7L29 7L29 6L28 6L28 5L29 5L29 4L30 4L30 3L28 3L28 4L27 4L27 2L30 2L30 1L29 1L29 0L27 0L27 1L26 1L26 0L19 0L19 3L20 3L20 4L19 4L19 5L20 5L20 4L21 4L21 3L23 3L23 4L22 4L22 8L17 8L17 6L18 6L18 7L19 7L19 6L18 6L18 4L17 4L17 3L15 3L15 2L14 2L14 4L13 4L13 6L12 6L12 7L11 7L11 5L10 5L10 4L9 4L9 3L10 3L10 2L11 2L11 0L10 0L10 1L9 1L9 0ZM13 0L13 1L15 1L15 0ZM25 1L25 2L24 2L24 3L25 3L25 2L26 2L26 1ZM12 2L12 3L13 3L13 2ZM14 4L14 5L15 5L15 7L16 7L16 6L17 6L17 4L16 4L16 5L15 5L15 4ZM24 4L24 5L23 5L23 8L22 8L22 10L21 10L21 11L22 11L22 13L21 13L21 12L20 12L20 10L18 10L18 9L17 9L17 8L16 8L16 9L14 9L14 10L18 10L18 11L19 11L19 12L18 12L18 13L20 13L20 14L24 14L24 16L23 16L23 17L21 17L21 16L20 16L20 15L19 15L19 14L17 14L17 16L16 16L16 15L15 15L15 16L14 16L14 15L13 15L13 18L10 18L10 20L9 20L9 17L8 17L8 16L7 16L7 15L5 15L5 16L4 16L4 15L2 15L2 16L3 16L3 17L2 17L2 18L3 18L3 20L4 20L4 22L3 22L3 21L2 21L2 22L1 22L1 24L2 24L2 23L4 23L4 24L5 24L5 22L7 22L7 21L10 21L10 22L16 22L16 23L13 23L13 24L12 24L12 25L14 25L14 24L15 24L15 26L16 26L16 25L17 25L17 26L18 26L18 27L20 27L20 26L21 26L21 25L18 25L18 23L17 23L17 22L16 22L16 21L14 21L14 19L15 19L15 18L16 18L16 20L17 20L17 21L18 21L18 22L19 22L19 21L20 21L20 19L19 19L19 17L20 17L20 18L23 18L23 19L24 19L24 20L27 20L27 19L28 19L28 20L29 20L29 21L30 21L30 22L31 22L31 23L33 23L33 22L32 22L32 20L31 20L31 19L32 19L32 18L33 18L33 17L34 17L34 16L35 16L35 15L34 15L34 14L35 14L35 13L34 13L34 12L35 12L35 11L34 11L34 10L32 10L32 6L31 6L31 7L30 7L30 8L31 8L31 13L29 13L29 12L27 12L27 11L28 11L28 10L29 10L29 11L30 11L30 10L29 10L29 8L26 8L26 6L25 6L25 4ZM20 6L20 7L21 7L21 6ZM24 6L24 8L25 8L25 6ZM27 6L27 7L28 7L28 6ZM10 7L10 9L11 9L11 7ZM2 8L2 9L3 9L3 8ZM23 9L23 10L24 10L24 13L25 13L25 12L26 12L26 13L27 13L27 14L25 14L25 15L27 15L27 16L25 16L25 17L24 17L24 19L27 19L27 16L28 16L28 17L30 17L30 16L31 16L31 17L32 17L32 16L33 16L33 12L32 12L32 13L31 13L31 14L30 14L30 15L29 15L29 16L28 16L28 15L27 15L27 14L28 14L28 13L27 13L27 12L26 12L26 11L25 11L25 9ZM26 9L26 10L27 10L27 9ZM2 11L2 12L1 12L1 13L2 13L2 12L3 12L3 11ZM15 13L15 14L16 14L16 13ZM31 15L31 16L32 16L32 15ZM6 16L6 17L5 17L5 18L4 18L4 17L3 17L3 18L4 18L4 20L5 20L5 19L7 19L7 20L6 20L6 21L7 21L7 20L8 20L8 17L7 17L7 16ZM11 16L11 17L12 17L12 16ZM17 16L17 20L18 20L18 17L19 17L19 16ZM39 16L39 17L40 17L40 19L41 19L41 17L40 17L40 16ZM6 17L6 18L7 18L7 17ZM14 17L14 18L15 18L15 17ZM25 17L25 18L26 18L26 17ZM28 18L28 19L30 19L30 18ZM11 19L11 20L12 20L12 19ZM39 20L39 21L40 21L40 20ZM24 21L24 22L23 22L23 23L24 23L24 22L25 22L25 21ZM16 23L16 24L17 24L17 23ZM38 23L38 25L37 25L37 24L36 24L36 26L38 26L38 25L39 25L39 27L40 27L40 25L39 25L39 24L40 24L40 23ZM8 24L8 25L9 25L9 24ZM11 26L11 28L10 28L10 29L11 29L11 30L12 30L12 27L13 27L13 30L14 30L14 31L13 31L13 32L14 32L14 31L15 31L15 32L16 32L16 33L17 33L17 34L15 34L15 33L13 33L13 34L12 34L12 35L17 35L17 34L18 34L18 31L19 31L19 30L20 30L20 31L22 31L22 35L23 35L23 33L25 33L25 32L26 32L26 31L27 31L27 32L28 32L28 31L27 31L27 30L26 30L26 31L25 31L25 32L24 32L24 31L23 31L23 30L25 30L25 28L22 28L22 27L21 27L21 30L20 30L20 28L18 28L18 31L17 31L17 32L16 32L16 31L15 31L15 30L14 30L14 29L15 29L15 28L17 28L17 27L15 27L15 28L14 28L14 26ZM34 26L34 27L35 27L35 26ZM6 27L6 28L8 28L8 27ZM31 29L31 30L32 30L32 29ZM1 30L1 31L2 31L2 32L3 32L3 31L2 31L2 30ZM39 30L39 31L36 31L36 32L37 32L37 33L38 33L38 34L37 34L37 35L38 35L38 34L39 34L39 35L40 35L40 34L39 34L39 33L40 33L40 32L39 32L39 31L40 31L40 30ZM6 32L6 33L7 33L7 32ZM20 32L20 33L19 33L19 35L21 35L21 32ZM31 32L31 34L32 34L32 32ZM33 33L33 36L36 36L36 33ZM34 34L34 35L35 35L35 34ZM26 36L26 37L27 37L27 36ZM31 36L31 39L30 39L30 40L31 40L31 39L32 39L32 38L33 38L33 37L32 37L32 36ZM36 37L36 38L37 38L37 39L38 39L38 40L39 40L39 39L40 39L40 38L39 38L39 39L38 39L38 38L37 38L37 37ZM23 39L23 40L24 40L24 39ZM26 39L26 40L25 40L25 41L27 41L27 40L28 40L28 39ZM9 40L9 41L10 41L10 40ZM34 40L34 41L35 41L35 40ZM0 0L0 7L7 7L7 0ZM1 1L1 6L6 6L6 1ZM2 2L2 5L5 5L5 2ZM34 0L34 7L41 7L41 0ZM35 1L35 6L40 6L40 1ZM36 2L36 5L39 5L39 2ZM0 34L0 41L7 41L7 34ZM1 35L1 40L6 40L6 35ZM2 36L2 39L5 39L5 36Z" fill="#000000"/></g></g></svg>
