<?xml version="1.0" encoding="UTF-8"?>
<svg xmlns="http://www.w3.org/2000/svg" version="1.1" width="200" height="200" viewBox="0 0 200 200"><rect x="0" y="0" width="200" height="200" fill="#ffffff"/><g transform="scale(4.878)"><g transform="translate(0,0)"><path fill-rule="evenodd" d="M8 0L8 3L9 3L9 1L11 1L11 0ZM12 0L12 1L13 1L13 4L12 4L12 3L10 3L10 4L11 4L11 5L12 5L12 7L11 7L11 6L10 6L10 5L8 5L8 9L7 9L7 8L6 8L6 9L7 9L7 10L6 10L6 11L3 11L3 10L4 10L4 9L5 9L5 8L2 8L2 10L1 10L1 9L0 9L0 10L1 10L1 11L0 11L0 12L1 12L1 11L2 11L2 13L1 13L1 15L0 15L0 17L1 17L1 16L2 16L2 14L3 14L3 16L4 16L4 14L5 14L5 17L4 17L4 19L5 19L5 18L6 18L6 19L8 19L8 20L4 20L4 24L3 24L3 21L2 21L2 20L3 20L3 19L2 19L2 20L1 20L1 21L2 21L2 22L0 22L0 25L1 25L1 23L2 23L2 25L5 25L5 24L6 24L6 25L7 25L7 26L5 26L5 27L4 27L4 26L3 26L3 27L2 27L2 28L0 28L0 33L1 33L1 29L3 29L3 30L2 30L2 33L5 33L5 31L7 31L7 30L8 30L8 29L11 29L11 30L12 30L12 28L13 28L13 30L14 30L14 31L13 31L13 33L11 33L11 34L9 34L9 33L10 33L10 30L9 30L9 31L8 31L8 32L6 32L6 33L8 33L8 34L9 34L9 35L10 35L10 37L11 37L11 35L12 35L12 37L13 37L13 39L14 39L14 36L15 36L15 35L13 35L13 34L14 34L14 31L15 31L15 32L16 32L16 33L19 33L19 34L18 34L18 35L17 35L17 34L16 34L16 36L17 36L17 38L18 38L18 41L20 41L20 39L21 39L21 40L22 40L22 41L25 41L25 40L24 40L24 37L25 37L25 36L26 36L26 35L27 35L27 37L29 37L29 36L31 36L31 35L32 35L32 37L30 37L30 39L32 39L32 40L28 40L28 38L25 38L25 39L26 39L26 41L27 41L27 40L28 40L28 41L32 41L32 40L33 40L33 41L34 41L34 40L33 40L33 39L35 39L35 40L36 40L36 39L37 39L37 40L40 40L40 38L41 38L41 37L40 37L40 36L41 36L41 35L40 35L40 34L41 34L41 33L40 33L40 32L41 32L41 31L40 31L40 30L41 30L41 29L39 29L39 30L38 30L38 31L37 31L37 29L36 29L36 28L38 28L38 26L39 26L39 28L40 28L40 26L41 26L41 23L39 23L39 24L40 24L40 26L39 26L39 25L36 25L36 24L37 24L37 21L38 21L38 22L39 22L39 20L36 20L36 19L35 19L35 17L36 17L36 18L37 18L37 17L39 17L39 18L38 18L38 19L39 19L39 18L41 18L41 16L40 16L40 17L39 17L39 16L37 16L37 15L39 15L39 14L41 14L41 13L40 13L40 12L41 12L41 11L40 11L40 10L41 10L41 8L38 8L38 9L40 9L40 10L37 10L37 9L36 9L36 8L33 8L33 9L32 9L32 8L31 8L31 9L30 9L30 8L29 8L29 6L28 6L28 5L29 5L29 4L28 4L28 5L27 5L27 4L26 4L26 8L25 8L25 10L26 10L26 9L28 9L28 10L27 10L27 12L25 12L25 11L24 11L24 10L23 10L23 9L21 9L21 8L24 8L24 7L25 7L25 5L24 5L24 7L23 7L23 5L22 5L22 7L21 7L21 4L23 4L23 3L21 3L21 0L19 0L19 2L20 2L20 3L19 3L19 5L18 5L18 7L17 7L17 6L16 6L16 7L17 7L17 8L18 8L18 9L21 9L21 11L20 11L20 10L18 10L18 11L17 11L17 12L18 12L18 13L17 13L17 14L16 14L16 15L18 15L18 16L16 16L16 17L18 17L18 18L19 18L19 20L17 20L17 18L15 18L15 19L14 19L14 18L13 18L13 17L12 17L12 14L13 14L13 11L14 11L14 14L15 14L15 13L16 13L16 12L15 12L15 11L16 11L16 10L17 10L17 9L16 9L16 8L15 8L15 5L17 5L17 4L18 4L18 3L16 3L16 2L17 2L17 0ZM26 0L26 1L27 1L27 2L26 2L26 3L31 3L31 2L30 2L30 0L29 0L29 1L27 1L27 0ZM31 0L31 1L32 1L32 4L30 4L30 5L32 5L32 7L33 7L33 5L32 5L32 4L33 4L33 1L32 1L32 0ZM15 1L15 2L16 2L16 1ZM23 1L23 2L24 2L24 1ZM14 3L14 4L15 4L15 3ZM20 3L20 4L21 4L21 3ZM19 5L19 7L20 7L20 8L21 8L21 7L20 7L20 5ZM9 6L9 7L10 7L10 6ZM13 6L13 7L12 7L12 8L10 8L10 9L8 9L8 13L9 13L9 11L13 11L13 10L16 10L16 9L12 9L12 8L14 8L14 6ZM27 6L27 8L28 8L28 9L29 9L29 8L28 8L28 6ZM30 6L30 7L31 7L31 6ZM10 9L10 10L11 10L11 9ZM33 9L33 11L32 11L32 10L31 10L31 11L32 11L32 12L31 12L31 14L30 14L30 13L29 13L29 12L30 12L30 10L29 10L29 11L28 11L28 13L29 13L29 14L27 14L27 15L26 15L26 14L25 14L25 12L22 12L22 13L21 13L21 12L20 12L20 14L19 14L19 13L18 13L18 14L19 14L19 18L20 18L20 20L22 20L22 19L23 19L23 21L19 21L19 24L18 24L18 21L16 21L16 19L15 19L15 20L14 20L14 19L12 19L12 17L10 17L10 18L9 18L9 16L10 16L10 14L9 14L9 16L8 16L8 18L9 18L9 19L10 19L10 20L9 20L9 21L12 21L12 20L13 20L13 23L16 23L16 24L18 24L18 25L13 25L13 24L12 24L12 23L10 23L10 22L8 22L8 24L9 24L9 25L8 25L8 26L9 26L9 25L10 25L10 27L8 27L8 28L10 28L10 27L11 27L11 28L12 28L12 27L13 27L13 28L15 28L15 27L14 27L14 26L16 26L16 27L17 27L17 28L18 28L18 27L17 27L17 26L19 26L19 29L20 29L20 30L19 30L19 31L18 31L18 32L20 32L20 33L21 33L21 34L20 34L20 35L18 35L18 36L19 36L19 38L20 38L20 37L21 37L21 38L22 38L22 40L23 40L23 37L24 37L24 36L25 36L25 34L26 34L26 32L27 32L27 31L26 31L26 29L27 29L27 28L25 28L25 27L27 27L27 26L28 26L28 27L29 27L29 28L31 28L31 29L28 29L28 30L32 30L32 31L33 31L33 32L35 32L35 31L36 31L36 29L35 29L35 28L36 28L36 27L37 27L37 26L36 26L36 25L35 25L35 24L36 24L36 23L35 23L35 22L36 22L36 21L35 21L35 19L34 19L34 18L31 18L31 17L33 17L33 16L34 16L34 17L35 17L35 15L37 15L37 14L39 14L39 11L38 11L38 12L37 12L37 11L35 11L35 13L34 13L34 12L33 12L33 11L34 11L34 9ZM35 9L35 10L36 10L36 9ZM6 11L6 12L4 12L4 13L5 13L5 14L7 14L7 13L6 13L6 12L7 12L7 11ZM32 12L32 13L33 13L33 14L32 14L32 15L34 15L34 13L33 13L33 12ZM11 13L11 14L12 14L12 13ZM23 13L23 14L24 14L24 13ZM36 13L36 14L37 14L37 13ZM6 15L6 16L7 16L7 15ZM14 15L14 17L15 17L15 15ZM21 15L21 16L20 16L20 17L22 17L22 18L21 18L21 19L22 19L22 18L24 18L24 15ZM25 15L25 17L26 17L26 19L27 19L27 20L24 20L24 21L26 21L26 24L28 24L28 25L29 25L29 26L32 26L32 25L34 25L34 26L33 26L33 27L34 27L34 26L35 26L35 27L36 27L36 26L35 26L35 25L34 25L34 24L35 24L35 23L34 23L34 22L35 22L35 21L34 21L34 20L32 20L32 21L31 21L31 20L30 20L30 21L31 21L31 22L29 22L29 21L28 21L28 19L29 19L29 18L27 18L27 16L26 16L26 15ZM28 15L28 16L29 16L29 17L31 17L31 15L30 15L30 16L29 16L29 15ZM36 16L36 17L37 17L37 16ZM6 17L6 18L7 18L7 17ZM0 18L0 19L1 19L1 18ZM10 18L10 19L11 19L11 20L12 20L12 19L11 19L11 18ZM30 18L30 19L31 19L31 18ZM40 20L40 21L41 21L41 20ZM5 21L5 22L7 22L7 21ZM14 21L14 22L16 22L16 23L17 23L17 22L16 22L16 21ZM27 21L27 22L28 22L28 24L30 24L30 25L32 25L32 22L34 22L34 21L32 21L32 22L31 22L31 23L29 23L29 22L28 22L28 21ZM6 23L6 24L7 24L7 23ZM9 23L9 24L10 24L10 25L11 25L11 26L13 26L13 25L11 25L11 24L10 24L10 23ZM23 23L23 24L22 24L22 25L21 25L21 24L20 24L20 25L19 25L19 26L20 26L20 29L21 29L21 31L20 31L20 32L21 32L21 31L22 31L22 33L25 33L25 31L24 31L24 30L22 30L22 27L23 27L23 28L24 28L24 27L25 27L25 26L24 26L24 27L23 27L23 24L24 24L24 25L25 25L25 24L24 24L24 23ZM33 23L33 24L34 24L34 23ZM26 25L26 26L27 26L27 25ZM21 26L21 27L22 27L22 26ZM5 27L5 28L3 28L3 29L6 29L6 30L7 30L7 29L6 29L6 28L7 28L7 27ZM31 27L31 28L32 28L32 27ZM33 28L33 29L32 29L32 30L33 30L33 29L34 29L34 28ZM16 29L16 32L17 32L17 29ZM4 30L4 31L5 31L5 30ZM34 30L34 31L35 31L35 30ZM28 31L28 33L27 33L27 34L28 34L28 35L29 35L29 34L28 34L28 33L29 33L29 32L30 32L30 31ZM38 31L38 32L37 32L37 33L38 33L38 34L37 34L37 36L39 36L39 33L38 33L38 32L39 32L39 31ZM30 33L30 35L31 35L31 33ZM33 33L33 36L36 36L36 33ZM22 34L22 35L21 35L21 36L24 36L24 35L23 35L23 34ZM34 34L34 35L35 35L35 34ZM8 36L8 39L10 39L10 41L12 41L12 39L10 39L10 38L9 38L9 36ZM33 37L33 38L32 38L32 39L33 39L33 38L36 38L36 37ZM37 38L37 39L38 39L38 38ZM15 39L15 40L14 40L14 41L16 41L16 40L17 40L17 39ZM0 0L0 7L7 7L7 0ZM1 1L1 6L6 6L6 1ZM2 2L2 5L5 5L5 2ZM34 0L34 7L41 7L41 0ZM35 1L35 6L40 6L40 1ZM36 2L36 5L39 5L39 2ZM0 34L0 41L7 41L7 34ZM1 35L1 40L6 40L6 35ZM2 36L2 39L5 39L5 36Z" fill="#000000"/></g></g></svg>
