<?xml version="1.0" encoding="UTF-8"?>
<svg xmlns="http://www.w3.org/2000/svg" version="1.1" width="200" height="200" viewBox="0 0 200 200"><rect x="0" y="0" width="200" height="200" fill="#ffffff"/><g transform="scale(4.878)"><g transform="translate(0,0)"><path fill-rule="evenodd" d="M8 0L8 3L9 3L9 1L10 1L10 2L11 2L11 3L10 3L10 4L9 4L9 5L8 5L8 10L6 10L6 9L7 9L7 8L6 8L6 9L5 9L5 8L2 8L2 9L0 9L0 11L1 11L1 12L0 12L0 13L3 13L3 15L2 15L2 16L0 16L0 18L1 18L1 19L0 19L0 20L1 20L1 21L0 21L0 22L1 22L1 23L0 23L0 24L1 24L1 25L2 25L2 24L4 24L4 25L5 25L5 26L4 26L4 27L8 27L8 28L5 28L5 29L4 29L4 30L3 30L3 27L2 27L2 26L1 26L1 28L2 28L2 29L0 29L0 33L1 33L1 30L3 30L3 33L7 33L7 32L8 32L8 31L10 31L10 30L11 30L11 31L13 31L13 30L12 30L12 28L14 28L14 27L15 27L15 29L14 29L14 31L15 31L15 29L16 29L16 30L18 30L18 31L17 31L17 32L18 32L18 34L17 34L17 33L16 33L16 34L15 34L15 33L14 33L14 32L13 32L13 34L12 34L12 33L11 33L11 32L10 32L10 35L11 35L11 34L12 34L12 35L13 35L13 37L12 37L12 40L14 40L14 41L16 41L16 39L14 39L14 35L13 35L13 34L15 34L15 38L17 38L17 41L18 41L18 40L19 40L19 39L20 39L20 37L21 37L21 39L22 39L22 38L23 38L23 37L24 37L24 36L25 36L25 35L26 35L26 37L25 37L25 38L26 38L26 37L29 37L29 36L27 36L27 35L29 35L29 33L31 33L31 34L30 34L30 35L32 35L32 37L31 37L31 36L30 36L30 37L31 37L31 38L30 38L30 39L31 39L31 40L28 40L28 39L29 39L29 38L27 38L27 40L28 40L28 41L31 41L31 40L33 40L33 41L34 41L34 40L33 40L33 39L35 39L35 40L36 40L36 39L39 39L39 40L40 40L40 38L41 38L41 37L39 37L39 36L41 36L41 35L40 35L40 34L41 34L41 33L40 33L40 32L41 32L41 31L40 31L40 30L41 30L41 29L40 29L40 28L41 28L41 27L40 27L40 26L41 26L41 23L40 23L40 26L39 26L39 24L37 24L37 25L34 25L34 24L36 24L36 23L34 23L34 22L36 22L36 21L37 21L37 20L38 20L38 21L39 21L39 20L38 20L38 18L37 18L37 17L39 17L39 16L37 16L37 15L38 15L38 14L37 14L37 13L36 13L36 14L35 14L35 15L36 15L36 16L35 16L35 17L34 17L34 16L33 16L33 15L34 15L34 14L33 14L33 13L34 13L34 12L33 12L33 11L34 11L34 10L35 10L35 11L36 11L36 12L38 12L38 11L39 11L39 12L40 12L40 10L41 10L41 8L38 8L38 9L40 9L40 10L37 10L37 9L36 9L36 8L33 8L33 6L32 6L32 9L31 9L31 8L29 8L29 5L26 5L26 4L27 4L27 3L28 3L28 4L29 4L29 1L27 1L27 0L25 0L25 3L26 3L26 4L25 4L25 5L26 5L26 9L31 9L31 10L32 10L32 11L30 11L30 12L29 12L29 11L28 11L28 10L27 10L27 11L26 11L26 10L25 10L25 6L24 6L24 5L23 5L23 4L24 4L24 0L20 0L20 1L19 1L19 0L18 0L18 1L16 1L16 0L13 0L13 1L10 1L10 0ZM30 0L30 2L31 2L31 1L33 1L33 0ZM14 1L14 5L11 5L11 7L10 7L10 6L9 6L9 11L11 11L11 9L13 9L13 10L12 10L12 12L11 12L11 13L10 13L10 12L7 12L7 11L5 11L5 9L4 9L4 12L5 12L5 13L4 13L4 15L5 15L5 14L7 14L7 15L6 15L6 16L2 16L2 17L1 17L1 18L2 18L2 17L4 17L4 18L3 18L3 19L2 19L2 20L3 20L3 22L4 22L4 21L5 21L5 19L6 19L6 20L8 20L8 21L6 21L6 22L5 22L5 23L4 23L4 24L7 24L7 25L6 25L6 26L8 26L8 27L9 27L9 26L8 26L8 24L9 24L9 23L8 23L8 21L9 21L9 22L11 22L11 23L10 23L10 24L11 24L11 25L12 25L12 24L11 24L11 23L13 23L13 27L14 27L14 26L17 26L17 25L18 25L18 27L16 27L16 28L19 28L19 29L18 29L18 30L20 30L20 27L19 27L19 26L21 26L21 28L22 28L22 29L21 29L21 33L19 33L19 34L18 34L18 35L17 35L17 36L16 36L16 37L17 37L17 38L18 38L18 39L19 39L19 38L18 38L18 37L20 37L20 35L19 35L19 34L21 34L21 35L23 35L23 36L24 36L24 34L23 34L23 33L22 33L22 32L24 32L24 33L25 33L25 31L26 31L26 30L25 30L25 31L24 31L24 29L27 29L27 26L28 26L28 25L29 25L29 24L30 24L30 23L32 23L32 22L34 22L34 21L36 21L36 20L37 20L37 18L36 18L36 17L37 17L37 16L36 16L36 17L35 17L35 19L34 19L34 18L33 18L33 17L32 17L32 18L30 18L30 19L31 19L31 20L29 20L29 16L30 16L30 17L31 17L31 16L30 16L30 15L31 15L31 14L32 14L32 15L33 15L33 14L32 14L32 13L33 13L33 12L31 12L31 14L30 14L30 13L28 13L28 14L30 14L30 15L28 15L28 17L27 17L27 15L25 15L25 16L26 16L26 17L25 17L25 21L26 21L26 22L24 22L24 19L23 19L23 18L24 18L24 17L22 17L22 15L24 15L24 14L27 14L27 12L28 12L28 11L27 11L27 12L26 12L26 11L25 11L25 10L24 10L24 9L23 9L23 8L22 8L22 5L21 5L21 8L17 8L17 9L19 9L19 10L21 10L21 9L22 9L22 10L24 10L24 11L25 11L25 13L24 13L24 14L22 14L22 13L23 13L23 11L22 11L22 12L21 12L21 11L19 11L19 12L17 12L17 11L18 11L18 10L17 10L17 11L16 11L16 10L15 10L15 8L13 8L13 7L14 7L14 5L15 5L15 7L16 7L16 6L17 6L17 7L18 7L18 6L17 6L17 3L19 3L19 4L18 4L18 5L19 5L19 7L20 7L20 5L19 5L19 4L21 4L21 2L23 2L23 1L20 1L20 2L16 2L16 1ZM12 2L12 3L11 3L11 4L12 4L12 3L13 3L13 2ZM15 2L15 5L16 5L16 2ZM26 2L26 3L27 3L27 2ZM22 3L22 4L23 4L23 3ZM30 3L30 4L31 4L31 5L32 5L32 4L33 4L33 3ZM12 6L12 7L11 7L11 8L10 8L10 9L11 9L11 8L12 8L12 7L13 7L13 6ZM23 6L23 7L24 7L24 6ZM27 6L27 7L28 7L28 6ZM30 6L30 7L31 7L31 6ZM32 9L32 10L34 10L34 9ZM35 9L35 10L36 10L36 11L37 11L37 10L36 10L36 9ZM1 10L1 11L3 11L3 10ZM13 10L13 12L12 12L12 15L11 15L11 14L9 14L9 13L8 13L8 14L9 14L9 15L10 15L10 16L9 16L9 17L8 17L8 18L6 18L6 19L8 19L8 20L10 20L10 21L12 21L12 22L13 22L13 23L16 23L16 22L13 22L13 21L14 21L14 19L15 19L15 21L16 21L16 19L15 19L15 18L16 18L16 17L18 17L18 18L17 18L17 19L18 19L18 20L17 20L17 21L19 21L19 22L17 22L17 24L19 24L19 25L21 25L21 24L23 24L23 23L24 23L24 22L22 22L22 17L21 17L21 15L20 15L20 14L19 14L19 13L20 13L20 12L19 12L19 13L18 13L18 15L17 15L17 14L15 14L15 12L14 12L14 10ZM6 12L6 13L7 13L7 12ZM16 12L16 13L17 13L17 12ZM40 13L40 14L39 14L39 15L40 15L40 14L41 14L41 13ZM7 15L7 16L6 16L6 17L7 17L7 16L8 16L8 15ZM13 15L13 16L12 16L12 18L11 18L11 19L12 19L12 21L13 21L13 19L14 19L14 17L16 17L16 16L17 16L17 15L16 15L16 16L15 16L15 15ZM10 16L10 17L11 17L11 16ZM13 16L13 17L14 17L14 16ZM18 16L18 17L20 17L20 18L18 18L18 19L19 19L19 20L20 20L20 22L19 22L19 24L21 24L21 23L22 23L22 22L21 22L21 20L20 20L20 18L21 18L21 17L20 17L20 16ZM40 16L40 18L39 18L39 19L40 19L40 18L41 18L41 16ZM4 18L4 19L3 19L3 20L4 20L4 19L5 19L5 18ZM8 18L8 19L10 19L10 18ZM27 18L27 19L28 19L28 18ZM32 18L32 19L33 19L33 18ZM35 19L35 20L36 20L36 19ZM27 20L27 21L28 21L28 22L27 22L27 25L28 25L28 24L29 24L29 23L30 23L30 22L32 22L32 21L34 21L34 20L31 20L31 21L30 21L30 22L29 22L29 21L28 21L28 20ZM40 20L40 21L41 21L41 20ZM6 22L6 23L7 23L7 24L8 24L8 23L7 23L7 22ZM37 22L37 23L39 23L39 22ZM1 23L1 24L2 24L2 23ZM25 23L25 24L24 24L24 26L23 26L23 27L22 27L22 28L23 28L23 29L22 29L22 31L23 31L23 29L24 29L24 28L23 28L23 27L25 27L25 28L26 28L26 27L25 27L25 26L26 26L26 25L25 25L25 24L26 24L26 23ZM14 24L14 25L16 25L16 24ZM31 24L31 25L30 25L30 26L29 26L29 27L28 27L28 29L29 29L29 30L27 30L27 33L26 33L26 34L28 34L28 33L29 33L29 32L31 32L31 33L32 33L32 32L36 32L36 31L37 31L37 30L39 30L39 26L38 26L38 28L36 28L36 27L37 27L37 26L36 26L36 27L35 27L35 28L36 28L36 29L34 29L34 28L33 28L33 27L34 27L34 25L32 25L32 24ZM31 25L31 26L32 26L32 27L33 27L33 26L32 26L32 25ZM11 26L11 27L12 27L12 26ZM9 28L9 29L11 29L11 28ZM29 28L29 29L31 29L31 28ZM32 28L32 29L33 29L33 30L32 30L32 31L33 31L33 30L34 30L34 31L35 31L35 30L34 30L34 29L33 29L33 28ZM6 29L6 30L4 30L4 32L7 32L7 31L8 31L8 30L7 30L7 29ZM36 29L36 30L37 30L37 29ZM6 30L6 31L7 31L7 30ZM30 30L30 31L31 31L31 30ZM28 31L28 32L29 32L29 31ZM38 31L38 32L37 32L37 33L38 33L38 34L37 34L37 35L38 35L38 36L37 36L37 37L38 37L38 38L39 38L39 37L38 37L38 36L39 36L39 35L38 35L38 34L39 34L39 33L38 33L38 32L39 32L39 31ZM8 33L8 34L9 34L9 33ZM33 33L33 36L36 36L36 33ZM34 34L34 35L35 35L35 34ZM8 36L8 39L9 39L9 37L10 37L10 38L11 38L11 36ZM17 36L17 37L18 37L18 36ZM32 37L32 39L33 39L33 38L36 38L36 37ZM23 39L23 40L22 40L22 41L24 41L24 39ZM10 40L10 41L11 41L11 40ZM0 0L0 7L7 7L7 0ZM1 1L1 6L6 6L6 1ZM2 2L2 5L5 5L5 2ZM34 0L34 7L41 7L41 0ZM35 1L35 6L40 6L40 1ZM36 2L36 5L39 5L39 2ZM0 34L0 41L7 41L7 34ZM1 35L1 40L6 40L6 35ZM2 36L2 39L5 39L5 36Z" fill="#000000"/></g></g></svg>
