<?xml version="1.0" encoding="UTF-8"?>
<svg xmlns="http://www.w3.org/2000/svg" version="1.1" width="200" height="200" viewBox="0 0 200 200"><rect x="0" y="0" width="200" height="200" fill="#ffffff"/><g transform="scale(4.878)"><g transform="translate(0,0)"><path fill-rule="evenodd" d="M8 0L8 3L9 3L9 2L10 2L10 0ZM12 0L12 1L11 1L11 2L13 2L13 3L12 3L12 4L11 4L11 5L10 5L10 4L9 4L9 5L8 5L8 9L7 9L7 8L6 8L6 9L7 9L7 10L6 10L6 11L5 11L5 8L2 8L2 9L3 9L3 10L2 10L2 11L0 11L0 12L2 12L2 13L3 13L3 10L4 10L4 12L5 12L5 13L4 13L4 14L2 14L2 15L1 15L1 17L0 17L0 18L1 18L1 17L2 17L2 18L3 18L3 17L4 17L4 18L5 18L5 19L4 19L4 20L3 20L3 21L0 21L0 22L3 22L3 23L2 23L2 24L3 24L3 23L4 23L4 22L5 22L5 24L6 24L6 25L5 25L5 26L6 26L6 27L5 27L5 29L4 29L4 28L3 28L3 26L2 26L2 27L1 27L1 26L0 26L0 27L1 27L1 28L3 28L3 30L2 30L2 31L3 31L3 33L8 33L8 34L9 34L9 36L8 36L8 39L9 39L9 41L14 41L14 39L15 39L15 38L16 38L16 41L18 41L18 40L17 40L17 37L19 37L19 39L21 39L21 38L20 38L20 37L22 37L22 39L23 39L23 38L24 38L24 41L25 41L25 39L26 39L26 40L27 40L27 41L31 41L31 40L33 40L33 41L34 41L34 40L33 40L33 39L31 39L31 38L34 38L34 39L35 39L35 40L36 40L36 39L37 39L37 40L40 40L40 38L41 38L41 36L38 36L38 35L40 35L40 34L41 34L41 33L39 33L39 32L37 32L37 31L36 31L36 30L37 30L37 29L35 29L35 30L34 30L34 31L36 31L36 32L33 32L33 31L32 31L32 30L33 30L33 29L34 29L34 28L33 28L33 29L32 29L32 30L31 30L31 29L30 29L30 28L28 28L28 27L29 27L29 26L30 26L30 25L31 25L31 26L32 26L32 25L33 25L33 27L34 27L34 26L35 26L35 27L36 27L36 28L38 28L38 26L39 26L39 30L38 30L38 31L40 31L40 30L41 30L41 29L40 29L40 28L41 28L41 27L40 27L40 26L41 26L41 23L39 23L39 24L40 24L40 26L39 26L39 25L36 25L36 24L37 24L37 22L38 22L38 21L39 21L39 20L36 20L36 19L35 19L35 17L36 17L36 18L37 18L37 17L36 17L36 16L38 16L38 17L39 17L39 18L41 18L41 16L40 16L40 17L39 17L39 16L38 16L38 14L37 14L37 13L36 13L36 14L35 14L35 15L36 15L36 16L35 16L35 17L34 17L34 16L32 16L32 17L30 17L30 16L31 16L31 15L30 15L30 16L29 16L29 15L28 15L28 16L29 16L29 17L30 17L30 19L31 19L31 18L32 18L32 20L33 20L33 21L31 21L31 20L30 20L30 21L31 21L31 22L32 22L32 23L31 23L31 24L26 24L26 23L25 23L25 22L27 22L27 23L30 23L30 22L29 22L29 21L28 21L28 20L26 20L26 21L25 21L25 19L28 19L28 18L25 18L25 19L24 19L24 20L22 20L22 19L23 19L23 17L24 17L24 16L25 16L25 14L29 14L29 13L30 13L30 14L31 14L31 13L33 13L33 14L32 14L32 15L34 15L34 13L35 13L35 10L36 10L36 12L38 12L38 11L39 11L39 12L40 12L40 10L41 10L41 8L38 8L38 9L40 9L40 10L37 10L37 9L36 9L36 8L32 8L32 9L31 9L31 8L29 8L29 6L28 6L28 5L27 5L27 4L25 4L25 5L22 5L22 4L24 4L24 2L21 2L21 1L19 1L19 0L18 0L18 2L17 2L17 1L15 1L15 0L14 0L14 1L13 1L13 0ZM23 0L23 1L25 1L25 0ZM26 0L26 1L27 1L27 2L26 2L26 3L28 3L28 4L29 4L29 5L30 5L30 7L31 7L31 5L32 5L32 7L33 7L33 5L32 5L32 4L33 4L33 3L32 3L32 2L33 2L33 0L29 0L29 1L27 1L27 0ZM30 1L30 2L32 2L32 1ZM14 2L14 3L13 3L13 4L14 4L14 5L15 5L15 8L16 8L16 10L15 10L15 9L13 9L13 8L14 8L14 6L13 6L13 7L12 7L12 6L11 6L11 9L10 9L10 10L12 10L12 9L13 9L13 10L14 10L14 12L15 12L15 13L16 13L16 14L13 14L13 15L12 15L12 13L13 13L13 11L12 11L12 13L11 13L11 16L10 16L10 15L8 15L8 14L10 14L10 12L11 12L11 11L10 11L10 12L9 12L9 13L8 13L8 12L7 12L7 11L9 11L9 9L8 9L8 10L7 10L7 11L6 11L6 12L7 12L7 13L6 13L6 14L7 14L7 15L6 15L6 16L7 16L7 17L6 17L6 18L7 18L7 17L8 17L8 18L10 18L10 19L6 19L6 20L4 20L4 21L5 21L5 22L7 22L7 23L6 23L6 24L7 24L7 25L6 25L6 26L7 26L7 25L8 25L8 27L6 27L6 28L7 28L7 29L5 29L5 30L7 30L7 31L6 31L6 32L9 32L9 34L11 34L11 33L12 33L12 34L13 34L13 35L15 35L15 36L11 36L11 35L10 35L10 36L9 36L9 39L11 39L11 38L12 38L12 40L13 40L13 39L14 39L14 38L15 38L15 36L21 36L21 35L22 35L22 34L21 34L21 35L19 35L19 34L18 34L18 33L17 33L17 34L16 34L16 35L15 35L15 34L14 34L14 33L12 33L12 32L13 32L13 30L16 30L16 31L14 31L14 32L15 32L15 33L16 33L16 31L18 31L18 29L19 29L19 27L17 27L17 23L13 23L13 24L12 24L12 22L16 22L16 21L12 21L12 19L13 19L13 20L17 20L17 21L19 21L19 22L18 22L18 24L19 24L19 22L20 22L20 23L21 23L21 24L20 24L20 25L18 25L18 26L20 26L20 25L22 25L22 26L23 26L23 25L25 25L25 27L27 27L27 26L29 26L29 25L27 25L27 26L26 26L26 25L25 25L25 23L24 23L24 24L23 24L23 23L21 23L21 22L20 22L20 21L19 21L19 20L20 20L20 17L21 17L21 19L22 19L22 17L23 17L23 16L24 16L24 15L21 15L21 16L20 16L20 17L19 17L19 15L18 15L18 14L17 14L17 13L18 13L18 12L19 12L19 14L20 14L20 12L21 12L21 13L22 13L22 14L23 14L23 13L24 13L24 14L25 14L25 13L24 13L24 12L26 12L26 13L27 13L27 10L28 10L28 11L29 11L29 12L28 12L28 13L29 13L29 12L30 12L30 10L31 10L31 12L33 12L33 13L34 13L34 12L33 12L33 11L34 11L34 10L33 10L33 9L32 9L32 10L31 10L31 9L30 9L30 10L29 10L29 9L27 9L27 8L28 8L28 6L27 6L27 7L26 7L26 5L25 5L25 7L26 7L26 8L25 8L25 9L24 9L24 6L23 6L23 7L22 7L22 5L21 5L21 4L22 4L22 3L20 3L20 5L18 5L18 4L19 4L19 2L18 2L18 4L17 4L17 3L16 3L16 2ZM14 3L14 4L15 4L15 3ZM29 3L29 4L32 4L32 3ZM16 4L16 8L18 8L18 9L19 9L19 10L16 10L16 11L17 11L17 12L18 12L18 11L19 11L19 12L20 12L20 11L21 11L21 10L20 10L20 9L21 9L21 5L20 5L20 7L19 7L19 6L18 6L18 5L17 5L17 4ZM9 6L9 8L10 8L10 6ZM17 6L17 7L18 7L18 6ZM22 8L22 13L23 13L23 10L24 10L24 11L25 11L25 10L26 10L26 9L25 9L25 10L24 10L24 9L23 9L23 8ZM0 9L0 10L1 10L1 9ZM19 10L19 11L20 11L20 10ZM0 13L0 14L1 14L1 13ZM7 13L7 14L8 14L8 13ZM40 13L40 14L39 14L39 15L40 15L40 14L41 14L41 13ZM4 14L4 15L5 15L5 14ZM16 14L16 15L15 15L15 17L14 17L14 15L13 15L13 16L11 16L11 17L10 17L10 16L8 16L8 17L10 17L10 18L11 18L11 17L12 17L12 18L13 18L13 17L14 17L14 19L15 19L15 17L16 17L16 16L18 16L18 15L17 15L17 14ZM36 14L36 15L37 15L37 14ZM26 15L26 16L27 16L27 15ZM2 16L2 17L3 17L3 16ZM18 17L18 19L17 19L17 20L18 20L18 19L19 19L19 17ZM32 17L32 18L33 18L33 20L34 20L34 21L33 21L33 23L32 23L32 24L31 24L31 25L32 25L32 24L33 24L33 25L35 25L35 26L36 26L36 25L35 25L35 24L36 24L36 23L35 23L35 22L36 22L36 21L35 21L35 19L34 19L34 18L33 18L33 17ZM6 20L6 21L7 21L7 22L8 22L8 23L7 23L7 24L9 24L9 25L10 25L10 28L9 28L9 27L8 27L8 29L9 29L9 31L12 31L12 30L13 30L13 29L15 29L15 28L16 28L16 30L17 30L17 29L18 29L18 28L16 28L16 27L15 27L15 25L16 25L16 24L15 24L15 25L14 25L14 24L13 24L13 25L14 25L14 26L11 26L11 25L12 25L12 24L10 24L10 23L11 23L11 22L10 22L10 20L9 20L9 21L8 21L8 20ZM21 20L21 21L22 21L22 20ZM40 20L40 21L41 21L41 20ZM24 21L24 22L25 22L25 21ZM27 21L27 22L28 22L28 21ZM34 21L34 22L35 22L35 21ZM33 23L33 24L34 24L34 23ZM11 27L11 28L10 28L10 30L11 30L11 28L12 28L12 27ZM13 27L13 28L15 28L15 27ZM21 27L21 28L22 28L22 29L21 29L21 31L22 31L22 32L26 32L26 33L27 33L27 34L25 34L25 35L24 35L24 34L23 34L23 35L24 35L24 36L26 36L26 37L24 37L24 38L26 38L26 37L27 37L27 38L28 38L28 39L27 39L27 40L30 40L30 38L28 38L28 37L32 37L32 36L28 36L28 37L27 37L27 34L28 34L28 35L29 35L29 33L27 33L27 32L26 32L26 30L27 30L27 29L28 29L28 30L30 30L30 29L28 29L28 28L27 28L27 29L26 29L26 28L25 28L25 30L24 30L24 27L23 27L23 28L22 28L22 27ZM31 27L31 28L32 28L32 27ZM0 29L0 33L1 33L1 29ZM22 30L22 31L24 31L24 30ZM4 31L4 32L5 32L5 31ZM19 31L19 33L21 33L21 32L20 32L20 31ZM28 31L28 32L30 32L30 31ZM10 32L10 33L11 33L11 32ZM30 33L30 35L31 35L31 34L32 34L32 33ZM33 33L33 36L36 36L36 33ZM37 33L37 34L39 34L39 33ZM34 34L34 35L35 35L35 34ZM10 36L10 37L11 37L11 36ZM37 36L37 37L38 37L38 36ZM12 37L12 38L14 38L14 37ZM34 37L34 38L36 38L36 37ZM37 38L37 39L38 39L38 38ZM21 40L21 41L22 41L22 40ZM0 0L0 7L7 7L7 0ZM1 1L1 6L6 6L6 1ZM2 2L2 5L5 5L5 2ZM34 0L34 7L41 7L41 0ZM35 1L35 6L40 6L40 1ZM36 2L36 5L39 5L39 2ZM0 34L0 41L7 41L7 34ZM1 35L1 40L6 40L6 35ZM2 36L2 39L5 39L5 36Z" fill="#000000"/></g></g></svg>
