<?xml version="1.0" encoding="UTF-8"?>
<svg xmlns="http://www.w3.org/2000/svg" version="1.1" width="200" height="200" viewBox="0 0 200 200"><rect x="0" y="0" width="200" height="200" fill="#ffffff"/><g transform="scale(4.878)"><g transform="translate(0,0)"><path fill-rule="evenodd" d="M8 0L8 3L9 3L9 4L10 4L10 3L11 3L11 4L12 4L12 3L11 3L11 2L10 2L10 1L11 1L11 0ZM12 0L12 2L13 2L13 0ZM17 0L17 1L14 1L14 2L15 2L15 4L16 4L16 5L13 5L13 6L12 6L12 8L11 8L11 14L10 14L10 17L11 17L11 18L10 18L10 20L11 20L11 21L12 21L12 22L11 22L11 24L10 24L10 23L9 23L9 22L10 22L10 21L7 21L7 20L8 20L8 19L9 19L9 18L5 18L5 16L4 16L4 17L3 17L3 16L2 16L2 15L3 15L3 13L1 13L1 14L2 14L2 15L1 15L1 16L2 16L2 19L3 19L3 18L4 18L4 20L6 20L6 21L4 21L4 22L3 22L3 20L2 20L2 21L1 21L1 22L0 22L0 33L1 33L1 29L3 29L3 28L4 28L4 27L7 27L7 28L6 28L6 29L7 29L7 30L6 30L6 31L5 31L5 30L4 30L4 31L3 31L3 30L2 30L2 33L3 33L3 32L4 32L4 33L7 33L7 32L6 32L6 31L7 31L7 30L8 30L8 29L7 29L7 28L9 28L9 26L4 26L4 27L3 27L3 25L5 25L5 24L3 24L3 25L2 25L2 27L1 27L1 23L2 23L2 22L3 22L3 23L7 23L7 22L8 22L8 23L9 23L9 24L6 24L6 25L10 25L10 26L11 26L11 28L10 28L10 29L11 29L11 28L13 28L13 27L12 27L12 26L13 26L13 24L12 24L12 23L13 23L13 22L14 22L14 21L13 21L13 20L12 20L12 19L13 19L13 18L14 18L14 17L16 17L16 18L15 18L15 19L14 19L14 20L15 20L15 22L16 22L16 20L17 20L17 21L18 21L18 22L17 22L17 23L16 23L16 24L17 24L17 25L14 25L14 26L17 26L17 25L18 25L18 27L17 27L17 28L18 28L18 29L16 29L16 27L15 27L15 29L16 29L16 30L15 30L15 31L14 31L14 30L9 30L9 31L8 31L8 34L9 34L9 33L11 33L11 34L12 34L12 35L11 35L11 36L10 36L10 35L9 35L9 36L8 36L8 39L9 39L9 41L10 41L10 39L12 39L12 40L11 40L11 41L13 41L13 40L15 40L15 41L16 41L16 38L13 38L13 37L14 37L14 36L15 36L15 35L13 35L13 34L14 34L14 33L13 33L13 32L12 32L12 31L14 31L14 32L15 32L15 33L18 33L18 34L19 34L19 35L17 35L17 34L16 34L16 37L17 37L17 36L19 36L19 37L18 37L18 38L17 38L17 39L19 39L19 40L17 40L17 41L19 41L19 40L22 40L22 41L24 41L24 39L25 39L25 41L28 41L28 39L29 39L29 38L26 38L26 39L25 39L25 37L26 37L26 35L27 35L27 36L28 36L28 37L29 37L29 36L32 36L32 37L33 37L33 38L34 38L34 39L35 39L35 40L36 40L36 39L37 39L37 40L40 40L40 38L41 38L41 37L40 37L40 36L38 36L38 35L37 35L37 34L38 34L38 33L39 33L39 35L40 35L40 34L41 34L41 33L40 33L40 32L41 32L41 31L40 31L40 30L41 30L41 29L39 29L39 30L38 30L38 29L36 29L36 28L38 28L38 26L39 26L39 28L40 28L40 26L41 26L41 23L39 23L39 22L38 22L38 21L39 21L39 20L36 20L36 19L35 19L35 17L36 17L36 18L37 18L37 19L38 19L38 18L37 18L37 17L39 17L39 18L41 18L41 16L40 16L40 17L39 17L39 16L37 16L37 14L38 14L38 15L39 15L39 14L41 14L41 13L39 13L39 14L38 14L38 13L36 13L36 16L35 16L35 17L34 17L34 16L33 16L33 17L30 17L30 16L31 16L31 15L30 15L30 16L29 16L29 15L28 15L28 16L29 16L29 17L30 17L30 19L31 19L31 18L32 18L32 19L33 19L33 18L34 18L34 19L35 19L35 21L34 21L34 20L32 20L32 21L31 21L31 20L30 20L30 21L31 21L31 22L29 22L29 23L28 23L28 22L26 22L26 21L29 21L29 18L27 18L27 17L26 17L26 18L25 18L25 16L27 16L27 14L29 14L29 13L30 13L30 14L31 14L31 12L32 12L32 13L33 13L33 14L32 14L32 15L34 15L34 13L35 13L35 12L38 12L38 11L39 11L39 12L40 12L40 10L41 10L41 8L38 8L38 9L40 9L40 10L37 10L37 9L36 9L36 8L33 8L33 5L32 5L32 4L33 4L33 3L32 3L32 2L33 2L33 1L32 1L32 0L31 0L31 1L32 1L32 2L30 2L30 0L29 0L29 1L27 1L27 0L26 0L26 1L27 1L27 2L26 2L26 3L32 3L32 4L30 4L30 7L31 7L31 5L32 5L32 9L30 9L30 8L29 8L29 9L28 9L28 8L27 8L27 6L28 6L28 7L29 7L29 6L28 6L28 5L29 5L29 4L28 4L28 5L27 5L27 4L26 4L26 5L27 5L27 6L26 6L26 7L25 7L25 6L24 6L24 7L25 7L25 10L24 10L24 8L22 8L22 7L23 7L23 5L24 5L24 3L25 3L25 2L23 2L23 0ZM18 1L18 2L16 2L16 3L17 3L17 5L16 5L16 6L15 6L15 7L14 7L14 6L13 6L13 9L14 9L14 8L16 8L16 6L17 6L17 7L18 7L18 6L19 6L19 9L18 9L18 12L17 12L17 11L16 11L16 10L17 10L17 9L15 9L15 10L13 10L13 11L12 11L12 13L15 13L15 12L17 12L17 13L16 13L16 14L17 14L17 15L18 15L18 14L21 14L21 15L23 15L23 16L21 16L21 18L20 18L20 19L19 19L19 18L18 18L18 19L17 19L17 18L16 18L16 19L15 19L15 20L16 20L16 19L17 19L17 20L18 20L18 19L19 19L19 22L18 22L18 23L17 23L17 24L18 24L18 23L19 23L19 24L20 24L20 25L19 25L19 26L20 26L20 28L21 28L21 26L22 26L22 27L23 27L23 26L24 26L24 24L23 24L23 25L22 25L22 24L20 24L20 23L21 23L21 22L23 22L23 23L24 23L24 21L25 21L25 20L27 20L27 18L26 18L26 19L25 19L25 20L23 20L23 21L22 21L22 19L21 19L21 18L23 18L23 19L24 19L24 16L25 16L25 15L26 15L26 14L25 14L25 13L27 13L27 12L28 12L28 13L29 13L29 12L30 12L30 11L32 11L32 12L33 12L33 13L34 13L34 12L33 12L33 11L34 11L34 9L32 9L32 10L30 10L30 9L29 9L29 10L28 10L28 9L27 9L27 8L26 8L26 10L25 10L25 11L24 11L24 15L23 15L23 13L22 13L22 12L23 12L23 11L22 11L22 12L20 12L20 11L21 11L21 9L20 9L20 8L21 8L21 7L22 7L22 3L23 3L23 2L22 2L22 1ZM19 2L19 3L18 3L18 4L20 4L20 5L19 5L19 6L20 6L20 7L21 7L21 6L20 6L20 5L21 5L21 3L22 3L22 2L21 2L21 3L20 3L20 2ZM8 5L8 9L7 9L7 8L6 8L6 9L7 9L7 10L5 10L5 11L4 11L4 9L5 9L5 8L2 8L2 10L3 10L3 12L4 12L4 14L5 14L5 11L7 11L7 12L6 12L6 13L7 13L7 14L6 14L6 15L7 15L7 14L8 14L8 16L6 16L6 17L9 17L9 14L8 14L8 13L7 13L7 12L9 12L9 10L10 10L10 9L9 9L9 6L10 6L10 7L11 7L11 6L10 6L10 5ZM17 5L17 6L18 6L18 5ZM8 9L8 10L7 10L7 11L8 11L8 10L9 10L9 9ZM19 9L19 11L20 11L20 9ZM22 9L22 10L23 10L23 9ZM35 9L35 10L36 10L36 11L37 11L37 10L36 10L36 9ZM0 10L0 11L1 11L1 10ZM26 10L26 11L25 11L25 12L27 12L27 11L28 11L28 10ZM13 11L13 12L15 12L15 11ZM18 12L18 13L19 13L19 12ZM21 13L21 14L22 14L22 13ZM12 15L12 16L11 16L11 17L14 17L14 16L16 16L16 15ZM18 16L18 17L19 17L19 16ZM36 16L36 17L37 17L37 16ZM0 17L0 20L1 20L1 17ZM6 19L6 20L7 20L7 19ZM20 19L20 21L21 21L21 19ZM40 20L40 21L41 21L41 20ZM6 21L6 22L7 22L7 21ZM32 21L32 22L31 22L31 23L29 23L29 24L32 24L32 25L35 25L35 26L34 26L34 27L32 27L32 26L31 26L31 25L30 25L30 26L29 26L29 25L27 25L27 24L28 24L28 23L25 23L25 27L24 27L24 28L22 28L22 30L21 30L21 29L20 29L20 30L21 30L21 31L19 31L19 30L18 30L18 31L19 31L19 33L20 33L20 34L21 34L21 35L23 35L23 36L24 36L24 37L25 37L25 35L26 35L26 33L27 33L27 34L28 34L28 36L29 36L29 34L28 34L28 33L29 33L29 32L31 32L31 31L30 31L30 29L31 29L31 30L32 30L32 31L33 31L33 32L35 32L35 31L37 31L37 32L40 32L40 31L37 31L37 30L36 30L36 29L35 29L35 26L36 26L36 25L39 25L39 26L40 26L40 24L39 24L39 23L38 23L38 22L37 22L37 24L36 24L36 23L34 23L34 24L33 24L33 23L32 23L32 22L34 22L34 21ZM35 21L35 22L36 22L36 21ZM19 22L19 23L20 23L20 22ZM35 24L35 25L36 25L36 24ZM20 25L20 26L21 26L21 25ZM27 26L27 27L29 27L29 26ZM2 27L2 28L3 28L3 27ZM18 27L18 28L19 28L19 27ZM24 28L24 30L25 30L25 28ZM26 28L26 29L27 29L27 30L26 30L26 32L24 32L24 31L23 31L23 32L22 32L22 31L21 31L21 32L22 32L22 33L21 33L21 34L24 34L24 35L25 35L25 34L24 34L24 33L26 33L26 32L27 32L27 33L28 33L28 31L29 31L29 30L28 30L28 29L30 29L30 28ZM33 28L33 29L32 29L32 30L33 30L33 29L34 29L34 28ZM16 30L16 32L17 32L17 30ZM34 30L34 31L35 31L35 30ZM4 31L4 32L5 32L5 31ZM10 31L10 32L11 32L11 33L12 33L12 32L11 32L11 31ZM23 32L23 33L24 33L24 32ZM30 33L30 35L31 35L31 34L32 34L32 33ZM33 33L33 36L36 36L36 33ZM34 34L34 35L35 35L35 34ZM12 35L12 36L13 36L13 35ZM9 36L9 37L10 37L10 36ZM20 36L20 38L19 38L19 39L20 39L20 38L21 38L21 39L24 39L24 38L23 38L23 37L22 37L22 38L21 38L21 36ZM37 36L37 37L38 37L38 36ZM30 37L30 38L31 38L31 40L33 40L33 41L34 41L34 40L33 40L33 39L32 39L32 38L31 38L31 37ZM34 37L34 38L36 38L36 37ZM37 38L37 39L38 39L38 38ZM29 40L29 41L30 41L30 40ZM0 0L0 7L7 7L7 0ZM1 1L1 6L6 6L6 1ZM2 2L2 5L5 5L5 2ZM34 0L34 7L41 7L41 0ZM35 1L35 6L40 6L40 1ZM36 2L36 5L39 5L39 2ZM0 34L0 41L7 41L7 34ZM1 35L1 40L6 40L6 35ZM2 36L2 39L5 39L5 36Z" fill="#000000"/></g></g></svg>
