<?xml version="1.0" encoding="UTF-8"?>
<svg xmlns="http://www.w3.org/2000/svg" version="1.1" width="200" height="200" viewBox="0 0 200 200"><rect x="0" y="0" width="200" height="200" fill="#ffffff"/><g transform="scale(4.878)"><g transform="translate(0,0)"><path fill-rule="evenodd" d="M9 0L9 1L8 1L8 2L9 2L9 3L10 3L10 2L9 2L9 1L10 1L10 0ZM16 0L16 1L17 1L17 2L18 2L18 0ZM19 0L19 1L20 1L20 2L19 2L19 3L16 3L16 4L15 4L15 6L14 6L14 7L15 7L15 6L16 6L16 9L15 9L15 8L13 8L13 5L11 5L11 4L12 4L12 3L15 3L15 2L14 2L14 1L13 1L13 2L11 2L11 4L10 4L10 5L8 5L8 8L4 8L4 9L0 9L0 10L2 10L2 12L1 12L1 11L0 11L0 12L1 12L1 13L2 13L2 12L4 12L4 11L5 11L5 13L3 13L3 14L2 14L2 15L3 15L3 16L1 16L1 15L0 15L0 16L1 16L1 18L0 18L0 19L1 19L1 18L2 18L2 19L3 19L3 17L4 17L4 15L3 15L3 14L5 14L5 15L7 15L7 16L6 16L6 17L10 17L10 18L11 18L11 19L9 19L9 20L11 20L11 21L10 21L10 22L9 22L9 21L8 21L8 20L5 20L5 23L4 23L4 20L1 20L1 21L2 21L2 23L1 23L1 24L2 24L2 25L3 25L3 26L4 26L4 29L3 29L3 27L0 27L0 28L2 28L2 32L0 32L0 33L5 33L5 32L6 32L6 33L7 33L7 32L9 32L9 33L8 33L8 37L9 37L9 38L12 38L12 36L11 36L11 35L9 35L9 33L10 33L10 34L11 34L11 33L13 33L13 31L16 31L16 33L15 33L15 32L14 32L14 33L15 33L15 34L16 34L16 35L14 35L14 34L13 34L13 36L15 36L15 37L14 37L14 38L13 38L13 39L11 39L11 40L9 40L9 41L14 41L14 38L16 38L16 39L15 39L15 40L16 40L16 41L17 41L17 40L18 40L18 39L17 39L17 38L16 38L16 36L17 36L17 34L18 34L18 35L19 35L19 36L20 36L20 37L19 37L19 39L20 39L20 40L19 40L19 41L22 41L22 40L21 40L21 39L23 39L23 40L24 40L24 41L25 41L25 37L27 37L27 38L26 38L26 39L27 39L27 40L26 40L26 41L27 41L27 40L28 40L28 41L33 41L33 39L32 39L32 38L33 38L33 37L36 37L36 38L37 38L37 35L39 35L39 36L41 36L41 33L40 33L40 34L39 34L39 33L38 33L38 31L37 31L37 30L39 30L39 31L40 31L40 32L41 32L41 29L40 29L40 28L38 28L38 26L37 26L37 25L39 25L39 27L41 27L41 24L40 24L40 23L41 23L41 22L40 22L40 21L41 21L41 9L40 9L40 8L39 8L39 9L36 9L36 8L34 8L34 10L36 10L36 11L35 11L35 12L34 12L34 11L33 11L33 9L32 9L32 8L33 8L33 5L31 5L31 3L33 3L33 0L32 0L32 1L31 1L31 3L28 3L28 2L30 2L30 0L29 0L29 1L28 1L28 0L27 0L27 1L26 1L26 0L24 0L24 1L23 1L23 0ZM22 1L22 3L21 3L21 2L20 2L20 3L21 3L21 4L19 4L19 5L17 5L17 4L16 4L16 5L17 5L17 7L18 7L18 8L17 8L17 9L16 9L16 10L15 10L15 9L11 9L11 10L10 10L10 9L9 9L9 8L12 8L12 6L11 6L11 7L10 7L10 6L9 6L9 8L8 8L8 10L7 10L7 9L4 9L4 10L3 10L3 11L4 11L4 10L5 10L5 11L6 11L6 12L8 12L8 13L11 13L11 12L8 12L8 10L10 10L10 11L12 11L12 10L15 10L15 11L13 11L13 12L12 12L12 13L13 13L13 14L11 14L11 15L12 15L12 18L13 18L13 16L14 16L14 19L13 19L13 20L12 20L12 19L11 19L11 20L12 20L12 21L13 21L13 22L11 22L11 23L10 23L10 24L9 24L9 27L8 27L8 25L6 25L6 24L7 24L7 23L8 23L8 22L7 22L7 21L6 21L6 22L7 22L7 23L6 23L6 24L4 24L4 23L3 23L3 25L4 25L4 26L5 26L5 27L6 27L6 28L5 28L5 29L4 29L4 30L3 30L3 32L4 32L4 31L5 31L5 29L6 29L6 30L7 30L7 31L6 31L6 32L7 32L7 31L8 31L8 30L9 30L9 31L11 31L11 32L12 32L12 31L13 31L13 30L12 30L12 29L14 29L14 30L15 30L15 29L16 29L16 30L19 30L19 31L20 31L20 32L21 32L21 34L20 34L20 33L19 33L19 32L18 32L18 34L19 34L19 35L23 35L23 36L21 36L21 37L20 37L20 38L23 38L23 39L24 39L24 38L23 38L23 37L24 37L24 34L23 34L23 33L24 33L24 32L25 32L25 33L26 33L26 34L25 34L25 35L27 35L27 33L28 33L28 36L27 36L27 37L28 37L28 39L31 39L31 38L30 38L30 37L31 37L31 36L32 36L32 35L30 35L30 34L32 34L32 32L31 32L31 31L30 31L30 32L31 32L31 33L30 33L30 34L29 34L29 33L28 33L28 32L27 32L27 30L28 30L28 31L29 31L29 30L30 30L30 29L31 29L31 28L32 28L32 25L33 25L33 26L34 26L34 25L37 25L37 24L39 24L39 23L40 23L40 22L39 22L39 20L40 20L40 19L39 19L39 18L37 18L37 21L38 21L38 22L36 22L36 21L35 21L35 20L36 20L36 19L35 19L35 18L36 18L36 17L39 17L39 16L40 16L40 15L38 15L38 14L37 14L37 15L36 15L36 13L37 13L37 11L36 11L36 12L35 12L35 13L33 13L33 11L32 11L32 9L31 9L31 8L32 8L32 6L31 6L31 5L30 5L30 4L29 4L29 5L27 5L27 4L28 4L28 3L26 3L26 2L25 2L25 1L24 1L24 2L25 2L25 4L26 4L26 5L25 5L25 7L26 7L26 6L27 6L27 9L28 9L28 10L29 10L29 11L27 11L27 12L26 12L26 9L25 9L25 8L22 8L22 6L21 6L21 4L22 4L22 3L23 3L23 1ZM27 1L27 2L28 2L28 1ZM23 4L23 7L24 7L24 4ZM29 5L29 6L28 6L28 7L29 7L29 8L28 8L28 9L30 9L30 11L29 11L29 13L28 13L28 15L29 15L29 17L30 17L30 18L28 18L28 16L26 16L26 14L27 14L27 13L26 13L26 12L25 12L25 10L22 10L22 8L21 8L21 9L19 9L19 8L20 8L20 7L21 7L21 6L20 6L20 7L19 7L19 6L18 6L18 7L19 7L19 8L18 8L18 9L19 9L19 10L18 10L18 11L17 11L17 10L16 10L16 11L15 11L15 12L16 12L16 11L17 11L17 13L18 13L18 14L16 14L16 13L15 13L15 15L16 15L16 16L15 16L15 17L17 17L17 18L19 18L19 19L17 19L17 20L18 20L18 21L19 21L19 22L20 22L20 23L18 23L18 22L15 22L15 21L16 21L16 20L15 20L15 19L16 19L16 18L15 18L15 19L14 19L14 20L13 20L13 21L14 21L14 22L13 22L13 23L11 23L11 24L10 24L10 26L11 26L11 27L12 27L12 28L16 28L16 27L17 27L17 28L18 28L18 29L19 29L19 28L18 28L18 27L20 27L20 28L21 28L21 27L20 27L20 26L18 26L18 27L17 27L17 26L16 26L16 27L15 27L15 26L14 26L14 25L13 25L13 24L14 24L14 22L15 22L15 25L16 25L16 24L17 24L17 23L18 23L18 25L20 25L20 24L22 24L22 23L23 23L23 25L24 25L24 26L23 26L23 27L24 27L24 28L23 28L23 29L20 29L20 31L21 31L21 30L22 30L22 33L23 33L23 32L24 32L24 31L25 31L25 32L26 32L26 33L27 33L27 32L26 32L26 29L25 29L25 30L23 30L23 29L24 29L24 28L26 28L26 26L27 26L27 28L28 28L28 29L30 29L30 28L31 28L31 25L32 25L32 23L35 23L35 24L36 24L36 23L35 23L35 21L32 21L32 19L30 19L30 18L31 18L31 17L33 17L33 16L31 16L31 14L32 14L32 15L34 15L34 16L35 16L35 17L34 17L34 18L35 18L35 17L36 17L36 15L35 15L35 14L33 14L33 13L32 13L32 12L30 12L30 11L31 11L31 9L30 9L30 7L31 7L31 6L30 6L30 5ZM29 6L29 7L30 7L30 6ZM6 10L6 11L7 11L7 10ZM19 10L19 11L18 11L18 12L19 12L19 13L21 13L21 14L19 14L19 15L17 15L17 16L19 16L19 18L21 18L21 19L22 19L22 18L24 18L24 19L23 19L23 21L21 21L21 20L20 20L20 22L21 22L21 23L22 23L22 22L25 22L25 24L26 24L26 25L25 25L25 26L24 26L24 27L25 27L25 26L26 26L26 25L28 25L28 27L29 27L29 25L28 25L28 24L29 24L29 22L31 22L31 23L30 23L30 25L31 25L31 23L32 23L32 21L30 21L30 20L29 20L29 21L28 21L28 19L27 19L27 18L26 18L26 20L27 20L27 21L26 21L26 22L25 22L25 21L24 21L24 19L25 19L25 18L24 18L24 17L26 17L26 16L25 16L25 15L24 15L24 14L23 14L23 13L24 13L24 11L22 11L22 10L21 10L21 11L20 11L20 10ZM19 11L19 12L20 12L20 11ZM38 11L38 12L39 12L39 13L40 13L40 11ZM6 13L6 14L7 14L7 15L8 15L8 14L7 14L7 13ZM29 13L29 15L30 15L30 13ZM21 14L21 16L20 16L20 15L19 15L19 16L20 16L20 17L21 17L21 18L22 18L22 17L21 17L21 16L22 16L22 15L23 15L23 14ZM9 15L9 16L10 16L10 15ZM30 16L30 17L31 17L31 16ZM4 18L4 19L5 19L5 18ZM6 18L6 19L8 19L8 18ZM34 19L34 20L35 20L35 19ZM27 21L27 24L28 24L28 21ZM33 24L33 25L34 25L34 24ZM0 25L0 26L1 26L1 25ZM11 25L11 26L13 26L13 25ZM21 25L21 26L22 26L22 25ZM6 26L6 27L7 27L7 26ZM35 26L35 28L34 28L34 27L33 27L33 29L32 29L32 31L33 31L33 32L34 32L34 31L36 31L36 32L37 32L37 31L36 31L36 29L37 29L37 26ZM6 28L6 29L7 29L7 30L8 30L8 29L7 29L7 28ZM9 28L9 30L11 30L11 31L12 31L12 30L11 30L11 29L10 29L10 28ZM35 28L35 29L36 29L36 28ZM0 29L0 30L1 30L1 29ZM33 29L33 30L34 30L34 29ZM39 29L39 30L40 30L40 29ZM33 33L33 36L36 36L36 33ZM37 33L37 34L38 34L38 33ZM34 34L34 35L35 35L35 34ZM9 36L9 37L10 37L10 36ZM28 36L28 37L29 37L29 36ZM40 37L40 38L38 38L38 39L36 39L36 40L37 40L37 41L40 41L40 40L41 40L41 37ZM34 39L34 40L35 40L35 39ZM0 0L0 7L7 7L7 0ZM1 1L1 6L6 6L6 1ZM2 2L2 5L5 5L5 2ZM34 0L34 7L41 7L41 0ZM35 1L35 6L40 6L40 1ZM36 2L36 5L39 5L39 2ZM0 34L0 41L7 41L7 34ZM1 35L1 40L6 40L6 35ZM2 36L2 39L5 39L5 36Z" fill="#000000"/></g></g></svg>
