<?xml version="1.0" encoding="UTF-8"?>
<svg xmlns="http://www.w3.org/2000/svg" version="1.1" width="200" height="200" viewBox="0 0 200 200"><rect x="0" y="0" width="200" height="200" fill="#ffffff"/><g transform="scale(6.897)"><g transform="translate(0,0)"><path fill-rule="evenodd" d="M9 0L9 1L10 1L10 0ZM15 0L15 1L13 1L13 2L12 2L12 3L11 3L11 2L10 2L10 3L11 3L11 4L9 4L9 2L8 2L8 4L9 4L9 5L11 5L11 4L12 4L12 9L14 9L14 13L13 13L13 10L9 10L9 9L8 9L8 8L6 8L6 9L5 9L5 8L3 8L3 9L0 9L0 12L1 12L1 13L0 13L0 14L1 14L1 15L0 15L0 16L1 16L1 17L0 17L0 21L2 21L2 20L3 20L3 21L7 21L7 20L4 20L4 19L7 19L7 18L6 18L6 17L9 17L9 16L10 16L10 15L9 15L9 13L8 13L8 15L7 15L7 14L5 14L5 11L8 11L8 12L12 12L12 13L10 13L10 14L12 14L12 13L13 13L13 15L14 15L14 14L15 14L15 15L16 15L16 14L19 14L19 15L17 15L17 16L16 16L16 18L15 18L15 17L14 17L14 16L13 16L13 17L14 17L14 18L13 18L13 19L12 19L12 18L11 18L11 17L10 17L10 19L9 19L9 18L8 18L8 19L9 19L9 20L10 20L10 19L11 19L11 21L8 21L8 23L10 23L10 27L12 27L12 28L11 28L11 29L12 29L12 28L13 28L13 29L14 29L14 28L15 28L15 26L17 26L17 27L18 27L18 29L20 29L20 28L21 28L21 29L23 29L23 28L24 28L24 29L25 29L25 28L27 28L27 29L28 29L28 28L27 28L27 27L29 27L29 26L26 26L26 25L29 25L29 22L28 22L28 21L26 21L26 20L23 20L23 19L25 19L25 18L26 18L26 19L27 19L27 18L28 18L28 19L29 19L29 17L28 17L28 16L29 16L29 14L27 14L27 13L29 13L29 11L28 11L28 10L27 10L27 11L26 11L26 9L27 9L27 8L25 8L25 12L24 12L24 16L23 16L23 12L22 12L22 11L21 11L21 10L19 10L19 9L14 9L14 8L15 8L15 6L16 6L16 7L17 7L17 8L19 8L19 6L20 6L20 8L21 8L21 4L19 4L19 3L20 3L20 1L21 1L21 0L19 0L19 1L18 1L18 0L17 0L17 1L16 1L16 0ZM15 1L15 2L14 2L14 4L15 4L15 2L16 2L16 4L17 4L17 5L16 5L16 6L17 6L17 7L18 7L18 6L19 6L19 4L18 4L18 3L19 3L19 2L18 2L18 1L17 1L17 2L16 2L16 1ZM12 3L12 4L13 4L13 3ZM13 5L13 7L14 7L14 6L15 6L15 5ZM8 6L8 7L9 7L9 8L11 8L11 6L10 6L10 7L9 7L9 6ZM3 9L3 11L1 11L1 12L2 12L2 13L3 13L3 11L5 11L5 10L4 10L4 9ZM6 9L6 10L7 10L7 9ZM22 9L22 10L23 10L23 11L24 11L24 9ZM17 10L17 11L15 11L15 14L16 14L16 12L17 12L17 13L18 13L18 12L17 12L17 11L19 11L19 10ZM27 11L27 12L28 12L28 11ZM6 12L6 13L7 13L7 12ZM19 12L19 13L20 13L20 12ZM21 12L21 14L20 14L20 15L19 15L19 18L17 18L17 20L16 20L16 22L15 22L15 20L12 20L12 22L11 22L11 23L12 23L12 24L11 24L11 26L12 26L12 25L13 25L13 23L14 23L14 22L15 22L15 24L16 24L16 25L18 25L18 27L19 27L19 28L20 28L20 27L21 27L21 26L22 26L22 28L23 28L23 27L26 27L26 26L24 26L24 25L19 25L19 24L20 24L20 21L19 21L19 18L20 18L20 19L21 19L21 20L22 20L22 19L21 19L21 16L20 16L20 15L21 15L21 14L22 14L22 12ZM25 13L25 16L26 16L26 17L27 17L27 16L28 16L28 15L27 15L27 16L26 16L26 13ZM2 14L2 15L1 15L1 16L2 16L2 17L1 17L1 18L2 18L2 17L3 17L3 18L5 18L5 17L3 17L3 16L2 16L2 15L3 15L3 14ZM4 15L4 16L7 16L7 15ZM11 15L11 16L12 16L12 15ZM17 16L17 17L18 17L18 16ZM22 16L22 17L23 17L23 16ZM14 18L14 19L15 19L15 18ZM17 20L17 21L18 21L18 22L19 22L19 21L18 21L18 20ZM13 21L13 22L14 22L14 21ZM21 21L21 24L24 24L24 21ZM16 22L16 23L17 23L17 24L19 24L19 23L17 23L17 22ZM22 22L22 23L23 23L23 22ZM25 22L25 25L26 25L26 24L28 24L28 23L27 23L27 22ZM8 24L8 26L9 26L9 24ZM14 25L14 26L15 26L15 25ZM13 27L13 28L14 28L14 27ZM9 28L9 29L10 29L10 28ZM16 28L16 29L17 29L17 28ZM0 0L0 7L7 7L7 0ZM1 1L1 6L6 6L6 1ZM2 2L2 5L5 5L5 2ZM22 0L22 7L29 7L29 0ZM23 1L23 6L28 6L28 1ZM24 2L24 5L27 5L27 2ZM0 22L0 29L7 29L7 22ZM1 23L1 28L6 28L6 23ZM2 24L2 27L5 27L5 24Z" fill="#000000"/></g></g></svg>
