<?xml version="1.0" encoding="UTF-8"?>
<svg xmlns="http://www.w3.org/2000/svg" version="1.1" width="200" height="200" viewBox="0 0 200 200"><rect x="0" y="0" width="200" height="200" fill="#ffffff"/><g transform="scale(4.878)"><g transform="translate(0,0)"><path fill-rule="evenodd" d="M8 0L8 3L10 3L10 4L9 4L9 5L8 5L8 10L10 10L10 8L11 8L11 6L12 6L12 7L13 7L13 6L14 6L14 8L13 8L13 10L12 10L12 9L11 9L11 10L12 10L12 12L13 12L13 10L14 10L14 12L15 12L15 14L17 14L17 13L18 13L18 15L15 15L15 17L14 17L14 16L13 16L13 15L14 15L14 14L13 14L13 15L10 15L10 16L9 16L9 18L10 18L10 19L7 19L7 18L8 18L8 16L6 16L6 15L8 15L8 14L6 14L6 13L7 13L7 12L6 12L6 11L7 11L7 10L5 10L5 11L2 11L2 9L5 9L5 8L2 8L2 9L1 9L1 12L0 12L0 14L1 14L1 13L2 13L2 14L4 14L4 16L5 16L5 17L7 17L7 18L6 18L6 19L7 19L7 20L6 20L6 21L9 21L9 22L13 22L13 20L14 20L14 19L15 19L15 20L16 20L16 21L15 21L15 23L13 23L13 24L16 24L16 25L15 25L15 26L14 26L14 25L12 25L12 26L14 26L14 27L12 27L12 28L14 28L14 29L13 29L13 30L12 30L12 31L11 31L11 30L10 30L10 29L11 29L11 28L10 28L10 27L9 27L9 29L8 29L8 31L7 31L7 30L6 30L6 31L4 31L4 30L5 30L5 27L7 27L7 28L6 28L6 29L7 29L7 28L8 28L8 27L7 27L7 26L2 26L2 24L3 24L3 25L7 25L7 24L8 24L8 26L10 26L10 25L9 25L9 24L12 24L12 23L7 23L7 22L6 22L6 23L5 23L5 24L3 24L3 22L2 22L2 21L1 21L1 19L0 19L0 22L2 22L2 24L1 24L1 26L2 26L2 28L1 28L1 27L0 27L0 33L1 33L1 30L2 30L2 31L3 31L3 32L4 32L4 33L5 33L5 32L6 32L6 33L7 33L7 32L10 32L10 33L11 33L11 32L12 32L12 31L13 31L13 32L15 32L15 33L17 33L17 32L18 32L18 34L16 34L16 36L17 36L17 39L14 39L14 37L12 37L12 38L11 38L11 37L9 37L9 36L8 36L8 39L9 39L9 40L10 40L10 41L11 41L11 40L12 40L12 41L13 41L13 39L14 39L14 41L15 41L15 40L17 40L17 39L18 39L18 37L20 37L20 38L21 38L21 39L23 39L23 41L24 41L24 40L26 40L26 41L32 41L32 40L33 40L33 41L34 41L34 40L33 40L33 39L32 39L32 40L27 40L27 39L28 39L28 38L30 38L30 39L31 39L31 38L32 38L32 37L33 37L33 38L34 38L34 39L35 39L35 40L36 40L36 39L38 39L38 38L39 38L39 40L40 40L40 38L41 38L41 37L40 37L40 34L41 34L41 33L39 33L39 32L41 32L41 31L40 31L40 30L41 30L41 29L39 29L39 30L37 30L37 29L36 29L36 28L38 28L38 26L39 26L39 28L40 28L40 26L41 26L41 23L40 23L40 26L39 26L39 24L37 24L37 25L36 25L36 23L33 23L33 21L34 21L34 22L36 22L36 21L39 21L39 20L36 20L36 19L35 19L35 17L36 17L36 18L37 18L37 19L38 19L38 18L37 18L37 17L39 17L39 16L37 16L37 15L36 15L36 14L37 14L37 13L36 13L36 14L35 14L35 17L34 17L34 16L33 16L33 15L34 15L34 14L33 14L33 13L34 13L34 12L33 12L33 13L32 13L32 14L31 14L31 12L32 12L32 11L34 11L34 10L35 10L35 12L38 12L38 11L40 11L40 10L41 10L41 8L38 8L38 9L40 9L40 10L37 10L37 9L36 9L36 8L33 8L33 5L32 5L32 4L33 4L33 1L32 1L32 0L31 0L31 1L30 1L30 2L31 2L31 1L32 1L32 4L31 4L31 3L30 3L30 4L31 4L31 5L32 5L32 9L30 9L30 8L28 8L28 7L29 7L29 6L28 6L28 5L26 5L26 4L27 4L27 3L28 3L28 4L29 4L29 1L27 1L27 0L25 0L25 2L23 2L23 1L24 1L24 0L22 0L22 3L21 3L21 1L19 1L19 2L20 2L20 3L17 3L17 2L18 2L18 0L16 0L16 1L15 1L15 0L13 0L13 2L12 2L12 1L11 1L11 0L10 0L10 1L9 1L9 0ZM10 1L10 3L11 3L11 4L12 4L12 5L14 5L14 3L16 3L16 4L15 4L15 7L16 7L16 8L15 8L15 9L14 9L14 10L15 10L15 9L17 9L17 10L16 10L16 11L17 11L17 10L18 10L18 9L19 9L19 7L20 7L20 10L21 10L21 11L19 11L19 12L18 12L18 13L19 13L19 15L20 15L20 16L19 16L19 19L18 19L18 18L17 18L17 17L18 17L18 16L17 16L17 17L15 17L15 19L16 19L16 20L19 20L19 21L17 21L17 22L16 22L16 23L17 23L17 26L15 26L15 27L14 27L14 28L15 28L15 29L14 29L14 30L13 30L13 31L15 31L15 32L17 32L17 26L18 26L18 30L19 30L19 31L18 31L18 32L19 32L19 31L20 31L20 30L19 30L19 29L20 29L20 28L22 28L22 29L21 29L21 30L22 30L22 31L23 31L23 32L24 32L24 34L23 34L23 33L22 33L22 36L23 36L23 35L25 35L25 36L26 36L26 37L25 37L25 38L23 38L23 39L27 39L27 38L28 38L28 37L30 37L30 38L31 38L31 37L32 37L32 36L31 36L31 35L30 35L30 34L32 34L32 32L36 32L36 31L37 31L37 32L39 32L39 31L37 31L37 30L36 30L36 29L34 29L34 28L33 28L33 29L32 29L32 28L31 28L31 27L32 27L32 26L33 26L33 27L34 27L34 26L33 26L33 25L35 25L35 26L36 26L36 25L35 25L35 24L33 24L33 23L32 23L32 22L31 22L31 23L29 23L29 22L30 22L30 21L33 21L33 20L34 20L34 21L36 21L36 20L35 20L35 19L34 19L34 18L33 18L33 17L32 17L32 18L31 18L31 17L30 17L30 19L32 19L32 20L29 20L29 16L31 16L31 15L30 15L30 14L29 14L29 13L28 13L28 14L29 14L29 15L28 15L28 17L27 17L27 16L26 16L26 15L27 15L27 12L26 12L26 11L27 11L27 10L30 10L30 11L29 11L29 12L31 12L31 11L32 11L32 10L34 10L34 9L32 9L32 10L30 10L30 9L27 9L27 7L28 7L28 6L27 6L27 7L26 7L26 5L24 5L24 4L26 4L26 3L27 3L27 2L26 2L26 3L24 3L24 4L23 4L23 5L22 5L22 4L21 4L21 3L20 3L20 6L19 6L19 4L17 4L17 3L16 3L16 2L15 2L15 1L14 1L14 2L13 2L13 3L11 3L11 1ZM16 4L16 5L17 5L17 4ZM9 5L9 7L10 7L10 6L11 6L11 5ZM23 5L23 6L22 6L22 9L23 9L23 10L24 10L24 9L25 9L25 8L26 8L26 7L25 7L25 6L24 6L24 5ZM16 6L16 7L17 7L17 9L18 9L18 7L19 7L19 6L18 6L18 7L17 7L17 6ZM20 6L20 7L21 7L21 6ZM23 6L23 7L24 7L24 6ZM30 6L30 7L31 7L31 6ZM6 8L6 9L7 9L7 8ZM23 8L23 9L24 9L24 8ZM35 9L35 10L36 10L36 9ZM8 11L8 13L9 13L9 14L10 14L10 13L9 13L9 11ZM10 11L10 12L11 12L11 11ZM21 11L21 13L23 13L23 11ZM24 11L24 12L25 12L25 13L24 13L24 14L25 14L25 13L26 13L26 12L25 12L25 11ZM2 12L2 13L3 13L3 12ZM4 12L4 14L5 14L5 15L6 15L6 14L5 14L5 12ZM39 12L39 14L41 14L41 12ZM11 13L11 14L12 14L12 13ZM20 14L20 15L21 15L21 14ZM22 14L22 16L20 16L20 18L21 18L21 19L19 19L19 20L21 20L21 22L22 22L22 23L23 23L23 22L24 22L24 21L25 21L25 20L26 20L26 21L29 21L29 20L27 20L27 19L28 19L28 18L27 18L27 17L25 17L25 16L23 16L23 14ZM32 14L32 15L33 15L33 14ZM2 15L2 16L0 16L0 18L2 18L2 20L3 20L3 19L4 19L4 17L3 17L3 18L2 18L2 16L3 16L3 15ZM12 16L12 18L11 18L11 19L10 19L10 20L9 20L9 21L10 21L10 20L13 20L13 19L12 19L12 18L13 18L13 16ZM22 16L22 17L21 17L21 18L22 18L22 19L21 19L21 20L22 20L22 22L23 22L23 21L24 21L24 20L25 20L25 19L23 19L23 18L22 18L22 17L23 17L23 16ZM36 16L36 17L37 17L37 16ZM40 16L40 18L39 18L39 19L40 19L40 18L41 18L41 16ZM16 18L16 19L17 19L17 18ZM26 18L26 19L27 19L27 18ZM40 20L40 21L41 21L41 20ZM4 21L4 22L5 22L5 21ZM25 22L25 23L24 23L24 24L25 24L25 25L29 25L29 26L30 26L30 25L31 25L31 26L32 26L32 25L33 25L33 24L32 24L32 23L31 23L31 24L25 24L25 23L26 23L26 22ZM27 22L27 23L28 23L28 22ZM37 22L37 23L39 23L39 22ZM6 23L6 24L7 24L7 23ZM18 23L18 25L19 25L19 27L21 27L21 26L20 26L20 24L19 24L19 23ZM21 24L21 25L23 25L23 26L24 26L24 28L23 28L23 29L22 29L22 30L25 30L25 31L24 31L24 32L25 32L25 31L27 31L27 30L29 30L29 29L30 29L30 30L31 30L31 29L30 29L30 28L29 28L29 27L28 27L28 26L27 26L27 27L25 27L25 26L24 26L24 25L23 25L23 24ZM31 24L31 25L32 25L32 24ZM15 27L15 28L16 28L16 27ZM27 27L27 28L26 28L26 30L27 30L27 28L28 28L28 29L29 29L29 28L28 28L28 27ZM2 28L2 29L3 29L3 30L4 30L4 28ZM15 29L15 31L16 31L16 29ZM33 29L33 30L32 30L32 31L33 31L33 30L34 30L34 31L36 31L36 30L34 30L34 29ZM6 31L6 32L7 32L7 31ZM10 31L10 32L11 32L11 31ZM28 31L28 33L31 33L31 31L30 31L30 32L29 32L29 31ZM20 32L20 33L19 33L19 34L18 34L18 35L17 35L17 36L18 36L18 35L19 35L19 36L21 36L21 34L20 34L20 33L21 33L21 32ZM26 32L26 34L25 34L25 35L26 35L26 36L27 36L27 37L28 37L28 36L27 36L27 35L28 35L28 34L27 34L27 32ZM8 33L8 34L9 34L9 33ZM12 33L12 34L14 34L14 33ZM33 33L33 36L36 36L36 33ZM37 33L37 36L39 36L39 35L38 35L38 34L39 34L39 33ZM10 34L10 36L13 36L13 35L11 35L11 34ZM26 34L26 35L27 35L27 34ZM34 34L34 35L35 35L35 34ZM30 36L30 37L31 37L31 36ZM15 37L15 38L16 38L16 37ZM34 37L34 38L36 38L36 37ZM37 37L37 38L38 38L38 37ZM12 38L12 39L13 39L13 38ZM19 39L19 40L18 40L18 41L19 41L19 40L20 40L20 39ZM21 40L21 41L22 41L22 40ZM0 0L0 7L7 7L7 0ZM1 1L1 6L6 6L6 1ZM2 2L2 5L5 5L5 2ZM34 0L34 7L41 7L41 0ZM35 1L35 6L40 6L40 1ZM36 2L36 5L39 5L39 2ZM0 34L0 41L7 41L7 34ZM1 35L1 40L6 40L6 35ZM2 36L2 39L5 39L5 36Z" fill="#000000"/></g></g></svg>
