<?xml version="1.0" encoding="UTF-8"?>
<svg xmlns="http://www.w3.org/2000/svg" version="1.1" width="200" height="200" viewBox="0 0 200 200"><rect x="0" y="0" width="200" height="200" fill="#ffffff"/><g transform="scale(4.878)"><g transform="translate(0,0)"><path fill-rule="evenodd" d="M11 0L11 1L10 1L10 2L8 2L8 4L9 4L9 3L10 3L10 2L11 2L11 1L12 1L12 3L13 3L13 4L12 4L12 8L11 8L11 5L10 5L10 7L9 7L9 6L8 6L8 7L9 7L9 8L10 8L10 10L9 10L9 9L8 9L8 8L6 8L6 9L5 9L5 8L3 8L3 9L2 9L2 10L1 10L1 9L0 9L0 11L1 11L1 12L0 12L0 15L1 15L1 16L0 16L0 17L1 17L1 18L0 18L0 19L2 19L2 20L1 20L1 22L0 22L0 23L1 23L1 24L0 24L0 27L1 27L1 28L2 28L2 29L0 29L0 33L4 33L4 31L5 31L5 33L7 33L7 32L8 32L8 35L9 35L9 36L8 36L8 38L9 38L9 40L10 40L10 41L12 41L12 39L13 39L13 41L16 41L16 40L17 40L17 38L16 38L16 36L15 36L15 37L14 37L14 38L16 38L16 39L13 39L13 37L12 37L12 36L11 36L11 37L9 37L9 36L10 36L10 35L9 35L9 32L11 32L11 31L12 31L12 32L13 32L13 33L12 33L12 35L14 35L14 34L13 34L13 33L14 33L14 32L13 32L13 31L17 31L17 32L15 32L15 33L16 33L16 35L17 35L17 36L18 36L18 35L20 35L20 36L19 36L19 37L21 37L21 35L22 35L22 34L23 34L23 37L24 37L24 35L25 35L25 37L27 37L27 38L26 38L26 39L25 39L25 38L22 38L22 40L21 40L21 38L20 38L20 39L19 39L19 41L20 41L20 40L21 40L21 41L22 41L22 40L23 40L23 41L25 41L25 40L26 40L26 41L27 41L27 40L26 40L26 39L28 39L28 40L29 40L29 39L30 39L30 40L31 40L31 41L34 41L34 40L35 40L35 41L36 41L36 39L37 39L37 40L38 40L38 41L39 41L39 40L38 40L38 39L40 39L40 40L41 40L41 35L40 35L40 34L39 34L39 33L41 33L41 32L40 32L40 31L41 31L41 30L38 30L38 29L40 29L40 28L41 28L41 25L39 25L39 24L37 24L37 22L38 22L38 23L39 23L39 22L41 22L41 21L39 21L39 20L40 20L40 19L41 19L41 18L40 18L40 17L41 17L41 13L40 13L40 12L41 12L41 11L40 11L40 9L39 9L39 8L37 8L37 9L36 9L36 10L37 10L37 11L36 11L36 12L35 12L35 13L36 13L36 14L33 14L33 13L32 13L32 11L33 11L33 10L34 10L34 11L35 11L35 10L34 10L34 9L33 9L33 10L32 10L32 8L33 8L33 5L32 5L32 4L33 4L33 3L32 3L32 4L29 4L29 5L30 5L30 8L28 8L28 7L29 7L29 6L28 6L28 7L27 7L27 5L26 5L26 4L28 4L28 2L29 2L29 3L31 3L31 2L32 2L32 1L31 1L31 0L30 0L30 1L29 1L29 0L28 0L28 2L27 2L27 1L26 1L26 0L24 0L24 1L25 1L25 2L23 2L23 0L19 0L19 1L20 1L20 2L22 2L22 3L20 3L20 4L19 4L19 5L21 5L21 6L20 6L20 7L19 7L19 6L18 6L18 4L16 4L16 3L19 3L19 2L17 2L17 1L18 1L18 0L17 0L17 1L15 1L15 0L14 0L14 1L12 1L12 0ZM14 1L14 2L15 2L15 1ZM30 1L30 2L31 2L31 1ZM14 3L14 6L13 6L13 7L14 7L14 9L13 9L13 8L12 8L12 9L13 9L13 11L15 11L15 10L17 10L17 11L18 11L18 10L17 10L17 9L18 9L18 6L17 6L17 5L15 5L15 3ZM22 3L22 5L24 5L24 6L23 6L23 7L22 7L22 6L21 6L21 7L20 7L20 9L21 9L21 10L20 10L20 11L19 11L19 12L17 12L17 13L18 13L18 14L19 14L19 13L21 13L21 14L22 14L22 13L21 13L21 12L20 12L20 11L22 11L22 12L23 12L23 13L25 13L25 12L24 12L24 11L23 11L23 9L22 9L22 8L24 8L24 10L25 10L25 11L26 11L26 10L27 10L27 8L26 8L26 5L25 5L25 4L26 4L26 3L25 3L25 4L23 4L23 3ZM31 5L31 8L30 8L30 9L28 9L28 10L29 10L29 11L28 11L28 12L29 12L29 14L30 14L30 15L28 15L28 13L27 13L27 12L26 12L26 13L27 13L27 14L24 14L24 16L23 16L23 15L21 15L21 16L20 16L20 15L17 15L17 14L16 14L16 13L15 13L15 12L14 12L14 14L13 14L13 12L12 12L12 13L11 13L11 12L10 12L10 11L9 11L9 12L8 12L8 13L6 13L6 12L7 12L7 11L8 11L8 9L6 9L6 10L4 10L4 11L3 11L3 10L2 10L2 11L3 11L3 12L2 12L2 13L1 13L1 14L2 14L2 16L3 16L3 18L4 18L4 19L3 19L3 20L2 20L2 22L1 22L1 23L2 23L2 25L1 25L1 27L2 27L2 28L3 28L3 29L4 29L4 30L2 30L2 31L4 31L4 30L5 30L5 31L6 31L6 32L7 32L7 31L6 31L6 30L7 30L7 29L8 29L8 30L10 30L10 29L8 29L8 27L10 27L10 28L11 28L11 30L12 30L12 31L13 31L13 30L14 30L14 29L15 29L15 30L16 30L16 29L17 29L17 31L19 31L19 32L21 32L21 33L18 33L18 34L17 34L17 35L18 35L18 34L22 34L22 32L23 32L23 33L24 33L24 34L26 34L26 31L27 31L27 32L28 32L28 33L29 33L29 32L31 32L31 33L30 33L30 34L29 34L29 35L27 35L27 36L28 36L28 39L29 39L29 38L30 38L30 37L31 37L31 36L30 36L30 35L31 35L31 34L32 34L32 32L33 32L33 31L34 31L34 32L36 32L36 31L37 31L37 30L33 30L33 31L32 31L32 28L31 28L31 26L33 26L33 25L31 25L31 24L34 24L34 23L36 23L36 21L34 21L34 22L33 22L33 19L34 19L34 20L35 20L35 17L37 17L37 18L36 18L36 20L37 20L37 21L38 21L38 20L37 20L37 18L38 18L38 19L39 19L39 17L40 17L40 16L36 16L36 15L35 15L35 16L34 16L34 17L33 17L33 19L27 19L27 20L28 20L28 21L29 21L29 23L25 23L25 25L27 25L27 24L28 24L28 26L29 26L29 29L30 29L30 30L28 30L28 29L27 29L27 28L26 28L26 29L25 29L25 30L26 30L26 31L25 31L25 32L23 32L23 31L24 31L24 29L23 29L23 27L24 27L24 28L25 28L25 26L23 26L23 27L22 27L22 26L21 26L21 22L19 22L19 19L21 19L21 20L20 20L20 21L21 21L21 20L22 20L22 21L24 21L24 20L25 20L25 21L26 21L26 22L27 22L27 21L26 21L26 20L25 20L25 19L26 19L26 18L25 18L25 17L24 17L24 16L27 16L27 17L32 17L32 15L31 15L31 14L30 14L30 12L29 12L29 11L30 11L30 9L31 9L31 8L32 8L32 5ZM14 6L14 7L15 7L15 6ZM16 6L16 7L17 7L17 6ZM24 6L24 8L25 8L25 9L26 9L26 8L25 8L25 6ZM15 8L15 9L14 9L14 10L15 10L15 9L16 9L16 8ZM37 9L37 10L38 10L38 12L40 12L40 11L39 11L39 10L38 10L38 9ZM6 10L6 11L4 11L4 12L6 12L6 11L7 11L7 10ZM11 10L11 11L12 11L12 10ZM31 10L31 11L32 11L32 10ZM36 12L36 13L37 13L37 12ZM3 13L3 16L4 16L4 18L5 18L5 16L6 16L6 17L7 17L7 18L6 18L6 19L5 19L5 22L2 22L2 23L3 23L3 24L4 24L4 23L7 23L7 24L6 24L6 25L7 25L7 26L6 26L6 27L5 27L5 28L4 28L4 27L3 27L3 26L5 26L5 25L3 25L3 26L2 26L2 27L3 27L3 28L4 28L4 29L5 29L5 30L6 30L6 29L7 29L7 28L6 28L6 27L7 27L7 26L9 26L9 25L10 25L10 23L9 23L9 22L11 22L11 21L10 21L10 20L12 20L12 21L13 21L13 22L12 22L12 24L11 24L11 25L12 25L12 24L14 24L14 25L13 25L13 26L11 26L11 28L12 28L12 27L13 27L13 29L14 29L14 28L15 28L15 29L16 29L16 28L17 28L17 29L19 29L19 27L18 27L18 26L19 26L19 25L20 25L20 24L19 24L19 25L18 25L18 22L17 22L17 20L18 20L18 19L19 19L19 17L20 17L20 18L21 18L21 19L22 19L22 20L23 20L23 19L24 19L24 17L22 17L22 16L21 16L21 17L20 17L20 16L19 16L19 17L18 17L18 16L17 16L17 15L16 15L16 14L15 14L15 15L14 15L14 17L12 17L12 19L10 19L10 20L6 20L6 19L8 19L8 17L9 17L9 18L11 18L11 17L9 17L9 16L11 16L11 13L9 13L9 16L8 16L8 14L5 14L5 13ZM4 14L4 16L5 16L5 14ZM12 14L12 15L13 15L13 14ZM38 14L38 15L39 15L39 14ZM6 15L6 16L7 16L7 17L8 17L8 16L7 16L7 15ZM15 15L15 16L16 16L16 15ZM27 15L27 16L28 16L28 15ZM30 15L30 16L31 16L31 15ZM14 17L14 18L15 18L15 19L14 19L14 20L13 20L13 21L14 21L14 20L15 20L15 24L16 24L16 27L17 27L17 28L18 28L18 27L17 27L17 24L16 24L16 19L17 19L17 18L18 18L18 17L17 17L17 18L15 18L15 17ZM21 17L21 18L22 18L22 19L23 19L23 18L22 18L22 17ZM30 20L30 21L31 21L31 22L30 22L30 23L29 23L29 24L31 24L31 22L32 22L32 20ZM6 21L6 22L7 22L7 23L8 23L8 22L7 22L7 21ZM22 22L22 24L23 24L23 25L24 25L24 24L23 24L23 23L24 23L24 22ZM7 24L7 25L9 25L9 24ZM35 24L35 28L34 28L34 29L38 29L38 28L36 28L36 27L39 27L39 25L37 25L37 24ZM14 25L14 26L13 26L13 27L14 27L14 26L15 26L15 25ZM29 25L29 26L31 26L31 25ZM36 25L36 26L37 26L37 25ZM26 26L26 27L27 27L27 26ZM20 27L20 28L21 28L21 30L19 30L19 31L23 31L23 29L22 29L22 27ZM5 28L5 29L6 29L6 28ZM30 28L30 29L31 29L31 28ZM27 30L27 31L28 31L28 30ZM30 30L30 31L31 31L31 30ZM37 32L37 33L38 33L38 32ZM10 33L10 34L11 34L11 33ZM33 33L33 36L36 36L36 33ZM34 34L34 35L35 35L35 34ZM38 34L38 35L37 35L37 38L40 38L40 36L39 36L39 34ZM29 36L29 37L30 37L30 36ZM11 37L11 38L10 38L10 40L11 40L11 39L12 39L12 37ZM33 37L33 38L32 38L32 39L31 39L31 40L33 40L33 39L35 39L35 38L36 38L36 37ZM0 0L0 7L7 7L7 0ZM1 1L1 6L6 6L6 1ZM2 2L2 5L5 5L5 2ZM34 0L34 7L41 7L41 0ZM35 1L35 6L40 6L40 1ZM36 2L36 5L39 5L39 2ZM0 34L0 41L7 41L7 34ZM1 35L1 40L6 40L6 35ZM2 36L2 39L5 39L5 36Z" fill="#000000"/></g></g></svg>
