<?xml version="1.0" encoding="UTF-8"?>
<svg xmlns="http://www.w3.org/2000/svg" version="1.1" width="200" height="200" viewBox="0 0 200 200"><rect x="0" y="0" width="200" height="200" fill="#ffffff"/><g transform="scale(4.878)"><g transform="translate(0,0)"><path fill-rule="evenodd" d="M9 0L9 1L8 1L8 2L9 2L9 1L11 1L11 3L9 3L9 5L8 5L8 8L4 8L4 10L3 10L3 9L0 9L0 11L1 11L1 12L2 12L2 14L0 14L0 15L2 15L2 16L3 16L3 17L1 17L1 16L0 16L0 17L1 17L1 18L0 18L0 19L1 19L1 18L2 18L2 20L3 20L3 21L4 21L4 22L3 22L3 24L2 24L2 25L3 25L3 26L2 26L2 27L1 27L1 25L0 25L0 27L1 27L1 28L0 28L0 30L3 30L3 31L4 31L4 32L0 32L0 33L4 33L4 32L5 32L5 33L8 33L8 37L9 37L9 39L10 39L10 37L11 37L11 36L9 36L9 34L11 34L11 35L12 35L12 37L14 37L14 40L15 40L15 36L16 36L16 37L17 37L17 38L16 38L16 41L18 41L18 40L19 40L19 41L22 41L22 40L24 40L24 41L25 41L25 40L24 40L24 38L25 38L25 39L26 39L26 40L27 40L27 41L28 41L28 40L29 40L29 41L30 41L30 39L31 39L31 41L33 41L33 39L32 39L32 38L31 38L31 37L36 37L36 38L37 38L37 37L38 37L38 34L39 34L39 37L40 37L40 38L38 38L38 39L36 39L36 40L37 40L37 41L40 41L40 40L41 40L41 37L40 37L40 36L41 36L41 33L40 33L40 32L39 32L39 33L38 33L38 34L37 34L37 32L35 32L35 31L34 31L34 32L33 32L33 31L32 31L32 29L33 29L33 30L34 30L34 29L33 29L33 28L32 28L32 29L31 29L31 25L30 25L30 24L31 24L31 23L30 23L30 22L29 22L29 21L27 21L27 20L30 20L30 21L33 21L33 22L32 22L32 23L34 23L34 24L36 24L36 23L35 23L35 21L36 21L36 22L37 22L37 21L38 21L38 22L40 22L40 23L39 23L39 24L37 24L37 25L32 25L32 26L33 26L33 27L34 27L34 28L35 28L35 29L36 29L36 31L37 31L37 30L38 30L38 31L41 31L41 29L40 29L40 30L39 30L39 28L38 28L38 26L37 26L37 25L39 25L39 27L40 27L40 28L41 28L41 24L40 24L40 23L41 23L41 22L40 22L40 21L41 21L41 13L40 13L40 12L41 12L41 9L40 9L40 8L39 8L39 9L36 9L36 8L34 8L34 9L32 9L32 7L33 7L33 5L31 5L31 3L29 3L29 5L30 5L30 7L29 7L29 6L28 6L28 9L27 9L27 8L26 8L26 10L24 10L24 12L26 12L26 13L27 13L27 12L28 12L28 9L30 9L30 10L29 10L29 13L28 13L28 15L29 15L29 17L30 17L30 18L29 18L29 19L28 19L28 16L27 16L27 15L26 15L26 16L27 16L27 17L26 17L26 19L27 19L27 20L25 20L25 21L27 21L27 22L24 22L24 24L23 24L23 21L24 21L24 19L25 19L25 17L23 17L23 15L22 15L22 16L21 16L21 14L22 14L22 13L21 13L21 12L23 12L23 9L25 9L25 6L26 6L26 7L27 7L27 5L28 5L28 4L27 4L27 5L26 5L26 4L25 4L25 2L26 2L26 3L28 3L28 2L30 2L30 1L31 1L31 2L32 2L32 1L31 1L31 0L29 0L29 1L28 1L28 0L27 0L27 1L26 1L26 0L25 0L25 1L24 1L24 0L23 0L23 1L22 1L22 0L18 0L18 1L17 1L17 0L16 0L16 3L18 3L18 5L17 5L17 4L16 4L16 5L17 5L17 6L16 6L16 7L17 7L17 9L16 9L16 8L15 8L15 6L14 6L14 7L13 7L13 6L12 6L12 5L14 5L14 4L15 4L15 3L14 3L14 2L15 2L15 1L14 1L14 2L13 2L13 3L12 3L12 1L11 1L11 0ZM19 1L19 2L21 2L21 1ZM27 1L27 2L28 2L28 1ZM23 2L23 3L24 3L24 2ZM11 3L11 4L10 4L10 5L9 5L9 8L8 8L8 10L7 10L7 9L5 9L5 10L7 10L7 11L4 11L4 12L3 12L3 11L2 11L2 10L1 10L1 11L2 11L2 12L3 12L3 13L4 13L4 15L3 15L3 14L2 14L2 15L3 15L3 16L4 16L4 15L6 15L6 16L7 16L7 17L5 17L5 18L8 18L8 15L9 15L9 20L8 20L8 19L3 19L3 20L8 20L8 22L7 22L7 21L6 21L6 22L4 22L4 26L3 26L3 28L1 28L1 29L5 29L5 28L7 28L7 27L6 27L6 26L8 26L8 25L6 25L6 26L5 26L5 23L6 23L6 24L7 24L7 23L8 23L8 24L9 24L9 25L10 25L10 24L11 24L11 23L8 23L8 22L11 22L11 21L12 21L12 23L13 23L13 21L12 21L12 18L13 18L13 20L14 20L14 21L15 21L15 22L16 22L16 23L15 23L15 25L14 25L14 24L13 24L13 27L11 27L11 28L12 28L12 29L14 29L14 31L17 31L17 32L15 32L15 34L16 34L16 36L17 36L17 37L18 37L18 36L19 36L19 37L20 37L20 36L22 36L22 37L21 37L21 38L18 38L18 39L19 39L19 40L20 40L20 39L21 39L21 40L22 40L22 37L23 37L23 38L24 38L24 36L25 36L25 37L26 37L26 38L27 38L27 37L29 37L29 39L30 39L30 37L31 37L31 36L32 36L32 35L30 35L30 34L32 34L32 32L31 32L31 33L30 33L30 34L29 34L29 33L28 33L28 32L27 32L27 33L28 33L28 34L29 34L29 36L28 36L28 35L27 35L27 34L24 34L24 36L22 36L22 35L23 35L23 34L21 34L21 33L22 33L22 32L19 32L19 31L17 31L17 30L19 30L19 28L18 28L18 29L17 29L17 30L16 30L16 29L14 29L14 27L16 27L16 28L17 28L17 27L16 27L16 26L15 26L15 25L17 25L17 24L18 24L18 23L19 23L19 26L18 26L18 27L19 27L19 26L20 26L20 24L21 24L21 23L20 23L20 22L21 22L21 20L23 20L23 19L24 19L24 18L23 18L23 19L22 19L22 18L21 18L21 17L20 17L20 15L19 15L19 13L20 13L20 10L19 10L19 12L17 12L17 11L16 11L16 13L15 13L15 15L18 15L18 16L17 16L17 19L15 19L15 20L14 20L14 18L15 18L15 17L14 17L14 15L12 15L12 13L11 13L11 12L13 12L13 13L14 13L14 12L15 12L15 11L14 11L14 9L15 9L15 10L16 10L16 9L15 9L15 8L13 8L13 7L12 7L12 6L11 6L11 5L12 5L12 3ZM13 3L13 4L14 4L14 3ZM19 3L19 4L20 4L20 3ZM23 4L23 5L20 5L20 6L19 6L19 7L18 7L18 6L17 6L17 7L18 7L18 8L20 8L20 6L21 6L21 9L23 9L23 8L22 8L22 6L23 6L23 7L24 7L24 6L25 6L25 4ZM23 5L23 6L24 6L24 5ZM10 6L10 8L11 8L11 9L9 9L9 10L12 10L12 11L13 11L13 10L12 10L12 7L11 7L11 6ZM31 6L31 7L30 7L30 9L31 9L31 11L30 11L30 12L31 12L31 13L33 13L33 14L36 14L36 13L37 13L37 10L36 10L36 9L35 9L35 10L32 10L32 9L31 9L31 7L32 7L32 6ZM21 10L21 11L22 11L22 10ZM26 10L26 11L27 11L27 10ZM7 11L7 12L4 12L4 13L5 13L5 14L6 14L6 15L8 15L8 13L7 13L7 12L9 12L9 11ZM10 11L10 12L11 12L11 11ZM33 11L33 13L35 13L35 12L36 12L36 11L35 11L35 12L34 12L34 11ZM38 11L38 12L40 12L40 11ZM6 13L6 14L7 14L7 13ZM9 13L9 15L11 15L11 16L12 16L12 17L10 17L10 19L11 19L11 18L12 18L12 17L13 17L13 18L14 18L14 17L13 17L13 16L12 16L12 15L11 15L11 14L10 14L10 13ZM23 13L23 14L24 14L24 13ZM29 13L29 15L31 15L31 16L30 16L30 17L31 17L31 18L30 18L30 19L31 19L31 20L33 20L33 21L35 21L35 20L36 20L36 19L35 19L35 18L36 18L36 17L37 17L37 15L36 15L36 17L35 17L35 16L34 16L34 15L32 15L32 14L30 14L30 13ZM39 13L39 15L38 15L38 17L39 17L39 19L38 19L38 18L37 18L37 19L38 19L38 21L39 21L39 20L40 20L40 17L39 17L39 16L40 16L40 13ZM24 15L24 16L25 16L25 15ZM18 16L18 17L19 17L19 18L18 18L18 19L17 19L17 21L16 21L16 20L15 20L15 21L16 21L16 22L18 22L18 21L19 21L19 22L20 22L20 21L19 21L19 20L20 20L20 17L19 17L19 16ZM31 16L31 17L33 17L33 16ZM34 17L34 18L35 18L35 17ZM32 18L32 19L33 19L33 18ZM18 19L18 20L19 20L19 19ZM34 19L34 20L35 20L35 19ZM9 20L9 21L11 21L11 20ZM0 22L0 24L1 24L1 22ZM6 22L6 23L7 23L7 22ZM25 23L25 24L24 24L24 25L25 25L25 27L27 27L27 28L26 28L26 29L27 29L27 30L25 30L25 29L24 29L24 27L23 27L23 26L22 26L22 25L21 25L21 27L20 27L20 29L21 29L21 28L22 28L22 27L23 27L23 30L22 30L22 31L23 31L23 32L25 32L25 33L26 33L26 32L25 32L25 31L27 31L27 30L28 30L28 31L29 31L29 30L31 30L31 29L28 29L28 27L29 27L29 25L28 25L28 24L29 24L29 23ZM25 24L25 25L26 25L26 26L27 26L27 27L28 27L28 25L26 25L26 24ZM11 25L11 26L12 26L12 25ZM9 26L9 27L10 27L10 26ZM35 26L35 28L36 28L36 29L37 29L37 26ZM8 28L8 29L6 29L6 30L7 30L7 31L5 31L5 30L4 30L4 31L5 31L5 32L7 32L7 31L8 31L8 30L9 30L9 32L8 32L8 33L9 33L9 32L10 32L10 33L11 33L11 34L12 34L12 35L13 35L13 36L14 36L14 35L13 35L13 34L14 34L14 33L13 33L13 34L12 34L12 33L11 33L11 29L10 29L10 28ZM24 30L24 31L25 31L25 30ZM12 31L12 32L13 32L13 31ZM17 32L17 33L18 33L18 34L17 34L17 35L21 35L21 34L19 34L19 33L18 33L18 32ZM33 33L33 36L36 36L36 33ZM39 33L39 34L40 34L40 33ZM34 34L34 35L35 35L35 34ZM26 35L26 37L27 37L27 35ZM11 38L11 39L12 39L12 41L13 41L13 38ZM34 39L34 40L35 40L35 39ZM9 40L9 41L10 41L10 40ZM0 0L0 7L7 7L7 0ZM1 1L1 6L6 6L6 1ZM2 2L2 5L5 5L5 2ZM34 0L34 7L41 7L41 0ZM35 1L35 6L40 6L40 1ZM36 2L36 5L39 5L39 2ZM0 34L0 41L7 41L7 34ZM1 35L1 40L6 40L6 35ZM2 36L2 39L5 39L5 36Z" fill="#000000"/></g></g></svg>
