<?xml version="1.0" encoding="UTF-8"?>
<svg xmlns="http://www.w3.org/2000/svg" version="1.1" width="200" height="200" viewBox="0 0 200 200"><rect x="0" y="0" width="200" height="200" fill="#ffffff"/><g transform="scale(6.897)"><g transform="translate(0,0)"><path fill-rule="evenodd" d="M8 0L8 1L10 1L10 2L8 2L8 3L9 3L9 4L8 4L8 5L9 5L9 6L8 6L8 8L9 8L9 9L7 9L7 8L5 8L5 9L4 9L4 10L3 10L3 9L2 9L2 10L1 10L1 11L2 11L2 10L3 10L3 11L4 11L4 12L3 12L3 13L4 13L4 14L5 14L5 13L4 13L4 12L6 12L6 13L7 13L7 14L6 14L6 15L7 15L7 16L6 16L6 17L7 17L7 16L8 16L8 18L6 18L6 19L10 19L10 20L12 20L12 18L10 18L10 17L12 17L12 16L14 16L14 13L15 13L15 14L16 14L16 15L17 15L17 17L18 17L18 16L19 16L19 14L18 14L18 15L17 15L17 13L21 13L21 12L22 12L22 15L23 15L23 11L21 11L21 5L20 5L20 3L21 3L21 2L20 2L20 0L17 0L17 1L16 1L16 0L14 0L14 1L15 1L15 2L13 2L13 3L15 3L15 4L13 4L13 6L12 6L12 7L13 7L13 9L12 9L12 8L11 8L11 6L10 6L10 5L9 5L9 4L10 4L10 3L11 3L11 4L12 4L12 2L11 2L11 1L12 1L12 0L11 0L11 1L10 1L10 0ZM17 1L17 4L15 4L15 5L16 5L16 6L15 6L15 8L14 8L14 10L13 10L13 11L14 11L14 10L15 10L15 9L18 9L18 10L19 10L19 12L21 12L21 11L20 11L20 9L18 9L18 8L19 8L19 7L20 7L20 6L19 6L19 7L18 7L18 3L19 3L19 2L18 2L18 1ZM15 2L15 3L16 3L16 2ZM9 6L9 8L10 8L10 9L9 9L9 10L8 10L8 11L11 11L11 12L9 12L9 14L8 14L8 16L10 16L10 15L9 15L9 14L10 14L10 13L12 13L12 14L11 14L11 16L12 16L12 15L13 15L13 13L14 13L14 12L13 12L13 13L12 13L12 11L11 11L11 10L10 10L10 9L11 9L11 8L10 8L10 6ZM13 6L13 7L14 7L14 6ZM16 6L16 8L17 8L17 6ZM22 8L22 10L23 10L23 8ZM24 8L24 16L25 16L25 17L23 17L23 16L22 16L22 17L23 17L23 18L21 18L21 17L20 17L20 19L18 19L18 18L16 18L16 16L15 16L15 18L14 18L14 19L15 19L15 20L13 20L13 21L12 21L12 22L13 22L13 24L12 24L12 23L11 23L11 22L10 22L10 21L9 21L9 20L8 20L8 22L10 22L10 23L11 23L11 24L9 24L9 23L8 23L8 24L9 24L9 28L10 28L10 26L11 26L11 28L12 28L12 29L13 29L13 28L14 28L14 27L13 27L13 24L14 24L14 26L16 26L16 27L15 27L15 28L16 28L16 29L19 29L19 28L21 28L21 27L22 27L22 28L23 28L23 29L26 29L26 25L28 25L28 24L26 24L26 25L25 25L25 22L26 22L26 23L27 23L27 21L25 21L25 20L27 20L27 18L28 18L28 16L29 16L29 15L28 15L28 14L26 14L26 13L29 13L29 12L27 12L27 11L28 11L28 10L27 10L27 8L26 8L26 10L25 10L25 8ZM28 8L28 9L29 9L29 8ZM5 9L5 10L4 10L4 11L5 11L5 10L7 10L7 9ZM16 10L16 11L15 11L15 12L16 12L16 13L17 13L17 12L16 12L16 11L17 11L17 10ZM6 11L6 12L7 12L7 11ZM1 12L1 13L0 13L0 16L2 16L2 17L3 17L3 18L4 18L4 19L5 19L5 18L4 18L4 17L5 17L5 16L4 16L4 15L3 15L3 14L2 14L2 12ZM1 14L1 15L2 15L2 16L3 16L3 15L2 15L2 14ZM20 15L20 16L21 16L21 15ZM25 15L25 16L26 16L26 15ZM27 15L27 16L28 16L28 15ZM0 17L0 21L1 21L1 19L2 19L2 18L1 18L1 17ZM25 18L25 19L26 19L26 18ZM17 19L17 20L16 20L16 22L17 22L17 23L18 23L18 22L19 22L19 24L20 24L20 21L19 21L19 20L18 20L18 19ZM21 19L21 20L22 20L22 19ZM23 19L23 20L24 20L24 19ZM2 20L2 21L3 21L3 20ZM5 20L5 21L7 21L7 20ZM17 20L17 21L18 21L18 20ZM28 20L28 22L29 22L29 20ZM13 21L13 22L15 22L15 21ZM21 21L21 24L24 24L24 21ZM22 22L22 23L23 23L23 22ZM11 24L11 26L12 26L12 24ZM16 24L16 25L18 25L18 26L19 26L19 25L18 25L18 24ZM21 25L21 26L20 26L20 27L21 27L21 26L23 26L23 27L25 27L25 26L24 26L24 25ZM27 26L27 27L28 27L28 26ZM12 27L12 28L13 28L13 27ZM27 28L27 29L28 29L28 28ZM0 0L0 7L7 7L7 0ZM1 1L1 6L6 6L6 1ZM2 2L2 5L5 5L5 2ZM22 0L22 7L29 7L29 0ZM23 1L23 6L28 6L28 1ZM24 2L24 5L27 5L27 2ZM0 22L0 29L7 29L7 22ZM1 23L1 28L6 28L6 23ZM2 24L2 27L5 27L5 24Z" fill="#000000"/></g></g></svg>
