<?xml version="1.0" encoding="UTF-8"?>
<svg xmlns="http://www.w3.org/2000/svg" version="1.1" width="200" height="200" viewBox="0 0 200 200"><rect x="0" y="0" width="200" height="200" fill="#ffffff"/><g transform="scale(6.897)"><g transform="translate(0,0)"><path fill-rule="evenodd" d="M9 0L9 1L8 1L8 7L9 7L9 8L5 8L5 9L3 9L3 8L2 8L2 10L1 10L1 9L0 9L0 10L1 10L1 12L2 12L2 10L6 10L6 11L5 11L5 13L8 13L8 11L9 11L9 13L10 13L10 11L11 11L11 12L14 12L14 11L15 11L15 10L16 10L16 9L17 9L17 10L18 10L18 11L17 11L17 12L15 12L15 13L11 13L11 14L15 14L15 16L14 16L14 17L16 17L16 18L13 18L13 17L12 17L12 16L13 16L13 15L11 15L11 16L10 16L10 15L9 15L9 14L6 14L6 15L5 15L5 14L4 14L4 13L3 13L3 14L2 14L2 13L1 13L1 16L0 16L0 17L2 17L2 18L0 18L0 19L2 19L2 18L3 18L3 16L4 16L4 15L5 15L5 16L6 16L6 17L4 17L4 20L3 20L3 21L4 21L4 20L6 20L6 21L7 21L7 20L8 20L8 24L9 24L9 25L10 25L10 26L11 26L11 29L12 29L12 28L14 28L14 27L13 27L13 26L11 26L11 24L10 24L10 23L12 23L12 25L13 25L13 24L14 24L14 25L15 25L15 24L17 24L17 25L18 25L18 24L17 24L17 23L20 23L20 24L19 24L19 26L20 26L20 27L21 27L21 29L22 29L22 28L24 28L24 29L25 29L25 28L24 28L24 26L23 26L23 27L22 27L22 26L21 26L21 25L25 25L25 23L26 23L26 21L27 21L27 22L28 22L28 23L27 23L27 24L26 24L26 25L27 25L27 24L28 24L28 25L29 25L29 24L28 24L28 23L29 23L29 21L27 21L27 20L23 20L23 19L25 19L25 18L28 18L28 19L29 19L29 18L28 18L28 17L29 17L29 16L27 16L27 17L25 17L25 16L22 16L22 15L25 15L25 14L26 14L26 13L29 13L29 12L27 12L27 11L29 11L29 9L28 9L28 8L23 8L23 10L22 10L22 11L21 11L21 9L22 9L22 8L20 8L20 7L21 7L21 0L19 0L19 1L20 1L20 2L19 2L19 3L20 3L20 5L19 5L19 4L18 4L18 5L17 5L17 3L18 3L18 2L17 2L17 1L18 1L18 0L14 0L14 1L16 1L16 2L15 2L15 3L14 3L14 2L13 2L13 1L12 1L12 0ZM10 2L10 3L11 3L11 5L10 5L10 4L9 4L9 7L10 7L10 6L11 6L11 8L10 8L10 9L6 9L6 10L10 10L10 9L11 9L11 8L12 8L12 10L11 10L11 11L14 11L14 10L15 10L15 7L16 7L16 6L17 6L17 7L18 7L18 10L19 10L19 11L20 11L20 8L19 8L19 7L20 7L20 6L19 6L19 7L18 7L18 6L17 6L17 5L16 5L16 6L15 6L15 4L16 4L16 3L15 3L15 4L14 4L14 3L12 3L12 2ZM13 4L13 5L12 5L12 7L13 7L13 5L14 5L14 4ZM14 6L14 7L15 7L15 6ZM13 9L13 10L14 10L14 9ZM25 9L25 10L24 10L24 11L27 11L27 10L28 10L28 9L27 9L27 10L26 10L26 9ZM3 11L3 12L4 12L4 11ZM6 11L6 12L7 12L7 11ZM17 12L17 13L16 13L16 14L17 14L17 13L18 13L18 12ZM19 12L19 14L18 14L18 15L17 15L17 16L18 16L18 19L17 19L17 18L16 18L16 19L17 19L17 20L15 20L15 19L13 19L13 18L12 18L12 19L13 19L13 20L12 20L12 22L13 22L13 21L14 21L14 22L15 22L15 23L14 23L14 24L15 24L15 23L16 23L16 22L15 22L15 21L17 21L17 22L18 22L18 21L19 21L19 22L20 22L20 21L19 21L19 20L22 20L22 19L21 19L21 15L19 15L19 14L22 14L22 12L21 12L21 13L20 13L20 12ZM23 12L23 14L25 14L25 13L24 13L24 12ZM3 14L3 15L2 15L2 16L3 16L3 15L4 15L4 14ZM27 14L27 15L29 15L29 14ZM6 15L6 16L7 16L7 15ZM18 15L18 16L19 16L19 17L20 17L20 16L19 16L19 15ZM8 16L8 17L10 17L10 19L9 19L9 18L7 18L7 17L6 17L6 18L7 18L7 19L6 19L6 20L7 20L7 19L9 19L9 23L10 23L10 19L11 19L11 17L10 17L10 16ZM22 17L22 18L25 18L25 17ZM19 18L19 19L20 19L20 18ZM0 20L0 21L2 21L2 20ZM17 20L17 21L18 21L18 20ZM21 21L21 24L24 24L24 21ZM22 22L22 23L23 23L23 22ZM8 26L8 27L9 27L9 26ZM25 26L25 27L28 27L28 28L26 28L26 29L29 29L29 26ZM15 27L15 28L16 28L16 29L19 29L19 28L16 28L16 27ZM0 0L0 7L7 7L7 0ZM1 1L1 6L6 6L6 1ZM2 2L2 5L5 5L5 2ZM22 0L22 7L29 7L29 0ZM23 1L23 6L28 6L28 1ZM24 2L24 5L27 5L27 2ZM0 22L0 29L7 29L7 22ZM1 23L1 28L6 28L6 23ZM2 24L2 27L5 27L5 24Z" fill="#000000"/></g></g></svg>
