<?xml version="1.0" encoding="UTF-8"?>
<svg xmlns="http://www.w3.org/2000/svg" version="1.1" width="200" height="200" viewBox="0 0 200 200"><rect x="0" y="0" width="200" height="200" fill="#ffffff"/><g transform="scale(4.878)"><g transform="translate(0,0)"><path fill-rule="evenodd" d="M9 0L9 1L10 1L10 2L8 2L8 4L9 4L9 5L10 5L10 7L11 7L11 8L12 8L12 9L10 9L10 8L9 8L9 9L8 9L8 8L6 8L6 9L7 9L7 10L5 10L5 8L3 8L3 9L1 9L1 10L0 10L0 12L2 12L2 11L1 11L1 10L3 10L3 9L4 9L4 10L5 10L5 11L4 11L4 12L3 12L3 13L2 13L2 15L3 15L3 14L4 14L4 17L5 17L5 13L7 13L7 14L6 14L6 15L7 15L7 16L6 16L6 17L8 17L8 18L6 18L6 19L7 19L7 20L4 20L4 21L1 21L1 22L0 22L0 23L1 23L1 22L2 22L2 24L3 24L3 23L7 23L7 22L5 22L5 21L8 21L8 24L6 24L6 25L1 25L1 24L0 24L0 25L1 25L1 26L0 26L0 27L1 27L1 26L2 26L2 29L0 29L0 33L2 33L2 32L3 32L3 30L5 30L5 31L8 31L8 32L5 32L5 33L8 33L8 35L9 35L9 33L10 33L10 35L11 35L11 39L10 39L10 38L9 38L9 36L8 36L8 38L9 38L9 40L10 40L10 41L11 41L11 39L12 39L12 41L13 41L13 39L14 39L14 36L13 36L13 38L12 38L12 35L13 35L13 33L14 33L14 32L13 32L13 33L12 33L12 30L13 30L13 31L15 31L15 32L16 32L16 34L14 34L14 35L15 35L15 36L16 36L16 35L17 35L17 37L15 37L15 38L17 38L17 37L18 37L18 38L19 38L19 39L18 39L18 41L19 41L19 40L20 40L20 41L22 41L22 40L20 40L20 37L18 37L18 36L21 36L21 37L22 37L22 38L21 38L21 39L22 39L22 38L24 38L24 37L23 37L23 36L24 36L24 34L25 34L25 35L26 35L26 34L27 34L27 35L29 35L29 34L30 34L30 33L31 33L31 35L30 35L30 36L26 36L26 37L27 37L27 38L26 38L26 39L25 39L25 40L23 40L23 41L29 41L29 39L28 39L28 38L29 38L29 37L30 37L30 38L31 38L31 39L30 39L30 41L34 41L34 40L35 40L35 41L36 41L36 39L37 39L37 40L38 40L38 41L39 41L39 40L38 40L38 39L40 39L40 40L41 40L41 36L40 36L40 34L39 34L39 33L41 33L41 32L40 32L40 31L41 31L41 30L38 30L38 29L40 29L40 28L39 28L39 27L41 27L41 25L39 25L39 24L37 24L37 20L38 20L38 22L41 22L41 21L39 21L39 20L40 20L40 19L41 19L41 18L40 18L40 19L39 19L39 18L38 18L38 16L40 16L40 17L41 17L41 13L40 13L40 12L41 12L41 11L40 11L40 9L39 9L39 8L37 8L37 9L35 9L35 10L34 10L34 11L36 11L36 12L35 12L35 13L36 13L36 14L33 14L33 13L31 13L31 12L30 12L30 11L31 11L31 10L32 10L32 11L33 11L33 8L32 8L32 7L33 7L33 6L32 6L32 7L31 7L31 6L30 6L30 7L31 7L31 8L29 8L29 9L28 9L28 8L25 8L25 9L24 9L24 12L22 12L22 13L21 13L21 12L20 12L20 14L22 14L22 13L24 13L24 14L25 14L25 13L26 13L26 14L27 14L27 13L28 13L28 15L27 15L27 16L26 16L26 15L22 15L22 16L21 16L21 15L17 15L17 14L15 14L15 13L16 13L16 12L14 12L14 11L16 11L16 10L17 10L17 9L18 9L18 7L19 7L19 8L20 8L20 7L21 7L21 9L19 9L19 10L18 10L18 11L17 11L17 12L18 12L18 11L20 11L20 10L21 10L21 9L22 9L22 7L23 7L23 8L24 8L24 7L25 7L25 6L26 6L26 7L27 7L27 6L26 6L26 5L23 5L23 4L24 4L24 3L23 3L23 4L22 4L22 3L21 3L21 2L23 2L23 1L22 1L22 0L15 0L15 1L21 1L21 2L19 2L19 3L18 3L18 4L20 4L20 3L21 3L21 6L20 6L20 5L19 5L19 6L18 6L18 5L17 5L17 4L16 4L16 3L17 3L17 2L16 2L16 3L15 3L15 4L16 4L16 5L15 5L15 6L14 6L14 7L13 7L13 6L12 6L12 5L14 5L14 0L13 0L13 4L12 4L12 5L10 5L10 4L9 4L9 3L11 3L11 0ZM24 0L24 2L25 2L25 3L26 3L26 4L28 4L28 7L29 7L29 5L33 5L33 4L32 4L32 1L31 1L31 0L30 0L30 1L29 1L29 0L28 0L28 2L27 2L27 1L26 1L26 0ZM30 1L30 2L31 2L31 1ZM28 2L28 3L29 3L29 4L31 4L31 3L29 3L29 2ZM16 5L16 6L15 6L15 7L14 7L14 8L13 8L13 9L12 9L12 10L10 10L10 11L9 11L9 10L7 10L7 11L6 11L6 12L7 12L7 13L10 13L10 12L11 12L11 15L10 15L10 14L9 14L9 15L10 15L10 16L9 16L9 18L8 18L8 19L10 19L10 17L11 17L11 15L12 15L12 16L13 16L13 18L14 18L14 19L12 19L12 18L11 18L11 20L13 20L13 21L12 21L12 22L13 22L13 21L14 21L14 20L15 20L15 18L16 18L16 17L15 17L15 16L17 16L17 18L18 18L18 17L19 17L19 21L20 21L20 22L23 22L23 21L24 21L24 23L22 23L22 24L24 24L24 26L23 26L23 25L20 25L20 24L21 24L21 23L20 23L20 24L19 24L19 22L18 22L18 19L17 19L17 20L16 20L16 21L15 21L15 22L14 22L14 23L13 23L13 24L12 24L12 23L11 23L11 25L9 25L9 26L10 26L10 27L9 27L9 28L11 28L11 29L10 29L10 30L8 30L8 28L7 28L7 27L6 27L6 26L8 26L8 25L6 25L6 26L5 26L5 28L3 28L3 29L2 29L2 30L3 30L3 29L5 29L5 28L7 28L7 29L6 29L6 30L8 30L8 31L9 31L9 32L10 32L10 33L11 33L11 32L10 32L10 31L11 31L11 29L12 29L12 27L13 27L13 28L16 28L16 30L17 30L17 31L16 31L16 32L17 32L17 33L18 33L18 35L19 35L19 33L18 33L18 32L20 32L20 31L21 31L21 30L23 30L23 29L24 29L24 31L25 31L25 34L26 34L26 32L31 32L31 33L32 33L32 32L33 32L33 31L34 31L34 32L36 32L36 31L37 31L37 32L38 32L38 30L36 30L36 29L38 29L38 28L36 28L36 27L39 27L39 25L37 25L37 24L35 24L35 23L36 23L36 21L34 21L34 24L35 24L35 28L34 28L34 29L35 29L35 30L33 30L33 31L32 31L32 28L33 28L33 26L32 26L32 25L33 25L33 22L31 22L31 21L32 21L32 20L31 20L31 19L29 19L29 18L28 18L28 21L29 21L29 22L30 22L30 23L32 23L32 25L31 25L31 24L28 24L28 27L27 27L27 25L26 25L26 26L25 26L25 24L27 24L27 23L25 23L25 21L24 21L24 19L25 19L25 18L24 18L24 16L22 16L22 17L21 17L21 18L20 18L20 17L19 17L19 16L17 16L17 15L15 15L15 16L13 16L13 15L14 15L14 14L13 14L13 13L14 13L14 12L13 12L13 13L12 13L12 12L11 12L11 11L12 11L12 10L13 10L13 11L14 11L14 8L15 8L15 10L16 10L16 8L17 8L17 7L18 7L18 6L17 6L17 5ZM22 5L22 6L21 6L21 7L22 7L22 6L23 6L23 7L24 7L24 6L23 6L23 5ZM8 6L8 7L9 7L9 6ZM11 6L11 7L12 7L12 6ZM16 6L16 7L15 7L15 8L16 8L16 7L17 7L17 6ZM19 6L19 7L20 7L20 6ZM26 9L26 10L25 10L25 11L27 11L27 12L29 12L29 14L30 14L30 12L29 12L29 10L31 10L31 9L29 9L29 10L28 10L28 11L27 11L27 9ZM37 9L37 10L38 10L38 12L40 12L40 11L39 11L39 10L38 10L38 9ZM4 12L4 13L5 13L5 12ZM36 12L36 13L37 13L37 12ZM0 13L0 16L1 16L1 13ZM18 13L18 14L19 14L19 13ZM39 13L39 14L36 14L36 15L35 15L35 16L34 16L34 17L33 17L33 16L32 16L32 15L31 15L31 17L30 17L30 15L28 15L28 16L27 16L27 17L30 17L30 18L31 18L31 17L32 17L32 19L34 19L34 20L35 20L35 17L37 17L37 16L38 16L38 15L40 15L40 13ZM12 14L12 15L13 15L13 14ZM36 15L36 16L37 16L37 15ZM2 16L2 17L3 17L3 16ZM25 16L25 17L26 17L26 16ZM22 17L22 18L21 18L21 19L23 19L23 17ZM2 18L2 20L3 20L3 18ZM36 18L36 20L37 20L37 18ZM26 19L26 20L27 20L27 19ZM22 20L22 21L23 21L23 20ZM30 20L30 21L31 21L31 20ZM10 21L10 22L11 22L11 21ZM26 21L26 22L27 22L27 21ZM17 22L17 23L16 23L16 24L15 24L15 23L14 23L14 25L16 25L16 26L18 26L18 25L19 25L19 26L20 26L20 27L18 27L18 28L17 28L17 29L18 29L18 31L17 31L17 32L18 32L18 31L20 31L20 30L21 30L21 29L22 29L22 28L23 28L23 27L22 27L22 26L20 26L20 25L19 25L19 24L18 24L18 22ZM9 23L9 24L10 24L10 23ZM16 24L16 25L17 25L17 24ZM11 25L11 27L12 27L12 26L13 26L13 25ZM29 25L29 26L31 26L31 28L32 28L32 26L31 26L31 25ZM36 25L36 26L37 26L37 25ZM21 27L21 28L22 28L22 27ZM24 27L24 29L25 29L25 27ZM26 27L26 28L27 28L27 29L28 29L28 30L27 30L27 31L28 31L28 30L29 30L29 31L31 31L31 29L29 29L29 28L27 28L27 27ZM35 28L35 29L36 29L36 28ZM13 29L13 30L15 30L15 29ZM25 30L25 31L26 31L26 30ZM22 32L22 34L24 34L24 33L23 33L23 32ZM20 33L20 35L21 35L21 33ZM28 33L28 34L29 34L29 33ZM33 33L33 36L36 36L36 33ZM11 34L11 35L12 35L12 34ZM34 34L34 35L35 35L35 34ZM37 34L37 35L38 35L38 37L37 37L37 38L40 38L40 37L39 37L39 35L38 35L38 34ZM22 35L22 36L23 36L23 35ZM31 35L31 36L30 36L30 37L31 37L31 38L32 38L32 39L31 39L31 40L33 40L33 39L35 39L35 38L36 38L36 37L31 37L31 36L32 36L32 35ZM15 39L15 40L14 40L14 41L15 41L15 40L16 40L16 41L17 41L17 40L16 40L16 39ZM27 39L27 40L28 40L28 39ZM0 0L0 7L7 7L7 0ZM1 1L1 6L6 6L6 1ZM2 2L2 5L5 5L5 2ZM34 0L34 7L41 7L41 0ZM35 1L35 6L40 6L40 1ZM36 2L36 5L39 5L39 2ZM0 34L0 41L7 41L7 34ZM1 35L1 40L6 40L6 35ZM2 36L2 39L5 39L5 36Z" fill="#000000"/></g></g></svg>
