<?xml version="1.0" encoding="UTF-8"?>
<svg xmlns="http://www.w3.org/2000/svg" version="1.1" width="200" height="200" viewBox="0 0 200 200"><rect x="0" y="0" width="200" height="200" fill="#ffffff"/><g transform="scale(4.878)"><g transform="translate(0,0)"><path fill-rule="evenodd" d="M8 0L8 3L9 3L9 4L10 4L10 5L8 5L8 9L9 9L9 11L8 11L8 12L6 12L6 11L7 11L7 10L6 10L6 9L7 9L7 8L6 8L6 9L5 9L5 8L2 8L2 9L3 9L3 11L2 11L2 10L1 10L1 9L0 9L0 11L2 11L2 12L0 12L0 14L1 14L1 15L0 15L0 21L1 21L1 22L0 22L0 23L1 23L1 26L0 26L0 27L1 27L1 26L2 26L2 27L3 27L3 28L2 28L2 29L1 29L1 28L0 28L0 33L1 33L1 30L2 30L2 31L3 31L3 30L4 30L4 31L5 31L5 32L3 32L3 33L5 33L5 32L6 32L6 33L7 33L7 32L9 32L9 33L8 33L8 34L9 34L9 33L11 33L11 34L12 34L12 37L11 37L11 38L10 38L10 37L9 37L9 36L8 36L8 39L11 39L11 40L12 40L12 41L14 41L14 40L13 40L13 39L15 39L15 38L16 38L16 37L18 37L18 36L19 36L19 31L20 31L20 30L21 30L21 31L23 31L23 32L21 32L21 33L20 33L20 35L21 35L21 36L20 36L20 37L19 37L19 38L21 38L21 39L22 39L22 40L23 40L23 41L24 41L24 40L23 40L23 39L24 39L24 38L25 38L25 36L27 36L27 37L29 37L29 36L32 36L32 37L30 37L30 39L31 39L31 40L28 40L28 39L29 39L29 38L27 38L27 39L26 39L26 41L31 41L31 40L33 40L33 41L34 41L34 40L33 40L33 39L31 39L31 38L34 38L34 39L35 39L35 40L36 40L36 39L37 39L37 40L40 40L40 38L41 38L41 37L40 37L40 34L41 34L41 33L40 33L40 32L38 32L38 31L40 31L40 30L41 30L41 29L40 29L40 28L41 28L41 27L40 27L40 26L41 26L41 23L39 23L39 24L40 24L40 26L39 26L39 25L36 25L36 24L37 24L37 23L38 23L38 22L37 22L37 20L38 20L38 21L39 21L39 20L38 20L38 19L37 19L37 20L36 20L36 19L35 19L35 17L36 17L36 18L38 18L38 17L39 17L39 16L38 16L38 15L36 15L36 14L37 14L37 13L36 13L36 14L35 14L35 15L36 15L36 16L35 16L35 17L34 17L34 16L33 16L33 17L31 17L31 16L29 16L29 15L31 15L31 12L32 12L32 13L33 13L33 14L32 14L32 15L34 15L34 13L35 13L35 12L38 12L38 11L39 11L39 13L38 13L38 14L41 14L41 13L40 13L40 10L41 10L41 8L38 8L38 9L40 9L40 10L37 10L37 9L36 9L36 8L32 8L32 9L30 9L30 8L29 8L29 6L28 6L28 5L30 5L30 7L31 7L31 5L32 5L32 7L33 7L33 5L32 5L32 4L33 4L33 2L30 2L30 1L33 1L33 0L29 0L29 1L27 1L27 0L26 0L26 1L27 1L27 2L26 2L26 3L32 3L32 4L28 4L28 5L27 5L27 4L25 4L25 6L24 6L24 3L22 3L22 1L24 1L24 0L19 0L19 1L17 1L17 2L19 2L19 3L20 3L20 2L21 2L21 3L22 3L22 4L23 4L23 5L21 5L21 4L20 4L20 5L18 5L18 4L17 4L17 3L16 3L16 1L14 1L14 0L13 0L13 1L12 1L12 0L11 0L11 1L12 1L12 2L11 2L11 3L9 3L9 0ZM19 1L19 2L20 2L20 1ZM13 2L13 3L11 3L11 4L13 4L13 3L14 3L14 4L15 4L15 3L14 3L14 2ZM11 5L11 7L12 7L12 5ZM16 5L16 6L15 6L15 8L16 8L16 9L17 9L17 8L18 8L18 9L20 9L20 8L18 8L18 6L17 6L17 5ZM26 5L26 6L25 6L25 7L26 7L26 6L27 6L27 7L28 7L28 6L27 6L27 5ZM9 6L9 7L10 7L10 6ZM13 6L13 8L14 8L14 6ZM16 6L16 8L17 8L17 6ZM19 6L19 7L20 7L20 6ZM21 6L21 8L22 8L22 9L21 9L21 10L17 10L17 12L18 12L18 13L16 13L16 10L14 10L14 11L15 11L15 12L14 12L14 17L15 17L15 19L14 19L14 20L8 20L8 19L6 19L6 18L9 18L9 15L10 15L10 14L11 14L11 16L10 16L10 19L11 19L11 18L12 18L12 19L13 19L13 17L12 17L12 16L13 16L13 13L12 13L12 14L11 14L11 12L12 12L12 10L11 10L11 9L12 9L12 8L11 8L11 9L10 9L10 8L9 8L9 9L10 9L10 10L11 10L11 11L9 11L9 12L8 12L8 13L6 13L6 12L5 12L5 11L6 11L6 10L4 10L4 12L5 12L5 13L4 13L4 16L3 16L3 12L2 12L2 15L1 15L1 16L2 16L2 17L1 17L1 18L2 18L2 17L5 17L5 14L7 14L7 15L6 15L6 16L8 16L8 17L6 17L6 18L5 18L5 20L8 20L8 22L7 22L7 21L5 21L5 22L7 22L7 23L5 23L5 24L7 24L7 25L5 25L5 26L4 26L4 25L3 25L3 24L2 24L2 25L3 25L3 26L4 26L4 28L5 28L5 27L6 27L6 28L7 28L7 29L6 29L6 30L5 30L5 31L6 31L6 32L7 32L7 31L6 31L6 30L8 30L8 31L9 31L9 30L8 30L8 29L9 29L9 27L10 27L10 26L12 26L12 28L14 28L14 27L15 27L15 26L14 26L14 25L16 25L16 24L17 24L17 25L18 25L18 26L20 26L20 24L19 24L19 23L22 23L22 22L23 22L23 25L22 25L22 24L21 24L21 25L22 25L22 27L21 27L21 29L22 29L22 30L23 30L23 31L25 31L25 30L26 30L26 28L27 28L27 27L26 27L26 26L25 26L25 25L27 25L27 26L28 26L28 25L29 25L29 24L31 24L31 25L30 25L30 26L29 26L29 27L28 27L28 28L30 28L30 29L28 29L28 30L29 30L29 31L28 31L28 33L27 33L27 31L26 31L26 32L23 32L23 33L22 33L22 34L21 34L21 35L22 35L22 34L23 34L23 35L24 35L24 36L25 36L25 35L27 35L27 36L28 36L28 35L29 35L29 34L28 34L28 33L29 33L29 32L30 32L30 33L31 33L31 34L30 34L30 35L31 35L31 34L32 34L32 33L31 33L31 30L32 30L32 31L33 31L33 32L35 32L35 31L36 31L36 30L35 30L35 29L38 29L38 30L37 30L37 31L38 31L38 30L39 30L39 26L38 26L38 28L35 28L35 27L37 27L37 26L36 26L36 25L35 25L35 24L36 24L36 23L35 23L35 22L36 22L36 21L35 21L35 19L34 19L34 18L33 18L33 19L32 19L32 18L31 18L31 17L29 17L29 16L28 16L28 15L29 15L29 14L30 14L30 13L29 13L29 12L31 12L31 11L32 11L32 12L33 12L33 13L34 13L34 12L33 12L33 11L34 11L34 9L32 9L32 10L31 10L31 11L29 11L29 10L30 10L30 9L26 9L26 8L24 8L24 9L23 9L23 7L24 7L24 6L23 6L23 7L22 7L22 6ZM35 9L35 10L36 10L36 9ZM21 10L21 12L22 12L22 13L23 13L23 14L24 14L24 15L25 15L25 17L24 17L24 16L23 16L23 15L22 15L22 14L21 14L21 13L20 13L20 14L19 14L19 13L18 13L18 14L17 14L17 15L16 15L16 16L15 16L15 17L16 17L16 16L17 16L17 17L18 17L18 19L15 19L15 20L14 20L14 23L12 23L12 24L11 24L11 23L10 23L10 22L13 22L13 21L9 21L9 23L8 23L8 24L9 24L9 25L7 25L7 26L6 26L6 27L7 27L7 28L8 28L8 26L9 26L9 25L10 25L10 24L11 24L11 25L12 25L12 24L13 24L13 25L14 25L14 24L16 24L16 23L17 23L17 22L20 22L20 19L21 19L21 18L22 18L22 21L21 21L21 22L22 22L22 21L24 21L24 24L25 24L25 22L26 22L26 24L28 24L28 23L29 23L29 21L28 21L28 20L29 20L29 18L27 18L27 17L26 17L26 15L27 15L27 14L29 14L29 13L28 13L28 12L29 12L29 11L28 11L28 10L27 10L27 11L28 11L28 12L24 12L24 11L23 11L23 10ZM19 11L19 12L20 12L20 11ZM25 13L25 14L27 14L27 13ZM8 14L8 15L9 15L9 14ZM20 14L20 15L19 15L19 16L18 16L18 17L19 17L19 16L21 16L21 17L23 17L23 16L21 16L21 14ZM36 16L36 17L38 17L38 16ZM40 16L40 18L39 18L39 19L40 19L40 18L41 18L41 16ZM3 18L3 20L4 20L4 18ZM19 18L19 19L20 19L20 18ZM23 18L23 20L24 20L24 19L25 19L25 18ZM26 18L26 20L25 20L25 21L26 21L26 22L28 22L28 21L27 21L27 18ZM30 18L30 19L31 19L31 18ZM1 19L1 20L2 20L2 19ZM16 20L16 22L17 22L17 20ZM30 20L30 21L31 21L31 22L30 22L30 23L31 23L31 24L32 24L32 25L31 25L31 26L32 26L32 27L31 27L31 28L32 28L32 27L34 27L34 26L35 26L35 25L33 25L33 23L31 23L31 22L32 22L32 21L34 21L34 22L35 22L35 21L34 21L34 20L32 20L32 21L31 21L31 20ZM40 20L40 21L41 21L41 20ZM3 21L3 22L4 22L4 21ZM23 25L23 26L24 26L24 25ZM32 25L32 26L33 26L33 25ZM18 27L18 29L19 29L19 30L20 30L20 28L19 28L19 27ZM22 27L22 29L23 29L23 30L24 30L24 29L25 29L25 28L24 28L24 27ZM10 28L10 30L11 30L11 28ZM16 28L16 32L14 32L14 31L15 31L15 29L14 29L14 31L10 31L10 32L11 32L11 33L12 33L12 34L14 34L14 35L13 35L13 38L14 38L14 37L16 37L16 36L18 36L18 35L15 35L15 34L14 34L14 33L16 33L16 32L17 32L17 28ZM23 28L23 29L24 29L24 28ZM33 28L33 29L32 29L32 30L33 30L33 29L34 29L34 28ZM12 29L12 30L13 30L13 29ZM30 29L30 30L31 30L31 29ZM34 30L34 31L35 31L35 30ZM37 32L37 33L38 33L38 34L37 34L37 36L39 36L39 35L38 35L38 34L39 34L39 33L38 33L38 32ZM17 33L17 34L18 34L18 33ZM25 33L25 34L26 34L26 33ZM33 33L33 36L36 36L36 33ZM27 34L27 35L28 35L28 34ZM34 34L34 35L35 35L35 34ZM14 35L14 36L15 36L15 35ZM22 36L22 39L23 39L23 36ZM34 37L34 38L36 38L36 37ZM17 38L17 39L18 39L18 40L17 40L17 41L19 41L19 39L18 39L18 38ZM37 38L37 39L38 39L38 38ZM9 40L9 41L10 41L10 40ZM20 40L20 41L21 41L21 40ZM0 0L0 7L7 7L7 0ZM1 1L1 6L6 6L6 1ZM2 2L2 5L5 5L5 2ZM34 0L34 7L41 7L41 0ZM35 1L35 6L40 6L40 1ZM36 2L36 5L39 5L39 2ZM0 34L0 41L7 41L7 34ZM1 35L1 40L6 40L6 35ZM2 36L2 39L5 39L5 36Z" fill="#000000"/></g></g></svg>
