<?xml version="1.0" encoding="UTF-8"?>
<svg xmlns="http://www.w3.org/2000/svg" version="1.1" width="200" height="200" viewBox="0 0 200 200"><rect x="0" y="0" width="200" height="200" fill="#ffffff"/><g transform="scale(4.878)"><g transform="translate(0,0)"><path fill-rule="evenodd" d="M9 0L9 1L8 1L8 7L9 7L9 4L10 4L10 7L11 7L11 4L10 4L10 3L9 3L9 2L10 2L10 0ZM12 0L12 1L11 1L11 2L12 2L12 5L14 5L14 9L16 9L16 8L17 8L17 10L14 10L14 11L11 11L11 10L13 10L13 6L12 6L12 9L10 9L10 8L5 8L5 9L3 9L3 8L2 8L2 9L1 9L1 10L2 10L2 9L3 9L3 10L4 10L4 11L5 11L5 9L9 9L9 10L10 10L10 11L11 11L11 12L9 12L9 11L7 11L7 10L6 10L6 11L7 11L7 12L4 12L4 13L3 13L3 14L2 14L2 12L3 12L3 11L2 11L2 12L0 12L0 16L3 16L3 15L4 15L4 17L2 17L2 18L1 18L1 17L0 17L0 18L1 18L1 21L0 21L0 23L1 23L1 22L2 22L2 25L0 25L0 26L2 26L2 28L0 28L0 29L3 29L3 31L2 31L2 30L0 30L0 31L2 31L2 32L0 32L0 33L2 33L2 32L3 32L3 33L4 33L4 32L3 32L3 31L4 31L4 30L5 30L5 29L7 29L7 30L6 30L6 31L8 31L8 32L5 32L5 33L8 33L8 36L10 36L10 37L9 37L9 38L8 38L8 39L9 39L9 40L10 40L10 39L9 39L9 38L10 38L10 37L11 37L11 39L12 39L12 40L11 40L11 41L12 41L12 40L13 40L13 41L14 41L14 39L15 39L15 40L17 40L17 39L15 39L15 38L16 38L16 37L17 37L17 38L18 38L18 36L19 36L19 37L20 37L20 40L19 40L19 39L18 39L18 41L20 41L20 40L21 40L21 41L23 41L23 40L22 40L22 39L23 39L23 38L22 38L22 39L21 39L21 37L23 37L23 36L24 36L24 35L25 35L25 37L26 37L26 38L27 38L27 39L26 39L26 40L24 40L24 41L26 41L26 40L27 40L27 41L29 41L29 40L27 40L27 39L28 39L28 38L29 38L29 37L30 37L30 35L29 35L29 36L28 36L28 32L27 32L27 31L28 31L28 30L27 30L27 29L28 29L28 27L30 27L30 28L31 28L31 29L32 29L32 31L31 31L31 30L30 30L30 31L31 31L31 32L32 32L32 33L31 33L31 34L32 34L32 36L31 36L31 37L32 37L32 39L31 39L31 38L30 38L30 39L31 39L31 41L36 41L36 40L37 40L37 41L39 41L39 39L41 39L41 33L40 33L40 31L41 31L41 25L39 25L39 24L37 24L37 26L38 26L38 27L37 27L37 29L39 29L39 28L40 28L40 30L35 30L35 31L36 31L36 32L34 32L34 31L33 31L33 30L34 30L34 29L35 29L35 28L36 28L36 24L34 24L34 23L35 23L35 20L36 20L36 21L38 21L38 23L39 23L39 22L40 22L40 24L41 24L41 22L40 22L40 21L38 21L38 19L39 19L39 20L40 20L40 19L41 19L41 17L40 17L40 19L39 19L39 18L38 18L38 19L36 19L36 18L35 18L35 16L34 16L34 15L35 15L35 14L33 14L33 17L34 17L34 18L35 18L35 20L34 20L34 19L33 19L33 22L32 22L32 20L31 20L31 19L32 19L32 16L30 16L30 18L28 18L28 17L29 17L29 15L32 15L32 14L29 14L29 12L28 12L28 10L29 10L29 11L32 11L32 8L33 8L33 10L35 10L35 11L34 11L34 12L35 12L35 13L36 13L36 11L37 11L37 14L36 14L36 15L38 15L38 13L39 13L39 16L40 16L40 15L41 15L41 12L40 12L40 13L39 13L39 12L38 12L38 11L37 11L37 10L35 10L35 9L39 9L39 11L41 11L41 9L40 9L40 8L35 8L35 9L34 9L34 8L33 8L33 6L32 6L32 7L31 7L31 1L29 1L29 0L28 0L28 2L27 2L27 4L28 4L28 5L30 5L30 10L29 10L29 6L28 6L28 8L27 8L27 6L26 6L26 4L25 4L25 6L24 6L24 5L23 5L23 4L22 4L22 2L24 2L24 3L26 3L26 2L25 2L25 1L26 1L26 0L24 0L24 1L22 1L22 0L20 0L20 1L19 1L19 0L18 0L18 2L19 2L19 3L16 3L16 4L17 4L17 5L18 5L18 4L19 4L19 3L20 3L20 1L21 1L21 4L22 4L22 7L21 7L21 6L20 6L20 9L19 9L19 10L21 10L21 9L23 9L23 10L22 10L22 11L21 11L21 12L24 12L24 13L23 13L23 14L21 14L21 13L20 13L20 11L19 11L19 14L16 14L16 15L15 15L15 13L17 13L17 12L18 12L18 11L17 11L17 10L18 10L18 8L17 8L17 6L16 6L16 8L15 8L15 5L14 5L14 4L15 4L15 2L16 2L16 0ZM32 0L32 1L33 1L33 0ZM12 1L12 2L14 2L14 1ZM28 2L28 3L29 3L29 4L30 4L30 2ZM32 3L32 5L33 5L33 3ZM18 6L18 7L19 7L19 6ZM23 6L23 8L24 8L24 10L23 10L23 11L25 11L25 12L27 12L27 11L25 11L25 7L26 7L26 6L25 6L25 7L24 7L24 6ZM26 9L26 10L27 10L27 9ZM15 11L15 12L11 12L11 13L12 13L12 14L10 14L10 13L9 13L9 12L8 12L8 13L5 13L5 14L8 14L8 15L5 15L5 16L8 16L8 17L6 17L6 18L7 18L7 19L6 19L6 20L5 20L5 23L4 23L4 21L3 21L3 20L4 20L4 18L2 18L2 21L3 21L3 24L5 24L5 25L4 25L4 26L5 26L5 27L3 27L3 29L5 29L5 27L6 27L6 28L7 28L7 27L9 27L9 25L10 25L10 26L12 26L12 28L11 28L11 27L10 27L10 28L8 28L8 30L9 30L9 31L10 31L10 32L9 32L9 33L11 33L11 34L9 34L9 35L10 35L10 36L11 36L11 34L12 34L12 35L13 35L13 34L12 34L12 33L11 33L11 32L13 32L13 33L14 33L14 32L16 32L16 33L17 33L17 34L15 34L15 35L17 35L17 36L18 36L18 33L21 33L21 34L20 34L20 37L21 37L21 34L22 34L22 35L23 35L23 34L22 34L22 33L24 33L24 34L25 34L25 33L27 33L27 32L26 32L26 31L27 31L27 30L26 30L26 31L24 31L24 29L27 29L27 25L26 25L26 24L28 24L28 23L29 23L29 25L30 25L30 23L31 23L31 24L32 24L32 27L31 27L31 26L30 26L30 27L31 27L31 28L33 28L33 26L34 26L34 24L33 24L33 23L34 23L34 22L33 22L33 23L31 23L31 22L30 22L30 21L29 21L29 22L28 22L28 23L26 23L26 22L27 22L27 19L26 19L26 18L24 18L24 21L23 21L23 22L21 22L21 21L22 21L22 20L21 20L21 21L20 21L20 20L19 20L19 22L18 22L18 21L16 21L16 20L15 20L15 19L14 19L14 18L13 18L13 16L14 16L14 17L15 17L15 18L18 18L18 19L19 19L19 18L21 18L21 17L22 17L22 16L23 16L23 17L25 17L25 16L26 16L26 17L28 17L28 16L27 16L27 15L28 15L28 13L25 13L25 14L23 14L23 15L19 15L19 16L20 16L20 17L19 17L19 18L18 18L18 17L15 17L15 16L14 16L14 15L13 15L13 16L12 16L12 14L13 14L13 13L15 13L15 12L17 12L17 11ZM30 12L30 13L32 13L32 12ZM8 13L8 14L9 14L9 15L10 15L10 17L11 17L11 15L10 15L10 14L9 14L9 13ZM25 14L25 15L23 15L23 16L25 16L25 15L27 15L27 14ZM8 17L8 18L9 18L9 17ZM10 18L10 20L11 20L11 19L12 19L12 18ZM22 18L22 19L23 19L23 18ZM7 19L7 20L6 20L6 21L7 21L7 22L6 22L6 23L7 23L7 22L10 22L10 23L8 23L8 24L6 24L6 25L5 25L5 26L6 26L6 27L7 27L7 26L6 26L6 25L8 25L8 24L10 24L10 25L11 25L11 24L13 24L13 25L12 25L12 26L15 26L15 25L16 25L16 26L18 26L18 28L19 28L19 30L18 30L18 31L17 31L17 30L16 30L16 32L17 32L17 33L18 33L18 32L19 32L19 31L20 31L20 32L21 32L21 31L20 31L20 28L19 28L19 27L20 27L20 24L22 24L22 25L21 25L21 30L22 30L22 28L25 28L25 27L26 27L26 26L25 26L25 24L26 24L26 23L25 23L25 24L24 24L24 22L25 22L25 21L24 21L24 22L23 22L23 23L21 23L21 22L20 22L20 23L19 23L19 26L18 26L18 25L16 25L16 24L15 24L15 23L18 23L18 22L15 22L15 23L14 23L14 24L13 24L13 22L14 22L14 21L15 21L15 20L12 20L12 21L11 21L11 22L10 22L10 21L7 21L7 20L9 20L9 19ZM25 19L25 20L26 20L26 19ZM29 19L29 20L30 20L30 19ZM12 21L12 22L11 22L11 23L12 23L12 22L13 22L13 21ZM29 22L29 23L30 23L30 22ZM36 22L36 23L37 23L37 22ZM14 24L14 25L15 25L15 24ZM22 25L22 26L23 26L23 25ZM24 26L24 27L25 27L25 26ZM13 27L13 28L12 28L12 30L13 30L13 29L14 29L14 30L15 30L15 28L16 28L16 29L17 29L17 27L15 27L15 28L14 28L14 27ZM34 27L34 28L35 28L35 27ZM38 27L38 28L39 28L39 27ZM10 28L10 30L11 30L11 28ZM13 31L13 32L14 32L14 31ZM23 31L23 32L24 32L24 33L25 33L25 32L24 32L24 31ZM37 31L37 33L38 33L38 34L37 34L37 35L38 35L38 37L39 37L39 38L38 38L38 39L39 39L39 38L40 38L40 37L39 37L39 36L40 36L40 35L38 35L38 34L40 34L40 33L39 33L39 31ZM29 33L29 34L30 34L30 33ZM33 33L33 36L36 36L36 33ZM26 34L26 35L27 35L27 34ZM34 34L34 35L35 35L35 34ZM12 36L12 37L13 37L13 38L12 38L12 39L13 39L13 38L14 38L14 37L16 37L16 36ZM26 36L26 37L27 37L27 36ZM33 37L33 39L34 39L34 40L35 40L35 39L36 39L36 38L37 38L37 37ZM24 38L24 39L25 39L25 38ZM40 40L40 41L41 41L41 40ZM0 0L0 7L7 7L7 0ZM1 1L1 6L6 6L6 1ZM2 2L2 5L5 5L5 2ZM34 0L34 7L41 7L41 0ZM35 1L35 6L40 6L40 1ZM36 2L36 5L39 5L39 2ZM0 34L0 41L7 41L7 34ZM1 35L1 40L6 40L6 35ZM2 36L2 39L5 39L5 36Z" fill="#000000"/></g></g></svg>
