<?xml version="1.0" encoding="UTF-8"?>
<svg xmlns="http://www.w3.org/2000/svg" version="1.1" width="200" height="200" viewBox="0 0 200 200"><rect x="0" y="0" width="200" height="200" fill="#ffffff"/><g transform="scale(4.878)"><g transform="translate(0,0)"><path fill-rule="evenodd" d="M8 0L8 2L9 2L9 1L11 1L11 2L10 2L10 3L8 3L8 7L9 7L9 8L10 8L10 7L11 7L11 9L9 9L9 10L8 10L8 9L7 9L7 8L6 8L6 9L5 9L5 10L0 10L0 12L3 12L3 14L2 14L2 15L4 15L4 14L5 14L5 15L8 15L8 14L10 14L10 15L11 15L11 16L8 16L8 17L7 17L7 16L3 16L3 17L2 17L2 16L1 16L1 15L0 15L0 19L2 19L2 22L1 22L1 21L0 21L0 25L1 25L1 26L2 26L2 27L1 27L1 28L0 28L0 29L2 29L2 27L3 27L3 32L4 32L4 33L7 33L7 32L9 32L9 31L8 31L8 30L10 30L10 33L8 33L8 34L12 34L12 33L13 33L13 32L15 32L15 33L14 33L14 34L15 34L15 33L16 33L16 32L19 32L19 33L18 33L18 34L19 34L19 33L20 33L20 32L21 32L21 35L18 35L18 37L19 37L19 39L18 39L18 38L17 38L17 37L16 37L16 36L15 36L15 35L13 35L13 36L12 36L12 35L9 35L9 37L8 37L8 38L9 38L9 39L10 39L10 40L9 40L9 41L10 41L10 40L11 40L11 41L13 41L13 40L14 40L14 41L16 41L16 40L19 40L19 39L20 39L20 36L21 36L21 37L24 37L24 35L22 35L22 34L24 34L24 33L25 33L25 34L27 34L27 33L26 33L26 32L28 32L28 34L29 34L29 36L28 36L28 35L25 35L25 37L26 37L26 39L25 39L25 40L24 40L24 39L23 39L23 40L24 40L24 41L25 41L25 40L26 40L26 41L33 41L33 39L34 39L34 38L36 38L36 40L37 40L37 41L40 41L40 39L41 39L41 38L40 38L40 37L41 37L41 36L40 36L40 37L38 37L38 36L39 36L39 34L41 34L41 32L40 32L40 33L39 33L39 32L35 32L35 31L34 31L34 30L32 30L32 29L33 29L33 28L31 28L31 27L30 27L30 26L32 26L32 25L31 25L31 23L33 23L33 21L32 21L32 22L31 22L31 17L32 17L32 18L33 18L33 19L34 19L34 22L35 22L35 23L37 23L37 24L38 24L38 25L37 25L37 26L36 26L36 24L33 24L33 26L34 26L34 27L35 27L35 29L36 29L36 28L37 28L37 30L36 30L36 31L38 31L38 30L40 30L40 31L41 31L41 29L40 29L40 27L41 27L41 26L40 26L40 27L39 27L39 28L37 28L37 27L38 27L38 26L39 26L39 25L40 25L40 24L41 24L41 23L40 23L40 22L39 22L39 21L40 21L40 20L41 20L41 16L39 16L39 17L38 17L38 16L37 16L37 19L36 19L36 21L35 21L35 19L34 19L34 18L35 18L35 17L36 17L36 16L35 16L35 17L32 17L32 15L33 15L33 14L34 14L34 15L41 15L41 14L40 14L40 13L39 13L39 12L40 12L40 11L38 11L38 13L37 13L37 14L36 14L36 13L34 13L34 12L35 12L35 9L37 9L37 10L38 10L38 8L35 8L35 9L33 9L33 8L32 8L32 7L33 7L33 6L32 6L32 5L31 5L31 4L32 4L32 3L31 3L31 1L33 1L33 0L31 0L31 1L30 1L30 0L27 0L27 2L26 2L26 3L25 3L25 2L24 2L24 3L23 3L23 1L25 1L25 0L20 0L20 3L19 3L19 2L18 2L18 1L19 1L19 0L15 0L15 1L14 1L14 0L13 0L13 1L12 1L12 0ZM21 1L21 2L22 2L22 1ZM28 1L28 2L27 2L27 3L26 3L26 4L23 4L23 3L21 3L21 5L19 5L19 7L18 7L18 4L17 4L17 3L18 3L18 2L17 2L17 3L15 3L15 5L16 5L16 6L15 6L15 7L16 7L16 8L17 8L17 7L18 7L18 9L19 9L19 11L20 11L20 12L19 12L19 13L20 13L20 15L18 15L18 12L17 12L17 13L16 13L16 14L15 14L15 17L16 17L16 16L17 16L17 17L18 17L18 18L16 18L16 19L15 19L15 18L14 18L14 19L12 19L12 20L11 20L11 21L10 21L10 24L11 24L11 22L15 22L15 23L14 23L14 25L13 25L13 24L12 24L12 25L9 25L9 26L7 26L7 25L6 25L6 26L5 26L5 25L3 25L3 24L1 24L1 25L3 25L3 26L4 26L4 27L5 27L5 28L4 28L4 32L7 32L7 31L5 31L5 30L7 30L7 29L9 29L9 28L8 28L8 27L9 27L9 26L13 26L13 27L12 27L12 29L11 29L11 28L10 28L10 30L11 30L11 31L14 31L14 30L16 30L16 29L14 29L14 28L15 28L15 27L17 27L17 28L18 28L18 29L17 29L17 30L18 30L18 31L19 31L19 30L18 30L18 29L19 29L19 28L20 28L20 30L21 30L21 29L22 29L22 28L21 28L21 27L23 27L23 28L24 28L24 29L25 29L25 28L24 28L24 26L22 26L22 25L21 25L21 24L20 24L20 22L19 22L19 21L20 21L20 20L21 20L21 23L22 23L22 22L23 22L23 21L22 21L22 19L23 19L23 15L24 15L24 16L25 16L25 17L24 17L24 19L25 19L25 17L26 17L26 20L25 20L25 22L27 22L27 23L28 23L28 18L29 18L29 19L30 19L30 17L29 17L29 16L28 16L28 15L26 15L26 14L27 14L27 13L28 13L28 14L29 14L29 15L30 15L30 16L31 16L31 15L32 15L32 14L33 14L33 11L31 11L31 10L33 10L33 9L32 9L32 8L31 8L31 10L28 10L28 8L27 8L27 7L28 7L28 6L27 6L27 7L26 7L26 6L25 6L25 7L24 7L24 6L23 6L23 5L27 5L27 4L29 4L29 7L30 7L30 6L31 6L31 7L32 7L32 6L31 6L31 5L30 5L30 4L29 4L29 3L30 3L30 1ZM11 2L11 3L12 3L12 4L13 4L13 5L14 5L14 4L13 4L13 2ZM9 4L9 5L11 5L11 4ZM16 4L16 5L17 5L17 4ZM9 6L9 7L10 7L10 6ZM11 6L11 7L12 7L12 10L11 10L11 12L10 12L10 13L11 13L11 15L12 15L12 13L13 13L13 16L14 16L14 13L15 13L15 12L14 12L14 11L12 11L12 10L14 10L14 9L15 9L15 8L13 8L13 7L14 7L14 6L13 6L13 7L12 7L12 6ZM16 6L16 7L17 7L17 6ZM20 6L20 7L19 7L19 9L20 9L20 11L21 11L21 12L23 12L23 13L24 13L24 12L23 12L23 11L22 11L22 9L23 9L23 8L24 8L24 10L25 10L25 11L27 11L27 10L25 10L25 8L24 8L24 7L23 7L23 6L22 6L22 7L23 7L23 8L22 8L22 9L21 9L21 6ZM3 8L3 9L4 9L4 8ZM26 8L26 9L27 9L27 8ZM29 8L29 9L30 9L30 8ZM39 8L39 9L40 9L40 10L41 10L41 8ZM6 9L6 10L5 10L5 11L6 11L6 12L4 12L4 11L3 11L3 12L4 12L4 13L5 13L5 14L8 14L8 13L9 13L9 11L10 11L10 10L9 10L9 11L8 11L8 10L7 10L7 9ZM16 9L16 10L15 10L15 11L17 11L17 9ZM6 10L6 11L7 11L7 12L6 12L6 13L7 13L7 12L8 12L8 11L7 11L7 10ZM28 11L28 13L29 13L29 14L30 14L30 15L31 15L31 14L30 14L30 13L31 13L31 11L30 11L30 12L29 12L29 11ZM25 12L25 14L24 14L24 15L25 15L25 14L26 14L26 12ZM21 13L21 14L22 14L22 15L23 15L23 14L22 14L22 13ZM38 13L38 14L39 14L39 13ZM16 14L16 15L17 15L17 14ZM20 15L20 16L18 16L18 17L19 17L19 18L21 18L21 19L22 19L22 16L21 16L21 15ZM27 16L27 17L28 17L28 16ZM6 17L6 18L5 18L5 20L4 20L4 21L5 21L5 22L4 22L4 24L5 24L5 23L6 23L6 24L7 24L7 23L8 23L8 24L9 24L9 23L8 23L8 22L9 22L9 20L10 20L10 19L11 19L11 18L9 18L9 17L8 17L8 18L7 18L7 17ZM12 17L12 18L13 18L13 17ZM39 17L39 19L37 19L37 20L40 20L40 17ZM3 18L3 19L4 19L4 18ZM6 18L6 19L7 19L7 20L6 20L6 21L8 21L8 19L9 19L9 18L8 18L8 19L7 19L7 18ZM14 19L14 20L15 20L15 21L16 21L16 23L15 23L15 24L16 24L16 25L17 25L17 27L18 27L18 24L19 24L19 23L18 23L18 22L17 22L17 21L19 21L19 19L18 19L18 20L15 20L15 19ZM12 20L12 21L13 21L13 20ZM26 20L26 21L27 21L27 20ZM36 21L36 22L37 22L37 23L38 23L38 22L37 22L37 21ZM6 22L6 23L7 23L7 22ZM29 22L29 24L27 24L27 26L25 26L25 27L26 27L26 28L27 28L27 29L28 29L28 30L26 30L26 31L25 31L25 30L24 30L24 31L25 31L25 32L26 32L26 31L29 31L29 30L30 30L30 31L31 31L31 30L30 30L30 29L28 29L28 28L29 28L29 27L28 27L28 25L29 25L29 26L30 26L30 25L29 25L29 24L30 24L30 22ZM16 23L16 24L17 24L17 23ZM24 23L24 24L23 24L23 25L24 25L24 24L25 24L25 25L26 25L26 24L25 24L25 23ZM14 25L14 27L13 27L13 28L14 28L14 27L15 27L15 25ZM20 25L20 27L21 27L21 25ZM34 25L34 26L35 26L35 27L36 27L36 26L35 26L35 25ZM6 26L6 27L7 27L7 26ZM27 27L27 28L28 28L28 27ZM6 28L6 29L7 29L7 28ZM13 29L13 30L14 30L14 29ZM0 30L0 31L1 31L1 30ZM15 31L15 32L16 32L16 31ZM21 31L21 32L22 32L22 33L23 33L23 32L22 32L22 31ZM33 31L33 32L34 32L34 31ZM0 32L0 33L1 33L1 32ZM29 32L29 34L30 34L30 36L29 36L29 37L27 37L27 36L26 36L26 37L27 37L27 39L28 39L28 40L29 40L29 39L30 39L30 38L32 38L32 39L31 39L31 40L32 40L32 39L33 39L33 38L32 38L32 36L31 36L31 35L32 35L32 33L31 33L31 34L30 34L30 32ZM33 33L33 36L36 36L36 33ZM37 33L37 35L38 35L38 34L39 34L39 33ZM34 34L34 35L35 35L35 34ZM21 35L21 36L22 36L22 35ZM13 36L13 38L12 38L12 37L10 37L10 38L12 38L12 39L11 39L11 40L12 40L12 39L14 39L14 36ZM15 37L15 40L16 40L16 37ZM29 37L29 38L28 38L28 39L29 39L29 38L30 38L30 37ZM36 37L36 38L37 38L37 40L38 40L38 38L37 38L37 37ZM21 38L21 41L22 41L22 38ZM39 38L39 39L40 39L40 38ZM0 0L0 7L7 7L7 0ZM1 1L1 6L6 6L6 1ZM2 2L2 5L5 5L5 2ZM34 0L34 7L41 7L41 0ZM35 1L35 6L40 6L40 1ZM36 2L36 5L39 5L39 2ZM0 34L0 41L7 41L7 34ZM1 35L1 40L6 40L6 35ZM2 36L2 39L5 39L5 36Z" fill="#000000"/></g></g></svg>
