<?xml version="1.0" encoding="UTF-8"?>
<svg xmlns="http://www.w3.org/2000/svg" version="1.1" width="200" height="200" viewBox="0 0 200 200"><rect x="0" y="0" width="200" height="200" fill="#ffffff"/><g transform="scale(6.897)"><g transform="translate(0,0)"><path fill-rule="evenodd" d="M8 0L8 3L9 3L9 5L8 5L8 9L7 9L7 8L6 8L6 9L5 9L5 8L2 8L2 9L1 9L1 10L0 10L0 14L1 14L1 15L2 15L2 16L0 16L0 21L1 21L1 17L2 17L2 16L5 16L5 15L4 15L4 14L5 14L5 13L7 13L7 14L6 14L6 15L7 15L7 16L6 16L6 17L5 17L5 20L2 20L2 21L7 21L7 20L6 20L6 19L8 19L8 20L9 20L9 19L10 19L10 21L11 21L11 22L10 22L10 23L9 23L9 24L8 24L8 27L9 27L9 28L10 28L10 27L9 27L9 26L10 26L10 25L11 25L11 27L12 27L12 28L11 28L11 29L12 29L12 28L13 28L13 29L15 29L15 28L16 28L16 29L17 29L17 28L18 28L18 29L25 29L25 27L23 27L23 26L22 26L22 25L24 25L24 26L25 26L25 25L26 25L26 27L27 27L27 29L28 29L28 28L29 28L29 27L28 27L28 23L29 23L29 20L28 20L28 19L27 19L27 17L28 17L28 14L26 14L26 13L25 13L25 12L27 12L27 13L28 13L28 10L29 10L29 8L26 8L26 9L27 9L27 10L25 10L25 12L24 12L24 11L22 11L22 12L23 12L23 13L21 13L21 15L22 15L22 14L23 14L23 13L24 13L24 19L25 19L25 20L23 20L23 19L22 19L22 18L20 18L20 19L21 19L21 20L20 20L20 25L19 25L19 24L18 24L18 23L17 23L17 22L18 22L18 21L19 21L19 18L18 18L18 17L16 17L16 16L19 16L19 15L18 15L18 14L19 14L19 13L20 13L20 12L21 12L21 11L20 11L20 10L22 10L22 9L23 9L23 10L24 10L24 8L21 8L21 5L20 5L20 4L21 4L21 3L20 3L20 4L19 4L19 3L18 3L18 4L17 4L17 6L16 6L16 8L13 8L13 6L12 6L12 7L11 7L11 5L13 5L13 4L15 4L15 5L14 5L14 7L15 7L15 5L16 5L16 2L17 2L17 1L16 1L16 0L14 0L14 1L15 1L15 3L14 3L14 2L13 2L13 0L12 0L12 2L11 2L11 0ZM9 1L9 3L11 3L11 2L10 2L10 1ZM18 1L18 2L19 2L19 1ZM20 1L20 2L21 2L21 1ZM12 2L12 3L13 3L13 2ZM18 4L18 6L17 6L17 7L18 7L18 6L19 6L19 7L20 7L20 6L19 6L19 4ZM9 5L9 7L10 7L10 5ZM17 8L17 9L19 9L19 10L20 10L20 9L21 9L21 8L20 8L20 9L19 9L19 8ZM2 9L2 11L1 11L1 14L3 14L3 13L5 13L5 12L7 12L7 13L9 13L9 14L7 14L7 15L10 15L10 17L9 17L9 16L7 16L7 17L6 17L6 18L7 18L7 17L9 17L9 18L10 18L10 17L11 17L11 18L13 18L13 17L14 17L14 18L15 18L15 20L14 20L14 19L11 19L11 20L12 20L12 21L13 21L13 22L11 22L11 23L12 23L12 27L13 27L13 28L15 28L15 26L14 26L14 25L15 25L15 24L17 24L17 25L16 25L16 28L17 28L17 25L18 25L18 26L19 26L19 25L18 25L18 24L17 24L17 23L16 23L16 22L17 22L17 21L18 21L18 20L17 20L17 21L16 21L16 22L15 22L15 23L13 23L13 22L14 22L14 21L15 21L15 20L16 20L16 19L18 19L18 18L16 18L16 17L15 17L15 16L13 16L13 14L14 14L14 15L17 15L17 14L16 14L16 13L14 13L14 12L13 12L13 11L14 11L14 10L13 10L13 11L12 11L12 13L9 13L9 12L11 12L11 10L12 10L12 9L11 9L11 10L9 10L9 9L8 9L8 12L7 12L7 11L6 11L6 10L7 10L7 9L6 9L6 10L5 10L5 12L2 12L2 11L4 11L4 9ZM15 9L15 10L16 10L16 9ZM17 10L17 11L18 11L18 10ZM15 11L15 12L16 12L16 11ZM12 13L12 14L10 14L10 15L11 15L11 16L12 16L12 17L13 17L13 16L12 16L12 14L13 14L13 13ZM25 15L25 16L27 16L27 15ZM20 16L20 17L22 17L22 16ZM2 18L2 19L3 19L3 18ZM25 18L25 19L26 19L26 20L25 20L25 21L26 21L26 22L25 22L25 24L26 24L26 25L27 25L27 23L26 23L26 22L28 22L28 20L27 20L27 19L26 19L26 18ZM13 20L13 21L14 21L14 20ZM8 21L8 22L9 22L9 21ZM21 21L21 24L24 24L24 21ZM22 22L22 23L23 23L23 22ZM13 24L13 25L14 25L14 24ZM20 26L20 27L19 27L19 28L22 28L22 27L21 27L21 26ZM0 0L0 7L7 7L7 0ZM1 1L1 6L6 6L6 1ZM2 2L2 5L5 5L5 2ZM22 0L22 7L29 7L29 0ZM23 1L23 6L28 6L28 1ZM24 2L24 5L27 5L27 2ZM0 22L0 29L7 29L7 22ZM1 23L1 28L6 28L6 23ZM2 24L2 27L5 27L5 24Z" fill="#000000"/></g></g></svg>
