<?xml version="1.0" encoding="UTF-8"?>
<svg xmlns="http://www.w3.org/2000/svg" version="1.1" width="200" height="200" viewBox="0 0 200 200"><rect x="0" y="0" width="200" height="200" fill="#ffffff"/><g transform="scale(6.897)"><g transform="translate(0,0)"><path fill-rule="evenodd" d="M11 0L11 2L10 2L10 1L8 1L8 7L9 7L9 8L5 8L5 9L4 9L4 10L2 10L2 11L1 11L1 9L0 9L0 13L1 13L1 14L3 14L3 15L1 15L1 17L2 17L2 18L0 18L0 19L2 19L2 18L5 18L5 17L7 17L7 16L4 16L4 13L5 13L5 14L6 14L6 15L8 15L8 18L9 18L9 17L10 17L10 19L11 19L11 20L10 20L10 21L9 21L9 20L8 20L8 19L7 19L7 18L6 18L6 19L7 19L7 20L6 20L6 21L7 21L7 20L8 20L8 24L9 24L9 22L12 22L12 23L10 23L10 26L8 26L8 27L11 27L11 29L12 29L12 27L11 27L11 24L12 24L12 23L13 23L13 22L14 22L14 21L13 21L13 22L12 22L12 21L11 21L11 20L14 20L14 19L17 19L17 20L18 20L18 21L20 21L20 22L19 22L19 23L20 23L20 24L18 24L18 22L17 22L17 21L16 21L16 20L15 20L15 21L16 21L16 22L15 22L15 24L13 24L13 25L12 25L12 26L13 26L13 27L15 27L15 29L16 29L16 28L17 28L17 29L18 29L18 28L19 28L19 26L20 26L20 27L21 27L21 29L22 29L22 28L24 28L24 29L25 29L25 28L24 28L24 26L23 26L23 27L22 27L22 26L21 26L21 25L25 25L25 23L26 23L26 21L27 21L27 23L28 23L28 22L29 22L29 21L27 21L27 19L26 19L26 20L23 20L23 19L25 19L25 18L28 18L28 19L29 19L29 18L28 18L28 17L29 17L29 16L27 16L27 17L25 17L25 16L22 16L22 15L25 15L25 14L26 14L26 13L27 13L27 15L29 15L29 14L28 14L28 13L29 13L29 12L27 12L27 11L29 11L29 9L28 9L28 8L23 8L23 10L22 10L22 11L21 11L21 9L22 9L22 8L21 8L21 0L19 0L19 1L20 1L20 2L19 2L19 3L20 3L20 5L14 5L14 3L15 3L15 2L12 2L12 1L14 1L14 0ZM15 0L15 1L16 1L16 2L17 2L17 3L16 3L16 4L17 4L17 3L18 3L18 2L17 2L17 1L18 1L18 0L17 0L17 1L16 1L16 0ZM9 2L9 4L10 4L10 5L11 5L11 4L10 4L10 2ZM12 4L12 5L13 5L13 4ZM9 6L9 7L10 7L10 9L12 9L12 10L9 10L9 11L8 11L8 12L7 12L7 11L6 11L6 10L7 10L7 9L5 9L5 11L4 11L4 12L7 12L7 13L6 13L6 14L9 14L9 16L10 16L10 17L11 17L11 15L13 15L13 16L12 16L12 19L13 19L13 17L14 17L14 18L15 18L15 17L14 17L14 16L15 16L15 15L13 15L13 13L12 13L12 10L14 10L14 11L15 11L15 12L14 12L14 13L15 13L15 14L16 14L16 11L17 11L17 10L18 10L18 11L20 11L20 9L19 9L19 7L20 7L20 6L19 6L19 7L18 7L18 6L17 6L17 7L16 7L16 6L15 6L15 7L14 7L14 6L13 6L13 7L14 7L14 8L15 8L15 9L17 9L17 10L14 10L14 9L12 9L12 6L11 6L11 7L10 7L10 6ZM17 7L17 9L18 9L18 7ZM2 8L2 9L3 9L3 8ZM25 9L25 10L24 10L24 11L27 11L27 10L28 10L28 9ZM9 11L9 12L10 12L10 13L9 13L9 14L10 14L10 15L11 15L11 14L12 14L12 13L11 13L11 12L10 12L10 11ZM2 12L2 13L3 13L3 12ZM17 12L17 13L18 13L18 14L17 14L17 15L19 15L19 16L20 16L20 17L18 17L18 16L16 16L16 18L17 18L17 19L18 19L18 20L22 20L22 19L21 19L21 15L19 15L19 14L22 14L22 12L21 12L21 13L20 13L20 12L19 12L19 13L18 13L18 12ZM23 12L23 14L25 14L25 13L24 13L24 12ZM10 13L10 14L11 14L11 13ZM2 16L2 17L4 17L4 16ZM22 17L22 18L25 18L25 17ZM19 18L19 19L20 19L20 18ZM3 19L3 20L0 20L0 21L3 21L3 20L5 20L5 19ZM21 21L21 24L24 24L24 21ZM16 22L16 23L17 23L17 22ZM22 22L22 23L23 23L23 22ZM15 24L15 25L14 25L14 26L15 26L15 27L16 27L16 24ZM17 24L17 27L18 27L18 24ZM26 24L26 26L25 26L25 27L26 27L26 26L27 26L27 27L28 27L28 28L26 28L26 29L29 29L29 26L27 26L27 25L29 25L29 24ZM0 0L0 7L7 7L7 0ZM1 1L1 6L6 6L6 1ZM2 2L2 5L5 5L5 2ZM22 0L22 7L29 7L29 0ZM23 1L23 6L28 6L28 1ZM24 2L24 5L27 5L27 2ZM0 22L0 29L7 29L7 22ZM1 23L1 28L6 28L6 23ZM2 24L2 27L5 27L5 24Z" fill="#000000"/></g></g></svg>
