<?xml version="1.0" encoding="UTF-8"?>
<svg xmlns="http://www.w3.org/2000/svg" version="1.1" width="200" height="200" viewBox="0 0 200 200"><rect x="0" y="0" width="200" height="200" fill="#ffffff"/><g transform="scale(6.897)"><g transform="translate(0,0)"><path fill-rule="evenodd" d="M10 0L10 2L9 2L9 1L8 1L8 2L9 2L9 3L10 3L10 2L11 2L11 3L12 3L12 4L13 4L13 5L14 5L14 7L15 7L15 8L13 8L13 6L12 6L12 7L11 7L11 6L10 6L10 7L9 7L9 5L8 5L8 8L4 8L4 9L1 9L1 10L0 10L0 12L1 12L1 13L0 13L0 16L1 16L1 17L0 17L0 18L1 18L1 17L2 17L2 16L3 16L3 12L4 12L4 14L5 14L5 15L7 15L7 16L4 16L4 17L3 17L3 18L2 18L2 19L3 19L3 20L0 20L0 21L4 21L4 20L5 20L5 21L7 21L7 20L6 20L6 19L8 19L8 20L9 20L9 21L8 21L8 25L9 25L9 27L11 27L11 28L12 28L12 29L15 29L15 27L13 27L13 28L12 28L12 26L10 26L10 25L13 25L13 26L14 26L14 25L15 25L15 24L14 24L14 25L13 25L13 22L14 22L14 23L16 23L16 22L18 22L18 23L17 23L17 24L16 24L16 25L17 25L17 26L16 26L16 27L17 27L17 26L18 26L18 23L19 23L19 22L20 22L20 24L19 24L19 25L24 25L24 26L23 26L23 27L22 27L22 26L21 26L21 28L20 28L20 26L19 26L19 28L16 28L16 29L22 29L22 28L23 28L23 29L25 29L25 28L23 28L23 27L26 27L26 28L28 28L28 27L29 27L29 26L27 26L27 24L28 24L28 25L29 25L29 22L28 22L28 23L27 23L27 21L29 21L29 19L27 19L27 18L28 18L28 17L27 17L27 18L26 18L26 19L25 19L25 20L24 20L24 19L23 19L23 18L21 18L21 19L20 19L20 17L23 17L23 16L24 16L24 18L25 18L25 16L24 16L24 14L25 14L25 15L27 15L27 16L29 16L29 14L27 14L27 12L29 12L29 9L28 9L28 8L27 8L27 9L24 9L24 8L22 8L22 9L24 9L24 10L22 10L22 11L23 11L23 13L22 13L22 12L18 12L18 13L17 13L17 12L16 12L16 11L15 11L15 9L17 9L17 10L18 10L18 9L19 9L19 10L20 10L20 11L21 11L21 9L19 9L19 8L21 8L21 6L20 6L20 7L19 7L19 4L20 4L20 5L21 5L21 1L20 1L20 0L18 0L18 2L16 2L16 1L15 1L15 0L14 0L14 1L13 1L13 0L12 0L12 2L11 2L11 0ZM19 1L19 2L20 2L20 1ZM12 2L12 3L13 3L13 4L14 4L14 5L15 5L15 4L16 4L16 6L15 6L15 7L16 7L16 8L17 8L17 9L18 9L18 8L17 8L17 7L18 7L18 4L19 4L19 3L18 3L18 4L16 4L16 3L15 3L15 4L14 4L14 3L13 3L13 2ZM16 6L16 7L17 7L17 6ZM10 7L10 8L11 8L11 7ZM8 8L8 11L9 11L9 12L11 12L11 13L12 13L12 14L13 14L13 15L12 15L12 16L13 16L13 17L14 17L14 16L15 16L15 18L14 18L14 19L13 19L13 18L12 18L12 17L11 17L11 14L9 14L9 13L5 13L5 14L8 14L8 15L10 15L10 17L11 17L11 19L10 19L10 21L11 21L11 22L12 22L12 21L14 21L14 22L15 22L15 21L17 21L17 19L15 19L15 18L16 18L16 17L17 17L17 18L19 18L19 17L17 17L17 14L13 14L13 13L14 13L14 12L13 12L13 11L14 11L14 9L13 9L13 11L12 11L12 10L11 10L11 9L9 9L9 8ZM4 9L4 10L3 10L3 11L1 11L1 12L3 12L3 11L4 11L4 12L7 12L7 11L6 11L6 10L7 10L7 9ZM27 9L27 10L28 10L28 9ZM4 10L4 11L5 11L5 10ZM10 10L10 11L11 11L11 12L12 12L12 13L13 13L13 12L12 12L12 11L11 11L11 10ZM24 10L24 12L25 12L25 10ZM15 12L15 13L16 13L16 12ZM1 13L1 16L2 16L2 13ZM18 13L18 14L19 14L19 16L21 16L21 15L22 15L22 16L23 16L23 14L24 14L24 13L23 13L23 14L22 14L22 13L21 13L21 14L19 14L19 13ZM25 13L25 14L26 14L26 13ZM13 15L13 16L14 16L14 15ZM15 15L15 16L16 16L16 15ZM8 16L8 19L9 19L9 16ZM4 17L4 18L5 18L5 19L6 19L6 18L7 18L7 17L6 17L6 18L5 18L5 17ZM11 19L11 21L12 21L12 20L13 20L13 19ZM18 19L18 22L19 22L19 21L20 21L20 20L19 20L19 19ZM22 19L22 20L23 20L23 19ZM26 19L26 20L27 20L27 19ZM21 21L21 24L24 24L24 21ZM25 21L25 25L26 25L26 24L27 24L27 23L26 23L26 21ZM9 22L9 24L12 24L12 23L10 23L10 22ZM22 22L22 23L23 23L23 22ZM26 26L26 27L27 27L27 26ZM9 28L9 29L10 29L10 28ZM0 0L0 7L7 7L7 0ZM1 1L1 6L6 6L6 1ZM2 2L2 5L5 5L5 2ZM22 0L22 7L29 7L29 0ZM23 1L23 6L28 6L28 1ZM24 2L24 5L27 5L27 2ZM0 22L0 29L7 29L7 22ZM1 23L1 28L6 28L6 23ZM2 24L2 27L5 27L5 24Z" fill="#000000"/></g></g></svg>
