<?xml version="1.0" encoding="UTF-8"?>
<svg xmlns="http://www.w3.org/2000/svg" version="1.1" width="200" height="200" viewBox="0 0 200 200"><rect x="0" y="0" width="200" height="200" fill="#ffffff"/><g transform="scale(6.897)"><g transform="translate(0,0)"><path fill-rule="evenodd" d="M9 0L9 1L8 1L8 7L9 7L9 8L5 8L5 9L7 9L7 10L6 10L6 11L5 11L5 10L4 10L4 9L3 9L3 8L2 8L2 9L3 9L3 10L2 10L2 12L1 12L1 11L0 11L0 12L1 12L1 13L0 13L0 14L2 14L2 12L3 12L3 13L4 13L4 12L6 12L6 13L7 13L7 14L6 14L6 15L5 15L5 16L4 16L4 15L1 15L1 16L0 16L0 17L1 17L1 18L0 18L0 19L2 19L2 20L0 20L0 21L2 21L2 20L3 20L3 19L2 19L2 16L3 16L3 17L5 17L5 18L4 18L4 19L5 19L5 18L6 18L6 19L7 19L7 20L6 20L6 21L7 21L7 20L9 20L9 19L10 19L10 22L9 22L9 21L8 21L8 24L10 24L10 25L9 25L9 26L8 26L8 27L9 27L9 28L10 28L10 29L16 29L16 28L18 28L18 29L21 29L21 28L20 28L20 27L22 27L22 26L21 26L21 25L25 25L25 28L24 28L24 26L23 26L23 28L22 28L22 29L23 29L23 28L24 28L24 29L26 29L26 28L27 28L27 29L29 29L29 26L27 26L27 25L28 25L28 24L26 24L26 25L25 25L25 23L26 23L26 21L27 21L27 18L28 18L28 17L29 17L29 16L27 16L27 17L25 17L25 16L23 16L23 15L25 15L25 14L26 14L26 13L29 13L29 12L27 12L27 11L29 11L29 9L28 9L28 8L23 8L23 9L28 9L28 10L27 10L27 11L25 11L25 10L22 10L22 11L21 11L21 12L18 12L18 11L20 11L20 10L19 10L19 8L21 8L21 9L22 9L22 8L21 8L21 3L19 3L19 4L16 4L16 3L14 3L14 4L16 4L16 5L12 5L12 4L13 4L13 1L12 1L12 0ZM15 0L15 2L17 2L17 3L18 3L18 2L17 2L17 1L19 1L19 2L20 2L20 0L17 0L17 1L16 1L16 0ZM9 1L9 2L10 2L10 3L11 3L11 4L12 4L12 2L10 2L10 1ZM19 4L19 5L16 5L16 6L15 6L15 7L14 7L14 6L13 6L13 7L14 7L14 8L12 8L12 5L10 5L10 6L9 6L9 7L10 7L10 8L9 8L9 9L8 9L8 10L7 10L7 11L6 11L6 12L7 12L7 13L8 13L8 12L9 12L9 13L12 13L12 12L9 12L9 11L10 11L10 8L11 8L11 10L13 10L13 9L15 9L15 10L14 10L14 11L15 11L15 10L16 10L16 11L18 11L18 10L17 10L17 9L16 9L16 6L17 6L17 8L18 8L18 6L19 6L19 7L20 7L20 6L19 6L19 5L20 5L20 4ZM10 6L10 7L11 7L11 6ZM0 9L0 10L1 10L1 9ZM3 10L3 12L4 12L4 10ZM7 11L7 12L8 12L8 11ZM23 11L23 14L22 14L22 12L21 12L21 13L19 13L19 14L21 14L21 15L18 15L18 14L15 14L15 13L17 13L17 12L15 12L15 13L14 13L14 12L13 12L13 13L14 13L14 14L15 14L15 16L14 16L14 17L13 17L13 14L12 14L12 15L11 15L11 17L10 17L10 18L11 18L11 19L12 19L12 18L11 18L11 17L13 17L13 20L11 20L11 22L10 22L10 23L11 23L11 22L12 22L12 23L14 23L14 24L15 24L15 23L14 23L14 22L13 22L13 21L15 21L15 20L17 20L17 22L16 22L16 23L17 23L17 22L18 22L18 23L19 23L19 24L20 24L20 23L19 23L19 22L20 22L20 20L19 20L19 19L20 19L20 17L19 17L19 16L21 16L21 18L24 18L24 17L23 17L23 16L22 16L22 15L23 15L23 14L25 14L25 13L24 13L24 12L25 12L25 11ZM7 14L7 15L6 15L6 16L5 16L5 17L6 17L6 18L7 18L7 19L9 19L9 18L8 18L8 17L9 17L9 16L10 16L10 15L9 15L9 16L8 16L8 17L6 17L6 16L7 16L7 15L8 15L8 14ZM27 14L27 15L29 15L29 14ZM16 15L16 16L15 16L15 17L14 17L14 19L15 19L15 17L17 17L17 16L18 16L18 15ZM18 17L18 18L17 18L17 19L18 19L18 18L19 18L19 17ZM25 18L25 19L23 19L23 20L25 20L25 19L26 19L26 18ZM21 19L21 20L22 20L22 19ZM4 20L4 21L5 21L5 20ZM18 21L18 22L19 22L19 21ZM21 21L21 24L24 24L24 21ZM22 22L22 23L23 23L23 22ZM28 22L28 23L29 23L29 22ZM11 24L11 25L12 25L12 26L11 26L11 28L13 28L13 27L12 27L12 26L16 26L16 27L18 27L18 28L19 28L19 27L20 27L20 26L19 26L19 25L18 25L18 26L17 26L17 24L16 24L16 25L13 25L13 24ZM18 26L18 27L19 27L19 26ZM27 27L27 28L28 28L28 27ZM0 0L0 7L7 7L7 0ZM1 1L1 6L6 6L6 1ZM2 2L2 5L5 5L5 2ZM22 0L22 7L29 7L29 0ZM23 1L23 6L28 6L28 1ZM24 2L24 5L27 5L27 2ZM0 22L0 29L7 29L7 22ZM1 23L1 28L6 28L6 23ZM2 24L2 27L5 27L5 24Z" fill="#000000"/></g></g></svg>
