<?xml version="1.0" encoding="UTF-8"?>
<svg xmlns="http://www.w3.org/2000/svg" version="1.1" width="200" height="200" viewBox="0 0 200 200"><rect x="0" y="0" width="200" height="200" fill="#ffffff"/><g transform="scale(6.897)"><g transform="translate(0,0)"><path fill-rule="evenodd" d="M9 0L9 3L10 3L10 4L8 4L8 5L9 5L9 6L8 6L8 8L6 8L6 9L5 9L5 10L4 10L4 8L2 8L2 9L3 9L3 10L4 10L4 11L1 11L1 9L0 9L0 11L1 11L1 13L0 13L0 15L1 15L1 16L0 16L0 17L1 17L1 16L2 16L2 20L1 20L1 21L4 21L4 20L5 20L5 21L8 21L8 23L9 23L9 25L8 25L8 27L10 27L10 28L9 28L9 29L10 29L10 28L11 28L11 29L12 29L12 28L11 28L11 27L13 27L13 28L14 28L14 29L15 29L15 28L16 28L16 29L17 29L17 28L18 28L18 27L15 27L15 25L14 25L14 26L13 26L13 24L12 24L12 22L14 22L14 24L15 24L15 23L18 23L18 24L17 24L17 25L16 25L16 26L17 26L17 25L18 25L18 26L19 26L19 25L20 25L20 27L21 27L21 25L23 25L23 26L24 26L24 27L22 27L22 29L23 29L23 28L26 28L26 26L27 26L27 25L26 25L26 23L25 23L25 22L26 22L26 20L24 20L24 19L25 19L25 18L24 18L24 19L22 19L22 18L23 18L23 17L24 17L24 16L25 16L25 17L26 17L26 19L27 19L27 18L29 18L29 17L26 17L26 16L25 16L25 15L24 15L24 16L23 16L23 17L21 17L21 18L20 18L20 17L19 17L19 18L20 18L20 20L19 20L19 19L16 19L16 18L15 18L15 17L14 17L14 16L15 16L15 15L16 15L16 13L15 13L15 12L16 12L16 11L17 11L17 10L15 10L15 11L14 11L14 8L13 8L13 6L12 6L12 5L13 5L13 4L12 4L12 3L13 3L13 2L16 2L16 3L14 3L14 7L15 7L15 8L17 8L17 6L18 6L18 7L19 7L19 8L18 8L18 11L20 11L20 12L19 12L19 13L20 13L20 14L19 14L19 15L20 15L20 14L21 14L21 13L20 13L20 12L22 12L22 9L23 9L23 13L22 13L22 15L23 15L23 14L24 14L24 13L25 13L25 14L26 14L26 15L27 15L27 16L28 16L28 15L29 15L29 14L28 14L28 12L29 12L29 11L28 11L28 12L27 12L27 10L29 10L29 9L25 9L25 8L24 8L24 9L23 9L23 8L21 8L21 3L20 3L20 2L18 2L18 1L17 1L17 0L14 0L14 1L13 1L13 0L11 0L11 1L10 1L10 0ZM11 1L11 3L12 3L12 2L13 2L13 1ZM16 1L16 2L17 2L17 4L16 4L16 5L19 5L19 7L20 7L20 5L19 5L19 4L20 4L20 3L19 3L19 4L18 4L18 2L17 2L17 1ZM10 4L10 5L11 5L11 4ZM9 6L9 7L10 7L10 6ZM11 6L11 8L9 8L9 9L10 9L10 11L11 11L11 12L12 12L12 11L13 11L13 8L12 8L12 6ZM15 6L15 7L16 7L16 6ZM19 8L19 10L20 10L20 9L21 9L21 8ZM6 9L6 10L5 10L5 13L4 13L4 12L3 12L3 15L2 15L2 13L1 13L1 15L2 15L2 16L3 16L3 17L6 17L6 18L7 18L7 17L8 17L8 18L9 18L9 19L8 19L8 21L9 21L9 22L10 22L10 21L11 21L11 22L12 22L12 21L16 21L16 22L18 22L18 23L19 23L19 22L20 22L20 21L19 21L19 20L17 20L17 21L16 21L16 19L15 19L15 20L14 20L14 19L13 19L13 18L14 18L14 17L12 17L12 16L11 16L11 14L13 14L13 13L14 13L14 15L13 15L13 16L14 16L14 15L15 15L15 13L14 13L14 12L13 12L13 13L10 13L10 12L9 12L9 10L8 10L8 11L6 11L6 10L7 10L7 9ZM11 9L11 11L12 11L12 9ZM24 9L24 10L25 10L25 9ZM25 11L25 13L27 13L27 12L26 12L26 11ZM6 12L6 13L5 13L5 14L4 14L4 15L3 15L3 16L6 16L6 17L7 17L7 16L8 16L8 15L9 15L9 17L10 17L10 18L11 18L11 21L12 21L12 18L11 18L11 16L10 16L10 14L8 14L8 12ZM6 13L6 14L5 14L5 15L6 15L6 16L7 16L7 15L8 15L8 14L7 14L7 13ZM17 13L17 14L18 14L18 13ZM6 14L6 15L7 15L7 14ZM16 16L16 17L17 17L17 16ZM0 18L0 19L1 19L1 18ZM3 18L3 20L4 20L4 19L5 19L5 18ZM6 19L6 20L7 20L7 19ZM9 19L9 20L10 20L10 19ZM21 19L21 20L22 20L22 19ZM27 20L27 21L28 21L28 22L27 22L27 24L29 24L29 23L28 23L28 22L29 22L29 21L28 21L28 20ZM21 21L21 24L24 24L24 21ZM22 22L22 23L23 23L23 22ZM10 24L10 25L9 25L9 26L10 26L10 27L11 27L11 26L10 26L10 25L12 25L12 24ZM18 24L18 25L19 25L19 24ZM24 25L24 26L25 26L25 25ZM28 26L28 27L27 27L27 28L29 28L29 26ZM19 28L19 29L20 29L20 28ZM0 0L0 7L7 7L7 0ZM1 1L1 6L6 6L6 1ZM2 2L2 5L5 5L5 2ZM22 0L22 7L29 7L29 0ZM23 1L23 6L28 6L28 1ZM24 2L24 5L27 5L27 2ZM0 22L0 29L7 29L7 22ZM1 23L1 28L6 28L6 23ZM2 24L2 27L5 27L5 24Z" fill="#000000"/></g></g></svg>
