<?xml version="1.0" encoding="UTF-8"?>
<svg xmlns="http://www.w3.org/2000/svg" version="1.1" width="200" height="200" viewBox="0 0 200 200"><rect x="0" y="0" width="200" height="200" fill="#ffffff"/><g transform="scale(6.897)"><g transform="translate(0,0)"><path fill-rule="evenodd" d="M10 0L10 3L9 3L9 1L8 1L8 7L9 7L9 8L5 8L5 9L3 9L3 8L2 8L2 9L3 9L3 10L1 10L1 9L0 9L0 10L1 10L1 11L0 11L0 17L1 17L1 18L0 18L0 19L2 19L2 17L3 17L3 18L4 18L4 16L5 16L5 17L7 17L7 18L5 18L5 19L7 19L7 20L6 20L6 21L7 21L7 20L8 20L8 24L10 24L10 22L9 22L9 21L11 21L11 20L8 20L8 19L7 19L7 18L8 18L8 16L9 16L9 17L10 17L10 19L11 19L11 18L12 18L12 14L13 14L13 12L14 12L14 13L15 13L15 14L14 14L14 15L13 15L13 16L14 16L14 19L13 19L13 20L12 20L12 22L11 22L11 23L12 23L12 24L11 24L11 25L10 25L10 26L8 26L8 27L9 27L9 29L10 29L10 26L12 26L12 27L11 27L11 29L15 29L15 28L17 28L17 29L18 29L18 28L17 28L17 27L18 27L18 26L19 26L19 25L18 25L18 26L15 26L15 25L16 25L16 24L17 24L17 23L16 23L16 21L18 21L18 22L19 22L19 21L20 21L20 25L25 25L25 28L24 28L24 26L23 26L23 27L22 27L22 26L21 26L21 29L22 29L22 28L24 28L24 29L26 29L26 27L28 27L28 28L27 28L27 29L29 29L29 26L26 26L26 25L27 25L27 24L28 24L28 25L29 25L29 24L28 24L28 23L29 23L29 21L27 21L27 20L26 20L26 18L28 18L28 19L29 19L29 18L28 18L28 17L29 17L29 15L28 15L28 16L27 16L27 17L25 17L25 16L22 16L22 15L25 15L25 14L26 14L26 13L27 13L27 14L28 14L28 13L29 13L29 12L27 12L27 11L29 11L29 9L28 9L28 8L23 8L23 10L22 10L22 11L21 11L21 9L22 9L22 8L21 8L21 0L19 0L19 1L20 1L20 2L19 2L19 3L20 3L20 5L19 5L19 4L18 4L18 5L17 5L17 3L18 3L18 2L17 2L17 1L18 1L18 0L17 0L17 1L16 1L16 2L14 2L14 1L15 1L15 0L14 0L14 1L13 1L13 2L14 2L14 3L16 3L16 4L15 4L15 6L14 6L14 7L13 7L13 3L12 3L12 2L11 2L11 1L12 1L12 0ZM11 3L11 5L12 5L12 3ZM9 4L9 5L10 5L10 4ZM16 5L16 6L15 6L15 7L14 7L14 8L13 8L13 7L12 7L12 6L11 6L11 7L10 7L10 6L9 6L9 7L10 7L10 8L11 8L11 9L10 9L10 10L12 10L12 11L10 11L10 12L9 12L9 13L10 13L10 12L12 12L12 11L14 11L14 10L12 10L12 9L15 9L15 7L16 7L16 6L17 6L17 7L18 7L18 11L20 11L20 9L19 9L19 7L20 7L20 6L19 6L19 7L18 7L18 6L17 6L17 5ZM11 7L11 8L12 8L12 7ZM16 8L16 9L17 9L17 8ZM6 9L6 10L8 10L8 9ZM26 9L26 10L24 10L24 11L26 11L26 10L28 10L28 9ZM4 10L4 12L3 12L3 11L2 11L2 12L1 12L1 13L2 13L2 12L3 12L3 14L5 14L5 13L6 13L6 14L8 14L8 11L6 11L6 12L5 12L5 10ZM15 10L15 11L16 11L16 12L17 12L17 10ZM6 12L6 13L7 13L7 12ZM18 12L18 14L17 14L17 13L16 13L16 14L15 14L15 15L14 15L14 16L15 16L15 18L16 18L16 17L17 17L17 18L18 18L18 21L19 21L19 20L22 20L22 19L21 19L21 15L19 15L19 14L22 14L22 12L21 12L21 13L20 13L20 12ZM23 12L23 14L25 14L25 13L24 13L24 12ZM1 14L1 16L2 16L2 14ZM10 14L10 15L9 15L9 16L10 16L10 17L11 17L11 16L10 16L10 15L11 15L11 14ZM16 14L16 15L17 15L17 14ZM3 15L3 16L4 16L4 15ZM5 15L5 16L8 16L8 15ZM18 15L18 18L19 18L19 19L20 19L20 18L19 18L19 17L20 17L20 16L19 16L19 15ZM22 17L22 18L25 18L25 17ZM3 19L3 20L0 20L0 21L5 21L5 20L4 20L4 19ZM14 19L14 20L13 20L13 22L12 22L12 23L14 23L14 24L13 24L13 25L14 25L14 24L15 24L15 21L16 21L16 20L17 20L17 19L16 19L16 20L15 20L15 19ZM23 19L23 20L24 20L24 19ZM21 21L21 24L24 24L24 21ZM26 21L26 23L25 23L25 25L26 25L26 24L27 24L27 23L28 23L28 22L27 22L27 21ZM22 22L22 23L23 23L23 22ZM18 23L18 24L19 24L19 23ZM0 0L0 7L7 7L7 0ZM1 1L1 6L6 6L6 1ZM2 2L2 5L5 5L5 2ZM22 0L22 7L29 7L29 0ZM23 1L23 6L28 6L28 1ZM24 2L24 5L27 5L27 2ZM0 22L0 29L7 29L7 22ZM1 23L1 28L6 28L6 23ZM2 24L2 27L5 27L5 24Z" fill="#000000"/></g></g></svg>
