<?xml version="1.0" encoding="UTF-8"?>
<svg xmlns="http://www.w3.org/2000/svg" version="1.1" width="200" height="200" viewBox="0 0 200 200"><rect x="0" y="0" width="200" height="200" fill="#ffffff"/><g transform="scale(6.897)"><g transform="translate(0,0)"><path fill-rule="evenodd" d="M8 0L8 1L9 1L9 2L8 2L8 3L9 3L9 4L8 4L8 5L9 5L9 4L10 4L10 3L9 3L9 2L11 2L11 3L14 3L14 0L13 0L13 2L11 2L11 1L12 1L12 0L11 0L11 1L10 1L10 0ZM15 0L15 2L17 2L17 1L18 1L18 2L19 2L19 1L20 1L20 2L21 2L21 0L19 0L19 1L18 1L18 0L17 0L17 1L16 1L16 0ZM15 3L15 4L16 4L16 3ZM18 3L18 4L17 4L17 6L16 6L16 5L11 5L11 6L10 6L10 7L11 7L11 8L9 8L9 6L8 6L8 8L9 8L9 9L8 9L8 10L5 10L5 9L7 9L7 8L5 8L5 9L4 9L4 10L3 10L3 9L0 9L0 10L3 10L3 11L8 11L8 13L7 13L7 12L5 12L5 13L4 13L4 14L1 14L1 15L0 15L0 16L1 16L1 15L2 15L2 16L3 16L3 15L4 15L4 14L5 14L5 16L4 16L4 17L5 17L5 18L3 18L3 17L2 17L2 18L1 18L1 17L0 17L0 21L1 21L1 19L2 19L2 18L3 18L3 20L4 20L4 21L7 21L7 20L5 20L5 18L6 18L6 19L7 19L7 18L6 18L6 17L7 17L7 16L8 16L8 17L9 17L9 14L10 14L10 15L11 15L11 16L10 16L10 17L11 17L11 18L10 18L10 19L9 19L9 18L8 18L8 20L9 20L9 21L8 21L8 22L9 22L9 23L8 23L8 24L9 24L9 23L10 23L10 24L11 24L11 25L10 25L10 27L9 27L9 28L10 28L10 27L11 27L11 26L12 26L12 28L11 28L11 29L13 29L13 28L14 28L14 27L16 27L16 28L15 28L15 29L26 29L26 27L28 27L28 26L26 26L26 27L23 27L23 26L19 26L19 25L17 25L17 24L18 24L18 22L17 22L17 21L16 21L16 20L17 20L17 19L18 19L18 18L19 18L19 19L20 19L20 18L19 18L19 13L18 13L18 12L20 12L20 13L21 13L21 12L22 12L22 14L21 14L21 15L20 15L20 17L21 17L21 19L22 19L22 20L20 20L20 22L19 22L19 23L20 23L20 25L24 25L24 26L25 26L25 22L26 22L26 23L27 23L27 24L26 24L26 25L27 25L27 24L28 24L28 25L29 25L29 24L28 24L28 23L27 23L27 22L28 22L28 21L29 21L29 20L28 20L28 21L25 21L25 20L26 20L26 19L27 19L27 18L28 18L28 19L29 19L29 18L28 18L28 16L29 16L29 15L28 15L28 16L27 16L27 14L28 14L28 13L29 13L29 12L27 12L27 11L28 11L28 10L27 10L27 11L26 11L26 9L27 9L27 8L26 8L26 9L25 9L25 8L24 8L24 9L23 9L23 8L22 8L22 10L24 10L24 9L25 9L25 12L24 12L24 11L20 11L20 10L19 10L19 9L20 9L20 7L21 7L21 5L20 5L20 4L19 4L19 3ZM18 5L18 6L17 6L17 7L18 7L18 6L19 6L19 7L20 7L20 6L19 6L19 5ZM11 6L11 7L12 7L12 8L11 8L11 9L9 9L9 10L8 10L8 11L10 11L10 12L9 12L9 13L10 13L10 14L11 14L11 12L12 12L12 11L13 11L13 12L14 12L14 13L15 13L15 12L16 12L16 11L17 11L17 12L18 12L18 11L19 11L19 10L18 10L18 9L19 9L19 8L16 8L16 9L14 9L14 8L13 8L13 7L14 7L14 6L13 6L13 7L12 7L12 6ZM15 6L15 7L16 7L16 6ZM28 8L28 9L29 9L29 8ZM11 9L11 10L13 10L13 11L14 11L14 12L15 12L15 10L14 10L14 9ZM17 10L17 11L18 11L18 10ZM0 11L0 12L1 12L1 11ZM23 12L23 14L22 14L22 15L23 15L23 16L22 16L22 18L24 18L24 12ZM5 13L5 14L7 14L7 13ZM16 13L16 14L15 14L15 15L14 15L14 17L15 17L15 18L11 18L11 19L10 19L10 20L11 20L11 21L9 21L9 22L11 22L11 23L12 23L12 19L13 19L13 20L14 20L14 21L13 21L13 24L12 24L12 26L13 26L13 27L14 27L14 25L15 25L15 26L16 26L16 27L18 27L18 28L20 28L20 27L18 27L18 26L16 26L16 21L15 21L15 18L16 18L16 19L17 19L17 18L18 18L18 17L17 17L17 16L18 16L18 15L17 15L17 16L16 16L16 17L15 17L15 15L16 15L16 14L18 14L18 13ZM26 13L26 14L27 14L27 13ZM12 14L12 15L13 15L13 14ZM6 15L6 16L7 16L7 15ZM25 15L25 16L26 16L26 15ZM12 16L12 17L13 17L13 16ZM16 17L16 18L17 18L17 17ZM25 18L25 19L23 19L23 20L25 20L25 19L26 19L26 18ZM18 20L18 21L19 21L19 20ZM21 21L21 24L24 24L24 21ZM14 22L14 24L13 24L13 25L14 25L14 24L15 24L15 22ZM22 22L22 23L23 23L23 22ZM22 27L22 28L23 28L23 27ZM27 28L27 29L28 29L28 28ZM0 0L0 7L7 7L7 0ZM1 1L1 6L6 6L6 1ZM2 2L2 5L5 5L5 2ZM22 0L22 7L29 7L29 0ZM23 1L23 6L28 6L28 1ZM24 2L24 5L27 5L27 2ZM0 22L0 29L7 29L7 22ZM1 23L1 28L6 28L6 23ZM2 24L2 27L5 27L5 24Z" fill="#000000"/></g></g></svg>
