<?xml version="1.0" encoding="UTF-8"?>
<svg xmlns="http://www.w3.org/2000/svg" version="1.1" width="200" height="200" viewBox="0 0 200 200"><rect x="0" y="0" width="200" height="200" fill="#ffffff"/><g transform="scale(6.897)"><g transform="translate(0,0)"><path fill-rule="evenodd" d="M12 0L12 1L13 1L13 0ZM15 0L15 1L14 1L14 2L13 2L13 3L12 3L12 2L11 2L11 1L10 1L10 2L11 2L11 3L10 3L10 4L8 4L8 5L9 5L9 6L8 6L8 8L6 8L6 9L8 9L8 11L7 11L7 10L3 10L3 9L4 9L4 8L2 8L2 9L0 9L0 13L2 13L2 11L1 11L1 10L3 10L3 11L4 11L4 13L3 13L3 14L2 14L2 20L1 20L1 21L7 21L7 20L4 20L4 19L7 19L7 18L9 18L9 19L8 19L8 20L9 20L9 21L8 21L8 23L9 23L9 22L10 22L10 20L11 20L11 23L10 23L10 24L9 24L9 25L8 25L8 27L9 27L9 28L12 28L12 29L14 29L14 27L12 27L12 26L14 26L14 25L18 25L18 26L16 26L16 28L15 28L15 29L16 29L16 28L18 28L18 29L20 29L20 28L18 28L18 26L20 26L20 25L23 25L23 26L24 26L24 27L22 27L22 29L23 29L23 28L25 28L25 26L27 26L27 25L29 25L29 24L28 24L28 23L27 23L27 25L26 25L26 23L25 23L25 22L26 22L26 20L27 20L27 21L28 21L28 20L27 20L27 18L29 18L29 17L26 17L26 16L25 16L25 15L24 15L24 16L23 16L23 17L21 17L21 18L20 18L20 17L19 17L19 16L18 16L18 15L15 15L15 14L16 14L16 12L17 12L17 14L19 14L19 15L20 15L20 14L21 14L21 13L20 13L20 12L22 12L22 9L23 9L23 13L22 13L22 15L23 15L23 14L24 14L24 13L25 13L25 14L26 14L26 15L27 15L27 16L28 16L28 15L29 15L29 14L28 14L28 12L29 12L29 11L28 11L28 12L27 12L27 10L29 10L29 9L27 9L27 10L24 10L24 9L25 9L25 8L24 8L24 9L23 9L23 8L21 8L21 9L20 9L20 7L21 7L21 3L20 3L20 2L18 2L18 1L16 1L16 0ZM15 2L15 3L13 3L13 4L12 4L12 3L11 3L11 4L10 4L10 5L11 5L11 7L12 7L12 6L13 6L13 8L12 8L12 10L13 10L13 8L14 8L14 9L15 9L15 10L14 10L14 12L13 12L13 11L12 11L12 12L10 12L10 13L11 13L11 15L12 15L12 16L10 16L10 15L8 15L8 14L7 14L7 13L4 13L4 14L7 14L7 15L6 15L6 16L4 16L4 15L3 15L3 19L4 19L4 18L5 18L5 17L6 17L6 18L7 18L7 17L8 17L8 16L9 16L9 17L12 17L12 18L13 18L13 19L14 19L14 18L16 18L16 19L17 19L17 20L13 20L13 21L12 21L12 22L13 22L13 23L12 23L12 24L13 24L13 23L14 23L14 22L13 22L13 21L17 21L17 22L15 22L15 24L18 24L18 23L17 23L17 22L19 22L19 23L20 23L20 21L19 21L19 20L20 20L20 18L16 18L16 17L13 17L13 15L12 15L12 14L13 14L13 13L15 13L15 10L18 10L18 11L17 11L17 12L20 12L20 11L19 11L19 10L20 10L20 9L19 9L19 10L18 10L18 8L19 8L19 7L20 7L20 5L19 5L19 4L20 4L20 3L19 3L19 4L18 4L18 2L17 2L17 4L16 4L16 2ZM11 4L11 5L12 5L12 4ZM13 4L13 6L14 6L14 7L15 7L15 8L17 8L17 6L18 6L18 7L19 7L19 5L16 5L16 4ZM14 5L14 6L15 6L15 7L16 7L16 6L15 6L15 5ZM9 6L9 8L10 8L10 6ZM9 9L9 10L10 10L10 11L11 11L11 9ZM5 11L5 12L7 12L7 11ZM8 11L8 12L9 12L9 11ZM25 11L25 13L27 13L27 12L26 12L26 11ZM19 13L19 14L20 14L20 13ZM0 14L0 15L1 15L1 14ZM27 14L27 15L28 15L28 14ZM6 16L6 17L7 17L7 16ZM17 16L17 17L18 17L18 16ZM24 16L24 17L23 17L23 18L22 18L22 19L21 19L21 20L22 20L22 19L24 19L24 20L25 20L25 19L24 19L24 18L26 18L26 17L25 17L25 16ZM0 18L0 19L1 19L1 18ZM11 19L11 20L12 20L12 19ZM18 19L18 20L19 20L19 19ZM21 21L21 24L24 24L24 21ZM22 22L22 23L23 23L23 22ZM10 24L10 25L9 25L9 27L11 27L11 26L12 26L12 25L11 25L11 24ZM19 24L19 25L20 25L20 24ZM10 25L10 26L11 26L11 25ZM24 25L24 26L25 26L25 25ZM28 26L28 27L26 27L26 28L29 28L29 26ZM0 0L0 7L7 7L7 0ZM1 1L1 6L6 6L6 1ZM2 2L2 5L5 5L5 2ZM22 0L22 7L29 7L29 0ZM23 1L23 6L28 6L28 1ZM24 2L24 5L27 5L27 2ZM0 22L0 29L7 29L7 22ZM1 23L1 28L6 28L6 23ZM2 24L2 27L5 27L5 24Z" fill="#000000"/></g></g></svg>
