<?xml version="1.0" encoding="UTF-8"?>
<svg xmlns="http://www.w3.org/2000/svg" version="1.1" width="200" height="200" viewBox="0 0 200 200"><rect x="0" y="0" width="200" height="200" fill="#ffffff"/><g transform="scale(4.878)"><g transform="translate(0,0)"><path fill-rule="evenodd" d="M8 0L8 1L9 1L9 2L8 2L8 3L9 3L9 4L8 4L8 5L9 5L9 6L8 6L8 8L9 8L9 9L8 9L8 10L6 10L6 11L4 11L4 10L5 10L5 9L7 9L7 8L5 8L5 9L4 9L4 10L3 10L3 9L0 9L0 11L2 11L2 10L3 10L3 11L4 11L4 13L3 13L3 12L2 12L2 13L0 13L0 14L1 14L1 15L2 15L2 16L3 16L3 17L2 17L2 18L0 18L0 19L1 19L1 20L0 20L0 21L1 21L1 22L0 22L0 24L1 24L1 25L0 25L0 26L1 26L1 25L2 25L2 27L0 27L0 28L1 28L1 29L0 29L0 33L1 33L1 31L2 31L2 30L1 30L1 29L2 29L2 27L3 27L3 28L6 28L6 29L7 29L7 28L6 28L6 27L10 27L10 28L9 28L9 30L5 30L5 29L3 29L3 31L5 31L5 32L4 32L4 33L7 33L7 32L8 32L8 34L9 34L9 33L12 33L12 32L13 32L13 33L15 33L15 34L14 34L14 35L12 35L12 34L10 34L10 36L11 36L11 37L9 37L9 39L10 39L10 41L12 41L12 40L11 40L11 39L13 39L13 38L12 38L12 36L15 36L15 35L16 35L16 36L17 36L17 37L14 37L14 39L16 39L16 40L13 40L13 41L16 41L16 40L17 40L17 41L21 41L21 40L20 40L20 39L22 39L22 40L23 40L23 41L24 41L24 40L23 40L23 39L22 39L22 38L24 38L24 37L25 37L25 36L26 36L26 37L27 37L27 38L26 38L26 39L27 39L27 41L31 41L31 40L32 40L32 38L33 38L33 37L36 37L36 38L34 38L34 39L33 39L33 41L34 41L34 40L36 40L36 39L37 39L37 40L38 40L38 39L40 39L40 40L41 40L41 39L40 39L40 38L41 38L41 35L40 35L40 34L39 34L39 33L40 33L40 32L41 32L41 29L40 29L40 26L41 26L41 25L39 25L39 24L37 24L37 23L38 23L38 22L41 22L41 20L40 20L40 19L41 19L41 15L40 15L40 14L41 14L41 11L40 11L40 9L41 9L41 8L40 8L40 9L39 9L39 8L38 8L38 10L37 10L37 8L36 8L36 10L37 10L37 11L35 11L35 10L34 10L34 9L35 9L35 8L34 8L34 9L33 9L33 8L32 8L32 9L30 9L30 8L29 8L29 6L28 6L28 8L27 8L27 6L26 6L26 5L27 5L27 4L28 4L28 5L29 5L29 3L31 3L31 2L30 2L30 1L31 1L31 0L30 0L30 1L29 1L29 0L28 0L28 2L26 2L26 5L22 5L22 7L23 7L23 6L24 6L24 7L25 7L25 6L26 6L26 8L27 8L27 13L26 13L26 11L25 11L25 10L26 10L26 9L24 9L24 8L21 8L21 9L20 9L20 7L21 7L21 6L20 6L20 5L21 5L21 4L22 4L22 3L24 3L24 4L25 4L25 2L23 2L23 1L22 1L22 0L20 0L20 2L19 2L19 3L20 3L20 4L19 4L19 5L16 5L16 4L17 4L17 2L18 2L18 0L17 0L17 2L16 2L16 1L15 1L15 0L12 0L12 1L13 1L13 2L14 2L14 4L15 4L15 5L14 5L14 7L13 7L13 5L12 5L12 7L11 7L11 6L10 6L10 5L9 5L9 4L10 4L10 3L11 3L11 4L12 4L12 2L11 2L11 0L10 0L10 1L9 1L9 0ZM24 0L24 1L26 1L26 0ZM14 1L14 2L15 2L15 1ZM9 2L9 3L10 3L10 2ZM20 2L20 3L21 3L21 2ZM32 2L32 4L30 4L30 5L32 5L32 7L33 7L33 2ZM15 3L15 4L16 4L16 3ZM15 5L15 7L14 7L14 8L12 8L12 9L14 9L14 10L11 10L11 11L13 11L13 12L12 12L12 14L11 14L11 12L8 12L8 11L6 11L6 12L5 12L5 13L4 13L4 15L5 15L5 17L3 17L3 18L4 18L4 19L3 19L3 20L2 20L2 22L1 22L1 24L2 24L2 25L3 25L3 24L2 24L2 22L4 22L4 23L5 23L5 24L4 24L4 25L6 25L6 26L9 26L9 25L10 25L10 24L11 24L11 22L12 22L12 24L13 24L13 25L14 25L14 26L15 26L15 27L13 27L13 26L12 26L12 27L11 27L11 28L10 28L10 29L13 29L13 30L14 30L14 32L15 32L15 33L17 33L17 32L20 32L20 31L21 31L21 32L22 32L22 31L21 31L21 30L19 30L19 29L21 29L21 28L19 28L19 25L21 25L21 26L20 26L20 27L22 27L22 30L23 30L23 28L24 28L24 31L23 31L23 32L24 32L24 33L23 33L23 34L24 34L24 35L23 35L23 36L22 36L22 35L20 35L20 37L21 37L21 38L22 38L22 37L23 37L23 36L24 36L24 35L26 35L26 34L27 34L27 32L30 32L30 33L31 33L31 34L30 34L30 35L31 35L31 34L32 34L32 33L31 33L31 32L30 32L30 31L29 31L29 30L30 30L30 29L31 29L31 31L32 31L32 29L33 29L33 26L34 26L34 27L35 27L35 28L34 28L34 30L33 30L33 31L34 31L34 32L35 32L35 31L37 31L37 32L39 32L39 30L40 30L40 29L39 29L39 28L36 28L36 27L37 27L37 26L36 26L36 25L37 25L37 24L36 24L36 23L35 23L35 22L36 22L36 21L35 21L35 18L36 18L36 20L37 20L37 22L38 22L38 20L39 20L39 21L40 21L40 20L39 20L39 19L38 19L38 18L39 18L39 17L40 17L40 16L39 16L39 17L38 17L38 18L36 18L36 17L37 17L37 16L38 16L38 14L39 14L39 13L38 13L38 14L37 14L37 16L36 16L36 17L35 17L35 16L34 16L34 17L32 17L32 14L34 14L34 15L36 15L36 13L37 13L37 12L36 12L36 13L35 13L35 12L34 12L34 10L33 10L33 11L32 11L32 10L30 10L30 9L29 9L29 8L28 8L28 12L29 12L29 14L28 14L28 13L27 13L27 15L28 15L28 16L27 16L27 17L28 17L28 18L31 18L31 17L32 17L32 19L29 19L29 20L28 20L28 23L26 23L26 22L27 22L27 20L26 20L26 22L24 22L24 23L26 23L26 24L25 24L25 25L23 25L23 26L22 26L22 25L21 25L21 24L23 24L23 21L25 21L25 18L26 18L26 19L27 19L27 18L26 18L26 15L25 15L25 14L26 14L26 13L25 13L25 12L24 12L24 13L23 13L23 12L22 12L22 11L24 11L24 10L23 10L23 9L22 9L22 11L21 11L21 10L20 10L20 9L18 9L18 8L19 8L19 7L20 7L20 6L19 6L19 7L18 7L18 6L17 6L17 9L16 9L16 5ZM9 6L9 8L10 8L10 9L9 9L9 11L10 11L10 9L11 9L11 7L10 7L10 6ZM30 6L30 7L31 7L31 6ZM14 8L14 9L15 9L15 8ZM14 10L14 11L16 11L16 14L18 14L18 13L19 13L19 11L20 11L20 10L18 10L18 11L17 11L17 10ZM38 11L38 12L40 12L40 11ZM6 12L6 13L5 13L5 15L7 15L7 14L6 14L6 13L8 13L8 15L10 15L10 13L8 13L8 12ZM14 12L14 13L13 13L13 14L12 14L12 15L13 15L13 16L11 16L11 17L10 17L10 16L9 16L9 17L7 17L7 16L6 16L6 17L5 17L5 18L6 18L6 19L7 19L7 20L6 20L6 21L8 21L8 23L7 23L7 22L6 22L6 23L7 23L7 24L6 24L6 25L7 25L7 24L8 24L8 25L9 25L9 24L8 24L8 23L10 23L10 22L11 22L11 21L10 21L10 20L8 20L8 18L10 18L10 19L11 19L11 18L12 18L12 19L13 19L13 20L14 20L14 21L12 21L12 22L13 22L13 23L14 23L14 25L15 25L15 26L17 26L17 25L19 25L19 24L21 24L21 23L22 23L22 22L21 22L21 21L22 21L22 20L23 20L23 19L24 19L24 15L23 15L23 13L22 13L22 12L21 12L21 13L22 13L22 15L23 15L23 16L22 16L22 20L20 20L20 19L21 19L21 17L19 17L19 16L21 16L21 15L19 15L19 16L18 16L18 18L16 18L16 19L15 19L15 18L14 18L14 17L15 17L15 16L16 16L16 17L17 17L17 16L16 16L16 15L14 15L14 14L15 14L15 12ZM17 12L17 13L18 13L18 12ZM30 12L30 15L31 15L31 12ZM0 16L0 17L1 17L1 16ZM29 16L29 17L31 17L31 16ZM6 17L6 18L7 18L7 17ZM34 17L34 18L35 18L35 17ZM13 18L13 19L14 19L14 20L15 20L15 21L16 21L16 20L15 20L15 19L14 19L14 18ZM19 18L19 19L20 19L20 18ZM17 19L17 21L18 21L18 24L19 24L19 21L18 21L18 19ZM33 19L33 20L32 20L32 21L31 21L31 20L30 20L30 21L31 21L31 22L30 22L30 23L31 23L31 22L32 22L32 23L34 23L34 26L35 26L35 23L34 23L34 19ZM37 19L37 20L38 20L38 19ZM4 21L4 22L5 22L5 21ZM9 21L9 22L10 22L10 21ZM14 22L14 23L15 23L15 22ZM16 22L16 25L17 25L17 22ZM20 22L20 23L21 23L21 22ZM40 23L40 24L41 24L41 23ZM28 24L28 25L25 25L25 28L26 28L26 29L25 29L25 30L26 30L26 31L25 31L25 33L24 33L24 34L25 34L25 33L26 33L26 32L27 32L27 31L28 31L28 30L27 30L27 29L30 29L30 28L28 28L28 27L29 27L29 26L30 26L30 25L31 25L31 26L32 26L32 24L30 24L30 25L29 25L29 24ZM3 26L3 27L5 27L5 26ZM23 26L23 27L24 27L24 26ZM38 26L38 27L39 27L39 26ZM12 27L12 28L13 28L13 27ZM15 27L15 28L17 28L17 30L16 30L16 29L15 29L15 30L16 30L16 31L15 31L15 32L17 32L17 30L18 30L18 31L19 31L19 30L18 30L18 29L19 29L19 28L17 28L17 27ZM26 27L26 28L27 28L27 27ZM35 29L35 30L37 30L37 29ZM11 30L11 31L12 31L12 30ZM6 31L6 32L7 32L7 31ZM8 31L8 32L10 32L10 31ZM2 32L2 33L3 33L3 32ZM18 33L18 34L16 34L16 35L17 35L17 36L18 36L18 37L17 37L17 38L18 38L18 40L19 40L19 39L20 39L20 38L18 38L18 37L19 37L19 33ZM20 33L20 34L22 34L22 33ZM33 33L33 36L36 36L36 33ZM34 34L34 35L35 35L35 34ZM37 34L37 37L39 37L39 38L40 38L40 35L39 35L39 34ZM8 35L8 36L9 36L9 35ZM11 35L11 36L12 36L12 35ZM27 35L27 36L28 36L28 39L29 39L29 40L30 40L30 39L29 39L29 38L30 38L30 37L31 37L31 38L32 38L32 37L31 37L31 36L30 36L30 37L29 37L29 36L28 36L28 35ZM21 36L21 37L22 37L22 36ZM37 38L37 39L38 39L38 38ZM25 40L25 41L26 41L26 40ZM0 0L0 7L7 7L7 0ZM1 1L1 6L6 6L6 1ZM2 2L2 5L5 5L5 2ZM34 0L34 7L41 7L41 0ZM35 1L35 6L40 6L40 1ZM36 2L36 5L39 5L39 2ZM0 34L0 41L7 41L7 34ZM1 35L1 40L6 40L6 35ZM2 36L2 39L5 39L5 36Z" fill="#000000"/></g></g></svg>
