<?xml version="1.0" encoding="UTF-8"?>
<svg xmlns="http://www.w3.org/2000/svg" version="1.1" width="200" height="200" viewBox="0 0 200 200"><rect x="0" y="0" width="200" height="200" fill="#ffffff"/><g transform="scale(4.878)"><g transform="translate(0,0)"><path fill-rule="evenodd" d="M8 0L8 3L9 3L9 0ZM10 0L10 2L11 2L11 3L12 3L12 1L11 1L11 0ZM13 0L13 1L14 1L14 3L16 3L16 5L15 5L15 4L14 4L14 8L13 8L13 9L11 9L11 10L9 10L9 5L11 5L11 6L10 6L10 7L11 7L11 8L12 8L12 7L13 7L13 4L12 4L12 5L11 5L11 4L9 4L9 5L8 5L8 9L7 9L7 8L6 8L6 9L5 9L5 8L2 8L2 9L0 9L0 11L1 11L1 10L2 10L2 13L0 13L0 16L1 16L1 17L2 17L2 19L1 19L1 18L0 18L0 19L1 19L1 20L3 20L3 18L5 18L5 19L9 19L9 20L11 20L11 19L12 19L12 17L10 17L10 18L11 18L11 19L9 19L9 18L6 18L6 17L7 17L7 16L6 16L6 15L7 15L7 14L6 14L6 13L7 13L7 12L6 12L6 11L8 11L8 10L9 10L9 12L8 12L8 13L10 13L10 14L8 14L8 15L10 15L10 16L12 16L12 15L14 15L14 16L13 16L13 18L14 18L14 16L16 16L16 17L15 17L15 19L13 19L13 20L12 20L12 21L13 21L13 23L12 23L12 22L11 22L11 21L8 21L8 20L6 20L6 21L5 21L5 20L4 20L4 21L3 21L3 22L4 22L4 21L5 21L5 23L4 23L4 24L3 24L3 25L1 25L1 26L0 26L0 33L1 33L1 29L2 29L2 31L3 31L3 32L4 32L4 31L7 31L7 30L6 30L6 29L9 29L9 31L8 31L8 34L10 34L10 35L9 35L9 36L8 36L8 39L10 39L10 40L11 40L11 41L15 41L15 40L16 40L16 39L17 39L17 40L19 40L19 41L20 41L20 40L21 40L21 41L22 41L22 40L23 40L23 36L25 36L25 37L24 37L24 38L26 38L26 39L27 39L27 40L24 40L24 41L27 41L27 40L28 40L28 38L26 38L26 37L29 37L29 38L30 38L30 39L31 39L31 40L33 40L33 41L34 41L34 40L33 40L33 39L31 39L31 38L32 38L32 37L33 37L33 38L34 38L34 39L35 39L35 40L36 40L36 39L37 39L37 40L40 40L40 38L41 38L41 37L40 37L40 34L41 34L41 33L39 33L39 32L37 32L37 31L36 31L36 32L33 32L33 31L32 31L32 30L33 30L33 29L34 29L34 28L33 28L33 29L32 29L32 28L29 28L29 26L30 26L30 25L31 25L31 26L32 26L32 25L34 25L34 26L33 26L33 27L34 27L34 26L35 26L35 25L36 25L36 27L37 27L37 28L38 28L38 26L39 26L39 28L41 28L41 27L40 27L40 26L41 26L41 23L39 23L39 24L40 24L40 26L39 26L39 25L36 25L36 24L37 24L37 23L38 23L38 22L39 22L39 20L38 20L38 17L39 17L39 18L41 18L41 16L40 16L40 17L39 17L39 16L38 16L38 15L39 15L39 14L41 14L41 13L39 13L39 14L38 14L38 15L37 15L37 13L36 13L36 16L35 16L35 17L34 17L34 16L32 16L32 17L31 17L31 16L29 16L29 15L31 15L31 11L30 11L30 10L33 10L33 9L34 9L34 11L33 11L33 12L32 12L32 13L33 13L33 14L32 14L32 15L34 15L34 13L35 13L35 11L36 11L36 12L38 12L38 11L40 11L40 10L41 10L41 8L38 8L38 9L40 9L40 10L37 10L37 9L36 9L36 8L33 8L33 9L30 9L30 8L29 8L29 6L30 6L30 7L31 7L31 8L32 8L32 7L33 7L33 4L30 4L30 5L27 5L27 4L26 4L26 5L25 5L25 3L24 3L24 2L25 2L25 0L24 0L24 2L22 2L22 0L21 0L21 2L20 2L20 4L19 4L19 1L17 1L17 2L15 2L15 1L16 1L16 0ZM26 0L26 1L27 1L27 2L26 2L26 3L28 3L28 4L29 4L29 3L33 3L33 1L32 1L32 0L31 0L31 1L32 1L32 2L30 2L30 0L29 0L29 1L27 1L27 0ZM21 2L21 4L20 4L20 6L19 6L19 4L18 4L18 3L17 3L17 4L18 4L18 5L16 5L16 6L15 6L15 8L14 8L14 9L16 9L16 6L17 6L17 7L18 7L18 8L17 8L17 9L19 9L19 10L18 10L18 11L16 11L16 10L15 10L15 11L14 11L14 10L12 10L12 11L10 11L10 12L11 12L11 14L12 14L12 13L13 13L13 14L15 14L15 15L17 15L17 16L19 16L19 17L17 17L17 18L18 18L18 19L19 19L19 20L20 20L20 21L19 21L19 22L18 22L18 24L21 24L21 25L20 25L20 26L18 26L18 25L13 25L13 24L14 24L14 23L15 23L15 21L18 21L18 20L16 20L16 19L15 19L15 21L14 21L14 20L13 20L13 21L14 21L14 23L13 23L13 24L11 24L11 22L8 22L8 21L6 21L6 22L8 22L8 23L9 23L9 24L11 24L11 25L10 25L10 26L12 26L12 28L13 28L13 27L14 27L14 26L15 26L15 28L14 28L14 31L15 31L15 32L14 32L14 34L13 34L13 33L12 33L12 34L11 34L11 32L12 32L12 31L13 31L13 29L12 29L12 30L10 30L10 31L11 31L11 32L9 32L9 33L10 33L10 34L11 34L11 36L9 36L9 37L10 37L10 39L11 39L11 40L13 40L13 38L14 38L14 39L16 39L16 38L17 38L17 39L19 39L19 40L20 40L20 39L21 39L21 37L22 37L22 34L23 34L23 35L25 35L25 34L23 34L23 33L24 33L24 32L26 32L26 31L27 31L27 30L26 30L26 31L24 31L24 32L23 32L23 27L22 27L22 31L19 31L19 30L21 30L21 29L20 29L20 28L19 28L19 27L21 27L21 26L23 26L23 24L22 24L22 23L23 23L23 20L22 20L22 23L20 23L20 22L21 22L21 20L20 20L20 19L19 19L19 18L20 18L20 16L19 16L19 15L21 15L21 16L23 16L23 17L22 17L22 18L21 18L21 19L22 19L22 18L23 18L23 17L25 17L25 18L24 18L24 20L25 20L25 18L28 18L28 19L29 19L29 20L28 20L28 21L26 21L26 22L28 22L28 21L29 21L29 22L31 22L31 25L32 25L32 23L33 23L33 22L34 22L34 23L35 23L35 24L34 24L34 25L35 25L35 24L36 24L36 23L35 23L35 22L36 22L36 21L35 21L35 19L36 19L36 20L37 20L37 22L38 22L38 20L37 20L37 18L36 18L36 17L38 17L38 16L36 16L36 17L35 17L35 19L34 19L34 18L33 18L33 17L32 17L32 18L31 18L31 17L29 17L29 16L28 16L28 15L29 15L29 14L30 14L30 13L29 13L29 12L30 12L30 11L28 11L28 13L29 13L29 14L27 14L27 11L26 11L26 10L25 10L25 12L26 12L26 14L27 14L27 17L26 17L26 16L23 16L23 15L25 15L25 14L24 14L24 13L23 13L23 12L24 12L24 11L23 11L23 10L24 10L24 9L23 9L23 8L25 8L25 9L27 9L27 10L30 10L30 9L27 9L27 7L28 7L28 6L27 6L27 5L26 5L26 6L25 6L25 5L23 5L23 4L22 4L22 2ZM21 4L21 6L20 6L20 7L21 7L21 6L22 6L22 8L23 8L23 6L22 6L22 4ZM31 5L31 7L32 7L32 5ZM11 6L11 7L12 7L12 6ZM18 6L18 7L19 7L19 6ZM24 6L24 7L25 7L25 6ZM26 6L26 7L27 7L27 6ZM19 8L19 9L20 9L20 10L19 10L19 11L18 11L18 14L19 14L19 13L20 13L20 10L21 10L21 9L20 9L20 8ZM2 9L2 10L3 10L3 11L4 11L4 12L5 12L5 10L4 10L4 9ZM6 9L6 10L7 10L7 9ZM22 9L22 10L23 10L23 9ZM35 9L35 10L36 10L36 11L37 11L37 10L36 10L36 9ZM12 11L12 12L13 12L13 11ZM21 11L21 12L22 12L22 11ZM14 12L14 13L17 13L17 12ZM33 12L33 13L34 13L34 12ZM4 13L4 14L3 14L3 15L2 15L2 14L1 14L1 16L3 16L3 17L4 17L4 16L3 16L3 15L4 15L4 14L5 14L5 13ZM21 13L21 15L23 15L23 13ZM8 16L8 17L9 17L9 16ZM30 18L30 19L31 19L31 20L30 20L30 21L31 21L31 22L33 22L33 21L34 21L34 22L35 22L35 21L34 21L34 20L33 20L33 21L31 21L31 20L32 20L32 19L33 19L33 18L32 18L32 19L31 19L31 18ZM40 20L40 21L41 21L41 20ZM0 21L0 22L1 22L1 24L2 24L2 21ZM16 22L16 24L17 24L17 22ZM6 23L6 24L7 24L7 23ZM26 23L26 25L25 25L25 26L24 26L24 28L25 28L25 26L26 26L26 29L27 29L27 26L28 26L28 25L29 25L29 24L30 24L30 23L28 23L28 24L27 24L27 23ZM6 25L6 26L3 26L3 27L2 27L2 29L3 29L3 31L4 31L4 30L5 30L5 29L6 29L6 28L7 28L7 27L8 27L8 26L7 26L7 25ZM26 25L26 26L27 26L27 25ZM6 26L6 27L7 27L7 26ZM16 26L16 30L15 30L15 31L17 31L17 33L18 33L18 32L19 32L19 31L18 31L18 30L17 30L17 29L18 29L18 28L17 28L17 26ZM4 27L4 29L5 29L5 27ZM9 27L9 28L10 28L10 29L11 29L11 27ZM35 28L35 29L36 29L36 30L38 30L38 31L40 31L40 30L41 30L41 29L39 29L39 30L38 30L38 29L36 29L36 28ZM24 29L24 30L25 30L25 29ZM28 29L28 30L30 30L30 31L28 31L28 32L30 32L30 33L31 33L31 34L30 34L30 35L31 35L31 34L32 34L32 33L31 33L31 32L30 32L30 31L31 31L31 30L32 30L32 29ZM34 30L34 31L35 31L35 30ZM5 32L5 33L7 33L7 32ZM21 32L21 34L20 34L20 33L19 33L19 34L18 34L18 35L17 35L17 34L16 34L16 33L15 33L15 34L14 34L14 36L13 36L13 35L12 35L12 38L13 38L13 37L14 37L14 38L15 38L15 37L16 37L16 36L15 36L15 35L17 35L17 37L18 37L18 38L19 38L19 39L20 39L20 37L21 37L21 34L22 34L22 33L23 33L23 32ZM26 33L26 35L27 35L27 36L29 36L29 37L32 37L32 36L29 36L29 33ZM33 33L33 36L36 36L36 33ZM37 33L37 36L39 36L39 35L38 35L38 34L39 34L39 33ZM19 34L19 35L18 35L18 37L20 37L20 34ZM27 34L27 35L28 35L28 34ZM34 34L34 35L35 35L35 34ZM14 36L14 37L15 37L15 36ZM34 37L34 38L36 38L36 37ZM37 38L37 39L38 39L38 38ZM29 40L29 41L30 41L30 40ZM0 0L0 7L7 7L7 0ZM1 1L1 6L6 6L6 1ZM2 2L2 5L5 5L5 2ZM34 0L34 7L41 7L41 0ZM35 1L35 6L40 6L40 1ZM36 2L36 5L39 5L39 2ZM0 34L0 41L7 41L7 34ZM1 35L1 40L6 40L6 35ZM2 36L2 39L5 39L5 36Z" fill="#000000"/></g></g></svg>
