<?xml version="1.0" encoding="UTF-8"?>
<svg xmlns="http://www.w3.org/2000/svg" version="1.1" width="200" height="200" viewBox="0 0 200 200"><rect x="0" y="0" width="200" height="200" fill="#ffffff"/><g transform="scale(6.897)"><g transform="translate(0,0)"><path fill-rule="evenodd" d="M13 0L13 1L14 1L14 0ZM17 0L17 1L18 1L18 0ZM19 0L19 1L20 1L20 2L19 2L19 3L20 3L20 5L19 5L19 4L18 4L18 5L17 5L17 3L18 3L18 2L17 2L17 3L16 3L16 1L15 1L15 3L16 3L16 5L15 5L15 4L12 4L12 2L11 2L11 1L10 1L10 2L9 2L9 1L8 1L8 7L9 7L9 4L10 4L10 5L13 5L13 6L12 6L12 8L13 8L13 6L14 6L14 7L15 7L15 10L16 10L16 13L15 13L15 12L13 12L13 13L15 13L15 15L16 15L16 16L18 16L18 17L17 17L17 21L16 21L16 22L15 22L15 20L16 20L16 18L15 18L15 20L14 20L14 14L13 14L13 15L12 15L12 12L10 12L10 11L13 11L13 10L14 10L14 9L13 9L13 10L12 10L12 9L11 9L11 8L10 8L10 9L9 9L9 8L5 8L5 11L7 11L7 12L6 12L6 13L5 13L5 14L4 14L4 13L3 13L3 12L4 12L4 11L3 11L3 12L2 12L2 14L4 14L4 15L2 15L2 16L1 16L1 15L0 15L0 16L1 16L1 17L3 17L3 18L0 18L0 19L4 19L4 18L5 18L5 16L6 16L6 17L7 17L7 18L6 18L6 19L5 19L5 20L4 20L4 21L5 21L5 20L6 20L6 21L8 21L8 24L9 24L9 23L11 23L11 24L12 24L12 25L10 25L10 26L8 26L8 27L10 27L10 28L9 28L9 29L11 29L11 27L12 27L12 28L14 28L14 27L15 27L15 25L16 25L16 24L17 24L17 23L18 23L18 22L19 22L19 23L20 23L20 24L19 24L19 26L18 26L18 25L17 25L17 26L18 26L18 27L17 27L17 28L15 28L15 29L17 29L17 28L19 28L19 26L20 26L20 27L21 27L21 29L22 29L22 28L24 28L24 29L25 29L25 28L26 28L26 27L28 27L28 28L27 28L27 29L29 29L29 26L27 26L27 25L28 25L28 24L29 24L29 22L28 22L28 21L27 21L27 19L26 19L26 20L23 20L23 19L25 19L25 18L28 18L28 19L29 19L29 18L28 18L28 17L29 17L29 16L27 16L27 17L25 17L25 16L22 16L22 15L25 15L25 14L26 14L26 13L27 13L27 15L29 15L29 14L28 14L28 13L29 13L29 12L27 12L27 11L29 11L29 9L28 9L28 8L23 8L23 10L22 10L22 11L21 11L21 9L22 9L22 8L21 8L21 0ZM10 2L10 3L11 3L11 2ZM13 2L13 3L14 3L14 2ZM14 5L14 6L15 6L15 7L16 7L16 6L17 6L17 7L18 7L18 9L17 9L17 8L16 8L16 9L17 9L17 10L19 10L19 11L17 11L17 13L16 13L16 15L17 15L17 13L18 13L18 12L19 12L19 14L22 14L22 12L21 12L21 13L20 13L20 12L19 12L19 11L20 11L20 9L19 9L19 7L20 7L20 6L19 6L19 7L18 7L18 6L17 6L17 5L16 5L16 6L15 6L15 5ZM10 6L10 7L11 7L11 6ZM2 8L2 9L1 9L1 11L0 11L0 14L1 14L1 11L2 11L2 10L4 10L4 9L3 9L3 8ZM6 9L6 10L7 10L7 11L10 11L10 10L11 10L11 9L10 9L10 10L8 10L8 9ZM25 9L25 10L24 10L24 11L26 11L26 10L28 10L28 9ZM8 12L8 14L7 14L7 13L6 13L6 14L7 14L7 15L6 15L6 16L9 16L9 17L8 17L8 18L7 18L7 19L6 19L6 20L7 20L7 19L8 19L8 20L9 20L9 21L10 21L10 22L11 22L11 20L12 20L12 21L13 21L13 22L12 22L12 24L13 24L13 25L12 25L12 27L14 27L14 26L13 26L13 25L15 25L15 24L16 24L16 23L15 23L15 22L14 22L14 20L12 20L12 19L13 19L13 18L12 18L12 16L11 16L11 15L10 15L10 13L9 13L9 12ZM23 12L23 14L25 14L25 13L24 13L24 12ZM4 15L4 16L3 16L3 17L4 17L4 16L5 16L5 15ZM18 15L18 16L20 16L20 17L18 17L18 19L19 19L19 20L22 20L22 19L21 19L21 15ZM9 17L9 20L11 20L11 19L10 19L10 18L11 18L11 17ZM22 17L22 18L25 18L25 17ZM19 18L19 19L20 19L20 18ZM0 20L0 21L3 21L3 20ZM19 21L19 22L20 22L20 21ZM21 21L21 24L24 24L24 21ZM26 21L26 23L25 23L25 25L21 25L21 26L22 26L22 27L23 27L23 26L24 26L24 28L25 28L25 26L26 26L26 24L27 24L27 21ZM13 22L13 23L14 23L14 22ZM22 22L22 23L23 23L23 22ZM10 26L10 27L11 27L11 26ZM0 0L0 7L7 7L7 0ZM1 1L1 6L6 6L6 1ZM2 2L2 5L5 5L5 2ZM22 0L22 7L29 7L29 0ZM23 1L23 6L28 6L28 1ZM24 2L24 5L27 5L27 2ZM0 22L0 29L7 29L7 22ZM1 23L1 28L6 28L6 23ZM2 24L2 27L5 27L5 24Z" fill="#000000"/></g></g></svg>
