<?xml version="1.0" encoding="UTF-8"?>
<svg xmlns="http://www.w3.org/2000/svg" version="1.1" width="200" height="200" viewBox="0 0 200 200"><rect x="0" y="0" width="200" height="200" fill="#ffffff"/><g transform="scale(4.878)"><g transform="translate(0,0)"><path fill-rule="evenodd" d="M8 0L8 2L9 2L9 3L8 3L8 7L9 7L9 5L11 5L11 6L10 6L10 7L11 7L11 8L10 8L10 9L7 9L7 8L6 8L6 9L4 9L4 8L3 8L3 9L4 9L4 11L3 11L3 10L2 10L2 9L0 9L0 10L2 10L2 11L3 11L3 12L4 12L4 11L5 11L5 12L6 12L6 13L5 13L5 14L6 14L6 15L7 15L7 16L6 16L6 17L7 17L7 16L9 16L9 17L8 17L8 18L5 18L5 15L3 15L3 16L2 16L2 17L1 17L1 15L2 15L2 14L3 14L3 13L2 13L2 12L1 12L1 11L0 11L0 12L1 12L1 15L0 15L0 23L1 23L1 24L0 24L0 25L1 25L1 26L3 26L3 27L4 27L4 29L3 29L3 28L2 28L2 27L1 27L1 28L0 28L0 29L1 29L1 30L0 30L0 31L1 31L1 30L3 30L3 31L2 31L2 33L4 33L4 32L6 32L6 33L7 33L7 32L8 32L8 31L7 31L7 30L5 30L5 29L8 29L8 30L10 30L10 31L11 31L11 30L12 30L12 27L13 27L13 28L15 28L15 29L13 29L13 30L15 30L15 29L16 29L16 28L17 28L17 30L18 30L18 31L16 31L16 32L15 32L15 31L14 31L14 32L15 32L15 33L12 33L12 34L11 34L11 32L9 32L9 33L8 33L8 34L9 34L9 33L10 33L10 34L11 34L11 35L10 35L10 36L9 36L9 37L8 37L8 38L9 38L9 40L11 40L11 41L14 41L14 40L13 40L13 38L11 38L11 37L10 37L10 36L11 36L11 35L12 35L12 34L13 34L13 35L14 35L14 36L15 36L15 37L16 37L16 34L15 34L15 33L18 33L18 34L17 34L17 35L18 35L18 36L19 36L19 37L18 37L18 38L14 38L14 39L15 39L15 40L17 40L17 39L19 39L19 40L20 40L20 41L21 41L21 40L22 40L22 41L25 41L25 39L24 39L24 38L26 38L26 39L27 39L27 38L26 38L26 37L27 37L27 36L26 36L26 34L27 34L27 32L30 32L30 34L29 34L29 36L30 36L30 34L32 34L32 38L33 38L33 39L31 39L31 40L32 40L32 41L33 41L33 39L34 39L34 38L36 38L36 40L37 40L37 41L40 41L40 39L41 39L41 38L40 38L40 37L37 37L37 34L38 34L38 33L39 33L39 34L41 34L41 28L40 28L40 27L41 27L41 26L40 26L40 27L39 27L39 28L37 28L37 30L36 30L36 29L35 29L35 30L36 30L36 31L34 31L34 30L32 30L32 29L33 29L33 28L31 28L31 27L30 27L30 26L34 26L34 27L35 27L35 28L36 28L36 24L33 24L33 22L31 22L31 20L32 20L32 21L33 21L33 20L32 20L32 19L31 19L31 17L32 17L32 18L33 18L33 19L34 19L34 23L37 23L37 24L38 24L38 25L37 25L37 27L38 27L38 26L39 26L39 25L40 25L40 24L41 24L41 23L40 23L40 22L36 22L36 21L37 21L37 20L38 20L38 21L40 21L40 20L41 20L41 16L39 16L39 18L38 18L38 17L37 17L37 18L38 18L38 19L36 19L36 21L35 21L35 19L34 19L34 18L35 18L35 17L36 17L36 15L35 15L35 14L36 14L36 13L34 13L34 12L35 12L35 10L36 10L36 11L37 11L37 10L38 10L38 8L35 8L35 9L34 9L34 10L31 10L31 6L32 6L32 7L33 7L33 2L32 2L32 3L31 3L31 1L33 1L33 0L31 0L31 1L30 1L30 0L27 0L27 2L26 2L26 3L25 3L25 1L24 1L24 0L23 0L23 1L22 1L22 0L21 0L21 1L20 1L20 2L21 2L21 1L22 1L22 4L21 4L21 5L22 5L22 4L24 4L24 3L25 3L25 6L24 6L24 5L23 5L23 6L22 6L22 7L21 7L21 6L20 6L20 3L18 3L18 2L19 2L19 0L18 0L18 2L17 2L17 1L16 1L16 0L12 0L12 2L11 2L11 1L10 1L10 2L9 2L9 0ZM23 1L23 2L24 2L24 1ZM28 1L28 2L27 2L27 3L26 3L26 5L27 5L27 4L28 4L28 6L27 6L27 7L26 7L26 6L25 6L25 7L24 7L24 6L23 6L23 7L22 7L22 8L21 8L21 7L20 7L20 6L19 6L19 4L18 4L18 3L17 3L17 2L16 2L16 3L15 3L15 2L13 2L13 4L12 4L12 3L11 3L11 2L10 2L10 3L9 3L9 4L10 4L10 3L11 3L11 5L12 5L12 6L11 6L11 7L12 7L12 6L13 6L13 7L14 7L14 6L13 6L13 4L14 4L14 5L15 5L15 7L16 7L16 9L17 9L17 7L18 7L18 6L19 6L19 8L18 8L18 10L17 10L17 11L16 11L16 10L15 10L15 8L13 8L13 12L14 12L14 13L15 13L15 14L16 14L16 15L15 15L15 16L14 16L14 14L11 14L11 12L12 12L12 9L11 9L11 12L10 12L10 10L7 10L7 9L6 9L6 10L7 10L7 11L6 11L6 12L8 12L8 13L10 13L10 14L8 14L8 15L10 15L10 18L9 18L9 19L8 19L8 20L7 20L7 19L6 19L6 20L7 20L7 21L5 21L5 18L1 18L1 22L2 22L2 23L3 23L3 24L4 24L4 25L3 25L3 26L4 26L4 27L5 27L5 28L7 28L7 27L8 27L8 26L9 26L9 25L10 25L10 24L11 24L11 26L10 26L10 27L9 27L9 28L8 28L8 29L10 29L10 30L11 30L11 29L10 29L10 28L11 28L11 27L12 27L12 24L13 24L13 25L14 25L14 26L13 26L13 27L15 27L15 28L16 28L16 27L15 27L15 24L16 24L16 25L17 25L17 24L18 24L18 26L19 26L19 24L20 24L20 25L21 25L21 26L23 26L23 27L22 27L22 28L21 28L21 27L19 27L19 28L18 28L18 29L20 29L20 28L21 28L21 30L19 30L19 32L18 32L18 33L19 33L19 35L21 35L21 34L23 34L23 33L24 33L24 35L22 35L22 36L23 36L23 37L21 37L21 39L20 39L20 40L21 40L21 39L22 39L22 40L23 40L23 39L22 39L22 38L24 38L24 37L26 37L26 36L25 36L25 33L26 33L26 32L27 32L27 31L29 31L29 30L31 30L31 28L30 28L30 29L28 29L28 28L29 28L29 26L30 26L30 25L27 25L27 24L26 24L26 23L28 23L28 24L30 24L30 23L28 23L28 22L29 22L29 20L28 20L28 18L29 18L29 19L30 19L30 17L29 17L29 16L28 16L28 15L27 15L27 13L28 13L28 14L29 14L29 15L30 15L30 16L31 16L31 15L32 15L32 17L35 17L35 15L34 15L34 14L33 14L33 11L32 11L32 12L31 12L31 10L30 10L30 11L28 11L28 10L29 10L29 9L30 9L30 8L28 8L28 9L26 9L26 8L27 8L27 7L28 7L28 6L29 6L29 7L30 7L30 6L31 6L31 5L32 5L32 4L31 4L31 5L30 5L30 4L28 4L28 3L30 3L30 1ZM15 4L15 5L17 5L17 6L16 6L16 7L17 7L17 6L18 6L18 5L17 5L17 4ZM23 7L23 8L22 8L22 9L20 9L20 10L18 10L18 11L17 11L17 12L16 12L16 11L15 11L15 10L14 10L14 11L15 11L15 12L16 12L16 13L17 13L17 15L16 15L16 16L15 16L15 17L16 17L16 16L17 16L17 17L18 17L18 19L16 19L16 20L15 20L15 21L13 21L13 20L12 20L12 19L13 19L13 18L14 18L14 19L15 19L15 18L14 18L14 17L12 17L12 18L10 18L10 21L9 21L9 22L8 22L8 24L9 24L9 22L11 22L11 20L12 20L12 21L13 21L13 23L14 23L14 22L15 22L15 23L16 23L16 22L19 22L19 23L18 23L18 24L19 24L19 23L20 23L20 24L24 24L24 23L23 23L23 22L22 22L22 23L20 23L20 22L19 22L19 21L20 21L20 20L21 20L21 21L22 21L22 16L21 16L21 15L25 15L25 18L24 18L24 16L23 16L23 21L24 21L24 20L25 20L25 19L26 19L26 20L27 20L27 19L26 19L26 17L28 17L28 16L26 16L26 10L25 10L25 9L24 9L24 12L25 12L25 13L23 13L23 12L21 12L21 13L20 13L20 12L19 12L19 11L20 11L20 10L21 10L21 11L23 11L23 8L24 8L24 7ZM32 8L32 9L33 9L33 8ZM39 8L39 9L40 9L40 10L41 10L41 8ZM36 9L36 10L37 10L37 9ZM38 11L38 13L37 13L37 14L38 14L38 15L37 15L37 16L38 16L38 15L39 15L39 14L38 14L38 13L39 13L39 11ZM40 11L40 13L41 13L41 11ZM17 12L17 13L18 13L18 15L19 15L19 16L18 16L18 17L19 17L19 20L18 20L18 21L19 21L19 20L20 20L20 17L21 17L21 16L20 16L20 15L21 15L21 14L23 14L23 13L21 13L21 14L20 14L20 13L19 13L19 12ZM28 12L28 13L29 13L29 14L30 14L30 15L31 15L31 14L30 14L30 13L31 13L31 12ZM6 13L6 14L7 14L7 13ZM10 14L10 15L11 15L11 14ZM32 14L32 15L33 15L33 14ZM40 14L40 15L41 15L41 14ZM19 16L19 17L20 17L20 16ZM38 19L38 20L40 20L40 19ZM2 20L2 22L3 22L3 23L4 23L4 24L5 24L5 26L6 26L6 27L7 27L7 26L8 26L8 25L7 25L7 24L6 24L6 23L7 23L7 22L6 22L6 23L5 23L5 21L4 21L4 20ZM15 21L15 22L16 22L16 21ZM25 21L25 22L26 22L26 21ZM11 23L11 24L12 24L12 23ZM31 23L31 25L32 25L32 23ZM1 24L1 25L2 25L2 24ZM6 25L6 26L7 26L7 25ZM24 25L24 27L26 27L26 28L28 28L28 27L27 27L27 26L25 26L25 25ZM34 25L34 26L35 26L35 25ZM23 28L23 29L22 29L22 30L21 30L21 31L20 31L20 33L22 33L22 30L24 30L24 31L23 31L23 32L24 32L24 33L25 33L25 32L26 32L26 31L25 31L25 30L26 30L26 29L25 29L25 30L24 30L24 28ZM39 28L39 29L40 29L40 28ZM27 29L27 30L28 30L28 29ZM38 30L38 31L37 31L37 32L39 32L39 33L40 33L40 32L39 32L39 31L40 31L40 30ZM6 31L6 32L7 32L7 31ZM12 31L12 32L13 32L13 31ZM24 31L24 32L25 32L25 31ZM30 31L30 32L31 32L31 31ZM33 31L33 32L34 32L34 31ZM0 32L0 33L1 33L1 32ZM33 33L33 36L36 36L36 33ZM14 34L14 35L15 35L15 34ZM34 34L34 35L35 35L35 34ZM38 35L38 36L39 36L39 35ZM12 36L12 37L13 37L13 36ZM28 37L28 39L29 39L29 41L30 41L30 39L29 39L29 38L30 38L30 37ZM36 37L36 38L37 38L37 40L38 40L38 38L37 38L37 37ZM10 38L10 39L11 39L11 38ZM39 38L39 39L40 39L40 38ZM0 0L0 7L7 7L7 0ZM1 1L1 6L6 6L6 1ZM2 2L2 5L5 5L5 2ZM34 0L34 7L41 7L41 0ZM35 1L35 6L40 6L40 1ZM36 2L36 5L39 5L39 2ZM0 34L0 41L7 41L7 34ZM1 35L1 40L6 40L6 35ZM2 36L2 39L5 39L5 36Z" fill="#000000"/></g></g></svg>
