<?xml version="1.0" encoding="UTF-8"?>
<svg xmlns="http://www.w3.org/2000/svg" version="1.1" width="200" height="200" viewBox="0 0 200 200"><rect x="0" y="0" width="200" height="200" fill="#ffffff"/><g transform="scale(4.878)"><g transform="translate(0,0)"><path fill-rule="evenodd" d="M8 0L8 3L9 3L9 5L8 5L8 9L10 9L10 7L11 7L11 5L13 5L13 6L12 6L12 7L13 7L13 6L14 6L14 7L15 7L15 6L16 6L16 7L17 7L17 6L16 6L16 5L15 5L15 6L14 6L14 5L13 5L13 4L11 4L11 3L12 3L12 2L13 2L13 3L14 3L14 2L13 2L13 1L15 1L15 2L16 2L16 4L17 4L17 5L20 5L20 3L21 3L21 6L20 6L20 8L21 8L21 10L22 10L22 11L21 11L21 12L20 12L20 11L19 11L19 10L16 10L16 11L15 11L15 8L14 8L14 9L13 9L13 10L14 10L14 11L12 11L12 12L11 12L11 11L9 11L9 10L8 10L8 11L9 11L9 12L8 12L8 13L7 13L7 12L6 12L6 11L7 11L7 10L6 10L6 9L7 9L7 8L6 8L6 9L5 9L5 8L2 8L2 9L5 9L5 12L6 12L6 13L7 13L7 14L4 14L4 13L3 13L3 12L4 12L4 10L3 10L3 12L2 12L2 11L1 11L1 10L0 10L0 11L1 11L1 12L2 12L2 13L1 13L1 14L0 14L0 16L1 16L1 17L2 17L2 16L3 16L3 17L7 17L7 16L5 16L5 15L8 15L8 13L9 13L9 16L8 16L8 18L4 18L4 19L3 19L3 18L2 18L2 19L3 19L3 20L1 20L1 21L0 21L0 22L2 22L2 23L3 23L3 26L2 26L2 27L1 27L1 26L0 26L0 27L1 27L1 28L0 28L0 33L1 33L1 30L2 30L2 32L3 32L3 31L4 31L4 32L5 32L5 30L6 30L6 31L7 31L7 32L6 32L6 33L8 33L8 34L10 34L10 35L11 35L11 36L12 36L12 37L13 37L13 38L12 38L12 39L10 39L10 40L9 40L9 41L12 41L12 39L14 39L14 38L16 38L16 40L15 40L15 41L16 41L16 40L17 40L17 41L18 41L18 40L17 40L17 37L15 37L15 36L16 36L16 34L17 34L17 32L18 32L18 30L17 30L17 29L19 29L19 28L20 28L20 30L21 30L21 31L23 31L23 32L20 32L20 31L19 31L19 32L20 32L20 34L19 34L19 33L18 33L18 35L17 35L17 36L18 36L18 37L19 37L19 38L18 38L18 39L19 39L19 41L21 41L21 40L22 40L22 41L23 41L23 40L25 40L25 39L26 39L26 36L25 36L25 37L23 37L23 38L24 38L24 39L22 39L22 36L21 36L21 35L22 35L22 34L21 34L21 33L23 33L23 32L25 32L25 34L24 34L24 35L26 35L26 34L27 34L27 35L29 35L29 36L32 36L32 37L33 37L33 38L32 38L32 40L31 40L31 41L32 41L32 40L33 40L33 41L34 41L34 40L33 40L33 38L34 38L34 39L35 39L35 40L36 40L36 39L37 39L37 40L40 40L40 38L41 38L41 37L39 37L39 36L37 36L37 35L38 35L38 34L39 34L39 35L40 35L40 36L41 36L41 35L40 35L40 34L41 34L41 33L39 33L39 32L37 32L37 31L40 31L40 30L41 30L41 29L39 29L39 30L37 30L37 29L35 29L35 30L34 30L34 31L35 31L35 32L33 32L33 31L32 31L32 30L33 30L33 29L34 29L34 28L33 28L33 27L34 27L34 26L36 26L36 27L37 27L37 28L38 28L38 26L39 26L39 28L41 28L41 27L40 27L40 26L41 26L41 23L39 23L39 22L37 22L37 21L39 21L39 20L36 20L36 19L35 19L35 17L36 17L36 18L37 18L37 19L38 19L38 18L37 18L37 17L36 17L36 16L38 16L38 17L39 17L39 16L38 16L38 14L39 14L39 15L40 15L40 14L41 14L41 13L40 13L40 10L41 10L41 8L38 8L38 9L40 9L40 10L37 10L37 9L36 9L36 8L33 8L33 6L32 6L32 9L30 9L30 8L31 8L31 6L30 6L30 8L28 8L28 7L29 7L29 5L27 5L27 4L23 4L23 3L25 3L25 2L23 2L23 1L24 1L24 0L22 0L22 2L23 2L23 3L21 3L21 1L20 1L20 0L19 0L19 1L18 1L18 3L19 3L19 4L17 4L17 0L10 0L10 2L9 2L9 0ZM26 0L26 1L27 1L27 2L26 2L26 3L28 3L28 4L29 4L29 3L31 3L31 2L30 2L30 0L29 0L29 1L27 1L27 0ZM31 0L31 1L32 1L32 3L33 3L33 1L32 1L32 0ZM19 1L19 2L20 2L20 1ZM10 4L10 5L9 5L9 7L10 7L10 5L11 5L11 4ZM22 4L22 6L21 6L21 8L22 8L22 9L23 9L23 10L25 10L25 8L26 8L26 10L28 10L28 11L25 11L25 13L23 13L23 12L22 12L22 13L20 13L20 15L19 15L19 16L17 16L17 13L18 13L18 14L19 14L19 13L18 13L18 12L17 12L17 13L16 13L16 12L15 12L15 11L14 11L14 12L12 12L12 14L11 14L11 13L10 13L10 12L9 12L9 13L10 13L10 14L11 14L11 15L10 15L10 17L11 17L11 20L9 20L9 19L8 19L8 22L7 22L7 21L6 21L6 20L7 20L7 19L4 19L4 20L3 20L3 21L2 21L2 22L3 22L3 21L6 21L6 22L5 22L5 23L4 23L4 28L2 28L2 29L3 29L3 30L4 30L4 28L5 28L5 29L6 29L6 30L7 30L7 31L8 31L8 33L10 33L10 34L11 34L11 35L13 35L13 36L14 36L14 35L15 35L15 32L16 32L16 31L17 31L17 30L16 30L16 31L14 31L14 29L15 29L15 27L16 27L16 29L17 29L17 28L18 28L18 27L16 27L16 24L15 24L15 23L16 23L16 22L18 22L18 25L17 25L17 26L19 26L19 27L20 27L20 26L21 26L21 27L22 27L22 25L24 25L24 24L22 24L22 23L23 23L23 21L22 21L22 22L20 22L20 21L19 21L19 22L18 22L18 21L17 21L17 17L18 17L18 18L20 18L20 19L18 19L18 20L20 20L20 19L23 19L23 20L24 20L24 21L25 21L25 20L24 20L24 18L25 18L25 19L27 19L27 18L29 18L29 21L27 21L27 22L29 22L29 23L27 23L27 24L26 24L26 25L25 25L25 27L26 27L26 29L25 29L25 28L24 28L24 26L23 26L23 28L22 28L22 29L23 29L23 30L24 30L24 31L26 31L26 32L27 32L27 30L26 30L26 29L27 29L27 28L31 28L31 29L28 29L28 30L29 30L29 31L28 31L28 33L27 33L27 34L28 34L28 33L29 33L29 32L31 32L31 30L32 30L32 29L33 29L33 28L32 28L32 27L33 27L33 26L34 26L34 25L39 25L39 26L40 26L40 24L39 24L39 23L37 23L37 24L36 24L36 23L35 23L35 22L36 22L36 21L35 21L35 19L34 19L34 18L33 18L33 17L32 17L32 16L34 16L34 17L35 17L35 16L36 16L36 15L37 15L37 14L38 14L38 13L39 13L39 14L40 14L40 13L39 13L39 11L38 11L38 12L35 12L35 13L34 13L34 12L33 12L33 11L34 11L34 10L33 10L33 9L32 9L32 10L31 10L31 11L30 11L30 9L27 9L27 8L26 8L26 6L25 6L25 5L23 5L23 4ZM30 4L30 5L33 5L33 4ZM18 6L18 7L19 7L19 6ZM22 6L22 8L23 8L23 9L24 9L24 7L25 7L25 6L24 6L24 7L23 7L23 6ZM27 6L27 7L28 7L28 6ZM11 8L11 10L12 10L12 8ZM18 8L18 9L19 9L19 8ZM35 10L35 11L37 11L37 10ZM14 12L14 13L15 13L15 14L14 14L14 15L16 15L16 13L15 13L15 12ZM26 12L26 13L27 13L27 14L29 14L29 13L30 13L30 16L29 16L29 15L28 15L28 16L29 16L29 17L30 17L30 19L31 19L31 20L30 20L30 21L31 21L31 22L30 22L30 23L31 23L31 22L32 22L32 21L34 21L34 22L35 22L35 21L34 21L34 20L32 20L32 19L33 19L33 18L32 18L32 17L30 17L30 16L31 16L31 12L29 12L29 13L28 13L28 12ZM32 12L32 13L33 13L33 14L32 14L32 15L34 15L34 13L33 13L33 12ZM2 13L2 14L1 14L1 15L2 15L2 14L3 14L3 13ZM22 13L22 14L21 14L21 15L20 15L20 16L19 16L19 17L22 17L22 18L24 18L24 17L22 17L22 16L26 16L26 17L25 17L25 18L27 18L27 16L26 16L26 15L24 15L24 14L23 14L23 13ZM36 13L36 14L35 14L35 15L36 15L36 14L37 14L37 13ZM12 14L12 16L11 16L11 17L14 17L14 16L13 16L13 14ZM21 15L21 16L22 16L22 15ZM15 16L15 19L14 19L14 22L12 22L12 23L11 23L11 22L10 22L10 21L9 21L9 22L8 22L8 24L9 24L9 26L8 26L8 27L9 27L9 28L10 28L10 30L8 30L8 29L7 29L7 28L6 28L6 27L7 27L7 26L6 26L6 25L7 25L7 24L6 24L6 25L5 25L5 28L6 28L6 29L7 29L7 30L8 30L8 31L9 31L9 32L13 32L13 33L11 33L11 34L13 34L13 33L14 33L14 31L12 31L12 30L13 30L13 29L14 29L14 27L13 27L13 26L12 26L12 25L11 25L11 24L13 24L13 23L15 23L15 21L16 21L16 20L15 20L15 19L16 19L16 17L17 17L17 16ZM40 16L40 18L39 18L39 19L40 19L40 18L41 18L41 16ZM12 18L12 19L13 19L13 18ZM31 18L31 19L32 19L32 18ZM11 20L11 21L12 21L12 20ZM31 20L31 21L32 21L32 20ZM40 20L40 21L41 21L41 20ZM6 22L6 23L7 23L7 22ZM19 22L19 25L22 25L22 24L21 24L21 23L20 23L20 22ZM9 23L9 24L10 24L10 23ZM32 23L32 25L31 25L31 24L29 24L29 25L28 25L28 24L27 24L27 25L28 25L28 26L26 26L26 27L28 27L28 26L30 26L30 25L31 25L31 26L32 26L32 25L34 25L34 24L35 24L35 23ZM0 24L0 25L1 25L1 24ZM14 24L14 25L15 25L15 24ZM10 25L10 26L9 26L9 27L10 27L10 26L11 26L11 25ZM11 28L11 29L12 29L12 28ZM24 29L24 30L25 30L25 29ZM35 30L35 31L37 31L37 30ZM30 33L30 35L31 35L31 34L32 34L32 33ZM33 33L33 36L36 36L36 33ZM37 33L37 34L38 34L38 33ZM34 34L34 35L35 35L35 34ZM8 36L8 39L9 39L9 38L11 38L11 37L9 37L9 36ZM19 36L19 37L21 37L21 36ZM27 36L27 37L28 37L28 38L27 38L27 40L28 40L28 39L30 39L30 38L31 38L31 37L30 37L30 38L29 38L29 37L28 37L28 36ZM34 37L34 38L36 38L36 37ZM19 38L19 39L21 39L21 38ZM37 38L37 39L38 39L38 38ZM13 40L13 41L14 41L14 40ZM29 40L29 41L30 41L30 40ZM0 0L0 7L7 7L7 0ZM1 1L1 6L6 6L6 1ZM2 2L2 5L5 5L5 2ZM34 0L34 7L41 7L41 0ZM35 1L35 6L40 6L40 1ZM36 2L36 5L39 5L39 2ZM0 34L0 41L7 41L7 34ZM1 35L1 40L6 40L6 35ZM2 36L2 39L5 39L5 36Z" fill="#000000"/></g></g></svg>
