<?xml version="1.0" encoding="UTF-8"?>
<svg xmlns="http://www.w3.org/2000/svg" version="1.1" width="200" height="200" viewBox="0 0 200 200"><rect x="0" y="0" width="200" height="200" fill="#ffffff"/><g transform="scale(6.897)"><g transform="translate(0,0)"><path fill-rule="evenodd" d="M12 0L12 1L10 1L10 2L11 2L11 3L10 3L10 4L8 4L8 5L9 5L9 6L8 6L8 8L6 8L6 9L8 9L8 10L4 10L4 8L2 8L2 9L0 9L0 13L2 13L2 11L3 11L3 12L4 12L4 13L3 13L3 14L2 14L2 17L1 17L1 18L0 18L0 19L1 19L1 18L2 18L2 19L7 19L7 20L3 20L3 21L8 21L8 23L9 23L9 24L10 24L10 26L11 26L11 27L9 27L9 25L8 25L8 27L9 27L9 28L11 28L11 29L14 29L14 27L13 27L13 26L15 26L15 25L16 25L16 26L17 26L17 28L18 28L18 29L20 29L20 28L18 28L18 26L20 26L20 25L23 25L23 26L24 26L24 27L22 27L22 29L23 29L23 28L29 28L29 26L28 26L28 27L26 27L26 23L25 23L25 22L26 22L26 20L27 20L27 24L28 24L28 25L29 25L29 21L28 21L28 20L27 20L27 18L29 18L29 17L26 17L26 16L25 16L25 15L24 15L24 16L23 16L23 17L21 17L21 18L20 18L20 17L18 17L18 16L19 16L19 15L20 15L20 14L21 14L21 13L20 13L20 12L22 12L22 9L23 9L23 13L22 13L22 15L23 15L23 14L24 14L24 13L25 13L25 14L26 14L26 15L27 15L27 16L28 16L28 15L29 15L29 14L28 14L28 15L27 15L27 13L28 13L28 12L29 12L29 11L28 11L28 12L27 12L27 10L29 10L29 9L26 9L26 10L24 10L24 9L25 9L25 8L24 8L24 9L23 9L23 8L21 8L21 9L20 9L20 7L21 7L21 3L20 3L20 2L18 2L18 1L17 1L17 2L18 2L18 4L19 4L19 5L16 5L16 4L17 4L17 3L16 3L16 2L15 2L15 1L14 1L14 2L13 2L13 0ZM12 2L12 3L13 3L13 4L12 4L12 5L11 5L11 4L10 4L10 5L11 5L11 7L12 7L12 6L13 6L13 7L14 7L14 6L15 6L15 7L16 7L16 6L15 6L15 5L14 5L14 4L15 4L15 3L13 3L13 2ZM19 3L19 4L20 4L20 3ZM13 5L13 6L14 6L14 5ZM19 5L19 7L18 7L18 6L17 6L17 9L16 9L16 8L15 8L15 9L14 9L14 8L12 8L12 9L11 9L11 8L10 8L10 9L9 9L9 10L10 10L10 11L11 11L11 12L10 12L10 13L11 13L11 14L9 14L9 15L8 15L8 14L7 14L7 13L8 13L8 11L5 11L5 12L7 12L7 13L4 13L4 15L3 15L3 16L4 16L4 15L5 15L5 16L7 16L7 17L6 17L6 18L7 18L7 17L8 17L8 21L9 21L9 17L8 17L8 16L10 16L10 18L11 18L11 19L12 19L12 18L13 18L13 19L14 19L14 18L17 18L17 20L13 20L13 21L12 21L12 22L14 22L14 24L13 24L13 23L12 23L12 25L11 25L11 26L12 26L12 25L14 25L14 24L16 24L16 25L17 25L17 26L18 26L18 25L17 25L17 24L19 24L19 25L20 25L20 24L19 24L19 23L20 23L20 21L19 21L19 20L20 20L20 18L17 18L17 16L16 16L16 17L15 17L15 16L13 16L13 15L19 15L19 14L20 14L20 13L19 13L19 14L17 14L17 12L20 12L20 11L19 11L19 10L20 10L20 9L19 9L19 10L18 10L18 8L19 8L19 7L20 7L20 5ZM9 6L9 7L10 7L10 6ZM13 9L13 10L12 10L12 11L13 11L13 12L14 12L14 9ZM15 9L15 10L16 10L16 12L15 12L15 13L13 13L13 14L12 14L12 15L11 15L11 16L12 16L12 17L13 17L13 16L12 16L12 15L13 15L13 14L16 14L16 12L17 12L17 11L18 11L18 10L16 10L16 9ZM1 10L1 11L2 11L2 10ZM25 11L25 13L27 13L27 12L26 12L26 11ZM0 14L0 15L1 15L1 14ZM5 14L5 15L7 15L7 14ZM24 16L24 17L23 17L23 18L22 18L22 19L21 19L21 20L22 20L22 19L24 19L24 18L25 18L25 19L26 19L26 17L25 17L25 16ZM3 17L3 18L5 18L5 17ZM18 19L18 20L19 20L19 19ZM1 20L1 21L2 21L2 20ZM10 20L10 23L11 23L11 20ZM14 21L14 22L17 22L17 21ZM21 21L21 24L24 24L24 21ZM22 22L22 23L23 23L23 22ZM24 25L24 26L25 26L25 25ZM11 27L11 28L13 28L13 27ZM15 27L15 28L16 28L16 27ZM0 0L0 7L7 7L7 0ZM1 1L1 6L6 6L6 1ZM2 2L2 5L5 5L5 2ZM22 0L22 7L29 7L29 0ZM23 1L23 6L28 6L28 1ZM24 2L24 5L27 5L27 2ZM0 22L0 29L7 29L7 22ZM1 23L1 28L6 28L6 23ZM2 24L2 27L5 27L5 24Z" fill="#000000"/></g></g></svg>
