<?xml version="1.0" encoding="UTF-8"?>
<svg xmlns="http://www.w3.org/2000/svg" version="1.1" width="200" height="200" viewBox="0 0 200 200"><rect x="0" y="0" width="200" height="200" fill="#ffffff"/><g transform="scale(4.878)"><g transform="translate(0,0)"><path fill-rule="evenodd" d="M8 0L8 3L9 3L9 4L10 4L10 5L8 5L8 9L7 9L7 8L6 8L6 9L7 9L7 10L6 10L6 11L7 11L7 10L9 10L9 11L10 11L10 12L11 12L11 11L13 11L13 12L14 12L14 11L13 11L13 9L14 9L14 10L15 10L15 14L14 14L14 13L13 13L13 15L12 15L12 13L11 13L11 14L10 14L10 13L7 13L7 12L5 12L5 11L4 11L4 10L5 10L5 8L2 8L2 9L4 9L4 10L2 10L2 12L1 12L1 9L0 9L0 12L1 12L1 14L0 14L0 16L2 16L2 19L4 19L4 20L0 20L0 21L3 21L3 22L2 22L2 24L0 24L0 26L1 26L1 27L2 27L2 24L3 24L3 25L5 25L5 26L3 26L3 28L2 28L2 31L3 31L3 29L7 29L7 30L6 30L6 31L8 31L8 32L6 32L6 33L8 33L8 34L9 34L9 33L8 33L8 32L9 32L9 31L10 31L10 32L11 32L11 30L12 30L12 33L10 33L10 35L12 35L12 33L14 33L14 34L15 34L15 38L14 38L14 37L13 37L13 36L14 36L14 35L13 35L13 36L11 36L11 37L12 37L12 38L10 38L10 36L8 36L8 39L9 39L9 41L10 41L10 40L11 40L11 39L13 39L13 40L14 40L14 41L15 41L15 40L14 40L14 39L16 39L16 41L17 41L17 40L19 40L19 41L21 41L21 39L23 39L23 40L24 40L24 41L28 41L28 39L30 39L30 40L29 40L29 41L30 41L30 40L31 40L31 41L32 41L32 40L33 40L33 41L34 41L34 40L33 40L33 39L32 39L32 38L34 38L34 39L35 39L35 40L36 40L36 39L38 39L38 38L37 38L37 36L38 36L38 37L39 37L39 40L40 40L40 38L41 38L41 37L40 37L40 36L41 36L41 35L40 35L40 34L41 34L41 33L39 33L39 32L41 32L41 31L40 31L40 30L41 30L41 29L40 29L40 28L41 28L41 27L40 27L40 26L41 26L41 23L40 23L40 26L39 26L39 24L37 24L37 25L34 25L34 24L33 24L33 23L31 23L31 22L32 22L32 21L34 21L34 22L36 22L36 21L39 21L39 20L36 20L36 19L35 19L35 17L36 17L36 18L38 18L38 19L40 19L40 18L41 18L41 16L40 16L40 18L38 18L38 17L39 17L39 16L37 16L37 15L39 15L39 14L41 14L41 12L40 12L40 10L41 10L41 8L38 8L38 9L40 9L40 10L37 10L37 9L36 9L36 8L33 8L33 6L32 6L32 9L31 9L31 5L32 5L32 4L33 4L33 1L32 1L32 0L31 0L31 1L30 1L30 2L31 2L31 3L30 3L30 4L28 4L28 5L27 5L27 6L26 6L26 7L27 7L27 8L28 8L28 9L31 9L31 10L30 10L30 12L26 12L26 13L25 13L25 14L24 14L24 13L23 13L23 12L25 12L25 10L26 10L26 11L29 11L29 10L27 10L27 9L25 9L25 10L24 10L24 8L25 8L25 6L24 6L24 5L22 5L22 7L21 7L21 6L20 6L20 7L19 7L19 6L18 6L18 5L21 5L21 4L20 4L20 2L19 2L19 1L18 1L18 0L17 0L17 1L18 1L18 3L17 3L17 2L16 2L16 4L18 4L18 5L17 5L17 6L16 6L16 9L17 9L17 6L18 6L18 8L20 8L20 9L19 9L19 11L20 11L20 9L21 9L21 10L22 10L22 11L23 11L23 12L22 12L22 13L20 13L20 14L21 14L21 15L22 15L22 16L20 16L20 17L22 17L22 19L25 19L25 20L24 20L24 21L25 21L25 20L27 20L27 21L26 21L26 22L25 22L25 23L24 23L24 22L23 22L23 21L22 21L22 20L21 20L21 18L19 18L19 17L16 17L16 16L14 16L14 17L13 17L13 20L12 20L12 22L11 22L11 21L10 21L10 23L8 23L8 22L9 22L9 21L8 21L8 20L6 20L6 19L9 19L9 20L10 20L10 19L11 19L11 18L12 18L12 16L13 16L13 15L15 15L15 14L16 14L16 10L15 10L15 9L14 9L14 8L15 8L15 5L14 5L14 4L15 4L15 1L16 1L16 0ZM23 0L23 1L24 1L24 2L25 2L25 3L23 3L23 2L22 2L22 1L21 1L21 2L22 2L22 3L23 3L23 4L25 4L25 5L26 5L26 4L27 4L27 3L29 3L29 1L27 1L27 0ZM11 1L11 2L10 2L10 4L11 4L11 5L10 5L10 6L9 6L9 8L10 8L10 9L9 9L9 10L10 10L10 11L11 11L11 10L12 10L12 9L11 9L11 8L14 8L14 6L13 6L13 5L12 5L12 3L11 3L11 2L13 2L13 1ZM31 1L31 2L32 2L32 1ZM26 2L26 3L25 3L25 4L26 4L26 3L27 3L27 2ZM31 3L31 4L30 4L30 5L28 5L28 6L27 6L27 7L28 7L28 8L30 8L30 5L31 5L31 4L32 4L32 3ZM11 5L11 6L10 6L10 8L11 8L11 6L12 6L12 7L13 7L13 6L12 6L12 5ZM23 6L23 7L24 7L24 6ZM28 6L28 7L29 7L29 6ZM20 7L20 8L21 8L21 7ZM22 8L22 9L23 9L23 8ZM10 9L10 10L11 10L11 9ZM32 9L32 10L31 10L31 14L30 14L30 13L28 13L28 14L30 14L30 15L28 15L28 17L27 17L27 18L29 18L29 16L30 16L30 17L31 17L31 14L32 14L32 15L33 15L33 16L34 16L34 17L35 17L35 14L36 14L36 13L37 13L37 14L39 14L39 11L38 11L38 12L35 12L35 11L37 11L37 10L34 10L34 11L32 11L32 10L33 10L33 9ZM23 10L23 11L24 11L24 10ZM2 12L2 14L1 14L1 15L2 15L2 14L3 14L3 15L4 15L4 16L3 16L3 18L4 18L4 19L6 19L6 18L7 18L7 17L6 17L6 18L4 18L4 17L5 17L5 16L7 16L7 15L6 15L6 14L7 14L7 13L6 13L6 14L3 14L3 12ZM4 12L4 13L5 13L5 12ZM33 12L33 13L32 13L32 14L33 14L33 15L34 15L34 14L33 14L33 13L34 13L34 12ZM17 13L17 14L18 14L18 13ZM8 14L8 18L9 18L9 17L11 17L11 15L10 15L10 14ZM23 14L23 16L22 16L22 17L24 17L24 18L26 18L26 16L27 16L27 15L26 15L26 14L25 14L25 15L24 15L24 14ZM9 15L9 16L10 16L10 15ZM17 15L17 16L19 16L19 15ZM24 16L24 17L25 17L25 16ZM36 16L36 17L37 17L37 16ZM15 17L15 18L16 18L16 17ZM32 17L32 18L30 18L30 19L32 19L32 20L29 20L29 19L27 19L27 20L29 20L29 21L27 21L27 22L26 22L26 23L25 23L25 24L28 24L28 23L27 23L27 22L29 22L29 24L30 24L30 22L29 22L29 21L32 21L32 20L34 20L34 21L36 21L36 20L35 20L35 19L34 19L34 18L33 18L33 17ZM14 19L14 20L13 20L13 23L14 23L14 22L16 22L16 23L15 23L15 26L14 26L14 24L13 24L13 25L12 25L12 27L13 27L13 28L12 28L12 30L13 30L13 32L14 32L14 33L15 33L15 34L16 34L16 35L17 35L17 33L19 33L19 34L20 34L20 32L19 32L19 31L17 31L17 30L18 30L18 29L19 29L19 30L23 30L23 31L21 31L21 33L22 33L22 32L23 32L23 31L24 31L24 30L25 30L25 32L24 32L24 33L25 33L25 35L24 35L24 36L23 36L23 35L22 35L22 36L23 36L23 37L22 37L22 38L23 38L23 39L24 39L24 40L25 40L25 39L24 39L24 38L25 38L25 37L26 37L26 40L27 40L27 38L30 38L30 39L31 39L31 40L32 40L32 39L31 39L31 38L32 38L32 36L31 36L31 35L30 35L30 33L31 33L31 34L32 34L32 32L39 32L39 28L40 28L40 27L39 27L39 26L38 26L38 28L36 28L36 27L35 27L35 28L36 28L36 29L34 29L34 28L33 28L33 29L32 29L32 28L31 28L31 27L32 27L32 26L33 26L33 27L34 27L34 25L32 25L32 24L31 24L31 25L30 25L30 26L29 26L29 25L24 25L24 23L22 23L22 21L21 21L21 23L19 23L19 24L18 24L18 22L19 22L19 21L20 21L20 19L19 19L19 21L18 21L18 20L17 20L17 19L16 19L16 20L15 20L15 19ZM4 20L4 23L5 23L5 22L7 22L7 21L5 21L5 20ZM14 20L14 21L15 21L15 20ZM40 20L40 21L41 21L41 20ZM16 21L16 22L18 22L18 21ZM38 22L38 23L39 23L39 22ZM6 23L6 24L5 24L5 25L6 25L6 26L7 26L7 25L9 25L9 26L11 26L11 24L12 24L12 23L11 23L11 24L10 24L10 25L9 25L9 24L8 24L8 23ZM16 23L16 25L17 25L17 27L16 27L16 26L15 26L15 27L14 27L14 26L13 26L13 27L14 27L14 29L13 29L13 30L14 30L14 32L15 32L15 33L16 33L16 30L17 30L17 29L16 29L16 28L19 28L19 27L21 27L21 28L22 28L22 29L23 29L23 30L24 30L24 29L23 29L23 28L22 28L22 27L24 27L24 26L23 26L23 24L21 24L21 26L20 26L20 24L19 24L19 26L18 26L18 24L17 24L17 23ZM35 23L35 24L36 24L36 23ZM6 24L6 25L7 25L7 24ZM31 25L31 26L32 26L32 25ZM21 26L21 27L22 27L22 26ZM25 26L25 29L27 29L27 30L26 30L26 31L27 31L27 30L29 30L29 31L28 31L28 32L29 32L29 33L28 33L28 34L27 34L27 32L26 32L26 35L25 35L25 36L24 36L24 37L25 37L25 36L27 36L27 37L29 37L29 33L30 33L30 32L31 32L31 31L30 31L30 30L31 30L31 29L30 29L30 28L29 28L29 27L28 27L28 26ZM6 27L6 28L7 28L7 27ZM8 27L8 29L9 29L9 30L10 30L10 29L11 29L11 28L10 28L10 27ZM15 27L15 28L16 28L16 27ZM9 28L9 29L10 29L10 28ZM28 28L28 29L29 29L29 30L30 30L30 29L29 29L29 28ZM0 29L0 33L1 33L1 29ZM14 29L14 30L15 30L15 29ZM33 29L33 30L32 30L32 31L33 31L33 30L34 30L34 31L37 31L37 30L38 30L38 29L36 29L36 30L34 30L34 29ZM4 30L4 31L5 31L5 30ZM29 31L29 32L30 32L30 31ZM3 32L3 33L5 33L5 32ZM33 33L33 36L36 36L36 33ZM37 33L37 35L38 35L38 36L39 36L39 33ZM34 34L34 35L35 35L35 34ZM18 36L18 39L19 39L19 40L20 40L20 39L19 39L19 38L21 38L21 36ZM30 36L30 37L31 37L31 36ZM34 37L34 38L36 38L36 37ZM9 38L9 39L10 39L10 38ZM13 38L13 39L14 39L14 38ZM16 38L16 39L17 39L17 38ZM0 0L0 7L7 7L7 0ZM1 1L1 6L6 6L6 1ZM2 2L2 5L5 5L5 2ZM34 0L34 7L41 7L41 0ZM35 1L35 6L40 6L40 1ZM36 2L36 5L39 5L39 2ZM0 34L0 41L7 41L7 34ZM1 35L1 40L6 40L6 35ZM2 36L2 39L5 39L5 36Z" fill="#000000"/></g></g></svg>
