<?xml version="1.0" encoding="UTF-8"?>
<svg xmlns="http://www.w3.org/2000/svg" version="1.1" width="200" height="200" viewBox="0 0 200 200"><rect x="0" y="0" width="200" height="200" fill="#ffffff"/><g transform="scale(4.878)"><g transform="translate(0,0)"><path fill-rule="evenodd" d="M8 0L8 3L9 3L9 4L10 4L10 8L9 8L9 5L8 5L8 9L7 9L7 8L6 8L6 9L5 9L5 8L2 8L2 9L1 9L1 10L0 10L0 12L1 12L1 10L2 10L2 12L3 12L3 13L2 13L2 14L1 14L1 15L0 15L0 21L2 21L2 22L1 22L1 23L2 23L2 22L3 22L3 24L2 24L2 25L0 25L0 27L1 27L1 29L0 29L0 33L1 33L1 30L2 30L2 27L1 27L1 26L2 26L2 25L3 25L3 24L5 24L5 22L6 22L6 23L7 23L7 22L6 22L6 21L7 21L7 20L6 20L6 21L5 21L5 18L6 18L6 19L7 19L7 18L8 18L8 16L3 16L3 15L4 15L4 12L5 12L5 15L7 15L7 14L8 14L8 15L9 15L9 14L8 14L8 13L10 13L10 12L8 12L8 11L9 11L9 10L8 10L8 9L10 9L10 10L11 10L11 12L13 12L13 13L11 13L11 14L13 14L13 16L12 16L12 15L11 15L11 17L10 17L10 18L9 18L9 19L8 19L8 22L10 22L10 24L9 24L9 23L8 23L8 24L6 24L6 25L4 25L4 26L3 26L3 28L4 28L4 29L8 29L8 31L7 31L7 30L4 30L4 32L5 32L5 31L7 31L7 32L6 32L6 33L7 33L7 32L8 32L8 31L9 31L9 32L10 32L10 31L11 31L11 28L12 28L12 31L13 31L13 32L11 32L11 33L8 33L8 34L10 34L10 35L11 35L11 34L12 34L12 37L9 37L9 36L8 36L8 39L9 39L9 38L11 38L11 39L10 39L10 40L9 40L9 41L10 41L10 40L11 40L11 39L13 39L13 40L14 40L14 41L15 41L15 40L14 40L14 38L16 38L16 39L17 39L17 38L16 38L16 36L15 36L15 37L14 37L14 35L13 35L13 34L12 34L12 33L14 33L14 31L15 31L15 32L16 32L16 33L15 33L15 34L16 34L16 35L17 35L17 34L16 34L16 33L18 33L18 34L19 34L19 35L18 35L18 36L17 36L17 37L18 37L18 36L20 36L20 34L19 34L19 32L20 32L20 33L21 33L21 34L22 34L22 35L21 35L21 41L23 41L23 40L24 40L24 39L23 39L23 40L22 40L22 37L23 37L23 35L24 35L24 38L25 38L25 39L26 39L26 41L28 41L28 39L30 39L30 40L29 40L29 41L30 41L30 40L33 40L33 41L34 41L34 40L33 40L33 39L31 39L31 38L34 38L34 39L35 39L35 40L36 40L36 39L37 39L37 40L40 40L40 38L41 38L41 37L40 37L40 36L41 36L41 35L40 35L40 34L41 34L41 33L39 33L39 32L38 32L38 30L39 30L39 31L40 31L40 30L41 30L41 29L40 29L40 28L39 28L39 29L38 29L38 30L37 30L37 29L36 29L36 28L38 28L38 26L39 26L39 27L40 27L40 26L41 26L41 23L39 23L39 22L38 22L38 21L39 21L39 20L38 20L38 18L37 18L37 17L39 17L39 16L37 16L37 14L38 14L38 13L36 13L36 14L35 14L35 15L36 15L36 16L35 16L35 17L34 17L34 16L32 16L32 17L31 17L31 15L30 15L30 16L29 16L29 15L28 15L28 16L29 16L29 17L31 17L31 18L30 18L30 19L31 19L31 20L30 20L30 21L31 21L31 22L32 22L32 21L34 21L34 22L35 22L35 23L33 23L33 24L28 24L28 23L29 23L29 22L27 22L27 23L25 23L25 26L26 26L26 27L27 27L27 30L26 30L26 29L25 29L25 27L24 27L24 26L22 26L22 25L21 25L21 26L20 26L20 27L21 27L21 26L22 26L22 27L24 27L24 28L20 28L20 30L19 30L19 27L18 27L18 26L19 26L19 22L20 22L20 24L21 24L21 23L22 23L22 22L23 22L23 23L24 23L24 22L25 22L25 21L26 21L26 20L27 20L27 21L29 21L29 19L28 19L28 18L27 18L27 19L26 19L26 20L25 20L25 21L24 21L24 20L23 20L23 19L25 19L25 18L26 18L26 16L27 16L27 14L29 14L29 13L30 13L30 14L31 14L31 11L30 11L30 12L29 12L29 13L28 13L28 12L27 12L27 14L26 14L26 16L25 16L25 14L23 14L23 13L25 13L25 12L26 12L26 11L29 11L29 9L31 9L31 10L32 10L32 11L33 11L33 12L32 12L32 13L33 13L33 14L32 14L32 15L34 15L34 13L35 13L35 12L38 12L38 11L40 11L40 10L41 10L41 8L38 8L38 9L40 9L40 10L37 10L37 9L36 9L36 8L32 8L32 7L33 7L33 5L32 5L32 4L33 4L33 3L32 3L32 4L28 4L28 5L27 5L27 4L25 4L25 2L24 2L24 1L25 1L25 0L18 0L18 1L21 1L21 2L20 2L20 3L21 3L21 4L18 4L18 7L17 7L17 4L16 4L16 3L15 3L15 2L17 2L17 0L15 0L15 2L14 2L14 1L13 1L13 2L11 2L11 0ZM26 0L26 1L27 1L27 2L26 2L26 3L31 3L31 2L30 2L30 1L32 1L32 2L33 2L33 0L29 0L29 1L27 1L27 0ZM9 1L9 2L10 2L10 1ZM22 1L22 2L21 2L21 3L24 3L24 2L23 2L23 1ZM13 2L13 4L12 4L12 3L11 3L11 4L12 4L12 5L11 5L11 7L12 7L12 8L11 8L11 10L12 10L12 11L13 11L13 9L14 9L14 10L15 10L15 11L14 11L14 13L15 13L15 12L16 12L16 13L17 13L17 12L18 12L18 15L17 15L17 14L16 14L16 16L15 16L15 14L14 14L14 16L13 16L13 17L11 17L11 19L10 19L10 21L11 21L11 23L13 23L13 22L14 22L14 21L15 21L15 22L17 22L17 20L18 20L18 22L19 22L19 21L20 21L20 22L22 22L22 21L23 21L23 22L24 22L24 21L23 21L23 20L22 20L22 19L23 19L23 17L25 17L25 16L24 16L24 15L23 15L23 17L22 17L22 18L21 18L21 15L20 15L20 13L22 13L22 12L24 12L24 11L25 11L25 10L28 10L28 9L29 9L29 8L31 8L31 9L32 9L32 10L33 10L33 11L34 11L34 9L32 9L32 8L31 8L31 7L32 7L32 5L31 5L31 7L30 7L30 5L29 5L29 7L28 7L28 6L27 6L27 5L26 5L26 6L25 6L25 4L24 4L24 5L22 5L22 4L21 4L21 9L18 9L18 8L19 8L19 7L20 7L20 5L19 5L19 7L18 7L18 8L17 8L17 7L16 7L16 6L15 6L15 8L14 8L14 6L13 6L13 4L15 4L15 5L16 5L16 4L15 4L15 3L14 3L14 2ZM18 2L18 3L19 3L19 2ZM12 6L12 7L13 7L13 6ZM22 6L22 7L23 7L23 11L24 11L24 9L25 9L25 6L24 6L24 7L23 7L23 6ZM26 6L26 8L27 8L27 9L28 9L28 7L27 7L27 6ZM12 8L12 9L13 9L13 8ZM15 8L15 10L17 10L17 11L16 11L16 12L17 12L17 11L18 11L18 12L19 12L19 13L20 13L20 12L22 12L22 11L21 11L21 10L19 10L19 11L18 11L18 9L16 9L16 8ZM3 9L3 10L5 10L5 9ZM6 9L6 10L7 10L7 9ZM35 9L35 11L36 11L36 9ZM5 11L5 12L7 12L7 11ZM33 12L33 13L34 13L34 12ZM39 12L39 14L41 14L41 12ZM6 13L6 14L7 14L7 13ZM1 15L1 16L2 16L2 18L4 18L4 17L3 17L3 16L2 16L2 15ZM18 15L18 16L19 16L19 15ZM14 16L14 17L15 17L15 18L16 18L16 19L13 19L13 18L12 18L12 19L11 19L11 20L12 20L12 19L13 19L13 20L15 20L15 21L16 21L16 20L17 20L17 19L18 19L18 20L20 20L20 21L22 21L22 20L20 20L20 19L19 19L19 17L17 17L17 16L16 16L16 17L15 17L15 16ZM36 16L36 17L35 17L35 19L34 19L34 18L33 18L33 17L32 17L32 18L31 18L31 19L33 19L33 20L34 20L34 21L35 21L35 22L36 22L36 21L35 21L35 19L36 19L36 20L37 20L37 21L38 21L38 20L37 20L37 18L36 18L36 17L37 17L37 16ZM40 16L40 18L39 18L39 19L40 19L40 18L41 18L41 16ZM6 17L6 18L7 18L7 17ZM2 19L2 21L3 21L3 20L4 20L4 19ZM31 20L31 21L32 21L32 20ZM40 20L40 21L41 21L41 20ZM4 21L4 22L5 22L5 21ZM37 22L37 24L36 24L36 23L35 23L35 24L33 24L33 25L32 25L32 26L31 26L31 25L30 25L30 26L29 26L29 25L28 25L28 24L26 24L26 25L27 25L27 26L29 26L29 27L28 27L28 28L30 28L30 29L31 29L31 30L32 30L32 31L33 31L33 32L36 32L36 31L34 31L34 30L36 30L36 29L35 29L35 26L36 26L36 25L39 25L39 26L40 26L40 24L39 24L39 23L38 23L38 22ZM8 24L8 25L6 25L6 26L4 26L4 28L7 28L7 27L6 27L6 26L9 26L9 28L8 28L8 29L9 29L9 30L10 30L10 29L9 29L9 28L10 28L10 26L12 26L12 25L13 25L13 24L12 24L12 25L9 25L9 24ZM15 24L15 25L16 25L16 26L18 26L18 25L16 25L16 24ZM23 24L23 25L24 25L24 24ZM35 24L35 25L33 25L33 27L32 27L32 28L33 28L33 29L32 29L32 30L33 30L33 29L34 29L34 28L33 28L33 27L34 27L34 26L35 26L35 25L36 25L36 24ZM13 26L13 27L12 27L12 28L14 28L14 26ZM16 27L16 28L17 28L17 29L18 29L18 28L17 28L17 27ZM13 29L13 31L14 31L14 30L15 30L15 31L16 31L16 32L18 32L18 31L19 31L19 30L18 30L18 31L16 31L16 30L15 30L15 29ZM23 29L23 30L20 30L20 31L21 31L21 33L22 33L22 34L24 34L24 35L25 35L25 34L28 34L28 35L26 35L26 36L25 36L25 37L26 37L26 38L30 38L30 37L32 37L32 36L29 36L29 37L26 37L26 36L28 36L28 35L29 35L29 34L28 34L28 33L29 33L29 32L31 32L31 31L30 31L30 30L29 30L29 29L28 29L28 30L29 30L29 31L28 31L28 33L26 33L26 32L27 32L27 31L26 31L26 32L25 32L25 31L24 31L24 32L23 32L23 30L24 30L24 29ZM2 31L2 33L3 33L3 31ZM22 32L22 33L23 33L23 32ZM37 32L37 33L38 33L38 34L37 34L37 35L38 35L38 36L37 36L37 37L38 37L38 36L39 36L39 35L38 35L38 34L39 34L39 33L38 33L38 32ZM24 33L24 34L25 34L25 33ZM30 33L30 35L31 35L31 34L32 34L32 33ZM33 33L33 36L36 36L36 33ZM34 34L34 35L35 35L35 34ZM19 37L19 38L18 38L18 39L19 39L19 40L20 40L20 37ZM34 37L34 38L36 38L36 37ZM37 38L37 39L38 39L38 38ZM16 40L16 41L18 41L18 40ZM0 0L0 7L7 7L7 0ZM1 1L1 6L6 6L6 1ZM2 2L2 5L5 5L5 2ZM34 0L34 7L41 7L41 0ZM35 1L35 6L40 6L40 1ZM36 2L36 5L39 5L39 2ZM0 34L0 41L7 41L7 34ZM1 35L1 40L6 40L6 35ZM2 36L2 39L5 39L5 36Z" fill="#000000"/></g></g></svg>
