<?xml version="1.0" encoding="UTF-8"?>
<svg xmlns="http://www.w3.org/2000/svg" version="1.1" width="200" height="200" viewBox="0 0 200 200"><rect x="0" y="0" width="200" height="200" fill="#ffffff"/><g transform="scale(6.897)"><g transform="translate(0,0)"><path fill-rule="evenodd" d="M9 0L9 1L8 1L8 2L9 2L9 3L10 3L10 2L11 2L11 3L13 3L13 2L14 2L14 3L15 3L15 4L12 4L12 7L11 7L11 5L10 5L10 4L9 4L9 5L8 5L8 8L4 8L4 9L0 9L0 13L1 13L1 14L2 14L2 15L0 15L0 16L2 16L2 20L0 20L0 21L2 21L2 20L3 20L3 21L4 21L4 20L5 20L5 21L7 21L7 20L8 20L8 25L10 25L10 26L9 26L9 28L10 28L10 26L11 26L11 25L12 25L12 27L11 27L11 28L12 28L12 27L13 27L13 28L14 28L14 26L15 26L15 28L17 28L17 29L18 29L18 28L19 28L19 27L20 27L20 26L19 26L19 27L18 27L18 28L17 28L17 26L18 26L18 25L24 25L24 26L23 26L23 27L25 27L25 28L22 28L22 29L25 29L25 28L26 28L26 27L25 27L25 21L26 21L26 23L27 23L27 24L26 24L26 26L27 26L27 28L28 28L28 27L29 27L29 26L27 26L27 24L28 24L28 25L29 25L29 22L28 22L28 23L27 23L27 21L29 21L29 18L28 18L28 17L27 17L27 18L25 18L25 16L24 16L24 14L25 14L25 15L27 15L27 16L29 16L29 15L27 15L27 12L29 12L29 9L28 9L28 8L27 8L27 9L25 9L25 10L24 10L24 8L22 8L22 9L23 9L23 10L22 10L22 11L24 11L24 12L23 12L23 13L22 13L22 12L21 12L21 11L20 11L20 9L21 9L21 6L20 6L20 7L19 7L19 6L18 6L18 5L19 5L19 4L18 4L18 3L19 3L19 2L20 2L20 1L21 1L21 0L19 0L19 1L18 1L18 2L17 2L17 1L16 1L16 0L13 0L13 1L12 1L12 2L11 2L11 1L10 1L10 0ZM9 1L9 2L10 2L10 1ZM16 3L16 6L15 6L15 5L13 5L13 8L12 8L12 10L11 10L11 9L10 9L10 8L11 8L11 7L10 7L10 5L9 5L9 7L10 7L10 8L8 8L8 9L10 9L10 10L9 10L9 12L8 12L8 11L6 11L6 12L7 12L7 13L6 13L6 14L5 14L5 15L4 15L4 14L3 14L3 12L2 12L2 10L1 10L1 13L2 13L2 14L3 14L3 17L6 17L6 18L4 18L4 19L5 19L5 20L7 20L7 19L6 19L6 18L8 18L8 17L9 17L9 15L10 15L10 17L11 17L11 18L10 18L10 19L8 19L8 20L11 20L11 21L10 21L10 22L9 22L9 23L10 23L10 22L11 22L11 21L12 21L12 22L13 22L13 21L14 21L14 22L16 22L16 21L14 21L14 20L15 20L15 19L14 19L14 17L15 17L15 18L16 18L16 17L18 17L18 18L19 18L19 20L21 20L21 19L20 19L20 18L19 18L19 16L20 16L20 17L22 17L22 18L24 18L24 20L27 20L27 19L28 19L28 18L27 18L27 19L25 19L25 18L24 18L24 16L22 16L22 15L21 15L21 14L22 14L22 13L21 13L21 14L19 14L19 13L20 13L20 12L19 12L19 10L18 10L18 9L19 9L19 7L18 7L18 6L17 6L17 3ZM20 3L20 5L21 5L21 3ZM14 6L14 7L15 7L15 6ZM16 6L16 7L17 7L17 6ZM16 8L16 10L15 10L15 9L14 9L14 10L12 10L12 11L11 11L11 10L10 10L10 12L12 12L12 11L15 11L15 12L13 12L13 13L8 13L8 14L6 14L6 15L5 15L5 16L6 16L6 17L8 17L8 16L6 16L6 15L9 15L9 14L10 14L10 15L12 15L12 16L11 16L11 17L14 17L14 16L13 16L13 15L15 15L15 17L16 17L16 12L17 12L17 13L19 13L19 12L18 12L18 10L17 10L17 8ZM4 9L4 10L3 10L3 11L5 11L5 9ZM6 9L6 10L7 10L7 9ZM27 9L27 10L28 10L28 9ZM13 13L13 14L14 14L14 13ZM23 13L23 14L24 14L24 13ZM25 13L25 14L26 14L26 13ZM17 14L17 15L19 15L19 14ZM0 17L0 18L1 18L1 17ZM11 18L11 20L14 20L14 19L12 19L12 18ZM16 19L16 20L17 20L17 21L18 21L18 24L17 24L17 23L16 23L16 24L15 24L15 23L11 23L11 24L10 24L10 25L11 25L11 24L12 24L12 25L13 25L13 26L14 26L14 25L13 25L13 24L15 24L15 26L17 26L17 25L18 25L18 24L20 24L20 22L19 22L19 21L18 21L18 19ZM22 19L22 20L23 20L23 19ZM21 21L21 24L24 24L24 21ZM22 22L22 23L23 23L23 22ZM16 24L16 25L17 25L17 24ZM21 26L21 27L22 27L22 26ZM0 0L0 7L7 7L7 0ZM1 1L1 6L6 6L6 1ZM2 2L2 5L5 5L5 2ZM22 0L22 7L29 7L29 0ZM23 1L23 6L28 6L28 1ZM24 2L24 5L27 5L27 2ZM0 22L0 29L7 29L7 22ZM1 23L1 28L6 28L6 23ZM2 24L2 27L5 27L5 24Z" fill="#000000"/></g></g></svg>
