<?xml version="1.0" encoding="UTF-8"?>
<svg xmlns="http://www.w3.org/2000/svg" version="1.1" width="200" height="200" viewBox="0 0 200 200"><rect x="0" y="0" width="200" height="200" fill="#ffffff"/><g transform="scale(4.878)"><g transform="translate(0,0)"><path fill-rule="evenodd" d="M8 0L8 3L10 3L10 2L11 2L11 3L12 3L12 2L11 2L11 0L10 0L10 1L9 1L9 0ZM12 0L12 1L14 1L14 0ZM15 0L15 2L16 2L16 4L15 4L15 3L13 3L13 6L12 6L12 5L11 5L11 4L10 4L10 5L8 5L8 10L6 10L6 9L7 9L7 8L6 8L6 9L5 9L5 8L2 8L2 9L0 9L0 10L2 10L2 12L4 12L4 14L3 14L3 15L1 15L1 16L0 16L0 17L3 17L3 18L4 18L4 17L3 17L3 15L4 15L4 14L6 14L6 15L7 15L7 14L8 14L8 15L9 15L9 14L10 14L10 15L11 15L11 17L8 17L8 16L6 16L6 17L5 17L5 19L7 19L7 20L4 20L4 21L1 21L1 22L0 22L0 23L1 23L1 24L0 24L0 27L1 27L1 29L0 29L0 33L1 33L1 29L2 29L2 30L3 30L3 31L2 31L2 33L3 33L3 32L4 32L4 33L5 33L5 32L4 32L4 31L5 31L5 29L7 29L7 30L6 30L6 31L7 31L7 32L6 32L6 33L7 33L7 32L9 32L9 33L8 33L8 34L9 34L9 35L11 35L11 33L12 33L12 36L10 36L10 37L9 37L9 36L8 36L8 39L9 39L9 41L11 41L11 38L10 38L10 37L12 37L12 36L14 36L14 37L13 37L13 38L12 38L12 41L13 41L13 40L15 40L15 41L16 41L16 40L17 40L17 41L18 41L18 40L17 40L17 38L19 38L19 39L20 39L20 38L21 38L21 40L23 40L23 39L25 39L25 38L24 38L24 37L23 37L23 38L22 38L22 37L21 37L21 36L22 36L22 35L23 35L23 36L24 36L24 35L27 35L27 36L28 36L28 34L29 34L29 36L31 36L31 35L32 35L32 37L30 37L30 38L31 38L31 39L30 39L30 40L27 40L27 39L28 39L28 38L29 38L29 37L28 37L28 38L27 38L27 37L26 37L26 36L25 36L25 37L26 37L26 38L27 38L27 39L26 39L26 41L32 41L32 40L33 40L33 41L34 41L34 40L33 40L33 39L32 39L32 38L34 38L34 39L35 39L35 40L36 40L36 39L37 39L37 40L40 40L40 38L41 38L41 36L38 36L38 33L39 33L39 35L40 35L40 34L41 34L41 33L40 33L40 32L41 32L41 31L40 31L40 30L41 30L41 29L39 29L39 30L38 30L38 29L36 29L36 28L38 28L38 26L39 26L39 27L40 27L40 26L41 26L41 23L39 23L39 24L40 24L40 26L39 26L39 25L36 25L36 24L37 24L37 20L38 20L38 21L39 21L39 20L38 20L38 17L39 17L39 16L37 16L37 17L36 17L36 16L35 16L35 17L34 17L34 16L32 16L32 17L30 17L30 16L29 16L29 15L28 15L28 16L29 16L29 17L30 17L30 19L31 19L31 18L32 18L32 19L33 19L33 18L34 18L34 19L35 19L35 21L34 21L34 20L32 20L32 21L31 21L31 20L30 20L30 21L31 21L31 22L29 22L29 23L28 23L28 22L27 22L27 23L28 23L28 24L27 24L27 25L25 25L25 26L27 26L27 27L26 27L26 28L25 28L25 27L24 27L24 25L23 25L23 23L24 23L24 24L25 24L25 23L26 23L26 22L25 22L25 23L24 23L24 22L23 22L23 23L22 23L22 22L21 22L21 18L22 18L22 20L24 20L24 19L27 19L27 21L29 21L29 18L25 18L25 17L27 17L27 15L26 15L26 14L29 14L29 13L30 13L30 15L31 15L31 12L32 12L32 13L33 13L33 14L32 14L32 15L34 15L34 13L35 13L35 11L37 11L37 12L38 12L38 11L39 11L39 12L40 12L40 10L41 10L41 8L38 8L38 9L40 9L40 10L37 10L37 9L36 9L36 8L31 8L31 5L32 5L32 4L33 4L33 3L32 3L32 2L30 2L30 1L33 1L33 0L29 0L29 1L27 1L27 0L26 0L26 1L27 1L27 2L26 2L26 3L28 3L28 4L29 4L29 3L32 3L32 4L30 4L30 5L29 5L29 6L28 6L28 5L27 5L27 4L26 4L26 5L25 5L25 6L24 6L24 7L23 7L23 5L24 5L24 4L25 4L25 3L21 3L21 2L25 2L25 0L24 0L24 1L23 1L23 0L21 0L21 2L20 2L20 0L18 0L18 1L17 1L17 0ZM17 2L17 3L19 3L19 2ZM20 3L20 5L19 5L19 4L18 4L18 5L19 5L19 7L18 7L18 6L17 6L17 7L16 7L16 5L17 5L17 4L16 4L16 5L14 5L14 6L13 6L13 7L14 7L14 6L15 6L15 9L13 9L13 8L11 8L11 7L12 7L12 6L11 6L11 7L10 7L10 6L9 6L9 8L11 8L11 9L12 9L12 10L9 10L9 11L11 11L11 12L7 12L7 11L6 11L6 10L5 10L5 9L4 9L4 10L3 10L3 9L2 9L2 10L3 10L3 11L4 11L4 10L5 10L5 11L6 11L6 12L5 12L5 13L6 13L6 14L7 14L7 13L11 13L11 15L13 15L13 14L14 14L14 17L13 17L13 18L12 18L12 19L11 19L11 18L10 18L10 20L11 20L11 21L10 21L10 22L11 22L11 21L12 21L12 23L9 23L9 22L8 22L8 21L9 21L9 19L8 19L8 18L7 18L7 17L6 17L6 18L7 18L7 19L8 19L8 20L7 20L7 21L4 21L4 22L5 22L5 23L6 23L6 24L8 24L8 25L6 25L6 26L8 26L8 25L10 25L10 24L11 24L11 25L12 25L12 24L13 24L13 27L12 27L12 28L11 28L11 30L10 30L10 31L11 31L11 32L10 32L10 33L11 33L11 32L13 32L13 35L14 35L14 34L15 34L15 35L16 35L16 36L17 36L17 35L18 35L18 34L19 34L19 36L18 36L18 37L20 37L20 36L21 36L21 35L20 35L20 34L21 34L21 33L22 33L22 34L23 34L23 33L24 33L24 32L26 32L26 33L27 33L27 34L28 34L28 33L29 33L29 32L31 32L31 31L30 31L30 29L31 29L31 30L32 30L32 31L33 31L33 32L35 32L35 31L37 31L37 32L40 32L40 31L38 31L38 30L36 30L36 29L35 29L35 28L36 28L36 27L37 27L37 26L36 26L36 25L35 25L35 24L36 24L36 23L35 23L35 22L36 22L36 21L35 21L35 22L34 22L34 21L32 21L32 22L31 22L31 23L29 23L29 24L31 24L31 25L30 25L30 26L29 26L29 25L27 25L27 26L28 26L28 28L27 28L27 29L26 29L26 30L27 30L27 29L28 29L28 30L29 30L29 31L28 31L28 33L27 33L27 31L23 31L23 30L24 30L24 29L25 29L25 28L24 28L24 27L23 27L23 28L21 28L21 26L23 26L23 25L21 25L21 24L22 24L22 23L21 23L21 22L19 22L19 21L18 21L18 20L19 20L19 19L17 19L17 17L18 17L18 18L21 18L21 17L22 17L22 16L21 16L21 14L22 14L22 15L23 15L23 12L24 12L24 13L25 13L25 14L24 14L24 15L25 15L25 16L26 16L26 15L25 15L25 14L26 14L26 12L24 12L24 11L27 11L27 12L28 12L28 13L29 13L29 12L31 12L31 11L34 11L34 9L32 9L32 10L31 10L31 11L30 11L30 10L29 10L29 9L25 9L25 10L24 10L24 11L23 11L23 9L24 9L24 8L23 8L23 7L22 7L22 6L21 6L21 8L22 8L22 9L20 9L20 10L21 10L21 11L20 11L20 12L21 12L21 11L23 11L23 12L22 12L22 13L19 13L19 16L20 16L20 17L18 17L18 16L16 16L16 18L15 18L15 20L16 20L16 22L15 22L15 21L13 21L13 20L14 20L14 19L13 19L13 18L14 18L14 17L15 17L15 14L16 14L16 15L17 15L17 14L16 14L16 13L14 13L14 12L15 12L15 11L16 11L16 12L17 12L17 13L18 13L18 12L19 12L19 11L18 11L18 10L19 10L19 9L18 9L18 8L19 8L19 7L20 7L20 5L22 5L22 4L21 4L21 3ZM26 5L26 6L25 6L25 8L27 8L27 7L28 7L28 6L27 6L27 5ZM26 6L26 7L27 7L27 6ZM29 6L29 8L30 8L30 9L31 9L31 8L30 8L30 6ZM32 6L32 7L33 7L33 6ZM17 7L17 8L18 8L18 7ZM16 9L16 10L18 10L18 9ZM35 9L35 10L36 10L36 9ZM27 10L27 11L28 11L28 12L29 12L29 10ZM13 11L13 12L14 12L14 11ZM17 11L17 12L18 12L18 11ZM6 12L6 13L7 13L7 12ZM33 12L33 13L34 13L34 12ZM12 13L12 14L13 14L13 13ZM36 13L36 14L35 14L35 15L37 15L37 13ZM39 13L39 14L41 14L41 13ZM23 16L23 17L24 17L24 16ZM40 16L40 18L39 18L39 19L40 19L40 18L41 18L41 16ZM32 17L32 18L33 18L33 17ZM35 17L35 19L36 19L36 20L37 20L37 18L36 18L36 17ZM23 18L23 19L24 19L24 18ZM1 19L1 20L3 20L3 19ZM12 19L12 20L13 20L13 19ZM16 19L16 20L17 20L17 19ZM40 20L40 21L41 21L41 20ZM17 21L17 25L16 25L16 24L14 24L14 22L13 22L13 24L14 24L14 27L15 27L15 28L14 28L14 30L13 30L13 29L12 29L12 30L11 30L11 31L14 31L14 33L15 33L15 31L16 31L16 30L17 30L17 31L18 31L18 32L17 32L17 33L18 33L18 32L20 32L20 33L19 33L19 34L20 34L20 33L21 33L21 32L22 32L22 30L21 30L21 32L20 32L20 31L18 31L18 30L19 30L19 29L20 29L20 28L19 28L19 27L20 27L20 26L21 26L21 25L20 25L20 24L21 24L21 23L19 23L19 22L18 22L18 21ZM1 22L1 23L3 23L3 22ZM6 22L6 23L7 23L7 22ZM33 22L33 23L31 23L31 24L33 24L33 25L31 25L31 26L32 26L32 27L31 27L31 28L33 28L33 29L32 29L32 30L33 30L33 29L34 29L34 28L33 28L33 27L34 27L34 26L35 26L35 27L36 27L36 26L35 26L35 25L34 25L34 22ZM8 23L8 24L9 24L9 23ZM1 24L1 27L2 27L2 28L3 28L3 30L4 30L4 28L3 28L3 27L4 27L4 26L3 26L3 24ZM4 24L4 25L5 25L5 24ZM15 25L15 26L16 26L16 25ZM19 25L19 26L18 26L18 27L16 27L16 28L15 28L15 29L16 29L16 28L17 28L17 30L18 30L18 29L19 29L19 28L18 28L18 27L19 27L19 26L20 26L20 25ZM33 25L33 26L34 26L34 25ZM2 26L2 27L3 27L3 26ZM9 26L9 27L11 27L11 26ZM5 27L5 28L7 28L7 27ZM9 28L9 29L10 29L10 28ZM23 28L23 29L24 29L24 28ZM28 28L28 29L30 29L30 28ZM8 30L8 31L9 31L9 30ZM34 30L34 31L35 31L35 30ZM30 33L30 35L31 35L31 33ZM33 33L33 36L36 36L36 33ZM16 34L16 35L17 35L17 34ZM34 34L34 35L35 35L35 34ZM37 36L37 37L38 37L38 36ZM16 37L16 38L17 38L17 37ZM34 37L34 38L36 38L36 37ZM14 38L14 39L15 39L15 40L16 40L16 39L15 39L15 38ZM37 38L37 39L38 39L38 38ZM31 39L31 40L32 40L32 39ZM19 40L19 41L20 41L20 40ZM0 0L0 7L7 7L7 0ZM1 1L1 6L6 6L6 1ZM2 2L2 5L5 5L5 2ZM34 0L34 7L41 7L41 0ZM35 1L35 6L40 6L40 1ZM36 2L36 5L39 5L39 2ZM0 34L0 41L7 41L7 34ZM1 35L1 40L6 40L6 35ZM2 36L2 39L5 39L5 36Z" fill="#000000"/></g></g></svg>
