<?xml version="1.0" encoding="UTF-8"?>
<svg xmlns="http://www.w3.org/2000/svg" version="1.1" width="200" height="200" viewBox="0 0 200 200"><rect x="0" y="0" width="200" height="200" fill="#ffffff"/><g transform="scale(4.878)"><g transform="translate(0,0)"><path fill-rule="evenodd" d="M8 0L8 3L10 3L10 5L8 5L8 9L7 9L7 8L6 8L6 9L5 9L5 8L2 8L2 9L0 9L0 12L1 12L1 14L0 14L0 15L2 15L2 12L1 12L1 10L2 10L2 11L4 11L4 13L3 13L3 15L4 15L4 16L3 16L3 17L2 17L2 16L1 16L1 17L0 17L0 19L1 19L1 20L2 20L2 18L4 18L4 19L10 19L10 15L11 15L11 16L12 16L12 15L13 15L13 14L14 14L14 16L13 16L13 17L14 17L14 18L13 18L13 21L12 21L12 22L11 22L11 23L12 23L12 25L13 25L13 28L15 28L15 30L14 30L14 31L16 31L16 33L15 33L15 32L14 32L14 33L12 33L12 34L13 34L13 36L14 36L14 37L15 37L15 38L16 38L16 39L17 39L17 40L18 40L18 39L17 39L17 38L19 38L19 39L20 39L20 38L21 38L21 39L22 39L22 40L23 40L23 38L24 38L24 39L25 39L25 40L24 40L24 41L25 41L25 40L26 40L26 39L27 39L27 41L31 41L31 40L33 40L33 41L34 41L34 40L33 40L33 39L32 39L32 38L31 38L31 37L30 37L30 38L31 38L31 39L30 39L30 40L28 40L28 39L29 39L29 38L24 38L24 37L25 37L25 36L27 36L27 37L29 37L29 36L31 36L31 35L32 35L32 37L33 37L33 38L34 38L34 39L35 39L35 40L36 40L36 39L37 39L37 40L40 40L40 38L41 38L41 36L40 36L40 34L41 34L41 33L40 33L40 32L37 32L37 31L40 31L40 30L41 30L41 29L40 29L40 28L41 28L41 27L40 27L40 26L41 26L41 23L39 23L39 24L40 24L40 26L39 26L39 25L36 25L36 24L37 24L37 23L38 23L38 22L39 22L39 20L36 20L36 19L35 19L35 17L36 17L36 18L37 18L37 19L38 19L38 17L39 17L39 18L41 18L41 16L40 16L40 17L39 17L39 16L37 16L37 15L40 15L40 14L41 14L41 13L40 13L40 12L39 12L39 13L40 13L40 14L37 14L37 13L36 13L36 15L35 15L35 17L34 17L34 16L32 16L32 17L30 17L30 16L31 16L31 15L30 15L30 14L31 14L31 12L32 12L32 13L33 13L33 14L32 14L32 15L34 15L34 13L35 13L35 9L36 9L36 10L37 10L37 11L36 11L36 12L38 12L38 11L40 11L40 10L41 10L41 8L38 8L38 9L40 9L40 10L37 10L37 9L36 9L36 8L32 8L32 7L33 7L33 6L32 6L32 7L31 7L31 6L30 6L30 7L31 7L31 8L32 8L32 9L30 9L30 8L28 8L28 7L29 7L29 5L27 5L27 4L24 4L24 2L25 2L25 1L24 1L24 2L23 2L23 5L24 5L24 7L23 7L23 6L22 6L22 7L21 7L21 4L22 4L22 2L20 2L20 1L18 1L18 0L16 0L16 1L17 1L17 2L14 2L14 3L12 3L12 4L11 4L11 3L10 3L10 2L9 2L9 1L10 1L10 0ZM11 0L11 1L12 1L12 2L13 2L13 1L12 1L12 0ZM14 0L14 1L15 1L15 0ZM21 0L21 1L23 1L23 0ZM26 0L26 1L27 1L27 2L26 2L26 3L28 3L28 4L29 4L29 3L31 3L31 2L30 2L30 1L33 1L33 0L29 0L29 1L27 1L27 0ZM18 2L18 3L17 3L17 5L16 5L16 6L15 6L15 7L14 7L14 5L15 5L15 4L14 4L14 5L13 5L13 4L12 4L12 5L10 5L10 6L9 6L9 7L10 7L10 6L11 6L11 8L10 8L10 10L9 10L9 9L8 9L8 10L7 10L7 9L6 9L6 10L5 10L5 9L2 9L2 10L4 10L4 11L6 11L6 12L7 12L7 13L6 13L6 14L5 14L5 13L4 13L4 15L5 15L5 16L9 16L9 14L10 14L10 13L11 13L11 14L12 14L12 13L11 13L11 12L12 12L12 10L13 10L13 11L14 11L14 14L16 14L16 15L17 15L17 14L18 14L18 13L17 13L17 12L18 12L18 11L19 11L19 15L18 15L18 18L17 18L17 16L14 16L14 17L15 17L15 18L16 18L16 19L15 19L15 20L14 20L14 21L15 21L15 20L16 20L16 23L15 23L15 22L12 22L12 23L13 23L13 25L15 25L15 26L14 26L14 27L15 27L15 26L17 26L17 27L18 27L18 28L16 28L16 31L17 31L17 33L16 33L16 34L15 34L15 33L14 33L14 36L15 36L15 37L16 37L16 38L17 38L17 37L18 37L18 35L17 35L17 34L19 34L19 35L24 35L24 36L22 36L22 37L24 37L24 36L25 36L25 35L26 35L26 34L28 34L28 35L27 35L27 36L29 36L29 33L26 33L26 31L27 31L27 29L26 29L26 30L24 30L24 29L23 29L23 30L22 30L22 29L21 29L21 28L23 28L23 27L24 27L24 28L27 28L27 26L28 26L28 27L29 27L29 28L30 28L30 29L28 29L28 30L30 30L30 29L31 29L31 30L32 30L32 31L33 31L33 32L35 32L35 31L37 31L37 30L39 30L39 28L40 28L40 27L39 27L39 26L38 26L38 28L37 28L37 27L36 27L36 25L35 25L35 24L36 24L36 23L35 23L35 22L36 22L36 21L35 21L35 19L34 19L34 18L33 18L33 17L32 17L32 18L31 18L31 19L30 19L30 17L29 17L29 16L30 16L30 15L29 15L29 14L30 14L30 13L29 13L29 12L30 12L30 11L27 11L27 12L28 12L28 13L29 13L29 14L27 14L27 13L26 13L26 11L25 11L25 10L24 10L24 12L23 12L23 9L24 9L24 8L23 8L23 9L21 9L21 11L20 11L20 8L19 8L19 9L18 9L18 6L17 6L17 5L19 5L19 7L20 7L20 5L19 5L19 4L18 4L18 3L20 3L20 2ZM32 2L32 4L30 4L30 5L32 5L32 4L33 4L33 2ZM12 5L12 7L13 7L13 8L14 8L14 9L15 9L15 10L17 10L17 11L16 11L16 12L17 12L17 11L18 11L18 9L16 9L16 8L17 8L17 6L16 6L16 8L14 8L14 7L13 7L13 5ZM25 6L25 7L26 7L26 8L25 8L25 9L26 9L26 10L30 10L30 9L27 9L27 7L28 7L28 6L27 6L27 7L26 7L26 6ZM11 8L11 10L10 10L10 11L11 11L11 10L12 10L12 8ZM32 9L32 10L31 10L31 11L32 11L32 10L33 10L33 11L34 11L34 9ZM6 10L6 11L7 11L7 12L8 12L8 11L9 11L9 10L8 10L8 11L7 11L7 10ZM21 11L21 13L22 13L22 11ZM9 12L9 13L8 13L8 14L9 14L9 13L10 13L10 12ZM24 12L24 13L23 13L23 14L24 14L24 13L25 13L25 15L23 15L23 17L20 17L20 16L21 16L21 15L20 15L20 16L19 16L19 17L20 17L20 18L18 18L18 19L16 19L16 20L17 20L17 21L19 21L19 22L22 22L22 23L23 23L23 24L21 24L21 25L22 25L22 26L24 26L24 27L26 27L26 26L27 26L27 25L28 25L28 26L32 26L32 25L34 25L34 26L33 26L33 27L34 27L34 26L35 26L35 25L34 25L34 24L33 24L33 23L34 23L34 22L35 22L35 21L34 21L34 20L33 20L33 19L32 19L32 20L33 20L33 21L31 21L31 20L30 20L30 21L31 21L31 22L29 22L29 21L28 21L28 20L29 20L29 18L27 18L27 21L26 21L26 20L25 20L25 21L26 21L26 23L25 23L25 22L24 22L24 21L22 21L22 20L24 20L24 19L22 19L22 18L23 18L23 17L24 17L24 16L25 16L25 17L27 17L27 14L26 14L26 13L25 13L25 12ZM33 12L33 13L34 13L34 12ZM6 14L6 15L7 15L7 14ZM28 15L28 16L29 16L29 15ZM36 16L36 17L37 17L37 16ZM6 17L6 18L8 18L8 17ZM20 18L20 19L21 19L21 18ZM25 18L25 19L26 19L26 18ZM4 20L4 21L3 21L3 23L4 23L4 21L5 21L5 23L7 23L7 24L6 24L6 25L5 25L5 24L4 24L4 26L6 26L6 27L5 27L5 28L6 28L6 29L8 29L8 28L6 28L6 27L7 27L7 26L8 26L8 27L11 27L11 28L10 28L10 29L11 29L11 30L9 30L9 31L8 31L8 32L9 32L9 31L11 31L11 32L13 32L13 29L11 29L11 28L12 28L12 26L8 26L8 25L9 25L9 23L10 23L10 22L9 22L9 23L7 23L7 22L8 22L8 21L7 21L7 20L6 20L6 21L5 21L5 20ZM19 20L19 21L21 21L21 20ZM40 20L40 21L41 21L41 20ZM0 21L0 24L2 24L2 25L3 25L3 24L2 24L2 23L1 23L1 22L2 22L2 21ZM6 21L6 22L7 22L7 21ZM27 21L27 22L28 22L28 21ZM33 21L33 22L31 22L31 24L30 24L30 23L27 23L27 24L28 24L28 25L29 25L29 24L30 24L30 25L32 25L32 23L33 23L33 22L34 22L34 21ZM37 21L37 22L38 22L38 21ZM23 22L23 23L24 23L24 22ZM14 23L14 24L15 24L15 25L17 25L17 26L18 26L18 27L19 27L19 29L17 29L17 31L18 31L18 33L19 33L19 34L20 34L20 33L21 33L21 34L22 34L22 33L23 33L23 34L24 34L24 33L25 33L25 34L26 34L26 33L25 33L25 31L24 31L24 30L23 30L23 31L22 31L22 30L21 30L21 31L22 31L22 33L21 33L21 32L20 32L20 31L18 31L18 30L19 30L19 29L20 29L20 27L19 27L19 26L20 26L20 23L18 23L18 24L17 24L17 23L16 23L16 24L15 24L15 23ZM7 24L7 25L6 25L6 26L7 26L7 25L8 25L8 24ZM24 24L24 25L25 25L25 26L26 26L26 25L25 25L25 24ZM0 25L0 27L2 27L2 26L1 26L1 25ZM18 25L18 26L19 26L19 25ZM0 28L0 33L1 33L1 30L2 30L2 31L5 31L5 29L4 29L4 28L2 28L2 29L1 29L1 28ZM33 28L33 29L32 29L32 30L33 30L33 29L34 29L34 28ZM35 28L35 29L36 29L36 30L37 30L37 29L36 29L36 28ZM2 29L2 30L4 30L4 29ZM6 30L6 31L7 31L7 30ZM34 30L34 31L35 31L35 30ZM23 31L23 32L24 32L24 31ZM28 31L28 32L30 32L30 31ZM2 32L2 33L3 33L3 32ZM6 32L6 33L7 33L7 32ZM19 32L19 33L20 33L20 32ZM8 33L8 34L10 34L10 36L8 36L8 39L9 39L9 41L10 41L10 40L12 40L12 41L15 41L15 39L14 39L14 40L12 40L12 38L13 38L13 37L12 37L12 38L11 38L11 39L10 39L10 36L11 36L11 34L10 34L10 33ZM30 33L30 35L31 35L31 33ZM33 33L33 36L36 36L36 33ZM37 33L37 34L39 34L39 33ZM34 34L34 35L35 35L35 34ZM15 35L15 36L16 36L16 35ZM37 35L37 36L39 36L39 35ZM19 36L19 37L20 37L20 36ZM34 37L34 38L36 38L36 37ZM37 38L37 39L38 39L38 38ZM0 0L0 7L7 7L7 0ZM1 1L1 6L6 6L6 1ZM2 2L2 5L5 5L5 2ZM34 0L34 7L41 7L41 0ZM35 1L35 6L40 6L40 1ZM36 2L36 5L39 5L39 2ZM0 34L0 41L7 41L7 34ZM1 35L1 40L6 40L6 35ZM2 36L2 39L5 39L5 36Z" fill="#000000"/></g></g></svg>
