<?xml version="1.0" encoding="UTF-8"?>
<svg xmlns="http://www.w3.org/2000/svg" version="1.1" width="200" height="200" viewBox="0 0 200 200"><rect x="0" y="0" width="200" height="200" fill="#ffffff"/><g transform="scale(4.878)"><g transform="translate(0,0)"><path fill-rule="evenodd" d="M8 0L8 3L9 3L9 4L10 4L10 5L8 5L8 10L5 10L5 8L2 8L2 9L1 9L1 10L0 10L0 11L1 11L1 12L0 12L0 13L2 13L2 14L3 14L3 15L1 15L1 14L0 14L0 15L1 15L1 16L3 16L3 17L2 17L2 18L1 18L1 17L0 17L0 22L1 22L1 23L0 23L0 25L2 25L2 28L0 28L0 33L1 33L1 29L4 29L4 30L5 30L5 31L2 31L2 33L5 33L5 31L7 31L7 32L6 32L6 33L7 33L7 32L9 32L9 33L8 33L8 34L9 34L9 35L10 35L10 34L9 34L9 33L10 33L10 32L9 32L9 31L8 31L8 30L10 30L10 29L8 29L8 28L6 28L6 27L10 27L10 28L11 28L11 30L12 30L12 29L13 29L13 31L12 31L12 32L14 32L14 31L16 31L16 33L17 33L17 35L18 35L18 37L20 37L20 38L17 38L17 36L16 36L16 35L14 35L14 36L16 36L16 38L15 38L15 37L14 37L14 38L15 38L15 39L14 39L14 40L13 40L13 36L12 36L12 34L14 34L14 33L11 33L11 36L10 36L10 37L11 37L11 40L13 40L13 41L17 41L17 40L18 40L18 39L21 39L21 40L20 40L20 41L21 41L21 40L24 40L24 41L25 41L25 40L28 40L28 41L32 41L32 40L33 40L33 41L34 41L34 40L33 40L33 39L32 39L32 38L31 38L31 37L30 37L30 38L31 38L31 39L32 39L32 40L28 40L28 38L27 38L27 39L26 39L26 38L25 38L25 35L26 35L26 36L27 36L27 37L29 37L29 36L31 36L31 35L32 35L32 37L33 37L33 38L34 38L34 39L35 39L35 40L36 40L36 39L37 39L37 40L40 40L40 38L41 38L41 36L37 36L37 35L40 35L40 34L41 34L41 33L39 33L39 32L40 32L40 30L41 30L41 29L39 29L39 30L37 30L37 29L35 29L35 30L34 30L34 31L39 31L39 32L33 32L33 31L32 31L32 30L33 30L33 29L34 29L34 28L33 28L33 29L32 29L32 28L28 28L28 27L29 27L29 26L32 26L32 25L33 25L33 27L34 27L34 26L36 26L36 27L37 27L37 28L38 28L38 26L39 26L39 28L40 28L40 26L41 26L41 23L39 23L39 22L37 22L37 20L38 20L38 21L39 21L39 20L38 20L38 18L37 18L37 17L39 17L39 18L41 18L41 16L40 16L40 17L39 17L39 16L37 16L37 14L38 14L38 15L40 15L40 14L41 14L41 13L40 13L40 12L41 12L41 11L40 11L40 10L41 10L41 8L38 8L38 9L40 9L40 10L37 10L37 9L36 9L36 8L32 8L32 7L33 7L33 6L32 6L32 7L31 7L31 6L30 6L30 5L33 5L33 4L30 4L30 5L27 5L27 4L26 4L26 5L24 5L24 7L23 7L23 6L22 6L22 5L23 5L23 4L25 4L25 3L24 3L24 2L25 2L25 0L23 0L23 1L21 1L21 2L23 2L23 4L21 4L21 3L20 3L20 4L21 4L21 6L20 6L20 7L19 7L19 4L16 4L16 2L17 2L17 3L19 3L19 2L20 2L20 0L18 0L18 1L16 1L16 0L12 0L12 2L9 2L9 1L11 1L11 0ZM26 0L26 1L27 1L27 2L26 2L26 3L28 3L28 4L29 4L29 3L32 3L32 2L33 2L33 1L32 1L32 0L31 0L31 1L32 1L32 2L30 2L30 0L29 0L29 1L27 1L27 0ZM13 1L13 2L14 2L14 6L13 6L13 7L14 7L14 10L15 10L15 11L13 11L13 10L12 10L12 9L11 9L11 10L8 10L8 11L6 11L6 12L8 12L8 13L6 13L6 14L5 14L5 12L4 12L4 15L5 15L5 16L4 16L4 18L3 18L3 19L2 19L2 20L1 20L1 22L4 22L4 23L5 23L5 24L3 24L3 26L7 26L7 25L5 25L5 24L7 24L7 23L9 23L9 24L8 24L8 25L10 25L10 27L12 27L12 28L13 28L13 29L14 29L14 30L15 30L15 29L17 29L17 30L18 30L18 31L17 31L17 33L18 33L18 35L19 35L19 34L21 34L21 35L23 35L23 36L20 36L20 37L23 37L23 36L24 36L24 34L23 34L23 32L22 32L22 34L21 34L21 32L20 32L20 30L21 30L21 29L22 29L22 28L21 28L21 25L18 25L18 24L25 24L25 25L23 25L23 26L22 26L22 27L23 27L23 30L24 30L24 31L26 31L26 27L27 27L27 26L28 26L28 25L29 25L29 24L30 24L30 25L32 25L32 24L31 24L31 23L33 23L33 25L39 25L39 26L40 26L40 24L39 24L39 23L37 23L37 24L36 24L36 23L35 23L35 22L36 22L36 21L35 21L35 19L36 19L36 20L37 20L37 18L36 18L36 17L37 17L37 16L36 16L36 15L35 15L35 14L36 14L36 13L38 13L38 14L40 14L40 13L39 13L39 12L40 12L40 11L38 11L38 12L35 12L35 13L34 13L34 12L33 12L33 11L34 11L34 9L32 9L32 8L31 8L31 7L30 7L30 6L29 6L29 7L28 7L28 6L27 6L27 8L26 8L26 9L25 9L25 7L26 7L26 6L25 6L25 7L24 7L24 8L23 8L23 7L22 7L22 6L21 6L21 7L20 7L20 8L18 8L18 9L15 9L15 7L16 7L16 8L17 8L17 7L18 7L18 6L17 6L17 5L15 5L15 2L16 2L16 1ZM18 1L18 2L19 2L19 1ZM23 1L23 2L24 2L24 1ZM11 4L11 7L12 7L12 4ZM9 6L9 7L10 7L10 6ZM14 6L14 7L15 7L15 6ZM16 6L16 7L17 7L17 6ZM6 8L6 9L7 9L7 8ZM9 8L9 9L10 9L10 8ZM21 8L21 11L20 11L20 9L18 9L18 11L17 11L17 10L16 10L16 11L15 11L15 12L13 12L13 11L12 11L12 10L11 10L11 11L10 11L10 12L11 12L11 14L9 14L9 13L8 13L8 14L9 14L9 15L8 15L8 16L6 16L6 17L5 17L5 18L6 18L6 19L5 19L5 20L6 20L6 21L7 21L7 22L5 22L5 21L4 21L4 22L5 22L5 23L7 23L7 22L8 22L8 21L7 21L7 20L6 20L6 19L7 19L7 18L9 18L9 20L10 20L10 21L9 21L9 22L10 22L10 25L11 25L11 26L12 26L12 27L13 27L13 28L14 28L14 29L15 29L15 27L17 27L17 26L18 26L18 27L20 27L20 26L18 26L18 25L17 25L17 24L18 24L18 23L20 23L20 22L19 22L19 21L18 21L18 20L19 20L19 19L20 19L20 21L21 21L21 23L22 23L22 22L24 22L24 23L25 23L25 24L26 24L26 22L25 22L25 20L26 20L26 19L27 19L27 20L28 20L28 19L29 19L29 18L27 18L27 14L29 14L29 15L28 15L28 16L29 16L29 17L30 17L30 19L31 19L31 20L30 20L30 21L31 21L31 22L29 22L29 21L28 21L28 22L27 22L27 23L28 23L28 22L29 22L29 23L31 23L31 22L32 22L32 21L34 21L34 22L35 22L35 21L34 21L34 20L32 20L32 19L33 19L33 18L34 18L34 19L35 19L35 17L36 17L36 16L35 16L35 17L34 17L34 16L32 16L32 17L30 17L30 16L29 16L29 15L31 15L31 13L33 13L33 14L32 14L32 15L34 15L34 13L33 13L33 12L29 12L29 11L31 11L31 10L32 10L32 9L31 9L31 8L27 8L27 9L31 9L31 10L26 10L26 11L25 11L25 10L24 10L24 9L23 9L23 10L24 10L24 13L21 13L21 11L22 11L22 12L23 12L23 11L22 11L22 8ZM3 9L3 11L4 11L4 9ZM35 9L35 11L37 11L37 10L36 10L36 9ZM1 10L1 11L2 11L2 10ZM8 11L8 12L9 12L9 11ZM16 11L16 13L15 13L15 14L16 14L16 15L14 15L14 13L13 13L13 12L12 12L12 14L13 14L13 15L9 15L9 17L11 17L11 16L13 16L13 17L12 17L12 18L11 18L11 19L12 19L12 20L16 20L16 21L12 21L12 22L11 22L11 25L12 25L12 22L15 22L15 23L16 23L16 22L17 22L17 23L18 23L18 21L17 21L17 20L16 20L16 18L17 18L17 19L19 19L19 17L20 17L20 18L21 18L21 19L22 19L22 20L21 20L21 21L23 21L23 18L22 18L22 15L23 15L23 14L21 14L21 13L20 13L20 14L19 14L19 12L17 12L17 11ZM26 11L26 12L25 12L25 14L26 14L26 12L27 12L27 11ZM28 12L28 13L29 13L29 14L30 14L30 13L29 13L29 12ZM16 13L16 14L17 14L17 15L16 15L16 16L15 16L15 17L17 17L17 18L18 18L18 17L19 17L19 16L18 16L18 14L17 14L17 13ZM6 14L6 15L7 15L7 14ZM13 15L13 16L14 16L14 15ZM20 15L20 16L21 16L21 15ZM24 15L24 20L25 20L25 19L26 19L26 18L25 18L25 16L26 16L26 15ZM17 16L17 17L18 17L18 16ZM6 17L6 18L7 18L7 17ZM32 17L32 18L31 18L31 19L32 19L32 18L33 18L33 17ZM12 18L12 19L13 19L13 18ZM14 18L14 19L15 19L15 18ZM3 19L3 20L2 20L2 21L3 21L3 20L4 20L4 19ZM31 20L31 21L32 21L32 20ZM40 20L40 21L41 21L41 20ZM13 23L13 24L14 24L14 23ZM27 24L27 25L25 25L25 26L23 26L23 27L24 27L24 29L25 29L25 27L26 27L26 26L27 26L27 25L28 25L28 24ZM13 25L13 27L15 27L15 26L17 26L17 25L15 25L15 26L14 26L14 25ZM0 26L0 27L1 27L1 26ZM4 28L4 29L5 29L5 28ZM6 29L6 30L7 30L7 29ZM18 29L18 30L19 30L19 29ZM28 29L28 30L32 30L32 29ZM28 31L28 32L31 32L31 31ZM24 32L24 33L26 33L26 32ZM27 33L27 34L29 34L29 33ZM30 33L30 35L31 35L31 33ZM33 33L33 36L36 36L36 33ZM37 33L37 34L39 34L39 33ZM34 34L34 35L35 35L35 34ZM28 35L28 36L29 36L29 35ZM8 36L8 39L9 39L9 36ZM11 36L11 37L12 37L12 36ZM34 37L34 38L36 38L36 37ZM16 38L16 40L17 40L17 38ZM21 38L21 39L22 39L22 38ZM23 38L23 39L25 39L25 38ZM37 38L37 39L38 39L38 38ZM9 40L9 41L10 41L10 40ZM0 0L0 7L7 7L7 0ZM1 1L1 6L6 6L6 1ZM2 2L2 5L5 5L5 2ZM34 0L34 7L41 7L41 0ZM35 1L35 6L40 6L40 1ZM36 2L36 5L39 5L39 2ZM0 34L0 41L7 41L7 34ZM1 35L1 40L6 40L6 35ZM2 36L2 39L5 39L5 36Z" fill="#000000"/></g></g></svg>
