<?xml version="1.0" encoding="UTF-8"?>
<svg xmlns="http://www.w3.org/2000/svg" version="1.1" width="200" height="200" viewBox="0 0 200 200"><rect x="0" y="0" width="200" height="200" fill="#ffffff"/><g transform="scale(4.878)"><g transform="translate(0,0)"><path fill-rule="evenodd" d="M8 0L8 3L10 3L10 4L11 4L11 3L13 3L13 4L12 4L12 7L13 7L13 6L14 6L14 7L15 7L15 9L14 9L14 8L12 8L12 9L11 9L11 5L10 5L10 8L9 8L9 5L8 5L8 9L7 9L7 8L6 8L6 9L5 9L5 8L2 8L2 11L3 11L3 10L4 10L4 9L5 9L5 11L4 11L4 13L3 13L3 12L2 12L2 13L1 13L1 15L2 15L2 16L4 16L4 13L5 13L5 15L7 15L7 14L6 14L6 13L7 13L7 12L6 12L6 13L5 13L5 11L8 11L8 14L9 14L9 11L8 11L8 9L11 9L11 10L12 10L12 11L11 11L11 12L10 12L10 14L11 14L11 13L12 13L12 11L13 11L13 10L14 10L14 11L15 11L15 9L16 9L16 10L19 10L19 8L20 8L20 7L21 7L21 8L22 8L22 7L23 7L23 5L24 5L24 8L23 8L23 9L20 9L20 10L22 10L22 12L23 12L23 9L24 9L24 13L21 13L21 12L20 12L20 11L18 11L18 12L17 12L17 11L16 11L16 12L17 12L17 13L14 13L14 12L13 12L13 13L14 13L14 18L13 18L13 16L12 16L12 15L8 15L8 16L6 16L6 17L3 17L3 18L6 18L6 19L7 19L7 20L6 20L6 21L7 21L7 22L6 22L6 23L5 23L5 24L3 24L3 25L2 25L2 23L3 23L3 21L5 21L5 19L3 19L3 21L2 21L2 20L0 20L0 22L1 22L1 24L0 24L0 25L1 25L1 26L0 26L0 27L1 27L1 28L0 28L0 33L1 33L1 30L2 30L2 29L3 29L3 28L4 28L4 29L5 29L5 28L4 28L4 27L3 27L3 26L4 26L4 25L5 25L5 24L6 24L6 25L7 25L7 26L5 26L5 27L7 27L7 26L8 26L8 27L9 27L9 26L10 26L10 28L8 28L8 29L7 29L7 28L6 28L6 29L7 29L7 30L3 30L3 31L2 31L2 33L7 33L7 32L6 32L6 31L8 31L8 34L10 34L10 33L11 33L11 34L12 34L12 33L13 33L13 32L12 32L12 33L11 33L11 31L8 31L8 29L10 29L10 30L13 30L13 28L15 28L15 27L16 27L16 26L18 26L18 29L17 29L17 28L16 28L16 30L15 30L15 29L14 29L14 30L15 30L15 32L16 32L16 31L17 31L17 30L18 30L18 31L20 31L20 32L21 32L21 33L18 33L18 36L16 36L16 35L17 35L17 34L16 34L16 35L9 35L9 36L8 36L8 39L9 39L9 41L10 41L10 39L11 39L11 41L12 41L12 39L11 39L11 38L12 38L12 37L13 37L13 41L15 41L15 40L14 40L14 38L15 38L15 37L14 37L14 36L16 36L16 37L18 37L18 38L16 38L16 40L17 40L17 41L19 41L19 40L21 40L21 41L22 41L22 39L24 39L24 41L25 41L25 37L29 37L29 36L31 36L31 35L32 35L32 37L30 37L30 38L29 38L29 39L30 39L30 40L27 40L27 41L31 41L31 40L33 40L33 41L34 41L34 40L33 40L33 39L32 39L32 37L33 37L33 38L34 38L34 39L35 39L35 40L36 40L36 39L37 39L37 40L40 40L40 38L41 38L41 37L40 37L40 36L37 36L37 34L38 34L38 33L39 33L39 35L40 35L40 34L41 34L41 33L40 33L40 32L37 32L37 31L35 31L35 30L38 30L38 29L35 29L35 30L34 30L34 31L35 31L35 32L33 32L33 31L32 31L32 30L33 30L33 29L34 29L34 28L33 28L33 27L34 27L34 26L35 26L35 25L36 25L36 26L37 26L37 27L36 27L36 28L38 28L38 26L39 26L39 27L40 27L40 28L39 28L39 31L40 31L40 30L41 30L41 29L40 29L40 28L41 28L41 27L40 27L40 26L41 26L41 23L39 23L39 24L40 24L40 26L39 26L39 25L36 25L36 24L37 24L37 21L38 21L38 22L39 22L39 20L36 20L36 19L35 19L35 17L36 17L36 18L38 18L38 17L39 17L39 16L38 16L38 15L39 15L39 14L41 14L41 13L40 13L40 12L39 12L39 14L38 14L38 13L36 13L36 14L35 14L35 15L36 15L36 16L35 16L35 17L34 17L34 16L33 16L33 17L31 17L31 15L30 15L30 16L29 16L29 15L28 15L28 16L29 16L29 17L31 17L31 18L30 18L30 19L31 19L31 20L30 20L30 21L31 21L31 22L32 22L32 23L33 23L33 22L32 22L32 21L34 21L34 22L35 22L35 23L36 23L36 24L35 24L35 25L34 25L34 24L33 24L33 25L32 25L32 24L31 24L31 23L30 23L30 24L29 24L29 22L27 22L27 23L26 23L26 24L27 24L27 25L26 25L26 26L25 26L25 27L26 27L26 28L24 28L24 29L22 29L22 28L23 28L23 27L24 27L24 26L23 26L23 23L25 23L25 22L26 22L26 20L25 20L25 19L24 19L24 18L23 18L23 17L25 17L25 18L26 18L26 19L27 19L27 21L29 21L29 20L28 20L28 18L26 18L26 16L27 16L27 14L29 14L29 13L30 13L30 14L31 14L31 10L32 10L32 13L33 13L33 14L32 14L32 15L34 15L34 13L35 13L35 12L38 12L38 11L40 11L40 10L41 10L41 8L38 8L38 9L40 9L40 10L37 10L37 9L36 9L36 8L32 8L32 9L31 9L31 8L29 8L29 6L30 6L30 7L31 7L31 5L32 5L32 4L33 4L33 3L32 3L32 2L30 2L30 1L33 1L33 0L29 0L29 1L27 1L27 0L26 0L26 1L27 1L27 2L26 2L26 3L32 3L32 4L30 4L30 5L29 5L29 4L28 4L28 5L27 5L27 4L25 4L25 3L24 3L24 4L23 4L23 3L22 3L22 4L20 4L20 5L17 5L17 4L16 4L16 3L15 3L15 2L16 2L16 1L17 1L17 2L18 2L18 0L13 0L13 2L11 2L11 1L12 1L12 0L11 0L11 1L9 1L9 0ZM20 0L20 1L19 1L19 2L20 2L20 3L21 3L21 1L22 1L22 2L24 2L24 1L25 1L25 0L24 0L24 1L22 1L22 0ZM10 2L10 3L11 3L11 2ZM13 2L13 3L14 3L14 5L15 5L15 7L16 7L16 6L17 6L17 7L18 7L18 8L19 8L19 7L20 7L20 6L21 6L21 7L22 7L22 5L23 5L23 4L22 4L22 5L20 5L20 6L19 6L19 7L18 7L18 6L17 6L17 5L16 5L16 4L15 4L15 3L14 3L14 2ZM18 3L18 4L19 4L19 3ZM24 4L24 5L25 5L25 7L26 7L26 8L25 8L25 9L26 9L26 8L27 8L27 7L28 7L28 6L29 6L29 5L28 5L28 6L27 6L27 5L25 5L25 4ZM26 6L26 7L27 7L27 6ZM32 6L32 7L33 7L33 6ZM0 9L0 12L1 12L1 9ZM6 9L6 10L7 10L7 9ZM12 9L12 10L13 10L13 9ZM27 9L27 10L28 10L28 11L29 11L29 12L28 12L28 13L29 13L29 12L30 12L30 11L29 11L29 10L31 10L31 9ZM32 9L32 10L33 10L33 11L34 11L34 10L33 10L33 9ZM25 10L25 11L26 11L26 12L27 12L27 11L26 11L26 10ZM35 10L35 11L37 11L37 10ZM18 12L18 13L17 13L17 14L16 14L16 16L15 16L15 17L16 17L16 16L17 16L17 17L21 17L21 18L22 18L22 20L21 20L21 19L18 19L18 18L17 18L17 19L16 19L16 18L14 18L14 20L13 20L13 19L11 19L11 18L12 18L12 17L9 17L9 16L8 16L8 17L6 17L6 18L8 18L8 19L9 19L9 18L10 18L10 19L11 19L11 24L13 24L13 23L14 23L14 22L13 22L13 21L15 21L15 26L16 26L16 25L17 25L17 24L16 24L16 23L17 23L17 22L19 22L19 24L18 24L18 26L20 26L20 29L18 29L18 30L21 30L21 32L23 32L23 31L25 31L25 33L24 33L24 35L23 35L23 37L22 37L22 38L21 38L21 35L22 35L22 34L23 34L23 33L21 33L21 34L20 34L20 35L19 35L19 36L18 36L18 37L19 37L19 38L18 38L18 39L17 39L17 40L18 40L18 39L20 39L20 38L21 38L21 39L22 39L22 38L24 38L24 37L25 37L25 36L26 36L26 35L27 35L27 34L28 34L28 36L29 36L29 33L27 33L27 31L25 31L25 30L27 30L27 29L28 29L28 30L30 30L30 31L28 31L28 32L31 32L31 30L32 30L32 29L33 29L33 28L31 28L31 27L33 27L33 26L34 26L34 25L33 25L33 26L29 26L29 25L27 25L27 26L29 26L29 27L28 27L28 28L26 28L26 29L24 29L24 30L23 30L23 31L22 31L22 29L21 29L21 28L22 28L22 27L21 27L21 26L22 26L22 24L21 24L21 23L20 23L20 22L19 22L19 20L20 20L20 21L22 21L22 20L23 20L23 22L22 22L22 23L23 23L23 22L25 22L25 20L23 20L23 18L22 18L22 17L23 17L23 16L22 16L22 17L21 17L21 15L22 15L22 14L20 14L20 16L19 16L19 12ZM33 12L33 13L34 13L34 12ZM24 13L24 14L23 14L23 15L24 15L24 16L26 16L26 15L24 15L24 14L27 14L27 13ZM17 14L17 15L18 15L18 14ZM36 16L36 17L38 17L38 16ZM40 16L40 18L39 18L39 19L40 19L40 18L41 18L41 16ZM8 17L8 18L9 18L9 17ZM1 18L1 19L2 19L2 18ZM31 18L31 19L32 19L32 20L31 20L31 21L32 21L32 20L34 20L34 21L35 21L35 22L36 22L36 21L35 21L35 19L34 19L34 18L33 18L33 19L32 19L32 18ZM17 19L17 20L15 20L15 21L16 21L16 22L17 22L17 20L18 20L18 19ZM8 20L8 22L9 22L9 23L6 23L6 24L8 24L8 26L9 26L9 24L10 24L10 20ZM12 20L12 21L13 21L13 20ZM40 20L40 21L41 21L41 20ZM27 23L27 24L28 24L28 23ZM19 24L19 25L20 25L20 26L21 26L21 25L20 25L20 24ZM24 24L24 25L25 25L25 24ZM30 24L30 25L31 25L31 24ZM10 25L10 26L12 26L12 28L10 28L10 29L12 29L12 28L13 28L13 26L14 26L14 25ZM2 27L2 28L1 28L1 29L2 29L2 28L3 28L3 27ZM28 28L28 29L30 29L30 30L31 30L31 29L30 29L30 28ZM9 32L9 33L10 33L10 32ZM30 33L30 35L31 35L31 33ZM33 33L33 36L36 36L36 33ZM25 34L25 35L26 35L26 34ZM34 34L34 35L35 35L35 34ZM9 36L9 37L10 37L10 38L9 38L9 39L10 39L10 38L11 38L11 37L10 37L10 36ZM19 36L19 37L20 37L20 36ZM34 37L34 38L36 38L36 37ZM26 38L26 39L28 39L28 38ZM37 38L37 39L38 39L38 38ZM0 0L0 7L7 7L7 0ZM1 1L1 6L6 6L6 1ZM2 2L2 5L5 5L5 2ZM34 0L34 7L41 7L41 0ZM35 1L35 6L40 6L40 1ZM36 2L36 5L39 5L39 2ZM0 34L0 41L7 41L7 34ZM1 35L1 40L6 40L6 35ZM2 36L2 39L5 39L5 36Z" fill="#000000"/></g></g></svg>
