<?xml version="1.0" encoding="UTF-8"?>
<svg xmlns="http://www.w3.org/2000/svg" version="1.1" width="200" height="200" viewBox="0 0 200 200"><rect x="0" y="0" width="200" height="200" fill="#ffffff"/><g transform="scale(6.897)"><g transform="translate(0,0)"><path fill-rule="evenodd" d="M8 0L8 1L11 1L11 2L9 2L9 3L8 3L8 4L9 4L9 6L8 6L8 7L9 7L9 8L8 8L8 9L10 9L10 10L8 10L8 11L7 11L7 10L6 10L6 9L7 9L7 8L4 8L4 11L5 11L5 12L4 12L4 13L5 13L5 12L6 12L6 13L7 13L7 14L5 14L5 15L4 15L4 16L5 16L5 15L7 15L7 16L6 16L6 17L7 17L7 18L5 18L5 17L3 17L3 18L2 18L2 16L3 16L3 15L2 15L2 14L3 14L3 13L2 13L2 14L0 14L0 17L1 17L1 18L0 18L0 19L1 19L1 20L0 20L0 21L1 21L1 20L3 20L3 21L4 21L4 20L5 20L5 21L8 21L8 22L11 22L11 23L13 23L13 25L12 25L12 24L11 24L11 25L10 25L10 23L8 23L8 25L9 25L9 26L8 26L8 27L9 27L9 29L10 29L10 27L11 27L11 26L12 26L12 28L11 28L11 29L12 29L12 28L13 28L13 29L14 29L14 27L15 27L15 29L16 29L16 27L18 27L18 28L19 28L19 29L20 29L20 27L21 27L21 26L22 26L22 25L23 25L23 26L24 26L24 25L26 25L26 27L25 27L25 28L23 28L23 27L22 27L22 28L23 28L23 29L26 29L26 28L28 28L28 29L29 29L29 26L28 26L28 25L29 25L29 24L28 24L28 23L27 23L27 24L26 24L26 23L25 23L25 20L26 20L26 21L28 21L28 22L29 22L29 21L28 21L28 19L29 19L29 18L27 18L27 17L26 17L26 14L24 14L24 13L25 13L25 11L26 11L26 13L27 13L27 12L28 12L28 13L29 13L29 12L28 12L28 11L29 11L29 8L28 8L28 9L27 9L27 10L28 10L28 11L26 11L26 8L25 8L25 9L24 9L24 10L25 10L25 11L24 11L24 12L23 12L23 10L22 10L22 8L21 8L21 0L20 0L20 1L19 1L19 2L20 2L20 3L19 3L19 5L18 5L18 3L17 3L17 2L18 2L18 1L16 1L16 2L14 2L14 1L11 1L11 0ZM11 2L11 3L12 3L12 2ZM13 2L13 4L10 4L10 5L11 5L11 7L10 7L10 6L9 6L9 7L10 7L10 8L11 8L11 7L12 7L12 5L13 5L13 4L14 4L14 5L15 5L15 7L16 7L16 8L17 8L17 9L14 9L14 6L13 6L13 9L12 9L12 10L10 10L10 11L9 11L9 12L8 12L8 14L7 14L7 15L8 15L8 14L9 14L9 16L8 16L8 18L7 18L7 19L6 19L6 20L8 20L8 18L9 18L9 16L11 16L11 17L10 17L10 18L11 18L11 19L10 19L10 20L12 20L12 21L11 21L11 22L13 22L13 23L14 23L14 22L15 22L15 24L14 24L14 25L13 25L13 27L14 27L14 26L15 26L15 27L16 27L16 25L15 25L15 24L16 24L16 23L17 23L17 22L15 22L15 20L16 20L16 21L17 21L17 20L19 20L19 21L18 21L18 23L20 23L20 22L19 22L19 21L20 21L20 20L21 20L21 19L22 19L22 18L23 18L23 19L24 19L24 18L26 18L26 20L27 20L27 18L26 18L26 17L24 17L24 16L25 16L25 15L24 15L24 14L23 14L23 15L22 15L22 14L21 14L21 13L20 13L20 14L19 14L19 13L18 13L18 15L20 15L20 16L19 16L19 17L20 17L20 18L18 18L18 19L17 19L17 17L18 17L18 16L17 16L17 17L16 17L16 14L14 14L14 13L16 13L16 12L18 12L18 11L19 11L19 12L20 12L20 11L19 11L19 9L20 9L20 5L19 5L19 7L18 7L18 5L17 5L17 4L16 4L16 3L14 3L14 2ZM15 4L15 5L16 5L16 7L17 7L17 5L16 5L16 4ZM2 8L2 9L0 9L0 13L1 13L1 11L2 11L2 12L3 12L3 11L2 11L2 10L3 10L3 8ZM13 9L13 10L12 10L12 11L11 11L11 12L9 12L9 14L10 14L10 15L12 15L12 17L11 17L11 18L12 18L12 19L13 19L13 15L14 15L14 16L15 16L15 15L14 15L14 14L13 14L13 15L12 15L12 14L10 14L10 13L11 13L11 12L12 12L12 13L13 13L13 12L12 12L12 11L13 11L13 10L14 10L14 9ZM17 9L17 10L15 10L15 11L14 11L14 12L15 12L15 11L17 11L17 10L18 10L18 9ZM6 11L6 12L7 12L7 11ZM21 11L21 12L22 12L22 11ZM20 14L20 15L21 15L21 14ZM28 14L28 15L27 15L27 16L28 16L28 17L29 17L29 16L28 16L28 15L29 15L29 14ZM1 15L1 16L2 16L2 15ZM23 15L23 16L22 16L22 17L23 17L23 18L24 18L24 17L23 17L23 16L24 16L24 15ZM1 18L1 19L2 19L2 18ZM4 18L4 19L3 19L3 20L4 20L4 19L5 19L5 18ZM14 18L14 19L16 19L16 20L17 20L17 19L16 19L16 18ZM19 19L19 20L20 20L20 19ZM13 20L13 21L14 21L14 20ZM21 21L21 24L24 24L24 21ZM22 22L22 23L23 23L23 22ZM17 24L17 25L19 25L19 26L20 26L20 24ZM27 24L27 25L28 25L28 24ZM9 26L9 27L10 27L10 26ZM27 26L27 27L28 27L28 26ZM0 0L0 7L7 7L7 0ZM1 1L1 6L6 6L6 1ZM2 2L2 5L5 5L5 2ZM22 0L22 7L29 7L29 0ZM23 1L23 6L28 6L28 1ZM24 2L24 5L27 5L27 2ZM0 22L0 29L7 29L7 22ZM1 23L1 28L6 28L6 23ZM2 24L2 27L5 27L5 24Z" fill="#000000"/></g></g></svg>
