<?xml version="1.0" encoding="UTF-8"?>
<svg xmlns="http://www.w3.org/2000/svg" version="1.1" width="200" height="200" viewBox="0 0 200 200"><rect x="0" y="0" width="200" height="200" fill="#ffffff"/><g transform="scale(6.897)"><g transform="translate(0,0)"><path fill-rule="evenodd" d="M8 0L8 1L9 1L9 2L11 2L11 3L10 3L10 5L9 5L9 6L8 6L8 7L9 7L9 8L8 8L8 9L9 9L9 8L11 8L11 9L12 9L12 8L13 8L13 6L14 6L14 7L15 7L15 6L14 6L14 5L18 5L18 7L19 7L19 5L20 5L20 9L19 9L19 10L18 10L18 9L17 9L17 10L18 10L18 11L17 11L17 12L16 12L16 11L15 11L15 12L14 12L14 10L13 10L13 11L12 11L12 12L14 12L14 13L13 13L13 15L12 15L12 16L11 16L11 12L10 12L10 13L9 13L9 14L10 14L10 16L11 16L11 17L10 17L10 18L12 18L12 16L13 16L13 17L14 17L14 16L15 16L15 18L16 18L16 20L17 20L17 17L18 17L18 16L20 16L20 15L21 15L21 14L22 14L22 15L23 15L23 16L22 16L22 17L23 17L23 18L22 18L22 19L21 19L21 20L20 20L20 19L18 19L18 22L17 22L17 21L15 21L15 20L13 20L13 19L12 19L12 20L11 20L11 19L10 19L10 20L4 20L4 18L5 18L5 19L8 19L8 18L9 18L9 16L8 16L8 14L5 14L5 15L4 15L4 14L3 14L3 13L4 13L4 12L3 12L3 11L4 11L4 9L5 9L5 10L6 10L6 11L5 11L5 13L7 13L7 12L9 12L9 11L11 11L11 10L6 10L6 9L7 9L7 8L4 8L4 9L3 9L3 8L2 8L2 9L1 9L1 10L2 10L2 11L0 11L0 16L1 16L1 17L3 17L3 20L2 20L2 19L1 19L1 18L0 18L0 19L1 19L1 20L0 20L0 21L1 21L1 20L2 20L2 21L8 21L8 22L10 22L10 23L11 23L11 22L10 22L10 20L11 20L11 21L12 21L12 22L13 22L13 23L14 23L14 24L16 24L16 25L14 25L14 26L13 26L13 25L12 25L12 24L10 24L10 25L9 25L9 23L8 23L8 25L9 25L9 26L8 26L8 27L9 27L9 28L10 28L10 29L11 29L11 27L12 27L12 28L13 28L13 29L14 29L14 28L13 28L13 27L18 27L18 28L15 28L15 29L18 29L18 28L19 28L19 29L20 29L20 27L21 27L21 26L22 26L22 25L23 25L23 26L24 26L24 25L25 25L25 27L26 27L26 26L28 26L28 27L27 27L27 28L26 28L26 29L27 29L27 28L28 28L28 29L29 29L29 26L28 26L28 24L26 24L26 23L25 23L25 18L24 18L24 17L26 17L26 18L27 18L27 19L26 19L26 21L27 21L27 23L28 23L28 22L29 22L29 21L28 21L28 19L29 19L29 18L27 18L27 17L26 17L26 14L24 14L24 13L25 13L25 11L26 11L26 13L27 13L27 14L28 14L28 15L27 15L27 16L28 16L28 17L29 17L29 16L28 16L28 15L29 15L29 14L28 14L28 13L29 13L29 12L28 12L28 11L29 11L29 8L28 8L28 9L27 9L27 10L25 10L25 9L26 9L26 8L25 8L25 9L24 9L24 10L25 10L25 11L24 11L24 12L23 12L23 10L22 10L22 8L21 8L21 0L20 0L20 1L19 1L19 2L20 2L20 3L19 3L19 4L18 4L18 3L17 3L17 2L18 2L18 1L16 1L16 0L14 0L14 1L13 1L13 0ZM11 1L11 2L13 2L13 3L11 3L11 5L10 5L10 6L9 6L9 7L10 7L10 6L11 6L11 7L12 7L12 6L13 6L13 5L12 5L12 4L13 4L13 3L14 3L14 4L16 4L16 1L14 1L14 2L13 2L13 1ZM8 3L8 4L9 4L9 3ZM11 5L11 6L12 6L12 5ZM16 6L16 8L17 8L17 6ZM14 8L14 9L15 9L15 8ZM2 9L2 10L3 10L3 9ZM27 10L27 11L28 11L28 10ZM6 11L6 12L7 12L7 11ZM18 11L18 12L20 12L20 11ZM21 11L21 12L22 12L22 11ZM15 12L15 13L14 13L14 15L17 15L17 16L18 16L18 13L16 13L16 12ZM27 12L27 13L28 13L28 12ZM20 13L20 14L19 14L19 15L20 15L20 14L21 14L21 13ZM1 14L1 16L2 16L2 15L3 15L3 16L4 16L4 17L5 17L5 18L7 18L7 17L8 17L8 16L7 16L7 15L6 15L6 16L7 16L7 17L5 17L5 16L4 16L4 15L3 15L3 14ZM23 14L23 15L24 15L24 16L23 16L23 17L24 17L24 16L25 16L25 15L24 15L24 14ZM19 17L19 18L20 18L20 17ZM23 18L23 19L24 19L24 18ZM12 20L12 21L13 21L13 22L14 22L14 23L16 23L16 22L14 22L14 21L13 21L13 20ZM19 20L19 21L20 21L20 20ZM21 21L21 24L24 24L24 21ZM19 22L19 23L17 23L17 24L19 24L19 26L20 26L20 24L19 24L19 23L20 23L20 22ZM22 22L22 23L23 23L23 22ZM11 25L11 26L9 26L9 27L11 27L11 26L12 26L12 27L13 27L13 26L12 26L12 25ZM17 25L17 26L18 26L18 25ZM22 27L22 28L23 28L23 29L25 29L25 28L23 28L23 27ZM0 0L0 7L7 7L7 0ZM1 1L1 6L6 6L6 1ZM2 2L2 5L5 5L5 2ZM22 0L22 7L29 7L29 0ZM23 1L23 6L28 6L28 1ZM24 2L24 5L27 5L27 2ZM0 22L0 29L7 29L7 22ZM1 23L1 28L6 28L6 23ZM2 24L2 27L5 27L5 24Z" fill="#000000"/></g></g></svg>
