<?xml version="1.0" encoding="UTF-8"?>
<svg xmlns="http://www.w3.org/2000/svg" version="1.1" width="200" height="200" viewBox="0 0 200 200"><rect x="0" y="0" width="200" height="200" fill="#ffffff"/><g transform="scale(6.897)"><g transform="translate(0,0)"><path fill-rule="evenodd" d="M9 0L9 1L8 1L8 7L9 7L9 5L10 5L10 4L12 4L12 7L11 7L11 6L10 6L10 7L11 7L11 8L12 8L12 9L11 9L11 10L10 10L10 11L9 11L9 8L5 8L5 9L3 9L3 8L2 8L2 9L3 9L3 11L4 11L4 13L5 13L5 11L7 11L7 12L6 12L6 13L7 13L7 14L6 14L6 15L5 15L5 14L3 14L3 15L2 15L2 17L1 17L1 18L0 18L0 19L5 19L5 20L6 20L6 21L8 21L8 24L9 24L9 25L10 25L10 27L11 27L11 28L10 28L10 29L11 29L11 28L12 28L12 26L13 26L13 27L17 27L17 29L19 29L19 28L18 28L18 27L19 27L19 26L20 26L20 27L21 27L21 29L22 29L22 28L24 28L24 29L26 29L26 28L27 28L27 29L29 29L29 26L27 26L27 25L29 25L29 24L26 24L26 27L25 27L25 28L24 28L24 26L23 26L23 27L22 27L22 26L21 26L21 25L25 25L25 23L26 23L26 21L27 21L27 23L28 23L28 22L29 22L29 21L27 21L27 19L26 19L26 20L25 20L25 18L28 18L28 19L29 19L29 18L28 18L28 17L29 17L29 16L27 16L27 17L25 17L25 16L22 16L22 15L25 15L25 14L26 14L26 13L27 13L27 14L28 14L28 15L29 15L29 14L28 14L28 13L29 13L29 12L27 12L27 11L29 11L29 9L28 9L28 8L23 8L23 10L22 10L22 11L21 11L21 9L22 9L22 8L21 8L21 0L19 0L19 1L20 1L20 2L19 2L19 3L20 3L20 5L17 5L17 4L16 4L16 2L14 2L14 3L13 3L13 4L12 4L12 3L11 3L11 2L13 2L13 1L18 1L18 0L11 0L11 1L10 1L10 0ZM9 2L9 4L10 4L10 2ZM17 2L17 3L18 3L18 2ZM13 4L13 5L14 5L14 6L13 6L13 7L12 7L12 8L14 8L14 11L15 11L15 12L14 12L14 14L13 14L13 11L12 11L12 10L11 10L11 11L10 11L10 13L9 13L9 15L10 15L10 14L11 14L11 15L13 15L13 16L12 16L12 17L11 17L11 18L10 18L10 19L11 19L11 18L12 18L12 19L13 19L13 20L12 20L12 23L13 23L13 26L14 26L14 25L15 25L15 23L16 23L16 24L17 24L17 23L18 23L18 24L20 24L20 23L18 23L18 22L17 22L17 20L16 20L16 19L15 19L15 18L16 18L16 17L15 17L15 18L12 18L12 17L13 17L13 16L16 16L16 14L15 14L15 13L18 13L18 14L22 14L22 12L21 12L21 13L20 13L20 12L19 12L19 11L20 11L20 8L19 8L19 7L20 7L20 6L19 6L19 7L18 7L18 6L17 6L17 5L16 5L16 6L15 6L15 5L14 5L14 4ZM14 6L14 7L15 7L15 10L17 10L17 11L16 11L16 12L18 12L18 13L19 13L19 12L18 12L18 11L19 11L19 10L18 10L18 7L17 7L17 6L16 6L16 7L15 7L15 6ZM0 9L0 11L1 11L1 9ZM5 9L5 10L4 10L4 11L5 11L5 10L7 10L7 9ZM25 9L25 10L24 10L24 11L27 11L27 10L28 10L28 9L27 9L27 10L26 10L26 9ZM8 11L8 12L9 12L9 11ZM11 11L11 13L12 13L12 11ZM0 12L0 13L3 13L3 12ZM23 12L23 14L25 14L25 13L24 13L24 12ZM14 14L14 15L15 15L15 14ZM0 15L0 16L1 16L1 15ZM3 15L3 17L2 17L2 18L3 18L3 17L4 17L4 18L5 18L5 19L6 19L6 20L8 20L8 18L7 18L7 17L5 17L5 16L4 16L4 15ZM6 15L6 16L7 16L7 15ZM17 15L17 16L20 16L20 17L19 17L19 18L20 18L20 19L18 19L18 20L22 20L22 19L21 19L21 15ZM22 17L22 18L25 18L25 17ZM6 18L6 19L7 19L7 18ZM14 19L14 23L15 23L15 21L16 21L16 20L15 20L15 19ZM23 19L23 20L24 20L24 19ZM0 20L0 21L4 21L4 20ZM9 20L9 23L10 23L10 25L12 25L12 24L11 24L11 20ZM19 21L19 22L20 22L20 21ZM21 21L21 24L24 24L24 21ZM22 22L22 23L23 23L23 22ZM18 25L18 26L17 26L17 27L18 27L18 26L19 26L19 25ZM8 26L8 27L9 27L9 26ZM27 27L27 28L28 28L28 27ZM15 28L15 29L16 29L16 28ZM0 0L0 7L7 7L7 0ZM1 1L1 6L6 6L6 1ZM2 2L2 5L5 5L5 2ZM22 0L22 7L29 7L29 0ZM23 1L23 6L28 6L28 1ZM24 2L24 5L27 5L27 2ZM0 22L0 29L7 29L7 22ZM1 23L1 28L6 28L6 23ZM2 24L2 27L5 27L5 24Z" fill="#000000"/></g></g></svg>
