<?xml version="1.0" encoding="UTF-8"?>
<svg xmlns="http://www.w3.org/2000/svg" version="1.1" width="200" height="200" viewBox="0 0 200 200"><rect x="0" y="0" width="200" height="200" fill="#ffffff"/><g transform="scale(4.878)"><g transform="translate(0,0)"><path fill-rule="evenodd" d="M9 0L9 3L10 3L10 4L11 4L11 5L13 5L13 6L12 6L12 7L11 7L11 6L10 6L10 9L11 9L11 11L10 11L10 10L9 10L9 11L8 11L8 10L6 10L6 9L9 9L9 6L8 6L8 8L6 8L6 9L4 9L4 8L2 8L2 12L3 12L3 14L4 14L4 15L2 15L2 14L0 14L0 15L2 15L2 16L3 16L3 17L5 17L5 18L4 18L4 19L3 19L3 18L2 18L2 17L1 17L1 16L0 16L0 17L1 17L1 20L0 20L0 23L1 23L1 26L0 26L0 29L2 29L2 32L1 32L1 33L2 33L2 32L3 32L3 33L4 33L4 32L6 32L6 33L8 33L8 35L9 35L9 36L10 36L10 38L9 38L9 37L8 37L8 39L10 39L10 38L11 38L11 40L9 40L9 41L12 41L12 40L13 40L13 41L14 41L14 39L12 39L12 38L11 38L11 37L12 37L12 36L11 36L11 35L9 35L9 33L10 33L10 34L12 34L12 33L17 33L17 32L20 32L20 34L21 34L21 36L20 36L20 35L19 35L19 34L13 34L13 38L15 38L15 39L16 39L16 40L15 40L15 41L16 41L16 40L17 40L17 41L19 41L19 40L23 40L23 41L27 41L27 40L28 40L28 41L29 41L29 40L28 40L28 39L27 39L27 40L25 40L25 38L29 38L29 37L28 37L28 36L27 36L27 33L24 33L24 29L23 29L23 32L22 32L22 31L20 31L20 30L21 30L21 29L22 29L22 28L23 28L23 27L24 27L24 28L25 28L25 29L26 29L26 27L24 27L24 26L23 26L23 25L25 25L25 26L28 26L28 27L27 27L27 28L28 28L28 30L26 30L26 31L25 31L25 32L26 32L26 31L29 31L29 32L28 32L28 34L30 34L30 35L29 35L29 36L30 36L30 35L31 35L31 36L32 36L32 37L35 37L35 41L37 41L37 40L38 40L38 41L40 41L40 39L41 39L41 37L40 37L40 39L39 39L39 38L38 38L38 37L39 37L39 36L41 36L41 35L39 35L39 34L41 34L41 32L40 32L40 30L39 30L39 31L38 31L38 30L37 30L37 31L38 31L38 33L37 33L37 32L34 32L34 31L36 31L36 30L35 30L35 29L33 29L33 27L32 27L32 26L33 26L33 24L35 24L35 25L34 25L34 27L35 27L35 26L36 26L36 24L35 24L35 23L34 23L34 22L35 22L35 21L36 21L36 22L37 22L37 24L38 24L38 23L40 23L40 22L39 22L39 21L40 21L40 19L38 19L38 18L37 18L37 19L36 19L36 20L34 20L34 19L35 19L35 18L34 18L34 19L33 19L33 18L32 18L32 20L34 20L34 22L33 22L33 21L31 21L31 22L32 22L32 25L31 25L31 23L30 23L30 24L29 24L29 25L28 25L28 23L26 23L26 25L25 25L25 24L24 24L24 22L25 22L25 20L24 20L24 22L22 22L22 21L23 21L23 18L24 18L24 19L26 19L26 20L27 20L27 19L28 19L28 22L29 22L29 20L31 20L31 18L30 18L30 19L29 19L29 17L28 17L28 16L29 16L29 14L30 14L30 17L31 17L31 15L33 15L33 12L32 12L32 11L31 11L31 12L29 12L29 13L28 13L28 12L27 12L27 11L26 11L26 10L27 10L27 9L26 9L26 8L25 8L25 6L26 6L26 7L27 7L27 8L29 8L29 9L30 9L30 7L31 7L31 6L32 6L32 8L31 8L31 10L32 10L32 9L34 9L34 10L33 10L33 11L35 11L35 12L34 12L34 13L35 13L35 14L34 14L34 15L35 15L35 16L36 16L36 17L38 17L38 16L37 16L37 15L41 15L41 13L40 13L40 14L39 14L39 13L37 13L37 15L35 15L35 14L36 14L36 13L35 13L35 12L36 12L36 11L38 11L38 10L37 10L37 8L36 8L36 10L35 10L35 8L33 8L33 3L32 3L32 4L31 4L31 6L30 6L30 7L29 7L29 5L28 5L28 4L29 4L29 3L30 3L30 2L31 2L31 1L32 1L32 2L33 2L33 1L32 1L32 0L31 0L31 1L30 1L30 0L29 0L29 1L28 1L28 2L29 2L29 3L28 3L28 4L27 4L27 5L28 5L28 7L27 7L27 6L26 6L26 5L25 5L25 3L27 3L27 0L26 0L26 2L25 2L25 0L21 0L21 1L22 1L22 2L23 2L23 4L21 4L21 2L20 2L20 1L17 1L17 0L16 0L16 1L17 1L17 2L18 2L18 3L15 3L15 4L13 4L13 2L15 2L15 0L14 0L14 1L13 1L13 2L12 2L12 3L11 3L11 2L10 2L10 1L11 1L11 0ZM23 1L23 2L24 2L24 3L25 3L25 2L24 2L24 1ZM29 1L29 2L30 2L30 1ZM18 3L18 4L17 4L17 5L18 5L18 6L17 6L17 7L16 7L16 4L15 4L15 5L14 5L14 6L13 6L13 7L12 7L12 8L11 8L11 9L12 9L12 8L14 8L14 10L12 10L12 12L13 12L13 14L11 14L11 12L10 12L10 11L9 11L9 12L8 12L8 13L6 13L6 12L7 12L7 11L5 11L5 10L4 10L4 9L3 9L3 10L4 10L4 13L6 13L6 14L7 14L7 15L6 15L6 16L7 16L7 17L6 17L6 18L7 18L7 17L10 17L10 18L9 18L9 20L10 20L10 22L9 22L9 21L6 21L6 20L8 20L8 19L6 19L6 20L4 20L4 21L3 21L3 22L4 22L4 23L5 23L5 22L7 22L7 23L6 23L6 24L8 24L8 22L9 22L9 23L10 23L10 25L9 25L9 27L8 27L8 29L6 29L6 28L7 28L7 27L4 27L4 26L5 26L5 24L3 24L3 23L2 23L2 26L1 26L1 28L5 28L5 29L3 29L3 31L4 31L4 30L9 30L9 27L10 27L10 29L12 29L12 30L10 30L10 31L14 31L14 32L15 32L15 31L16 31L16 32L17 32L17 31L16 31L16 29L17 29L17 30L19 30L19 29L21 29L21 28L20 28L20 27L19 27L19 26L20 26L20 25L19 25L19 23L18 23L18 25L17 25L17 26L16 26L16 25L15 25L15 26L16 26L16 27L14 27L14 25L13 25L13 26L12 26L12 27L10 27L10 26L11 26L11 24L14 24L14 23L13 23L13 22L12 22L12 23L11 23L11 20L12 20L12 21L14 21L14 22L15 22L15 21L16 21L16 23L17 23L17 22L18 22L18 21L19 21L19 20L20 20L20 24L21 24L21 26L22 26L22 27L23 27L23 26L22 26L22 24L23 24L23 23L22 23L22 22L21 22L21 21L22 21L22 20L21 20L21 19L22 19L22 17L20 17L20 18L19 18L19 20L18 20L18 19L16 19L16 20L15 20L15 21L14 21L14 20L12 20L12 19L13 19L13 18L14 18L14 17L16 17L16 18L17 18L17 17L18 17L18 16L19 16L19 15L18 15L18 14L17 14L17 15L18 15L18 16L17 16L17 17L16 17L16 15L15 15L15 13L14 13L14 12L13 12L13 11L14 11L14 10L16 10L16 11L17 11L17 12L16 12L16 13L18 13L18 11L19 11L19 13L20 13L20 16L22 16L22 15L23 15L23 16L25 16L25 17L24 17L24 18L27 18L27 17L26 17L26 15L25 15L25 14L28 14L28 13L27 13L27 12L26 12L26 13L25 13L25 11L24 11L24 10L25 10L25 8L22 8L22 6L23 6L23 7L24 7L24 5L22 5L22 6L21 6L21 5L19 5L19 3ZM8 4L8 5L9 5L9 4ZM14 6L14 7L15 7L15 8L16 8L16 9L17 9L17 8L18 8L18 7L19 7L19 9L18 9L18 10L17 10L17 11L18 11L18 10L19 10L19 11L20 11L20 12L21 12L21 13L22 13L22 14L24 14L24 13L23 13L23 12L24 12L24 11L22 11L22 12L21 12L21 11L20 11L20 10L22 10L22 9L20 9L20 7L21 7L21 6L20 6L20 7L19 7L19 6L18 6L18 7L17 7L17 8L16 8L16 7L15 7L15 6ZM40 9L40 10L41 10L41 9ZM0 10L0 12L1 12L1 10ZM29 10L29 11L30 11L30 10ZM39 11L39 12L41 12L41 11ZM9 12L9 13L10 13L10 12ZM30 13L30 14L32 14L32 13ZM9 14L9 15L10 15L10 16L12 16L12 18L13 18L13 16L14 16L14 15L13 15L13 16L12 16L12 15L10 15L10 14ZM4 15L4 16L5 16L5 15ZM7 15L7 16L8 16L8 15ZM27 15L27 16L28 16L28 15ZM39 16L39 17L41 17L41 16ZM10 18L10 19L11 19L11 18ZM20 18L20 19L21 19L21 18ZM37 19L37 20L36 20L36 21L37 21L37 22L38 22L38 19ZM1 20L1 22L2 22L2 20ZM16 20L16 21L18 21L18 20ZM21 23L21 24L22 24L22 23ZM40 24L40 25L39 25L39 26L40 26L40 27L39 27L39 28L38 28L38 27L37 27L37 28L36 28L36 29L37 29L37 28L38 28L38 29L39 29L39 28L40 28L40 27L41 27L41 24ZM3 25L3 26L2 26L2 27L3 27L3 26L4 26L4 25ZM6 25L6 26L8 26L8 25ZM18 25L18 26L19 26L19 25ZM29 25L29 27L28 27L28 28L29 28L29 31L31 31L31 29L32 29L32 27L30 27L30 25ZM37 25L37 26L38 26L38 25ZM16 27L16 28L12 28L12 29L14 29L14 30L15 30L15 29L16 29L16 28L17 28L17 29L18 29L18 28L19 28L19 27ZM30 28L30 29L31 29L31 28ZM0 30L0 31L1 31L1 30ZM32 30L32 32L31 32L31 33L32 33L32 32L33 32L33 31L34 31L34 30ZM6 31L6 32L8 32L8 31ZM10 32L10 33L12 33L12 32ZM39 32L39 33L38 33L38 34L39 34L39 33L40 33L40 32ZM21 33L21 34L22 34L22 35L23 35L23 36L22 36L22 37L25 37L25 34L22 34L22 33ZM33 33L33 36L36 36L36 33ZM34 34L34 35L35 35L35 34ZM14 35L14 37L15 37L15 36L17 36L17 37L16 37L16 39L18 39L18 40L19 40L19 39L20 39L20 38L21 38L21 39L24 39L24 38L21 38L21 37L20 37L20 36L19 36L19 35L18 35L18 36L17 36L17 35ZM38 35L38 36L39 36L39 35ZM17 37L17 38L18 38L18 39L19 39L19 37ZM36 37L36 40L37 40L37 37ZM33 38L33 39L30 39L30 40L32 40L32 41L33 41L33 39L34 39L34 38ZM0 0L0 7L7 7L7 0ZM1 1L1 6L6 6L6 1ZM2 2L2 5L5 5L5 2ZM34 0L34 7L41 7L41 0ZM35 1L35 6L40 6L40 1ZM36 2L36 5L39 5L39 2ZM0 34L0 41L7 41L7 34ZM1 35L1 40L6 40L6 35ZM2 36L2 39L5 39L5 36Z" fill="#000000"/></g></g></svg>
