<?xml version="1.0" encoding="UTF-8"?>
<svg xmlns="http://www.w3.org/2000/svg" version="1.1" width="200" height="200" viewBox="0 0 200 200"><rect x="0" y="0" width="200" height="200" fill="#ffffff"/><g transform="scale(4.878)"><g transform="translate(0,0)"><path fill-rule="evenodd" d="M8 0L8 3L9 3L9 4L10 4L10 3L12 3L12 4L13 4L13 6L12 6L12 8L11 8L11 5L10 5L10 8L9 8L9 5L8 5L8 9L7 9L7 8L6 8L6 9L5 9L5 8L2 8L2 10L1 10L1 11L0 11L0 12L2 12L2 13L3 13L3 14L4 14L4 15L2 15L2 16L1 16L1 14L0 14L0 17L3 17L3 16L4 16L4 15L5 15L5 14L6 14L6 15L7 15L7 16L6 16L6 17L7 17L7 16L8 16L8 17L9 17L9 15L8 15L8 14L6 14L6 13L9 13L9 14L10 14L10 16L11 16L11 17L12 17L12 18L11 18L11 20L12 20L12 21L13 21L13 22L14 22L14 23L13 23L13 24L15 24L15 26L12 26L12 22L10 22L10 21L9 21L9 20L8 20L8 19L7 19L7 18L6 18L6 19L7 19L7 20L6 20L6 21L9 21L9 22L8 22L8 23L7 23L7 22L5 22L5 21L4 21L4 22L5 22L5 23L7 23L7 24L4 24L4 25L3 25L3 26L4 26L4 25L5 25L5 27L3 27L3 29L0 29L0 33L1 33L1 30L2 30L2 33L4 33L4 32L3 32L3 31L5 31L5 30L3 30L3 29L5 29L5 28L6 28L6 29L7 29L7 30L6 30L6 31L7 31L7 32L6 32L6 33L8 33L8 34L10 34L10 35L13 35L13 36L11 36L11 37L10 37L10 36L8 36L8 39L9 39L9 40L10 40L10 41L13 41L13 40L10 40L10 39L11 39L11 37L13 37L13 39L14 39L14 40L15 40L15 41L18 41L18 40L17 40L17 38L19 38L19 40L20 40L20 41L21 41L21 40L22 40L22 39L23 39L23 38L24 38L24 39L26 39L26 38L27 38L27 40L28 40L28 38L27 38L27 37L29 37L29 36L31 36L31 35L32 35L32 38L33 38L33 39L31 39L31 37L30 37L30 38L29 38L29 39L30 39L30 40L29 40L29 41L30 41L30 40L33 40L33 41L34 41L34 40L33 40L33 39L35 39L35 40L36 40L36 39L37 39L37 40L40 40L40 38L41 38L41 37L39 37L39 36L41 36L41 35L40 35L40 34L41 34L41 33L40 33L40 32L41 32L41 31L40 31L40 30L41 30L41 29L40 29L40 28L41 28L41 27L40 27L40 26L41 26L41 23L39 23L39 24L40 24L40 26L39 26L39 25L36 25L36 24L37 24L37 21L39 21L39 20L36 20L36 19L35 19L35 17L36 17L36 18L37 18L37 19L40 19L40 18L41 18L41 16L40 16L40 18L38 18L38 17L39 17L39 16L37 16L37 13L36 13L36 14L35 14L35 17L34 17L34 16L32 16L32 17L30 17L30 16L31 16L31 11L30 11L30 10L33 10L33 9L34 9L34 11L32 11L32 13L33 13L33 14L32 14L32 15L34 15L34 13L35 13L35 12L38 12L38 11L39 11L39 13L40 13L40 14L38 14L38 15L40 15L40 14L41 14L41 13L40 13L40 12L41 12L41 11L40 11L40 10L41 10L41 8L38 8L38 9L40 9L40 10L37 10L37 9L36 9L36 8L33 8L33 5L32 5L32 4L33 4L33 3L31 3L31 2L30 2L30 0L29 0L29 1L27 1L27 0L26 0L26 1L27 1L27 2L26 2L26 3L28 3L28 4L29 4L29 3L31 3L31 4L30 4L30 5L29 5L29 6L28 6L28 5L27 5L27 4L25 4L25 3L24 3L24 2L25 2L25 0L22 0L22 1L24 1L24 2L23 2L23 4L22 4L22 5L21 5L21 3L20 3L20 4L19 4L19 3L17 3L17 4L13 4L13 2L14 2L14 3L16 3L16 2L15 2L15 1L13 1L13 2L9 2L9 0ZM10 0L10 1L12 1L12 0ZM31 0L31 1L32 1L32 0ZM23 4L23 5L24 5L24 6L23 6L23 7L22 7L22 6L21 6L21 7L22 7L22 9L21 9L21 8L20 8L20 5L17 5L17 7L16 7L16 6L15 6L15 7L14 7L14 6L13 6L13 8L12 8L12 9L11 9L11 8L10 8L10 9L9 9L9 10L7 10L7 9L6 9L6 10L7 10L7 11L6 11L6 12L7 12L7 11L11 11L11 12L12 12L12 13L10 13L10 12L9 12L9 13L10 13L10 14L12 14L12 13L13 13L13 15L12 15L12 17L13 17L13 15L14 15L14 13L15 13L15 11L16 11L16 12L17 12L17 15L16 15L16 16L17 16L17 17L16 17L16 18L18 18L18 17L19 17L19 15L18 15L18 14L19 14L19 9L18 9L18 11L17 11L17 10L14 10L14 9L15 9L15 7L16 7L16 9L17 9L17 8L18 8L18 6L19 6L19 8L20 8L20 9L21 9L21 11L20 11L20 12L21 12L21 13L23 13L23 14L20 14L20 15L21 15L21 16L20 16L20 19L21 19L21 16L23 16L23 17L24 17L24 16L23 16L23 14L24 14L24 15L25 15L25 13L23 13L23 12L21 12L21 11L23 11L23 9L25 9L25 8L28 8L28 9L26 9L26 10L24 10L24 12L25 12L25 11L26 11L26 10L28 10L28 12L27 12L27 13L26 13L26 15L27 15L27 17L26 17L26 16L25 16L25 17L26 17L26 18L25 18L25 19L24 19L24 18L23 18L23 20L22 20L22 21L20 21L20 20L19 20L19 19L14 19L14 20L13 20L13 19L12 19L12 20L13 20L13 21L17 21L17 23L16 23L16 22L15 22L15 23L16 23L16 26L15 26L15 28L13 28L13 27L12 27L12 26L11 26L11 23L8 23L8 24L7 24L7 25L6 25L6 26L7 26L7 25L9 25L9 27L6 27L6 28L8 28L8 30L9 30L9 32L8 32L8 33L10 33L10 32L11 32L11 33L12 33L12 34L13 34L13 33L14 33L14 35L15 35L15 36L14 36L14 38L15 38L15 40L16 40L16 38L17 38L17 37L19 37L19 38L20 38L20 36L21 36L21 37L22 37L22 38L23 38L23 36L24 36L24 38L25 38L25 36L26 36L26 37L27 37L27 35L26 35L26 34L28 34L28 33L29 33L29 32L30 32L30 31L28 31L28 33L25 33L25 32L23 32L23 34L25 34L25 35L22 35L22 36L21 36L21 35L20 35L20 34L21 34L21 31L22 31L22 27L23 27L23 26L25 26L25 25L23 25L23 24L22 24L22 25L23 25L23 26L22 26L22 27L21 27L21 28L20 28L20 27L19 27L19 28L18 28L18 26L20 26L20 25L21 25L21 24L20 24L20 25L19 25L19 24L17 24L17 23L19 23L19 22L20 22L20 23L22 23L22 22L23 22L23 23L24 23L24 24L25 24L25 23L26 23L26 24L28 24L28 23L27 23L27 22L30 22L30 23L29 23L29 24L30 24L30 23L31 23L31 25L30 25L30 26L29 26L29 25L26 25L26 26L28 26L28 27L29 27L29 28L31 28L31 29L28 29L28 30L32 30L32 31L33 31L33 32L35 32L35 31L34 31L34 30L35 30L35 29L38 29L38 31L37 31L37 30L36 30L36 31L37 31L37 32L40 32L40 31L39 31L39 26L38 26L38 28L36 28L36 27L35 27L35 26L36 26L36 25L35 25L35 24L36 24L36 23L35 23L35 22L36 22L36 21L35 21L35 19L34 19L34 18L33 18L33 17L32 17L32 18L31 18L31 19L30 19L30 17L29 17L29 16L30 16L30 15L29 15L29 14L30 14L30 13L29 13L29 12L30 12L30 11L29 11L29 10L30 10L30 9L33 9L33 8L30 8L30 6L31 6L31 7L32 7L32 5L30 5L30 6L29 6L29 7L28 7L28 6L27 6L27 5L26 5L26 6L25 6L25 4ZM24 6L24 7L23 7L23 8L24 8L24 7L25 7L25 6ZM26 6L26 7L27 7L27 6ZM13 8L13 9L12 9L12 10L11 10L11 11L12 11L12 12L13 12L13 13L14 13L14 11L13 11L13 9L14 9L14 8ZM29 8L29 9L28 9L28 10L29 10L29 9L30 9L30 8ZM35 9L35 10L36 10L36 9ZM2 10L2 12L3 12L3 13L5 13L5 12L4 12L4 11L5 11L5 10L4 10L4 11L3 11L3 10ZM33 12L33 13L34 13L34 12ZM27 13L27 14L29 14L29 13ZM17 15L17 16L18 16L18 15ZM28 15L28 16L29 16L29 15ZM14 16L14 18L15 18L15 16ZM36 16L36 17L37 17L37 16ZM1 18L1 20L0 20L0 21L3 21L3 19L2 19L2 18ZM27 18L27 21L29 21L29 20L28 20L28 19L29 19L29 18ZM31 19L31 20L30 20L30 21L31 21L31 22L32 22L32 21L34 21L34 22L35 22L35 21L34 21L34 20L33 20L33 19ZM18 20L18 22L19 22L19 20ZM23 20L23 21L25 21L25 22L24 22L24 23L25 23L25 22L26 22L26 21L25 21L25 20ZM31 20L31 21L32 21L32 20ZM40 20L40 21L41 21L41 20ZM1 22L1 23L0 23L0 25L2 25L2 24L3 24L3 23L2 23L2 22ZM32 23L32 24L33 24L33 25L31 25L31 26L32 26L32 27L31 27L31 28L32 28L32 27L34 27L34 26L35 26L35 25L34 25L34 24L35 24L35 23L34 23L34 24L33 24L33 23ZM9 24L9 25L10 25L10 24ZM17 25L17 26L16 26L16 27L17 27L17 26L18 26L18 25ZM33 25L33 26L34 26L34 25ZM1 26L1 27L2 27L2 26ZM10 26L10 27L9 27L9 28L10 28L10 27L11 27L11 26ZM24 27L24 28L23 28L23 31L24 31L24 30L25 30L25 31L27 31L27 27ZM11 28L11 29L12 29L12 28ZM15 28L15 30L14 30L14 31L13 31L13 32L12 32L12 30L10 30L10 31L11 31L11 32L12 32L12 33L13 33L13 32L14 32L14 33L17 33L17 32L16 32L16 31L17 31L17 30L18 30L18 34L15 34L15 35L18 35L18 36L19 36L19 35L18 35L18 34L19 34L19 33L20 33L20 32L19 32L19 30L18 30L18 29L17 29L17 28ZM19 28L19 29L20 29L20 28ZM24 28L24 29L25 29L25 28ZM33 28L33 29L32 29L32 30L33 30L33 29L34 29L34 28ZM16 29L16 30L17 30L17 29ZM20 30L20 31L21 31L21 30ZM14 31L14 32L15 32L15 31ZM30 33L30 35L31 35L31 33ZM33 33L33 36L36 36L36 33ZM37 33L37 36L39 36L39 34L38 34L38 33ZM34 34L34 35L35 35L35 34ZM33 37L33 38L36 38L36 37ZM37 38L37 39L38 39L38 38ZM23 40L23 41L24 41L24 40ZM25 40L25 41L26 41L26 40ZM0 0L0 7L7 7L7 0ZM1 1L1 6L6 6L6 1ZM2 2L2 5L5 5L5 2ZM34 0L34 7L41 7L41 0ZM35 1L35 6L40 6L40 1ZM36 2L36 5L39 5L39 2ZM0 34L0 41L7 41L7 34ZM1 35L1 40L6 40L6 35ZM2 36L2 39L5 39L5 36Z" fill="#000000"/></g></g></svg>
