<?xml version="1.0" encoding="UTF-8"?>
<svg xmlns="http://www.w3.org/2000/svg" version="1.1" width="200" height="200" viewBox="0 0 200 200"><rect x="0" y="0" width="200" height="200" fill="#ffffff"/><g transform="scale(4.878)"><g transform="translate(0,0)"><path fill-rule="evenodd" d="M8 0L8 3L9 3L9 4L10 4L10 7L9 7L9 5L8 5L8 9L7 9L7 8L6 8L6 9L5 9L5 8L2 8L2 11L3 11L3 9L5 9L5 12L3 12L3 13L2 13L2 14L1 14L1 13L0 13L0 16L2 16L2 14L3 14L3 13L5 13L5 12L6 12L6 13L8 13L8 14L9 14L9 15L7 15L7 14L5 14L5 16L6 16L6 17L5 17L5 18L4 18L4 17L2 17L2 18L1 18L1 17L0 17L0 18L1 18L1 20L0 20L0 23L2 23L2 24L3 24L3 26L4 26L4 29L3 29L3 32L6 32L6 33L8 33L8 34L9 34L9 36L8 36L8 39L9 39L9 40L10 40L10 39L9 39L9 38L10 38L10 37L11 37L11 36L10 36L10 35L11 35L11 34L12 34L12 35L14 35L14 33L15 33L15 34L16 34L16 35L15 35L15 37L17 37L17 38L18 38L18 39L17 39L17 41L19 41L19 38L21 38L21 40L22 40L22 39L23 39L23 40L24 40L24 41L31 41L31 40L33 40L33 41L34 41L34 40L33 40L33 39L35 39L35 40L36 40L36 39L38 39L38 38L39 38L39 40L40 40L40 38L41 38L41 37L40 37L40 36L41 36L41 35L40 35L40 34L41 34L41 33L39 33L39 32L40 32L40 30L41 30L41 29L40 29L40 28L41 28L41 27L40 27L40 26L41 26L41 23L40 23L40 26L39 26L39 24L37 24L37 25L36 25L36 23L33 23L33 24L32 24L32 23L30 23L30 22L33 22L33 21L34 21L34 22L36 22L36 21L39 21L39 20L36 20L36 19L35 19L35 17L36 17L36 18L38 18L38 17L39 17L39 16L37 16L37 15L38 15L38 14L41 14L41 13L40 13L40 12L39 12L39 13L38 13L38 14L37 14L37 13L36 13L36 14L35 14L35 15L36 15L36 16L35 16L35 17L34 17L34 16L33 16L33 15L34 15L34 14L33 14L33 13L34 13L34 12L33 12L33 13L32 13L32 14L31 14L31 12L29 12L29 11L30 11L30 10L32 10L32 9L34 9L34 10L33 10L33 11L34 11L34 10L35 10L35 12L38 12L38 11L40 11L40 10L41 10L41 8L38 8L38 9L40 9L40 10L37 10L37 9L36 9L36 8L33 8L33 6L32 6L32 7L31 7L31 6L30 6L30 8L28 8L28 7L29 7L29 4L28 4L28 5L26 5L26 4L27 4L27 3L29 3L29 1L27 1L27 0L25 0L25 1L24 1L24 0L23 0L23 2L22 2L22 0L20 0L20 1L19 1L19 0L15 0L15 1L19 1L19 2L17 2L17 4L18 4L18 3L20 3L20 4L19 4L19 5L20 5L20 7L19 7L19 6L18 6L18 7L17 7L17 6L16 6L16 7L15 7L15 4L16 4L16 2L15 2L15 4L13 4L13 3L14 3L14 0L13 0L13 1L10 1L10 2L9 2L9 0ZM30 0L30 2L31 2L31 1L32 1L32 2L33 2L33 0ZM20 1L20 3L21 3L21 1ZM10 2L10 3L11 3L11 2ZM23 2L23 3L25 3L25 4L24 4L24 5L23 5L23 4L20 4L20 5L22 5L22 6L21 6L21 8L22 8L22 9L20 9L20 10L22 10L22 9L24 9L24 10L25 10L25 9L27 9L27 10L26 10L26 11L25 11L25 12L24 12L24 13L26 13L26 12L27 12L27 10L28 10L28 11L29 11L29 10L30 10L30 9L32 9L32 8L30 8L30 9L28 9L28 8L26 8L26 5L25 5L25 4L26 4L26 3L27 3L27 2L26 2L26 3L25 3L25 2ZM30 3L30 4L31 4L31 5L32 5L32 4L33 4L33 3L32 3L32 4L31 4L31 3ZM12 4L12 5L13 5L13 7L14 7L14 8L12 8L12 9L11 9L11 7L12 7L12 6L11 6L11 7L10 7L10 9L8 9L8 10L7 10L7 9L6 9L6 10L7 10L7 11L6 11L6 12L7 12L7 11L9 11L9 12L8 12L8 13L9 13L9 12L11 12L11 11L13 11L13 13L12 13L12 14L11 14L11 13L10 13L10 14L11 14L11 15L12 15L12 14L13 14L13 16L14 16L14 17L13 17L13 18L14 18L14 17L15 17L15 18L16 18L16 19L17 19L17 17L21 17L21 18L22 18L22 19L19 19L19 18L18 18L18 20L19 20L19 22L18 22L18 24L19 24L19 25L20 25L20 28L18 28L18 27L19 27L19 26L16 26L16 25L15 25L15 24L17 24L17 23L16 23L16 22L15 22L15 21L17 21L17 20L15 20L15 19L14 19L14 20L13 20L13 19L12 19L12 16L11 16L11 18L10 18L10 19L12 19L12 20L13 20L13 23L12 23L12 21L11 21L11 20L9 20L9 19L8 19L8 20L9 20L9 22L8 22L8 23L9 23L9 24L8 24L8 25L6 25L6 26L5 26L5 24L7 24L7 23L3 23L3 24L4 24L4 26L5 26L5 27L6 27L6 28L5 28L5 30L4 30L4 31L5 31L5 30L7 30L7 29L6 29L6 28L7 28L7 27L8 27L8 26L9 26L9 28L13 28L13 27L17 27L17 28L16 28L16 29L13 29L13 31L11 31L11 30L12 30L12 29L11 29L11 30L10 30L10 29L8 29L8 31L9 31L9 34L11 34L11 33L10 33L10 31L11 31L11 32L12 32L12 34L13 34L13 31L14 31L14 32L15 32L15 33L16 33L16 34L18 34L18 35L17 35L17 36L18 36L18 35L19 35L19 36L20 36L20 34L18 34L18 33L23 33L23 34L24 34L24 31L25 31L25 32L26 32L26 31L27 31L27 34L28 34L28 35L27 35L27 36L25 36L25 37L23 37L23 38L25 38L25 39L24 39L24 40L27 40L27 39L26 39L26 38L28 38L28 37L29 37L29 39L28 39L28 40L31 40L31 39L30 39L30 38L31 38L31 37L32 37L32 39L33 39L33 38L36 38L36 37L32 37L32 35L30 35L30 34L31 34L31 33L32 33L32 32L35 32L35 31L37 31L37 30L38 30L38 32L37 32L37 33L38 33L38 34L37 34L37 36L39 36L39 35L38 35L38 34L39 34L39 33L38 33L38 32L39 32L39 28L40 28L40 27L39 27L39 26L38 26L38 28L36 28L36 29L34 29L34 28L33 28L33 27L34 27L34 25L35 25L35 27L37 27L37 26L36 26L36 25L35 25L35 24L34 24L34 25L32 25L32 24L31 24L31 25L30 25L30 26L28 26L28 25L29 25L29 24L30 24L30 23L25 23L25 22L30 22L30 21L33 21L33 20L34 20L34 21L36 21L36 20L35 20L35 19L34 19L34 18L33 18L33 17L32 17L32 18L31 18L31 17L30 17L30 19L32 19L32 20L29 20L29 21L25 21L25 22L24 22L24 20L27 20L27 19L26 19L26 18L24 18L24 17L27 17L27 18L29 18L29 16L31 16L31 15L30 15L30 13L28 13L28 14L29 14L29 15L28 15L28 17L27 17L27 15L26 15L26 14L24 14L24 15L23 15L23 13L22 13L22 12L23 12L23 11L21 11L21 12L19 12L19 11L18 11L18 14L19 14L19 13L22 13L22 14L21 14L21 15L19 15L19 16L17 16L17 15L16 15L16 14L17 14L17 13L14 13L14 11L13 11L13 9L16 9L16 10L15 10L15 12L17 12L17 11L16 11L16 10L17 10L17 9L16 9L16 8L15 8L15 7L14 7L14 5L13 5L13 4ZM22 6L22 7L23 7L23 8L24 8L24 9L25 9L25 8L24 8L24 7L25 7L25 6L24 6L24 7L23 7L23 6ZM27 6L27 7L28 7L28 6ZM18 7L18 8L19 8L19 7ZM0 9L0 10L1 10L1 9ZM10 9L10 10L11 10L11 9ZM18 9L18 10L19 10L19 9ZM35 9L35 10L36 10L36 11L37 11L37 10L36 10L36 9ZM32 14L32 15L33 15L33 14ZM6 15L6 16L7 16L7 15ZM14 15L14 16L15 16L15 17L17 17L17 16L15 16L15 15ZM21 15L21 16L22 16L22 15ZM24 15L24 16L25 16L25 15ZM36 16L36 17L37 17L37 16ZM40 16L40 18L39 18L39 19L40 19L40 18L41 18L41 16ZM6 17L6 18L8 18L8 17ZM2 18L2 19L4 19L4 21L3 21L3 20L2 20L2 21L3 21L3 22L4 22L4 21L5 21L5 22L7 22L7 21L5 21L5 20L7 20L7 19L4 19L4 18ZM22 19L22 20L21 20L21 21L20 21L20 22L19 22L19 24L21 24L21 28L22 28L22 29L19 29L19 30L15 30L15 31L16 31L16 33L17 33L17 31L18 31L18 32L20 32L20 31L21 31L21 32L22 32L22 29L23 29L23 30L24 30L24 28L25 28L25 29L26 29L26 30L25 30L25 31L26 31L26 30L29 30L29 29L30 29L30 32L29 32L29 31L28 31L28 32L29 32L29 33L28 33L28 34L29 34L29 33L31 33L31 29L30 29L30 28L29 28L29 29L27 29L27 28L28 28L28 26L25 26L25 27L24 27L24 25L26 25L26 24L25 24L25 23L22 23L22 24L21 24L21 22L22 22L22 21L23 21L23 20L24 20L24 19ZM14 20L14 21L15 21L15 20ZM40 20L40 21L41 21L41 20ZM10 22L10 24L11 24L11 22ZM37 22L37 23L38 23L38 22ZM13 23L13 24L15 24L15 23ZM0 24L0 25L1 25L1 26L0 26L0 27L1 27L1 26L2 26L2 25L1 25L1 24ZM22 24L22 27L23 27L23 24ZM27 24L27 25L28 25L28 24ZM9 25L9 26L10 26L10 27L12 27L12 26L13 26L13 25L11 25L11 26L10 26L10 25ZM31 25L31 26L32 26L32 25ZM6 26L6 27L7 27L7 26ZM25 27L25 28L26 28L26 27ZM31 27L31 28L32 28L32 29L33 29L33 30L32 30L32 31L33 31L33 30L34 30L34 31L35 31L35 30L34 30L34 29L33 29L33 28L32 28L32 27ZM0 28L0 33L1 33L1 30L2 30L2 29L1 29L1 28ZM36 29L36 30L37 30L37 29ZM9 30L9 31L10 31L10 30ZM19 30L19 31L20 31L20 30ZM6 31L6 32L7 32L7 31ZM33 33L33 36L36 36L36 33ZM21 34L21 36L23 36L23 35L22 35L22 34ZM25 34L25 35L26 35L26 34ZM34 34L34 35L35 35L35 34ZM28 35L28 36L27 36L27 37L28 37L28 36L29 36L29 35ZM12 36L12 37L13 37L13 38L11 38L11 40L12 40L12 41L15 41L15 40L16 40L16 39L15 39L15 38L14 38L14 37L13 37L13 36ZM30 36L30 37L31 37L31 36ZM18 37L18 38L19 38L19 37ZM21 37L21 38L22 38L22 37ZM25 37L25 38L26 38L26 37ZM37 37L37 38L38 38L38 37ZM13 38L13 39L12 39L12 40L13 40L13 39L14 39L14 38ZM0 0L0 7L7 7L7 0ZM1 1L1 6L6 6L6 1ZM2 2L2 5L5 5L5 2ZM34 0L34 7L41 7L41 0ZM35 1L35 6L40 6L40 1ZM36 2L36 5L39 5L39 2ZM0 34L0 41L7 41L7 34ZM1 35L1 40L6 40L6 35ZM2 36L2 39L5 39L5 36Z" fill="#000000"/></g></g></svg>
