<?xml version="1.0" encoding="UTF-8"?>
<svg xmlns="http://www.w3.org/2000/svg" version="1.1" width="200" height="200" viewBox="0 0 200 200"><rect x="0" y="0" width="200" height="200" fill="#ffffff"/><g transform="scale(4.878)"><g transform="translate(0,0)"><path fill-rule="evenodd" d="M8 0L8 3L9 3L9 4L10 4L10 5L8 5L8 9L7 9L7 8L6 8L6 9L5 9L5 8L2 8L2 10L0 10L0 11L3 11L3 12L2 12L2 13L3 13L3 16L2 16L2 17L1 17L1 15L2 15L2 14L0 14L0 19L1 19L1 18L2 18L2 19L3 19L3 18L4 18L4 19L5 19L5 20L4 20L4 21L5 21L5 22L6 22L6 23L5 23L5 24L6 24L6 25L8 25L8 24L10 24L10 23L11 23L11 25L9 25L9 26L8 26L8 27L7 27L7 26L6 26L6 27L5 27L5 26L4 26L4 23L3 23L3 22L2 22L2 21L3 21L3 20L2 20L2 21L1 21L1 20L0 20L0 21L1 21L1 22L0 22L0 23L2 23L2 24L3 24L3 25L2 25L2 26L1 26L1 24L0 24L0 27L3 27L3 28L0 28L0 33L1 33L1 29L2 29L2 33L3 33L3 31L4 31L4 33L8 33L8 34L9 34L9 32L10 32L10 36L8 36L8 39L9 39L9 37L10 37L10 38L13 38L13 37L15 37L15 35L16 35L16 34L15 34L15 32L16 32L16 33L17 33L17 32L18 32L18 31L19 31L19 33L18 33L18 34L17 34L17 35L19 35L19 36L20 36L20 34L21 34L21 36L22 36L22 34L23 34L23 38L24 38L24 37L25 37L25 36L26 36L26 35L27 35L27 36L28 36L28 37L29 37L29 36L31 36L31 35L32 35L32 38L34 38L34 39L35 39L35 40L36 40L36 39L37 39L37 40L40 40L40 38L41 38L41 37L40 37L40 34L41 34L41 33L40 33L40 30L41 30L41 28L40 28L40 26L41 26L41 23L39 23L39 24L40 24L40 26L39 26L39 25L34 25L34 24L32 24L32 23L33 23L33 22L32 22L32 21L34 21L34 22L35 22L35 23L36 23L36 24L37 24L37 23L38 23L38 22L39 22L39 20L36 20L36 19L35 19L35 17L36 17L36 18L37 18L37 19L38 19L38 17L39 17L39 16L37 16L37 15L38 15L38 13L36 13L36 14L35 14L35 15L36 15L36 16L35 16L35 17L34 17L34 16L32 16L32 17L30 17L30 16L29 16L29 15L31 15L31 12L32 12L32 13L33 13L33 14L32 14L32 15L34 15L34 13L35 13L35 11L36 11L36 12L38 12L38 11L39 11L39 12L40 12L40 10L41 10L41 8L38 8L38 9L40 9L40 10L37 10L37 9L36 9L36 8L33 8L33 9L30 9L30 8L28 8L28 7L29 7L29 6L30 6L30 7L31 7L31 5L32 5L32 7L33 7L33 5L32 5L32 4L33 4L33 0L29 0L29 1L27 1L27 0L26 0L26 1L27 1L27 2L26 2L26 3L28 3L28 4L29 4L29 3L32 3L32 4L30 4L30 5L27 5L27 4L26 4L26 7L25 7L25 6L24 6L24 5L25 5L25 3L24 3L24 2L25 2L25 1L24 1L24 0L23 0L23 1L22 1L22 0L21 0L21 1L18 1L18 0L17 0L17 1L16 1L16 0L14 0L14 2L13 2L13 1L12 1L12 0ZM17 1L17 2L15 2L15 3L14 3L14 4L13 4L13 3L11 3L11 2L10 2L10 4L12 4L12 6L11 6L11 5L10 5L10 6L9 6L9 7L10 7L10 8L13 8L13 11L14 11L14 12L13 12L13 13L11 13L11 12L10 12L10 11L11 11L11 9L10 9L10 10L9 10L9 9L8 9L8 10L7 10L7 9L6 9L6 10L7 10L7 11L6 11L6 12L7 12L7 11L8 11L8 13L6 13L6 14L7 14L7 15L4 15L4 18L7 18L7 17L8 17L8 19L6 19L6 20L7 20L7 21L6 21L6 22L8 22L8 23L6 23L6 24L8 24L8 23L9 23L9 22L11 22L11 23L15 23L15 22L16 22L16 23L17 23L17 22L16 22L16 20L17 20L17 21L18 21L18 24L17 24L17 28L18 28L18 29L19 29L19 30L20 30L20 29L23 29L23 27L24 27L24 26L23 26L23 25L24 25L24 24L26 24L26 25L27 25L27 26L28 26L28 28L27 28L27 27L26 27L26 26L25 26L25 28L27 28L27 29L28 29L28 30L29 30L29 31L28 31L28 32L31 32L31 31L30 31L30 30L32 30L32 31L33 31L33 32L36 32L36 31L37 31L37 32L39 32L39 31L38 31L38 30L39 30L39 26L38 26L38 28L35 28L35 27L36 27L36 26L34 26L34 25L32 25L32 24L31 24L31 23L32 23L32 22L31 22L31 21L32 21L32 20L34 20L34 21L35 21L35 22L36 22L36 21L35 21L35 19L34 19L34 18L33 18L33 17L32 17L32 18L31 18L31 19L30 19L30 17L29 17L29 16L28 16L28 15L29 15L29 14L30 14L30 13L29 13L29 12L31 12L31 11L32 11L32 12L33 12L33 13L34 13L34 12L33 12L33 11L34 11L34 9L33 9L33 10L30 10L30 9L28 9L28 8L27 8L27 7L28 7L28 6L27 6L27 7L26 7L26 8L27 8L27 9L26 9L26 10L25 10L25 11L26 11L26 12L25 12L25 13L26 13L26 17L27 17L27 18L29 18L29 19L28 19L28 20L27 20L27 19L26 19L26 18L25 18L25 16L24 16L24 18L25 18L25 20L23 20L23 19L21 19L21 18L23 18L23 16L21 16L21 18L20 18L20 17L19 17L19 16L18 16L18 15L20 15L20 12L19 12L19 11L18 11L18 12L17 12L17 13L16 13L16 10L19 10L19 9L15 9L15 8L13 8L13 7L14 7L14 6L15 6L15 7L16 7L16 8L17 8L17 7L18 7L18 6L19 6L19 7L20 7L20 8L22 8L22 9L23 9L23 10L21 10L21 9L20 9L20 11L21 11L21 12L24 12L24 11L23 11L23 10L24 10L24 8L22 8L22 6L23 6L23 7L24 7L24 6L23 6L23 2L24 2L24 1L23 1L23 2L22 2L22 4L21 4L21 3L20 3L20 4L19 4L19 5L15 5L15 3L17 3L17 4L18 4L18 3L19 3L19 2L18 2L18 1ZM30 1L30 2L32 2L32 1ZM19 5L19 6L20 6L20 7L21 7L21 6L22 6L22 5L21 5L21 6L20 6L20 5ZM10 6L10 7L11 7L11 6ZM12 6L12 7L13 7L13 6ZM16 6L16 7L17 7L17 6ZM14 9L14 10L15 10L15 9ZM35 9L35 10L36 10L36 9ZM3 10L3 11L5 11L5 10ZM26 10L26 11L27 11L27 14L29 14L29 13L28 13L28 11L29 11L29 10ZM0 12L0 13L1 13L1 12ZM9 12L9 13L8 13L8 14L9 14L9 13L10 13L10 14L11 14L11 13L10 13L10 12ZM14 12L14 13L15 13L15 12ZM18 12L18 13L17 13L17 15L16 15L16 14L14 14L14 16L13 16L13 14L12 14L12 17L11 17L11 15L10 15L10 17L9 17L9 16L8 16L8 15L7 15L7 16L5 16L5 17L7 17L7 16L8 16L8 17L9 17L9 18L10 18L10 17L11 17L11 18L12 18L12 17L14 17L14 18L13 18L13 20L12 20L12 21L11 21L11 22L12 22L12 21L13 21L13 20L14 20L14 22L15 22L15 20L16 20L16 19L17 19L17 20L18 20L18 21L19 21L19 23L20 23L20 21L21 21L21 19L20 19L20 18L19 18L19 17L18 17L18 16L17 16L17 15L18 15L18 14L19 14L19 12ZM4 13L4 14L5 14L5 13ZM22 13L22 14L21 14L21 15L23 15L23 13ZM39 13L39 14L41 14L41 13ZM36 14L36 15L37 15L37 14ZM15 15L15 16L14 16L14 17L16 17L16 15ZM36 16L36 17L37 17L37 16ZM40 16L40 18L39 18L39 19L40 19L40 18L41 18L41 16ZM2 17L2 18L3 18L3 17ZM15 18L15 19L16 19L16 18ZM17 18L17 19L18 19L18 18ZM32 18L32 19L33 19L33 18ZM8 19L8 22L9 22L9 21L10 21L10 20L11 20L11 19L10 19L10 20L9 20L9 19ZM19 19L19 21L20 21L20 19ZM22 20L22 23L21 23L21 26L20 26L20 27L21 27L21 28L22 28L22 27L23 27L23 26L22 26L22 25L23 25L23 24L22 24L22 23L23 23L23 22L24 22L24 21L23 21L23 20ZM26 20L26 21L25 21L25 22L26 22L26 24L27 24L27 25L28 25L28 26L30 26L30 25L31 25L31 26L32 26L32 28L33 28L33 29L32 29L32 30L33 30L33 29L34 29L34 28L33 28L33 27L34 27L34 26L32 26L32 25L31 25L31 24L29 24L29 22L27 22L27 20ZM28 20L28 21L29 21L29 20ZM30 20L30 21L31 21L31 20ZM40 20L40 21L41 21L41 20ZM37 21L37 22L38 22L38 21ZM13 24L13 25L12 25L12 26L9 26L9 27L8 27L8 29L6 29L6 30L7 30L7 31L6 31L6 32L7 32L7 31L8 31L8 32L9 32L9 31L10 31L10 32L11 32L11 34L13 34L13 35L12 35L12 36L14 36L14 35L15 35L15 34L13 34L13 33L14 33L14 32L13 32L13 31L16 31L16 24ZM28 24L28 25L29 25L29 24ZM13 25L13 26L12 26L12 28L13 28L13 30L12 30L12 29L11 29L11 28L9 28L9 29L11 29L11 30L10 30L10 31L11 31L11 32L12 32L12 33L13 33L13 32L12 32L12 31L13 31L13 30L14 30L14 29L15 29L15 28L13 28L13 27L14 27L14 26L15 26L15 25ZM18 26L18 27L19 27L19 26ZM21 26L21 27L22 27L22 26ZM6 27L6 28L7 28L7 27ZM3 28L3 30L4 30L4 31L5 31L5 28ZM19 28L19 29L20 29L20 28ZM28 28L28 29L31 29L31 28ZM35 29L35 30L34 30L34 31L36 31L36 30L37 30L37 29ZM11 30L11 31L12 31L12 30ZM21 30L21 32L20 32L20 33L21 33L21 34L22 34L22 33L21 33L21 32L23 32L23 33L24 33L24 32L23 32L23 31L24 31L24 30ZM25 30L25 32L26 32L26 34L24 34L24 35L26 35L26 34L29 34L29 33L27 33L27 30ZM30 33L30 35L31 35L31 33ZM33 33L33 36L36 36L36 33ZM38 33L38 34L37 34L37 36L39 36L39 35L38 35L38 34L39 34L39 33ZM34 34L34 35L35 35L35 34ZM28 35L28 36L29 36L29 35ZM16 37L16 38L15 38L15 40L17 40L17 41L22 41L22 38L21 38L21 37L20 37L20 38L19 38L19 40L18 40L18 39L16 39L16 38L18 38L18 37ZM26 37L26 38L27 38L27 40L25 40L25 41L27 41L27 40L28 40L28 41L31 41L31 40L33 40L33 41L34 41L34 40L33 40L33 39L31 39L31 37L30 37L30 38L29 38L29 39L30 39L30 40L28 40L28 38L27 38L27 37ZM34 37L34 38L36 38L36 37ZM37 38L37 39L38 39L38 38ZM11 39L11 40L13 40L13 39ZM23 39L23 41L24 41L24 39ZM0 0L0 7L7 7L7 0ZM1 1L1 6L6 6L6 1ZM2 2L2 5L5 5L5 2ZM34 0L34 7L41 7L41 0ZM35 1L35 6L40 6L40 1ZM36 2L36 5L39 5L39 2ZM0 34L0 41L7 41L7 34ZM1 35L1 40L6 40L6 35ZM2 36L2 39L5 39L5 36Z" fill="#000000"/></g></g></svg>
