<?xml version="1.0" encoding="UTF-8"?>
<svg xmlns="http://www.w3.org/2000/svg" version="1.1" width="200" height="200" viewBox="0 0 200 200"><rect x="0" y="0" width="200" height="200" fill="#ffffff"/><g transform="scale(6.897)"><g transform="translate(0,0)"><path fill-rule="evenodd" d="M10 0L10 2L8 2L8 4L9 4L9 6L8 6L8 7L9 7L9 9L8 9L8 8L6 8L6 9L5 9L5 8L3 8L3 9L4 9L4 10L2 10L2 9L0 9L0 10L2 10L2 13L1 13L1 12L0 12L0 16L2 16L2 17L0 17L0 21L3 21L3 20L2 20L2 19L4 19L4 17L5 17L5 18L6 18L6 19L5 19L5 20L4 20L4 21L7 21L7 20L11 20L11 19L14 19L14 20L15 20L15 21L16 21L16 20L18 20L18 21L20 21L20 24L19 24L19 25L17 25L17 24L18 24L18 22L17 22L17 24L15 24L15 25L17 25L17 26L15 26L15 27L13 27L13 26L12 26L12 25L11 25L11 23L12 23L12 24L13 24L13 25L14 25L14 21L13 21L13 23L12 23L12 21L8 21L8 23L10 23L10 25L11 25L11 26L12 26L12 27L11 27L11 28L13 28L13 29L14 29L14 28L15 28L15 29L16 29L16 27L17 27L17 28L18 28L18 27L19 27L19 25L24 25L24 26L25 26L25 22L27 22L27 21L26 21L26 19L27 19L27 18L28 18L28 19L29 19L29 17L28 17L28 16L29 16L29 15L28 15L28 16L27 16L27 13L29 13L29 11L28 11L28 10L27 10L27 8L25 8L25 9L26 9L26 10L25 10L25 12L24 12L24 16L23 16L23 12L22 12L22 11L21 11L21 10L19 10L19 9L20 9L20 8L19 8L19 6L20 6L20 7L21 7L21 4L19 4L19 3L20 3L20 1L21 1L21 0L19 0L19 1L18 1L18 0L16 0L16 1L18 1L18 2L19 2L19 3L18 3L18 5L19 5L19 6L18 6L18 7L17 7L17 5L15 5L15 3L16 3L16 2L15 2L15 1L14 1L14 0ZM12 1L12 2L13 2L13 1ZM10 2L10 6L9 6L9 7L10 7L10 9L11 9L11 8L14 8L14 11L11 11L11 10L8 10L8 11L6 11L6 12L4 12L4 11L3 11L3 13L2 13L2 14L1 14L1 15L2 15L2 16L3 16L3 17L4 17L4 16L3 16L3 15L4 15L4 14L3 14L3 13L6 13L6 14L5 14L5 16L7 16L7 17L6 17L6 18L8 18L8 19L9 19L9 18L8 18L8 13L9 13L9 16L10 16L10 19L11 19L11 18L12 18L12 16L13 16L13 17L14 17L14 16L13 16L13 15L14 15L14 13L13 13L13 12L15 12L15 13L16 13L16 15L15 15L15 17L16 17L16 19L17 19L17 18L18 18L18 20L19 20L19 18L20 18L20 19L21 19L21 20L22 20L22 19L21 19L21 16L20 16L20 15L21 15L21 14L22 14L22 12L21 12L21 14L20 14L20 15L19 15L19 17L18 17L18 15L17 15L17 13L18 13L18 14L19 14L19 13L20 13L20 12L19 12L19 13L18 13L18 12L17 12L17 13L16 13L16 11L17 11L17 10L18 10L18 9L19 9L19 8L16 8L16 9L17 9L17 10L15 10L15 7L16 7L16 6L15 6L15 5L14 5L14 3L13 3L13 7L12 7L12 6L11 6L11 2ZM10 6L10 7L11 7L11 6ZM14 6L14 7L15 7L15 6ZM6 9L6 10L7 10L7 9ZM12 9L12 10L13 10L13 9ZM22 9L22 10L23 10L23 11L24 11L24 9ZM26 10L26 11L27 11L27 12L28 12L28 11L27 11L27 10ZM8 11L8 12L6 12L6 13L8 13L8 12L9 12L9 13L10 13L10 15L11 15L11 16L12 16L12 15L11 15L11 14L13 14L13 13L11 13L11 11ZM25 13L25 16L26 16L26 17L27 17L27 16L26 16L26 13ZM2 14L2 15L3 15L3 14ZM6 14L6 15L7 15L7 14ZM16 16L16 17L17 17L17 16ZM22 16L22 17L23 17L23 16ZM14 18L14 19L15 19L15 18ZM25 18L25 19L23 19L23 20L25 20L25 19L26 19L26 18ZM6 19L6 20L7 20L7 19ZM21 21L21 24L24 24L24 21ZM28 21L28 22L29 22L29 21ZM15 22L15 23L16 23L16 22ZM22 22L22 23L23 23L23 22ZM28 23L28 24L26 24L26 27L23 27L23 28L22 28L22 26L21 26L21 27L20 27L20 28L19 28L19 29L20 29L20 28L21 28L21 29L23 29L23 28L24 28L24 29L25 29L25 28L26 28L26 29L28 29L28 28L27 28L27 27L29 27L29 26L27 26L27 25L28 25L28 24L29 24L29 23ZM8 24L8 26L9 26L9 27L10 27L10 26L9 26L9 24ZM9 28L9 29L10 29L10 28ZM0 0L0 7L7 7L7 0ZM1 1L1 6L6 6L6 1ZM2 2L2 5L5 5L5 2ZM22 0L22 7L29 7L29 0ZM23 1L23 6L28 6L28 1ZM24 2L24 5L27 5L27 2ZM0 22L0 29L7 29L7 22ZM1 23L1 28L6 28L6 23ZM2 24L2 27L5 27L5 24Z" fill="#000000"/></g></g></svg>
