<?xml version="1.0" encoding="UTF-8"?>
<svg xmlns="http://www.w3.org/2000/svg" version="1.1" width="200" height="200" viewBox="0 0 200 200"><rect x="0" y="0" width="200" height="200" fill="#ffffff"/><g transform="scale(4.878)"><g transform="translate(0,0)"><path fill-rule="evenodd" d="M8 0L8 3L10 3L10 12L9 12L9 5L8 5L8 9L7 9L7 8L6 8L6 9L5 9L5 8L2 8L2 9L0 9L0 13L3 13L3 14L2 14L2 16L0 16L0 22L2 22L2 21L1 21L1 20L2 20L2 19L3 19L3 18L4 18L4 19L5 19L5 20L6 20L6 21L5 21L5 22L4 22L4 21L3 21L3 22L4 22L4 23L3 23L3 24L1 24L1 25L0 25L0 26L3 26L3 28L4 28L4 30L3 30L3 31L4 31L4 33L8 33L8 34L9 34L9 36L8 36L8 39L10 39L10 37L12 37L12 38L11 38L11 40L13 40L13 39L12 39L12 38L14 38L14 40L15 40L15 41L23 41L23 40L21 40L21 39L20 39L20 38L18 38L18 36L19 36L19 37L21 37L21 38L22 38L22 39L24 39L24 38L25 38L25 39L26 39L26 40L24 40L24 41L27 41L27 40L28 40L28 39L29 39L29 37L28 37L28 36L31 36L31 35L32 35L32 37L30 37L30 38L32 38L32 37L36 37L36 38L33 38L33 39L31 39L31 40L33 40L33 41L34 41L34 40L33 40L33 39L35 39L35 40L36 40L36 39L37 39L37 40L40 40L40 38L41 38L41 37L40 37L40 36L41 36L41 35L40 35L40 34L41 34L41 32L37 32L37 31L36 31L36 32L33 32L33 31L32 31L32 30L33 30L33 29L34 29L34 28L33 28L33 29L32 29L32 30L31 30L31 32L28 32L28 31L30 31L30 30L28 30L28 29L31 29L31 28L26 28L26 27L24 27L24 28L25 28L25 29L26 29L26 30L27 30L27 31L25 31L25 30L23 30L23 26L21 26L21 25L22 25L22 24L24 24L24 23L27 23L27 25L28 25L28 26L27 26L27 27L29 27L29 26L32 26L32 27L34 27L34 26L36 26L36 27L37 27L37 28L38 28L38 26L39 26L39 28L41 28L41 27L40 27L40 26L41 26L41 23L39 23L39 24L40 24L40 26L39 26L39 25L33 25L33 24L31 24L31 22L32 22L32 23L33 23L33 22L32 22L32 21L34 21L34 22L35 22L35 23L34 23L34 24L35 24L35 23L36 23L36 24L37 24L37 22L38 22L38 21L39 21L39 20L38 20L38 19L40 19L40 18L41 18L41 16L40 16L40 18L38 18L38 19L37 19L37 20L36 20L36 19L35 19L35 17L36 17L36 18L37 18L37 17L39 17L39 16L37 16L37 15L40 15L40 14L41 14L41 13L40 13L40 12L39 12L39 13L40 13L40 14L37 14L37 13L36 13L36 14L35 14L35 15L36 15L36 16L35 16L35 17L34 17L34 16L33 16L33 17L31 17L31 16L29 16L29 15L28 15L28 16L29 16L29 17L31 17L31 18L30 18L30 19L31 19L31 18L34 18L34 19L35 19L35 21L34 21L34 20L30 20L30 21L31 21L31 22L30 22L30 24L29 24L29 21L28 21L28 22L25 22L25 21L23 21L23 20L20 20L20 19L21 19L21 18L23 18L23 19L24 19L24 20L26 20L26 19L27 19L27 20L28 20L28 19L29 19L29 18L26 18L26 16L27 16L27 15L26 15L26 13L27 13L27 14L30 14L30 15L31 15L31 12L29 12L29 11L28 11L28 10L24 10L24 9L23 9L23 6L24 6L24 8L25 8L25 6L26 6L26 8L27 8L27 9L31 9L31 10L30 10L30 11L31 11L31 10L33 10L33 9L34 9L34 11L32 11L32 13L33 13L33 14L32 14L32 15L34 15L34 13L35 13L35 12L38 12L38 11L40 11L40 10L41 10L41 8L38 8L38 9L40 9L40 10L37 10L37 9L36 9L36 8L33 8L33 9L31 9L31 8L29 8L29 6L30 6L30 7L31 7L31 5L32 5L32 7L33 7L33 5L32 5L32 4L33 4L33 3L32 3L32 2L30 2L30 0L29 0L29 1L27 1L27 0L26 0L26 1L27 1L27 2L26 2L26 3L28 3L28 4L29 4L29 3L32 3L32 4L30 4L30 5L29 5L29 6L28 6L28 5L27 5L27 4L25 4L25 3L24 3L24 4L23 4L23 3L22 3L22 2L25 2L25 0L24 0L24 1L23 1L23 0L22 0L22 2L20 2L20 3L18 3L18 1L17 1L17 0L14 0L14 1L13 1L13 0L11 0L11 2L10 2L10 0ZM20 0L20 1L21 1L21 0ZM31 0L31 1L32 1L32 0ZM14 1L14 2L15 2L15 3L16 3L16 2L17 2L17 1L16 1L16 2L15 2L15 1ZM11 3L11 4L13 4L13 7L12 7L12 6L11 6L11 7L12 7L12 8L13 8L13 10L11 10L11 12L10 12L10 13L6 13L6 12L8 12L8 11L4 11L4 10L5 10L5 9L4 9L4 10L2 10L2 11L4 11L4 12L3 12L3 13L4 13L4 12L5 12L5 14L4 14L4 18L8 18L8 19L6 19L6 20L9 20L9 19L11 19L11 21L8 21L8 23L6 23L6 22L7 22L7 21L6 21L6 22L5 22L5 26L4 26L4 24L3 24L3 26L4 26L4 28L5 28L5 26L7 26L7 25L8 25L8 26L9 26L9 24L10 24L10 25L12 25L12 26L10 26L10 27L9 27L9 29L10 29L10 28L12 28L12 29L11 29L11 30L10 30L10 31L11 31L11 30L13 30L13 29L14 29L14 27L13 27L13 26L15 26L15 31L17 31L17 32L16 32L16 33L14 33L14 32L13 32L13 31L12 31L12 32L11 32L11 33L10 33L10 34L11 34L11 36L12 36L12 34L11 34L11 33L12 33L12 32L13 32L13 34L14 34L14 37L15 37L15 38L16 38L16 39L17 39L17 40L18 40L18 39L17 39L17 36L18 36L18 35L19 35L19 36L20 36L20 35L21 35L21 36L22 36L22 35L23 35L23 31L22 31L22 28L20 28L20 25L21 25L21 24L22 24L22 23L24 23L24 22L22 22L22 21L21 21L21 22L20 22L20 21L19 21L19 20L18 20L18 21L17 21L17 20L16 20L16 23L15 23L15 22L13 22L13 21L14 21L14 20L13 20L13 19L16 19L16 18L15 18L15 17L17 17L17 16L19 16L19 17L21 17L21 15L22 15L22 17L23 17L23 16L24 16L24 17L25 17L25 16L26 16L26 15L24 15L24 14L25 14L25 13L26 13L26 11L25 11L25 13L24 13L24 10L23 10L23 12L22 12L22 11L21 11L21 12L19 12L19 11L17 11L17 12L16 12L16 10L15 10L15 12L14 12L14 13L13 13L13 15L12 15L12 14L11 14L11 12L12 12L12 11L14 11L14 8L13 8L13 7L14 7L14 3ZM17 3L17 4L15 4L15 9L17 9L17 10L18 10L18 9L19 9L19 10L22 10L22 9L20 9L20 8L18 8L18 6L17 6L17 4L18 4L18 3ZM20 4L20 6L19 6L19 7L20 7L20 6L21 6L21 8L22 8L22 6L23 6L23 4ZM21 5L21 6L22 6L22 5ZM26 5L26 6L27 6L27 8L28 8L28 6L27 6L27 5ZM16 6L16 8L17 8L17 6ZM6 9L6 10L7 10L7 9ZM35 9L35 11L37 11L37 10L36 10L36 9ZM15 12L15 13L14 13L14 15L13 15L13 18L14 18L14 17L15 17L15 16L14 16L14 15L16 15L16 16L17 16L17 15L19 15L19 16L20 16L20 15L21 15L21 14L22 14L22 15L23 15L23 14L24 14L24 13L22 13L22 12L21 12L21 14L20 14L20 13L19 13L19 12L17 12L17 14L15 14L15 13L16 13L16 12ZM28 12L28 13L29 13L29 12ZM33 12L33 13L34 13L34 12ZM18 13L18 14L19 14L19 13ZM0 14L0 15L1 15L1 14ZM6 14L6 15L7 15L7 16L5 16L5 17L8 17L8 18L9 18L9 16L8 16L8 15L10 15L10 16L12 16L12 15L11 15L11 14L8 14L8 15L7 15L7 14ZM36 16L36 17L37 17L37 16ZM1 17L1 18L2 18L2 17ZM11 17L11 19L12 19L12 17ZM17 18L17 19L19 19L19 18ZM24 18L24 19L25 19L25 18ZM37 20L37 21L38 21L38 20ZM40 20L40 21L41 21L41 20ZM11 21L11 23L10 23L10 22L9 22L9 23L8 23L8 24L9 24L9 23L10 23L10 24L11 24L11 23L13 23L13 24L14 24L14 23L13 23L13 22L12 22L12 21ZM18 21L18 22L17 22L17 23L16 23L16 24L17 24L17 25L15 25L15 26L16 26L16 30L17 30L17 31L18 31L18 30L19 30L19 33L20 33L20 34L21 34L21 35L22 35L22 33L21 33L21 32L22 32L22 31L21 31L21 32L20 32L20 30L21 30L21 29L20 29L20 28L19 28L19 25L20 25L20 24L21 24L21 23L22 23L22 22L21 22L21 23L20 23L20 22L19 22L19 21ZM35 21L35 22L36 22L36 21ZM18 22L18 24L20 24L20 23L19 23L19 22ZM6 24L6 25L7 25L7 24ZM25 24L25 25L24 25L24 26L25 26L25 25L26 25L26 24ZM28 24L28 25L29 25L29 24ZM30 24L30 25L31 25L31 24ZM32 25L32 26L33 26L33 25ZM17 26L17 28L18 28L18 26ZM0 27L0 28L2 28L2 27ZM6 27L6 28L7 28L7 29L5 29L5 32L8 32L8 33L9 33L9 32L8 32L8 31L9 31L9 30L8 30L8 28L7 28L7 27ZM12 27L12 28L13 28L13 27ZM0 29L0 33L1 33L1 30L2 30L2 29ZM17 29L17 30L18 30L18 29ZM19 29L19 30L20 30L20 29ZM35 29L35 30L34 30L34 31L35 31L35 30L37 30L37 29ZM38 29L38 30L39 30L39 31L40 31L40 30L41 30L41 29ZM6 30L6 31L8 31L8 30ZM24 31L24 34L25 34L25 36L24 36L24 37L22 37L22 38L24 38L24 37L25 37L25 38L28 38L28 37L25 37L25 36L27 36L27 34L28 34L28 35L29 35L29 33L27 33L27 32L25 32L25 31ZM17 32L17 33L18 33L18 32ZM25 33L25 34L26 34L26 33ZM30 33L30 35L31 35L31 33ZM33 33L33 36L36 36L36 33ZM38 33L38 34L37 34L37 36L39 36L39 35L38 35L38 34L39 34L39 33ZM34 34L34 35L35 35L35 34ZM15 35L15 36L17 36L17 35ZM37 38L37 39L38 39L38 38ZM29 40L29 41L30 41L30 40ZM0 0L0 7L7 7L7 0ZM1 1L1 6L6 6L6 1ZM2 2L2 5L5 5L5 2ZM34 0L34 7L41 7L41 0ZM35 1L35 6L40 6L40 1ZM36 2L36 5L39 5L39 2ZM0 34L0 41L7 41L7 34ZM1 35L1 40L6 40L6 35ZM2 36L2 39L5 39L5 36Z" fill="#000000"/></g></g></svg>
