<?xml version="1.0" encoding="UTF-8"?>
<svg xmlns="http://www.w3.org/2000/svg" version="1.1" width="200" height="200" viewBox="0 0 200 200"><rect x="0" y="0" width="200" height="200" fill="#ffffff"/><g transform="scale(4.878)"><g transform="translate(0,0)"><path fill-rule="evenodd" d="M9 0L9 1L8 1L8 7L9 7L9 5L10 5L10 7L11 7L11 8L5 8L5 9L7 9L7 10L6 10L6 11L5 11L5 10L4 10L4 9L3 9L3 8L2 8L2 9L0 9L0 11L1 11L1 12L0 12L0 13L2 13L2 9L3 9L3 11L5 11L5 12L6 12L6 13L7 13L7 14L6 14L6 15L4 15L4 14L5 14L5 13L4 13L4 12L3 12L3 14L1 14L1 15L3 15L3 16L2 16L2 19L1 19L1 23L2 23L2 19L3 19L3 16L6 16L6 17L7 17L7 18L6 18L6 19L8 19L8 22L5 22L5 21L7 21L7 20L5 20L5 18L4 18L4 24L1 24L1 25L0 25L0 27L1 27L1 29L3 29L3 31L2 31L2 30L0 30L0 31L2 31L2 32L0 32L0 33L2 33L2 32L3 32L3 33L4 33L4 32L6 32L6 33L7 33L7 32L8 32L8 36L9 36L9 37L10 37L10 38L11 38L11 39L9 39L9 38L8 38L8 39L9 39L9 40L10 40L10 41L11 41L11 39L12 39L12 38L13 38L13 36L15 36L15 34L16 34L16 33L15 33L15 32L14 32L14 29L13 29L13 32L12 32L12 28L11 28L11 29L10 29L10 30L11 30L11 31L9 31L9 29L8 29L8 31L7 31L7 30L6 30L6 31L5 31L5 29L7 29L7 28L5 28L5 26L6 26L6 27L7 27L7 26L6 26L6 25L7 25L7 24L8 24L8 25L9 25L9 26L10 26L10 25L11 25L11 26L13 26L13 28L16 28L16 29L15 29L15 30L16 30L16 32L18 32L18 33L20 33L20 34L23 34L23 33L25 33L25 34L26 34L26 35L23 35L23 36L24 36L24 37L27 37L27 39L26 39L26 38L25 38L25 40L26 40L26 41L27 41L27 39L28 39L28 38L29 38L29 39L30 39L30 41L31 41L31 38L29 38L29 37L30 37L30 35L28 35L28 34L32 34L32 36L31 36L31 37L32 37L32 41L36 41L36 40L37 40L37 41L39 41L39 39L41 39L41 32L40 32L40 31L41 31L41 25L39 25L39 24L37 24L37 26L36 26L36 24L35 24L35 20L36 20L36 21L38 21L38 19L36 19L36 18L35 18L35 16L36 16L36 14L33 14L33 17L34 17L34 18L35 18L35 20L34 20L34 19L33 19L33 18L32 18L32 16L31 16L31 18L28 18L28 17L29 17L29 10L28 10L28 8L29 8L29 6L30 6L30 7L31 7L31 1L29 1L29 0L28 0L28 2L27 2L27 4L28 4L28 2L30 2L30 4L29 4L29 6L28 6L28 8L27 8L27 6L26 6L26 4L25 4L25 6L24 6L24 7L25 7L25 6L26 6L26 8L27 8L27 9L25 9L25 8L21 8L21 9L20 9L20 7L21 7L21 5L22 5L22 4L24 4L24 3L26 3L26 2L25 2L25 1L26 1L26 0L25 0L25 1L23 1L23 0L22 0L22 1L20 1L20 2L19 2L19 1L18 1L18 0L17 0L17 2L19 2L19 3L18 3L18 5L17 5L17 3L16 3L16 4L15 4L15 2L16 2L16 1L15 1L15 0L14 0L14 2L12 2L12 4L13 4L13 5L16 5L16 7L15 7L15 6L14 6L14 7L13 7L13 6L12 6L12 5L11 5L11 1L12 1L12 0ZM32 0L32 1L33 1L33 0ZM9 1L9 4L10 4L10 1ZM22 1L22 3L24 3L24 2L23 2L23 1ZM13 3L13 4L14 4L14 3ZM19 3L19 5L18 5L18 6L17 6L17 10L16 10L16 9L15 9L15 7L14 7L14 8L13 8L13 7L12 7L12 6L11 6L11 7L12 7L12 8L11 8L11 9L14 9L14 10L16 10L16 11L18 11L18 12L20 12L20 13L21 13L21 14L22 14L22 15L23 15L23 14L24 14L24 10L19 10L19 7L20 7L20 6L19 6L19 5L21 5L21 4L20 4L20 3ZM32 3L32 5L33 5L33 3ZM18 6L18 7L19 7L19 6ZM22 6L22 7L23 7L23 6ZM32 6L32 7L33 7L33 6ZM33 8L33 10L35 10L35 9L39 9L39 12L38 12L38 11L37 11L37 10L36 10L36 11L37 11L37 13L38 13L38 14L37 14L37 15L39 15L39 16L40 16L40 15L41 15L41 9L40 9L40 8L35 8L35 9L34 9L34 8ZM8 9L8 10L9 10L9 11L6 11L6 12L7 12L7 13L8 13L8 12L9 12L9 11L11 11L11 12L10 12L10 13L13 13L13 14L12 14L12 15L11 15L11 14L8 14L8 18L11 18L11 19L10 19L10 20L9 20L9 22L8 22L8 23L10 23L10 24L12 24L12 23L13 23L13 26L15 26L15 25L16 25L16 26L17 26L17 27L16 27L16 28L17 28L17 29L18 29L18 30L17 30L17 31L18 31L18 30L19 30L19 32L22 32L22 33L23 33L23 31L24 31L24 32L26 32L26 31L25 31L25 30L23 30L23 31L22 31L22 29L27 29L27 30L28 30L28 31L27 31L27 32L29 32L29 33L30 33L30 32L31 32L31 33L32 33L32 32L31 32L31 31L32 31L32 29L31 29L31 30L30 30L30 27L31 27L31 24L33 24L33 26L34 26L34 22L33 22L33 19L32 19L32 23L30 23L30 21L29 21L29 20L30 20L30 19L29 19L29 20L28 20L28 24L29 24L29 25L30 25L30 27L29 27L29 26L28 26L28 27L26 27L26 26L27 26L27 25L26 25L26 24L27 24L27 18L25 18L25 17L28 17L28 16L26 16L26 15L28 15L28 13L27 13L27 11L25 11L25 13L26 13L26 15L24 15L24 18L25 18L25 19L26 19L26 23L25 23L25 20L24 20L24 19L22 19L22 21L21 21L21 20L18 20L18 19L20 19L20 18L23 18L23 17L22 17L22 16L21 16L21 17L20 17L20 15L19 15L19 14L18 14L18 15L17 15L17 12L16 12L16 13L15 13L15 12L14 12L14 13L13 13L13 12L12 12L12 11L13 11L13 10L12 10L12 11L11 11L11 10L9 10L9 9ZM31 9L31 11L32 11L32 12L30 12L30 13L32 13L32 12L33 12L33 11L32 11L32 9ZM18 10L18 11L19 11L19 10ZM34 11L34 12L35 12L35 13L36 13L36 12L35 12L35 11ZM21 12L21 13L22 13L22 14L23 14L23 12ZM39 12L39 13L40 13L40 12ZM14 13L14 14L13 14L13 15L12 15L12 17L11 17L11 18L12 18L12 19L11 19L11 20L10 20L10 22L14 22L14 24L15 24L15 23L16 23L16 24L18 24L18 25L19 25L19 26L18 26L18 27L17 27L17 28L18 28L18 29L19 29L19 30L20 30L20 28L21 28L21 29L22 29L22 28L25 28L25 26L26 26L26 25L25 25L25 24L24 24L24 20L23 20L23 25L22 25L22 22L21 22L21 21L20 21L20 22L17 22L17 23L16 23L16 22L14 22L14 21L15 21L15 20L13 20L13 18L12 18L12 17L14 17L14 18L15 18L15 19L16 19L16 20L17 20L17 21L18 21L18 20L17 20L17 19L16 19L16 18L18 18L18 17L19 17L19 15L18 15L18 16L17 16L17 15L15 15L15 16L13 16L13 15L14 15L14 14L15 14L15 13ZM30 14L30 15L32 15L32 14ZM6 15L6 16L7 16L7 15ZM34 15L34 16L35 16L35 15ZM9 16L9 17L10 17L10 16ZM15 16L15 18L16 18L16 17L17 17L17 16ZM0 17L0 18L1 18L1 17ZM39 17L39 20L40 20L40 19L41 19L41 17ZM39 21L39 22L38 22L38 23L39 23L39 22L40 22L40 24L41 24L41 22L40 22L40 21ZM20 22L20 23L21 23L21 22ZM36 22L36 23L37 23L37 22ZM5 23L5 25L3 25L3 26L1 26L1 27L2 27L2 28L3 28L3 29L5 29L5 28L4 28L4 26L5 26L5 25L6 25L6 24L7 24L7 23ZM18 23L18 24L19 24L19 25L20 25L20 26L19 26L19 27L18 27L18 28L19 28L19 27L23 27L23 26L25 26L25 25L23 25L23 26L22 26L22 25L20 25L20 24L19 24L19 23ZM37 26L37 27L36 27L36 30L40 30L40 27L38 27L38 26ZM8 27L8 28L9 28L9 27ZM28 27L28 28L27 28L27 29L28 29L28 28L29 28L29 27ZM32 27L32 28L33 28L33 27ZM34 27L34 28L35 28L35 27ZM37 27L37 29L39 29L39 28L38 28L38 27ZM34 29L34 30L33 30L33 31L34 31L34 32L37 32L37 33L38 33L38 35L37 35L37 37L33 37L33 39L34 39L34 40L35 40L35 39L36 39L36 38L37 38L37 37L39 37L39 38L38 38L38 39L39 39L39 38L40 38L40 37L39 37L39 34L40 34L40 32L39 32L39 31L35 31L35 29ZM29 30L29 31L30 31L30 30ZM3 31L3 32L4 32L4 31ZM6 31L6 32L7 32L7 31ZM9 32L9 33L10 33L10 34L9 34L9 36L10 36L10 37L11 37L11 38L12 38L12 36L13 36L13 35L14 35L14 34L15 34L15 33L14 33L14 32L13 32L13 35L12 35L12 34L11 34L11 32ZM26 33L26 34L27 34L27 33ZM33 33L33 36L36 36L36 33ZM10 34L10 36L11 36L11 34ZM17 34L17 35L18 35L18 36L19 36L19 39L22 39L22 40L21 40L21 41L24 41L24 40L23 40L23 39L22 39L22 37L21 37L21 36L22 36L22 35L20 35L20 36L19 36L19 35L18 35L18 34ZM34 34L34 35L35 35L35 34ZM26 35L26 36L27 36L27 35ZM16 36L16 38L17 38L17 39L16 39L16 41L17 41L17 39L18 39L18 37L17 37L17 36ZM20 37L20 38L21 38L21 37ZM14 39L14 40L15 40L15 39ZM18 40L18 41L20 41L20 40ZM40 40L40 41L41 41L41 40ZM0 0L0 7L7 7L7 0ZM1 1L1 6L6 6L6 1ZM2 2L2 5L5 5L5 2ZM34 0L34 7L41 7L41 0ZM35 1L35 6L40 6L40 1ZM36 2L36 5L39 5L39 2ZM0 34L0 41L7 41L7 34ZM1 35L1 40L6 40L6 35ZM2 36L2 39L5 39L5 36Z" fill="#000000"/></g></g></svg>
