<?xml version="1.0" encoding="UTF-8"?>
<svg xmlns="http://www.w3.org/2000/svg" version="1.1" width="200" height="200" viewBox="0 0 200 200"><rect x="0" y="0" width="200" height="200" fill="#ffffff"/><g transform="scale(4.878)"><g transform="translate(0,0)"><path fill-rule="evenodd" d="M8 0L8 3L9 3L9 5L8 5L8 9L9 9L9 8L10 8L10 10L9 10L9 11L10 11L10 12L9 12L9 13L10 13L10 12L11 12L11 11L12 11L12 12L13 12L13 13L11 13L11 15L9 15L9 14L8 14L8 15L7 15L7 14L6 14L6 13L7 13L7 12L8 12L8 11L7 11L7 10L5 10L5 11L4 11L4 13L5 13L5 15L4 15L4 16L2 16L2 18L1 18L1 19L0 19L0 20L2 20L2 18L3 18L3 17L4 17L4 18L5 18L5 17L8 17L8 16L11 16L11 17L10 17L10 18L8 18L8 19L11 19L11 21L12 21L12 19L13 19L13 21L14 21L14 23L13 23L13 24L15 24L15 25L14 25L14 27L13 27L13 26L12 26L12 22L11 22L11 23L9 23L9 20L8 20L8 22L6 22L6 23L5 23L5 24L3 24L3 23L4 23L4 22L5 22L5 20L6 20L6 21L7 21L7 20L6 20L6 19L7 19L7 18L6 18L6 19L5 19L5 20L4 20L4 21L3 21L3 22L2 22L2 21L1 21L1 23L2 23L2 24L3 24L3 25L4 25L4 26L3 26L3 27L1 27L1 29L0 29L0 33L1 33L1 29L2 29L2 33L3 33L3 32L4 32L4 33L5 33L5 32L6 32L6 33L7 33L7 32L8 32L8 34L9 34L9 35L10 35L10 37L9 37L9 36L8 36L8 39L9 39L9 41L10 41L10 39L11 39L11 41L12 41L12 39L13 39L13 38L16 38L16 39L15 39L15 41L16 41L16 40L17 40L17 41L18 41L18 40L17 40L17 38L18 38L18 37L19 37L19 36L20 36L20 35L21 35L21 37L20 37L20 38L21 38L21 37L22 37L22 38L23 38L23 37L22 37L22 36L23 36L23 35L24 35L24 36L25 36L25 35L26 35L26 36L27 36L27 37L28 37L28 38L26 38L26 39L25 39L25 37L24 37L24 39L25 39L25 40L22 40L22 39L19 39L19 41L21 41L21 40L22 40L22 41L25 41L25 40L26 40L26 41L28 41L28 39L30 39L30 40L29 40L29 41L30 41L30 40L33 40L33 41L34 41L34 40L33 40L33 39L31 39L31 37L30 37L30 38L29 38L29 37L28 37L28 34L29 34L29 36L31 36L31 35L32 35L32 38L34 38L34 39L35 39L35 40L36 40L36 39L37 39L37 40L40 40L40 38L41 38L41 37L39 37L39 36L37 36L37 32L38 32L38 33L39 33L39 34L38 34L38 35L40 35L40 34L41 34L41 32L40 32L40 30L41 30L41 29L40 29L40 28L41 28L41 27L40 27L40 26L41 26L41 23L39 23L39 24L40 24L40 26L39 26L39 25L34 25L34 23L36 23L36 24L37 24L37 23L38 23L38 21L39 21L39 20L38 20L38 17L39 17L39 16L37 16L37 14L38 14L38 13L36 13L36 14L35 14L35 17L34 17L34 16L32 16L32 17L31 17L31 16L29 16L29 15L28 15L28 16L29 16L29 17L31 17L31 18L30 18L30 19L31 19L31 20L30 20L30 21L28 21L28 20L29 20L29 19L28 19L28 18L27 18L27 19L26 19L26 18L23 18L23 14L24 14L24 17L25 17L25 15L26 15L26 14L29 14L29 13L30 13L30 15L31 15L31 12L32 12L32 13L33 13L33 14L32 14L32 15L34 15L34 13L35 13L35 12L38 12L38 11L39 11L39 13L40 13L40 14L39 14L39 15L40 15L40 14L41 14L41 13L40 13L40 10L41 10L41 8L38 8L38 9L40 9L40 10L37 10L37 9L36 9L36 8L33 8L33 5L32 5L32 4L33 4L33 3L32 3L32 4L30 4L30 5L32 5L32 9L31 9L31 8L29 8L29 5L27 5L27 4L26 4L26 5L25 5L25 6L24 6L24 8L23 8L23 9L25 9L25 10L20 10L20 12L21 12L21 13L19 13L19 12L18 12L18 9L21 9L21 8L22 8L22 7L23 7L23 5L22 5L22 3L23 3L23 2L21 2L21 0L19 0L19 2L18 2L18 1L16 1L16 2L15 2L15 0L13 0L13 1L12 1L12 0L11 0L11 1L12 1L12 3L11 3L11 4L10 4L10 2L9 2L9 0ZM24 0L24 1L25 1L25 0ZM26 0L26 1L27 1L27 2L26 2L26 3L28 3L28 4L29 4L29 3L31 3L31 2L30 2L30 1L33 1L33 0L29 0L29 1L27 1L27 0ZM13 2L13 5L12 5L12 6L11 6L11 5L10 5L10 6L9 6L9 7L10 7L10 6L11 6L11 7L12 7L12 8L11 8L11 9L13 9L13 10L12 10L12 11L13 11L13 12L14 12L14 11L15 11L15 13L13 13L13 14L14 14L14 15L15 15L15 13L16 13L16 14L17 14L17 15L18 15L18 16L19 16L19 17L20 17L20 16L22 16L22 15L20 15L20 14L17 14L17 13L16 13L16 11L17 11L17 10L16 10L16 9L15 9L15 8L16 8L16 6L17 6L17 8L20 8L20 6L21 6L21 7L22 7L22 5L19 5L19 3L18 3L18 2L17 2L17 3L16 3L16 4L17 4L17 5L16 5L16 6L15 6L15 5L14 5L14 4L15 4L15 2ZM24 2L24 3L25 3L25 2ZM17 3L17 4L18 4L18 3ZM20 3L20 4L21 4L21 3ZM26 5L26 6L25 6L25 7L26 7L26 6L27 6L27 7L28 7L28 6L27 6L27 5ZM12 6L12 7L13 7L13 6ZM14 6L14 7L15 7L15 6ZM18 6L18 7L19 7L19 6ZM30 6L30 7L31 7L31 6ZM2 8L2 9L1 9L1 11L0 11L0 14L1 14L1 13L2 13L2 12L3 12L3 10L2 10L2 9L5 9L5 8ZM6 8L6 9L7 9L7 8ZM13 8L13 9L14 9L14 8ZM25 8L25 9L26 9L26 10L25 10L25 12L28 12L28 13L29 13L29 12L31 12L31 11L32 11L32 12L33 12L33 13L34 13L34 12L33 12L33 11L34 11L34 9L32 9L32 10L31 10L31 9L26 9L26 8ZM35 9L35 10L36 10L36 9ZM26 10L26 11L28 11L28 10ZM32 10L32 11L33 11L33 10ZM1 11L1 12L2 12L2 11ZM5 11L5 13L6 13L6 12L7 12L7 11ZM21 11L21 12L22 12L22 13L23 13L23 12L24 12L24 11ZM24 13L24 14L25 14L25 13ZM6 15L6 16L7 16L7 15ZM19 15L19 16L20 16L20 15ZM0 16L0 17L1 17L1 16ZM4 16L4 17L5 17L5 16ZM14 16L14 20L15 20L15 21L16 21L16 20L17 20L17 21L18 21L18 22L19 22L19 23L18 23L18 24L16 24L16 25L15 25L15 27L16 27L16 28L13 28L13 27L12 27L12 26L11 26L11 27L8 27L8 29L6 29L6 28L7 28L7 27L6 27L6 26L7 26L7 25L5 25L5 27L4 27L4 28L3 28L3 31L4 31L4 30L5 30L5 31L6 31L6 32L7 32L7 31L6 31L6 30L8 30L8 29L9 29L9 28L10 28L10 30L12 30L12 31L9 31L9 32L10 32L10 33L9 33L9 34L12 34L12 35L11 35L11 39L12 39L12 38L13 38L13 37L14 37L14 36L15 36L15 37L16 37L16 38L17 38L17 37L18 37L18 36L17 36L17 37L16 37L16 36L15 36L15 35L17 35L17 34L19 34L19 35L20 35L20 34L22 34L22 35L23 35L23 34L22 34L22 33L24 33L24 32L25 32L25 33L26 33L26 31L25 31L25 30L23 30L23 31L22 31L22 29L23 29L23 28L22 28L22 25L24 25L24 26L23 26L23 27L26 27L26 25L25 25L25 24L24 24L24 20L23 20L23 19L22 19L22 17L21 17L21 18L18 18L18 17L17 17L17 16ZM36 16L36 17L35 17L35 19L34 19L34 18L33 18L33 17L32 17L32 18L31 18L31 19L32 19L32 20L31 20L31 21L30 21L30 22L28 22L28 21L27 21L27 20L28 20L28 19L27 19L27 20L26 20L26 19L25 19L25 22L26 22L26 24L27 24L27 22L28 22L28 23L29 23L29 24L28 24L28 25L27 25L27 26L28 26L28 25L29 25L29 24L30 24L30 25L32 25L32 26L29 26L29 27L27 27L27 28L30 28L30 29L28 29L28 30L30 30L30 29L31 29L31 30L32 30L32 31L33 31L33 32L36 32L36 31L37 31L37 30L38 30L38 32L39 32L39 28L40 28L40 27L39 27L39 26L38 26L38 28L35 28L35 27L37 27L37 26L34 26L34 25L32 25L32 24L33 24L33 23L32 23L32 22L34 22L34 21L35 21L35 22L36 22L36 21L35 21L35 19L36 19L36 20L37 20L37 21L38 21L38 20L37 20L37 18L36 18L36 17L37 17L37 16ZM40 16L40 18L39 18L39 19L40 19L40 18L41 18L41 16ZM11 17L11 18L12 18L12 17ZM16 17L16 18L15 18L15 20L16 20L16 18L17 18L17 19L18 19L18 18L17 18L17 17ZM32 18L32 19L33 19L33 18ZM20 20L20 21L19 21L19 22L21 22L21 23L20 23L20 25L19 25L19 24L18 24L18 25L17 25L17 26L16 26L16 27L18 27L18 25L19 25L19 26L21 26L21 25L22 25L22 24L23 24L23 23L22 23L22 22L23 22L23 21L21 21L21 20ZM32 20L32 21L31 21L31 22L30 22L30 24L32 24L32 23L31 23L31 22L32 22L32 21L34 21L34 20ZM40 20L40 21L41 21L41 20ZM26 21L26 22L27 22L27 21ZM16 22L16 23L17 23L17 22ZM6 23L6 24L7 24L7 23ZM0 24L0 25L1 25L1 26L2 26L2 25L1 25L1 24ZM9 24L9 25L8 25L8 26L9 26L9 25L11 25L11 24ZM32 26L32 27L34 27L34 26ZM11 27L11 28L12 28L12 30L13 30L13 31L12 31L12 33L13 33L13 34L17 34L17 33L15 33L15 32L18 32L18 31L19 31L19 30L21 30L21 29L22 29L22 28L21 28L21 27L20 27L20 28L21 28L21 29L18 29L18 28L16 28L16 29L15 29L15 30L13 30L13 28L12 28L12 27ZM24 28L24 29L25 29L25 28ZM31 28L31 29L32 29L32 30L33 30L33 29L34 29L34 28L33 28L33 29L32 29L32 28ZM17 29L17 30L15 30L15 31L17 31L17 30L18 30L18 29ZM35 29L35 30L34 30L34 31L35 31L35 30L37 30L37 29ZM13 31L13 33L14 33L14 31ZM20 31L20 32L19 32L19 34L20 34L20 33L21 33L21 31ZM28 31L28 33L27 33L27 34L28 34L28 33L29 33L29 32L31 32L31 31ZM30 33L30 35L31 35L31 33ZM33 33L33 36L36 36L36 33ZM34 34L34 35L35 35L35 34ZM12 35L12 37L13 37L13 35ZM34 37L34 38L36 38L36 37ZM9 38L9 39L10 39L10 38ZM37 38L37 39L38 39L38 38ZM13 40L13 41L14 41L14 40ZM0 0L0 7L7 7L7 0ZM1 1L1 6L6 6L6 1ZM2 2L2 5L5 5L5 2ZM34 0L34 7L41 7L41 0ZM35 1L35 6L40 6L40 1ZM36 2L36 5L39 5L39 2ZM0 34L0 41L7 41L7 34ZM1 35L1 40L6 40L6 35ZM2 36L2 39L5 39L5 36Z" fill="#000000"/></g></g></svg>
