<?xml version="1.0" encoding="UTF-8"?>
<svg xmlns="http://www.w3.org/2000/svg" version="1.1" width="200" height="200" viewBox="0 0 200 200"><rect x="0" y="0" width="200" height="200" fill="#ffffff"/><g transform="scale(6.897)"><g transform="translate(0,0)"><path fill-rule="evenodd" d="M12 0L12 1L13 1L13 2L14 2L14 3L15 3L15 6L14 6L14 5L13 5L13 3L11 3L11 1L10 1L10 3L9 3L9 1L8 1L8 7L9 7L9 6L10 6L10 7L11 7L11 8L12 8L12 9L10 9L10 8L5 8L5 9L3 9L3 8L2 8L2 9L3 9L3 10L1 10L1 9L0 9L0 10L1 10L1 11L0 11L0 13L1 13L1 14L0 14L0 16L1 16L1 15L2 15L2 17L1 17L1 18L0 18L0 19L2 19L2 18L4 18L4 17L5 17L5 16L6 16L6 17L8 17L8 18L5 18L5 19L9 19L9 16L10 16L10 14L11 14L11 17L10 17L10 19L12 19L12 18L11 18L11 17L14 17L14 19L13 19L13 20L6 20L6 21L8 21L8 24L9 24L9 25L10 25L10 26L8 26L8 27L9 27L9 29L10 29L10 26L13 26L13 27L12 27L12 28L11 28L11 29L15 29L15 26L16 26L16 24L17 24L17 25L19 25L19 21L20 21L20 25L25 25L25 23L26 23L26 21L27 21L27 22L28 22L28 23L27 23L27 24L26 24L26 27L25 27L25 28L24 28L24 26L23 26L23 27L22 27L22 26L21 26L21 29L22 29L22 28L24 28L24 29L25 29L25 28L26 28L26 29L29 29L29 26L27 26L27 24L28 24L28 25L29 25L29 24L28 24L28 23L29 23L29 21L27 21L27 20L25 20L25 19L26 19L26 18L28 18L28 19L29 19L29 18L28 18L28 17L29 17L29 15L28 15L28 16L27 16L27 17L25 17L25 16L22 16L22 15L25 15L25 14L26 14L26 13L27 13L27 14L28 14L28 13L29 13L29 12L27 12L27 11L29 11L29 9L28 9L28 8L23 8L23 10L22 10L22 11L21 11L21 9L22 9L22 8L21 8L21 0L19 0L19 1L20 1L20 2L19 2L19 3L20 3L20 5L19 5L19 4L18 4L18 5L17 5L17 3L18 3L18 2L17 2L17 3L16 3L16 2L14 2L14 1L15 1L15 0L14 0L14 1L13 1L13 0ZM16 0L16 1L18 1L18 0ZM11 4L11 5L12 5L12 4ZM16 5L16 6L15 6L15 7L16 7L16 6L17 6L17 7L18 7L18 11L20 11L20 9L19 9L19 7L20 7L20 6L19 6L19 7L18 7L18 6L17 6L17 5ZM11 6L11 7L12 7L12 8L14 8L14 10L13 10L13 11L12 11L12 12L13 12L13 13L14 13L14 15L13 15L13 14L12 14L12 16L14 16L14 17L17 17L17 18L18 18L18 21L19 21L19 20L22 20L22 19L21 19L21 15L19 15L19 14L22 14L22 12L21 12L21 13L20 13L20 12L18 12L18 15L19 15L19 16L20 16L20 17L17 17L17 15L16 15L16 14L17 14L17 13L16 13L16 12L17 12L17 9L15 9L15 8L14 8L14 6L13 6L13 7L12 7L12 6ZM6 9L6 10L8 10L8 12L7 12L7 11L6 11L6 12L5 12L5 10L3 10L3 12L1 12L1 13L3 13L3 14L4 14L4 13L6 13L6 14L8 14L8 12L9 12L9 13L10 13L10 12L11 12L11 11L10 11L10 12L9 12L9 9ZM26 9L26 10L24 10L24 11L26 11L26 10L28 10L28 9ZM14 10L14 11L13 11L13 12L14 12L14 13L15 13L15 14L16 14L16 13L15 13L15 11L16 11L16 10ZM6 12L6 13L7 13L7 12ZM23 12L23 14L25 14L25 13L24 13L24 12ZM3 15L3 17L4 17L4 15ZM6 15L6 16L8 16L8 15ZM22 17L22 18L25 18L25 17ZM15 18L15 19L14 19L14 20L13 20L13 22L12 22L12 21L9 21L9 23L10 23L10 24L12 24L12 23L15 23L15 21L16 21L16 23L18 23L18 22L17 22L17 21L16 21L16 20L17 20L17 19L16 19L16 18ZM19 18L19 19L20 19L20 18ZM15 19L15 20L16 20L16 19ZM23 19L23 20L24 20L24 19ZM0 20L0 21L5 21L5 20ZM21 21L21 24L24 24L24 21ZM11 22L11 23L12 23L12 22ZM22 22L22 23L23 23L23 22ZM14 25L14 26L15 26L15 25ZM17 26L17 27L18 27L18 26ZM27 27L27 28L28 28L28 27ZM17 28L17 29L18 29L18 28ZM0 0L0 7L7 7L7 0ZM1 1L1 6L6 6L6 1ZM2 2L2 5L5 5L5 2ZM22 0L22 7L29 7L29 0ZM23 1L23 6L28 6L28 1ZM24 2L24 5L27 5L27 2ZM0 22L0 29L7 29L7 22ZM1 23L1 28L6 28L6 23ZM2 24L2 27L5 27L5 24Z" fill="#000000"/></g></g></svg>
