<?xml version="1.0" encoding="UTF-8"?>
<svg xmlns="http://www.w3.org/2000/svg" version="1.1" width="200" height="200" viewBox="0 0 200 200"><rect x="0" y="0" width="200" height="200" fill="#ffffff"/><g transform="scale(4.878)"><g transform="translate(0,0)"><path fill-rule="evenodd" d="M8 0L8 3L10 3L10 7L11 7L11 9L13 9L13 11L10 11L10 10L9 10L9 9L10 9L10 8L9 8L9 5L8 5L8 9L7 9L7 8L6 8L6 9L7 9L7 10L5 10L5 8L2 8L2 10L1 10L1 9L0 9L0 10L1 10L1 11L2 11L2 10L3 10L3 11L4 11L4 14L0 14L0 15L1 15L1 16L0 16L0 18L1 18L1 19L2 19L2 20L4 20L4 21L3 21L3 22L2 22L2 21L1 21L1 20L0 20L0 22L1 22L1 23L0 23L0 24L1 24L1 25L0 25L0 27L1 27L1 26L2 26L2 27L3 27L3 28L1 28L1 29L0 29L0 33L1 33L1 29L3 29L3 30L2 30L2 33L4 33L4 32L5 32L5 33L8 33L8 34L9 34L9 33L11 33L11 35L10 35L10 36L11 36L11 37L10 37L10 38L9 38L9 36L8 36L8 39L10 39L10 40L12 40L12 41L15 41L15 40L12 40L12 39L14 39L14 38L16 38L16 41L17 41L17 40L18 40L18 39L17 39L17 38L18 38L18 37L19 37L19 36L20 36L20 37L21 37L21 39L20 39L20 38L19 38L19 41L24 41L24 40L25 40L25 41L31 41L31 40L33 40L33 41L34 41L34 40L33 40L33 39L35 39L35 40L36 40L36 39L39 39L39 40L40 40L40 38L41 38L41 37L40 37L40 36L37 36L37 35L38 35L38 33L39 33L39 35L40 35L40 34L41 34L41 33L40 33L40 32L41 32L41 31L40 31L40 30L41 30L41 29L40 29L40 28L41 28L41 27L40 27L40 26L41 26L41 23L40 23L40 26L39 26L39 24L37 24L37 25L34 25L34 22L36 22L36 21L39 21L39 20L36 20L36 19L35 19L35 17L36 17L36 18L38 18L38 17L39 17L39 16L38 16L38 13L36 13L36 14L35 14L35 15L36 15L36 16L35 16L35 17L34 17L34 16L33 16L33 15L34 15L34 14L33 14L33 13L34 13L34 12L33 12L33 11L34 11L34 10L35 10L35 9L36 9L36 11L35 11L35 12L38 12L38 11L40 11L40 10L41 10L41 8L38 8L38 9L40 9L40 10L37 10L37 9L36 9L36 8L33 8L33 9L32 9L32 8L28 8L28 7L29 7L29 6L30 6L30 7L31 7L31 5L32 5L32 7L33 7L33 5L32 5L32 4L33 4L33 3L32 3L32 2L31 2L31 1L33 1L33 0L30 0L30 2L31 2L31 3L30 3L30 4L31 4L31 5L29 5L29 4L28 4L28 5L26 5L26 4L27 4L27 3L29 3L29 1L27 1L27 0L24 0L24 1L25 1L25 2L23 2L23 4L22 4L22 5L21 5L21 2L22 2L22 1L20 1L20 0L18 0L18 1L19 1L19 2L18 2L18 3L20 3L20 4L19 4L19 6L18 6L18 5L16 5L16 4L15 4L15 3L16 3L16 2L15 2L15 1L16 1L16 0L15 0L15 1L12 1L12 0L11 0L11 2L10 2L10 0ZM11 2L11 4L14 4L14 3L15 3L15 2ZM26 2L26 3L24 3L24 4L23 4L23 8L21 8L21 7L22 7L22 6L21 6L21 5L20 5L20 6L19 6L19 7L20 7L20 8L19 8L19 10L17 10L17 11L16 11L16 10L15 10L15 9L17 9L17 8L18 8L18 6L17 6L17 7L16 7L16 6L15 6L15 5L13 5L13 7L12 7L12 6L11 6L11 7L12 7L12 8L13 8L13 7L14 7L14 8L15 8L15 9L14 9L14 10L15 10L15 12L12 12L12 13L9 13L9 14L7 14L7 13L6 13L6 14L5 14L5 15L4 15L4 17L1 17L1 18L2 18L2 19L3 19L3 18L5 18L5 17L6 17L6 18L7 18L7 17L6 17L6 16L10 16L10 14L11 14L11 15L12 15L12 19L11 19L11 20L8 20L8 19L10 19L10 17L8 17L8 19L6 19L6 20L5 20L5 19L4 19L4 20L5 20L5 21L6 21L6 22L4 22L4 23L5 23L5 24L2 24L2 25L3 25L3 27L4 27L4 25L5 25L5 24L7 24L7 25L6 25L6 26L5 26L5 27L6 27L6 28L9 28L9 29L8 29L8 30L9 30L9 29L10 29L10 30L11 30L11 31L10 31L10 32L11 32L11 33L13 33L13 34L12 34L12 37L13 37L13 36L14 36L14 37L15 37L15 36L16 36L16 38L17 38L17 37L18 37L18 36L19 36L19 34L18 34L18 35L17 35L17 34L16 34L16 33L22 33L22 30L21 30L21 32L17 32L17 31L16 31L16 33L13 33L13 32L14 32L14 31L15 31L15 30L16 30L16 29L17 29L17 30L18 30L18 31L20 31L20 29L19 29L19 28L20 28L20 26L19 26L19 25L21 25L21 24L19 24L19 23L21 23L21 22L24 22L24 20L25 20L25 19L26 19L26 18L29 18L29 16L30 16L30 17L31 17L31 15L28 15L28 17L26 17L26 16L27 16L27 14L25 14L25 17L26 17L26 18L24 18L24 16L23 16L23 15L22 15L22 14L23 14L23 13L22 13L22 12L23 12L23 8L24 8L24 6L25 6L25 8L26 8L26 5L24 5L24 4L26 4L26 3L27 3L27 2ZM31 3L31 4L32 4L32 3ZM14 6L14 7L15 7L15 6ZM20 6L20 7L21 7L21 6ZM27 6L27 7L28 7L28 6ZM27 8L27 10L26 10L26 9L25 9L25 10L24 10L24 12L25 12L25 13L28 13L28 14L30 14L30 13L28 13L28 12L31 12L31 14L32 14L32 15L33 15L33 14L32 14L32 13L33 13L33 12L32 12L32 10L31 10L31 9L28 9L28 8ZM3 9L3 10L4 10L4 11L5 11L5 12L9 12L9 11L8 11L8 10L7 10L7 11L5 11L5 10L4 10L4 9ZM20 9L20 12L22 12L22 10L21 10L21 9ZM33 9L33 10L34 10L34 9ZM25 10L25 11L26 11L26 12L28 12L28 10L27 10L27 11L26 11L26 10ZM18 11L18 12L17 12L17 13L16 13L16 12L15 12L15 13L14 13L14 14L12 14L12 15L16 15L16 16L13 16L13 18L14 18L14 17L15 17L15 19L17 19L17 18L18 18L18 21L19 21L19 22L18 22L18 23L16 23L16 22L17 22L17 20L16 20L16 21L15 21L15 20L14 20L14 19L12 19L12 20L11 20L11 21L9 21L9 23L10 23L10 24L9 24L9 25L10 25L10 24L11 24L11 25L12 25L12 26L11 26L11 27L10 27L10 26L9 26L9 28L11 28L11 29L14 29L14 30L15 30L15 28L17 28L17 29L18 29L18 28L17 28L17 27L18 27L18 26L17 26L17 27L16 27L16 26L13 26L13 24L14 24L14 25L15 25L15 24L14 24L14 21L15 21L15 23L16 23L16 24L18 24L18 23L19 23L19 22L20 22L20 20L22 20L22 21L23 21L23 20L24 20L24 19L23 19L23 20L22 20L22 19L20 19L20 18L18 18L18 17L19 17L19 16L18 16L18 15L16 15L16 14L17 14L17 13L18 13L18 12L19 12L19 11ZM0 12L0 13L1 13L1 12ZM2 12L2 13L3 13L3 12ZM15 13L15 14L16 14L16 13ZM19 13L19 15L21 15L21 14L22 14L22 13ZM39 13L39 14L41 14L41 13ZM6 14L6 15L5 15L5 16L6 16L6 15L7 15L7 14ZM36 14L36 15L37 15L37 14ZM2 15L2 16L3 16L3 15ZM16 16L16 18L17 18L17 16ZM36 16L36 17L38 17L38 16ZM40 16L40 18L39 18L39 19L40 19L40 18L41 18L41 16ZM21 17L21 18L22 18L22 17ZM32 17L32 18L30 18L30 19L31 19L31 20L29 20L29 19L28 19L28 20L29 20L29 21L27 21L27 20L26 20L26 21L25 21L25 23L22 23L22 25L23 25L23 26L25 26L25 25L26 25L26 24L25 24L25 23L26 23L26 22L28 22L28 23L29 23L29 24L30 24L30 25L32 25L32 26L29 26L29 25L27 25L27 26L26 26L26 27L27 27L27 28L28 28L28 29L29 29L29 30L27 30L27 29L24 29L24 30L23 30L23 31L24 31L24 32L23 32L23 33L24 33L24 32L25 32L25 31L27 31L27 32L26 32L26 33L25 33L25 37L24 37L24 36L23 36L23 37L22 37L22 38L23 38L23 40L24 40L24 38L26 38L26 37L27 37L27 38L28 38L28 37L29 37L29 39L28 39L28 40L31 40L31 39L33 39L33 38L36 38L36 37L32 37L32 35L30 35L30 34L31 34L31 33L32 33L32 32L40 32L40 31L39 31L39 28L40 28L40 27L39 27L39 26L38 26L38 28L37 28L37 27L35 27L35 29L34 29L34 28L33 28L33 29L32 29L32 26L33 26L33 27L34 27L34 25L32 25L32 24L31 24L31 23L32 23L32 22L34 22L34 21L36 21L36 20L35 20L35 19L34 19L34 18L33 18L33 17ZM32 19L32 21L30 21L30 22L32 22L32 21L34 21L34 20L33 20L33 19ZM6 20L6 21L7 21L7 20ZM12 20L12 21L11 21L11 24L12 24L12 23L13 23L13 22L12 22L12 21L14 21L14 20ZM40 20L40 21L41 21L41 20ZM6 22L6 23L7 23L7 24L8 24L8 22ZM35 23L35 24L36 24L36 23ZM24 24L24 25L25 25L25 24ZM6 26L6 27L7 27L7 26ZM12 26L12 27L13 27L13 26ZM27 26L27 27L28 27L28 28L29 28L29 29L30 29L30 30L29 30L29 31L28 31L28 33L31 33L31 32L29 32L29 31L31 31L31 29L30 29L30 28L29 28L29 27L28 27L28 26ZM14 27L14 28L15 28L15 27ZM24 27L24 28L25 28L25 27ZM3 28L3 29L4 29L4 28ZM22 28L22 29L23 29L23 28ZM5 29L5 30L3 30L3 31L6 31L6 32L8 32L8 33L9 33L9 32L8 32L8 31L6 31L6 30L7 30L7 29ZM33 29L33 30L32 30L32 31L33 31L33 30L34 30L34 31L37 31L37 30L38 30L38 29L35 29L35 30L34 30L34 29ZM12 30L12 31L11 31L11 32L12 32L12 31L13 31L13 30ZM24 30L24 31L25 31L25 30ZM26 33L26 35L28 35L28 34L27 34L27 33ZM33 33L33 36L36 36L36 33ZM14 34L14 35L16 35L16 36L17 36L17 35L16 35L16 34ZM21 34L21 35L22 35L22 34ZM34 34L34 35L35 35L35 34ZM27 36L27 37L28 37L28 36ZM30 36L30 37L31 37L31 38L30 38L30 39L31 39L31 38L32 38L32 37L31 37L31 36ZM37 37L37 38L39 38L39 37ZM10 38L10 39L12 39L12 38ZM26 39L26 40L27 40L27 39ZM0 0L0 7L7 7L7 0ZM1 1L1 6L6 6L6 1ZM2 2L2 5L5 5L5 2ZM34 0L34 7L41 7L41 0ZM35 1L35 6L40 6L40 1ZM36 2L36 5L39 5L39 2ZM0 34L0 41L7 41L7 34ZM1 35L1 40L6 40L6 35ZM2 36L2 39L5 39L5 36Z" fill="#000000"/></g></g></svg>
