<?xml version="1.0" encoding="UTF-8"?>
<svg xmlns="http://www.w3.org/2000/svg" version="1.1" width="200" height="200" viewBox="0 0 200 200"><rect x="0" y="0" width="200" height="200" fill="#ffffff"/><g transform="scale(4.878)"><g transform="translate(0,0)"><path fill-rule="evenodd" d="M8 0L8 3L10 3L10 2L11 2L11 1L10 1L10 0ZM12 0L12 1L13 1L13 2L12 2L12 3L11 3L11 4L10 4L10 7L11 7L11 8L12 8L12 10L13 10L13 11L11 11L11 10L10 10L10 9L9 9L9 5L8 5L8 9L7 9L7 8L6 8L6 9L7 9L7 10L5 10L5 8L2 8L2 10L5 10L5 11L7 11L7 10L8 10L8 12L4 12L4 11L1 11L1 9L0 9L0 11L1 11L1 12L3 12L3 13L1 13L1 15L0 15L0 19L2 19L2 20L1 20L1 21L0 21L0 22L1 22L1 24L0 24L0 25L1 25L1 29L0 29L0 33L1 33L1 29L2 29L2 32L4 32L4 31L5 31L5 33L8 33L8 34L12 34L12 35L11 35L11 38L14 38L14 40L15 40L15 36L16 36L16 40L17 40L17 41L19 41L19 40L20 40L20 41L21 41L21 40L20 40L20 39L19 39L19 37L20 37L20 38L21 38L21 39L22 39L22 40L23 40L23 41L24 41L24 40L25 40L25 41L27 41L27 40L28 40L28 39L29 39L29 37L28 37L28 35L29 35L29 36L31 36L31 35L32 35L32 37L30 37L30 39L32 39L32 40L31 40L31 41L32 41L32 40L33 40L33 41L34 41L34 40L33 40L33 39L32 39L32 37L33 37L33 38L34 38L34 39L35 39L35 40L36 40L36 39L37 39L37 40L40 40L40 38L41 38L41 36L40 36L40 34L41 34L41 33L39 33L39 32L40 32L40 30L41 30L41 28L39 28L39 30L38 30L38 31L39 31L39 32L37 32L37 29L35 29L35 30L34 30L34 31L35 31L35 30L36 30L36 32L33 32L33 31L32 31L32 30L33 30L33 29L34 29L34 28L33 28L33 27L34 27L34 26L35 26L35 28L38 28L38 26L39 26L39 27L40 27L40 26L41 26L41 23L39 23L39 24L40 24L40 26L39 26L39 25L36 25L36 24L37 24L37 21L38 21L38 22L39 22L39 20L36 20L36 19L35 19L35 17L36 17L36 18L37 18L37 17L39 17L39 16L37 16L37 15L40 15L40 14L41 14L41 12L39 12L39 13L40 13L40 14L38 14L38 13L36 13L36 14L35 14L35 15L36 15L36 16L35 16L35 17L34 17L34 16L33 16L33 17L30 17L30 16L31 16L31 13L33 13L33 14L32 14L32 15L34 15L34 13L35 13L35 11L36 11L36 12L38 12L38 11L40 11L40 10L41 10L41 8L38 8L38 9L40 9L40 10L37 10L37 9L36 9L36 8L33 8L33 5L32 5L32 4L33 4L33 2L30 2L30 1L33 1L33 0L29 0L29 1L27 1L27 0L26 0L26 1L27 1L27 2L26 2L26 3L28 3L28 4L29 4L29 3L32 3L32 4L30 4L30 5L32 5L32 9L30 9L30 8L28 8L28 7L29 7L29 6L28 6L28 5L27 5L27 4L25 4L25 5L26 5L26 8L25 8L25 9L22 9L22 8L23 8L23 6L22 6L22 4L21 4L21 5L19 5L19 4L16 4L16 3L20 3L20 2L17 2L17 1L18 1L18 0L17 0L17 1L16 1L16 0L14 0L14 1L13 1L13 0ZM19 0L19 1L21 1L21 3L23 3L23 5L24 5L24 3L25 3L25 2L24 2L24 1L25 1L25 0ZM22 1L22 2L23 2L23 1ZM13 2L13 4L11 4L11 7L12 7L12 5L13 5L13 7L14 7L14 6L15 6L15 7L16 7L16 8L18 8L18 9L15 9L15 8L13 8L13 9L14 9L14 10L16 10L16 11L13 11L13 12L12 12L12 14L11 14L11 12L10 12L10 11L9 11L9 12L8 12L8 13L3 13L3 14L2 14L2 17L1 17L1 18L2 18L2 19L3 19L3 21L4 21L4 22L5 22L5 23L3 23L3 22L2 22L2 23L3 23L3 24L2 24L2 27L3 27L3 28L4 28L4 30L5 30L5 31L6 31L6 32L7 32L7 31L10 31L10 32L8 32L8 33L13 33L13 32L11 32L11 31L14 31L14 33L15 33L15 32L16 32L16 33L17 33L17 34L18 34L18 36L19 36L19 33L20 33L20 32L22 32L22 34L21 34L21 36L20 36L20 37L21 37L21 38L23 38L23 39L24 39L24 38L25 38L25 40L27 40L27 38L28 38L28 37L27 37L27 36L26 36L26 37L25 37L25 36L24 36L24 35L22 35L22 34L23 34L23 33L24 33L24 34L25 34L25 33L26 33L26 34L29 34L29 33L27 33L27 32L26 32L26 31L24 31L24 30L25 30L25 28L24 28L24 26L23 26L23 25L22 25L22 24L23 24L23 22L22 22L22 21L20 21L20 23L19 23L19 24L18 24L18 26L20 26L20 27L21 27L21 28L19 28L19 29L18 29L18 27L16 27L16 26L17 26L17 23L15 23L15 24L14 24L14 25L13 25L13 26L12 26L12 29L11 29L11 31L10 31L10 30L9 30L9 29L10 29L10 28L11 28L11 26L10 26L10 25L12 25L12 24L11 24L11 23L10 23L10 24L9 24L9 23L6 23L6 22L7 22L7 21L6 21L6 20L8 20L8 19L9 19L9 20L10 20L10 21L8 21L8 22L11 22L11 20L12 20L12 19L11 19L11 20L10 20L10 17L11 17L11 16L10 16L10 17L9 17L9 16L8 16L8 15L10 15L10 14L11 14L11 15L12 15L12 16L13 16L13 17L12 17L12 18L13 18L13 17L14 17L14 18L15 18L15 19L17 19L17 20L18 20L18 21L16 21L16 20L14 20L14 21L13 21L13 22L12 22L12 23L14 23L14 22L18 22L18 21L19 21L19 20L18 20L18 19L20 19L20 20L21 20L21 17L20 17L20 16L19 16L19 15L20 15L20 14L23 14L23 15L22 15L22 16L23 16L23 15L24 15L24 16L26 16L26 17L24 17L24 18L23 18L23 19L22 19L22 20L24 20L24 21L26 21L26 24L24 24L24 25L25 25L25 26L26 26L26 27L27 27L27 28L26 28L26 29L27 29L27 28L28 28L28 27L29 27L29 28L31 28L31 29L28 29L28 30L30 30L30 31L28 31L28 32L30 32L30 31L31 31L31 30L32 30L32 29L33 29L33 28L32 28L32 27L33 27L33 26L34 26L34 25L35 25L35 26L36 26L36 25L35 25L35 24L36 24L36 23L34 23L34 25L32 25L32 24L33 24L33 22L34 22L34 21L35 21L35 22L36 22L36 21L35 21L35 19L34 19L34 18L33 18L33 20L31 20L31 19L32 19L32 18L31 18L31 19L30 19L30 17L29 17L29 16L30 16L30 15L29 15L29 14L30 14L30 13L29 13L29 12L33 12L33 13L34 13L34 12L33 12L33 11L34 11L34 9L32 9L32 10L30 10L30 9L27 9L27 8L26 8L26 9L27 9L27 10L29 10L29 11L26 11L26 10L25 10L25 11L26 11L26 12L28 12L28 13L29 13L29 14L27 14L27 15L26 15L26 13L25 13L25 12L24 12L24 11L22 11L22 10L21 10L21 8L22 8L22 6L21 6L21 8L20 8L20 6L19 6L19 8L18 8L18 5L16 5L16 6L15 6L15 5L14 5L14 4L15 4L15 3L16 3L16 2ZM16 6L16 7L17 7L17 6ZM24 6L24 7L25 7L25 6ZM27 6L27 7L28 7L28 6ZM30 6L30 7L31 7L31 6ZM8 9L8 10L9 10L9 9ZM35 9L35 10L36 10L36 9ZM18 10L18 11L17 11L17 12L19 12L19 14L18 14L18 13L16 13L16 12L14 12L14 13L16 13L16 14L15 14L15 16L16 16L16 18L17 18L17 16L16 16L16 15L17 15L17 14L18 14L18 15L19 15L19 14L20 14L20 11L21 11L21 10L20 10L20 11L19 11L19 10ZM32 10L32 11L33 11L33 10ZM23 12L23 14L24 14L24 12ZM3 14L3 17L2 17L2 18L3 18L3 19L4 19L4 21L5 21L5 22L6 22L6 21L5 21L5 17L7 17L7 18L6 18L6 19L8 19L8 18L9 18L9 17L8 17L8 16L6 16L6 15L8 15L8 14ZM13 15L13 16L14 16L14 15ZM28 15L28 16L29 16L29 15ZM18 16L18 17L19 17L19 18L20 18L20 17L19 17L19 16ZM36 16L36 17L37 17L37 16ZM40 16L40 18L39 18L39 19L40 19L40 18L41 18L41 16ZM26 17L26 18L24 18L24 20L27 20L27 21L29 21L29 19L28 19L28 18L27 18L27 17ZM27 19L27 20L28 20L28 19ZM30 20L30 21L31 21L31 22L27 22L27 24L26 24L26 26L27 26L27 27L28 27L28 26L32 26L32 25L30 25L30 24L29 24L29 23L31 23L31 24L32 24L32 23L31 23L31 22L33 22L33 21L34 21L34 20L33 20L33 21L31 21L31 20ZM40 20L40 21L41 21L41 20ZM21 22L21 23L20 23L20 24L19 24L19 25L20 25L20 26L21 26L21 27L23 27L23 26L21 26L21 25L20 25L20 24L22 24L22 22ZM24 22L24 23L25 23L25 22ZM5 23L5 26L4 26L4 25L3 25L3 27L5 27L5 29L7 29L7 30L6 30L6 31L7 31L7 30L8 30L8 29L9 29L9 27L7 27L7 26L6 26L6 25L8 25L8 26L9 26L9 25L8 25L8 24L6 24L6 23ZM15 24L15 25L16 25L16 24ZM28 24L28 25L27 25L27 26L28 26L28 25L29 25L29 24ZM13 26L13 27L14 27L14 26ZM6 27L6 28L7 28L7 27ZM16 28L16 29L14 29L14 31L15 31L15 30L16 30L16 31L17 31L17 33L18 33L18 31L17 31L17 30L16 30L16 29L17 29L17 28ZM21 28L21 29L22 29L22 28ZM23 28L23 30L22 30L22 32L23 32L23 30L24 30L24 28ZM19 29L19 32L20 32L20 29ZM24 32L24 33L25 33L25 32ZM30 33L30 35L31 35L31 33ZM33 33L33 36L36 36L36 33ZM37 33L37 34L38 34L38 36L37 36L37 37L38 37L38 36L39 36L39 33ZM34 34L34 35L35 35L35 34ZM9 35L9 36L8 36L8 39L9 39L9 36L10 36L10 35ZM13 35L13 36L12 36L12 37L14 37L14 36L15 36L15 35ZM16 35L16 36L17 36L17 35ZM21 36L21 37L22 37L22 36ZM17 37L17 38L18 38L18 37ZM34 37L34 38L36 38L36 37ZM37 38L37 39L38 39L38 38ZM11 39L11 41L13 41L13 39ZM17 39L17 40L19 40L19 39ZM29 40L29 41L30 41L30 40ZM0 0L0 7L7 7L7 0ZM1 1L1 6L6 6L6 1ZM2 2L2 5L5 5L5 2ZM34 0L34 7L41 7L41 0ZM35 1L35 6L40 6L40 1ZM36 2L36 5L39 5L39 2ZM0 34L0 41L7 41L7 34ZM1 35L1 40L6 40L6 35ZM2 36L2 39L5 39L5 36Z" fill="#000000"/></g></g></svg>
