<?xml version="1.0" encoding="UTF-8"?>
<svg xmlns="http://www.w3.org/2000/svg" version="1.1" width="200" height="200" viewBox="0 0 200 200"><rect x="0" y="0" width="200" height="200" fill="#ffffff"/><g transform="scale(6.897)"><g transform="translate(0,0)"><path fill-rule="evenodd" d="M9 0L9 1L8 1L8 7L9 7L9 8L5 8L5 10L3 10L3 13L4 13L4 12L6 12L6 13L7 13L7 14L4 14L4 15L2 15L2 12L1 12L1 11L0 11L0 12L1 12L1 13L0 13L0 14L1 14L1 15L2 15L2 16L0 16L0 17L2 17L2 18L0 18L0 19L2 19L2 20L0 20L0 21L2 21L2 20L4 20L4 21L5 21L5 20L4 20L4 19L5 19L5 18L6 18L6 19L8 19L8 20L6 20L6 21L8 21L8 24L9 24L9 21L8 21L8 20L9 20L9 19L10 19L10 24L13 24L13 25L12 25L12 26L10 26L10 25L9 25L9 26L8 26L8 27L9 27L9 28L10 28L10 29L11 29L11 27L12 27L12 29L16 29L16 28L18 28L18 29L21 29L21 28L20 28L20 27L22 27L22 26L21 26L21 25L25 25L25 26L26 26L26 27L25 27L25 28L24 28L24 26L23 26L23 28L22 28L22 29L23 29L23 28L24 28L24 29L29 29L29 26L26 26L26 25L28 25L28 24L26 24L26 25L25 25L25 23L26 23L26 21L27 21L27 18L28 18L28 17L29 17L29 16L27 16L27 17L24 17L24 16L23 16L23 15L25 15L25 14L26 14L26 13L29 13L29 12L27 12L27 11L29 11L29 9L28 9L28 8L23 8L23 9L28 9L28 10L27 10L27 11L25 11L25 10L22 10L22 11L21 11L21 12L18 12L18 11L20 11L20 10L19 10L19 8L21 8L21 9L22 9L22 8L21 8L21 3L19 3L19 4L16 4L16 5L15 5L15 6L14 6L14 4L15 4L15 3L18 3L18 2L17 2L17 1L19 1L19 2L20 2L20 0L14 0L14 1L16 1L16 2L15 2L15 3L14 3L14 4L13 4L13 3L12 3L12 1L10 1L10 0ZM9 1L9 2L10 2L10 3L11 3L11 4L12 4L12 5L11 5L11 7L10 7L10 5L9 5L9 7L10 7L10 8L9 8L9 10L8 10L8 11L6 11L6 10L7 10L7 9L6 9L6 10L5 10L5 11L6 11L6 12L9 12L9 13L12 13L12 12L13 12L13 14L12 14L12 15L11 15L11 14L9 14L9 16L8 16L8 19L9 19L9 16L10 16L10 17L12 17L12 16L13 16L13 15L14 15L14 14L15 14L15 16L14 16L14 17L13 17L13 18L12 18L12 19L11 19L11 22L12 22L12 23L13 23L13 24L15 24L15 22L14 22L14 21L16 21L16 20L17 20L17 21L19 21L19 22L16 22L16 23L17 23L17 24L16 24L16 26L17 26L17 27L18 27L18 28L19 28L19 27L20 27L20 26L19 26L19 24L20 24L20 23L19 23L19 22L20 22L20 20L19 20L19 19L20 19L20 17L19 17L19 16L21 16L21 18L24 18L24 17L23 17L23 16L22 16L22 15L23 15L23 14L25 14L25 13L24 13L24 12L25 12L25 11L23 11L23 14L22 14L22 12L21 12L21 13L19 13L19 14L21 14L21 15L19 15L19 16L18 16L18 15L17 15L17 14L15 14L15 13L17 13L17 11L18 11L18 10L17 10L17 9L16 9L16 6L17 6L17 8L18 8L18 6L19 6L19 7L20 7L20 6L19 6L19 5L20 5L20 4L19 4L19 5L16 5L16 6L15 6L15 8L14 8L14 9L16 9L16 10L14 10L14 11L16 11L16 12L15 12L15 13L14 13L14 12L13 12L13 10L11 10L11 9L13 9L13 8L12 8L12 5L13 5L13 4L12 4L12 3L11 3L11 2L10 2L10 1ZM13 6L13 7L14 7L14 6ZM2 8L2 9L0 9L0 10L2 10L2 9L3 9L3 8ZM10 10L10 11L9 11L9 12L11 12L11 10ZM7 14L7 15L6 15L6 16L7 16L7 15L8 15L8 14ZM27 14L27 15L29 15L29 14ZM4 15L4 16L2 16L2 17L4 17L4 18L5 18L5 15ZM16 15L16 16L15 16L15 18L14 18L14 19L15 19L15 20L16 20L16 19L18 19L18 18L17 18L17 17L18 17L18 16L17 16L17 15ZM6 17L6 18L7 18L7 17ZM25 18L25 19L23 19L23 20L26 20L26 18ZM12 19L12 20L13 20L13 19ZM21 19L21 20L22 20L22 19ZM21 21L21 24L24 24L24 21ZM22 22L22 23L23 23L23 22ZM28 22L28 23L29 23L29 22ZM13 25L13 26L12 26L12 27L13 27L13 26L15 26L15 25ZM17 25L17 26L18 26L18 27L19 27L19 26L18 26L18 25ZM15 27L15 28L16 28L16 27ZM27 27L27 28L28 28L28 27ZM0 0L0 7L7 7L7 0ZM1 1L1 6L6 6L6 1ZM2 2L2 5L5 5L5 2ZM22 0L22 7L29 7L29 0ZM23 1L23 6L28 6L28 1ZM24 2L24 5L27 5L27 2ZM0 22L0 29L7 29L7 22ZM1 23L1 28L6 28L6 23ZM2 24L2 27L5 27L5 24Z" fill="#000000"/></g></g></svg>
