<?xml version="1.0" encoding="UTF-8"?>
<svg xmlns="http://www.w3.org/2000/svg" version="1.1" width="200" height="200" viewBox="0 0 200 200"><rect x="0" y="0" width="200" height="200" fill="#ffffff"/><g transform="scale(6.897)"><g transform="translate(0,0)"><path fill-rule="evenodd" d="M8 0L8 1L9 1L9 2L11 2L11 3L10 3L10 7L9 7L9 6L8 6L8 7L9 7L9 8L8 8L8 9L9 9L9 10L8 10L8 14L6 14L6 13L7 13L7 12L5 12L5 11L7 11L7 10L3 10L3 11L2 11L2 9L3 9L3 8L2 8L2 9L0 9L0 10L1 10L1 11L0 11L0 12L3 12L3 11L4 11L4 12L5 12L5 14L4 14L4 13L3 13L3 15L1 15L1 14L0 14L0 15L1 15L1 16L0 16L0 17L2 17L2 18L4 18L4 19L1 19L1 18L0 18L0 19L1 19L1 20L0 20L0 21L1 21L1 20L2 20L2 21L8 21L8 22L9 22L9 21L10 21L10 22L12 22L12 19L13 19L13 21L14 21L14 22L15 22L15 21L14 21L14 19L15 19L15 18L14 18L14 17L15 17L15 16L18 16L18 17L17 17L17 18L16 18L16 19L17 19L17 20L16 20L16 22L18 22L18 23L16 23L16 25L15 25L15 24L14 24L14 25L12 25L12 24L13 24L13 23L12 23L12 24L9 24L9 23L8 23L8 25L10 25L10 28L9 28L9 29L11 29L11 28L12 28L12 29L13 29L13 27L12 27L12 26L14 26L14 29L15 29L15 28L17 28L17 29L19 29L19 28L17 28L17 27L21 27L21 28L20 28L20 29L27 29L27 28L28 28L28 29L29 29L29 26L28 26L28 25L27 25L27 24L28 24L28 23L29 23L29 22L28 22L28 18L27 18L27 17L26 17L26 14L24 14L24 13L25 13L25 12L24 12L24 11L26 11L26 13L27 13L27 14L28 14L28 15L27 15L27 16L28 16L28 17L29 17L29 16L28 16L28 15L29 15L29 14L28 14L28 13L29 13L29 12L28 12L28 11L29 11L29 8L28 8L28 9L27 9L27 10L28 10L28 11L26 11L26 8L25 8L25 10L24 10L24 9L23 9L23 10L22 10L22 8L21 8L21 3L20 3L20 2L19 2L19 3L20 3L20 4L18 4L18 3L17 3L17 4L16 4L16 2L18 2L18 1L19 1L19 0L18 0L18 1L16 1L16 0L13 0L13 1L9 1L9 0ZM14 1L14 3L15 3L15 2L16 2L16 1ZM12 2L12 3L13 3L13 2ZM8 3L8 4L9 4L9 3ZM11 4L11 5L13 5L13 7L14 7L14 5L15 5L15 7L16 7L16 6L17 6L17 7L18 7L18 6L19 6L19 8L20 8L20 10L19 10L19 11L17 11L17 10L18 10L18 8L16 8L16 9L15 9L15 8L14 8L14 9L13 9L13 8L12 8L12 9L13 9L13 10L11 10L11 9L10 9L10 8L11 8L11 7L12 7L12 6L11 6L11 7L10 7L10 8L9 8L9 9L10 9L10 10L11 10L11 12L10 12L10 11L9 11L9 12L10 12L10 13L9 13L9 14L10 14L10 13L11 13L11 15L10 15L10 16L9 16L9 18L8 18L8 15L6 15L6 14L5 14L5 15L6 15L6 16L7 16L7 17L6 17L6 18L8 18L8 21L9 21L9 19L10 19L10 17L11 17L11 19L12 19L12 18L13 18L13 16L15 16L15 15L14 15L14 14L16 14L16 15L18 15L18 16L19 16L19 17L20 17L20 16L21 16L21 15L20 15L20 14L21 14L21 13L20 13L20 12L22 12L22 11L21 11L21 8L20 8L20 5L18 5L18 4L17 4L17 5L15 5L15 4ZM17 5L17 6L18 6L18 5ZM4 8L4 9L7 9L7 8ZM15 10L15 11L14 11L14 12L12 12L12 14L13 14L13 13L16 13L16 14L18 14L18 15L19 15L19 16L20 16L20 15L19 15L19 14L20 14L20 13L19 13L19 12L20 12L20 11L19 11L19 12L18 12L18 13L16 13L16 12L15 12L15 11L16 11L16 10ZM23 10L23 11L24 11L24 10ZM27 12L27 13L28 13L28 12ZM22 14L22 15L24 15L24 16L22 16L22 18L21 18L21 19L22 19L22 18L23 18L23 17L24 17L24 18L26 18L26 17L25 17L25 15L24 15L24 14ZM3 15L3 16L2 16L2 17L4 17L4 18L5 18L5 17L4 17L4 15ZM11 15L11 17L12 17L12 15ZM17 18L17 19L18 19L18 21L19 21L19 20L20 20L20 19L19 19L19 18ZM4 19L4 20L5 20L5 19ZM6 19L6 20L7 20L7 19ZM25 19L25 23L26 23L26 24L27 24L27 21L26 21L26 19ZM21 21L21 24L24 24L24 21ZM19 22L19 23L18 23L18 24L17 24L17 25L16 25L16 27L17 27L17 26L18 26L18 24L19 24L19 26L20 26L20 24L19 24L19 23L20 23L20 22ZM22 22L22 23L23 23L23 22ZM11 25L11 26L12 26L12 25ZM14 25L14 26L15 26L15 25ZM22 25L22 26L21 26L21 27L22 27L22 28L25 28L25 25L24 25L24 26L23 26L23 25ZM26 25L26 28L27 28L27 27L28 27L28 26L27 26L27 25ZM8 26L8 27L9 27L9 26ZM0 0L0 7L7 7L7 0ZM1 1L1 6L6 6L6 1ZM2 2L2 5L5 5L5 2ZM22 0L22 7L29 7L29 0ZM23 1L23 6L28 6L28 1ZM24 2L24 5L27 5L27 2ZM0 22L0 29L7 29L7 22ZM1 23L1 28L6 28L6 23ZM2 24L2 27L5 27L5 24Z" fill="#000000"/></g></g></svg>
