<?xml version="1.0" encoding="UTF-8"?>
<svg xmlns="http://www.w3.org/2000/svg" version="1.1" width="200" height="200" viewBox="0 0 200 200"><rect x="0" y="0" width="200" height="200" fill="#ffffff"/><g transform="scale(4.878)"><g transform="translate(0,0)"><path fill-rule="evenodd" d="M8 0L8 3L9 3L9 5L8 5L8 9L7 9L7 8L6 8L6 9L7 9L7 10L6 10L6 11L7 11L7 10L8 10L8 12L10 12L10 13L9 13L9 15L8 15L8 14L6 14L6 13L7 13L7 12L5 12L5 14L4 14L4 13L3 13L3 12L0 12L0 14L1 14L1 18L0 18L0 19L1 19L1 20L5 20L5 18L4 18L4 17L7 17L7 16L9 16L9 15L12 15L12 14L10 14L10 13L13 13L13 16L10 16L10 18L9 18L9 17L8 17L8 18L9 18L9 19L8 19L8 20L10 20L10 22L9 22L9 21L7 21L7 20L6 20L6 21L3 21L3 22L4 22L4 23L2 23L2 24L1 24L1 22L2 22L2 21L0 21L0 24L1 24L1 25L0 25L0 27L1 27L1 26L3 26L3 27L2 27L2 28L3 28L3 27L4 27L4 26L6 26L6 27L8 27L8 26L9 26L9 25L10 25L10 24L8 24L8 26L6 26L6 25L7 25L7 24L6 24L6 23L7 23L7 22L9 22L9 23L12 23L12 20L11 20L11 18L12 18L12 19L13 19L13 18L15 18L15 19L14 19L14 20L13 20L13 21L14 21L14 20L15 20L15 22L17 22L17 23L18 23L18 22L19 22L19 21L18 21L18 20L19 20L19 19L21 19L21 21L20 21L20 22L21 22L21 21L22 21L22 22L23 22L23 23L24 23L24 26L26 26L26 27L23 27L23 26L22 26L22 29L23 29L23 32L24 32L24 35L23 35L23 34L21 34L21 35L20 35L20 33L19 33L19 35L17 35L17 34L18 34L18 32L19 32L19 31L18 31L18 29L21 29L21 27L20 27L20 26L21 26L21 25L23 25L23 24L21 24L21 23L20 23L20 24L19 24L19 25L18 25L18 24L16 24L16 23L14 23L14 22L13 22L13 24L16 24L16 25L14 25L14 27L12 27L12 28L11 28L11 30L12 30L12 31L13 31L13 32L11 32L11 31L10 31L10 29L9 29L9 30L8 30L8 32L9 32L9 33L8 33L8 34L9 34L9 33L10 33L10 35L12 35L12 36L15 36L15 37L16 37L16 38L15 38L15 39L14 39L14 38L13 38L13 37L11 37L11 36L8 36L8 39L10 39L10 38L9 38L9 37L11 37L11 38L13 38L13 39L12 39L12 40L9 40L9 41L12 41L12 40L14 40L14 41L17 41L17 40L16 40L16 38L18 38L18 37L16 37L16 36L15 36L15 34L14 34L14 33L15 33L15 32L17 32L17 33L16 33L16 35L17 35L17 36L19 36L19 38L20 38L20 37L21 37L21 38L22 38L22 39L20 39L20 41L21 41L21 40L23 40L23 39L24 39L24 41L26 41L26 40L28 40L28 41L32 41L32 40L33 40L33 41L34 41L34 40L33 40L33 39L32 39L32 38L34 38L34 39L35 39L35 40L36 40L36 39L37 39L37 40L40 40L40 38L41 38L41 37L39 37L39 36L37 36L37 35L40 35L40 34L41 34L41 33L39 33L39 32L37 32L37 30L38 30L38 29L35 29L35 30L34 30L34 31L36 31L36 32L33 32L33 31L32 31L32 30L33 30L33 29L34 29L34 28L33 28L33 29L32 29L32 30L30 30L30 29L31 29L31 28L32 28L32 27L31 27L31 28L27 28L27 29L23 29L23 28L26 28L26 27L29 27L29 26L30 26L30 25L31 25L31 26L33 26L33 27L34 27L34 26L35 26L35 25L36 25L36 26L37 26L37 27L36 27L36 28L38 28L38 26L39 26L39 31L40 31L40 30L41 30L41 29L40 29L40 26L41 26L41 23L39 23L39 24L40 24L40 26L39 26L39 25L36 25L36 24L37 24L37 22L38 22L38 21L39 21L39 20L38 20L38 19L37 19L37 20L36 20L36 19L35 19L35 17L36 17L36 18L37 18L37 17L38 17L38 18L41 18L41 16L40 16L40 17L39 17L39 16L37 16L37 15L38 15L38 13L36 13L36 14L37 14L37 15L36 15L36 16L35 16L35 17L34 17L34 16L33 16L33 17L31 17L31 12L29 12L29 13L28 13L28 12L27 12L27 11L28 11L28 10L29 10L29 9L31 9L31 10L32 10L32 11L33 11L33 12L32 12L32 13L33 13L33 14L32 14L32 15L34 15L34 13L35 13L35 9L36 9L36 10L37 10L37 11L36 11L36 12L38 12L38 11L39 11L39 13L40 13L40 14L39 14L39 15L40 15L40 14L41 14L41 13L40 13L40 12L41 12L41 11L40 11L40 10L41 10L41 8L38 8L38 9L40 9L40 10L37 10L37 9L36 9L36 8L32 8L32 9L31 9L31 5L32 5L32 7L33 7L33 5L32 5L32 4L33 4L33 2L30 2L30 0L29 0L29 1L27 1L27 0L26 0L26 1L27 1L27 2L26 2L26 3L32 3L32 4L30 4L30 5L29 5L29 4L28 4L28 5L27 5L27 4L26 4L26 7L27 7L27 9L25 9L25 10L24 10L24 9L23 9L23 8L22 8L22 7L23 7L23 5L25 5L25 3L24 3L24 4L23 4L23 2L20 2L20 1L19 1L19 0L12 0L12 1L11 1L11 0ZM23 0L23 1L24 1L24 2L25 2L25 0ZM31 0L31 1L32 1L32 0ZM13 1L13 2L11 2L11 3L10 3L10 6L9 6L9 7L10 7L10 6L11 6L11 8L12 8L12 9L11 9L11 10L10 10L10 12L13 12L13 8L12 8L12 6L11 6L11 5L12 5L12 4L13 4L13 7L14 7L14 10L15 10L15 11L18 11L18 13L14 13L14 16L13 16L13 17L15 17L15 16L16 16L16 17L17 17L17 18L16 18L16 19L15 19L15 20L16 20L16 21L17 21L17 22L18 22L18 21L17 21L17 20L18 20L18 19L17 19L17 18L20 18L20 16L21 16L21 15L22 15L22 17L21 17L21 18L23 18L23 19L22 19L22 21L23 21L23 19L25 19L25 20L26 20L26 12L25 12L25 11L27 11L27 10L28 10L28 9L29 9L29 8L30 8L30 6L29 6L29 5L28 5L28 6L27 6L27 7L28 7L28 6L29 6L29 8L28 8L28 9L27 9L27 10L25 10L25 11L23 11L23 9L22 9L22 8L21 8L21 9L22 9L22 12L20 12L20 11L18 11L18 10L17 10L17 9L16 9L16 8L15 8L15 7L16 7L16 6L15 6L15 5L14 5L14 4L15 4L15 3L16 3L16 5L17 5L17 8L18 8L18 5L20 5L20 6L19 6L19 8L20 8L20 6L21 6L21 7L22 7L22 5L21 5L21 4L18 4L18 3L20 3L20 2L17 2L17 1ZM14 2L14 3L15 3L15 2ZM16 2L16 3L17 3L17 2ZM11 3L11 4L12 4L12 3ZM17 4L17 5L18 5L18 4ZM14 6L14 7L15 7L15 6ZM24 6L24 8L25 8L25 6ZM2 8L2 9L1 9L1 10L0 10L0 11L1 11L1 10L2 10L2 11L3 11L3 10L2 10L2 9L4 9L4 11L5 11L5 8ZM9 8L9 9L10 9L10 8ZM15 9L15 10L16 10L16 9ZM19 9L19 10L20 10L20 9ZM32 9L32 10L33 10L33 11L34 11L34 9ZM11 10L11 11L12 11L12 10ZM19 12L19 14L18 14L18 16L17 16L17 14L15 14L15 15L16 15L16 16L17 16L17 17L18 17L18 16L20 16L20 15L21 15L21 14L22 14L22 15L25 15L25 14L24 14L24 13L25 13L25 12L24 12L24 13L20 13L20 12ZM33 12L33 13L34 13L34 12ZM29 13L29 14L27 14L27 18L29 18L29 19L27 19L27 20L29 20L29 21L27 21L27 22L28 22L28 23L27 23L27 24L26 24L26 26L29 26L29 25L27 25L27 24L31 24L31 25L33 25L33 26L34 26L34 25L35 25L35 24L36 24L36 23L33 23L33 22L34 22L34 21L35 21L35 22L36 22L36 21L35 21L35 19L34 19L34 18L31 18L31 17L29 17L29 16L30 16L30 15L29 15L29 14L30 14L30 13ZM2 14L2 15L4 15L4 14ZM5 14L5 15L6 15L6 16L7 16L7 15L6 15L6 14ZM19 14L19 15L20 15L20 14ZM28 15L28 16L29 16L29 15ZM3 16L3 17L4 17L4 16ZM36 16L36 17L37 17L37 16ZM24 17L24 18L25 18L25 17ZM1 18L1 19L2 19L2 18ZM3 18L3 19L4 19L4 18ZM6 18L6 19L7 19L7 18ZM30 18L30 19L31 19L31 20L30 20L30 21L31 21L31 22L29 22L29 23L31 23L31 24L32 24L32 23L31 23L31 22L32 22L32 21L34 21L34 20L33 20L33 19L31 19L31 18ZM16 19L16 20L17 20L17 19ZM31 20L31 21L32 21L32 20ZM37 20L37 21L38 21L38 20ZM40 20L40 21L41 21L41 20ZM6 21L6 22L5 22L5 23L6 23L6 22L7 22L7 21ZM24 22L24 23L25 23L25 22ZM2 24L2 25L3 25L3 26L4 26L4 25L5 25L5 24L4 24L4 25L3 25L3 24ZM20 24L20 25L19 25L19 26L20 26L20 25L21 25L21 24ZM33 24L33 25L34 25L34 24ZM12 25L12 26L13 26L13 25ZM16 26L16 27L15 27L15 29L14 29L14 28L12 28L12 30L13 30L13 31L14 31L14 32L13 32L13 33L11 33L11 34L12 34L12 35L13 35L13 33L14 33L14 32L15 32L15 29L16 29L16 27L17 27L17 26ZM18 27L18 28L20 28L20 27ZM5 28L5 30L6 30L6 31L7 31L7 30L6 30L6 29L7 29L7 28ZM0 29L0 33L1 33L1 30L2 30L2 31L3 31L3 32L2 32L2 33L7 33L7 32L4 32L4 31L3 31L3 30L4 30L4 29ZM28 29L28 30L29 30L29 31L28 31L28 32L30 32L30 33L31 33L31 31L30 31L30 30L29 30L29 29ZM21 30L21 31L22 31L22 30ZM24 30L24 31L25 31L25 32L26 32L26 33L25 33L25 34L26 34L26 36L27 36L27 34L29 34L29 33L27 33L27 32L26 32L26 31L25 31L25 30ZM9 31L9 32L10 32L10 31ZM21 32L21 33L22 33L22 32ZM33 33L33 36L36 36L36 33ZM37 33L37 34L39 34L39 33ZM30 34L30 35L31 35L31 36L28 36L28 37L27 37L27 38L28 38L28 37L29 37L29 38L30 38L30 39L28 39L28 40L30 40L30 39L31 39L31 40L32 40L32 39L31 39L31 38L32 38L32 35L31 35L31 34ZM34 34L34 35L35 35L35 34ZM21 35L21 36L22 36L22 38L23 38L23 37L24 37L24 38L25 38L25 39L26 39L26 37L25 37L25 36L23 36L23 35ZM30 37L30 38L31 38L31 37ZM34 37L34 38L36 38L36 37ZM37 38L37 39L38 39L38 38ZM18 39L18 40L19 40L19 39ZM0 0L0 7L7 7L7 0ZM1 1L1 6L6 6L6 1ZM2 2L2 5L5 5L5 2ZM34 0L34 7L41 7L41 0ZM35 1L35 6L40 6L40 1ZM36 2L36 5L39 5L39 2ZM0 34L0 41L7 41L7 34ZM1 35L1 40L6 40L6 35ZM2 36L2 39L5 39L5 36Z" fill="#000000"/></g></g></svg>
