<?xml version="1.0" encoding="UTF-8"?>
<svg xmlns="http://www.w3.org/2000/svg" version="1.1" width="200" height="200" viewBox="0 0 200 200"><rect x="0" y="0" width="200" height="200" fill="#ffffff"/><g transform="scale(6.897)"><g transform="translate(0,0)"><path fill-rule="evenodd" d="M8 0L8 1L9 1L9 0ZM10 0L10 2L9 2L9 3L8 3L8 4L9 4L9 5L10 5L10 7L9 7L9 6L8 6L8 7L9 7L9 8L8 8L8 9L9 9L9 10L8 10L8 11L12 11L12 10L13 10L13 9L14 9L14 8L15 8L15 6L14 6L14 8L13 8L13 9L12 9L12 8L10 8L10 7L11 7L11 6L12 6L12 7L13 7L13 4L12 4L12 3L14 3L14 5L15 5L15 4L16 4L16 5L18 5L18 7L19 7L19 5L20 5L20 8L19 8L19 10L18 10L18 11L20 11L20 12L17 12L17 13L16 13L16 12L15 12L15 11L14 11L14 12L15 12L15 13L16 13L16 14L13 14L13 15L12 15L12 12L11 12L11 14L10 14L10 15L9 15L9 12L8 12L8 18L6 18L6 17L7 17L7 16L5 16L5 15L2 15L2 16L0 16L0 17L1 17L1 18L0 18L0 19L1 19L1 20L0 20L0 21L1 21L1 20L2 20L2 19L1 19L1 18L2 18L2 17L3 17L3 18L4 18L4 19L7 19L7 20L5 20L5 21L7 21L7 20L8 20L8 22L9 22L9 23L8 23L8 25L9 25L9 26L8 26L8 27L9 27L9 29L11 29L11 28L13 28L13 29L14 29L14 27L15 27L15 26L14 26L14 25L15 25L15 23L16 23L16 21L15 21L15 20L16 20L16 19L17 19L17 18L16 18L16 19L14 19L14 18L12 18L12 17L11 17L11 15L12 15L12 16L13 16L13 15L14 15L14 17L15 17L15 16L17 16L17 17L18 17L18 19L19 19L19 20L18 20L18 22L17 22L17 24L16 24L16 25L18 25L18 24L20 24L20 26L16 26L16 27L19 27L19 28L18 28L18 29L20 29L20 27L21 27L21 26L22 26L22 25L23 25L23 26L24 26L24 25L25 25L25 26L26 26L26 27L27 27L27 28L28 28L28 29L29 29L29 26L28 26L28 25L29 25L29 24L28 24L28 23L27 23L27 24L26 24L26 23L25 23L25 20L24 20L24 19L25 19L25 18L24 18L24 17L26 17L26 18L27 18L27 20L26 20L26 21L28 21L28 22L29 22L29 21L28 21L28 19L29 19L29 18L27 18L27 17L26 17L26 14L24 14L24 13L25 13L25 11L26 11L26 13L27 13L27 12L28 12L28 13L29 13L29 12L28 12L28 11L29 11L29 8L28 8L28 9L26 9L26 8L25 8L25 9L24 9L24 10L25 10L25 11L24 11L24 12L23 12L23 10L22 10L22 8L21 8L21 0L20 0L20 1L19 1L19 2L20 2L20 3L19 3L19 5L18 5L18 3L17 3L17 2L18 2L18 1L17 1L17 0L15 0L15 2L14 2L14 1L12 1L12 0ZM11 1L11 3L12 3L12 1ZM16 3L16 4L17 4L17 3ZM10 4L10 5L11 5L11 4ZM16 6L16 9L15 9L15 10L16 10L16 11L17 11L17 6ZM2 8L2 9L0 9L0 11L1 11L1 12L0 12L0 13L1 13L1 14L0 14L0 15L1 15L1 14L2 14L2 13L3 13L3 14L6 14L6 15L7 15L7 14L6 14L6 13L7 13L7 12L6 12L6 11L7 11L7 10L6 10L6 11L4 11L4 10L5 10L5 9L7 9L7 8L4 8L4 9L3 9L3 8ZM9 8L9 9L10 9L10 10L11 10L11 9L10 9L10 8ZM2 10L2 11L3 11L3 10ZM26 10L26 11L28 11L28 10ZM21 11L21 12L22 12L22 11ZM1 12L1 13L2 13L2 12ZM18 13L18 14L19 14L19 15L18 15L18 16L19 16L19 17L20 17L20 18L19 18L19 19L20 19L20 20L19 20L19 21L20 21L20 20L21 20L21 19L22 19L22 18L23 18L23 19L24 19L24 18L23 18L23 17L24 17L24 16L25 16L25 15L24 15L24 14L23 14L23 15L22 15L22 14L21 14L21 13L20 13L20 14L19 14L19 13ZM20 14L20 15L19 15L19 16L20 16L20 15L21 15L21 14ZM27 14L27 16L28 16L28 17L29 17L29 16L28 16L28 15L29 15L29 14ZM23 15L23 16L22 16L22 17L23 17L23 16L24 16L24 15ZM3 16L3 17L4 17L4 18L5 18L5 17L4 17L4 16ZM9 16L9 18L8 18L8 19L9 19L9 20L10 20L10 21L9 21L9 22L10 22L10 23L9 23L9 25L10 25L10 26L11 26L11 25L10 25L10 23L11 23L11 24L12 24L12 23L13 23L13 25L12 25L12 27L14 27L14 26L13 26L13 25L14 25L14 23L13 23L13 22L14 22L14 21L13 21L13 20L10 20L10 19L11 19L11 17L10 17L10 16ZM21 21L21 24L24 24L24 21ZM18 22L18 23L20 23L20 22ZM22 22L22 23L23 23L23 22ZM27 24L27 25L28 25L28 24ZM27 26L27 27L28 27L28 26ZM10 27L10 28L11 28L11 27ZM22 27L22 28L23 28L23 29L26 29L26 28L23 28L23 27ZM15 28L15 29L16 29L16 28ZM0 0L0 7L7 7L7 0ZM1 1L1 6L6 6L6 1ZM2 2L2 5L5 5L5 2ZM22 0L22 7L29 7L29 0ZM23 1L23 6L28 6L28 1ZM24 2L24 5L27 5L27 2ZM0 22L0 29L7 29L7 22ZM1 23L1 28L6 28L6 23ZM2 24L2 27L5 27L5 24Z" fill="#000000"/></g></g></svg>
