<?xml version="1.0" encoding="UTF-8"?>
<svg xmlns="http://www.w3.org/2000/svg" version="1.1" width="200" height="200" viewBox="0 0 200 200"><rect x="0" y="0" width="200" height="200" fill="#ffffff"/><g transform="scale(6.897)"><g transform="translate(0,0)"><path fill-rule="evenodd" d="M9 0L9 1L8 1L8 7L9 7L9 8L5 8L5 10L4 10L4 9L3 9L3 8L2 8L2 9L3 9L3 11L2 11L2 12L1 12L1 11L0 11L0 12L1 12L1 14L2 14L2 13L4 13L4 15L0 15L0 17L1 17L1 18L0 18L0 19L2 19L2 20L0 20L0 21L2 21L2 20L3 20L3 18L4 18L4 19L5 19L5 18L4 18L4 17L9 17L9 19L8 19L8 20L9 20L9 19L10 19L10 22L9 22L9 21L8 21L8 24L9 24L9 26L8 26L8 27L9 27L9 28L10 28L10 29L11 29L11 28L12 28L12 29L16 29L16 28L18 28L18 29L21 29L21 28L20 28L20 27L22 27L22 26L21 26L21 25L25 25L25 23L26 23L26 21L27 21L27 20L26 20L26 18L28 18L28 17L29 17L29 16L27 16L27 17L25 17L25 16L23 16L23 15L25 15L25 14L26 14L26 13L29 13L29 12L27 12L27 11L29 11L29 9L28 9L28 8L23 8L23 9L28 9L28 10L27 10L27 11L25 11L25 10L22 10L22 11L21 11L21 12L18 12L18 11L20 11L20 10L19 10L19 8L21 8L21 9L22 9L22 8L21 8L21 3L19 3L19 4L16 4L16 5L14 5L14 4L15 4L15 3L16 3L16 2L17 2L17 3L18 3L18 2L17 2L17 1L19 1L19 2L20 2L20 0L16 0L16 1L15 1L15 0L14 0L14 1L15 1L15 3L14 3L14 4L13 4L13 2L12 2L12 0ZM9 1L9 2L10 2L10 3L11 3L11 4L12 4L12 5L10 5L10 4L9 4L9 5L10 5L10 6L9 6L9 7L10 7L10 6L11 6L11 9L10 9L10 8L9 8L9 9L6 9L6 10L5 10L5 11L6 11L6 12L4 12L4 13L5 13L5 16L7 16L7 15L8 15L8 14L7 14L7 13L6 13L6 12L7 12L7 11L6 11L6 10L8 10L8 12L9 12L9 13L12 13L12 12L13 12L13 13L14 13L14 15L15 15L15 16L16 16L16 15L18 15L18 16L17 16L17 18L18 18L18 19L17 19L17 22L16 22L16 23L17 23L17 24L16 24L16 26L15 26L15 28L16 28L16 27L18 27L18 28L19 28L19 27L20 27L20 26L19 26L19 25L18 25L18 26L17 26L17 24L18 24L18 23L19 23L19 24L20 24L20 23L19 23L19 22L20 22L20 20L19 20L19 19L20 19L20 17L19 17L19 18L18 18L18 16L21 16L21 18L25 18L25 17L23 17L23 16L22 16L22 15L23 15L23 14L25 14L25 13L24 13L24 12L25 12L25 11L23 11L23 14L22 14L22 12L21 12L21 13L19 13L19 14L21 14L21 15L18 15L18 14L15 14L15 13L14 13L14 12L13 12L13 10L12 10L12 5L13 5L13 7L14 7L14 8L13 8L13 9L14 9L14 11L15 11L15 12L16 12L16 13L17 13L17 12L16 12L16 10L15 10L15 9L17 9L17 8L18 8L18 6L19 6L19 7L20 7L20 6L19 6L19 5L20 5L20 4L19 4L19 5L16 5L16 6L15 6L15 7L14 7L14 5L13 5L13 4L12 4L12 2L10 2L10 1ZM16 6L16 8L17 8L17 6ZM14 8L14 9L15 9L15 8ZM0 9L0 10L1 10L1 9ZM10 10L10 11L9 11L9 12L11 12L11 11L12 11L12 10ZM17 10L17 11L18 11L18 10ZM6 14L6 15L7 15L7 14ZM9 14L9 15L10 15L10 17L13 17L13 18L12 18L12 20L11 20L11 22L10 22L10 26L11 26L11 27L13 27L13 26L14 26L14 25L15 25L15 23L14 23L14 24L13 24L13 25L12 25L12 24L11 24L11 22L12 22L12 23L13 23L13 21L15 21L15 19L16 19L16 18L15 18L15 19L14 19L14 17L13 17L13 14L12 14L12 15L11 15L11 14ZM27 14L27 15L29 15L29 14ZM1 16L1 17L4 17L4 16ZM6 18L6 19L7 19L7 18ZM21 19L21 20L22 20L22 19ZM23 19L23 20L25 20L25 19ZM4 20L4 21L5 21L5 20ZM6 20L6 21L7 21L7 20ZM18 21L18 22L19 22L19 21ZM21 21L21 24L24 24L24 21ZM22 22L22 23L23 23L23 22ZM28 22L28 23L29 23L29 22ZM26 24L26 25L28 25L28 24ZM18 26L18 27L19 27L19 26ZM23 26L23 28L22 28L22 29L23 29L23 28L24 28L24 29L25 29L25 28L26 28L26 29L29 29L29 26L27 26L27 27L26 27L26 26L25 26L25 28L24 28L24 26ZM27 27L27 28L28 28L28 27ZM0 0L0 7L7 7L7 0ZM1 1L1 6L6 6L6 1ZM2 2L2 5L5 5L5 2ZM22 0L22 7L29 7L29 0ZM23 1L23 6L28 6L28 1ZM24 2L24 5L27 5L27 2ZM0 22L0 29L7 29L7 22ZM1 23L1 28L6 28L6 23ZM2 24L2 27L5 27L5 24Z" fill="#000000"/></g></g></svg>
