<?xml version="1.0" encoding="UTF-8"?>
<svg xmlns="http://www.w3.org/2000/svg" version="1.1" width="200" height="200" viewBox="0 0 200 200"><rect x="0" y="0" width="200" height="200" fill="#ffffff"/><g transform="scale(4.878)"><g transform="translate(0,0)"><path fill-rule="evenodd" d="M8 0L8 3L10 3L10 4L9 4L9 5L8 5L8 9L7 9L7 8L6 8L6 9L7 9L7 10L5 10L5 8L2 8L2 9L1 9L1 11L2 11L2 12L3 12L3 13L2 13L2 16L1 16L1 14L0 14L0 17L2 17L2 18L1 18L1 19L0 19L0 21L1 21L1 23L0 23L0 24L2 24L2 25L3 25L3 26L1 26L1 25L0 25L0 26L1 26L1 27L0 27L0 28L2 28L2 27L3 27L3 28L4 28L4 29L3 29L3 30L4 30L4 32L2 32L2 33L4 33L4 32L5 32L5 31L7 31L7 32L6 32L6 33L8 33L8 34L9 34L9 33L8 33L8 32L9 32L9 31L10 31L10 30L9 30L9 31L8 31L8 28L6 28L6 29L5 29L5 26L6 26L6 27L8 27L8 26L10 26L10 28L11 28L11 27L12 27L12 28L15 28L15 31L14 31L14 30L13 30L13 32L17 32L17 33L16 33L16 34L15 34L15 37L16 37L16 35L17 35L17 39L15 39L15 38L14 38L14 39L15 39L15 40L16 40L16 41L17 41L17 40L18 40L18 41L19 41L19 39L20 39L20 40L21 40L21 41L23 41L23 40L21 40L21 38L24 38L24 37L25 37L25 36L26 36L26 38L25 38L25 40L24 40L24 41L25 41L25 40L27 40L27 41L31 41L31 40L33 40L33 41L34 41L34 40L33 40L33 39L32 39L32 38L31 38L31 37L30 37L30 38L29 38L29 37L28 37L28 34L27 34L27 33L29 33L29 36L32 36L32 37L33 37L33 38L34 38L34 39L35 39L35 40L36 40L36 39L37 39L37 40L40 40L40 38L41 38L41 37L40 37L40 36L41 36L41 35L40 35L40 34L41 34L41 33L40 33L40 32L41 32L41 31L40 31L40 30L41 30L41 28L39 28L39 32L37 32L37 31L36 31L36 30L38 30L38 29L36 29L36 28L38 28L38 26L39 26L39 27L40 27L40 26L41 26L41 23L39 23L39 24L40 24L40 26L39 26L39 25L36 25L36 24L37 24L37 20L38 20L38 21L39 21L39 20L38 20L38 17L39 17L39 16L38 16L38 14L41 14L41 12L40 12L40 10L41 10L41 8L38 8L38 9L40 9L40 10L37 10L37 9L36 9L36 8L33 8L33 4L30 4L30 7L31 7L31 8L29 8L29 6L28 6L28 5L27 5L27 4L24 4L24 7L23 7L23 3L22 3L22 2L21 2L21 3L20 3L20 4L21 4L21 3L22 3L22 7L21 7L21 5L20 5L20 8L21 8L21 9L23 9L23 10L24 10L24 9L25 9L25 8L24 8L24 7L25 7L25 6L26 6L26 8L27 8L27 9L31 9L31 10L32 10L32 11L33 11L33 12L32 12L32 13L33 13L33 14L32 14L32 15L34 15L34 13L35 13L35 12L38 12L38 11L39 11L39 13L38 13L38 14L37 14L37 13L36 13L36 14L35 14L35 15L37 15L37 16L38 16L38 17L36 17L36 16L35 16L35 17L34 17L34 16L32 16L32 17L31 17L31 12L29 12L29 13L28 13L28 12L24 12L24 13L23 13L23 12L22 12L22 10L20 10L20 9L18 9L18 8L19 8L19 6L18 6L18 5L17 5L17 4L18 4L18 3L19 3L19 1L20 1L20 0L19 0L19 1L17 1L17 0L14 0L14 1L11 1L11 0ZM22 0L22 1L23 1L23 2L25 2L25 0ZM26 0L26 1L27 1L27 2L26 2L26 3L28 3L28 4L29 4L29 3L31 3L31 2L30 2L30 1L33 1L33 0L29 0L29 1L27 1L27 0ZM9 1L9 2L10 2L10 3L11 3L11 2L10 2L10 1ZM14 1L14 2L13 2L13 3L12 3L12 4L10 4L10 5L9 5L9 7L10 7L10 9L12 9L12 12L11 12L11 10L9 10L9 12L7 12L7 11L8 11L8 10L7 10L7 11L6 11L6 12L7 12L7 13L6 13L6 14L4 14L4 15L5 15L5 16L9 16L9 17L10 17L10 18L8 18L8 19L6 19L6 18L7 18L7 17L5 17L5 19L6 19L6 20L3 20L3 18L2 18L2 20L3 20L3 21L2 21L2 22L4 22L4 21L5 21L5 22L7 22L7 23L5 23L5 25L4 25L4 26L5 26L5 25L6 25L6 26L8 26L8 25L6 25L6 24L8 24L8 23L9 23L9 21L10 21L10 26L11 26L11 24L12 24L12 26L14 26L14 25L15 25L15 27L16 27L16 28L17 28L17 30L18 30L18 29L19 29L19 31L18 31L18 32L19 32L19 33L20 33L20 32L21 32L21 36L19 36L19 37L18 37L18 39L19 39L19 37L23 37L23 36L22 36L22 34L23 34L23 35L24 35L24 36L25 36L25 35L26 35L26 36L27 36L27 35L26 35L26 33L27 33L27 28L28 28L28 27L29 27L29 28L30 28L30 29L28 29L28 30L30 30L30 29L31 29L31 30L32 30L32 31L33 31L33 32L36 32L36 31L34 31L34 30L36 30L36 29L35 29L35 26L36 26L36 25L35 25L35 24L36 24L36 23L34 23L34 24L33 24L33 25L32 25L32 24L31 24L31 23L32 23L32 22L34 22L34 21L35 21L35 22L36 22L36 21L35 21L35 19L36 19L36 20L37 20L37 18L36 18L36 17L35 17L35 19L34 19L34 18L33 18L33 17L32 17L32 18L31 18L31 17L29 17L29 16L30 16L30 15L29 15L29 14L30 14L30 13L29 13L29 14L27 14L27 13L26 13L26 14L24 14L24 15L23 15L23 13L22 13L22 12L21 12L21 11L19 11L19 12L18 12L18 9L17 9L17 8L16 8L16 6L17 6L17 7L18 7L18 6L17 6L17 5L15 5L15 8L16 8L16 9L13 9L13 8L12 8L12 6L11 6L11 7L10 7L10 5L13 5L13 7L14 7L14 5L13 5L13 4L16 4L16 3L17 3L17 1L16 1L16 3L15 3L15 1ZM32 2L32 3L33 3L33 2ZM26 5L26 6L27 6L27 7L28 7L28 6L27 6L27 5ZM31 5L31 7L32 7L32 5ZM31 8L31 9L32 9L32 10L33 10L33 11L34 11L34 9L32 9L32 8ZM16 9L16 11L15 11L15 14L13 14L13 13L14 13L14 12L12 12L12 13L11 13L11 14L9 14L9 13L10 13L10 12L9 12L9 13L7 13L7 14L6 14L6 15L8 15L8 14L9 14L9 16L10 16L10 15L11 15L11 16L12 16L12 17L13 17L13 16L12 16L12 14L13 14L13 15L14 15L14 16L16 16L16 12L17 12L17 9ZM35 9L35 10L36 10L36 11L37 11L37 10L36 10L36 9ZM2 10L2 11L5 11L5 10ZM26 10L26 11L28 11L28 10ZM0 12L0 13L1 13L1 12ZM20 12L20 13L19 13L19 14L18 14L18 13L17 13L17 14L18 14L18 15L17 15L17 16L18 16L18 15L21 15L21 14L22 14L22 13L21 13L21 12ZM33 12L33 13L34 13L34 12ZM26 14L26 15L24 15L24 18L21 18L21 19L22 19L22 20L20 20L20 17L19 17L19 19L18 19L18 17L15 17L15 18L12 18L12 20L11 20L11 18L10 18L10 19L9 19L9 20L6 20L6 21L7 21L7 22L8 22L8 21L9 21L9 20L10 20L10 21L14 21L14 24L13 24L13 25L14 25L14 24L16 24L16 25L17 25L17 26L16 26L16 27L17 27L17 26L19 26L19 27L18 27L18 28L20 28L20 29L21 29L21 30L20 30L20 31L19 31L19 32L20 32L20 31L21 31L21 30L22 30L22 31L23 31L23 32L24 32L24 33L25 33L25 31L26 31L26 28L27 28L27 27L28 27L28 26L30 26L30 25L31 25L31 26L32 26L32 27L34 27L34 26L35 26L35 25L33 25L33 26L32 26L32 25L31 25L31 24L29 24L29 23L28 23L28 22L27 22L27 21L29 21L29 22L30 22L30 23L31 23L31 22L32 22L32 21L34 21L34 20L32 20L32 21L31 21L31 20L30 20L30 21L29 21L29 18L26 18L26 15L27 15L27 14ZM22 15L22 17L23 17L23 15ZM28 15L28 16L29 16L29 15ZM2 16L2 17L4 17L4 16ZM40 16L40 18L39 18L39 19L40 19L40 18L41 18L41 16ZM16 18L16 19L17 19L17 20L16 20L16 21L15 21L15 20L14 20L14 21L15 21L15 23L16 23L16 21L18 21L18 19L17 19L17 18ZM25 18L25 19L24 19L24 20L25 20L25 21L23 21L23 22L21 22L21 21L20 21L20 20L19 20L19 21L20 21L20 22L19 22L19 23L18 23L18 25L19 25L19 26L20 26L20 28L21 28L21 26L22 26L22 27L23 27L23 28L22 28L22 29L23 29L23 31L25 31L25 29L23 29L23 28L26 28L26 27L25 27L25 25L26 25L26 24L27 24L27 22L26 22L26 23L25 23L25 21L27 21L27 19L26 19L26 18ZM30 18L30 19L31 19L31 18ZM32 18L32 19L33 19L33 18ZM25 19L25 20L26 20L26 19ZM40 20L40 21L41 21L41 20ZM30 21L30 22L31 22L31 21ZM12 22L12 23L13 23L13 22ZM2 23L2 24L3 24L3 23ZM21 23L21 25L22 25L22 26L23 26L23 27L24 27L24 25L25 25L25 23L24 23L24 25L23 25L23 23ZM19 24L19 25L20 25L20 24ZM28 24L28 25L27 25L27 26L28 26L28 25L29 25L29 24ZM31 28L31 29L32 29L32 30L33 30L33 29L34 29L34 28L33 28L33 29L32 29L32 28ZM0 29L0 33L1 33L1 30L2 30L2 29ZM6 29L6 30L7 30L7 29ZM11 29L11 33L10 33L10 34L11 34L11 36L12 36L12 34L13 34L13 37L14 37L14 34L13 34L13 33L12 33L12 29ZM28 31L28 32L30 32L30 31ZM11 33L11 34L12 34L12 33ZM30 33L30 35L31 35L31 34L32 34L32 33ZM33 33L33 36L36 36L36 33ZM38 33L38 34L37 34L37 36L39 36L39 33ZM18 34L18 35L19 35L19 34ZM24 34L24 35L25 35L25 34ZM34 34L34 35L35 35L35 34ZM9 35L9 36L8 36L8 39L9 39L9 41L10 41L10 38L9 38L9 37L10 37L10 35ZM27 37L27 38L26 38L26 39L27 39L27 40L30 40L30 39L29 39L29 38L28 38L28 37ZM34 37L34 38L36 38L36 37ZM27 38L27 39L28 39L28 38ZM37 38L37 39L38 39L38 38ZM11 39L11 41L12 41L12 40L13 40L13 41L14 41L14 40L13 40L13 39ZM0 0L0 7L7 7L7 0ZM1 1L1 6L6 6L6 1ZM2 2L2 5L5 5L5 2ZM34 0L34 7L41 7L41 0ZM35 1L35 6L40 6L40 1ZM36 2L36 5L39 5L39 2ZM0 34L0 41L7 41L7 34ZM1 35L1 40L6 40L6 35ZM2 36L2 39L5 39L5 36Z" fill="#000000"/></g></g></svg>
