<?xml version="1.0" encoding="UTF-8"?>
<svg xmlns="http://www.w3.org/2000/svg" version="1.1" width="200" height="200" viewBox="0 0 200 200"><rect x="0" y="0" width="200" height="200" fill="#ffffff"/><g transform="scale(6.897)"><g transform="translate(0,0)"><path fill-rule="evenodd" d="M8 0L8 1L9 1L9 2L8 2L8 3L9 3L9 4L8 4L8 5L9 5L9 6L8 6L8 8L9 8L9 9L10 9L10 10L9 10L9 14L10 14L10 10L11 10L11 12L12 12L12 11L13 11L13 12L14 12L14 9L12 9L12 10L11 10L11 6L10 6L10 3L12 3L12 4L11 4L11 5L12 5L12 4L13 4L13 5L15 5L15 6L14 6L14 7L13 7L13 6L12 6L12 8L14 8L14 7L15 7L15 9L16 9L16 10L15 10L15 12L16 12L16 13L13 13L13 15L14 15L14 16L13 16L13 17L12 17L12 18L11 18L11 19L10 19L10 17L11 17L11 16L12 16L12 13L11 13L11 16L10 16L10 15L9 15L9 16L8 16L8 15L7 15L7 14L6 14L6 15L5 15L5 14L4 14L4 13L3 13L3 14L4 14L4 15L2 15L2 16L4 16L4 15L5 15L5 16L6 16L6 17L1 17L1 16L0 16L0 21L1 21L1 19L2 19L2 18L3 18L3 20L2 20L2 21L8 21L8 22L9 22L9 23L8 23L8 24L9 24L9 23L10 23L10 29L12 29L12 28L13 28L13 29L16 29L16 28L17 28L17 27L18 27L18 29L26 29L26 28L25 28L25 27L23 27L23 26L21 26L21 25L24 25L24 26L25 26L25 22L26 22L26 23L27 23L27 24L26 24L26 26L27 26L27 27L28 27L28 26L27 26L27 24L28 24L28 25L29 25L29 24L28 24L28 23L27 23L27 22L28 22L28 21L29 21L29 20L28 20L28 21L25 21L25 20L23 20L23 19L25 19L25 18L26 18L26 20L27 20L27 18L28 18L28 19L29 19L29 18L28 18L28 16L27 16L27 15L28 15L28 13L29 13L29 12L27 12L27 11L28 11L28 10L26 10L26 9L27 9L27 8L26 8L26 9L25 9L25 8L24 8L24 9L23 9L23 8L22 8L22 10L24 10L24 9L25 9L25 12L24 12L24 11L20 11L20 10L19 10L19 9L20 9L20 7L21 7L21 5L20 5L20 4L19 4L19 3L18 3L18 4L17 4L17 6L16 6L16 3L15 3L15 2L17 2L17 1L18 1L18 2L19 2L19 1L20 1L20 2L21 2L21 0L19 0L19 1L18 1L18 0L17 0L17 1L15 1L15 2L14 2L14 3L15 3L15 4L13 4L13 3L12 3L12 1L13 1L13 0L11 0L11 1L10 1L10 0ZM18 5L18 6L17 6L17 7L18 7L18 6L19 6L19 7L20 7L20 6L19 6L19 5ZM9 6L9 7L10 7L10 6ZM15 6L15 7L16 7L16 6ZM5 8L5 10L4 10L4 11L3 11L3 10L2 10L2 9L1 9L1 10L2 10L2 11L0 11L0 12L2 12L2 11L3 11L3 12L4 12L4 11L5 11L5 13L8 13L8 11L7 11L7 10L6 10L6 9L7 9L7 8ZM16 8L16 9L19 9L19 8ZM28 8L28 9L29 9L29 8ZM16 10L16 11L17 11L17 10ZM6 11L6 12L7 12L7 11ZM18 11L18 12L17 12L17 13L16 13L16 16L17 16L17 17L15 17L15 16L14 16L14 17L13 17L13 18L12 18L12 19L13 19L13 20L12 20L12 21L13 21L13 22L14 22L14 21L13 21L13 20L15 20L15 21L16 21L16 22L15 22L15 23L17 23L17 22L18 22L18 23L19 23L19 24L18 24L18 25L16 25L16 24L15 24L15 25L16 25L16 26L18 26L18 27L19 27L19 28L20 28L20 27L21 27L21 26L20 26L20 27L19 27L19 24L20 24L20 20L22 20L22 19L21 19L21 17L20 17L20 15L21 15L21 14L22 14L22 15L23 15L23 16L22 16L22 18L24 18L24 12L23 12L23 14L22 14L22 12L21 12L21 13L20 13L20 12L19 12L19 11ZM18 12L18 13L17 13L17 14L18 14L18 13L19 13L19 12ZM0 13L0 15L1 15L1 14L2 14L2 13ZM26 13L26 14L27 14L27 13ZM14 14L14 15L15 15L15 14ZM6 15L6 16L7 16L7 17L6 17L6 18L7 18L7 19L6 19L6 20L7 20L7 19L8 19L8 21L10 21L10 23L11 23L11 28L12 28L12 24L14 24L14 23L12 23L12 22L11 22L11 20L10 20L10 19L9 19L9 17L10 17L10 16L9 16L9 17L8 17L8 16L7 16L7 15ZM17 15L17 16L18 16L18 17L17 17L17 19L16 19L16 18L13 18L13 19L15 19L15 20L16 20L16 21L17 21L17 19L18 19L18 20L19 20L19 19L20 19L20 18L19 18L19 19L18 19L18 17L19 17L19 15ZM25 15L25 16L26 16L26 15ZM21 21L21 24L24 24L24 21ZM22 22L22 23L23 23L23 22ZM13 25L13 26L14 26L14 25ZM15 27L15 28L16 28L16 27ZM22 27L22 28L23 28L23 27ZM27 28L27 29L28 29L28 28ZM0 0L0 7L7 7L7 0ZM1 1L1 6L6 6L6 1ZM2 2L2 5L5 5L5 2ZM22 0L22 7L29 7L29 0ZM23 1L23 6L28 6L28 1ZM24 2L24 5L27 5L27 2ZM0 22L0 29L7 29L7 22ZM1 23L1 28L6 28L6 23ZM2 24L2 27L5 27L5 24Z" fill="#000000"/></g></g></svg>
