<?xml version="1.0" encoding="UTF-8"?>
<svg xmlns="http://www.w3.org/2000/svg" version="1.1" width="200" height="200" viewBox="0 0 200 200"><rect x="0" y="0" width="200" height="200" fill="#ffffff"/><g transform="scale(4.878)"><g transform="translate(0,0)"><path fill-rule="evenodd" d="M8 0L8 3L9 3L9 2L10 2L10 4L9 4L9 5L8 5L8 9L7 9L7 8L6 8L6 9L7 9L7 10L6 10L6 11L3 11L3 10L5 10L5 8L2 8L2 9L3 9L3 10L2 10L2 11L3 11L3 12L2 12L2 13L1 13L1 12L0 12L0 14L1 14L1 15L2 15L2 14L3 14L3 13L4 13L4 16L3 16L3 18L5 18L5 17L7 17L7 18L6 18L6 19L7 19L7 20L5 20L5 21L4 21L4 22L3 22L3 25L2 25L2 24L1 24L1 26L0 26L0 28L1 28L1 26L3 26L3 28L4 28L4 27L5 27L5 29L4 29L4 30L3 30L3 31L4 31L4 32L5 32L5 33L7 33L7 32L8 32L8 29L9 29L9 28L10 28L10 29L11 29L11 27L12 27L12 30L11 30L11 32L10 32L10 33L8 33L8 34L10 34L10 33L11 33L11 35L13 35L13 33L15 33L15 32L16 32L16 34L18 34L18 33L20 33L20 34L19 34L19 35L17 35L17 36L19 36L19 37L20 37L20 39L19 39L19 38L18 38L18 37L17 37L17 38L18 38L18 39L17 39L17 40L22 40L22 41L23 41L23 38L24 38L24 41L25 41L25 40L26 40L26 41L27 41L27 40L28 40L28 38L30 38L30 40L29 40L29 41L30 41L30 40L31 40L31 41L32 41L32 40L33 40L33 41L34 41L34 40L33 40L33 39L35 39L35 40L36 40L36 39L37 39L37 38L38 38L38 39L39 39L39 40L40 40L40 38L41 38L41 37L40 37L40 36L37 36L37 35L40 35L40 34L41 34L41 33L40 33L40 30L41 30L41 29L40 29L40 28L41 28L41 27L40 27L40 26L41 26L41 23L40 23L40 26L39 26L39 24L37 24L37 25L36 25L36 23L35 23L35 25L34 25L34 24L33 24L33 23L31 23L31 22L33 22L33 21L34 21L34 22L36 22L36 21L39 21L39 20L36 20L36 19L35 19L35 17L36 17L36 18L38 18L38 17L39 17L39 16L38 16L38 15L40 15L40 14L41 14L41 13L40 13L40 14L38 14L38 15L35 15L35 17L34 17L34 16L33 16L33 15L34 15L34 14L33 14L33 13L34 13L34 12L33 12L33 13L32 13L32 14L31 14L31 12L32 12L32 11L31 11L31 10L33 10L33 11L34 11L34 10L35 10L35 11L37 11L37 12L38 12L38 11L39 11L39 12L41 12L41 11L40 11L40 10L41 10L41 8L38 8L38 9L40 9L40 10L37 10L37 9L36 9L36 8L33 8L33 6L32 6L32 8L33 8L33 9L30 9L30 8L31 8L31 5L32 5L32 4L33 4L33 3L32 3L32 2L33 2L33 0L30 0L30 2L31 2L31 3L30 3L30 4L31 4L31 5L26 5L26 4L27 4L27 3L28 3L28 4L29 4L29 1L27 1L27 0L24 0L24 1L23 1L23 2L22 2L22 1L20 1L20 2L22 2L22 3L21 3L21 4L20 4L20 3L19 3L19 2L18 2L18 3L16 3L16 2L17 2L17 0L14 0L14 1L11 1L11 0L10 0L10 1L9 1L9 0ZM10 1L10 2L11 2L11 1ZM14 1L14 2L12 2L12 3L11 3L11 4L10 4L10 5L9 5L9 10L7 10L7 11L6 11L6 12L5 12L5 15L6 15L6 16L8 16L8 20L9 20L9 21L10 21L10 20L11 20L11 19L10 19L10 18L9 18L9 16L8 16L8 15L10 15L10 17L11 17L11 18L12 18L12 19L14 19L14 20L12 20L12 21L11 21L11 22L10 22L10 24L8 24L8 25L5 25L5 26L9 26L9 25L10 25L10 27L11 27L11 26L12 26L12 27L13 27L13 30L12 30L12 32L13 32L13 31L14 31L14 30L15 30L15 29L16 29L16 31L17 31L17 33L18 33L18 32L20 32L20 31L18 31L18 30L20 30L20 29L21 29L21 26L20 26L20 25L23 25L23 26L24 26L24 27L26 27L26 25L27 25L27 26L29 26L29 27L28 27L28 29L29 29L29 30L26 30L26 31L25 31L25 30L24 30L24 29L23 29L23 27L22 27L22 30L21 30L21 31L22 31L22 30L24 30L24 31L23 31L23 33L21 33L21 35L20 35L20 36L21 36L21 37L22 37L22 38L23 38L23 37L24 37L24 38L25 38L25 39L26 39L26 40L27 40L27 39L26 39L26 38L28 38L28 37L30 37L30 38L32 38L32 39L31 39L31 40L32 40L32 39L33 39L33 38L36 38L36 37L33 37L33 38L32 38L32 36L31 36L31 35L30 35L30 34L32 34L32 32L36 32L36 31L34 31L34 30L36 30L36 29L37 29L37 30L38 30L38 32L37 32L37 34L39 34L39 33L38 33L38 32L39 32L39 26L38 26L38 28L36 28L36 25L35 25L35 28L36 28L36 29L34 29L34 28L33 28L33 27L34 27L34 25L33 25L33 24L31 24L31 23L30 23L30 21L33 21L33 20L34 20L34 21L36 21L36 20L35 20L35 19L34 19L34 18L31 18L31 17L30 17L30 19L31 19L31 20L29 20L29 16L30 16L30 15L31 15L31 14L30 14L30 13L28 13L28 14L30 14L30 15L28 15L28 17L27 17L27 18L26 18L26 14L27 14L27 13L26 13L26 12L28 12L28 11L29 11L29 12L31 12L31 11L30 11L30 9L28 9L28 8L30 8L30 6L29 6L29 7L28 7L28 6L27 6L27 7L26 7L26 6L25 6L25 4L26 4L26 3L27 3L27 2L26 2L26 3L25 3L25 2L23 2L23 3L25 3L25 4L23 4L23 5L22 5L22 6L21 6L21 7L22 7L22 8L23 8L23 7L24 7L24 9L22 9L22 10L21 10L21 8L20 8L20 11L21 11L21 13L20 13L20 12L19 12L19 10L18 10L18 9L19 9L19 7L20 7L20 4L19 4L19 7L18 7L18 6L17 6L17 7L18 7L18 8L16 8L16 5L15 5L15 4L16 4L16 3L14 3L14 2L16 2L16 1ZM31 1L31 2L32 2L32 1ZM13 3L13 4L14 4L14 3ZM31 3L31 4L32 4L32 3ZM11 4L11 5L10 5L10 7L11 7L11 5L12 5L12 8L10 8L10 10L9 10L9 12L8 12L8 13L7 13L7 12L6 12L6 13L7 13L7 14L6 14L6 15L7 15L7 14L8 14L8 13L9 13L9 14L11 14L11 15L13 15L13 16L12 16L12 18L13 18L13 17L15 17L15 18L14 18L14 19L15 19L15 20L14 20L14 22L11 22L11 23L13 23L13 24L10 24L10 25L13 25L13 24L14 24L14 29L15 29L15 27L16 27L16 28L20 28L20 26L19 26L19 25L20 25L20 24L19 24L19 25L17 25L17 24L18 24L18 23L20 23L20 22L21 22L21 20L20 20L20 21L18 21L18 22L17 22L17 19L18 19L18 20L19 20L19 18L17 18L17 17L19 17L19 16L17 16L17 15L15 15L15 16L14 16L14 14L15 14L15 13L16 13L16 12L17 12L17 11L18 11L18 10L17 10L17 9L15 9L15 10L14 10L14 12L13 12L13 11L12 11L12 10L11 10L11 9L12 9L12 8L13 8L13 5L12 5L12 4ZM14 5L14 7L15 7L15 5ZM22 6L22 7L23 7L23 6ZM24 6L24 7L25 7L25 6ZM27 7L27 8L28 8L28 7ZM25 8L25 9L26 9L26 10L27 10L27 11L28 11L28 10L27 10L27 9L26 9L26 8ZM0 9L0 10L1 10L1 9ZM15 10L15 12L14 12L14 13L15 13L15 12L16 12L16 10ZM23 10L23 11L22 11L22 13L21 13L21 15L20 15L20 16L22 16L22 18L23 18L23 19L24 19L24 20L23 20L23 21L24 21L24 20L25 20L25 19L26 19L26 18L25 18L25 17L24 17L24 14L25 14L25 12L26 12L26 11L25 11L25 10ZM23 11L23 12L24 12L24 11ZM9 12L9 13L12 13L12 14L13 14L13 12ZM17 13L17 14L20 14L20 13ZM22 13L22 14L23 14L23 13ZM36 13L36 14L37 14L37 13ZM32 14L32 15L33 15L33 14ZM0 16L0 22L1 22L1 23L2 23L2 22L1 22L1 16ZM15 16L15 17L16 17L16 16ZM32 16L32 17L33 17L33 16ZM36 16L36 17L38 17L38 16ZM40 16L40 18L39 18L39 19L40 19L40 18L41 18L41 16ZM23 17L23 18L24 18L24 19L25 19L25 18L24 18L24 17ZM15 18L15 19L16 19L16 18ZM27 18L27 20L26 20L26 22L24 22L24 24L23 24L23 25L25 25L25 24L27 24L27 25L29 25L29 26L30 26L30 25L31 25L31 26L33 26L33 25L31 25L31 24L27 24L27 23L29 23L29 22L27 22L27 21L29 21L29 20L28 20L28 18ZM3 19L3 20L2 20L2 21L3 21L3 20L4 20L4 19ZM32 19L32 20L33 20L33 19ZM15 20L15 23L14 23L14 24L16 24L16 23L17 23L17 22L16 22L16 20ZM40 20L40 21L41 21L41 20ZM6 21L6 22L4 22L4 24L7 24L7 23L9 23L9 22L7 22L7 21ZM6 22L6 23L7 23L7 22ZM38 22L38 23L39 23L39 22ZM21 23L21 24L22 24L22 23ZM15 25L15 26L16 26L16 25ZM18 26L18 27L19 27L19 26ZM6 27L6 28L7 28L7 29L6 29L6 30L4 30L4 31L5 31L5 32L7 32L7 31L6 31L6 30L7 30L7 29L8 29L8 28L7 28L7 27ZM31 27L31 28L29 28L29 29L31 29L31 28L32 28L32 29L33 29L33 30L32 30L32 31L33 31L33 30L34 30L34 29L33 29L33 28L32 28L32 27ZM25 28L25 29L27 29L27 28ZM0 29L0 33L1 33L1 29ZM9 30L9 31L10 31L10 30ZM29 30L29 31L28 31L28 33L31 33L31 32L29 32L29 31L31 31L31 30ZM26 31L26 32L25 32L25 33L23 33L23 35L24 35L24 37L25 37L25 38L26 38L26 37L28 37L28 36L27 36L27 35L29 35L29 34L27 34L27 33L26 33L26 32L27 32L27 31ZM2 32L2 33L3 33L3 32ZM25 33L25 34L24 34L24 35L25 35L25 36L26 36L26 33ZM33 33L33 36L36 36L36 33ZM14 34L14 36L12 36L12 37L10 37L10 36L8 36L8 39L9 39L9 37L10 37L10 40L9 40L9 41L11 41L11 40L12 40L12 41L13 41L13 40L14 40L14 37L16 37L16 36L15 36L15 34ZM34 34L34 35L35 35L35 34ZM30 36L30 37L31 37L31 36ZM38 37L38 38L39 38L39 37ZM11 38L11 39L12 39L12 40L13 40L13 38ZM15 39L15 40L16 40L16 39ZM0 0L0 7L7 7L7 0ZM1 1L1 6L6 6L6 1ZM2 2L2 5L5 5L5 2ZM34 0L34 7L41 7L41 0ZM35 1L35 6L40 6L40 1ZM36 2L36 5L39 5L39 2ZM0 34L0 41L7 41L7 34ZM1 35L1 40L6 40L6 35ZM2 36L2 39L5 39L5 36Z" fill="#000000"/></g></g></svg>
