<?xml version="1.0" encoding="UTF-8"?>
<svg xmlns="http://www.w3.org/2000/svg" version="1.1" width="200" height="200" viewBox="0 0 200 200"><rect x="0" y="0" width="200" height="200" fill="#ffffff"/><g transform="scale(4.878)"><g transform="translate(0,0)"><path fill-rule="evenodd" d="M8 0L8 3L9 3L9 0ZM14 0L14 2L13 2L13 1L12 1L12 2L11 2L11 1L10 1L10 2L11 2L11 4L9 4L9 5L8 5L8 10L4 10L4 11L2 11L2 9L5 9L5 8L2 8L2 9L1 9L1 11L2 11L2 12L1 12L1 13L0 13L0 25L1 25L1 23L2 23L2 22L1 22L1 21L3 21L3 20L6 20L6 21L4 21L4 22L6 22L6 23L4 23L4 24L3 24L3 25L2 25L2 26L0 26L0 33L1 33L1 30L2 30L2 31L4 31L4 32L6 32L6 33L7 33L7 32L8 32L8 31L9 31L9 32L10 32L10 33L11 33L11 32L13 32L13 33L12 33L12 34L13 34L13 33L14 33L14 34L15 34L15 35L14 35L14 36L13 36L13 35L11 35L11 34L9 34L9 33L8 33L8 34L9 34L9 35L10 35L10 36L8 36L8 39L9 39L9 41L13 41L13 40L11 40L11 39L12 39L12 38L14 38L14 39L15 39L15 40L14 40L14 41L15 41L15 40L16 40L16 41L19 41L19 40L20 40L20 41L21 41L21 40L20 40L20 39L19 39L19 38L22 38L22 41L23 41L23 39L24 39L24 40L26 40L26 41L27 41L27 40L28 40L28 41L32 41L32 40L33 40L33 41L34 41L34 40L33 40L33 39L35 39L35 40L36 40L36 39L37 39L37 40L40 40L40 38L41 38L41 37L40 37L40 36L41 36L41 35L40 35L40 34L41 34L41 33L40 33L40 32L38 32L38 31L40 31L40 30L41 30L41 29L39 29L39 30L38 30L38 29L35 29L35 30L34 30L34 31L35 31L35 32L33 32L33 31L32 31L32 30L33 30L33 29L34 29L34 28L33 28L33 27L34 27L34 26L35 26L35 25L36 25L36 26L37 26L37 27L36 27L36 28L38 28L38 26L39 26L39 28L41 28L41 27L40 27L40 26L41 26L41 23L39 23L39 24L40 24L40 26L39 26L39 25L36 25L36 24L37 24L37 22L38 22L38 21L39 21L39 20L38 20L38 17L39 17L39 18L41 18L41 16L40 16L40 17L39 17L39 16L38 16L38 13L36 13L36 14L37 14L37 15L36 15L36 16L35 16L35 17L34 17L34 16L32 16L32 17L31 17L31 12L29 12L29 13L28 13L28 12L24 12L24 14L23 14L23 11L24 11L24 10L26 10L26 11L28 11L28 10L26 10L26 7L27 7L27 6L28 6L28 8L27 8L27 9L30 9L30 10L29 10L29 11L31 11L31 10L32 10L32 9L34 9L34 11L32 11L32 13L33 13L33 14L32 14L32 15L34 15L34 13L35 13L35 9L36 9L36 10L37 10L37 11L36 11L36 12L38 12L38 11L40 11L40 12L39 12L39 13L40 13L40 14L39 14L39 15L40 15L40 14L41 14L41 13L40 13L40 12L41 12L41 11L40 11L40 10L41 10L41 8L38 8L38 9L40 9L40 10L37 10L37 9L36 9L36 8L33 8L33 6L32 6L32 9L30 9L30 8L31 8L31 5L33 5L33 4L28 4L28 5L27 5L27 4L25 4L25 2L23 2L23 3L22 3L22 1L25 1L25 0L21 0L21 1L19 1L19 0L18 0L18 1L19 1L19 2L20 2L20 3L22 3L22 4L21 4L21 5L22 5L22 7L21 7L21 6L20 6L20 7L19 7L19 6L18 6L18 7L19 7L19 9L18 9L18 10L17 10L17 11L16 11L16 10L15 10L15 8L14 8L14 10L13 10L13 9L12 9L12 10L13 10L13 11L14 11L14 12L12 12L12 15L14 15L14 14L15 14L15 13L14 13L14 12L18 12L18 13L19 13L19 14L17 14L17 15L15 15L15 16L16 16L16 17L17 17L17 18L16 18L16 19L15 19L15 17L13 17L13 16L12 16L12 19L10 19L10 18L11 18L11 15L10 15L10 14L11 14L11 11L10 11L10 10L9 10L9 9L10 9L10 8L12 8L12 7L13 7L13 6L12 6L12 7L11 7L11 6L10 6L10 8L9 8L9 5L12 5L12 4L13 4L13 5L14 5L14 7L15 7L15 6L16 6L16 8L17 8L17 4L18 4L18 3L16 3L16 2L17 2L17 0L16 0L16 1L15 1L15 0ZM26 0L26 1L27 1L27 2L26 2L26 3L31 3L31 2L30 2L30 1L32 1L32 2L33 2L33 0L29 0L29 1L27 1L27 0ZM14 3L14 4L16 4L16 3ZM23 3L23 4L24 4L24 3ZM19 4L19 5L20 5L20 4ZM25 5L25 7L26 7L26 6L27 6L27 5ZM29 5L29 8L30 8L30 5ZM23 6L23 7L22 7L22 8L20 8L20 9L19 9L19 13L21 13L21 12L20 12L20 11L23 11L23 10L24 10L24 8L23 8L23 7L24 7L24 6ZM6 8L6 9L7 9L7 8ZM22 8L22 10L23 10L23 8ZM6 11L6 12L4 12L4 13L3 13L3 12L2 12L2 13L3 13L3 14L2 14L2 16L3 16L3 17L4 17L4 19L5 19L5 17L4 17L4 16L5 16L5 14L4 14L4 13L6 13L6 14L7 14L7 13L6 13L6 12L7 12L7 11ZM9 12L9 13L8 13L8 14L10 14L10 12ZM33 12L33 13L34 13L34 12ZM13 13L13 14L14 14L14 13ZM25 13L25 14L27 14L27 16L25 16L25 15L24 15L24 16L23 16L23 14L21 14L21 15L20 15L20 14L19 14L19 15L20 15L20 21L19 21L19 22L18 22L18 21L17 21L17 22L18 22L18 24L17 24L17 23L16 23L16 22L15 22L15 28L16 28L16 27L17 27L17 25L18 25L18 28L17 28L17 29L16 29L16 30L15 30L15 29L14 29L14 26L12 26L12 24L13 24L13 25L14 25L14 24L13 24L13 23L12 23L12 22L14 22L14 21L15 21L15 19L14 19L14 18L13 18L13 19L14 19L14 21L13 21L13 20L10 20L10 21L9 21L9 19L8 19L8 21L6 21L6 22L7 22L7 23L6 23L6 24L8 24L8 23L10 23L10 24L11 24L11 26L9 26L9 25L6 25L6 26L7 26L7 27L5 27L5 26L4 26L4 25L3 25L3 26L2 26L2 27L1 27L1 29L2 29L2 30L3 30L3 29L6 29L6 30L4 30L4 31L6 31L6 32L7 32L7 31L6 31L6 30L7 30L7 29L6 29L6 28L7 28L7 27L8 27L8 28L9 28L9 27L10 27L10 29L9 29L9 31L10 31L10 32L11 32L11 31L12 31L12 30L13 30L13 31L14 31L14 32L15 32L15 34L16 34L16 35L15 35L15 36L16 36L16 37L15 37L15 38L16 38L16 37L17 37L17 38L18 38L18 37L17 37L17 36L18 36L18 35L17 35L17 34L18 34L18 33L17 33L17 32L19 32L19 33L20 33L20 35L19 35L19 36L20 36L20 37L24 37L24 36L23 36L23 35L24 35L24 34L25 34L25 33L23 33L23 35L22 35L22 33L20 33L20 31L21 31L21 32L26 32L26 33L27 33L27 34L26 34L26 35L25 35L25 36L26 36L26 37L27 37L27 38L26 38L26 39L27 39L27 38L28 38L28 40L30 40L30 37L31 37L31 40L32 40L32 39L33 39L33 38L36 38L36 37L32 37L32 36L29 36L29 35L27 35L27 34L29 34L29 33L27 33L27 31L26 31L26 29L25 29L25 28L24 28L24 26L23 26L23 27L22 27L22 25L21 25L21 24L20 24L20 23L22 23L22 22L21 22L21 18L22 18L22 19L24 19L24 18L26 18L26 19L25 19L25 20L24 20L24 22L23 22L23 25L25 25L25 24L24 24L24 22L25 22L25 21L27 21L27 22L26 22L26 25L27 25L27 26L28 26L28 27L26 27L26 28L31 28L31 29L30 29L30 30L29 30L29 29L28 29L28 30L29 30L29 31L28 31L28 32L30 32L30 33L31 33L31 34L30 34L30 35L31 35L31 34L32 34L32 33L31 33L31 31L30 31L30 30L32 30L32 29L33 29L33 28L32 28L32 27L33 27L33 26L34 26L34 25L35 25L35 24L36 24L36 23L35 23L35 22L36 22L36 21L35 21L35 19L36 19L36 20L37 20L37 21L38 21L38 20L37 20L37 18L36 18L36 17L38 17L38 16L36 16L36 17L35 17L35 19L34 19L34 18L33 18L33 17L32 17L32 18L31 18L31 17L29 17L29 16L30 16L30 15L29 15L29 14L30 14L30 13L29 13L29 14L27 14L27 13ZM3 15L3 16L4 16L4 15ZM6 15L6 16L7 16L7 17L6 17L6 18L7 18L7 17L8 17L8 18L10 18L10 16L7 16L7 15ZM21 15L21 17L23 17L23 18L24 18L24 17L23 17L23 16L22 16L22 15ZM28 15L28 16L29 16L29 15ZM1 17L1 19L2 19L2 17ZM18 18L18 19L16 19L16 20L18 20L18 19L19 19L19 18ZM27 18L27 19L28 19L28 20L27 20L27 21L29 21L29 18ZM30 18L30 19L31 19L31 20L30 20L30 21L31 21L31 22L30 22L30 23L31 23L31 22L32 22L32 25L31 25L31 24L29 24L29 25L28 25L28 24L27 24L27 25L28 25L28 26L30 26L30 25L31 25L31 26L32 26L32 25L34 25L34 22L35 22L35 21L34 21L34 20L32 20L32 19L33 19L33 18L32 18L32 19L31 19L31 18ZM6 19L6 20L7 20L7 19ZM31 20L31 21L32 21L32 22L34 22L34 21L32 21L32 20ZM40 20L40 21L41 21L41 20ZM10 22L10 23L11 23L11 22ZM27 22L27 23L28 23L28 22ZM18 24L18 25L20 25L20 26L19 26L19 27L20 27L20 28L19 28L19 29L17 29L17 31L20 31L20 30L19 30L19 29L21 29L21 30L23 30L23 29L22 29L22 28L21 28L21 25L20 25L20 24ZM3 26L3 27L2 27L2 29L3 29L3 28L5 28L5 27L4 27L4 26ZM8 26L8 27L9 27L9 26ZM11 29L11 30L10 30L10 31L11 31L11 30L12 30L12 29ZM24 29L24 30L25 30L25 29ZM35 30L35 31L38 31L38 30ZM37 32L37 34L39 34L39 33L38 33L38 32ZM33 33L33 36L36 36L36 33ZM34 34L34 35L35 35L35 34ZM16 35L16 36L17 36L17 35ZM20 35L20 36L21 36L21 35ZM26 35L26 36L27 36L27 37L28 37L28 38L29 38L29 37L28 37L28 36L27 36L27 35ZM38 35L38 36L37 36L37 37L38 37L38 36L40 36L40 35ZM10 36L10 37L11 37L11 36ZM9 38L9 39L10 39L10 38ZM24 38L24 39L25 39L25 38ZM37 38L37 39L38 39L38 38ZM0 0L0 7L7 7L7 0ZM1 1L1 6L6 6L6 1ZM2 2L2 5L5 5L5 2ZM34 0L34 7L41 7L41 0ZM35 1L35 6L40 6L40 1ZM36 2L36 5L39 5L39 2ZM0 34L0 41L7 41L7 34ZM1 35L1 40L6 40L6 35ZM2 36L2 39L5 39L5 36Z" fill="#000000"/></g></g></svg>
