<?xml version="1.0" encoding="UTF-8"?>
<svg xmlns="http://www.w3.org/2000/svg" version="1.1" width="200" height="200" viewBox="0 0 200 200"><rect x="0" y="0" width="200" height="200" fill="#ffffff"/><g transform="scale(6.897)"><g transform="translate(0,0)"><path fill-rule="evenodd" d="M9 0L9 1L10 1L10 0ZM13 0L13 1L11 1L11 2L9 2L9 4L8 4L8 5L9 5L9 4L10 4L10 5L11 5L11 6L10 6L10 7L11 7L11 8L12 8L12 7L13 7L13 8L14 8L14 11L13 11L13 9L11 9L11 10L10 10L10 8L9 8L9 6L8 6L8 8L6 8L6 9L7 9L7 10L5 10L5 11L4 11L4 8L2 8L2 10L1 10L1 9L0 9L0 10L1 10L1 12L2 12L2 10L3 10L3 11L4 11L4 12L3 12L3 13L2 13L2 14L5 14L5 15L7 15L7 16L4 16L4 17L5 17L5 18L6 18L6 19L5 19L5 20L4 20L4 19L3 19L3 17L2 17L2 20L1 20L1 21L3 21L3 20L4 20L4 21L8 21L8 23L9 23L9 24L10 24L10 23L11 23L11 22L12 22L12 24L11 24L11 25L10 25L10 26L9 26L9 25L8 25L8 27L9 27L9 28L11 28L11 29L14 29L14 28L13 28L13 27L15 27L15 29L17 29L17 28L16 28L16 27L18 27L18 28L19 28L19 29L20 29L20 28L19 28L19 26L20 26L20 25L23 25L23 26L24 26L24 27L22 27L22 29L23 29L23 28L25 28L25 26L26 26L26 27L27 27L27 28L29 28L29 26L28 26L28 27L27 27L27 25L28 25L28 23L29 23L29 22L28 22L28 20L27 20L27 22L28 22L28 23L27 23L27 25L26 25L26 23L25 23L25 22L26 22L26 18L29 18L29 17L26 17L26 16L25 16L25 15L24 15L24 16L23 16L23 17L21 17L21 18L20 18L20 17L19 17L19 18L20 18L20 20L19 20L19 19L18 19L18 18L17 18L17 19L16 19L16 16L19 16L19 15L20 15L20 14L21 14L21 13L20 13L20 12L22 12L22 9L23 9L23 13L22 13L22 15L23 15L23 14L24 14L24 13L25 13L25 14L26 14L26 15L27 15L27 16L28 16L28 15L29 15L29 14L28 14L28 15L27 15L27 13L28 13L28 12L29 12L29 11L28 11L28 12L27 12L27 11L26 11L26 10L29 10L29 9L25 9L25 8L24 8L24 9L23 9L23 8L21 8L21 3L20 3L20 2L18 2L18 1L16 1L16 0ZM13 1L13 2L14 2L14 3L15 3L15 5L13 5L13 3L12 3L12 2L11 2L11 5L12 5L12 6L11 6L11 7L12 7L12 6L13 6L13 7L14 7L14 8L17 8L17 9L18 9L18 8L19 8L19 10L20 10L20 9L21 9L21 8L19 8L19 7L20 7L20 5L19 5L19 7L18 7L18 6L17 6L17 5L18 5L18 2L16 2L16 1L15 1L15 2L14 2L14 1ZM15 2L15 3L16 3L16 5L15 5L15 6L14 6L14 7L15 7L15 6L16 6L16 7L17 7L17 6L16 6L16 5L17 5L17 3L16 3L16 2ZM19 3L19 4L20 4L20 3ZM24 9L24 10L25 10L25 9ZM7 10L7 11L6 11L6 12L7 12L7 11L8 11L8 10ZM9 10L9 11L10 11L10 10ZM16 10L16 11L15 11L15 12L14 12L14 13L15 13L15 15L14 15L14 14L13 14L13 15L12 15L12 13L11 13L11 14L10 14L10 12L9 12L9 14L10 14L10 15L8 15L8 14L7 14L7 13L6 13L6 14L7 14L7 15L8 15L8 17L6 17L6 18L8 18L8 17L9 17L9 19L8 19L8 21L9 21L9 23L10 23L10 22L11 22L11 20L12 20L12 19L11 19L11 17L13 17L13 16L15 16L15 15L17 15L17 14L16 14L16 13L17 13L17 12L20 12L20 11L18 11L18 10ZM11 11L11 12L12 12L12 11ZM25 11L25 13L27 13L27 12L26 12L26 11ZM4 12L4 13L5 13L5 12ZM0 13L0 14L1 14L1 13ZM18 13L18 15L19 15L19 14L20 14L20 13ZM0 15L0 17L1 17L1 16L2 16L2 15ZM11 15L11 16L10 16L10 17L11 17L11 16L12 16L12 15ZM24 16L24 17L23 17L23 18L22 18L22 19L21 19L21 20L22 20L22 19L24 19L24 18L26 18L26 17L25 17L25 16ZM14 17L14 18L13 18L13 21L12 21L12 22L13 22L13 23L14 23L14 25L13 25L13 24L12 24L12 26L14 26L14 25L15 25L15 27L16 27L16 26L18 26L18 25L20 25L20 24L17 24L17 23L15 23L15 22L16 22L16 21L17 21L17 22L18 22L18 21L17 21L17 20L16 20L16 21L15 21L15 20L14 20L14 18L15 18L15 17ZM0 18L0 19L1 19L1 18ZM6 19L6 20L7 20L7 19ZM9 19L9 21L10 21L10 19ZM14 21L14 22L15 22L15 21ZM19 21L19 23L20 23L20 21ZM21 21L21 24L24 24L24 21ZM22 22L22 23L23 23L23 22ZM15 24L15 25L16 25L16 24ZM24 25L24 26L25 26L25 25ZM11 27L11 28L12 28L12 27ZM0 0L0 7L7 7L7 0ZM1 1L1 6L6 6L6 1ZM2 2L2 5L5 5L5 2ZM22 0L22 7L29 7L29 0ZM23 1L23 6L28 6L28 1ZM24 2L24 5L27 5L27 2ZM0 22L0 29L7 29L7 22ZM1 23L1 28L6 28L6 23ZM2 24L2 27L5 27L5 24Z" fill="#000000"/></g></g></svg>
