<?xml version="1.0" encoding="UTF-8"?>
<svg xmlns="http://www.w3.org/2000/svg" version="1.1" width="200" height="200" viewBox="0 0 200 200"><rect x="0" y="0" width="200" height="200" fill="#ffffff"/><g transform="scale(4.878)"><g transform="translate(0,0)"><path fill-rule="evenodd" d="M8 0L8 1L9 1L9 3L8 3L8 4L9 4L9 6L8 6L8 7L9 7L9 6L10 6L10 8L8 8L8 9L10 9L10 10L11 10L11 11L10 11L10 13L14 13L14 15L16 15L16 16L14 16L14 17L13 17L13 14L10 14L10 15L8 15L8 16L6 16L6 17L8 17L8 18L9 18L9 19L11 19L11 20L12 20L12 21L13 21L13 20L12 20L12 19L11 19L11 18L12 18L12 17L13 17L13 19L15 19L15 18L16 18L16 19L17 19L17 22L16 22L16 24L15 24L15 21L14 21L14 23L13 23L13 22L11 22L11 23L10 23L10 24L9 24L9 22L8 22L8 19L7 19L7 18L5 18L5 14L6 14L6 15L7 15L7 14L9 14L9 12L8 12L8 11L9 11L9 10L8 10L8 11L7 11L7 10L6 10L6 9L7 9L7 8L4 8L4 9L3 9L3 8L2 8L2 10L3 10L3 11L5 11L5 12L1 12L1 11L0 11L0 15L1 15L1 14L2 14L2 13L5 13L5 14L4 14L4 17L3 17L3 18L2 18L2 19L1 19L1 18L0 18L0 20L1 20L1 21L2 21L2 20L3 20L3 21L4 21L4 22L6 22L6 23L8 23L8 24L6 24L6 25L5 25L5 23L3 23L3 22L2 22L2 23L1 23L1 24L0 24L0 26L2 26L2 29L3 29L3 27L4 27L4 28L5 28L5 29L4 29L4 30L2 30L2 31L1 31L1 30L0 30L0 31L1 31L1 32L0 32L0 33L1 33L1 32L2 32L2 33L7 33L7 32L9 32L9 33L8 33L8 34L9 34L9 35L8 35L8 37L9 37L9 38L8 38L8 39L9 39L9 38L11 38L11 37L9 37L9 36L12 36L12 38L13 38L13 41L15 41L15 40L16 40L16 41L17 41L17 40L16 40L16 38L17 38L17 39L18 39L18 40L19 40L19 39L18 39L18 38L19 38L19 37L16 37L16 38L15 38L15 40L14 40L14 37L15 37L15 36L18 36L18 35L16 35L16 34L14 34L14 35L13 35L13 36L12 36L12 33L11 33L11 32L9 32L9 31L11 31L11 30L12 30L12 32L13 32L13 33L15 33L15 32L16 32L16 31L17 31L17 32L18 32L18 33L17 33L17 34L19 34L19 35L21 35L21 37L20 37L20 39L22 39L22 35L21 35L21 34L20 34L20 32L21 32L21 33L24 33L24 34L23 34L23 36L25 36L25 35L26 35L26 34L25 34L25 33L27 33L27 32L28 32L28 31L27 31L27 30L28 30L28 29L26 29L26 28L29 28L29 29L30 29L30 28L32 28L32 29L31 29L31 30L30 30L30 31L29 31L29 33L30 33L30 32L31 32L31 35L32 35L32 37L31 37L31 38L30 38L30 37L29 37L29 38L28 38L28 39L29 39L29 41L31 41L31 39L32 39L32 41L33 41L33 38L32 38L32 37L35 37L35 39L36 39L36 40L37 40L37 38L36 38L36 37L38 37L38 38L40 38L40 39L38 39L38 41L41 41L41 40L40 40L40 39L41 39L41 32L40 32L40 33L37 33L37 32L36 32L36 30L35 30L35 32L33 32L33 31L34 31L34 30L33 30L33 27L29 27L29 26L28 26L28 27L26 27L26 26L27 26L27 25L24 25L24 24L23 24L23 23L24 23L24 22L26 22L26 23L25 23L25 24L26 24L26 23L27 23L27 24L28 24L28 23L29 23L29 25L30 25L30 26L31 26L31 24L32 24L32 23L33 23L33 22L32 22L32 23L30 23L30 22L31 22L31 20L33 20L33 19L34 19L34 18L36 18L36 15L37 15L37 17L38 17L38 15L39 15L39 14L38 14L38 13L39 13L39 12L38 12L38 13L37 13L37 14L36 14L36 13L35 13L35 14L34 14L34 12L35 12L35 11L38 11L38 8L37 8L37 10L36 10L36 9L34 9L34 8L33 8L33 6L32 6L32 5L33 5L33 2L32 2L32 0L27 0L27 2L29 2L29 4L30 4L30 5L28 5L28 4L27 4L27 6L26 6L26 8L25 8L25 10L24 10L24 8L23 8L23 6L24 6L24 7L25 7L25 5L26 5L26 3L25 3L25 4L24 4L24 3L23 3L23 2L26 2L26 1L25 1L25 0L24 0L24 1L23 1L23 0L21 0L21 1L20 1L20 0L14 0L14 2L15 2L15 4L14 4L14 3L13 3L13 2L12 2L12 3L11 3L11 6L10 6L10 4L9 4L9 3L10 3L10 2L11 2L11 0ZM12 0L12 1L13 1L13 0ZM16 1L16 2L17 2L17 3L16 3L16 4L15 4L15 5L14 5L14 4L12 4L12 5L13 5L13 8L11 8L11 9L13 9L13 8L14 8L14 10L15 10L15 14L16 14L16 15L17 15L17 16L16 16L16 18L18 18L18 17L19 17L19 19L18 19L18 21L20 21L20 20L19 20L19 19L21 19L21 22L20 22L20 23L19 23L19 24L18 24L18 23L17 23L17 24L18 24L18 25L16 25L16 26L17 26L17 27L16 27L16 28L14 28L14 26L15 26L15 24L14 24L14 26L13 26L13 27L12 27L12 25L13 25L13 23L11 23L11 24L12 24L12 25L11 25L11 26L10 26L10 25L9 25L9 26L10 26L10 27L6 27L6 26L8 26L8 25L6 25L6 26L5 26L5 27L6 27L6 28L7 28L7 29L5 29L5 30L4 30L4 31L3 31L3 32L7 32L7 31L5 31L5 30L7 30L7 29L8 29L8 30L9 30L9 29L8 29L8 28L11 28L11 27L12 27L12 30L13 30L13 32L15 32L15 31L16 31L16 28L17 28L17 30L18 30L18 28L19 28L19 29L21 29L21 28L22 28L22 26L23 26L23 25L21 25L21 24L20 24L20 23L21 23L21 22L22 22L22 23L23 23L23 22L22 22L22 20L23 20L23 21L24 21L24 20L23 20L23 19L25 19L25 20L27 20L27 21L26 21L26 22L27 22L27 23L28 23L28 22L29 22L29 21L30 21L30 20L29 20L29 19L30 19L30 18L29 18L29 17L27 17L27 18L26 18L26 16L25 16L25 13L26 13L26 14L27 14L27 13L28 13L28 12L27 12L27 11L30 11L30 9L29 9L29 10L28 10L28 6L27 6L27 8L26 8L26 9L27 9L27 11L26 11L26 10L25 10L25 11L24 11L24 10L23 10L23 9L22 9L22 8L21 8L21 7L22 7L22 6L21 6L21 7L20 7L20 6L19 6L19 5L24 5L24 4L23 4L23 3L22 3L22 2L20 2L20 3L19 3L19 1L18 1L18 2L17 2L17 1ZM29 1L29 2L30 2L30 1ZM18 3L18 5L17 5L17 4L16 4L16 5L17 5L17 6L16 6L16 7L15 7L15 6L14 6L14 8L16 8L16 7L17 7L17 9L15 9L15 10L18 10L18 11L20 11L20 12L19 12L19 13L18 13L18 14L17 14L17 15L19 15L19 16L20 16L20 18L21 18L21 19L23 19L23 18L24 18L24 17L23 17L23 16L24 16L24 13L25 13L25 12L24 12L24 13L23 13L23 12L22 12L22 11L23 11L23 10L22 10L22 9L21 9L21 8L20 8L20 7L19 7L19 6L18 6L18 5L19 5L19 3ZM11 6L11 7L12 7L12 6ZM17 6L17 7L18 7L18 6ZM29 6L29 7L30 7L30 6ZM31 6L31 7L32 7L32 6ZM19 8L19 9L18 9L18 10L19 10L19 9L20 9L20 8ZM31 8L31 13L30 13L30 14L29 14L29 15L30 15L30 14L31 14L31 15L32 15L32 16L31 16L31 19L32 19L32 18L33 18L33 17L34 17L34 16L35 16L35 15L34 15L34 14L33 14L33 12L32 12L32 11L33 11L33 10L34 10L34 11L35 11L35 10L34 10L34 9L33 9L33 8ZM40 8L40 15L41 15L41 8ZM0 9L0 10L1 10L1 9ZM4 9L4 10L5 10L5 11L6 11L6 12L7 12L7 13L6 13L6 14L7 14L7 13L8 13L8 12L7 12L7 11L6 11L6 10L5 10L5 9ZM12 10L12 11L13 11L13 10ZM20 10L20 11L21 11L21 10ZM16 11L16 13L17 13L17 11ZM26 12L26 13L27 13L27 12ZM31 13L31 14L32 14L32 13ZM21 14L21 15L22 15L22 16L21 16L21 18L23 18L23 17L22 17L22 16L23 16L23 14ZM2 15L2 16L0 16L0 17L2 17L2 16L3 16L3 15ZM10 15L10 16L9 16L9 17L10 17L10 18L11 18L11 17L12 17L12 16L11 16L11 15ZM27 15L27 16L28 16L28 15ZM17 16L17 17L18 17L18 16ZM39 16L39 17L40 17L40 19L41 19L41 17L40 17L40 16ZM3 18L3 20L4 20L4 21L6 21L6 22L7 22L7 21L6 21L6 20L7 20L7 19L5 19L5 20L4 20L4 18ZM25 18L25 19L26 19L26 18ZM28 18L28 19L27 19L27 20L28 20L28 19L29 19L29 18ZM38 18L38 19L36 19L36 20L34 20L34 22L35 22L35 24L33 24L33 26L34 26L34 27L35 27L35 28L34 28L34 29L35 29L35 28L37 28L37 27L39 27L39 25L40 25L40 29L39 29L39 28L38 28L38 29L39 29L39 30L38 30L38 31L39 31L39 30L40 30L40 31L41 31L41 25L40 25L40 24L41 24L41 22L39 22L39 21L40 21L40 20L39 20L39 21L38 21L38 19L39 19L39 18ZM9 20L9 21L10 21L10 20ZM36 21L36 22L37 22L37 21ZM2 23L2 24L3 24L3 25L2 25L2 26L4 26L4 24L3 24L3 23ZM36 23L36 26L38 26L38 24L39 24L39 23L38 23L38 24L37 24L37 23ZM19 24L19 25L20 25L20 24ZM19 26L19 28L20 28L20 26ZM24 26L24 28L25 28L25 26ZM0 27L0 28L1 28L1 27ZM17 27L17 28L18 28L18 27ZM13 28L13 30L15 30L15 29L14 29L14 28ZM22 29L22 30L21 30L21 31L23 31L23 32L25 32L25 31L24 31L24 30L23 30L23 29ZM19 30L19 31L20 31L20 30ZM31 31L31 32L32 32L32 31ZM9 33L9 34L10 34L10 35L11 35L11 34L10 34L10 33ZM33 33L33 36L36 36L36 33ZM29 34L29 35L27 35L27 36L29 36L29 35L30 35L30 34ZM34 34L34 35L35 35L35 34ZM39 34L39 35L38 35L38 37L40 37L40 36L39 36L39 35L40 35L40 34ZM13 36L13 37L14 37L14 36ZM25 37L25 38L27 38L27 37ZM23 38L23 39L24 39L24 40L25 40L25 41L26 41L26 40L27 40L27 39L24 39L24 38ZM29 38L29 39L30 39L30 38ZM10 39L10 40L12 40L12 39ZM20 40L20 41L21 41L21 40ZM22 40L22 41L23 41L23 40ZM34 40L34 41L35 41L35 40ZM0 0L0 7L7 7L7 0ZM1 1L1 6L6 6L6 1ZM2 2L2 5L5 5L5 2ZM34 0L34 7L41 7L41 0ZM35 1L35 6L40 6L40 1ZM36 2L36 5L39 5L39 2ZM0 34L0 41L7 41L7 34ZM1 35L1 40L6 40L6 35ZM2 36L2 39L5 39L5 36Z" fill="#000000"/></g></g></svg>
