<?xml version="1.0" encoding="UTF-8"?>
<svg xmlns="http://www.w3.org/2000/svg" version="1.1" width="200" height="200" viewBox="0 0 200 200"><rect x="0" y="0" width="200" height="200" fill="#ffffff"/><g transform="scale(4.878)"><g transform="translate(0,0)"><path fill-rule="evenodd" d="M8 0L8 3L10 3L10 4L9 4L9 5L8 5L8 9L9 9L9 10L6 10L6 9L7 9L7 8L6 8L6 9L5 9L5 8L2 8L2 9L1 9L1 10L0 10L0 11L1 11L1 13L2 13L2 14L1 14L1 15L0 15L0 16L1 16L1 17L3 17L3 19L4 19L4 20L5 20L5 21L3 21L3 20L2 20L2 19L1 19L1 18L0 18L0 19L1 19L1 20L0 20L0 21L3 21L3 22L0 22L0 23L2 23L2 24L0 24L0 25L1 25L1 26L0 26L0 28L1 28L1 26L2 26L2 30L3 30L3 31L2 31L2 32L3 32L3 31L5 31L5 30L6 30L6 31L7 31L7 32L5 32L5 33L8 33L8 34L10 34L10 33L11 33L11 37L10 37L10 36L8 36L8 39L9 39L9 37L10 37L10 38L11 38L11 37L13 37L13 38L14 38L14 37L15 37L15 36L16 36L16 33L15 33L15 35L14 35L14 37L13 37L13 36L12 36L12 35L13 35L13 34L12 34L12 33L11 33L11 32L13 32L13 33L14 33L14 31L15 31L15 32L18 32L18 33L19 33L19 31L20 31L20 32L21 32L21 31L20 31L20 30L21 30L21 29L19 29L19 30L18 30L18 31L17 31L17 30L16 30L16 29L17 29L17 27L16 27L16 29L15 29L15 27L13 27L13 26L11 26L11 27L12 27L12 28L13 28L13 30L12 30L12 29L11 29L11 30L10 30L10 33L8 33L8 31L9 31L9 29L10 29L10 26L9 26L9 25L10 25L10 24L11 24L11 20L10 20L10 21L8 21L8 22L6 22L6 21L7 21L7 20L6 20L6 19L8 19L8 20L9 20L9 19L10 19L10 18L9 18L9 17L11 17L11 19L12 19L12 18L13 18L13 19L14 19L14 18L15 18L15 19L18 19L18 20L16 20L16 22L15 22L15 23L13 23L13 24L12 24L12 25L15 25L15 26L19 26L19 27L18 27L18 28L19 28L19 27L20 27L20 28L21 28L21 26L22 26L22 25L21 25L21 24L23 24L23 25L24 25L24 26L26 26L26 27L23 27L23 29L22 29L22 30L23 30L23 31L22 31L22 32L23 32L23 33L20 33L20 34L19 34L19 36L20 36L20 38L19 38L19 39L21 39L21 40L19 40L19 41L21 41L21 40L22 40L22 41L24 41L24 40L23 40L23 39L22 39L22 38L21 38L21 36L20 36L20 35L21 35L21 34L22 34L22 35L23 35L23 34L24 34L24 36L25 36L25 37L29 37L29 36L32 36L32 38L33 38L33 39L31 39L31 37L30 37L30 38L27 38L27 39L26 39L26 38L24 38L24 37L23 37L23 38L24 38L24 39L26 39L26 40L25 40L25 41L27 41L27 40L28 40L28 41L31 41L31 40L33 40L33 41L34 41L34 40L33 40L33 39L35 39L35 40L36 40L36 39L37 39L37 40L40 40L40 38L41 38L41 37L40 37L40 36L41 36L41 35L40 35L40 34L41 34L41 33L40 33L40 32L37 32L37 29L35 29L35 30L34 30L34 31L35 31L35 32L33 32L33 31L32 31L32 30L33 30L33 29L34 29L34 28L33 28L33 29L32 29L32 30L31 30L31 31L30 31L30 30L28 30L28 29L31 29L31 28L32 28L32 27L31 27L31 28L28 28L28 26L26 26L26 24L27 24L27 25L29 25L29 26L30 26L30 25L31 25L31 26L33 26L33 27L34 27L34 26L35 26L35 25L36 25L36 26L37 26L37 27L36 27L36 28L38 28L38 26L39 26L39 27L40 27L40 28L41 28L41 27L40 27L40 26L41 26L41 23L39 23L39 24L40 24L40 26L39 26L39 25L36 25L36 24L37 24L37 21L38 21L38 22L39 22L39 20L36 20L36 19L35 19L35 17L36 17L36 18L38 18L38 19L40 19L40 18L41 18L41 16L40 16L40 18L38 18L38 17L39 17L39 16L37 16L37 15L36 15L36 14L37 14L37 13L36 13L36 14L35 14L35 15L36 15L36 16L35 16L35 17L34 17L34 16L32 16L32 17L30 17L30 16L29 16L29 15L28 15L28 16L29 16L29 17L30 17L30 19L31 19L31 20L30 20L30 21L31 21L31 22L30 22L30 23L31 23L31 22L33 22L33 21L34 21L34 22L35 22L35 23L36 23L36 24L35 24L35 25L34 25L34 23L33 23L33 25L32 25L32 24L27 24L27 23L29 23L29 22L24 22L24 21L23 21L23 20L25 20L25 21L29 21L29 20L28 20L28 19L29 19L29 18L27 18L27 20L25 20L25 18L26 18L26 17L25 17L25 15L27 15L27 14L29 14L29 13L30 13L30 15L31 15L31 12L32 12L32 13L33 13L33 14L32 14L32 15L34 15L34 13L35 13L35 11L37 11L37 12L38 12L38 11L39 11L39 12L41 12L41 11L40 11L40 10L41 10L41 8L38 8L38 9L40 9L40 10L37 10L37 9L36 9L36 8L33 8L33 9L30 9L30 8L32 8L32 7L33 7L33 6L32 6L32 7L31 7L31 6L30 6L30 5L32 5L32 4L33 4L33 3L32 3L32 2L30 2L30 1L33 1L33 0L29 0L29 1L27 1L27 0L26 0L26 1L27 1L27 2L26 2L26 3L28 3L28 4L29 4L29 3L32 3L32 4L30 4L30 5L29 5L29 6L28 6L28 5L27 5L27 4L26 4L26 7L25 7L25 3L24 3L24 2L25 2L25 1L24 1L24 2L23 2L23 0L22 0L22 1L21 1L21 0L20 0L20 1L21 1L21 2L22 2L22 5L21 5L21 4L19 4L19 3L18 3L18 2L19 2L19 0L16 0L16 2L15 2L15 0L11 0L11 3L10 3L10 2L9 2L9 1L10 1L10 0ZM13 1L13 4L12 4L12 3L11 3L11 4L12 4L12 5L11 5L11 7L12 7L12 8L10 8L10 13L8 13L8 12L9 12L9 11L8 11L8 12L7 12L7 11L6 11L6 10L4 10L4 11L5 11L5 12L7 12L7 13L6 13L6 14L10 14L10 15L12 15L12 16L11 16L11 17L13 17L13 14L14 14L14 17L15 17L15 14L16 14L16 13L18 13L18 14L17 14L17 15L16 15L16 18L18 18L18 19L19 19L19 21L17 21L17 22L19 22L19 23L23 23L23 22L21 22L21 21L20 21L20 20L21 20L21 19L22 19L22 17L23 17L23 18L25 18L25 17L24 17L24 13L23 13L23 12L22 12L22 10L21 10L21 12L20 12L20 11L19 11L19 9L20 9L20 8L21 8L21 9L23 9L23 7L24 7L24 6L23 6L23 5L22 5L22 6L21 6L21 5L19 5L19 7L20 7L20 8L19 8L19 9L18 9L18 8L16 8L16 6L17 6L17 7L18 7L18 3L17 3L17 2L16 2L16 3L15 3L15 2L14 2L14 1ZM14 3L14 5L13 5L13 6L12 6L12 7L13 7L13 6L14 6L14 7L15 7L15 6L16 6L16 4L17 4L17 3L16 3L16 4L15 4L15 3ZM23 3L23 4L24 4L24 3ZM14 5L14 6L15 6L15 5ZM9 6L9 7L10 7L10 6ZM20 6L20 7L21 7L21 6ZM22 6L22 7L23 7L23 6ZM27 6L27 7L26 7L26 9L24 9L24 10L23 10L23 11L24 11L24 10L25 10L25 13L26 13L26 14L27 14L27 13L26 13L26 12L28 12L28 13L29 13L29 12L31 12L31 11L32 11L32 12L33 12L33 13L34 13L34 12L33 12L33 11L34 11L34 10L33 10L33 11L32 11L32 10L30 10L30 9L29 9L29 8L30 8L30 6L29 6L29 8L28 8L28 9L27 9L27 7L28 7L28 6ZM13 8L13 10L14 10L14 14L15 14L15 12L16 12L16 11L15 11L15 10L17 10L17 9L15 9L15 8ZM2 9L2 11L3 11L3 9ZM11 9L11 10L12 10L12 9ZM28 9L28 10L26 10L26 11L28 11L28 12L29 12L29 11L28 11L28 10L29 10L29 9ZM11 11L11 12L12 12L12 13L13 13L13 12L12 12L12 11ZM17 11L17 12L18 12L18 13L19 13L19 12L18 12L18 11ZM3 12L3 13L4 13L4 14L2 14L2 15L1 15L1 16L2 16L2 15L4 15L4 16L3 16L3 17L5 17L5 18L7 18L7 17L5 17L5 16L7 16L7 15L4 15L4 14L5 14L5 13L4 13L4 12ZM10 13L10 14L11 14L11 13ZM20 13L20 14L21 14L21 15L19 15L19 16L18 16L18 15L17 15L17 17L19 17L19 16L21 16L21 15L22 15L22 16L23 16L23 13L22 13L22 14L21 14L21 13ZM39 13L39 14L41 14L41 13ZM8 15L8 17L9 17L9 15ZM36 16L36 17L37 17L37 16ZM32 17L32 18L31 18L31 19L32 19L32 20L31 20L31 21L33 21L33 20L34 20L34 21L35 21L35 22L36 22L36 21L35 21L35 19L34 19L34 18L33 18L33 17ZM19 18L19 19L21 19L21 18ZM14 20L14 21L12 21L12 22L14 22L14 21L15 21L15 20ZM40 20L40 21L41 21L41 20ZM19 21L19 22L20 22L20 21ZM4 22L4 23L3 23L3 24L2 24L2 26L3 26L3 27L6 27L6 28L7 28L7 29L6 29L6 30L7 30L7 31L8 31L8 28L7 28L7 27L6 27L6 26L7 26L7 25L8 25L8 24L10 24L10 22L8 22L8 24L7 24L7 23L6 23L6 22ZM4 23L4 24L6 24L6 25L3 25L3 26L6 26L6 25L7 25L7 24L6 24L6 23ZM15 23L15 24L16 24L16 25L17 25L17 24L16 24L16 23ZM25 23L25 24L24 24L24 25L25 25L25 24L26 24L26 23ZM19 25L19 26L20 26L20 25ZM33 25L33 26L34 26L34 25ZM8 26L8 27L9 27L9 26ZM26 27L26 28L24 28L24 31L27 31L27 30L26 30L26 29L28 29L28 28L27 28L27 27ZM3 28L3 30L4 30L4 28ZM0 29L0 33L1 33L1 29ZM39 29L39 30L38 30L38 31L40 31L40 30L41 30L41 29ZM13 30L13 31L14 31L14 30ZM15 30L15 31L16 31L16 30ZM28 31L28 33L24 33L24 34L25 34L25 36L27 36L27 34L28 34L28 33L29 33L29 32L30 32L30 31ZM30 33L30 35L31 35L31 34L32 34L32 33ZM33 33L33 36L36 36L36 33ZM37 33L37 34L38 34L38 35L37 35L37 36L40 36L40 35L39 35L39 33ZM17 34L17 35L18 35L18 34ZM34 34L34 35L35 35L35 34ZM17 36L17 37L16 37L16 39L17 39L17 40L16 40L16 41L17 41L17 40L18 40L18 38L17 38L17 37L18 37L18 36ZM33 37L33 38L36 38L36 37ZM37 38L37 39L38 39L38 38ZM28 39L28 40L30 40L30 39ZM11 40L11 41L12 41L12 40ZM14 40L14 41L15 41L15 40ZM0 0L0 7L7 7L7 0ZM1 1L1 6L6 6L6 1ZM2 2L2 5L5 5L5 2ZM34 0L34 7L41 7L41 0ZM35 1L35 6L40 6L40 1ZM36 2L36 5L39 5L39 2ZM0 34L0 41L7 41L7 34ZM1 35L1 40L6 40L6 35ZM2 36L2 39L5 39L5 36Z" fill="#000000"/></g></g></svg>
