<?xml version="1.0" encoding="UTF-8"?>
<svg xmlns="http://www.w3.org/2000/svg" version="1.1" width="200" height="200" viewBox="0 0 200 200"><rect x="0" y="0" width="200" height="200" fill="#ffffff"/><g transform="scale(4.878)"><g transform="translate(0,0)"><path fill-rule="evenodd" d="M8 0L8 3L9 3L9 0ZM10 0L10 1L11 1L11 2L10 2L10 4L12 4L12 5L10 5L10 7L9 7L9 5L8 5L8 10L6 10L6 9L7 9L7 8L6 8L6 9L5 9L5 8L2 8L2 9L3 9L3 10L1 10L1 9L0 9L0 10L1 10L1 11L2 11L2 12L0 12L0 13L2 13L2 14L6 14L6 15L4 15L4 17L3 17L3 15L1 15L1 18L0 18L0 19L1 19L1 18L2 18L2 17L3 17L3 20L2 20L2 21L1 21L1 22L0 22L0 26L1 26L1 28L3 28L3 32L4 32L4 31L5 31L5 30L4 30L4 29L7 29L7 30L6 30L6 31L7 31L7 32L6 32L6 33L8 33L8 34L10 34L10 35L11 35L11 36L12 36L12 35L11 35L11 34L12 34L12 33L13 33L13 36L15 36L15 35L14 35L14 33L15 33L15 34L16 34L16 35L17 35L17 36L18 36L18 37L19 37L19 39L18 39L18 38L17 38L17 37L12 37L12 39L11 39L11 38L9 38L9 37L10 37L10 36L8 36L8 39L10 39L10 40L11 40L11 41L13 41L13 38L15 38L15 39L14 39L14 41L15 41L15 40L17 40L17 41L20 41L20 40L19 40L19 39L21 39L21 41L23 41L23 40L24 40L24 41L25 41L25 39L24 39L24 38L23 38L23 34L20 34L20 32L21 32L21 33L26 33L26 34L27 34L27 35L26 35L26 39L27 39L27 40L26 40L26 41L32 41L32 40L33 40L33 41L34 41L34 40L33 40L33 38L34 38L34 39L35 39L35 40L36 40L36 39L37 39L37 40L40 40L40 38L41 38L41 37L39 37L39 36L38 36L38 34L39 34L39 35L40 35L40 36L41 36L41 35L40 35L40 34L41 34L41 33L39 33L39 32L38 32L38 31L40 31L40 32L41 32L41 31L40 31L40 30L41 30L41 29L40 29L40 28L41 28L41 27L40 27L40 26L41 26L41 23L39 23L39 24L40 24L40 26L39 26L39 25L36 25L36 24L37 24L37 21L38 21L38 22L39 22L39 20L36 20L36 19L35 19L35 17L36 17L36 18L37 18L37 19L38 19L38 18L41 18L41 16L40 16L40 17L39 17L39 16L37 16L37 15L40 15L40 14L41 14L41 12L39 12L39 13L40 13L40 14L37 14L37 13L36 13L36 14L35 14L35 17L34 17L34 16L32 16L32 17L31 17L31 15L30 15L30 16L29 16L29 15L28 15L28 16L29 16L29 17L31 17L31 18L30 18L30 19L31 19L31 18L32 18L32 21L31 21L31 20L30 20L30 21L31 21L31 22L32 22L32 21L34 21L34 22L35 22L35 23L36 23L36 24L35 24L35 25L34 25L34 24L33 24L33 23L32 23L32 25L31 25L31 24L29 24L29 23L30 23L30 22L29 22L29 23L28 23L28 22L27 22L27 21L29 21L29 20L28 20L28 19L29 19L29 18L27 18L27 14L29 14L29 13L30 13L30 14L31 14L31 12L32 12L32 13L33 13L33 14L32 14L32 15L34 15L34 13L35 13L35 11L36 11L36 12L38 12L38 11L40 11L40 10L41 10L41 8L38 8L38 9L40 9L40 10L37 10L37 9L36 9L36 8L33 8L33 9L32 9L32 8L27 8L27 9L31 9L31 10L30 10L30 12L29 12L29 13L28 13L28 11L29 11L29 10L26 10L26 11L27 11L27 12L26 12L26 13L25 13L25 14L26 14L26 15L25 15L25 16L24 16L24 14L23 14L23 10L25 10L25 9L26 9L26 7L27 7L27 6L28 6L28 7L29 7L29 6L30 6L30 7L31 7L31 5L32 5L32 4L33 4L33 3L32 3L32 4L30 4L30 5L27 5L27 4L25 4L25 3L24 3L24 4L23 4L23 2L25 2L25 1L24 1L24 0L21 0L21 1L20 1L20 0L18 0L18 1L15 1L15 0ZM26 0L26 1L27 1L27 2L26 2L26 3L28 3L28 4L29 4L29 3L31 3L31 2L30 2L30 0L29 0L29 1L27 1L27 0ZM31 0L31 1L32 1L32 2L33 2L33 1L32 1L32 0ZM13 1L13 2L12 2L12 4L13 4L13 3L14 3L14 5L12 5L12 6L11 6L11 8L12 8L12 6L13 6L13 9L11 9L11 10L12 10L12 11L11 11L11 12L12 12L12 11L13 11L13 13L12 13L12 14L13 14L13 15L10 15L10 14L11 14L11 13L10 13L10 11L9 11L9 10L8 10L8 11L9 11L9 13L8 13L8 12L7 12L7 11L6 11L6 10L5 10L5 11L4 11L4 12L5 12L5 13L6 13L6 14L8 14L8 16L9 16L9 17L6 17L6 16L7 16L7 15L6 15L6 16L5 16L5 18L4 18L4 20L7 20L7 19L5 19L5 18L10 18L10 19L11 19L11 20L10 20L10 21L9 21L9 19L8 19L8 21L5 21L5 23L3 23L3 24L2 24L2 23L1 23L1 24L2 24L2 25L1 25L1 26L2 26L2 27L3 27L3 26L5 26L5 25L4 25L4 24L5 24L5 23L6 23L6 24L7 24L7 23L8 23L8 21L9 21L9 23L10 23L10 22L11 22L11 24L13 24L13 26L16 26L16 23L17 23L17 24L18 24L18 26L17 26L17 27L18 27L18 28L16 28L16 29L17 29L17 30L16 30L16 31L15 31L15 27L14 27L14 28L13 28L13 31L9 31L9 32L8 32L8 33L10 33L10 32L15 32L15 33L16 33L16 32L17 32L17 35L18 35L18 36L22 36L22 35L18 35L18 33L19 33L19 32L20 32L20 31L19 31L19 30L20 30L20 29L18 29L18 28L20 28L20 27L21 27L21 29L25 29L25 30L24 30L24 31L23 31L23 30L21 30L21 32L24 32L24 31L26 31L26 32L27 32L27 30L26 30L26 29L28 29L28 30L29 30L29 31L28 31L28 32L31 32L31 31L30 31L30 30L29 30L29 29L28 29L28 28L30 28L30 29L31 29L31 30L32 30L32 31L33 31L33 32L36 32L36 31L37 31L37 30L36 30L36 29L38 29L38 30L39 30L39 26L38 26L38 28L36 28L36 27L37 27L37 26L36 26L36 25L35 25L35 26L34 26L34 25L32 25L32 26L31 26L31 25L30 25L30 26L29 26L29 25L27 25L27 26L28 26L28 28L26 28L26 29L25 29L25 27L24 27L24 28L22 28L22 26L21 26L21 25L23 25L23 26L24 26L24 24L25 24L25 25L26 25L26 23L27 23L27 24L28 24L28 23L27 23L27 22L26 22L26 23L23 23L23 22L24 22L24 21L23 21L23 20L25 20L25 18L23 18L23 16L22 16L22 15L23 15L23 14L22 14L22 13L21 13L21 12L22 12L22 11L21 11L21 10L20 10L20 9L19 9L19 10L20 10L20 12L19 12L19 11L18 11L18 9L16 9L16 8L17 8L17 7L18 7L18 5L17 5L17 7L16 7L16 6L15 6L15 4L17 4L17 3L18 3L18 2L17 2L17 3L16 3L16 2L15 2L15 3L14 3L14 1ZM19 2L19 3L20 3L20 2ZM21 3L21 4L22 4L22 5L23 5L23 7L22 7L22 6L21 6L21 7L22 7L22 8L21 8L21 9L22 9L22 10L23 10L23 9L24 9L24 8L25 8L25 7L26 7L26 6L25 6L25 5L23 5L23 4L22 4L22 3ZM19 4L19 5L20 5L20 4ZM14 6L14 7L15 7L15 8L16 8L16 7L15 7L15 6ZM19 6L19 7L20 7L20 6ZM24 6L24 7L23 7L23 8L22 8L22 9L23 9L23 8L24 8L24 7L25 7L25 6ZM32 6L32 7L33 7L33 6ZM9 8L9 9L10 9L10 8ZM13 9L13 10L14 10L14 11L16 11L16 10L14 10L14 9ZM33 9L33 10L31 10L31 11L34 11L34 9ZM35 9L35 10L36 10L36 9ZM5 11L5 12L6 12L6 13L7 13L7 12L6 12L6 11ZM24 11L24 12L25 12L25 11ZM2 12L2 13L3 13L3 12ZM14 12L14 13L13 13L13 14L15 14L15 12ZM16 12L16 13L17 13L17 14L16 14L16 15L14 15L14 17L15 17L15 18L13 18L13 20L12 20L12 21L11 21L11 22L12 22L12 23L13 23L13 24L14 24L14 25L15 25L15 24L14 24L14 23L13 23L13 22L15 22L15 23L16 23L16 22L21 22L21 23L22 23L22 24L23 24L23 23L22 23L22 21L20 21L20 20L21 20L21 18L20 18L20 20L19 20L19 17L18 17L18 19L17 19L17 16L19 16L19 15L17 15L17 14L18 14L18 12ZM33 12L33 13L34 13L34 12ZM9 13L9 14L10 14L10 13ZM20 13L20 14L21 14L21 13ZM26 13L26 14L27 14L27 13ZM36 14L36 15L37 15L37 14ZM10 16L10 18L11 18L11 19L12 19L12 17L13 17L13 16ZM15 16L15 17L16 17L16 16ZM20 16L20 17L21 17L21 16ZM25 16L25 17L26 17L26 16ZM36 16L36 17L37 17L37 18L38 18L38 17L37 17L37 16ZM32 17L32 18L33 18L33 20L34 20L34 21L35 21L35 22L36 22L36 21L35 21L35 19L34 19L34 18L33 18L33 17ZM15 19L15 20L14 20L14 21L15 21L15 22L16 22L16 19ZM26 20L26 21L27 21L27 20ZM40 20L40 21L41 21L41 20ZM2 21L2 22L3 22L3 21ZM6 22L6 23L7 23L7 22ZM18 23L18 24L20 24L20 23ZM8 24L8 25L6 25L6 26L7 26L7 27L4 27L4 28L7 28L7 27L8 27L8 28L9 28L9 27L10 27L10 30L12 30L12 29L11 29L11 28L12 28L12 27L11 27L11 26L12 26L12 25L10 25L10 26L8 26L8 25L9 25L9 24ZM2 25L2 26L3 26L3 25ZM33 26L33 27L31 27L31 28L33 28L33 29L32 29L32 30L33 30L33 29L34 29L34 28L33 28L33 27L34 27L34 26ZM35 28L35 29L36 29L36 28ZM0 29L0 33L1 33L1 30L2 30L2 29ZM8 29L8 30L9 30L9 29ZM17 30L17 32L18 32L18 30ZM34 30L34 31L36 31L36 30ZM37 32L37 34L38 34L38 32ZM27 33L27 34L28 34L28 36L27 36L27 38L28 38L28 37L31 37L31 39L30 39L30 38L29 38L29 39L28 39L28 40L32 40L32 38L33 38L33 37L32 37L32 36L29 36L29 33ZM30 33L30 35L31 35L31 34L32 34L32 33ZM33 33L33 36L36 36L36 33ZM34 34L34 35L35 35L35 34ZM24 35L24 36L25 36L25 35ZM37 36L37 37L38 37L38 36ZM21 37L21 39L22 39L22 37ZM34 37L34 38L36 38L36 37ZM16 38L16 39L17 39L17 40L18 40L18 39L17 39L17 38ZM37 38L37 39L38 39L38 38ZM0 0L0 7L7 7L7 0ZM1 1L1 6L6 6L6 1ZM2 2L2 5L5 5L5 2ZM34 0L34 7L41 7L41 0ZM35 1L35 6L40 6L40 1ZM36 2L36 5L39 5L39 2ZM0 34L0 41L7 41L7 34ZM1 35L1 40L6 40L6 35ZM2 36L2 39L5 39L5 36Z" fill="#000000"/></g></g></svg>
