<?xml version="1.0" encoding="UTF-8"?>
<svg xmlns="http://www.w3.org/2000/svg" version="1.1" width="200" height="200" viewBox="0 0 200 200"><rect x="0" y="0" width="200" height="200" fill="#ffffff"/><g transform="scale(4.878)"><g transform="translate(0,0)"><path fill-rule="evenodd" d="M8 0L8 1L14 1L14 2L17 2L17 1L14 1L14 0ZM18 0L18 3L17 3L17 4L18 4L18 8L17 8L17 9L16 9L16 8L15 8L15 6L16 6L16 7L17 7L17 6L16 6L16 3L13 3L13 6L12 6L12 7L13 7L13 6L14 6L14 8L11 8L11 5L12 5L12 2L10 2L10 3L9 3L9 2L8 2L8 3L9 3L9 4L8 4L8 5L9 5L9 6L8 6L8 8L11 8L11 9L10 9L10 11L8 11L8 10L9 10L9 9L8 9L8 10L6 10L6 11L5 11L5 9L7 9L7 8L5 8L5 9L4 9L4 10L3 10L3 9L1 9L1 11L0 11L0 16L1 16L1 19L0 19L0 21L1 21L1 22L2 22L2 24L1 24L1 23L0 23L0 26L1 26L1 25L2 25L2 24L4 24L4 23L5 23L5 22L6 22L6 23L7 23L7 24L5 24L5 25L3 25L3 26L2 26L2 27L0 27L0 33L1 33L1 31L2 31L2 30L1 30L1 29L3 29L3 30L6 30L6 31L5 31L5 32L4 32L4 31L3 31L3 33L5 33L5 32L6 32L6 33L8 33L8 34L9 34L9 35L8 35L8 36L9 36L9 40L10 40L10 41L11 41L11 40L13 40L13 39L14 39L14 40L15 40L15 41L16 41L16 40L18 40L18 41L19 41L19 40L20 40L20 38L21 38L21 40L24 40L24 39L27 39L27 40L25 40L25 41L31 41L31 40L32 40L32 39L31 39L31 38L33 38L33 41L34 41L34 40L36 40L36 39L37 39L37 40L38 40L38 39L40 39L40 40L41 40L41 39L40 39L40 38L41 38L41 36L40 36L40 34L39 34L39 32L41 32L41 27L40 27L40 26L41 26L41 25L39 25L39 24L37 24L37 22L38 22L38 23L39 23L39 22L41 22L41 20L40 20L40 19L41 19L41 15L40 15L40 14L41 14L41 13L40 13L40 12L38 12L38 11L40 11L40 9L41 9L41 8L40 8L40 9L39 9L39 8L38 8L38 10L37 10L37 8L36 8L36 9L35 9L35 8L34 8L34 9L35 9L35 10L34 10L34 12L35 12L35 13L36 13L36 14L37 14L37 15L36 15L36 16L35 16L35 15L34 15L34 14L32 14L32 16L33 16L33 17L31 17L31 13L32 13L32 12L33 12L33 11L32 11L32 12L30 12L30 16L29 16L29 17L31 17L31 18L29 18L29 19L33 19L33 23L32 23L32 24L31 24L31 23L30 23L30 24L31 24L31 25L29 25L29 26L33 26L33 29L32 29L32 31L31 31L31 33L30 33L30 32L27 32L27 31L28 31L28 30L27 30L27 29L30 29L30 30L29 30L29 31L30 31L30 30L31 30L31 29L30 29L30 28L29 28L29 27L28 27L28 24L29 24L29 22L28 22L28 21L27 21L27 19L28 19L28 17L27 17L27 16L28 16L28 15L27 15L27 16L26 16L26 15L25 15L25 14L27 14L27 12L26 12L26 13L25 13L25 14L24 14L24 13L23 13L23 14L22 14L22 16L23 16L23 17L21 17L21 18L20 18L20 19L19 19L19 17L17 17L17 16L19 16L19 14L21 14L21 13L22 13L22 12L25 12L25 9L27 9L27 10L26 10L26 11L28 11L28 10L29 10L29 9L31 9L31 10L30 10L30 11L31 11L31 10L33 10L33 8L32 8L32 7L33 7L33 5L32 5L32 4L30 4L30 5L29 5L29 6L28 6L28 7L27 7L27 4L28 4L28 3L31 3L31 2L30 2L30 1L29 1L29 0L28 0L28 2L26 2L26 4L25 4L25 3L24 3L24 2L25 2L25 1L26 1L26 0L25 0L25 1L23 1L23 0L20 0L20 1L19 1L19 0ZM32 0L32 2L33 2L33 0ZM20 1L20 3L19 3L19 4L20 4L20 6L19 6L19 7L20 7L20 8L19 8L19 9L22 9L22 8L21 8L21 7L22 7L22 6L23 6L23 7L24 7L24 6L23 6L23 5L25 5L25 4L24 4L24 3L22 3L22 2L23 2L23 1ZM21 3L21 4L22 4L22 3ZM9 4L9 5L11 5L11 4ZM14 5L14 6L15 6L15 5ZM21 5L21 6L20 6L20 7L21 7L21 6L22 6L22 5ZM30 5L30 6L29 6L29 7L28 7L28 8L30 8L30 6L31 6L31 7L32 7L32 5ZM9 6L9 7L10 7L10 6ZM25 6L25 7L26 7L26 8L27 8L27 7L26 7L26 6ZM14 8L14 9L15 9L15 10L14 10L14 12L15 12L15 15L13 15L13 14L10 14L10 12L11 12L11 13L13 13L13 11L10 11L10 12L9 12L9 14L8 14L8 15L9 15L9 16L10 16L10 17L9 17L9 18L11 18L11 17L12 17L12 19L11 19L11 21L10 21L10 20L9 20L9 19L8 19L8 20L9 20L9 22L8 22L8 21L6 21L6 20L7 20L7 19L6 19L6 18L8 18L8 16L7 16L7 15L6 15L6 16L5 16L5 14L7 14L7 13L8 13L8 12L7 12L7 11L6 11L6 12L7 12L7 13L5 13L5 12L4 12L4 11L3 11L3 10L2 10L2 13L1 13L1 14L2 14L2 13L3 13L3 14L4 14L4 16L3 16L3 17L2 17L2 18L3 18L3 17L4 17L4 18L5 18L5 19L1 19L1 20L2 20L2 21L3 21L3 22L4 22L4 21L6 21L6 22L8 22L8 23L10 23L10 24L7 24L7 25L5 25L5 26L7 26L7 27L6 27L6 28L7 28L7 29L6 29L6 30L7 30L7 31L6 31L6 32L7 32L7 31L8 31L8 33L9 33L9 34L10 34L10 35L11 35L11 34L12 34L12 36L13 36L13 37L15 37L15 38L16 38L16 39L15 39L15 40L16 40L16 39L17 39L17 38L18 38L18 40L19 40L19 37L20 37L20 36L21 36L21 38L22 38L22 39L24 39L24 38L25 38L25 37L26 37L26 35L27 35L27 36L28 36L28 39L29 39L29 40L31 40L31 39L30 39L30 37L31 37L31 36L32 36L32 35L31 35L31 34L30 34L30 35L31 35L31 36L30 36L30 37L29 37L29 36L28 36L28 35L27 35L27 33L26 33L26 31L25 31L25 30L24 30L24 28L23 28L23 27L24 27L24 26L25 26L25 28L26 28L26 29L27 29L27 27L26 27L26 26L25 26L25 25L27 25L27 24L28 24L28 23L27 23L27 21L26 21L26 18L27 18L27 17L26 17L26 18L25 18L25 15L24 15L24 14L23 14L23 15L24 15L24 17L23 17L23 18L24 18L24 20L23 20L23 19L22 19L22 20L21 20L21 21L19 21L19 19L17 19L17 18L15 18L15 16L16 16L16 15L18 15L18 13L17 13L17 12L16 12L16 11L15 11L15 10L16 10L16 9L15 9L15 8ZM23 8L23 9L24 9L24 8ZM31 8L31 9L32 9L32 8ZM20 10L20 11L18 11L18 12L19 12L19 13L21 13L21 12L20 12L20 11L21 11L21 10ZM23 10L23 11L24 11L24 10ZM36 10L36 11L35 11L35 12L36 12L36 13L37 13L37 14L39 14L39 13L37 13L37 12L36 12L36 11L37 11L37 10ZM3 12L3 13L4 13L4 12ZM28 12L28 14L29 14L29 12ZM1 15L1 16L2 16L2 15ZM12 15L12 16L13 16L13 21L14 21L14 22L12 22L12 21L11 21L11 22L12 22L12 23L14 23L14 25L16 25L16 27L14 27L14 29L13 29L13 24L10 24L10 26L9 26L9 25L7 25L7 26L8 26L8 27L7 27L7 28L9 28L9 27L10 27L10 28L11 28L11 27L10 27L10 26L12 26L12 29L13 29L13 31L14 31L14 32L13 32L13 36L15 36L15 35L17 35L17 36L16 36L16 38L17 38L17 36L18 36L18 35L19 35L19 36L20 36L20 34L15 34L15 35L14 35L14 32L16 32L16 33L17 33L17 32L20 32L20 33L22 33L22 34L21 34L21 36L25 36L25 33L24 33L24 32L23 32L23 31L24 31L24 30L22 30L22 29L23 29L23 28L22 28L22 26L21 26L21 25L22 25L22 24L20 24L20 23L23 23L23 24L24 24L24 25L23 25L23 26L24 26L24 25L25 25L25 24L27 24L27 23L25 23L25 22L24 22L24 21L23 21L23 20L22 20L22 21L21 21L21 22L20 22L20 23L18 23L18 24L20 24L20 26L21 26L21 28L22 28L22 29L20 29L20 28L19 28L19 29L20 29L20 30L22 30L22 32L20 32L20 31L19 31L19 30L18 30L18 29L17 29L17 30L18 30L18 31L14 31L14 30L16 30L16 29L15 29L15 28L16 28L16 27L19 27L19 25L17 25L17 24L16 24L16 23L17 23L17 22L16 22L16 23L15 23L15 21L14 21L14 19L15 19L15 18L14 18L14 16L13 16L13 15ZM6 16L6 17L5 17L5 18L6 18L6 17L7 17L7 16ZM34 16L34 17L33 17L33 19L34 19L34 23L33 23L33 26L34 26L34 27L36 27L36 25L37 25L37 24L36 24L36 23L35 23L35 22L36 22L36 21L35 21L35 18L36 18L36 20L37 20L37 21L38 21L38 20L39 20L39 21L40 21L40 20L39 20L39 17L40 17L40 16L39 16L39 17L38 17L38 16L36 16L36 17L35 17L35 16ZM34 17L34 18L35 18L35 17ZM36 17L36 18L37 18L37 20L38 20L38 18L37 18L37 17ZM3 20L3 21L4 21L4 20ZM16 20L16 21L17 21L17 20ZM30 20L30 21L31 21L31 22L32 22L32 21L31 21L31 20ZM18 21L18 22L19 22L19 21ZM24 23L24 24L25 24L25 23ZM34 23L34 26L35 26L35 23ZM40 23L40 24L41 24L41 23ZM3 26L3 27L2 27L2 28L3 28L3 29L5 29L5 27L4 27L4 26ZM38 26L38 27L39 27L39 26ZM3 27L3 28L4 28L4 27ZM34 28L34 30L33 30L33 31L34 31L34 32L36 32L36 31L37 31L37 30L36 30L36 31L35 31L35 29L38 29L38 32L37 32L37 33L38 33L38 32L39 32L39 30L40 30L40 29L39 29L39 28ZM7 29L7 30L8 30L8 29ZM10 29L10 30L9 30L9 31L11 31L11 33L10 33L10 32L9 32L9 33L10 33L10 34L11 34L11 33L12 33L12 30L11 30L11 29ZM22 32L22 33L23 33L23 35L24 35L24 33L23 33L23 32ZM33 33L33 36L36 36L36 33ZM34 34L34 35L35 35L35 34ZM37 34L37 35L38 35L38 37L39 37L39 38L40 38L40 36L39 36L39 34ZM22 37L22 38L24 38L24 37ZM34 37L34 38L36 38L36 37ZM37 38L37 39L38 39L38 38ZM10 39L10 40L11 40L11 39ZM0 0L0 7L7 7L7 0ZM1 1L1 6L6 6L6 1ZM2 2L2 5L5 5L5 2ZM34 0L34 7L41 7L41 0ZM35 1L35 6L40 6L40 1ZM36 2L36 5L39 5L39 2ZM0 34L0 41L7 41L7 34ZM1 35L1 40L6 40L6 35ZM2 36L2 39L5 39L5 36Z" fill="#000000"/></g></g></svg>
