<?xml version="1.0" encoding="UTF-8"?>
<svg xmlns="http://www.w3.org/2000/svg" version="1.1" width="200" height="200" viewBox="0 0 200 200"><rect x="0" y="0" width="200" height="200" fill="#ffffff"/><g transform="scale(4.878)"><g transform="translate(0,0)"><path fill-rule="evenodd" d="M8 0L8 1L9 1L9 0ZM19 0L19 1L18 1L18 2L19 2L19 5L18 5L18 8L20 8L20 9L18 9L18 10L21 10L21 9L22 9L22 12L20 12L20 13L21 13L21 16L20 16L20 14L19 14L19 13L17 13L17 12L19 12L19 11L17 11L17 6L16 6L16 5L17 5L17 4L18 4L18 3L16 3L16 4L15 4L15 3L13 3L13 4L12 4L12 7L13 7L13 5L15 5L15 6L14 6L14 7L15 7L15 6L16 6L16 8L13 8L13 9L12 9L12 12L9 12L9 13L7 13L7 12L8 12L8 11L11 11L11 10L10 10L10 9L11 9L11 1L10 1L10 3L9 3L9 2L8 2L8 3L9 3L9 4L8 4L8 5L10 5L10 9L8 9L8 11L7 11L7 10L6 10L6 9L7 9L7 8L5 8L5 10L6 10L6 11L5 11L5 12L4 12L4 9L2 9L2 10L1 10L1 9L0 9L0 10L1 10L1 11L0 11L0 15L1 15L1 17L2 17L2 15L1 15L1 14L4 14L4 16L3 16L3 17L4 17L4 16L5 16L5 20L4 20L4 19L3 19L3 18L0 18L0 19L3 19L3 20L4 20L4 21L2 21L2 20L0 20L0 21L1 21L1 22L0 22L0 23L2 23L2 24L0 24L0 26L1 26L1 27L0 27L0 33L1 33L1 31L2 31L2 32L4 32L4 31L5 31L5 32L6 32L6 33L8 33L8 34L10 34L10 31L9 31L9 32L6 32L6 31L7 31L7 30L6 30L6 31L5 31L5 30L4 30L4 28L5 28L5 27L4 27L4 26L5 26L5 25L4 25L4 24L6 24L6 25L7 25L7 24L8 24L8 26L6 26L6 27L8 27L8 29L9 29L9 30L10 30L10 28L11 28L11 29L12 29L12 27L11 27L11 26L9 26L9 25L10 25L10 24L12 24L12 25L13 25L13 27L14 27L14 28L13 28L13 30L11 30L11 32L12 32L12 35L11 35L11 37L12 37L12 36L13 36L13 39L15 39L15 38L16 38L16 40L17 40L17 41L21 41L21 40L22 40L22 41L23 41L23 40L22 40L22 39L23 39L23 38L24 38L24 41L25 41L25 35L26 35L26 39L28 39L28 40L29 40L29 41L30 41L30 40L29 40L29 37L30 37L30 38L31 38L31 37L32 37L32 38L33 38L33 37L36 37L36 38L34 38L34 39L33 39L33 41L34 41L34 40L36 40L36 39L37 39L37 40L38 40L38 39L40 39L40 40L41 40L41 39L40 39L40 38L41 38L41 36L40 36L40 34L39 34L39 32L41 32L41 29L40 29L40 30L39 30L39 32L34 32L34 31L33 31L33 30L34 30L34 28L35 28L35 27L36 27L36 28L40 28L40 26L41 26L41 25L39 25L39 24L37 24L37 21L39 21L39 22L41 22L41 20L40 20L40 19L41 19L41 15L40 15L40 14L41 14L41 12L40 12L40 13L39 13L39 12L38 12L38 11L40 11L40 9L41 9L41 8L40 8L40 9L39 9L39 8L38 8L38 10L37 10L37 8L36 8L36 10L34 10L34 9L35 9L35 8L34 8L34 9L33 9L33 8L32 8L32 9L30 9L30 8L31 8L31 5L32 5L32 7L33 7L33 5L32 5L32 4L30 4L30 8L29 8L29 5L28 5L28 7L27 7L27 4L28 4L28 3L31 3L31 2L30 2L30 1L29 1L29 0L28 0L28 2L26 2L26 4L25 4L25 5L26 5L26 7L25 7L25 6L24 6L24 7L25 7L25 8L27 8L27 9L24 9L24 8L23 8L23 9L22 9L22 8L21 8L21 3L20 3L20 0ZM21 0L21 2L22 2L22 3L25 3L25 2L22 2L22 1L26 1L26 0ZM32 0L32 2L33 2L33 0ZM12 1L12 2L14 2L14 1ZM16 1L16 2L17 2L17 1ZM23 4L23 5L22 5L22 7L23 7L23 5L24 5L24 4ZM8 6L8 8L9 8L9 6ZM19 6L19 7L20 7L20 6ZM15 9L15 10L14 10L14 12L15 12L15 13L16 13L16 11L15 11L15 10L16 10L16 9ZM23 9L23 10L24 10L24 11L25 11L25 13L24 13L24 14L25 14L25 16L24 16L24 19L25 19L25 18L26 18L26 20L27 20L27 17L28 17L28 18L30 18L30 17L33 17L33 18L32 18L32 19L29 19L29 22L28 22L28 23L29 23L29 25L30 25L30 26L28 26L28 27L29 27L29 28L31 28L31 29L27 29L27 26L23 26L23 25L21 25L21 24L23 24L23 21L24 21L24 22L25 22L25 23L24 23L24 25L26 25L26 24L25 24L25 23L27 23L27 21L24 21L24 20L23 20L23 16L21 16L21 17L20 17L20 18L19 18L19 14L18 14L18 15L17 15L17 14L14 14L14 13L12 13L12 14L9 14L9 15L8 15L8 14L7 14L7 13L6 13L6 12L7 12L7 11L6 11L6 12L5 12L5 13L4 13L4 12L3 12L3 10L2 10L2 11L1 11L1 13L2 13L2 12L3 12L3 13L4 13L4 14L5 14L5 15L6 15L6 16L7 16L7 17L6 17L6 18L9 18L9 19L6 19L6 20L9 20L9 21L8 21L8 22L7 22L7 21L6 21L6 22L4 22L4 23L3 23L3 24L2 24L2 25L1 25L1 26L2 26L2 28L1 28L1 30L2 30L2 29L3 29L3 26L4 26L4 25L3 25L3 24L4 24L4 23L6 23L6 24L7 24L7 23L8 23L8 24L10 24L10 23L12 23L12 24L13 24L13 22L14 22L14 25L15 25L15 27L16 27L16 26L17 26L17 29L18 29L18 27L20 27L20 28L21 28L21 29L20 29L20 30L15 30L15 31L16 31L16 32L17 32L17 31L20 31L20 33L19 33L19 32L18 32L18 33L17 33L17 35L16 35L16 36L15 36L15 34L16 34L16 33L15 33L15 32L14 32L14 30L13 30L13 31L12 31L12 32L14 32L14 33L13 33L13 34L14 34L14 36L15 36L15 37L14 37L14 38L15 38L15 37L17 37L17 38L18 38L18 36L20 36L20 38L19 38L19 40L20 40L20 39L22 39L22 38L21 38L21 36L20 36L20 35L21 35L21 34L20 34L20 33L21 33L21 31L20 31L20 30L21 30L21 29L23 29L23 27L26 27L26 28L24 28L24 29L26 29L26 30L25 30L25 31L27 31L27 32L25 32L25 33L23 33L23 34L22 34L22 35L23 35L23 36L22 36L22 37L23 37L23 36L24 36L24 34L26 34L26 35L27 35L27 36L28 36L28 35L27 35L27 34L26 34L26 33L27 33L27 32L31 32L31 31L32 31L32 29L33 29L33 28L32 28L32 26L34 26L34 27L35 27L35 26L36 26L36 25L37 25L37 24L36 24L36 23L35 23L35 22L36 22L36 21L35 21L35 18L36 18L36 20L39 20L39 21L40 21L40 20L39 20L39 19L38 19L38 17L37 17L37 16L38 16L38 15L39 15L39 13L37 13L37 12L36 12L36 13L35 13L35 12L34 12L34 10L33 10L33 12L32 12L32 10L31 10L31 12L32 12L32 13L31 13L31 15L29 15L29 14L30 14L30 9L29 9L29 10L28 10L28 11L27 11L27 10L26 10L26 11L25 11L25 10L24 10L24 9ZM28 11L28 12L26 12L26 13L28 13L28 14L29 14L29 11ZM22 12L22 13L23 13L23 12ZM36 13L36 14L35 14L35 15L34 15L34 14L32 14L32 16L33 16L33 17L34 17L34 18L35 18L35 17L36 17L36 18L37 18L37 17L36 17L36 16L37 16L37 15L38 15L38 14L37 14L37 13ZM6 14L6 15L7 15L7 14ZM13 14L13 16L12 16L12 17L13 17L13 18L10 18L10 16L11 16L11 15L9 15L9 16L8 16L8 17L9 17L9 18L10 18L10 19L9 19L9 20L10 20L10 19L13 19L13 18L14 18L14 14ZM26 14L26 17L27 17L27 16L28 16L28 15L27 15L27 14ZM15 15L15 17L16 17L16 16L17 16L17 15ZM35 15L35 16L34 16L34 17L35 17L35 16L36 16L36 15ZM29 16L29 17L30 17L30 16ZM39 16L39 17L40 17L40 16ZM15 18L15 19L14 19L14 20L13 20L13 21L12 21L12 20L11 20L11 22L13 22L13 21L14 21L14 22L16 22L16 23L15 23L15 25L16 25L16 24L17 24L17 25L18 25L18 24L17 24L17 23L19 23L19 26L20 26L20 27L21 27L21 28L22 28L22 27L23 27L23 26L22 26L22 27L21 27L21 26L20 26L20 24L21 24L21 23L22 23L22 21L23 21L23 20L22 20L22 18L20 18L20 19L21 19L21 21L19 21L19 22L17 22L17 21L18 21L18 20L19 20L19 19L18 19L18 18L17 18L17 21L16 21L16 20L15 20L15 19L16 19L16 18ZM33 19L33 20L32 20L32 21L31 21L31 20L30 20L30 21L31 21L31 22L33 22L33 24L34 24L34 26L35 26L35 23L34 23L34 19ZM14 20L14 21L15 21L15 20ZM6 22L6 23L7 23L7 22ZM9 22L9 23L10 23L10 22ZM20 22L20 23L21 23L21 22ZM30 23L30 25L31 25L31 26L32 26L32 23ZM40 23L40 24L41 24L41 23ZM8 26L8 27L9 27L9 26ZM38 26L38 27L39 27L39 26ZM6 28L6 29L7 29L7 28ZM35 29L35 30L36 30L36 31L37 31L37 30L38 30L38 29ZM22 30L22 31L23 31L23 32L24 32L24 31L23 31L23 30ZM27 30L27 31L28 31L28 30ZM30 30L30 31L31 31L31 30ZM18 33L18 35L19 35L19 33ZM30 33L30 35L31 35L31 34L32 34L32 33ZM33 33L33 36L36 36L36 33ZM34 34L34 35L35 35L35 34ZM37 34L37 35L38 35L38 37L39 37L39 38L40 38L40 36L39 36L39 35L38 35L38 34ZM8 35L8 36L9 36L9 41L10 41L10 40L12 40L12 38L11 38L11 39L10 39L10 36L9 36L9 35ZM30 36L30 37L31 37L31 36ZM37 38L37 39L38 39L38 38ZM17 39L17 40L18 40L18 39ZM31 39L31 40L32 40L32 39ZM26 40L26 41L27 41L27 40ZM0 0L0 7L7 7L7 0ZM1 1L1 6L6 6L6 1ZM2 2L2 5L5 5L5 2ZM34 0L34 7L41 7L41 0ZM35 1L35 6L40 6L40 1ZM36 2L36 5L39 5L39 2ZM0 34L0 41L7 41L7 34ZM1 35L1 40L6 40L6 35ZM2 36L2 39L5 39L5 36Z" fill="#000000"/></g></g></svg>
