<?xml version="1.0" encoding="UTF-8"?>
<svg xmlns="http://www.w3.org/2000/svg" version="1.1" width="200" height="200" viewBox="0 0 200 200"><rect x="0" y="0" width="200" height="200" fill="#ffffff"/><g transform="scale(4.878)"><g transform="translate(0,0)"><path fill-rule="evenodd" d="M9 0L9 1L10 1L10 2L8 2L8 4L10 4L10 2L11 2L11 5L12 5L12 7L13 7L13 8L14 8L14 9L15 9L15 6L16 6L16 7L17 7L17 8L16 8L16 9L17 9L17 8L19 8L19 9L18 9L18 10L17 10L17 11L18 11L18 14L17 14L17 12L16 12L16 14L14 14L14 13L15 13L15 11L14 11L14 10L12 10L12 11L13 11L13 13L12 13L12 15L11 15L11 16L10 16L10 17L9 17L9 16L6 16L6 15L8 15L8 14L6 14L6 13L7 13L7 12L5 12L5 11L8 11L8 12L9 12L9 11L10 11L10 10L11 10L11 9L12 9L12 8L11 8L11 9L10 9L10 8L9 8L9 9L10 9L10 10L5 10L5 8L3 8L3 9L4 9L4 12L3 12L3 10L1 10L1 11L0 11L0 14L4 14L4 17L5 17L5 18L3 18L3 17L2 17L2 18L3 18L3 19L2 19L2 21L1 21L1 22L2 22L2 23L3 23L3 22L4 22L4 24L5 24L5 26L6 26L6 27L4 27L4 28L5 28L5 29L3 29L3 27L2 27L2 26L4 26L4 25L2 25L2 26L0 26L0 28L1 28L1 29L0 29L0 33L3 33L3 32L4 32L4 30L5 30L5 29L8 29L8 30L9 30L9 31L10 31L10 32L11 32L11 31L12 31L12 34L13 34L13 32L14 32L14 31L13 31L13 27L14 27L14 28L16 28L16 27L17 27L17 25L18 25L18 27L19 27L19 28L18 28L18 29L17 29L17 31L18 31L18 33L19 33L19 34L17 34L17 35L15 35L15 34L14 34L14 35L15 35L15 36L17 36L17 35L19 35L19 34L22 34L22 35L23 35L23 36L24 36L24 37L23 37L23 38L22 38L22 39L23 39L23 38L24 38L24 37L25 37L25 38L26 38L26 37L25 37L25 36L27 36L27 39L28 39L28 40L29 40L29 39L28 39L28 38L29 38L29 37L30 37L30 39L31 39L31 40L32 40L32 41L34 41L34 40L35 40L35 41L36 41L36 39L37 39L37 40L38 40L38 41L39 41L39 40L38 40L38 39L40 39L40 40L41 40L41 35L40 35L40 34L39 34L39 32L40 32L40 33L41 33L41 30L38 30L38 29L39 29L39 27L40 27L40 28L41 28L41 25L39 25L39 24L37 24L37 20L38 20L38 22L41 22L41 21L39 21L39 20L40 20L40 19L41 19L41 18L40 18L40 19L39 19L39 18L38 18L38 16L40 16L40 17L41 17L41 11L40 11L40 9L39 9L39 8L37 8L37 9L35 9L35 10L34 10L34 11L35 11L35 10L36 10L36 12L35 12L35 13L36 13L36 14L37 14L37 15L36 15L36 16L37 16L37 17L35 17L35 20L34 20L34 19L33 19L33 17L34 17L34 16L35 16L35 14L33 14L33 13L32 13L32 11L33 11L33 6L32 6L32 8L29 8L29 6L28 6L28 8L27 8L27 5L26 5L26 7L25 7L25 6L24 6L24 7L25 7L25 8L23 8L23 9L22 9L22 10L21 10L21 11L20 11L20 9L21 9L21 8L22 8L22 7L23 7L23 6L22 6L22 5L23 5L23 3L22 3L22 5L21 5L21 6L20 6L20 7L19 7L19 6L18 6L18 7L17 7L17 6L16 6L16 5L15 5L15 6L14 6L14 7L13 7L13 4L15 4L15 2L16 2L16 1L15 1L15 0L13 0L13 1L12 1L12 0L11 0L11 1L10 1L10 0ZM18 0L18 2L19 2L19 3L17 3L17 5L20 5L20 3L21 3L21 1L20 1L20 2L19 2L19 0ZM22 0L22 1L23 1L23 2L24 2L24 3L26 3L26 4L28 4L28 2L29 2L29 3L31 3L31 2L32 2L32 4L29 4L29 5L30 5L30 7L31 7L31 5L32 5L32 4L33 4L33 0L32 0L32 1L31 1L31 2L30 2L30 1L29 1L29 0L28 0L28 2L27 2L27 1L26 1L26 0L25 0L25 1L24 1L24 0ZM11 1L11 2L12 2L12 1ZM13 1L13 3L12 3L12 4L13 4L13 3L14 3L14 1ZM8 6L8 7L9 7L9 6ZM10 6L10 7L11 7L11 6ZM21 6L21 7L20 7L20 8L21 8L21 7L22 7L22 6ZM6 8L6 9L8 9L8 8ZM26 8L26 9L27 9L27 8ZM28 8L28 9L29 9L29 10L28 10L28 12L29 12L29 14L30 14L30 15L28 15L28 13L27 13L27 11L26 11L26 10L25 10L25 11L24 11L24 9L23 9L23 11L21 11L21 12L24 12L24 13L25 13L25 15L24 15L24 14L23 14L23 13L22 13L22 14L21 14L21 13L20 13L20 11L19 11L19 14L18 14L18 15L17 15L17 19L16 19L16 20L14 20L14 19L15 19L15 18L16 18L16 17L15 17L15 18L14 18L14 17L13 17L13 20L14 20L14 21L12 21L12 18L11 18L11 17L10 17L10 18L9 18L9 17L6 17L6 16L5 16L5 17L6 17L6 18L5 18L5 19L4 19L4 21L6 21L6 22L5 22L5 23L6 23L6 24L8 24L8 23L9 23L9 22L10 22L10 21L11 21L11 24L10 24L10 25L11 25L11 26L10 26L10 27L9 27L9 26L8 26L8 25L6 25L6 26L8 26L8 27L6 27L6 28L8 28L8 27L9 27L9 28L10 28L10 31L11 31L11 29L12 29L12 27L11 27L11 26L14 26L14 27L15 27L15 26L16 26L16 25L17 25L17 24L18 24L18 25L20 25L20 26L19 26L19 27L20 27L20 29L18 29L18 30L20 30L20 31L19 31L19 32L20 32L20 31L21 31L21 32L23 32L23 31L21 31L21 28L22 28L22 29L24 29L24 28L26 28L26 29L25 29L25 30L24 30L24 31L25 31L25 30L26 30L26 31L27 31L27 32L28 32L28 33L29 33L29 32L30 32L30 31L29 31L29 30L28 30L28 29L27 29L27 28L29 28L29 29L30 29L30 30L31 30L31 33L30 33L30 34L28 34L28 35L27 35L27 36L28 36L28 35L29 35L29 36L30 36L30 37L31 37L31 36L32 36L32 35L31 35L31 33L32 33L32 32L33 32L33 31L34 31L34 32L36 32L36 31L38 31L38 30L33 30L33 31L32 31L32 28L33 28L33 26L34 26L34 24L35 24L35 26L36 26L36 25L37 25L37 27L39 27L39 25L37 25L37 24L35 24L35 23L36 23L36 21L34 21L34 24L33 24L33 23L32 23L32 22L33 22L33 19L28 19L28 21L29 21L29 22L28 22L28 23L27 23L27 22L26 22L26 21L27 21L27 20L26 20L26 19L25 19L25 20L24 20L24 18L27 18L27 17L30 17L30 18L31 18L31 17L32 17L32 15L31 15L31 14L30 14L30 12L31 12L31 11L32 11L32 10L31 10L31 9L29 9L29 8ZM37 9L37 10L38 10L38 12L40 12L40 11L39 11L39 10L38 10L38 9ZM30 10L30 11L29 11L29 12L30 12L30 11L31 11L31 10ZM25 11L25 13L26 13L26 15L25 15L25 16L23 16L23 14L22 14L22 15L21 15L21 16L20 16L20 14L19 14L19 16L20 16L20 17L18 17L18 18L21 18L21 19L20 19L20 20L19 20L19 19L18 19L18 20L17 20L17 21L15 21L15 22L14 22L14 23L13 23L13 25L14 25L14 26L15 26L15 25L16 25L16 24L17 24L17 21L18 21L18 23L19 23L19 24L20 24L20 23L21 23L21 22L20 22L20 21L23 21L23 23L22 23L22 24L23 24L23 26L22 26L22 28L24 28L24 27L25 27L25 26L26 26L26 27L28 27L28 26L31 26L31 27L32 27L32 26L31 26L31 25L29 25L29 24L31 24L31 23L29 23L29 24L27 24L27 25L25 25L25 23L26 23L26 22L24 22L24 20L23 20L23 19L22 19L22 18L24 18L24 17L25 17L25 16L26 16L26 17L27 17L27 16L28 16L28 15L27 15L27 13L26 13L26 11ZM2 12L2 13L3 13L3 12ZM36 12L36 13L37 13L37 14L38 14L38 15L37 15L37 16L38 16L38 15L40 15L40 13L39 13L39 14L38 14L38 13L37 13L37 12ZM4 13L4 14L5 14L5 15L6 15L6 14L5 14L5 13ZM10 13L10 14L9 14L9 15L10 15L10 14L11 14L11 13ZM13 14L13 15L12 15L12 16L16 16L16 15L14 15L14 14ZM1 15L1 16L0 16L0 17L1 17L1 16L2 16L2 15ZM26 15L26 16L27 16L27 15ZM30 15L30 17L31 17L31 15ZM21 16L21 17L22 17L22 16ZM6 18L6 19L5 19L5 20L6 20L6 21L7 21L7 22L6 22L6 23L8 23L8 22L9 22L9 21L10 21L10 20L11 20L11 19L9 19L9 18L8 18L8 19L7 19L7 18ZM36 18L36 20L37 20L37 19L38 19L38 18ZM6 19L6 20L7 20L7 19ZM21 19L21 20L22 20L22 19ZM8 20L8 21L9 21L9 20ZM30 20L30 21L31 21L31 22L32 22L32 20ZM15 22L15 23L14 23L14 25L15 25L15 24L16 24L16 22ZM0 24L0 25L1 25L1 24ZM32 24L32 25L33 25L33 24ZM24 25L24 26L23 26L23 27L24 27L24 26L25 26L25 25ZM35 27L35 28L34 28L34 29L38 29L38 28L36 28L36 27ZM30 28L30 29L31 29L31 28ZM2 29L2 30L3 30L3 29ZM14 29L14 30L15 30L15 31L16 31L16 29ZM26 29L26 30L27 30L27 31L28 31L28 30L27 30L27 29ZM6 30L6 31L7 31L7 30ZM6 32L6 33L7 33L7 32ZM8 32L8 35L10 35L10 36L8 36L8 38L9 38L9 37L10 37L10 40L9 40L9 41L10 41L10 40L13 40L13 41L18 41L18 38L19 38L19 41L23 41L23 40L21 40L21 37L22 37L22 36L19 36L19 37L18 37L18 38L17 38L17 39L16 39L16 40L14 40L14 38L15 38L15 37L14 37L14 36L13 36L13 35L10 35L10 33L9 33L9 32ZM15 32L15 33L16 33L16 32ZM25 32L25 33L24 33L24 34L25 34L25 33L26 33L26 34L27 34L27 33L26 33L26 32ZM37 32L37 38L40 38L40 36L39 36L39 35L38 35L38 32ZM33 33L33 36L36 36L36 33ZM34 34L34 35L35 35L35 34ZM30 35L30 36L31 36L31 35ZM10 36L10 37L11 37L11 39L12 39L12 38L14 38L14 37L11 37L11 36ZM19 37L19 38L20 38L20 37ZM32 37L32 38L31 38L31 39L32 39L32 40L33 40L33 39L35 39L35 38L36 38L36 37ZM24 39L24 41L26 41L26 40L25 40L25 39ZM0 0L0 7L7 7L7 0ZM1 1L1 6L6 6L6 1ZM2 2L2 5L5 5L5 2ZM34 0L34 7L41 7L41 0ZM35 1L35 6L40 6L40 1ZM36 2L36 5L39 5L39 2ZM0 34L0 41L7 41L7 34ZM1 35L1 40L6 40L6 35ZM2 36L2 39L5 39L5 36Z" fill="#000000"/></g></g></svg>
