<?xml version="1.0" encoding="UTF-8"?>
<svg xmlns="http://www.w3.org/2000/svg" version="1.1" width="200" height="200" viewBox="0 0 200 200"><rect x="0" y="0" width="200" height="200" fill="#ffffff"/><g transform="scale(4.878)"><g transform="translate(0,0)"><path fill-rule="evenodd" d="M8 0L8 3L10 3L10 5L8 5L8 9L7 9L7 8L6 8L6 9L5 9L5 8L2 8L2 9L5 9L5 12L6 12L6 13L8 13L8 14L5 14L5 13L1 13L1 12L4 12L4 10L2 10L2 11L0 11L0 16L1 16L1 17L0 17L0 18L1 18L1 17L2 17L2 18L3 18L3 17L2 17L2 16L4 16L4 21L5 21L5 22L4 22L4 23L2 23L2 25L0 25L0 26L2 26L2 28L0 28L0 33L1 33L1 30L3 30L3 31L4 31L4 30L5 30L5 31L9 31L9 33L8 33L8 34L9 34L9 35L10 35L10 38L11 38L11 39L12 39L12 41L14 41L14 40L13 40L13 38L14 38L14 39L15 39L15 41L17 41L17 40L18 40L18 39L17 39L17 40L16 40L16 36L18 36L18 37L17 37L17 38L18 38L18 37L19 37L19 39L20 39L20 41L21 41L21 38L23 38L23 37L25 37L25 38L24 38L24 40L23 40L23 41L24 41L24 40L26 40L26 41L31 41L31 40L33 40L33 41L34 41L34 40L33 40L33 39L31 39L31 38L32 38L32 37L33 37L33 38L34 38L34 39L35 39L35 40L36 40L36 39L37 39L37 36L38 36L38 38L39 38L39 40L40 40L40 38L41 38L41 37L40 37L40 36L41 36L41 35L40 35L40 34L41 34L41 33L39 33L39 32L41 32L41 31L40 31L40 30L41 30L41 29L39 29L39 30L38 30L38 29L36 29L36 28L38 28L38 26L39 26L39 28L40 28L40 26L41 26L41 23L40 23L40 26L39 26L39 24L37 24L37 25L34 25L34 24L36 24L36 23L33 23L33 22L32 22L32 21L34 21L34 22L36 22L36 21L37 21L37 22L38 22L38 23L39 23L39 22L38 22L38 21L39 21L39 20L36 20L36 19L35 19L35 17L36 17L36 18L37 18L37 19L40 19L40 18L41 18L41 16L40 16L40 18L38 18L38 17L39 17L39 16L38 16L38 14L39 14L39 15L40 15L40 14L41 14L41 12L40 12L40 10L41 10L41 8L38 8L38 9L40 9L40 10L37 10L37 9L36 9L36 8L32 8L32 9L31 9L31 8L27 8L27 6L28 6L28 7L29 7L29 6L30 6L30 7L31 7L31 6L30 6L30 5L29 5L29 6L28 6L28 5L27 5L27 6L26 6L26 9L23 9L23 10L21 10L21 8L24 8L24 7L25 7L25 5L24 5L24 7L23 7L23 5L22 5L22 3L20 3L20 4L21 4L21 5L22 5L22 7L21 7L21 6L20 6L20 7L21 7L21 8L20 8L20 9L19 9L19 10L20 10L20 11L19 11L19 12L18 12L18 13L17 13L17 11L18 11L18 8L19 8L19 5L17 5L17 4L16 4L16 3L18 3L18 4L19 4L19 2L21 2L21 1L22 1L22 2L23 2L23 1L24 1L24 0L23 0L23 1L22 1L22 0L21 0L21 1L19 1L19 0L18 0L18 2L17 2L17 1L16 1L16 0L15 0L15 1L14 1L14 0L12 0L12 1L10 1L10 0ZM25 0L25 3L26 3L26 4L27 4L27 3L28 3L28 4L29 4L29 1L27 1L27 0ZM31 0L31 1L30 1L30 2L31 2L31 1L32 1L32 2L33 2L33 1L32 1L32 0ZM12 1L12 3L13 3L13 2L14 2L14 1ZM26 2L26 3L27 3L27 2ZM23 3L23 4L24 4L24 3ZM30 3L30 4L31 4L31 5L33 5L33 4L31 4L31 3ZM11 4L11 5L10 5L10 6L9 6L9 7L10 7L10 6L11 6L11 7L12 7L12 8L10 8L10 10L9 10L9 11L8 11L8 10L7 10L7 9L6 9L6 10L7 10L7 11L6 11L6 12L9 12L9 14L10 14L10 12L11 12L11 11L13 11L13 12L12 12L12 13L11 13L11 15L12 15L12 14L13 14L13 13L14 13L14 10L16 10L16 11L15 11L15 12L16 12L16 11L17 11L17 10L16 10L16 4L15 4L15 5L14 5L14 6L13 6L13 4ZM11 5L11 6L12 6L12 7L13 7L13 8L12 8L12 10L13 10L13 9L15 9L15 8L14 8L14 7L15 7L15 6L14 6L14 7L13 7L13 6L12 6L12 5ZM17 6L17 8L18 8L18 6ZM32 6L32 7L33 7L33 6ZM27 9L27 10L30 10L30 11L26 11L26 12L25 12L25 11L24 11L24 10L23 10L23 13L22 13L22 12L20 12L20 15L15 15L15 14L14 14L14 15L15 15L15 16L11 16L11 17L12 17L12 18L13 18L13 19L12 19L12 20L11 20L11 18L10 18L10 20L9 20L9 23L8 23L8 21L6 21L6 22L5 22L5 23L6 23L6 24L3 24L3 25L2 25L2 26L3 26L3 25L4 25L4 27L5 27L5 29L6 29L6 30L7 30L7 29L8 29L8 30L9 30L9 31L10 31L10 34L13 34L13 35L12 35L12 38L13 38L13 37L14 37L14 38L15 38L15 36L13 36L13 35L16 35L16 34L17 34L17 35L18 35L18 36L20 36L20 33L23 33L23 34L21 34L21 37L20 37L20 38L21 38L21 37L23 37L23 36L25 36L25 35L23 35L23 34L25 34L25 32L24 32L24 31L27 31L27 34L26 34L26 36L28 36L28 37L26 37L26 38L25 38L25 39L27 39L27 38L28 38L28 37L29 37L29 39L28 39L28 40L31 40L31 39L30 39L30 38L31 38L31 37L32 37L32 35L30 35L30 34L31 34L31 33L32 33L32 32L36 32L36 31L37 31L37 32L39 32L39 31L38 31L38 30L36 30L36 29L34 29L34 28L33 28L33 27L34 27L34 25L32 25L32 24L33 24L33 23L32 23L32 22L31 22L31 23L26 23L26 21L27 21L27 22L30 22L30 21L32 21L32 20L34 20L34 21L36 21L36 20L35 20L35 19L34 19L34 18L33 18L33 17L32 17L32 18L31 18L31 17L30 17L30 19L32 19L32 20L29 20L29 16L31 16L31 15L28 15L28 17L27 17L27 16L26 16L26 13L27 13L27 12L30 12L30 11L31 11L31 14L32 14L32 15L33 15L33 16L34 16L34 17L35 17L35 16L36 16L36 17L38 17L38 16L36 16L36 15L37 15L37 14L38 14L38 13L39 13L39 14L40 14L40 13L39 13L39 11L38 11L38 12L35 12L35 11L37 11L37 10L34 10L34 11L32 11L32 10L33 10L33 9L32 9L32 10L31 10L31 9ZM10 10L10 11L9 11L9 12L10 12L10 11L11 11L11 10ZM33 12L33 13L32 13L32 14L33 14L33 15L34 15L34 14L33 14L33 13L34 13L34 12ZM21 13L21 14L22 14L22 13ZM24 13L24 14L23 14L23 16L22 16L22 17L23 17L23 16L24 16L24 17L26 17L26 18L27 18L27 19L24 19L24 20L22 20L22 19L21 19L21 20L20 20L20 19L19 19L19 18L20 18L20 17L19 17L19 16L18 16L18 17L17 17L17 16L15 16L15 17L16 17L16 18L14 18L14 17L13 17L13 18L14 18L14 19L15 19L15 20L12 20L12 22L10 22L10 23L9 23L9 24L10 24L10 23L12 23L12 24L11 24L11 25L7 25L7 24L8 24L8 23L7 23L7 22L6 22L6 23L7 23L7 24L6 24L6 25L5 25L5 26L6 26L6 27L7 27L7 28L6 28L6 29L7 29L7 28L8 28L8 29L9 29L9 30L10 30L10 31L11 31L11 29L19 29L19 30L18 30L18 31L19 31L19 32L18 32L18 33L17 33L17 32L16 32L16 31L17 31L17 30L16 30L16 31L15 31L15 30L12 30L12 31L14 31L14 32L15 32L15 33L13 33L13 32L12 32L12 33L13 33L13 34L15 34L15 33L17 33L17 34L18 34L18 35L19 35L19 32L20 32L20 31L21 31L21 30L22 30L22 29L24 29L24 30L25 30L25 29L24 29L24 28L26 28L26 26L27 26L27 27L28 27L28 28L27 28L27 29L26 29L26 30L29 30L29 31L28 31L28 33L31 33L31 32L29 32L29 31L30 31L30 30L31 30L31 29L30 29L30 28L29 28L29 26L30 26L30 25L31 25L31 26L32 26L32 25L31 25L31 24L32 24L32 23L31 23L31 24L27 24L27 25L25 25L25 26L21 26L21 25L20 25L20 23L21 23L21 24L23 24L23 25L24 25L24 22L25 22L25 20L28 20L28 21L29 21L29 20L28 20L28 18L27 18L27 17L26 17L26 16L25 16L25 13ZM28 13L28 14L30 14L30 13ZM36 13L36 14L35 14L35 15L36 15L36 14L37 14L37 13ZM2 14L2 15L1 15L1 16L2 16L2 15L5 15L5 14ZM6 15L6 16L5 16L5 17L6 17L6 18L5 18L5 19L6 19L6 20L7 20L7 19L6 19L6 18L7 18L7 17L10 17L10 16L8 16L8 15ZM20 15L20 16L21 16L21 15ZM6 16L6 17L7 17L7 16ZM18 17L18 18L19 18L19 17ZM8 18L8 19L9 19L9 18ZM0 19L0 20L1 20L1 21L2 21L2 22L3 22L3 21L2 21L2 20L1 20L1 19ZM16 19L16 20L15 20L15 21L16 21L16 20L18 20L18 21L19 21L19 19ZM10 20L10 21L11 21L11 20ZM40 20L40 21L41 21L41 20ZM20 21L20 22L19 22L19 23L20 23L20 22L21 22L21 23L22 23L22 22L24 22L24 21L22 21L22 22L21 22L21 21ZM0 22L0 24L1 24L1 22ZM12 22L12 23L14 23L14 25L15 25L15 23L17 23L17 24L16 24L16 26L18 26L18 27L17 27L17 28L20 28L20 30L19 30L19 31L20 31L20 30L21 30L21 29L22 29L22 27L21 27L21 28L20 28L20 27L19 27L19 24L18 24L18 22ZM25 23L25 24L26 24L26 23ZM6 25L6 26L7 26L7 25ZM11 25L11 27L10 27L10 26L8 26L8 27L10 27L10 28L9 28L9 29L11 29L11 27L12 27L12 28L13 28L13 27L14 27L14 28L15 28L15 26L13 26L13 25ZM27 25L27 26L29 26L29 25ZM12 26L12 27L13 27L13 26ZM35 26L35 27L37 27L37 26ZM31 27L31 28L32 28L32 29L33 29L33 30L32 30L32 31L33 31L33 30L34 30L34 31L36 31L36 30L34 30L34 29L33 29L33 28L32 28L32 27ZM2 28L2 29L3 29L3 28ZM28 28L28 29L29 29L29 30L30 30L30 29L29 29L29 28ZM22 31L22 32L23 32L23 33L24 33L24 32L23 32L23 31ZM6 32L6 33L7 33L7 32ZM33 33L33 36L36 36L36 33ZM38 33L38 34L37 34L37 35L38 35L38 36L39 36L39 35L38 35L38 34L39 34L39 33ZM27 34L27 35L29 35L29 34ZM34 34L34 35L35 35L35 34ZM8 36L8 39L9 39L9 40L10 40L10 39L9 39L9 36ZM30 36L30 37L31 37L31 36ZM34 37L34 38L36 38L36 37ZM0 0L0 7L7 7L7 0ZM1 1L1 6L6 6L6 1ZM2 2L2 5L5 5L5 2ZM34 0L34 7L41 7L41 0ZM35 1L35 6L40 6L40 1ZM36 2L36 5L39 5L39 2ZM0 34L0 41L7 41L7 34ZM1 35L1 40L6 40L6 35ZM2 36L2 39L5 39L5 36Z" fill="#000000"/></g></g></svg>
