<?xml version="1.0" encoding="UTF-8"?>
<svg xmlns="http://www.w3.org/2000/svg" version="1.1" width="200" height="200" viewBox="0 0 200 200"><rect x="0" y="0" width="200" height="200" fill="#ffffff"/><g transform="scale(6.897)"><g transform="translate(0,0)"><path fill-rule="evenodd" d="M8 0L8 3L10 3L10 4L9 4L9 5L8 5L8 9L7 9L7 8L6 8L6 9L7 9L7 10L5 10L5 8L2 8L2 9L3 9L3 10L2 10L2 11L0 11L0 12L1 12L1 13L0 13L0 14L2 14L2 13L3 13L3 12L4 12L4 14L5 14L5 15L4 15L4 16L5 16L5 15L7 15L7 16L6 16L6 17L7 17L7 16L10 16L10 17L11 17L11 18L8 18L8 19L7 19L7 18L6 18L6 19L4 19L4 18L5 18L5 17L4 17L4 18L3 18L3 17L2 17L2 18L3 18L3 19L2 19L2 20L3 20L3 21L7 21L7 20L8 20L8 19L9 19L9 20L11 20L11 18L13 18L13 17L14 17L14 18L15 18L15 20L13 20L13 21L8 21L8 22L10 22L10 24L8 24L8 27L9 27L9 28L10 28L10 29L11 29L11 28L10 28L10 27L12 27L12 26L13 26L13 29L15 29L15 28L16 28L16 27L18 27L18 29L25 29L25 28L26 28L26 27L27 27L27 29L28 29L28 28L29 28L29 27L28 27L28 25L26 25L26 24L25 24L25 22L26 22L26 23L27 23L27 22L26 22L26 21L25 21L25 20L28 20L28 22L29 22L29 20L28 20L28 19L27 19L27 17L28 17L28 15L27 15L27 14L26 14L26 13L25 13L25 12L27 12L27 13L28 13L28 10L29 10L29 8L26 8L26 9L25 9L25 12L24 12L24 11L22 11L22 12L23 12L23 13L21 13L21 15L22 15L22 14L23 14L23 13L24 13L24 19L25 19L25 20L23 20L23 19L22 19L22 18L20 18L20 19L21 19L21 20L20 20L20 25L19 25L19 22L18 22L18 24L17 24L17 23L16 23L16 25L15 25L15 23L13 23L13 21L15 21L15 20L16 20L16 22L17 22L17 20L16 20L16 19L17 19L17 18L18 18L18 16L19 16L19 15L18 15L18 13L20 13L20 12L21 12L21 11L20 11L20 10L22 10L22 9L23 9L23 10L24 10L24 8L21 8L21 9L20 9L20 7L21 7L21 5L20 5L20 4L21 4L21 3L20 3L20 4L19 4L19 3L18 3L18 4L17 4L17 2L14 2L14 4L13 4L13 1L14 1L14 0ZM15 0L15 1L17 1L17 0ZM9 1L9 2L10 2L10 1ZM11 1L11 2L12 2L12 1ZM18 1L18 2L19 2L19 1ZM20 1L20 2L21 2L21 1ZM11 3L11 4L10 4L10 5L9 5L9 7L10 7L10 8L11 8L11 9L10 9L10 11L9 11L9 12L11 12L11 11L13 11L13 9L14 9L14 12L15 12L15 10L16 10L16 9L14 9L14 8L16 8L16 6L17 6L17 7L18 7L18 6L19 6L19 7L20 7L20 6L19 6L19 5L18 5L18 6L17 6L17 4L16 4L16 3L15 3L15 4L16 4L16 5L13 5L13 4L12 4L12 3ZM11 4L11 5L12 5L12 4ZM10 6L10 7L11 7L11 6ZM12 6L12 9L11 9L11 10L12 10L12 9L13 9L13 6ZM14 6L14 7L15 7L15 6ZM17 8L17 9L19 9L19 10L20 10L20 9L19 9L19 8ZM3 10L3 11L2 11L2 12L3 12L3 11L4 11L4 12L5 12L5 14L7 14L7 15L10 15L10 14L11 14L11 13L6 13L6 12L7 12L7 11L8 11L8 10L7 10L7 11L6 11L6 12L5 12L5 11L4 11L4 10ZM26 10L26 11L27 11L27 10ZM18 11L18 12L19 12L19 11ZM12 12L12 16L11 16L11 17L13 17L13 15L14 15L14 16L16 16L16 15L17 15L17 16L18 16L18 15L17 15L17 12L16 12L16 13L15 13L15 14L16 14L16 15L14 15L14 13L13 13L13 12ZM0 15L0 16L1 16L1 15ZM25 15L25 16L27 16L27 15ZM20 16L20 17L22 17L22 16ZM0 17L0 21L1 21L1 17ZM16 17L16 18L17 18L17 17ZM25 18L25 19L26 19L26 18ZM3 19L3 20L4 20L4 19ZM6 19L6 20L7 20L7 19ZM18 19L18 20L19 20L19 19ZM21 21L21 24L24 24L24 21ZM11 22L11 24L10 24L10 26L9 26L9 27L10 27L10 26L11 26L11 24L13 24L13 23L12 23L12 22ZM22 22L22 23L23 23L23 22ZM13 25L13 26L14 26L14 25ZM16 25L16 26L15 26L15 27L14 27L14 28L15 28L15 27L16 27L16 26L18 26L18 27L19 27L19 28L22 28L22 27L21 27L21 26L20 26L20 27L19 27L19 26L18 26L18 25ZM22 25L22 26L23 26L23 27L25 27L25 26L26 26L26 25L25 25L25 26L24 26L24 25ZM0 0L0 7L7 7L7 0ZM1 1L1 6L6 6L6 1ZM2 2L2 5L5 5L5 2ZM22 0L22 7L29 7L29 0ZM23 1L23 6L28 6L28 1ZM24 2L24 5L27 5L27 2ZM0 22L0 29L7 29L7 22ZM1 23L1 28L6 28L6 23ZM2 24L2 27L5 27L5 24Z" fill="#000000"/></g></g></svg>
