<?xml version="1.0" encoding="UTF-8"?>
<svg xmlns="http://www.w3.org/2000/svg" version="1.1" width="200" height="200" viewBox="0 0 200 200"><rect x="0" y="0" width="200" height="200" fill="#ffffff"/><g transform="scale(4.878)"><g transform="translate(0,0)"><path fill-rule="evenodd" d="M8 0L8 3L9 3L9 4L10 4L10 3L9 3L9 0ZM13 0L13 1L12 1L12 2L11 2L11 5L10 5L10 7L9 7L9 5L8 5L8 11L7 11L7 10L6 10L6 9L7 9L7 8L6 8L6 9L5 9L5 8L2 8L2 10L1 10L1 9L0 9L0 10L1 10L1 11L0 11L0 17L1 17L1 18L0 18L0 20L1 20L1 19L3 19L3 20L4 20L4 21L2 21L2 22L1 22L1 24L2 24L2 22L4 22L4 24L6 24L6 25L5 25L5 26L4 26L4 25L3 25L3 26L1 26L1 25L0 25L0 27L3 27L3 29L2 29L2 28L1 28L1 29L0 29L0 33L1 33L1 29L2 29L2 30L3 30L3 32L4 32L4 31L9 31L9 30L10 30L10 31L11 31L11 30L10 30L10 29L12 29L12 28L13 28L13 27L14 27L14 25L15 25L15 26L16 26L16 25L15 25L15 24L12 24L12 23L16 23L16 24L17 24L17 26L18 26L18 27L17 27L17 28L18 28L18 29L17 29L17 30L14 30L14 31L17 31L17 32L16 32L16 33L18 33L18 32L21 32L21 33L22 33L22 31L25 31L25 33L24 33L24 32L23 32L23 34L21 34L21 36L22 36L22 37L23 37L23 38L21 38L21 40L20 40L20 41L22 41L22 40L23 40L23 41L26 41L26 40L24 40L24 39L27 39L27 41L32 41L32 40L33 40L33 41L34 41L34 40L33 40L33 39L32 39L32 40L28 40L28 39L29 39L29 38L30 38L30 39L31 39L31 38L32 38L32 37L33 37L33 38L34 38L34 39L35 39L35 40L36 40L36 39L37 39L37 40L40 40L40 38L41 38L41 37L39 37L39 36L37 36L37 33L38 33L38 34L39 34L39 35L40 35L40 34L41 34L41 32L40 32L40 30L41 30L41 29L39 29L39 32L37 32L37 31L38 31L38 30L37 30L37 29L36 29L36 28L38 28L38 26L39 26L39 28L40 28L40 26L41 26L41 23L39 23L39 24L40 24L40 26L39 26L39 25L36 25L36 24L37 24L37 23L38 23L38 22L39 22L39 20L36 20L36 19L35 19L35 17L36 17L36 18L38 18L38 17L39 17L39 16L38 16L38 15L39 15L39 14L41 14L41 13L39 13L39 14L38 14L38 13L36 13L36 15L37 15L37 16L38 16L38 17L36 17L36 16L35 16L35 17L34 17L34 16L33 16L33 17L30 17L30 16L29 16L29 15L28 15L28 16L29 16L29 17L30 17L30 19L31 19L31 20L30 20L30 21L31 21L31 22L30 22L30 23L31 23L31 22L32 22L32 21L34 21L34 22L35 22L35 23L36 23L36 24L35 24L35 25L34 25L34 24L33 24L33 23L32 23L32 25L31 25L31 24L29 24L29 25L28 25L28 24L27 24L27 23L29 23L29 22L26 22L26 26L24 26L24 24L25 24L25 23L23 23L23 21L24 21L24 22L25 22L25 21L26 21L26 19L25 19L25 18L24 18L24 17L26 17L26 16L25 16L25 15L27 15L27 14L29 14L29 13L30 13L30 14L31 14L31 12L32 12L32 13L33 13L33 14L32 14L32 15L34 15L34 13L35 13L35 11L36 11L36 12L38 12L38 11L40 11L40 10L41 10L41 8L38 8L38 9L40 9L40 10L37 10L37 9L36 9L36 8L32 8L32 7L33 7L33 5L32 5L32 4L33 4L33 2L32 2L32 4L29 4L29 3L31 3L31 2L30 2L30 0L29 0L29 1L27 1L27 0L26 0L26 1L27 1L27 2L26 2L26 3L28 3L28 4L29 4L29 5L30 5L30 8L29 8L29 6L28 6L28 5L27 5L27 4L26 4L26 5L25 5L25 6L24 6L24 4L23 4L23 3L22 3L22 2L20 2L20 4L22 4L22 5L21 5L21 6L20 6L20 5L18 5L18 3L17 3L17 2L18 2L18 0L15 0L15 1L17 1L17 2L16 2L16 3L17 3L17 4L15 4L15 3L13 3L13 5L14 5L14 7L13 7L13 6L12 6L12 7L13 7L13 8L11 8L11 5L12 5L12 2L13 2L13 1L14 1L14 0ZM20 0L20 1L24 1L24 2L25 2L25 1L24 1L24 0ZM31 0L31 1L32 1L32 0ZM14 4L14 5L15 5L15 4ZM17 5L17 7L16 7L16 6L15 6L15 7L16 7L16 8L17 8L17 7L18 7L18 9L15 9L15 8L13 8L13 9L12 9L12 10L11 10L11 11L10 11L10 9L11 9L11 8L10 8L10 9L9 9L9 11L8 11L8 12L7 12L7 11L4 11L4 10L3 10L3 11L1 11L1 12L3 12L3 11L4 11L4 12L5 12L5 13L1 13L1 16L2 16L2 17L3 17L3 16L2 16L2 14L7 14L7 15L6 15L6 16L7 16L7 17L5 17L5 16L4 16L4 18L3 18L3 19L4 19L4 20L5 20L5 23L6 23L6 24L7 24L7 25L6 25L6 26L5 26L5 27L6 27L6 28L5 28L5 29L6 29L6 30L8 30L8 27L9 27L9 28L10 28L10 26L13 26L13 25L12 25L12 24L11 24L11 22L12 22L12 20L14 20L14 21L13 21L13 22L16 22L16 23L17 23L17 24L20 24L20 22L18 22L18 21L19 21L19 20L20 20L20 19L21 19L21 18L22 18L22 20L21 20L21 22L22 22L22 21L23 21L23 18L22 18L22 17L24 17L24 15L25 15L25 12L26 12L26 14L27 14L27 12L28 12L28 13L29 13L29 12L30 12L30 10L31 10L31 11L32 11L32 12L33 12L33 13L34 13L34 12L33 12L33 11L34 11L34 9L32 9L32 8L31 8L31 9L26 9L26 6L25 6L25 7L24 7L24 6L23 6L23 7L22 7L22 6L21 6L21 7L20 7L20 6L19 6L19 7L18 7L18 5ZM31 5L31 7L32 7L32 5ZM27 6L27 7L28 7L28 6ZM19 7L19 8L20 8L20 7ZM23 8L23 10L24 10L24 9L25 9L25 11L23 11L23 13L22 13L22 12L21 12L21 11L20 11L20 9L19 9L19 11L18 11L18 10L17 10L17 11L16 11L16 10L15 10L15 9L14 9L14 10L13 10L13 12L12 12L12 13L11 13L11 12L10 12L10 11L9 11L9 12L8 12L8 13L7 13L7 12L6 12L6 13L7 13L7 14L8 14L8 15L7 15L7 16L8 16L8 15L9 15L9 17L10 17L10 16L11 16L11 15L10 15L10 14L9 14L9 13L11 13L11 14L13 14L13 15L12 15L12 16L13 16L13 15L14 15L14 17L12 17L12 18L11 18L11 19L14 19L14 20L15 20L15 21L16 21L16 20L17 20L17 21L18 21L18 20L19 20L19 19L20 19L20 18L21 18L21 17L20 17L20 18L19 18L19 16L20 16L20 15L19 15L19 14L20 14L20 13L19 13L19 11L20 11L20 12L21 12L21 13L22 13L22 14L23 14L23 15L24 15L24 12L25 12L25 11L26 11L26 12L27 12L27 11L29 11L29 10L26 10L26 9L25 9L25 8ZM31 9L31 10L32 10L32 11L33 11L33 10L32 10L32 9ZM35 9L35 10L36 10L36 9ZM14 10L14 11L15 11L15 12L14 12L14 13L13 13L13 14L14 14L14 13L16 13L16 14L15 14L15 17L14 17L14 19L15 19L15 18L16 18L16 17L17 17L17 18L18 18L18 15L17 15L17 13L18 13L18 14L19 14L19 13L18 13L18 12L16 12L16 11L15 11L15 10ZM37 14L37 15L38 15L38 14ZM21 15L21 16L22 16L22 15ZM40 16L40 18L39 18L39 19L40 19L40 18L41 18L41 16ZM6 18L6 19L5 19L5 20L6 20L6 21L8 21L8 22L6 22L6 23L9 23L9 22L10 22L10 18L9 18L9 21L8 21L8 20L6 20L6 19L8 19L8 18ZM27 18L27 21L29 21L29 20L28 20L28 18ZM31 18L31 19L32 19L32 20L31 20L31 21L32 21L32 20L34 20L34 21L35 21L35 22L36 22L36 21L35 21L35 19L34 19L34 18L33 18L33 19L32 19L32 18ZM17 19L17 20L18 20L18 19ZM24 20L24 21L25 21L25 20ZM40 20L40 21L41 21L41 20ZM37 21L37 22L38 22L38 21ZM21 23L21 25L20 25L20 26L21 26L21 25L22 25L22 26L23 26L23 24L22 24L22 23ZM8 24L8 26L10 26L10 24ZM27 25L27 26L28 26L28 28L27 28L27 27L26 27L26 29L28 29L28 30L30 30L30 31L28 31L28 32L30 32L30 33L31 33L31 34L30 34L30 35L31 35L31 34L32 34L32 33L31 33L31 32L30 32L30 31L31 31L31 30L32 30L32 31L33 31L33 32L36 32L36 31L37 31L37 30L36 30L36 29L35 29L35 27L36 27L36 25L35 25L35 26L34 26L34 25L32 25L32 26L31 26L31 25L30 25L30 26L28 26L28 25ZM3 26L3 27L4 27L4 26ZM6 26L6 27L7 27L7 26ZM32 26L32 27L34 27L34 26ZM11 27L11 28L12 28L12 27ZM22 27L22 28L21 28L21 31L22 31L22 30L24 30L24 29L25 29L25 27L24 27L24 28L23 28L23 27ZM6 28L6 29L7 29L7 28ZM14 28L14 29L16 29L16 28ZM19 28L19 30L18 30L18 31L20 31L20 28ZM22 28L22 29L23 29L23 28ZM28 28L28 29L30 29L30 30L31 30L31 29L30 29L30 28ZM33 28L33 29L32 29L32 30L33 30L33 29L34 29L34 28ZM25 30L25 31L26 31L26 33L25 33L25 35L24 35L24 34L23 34L23 35L22 35L22 36L23 36L23 37L24 37L24 38L23 38L23 39L24 39L24 38L26 38L26 36L27 36L27 35L26 35L26 33L27 33L27 34L28 34L28 35L29 35L29 33L27 33L27 30ZM34 30L34 31L35 31L35 30ZM6 32L6 33L7 33L7 32ZM8 32L8 34L9 34L9 36L8 36L8 39L9 39L9 38L10 38L10 37L9 37L9 36L12 36L12 35L11 35L11 34L9 34L9 32ZM11 32L11 33L12 33L12 32ZM13 32L13 33L14 33L14 34L13 34L13 35L14 35L14 36L13 36L13 37L12 37L12 38L11 38L11 40L13 40L13 41L19 41L19 40L17 40L17 37L18 37L18 36L19 36L19 37L20 37L20 36L19 36L19 34L17 34L17 36L16 36L16 35L15 35L15 32ZM33 33L33 36L36 36L36 33ZM34 34L34 35L35 35L35 34ZM25 35L25 36L24 36L24 37L25 37L25 36L26 36L26 35ZM15 36L15 37L16 37L16 36ZM29 36L29 37L27 37L27 38L29 38L29 37L32 37L32 36ZM34 37L34 38L36 38L36 37ZM15 38L15 39L13 39L13 40L15 40L15 39L16 39L16 38ZM19 38L19 39L20 39L20 38ZM37 38L37 39L38 39L38 38ZM9 40L9 41L10 41L10 40ZM0 0L0 7L7 7L7 0ZM1 1L1 6L6 6L6 1ZM2 2L2 5L5 5L5 2ZM34 0L34 7L41 7L41 0ZM35 1L35 6L40 6L40 1ZM36 2L36 5L39 5L39 2ZM0 34L0 41L7 41L7 34ZM1 35L1 40L6 40L6 35ZM2 36L2 39L5 39L5 36Z" fill="#000000"/></g></g></svg>
