<?xml version="1.0" encoding="UTF-8"?>
<svg xmlns="http://www.w3.org/2000/svg" version="1.1" width="200" height="200" viewBox="0 0 200 200"><rect x="0" y="0" width="200" height="200" fill="#ffffff"/><g transform="scale(6.897)"><g transform="translate(0,0)"><path fill-rule="evenodd" d="M9 0L9 1L8 1L8 7L9 7L9 8L5 8L5 9L3 9L3 8L2 8L2 9L0 9L0 11L1 11L1 10L3 10L3 11L2 11L2 12L0 12L0 14L1 14L1 13L2 13L2 12L4 12L4 14L3 14L3 15L1 15L1 16L0 16L0 17L1 17L1 16L2 16L2 18L0 18L0 19L2 19L2 20L0 20L0 21L2 21L2 20L3 20L3 21L4 21L4 19L5 19L5 20L6 20L6 21L8 21L8 24L9 24L9 25L10 25L10 24L9 24L9 23L10 23L10 22L9 22L9 20L11 20L11 19L12 19L12 20L13 20L13 19L12 19L12 18L16 18L16 20L15 20L15 19L14 19L14 23L12 23L12 21L11 21L11 24L13 24L13 25L11 25L11 26L10 26L10 27L11 27L11 28L10 28L10 29L11 29L11 28L13 28L13 27L17 27L17 29L19 29L19 28L18 28L18 27L19 27L19 26L20 26L20 27L21 27L21 29L22 29L22 28L24 28L24 29L26 29L26 28L24 28L24 26L23 26L23 27L22 27L22 26L21 26L21 25L25 25L25 26L26 26L26 25L29 25L29 24L26 24L26 25L25 25L25 23L26 23L26 21L27 21L27 23L28 23L28 22L29 22L29 21L27 21L27 18L28 18L28 19L29 19L29 18L28 18L28 17L29 17L29 16L27 16L27 17L25 17L25 16L22 16L22 15L25 15L25 14L26 14L26 13L29 13L29 12L27 12L27 11L29 11L29 9L28 9L28 8L23 8L23 10L22 10L22 11L21 11L21 9L22 9L22 8L21 8L21 0L19 0L19 1L20 1L20 2L19 2L19 3L20 3L20 5L17 5L17 4L16 4L16 3L15 3L15 2L16 2L16 1L15 1L15 0L11 0L11 1L10 1L10 0ZM17 0L17 1L18 1L18 0ZM11 1L11 2L12 2L12 1ZM13 1L13 3L11 3L11 4L10 4L10 2L9 2L9 7L10 7L10 9L9 9L9 10L7 10L7 9L6 9L6 10L7 10L7 11L5 11L5 10L4 10L4 11L5 11L5 15L6 15L6 16L4 16L4 15L3 15L3 18L5 18L5 19L6 19L6 20L7 20L7 19L6 19L6 18L8 18L8 20L9 20L9 18L8 18L8 17L6 17L6 16L7 16L7 15L6 15L6 14L7 14L7 13L6 13L6 12L9 12L9 11L10 11L10 14L11 14L11 15L13 15L13 16L12 16L12 17L14 17L14 16L16 16L16 18L17 18L17 17L18 17L18 15L17 15L17 16L16 16L16 14L15 14L15 12L16 12L16 13L17 13L17 14L22 14L22 12L21 12L21 13L20 13L20 12L19 12L19 11L20 11L20 8L19 8L19 7L20 7L20 6L19 6L19 7L18 7L18 6L17 6L17 5L16 5L16 6L15 6L15 7L14 7L14 4L13 4L13 3L14 3L14 2L15 2L15 1ZM17 2L17 3L18 3L18 2ZM12 4L12 7L11 7L11 5L10 5L10 7L11 7L11 8L12 8L12 7L13 7L13 4ZM16 6L16 7L15 7L15 8L14 8L14 9L13 9L13 13L14 13L14 12L15 12L15 11L16 11L16 10L17 10L17 12L18 12L18 13L19 13L19 12L18 12L18 11L19 11L19 10L18 10L18 7L17 7L17 6ZM11 9L11 10L10 10L10 11L11 11L11 10L12 10L12 9ZM25 9L25 10L24 10L24 11L27 11L27 10L28 10L28 9ZM14 10L14 11L15 11L15 10ZM23 12L23 14L25 14L25 13L24 13L24 12ZM13 14L13 15L15 15L15 14ZM27 14L27 15L29 15L29 14ZM19 15L19 16L20 16L20 17L19 17L19 18L20 18L20 19L18 19L18 20L22 20L22 19L21 19L21 15ZM9 16L9 17L10 17L10 19L11 19L11 16ZM22 17L22 18L25 18L25 20L26 20L26 18L25 18L25 17ZM23 19L23 20L24 20L24 19ZM16 20L16 21L15 21L15 23L14 23L14 25L13 25L13 26L11 26L11 27L13 27L13 26L14 26L14 25L15 25L15 23L16 23L16 24L17 24L17 25L16 25L16 26L17 26L17 27L18 27L18 26L19 26L19 25L18 25L18 24L17 24L17 23L19 23L19 24L20 24L20 23L19 23L19 22L20 22L20 21L19 21L19 22L17 22L17 20ZM21 21L21 24L24 24L24 21ZM22 22L22 23L23 23L23 22ZM17 25L17 26L18 26L18 25ZM8 26L8 27L9 27L9 26ZM27 26L27 27L28 27L28 28L27 28L27 29L29 29L29 26ZM15 28L15 29L16 29L16 28ZM0 0L0 7L7 7L7 0ZM1 1L1 6L6 6L6 1ZM2 2L2 5L5 5L5 2ZM22 0L22 7L29 7L29 0ZM23 1L23 6L28 6L28 1ZM24 2L24 5L27 5L27 2ZM0 22L0 29L7 29L7 22ZM1 23L1 28L6 28L6 23ZM2 24L2 27L5 27L5 24Z" fill="#000000"/></g></g></svg>
