<?xml version="1.0" encoding="UTF-8"?>
<svg xmlns="http://www.w3.org/2000/svg" version="1.1" width="200" height="200" viewBox="0 0 200 200"><rect x="0" y="0" width="200" height="200" fill="#ffffff"/><g transform="scale(4.878)"><g transform="translate(0,0)"><path fill-rule="evenodd" d="M8 0L8 3L9 3L9 1L10 1L10 4L9 4L9 5L8 5L8 9L7 9L7 8L6 8L6 9L5 9L5 8L2 8L2 9L0 9L0 11L2 11L2 12L1 12L1 13L2 13L2 12L4 12L4 13L5 13L5 16L4 16L4 14L0 14L0 17L1 17L1 18L0 18L0 21L1 21L1 22L0 22L0 24L1 24L1 22L2 22L2 24L4 24L4 25L3 25L3 26L2 26L2 25L0 25L0 26L2 26L2 27L1 27L1 28L0 28L0 33L1 33L1 28L2 28L2 30L3 30L3 29L5 29L5 30L4 30L4 31L5 31L5 32L4 32L4 33L7 33L7 32L8 32L8 34L9 34L9 35L10 35L10 36L8 36L8 39L9 39L9 40L11 40L11 41L12 41L12 39L13 39L13 40L14 40L14 41L16 41L16 40L14 40L14 39L15 39L15 38L17 38L17 36L18 36L18 35L19 35L19 33L21 33L21 34L20 34L20 35L21 35L21 36L19 36L19 37L21 37L21 38L19 38L19 40L18 40L18 39L17 39L17 40L18 40L18 41L19 41L19 40L20 40L20 41L21 41L21 40L22 40L22 37L21 37L21 36L24 36L24 37L25 37L25 39L23 39L23 40L24 40L24 41L26 41L26 40L27 40L27 41L28 41L28 39L29 39L29 38L27 38L27 37L29 37L29 36L31 36L31 35L32 35L32 37L30 37L30 38L33 38L33 39L31 39L31 40L33 40L33 41L34 41L34 40L33 40L33 39L35 39L35 40L36 40L36 39L37 39L37 40L40 40L40 38L41 38L41 37L40 37L40 34L41 34L41 33L40 33L40 32L37 32L37 31L35 31L35 30L38 30L38 29L35 29L35 30L34 30L34 31L35 31L35 32L33 32L33 31L32 31L32 30L33 30L33 29L34 29L34 28L33 28L33 27L34 27L34 26L36 26L36 27L35 27L35 28L38 28L38 26L39 26L39 27L40 27L40 26L41 26L41 23L39 23L39 22L37 22L37 21L39 21L39 20L36 20L36 19L35 19L35 17L36 17L36 18L37 18L37 19L38 19L38 18L39 18L39 19L40 19L40 18L41 18L41 16L40 16L40 18L39 18L39 16L37 16L37 15L36 15L36 14L38 14L38 13L36 13L36 14L35 14L35 15L36 15L36 16L35 16L35 17L34 17L34 16L32 16L32 17L31 17L31 16L29 16L29 15L31 15L31 10L32 10L32 11L33 11L33 12L32 12L32 13L33 13L33 14L32 14L32 15L34 15L34 13L35 13L35 11L36 11L36 12L38 12L38 11L40 11L40 12L41 12L41 11L40 11L40 10L41 10L41 8L38 8L38 9L40 9L40 10L37 10L37 9L36 9L36 8L33 8L33 5L32 5L32 4L33 4L33 3L31 3L31 2L30 2L30 1L32 1L32 2L33 2L33 0L29 0L29 1L27 1L27 0L26 0L26 1L27 1L27 2L26 2L26 3L28 3L28 4L29 4L29 3L31 3L31 4L30 4L30 5L27 5L27 4L26 4L26 5L27 5L27 6L26 6L26 7L25 7L25 2L24 2L24 0L23 0L23 2L24 2L24 3L23 3L23 4L19 4L19 5L17 5L17 3L18 3L18 2L16 2L16 0L13 0L13 1L12 1L12 0L11 0L11 1L10 1L10 0ZM18 0L18 1L19 1L19 3L20 3L20 2L21 2L21 3L22 3L22 1L19 1L19 0ZM11 1L11 3L12 3L12 4L13 4L13 5L10 5L10 6L9 6L9 9L8 9L8 10L7 10L7 9L6 9L6 10L7 10L7 11L6 11L6 12L7 12L7 13L6 13L6 14L7 14L7 13L8 13L8 12L9 12L9 16L7 16L7 15L6 15L6 16L5 16L5 17L4 17L4 18L3 18L3 15L1 15L1 17L2 17L2 18L3 18L3 21L2 21L2 22L3 22L3 23L6 23L6 24L8 24L8 25L6 25L6 26L5 26L5 25L4 25L4 26L3 26L3 27L6 27L6 28L5 28L5 29L6 29L6 30L5 30L5 31L6 31L6 32L7 32L7 31L8 31L8 29L6 29L6 28L7 28L7 27L6 27L6 26L8 26L8 25L10 25L10 24L12 24L12 25L11 25L11 26L10 26L10 27L8 27L8 28L10 28L10 30L9 30L9 31L10 31L10 32L9 32L9 34L10 34L10 32L11 32L11 33L12 33L12 34L11 34L11 36L10 36L10 37L9 37L9 38L10 38L10 37L11 37L11 39L12 39L12 38L14 38L14 37L16 37L16 36L17 36L17 35L16 35L16 34L17 34L17 32L18 32L18 33L19 33L19 31L20 31L20 32L21 32L21 33L22 33L22 32L23 32L23 34L22 34L22 35L23 35L23 34L24 34L24 36L25 36L25 37L26 37L26 36L27 36L27 35L26 35L26 36L25 36L25 34L28 34L28 33L29 33L29 32L30 32L30 33L31 33L31 31L30 31L30 30L29 30L29 29L28 29L28 30L29 30L29 31L28 31L28 33L27 33L27 32L25 32L25 33L24 33L24 31L27 31L27 27L26 27L26 26L28 26L28 25L29 25L29 24L30 24L30 25L32 25L32 26L29 26L29 27L28 27L28 28L30 28L30 29L31 29L31 30L32 30L32 29L33 29L33 28L32 28L32 26L34 26L34 25L39 25L39 26L40 26L40 24L39 24L39 23L37 23L37 24L36 24L36 23L35 23L35 22L36 22L36 21L35 21L35 19L34 19L34 18L33 18L33 17L32 17L32 18L31 18L31 17L29 17L29 16L28 16L28 15L29 15L29 14L30 14L30 13L29 13L29 12L30 12L30 10L29 10L29 9L28 9L28 8L30 8L30 9L33 9L33 8L32 8L32 5L31 5L31 7L30 7L30 6L29 6L29 7L28 7L28 6L27 6L27 7L26 7L26 8L25 8L25 7L24 7L24 4L23 4L23 5L22 5L22 6L21 6L21 7L20 7L20 5L19 5L19 8L20 8L20 9L19 9L19 10L18 10L18 9L16 9L16 6L17 6L17 7L18 7L18 6L17 6L17 5L16 5L16 2L12 2L12 1ZM13 3L13 4L14 4L14 5L13 5L13 6L12 6L12 7L11 7L11 6L10 6L10 8L11 8L11 9L12 9L12 10L10 10L10 11L9 11L9 12L10 12L10 15L11 15L11 16L13 16L13 17L12 17L12 19L13 19L13 20L11 20L11 23L12 23L12 24L14 24L14 26L15 26L15 22L16 22L16 27L17 27L17 28L15 28L15 29L13 29L13 30L11 30L11 32L12 32L12 33L13 33L13 37L14 37L14 36L15 36L15 35L14 35L14 34L15 34L15 32L13 32L13 30L14 30L14 31L15 31L15 30L16 30L16 29L17 29L17 30L18 30L18 27L19 27L19 28L20 28L20 29L21 29L21 30L20 30L20 31L21 31L21 30L22 30L22 31L24 31L24 30L25 30L25 29L24 29L24 28L25 28L25 27L24 27L24 28L23 28L23 26L25 26L25 25L28 25L28 24L29 24L29 23L30 23L30 24L31 24L31 22L33 22L33 21L34 21L34 22L35 22L35 21L34 21L34 20L33 20L33 21L31 21L31 20L32 20L32 19L33 19L33 18L32 18L32 19L31 19L31 18L30 18L30 19L31 19L31 20L30 20L30 21L31 21L31 22L29 22L29 23L28 23L28 22L27 22L27 21L29 21L29 19L28 19L28 18L27 18L27 15L26 15L26 18L25 18L25 19L22 19L22 20L21 20L21 21L22 21L22 22L23 22L23 23L21 23L21 24L20 24L20 22L16 22L16 21L15 21L15 18L16 18L16 19L19 19L19 20L18 20L18 21L19 21L19 20L20 20L20 19L21 19L21 18L23 18L23 16L25 16L25 15L23 15L23 16L22 16L22 14L25 14L25 12L26 12L26 13L27 13L27 14L29 14L29 13L28 13L28 12L29 12L29 10L27 10L27 9L26 9L26 10L27 10L27 12L26 12L26 11L24 11L24 10L23 10L23 9L21 9L21 11L18 11L18 10L17 10L17 12L16 12L16 9L15 9L15 6L16 6L16 5L15 5L15 4L14 4L14 3ZM14 5L14 6L13 6L13 7L12 7L12 9L14 9L14 8L13 8L13 7L14 7L14 6L15 6L15 5ZM22 6L22 7L21 7L21 8L22 8L22 7L23 7L23 6ZM27 7L27 8L28 8L28 7ZM2 9L2 10L3 10L3 11L5 11L5 9ZM14 10L14 11L13 11L13 12L14 12L14 11L15 11L15 10ZM33 10L33 11L34 11L34 10ZM36 10L36 11L37 11L37 10ZM7 11L7 12L8 12L8 11ZM10 11L10 12L11 12L11 14L12 14L12 15L13 15L13 14L14 14L14 13L13 13L13 14L12 14L12 12L11 12L11 11ZM21 11L21 14L19 14L19 13L16 13L16 14L15 14L15 16L14 16L14 18L15 18L15 17L16 17L16 16L18 16L18 17L19 17L19 18L20 18L20 17L22 17L22 16L18 16L18 14L19 14L19 15L21 15L21 14L22 14L22 11ZM33 12L33 13L34 13L34 12ZM40 13L40 14L39 14L39 15L40 15L40 14L41 14L41 13ZM6 16L6 17L5 17L5 18L4 18L4 20L5 20L5 21L3 21L3 22L6 22L6 23L7 23L7 22L6 22L6 21L7 21L7 20L8 20L8 21L9 21L9 22L8 22L8 23L10 23L10 20L8 20L8 19L10 19L10 18L11 18L11 17L10 17L10 18L9 18L9 17L7 17L7 16ZM36 16L36 17L37 17L37 18L38 18L38 17L37 17L37 16ZM6 17L6 18L7 18L7 17ZM1 19L1 20L2 20L2 19ZM6 19L6 20L7 20L7 19ZM13 20L13 21L12 21L12 22L13 22L13 21L14 21L14 20ZM22 20L22 21L25 21L25 22L24 22L24 23L23 23L23 24L22 24L22 25L19 25L19 23L17 23L17 25L18 25L18 26L19 26L19 27L21 27L21 29L22 29L22 30L24 30L24 29L23 29L23 28L22 28L22 27L21 27L21 26L22 26L22 25L23 25L23 24L24 24L24 25L25 25L25 24L26 24L26 20ZM40 20L40 21L41 21L41 20ZM33 23L33 24L32 24L32 25L34 25L34 23ZM12 25L12 26L13 26L13 25ZM10 27L10 28L14 28L14 27ZM39 29L39 31L40 31L40 30L41 30L41 29ZM6 30L6 31L7 31L7 30ZM2 31L2 32L3 32L3 31ZM33 33L33 36L36 36L36 33ZM38 33L38 34L37 34L37 36L39 36L39 35L38 35L38 34L39 34L39 33ZM30 34L30 35L31 35L31 34ZM34 34L34 35L35 35L35 34ZM28 35L28 36L29 36L29 35ZM33 37L33 38L36 38L36 37ZM26 38L26 39L27 39L27 38ZM37 38L37 39L38 39L38 38ZM29 40L29 41L30 41L30 40ZM0 0L0 7L7 7L7 0ZM1 1L1 6L6 6L6 1ZM2 2L2 5L5 5L5 2ZM34 0L34 7L41 7L41 0ZM35 1L35 6L40 6L40 1ZM36 2L36 5L39 5L39 2ZM0 34L0 41L7 41L7 34ZM1 35L1 40L6 40L6 35ZM2 36L2 39L5 39L5 36Z" fill="#000000"/></g></g></svg>
