<?xml version="1.0" encoding="UTF-8"?>
<svg xmlns="http://www.w3.org/2000/svg" version="1.1" width="200" height="200" viewBox="0 0 200 200"><rect x="0" y="0" width="200" height="200" fill="#ffffff"/><g transform="scale(4.878)"><g transform="translate(0,0)"><path fill-rule="evenodd" d="M8 0L8 3L9 3L9 4L10 4L10 7L9 7L9 5L8 5L8 9L7 9L7 8L6 8L6 9L5 9L5 8L2 8L2 9L4 9L4 11L5 11L5 13L3 13L3 10L2 10L2 11L0 11L0 13L1 13L1 14L0 14L0 15L1 15L1 16L0 16L0 17L1 17L1 16L4 16L4 18L5 18L5 19L4 19L4 20L3 20L3 17L2 17L2 23L1 23L1 25L3 25L3 26L0 26L0 28L2 28L2 29L0 29L0 33L1 33L1 30L2 30L2 31L4 31L4 32L2 32L2 33L5 33L5 31L8 31L8 30L4 30L4 29L9 29L9 31L11 31L11 30L12 30L12 31L13 31L13 32L11 32L11 33L9 33L9 32L6 32L6 33L8 33L8 34L10 34L10 35L9 35L9 36L8 36L8 39L9 39L9 41L10 41L10 40L11 40L11 41L13 41L13 40L14 40L14 41L17 41L17 40L18 40L18 41L21 41L21 40L22 40L22 41L23 41L23 39L20 39L20 38L19 38L19 40L18 40L18 39L17 39L17 38L18 38L18 37L17 37L17 36L18 36L18 35L19 35L19 36L20 36L20 37L21 37L21 38L22 38L22 37L23 37L23 36L22 36L22 35L24 35L24 34L22 34L22 33L25 33L25 34L26 34L26 33L25 33L25 32L27 32L27 33L28 33L28 34L27 34L27 35L26 35L26 36L25 36L25 37L24 37L24 41L26 41L26 40L27 40L27 41L28 41L28 40L27 40L27 39L28 39L28 38L29 38L29 37L28 37L28 36L32 36L32 38L31 38L31 37L30 37L30 39L31 39L31 40L33 40L33 41L34 41L34 40L33 40L33 39L32 39L32 38L34 38L34 39L35 39L35 40L36 40L36 39L37 39L37 40L40 40L40 38L41 38L41 37L40 37L40 36L41 36L41 35L40 35L40 34L41 34L41 33L39 33L39 32L40 32L40 30L41 30L41 28L39 28L39 32L38 32L38 30L37 30L37 29L36 29L36 28L38 28L38 26L39 26L39 27L40 27L40 26L41 26L41 23L39 23L39 22L38 22L38 23L39 23L39 24L40 24L40 26L39 26L39 25L36 25L36 24L37 24L37 20L38 20L38 21L39 21L39 20L38 20L38 19L39 19L39 18L41 18L41 16L40 16L40 17L39 17L39 16L38 16L38 15L39 15L39 14L41 14L41 13L39 13L39 14L38 14L38 15L37 15L37 13L36 13L36 16L35 16L35 17L34 17L34 16L33 16L33 17L30 17L30 16L29 16L29 15L28 15L28 16L29 16L29 17L30 17L30 19L31 19L31 18L34 18L34 19L35 19L35 21L34 21L34 20L33 20L33 19L32 19L32 21L31 21L31 20L30 20L30 21L29 21L29 18L27 18L27 19L26 19L26 16L27 16L27 15L26 15L26 14L25 14L25 12L24 12L24 11L23 11L23 10L25 10L25 11L27 11L27 12L26 12L26 13L27 13L27 14L29 14L29 13L30 13L30 15L31 15L31 12L32 12L32 13L33 13L33 14L32 14L32 15L34 15L34 13L35 13L35 11L36 11L36 12L38 12L38 11L40 11L40 12L41 12L41 11L40 11L40 10L41 10L41 8L38 8L38 9L40 9L40 10L37 10L37 9L36 9L36 8L33 8L33 6L32 6L32 7L31 7L31 5L32 5L32 4L33 4L33 2L32 2L32 4L30 4L30 8L28 8L28 7L29 7L29 6L28 6L28 5L29 5L29 4L28 4L28 5L27 5L27 4L26 4L26 5L25 5L25 3L24 3L24 2L23 2L23 0L21 0L21 2L20 2L20 1L19 1L19 2L18 2L18 0L17 0L17 1L16 1L16 0L15 0L15 1L14 1L14 0L13 0L13 1L12 1L12 2L11 2L11 3L12 3L12 4L10 4L10 3L9 3L9 2L10 2L10 1L11 1L11 0ZM26 0L26 1L27 1L27 2L26 2L26 3L31 3L31 2L30 2L30 1L33 1L33 0L29 0L29 1L27 1L27 0ZM12 2L12 3L13 3L13 4L12 4L12 5L11 5L11 7L10 7L10 9L12 9L12 8L13 8L13 7L14 7L14 6L15 6L15 7L16 7L16 6L15 6L15 5L16 5L16 4L17 4L17 7L18 7L18 6L19 6L19 7L20 7L20 9L21 9L21 10L23 10L23 9L22 9L22 3L19 3L19 4L17 4L17 2L14 2L14 3L13 3L13 2ZM15 3L15 4L16 4L16 3ZM23 3L23 4L24 4L24 3ZM13 4L13 6L12 6L12 7L13 7L13 6L14 6L14 4ZM19 4L19 5L20 5L20 7L21 7L21 5L20 5L20 4ZM24 5L24 6L23 6L23 8L24 8L24 6L25 6L25 7L26 7L26 6L27 6L27 7L28 7L28 6L27 6L27 5L26 5L26 6L25 6L25 5ZM31 8L31 9L30 9L30 10L29 10L29 9L27 9L27 10L28 10L28 13L29 13L29 12L30 12L30 10L31 10L31 11L32 11L32 10L33 10L33 11L34 11L34 9L32 9L32 8ZM0 9L0 10L1 10L1 9ZM6 9L6 10L5 10L5 11L6 11L6 12L7 12L7 13L6 13L6 14L5 14L5 16L7 16L7 15L6 15L6 14L8 14L8 15L10 15L10 16L9 16L9 17L5 17L5 18L7 18L7 19L5 19L5 20L4 20L4 24L3 24L3 25L4 25L4 26L3 26L3 27L5 27L5 28L9 28L9 27L10 27L10 30L11 30L11 27L12 27L12 25L13 25L13 26L14 26L14 29L13 29L13 28L12 28L12 29L13 29L13 30L14 30L14 31L15 31L15 30L14 30L14 29L15 29L15 28L16 28L16 31L17 31L17 32L14 32L14 33L16 33L16 34L19 34L19 35L20 35L20 36L21 36L21 37L22 37L22 36L21 36L21 35L22 35L22 34L21 34L21 33L22 33L22 32L25 32L25 31L24 31L24 30L23 30L23 29L24 29L24 28L22 28L22 27L24 27L24 26L26 26L26 27L25 27L25 28L26 28L26 27L27 27L27 26L29 26L29 27L28 27L28 28L30 28L30 29L28 29L28 30L30 30L30 31L28 31L28 33L29 33L29 32L30 32L30 33L31 33L31 34L30 34L30 35L31 35L31 34L32 34L32 33L31 33L31 32L30 32L30 31L31 31L31 30L32 30L32 31L33 31L33 32L36 32L36 31L37 31L37 30L36 30L36 29L35 29L35 26L36 26L36 25L35 25L35 24L36 24L36 23L34 23L34 24L33 24L33 23L32 23L32 22L34 22L34 21L32 21L32 22L31 22L31 21L30 21L30 22L29 22L29 21L27 21L27 20L25 20L25 17L23 17L23 16L24 16L24 12L23 12L23 13L20 13L20 10L19 10L19 12L18 12L18 10L16 10L16 9L13 9L13 11L14 11L14 10L15 10L15 11L17 11L17 12L16 12L16 14L13 14L13 15L15 15L15 16L13 16L13 18L12 18L12 17L11 17L11 18L10 18L10 16L11 16L11 15L12 15L12 14L11 14L11 13L12 13L12 12L11 12L11 11L12 11L12 10L9 10L9 9L8 9L8 10L7 10L7 9ZM25 9L25 10L26 10L26 9ZM31 9L31 10L32 10L32 9ZM35 9L35 10L36 10L36 9ZM6 10L6 11L7 11L7 12L8 12L8 13L9 13L9 12L10 12L10 13L11 13L11 12L10 12L10 11L9 11L9 12L8 12L8 11L7 11L7 10ZM14 12L14 13L15 13L15 12ZM33 12L33 13L34 13L34 12ZM2 13L2 14L1 14L1 15L3 15L3 13ZM10 14L10 15L11 15L11 14ZM16 14L16 15L17 15L17 16L18 16L18 14ZM19 14L19 15L21 15L21 14ZM25 15L25 16L26 16L26 15ZM20 16L20 17L22 17L22 16ZM36 16L36 17L35 17L35 19L36 19L36 20L37 20L37 19L38 19L38 18L39 18L39 17L38 17L38 16ZM14 17L14 19L13 19L13 22L12 22L12 23L11 23L11 21L12 21L12 19L10 19L10 22L8 22L8 21L9 21L9 19L8 19L8 20L6 20L6 21L7 21L7 22L5 22L5 23L7 23L7 24L4 24L4 25L5 25L5 27L7 27L7 26L6 26L6 25L7 25L7 24L8 24L8 27L9 27L9 24L10 24L10 25L11 25L11 24L13 24L13 25L14 25L14 26L16 26L16 28L17 28L17 29L20 29L20 30L19 30L19 31L18 31L18 32L17 32L17 33L19 33L19 34L20 34L20 31L23 31L23 30L21 30L21 29L20 29L20 27L22 27L22 26L24 26L24 25L23 25L23 24L21 24L21 23L20 23L20 22L19 22L19 21L21 21L21 22L23 22L23 23L24 23L24 21L25 21L25 20L24 20L24 18L23 18L23 19L22 19L22 21L21 21L21 20L20 20L20 19L21 19L21 18L19 18L19 17L18 17L18 19L15 19L15 17ZM36 17L36 18L37 18L37 17ZM0 19L0 21L1 21L1 19ZM14 19L14 21L15 21L15 23L14 23L14 22L13 22L13 24L15 24L15 25L16 25L16 26L17 26L17 27L18 27L18 28L19 28L19 22L18 22L18 24L16 24L16 23L17 23L17 22L16 22L16 21L15 21L15 19ZM18 19L18 21L19 21L19 19ZM23 20L23 21L24 21L24 20ZM40 20L40 21L41 21L41 20ZM26 21L26 22L25 22L25 23L27 23L27 24L26 24L26 25L29 25L29 26L32 26L32 25L33 25L33 27L34 27L34 26L35 26L35 25L33 25L33 24L32 24L32 25L30 25L30 24L29 24L29 23L28 23L28 22L27 22L27 21ZM35 21L35 22L36 22L36 21ZM7 22L7 23L8 23L8 22ZM30 22L30 23L31 23L31 22ZM10 23L10 24L11 24L11 23ZM31 28L31 29L30 29L30 30L31 30L31 29L32 29L32 30L33 30L33 29L34 29L34 28L33 28L33 29L32 29L32 28ZM2 29L2 30L3 30L3 29ZM26 30L26 31L27 31L27 30ZM34 30L34 31L36 31L36 30ZM37 32L37 33L38 33L38 36L37 36L37 37L38 37L38 36L40 36L40 35L39 35L39 33L38 33L38 32ZM11 33L11 34L12 34L12 36L14 36L14 37L13 37L13 39L15 39L15 40L16 40L16 38L17 38L17 37L16 37L16 36L17 36L17 35L15 35L15 36L14 36L14 35L13 35L13 33ZM33 33L33 36L36 36L36 33ZM28 34L28 35L27 35L27 36L26 36L26 37L25 37L25 39L27 39L27 38L28 38L28 37L27 37L27 36L28 36L28 35L29 35L29 34ZM34 34L34 35L35 35L35 34ZM10 36L10 38L11 38L11 39L12 39L12 37L11 37L11 36ZM14 37L14 38L15 38L15 37ZM26 37L26 38L27 38L27 37ZM34 37L34 38L36 38L36 37ZM37 38L37 39L38 39L38 38ZM29 40L29 41L30 41L30 40ZM0 0L0 7L7 7L7 0ZM1 1L1 6L6 6L6 1ZM2 2L2 5L5 5L5 2ZM34 0L34 7L41 7L41 0ZM35 1L35 6L40 6L40 1ZM36 2L36 5L39 5L39 2ZM0 34L0 41L7 41L7 34ZM1 35L1 40L6 40L6 35ZM2 36L2 39L5 39L5 36Z" fill="#000000"/></g></g></svg>
