<?xml version="1.0" encoding="UTF-8"?>
<svg xmlns="http://www.w3.org/2000/svg" version="1.1" width="200" height="200" viewBox="0 0 200 200"><rect x="0" y="0" width="200" height="200" fill="#ffffff"/><g transform="scale(4.878)"><g transform="translate(0,0)"><path fill-rule="evenodd" d="M8 0L8 3L10 3L10 2L15 2L15 3L14 3L14 7L15 7L15 3L16 3L16 2L17 2L17 3L18 3L18 4L16 4L16 7L17 7L17 6L18 6L18 9L15 9L15 8L14 8L14 9L13 9L13 3L12 3L12 4L11 4L11 6L10 6L10 7L9 7L9 5L10 5L10 4L9 4L9 5L8 5L8 9L9 9L9 8L10 8L10 7L11 7L11 8L12 8L12 9L10 9L10 10L11 10L11 11L8 11L8 10L6 10L6 9L7 9L7 8L6 8L6 9L5 9L5 8L2 8L2 9L0 9L0 12L4 12L4 13L3 13L3 14L5 14L5 15L2 15L2 14L1 14L1 13L0 13L0 17L1 17L1 18L0 18L0 20L1 20L1 18L3 18L3 19L4 19L4 21L3 21L3 20L2 20L2 22L3 22L3 23L4 23L4 22L6 22L6 23L7 23L7 22L8 22L8 21L12 21L12 24L14 24L14 23L13 23L13 22L14 22L14 21L15 21L15 25L11 25L11 22L10 22L10 23L8 23L8 24L10 24L10 25L9 25L9 27L8 27L8 25L7 25L7 24L2 24L2 23L1 23L1 24L0 24L0 25L1 25L1 27L2 27L2 28L1 28L1 29L0 29L0 33L1 33L1 30L4 30L4 29L5 29L5 33L7 33L7 32L6 32L6 31L8 31L8 32L9 32L9 33L8 33L8 34L11 34L11 36L10 36L10 37L13 37L13 39L11 39L11 38L9 38L9 36L8 36L8 39L9 39L9 40L10 40L10 39L11 39L11 40L12 40L12 41L15 41L15 40L16 40L16 41L17 41L17 40L16 40L16 39L15 39L15 37L16 37L16 38L17 38L17 39L18 39L18 40L20 40L20 41L21 41L21 39L22 39L22 41L23 41L23 40L24 40L24 41L27 41L27 40L28 40L28 41L32 41L32 40L33 40L33 41L34 41L34 40L33 40L33 39L32 39L32 37L33 37L33 38L34 38L34 39L35 39L35 40L36 40L36 39L37 39L37 40L40 40L40 38L41 38L41 37L39 37L39 36L40 36L40 34L41 34L41 33L40 33L40 32L41 32L41 31L40 31L40 30L41 30L41 29L39 29L39 30L38 30L38 29L36 29L36 28L38 28L38 26L39 26L39 27L40 27L40 26L41 26L41 23L39 23L39 24L40 24L40 26L39 26L39 25L36 25L36 24L37 24L37 22L38 22L38 21L39 21L39 20L36 20L36 19L35 19L35 17L36 17L36 18L38 18L38 19L39 19L39 18L41 18L41 16L40 16L40 17L39 17L39 16L38 16L38 14L37 14L37 13L36 13L36 14L35 14L35 15L37 15L37 16L38 16L38 17L36 17L36 16L35 16L35 17L34 17L34 16L33 16L33 17L30 17L30 16L29 16L29 15L31 15L31 12L29 12L29 13L28 13L28 12L27 12L27 14L29 14L29 15L28 15L28 16L29 16L29 17L30 17L30 19L31 19L31 18L32 18L32 20L33 20L33 21L31 21L31 20L30 20L30 21L31 21L31 22L32 22L32 23L30 23L30 24L29 24L29 25L28 25L28 24L27 24L27 25L26 25L26 26L25 26L25 24L24 24L24 21L25 21L25 23L26 23L26 21L25 21L25 20L24 20L24 21L23 21L23 19L27 19L27 21L29 21L29 18L27 18L27 17L25 17L25 16L26 16L26 15L24 15L24 12L23 12L23 6L22 6L22 5L21 5L21 6L20 6L20 7L19 7L19 5L20 5L20 4L23 4L23 5L25 5L25 6L24 6L24 8L25 8L25 9L27 9L27 8L28 8L28 9L31 9L31 10L30 10L30 11L31 11L31 10L32 10L32 9L33 9L33 10L34 10L34 11L32 11L32 13L33 13L33 14L32 14L32 15L34 15L34 13L35 13L35 12L38 12L38 11L40 11L40 12L41 12L41 11L40 11L40 10L41 10L41 8L38 8L38 9L40 9L40 10L37 10L37 9L36 9L36 8L32 8L32 7L33 7L33 5L32 5L32 4L33 4L33 2L30 2L30 1L33 1L33 0L29 0L29 1L27 1L27 0L26 0L26 1L27 1L27 2L26 2L26 3L28 3L28 4L29 4L29 3L32 3L32 4L30 4L30 5L27 5L27 4L25 4L25 0L20 0L20 1L19 1L19 0L16 0L16 2L15 2L15 1L13 1L13 0L12 0L12 1L10 1L10 2L9 2L9 0ZM21 1L21 2L22 2L22 1ZM18 2L18 3L19 3L19 2ZM23 2L23 4L24 4L24 2ZM31 5L31 7L32 7L32 5ZM11 6L11 7L12 7L12 6ZM21 6L21 7L20 7L20 8L21 8L21 7L22 7L22 6ZM25 6L25 8L26 8L26 6ZM27 6L27 7L28 7L28 8L30 8L30 6L29 6L29 7L28 7L28 6ZM31 8L31 9L32 9L32 8ZM2 9L2 11L3 11L3 10L4 10L4 9ZM12 9L12 12L8 12L8 13L9 13L9 14L7 14L7 13L5 13L5 14L7 14L7 15L5 15L5 16L3 16L3 18L5 18L5 20L7 20L7 19L8 19L8 20L10 20L10 18L9 18L9 19L8 19L8 17L6 17L6 18L5 18L5 16L7 16L7 15L11 15L11 16L10 16L10 17L11 17L11 18L13 18L13 19L14 19L14 17L15 17L15 19L16 19L16 20L15 20L15 21L17 21L17 22L16 22L16 26L18 26L18 27L19 27L19 24L20 24L20 23L19 23L19 24L18 24L18 25L17 25L17 23L18 23L18 22L19 22L19 21L17 21L17 20L22 20L22 18L23 18L23 16L24 16L24 15L21 15L21 16L22 16L22 17L21 17L21 18L20 18L20 17L19 17L19 16L20 16L20 14L21 14L21 13L22 13L22 11L20 11L20 10L17 10L17 12L16 12L16 11L15 11L15 10L13 10L13 9ZM25 10L25 11L29 11L29 10ZM35 10L35 11L36 11L36 10ZM5 11L5 12L7 12L7 11ZM13 11L13 12L12 12L12 13L13 13L13 12L14 12L14 11ZM19 11L19 12L17 12L17 13L16 13L16 14L15 14L15 13L14 13L14 14L15 14L15 15L14 15L14 16L13 16L13 17L14 17L14 16L15 16L15 17L16 17L16 16L17 16L17 18L16 18L16 19L17 19L17 18L19 18L19 19L20 19L20 18L19 18L19 17L18 17L18 16L19 16L19 15L16 15L16 14L17 14L17 13L20 13L20 11ZM33 12L33 13L34 13L34 12ZM29 13L29 14L30 14L30 13ZM40 13L40 14L39 14L39 15L40 15L40 14L41 14L41 13ZM11 14L11 15L13 15L13 14ZM1 15L1 16L2 16L2 15ZM15 15L15 16L16 16L16 15ZM11 16L11 17L12 17L12 16ZM24 17L24 18L25 18L25 17ZM38 17L38 18L39 18L39 17ZM6 18L6 19L7 19L7 18ZM33 18L33 20L34 20L34 21L33 21L33 23L32 23L32 24L30 24L30 25L32 25L32 26L29 26L29 27L28 27L28 28L27 28L27 27L26 27L26 30L23 30L23 31L22 31L22 32L21 32L21 33L23 33L23 35L24 35L24 33L23 33L23 32L25 32L25 33L26 33L26 31L27 31L27 29L28 29L28 30L29 30L29 31L28 31L28 33L27 33L27 34L28 34L28 35L27 35L27 36L28 36L28 35L29 35L29 34L28 34L28 33L29 33L29 32L30 32L30 33L31 33L31 34L30 34L30 35L31 35L31 34L32 34L32 33L31 33L31 31L30 31L30 30L32 30L32 31L33 31L33 32L35 32L35 31L38 31L38 32L37 32L37 36L39 36L39 33L38 33L38 32L39 32L39 31L38 31L38 30L36 30L36 29L35 29L35 28L36 28L36 27L37 27L37 26L36 26L36 25L35 25L35 24L36 24L36 23L35 23L35 22L36 22L36 21L35 21L35 19L34 19L34 18ZM40 20L40 21L41 21L41 20ZM0 21L0 22L1 22L1 21ZM6 21L6 22L7 22L7 21ZM20 21L20 22L23 22L23 21ZM34 21L34 22L35 22L35 21ZM27 22L27 23L29 23L29 22ZM21 23L21 25L20 25L20 26L21 26L21 25L23 25L23 23ZM33 23L33 24L32 24L32 25L33 25L33 27L34 27L34 26L35 26L35 27L36 27L36 26L35 26L35 25L33 25L33 24L34 24L34 23ZM3 25L3 26L2 26L2 27L6 27L6 28L7 28L7 27L6 27L6 26L7 26L7 25L6 25L6 26L5 26L5 25ZM27 25L27 26L28 26L28 25ZM10 26L10 27L9 27L9 29L6 29L6 30L9 30L9 32L10 32L10 30L9 30L9 29L11 29L11 28L12 28L12 31L11 31L11 34L12 34L12 35L15 35L15 36L13 36L13 37L15 37L15 36L16 36L16 37L17 37L17 38L19 38L19 39L20 39L20 38L21 38L21 37L23 37L23 39L24 39L24 40L25 40L25 38L24 38L24 37L26 37L26 36L24 36L24 37L23 37L23 36L20 36L20 38L19 38L19 36L18 36L18 37L17 37L17 36L16 36L16 35L22 35L22 34L20 34L20 33L19 33L19 32L20 32L20 31L21 31L21 30L22 30L22 29L25 29L25 28L23 28L23 27L24 27L24 26L22 26L22 27L21 27L21 28L20 28L20 29L19 29L19 28L17 28L17 27L15 27L15 28L12 28L12 26ZM13 26L13 27L14 27L14 26ZM31 27L31 28L28 28L28 29L31 29L31 28L32 28L32 27ZM2 28L2 29L3 29L3 28ZM15 28L15 30L13 30L13 31L16 31L16 32L19 32L19 29L18 29L18 31L17 31L17 30L16 30L16 29L17 29L17 28ZM21 28L21 29L20 29L20 30L21 30L21 29L22 29L22 28ZM33 28L33 29L32 29L32 30L33 30L33 29L34 29L34 28ZM34 30L34 31L35 31L35 30ZM2 31L2 32L3 32L3 33L4 33L4 32L3 32L3 31ZM12 32L12 34L14 34L14 32ZM15 33L15 34L16 34L16 33ZM33 33L33 36L36 36L36 33ZM25 34L25 35L26 35L26 34ZM34 34L34 35L35 35L35 34ZM29 36L29 37L27 37L27 38L28 38L28 40L32 40L32 39L31 39L31 38L30 38L30 37L32 37L32 36ZM34 37L34 38L36 38L36 37ZM37 38L37 39L38 39L38 38ZM13 39L13 40L14 40L14 39ZM0 0L0 7L7 7L7 0ZM1 1L1 6L6 6L6 1ZM2 2L2 5L5 5L5 2ZM34 0L34 7L41 7L41 0ZM35 1L35 6L40 6L40 1ZM36 2L36 5L39 5L39 2ZM0 34L0 41L7 41L7 34ZM1 35L1 40L6 40L6 35ZM2 36L2 39L5 39L5 36Z" fill="#000000"/></g></g></svg>
