<?xml version="1.0" encoding="UTF-8"?>
<svg xmlns="http://www.w3.org/2000/svg" version="1.1" width="200" height="200" viewBox="0 0 200 200"><rect x="0" y="0" width="200" height="200" fill="#ffffff"/><g transform="scale(6.897)"><g transform="translate(0,0)"><path fill-rule="evenodd" d="M9 0L9 2L11 2L11 3L10 3L10 4L11 4L11 3L12 3L12 7L11 7L11 5L9 5L9 4L8 4L8 5L9 5L9 6L8 6L8 8L6 8L6 9L8 9L8 10L10 10L10 9L11 9L11 8L12 8L12 7L13 7L13 8L14 8L14 9L13 9L13 10L12 10L12 11L15 11L15 12L13 12L13 13L12 13L12 14L11 14L11 15L10 15L10 16L11 16L11 18L10 18L10 17L9 17L9 15L8 15L8 14L9 14L9 13L11 13L11 11L8 11L8 14L6 14L6 13L7 13L7 12L6 12L6 11L7 11L7 10L6 10L6 11L5 11L5 9L4 9L4 8L2 8L2 9L1 9L1 10L0 10L0 11L1 11L1 10L3 10L3 11L2 11L2 12L1 12L1 13L0 13L0 14L3 14L3 15L4 15L4 16L5 16L5 18L6 18L6 19L10 19L10 20L9 20L9 21L8 21L8 23L9 23L9 25L8 25L8 27L9 27L9 29L14 29L14 27L16 27L16 28L17 28L17 29L18 29L18 28L19 28L19 29L20 29L20 28L19 28L19 26L20 26L20 25L23 25L23 26L24 26L24 27L22 27L22 29L23 29L23 28L25 28L25 26L27 26L27 25L26 25L26 23L25 23L25 22L26 22L26 20L27 20L27 21L28 21L28 22L27 22L27 24L29 24L29 23L28 23L28 22L29 22L29 21L28 21L28 20L27 20L27 18L29 18L29 17L26 17L26 16L25 16L25 15L24 15L24 16L23 16L23 17L21 17L21 18L20 18L20 17L19 17L19 16L18 16L18 17L17 17L17 15L20 15L20 14L21 14L21 13L20 13L20 12L22 12L22 9L23 9L23 13L22 13L22 15L23 15L23 14L24 14L24 13L25 13L25 14L26 14L26 15L27 15L27 14L28 14L28 15L29 15L29 14L28 14L28 12L29 12L29 11L28 11L28 12L27 12L27 10L29 10L29 9L25 9L25 8L24 8L24 9L23 9L23 8L21 8L21 3L20 3L20 2L18 2L18 1L16 1L16 0L12 0L12 1L14 1L14 2L11 2L11 0ZM15 1L15 2L16 2L16 1ZM17 2L17 4L16 4L16 3L15 3L15 4L14 4L14 3L13 3L13 5L14 5L14 6L13 6L13 7L14 7L14 6L15 6L15 7L16 7L16 6L15 6L15 5L19 5L19 7L18 7L18 6L17 6L17 8L15 8L15 9L14 9L14 10L15 10L15 9L18 9L18 8L19 8L19 10L16 10L16 12L15 12L15 13L14 13L14 14L13 14L13 15L12 15L12 16L13 16L13 15L14 15L14 16L15 16L15 17L16 17L16 14L18 14L18 13L17 13L17 11L19 11L19 12L20 12L20 11L19 11L19 10L20 10L20 9L21 9L21 8L19 8L19 7L20 7L20 5L19 5L19 4L20 4L20 3L19 3L19 4L18 4L18 2ZM9 6L9 9L10 9L10 6ZM3 9L3 10L4 10L4 9ZM24 9L24 10L25 10L25 9ZM3 11L3 13L4 13L4 11ZM25 11L25 13L27 13L27 12L26 12L26 11ZM5 12L5 13L6 13L6 12ZM15 13L15 14L16 14L16 13ZM19 13L19 14L20 14L20 13ZM4 14L4 15L5 15L5 16L7 16L7 17L6 17L6 18L8 18L8 16L7 16L7 15L6 15L6 14ZM0 15L0 16L1 16L1 18L0 18L0 19L1 19L1 18L2 18L2 19L3 19L3 20L5 20L5 21L7 21L7 20L5 20L5 19L4 19L4 18L2 18L2 17L3 17L3 16L2 16L2 15ZM24 16L24 17L23 17L23 18L22 18L22 19L21 19L21 20L22 20L22 19L24 19L24 20L26 20L26 17L25 17L25 16ZM12 17L12 18L11 18L11 19L13 19L13 22L12 22L12 23L11 23L11 22L10 22L10 21L9 21L9 23L10 23L10 25L9 25L9 26L10 26L10 28L13 28L13 27L14 27L14 25L15 25L15 26L16 26L16 27L17 27L17 28L18 28L18 27L17 27L17 26L16 26L16 24L17 24L17 22L16 22L16 21L18 21L18 22L19 22L19 23L20 23L20 21L18 21L18 20L20 20L20 18L19 18L19 17L18 17L18 18L17 18L17 19L18 19L18 20L16 20L16 18L13 18L13 17ZM24 18L24 19L25 19L25 18ZM14 19L14 21L16 21L16 20L15 20L15 19ZM1 20L1 21L2 21L2 20ZM21 21L21 24L24 24L24 21ZM15 22L15 24L16 24L16 22ZM22 22L22 23L23 23L23 22ZM12 23L12 24L11 24L11 27L13 27L13 25L12 25L12 24L13 24L13 23ZM19 24L19 25L18 25L18 26L19 26L19 25L20 25L20 24ZM24 25L24 26L25 26L25 25ZM28 26L28 27L26 27L26 28L29 28L29 26ZM0 0L0 7L7 7L7 0ZM1 1L1 6L6 6L6 1ZM2 2L2 5L5 5L5 2ZM22 0L22 7L29 7L29 0ZM23 1L23 6L28 6L28 1ZM24 2L24 5L27 5L27 2ZM0 22L0 29L7 29L7 22ZM1 23L1 28L6 28L6 23ZM2 24L2 27L5 27L5 24Z" fill="#000000"/></g></g></svg>
