<?xml version="1.0" encoding="UTF-8"?>
<svg xmlns="http://www.w3.org/2000/svg" version="1.1" width="200" height="200" viewBox="0 0 200 200"><rect x="0" y="0" width="200" height="200" fill="#ffffff"/><g transform="scale(6.897)"><g transform="translate(0,0)"><path fill-rule="evenodd" d="M10 0L10 2L9 2L9 3L10 3L10 4L8 4L8 5L9 5L9 6L8 6L8 8L6 8L6 9L4 9L4 8L2 8L2 12L1 12L1 10L0 10L0 14L2 14L2 13L3 13L3 12L4 12L4 13L8 13L8 11L7 11L7 10L8 10L8 9L9 9L9 8L10 8L10 9L12 9L12 10L11 10L11 11L9 11L9 12L12 12L12 15L11 15L11 17L10 17L10 16L9 16L9 15L10 15L10 14L11 14L11 13L9 13L9 15L8 15L8 14L6 14L6 15L5 15L5 14L4 14L4 15L1 15L1 16L0 16L0 17L3 17L3 18L2 18L2 19L3 19L3 20L4 20L4 21L7 21L7 20L6 20L6 19L8 19L8 20L9 20L9 19L8 19L8 17L7 17L7 16L6 16L6 15L8 15L8 16L9 16L9 17L10 17L10 18L13 18L13 20L14 20L14 21L15 21L15 19L14 19L14 18L15 18L15 17L16 17L16 19L17 19L17 17L19 17L19 18L20 18L20 20L18 20L18 21L17 21L17 20L16 20L16 21L17 21L17 22L16 22L16 23L14 23L14 22L11 22L11 23L10 23L10 22L9 22L9 21L8 21L8 23L10 23L10 25L11 25L11 26L12 26L12 27L11 27L11 28L10 28L10 29L12 29L12 28L14 28L14 29L15 29L15 28L16 28L16 29L20 29L20 28L19 28L19 26L18 26L18 25L20 25L20 27L21 27L21 25L23 25L23 26L24 26L24 27L22 27L22 29L23 29L23 28L25 28L25 26L24 26L24 25L26 25L26 23L25 23L25 22L26 22L26 20L25 20L25 19L27 19L27 18L29 18L29 17L26 17L26 16L25 16L25 15L24 15L24 16L23 16L23 17L21 17L21 18L20 18L20 17L19 17L19 16L18 16L18 14L16 14L16 10L17 10L17 12L19 12L19 13L20 13L20 14L19 14L19 15L20 15L20 14L21 14L21 13L20 13L20 12L22 12L22 9L23 9L23 13L22 13L22 15L23 15L23 14L24 14L24 13L25 13L25 14L26 14L26 15L27 15L27 16L29 16L29 15L28 15L28 12L29 12L29 11L28 11L28 12L27 12L27 10L29 10L29 9L27 9L27 10L26 10L26 9L25 9L25 8L24 8L24 9L23 9L23 8L21 8L21 9L20 9L20 7L21 7L21 3L20 3L20 2L18 2L18 1L17 1L17 0L16 0L16 2L18 2L18 4L19 4L19 5L10 5L10 4L12 4L12 3L11 3L11 2L12 2L12 1L11 1L11 0ZM13 0L13 2L15 2L15 1L14 1L14 0ZM15 3L15 4L17 4L17 3ZM19 3L19 4L20 4L20 3ZM19 5L19 7L18 7L18 6L17 6L17 9L18 9L18 8L19 8L19 7L20 7L20 5ZM9 6L9 7L10 7L10 8L12 8L12 9L14 9L14 10L15 10L15 9L16 9L16 8L15 8L15 7L16 7L16 6L15 6L15 7L14 7L14 6L13 6L13 7L12 7L12 6L11 6L11 7L10 7L10 6ZM6 9L6 10L7 10L7 9ZM19 9L19 10L20 10L20 9ZM24 9L24 10L25 10L25 9ZM3 10L3 11L4 11L4 10ZM12 10L12 12L14 12L14 13L15 13L15 12L14 12L14 11L13 11L13 10ZM6 11L6 12L7 12L7 11ZM19 11L19 12L20 12L20 11ZM25 11L25 13L27 13L27 12L26 12L26 11ZM13 14L13 16L12 16L12 17L15 17L15 16L14 16L14 14ZM16 15L16 17L17 17L17 15ZM4 16L4 17L5 17L5 19L4 19L4 18L3 18L3 19L4 19L4 20L5 20L5 19L6 19L6 18L7 18L7 17L5 17L5 16ZM24 16L24 17L23 17L23 18L22 18L22 19L21 19L21 20L22 20L22 19L24 19L24 18L26 18L26 17L25 17L25 16ZM0 18L0 19L1 19L1 18ZM1 20L1 21L2 21L2 20ZM10 20L10 21L11 21L11 20ZM27 20L27 21L28 21L28 22L27 22L27 24L29 24L29 23L28 23L28 22L29 22L29 21L28 21L28 20ZM18 21L18 22L17 22L17 23L16 23L16 24L17 24L17 23L18 23L18 24L19 24L19 22L20 22L20 21ZM21 21L21 24L24 24L24 21ZM22 22L22 23L23 23L23 22ZM11 23L11 25L12 25L12 26L13 26L13 25L15 25L15 26L14 26L14 27L15 27L15 26L16 26L16 28L18 28L18 26L17 26L17 25L15 25L15 24L14 24L14 23L13 23L13 25L12 25L12 23ZM8 25L8 27L9 27L9 25ZM26 26L26 29L27 29L27 28L29 28L29 26L28 26L28 27L27 27L27 26ZM0 0L0 7L7 7L7 0ZM1 1L1 6L6 6L6 1ZM2 2L2 5L5 5L5 2ZM22 0L22 7L29 7L29 0ZM23 1L23 6L28 6L28 1ZM24 2L24 5L27 5L27 2ZM0 22L0 29L7 29L7 22ZM1 23L1 28L6 28L6 23ZM2 24L2 27L5 27L5 24Z" fill="#000000"/></g></g></svg>
