<?xml version="1.0" encoding="UTF-8"?>
<svg xmlns="http://www.w3.org/2000/svg" version="1.1" width="200" height="200" viewBox="0 0 200 200"><rect x="0" y="0" width="200" height="200" fill="#ffffff"/><g transform="scale(4.878)"><g transform="translate(0,0)"><path fill-rule="evenodd" d="M9 0L9 1L10 1L10 0ZM11 0L11 2L8 2L8 4L9 4L9 3L11 3L11 4L13 4L13 6L12 6L12 5L9 5L9 6L8 6L8 7L9 7L9 6L10 6L10 8L11 8L11 6L12 6L12 9L13 9L13 8L14 8L14 7L15 7L15 10L13 10L13 11L12 11L12 12L16 12L16 15L18 15L18 16L16 16L16 17L18 17L18 19L20 19L20 18L21 18L21 19L22 19L22 21L21 21L21 22L22 22L22 25L21 25L21 27L22 27L22 25L23 25L23 28L20 28L20 26L19 26L19 25L18 25L18 23L17 23L17 22L19 22L19 23L20 23L20 21L19 21L19 20L17 20L17 19L16 19L16 18L14 18L14 20L15 20L15 21L12 21L12 20L13 20L13 17L12 17L12 16L10 16L10 14L12 14L12 15L14 15L14 14L15 14L15 13L13 13L13 14L12 14L12 13L11 13L11 12L10 12L10 11L11 11L11 10L8 10L8 8L6 8L6 9L7 9L7 10L5 10L5 8L3 8L3 9L1 9L1 11L2 11L2 12L0 12L0 13L2 13L2 12L3 12L3 10L5 10L5 12L4 12L4 13L3 13L3 14L2 14L2 16L3 16L3 17L2 17L2 18L1 18L1 17L0 17L0 18L1 18L1 21L0 21L0 23L3 23L3 24L2 24L2 25L1 25L1 27L3 27L3 28L4 28L4 29L5 29L5 30L6 30L6 31L4 31L4 30L3 30L3 29L1 29L1 28L0 28L0 33L2 33L2 32L4 32L4 33L8 33L8 35L9 35L9 36L8 36L8 38L9 38L9 39L10 39L10 38L12 38L12 39L11 39L11 40L14 40L14 39L15 39L15 37L14 37L14 38L12 38L12 36L13 36L13 34L12 34L12 33L14 33L14 34L15 34L15 35L14 35L14 36L15 36L15 35L16 35L16 34L15 34L15 32L17 32L17 35L18 35L18 37L20 37L20 39L22 39L22 41L24 41L24 40L23 40L23 39L24 39L24 38L25 38L25 40L27 40L27 41L28 41L28 40L29 40L29 39L31 39L31 40L32 40L32 41L34 41L34 40L35 40L35 41L36 41L36 39L38 39L38 41L39 41L39 39L40 39L40 40L41 40L41 35L40 35L40 34L37 34L37 33L39 33L39 32L40 32L40 33L41 33L41 32L40 32L40 31L41 31L41 30L38 30L38 29L40 29L40 28L41 28L41 25L39 25L39 27L37 27L37 25L36 25L36 27L35 27L35 28L34 28L34 30L35 30L35 32L34 32L34 31L32 31L32 30L31 30L31 29L29 29L29 30L28 30L28 31L27 31L27 32L28 32L28 33L26 33L26 32L25 32L25 31L26 31L26 30L27 30L27 29L28 29L28 28L26 28L26 27L28 27L28 24L30 24L30 25L29 25L29 26L30 26L30 25L32 25L32 26L31 26L31 27L33 27L33 25L32 25L32 24L33 24L33 22L34 22L34 21L35 21L35 23L34 23L34 26L35 26L35 23L36 23L36 21L37 21L37 20L38 20L38 22L37 22L37 23L38 23L38 22L41 22L41 21L39 21L39 20L40 20L40 19L41 19L41 18L40 18L40 17L41 17L41 12L40 12L40 13L39 13L39 12L38 12L38 10L39 10L39 11L40 11L40 9L39 9L39 8L37 8L37 9L35 9L35 11L34 11L34 10L33 10L33 8L29 8L29 9L28 9L28 7L29 7L29 6L30 6L30 7L31 7L31 5L32 5L32 4L33 4L33 3L32 3L32 1L33 1L33 0L32 0L32 1L30 1L30 0L28 0L28 2L27 2L27 4L26 4L26 5L25 5L25 4L24 4L24 3L23 3L23 4L22 4L22 3L20 3L20 2L23 2L23 0L19 0L19 1L20 1L20 2L18 2L18 1L17 1L17 0L15 0L15 1L17 1L17 2L15 2L15 4L13 4L13 3L11 3L11 2L12 2L12 0ZM13 0L13 2L14 2L14 0ZM24 0L24 1L25 1L25 0ZM29 1L29 2L28 2L28 3L29 3L29 4L30 4L30 5L31 5L31 4L32 4L32 3L31 3L31 2L30 2L30 1ZM17 2L17 3L16 3L16 4L15 4L15 5L16 5L16 6L15 6L15 7L16 7L16 6L17 6L17 8L16 8L16 10L15 10L15 11L16 11L16 10L17 10L17 8L18 8L18 10L19 10L19 11L20 11L20 10L21 10L21 11L22 11L22 12L21 12L21 15L20 15L20 16L21 16L21 18L23 18L23 22L24 22L24 20L25 20L25 22L26 22L26 25L27 25L27 22L26 22L26 20L27 20L27 19L26 19L26 18L25 18L25 17L27 17L27 16L28 16L28 17L29 17L29 18L28 18L28 21L29 21L29 22L28 22L28 23L29 23L29 22L30 22L30 24L32 24L32 22L33 22L33 20L32 20L32 19L34 19L34 20L35 20L35 21L36 21L36 20L37 20L37 19L39 19L39 17L40 17L40 16L36 16L36 15L39 15L39 14L38 14L38 13L37 13L37 12L36 12L36 11L35 11L35 12L36 12L36 13L34 13L34 14L36 14L36 15L35 15L35 16L34 16L34 17L33 17L33 13L32 13L32 12L33 12L33 10L31 10L31 9L29 9L29 11L30 11L30 12L28 12L28 11L27 11L27 10L25 10L25 9L24 9L24 10L25 10L25 11L22 11L22 10L21 10L21 8L23 8L23 7L24 7L24 8L26 8L26 9L27 9L27 7L28 7L28 4L27 4L27 5L26 5L26 6L25 6L25 5L24 5L24 4L23 4L23 7L22 7L22 6L21 6L21 7L20 7L20 3L19 3L19 4L17 4L17 3L18 3L18 2ZM30 3L30 4L31 4L31 3ZM16 4L16 5L17 5L17 6L18 6L18 7L19 7L19 6L18 6L18 5L17 5L17 4ZM13 6L13 7L14 7L14 6ZM24 6L24 7L25 7L25 6ZM26 6L26 7L27 7L27 6ZM32 6L32 7L33 7L33 6ZM37 9L37 10L38 10L38 9ZM7 10L7 11L6 11L6 12L8 12L8 13L9 13L9 14L10 14L10 13L9 13L9 11L8 11L8 10ZM30 10L30 11L31 11L31 10ZM17 11L17 13L18 13L18 14L20 14L20 13L18 13L18 11ZM23 12L23 13L22 13L22 15L23 15L23 16L24 16L24 17L23 17L23 18L24 18L24 19L25 19L25 18L24 18L24 17L25 17L25 16L26 16L26 15L28 15L28 16L29 16L29 15L28 15L28 14L27 14L27 13L28 13L28 12L27 12L27 13L26 13L26 12ZM30 12L30 13L29 13L29 14L30 14L30 17L31 17L31 19L29 19L29 20L31 20L31 21L30 21L30 22L32 22L32 20L31 20L31 19L32 19L32 15L31 15L31 14L32 14L32 13L31 13L31 12ZM4 13L4 14L3 14L3 16L5 16L5 13ZM6 13L6 14L7 14L7 13ZM24 13L24 14L25 14L25 15L26 15L26 14L25 14L25 13ZM36 13L36 14L37 14L37 13ZM0 14L0 16L1 16L1 14ZM6 15L6 16L7 16L7 15ZM8 15L8 17L10 17L10 16L9 16L9 15ZM18 16L18 17L19 17L19 16ZM4 17L4 18L3 18L3 19L5 19L5 20L9 20L9 19L10 19L10 21L11 21L11 18L12 18L12 17L11 17L11 18L9 18L9 19L8 19L8 18L7 18L7 17L6 17L6 18L7 18L7 19L5 19L5 17ZM35 17L35 20L36 20L36 18L37 18L37 17ZM15 19L15 20L16 20L16 19ZM2 20L2 21L3 21L3 22L4 22L4 21L3 21L3 20ZM5 21L5 22L9 22L9 23L8 23L8 25L6 25L6 24L7 24L7 23L4 23L4 24L3 24L3 25L2 25L2 26L3 26L3 25L6 25L6 26L4 26L4 27L5 27L5 29L6 29L6 30L7 30L7 31L6 31L6 32L9 32L9 33L10 33L10 31L11 31L11 33L12 33L12 32L13 32L13 31L14 31L14 32L15 32L15 31L14 31L14 30L16 30L16 28L13 28L13 27L18 27L18 28L17 28L17 29L18 29L18 31L17 31L17 32L20 32L20 33L18 33L18 34L19 34L19 35L20 35L20 36L24 36L24 31L25 31L25 30L24 30L24 28L23 28L23 32L22 32L22 31L21 31L21 30L20 30L20 28L19 28L19 27L18 27L18 26L14 26L14 25L16 25L16 24L17 24L17 23L16 23L16 22L17 22L17 21L15 21L15 22L14 22L14 24L13 24L13 23L12 23L12 24L11 24L11 25L10 25L10 22L9 22L9 21ZM24 23L24 24L25 24L25 23ZM39 23L39 24L40 24L40 23ZM12 24L12 25L13 25L13 24ZM8 25L8 26L6 26L6 27L8 27L8 29L7 29L7 28L6 28L6 29L7 29L7 30L9 30L9 31L10 31L10 30L11 30L11 31L13 31L13 30L14 30L14 29L13 29L13 30L11 30L11 29L12 29L12 28L11 28L11 27L12 27L12 26L11 26L11 27L10 27L10 28L9 28L9 26L10 26L10 25ZM24 25L24 27L26 27L26 26L25 26L25 25ZM25 28L25 29L26 29L26 28ZM35 28L35 29L38 29L38 28ZM9 29L9 30L10 30L10 29ZM19 30L19 31L20 31L20 32L21 32L21 34L20 34L20 35L21 35L21 34L23 34L23 33L22 33L22 32L21 32L21 31L20 31L20 30ZM30 30L30 31L29 31L29 32L30 32L30 33L28 33L28 34L30 34L30 33L31 33L31 34L32 34L32 33L31 33L31 30ZM37 31L37 32L38 32L38 31ZM25 33L25 36L26 36L26 37L25 37L25 38L26 38L26 39L27 39L27 40L28 40L28 39L29 39L29 38L31 38L31 39L32 39L32 40L33 40L33 38L31 38L31 37L29 37L29 38L28 38L28 39L27 39L27 36L29 36L29 35L27 35L27 34L26 34L26 33ZM33 33L33 36L36 36L36 33ZM10 34L10 35L11 35L11 34ZM34 34L34 35L35 35L35 34ZM30 35L30 36L31 36L31 35ZM38 35L38 37L39 37L39 38L40 38L40 35ZM9 36L9 38L10 38L10 36ZM16 36L16 37L17 37L17 36ZM22 37L22 39L23 39L23 38L24 38L24 37ZM34 37L34 39L35 39L35 38L36 38L36 37ZM16 38L16 39L17 39L17 41L18 41L18 40L19 40L19 41L21 41L21 40L19 40L19 39L17 39L17 38ZM15 40L15 41L16 41L16 40ZM0 0L0 7L7 7L7 0ZM1 1L1 6L6 6L6 1ZM2 2L2 5L5 5L5 2ZM34 0L34 7L41 7L41 0ZM35 1L35 6L40 6L40 1ZM36 2L36 5L39 5L39 2ZM0 34L0 41L7 41L7 34ZM1 35L1 40L6 40L6 35ZM2 36L2 39L5 39L5 36Z" fill="#000000"/></g></g></svg>
