<?xml version="1.0" encoding="UTF-8"?>
<svg xmlns="http://www.w3.org/2000/svg" version="1.1" width="200" height="200" viewBox="0 0 200 200"><rect x="0" y="0" width="200" height="200" fill="#ffffff"/><g transform="scale(4.878)"><g transform="translate(0,0)"><path fill-rule="evenodd" d="M11 0L11 1L12 1L12 2L11 2L11 3L9 3L9 2L10 2L10 1L9 1L9 2L8 2L8 4L10 4L10 5L12 5L12 7L13 7L13 5L15 5L15 4L16 4L16 3L15 3L15 1L17 1L17 0L15 0L15 1L14 1L14 0L13 0L13 1L12 1L12 0ZM20 0L20 1L18 1L18 2L17 2L17 3L18 3L18 4L17 4L17 6L16 6L16 7L15 7L15 6L14 6L14 8L11 8L11 10L13 10L13 11L11 11L11 12L10 12L10 13L9 13L9 12L8 12L8 13L7 13L7 12L6 12L6 11L7 11L7 10L5 10L5 8L3 8L3 9L2 9L2 13L1 13L1 10L0 10L0 13L1 13L1 15L0 15L0 17L1 17L1 19L0 19L0 22L1 22L1 21L2 21L2 24L1 24L1 23L0 23L0 24L1 24L1 25L2 25L2 27L1 27L1 28L2 28L2 29L0 29L0 33L4 33L4 32L2 32L2 31L3 31L3 30L2 30L2 29L7 29L7 30L6 30L6 31L7 31L7 32L5 32L5 33L7 33L7 32L8 32L8 35L9 35L9 36L8 36L8 38L10 38L10 41L11 41L11 37L12 37L12 38L14 38L14 39L13 39L13 40L14 40L14 41L16 41L16 39L17 39L17 40L18 40L18 38L17 38L17 37L20 37L20 36L22 36L22 37L21 37L21 40L19 40L19 41L21 41L21 40L22 40L22 38L23 38L23 40L24 40L24 41L25 41L25 40L26 40L26 39L27 39L27 41L29 41L29 39L30 39L30 38L31 38L31 39L32 39L32 38L33 38L33 40L30 40L30 41L34 41L34 40L35 40L35 41L36 41L36 39L37 39L37 40L38 40L38 41L39 41L39 40L38 40L38 39L40 39L40 40L41 40L41 35L40 35L40 34L39 34L39 32L40 32L40 33L41 33L41 32L40 32L40 31L41 31L41 30L39 30L39 31L38 31L38 29L40 29L40 28L41 28L41 25L39 25L39 24L37 24L37 22L41 22L41 21L39 21L39 20L40 20L40 19L41 19L41 18L40 18L40 17L41 17L41 12L40 12L40 9L39 9L39 8L37 8L37 9L35 9L35 10L34 10L34 11L35 11L35 13L36 13L36 14L37 14L37 15L35 15L35 14L33 14L33 13L32 13L32 12L33 12L33 8L32 8L32 7L33 7L33 6L32 6L32 7L31 7L31 5L32 5L32 4L33 4L33 3L32 3L32 1L33 1L33 0L32 0L32 1L31 1L31 2L30 2L30 1L29 1L29 0L28 0L28 2L27 2L27 1L26 1L26 0L24 0L24 2L23 2L23 3L24 3L24 4L23 4L23 5L22 5L22 3L21 3L21 4L19 4L19 2L20 2L20 1L21 1L21 0ZM13 2L13 3L12 3L12 4L13 4L13 3L14 3L14 4L15 4L15 3L14 3L14 2ZM28 2L28 4L26 4L26 3L25 3L25 4L24 4L24 5L23 5L23 7L24 7L24 6L25 6L25 7L26 7L26 6L27 6L27 8L23 8L23 9L22 9L22 6L21 6L21 5L20 5L20 6L19 6L19 4L18 4L18 6L17 6L17 7L16 7L16 9L15 9L15 8L14 8L14 9L13 9L13 10L18 10L18 11L19 11L19 10L18 10L18 9L19 9L19 8L18 8L18 6L19 6L19 7L20 7L20 8L21 8L21 9L20 9L20 11L22 11L22 10L24 10L24 11L23 11L23 12L22 12L22 13L23 13L23 14L22 14L22 15L21 15L21 17L19 17L19 18L17 18L17 17L18 17L18 16L17 16L17 17L15 17L15 18L16 18L16 20L15 20L15 22L14 22L14 20L13 20L13 19L14 19L14 18L12 18L12 17L11 17L11 18L12 18L12 20L10 20L10 21L9 21L9 22L7 22L7 21L8 21L8 18L7 18L7 17L8 17L8 16L10 16L10 15L11 15L11 16L12 16L12 15L13 15L13 14L14 14L14 15L16 15L16 13L15 13L15 14L14 14L14 13L13 13L13 12L11 12L11 13L10 13L10 15L9 15L9 14L8 14L8 16L7 16L7 15L6 15L6 14L7 14L7 13L6 13L6 12L5 12L5 11L4 11L4 9L3 9L3 12L5 12L5 15L4 15L4 16L1 16L1 17L4 17L4 16L7 16L7 17L5 17L5 19L4 19L4 18L2 18L2 19L1 19L1 20L2 20L2 21L3 21L3 20L2 20L2 19L4 19L4 21L5 21L5 22L7 22L7 23L4 23L4 24L5 24L5 26L7 26L7 27L6 27L6 28L7 28L7 27L10 27L10 26L12 26L12 27L11 27L11 28L12 28L12 29L11 29L11 30L10 30L10 31L8 31L8 30L9 30L9 29L10 29L10 28L9 28L9 29L8 29L8 30L7 30L7 31L8 31L8 32L9 32L9 33L10 33L10 31L12 31L12 29L13 29L13 28L14 28L14 30L13 30L13 31L15 31L15 32L19 32L19 33L15 33L15 35L20 35L20 34L21 34L21 33L20 33L20 32L22 32L22 31L23 31L23 32L24 32L24 33L22 33L22 35L23 35L23 34L24 34L24 33L25 33L25 32L26 32L26 33L27 33L27 32L31 32L31 33L30 33L30 34L29 34L29 33L28 33L28 35L29 35L29 36L30 36L30 37L29 37L29 38L30 38L30 37L31 37L31 36L32 36L32 35L31 35L31 33L32 33L32 32L33 32L33 31L34 31L34 32L37 32L37 33L38 33L38 32L37 32L37 31L35 31L35 30L36 30L36 29L38 29L38 28L36 28L36 29L35 29L35 28L34 28L34 29L35 29L35 30L33 30L33 31L32 31L32 28L33 28L33 26L32 26L32 25L33 25L33 24L35 24L35 27L36 27L36 25L37 25L37 27L39 27L39 25L37 25L37 24L35 24L35 23L36 23L36 21L34 21L34 22L33 22L33 23L32 23L32 22L31 22L31 21L32 21L32 20L31 20L31 19L29 19L29 18L28 18L28 19L27 19L27 18L26 18L26 20L24 20L24 21L23 21L23 20L22 20L22 18L23 18L23 19L25 19L25 18L23 18L23 17L22 17L22 16L23 16L23 15L24 15L24 17L25 17L25 16L26 16L26 15L28 15L28 16L27 16L27 17L32 17L32 18L33 18L33 19L34 19L34 20L35 20L35 17L37 17L37 16L38 16L38 19L39 19L39 17L40 17L40 16L38 16L38 15L37 15L37 16L34 16L34 17L33 17L33 16L32 16L32 15L31 15L31 14L30 14L30 12L29 12L29 14L30 14L30 15L28 15L28 11L31 11L31 12L32 12L32 10L30 10L30 9L31 9L31 8L30 8L30 5L29 5L29 4L32 4L32 3L29 3L29 2ZM25 5L25 6L26 6L26 5ZM8 6L8 7L9 7L9 9L8 9L8 8L6 8L6 9L8 9L8 11L9 11L9 10L10 10L10 7L11 7L11 6L10 6L10 7L9 7L9 6ZM20 6L20 7L21 7L21 6ZM28 6L28 7L29 7L29 6ZM17 8L17 9L18 9L18 8ZM27 8L27 10L26 10L26 9L25 9L25 10L26 10L26 12L27 12L27 11L28 11L28 10L29 10L29 9L30 9L30 8L29 8L29 9L28 9L28 8ZM21 9L21 10L22 10L22 9ZM37 9L37 10L38 10L38 12L39 12L39 15L40 15L40 12L39 12L39 10L38 10L38 9ZM35 10L35 11L36 11L36 13L37 13L37 11L36 11L36 10ZM15 11L15 12L17 12L17 14L18 14L18 15L19 15L19 16L20 16L20 15L19 15L19 14L21 14L21 12L19 12L19 14L18 14L18 12L17 12L17 11ZM24 11L24 12L23 12L23 13L24 13L24 15L25 15L25 14L27 14L27 13L24 13L24 12L25 12L25 11ZM3 13L3 14L4 14L4 13ZM11 14L11 15L12 15L12 14ZM13 16L13 17L14 17L14 16ZM9 17L9 19L10 19L10 17ZM6 18L6 19L5 19L5 21L7 21L7 20L6 20L6 19L7 19L7 18ZM20 18L20 20L19 20L19 19L18 19L18 20L16 20L16 23L17 23L17 24L19 24L19 25L15 25L15 23L14 23L14 22L13 22L13 23L12 23L12 25L13 25L13 26L15 26L15 29L17 29L17 31L19 31L19 28L20 28L20 31L21 31L21 28L22 28L22 27L23 27L23 25L24 25L24 26L25 26L25 27L24 27L24 28L23 28L23 30L24 30L24 29L25 29L25 31L26 31L26 32L27 32L27 31L28 31L28 30L30 30L30 31L31 31L31 29L29 29L29 28L28 28L28 27L29 27L29 26L30 26L30 25L32 25L32 23L31 23L31 22L29 22L29 21L28 21L28 20L26 20L26 21L27 21L27 22L25 22L25 21L24 21L24 22L23 22L23 21L20 21L20 20L21 20L21 18ZM36 18L36 20L37 20L37 21L38 21L38 20L37 20L37 18ZM30 20L30 21L31 21L31 20ZM17 21L17 22L18 22L18 23L20 23L20 24L21 24L21 25L22 25L22 24L25 24L25 26L26 26L26 23L23 23L23 22L22 22L22 23L21 23L21 22L20 22L20 21ZM9 22L9 23L8 23L8 24L6 24L6 25L8 25L8 24L9 24L9 23L10 23L10 25L11 25L11 23L10 23L10 22ZM28 22L28 23L27 23L27 24L28 24L28 26L29 26L29 25L30 25L30 24L31 24L31 23L30 23L30 24L29 24L29 22ZM13 23L13 25L14 25L14 23ZM2 24L2 25L3 25L3 24ZM19 25L19 26L20 26L20 27L21 27L21 26L20 26L20 25ZM3 26L3 28L5 28L5 27L4 27L4 26ZM31 26L31 27L32 27L32 26ZM26 27L26 28L27 28L27 27ZM27 29L27 30L28 30L28 29ZM4 30L4 31L5 31L5 30ZM15 30L15 31L16 31L16 30ZM11 32L11 33L12 33L12 34L11 34L11 36L9 36L9 37L11 37L11 36L13 36L13 37L14 37L14 38L15 38L15 39L16 39L16 38L15 38L15 36L13 36L13 35L12 35L12 34L13 34L13 32ZM33 33L33 36L36 36L36 33ZM9 34L9 35L10 35L10 34ZM26 34L26 35L25 35L25 36L24 36L24 37L23 37L23 38L24 38L24 40L25 40L25 38L27 38L27 34ZM34 34L34 35L35 35L35 34ZM30 35L30 36L31 36L31 35ZM38 35L38 37L37 37L37 38L40 38L40 37L39 37L39 36L40 36L40 35ZM16 36L16 37L17 37L17 36ZM24 37L24 38L25 38L25 37ZM34 37L34 39L35 39L35 38L36 38L36 37ZM0 0L0 7L7 7L7 0ZM1 1L1 6L6 6L6 1ZM2 2L2 5L5 5L5 2ZM34 0L34 7L41 7L41 0ZM35 1L35 6L40 6L40 1ZM36 2L36 5L39 5L39 2ZM0 34L0 41L7 41L7 34ZM1 35L1 40L6 40L6 35ZM2 36L2 39L5 39L5 36Z" fill="#000000"/></g></g></svg>
