<?xml version="1.0" encoding="UTF-8"?>
<svg xmlns="http://www.w3.org/2000/svg" version="1.1" width="200" height="200" viewBox="0 0 200 200"><rect x="0" y="0" width="200" height="200" fill="#ffffff"/><g transform="scale(4.878)"><g transform="translate(0,0)"><path fill-rule="evenodd" d="M8 0L8 3L9 3L9 4L10 4L10 3L11 3L11 5L12 5L12 7L13 7L13 9L15 9L15 4L17 4L17 3L18 3L18 5L16 5L16 12L15 12L15 10L14 10L14 11L13 11L13 10L12 10L12 8L11 8L11 6L10 6L10 8L9 8L9 5L8 5L8 11L9 11L9 12L10 12L10 13L8 13L8 12L5 12L5 13L4 13L4 12L2 12L2 16L3 16L3 19L2 19L2 18L1 18L1 19L0 19L0 21L2 21L2 20L3 20L3 21L4 21L4 22L3 22L3 23L4 23L4 22L5 22L5 20L6 20L6 21L9 21L9 22L8 22L8 23L7 23L7 22L6 22L6 23L5 23L5 24L4 24L4 25L3 25L3 24L2 24L2 25L3 25L3 26L1 26L1 25L0 25L0 26L1 26L1 27L2 27L2 33L3 33L3 32L4 32L4 31L8 31L8 32L6 32L6 33L8 33L8 34L9 34L9 31L8 31L8 30L9 30L9 29L8 29L8 30L5 30L5 29L7 29L7 28L6 28L6 27L7 27L7 26L6 26L6 25L8 25L8 27L9 27L9 26L10 26L10 27L12 27L12 26L11 26L11 25L17 25L17 26L16 26L16 28L19 28L19 30L18 30L18 29L17 29L17 30L16 30L16 31L15 31L15 30L14 30L14 31L15 31L15 32L12 32L12 31L10 31L10 32L11 32L11 33L12 33L12 34L13 34L13 35L11 35L11 34L10 34L10 35L11 35L11 36L10 36L10 38L9 38L9 36L8 36L8 39L11 39L11 40L10 40L10 41L11 41L11 40L12 40L12 41L13 41L13 39L14 39L14 41L21 41L21 40L20 40L20 39L19 39L19 36L17 36L17 37L18 37L18 38L17 38L17 39L16 39L16 37L15 37L15 36L16 36L16 35L20 35L20 37L22 37L22 40L23 40L23 41L24 41L24 40L25 40L25 41L26 41L26 39L27 39L27 40L28 40L28 39L29 39L29 38L30 38L30 39L31 39L31 38L32 38L32 37L33 37L33 38L34 38L34 39L35 39L35 40L36 40L36 39L37 39L37 37L38 37L38 38L39 38L39 40L40 40L40 38L41 38L41 37L39 37L39 36L41 36L41 35L40 35L40 34L41 34L41 33L40 33L40 32L41 32L41 31L40 31L40 30L41 30L41 29L40 29L40 28L39 28L39 31L40 31L40 32L37 32L37 29L35 29L35 25L36 25L36 26L37 26L37 27L36 27L36 28L38 28L38 26L39 26L39 27L40 27L40 26L41 26L41 23L40 23L40 26L39 26L39 24L37 24L37 25L36 25L36 23L35 23L35 25L34 25L34 24L33 24L33 23L30 23L30 24L27 24L27 23L29 23L29 22L27 22L27 21L29 21L29 20L31 20L31 21L30 21L30 22L32 22L32 21L34 21L34 22L36 22L36 21L38 21L38 22L37 22L37 23L38 23L38 22L39 22L39 20L36 20L36 19L35 19L35 17L36 17L36 18L37 18L37 17L39 17L39 16L37 16L37 14L38 14L38 15L39 15L39 14L41 14L41 12L40 12L40 10L41 10L41 8L38 8L38 9L40 9L40 10L37 10L37 9L36 9L36 8L32 8L32 9L30 9L30 8L28 8L28 7L29 7L29 6L30 6L30 7L31 7L31 5L32 5L32 7L33 7L33 4L31 4L31 3L32 3L32 2L33 2L33 0L30 0L30 2L31 2L31 3L30 3L30 4L31 4L31 5L29 5L29 6L28 6L28 5L26 5L26 4L27 4L27 3L28 3L28 4L29 4L29 1L27 1L27 0L25 0L25 1L24 1L24 0L23 0L23 1L24 1L24 2L25 2L25 3L26 3L26 4L25 4L25 5L26 5L26 8L28 8L28 9L30 9L30 11L31 11L31 12L28 12L28 11L29 11L29 10L27 10L27 9L25 9L25 6L24 6L24 5L23 5L23 6L22 6L22 8L21 8L21 5L22 5L22 3L23 3L23 4L24 4L24 3L23 3L23 2L21 2L21 1L22 1L22 0L19 0L19 2L21 2L21 3L20 3L20 5L19 5L19 3L18 3L18 2L17 2L17 0L16 0L16 3L15 3L15 4L14 4L14 5L13 5L13 2L14 2L14 1L15 1L15 0L14 0L14 1L13 1L13 0L11 0L11 1L12 1L12 3L11 3L11 2L10 2L10 3L9 3L9 0ZM31 1L31 2L32 2L32 1ZM26 2L26 3L27 3L27 2ZM13 6L13 7L14 7L14 6ZM17 6L17 7L18 7L18 6ZM19 6L19 8L17 8L17 9L18 9L18 11L17 11L17 13L16 13L16 14L13 14L13 15L14 15L14 16L12 16L12 15L11 15L11 14L12 14L12 13L11 13L11 14L10 14L10 15L9 15L9 14L7 14L7 13L6 13L6 14L5 14L5 15L6 15L6 16L4 16L4 13L3 13L3 16L4 16L4 18L5 18L5 17L6 17L6 18L10 18L10 19L9 19L9 21L10 21L10 19L11 19L11 18L10 18L10 17L14 17L14 16L15 16L15 18L13 18L13 19L12 19L12 20L11 20L11 21L13 21L13 22L11 22L11 23L10 23L10 22L9 22L9 24L8 24L8 25L11 25L11 24L13 24L13 23L14 23L14 24L17 24L17 23L18 23L18 22L19 22L19 23L22 23L22 24L21 24L21 25L22 25L22 26L21 26L21 27L20 27L20 29L21 29L21 30L20 30L20 31L19 31L19 32L18 32L18 30L17 30L17 32L16 32L16 33L13 33L13 34L17 34L17 33L18 33L18 34L22 34L22 35L23 35L23 36L22 36L22 37L23 37L23 40L24 40L24 39L25 39L25 37L27 37L27 38L29 38L29 37L30 37L30 38L31 38L31 37L32 37L32 35L30 35L30 33L32 33L32 32L36 32L36 31L34 31L34 30L35 30L35 29L34 29L34 28L33 28L33 27L34 27L34 25L32 25L32 24L31 24L31 25L30 25L30 26L29 26L29 25L27 25L27 24L25 24L25 23L27 23L27 22L25 22L25 23L22 23L22 21L23 21L23 22L24 22L24 21L26 21L26 20L29 20L29 16L31 16L31 15L30 15L30 13L28 13L28 14L29 14L29 15L28 15L28 17L27 17L27 12L25 12L25 11L27 11L27 10L24 10L24 6L23 6L23 9L21 9L21 10L22 10L22 11L20 11L20 6ZM27 6L27 7L28 7L28 6ZM2 8L2 9L1 9L1 11L2 11L2 9L4 9L4 10L3 10L3 11L4 11L4 10L6 10L6 11L7 11L7 10L6 10L6 9L7 9L7 8L6 8L6 9L5 9L5 8ZM9 9L9 10L10 10L10 12L12 12L12 10L11 10L11 9ZM32 9L32 10L31 10L31 11L33 11L33 12L31 12L31 14L32 14L32 15L33 15L33 16L34 16L34 17L35 17L35 15L36 15L36 13L38 13L38 14L39 14L39 11L38 11L38 12L35 12L35 10L36 10L36 11L37 11L37 10L36 10L36 9L35 9L35 10L34 10L34 9ZM33 10L33 11L34 11L34 10ZM18 11L18 13L17 13L17 14L18 14L18 17L16 17L16 18L19 18L19 20L20 20L20 19L21 19L21 18L19 18L19 16L20 16L20 17L21 17L21 15L22 15L22 14L23 14L23 16L22 16L22 17L24 17L24 14L25 14L25 15L26 15L26 14L25 14L25 13L24 13L24 14L23 14L23 13L22 13L22 12L20 12L20 13L19 13L19 11ZM23 11L23 12L24 12L24 11ZM13 12L13 13L15 13L15 12ZM33 12L33 13L32 13L32 14L33 14L33 15L34 15L34 14L33 14L33 13L34 13L34 12ZM0 13L0 16L1 16L1 13ZM18 13L18 14L19 14L19 15L20 15L20 14L21 14L21 13L20 13L20 14L19 14L19 13ZM6 14L6 15L7 15L7 14ZM10 15L10 16L11 16L11 15ZM15 15L15 16L16 16L16 15ZM6 16L6 17L9 17L9 16ZM36 16L36 17L37 17L37 16ZM40 16L40 18L38 18L38 19L40 19L40 18L41 18L41 16ZM30 17L30 19L31 19L31 20L34 20L34 21L36 21L36 20L35 20L35 19L34 19L34 18L33 18L33 17L32 17L32 18L31 18L31 17ZM27 18L27 19L28 19L28 18ZM3 19L3 20L4 20L4 19ZM6 19L6 20L8 20L8 19ZM17 19L17 21L18 21L18 19ZM23 19L23 20L24 20L24 19ZM25 19L25 20L26 20L26 19ZM14 20L14 23L15 23L15 21L16 21L16 20ZM21 20L21 21L22 21L22 20ZM40 20L40 21L41 21L41 20ZM19 21L19 22L20 22L20 21ZM1 22L1 23L0 23L0 24L1 24L1 23L2 23L2 22ZM6 23L6 24L7 24L7 23ZM18 24L18 25L19 25L19 26L20 26L20 25L19 25L19 24ZM22 24L22 25L23 25L23 24ZM24 25L24 26L25 26L25 25ZM31 25L31 26L32 26L32 25ZM3 26L3 30L4 30L4 29L5 29L5 27L4 27L4 26ZM13 26L13 27L14 27L14 28L15 28L15 27L14 27L14 26ZM17 26L17 27L18 27L18 26ZM22 26L22 27L21 27L21 29L22 29L22 33L23 33L23 35L26 35L26 36L27 36L27 37L29 37L29 35L28 35L28 34L29 34L29 33L30 33L30 32L31 32L31 31L30 31L30 32L29 32L29 31L28 31L28 32L29 32L29 33L28 33L28 34L27 34L27 35L26 35L26 34L25 34L25 33L24 33L24 32L26 32L26 31L27 31L27 30L29 30L29 29L31 29L31 28L32 28L32 29L33 29L33 30L32 30L32 31L33 31L33 30L34 30L34 29L33 29L33 28L32 28L32 27L31 27L31 28L29 28L29 29L28 29L28 27L29 27L29 26L26 26L26 27L27 27L27 29L25 29L25 27L24 27L24 28L22 28L22 27L23 27L23 26ZM10 28L10 29L12 29L12 30L13 30L13 28ZM0 29L0 33L1 33L1 29ZM23 29L23 30L24 30L24 31L26 31L26 30L24 30L24 29ZM20 31L20 32L21 32L21 31ZM33 33L33 36L36 36L36 33ZM37 33L37 36L39 36L39 35L38 35L38 34L39 34L39 33ZM34 34L34 35L35 35L35 34ZM14 35L14 36L13 36L13 37L11 37L11 39L13 39L13 37L14 37L14 39L15 39L15 40L16 40L16 39L15 39L15 37L14 37L14 36L15 36L15 35ZM30 36L30 37L31 37L31 36ZM34 37L34 38L36 38L36 37ZM32 39L32 40L31 40L31 41L32 41L32 40L33 40L33 41L34 41L34 40L33 40L33 39ZM29 40L29 41L30 41L30 40ZM0 0L0 7L7 7L7 0ZM1 1L1 6L6 6L6 1ZM2 2L2 5L5 5L5 2ZM34 0L34 7L41 7L41 0ZM35 1L35 6L40 6L40 1ZM36 2L36 5L39 5L39 2ZM0 34L0 41L7 41L7 34ZM1 35L1 40L6 40L6 35ZM2 36L2 39L5 39L5 36Z" fill="#000000"/></g></g></svg>
