<?xml version="1.0" encoding="UTF-8"?>
<svg xmlns="http://www.w3.org/2000/svg" version="1.1" width="200" height="200" viewBox="0 0 200 200"><rect x="0" y="0" width="200" height="200" fill="#ffffff"/><g transform="scale(6.897)"><g transform="translate(0,0)"><path fill-rule="evenodd" d="M8 0L8 1L9 1L9 2L11 2L11 3L10 3L10 5L11 5L11 6L10 6L10 7L11 7L11 9L12 9L12 10L13 10L13 12L14 12L14 13L15 13L15 12L16 12L16 13L18 13L18 14L17 14L17 15L15 15L15 14L14 14L14 15L12 15L12 16L11 16L11 15L10 15L10 14L11 14L11 12L12 12L12 11L11 11L11 10L9 10L9 11L11 11L11 12L10 12L10 13L9 13L9 16L8 16L8 14L6 14L6 15L5 15L5 16L6 16L6 17L7 17L7 18L5 18L5 17L3 17L3 15L4 15L4 14L5 14L5 13L8 13L8 9L10 9L10 8L8 8L8 9L7 9L7 8L4 8L4 9L3 9L3 8L2 8L2 9L3 9L3 10L2 10L2 11L0 11L0 15L1 15L1 14L3 14L3 15L2 15L2 16L0 16L0 17L1 17L1 18L0 18L0 19L1 19L1 20L0 20L0 21L1 21L1 20L2 20L2 21L7 21L7 20L8 20L8 22L9 22L9 23L8 23L8 25L9 25L9 26L8 26L8 27L9 27L9 28L10 28L10 29L12 29L12 28L13 28L13 29L14 29L14 28L13 28L13 27L15 27L15 28L16 28L16 29L18 29L18 28L19 28L19 29L20 29L20 27L21 27L21 26L22 26L22 25L23 25L23 26L24 26L24 25L27 25L27 26L28 26L28 27L27 27L27 28L28 28L28 29L29 29L29 26L28 26L28 24L26 24L26 23L25 23L25 19L26 19L26 21L27 21L27 23L28 23L28 22L29 22L29 21L28 21L28 19L29 19L29 18L27 18L27 17L26 17L26 14L24 14L24 13L25 13L25 11L26 11L26 13L27 13L27 14L28 14L28 15L27 15L27 16L28 16L28 17L29 17L29 16L28 16L28 15L29 15L29 14L28 14L28 13L29 13L29 12L28 12L28 11L29 11L29 8L28 8L28 9L27 9L27 10L25 10L25 9L26 9L26 8L25 8L25 9L24 9L24 10L25 10L25 11L24 11L24 12L23 12L23 10L22 10L22 8L21 8L21 0L20 0L20 1L19 1L19 2L20 2L20 3L19 3L19 4L18 4L18 3L16 3L16 0L14 0L14 1L13 1L13 2L12 2L12 0L11 0L11 1L10 1L10 0ZM14 1L14 2L13 2L13 3L11 3L11 5L12 5L12 6L11 6L11 7L12 7L12 6L13 6L13 8L12 8L12 9L13 9L13 10L14 10L14 12L15 12L15 10L17 10L17 11L16 11L16 12L17 12L17 11L18 11L18 12L20 12L20 11L18 11L18 10L19 10L19 9L20 9L20 5L19 5L19 7L18 7L18 5L14 5L14 6L13 6L13 5L12 5L12 4L13 4L13 3L14 3L14 4L16 4L16 3L15 3L15 1ZM17 1L17 2L18 2L18 1ZM8 3L8 4L9 4L9 3ZM8 6L8 7L9 7L9 6ZM14 6L14 7L15 7L15 6ZM16 6L16 8L17 8L17 6ZM4 9L4 11L2 11L2 12L4 12L4 13L3 13L3 14L4 14L4 13L5 13L5 11L6 11L6 12L7 12L7 11L6 11L6 10L7 10L7 9ZM14 9L14 10L15 10L15 9ZM17 9L17 10L18 10L18 9ZM27 10L27 11L28 11L28 10ZM21 11L21 12L22 12L22 11ZM27 12L27 13L28 13L28 12ZM20 13L20 14L18 14L18 15L20 15L20 16L18 16L18 17L17 17L17 18L14 18L14 17L15 17L15 16L14 16L14 17L11 17L11 16L10 16L10 17L8 17L8 16L7 16L7 15L6 15L6 16L7 16L7 17L8 17L8 18L7 18L7 19L5 19L5 18L3 18L3 17L2 17L2 18L1 18L1 19L2 19L2 20L3 20L3 19L4 19L4 20L7 20L7 19L8 19L8 18L9 18L9 20L10 20L10 23L9 23L9 24L10 24L10 23L11 23L11 24L12 24L12 26L15 26L15 27L16 27L16 26L18 26L18 25L19 25L19 26L20 26L20 24L18 24L18 23L20 23L20 22L18 22L18 19L20 19L20 20L19 20L19 21L20 21L20 20L21 20L21 19L22 19L22 18L23 18L23 19L24 19L24 18L26 18L26 17L24 17L24 16L25 16L25 15L24 15L24 14L23 14L23 15L22 15L22 14L21 14L21 13ZM20 14L20 15L21 15L21 14ZM23 15L23 16L22 16L22 17L23 17L23 18L24 18L24 17L23 17L23 16L24 16L24 15ZM18 17L18 18L20 18L20 17ZM12 18L12 19L13 19L13 18ZM10 19L10 20L11 20L11 19ZM16 19L16 20L17 20L17 19ZM13 20L13 21L12 21L12 22L13 22L13 23L14 23L14 25L15 25L15 24L17 24L17 21L15 21L15 20ZM13 21L13 22L14 22L14 21ZM21 21L21 24L24 24L24 21ZM15 22L15 23L16 23L16 22ZM22 22L22 23L23 23L23 22ZM9 26L9 27L11 27L11 28L12 28L12 27L11 27L11 26ZM25 26L25 28L23 28L23 27L22 27L22 28L23 28L23 29L25 29L25 28L26 28L26 26ZM17 27L17 28L18 28L18 27ZM0 0L0 7L7 7L7 0ZM1 1L1 6L6 6L6 1ZM2 2L2 5L5 5L5 2ZM22 0L22 7L29 7L29 0ZM23 1L23 6L28 6L28 1ZM24 2L24 5L27 5L27 2ZM0 22L0 29L7 29L7 22ZM1 23L1 28L6 28L6 23ZM2 24L2 27L5 27L5 24Z" fill="#000000"/></g></g></svg>
