<?xml version="1.0" encoding="UTF-8"?>
<svg xmlns="http://www.w3.org/2000/svg" version="1.1" width="200" height="200" viewBox="0 0 200 200"><rect x="0" y="0" width="200" height="200" fill="#ffffff"/><g transform="scale(4.878)"><g transform="translate(0,0)"><path fill-rule="evenodd" d="M10 0L10 1L9 1L9 2L10 2L10 1L12 1L12 4L10 4L10 3L9 3L9 4L8 4L8 5L10 5L10 7L9 7L9 6L8 6L8 8L6 8L6 9L7 9L7 10L5 10L5 9L4 9L4 8L2 8L2 9L0 9L0 12L1 12L1 13L0 13L0 15L1 15L1 13L3 13L3 14L2 14L2 16L0 16L0 17L2 17L2 18L3 18L3 17L2 17L2 16L3 16L3 15L5 15L5 14L4 14L4 13L5 13L5 12L6 12L6 13L7 13L7 14L6 14L6 15L8 15L8 17L7 17L7 16L6 16L6 17L7 17L7 18L6 18L6 19L7 19L7 20L5 20L5 18L4 18L4 19L3 19L3 20L0 20L0 22L1 22L1 21L2 21L2 22L3 22L3 23L0 23L0 26L1 26L1 30L0 30L0 31L1 31L1 30L2 30L2 31L4 31L4 32L5 32L5 31L7 31L7 30L10 30L10 31L9 31L9 32L8 32L8 35L9 35L9 36L10 36L10 37L11 37L11 38L12 38L12 39L9 39L9 37L8 37L8 39L9 39L9 40L11 40L11 41L13 41L13 40L12 40L12 39L13 39L13 38L15 38L15 41L16 41L16 38L17 38L17 39L19 39L19 38L20 38L20 37L21 37L21 39L20 39L20 41L21 41L21 39L23 39L23 40L22 40L22 41L24 41L24 40L25 40L25 41L26 41L26 40L28 40L28 41L29 41L29 40L28 40L28 39L27 39L27 38L28 38L28 37L29 37L29 36L30 36L30 35L31 35L31 36L32 36L32 37L31 37L31 39L30 39L30 40L32 40L32 41L33 41L33 39L34 39L34 38L33 38L33 37L35 37L35 41L37 41L37 40L38 40L38 41L40 41L40 39L41 39L41 35L39 35L39 34L41 34L41 32L40 32L40 33L39 33L39 31L40 31L40 30L39 30L39 31L38 31L38 33L37 33L37 32L36 32L36 31L37 31L37 30L36 30L36 31L35 31L35 29L33 29L33 28L32 28L32 29L31 29L31 28L30 28L30 29L31 29L31 30L29 30L29 27L26 27L26 26L29 26L29 25L30 25L30 27L32 27L32 25L31 25L31 24L33 24L33 26L34 26L34 27L35 27L35 26L36 26L36 24L35 24L35 25L34 25L34 23L33 23L33 22L32 22L32 21L33 21L33 20L34 20L34 22L35 22L35 21L36 21L36 22L37 22L37 21L40 21L40 17L41 17L41 16L39 16L39 18L38 18L38 17L37 17L37 16L38 16L38 15L39 15L39 14L40 14L40 15L41 15L41 13L40 13L40 12L41 12L41 11L40 11L40 12L39 12L39 13L37 13L37 15L36 15L36 17L37 17L37 18L38 18L38 19L36 19L36 20L34 20L34 19L35 19L35 18L34 18L34 19L33 19L33 16L32 16L32 19L31 19L31 17L30 17L30 19L29 19L29 17L28 17L28 16L29 16L29 14L30 14L30 13L31 13L31 12L29 12L29 11L31 11L31 10L32 10L32 9L33 9L33 11L35 11L35 10L37 10L37 11L36 11L36 12L37 12L37 11L38 11L38 10L37 10L37 8L36 8L36 9L35 9L35 8L33 8L33 6L32 6L32 5L33 5L33 3L32 3L32 2L31 2L31 1L32 1L32 0L31 0L31 1L30 1L30 0L29 0L29 1L28 1L28 2L29 2L29 3L28 3L28 4L27 4L27 5L28 5L28 7L29 7L29 9L30 9L30 8L31 8L31 10L28 10L28 11L27 11L27 13L28 13L28 14L26 14L26 13L25 13L25 12L26 12L26 10L27 10L27 9L28 9L28 8L27 8L27 9L26 9L26 7L27 7L27 6L26 6L26 7L25 7L25 5L24 5L24 3L23 3L23 2L25 2L25 3L27 3L27 0L26 0L26 2L25 2L25 0L24 0L24 1L23 1L23 0L21 0L21 1L23 1L23 2L21 2L21 5L19 5L19 4L20 4L20 3L19 3L19 2L18 2L18 0L15 0L15 1L14 1L14 0ZM15 1L15 2L14 2L14 3L13 3L13 4L12 4L12 6L11 6L11 7L10 7L10 8L9 8L9 11L8 11L8 10L7 10L7 11L6 11L6 12L7 12L7 13L10 13L10 12L11 12L11 14L10 14L10 15L9 15L9 14L8 14L8 15L9 15L9 16L10 16L10 17L11 17L11 18L13 18L13 17L14 17L14 20L13 20L13 19L10 19L10 18L9 18L9 17L8 17L8 20L7 20L7 21L4 21L4 20L3 20L3 21L4 21L4 23L3 23L3 26L2 26L2 30L3 30L3 29L4 29L4 28L5 28L5 29L6 29L6 30L7 30L7 29L6 29L6 28L9 28L9 29L10 29L10 28L11 28L11 29L12 29L12 30L13 30L13 28L14 28L14 30L15 30L15 31L13 31L13 32L12 32L12 33L11 33L11 31L10 31L10 32L9 32L9 34L10 34L10 35L11 35L11 34L12 34L12 35L13 35L13 36L14 36L14 37L16 37L16 35L17 35L17 36L19 36L19 35L20 35L20 36L22 36L22 38L23 38L23 39L24 39L24 38L25 38L25 37L26 37L26 38L27 38L27 36L29 36L29 35L30 35L30 34L29 34L29 31L27 31L27 30L28 30L28 28L26 28L26 27L25 27L25 28L24 28L24 26L25 26L25 25L24 25L24 24L26 24L26 23L27 23L27 24L28 24L28 25L29 25L29 24L31 24L31 23L32 23L32 22L31 22L31 20L28 20L28 19L27 19L27 20L25 20L25 19L26 19L26 18L27 18L27 16L28 16L28 15L27 15L27 16L26 16L26 15L25 15L25 16L24 16L24 15L23 15L23 14L22 14L22 13L24 13L24 14L25 14L25 13L24 13L24 12L25 12L25 11L23 11L23 12L22 12L22 11L21 11L21 12L22 12L22 13L20 13L20 12L18 12L18 11L17 11L17 10L15 10L15 12L14 12L14 11L12 11L12 9L11 9L11 11L10 11L10 8L13 8L13 9L15 9L15 7L16 7L16 6L15 6L15 5L16 5L16 4L15 4L15 5L14 5L14 3L15 3L15 2L16 2L16 3L18 3L18 2L17 2L17 1ZM29 1L29 2L30 2L30 3L29 3L29 4L28 4L28 5L29 5L29 7L30 7L30 5L31 5L31 4L32 4L32 3L31 3L31 2L30 2L30 1ZM17 4L17 5L18 5L18 6L17 6L17 7L18 7L18 8L19 8L19 9L20 9L20 10L24 10L24 8L25 8L25 7L24 7L24 6L23 6L23 7L24 7L24 8L23 8L23 9L22 9L22 8L19 8L19 7L20 7L20 6L19 6L19 5L18 5L18 4ZM22 4L22 5L21 5L21 7L22 7L22 5L23 5L23 4ZM29 4L29 5L30 5L30 4ZM13 5L13 6L12 6L12 7L13 7L13 8L14 8L14 7L15 7L15 6L14 6L14 5ZM13 6L13 7L14 7L14 6ZM18 6L18 7L19 7L19 6ZM31 6L31 7L32 7L32 6ZM16 8L16 9L17 9L17 8ZM3 9L3 10L1 10L1 12L2 12L2 11L3 11L3 13L4 13L4 11L3 11L3 10L4 10L4 9ZM25 9L25 10L26 10L26 9ZM40 9L40 10L41 10L41 9ZM9 11L9 12L10 12L10 11ZM11 11L11 12L12 12L12 13L14 13L14 12L12 12L12 11ZM16 11L16 12L15 12L15 13L16 13L16 12L17 12L17 11ZM28 12L28 13L29 13L29 12ZM32 12L32 14L31 14L31 15L30 15L30 16L31 16L31 15L33 15L33 12ZM34 12L34 13L35 13L35 14L34 14L34 15L35 15L35 14L36 14L36 13L35 13L35 12ZM18 13L18 14L16 14L16 16L17 16L17 17L19 17L19 16L18 16L18 15L21 15L21 16L20 16L20 18L19 18L19 19L17 19L17 18L16 18L16 17L15 17L15 16L14 16L14 15L15 15L15 14L12 14L12 15L11 15L11 16L12 16L12 15L13 15L13 16L14 16L14 17L15 17L15 20L14 20L14 21L15 21L15 24L16 24L16 25L15 25L15 26L13 26L13 25L14 25L14 23L12 23L12 26L11 26L11 25L9 25L9 26L8 26L8 24L9 24L9 23L11 23L11 22L12 22L12 21L11 21L11 22L10 22L10 20L8 20L8 22L9 22L9 23L7 23L7 22L5 22L5 24L4 24L4 25L5 25L5 24L6 24L6 25L7 25L7 26L3 26L3 27L5 27L5 28L6 28L6 27L9 27L9 28L10 28L10 27L9 27L9 26L11 26L11 28L13 28L13 27L15 27L15 30L17 30L17 29L16 29L16 27L18 27L18 26L20 26L20 27L19 27L19 28L18 28L18 30L19 30L19 29L21 29L21 30L22 30L22 29L23 29L23 26L24 26L24 25L23 25L23 24L24 24L24 22L23 22L23 21L22 21L22 20L19 20L19 19L20 19L20 18L21 18L21 19L22 19L22 18L23 18L23 15L21 15L21 14L19 14L19 13ZM4 16L4 17L5 17L5 16ZM21 16L21 18L22 18L22 16ZM24 17L24 19L25 19L25 17ZM16 19L16 20L17 20L17 21L16 21L16 24L17 24L17 23L19 23L19 24L20 24L20 25L22 25L22 24L23 24L23 23L22 23L22 22L20 22L20 23L19 23L19 22L17 22L17 21L19 21L19 20L17 20L17 19ZM32 19L32 20L33 20L33 19ZM36 20L36 21L37 21L37 20ZM25 22L25 23L26 23L26 22ZM28 22L28 23L29 23L29 22ZM38 22L38 23L37 23L37 24L38 24L38 23L40 23L40 22ZM6 23L6 24L7 24L7 23ZM20 23L20 24L22 24L22 23ZM1 24L1 25L2 25L2 24ZM40 24L40 25L39 25L39 26L40 26L40 27L41 27L41 24ZM16 25L16 26L15 26L15 27L16 27L16 26L18 26L18 25ZM37 25L37 26L38 26L38 25ZM21 26L21 29L22 29L22 26ZM37 27L37 28L36 28L36 29L37 29L37 28L38 28L38 29L39 29L39 28L38 28L38 27ZM25 28L25 29L24 29L24 31L23 31L23 32L22 32L22 31L20 31L20 33L19 33L19 32L18 32L18 31L15 31L15 32L17 32L17 33L16 33L16 34L15 34L15 33L14 33L14 32L13 32L13 33L12 33L12 34L15 34L15 35L14 35L14 36L15 36L15 35L16 35L16 34L17 34L17 33L19 33L19 34L18 34L18 35L19 35L19 34L20 34L20 33L21 33L21 34L23 34L23 33L25 33L25 34L24 34L24 37L25 37L25 34L26 34L26 36L27 36L27 33L25 33L25 32L26 32L26 30L27 30L27 29L26 29L26 28ZM40 28L40 29L41 29L41 28ZM32 30L32 32L31 32L31 33L32 33L32 32L33 32L33 31L34 31L34 32L35 32L35 31L34 31L34 30ZM1 32L1 33L2 33L2 32ZM6 32L6 33L7 33L7 32ZM10 33L10 34L11 34L11 33ZM33 33L33 36L36 36L36 33ZM38 33L38 34L39 34L39 33ZM28 34L28 35L29 35L29 34ZM34 34L34 35L35 35L35 34ZM22 35L22 36L23 36L23 35ZM38 35L38 36L39 36L39 35ZM12 37L12 38L13 38L13 37ZM18 37L18 38L19 38L19 37ZM36 37L36 40L37 40L37 37ZM38 37L38 38L39 38L39 39L40 39L40 37ZM32 38L32 39L33 39L33 38ZM0 0L0 7L7 7L7 0ZM1 1L1 6L6 6L6 1ZM2 2L2 5L5 5L5 2ZM34 0L34 7L41 7L41 0ZM35 1L35 6L40 6L40 1ZM36 2L36 5L39 5L39 2ZM0 34L0 41L7 41L7 34ZM1 35L1 40L6 40L6 35ZM2 36L2 39L5 39L5 36Z" fill="#000000"/></g></g></svg>
