<?xml version="1.0" encoding="UTF-8"?>
<svg xmlns="http://www.w3.org/2000/svg" version="1.1" width="200" height="200" viewBox="0 0 200 200"><rect x="0" y="0" width="200" height="200" fill="#ffffff"/><g transform="scale(4.878)"><g transform="translate(0,0)"><path fill-rule="evenodd" d="M8 0L8 3L12 3L12 4L10 4L10 5L12 5L12 7L13 7L13 9L12 9L12 12L11 12L11 10L10 10L10 9L11 9L11 8L10 8L10 7L11 7L11 6L10 6L10 7L9 7L9 5L8 5L8 9L7 9L7 8L6 8L6 9L5 9L5 8L2 8L2 10L1 10L1 11L0 11L0 13L1 13L1 14L0 14L0 15L1 15L1 14L2 14L2 15L3 15L3 14L6 14L6 15L5 15L5 16L2 16L2 17L3 17L3 18L2 18L2 20L1 20L1 26L3 26L3 27L2 27L2 28L3 28L3 29L2 29L2 32L4 32L4 33L5 33L5 32L4 32L4 31L8 31L8 30L4 30L4 31L3 31L3 29L4 29L4 28L3 28L3 27L4 27L4 26L3 26L3 25L5 25L5 26L6 26L6 27L7 27L7 28L6 28L6 29L7 29L7 28L8 28L8 29L9 29L9 32L6 32L6 33L8 33L8 34L9 34L9 35L10 35L10 37L9 37L9 36L8 36L8 39L9 39L9 38L11 38L11 34L12 34L12 35L13 35L13 33L14 33L14 32L15 32L15 34L14 34L14 36L15 36L15 37L14 37L14 39L12 39L12 40L14 40L14 41L19 41L19 40L20 40L20 37L22 37L22 38L21 38L21 39L22 39L22 40L21 40L21 41L22 41L22 40L25 40L25 41L31 41L31 40L33 40L33 41L34 41L34 40L33 40L33 39L31 39L31 38L32 38L32 37L33 37L33 38L34 38L34 39L35 39L35 40L36 40L36 39L37 39L37 40L40 40L40 38L41 38L41 37L40 37L40 36L41 36L41 35L40 35L40 34L41 34L41 32L40 32L40 30L41 30L41 28L39 28L39 30L37 30L37 29L35 29L35 30L34 30L34 31L35 31L35 30L36 30L36 32L33 32L33 31L32 31L32 30L33 30L33 29L34 29L34 28L33 28L33 29L32 29L32 30L31 30L31 29L30 29L30 28L28 28L28 26L26 26L26 25L29 25L29 26L30 26L30 25L31 25L31 26L32 26L32 25L33 25L33 27L34 27L34 26L35 26L35 25L36 25L36 26L37 26L37 27L35 27L35 28L38 28L38 26L39 26L39 27L40 27L40 26L41 26L41 23L39 23L39 22L38 22L38 21L39 21L39 20L36 20L36 19L35 19L35 17L36 17L36 18L37 18L37 17L38 17L38 18L39 18L39 19L40 19L40 18L41 18L41 16L40 16L40 18L39 18L39 16L37 16L37 15L38 15L38 14L39 14L39 15L40 15L40 14L41 14L41 13L40 13L40 12L39 12L39 13L38 13L38 14L37 14L37 13L36 13L36 14L37 14L37 15L36 15L36 16L35 16L35 17L34 17L34 16L33 16L33 17L31 17L31 12L29 12L29 11L31 11L31 10L32 10L32 9L34 9L34 11L33 11L33 12L32 12L32 13L33 13L33 14L32 14L32 15L34 15L34 13L35 13L35 11L36 11L36 12L38 12L38 11L40 11L40 10L41 10L41 8L38 8L38 9L40 9L40 10L37 10L37 9L36 9L36 8L32 8L32 7L33 7L33 6L32 6L32 7L31 7L31 5L32 5L32 4L33 4L33 3L32 3L32 2L30 2L30 1L33 1L33 0L29 0L29 1L27 1L27 0L26 0L26 1L27 1L27 2L26 2L26 3L28 3L28 4L29 4L29 5L30 5L30 7L31 7L31 8L32 8L32 9L30 9L30 8L29 8L29 6L28 6L28 5L27 5L27 4L26 4L26 5L24 5L24 3L23 3L23 5L22 5L22 7L23 7L23 8L24 8L24 9L25 9L25 8L26 8L26 10L27 10L27 11L25 11L25 10L24 10L24 11L23 11L23 10L22 10L22 9L21 9L21 4L19 4L19 5L20 5L20 7L19 7L19 6L18 6L18 3L19 3L19 2L20 2L20 1L21 1L21 2L23 2L23 0L20 0L20 1L18 1L18 0L16 0L16 2L15 2L15 1L14 1L14 0L11 0L11 2L9 2L9 0ZM12 1L12 2L13 2L13 4L12 4L12 5L13 5L13 7L14 7L14 9L15 9L15 10L14 10L14 11L15 11L15 13L16 13L16 12L17 12L17 10L18 10L18 11L19 11L19 13L17 13L17 14L18 14L18 15L19 15L19 18L20 18L20 19L21 19L21 20L22 20L22 21L21 21L21 22L23 22L23 23L24 23L24 24L22 24L22 23L20 23L20 22L18 22L18 21L16 21L16 20L19 20L19 19L17 19L17 18L18 18L18 16L17 16L17 18L16 18L16 15L15 15L15 14L14 14L14 15L13 15L13 16L12 16L12 15L11 15L11 16L9 16L9 17L8 17L8 21L6 21L6 20L7 20L7 19L6 19L6 18L7 18L7 17L6 17L6 18L5 18L5 17L4 17L4 20L3 20L3 21L2 21L2 22L3 22L3 23L4 23L4 20L5 20L5 25L6 25L6 26L7 26L7 25L8 25L8 28L9 28L9 25L10 25L10 28L11 28L11 27L13 27L13 28L14 28L14 26L15 26L15 27L16 27L16 25L17 25L17 27L18 27L18 28L16 28L16 29L10 29L10 32L9 32L9 34L11 34L11 31L12 31L12 33L13 33L13 32L14 32L14 31L15 31L15 32L16 32L16 35L15 35L15 36L16 36L16 38L15 38L15 39L14 39L14 40L17 40L17 39L18 39L18 40L19 40L19 39L18 39L18 37L17 37L17 36L16 36L16 35L18 35L18 34L19 34L19 33L20 33L20 35L19 35L19 37L20 37L20 35L21 35L21 33L22 33L22 32L23 32L23 33L24 33L24 34L25 34L25 36L22 36L22 37L24 37L24 39L25 39L25 38L26 38L26 40L31 40L31 39L30 39L30 37L32 37L32 36L29 36L29 33L26 33L26 31L27 31L27 29L28 29L28 30L30 30L30 31L28 31L28 32L31 32L31 30L30 30L30 29L28 29L28 28L27 28L27 27L26 27L26 26L25 26L25 25L26 25L26 24L28 24L28 23L29 23L29 24L31 24L31 25L32 25L32 24L31 24L31 23L33 23L33 22L34 22L34 24L33 24L33 25L35 25L35 24L36 24L36 25L39 25L39 26L40 26L40 24L39 24L39 23L38 23L38 22L37 22L37 24L36 24L36 23L35 23L35 22L36 22L36 21L35 21L35 19L34 19L34 18L33 18L33 20L32 20L32 18L31 18L31 17L29 17L29 16L30 16L30 15L29 15L29 14L30 14L30 13L29 13L29 12L28 12L28 13L29 13L29 14L27 14L27 12L25 12L25 11L24 11L24 12L25 12L25 13L26 13L26 15L27 15L27 16L26 16L26 17L25 17L25 16L23 16L23 15L25 15L25 14L21 14L21 13L22 13L22 12L23 12L23 11L22 11L22 10L21 10L21 9L19 9L19 7L18 7L18 6L17 6L17 3L18 3L18 2L16 2L16 5L15 5L15 7L14 7L14 5L13 5L13 4L14 4L14 2L13 2L13 1ZM29 3L29 4L32 4L32 3ZM16 6L16 8L17 8L17 9L16 9L16 10L17 10L17 9L18 9L18 8L17 8L17 6ZM23 6L23 7L24 7L24 8L25 8L25 7L26 7L26 8L28 8L28 6L27 6L27 7L26 7L26 6L25 6L25 7L24 7L24 6ZM9 8L9 9L10 9L10 8ZM3 9L3 11L4 11L4 13L5 13L5 10L4 10L4 9ZM6 9L6 10L7 10L7 9ZM27 9L27 10L30 10L30 9ZM35 9L35 10L36 10L36 9ZM8 10L8 11L9 11L9 13L8 13L8 12L7 12L7 11L6 11L6 12L7 12L7 13L6 13L6 14L7 14L7 15L6 15L6 16L7 16L7 15L10 15L10 13L11 13L11 12L10 12L10 10ZM20 10L20 13L19 13L19 15L20 15L20 13L21 13L21 10ZM2 12L2 13L3 13L3 12ZM33 12L33 13L34 13L34 12ZM39 13L39 14L40 14L40 13ZM14 15L14 16L15 16L15 15ZM21 15L21 16L20 16L20 18L21 18L21 19L22 19L22 15ZM28 15L28 16L29 16L29 15ZM0 16L0 19L1 19L1 16ZM11 16L11 18L13 18L13 19L10 19L10 18L9 18L9 19L10 19L10 20L9 20L9 21L8 21L8 23L7 23L7 22L6 22L6 23L7 23L7 24L6 24L6 25L7 25L7 24L8 24L8 25L9 25L9 24L10 24L10 25L12 25L12 26L13 26L13 25L16 25L16 24L20 24L20 26L19 26L19 25L18 25L18 26L19 26L19 27L20 27L20 26L21 26L21 28L18 28L18 29L19 29L19 30L20 30L20 31L18 31L18 30L17 30L17 29L16 29L16 30L15 30L15 31L17 31L17 32L20 32L20 33L21 33L21 31L23 31L23 32L24 32L24 33L25 33L25 31L24 31L24 29L25 29L25 30L26 30L26 29L27 29L27 28L26 28L26 27L25 27L25 28L24 28L24 29L23 29L23 27L24 27L24 25L23 25L23 26L22 26L22 25L21 25L21 24L20 24L20 23L17 23L17 22L16 22L16 21L15 21L15 20L14 20L14 21L12 21L12 20L13 20L13 19L16 19L16 18L15 18L15 17L12 17L12 16ZM36 16L36 17L37 17L37 16ZM23 17L23 20L24 20L24 19L25 19L25 20L26 20L26 21L28 21L28 22L27 22L27 23L28 23L28 22L29 22L29 23L31 23L31 22L33 22L33 21L34 21L34 22L35 22L35 21L34 21L34 20L33 20L33 21L31 21L31 20L30 20L30 21L31 21L31 22L29 22L29 21L28 21L28 20L29 20L29 19L28 19L28 18L27 18L27 17L26 17L26 19L25 19L25 17ZM30 18L30 19L31 19L31 18ZM5 19L5 20L6 20L6 19ZM27 19L27 20L28 20L28 19ZM40 20L40 21L41 21L41 20ZM9 21L9 23L8 23L8 24L9 24L9 23L11 23L11 24L12 24L12 25L13 25L13 24L12 24L12 23L14 23L14 22L15 22L15 24L16 24L16 22L15 22L15 21L14 21L14 22L12 22L12 21L11 21L11 22L10 22L10 21ZM24 21L24 22L25 22L25 23L26 23L26 22L25 22L25 21ZM11 22L11 23L12 23L12 22ZM0 27L0 28L1 28L1 27ZM31 27L31 28L32 28L32 27ZM25 28L25 29L26 29L26 28ZM0 29L0 33L1 33L1 29ZM20 29L20 30L21 30L21 29ZM12 30L12 31L14 31L14 30ZM37 31L37 32L39 32L39 31ZM30 33L30 35L31 35L31 34L32 34L32 33ZM33 33L33 36L36 36L36 33ZM38 33L38 36L37 36L37 37L38 37L38 36L39 36L39 33ZM26 34L26 36L25 36L25 37L26 37L26 38L27 38L27 39L28 39L28 38L29 38L29 37L28 37L28 36L27 36L27 35L28 35L28 34ZM34 34L34 35L35 35L35 34ZM26 36L26 37L27 37L27 38L28 38L28 37L27 37L27 36ZM12 37L12 38L13 38L13 37ZM34 37L34 38L36 38L36 37ZM37 38L37 39L38 39L38 38ZM9 40L9 41L10 41L10 40ZM0 0L0 7L7 7L7 0ZM1 1L1 6L6 6L6 1ZM2 2L2 5L5 5L5 2ZM34 0L34 7L41 7L41 0ZM35 1L35 6L40 6L40 1ZM36 2L36 5L39 5L39 2ZM0 34L0 41L7 41L7 34ZM1 35L1 40L6 40L6 35ZM2 36L2 39L5 39L5 36Z" fill="#000000"/></g></g></svg>
