<?xml version="1.0" encoding="UTF-8"?>
<svg xmlns="http://www.w3.org/2000/svg" version="1.1" width="200" height="200" viewBox="0 0 200 200"><rect x="0" y="0" width="200" height="200" fill="#ffffff"/><g transform="scale(4.878)"><g transform="translate(0,0)"><path fill-rule="evenodd" d="M8 0L8 3L11 3L11 2L9 2L9 0ZM12 0L12 1L14 1L14 0ZM18 0L18 2L17 2L17 1L16 1L16 2L13 2L13 3L15 3L15 4L14 4L14 7L15 7L15 5L16 5L16 4L18 4L18 3L20 3L20 2L21 2L21 3L22 3L22 4L23 4L23 6L22 6L22 5L21 5L21 4L19 4L19 5L18 5L18 7L17 7L17 6L16 6L16 7L17 7L17 8L15 8L15 10L14 10L14 11L15 11L15 12L18 12L18 11L19 11L19 12L20 12L20 10L21 10L21 13L20 13L20 14L19 14L19 15L18 15L18 13L15 13L15 14L12 14L12 13L13 13L13 12L11 12L11 11L7 11L7 10L6 10L6 9L7 9L7 8L6 8L6 9L5 9L5 8L2 8L2 9L1 9L1 12L0 12L0 14L1 14L1 12L2 12L2 10L3 10L3 11L4 11L4 10L3 10L3 9L5 9L5 13L4 13L4 12L3 12L3 14L2 14L2 15L1 15L1 18L0 18L0 22L1 22L1 20L2 20L2 22L3 22L3 24L1 24L1 23L0 23L0 25L3 25L3 26L2 26L2 27L1 27L1 26L0 26L0 28L2 28L2 30L3 30L3 27L4 27L4 28L5 28L5 29L9 29L9 30L8 30L8 32L6 32L6 33L8 33L8 34L9 34L9 33L8 33L8 32L12 32L12 33L14 33L14 34L13 34L13 35L14 35L14 36L15 36L15 37L12 37L12 34L10 34L10 35L9 35L9 36L8 36L8 39L9 39L9 40L10 40L10 41L11 41L11 40L10 40L10 39L12 39L12 41L15 41L15 39L16 39L16 41L18 41L18 40L17 40L17 39L18 39L18 38L20 38L20 39L19 39L19 41L22 41L22 40L23 40L23 41L24 41L24 40L23 40L23 39L21 39L21 38L20 38L20 36L23 36L23 35L24 35L24 36L25 36L25 37L29 37L29 36L31 36L31 35L32 35L32 37L30 37L30 38L34 38L34 39L35 39L35 40L36 40L36 39L37 39L37 40L40 40L40 38L41 38L41 37L40 37L40 36L38 36L38 35L40 35L40 34L41 34L41 33L39 33L39 32L41 32L41 31L40 31L40 30L41 30L41 29L39 29L39 32L38 32L38 29L35 29L35 30L34 30L34 31L35 31L35 32L33 32L33 31L32 31L32 30L33 30L33 29L34 29L34 28L33 28L33 27L34 27L34 26L35 26L35 25L36 25L36 26L37 26L37 27L36 27L36 28L38 28L38 26L39 26L39 27L40 27L40 28L41 28L41 27L40 27L40 26L41 26L41 23L39 23L39 24L40 24L40 26L39 26L39 25L36 25L36 24L37 24L37 20L38 20L38 21L39 21L39 20L38 20L38 19L39 19L39 18L41 18L41 16L40 16L40 17L39 17L39 16L37 16L37 15L38 15L38 14L37 14L37 13L36 13L36 14L35 14L35 15L36 15L36 16L35 16L35 17L34 17L34 16L32 16L32 17L30 17L30 16L31 16L31 13L33 13L33 14L32 14L32 15L34 15L34 13L35 13L35 11L36 11L36 12L38 12L38 11L39 11L39 13L40 13L40 14L39 14L39 15L40 15L40 14L41 14L41 12L40 12L40 10L41 10L41 8L38 8L38 9L40 9L40 10L37 10L37 9L36 9L36 8L32 8L32 7L33 7L33 5L32 5L32 4L33 4L33 1L32 1L32 0L31 0L31 1L32 1L32 2L30 2L30 0L29 0L29 1L27 1L27 0L26 0L26 1L27 1L27 2L26 2L26 3L28 3L28 4L29 4L29 3L32 3L32 4L30 4L30 8L28 8L28 7L29 7L29 6L28 6L28 5L27 5L27 4L26 4L26 7L25 7L25 5L24 5L24 4L25 4L25 3L22 3L22 1L23 1L23 2L24 2L24 1L23 1L23 0L21 0L21 1L19 1L19 0ZM12 4L12 5L11 5L11 6L10 6L10 7L9 7L9 5L8 5L8 10L9 10L9 8L11 8L11 9L10 9L10 10L13 10L13 9L12 9L12 7L13 7L13 4ZM20 5L20 6L19 6L19 8L18 8L18 10L17 10L17 9L16 9L16 10L15 10L15 11L18 11L18 10L19 10L19 8L20 8L20 9L21 9L21 7L22 7L22 9L25 9L25 7L24 7L24 6L23 6L23 7L22 7L22 6L21 6L21 5ZM31 5L31 7L32 7L32 5ZM11 6L11 7L12 7L12 6ZM20 6L20 7L21 7L21 6ZM27 6L27 7L28 7L28 6ZM30 8L30 9L26 9L26 10L30 10L30 9L32 9L32 10L31 10L31 11L28 11L28 13L29 13L29 14L26 14L26 13L27 13L27 11L24 11L24 10L22 10L22 11L23 11L23 12L22 12L22 13L21 13L21 14L20 14L20 15L19 15L19 16L17 16L17 15L13 15L13 16L15 16L15 18L14 18L14 19L13 19L13 17L12 17L12 14L11 14L11 13L10 13L10 14L9 14L9 16L7 16L7 15L5 15L5 14L7 14L7 13L8 13L8 12L7 12L7 11L6 11L6 12L7 12L7 13L5 13L5 14L4 14L4 15L3 15L3 16L4 16L4 17L3 17L3 18L1 18L1 19L3 19L3 21L4 21L4 19L5 19L5 20L9 20L9 21L5 21L5 22L4 22L4 23L6 23L6 24L7 24L7 25L6 25L6 26L5 26L5 24L4 24L4 27L6 27L6 28L7 28L7 27L8 27L8 28L10 28L10 29L11 29L11 28L12 28L12 29L13 29L13 31L14 31L14 30L15 30L15 31L17 31L17 32L15 32L15 33L17 33L17 34L15 34L15 35L16 35L16 36L17 36L17 38L16 38L16 39L17 39L17 38L18 38L18 37L19 37L19 36L20 36L20 35L19 35L19 34L18 34L18 33L20 33L20 34L21 34L21 35L22 35L22 34L23 34L23 33L24 33L24 35L25 35L25 32L27 32L27 31L24 31L24 30L25 30L25 29L24 29L24 30L23 30L23 27L24 27L24 28L26 28L26 30L27 30L27 28L30 28L30 29L28 29L28 30L29 30L29 31L28 31L28 32L31 32L31 31L30 31L30 29L31 29L31 30L32 30L32 29L33 29L33 28L32 28L32 27L33 27L33 25L35 25L35 24L36 24L36 23L35 23L35 22L36 22L36 21L35 21L35 19L36 19L36 20L37 20L37 19L38 19L38 18L39 18L39 17L37 17L37 16L36 16L36 17L35 17L35 19L34 19L34 18L33 18L33 17L32 17L32 18L31 18L31 19L30 19L30 17L29 17L29 16L30 16L30 15L29 15L29 14L30 14L30 13L29 13L29 12L33 12L33 13L34 13L34 12L33 12L33 11L34 11L34 9L32 9L32 8ZM35 9L35 10L36 10L36 9ZM32 10L32 11L33 11L33 10ZM25 12L25 13L26 13L26 12ZM23 13L23 14L24 14L24 13ZM10 14L10 16L11 16L11 14ZM21 14L21 15L20 15L20 16L19 16L19 17L21 17L21 18L18 18L18 19L20 19L20 20L21 20L21 18L23 18L23 19L22 19L22 21L23 21L23 20L24 20L24 21L25 21L25 20L28 20L28 21L29 21L29 20L28 20L28 19L29 19L29 18L27 18L27 19L25 19L25 18L26 18L26 14L25 14L25 17L24 17L24 16L23 16L23 15L22 15L22 14ZM28 15L28 16L29 16L29 15ZM6 16L6 17L5 17L5 18L6 18L6 19L7 19L7 18L8 18L8 17L7 17L7 16ZM6 17L6 18L7 18L7 17ZM10 17L10 19L11 19L11 20L10 20L10 23L9 23L9 24L11 24L11 25L9 25L9 26L10 26L10 27L11 27L11 25L12 25L12 28L13 28L13 29L15 29L15 28L18 28L18 27L15 27L15 25L17 25L17 24L15 24L15 23L17 23L17 22L18 22L18 23L19 23L19 24L21 24L21 25L18 25L18 26L20 26L20 27L21 27L21 29L22 29L22 26L21 26L21 25L22 25L22 24L21 24L21 23L19 23L19 22L18 22L18 20L17 20L17 17L16 17L16 18L15 18L15 19L14 19L14 20L15 20L15 19L16 19L16 21L17 21L17 22L15 22L15 21L14 21L14 22L15 22L15 23L13 23L13 20L12 20L12 19L11 19L11 17ZM23 17L23 18L24 18L24 17ZM36 17L36 18L37 18L37 17ZM3 18L3 19L4 19L4 18ZM32 18L32 19L33 19L33 18ZM11 20L11 21L12 21L12 20ZM30 20L30 21L31 21L31 22L32 22L32 23L30 23L30 22L24 22L24 24L23 24L23 25L24 25L24 26L25 26L25 25L24 25L24 24L25 24L25 23L27 23L27 25L29 25L29 26L26 26L26 27L29 27L29 26L32 26L32 25L33 25L33 23L34 23L34 24L35 24L35 23L34 23L34 22L35 22L35 21L34 21L34 20ZM40 20L40 21L41 21L41 20ZM32 21L32 22L34 22L34 21ZM6 22L6 23L7 23L7 24L8 24L8 22ZM22 22L22 23L23 23L23 22ZM29 23L29 24L30 24L30 25L32 25L32 24L30 24L30 23ZM14 24L14 25L13 25L13 28L15 28L15 27L14 27L14 25L15 25L15 24ZM6 26L6 27L7 27L7 26ZM0 29L0 33L1 33L1 29ZM16 29L16 30L17 30L17 31L18 31L18 30L19 30L19 32L20 32L20 33L21 33L21 32L20 32L20 30L19 30L19 29ZM4 30L4 31L2 31L2 33L4 33L4 32L5 32L5 31L7 31L7 30ZM10 30L10 31L11 31L11 30ZM22 30L22 32L24 32L24 31L23 31L23 30ZM35 30L35 31L36 31L36 30ZM17 32L17 33L18 33L18 32ZM37 32L37 34L39 34L39 33L38 33L38 32ZM26 33L26 36L27 36L27 34L29 34L29 33ZM30 33L30 35L31 35L31 33ZM33 33L33 36L36 36L36 33ZM17 34L17 36L18 36L18 34ZM34 34L34 35L35 35L35 34ZM10 35L10 36L9 36L9 38L10 38L10 36L11 36L11 35ZM28 35L28 36L29 36L29 35ZM37 36L37 37L38 37L38 36ZM11 37L11 38L12 38L12 39L13 39L13 38L12 38L12 37ZM22 37L22 38L23 38L23 37ZM34 37L34 38L36 38L36 37ZM27 38L27 40L25 40L25 41L28 41L28 39L29 39L29 38ZM37 38L37 39L38 39L38 38ZM20 39L20 40L21 40L21 39ZM30 39L30 40L29 40L29 41L30 41L30 40L33 40L33 41L34 41L34 40L33 40L33 39ZM0 0L0 7L7 7L7 0ZM1 1L1 6L6 6L6 1ZM2 2L2 5L5 5L5 2ZM34 0L34 7L41 7L41 0ZM35 1L35 6L40 6L40 1ZM36 2L36 5L39 5L39 2ZM0 34L0 41L7 41L7 34ZM1 35L1 40L6 40L6 35ZM2 36L2 39L5 39L5 36Z" fill="#000000"/></g></g></svg>
