<?xml version="1.0" encoding="UTF-8"?>
<svg xmlns="http://www.w3.org/2000/svg" version="1.1" width="200" height="200" viewBox="0 0 200 200"><rect x="0" y="0" width="200" height="200" fill="#ffffff"/><g transform="scale(6.897)"><g transform="translate(0,0)"><path fill-rule="evenodd" d="M9 0L9 1L10 1L10 2L8 2L8 4L9 4L9 6L8 6L8 7L9 7L9 9L8 9L8 8L6 8L6 9L5 9L5 8L3 8L3 9L4 9L4 10L1 10L1 11L2 11L2 12L1 12L1 13L0 13L0 15L3 15L3 17L1 17L1 16L0 16L0 21L3 21L3 19L5 19L5 18L6 18L6 19L7 19L7 18L6 18L6 17L7 17L7 16L8 16L8 19L10 19L10 21L11 21L11 20L14 20L14 21L12 21L12 22L11 22L11 23L12 23L12 22L14 22L14 24L13 24L13 25L11 25L11 24L8 24L8 26L9 26L9 28L10 28L10 27L13 27L13 28L12 28L12 29L13 29L13 28L14 28L14 29L15 29L15 28L14 28L14 25L15 25L15 26L16 26L16 23L17 23L17 22L16 22L16 21L18 21L18 20L19 20L19 19L18 19L18 18L19 18L19 17L18 17L18 16L19 16L19 15L20 15L20 19L22 19L22 20L20 20L20 24L19 24L19 25L18 25L18 24L17 24L17 27L16 27L16 29L17 29L17 28L18 28L18 29L19 29L19 28L20 28L20 29L21 29L21 27L22 27L22 28L24 28L24 29L25 29L25 27L26 27L26 25L28 25L28 24L29 24L29 23L28 23L28 24L26 24L26 25L25 25L25 22L27 22L27 21L26 21L26 19L27 19L27 18L29 18L29 17L28 17L28 16L29 16L29 14L27 14L27 13L29 13L29 11L28 11L28 10L27 10L27 8L25 8L25 9L24 9L24 10L23 10L23 9L22 9L22 10L23 10L23 12L22 12L22 11L21 11L21 12L19 12L19 10L18 10L18 9L19 9L19 8L18 8L18 9L17 9L17 6L18 6L18 7L19 7L19 6L20 6L20 7L21 7L21 4L20 4L20 3L21 3L21 1L20 1L20 0L17 0L17 1L18 1L18 2L19 2L19 1L20 1L20 3L18 3L18 4L17 4L17 3L16 3L16 4L17 4L17 5L15 5L15 6L14 6L14 7L13 7L13 6L12 6L12 3L13 3L13 2L14 2L14 3L15 3L15 1L16 1L16 0L15 0L15 1L13 1L13 0L11 0L11 1L10 1L10 0ZM12 1L12 2L13 2L13 1ZM10 2L10 5L11 5L11 2ZM13 4L13 5L14 5L14 4ZM9 6L9 7L10 7L10 6ZM11 6L11 8L10 8L10 9L9 9L9 11L10 11L10 12L9 12L9 13L6 13L6 12L7 12L7 11L8 11L8 10L7 10L7 9L6 9L6 10L4 10L4 11L3 11L3 12L2 12L2 13L1 13L1 14L2 14L2 13L3 13L3 15L4 15L4 16L7 16L7 15L8 15L8 16L9 16L9 17L13 17L13 19L14 19L14 17L13 17L13 16L16 16L16 17L15 17L15 18L16 18L16 19L15 19L15 20L18 20L18 19L17 19L17 18L16 18L16 17L17 17L17 15L19 15L19 13L17 13L17 12L18 12L18 10L16 10L16 6L15 6L15 8L13 8L13 7L12 7L12 6ZM11 8L11 9L10 9L10 10L11 10L11 11L13 11L13 12L11 12L11 13L10 13L10 14L12 14L12 13L13 13L13 14L17 14L17 13L16 13L16 12L17 12L17 11L16 11L16 10L15 10L15 11L13 11L13 10L14 10L14 9L12 9L12 8ZM20 8L20 10L21 10L21 8ZM25 9L25 10L26 10L26 11L27 11L27 12L28 12L28 11L27 11L27 10L26 10L26 9ZM6 10L6 11L7 11L7 10ZM15 11L15 12L16 12L16 11ZM3 12L3 13L4 13L4 12ZM13 12L13 13L14 13L14 12ZM21 12L21 14L20 14L20 15L21 15L21 18L22 18L22 16L24 16L24 17L23 17L23 18L25 18L25 19L26 19L26 18L25 18L25 16L26 16L26 17L27 17L27 16L28 16L28 15L27 15L27 16L26 16L26 13L25 13L25 16L24 16L24 12L23 12L23 14L22 14L22 12ZM4 14L4 15L7 15L7 14ZM9 15L9 16L10 16L10 15ZM12 15L12 16L13 16L13 15ZM11 18L11 19L12 19L12 18ZM23 19L23 20L24 20L24 19ZM4 20L4 21L7 21L7 20ZM8 20L8 23L9 23L9 20ZM14 21L14 22L15 22L15 21ZM21 21L21 24L24 24L24 21ZM28 21L28 22L29 22L29 21ZM18 22L18 23L19 23L19 22ZM22 22L22 23L23 23L23 22ZM10 25L10 26L11 26L11 25ZM19 25L19 27L21 27L21 26L22 26L22 27L25 27L25 26L24 26L24 25ZM27 26L27 27L29 27L29 26ZM27 28L27 29L28 29L28 28ZM0 0L0 7L7 7L7 0ZM1 1L1 6L6 6L6 1ZM2 2L2 5L5 5L5 2ZM22 0L22 7L29 7L29 0ZM23 1L23 6L28 6L28 1ZM24 2L24 5L27 5L27 2ZM0 22L0 29L7 29L7 22ZM1 23L1 28L6 28L6 23ZM2 24L2 27L5 27L5 24Z" fill="#000000"/></g></g></svg>
