<?xml version="1.0" encoding="UTF-8"?>
<svg xmlns="http://www.w3.org/2000/svg" version="1.1" width="200" height="200" viewBox="0 0 200 200"><rect x="0" y="0" width="200" height="200" fill="#ffffff"/><g transform="scale(4.878)"><g transform="translate(0,0)"><path fill-rule="evenodd" d="M8 0L8 3L9 3L9 5L8 5L8 9L7 9L7 8L6 8L6 9L7 9L7 10L6 10L6 11L5 11L5 8L2 8L2 11L1 11L1 10L0 10L0 12L2 12L2 13L3 13L3 14L4 14L4 15L5 15L5 14L4 14L4 12L2 12L2 11L3 11L3 9L4 9L4 11L5 11L5 12L6 12L6 13L7 13L7 14L6 14L6 15L11 15L11 14L10 14L10 13L12 13L12 14L13 14L13 16L14 16L14 17L16 17L16 18L15 18L15 19L14 19L14 18L13 18L13 17L12 17L12 16L11 16L11 17L10 17L10 18L13 18L13 20L12 20L12 22L9 22L9 21L8 21L8 20L6 20L6 21L5 21L5 20L4 20L4 16L3 16L3 18L2 18L2 17L1 17L1 18L0 18L0 21L1 21L1 19L2 19L2 20L4 20L4 21L3 21L3 22L4 22L4 21L5 21L5 22L6 22L6 23L5 23L5 25L3 25L3 24L4 24L4 23L3 23L3 24L1 24L1 22L0 22L0 24L1 24L1 28L2 28L2 29L3 29L3 28L2 28L2 25L3 25L3 27L4 27L4 28L6 28L6 29L5 29L5 32L3 32L3 33L7 33L7 32L6 32L6 31L8 31L8 30L6 30L6 29L8 29L8 28L6 28L6 27L8 27L8 26L9 26L9 27L10 27L10 28L9 28L9 29L10 29L10 28L11 28L11 30L10 30L10 31L9 31L9 32L8 32L8 34L9 34L9 33L10 33L10 32L11 32L11 34L10 34L10 35L9 35L9 36L8 36L8 39L9 39L9 41L13 41L13 40L12 40L12 38L10 38L10 37L9 37L9 36L10 36L10 35L11 35L11 37L13 37L13 36L14 36L14 38L15 38L15 36L16 36L16 34L19 34L19 35L17 35L17 36L18 36L18 39L17 39L17 37L16 37L16 39L14 39L14 40L16 40L16 39L17 39L17 41L18 41L18 40L19 40L19 41L22 41L22 40L20 40L20 39L21 39L21 38L22 38L22 39L23 39L23 40L24 40L24 41L32 41L32 40L33 40L33 41L34 41L34 40L33 40L33 39L35 39L35 40L36 40L36 39L38 39L38 38L39 38L39 40L40 40L40 38L41 38L41 36L40 36L40 34L41 34L41 33L39 33L39 32L41 32L41 31L40 31L40 30L41 30L41 29L40 29L40 28L39 28L39 30L37 30L37 29L36 29L36 28L35 28L35 26L36 26L36 27L37 27L37 28L38 28L38 26L39 26L39 27L40 27L40 26L41 26L41 23L40 23L40 26L39 26L39 24L37 24L37 25L34 25L34 23L32 23L32 25L30 25L30 24L28 24L28 23L30 23L30 22L32 22L32 21L34 21L34 22L36 22L36 21L39 21L39 20L36 20L36 19L35 19L35 17L36 17L36 18L37 18L37 19L38 19L38 17L39 17L39 16L38 16L38 15L39 15L39 14L41 14L41 13L40 13L40 10L41 10L41 8L38 8L38 9L40 9L40 10L37 10L37 9L36 9L36 8L33 8L33 6L32 6L32 7L31 7L31 5L32 5L32 4L33 4L33 3L32 3L32 4L31 4L31 3L30 3L30 4L31 4L31 5L30 5L30 7L31 7L31 8L27 8L27 6L28 6L28 7L29 7L29 6L28 6L28 5L29 5L29 4L28 4L28 5L27 5L27 6L26 6L26 8L27 8L27 9L25 9L25 8L24 8L24 7L25 7L25 5L26 5L26 4L27 4L27 3L29 3L29 1L27 1L27 0L25 0L25 2L24 2L24 0L22 0L22 1L21 1L21 0L20 0L20 1L21 1L21 2L22 2L22 4L23 4L23 5L21 5L21 3L20 3L20 5L19 5L19 2L18 2L18 4L13 4L13 3L14 3L14 1L13 1L13 2L12 2L12 4L10 4L10 3L11 3L11 2L10 2L10 3L9 3L9 1L10 1L10 0ZM15 0L15 3L17 3L17 2L16 2L16 0ZM17 0L17 1L19 1L19 0ZM31 0L31 1L30 1L30 2L31 2L31 1L32 1L32 2L33 2L33 1L32 1L32 0ZM22 1L22 2L23 2L23 1ZM26 2L26 3L24 3L24 5L25 5L25 4L26 4L26 3L27 3L27 2ZM9 5L9 7L10 7L10 5ZM14 5L14 6L13 6L13 8L9 8L9 9L8 9L8 10L10 10L10 11L12 11L12 13L13 13L13 11L12 11L12 10L15 10L15 11L14 11L14 16L15 16L15 14L16 14L16 17L17 17L17 13L19 13L19 15L18 15L18 18L19 18L19 15L20 15L20 13L19 13L19 12L18 12L18 10L15 10L15 9L14 9L14 6L15 6L15 8L16 8L16 6L15 6L15 5ZM17 5L17 9L18 9L18 8L19 8L19 10L20 10L20 6L19 6L19 5ZM11 6L11 7L12 7L12 6ZM18 6L18 7L19 7L19 6ZM21 6L21 7L22 7L22 8L23 8L23 9L24 9L24 10L23 10L23 11L24 11L24 13L25 13L25 14L23 14L23 13L22 13L22 15L21 15L21 19L17 19L17 21L16 21L16 20L14 20L14 21L16 21L16 23L15 23L15 22L14 22L14 24L13 24L13 26L12 26L12 27L11 27L11 25L12 25L12 24L11 24L11 23L10 23L10 24L9 24L9 22L8 22L8 21L6 21L6 22L8 22L8 24L7 24L7 23L6 23L6 24L7 24L7 25L5 25L5 26L4 26L4 27L5 27L5 26L8 26L8 25L10 25L10 27L11 27L11 28L12 28L12 30L11 30L11 32L12 32L12 33L13 33L13 32L14 32L14 30L13 30L13 29L14 29L14 28L15 28L15 26L14 26L14 24L16 24L16 25L17 25L17 29L15 29L15 30L17 30L17 32L16 32L16 31L15 31L15 33L14 33L14 36L15 36L15 34L16 34L16 33L18 33L18 32L20 32L20 31L18 31L18 30L19 30L19 29L22 29L22 30L21 30L21 31L22 31L22 32L21 32L21 33L20 33L20 35L19 35L19 36L20 36L20 37L19 37L19 38L20 38L20 37L21 37L21 35L22 35L22 36L23 36L23 37L22 37L22 38L23 38L23 39L24 39L24 38L23 38L23 37L24 37L24 36L23 36L23 35L22 35L22 33L23 33L23 34L24 34L24 33L23 33L23 32L24 32L24 28L25 28L25 37L27 37L27 38L25 38L25 39L26 39L26 40L32 40L32 39L33 39L33 38L36 38L36 37L33 37L33 38L32 38L32 39L30 39L30 38L31 38L31 37L32 37L32 35L30 35L30 34L31 34L31 33L32 33L32 32L39 32L39 31L36 31L36 29L34 29L34 28L33 28L33 27L34 27L34 25L32 25L32 26L29 26L29 25L28 25L28 24L27 24L27 25L26 25L26 24L25 24L25 23L27 23L27 22L30 22L30 21L32 21L32 20L29 20L29 21L27 21L27 20L28 20L28 19L27 19L27 18L29 18L29 16L31 16L31 14L32 14L32 15L33 15L33 16L34 16L34 17L35 17L35 16L36 16L36 17L38 17L38 16L37 16L37 15L38 15L38 14L39 14L39 11L38 11L38 12L35 12L35 10L34 10L34 11L33 11L33 9L32 9L32 8L31 8L31 9L27 9L27 10L26 10L26 13L25 13L25 9L24 9L24 8L23 8L23 7L24 7L24 6L23 6L23 7L22 7L22 6ZM10 9L10 10L11 10L11 9ZM31 9L31 10L29 10L29 11L28 11L28 10L27 10L27 11L28 11L28 12L27 12L27 15L26 15L26 14L25 14L25 15L22 15L22 16L24 16L24 17L23 17L23 20L22 20L22 19L21 19L21 21L22 21L22 22L19 22L19 21L17 21L17 23L16 23L16 24L17 24L17 25L18 25L18 24L17 24L17 23L19 23L19 25L20 25L20 26L18 26L18 28L20 28L20 27L21 27L21 28L22 28L22 29L23 29L23 27L24 27L24 26L23 26L23 24L24 24L24 23L25 23L25 21L24 21L24 19L25 19L25 20L27 20L27 19L26 19L26 16L27 16L27 17L28 17L28 15L29 15L29 14L28 14L28 13L30 13L30 14L31 14L31 12L29 12L29 11L31 11L31 10L32 10L32 9ZM21 10L21 12L22 12L22 10ZM6 11L6 12L7 12L7 13L8 13L8 12L9 12L9 11L8 11L8 12L7 12L7 11ZM15 11L15 12L17 12L17 11ZM32 11L32 12L33 12L33 13L32 13L32 14L33 14L33 15L34 15L34 14L33 14L33 13L34 13L34 12L33 12L33 11ZM0 13L0 15L1 15L1 13ZM36 13L36 14L35 14L35 15L37 15L37 13ZM5 16L5 18L6 18L6 19L9 19L9 18L8 18L8 17L9 17L9 16L8 16L8 17L7 17L7 16ZM40 16L40 18L39 18L39 19L40 19L40 18L41 18L41 16ZM6 17L6 18L7 18L7 17ZM30 17L30 19L33 19L33 20L34 20L34 21L36 21L36 20L35 20L35 19L34 19L34 18L33 18L33 17L32 17L32 18L31 18L31 17ZM10 20L10 21L11 21L11 20ZM40 20L40 21L41 21L41 20ZM23 21L23 22L22 22L22 23L20 23L20 24L21 24L21 26L22 26L22 27L23 27L23 26L22 26L22 24L23 24L23 22L24 22L24 21ZM26 21L26 22L27 22L27 21ZM12 22L12 23L13 23L13 22ZM35 23L35 24L36 24L36 23ZM25 26L25 27L27 27L27 29L26 29L26 30L29 30L29 31L28 31L28 33L31 33L31 32L29 32L29 31L31 31L31 29L30 29L30 28L29 28L29 27L28 27L28 26ZM12 27L12 28L13 28L13 27ZM31 27L31 28L32 28L32 29L33 29L33 30L32 30L32 31L33 31L33 30L34 30L34 31L35 31L35 30L34 30L34 29L33 29L33 28L32 28L32 27ZM28 28L28 29L29 29L29 30L30 30L30 29L29 29L29 28ZM0 29L0 33L1 33L1 29ZM17 29L17 30L18 30L18 29ZM2 30L2 31L4 31L4 30ZM33 33L33 36L36 36L36 33ZM37 33L37 36L39 36L39 34L38 34L38 33ZM12 34L12 36L13 36L13 34ZM26 34L26 36L27 36L27 37L29 37L29 36L27 36L27 35L28 35L28 34ZM34 34L34 35L35 35L35 34ZM30 36L30 37L31 37L31 36ZM37 37L37 38L38 38L38 37ZM27 38L27 39L28 39L28 38ZM10 39L10 40L11 40L11 39ZM0 0L0 7L7 7L7 0ZM1 1L1 6L6 6L6 1ZM2 2L2 5L5 5L5 2ZM34 0L34 7L41 7L41 0ZM35 1L35 6L40 6L40 1ZM36 2L36 5L39 5L39 2ZM0 34L0 41L7 41L7 34ZM1 35L1 40L6 40L6 35ZM2 36L2 39L5 39L5 36Z" fill="#000000"/></g></g></svg>
