<?xml version="1.0" encoding="UTF-8"?>
<svg xmlns="http://www.w3.org/2000/svg" version="1.1" width="200" height="200" viewBox="0 0 200 200"><rect x="0" y="0" width="200" height="200" fill="#ffffff"/><g transform="scale(4.878)"><g transform="translate(0,0)"><path fill-rule="evenodd" d="M8 0L8 3L9 3L9 5L8 5L8 10L5 10L5 8L2 8L2 9L1 9L1 10L0 10L0 12L2 12L2 13L1 13L1 16L2 16L2 19L1 19L1 18L0 18L0 20L1 20L1 21L2 21L2 22L1 22L1 24L2 24L2 22L3 22L3 24L4 24L4 25L3 25L3 26L2 26L2 25L1 25L1 26L0 26L0 33L1 33L1 28L3 28L3 30L2 30L2 31L3 31L3 32L4 32L4 33L5 33L5 32L4 32L4 30L5 30L5 31L7 31L7 30L8 30L8 29L9 29L9 28L10 28L10 29L11 29L11 32L10 32L10 33L8 33L8 32L9 32L9 31L10 31L10 30L9 30L9 31L8 31L8 32L6 32L6 33L8 33L8 34L10 34L10 33L11 33L11 34L14 34L14 35L13 35L13 36L10 36L10 37L9 37L9 36L8 36L8 39L9 39L9 38L11 38L11 37L12 37L12 38L14 38L14 39L15 39L15 38L16 38L16 39L18 39L18 41L19 41L19 40L21 40L21 41L22 41L22 40L23 40L23 41L24 41L24 40L27 40L27 41L28 41L28 40L27 40L27 39L28 39L28 38L26 38L26 39L25 39L25 38L24 38L24 36L25 36L25 37L26 37L26 34L25 34L25 33L26 33L26 32L27 32L27 33L28 33L28 34L27 34L27 37L29 37L29 36L32 36L32 37L30 37L30 38L29 38L29 39L30 39L30 40L29 40L29 41L30 41L30 40L33 40L33 41L34 41L34 40L33 40L33 39L35 39L35 40L36 40L36 39L37 39L37 40L40 40L40 38L41 38L41 37L39 37L39 36L40 36L40 34L41 34L41 32L40 32L40 30L41 30L41 29L40 29L40 28L41 28L41 27L40 27L40 26L41 26L41 23L39 23L39 22L38 22L38 23L39 23L39 24L40 24L40 26L39 26L39 25L34 25L34 24L33 24L33 25L30 25L30 24L28 24L28 22L27 22L27 21L29 21L29 19L28 19L28 18L27 18L27 16L26 16L26 15L25 15L25 13L26 13L26 14L29 14L29 15L28 15L28 16L29 16L29 17L31 17L31 18L30 18L30 19L31 19L31 18L32 18L32 21L31 21L31 20L30 20L30 21L31 21L31 22L30 22L30 23L31 23L31 22L32 22L32 21L34 21L34 22L33 22L33 23L34 23L34 22L35 22L35 23L36 23L36 24L37 24L37 20L38 20L38 21L39 21L39 20L38 20L38 19L39 19L39 18L41 18L41 16L40 16L40 17L39 17L39 16L38 16L38 15L35 15L35 17L34 17L34 16L33 16L33 17L31 17L31 16L29 16L29 15L30 15L30 14L31 14L31 12L32 12L32 13L33 13L33 14L32 14L32 15L34 15L34 13L35 13L35 12L38 12L38 11L39 11L39 12L40 12L40 10L41 10L41 8L38 8L38 9L40 9L40 10L37 10L37 9L36 9L36 8L31 8L31 6L30 6L30 8L29 8L29 6L28 6L28 5L27 5L27 4L25 4L25 2L24 2L24 5L22 5L22 7L23 7L23 8L22 8L22 9L23 9L23 8L25 8L25 6L26 6L26 7L27 7L27 9L28 9L28 10L27 10L27 11L28 11L28 12L27 12L27 13L26 13L26 11L25 11L25 10L22 10L22 11L21 11L21 10L19 10L19 6L20 6L20 7L21 7L21 4L23 4L23 2L22 2L22 1L21 1L21 0L17 0L17 1L15 1L15 0L10 0L10 1L9 1L9 0ZM26 0L26 1L27 1L27 2L26 2L26 3L28 3L28 4L29 4L29 3L31 3L31 2L30 2L30 0L29 0L29 1L27 1L27 0ZM31 0L31 1L32 1L32 0ZM11 1L11 2L12 2L12 3L10 3L10 2L9 2L9 3L10 3L10 4L11 4L11 9L9 9L9 10L10 10L10 11L9 11L9 12L10 12L10 13L5 13L5 12L8 12L8 11L5 11L5 10L4 10L4 9L3 9L3 10L1 10L1 11L2 11L2 12L3 12L3 15L2 15L2 16L4 16L4 17L3 17L3 19L2 19L2 20L3 20L3 19L4 19L4 21L3 21L3 22L5 22L5 23L4 23L4 24L7 24L7 25L5 25L5 26L4 26L4 27L6 27L6 28L5 28L5 30L7 30L7 29L8 29L8 28L7 28L7 27L8 27L8 26L7 26L7 25L9 25L9 23L10 23L10 24L12 24L12 25L11 25L11 26L10 26L10 28L13 28L13 29L12 29L12 33L13 33L13 31L14 31L14 33L15 33L15 31L14 31L14 30L13 30L13 29L17 29L17 28L20 28L20 29L19 29L19 30L18 30L18 32L19 32L19 33L17 33L17 32L16 32L16 33L17 33L17 34L16 34L16 35L15 35L15 37L16 37L16 38L18 38L18 39L21 39L21 40L22 40L22 39L23 39L23 40L24 40L24 38L21 38L21 37L23 37L23 34L24 34L24 33L23 33L23 34L22 34L22 36L21 36L21 35L18 35L18 34L19 34L19 33L20 33L20 34L21 34L21 33L22 33L22 32L19 32L19 31L21 31L21 30L23 30L23 31L24 31L24 32L26 32L26 31L27 31L27 29L26 29L26 28L27 28L27 26L29 26L29 28L30 28L30 29L28 29L28 30L29 30L29 31L28 31L28 33L29 33L29 32L30 32L30 33L31 33L31 34L30 34L30 35L31 35L31 34L32 34L32 33L31 33L31 32L30 32L30 31L31 31L31 30L32 30L32 31L33 31L33 32L36 32L36 31L37 31L37 32L39 32L39 31L37 31L37 30L39 30L39 28L40 28L40 27L39 27L39 26L38 26L38 28L36 28L36 26L34 26L34 25L33 25L33 26L34 26L34 27L32 27L32 26L29 26L29 25L27 25L27 24L25 24L25 23L26 23L26 22L25 22L25 21L24 21L24 22L23 22L23 23L21 23L21 22L22 22L22 21L23 21L23 19L25 19L25 20L26 20L26 21L27 21L27 20L28 20L28 19L27 19L27 18L26 18L26 17L25 17L25 18L23 18L23 14L22 14L22 15L21 15L21 14L20 14L20 13L22 13L22 12L25 12L25 11L22 11L22 12L21 12L21 11L20 11L20 13L19 13L19 16L18 16L18 12L16 12L16 11L14 11L14 10L13 10L13 9L14 9L14 8L15 8L15 10L17 10L17 11L19 11L19 10L18 10L18 4L19 4L19 5L20 5L20 4L19 4L19 2L20 2L20 3L22 3L22 2L21 2L21 1L17 1L17 2L18 2L18 3L16 3L16 4L17 4L17 5L16 5L16 6L15 6L15 7L14 7L14 5L13 5L13 4L12 4L12 3L13 3L13 1ZM14 1L14 4L15 4L15 1ZM32 2L32 3L33 3L33 2ZM30 4L30 5L32 5L32 7L33 7L33 4ZM9 5L9 8L10 8L10 5ZM24 5L24 6L23 6L23 7L24 7L24 6L25 6L25 5ZM12 6L12 9L11 9L11 10L12 10L12 11L13 11L13 10L12 10L12 9L13 9L13 6ZM16 6L16 7L15 7L15 8L16 8L16 7L17 7L17 6ZM27 6L27 7L28 7L28 6ZM6 8L6 9L7 9L7 8ZM20 8L20 9L21 9L21 8ZM28 8L28 9L29 9L29 10L30 10L30 9L31 9L31 8L30 8L30 9L29 9L29 8ZM32 9L32 10L31 10L31 11L29 11L29 12L28 12L28 13L29 13L29 14L30 14L30 13L29 13L29 12L31 12L31 11L32 11L32 12L33 12L33 13L34 13L34 12L33 12L33 11L34 11L34 10L33 10L33 9ZM3 10L3 12L5 12L5 11L4 11L4 10ZM35 10L35 11L36 11L36 10ZM11 12L11 15L12 15L12 17L11 17L11 16L10 16L10 15L9 15L9 14L6 14L6 15L7 15L7 16L6 16L6 17L7 17L7 16L10 16L10 17L8 17L8 18L5 18L5 17L4 17L4 18L5 18L5 19L9 19L9 20L10 20L10 21L11 21L11 22L10 22L10 23L11 23L11 22L12 22L12 24L13 24L13 25L14 25L14 24L15 24L15 26L13 26L13 28L16 28L16 27L17 27L17 26L18 26L18 27L20 27L20 26L21 26L21 28L22 28L22 25L23 25L23 27L24 27L24 28L25 28L25 27L26 27L26 25L25 25L25 24L24 24L24 25L23 25L23 24L21 24L21 25L20 25L20 24L18 24L18 25L17 25L17 26L16 26L16 24L15 24L15 23L13 23L13 21L11 21L11 19L14 19L14 16L13 16L13 15L14 15L14 14L15 14L15 13L16 13L16 14L17 14L17 13L16 13L16 12L14 12L14 13L12 13L12 12ZM4 13L4 15L5 15L5 13ZM36 13L36 14L38 14L38 13ZM40 13L40 14L39 14L39 15L40 15L40 14L41 14L41 13ZM12 14L12 15L13 15L13 14ZM16 15L16 16L15 16L15 17L16 17L16 18L15 18L15 21L16 21L16 23L20 23L20 22L21 22L21 21L20 21L20 20L22 20L22 19L23 19L23 18L22 18L22 17L20 17L20 16L19 16L19 19L17 19L17 17L18 17L18 16L17 16L17 15ZM24 15L24 16L25 16L25 15ZM36 16L36 17L35 17L35 19L34 19L34 18L33 18L33 20L34 20L34 21L35 21L35 22L36 22L36 21L35 21L35 19L36 19L36 20L37 20L37 18L39 18L39 17L38 17L38 16ZM10 17L10 18L9 18L9 19L10 19L10 18L11 18L11 17ZM12 17L12 18L13 18L13 17ZM36 17L36 18L37 18L37 17ZM20 18L20 19L21 19L21 18ZM25 18L25 19L26 19L26 18ZM5 20L5 21L7 21L7 20ZM16 20L16 21L17 21L17 22L20 22L20 21L19 21L19 20L18 20L18 21L17 21L17 20ZM40 20L40 21L41 21L41 20ZM8 21L8 22L9 22L9 21ZM6 22L6 23L7 23L7 24L8 24L8 23L7 23L7 22ZM24 22L24 23L25 23L25 22ZM1 26L1 27L2 27L2 26ZM6 26L6 27L7 27L7 26ZM15 26L15 27L16 27L16 26ZM31 27L31 28L32 28L32 27ZM6 28L6 29L7 29L7 28ZM33 28L33 29L32 29L32 30L33 30L33 29L34 29L34 28ZM35 28L35 29L36 29L36 30L34 30L34 31L36 31L36 30L37 30L37 29L36 29L36 28ZM20 29L20 30L21 30L21 29ZM24 29L24 31L25 31L25 30L26 30L26 29ZM30 29L30 30L31 30L31 29ZM16 30L16 31L17 31L17 30ZM33 33L33 36L36 36L36 33ZM37 33L37 34L39 34L39 33ZM34 34L34 35L35 35L35 34ZM16 35L16 36L17 36L17 35ZM28 35L28 36L29 36L29 35ZM37 35L37 36L39 36L39 35ZM18 36L18 37L19 37L19 38L20 38L20 36ZM33 37L33 38L32 38L32 39L33 39L33 38L36 38L36 37ZM37 38L37 39L38 39L38 38ZM11 39L11 40L13 40L13 39ZM9 40L9 41L10 41L10 40ZM14 40L14 41L15 41L15 40ZM0 0L0 7L7 7L7 0ZM1 1L1 6L6 6L6 1ZM2 2L2 5L5 5L5 2ZM34 0L34 7L41 7L41 0ZM35 1L35 6L40 6L40 1ZM36 2L36 5L39 5L39 2ZM0 34L0 41L7 41L7 34ZM1 35L1 40L6 40L6 35ZM2 36L2 39L5 39L5 36Z" fill="#000000"/></g></g></svg>
