<?xml version="1.0" encoding="UTF-8"?>
<svg xmlns="http://www.w3.org/2000/svg" version="1.1" width="200" height="200" viewBox="0 0 200 200"><rect x="0" y="0" width="200" height="200" fill="#ffffff"/><g transform="scale(6.897)"><g transform="translate(0,0)"><path fill-rule="evenodd" d="M9 0L9 1L8 1L8 7L9 7L9 5L10 5L10 7L11 7L11 6L12 6L12 7L13 7L13 8L11 8L11 9L10 9L10 10L9 10L9 8L5 8L5 10L4 10L4 9L3 9L3 8L2 8L2 9L1 9L1 10L0 10L0 11L1 11L1 10L2 10L2 9L3 9L3 10L4 10L4 11L5 11L5 12L3 12L3 11L2 11L2 12L1 12L1 13L2 13L2 12L3 12L3 14L1 14L1 15L0 15L0 16L1 16L1 17L2 17L2 18L0 18L0 19L3 19L3 20L0 20L0 21L5 21L5 20L4 20L4 19L9 19L9 20L6 20L6 21L8 21L8 24L10 24L10 28L9 28L9 29L11 29L11 27L12 27L12 28L13 28L13 27L14 27L14 26L11 26L11 24L10 24L10 21L9 21L9 20L10 20L10 19L11 19L11 22L13 22L13 21L12 21L12 19L14 19L14 18L13 18L13 17L12 17L12 19L11 19L11 16L13 16L13 15L12 15L12 14L13 14L13 12L11 12L11 13L10 13L10 14L9 14L9 15L11 15L11 16L8 16L8 15L7 15L7 14L8 14L8 13L7 13L7 12L6 12L6 11L7 11L7 10L9 10L9 12L10 12L10 10L11 10L11 11L12 11L12 10L13 10L13 11L14 11L14 13L15 13L15 11L16 11L16 14L14 14L14 15L16 15L16 16L18 16L18 17L20 17L20 16L18 16L18 15L16 15L16 14L17 14L17 11L16 11L16 9L15 9L15 8L14 8L14 7L15 7L15 6L16 6L16 7L17 7L17 10L18 10L18 7L19 7L19 8L20 8L20 11L19 11L19 12L18 12L18 13L19 13L19 12L20 12L20 13L21 13L21 12L22 12L22 14L19 14L19 15L21 15L21 19L22 19L22 20L19 20L19 19L20 19L20 18L19 18L19 19L18 19L18 20L19 20L19 21L20 21L20 22L19 22L19 23L20 23L20 24L19 24L19 26L20 26L20 27L21 27L21 29L22 29L22 28L24 28L24 29L25 29L25 28L24 28L24 26L23 26L23 27L22 27L22 26L21 26L21 25L25 25L25 27L26 27L26 28L27 28L27 29L29 29L29 26L27 26L27 25L29 25L29 23L28 23L28 22L27 22L27 24L26 24L26 25L25 25L25 23L26 23L26 21L27 21L27 20L25 20L25 18L28 18L28 19L29 19L29 18L28 18L28 17L29 17L29 16L27 16L27 17L25 17L25 16L22 16L22 15L25 15L25 14L26 14L26 13L29 13L29 12L27 12L27 11L29 11L29 9L28 9L28 8L23 8L23 10L22 10L22 11L21 11L21 9L22 9L22 8L20 8L20 7L21 7L21 0L19 0L19 1L20 1L20 2L19 2L19 3L20 3L20 5L16 5L16 4L17 4L17 3L18 3L18 2L17 2L17 1L18 1L18 0L14 0L14 1L15 1L15 2L13 2L13 3L12 3L12 1L13 1L13 0ZM9 1L9 4L10 4L10 5L12 5L12 6L13 6L13 7L14 7L14 6L13 6L13 5L12 5L12 3L11 3L11 4L10 4L10 2L11 2L11 1ZM17 6L17 7L18 7L18 6ZM19 6L19 7L20 7L20 6ZM13 8L13 10L15 10L15 9L14 9L14 8ZM6 9L6 10L7 10L7 9ZM11 9L11 10L12 10L12 9ZM27 9L27 10L24 10L24 11L27 11L27 10L28 10L28 9ZM5 12L5 13L4 13L4 14L5 14L5 16L4 16L4 17L5 17L5 18L8 18L8 16L7 16L7 15L6 15L6 14L7 14L7 13L6 13L6 12ZM23 12L23 14L25 14L25 13L24 13L24 12ZM27 14L27 15L29 15L29 14ZM1 15L1 16L2 16L2 17L3 17L3 15ZM6 16L6 17L7 17L7 16ZM14 16L14 17L15 17L15 19L17 19L17 18L16 18L16 17L15 17L15 16ZM9 17L9 19L10 19L10 17ZM22 17L22 18L25 18L25 17ZM23 19L23 20L24 20L24 19ZM14 20L14 23L15 23L15 22L17 22L17 23L16 23L16 24L15 24L15 25L16 25L16 26L18 26L18 24L17 24L17 23L18 23L18 22L17 22L17 21L16 21L16 20ZM21 21L21 24L24 24L24 21ZM22 22L22 23L23 23L23 22ZM12 23L12 25L14 25L14 24L13 24L13 23ZM8 26L8 27L9 27L9 26ZM16 27L16 28L15 28L15 29L16 29L16 28L17 28L17 27ZM27 27L27 28L28 28L28 27ZM18 28L18 29L19 29L19 28ZM0 0L0 7L7 7L7 0ZM1 1L1 6L6 6L6 1ZM2 2L2 5L5 5L5 2ZM22 0L22 7L29 7L29 0ZM23 1L23 6L28 6L28 1ZM24 2L24 5L27 5L27 2ZM0 22L0 29L7 29L7 22ZM1 23L1 28L6 28L6 23ZM2 24L2 27L5 27L5 24Z" fill="#000000"/></g></g></svg>
