<?xml version="1.0" encoding="UTF-8"?>
<svg xmlns="http://www.w3.org/2000/svg" version="1.1" width="200" height="200" viewBox="0 0 200 200"><rect x="0" y="0" width="200" height="200" fill="#ffffff"/><g transform="scale(4.878)"><g transform="translate(0,0)"><path fill-rule="evenodd" d="M8 0L8 3L9 3L9 1L11 1L11 4L9 4L9 5L8 5L8 9L7 9L7 8L6 8L6 9L5 9L5 8L2 8L2 9L0 9L0 10L2 10L2 11L3 11L3 12L2 12L2 14L4 14L4 15L5 15L5 14L6 14L6 15L8 15L8 16L9 16L9 15L10 15L10 18L11 18L11 19L7 19L7 18L9 18L9 17L7 17L7 16L6 16L6 17L5 17L5 18L3 18L3 17L1 17L1 14L0 14L0 17L1 17L1 19L2 19L2 20L3 20L3 22L2 22L2 21L1 21L1 22L0 22L0 23L4 23L4 22L5 22L5 23L7 23L7 24L5 24L5 26L4 26L4 27L3 27L3 28L2 28L2 27L1 27L1 26L0 26L0 27L1 27L1 28L2 28L2 29L3 29L3 28L6 28L6 29L7 29L7 30L5 30L5 29L4 29L4 31L3 31L3 30L2 30L2 31L3 31L3 33L4 33L4 32L5 32L5 31L7 31L7 32L6 32L6 33L7 33L7 32L9 32L9 33L8 33L8 34L9 34L9 33L10 33L10 34L11 34L11 35L10 35L10 37L9 37L9 36L8 36L8 39L9 39L9 41L12 41L12 40L13 40L13 41L16 41L16 37L20 37L20 38L18 38L18 39L17 39L17 40L18 40L18 41L19 41L19 40L20 40L20 41L25 41L25 38L27 38L27 40L28 40L28 41L31 41L31 40L33 40L33 41L34 41L34 40L33 40L33 39L32 39L32 38L34 38L34 39L35 39L35 40L36 40L36 39L37 39L37 36L38 36L38 37L39 37L39 38L38 38L38 39L39 39L39 40L40 40L40 38L41 38L41 37L39 37L39 36L41 36L41 35L40 35L40 34L41 34L41 33L40 33L40 32L41 32L41 31L40 31L40 30L41 30L41 29L39 29L39 30L38 30L38 29L36 29L36 28L38 28L38 26L39 26L39 28L40 28L40 26L41 26L41 23L40 23L40 26L39 26L39 24L37 24L37 25L36 25L36 23L34 23L34 22L36 22L36 21L37 21L37 22L38 22L38 21L39 21L39 20L36 20L36 19L35 19L35 17L36 17L36 18L37 18L37 17L39 17L39 16L37 16L37 15L36 15L36 16L35 16L35 17L34 17L34 16L33 16L33 15L34 15L34 14L33 14L33 13L34 13L34 12L33 12L33 13L32 13L32 12L31 12L31 11L30 11L30 10L33 10L33 11L34 11L34 10L35 10L35 9L36 9L36 12L38 12L38 11L40 11L40 12L39 12L39 14L41 14L41 13L40 13L40 12L41 12L41 11L40 11L40 10L41 10L41 8L38 8L38 9L40 9L40 10L37 10L37 9L36 9L36 8L33 8L33 4L31 4L31 3L33 3L33 0L30 0L30 2L31 2L31 3L30 3L30 4L31 4L31 5L32 5L32 8L33 8L33 9L30 9L30 8L29 8L29 9L28 9L28 7L29 7L29 5L26 5L26 7L27 7L27 8L25 8L25 5L24 5L24 4L25 4L25 3L26 3L26 4L27 4L27 3L28 3L28 4L29 4L29 1L27 1L27 0L25 0L25 3L24 3L24 4L22 4L22 3L21 3L21 2L23 2L23 1L24 1L24 0L21 0L21 1L20 1L20 2L19 2L19 1L18 1L18 2L17 2L17 0L16 0L16 2L14 2L14 1L13 1L13 0L12 0L12 1L11 1L11 0ZM12 1L12 3L13 3L13 1ZM31 1L31 2L32 2L32 1ZM26 2L26 3L27 3L27 2ZM16 3L16 4L17 4L17 5L18 5L18 6L17 6L17 7L16 7L16 5L15 5L15 4L14 4L14 5L13 5L13 4L11 4L11 5L13 5L13 7L14 7L14 5L15 5L15 7L16 7L16 8L15 8L15 9L16 9L16 11L17 11L17 10L20 10L20 11L21 11L21 12L22 12L22 11L23 11L23 10L24 10L24 9L25 9L25 11L24 11L24 12L25 12L25 14L23 14L23 13L20 13L20 12L19 12L19 11L18 11L18 12L14 12L14 11L15 11L15 10L13 10L13 9L12 9L12 8L11 8L11 7L12 7L12 6L11 6L11 7L10 7L10 6L9 6L9 7L10 7L10 8L9 8L9 9L8 9L8 11L6 11L6 12L5 12L5 11L4 11L4 9L3 9L3 11L4 11L4 12L5 12L5 13L4 13L4 14L5 14L5 13L6 13L6 14L8 14L8 15L9 15L9 14L8 14L8 13L9 13L9 12L10 12L10 13L13 13L13 12L14 12L14 13L15 13L15 14L16 14L16 13L17 13L17 15L16 15L16 16L17 16L17 17L11 17L11 18L13 18L13 19L12 19L12 20L7 20L7 19L6 19L6 18L7 18L7 17L6 17L6 18L5 18L5 20L4 20L4 19L3 19L3 20L4 20L4 21L5 21L5 22L7 22L7 21L8 21L8 22L9 22L9 23L8 23L8 26L9 26L9 27L8 27L8 29L9 29L9 27L11 27L11 28L12 28L12 29L11 29L11 30L9 30L9 31L11 31L11 30L13 30L13 28L15 28L15 27L16 27L16 28L17 28L17 27L18 27L18 28L19 28L19 29L17 29L17 31L16 31L16 30L15 30L15 29L14 29L14 30L15 30L15 31L13 31L13 32L12 32L12 33L11 33L11 32L10 32L10 33L11 33L11 34L12 34L12 36L13 36L13 37L14 37L14 35L15 35L15 36L16 36L16 34L17 34L17 33L18 33L18 36L20 36L20 37L22 37L22 39L21 39L21 38L20 38L20 39L21 39L21 40L24 40L24 37L25 37L25 36L28 36L28 37L27 37L27 38L28 38L28 40L30 40L30 39L29 39L29 38L32 38L32 36L31 36L31 35L30 35L30 34L32 34L32 32L36 32L36 31L37 31L37 32L39 32L39 31L38 31L38 30L36 30L36 29L34 29L34 28L33 28L33 27L34 27L34 26L33 26L33 25L35 25L35 28L36 28L36 27L37 27L37 26L36 26L36 25L35 25L35 24L34 24L34 23L33 23L33 22L34 22L34 21L36 21L36 20L35 20L35 19L34 19L34 18L33 18L33 17L32 17L32 18L31 18L31 17L30 17L30 19L31 19L31 20L29 20L29 19L28 19L28 21L26 21L26 19L27 19L27 18L29 18L29 16L31 16L31 15L30 15L30 13L28 13L28 14L29 14L29 15L28 15L28 17L27 17L27 16L26 16L26 18L25 18L25 19L22 19L22 18L23 18L23 17L22 17L22 16L25 16L25 14L26 14L26 15L27 15L27 11L26 11L26 9L25 9L25 8L24 8L24 9L23 9L23 10L22 10L22 8L23 8L23 7L24 7L24 6L23 6L23 5L22 5L22 4L21 4L21 3L18 3L18 4L17 4L17 3ZM21 5L21 6L20 6L20 7L19 7L19 6L18 6L18 7L17 7L17 8L16 8L16 9L17 9L17 8L18 8L18 9L20 9L20 8L21 8L21 6L22 6L22 7L23 7L23 6L22 6L22 5ZM27 6L27 7L28 7L28 6ZM30 6L30 7L31 7L31 6ZM18 7L18 8L19 8L19 7ZM6 9L6 10L7 10L7 9ZM27 9L27 10L28 10L28 11L29 11L29 12L30 12L30 11L29 11L29 10L30 10L30 9L29 9L29 10L28 10L28 9ZM33 9L33 10L34 10L34 9ZM9 10L9 11L8 11L8 12L9 12L9 11L10 11L10 12L13 12L13 10L12 10L12 11L11 11L11 10ZM6 12L6 13L7 13L7 12ZM18 13L18 14L20 14L20 13ZM31 13L31 14L32 14L32 15L33 15L33 14L32 14L32 13ZM36 13L36 14L37 14L37 13ZM11 14L11 15L12 15L12 14ZM13 14L13 16L15 16L15 15L14 15L14 14ZM17 15L17 16L18 16L18 17L19 17L19 18L17 18L17 19L16 19L16 18L14 18L14 19L16 19L16 21L15 21L15 20L14 20L14 22L13 22L13 23L14 23L14 24L13 24L13 25L12 25L12 23L10 23L10 26L12 26L12 28L13 28L13 26L14 26L14 27L15 27L15 26L14 26L14 24L15 24L15 25L16 25L16 27L17 27L17 25L18 25L18 27L19 27L19 28L20 28L20 26L21 26L21 25L20 25L20 26L19 26L19 25L18 25L18 24L20 24L20 23L22 23L22 24L23 24L23 23L24 23L24 27L23 27L23 25L22 25L22 27L23 27L23 28L21 28L21 29L20 29L20 30L22 30L22 31L21 31L21 34L22 34L22 35L23 35L23 36L24 36L24 35L25 35L25 34L24 34L24 33L26 33L26 34L27 34L27 35L29 35L29 33L31 33L31 32L29 32L29 31L28 31L28 32L29 32L29 33L28 33L28 34L27 34L27 30L29 30L29 29L31 29L31 28L29 28L29 27L28 27L28 26L30 26L30 25L31 25L31 26L32 26L32 27L33 27L33 26L32 26L32 25L33 25L33 24L32 24L32 25L31 25L31 23L30 23L30 24L29 24L29 25L28 25L28 24L27 24L27 23L28 23L28 22L29 22L29 21L28 21L28 22L27 22L27 23L26 23L26 22L25 22L25 21L24 21L24 20L23 20L23 21L24 21L24 22L23 22L23 23L22 23L22 22L21 22L21 20L20 20L20 21L19 21L19 23L15 23L15 22L16 22L16 21L17 21L17 22L18 22L18 21L17 21L17 19L18 19L18 20L19 20L19 18L20 18L20 19L21 19L21 17L20 17L20 15ZM36 16L36 17L37 17L37 16ZM40 16L40 18L38 18L38 19L40 19L40 18L41 18L41 16ZM32 18L32 19L33 19L33 18ZM5 20L5 21L7 21L7 20ZM32 20L32 21L30 21L30 22L32 22L32 21L34 21L34 20ZM40 20L40 21L41 21L41 20ZM10 21L10 22L12 22L12 21ZM24 22L24 23L25 23L25 22ZM1 24L1 25L2 25L2 26L3 26L3 25L2 25L2 24ZM16 24L16 25L17 25L17 24ZM25 24L25 25L26 25L26 30L27 30L27 28L28 28L28 29L29 29L29 28L28 28L28 27L27 27L27 26L28 26L28 25L26 25L26 24ZM6 25L6 26L5 26L5 27L6 27L6 28L7 28L7 27L6 27L6 26L7 26L7 25ZM23 28L23 30L24 30L24 31L25 31L25 32L26 32L26 31L25 31L25 30L24 30L24 28ZM32 28L32 29L33 29L33 30L32 30L32 31L33 31L33 30L34 30L34 31L35 31L35 30L34 30L34 29L33 29L33 28ZM0 29L0 33L1 33L1 29ZM7 30L7 31L8 31L8 30ZM15 31L15 32L16 32L16 33L17 33L17 32L16 32L16 31ZM22 31L22 32L23 32L23 33L24 33L24 32L23 32L23 31ZM13 32L13 33L12 33L12 34L13 34L13 33L14 33L14 34L15 34L15 33L14 33L14 32ZM18 32L18 33L19 33L19 35L20 35L20 32ZM33 33L33 36L36 36L36 33ZM38 33L38 34L37 34L37 35L38 35L38 36L39 36L39 35L38 35L38 34L39 34L39 33ZM34 34L34 35L35 35L35 34ZM30 36L30 37L31 37L31 36ZM10 37L10 38L11 38L11 37ZM28 37L28 38L29 38L29 37ZM34 37L34 38L36 38L36 37ZM14 38L14 40L15 40L15 38ZM10 39L10 40L12 40L12 39ZM18 39L18 40L19 40L19 39ZM0 0L0 7L7 7L7 0ZM1 1L1 6L6 6L6 1ZM2 2L2 5L5 5L5 2ZM34 0L34 7L41 7L41 0ZM35 1L35 6L40 6L40 1ZM36 2L36 5L39 5L39 2ZM0 34L0 41L7 41L7 34ZM1 35L1 40L6 40L6 35ZM2 36L2 39L5 39L5 36Z" fill="#000000"/></g></g></svg>
