<?xml version="1.0" encoding="UTF-8"?>
<svg xmlns="http://www.w3.org/2000/svg" version="1.1" width="200" height="200" viewBox="0 0 200 200"><rect x="0" y="0" width="200" height="200" fill="#ffffff"/><g transform="scale(4.878)"><g transform="translate(0,0)"><path fill-rule="evenodd" d="M10 0L10 1L8 1L8 2L9 2L9 5L8 5L8 8L4 8L4 9L5 9L5 10L6 10L6 11L5 11L5 14L4 14L4 15L5 15L5 16L6 16L6 17L4 17L4 16L3 16L3 17L2 17L2 18L0 18L0 19L2 19L2 20L0 20L0 21L1 21L1 22L0 22L0 23L2 23L2 21L3 21L3 19L4 19L4 22L3 22L3 25L0 25L0 26L2 26L2 27L0 27L0 28L3 28L3 26L4 26L4 29L3 29L3 30L4 30L4 31L3 31L3 32L0 32L0 33L4 33L4 31L5 31L5 30L4 30L4 29L7 29L7 30L6 30L6 31L7 31L7 30L8 30L8 31L9 31L9 32L5 32L5 33L8 33L8 37L10 37L10 38L9 38L9 41L10 41L10 39L11 39L11 38L12 38L12 41L14 41L14 40L15 40L15 39L16 39L16 41L18 41L18 39L17 39L17 38L18 38L18 35L19 35L19 34L20 34L20 35L21 35L21 36L20 36L20 38L19 38L19 40L20 40L20 41L25 41L25 40L24 40L24 39L26 39L26 40L27 40L27 39L28 39L28 41L33 41L33 39L31 39L31 37L36 37L36 38L37 38L37 35L38 35L38 34L39 34L39 35L41 35L41 29L40 29L40 30L39 30L39 28L38 28L38 26L37 26L37 25L39 25L39 27L40 27L40 28L41 28L41 24L40 24L40 23L41 23L41 22L40 22L40 21L41 21L41 9L40 9L40 8L39 8L39 9L36 9L36 8L34 8L34 9L32 9L32 8L33 8L33 6L32 6L32 5L31 5L31 3L33 3L33 1L31 1L31 0L29 0L29 1L28 1L28 0L27 0L27 1L26 1L26 0L24 0L24 1L25 1L25 2L26 2L26 3L28 3L28 2L30 2L30 1L31 1L31 3L29 3L29 4L30 4L30 7L29 7L29 6L28 6L28 9L26 9L26 10L24 10L24 11L25 11L25 12L23 12L23 11L21 11L21 12L20 12L20 10L19 10L19 11L18 11L18 10L17 10L17 9L18 9L18 8L19 8L19 6L20 6L20 9L22 9L22 7L23 7L23 9L25 9L25 8L24 8L24 7L25 7L25 6L24 6L24 5L26 5L26 7L27 7L27 5L28 5L28 4L27 4L27 5L26 5L26 4L22 4L22 3L23 3L23 2L22 2L22 3L21 3L21 2L20 2L20 3L18 3L18 2L17 2L17 0ZM19 0L19 1L20 1L20 0ZM22 0L22 1L23 1L23 0ZM12 1L12 2L10 2L10 4L14 4L14 6L13 6L13 5L12 5L12 6L11 6L11 7L12 7L12 6L13 6L13 7L14 7L14 6L15 6L15 8L16 8L16 9L15 9L15 11L12 11L12 12L11 12L11 11L10 11L10 10L9 10L9 11L8 11L8 10L7 10L7 9L6 9L6 10L7 10L7 11L6 11L6 12L9 12L9 13L6 13L6 14L7 14L7 15L6 15L6 16L7 16L7 15L8 15L8 14L10 14L10 16L12 16L12 15L11 15L11 14L10 14L10 13L13 13L13 14L14 14L14 15L13 15L13 17L11 17L11 18L10 18L10 19L12 19L12 18L13 18L13 19L16 19L16 20L17 20L17 19L18 19L18 22L19 22L19 18L20 18L20 19L21 19L21 21L20 21L20 23L17 23L17 22L16 22L16 21L13 21L13 20L12 20L12 22L14 22L14 23L15 23L15 24L13 24L13 26L12 26L12 28L13 28L13 26L14 26L14 27L16 27L16 28L14 28L14 29L13 29L13 30L12 30L12 29L11 29L11 28L10 28L10 27L11 27L11 26L10 26L10 25L12 25L12 24L11 24L11 22L10 22L10 23L9 23L9 21L11 21L11 20L9 20L9 19L6 19L6 18L9 18L9 17L6 17L6 18L5 18L5 21L6 21L6 22L7 22L7 23L5 23L5 22L4 22L4 23L5 23L5 24L4 24L4 25L6 25L6 26L7 26L7 27L6 27L6 28L8 28L8 26L9 26L9 28L10 28L10 29L11 29L11 30L10 30L10 31L11 31L11 30L12 30L12 31L13 31L13 30L14 30L14 29L15 29L15 31L14 31L14 32L13 32L13 33L12 33L12 34L11 34L11 32L9 32L9 36L10 36L10 37L12 37L12 38L17 38L17 37L14 37L14 36L15 36L15 35L16 35L16 36L17 36L17 34L19 34L19 32L18 32L18 33L17 33L17 34L16 34L16 33L15 33L15 31L17 31L17 30L18 30L18 31L19 31L19 29L20 29L20 31L21 31L21 28L22 28L22 27L24 27L24 26L25 26L25 29L26 29L26 28L27 28L27 30L28 30L28 31L30 31L30 32L31 32L31 33L30 33L30 34L29 34L29 33L28 33L28 32L26 32L26 31L25 31L25 30L24 30L24 28L23 28L23 29L22 29L22 32L21 32L21 33L20 33L20 34L21 34L21 35L22 35L22 36L21 36L21 37L22 37L22 40L23 40L23 39L24 39L24 38L25 38L25 37L22 37L22 36L23 36L23 35L24 35L24 36L25 36L25 35L24 35L24 34L25 34L25 32L26 32L26 33L28 33L28 35L29 35L29 36L28 36L28 37L29 37L29 38L30 38L30 37L31 37L31 36L32 36L32 35L30 35L30 34L32 34L32 32L31 32L31 30L30 30L30 29L31 29L31 28L33 28L33 29L32 29L32 31L33 31L33 32L34 32L34 31L36 31L36 32L37 32L37 30L36 30L36 29L37 29L37 27L36 27L36 29L35 29L35 28L34 28L34 27L33 27L33 26L34 26L34 25L35 25L35 26L36 26L36 25L37 25L37 24L39 24L39 23L40 23L40 22L39 22L39 23L38 23L38 21L39 21L39 20L40 20L40 17L39 17L39 16L40 16L40 15L38 15L38 17L39 17L39 19L38 19L38 18L37 18L37 19L38 19L38 21L37 21L37 22L36 22L36 21L35 21L35 20L36 20L36 19L35 19L35 18L36 18L36 17L37 17L37 16L36 16L36 17L35 17L35 16L34 16L34 15L32 15L32 14L30 14L30 13L29 13L29 11L34 11L34 12L35 12L35 13L33 13L33 12L32 12L32 13L33 13L33 14L36 14L36 15L37 15L37 14L36 14L36 13L37 13L37 10L36 10L36 9L35 9L35 10L32 10L32 9L28 9L28 12L27 12L27 10L26 10L26 12L25 12L25 13L23 13L23 15L22 15L22 13L20 13L20 14L18 14L18 13L19 13L19 12L16 12L16 11L17 11L17 10L16 10L16 9L17 9L17 7L18 7L18 6L19 6L19 5L21 5L21 4L19 4L19 5L18 5L18 4L17 4L17 5L18 5L18 6L17 6L17 7L16 7L16 5L15 5L15 3L16 3L16 2L15 2L15 3L14 3L14 1ZM27 1L27 2L28 2L28 1ZM22 5L22 6L21 6L21 7L22 7L22 6L23 6L23 7L24 7L24 6L23 6L23 5ZM9 6L9 8L8 8L8 9L12 9L12 10L14 10L14 8L10 8L10 6ZM31 6L31 7L32 7L32 6ZM2 9L2 11L3 11L3 12L4 12L4 11L3 11L3 9ZM35 10L35 12L36 12L36 10ZM9 11L9 12L10 12L10 11ZM38 11L38 12L39 12L39 13L40 13L40 11ZM1 12L1 16L0 16L0 17L1 17L1 16L2 16L2 15L3 15L3 13L2 13L2 12ZM13 12L13 13L14 13L14 14L15 14L15 17L13 17L13 18L18 18L18 17L20 17L20 16L18 16L18 14L17 14L17 13L16 13L16 14L15 14L15 12ZM26 12L26 14L27 14L27 12ZM28 13L28 15L29 15L29 17L30 17L30 18L29 18L29 19L28 19L28 16L27 16L27 15L25 15L25 16L24 16L24 15L23 15L23 16L24 16L24 18L25 18L25 17L27 17L27 19L26 19L26 22L27 22L27 23L26 23L26 27L27 27L27 28L28 28L28 29L30 29L30 28L31 28L31 25L34 25L34 23L35 23L35 25L36 25L36 23L35 23L35 21L32 21L32 19L30 19L30 18L31 18L31 17L32 17L32 18L33 18L33 17L32 17L32 16L31 16L31 15L30 15L30 14L29 14L29 13ZM20 14L20 15L21 15L21 16L22 16L22 15L21 15L21 14ZM30 16L30 17L31 17L31 16ZM3 17L3 18L4 18L4 17ZM22 17L22 19L23 19L23 20L24 20L24 19L23 19L23 17ZM34 17L34 18L35 18L35 17ZM34 19L34 20L35 20L35 19ZM6 20L6 21L7 21L7 22L8 22L8 21L7 21L7 20ZM29 20L29 21L28 21L28 24L27 24L27 25L28 25L28 27L29 27L29 25L28 25L28 24L29 24L29 23L30 23L30 25L31 25L31 23L32 23L32 24L33 24L33 23L34 23L34 22L32 22L32 21L30 21L30 20ZM21 21L21 22L22 22L22 24L21 24L21 23L20 23L20 24L19 24L19 25L17 25L17 23L16 23L16 27L17 27L17 28L16 28L16 30L17 30L17 29L18 29L18 27L19 27L19 28L21 28L21 27L22 27L22 26L24 26L24 24L25 24L25 21ZM8 23L8 25L9 25L9 23ZM6 24L6 25L7 25L7 24ZM20 24L20 25L19 25L19 26L20 26L20 25L21 25L21 24ZM0 29L0 30L1 30L1 29ZM33 29L33 30L34 30L34 29ZM38 30L38 33L37 33L37 34L38 34L38 33L39 33L39 34L40 34L40 32L39 32L39 30ZM24 31L24 32L25 32L25 31ZM22 32L22 33L23 33L23 34L24 34L24 33L23 33L23 32ZM13 33L13 34L12 34L12 35L10 35L10 36L12 36L12 37L13 37L13 36L14 36L14 35L13 35L13 34L14 34L14 33ZM33 33L33 36L36 36L36 33ZM34 34L34 35L35 35L35 34ZM12 35L12 36L13 36L13 35ZM26 35L26 37L27 37L27 35ZM39 36L39 37L40 37L40 38L38 38L38 39L36 39L36 40L37 40L37 41L40 41L40 40L41 40L41 37L40 37L40 36ZM20 38L20 40L21 40L21 38ZM13 39L13 40L14 40L14 39ZM30 39L30 40L31 40L31 39ZM34 39L34 40L35 40L35 39ZM0 0L0 7L7 7L7 0ZM1 1L1 6L6 6L6 1ZM2 2L2 5L5 5L5 2ZM34 0L34 7L41 7L41 0ZM35 1L35 6L40 6L40 1ZM36 2L36 5L39 5L39 2ZM0 34L0 41L7 41L7 34ZM1 35L1 40L6 40L6 35ZM2 36L2 39L5 39L5 36Z" fill="#000000"/></g></g></svg>
