<?xml version="1.0" encoding="UTF-8"?>
<svg xmlns="http://www.w3.org/2000/svg" version="1.1" width="200" height="200" viewBox="0 0 200 200"><rect x="0" y="0" width="200" height="200" fill="#ffffff"/><g transform="scale(4.878)"><g transform="translate(0,0)"><path fill-rule="evenodd" d="M8 0L8 3L9 3L9 5L8 5L8 9L7 9L7 8L6 8L6 9L5 9L5 8L2 8L2 9L1 9L1 11L0 11L0 13L1 13L1 14L0 14L0 16L1 16L1 15L2 15L2 16L3 16L3 17L8 17L8 18L6 18L6 19L4 19L4 18L3 18L3 19L2 19L2 17L0 17L0 18L1 18L1 19L0 19L0 23L1 23L1 24L2 24L2 22L1 22L1 20L2 20L2 21L3 21L3 28L2 28L2 29L0 29L0 33L1 33L1 30L3 30L3 31L4 31L4 30L6 30L6 31L8 31L8 30L10 30L10 29L9 29L9 27L10 27L10 28L11 28L11 31L9 31L9 32L12 32L12 28L13 28L13 33L8 33L8 32L6 32L6 33L8 33L8 34L9 34L9 35L10 35L10 34L12 34L12 35L11 35L11 36L10 36L10 37L11 37L11 39L13 39L13 40L12 40L12 41L15 41L15 40L16 40L16 39L13 39L13 38L14 38L14 37L15 37L15 38L16 38L16 37L17 37L17 39L20 39L20 41L21 41L21 40L22 40L22 39L23 39L23 41L27 41L27 40L28 40L28 38L27 38L27 37L29 37L29 36L31 36L31 35L32 35L32 38L33 38L33 39L30 39L30 38L31 38L31 37L30 37L30 38L29 38L29 39L30 39L30 40L29 40L29 41L30 41L30 40L33 40L33 41L34 41L34 40L33 40L33 39L35 39L35 40L36 40L36 39L37 39L37 40L40 40L40 38L41 38L41 36L37 36L37 32L38 32L38 33L39 33L39 34L38 34L38 35L40 35L40 34L41 34L41 33L39 33L39 32L40 32L40 30L41 30L41 29L40 29L40 28L41 28L41 27L40 27L40 26L41 26L41 23L39 23L39 24L40 24L40 26L39 26L39 25L36 25L36 24L37 24L37 22L38 22L38 21L39 21L39 20L38 20L38 19L37 19L37 20L36 20L36 19L35 19L35 17L36 17L36 18L38 18L38 17L39 17L39 16L37 16L37 15L40 15L40 14L41 14L41 13L40 13L40 14L37 14L37 13L36 13L36 14L35 14L35 15L36 15L36 16L35 16L35 17L34 17L34 16L32 16L32 17L31 17L31 12L32 12L32 13L33 13L33 14L32 14L32 15L34 15L34 13L35 13L35 9L36 9L36 12L38 12L38 11L40 11L40 10L41 10L41 8L38 8L38 9L40 9L40 10L37 10L37 9L36 9L36 8L32 8L32 7L33 7L33 6L32 6L32 7L31 7L31 5L32 5L32 4L33 4L33 3L32 3L32 4L28 4L28 5L27 5L27 4L26 4L26 5L23 5L23 4L22 4L22 3L21 3L21 2L23 2L23 1L24 1L24 2L25 2L25 1L24 1L24 0L21 0L21 1L20 1L20 2L19 2L19 0L17 0L17 1L16 1L16 2L17 2L17 1L18 1L18 3L17 3L17 4L16 4L16 3L15 3L15 0L14 0L14 2L13 2L13 1L12 1L12 0ZM26 0L26 1L27 1L27 2L26 2L26 3L31 3L31 2L30 2L30 0L29 0L29 1L27 1L27 0ZM31 0L31 1L32 1L32 0ZM9 1L9 2L10 2L10 1ZM12 2L12 4L10 4L10 6L9 6L9 8L10 8L10 9L11 9L11 11L14 11L14 12L15 12L15 13L13 13L13 14L12 14L12 12L10 12L10 10L9 10L9 9L8 9L8 12L9 12L9 13L8 13L8 14L7 14L7 13L5 13L5 14L7 14L7 15L4 15L4 12L3 12L3 11L4 11L4 10L5 10L5 11L6 11L6 12L7 12L7 11L6 11L6 10L7 10L7 9L6 9L6 10L5 10L5 9L3 9L3 10L2 10L2 11L1 11L1 13L2 13L2 14L3 14L3 15L4 15L4 16L10 16L10 15L11 15L11 16L12 16L12 18L11 18L11 17L9 17L9 18L10 18L10 19L8 19L8 20L9 20L9 22L12 22L12 23L11 23L11 24L10 24L10 23L8 23L8 24L10 24L10 25L9 25L9 26L8 26L8 25L5 25L5 24L4 24L4 25L5 25L5 26L4 26L4 29L3 29L3 30L4 30L4 29L5 29L5 27L6 27L6 28L7 28L7 27L6 27L6 26L8 26L8 27L9 27L9 26L11 26L11 28L12 28L12 26L13 26L13 28L14 28L14 30L15 30L15 29L17 29L17 30L18 30L18 31L20 31L20 33L19 33L19 34L18 34L18 35L19 35L19 36L18 36L18 38L19 38L19 36L20 36L20 35L19 35L19 34L22 34L22 37L21 37L21 39L22 39L22 38L23 38L23 39L24 39L24 40L25 40L25 39L26 39L26 40L27 40L27 38L26 38L26 37L25 37L25 39L24 39L24 38L23 38L23 33L21 33L21 30L23 30L23 31L22 31L22 32L25 32L25 33L24 33L24 34L25 34L25 35L24 35L24 36L26 36L26 35L27 35L27 36L29 36L29 35L27 35L27 34L29 34L29 33L27 33L27 32L25 32L25 31L24 31L24 30L26 30L26 31L27 31L27 30L26 30L26 29L27 29L27 28L31 28L31 29L28 29L28 30L29 30L29 31L28 31L28 32L30 32L30 33L31 33L31 32L30 32L30 30L32 30L32 31L33 31L33 32L36 32L36 31L34 31L34 30L35 30L35 29L37 29L37 31L38 31L38 32L39 32L39 30L38 30L38 29L39 29L39 26L38 26L38 28L37 28L37 27L35 27L35 26L36 26L36 25L35 25L35 24L36 24L36 23L35 23L35 22L36 22L36 21L35 21L35 19L34 19L34 18L33 18L33 17L32 17L32 18L31 18L31 17L29 17L29 16L30 16L30 15L29 15L29 14L30 14L30 13L29 13L29 12L30 12L30 11L29 11L29 10L30 10L30 9L32 9L32 10L31 10L31 11L34 11L34 9L32 9L32 8L31 8L31 7L30 7L30 5L28 5L28 6L27 6L27 7L28 7L28 6L29 6L29 8L30 8L30 9L27 9L27 10L26 10L26 11L25 11L25 9L26 9L26 8L24 8L24 6L23 6L23 5L22 5L22 6L21 6L21 5L19 5L19 4L21 4L21 3L18 3L18 5L16 5L16 4L15 4L15 5L14 5L14 4L13 4L13 2ZM11 5L11 6L10 6L10 8L11 8L11 9L13 9L13 10L14 10L14 9L13 9L13 8L12 8L12 7L13 7L13 6L14 6L14 7L15 7L15 9L18 9L18 10L16 10L16 11L15 11L15 12L18 12L18 10L19 10L19 9L20 9L20 10L21 10L21 11L19 11L19 15L18 15L18 13L15 13L15 15L13 15L13 16L14 16L14 17L15 17L15 18L13 18L13 20L14 20L14 22L13 22L13 24L12 24L12 25L13 25L13 24L14 24L14 25L15 25L15 26L14 26L14 28L15 28L15 26L16 26L16 27L17 27L17 26L18 26L18 27L19 27L19 26L18 26L18 25L16 25L16 24L17 24L17 23L18 23L18 24L19 24L19 25L20 25L20 27L21 27L21 28L20 28L20 29L19 29L19 28L17 28L17 29L19 29L19 30L20 30L20 29L21 29L21 28L23 28L23 26L25 26L25 27L26 27L26 28L27 28L27 27L28 27L28 26L32 26L32 27L34 27L34 26L35 26L35 25L34 25L34 24L35 24L35 23L33 23L33 25L30 25L30 24L31 24L31 22L32 22L32 21L34 21L34 22L35 22L35 21L34 21L34 20L32 20L32 21L31 21L31 20L30 20L30 21L31 21L31 22L29 22L29 21L28 21L28 22L27 22L27 20L28 20L28 19L29 19L29 18L27 18L27 20L26 20L26 19L25 19L25 21L24 21L24 19L22 19L22 20L23 20L23 21L22 21L22 22L23 22L23 23L22 23L22 24L21 24L21 25L20 25L20 23L19 23L19 22L20 22L20 21L21 21L21 18L20 18L20 19L19 19L19 17L20 17L20 15L21 15L21 14L23 14L23 15L24 15L24 14L25 14L25 15L27 15L27 14L29 14L29 13L28 13L28 12L29 12L29 11L28 11L28 10L27 10L27 11L26 11L26 12L27 12L27 14L25 14L25 13L24 13L24 14L23 14L23 13L21 13L21 11L22 11L22 12L25 12L25 11L24 11L24 8L21 8L21 6L20 6L20 8L19 8L19 5L18 5L18 8L16 8L16 7L17 7L17 6L16 6L16 5L15 5L15 6L14 6L14 5ZM11 6L11 7L12 7L12 6ZM15 6L15 7L16 7L16 6ZM22 6L22 7L23 7L23 6ZM25 6L25 7L26 7L26 6ZM18 8L18 9L19 9L19 8ZM20 8L20 9L21 9L21 10L22 10L22 11L23 11L23 10L22 10L22 9L21 9L21 8ZM33 12L33 13L34 13L34 12ZM10 13L10 14L9 14L9 15L10 15L10 14L11 14L11 13ZM20 13L20 14L21 14L21 13ZM16 14L16 15L17 15L17 14ZM28 15L28 16L29 16L29 15ZM17 16L17 19L16 19L16 18L15 18L15 19L14 19L14 20L15 20L15 23L14 23L14 24L15 24L15 23L16 23L16 22L18 22L18 21L16 21L16 20L17 20L17 19L18 19L18 17L19 17L19 16ZM21 16L21 17L22 17L22 16ZM23 16L23 18L26 18L26 16L25 16L25 17L24 17L24 16ZM36 16L36 17L37 17L37 16ZM40 16L40 18L39 18L39 19L40 19L40 18L41 18L41 16ZM30 18L30 19L31 19L31 18ZM6 19L6 20L7 20L7 19ZM10 19L10 20L11 20L11 21L12 21L12 20L11 20L11 19ZM15 19L15 20L16 20L16 19ZM4 20L4 21L5 21L5 20ZM37 20L37 21L38 21L38 20ZM40 20L40 21L41 21L41 20ZM6 21L6 22L4 22L4 23L6 23L6 24L7 24L7 23L6 23L6 22L8 22L8 21ZM23 21L23 22L24 22L24 23L23 23L23 24L22 24L22 26L21 26L21 27L22 27L22 26L23 26L23 25L24 25L24 23L25 23L25 24L26 24L26 25L27 25L27 26L26 26L26 27L27 27L27 26L28 26L28 25L29 25L29 24L30 24L30 23L29 23L29 24L28 24L28 23L25 23L25 22L26 22L26 21L25 21L25 22L24 22L24 21ZM27 24L27 25L28 25L28 24ZM33 25L33 26L34 26L34 25ZM1 26L1 27L0 27L0 28L1 28L1 27L2 27L2 26ZM24 28L24 29L23 29L23 30L24 30L24 29L25 29L25 28ZM33 28L33 29L32 29L32 30L33 30L33 29L34 29L34 28ZM6 29L6 30L7 30L7 29ZM14 31L14 33L13 33L13 36L12 36L12 37L13 37L13 36L17 36L17 35L15 35L15 34L14 34L14 33L16 33L16 34L17 34L17 33L18 33L18 32L17 32L17 31L16 31L16 32L15 32L15 31ZM3 32L3 33L4 33L4 32ZM26 33L26 34L27 34L27 33ZM33 33L33 36L36 36L36 33ZM30 34L30 35L31 35L31 34ZM34 34L34 35L35 35L35 34ZM8 36L8 39L9 39L9 41L11 41L11 40L10 40L10 39L9 39L9 36ZM33 37L33 38L36 38L36 37ZM37 38L37 39L38 39L38 38ZM17 40L17 41L18 41L18 40ZM0 0L0 7L7 7L7 0ZM1 1L1 6L6 6L6 1ZM2 2L2 5L5 5L5 2ZM34 0L34 7L41 7L41 0ZM35 1L35 6L40 6L40 1ZM36 2L36 5L39 5L39 2ZM0 34L0 41L7 41L7 34ZM1 35L1 40L6 40L6 35ZM2 36L2 39L5 39L5 36Z" fill="#000000"/></g></g></svg>
