<?xml version="1.0" encoding="UTF-8"?>
<svg xmlns="http://www.w3.org/2000/svg" version="1.1" width="200" height="200" viewBox="0 0 200 200"><rect x="0" y="0" width="200" height="200" fill="#ffffff"/><g transform="scale(4.878)"><g transform="translate(0,0)"><path fill-rule="evenodd" d="M8 0L8 3L9 3L9 5L8 5L8 9L7 9L7 8L6 8L6 9L5 9L5 8L2 8L2 9L0 9L0 10L2 10L2 9L5 9L5 10L4 10L4 12L3 12L3 13L4 13L4 14L3 14L3 15L2 15L2 16L3 16L3 18L0 18L0 21L2 21L2 22L1 22L1 23L0 23L0 25L1 25L1 26L2 26L2 27L1 27L1 28L2 28L2 29L0 29L0 33L1 33L1 30L2 30L2 33L3 33L3 32L4 32L4 33L7 33L7 32L4 32L4 31L7 31L7 30L6 30L6 29L9 29L9 30L8 30L8 32L9 32L9 33L8 33L8 34L9 34L9 33L10 33L10 34L13 34L13 35L14 35L14 34L13 34L13 33L12 33L12 32L16 32L16 33L15 33L15 34L17 34L17 33L18 33L18 35L15 35L15 36L14 36L14 37L13 37L13 36L12 36L12 35L10 35L10 36L12 36L12 38L11 38L11 39L10 39L10 38L9 38L9 36L8 36L8 39L10 39L10 40L11 40L11 41L12 41L12 40L13 40L13 39L12 39L12 38L14 38L14 37L15 37L15 40L14 40L14 41L15 41L15 40L16 40L16 41L17 41L17 40L19 40L19 39L20 39L20 40L22 40L22 41L23 41L23 39L21 39L21 37L23 37L23 38L24 38L24 37L23 37L23 35L22 35L22 34L23 34L23 33L22 33L22 34L21 34L21 33L20 33L20 32L22 32L22 31L21 31L21 30L23 30L23 29L24 29L24 28L23 28L23 27L22 27L22 26L23 26L23 24L24 24L24 23L23 23L23 24L20 24L20 23L21 23L21 22L20 22L20 21L22 21L22 22L23 22L23 21L24 21L24 22L26 22L26 21L25 21L25 20L24 20L24 19L23 19L23 17L26 17L26 18L25 18L25 19L26 19L26 20L27 20L27 21L28 21L28 22L27 22L27 23L28 23L28 24L27 24L27 25L26 25L26 24L25 24L25 25L26 25L26 26L27 26L27 28L25 28L25 31L23 31L23 32L25 32L25 33L24 33L24 34L25 34L25 33L29 33L29 34L26 34L26 38L27 38L27 39L24 39L24 41L26 41L26 40L27 40L27 41L31 41L31 40L33 40L33 41L34 41L34 40L33 40L33 38L34 38L34 39L35 39L35 40L36 40L36 39L37 39L37 40L40 40L40 38L41 38L41 37L39 37L39 36L37 36L37 34L38 34L38 35L40 35L40 34L41 34L41 33L39 33L39 32L41 32L41 31L40 31L40 30L41 30L41 29L40 29L40 28L41 28L41 27L40 27L40 26L41 26L41 23L39 23L39 24L40 24L40 26L39 26L39 25L34 25L34 24L32 24L32 23L34 23L34 22L35 22L35 23L36 23L36 24L37 24L37 20L38 20L38 21L39 21L39 20L38 20L38 18L41 18L41 16L40 16L40 17L39 17L39 16L37 16L37 15L35 15L35 17L34 17L34 16L32 16L32 17L31 17L31 16L29 16L29 15L30 15L30 14L31 14L31 13L33 13L33 14L32 14L32 15L34 15L34 13L35 13L35 11L36 11L36 12L38 12L38 11L39 11L39 13L40 13L40 14L39 14L39 15L40 15L40 14L41 14L41 12L40 12L40 10L41 10L41 8L38 8L38 9L40 9L40 10L37 10L37 9L36 9L36 8L32 8L32 9L31 9L31 5L33 5L33 4L30 4L30 8L29 8L29 6L28 6L28 5L27 5L27 4L25 4L25 3L24 3L24 5L23 5L23 6L22 6L22 7L21 7L21 5L19 5L19 4L18 4L18 3L21 3L21 4L22 4L22 3L23 3L23 1L25 1L25 0L23 0L23 1L22 1L22 0L20 0L20 1L18 1L18 0L17 0L17 2L16 2L16 1L15 1L15 2L14 2L14 1L13 1L13 0L12 0L12 2L9 2L9 1L10 1L10 0ZM26 0L26 1L27 1L27 2L26 2L26 3L28 3L28 4L29 4L29 3L32 3L32 2L33 2L33 1L32 1L32 0L31 0L31 1L32 1L32 2L30 2L30 0L29 0L29 1L27 1L27 0ZM21 1L21 2L22 2L22 1ZM12 2L12 3L14 3L14 2ZM15 2L15 3L16 3L16 5L15 5L15 7L14 7L14 6L13 6L13 5L12 5L12 4L10 4L10 5L9 5L9 8L10 8L10 5L11 5L11 7L12 7L12 8L15 8L15 11L14 11L14 9L13 9L13 10L12 10L12 12L13 12L13 13L15 13L15 14L18 14L18 15L19 15L19 19L20 19L20 20L19 20L19 21L15 21L15 22L16 22L16 24L14 24L14 25L13 25L13 24L12 24L12 23L13 23L13 22L12 22L12 21L14 21L14 20L17 20L17 19L18 19L18 18L17 18L17 19L16 19L16 17L15 17L15 16L16 16L16 15L13 15L13 14L12 14L12 13L11 13L11 12L10 12L10 11L9 11L9 10L10 10L10 9L9 9L9 10L7 10L7 9L6 9L6 10L5 10L5 11L6 11L6 12L7 12L7 11L8 11L8 13L5 13L5 14L4 14L4 15L3 15L3 16L4 16L4 15L5 15L5 16L7 16L7 17L5 17L5 18L3 18L3 19L1 19L1 20L3 20L3 22L2 22L2 23L1 23L1 25L2 25L2 26L3 26L3 28L4 28L4 29L6 29L6 28L9 28L9 29L10 29L10 33L11 33L11 30L13 30L13 31L14 31L14 30L15 30L15 29L17 29L17 28L18 28L18 29L19 29L19 31L20 31L20 30L21 30L21 29L23 29L23 28L22 28L22 27L21 27L21 25L20 25L20 24L19 24L19 26L18 26L18 24L17 24L17 23L18 23L18 22L19 22L19 23L20 23L20 22L19 22L19 21L20 21L20 20L21 20L21 19L20 19L20 18L22 18L22 17L23 17L23 16L24 16L24 15L23 15L23 14L24 14L24 13L26 13L26 14L27 14L27 15L25 15L25 16L27 16L27 18L29 18L29 20L28 20L28 19L27 19L27 20L28 20L28 21L29 21L29 22L31 22L31 23L32 23L32 22L34 22L34 21L35 21L35 22L36 22L36 21L35 21L35 19L36 19L36 20L37 20L37 18L38 18L38 17L37 17L37 16L36 16L36 17L35 17L35 19L34 19L34 18L33 18L33 17L32 17L32 18L31 18L31 17L29 17L29 16L28 16L28 15L29 15L29 14L30 14L30 13L29 13L29 12L33 12L33 13L34 13L34 12L33 12L33 11L34 11L34 9L32 9L32 10L31 10L31 9L27 9L27 10L28 10L28 11L29 11L29 12L28 12L28 13L29 13L29 14L27 14L27 11L26 11L26 9L25 9L25 8L28 8L28 6L27 6L27 7L26 7L26 6L25 6L25 7L24 7L24 6L23 6L23 7L24 7L24 8L21 8L21 7L20 7L20 6L19 6L19 5L17 5L17 3L16 3L16 2ZM16 5L16 7L15 7L15 8L16 8L16 9L17 9L17 10L18 10L18 11L17 11L17 13L19 13L19 12L21 12L21 11L24 11L24 12L22 12L22 14L23 14L23 13L24 13L24 12L26 12L26 11L25 11L25 10L24 10L24 9L21 9L21 11L20 11L20 10L19 10L19 9L20 9L20 8L19 8L19 6L18 6L18 9L17 9L17 8L16 8L16 7L17 7L17 5ZM12 6L12 7L13 7L13 6ZM32 6L32 7L33 7L33 6ZM35 9L35 10L36 10L36 9ZM6 10L6 11L7 11L7 10ZM29 10L29 11L31 11L31 10ZM0 11L0 12L1 12L1 13L2 13L2 12L1 12L1 11ZM13 11L13 12L14 12L14 11ZM15 11L15 12L16 12L16 11ZM18 11L18 12L19 12L19 11ZM9 12L9 15L10 15L10 16L9 16L9 17L8 17L8 20L6 20L6 19L7 19L7 18L6 18L6 19L5 19L5 20L6 20L6 21L8 21L8 24L6 24L6 23L7 23L7 22L5 22L5 21L4 21L4 22L3 22L3 24L2 24L2 25L3 25L3 26L4 26L4 27L7 27L7 26L8 26L8 27L9 27L9 28L10 28L10 27L11 27L11 28L12 28L12 27L13 27L13 28L14 28L14 29L13 29L13 30L14 30L14 29L15 29L15 28L16 28L16 26L15 26L15 28L14 28L14 27L13 27L13 26L10 26L10 27L9 27L9 24L11 24L11 25L12 25L12 24L11 24L11 23L12 23L12 22L11 22L11 21L10 21L10 20L9 20L9 19L10 19L10 18L9 18L9 17L11 17L11 20L12 20L12 18L13 18L13 20L14 20L14 19L15 19L15 17L13 17L13 16L12 16L12 15L10 15L10 12ZM36 13L36 14L38 14L38 13ZM0 14L0 15L1 15L1 14ZM5 14L5 15L7 15L7 14ZM19 14L19 15L20 15L20 17L22 17L22 16L23 16L23 15L22 15L22 16L21 16L21 15L20 15L20 14ZM0 16L0 17L1 17L1 16ZM17 16L17 17L18 17L18 16ZM36 17L36 18L37 18L37 17ZM30 18L30 19L31 19L31 20L30 20L30 21L31 21L31 22L32 22L32 21L34 21L34 20L32 20L32 19L31 19L31 18ZM22 19L22 20L23 20L23 19ZM8 20L8 21L9 21L9 23L10 23L10 21L9 21L9 20ZM31 20L31 21L32 21L32 20ZM40 20L40 21L41 21L41 20ZM4 23L4 24L3 24L3 25L4 25L4 26L5 26L5 25L6 25L6 26L7 26L7 25L6 25L6 24L5 24L5 23ZM29 23L29 24L28 24L28 25L27 25L27 26L28 26L28 25L29 25L29 24L30 24L30 23ZM4 24L4 25L5 25L5 24ZM16 24L16 25L17 25L17 24ZM31 24L31 25L30 25L30 26L29 26L29 27L28 27L28 28L30 28L30 29L31 29L31 30L32 30L32 31L33 31L33 32L36 32L36 31L37 31L37 30L38 30L38 32L37 32L37 33L38 33L38 34L39 34L39 33L38 33L38 32L39 32L39 28L40 28L40 27L39 27L39 26L38 26L38 28L35 28L35 26L34 26L34 25L32 25L32 24ZM31 25L31 26L32 26L32 25ZM17 26L17 27L18 27L18 28L19 28L19 29L20 29L20 26L19 26L19 27L18 27L18 26ZM33 26L33 27L31 27L31 28L33 28L33 29L32 29L32 30L33 30L33 29L34 29L34 28L33 28L33 27L34 27L34 26ZM2 29L2 30L3 30L3 31L4 31L4 30L3 30L3 29ZM28 29L28 30L29 30L29 31L28 31L28 32L30 32L30 30L29 30L29 29ZM35 29L35 30L34 30L34 31L36 31L36 30L37 30L37 29ZM16 30L16 31L17 31L17 30ZM26 31L26 32L27 32L27 31ZM18 32L18 33L19 33L19 32ZM30 33L30 35L31 35L31 36L29 36L29 35L28 35L28 36L29 36L29 37L27 37L27 38L28 38L28 39L27 39L27 40L31 40L31 39L32 39L32 38L33 38L33 37L32 37L32 35L31 35L31 33ZM33 33L33 36L36 36L36 33ZM20 34L20 36L19 36L19 35L18 35L18 37L16 37L16 40L17 40L17 39L18 39L18 37L19 37L19 38L20 38L20 36L22 36L22 35L21 35L21 34ZM34 34L34 35L35 35L35 34ZM24 35L24 36L25 36L25 35ZM30 37L30 38L29 38L29 39L30 39L30 38L32 38L32 37ZM34 37L34 38L36 38L36 37ZM37 38L37 39L38 39L38 38ZM0 0L0 7L7 7L7 0ZM1 1L1 6L6 6L6 1ZM2 2L2 5L5 5L5 2ZM34 0L34 7L41 7L41 0ZM35 1L35 6L40 6L40 1ZM36 2L36 5L39 5L39 2ZM0 34L0 41L7 41L7 34ZM1 35L1 40L6 40L6 35ZM2 36L2 39L5 39L5 36Z" fill="#000000"/></g></g></svg>
