<?xml version="1.0" encoding="UTF-8"?>
<svg xmlns="http://www.w3.org/2000/svg" version="1.1" width="200" height="200" viewBox="0 0 200 200"><rect x="0" y="0" width="200" height="200" fill="#ffffff"/><g transform="scale(4.878)"><g transform="translate(0,0)"><path fill-rule="evenodd" d="M10 0L10 2L9 2L9 1L8 1L8 2L9 2L9 3L10 3L10 4L9 4L9 5L8 5L8 8L4 8L4 12L5 12L5 13L3 13L3 11L2 11L2 12L1 12L1 11L0 11L0 13L2 13L2 14L1 14L1 15L0 15L0 16L2 16L2 17L0 17L0 18L1 18L1 19L0 19L0 20L1 20L1 21L0 21L0 22L1 22L1 24L0 24L0 25L1 25L1 26L0 26L0 28L1 28L1 29L0 29L0 30L1 30L1 29L2 29L2 30L4 30L4 29L5 29L5 30L6 30L6 31L8 31L8 30L9 30L9 32L10 32L10 33L11 33L11 35L12 35L12 36L11 36L11 37L12 37L12 38L10 38L10 36L9 36L9 33L8 33L8 37L9 37L9 38L10 38L10 39L9 39L9 40L10 40L10 41L11 41L11 40L10 40L10 39L12 39L12 40L13 40L13 41L15 41L15 40L16 40L16 41L17 41L17 38L18 38L18 36L19 36L19 38L20 38L20 36L22 36L22 35L23 35L23 34L24 34L24 33L25 33L25 32L28 32L28 33L27 33L27 36L26 36L26 35L25 35L25 38L27 38L27 39L26 39L26 40L25 40L25 39L24 39L24 37L21 37L21 38L22 38L22 39L21 39L21 40L20 40L20 41L23 41L23 39L24 39L24 40L25 40L25 41L26 41L26 40L29 40L29 41L30 41L30 39L32 39L32 41L33 41L33 39L32 39L32 38L33 38L33 37L36 37L36 38L37 38L37 35L38 35L38 34L39 34L39 35L40 35L40 36L39 36L39 37L40 37L40 38L38 38L38 39L36 39L36 40L37 40L37 41L40 41L40 40L41 40L41 37L40 37L40 36L41 36L41 33L40 33L40 34L39 34L39 33L38 33L38 31L37 31L37 32L36 32L36 31L34 31L34 32L33 32L33 31L32 31L32 29L33 29L33 30L34 30L34 29L33 29L33 28L31 28L31 25L32 25L32 27L34 27L34 28L35 28L35 26L36 26L36 27L37 27L37 29L35 29L35 30L37 30L37 29L38 29L38 30L39 30L39 31L41 31L41 29L40 29L40 28L41 28L41 24L40 24L40 23L41 23L41 22L40 22L40 21L41 21L41 13L40 13L40 11L41 11L41 9L40 9L40 8L39 8L39 9L36 9L36 8L34 8L34 9L32 9L32 8L31 8L31 9L30 9L30 7L31 7L31 6L32 6L32 7L33 7L33 6L32 6L32 5L33 5L33 3L32 3L32 1L33 1L33 0L32 0L32 1L31 1L31 3L28 3L28 2L30 2L30 0L29 0L29 1L28 1L28 0L27 0L27 1L26 1L26 0L23 0L23 3L24 3L24 1L25 1L25 2L26 2L26 3L28 3L28 4L27 4L27 5L26 5L26 8L24 8L24 9L21 9L21 8L23 8L23 6L24 6L24 7L25 7L25 6L24 6L24 5L25 5L25 4L21 4L21 3L22 3L22 2L19 2L19 1L18 1L18 0L14 0L14 1L13 1L13 0ZM20 0L20 1L21 1L21 0ZM11 1L11 5L9 5L9 8L8 8L8 9L6 9L6 10L5 10L5 11L6 11L6 12L7 12L7 11L6 11L6 10L8 10L8 13L10 13L10 14L9 14L9 15L8 15L8 14L7 14L7 13L6 13L6 14L5 14L5 15L3 15L3 14L2 14L2 15L3 15L3 16L4 16L4 17L5 17L5 19L3 19L3 20L2 20L2 21L1 21L1 22L2 22L2 26L1 26L1 28L3 28L3 29L4 29L4 28L3 28L3 27L5 27L5 25L6 25L6 26L7 26L7 25L6 25L6 24L7 24L7 23L9 23L9 21L11 21L11 20L10 20L10 19L12 19L12 20L14 20L14 18L15 18L15 19L16 19L16 20L17 20L17 21L16 21L16 22L17 22L17 21L18 21L18 23L19 23L19 22L20 22L20 23L21 23L21 25L20 25L20 24L19 24L19 26L18 26L18 24L17 24L17 25L16 25L16 23L15 23L15 21L14 21L14 22L13 22L13 21L12 21L12 22L10 22L10 23L14 23L14 27L15 27L15 26L16 26L16 27L17 27L17 26L18 26L18 27L19 27L19 28L20 28L20 27L21 27L21 26L22 26L22 29L23 29L23 30L24 30L24 29L26 29L26 30L25 30L25 31L24 31L24 32L25 32L25 31L27 31L27 30L28 30L28 31L29 31L29 29L28 29L28 28L29 28L29 27L27 27L27 26L26 26L26 27L25 27L25 26L24 26L24 25L26 25L26 23L27 23L27 25L28 25L28 26L29 26L29 25L28 25L28 23L27 23L27 21L28 21L28 22L30 22L30 23L34 23L34 22L32 22L32 21L35 21L35 23L36 23L36 24L32 24L32 25L37 25L37 26L38 26L38 28L40 28L40 27L39 27L39 25L37 25L37 24L39 24L39 23L40 23L40 22L39 22L39 23L38 23L38 21L39 21L39 20L40 20L40 19L38 19L38 17L39 17L39 16L40 16L40 15L38 15L38 13L37 13L37 11L36 11L36 12L35 12L35 10L36 10L36 9L35 9L35 10L32 10L32 9L31 9L31 10L30 10L30 12L32 12L32 13L33 13L33 14L35 14L35 15L36 15L36 17L35 17L35 16L34 16L34 15L32 15L32 14L31 14L31 15L30 15L30 13L29 13L29 11L27 11L27 12L26 12L26 10L27 10L27 9L24 9L24 11L23 11L23 10L22 10L22 11L21 11L21 12L20 12L20 9L18 9L18 8L21 8L21 7L22 7L22 6L21 6L21 5L19 5L19 3L18 3L18 4L17 4L17 5L19 5L19 7L18 7L18 6L17 6L17 9L16 9L16 10L15 10L15 8L13 8L13 7L14 7L14 6L13 6L13 7L12 7L12 4L13 4L13 5L15 5L15 7L16 7L16 5L15 5L15 2L16 2L16 3L17 3L17 2L16 2L16 1L15 1L15 2L13 2L13 3L12 3L12 1ZM27 1L27 2L28 2L28 1ZM13 3L13 4L14 4L14 3ZM31 3L31 5L30 5L30 4L29 4L29 5L30 5L30 6L29 6L29 7L30 7L30 6L31 6L31 5L32 5L32 3ZM27 5L27 7L28 7L28 5ZM10 6L10 8L11 8L11 10L10 10L10 9L9 9L9 10L10 10L10 11L9 11L9 12L10 12L10 13L11 13L11 14L10 14L10 16L11 16L11 17L10 17L10 18L9 18L9 19L8 19L8 16L6 16L6 15L7 15L7 14L6 14L6 15L5 15L5 17L7 17L7 18L6 18L6 19L8 19L8 20L9 20L9 19L10 19L10 18L12 18L12 19L13 19L13 18L12 18L12 16L14 16L14 17L17 17L17 18L18 18L18 19L19 19L19 20L18 20L18 21L19 21L19 20L20 20L20 18L21 18L21 20L22 20L22 19L24 19L24 20L25 20L25 22L24 22L24 23L25 23L25 22L26 22L26 20L28 20L28 21L29 21L29 20L30 20L30 21L32 21L32 20L33 20L33 19L30 19L30 18L29 18L29 20L28 20L28 16L27 16L27 18L26 18L26 20L25 20L25 16L26 16L26 15L27 15L27 13L26 13L26 15L24 15L24 18L23 18L23 17L20 17L20 16L21 16L21 14L20 14L20 12L19 12L19 10L18 10L18 9L17 9L17 11L18 11L18 12L17 12L17 13L15 13L15 12L16 12L16 11L13 11L13 12L12 12L12 9L13 9L13 8L12 8L12 7L11 7L11 6ZM20 6L20 7L21 7L21 6ZM28 8L28 9L29 9L29 8ZM2 9L2 10L3 10L3 9ZM10 11L10 12L11 12L11 13L12 13L12 12L11 12L11 11ZM32 11L32 12L33 12L33 13L35 13L35 12L34 12L34 11ZM38 11L38 12L39 12L39 11ZM21 12L21 13L24 13L24 14L25 14L25 12ZM13 13L13 14L14 14L14 16L17 16L17 14L16 14L16 15L15 15L15 14L14 14L14 13ZM18 13L18 15L19 15L19 16L20 16L20 14L19 14L19 13ZM28 13L28 15L29 15L29 17L32 17L32 18L33 18L33 17L32 17L32 16L30 16L30 15L29 15L29 13ZM36 13L36 14L37 14L37 13ZM11 14L11 16L12 16L12 14ZM22 15L22 16L23 16L23 15ZM37 15L37 17L36 17L36 18L35 18L35 17L34 17L34 18L35 18L35 19L34 19L34 20L35 20L35 21L36 21L36 22L37 22L37 21L38 21L38 19L37 19L37 17L38 17L38 15ZM35 19L35 20L36 20L36 19ZM5 20L5 21L7 21L7 22L5 22L5 23L4 23L4 22L3 22L3 26L4 26L4 24L6 24L6 23L7 23L7 22L8 22L8 21L7 21L7 20ZM20 21L20 22L21 22L21 21ZM22 21L22 22L23 22L23 21ZM22 23L22 24L23 24L23 25L22 25L22 26L23 26L23 29L24 29L24 26L23 26L23 25L24 25L24 24L23 24L23 23ZM10 24L10 25L9 25L9 27L10 27L10 29L9 29L9 30L10 30L10 32L11 32L11 31L12 31L12 32L13 32L13 34L12 34L12 35L13 35L13 36L12 36L12 37L13 37L13 38L12 38L12 39L13 39L13 40L15 40L15 38L17 38L17 37L16 37L16 36L18 36L18 35L19 35L19 36L20 36L20 33L21 33L21 34L23 34L23 33L21 33L21 32L20 32L20 31L22 31L22 32L23 32L23 31L22 31L22 30L20 30L20 31L19 31L19 32L18 32L18 30L19 30L19 29L18 29L18 28L14 28L14 29L13 29L13 30L12 30L12 29L11 29L11 27L12 27L12 26L10 26L10 25L11 25L11 24ZM30 24L30 25L31 25L31 24ZM6 27L6 28L7 28L7 29L6 29L6 30L7 30L7 29L8 29L8 27ZM30 28L30 29L31 29L31 28ZM10 29L10 30L11 30L11 29ZM14 29L14 30L13 30L13 31L14 31L14 30L15 30L15 29ZM16 29L16 31L17 31L17 30L18 30L18 29ZM39 29L39 30L40 30L40 29ZM30 30L30 33L31 33L31 34L32 34L32 32L31 32L31 30ZM3 31L3 32L0 32L0 33L3 33L3 32L5 32L5 33L7 33L7 32L5 32L5 31ZM14 32L14 33L15 33L15 32ZM17 32L17 33L16 33L16 34L13 34L13 35L14 35L14 36L13 36L13 37L14 37L14 38L13 38L13 39L14 39L14 38L15 38L15 37L14 37L14 36L16 36L16 35L17 35L17 34L19 34L19 33L18 33L18 32ZM28 33L28 36L27 36L27 37L29 37L29 38L28 38L28 39L29 39L29 38L30 38L30 37L31 37L31 36L32 36L32 35L30 35L30 34L29 34L29 33ZM33 33L33 36L36 36L36 33ZM37 33L37 34L38 34L38 33ZM34 34L34 35L35 35L35 34ZM18 39L18 40L19 40L19 39ZM34 39L34 40L35 40L35 39ZM0 0L0 7L7 7L7 0ZM1 1L1 6L6 6L6 1ZM2 2L2 5L5 5L5 2ZM34 0L34 7L41 7L41 0ZM35 1L35 6L40 6L40 1ZM36 2L36 5L39 5L39 2ZM0 34L0 41L7 41L7 34ZM1 35L1 40L6 40L6 35ZM2 36L2 39L5 39L5 36Z" fill="#000000"/></g></g></svg>
