<?xml version="1.0" encoding="UTF-8"?>
<svg xmlns="http://www.w3.org/2000/svg" version="1.1" width="200" height="200" viewBox="0 0 200 200"><rect x="0" y="0" width="200" height="200" fill="#ffffff"/><g transform="scale(6.897)"><g transform="translate(0,0)"><path fill-rule="evenodd" d="M8 0L8 1L9 1L9 2L8 2L8 3L9 3L9 4L8 4L8 5L9 5L9 6L8 6L8 8L10 8L10 7L11 7L11 6L10 6L10 5L9 5L9 4L10 4L10 3L11 3L11 2L12 2L12 4L11 4L11 5L12 5L12 4L13 4L13 2L12 2L12 1L13 1L13 0L12 0L12 1L10 1L10 0ZM17 0L17 1L18 1L18 2L19 2L19 1L20 1L20 2L21 2L21 0L19 0L19 1L18 1L18 0ZM14 2L14 3L15 3L15 4L14 4L14 5L13 5L13 6L12 6L12 9L11 9L11 10L12 10L12 9L13 9L13 12L14 12L14 9L15 9L15 12L16 12L16 13L13 13L13 15L14 15L14 14L15 14L15 17L17 17L17 19L18 19L18 20L19 20L19 19L20 19L20 18L19 18L19 16L16 16L16 13L17 13L17 12L18 12L18 13L19 13L19 12L20 12L20 13L21 13L21 12L22 12L22 14L21 14L21 15L20 15L20 17L21 17L21 19L22 19L22 20L20 20L20 24L18 24L18 23L19 23L19 22L17 22L17 23L15 23L15 22L16 22L16 21L17 21L17 20L16 20L16 19L15 19L15 18L11 18L11 17L10 17L10 16L12 16L12 17L13 17L13 16L12 16L12 13L11 13L11 15L10 15L10 10L8 10L8 9L7 9L7 8L5 8L5 9L7 9L7 10L4 10L4 9L2 9L2 11L0 11L0 12L3 12L3 10L4 10L4 11L5 11L5 13L3 13L3 14L4 14L4 15L1 15L1 17L0 17L0 21L1 21L1 19L2 19L2 21L8 21L8 22L9 22L9 23L8 23L8 24L9 24L9 25L10 25L10 29L12 29L12 28L13 28L13 29L15 29L15 28L17 28L17 27L18 27L18 29L25 29L25 27L23 27L23 26L21 26L21 25L24 25L24 26L25 26L25 22L26 22L26 23L27 23L27 24L26 24L26 26L27 26L27 27L28 27L28 26L27 26L27 24L28 24L28 25L29 25L29 24L28 24L28 23L27 23L27 22L28 22L28 21L29 21L29 20L28 20L28 21L25 21L25 20L27 20L27 19L26 19L26 18L28 18L28 19L29 19L29 18L28 18L28 16L27 16L27 15L28 15L28 13L29 13L29 12L27 12L27 11L28 11L28 10L26 10L26 9L27 9L27 8L26 8L26 9L25 9L25 8L24 8L24 9L23 9L23 8L22 8L22 10L24 10L24 9L25 9L25 12L24 12L24 11L20 11L20 10L19 10L19 9L20 9L20 7L21 7L21 5L20 5L20 4L19 4L19 3L18 3L18 4L17 4L17 6L16 6L16 3L17 3L17 2ZM14 5L14 6L13 6L13 9L14 9L14 6L15 6L15 7L16 7L16 6L15 6L15 5ZM18 5L18 6L17 6L17 7L18 7L18 6L19 6L19 7L20 7L20 6L19 6L19 5ZM9 6L9 7L10 7L10 6ZM16 8L16 9L19 9L19 8ZM28 8L28 9L29 9L29 8ZM7 10L7 11L6 11L6 12L7 12L7 11L8 11L8 13L5 13L5 14L7 14L7 15L5 15L5 16L2 16L2 17L1 17L1 18L3 18L3 20L4 20L4 18L3 18L3 17L5 17L5 18L8 18L8 19L6 19L6 20L8 20L8 21L10 21L10 23L11 23L11 25L13 25L13 26L15 26L15 27L17 27L17 26L18 26L18 27L19 27L19 28L20 28L20 27L21 27L21 26L20 26L20 27L19 27L19 26L18 26L18 24L17 24L17 25L16 25L16 24L15 24L15 23L14 23L14 22L13 22L13 23L12 23L12 22L11 22L11 21L13 21L13 20L15 20L15 19L12 19L12 20L10 20L10 19L11 19L11 18L10 18L10 19L9 19L9 18L8 18L8 17L9 17L9 16L10 16L10 15L9 15L9 11L8 11L8 10ZM16 10L16 12L17 12L17 10ZM11 11L11 12L12 12L12 11ZM18 11L18 12L19 12L19 11ZM23 12L23 14L22 14L22 15L23 15L23 16L22 16L22 18L24 18L24 12ZM0 13L0 14L2 14L2 13ZM26 13L26 14L27 14L27 13ZM17 14L17 15L18 15L18 14ZM7 15L7 16L6 16L6 17L7 17L7 16L8 16L8 15ZM25 15L25 16L26 16L26 15ZM18 18L18 19L19 19L19 18ZM8 19L8 20L9 20L9 19ZM23 19L23 20L25 20L25 19ZM21 21L21 24L24 24L24 21ZM22 22L22 23L23 23L23 22ZM13 23L13 24L14 24L14 25L15 25L15 24L14 24L14 23ZM11 26L11 28L12 28L12 26ZM22 27L22 28L23 28L23 27ZM27 28L27 29L28 29L28 28ZM0 0L0 7L7 7L7 0ZM1 1L1 6L6 6L6 1ZM2 2L2 5L5 5L5 2ZM22 0L22 7L29 7L29 0ZM23 1L23 6L28 6L28 1ZM24 2L24 5L27 5L27 2ZM0 22L0 29L7 29L7 22ZM1 23L1 28L6 28L6 23ZM2 24L2 27L5 27L5 24Z" fill="#000000"/></g></g></svg>
