<?xml version="1.0" encoding="UTF-8"?>
<svg xmlns="http://www.w3.org/2000/svg" version="1.1" width="200" height="200" viewBox="0 0 200 200"><rect x="0" y="0" width="200" height="200" fill="#ffffff"/><g transform="scale(4.878)"><g transform="translate(0,0)"><path fill-rule="evenodd" d="M8 0L8 1L9 1L9 2L8 2L8 3L9 3L9 4L8 4L8 5L9 5L9 6L8 6L8 8L10 8L10 9L7 9L7 8L5 8L5 9L7 9L7 10L6 10L6 11L7 11L7 10L10 10L10 11L8 11L8 12L5 12L5 13L4 13L4 14L5 14L5 16L6 16L6 17L7 17L7 16L6 16L6 15L9 15L9 14L13 14L13 15L12 15L12 16L14 16L14 14L13 14L13 13L12 13L12 12L14 12L14 11L15 11L15 10L14 10L14 11L13 11L13 10L12 10L12 8L13 8L13 9L15 9L15 8L13 8L13 6L14 6L14 7L15 7L15 6L14 6L14 5L15 5L15 4L16 4L16 8L17 8L17 10L18 10L18 9L21 9L21 10L20 10L20 13L19 13L19 11L17 11L17 12L18 12L18 14L19 14L19 17L21 17L21 18L19 18L19 19L20 19L20 20L18 20L18 18L15 18L15 17L12 17L12 18L10 18L10 19L9 19L9 21L8 21L8 20L6 20L6 19L8 19L8 18L9 18L9 17L11 17L11 15L10 15L10 16L9 16L9 17L8 17L8 18L5 18L5 20L4 20L4 19L3 19L3 22L1 22L1 21L0 21L0 23L2 23L2 24L0 24L0 25L1 25L1 26L0 26L0 27L1 27L1 29L0 29L0 33L1 33L1 31L2 31L2 30L1 30L1 29L2 29L2 28L3 28L3 29L4 29L4 28L5 28L5 29L8 29L8 30L11 30L11 27L12 27L12 26L10 26L10 25L9 25L9 24L10 24L10 23L11 23L11 25L13 25L13 26L14 26L14 28L13 28L13 29L12 29L12 31L14 31L14 32L11 32L11 34L10 34L10 32L9 32L9 31L8 31L8 32L9 32L9 33L8 33L8 34L10 34L10 35L8 35L8 36L9 36L9 38L10 38L10 39L9 39L9 40L10 40L10 41L11 41L11 40L10 40L10 39L11 39L11 38L12 38L12 35L13 35L13 36L14 36L14 35L13 35L13 34L12 34L12 33L14 33L14 32L16 32L16 31L17 31L17 33L16 33L16 34L17 34L17 35L16 35L16 36L15 36L15 37L13 37L13 39L15 39L15 40L14 40L14 41L18 41L18 40L25 40L25 41L26 41L26 40L25 40L25 39L28 39L28 41L31 41L31 40L32 40L32 39L31 39L31 38L30 38L30 39L31 39L31 40L29 40L29 38L28 38L28 36L29 36L29 37L33 37L33 41L34 41L34 40L36 40L36 39L38 39L38 40L39 40L39 39L40 39L40 40L41 40L41 39L40 39L40 38L41 38L41 35L40 35L40 34L39 34L39 33L40 33L40 32L41 32L41 29L40 29L40 28L39 28L39 27L40 27L40 26L41 26L41 25L36 25L36 23L33 23L33 22L34 22L34 19L33 19L33 17L34 17L34 18L35 18L35 20L36 20L36 21L35 21L35 22L36 22L36 21L39 21L39 22L41 22L41 20L40 20L40 19L41 19L41 15L40 15L40 14L41 14L41 12L40 12L40 9L41 9L41 8L40 8L40 9L39 9L39 8L38 8L38 10L37 10L37 8L36 8L36 10L35 10L35 12L34 12L34 9L35 9L35 8L34 8L34 9L33 9L33 5L32 5L32 4L31 4L31 3L33 3L33 2L31 2L31 0L28 0L28 2L27 2L27 1L25 1L25 0L24 0L24 3L26 3L26 2L27 2L27 4L28 4L28 7L27 7L27 6L26 6L26 5L25 5L25 4L22 4L22 2L23 2L23 0L22 0L22 2L21 2L21 0L14 0L14 1L15 1L15 2L13 2L13 0L12 0L12 2L11 2L11 0L10 0L10 1L9 1L9 0ZM17 1L17 2L16 2L16 4L17 4L17 5L18 5L18 4L19 4L19 7L18 7L18 6L17 6L17 7L18 7L18 8L19 8L19 7L20 7L20 6L21 6L21 8L22 8L22 9L23 9L23 10L21 10L21 11L23 11L23 12L22 12L22 13L21 13L21 14L24 14L24 15L23 15L23 16L21 16L21 15L20 15L20 16L21 16L21 17L23 17L23 18L21 18L21 19L22 19L22 20L20 20L20 22L19 22L19 23L18 23L18 26L17 26L17 25L16 25L16 26L17 26L17 28L18 28L18 29L19 29L19 27L21 27L21 28L22 28L22 29L20 29L20 30L19 30L19 31L18 31L18 30L17 30L17 29L16 29L16 28L15 28L15 29L14 29L14 31L15 31L15 29L16 29L16 30L17 30L17 31L18 31L18 32L19 32L19 33L20 33L20 34L19 34L19 36L18 36L18 35L17 35L17 36L16 36L16 37L15 37L15 39L18 39L18 37L19 37L19 36L20 36L20 37L21 37L21 38L19 38L19 39L21 39L21 38L23 38L23 36L22 36L22 34L25 34L25 36L26 36L26 35L27 35L27 36L28 36L28 35L29 35L29 36L32 36L32 35L30 35L30 34L31 34L31 33L32 33L32 32L33 32L33 31L34 31L34 32L35 32L35 31L36 31L36 29L38 29L38 30L37 30L37 32L39 32L39 30L40 30L40 29L39 29L39 28L36 28L36 29L34 29L34 28L35 28L35 27L34 27L34 26L33 26L33 24L32 24L32 26L31 26L31 25L30 25L30 23L32 23L32 22L30 22L30 21L32 21L32 20L33 20L33 19L32 19L32 20L29 20L29 19L31 19L31 17L30 17L30 18L29 18L29 16L31 16L31 15L29 15L29 16L28 16L28 15L27 15L27 16L28 16L28 22L29 22L29 23L27 23L27 21L26 21L26 19L27 19L27 18L26 18L26 19L25 19L25 18L24 18L24 15L26 15L26 14L24 14L24 12L25 12L25 13L27 13L27 14L30 14L30 12L31 12L31 11L33 11L33 10L30 10L30 9L32 9L32 5L31 5L31 4L30 4L30 3L31 3L31 2L30 2L30 1L29 1L29 4L30 4L30 5L29 5L29 7L28 7L28 8L30 8L30 9L29 9L29 10L28 10L28 11L26 11L26 9L25 9L25 11L23 11L23 10L24 10L24 8L22 8L22 4L21 4L21 5L20 5L20 4L19 4L19 3L20 3L20 1ZM10 2L10 4L11 4L11 2ZM12 2L12 5L13 5L13 2ZM18 2L18 3L17 3L17 4L18 4L18 3L19 3L19 2ZM23 5L23 7L24 7L24 5ZM30 5L30 8L31 8L31 5ZM9 6L9 7L10 7L10 6ZM11 6L11 7L12 7L12 6ZM25 6L25 7L26 7L26 6ZM2 9L2 11L1 11L1 10L0 10L0 11L1 11L1 12L2 12L2 14L1 14L1 13L0 13L0 14L1 14L1 17L0 17L0 20L1 20L1 18L4 18L4 15L3 15L3 12L4 12L4 11L5 11L5 10L4 10L4 11L3 11L3 9ZM10 9L10 10L11 10L11 11L10 11L10 12L8 12L8 13L10 13L10 12L12 12L12 10L11 10L11 9ZM29 10L29 11L30 11L30 10ZM25 11L25 12L26 12L26 11ZM38 11L38 12L39 12L39 11ZM27 12L27 13L28 13L28 12ZM36 12L36 13L34 13L34 15L35 15L35 16L34 16L34 17L35 17L35 18L36 18L36 20L39 20L39 21L40 21L40 20L39 20L39 19L40 19L40 16L39 16L39 17L38 17L38 18L39 18L39 19L37 19L37 18L36 18L36 17L37 17L37 16L38 16L38 15L39 15L39 13L38 13L38 15L36 15L36 13L37 13L37 12ZM6 13L6 14L7 14L7 13ZM16 13L16 14L15 14L15 16L16 16L16 17L17 17L17 16L16 16L16 14L17 14L17 13ZM31 13L31 14L32 14L32 17L33 17L33 14L32 14L32 13ZM2 15L2 16L3 16L3 15ZM35 16L35 17L36 17L36 16ZM12 18L12 19L10 19L10 20L12 20L12 19L13 19L13 18ZM14 18L14 20L15 20L15 21L14 21L14 22L13 22L13 21L12 21L12 22L11 22L11 21L9 21L9 23L8 23L8 21L6 21L6 20L5 20L5 22L4 22L4 23L3 23L3 24L2 24L2 25L3 25L3 28L4 28L4 27L5 27L5 26L4 26L4 23L5 23L5 22L7 22L7 23L6 23L6 24L5 24L5 25L6 25L6 26L8 26L8 25L6 25L6 24L7 24L7 23L8 23L8 24L9 24L9 23L10 23L10 22L11 22L11 23L14 23L14 24L16 24L16 23L15 23L15 22L16 22L16 21L18 21L18 20L15 20L15 18ZM23 19L23 20L22 20L22 21L21 21L21 22L20 22L20 23L22 23L22 24L23 24L23 23L24 23L24 25L22 25L22 26L26 26L26 27L24 27L24 30L23 30L23 31L22 31L22 30L20 30L20 31L22 31L22 32L23 32L23 33L25 33L25 32L29 32L29 33L31 33L31 32L29 32L29 29L31 29L31 28L29 28L29 29L28 29L28 28L27 28L27 29L28 29L28 31L27 31L27 30L26 30L26 27L29 27L29 26L30 26L30 25L29 25L29 26L28 26L28 24L27 24L27 23L26 23L26 21L25 21L25 20L24 20L24 19ZM23 21L23 22L22 22L22 23L23 23L23 22L25 22L25 21ZM37 22L37 23L38 23L38 22ZM25 23L25 25L27 25L27 24L26 24L26 23ZM39 23L39 24L41 24L41 23ZM19 24L19 25L20 25L20 26L21 26L21 24ZM14 25L14 26L15 26L15 25ZM9 26L9 28L8 28L8 29L9 29L9 28L10 28L10 26ZM18 26L18 27L19 27L19 26ZM36 26L36 27L37 27L37 26ZM38 26L38 27L39 27L39 26ZM6 27L6 28L7 28L7 27ZM22 27L22 28L23 28L23 27ZM32 28L32 29L33 29L33 28ZM4 30L4 31L3 31L3 32L2 32L2 33L3 33L3 32L4 32L4 33L5 33L5 31L7 31L7 30ZM30 30L30 31L32 31L32 30ZM23 31L23 32L24 32L24 31ZM6 32L6 33L7 33L7 32ZM21 33L21 34L20 34L20 35L21 35L21 34L22 34L22 33ZM26 33L26 34L27 34L27 35L28 35L28 33ZM33 33L33 36L36 36L36 33ZM11 34L11 35L10 35L10 36L11 36L11 35L12 35L12 34ZM34 34L34 35L35 35L35 34ZM37 34L37 38L40 38L40 37L39 37L39 36L40 36L40 35L38 35L38 34ZM10 37L10 38L11 38L11 37ZM16 37L16 38L17 38L17 37ZM34 37L34 38L36 38L36 37ZM24 38L24 39L25 39L25 38ZM12 40L12 41L13 41L13 40ZM0 0L0 7L7 7L7 0ZM1 1L1 6L6 6L6 1ZM2 2L2 5L5 5L5 2ZM34 0L34 7L41 7L41 0ZM35 1L35 6L40 6L40 1ZM36 2L36 5L39 5L39 2ZM0 34L0 41L7 41L7 34ZM1 35L1 40L6 40L6 35ZM2 36L2 39L5 39L5 36Z" fill="#000000"/></g></g></svg>
