<?xml version="1.0" encoding="UTF-8"?>
<svg xmlns="http://www.w3.org/2000/svg" version="1.1" width="200" height="200" viewBox="0 0 200 200"><rect x="0" y="0" width="200" height="200" fill="#ffffff"/><g transform="scale(6.897)"><g transform="translate(0,0)"><path fill-rule="evenodd" d="M9 0L9 2L8 2L8 4L9 4L9 6L8 6L8 7L9 7L9 9L8 9L8 8L6 8L6 9L7 9L7 10L3 10L3 9L5 9L5 8L3 8L3 9L1 9L1 10L0 10L0 15L1 15L1 16L2 16L2 17L3 17L3 18L1 18L1 17L0 17L0 21L2 21L2 19L5 19L5 21L7 21L7 20L8 20L8 19L7 19L7 18L6 18L6 19L5 19L5 15L7 15L7 16L6 16L6 17L7 17L7 16L8 16L8 18L9 18L9 20L11 20L11 19L10 19L10 18L11 18L11 17L12 17L12 18L15 18L15 17L16 17L16 19L15 19L15 20L18 20L18 21L16 21L16 23L15 23L15 25L14 25L14 22L13 22L13 21L10 21L10 22L11 22L11 23L9 23L9 21L8 21L8 23L9 23L9 24L8 24L8 26L9 26L9 24L10 24L10 25L11 25L11 23L12 23L12 22L13 22L13 24L12 24L12 26L10 26L10 28L11 28L11 29L12 29L12 28L13 28L13 29L14 29L14 28L16 28L16 29L20 29L20 28L21 28L21 29L23 29L23 28L24 28L24 29L28 29L28 28L27 28L27 27L29 27L29 26L26 26L26 25L29 25L29 22L28 22L28 21L26 21L26 20L23 20L23 19L25 19L25 18L26 18L26 19L27 19L27 18L28 18L28 19L29 19L29 17L28 17L28 16L29 16L29 14L28 14L28 13L29 13L29 11L28 11L28 10L27 10L27 8L25 8L25 9L26 9L26 10L25 10L25 12L24 12L24 16L23 16L23 12L22 12L22 11L21 11L21 10L19 10L19 9L16 9L16 8L19 8L19 6L20 6L20 7L21 7L21 4L19 4L19 3L20 3L20 1L21 1L21 0L19 0L19 1L18 1L18 0L17 0L17 1L18 1L18 2L19 2L19 3L18 3L18 4L19 4L19 6L18 6L18 7L17 7L17 5L16 5L16 4L17 4L17 2L16 2L16 0L15 0L15 1L14 1L14 0L13 0L13 2L11 2L11 0ZM9 2L9 4L11 4L11 5L10 5L10 6L9 6L9 7L10 7L10 8L11 8L11 7L12 7L12 6L13 6L13 8L12 8L12 9L9 9L9 11L8 11L8 10L7 10L7 11L6 11L6 12L5 12L5 11L3 11L3 12L2 12L2 11L1 11L1 12L2 12L2 13L3 13L3 14L8 14L8 16L10 16L10 17L11 17L11 16L10 16L10 15L11 15L11 14L12 14L12 17L15 17L15 16L16 16L16 17L17 17L17 18L20 18L20 19L21 19L21 20L22 20L22 19L21 19L21 16L20 16L20 15L21 15L21 14L22 14L22 12L21 12L21 14L20 14L20 15L19 15L19 17L17 17L17 15L18 15L18 14L17 14L17 15L16 15L16 14L14 14L14 15L15 15L15 16L13 16L13 14L12 14L12 13L13 13L13 12L12 12L12 11L11 11L11 10L13 10L13 11L15 11L15 12L14 12L14 13L18 13L18 11L17 11L17 12L16 12L16 11L15 11L15 10L16 10L16 9L15 9L15 8L14 8L14 6L13 6L13 5L14 5L14 4L16 4L16 2L13 2L13 3L14 3L14 4L13 4L13 5L12 5L12 3L10 3L10 2ZM11 5L11 6L10 6L10 7L11 7L11 6L12 6L12 5ZM15 6L15 7L16 7L16 6ZM13 9L13 10L15 10L15 9ZM22 9L22 10L23 10L23 11L24 11L24 9ZM26 10L26 11L27 11L27 12L28 12L28 11L27 11L27 10ZM9 11L9 12L8 12L8 13L9 13L9 15L10 15L10 12L11 12L11 13L12 13L12 12L11 12L11 11ZM4 12L4 13L5 13L5 12ZM6 12L6 13L7 13L7 12ZM19 12L19 13L20 13L20 12ZM25 13L25 16L26 16L26 17L27 17L27 16L28 16L28 15L27 15L27 16L26 16L26 13ZM2 15L2 16L4 16L4 15ZM22 16L22 17L23 17L23 16ZM6 19L6 20L7 20L7 19ZM12 19L12 20L14 20L14 19ZM3 20L3 21L4 21L4 20ZM18 21L18 22L17 22L17 23L18 23L18 24L17 24L17 25L16 25L16 26L14 26L14 27L13 27L13 28L14 28L14 27L16 27L16 28L17 28L17 27L16 27L16 26L17 26L17 25L18 25L18 26L19 26L19 28L20 28L20 27L21 27L21 26L22 26L22 28L23 28L23 27L26 27L26 26L24 26L24 25L19 25L19 24L20 24L20 21ZM21 21L21 24L24 24L24 21ZM22 22L22 23L23 23L23 22ZM25 22L25 25L26 25L26 24L28 24L28 23L27 23L27 22ZM11 27L11 28L12 28L12 27ZM0 0L0 7L7 7L7 0ZM1 1L1 6L6 6L6 1ZM2 2L2 5L5 5L5 2ZM22 0L22 7L29 7L29 0ZM23 1L23 6L28 6L28 1ZM24 2L24 5L27 5L27 2ZM0 22L0 29L7 29L7 22ZM1 23L1 28L6 28L6 23ZM2 24L2 27L5 27L5 24Z" fill="#000000"/></g></g></svg>
