<?xml version="1.0" encoding="UTF-8"?>
<svg xmlns="http://www.w3.org/2000/svg" version="1.1" width="200" height="200" viewBox="0 0 200 200"><rect x="0" y="0" width="200" height="200" fill="#ffffff"/><g transform="scale(4.878)"><g transform="translate(0,0)"><path fill-rule="evenodd" d="M8 0L8 3L10 3L10 5L11 5L11 6L10 6L10 7L9 7L9 5L8 5L8 9L9 9L9 8L10 8L10 10L6 10L6 11L7 11L7 12L6 12L6 13L7 13L7 12L8 12L8 13L9 13L9 15L8 15L8 16L9 16L9 15L11 15L11 14L12 14L12 16L13 16L13 14L14 14L14 13L15 13L15 14L16 14L16 12L17 12L17 13L18 13L18 15L14 15L14 16L16 16L16 17L14 17L14 18L12 18L12 17L11 17L11 16L10 16L10 17L11 17L11 18L10 18L10 19L9 19L9 17L8 17L8 18L6 18L6 19L7 19L7 20L6 20L6 21L4 21L4 20L5 20L5 16L4 16L4 15L3 15L3 14L5 14L5 13L4 13L4 12L5 12L5 10L4 10L4 11L3 11L3 10L1 10L1 11L0 11L0 14L1 14L1 15L0 15L0 16L3 16L3 18L2 18L2 20L1 20L1 17L0 17L0 21L3 21L3 22L1 22L1 23L0 23L0 24L1 24L1 25L0 25L0 26L1 26L1 27L0 27L0 33L1 33L1 29L2 29L2 32L4 32L4 33L7 33L7 32L8 32L8 34L10 34L10 35L9 35L9 36L8 36L8 39L10 39L10 38L9 38L9 37L10 37L10 35L11 35L11 33L12 33L12 34L13 34L13 35L12 35L12 37L13 37L13 38L12 38L12 40L13 40L13 41L15 41L15 40L16 40L16 41L17 41L17 40L18 40L18 41L22 41L22 40L20 40L20 39L17 39L17 37L18 37L18 38L20 38L20 37L18 37L18 34L17 34L17 35L16 35L16 33L17 33L17 32L16 32L16 33L15 33L15 32L14 32L14 30L15 30L15 31L18 31L18 33L19 33L19 35L21 35L21 39L23 39L23 40L24 40L24 41L25 41L25 40L27 40L27 41L32 41L32 40L33 40L33 41L34 41L34 40L33 40L33 39L32 39L32 38L26 38L26 39L24 39L24 36L25 36L25 37L27 37L27 36L28 36L28 37L29 37L29 36L28 36L28 35L29 35L29 33L31 33L31 34L30 34L30 35L32 35L32 37L33 37L33 38L34 38L34 39L35 39L35 40L36 40L36 39L39 39L39 40L40 40L40 38L41 38L41 37L39 37L39 36L40 36L40 34L41 34L41 33L40 33L40 32L41 32L41 31L40 31L40 30L41 30L41 29L40 29L40 28L41 28L41 27L40 27L40 26L41 26L41 23L40 23L40 26L39 26L39 24L37 24L37 25L36 25L36 23L34 23L34 24L35 24L35 25L33 25L33 24L32 24L32 23L33 23L33 22L32 22L32 21L34 21L34 22L36 22L36 21L37 21L37 20L38 20L38 22L39 22L39 20L38 20L38 18L37 18L37 17L39 17L39 16L37 16L37 15L39 15L39 14L41 14L41 13L39 13L39 14L37 14L37 13L36 13L36 14L35 14L35 17L34 17L34 16L33 16L33 15L34 15L34 14L33 14L33 13L34 13L34 12L33 12L33 11L34 11L34 10L35 10L35 11L36 11L36 12L38 12L38 11L40 11L40 12L41 12L41 11L40 11L40 10L41 10L41 8L38 8L38 9L40 9L40 10L37 10L37 9L36 9L36 8L32 8L32 7L33 7L33 5L32 5L32 4L33 4L33 1L32 1L32 0L31 0L31 1L30 1L30 2L31 2L31 1L32 1L32 4L31 4L31 3L30 3L30 4L31 4L31 5L32 5L32 7L31 7L31 6L30 6L30 7L31 7L31 8L29 8L29 6L28 6L28 5L29 5L29 4L28 4L28 5L27 5L27 6L26 6L26 5L25 5L25 3L26 3L26 4L27 4L27 3L29 3L29 1L27 1L27 0L21 0L21 1L20 1L20 0L19 0L19 1L20 1L20 3L22 3L22 4L19 4L19 2L17 2L17 3L18 3L18 4L16 4L16 5L17 5L17 6L16 6L16 7L17 7L17 6L18 6L18 9L17 9L17 10L16 10L16 11L15 11L15 10L14 10L14 9L13 9L13 6L14 6L14 7L15 7L15 6L14 6L14 4L13 4L13 3L16 3L16 1L15 1L15 2L13 2L13 1L12 1L12 2L13 2L13 3L12 3L12 5L11 5L11 3L10 3L10 2L9 2L9 1L10 1L10 0ZM21 1L21 2L22 2L22 3L25 3L25 2L24 2L24 1ZM26 2L26 3L27 3L27 2ZM22 4L22 6L21 6L21 7L20 7L20 6L19 6L19 5L18 5L18 6L19 6L19 8L20 8L20 9L19 9L19 10L17 10L17 12L18 12L18 13L19 13L19 15L18 15L18 16L17 16L17 17L19 17L19 16L21 16L21 17L22 17L22 16L21 16L21 15L22 15L22 14L20 14L20 13L21 13L21 12L23 12L23 14L25 14L25 13L26 13L26 14L27 14L27 13L28 13L28 14L29 14L29 15L28 15L28 17L27 17L27 16L26 16L26 17L24 17L24 19L23 19L23 20L22 20L22 23L23 23L23 22L24 22L24 26L23 26L23 24L22 24L22 26L21 26L21 27L23 27L23 28L22 28L22 29L23 29L23 30L22 30L22 32L21 32L21 31L20 31L20 33L22 33L22 34L23 34L23 33L24 33L24 32L23 32L23 31L24 31L24 29L25 29L25 31L26 31L26 32L27 32L27 33L26 33L26 36L27 36L27 34L28 34L28 33L29 33L29 32L30 32L30 31L31 31L31 33L32 33L32 32L36 32L36 29L37 29L37 32L39 32L39 28L40 28L40 27L39 27L39 26L38 26L38 28L36 28L36 27L37 27L37 26L36 26L36 25L35 25L35 26L36 26L36 27L35 27L35 28L36 28L36 29L34 29L34 28L33 28L33 27L34 27L34 26L33 26L33 25L32 25L32 24L31 24L31 23L32 23L32 22L30 22L30 21L32 21L32 20L28 20L28 21L26 21L26 20L25 20L25 22L24 22L24 21L23 21L23 20L24 20L24 19L25 19L25 18L29 18L29 16L30 16L30 13L28 13L28 12L31 12L31 14L32 14L32 15L33 15L33 14L32 14L32 13L33 13L33 12L32 12L32 10L34 10L34 9L32 9L32 8L31 8L31 9L30 9L30 10L29 10L29 9L27 9L27 8L26 8L26 6L25 6L25 7L24 7L24 6L23 6L23 4ZM11 6L11 7L10 7L10 8L12 8L12 6ZM22 6L22 9L20 9L20 10L19 10L19 11L18 11L18 12L19 12L19 13L20 13L20 12L21 12L21 10L24 10L24 11L25 11L25 12L24 12L24 13L25 13L25 12L28 12L28 10L27 10L27 9L25 9L25 10L24 10L24 7L23 7L23 6ZM27 6L27 7L28 7L28 6ZM2 8L2 9L5 9L5 8ZM6 8L6 9L7 9L7 8ZM15 8L15 9L16 9L16 8ZM12 9L12 10L10 10L10 11L13 11L13 9ZM31 9L31 10L30 10L30 11L31 11L31 10L32 10L32 9ZM35 9L35 10L36 10L36 11L37 11L37 10L36 10L36 9ZM26 10L26 11L27 11L27 10ZM1 11L1 13L2 13L2 11ZM9 12L9 13L10 13L10 14L11 14L11 13L10 13L10 12ZM13 12L13 13L12 13L12 14L13 14L13 13L14 13L14 12ZM6 14L6 15L7 15L7 14ZM23 15L23 16L24 16L24 15ZM6 16L6 17L7 17L7 16ZM32 16L32 17L33 17L33 16ZM36 16L36 17L35 17L35 19L34 19L34 18L33 18L33 20L34 20L34 21L36 21L36 20L37 20L37 18L36 18L36 17L37 17L37 16ZM40 16L40 18L39 18L39 19L40 19L40 18L41 18L41 16ZM30 17L30 19L32 19L32 18L31 18L31 17ZM3 18L3 19L4 19L4 18ZM16 18L16 19L15 19L15 21L14 21L14 20L13 20L13 21L14 21L14 22L13 22L13 24L11 24L11 23L10 23L10 21L11 21L11 20L10 20L10 21L9 21L9 19L8 19L8 20L7 20L7 21L6 21L6 22L5 22L5 23L4 23L4 22L3 22L3 23L4 23L4 24L3 24L3 25L4 25L4 26L3 26L3 27L1 27L1 28L2 28L2 29L4 29L4 28L5 28L5 27L6 27L6 28L10 28L10 27L9 27L9 26L10 26L10 25L9 25L9 23L10 23L10 24L11 24L11 26L13 26L13 25L14 25L14 26L15 26L15 27L14 27L14 28L15 28L15 27L16 27L16 30L20 30L20 27L19 27L19 26L20 26L20 25L19 25L19 22L17 22L17 21L20 21L20 20L21 20L21 19L22 19L22 18L21 18L21 19L19 19L19 18L18 18L18 19L17 19L17 18ZM16 19L16 21L17 21L17 19ZM35 19L35 20L36 20L36 19ZM40 20L40 21L41 21L41 20ZM7 21L7 22L6 22L6 23L8 23L8 21ZM28 21L28 22L26 22L26 23L25 23L25 25L26 25L26 26L25 26L25 27L24 27L24 28L25 28L25 29L26 29L26 30L29 30L29 31L28 31L28 32L29 32L29 31L30 31L30 30L31 30L31 29L30 29L30 28L29 28L29 29L28 29L28 28L27 28L27 27L28 27L28 26L27 26L27 25L29 25L29 26L32 26L32 25L30 25L30 24L28 24L28 22L29 22L29 23L30 23L30 22L29 22L29 21ZM14 22L14 25L15 25L15 26L17 26L17 24L18 24L18 23L17 23L17 24L16 24L16 23L15 23L15 22ZM20 23L20 24L21 24L21 23ZM5 24L5 26L6 26L6 27L8 27L8 26L9 26L9 25L8 25L8 24ZM26 24L26 25L27 25L27 24ZM1 25L1 26L2 26L2 25ZM6 25L6 26L8 26L8 25ZM18 25L18 26L19 26L19 25ZM26 26L26 27L25 27L25 28L26 28L26 27L27 27L27 26ZM3 27L3 28L4 28L4 27ZM11 27L11 28L12 28L12 29L13 29L13 30L14 30L14 29L13 29L13 28L12 28L12 27ZM18 27L18 29L19 29L19 27ZM32 28L32 29L33 29L33 30L32 30L32 31L33 31L33 30L34 30L34 31L35 31L35 30L34 30L34 29L33 29L33 28ZM5 29L5 32L7 32L7 31L8 31L8 32L9 32L9 31L10 31L10 33L11 33L11 31L10 31L10 30L11 30L11 29ZM29 29L29 30L30 30L30 29ZM3 30L3 31L4 31L4 30ZM6 30L6 31L7 31L7 30ZM12 31L12 33L14 33L14 34L15 34L15 33L14 33L14 32L13 32L13 31ZM22 32L22 33L23 33L23 32ZM33 33L33 36L36 36L36 33ZM38 33L38 36L37 36L37 37L38 37L38 38L39 38L39 37L38 37L38 36L39 36L39 33ZM34 34L34 35L35 35L35 34ZM14 35L14 36L16 36L16 37L15 37L15 39L14 39L14 38L13 38L13 39L14 39L14 40L15 40L15 39L16 39L16 37L17 37L17 36L16 36L16 35ZM23 35L23 36L22 36L22 37L23 37L23 36L24 36L24 35ZM30 36L30 37L31 37L31 36ZM34 37L34 38L36 38L36 37ZM28 39L28 40L30 40L30 39ZM31 39L31 40L32 40L32 39ZM9 40L9 41L10 41L10 40ZM0 0L0 7L7 7L7 0ZM1 1L1 6L6 6L6 1ZM2 2L2 5L5 5L5 2ZM34 0L34 7L41 7L41 0ZM35 1L35 6L40 6L40 1ZM36 2L36 5L39 5L39 2ZM0 34L0 41L7 41L7 34ZM1 35L1 40L6 40L6 35ZM2 36L2 39L5 39L5 36Z" fill="#000000"/></g></g></svg>
