<?xml version="1.0" encoding="UTF-8"?>
<svg xmlns="http://www.w3.org/2000/svg" version="1.1" width="200" height="200" viewBox="0 0 200 200"><rect x="0" y="0" width="200" height="200" fill="#ffffff"/><g transform="scale(6.897)"><g transform="translate(0,0)"><path fill-rule="evenodd" d="M9 0L9 1L11 1L11 0ZM12 0L12 2L10 2L10 3L11 3L11 4L9 4L9 2L8 2L8 4L9 4L9 5L10 5L10 8L11 8L11 4L12 4L12 8L13 8L13 4L14 4L14 5L15 5L15 6L14 6L14 7L15 7L15 6L16 6L16 7L17 7L17 8L19 8L19 6L20 6L20 8L21 8L21 4L19 4L19 3L20 3L20 1L21 1L21 0L19 0L19 1L18 1L18 0L16 0L16 2L17 2L17 1L18 1L18 2L19 2L19 3L18 3L18 4L19 4L19 6L18 6L18 7L17 7L17 6L16 6L16 5L17 5L17 4L14 4L14 2L15 2L15 0L14 0L14 1L13 1L13 0ZM12 2L12 4L13 4L13 2ZM8 6L8 7L9 7L9 6ZM3 8L3 9L4 9L4 10L5 10L5 11L4 11L4 12L3 12L3 13L2 13L2 12L1 12L1 11L3 11L3 10L2 10L2 9L0 9L0 12L1 12L1 14L0 14L0 15L2 15L2 16L3 16L3 17L2 17L2 18L1 18L1 16L0 16L0 21L8 21L8 23L10 23L10 24L8 24L8 26L9 26L9 25L11 25L11 26L10 26L10 27L11 27L11 29L12 29L12 28L13 28L13 29L14 29L14 28L15 28L15 29L17 29L17 28L16 28L16 27L15 27L15 26L14 26L14 25L16 25L16 24L13 24L13 25L11 25L11 24L12 24L12 23L11 23L11 22L12 22L12 20L16 20L16 18L18 18L18 15L17 15L17 17L16 17L16 18L15 18L15 17L14 17L14 14L15 14L15 15L16 15L16 14L19 14L19 15L20 15L20 16L21 16L21 19L20 19L20 18L19 18L19 21L18 21L18 20L17 20L17 21L18 21L18 22L16 22L16 21L15 21L15 22L16 22L16 23L17 23L17 24L18 24L18 23L19 23L19 21L20 21L20 24L19 24L19 25L24 25L24 26L25 26L25 27L23 27L23 28L22 28L22 26L21 26L21 27L20 27L20 28L19 28L19 27L18 27L18 25L17 25L17 27L18 27L18 29L20 29L20 28L21 28L21 29L23 29L23 28L24 28L24 29L25 29L25 28L26 28L26 29L28 29L28 28L26 28L26 26L25 26L25 22L27 22L27 23L28 23L28 24L26 24L26 25L29 25L29 22L28 22L28 21L26 21L26 19L27 19L27 18L28 18L28 19L29 19L29 17L28 17L28 16L29 16L29 14L27 14L27 13L29 13L29 11L28 11L28 10L27 10L27 11L26 11L26 9L27 9L27 8L25 8L25 12L24 12L24 16L23 16L23 12L22 12L22 11L21 11L21 10L19 10L19 9L17 9L17 10L19 10L19 11L16 11L16 12L15 12L15 10L14 10L14 14L13 14L13 17L14 17L14 18L12 18L12 17L11 17L11 18L10 18L10 19L9 19L9 17L10 17L10 16L12 16L12 15L11 15L11 14L12 14L12 13L13 13L13 9L12 9L12 10L9 10L9 12L12 12L12 13L10 13L10 15L9 15L9 13L8 13L8 15L7 15L7 14L6 14L6 15L5 15L5 16L4 16L4 13L5 13L5 11L8 11L8 8L6 8L6 9L7 9L7 10L5 10L5 8ZM22 9L22 10L23 10L23 11L24 11L24 9ZM27 11L27 12L28 12L28 11ZM6 12L6 13L7 13L7 12ZM17 12L17 13L18 13L18 12ZM19 12L19 13L20 13L20 12ZM21 12L21 14L20 14L20 15L21 15L21 14L22 14L22 12ZM15 13L15 14L16 14L16 13ZM25 13L25 16L26 16L26 17L27 17L27 16L28 16L28 15L27 15L27 16L26 16L26 13ZM2 14L2 15L3 15L3 14ZM6 15L6 16L7 16L7 15ZM22 16L22 17L23 17L23 16ZM3 17L3 19L2 19L2 20L7 20L7 19L8 19L8 21L9 21L9 22L10 22L10 21L11 21L11 20L12 20L12 19L10 19L10 20L9 20L9 19L8 19L8 17ZM4 18L4 19L7 19L7 18ZM14 18L14 19L15 19L15 18ZM25 18L25 19L23 19L23 20L25 20L25 19L26 19L26 18ZM21 19L21 20L22 20L22 19ZM21 21L21 24L24 24L24 21ZM13 22L13 23L14 23L14 22ZM22 22L22 23L23 23L23 22ZM11 26L11 27L13 27L13 28L14 28L14 27L13 27L13 26ZM27 26L27 27L29 27L29 26ZM9 28L9 29L10 29L10 28ZM0 0L0 7L7 7L7 0ZM1 1L1 6L6 6L6 1ZM2 2L2 5L5 5L5 2ZM22 0L22 7L29 7L29 0ZM23 1L23 6L28 6L28 1ZM24 2L24 5L27 5L27 2ZM0 22L0 29L7 29L7 22ZM1 23L1 28L6 28L6 23ZM2 24L2 27L5 27L5 24Z" fill="#000000"/></g></g></svg>
