<?xml version="1.0" encoding="UTF-8"?>
<svg xmlns="http://www.w3.org/2000/svg" version="1.1" width="200" height="200" viewBox="0 0 200 200"><rect x="0" y="0" width="200" height="200" fill="#ffffff"/><g transform="scale(6.897)"><g transform="translate(0,0)"><path fill-rule="evenodd" d="M8 0L8 3L9 3L9 4L10 4L10 5L8 5L8 9L7 9L7 8L6 8L6 9L7 9L7 10L6 10L6 11L7 11L7 10L8 10L8 9L9 9L9 10L10 10L10 9L11 9L11 11L12 11L12 9L13 9L13 10L14 10L14 11L13 11L13 12L14 12L14 13L12 13L12 14L11 14L11 15L10 15L10 14L9 14L9 13L11 13L11 12L9 12L9 11L8 11L8 12L9 12L9 13L7 13L7 12L5 12L5 8L2 8L2 9L1 9L1 10L0 10L0 14L1 14L1 11L2 11L2 13L3 13L3 14L2 14L2 16L1 16L1 15L0 15L0 16L1 16L1 17L0 17L0 21L1 21L1 17L2 17L2 19L4 19L4 18L3 18L3 17L2 17L2 16L4 16L4 17L5 17L5 16L6 16L6 17L7 17L7 16L8 16L8 18L5 18L5 20L3 20L3 21L7 21L7 20L6 20L6 19L8 19L8 20L9 20L9 19L10 19L10 21L8 21L8 22L9 22L9 24L8 24L8 27L9 27L9 28L10 28L10 27L9 27L9 26L10 26L10 25L9 25L9 24L11 24L11 25L12 25L12 23L11 23L11 22L16 22L16 23L17 23L17 22L18 22L18 21L19 21L19 18L18 18L18 17L19 17L19 16L18 16L18 15L15 15L15 14L14 14L14 13L15 13L15 12L16 12L16 14L17 14L17 13L18 13L18 14L19 14L19 13L20 13L20 12L21 12L21 11L20 11L20 10L22 10L22 9L23 9L23 10L24 10L24 8L21 8L21 5L20 5L20 4L21 4L21 3L20 3L20 4L19 4L19 3L18 3L18 4L17 4L17 6L16 6L16 8L15 8L15 5L16 5L16 3L14 3L14 2L13 2L13 3L12 3L12 4L11 4L11 3L9 3L9 1L10 1L10 2L12 2L12 1L13 1L13 0L12 0L12 1L11 1L11 0ZM14 0L14 1L17 1L17 0ZM18 1L18 2L19 2L19 1ZM20 1L20 2L21 2L21 1ZM14 4L14 5L11 5L11 7L10 7L10 6L9 6L9 7L10 7L10 8L11 8L11 7L12 7L12 6L13 6L13 8L14 8L14 9L15 9L15 11L18 11L18 10L17 10L17 9L19 9L19 10L20 10L20 9L21 9L21 8L20 8L20 9L19 9L19 8L17 8L17 9L15 9L15 8L14 8L14 5L15 5L15 4ZM18 4L18 6L17 6L17 7L18 7L18 6L19 6L19 7L20 7L20 6L19 6L19 4ZM26 8L26 9L27 9L27 10L25 10L25 12L24 12L24 11L22 11L22 12L23 12L23 13L21 13L21 15L22 15L22 14L23 14L23 13L24 13L24 19L26 19L26 20L28 20L28 22L26 22L26 21L25 21L25 20L23 20L23 19L22 19L22 18L20 18L20 19L21 19L21 20L20 20L20 25L18 25L18 24L15 24L15 23L14 23L14 24L13 24L13 25L14 25L14 24L15 24L15 25L16 25L16 27L17 27L17 28L16 28L16 29L17 29L17 28L18 28L18 29L25 29L25 27L27 27L27 28L26 28L26 29L28 29L28 28L29 28L29 27L28 27L28 23L29 23L29 20L28 20L28 19L26 19L26 18L27 18L27 17L28 17L28 14L26 14L26 13L25 13L25 12L27 12L27 13L28 13L28 10L29 10L29 8ZM3 9L3 10L2 10L2 11L3 11L3 13L4 13L4 16L5 16L5 14L7 14L7 15L6 15L6 16L7 16L7 15L9 15L9 14L7 14L7 13L5 13L5 12L4 12L4 11L3 11L3 10L4 10L4 9ZM12 14L12 16L11 16L11 17L9 17L9 18L8 18L8 19L9 19L9 18L12 18L12 19L11 19L11 21L10 21L10 22L11 22L11 21L13 21L13 20L14 20L14 21L15 21L15 20L17 20L17 21L16 21L16 22L17 22L17 21L18 21L18 20L17 20L17 19L18 19L18 18L17 18L17 16L16 16L16 18L17 18L17 19L15 19L15 20L14 20L14 19L13 19L13 14ZM25 15L25 16L27 16L27 15ZM20 16L20 17L22 17L22 16ZM14 17L14 18L15 18L15 17ZM12 19L12 20L13 20L13 19ZM21 21L21 24L24 24L24 21ZM22 22L22 23L23 23L23 22ZM25 22L25 24L26 24L26 26L27 26L27 23L26 23L26 22ZM22 25L22 26L23 26L23 27L25 27L25 26L24 26L24 25ZM11 26L11 27L12 27L12 28L11 28L11 29L12 29L12 28L13 28L13 29L15 29L15 28L13 28L13 27L12 27L12 26ZM20 26L20 27L19 27L19 28L22 28L22 27L21 27L21 26ZM0 0L0 7L7 7L7 0ZM1 1L1 6L6 6L6 1ZM2 2L2 5L5 5L5 2ZM22 0L22 7L29 7L29 0ZM23 1L23 6L28 6L28 1ZM24 2L24 5L27 5L27 2ZM0 22L0 29L7 29L7 22ZM1 23L1 28L6 28L6 23ZM2 24L2 27L5 27L5 24Z" fill="#000000"/></g></g></svg>
