<?xml version="1.0" encoding="UTF-8"?>
<svg xmlns="http://www.w3.org/2000/svg" version="1.1" width="200" height="200" viewBox="0 0 200 200"><rect x="0" y="0" width="200" height="200" fill="#ffffff"/><g transform="scale(4.878)"><g transform="translate(0,0)"><path fill-rule="evenodd" d="M11 0L11 1L10 1L10 2L11 2L11 3L9 3L9 4L10 4L10 5L11 5L11 3L12 3L12 4L13 4L13 6L12 6L12 7L11 7L11 6L10 6L10 7L11 7L11 8L10 8L10 9L11 9L11 10L10 10L10 11L9 11L9 10L8 10L8 8L9 8L9 5L8 5L8 8L4 8L4 9L3 9L3 10L2 10L2 11L3 11L3 10L4 10L4 11L5 11L5 13L7 13L7 14L6 14L6 15L4 15L4 12L3 12L3 15L2 15L2 14L1 14L1 11L0 11L0 14L1 14L1 16L3 16L3 17L4 17L4 16L5 16L5 18L4 18L4 20L3 20L3 18L2 18L2 17L0 17L0 22L1 22L1 23L0 23L0 24L1 24L1 23L3 23L3 24L2 24L2 25L1 25L1 26L0 26L0 28L1 28L1 29L0 29L0 30L1 30L1 29L2 29L2 26L4 26L4 27L3 27L3 28L4 28L4 30L2 30L2 31L5 31L5 32L3 32L3 33L5 33L5 32L6 32L6 33L8 33L8 37L9 37L9 39L10 39L10 38L12 38L12 37L9 37L9 36L11 36L11 35L9 35L9 34L11 34L11 33L10 33L10 32L9 32L9 29L10 29L10 28L11 28L11 26L12 26L12 27L14 27L14 30L13 30L13 28L12 28L12 29L11 29L11 30L10 30L10 31L11 31L11 32L12 32L12 34L15 34L15 35L16 35L16 34L17 34L17 35L19 35L19 36L16 36L16 37L15 37L15 36L14 36L14 35L12 35L12 36L14 36L14 37L13 37L13 38L15 38L15 39L13 39L13 41L17 41L17 37L19 37L19 38L18 38L18 39L19 39L19 38L20 38L20 40L19 40L19 41L22 41L22 40L25 40L25 41L26 41L26 40L29 40L29 41L30 41L30 39L31 39L31 41L33 41L33 39L34 39L34 40L35 40L35 39L34 39L34 37L36 37L36 38L37 38L37 37L38 37L38 35L40 35L40 38L38 38L38 39L36 39L36 40L37 40L37 41L40 41L40 40L41 40L41 33L40 33L40 31L41 31L41 29L40 29L40 28L38 28L38 26L37 26L37 25L39 25L39 27L41 27L41 24L40 24L40 23L41 23L41 22L40 22L40 21L41 21L41 13L40 13L40 12L38 12L38 11L41 11L41 9L40 9L40 8L39 8L39 9L36 9L36 8L34 8L34 9L33 9L33 8L30 8L30 7L31 7L31 6L32 6L32 7L33 7L33 6L32 6L32 5L31 5L31 3L29 3L29 4L30 4L30 5L29 5L29 6L28 6L28 9L27 9L27 8L25 8L25 5L24 5L24 4L25 4L25 3L24 3L24 2L26 2L26 3L28 3L28 2L30 2L30 1L31 1L31 2L32 2L32 3L33 3L33 1L31 1L31 0L29 0L29 1L28 1L28 0L27 0L27 1L26 1L26 0L25 0L25 1L24 1L24 2L22 2L22 1L21 1L21 2L20 2L20 3L19 3L19 5L18 5L18 2L19 2L19 1L17 1L17 0L16 0L16 1L15 1L15 2L14 2L14 3L12 3L12 1L13 1L13 0ZM8 1L8 2L9 2L9 1ZM16 1L16 4L15 4L15 5L14 5L14 6L13 6L13 8L11 8L11 9L13 9L13 10L11 10L11 11L10 11L10 12L11 12L11 11L13 11L13 10L14 10L14 12L16 12L16 14L15 14L15 15L14 15L14 14L13 14L13 12L12 12L12 13L9 13L9 11L8 11L8 10L7 10L7 9L4 9L4 10L7 10L7 11L6 11L6 12L7 12L7 13L8 13L8 14L9 14L9 15L6 15L6 16L9 16L9 17L6 17L6 18L5 18L5 20L4 20L4 21L1 21L1 22L4 22L4 21L5 21L5 20L8 20L8 21L6 21L6 22L5 22L5 24L7 24L7 25L6 25L6 26L7 26L7 27L4 27L4 28L7 28L7 29L5 29L5 31L6 31L6 32L7 32L7 31L6 31L6 30L7 30L7 29L8 29L8 28L9 28L9 24L11 24L11 25L14 25L14 27L16 27L16 28L15 28L15 29L16 29L16 30L14 30L14 31L13 31L13 30L11 30L11 31L12 31L12 32L13 32L13 33L15 33L15 32L16 32L16 30L17 30L17 31L20 31L20 32L17 32L17 33L19 33L19 35L20 35L20 34L21 34L21 33L20 33L20 32L21 32L21 31L20 31L20 28L21 28L21 29L22 29L22 28L21 28L21 27L20 27L20 23L18 23L18 25L17 25L17 24L15 24L15 20L16 20L16 19L18 19L18 18L19 18L19 20L17 20L17 21L16 21L16 23L17 23L17 21L18 21L18 22L21 22L21 26L22 26L22 23L24 23L24 22L25 22L25 24L26 24L26 26L25 26L25 25L24 25L24 24L23 24L23 26L25 26L25 27L26 27L26 26L27 26L27 25L29 25L29 23L26 23L26 21L28 21L28 22L29 22L29 21L30 21L30 23L31 23L31 24L33 24L33 25L30 25L30 26L31 26L31 27L32 27L32 28L33 28L33 29L32 29L32 31L33 31L33 32L34 32L34 31L35 31L35 32L37 32L37 33L39 33L39 34L40 34L40 33L39 33L39 30L40 30L40 29L39 29L39 30L37 30L37 31L36 31L36 29L37 29L37 26L36 26L36 27L35 27L35 28L34 28L34 27L32 27L32 26L33 26L33 25L37 25L37 24L39 24L39 23L40 23L40 22L39 22L39 20L40 20L40 19L37 19L37 21L38 21L38 22L36 22L36 21L35 21L35 20L36 20L36 19L35 19L35 18L36 18L36 17L37 17L37 18L38 18L38 17L39 17L39 16L40 16L40 15L38 15L38 13L37 13L37 11L35 11L35 10L36 10L36 9L35 9L35 10L33 10L33 9L28 9L28 11L27 11L27 10L26 10L26 11L27 11L27 14L25 14L25 13L26 13L26 12L23 12L23 10L21 10L21 11L20 11L20 8L21 8L21 9L22 9L22 8L21 8L21 7L22 7L22 6L23 6L23 7L24 7L24 6L23 6L23 4L24 4L24 3L23 3L23 4L22 4L22 6L21 6L21 7L20 7L20 6L19 6L19 7L20 7L20 8L19 8L19 9L18 9L18 8L17 8L17 10L16 10L16 6L17 6L17 7L18 7L18 5L16 5L16 4L17 4L17 1ZM27 1L27 2L28 2L28 1ZM20 4L20 5L21 5L21 4ZM27 4L27 5L26 5L26 7L27 7L27 5L28 5L28 4ZM15 5L15 6L14 6L14 8L13 8L13 9L14 9L14 8L15 8L15 6L16 6L16 5ZM30 5L30 6L29 6L29 7L30 7L30 6L31 6L31 5ZM23 8L23 9L24 9L24 10L25 10L25 8ZM0 9L0 10L1 10L1 9ZM15 10L15 11L16 11L16 10ZM18 10L18 11L17 11L17 12L18 12L18 13L19 13L19 12L18 12L18 11L19 11L19 10ZM29 10L29 11L28 11L28 12L29 12L29 13L28 13L28 15L29 15L29 17L33 17L33 16L31 16L31 14L32 14L32 15L34 15L34 16L35 16L35 17L34 17L34 18L35 18L35 17L36 17L36 15L35 15L35 14L33 14L33 13L35 13L35 12L34 12L34 11L33 11L33 10L32 10L32 12L30 12L30 11L31 11L31 10ZM21 11L21 12L20 12L20 14L22 14L22 15L21 15L21 16L22 16L22 17L20 17L20 15L19 15L19 16L18 16L18 14L16 14L16 15L15 15L15 16L13 16L13 15L12 15L12 14L11 14L11 15L12 15L12 16L13 16L13 17L15 17L15 16L17 16L17 17L16 17L16 18L15 18L15 19L16 19L16 18L17 18L17 17L19 17L19 18L22 18L22 20L24 20L24 18L23 18L23 16L25 16L25 21L26 21L26 19L28 19L28 21L29 21L29 20L30 20L30 21L32 21L32 22L33 22L33 23L34 23L34 24L36 24L36 23L35 23L35 21L32 21L32 20L33 20L33 18L32 18L32 20L31 20L31 19L30 19L30 18L28 18L28 16L27 16L27 15L26 15L26 16L25 16L25 14L24 14L24 13L23 13L23 12L22 12L22 11ZM21 12L21 13L22 13L22 14L23 14L23 13L22 13L22 12ZM32 12L32 13L33 13L33 12ZM29 13L29 14L30 14L30 13ZM36 13L36 14L37 14L37 13ZM10 16L10 17L9 17L9 19L12 19L12 21L11 21L11 20L10 20L10 21L9 21L9 23L7 23L7 22L6 22L6 23L7 23L7 24L9 24L9 23L10 23L10 22L12 22L12 23L14 23L14 21L13 21L13 20L14 20L14 19L13 19L13 18L12 18L12 17L11 17L11 16ZM26 16L26 17L27 17L27 16ZM10 17L10 18L11 18L11 17ZM6 18L6 19L8 19L8 18ZM1 19L1 20L2 20L2 19ZM20 19L20 20L19 20L19 21L20 21L20 20L21 20L21 19ZM34 19L34 20L35 20L35 19ZM12 21L12 22L13 22L13 21ZM22 21L22 22L24 22L24 21ZM3 24L3 25L4 25L4 26L5 26L5 25L4 25L4 24ZM14 24L14 25L15 25L15 26L16 26L16 25L15 25L15 24ZM18 25L18 26L17 26L17 27L18 27L18 28L17 28L17 30L19 30L19 25ZM28 26L28 27L27 27L27 30L28 30L28 31L29 31L29 30L30 30L30 29L31 29L31 28L30 28L30 29L28 29L28 27L29 27L29 26ZM7 27L7 28L8 28L8 27ZM23 27L23 28L24 28L24 29L23 29L23 30L22 30L22 32L24 32L24 33L23 33L23 34L25 34L25 37L24 37L24 38L25 38L25 40L26 40L26 39L27 39L27 38L25 38L25 37L26 37L26 35L27 35L27 34L26 34L26 33L29 33L29 32L26 32L26 30L24 30L24 29L25 29L25 28L24 28L24 27ZM35 28L35 29L36 29L36 28ZM33 29L33 30L34 30L34 29ZM23 30L23 31L24 31L24 30ZM30 31L30 33L31 33L31 34L32 34L32 32L31 32L31 31ZM0 32L0 33L2 33L2 32ZM25 32L25 33L26 33L26 32ZM33 33L33 36L36 36L36 33ZM28 34L28 35L29 35L29 37L28 37L28 36L27 36L27 37L28 37L28 39L30 39L30 37L31 37L31 38L32 38L32 39L33 39L33 37L31 37L31 36L32 36L32 35L30 35L30 34ZM34 34L34 35L35 35L35 34ZM21 35L21 36L20 36L20 37L21 37L21 36L24 36L24 35ZM21 38L21 39L22 39L22 38ZM15 39L15 40L16 40L16 39ZM9 40L9 41L10 41L10 40ZM0 0L0 7L7 7L7 0ZM1 1L1 6L6 6L6 1ZM2 2L2 5L5 5L5 2ZM34 0L34 7L41 7L41 0ZM35 1L35 6L40 6L40 1ZM36 2L36 5L39 5L39 2ZM0 34L0 41L7 41L7 34ZM1 35L1 40L6 40L6 35ZM2 36L2 39L5 39L5 36Z" fill="#000000"/></g></g></svg>
