<?xml version="1.0" encoding="UTF-8"?>
<svg xmlns="http://www.w3.org/2000/svg" version="1.1" width="200" height="200" viewBox="0 0 200 200"><rect x="0" y="0" width="200" height="200" fill="#ffffff"/><g transform="scale(6.897)"><g transform="translate(0,0)"><path fill-rule="evenodd" d="M8 0L8 1L10 1L10 2L8 2L8 3L9 3L9 4L8 4L8 5L9 5L9 6L8 6L8 8L9 8L9 9L8 9L8 11L9 11L9 12L6 12L6 11L7 11L7 10L6 10L6 9L7 9L7 8L5 8L5 9L4 9L4 10L3 10L3 9L1 9L1 11L2 11L2 10L3 10L3 13L4 13L4 14L5 14L5 15L3 15L3 14L2 14L2 12L1 12L1 14L0 14L0 16L2 16L2 18L1 18L1 17L0 17L0 21L1 21L1 19L2 19L2 18L3 18L3 19L5 19L5 18L4 18L4 17L3 17L3 16L5 16L5 15L7 15L7 16L6 16L6 17L7 17L7 18L6 18L6 19L7 19L7 20L5 20L5 21L8 21L8 22L9 22L9 19L10 19L10 20L11 20L11 21L12 21L12 22L13 22L13 23L15 23L15 25L14 25L14 24L12 24L12 23L11 23L11 22L10 22L10 23L8 23L8 24L9 24L9 28L10 28L10 23L11 23L11 24L12 24L12 25L11 25L11 26L12 26L12 27L13 27L13 28L11 28L11 29L13 29L13 28L14 28L14 27L13 27L13 26L12 26L12 25L14 25L14 26L15 26L15 27L16 27L16 29L19 29L19 28L21 28L21 27L22 27L22 28L23 28L23 29L25 29L25 28L26 28L26 27L23 27L23 26L21 26L21 25L24 25L24 26L27 26L27 27L28 27L28 26L27 26L27 25L28 25L28 24L26 24L26 25L25 25L25 22L26 22L26 23L27 23L27 21L25 21L25 20L27 20L27 18L28 18L28 16L29 16L29 15L28 15L28 14L26 14L26 13L29 13L29 12L27 12L27 11L28 11L28 10L27 10L27 8L26 8L26 10L25 10L25 8L24 8L24 16L25 16L25 17L24 17L24 19L25 19L25 20L23 20L23 18L21 18L21 17L20 17L20 19L18 19L18 18L19 18L19 16L18 16L18 18L17 18L17 19L18 19L18 20L17 20L17 21L18 21L18 20L19 20L19 21L20 21L20 24L19 24L19 23L17 23L17 22L16 22L16 20L13 20L13 19L11 19L11 18L12 18L12 16L13 16L13 17L17 17L17 16L14 16L14 15L15 15L15 14L16 14L16 15L18 15L18 14L17 14L17 13L21 13L21 12L22 12L22 15L23 15L23 11L21 11L21 5L20 5L20 3L21 3L21 2L20 2L20 0L17 0L17 1L16 1L16 0L15 0L15 2L13 2L13 0L12 0L12 1L10 1L10 0ZM17 1L17 2L16 2L16 3L17 3L17 4L15 4L15 3L13 3L13 2L12 2L12 3L10 3L10 4L9 4L9 5L11 5L11 7L10 7L10 6L9 6L9 8L14 8L14 10L13 10L13 9L11 9L11 10L10 10L10 9L9 9L9 11L11 11L11 12L9 12L9 14L8 14L8 16L7 16L7 17L8 17L8 18L7 18L7 19L8 19L8 18L9 18L9 16L10 16L10 18L11 18L11 16L12 16L12 15L14 15L14 14L15 14L15 13L14 13L14 12L13 12L13 13L12 13L12 14L11 14L11 16L10 16L10 15L9 15L9 14L10 14L10 13L11 13L11 12L12 12L12 11L14 11L14 10L17 10L17 9L18 9L18 10L19 10L19 12L21 12L21 11L20 11L20 9L18 9L18 8L19 8L19 7L20 7L20 6L19 6L19 7L18 7L18 3L19 3L19 2L18 2L18 1ZM14 4L14 5L15 5L15 6L14 6L14 8L15 8L15 6L16 6L16 9L17 9L17 6L16 6L16 5L15 5L15 4ZM12 6L12 7L13 7L13 6ZM22 8L22 10L23 10L23 8ZM28 8L28 9L29 9L29 8ZM4 10L4 11L5 11L5 10ZM4 12L4 13L5 13L5 14L7 14L7 13L6 13L6 12ZM16 12L16 13L17 13L17 12ZM13 13L13 14L14 14L14 13ZM1 14L1 15L2 15L2 16L3 16L3 15L2 15L2 14ZM20 15L20 16L21 16L21 15ZM25 15L25 16L26 16L26 15ZM27 15L27 16L28 16L28 15ZM22 16L22 17L23 17L23 16ZM14 18L14 19L16 19L16 18ZM25 18L25 19L26 19L26 18ZM21 19L21 20L22 20L22 19ZM2 20L2 21L3 21L3 20ZM12 20L12 21L13 21L13 22L15 22L15 21L13 21L13 20ZM28 20L28 22L29 22L29 20ZM21 21L21 24L24 24L24 21ZM22 22L22 23L23 23L23 22ZM16 24L16 25L15 25L15 26L16 26L16 27L17 27L17 26L16 26L16 25L18 25L18 24ZM20 26L20 27L21 27L21 26ZM27 28L27 29L28 29L28 28ZM0 0L0 7L7 7L7 0ZM1 1L1 6L6 6L6 1ZM2 2L2 5L5 5L5 2ZM22 0L22 7L29 7L29 0ZM23 1L23 6L28 6L28 1ZM24 2L24 5L27 5L27 2ZM0 22L0 29L7 29L7 22ZM1 23L1 28L6 28L6 23ZM2 24L2 27L5 27L5 24Z" fill="#000000"/></g></g></svg>
