<?xml version="1.0" encoding="UTF-8"?>
<svg xmlns="http://www.w3.org/2000/svg" version="1.1" width="200" height="200" viewBox="0 0 200 200"><rect x="0" y="0" width="200" height="200" fill="#ffffff"/><g transform="scale(4.878)"><g transform="translate(0,0)"><path fill-rule="evenodd" d="M9 0L9 1L8 1L8 7L9 7L9 5L10 5L10 9L11 9L11 10L10 10L10 11L9 11L9 8L5 8L5 10L4 10L4 9L3 9L3 8L2 8L2 9L3 9L3 10L2 10L2 11L1 11L1 10L0 10L0 12L1 12L1 13L2 13L2 14L3 14L3 13L4 13L4 15L3 15L3 16L4 16L4 17L3 17L3 18L2 18L2 19L4 19L4 17L5 17L5 19L8 19L8 18L6 18L6 17L8 17L8 16L9 16L9 18L10 18L10 19L9 19L9 21L8 21L8 20L5 20L5 21L8 21L8 23L7 23L7 22L6 22L6 23L5 23L5 24L4 24L4 22L3 22L3 23L2 23L2 24L1 24L1 25L2 25L2 24L3 24L3 25L4 25L4 26L6 26L6 27L3 27L3 26L1 26L1 27L3 27L3 28L0 28L0 29L1 29L1 30L0 30L0 31L2 31L2 32L0 32L0 33L2 33L2 32L3 32L3 33L5 33L5 32L6 32L6 33L8 33L8 36L10 36L10 37L9 37L9 38L8 38L8 39L9 39L9 38L11 38L11 39L12 39L12 40L10 40L10 41L13 41L13 40L16 40L16 41L18 41L18 40L19 40L19 38L17 38L17 37L16 37L16 35L15 35L15 34L16 34L16 33L17 33L17 36L19 36L19 37L20 37L20 38L21 38L21 39L22 39L22 38L23 38L23 39L24 39L24 40L25 40L25 39L24 39L24 38L26 38L26 39L28 39L28 38L29 38L29 39L30 39L30 40L31 40L31 41L36 41L36 40L37 40L37 41L39 41L39 39L41 39L41 32L40 32L40 31L41 31L41 25L39 25L39 24L37 24L37 26L36 26L36 24L32 24L32 20L33 20L33 23L34 23L34 22L35 22L35 20L36 20L36 21L37 21L37 22L36 22L36 23L37 23L37 22L38 22L38 21L37 21L37 19L39 19L39 20L40 20L40 19L41 19L41 17L39 17L39 18L37 18L37 19L36 19L36 18L35 18L35 16L34 16L34 15L35 15L35 14L33 14L33 17L34 17L34 18L35 18L35 20L34 20L34 19L33 19L33 18L32 18L32 16L31 16L31 15L32 15L32 14L31 14L31 15L30 15L30 18L29 18L29 19L28 19L28 17L29 17L29 11L30 11L30 13L32 13L32 12L33 12L33 10L35 10L35 9L39 9L39 12L38 12L38 11L37 11L37 10L36 10L36 11L34 11L34 12L35 12L35 13L36 13L36 11L37 11L37 13L39 13L39 16L40 16L40 15L41 15L41 9L40 9L40 8L35 8L35 9L34 9L34 8L32 8L32 7L33 7L33 6L32 6L32 7L31 7L31 6L30 6L30 5L31 5L31 1L29 1L29 0L28 0L28 2L27 2L27 4L28 4L28 2L30 2L30 4L29 4L29 6L28 6L28 7L27 7L27 6L26 6L26 8L24 8L24 9L22 9L22 7L23 7L23 5L24 5L24 7L25 7L25 5L26 5L26 4L25 4L25 3L26 3L26 2L25 2L25 1L26 1L26 0L25 0L25 1L24 1L24 0L23 0L23 1L22 1L22 0L20 0L20 1L17 1L17 0L16 0L16 2L15 2L15 1L14 1L14 3L12 3L12 2L11 2L11 1L12 1L12 0L11 0L11 1L10 1L10 0ZM32 0L32 1L33 1L33 0ZM21 1L21 2L19 2L19 3L16 3L16 5L15 5L15 4L12 4L12 3L11 3L11 2L9 2L9 3L10 3L10 4L11 4L11 7L12 7L12 5L13 5L13 7L14 7L14 5L15 5L15 9L14 9L14 8L12 8L12 11L10 11L10 13L9 13L9 14L8 14L8 12L9 12L9 11L6 11L6 12L7 12L7 13L6 13L6 14L7 14L7 15L6 15L6 16L7 16L7 15L9 15L9 14L10 14L10 16L12 16L12 14L13 14L13 15L14 15L14 14L15 14L15 15L16 15L16 16L14 16L14 17L10 17L10 18L13 18L13 19L12 19L12 20L10 20L10 21L9 21L9 23L8 23L8 24L7 24L7 23L6 23L6 24L7 24L7 25L6 25L6 26L8 26L8 27L6 27L6 28L7 28L7 29L5 29L5 28L3 28L3 29L4 29L4 31L3 31L3 32L4 32L4 31L5 31L5 30L7 30L7 29L8 29L8 30L9 30L9 31L8 31L8 32L12 32L12 33L13 33L13 31L10 31L10 30L11 30L11 29L12 29L12 30L14 30L14 31L16 31L16 32L14 32L14 33L16 33L16 32L17 32L17 33L18 33L18 35L19 35L19 36L20 36L20 37L21 37L21 38L22 38L22 36L23 36L23 35L24 35L24 36L25 36L25 37L26 37L26 36L27 36L27 33L24 33L24 34L22 34L22 32L23 32L23 31L25 31L25 32L28 32L28 36L29 36L29 35L30 35L30 37L29 37L29 38L30 38L30 39L32 39L32 37L31 37L31 35L32 35L32 32L31 32L31 31L32 31L32 29L31 29L31 30L30 30L30 27L31 27L31 28L33 28L33 26L32 26L32 27L31 27L31 26L30 26L30 27L29 27L29 28L28 28L28 29L27 29L27 25L26 25L26 24L24 24L24 23L25 23L25 21L24 21L24 19L25 19L25 20L26 20L26 21L27 21L27 19L26 19L26 17L28 17L28 16L27 16L27 15L28 15L28 13L27 13L27 12L28 12L28 11L27 11L27 10L25 10L25 9L24 9L24 11L22 11L22 10L21 10L21 11L20 11L20 9L19 9L19 7L20 7L20 8L21 8L21 7L22 7L22 6L21 6L21 7L20 7L20 5L22 5L22 4L20 4L20 5L19 5L19 7L18 7L18 6L17 6L17 5L18 5L18 4L19 4L19 3L21 3L21 2L22 2L22 1ZM23 1L23 4L24 4L24 5L25 5L25 4L24 4L24 3L25 3L25 2L24 2L24 1ZM16 6L16 7L17 7L17 9L15 9L15 10L13 10L13 14L14 14L14 11L15 11L15 10L16 10L16 11L17 11L17 10L18 10L18 12L17 12L17 13L15 13L15 14L17 14L17 15L18 15L18 16L17 16L17 17L16 17L16 18L15 18L15 17L14 17L14 19L13 19L13 20L12 20L12 22L11 22L11 21L10 21L10 22L11 22L11 23L9 23L9 24L8 24L8 26L9 26L9 28L8 28L8 29L9 29L9 30L10 30L10 29L11 29L11 28L13 28L13 29L15 29L15 26L14 26L14 28L13 28L13 27L12 27L12 26L13 26L13 23L12 23L12 22L13 22L13 20L14 20L14 21L15 21L15 20L16 20L16 22L15 22L15 23L14 23L14 24L16 24L16 23L17 23L17 24L19 24L19 25L20 25L20 28L21 28L21 26L22 26L22 30L21 30L21 29L18 29L18 28L19 28L19 27L17 27L17 26L18 26L18 25L16 25L16 30L17 30L17 31L18 31L18 33L19 33L19 35L20 35L20 34L21 34L21 31L23 31L23 30L25 30L25 31L26 31L26 30L27 30L27 31L28 31L28 30L27 30L27 29L26 29L26 28L25 28L25 27L24 27L24 26L26 26L26 25L24 25L24 24L23 24L23 23L24 23L24 22L23 22L23 21L22 21L22 20L21 20L21 19L22 19L22 17L24 17L24 16L22 16L22 15L21 15L21 16L22 16L22 17L21 17L21 18L20 18L20 19L17 19L17 18L19 18L19 17L18 17L18 16L20 16L20 15L19 15L19 14L20 14L20 11L19 11L19 10L18 10L18 7L17 7L17 6ZM29 6L29 7L28 7L28 10L30 10L30 11L31 11L31 12L32 12L32 11L31 11L31 10L30 10L30 8L31 8L31 7L30 7L30 6ZM26 8L26 9L27 9L27 8ZM6 9L6 10L7 10L7 9ZM3 11L3 12L5 12L5 11ZM24 11L24 12L22 12L22 13L24 13L24 12L25 12L25 11ZM26 11L26 12L27 12L27 11ZM11 12L11 13L10 13L10 14L11 14L11 13L12 13L12 12ZM18 12L18 13L19 13L19 12ZM26 13L26 15L25 15L25 14L23 14L23 15L25 15L25 17L26 17L26 15L27 15L27 13ZM0 15L0 17L1 17L1 16L2 16L2 15ZM4 15L4 16L5 16L5 15ZM37 15L37 17L38 17L38 15ZM0 18L0 19L1 19L1 18ZM14 19L14 20L15 20L15 19ZM16 19L16 20L17 20L17 21L19 21L19 22L18 22L18 23L19 23L19 22L20 22L20 24L21 24L21 25L22 25L22 24L21 24L21 23L23 23L23 22L20 22L20 20L17 20L17 19ZM29 19L29 20L30 20L30 19ZM3 20L3 21L4 21L4 20ZM1 21L1 22L0 22L0 23L1 23L1 22L2 22L2 21ZM29 21L29 24L28 24L28 26L29 26L29 25L30 25L30 21ZM39 21L39 22L40 22L40 24L41 24L41 22L40 22L40 21ZM11 23L11 24L9 24L9 26L11 26L11 24L12 24L12 23ZM23 25L23 26L24 26L24 25ZM35 26L35 27L34 27L34 28L35 28L35 29L34 29L34 30L33 30L33 31L34 31L34 32L37 32L37 34L40 34L40 33L39 33L39 31L35 31L35 30L37 30L37 27L38 27L38 28L39 28L39 29L38 29L38 30L40 30L40 28L39 28L39 27L38 27L38 26L37 26L37 27L36 27L36 26ZM9 28L9 29L10 29L10 28ZM23 28L23 29L24 29L24 28ZM25 29L25 30L26 30L26 29ZM20 30L20 31L21 31L21 30ZM29 30L29 31L30 31L30 30ZM6 31L6 32L7 32L7 31ZM19 32L19 33L20 33L20 32ZM30 32L30 33L29 33L29 34L31 34L31 32ZM9 33L9 34L10 34L10 35L11 35L11 33ZM33 33L33 36L36 36L36 33ZM12 34L12 35L13 35L13 36L15 36L15 35L13 35L13 34ZM24 34L24 35L25 35L25 36L26 36L26 35L25 35L25 34ZM34 34L34 35L35 35L35 34ZM21 35L21 36L22 36L22 35ZM37 35L37 37L33 37L33 39L34 39L34 40L35 40L35 39L36 39L36 38L37 38L37 37L39 37L39 38L38 38L38 39L39 39L39 38L40 38L40 35ZM11 36L11 38L12 38L12 39L17 39L17 40L18 40L18 39L17 39L17 38L14 38L14 37L12 37L12 36ZM23 37L23 38L24 38L24 37ZM20 40L20 41L21 41L21 40ZM22 40L22 41L23 41L23 40ZM26 40L26 41L27 41L27 40ZM28 40L28 41L29 41L29 40ZM40 40L40 41L41 41L41 40ZM0 0L0 7L7 7L7 0ZM1 1L1 6L6 6L6 1ZM2 2L2 5L5 5L5 2ZM34 0L34 7L41 7L41 0ZM35 1L35 6L40 6L40 1ZM36 2L36 5L39 5L39 2ZM0 34L0 41L7 41L7 34ZM1 35L1 40L6 40L6 35ZM2 36L2 39L5 39L5 36Z" fill="#000000"/></g></g></svg>
