<?xml version="1.0" encoding="UTF-8"?>
<svg xmlns="http://www.w3.org/2000/svg" version="1.1" width="200" height="200" viewBox="0 0 200 200"><rect x="0" y="0" width="200" height="200" fill="#ffffff"/><g transform="scale(6.897)"><g transform="translate(0,0)"><path fill-rule="evenodd" d="M9 0L9 2L11 2L11 3L10 3L10 4L11 4L11 3L12 3L12 7L11 7L11 6L10 6L10 5L9 5L9 4L8 4L8 5L9 5L9 6L8 6L8 8L6 8L6 9L7 9L7 10L6 10L6 11L5 11L5 9L4 9L4 8L2 8L2 9L1 9L1 10L0 10L0 11L1 11L1 10L3 10L3 11L2 11L2 12L1 12L1 13L0 13L0 14L3 14L3 15L4 15L4 14L6 14L6 15L7 15L7 16L1 16L1 18L0 18L0 19L1 19L1 18L3 18L3 19L2 19L2 20L1 20L1 21L3 21L3 20L5 20L5 21L7 21L7 20L5 20L5 19L4 19L4 17L7 17L7 16L8 16L8 17L9 17L9 19L8 19L8 20L9 20L9 21L8 21L8 23L9 23L9 22L10 22L10 23L12 23L12 24L10 24L10 25L13 25L13 23L12 23L12 22L13 22L13 20L11 20L11 19L12 19L12 18L15 18L15 19L14 19L14 21L15 21L15 20L18 20L18 21L20 21L20 23L19 23L19 22L18 22L18 23L17 23L17 24L16 24L16 22L17 22L17 21L16 21L16 22L15 22L15 24L14 24L14 25L15 25L15 26L14 26L14 27L13 27L13 26L12 26L12 27L13 27L13 28L10 28L10 26L9 26L9 25L8 25L8 27L9 27L9 29L14 29L14 27L15 27L15 26L16 26L16 27L18 27L18 28L17 28L17 29L18 29L18 28L19 28L19 29L20 29L20 28L19 28L19 26L20 26L20 25L23 25L23 26L24 26L24 27L22 27L22 29L23 29L23 28L25 28L25 26L24 26L24 25L26 25L26 26L27 26L27 25L26 25L26 23L25 23L25 22L26 22L26 20L24 20L24 19L25 19L25 18L24 18L24 19L22 19L22 18L23 18L23 17L24 17L24 16L25 16L25 17L26 17L26 19L27 19L27 18L29 18L29 17L26 17L26 16L25 16L25 15L24 15L24 16L23 16L23 17L21 17L21 18L20 18L20 17L18 17L18 15L20 15L20 14L21 14L21 13L20 13L20 12L22 12L22 9L23 9L23 13L22 13L22 15L23 15L23 14L24 14L24 13L25 13L25 14L26 14L26 15L27 15L27 16L28 16L28 15L29 15L29 14L28 14L28 15L27 15L27 13L28 13L28 12L29 12L29 11L28 11L28 12L27 12L27 10L29 10L29 9L25 9L25 8L24 8L24 9L23 9L23 8L21 8L21 3L20 3L20 2L18 2L18 1L16 1L16 0L13 0L13 1L14 1L14 2L12 2L12 0ZM17 2L17 4L16 4L16 3L15 3L15 4L14 4L14 3L13 3L13 5L14 5L14 6L13 6L13 7L12 7L12 8L9 8L9 9L11 9L11 10L7 10L7 11L6 11L6 12L5 12L5 13L6 13L6 14L8 14L8 15L11 15L11 14L12 14L12 13L13 13L13 15L12 15L12 16L13 16L13 17L14 17L14 16L13 16L13 15L14 15L14 14L15 14L15 17L17 17L17 16L16 16L16 14L18 14L18 13L17 13L17 11L19 11L19 12L20 12L20 11L19 11L19 10L20 10L20 9L21 9L21 8L19 8L19 7L20 7L20 5L19 5L19 4L20 4L20 3L19 3L19 4L18 4L18 2ZM15 5L15 6L14 6L14 7L13 7L13 8L12 8L12 9L13 9L13 10L11 10L11 11L7 11L7 12L6 12L6 13L7 13L7 12L8 12L8 14L10 14L10 13L11 13L11 12L12 12L12 11L15 11L15 12L13 12L13 13L15 13L15 14L16 14L16 11L17 11L17 10L19 10L19 8L18 8L18 9L16 9L16 11L15 11L15 10L14 10L14 9L15 9L15 8L17 8L17 6L18 6L18 7L19 7L19 5ZM9 6L9 7L10 7L10 6ZM15 6L15 7L16 7L16 6ZM13 8L13 9L14 9L14 8ZM24 9L24 10L25 10L25 9ZM25 11L25 13L27 13L27 12L26 12L26 11ZM2 12L2 13L4 13L4 12ZM19 13L19 14L20 14L20 13ZM9 16L9 17L10 17L10 18L12 18L12 17L10 17L10 16ZM6 18L6 19L7 19L7 18ZM17 18L17 19L18 19L18 20L20 20L20 18ZM9 19L9 20L10 20L10 19ZM21 19L21 20L22 20L22 19ZM27 20L27 24L28 24L28 25L29 25L29 21L28 21L28 20ZM21 21L21 24L24 24L24 21ZM22 22L22 23L23 23L23 22ZM15 24L15 25L16 25L16 26L17 26L17 25L18 25L18 26L19 26L19 25L20 25L20 24L19 24L19 25L18 25L18 24L17 24L17 25L16 25L16 24ZM28 26L28 27L26 27L26 28L29 28L29 26ZM15 28L15 29L16 29L16 28ZM0 0L0 7L7 7L7 0ZM1 1L1 6L6 6L6 1ZM2 2L2 5L5 5L5 2ZM22 0L22 7L29 7L29 0ZM23 1L23 6L28 6L28 1ZM24 2L24 5L27 5L27 2ZM0 22L0 29L7 29L7 22ZM1 23L1 28L6 28L6 23ZM2 24L2 27L5 27L5 24Z" fill="#000000"/></g></g></svg>
