<?xml version="1.0" encoding="UTF-8"?>
<svg xmlns="http://www.w3.org/2000/svg" version="1.1" width="200" height="200" viewBox="0 0 200 200"><rect x="0" y="0" width="200" height="200" fill="#ffffff"/><g transform="scale(4.878)"><g transform="translate(0,0)"><path fill-rule="evenodd" d="M8 0L8 3L11 3L11 4L10 4L10 8L9 8L9 5L8 5L8 9L7 9L7 8L6 8L6 9L7 9L7 10L5 10L5 8L2 8L2 9L3 9L3 10L4 10L4 12L1 12L1 11L2 11L2 10L1 10L1 9L0 9L0 13L1 13L1 14L0 14L0 15L2 15L2 17L1 17L1 18L0 18L0 20L1 20L1 21L0 21L0 22L1 22L1 21L2 21L2 23L3 23L3 24L6 24L6 25L5 25L5 27L2 27L2 25L1 25L1 24L0 24L0 27L1 27L1 29L0 29L0 33L1 33L1 30L2 30L2 31L3 31L3 33L5 33L5 32L4 32L4 31L5 31L5 30L6 30L6 31L8 31L8 32L6 32L6 33L8 33L8 34L11 34L11 36L10 36L10 37L9 37L9 36L8 36L8 39L9 39L9 41L10 41L10 40L11 40L11 39L12 39L12 41L14 41L14 40L13 40L13 39L15 39L15 40L16 40L16 39L15 39L15 38L17 38L17 37L20 37L20 38L18 38L18 39L19 39L19 40L18 40L18 41L19 41L19 40L20 40L20 41L22 41L22 40L21 40L21 39L22 39L22 38L21 38L21 37L23 37L23 38L24 38L24 39L23 39L23 40L24 40L24 39L25 39L25 37L26 37L26 38L27 38L27 39L26 39L26 41L28 41L28 39L30 39L30 40L29 40L29 41L30 41L30 40L33 40L33 41L34 41L34 40L33 40L33 39L32 39L32 38L31 38L31 39L30 39L30 38L27 38L27 37L29 37L29 34L27 34L27 32L26 32L26 31L27 31L27 30L29 30L29 29L30 29L30 31L31 31L31 29L30 29L30 28L29 28L29 26L32 26L32 25L33 25L33 26L34 26L34 27L32 27L32 29L33 29L33 30L32 30L32 31L33 31L33 30L34 30L34 31L35 31L35 32L32 32L32 34L31 34L31 33L30 33L30 32L29 32L29 31L28 31L28 33L30 33L30 35L31 35L31 36L30 36L30 37L31 37L31 36L32 36L32 37L33 37L33 38L34 38L34 39L35 39L35 40L36 40L36 39L37 39L37 38L38 38L38 37L39 37L39 40L40 40L40 38L41 38L41 37L39 37L39 36L40 36L40 34L41 34L41 32L40 32L40 30L41 30L41 29L40 29L40 28L41 28L41 27L40 27L40 26L41 26L41 23L40 23L40 26L39 26L39 24L37 24L37 25L33 25L33 24L34 24L34 23L33 23L33 22L32 22L32 21L34 21L34 22L36 22L36 21L37 21L37 20L38 20L38 21L39 21L39 20L38 20L38 18L37 18L37 17L36 17L36 16L38 16L38 17L39 17L39 16L38 16L38 15L36 15L36 14L38 14L38 13L36 13L36 14L35 14L35 17L34 17L34 16L33 16L33 15L34 15L34 14L33 14L33 13L34 13L34 12L33 12L33 13L32 13L32 14L31 14L31 10L33 10L33 11L34 11L34 10L35 10L35 11L36 11L36 12L38 12L38 11L39 11L39 13L40 13L40 14L39 14L39 15L40 15L40 14L41 14L41 13L40 13L40 10L41 10L41 8L38 8L38 9L40 9L40 10L37 10L37 9L36 9L36 8L33 8L33 9L32 9L32 8L29 8L29 5L26 5L26 4L27 4L27 3L28 3L28 4L29 4L29 1L27 1L27 0L24 0L24 1L25 1L25 3L26 3L26 4L25 4L25 6L24 6L24 5L23 5L23 6L22 6L22 8L21 8L21 9L23 9L23 6L24 6L24 10L25 10L25 11L26 11L26 12L27 12L27 13L26 13L26 15L25 15L25 14L24 14L24 15L23 15L23 13L22 13L22 11L23 11L23 10L21 10L21 11L20 11L20 13L19 13L19 12L15 12L15 11L14 11L14 10L15 10L15 9L16 9L16 11L17 11L17 9L18 9L18 8L17 8L17 6L18 6L18 7L19 7L19 10L18 10L18 11L19 11L19 10L20 10L20 7L21 7L21 5L22 5L22 4L23 4L23 3L24 3L24 2L23 2L23 1L22 1L22 2L21 2L21 1L20 1L20 0L19 0L19 1L18 1L18 0L16 0L16 1L15 1L15 2L14 2L14 1L13 1L13 2L12 2L12 1L11 1L11 0L10 0L10 1L9 1L9 0ZM31 0L31 1L30 1L30 2L31 2L31 3L30 3L30 4L31 4L31 5L32 5L32 4L33 4L33 3L32 3L32 2L31 2L31 1L32 1L32 0ZM16 1L16 4L15 4L15 3L13 3L13 5L16 5L16 6L15 6L15 8L11 8L11 9L10 9L10 10L12 10L12 9L13 9L13 10L14 10L14 9L15 9L15 8L16 8L16 6L17 6L17 5L18 5L18 3L17 3L17 1ZM19 1L19 2L20 2L20 1ZM22 2L22 3L20 3L20 4L19 4L19 5L21 5L21 4L22 4L22 3L23 3L23 2ZM26 2L26 3L27 3L27 2ZM31 3L31 4L32 4L32 3ZM16 4L16 5L17 5L17 4ZM11 5L11 7L12 7L12 5ZM13 6L13 7L14 7L14 6ZM19 6L19 7L20 7L20 6ZM25 6L25 7L26 7L26 6ZM27 6L27 7L28 7L28 6ZM30 6L30 7L31 7L31 6ZM32 6L32 7L33 7L33 6ZM8 9L8 10L7 10L7 11L5 11L5 12L4 12L4 14L2 14L2 15L3 15L3 17L4 17L4 18L5 18L5 19L6 19L6 20L5 20L5 21L6 21L6 22L7 22L7 23L6 23L6 24L7 24L7 25L6 25L6 26L7 26L7 25L8 25L8 27L6 27L6 28L7 28L7 29L6 29L6 30L8 30L8 31L9 31L9 30L8 30L8 29L9 29L9 28L10 28L10 27L11 27L11 26L13 26L13 28L11 28L11 29L10 29L10 30L11 30L11 34L12 34L12 36L11 36L11 38L9 38L9 39L11 39L11 38L12 38L12 39L13 39L13 38L15 38L15 36L16 36L16 35L15 35L15 34L18 34L18 35L17 35L17 36L20 36L20 34L21 34L21 35L22 35L22 34L23 34L23 33L22 33L22 34L21 34L21 32L22 32L22 31L20 31L20 27L21 27L21 25L20 25L20 27L19 27L19 28L18 28L18 26L16 26L16 23L17 23L17 25L19 25L19 24L22 24L22 25L23 25L23 23L19 23L19 24L18 24L18 23L17 23L17 22L19 22L19 21L20 21L20 22L21 22L21 21L22 21L22 22L24 22L24 23L26 23L26 20L25 20L25 18L26 18L26 17L25 17L25 16L23 16L23 15L22 15L22 14L21 14L21 15L22 15L22 16L21 16L21 17L20 17L20 14L19 14L19 17L18 17L18 18L19 18L19 17L20 17L20 18L21 18L21 21L20 21L20 20L19 20L19 19L16 19L16 21L15 21L15 20L14 20L14 18L15 18L15 17L16 17L16 16L17 16L17 15L16 15L16 14L18 14L18 13L16 13L16 14L15 14L15 13L14 13L14 12L13 12L13 11L11 11L11 12L10 12L10 14L11 14L11 16L12 16L12 13L11 13L11 12L13 12L13 19L11 19L11 20L9 20L9 19L10 19L10 18L9 18L9 19L8 19L8 18L7 18L7 17L8 17L8 16L10 16L10 15L8 15L8 13L9 13L9 11L8 11L8 10L9 10L9 9ZM27 9L27 10L26 10L26 11L27 11L27 12L30 12L30 11L29 11L29 10L31 10L31 9ZM27 10L27 11L28 11L28 10ZM7 11L7 12L5 12L5 13L7 13L7 12L8 12L8 11ZM28 13L28 14L29 14L29 15L28 15L28 17L27 17L27 18L28 18L28 19L29 19L29 16L30 16L30 13ZM4 14L4 16L6 16L6 17L7 17L7 16L8 16L8 15L7 15L7 14L6 14L6 15L5 15L5 14ZM32 14L32 15L33 15L33 14ZM6 15L6 16L7 16L7 15ZM14 15L14 16L15 16L15 15ZM26 15L26 16L27 16L27 15ZM40 16L40 18L39 18L39 19L40 19L40 18L41 18L41 16ZM21 17L21 18L24 18L24 17ZM30 17L30 19L32 19L32 20L29 20L29 21L27 21L27 22L28 22L28 23L29 23L29 24L30 24L30 25L31 25L31 24L33 24L33 23L32 23L32 22L31 22L31 23L30 23L30 22L29 22L29 21L32 21L32 20L34 20L34 21L36 21L36 20L37 20L37 18L36 18L36 17L35 17L35 19L34 19L34 18L33 18L33 17L32 17L32 18L31 18L31 17ZM2 18L2 19L1 19L1 20L2 20L2 19L3 19L3 18ZM6 18L6 19L7 19L7 20L6 20L6 21L7 21L7 22L8 22L8 25L9 25L9 26L10 26L10 25L9 25L9 23L11 23L11 24L12 24L12 25L14 25L14 27L15 27L15 28L13 28L13 31L12 31L12 34L13 34L13 37L12 37L12 38L13 38L13 37L14 37L14 34L15 34L15 33L19 33L19 32L20 32L20 31L17 31L17 32L16 32L16 30L15 30L15 29L17 29L17 30L19 30L19 29L18 29L18 28L17 28L17 27L15 27L15 24L13 24L13 23L15 23L15 22L13 22L13 21L12 21L12 20L11 20L11 21L9 21L9 20L8 20L8 19L7 19L7 18ZM32 18L32 19L33 19L33 18ZM22 19L22 20L24 20L24 19ZM35 19L35 20L36 20L36 19ZM3 20L3 21L4 21L4 20ZM17 20L17 21L18 21L18 20ZM40 20L40 21L41 21L41 20ZM37 22L37 23L38 23L38 22ZM35 23L35 24L36 24L36 23ZM24 24L24 25L25 25L25 27L24 27L24 28L23 28L23 27L22 27L22 30L24 30L24 31L26 31L26 30L27 30L27 27L26 27L26 26L29 26L29 25L27 25L27 24L26 24L26 25L25 25L25 24ZM3 25L3 26L4 26L4 25ZM35 26L35 27L37 27L37 26ZM38 26L38 28L36 28L36 29L34 29L34 28L33 28L33 29L34 29L34 30L35 30L35 31L37 31L37 32L39 32L39 31L38 31L38 30L39 30L39 28L40 28L40 27L39 27L39 26ZM8 27L8 28L9 28L9 27ZM2 28L2 30L3 30L3 31L4 31L4 30L3 30L3 28ZM4 28L4 29L5 29L5 28ZM24 28L24 30L25 30L25 29L26 29L26 28ZM28 28L28 29L29 29L29 28ZM11 29L11 30L12 30L12 29ZM36 29L36 30L37 30L37 29ZM14 30L14 31L13 31L13 32L14 32L14 31L15 31L15 30ZM8 32L8 33L10 33L10 32ZM24 32L24 33L25 33L25 34L24 34L24 35L23 35L23 36L24 36L24 37L25 37L25 36L26 36L26 37L27 37L27 34L26 34L26 32ZM13 33L13 34L14 34L14 33ZM33 33L33 36L36 36L36 33ZM37 33L37 36L39 36L39 35L38 35L38 34L39 34L39 33ZM25 34L25 35L26 35L26 34ZM34 34L34 35L35 35L35 34ZM34 37L34 38L36 38L36 37ZM0 0L0 7L7 7L7 0ZM1 1L1 6L6 6L6 1ZM2 2L2 5L5 5L5 2ZM34 0L34 7L41 7L41 0ZM35 1L35 6L40 6L40 1ZM36 2L36 5L39 5L39 2ZM0 34L0 41L7 41L7 34ZM1 35L1 40L6 40L6 35ZM2 36L2 39L5 39L5 36Z" fill="#000000"/></g></g></svg>
