<?xml version="1.0" encoding="UTF-8"?>
<svg xmlns="http://www.w3.org/2000/svg" version="1.1" width="200" height="200" viewBox="0 0 200 200"><rect x="0" y="0" width="200" height="200" fill="#ffffff"/><g transform="scale(6.897)"><g transform="translate(0,0)"><path fill-rule="evenodd" d="M8 0L8 1L9 1L9 0ZM11 0L11 1L10 1L10 2L11 2L11 1L12 1L12 3L10 3L10 5L9 5L9 6L8 6L8 7L9 7L9 8L8 8L8 9L7 9L7 8L4 8L4 9L3 9L3 8L2 8L2 9L0 9L0 10L3 10L3 11L4 11L4 10L5 10L5 11L9 11L9 10L10 10L10 11L12 11L12 12L11 12L11 13L12 13L12 14L11 14L11 15L10 15L10 13L9 13L9 14L8 14L8 13L7 13L7 12L6 12L6 13L5 13L5 14L6 14L6 15L7 15L7 14L8 14L8 17L7 17L7 16L6 16L6 17L5 17L5 16L4 16L4 20L5 20L5 21L8 21L8 22L9 22L9 23L8 23L8 25L9 25L9 26L8 26L8 27L9 27L9 29L10 29L10 25L11 25L11 27L12 27L12 28L11 28L11 29L12 29L12 28L13 28L13 29L14 29L14 28L13 28L13 27L14 27L14 25L15 25L15 26L16 26L16 29L17 29L17 28L18 28L18 29L20 29L20 27L21 27L21 26L22 26L22 25L23 25L23 26L24 26L24 25L25 25L25 27L26 27L26 28L23 28L23 27L22 27L22 28L23 28L23 29L26 29L26 28L28 28L28 29L29 29L29 26L28 26L28 25L29 25L29 24L26 24L26 23L25 23L25 20L26 20L26 21L28 21L28 22L27 22L27 23L29 23L29 21L28 21L28 19L29 19L29 18L27 18L27 17L26 17L26 14L24 14L24 13L25 13L25 11L26 11L26 13L27 13L27 12L28 12L28 13L29 13L29 12L28 12L28 11L29 11L29 8L28 8L28 9L26 9L26 8L25 8L25 9L24 9L24 10L25 10L25 11L24 11L24 12L23 12L23 10L22 10L22 8L19 8L19 10L16 10L16 11L15 11L15 8L14 8L14 7L15 7L15 6L14 6L14 5L12 5L12 3L13 3L13 4L15 4L15 3L16 3L16 5L18 5L18 7L19 7L19 5L20 5L20 7L21 7L21 0L20 0L20 1L19 1L19 2L20 2L20 3L19 3L19 4L18 4L18 3L17 3L17 2L18 2L18 1L17 1L17 0L15 0L15 3L13 3L13 2L14 2L14 0ZM16 1L16 2L17 2L17 1ZM8 3L8 4L9 4L9 3ZM9 6L9 7L10 7L10 6ZM11 6L11 7L12 7L12 8L11 8L11 10L12 10L12 11L13 11L13 12L12 12L12 13L13 13L13 12L14 12L14 13L15 13L15 16L14 16L14 14L12 14L12 15L11 15L11 16L10 16L10 17L9 17L9 18L7 18L7 17L6 17L6 18L5 18L5 20L8 20L8 19L12 19L12 20L11 20L11 23L12 23L12 22L16 22L16 21L17 21L17 22L18 22L18 23L17 23L17 24L16 24L16 23L15 23L15 24L16 24L16 26L17 26L17 24L18 24L18 28L19 28L19 26L20 26L20 24L18 24L18 23L20 23L20 22L18 22L18 21L20 21L20 20L21 20L21 19L22 19L22 18L23 18L23 19L24 19L24 18L26 18L26 19L27 19L27 18L26 18L26 17L24 17L24 16L25 16L25 15L24 15L24 14L23 14L23 15L22 15L22 14L21 14L21 13L20 13L20 14L19 14L19 15L18 15L18 14L17 14L17 13L16 13L16 12L15 12L15 11L13 11L13 10L14 10L14 8L13 8L13 7L14 7L14 6L13 6L13 7L12 7L12 6ZM16 6L16 9L17 9L17 6ZM12 8L12 10L13 10L13 8ZM6 9L6 10L7 10L7 9ZM8 9L8 10L9 10L9 9ZM25 9L25 10L26 10L26 9ZM27 10L27 11L28 11L28 10ZM17 11L17 12L18 12L18 11ZM19 11L19 12L20 12L20 11ZM21 11L21 12L22 12L22 11ZM1 12L1 13L0 13L0 17L1 17L1 15L4 15L4 14L1 14L1 13L2 13L2 12ZM3 12L3 13L4 13L4 12ZM6 13L6 14L7 14L7 13ZM16 14L16 17L15 17L15 18L14 18L14 17L13 17L13 15L12 15L12 17L10 17L10 18L12 18L12 19L13 19L13 21L14 21L14 19L17 19L17 20L18 20L18 19L17 19L17 17L18 17L18 15L17 15L17 14ZM20 14L20 15L19 15L19 16L20 16L20 15L21 15L21 14ZM28 14L28 15L29 15L29 14ZM23 15L23 16L22 16L22 17L23 17L23 18L24 18L24 17L23 17L23 16L24 16L24 15ZM2 16L2 17L3 17L3 16ZM28 16L28 17L29 17L29 16ZM12 17L12 18L13 18L13 19L14 19L14 18L13 18L13 17ZM19 17L19 18L20 18L20 17ZM0 18L0 19L1 19L1 20L0 20L0 21L1 21L1 20L3 20L3 19L1 19L1 18ZM6 18L6 19L7 19L7 18ZM19 19L19 20L20 20L20 19ZM9 21L9 22L10 22L10 21ZM21 21L21 24L24 24L24 21ZM22 22L22 23L23 23L23 22ZM13 23L13 24L12 24L12 25L14 25L14 23ZM27 26L27 27L28 27L28 26ZM0 0L0 7L7 7L7 0ZM1 1L1 6L6 6L6 1ZM2 2L2 5L5 5L5 2ZM22 0L22 7L29 7L29 0ZM23 1L23 6L28 6L28 1ZM24 2L24 5L27 5L27 2ZM0 22L0 29L7 29L7 22ZM1 23L1 28L6 28L6 23ZM2 24L2 27L5 27L5 24Z" fill="#000000"/></g></g></svg>
