<?xml version="1.0" encoding="UTF-8"?>
<svg xmlns="http://www.w3.org/2000/svg" version="1.1" width="200" height="200" viewBox="0 0 200 200"><rect x="0" y="0" width="200" height="200" fill="#ffffff"/><g transform="scale(6.897)"><g transform="translate(0,0)"><path fill-rule="evenodd" d="M11 0L11 1L10 1L10 2L9 2L9 1L8 1L8 7L9 7L9 8L5 8L5 11L7 11L7 12L6 12L6 13L5 13L5 15L7 15L7 14L8 14L8 9L9 9L9 10L10 10L10 11L9 11L9 13L10 13L10 14L9 14L9 16L4 16L4 15L2 15L2 14L4 14L4 13L3 13L3 12L2 12L2 14L0 14L0 15L1 15L1 16L2 16L2 18L0 18L0 19L3 19L3 18L5 18L5 17L9 17L9 20L8 20L8 19L7 19L7 18L6 18L6 19L5 19L5 20L4 20L4 21L5 21L5 20L6 20L6 21L7 21L7 20L8 20L8 24L10 24L10 25L11 25L11 24L12 24L12 26L11 26L11 27L10 27L10 26L8 26L8 27L10 27L10 28L9 28L9 29L11 29L11 28L14 28L14 27L15 27L15 29L17 29L17 28L19 28L19 26L20 26L20 27L21 27L21 29L22 29L22 28L24 28L24 29L25 29L25 28L26 28L26 27L25 27L25 28L24 28L24 26L23 26L23 27L22 27L22 26L21 26L21 25L25 25L25 23L26 23L26 21L27 21L27 24L26 24L26 26L27 26L27 27L28 27L28 28L27 28L27 29L29 29L29 26L27 26L27 25L28 25L28 24L29 24L29 22L28 22L28 21L27 21L27 19L26 19L26 18L28 18L28 19L29 19L29 18L28 18L28 17L29 17L29 16L27 16L27 17L25 17L25 16L22 16L22 15L25 15L25 14L26 14L26 13L27 13L27 15L29 15L29 14L28 14L28 13L29 13L29 12L27 12L27 11L29 11L29 9L28 9L28 8L23 8L23 10L22 10L22 11L21 11L21 9L22 9L22 8L21 8L21 0L19 0L19 1L20 1L20 2L19 2L19 3L20 3L20 5L19 5L19 4L18 4L18 5L17 5L17 3L18 3L18 2L17 2L17 1L18 1L18 0L17 0L17 1L15 1L15 2L16 2L16 3L15 3L15 4L12 4L12 3L14 3L14 2L13 2L13 1L14 1L14 0L13 0L13 1L12 1L12 0ZM10 2L10 3L11 3L11 2ZM15 4L15 5L11 5L11 9L12 9L12 6L13 6L13 7L14 7L14 10L13 10L13 11L12 11L12 15L14 15L14 14L15 14L15 13L16 13L16 15L15 15L15 17L14 17L14 20L13 20L13 19L12 19L12 18L10 18L10 19L12 19L12 20L9 20L9 21L10 21L10 22L9 22L9 23L10 23L10 24L11 24L11 23L10 23L10 22L11 22L11 21L14 21L14 20L16 20L16 21L15 21L15 22L12 22L12 24L13 24L13 25L14 25L14 26L12 26L12 27L14 27L14 26L15 26L15 27L16 27L16 28L17 28L17 27L18 27L18 26L17 26L17 25L14 25L14 24L16 24L16 23L15 23L15 22L16 22L16 21L17 21L17 20L16 20L16 19L17 19L17 16L16 16L16 15L17 15L17 14L18 14L18 16L20 16L20 17L18 17L18 19L19 19L19 20L22 20L22 19L21 19L21 15L19 15L19 14L22 14L22 12L21 12L21 13L20 13L20 12L19 12L19 11L20 11L20 9L19 9L19 7L20 7L20 6L19 6L19 7L18 7L18 6L17 6L17 5L16 5L16 4ZM15 5L15 6L14 6L14 7L15 7L15 9L16 9L16 8L17 8L17 9L18 9L18 7L17 7L17 6L16 6L16 5ZM9 6L9 7L10 7L10 6ZM15 6L15 7L16 7L16 6ZM2 8L2 10L1 10L1 11L0 11L0 13L1 13L1 11L4 11L4 9L3 9L3 8ZM9 8L9 9L10 9L10 8ZM6 9L6 10L7 10L7 9ZM25 9L25 10L24 10L24 11L26 11L26 10L28 10L28 9ZM16 10L16 11L15 11L15 12L13 12L13 13L15 13L15 12L16 12L16 13L17 13L17 12L16 12L16 11L19 11L19 10ZM10 11L10 12L11 12L11 11ZM18 12L18 14L19 14L19 12ZM23 12L23 14L25 14L25 13L24 13L24 12ZM6 13L6 14L7 14L7 13ZM10 15L10 16L9 16L9 17L13 17L13 16L11 16L11 15ZM3 16L3 17L4 17L4 16ZM22 17L22 18L25 18L25 17ZM19 18L19 19L20 19L20 18ZM6 19L6 20L7 20L7 19ZM23 19L23 20L26 20L26 19ZM0 20L0 21L3 21L3 20ZM19 21L19 22L20 22L20 21ZM21 21L21 24L24 24L24 21ZM22 22L22 23L23 23L23 22ZM13 23L13 24L14 24L14 23ZM17 23L17 24L18 24L18 23ZM19 23L19 24L20 24L20 23ZM0 0L0 7L7 7L7 0ZM1 1L1 6L6 6L6 1ZM2 2L2 5L5 5L5 2ZM22 0L22 7L29 7L29 0ZM23 1L23 6L28 6L28 1ZM24 2L24 5L27 5L27 2ZM0 22L0 29L7 29L7 22ZM1 23L1 28L6 28L6 23ZM2 24L2 27L5 27L5 24Z" fill="#000000"/></g></g></svg>
