<?xml version="1.0" encoding="UTF-8"?>
<svg xmlns="http://www.w3.org/2000/svg" version="1.1" width="200" height="200" viewBox="0 0 200 200"><rect x="0" y="0" width="200" height="200" fill="#ffffff"/><g transform="scale(6.897)"><g transform="translate(0,0)"><path fill-rule="evenodd" d="M9 0L9 1L8 1L8 7L9 7L9 8L5 8L5 10L4 10L4 9L3 9L3 8L2 8L2 9L1 9L1 10L0 10L0 11L1 11L1 10L4 10L4 11L2 11L2 12L1 12L1 13L2 13L2 12L3 12L3 14L1 14L1 15L0 15L0 16L1 16L1 15L3 15L3 16L4 16L4 13L5 13L5 12L6 12L6 13L7 13L7 14L6 14L6 15L7 15L7 16L6 16L6 17L4 17L4 19L2 19L2 18L3 18L3 17L1 17L1 18L0 18L0 19L2 19L2 20L0 20L0 21L2 21L2 20L3 20L3 21L5 21L5 20L4 20L4 19L9 19L9 20L6 20L6 21L8 21L8 24L9 24L9 22L10 22L10 25L11 25L11 26L10 26L10 28L9 28L9 29L12 29L12 28L13 28L13 27L14 27L14 26L15 26L15 27L16 27L16 28L15 28L15 29L16 29L16 28L17 28L17 27L16 27L16 26L18 26L18 25L19 25L19 26L20 26L20 27L21 27L21 29L22 29L22 28L24 28L24 29L25 29L25 28L26 28L26 29L29 29L29 26L26 26L26 25L29 25L29 24L26 24L26 25L25 25L25 23L26 23L26 21L27 21L27 23L28 23L28 22L29 22L29 21L27 21L27 20L25 20L25 18L28 18L28 19L29 19L29 18L28 18L28 17L29 17L29 16L27 16L27 17L25 17L25 16L22 16L22 15L25 15L25 14L26 14L26 13L28 13L28 15L29 15L29 12L27 12L27 11L29 11L29 9L28 9L28 8L23 8L23 10L22 10L22 11L21 11L21 9L22 9L22 8L20 8L20 7L21 7L21 0L19 0L19 1L20 1L20 2L19 2L19 3L20 3L20 5L16 5L16 4L17 4L17 3L18 3L18 2L16 2L16 0L14 0L14 1L15 1L15 2L13 2L13 1L12 1L12 0L11 0L11 2L10 2L10 4L9 4L9 1L10 1L10 0ZM17 0L17 1L18 1L18 0ZM15 2L15 4L16 4L16 2ZM10 4L10 6L9 6L9 7L10 7L10 8L12 8L12 10L10 10L10 9L9 9L9 10L10 10L10 12L8 12L8 11L6 11L6 12L7 12L7 13L8 13L8 14L7 14L7 15L8 15L8 16L7 16L7 17L6 17L6 18L7 18L7 17L8 17L8 16L9 16L9 19L10 19L10 20L9 20L9 21L10 21L10 22L11 22L11 25L12 25L12 23L14 23L14 20L15 20L15 21L18 21L18 22L15 22L15 24L13 24L13 26L14 26L14 25L15 25L15 24L16 24L16 25L18 25L18 23L19 23L19 24L20 24L20 23L19 23L19 22L20 22L20 21L19 21L19 20L22 20L22 19L21 19L21 15L19 15L19 16L20 16L20 17L19 17L19 18L18 18L18 15L17 15L17 14L22 14L22 12L21 12L21 13L20 13L20 12L19 12L19 11L20 11L20 8L19 8L19 7L20 7L20 6L19 6L19 7L18 7L18 6L17 6L17 7L16 7L16 6L15 6L15 7L14 7L14 6L13 6L13 5L12 5L12 4ZM11 5L11 6L10 6L10 7L11 7L11 6L12 6L12 7L13 7L13 6L12 6L12 5ZM17 7L17 10L16 10L16 9L14 9L14 10L13 10L13 11L12 11L12 13L9 13L9 15L10 15L10 14L11 14L11 16L10 16L10 17L11 17L11 16L12 16L12 17L13 17L13 16L14 16L14 18L13 18L13 19L14 19L14 18L15 18L15 16L14 16L14 15L12 15L12 14L14 14L14 13L16 13L16 14L15 14L15 15L16 15L16 16L17 16L17 15L16 15L16 14L17 14L17 10L18 10L18 7ZM6 9L6 10L8 10L8 9ZM25 9L25 10L24 10L24 11L27 11L27 10L28 10L28 9ZM4 11L4 12L5 12L5 11ZM13 11L13 13L14 13L14 11ZM18 12L18 13L19 13L19 12ZM23 12L23 14L25 14L25 13L24 13L24 12ZM22 17L22 18L25 18L25 17ZM10 18L10 19L11 19L11 22L13 22L13 21L12 21L12 18ZM19 18L19 19L18 19L18 20L19 20L19 19L20 19L20 18ZM23 19L23 20L24 20L24 19ZM21 21L21 24L24 24L24 21ZM22 22L22 23L23 23L23 22ZM16 23L16 24L17 24L17 23ZM21 25L21 26L22 26L22 27L23 27L23 26L24 26L24 28L25 28L25 25ZM8 26L8 27L9 27L9 26ZM26 27L26 28L28 28L28 27ZM18 28L18 29L19 29L19 28ZM0 0L0 7L7 7L7 0ZM1 1L1 6L6 6L6 1ZM2 2L2 5L5 5L5 2ZM22 0L22 7L29 7L29 0ZM23 1L23 6L28 6L28 1ZM24 2L24 5L27 5L27 2ZM0 22L0 29L7 29L7 22ZM1 23L1 28L6 28L6 23ZM2 24L2 27L5 27L5 24Z" fill="#000000"/></g></g></svg>
