<?xml version="1.0" encoding="UTF-8"?>
<svg xmlns="http://www.w3.org/2000/svg" version="1.1" width="200" height="200" viewBox="0 0 200 200"><rect x="0" y="0" width="200" height="200" fill="#ffffff"/><g transform="scale(4.878)"><g transform="translate(0,0)"><path fill-rule="evenodd" d="M8 0L8 2L9 2L9 3L8 3L8 7L9 7L9 9L10 9L10 10L9 10L9 11L10 11L10 14L11 14L11 15L9 15L9 13L8 13L8 15L7 15L7 14L5 14L5 13L7 13L7 12L6 12L6 11L8 11L8 9L7 9L7 8L6 8L6 9L4 9L4 8L3 8L3 9L4 9L4 10L6 10L6 11L3 11L3 10L2 10L2 9L1 9L1 10L0 10L0 14L1 14L1 16L0 16L0 17L1 17L1 18L0 18L0 21L1 21L1 22L3 22L3 21L4 21L4 20L5 20L5 27L3 27L3 29L1 29L1 28L2 28L2 26L3 26L3 23L2 23L2 24L1 24L1 23L0 23L0 24L1 24L1 25L0 25L0 26L1 26L1 28L0 28L0 29L1 29L1 30L0 30L0 31L1 31L1 30L2 30L2 32L3 32L3 33L7 33L7 32L5 32L5 31L4 31L4 30L3 30L3 29L4 29L4 28L6 28L6 29L5 29L5 30L6 30L6 31L7 31L7 30L6 30L6 29L7 29L7 28L9 28L9 29L8 29L8 34L9 34L9 35L10 35L10 34L9 34L9 33L11 33L11 35L14 35L14 37L13 37L13 36L11 36L11 38L12 38L12 39L11 39L11 40L12 40L12 41L14 41L14 40L17 40L17 41L18 41L18 39L19 39L19 40L20 40L20 39L21 39L21 40L24 40L24 38L25 38L25 36L26 36L26 37L27 37L27 36L26 36L26 34L27 34L27 33L28 33L28 32L26 32L26 33L25 33L25 34L23 34L23 33L24 33L24 32L25 32L25 31L26 31L26 30L25 30L25 29L26 29L26 28L27 28L27 31L29 31L29 32L31 32L31 31L29 31L29 29L30 29L30 30L33 30L33 31L34 31L34 32L32 32L32 35L31 35L31 34L30 34L30 33L29 33L29 34L30 34L30 37L28 37L28 38L32 38L32 37L34 37L34 38L36 38L36 40L37 40L37 41L40 41L40 39L41 39L41 38L40 38L40 37L41 37L41 36L40 36L40 35L38 35L38 33L39 33L39 34L41 34L41 32L36 32L36 31L38 31L38 30L40 30L40 31L41 31L41 29L39 29L39 28L37 28L37 29L38 29L38 30L36 30L36 29L35 29L35 28L36 28L36 24L37 24L37 27L38 27L38 26L39 26L39 25L40 25L40 24L41 24L41 23L40 23L40 22L39 22L39 21L40 21L40 20L41 20L41 16L39 16L39 17L37 17L37 19L36 19L36 20L35 20L35 19L34 19L34 18L35 18L35 17L36 17L36 16L35 16L35 17L32 17L32 18L33 18L33 19L32 19L32 20L33 20L33 19L34 19L34 22L33 22L33 21L32 21L32 22L31 22L31 24L32 24L32 25L31 25L31 26L32 26L32 27L33 27L33 29L32 29L32 28L31 28L31 27L30 27L30 26L29 26L29 25L30 25L30 24L29 24L29 23L30 23L30 20L29 20L29 19L30 19L30 18L31 18L31 16L30 16L30 15L32 15L32 16L33 16L33 15L32 15L32 14L33 14L33 12L32 12L32 11L33 11L33 9L32 9L32 10L31 10L31 8L32 8L32 7L33 7L33 5L30 5L30 7L29 7L29 6L28 6L28 4L30 4L30 1L29 1L29 0L27 0L27 1L26 1L26 0L24 0L24 2L25 2L25 3L24 3L24 4L23 4L23 5L21 5L21 6L20 6L20 4L21 4L21 3L19 3L19 2L20 2L20 1L21 1L21 2L22 2L22 3L23 3L23 1L21 1L21 0L20 0L20 1L19 1L19 2L18 2L18 0L16 0L16 2L15 2L15 0L11 0L11 1L10 1L10 0ZM31 0L31 1L33 1L33 0ZM9 1L9 2L10 2L10 3L13 3L13 4L12 4L12 6L11 6L11 7L10 7L10 5L11 5L11 4L10 4L10 5L9 5L9 7L10 7L10 8L12 8L12 9L11 9L11 14L12 14L12 15L13 15L13 16L10 16L10 17L9 17L9 15L8 15L8 16L7 16L7 15L6 15L6 16L5 16L5 15L4 15L4 16L3 16L3 15L2 15L2 16L1 16L1 17L2 17L2 16L3 16L3 18L1 18L1 21L2 21L2 19L3 19L3 20L4 20L4 19L3 19L3 18L7 18L7 17L9 17L9 18L11 18L11 21L12 21L12 22L14 22L14 23L11 23L11 22L9 22L9 20L10 20L10 19L8 19L8 21L6 21L6 22L7 22L7 23L6 23L6 24L7 24L7 25L6 25L6 26L9 26L9 25L8 25L8 24L9 24L9 23L11 23L11 24L12 24L12 25L13 25L13 24L14 24L14 27L13 27L13 28L15 28L15 25L17 25L17 27L16 27L16 29L15 29L15 30L14 30L14 31L13 31L13 29L12 29L12 28L11 28L11 29L9 29L9 30L10 30L10 32L11 32L11 29L12 29L12 31L13 31L13 32L14 32L14 33L12 33L12 34L14 34L14 33L15 33L15 36L16 36L16 38L17 38L17 39L18 39L18 38L19 38L19 39L20 39L20 38L21 38L21 37L20 37L20 36L21 36L21 35L22 35L22 34L21 34L21 33L22 33L22 32L23 32L23 31L24 31L24 30L23 30L23 29L22 29L22 28L21 28L21 29L20 29L20 26L21 26L21 27L23 27L23 28L24 28L24 29L25 29L25 27L23 27L23 25L22 25L22 24L21 24L21 25L20 25L20 24L19 24L19 25L18 25L18 24L15 24L15 23L20 23L20 21L21 21L21 23L23 23L23 22L22 22L22 20L19 20L19 21L18 21L18 19L17 19L17 18L16 18L16 17L15 17L15 16L18 16L18 18L20 18L20 17L21 17L21 16L23 16L23 15L24 15L24 17L23 17L23 18L21 18L21 19L23 19L23 18L24 18L24 19L26 19L26 18L27 18L27 19L28 19L28 18L29 18L29 15L30 15L30 14L32 14L32 12L31 12L31 11L29 11L29 10L28 10L28 8L29 8L29 9L30 9L30 8L29 8L29 7L28 7L28 6L27 6L27 5L26 5L26 4L25 4L25 5L26 5L26 6L25 6L25 7L24 7L24 5L23 5L23 8L22 8L22 6L21 6L21 9L23 9L23 10L26 10L26 11L25 11L25 13L23 13L23 15L22 15L22 13L21 13L21 11L22 11L22 10L21 10L21 11L20 11L20 13L21 13L21 14L19 14L19 12L17 12L17 13L16 13L16 14L15 14L15 12L16 12L16 10L18 10L18 9L19 9L19 10L20 10L20 9L19 9L19 8L20 8L20 6L19 6L19 8L18 8L18 6L17 6L17 7L16 7L16 6L15 6L15 5L19 5L19 4L18 4L18 2L17 2L17 4L16 4L16 3L15 3L15 2L13 2L13 1L11 1L11 2L10 2L10 1ZM28 1L28 2L26 2L26 3L27 3L27 4L28 4L28 3L29 3L29 1ZM32 2L32 3L31 3L31 4L32 4L32 3L33 3L33 2ZM14 3L14 4L13 4L13 5L14 5L14 4L15 4L15 3ZM12 6L12 7L13 7L13 6ZM14 6L14 8L13 8L13 10L16 10L16 9L14 9L14 8L16 8L16 7L15 7L15 6ZM26 6L26 7L25 7L25 8L24 8L24 9L26 9L26 7L27 7L27 8L28 8L28 7L27 7L27 6ZM31 6L31 7L32 7L32 6ZM17 8L17 9L18 9L18 8ZM35 8L35 9L34 9L34 10L35 10L35 12L34 12L34 15L36 15L36 13L35 13L35 12L36 12L36 9L37 9L37 10L38 10L38 8ZM39 8L39 9L40 9L40 10L41 10L41 8ZM6 9L6 10L7 10L7 9ZM1 10L1 13L3 13L3 14L4 14L4 12L3 12L3 11L2 11L2 10ZM13 11L13 12L14 12L14 11ZM27 11L27 12L26 12L26 13L25 13L25 14L26 14L26 17L25 17L25 18L26 18L26 17L27 17L27 16L28 16L28 15L27 15L27 14L30 14L30 13L31 13L31 12L29 12L29 11ZM38 11L38 13L37 13L37 14L38 14L38 13L39 13L39 15L41 15L41 14L40 14L40 13L41 13L41 11ZM27 12L27 13L29 13L29 12ZM39 12L39 13L40 13L40 12ZM13 13L13 15L14 15L14 13ZM17 13L17 14L16 14L16 15L18 15L18 16L21 16L21 15L18 15L18 13ZM37 15L37 16L38 16L38 15ZM6 16L6 17L7 17L7 16ZM39 17L39 18L38 18L38 19L37 19L37 20L40 20L40 17ZM12 18L12 19L13 19L13 20L12 20L12 21L14 21L14 22L16 22L16 21L17 21L17 22L18 22L18 21L17 21L17 20L16 20L16 18L15 18L15 19L14 19L14 18ZM5 19L5 20L7 20L7 19ZM14 20L14 21L15 21L15 20ZM23 20L23 21L27 21L27 24L26 24L26 23L25 23L25 22L24 22L24 24L25 24L25 25L24 25L24 26L26 26L26 27L28 27L28 29L29 29L29 27L28 27L28 25L29 25L29 24L28 24L28 22L29 22L29 20L28 20L28 21L27 21L27 20ZM35 21L35 22L34 22L34 23L37 23L37 22L36 22L36 21ZM8 22L8 23L7 23L7 24L8 24L8 23L9 23L9 22ZM32 22L32 23L33 23L33 22ZM39 23L39 24L38 24L38 25L39 25L39 24L40 24L40 23ZM34 25L34 27L35 27L35 25ZM11 26L11 27L12 27L12 26ZM18 26L18 27L17 27L17 31L15 31L15 32L17 32L17 34L16 34L16 36L18 36L18 37L19 37L19 36L18 36L18 35L21 35L21 34L20 34L20 33L21 33L21 32L22 32L22 31L23 31L23 30L22 30L22 29L21 29L21 32L19 32L19 30L18 30L18 27L19 27L19 26ZM40 26L40 28L41 28L41 26ZM6 27L6 28L7 28L7 27ZM34 29L34 31L35 31L35 29ZM3 31L3 32L4 32L4 31ZM17 31L17 32L18 32L18 34L17 34L17 35L18 35L18 34L19 34L19 32L18 32L18 31ZM0 32L0 33L1 33L1 32ZM33 33L33 36L36 36L36 33ZM34 34L34 35L35 35L35 34ZM23 35L23 36L22 36L22 38L23 38L23 37L24 37L24 36L25 36L25 35ZM28 35L28 36L29 36L29 35ZM37 35L37 37L36 37L36 38L37 38L37 37L38 37L38 38L39 38L39 39L38 39L38 40L39 40L39 39L40 39L40 38L39 38L39 36L38 36L38 35ZM9 36L9 37L8 37L8 38L9 38L9 37L10 37L10 36ZM31 36L31 37L32 37L32 36ZM12 37L12 38L13 38L13 39L12 39L12 40L14 40L14 39L15 39L15 38L13 38L13 37ZM26 38L26 39L27 39L27 41L33 41L33 39L32 39L32 40L30 40L30 39L29 39L29 40L28 40L28 39L27 39L27 38ZM9 40L9 41L10 41L10 40ZM0 0L0 7L7 7L7 0ZM1 1L1 6L6 6L6 1ZM2 2L2 5L5 5L5 2ZM34 0L34 7L41 7L41 0ZM35 1L35 6L40 6L40 1ZM36 2L36 5L39 5L39 2ZM0 34L0 41L7 41L7 34ZM1 35L1 40L6 40L6 35ZM2 36L2 39L5 39L5 36Z" fill="#000000"/></g></g></svg>
