<?xml version="1.0" encoding="UTF-8"?>
<svg xmlns="http://www.w3.org/2000/svg" version="1.1" width="200" height="200" viewBox="0 0 200 200"><rect x="0" y="0" width="200" height="200" fill="#ffffff"/><g transform="scale(4.878)"><g transform="translate(0,0)"><path fill-rule="evenodd" d="M14 0L14 1L12 1L12 2L11 2L11 4L9 4L9 2L8 2L8 4L9 4L9 5L11 5L11 4L13 4L13 3L12 3L12 2L15 2L15 1L16 1L16 2L17 2L17 3L16 3L16 4L17 4L17 3L18 3L18 2L19 2L19 1L18 1L18 0L17 0L17 1L16 1L16 0ZM21 0L21 1L20 1L20 3L21 3L21 2L22 2L22 3L23 3L23 4L24 4L24 7L23 7L23 5L22 5L22 4L21 4L21 5L19 5L19 4L18 4L18 7L17 7L17 5L15 5L15 6L14 6L14 5L13 5L13 6L12 6L12 7L11 7L11 6L10 6L10 9L9 9L9 11L8 11L8 10L4 10L4 11L2 11L2 10L3 10L3 9L5 9L5 8L3 8L3 9L0 9L0 16L1 16L1 17L0 17L0 18L1 18L1 17L2 17L2 16L3 16L3 15L7 15L7 16L6 16L6 17L8 17L8 14L9 14L9 12L10 12L10 15L12 15L12 16L11 16L11 17L10 17L10 16L9 16L9 17L10 17L10 18L9 18L9 19L10 19L10 20L8 20L8 18L5 18L5 17L4 17L4 19L2 19L2 20L0 20L0 24L1 24L1 25L0 25L0 26L1 26L1 27L2 27L2 29L0 29L0 33L2 33L2 32L3 32L3 33L5 33L5 31L7 31L7 32L6 32L6 33L7 33L7 32L8 32L8 31L7 31L7 30L6 30L6 29L7 29L7 28L8 28L8 29L9 29L9 28L10 28L10 29L11 29L11 28L12 28L12 30L10 30L10 31L9 31L9 33L8 33L8 35L9 35L9 36L8 36L8 38L9 38L9 36L10 36L10 37L11 37L11 39L10 39L10 40L11 40L11 39L14 39L14 40L13 40L13 41L16 41L16 40L17 40L17 39L16 39L16 38L15 38L15 37L17 37L17 38L18 38L18 39L19 39L19 37L20 37L20 36L19 36L19 37L18 37L18 36L14 36L14 37L12 37L12 36L13 36L13 35L12 35L12 36L10 36L10 34L11 34L11 33L10 33L10 32L11 32L11 31L12 31L12 30L14 30L14 31L16 31L16 32L17 32L17 33L16 33L16 34L15 34L15 33L14 33L14 32L12 32L12 33L14 33L14 35L16 35L16 34L17 34L17 33L18 33L18 34L20 34L20 35L22 35L22 36L21 36L21 37L22 37L22 36L24 36L24 37L23 37L23 38L24 38L24 37L25 37L25 36L26 36L26 37L27 37L27 38L26 38L26 41L27 41L27 39L28 39L28 41L29 41L29 39L30 39L30 41L34 41L34 40L35 40L35 41L36 41L36 39L37 39L37 38L38 38L38 35L39 35L39 37L40 37L40 38L39 38L39 39L38 39L38 41L39 41L39 39L40 39L40 40L41 40L41 35L40 35L40 34L39 34L39 33L41 33L41 30L39 30L39 29L40 29L40 28L39 28L39 27L41 27L41 25L39 25L39 27L36 27L36 26L37 26L37 25L36 25L36 24L35 24L35 23L36 23L36 21L37 21L37 20L38 20L38 22L37 22L37 23L39 23L39 24L40 24L40 23L39 23L39 22L41 22L41 21L39 21L39 20L40 20L40 19L41 19L41 18L40 18L40 17L41 17L41 13L40 13L40 12L41 12L41 11L40 11L40 9L39 9L39 8L37 8L37 9L35 9L35 11L34 11L34 10L33 10L33 11L32 11L32 12L30 12L30 11L31 11L31 10L32 10L32 9L31 9L31 8L33 8L33 4L31 4L31 3L33 3L33 2L32 2L32 1L31 1L31 0L28 0L28 2L27 2L27 4L24 4L24 3L23 3L23 2L24 2L24 1L25 1L25 0L24 0L24 1L23 1L23 0ZM17 1L17 2L18 2L18 1ZM22 1L22 2L23 2L23 1ZM29 1L29 2L28 2L28 4L27 4L27 5L26 5L26 6L25 6L25 8L27 8L27 7L28 7L28 8L31 8L31 7L32 7L32 5L31 5L31 4L30 4L30 3L31 3L31 2L30 2L30 1ZM14 3L14 4L15 4L15 3ZM29 4L29 5L30 5L30 7L31 7L31 5L30 5L30 4ZM21 5L21 7L22 7L22 9L21 9L21 10L22 10L22 13L21 13L21 12L20 12L20 14L21 14L21 15L22 15L22 16L24 16L24 13L23 13L23 12L26 12L26 11L27 11L27 12L28 12L28 13L25 13L25 14L28 14L28 15L27 15L27 16L26 16L26 18L25 18L25 17L24 17L24 18L23 18L23 17L22 17L22 18L21 18L21 20L20 20L20 19L19 19L19 18L17 18L17 19L19 19L19 20L15 20L15 19L16 19L16 18L15 18L15 19L14 19L14 17L15 17L15 14L16 14L16 13L15 13L15 14L14 14L14 13L13 13L13 11L14 11L14 12L15 12L15 11L16 11L16 12L17 12L17 14L19 14L19 12L18 12L18 11L19 11L19 10L20 10L20 6L19 6L19 7L18 7L18 8L19 8L19 9L17 9L17 8L16 8L16 6L15 6L15 8L13 8L13 7L14 7L14 6L13 6L13 7L12 7L12 8L13 8L13 11L10 11L10 12L11 12L11 14L12 14L12 15L13 15L13 14L14 14L14 17L13 17L13 18L11 18L11 20L10 20L10 21L9 21L9 22L10 22L10 23L11 23L11 24L10 24L10 28L11 28L11 27L13 27L13 28L14 28L14 29L15 29L15 30L16 30L16 28L15 28L15 27L17 27L17 26L18 26L18 25L17 25L17 26L16 26L16 25L14 25L14 23L13 23L13 22L14 22L14 20L15 20L15 22L16 22L16 23L15 23L15 24L18 24L18 23L19 23L19 27L21 27L21 25L22 25L22 28L23 28L23 29L22 29L22 30L21 30L21 28L17 28L17 32L18 32L18 29L20 29L20 31L19 31L19 33L21 33L21 34L23 34L23 35L24 35L24 36L25 36L25 35L24 35L24 32L23 32L23 31L25 31L25 32L26 32L26 35L27 35L27 36L28 36L28 35L27 35L27 33L28 33L28 34L31 34L31 33L28 33L28 32L26 32L26 31L25 31L25 30L27 30L27 31L28 31L28 30L32 30L32 31L34 31L34 32L36 32L36 31L35 31L35 30L36 30L36 29L37 29L37 30L38 30L38 28L36 28L36 27L35 27L35 26L34 26L34 24L33 24L33 22L30 22L30 21L31 21L31 20L32 20L32 19L31 19L31 17L30 17L30 15L29 15L29 14L30 14L30 12L29 12L29 11L30 11L30 10L31 10L31 9L28 9L28 11L27 11L27 10L26 10L26 11L23 11L23 10L22 10L22 9L23 9L23 7L22 7L22 5ZM8 6L8 7L9 7L9 6ZM26 6L26 7L27 7L27 6ZM28 6L28 7L29 7L29 6ZM6 8L6 9L8 9L8 8ZM15 8L15 10L14 10L14 11L15 11L15 10L17 10L17 11L18 11L18 10L17 10L17 9L16 9L16 8ZM10 9L10 10L11 10L11 9ZM37 9L37 10L36 10L36 11L37 11L37 10L38 10L38 12L39 12L39 10L38 10L38 9ZM1 11L1 14L2 14L2 15L3 15L3 14L8 14L8 11L6 11L6 12L7 12L7 13L5 13L5 11L4 11L4 12L3 12L3 13L2 13L2 11ZM36 12L36 13L34 13L34 14L35 14L35 15L37 15L37 16L34 16L34 17L33 17L33 19L34 19L34 20L35 20L35 21L34 21L34 23L35 23L35 21L36 21L36 20L37 20L37 18L36 18L36 20L35 20L35 17L37 17L37 16L38 16L38 19L39 19L39 17L40 17L40 16L38 16L38 15L37 15L37 14L38 14L38 13L37 13L37 12ZM22 13L22 15L23 15L23 13ZM32 13L32 14L31 14L31 15L32 15L32 16L33 16L33 13ZM36 13L36 14L37 14L37 13ZM16 15L16 16L18 16L18 17L21 17L21 16L19 16L19 15ZM28 15L28 16L27 16L27 20L26 20L26 21L25 21L25 18L24 18L24 19L23 19L23 18L22 18L22 20L21 20L21 21L24 21L24 22L23 22L23 23L24 23L24 22L25 22L25 23L26 23L26 21L27 21L27 23L28 23L28 24L27 24L27 25L23 25L23 24L22 24L22 22L21 22L21 24L20 24L20 25L21 25L21 24L22 24L22 25L23 25L23 26L24 26L24 30L25 30L25 29L28 29L28 28L27 28L27 27L29 27L29 26L30 26L30 25L33 25L33 24L32 24L32 23L29 23L29 21L28 21L28 19L29 19L29 20L31 20L31 19L29 19L29 17L28 17L28 16L29 16L29 15ZM4 19L4 21L3 21L3 22L2 22L2 21L1 21L1 23L2 23L2 24L3 24L3 25L4 25L4 26L2 26L2 27L3 27L3 30L2 30L2 31L3 31L3 32L4 32L4 28L5 28L5 29L6 29L6 28L7 28L7 27L8 27L8 26L9 26L9 23L8 23L8 21L5 21L5 20L7 20L7 19ZM12 19L12 20L13 20L13 19ZM11 21L11 22L12 22L12 21ZM16 21L16 22L17 22L17 23L18 23L18 21ZM5 22L5 23L7 23L7 22ZM19 22L19 23L20 23L20 22ZM3 23L3 24L4 24L4 25L7 25L7 24L4 24L4 23ZM12 23L12 24L11 24L11 26L13 26L13 27L14 27L14 25L13 25L13 23ZM29 24L29 25L30 25L30 24ZM4 26L4 27L5 27L5 28L6 28L6 27L7 27L7 26L6 26L6 27L5 27L5 26ZM25 26L25 28L26 28L26 26ZM31 26L31 28L30 28L30 29L31 29L31 28L32 28L32 26ZM34 28L34 30L35 30L35 29L36 29L36 28ZM22 30L22 31L20 31L20 32L21 32L21 33L22 33L22 31L23 31L23 30ZM29 31L29 32L30 32L30 31ZM39 31L39 32L40 32L40 31ZM37 32L37 35L38 35L38 32ZM33 33L33 36L36 36L36 33ZM34 34L34 35L35 35L35 34ZM30 35L30 36L32 36L32 35ZM29 37L29 38L31 38L31 37ZM32 37L32 39L31 39L31 40L33 40L33 37ZM34 37L34 39L35 39L35 38L36 38L36 37ZM20 38L20 40L22 40L22 41L23 41L23 40L25 40L25 39L23 39L23 40L22 40L22 38ZM15 39L15 40L16 40L16 39ZM18 40L18 41L19 41L19 40ZM0 0L0 7L7 7L7 0ZM1 1L1 6L6 6L6 1ZM2 2L2 5L5 5L5 2ZM34 0L34 7L41 7L41 0ZM35 1L35 6L40 6L40 1ZM36 2L36 5L39 5L39 2ZM0 34L0 41L7 41L7 34ZM1 35L1 40L6 40L6 35ZM2 36L2 39L5 39L5 36Z" fill="#000000"/></g></g></svg>
