<?xml version="1.0" encoding="UTF-8"?>
<svg xmlns="http://www.w3.org/2000/svg" version="1.1" width="200" height="200" viewBox="0 0 200 200"><rect x="0" y="0" width="200" height="200" fill="#ffffff"/><g transform="scale(4.878)"><g transform="translate(0,0)"><path fill-rule="evenodd" d="M8 0L8 3L9 3L9 2L10 2L10 4L13 4L13 6L12 6L12 5L11 5L11 6L10 6L10 5L8 5L8 11L9 11L9 12L10 12L10 14L9 14L9 13L8 13L8 12L4 12L4 14L5 14L5 15L4 15L4 17L2 17L2 16L1 16L1 17L0 17L0 18L5 18L5 19L7 19L7 18L6 18L6 17L8 17L8 16L9 16L9 17L10 17L10 18L9 18L9 19L8 19L8 20L6 20L6 21L7 21L7 22L5 22L5 23L4 23L4 22L3 22L3 23L4 23L4 25L3 25L3 24L2 24L2 25L3 25L3 26L2 26L2 27L0 27L0 33L1 33L1 28L5 28L5 29L2 29L2 32L3 32L3 33L4 33L4 31L3 31L3 30L5 30L5 31L7 31L7 32L5 32L5 33L8 33L8 34L9 34L9 36L8 36L8 39L10 39L10 36L12 36L12 35L13 35L13 37L14 37L14 38L12 38L12 37L11 37L11 38L12 38L12 39L13 39L13 40L10 40L10 41L16 41L16 39L17 39L17 40L18 40L18 39L20 39L20 40L21 40L21 38L22 38L22 37L23 37L23 38L25 38L25 37L29 37L29 36L32 36L32 38L33 38L33 39L31 39L31 37L30 37L30 38L29 38L29 39L30 39L30 40L28 40L28 38L26 38L26 39L25 39L25 40L26 40L26 39L27 39L27 40L28 40L28 41L31 41L31 40L33 40L33 41L34 41L34 40L33 40L33 39L35 39L35 40L36 40L36 39L37 39L37 40L40 40L40 38L41 38L41 37L40 37L40 36L38 36L38 35L40 35L40 34L41 34L41 33L40 33L40 30L41 30L41 28L40 28L40 26L41 26L41 23L39 23L39 24L40 24L40 26L39 26L39 25L36 25L36 24L37 24L37 23L38 23L38 21L39 21L39 20L38 20L38 19L37 19L37 20L36 20L36 19L35 19L35 17L36 17L36 18L38 18L38 17L39 17L39 18L41 18L41 16L40 16L40 17L39 17L39 16L37 16L37 14L38 14L38 15L39 15L39 14L41 14L41 13L40 13L40 12L41 12L41 11L40 11L40 10L41 10L41 8L38 8L38 9L40 9L40 10L37 10L37 9L36 9L36 8L32 8L32 7L33 7L33 4L29 4L29 3L31 3L31 2L30 2L30 0L29 0L29 1L27 1L27 0L26 0L26 1L27 1L27 2L26 2L26 3L28 3L28 4L29 4L29 5L30 5L30 8L29 8L29 6L28 6L28 5L27 5L27 4L24 4L24 3L25 3L25 0L22 0L22 2L23 2L23 1L24 1L24 3L23 3L23 5L22 5L22 3L21 3L21 6L20 6L20 9L19 9L19 10L20 10L20 11L21 11L21 10L20 10L20 9L22 9L22 10L23 10L23 11L22 11L22 13L21 13L21 15L22 15L22 17L23 17L23 18L22 18L22 19L21 19L21 18L20 18L20 19L21 19L21 20L20 20L20 21L19 21L19 18L18 18L18 20L16 20L16 21L19 21L19 22L18 22L18 23L17 23L17 22L15 22L15 21L14 21L14 20L15 20L15 19L17 19L17 16L19 16L19 17L20 17L20 16L19 16L19 15L20 15L20 13L19 13L19 12L17 12L17 14L16 14L16 13L15 13L15 12L16 12L16 11L18 11L18 10L16 10L16 9L15 9L15 12L14 12L14 11L12 11L12 10L14 10L14 8L16 8L16 7L17 7L17 9L18 9L18 8L19 8L19 5L20 5L20 4L19 4L19 5L18 5L18 7L17 7L17 6L16 6L16 7L15 7L15 4L16 4L16 1L17 1L17 4L18 4L18 2L19 2L19 1L17 1L17 0L16 0L16 1L15 1L15 0L14 0L14 1L15 1L15 3L13 3L13 2L12 2L12 3L11 3L11 0L10 0L10 1L9 1L9 0ZM20 0L20 2L21 2L21 0ZM31 0L31 1L32 1L32 2L33 2L33 1L32 1L32 0ZM23 5L23 7L22 7L22 6L21 6L21 7L22 7L22 8L23 8L23 10L24 10L24 8L23 8L23 7L24 7L24 6L25 6L25 8L26 8L26 6L27 6L27 8L28 8L28 6L27 6L27 5ZM31 5L31 7L32 7L32 5ZM9 6L9 7L10 7L10 6ZM11 6L11 8L12 8L12 6ZM13 6L13 7L14 7L14 6ZM2 8L2 9L4 9L4 10L3 10L3 11L5 11L5 10L6 10L6 11L7 11L7 10L6 10L6 9L7 9L7 8L6 8L6 9L5 9L5 8ZM9 8L9 9L10 9L10 8ZM31 8L31 9L27 9L27 10L28 10L28 13L29 13L29 14L27 14L27 13L26 13L26 12L27 12L27 11L24 11L24 13L23 13L23 14L22 14L22 15L24 15L24 18L25 18L25 19L22 19L22 22L21 22L21 21L20 21L20 23L18 23L18 24L17 24L17 23L15 23L15 25L10 25L10 24L13 24L13 23L14 23L14 22L13 22L13 20L14 20L14 18L15 18L15 17L16 17L16 16L17 16L17 15L19 15L19 14L17 14L17 15L16 15L16 14L15 14L15 15L14 15L14 17L13 17L13 20L11 20L11 21L10 21L10 22L9 22L9 20L8 20L8 22L7 22L7 23L5 23L5 24L8 24L8 22L9 22L9 23L10 23L10 24L9 24L9 25L6 25L6 26L5 26L5 25L4 25L4 26L3 26L3 27L4 27L4 26L5 26L5 28L7 28L7 27L6 27L6 26L10 26L10 27L9 27L9 28L8 28L8 29L5 29L5 30L8 30L8 31L9 31L9 32L10 32L10 31L11 31L11 32L12 32L12 33L13 33L13 32L14 32L14 34L15 34L15 33L16 33L16 32L14 32L14 31L13 31L13 32L12 32L12 31L11 31L11 29L10 29L10 28L13 28L13 30L15 30L15 29L14 29L14 28L15 28L15 27L16 27L16 26L17 26L17 28L18 28L18 26L19 26L19 28L20 28L20 29L19 29L19 30L18 30L18 29L17 29L17 30L16 30L16 31L19 31L19 30L20 30L20 32L18 32L18 33L20 33L20 35L22 35L22 36L21 36L21 37L22 37L22 36L23 36L23 37L25 37L25 36L23 36L23 33L22 33L22 34L21 34L21 33L20 33L20 32L21 32L21 29L22 29L22 31L23 31L23 30L25 30L25 32L26 32L26 30L27 30L27 28L31 28L31 29L30 29L30 30L29 30L29 29L28 29L28 30L29 30L29 31L28 31L28 32L31 32L31 31L30 31L30 30L32 30L32 31L33 31L33 32L35 32L35 31L37 31L37 32L39 32L39 26L38 26L38 28L36 28L36 27L37 27L37 26L36 26L36 25L35 25L35 24L36 24L36 23L35 23L35 22L36 22L36 21L35 21L35 19L34 19L34 18L33 18L33 17L32 17L32 16L34 16L34 17L35 17L35 15L36 15L36 13L38 13L38 14L39 14L39 12L40 12L40 11L38 11L38 12L36 12L36 11L35 11L35 13L34 13L34 12L33 12L33 13L32 13L32 10L33 10L33 11L34 11L34 9L32 9L32 8ZM11 9L11 10L9 10L9 11L10 11L10 12L11 12L11 10L12 10L12 9ZM25 9L25 10L26 10L26 9ZM31 9L31 10L29 10L29 11L31 11L31 10L32 10L32 9ZM35 9L35 10L36 10L36 9ZM1 10L1 12L2 12L2 13L1 13L1 14L0 14L0 15L3 15L3 14L2 14L2 13L3 13L3 12L2 12L2 10ZM12 12L12 13L11 13L11 15L12 15L12 13L13 13L13 14L14 14L14 12ZM29 12L29 13L30 13L30 16L29 16L29 15L28 15L28 16L29 16L29 17L31 17L31 18L30 18L30 19L31 19L31 18L32 18L32 17L31 17L31 12ZM5 13L5 14L7 14L7 15L5 15L5 16L8 16L8 13ZM33 13L33 14L32 14L32 15L34 15L34 13ZM25 16L25 18L27 18L27 19L26 19L26 20L27 20L27 21L25 21L25 22L24 22L24 20L23 20L23 22L24 22L24 23L22 23L22 27L23 27L23 25L24 25L24 27L25 27L25 28L27 28L27 27L28 27L28 26L26 26L26 24L27 24L27 25L29 25L29 26L33 26L33 27L34 27L34 26L35 26L35 27L36 27L36 26L35 26L35 25L32 25L32 24L31 24L31 22L33 22L33 24L35 24L35 23L34 23L34 22L35 22L35 21L34 21L34 20L33 20L33 19L32 19L32 20L33 20L33 21L31 21L31 20L30 20L30 21L28 21L28 20L29 20L29 19L28 19L28 18L27 18L27 17L26 17L26 16ZM36 16L36 17L37 17L37 16ZM10 18L10 19L12 19L12 18ZM1 19L1 21L0 21L0 24L1 24L1 23L2 23L2 22L1 22L1 21L4 21L4 20L2 20L2 19ZM27 19L27 20L28 20L28 19ZM37 20L37 21L38 21L38 20ZM40 20L40 21L41 21L41 20ZM27 21L27 22L25 22L25 24L24 24L24 25L25 25L25 24L26 24L26 23L27 23L27 22L28 22L28 21ZM30 21L30 22L29 22L29 24L30 24L30 25L31 25L31 24L30 24L30 22L31 22L31 21ZM33 21L33 22L34 22L34 21ZM10 22L10 23L11 23L11 22ZM12 22L12 23L13 23L13 22ZM20 23L20 24L19 24L19 25L20 25L20 24L21 24L21 23ZM15 25L15 26L13 26L13 28L14 28L14 27L15 27L15 26L16 26L16 25ZM17 25L17 26L18 26L18 25ZM11 26L11 27L12 27L12 26ZM20 26L20 27L21 27L21 26ZM25 26L25 27L26 27L26 26ZM31 27L31 28L32 28L32 27ZM33 28L33 29L32 29L32 30L33 30L33 29L34 29L34 28ZM35 28L35 29L36 29L36 30L37 30L37 29L36 29L36 28ZM8 29L8 30L9 30L9 29ZM34 30L34 31L35 31L35 30ZM9 33L9 34L10 34L10 33ZM24 33L24 34L25 34L25 33ZM27 33L27 34L26 34L26 35L27 35L27 36L29 36L29 35L27 35L27 34L29 34L29 33ZM30 33L30 35L31 35L31 34L32 34L32 33ZM33 33L33 36L36 36L36 33ZM38 33L38 34L37 34L37 35L38 35L38 34L39 34L39 33ZM16 34L16 35L17 35L17 36L19 36L19 37L17 37L17 39L18 39L18 38L19 38L19 37L20 37L20 36L19 36L19 35L18 35L18 34ZM34 34L34 35L35 35L35 34ZM14 36L14 37L16 37L16 36ZM37 36L37 37L38 37L38 36ZM33 37L33 38L36 38L36 37ZM14 38L14 40L15 40L15 38ZM37 38L37 39L38 39L38 38ZM22 39L22 40L23 40L23 41L24 41L24 39ZM0 0L0 7L7 7L7 0ZM1 1L1 6L6 6L6 1ZM2 2L2 5L5 5L5 2ZM34 0L34 7L41 7L41 0ZM35 1L35 6L40 6L40 1ZM36 2L36 5L39 5L39 2ZM0 34L0 41L7 41L7 34ZM1 35L1 40L6 40L6 35ZM2 36L2 39L5 39L5 36Z" fill="#000000"/></g></g></svg>
