<?xml version="1.0" encoding="UTF-8"?>
<svg xmlns="http://www.w3.org/2000/svg" version="1.1" width="200" height="200" viewBox="0 0 200 200"><rect x="0" y="0" width="200" height="200" fill="#ffffff"/><g transform="scale(4.878)"><g transform="translate(0,0)"><path fill-rule="evenodd" d="M8 0L8 3L9 3L9 4L11 4L11 2L10 2L10 1L9 1L9 0ZM11 0L11 1L12 1L12 4L13 4L13 5L12 5L12 7L11 7L11 6L10 6L10 5L8 5L8 9L10 9L10 10L8 10L8 12L6 12L6 11L7 11L7 10L6 10L6 9L7 9L7 8L6 8L6 9L5 9L5 8L2 8L2 9L0 9L0 12L1 12L1 10L2 10L2 11L3 11L3 12L2 12L2 13L0 13L0 14L2 14L2 15L4 15L4 14L5 14L5 13L4 13L4 12L6 12L6 13L8 13L8 12L9 12L9 11L10 11L10 13L9 13L9 14L8 14L8 15L7 15L7 14L6 14L6 15L7 15L7 16L4 16L4 18L3 18L3 19L2 19L2 17L1 17L1 16L0 16L0 18L1 18L1 20L2 20L2 22L1 22L1 21L0 21L0 22L1 22L1 23L0 23L0 25L1 25L1 26L0 26L0 33L1 33L1 30L2 30L2 31L3 31L3 33L5 33L5 32L6 32L6 33L7 33L7 32L6 32L6 31L7 31L7 30L5 30L5 32L4 32L4 29L7 29L7 28L8 28L8 29L9 29L9 30L8 30L8 34L9 34L9 33L10 33L10 31L11 31L11 32L12 32L12 34L16 34L16 32L17 32L17 34L18 34L18 35L16 35L16 38L15 38L15 37L14 37L14 35L12 35L12 36L13 36L13 37L12 37L12 38L11 38L11 37L10 37L10 39L9 39L9 36L8 36L8 39L9 39L9 40L10 40L10 39L11 39L11 40L12 40L12 38L13 38L13 37L14 37L14 39L13 39L13 40L14 40L14 39L15 39L15 40L16 40L16 38L17 38L17 36L18 36L18 39L19 39L19 40L20 40L20 39L21 39L21 38L20 38L20 37L23 37L23 36L22 36L22 35L23 35L23 34L24 34L24 36L25 36L25 38L26 38L26 34L27 34L27 37L28 37L28 38L27 38L27 40L26 40L26 41L27 41L27 40L28 40L28 41L31 41L31 40L33 40L33 41L34 41L34 40L33 40L33 38L34 38L34 39L35 39L35 40L36 40L36 39L38 39L38 38L39 38L39 40L40 40L40 38L41 38L41 37L40 37L40 36L37 36L37 34L38 34L38 35L40 35L40 34L41 34L41 33L39 33L39 32L38 32L38 30L39 30L39 31L40 31L40 30L41 30L41 29L38 29L38 30L37 30L37 29L36 29L36 28L38 28L38 26L39 26L39 28L40 28L40 26L41 26L41 23L40 23L40 26L39 26L39 24L37 24L37 25L34 25L34 24L36 24L36 23L33 23L33 21L34 21L34 22L36 22L36 21L37 21L37 20L38 20L38 22L39 22L39 20L38 20L38 19L40 19L40 18L41 18L41 16L40 16L40 18L38 18L38 17L39 17L39 16L37 16L37 17L36 17L36 16L35 16L35 17L34 17L34 16L33 16L33 15L34 15L34 14L33 14L33 13L34 13L34 12L33 12L33 13L32 13L32 14L31 14L31 12L29 12L29 11L31 11L31 10L32 10L32 11L34 11L34 10L37 10L37 11L35 11L35 12L38 12L38 11L39 11L39 13L40 13L40 14L37 14L37 13L36 13L36 15L40 15L40 14L41 14L41 12L40 12L40 10L41 10L41 8L38 8L38 9L40 9L40 10L37 10L37 9L36 9L36 8L32 8L32 9L30 9L30 8L31 8L31 6L30 6L30 5L29 5L29 4L28 4L28 5L26 5L26 4L27 4L27 3L29 3L29 1L27 1L27 0L25 0L25 1L24 1L24 0L22 0L22 1L21 1L21 2L22 2L22 3L24 3L24 2L25 2L25 3L26 3L26 4L25 4L25 5L24 5L24 7L23 7L23 6L22 6L22 8L21 8L21 9L22 9L22 8L25 8L25 10L24 10L24 9L23 9L23 10L22 10L22 11L21 11L21 12L20 12L20 13L21 13L21 14L20 14L20 15L19 15L19 14L18 14L18 13L19 13L19 11L16 11L16 10L17 10L17 9L16 9L16 10L14 10L14 11L12 11L12 12L11 12L11 11L10 11L10 10L11 10L11 9L12 9L12 10L13 10L13 9L14 9L14 7L15 7L15 5L16 5L16 7L17 7L17 6L18 6L18 10L20 10L20 9L19 9L19 6L18 6L18 5L20 5L20 4L21 4L21 3L20 3L20 2L17 2L17 1L18 1L18 0L16 0L16 1L14 1L14 0ZM19 0L19 1L20 1L20 0ZM31 0L31 1L30 1L30 2L31 2L31 3L30 3L30 4L31 4L31 5L32 5L32 7L33 7L33 5L32 5L32 4L33 4L33 3L32 3L32 2L33 2L33 1L32 1L32 0ZM13 1L13 4L14 4L14 5L15 5L15 4L14 4L14 1ZM22 1L22 2L24 2L24 1ZM31 1L31 2L32 2L32 1ZM9 2L9 3L10 3L10 2ZM15 2L15 3L16 3L16 5L17 5L17 4L18 4L18 3L16 3L16 2ZM26 2L26 3L27 3L27 2ZM19 3L19 4L20 4L20 3ZM31 3L31 4L32 4L32 3ZM9 6L9 7L10 7L10 6ZM13 6L13 7L14 7L14 6ZM20 6L20 7L21 7L21 6ZM25 6L25 8L26 8L26 6ZM27 6L27 7L28 7L28 9L26 9L26 11L25 11L25 12L28 12L28 11L29 11L29 10L30 10L30 9L29 9L29 8L30 8L30 6L29 6L29 7L28 7L28 6ZM12 8L12 9L13 9L13 8ZM28 9L28 10L27 10L27 11L28 11L28 10L29 10L29 9ZM32 9L32 10L33 10L33 9ZM5 10L5 11L6 11L6 10ZM14 11L14 12L15 12L15 13L14 13L14 14L13 14L13 15L14 15L14 17L16 17L16 16L17 16L17 15L16 15L16 16L15 16L15 13L16 13L16 14L17 14L17 13L18 13L18 12L17 12L17 13L16 13L16 12L15 12L15 11ZM22 11L22 12L21 12L21 13L22 13L22 14L21 14L21 15L23 15L23 16L24 16L24 17L25 17L25 18L23 18L23 17L22 17L22 16L21 16L21 17L20 17L20 16L18 16L18 17L17 17L17 18L16 18L16 19L18 19L18 18L19 18L19 20L18 20L18 22L17 22L17 20L15 20L15 21L16 21L16 22L15 22L15 23L14 23L14 22L13 22L13 20L12 20L12 21L11 21L11 20L9 20L9 19L6 19L6 20L5 20L5 21L4 21L4 19L3 19L3 22L4 22L4 24L2 24L2 23L1 23L1 25L2 25L2 26L1 26L1 28L2 28L2 29L3 29L3 26L4 26L4 27L5 27L5 25L4 25L4 24L5 24L5 22L8 22L8 24L7 24L7 23L6 23L6 24L7 24L7 25L6 25L6 26L7 26L7 27L6 27L6 28L7 28L7 27L8 27L8 28L9 28L9 29L11 29L11 31L12 31L12 30L13 30L13 31L15 31L15 30L13 30L13 29L15 29L15 28L18 28L18 29L19 29L19 30L18 30L18 32L19 32L19 33L18 33L18 34L19 34L19 35L18 35L18 36L19 36L19 37L20 37L20 36L21 36L21 34L23 34L23 33L22 33L22 32L24 32L24 33L25 33L25 32L26 32L26 31L25 31L25 30L23 30L23 31L22 31L22 30L20 30L20 29L23 29L23 26L20 26L20 27L16 27L16 26L17 26L17 25L18 25L18 24L20 24L20 25L22 25L22 24L23 24L23 23L18 23L18 22L20 22L20 19L25 19L25 20L23 20L23 22L24 22L24 21L25 21L25 20L26 20L26 21L27 21L27 22L26 22L26 23L27 23L27 22L30 22L30 21L33 21L33 20L34 20L34 21L36 21L36 20L37 20L37 18L36 18L36 17L35 17L35 19L34 19L34 18L33 18L33 19L32 19L32 18L31 18L31 17L30 17L30 19L32 19L32 20L29 20L29 21L27 21L27 20L28 20L28 19L29 19L29 16L30 16L30 15L28 15L28 17L26 17L26 16L25 16L25 15L23 15L23 14L25 14L25 13L23 13L23 12L24 12L24 11ZM11 13L11 16L12 16L12 17L10 17L10 18L13 18L13 19L15 19L15 18L13 18L13 16L12 16L12 13ZM28 13L28 14L30 14L30 13ZM32 14L32 15L33 15L33 14ZM8 16L8 17L5 17L5 18L8 18L8 17L9 17L9 16ZM32 16L32 17L33 17L33 16ZM19 17L19 18L20 18L20 17ZM25 18L25 19L26 19L26 20L27 20L27 19L28 19L28 18L27 18L27 19L26 19L26 18ZM35 19L35 20L36 20L36 19ZM6 20L6 21L8 21L8 22L9 22L9 21L8 21L8 20ZM21 20L21 21L22 21L22 20ZM40 20L40 21L41 21L41 20ZM10 21L10 22L11 22L11 21ZM12 22L12 23L9 23L9 24L8 24L8 25L7 25L7 26L8 26L8 27L9 27L9 28L12 28L12 29L13 29L13 28L12 28L12 27L13 27L13 26L12 26L12 25L14 25L14 28L15 28L15 25L16 25L16 24L15 24L15 25L14 25L14 24L13 24L13 22ZM16 22L16 23L17 23L17 24L18 24L18 23L17 23L17 22ZM31 22L31 25L30 25L30 26L29 26L29 27L28 27L28 29L29 29L29 30L27 30L27 27L26 27L26 25L27 25L27 26L28 26L28 25L29 25L29 24L30 24L30 23L28 23L28 25L27 25L27 24L25 24L25 23L24 23L24 24L25 24L25 26L24 26L24 27L26 27L26 30L27 30L27 34L28 34L28 35L29 35L29 36L28 36L28 37L29 37L29 38L28 38L28 40L31 40L31 39L32 39L32 38L33 38L33 37L32 37L32 36L31 36L31 35L30 35L30 34L32 34L32 32L36 32L36 31L34 31L34 30L36 30L36 29L34 29L34 28L33 28L33 27L34 27L34 25L32 25L32 22ZM8 25L8 26L10 26L10 27L11 27L11 26L10 26L10 25ZM31 25L31 26L32 26L32 25ZM36 26L36 27L35 27L35 28L36 28L36 27L37 27L37 26ZM19 28L19 29L20 29L20 28ZM24 28L24 29L25 29L25 28ZM29 28L29 29L33 29L33 30L32 30L32 31L33 31L33 30L34 30L34 29L33 29L33 28ZM19 31L19 32L20 32L20 33L19 33L19 34L20 34L20 33L21 33L21 32L22 32L22 31ZM24 31L24 32L25 32L25 31ZM28 31L28 32L29 32L29 33L28 33L28 34L29 34L29 33L31 33L31 31L30 31L30 32L29 32L29 31ZM13 32L13 33L15 33L15 32ZM37 32L37 33L38 33L38 34L39 34L39 33L38 33L38 32ZM33 33L33 36L36 36L36 33ZM34 34L34 35L35 35L35 34ZM19 35L19 36L20 36L20 35ZM30 36L30 37L31 37L31 38L30 38L30 39L31 39L31 38L32 38L32 37L31 37L31 36ZM34 37L34 38L36 38L36 37ZM37 37L37 38L38 38L38 37ZM19 38L19 39L20 39L20 38ZM22 39L22 40L21 40L21 41L22 41L22 40L23 40L23 41L25 41L25 40L24 40L24 39ZM17 40L17 41L18 41L18 40ZM0 0L0 7L7 7L7 0ZM1 1L1 6L6 6L6 1ZM2 2L2 5L5 5L5 2ZM34 0L34 7L41 7L41 0ZM35 1L35 6L40 6L40 1ZM36 2L36 5L39 5L39 2ZM0 34L0 41L7 41L7 34ZM1 35L1 40L6 40L6 35ZM2 36L2 39L5 39L5 36Z" fill="#000000"/></g></g></svg>
