<?xml version="1.0" encoding="UTF-8"?>
<svg xmlns="http://www.w3.org/2000/svg" version="1.1" width="200" height="200" viewBox="0 0 200 200"><rect x="0" y="0" width="200" height="200" fill="#ffffff"/><g transform="scale(6.897)"><g transform="translate(0,0)"><path fill-rule="evenodd" d="M9 0L9 1L8 1L8 7L9 7L9 8L5 8L5 9L4 9L4 10L2 10L2 9L3 9L3 8L2 8L2 9L0 9L0 10L1 10L1 12L2 12L2 11L3 11L3 12L4 12L4 10L5 10L5 9L8 9L8 10L6 10L6 11L5 11L5 13L7 13L7 12L9 12L9 13L10 13L10 11L12 11L12 10L14 10L14 11L13 11L13 12L14 12L14 11L15 11L15 13L14 13L14 14L13 14L13 13L12 13L12 12L11 12L11 14L10 14L10 16L9 16L9 14L6 14L6 15L5 15L5 14L4 14L4 13L3 13L3 14L2 14L2 13L0 13L0 17L2 17L2 18L0 18L0 19L2 19L2 20L0 20L0 21L2 21L2 20L3 20L3 21L4 21L4 20L6 20L6 21L8 21L8 24L9 24L9 25L11 25L11 29L12 29L12 27L13 27L13 28L14 28L14 27L13 27L13 26L12 26L12 25L13 25L13 23L15 23L15 24L14 24L14 25L15 25L15 26L16 26L16 29L19 29L19 28L17 28L17 26L16 26L16 25L15 25L15 24L17 24L17 25L18 25L18 26L20 26L20 27L21 27L21 29L22 29L22 28L24 28L24 29L26 29L26 27L28 27L28 28L27 28L27 29L29 29L29 26L26 26L26 25L27 25L27 24L28 24L28 25L29 25L29 24L28 24L28 23L29 23L29 21L27 21L27 20L25 20L25 18L28 18L28 19L29 19L29 18L28 18L28 17L29 17L29 16L27 16L27 17L25 17L25 16L22 16L22 15L25 15L25 14L26 14L26 13L27 13L27 14L28 14L28 15L29 15L29 14L28 14L28 13L29 13L29 12L27 12L27 11L29 11L29 9L28 9L28 8L23 8L23 10L22 10L22 11L21 11L21 9L22 9L22 8L20 8L20 7L21 7L21 0L19 0L19 1L20 1L20 2L19 2L19 3L20 3L20 5L19 5L19 4L18 4L18 5L17 5L17 3L18 3L18 2L17 2L17 3L16 3L16 1L18 1L18 0L15 0L15 3L14 3L14 2L12 2L12 1L13 1L13 0L12 0L12 1L10 1L10 0ZM10 2L10 3L11 3L11 5L9 5L9 7L10 7L10 6L11 6L11 8L12 8L12 9L11 9L11 10L12 10L12 9L14 9L14 8L15 8L15 7L16 7L16 6L17 6L17 7L18 7L18 10L17 10L17 11L18 11L18 10L19 10L19 11L20 11L20 8L19 8L19 7L20 7L20 6L19 6L19 7L18 7L18 6L17 6L17 5L16 5L16 6L15 6L15 4L16 4L16 3L15 3L15 4L14 4L14 3L12 3L12 2ZM13 4L13 5L12 5L12 7L13 7L13 5L14 5L14 4ZM14 6L14 7L15 7L15 6ZM9 8L9 10L10 10L10 8ZM16 8L16 9L15 9L15 11L16 11L16 9L17 9L17 8ZM27 9L27 10L28 10L28 9ZM24 10L24 11L26 11L26 10ZM6 11L6 12L7 12L7 11ZM17 12L17 13L16 13L16 14L17 14L17 15L19 15L19 16L18 16L18 19L17 19L17 16L16 16L16 17L15 17L15 14L14 14L14 16L12 16L12 17L11 17L11 18L10 18L10 19L9 19L9 16L8 16L8 18L7 18L7 17L6 17L6 18L7 18L7 19L6 19L6 20L7 20L7 19L9 19L9 21L10 21L10 19L11 19L11 18L12 18L12 19L13 19L13 20L12 20L12 22L15 22L15 23L16 23L16 22L15 22L15 19L16 19L16 21L17 21L17 20L18 20L18 21L19 21L19 22L20 22L20 21L19 21L19 20L22 20L22 19L21 19L21 15L19 15L19 14L22 14L22 12L21 12L21 13L20 13L20 12L19 12L19 14L18 14L18 12ZM23 12L23 14L25 14L25 13L24 13L24 12ZM3 14L3 15L1 15L1 16L3 16L3 17L5 17L5 15L4 15L4 14ZM11 14L11 15L13 15L13 14ZM3 15L3 16L4 16L4 15ZM6 15L6 16L7 16L7 15ZM19 16L19 17L20 17L20 16ZM22 17L22 18L25 18L25 17ZM2 18L2 19L3 19L3 18ZM13 18L13 19L15 19L15 18ZM19 18L19 19L20 19L20 18ZM23 19L23 20L24 20L24 19ZM21 21L21 24L24 24L24 21ZM26 21L26 23L25 23L25 25L21 25L21 26L22 26L22 27L23 27L23 26L24 26L24 28L25 28L25 25L26 25L26 24L27 24L27 23L28 23L28 22L27 22L27 21ZM10 22L10 23L11 23L11 25L12 25L12 23L11 23L11 22ZM17 22L17 23L18 23L18 22ZM22 22L22 23L23 23L23 22ZM19 23L19 24L20 24L20 23ZM8 26L8 27L9 27L9 26ZM0 0L0 7L7 7L7 0ZM1 1L1 6L6 6L6 1ZM2 2L2 5L5 5L5 2ZM22 0L22 7L29 7L29 0ZM23 1L23 6L28 6L28 1ZM24 2L24 5L27 5L27 2ZM0 22L0 29L7 29L7 22ZM1 23L1 28L6 28L6 23ZM2 24L2 27L5 27L5 24Z" fill="#000000"/></g></g></svg>
