<?xml version="1.0" encoding="UTF-8"?>
<svg xmlns="http://www.w3.org/2000/svg" version="1.1" width="200" height="200" viewBox="0 0 200 200"><rect x="0" y="0" width="200" height="200" fill="#ffffff"/><g transform="scale(4.878)"><g transform="translate(0,0)"><path fill-rule="evenodd" d="M8 0L8 3L9 3L9 4L11 4L11 3L12 3L12 7L11 7L11 5L10 5L10 7L9 7L9 5L8 5L8 9L9 9L9 10L10 10L10 7L11 7L11 9L12 9L12 10L14 10L14 11L12 11L12 12L13 12L13 13L12 13L12 14L11 14L11 17L12 17L12 18L11 18L11 19L10 19L10 20L9 20L9 19L8 19L8 21L10 21L10 22L8 22L8 23L9 23L9 24L5 24L5 22L6 22L6 23L7 23L7 22L6 22L6 21L7 21L7 20L6 20L6 19L7 19L7 18L6 18L6 17L7 17L7 16L9 16L9 17L8 17L8 18L9 18L9 17L10 17L10 14L9 14L9 13L8 13L8 12L6 12L6 11L7 11L7 10L6 10L6 9L7 9L7 8L6 8L6 9L5 9L5 8L2 8L2 9L0 9L0 13L1 13L1 14L2 14L2 13L3 13L3 14L4 14L4 15L0 15L0 17L1 17L1 18L0 18L0 20L1 20L1 21L0 21L0 22L1 22L1 23L0 23L0 24L1 24L1 27L0 27L0 28L1 28L1 29L0 29L0 33L1 33L1 29L2 29L2 33L3 33L3 30L4 30L4 29L5 29L5 30L6 30L6 31L5 31L5 32L6 32L6 33L8 33L8 34L9 34L9 32L10 32L10 33L13 33L13 34L12 34L12 37L14 37L14 36L13 36L13 34L14 34L14 35L15 35L15 37L16 37L16 38L15 38L15 41L17 41L17 40L19 40L19 39L20 39L20 38L19 38L19 39L18 39L18 37L19 37L19 36L17 36L17 35L16 35L16 34L15 34L15 32L16 32L16 33L17 33L17 34L18 34L18 33L21 33L21 34L20 34L20 36L21 36L21 37L23 37L23 36L24 36L24 38L25 38L25 37L26 37L26 36L28 36L28 34L27 34L27 33L29 33L29 36L31 36L31 35L32 35L32 38L33 38L33 39L30 39L30 38L31 38L31 37L30 37L30 38L29 38L29 37L28 37L28 38L27 38L27 40L28 40L28 41L31 41L31 40L33 40L33 41L34 41L34 40L33 40L33 39L35 39L35 40L36 40L36 39L37 39L37 40L40 40L40 38L41 38L41 37L40 37L40 36L41 36L41 35L40 35L40 34L41 34L41 32L40 32L40 30L41 30L41 29L40 29L40 28L41 28L41 27L40 27L40 26L41 26L41 23L39 23L39 24L40 24L40 26L39 26L39 25L34 25L34 23L31 23L31 22L33 22L33 21L34 21L34 22L35 22L35 23L36 23L36 24L37 24L37 23L38 23L38 22L39 22L39 20L36 20L36 19L35 19L35 17L36 17L36 18L37 18L37 19L39 19L39 18L41 18L41 16L40 16L40 17L39 17L39 16L38 16L38 15L40 15L40 14L41 14L41 13L40 13L40 12L41 12L41 11L40 11L40 10L41 10L41 8L38 8L38 9L40 9L40 10L37 10L37 9L36 9L36 8L33 8L33 6L32 6L32 9L31 9L31 8L29 8L29 9L28 9L28 7L29 7L29 6L30 6L30 7L31 7L31 5L32 5L32 4L33 4L33 0L29 0L29 1L27 1L27 0L26 0L26 1L27 1L27 2L26 2L26 3L28 3L28 4L29 4L29 3L32 3L32 4L30 4L30 5L27 5L27 4L26 4L26 5L25 5L25 6L24 6L24 3L25 3L25 1L23 1L23 0L21 0L21 1L20 1L20 0L17 0L17 1L16 1L16 0L12 0L12 1L11 1L11 0ZM9 1L9 2L10 2L10 1ZM13 1L13 2L12 2L12 3L13 3L13 7L12 7L12 9L13 9L13 8L14 8L14 10L15 10L15 11L14 11L14 12L15 12L15 13L13 13L13 14L12 14L12 17L13 17L13 18L12 18L12 20L13 20L13 18L14 18L14 19L15 19L15 18L17 18L17 22L16 22L16 21L15 21L15 20L14 20L14 21L11 21L11 20L10 20L10 21L11 21L11 22L12 22L12 23L11 23L11 24L9 24L9 25L6 25L6 26L7 26L7 27L6 27L6 28L8 28L8 29L6 29L6 30L8 30L8 29L9 29L9 30L11 30L11 29L12 29L12 30L13 30L13 31L10 31L10 32L13 32L13 33L14 33L14 32L15 32L15 31L16 31L16 32L17 32L17 33L18 33L18 31L20 31L20 30L21 30L21 33L22 33L22 35L27 35L27 34L26 34L26 33L24 33L24 32L27 32L27 31L26 31L26 30L24 30L24 29L28 29L28 30L30 30L30 31L28 31L28 32L31 32L31 30L32 30L32 31L33 31L33 32L36 32L36 31L37 31L37 30L35 30L35 29L38 29L38 32L37 32L37 33L38 33L38 35L37 35L37 36L39 36L39 33L38 33L38 32L39 32L39 26L38 26L38 28L36 28L36 27L37 27L37 26L34 26L34 25L33 25L33 24L30 24L30 22L31 22L31 21L33 21L33 20L34 20L34 21L35 21L35 22L36 22L36 21L35 21L35 19L34 19L34 18L33 18L33 17L32 17L32 16L34 16L34 17L35 17L35 16L36 16L36 17L37 17L37 18L39 18L39 17L38 17L38 16L36 16L36 15L37 15L37 14L40 14L40 13L39 13L39 12L40 12L40 11L38 11L38 12L35 12L35 13L34 13L34 12L33 12L33 11L34 11L34 9L32 9L32 10L31 10L31 9L29 9L29 10L28 10L28 9L27 9L27 7L28 7L28 6L27 6L27 7L26 7L26 6L25 6L25 7L26 7L26 12L25 12L25 11L24 11L24 13L23 13L23 16L24 16L24 17L22 17L22 18L24 18L24 17L25 17L25 16L26 16L26 17L27 17L27 18L29 18L29 19L28 19L28 20L26 20L26 18L25 18L25 20L23 20L23 21L22 21L22 19L20 19L20 18L21 18L21 16L22 16L22 12L23 12L23 11L20 11L20 9L19 9L19 10L18 10L18 9L17 9L17 8L16 8L16 9L15 9L15 7L16 7L16 5L14 5L14 1ZM15 1L15 3L17 3L17 5L18 5L18 6L17 6L17 7L18 7L18 8L20 8L20 6L21 6L21 8L23 8L23 7L24 7L24 6L23 6L23 3L22 3L22 5L20 5L20 4L18 4L18 3L21 3L21 2L19 2L19 1L18 1L18 3L17 3L17 2L16 2L16 1ZM30 1L30 2L32 2L32 1ZM14 6L14 7L15 7L15 6ZM18 6L18 7L19 7L19 6ZM22 6L22 7L23 7L23 6ZM2 9L2 10L1 10L1 12L2 12L2 10L3 10L3 9ZM16 9L16 11L17 11L17 12L16 12L16 13L15 13L15 15L13 15L13 16L15 16L15 17L14 17L14 18L15 18L15 17L16 17L16 16L17 16L17 18L18 18L18 22L17 22L17 24L19 24L19 25L16 25L16 23L15 23L15 22L13 22L13 24L12 24L12 25L11 25L11 26L9 26L9 27L8 27L8 28L9 28L9 29L11 29L11 28L10 28L10 27L11 27L11 26L12 26L12 29L14 29L14 30L15 30L15 26L14 26L14 25L16 25L16 26L19 26L19 25L20 25L20 24L21 24L21 25L22 25L22 23L20 23L20 22L22 22L22 21L20 21L20 20L19 20L19 18L20 18L20 17L18 17L18 16L21 16L21 15L20 15L20 14L21 14L21 12L19 12L19 11L17 11L17 9ZM21 9L21 10L24 10L24 9ZM35 9L35 11L36 11L36 9ZM4 10L4 13L5 13L5 15L4 15L4 16L5 16L5 15L6 15L6 16L7 16L7 15L9 15L9 14L8 14L8 13L6 13L6 12L5 12L5 11L6 11L6 10ZM27 10L27 12L26 12L26 13L24 13L24 16L25 16L25 14L26 14L26 15L27 15L27 14L29 14L29 13L30 13L30 15L31 15L31 12L29 12L29 11L28 11L28 10ZM30 10L30 11L31 11L31 10ZM32 10L32 11L33 11L33 10ZM18 12L18 14L20 14L20 13L19 13L19 12ZM28 12L28 13L29 13L29 12ZM32 12L32 13L33 13L33 14L32 14L32 15L34 15L34 13L33 13L33 12ZM26 13L26 14L27 14L27 13ZM36 13L36 14L35 14L35 15L36 15L36 14L37 14L37 13ZM6 14L6 15L7 15L7 14ZM16 14L16 15L17 15L17 16L18 16L18 15L17 15L17 14ZM28 15L28 16L29 16L29 17L31 17L31 18L30 18L30 19L31 19L31 20L30 20L30 21L31 21L31 20L33 20L33 18L32 18L32 17L31 17L31 16L29 16L29 15ZM2 17L2 18L1 18L1 19L2 19L2 18L4 18L4 19L6 19L6 18L5 18L5 17ZM31 18L31 19L32 19L32 18ZM2 20L2 27L3 27L3 28L2 28L2 29L3 29L3 28L5 28L5 26L4 26L4 25L3 25L3 22L4 22L4 21L6 21L6 20L4 20L4 21L3 21L3 20ZM40 20L40 21L41 21L41 20ZM19 21L19 22L20 22L20 21ZM23 21L23 23L24 23L24 21ZM25 21L25 22L26 22L26 21ZM28 21L28 22L27 22L27 25L26 25L26 23L25 23L25 24L24 24L24 25L23 25L23 26L21 26L21 27L23 27L23 26L24 26L24 28L26 28L26 26L27 26L27 28L28 28L28 29L31 29L31 28L32 28L32 27L34 27L34 26L33 26L33 25L30 25L30 24L29 24L29 21ZM37 21L37 22L38 22L38 21ZM14 23L14 24L13 24L13 25L14 25L14 24L15 24L15 23ZM19 23L19 24L20 24L20 23ZM24 25L24 26L25 26L25 25ZM27 25L27 26L29 26L29 27L28 27L28 28L31 28L31 27L32 27L32 26L29 26L29 25ZM3 26L3 27L4 27L4 26ZM13 26L13 27L14 27L14 26ZM18 27L18 29L17 29L17 31L18 31L18 30L20 30L20 29L21 29L21 30L22 30L22 33L23 33L23 32L24 32L24 30L23 30L23 28L20 28L20 29L19 29L19 27ZM33 28L33 29L32 29L32 30L33 30L33 29L34 29L34 28ZM34 30L34 31L35 31L35 30ZM6 31L6 32L9 32L9 31ZM13 31L13 32L14 32L14 31ZM30 33L30 35L31 35L31 33ZM33 33L33 36L36 36L36 33ZM34 34L34 35L35 35L35 34ZM9 35L9 36L8 36L8 39L9 39L9 40L10 40L10 41L11 41L11 40L12 40L12 41L14 41L14 40L13 40L13 39L14 39L14 38L13 38L13 39L11 39L11 40L10 40L10 38L11 38L11 36L10 36L10 35ZM9 37L9 38L10 38L10 37ZM33 37L33 38L36 38L36 37ZM16 38L16 40L17 40L17 38ZM21 38L21 39L22 39L22 40L20 40L20 41L23 41L23 38ZM37 38L37 39L38 39L38 38ZM28 39L28 40L30 40L30 39ZM25 40L25 41L26 41L26 40ZM0 0L0 7L7 7L7 0ZM1 1L1 6L6 6L6 1ZM2 2L2 5L5 5L5 2ZM34 0L34 7L41 7L41 0ZM35 1L35 6L40 6L40 1ZM36 2L36 5L39 5L39 2ZM0 34L0 41L7 41L7 34ZM1 35L1 40L6 40L6 35ZM2 36L2 39L5 39L5 36Z" fill="#000000"/></g></g></svg>
