<?xml version="1.0" encoding="UTF-8"?>
<svg xmlns="http://www.w3.org/2000/svg" version="1.1" width="200" height="200" viewBox="0 0 200 200"><rect x="0" y="0" width="200" height="200" fill="#ffffff"/><g transform="scale(4.878)"><g transform="translate(0,0)"><path fill-rule="evenodd" d="M8 0L8 3L9 3L9 4L10 4L10 3L13 3L13 5L12 5L12 8L9 8L9 6L10 6L10 7L11 7L11 5L8 5L8 10L6 10L6 11L5 11L5 10L3 10L3 9L5 9L5 8L2 8L2 9L1 9L1 10L0 10L0 12L2 12L2 13L1 13L1 14L2 14L2 13L3 13L3 14L6 14L6 15L7 15L7 16L6 16L6 17L7 17L7 18L5 18L5 19L3 19L3 18L4 18L4 17L5 17L5 15L1 15L1 16L4 16L4 17L3 17L3 18L2 18L2 19L0 19L0 20L1 20L1 21L0 21L0 23L1 23L1 25L0 25L0 26L1 26L1 25L2 25L2 26L3 26L3 25L2 25L2 22L3 22L3 24L4 24L4 23L5 23L5 22L6 22L6 23L10 23L10 26L12 26L12 24L13 24L13 25L14 25L14 24L16 24L16 25L15 25L15 26L13 26L13 27L12 27L12 29L10 29L10 30L8 30L8 31L10 31L10 32L9 32L9 33L8 33L8 34L9 34L9 36L8 36L8 39L10 39L10 41L11 41L11 40L12 40L12 41L13 41L13 40L14 40L14 39L17 39L17 40L18 40L18 39L19 39L19 40L21 40L21 41L26 41L26 40L25 40L25 39L26 39L26 38L25 38L25 37L29 37L29 36L31 36L31 35L32 35L32 37L30 37L30 38L27 38L27 41L32 41L32 40L33 40L33 41L34 41L34 40L33 40L33 39L32 39L32 40L28 40L28 39L31 39L31 38L32 38L32 37L33 37L33 38L34 38L34 39L35 39L35 40L36 40L36 39L37 39L37 40L40 40L40 38L41 38L41 37L40 37L40 36L41 36L41 35L40 35L40 34L41 34L41 33L40 33L40 32L37 32L37 31L40 31L40 30L41 30L41 29L40 29L40 28L39 28L39 30L37 30L37 29L35 29L35 30L34 30L34 31L36 31L36 32L33 32L33 31L32 31L32 30L33 30L33 29L34 29L34 28L33 28L33 29L32 29L32 30L31 30L31 29L30 29L30 28L28 28L28 26L30 26L30 25L31 25L31 26L32 26L32 27L34 27L34 26L37 26L37 27L35 27L35 28L38 28L38 26L39 26L39 27L40 27L40 26L41 26L41 23L39 23L39 24L40 24L40 26L39 26L39 25L34 25L34 24L35 24L35 23L36 23L36 24L37 24L37 23L38 23L38 22L39 22L39 20L38 20L38 19L39 19L39 18L41 18L41 16L40 16L40 17L39 17L39 16L38 16L38 15L36 15L36 16L35 16L35 17L34 17L34 16L33 16L33 17L30 17L30 16L29 16L29 15L31 15L31 12L32 12L32 13L33 13L33 14L32 14L32 15L34 15L34 13L35 13L35 12L38 12L38 11L40 11L40 12L39 12L39 13L40 13L40 14L39 14L39 15L40 15L40 14L41 14L41 13L40 13L40 12L41 12L41 11L40 11L40 10L41 10L41 8L38 8L38 9L40 9L40 10L37 10L37 9L36 9L36 8L33 8L33 9L31 9L31 6L30 6L30 8L27 8L27 9L26 9L26 10L25 10L25 9L24 9L24 8L25 8L25 6L26 6L26 7L27 7L27 6L28 6L28 7L29 7L29 4L28 4L28 5L27 5L27 4L26 4L26 5L25 5L25 6L24 6L24 5L23 5L23 6L22 6L22 3L24 3L24 4L25 4L25 2L24 2L24 1L23 1L23 0L22 0L22 3L21 3L21 1L20 1L20 0L18 0L18 1L19 1L19 2L16 2L16 3L18 3L18 4L16 4L16 5L18 5L18 7L19 7L19 8L16 8L16 7L17 7L17 6L16 6L16 7L15 7L15 6L14 6L14 7L13 7L13 5L15 5L15 3L13 3L13 2L14 2L14 1L15 1L15 0L14 0L14 1L13 1L13 0L10 0L10 1L9 1L9 0ZM16 0L16 1L17 1L17 0ZM26 0L26 1L27 1L27 2L26 2L26 3L31 3L31 2L30 2L30 1L33 1L33 0L29 0L29 1L27 1L27 0ZM10 1L10 2L9 2L9 3L10 3L10 2L12 2L12 1ZM32 2L32 3L33 3L33 2ZM20 3L20 4L19 4L19 5L21 5L21 3ZM30 4L30 5L32 5L32 7L33 7L33 4ZM19 6L19 7L20 7L20 6ZM21 6L21 7L22 7L22 9L20 9L20 8L19 8L19 9L20 9L20 10L22 10L22 9L23 9L23 11L24 11L24 12L21 12L21 11L20 11L20 12L18 12L18 11L19 11L19 10L18 10L18 9L17 9L17 10L16 10L16 11L15 11L15 9L16 9L16 8L15 8L15 9L14 9L14 8L12 8L12 9L9 9L9 10L10 10L10 11L6 11L6 12L5 12L5 11L3 11L3 10L2 10L2 12L4 12L4 13L6 13L6 14L7 14L7 15L8 15L8 16L7 16L7 17L8 17L8 18L9 18L9 17L12 17L12 18L10 18L10 19L9 19L9 20L10 20L10 19L11 19L11 20L12 20L12 21L11 21L11 22L14 22L14 23L15 23L15 22L16 22L16 23L20 23L20 20L19 20L19 21L18 21L18 20L17 20L17 18L15 18L15 17L16 17L16 16L19 16L19 17L18 17L18 19L20 19L20 18L21 18L21 17L22 17L22 18L23 18L23 20L22 20L22 19L21 19L21 22L22 22L22 23L21 23L21 24L22 24L22 23L23 23L23 24L24 24L24 25L21 25L21 26L20 26L20 25L19 25L19 24L18 24L18 28L17 28L17 29L16 29L16 28L15 28L15 29L13 29L13 32L10 32L10 33L13 33L13 34L14 34L14 35L13 35L13 39L14 39L14 38L15 38L15 37L19 37L19 39L20 39L20 38L21 38L21 39L22 39L22 34L24 34L24 33L25 33L25 35L27 35L27 34L28 34L28 33L29 33L29 32L30 32L30 33L31 33L31 30L30 30L30 29L28 29L28 30L29 30L29 31L28 31L28 33L26 33L26 32L27 32L27 30L26 30L26 28L27 28L27 27L25 27L25 28L21 28L21 27L22 27L22 26L23 26L23 27L24 27L24 25L25 25L25 26L28 26L28 25L29 25L29 24L30 24L30 23L31 23L31 25L32 25L32 26L34 26L34 25L32 25L32 22L34 22L34 23L33 23L33 24L34 24L34 23L35 23L35 22L36 22L36 21L35 21L35 19L36 19L36 20L37 20L37 22L38 22L38 20L37 20L37 18L36 18L36 17L38 17L38 18L39 18L39 17L38 17L38 16L36 16L36 17L35 17L35 19L34 19L34 18L33 18L33 19L32 19L32 18L31 18L31 19L30 19L30 17L29 17L29 16L28 16L28 15L29 15L29 14L30 14L30 13L29 13L29 12L31 12L31 11L32 11L32 12L33 12L33 13L34 13L34 12L33 12L33 11L34 11L34 10L31 10L31 9L27 9L27 10L28 10L28 11L29 11L29 12L28 12L28 13L29 13L29 14L26 14L26 16L27 16L27 17L26 17L26 18L25 18L25 17L24 17L24 16L23 16L23 15L25 15L25 13L26 13L26 11L25 11L25 10L24 10L24 9L23 9L23 7L24 7L24 6L23 6L23 7L22 7L22 6ZM6 8L6 9L7 9L7 8ZM12 9L12 10L11 10L11 11L10 11L10 12L8 12L8 13L11 13L11 12L12 12L12 10L13 10L13 13L12 13L12 14L14 14L14 15L11 15L11 16L12 16L12 17L13 17L13 16L14 16L14 17L15 17L15 16L16 16L16 15L18 15L18 14L16 14L16 13L18 13L18 12L15 12L15 14L14 14L14 10L13 10L13 9ZM17 10L17 11L18 11L18 10ZM30 10L30 11L31 11L31 10ZM35 10L35 11L36 11L36 10ZM6 12L6 13L7 13L7 12ZM19 13L19 15L20 15L20 14L21 14L21 13ZM23 13L23 14L24 14L24 13ZM36 13L36 14L38 14L38 13ZM15 14L15 15L16 15L16 14ZM9 15L9 16L8 16L8 17L9 17L9 16L10 16L10 15ZM22 16L22 17L23 17L23 16ZM0 17L0 18L1 18L1 17ZM27 18L27 19L25 19L25 20L23 20L23 21L25 21L25 22L26 22L26 21L29 21L29 19L28 19L28 18ZM2 19L2 20L3 20L3 22L4 22L4 21L5 21L5 20L8 20L8 19L5 19L5 20L3 20L3 19ZM15 19L15 21L14 21L14 20L13 20L13 21L14 21L14 22L15 22L15 21L16 21L16 22L17 22L17 21L16 21L16 19ZM27 19L27 20L28 20L28 19ZM30 20L30 21L31 21L31 22L32 22L32 21L34 21L34 22L35 22L35 21L34 21L34 20ZM40 20L40 21L41 21L41 20ZM6 21L6 22L9 22L9 21ZM23 22L23 23L24 23L24 22ZM27 22L27 23L25 23L25 24L26 24L26 25L28 25L28 24L29 24L29 23L28 23L28 22ZM11 23L11 24L12 24L12 23ZM27 23L27 24L28 24L28 23ZM6 24L6 25L7 25L7 26L6 26L6 27L5 27L5 26L4 26L4 28L2 28L2 29L1 29L1 27L0 27L0 33L1 33L1 30L2 30L2 31L3 31L3 33L4 33L4 32L5 32L5 33L7 33L7 32L6 32L6 31L7 31L7 30L6 30L6 29L7 29L7 28L8 28L8 29L9 29L9 28L11 28L11 27L9 27L9 28L8 28L8 27L7 27L7 26L9 26L9 24L8 24L8 25L7 25L7 24ZM16 26L16 27L17 27L17 26ZM19 26L19 27L20 27L20 26ZM6 27L6 28L7 28L7 27ZM13 27L13 28L14 28L14 27ZM18 28L18 29L19 29L19 28ZM20 28L20 29L21 29L21 30L22 30L22 31L23 31L23 30L24 30L24 32L26 32L26 30L25 30L25 29L21 29L21 28ZM2 29L2 30L3 30L3 29ZM4 29L4 31L6 31L6 30L5 30L5 29ZM10 30L10 31L12 31L12 30ZM14 30L14 32L15 32L15 35L14 35L14 37L15 37L15 35L16 35L16 36L17 36L17 35L18 35L18 34L22 34L22 32L20 32L20 30L19 30L19 33L18 33L18 31L17 31L17 33L18 33L18 34L17 34L17 35L16 35L16 30ZM36 30L36 31L37 31L37 30ZM33 33L33 36L36 36L36 33ZM38 33L38 35L37 35L37 36L40 36L40 35L39 35L39 33ZM11 34L11 38L10 38L10 37L9 37L9 38L10 38L10 39L11 39L11 38L12 38L12 34ZM30 34L30 35L31 35L31 34ZM34 34L34 35L35 35L35 34ZM19 36L19 37L21 37L21 36ZM24 36L24 37L23 37L23 38L24 38L24 39L25 39L25 38L24 38L24 37L25 37L25 36ZM34 37L34 38L36 38L36 37ZM17 38L17 39L18 39L18 38ZM37 38L37 39L38 39L38 38ZM15 40L15 41L16 41L16 40ZM0 0L0 7L7 7L7 0ZM1 1L1 6L6 6L6 1ZM2 2L2 5L5 5L5 2ZM34 0L34 7L41 7L41 0ZM35 1L35 6L40 6L40 1ZM36 2L36 5L39 5L39 2ZM0 34L0 41L7 41L7 34ZM1 35L1 40L6 40L6 35ZM2 36L2 39L5 39L5 36Z" fill="#000000"/></g></g></svg>
