<?xml version="1.0" encoding="UTF-8"?>
<svg xmlns="http://www.w3.org/2000/svg" version="1.1" width="200" height="200" viewBox="0 0 200 200"><rect x="0" y="0" width="200" height="200" fill="#ffffff"/><g transform="scale(4.878)"><g transform="translate(0,0)"><path fill-rule="evenodd" d="M10 0L10 1L8 1L8 7L9 7L9 5L10 5L10 9L9 9L9 8L5 8L5 9L3 9L3 8L2 8L2 9L1 9L1 10L0 10L0 16L1 16L1 15L2 15L2 17L3 17L3 15L4 15L4 17L5 17L5 16L6 16L6 17L7 17L7 16L8 16L8 17L9 17L9 16L12 16L12 15L13 15L13 14L14 14L14 15L15 15L15 16L16 16L16 20L14 20L14 19L15 19L15 17L13 17L13 18L12 18L12 17L10 17L10 18L9 18L9 19L8 19L8 18L6 18L6 19L7 19L7 20L6 20L6 21L7 21L7 22L5 22L5 23L4 23L4 21L5 21L5 20L4 20L4 18L1 18L1 17L0 17L0 23L1 23L1 22L2 22L2 23L3 23L3 24L0 24L0 27L1 27L1 26L3 26L3 27L4 27L4 29L3 29L3 30L2 30L2 28L1 28L1 30L0 30L0 31L2 31L2 32L0 32L0 33L2 33L2 32L4 32L4 33L7 33L7 32L4 32L4 31L3 31L3 30L5 30L5 31L10 31L10 32L11 32L11 31L13 31L13 32L12 32L12 34L11 34L11 35L10 35L10 34L9 34L9 32L8 32L8 36L9 36L9 35L10 35L10 36L11 36L11 35L12 35L12 36L13 36L13 37L10 37L10 38L11 38L11 39L10 39L10 40L12 40L12 41L15 41L15 38L14 38L14 35L12 35L12 34L13 34L13 32L14 32L14 31L13 31L13 30L10 30L10 29L12 29L12 27L11 27L11 28L9 28L9 27L10 27L10 24L9 24L9 27L8 27L8 24L6 24L6 23L7 23L7 22L9 22L9 23L10 23L10 22L9 22L9 20L11 20L11 21L12 21L12 23L11 23L11 24L12 24L12 23L13 23L13 24L15 24L15 25L16 25L16 26L14 26L14 25L11 25L11 26L13 26L13 27L15 27L15 28L13 28L13 29L14 29L14 30L16 30L16 31L17 31L17 34L16 34L16 35L15 35L15 36L16 36L16 37L17 37L17 36L18 36L18 39L16 39L16 40L18 40L18 41L21 41L21 39L22 39L22 38L23 38L23 37L21 37L21 38L19 38L19 36L24 36L24 35L25 35L25 36L26 36L26 34L25 34L25 32L26 32L26 33L27 33L27 35L28 35L28 32L27 32L27 31L28 31L28 30L27 30L27 29L28 29L28 27L30 27L30 28L31 28L31 29L32 29L32 31L31 31L31 30L30 30L30 29L29 29L29 31L31 31L31 32L30 32L30 33L29 33L29 34L31 34L31 32L32 32L32 35L31 35L31 38L32 38L32 41L36 41L36 40L37 40L37 41L39 41L39 39L41 39L41 25L39 25L39 24L37 24L37 26L36 26L36 27L37 27L37 29L39 29L39 28L40 28L40 30L38 30L38 31L37 31L37 32L36 32L36 30L35 30L35 32L34 32L34 31L33 31L33 30L34 30L34 29L35 29L35 28L34 28L34 27L35 27L35 20L36 20L36 21L37 21L37 22L36 22L36 23L38 23L38 19L36 19L36 18L35 18L35 16L34 16L34 15L36 15L36 16L37 16L37 18L38 18L38 15L39 15L39 16L40 16L40 15L41 15L41 12L40 12L40 13L39 13L39 12L38 12L38 11L37 11L37 14L33 14L33 17L34 17L34 18L35 18L35 20L34 20L34 19L33 19L33 22L32 22L32 16L31 16L31 15L32 15L32 14L30 14L30 18L28 18L28 17L29 17L29 11L30 11L30 13L32 13L32 12L33 12L33 11L32 11L32 10L35 10L35 11L34 11L34 12L35 12L35 13L36 13L36 10L35 10L35 9L39 9L39 11L41 11L41 9L40 9L40 8L35 8L35 9L34 9L34 8L31 8L31 6L30 6L30 5L31 5L31 3L32 3L32 7L33 7L33 3L32 3L32 2L33 2L33 1L32 1L32 2L31 2L31 0L30 0L30 1L29 1L29 0L28 0L28 2L27 2L27 4L28 4L28 2L30 2L30 4L29 4L29 6L28 6L28 7L29 7L29 6L30 6L30 8L31 8L31 11L30 11L30 10L28 10L28 9L27 9L27 13L28 13L28 15L27 15L27 14L24 14L24 15L23 15L23 16L28 16L28 17L27 17L27 19L30 19L30 20L29 20L29 21L30 21L30 22L29 22L29 23L28 23L28 21L27 21L27 20L26 20L26 19L25 19L25 18L23 18L23 19L22 19L22 17L21 17L21 16L20 16L20 17L21 17L21 19L20 19L20 18L19 18L19 17L18 17L18 16L19 16L19 15L18 15L18 16L16 16L16 15L17 15L17 13L18 13L18 12L19 12L19 11L21 11L21 12L22 12L22 14L23 14L23 13L24 13L24 12L22 12L22 11L21 11L21 10L19 10L19 9L18 9L18 10L17 10L17 11L16 11L16 12L17 12L17 13L16 13L16 15L15 15L15 12L14 12L14 11L13 11L13 14L12 14L12 11L10 11L10 9L11 9L11 10L14 10L14 9L16 9L16 7L17 7L17 6L18 6L18 8L19 8L19 4L20 4L20 8L21 8L21 9L22 9L22 10L24 10L24 11L25 11L25 12L26 12L26 10L24 10L24 9L25 9L25 8L27 8L27 6L26 6L26 7L25 7L25 5L26 5L26 4L24 4L24 2L23 2L23 1L26 1L26 0L23 0L23 1L22 1L22 3L21 3L21 4L20 4L20 3L19 3L19 0L16 0L16 1L15 1L15 2L16 2L16 1L18 1L18 2L17 2L17 3L19 3L19 4L16 4L16 3L15 3L15 4L14 4L14 1L13 1L13 0ZM20 0L20 2L21 2L21 0ZM9 2L9 4L10 4L10 3L11 3L11 4L13 4L13 2L12 2L12 3L11 3L11 2ZM25 2L25 3L26 3L26 2ZM22 4L22 5L21 5L21 7L22 7L22 6L23 6L23 7L24 7L24 8L25 8L25 7L24 7L24 6L23 6L23 4ZM12 5L12 6L11 6L11 7L12 7L12 9L13 9L13 8L14 8L14 5ZM12 6L12 7L13 7L13 6ZM15 6L15 7L16 7L16 6ZM22 8L22 9L23 9L23 8ZM2 9L2 10L1 10L1 11L2 11L2 12L1 12L1 13L3 13L3 11L5 11L5 12L4 12L4 15L6 15L6 16L7 16L7 15L10 15L10 14L11 14L11 12L10 12L10 11L8 11L8 10L7 10L7 9L5 9L5 10L3 10L3 9ZM2 10L2 11L3 11L3 10ZM6 10L6 11L7 11L7 12L5 12L5 14L6 14L6 15L7 15L7 14L6 14L6 13L9 13L9 14L10 14L10 13L9 13L9 12L8 12L8 11L7 11L7 10ZM17 11L17 12L18 12L18 11ZM31 11L31 12L32 12L32 11ZM19 13L19 14L20 14L20 13ZM38 13L38 14L39 14L39 13ZM40 17L40 19L39 19L39 20L40 20L40 19L41 19L41 17ZM10 18L10 19L11 19L11 20L12 20L12 21L13 21L13 23L14 23L14 21L13 21L13 20L12 20L12 18ZM13 18L13 19L14 19L14 18ZM1 19L1 20L2 20L2 22L3 22L3 20L2 20L2 19ZM18 19L18 20L17 20L17 21L16 21L16 22L15 22L15 24L17 24L17 25L18 25L18 26L16 26L16 27L17 27L17 28L16 28L16 29L18 29L18 30L21 30L21 31L22 31L22 32L20 32L20 31L18 31L18 34L17 34L17 35L18 35L18 36L19 36L19 35L20 35L20 34L19 34L19 32L20 32L20 33L21 33L21 34L22 34L22 35L24 35L24 34L23 34L23 32L25 32L25 31L24 31L24 30L26 30L26 29L27 29L27 26L26 26L26 25L27 25L27 21L26 21L26 22L24 22L24 23L26 23L26 24L25 24L25 26L24 26L24 27L25 27L25 29L24 29L24 30L22 30L22 29L23 29L23 27L21 27L21 26L23 26L23 23L21 23L21 22L23 22L23 21L22 21L22 20L21 20L21 21L20 21L20 20L19 20L19 19ZM23 19L23 20L24 20L24 19ZM18 20L18 22L17 22L17 24L18 24L18 25L19 25L19 27L18 27L18 28L19 28L19 29L20 29L20 28L19 28L19 27L20 27L20 26L21 26L21 25L22 25L22 24L19 24L19 23L20 23L20 22L19 22L19 20ZM39 21L39 22L40 22L40 24L41 24L41 22L40 22L40 21ZM30 22L30 23L29 23L29 24L28 24L28 26L29 26L29 25L30 25L30 23L31 23L31 24L32 24L32 26L34 26L34 23L33 23L33 24L32 24L32 23L31 23L31 22ZM3 24L3 26L4 26L4 25L5 25L5 24ZM6 25L6 26L7 26L7 25ZM30 26L30 27L31 27L31 26ZM37 26L37 27L38 27L38 28L39 28L39 27L38 27L38 26ZM5 27L5 28L7 28L7 29L5 29L5 30L9 30L9 28L7 28L7 27ZM32 27L32 28L33 28L33 27ZM38 31L38 33L37 33L37 35L38 35L38 37L39 37L39 38L38 38L38 39L39 39L39 38L40 38L40 35L39 35L39 34L40 34L40 33L39 33L39 32L40 32L40 31ZM33 33L33 36L36 36L36 33ZM34 34L34 35L35 35L35 34ZM29 35L29 37L30 37L30 35ZM27 36L27 38L26 38L26 37L25 37L25 38L26 38L26 39L25 39L25 40L24 40L24 39L23 39L23 41L28 41L28 40L26 40L26 39L28 39L28 36ZM32 37L32 38L33 38L33 39L34 39L34 40L35 40L35 39L36 39L36 38L37 38L37 37ZM8 38L8 39L9 39L9 38ZM12 38L12 40L13 40L13 38ZM29 38L29 39L30 39L30 41L31 41L31 39L30 39L30 38ZM18 39L18 40L20 40L20 39ZM40 40L40 41L41 41L41 40ZM0 0L0 7L7 7L7 0ZM1 1L1 6L6 6L6 1ZM2 2L2 5L5 5L5 2ZM34 0L34 7L41 7L41 0ZM35 1L35 6L40 6L40 1ZM36 2L36 5L39 5L39 2ZM0 34L0 41L7 41L7 34ZM1 35L1 40L6 40L6 35ZM2 36L2 39L5 39L5 36Z" fill="#000000"/></g></g></svg>
