<?xml version="1.0" encoding="UTF-8"?>
<svg xmlns="http://www.w3.org/2000/svg" version="1.1" width="200" height="200" viewBox="0 0 200 200"><rect x="0" y="0" width="200" height="200" fill="#ffffff"/><g transform="scale(4.878)"><g transform="translate(0,0)"><path fill-rule="evenodd" d="M8 0L8 3L10 3L10 1L9 1L9 0ZM11 0L11 1L13 1L13 0ZM14 0L14 3L13 3L13 4L12 4L12 3L11 3L11 4L12 4L12 5L10 5L10 7L9 7L9 5L8 5L8 9L7 9L7 8L6 8L6 9L7 9L7 10L5 10L5 8L2 8L2 9L4 9L4 11L2 11L2 10L1 10L1 9L0 9L0 12L1 12L1 13L0 13L0 14L2 14L2 12L6 12L6 13L8 13L8 14L6 14L6 15L5 15L5 14L4 14L4 13L3 13L3 15L5 15L5 17L7 17L7 16L6 16L6 15L8 15L8 17L9 17L9 15L11 15L11 18L6 18L6 19L5 19L5 21L4 21L4 20L3 20L3 19L2 19L2 18L4 18L4 17L1 17L1 16L0 16L0 20L1 20L1 21L2 21L2 22L0 22L0 23L1 23L1 24L0 24L0 26L1 26L1 27L0 27L0 33L1 33L1 30L2 30L2 29L1 29L1 28L3 28L3 27L2 27L2 26L3 26L3 25L8 25L8 26L6 26L6 27L8 27L8 30L4 30L4 29L7 29L7 28L4 28L4 29L3 29L3 30L4 30L4 31L3 31L3 32L2 32L2 33L4 33L4 32L5 32L5 33L8 33L8 34L9 34L9 35L11 35L11 36L10 36L10 37L11 37L11 38L9 38L9 36L8 36L8 39L9 39L9 41L11 41L11 40L12 40L12 41L13 41L13 37L14 37L14 35L15 35L15 34L14 34L14 33L15 33L15 32L17 32L17 33L18 33L18 38L19 38L19 39L17 39L17 38L16 38L16 36L17 36L17 34L16 34L16 36L15 36L15 38L16 38L16 40L15 40L15 39L14 39L14 40L15 40L15 41L16 41L16 40L20 40L20 39L21 39L21 40L25 40L25 39L23 39L23 37L22 37L22 36L25 36L25 35L24 35L24 34L25 34L25 33L23 33L23 32L26 32L26 34L27 34L27 35L28 35L28 34L27 34L27 33L29 33L29 36L26 36L26 37L29 37L29 38L27 38L27 41L31 41L31 40L33 40L33 41L34 41L34 40L33 40L33 39L35 39L35 40L36 40L36 39L37 39L37 40L40 40L40 38L41 38L41 37L39 37L39 36L40 36L40 34L41 34L41 33L39 33L39 32L38 32L38 29L36 29L36 28L38 28L38 26L39 26L39 27L40 27L40 28L39 28L39 31L40 31L40 30L41 30L41 29L40 29L40 28L41 28L41 27L40 27L40 26L41 26L41 23L39 23L39 22L38 22L38 21L39 21L39 20L36 20L36 19L35 19L35 17L36 17L36 18L37 18L37 19L38 19L38 17L39 17L39 18L41 18L41 16L40 16L40 17L39 17L39 16L38 16L38 15L39 15L39 14L41 14L41 13L40 13L40 12L41 12L41 11L40 11L40 10L41 10L41 8L38 8L38 9L40 9L40 10L37 10L37 9L36 9L36 8L33 8L33 6L32 6L32 9L31 9L31 8L27 8L27 6L28 6L28 7L29 7L29 4L28 4L28 5L27 5L27 4L26 4L26 5L27 5L27 6L26 6L26 7L25 7L25 6L24 6L24 7L23 7L23 6L22 6L22 8L20 8L20 7L21 7L21 5L19 5L19 4L21 4L21 3L20 3L20 2L23 2L23 1L24 1L24 2L25 2L25 0L22 0L22 1L19 1L19 0ZM26 0L26 1L27 1L27 2L26 2L26 3L32 3L32 4L30 4L30 7L31 7L31 5L32 5L32 4L33 4L33 3L32 3L32 2L30 2L30 1L33 1L33 0L29 0L29 1L27 1L27 0ZM15 1L15 3L14 3L14 5L15 5L15 7L16 7L16 8L15 8L15 9L14 9L14 6L13 6L13 5L12 5L12 6L11 6L11 7L12 7L12 6L13 6L13 10L12 10L12 8L11 8L11 10L12 10L12 11L9 11L9 9L8 9L8 10L7 10L7 11L6 11L6 12L8 12L8 13L9 13L9 14L8 14L8 15L9 15L9 14L10 14L10 13L11 13L11 12L13 12L13 10L14 10L14 13L12 13L12 14L14 14L14 16L13 16L13 17L12 17L12 20L11 20L11 19L6 19L6 20L7 20L7 21L5 21L5 22L4 22L4 21L3 21L3 22L4 22L4 23L6 23L6 24L8 24L8 25L9 25L9 24L10 24L10 23L11 23L11 22L12 22L12 23L14 23L14 22L13 22L13 21L14 21L14 20L13 20L13 19L14 19L14 18L15 18L15 19L16 19L16 18L18 18L18 19L17 19L17 20L15 20L15 21L16 21L16 22L17 22L17 21L18 21L18 23L19 23L19 19L20 19L20 18L18 18L18 17L16 17L16 18L15 18L15 17L14 17L14 16L16 16L16 15L18 15L18 14L21 14L21 15L22 15L22 16L23 16L23 17L22 17L22 18L21 18L21 19L22 19L22 20L21 20L21 21L22 21L22 22L21 22L21 23L20 23L20 25L19 25L19 24L18 24L18 25L19 25L19 26L17 26L17 25L15 25L15 26L16 26L16 27L17 27L17 30L16 30L16 31L19 31L19 32L20 32L20 30L21 30L21 32L22 32L22 31L26 31L26 30L23 30L23 28L22 28L22 27L23 27L23 25L22 25L22 24L23 24L23 23L25 23L25 24L24 24L24 25L25 25L25 26L24 26L24 29L26 29L26 27L25 27L25 26L26 26L26 24L27 24L27 26L29 26L29 27L28 27L28 28L30 28L30 29L28 29L28 30L29 30L29 31L28 31L28 32L30 32L30 33L31 33L31 32L30 32L30 29L31 29L31 30L32 30L32 31L33 31L33 32L35 32L35 31L36 31L36 29L35 29L35 26L34 26L34 25L39 25L39 26L40 26L40 24L39 24L39 23L37 23L37 24L36 24L36 23L35 23L35 22L36 22L36 21L35 21L35 19L34 19L34 18L31 18L31 17L33 17L33 16L34 16L34 17L35 17L35 14L36 14L36 13L38 13L38 14L37 14L37 15L38 15L38 14L39 14L39 11L38 11L38 12L36 12L36 11L35 11L35 13L34 13L34 12L33 12L33 13L32 13L32 11L34 11L34 9L32 9L32 10L31 10L31 9L26 9L26 8L25 8L25 7L24 7L24 8L25 8L25 9L23 9L23 10L25 10L25 11L26 11L26 12L27 12L27 11L26 11L26 10L29 10L29 11L28 11L28 13L29 13L29 14L27 14L27 13L26 13L26 14L27 14L27 15L25 15L25 16L26 16L26 17L25 17L25 18L23 18L23 17L24 17L24 15L23 15L23 14L24 14L24 12L23 12L23 14L21 14L21 13L22 13L22 12L21 12L21 11L22 11L22 10L21 10L21 9L20 9L20 10L21 10L21 11L19 11L19 12L18 12L18 10L17 10L17 14L16 14L16 15L15 15L15 14L14 14L14 13L15 13L15 12L16 12L16 11L15 11L15 10L16 10L16 9L17 9L17 8L18 8L18 6L17 6L17 7L16 7L16 5L15 5L15 4L16 4L16 1ZM17 1L17 2L18 2L18 3L17 3L17 5L18 5L18 3L19 3L19 1ZM22 3L22 5L23 5L23 3ZM24 4L24 5L25 5L25 4ZM19 6L19 7L20 7L20 6ZM25 9L25 10L26 10L26 9ZM35 9L35 10L36 10L36 9ZM8 11L8 12L9 12L9 13L10 13L10 12L9 12L9 11ZM30 11L30 12L29 12L29 13L30 13L30 14L29 14L29 15L28 15L28 16L29 16L29 17L31 17L31 11ZM20 12L20 13L21 13L21 12ZM33 13L33 14L32 14L32 15L34 15L34 13ZM29 15L29 16L30 16L30 15ZM19 16L19 17L21 17L21 16ZM36 16L36 17L38 17L38 16ZM22 18L22 19L23 19L23 18ZM25 18L25 19L26 19L26 18ZM27 18L27 20L24 20L24 21L23 21L23 22L25 22L25 21L26 21L26 23L27 23L27 24L28 24L28 25L29 25L29 26L30 26L30 25L31 25L31 26L32 26L32 28L33 28L33 29L32 29L32 30L33 30L33 29L34 29L34 28L33 28L33 27L34 27L34 26L32 26L32 25L34 25L34 24L32 24L32 23L34 23L34 22L35 22L35 21L34 21L34 20L33 20L33 19L31 19L31 18L30 18L30 19L31 19L31 20L30 20L30 21L31 21L31 22L29 22L29 23L31 23L31 24L28 24L28 22L27 22L27 21L29 21L29 19L28 19L28 18ZM8 20L8 21L7 21L7 22L6 22L6 23L9 23L9 22L8 22L8 21L10 21L10 22L11 22L11 21L10 21L10 20ZM31 20L31 21L33 21L33 22L34 22L34 21L33 21L33 20ZM40 20L40 21L41 21L41 20ZM31 22L31 23L32 23L32 22ZM2 23L2 24L1 24L1 26L2 26L2 24L3 24L3 23ZM15 23L15 24L16 24L16 23ZM31 24L31 25L32 25L32 24ZM12 25L12 26L9 26L9 27L10 27L10 29L9 29L9 30L10 30L10 31L9 31L9 34L10 34L10 33L11 33L11 32L10 32L10 31L12 31L12 28L11 28L11 27L13 27L13 26L14 26L14 25ZM20 25L20 26L21 26L21 27L19 27L19 29L18 29L18 30L20 30L20 29L21 29L21 30L22 30L22 28L21 28L21 27L22 27L22 26L21 26L21 25ZM36 26L36 27L37 27L37 26ZM13 28L13 30L14 30L14 32L15 32L15 30L14 30L14 29L15 29L15 28ZM34 30L34 31L35 31L35 30ZM6 31L6 32L7 32L7 31ZM12 32L12 33L13 33L13 32ZM37 32L37 34L38 34L38 35L37 35L37 36L39 36L39 33L38 33L38 32ZM19 33L19 34L20 34L20 35L22 35L22 34L23 34L23 33L21 33L21 34L20 34L20 33ZM33 33L33 36L36 36L36 33ZM11 34L11 35L12 35L12 34ZM13 34L13 35L14 35L14 34ZM30 34L30 35L31 35L31 36L29 36L29 37L32 37L32 38L31 38L31 39L33 39L33 38L36 38L36 37L32 37L32 35L31 35L31 34ZM34 34L34 35L35 35L35 34ZM11 36L11 37L13 37L13 36ZM19 36L19 38L20 38L20 36ZM21 37L21 39L22 39L22 37ZM11 38L11 39L12 39L12 38ZM29 38L29 39L28 39L28 40L30 40L30 38ZM37 38L37 39L38 39L38 38ZM0 0L0 7L7 7L7 0ZM1 1L1 6L6 6L6 1ZM2 2L2 5L5 5L5 2ZM34 0L34 7L41 7L41 0ZM35 1L35 6L40 6L40 1ZM36 2L36 5L39 5L39 2ZM0 34L0 41L7 41L7 34ZM1 35L1 40L6 40L6 35ZM2 36L2 39L5 39L5 36Z" fill="#000000"/></g></g></svg>
