<?xml version="1.0" encoding="UTF-8"?>
<svg xmlns="http://www.w3.org/2000/svg" version="1.1" width="200" height="200" viewBox="0 0 200 200"><rect x="0" y="0" width="200" height="200" fill="#ffffff"/><g transform="scale(6.897)"><g transform="translate(0,0)"><path fill-rule="evenodd" d="M9 0L9 2L8 2L8 4L9 4L9 6L8 6L8 7L9 7L9 6L10 6L10 8L9 8L9 9L10 9L10 10L11 10L11 11L9 11L9 12L8 12L8 8L6 8L6 9L7 9L7 10L4 10L4 9L5 9L5 8L3 8L3 10L2 10L2 9L1 9L1 10L0 10L0 13L1 13L1 14L0 14L0 16L1 16L1 17L0 17L0 21L4 21L4 20L3 20L3 19L2 19L2 17L3 17L3 16L1 16L1 14L2 14L2 15L5 15L5 16L6 16L6 17L4 17L4 19L5 19L5 21L8 21L8 23L9 23L9 21L8 21L8 20L6 20L6 19L8 19L8 18L9 18L9 20L12 20L12 19L10 19L10 17L12 17L12 18L14 18L14 17L16 17L16 16L15 16L15 14L16 14L16 15L17 15L17 17L18 17L18 15L17 15L17 13L14 13L14 12L17 12L17 11L18 11L18 14L19 14L19 15L20 15L20 16L21 16L21 19L20 19L20 18L17 18L17 19L15 19L15 20L18 20L18 21L20 21L20 24L18 24L18 23L19 23L19 22L18 22L18 23L17 23L17 21L16 21L16 23L14 23L14 22L13 22L13 21L10 21L10 23L12 23L12 22L13 22L13 23L14 23L14 24L12 24L12 26L10 26L10 28L11 28L11 29L12 29L12 28L11 28L11 27L14 27L14 28L13 28L13 29L14 29L14 28L15 28L15 27L17 27L17 28L16 28L16 29L20 29L20 28L21 28L21 29L23 29L23 28L24 28L24 29L26 29L26 28L27 28L27 29L28 29L28 28L27 28L27 27L29 27L29 26L27 26L27 27L26 27L26 25L29 25L29 22L28 22L28 21L26 21L26 20L25 20L25 19L26 19L26 18L28 18L28 19L29 19L29 17L28 17L28 16L29 16L29 14L27 14L27 13L29 13L29 11L28 11L28 10L27 10L27 8L25 8L25 9L26 9L26 10L25 10L25 12L24 12L24 16L23 16L23 12L22 12L22 11L21 11L21 10L19 10L19 9L17 9L17 8L19 8L19 6L20 6L20 7L21 7L21 4L19 4L19 3L20 3L20 1L21 1L21 0L19 0L19 1L18 1L18 0L16 0L16 1L18 1L18 2L19 2L19 3L18 3L18 4L19 4L19 6L18 6L18 7L17 7L17 5L16 5L16 4L17 4L17 3L16 3L16 2L15 2L15 0L11 0L11 1L10 1L10 0ZM11 1L11 2L12 2L12 1ZM9 2L9 4L11 4L11 5L10 5L10 6L11 6L11 7L12 7L12 6L13 6L13 8L12 8L12 10L13 10L13 11L16 11L16 10L17 10L17 9L15 9L15 7L16 7L16 6L15 6L15 7L14 7L14 6L13 6L13 5L14 5L14 4L16 4L16 3L15 3L15 2L13 2L13 3L14 3L14 4L13 4L13 5L12 5L12 3L10 3L10 2ZM11 5L11 6L12 6L12 5ZM10 8L10 9L11 9L11 8ZM13 8L13 10L15 10L15 9L14 9L14 8ZM22 9L22 10L23 10L23 11L24 11L24 9ZM26 10L26 11L27 11L27 12L28 12L28 11L27 11L27 10ZM1 11L1 12L2 12L2 13L3 13L3 14L4 14L4 12L5 12L5 15L6 15L6 16L7 16L7 17L6 17L6 18L5 18L5 19L6 19L6 18L8 18L8 17L10 17L10 16L11 16L11 15L10 15L10 14L12 14L12 17L13 17L13 15L14 15L14 13L13 13L13 12L12 12L12 13L11 13L11 12L10 12L10 14L9 14L9 13L8 13L8 12L7 12L7 11L6 11L6 12L5 12L5 11L3 11L3 12L2 12L2 11ZM6 12L6 13L7 13L7 12ZM19 12L19 13L20 13L20 12ZM21 12L21 14L20 14L20 15L21 15L21 14L22 14L22 12ZM12 13L12 14L13 14L13 13ZM25 13L25 16L26 16L26 17L27 17L27 16L28 16L28 15L27 15L27 16L26 16L26 13ZM6 14L6 15L7 15L7 16L8 16L8 14ZM9 15L9 16L10 16L10 15ZM22 16L22 17L23 17L23 16ZM13 19L13 20L14 20L14 19ZM21 19L21 20L22 20L22 19ZM23 19L23 20L24 20L24 19ZM21 21L21 24L24 24L24 21ZM22 22L22 23L23 23L23 22ZM25 22L25 25L26 25L26 24L28 24L28 23L27 23L27 22ZM8 24L8 26L9 26L9 25L11 25L11 24ZM14 24L14 25L15 25L15 26L14 26L14 27L15 27L15 26L16 26L16 25L17 25L17 24L16 24L16 25L15 25L15 24ZM18 25L18 26L19 26L19 28L20 28L20 27L21 27L21 26L22 26L22 28L23 28L23 27L25 27L25 26L24 26L24 25ZM0 0L0 7L7 7L7 0ZM1 1L1 6L6 6L6 1ZM2 2L2 5L5 5L5 2ZM22 0L22 7L29 7L29 0ZM23 1L23 6L28 6L28 1ZM24 2L24 5L27 5L27 2ZM0 22L0 29L7 29L7 22ZM1 23L1 28L6 28L6 23ZM2 24L2 27L5 27L5 24Z" fill="#000000"/></g></g></svg>
