<?xml version="1.0" encoding="UTF-8"?>
<svg xmlns="http://www.w3.org/2000/svg" version="1.1" width="200" height="200" viewBox="0 0 200 200"><rect x="0" y="0" width="200" height="200" fill="#ffffff"/><g transform="scale(6.897)"><g transform="translate(0,0)"><path fill-rule="evenodd" d="M8 0L8 1L9 1L9 2L13 2L13 3L10 3L10 4L9 4L9 3L8 3L8 4L9 4L9 6L8 6L8 7L9 7L9 6L10 6L10 7L11 7L11 8L10 8L10 9L9 9L9 8L8 8L8 10L6 10L6 9L7 9L7 8L4 8L4 9L3 9L3 8L2 8L2 9L3 9L3 11L4 11L4 12L5 12L5 14L4 14L4 13L3 13L3 12L2 12L2 10L1 10L1 9L0 9L0 10L1 10L1 11L0 11L0 12L2 12L2 13L3 13L3 15L2 15L2 14L1 14L1 15L0 15L0 17L2 17L2 16L3 16L3 15L4 15L4 16L5 16L5 15L8 15L8 17L7 17L7 16L6 16L6 17L5 17L5 18L4 18L4 17L3 17L3 18L2 18L2 19L1 19L1 18L0 18L0 19L1 19L1 20L0 20L0 21L1 21L1 20L3 20L3 21L7 21L7 20L6 20L6 19L7 19L7 18L8 18L8 17L10 17L10 15L9 15L9 13L10 13L10 14L11 14L11 13L12 13L12 14L13 14L13 15L14 15L14 16L13 16L13 19L12 19L12 18L10 18L10 19L8 19L8 20L9 20L9 21L8 21L8 22L9 22L9 21L10 21L10 22L12 22L12 21L11 21L11 19L12 19L12 20L13 20L13 21L14 21L14 22L13 22L13 23L12 23L12 24L11 24L11 23L10 23L10 28L9 28L9 29L11 29L11 27L12 27L12 29L13 29L13 27L12 27L12 26L14 26L14 29L15 29L15 27L16 27L16 26L17 26L17 27L21 27L21 28L20 28L20 29L25 29L25 28L22 28L22 27L21 27L21 26L22 26L22 25L23 25L23 26L24 26L24 25L25 25L25 27L26 27L26 26L28 26L28 27L27 27L27 28L28 28L28 29L29 29L29 26L28 26L28 25L27 25L27 24L28 24L28 23L29 23L29 22L28 22L28 18L27 18L27 17L26 17L26 14L24 14L24 13L25 13L25 12L24 12L24 11L26 11L26 13L27 13L27 14L28 14L28 15L27 15L27 16L28 16L28 17L29 17L29 16L28 16L28 15L29 15L29 14L28 14L28 13L29 13L29 12L28 12L28 11L29 11L29 8L28 8L28 9L27 9L27 10L28 10L28 11L26 11L26 8L25 8L25 10L24 10L24 9L23 9L23 10L22 10L22 8L21 8L21 3L20 3L20 2L19 2L19 3L20 3L20 4L18 4L18 3L17 3L17 2L18 2L18 1L19 1L19 0L18 0L18 1L17 1L17 2L16 2L16 3L17 3L17 4L15 4L15 3L14 3L14 0L13 0L13 1L12 1L12 0L11 0L11 1L9 1L9 0ZM11 4L11 5L10 5L10 6L11 6L11 7L12 7L12 6L11 6L11 5L13 5L13 4ZM14 4L14 5L15 5L15 7L14 7L14 6L13 6L13 9L10 9L10 10L11 10L11 11L13 11L13 12L14 12L14 11L15 11L15 13L13 13L13 14L16 14L16 15L17 15L17 14L16 14L16 13L18 13L18 12L19 12L19 13L20 13L20 14L18 14L18 15L20 15L20 16L19 16L19 17L20 17L20 16L21 16L21 15L20 15L20 14L21 14L21 13L20 13L20 12L22 12L22 11L21 11L21 8L20 8L20 5L18 5L18 4L17 4L17 5L15 5L15 4ZM17 5L17 6L16 6L16 7L15 7L15 8L14 8L14 9L16 9L16 10L17 10L17 11L19 11L19 12L20 12L20 11L19 11L19 10L20 10L20 8L19 8L19 6L18 6L18 5ZM17 6L17 7L18 7L18 6ZM17 8L17 10L18 10L18 8ZM4 9L4 10L5 10L5 9ZM23 10L23 11L24 11L24 10ZM5 11L5 12L7 12L7 13L6 13L6 14L8 14L8 12L10 12L10 13L11 13L11 12L10 12L10 11ZM27 12L27 13L28 13L28 12ZM22 14L22 15L24 15L24 16L22 16L22 18L21 18L21 19L22 19L22 18L23 18L23 17L24 17L24 18L25 18L25 19L26 19L26 20L25 20L25 23L26 23L26 24L27 24L27 21L26 21L26 20L27 20L27 18L26 18L26 17L25 17L25 15L24 15L24 14ZM1 15L1 16L2 16L2 15ZM11 15L11 17L12 17L12 15ZM14 16L14 18L15 18L15 19L14 19L14 21L15 21L15 22L14 22L14 23L13 23L13 24L14 24L14 23L15 23L15 25L16 25L16 23L17 23L17 26L20 26L20 24L19 24L19 25L18 25L18 23L17 23L17 22L16 22L16 20L15 20L15 19L16 19L16 17L18 17L18 16ZM6 17L6 18L7 18L7 17ZM17 18L17 19L18 19L18 21L19 21L19 20L20 20L20 19L19 19L19 18ZM4 19L4 20L5 20L5 19ZM21 21L21 24L24 24L24 21ZM19 22L19 23L20 23L20 22ZM22 22L22 23L23 23L23 22ZM8 23L8 25L9 25L9 23ZM8 26L8 27L9 27L9 26ZM17 28L17 29L19 29L19 28ZM0 0L0 7L7 7L7 0ZM1 1L1 6L6 6L6 1ZM2 2L2 5L5 5L5 2ZM22 0L22 7L29 7L29 0ZM23 1L23 6L28 6L28 1ZM24 2L24 5L27 5L27 2ZM0 22L0 29L7 29L7 22ZM1 23L1 28L6 28L6 23ZM2 24L2 27L5 27L5 24Z" fill="#000000"/></g></g></svg>
