<?xml version="1.0" encoding="UTF-8"?>
<svg xmlns="http://www.w3.org/2000/svg" version="1.1" width="200" height="200" viewBox="0 0 200 200"><rect x="0" y="0" width="200" height="200" fill="#ffffff"/><g transform="scale(6.897)"><g transform="translate(0,0)"><path fill-rule="evenodd" d="M9 0L9 1L10 1L10 0ZM11 0L11 1L13 1L13 0ZM14 1L14 4L12 4L12 3L13 3L13 2L11 2L11 3L10 3L10 4L8 4L8 5L10 5L10 7L11 7L11 6L12 6L12 7L13 7L13 8L11 8L11 9L14 9L14 10L13 10L13 12L12 12L12 13L11 13L11 10L10 10L10 9L9 9L9 6L8 6L8 8L6 8L6 9L5 9L5 10L6 10L6 11L7 11L7 10L6 10L6 9L8 9L8 10L9 10L9 12L10 12L10 13L9 13L9 14L8 14L8 15L7 15L7 14L6 14L6 13L8 13L8 12L6 12L6 13L5 13L5 12L4 12L4 8L2 8L2 9L0 9L0 11L1 11L1 10L3 10L3 12L0 12L0 16L1 16L1 17L2 17L2 19L4 19L4 21L8 21L8 23L9 23L9 24L10 24L10 25L11 25L11 27L10 27L10 26L9 26L9 25L8 25L8 27L9 27L9 28L10 28L10 29L11 29L11 27L12 27L12 26L13 26L13 25L12 25L12 24L15 24L15 23L16 23L16 24L17 24L17 23L19 23L19 24L18 24L18 25L17 25L17 26L16 26L16 25L14 25L14 26L15 26L15 27L17 27L17 28L19 28L19 29L20 29L20 28L19 28L19 27L18 27L18 26L20 26L20 25L23 25L23 26L24 26L24 27L22 27L22 29L23 29L23 28L25 28L25 29L27 29L27 28L29 28L29 26L28 26L28 27L26 27L26 28L25 28L25 26L24 26L24 25L26 25L26 26L27 26L27 25L29 25L29 23L28 23L28 20L27 20L27 18L29 18L29 17L26 17L26 16L25 16L25 15L24 15L24 16L23 16L23 17L21 17L21 18L20 18L20 17L19 17L19 16L18 16L18 14L19 14L19 15L20 15L20 14L21 14L21 13L20 13L20 12L22 12L22 9L23 9L23 13L22 13L22 15L23 15L23 14L24 14L24 13L25 13L25 14L26 14L26 15L27 15L27 16L28 16L28 15L29 15L29 14L28 14L28 15L27 15L27 13L28 13L28 12L29 12L29 11L28 11L28 12L27 12L27 11L26 11L26 10L24 10L24 9L25 9L25 8L24 8L24 9L23 9L23 8L21 8L21 9L20 9L20 10L19 10L19 8L20 8L20 7L21 7L21 3L20 3L20 2L18 2L18 1L17 1L17 2L18 2L18 4L19 4L19 5L17 5L17 4L16 4L16 2L15 2L15 1ZM19 3L19 4L20 4L20 3ZM10 4L10 5L12 5L12 6L13 6L13 7L14 7L14 9L15 9L15 10L14 10L14 12L13 12L13 13L12 13L12 14L11 14L11 15L10 15L10 16L9 16L9 15L8 15L8 16L9 16L9 17L8 17L8 18L7 18L7 17L6 17L6 16L7 16L7 15L6 15L6 14L5 14L5 15L4 15L4 17L3 17L3 16L2 16L2 15L1 15L1 16L2 16L2 17L3 17L3 18L4 18L4 19L5 19L5 18L7 18L7 19L6 19L6 20L8 20L8 21L9 21L9 20L11 20L11 21L12 21L12 22L10 22L10 24L11 24L11 23L13 23L13 22L14 22L14 23L15 23L15 21L14 21L14 20L16 20L16 23L17 23L17 20L18 20L18 21L19 21L19 23L20 23L20 21L19 21L19 20L20 20L20 18L19 18L19 17L18 17L18 16L16 16L16 15L17 15L17 14L18 14L18 13L15 13L15 11L16 11L16 12L18 12L18 11L16 11L16 10L17 10L17 9L18 9L18 8L19 8L19 7L20 7L20 5L19 5L19 7L18 7L18 6L17 6L17 5L16 5L16 4L14 4L14 5L12 5L12 4ZM14 5L14 7L15 7L15 6L16 6L16 7L17 7L17 6L16 6L16 5ZM15 8L15 9L16 9L16 8ZM27 9L27 10L29 10L29 9ZM19 11L19 12L20 12L20 11ZM25 11L25 13L27 13L27 12L26 12L26 11ZM3 13L3 14L4 14L4 13ZM19 13L19 14L20 14L20 13ZM12 14L12 15L11 15L11 16L10 16L10 17L11 17L11 16L12 16L12 15L13 15L13 16L14 16L14 14ZM15 14L15 15L16 15L16 14ZM5 15L5 16L6 16L6 15ZM15 16L15 17L16 17L16 16ZM24 16L24 17L23 17L23 18L22 18L22 19L21 19L21 20L22 20L22 19L24 19L24 20L25 20L25 19L26 19L26 17L25 17L25 16ZM4 17L4 18L5 18L5 17ZM0 18L0 19L1 19L1 18ZM11 18L11 20L12 20L12 21L13 21L13 20L12 20L12 18ZM13 18L13 19L14 19L14 18ZM17 18L17 19L16 19L16 20L17 20L17 19L18 19L18 20L19 20L19 18ZM24 18L24 19L25 19L25 18ZM8 19L8 20L9 20L9 19ZM1 20L1 21L2 21L2 20ZM26 20L26 22L25 22L25 23L26 23L26 25L27 25L27 24L28 24L28 23L27 23L27 20ZM21 21L21 24L24 24L24 21ZM22 22L22 23L23 23L23 22ZM19 24L19 25L20 25L20 24ZM13 27L13 28L12 28L12 29L14 29L14 27ZM0 0L0 7L7 7L7 0ZM1 1L1 6L6 6L6 1ZM2 2L2 5L5 5L5 2ZM22 0L22 7L29 7L29 0ZM23 1L23 6L28 6L28 1ZM24 2L24 5L27 5L27 2ZM0 22L0 29L7 29L7 22ZM1 23L1 28L6 28L6 23ZM2 24L2 27L5 27L5 24Z" fill="#000000"/></g></g></svg>
