<?xml version="1.0" encoding="UTF-8"?>
<svg xmlns="http://www.w3.org/2000/svg" version="1.1" width="200" height="200" viewBox="0 0 200 200"><rect x="0" y="0" width="200" height="200" fill="#ffffff"/><g transform="scale(6.897)"><g transform="translate(0,0)"><path fill-rule="evenodd" d="M9 0L9 1L8 1L8 7L9 7L9 6L10 6L10 8L5 8L5 9L3 9L3 8L2 8L2 9L3 9L3 11L4 11L4 10L6 10L6 11L5 11L5 13L7 13L7 12L6 12L6 11L7 11L7 10L6 10L6 9L8 9L8 11L9 11L9 14L4 14L4 13L3 13L3 12L2 12L2 10L1 10L1 9L0 9L0 10L1 10L1 12L2 12L2 13L0 13L0 15L3 15L3 16L2 16L2 17L1 17L1 16L0 16L0 17L1 17L1 18L0 18L0 19L4 19L4 20L3 20L3 21L4 21L4 20L6 20L6 21L8 21L8 24L9 24L9 25L10 25L10 26L11 26L11 28L14 28L14 27L13 27L13 26L12 26L12 25L10 25L10 24L11 24L11 23L12 23L12 24L13 24L13 25L14 25L14 26L15 26L15 28L16 28L16 29L19 29L19 28L17 28L17 25L18 25L18 24L17 24L17 22L18 22L18 23L20 23L20 24L19 24L19 26L20 26L20 27L21 27L21 29L22 29L22 28L24 28L24 29L25 29L25 28L24 28L24 26L23 26L23 27L22 27L22 26L21 26L21 25L25 25L25 26L26 26L26 28L27 28L27 29L29 29L29 26L26 26L26 25L27 25L27 24L28 24L28 25L29 25L29 24L28 24L28 23L29 23L29 21L27 21L27 19L26 19L26 18L28 18L28 19L29 19L29 18L28 18L28 17L29 17L29 14L28 14L28 13L29 13L29 12L27 12L27 11L29 11L29 9L28 9L28 8L23 8L23 10L22 10L22 11L21 11L21 9L22 9L22 8L20 8L20 7L21 7L21 0L19 0L19 1L20 1L20 2L19 2L19 3L20 3L20 5L19 5L19 4L18 4L18 5L17 5L17 3L18 3L18 2L17 2L17 1L18 1L18 0L17 0L17 1L16 1L16 0L15 0L15 2L17 2L17 3L14 3L14 2L12 2L12 1L13 1L13 0ZM10 2L10 3L11 3L11 5L10 5L10 6L11 6L11 8L10 8L10 9L9 9L9 10L11 10L11 11L10 11L10 14L11 14L11 15L9 15L9 16L11 16L11 15L13 15L13 16L12 16L12 17L13 17L13 18L17 18L17 17L18 17L18 19L17 19L17 20L16 20L16 19L11 19L11 18L10 18L10 19L6 19L6 20L9 20L9 22L10 22L10 19L11 19L11 20L12 20L12 22L13 22L13 23L14 23L14 25L15 25L15 26L16 26L16 25L17 25L17 24L15 24L15 23L16 23L16 22L15 22L15 20L16 20L16 21L17 21L17 20L18 20L18 21L19 21L19 22L20 22L20 21L19 21L19 20L22 20L22 19L21 19L21 15L19 15L19 14L22 14L22 12L21 12L21 13L20 13L20 12L19 12L19 14L18 14L18 16L17 16L17 17L13 17L13 16L14 16L14 15L15 15L15 14L14 14L14 13L16 13L16 14L17 14L17 13L18 13L18 12L17 12L17 13L16 13L16 12L15 12L15 11L16 11L16 10L17 10L17 11L18 11L18 10L19 10L19 11L20 11L20 8L19 8L19 7L20 7L20 6L19 6L19 7L18 7L18 6L17 6L17 5L16 5L16 6L15 6L15 7L14 7L14 6L13 6L13 7L12 7L12 5L15 5L15 4L14 4L14 3L12 3L12 2ZM16 6L16 7L15 7L15 9L13 9L13 8L14 8L14 7L13 7L13 8L11 8L11 10L12 10L12 12L11 12L11 14L13 14L13 15L14 15L14 14L13 14L13 13L12 13L12 12L14 12L14 11L15 11L15 10L16 10L16 8L17 8L17 10L18 10L18 7L17 7L17 6ZM27 9L27 10L24 10L24 11L27 11L27 10L28 10L28 9ZM13 10L13 11L14 11L14 10ZM23 12L23 14L25 14L25 15L22 15L22 16L25 16L25 17L22 17L22 18L25 18L25 17L27 17L27 16L28 16L28 15L27 15L27 13L26 13L26 14L25 14L25 13L24 13L24 12ZM2 13L2 14L3 14L3 15L4 15L4 16L3 16L3 18L4 18L4 17L5 17L5 18L8 18L8 17L5 17L5 16L7 16L7 15L4 15L4 14L3 14L3 13ZM19 16L19 17L20 17L20 16ZM19 18L19 19L20 19L20 18ZM23 19L23 20L26 20L26 19ZM0 20L0 21L2 21L2 20ZM13 21L13 22L14 22L14 21ZM21 21L21 24L24 24L24 21ZM26 21L26 23L25 23L25 25L26 25L26 24L27 24L27 23L28 23L28 22L27 22L27 21ZM22 22L22 23L23 23L23 22ZM9 23L9 24L10 24L10 23ZM8 26L8 27L9 27L9 26ZM27 27L27 28L28 28L28 27ZM0 0L0 7L7 7L7 0ZM1 1L1 6L6 6L6 1ZM2 2L2 5L5 5L5 2ZM22 0L22 7L29 7L29 0ZM23 1L23 6L28 6L28 1ZM24 2L24 5L27 5L27 2ZM0 22L0 29L7 29L7 22ZM1 23L1 28L6 28L6 23ZM2 24L2 27L5 27L5 24Z" fill="#000000"/></g></g></svg>
