<?xml version="1.0" encoding="UTF-8"?>
<svg xmlns="http://www.w3.org/2000/svg" version="1.1" width="200" height="200" viewBox="0 0 200 200"><rect x="0" y="0" width="200" height="200" fill="#ffffff"/><g transform="scale(4.878)"><g transform="translate(0,0)"><path fill-rule="evenodd" d="M10 0L10 4L9 4L9 2L8 2L8 4L9 4L9 6L8 6L8 7L9 7L9 6L10 6L10 7L11 7L11 8L9 8L9 9L8 9L8 8L6 8L6 9L8 9L8 10L10 10L10 11L11 11L11 12L12 12L12 13L10 13L10 15L11 15L11 16L10 16L10 17L12 17L12 18L10 18L10 20L9 20L9 19L8 19L8 20L9 20L9 21L7 21L7 20L4 20L4 21L7 21L7 22L5 22L5 23L3 23L3 21L2 21L2 22L0 22L0 24L1 24L1 25L0 25L0 28L1 28L1 26L2 26L2 28L3 28L3 29L0 29L0 33L2 33L2 32L3 32L3 33L5 33L5 32L6 32L6 33L8 33L8 35L9 35L9 36L8 36L8 38L9 38L9 37L10 37L10 36L11 36L11 38L10 38L10 39L11 39L11 38L13 38L13 41L17 41L17 39L18 39L18 41L19 41L19 40L20 40L20 41L21 41L21 40L20 40L20 39L19 39L19 36L21 36L21 37L20 37L20 38L22 38L22 36L23 36L23 37L25 37L25 33L27 33L27 34L26 34L26 35L27 35L27 36L26 36L26 38L23 38L23 39L24 39L24 40L26 40L26 41L27 41L27 39L28 39L28 41L29 41L29 38L28 38L28 36L29 36L29 37L31 37L31 39L30 39L30 41L31 41L31 40L32 40L32 41L34 41L34 40L35 40L35 41L36 41L36 39L37 39L37 38L38 38L38 41L39 41L39 39L40 39L40 40L41 40L41 35L40 35L40 34L39 34L39 31L40 31L40 33L41 33L41 30L39 30L39 31L38 31L38 29L40 29L40 28L41 28L41 25L39 25L39 27L36 27L36 28L34 28L34 30L35 30L35 31L36 31L36 32L34 32L34 31L32 31L32 30L30 30L30 29L32 29L32 28L33 28L33 27L32 27L32 26L31 26L31 25L33 25L33 26L37 26L37 25L36 25L36 24L32 24L32 23L33 23L33 22L34 22L34 21L35 21L35 23L36 23L36 21L37 21L37 23L38 23L38 22L41 22L41 21L39 21L39 20L40 20L40 19L41 19L41 18L40 18L40 17L41 17L41 11L40 11L40 9L39 9L39 8L37 8L37 9L36 9L36 10L35 10L35 11L34 11L34 9L33 9L33 6L32 6L32 7L31 7L31 6L30 6L30 7L31 7L31 8L29 8L29 9L28 9L28 8L27 8L27 6L26 6L26 7L25 7L25 6L24 6L24 5L27 5L27 4L28 4L28 2L29 2L29 1L30 1L30 2L31 2L31 3L30 3L30 4L29 4L29 5L28 5L28 7L29 7L29 5L30 5L30 4L31 4L31 5L32 5L32 4L33 4L33 3L32 3L32 1L33 1L33 0L32 0L32 1L30 1L30 0L28 0L28 2L27 2L27 4L25 4L25 0L23 0L23 1L22 1L22 0L21 0L21 1L19 1L19 2L20 2L20 3L19 3L19 4L18 4L18 0L17 0L17 2L16 2L16 1L14 1L14 2L11 2L11 0ZM21 1L21 2L22 2L22 1ZM23 1L23 3L22 3L22 4L21 4L21 3L20 3L20 6L19 6L19 5L18 5L18 4L17 4L17 3L16 3L16 2L15 2L15 3L11 3L11 4L12 4L12 5L13 5L13 8L14 8L14 6L15 6L15 7L16 7L16 8L17 8L17 9L15 9L15 10L14 10L14 9L13 9L13 11L14 11L14 13L13 13L13 15L12 15L12 16L14 16L14 17L13 17L13 18L12 18L12 19L11 19L11 20L10 20L10 21L9 21L9 22L10 22L10 24L9 24L9 23L5 23L5 24L3 24L3 23L2 23L2 26L3 26L3 27L4 27L4 28L7 28L7 27L6 27L6 26L9 26L9 25L11 25L11 28L8 28L8 29L6 29L6 30L8 30L8 31L6 31L6 32L8 32L8 33L9 33L9 31L10 31L10 34L9 34L9 35L10 35L10 34L11 34L11 35L12 35L12 36L14 36L14 37L13 37L13 38L14 38L14 39L15 39L15 40L16 40L16 39L15 39L15 38L17 38L17 37L18 37L18 36L19 36L19 35L18 35L18 34L20 34L20 35L24 35L24 34L20 34L20 33L25 33L25 32L26 32L26 31L25 31L25 32L24 32L24 29L25 29L25 28L27 28L27 26L26 26L26 25L27 25L27 24L28 24L28 26L29 26L29 27L28 27L28 29L26 29L26 30L27 30L27 31L28 31L28 30L29 30L29 32L27 32L27 33L29 33L29 34L31 34L31 33L29 33L29 32L30 32L30 30L29 30L29 29L30 29L30 28L32 28L32 27L31 27L31 26L29 26L29 25L31 25L31 23L32 23L32 22L31 22L31 23L30 23L30 24L28 24L28 23L29 23L29 22L28 22L28 23L24 23L24 24L26 24L26 25L21 25L21 23L22 23L22 22L21 22L21 23L20 23L20 22L19 22L19 20L22 20L22 19L21 19L21 18L22 18L22 17L23 17L23 18L24 18L24 19L23 19L23 20L24 20L24 21L23 21L23 22L25 22L25 21L26 21L26 22L27 22L27 19L26 19L26 18L27 18L27 16L28 16L28 17L29 17L29 19L28 19L28 21L31 21L31 20L33 20L33 19L34 19L34 20L35 20L35 21L36 21L36 20L37 20L37 21L38 21L38 20L37 20L37 18L39 18L39 17L40 17L40 16L38 16L38 15L39 15L39 13L40 13L40 12L39 12L39 10L38 10L38 9L37 9L37 10L38 10L38 12L39 12L39 13L38 13L38 14L37 14L37 16L36 16L36 15L35 15L35 16L34 16L34 17L33 17L33 13L32 13L32 14L31 14L31 15L32 15L32 18L33 18L33 19L31 19L31 18L30 18L30 17L31 17L31 16L30 16L30 12L29 12L29 11L28 11L28 13L27 13L27 12L26 12L26 10L27 10L27 9L26 9L26 8L25 8L25 11L24 11L24 8L23 8L23 7L24 7L24 6L23 6L23 7L22 7L22 6L21 6L21 5L22 5L22 4L23 4L23 5L24 5L24 4L23 4L23 3L24 3L24 1ZM15 3L15 4L14 4L14 5L15 5L15 6L16 6L16 7L17 7L17 5L16 5L16 3ZM31 3L31 4L32 4L32 3ZM11 6L11 7L12 7L12 6ZM18 6L18 7L19 7L19 6ZM20 6L20 8L19 8L19 9L20 9L20 10L19 10L19 13L20 13L20 14L21 14L21 15L22 15L22 14L23 14L23 16L24 16L24 17L26 17L26 16L27 16L27 15L28 15L28 16L29 16L29 15L28 15L28 14L27 14L27 15L26 15L26 12L23 12L23 11L22 11L22 9L23 9L23 8L22 8L22 7L21 7L21 6ZM3 8L3 9L0 9L0 11L1 11L1 13L0 13L0 14L1 14L1 16L2 16L2 17L1 17L1 18L0 18L0 19L1 19L1 20L3 20L3 17L4 17L4 18L5 18L5 19L7 19L7 18L9 18L9 16L8 16L8 15L9 15L9 12L8 12L8 13L7 13L7 12L6 12L6 11L7 11L7 10L6 10L6 11L5 11L5 14L6 14L6 15L7 15L7 16L5 16L5 15L2 15L2 14L1 14L1 13L2 13L2 11L1 11L1 10L3 10L3 14L4 14L4 10L5 10L5 8ZM11 8L11 9L10 9L10 10L12 10L12 8ZM20 8L20 9L22 9L22 8ZM3 9L3 10L4 10L4 9ZM29 9L29 10L30 10L30 11L31 11L31 12L32 12L32 10L31 10L31 9ZM16 10L16 11L15 11L15 12L16 12L16 13L14 13L14 14L16 14L16 15L17 15L17 16L18 16L18 17L19 17L19 18L18 18L18 19L17 19L17 20L15 20L15 18L16 18L16 17L14 17L14 18L13 18L13 19L12 19L12 20L11 20L11 21L10 21L10 22L11 22L11 21L13 21L13 23L12 23L12 24L11 24L11 25L13 25L13 27L14 27L14 28L13 28L13 30L14 30L14 29L15 29L15 30L16 30L16 32L15 32L15 33L14 33L14 31L13 31L13 33L12 33L12 35L13 35L13 34L15 34L15 36L16 36L16 37L17 37L17 36L18 36L18 35L17 35L17 34L15 34L15 33L16 33L16 32L17 32L17 33L18 33L18 32L19 32L19 33L20 33L20 32L19 32L19 30L18 30L18 29L20 29L20 31L21 31L21 32L23 32L23 29L24 29L24 28L25 28L25 27L26 27L26 26L23 26L23 29L21 29L21 28L22 28L22 26L21 26L21 25L20 25L20 26L18 26L18 25L17 25L17 26L15 26L15 27L14 27L14 25L16 25L16 24L14 24L14 25L13 25L13 23L17 23L17 20L19 20L19 18L21 18L21 16L20 16L20 15L19 15L19 14L18 14L18 15L17 15L17 14L16 14L16 13L18 13L18 10ZM20 10L20 11L21 11L21 10ZM35 11L35 12L36 12L36 13L34 13L34 14L36 14L36 13L37 13L37 12L36 12L36 11ZM20 12L20 13L21 13L21 14L22 14L22 13L23 13L23 14L24 14L24 13L23 13L23 12L22 12L22 13L21 13L21 12ZM6 13L6 14L7 14L7 13ZM14 15L14 16L15 16L15 15ZM18 15L18 16L19 16L19 15ZM25 15L25 16L26 16L26 15ZM37 16L37 17L35 17L35 20L36 20L36 18L37 18L37 17L38 17L38 16ZM5 17L5 18L7 18L7 17ZM1 18L1 19L2 19L2 18ZM25 19L25 20L26 20L26 19ZM29 19L29 20L31 20L31 19ZM14 20L14 22L16 22L16 21L15 21L15 20ZM18 22L18 23L19 23L19 22ZM39 23L39 24L40 24L40 23ZM5 24L5 26L4 26L4 27L5 27L5 26L6 26L6 25L8 25L8 24ZM16 27L16 28L15 28L15 29L16 29L16 28L18 28L18 27ZM20 27L20 28L21 28L21 27ZM36 28L36 29L35 29L35 30L36 30L36 31L37 31L37 30L36 30L36 29L38 29L38 28ZM3 29L3 30L5 30L5 29ZM8 29L8 30L11 30L11 31L12 31L12 29ZM21 30L21 31L22 31L22 30ZM3 31L3 32L4 32L4 31ZM17 31L17 32L18 32L18 31ZM37 32L37 34L38 34L38 32ZM33 33L33 36L36 36L36 33ZM34 34L34 35L35 35L35 34ZM16 35L16 36L17 36L17 35ZM30 35L30 36L32 36L32 35ZM38 35L38 37L39 37L39 38L40 38L40 37L39 37L39 35ZM32 37L32 40L33 40L33 39L35 39L35 38L36 38L36 37ZM26 38L26 39L27 39L27 38ZM9 40L9 41L10 41L10 40ZM11 40L11 41L12 41L12 40ZM0 0L0 7L7 7L7 0ZM1 1L1 6L6 6L6 1ZM2 2L2 5L5 5L5 2ZM34 0L34 7L41 7L41 0ZM35 1L35 6L40 6L40 1ZM36 2L36 5L39 5L39 2ZM0 34L0 41L7 41L7 34ZM1 35L1 40L6 40L6 35ZM2 36L2 39L5 39L5 36Z" fill="#000000"/></g></g></svg>
