<?xml version="1.0" encoding="UTF-8"?>
<svg xmlns="http://www.w3.org/2000/svg" version="1.1" width="200" height="200" viewBox="0 0 200 200"><rect x="0" y="0" width="200" height="200" fill="#ffffff"/><g transform="scale(4.878)"><g transform="translate(0,0)"><path fill-rule="evenodd" d="M8 0L8 3L10 3L10 5L8 5L8 9L7 9L7 8L6 8L6 9L5 9L5 8L2 8L2 9L3 9L3 10L4 10L4 11L3 11L3 15L4 15L4 14L5 14L5 13L7 13L7 14L6 14L6 15L5 15L5 17L4 17L4 16L2 16L2 13L0 13L0 14L1 14L1 16L0 16L0 18L2 18L2 19L0 19L0 23L1 23L1 21L4 21L4 19L3 19L3 17L4 17L4 18L5 18L5 17L7 17L7 16L8 16L8 14L9 14L9 15L10 15L10 12L11 12L11 13L14 13L14 14L11 14L11 15L14 15L14 14L15 14L15 17L17 17L17 18L16 18L16 19L15 19L15 18L14 18L14 16L12 16L12 17L13 17L13 19L11 19L11 18L10 18L10 17L8 17L8 18L9 18L9 20L8 20L8 19L7 19L7 18L6 18L6 19L5 19L5 20L6 20L6 21L5 21L5 22L6 22L6 23L7 23L7 24L5 24L5 26L6 26L6 27L5 27L5 28L4 28L4 26L2 26L2 25L4 25L4 24L0 24L0 26L2 26L2 27L0 27L0 28L1 28L1 29L0 29L0 33L1 33L1 30L2 30L2 29L3 29L3 31L4 31L4 29L5 29L5 30L6 30L6 31L7 31L7 32L4 32L4 33L8 33L8 34L9 34L9 33L8 33L8 30L6 30L6 29L7 29L7 28L6 28L6 27L7 27L7 26L8 26L8 29L10 29L10 31L9 31L9 32L12 32L12 33L11 33L11 34L10 34L10 35L9 35L9 36L8 36L8 39L9 39L9 37L11 37L11 36L12 36L12 35L13 35L13 33L14 33L14 31L13 31L13 30L14 30L14 26L15 26L15 25L14 25L14 24L15 24L15 23L16 23L16 27L15 27L15 30L16 30L16 27L17 27L17 28L19 28L19 29L20 29L20 30L19 30L19 31L18 31L18 32L20 32L20 31L21 31L21 28L23 28L23 29L22 29L22 32L21 32L21 33L18 33L18 35L17 35L17 34L16 34L16 32L17 32L17 31L15 31L15 34L14 34L14 35L15 35L15 34L16 34L16 36L17 36L17 37L16 37L16 38L17 38L17 37L20 37L20 35L22 35L22 36L21 36L21 37L22 37L22 38L21 38L21 39L22 39L22 38L24 38L24 35L25 35L25 36L27 36L27 37L29 37L29 36L31 36L31 35L32 35L32 38L34 38L34 39L35 39L35 40L36 40L36 39L37 39L37 40L40 40L40 38L41 38L41 37L40 37L40 36L41 36L41 35L40 35L40 34L41 34L41 33L40 33L40 32L41 32L41 31L40 31L40 30L41 30L41 28L39 28L39 30L37 30L37 29L35 29L35 30L34 30L34 31L35 31L35 32L33 32L33 31L32 31L32 30L33 30L33 29L34 29L34 28L33 28L33 27L34 27L34 26L35 26L35 25L36 25L36 27L37 27L37 28L38 28L38 26L39 26L39 27L40 27L40 26L41 26L41 23L39 23L39 22L38 22L38 23L39 23L39 24L40 24L40 26L39 26L39 25L36 25L36 24L37 24L37 20L38 20L38 21L39 21L39 20L38 20L38 19L37 19L37 20L36 20L36 19L35 19L35 17L36 17L36 18L38 18L38 17L39 17L39 18L41 18L41 16L40 16L40 17L39 17L39 16L37 16L37 15L36 15L36 14L38 14L38 15L39 15L39 14L41 14L41 12L39 12L39 14L38 14L38 13L36 13L36 14L35 14L35 15L36 15L36 16L35 16L35 17L34 17L34 16L32 16L32 17L31 17L31 12L32 12L32 13L33 13L33 14L32 14L32 15L34 15L34 13L35 13L35 12L38 12L38 11L40 11L40 10L41 10L41 8L38 8L38 9L40 9L40 10L37 10L37 9L36 9L36 8L33 8L33 9L32 9L32 8L29 8L29 4L28 4L28 5L27 5L27 4L25 4L25 1L21 1L21 2L20 2L20 1L19 1L19 0L18 0L18 1L17 1L17 0L16 0L16 2L18 2L18 3L16 3L16 4L15 4L15 3L13 3L13 1L14 1L14 2L15 2L15 0L12 0L12 1L9 1L9 0ZM26 0L26 1L27 1L27 2L26 2L26 3L33 3L33 2L30 2L30 0L29 0L29 1L27 1L27 0ZM31 0L31 1L32 1L32 0ZM10 2L10 3L11 3L11 5L10 5L10 6L9 6L9 7L10 7L10 9L11 9L11 10L12 10L12 11L13 11L13 12L14 12L14 11L13 11L13 10L14 10L14 9L13 9L13 7L14 7L14 5L13 5L13 7L12 7L12 6L11 6L11 5L12 5L12 4L13 4L13 3L11 3L11 2ZM19 2L19 3L18 3L18 4L16 4L16 5L15 5L15 7L16 7L16 5L17 5L17 7L18 7L18 8L15 8L15 11L16 11L16 10L18 10L18 9L19 9L19 7L20 7L20 8L21 8L21 9L20 9L20 10L19 10L19 11L22 11L22 13L21 13L21 12L20 12L20 14L22 14L22 15L23 15L23 14L26 14L26 15L24 15L24 16L25 16L25 17L24 17L24 18L23 18L23 16L21 16L21 15L19 15L19 14L18 14L18 13L19 13L19 12L18 12L18 11L17 11L17 12L15 12L15 13L16 13L16 14L18 14L18 17L19 17L19 18L17 18L17 19L16 19L16 20L15 20L15 21L14 21L14 19L13 19L13 21L11 21L11 19L10 19L10 20L9 20L9 22L8 22L8 21L6 21L6 22L7 22L7 23L9 23L9 24L11 24L11 26L10 26L10 25L8 25L8 26L10 26L10 27L11 27L11 28L10 28L10 29L11 29L11 30L12 30L12 27L13 27L13 26L12 26L12 24L11 24L11 23L13 23L13 24L14 24L14 23L15 23L15 22L17 22L17 21L16 21L16 20L17 20L17 19L18 19L18 20L20 20L20 21L19 21L19 22L20 22L20 21L21 21L21 20L20 20L20 18L21 18L21 19L23 19L23 20L22 20L22 22L21 22L21 23L19 23L19 24L18 24L18 23L17 23L17 25L18 25L18 26L17 26L17 27L19 27L19 28L21 28L21 27L20 27L20 26L24 26L24 24L21 24L21 23L22 23L22 22L23 22L23 21L26 21L26 22L24 22L24 23L26 23L26 24L27 24L27 23L26 23L26 22L28 22L28 21L29 21L29 22L30 22L30 23L28 23L28 25L25 25L25 28L26 28L26 26L28 26L28 25L29 25L29 24L30 24L30 25L32 25L32 26L29 26L29 28L31 28L31 29L28 29L28 30L32 30L32 29L33 29L33 28L32 28L32 26L33 26L33 25L35 25L35 24L36 24L36 23L35 23L35 22L36 22L36 21L35 21L35 19L34 19L34 18L33 18L33 17L32 17L32 18L31 18L31 17L29 17L29 16L30 16L30 15L29 15L29 14L30 14L30 13L29 13L29 12L31 12L31 11L32 11L32 12L33 12L33 13L34 13L34 12L33 12L33 11L34 11L34 10L33 10L33 11L32 11L32 10L31 10L31 9L27 9L27 8L26 8L26 5L25 5L25 4L22 4L22 6L21 6L21 7L20 7L20 5L18 5L18 4L19 4L19 3L20 3L20 4L21 4L21 3L20 3L20 2ZM22 2L22 3L23 3L23 2ZM30 4L30 5L33 5L33 4ZM10 6L10 7L11 7L11 8L12 8L12 7L11 7L11 6ZM18 6L18 7L19 7L19 6ZM22 6L22 7L21 7L21 8L22 8L22 9L21 9L21 10L23 10L23 11L24 11L24 12L25 12L25 10L26 10L26 9L25 9L25 8L24 8L24 7L25 7L25 6L24 6L24 7L23 7L23 6ZM27 6L27 7L28 7L28 6ZM30 6L30 7L31 7L31 6ZM32 6L32 7L33 7L33 6ZM22 7L22 8L23 8L23 7ZM0 9L0 10L1 10L1 9ZM6 9L6 10L7 10L7 11L6 11L6 12L7 12L7 13L9 13L9 11L8 11L8 10L9 10L9 9L8 9L8 10L7 10L7 9ZM12 9L12 10L13 10L13 9ZM23 9L23 10L25 10L25 9ZM27 10L27 11L28 11L28 10ZM30 10L30 11L31 11L31 10ZM36 10L36 11L37 11L37 10ZM0 11L0 12L2 12L2 11ZM4 11L4 13L5 13L5 11ZM17 12L17 13L18 13L18 12ZM27 12L27 14L29 14L29 13L28 13L28 12ZM22 13L22 14L23 14L23 13ZM6 15L6 16L7 16L7 15ZM16 15L16 16L17 16L17 15ZM28 15L28 16L29 16L29 15ZM19 16L19 17L21 17L21 16ZM36 16L36 17L37 17L37 16ZM25 17L25 18L24 18L24 19L25 19L25 20L26 20L26 21L27 21L27 20L28 20L28 18L26 18L26 17ZM30 18L30 19L31 19L31 20L30 20L30 21L31 21L31 22L32 22L32 21L34 21L34 22L33 22L33 23L31 23L31 24L32 24L32 25L33 25L33 23L34 23L34 22L35 22L35 21L34 21L34 20L33 20L33 19L31 19L31 18ZM2 19L2 20L3 20L3 19ZM6 19L6 20L7 20L7 19ZM31 20L31 21L32 21L32 20ZM40 20L40 21L41 21L41 20ZM10 21L10 22L9 22L9 23L11 23L11 21ZM2 22L2 23L4 23L4 22ZM13 22L13 23L14 23L14 22ZM19 24L19 25L20 25L20 24ZM6 25L6 26L7 26L7 25ZM2 27L2 28L3 28L3 27ZM5 28L5 29L6 29L6 28ZM17 29L17 30L18 30L18 29ZM24 29L24 30L23 30L23 31L24 31L24 32L22 32L22 33L21 33L21 34L22 34L22 35L24 35L24 34L25 34L25 35L27 35L27 36L29 36L29 35L27 35L27 34L29 34L29 33L27 33L27 34L26 34L26 32L25 32L25 29ZM26 29L26 31L27 31L27 29ZM35 30L35 31L37 31L37 30ZM28 31L28 32L31 32L31 31ZM38 31L38 32L37 32L37 33L38 33L38 34L37 34L37 36L39 36L39 33L38 33L38 32L39 32L39 31ZM2 32L2 33L3 33L3 32ZM24 32L24 33L25 33L25 32ZM22 33L22 34L23 34L23 33ZM30 33L30 35L31 35L31 33ZM33 33L33 36L36 36L36 33ZM11 34L11 35L12 35L12 34ZM34 34L34 35L35 35L35 34ZM18 35L18 36L19 36L19 35ZM13 36L13 39L12 39L12 40L11 40L11 39L10 39L10 40L11 40L11 41L12 41L12 40L13 40L13 41L14 41L14 40L15 40L15 36ZM22 36L22 37L23 37L23 36ZM30 37L30 38L29 38L29 39L30 39L30 40L28 40L28 38L26 38L26 39L24 39L24 40L21 40L21 41L25 41L25 40L26 40L26 41L27 41L27 40L28 40L28 41L32 41L32 40L33 40L33 41L34 41L34 40L33 40L33 39L32 39L32 40L31 40L31 37ZM34 37L34 38L36 38L36 37ZM18 38L18 39L16 39L16 41L19 41L19 39L20 39L20 38ZM37 38L37 39L38 39L38 38ZM0 0L0 7L7 7L7 0ZM1 1L1 6L6 6L6 1ZM2 2L2 5L5 5L5 2ZM34 0L34 7L41 7L41 0ZM35 1L35 6L40 6L40 1ZM36 2L36 5L39 5L39 2ZM0 34L0 41L7 41L7 34ZM1 35L1 40L6 40L6 35ZM2 36L2 39L5 39L5 36Z" fill="#000000"/></g></g></svg>
