<?xml version="1.0" encoding="UTF-8"?>
<svg xmlns="http://www.w3.org/2000/svg" version="1.1" width="200" height="200" viewBox="0 0 200 200"><rect x="0" y="0" width="200" height="200" fill="#ffffff"/><g transform="scale(6.897)"><g transform="translate(0,0)"><path fill-rule="evenodd" d="M11 0L11 1L10 1L10 2L11 2L11 3L10 3L10 4L11 4L11 5L12 5L12 4L13 4L13 5L15 5L15 6L14 6L14 7L15 7L15 8L17 8L17 6L18 6L18 7L19 7L19 8L18 8L18 10L17 10L17 9L16 9L16 11L15 11L15 12L16 12L16 11L18 11L18 10L19 10L19 11L20 11L20 12L17 12L17 13L18 13L18 14L17 14L17 15L15 15L15 14L16 14L16 13L13 13L13 14L12 14L12 15L11 15L11 16L12 16L12 17L13 17L13 16L14 16L14 15L15 15L15 17L14 17L14 19L12 19L12 18L10 18L10 16L8 16L8 17L7 17L7 16L5 16L5 17L7 17L7 18L4 18L4 17L3 17L3 15L4 15L4 13L7 13L7 14L5 14L5 15L7 15L7 14L8 14L8 15L10 15L10 14L11 14L11 13L10 13L10 12L12 12L12 11L13 11L13 12L14 12L14 9L13 9L13 6L12 6L12 7L11 7L11 6L10 6L10 5L9 5L9 4L8 4L8 5L9 5L9 6L8 6L8 8L6 8L6 9L7 9L7 10L4 10L4 8L2 8L2 9L0 9L0 13L2 13L2 12L3 12L3 10L4 10L4 13L3 13L3 14L0 14L0 15L1 15L1 16L2 16L2 17L1 17L1 18L0 18L0 19L1 19L1 18L2 18L2 20L1 20L1 21L2 21L2 20L3 20L3 21L7 21L7 20L9 20L9 21L8 21L8 23L10 23L10 26L12 26L12 27L13 27L13 28L12 28L12 29L14 29L14 27L13 27L13 26L15 26L15 28L16 28L16 26L17 26L17 28L18 28L18 29L20 29L20 28L18 28L18 26L17 26L17 25L19 25L19 26L20 26L20 25L23 25L23 26L24 26L24 27L22 27L22 29L23 29L23 28L25 28L25 29L26 29L26 28L25 28L25 26L26 26L26 27L27 27L27 28L29 28L29 26L28 26L28 27L27 27L27 25L26 25L26 23L25 23L25 22L26 22L26 20L25 20L25 19L26 19L26 18L29 18L29 17L26 17L26 16L25 16L25 15L24 15L24 16L23 16L23 17L21 17L21 18L20 18L20 17L19 17L19 18L20 18L20 20L19 20L19 19L18 19L18 20L19 20L19 21L20 21L20 23L19 23L19 22L18 22L18 21L16 21L16 20L17 20L17 18L18 18L18 16L17 16L17 15L18 15L18 14L19 14L19 15L20 15L20 14L21 14L21 13L20 13L20 12L22 12L22 9L23 9L23 13L22 13L22 15L23 15L23 14L24 14L24 13L25 13L25 14L26 14L26 15L27 15L27 16L28 16L28 15L29 15L29 14L28 14L28 15L27 15L27 13L28 13L28 12L29 12L29 11L28 11L28 12L27 12L27 10L29 10L29 9L26 9L26 10L24 10L24 9L25 9L25 8L24 8L24 9L23 9L23 8L21 8L21 9L20 9L20 7L21 7L21 3L20 3L20 2L18 2L18 1L17 1L17 2L16 2L16 1L15 1L15 0L14 0L14 2L13 2L13 0ZM12 2L12 3L13 3L13 4L16 4L16 5L19 5L19 7L20 7L20 5L19 5L19 4L20 4L20 3L19 3L19 4L18 4L18 2L17 2L17 4L16 4L16 2L15 2L15 3L13 3L13 2ZM9 6L9 7L10 7L10 6ZM15 6L15 7L16 7L16 6ZM9 8L9 9L8 9L8 10L10 10L10 11L12 11L12 9L11 9L11 10L10 10L10 8ZM19 9L19 10L20 10L20 9ZM1 10L1 11L2 11L2 10ZM5 11L5 12L7 12L7 13L8 13L8 12L7 12L7 11ZM25 11L25 13L27 13L27 12L26 12L26 11ZM19 13L19 14L20 14L20 13ZM13 14L13 15L12 15L12 16L13 16L13 15L14 15L14 14ZM24 16L24 17L23 17L23 18L22 18L22 19L21 19L21 20L22 20L22 19L24 19L24 18L26 18L26 17L25 17L25 16ZM2 17L2 18L3 18L3 19L4 19L4 20L7 20L7 19L8 19L8 18L7 18L7 19L4 19L4 18L3 18L3 17ZM15 17L15 18L17 18L17 17ZM11 19L11 20L10 20L10 21L9 21L9 22L11 22L11 21L12 21L12 22L14 22L14 24L17 24L17 22L14 22L14 21L15 21L15 20L16 20L16 19L15 19L15 20L13 20L13 21L12 21L12 19ZM27 20L27 24L28 24L28 25L29 25L29 21L28 21L28 20ZM21 21L21 24L24 24L24 21ZM22 22L22 23L23 23L23 22ZM12 23L12 26L13 26L13 23ZM18 23L18 24L19 24L19 25L20 25L20 24L19 24L19 23ZM8 25L8 27L9 27L9 28L11 28L11 27L9 27L9 25ZM15 25L15 26L16 26L16 25ZM24 25L24 26L25 26L25 25ZM0 0L0 7L7 7L7 0ZM1 1L1 6L6 6L6 1ZM2 2L2 5L5 5L5 2ZM22 0L22 7L29 7L29 0ZM23 1L23 6L28 6L28 1ZM24 2L24 5L27 5L27 2ZM0 22L0 29L7 29L7 22ZM1 23L1 28L6 28L6 23ZM2 24L2 27L5 27L5 24Z" fill="#000000"/></g></g></svg>
