<?xml version="1.0" encoding="UTF-8"?>
<svg xmlns="http://www.w3.org/2000/svg" version="1.1" width="200" height="200" viewBox="0 0 200 200"><rect x="0" y="0" width="200" height="200" fill="#ffffff"/><g transform="scale(6.897)"><g transform="translate(0,0)"><path fill-rule="evenodd" d="M8 0L8 2L9 2L9 3L8 3L8 7L9 7L9 3L10 3L10 4L11 4L11 5L10 5L10 7L11 7L11 8L9 8L9 11L7 11L7 10L8 10L8 9L7 9L7 8L6 8L6 9L5 9L5 10L4 10L4 8L3 8L3 9L0 9L0 10L3 10L3 11L2 11L2 13L3 13L3 14L1 14L1 11L0 11L0 17L3 17L3 16L2 16L2 15L3 15L3 14L4 14L4 11L5 11L5 15L4 15L4 17L7 17L7 16L6 16L6 15L8 15L8 16L9 16L9 17L8 17L8 19L7 19L7 18L4 18L4 20L6 20L6 21L7 21L7 20L8 20L8 22L9 22L9 23L10 23L10 24L9 24L9 25L8 25L8 26L9 26L9 25L11 25L11 24L12 24L12 26L10 26L10 27L9 27L9 28L10 28L10 29L11 29L11 27L12 27L12 26L13 26L13 27L15 27L15 28L16 28L16 26L17 26L17 27L18 27L18 28L17 28L17 29L22 29L22 27L21 27L21 26L23 26L23 27L24 27L24 25L27 25L27 26L28 26L28 27L27 27L27 28L26 28L26 27L25 27L25 28L23 28L23 29L27 29L27 28L29 28L29 24L27 24L27 23L28 23L28 22L29 22L29 21L28 21L28 20L29 20L29 19L28 19L28 18L24 18L24 17L25 17L25 16L26 16L26 15L27 15L27 16L28 16L28 15L29 15L29 12L28 12L28 11L27 11L27 10L29 10L29 8L27 8L27 9L26 9L26 8L23 8L23 10L24 10L24 11L25 11L25 10L24 10L24 9L26 9L26 11L27 11L27 12L26 12L26 13L25 13L25 12L23 12L23 11L22 11L22 9L21 9L21 8L20 8L20 7L21 7L21 6L20 6L20 7L19 7L19 6L18 6L18 7L17 7L17 4L18 4L18 5L19 5L19 4L18 4L18 1L19 1L19 3L20 3L20 5L21 5L21 2L20 2L20 1L19 1L19 0L18 0L18 1L17 1L17 0L16 0L16 1L15 1L15 3L14 3L14 0L13 0L13 1L12 1L12 2L11 2L11 0L10 0L10 2L9 2L9 0ZM16 1L16 3L15 3L15 7L14 7L14 6L13 6L13 7L12 7L12 5L14 5L14 4L12 4L12 5L11 5L11 7L12 7L12 9L10 9L10 10L13 10L13 9L15 9L15 10L14 10L14 11L13 11L13 12L14 12L14 13L13 13L13 14L11 14L11 15L14 15L14 19L13 19L13 16L12 16L12 17L9 17L9 22L10 22L10 21L11 21L11 22L12 22L12 24L13 24L13 26L14 26L14 25L16 25L16 24L17 24L17 25L18 25L18 26L21 26L21 25L19 25L19 23L20 23L20 22L19 22L19 19L17 19L17 18L19 18L19 16L18 16L18 15L20 15L20 16L21 16L21 13L20 13L20 12L18 12L18 14L17 14L17 13L16 13L16 16L18 16L18 17L17 17L17 18L15 18L15 15L14 15L14 14L15 14L15 12L14 12L14 11L16 11L16 12L17 12L17 11L18 11L18 10L17 10L17 11L16 11L16 9L17 9L17 8L16 8L16 3L17 3L17 1ZM12 2L12 3L13 3L13 2ZM13 7L13 8L14 8L14 7ZM6 9L6 10L7 10L7 9ZM20 9L20 11L21 11L21 12L22 12L22 11L21 11L21 9ZM6 11L6 12L7 12L7 11ZM9 11L9 12L10 12L10 13L9 13L9 14L8 14L8 13L6 13L6 14L8 14L8 15L10 15L10 13L11 13L11 12L10 12L10 11ZM27 12L27 13L26 13L26 14L28 14L28 12ZM22 13L22 15L23 15L23 13ZM24 13L24 14L25 14L25 13ZM24 15L24 16L23 16L23 17L22 17L22 18L21 18L21 17L20 17L20 18L21 18L21 19L22 19L22 20L23 20L23 19L24 19L24 20L25 20L25 22L26 22L26 23L27 23L27 22L28 22L28 21L27 21L27 20L26 20L26 19L24 19L24 18L23 18L23 17L24 17L24 16L25 16L25 15ZM0 18L0 19L1 19L1 18ZM10 18L10 19L11 19L11 21L12 21L12 22L13 22L13 24L14 24L14 20L15 20L15 21L16 21L16 22L18 22L18 23L17 23L17 24L18 24L18 23L19 23L19 22L18 22L18 20L17 20L17 19L14 19L14 20L13 20L13 19L11 19L11 18ZM22 18L22 19L23 19L23 18ZM2 19L2 21L3 21L3 19ZM6 19L6 20L7 20L7 19ZM0 20L0 21L1 21L1 20ZM16 20L16 21L17 21L17 20ZM21 21L21 24L24 24L24 21ZM22 22L22 23L23 23L23 22ZM19 27L19 28L21 28L21 27ZM0 0L0 7L7 7L7 0ZM1 1L1 6L6 6L6 1ZM2 2L2 5L5 5L5 2ZM22 0L22 7L29 7L29 0ZM23 1L23 6L28 6L28 1ZM24 2L24 5L27 5L27 2ZM0 22L0 29L7 29L7 22ZM1 23L1 28L6 28L6 23ZM2 24L2 27L5 27L5 24Z" fill="#000000"/></g></g></svg>
