<?xml version="1.0" encoding="UTF-8"?>
<svg xmlns="http://www.w3.org/2000/svg" version="1.1" width="200" height="200" viewBox="0 0 200 200"><rect x="0" y="0" width="200" height="200" fill="#ffffff"/><g transform="scale(4.878)"><g transform="translate(0,0)"><path fill-rule="evenodd" d="M8 0L8 2L9 2L9 1L10 1L10 3L11 3L11 2L12 2L12 4L13 4L13 2L16 2L16 1L17 1L17 3L15 3L15 5L11 5L11 4L9 4L9 3L8 3L8 7L9 7L9 9L10 9L10 8L11 8L11 9L12 9L12 7L13 7L13 8L16 8L16 7L17 7L17 6L18 6L18 7L19 7L19 6L20 6L20 8L18 8L18 9L17 9L17 10L16 10L16 9L13 9L13 10L12 10L12 11L11 11L11 10L10 10L10 12L9 12L9 10L6 10L6 11L5 11L5 9L4 9L4 8L3 8L3 9L2 9L2 11L3 11L3 12L1 12L1 13L0 13L0 15L1 15L1 16L0 16L0 19L1 19L1 17L2 17L2 14L1 14L1 13L4 13L4 14L5 14L5 13L7 13L7 12L9 12L9 13L10 13L10 14L6 14L6 15L4 15L4 16L3 16L3 17L4 17L4 18L3 18L3 19L2 19L2 22L0 22L0 24L1 24L1 26L0 26L0 28L1 28L1 29L3 29L3 31L2 31L2 33L3 33L3 32L4 32L4 33L7 33L7 32L4 32L4 29L3 29L3 28L5 28L5 27L4 27L4 24L3 24L3 20L4 20L4 18L5 18L5 20L6 20L6 21L4 21L4 22L6 22L6 23L5 23L5 24L6 24L6 25L7 25L7 24L8 24L8 26L6 26L6 27L9 27L9 28L8 28L8 29L7 29L7 28L6 28L6 29L7 29L7 30L5 30L5 31L7 31L7 30L10 30L10 31L9 31L9 32L10 32L10 33L11 33L11 34L9 34L9 33L8 33L8 34L9 34L9 35L10 35L10 36L9 36L9 37L8 37L8 38L9 38L9 41L10 41L10 38L9 38L9 37L10 37L10 36L11 36L11 37L12 37L12 38L11 38L11 40L12 40L12 41L13 41L13 40L14 40L14 35L15 35L15 39L16 39L16 40L18 40L18 41L19 41L19 40L18 40L18 39L19 39L19 38L20 38L20 41L21 41L21 39L22 39L22 41L26 41L26 39L25 39L25 40L24 40L24 39L23 39L23 38L25 38L25 37L24 37L24 36L28 36L28 35L29 35L29 36L30 36L30 34L31 34L31 33L32 33L32 35L31 35L31 36L32 36L32 37L31 37L31 38L30 38L30 37L28 37L28 39L29 39L29 40L28 40L28 41L33 41L33 39L34 39L34 38L36 38L36 40L37 40L37 41L40 41L40 39L41 39L41 38L40 38L40 37L41 37L41 36L40 36L40 37L38 37L38 36L39 36L39 35L38 35L38 33L39 33L39 34L41 34L41 32L40 32L40 31L41 31L41 29L40 29L40 28L41 28L41 26L40 26L40 28L37 28L37 30L35 30L35 31L34 31L34 30L32 30L32 29L33 29L33 26L32 26L32 24L33 24L33 21L32 21L32 22L31 22L31 20L33 20L33 19L34 19L34 22L35 22L35 23L34 23L34 25L35 25L35 26L34 26L34 27L36 27L36 24L35 24L35 23L37 23L37 24L38 24L38 25L37 25L37 27L38 27L38 26L39 26L39 25L40 25L40 24L41 24L41 23L40 23L40 22L39 22L39 23L38 23L38 21L40 21L40 20L41 20L41 16L39 16L39 18L38 18L38 17L37 17L37 19L36 19L36 21L35 21L35 19L34 19L34 18L35 18L35 17L36 17L36 13L34 13L34 12L35 12L35 9L37 9L37 10L36 10L36 12L37 12L37 10L38 10L38 8L35 8L35 9L32 9L32 10L30 10L30 9L29 9L29 8L32 8L32 7L33 7L33 1L32 1L32 0L27 0L27 2L26 2L26 3L25 3L25 4L26 4L26 3L27 3L27 2L28 2L28 1L30 1L30 3L28 3L28 4L27 4L27 6L26 6L26 7L25 7L25 5L23 5L23 4L22 4L22 3L24 3L24 2L25 2L25 1L24 1L24 0L22 0L22 1L21 1L21 0L20 0L20 1L19 1L19 0L18 0L18 1L17 1L17 0L16 0L16 1L15 1L15 0L14 0L14 1L13 1L13 0L12 0L12 1L10 1L10 0ZM12 1L12 2L13 2L13 1ZM31 1L31 2L32 2L32 1ZM18 2L18 3L17 3L17 4L16 4L16 6L15 6L15 7L16 7L16 6L17 6L17 4L20 4L20 6L21 6L21 9L22 9L22 10L23 10L23 11L24 11L24 10L23 10L23 9L25 9L25 8L24 8L24 6L23 6L23 7L22 7L22 4L20 4L20 3L19 3L19 2ZM28 4L28 5L29 5L29 7L30 7L30 6L31 6L31 7L32 7L32 6L31 6L31 5L32 5L32 4L31 4L31 5L30 5L30 4ZM10 5L10 6L9 6L9 7L10 7L10 6L11 6L11 7L12 7L12 6L11 6L11 5ZM18 5L18 6L19 6L19 5ZM13 6L13 7L14 7L14 6ZM27 6L27 7L26 7L26 10L27 10L27 13L26 13L26 12L25 12L25 13L23 13L23 12L21 12L21 11L20 11L20 12L21 12L21 14L20 14L20 13L19 13L19 12L18 12L18 11L17 11L17 12L18 12L18 13L19 13L19 14L20 14L20 16L19 16L19 18L18 18L18 19L17 19L17 22L15 22L15 19L14 19L14 21L13 21L13 22L12 22L12 24L11 24L11 25L10 25L10 24L9 24L9 22L10 22L10 23L11 23L11 19L12 19L12 17L13 17L13 18L14 18L14 17L15 17L15 18L17 18L17 17L18 17L18 16L17 16L17 14L15 14L15 13L16 13L16 12L15 12L15 11L16 11L16 10L15 10L15 11L14 11L14 10L13 10L13 11L14 11L14 12L11 12L11 14L10 14L10 16L9 16L9 17L11 17L11 19L10 19L10 20L9 20L9 19L6 19L6 20L8 20L8 21L6 21L6 22L8 22L8 24L9 24L9 25L10 25L10 26L9 26L9 27L10 27L10 26L11 26L11 29L10 29L10 28L9 28L9 29L10 29L10 30L11 30L11 31L10 31L10 32L12 32L12 33L13 33L13 34L12 34L12 35L11 35L11 36L12 36L12 37L13 37L13 36L12 36L12 35L14 35L14 34L17 34L17 35L16 35L16 36L18 36L18 37L17 37L17 39L18 39L18 38L19 38L19 37L20 37L20 38L23 38L23 37L20 37L20 36L22 36L22 35L23 35L23 36L24 36L24 34L25 34L25 35L28 35L28 34L30 34L30 32L27 32L27 31L30 31L30 30L31 30L31 28L30 28L30 29L28 29L28 30L27 30L27 29L25 29L25 30L26 30L26 32L25 32L25 31L24 31L24 32L23 32L23 29L22 29L22 28L23 28L23 27L24 27L24 26L26 26L26 28L27 28L27 27L28 27L28 28L29 28L29 26L30 26L30 27L32 27L32 26L31 26L31 24L30 24L30 23L31 23L31 22L29 22L29 19L30 19L30 17L29 17L29 16L28 16L28 15L27 15L27 13L28 13L28 14L29 14L29 15L30 15L30 14L31 14L31 15L32 15L32 17L31 17L31 19L32 19L32 17L35 17L35 15L34 15L34 14L33 14L33 12L31 12L31 11L30 11L30 10L29 10L29 11L28 11L28 9L27 9L27 7L28 7L28 6ZM6 8L6 9L7 9L7 8ZM22 8L22 9L23 9L23 8ZM39 8L39 9L40 9L40 10L41 10L41 8ZM0 9L0 10L1 10L1 9ZM18 9L18 10L19 10L19 9ZM3 10L3 11L4 11L4 10ZM32 10L32 11L33 11L33 10ZM6 11L6 12L7 12L7 11ZM38 11L38 13L37 13L37 14L38 14L38 15L37 15L37 16L38 16L38 15L39 15L39 14L38 14L38 13L41 13L41 11ZM28 12L28 13L29 13L29 14L30 14L30 13L31 13L31 12ZM12 13L12 15L11 15L11 17L12 17L12 16L14 16L14 15L13 15L13 13ZM25 13L25 15L26 15L26 16L27 16L27 17L28 17L28 16L27 16L27 15L26 15L26 13ZM21 14L21 16L20 16L20 18L22 18L22 19L21 19L21 20L20 20L20 19L18 19L18 20L19 20L19 21L18 21L18 22L20 22L20 23L18 23L18 26L17 26L17 25L15 25L15 24L16 24L16 23L15 23L15 22L14 22L14 23L13 23L13 25L12 25L12 26L13 26L13 25L14 25L14 26L16 26L16 27L20 27L20 28L18 28L18 29L17 29L17 30L16 30L16 29L14 29L14 28L15 28L15 27L12 27L12 29L11 29L11 30L12 30L12 29L14 29L14 30L13 30L13 33L17 33L17 34L18 34L18 36L19 36L19 34L20 34L20 35L21 35L21 33L19 33L19 34L18 34L18 32L19 32L19 31L20 31L20 32L21 32L21 31L20 31L20 30L21 30L21 29L20 29L20 28L21 28L21 27L22 27L22 26L20 26L20 25L21 25L21 24L22 24L22 22L21 22L21 20L22 20L22 21L23 21L23 20L24 20L24 21L25 21L25 22L24 22L24 23L25 23L25 24L27 24L27 25L26 25L26 26L27 26L27 25L30 25L30 24L28 24L28 23L29 23L29 22L28 22L28 23L26 23L26 20L24 20L24 19L25 19L25 18L26 18L26 19L27 19L27 20L28 20L28 19L27 19L27 18L26 18L26 17L25 17L25 18L24 18L24 17L23 17L23 18L22 18L22 17L21 17L21 16L24 16L24 15L22 15L22 14ZM32 14L32 15L33 15L33 14ZM40 14L40 15L41 15L41 14ZM6 15L6 16L8 16L8 15ZM15 15L15 17L16 17L16 15ZM5 17L5 18L7 18L7 17ZM23 18L23 19L24 19L24 18ZM37 19L37 20L40 20L40 19ZM36 21L36 22L37 22L37 21ZM1 23L1 24L2 24L2 25L3 25L3 24L2 24L2 23ZM6 23L6 24L7 24L7 23ZM14 23L14 24L15 24L15 23ZM20 23L20 24L19 24L19 25L20 25L20 24L21 24L21 23ZM23 25L23 26L24 26L24 25ZM2 27L2 28L3 28L3 27ZM35 28L35 29L36 29L36 28ZM18 29L18 30L19 30L19 29ZM38 29L38 30L39 30L39 31L38 31L38 32L37 32L37 31L36 31L36 32L37 32L37 33L38 33L38 32L39 32L39 31L40 31L40 30L39 30L39 29ZM0 30L0 31L1 31L1 30ZM14 30L14 32L16 32L16 31L15 31L15 30ZM33 31L33 32L34 32L34 31ZM0 32L0 33L1 33L1 32ZM26 32L26 33L27 33L27 32ZM23 33L23 34L24 34L24 33ZM33 33L33 36L36 36L36 33ZM34 34L34 35L35 35L35 34ZM36 37L36 38L37 38L37 40L38 40L38 38L37 38L37 37ZM12 38L12 39L13 39L13 38ZM29 38L29 39L30 39L30 40L32 40L32 39L33 39L33 38L32 38L32 39L30 39L30 38ZM39 38L39 39L40 39L40 38ZM0 0L0 7L7 7L7 0ZM1 1L1 6L6 6L6 1ZM2 2L2 5L5 5L5 2ZM34 0L34 7L41 7L41 0ZM35 1L35 6L40 6L40 1ZM36 2L36 5L39 5L39 2ZM0 34L0 41L7 41L7 34ZM1 35L1 40L6 40L6 35ZM2 36L2 39L5 39L5 36Z" fill="#000000"/></g></g></svg>
