<?xml version="1.0" encoding="UTF-8"?>
<svg xmlns="http://www.w3.org/2000/svg" version="1.1" width="200" height="200" viewBox="0 0 200 200"><rect x="0" y="0" width="200" height="200" fill="#ffffff"/><g transform="scale(4.878)"><g transform="translate(0,0)"><path fill-rule="evenodd" d="M9 0L9 1L10 1L10 2L9 2L9 3L10 3L10 5L9 5L9 4L8 4L8 5L9 5L9 6L8 6L8 8L6 8L6 9L4 9L4 8L2 8L2 9L1 9L1 10L0 10L0 15L1 15L1 14L2 14L2 13L1 13L1 11L2 11L2 12L4 12L4 10L5 10L5 11L7 11L7 10L6 10L6 9L9 9L9 8L10 8L10 9L11 9L11 10L10 10L10 12L8 12L8 13L7 13L7 12L5 12L5 14L6 14L6 15L3 15L3 16L2 16L2 17L1 17L1 18L2 18L2 17L4 17L4 19L2 19L2 20L1 20L1 21L0 21L0 22L1 22L1 23L0 23L0 25L1 25L1 23L2 23L2 24L3 24L3 26L4 26L4 30L3 30L3 31L2 31L2 32L1 32L1 33L5 33L5 32L6 32L6 33L8 33L8 35L9 35L9 36L10 36L10 37L8 37L8 39L10 39L10 40L11 40L11 39L10 39L10 37L11 37L11 38L15 38L15 41L16 41L16 40L17 40L17 41L19 41L19 40L20 40L20 41L21 41L21 40L23 40L23 41L24 41L24 40L26 40L26 41L27 41L27 40L26 40L26 38L28 38L28 39L29 39L29 38L30 38L30 40L32 40L32 41L33 41L33 39L32 39L32 38L30 38L30 37L28 37L28 36L27 36L27 33L26 33L26 34L25 34L25 35L26 35L26 36L23 36L23 35L22 35L22 34L23 34L23 33L25 33L25 32L27 32L27 31L29 31L29 34L28 34L28 35L29 35L29 36L30 36L30 35L32 35L32 37L33 37L33 38L34 38L34 37L35 37L35 41L37 41L37 40L38 40L38 41L40 41L40 39L41 39L41 37L40 37L40 36L38 36L38 37L37 37L37 34L38 34L38 33L39 33L39 34L41 34L41 32L40 32L40 33L39 33L39 31L40 31L40 30L39 30L39 31L38 31L38 33L37 33L37 32L36 32L36 30L35 30L35 29L33 29L33 28L32 28L32 26L33 26L33 24L35 24L35 25L34 25L34 27L35 27L35 28L36 28L36 29L37 29L37 30L38 30L38 29L39 29L39 28L40 28L40 27L41 27L41 24L40 24L40 25L39 25L39 26L40 26L40 27L39 27L39 28L38 28L38 27L36 27L36 24L35 24L35 23L34 23L34 22L35 22L35 21L36 21L36 22L37 22L37 24L38 24L38 22L37 22L37 21L40 21L40 17L41 17L41 16L39 16L39 18L38 18L38 16L37 16L37 15L38 15L38 14L36 14L36 13L35 13L35 12L34 12L34 13L35 13L35 14L34 14L34 15L35 15L35 16L36 16L36 17L37 17L37 18L38 18L38 19L36 19L36 20L34 20L34 19L35 19L35 18L34 18L34 19L33 19L33 16L32 16L32 19L31 19L31 17L30 17L30 19L28 19L28 18L29 18L29 17L28 17L28 16L29 16L29 15L30 15L30 16L31 16L31 15L33 15L33 12L32 12L32 11L35 11L35 8L32 8L32 7L33 7L33 6L32 6L32 5L33 5L33 2L31 2L31 1L32 1L32 0L31 0L31 1L30 1L30 0L29 0L29 1L28 1L28 2L29 2L29 3L28 3L28 4L27 4L27 5L28 5L28 4L29 4L29 5L30 5L30 4L29 4L29 3L30 3L30 2L31 2L31 3L32 3L32 4L31 4L31 6L30 6L30 7L29 7L29 6L28 6L28 7L27 7L27 6L26 6L26 5L25 5L25 4L24 4L24 2L25 2L25 3L27 3L27 0L26 0L26 2L25 2L25 0L24 0L24 2L23 2L23 0L20 0L20 2L19 2L19 0L17 0L17 1L15 1L15 2L16 2L16 3L15 3L15 4L14 4L14 2L13 2L13 0L12 0L12 2L11 2L11 1L10 1L10 0ZM17 1L17 3L16 3L16 4L15 4L15 7L14 7L14 5L12 5L12 6L11 6L11 5L10 5L10 6L9 6L9 7L10 7L10 6L11 6L11 7L12 7L12 6L13 6L13 8L12 8L12 9L13 9L13 8L15 8L15 9L14 9L14 11L12 11L12 10L11 10L11 11L12 11L12 13L11 13L11 12L10 12L10 13L8 13L8 14L7 14L7 13L6 13L6 14L7 14L7 15L6 15L6 16L4 16L4 17L6 17L6 18L7 18L7 19L6 19L6 20L5 20L5 21L6 21L6 22L7 22L7 23L5 23L5 22L4 22L4 21L3 21L3 20L2 20L2 23L5 23L5 25L4 25L4 26L5 26L5 27L6 27L6 28L5 28L5 29L6 29L6 30L4 30L4 31L3 31L3 32L5 32L5 31L6 31L6 32L8 32L8 31L11 31L11 30L8 30L8 28L9 28L9 29L11 29L11 28L9 28L9 27L10 27L10 26L11 26L11 27L12 27L12 31L13 31L13 28L15 28L15 31L14 31L14 32L15 32L15 34L14 34L14 35L13 35L13 34L11 34L11 35L10 35L10 34L9 34L9 35L10 35L10 36L11 36L11 35L12 35L12 37L15 37L15 38L16 38L16 39L18 39L18 38L19 38L19 39L23 39L23 40L24 40L24 39L23 39L23 38L22 38L22 37L23 37L23 36L21 36L21 37L20 37L20 36L19 36L19 35L20 35L20 34L22 34L22 32L23 32L23 31L25 31L25 29L24 29L24 28L23 28L23 27L25 27L25 28L26 28L26 27L29 27L29 30L31 30L31 29L32 29L32 28L31 28L31 27L30 27L30 25L28 25L28 26L26 26L26 24L27 24L27 23L29 23L29 24L30 24L30 23L32 23L32 24L31 24L31 25L32 25L32 24L33 24L33 22L34 22L34 20L33 20L33 21L32 21L32 22L31 22L31 20L28 20L28 19L27 19L27 20L26 20L26 21L24 21L24 22L26 22L26 24L23 24L23 23L22 23L22 22L23 22L23 21L22 21L22 20L23 20L23 19L24 19L24 18L26 18L26 17L27 17L27 16L28 16L28 15L27 15L27 14L28 14L28 13L29 13L29 12L30 12L30 11L29 11L29 10L31 10L31 11L32 11L32 10L34 10L34 9L32 9L32 10L31 10L31 8L30 8L30 9L29 9L29 10L28 10L28 8L29 8L29 7L28 7L28 8L26 8L26 6L25 6L25 5L24 5L24 6L23 6L23 7L24 7L24 6L25 6L25 8L24 8L24 9L23 9L23 8L22 8L22 5L23 5L23 4L22 4L22 3L23 3L23 2L22 2L22 1L21 1L21 2L22 2L22 3L21 3L21 4L18 4L18 5L20 5L20 6L19 6L19 8L18 8L18 6L17 6L17 3L19 3L19 2L18 2L18 1ZM29 1L29 2L30 2L30 1ZM12 2L12 3L11 3L11 4L13 4L13 2ZM16 6L16 7L15 7L15 8L16 8L16 7L17 7L17 6ZM20 6L20 7L21 7L21 6ZM31 6L31 7L32 7L32 6ZM19 8L19 10L17 10L17 9L16 9L16 10L15 10L15 13L16 13L16 12L17 12L17 13L19 13L19 14L18 14L18 15L17 15L17 17L16 17L16 14L14 14L14 13L13 13L13 14L10 14L10 15L12 15L12 16L9 16L9 17L7 17L7 16L6 16L6 17L7 17L7 18L8 18L8 19L7 19L7 20L6 20L6 21L8 21L8 22L10 22L10 24L13 24L13 25L14 25L14 26L12 26L12 27L14 27L14 26L15 26L15 25L14 25L14 24L13 24L13 22L14 22L14 23L15 23L15 24L16 24L16 25L17 25L17 26L16 26L16 27L15 27L15 28L17 28L17 29L16 29L16 31L17 31L17 32L18 32L18 33L17 33L17 34L16 34L16 35L14 35L14 36L15 36L15 37L16 37L16 38L17 38L17 37L18 37L18 36L16 36L16 35L17 35L17 34L18 34L18 35L19 35L19 34L18 34L18 33L21 33L21 32L22 32L22 31L23 31L23 30L24 30L24 29L23 29L23 28L21 28L21 27L22 27L22 26L24 26L24 25L23 25L23 24L22 24L22 26L21 26L21 22L22 22L22 21L21 21L21 18L22 18L22 19L23 19L23 18L24 18L24 16L27 16L27 15L25 15L25 14L23 14L23 12L24 12L24 13L25 13L25 12L27 12L27 13L28 13L28 12L29 12L29 11L25 11L25 10L26 10L26 9L24 9L24 10L23 10L23 9L22 9L22 8ZM36 8L36 11L38 11L38 10L37 10L37 8ZM3 9L3 10L4 10L4 9ZM20 9L20 12L19 12L19 11L18 11L18 12L19 12L19 13L20 13L20 12L21 12L21 13L22 13L22 11L21 11L21 9ZM40 9L40 10L41 10L41 9ZM8 10L8 11L9 11L9 10ZM24 11L24 12L25 12L25 11ZM39 11L39 14L40 14L40 15L41 15L41 13L40 13L40 12L41 12L41 11ZM31 12L31 13L30 13L30 15L31 15L31 14L32 14L32 12ZM3 13L3 14L4 14L4 13ZM8 14L8 15L9 15L9 14ZM19 14L19 16L18 16L18 17L17 17L17 18L16 18L16 20L15 20L15 21L14 21L14 22L15 22L15 23L16 23L16 24L17 24L17 25L20 25L20 23L19 23L19 22L20 22L20 18L18 18L18 17L21 17L21 16L22 16L22 14ZM13 15L13 16L12 16L12 19L11 19L11 18L10 18L10 17L9 17L9 18L10 18L10 19L8 19L8 21L12 21L12 22L11 22L11 23L12 23L12 22L13 22L13 21L12 21L12 20L13 20L13 19L14 19L14 18L15 18L15 17L14 17L14 18L13 18L13 16L14 16L14 15ZM20 15L20 16L21 16L21 15ZM23 15L23 16L24 16L24 15ZM17 18L17 19L18 19L18 20L17 20L17 21L18 21L18 22L16 22L16 21L15 21L15 22L16 22L16 23L18 23L18 24L19 24L19 23L18 23L18 22L19 22L19 19L18 19L18 18ZM10 19L10 20L11 20L11 19ZM36 20L36 21L37 21L37 20ZM26 21L26 22L27 22L27 21ZM29 21L29 23L30 23L30 21ZM39 22L39 23L40 23L40 22ZM7 23L7 24L6 24L6 25L5 25L5 26L6 26L6 27L7 27L7 28L6 28L6 29L7 29L7 28L8 28L8 27L9 27L9 26L10 26L10 25L8 25L8 23ZM6 25L6 26L7 26L7 27L8 27L8 26L7 26L7 25ZM37 25L37 26L38 26L38 25ZM17 26L17 27L18 27L18 26ZM19 26L19 28L18 28L18 29L17 29L17 30L18 30L18 29L19 29L19 28L20 28L20 29L21 29L21 28L20 28L20 27L21 27L21 26ZM25 26L25 27L26 27L26 26ZM0 27L0 29L3 29L3 27ZM27 28L27 30L28 30L28 28ZM30 28L30 29L31 29L31 28ZM37 28L37 29L38 29L38 28ZM0 30L0 31L1 31L1 30ZM6 30L6 31L8 31L8 30ZM20 30L20 32L21 32L21 30ZM32 30L32 32L31 32L31 31L30 31L30 32L31 32L31 34L32 34L32 32L33 32L33 31L34 31L34 32L35 32L35 31L34 31L34 30ZM18 31L18 32L19 32L19 31ZM33 33L33 36L36 36L36 33ZM29 34L29 35L30 35L30 34ZM34 34L34 35L35 35L35 34ZM19 37L19 38L20 38L20 37ZM24 37L24 38L25 38L25 37ZM36 37L36 40L37 40L37 37ZM38 37L38 38L39 38L39 39L40 39L40 37ZM12 39L12 41L14 41L14 40L13 40L13 39ZM28 40L28 41L29 41L29 40ZM0 0L0 7L7 7L7 0ZM1 1L1 6L6 6L6 1ZM2 2L2 5L5 5L5 2ZM34 0L34 7L41 7L41 0ZM35 1L35 6L40 6L40 1ZM36 2L36 5L39 5L39 2ZM0 34L0 41L7 41L7 34ZM1 35L1 40L6 40L6 35ZM2 36L2 39L5 39L5 36Z" fill="#000000"/></g></g></svg>
