<?xml version="1.0" encoding="UTF-8"?>
<svg xmlns="http://www.w3.org/2000/svg" version="1.1" width="200" height="200" viewBox="0 0 200 200"><rect x="0" y="0" width="200" height="200" fill="#ffffff"/><g transform="scale(6.897)"><g transform="translate(0,0)"><path fill-rule="evenodd" d="M9 0L9 2L8 2L8 4L9 4L9 2L10 2L10 3L11 3L11 4L10 4L10 5L9 5L9 6L8 6L8 7L9 7L9 6L10 6L10 7L11 7L11 8L10 8L10 9L11 9L11 11L9 11L9 10L8 10L8 8L6 8L6 9L7 9L7 10L4 10L4 9L5 9L5 8L3 8L3 9L1 9L1 10L0 10L0 16L2 16L2 17L0 17L0 21L2 21L2 20L3 20L3 21L4 21L4 20L3 20L3 19L2 19L2 18L3 18L3 16L2 16L2 15L4 15L4 14L5 14L5 17L4 17L4 19L5 19L5 21L8 21L8 23L9 23L9 24L8 24L8 26L9 26L9 24L10 24L10 25L11 25L11 24L10 24L10 23L12 23L12 22L14 22L14 21L12 21L12 20L11 20L11 19L10 19L10 18L12 18L12 19L13 19L13 20L14 20L14 19L13 19L13 18L14 18L14 17L17 17L17 16L18 16L18 18L17 18L17 20L18 20L18 21L20 21L20 24L19 24L19 25L17 25L17 21L16 21L16 23L13 23L13 24L12 24L12 25L13 25L13 26L10 26L10 28L11 28L11 29L12 29L12 28L13 28L13 29L14 29L14 28L15 28L15 29L20 29L20 28L21 28L21 29L23 29L23 28L24 28L24 29L25 29L25 27L23 27L23 28L22 28L22 26L21 26L21 27L20 27L20 28L19 28L19 25L24 25L24 26L26 26L26 27L29 27L29 26L26 26L26 25L29 25L29 22L28 22L28 21L26 21L26 20L27 20L27 18L28 18L28 19L29 19L29 17L28 17L28 16L29 16L29 14L28 14L28 13L29 13L29 11L28 11L28 10L27 10L27 8L25 8L25 9L26 9L26 10L25 10L25 12L24 12L24 16L23 16L23 12L22 12L22 11L21 11L21 10L19 10L19 9L16 9L16 8L19 8L19 6L20 6L20 7L21 7L21 4L19 4L19 3L20 3L20 1L21 1L21 0L19 0L19 1L18 1L18 0L17 0L17 1L15 1L15 0L13 0L13 1L12 1L12 0L11 0L11 1L10 1L10 0ZM11 1L11 3L12 3L12 1ZM17 1L17 2L16 2L16 3L17 3L17 4L16 4L16 5L17 5L17 7L18 7L18 6L19 6L19 4L18 4L18 3L19 3L19 2L18 2L18 1ZM13 2L13 3L14 3L14 4L13 4L13 5L12 5L12 4L11 4L11 5L12 5L12 6L11 6L11 7L12 7L12 6L13 6L13 7L14 7L14 8L12 8L12 11L11 11L11 12L10 12L10 13L6 13L6 12L7 12L7 11L8 11L8 10L7 10L7 11L6 11L6 12L5 12L5 11L4 11L4 12L3 12L3 10L2 10L2 11L1 11L1 12L3 12L3 14L4 14L4 12L5 12L5 14L8 14L8 16L7 16L7 15L6 15L6 16L7 16L7 17L6 17L6 18L5 18L5 19L6 19L6 20L8 20L8 21L9 21L9 22L10 22L10 21L11 21L11 20L8 20L8 19L6 19L6 18L9 18L9 16L10 16L10 17L11 17L11 16L10 16L10 14L12 14L12 18L13 18L13 15L14 15L14 13L18 13L18 11L16 11L16 9L15 9L15 7L16 7L16 6L15 6L15 5L14 5L14 4L15 4L15 2ZM14 6L14 7L15 7L15 6ZM13 9L13 10L15 10L15 9ZM22 9L22 10L23 10L23 11L24 11L24 9ZM26 10L26 11L27 11L27 12L28 12L28 11L27 11L27 10ZM12 11L12 12L13 12L13 13L12 13L12 14L13 14L13 13L14 13L14 12L15 12L15 11ZM19 12L19 13L20 13L20 12ZM21 12L21 14L20 14L20 15L18 15L18 14L17 14L17 15L16 15L16 14L15 14L15 16L17 16L17 15L18 15L18 16L19 16L19 18L20 18L20 19L21 19L21 20L22 20L22 19L21 19L21 16L20 16L20 15L21 15L21 14L22 14L22 12ZM25 13L25 16L26 16L26 17L27 17L27 16L28 16L28 15L27 15L27 16L26 16L26 13ZM1 14L1 15L2 15L2 14ZM22 16L22 17L23 17L23 16ZM25 18L25 19L23 19L23 20L26 20L26 18ZM21 21L21 24L24 24L24 21ZM22 22L22 23L23 23L23 22ZM25 22L25 25L26 25L26 24L28 24L28 23L27 23L27 22ZM14 24L14 27L13 27L13 28L14 28L14 27L15 27L15 28L16 28L16 27L15 27L15 26L17 26L17 25L15 25L15 24ZM11 27L11 28L12 28L12 27ZM26 28L26 29L28 29L28 28ZM0 0L0 7L7 7L7 0ZM1 1L1 6L6 6L6 1ZM2 2L2 5L5 5L5 2ZM22 0L22 7L29 7L29 0ZM23 1L23 6L28 6L28 1ZM24 2L24 5L27 5L27 2ZM0 22L0 29L7 29L7 22ZM1 23L1 28L6 28L6 23ZM2 24L2 27L5 27L5 24Z" fill="#000000"/></g></g></svg>
