<?xml version="1.0" encoding="UTF-8"?>
<svg xmlns="http://www.w3.org/2000/svg" version="1.1" width="200" height="200" viewBox="0 0 200 200"><rect x="0" y="0" width="200" height="200" fill="#ffffff"/><g transform="scale(4.878)"><g transform="translate(0,0)"><path fill-rule="evenodd" d="M8 0L8 3L9 3L9 5L8 5L8 11L7 11L7 10L6 10L6 9L7 9L7 8L6 8L6 9L5 9L5 8L2 8L2 10L3 10L3 12L2 12L2 11L1 11L1 10L0 10L0 12L2 12L2 13L0 13L0 18L1 18L1 19L0 19L0 21L1 21L1 22L0 22L0 24L1 24L1 25L0 25L0 28L2 28L2 29L0 29L0 33L1 33L1 30L2 30L2 29L3 29L3 30L4 30L4 31L2 31L2 32L5 32L5 33L7 33L7 32L8 32L8 31L7 31L7 30L8 30L8 29L7 29L7 28L6 28L6 27L9 27L9 28L10 28L10 27L14 27L14 26L15 26L15 25L18 25L18 27L15 27L15 29L14 29L14 30L16 30L16 29L18 29L18 27L19 27L19 26L20 26L20 25L18 25L18 24L15 24L15 25L14 25L14 26L9 26L9 25L8 25L8 23L9 23L9 24L10 24L10 25L12 25L12 24L14 24L14 23L18 23L18 22L19 22L19 24L21 24L21 26L22 26L22 25L23 25L23 24L24 24L24 25L25 25L25 26L23 26L23 27L21 27L21 29L20 29L20 28L19 28L19 30L20 30L20 31L22 31L22 32L21 32L21 33L22 33L22 34L18 34L18 33L19 33L19 31L18 31L18 32L15 32L15 31L14 31L14 32L13 32L13 33L11 33L11 34L13 34L13 33L14 33L14 32L15 32L15 33L17 33L17 34L16 34L16 36L18 36L18 37L17 37L17 38L16 38L16 37L15 37L15 36L14 36L14 35L13 35L13 36L12 36L12 35L10 35L10 33L8 33L8 34L9 34L9 35L10 35L10 37L11 37L11 38L9 38L9 36L8 36L8 39L13 39L13 38L12 38L12 37L14 37L14 38L16 38L16 39L14 39L14 40L13 40L13 41L14 41L14 40L15 40L15 41L19 41L19 40L20 40L20 41L22 41L22 39L23 39L23 41L25 41L25 40L26 40L26 41L32 41L32 40L33 40L33 41L34 41L34 40L33 40L33 38L34 38L34 39L35 39L35 40L36 40L36 39L37 39L37 40L40 40L40 38L41 38L41 37L40 37L40 36L41 36L41 35L40 35L40 34L41 34L41 32L40 32L40 30L41 30L41 29L39 29L39 32L38 32L38 29L35 29L35 30L34 30L34 31L35 31L35 32L33 32L33 31L32 31L32 30L33 30L33 29L34 29L34 28L33 28L33 29L32 29L32 28L31 28L31 29L30 29L30 28L27 28L27 27L28 27L28 26L26 26L26 25L25 25L25 23L24 23L24 22L23 22L23 20L20 20L20 19L22 19L22 18L21 18L21 16L22 16L22 15L23 15L23 17L24 17L24 18L25 18L25 17L26 17L26 16L27 16L27 14L29 14L29 13L30 13L30 16L29 16L29 15L28 15L28 16L29 16L29 17L31 17L31 18L30 18L30 19L31 19L31 18L32 18L32 19L33 19L33 18L34 18L34 19L35 19L35 21L34 21L34 20L33 20L33 21L32 21L32 20L30 20L30 21L31 21L31 22L32 22L32 24L33 24L33 25L31 25L31 23L30 23L30 22L29 22L29 23L30 23L30 24L28 24L28 22L26 22L26 20L27 20L27 21L29 21L29 20L27 20L27 19L28 19L28 18L26 18L26 19L25 19L25 22L26 22L26 24L28 24L28 25L29 25L29 26L30 26L30 25L31 25L31 26L33 26L33 27L34 27L34 26L36 26L36 27L35 27L35 28L38 28L38 26L39 26L39 28L40 28L40 26L41 26L41 23L39 23L39 24L40 24L40 26L39 26L39 25L34 25L34 23L36 23L36 24L37 24L37 20L38 20L38 21L39 21L39 20L38 20L38 19L39 19L39 18L41 18L41 16L40 16L40 17L39 17L39 16L37 16L37 14L38 14L38 15L40 15L40 14L41 14L41 13L40 13L40 14L38 14L38 13L36 13L36 14L35 14L35 15L36 15L36 16L35 16L35 17L34 17L34 16L32 16L32 17L31 17L31 12L32 12L32 13L33 13L33 14L32 14L32 15L34 15L34 13L35 13L35 12L38 12L38 11L39 11L39 12L40 12L40 10L41 10L41 8L38 8L38 9L40 9L40 10L37 10L37 9L36 9L36 8L33 8L33 6L32 6L32 7L31 7L31 5L32 5L32 4L33 4L33 3L31 3L31 2L30 2L30 0L29 0L29 1L27 1L27 0L26 0L26 1L27 1L27 2L26 2L26 3L28 3L28 4L29 4L29 5L27 5L27 4L26 4L26 7L27 7L27 9L26 9L26 8L25 8L25 5L23 5L23 6L22 6L22 7L21 7L21 3L20 3L20 2L22 2L22 4L25 4L25 3L24 3L24 2L25 2L25 1L24 1L24 0L22 0L22 1L19 1L19 4L18 4L18 5L17 5L17 6L16 6L16 5L15 5L15 6L14 6L14 3L12 3L12 1L10 1L10 0ZM14 0L14 1L13 1L13 2L14 2L14 1L15 1L15 2L16 2L16 4L17 4L17 3L18 3L18 2L17 2L17 0ZM31 0L31 1L32 1L32 2L33 2L33 1L32 1L32 0ZM9 1L9 3L11 3L11 4L10 4L10 6L9 6L9 8L10 8L10 6L11 6L11 8L12 8L12 10L9 10L9 11L8 11L8 12L7 12L7 11L6 11L6 10L5 10L5 12L7 12L7 13L6 13L6 14L7 14L7 15L6 15L6 16L4 16L4 15L5 15L5 13L2 13L2 14L1 14L1 15L2 15L2 16L3 16L3 17L2 17L2 18L3 18L3 20L5 20L5 21L4 21L4 23L6 23L6 24L4 24L4 25L6 25L6 26L5 26L5 27L4 27L4 28L3 28L3 26L2 26L2 28L3 28L3 29L4 29L4 30L5 30L5 31L6 31L6 32L7 32L7 31L6 31L6 30L7 30L7 29L4 29L4 28L5 28L5 27L6 27L6 26L7 26L7 25L6 25L6 24L7 24L7 23L6 23L6 22L8 22L8 21L9 21L9 23L10 23L10 21L11 21L11 22L12 22L12 23L13 23L13 22L14 22L14 21L16 21L16 22L18 22L18 21L19 21L19 19L18 19L18 18L19 18L19 17L18 17L18 16L17 16L17 17L18 17L18 18L16 18L16 14L17 14L17 15L18 15L18 14L19 14L19 15L20 15L20 16L21 16L21 13L22 13L22 12L24 12L24 10L26 10L26 9L24 9L24 6L23 6L23 7L22 7L22 9L23 9L23 11L21 11L21 7L20 7L20 5L18 5L18 6L17 6L17 7L18 7L18 8L20 8L20 9L19 9L19 10L18 10L18 9L17 9L17 11L18 11L18 12L20 12L20 13L18 13L18 14L17 14L17 12L14 12L14 13L13 13L13 14L15 14L15 15L13 15L13 17L12 17L12 14L11 14L11 12L12 12L12 10L14 10L14 11L16 11L16 6L15 6L15 7L14 7L14 6L13 6L13 7L12 7L12 6L11 6L11 4L12 4L12 3L11 3L11 2L10 2L10 1ZM29 3L29 4L31 4L31 3ZM29 5L29 8L28 8L28 9L27 9L27 10L28 10L28 9L29 9L29 11L28 11L28 12L27 12L27 11L25 11L25 16L24 16L24 17L25 17L25 16L26 16L26 14L27 14L27 13L29 13L29 12L31 12L31 11L32 11L32 12L33 12L33 13L34 13L34 12L33 12L33 11L34 11L34 9L32 9L32 8L30 8L30 5ZM18 6L18 7L19 7L19 6ZM27 6L27 7L28 7L28 6ZM13 8L13 9L14 9L14 10L15 10L15 8ZM29 8L29 9L30 9L30 10L32 10L32 9L30 9L30 8ZM35 9L35 10L36 10L36 9ZM9 11L9 12L8 12L8 14L9 14L9 15L8 15L8 16L6 16L6 17L5 17L5 18L6 18L6 19L8 19L8 20L13 20L13 19L15 19L15 20L17 20L17 21L18 21L18 20L17 20L17 19L16 19L16 18L15 18L15 17L14 17L14 18L11 18L11 17L10 17L10 13L9 13L9 12L11 12L11 11ZM15 13L15 14L16 14L16 13ZM2 14L2 15L4 15L4 14ZM23 14L23 15L24 15L24 14ZM36 16L36 17L35 17L35 19L36 19L36 20L37 20L37 18L36 18L36 17L37 17L37 16ZM3 17L3 18L4 18L4 17ZM6 17L6 18L8 18L8 19L9 19L9 18L10 18L10 19L11 19L11 18L10 18L10 17L9 17L9 18L8 18L8 17ZM32 17L32 18L33 18L33 17ZM38 17L38 18L39 18L39 17ZM1 19L1 21L2 21L2 19ZM6 20L6 21L5 21L5 22L6 22L6 21L7 21L7 20ZM40 20L40 21L41 21L41 20ZM33 21L33 22L34 22L34 21ZM35 21L35 22L36 22L36 21ZM1 22L1 23L3 23L3 22ZM21 23L21 24L23 24L23 23ZM2 24L2 25L3 25L3 24ZM33 25L33 26L34 26L34 25ZM23 27L23 28L24 28L24 27ZM11 28L11 29L10 29L10 30L9 30L9 32L12 32L12 31L13 31L13 30L12 30L12 29L13 29L13 28ZM25 28L25 29L22 29L22 31L23 31L23 32L22 32L22 33L23 33L23 32L24 32L24 31L25 31L25 30L26 30L26 29L27 29L27 28ZM28 29L28 30L29 30L29 31L28 31L28 33L27 33L27 32L25 32L25 36L24 36L24 38L23 38L23 36L22 36L22 38L23 38L23 39L25 39L25 38L26 38L26 39L27 39L27 40L30 40L30 39L31 39L31 40L32 40L32 38L33 38L33 37L32 37L32 35L31 35L31 33L30 33L30 35L31 35L31 36L29 36L29 35L28 35L28 36L29 36L29 37L26 37L26 35L27 35L27 34L28 34L28 33L29 33L29 32L30 32L30 31L31 31L31 30L32 30L32 29L31 29L31 30L30 30L30 29ZM11 30L11 31L12 31L12 30ZM37 32L37 33L38 33L38 34L37 34L37 36L40 36L40 35L38 35L38 34L39 34L39 33L38 33L38 32ZM33 33L33 36L36 36L36 33ZM17 34L17 35L18 35L18 36L19 36L19 35L18 35L18 34ZM22 34L22 35L24 35L24 34ZM34 34L34 35L35 35L35 34ZM20 35L20 39L21 39L21 35ZM11 36L11 37L12 37L12 36ZM30 37L30 38L31 38L31 37ZM34 37L34 38L36 38L36 37ZM17 38L17 39L16 39L16 40L18 40L18 38ZM27 38L27 39L28 39L28 38ZM37 38L37 39L38 39L38 38ZM9 40L9 41L12 41L12 40ZM0 0L0 7L7 7L7 0ZM1 1L1 6L6 6L6 1ZM2 2L2 5L5 5L5 2ZM34 0L34 7L41 7L41 0ZM35 1L35 6L40 6L40 1ZM36 2L36 5L39 5L39 2ZM0 34L0 41L7 41L7 34ZM1 35L1 40L6 40L6 35ZM2 36L2 39L5 39L5 36Z" fill="#000000"/></g></g></svg>
