<?xml version="1.0" encoding="UTF-8"?>
<svg xmlns="http://www.w3.org/2000/svg" version="1.1" width="200" height="200" viewBox="0 0 200 200"><rect x="0" y="0" width="200" height="200" fill="#ffffff"/><g transform="scale(4.878)"><g transform="translate(0,0)"><path fill-rule="evenodd" d="M8 0L8 3L9 3L9 5L8 5L8 9L9 9L9 10L6 10L6 9L7 9L7 8L6 8L6 9L5 9L5 8L2 8L2 9L3 9L3 12L4 12L4 13L7 13L7 14L6 14L6 15L7 15L7 16L6 16L6 17L8 17L8 16L9 16L9 17L10 17L10 18L9 18L9 19L10 19L10 20L11 20L11 19L10 19L10 18L11 18L11 17L12 17L12 19L13 19L13 20L14 20L14 21L13 21L13 23L12 23L12 21L9 21L9 22L6 22L6 21L8 21L8 18L4 18L4 16L5 16L5 14L3 14L3 15L2 15L2 16L0 16L0 17L2 17L2 18L1 18L1 19L0 19L0 22L2 22L2 23L0 23L0 24L1 24L1 25L0 25L0 26L2 26L2 27L4 27L4 24L5 24L5 25L8 25L8 26L9 26L9 25L8 25L8 24L10 24L10 23L11 23L11 25L10 25L10 27L9 27L9 28L10 28L10 27L11 27L11 26L12 26L12 27L13 27L13 28L14 28L14 30L13 30L13 29L12 29L12 28L11 28L11 29L12 29L12 30L10 30L10 29L9 29L9 30L10 30L10 32L9 32L9 31L8 31L8 32L6 32L6 31L7 31L7 30L6 30L6 29L7 29L7 28L6 28L6 27L7 27L7 26L5 26L5 28L6 28L6 29L4 29L4 28L3 28L3 29L4 29L4 30L2 30L2 29L1 29L1 27L0 27L0 33L1 33L1 30L2 30L2 33L3 33L3 31L4 31L4 32L5 32L5 33L8 33L8 34L9 34L9 33L10 33L10 36L8 36L8 39L9 39L9 41L13 41L13 40L15 40L15 41L16 41L16 40L15 40L15 39L16 39L16 38L17 38L17 40L18 40L18 38L20 38L20 34L19 34L19 36L18 36L18 35L17 35L17 33L19 33L19 32L18 32L18 31L17 31L17 33L16 33L16 32L15 32L15 31L16 31L16 30L17 30L17 29L19 29L19 28L20 28L20 29L21 29L21 30L19 30L19 31L20 31L20 33L21 33L21 32L22 32L22 34L21 34L21 40L22 40L22 41L24 41L24 40L23 40L23 39L26 39L26 41L27 41L27 40L28 40L28 39L29 39L29 38L30 38L30 39L31 39L31 40L33 40L33 41L34 41L34 40L33 40L33 39L32 39L32 38L34 38L34 39L35 39L35 40L36 40L36 39L37 39L37 40L40 40L40 38L41 38L41 37L39 37L39 36L37 36L37 34L38 34L38 33L39 33L39 35L40 35L40 34L41 34L41 33L39 33L39 32L41 32L41 31L40 31L40 30L41 30L41 28L39 28L39 30L38 30L38 29L36 29L36 28L35 28L35 29L36 29L36 31L37 31L37 30L38 30L38 31L39 31L39 32L33 32L33 31L32 31L32 30L33 30L33 29L34 29L34 28L33 28L33 27L34 27L34 26L35 26L35 27L37 27L37 28L38 28L38 26L39 26L39 27L40 27L40 26L41 26L41 23L39 23L39 22L38 22L38 23L39 23L39 24L40 24L40 26L39 26L39 25L36 25L36 24L37 24L37 21L39 21L39 20L36 20L36 19L35 19L35 17L36 17L36 18L37 18L37 19L38 19L38 17L39 17L39 18L41 18L41 16L40 16L40 17L39 17L39 16L37 16L37 15L38 15L38 13L36 13L36 14L35 14L35 17L34 17L34 16L33 16L33 17L31 17L31 16L29 16L29 15L31 15L31 12L29 12L29 13L28 13L28 12L27 12L27 11L28 11L28 10L29 10L29 9L31 9L31 10L32 10L32 13L33 13L33 14L32 14L32 15L34 15L34 13L35 13L35 12L38 12L38 11L40 11L40 10L41 10L41 8L38 8L38 9L40 9L40 10L37 10L37 9L36 9L36 8L33 8L33 9L31 9L31 8L32 8L32 7L33 7L33 6L32 6L32 7L31 7L31 5L32 5L32 4L33 4L33 2L30 2L30 0L29 0L29 1L27 1L27 0L26 0L26 1L27 1L27 2L26 2L26 3L28 3L28 4L29 4L29 3L32 3L32 4L30 4L30 5L29 5L29 6L28 6L28 5L27 5L27 4L23 4L23 3L25 3L25 2L21 2L21 0L19 0L19 1L20 1L20 2L18 2L18 3L19 3L19 4L17 4L17 3L16 3L16 2L17 2L17 1L18 1L18 0L15 0L15 3L14 3L14 2L12 2L12 1L14 1L14 0L10 0L10 2L9 2L9 0ZM23 0L23 1L24 1L24 0ZM31 0L31 1L32 1L32 0ZM11 2L11 4L13 4L13 5L9 5L9 9L10 9L10 11L13 11L13 12L14 12L14 14L13 14L13 19L15 19L15 21L16 21L16 23L17 23L17 26L18 26L18 27L16 27L16 26L14 26L14 25L15 25L15 23L14 23L14 24L12 24L12 26L13 26L13 27L14 27L14 28L15 28L15 30L16 30L16 29L17 29L17 28L18 28L18 27L20 27L20 28L22 28L22 27L20 27L20 24L18 24L18 23L21 23L21 22L22 22L22 20L23 20L23 21L24 21L24 20L25 20L25 21L26 21L26 22L29 22L29 23L26 23L26 24L25 24L25 25L26 25L26 26L25 26L25 27L26 27L26 28L25 28L25 29L24 29L24 28L23 28L23 29L22 29L22 32L23 32L23 29L24 29L24 33L23 33L23 34L22 34L22 35L23 35L23 36L22 36L22 37L23 37L23 38L22 38L22 39L23 39L23 38L24 38L24 37L25 37L25 36L28 36L28 35L29 35L29 33L27 33L27 32L26 32L26 33L27 33L27 34L26 34L26 35L25 35L25 29L26 29L26 31L27 31L27 26L28 26L28 25L29 25L29 24L30 24L30 22L31 22L31 23L32 23L32 24L31 24L31 25L30 25L30 26L29 26L29 28L31 28L31 29L28 29L28 30L29 30L29 31L28 31L28 32L30 32L30 33L31 33L31 31L30 31L30 30L32 30L32 29L33 29L33 28L31 28L31 27L33 27L33 26L34 26L34 25L35 25L35 26L36 26L36 25L35 25L35 24L36 24L36 23L35 23L35 22L36 22L36 21L35 21L35 19L34 19L34 18L33 18L33 19L32 19L32 18L31 18L31 17L29 17L29 16L28 16L28 15L29 15L29 14L30 14L30 13L29 13L29 14L27 14L27 12L26 12L26 11L27 11L27 10L28 10L28 9L29 9L29 8L31 8L31 7L30 7L30 6L29 6L29 8L28 8L28 9L27 9L27 8L26 8L26 6L27 6L27 7L28 7L28 6L27 6L27 5L23 5L23 4L21 4L21 7L22 7L22 5L23 5L23 8L20 8L20 10L19 10L19 9L18 9L18 6L19 6L19 7L20 7L20 6L19 6L19 5L20 5L20 4L19 4L19 5L17 5L17 7L16 7L16 6L15 6L15 9L16 9L16 10L15 10L15 11L14 11L14 10L11 10L11 9L12 9L12 8L11 8L11 7L12 7L12 6L13 6L13 8L14 8L14 5L16 5L16 4L13 4L13 3L12 3L12 2ZM10 6L10 7L11 7L11 6ZM24 6L24 7L25 7L25 6ZM10 8L10 9L11 9L11 8ZM24 8L24 9L23 9L23 10L24 10L24 11L22 11L22 9L21 9L21 11L19 11L19 12L20 12L20 15L21 15L21 16L18 16L18 15L17 15L17 16L16 16L16 13L15 13L15 14L14 14L14 15L15 15L15 16L16 16L16 17L15 17L15 18L16 18L16 19L19 19L19 18L20 18L20 17L21 17L21 19L20 19L20 20L16 20L16 21L17 21L17 22L21 22L21 21L20 21L20 20L22 20L22 18L23 18L23 17L22 17L22 16L25 16L25 17L24 17L24 18L25 18L25 19L26 19L26 20L28 20L28 21L29 21L29 22L30 22L30 21L31 21L31 22L32 22L32 23L34 23L34 24L32 24L32 25L31 25L31 26L32 26L32 25L34 25L34 24L35 24L35 23L34 23L34 22L35 22L35 21L34 21L34 20L32 20L32 19L31 19L31 18L30 18L30 19L31 19L31 20L30 20L30 21L29 21L29 20L28 20L28 19L29 19L29 18L25 18L25 17L26 17L26 15L25 15L25 14L24 14L24 13L25 13L25 12L24 12L24 11L25 11L25 10L26 10L26 8ZM24 9L24 10L25 10L25 9ZM0 10L0 11L1 11L1 10ZM5 10L5 12L7 12L7 13L8 13L8 14L7 14L7 15L8 15L8 14L9 14L9 16L10 16L10 15L11 15L11 16L12 16L12 13L10 13L10 12L9 12L9 11L6 11L6 10ZM17 10L17 11L18 11L18 10ZM33 10L33 11L34 11L34 10ZM35 10L35 11L36 11L36 10ZM21 11L21 14L22 14L22 15L23 15L23 14L22 14L22 11ZM1 12L1 13L0 13L0 14L1 14L1 13L2 13L2 12ZM33 12L33 13L34 13L34 12ZM9 13L9 14L10 14L10 13ZM17 13L17 14L18 14L18 13ZM40 13L40 14L39 14L39 15L40 15L40 14L41 14L41 13ZM3 15L3 16L4 16L4 15ZM17 16L17 17L16 17L16 18L19 18L19 17L18 17L18 16ZM36 16L36 17L37 17L37 16ZM1 19L1 21L2 21L2 20L4 20L4 21L3 21L3 22L4 22L4 23L3 23L3 24L2 24L2 25L3 25L3 24L4 24L4 23L5 23L5 24L7 24L7 23L5 23L5 19ZM6 19L6 20L7 20L7 19ZM31 20L31 21L32 21L32 22L34 22L34 21L32 21L32 20ZM40 20L40 21L41 21L41 20ZM23 22L23 24L24 24L24 23L25 23L25 22ZM27 24L27 25L28 25L28 24ZM18 25L18 26L19 26L19 25ZM22 25L22 26L23 26L23 27L24 27L24 25ZM4 30L4 31L6 31L6 30ZM34 30L34 31L35 31L35 30ZM11 31L11 32L10 32L10 33L11 33L11 32L12 32L12 31ZM14 32L14 34L13 34L13 33L12 33L12 34L11 34L11 35L12 35L12 34L13 34L13 35L14 35L14 36L16 36L16 37L15 37L15 38L16 38L16 37L17 37L17 38L18 38L18 36L16 36L16 35L14 35L14 34L16 34L16 33L15 33L15 32ZM33 33L33 36L36 36L36 33ZM23 34L23 35L24 35L24 34ZM27 34L27 35L28 35L28 34ZM30 34L30 35L31 35L31 36L29 36L29 37L26 37L26 38L29 38L29 37L31 37L31 38L32 38L32 35L31 35L31 34ZM34 34L34 35L35 35L35 34ZM11 36L11 37L13 37L13 38L11 38L11 40L12 40L12 39L14 39L14 37L13 37L13 36ZM9 37L9 39L10 39L10 37ZM34 37L34 38L36 38L36 37ZM37 38L37 39L38 39L38 38ZM29 40L29 41L30 41L30 40ZM0 0L0 7L7 7L7 0ZM1 1L1 6L6 6L6 1ZM2 2L2 5L5 5L5 2ZM34 0L34 7L41 7L41 0ZM35 1L35 6L40 6L40 1ZM36 2L36 5L39 5L39 2ZM0 34L0 41L7 41L7 34ZM1 35L1 40L6 40L6 35ZM2 36L2 39L5 39L5 36Z" fill="#000000"/></g></g></svg>
