<?xml version="1.0" encoding="UTF-8"?>
<svg xmlns="http://www.w3.org/2000/svg" version="1.1" width="200" height="200" viewBox="0 0 200 200"><rect x="0" y="0" width="200" height="200" fill="#ffffff"/><g transform="scale(4.878)"><g transform="translate(0,0)"><path fill-rule="evenodd" d="M8 0L8 2L9 2L9 3L8 3L8 7L9 7L9 8L10 8L10 10L9 10L9 9L7 9L7 8L6 8L6 9L4 9L4 8L3 8L3 10L1 10L1 12L2 12L2 14L1 14L1 13L0 13L0 17L1 17L1 20L4 20L4 21L3 21L3 22L4 22L4 21L7 21L7 20L6 20L6 19L9 19L9 20L13 20L13 21L10 21L10 22L12 22L12 23L9 23L9 22L8 22L8 25L7 25L7 24L6 24L6 23L7 23L7 22L6 22L6 23L5 23L5 24L6 24L6 25L7 25L7 26L5 26L5 25L4 25L4 23L2 23L2 24L1 24L1 23L0 23L0 24L1 24L1 25L0 25L0 27L2 27L2 26L1 26L1 25L4 25L4 26L3 26L3 27L4 27L4 29L3 29L3 30L4 30L4 32L3 32L3 31L2 31L2 33L8 33L8 34L9 34L9 35L10 35L10 36L9 36L9 37L8 37L8 38L9 38L9 37L12 37L12 38L10 38L10 39L12 39L12 40L11 40L11 41L13 41L13 39L14 39L14 40L15 40L15 41L18 41L18 38L19 38L19 39L20 39L20 40L21 40L21 41L22 41L22 39L23 39L23 40L24 40L24 39L23 39L23 38L25 38L25 37L24 37L24 35L25 35L25 36L26 36L26 32L30 32L30 34L28 34L28 35L29 35L29 36L28 36L28 37L29 37L29 41L30 41L30 37L29 37L29 36L30 36L30 34L31 34L31 33L32 33L32 35L31 35L31 36L32 36L32 37L31 37L31 38L32 38L32 37L34 37L34 38L36 38L36 40L37 40L37 41L40 41L40 39L41 39L41 38L40 38L40 37L41 37L41 35L40 35L40 37L38 37L38 36L39 36L39 35L37 35L37 33L39 33L39 34L41 34L41 29L40 29L40 28L41 28L41 26L40 26L40 28L37 28L37 30L36 30L36 31L34 31L34 30L32 30L32 29L33 29L33 27L32 27L32 28L31 28L31 27L30 27L30 26L32 26L32 24L33 24L33 26L34 26L34 27L35 27L35 29L36 29L36 24L35 24L35 23L37 23L37 24L38 24L38 25L37 25L37 27L38 27L38 26L39 26L39 25L40 25L40 24L41 24L41 23L40 23L40 22L39 22L39 23L37 23L37 22L38 22L38 21L40 21L40 20L41 20L41 16L39 16L39 17L37 17L37 19L36 19L36 21L35 21L35 19L34 19L34 18L35 18L35 17L36 17L36 15L37 15L37 16L38 16L38 15L41 15L41 14L40 14L40 13L41 13L41 12L40 12L40 11L38 11L38 13L37 13L37 14L36 14L36 13L34 13L34 12L36 12L36 10L35 10L35 9L37 9L37 10L38 10L38 8L35 8L35 9L33 9L33 6L32 6L32 5L33 5L33 0L31 0L31 1L30 1L30 0L27 0L27 2L26 2L26 3L25 3L25 0L24 0L24 1L23 1L23 2L24 2L24 4L23 4L23 3L22 3L22 2L19 2L19 1L21 1L21 0L19 0L19 1L18 1L18 3L19 3L19 6L18 6L18 7L19 7L19 6L20 6L20 7L21 7L21 4L20 4L20 3L22 3L22 5L24 5L24 8L23 8L23 6L22 6L22 8L20 8L20 10L19 10L19 9L18 9L18 10L19 10L19 13L18 13L18 11L17 11L17 10L16 10L16 11L15 11L15 10L14 10L14 8L13 8L13 6L14 6L14 7L15 7L15 9L17 9L17 8L16 8L16 7L17 7L17 6L16 6L16 7L15 7L15 6L14 6L14 4L15 4L15 3L17 3L17 0L14 0L14 1L13 1L13 2L12 2L12 0L10 0L10 1L9 1L9 0ZM10 1L10 3L9 3L9 5L10 5L10 6L9 6L9 7L10 7L10 8L12 8L12 6L13 6L13 5L12 5L12 2L11 2L11 1ZM14 1L14 3L15 3L15 2L16 2L16 1ZM28 1L28 2L27 2L27 3L26 3L26 4L25 4L25 7L26 7L26 6L27 6L27 9L25 9L25 8L24 8L24 9L23 9L23 11L24 11L24 13L25 13L25 12L26 12L26 14L25 14L25 15L21 15L21 13L22 13L22 14L23 14L23 12L21 12L21 13L20 13L20 15L19 15L19 14L18 14L18 13L13 13L13 14L12 14L12 15L11 15L11 13L10 13L10 11L8 11L8 12L7 12L7 11L5 11L5 10L4 10L4 11L2 11L2 12L3 12L3 13L4 13L4 14L3 14L3 15L2 15L2 16L1 16L1 17L2 17L2 19L5 19L5 17L6 17L6 18L9 18L9 19L12 19L12 17L14 17L14 18L13 18L13 20L14 20L14 22L13 22L13 23L12 23L12 24L11 24L11 25L12 25L12 26L11 26L11 27L9 27L9 29L6 29L6 28L8 28L8 26L9 26L9 25L10 25L10 24L9 24L9 25L8 25L8 26L7 26L7 27L6 27L6 28L5 28L5 29L6 29L6 30L5 30L5 32L7 32L7 31L8 31L8 30L9 30L9 31L10 31L10 32L8 32L8 33L10 33L10 35L13 35L13 33L14 33L14 35L18 35L18 33L20 33L20 34L21 34L21 36L22 36L22 34L21 34L21 33L23 33L23 35L24 35L24 34L25 34L25 32L24 32L24 29L23 29L23 30L22 30L22 31L21 31L21 30L20 30L20 29L21 29L21 28L23 28L23 25L24 25L24 27L26 27L26 28L25 28L25 29L26 29L26 30L25 30L25 31L29 31L29 30L31 30L31 28L30 28L30 29L28 29L28 26L30 26L30 25L28 25L28 24L30 24L30 22L29 22L29 20L28 20L28 18L29 18L29 19L30 19L30 17L29 17L29 16L28 16L28 15L27 15L27 13L28 13L28 14L29 14L29 13L28 13L28 11L29 11L29 12L30 12L30 11L31 11L31 13L30 13L30 16L31 16L31 15L32 15L32 16L33 16L33 17L31 17L31 22L32 22L32 23L33 23L33 22L34 22L34 23L35 23L35 22L34 22L34 19L32 19L32 18L33 18L33 17L35 17L35 15L36 15L36 14L35 14L35 15L34 15L34 14L33 14L33 11L31 11L31 10L33 10L33 9L32 9L32 8L31 8L31 7L32 7L32 6L31 6L31 7L30 7L30 6L29 6L29 5L30 5L30 4L28 4L28 3L30 3L30 1ZM31 1L31 3L32 3L32 1ZM10 4L10 5L11 5L11 4ZM16 4L16 5L17 5L17 4ZM27 4L27 6L28 6L28 7L29 7L29 8L30 8L30 9L29 9L29 11L30 11L30 10L31 10L31 8L30 8L30 7L29 7L29 6L28 6L28 4ZM31 4L31 5L32 5L32 4ZM10 6L10 7L11 7L11 6ZM39 8L39 9L40 9L40 10L41 10L41 8ZM6 9L6 10L7 10L7 9ZM11 9L11 10L12 10L12 11L13 11L13 10L12 10L12 9ZM21 9L21 10L20 10L20 11L21 11L21 10L22 10L22 9ZM24 10L24 11L26 11L26 12L27 12L27 11L26 11L26 10ZM14 11L14 12L15 12L15 11ZM4 12L4 13L5 13L5 15L4 15L4 16L5 16L5 15L7 15L7 16L6 16L6 17L8 17L8 15L9 15L9 17L10 17L10 18L11 18L11 16L10 16L10 13L9 13L9 14L8 14L8 15L7 15L7 14L6 14L6 13L7 13L7 12ZM39 12L39 13L38 13L38 14L37 14L37 15L38 15L38 14L39 14L39 13L40 13L40 12ZM15 14L15 15L14 15L14 16L15 16L15 18L14 18L14 19L15 19L15 20L16 20L16 21L15 21L15 23L13 23L13 24L12 24L12 25L13 25L13 26L12 26L12 27L11 27L11 28L10 28L10 29L11 29L11 28L13 28L13 29L12 29L12 30L13 30L13 32L14 32L14 31L17 31L17 32L19 32L19 31L18 31L18 30L19 30L19 29L20 29L20 28L21 28L21 27L22 27L22 25L23 25L23 24L24 24L24 25L25 25L25 26L26 26L26 25L27 25L27 24L28 24L28 23L29 23L29 22L28 22L28 23L27 23L27 20L26 20L26 22L25 22L25 20L24 20L24 18L25 18L25 19L27 19L27 18L25 18L25 17L28 17L28 16L26 16L26 15L25 15L25 16L23 16L23 17L21 17L21 15L20 15L20 19L21 19L21 20L19 20L19 17L17 17L17 18L18 18L18 20L16 20L16 14ZM17 14L17 15L18 15L18 14ZM32 14L32 15L33 15L33 14ZM2 16L2 17L3 17L3 18L4 18L4 17L3 17L3 16ZM21 18L21 19L23 19L23 18ZM38 18L38 19L37 19L37 20L40 20L40 19L39 19L39 18ZM18 20L18 21L19 21L19 20ZM32 20L32 21L33 21L33 20ZM1 21L1 22L2 22L2 21ZM20 21L20 22L21 22L21 21ZM36 21L36 22L37 22L37 21ZM16 22L16 23L15 23L15 24L14 24L14 25L15 25L15 24L16 24L16 25L17 25L17 26L15 26L15 28L14 28L14 27L13 27L13 28L14 28L14 30L15 30L15 28L16 28L16 30L17 30L17 26L18 26L18 27L20 27L20 26L19 26L19 25L21 25L21 24L18 24L18 23L19 23L19 22ZM22 22L22 24L23 24L23 22ZM16 23L16 24L17 24L17 23ZM24 23L24 24L25 24L25 25L26 25L26 24L27 24L27 23ZM34 25L34 26L35 26L35 25ZM0 28L0 29L1 29L1 30L0 30L0 31L1 31L1 30L2 30L2 28ZM26 28L26 29L27 29L27 30L28 30L28 29L27 29L27 28ZM6 30L6 31L7 31L7 30ZM10 30L10 31L11 31L11 32L12 32L12 31L11 31L11 30ZM39 30L39 31L36 31L36 32L39 32L39 33L40 33L40 32L39 32L39 31L40 31L40 30ZM22 31L22 32L23 32L23 31ZM33 31L33 32L34 32L34 31ZM0 32L0 33L1 33L1 32ZM15 32L15 34L16 34L16 32ZM20 32L20 33L21 33L21 32ZM11 33L11 34L12 34L12 33ZM33 33L33 36L36 36L36 33ZM34 34L34 35L35 35L35 34ZM12 36L12 37L15 37L15 38L16 38L16 39L15 39L15 40L17 40L17 38L18 38L18 37L19 37L19 38L20 38L20 39L21 39L21 38L20 38L20 36L18 36L18 37L16 37L16 36ZM26 37L26 39L25 39L25 40L26 40L26 41L27 41L27 40L28 40L28 39L27 39L27 37ZM36 37L36 38L37 38L37 40L38 40L38 38L37 38L37 37ZM12 38L12 39L13 39L13 38ZM39 38L39 39L40 39L40 38ZM26 39L26 40L27 40L27 39ZM32 39L32 40L31 40L31 41L33 41L33 39ZM0 0L0 7L7 7L7 0ZM1 1L1 6L6 6L6 1ZM2 2L2 5L5 5L5 2ZM34 0L34 7L41 7L41 0ZM35 1L35 6L40 6L40 1ZM36 2L36 5L39 5L39 2ZM0 34L0 41L7 41L7 34ZM1 35L1 40L6 40L6 35ZM2 36L2 39L5 39L5 36Z" fill="#000000"/></g></g></svg>
