<?xml version="1.0" encoding="UTF-8"?>
<svg xmlns="http://www.w3.org/2000/svg" version="1.1" width="200" height="200" viewBox="0 0 200 200"><rect x="0" y="0" width="200" height="200" fill="#ffffff"/><g transform="scale(4.878)"><g transform="translate(0,0)"><path fill-rule="evenodd" d="M8 0L8 3L10 3L10 4L11 4L11 3L10 3L10 0ZM11 0L11 1L12 1L12 3L14 3L14 4L13 4L13 5L15 5L15 4L16 4L16 3L14 3L14 1L15 1L15 2L17 2L17 3L19 3L19 4L20 4L20 5L19 5L19 6L18 6L18 4L17 4L17 6L16 6L16 7L15 7L15 6L14 6L14 8L13 8L13 6L12 6L12 5L10 5L10 7L11 7L11 8L13 8L13 9L11 9L11 11L12 11L12 15L11 15L11 16L13 16L13 17L12 17L12 18L14 18L14 19L11 19L11 18L8 18L8 17L9 17L9 16L10 16L10 13L11 13L11 12L9 12L9 11L10 11L10 9L9 9L9 5L8 5L8 9L7 9L7 8L6 8L6 9L7 9L7 10L5 10L5 8L2 8L2 9L4 9L4 10L1 10L1 9L0 9L0 12L1 12L1 11L5 11L5 13L3 13L3 12L2 12L2 14L4 14L4 15L3 15L3 16L2 16L2 15L1 15L1 13L0 13L0 15L1 15L1 17L0 17L0 20L1 20L1 21L2 21L2 20L5 20L5 22L1 22L1 23L3 23L3 24L2 24L2 25L3 25L3 26L1 26L1 24L0 24L0 26L1 26L1 27L0 27L0 28L1 28L1 29L0 29L0 33L1 33L1 29L2 29L2 33L3 33L3 32L4 32L4 33L8 33L8 34L9 34L9 32L10 32L10 35L9 35L9 36L8 36L8 39L9 39L9 40L10 40L10 39L11 39L11 41L18 41L18 40L19 40L19 39L20 39L20 41L21 41L21 40L23 40L23 41L26 41L26 40L27 40L27 41L28 41L28 39L30 39L30 40L29 40L29 41L30 41L30 40L33 40L33 41L34 41L34 40L33 40L33 39L35 39L35 40L36 40L36 39L37 39L37 40L40 40L40 38L41 38L41 36L40 36L40 34L41 34L41 33L40 33L40 30L41 30L41 29L39 29L39 32L37 32L37 29L36 29L36 28L38 28L38 26L39 26L39 27L40 27L40 28L41 28L41 27L40 27L40 26L41 26L41 23L39 23L39 24L40 24L40 26L39 26L39 25L31 25L31 24L35 24L35 23L36 23L36 24L37 24L37 23L38 23L38 22L37 22L37 21L39 21L39 20L36 20L36 19L35 19L35 17L36 17L36 18L38 18L38 17L39 17L39 16L37 16L37 17L36 17L36 16L35 16L35 17L34 17L34 16L32 16L32 17L30 17L30 16L29 16L29 15L28 15L28 16L29 16L29 17L30 17L30 19L31 19L31 20L30 20L30 21L31 21L31 22L33 22L33 21L34 21L34 22L35 22L35 23L31 23L31 24L28 24L28 23L29 23L29 22L27 22L27 21L29 21L29 19L28 19L28 18L26 18L26 19L25 19L25 18L24 18L24 14L23 14L23 13L22 13L22 16L21 16L21 15L19 15L19 14L20 14L20 13L21 13L21 12L22 12L22 10L23 10L23 12L24 12L24 13L26 13L26 11L27 11L27 14L29 14L29 13L30 13L30 14L31 14L31 12L32 12L32 13L33 13L33 14L32 14L32 15L34 15L34 13L35 13L35 12L38 12L38 11L40 11L40 12L39 12L39 13L40 13L40 14L39 14L39 15L40 15L40 14L41 14L41 13L40 13L40 12L41 12L41 11L40 11L40 10L41 10L41 8L38 8L38 9L40 9L40 10L37 10L37 9L36 9L36 8L33 8L33 9L31 9L31 5L32 5L32 7L33 7L33 5L32 5L32 4L33 4L33 1L32 1L32 0L31 0L31 1L32 1L32 2L30 2L30 0L29 0L29 1L27 1L27 0L26 0L26 1L27 1L27 2L26 2L26 3L28 3L28 4L29 4L29 3L32 3L32 4L30 4L30 5L27 5L27 4L26 4L26 9L25 9L25 8L23 8L23 6L22 6L22 5L24 5L24 7L25 7L25 0L23 0L23 1L22 1L22 4L21 4L21 3L19 3L19 2L20 2L20 1L21 1L21 0L20 0L20 1L19 1L19 2L17 2L17 1L15 1L15 0L13 0L13 1L12 1L12 0ZM23 3L23 4L24 4L24 3ZM20 5L20 6L19 6L19 8L20 8L20 9L19 9L19 11L18 11L18 12L19 12L19 13L18 13L18 14L17 14L17 15L15 15L15 14L16 14L16 13L17 13L17 11L16 11L16 13L15 13L15 12L14 12L14 13L13 13L13 14L14 14L14 15L13 15L13 16L14 16L14 15L15 15L15 16L17 16L17 17L18 17L18 18L17 18L17 19L16 19L16 20L17 20L17 19L18 19L18 18L19 18L19 19L20 19L20 20L19 20L19 21L16 21L16 22L15 22L15 23L12 23L12 24L11 24L11 25L9 25L9 26L8 26L8 27L6 27L6 26L7 26L7 25L6 25L6 24L10 24L10 22L12 22L12 20L11 20L11 21L9 21L9 22L7 22L7 21L6 21L6 22L7 22L7 23L6 23L6 24L5 24L5 25L4 25L4 26L3 26L3 27L1 27L1 28L4 28L4 29L3 29L3 30L5 30L5 32L7 32L7 31L6 31L6 30L7 30L7 29L8 29L8 30L9 30L9 31L8 31L8 32L9 32L9 31L10 31L10 32L11 32L11 34L12 34L12 35L10 35L10 36L9 36L9 37L10 37L10 38L9 38L9 39L10 39L10 38L13 38L13 39L14 39L14 40L15 40L15 38L16 38L16 39L17 39L17 40L18 40L18 39L17 39L17 38L18 38L18 37L17 37L17 38L16 38L16 36L17 36L17 35L18 35L18 34L19 34L19 32L17 32L17 31L18 31L18 30L19 30L19 29L18 29L18 30L17 30L17 29L16 29L16 28L15 28L15 27L14 27L14 28L15 28L15 30L14 30L14 29L13 29L13 31L14 31L14 32L13 32L13 33L12 33L12 31L11 31L11 30L12 30L12 29L11 29L11 27L13 27L13 26L15 26L15 25L16 25L16 24L15 24L15 23L17 23L17 26L16 26L16 27L18 27L18 28L19 28L19 27L20 27L20 30L21 30L21 31L22 31L22 32L20 32L20 35L19 35L19 36L21 36L21 37L20 37L20 38L21 38L21 39L23 39L23 40L25 40L25 39L26 39L26 35L27 35L27 34L28 34L28 33L29 33L29 32L30 32L30 31L31 31L31 30L32 30L32 31L33 31L33 32L35 32L35 31L34 31L34 30L36 30L36 29L35 29L35 28L36 28L36 27L35 27L35 26L34 26L34 27L32 27L32 26L31 26L31 25L30 25L30 26L29 26L29 25L27 25L27 22L26 22L26 21L27 21L27 20L28 20L28 19L27 19L27 20L24 20L24 18L22 18L22 17L21 17L21 18L20 18L20 17L19 17L19 16L18 16L18 14L19 14L19 13L20 13L20 12L21 12L21 11L20 11L20 9L21 9L21 8L20 8L20 6L21 6L21 7L22 7L22 6L21 6L21 5ZM11 6L11 7L12 7L12 6ZM17 6L17 8L16 8L16 9L15 9L15 8L14 8L14 9L15 9L15 10L14 10L14 11L15 11L15 10L18 10L18 9L17 9L17 8L18 8L18 6ZM27 6L27 7L28 7L28 6ZM29 6L29 8L30 8L30 6ZM22 8L22 9L23 9L23 10L24 10L24 12L25 12L25 9L23 9L23 8ZM8 9L8 10L7 10L7 11L6 11L6 12L7 12L7 13L5 13L5 15L6 15L6 16L5 16L5 17L4 17L4 18L1 18L1 20L2 20L2 19L4 19L4 18L5 18L5 20L8 20L8 18L7 18L7 17L8 17L8 16L9 16L9 12L7 12L7 11L8 11L8 10L9 10L9 9ZM26 9L26 10L28 10L28 13L29 13L29 12L30 12L30 11L32 11L32 12L33 12L33 13L34 13L34 12L33 12L33 11L34 11L34 9L33 9L33 10L31 10L31 9ZM35 9L35 10L36 10L36 9ZM29 10L29 11L30 11L30 10ZM36 13L36 14L35 14L35 15L37 15L37 13ZM6 14L6 15L7 15L7 14ZM25 14L25 15L26 15L26 14ZM6 16L6 17L7 17L7 16ZM26 16L26 17L27 17L27 16ZM40 16L40 18L39 18L39 19L40 19L40 18L41 18L41 16ZM14 17L14 18L15 18L15 17ZM32 17L32 18L31 18L31 19L32 19L32 20L31 20L31 21L33 21L33 20L34 20L34 21L35 21L35 22L36 22L36 21L35 21L35 19L34 19L34 18L33 18L33 17ZM6 18L6 19L7 19L7 18ZM21 18L21 20L22 20L22 21L24 21L24 22L21 22L21 24L23 24L23 23L24 23L24 22L25 22L25 24L24 24L24 25L25 25L25 26L24 26L24 27L26 27L26 25L25 25L25 24L26 24L26 22L25 22L25 21L24 21L24 20L23 20L23 19L22 19L22 18ZM14 20L14 21L15 21L15 20ZM40 20L40 21L41 21L41 20ZM17 22L17 23L20 23L20 22ZM13 24L13 25L11 25L11 26L13 26L13 25L14 25L14 24ZM18 24L18 26L20 26L20 25L19 25L19 24ZM5 25L5 26L4 26L4 28L5 28L5 29L7 29L7 28L5 28L5 26L6 26L6 25ZM22 25L22 26L21 26L21 29L22 29L22 30L23 30L23 31L24 31L24 32L22 32L22 33L23 33L23 34L21 34L21 35L23 35L23 36L22 36L22 38L23 38L23 39L25 39L25 38L23 38L23 37L24 37L24 36L25 36L25 35L26 35L26 34L25 34L25 35L24 35L24 32L25 32L25 33L26 33L26 32L25 32L25 31L27 31L27 33L28 33L28 31L29 31L29 30L28 30L28 29L30 29L30 30L31 30L31 29L30 29L30 28L27 28L27 30L25 30L25 28L23 28L23 27L22 27L22 26L23 26L23 25ZM27 26L27 27L29 27L29 26ZM8 27L8 28L9 28L9 27ZM31 27L31 28L32 28L32 27ZM33 28L33 29L32 29L32 30L33 30L33 29L34 29L34 28ZM15 30L15 32L16 32L16 31L17 31L17 30ZM24 30L24 31L25 31L25 30ZM30 33L30 35L31 35L31 34L32 34L32 33ZM33 33L33 36L36 36L36 33ZM37 33L37 35L38 35L38 36L37 36L37 37L38 37L38 36L39 36L39 34L38 34L38 33ZM34 34L34 35L35 35L35 34ZM14 35L14 37L15 37L15 35ZM28 35L28 36L27 36L27 38L28 38L28 37L29 37L29 38L30 38L30 37L32 37L32 36L29 36L29 35ZM11 36L11 37L12 37L12 36ZM33 37L33 38L31 38L31 39L33 39L33 38L36 38L36 37ZM37 38L37 39L38 39L38 38ZM0 0L0 7L7 7L7 0ZM1 1L1 6L6 6L6 1ZM2 2L2 5L5 5L5 2ZM34 0L34 7L41 7L41 0ZM35 1L35 6L40 6L40 1ZM36 2L36 5L39 5L39 2ZM0 34L0 41L7 41L7 34ZM1 35L1 40L6 40L6 35ZM2 36L2 39L5 39L5 36Z" fill="#000000"/></g></g></svg>
