<?xml version="1.0" encoding="UTF-8"?>
<svg xmlns="http://www.w3.org/2000/svg" version="1.1" width="200" height="200" viewBox="0 0 200 200"><rect x="0" y="0" width="200" height="200" fill="#ffffff"/><g transform="scale(6.897)"><g transform="translate(0,0)"><path fill-rule="evenodd" d="M8 0L8 3L10 3L10 4L9 4L9 5L8 5L8 9L9 9L9 10L8 10L8 11L9 11L9 10L10 10L10 11L11 11L11 10L12 10L12 12L10 12L10 14L9 14L9 13L8 13L8 12L6 12L6 13L8 13L8 14L6 14L6 15L5 15L5 11L7 11L7 10L5 10L5 11L4 11L4 12L3 12L3 11L0 11L0 13L1 13L1 17L0 17L0 21L1 21L1 18L2 18L2 20L3 20L3 21L4 21L4 20L5 20L5 21L8 21L8 22L9 22L9 21L8 21L8 20L5 20L5 19L8 19L8 18L11 18L11 17L13 17L13 18L12 18L12 19L14 19L14 20L13 20L13 22L12 22L12 21L10 21L10 22L11 22L11 24L8 24L8 27L9 27L9 29L11 29L11 28L13 28L13 29L15 29L15 28L14 28L14 26L15 26L15 27L17 27L17 29L25 29L25 27L27 27L27 29L28 29L28 28L29 28L29 27L28 27L28 25L29 25L29 24L28 24L28 23L27 23L27 22L28 22L28 21L29 21L29 20L28 20L28 19L27 19L27 17L28 17L28 10L29 10L29 8L26 8L26 9L27 9L27 10L25 10L25 12L24 12L24 11L22 11L22 12L23 12L23 13L21 13L21 15L22 15L22 14L23 14L23 13L24 13L24 20L23 20L23 19L22 19L22 18L20 18L20 19L21 19L21 20L20 20L20 25L19 25L19 26L16 26L16 25L18 25L18 24L19 24L19 23L18 23L18 22L19 22L19 20L18 20L18 19L19 19L19 18L15 18L15 19L14 19L14 17L15 17L15 16L14 16L14 15L15 15L15 14L16 14L16 16L17 16L17 17L19 17L19 16L18 16L18 15L19 15L19 14L18 14L18 13L20 13L20 12L21 12L21 11L20 11L20 10L22 10L22 9L23 9L23 10L24 10L24 8L21 8L21 5L20 5L20 4L21 4L21 3L20 3L20 4L19 4L19 3L18 3L18 4L15 4L15 2L16 2L16 3L17 3L17 1L16 1L16 0L15 0L15 2L12 2L12 1L11 1L11 2L10 2L10 0ZM18 1L18 2L19 2L19 1ZM20 1L20 2L21 2L21 1ZM11 2L11 4L10 4L10 5L9 5L9 9L10 9L10 10L11 10L11 9L10 9L10 8L11 8L11 7L12 7L12 6L11 6L11 4L12 4L12 5L13 5L13 7L14 7L14 6L15 6L15 7L16 7L16 8L14 8L14 9L13 9L13 8L12 8L12 10L15 10L15 11L13 11L13 13L15 13L15 12L19 12L19 10L20 10L20 9L21 9L21 8L20 8L20 9L19 9L19 8L17 8L17 7L18 7L18 6L19 6L19 7L20 7L20 6L19 6L19 5L18 5L18 6L17 6L17 7L16 7L16 5L14 5L14 3L12 3L12 2ZM10 6L10 7L11 7L11 6ZM2 8L2 9L3 9L3 10L4 10L4 9L5 9L5 8ZM6 8L6 9L7 9L7 8ZM16 8L16 9L15 9L15 10L16 10L16 11L17 11L17 10L19 10L19 9L17 9L17 8ZM0 9L0 10L1 10L1 9ZM16 9L16 10L17 10L17 9ZM25 12L25 13L26 13L26 14L27 14L27 12ZM2 13L2 14L3 14L3 15L4 15L4 16L5 16L5 17L2 17L2 18L4 18L4 19L3 19L3 20L4 20L4 19L5 19L5 17L6 17L6 18L7 18L7 17L6 17L6 16L7 16L7 15L6 15L6 16L5 16L5 15L4 15L4 14L3 14L3 13ZM11 13L11 14L10 14L10 15L12 15L12 16L13 16L13 17L14 17L14 16L13 16L13 15L14 15L14 14L12 14L12 13ZM16 13L16 14L17 14L17 13ZM8 15L8 16L9 16L9 17L10 17L10 16L9 16L9 15ZM25 15L25 16L27 16L27 15ZM20 16L20 17L22 17L22 16ZM25 18L25 19L26 19L26 18ZM9 19L9 20L10 20L10 19ZM15 20L15 21L14 21L14 22L15 22L15 23L14 23L14 25L13 25L13 23L12 23L12 25L13 25L13 26L12 26L12 27L13 27L13 26L14 26L14 25L16 25L16 24L18 24L18 23L17 23L17 22L18 22L18 21L16 21L16 20ZM25 20L25 21L26 21L26 22L25 22L25 24L26 24L26 25L25 25L25 26L24 26L24 25L22 25L22 26L23 26L23 27L25 27L25 26L27 26L27 23L26 23L26 22L27 22L27 21L28 21L28 20ZM15 21L15 22L16 22L16 21ZM21 21L21 24L24 24L24 21ZM22 22L22 23L23 23L23 22ZM15 23L15 24L16 24L16 23ZM10 25L10 26L9 26L9 27L10 27L10 26L11 26L11 25ZM20 26L20 27L19 27L19 28L22 28L22 27L21 27L21 26ZM0 0L0 7L7 7L7 0ZM1 1L1 6L6 6L6 1ZM2 2L2 5L5 5L5 2ZM22 0L22 7L29 7L29 0ZM23 1L23 6L28 6L28 1ZM24 2L24 5L27 5L27 2ZM0 22L0 29L7 29L7 22ZM1 23L1 28L6 28L6 23ZM2 24L2 27L5 27L5 24Z" fill="#000000"/></g></g></svg>
