<?xml version="1.0" encoding="UTF-8"?>
<svg xmlns="http://www.w3.org/2000/svg" version="1.1" width="200" height="200" viewBox="0 0 200 200"><rect x="0" y="0" width="200" height="200" fill="#ffffff"/><g transform="scale(6.897)"><g transform="translate(0,0)"><path fill-rule="evenodd" d="M8 0L8 1L9 1L9 3L8 3L8 4L9 4L9 5L10 5L10 8L8 8L8 10L6 10L6 11L9 11L9 10L11 10L11 11L13 11L13 12L11 12L11 13L10 13L10 12L9 12L9 13L10 13L10 15L11 15L11 13L12 13L12 14L14 14L14 13L15 13L15 14L17 14L17 13L19 13L19 14L20 14L20 15L19 15L19 16L18 16L18 15L12 15L12 16L10 16L10 17L9 17L9 18L8 18L8 19L11 19L11 21L12 21L12 22L11 22L11 25L12 25L12 26L10 26L10 24L9 24L9 23L8 23L8 25L9 25L9 26L8 26L8 27L9 27L9 28L10 28L10 29L11 29L11 28L12 28L12 27L13 27L13 29L14 29L14 27L13 27L13 26L14 26L14 25L12 25L12 24L14 24L14 23L12 23L12 22L15 22L15 24L16 24L16 25L18 25L18 24L17 24L17 23L18 23L18 22L17 22L17 21L18 21L18 20L20 20L20 21L19 21L19 22L20 22L20 23L19 23L19 24L20 24L20 26L19 26L19 28L18 28L18 26L16 26L16 28L15 28L15 29L16 29L16 28L17 28L17 29L20 29L20 27L21 27L21 26L22 26L22 25L23 25L23 26L24 26L24 25L27 25L27 26L28 26L28 27L27 27L27 28L28 28L28 29L29 29L29 26L28 26L28 25L29 25L29 23L28 23L28 25L27 25L27 24L26 24L26 23L25 23L25 20L26 20L26 21L27 21L27 22L28 22L28 19L29 19L29 18L27 18L27 17L26 17L26 14L24 14L24 13L25 13L25 11L26 11L26 13L27 13L27 15L28 15L28 13L29 13L29 12L28 12L28 11L29 11L29 8L28 8L28 9L27 9L27 10L28 10L28 11L26 11L26 8L25 8L25 9L24 9L24 10L25 10L25 11L24 11L24 12L23 12L23 10L22 10L22 8L19 8L19 11L20 11L20 12L18 12L18 10L17 10L17 8L16 8L16 7L17 7L17 5L18 5L18 7L19 7L19 5L20 5L20 7L21 7L21 0L20 0L20 1L19 1L19 2L20 2L20 3L19 3L19 5L18 5L18 3L16 3L16 2L18 2L18 1L16 1L16 2L14 2L14 1L15 1L15 0L12 0L12 1L11 1L11 0L10 0L10 1L9 1L9 0ZM10 1L10 2L11 2L11 1ZM13 2L13 5L11 5L11 4L10 4L10 5L11 5L11 7L12 7L12 8L11 8L11 9L12 9L12 10L13 10L13 11L14 11L14 10L13 10L13 9L12 9L12 8L13 8L13 7L14 7L14 6L13 6L13 5L14 5L14 2ZM15 3L15 7L16 7L16 5L17 5L17 4L16 4L16 3ZM8 6L8 7L9 7L9 6ZM12 6L12 7L13 7L13 6ZM2 8L2 9L1 9L1 10L0 10L0 11L1 11L1 12L2 12L2 13L0 13L0 16L1 16L1 17L2 17L2 16L1 16L1 15L3 15L3 14L2 14L2 13L3 13L3 12L4 12L4 13L5 13L5 14L4 14L4 15L5 15L5 16L4 16L4 18L2 18L2 19L1 19L1 18L0 18L0 19L1 19L1 20L0 20L0 21L1 21L1 20L2 20L2 21L3 21L3 19L5 19L5 20L4 20L4 21L8 21L8 22L9 22L9 21L10 21L10 20L6 20L6 19L7 19L7 18L6 18L6 17L8 17L8 16L6 16L6 15L8 15L8 14L6 14L6 13L8 13L8 12L4 12L4 11L5 11L5 10L4 10L4 9L7 9L7 8L4 8L4 9L3 9L3 8ZM2 9L2 10L3 10L3 9ZM16 10L16 11L15 11L15 12L16 12L16 11L17 11L17 10ZM21 11L21 12L22 12L22 11ZM27 12L27 13L28 13L28 12ZM20 13L20 14L21 14L21 15L20 15L20 16L19 16L19 17L18 17L18 19L20 19L20 20L21 20L21 19L22 19L22 18L23 18L23 19L24 19L24 20L25 20L25 19L24 19L24 18L26 18L26 17L24 17L24 16L25 16L25 15L24 15L24 14L23 14L23 15L22 15L22 14L21 14L21 13ZM23 15L23 16L22 16L22 17L23 17L23 18L24 18L24 17L23 17L23 16L24 16L24 15ZM13 16L13 17L15 17L15 18L12 18L12 19L14 19L14 20L15 20L15 22L16 22L16 23L17 23L17 22L16 22L16 21L17 21L17 19L16 19L16 20L15 20L15 18L17 18L17 17L15 17L15 16ZM28 16L28 17L29 17L29 16ZM10 17L10 18L11 18L11 17ZM19 17L19 18L20 18L20 17ZM5 18L5 19L6 19L6 18ZM12 20L12 21L13 21L13 20ZM21 21L21 24L24 24L24 21ZM22 22L22 23L23 23L23 22ZM25 26L25 28L23 28L23 27L22 27L22 28L23 28L23 29L25 29L25 28L26 28L26 26ZM0 0L0 7L7 7L7 0ZM1 1L1 6L6 6L6 1ZM2 2L2 5L5 5L5 2ZM22 0L22 7L29 7L29 0ZM23 1L23 6L28 6L28 1ZM24 2L24 5L27 5L27 2ZM0 22L0 29L7 29L7 22ZM1 23L1 28L6 28L6 23ZM2 24L2 27L5 27L5 24Z" fill="#000000"/></g></g></svg>
