<?xml version="1.0" encoding="UTF-8"?>
<svg xmlns="http://www.w3.org/2000/svg" version="1.1" width="200" height="200" viewBox="0 0 200 200"><rect x="0" y="0" width="200" height="200" fill="#ffffff"/><g transform="scale(4.878)"><g transform="translate(0,0)"><path fill-rule="evenodd" d="M8 0L8 2L9 2L9 3L8 3L8 7L9 7L9 8L10 8L10 7L11 7L11 9L10 9L10 10L11 10L11 11L12 11L12 12L10 12L10 11L8 11L8 10L9 10L9 9L8 9L8 10L6 10L6 9L7 9L7 8L6 8L6 9L5 9L5 10L6 10L6 11L5 11L5 12L4 12L4 11L2 11L2 13L3 13L3 12L4 12L4 14L5 14L5 12L6 12L6 13L8 13L8 14L10 14L10 15L9 15L9 16L8 16L8 15L7 15L7 14L6 14L6 15L2 15L2 17L1 17L1 16L0 16L0 18L1 18L1 19L0 19L0 20L1 20L1 21L0 21L0 24L1 24L1 26L2 26L2 27L1 27L1 28L0 28L0 29L2 29L2 31L3 31L3 32L2 32L2 33L3 33L3 32L4 32L4 31L9 31L9 33L8 33L8 34L10 34L10 36L9 36L9 37L8 37L8 38L10 38L10 40L9 40L9 41L11 41L11 40L12 40L12 38L13 38L13 39L14 39L14 40L15 40L15 41L19 41L19 40L20 40L20 39L21 39L21 41L22 41L22 40L23 40L23 41L25 41L25 40L24 40L24 38L25 38L25 39L26 39L26 40L27 40L27 36L30 36L30 34L31 34L31 33L32 33L32 35L31 35L31 36L32 36L32 37L31 37L31 40L32 40L32 41L33 41L33 39L34 39L34 38L36 38L36 40L37 40L37 41L40 41L40 39L41 39L41 38L40 38L40 37L41 37L41 35L38 35L38 36L40 36L40 37L37 37L37 34L38 34L38 33L39 33L39 34L41 34L41 32L40 32L40 31L41 31L41 29L40 29L40 28L41 28L41 26L40 26L40 28L37 28L37 29L38 29L38 30L36 30L36 29L35 29L35 30L36 30L36 31L37 31L37 32L35 32L35 31L34 31L34 30L32 30L32 29L33 29L33 28L32 28L32 27L30 27L30 26L34 26L34 27L35 27L35 28L36 28L36 24L34 24L34 22L35 22L35 23L37 23L37 24L38 24L38 25L37 25L37 27L38 27L38 26L39 26L39 25L40 25L40 24L41 24L41 23L40 23L40 22L39 22L39 23L37 23L37 22L36 22L36 21L40 21L40 20L41 20L41 16L39 16L39 17L38 17L38 18L39 18L39 17L40 17L40 20L37 20L37 19L36 19L36 21L35 21L35 19L34 19L34 18L35 18L35 17L36 17L36 16L35 16L35 17L33 17L33 16L32 16L32 15L33 15L33 14L34 14L34 15L37 15L37 16L38 16L38 13L39 13L39 15L41 15L41 14L40 14L40 13L41 13L41 11L40 11L40 13L39 13L39 11L38 11L38 13L37 13L37 14L36 14L36 13L34 13L34 12L36 12L36 11L37 11L37 10L38 10L38 8L35 8L35 9L34 9L34 10L33 10L33 11L32 11L32 10L30 10L30 9L29 9L29 10L28 10L28 11L27 11L27 13L26 13L26 12L25 12L25 11L26 11L26 10L23 10L23 11L22 11L22 10L20 10L20 9L22 9L22 7L23 7L23 6L24 6L24 7L25 7L25 8L26 8L26 9L27 9L27 8L26 8L26 7L27 7L27 6L28 6L28 8L30 8L30 7L31 7L31 8L32 8L32 9L33 9L33 8L32 8L32 7L33 7L33 3L31 3L31 1L32 1L32 2L33 2L33 0L31 0L31 1L30 1L30 0L27 0L27 2L26 2L26 3L25 3L25 2L24 2L24 0L22 0L22 1L20 1L20 0L16 0L16 1L15 1L15 0L13 0L13 1L12 1L12 2L11 2L11 3L12 3L12 4L11 4L11 6L10 6L10 5L9 5L9 3L10 3L10 2L9 2L9 0ZM10 0L10 1L11 1L11 0ZM13 1L13 2L12 2L12 3L13 3L13 4L12 4L12 5L13 5L13 7L12 7L12 6L11 6L11 7L12 7L12 8L13 8L13 9L11 9L11 10L13 10L13 11L14 11L14 10L15 10L15 14L14 14L14 12L12 12L12 14L11 14L11 15L10 15L10 17L6 17L6 18L5 18L5 17L4 17L4 16L3 16L3 19L1 19L1 20L2 20L2 21L1 21L1 24L2 24L2 26L3 26L3 25L4 25L4 27L3 27L3 29L4 29L4 27L5 27L5 30L8 30L8 29L6 29L6 28L7 28L7 27L6 27L6 26L9 26L9 25L11 25L11 27L13 27L13 28L12 28L12 30L10 30L10 29L11 29L11 28L10 28L10 29L9 29L9 30L10 30L10 32L11 32L11 31L12 31L12 32L13 32L13 31L14 31L14 32L16 32L16 31L17 31L17 30L18 30L18 32L19 32L19 31L21 31L21 33L23 33L23 34L24 34L24 35L21 35L21 34L18 34L18 33L16 33L16 34L17 34L17 35L19 35L19 36L18 36L18 37L15 37L15 39L18 39L18 40L19 40L19 38L21 38L21 36L23 36L23 37L22 37L22 38L23 38L23 37L25 37L25 38L26 38L26 37L25 37L25 36L26 36L26 35L28 35L28 32L24 32L24 31L25 31L25 30L26 30L26 31L29 31L29 30L31 30L31 29L32 29L32 28L30 28L30 29L28 29L28 28L29 28L29 27L28 27L28 25L29 25L29 26L30 26L30 25L29 25L29 24L30 24L30 23L31 23L31 22L34 22L34 19L32 19L32 18L33 18L33 17L31 17L31 15L32 15L32 14L33 14L33 12L32 12L32 11L28 11L28 12L31 12L31 13L30 13L30 17L29 17L29 16L28 16L28 15L27 15L27 16L26 16L26 13L25 13L25 12L24 12L24 11L23 11L23 12L22 12L22 11L18 11L18 9L19 9L19 7L20 7L20 8L21 8L21 7L22 7L22 6L23 6L23 5L24 5L24 6L25 6L25 7L26 7L26 6L25 6L25 3L24 3L24 2L23 2L23 1L22 1L22 2L20 2L20 3L18 3L18 4L19 4L19 5L17 5L17 7L16 7L16 5L15 5L15 4L17 4L17 2L18 2L18 1L16 1L16 2L14 2L14 1ZM28 1L28 2L27 2L27 3L26 3L26 5L27 5L27 4L28 4L28 6L29 6L29 7L30 7L30 6L29 6L29 5L30 5L30 4L28 4L28 3L30 3L30 1ZM13 2L13 3L14 3L14 4L15 4L15 3L14 3L14 2ZM22 2L22 4L24 4L24 3L23 3L23 2ZM20 4L20 7L21 7L21 4ZM31 4L31 5L32 5L32 4ZM9 6L9 7L10 7L10 6ZM14 6L14 9L13 9L13 10L14 10L14 9L15 9L15 10L16 10L16 12L18 12L18 11L17 11L17 10L16 10L16 8L15 8L15 6ZM18 6L18 7L17 7L17 8L18 8L18 7L19 7L19 6ZM31 6L31 7L32 7L32 6ZM3 8L3 9L1 9L1 10L0 10L0 12L1 12L1 10L4 10L4 8ZM39 8L39 9L40 9L40 10L41 10L41 8ZM36 9L36 10L37 10L37 9ZM6 11L6 12L7 12L7 11ZM8 12L8 13L9 13L9 12ZM19 12L19 13L17 13L17 14L18 14L18 15L21 15L21 17L19 17L19 19L18 19L18 17L16 17L16 16L13 16L13 14L12 14L12 15L11 15L11 16L12 16L12 17L11 17L11 18L9 18L9 19L7 19L7 18L6 18L6 19L5 19L5 20L4 20L4 19L3 19L3 20L4 20L4 21L3 21L3 22L4 22L4 23L5 23L5 24L6 24L6 25L5 25L5 26L6 26L6 25L8 25L8 24L11 24L11 23L10 23L10 22L12 22L12 21L9 21L9 19L11 19L11 20L12 20L12 19L11 19L11 18L12 18L12 17L13 17L13 21L14 21L14 19L18 19L18 20L19 20L19 21L17 21L17 20L16 20L16 21L15 21L15 22L13 22L13 23L16 23L16 21L17 21L17 22L19 22L19 23L18 23L18 24L19 24L19 25L17 25L17 24L15 24L15 26L14 26L14 27L17 27L17 29L16 29L16 28L13 28L13 30L12 30L12 31L13 31L13 30L14 30L14 29L15 29L15 31L16 31L16 30L17 30L17 29L18 29L18 27L19 27L19 29L20 29L20 27L19 27L19 25L20 25L20 26L24 26L24 27L22 27L22 28L23 28L23 29L21 29L21 30L23 30L23 31L24 31L24 30L25 30L25 28L27 28L27 25L26 25L26 24L25 24L25 23L23 23L23 21L20 21L20 20L19 20L19 19L20 19L20 18L21 18L21 17L23 17L23 18L25 18L25 19L27 19L27 18L26 18L26 17L25 17L25 16L24 16L24 15L25 15L25 14L24 14L24 13L22 13L22 12L21 12L21 13L22 13L22 15L21 15L21 14L20 14L20 12ZM28 13L28 14L29 14L29 13ZM15 14L15 15L16 15L16 14ZM6 15L6 16L7 16L7 15ZM22 15L22 16L23 16L23 17L24 17L24 16L23 16L23 15ZM27 16L27 17L28 17L28 16ZM28 18L28 19L29 19L29 22L28 22L28 23L29 23L29 22L31 22L31 21L33 21L33 20L31 20L31 18L30 18L30 19L29 19L29 18ZM6 19L6 20L5 20L5 21L4 21L4 22L7 22L7 23L6 23L6 24L8 24L8 22L7 22L7 21L8 21L8 20L7 20L7 19ZM21 19L21 20L24 20L24 21L25 21L25 22L27 22L27 20L26 20L26 21L25 21L25 20L24 20L24 19ZM6 20L6 21L7 21L7 20ZM20 23L20 25L24 25L24 26L25 26L25 27L26 27L26 26L25 26L25 24L23 24L23 23ZM32 23L32 24L31 24L31 25L32 25L32 24L33 24L33 23ZM12 24L12 26L13 26L13 25L14 25L14 24ZM34 25L34 26L35 26L35 25ZM27 29L27 30L28 30L28 29ZM0 30L0 31L1 31L1 30ZM38 30L38 32L37 32L37 33L38 33L38 32L39 32L39 31L40 31L40 30ZM33 31L33 32L34 32L34 31ZM0 32L0 33L1 33L1 32ZM5 32L5 33L7 33L7 32ZM23 32L23 33L24 33L24 32ZM29 32L29 34L30 34L30 32ZM11 33L11 34L12 34L12 33ZM13 33L13 34L14 34L14 33ZM25 33L25 34L27 34L27 33ZM33 33L33 36L36 36L36 33ZM34 34L34 35L35 35L35 34ZM11 35L11 36L12 36L12 35ZM20 35L20 36L21 36L21 35ZM24 35L24 36L25 36L25 35ZM13 36L13 37L14 37L14 36ZM10 37L10 38L11 38L11 37ZM28 37L28 39L29 39L29 41L30 41L30 37ZM32 37L32 39L33 39L33 37ZM36 37L36 38L37 38L37 40L38 40L38 38L37 38L37 37ZM39 38L39 39L40 39L40 38ZM0 0L0 7L7 7L7 0ZM1 1L1 6L6 6L6 1ZM2 2L2 5L5 5L5 2ZM34 0L34 7L41 7L41 0ZM35 1L35 6L40 6L40 1ZM36 2L36 5L39 5L39 2ZM0 34L0 41L7 41L7 34ZM1 35L1 40L6 40L6 35ZM2 36L2 39L5 39L5 36Z" fill="#000000"/></g></g></svg>
