<?xml version="1.0" encoding="UTF-8"?>
<svg xmlns="http://www.w3.org/2000/svg" version="1.1" width="200" height="200" viewBox="0 0 200 200"><rect x="0" y="0" width="200" height="200" fill="#ffffff"/><g transform="scale(4.878)"><g transform="translate(0,0)"><path fill-rule="evenodd" d="M9 0L9 1L10 1L10 2L8 2L8 4L9 4L9 5L10 5L10 2L11 2L11 3L12 3L12 4L11 4L11 5L12 5L12 4L13 4L13 5L14 5L14 4L15 4L15 5L17 5L17 6L16 6L16 7L15 7L15 6L14 6L14 7L13 7L13 6L12 6L12 7L11 7L11 6L10 6L10 7L9 7L9 6L8 6L8 7L9 7L9 9L10 9L10 10L6 10L6 11L8 11L8 12L6 12L6 13L5 13L5 11L3 11L3 10L2 10L2 9L1 9L1 10L0 10L0 11L1 11L1 10L2 10L2 11L3 11L3 12L0 12L0 14L1 14L1 16L0 16L0 17L3 17L3 19L4 19L4 21L3 21L3 20L2 20L2 21L1 21L1 20L0 20L0 21L1 21L1 22L2 22L2 23L4 23L4 24L1 24L1 25L3 25L3 26L5 26L5 27L4 27L4 29L3 29L3 27L2 27L2 30L1 30L1 29L0 29L0 33L3 33L3 32L4 32L4 33L5 33L5 32L6 32L6 33L7 33L7 32L8 32L8 31L11 31L11 30L12 30L12 28L14 28L14 29L15 29L15 30L13 30L13 31L12 31L12 34L11 34L11 33L10 33L10 34L11 34L11 35L12 35L12 34L13 34L13 35L14 35L14 36L10 36L10 37L9 37L9 36L8 36L8 38L9 38L9 40L11 40L11 41L12 41L12 40L11 40L11 37L14 37L14 36L15 36L15 38L12 38L12 39L13 39L13 41L15 41L15 40L16 40L16 41L17 41L17 40L18 40L18 41L21 41L21 40L20 40L20 39L22 39L22 40L23 40L23 41L24 41L24 40L23 40L23 39L25 39L25 41L26 41L26 38L27 38L27 39L28 39L28 41L29 41L29 39L30 39L30 38L29 38L29 39L28 39L28 36L29 36L29 37L31 37L31 39L32 39L32 38L33 38L33 40L30 40L30 41L34 41L34 40L35 40L35 41L36 41L36 39L38 39L38 41L39 41L39 39L40 39L40 40L41 40L41 35L40 35L40 34L39 34L39 33L41 33L41 32L40 32L40 31L41 31L41 30L39 30L39 29L40 29L40 27L41 27L41 25L39 25L39 27L36 27L36 26L37 26L37 25L36 25L36 24L33 24L33 22L34 22L34 21L35 21L35 23L36 23L36 21L38 21L38 22L37 22L37 23L39 23L39 24L40 24L40 23L39 23L39 22L41 22L41 21L39 21L39 20L40 20L40 19L41 19L41 18L40 18L40 17L41 17L41 13L40 13L40 12L41 12L41 11L40 11L40 9L39 9L39 8L37 8L37 9L35 9L35 10L36 10L36 11L34 11L34 10L32 10L32 8L33 8L33 5L32 5L32 4L33 4L33 3L32 3L32 1L31 1L31 0L28 0L28 2L27 2L27 4L25 4L25 2L24 2L24 1L25 1L25 0L24 0L24 1L22 1L22 0L21 0L21 1L20 1L20 0L15 0L15 1L17 1L17 2L15 2L15 3L14 3L14 2L11 2L11 1L13 1L13 0ZM18 1L18 2L17 2L17 3L15 3L15 4L17 4L17 5L18 5L18 6L17 6L17 7L16 7L16 8L14 8L14 9L13 9L13 10L14 10L14 9L15 9L15 10L18 10L18 11L17 11L17 12L15 12L15 11L14 11L14 12L15 12L15 13L13 13L13 12L12 12L12 8L10 8L10 9L11 9L11 12L10 12L10 11L9 11L9 13L6 13L6 14L5 14L5 13L4 13L4 12L3 12L3 13L2 13L2 15L3 15L3 16L4 16L4 19L5 19L5 18L8 18L8 17L5 17L5 16L7 16L7 15L6 15L6 14L8 14L8 15L9 15L9 16L10 16L10 14L11 14L11 15L12 15L12 16L11 16L11 17L9 17L9 18L15 18L15 19L12 19L12 21L11 21L11 19L6 19L6 20L8 20L8 22L7 22L7 21L5 21L5 22L7 22L7 23L5 23L5 24L4 24L4 25L5 25L5 24L7 24L7 25L6 25L6 26L7 26L7 27L6 27L6 28L7 28L7 29L6 29L6 30L8 30L8 29L9 29L9 28L10 28L10 29L11 29L11 28L10 28L10 26L11 26L11 27L12 27L12 26L13 26L13 21L14 21L14 22L16 22L16 21L19 21L19 23L16 23L16 24L21 24L21 23L22 23L22 22L23 22L23 23L24 23L24 25L22 25L22 26L21 26L21 27L20 27L20 25L19 25L19 26L17 26L17 25L16 25L16 26L17 26L17 27L16 27L16 29L17 29L17 30L19 30L19 32L20 32L20 30L22 30L22 29L24 29L24 31L23 31L23 32L22 32L22 33L21 33L21 36L20 36L20 38L18 38L18 37L17 37L17 35L15 35L15 36L16 36L16 39L18 39L18 40L19 40L19 39L20 39L20 38L21 38L21 36L22 36L22 34L23 34L23 36L25 36L25 35L24 35L24 32L25 32L25 33L26 33L26 35L27 35L27 36L26 36L26 37L27 37L27 36L28 36L28 35L29 35L29 34L32 34L32 33L28 33L28 32L26 32L26 31L25 31L25 29L26 29L26 30L27 30L27 31L28 31L28 30L29 30L29 32L30 32L30 30L32 30L32 31L34 31L34 32L36 32L36 31L37 31L37 32L38 32L38 31L37 31L37 30L38 30L38 28L36 28L36 27L35 27L35 26L33 26L33 25L30 25L30 24L28 24L28 23L32 23L32 22L33 22L33 19L34 19L34 20L35 20L35 21L36 21L36 20L38 20L38 19L39 19L39 17L40 17L40 16L38 16L38 15L39 15L39 13L38 13L38 14L37 14L37 16L36 16L36 15L35 15L35 16L34 16L34 17L33 17L33 13L32 13L32 14L31 14L31 15L32 15L32 18L33 18L33 19L31 19L31 17L30 17L30 15L29 15L29 14L30 14L30 12L28 12L28 11L29 11L29 10L30 10L30 11L32 11L32 10L31 10L31 9L29 9L29 8L30 8L30 5L31 5L31 7L32 7L32 5L31 5L31 4L32 4L32 3L31 3L31 2L30 2L30 1L29 1L29 2L28 2L28 4L27 4L27 5L25 5L25 4L24 4L24 2L23 2L23 5L22 5L22 6L21 6L21 3L22 3L22 1L21 1L21 2L20 2L20 1ZM18 2L18 5L19 5L19 6L18 6L18 7L19 7L19 8L20 8L20 10L19 10L19 9L18 9L18 10L19 10L19 15L18 15L18 16L17 16L17 14L18 14L18 13L17 13L17 14L16 14L16 13L15 13L15 14L16 14L16 16L17 16L17 18L16 18L16 20L17 20L17 19L20 19L20 20L19 20L19 21L21 21L21 20L23 20L23 21L24 21L24 20L23 20L23 19L22 19L22 17L21 17L21 16L23 16L23 18L24 18L24 16L23 16L23 15L25 15L25 16L26 16L26 15L25 15L25 14L26 14L26 10L27 10L27 11L28 11L28 10L29 10L29 9L28 9L28 8L29 8L29 6L28 6L28 8L27 8L27 6L26 6L26 7L25 7L25 6L24 6L24 5L23 5L23 6L22 6L22 7L23 7L23 9L22 9L22 11L24 11L24 12L21 12L21 11L20 11L20 10L21 10L21 8L20 8L20 7L21 7L21 6L20 6L20 5L19 5L19 4L20 4L20 3L19 3L19 2ZM13 3L13 4L14 4L14 3ZM30 3L30 4L29 4L29 5L30 5L30 4L31 4L31 3ZM19 6L19 7L20 7L20 6ZM23 6L23 7L24 7L24 8L25 8L25 7L24 7L24 6ZM3 8L3 9L5 9L5 8ZM6 8L6 9L8 9L8 8ZM26 8L26 9L23 9L23 10L24 10L24 11L25 11L25 10L26 10L26 9L27 9L27 8ZM37 9L37 10L38 10L38 12L40 12L40 11L39 11L39 10L38 10L38 9ZM27 12L27 13L28 13L28 12ZM36 12L36 13L34 13L34 14L36 14L36 13L37 13L37 12ZM21 13L21 14L25 14L25 13ZM4 14L4 15L5 15L5 14ZM13 14L13 15L14 15L14 14ZM27 14L27 15L28 15L28 16L27 16L27 21L26 21L26 18L25 18L25 22L24 22L24 23L28 23L28 22L29 22L29 21L28 21L28 20L31 20L31 21L30 21L30 22L32 22L32 20L31 20L31 19L29 19L29 17L28 17L28 16L29 16L29 15L28 15L28 14ZM20 15L20 16L21 16L21 15ZM12 16L12 17L14 17L14 16ZM18 16L18 17L19 17L19 18L20 18L20 19L21 19L21 18L20 18L20 17L19 17L19 16ZM37 16L37 17L35 17L35 20L36 20L36 18L37 18L37 19L38 19L38 18L37 18L37 17L38 17L38 16ZM0 18L0 19L2 19L2 18ZM9 20L9 21L10 21L10 24L11 24L11 25L12 25L12 23L11 23L11 21L10 21L10 20ZM14 20L14 21L15 21L15 20ZM2 21L2 22L3 22L3 21ZM8 22L8 23L7 23L7 24L8 24L8 23L9 23L9 22ZM14 23L14 24L15 24L15 23ZM25 24L25 25L24 25L24 27L21 27L21 29L22 29L22 28L25 28L25 27L26 27L26 29L28 29L28 28L29 28L29 27L28 27L28 25L27 25L27 24ZM8 25L8 27L7 27L7 28L9 28L9 26L10 26L10 25ZM14 25L14 28L15 28L15 25ZM26 25L26 26L27 26L27 25ZM29 25L29 26L30 26L30 25ZM31 26L31 28L30 28L30 29L29 29L29 30L30 30L30 29L31 29L31 28L33 28L33 27L32 27L32 26ZM18 27L18 28L17 28L17 29L20 29L20 27ZM34 28L34 30L35 30L35 31L36 31L36 30L37 30L37 29L35 29L35 28ZM4 29L4 30L5 30L5 29ZM2 30L2 32L3 32L3 30ZM4 31L4 32L5 32L5 31ZM6 31L6 32L7 32L7 31ZM13 31L13 34L15 34L15 33L16 33L16 34L17 34L17 33L18 33L18 36L19 36L19 34L20 34L20 33L18 33L18 31ZM14 32L14 33L15 33L15 32ZM16 32L16 33L17 33L17 32ZM8 33L8 35L9 35L9 33ZM27 33L27 35L28 35L28 33ZM33 33L33 36L36 36L36 33ZM34 34L34 35L35 35L35 34ZM37 34L37 35L38 35L38 37L39 37L39 38L40 38L40 37L39 37L39 36L40 36L40 35L39 35L39 34ZM30 35L30 36L31 36L31 35ZM23 37L23 38L22 38L22 39L23 39L23 38L25 38L25 37ZM34 37L34 39L35 39L35 38L36 38L36 37ZM14 39L14 40L15 40L15 39ZM0 0L0 7L7 7L7 0ZM1 1L1 6L6 6L6 1ZM2 2L2 5L5 5L5 2ZM34 0L34 7L41 7L41 0ZM35 1L35 6L40 6L40 1ZM36 2L36 5L39 5L39 2ZM0 34L0 41L7 41L7 34ZM1 35L1 40L6 40L6 35ZM2 36L2 39L5 39L5 36Z" fill="#000000"/></g></g></svg>
