<?xml version="1.0" encoding="UTF-8"?>
<svg xmlns="http://www.w3.org/2000/svg" version="1.1" width="200" height="200" viewBox="0 0 200 200"><rect x="0" y="0" width="200" height="200" fill="#ffffff"/><g transform="scale(6.897)"><g transform="translate(0,0)"><path fill-rule="evenodd" d="M10 0L10 2L8 2L8 4L10 4L10 2L11 2L11 5L9 5L9 6L8 6L8 7L9 7L9 10L8 10L8 8L6 8L6 9L7 9L7 10L5 10L5 8L3 8L3 9L2 9L2 11L3 11L3 12L6 12L6 13L5 13L5 14L4 14L4 13L3 13L3 14L2 14L2 13L1 13L1 12L0 12L0 13L1 13L1 14L0 14L0 15L1 15L1 16L2 16L2 17L0 17L0 21L3 21L3 20L2 20L2 18L3 18L3 19L4 19L4 18L3 18L3 17L7 17L7 18L6 18L6 19L5 19L5 20L4 20L4 21L7 21L7 20L6 20L6 19L7 19L7 18L8 18L8 19L9 19L9 20L13 20L13 19L14 19L14 20L15 20L15 21L16 21L16 20L18 20L18 21L17 21L17 24L18 24L18 25L16 25L16 24L15 24L15 23L16 23L16 22L15 22L15 23L12 23L12 21L10 21L10 22L9 22L9 21L8 21L8 23L9 23L9 24L8 24L8 26L9 26L9 27L10 27L10 26L11 26L11 28L13 28L13 29L14 29L14 28L15 28L15 29L16 29L16 26L17 26L17 28L18 28L18 27L19 27L19 26L18 26L18 25L24 25L24 26L25 26L25 27L23 27L23 28L22 28L22 26L21 26L21 27L20 27L20 28L19 28L19 29L20 29L20 28L21 28L21 29L23 29L23 28L24 28L24 29L26 29L26 27L29 27L29 26L27 26L27 25L28 25L28 24L29 24L29 23L28 23L28 24L26 24L26 25L25 25L25 22L27 22L27 21L26 21L26 20L25 20L25 19L26 19L26 18L28 18L28 19L29 19L29 17L28 17L28 16L29 16L29 15L28 15L28 16L27 16L27 13L29 13L29 11L28 11L28 10L27 10L27 8L25 8L25 9L26 9L26 10L25 10L25 12L24 12L24 16L23 16L23 12L22 12L22 11L21 11L21 10L19 10L19 9L20 9L20 8L19 8L19 6L20 6L20 7L21 7L21 4L19 4L19 3L20 3L20 1L21 1L21 0L19 0L19 1L18 1L18 0L17 0L17 1L18 1L18 2L19 2L19 3L18 3L18 5L19 5L19 6L18 6L18 7L17 7L17 5L15 5L15 2L16 2L16 3L17 3L17 2L16 2L16 1L14 1L14 0L13 0L13 1L12 1L12 2L11 2L11 0ZM12 2L12 3L13 3L13 4L14 4L14 3L13 3L13 2ZM13 5L13 7L12 7L12 6L11 6L11 8L12 8L12 9L11 9L11 10L9 10L9 11L6 11L6 12L7 12L7 13L6 13L6 14L7 14L7 15L4 15L4 14L3 14L3 15L2 15L2 16L3 16L3 15L4 15L4 16L7 16L7 17L8 17L8 13L9 13L9 11L11 11L11 12L12 12L12 13L13 13L13 12L15 12L15 10L16 10L16 12L17 12L17 13L16 13L16 15L15 15L15 16L14 16L14 15L13 15L13 14L11 14L11 15L10 15L10 16L9 16L9 17L10 17L10 19L11 19L11 18L12 18L12 19L13 19L13 18L12 18L12 16L14 16L14 17L15 17L15 18L14 18L14 19L15 19L15 20L16 20L16 18L18 18L18 20L19 20L19 18L20 18L20 19L21 19L21 20L22 20L22 19L21 19L21 16L20 16L20 15L21 15L21 14L22 14L22 12L21 12L21 14L20 14L20 15L17 15L17 14L19 14L19 13L20 13L20 12L19 12L19 13L18 13L18 12L17 12L17 10L18 10L18 9L19 9L19 8L17 8L17 9L15 9L15 8L14 8L14 9L15 9L15 10L14 10L14 11L11 11L11 10L12 10L12 9L13 9L13 7L14 7L14 5ZM9 6L9 7L10 7L10 6ZM15 6L15 7L16 7L16 6ZM0 9L0 10L1 10L1 9ZM3 9L3 11L4 11L4 9ZM22 9L22 10L23 10L23 11L24 11L24 9ZM26 10L26 11L27 11L27 12L28 12L28 11L27 11L27 10ZM25 13L25 16L26 16L26 17L27 17L27 16L26 16L26 13ZM11 15L11 16L10 16L10 17L11 17L11 16L12 16L12 15ZM17 16L17 17L18 17L18 18L19 18L19 16ZM22 16L22 17L23 17L23 16ZM23 19L23 20L24 20L24 19ZM13 21L13 22L14 22L14 21ZM18 21L18 24L20 24L20 21ZM21 21L21 24L24 24L24 21ZM28 21L28 22L29 22L29 21ZM22 22L22 23L23 23L23 22ZM11 23L11 24L9 24L9 26L10 26L10 25L13 25L13 26L12 26L12 27L15 27L15 26L16 26L16 25L15 25L15 24L14 24L14 25L13 25L13 24L12 24L12 23ZM14 25L14 26L15 26L15 25ZM9 28L9 29L10 29L10 28ZM27 28L27 29L28 29L28 28ZM0 0L0 7L7 7L7 0ZM1 1L1 6L6 6L6 1ZM2 2L2 5L5 5L5 2ZM22 0L22 7L29 7L29 0ZM23 1L23 6L28 6L28 1ZM24 2L24 5L27 5L27 2ZM0 22L0 29L7 29L7 22ZM1 23L1 28L6 28L6 23ZM2 24L2 27L5 27L5 24Z" fill="#000000"/></g></g></svg>
