<?xml version="1.0" encoding="UTF-8"?>
<svg xmlns="http://www.w3.org/2000/svg" version="1.1" width="200" height="200" viewBox="0 0 200 200"><rect x="0" y="0" width="200" height="200" fill="#ffffff"/><g transform="scale(4.878)"><g transform="translate(0,0)"><path fill-rule="evenodd" d="M8 0L8 3L9 3L9 2L10 2L10 1L11 1L11 2L12 2L12 1L14 1L14 2L13 2L13 3L12 3L12 4L11 4L11 6L10 6L10 9L9 9L9 5L10 5L10 4L9 4L9 5L8 5L8 9L7 9L7 8L6 8L6 9L5 9L5 8L2 8L2 9L0 9L0 12L2 12L2 11L3 11L3 9L5 9L5 10L4 10L4 11L5 11L5 10L6 10L6 11L7 11L7 10L8 10L8 12L9 12L9 13L10 13L10 14L9 14L9 16L10 16L10 14L11 14L11 15L12 15L12 13L16 13L16 14L15 14L15 15L14 15L14 14L13 14L13 15L14 15L14 16L11 16L11 17L10 17L10 18L9 18L9 17L7 17L7 16L6 16L6 15L8 15L8 14L6 14L6 15L5 15L5 16L4 16L4 17L7 17L7 18L4 18L4 20L3 20L3 19L2 19L2 18L3 18L3 16L2 16L2 15L4 15L4 13L7 13L7 12L3 12L3 13L2 13L2 14L1 14L1 13L0 13L0 18L1 18L1 19L2 19L2 20L0 20L0 22L2 22L2 26L1 26L1 24L0 24L0 26L1 26L1 27L2 27L2 28L3 28L3 27L4 27L4 28L5 28L5 27L7 27L7 28L6 28L6 29L4 29L4 30L6 30L6 31L8 31L8 32L5 32L5 31L2 31L2 33L3 33L3 32L4 32L4 33L8 33L8 34L9 34L9 35L10 35L10 37L11 37L11 38L12 38L12 37L13 37L13 39L14 39L14 40L12 40L12 39L10 39L10 40L9 40L9 41L10 41L10 40L12 40L12 41L14 41L14 40L16 40L16 41L21 41L21 40L22 40L22 39L24 39L24 41L26 41L26 40L25 40L25 39L26 39L26 38L27 38L27 39L28 39L28 38L29 38L29 39L31 39L31 40L27 40L27 41L31 41L31 40L33 40L33 41L34 41L34 40L33 40L33 39L32 39L32 38L34 38L34 39L35 39L35 40L36 40L36 39L37 39L37 37L39 37L39 38L38 38L38 39L39 39L39 40L40 40L40 38L41 38L41 37L39 37L39 36L41 36L41 35L40 35L40 34L41 34L41 33L40 33L40 32L41 32L41 31L40 31L40 30L41 30L41 29L39 29L39 30L38 30L38 29L35 29L35 27L36 27L36 28L38 28L38 26L39 26L39 28L40 28L40 26L41 26L41 23L40 23L40 26L39 26L39 24L37 24L37 25L36 25L36 23L35 23L35 25L34 25L34 24L33 24L33 25L31 25L31 24L32 24L32 23L31 23L31 22L32 22L32 21L34 21L34 22L36 22L36 21L39 21L39 20L36 20L36 19L35 19L35 17L36 17L36 18L37 18L37 17L36 17L36 16L38 16L38 17L39 17L39 18L38 18L38 19L39 19L39 18L41 18L41 16L40 16L40 17L39 17L39 16L38 16L38 15L39 15L39 14L41 14L41 13L40 13L40 10L41 10L41 8L38 8L38 9L40 9L40 10L37 10L37 9L36 9L36 8L32 8L32 9L30 9L30 8L31 8L31 6L30 6L30 5L29 5L29 4L28 4L28 5L26 5L26 4L27 4L27 3L29 3L29 1L27 1L27 0L25 0L25 1L24 1L24 2L25 2L25 3L23 3L23 1L22 1L22 0L21 0L21 1L20 1L20 0L17 0L17 1L18 1L18 3L19 3L19 4L17 4L17 5L15 5L15 6L14 6L14 5L13 5L13 3L14 3L14 4L15 4L15 1L14 1L14 0ZM31 0L31 1L30 1L30 2L31 2L31 3L30 3L30 4L31 4L31 5L32 5L32 7L33 7L33 5L32 5L32 4L33 4L33 3L32 3L32 2L31 2L31 1L32 1L32 0ZM21 1L21 2L19 2L19 3L20 3L20 5L19 5L19 9L18 9L18 5L17 5L17 9L16 9L16 10L19 10L19 11L17 11L17 12L18 12L18 13L17 13L17 15L15 15L15 16L14 16L14 17L12 17L12 18L11 18L11 19L9 19L9 18L8 18L8 19L9 19L9 21L11 21L11 22L12 22L12 21L14 21L14 20L15 20L15 19L14 19L14 20L11 20L11 19L13 19L13 18L14 18L14 17L15 17L15 18L16 18L16 17L15 17L15 16L17 16L17 15L18 15L18 13L20 13L20 14L19 14L19 15L20 15L20 14L21 14L21 13L22 13L22 12L24 12L24 10L23 10L23 9L26 9L26 10L25 10L25 11L26 11L26 12L28 12L28 11L29 11L29 12L31 12L31 14L30 14L30 13L28 13L28 14L30 14L30 15L28 15L28 17L26 17L26 16L27 16L27 15L26 15L26 14L27 14L27 13L24 13L24 14L22 14L22 15L21 15L21 16L20 16L20 17L19 17L19 18L18 18L18 17L17 17L17 19L16 19L16 20L18 20L18 22L19 22L19 23L17 23L17 24L16 24L16 23L15 23L15 22L13 22L13 23L12 23L12 25L11 25L11 23L8 23L8 24L7 24L7 23L5 23L5 24L4 24L4 25L3 25L3 26L2 26L2 27L3 27L3 26L4 26L4 27L5 27L5 26L7 26L7 25L8 25L8 24L9 24L9 26L11 26L11 27L9 27L9 30L11 30L11 27L12 27L12 25L13 25L13 26L14 26L14 27L13 27L13 28L12 28L12 29L13 29L13 30L12 30L12 31L13 31L13 30L14 30L14 32L11 32L11 33L9 33L9 32L10 32L10 31L9 31L9 32L8 32L8 33L9 33L9 34L11 34L11 35L12 35L12 36L13 36L13 37L16 37L16 38L15 38L15 39L16 39L16 40L19 40L19 39L20 39L20 40L21 40L21 38L19 38L19 39L18 39L18 38L17 38L17 37L16 37L16 36L17 36L17 34L16 34L16 36L14 36L14 34L13 34L13 35L12 35L12 34L11 34L11 33L14 33L14 32L15 32L15 33L18 33L18 34L19 34L19 33L22 33L22 34L23 34L23 36L22 36L22 35L21 35L21 37L23 37L23 38L24 38L24 39L25 39L25 37L27 37L27 38L28 38L28 37L29 37L29 38L31 38L31 37L32 37L32 35L30 35L30 34L31 34L31 33L32 33L32 32L35 32L35 31L34 31L34 30L35 30L35 29L34 29L34 28L33 28L33 27L34 27L34 25L33 25L33 27L32 27L32 26L31 26L31 25L30 25L30 26L29 26L29 27L26 27L26 26L28 26L28 25L29 25L29 24L31 24L31 23L28 23L28 25L26 25L26 24L27 24L27 23L26 23L26 24L25 24L25 22L28 22L28 21L29 21L29 22L30 22L30 21L32 21L32 20L28 20L28 19L29 19L29 16L31 16L31 14L32 14L32 15L33 15L33 16L32 16L32 17L33 17L33 16L34 16L34 17L35 17L35 15L38 15L38 14L39 14L39 11L38 11L38 12L36 12L36 11L35 11L35 10L34 10L34 11L33 11L33 9L32 9L32 10L31 10L31 11L29 11L29 10L30 10L30 9L26 9L26 8L27 8L27 7L28 7L28 8L30 8L30 6L29 6L29 7L28 7L28 6L27 6L27 7L26 7L26 5L25 5L25 4L26 4L26 3L27 3L27 2L26 2L26 3L25 3L25 4L24 4L24 5L25 5L25 7L26 7L26 8L24 8L24 6L23 6L23 7L22 7L22 5L23 5L23 3L22 3L22 5L21 5L21 2L22 2L22 1ZM16 2L16 3L17 3L17 2ZM31 3L31 4L32 4L32 3ZM20 5L20 7L21 7L21 11L20 11L20 12L22 12L22 11L23 11L23 10L22 10L22 9L23 9L23 8L22 8L22 7L21 7L21 5ZM11 6L11 7L12 7L12 6ZM13 6L13 7L14 7L14 6ZM15 6L15 8L16 8L16 6ZM11 8L11 9L13 9L13 12L15 12L15 9L13 9L13 8ZM6 9L6 10L7 10L7 9ZM8 9L8 10L9 10L9 11L10 11L10 13L11 13L11 12L12 12L12 10L11 10L11 11L10 11L10 10L9 10L9 9ZM27 10L27 11L28 11L28 10ZM31 11L31 12L32 12L32 11ZM33 12L33 13L32 13L32 14L33 14L33 15L34 15L34 14L33 14L33 13L34 13L34 12ZM36 13L36 14L38 14L38 13ZM23 15L23 16L21 16L21 18L22 18L22 19L23 19L23 18L22 18L22 17L23 17L23 16L24 16L24 15ZM25 15L25 16L26 16L26 15ZM1 16L1 18L2 18L2 16ZM30 17L30 19L32 19L32 18L31 18L31 17ZM19 18L19 19L18 19L18 20L19 20L19 19L20 19L20 20L21 20L21 21L19 21L19 22L20 22L20 23L21 23L21 24L22 24L22 25L21 25L21 26L23 26L23 23L21 23L21 22L22 22L22 21L23 21L23 22L24 22L24 21L23 21L23 20L21 20L21 19L20 19L20 18ZM27 18L27 19L26 19L26 21L28 21L28 20L27 20L27 19L28 19L28 18ZM33 18L33 20L34 20L34 21L36 21L36 20L35 20L35 19L34 19L34 18ZM6 19L6 20L4 20L4 21L5 21L5 22L8 22L8 20L7 20L7 19ZM24 19L24 20L25 20L25 19ZM2 20L2 22L3 22L3 20ZM6 20L6 21L7 21L7 20ZM40 20L40 21L41 21L41 20ZM16 21L16 22L17 22L17 21ZM13 23L13 25L15 25L15 24L14 24L14 23ZM6 24L6 25L7 25L7 24ZM17 24L17 25L16 25L16 26L15 26L15 27L14 27L14 28L13 28L13 29L14 29L14 30L16 30L16 29L17 29L17 31L15 31L15 32L17 32L17 31L18 31L18 29L20 29L20 28L21 28L21 27L20 27L20 26L19 26L19 25L20 25L20 24ZM24 24L24 25L25 25L25 26L26 26L26 25L25 25L25 24ZM4 25L4 26L5 26L5 25ZM17 25L17 26L16 26L16 27L15 27L15 28L19 28L19 27L18 27L18 25ZM35 25L35 26L36 26L36 25ZM22 27L22 30L21 30L21 31L19 31L19 32L18 32L18 33L19 33L19 32L22 32L22 30L24 30L24 31L23 31L23 33L25 33L25 30L26 30L26 29L25 29L25 28L26 28L26 27L25 27L25 28L24 28L24 29L23 29L23 27ZM7 28L7 29L6 29L6 30L8 30L8 28ZM27 28L27 30L29 30L29 29L30 29L30 31L31 31L31 29L30 29L30 28L29 28L29 29L28 29L28 28ZM32 28L32 29L33 29L33 30L32 30L32 31L33 31L33 30L34 30L34 29L33 29L33 28ZM0 29L0 33L1 33L1 30L2 30L2 29ZM37 30L37 32L39 32L39 31L38 31L38 30ZM26 31L26 34L24 34L24 36L23 36L23 37L25 37L25 36L27 36L27 37L28 37L28 36L29 36L29 35L28 35L28 34L27 34L27 31ZM28 31L28 33L31 33L31 32L29 32L29 31ZM33 33L33 36L36 36L36 33ZM37 33L37 36L39 36L39 33ZM26 34L26 35L27 35L27 36L28 36L28 35L27 35L27 34ZM34 34L34 35L35 35L35 34ZM18 35L18 36L19 36L19 37L20 37L20 35ZM8 36L8 39L9 39L9 36ZM30 36L30 37L31 37L31 36ZM34 37L34 38L36 38L36 37ZM0 0L0 7L7 7L7 0ZM1 1L1 6L6 6L6 1ZM2 2L2 5L5 5L5 2ZM34 0L34 7L41 7L41 0ZM35 1L35 6L40 6L40 1ZM36 2L36 5L39 5L39 2ZM0 34L0 41L7 41L7 34ZM1 35L1 40L6 40L6 35ZM2 36L2 39L5 39L5 36Z" fill="#000000"/></g></g></svg>
