<?xml version="1.0" encoding="UTF-8"?>
<svg xmlns="http://www.w3.org/2000/svg" version="1.1" width="200" height="200" viewBox="0 0 200 200"><rect x="0" y="0" width="200" height="200" fill="#ffffff"/><g transform="scale(6.897)"><g transform="translate(0,0)"><path fill-rule="evenodd" d="M8 0L8 1L9 1L9 2L11 2L11 1L12 1L12 0L11 0L11 1L10 1L10 0ZM14 0L14 1L13 1L13 2L12 2L12 3L10 3L10 4L9 4L9 3L8 3L8 4L9 4L9 6L8 6L8 7L9 7L9 6L10 6L10 8L8 8L8 9L10 9L10 10L8 10L8 11L7 11L7 10L6 10L6 9L7 9L7 8L4 8L4 9L3 9L3 8L2 8L2 10L4 10L4 9L5 9L5 10L6 10L6 11L5 11L5 13L8 13L8 11L11 11L11 12L10 12L10 14L11 14L11 13L12 13L12 12L14 12L14 13L15 13L15 12L14 12L14 10L13 10L13 11L11 11L11 9L12 9L12 8L13 8L13 9L14 9L14 8L15 8L15 5L18 5L18 7L19 7L19 5L20 5L20 9L19 9L19 10L18 10L18 9L17 9L17 6L16 6L16 9L15 9L15 11L16 11L16 13L18 13L18 14L17 14L17 15L15 15L15 16L14 16L14 17L15 17L15 19L16 19L16 20L13 20L13 21L12 21L12 20L11 20L11 19L13 19L13 17L12 17L12 16L13 16L13 15L12 15L12 16L10 16L10 17L12 17L12 18L11 18L11 19L10 19L10 20L9 20L9 16L8 16L8 14L3 14L3 13L4 13L4 12L3 12L3 13L2 13L2 11L0 11L0 13L1 13L1 14L0 14L0 15L1 15L1 18L0 18L0 19L1 19L1 20L0 20L0 21L1 21L1 20L2 20L2 21L8 21L8 22L9 22L9 23L8 23L8 25L9 25L9 26L8 26L8 27L9 27L9 28L10 28L10 29L12 29L12 28L11 28L11 27L12 27L12 26L11 26L11 27L9 27L9 26L10 26L10 25L9 25L9 24L10 24L10 23L11 23L11 22L9 22L9 21L10 21L10 20L11 20L11 21L12 21L12 22L13 22L13 21L14 21L14 24L16 24L16 25L15 25L15 26L13 26L13 27L15 27L15 29L18 29L18 28L19 28L19 29L20 29L20 27L21 27L21 26L22 26L22 25L23 25L23 26L24 26L24 25L26 25L26 29L27 29L27 28L28 28L28 29L29 29L29 26L28 26L28 25L27 25L27 24L28 24L28 23L29 23L29 22L28 22L28 19L29 19L29 18L27 18L27 17L26 17L26 14L24 14L24 13L25 13L25 11L26 11L26 13L27 13L27 14L28 14L28 15L27 15L27 16L28 16L28 17L29 17L29 16L28 16L28 15L29 15L29 14L28 14L28 13L29 13L29 12L28 12L28 11L29 11L29 8L28 8L28 9L26 9L26 8L25 8L25 9L24 9L24 10L25 10L25 11L24 11L24 12L23 12L23 10L22 10L22 8L21 8L21 0L20 0L20 1L19 1L19 2L20 2L20 3L19 3L19 4L18 4L18 3L17 3L17 2L18 2L18 1L17 1L17 0L16 0L16 1L15 1L15 0ZM14 1L14 2L13 2L13 3L12 3L12 4L11 4L11 5L12 5L12 6L11 6L11 7L12 7L12 6L13 6L13 8L14 8L14 6L13 6L13 5L12 5L12 4L13 4L13 3L14 3L14 4L15 4L15 1ZM10 8L10 9L11 9L11 8ZM16 9L16 10L17 10L17 11L18 11L18 12L20 12L20 11L18 11L18 10L17 10L17 9ZM25 9L25 10L26 10L26 11L28 11L28 10L26 10L26 9ZM6 11L6 12L7 12L7 11ZM21 11L21 12L22 12L22 11ZM27 12L27 13L28 13L28 12ZM20 13L20 14L18 14L18 15L20 15L20 16L19 16L19 17L20 17L20 18L18 18L18 16L16 16L16 18L17 18L17 20L16 20L16 21L17 21L17 23L18 23L18 24L19 24L19 26L20 26L20 24L19 24L19 23L20 23L20 22L19 22L19 23L18 23L18 19L20 19L20 20L19 20L19 21L20 21L20 20L21 20L21 19L22 19L22 18L23 18L23 19L24 19L24 20L25 20L25 23L26 23L26 24L27 24L27 21L26 21L26 20L27 20L27 19L24 19L24 18L26 18L26 17L24 17L24 16L25 16L25 15L24 15L24 14L23 14L23 15L22 15L22 14L21 14L21 13ZM1 14L1 15L3 15L3 16L4 16L4 17L5 17L5 18L4 18L4 19L3 19L3 20L8 20L8 16L7 16L7 15L3 15L3 14ZM20 14L20 15L21 15L21 14ZM23 15L23 16L22 16L22 17L23 17L23 18L24 18L24 17L23 17L23 16L24 16L24 15ZM6 16L6 17L7 17L7 16ZM2 17L2 18L1 18L1 19L2 19L2 18L3 18L3 17ZM5 18L5 19L7 19L7 18ZM21 21L21 24L24 24L24 21ZM15 22L15 23L16 23L16 22ZM22 22L22 23L23 23L23 22ZM11 24L11 25L12 25L12 24ZM16 25L16 26L18 26L18 25ZM27 26L27 27L28 27L28 26ZM17 27L17 28L18 28L18 27ZM22 27L22 28L23 28L23 29L25 29L25 28L23 28L23 27ZM13 28L13 29L14 29L14 28ZM0 0L0 7L7 7L7 0ZM1 1L1 6L6 6L6 1ZM2 2L2 5L5 5L5 2ZM22 0L22 7L29 7L29 0ZM23 1L23 6L28 6L28 1ZM24 2L24 5L27 5L27 2ZM0 22L0 29L7 29L7 22ZM1 23L1 28L6 28L6 23ZM2 24L2 27L5 27L5 24Z" fill="#000000"/></g></g></svg>
