<?xml version="1.0" encoding="UTF-8"?>
<svg xmlns="http://www.w3.org/2000/svg" version="1.1" width="200" height="200" viewBox="0 0 200 200"><rect x="0" y="0" width="200" height="200" fill="#ffffff"/><g transform="scale(6.897)"><g transform="translate(0,0)"><path fill-rule="evenodd" d="M8 0L8 3L10 3L10 4L9 4L9 5L8 5L8 9L7 9L7 8L6 8L6 9L7 9L7 10L6 10L6 11L7 11L7 10L8 10L8 9L9 9L9 8L10 8L10 7L11 7L11 6L10 6L10 7L9 7L9 5L10 5L10 4L11 4L11 1L12 1L12 0L10 0L10 1L9 1L9 0ZM15 0L15 2L14 2L14 3L15 3L15 4L17 4L17 6L16 6L16 8L15 8L15 5L14 5L14 4L13 4L13 3L12 3L12 7L13 7L13 6L14 6L14 8L11 8L11 12L13 12L13 11L15 11L15 10L16 10L16 11L17 11L17 9L16 9L16 8L21 8L21 9L20 9L20 10L19 10L19 9L18 9L18 12L17 12L17 14L13 14L13 13L10 13L10 12L9 12L9 11L8 11L8 13L7 13L7 12L4 12L4 13L5 13L5 16L4 16L4 17L2 17L2 16L3 16L3 12L0 12L0 13L2 13L2 14L0 14L0 21L1 21L1 18L2 18L2 21L3 21L3 20L4 20L4 19L5 19L5 21L8 21L8 22L9 22L9 24L8 24L8 27L9 27L9 29L10 29L10 28L11 28L11 29L12 29L12 28L13 28L13 29L16 29L16 28L17 28L17 29L18 29L18 27L20 27L20 26L21 26L21 27L22 27L22 28L19 28L19 29L26 29L26 27L27 27L27 29L28 29L28 28L29 28L29 27L28 27L28 25L29 25L29 24L28 24L28 23L27 23L27 22L28 22L28 21L29 21L29 20L28 20L28 19L27 19L27 17L28 17L28 15L27 15L27 14L29 14L29 13L28 13L28 10L29 10L29 8L26 8L26 9L27 9L27 11L26 11L26 10L25 10L25 12L24 12L24 11L22 11L22 12L23 12L23 13L21 13L21 15L22 15L22 14L23 14L23 13L24 13L24 19L25 19L25 18L26 18L26 20L28 20L28 21L27 21L27 22L26 22L26 21L25 21L25 20L23 20L23 19L22 19L22 18L20 18L20 19L21 19L21 20L20 20L20 25L19 25L19 24L17 24L17 23L19 23L19 22L17 22L17 20L18 20L18 21L19 21L19 20L18 20L18 19L17 19L17 18L18 18L18 16L19 16L19 14L18 14L18 13L20 13L20 12L21 12L21 11L20 11L20 10L22 10L22 9L23 9L23 10L24 10L24 8L21 8L21 5L20 5L20 4L21 4L21 3L20 3L20 4L19 4L19 3L18 3L18 4L17 4L17 1L16 1L16 0ZM18 1L18 2L19 2L19 1ZM20 1L20 2L21 2L21 1ZM18 5L18 6L17 6L17 7L18 7L18 6L19 6L19 7L20 7L20 6L19 6L19 5ZM2 8L2 9L5 9L5 8ZM0 9L0 10L1 10L1 9ZM12 9L12 10L13 10L13 9ZM14 9L14 10L15 10L15 9ZM2 10L2 11L5 11L5 10ZM15 12L15 13L16 13L16 12ZM25 12L25 13L26 13L26 14L27 14L27 12ZM6 13L6 14L7 14L7 13ZM8 13L8 14L9 14L9 15L6 15L6 16L5 16L5 17L6 17L6 18L7 18L7 19L6 19L6 20L7 20L7 19L8 19L8 18L7 18L7 17L9 17L9 18L11 18L11 17L10 17L10 15L12 15L12 17L13 17L13 14L10 14L10 13ZM14 15L14 18L13 18L13 19L14 19L14 21L13 21L13 20L12 20L12 22L11 22L11 21L10 21L10 19L9 19L9 20L8 20L8 21L9 21L9 22L10 22L10 24L9 24L9 25L10 25L10 26L11 26L11 28L12 28L12 26L11 26L11 25L10 25L10 24L11 24L11 23L13 23L13 22L14 22L14 21L15 21L15 19L14 19L14 18L16 18L16 16L15 16L15 15ZM17 15L17 16L18 16L18 15ZM25 15L25 16L27 16L27 15ZM6 16L6 17L7 17L7 16ZM20 16L20 17L22 17L22 16ZM3 18L3 19L4 19L4 18ZM16 19L16 20L17 20L17 19ZM21 21L21 24L24 24L24 21ZM16 22L16 23L17 23L17 22ZM22 22L22 23L23 23L23 22ZM25 22L25 24L26 24L26 25L25 25L25 26L24 26L24 25L22 25L22 26L23 26L23 27L25 27L25 26L26 26L26 25L27 25L27 23L26 23L26 22ZM13 24L13 25L14 25L14 24ZM16 24L16 25L15 25L15 26L14 26L14 28L15 28L15 26L17 26L17 24ZM0 0L0 7L7 7L7 0ZM1 1L1 6L6 6L6 1ZM2 2L2 5L5 5L5 2ZM22 0L22 7L29 7L29 0ZM23 1L23 6L28 6L28 1ZM24 2L24 5L27 5L27 2ZM0 22L0 29L7 29L7 22ZM1 23L1 28L6 28L6 23ZM2 24L2 27L5 27L5 24Z" fill="#000000"/></g></g></svg>
