<?xml version="1.0" encoding="UTF-8"?>
<svg xmlns="http://www.w3.org/2000/svg" version="1.1" width="200" height="200" viewBox="0 0 200 200"><rect x="0" y="0" width="200" height="200" fill="#ffffff"/><g transform="scale(6.897)"><g transform="translate(0,0)"><path fill-rule="evenodd" d="M9 0L9 1L8 1L8 7L9 7L9 8L5 8L5 9L9 9L9 8L10 8L10 7L11 7L11 6L12 6L12 7L13 7L13 8L11 8L11 9L10 9L10 10L9 10L9 11L8 11L8 12L10 12L10 10L12 10L12 11L11 11L11 12L12 12L12 13L10 13L10 14L9 14L9 16L8 16L8 15L7 15L7 14L8 14L8 13L7 13L7 12L6 12L6 11L7 11L7 10L4 10L4 9L3 9L3 8L2 8L2 10L3 10L3 11L2 11L2 12L1 12L1 13L0 13L0 15L3 15L3 18L4 18L4 19L3 19L3 20L0 20L0 21L5 21L5 20L4 20L4 19L7 19L7 18L5 18L5 17L4 17L4 13L5 13L5 12L6 12L6 13L7 13L7 14L5 14L5 15L7 15L7 16L6 16L6 17L7 17L7 16L8 16L8 18L9 18L9 16L10 16L10 19L8 19L8 20L6 20L6 21L8 21L8 24L9 24L9 22L10 22L10 24L11 24L11 22L13 22L13 21L11 21L11 22L10 22L10 21L9 21L9 20L10 20L10 19L12 19L12 20L13 20L13 19L14 19L14 18L13 18L13 16L14 16L14 14L13 14L13 12L12 12L12 11L14 11L14 13L16 13L16 14L15 14L15 15L16 15L16 16L17 16L17 15L18 15L18 16L19 16L19 17L20 17L20 16L19 16L19 15L21 15L21 19L22 19L22 20L19 20L19 19L20 19L20 18L19 18L19 19L18 19L18 20L19 20L19 21L20 21L20 22L19 22L19 23L20 23L20 24L19 24L19 25L18 25L18 24L17 24L17 23L16 23L16 24L14 24L14 23L12 23L12 24L14 24L14 26L13 26L13 27L14 27L14 26L15 26L15 29L16 29L16 26L15 26L15 25L16 25L16 24L17 24L17 26L20 26L20 27L21 27L21 29L22 29L22 28L24 28L24 29L25 29L25 28L24 28L24 26L23 26L23 27L22 27L22 26L21 26L21 25L25 25L25 23L26 23L26 21L27 21L27 23L28 23L28 22L29 22L29 21L27 21L27 20L26 20L26 19L27 19L27 18L28 18L28 19L29 19L29 18L28 18L28 17L29 17L29 16L27 16L27 17L25 17L25 16L22 16L22 15L25 15L25 14L26 14L26 13L28 13L28 15L29 15L29 12L27 12L27 11L29 11L29 9L28 9L28 8L23 8L23 10L22 10L22 11L21 11L21 9L22 9L22 8L20 8L20 7L21 7L21 0L19 0L19 1L20 1L20 2L19 2L19 3L20 3L20 5L16 5L16 4L17 4L17 3L18 3L18 2L16 2L16 1L18 1L18 0L16 0L16 1L15 1L15 2L12 2L12 0L11 0L11 2L10 2L10 4L9 4L9 1L10 1L10 0ZM11 2L11 4L10 4L10 5L12 5L12 6L13 6L13 7L14 7L14 4L13 4L13 5L12 5L12 2ZM9 6L9 7L10 7L10 6ZM15 6L15 9L12 9L12 10L15 10L15 12L16 12L16 10L17 10L17 13L18 13L18 15L19 15L19 14L22 14L22 12L21 12L21 13L20 13L20 12L19 12L19 11L20 11L20 8L19 8L19 7L20 7L20 6L19 6L19 7L18 7L18 6L17 6L17 7L16 7L16 6ZM17 7L17 8L16 8L16 9L15 9L15 10L16 10L16 9L17 9L17 10L18 10L18 7ZM25 9L25 10L24 10L24 11L27 11L27 10L28 10L28 9ZM0 10L0 11L1 11L1 10ZM3 11L3 12L5 12L5 11ZM18 12L18 13L19 13L19 12ZM23 12L23 14L25 14L25 13L24 13L24 12ZM1 13L1 14L3 14L3 13ZM10 14L10 15L11 15L11 14ZM12 14L12 15L13 15L13 14ZM16 14L16 15L17 15L17 14ZM1 16L1 17L2 17L2 16ZM11 16L11 17L12 17L12 16ZM15 17L15 18L16 18L16 19L15 19L15 20L14 20L14 22L18 22L18 21L16 21L16 20L17 20L17 18L16 18L16 17ZM22 17L22 18L25 18L25 19L23 19L23 20L25 20L25 19L26 19L26 18L25 18L25 17ZM0 18L0 19L2 19L2 18ZM21 21L21 24L24 24L24 21ZM22 22L22 23L23 23L23 22ZM26 24L26 26L25 26L25 27L26 27L26 26L27 26L27 27L28 27L28 28L26 28L26 29L29 29L29 26L27 26L27 25L29 25L29 24ZM8 26L8 27L9 27L9 26ZM10 26L10 28L9 28L9 29L11 29L11 27L12 27L12 26ZM18 28L18 29L19 29L19 28ZM0 0L0 7L7 7L7 0ZM1 1L1 6L6 6L6 1ZM2 2L2 5L5 5L5 2ZM22 0L22 7L29 7L29 0ZM23 1L23 6L28 6L28 1ZM24 2L24 5L27 5L27 2ZM0 22L0 29L7 29L7 22ZM1 23L1 28L6 28L6 23ZM2 24L2 27L5 27L5 24Z" fill="#000000"/></g></g></svg>
