<?xml version="1.0" encoding="UTF-8"?>
<svg xmlns="http://www.w3.org/2000/svg" version="1.1" width="200" height="200" viewBox="0 0 200 200"><rect x="0" y="0" width="200" height="200" fill="#ffffff"/><g transform="scale(6.897)"><g transform="translate(0,0)"><path fill-rule="evenodd" d="M10 0L10 2L11 2L11 3L10 3L10 4L8 4L8 5L9 5L9 6L8 6L8 8L6 8L6 9L5 9L5 10L4 10L4 13L3 13L3 14L1 14L1 16L2 16L2 17L1 17L1 18L0 18L0 19L1 19L1 18L2 18L2 19L3 19L3 20L1 20L1 21L8 21L8 23L9 23L9 25L8 25L8 27L9 27L9 28L11 28L11 27L9 27L9 25L10 25L10 26L12 26L12 25L13 25L13 26L17 26L17 28L18 28L18 29L20 29L20 28L18 28L18 26L20 26L20 25L23 25L23 26L24 26L24 27L22 27L22 29L23 29L23 28L25 28L25 29L27 29L27 28L29 28L29 26L28 26L28 27L27 27L27 26L26 26L26 27L25 27L25 26L24 26L24 25L26 25L26 23L25 23L25 22L26 22L26 20L27 20L27 23L28 23L28 24L27 24L27 25L29 25L29 23L28 23L28 20L27 20L27 18L29 18L29 17L26 17L26 16L25 16L25 15L24 15L24 16L23 16L23 17L21 17L21 18L20 18L20 17L19 17L19 16L18 16L18 17L17 17L17 18L20 18L20 20L19 20L19 19L18 19L18 20L19 20L19 21L20 21L20 23L19 23L19 24L18 24L18 26L17 26L17 24L14 24L14 25L13 25L13 24L12 24L12 23L15 23L15 22L17 22L17 23L18 23L18 21L16 21L16 20L15 20L15 18L16 18L16 16L17 16L17 15L18 15L18 14L19 14L19 15L20 15L20 14L21 14L21 13L20 13L20 12L22 12L22 9L23 9L23 13L22 13L22 15L23 15L23 14L24 14L24 13L25 13L25 14L26 14L26 15L27 15L27 16L28 16L28 14L27 14L27 13L28 13L28 12L29 12L29 11L28 11L28 12L27 12L27 11L26 11L26 10L24 10L24 9L25 9L25 8L24 8L24 9L23 9L23 8L21 8L21 9L20 9L20 7L21 7L21 3L20 3L20 2L18 2L18 1L16 1L16 2L15 2L15 0L14 0L14 2L13 2L13 1L12 1L12 0ZM12 2L12 3L11 3L11 4L10 4L10 6L9 6L9 7L10 7L10 6L11 6L11 7L12 7L12 6L13 6L13 7L14 7L14 8L13 8L13 9L14 9L14 8L15 8L15 9L16 9L16 10L14 10L14 12L12 12L12 11L13 11L13 10L10 10L10 9L11 9L11 8L10 8L10 9L9 9L9 10L10 10L10 11L11 11L11 12L10 12L10 13L9 13L9 14L10 14L10 17L12 17L12 16L14 16L14 15L12 15L12 14L14 14L14 13L16 13L16 14L15 14L15 15L17 15L17 14L18 14L18 13L17 13L17 12L20 12L20 11L19 11L19 10L20 10L20 9L19 9L19 10L18 10L18 8L19 8L19 7L20 7L20 5L19 5L19 4L20 4L20 3L19 3L19 4L18 4L18 2L17 2L17 4L16 4L16 3L13 3L13 2ZM12 3L12 4L11 4L11 5L12 5L12 4L13 4L13 3ZM14 4L14 5L13 5L13 6L14 6L14 7L15 7L15 8L17 8L17 6L18 6L18 7L19 7L19 5L16 5L16 4ZM14 5L14 6L15 6L15 7L16 7L16 6L15 6L15 5ZM2 8L2 11L1 11L1 9L0 9L0 13L2 13L2 12L3 12L3 9L4 9L4 8ZM6 9L6 10L7 10L7 11L5 11L5 12L7 12L7 13L4 13L4 15L3 15L3 17L4 17L4 18L5 18L5 17L6 17L6 18L7 18L7 17L8 17L8 18L9 18L9 17L8 17L8 16L9 16L9 15L8 15L8 14L7 14L7 13L8 13L8 12L9 12L9 11L8 11L8 10L7 10L7 9ZM27 9L27 10L29 10L29 9ZM17 10L17 11L16 11L16 12L17 12L17 11L18 11L18 10ZM25 11L25 13L27 13L27 12L26 12L26 11ZM11 12L11 13L10 13L10 14L11 14L11 13L12 13L12 12ZM19 13L19 14L20 14L20 13ZM5 14L5 15L4 15L4 16L5 16L5 15L7 15L7 14ZM11 15L11 16L12 16L12 15ZM6 16L6 17L7 17L7 16ZM24 16L24 17L23 17L23 18L22 18L22 19L21 19L21 20L22 20L22 19L24 19L24 20L25 20L25 19L24 19L24 18L26 18L26 17L25 17L25 16ZM13 17L13 19L14 19L14 17ZM11 18L11 20L10 20L10 22L9 22L9 23L10 23L10 24L11 24L11 21L12 21L12 22L14 22L14 21L15 21L15 20L13 20L13 21L12 21L12 18ZM4 19L4 20L7 20L7 19ZM8 20L8 21L9 21L9 20ZM21 21L21 24L24 24L24 21ZM22 22L22 23L23 23L23 22ZM19 24L19 25L20 25L20 24ZM12 27L12 29L14 29L14 27ZM26 27L26 28L27 28L27 27ZM0 0L0 7L7 7L7 0ZM1 1L1 6L6 6L6 1ZM2 2L2 5L5 5L5 2ZM22 0L22 7L29 7L29 0ZM23 1L23 6L28 6L28 1ZM24 2L24 5L27 5L27 2ZM0 22L0 29L7 29L7 22ZM1 23L1 28L6 28L6 23ZM2 24L2 27L5 27L5 24Z" fill="#000000"/></g></g></svg>
