<?xml version="1.0" encoding="UTF-8"?>
<svg xmlns="http://www.w3.org/2000/svg" version="1.1" width="200" height="200" viewBox="0 0 200 200"><rect x="0" y="0" width="200" height="200" fill="#ffffff"/><g transform="scale(6.897)"><g transform="translate(0,0)"><path fill-rule="evenodd" d="M10 0L10 2L11 2L11 1L12 1L12 3L10 3L10 4L11 4L11 5L10 5L10 7L11 7L11 8L9 8L9 6L8 6L8 8L6 8L6 9L7 9L7 10L4 10L4 8L2 8L2 9L0 9L0 16L1 16L1 17L5 17L5 16L6 16L6 17L7 17L7 16L6 16L6 15L7 15L7 14L8 14L8 15L9 15L9 16L8 16L8 17L9 17L9 18L4 18L4 19L7 19L7 20L3 20L3 21L8 21L8 23L11 23L11 25L12 25L12 23L13 23L13 24L14 24L14 23L13 23L13 22L12 22L12 21L13 21L13 20L15 20L15 19L16 19L16 18L18 18L18 17L19 17L19 18L20 18L20 20L19 20L19 19L18 19L18 20L19 20L19 21L20 21L20 23L19 23L19 22L18 22L18 21L14 21L14 22L18 22L18 23L17 23L17 24L15 24L15 25L16 25L16 26L17 26L17 28L18 28L18 29L20 29L20 28L18 28L18 26L20 26L20 25L23 25L23 26L24 26L24 27L22 27L22 29L23 29L23 28L25 28L25 29L26 29L26 28L29 28L29 26L28 26L28 27L26 27L26 28L25 28L25 26L24 26L24 25L26 25L26 26L27 26L27 25L29 25L29 23L28 23L28 20L27 20L27 18L29 18L29 17L26 17L26 16L25 16L25 15L24 15L24 16L23 16L23 17L21 17L21 18L20 18L20 17L19 17L19 15L20 15L20 14L21 14L21 13L20 13L20 12L22 12L22 9L23 9L23 13L22 13L22 15L23 15L23 14L24 14L24 13L25 13L25 14L26 14L26 15L27 15L27 16L28 16L28 15L29 15L29 14L28 14L28 15L27 15L27 13L28 13L28 12L29 12L29 11L28 11L28 12L27 12L27 11L26 11L26 10L29 10L29 9L25 9L25 8L24 8L24 9L23 9L23 8L21 8L21 9L20 9L20 7L21 7L21 3L20 3L20 2L18 2L18 1L17 1L17 2L16 2L16 4L13 4L13 3L15 3L15 1L16 1L16 0L15 0L15 1L14 1L14 2L13 2L13 0ZM17 2L17 4L16 4L16 5L19 5L19 7L18 7L18 6L17 6L17 10L16 10L16 11L17 11L17 12L16 12L16 14L15 14L15 15L14 15L14 16L15 16L15 15L17 15L17 16L16 16L16 17L12 17L12 16L13 16L13 15L12 15L12 14L14 14L14 13L15 13L15 9L16 9L16 8L14 8L14 6L15 6L15 7L16 7L16 6L15 6L15 5L14 5L14 6L13 6L13 4L12 4L12 5L11 5L11 7L12 7L12 6L13 6L13 8L12 8L12 9L11 9L11 10L10 10L10 9L9 9L9 10L10 10L10 11L11 11L11 12L10 12L10 13L11 13L11 14L10 14L10 15L12 15L12 16L11 16L11 17L12 17L12 18L11 18L11 19L14 19L14 18L16 18L16 17L18 17L18 15L19 15L19 14L20 14L20 13L19 13L19 14L18 14L18 13L17 13L17 12L20 12L20 11L19 11L19 10L20 10L20 9L19 9L19 10L18 10L18 8L19 8L19 7L20 7L20 5L19 5L19 4L20 4L20 3L19 3L19 4L18 4L18 2ZM8 4L8 5L9 5L9 4ZM13 8L13 9L12 9L12 10L11 10L11 11L12 11L12 10L13 10L13 12L14 12L14 8ZM2 9L2 10L1 10L1 11L2 11L2 10L3 10L3 9ZM24 9L24 10L25 10L25 9ZM17 10L17 11L18 11L18 10ZM5 11L5 12L9 12L9 11ZM25 11L25 13L27 13L27 12L26 12L26 11ZM3 12L3 13L1 13L1 14L3 14L3 13L4 13L4 12ZM5 13L5 14L4 14L4 15L3 15L3 16L5 16L5 15L6 15L6 14L7 14L7 13ZM17 14L17 15L18 15L18 14ZM1 15L1 16L2 16L2 15ZM9 16L9 17L10 17L10 16ZM24 16L24 17L23 17L23 18L22 18L22 19L21 19L21 20L22 20L22 19L24 19L24 20L25 20L25 19L26 19L26 17L25 17L25 16ZM0 18L0 19L1 19L1 18ZM24 18L24 19L25 19L25 18ZM8 19L8 21L9 21L9 22L11 22L11 20L10 20L10 21L9 21L9 19ZM1 20L1 21L2 21L2 20ZM26 20L26 22L25 22L25 23L26 23L26 25L27 25L27 24L28 24L28 23L27 23L27 20ZM21 21L21 24L24 24L24 21ZM22 22L22 23L23 23L23 22ZM19 24L19 25L20 25L20 24ZM8 25L8 27L9 27L9 28L11 28L11 27L9 27L9 25ZM13 25L13 26L12 26L12 27L13 27L13 28L12 28L12 29L14 29L14 27L13 27L13 26L14 26L14 25ZM17 25L17 26L18 26L18 25ZM0 0L0 7L7 7L7 0ZM1 1L1 6L6 6L6 1ZM2 2L2 5L5 5L5 2ZM22 0L22 7L29 7L29 0ZM23 1L23 6L28 6L28 1ZM24 2L24 5L27 5L27 2ZM0 22L0 29L7 29L7 22ZM1 23L1 28L6 28L6 23ZM2 24L2 27L5 27L5 24Z" fill="#000000"/></g></g></svg>
