<?xml version="1.0" encoding="UTF-8"?>
<svg xmlns="http://www.w3.org/2000/svg" version="1.1" width="200" height="200" viewBox="0 0 200 200"><rect x="0" y="0" width="200" height="200" fill="#ffffff"/><g transform="scale(6.897)"><g transform="translate(0,0)"><path fill-rule="evenodd" d="M14 0L14 1L13 1L13 2L14 2L14 3L15 3L15 5L13 5L13 3L12 3L12 5L11 5L11 1L10 1L10 3L9 3L9 1L8 1L8 7L9 7L9 6L10 6L10 7L11 7L11 8L5 8L5 9L4 9L4 10L3 10L3 11L2 11L2 9L3 9L3 8L2 8L2 9L0 9L0 10L1 10L1 11L0 11L0 13L1 13L1 14L2 14L2 16L1 16L1 15L0 15L0 17L1 17L1 18L0 18L0 19L2 19L2 20L0 20L0 21L2 21L2 20L3 20L3 21L5 21L5 20L4 20L4 19L2 19L2 17L3 17L3 18L4 18L4 17L3 17L3 15L4 15L4 14L6 14L6 15L5 15L5 16L6 16L6 17L5 17L5 19L7 19L7 18L6 18L6 17L9 17L9 14L10 14L10 16L11 16L11 17L10 17L10 19L12 19L12 18L13 18L13 16L12 16L12 14L13 14L13 15L14 15L14 14L13 14L13 12L14 12L14 13L15 13L15 14L16 14L16 15L17 15L17 16L16 16L16 17L14 17L14 19L13 19L13 20L6 20L6 21L8 21L8 24L9 24L9 25L10 25L10 26L8 26L8 27L9 27L9 29L10 29L10 26L11 26L11 27L12 27L12 26L13 26L13 28L11 28L11 29L16 29L16 28L15 28L15 27L18 27L18 26L17 26L17 23L16 23L16 21L17 21L17 22L19 22L19 21L20 21L20 25L25 25L25 26L26 26L26 28L24 28L24 26L23 26L23 27L22 27L22 26L21 26L21 29L22 29L22 28L24 28L24 29L26 29L26 28L27 28L27 29L29 29L29 26L26 26L26 25L27 25L27 24L28 24L28 25L29 25L29 24L28 24L28 23L29 23L29 21L27 21L27 20L26 20L26 19L27 19L27 18L28 18L28 19L29 19L29 18L28 18L28 17L29 17L29 15L28 15L28 16L27 16L27 17L25 17L25 16L22 16L22 15L25 15L25 14L26 14L26 13L27 13L27 14L28 14L28 13L29 13L29 12L27 12L27 11L29 11L29 9L28 9L28 8L23 8L23 10L22 10L22 11L21 11L21 9L22 9L22 8L21 8L21 0L19 0L19 1L20 1L20 2L19 2L19 3L20 3L20 5L19 5L19 4L18 4L18 5L17 5L17 3L18 3L18 2L17 2L17 1L18 1L18 0L16 0L16 1L15 1L15 0ZM14 1L14 2L15 2L15 1ZM9 4L9 5L10 5L10 4ZM16 5L16 6L15 6L15 7L14 7L14 6L13 6L13 7L12 7L12 6L11 6L11 7L12 7L12 8L11 8L11 9L10 9L10 10L11 10L11 9L12 9L12 12L11 12L11 11L10 11L10 12L9 12L9 10L8 10L8 9L5 9L5 10L4 10L4 12L3 12L3 14L4 14L4 13L6 13L6 14L8 14L8 12L9 12L9 13L10 13L10 12L11 12L11 13L12 13L12 12L13 12L13 11L14 11L14 10L15 10L15 7L16 7L16 6L17 6L17 7L18 7L18 11L20 11L20 9L19 9L19 7L20 7L20 6L19 6L19 7L18 7L18 6L17 6L17 5ZM13 7L13 10L14 10L14 7ZM26 9L26 10L24 10L24 11L26 11L26 10L28 10L28 9ZM5 10L5 12L6 12L6 13L7 13L7 12L8 12L8 10ZM16 10L16 12L15 12L15 13L16 13L16 14L17 14L17 13L16 13L16 12L17 12L17 10ZM6 11L6 12L7 12L7 11ZM1 12L1 13L2 13L2 12ZM18 12L18 16L20 16L20 17L17 17L17 18L18 18L18 21L19 21L19 20L22 20L22 19L21 19L21 15L19 15L19 14L22 14L22 12L21 12L21 13L20 13L20 12ZM23 12L23 14L25 14L25 13L24 13L24 12ZM6 15L6 16L8 16L8 15ZM11 17L11 18L12 18L12 17ZM22 17L22 18L25 18L25 19L26 19L26 18L25 18L25 17ZM15 18L15 19L14 19L14 20L13 20L13 22L12 22L12 21L9 21L9 23L10 23L10 25L11 25L11 26L12 26L12 25L11 25L11 24L12 24L12 23L13 23L13 24L14 24L14 26L15 26L15 23L14 23L14 22L15 22L15 21L16 21L16 20L17 20L17 19L16 19L16 18ZM19 18L19 19L20 19L20 18ZM15 19L15 20L16 20L16 19ZM23 19L23 20L24 20L24 19ZM21 21L21 24L24 24L24 21ZM26 21L26 23L25 23L25 25L26 25L26 24L27 24L27 23L28 23L28 22L27 22L27 21ZM10 22L10 23L12 23L12 22ZM22 22L22 23L23 23L23 22ZM18 23L18 25L19 25L19 23ZM27 27L27 28L28 28L28 27ZM17 28L17 29L18 29L18 28ZM0 0L0 7L7 7L7 0ZM1 1L1 6L6 6L6 1ZM2 2L2 5L5 5L5 2ZM22 0L22 7L29 7L29 0ZM23 1L23 6L28 6L28 1ZM24 2L24 5L27 5L27 2ZM0 22L0 29L7 29L7 22ZM1 23L1 28L6 28L6 23ZM2 24L2 27L5 27L5 24Z" fill="#000000"/></g></g></svg>
