<?xml version="1.0" encoding="UTF-8"?>
<svg xmlns="http://www.w3.org/2000/svg" version="1.1" width="200" height="200" viewBox="0 0 200 200"><rect x="0" y="0" width="200" height="200" fill="#ffffff"/><g transform="scale(6.897)"><g transform="translate(0,0)"><path fill-rule="evenodd" d="M9 0L9 1L10 1L10 2L8 2L8 4L9 4L9 5L10 5L10 7L11 7L11 6L12 6L12 7L13 7L13 6L14 6L14 9L13 9L13 8L11 8L11 12L12 12L12 13L9 13L9 12L10 12L10 11L9 11L9 10L8 10L8 8L6 8L6 9L5 9L5 8L3 8L3 9L1 9L1 11L2 11L2 12L1 12L1 13L2 13L2 15L3 15L3 16L4 16L4 15L5 15L5 14L4 14L4 15L3 15L3 13L4 13L4 12L3 12L3 11L4 11L4 10L6 10L6 11L9 11L9 12L6 12L6 13L9 13L9 14L12 14L12 13L13 13L13 14L17 14L17 16L15 16L15 15L14 15L14 16L15 16L15 17L14 17L14 19L13 19L13 20L14 20L14 21L15 21L15 23L13 23L13 24L12 24L12 26L13 26L13 27L12 27L12 29L13 29L13 28L14 28L14 29L15 29L15 28L14 28L14 26L15 26L15 25L16 25L16 27L17 27L17 28L16 28L16 29L17 29L17 28L18 28L18 29L19 29L19 28L20 28L20 29L21 29L21 27L22 27L22 28L24 28L24 29L25 29L25 28L26 28L26 29L28 29L28 28L26 28L26 26L25 26L25 22L27 22L27 21L26 21L26 20L25 20L25 18L26 18L26 19L27 19L27 18L29 18L29 17L28 17L28 16L29 16L29 14L27 14L27 13L29 13L29 11L28 11L28 10L27 10L27 8L25 8L25 9L24 9L24 10L23 10L23 9L22 9L22 10L23 10L23 12L22 12L22 11L21 11L21 12L19 12L19 10L18 10L18 9L19 9L19 8L18 8L18 9L15 9L15 6L16 6L16 8L17 8L17 6L18 6L18 7L19 7L19 6L20 6L20 7L21 7L21 4L20 4L20 3L21 3L21 1L20 1L20 0L17 0L17 1L15 1L15 0L14 0L14 1L13 1L13 0L12 0L12 2L11 2L11 0ZM17 1L17 4L15 4L15 3L14 3L14 2L13 2L13 3L12 3L12 6L13 6L13 5L17 5L17 4L18 4L18 3L20 3L20 1L19 1L19 2L18 2L18 1ZM10 2L10 5L11 5L11 2ZM8 6L8 7L9 7L9 6ZM9 8L9 9L10 9L10 8ZM20 8L20 10L21 10L21 8ZM6 9L6 10L7 10L7 9ZM12 9L12 12L13 12L13 13L14 13L14 12L13 12L13 11L17 11L17 12L15 12L15 13L17 13L17 14L18 14L18 15L19 15L19 17L18 17L18 16L17 16L17 17L18 17L18 19L17 19L17 18L16 18L16 17L15 17L15 18L16 18L16 20L15 20L15 21L16 21L16 22L17 22L17 21L16 21L16 20L18 20L18 22L19 22L19 23L16 23L16 24L20 24L20 20L22 20L22 19L20 19L20 15L21 15L21 18L22 18L22 16L24 16L24 12L23 12L23 14L22 14L22 12L21 12L21 14L20 14L20 15L19 15L19 13L17 13L17 12L18 12L18 10L15 10L15 9L14 9L14 10L13 10L13 9ZM25 9L25 10L26 10L26 11L27 11L27 12L28 12L28 11L27 11L27 10L26 10L26 9ZM2 12L2 13L3 13L3 12ZM25 13L25 16L26 16L26 17L27 17L27 16L28 16L28 15L27 15L27 16L26 16L26 13ZM6 14L6 15L7 15L7 16L6 16L6 17L7 17L7 16L8 16L8 15L7 15L7 14ZM9 15L9 17L8 17L8 18L6 18L6 19L8 19L8 20L4 20L4 21L8 21L8 23L9 23L9 24L8 24L8 26L9 26L9 28L10 28L10 27L11 27L11 26L10 26L10 23L12 23L12 22L13 22L13 21L12 21L12 20L11 20L11 18L12 18L12 17L13 17L13 15L12 15L12 17L11 17L11 16L10 16L10 15ZM1 16L1 17L0 17L0 21L3 21L3 19L5 19L5 17L3 17L3 19L2 19L2 16ZM10 17L10 18L11 18L11 17ZM23 17L23 18L24 18L24 17ZM9 19L9 21L10 21L10 22L12 22L12 21L10 21L10 19ZM18 19L18 20L19 20L19 19ZM23 19L23 20L24 20L24 19ZM21 21L21 24L24 24L24 21ZM28 21L28 22L29 22L29 21ZM22 22L22 23L23 23L23 22ZM28 23L28 24L26 24L26 25L28 25L28 24L29 24L29 23ZM14 24L14 25L15 25L15 24ZM19 25L19 27L21 27L21 26L22 26L22 27L25 27L25 26L24 26L24 25ZM27 26L27 27L29 27L29 26ZM0 0L0 7L7 7L7 0ZM1 1L1 6L6 6L6 1ZM2 2L2 5L5 5L5 2ZM22 0L22 7L29 7L29 0ZM23 1L23 6L28 6L28 1ZM24 2L24 5L27 5L27 2ZM0 22L0 29L7 29L7 22ZM1 23L1 28L6 28L6 23ZM2 24L2 27L5 27L5 24Z" fill="#000000"/></g></g></svg>
