<?xml version="1.0" encoding="UTF-8"?>
<svg xmlns="http://www.w3.org/2000/svg" version="1.1" width="200" height="200" viewBox="0 0 200 200"><rect x="0" y="0" width="200" height="200" fill="#ffffff"/><g transform="scale(6.897)"><g transform="translate(0,0)"><path fill-rule="evenodd" d="M9 0L9 1L8 1L8 7L9 7L9 8L5 8L5 9L9 9L9 8L11 8L11 9L10 9L10 10L9 10L9 12L10 12L10 10L11 10L11 11L12 11L12 13L10 13L10 14L11 14L11 15L9 15L9 16L12 16L12 18L10 18L10 19L9 19L9 17L7 17L7 16L8 16L8 15L7 15L7 14L8 14L8 13L7 13L7 12L8 12L8 10L2 10L2 9L3 9L3 8L2 8L2 9L1 9L1 10L0 10L0 11L1 11L1 10L2 10L2 11L3 11L3 12L1 12L1 13L0 13L0 16L2 16L2 15L3 15L3 18L0 18L0 19L3 19L3 18L4 18L4 19L7 19L7 20L6 20L6 21L7 21L7 20L8 20L8 24L9 24L9 23L10 23L10 28L9 28L9 29L12 29L12 27L14 27L14 26L15 26L15 27L17 27L17 26L20 26L20 27L21 27L21 29L22 29L22 28L24 28L24 29L25 29L25 28L26 28L26 29L29 29L29 26L26 26L26 25L29 25L29 23L28 23L28 22L27 22L27 24L26 24L26 25L25 25L25 23L26 23L26 21L27 21L27 18L28 18L28 19L29 19L29 18L28 18L28 17L29 17L29 16L28 16L28 15L27 15L27 17L25 17L25 16L22 16L22 15L25 15L25 14L26 14L26 13L29 13L29 12L27 12L27 11L29 11L29 9L28 9L28 8L23 8L23 10L22 10L22 11L21 11L21 9L22 9L22 8L20 8L20 7L21 7L21 0L19 0L19 1L20 1L20 2L19 2L19 3L20 3L20 5L16 5L16 4L17 4L17 3L18 3L18 2L13 2L13 1L12 1L12 0ZM15 0L15 1L16 1L16 0ZM17 0L17 1L18 1L18 0ZM9 1L9 4L10 4L10 5L9 5L9 7L10 7L10 5L12 5L12 6L11 6L11 8L14 8L14 6L15 6L15 10L16 10L16 9L17 9L17 7L18 7L18 10L17 10L17 14L16 14L16 13L14 13L14 11L13 11L13 13L14 13L14 14L16 14L16 15L13 15L13 14L12 14L12 15L13 15L13 18L12 18L12 19L10 19L10 20L9 20L9 21L10 21L10 23L11 23L11 25L12 25L12 26L11 26L11 27L12 27L12 26L14 26L14 25L15 25L15 26L17 26L17 25L19 25L19 24L20 24L20 23L17 23L17 22L20 22L20 21L19 21L19 20L22 20L22 19L21 19L21 15L19 15L19 14L22 14L22 12L21 12L21 13L20 13L20 12L19 12L19 11L20 11L20 8L19 8L19 7L20 7L20 6L19 6L19 7L18 7L18 6L17 6L17 7L16 7L16 6L15 6L15 5L14 5L14 4L13 4L13 5L12 5L12 4L10 4L10 2L12 2L12 1ZM15 3L15 4L16 4L16 3ZM13 5L13 6L12 6L12 7L13 7L13 6L14 6L14 5ZM11 9L11 10L14 10L14 9ZM25 9L25 10L24 10L24 11L27 11L27 10L28 10L28 9ZM4 11L4 12L5 12L5 17L6 17L6 18L7 18L7 17L6 17L6 16L7 16L7 15L6 15L6 14L7 14L7 13L6 13L6 12L7 12L7 11L6 11L6 12L5 12L5 11ZM15 11L15 12L16 12L16 11ZM18 12L18 13L19 13L19 12ZM23 12L23 14L25 14L25 13L24 13L24 12ZM1 13L1 14L3 14L3 13ZM16 15L16 17L17 17L17 15ZM18 15L18 16L19 16L19 17L20 17L20 16L19 16L19 15ZM14 16L14 17L15 17L15 16ZM22 17L22 18L25 18L25 20L26 20L26 18L25 18L25 17ZM13 18L13 19L12 19L12 20L11 20L11 22L13 22L13 23L12 23L12 25L13 25L13 23L14 23L14 24L15 24L15 25L17 25L17 23L16 23L16 24L15 24L15 23L14 23L14 22L17 22L17 21L16 21L16 20L17 20L17 19L16 19L16 18L15 18L15 19L16 19L16 20L14 20L14 21L12 21L12 20L13 20L13 19L14 19L14 18ZM19 18L19 19L18 19L18 20L19 20L19 19L20 19L20 18ZM23 19L23 20L24 20L24 19ZM0 20L0 21L5 21L5 20ZM21 21L21 24L24 24L24 21ZM22 22L22 23L23 23L23 22ZM21 25L21 26L22 26L22 27L23 27L23 26L24 26L24 28L25 28L25 27L26 27L26 26L25 26L25 25ZM8 26L8 27L9 27L9 26ZM27 27L27 28L28 28L28 27ZM15 28L15 29L16 29L16 28ZM18 28L18 29L19 29L19 28ZM0 0L0 7L7 7L7 0ZM1 1L1 6L6 6L6 1ZM2 2L2 5L5 5L5 2ZM22 0L22 7L29 7L29 0ZM23 1L23 6L28 6L28 1ZM24 2L24 5L27 5L27 2ZM0 22L0 29L7 29L7 22ZM1 23L1 28L6 28L6 23ZM2 24L2 27L5 27L5 24Z" fill="#000000"/></g></g></svg>
