<?xml version="1.0" encoding="UTF-8"?>
<svg xmlns="http://www.w3.org/2000/svg" version="1.1" width="200" height="200" viewBox="0 0 200 200"><rect x="0" y="0" width="200" height="200" fill="#ffffff"/><g transform="scale(6.897)"><g transform="translate(0,0)"><path fill-rule="evenodd" d="M9 0L9 1L8 1L8 7L9 7L9 5L10 5L10 11L9 11L9 12L8 12L8 13L7 13L7 12L6 12L6 11L7 11L7 10L6 10L6 11L5 11L5 10L3 10L3 8L2 8L2 9L0 9L0 10L2 10L2 12L1 12L1 11L0 11L0 12L1 12L1 13L0 13L0 15L1 15L1 14L2 14L2 12L3 12L3 13L4 13L4 12L6 12L6 13L7 13L7 14L6 14L6 15L7 15L7 16L6 16L6 17L5 17L5 15L2 15L2 16L0 16L0 17L2 17L2 16L3 16L3 17L5 17L5 18L4 18L4 19L3 19L3 20L0 20L0 21L3 21L3 20L4 20L4 21L5 21L5 20L4 20L4 19L5 19L5 18L6 18L6 19L7 19L7 20L6 20L6 21L7 21L7 20L9 20L9 19L10 19L10 22L9 22L9 21L8 21L8 24L9 24L9 23L10 23L10 24L12 24L12 25L11 25L11 26L10 26L10 25L9 25L9 26L8 26L8 27L9 27L9 28L10 28L10 29L11 29L11 27L13 27L13 28L12 28L12 29L16 29L16 28L18 28L18 29L21 29L21 28L20 28L20 27L22 27L22 26L21 26L21 25L25 25L25 23L26 23L26 21L27 21L27 20L23 20L23 19L26 19L26 18L28 18L28 17L29 17L29 16L27 16L27 17L24 17L24 16L23 16L23 15L25 15L25 14L26 14L26 13L29 13L29 12L27 12L27 11L29 11L29 9L28 9L28 8L23 8L23 9L28 9L28 10L27 10L27 11L25 11L25 10L22 10L22 11L21 11L21 12L18 12L18 11L20 11L20 10L19 10L19 8L21 8L21 9L22 9L22 8L21 8L21 3L19 3L19 4L16 4L16 5L14 5L14 7L13 7L13 5L12 5L12 4L13 4L13 3L12 3L12 2L13 2L13 0L11 0L11 1L10 1L10 0ZM15 0L15 3L14 3L14 4L15 4L15 3L18 3L18 2L16 2L16 1L19 1L19 2L20 2L20 0ZM9 1L9 2L10 2L10 3L11 3L11 2L10 2L10 1ZM19 4L19 5L16 5L16 6L15 6L15 7L14 7L14 11L15 11L15 12L16 12L16 13L17 13L17 14L15 14L15 13L14 13L14 12L13 12L13 10L12 10L12 9L13 9L13 8L12 8L12 5L11 5L11 10L12 10L12 11L11 11L11 12L9 12L9 13L11 13L11 12L13 12L13 14L12 14L12 15L11 15L11 14L9 14L9 16L10 16L10 18L11 18L11 17L12 17L12 18L13 18L13 19L11 19L11 22L10 22L10 23L11 23L11 22L12 22L12 23L14 23L14 24L13 24L13 26L15 26L15 22L13 22L13 21L15 21L15 19L14 19L14 17L13 17L13 16L16 16L16 15L17 15L17 17L15 17L15 18L16 18L16 19L17 19L17 21L19 21L19 22L16 22L16 23L19 23L19 24L18 24L18 25L19 25L19 24L20 24L20 23L19 23L19 22L20 22L20 20L19 20L19 19L20 19L20 17L18 17L18 15L19 15L19 16L21 16L21 18L24 18L24 17L23 17L23 16L22 16L22 15L23 15L23 14L25 14L25 13L24 13L24 12L25 12L25 11L23 11L23 14L22 14L22 12L21 12L21 13L19 13L19 14L18 14L18 13L17 13L17 11L18 11L18 10L16 10L16 6L17 6L17 8L18 8L18 6L19 6L19 7L20 7L20 6L19 6L19 5L20 5L20 4ZM5 8L5 9L9 9L9 8ZM15 10L15 11L16 11L16 10ZM3 11L3 12L4 12L4 11ZM7 14L7 15L8 15L8 14ZM13 14L13 15L15 15L15 14ZM17 14L17 15L18 15L18 14ZM19 14L19 15L21 15L21 14ZM27 14L27 15L29 15L29 14ZM10 15L10 16L11 16L11 15ZM6 17L6 18L7 18L7 17ZM8 17L8 18L9 18L9 17ZM0 18L0 19L2 19L2 18ZM17 18L17 19L18 19L18 18ZM21 19L21 20L22 20L22 19ZM21 21L21 24L24 24L24 21ZM22 22L22 23L23 23L23 22ZM28 22L28 23L29 23L29 22ZM16 24L16 25L17 25L17 24ZM26 24L26 25L28 25L28 24ZM16 26L16 27L18 27L18 28L19 28L19 27L20 27L20 26L19 26L19 27L18 27L18 26ZM23 26L23 28L22 28L22 29L23 29L23 28L24 28L24 29L25 29L25 28L26 28L26 29L29 29L29 26L27 26L27 27L26 27L26 26L25 26L25 28L24 28L24 26ZM27 27L27 28L28 28L28 27ZM0 0L0 7L7 7L7 0ZM1 1L1 6L6 6L6 1ZM2 2L2 5L5 5L5 2ZM22 0L22 7L29 7L29 0ZM23 1L23 6L28 6L28 1ZM24 2L24 5L27 5L27 2ZM0 22L0 29L7 29L7 22ZM1 23L1 28L6 28L6 23ZM2 24L2 27L5 27L5 24Z" fill="#000000"/></g></g></svg>
