<?xml version="1.0" encoding="UTF-8"?>
<svg xmlns="http://www.w3.org/2000/svg" version="1.1" width="200" height="200" viewBox="0 0 200 200"><rect x="0" y="0" width="200" height="200" fill="#ffffff"/><g transform="scale(4.878)"><g transform="translate(0,0)"><path fill-rule="evenodd" d="M8 0L8 3L10 3L10 7L9 7L9 5L8 5L8 9L7 9L7 8L6 8L6 9L5 9L5 8L2 8L2 9L1 9L1 10L0 10L0 11L1 11L1 10L3 10L3 11L2 11L2 12L3 12L3 13L2 13L2 14L1 14L1 12L0 12L0 15L1 15L1 16L2 16L2 17L1 17L1 18L0 18L0 22L1 22L1 23L0 23L0 27L1 27L1 24L3 24L3 25L4 25L4 26L5 26L5 27L7 27L7 28L5 28L5 29L2 29L2 28L3 28L3 27L2 27L2 28L1 28L1 29L0 29L0 33L1 33L1 29L2 29L2 32L3 32L3 33L4 33L4 32L3 32L3 30L5 30L5 32L6 32L6 33L8 33L8 34L10 34L10 35L11 35L11 34L12 34L12 36L10 36L10 37L9 37L9 36L8 36L8 39L9 39L9 38L10 38L10 37L12 37L12 38L11 38L11 39L10 39L10 40L11 40L11 41L14 41L14 40L16 40L16 41L17 41L17 40L18 40L18 41L19 41L19 40L20 40L20 35L19 35L19 34L18 34L18 32L19 32L19 33L20 33L20 34L22 34L22 35L21 35L21 40L23 40L23 41L24 41L24 40L23 40L23 38L24 38L24 39L25 39L25 38L26 38L26 39L27 39L27 41L28 41L28 39L29 39L29 37L28 37L28 36L31 36L31 35L32 35L32 37L30 37L30 38L32 38L32 37L33 37L33 38L34 38L34 39L35 39L35 40L36 40L36 39L37 39L37 40L40 40L40 38L41 38L41 37L40 37L40 36L37 36L37 35L38 35L38 34L39 34L39 35L40 35L40 34L41 34L41 33L39 33L39 32L37 32L37 29L36 29L36 28L35 28L35 29L36 29L36 30L34 30L34 31L36 31L36 32L33 32L33 31L32 31L32 30L33 30L33 29L34 29L34 28L33 28L33 27L34 27L34 26L35 26L35 27L37 27L37 28L38 28L38 26L39 26L39 30L38 30L38 31L40 31L40 30L41 30L41 28L40 28L40 26L41 26L41 23L39 23L39 22L37 22L37 21L39 21L39 20L36 20L36 19L35 19L35 17L36 17L36 18L37 18L37 19L40 19L40 18L41 18L41 16L40 16L40 18L37 18L37 17L36 17L36 16L35 16L35 17L34 17L34 16L32 16L32 17L31 17L31 13L33 13L33 14L32 14L32 15L34 15L34 13L35 13L35 12L38 12L38 11L40 11L40 12L41 12L41 11L40 11L40 10L41 10L41 8L38 8L38 9L40 9L40 10L37 10L37 9L36 9L36 8L33 8L33 6L32 6L32 7L31 7L31 6L30 6L30 5L32 5L32 4L33 4L33 2L32 2L32 4L30 4L30 5L29 5L29 4L28 4L28 5L27 5L27 4L26 4L26 8L25 8L25 6L24 6L24 7L23 7L23 5L21 5L21 4L20 4L20 5L19 5L19 4L18 4L18 5L17 5L17 3L21 3L21 2L22 2L22 1L23 1L23 3L24 3L24 5L25 5L25 3L24 3L24 1L25 1L25 0L22 0L22 1L21 1L21 2L20 2L20 0L16 0L16 1L15 1L15 0L13 0L13 2L12 2L12 0L11 0L11 1L10 1L10 0ZM26 0L26 1L27 1L27 2L26 2L26 3L31 3L31 2L30 2L30 0L29 0L29 1L27 1L27 0ZM31 0L31 1L32 1L32 0ZM14 1L14 3L13 3L13 4L12 4L12 3L11 3L11 2L10 2L10 3L11 3L11 5L14 5L14 6L13 6L13 8L11 8L11 7L12 7L12 6L11 6L11 7L10 7L10 8L9 8L9 10L8 10L8 11L6 11L6 12L7 12L7 13L6 13L6 14L7 14L7 15L6 15L6 16L5 16L5 18L3 18L3 17L2 17L2 18L1 18L1 19L2 19L2 20L1 20L1 21L2 21L2 23L5 23L5 26L7 26L7 27L8 27L8 28L7 28L7 29L5 29L5 30L7 30L7 31L6 31L6 32L7 32L7 31L9 31L9 32L8 32L8 33L9 33L9 32L10 32L10 31L9 31L9 30L7 30L7 29L8 29L8 28L9 28L9 27L8 27L8 26L9 26L9 25L6 25L6 24L7 24L7 23L8 23L8 22L9 22L9 24L11 24L11 23L13 23L13 22L15 22L15 21L13 21L13 19L14 19L14 20L16 20L16 21L17 21L17 24L16 24L16 25L15 25L15 24L12 24L12 26L13 26L13 27L14 27L14 28L12 28L12 29L11 29L11 28L10 28L10 30L11 30L11 33L10 33L10 34L11 34L11 33L12 33L12 31L14 31L14 30L13 30L13 29L14 29L14 28L15 28L15 27L16 27L16 25L17 25L17 26L18 26L18 27L19 27L19 26L20 26L20 30L19 30L19 28L17 28L17 29L15 29L15 32L18 32L18 31L16 31L16 30L17 30L17 29L18 29L18 30L19 30L19 31L20 31L20 30L21 30L21 26L22 26L22 27L23 27L23 26L26 26L26 24L27 24L27 23L25 23L25 22L29 22L29 23L28 23L28 24L31 24L31 25L30 25L30 26L29 26L29 25L27 25L27 26L28 26L28 27L29 27L29 28L30 28L30 29L28 29L28 30L30 30L30 31L28 31L28 33L27 33L27 31L26 31L26 30L27 30L27 27L25 27L25 28L23 28L23 30L22 30L22 31L25 31L25 32L26 32L26 34L25 34L25 33L24 33L24 32L23 32L23 36L22 36L22 37L25 37L25 35L26 35L26 38L28 38L28 37L27 37L27 34L28 34L28 35L29 35L29 34L28 34L28 33L29 33L29 32L30 32L30 33L31 33L31 32L30 32L30 31L31 31L31 30L32 30L32 29L33 29L33 28L31 28L31 27L32 27L32 26L33 26L33 25L35 25L35 26L36 26L36 25L39 25L39 26L40 26L40 24L39 24L39 23L37 23L37 24L36 24L36 23L35 23L35 22L36 22L36 21L35 21L35 19L34 19L34 18L33 18L33 17L32 17L32 18L31 18L31 17L29 17L29 16L30 16L30 14L27 14L27 11L23 11L23 12L22 12L22 11L20 11L20 10L24 10L24 9L25 9L25 10L29 10L29 11L28 11L28 13L29 13L29 12L30 12L30 11L31 11L31 12L33 12L33 13L34 13L34 12L33 12L33 11L34 11L34 10L33 10L33 9L32 9L32 8L31 8L31 9L28 9L28 8L30 8L30 6L29 6L29 5L28 5L28 6L27 6L27 7L28 7L28 8L26 8L26 9L25 9L25 8L24 8L24 9L22 9L22 8L23 8L23 7L22 7L22 6L21 6L21 7L20 7L20 6L19 6L19 7L18 7L18 6L17 6L17 5L16 5L16 4L15 4L15 1ZM17 1L17 2L16 2L16 3L17 3L17 2L19 2L19 1ZM14 4L14 5L15 5L15 6L14 6L14 7L15 7L15 8L14 8L14 9L15 9L15 12L14 12L14 13L15 13L15 16L13 16L13 14L11 14L11 13L9 13L9 12L8 12L8 13L9 13L9 15L8 15L8 16L6 16L6 17L7 17L7 18L5 18L5 19L3 19L3 20L2 20L2 21L5 21L5 22L6 22L6 23L7 23L7 22L8 22L8 21L10 21L10 23L11 23L11 22L12 22L12 19L13 19L13 18L12 18L12 17L15 17L15 19L16 19L16 20L17 20L17 21L18 21L18 20L19 20L19 19L20 19L20 18L21 18L21 19L22 19L22 21L24 21L24 22L21 22L21 20L20 20L20 22L18 22L18 24L17 24L17 25L18 25L18 26L19 26L19 25L18 25L18 24L21 24L21 23L24 23L24 22L25 22L25 21L26 21L26 20L25 20L25 19L28 19L28 18L25 18L25 19L24 19L24 18L23 18L23 17L22 17L22 18L21 18L21 16L23 16L23 15L26 15L26 17L27 17L27 14L26 14L26 12L25 12L25 13L24 13L24 14L22 14L22 15L21 15L21 12L20 12L20 13L19 13L19 11L18 11L18 13L17 13L17 11L16 11L16 10L17 10L17 9L19 9L19 10L20 10L20 9L21 9L21 8L22 8L22 7L21 7L21 8L20 8L20 7L19 7L19 8L17 8L17 6L16 6L16 5L15 5L15 4ZM15 6L15 7L16 7L16 6ZM28 6L28 7L29 7L29 6ZM15 8L15 9L17 9L17 8ZM3 9L3 10L5 10L5 9ZM6 9L6 10L7 10L7 9ZM31 9L31 10L32 10L32 11L33 11L33 10L32 10L32 9ZM9 10L9 11L10 11L10 12L11 12L11 11L10 11L10 10ZM12 10L12 13L13 13L13 11L14 11L14 10ZM35 10L35 11L36 11L36 10ZM3 11L3 12L4 12L4 14L5 14L5 11ZM15 12L15 13L16 13L16 15L17 15L17 16L16 16L16 19L17 19L17 18L18 18L18 17L19 17L19 18L20 18L20 17L19 17L19 16L20 16L20 14L19 14L19 13L18 13L18 15L17 15L17 13L16 13L16 12ZM36 13L36 14L35 14L35 15L37 15L37 16L38 16L38 17L39 17L39 16L38 16L38 15L37 15L37 14L38 14L38 13ZM39 13L39 14L41 14L41 13ZM2 14L2 15L3 15L3 14ZM10 14L10 15L11 15L11 16L12 16L12 15L11 15L11 14ZM18 15L18 16L17 16L17 17L18 17L18 16L19 16L19 15ZM28 15L28 16L29 16L29 15ZM8 17L8 18L7 18L7 19L6 19L6 20L5 20L5 21L6 21L6 22L7 22L7 21L8 21L8 19L12 19L12 18L10 18L10 17ZM30 18L30 19L31 19L31 18ZM23 19L23 20L24 20L24 19ZM6 20L6 21L7 21L7 20ZM27 20L27 21L29 21L29 20ZM30 20L30 21L31 21L31 22L32 22L32 21L34 21L34 22L33 22L33 24L32 24L32 25L31 25L31 26L32 26L32 25L33 25L33 24L35 24L35 25L36 25L36 24L35 24L35 23L34 23L34 22L35 22L35 21L34 21L34 20ZM40 20L40 21L41 21L41 20ZM24 24L24 25L25 25L25 24ZM14 25L14 27L15 27L15 25ZM20 25L20 26L21 26L21 25ZM22 25L22 26L23 26L23 25ZM10 26L10 27L11 27L11 26ZM24 29L24 30L26 30L26 29ZM30 29L30 30L31 30L31 29ZM20 32L20 33L21 33L21 32ZM13 33L13 36L12 36L12 37L13 37L13 38L12 38L12 40L14 40L14 39L15 39L15 37L13 37L13 36L14 36L14 35L18 35L18 34L15 34L15 33ZM33 33L33 36L36 36L36 33ZM37 33L37 34L38 34L38 33ZM24 34L24 35L25 35L25 34ZM30 34L30 35L31 35L31 34ZM34 34L34 35L35 35L35 34ZM17 36L17 38L16 38L16 39L17 39L17 38L19 38L19 36ZM34 37L34 38L36 38L36 37ZM37 38L37 39L38 39L38 38ZM18 39L18 40L19 40L19 39ZM30 39L30 40L29 40L29 41L30 41L30 40L33 40L33 41L34 41L34 40L33 40L33 39ZM0 0L0 7L7 7L7 0ZM1 1L1 6L6 6L6 1ZM2 2L2 5L5 5L5 2ZM34 0L34 7L41 7L41 0ZM35 1L35 6L40 6L40 1ZM36 2L36 5L39 5L39 2ZM0 34L0 41L7 41L7 34ZM1 35L1 40L6 40L6 35ZM2 36L2 39L5 39L5 36Z" fill="#000000"/></g></g></svg>
