<?xml version="1.0" encoding="UTF-8"?>
<svg xmlns="http://www.w3.org/2000/svg" version="1.1" width="200" height="200" viewBox="0 0 200 200"><rect x="0" y="0" width="200" height="200" fill="#ffffff"/><g transform="scale(6.897)"><g transform="translate(0,0)"><path fill-rule="evenodd" d="M9 0L9 1L10 1L10 2L8 2L8 4L9 4L9 6L8 6L8 7L9 7L9 8L10 8L10 10L15 10L15 9L14 9L14 8L11 8L11 6L12 6L12 7L13 7L13 6L12 6L12 3L13 3L13 2L14 2L14 3L16 3L16 4L17 4L17 5L14 5L14 7L15 7L15 6L16 6L16 9L17 9L17 10L16 10L16 11L12 11L12 13L9 13L9 12L10 12L10 11L9 11L9 9L8 9L8 8L6 8L6 9L5 9L5 8L3 8L3 10L1 10L1 11L2 11L2 12L1 12L1 13L2 13L2 14L1 14L1 15L0 15L0 16L1 16L1 17L0 17L0 21L2 21L2 20L4 20L4 21L8 21L8 23L12 23L12 22L13 22L13 23L15 23L15 24L13 24L13 25L11 25L11 24L8 24L8 26L9 26L9 28L10 28L10 27L11 27L11 29L13 29L13 28L14 28L14 29L17 29L17 28L18 28L18 29L19 29L19 28L20 28L20 29L21 29L21 27L22 27L22 28L24 28L24 29L25 29L25 28L26 28L26 29L28 29L28 28L27 28L27 27L29 27L29 26L27 26L27 25L28 25L28 24L29 24L29 23L28 23L28 24L26 24L26 26L25 26L25 22L27 22L27 21L26 21L26 20L23 20L23 19L25 19L25 18L26 18L26 19L27 19L27 18L29 18L29 17L28 17L28 16L29 16L29 14L27 14L27 13L29 13L29 11L28 11L28 10L27 10L27 8L25 8L25 9L24 9L24 10L23 10L23 9L22 9L22 10L23 10L23 12L22 12L22 11L21 11L21 12L19 12L19 10L18 10L18 9L19 9L19 8L18 8L18 9L17 9L17 6L18 6L18 7L19 7L19 6L20 6L20 7L21 7L21 4L20 4L20 3L21 3L21 1L20 1L20 0L16 0L16 2L15 2L15 0L14 0L14 1L13 1L13 0L12 0L12 1L11 1L11 0ZM12 1L12 2L10 2L10 5L11 5L11 3L12 3L12 2L13 2L13 1ZM17 1L17 2L16 2L16 3L17 3L17 4L18 4L18 3L20 3L20 1L19 1L19 2L18 2L18 1ZM9 6L9 7L10 7L10 6ZM20 8L20 10L21 10L21 8ZM6 9L6 10L3 10L3 11L4 11L4 13L3 13L3 12L2 12L2 13L3 13L3 15L1 15L1 16L2 16L2 17L1 17L1 18L2 18L2 19L3 19L3 18L4 18L4 17L5 17L5 16L7 16L7 17L6 17L6 18L5 18L5 19L4 19L4 20L8 20L8 19L6 19L6 18L8 18L8 17L9 17L9 16L11 16L11 17L10 17L10 18L11 18L11 19L12 19L12 20L11 20L11 21L10 21L10 19L9 19L9 21L10 21L10 22L12 22L12 21L13 21L13 22L15 22L15 21L16 21L16 22L17 22L17 21L16 21L16 20L18 20L18 23L16 23L16 24L17 24L17 25L18 25L18 23L19 23L19 24L20 24L20 20L22 20L22 19L20 19L20 15L21 15L21 18L22 18L22 16L24 16L24 17L23 17L23 18L25 18L25 16L26 16L26 17L27 17L27 16L28 16L28 15L27 15L27 16L26 16L26 13L25 13L25 16L24 16L24 12L23 12L23 14L22 14L22 12L21 12L21 14L20 14L20 15L18 15L18 14L19 14L19 13L17 13L17 12L18 12L18 10L17 10L17 11L16 11L16 13L17 13L17 14L15 14L15 16L14 16L14 17L13 17L13 19L12 19L12 15L14 15L14 14L13 14L13 13L14 13L14 12L13 12L13 13L12 13L12 14L10 14L10 15L9 15L9 13L6 13L6 12L7 12L7 11L8 11L8 10L7 10L7 9ZM25 9L25 10L26 10L26 11L27 11L27 12L28 12L28 11L27 11L27 10L26 10L26 9ZM6 10L6 11L7 11L7 10ZM4 14L4 15L3 15L3 17L4 17L4 15L5 15L5 14ZM6 14L6 15L7 15L7 16L8 16L8 15L7 15L7 14ZM17 15L17 16L15 16L15 17L14 17L14 19L13 19L13 20L14 20L14 21L15 21L15 19L18 19L18 20L19 20L19 19L18 19L18 18L19 18L19 16L18 16L18 15ZM17 16L17 17L15 17L15 18L17 18L17 17L18 17L18 16ZM21 21L21 24L24 24L24 21ZM28 21L28 22L29 22L29 21ZM22 22L22 23L23 23L23 22ZM19 25L19 27L21 27L21 26L22 26L22 27L25 27L25 26L24 26L24 25ZM11 26L11 27L12 27L12 28L13 28L13 26ZM14 26L14 28L15 28L15 27L16 27L16 28L17 28L17 27L16 27L16 26ZM26 26L26 27L27 27L27 26ZM0 0L0 7L7 7L7 0ZM1 1L1 6L6 6L6 1ZM2 2L2 5L5 5L5 2ZM22 0L22 7L29 7L29 0ZM23 1L23 6L28 6L28 1ZM24 2L24 5L27 5L27 2ZM0 22L0 29L7 29L7 22ZM1 23L1 28L6 28L6 23ZM2 24L2 27L5 27L5 24Z" fill="#000000"/></g></g></svg>
