<?xml version="1.0" encoding="UTF-8"?>
<svg xmlns="http://www.w3.org/2000/svg" version="1.1" width="200" height="200" viewBox="0 0 200 200"><rect x="0" y="0" width="200" height="200" fill="#ffffff"/><g transform="scale(4.878)"><g transform="translate(0,0)"><path fill-rule="evenodd" d="M8 0L8 1L9 1L9 2L8 2L8 3L11 3L11 2L10 2L10 1L9 1L9 0ZM11 0L11 1L12 1L12 4L11 4L11 5L9 5L9 4L8 4L8 5L9 5L9 6L8 6L8 8L9 8L9 10L8 10L8 9L7 9L7 8L5 8L5 9L7 9L7 10L6 10L6 11L5 11L5 10L4 10L4 9L1 9L1 10L0 10L0 11L1 11L1 12L0 12L0 13L1 13L1 14L0 14L0 15L1 15L1 20L2 20L2 21L3 21L3 22L2 22L2 23L0 23L0 24L1 24L1 25L3 25L3 24L4 24L4 27L3 27L3 26L2 26L2 30L1 30L1 29L0 29L0 33L1 33L1 31L2 31L2 33L5 33L5 31L7 31L7 32L6 32L6 33L7 33L7 32L9 32L9 31L10 31L10 30L11 30L11 31L12 31L12 32L10 32L10 33L11 33L11 36L9 36L9 35L8 35L8 36L9 36L9 37L11 37L11 38L13 38L13 37L14 37L14 40L12 40L12 39L11 39L11 40L10 40L10 38L9 38L9 40L10 40L10 41L16 41L16 40L17 40L17 41L18 41L18 40L19 40L19 41L21 41L21 40L22 40L22 41L23 41L23 40L22 40L22 38L20 38L20 37L22 37L22 36L23 36L23 38L24 38L24 39L25 39L25 40L24 40L24 41L25 41L25 40L26 40L26 39L25 39L25 38L24 38L24 36L25 36L25 34L26 34L26 35L28 35L28 34L29 34L29 36L28 36L28 37L26 37L26 38L27 38L27 39L28 39L28 41L32 41L32 40L29 40L29 37L30 37L30 39L31 39L31 38L32 38L32 37L36 37L36 38L34 38L34 39L33 39L33 41L34 41L34 40L36 40L36 39L37 39L37 40L38 40L38 39L40 39L40 40L41 40L41 39L40 39L40 38L41 38L41 35L40 35L40 34L39 34L39 33L40 33L40 32L41 32L41 29L40 29L40 28L39 28L39 27L40 27L40 26L41 26L41 25L39 25L39 24L37 24L37 23L38 23L38 22L41 22L41 20L40 20L40 19L41 19L41 15L40 15L40 14L41 14L41 11L40 11L40 9L41 9L41 8L40 8L40 9L39 9L39 8L38 8L38 10L37 10L37 8L36 8L36 9L35 9L35 8L34 8L34 9L35 9L35 10L34 10L34 12L35 12L35 13L36 13L36 14L35 14L35 15L34 15L34 14L32 14L32 16L33 16L33 17L30 17L30 16L31 16L31 13L32 13L32 12L33 12L33 11L32 11L32 12L30 12L30 13L29 13L29 12L27 12L27 11L30 11L30 10L29 10L29 9L31 9L31 10L33 10L33 8L32 8L32 7L33 7L33 5L32 5L32 4L29 4L29 5L28 5L28 7L29 7L29 5L30 5L30 7L31 7L31 8L28 8L28 9L27 9L27 6L26 6L26 7L25 7L25 5L27 5L27 4L28 4L28 3L32 3L32 2L30 2L30 1L29 1L29 0L28 0L28 2L26 2L26 4L25 4L25 3L24 3L24 4L23 4L23 5L24 5L24 7L23 7L23 6L22 6L22 9L21 9L21 10L19 10L19 12L18 12L18 9L20 9L20 8L21 8L21 5L20 5L20 4L22 4L22 3L23 3L23 2L22 2L22 1L24 1L24 2L25 2L25 1L26 1L26 0L25 0L25 1L24 1L24 0L19 0L19 2L18 2L18 3L19 3L19 2L20 2L20 4L18 4L18 5L17 5L17 2L16 2L16 3L15 3L15 1L14 1L14 0ZM17 0L17 1L18 1L18 0ZM32 0L32 1L33 1L33 0ZM13 1L13 2L14 2L14 1ZM20 1L20 2L21 2L21 3L22 3L22 2L21 2L21 1ZM13 3L13 5L12 5L12 6L11 6L11 7L12 7L12 6L13 6L13 8L10 8L10 11L11 11L11 12L9 12L9 11L6 11L6 12L3 12L3 10L1 10L1 11L2 11L2 12L1 12L1 13L2 13L2 12L3 12L3 13L4 13L4 16L3 16L3 15L2 15L2 14L1 14L1 15L2 15L2 16L3 16L3 17L2 17L2 20L3 20L3 21L4 21L4 22L3 22L3 23L4 23L4 24L7 24L7 25L6 25L6 26L5 26L5 27L6 27L6 28L7 28L7 29L5 29L5 30L7 30L7 31L9 31L9 30L7 30L7 29L8 29L8 28L7 28L7 27L9 27L9 28L10 28L10 29L11 29L11 30L12 30L12 31L13 31L13 32L12 32L12 36L11 36L11 37L12 37L12 36L14 36L14 37L15 37L15 39L17 39L17 35L18 35L18 34L19 34L19 37L20 37L20 35L21 35L21 36L22 36L22 33L23 33L23 35L24 35L24 33L26 33L26 34L27 34L27 33L26 33L26 32L31 32L31 31L32 31L32 29L33 29L33 28L32 28L32 26L29 26L29 25L31 25L31 24L32 24L32 22L31 22L31 21L32 21L32 20L33 20L33 19L34 19L34 24L36 24L36 25L37 25L37 24L36 24L36 23L35 23L35 22L36 22L36 21L35 21L35 18L36 18L36 20L39 20L39 21L40 21L40 20L39 20L39 19L40 19L40 16L39 16L39 17L37 17L37 16L38 16L38 15L39 15L39 13L40 13L40 11L38 11L38 12L39 12L39 13L38 13L38 14L37 14L37 16L36 16L36 17L35 17L35 16L34 16L34 17L33 17L33 19L32 19L32 20L31 20L31 19L29 19L29 18L30 18L30 17L29 17L29 16L30 16L30 14L28 14L28 13L26 13L26 14L25 14L25 10L26 10L26 11L27 11L27 10L26 10L26 9L25 9L25 8L23 8L23 10L21 10L21 12L20 12L20 13L17 13L17 12L16 12L16 11L17 11L17 9L18 9L18 8L19 8L19 7L20 7L20 5L18 5L18 6L17 6L17 5L16 5L16 6L15 6L15 5L14 5L14 3ZM31 5L31 7L32 7L32 5ZM9 6L9 7L10 7L10 6ZM14 6L14 8L13 8L13 9L12 9L12 10L11 10L11 11L12 11L12 12L11 12L11 13L9 13L9 14L8 14L8 16L6 16L6 17L8 17L8 16L9 16L9 17L11 17L11 16L12 16L12 17L13 17L13 16L14 16L14 17L15 17L15 18L11 18L11 19L9 19L9 18L8 18L8 19L7 19L7 18L5 18L5 19L7 19L7 20L4 20L4 21L5 21L5 22L4 22L4 23L7 23L7 22L9 22L9 23L8 23L8 24L9 24L9 25L11 25L11 26L9 26L9 27L11 27L11 26L12 26L12 24L13 24L13 26L15 26L15 25L14 25L14 23L15 23L15 24L17 24L17 23L16 23L16 22L14 22L14 21L16 21L16 19L17 19L17 21L18 21L18 23L19 23L19 24L18 24L18 25L16 25L16 26L18 26L18 25L19 25L19 24L20 24L20 22L21 22L21 23L22 23L22 21L21 21L21 20L22 20L22 19L24 19L24 20L25 20L25 22L24 22L24 21L23 21L23 22L24 22L24 23L23 23L23 25L22 25L22 24L21 24L21 25L22 25L22 26L25 26L25 28L24 28L24 27L22 27L22 28L21 28L21 26L20 26L20 29L17 29L17 28L16 28L16 27L15 27L15 28L16 28L16 29L15 29L15 31L14 31L14 32L13 32L13 33L15 33L15 32L16 32L16 34L13 34L13 35L14 35L14 36L15 36L15 37L16 37L16 36L15 36L15 35L16 35L16 34L18 34L18 31L17 31L17 32L16 32L16 30L21 30L21 31L23 31L23 32L24 32L24 30L25 30L25 32L26 32L26 30L27 30L27 31L28 31L28 30L27 30L27 29L32 29L32 28L26 28L26 27L29 27L29 26L28 26L28 24L27 24L27 26L25 26L25 25L24 25L24 24L26 24L26 23L25 23L25 22L27 22L27 23L30 23L30 24L31 24L31 22L29 22L29 20L28 20L28 21L27 21L27 20L26 20L26 19L24 19L24 18L23 18L23 16L24 16L24 17L25 17L25 18L26 18L26 17L25 17L25 16L26 16L26 15L27 15L27 16L28 16L28 15L27 15L27 14L26 14L26 15L25 15L25 14L22 14L22 12L21 12L21 13L20 13L20 14L22 14L22 15L20 15L20 18L19 18L19 16L18 16L18 15L19 15L19 14L18 14L18 15L16 15L16 13L15 13L15 14L14 14L14 11L16 11L16 9L17 9L17 8L16 8L16 7L17 7L17 6L16 6L16 7L15 7L15 6ZM18 6L18 7L19 7L19 6ZM14 8L14 9L13 9L13 10L15 10L15 8ZM31 8L31 9L32 9L32 8ZM35 10L35 11L37 11L37 10ZM23 11L23 13L24 13L24 11ZM6 12L6 13L5 13L5 14L6 14L6 15L7 15L7 14L6 14L6 13L7 13L7 12ZM36 12L36 13L37 13L37 12ZM11 13L11 14L10 14L10 16L11 16L11 15L14 15L14 16L15 16L15 15L14 15L14 14L12 14L12 13ZM4 16L4 17L3 17L3 19L4 19L4 17L5 17L5 16ZM16 16L16 18L15 18L15 19L16 19L16 18L17 18L17 19L18 19L18 21L19 21L19 22L20 22L20 21L19 21L19 20L20 20L20 19L19 19L19 18L18 18L18 16ZM21 16L21 17L22 17L22 16ZM27 17L27 19L28 19L28 17ZM34 17L34 18L35 18L35 17ZM36 17L36 18L37 18L37 19L39 19L39 18L37 18L37 17ZM21 18L21 19L22 19L22 18ZM8 19L8 20L7 20L7 21L6 21L6 22L7 22L7 21L9 21L9 22L12 22L12 23L11 23L11 24L12 24L12 23L13 23L13 22L12 22L12 21L13 21L13 20L14 20L14 19L12 19L12 20L11 20L11 21L10 21L10 20L9 20L9 19ZM30 20L30 21L31 21L31 20ZM37 21L37 22L38 22L38 21ZM9 23L9 24L10 24L10 23ZM40 23L40 24L41 24L41 23ZM0 26L0 28L1 28L1 26ZM6 26L6 27L7 27L7 26ZM34 26L34 27L35 27L35 26ZM36 26L36 27L37 27L37 26ZM38 26L38 27L39 27L39 26ZM12 27L12 30L13 30L13 29L14 29L14 28L13 28L13 27ZM3 28L3 29L4 29L4 28ZM34 28L34 30L33 30L33 31L34 31L34 32L35 32L35 31L36 31L36 29L37 29L37 30L38 30L38 29L39 29L39 30L40 30L40 29L39 29L39 28L36 28L36 29L35 29L35 28ZM22 29L22 30L23 30L23 29ZM25 29L25 30L26 30L26 29ZM3 30L3 31L4 31L4 30ZM29 30L29 31L30 31L30 30ZM19 31L19 32L20 32L20 33L19 33L19 34L20 34L20 33L21 33L21 32L20 32L20 31ZM38 31L38 32L37 32L37 34L38 34L38 35L37 35L37 37L39 37L39 38L40 38L40 37L39 37L39 34L38 34L38 32L39 32L39 31ZM8 33L8 34L9 34L9 33ZM30 33L30 35L31 35L31 36L30 36L30 37L31 37L31 36L32 36L32 35L31 35L31 33ZM33 33L33 36L36 36L36 33ZM34 34L34 35L35 35L35 34ZM18 38L18 39L19 39L19 38ZM37 38L37 39L38 39L38 38ZM20 39L20 40L21 40L21 39ZM0 0L0 7L7 7L7 0ZM1 1L1 6L6 6L6 1ZM2 2L2 5L5 5L5 2ZM34 0L34 7L41 7L41 0ZM35 1L35 6L40 6L40 1ZM36 2L36 5L39 5L39 2ZM0 34L0 41L7 41L7 34ZM1 35L1 40L6 40L6 35ZM2 36L2 39L5 39L5 36Z" fill="#000000"/></g></g></svg>
