<?xml version="1.0" encoding="UTF-8"?>
<svg xmlns="http://www.w3.org/2000/svg" version="1.1" width="200" height="200" viewBox="0 0 200 200"><rect x="0" y="0" width="200" height="200" fill="#ffffff"/><g transform="scale(6.897)"><g transform="translate(0,0)"><path fill-rule="evenodd" d="M9 0L9 4L8 4L8 5L11 5L11 1L10 1L10 0ZM14 0L14 2L15 2L15 3L13 3L13 2L12 2L12 4L14 4L14 5L15 5L15 6L14 6L14 7L13 7L13 5L12 5L12 7L13 7L13 10L12 10L12 8L11 8L11 9L10 9L10 7L11 7L11 6L10 6L10 7L9 7L9 6L8 6L8 8L6 8L6 9L4 9L4 8L2 8L2 9L1 9L1 12L0 12L0 13L1 13L1 12L2 12L2 11L7 11L7 12L5 12L5 14L6 14L6 15L7 15L7 16L6 16L6 17L5 17L5 16L4 16L4 15L3 15L3 13L2 13L2 14L1 14L1 15L0 15L0 16L2 16L2 17L1 17L1 18L0 18L0 19L1 19L1 18L2 18L2 20L1 20L1 21L3 21L3 20L4 20L4 18L5 18L5 19L7 19L7 20L5 20L5 21L8 21L8 23L9 23L9 21L10 21L10 20L11 20L11 17L12 17L12 15L15 15L15 16L13 16L13 17L14 17L14 18L13 18L13 19L15 19L15 20L17 20L17 18L18 18L18 19L19 19L19 18L20 18L20 20L19 20L19 21L20 21L20 23L19 23L19 22L18 22L18 23L17 23L17 22L16 22L16 21L14 21L14 22L15 22L15 23L14 23L14 24L13 24L13 20L12 20L12 21L11 21L11 22L10 22L10 25L11 25L11 26L9 26L9 25L8 25L8 27L9 27L9 29L10 29L10 27L11 27L11 28L12 28L12 29L14 29L14 28L12 28L12 26L13 26L13 27L14 27L14 26L15 26L15 29L18 29L18 28L19 28L19 29L20 29L20 28L19 28L19 27L18 27L18 26L17 26L17 25L19 25L19 26L20 26L20 25L23 25L23 26L24 26L24 27L22 27L22 29L23 29L23 28L25 28L25 29L26 29L26 28L25 28L25 26L26 26L26 27L27 27L27 28L29 28L29 26L28 26L28 27L27 27L27 25L28 25L28 24L29 24L29 21L28 21L28 20L27 20L27 18L29 18L29 17L26 17L26 16L25 16L25 15L24 15L24 16L23 16L23 17L21 17L21 18L20 18L20 17L19 17L19 16L18 16L18 17L17 17L17 18L16 18L16 19L15 19L15 16L17 16L17 13L20 13L20 14L18 14L18 15L20 15L20 14L21 14L21 13L20 13L20 12L22 12L22 9L23 9L23 13L22 13L22 15L23 15L23 14L24 14L24 13L25 13L25 14L26 14L26 15L27 15L27 16L28 16L28 15L29 15L29 14L28 14L28 12L29 12L29 11L28 11L28 12L27 12L27 11L26 11L26 10L29 10L29 9L26 9L26 10L24 10L24 9L25 9L25 8L24 8L24 9L23 9L23 8L21 8L21 9L20 9L20 10L19 10L19 8L20 8L20 7L21 7L21 3L20 3L20 2L18 2L18 1L17 1L17 0L16 0L16 1L17 1L17 2L18 2L18 5L15 5L15 3L16 3L16 2L15 2L15 0ZM19 3L19 4L20 4L20 3ZM19 5L19 7L18 7L18 6L17 6L17 9L18 9L18 8L19 8L19 7L20 7L20 5ZM15 6L15 7L14 7L14 9L16 9L16 8L15 8L15 7L16 7L16 6ZM2 9L2 10L4 10L4 9ZM6 9L6 10L7 10L7 11L8 11L8 15L9 15L9 16L11 16L11 15L10 15L10 14L11 14L11 13L12 13L12 14L14 14L14 11L15 11L15 12L17 12L17 10L16 10L16 11L15 11L15 10L13 10L13 11L12 11L12 10L10 10L10 11L12 11L12 12L11 12L11 13L10 13L10 14L9 14L9 9ZM18 10L18 12L20 12L20 11L19 11L19 10ZM25 11L25 13L27 13L27 12L26 12L26 11ZM6 13L6 14L7 14L7 13ZM3 16L3 17L2 17L2 18L4 18L4 16ZM7 16L7 17L6 17L6 18L7 18L7 19L8 19L8 21L9 21L9 19L8 19L8 18L9 18L9 17L8 17L8 16ZM24 16L24 17L23 17L23 18L22 18L22 19L21 19L21 20L22 20L22 19L24 19L24 18L25 18L25 19L26 19L26 17L25 17L25 16ZM18 17L18 18L19 18L19 17ZM26 20L26 22L25 22L25 23L26 23L26 25L27 25L27 24L28 24L28 21L27 21L27 20ZM21 21L21 24L24 24L24 21ZM22 22L22 23L23 23L23 22ZM18 23L18 24L19 24L19 25L20 25L20 24L19 24L19 23ZM14 24L14 25L13 25L13 26L14 26L14 25L15 25L15 24ZM24 25L24 26L25 26L25 25ZM16 26L16 27L17 27L17 26ZM0 0L0 7L7 7L7 0ZM1 1L1 6L6 6L6 1ZM2 2L2 5L5 5L5 2ZM22 0L22 7L29 7L29 0ZM23 1L23 6L28 6L28 1ZM24 2L24 5L27 5L27 2ZM0 22L0 29L7 29L7 22ZM1 23L1 28L6 28L6 23ZM2 24L2 27L5 27L5 24Z" fill="#000000"/></g></g></svg>
