<?xml version="1.0" encoding="UTF-8"?>
<svg xmlns="http://www.w3.org/2000/svg" version="1.1" width="200" height="200" viewBox="0 0 200 200"><rect x="0" y="0" width="200" height="200" fill="#ffffff"/><g transform="scale(4.878)"><g transform="translate(0,0)"><path fill-rule="evenodd" d="M8 0L8 3L9 3L9 5L8 5L8 9L7 9L7 8L6 8L6 9L5 9L5 8L2 8L2 10L1 10L1 11L0 11L0 12L3 12L3 10L4 10L4 12L5 12L5 13L3 13L3 14L2 14L2 13L1 13L1 14L0 14L0 16L1 16L1 14L2 14L2 15L4 15L4 14L5 14L5 13L7 13L7 14L6 14L6 15L5 15L5 16L3 16L3 17L5 17L5 16L6 16L6 17L8 17L8 18L6 18L6 19L4 19L4 21L3 21L3 20L1 20L1 19L2 19L2 17L0 17L0 21L1 21L1 23L2 23L2 22L3 22L3 24L1 24L1 25L0 25L0 26L1 26L1 25L3 25L3 26L2 26L2 28L1 28L1 27L0 27L0 28L1 28L1 29L0 29L0 33L1 33L1 29L2 29L2 30L3 30L3 31L2 31L2 33L5 33L5 32L4 32L4 31L5 31L5 30L6 30L6 31L8 31L8 30L9 30L9 32L12 32L12 31L13 31L13 30L14 30L14 29L16 29L16 31L17 31L17 32L18 32L18 31L20 31L20 30L22 30L22 29L23 29L23 31L24 31L24 32L23 32L23 33L22 33L22 32L19 32L19 33L17 33L17 34L16 34L16 32L15 32L15 31L14 31L14 32L15 32L15 36L14 36L14 35L13 35L13 34L14 34L14 33L13 33L13 34L12 34L12 33L11 33L11 34L10 34L10 35L9 35L9 36L8 36L8 39L9 39L9 40L10 40L10 41L12 41L12 39L11 39L11 40L10 40L10 37L11 37L11 34L12 34L12 35L13 35L13 36L12 36L12 37L13 37L13 38L14 38L14 39L13 39L13 40L17 40L17 41L22 41L22 40L24 40L24 41L25 41L25 40L28 40L28 41L32 41L32 40L33 40L33 41L34 41L34 40L33 40L33 38L34 38L34 39L35 39L35 40L36 40L36 39L37 39L37 40L40 40L40 38L41 38L41 37L40 37L40 36L41 36L41 35L40 35L40 34L41 34L41 32L38 32L38 31L36 31L36 32L33 32L33 31L32 31L32 30L33 30L33 29L34 29L34 28L33 28L33 29L32 29L32 30L28 30L28 29L31 29L31 28L29 28L29 26L32 26L32 27L34 27L34 26L35 26L35 27L36 27L36 28L35 28L35 29L36 29L36 30L38 30L38 29L36 29L36 28L38 28L38 26L39 26L39 27L40 27L40 28L39 28L39 31L40 31L40 30L41 30L41 29L40 29L40 28L41 28L41 27L40 27L40 26L41 26L41 23L39 23L39 24L40 24L40 26L39 26L39 25L34 25L34 24L33 24L33 23L34 23L34 22L35 22L35 23L36 23L36 24L37 24L37 20L38 20L38 21L39 21L39 20L38 20L38 19L39 19L39 18L41 18L41 16L40 16L40 17L39 17L39 16L37 16L37 15L38 15L38 13L36 13L36 14L35 14L35 15L36 15L36 16L35 16L35 17L34 17L34 16L32 16L32 17L30 17L30 16L29 16L29 15L28 15L28 16L29 16L29 17L30 17L30 19L31 19L31 18L32 18L32 19L33 19L33 18L34 18L34 19L35 19L35 21L34 21L34 20L32 20L32 21L31 21L31 20L30 20L30 21L31 21L31 22L32 22L32 21L34 21L34 22L33 22L33 23L30 23L30 24L29 24L29 23L28 23L28 22L29 22L29 21L28 21L28 20L29 20L29 19L28 19L28 18L26 18L26 17L24 17L24 16L25 16L25 15L26 15L26 14L29 14L29 13L30 13L30 15L31 15L31 12L32 12L32 13L33 13L33 14L32 14L32 15L34 15L34 13L35 13L35 12L38 12L38 11L40 11L40 12L41 12L41 11L40 11L40 10L41 10L41 8L38 8L38 9L40 9L40 10L37 10L37 9L36 9L36 8L29 8L29 9L28 9L28 7L29 7L29 5L27 5L27 4L26 4L26 5L25 5L25 1L24 1L24 0L23 0L23 1L24 1L24 2L22 2L22 0L16 0L16 1L15 1L15 4L14 4L14 1L11 1L11 2L13 2L13 5L12 5L12 3L10 3L10 1L9 1L9 0ZM26 0L26 1L27 1L27 2L26 2L26 3L28 3L28 4L29 4L29 3L33 3L33 2L30 2L30 0L29 0L29 1L27 1L27 0ZM31 0L31 1L32 1L32 0ZM18 1L18 3L20 3L20 4L19 4L19 7L18 7L18 6L17 6L17 7L16 7L16 5L15 5L15 7L14 7L14 6L13 6L13 7L12 7L12 5L11 5L11 4L10 4L10 5L9 5L9 8L10 8L10 11L9 11L9 13L8 13L8 10L7 10L7 9L6 9L6 10L7 10L7 11L6 11L6 12L7 12L7 13L8 13L8 15L10 15L10 16L11 16L11 17L13 17L13 18L14 18L14 17L15 17L15 20L13 20L13 21L15 21L15 22L12 22L12 21L11 21L11 22L10 22L10 23L9 23L9 21L10 21L10 20L11 20L11 19L10 19L10 18L8 18L8 20L7 20L7 19L6 19L6 20L7 20L7 21L5 21L5 23L4 23L4 24L3 24L3 25L4 25L4 24L8 24L8 25L6 25L6 26L5 26L5 27L6 27L6 28L7 28L7 27L6 27L6 26L8 26L8 25L9 25L9 24L12 24L12 23L15 23L15 24L13 24L13 25L11 25L11 27L10 27L10 26L9 26L9 27L8 27L8 29L6 29L6 30L8 30L8 29L9 29L9 27L10 27L10 30L11 30L11 31L12 31L12 30L11 30L11 27L12 27L12 26L13 26L13 25L15 25L15 24L16 24L16 27L15 27L15 26L14 26L14 27L13 27L13 28L12 28L12 29L14 29L14 28L16 28L16 27L19 27L19 28L18 28L18 29L19 29L19 30L20 30L20 28L22 28L22 27L19 27L19 26L20 26L20 25L21 25L21 26L23 26L23 27L24 27L24 28L23 28L23 29L24 29L24 31L25 31L25 29L26 29L26 32L24 32L24 34L25 34L25 35L26 35L26 38L25 38L25 36L24 36L24 35L23 35L23 34L22 34L22 33L19 33L19 36L18 36L18 34L17 34L17 35L16 35L16 37L17 37L17 38L15 38L15 37L14 37L14 38L15 38L15 39L20 39L20 40L21 40L21 39L22 39L22 38L24 38L24 39L26 39L26 38L28 38L28 40L30 40L30 39L31 39L31 40L32 40L32 38L33 38L33 37L32 37L32 35L31 35L31 33L30 33L30 35L31 35L31 36L29 36L29 35L26 35L26 34L28 34L28 33L29 33L29 32L30 32L30 31L28 31L28 33L26 33L26 32L27 32L27 28L28 28L28 27L27 27L27 28L26 28L26 25L27 25L27 26L29 26L29 25L27 25L27 22L28 22L28 21L27 21L27 22L26 22L26 21L25 21L25 20L24 20L24 19L26 19L26 18L22 18L22 17L23 17L23 16L22 16L22 13L27 13L27 10L28 10L28 9L27 9L27 10L25 10L25 7L26 7L26 6L27 6L27 7L28 7L28 6L27 6L27 5L26 5L26 6L25 6L25 5L24 5L24 4L21 4L21 3L22 3L22 2L21 2L21 1L20 1L20 2L19 2L19 1ZM20 2L20 3L21 3L21 2ZM16 3L16 4L17 4L17 3ZM30 4L30 5L33 5L33 4ZM10 5L10 8L12 8L12 10L11 10L11 11L13 11L13 10L15 10L15 11L14 11L14 12L13 12L13 14L12 14L12 13L11 13L11 15L12 15L12 16L13 16L13 14L14 14L14 16L18 16L18 17L19 17L19 18L20 18L20 19L19 19L19 20L18 20L18 19L17 19L17 17L16 17L16 19L17 19L17 20L18 20L18 21L19 21L19 20L20 20L20 21L21 21L21 20L22 20L22 21L23 21L23 22L22 22L22 23L21 23L21 22L19 22L19 23L18 23L18 24L17 24L17 22L15 22L15 23L16 23L16 24L17 24L17 25L20 25L20 24L21 24L21 25L22 25L22 23L23 23L23 24L25 24L25 25L24 25L24 26L25 26L25 25L26 25L26 22L25 22L25 21L23 21L23 19L22 19L22 18L20 18L20 16L19 16L19 15L20 15L20 14L21 14L21 12L19 12L19 11L22 11L22 12L23 12L23 10L24 10L24 7L25 7L25 6L24 6L24 5L22 5L22 7L21 7L21 6L20 6L20 8L18 8L18 9L20 9L20 10L19 10L19 11L18 11L18 12L17 12L17 13L16 13L16 14L15 14L15 13L14 13L14 12L15 12L15 11L16 11L16 10L15 10L15 8L16 8L16 7L15 7L15 8L12 8L12 7L11 7L11 5ZM23 6L23 7L24 7L24 6ZM30 6L30 7L31 7L31 6ZM32 6L32 7L33 7L33 6ZM21 9L21 10L23 10L23 9ZM29 9L29 10L31 10L31 11L28 11L28 13L29 13L29 12L31 12L31 11L32 11L32 12L33 12L33 13L34 13L34 12L33 12L33 11L34 11L34 10L33 10L33 9L32 9L32 10L31 10L31 9ZM32 10L32 11L33 11L33 10ZM24 11L24 12L25 12L25 11ZM18 12L18 14L16 14L16 15L18 15L18 14L20 14L20 13L19 13L19 12ZM9 13L9 14L10 14L10 13ZM39 13L39 14L41 14L41 13ZM23 14L23 15L25 15L25 14ZM36 14L36 15L37 15L37 14ZM6 15L6 16L7 16L7 15ZM8 16L8 17L9 17L9 16ZM36 16L36 17L35 17L35 19L36 19L36 20L37 20L37 19L38 19L38 18L39 18L39 17L38 17L38 18L36 18L36 17L37 17L37 16ZM32 17L32 18L33 18L33 17ZM9 19L9 20L8 20L8 21L9 21L9 20L10 20L10 19ZM20 19L20 20L21 20L21 19ZM15 20L15 21L16 21L16 20ZM40 20L40 21L41 21L41 20ZM35 21L35 22L36 22L36 21ZM6 22L6 23L8 23L8 22ZM11 22L11 23L12 23L12 22ZM23 22L23 23L24 23L24 22ZM19 23L19 24L20 24L20 23ZM30 24L30 25L33 25L33 26L34 26L34 25L33 25L33 24ZM36 26L36 27L37 27L37 26ZM3 28L3 29L5 29L5 28ZM34 30L34 31L35 31L35 30ZM6 32L6 33L7 33L7 32ZM37 32L37 34L38 34L38 35L37 35L37 36L39 36L39 33L38 33L38 32ZM8 33L8 34L9 34L9 33ZM33 33L33 36L36 36L36 33ZM20 34L20 35L21 35L21 36L20 36L20 39L21 39L21 36L22 36L22 37L24 37L24 36L23 36L23 35L22 35L22 34ZM34 34L34 35L35 35L35 34ZM9 36L9 37L10 37L10 36ZM27 36L27 37L29 37L29 36ZM18 37L18 38L19 38L19 37ZM30 37L30 38L31 38L31 37ZM34 37L34 38L36 38L36 37ZM37 38L37 39L38 39L38 38ZM0 0L0 7L7 7L7 0ZM1 1L1 6L6 6L6 1ZM2 2L2 5L5 5L5 2ZM34 0L34 7L41 7L41 0ZM35 1L35 6L40 6L40 1ZM36 2L36 5L39 5L39 2ZM0 34L0 41L7 41L7 34ZM1 35L1 40L6 40L6 35ZM2 36L2 39L5 39L5 36Z" fill="#000000"/></g></g></svg>
