<?xml version="1.0" encoding="UTF-8"?>
<svg xmlns="http://www.w3.org/2000/svg" version="1.1" width="200" height="200" viewBox="0 0 200 200"><rect x="0" y="0" width="200" height="200" fill="#ffffff"/><g transform="scale(6.897)"><g transform="translate(0,0)"><path fill-rule="evenodd" d="M13 0L13 1L12 1L12 2L11 2L11 1L10 1L10 2L9 2L9 1L8 1L8 7L9 7L9 5L13 5L13 6L12 6L12 8L13 8L13 6L14 6L14 7L15 7L15 8L14 8L14 9L13 9L13 10L12 10L12 12L13 12L13 14L14 14L14 13L15 13L15 15L16 15L16 16L17 16L17 15L21 15L21 19L22 19L22 20L19 20L19 19L20 19L20 18L19 18L19 19L18 19L18 17L20 17L20 16L18 16L18 17L15 17L15 20L14 20L14 15L12 15L12 13L11 13L11 12L10 12L10 11L11 11L11 10L10 10L10 8L5 8L5 9L9 9L9 10L5 10L5 11L7 11L7 12L6 12L6 13L3 13L3 12L4 12L4 11L3 11L3 10L4 10L4 9L3 9L3 8L2 8L2 9L3 9L3 10L1 10L1 11L0 11L0 14L1 14L1 15L0 15L0 16L1 16L1 15L2 15L2 17L3 17L3 18L5 18L5 15L7 15L7 14L8 14L8 12L9 12L9 13L10 13L10 14L9 14L9 15L11 15L11 16L6 16L6 17L7 17L7 18L6 18L6 19L5 19L5 20L4 20L4 19L3 19L3 20L0 20L0 21L3 21L3 20L4 20L4 21L5 21L5 20L6 20L6 21L8 21L8 24L9 24L9 25L10 25L10 24L12 24L12 22L13 22L13 21L11 21L11 22L9 22L9 20L11 20L11 19L12 19L12 20L14 20L14 23L16 23L16 24L13 24L13 25L11 25L11 27L10 27L10 26L8 26L8 27L10 27L10 28L9 28L9 29L11 29L11 27L12 27L12 28L14 28L14 27L15 27L15 25L16 25L16 26L18 26L18 27L16 27L16 29L17 29L17 28L19 28L19 26L20 26L20 27L21 27L21 29L22 29L22 28L24 28L24 29L29 29L29 26L27 26L27 27L28 27L28 28L26 28L26 27L25 27L25 28L24 28L24 26L23 26L23 27L22 27L22 26L21 26L21 25L25 25L25 26L26 26L26 25L28 25L28 24L29 24L29 22L28 22L28 21L27 21L27 20L26 20L26 18L28 18L28 19L29 19L29 18L28 18L28 17L29 17L29 16L27 16L27 17L25 17L25 16L22 16L22 15L25 15L25 14L26 14L26 13L27 13L27 15L29 15L29 14L28 14L28 13L29 13L29 12L27 12L27 11L29 11L29 9L28 9L28 8L23 8L23 10L22 10L22 11L21 11L21 9L22 9L22 8L21 8L21 0L19 0L19 1L20 1L20 2L19 2L19 3L20 3L20 5L19 5L19 4L18 4L18 5L17 5L17 3L18 3L18 2L17 2L17 1L18 1L18 0L16 0L16 2L15 2L15 3L16 3L16 5L15 5L15 4L11 4L11 3L14 3L14 2L13 2L13 1L14 1L14 0ZM10 2L10 3L11 3L11 2ZM14 5L14 6L15 6L15 7L16 7L16 6L17 6L17 7L18 7L18 9L17 9L17 8L16 8L16 9L14 9L14 10L13 10L13 12L15 12L15 10L16 10L16 12L17 12L17 13L16 13L16 15L17 15L17 14L18 14L18 12L19 12L19 14L22 14L22 12L21 12L21 13L20 13L20 12L19 12L19 11L20 11L20 9L19 9L19 7L20 7L20 6L19 6L19 7L18 7L18 6L17 6L17 5L16 5L16 6L15 6L15 5ZM10 6L10 7L11 7L11 6ZM16 9L16 10L17 10L17 11L19 11L19 10L17 10L17 9ZM25 9L25 10L24 10L24 11L26 11L26 10L28 10L28 9ZM9 10L9 11L10 11L10 10ZM1 11L1 14L2 14L2 15L5 15L5 14L2 14L2 12L3 12L3 11ZM23 12L23 14L25 14L25 13L24 13L24 12ZM6 13L6 14L7 14L7 13ZM3 16L3 17L4 17L4 16ZM11 16L11 17L12 17L12 19L13 19L13 16ZM22 17L22 18L25 18L25 17ZM0 18L0 19L2 19L2 18ZM10 18L10 19L11 19L11 18ZM6 19L6 20L8 20L8 19ZM16 19L16 21L15 21L15 22L16 22L16 21L17 21L17 19ZM23 19L23 20L25 20L25 19ZM19 21L19 22L17 22L17 23L19 23L19 24L20 24L20 23L19 23L19 22L20 22L20 21ZM21 21L21 24L24 24L24 21ZM26 21L26 23L25 23L25 25L26 25L26 24L27 24L27 21ZM22 22L22 23L23 23L23 22ZM9 23L9 24L10 24L10 23ZM17 24L17 25L18 25L18 24ZM12 26L12 27L14 27L14 26ZM0 0L0 7L7 7L7 0ZM1 1L1 6L6 6L6 1ZM2 2L2 5L5 5L5 2ZM22 0L22 7L29 7L29 0ZM23 1L23 6L28 6L28 1ZM24 2L24 5L27 5L27 2ZM0 22L0 29L7 29L7 22ZM1 23L1 28L6 28L6 23ZM2 24L2 27L5 27L5 24Z" fill="#000000"/></g></g></svg>
