<?xml version="1.0" encoding="UTF-8"?>
<svg xmlns="http://www.w3.org/2000/svg" version="1.1" width="200" height="200" viewBox="0 0 200 200"><rect x="0" y="0" width="200" height="200" fill="#ffffff"/><g transform="scale(6.897)"><g transform="translate(0,0)"><path fill-rule="evenodd" d="M9 0L9 1L10 1L10 2L8 2L8 4L9 4L9 6L8 6L8 7L9 7L9 6L10 6L10 8L11 8L11 11L12 11L12 12L11 12L11 13L10 13L10 15L9 15L9 16L8 16L8 15L7 15L7 14L6 14L6 15L7 15L7 16L5 16L5 15L3 15L3 13L4 13L4 14L5 14L5 13L4 13L4 12L3 12L3 11L4 11L4 10L5 10L5 8L3 8L3 10L1 10L1 11L2 11L2 12L1 12L1 13L2 13L2 14L1 14L1 15L0 15L0 21L2 21L2 20L3 20L3 19L2 19L2 16L1 16L1 15L3 15L3 16L5 16L5 17L4 17L4 19L5 19L5 17L7 17L7 18L6 18L6 19L8 19L8 23L10 23L10 24L8 24L8 26L9 26L9 28L10 28L10 27L11 27L11 28L12 28L12 29L13 29L13 28L14 28L14 29L15 29L15 28L16 28L16 29L17 29L17 28L18 28L18 29L19 29L19 28L20 28L20 29L21 29L21 27L22 27L22 28L24 28L24 29L25 29L25 28L27 28L27 29L28 29L28 28L27 28L27 27L29 27L29 26L27 26L27 25L28 25L28 24L29 24L29 23L28 23L28 24L26 24L26 26L25 26L25 22L27 22L27 21L26 21L26 20L27 20L27 19L26 19L26 18L29 18L29 17L28 17L28 16L29 16L29 14L27 14L27 13L29 13L29 11L28 11L28 10L27 10L27 8L25 8L25 9L24 9L24 10L23 10L23 9L22 9L22 10L23 10L23 12L22 12L22 11L21 11L21 12L19 12L19 10L18 10L18 9L19 9L19 8L18 8L18 9L17 9L17 6L18 6L18 7L19 7L19 6L20 6L20 7L21 7L21 4L20 4L20 3L21 3L21 1L20 1L20 0L16 0L16 3L15 3L15 1L10 1L10 0ZM17 1L17 4L15 4L15 3L14 3L14 2L13 2L13 3L11 3L11 2L10 2L10 6L11 6L11 8L12 8L12 9L13 9L13 8L15 8L15 9L14 9L14 10L12 10L12 11L15 11L15 13L17 13L17 14L14 14L14 16L18 16L18 15L19 15L19 18L18 18L18 19L17 19L17 18L16 18L16 17L13 17L13 16L12 16L12 15L13 15L13 13L14 13L14 12L13 12L13 13L12 13L12 14L11 14L11 17L10 17L10 18L11 18L11 17L13 17L13 19L14 19L14 18L16 18L16 19L15 19L15 20L16 20L16 19L17 19L17 20L18 20L18 21L16 21L16 22L17 22L17 23L16 23L16 25L18 25L18 26L19 26L19 27L21 27L21 26L22 26L22 27L25 27L25 26L24 26L24 25L18 25L18 24L17 24L17 23L19 23L19 24L20 24L20 20L22 20L22 19L20 19L20 15L21 15L21 18L22 18L22 16L24 16L24 17L23 17L23 18L25 18L25 16L26 16L26 17L27 17L27 16L28 16L28 15L27 15L27 16L26 16L26 13L25 13L25 16L24 16L24 12L23 12L23 14L22 14L22 12L21 12L21 14L20 14L20 15L19 15L19 13L17 13L17 12L18 12L18 10L16 10L16 11L15 11L15 9L16 9L16 6L15 6L15 7L14 7L14 5L17 5L17 4L18 4L18 3L20 3L20 1L19 1L19 2L18 2L18 1ZM11 4L11 6L12 6L12 7L13 7L13 6L12 6L12 4ZM13 4L13 5L14 5L14 4ZM6 8L6 9L7 9L7 10L6 10L6 11L8 11L8 13L9 13L9 12L10 12L10 11L9 11L9 10L8 10L8 8ZM20 8L20 10L21 10L21 8ZM25 9L25 10L26 10L26 11L27 11L27 12L28 12L28 11L27 11L27 10L26 10L26 9ZM16 11L16 12L17 12L17 11ZM6 12L6 13L7 13L7 12ZM7 16L7 17L8 17L8 18L9 18L9 17L8 17L8 16ZM9 19L9 21L10 21L10 23L11 23L11 24L10 24L10 26L12 26L12 24L13 24L13 25L14 25L14 23L15 23L15 21L14 21L14 20L12 20L12 21L10 21L10 19ZM18 19L18 20L19 20L19 19ZM23 19L23 20L25 20L25 19ZM4 20L4 21L7 21L7 20ZM12 21L12 22L11 22L11 23L12 23L12 22L14 22L14 21ZM21 21L21 24L24 24L24 21ZM28 21L28 22L29 22L29 21ZM22 22L22 23L23 23L23 22ZM14 26L14 28L15 28L15 26ZM26 26L26 27L27 27L27 26ZM0 0L0 7L7 7L7 0ZM1 1L1 6L6 6L6 1ZM2 2L2 5L5 5L5 2ZM22 0L22 7L29 7L29 0ZM23 1L23 6L28 6L28 1ZM24 2L24 5L27 5L27 2ZM0 22L0 29L7 29L7 22ZM1 23L1 28L6 28L6 23ZM2 24L2 27L5 27L5 24Z" fill="#000000"/></g></g></svg>
