<?xml version="1.0" encoding="UTF-8"?>
<svg xmlns="http://www.w3.org/2000/svg" version="1.1" width="200" height="200" viewBox="0 0 200 200"><rect x="0" y="0" width="200" height="200" fill="#ffffff"/><g transform="scale(4.878)"><g transform="translate(0,0)"><path fill-rule="evenodd" d="M9 0L9 1L8 1L8 2L9 2L9 3L10 3L10 4L11 4L11 3L14 3L14 2L13 2L13 1L12 1L12 0ZM17 0L17 5L16 5L16 8L14 8L14 9L13 9L13 6L14 6L14 7L15 7L15 5L14 5L14 4L12 4L12 5L13 5L13 6L12 6L12 8L10 8L10 9L8 9L8 8L9 8L9 5L8 5L8 8L4 8L4 9L5 9L5 10L6 10L6 11L5 11L5 12L6 12L6 13L9 13L9 12L6 12L6 11L8 11L8 10L9 10L9 11L10 11L10 13L11 13L11 14L10 14L10 15L8 15L8 14L6 14L6 15L8 15L8 16L4 16L4 15L5 15L5 13L3 13L3 11L4 11L4 10L3 10L3 9L0 9L0 10L1 10L1 11L0 11L0 15L1 15L1 16L3 16L3 17L1 17L1 18L0 18L0 19L1 19L1 18L3 18L3 19L2 19L2 20L3 20L3 21L1 21L1 20L0 20L0 23L2 23L2 24L5 24L5 25L2 25L2 26L0 26L0 27L4 27L4 26L6 26L6 27L8 27L8 26L9 26L9 28L10 28L10 27L12 27L12 29L8 29L8 28L5 28L5 30L2 30L2 29L3 29L3 28L1 28L1 29L0 29L0 30L2 30L2 31L5 31L5 32L4 32L4 33L7 33L7 32L6 32L6 31L8 31L8 30L9 30L9 32L8 32L8 37L9 37L9 39L10 39L10 40L11 40L11 39L15 39L15 41L18 41L18 39L17 39L17 38L20 38L20 39L21 39L21 40L22 40L22 41L23 41L23 40L24 40L24 41L28 41L28 40L29 40L29 41L30 41L30 40L31 40L31 41L33 41L33 39L32 39L32 38L33 38L33 37L36 37L36 38L37 38L37 34L38 34L38 35L39 35L39 36L40 36L40 38L38 38L38 39L36 39L36 40L37 40L37 41L40 41L40 40L41 40L41 33L40 33L40 32L39 32L39 33L37 33L37 32L35 32L35 31L38 31L38 30L39 30L39 31L41 31L41 29L40 29L40 27L41 27L41 24L40 24L40 23L41 23L41 22L40 22L40 21L41 21L41 9L40 9L40 8L39 8L39 9L36 9L36 8L34 8L34 9L33 9L33 8L32 8L32 9L33 9L33 10L35 10L35 9L36 9L36 10L37 10L37 13L36 13L36 14L33 14L33 13L35 13L35 12L36 12L36 11L35 11L35 12L34 12L34 11L33 11L33 13L32 13L32 11L29 11L29 10L28 10L28 9L30 9L30 10L31 10L31 9L30 9L30 7L31 7L31 6L32 6L32 7L33 7L33 6L32 6L32 5L33 5L33 1L31 1L31 0L29 0L29 1L28 1L28 0L27 0L27 1L26 1L26 0L25 0L25 1L24 1L24 0L22 0L22 1L23 1L23 2L22 2L22 3L21 3L21 4L22 4L22 7L21 7L21 5L20 5L20 1L19 1L19 2L18 2L18 0ZM9 1L9 2L10 2L10 1ZM11 1L11 2L12 2L12 1ZM15 1L15 4L16 4L16 1ZM27 1L27 2L28 2L28 3L26 3L26 2L25 2L25 4L24 4L24 2L23 2L23 5L24 5L24 6L23 6L23 7L22 7L22 8L20 8L20 6L19 6L19 5L18 5L18 6L17 6L17 8L16 8L16 9L15 9L15 10L14 10L14 11L13 11L13 9L12 9L12 10L10 10L10 11L11 11L11 13L12 13L12 12L13 12L13 15L12 15L12 17L11 17L11 16L10 16L10 17L9 17L9 16L8 16L8 18L7 18L7 17L6 17L6 18L5 18L5 17L4 17L4 20L5 20L5 21L3 21L3 22L2 22L2 23L3 23L3 22L4 22L4 23L6 23L6 24L7 24L7 25L6 25L6 26L7 26L7 25L9 25L9 24L10 24L10 25L11 25L11 24L10 24L10 23L8 23L8 24L7 24L7 23L6 23L6 22L7 22L7 21L8 21L8 22L10 22L10 21L8 21L8 20L11 20L11 19L12 19L12 21L11 21L11 22L12 22L12 23L13 23L13 22L14 22L14 20L15 20L15 21L16 21L16 23L17 23L17 24L16 24L16 25L17 25L17 26L15 26L15 25L14 25L14 26L15 26L15 28L14 28L14 27L13 27L13 26L12 26L12 27L13 27L13 29L12 29L12 30L13 30L13 29L15 29L15 31L13 31L13 32L12 32L12 31L10 31L10 33L9 33L9 36L10 36L10 37L11 37L11 38L12 38L12 37L13 37L13 38L14 38L14 37L13 37L13 36L14 36L14 34L13 34L13 32L16 32L16 29L17 29L17 32L18 32L18 34L16 34L16 33L15 33L15 34L16 34L16 37L17 37L17 35L18 35L18 37L20 37L20 38L21 38L21 39L22 39L22 38L23 38L23 37L24 37L24 38L25 38L25 36L24 36L24 35L27 35L27 34L26 34L26 33L28 33L28 34L29 34L29 35L28 35L28 36L27 36L27 37L28 37L28 39L29 39L29 38L30 38L30 39L31 39L31 38L32 38L32 37L31 37L31 36L32 36L32 35L30 35L30 34L29 34L29 33L28 33L28 32L26 32L26 31L27 31L27 30L28 30L28 31L29 31L29 30L31 30L31 29L28 29L28 28L29 28L29 25L28 25L28 28L27 28L27 27L25 27L25 26L26 26L26 25L25 25L25 24L24 24L24 20L25 20L25 18L21 18L21 17L23 17L23 16L24 16L24 15L25 15L25 13L26 13L26 15L27 15L27 16L28 16L28 19L27 19L27 20L26 20L26 22L27 22L27 21L28 21L28 22L30 22L30 23L31 23L31 25L30 25L30 26L31 26L31 28L33 28L33 29L32 29L32 31L33 31L33 32L34 32L34 31L35 31L35 30L36 30L36 29L37 29L37 30L38 30L38 29L37 29L37 28L36 28L36 29L35 29L35 28L34 28L34 27L32 27L32 25L37 25L37 26L35 26L35 27L37 27L37 26L38 26L38 28L39 28L39 25L37 25L37 24L39 24L39 23L40 23L40 22L39 22L39 23L38 23L38 22L36 22L36 21L35 21L35 20L36 20L36 19L35 19L35 18L36 18L36 17L37 17L37 16L36 16L36 17L35 17L35 16L34 16L34 15L32 15L32 14L31 14L31 15L30 15L30 13L29 13L29 12L28 12L28 11L26 11L26 10L23 10L23 8L25 8L25 9L28 9L28 8L29 8L29 7L30 7L30 6L31 6L31 5L32 5L32 3L31 3L31 1L30 1L30 2L28 2L28 1ZM18 3L18 4L19 4L19 3ZM29 3L29 4L30 4L30 5L28 5L28 4L27 4L27 5L28 5L28 7L27 7L27 6L26 6L26 4L25 4L25 6L24 6L24 7L25 7L25 8L28 8L28 7L29 7L29 6L30 6L30 5L31 5L31 3ZM10 5L10 7L11 7L11 5ZM18 6L18 7L19 7L19 6ZM25 6L25 7L26 7L26 6ZM18 8L18 9L19 9L19 10L18 10L18 13L17 13L17 10L16 10L16 12L15 12L15 11L14 11L14 13L15 13L15 14L14 14L14 16L15 16L15 17L13 17L13 18L12 18L12 19L13 19L13 18L15 18L15 19L16 19L16 21L17 21L17 22L18 22L18 23L19 23L19 24L17 24L17 25L20 25L20 26L21 26L21 25L23 25L23 23L22 23L22 21L21 21L21 20L20 20L20 22L19 22L19 21L17 21L17 19L18 19L18 20L19 20L19 19L21 19L21 18L20 18L20 14L18 14L18 13L21 13L21 14L22 14L22 15L21 15L21 16L22 16L22 15L23 15L23 14L24 14L24 13L25 13L25 11L24 11L24 13L22 13L22 12L23 12L23 10L22 10L22 9L21 9L21 12L19 12L19 10L20 10L20 8ZM6 9L6 10L8 10L8 9ZM1 11L1 12L2 12L2 11ZM38 11L38 12L39 12L39 13L40 13L40 12L39 12L39 11ZM26 12L26 13L27 13L27 12ZM1 13L1 15L4 15L4 14L2 14L2 13ZM28 13L28 15L29 15L29 17L32 17L32 19L33 19L33 17L32 17L32 16L30 16L30 15L29 15L29 13ZM37 13L37 14L36 14L36 15L37 15L37 14L38 14L38 13ZM18 15L18 16L19 16L19 15ZM38 15L38 17L39 17L39 16L40 16L40 15ZM25 16L25 17L26 17L26 18L27 18L27 17L26 17L26 16ZM17 17L17 18L18 18L18 19L19 19L19 18L18 18L18 17ZM34 17L34 18L35 18L35 17ZM6 18L6 19L5 19L5 20L6 20L6 21L7 21L7 20L6 20L6 19L7 19L7 18ZM8 18L8 19L10 19L10 18ZM29 18L29 20L28 20L28 21L29 21L29 20L30 20L30 21L32 21L32 23L33 23L33 22L34 22L34 24L36 24L36 23L35 23L35 21L32 21L32 20L31 20L31 19L30 19L30 18ZM37 18L37 19L38 19L38 21L39 21L39 20L40 20L40 19L39 19L39 18ZM34 19L34 20L35 20L35 19ZM12 21L12 22L13 22L13 21ZM20 22L20 25L21 25L21 24L22 24L22 23L21 23L21 22ZM14 23L14 24L15 24L15 23ZM22 26L22 27L20 27L20 29L21 29L21 30L22 30L22 29L23 29L23 31L20 31L20 30L19 30L19 32L20 32L20 33L19 33L19 34L20 34L20 33L21 33L21 34L22 34L22 35L21 35L21 38L22 38L22 37L23 37L23 36L22 36L22 35L23 35L23 33L24 33L24 34L25 34L25 33L26 33L26 32L25 32L25 31L24 31L24 28L25 28L25 27L24 27L24 26ZM16 27L16 28L15 28L15 29L16 29L16 28L17 28L17 29L19 29L19 27L18 27L18 28L17 28L17 27ZM26 28L26 29L25 29L25 30L26 30L26 29L27 29L27 28ZM6 29L6 30L5 30L5 31L6 31L6 30L8 30L8 29ZM33 29L33 30L34 30L34 29ZM39 29L39 30L40 30L40 29ZM23 31L23 32L24 32L24 33L25 33L25 32L24 32L24 31ZM30 31L30 33L31 33L31 34L32 34L32 32L31 32L31 31ZM0 32L0 33L3 33L3 32ZM21 32L21 33L22 33L22 32ZM10 33L10 36L11 36L11 37L12 37L12 36L13 36L13 35L12 35L12 34L11 34L11 33ZM33 33L33 36L36 36L36 33ZM39 33L39 34L40 34L40 33ZM34 34L34 35L35 35L35 34ZM19 35L19 36L20 36L20 35ZM28 36L28 37L29 37L29 36ZM30 37L30 38L31 38L31 37ZM26 38L26 39L27 39L27 38ZM16 39L16 40L17 40L17 39ZM34 39L34 40L35 40L35 39ZM12 40L12 41L13 41L13 40ZM19 40L19 41L20 41L20 40ZM0 0L0 7L7 7L7 0ZM1 1L1 6L6 6L6 1ZM2 2L2 5L5 5L5 2ZM34 0L34 7L41 7L41 0ZM35 1L35 6L40 6L40 1ZM36 2L36 5L39 5L39 2ZM0 34L0 41L7 41L7 34ZM1 35L1 40L6 40L6 35ZM2 36L2 39L5 39L5 36Z" fill="#000000"/></g></g></svg>
