<?xml version="1.0" encoding="UTF-8"?>
<svg xmlns="http://www.w3.org/2000/svg" version="1.1" width="200" height="200" viewBox="0 0 200 200"><rect x="0" y="0" width="200" height="200" fill="#ffffff"/><g transform="scale(4.878)"><g transform="translate(0,0)"><path fill-rule="evenodd" d="M8 0L8 3L9 3L9 2L10 2L10 1L11 1L11 0L10 0L10 1L9 1L9 0ZM12 0L12 2L11 2L11 3L10 3L10 4L9 4L9 5L8 5L8 9L9 9L9 8L11 8L11 9L10 9L10 10L13 10L13 9L14 9L14 11L15 11L15 12L14 12L14 13L13 13L13 14L12 14L12 16L11 16L11 15L10 15L10 16L9 16L9 17L10 17L10 16L11 16L11 19L10 19L10 18L9 18L9 20L8 20L8 21L7 21L7 20L6 20L6 19L7 19L7 18L8 18L8 16L6 16L6 17L5 17L5 18L4 18L4 16L5 16L5 15L7 15L7 14L6 14L6 13L7 13L7 12L6 12L6 13L5 13L5 11L3 11L3 9L4 9L4 10L6 10L6 11L7 11L7 10L6 10L6 9L7 9L7 8L6 8L6 9L5 9L5 8L2 8L2 9L0 9L0 10L1 10L1 11L0 11L0 16L1 16L1 17L0 17L0 19L1 19L1 17L2 17L2 18L3 18L3 19L2 19L2 20L0 20L0 24L1 24L1 25L2 25L2 23L3 23L3 24L4 24L4 23L3 23L3 21L4 21L4 22L5 22L5 23L7 23L7 24L6 24L6 25L7 25L7 24L8 24L8 23L9 23L9 24L10 24L10 26L9 26L9 25L8 25L8 26L5 26L5 25L3 25L3 26L4 26L4 29L3 29L3 27L2 27L2 26L0 26L0 27L1 27L1 28L0 28L0 33L1 33L1 30L2 30L2 29L3 29L3 30L4 30L4 29L5 29L5 32L3 32L3 31L2 31L2 32L3 32L3 33L8 33L8 34L9 34L9 35L10 35L10 36L8 36L8 39L9 39L9 40L10 40L10 39L11 39L11 40L12 40L12 41L14 41L14 40L12 40L12 39L14 39L14 38L10 38L10 39L9 39L9 37L10 37L10 36L11 36L11 37L12 37L12 36L13 36L13 37L14 37L14 35L12 35L12 34L15 34L15 31L16 31L16 34L17 34L17 33L19 33L19 32L21 32L21 33L22 33L22 32L23 32L23 33L24 33L24 32L25 32L25 33L27 33L27 32L25 32L25 31L26 31L26 30L29 30L29 29L30 29L30 30L31 30L31 29L33 29L33 30L32 30L32 31L33 31L33 30L34 30L34 31L35 31L35 32L32 32L32 34L31 34L31 33L30 33L30 32L29 32L29 31L28 31L28 33L30 33L30 35L31 35L31 36L30 36L30 37L31 37L31 39L30 39L30 38L29 38L29 37L28 37L28 36L27 36L27 35L29 35L29 34L25 34L25 35L26 35L26 36L25 36L25 38L26 38L26 39L25 39L25 40L26 40L26 39L28 39L28 38L29 38L29 39L30 39L30 40L27 40L27 41L31 41L31 40L33 40L33 41L34 41L34 40L33 40L33 39L32 39L32 37L33 37L33 38L34 38L34 39L35 39L35 40L36 40L36 39L38 39L38 38L39 38L39 40L40 40L40 38L41 38L41 37L39 37L39 36L40 36L40 34L41 34L41 33L40 33L40 32L41 32L41 31L40 31L40 30L41 30L41 29L40 29L40 28L41 28L41 27L40 27L40 26L41 26L41 23L40 23L40 26L39 26L39 24L37 24L37 25L33 25L33 24L34 24L34 23L32 23L32 25L31 25L31 24L27 24L27 25L26 25L26 23L28 23L28 22L26 22L26 21L29 21L29 20L32 20L32 21L30 21L30 22L32 22L32 21L34 21L34 22L36 22L36 21L38 21L38 22L39 22L39 20L36 20L36 19L35 19L35 17L36 17L36 18L37 18L37 17L39 17L39 16L37 16L37 15L38 15L38 14L37 14L37 13L36 13L36 14L35 14L35 15L36 15L36 16L35 16L35 17L34 17L34 16L33 16L33 15L34 15L34 14L33 14L33 13L34 13L34 12L33 12L33 11L34 11L34 10L35 10L35 11L36 11L36 12L38 12L38 11L39 11L39 13L40 13L40 14L39 14L39 15L40 15L40 14L41 14L41 13L40 13L40 10L41 10L41 8L38 8L38 9L40 9L40 10L37 10L37 9L36 9L36 8L31 8L31 5L32 5L32 4L33 4L33 3L32 3L32 2L33 2L33 0L30 0L30 2L31 2L31 3L30 3L30 4L31 4L31 5L29 5L29 6L28 6L28 5L26 5L26 7L25 7L25 4L24 4L24 3L23 3L23 1L24 1L24 0L20 0L20 1L19 1L19 0L18 0L18 2L15 2L15 6L14 6L14 7L13 7L13 3L14 3L14 1L15 1L15 0ZM16 0L16 1L17 1L17 0ZM25 0L25 3L26 3L26 4L27 4L27 3L28 3L28 4L29 4L29 1L27 1L27 0ZM21 1L21 2L20 2L20 3L19 3L19 4L18 4L18 5L17 5L17 4L16 4L16 5L17 5L17 7L18 7L18 5L19 5L19 4L21 4L21 7L22 7L22 6L23 6L23 7L24 7L24 5L23 5L23 4L21 4L21 3L22 3L22 1ZM31 1L31 2L32 2L32 1ZM26 2L26 3L27 3L27 2ZM11 3L11 4L10 4L10 6L9 6L9 7L10 7L10 6L11 6L11 7L12 7L12 9L13 9L13 7L12 7L12 6L11 6L11 5L12 5L12 3ZM31 3L31 4L32 4L32 3ZM15 6L15 7L16 7L16 6ZM19 6L19 7L20 7L20 6ZM27 6L27 7L26 7L26 9L24 9L24 8L23 8L23 9L21 9L21 8L19 8L19 9L20 9L20 11L19 11L19 12L18 12L18 13L17 13L17 11L16 11L16 10L17 10L17 9L18 9L18 8L16 8L16 9L15 9L15 8L14 8L14 9L15 9L15 11L16 11L16 12L15 12L15 13L17 13L17 15L18 15L18 16L12 16L12 19L11 19L11 20L12 20L12 19L13 19L13 17L15 17L15 18L14 18L14 20L13 20L13 22L14 22L14 23L15 23L15 21L16 21L16 23L17 23L17 22L18 22L18 23L19 23L19 25L18 25L18 24L15 24L15 25L14 25L14 24L13 24L13 26L15 26L15 27L8 27L8 30L7 30L7 29L6 29L6 30L7 30L7 31L6 31L6 32L7 32L7 31L8 31L8 32L10 32L10 34L11 34L11 32L12 32L12 33L13 33L13 29L14 29L14 31L15 31L15 29L14 29L14 28L17 28L17 29L18 29L18 28L17 28L17 27L16 27L16 25L17 25L17 26L19 26L19 28L20 28L20 27L21 27L21 26L19 26L19 25L22 25L22 24L24 24L24 25L25 25L25 23L24 23L24 22L25 22L25 21L26 21L26 20L28 20L28 19L27 19L27 18L29 18L29 16L30 16L30 15L28 15L28 17L27 17L27 15L26 15L26 17L27 17L27 18L26 18L26 20L25 20L25 16L23 16L23 15L20 15L20 17L21 17L21 16L23 16L23 17L22 17L22 18L21 18L21 19L22 19L22 20L25 20L25 21L23 21L23 23L22 23L22 22L21 22L21 23L20 23L20 21L21 21L21 20L20 20L20 19L19 19L19 18L18 18L18 16L19 16L19 15L18 15L18 14L20 14L20 11L21 11L21 14L22 14L22 13L24 13L24 15L25 15L25 14L26 14L26 13L25 13L25 12L26 12L26 11L27 11L27 10L28 10L28 12L31 12L31 14L32 14L32 15L33 15L33 14L32 14L32 13L33 13L33 12L32 12L32 10L33 10L33 9L32 9L32 10L31 10L31 11L30 11L30 9L31 9L31 8L30 8L30 6L29 6L29 7L28 7L28 6ZM32 6L32 7L33 7L33 6ZM27 7L27 9L26 9L26 10L23 10L23 11L22 11L22 10L21 10L21 11L22 11L22 12L23 12L23 11L24 11L24 12L25 12L25 11L26 11L26 10L27 10L27 9L30 9L30 8L28 8L28 7ZM1 11L1 12L2 12L2 13L1 13L1 16L2 16L2 17L3 17L3 16L4 16L4 15L2 15L2 13L4 13L4 12L3 12L3 11ZM8 11L8 15L9 15L9 11ZM11 11L11 13L10 13L10 14L11 14L11 13L12 13L12 11ZM28 13L28 14L30 14L30 13ZM13 14L13 15L15 15L15 14ZM36 14L36 15L37 15L37 14ZM32 16L32 17L33 17L33 16ZM36 16L36 17L37 17L37 16ZM40 16L40 18L38 18L38 19L40 19L40 18L41 18L41 16ZM6 17L6 18L7 18L7 17ZM30 17L30 19L33 19L33 20L34 20L34 21L36 21L36 20L35 20L35 19L34 19L34 18L31 18L31 17ZM17 18L17 20L16 20L16 21L17 21L17 20L19 20L19 19L18 19L18 18ZM22 18L22 19L23 19L23 18ZM3 19L3 20L2 20L2 21L1 21L1 23L2 23L2 21L3 21L3 20L4 20L4 19ZM5 20L5 21L6 21L6 22L7 22L7 23L8 23L8 22L7 22L7 21L6 21L6 20ZM9 20L9 22L10 22L10 23L11 23L11 24L12 24L12 21L10 21L10 20ZM40 20L40 21L41 21L41 20ZM21 23L21 24L22 24L22 23ZM35 23L35 24L36 24L36 23ZM27 25L27 26L29 26L29 28L28 28L28 27L26 27L26 26L25 26L25 27L24 27L24 28L23 28L23 26L22 26L22 28L21 28L21 29L20 29L20 30L16 30L16 31L17 31L17 32L19 32L19 31L21 31L21 32L22 32L22 31L23 31L23 32L24 32L24 31L25 31L25 30L26 30L26 29L27 29L27 28L28 28L28 29L29 29L29 28L30 28L30 29L31 29L31 28L33 28L33 29L34 29L34 30L35 30L35 31L36 31L36 29L37 29L37 30L38 30L38 31L37 31L37 32L39 32L39 30L38 30L38 29L39 29L39 26L38 26L38 28L36 28L36 29L34 29L34 28L33 28L33 27L34 27L34 26L33 26L33 25L32 25L32 26L31 26L31 25L30 25L30 26L29 26L29 25ZM35 26L35 27L36 27L36 26ZM5 27L5 28L7 28L7 27ZM25 27L25 28L26 28L26 27ZM1 28L1 29L2 29L2 28ZM9 28L9 29L10 29L10 28ZM12 28L12 29L13 29L13 28ZM23 29L23 30L24 30L24 29ZM8 30L8 31L9 31L9 30ZM33 33L33 36L36 36L36 33ZM38 33L38 34L39 34L39 33ZM19 34L19 35L18 35L18 36L17 36L17 37L16 37L16 38L15 38L15 40L16 40L16 41L20 41L20 40L22 40L22 39L23 39L23 40L24 40L24 39L23 39L23 38L24 38L24 36L23 36L23 37L22 37L22 36L19 36L19 35L20 35L20 34ZM22 34L22 35L23 35L23 34ZM34 34L34 35L35 35L35 34ZM11 35L11 36L12 36L12 35ZM38 35L38 36L37 36L37 38L38 38L38 36L39 36L39 35ZM31 36L31 37L32 37L32 36ZM20 37L20 38L19 38L19 40L20 40L20 39L22 39L22 37ZM26 37L26 38L28 38L28 37ZM34 37L34 38L36 38L36 37ZM17 38L17 39L16 39L16 40L18 40L18 38ZM0 0L0 7L7 7L7 0ZM1 1L1 6L6 6L6 1ZM2 2L2 5L5 5L5 2ZM34 0L34 7L41 7L41 0ZM35 1L35 6L40 6L40 1ZM36 2L36 5L39 5L39 2ZM0 34L0 41L7 41L7 34ZM1 35L1 40L6 40L6 35ZM2 36L2 39L5 39L5 36Z" fill="#000000"/></g></g></svg>
