<?xml version="1.0" encoding="UTF-8"?>
<svg xmlns="http://www.w3.org/2000/svg" version="1.1" width="200" height="200" viewBox="0 0 200 200"><rect x="0" y="0" width="200" height="200" fill="#ffffff"/><g transform="scale(4.878)"><g transform="translate(0,0)"><path fill-rule="evenodd" d="M8 0L8 2L10 2L10 3L11 3L11 5L12 5L12 7L11 7L11 6L10 6L10 7L9 7L9 5L10 5L10 4L9 4L9 3L8 3L8 7L9 7L9 8L11 8L11 9L14 9L14 7L15 7L15 10L14 10L14 12L15 12L15 13L14 13L14 14L16 14L16 16L17 16L17 17L16 17L16 18L17 18L17 19L16 19L16 20L17 20L17 21L15 21L15 19L13 19L13 18L15 18L15 16L14 16L14 17L12 17L12 16L11 16L11 17L12 17L12 18L11 18L11 19L10 19L10 22L11 22L11 23L10 23L10 25L9 25L9 26L11 26L11 27L12 27L12 29L14 29L14 28L16 28L16 29L15 29L15 30L12 30L12 31L13 31L13 33L14 33L14 31L15 31L15 34L16 34L16 35L14 35L14 34L13 34L13 35L14 35L14 36L12 36L12 38L14 38L14 37L16 37L16 40L15 40L15 39L14 39L14 40L12 40L12 39L11 39L11 40L10 40L10 41L14 41L14 40L15 40L15 41L16 41L16 40L17 40L17 41L18 41L18 39L17 39L17 38L18 38L18 37L19 37L19 38L21 38L21 37L20 37L20 36L22 36L22 37L23 37L23 38L22 38L22 39L23 39L23 41L24 41L24 40L25 40L25 41L26 41L26 40L25 40L25 39L27 39L27 40L28 40L28 39L27 39L27 38L26 38L26 37L25 37L25 38L24 38L24 37L23 37L23 35L24 35L24 32L22 32L22 31L23 31L23 30L24 30L24 29L23 29L23 30L22 30L22 28L25 28L25 26L26 26L26 24L27 24L27 23L25 23L25 24L23 24L23 25L24 25L24 27L23 27L23 26L22 26L22 28L21 28L21 27L18 27L18 26L17 26L17 25L19 25L19 26L21 26L21 25L22 25L22 22L21 22L21 21L23 21L23 23L24 23L24 21L26 21L26 22L27 22L27 20L25 20L25 19L27 19L27 18L26 18L26 16L27 16L27 17L28 17L28 16L29 16L29 17L30 17L30 15L31 15L31 17L33 17L33 19L34 19L34 22L33 22L33 23L32 23L32 22L31 22L31 20L32 20L32 21L33 21L33 20L32 20L32 19L31 19L31 18L30 18L30 19L29 19L29 18L28 18L28 24L29 24L29 25L28 25L28 29L25 29L25 30L28 30L28 29L30 29L30 28L31 28L31 30L30 30L30 31L26 31L26 32L25 32L25 36L27 36L27 37L28 37L28 38L30 38L30 37L28 37L28 35L29 35L29 36L30 36L30 34L32 34L32 38L31 38L31 39L29 39L29 41L30 41L30 40L31 40L31 41L33 41L33 39L32 39L32 38L33 38L33 37L34 37L34 38L36 38L36 40L37 40L37 41L40 41L40 39L41 39L41 38L40 38L40 37L41 37L41 35L40 35L40 36L39 36L39 34L41 34L41 32L40 32L40 31L41 31L41 29L39 29L39 28L37 28L37 29L38 29L38 30L35 30L35 31L34 31L34 30L32 30L32 29L33 29L33 28L32 28L32 27L33 27L33 26L34 26L34 27L35 27L35 26L34 26L34 25L35 25L35 23L37 23L37 24L38 24L38 25L37 25L37 26L36 26L36 27L38 27L38 26L39 26L39 25L40 25L40 24L41 24L41 23L40 23L40 22L39 22L39 23L37 23L37 22L36 22L36 21L40 21L40 20L41 20L41 16L39 16L39 17L37 17L37 18L38 18L38 19L40 19L40 20L37 20L37 19L36 19L36 21L35 21L35 19L34 19L34 18L35 18L35 17L36 17L36 13L34 13L34 12L35 12L35 10L36 10L36 9L37 9L37 10L38 10L38 8L35 8L35 9L34 9L34 10L31 10L31 8L32 8L32 9L33 9L33 8L32 8L32 7L33 7L33 6L32 6L32 5L33 5L33 3L32 3L32 2L33 2L33 0L31 0L31 1L30 1L30 0L27 0L27 2L26 2L26 3L25 3L25 4L23 4L23 3L24 3L24 2L25 2L25 1L23 1L23 0L19 0L19 1L18 1L18 0L14 0L14 3L15 3L15 4L14 4L14 5L15 5L15 6L14 6L14 7L13 7L13 5L12 5L12 4L13 4L13 0L11 0L11 1L10 1L10 0ZM16 1L16 2L15 2L15 3L18 3L18 4L17 4L17 5L16 5L16 4L15 4L15 5L16 5L16 6L15 6L15 7L16 7L16 8L17 8L17 7L18 7L18 6L19 6L19 9L21 9L21 10L20 10L20 12L19 12L19 11L17 11L17 12L16 12L16 10L15 10L15 12L16 12L16 14L18 14L18 17L17 17L17 18L18 18L18 19L19 19L19 20L18 20L18 21L17 21L17 22L16 22L16 23L15 23L15 22L14 22L14 20L11 20L11 21L13 21L13 22L14 22L14 23L15 23L15 24L14 24L14 26L16 26L16 28L17 28L17 26L16 26L16 24L17 24L17 22L18 22L18 21L19 21L19 22L20 22L20 21L21 21L21 19L20 19L20 18L21 18L21 17L22 17L22 19L23 19L23 21L24 21L24 19L23 19L23 18L25 18L25 15L27 15L27 16L28 16L28 15L27 15L27 11L28 11L28 12L30 12L30 11L29 11L29 9L30 9L30 8L28 8L28 6L29 6L29 7L30 7L30 4L29 4L29 3L30 3L30 1L28 1L28 2L27 2L27 3L26 3L26 4L25 4L25 7L24 7L24 5L23 5L23 7L22 7L22 5L20 5L20 4L22 4L22 3L21 3L21 1L19 1L19 2L17 2L17 1ZM22 1L22 2L23 2L23 1ZM31 1L31 2L32 2L32 1ZM11 2L11 3L12 3L12 2ZM18 4L18 5L19 5L19 4ZM27 4L27 6L26 6L26 8L24 8L24 7L23 7L23 8L22 8L22 7L21 7L21 6L20 6L20 8L21 8L21 9L22 9L22 10L21 10L21 14L19 14L19 12L18 12L18 14L19 14L19 15L20 15L20 16L19 16L19 17L18 17L18 18L19 18L19 17L21 17L21 16L22 16L22 17L23 17L23 16L24 16L24 15L25 15L25 14L26 14L26 8L27 8L27 6L28 6L28 5L29 5L29 4ZM31 4L31 5L32 5L32 4ZM16 6L16 7L17 7L17 6ZM31 6L31 7L32 7L32 6ZM12 7L12 8L13 8L13 7ZM3 8L3 9L1 9L1 10L0 10L0 11L1 11L1 10L3 10L3 12L4 12L4 14L5 14L5 15L3 15L3 14L2 14L2 12L1 12L1 14L0 14L0 17L1 17L1 16L3 16L3 20L2 20L2 19L0 19L0 20L1 20L1 21L0 21L0 22L1 22L1 21L2 21L2 22L3 22L3 20L4 20L4 23L0 23L0 25L1 25L1 24L4 24L4 25L3 25L3 26L1 26L1 27L2 27L2 28L0 28L0 29L2 29L2 28L3 28L3 30L2 30L2 31L3 31L3 33L8 33L8 34L9 34L9 33L8 33L8 31L9 31L9 32L11 32L11 28L10 28L10 27L9 27L9 28L8 28L8 31L7 31L7 30L5 30L5 31L3 31L3 30L4 30L4 29L7 29L7 28L6 28L6 27L8 27L8 26L5 26L5 24L6 24L6 25L8 25L8 24L9 24L9 23L7 23L7 22L5 22L5 19L7 19L7 20L6 20L6 21L9 21L9 20L8 20L8 19L7 19L7 18L9 18L9 17L10 17L10 16L9 16L9 15L10 15L10 14L11 14L11 13L10 13L10 14L9 14L9 15L8 15L8 16L9 16L9 17L7 17L7 16L5 16L5 15L7 15L7 14L6 14L6 13L9 13L9 12L10 12L10 11L11 11L11 10L9 10L9 12L8 12L8 11L7 11L7 10L8 10L8 9L7 9L7 8L6 8L6 9L4 9L4 8ZM23 8L23 11L22 11L22 12L23 12L23 13L24 13L24 14L22 14L22 16L23 16L23 15L24 15L24 14L25 14L25 13L24 13L24 12L25 12L25 10L24 10L24 8ZM39 8L39 9L40 9L40 10L41 10L41 8ZM6 9L6 10L7 10L7 9ZM17 9L17 10L18 10L18 9ZM6 11L6 12L5 12L5 13L6 13L6 12L7 12L7 11ZM12 11L12 15L13 15L13 11ZM23 11L23 12L24 12L24 11ZM32 11L32 12L31 12L31 13L30 13L30 14L29 14L29 13L28 13L28 14L29 14L29 15L30 15L30 14L31 14L31 15L32 15L32 16L33 16L33 17L35 17L35 15L34 15L34 14L33 14L33 11ZM38 11L38 13L39 13L39 12L40 12L40 13L41 13L41 11ZM1 14L1 15L2 15L2 14ZM32 14L32 15L33 15L33 14ZM37 14L37 16L38 16L38 14ZM40 14L40 15L41 15L41 14ZM5 17L5 18L7 18L7 17ZM34 22L34 23L35 23L35 22ZM4 23L4 24L5 24L5 23ZM6 23L6 24L7 24L7 23ZM11 23L11 26L12 26L12 27L13 27L13 28L14 28L14 27L13 27L13 25L12 25L12 23ZM19 23L19 24L20 24L20 23ZM29 23L29 24L31 24L31 25L32 25L32 24L31 24L31 23ZM29 25L29 26L30 26L30 27L32 27L32 26L30 26L30 25ZM40 26L40 28L41 28L41 26ZM3 27L3 28L5 28L5 27ZM26 27L26 28L27 28L27 27ZM9 28L9 31L10 31L10 28ZM18 28L18 29L17 29L17 30L18 30L18 29L19 29L19 31L18 31L18 33L19 33L19 32L20 32L20 31L21 31L21 30L20 30L20 29L21 29L21 28L20 28L20 29L19 29L19 28ZM35 28L35 29L36 29L36 28ZM0 30L0 31L1 31L1 30ZM15 30L15 31L16 31L16 34L17 34L17 36L16 36L16 37L18 37L18 36L20 36L20 35L18 35L18 34L17 34L17 31L16 31L16 30ZM38 30L38 32L37 32L37 31L36 31L36 32L37 32L37 35L38 35L38 34L39 34L39 33L38 33L38 32L39 32L39 31L40 31L40 30ZM5 31L5 32L7 32L7 31ZM33 31L33 32L34 32L34 31ZM0 32L0 33L1 33L1 32ZM26 32L26 33L27 33L27 35L28 35L28 32ZM29 32L29 34L30 34L30 32ZM10 33L10 35L12 35L12 34L11 34L11 33ZM21 33L21 34L23 34L23 33ZM33 33L33 36L36 36L36 33ZM34 34L34 35L35 35L35 34ZM9 36L9 37L8 37L8 38L9 38L9 37L10 37L10 38L11 38L11 37L10 37L10 36ZM38 36L38 37L39 37L39 36ZM36 37L36 38L37 38L37 40L38 40L38 38L37 38L37 37ZM23 38L23 39L24 39L24 38ZM39 38L39 39L40 39L40 38ZM31 39L31 40L32 40L32 39ZM19 40L19 41L20 41L20 40ZM21 40L21 41L22 41L22 40ZM0 0L0 7L7 7L7 0ZM1 1L1 6L6 6L6 1ZM2 2L2 5L5 5L5 2ZM34 0L34 7L41 7L41 0ZM35 1L35 6L40 6L40 1ZM36 2L36 5L39 5L39 2ZM0 34L0 41L7 41L7 34ZM1 35L1 40L6 40L6 35ZM2 36L2 39L5 39L5 36Z" fill="#000000"/></g></g></svg>
