<?xml version="1.0" encoding="UTF-8"?>
<svg xmlns="http://www.w3.org/2000/svg" version="1.1" width="200" height="200" viewBox="0 0 200 200"><rect x="0" y="0" width="200" height="200" fill="#ffffff"/><g transform="scale(4.878)"><g transform="translate(0,0)"><path fill-rule="evenodd" d="M8 0L8 3L9 3L9 2L10 2L10 1L12 1L12 2L11 2L11 6L10 6L10 8L11 8L11 6L12 6L12 7L13 7L13 6L14 6L14 7L15 7L15 5L14 5L14 2L13 2L13 1L15 1L15 0ZM20 0L20 2L22 2L22 3L21 3L21 4L20 4L20 3L19 3L19 2L17 2L17 1L16 1L16 2L15 2L15 3L16 3L16 4L17 4L17 6L16 6L16 7L17 7L17 8L15 8L15 9L14 9L14 8L12 8L12 9L10 9L10 10L9 10L9 5L10 5L10 4L9 4L9 5L8 5L8 11L10 11L10 12L12 12L12 11L14 11L14 12L16 12L16 13L15 13L15 14L14 14L14 16L15 16L15 14L16 14L16 13L17 13L17 12L16 12L16 11L18 11L18 12L19 12L19 13L18 13L18 15L17 15L17 16L16 16L16 17L18 17L18 18L17 18L17 19L16 19L16 18L15 18L15 17L14 17L14 18L10 18L10 17L11 17L11 16L13 16L13 15L10 15L10 17L9 17L9 18L8 18L8 19L9 19L9 20L10 20L10 22L12 22L12 23L14 23L14 24L12 24L12 25L9 25L9 26L8 26L8 27L9 27L9 28L8 28L8 29L9 29L9 32L8 32L8 30L6 30L6 29L7 29L7 28L4 28L4 29L5 29L5 30L4 30L4 31L3 31L3 33L4 33L4 31L5 31L5 30L6 30L6 31L7 31L7 32L5 32L5 33L7 33L7 32L8 32L8 34L10 34L10 33L13 33L13 34L11 34L11 37L10 37L10 36L8 36L8 39L9 39L9 41L10 41L10 40L11 40L11 41L12 41L12 40L11 40L11 38L12 38L12 39L14 39L14 36L16 36L16 37L15 37L15 38L16 38L16 39L17 39L17 38L16 38L16 37L18 37L18 40L21 40L21 41L22 41L22 40L24 40L24 41L27 41L27 40L28 40L28 41L32 41L32 40L33 40L33 41L34 41L34 40L33 40L33 39L32 39L32 40L31 40L31 39L30 39L30 38L27 38L27 40L24 40L24 39L26 39L26 37L25 37L25 38L24 38L24 39L21 39L21 38L23 38L23 37L21 37L21 36L23 36L23 35L24 35L24 36L26 36L26 35L24 35L24 32L25 32L25 31L24 31L24 32L23 32L23 30L21 30L21 29L20 29L20 30L21 30L21 33L20 33L20 35L21 35L21 36L20 36L20 37L19 37L19 36L17 36L17 35L16 35L16 34L17 34L17 33L18 33L18 32L17 32L17 31L16 31L16 28L17 28L17 27L19 27L19 26L20 26L20 25L21 25L21 26L23 26L23 25L24 25L24 26L25 26L25 25L26 25L26 24L25 24L25 23L22 23L22 21L23 21L23 22L24 22L24 20L22 20L22 16L23 16L23 17L24 17L24 18L25 18L25 20L27 20L27 21L26 21L26 22L27 22L27 23L28 23L28 24L27 24L27 25L28 25L28 26L26 26L26 28L28 28L28 26L32 26L32 27L33 27L33 28L32 28L32 29L33 29L33 30L32 30L32 31L33 31L33 30L34 30L34 31L35 31L35 32L32 32L32 34L31 34L31 33L30 33L30 32L31 32L31 30L30 30L30 29L31 29L31 28L29 28L29 29L26 29L26 31L27 31L27 30L30 30L30 32L29 32L29 31L28 31L28 32L29 32L29 33L28 33L28 34L27 34L27 32L26 32L26 33L25 33L25 34L27 34L27 35L28 35L28 36L27 36L27 37L29 37L29 35L28 35L28 34L29 34L29 33L30 33L30 35L31 35L31 36L30 36L30 37L31 37L31 36L32 36L32 38L34 38L34 39L35 39L35 40L36 40L36 39L37 39L37 38L38 38L38 39L39 39L39 40L40 40L40 38L41 38L41 37L39 37L39 36L37 36L37 35L38 35L38 33L39 33L39 35L40 35L40 34L41 34L41 33L40 33L40 32L41 32L41 31L40 31L40 30L41 30L41 29L40 29L40 28L39 28L39 32L37 32L37 31L38 31L38 30L37 30L37 29L36 29L36 28L38 28L38 26L39 26L39 27L40 27L40 26L41 26L41 23L40 23L40 26L39 26L39 24L37 24L37 25L36 25L36 23L35 23L35 25L34 25L34 24L33 24L33 23L30 23L30 22L33 22L33 21L34 21L34 22L36 22L36 21L37 21L37 23L38 23L38 21L39 21L39 20L36 20L36 19L35 19L35 17L36 17L36 18L37 18L37 17L36 17L36 16L38 16L38 17L39 17L39 18L41 18L41 16L40 16L40 17L39 17L39 16L38 16L38 15L40 15L40 14L41 14L41 13L40 13L40 12L41 12L41 11L40 11L40 10L41 10L41 8L38 8L38 9L40 9L40 10L37 10L37 9L36 9L36 8L33 8L33 4L31 4L31 3L30 3L30 4L31 4L31 5L32 5L32 9L30 9L30 8L31 8L31 6L30 6L30 5L27 5L27 6L26 6L26 7L25 7L25 4L22 4L22 3L23 3L23 2L22 2L22 1L24 1L24 3L26 3L26 4L27 4L27 3L28 3L28 4L29 4L29 1L27 1L27 0L25 0L25 1L24 1L24 0ZM31 0L31 1L30 1L30 2L31 2L31 1L32 1L32 3L33 3L33 1L32 1L32 0ZM12 2L12 4L13 4L13 2ZM26 2L26 3L27 3L27 2ZM17 3L17 4L18 4L18 3ZM21 4L21 5L22 5L22 6L21 6L21 7L20 7L20 5L19 5L19 7L18 7L18 6L17 6L17 7L18 7L18 9L17 9L17 10L18 10L18 11L19 11L19 12L20 12L20 14L19 14L19 15L18 15L18 16L22 16L22 15L24 15L24 13L21 13L21 12L22 12L22 10L21 10L21 9L22 9L22 8L23 8L23 7L24 7L24 8L25 8L25 7L24 7L24 5L22 5L22 4ZM22 6L22 7L23 7L23 6ZM27 6L27 7L26 7L26 8L27 8L27 7L28 7L28 8L30 8L30 6L29 6L29 7L28 7L28 6ZM2 8L2 9L1 9L1 10L0 10L0 11L1 11L1 10L2 10L2 11L3 11L3 12L2 12L2 14L1 14L1 16L0 16L0 17L1 17L1 18L4 18L4 19L7 19L7 18L6 18L6 17L8 17L8 16L9 16L9 12L6 12L6 11L7 11L7 10L6 10L6 11L5 11L5 8ZM6 8L6 9L7 9L7 8ZM3 9L3 11L4 11L4 9ZM12 9L12 10L11 10L11 11L12 11L12 10L13 10L13 9ZM15 9L15 11L16 11L16 9ZM19 9L19 10L20 10L20 11L21 11L21 10L20 10L20 9ZM24 9L24 10L25 10L25 11L26 11L26 9ZM27 9L27 10L28 10L28 11L27 11L27 12L26 12L26 13L25 13L25 14L27 14L27 12L31 12L31 14L30 14L30 13L28 13L28 14L29 14L29 15L28 15L28 17L25 17L25 16L27 16L27 15L25 15L25 16L24 16L24 17L25 17L25 18L29 18L29 16L31 16L31 14L32 14L32 15L33 15L33 16L34 16L34 17L35 17L35 15L36 15L36 13L38 13L38 14L37 14L37 15L38 15L38 14L40 14L40 13L39 13L39 11L38 11L38 12L37 12L37 11L35 11L35 10L36 10L36 9L35 9L35 10L34 10L34 9L32 9L32 10L31 10L31 11L29 11L29 10L30 10L30 9ZM33 10L33 11L31 11L31 12L33 12L33 13L32 13L32 14L33 14L33 15L34 15L34 14L33 14L33 13L34 13L34 12L33 12L33 11L34 11L34 10ZM23 11L23 12L24 12L24 11ZM0 12L0 13L1 13L1 12ZM4 12L4 13L3 13L3 14L2 14L2 16L1 16L1 17L3 17L3 15L5 15L5 16L4 16L4 18L5 18L5 17L6 17L6 16L8 16L8 14L7 14L7 13L5 13L5 12ZM4 13L4 14L5 14L5 13ZM10 13L10 14L12 14L12 13ZM6 14L6 15L7 15L7 14ZM20 14L20 15L21 15L21 14ZM19 17L19 18L18 18L18 19L17 19L17 20L14 20L14 21L13 21L13 19L12 19L12 22L14 22L14 21L17 21L17 22L15 22L15 24L16 24L16 26L17 26L17 25L18 25L18 24L16 24L16 23L17 23L17 22L19 22L19 21L20 21L20 23L21 23L21 21L22 21L22 20L21 20L21 19L20 19L20 17ZM30 17L30 19L31 19L31 20L29 20L29 19L27 19L27 20L28 20L28 21L27 21L27 22L28 22L28 23L29 23L29 24L28 24L28 25L29 25L29 24L30 24L30 25L32 25L32 26L33 26L33 27L34 27L34 25L32 25L32 24L30 24L30 23L29 23L29 22L30 22L30 21L33 21L33 20L34 20L34 21L36 21L36 20L35 20L35 19L34 19L34 18L33 18L33 17L32 17L32 18L31 18L31 17ZM9 18L9 19L10 19L10 18ZM32 18L32 19L33 19L33 18ZM0 19L0 20L1 20L1 21L2 21L2 20L3 20L3 19ZM6 20L6 21L3 21L3 22L1 22L1 24L0 24L0 26L1 26L1 28L3 28L3 26L1 26L1 24L3 24L3 23L4 23L4 25L5 25L5 23L7 23L7 24L6 24L6 25L8 25L8 23L9 23L9 24L10 24L10 23L9 23L9 21L8 21L8 20ZM17 20L17 21L18 21L18 20ZM20 20L20 21L21 21L21 20ZM40 20L40 21L41 21L41 20ZM6 21L6 22L7 22L7 23L8 23L8 22L7 22L7 21ZM28 21L28 22L29 22L29 21ZM19 24L19 25L20 25L20 24ZM12 25L12 26L13 26L13 27L11 27L11 26L10 26L10 27L11 27L11 28L10 28L10 29L11 29L11 28L13 28L13 29L14 29L14 30L10 30L10 31L12 31L12 32L13 32L13 33L14 33L14 34L16 34L16 33L17 33L17 32L15 32L15 28L13 28L13 27L14 27L14 25ZM35 25L35 26L36 26L36 27L37 27L37 26L36 26L36 25ZM4 26L4 27L5 27L5 26ZM6 26L6 27L7 27L7 26ZM22 27L22 28L23 28L23 29L24 29L24 30L25 30L25 28L24 28L24 27ZM18 28L18 30L19 30L19 28ZM33 28L33 29L34 29L34 30L35 30L35 31L36 31L36 29L34 29L34 28ZM0 29L0 33L1 33L1 30L2 30L2 29ZM13 31L13 32L14 32L14 33L15 33L15 32L14 32L14 31ZM19 31L19 32L20 32L20 31ZM9 32L9 33L10 33L10 32ZM22 32L22 34L23 34L23 32ZM33 33L33 36L36 36L36 33ZM34 34L34 35L35 35L35 34ZM34 37L34 38L36 38L36 37ZM38 37L38 38L39 38L39 37ZM9 38L9 39L10 39L10 38ZM28 39L28 40L30 40L30 39ZM13 40L13 41L17 41L17 40ZM0 0L0 7L7 7L7 0ZM1 1L1 6L6 6L6 1ZM2 2L2 5L5 5L5 2ZM34 0L34 7L41 7L41 0ZM35 1L35 6L40 6L40 1ZM36 2L36 5L39 5L39 2ZM0 34L0 41L7 41L7 34ZM1 35L1 40L6 40L6 35ZM2 36L2 39L5 39L5 36Z" fill="#000000"/></g></g></svg>
