<?xml version="1.0" encoding="UTF-8"?>
<svg xmlns="http://www.w3.org/2000/svg" version="1.1" width="200" height="200" viewBox="0 0 200 200"><rect x="0" y="0" width="200" height="200" fill="#ffffff"/><g transform="scale(6.897)"><g transform="translate(0,0)"><path fill-rule="evenodd" d="M9 0L9 1L8 1L8 7L9 7L9 8L5 8L5 9L8 9L8 10L6 10L6 11L7 11L7 12L5 12L5 10L4 10L4 9L3 9L3 8L2 8L2 10L1 10L1 12L0 12L0 17L1 17L1 18L0 18L0 19L2 19L2 20L0 20L0 21L5 21L5 18L3 18L3 19L2 19L2 17L1 17L1 14L2 14L2 13L1 13L1 12L3 12L3 13L4 13L4 12L5 12L5 13L8 13L8 14L9 14L9 16L10 16L10 17L11 17L11 16L13 16L13 18L14 18L14 20L15 20L15 21L16 21L16 19L17 19L17 20L18 20L18 21L20 21L20 22L18 22L18 23L17 23L17 22L16 22L16 23L17 23L17 24L18 24L18 25L19 25L19 26L18 26L18 27L17 27L17 25L16 25L16 26L15 26L15 23L13 23L13 22L14 22L14 21L11 21L11 20L10 20L10 21L9 21L9 20L8 20L8 19L9 19L9 18L8 18L8 17L7 17L7 16L8 16L8 15L7 15L7 14L6 14L6 15L7 15L7 16L5 16L5 17L7 17L7 18L6 18L6 19L7 19L7 20L6 20L6 21L7 21L7 20L8 20L8 24L10 24L10 25L11 25L11 26L12 26L12 27L13 27L13 28L14 28L14 27L15 27L15 29L17 29L17 28L18 28L18 29L19 29L19 28L18 28L18 27L19 27L19 26L20 26L20 27L21 27L21 29L22 29L22 28L24 28L24 29L25 29L25 28L24 28L24 26L23 26L23 27L22 27L22 26L21 26L21 25L25 25L25 26L26 26L26 25L28 25L28 24L26 24L26 25L25 25L25 23L26 23L26 21L27 21L27 18L28 18L28 19L29 19L29 18L28 18L28 17L29 17L29 16L27 16L27 17L25 17L25 16L22 16L22 15L25 15L25 14L26 14L26 13L29 13L29 12L27 12L27 11L29 11L29 9L28 9L28 8L23 8L23 10L22 10L22 11L21 11L21 9L22 9L22 8L21 8L21 0L19 0L19 1L20 1L20 2L19 2L19 3L20 3L20 5L19 5L19 4L18 4L18 5L16 5L16 0L12 0L12 1L11 1L11 0ZM17 0L17 1L18 1L18 0ZM9 1L9 2L10 2L10 3L11 3L11 5L12 5L12 6L11 6L11 7L12 7L12 8L11 8L11 9L9 9L9 11L10 11L10 12L9 12L9 14L10 14L10 16L11 16L11 14L12 14L12 15L13 15L13 16L14 16L14 15L17 15L17 16L15 16L15 18L17 18L17 19L18 19L18 18L20 18L20 19L19 19L19 20L22 20L22 19L21 19L21 15L19 15L19 16L18 16L18 14L17 14L17 13L18 13L18 11L20 11L20 8L19 8L19 7L20 7L20 6L19 6L19 7L18 7L18 6L17 6L17 7L16 7L16 6L15 6L15 7L14 7L14 6L13 6L13 5L15 5L15 4L14 4L14 3L15 3L15 1L13 1L13 2L11 2L11 1ZM17 2L17 3L18 3L18 2ZM12 3L12 4L13 4L13 3ZM9 4L9 7L10 7L10 4ZM12 6L12 7L13 7L13 6ZM17 7L17 11L18 11L18 7ZM13 8L13 9L11 9L11 11L12 11L12 13L13 13L13 14L15 14L15 13L16 13L16 10L15 10L15 8ZM13 9L13 12L15 12L15 10L14 10L14 9ZM25 9L25 10L24 10L24 11L27 11L27 10L28 10L28 9ZM2 10L2 11L3 11L3 12L4 12L4 11L3 11L3 10ZM19 12L19 14L22 14L22 12L21 12L21 13L20 13L20 12ZM23 12L23 14L25 14L25 13L24 13L24 12ZM10 13L10 14L11 14L11 13ZM4 14L4 15L5 15L5 14ZM27 14L27 15L29 15L29 14ZM2 15L2 16L3 16L3 17L4 17L4 16L3 16L3 15ZM17 16L17 17L18 17L18 16ZM19 16L19 17L20 17L20 16ZM22 17L22 18L25 18L25 19L23 19L23 20L26 20L26 18L25 18L25 17ZM10 18L10 19L11 19L11 18ZM3 19L3 20L4 20L4 19ZM21 21L21 24L24 24L24 21ZM9 22L9 23L12 23L12 22ZM22 22L22 23L23 23L23 22ZM28 22L28 23L29 23L29 22ZM18 23L18 24L20 24L20 23ZM11 24L11 25L12 25L12 24ZM13 24L13 27L14 27L14 24ZM8 26L8 27L9 27L9 26ZM27 26L27 27L28 27L28 28L26 28L26 29L29 29L29 26ZM10 27L10 28L9 28L9 29L10 29L10 28L11 28L11 29L12 29L12 28L11 28L11 27ZM16 27L16 28L17 28L17 27ZM0 0L0 7L7 7L7 0ZM1 1L1 6L6 6L6 1ZM2 2L2 5L5 5L5 2ZM22 0L22 7L29 7L29 0ZM23 1L23 6L28 6L28 1ZM24 2L24 5L27 5L27 2ZM0 22L0 29L7 29L7 22ZM1 23L1 28L6 28L6 23ZM2 24L2 27L5 27L5 24Z" fill="#000000"/></g></g></svg>
