<?xml version="1.0" encoding="UTF-8"?>
<svg xmlns="http://www.w3.org/2000/svg" version="1.1" width="200" height="200" viewBox="0 0 200 200"><rect x="0" y="0" width="200" height="200" fill="#ffffff"/><g transform="scale(4.878)"><g transform="translate(0,0)"><path fill-rule="evenodd" d="M8 0L8 3L9 3L9 2L11 2L11 3L10 3L10 4L9 4L9 5L8 5L8 9L7 9L7 8L6 8L6 9L5 9L5 8L2 8L2 9L1 9L1 11L0 11L0 14L1 14L1 15L0 15L0 16L1 16L1 17L0 17L0 18L1 18L1 22L0 22L0 24L1 24L1 26L0 26L0 33L1 33L1 30L2 30L2 31L3 31L3 33L4 33L4 32L5 32L5 33L7 33L7 32L8 32L8 34L9 34L9 35L10 35L10 37L12 37L12 40L13 40L13 41L14 41L14 39L13 39L13 38L14 38L14 37L15 37L15 41L16 41L16 39L17 39L17 40L18 40L18 41L23 41L23 39L24 39L24 40L25 40L25 41L26 41L26 40L25 40L25 38L24 38L24 37L25 37L25 36L23 36L23 35L24 35L24 33L25 33L25 35L26 35L26 36L27 36L27 37L29 37L29 36L31 36L31 35L32 35L32 38L31 38L31 37L30 37L30 38L29 38L29 39L30 39L30 40L28 40L28 38L26 38L26 39L27 39L27 40L28 40L28 41L32 41L32 40L33 40L33 41L34 41L34 40L33 40L33 39L35 39L35 40L36 40L36 39L37 39L37 40L40 40L40 38L41 38L41 37L39 37L39 36L38 36L38 33L39 33L39 35L40 35L40 34L41 34L41 33L39 33L39 32L41 32L41 31L40 31L40 30L41 30L41 29L39 29L39 30L38 30L38 29L35 29L35 30L34 30L34 31L35 31L35 32L33 32L33 31L32 31L32 30L33 30L33 29L34 29L34 28L33 28L33 29L32 29L32 30L30 30L30 29L31 29L31 28L32 28L32 27L31 27L31 28L27 28L27 29L25 29L25 28L26 28L26 27L25 27L25 28L23 28L23 29L22 29L22 27L23 27L23 25L24 25L24 23L25 23L25 22L26 22L26 21L28 21L28 22L27 22L27 23L26 23L26 24L25 24L25 26L26 26L26 25L27 25L27 24L28 24L28 25L29 25L29 26L30 26L30 25L31 25L31 26L33 26L33 27L34 27L34 26L35 26L35 25L36 25L36 27L35 27L35 28L38 28L38 26L39 26L39 27L40 27L40 28L41 28L41 27L40 27L40 26L41 26L41 23L39 23L39 22L38 22L38 21L39 21L39 20L38 20L38 19L37 19L37 20L36 20L36 19L35 19L35 17L36 17L36 18L38 18L38 17L39 17L39 16L37 16L37 13L36 13L36 15L35 15L35 17L34 17L34 16L33 16L33 17L31 17L31 11L30 11L30 12L29 12L29 13L28 13L28 12L24 12L24 10L23 10L23 8L24 8L24 9L25 9L25 11L28 11L28 10L26 10L26 8L27 8L27 9L31 9L31 10L32 10L32 9L34 9L34 11L32 11L32 13L33 13L33 14L32 14L32 15L34 15L34 13L35 13L35 11L37 11L37 12L38 12L38 11L39 11L39 13L40 13L40 14L39 14L39 15L40 15L40 14L41 14L41 12L40 12L40 10L41 10L41 8L38 8L38 9L40 9L40 10L37 10L37 9L36 9L36 8L33 8L33 5L32 5L32 4L33 4L33 3L32 3L32 2L30 2L30 1L33 1L33 0L29 0L29 1L27 1L27 0L26 0L26 1L27 1L27 2L26 2L26 3L28 3L28 4L29 4L29 3L32 3L32 4L30 4L30 5L29 5L29 6L28 6L28 5L27 5L27 4L26 4L26 8L24 8L24 7L25 7L25 6L24 6L24 4L23 4L23 2L22 2L22 5L21 5L21 6L20 6L20 7L21 7L21 6L22 6L22 7L23 7L23 8L22 8L22 9L21 9L21 10L20 10L20 9L19 9L19 6L18 6L18 8L17 8L17 6L16 6L16 8L13 8L13 9L17 9L17 10L15 10L15 11L13 11L13 10L12 10L12 9L11 9L11 10L12 10L12 11L11 11L11 12L12 12L12 11L13 11L13 12L14 12L14 13L13 13L13 14L12 14L12 13L10 13L10 12L6 12L6 11L7 11L7 10L8 10L8 11L9 11L9 6L10 6L10 8L11 8L11 6L12 6L12 7L13 7L13 4L14 4L14 5L16 5L16 4L18 4L18 5L20 5L20 4L21 4L21 3L20 3L20 2L21 2L21 1L20 1L20 0L15 0L15 1L14 1L14 0L12 0L12 1L9 1L9 0ZM23 0L23 1L24 1L24 2L25 2L25 0ZM12 1L12 2L13 2L13 1ZM16 1L16 2L15 2L15 3L14 3L14 4L16 4L16 3L18 3L18 2L17 2L17 1ZM11 3L11 4L10 4L10 6L11 6L11 5L12 5L12 3ZM30 5L30 6L29 6L29 7L28 7L28 6L27 6L27 8L31 8L31 9L32 9L32 5ZM14 6L14 7L15 7L15 6ZM23 6L23 7L24 7L24 6ZM30 6L30 7L31 7L31 6ZM3 9L3 10L2 10L2 11L1 11L1 14L2 14L2 11L3 11L3 10L4 10L4 9ZM6 9L6 10L5 10L5 11L4 11L4 13L6 13L6 14L3 14L3 16L2 16L2 19L4 19L4 20L5 20L5 19L4 19L4 18L7 18L7 17L9 17L9 18L8 18L8 19L9 19L9 18L10 18L10 20L9 20L9 21L8 21L8 20L7 20L7 19L6 19L6 20L7 20L7 21L6 21L6 22L5 22L5 21L3 21L3 22L2 22L2 23L3 23L3 24L4 24L4 23L3 23L3 22L5 22L5 26L4 26L4 25L3 25L3 26L4 26L4 27L2 27L2 30L3 30L3 28L4 28L4 27L5 27L5 30L4 30L4 31L6 31L6 32L7 32L7 31L6 31L6 30L8 30L8 32L9 32L9 33L11 33L11 35L12 35L12 37L14 37L14 36L16 36L16 37L17 37L17 39L18 39L18 40L19 40L19 38L18 38L18 36L17 36L17 35L13 35L13 33L15 33L15 34L16 34L16 33L17 33L17 32L16 32L16 31L17 31L17 30L18 30L18 33L20 33L20 35L19 35L19 36L20 36L20 38L22 38L22 39L23 39L23 38L22 38L22 36L21 36L21 33L22 33L22 32L24 32L24 30L23 30L23 31L21 31L21 30L20 30L20 29L19 29L19 28L21 28L21 27L19 27L19 26L22 26L22 25L20 25L20 24L22 24L22 23L23 23L23 22L21 22L21 21L20 21L20 18L21 18L21 20L23 20L23 19L24 19L24 21L26 21L26 20L28 20L28 21L29 21L29 22L28 22L28 24L30 24L30 23L32 23L32 24L31 24L31 25L33 25L33 26L34 26L34 25L35 25L35 24L36 24L36 25L39 25L39 26L40 26L40 24L39 24L39 23L38 23L38 22L37 22L37 24L36 24L36 23L35 23L35 22L36 22L36 21L35 21L35 19L34 19L34 18L31 18L31 17L29 17L29 16L30 16L30 15L29 15L29 14L30 14L30 13L29 13L29 14L27 14L27 13L26 13L26 14L27 14L27 17L26 17L26 16L21 16L21 15L20 15L20 13L21 13L21 14L23 14L23 13L21 13L21 12L23 12L23 10L21 10L21 12L20 12L20 10L19 10L19 12L18 12L18 13L17 13L17 14L19 14L19 15L18 15L18 16L17 16L17 15L16 15L16 14L13 14L13 15L12 15L12 16L11 16L11 15L10 15L10 13L9 13L9 14L8 14L8 16L7 16L7 15L6 15L6 14L7 14L7 13L6 13L6 12L5 12L5 11L6 11L6 10L7 10L7 9ZM35 9L35 10L36 10L36 9ZM16 11L16 12L15 12L15 13L16 13L16 12L17 12L17 11ZM33 12L33 13L34 13L34 12ZM4 15L4 16L3 16L3 17L7 17L7 16L5 16L5 15ZM9 15L9 16L10 16L10 18L11 18L11 19L12 19L12 18L11 18L11 16L10 16L10 15ZM13 15L13 17L15 17L15 18L14 18L14 19L15 19L15 20L16 20L16 22L14 22L14 21L13 21L13 20L10 20L10 21L9 21L9 23L11 23L11 24L8 24L8 26L5 26L5 27L8 27L8 28L6 28L6 29L8 29L8 28L9 28L9 31L11 31L11 32L12 32L12 33L13 33L13 32L14 32L14 31L16 31L16 29L17 29L17 28L16 28L16 27L17 27L17 26L18 26L18 23L19 23L19 22L18 22L18 23L17 23L17 21L19 21L19 19L18 19L18 18L17 18L17 19L18 19L18 20L16 20L16 17L17 17L17 16L15 16L15 15ZM28 15L28 16L29 16L29 15ZM19 16L19 18L20 18L20 17L21 17L21 18L22 18L22 19L23 19L23 18L24 18L24 19L28 19L28 18L26 18L26 17L21 17L21 16ZM36 16L36 17L37 17L37 16ZM40 16L40 18L39 18L39 19L40 19L40 18L41 18L41 16ZM30 18L30 19L31 19L31 20L30 20L30 21L31 21L31 22L33 22L33 21L34 21L34 22L35 22L35 21L34 21L34 20L33 20L33 19L31 19L31 18ZM31 20L31 21L33 21L33 20ZM37 20L37 21L38 21L38 20ZM40 20L40 21L41 21L41 20ZM7 21L7 22L6 22L6 23L7 23L7 22L8 22L8 21ZM10 21L10 22L11 22L11 23L12 23L12 24L13 24L13 25L12 25L12 27L11 27L11 28L10 28L10 26L11 26L11 25L9 25L9 26L8 26L8 27L9 27L9 28L10 28L10 29L11 29L11 31L12 31L12 28L13 28L13 29L14 29L14 30L13 30L13 31L14 31L14 30L15 30L15 29L14 29L14 28L15 28L15 27L16 27L16 25L17 25L17 24L14 24L14 23L12 23L12 22L11 22L11 21ZM20 22L20 23L21 23L21 22ZM29 22L29 23L30 23L30 22ZM33 23L33 25L34 25L34 23ZM6 24L6 25L7 25L7 24ZM13 26L13 28L14 28L14 26ZM27 26L27 27L28 27L28 26ZM28 29L28 30L29 30L29 31L28 31L28 32L31 32L31 31L30 31L30 30L29 30L29 29ZM35 30L35 31L38 31L38 32L37 32L37 33L38 33L38 32L39 32L39 31L38 31L38 30ZM19 31L19 32L20 32L20 33L21 33L21 32L20 32L20 31ZM26 31L26 34L29 34L29 33L27 33L27 31ZM30 33L30 35L31 35L31 33ZM33 33L33 36L36 36L36 33ZM34 34L34 35L35 35L35 34ZM27 35L27 36L29 36L29 35ZM8 36L8 39L9 39L9 41L11 41L11 40L10 40L10 39L11 39L11 38L10 38L10 39L9 39L9 36ZM37 36L37 37L38 37L38 36ZM33 37L33 38L32 38L32 39L31 39L31 38L30 38L30 39L31 39L31 40L32 40L32 39L33 39L33 38L36 38L36 37ZM37 38L37 39L38 39L38 38ZM0 0L0 7L7 7L7 0ZM1 1L1 6L6 6L6 1ZM2 2L2 5L5 5L5 2ZM34 0L34 7L41 7L41 0ZM35 1L35 6L40 6L40 1ZM36 2L36 5L39 5L39 2ZM0 34L0 41L7 41L7 34ZM1 35L1 40L6 40L6 35ZM2 36L2 39L5 39L5 36Z" fill="#000000"/></g></g></svg>
