<?xml version="1.0" encoding="UTF-8"?>
<svg xmlns="http://www.w3.org/2000/svg" version="1.1" width="200" height="200" viewBox="0 0 200 200"><rect x="0" y="0" width="200" height="200" fill="#ffffff"/><g transform="scale(4.878)"><g transform="translate(0,0)"><path fill-rule="evenodd" d="M8 0L8 3L9 3L9 5L8 5L8 9L7 9L7 8L6 8L6 9L7 9L7 10L6 10L6 11L7 11L7 10L10 10L10 9L11 9L11 10L12 10L12 11L13 11L13 12L11 12L11 13L9 13L9 14L6 14L6 13L7 13L7 12L5 12L5 13L4 13L4 14L5 14L5 15L3 15L3 14L2 14L2 11L0 11L0 12L1 12L1 15L3 15L3 16L2 16L2 17L1 17L1 19L0 19L0 20L1 20L1 19L2 19L2 23L0 23L0 24L3 24L3 26L2 26L2 25L1 25L1 29L0 29L0 33L1 33L1 30L2 30L2 29L4 29L4 27L5 27L5 30L4 30L4 31L5 31L5 32L6 32L6 33L7 33L7 32L6 32L6 31L7 31L7 30L8 30L8 27L9 27L9 26L10 26L10 27L11 27L11 28L9 28L9 29L11 29L11 28L12 28L12 29L13 29L13 30L12 30L12 31L10 31L10 30L9 30L9 31L8 31L8 32L9 32L9 33L8 33L8 34L9 34L9 33L10 33L10 35L11 35L11 37L10 37L10 36L8 36L8 39L9 39L9 37L10 37L10 41L11 41L11 40L12 40L12 41L13 41L13 40L15 40L15 41L17 41L17 39L19 39L19 38L20 38L20 37L21 37L21 41L24 41L24 40L22 40L22 37L25 37L25 39L27 39L27 40L26 40L26 41L31 41L31 40L33 40L33 41L34 41L34 40L33 40L33 39L32 39L32 38L34 38L34 39L35 39L35 40L36 40L36 39L37 39L37 40L40 40L40 38L41 38L41 37L39 37L39 36L37 36L37 35L40 35L40 34L41 34L41 33L40 33L40 32L41 32L41 31L40 31L40 30L41 30L41 29L40 29L40 26L41 26L41 23L39 23L39 24L40 24L40 26L39 26L39 25L36 25L36 24L37 24L37 23L38 23L38 21L39 21L39 20L38 20L38 19L40 19L40 18L41 18L41 16L40 16L40 18L38 18L38 19L37 19L37 20L36 20L36 19L35 19L35 17L36 17L36 18L37 18L37 17L39 17L39 16L37 16L37 15L39 15L39 14L41 14L41 12L39 12L39 14L37 14L37 13L36 13L36 15L35 15L35 17L34 17L34 16L32 16L32 17L30 17L30 16L31 16L31 15L30 15L30 16L29 16L29 15L28 15L28 16L29 16L29 17L30 17L30 19L31 19L31 20L30 20L30 21L31 21L31 22L30 22L30 23L31 23L31 24L29 24L29 25L28 25L28 24L27 24L27 23L29 23L29 22L27 22L27 23L26 23L26 21L29 21L29 20L28 20L28 19L29 19L29 18L27 18L27 15L26 15L26 14L29 14L29 13L30 13L30 14L31 14L31 10L32 10L32 11L33 11L33 12L32 12L32 13L33 13L33 14L32 14L32 15L34 15L34 13L35 13L35 9L36 9L36 12L38 12L38 11L40 11L40 10L41 10L41 8L38 8L38 9L40 9L40 10L37 10L37 9L36 9L36 8L33 8L33 9L32 9L32 8L29 8L29 5L27 5L27 4L25 4L25 5L27 5L27 6L26 6L26 7L25 7L25 6L24 6L24 8L25 8L25 11L23 11L23 13L21 13L21 12L20 12L20 11L21 11L21 9L22 9L22 10L24 10L24 9L23 9L23 8L22 8L22 7L23 7L23 6L22 6L22 5L21 5L21 6L20 6L20 5L19 5L19 6L18 6L18 4L19 4L19 3L16 3L16 2L18 2L18 0L17 0L17 1L15 1L15 3L14 3L14 4L13 4L13 3L12 3L12 1L11 1L11 0L10 0L10 2L9 2L9 0ZM13 0L13 2L14 2L14 0ZM19 0L19 2L20 2L20 3L21 3L21 4L24 4L24 3L25 3L25 2L24 2L24 1L25 1L25 0L21 0L21 1L20 1L20 0ZM26 0L26 1L27 1L27 2L26 2L26 3L28 3L28 4L29 4L29 3L32 3L32 4L30 4L30 5L32 5L32 4L33 4L33 3L32 3L32 2L30 2L30 0L29 0L29 1L27 1L27 0ZM31 0L31 1L32 1L32 0ZM10 2L10 3L11 3L11 4L10 4L10 5L9 5L9 8L11 8L11 7L12 7L12 5L11 5L11 4L12 4L12 3L11 3L11 2ZM21 2L21 3L23 3L23 2ZM15 4L15 5L13 5L13 7L14 7L14 6L15 6L15 7L16 7L16 6L17 6L17 9L18 9L18 10L16 10L16 8L15 8L15 10L14 10L14 8L13 8L13 9L12 9L12 10L13 10L13 11L14 11L14 12L13 12L13 14L12 14L12 17L11 17L11 16L10 16L10 17L9 17L9 16L8 16L8 17L9 17L9 18L7 18L7 17L6 17L6 16L7 16L7 15L6 15L6 16L3 16L3 17L2 17L2 18L3 18L3 19L4 19L4 20L3 20L3 23L4 23L4 25L5 25L5 27L6 27L6 28L7 28L7 27L8 27L8 26L9 26L9 25L8 25L8 26L7 26L7 25L5 25L5 23L4 23L4 22L5 22L5 20L7 20L7 21L6 21L6 22L8 22L8 24L9 24L9 23L10 23L10 22L11 22L11 23L12 23L12 22L13 22L13 23L14 23L14 22L15 22L15 23L16 23L16 22L17 22L17 24L15 24L15 25L16 25L16 26L14 26L14 27L17 27L17 25L18 25L18 26L19 26L19 25L20 25L20 24L21 24L21 25L22 25L22 23L24 23L24 24L23 24L23 25L24 25L24 24L25 24L25 26L26 26L26 28L25 28L25 27L24 27L24 30L23 30L23 29L22 29L22 26L21 26L21 29L20 29L20 28L13 28L13 29L14 29L14 30L13 30L13 31L12 31L12 32L13 32L13 33L16 33L16 32L18 32L18 31L19 31L19 32L20 32L20 30L21 30L21 31L22 31L22 30L23 30L23 32L21 32L21 34L19 34L19 33L18 33L18 34L19 34L19 35L18 35L18 36L19 36L19 35L20 35L20 36L21 36L21 35L22 35L22 34L23 34L23 35L24 35L24 34L25 34L25 33L23 33L23 32L25 32L25 31L27 31L27 29L28 29L28 30L29 30L29 31L28 31L28 33L26 33L26 35L25 35L25 37L26 37L26 38L29 38L29 39L28 39L28 40L30 40L30 38L29 38L29 37L31 37L31 38L32 38L32 36L29 36L29 37L26 37L26 35L27 35L27 36L28 36L28 35L27 35L27 34L28 34L28 33L29 33L29 32L31 32L31 31L30 31L30 29L31 29L31 30L32 30L32 31L33 31L33 32L36 32L36 31L37 31L37 32L40 32L40 31L37 31L37 30L39 30L39 26L38 26L38 28L35 28L35 27L37 27L37 26L36 26L36 25L35 25L35 24L36 24L36 23L35 23L35 22L36 22L36 21L35 21L35 19L34 19L34 18L33 18L33 17L32 17L32 18L31 18L31 19L32 19L32 20L31 20L31 21L32 21L32 22L31 22L31 23L32 23L32 24L31 24L31 25L30 25L30 26L29 26L29 27L28 27L28 28L27 28L27 26L28 26L28 25L27 25L27 26L26 26L26 24L25 24L25 23L24 23L24 22L21 22L21 21L20 21L20 20L19 20L19 19L20 19L20 16L22 16L22 18L21 18L21 20L22 20L22 21L25 21L25 20L26 20L26 19L27 19L27 18L24 18L24 19L22 19L22 18L23 18L23 17L25 17L25 15L24 15L24 14L26 14L26 13L25 13L25 12L24 12L24 13L23 13L23 14L21 14L21 13L20 13L20 12L18 12L18 14L21 14L21 15L18 15L18 16L16 16L16 15L15 15L15 16L14 16L14 17L15 17L15 20L12 20L12 22L11 22L11 21L10 21L10 22L9 22L9 20L11 20L11 19L12 19L12 18L13 18L13 14L14 14L14 13L16 13L16 14L17 14L17 13L16 13L16 12L17 12L17 11L19 11L19 10L20 10L20 9L19 9L19 8L21 8L21 7L22 7L22 6L21 6L21 7L20 7L20 6L19 6L19 8L18 8L18 6L17 6L17 4ZM10 6L10 7L11 7L11 6ZM27 6L27 7L26 7L26 8L27 8L27 7L28 7L28 6ZM30 6L30 7L31 7L31 6ZM32 6L32 7L33 7L33 6ZM2 8L2 10L3 10L3 11L4 11L4 9L5 9L5 8ZM0 9L0 10L1 10L1 9ZM26 9L26 12L28 12L28 13L29 13L29 12L30 12L30 10L31 10L31 9L30 9L30 10L29 10L29 9ZM33 9L33 11L34 11L34 9ZM15 10L15 12L16 12L16 10ZM27 10L27 11L28 11L28 12L29 12L29 11L28 11L28 10ZM33 12L33 13L34 13L34 12ZM10 14L10 15L11 15L11 14ZM22 15L22 16L24 16L24 15ZM18 16L18 17L16 17L16 19L17 19L17 20L15 20L15 22L16 22L16 21L17 21L17 22L18 22L18 24L19 24L19 20L18 20L18 19L19 19L19 16ZM36 16L36 17L37 17L37 16ZM4 17L4 18L5 18L5 17ZM10 17L10 19L11 19L11 17ZM6 18L6 19L7 19L7 20L8 20L8 19L7 19L7 18ZM32 18L32 19L33 19L33 18ZM24 19L24 20L25 20L25 19ZM32 20L32 21L34 21L34 22L32 22L32 23L33 23L33 24L32 24L32 25L31 25L31 26L32 26L32 27L34 27L34 26L35 26L35 25L34 25L34 22L35 22L35 21L34 21L34 20ZM37 20L37 21L38 21L38 20ZM40 20L40 21L41 21L41 20ZM13 21L13 22L14 22L14 21ZM20 22L20 23L21 23L21 22ZM6 23L6 24L7 24L7 23ZM10 24L10 26L12 26L12 25L13 25L13 24L12 24L12 25L11 25L11 24ZM32 25L32 26L34 26L34 25ZM3 26L3 27L2 27L2 28L3 28L3 27L4 27L4 26ZM6 26L6 27L7 27L7 26ZM28 28L28 29L30 29L30 28ZM31 28L31 29L32 29L32 30L33 30L33 29L34 29L34 28L33 28L33 29L32 29L32 28ZM6 29L6 30L7 30L7 29ZM15 29L15 30L16 30L16 29ZM17 29L17 30L20 30L20 29ZM25 29L25 30L24 30L24 31L25 31L25 30L26 30L26 29ZM35 29L35 30L34 30L34 31L35 31L35 30L37 30L37 29ZM2 31L2 33L4 33L4 32L3 32L3 31ZM9 31L9 32L10 32L10 33L11 33L11 34L12 34L12 35L15 35L15 34L12 34L12 33L11 33L11 32L10 32L10 31ZM13 31L13 32L14 32L14 31ZM15 31L15 32L16 32L16 31ZM30 33L30 35L31 35L31 34L32 34L32 33ZM33 33L33 36L36 36L36 33ZM37 33L37 34L39 34L39 33ZM16 34L16 38L19 38L19 37L17 37L17 34ZM34 34L34 35L35 35L35 34ZM13 36L13 37L12 37L12 38L13 38L13 39L12 39L12 40L13 40L13 39L14 39L14 38L13 38L13 37L14 37L14 36ZM34 37L34 38L36 38L36 37ZM37 38L37 39L38 39L38 38ZM19 40L19 41L20 41L20 40ZM0 0L0 7L7 7L7 0ZM1 1L1 6L6 6L6 1ZM2 2L2 5L5 5L5 2ZM34 0L34 7L41 7L41 0ZM35 1L35 6L40 6L40 1ZM36 2L36 5L39 5L39 2ZM0 34L0 41L7 41L7 34ZM1 35L1 40L6 40L6 35ZM2 36L2 39L5 39L5 36Z" fill="#000000"/></g></g></svg>
