<?xml version="1.0" encoding="UTF-8"?>
<svg xmlns="http://www.w3.org/2000/svg" version="1.1" width="200" height="200" viewBox="0 0 200 200"><rect x="0" y="0" width="200" height="200" fill="#ffffff"/><g transform="scale(4.878)"><g transform="translate(0,0)"><path fill-rule="evenodd" d="M8 0L8 3L9 3L9 5L8 5L8 9L9 9L9 10L10 10L10 7L11 7L11 6L12 6L12 7L13 7L13 6L14 6L14 7L15 7L15 9L14 9L14 10L13 10L13 11L14 11L14 12L15 12L15 14L14 14L14 13L12 13L12 12L11 12L11 11L10 11L10 12L9 12L9 11L7 11L7 10L5 10L5 8L2 8L2 9L1 9L1 10L0 10L0 12L1 12L1 13L0 13L0 15L2 15L2 14L1 14L1 13L2 13L2 11L1 11L1 10L2 10L2 9L4 9L4 10L3 10L3 11L4 11L4 12L3 12L3 13L5 13L5 12L6 12L6 13L7 13L7 14L5 14L5 15L7 15L7 14L8 14L8 13L7 13L7 12L9 12L9 13L10 13L10 14L11 14L11 15L9 15L9 16L10 16L10 18L9 18L9 19L8 19L8 20L5 20L5 18L6 18L6 19L7 19L7 18L8 18L8 16L6 16L6 17L3 17L3 16L4 16L4 14L3 14L3 16L2 16L2 17L1 17L1 19L0 19L0 20L1 20L1 21L0 21L0 27L1 27L1 25L2 25L2 23L4 23L4 24L5 24L5 25L4 25L4 26L3 26L3 28L4 28L4 29L5 29L5 30L3 30L3 29L2 29L2 28L1 28L1 29L0 29L0 33L1 33L1 29L2 29L2 31L3 31L3 32L2 32L2 33L4 33L4 32L6 32L6 33L7 33L7 32L6 32L6 31L7 31L7 30L6 30L6 29L9 29L9 31L11 31L11 29L12 29L12 33L11 33L11 32L10 32L10 33L11 33L11 34L9 34L9 33L8 33L8 34L9 34L9 35L11 35L11 36L10 36L10 37L9 37L9 36L8 36L8 39L10 39L10 41L11 41L11 39L12 39L12 35L11 35L11 34L14 34L14 32L13 32L13 30L15 30L15 31L16 31L16 32L15 32L15 33L16 33L16 34L15 34L15 36L14 36L14 35L13 35L13 36L14 36L14 37L15 37L15 38L13 38L13 40L12 40L12 41L14 41L14 40L15 40L15 41L18 41L18 40L19 40L19 39L20 39L20 36L21 36L21 40L20 40L20 41L22 41L22 40L23 40L23 41L24 41L24 40L25 40L25 41L26 41L26 40L27 40L27 41L31 41L31 40L33 40L33 41L34 41L34 40L33 40L33 39L35 39L35 40L36 40L36 39L37 39L37 40L40 40L40 38L41 38L41 37L39 37L39 36L40 36L40 34L41 34L41 32L40 32L40 30L41 30L41 29L39 29L39 30L38 30L38 31L37 31L37 29L36 29L36 28L38 28L38 26L39 26L39 27L40 27L40 26L41 26L41 23L39 23L39 24L40 24L40 26L39 26L39 25L36 25L36 24L37 24L37 23L38 23L38 22L37 22L37 21L39 21L39 20L36 20L36 19L35 19L35 17L36 17L36 18L38 18L38 19L39 19L39 18L41 18L41 16L40 16L40 17L39 17L39 16L37 16L37 15L39 15L39 14L41 14L41 13L40 13L40 12L39 12L39 14L37 14L37 13L36 13L36 14L35 14L35 15L36 15L36 16L35 16L35 17L34 17L34 16L33 16L33 17L31 17L31 15L30 15L30 16L29 16L29 15L28 15L28 16L29 16L29 17L31 17L31 18L30 18L30 19L31 19L31 20L30 20L30 21L31 21L31 22L26 22L26 21L29 21L29 20L26 20L26 21L25 21L25 20L23 20L23 18L20 18L20 19L18 19L18 17L17 17L17 15L19 15L19 16L20 16L20 17L22 17L22 16L24 16L24 17L25 17L25 18L24 18L24 19L29 19L29 18L26 18L26 17L27 17L27 14L29 14L29 13L30 13L30 14L31 14L31 12L29 12L29 10L26 10L26 9L30 9L30 10L32 10L32 11L33 11L33 12L32 12L32 13L33 13L33 14L32 14L32 15L34 15L34 13L35 13L35 10L36 10L36 12L38 12L38 11L40 11L40 10L41 10L41 8L38 8L38 9L40 9L40 10L37 10L37 9L36 9L36 8L31 8L31 9L30 9L30 8L27 8L27 6L28 6L28 7L29 7L29 6L30 6L30 7L31 7L31 5L32 5L32 7L33 7L33 5L32 5L32 4L33 4L33 3L32 3L32 4L30 4L30 5L29 5L29 6L28 6L28 5L27 5L27 4L25 4L25 6L24 6L24 2L25 2L25 1L24 1L24 0L21 0L21 1L23 1L23 3L22 3L22 2L21 2L21 3L22 3L22 5L21 5L21 4L17 4L17 3L18 3L18 2L19 2L19 3L20 3L20 1L18 1L18 0L17 0L17 3L16 3L16 7L15 7L15 6L14 6L14 5L13 5L13 4L12 4L12 3L14 3L14 4L15 4L15 2L12 2L12 1L16 1L16 0L10 0L10 1L11 1L11 2L10 2L10 3L9 3L9 0ZM26 0L26 1L27 1L27 2L26 2L26 3L28 3L28 4L29 4L29 3L31 3L31 2L30 2L30 1L32 1L32 2L33 2L33 0L29 0L29 1L27 1L27 0ZM10 3L10 4L11 4L11 3ZM9 5L9 7L10 7L10 6L11 6L11 5ZM12 5L12 6L13 6L13 5ZM26 5L26 6L25 6L25 7L24 7L24 6L23 6L23 7L22 7L22 6L21 6L21 9L22 9L22 10L24 10L24 8L25 8L25 9L26 9L26 8L25 8L25 7L26 7L26 6L27 6L27 5ZM17 6L17 7L16 7L16 11L17 11L17 12L18 12L18 11L20 11L20 12L21 12L21 13L22 13L22 12L23 12L23 14L24 14L24 16L25 16L25 15L26 15L26 13L27 13L27 11L22 11L22 12L21 12L21 10L20 10L20 8L19 8L19 7L20 7L20 6L19 6L19 7L18 7L18 6ZM17 7L17 8L18 8L18 9L17 9L17 10L18 10L18 9L19 9L19 8L18 8L18 7ZM23 7L23 8L24 8L24 7ZM6 8L6 9L7 9L7 8ZM11 8L11 9L13 9L13 8ZM32 9L32 10L33 10L33 11L34 11L34 10L33 10L33 9ZM4 10L4 11L5 11L5 10ZM14 10L14 11L15 11L15 10ZM6 11L6 12L7 12L7 11ZM28 12L28 13L29 13L29 12ZM33 12L33 13L34 13L34 12ZM11 13L11 14L12 14L12 16L11 16L11 19L10 19L10 20L8 20L8 21L6 21L6 22L8 22L8 21L9 21L9 24L8 24L8 25L6 25L6 26L4 26L4 28L5 28L5 29L6 29L6 28L8 28L8 27L6 27L6 26L8 26L8 25L11 25L11 27L9 27L9 29L10 29L10 28L11 28L11 27L12 27L12 29L15 29L15 28L16 28L16 30L18 30L18 28L21 28L21 27L20 27L20 24L21 24L21 25L22 25L22 26L23 26L23 27L22 27L22 28L24 28L24 29L22 29L22 30L21 30L21 29L20 29L20 30L19 30L19 31L18 31L18 32L17 32L17 34L16 34L16 36L15 36L15 37L16 37L16 38L15 38L15 39L16 39L16 40L18 40L18 39L19 39L19 38L18 38L18 37L19 37L19 36L20 36L20 35L21 35L21 34L22 34L22 37L23 37L23 36L24 36L24 37L25 37L25 36L26 36L26 37L27 37L27 38L25 38L25 40L26 40L26 39L27 39L27 38L28 38L28 37L29 37L29 38L30 38L30 39L28 39L28 40L30 40L30 39L31 39L31 38L30 38L30 37L32 37L32 39L33 39L33 38L36 38L36 37L32 37L32 35L31 35L31 34L30 34L30 35L31 35L31 36L29 36L29 35L28 35L28 37L27 37L27 36L26 36L26 35L25 35L25 34L24 34L24 29L27 29L27 28L24 28L24 27L26 27L26 25L27 25L27 26L28 26L28 25L29 25L29 24L30 24L30 23L26 23L26 25L25 25L25 23L24 23L24 22L21 22L21 20L22 20L22 19L20 19L20 21L18 21L18 20L17 20L17 17L16 17L16 20L15 20L15 16L16 16L16 15L17 15L17 14L15 14L15 15L14 15L14 14L12 14L12 13ZM18 13L18 14L20 14L20 16L21 16L21 14L20 14L20 13ZM13 16L13 19L14 19L14 16ZM36 16L36 17L37 17L37 16ZM6 17L6 18L7 18L7 17ZM38 17L38 18L39 18L39 17ZM31 18L31 19L32 19L32 18ZM33 18L33 20L34 20L34 21L32 21L32 20L31 20L31 21L32 21L32 22L31 22L31 23L32 23L32 24L31 24L31 25L30 25L30 26L29 26L29 28L30 28L30 29L28 29L28 30L30 30L30 29L31 29L31 30L32 30L32 31L33 31L33 32L35 32L35 31L36 31L36 29L35 29L35 27L36 27L36 25L35 25L35 24L36 24L36 23L35 23L35 22L36 22L36 21L35 21L35 19L34 19L34 18ZM2 19L2 20L3 20L3 21L4 21L4 23L5 23L5 20L3 20L3 19ZM11 19L11 21L10 21L10 23L13 23L13 25L12 25L12 26L13 26L13 25L14 25L14 27L16 27L16 28L17 28L17 27L18 27L18 26L19 26L19 24L18 24L18 23L21 23L21 22L18 22L18 23L17 23L17 22L16 22L16 21L17 21L17 20L16 20L16 21L14 21L14 20L12 20L12 19ZM40 20L40 21L41 21L41 20ZM13 21L13 23L14 23L14 25L18 25L18 24L17 24L17 23L16 23L16 22L15 22L15 23L14 23L14 21ZM34 21L34 22L35 22L35 21ZM32 22L32 23L33 23L33 22ZM6 23L6 24L7 24L7 23ZM23 23L23 24L22 24L22 25L23 25L23 26L24 26L24 23ZM27 24L27 25L28 25L28 24ZM32 24L32 25L31 25L31 26L32 26L32 28L33 28L33 29L32 29L32 30L33 30L33 29L34 29L34 28L33 28L33 27L34 27L34 26L35 26L35 25L34 25L34 24ZM32 25L32 26L34 26L34 25ZM16 26L16 27L17 27L17 26ZM5 30L5 31L6 31L6 30ZM20 30L20 31L19 31L19 32L20 32L20 33L19 33L19 35L20 35L20 33L21 33L21 30ZM26 30L26 31L25 31L25 33L26 33L26 34L29 34L29 33L27 33L27 30ZM34 30L34 31L35 31L35 30ZM22 31L22 32L23 32L23 31ZM28 31L28 32L30 32L30 33L31 33L31 31ZM38 31L38 32L37 32L37 33L38 33L38 34L39 34L39 33L38 33L38 32L39 32L39 31ZM33 33L33 36L36 36L36 33ZM23 34L23 35L24 35L24 34ZM34 34L34 35L35 35L35 34ZM17 35L17 36L16 36L16 37L18 37L18 35ZM38 35L38 36L37 36L37 37L38 37L38 36L39 36L39 35ZM17 38L17 39L18 39L18 38ZM22 38L22 39L23 39L23 38ZM37 38L37 39L38 39L38 38ZM0 0L0 7L7 7L7 0ZM1 1L1 6L6 6L6 1ZM2 2L2 5L5 5L5 2ZM34 0L34 7L41 7L41 0ZM35 1L35 6L40 6L40 1ZM36 2L36 5L39 5L39 2ZM0 34L0 41L7 41L7 34ZM1 35L1 40L6 40L6 35ZM2 36L2 39L5 39L5 36Z" fill="#000000"/></g></g></svg>
