<?xml version="1.0" encoding="UTF-8"?>
<svg xmlns="http://www.w3.org/2000/svg" version="1.1" width="200" height="200" viewBox="0 0 200 200"><rect x="0" y="0" width="200" height="200" fill="#ffffff"/><g transform="scale(6.897)"><g transform="translate(0,0)"><path fill-rule="evenodd" d="M8 0L8 3L10 3L10 4L9 4L9 5L8 5L8 10L10 10L10 11L11 11L11 12L10 12L10 13L8 13L8 12L9 12L9 11L8 11L8 12L6 12L6 13L8 13L8 14L5 14L5 11L7 11L7 10L5 10L5 11L4 11L4 9L5 9L5 8L2 8L2 9L0 9L0 10L2 10L2 11L0 11L0 14L1 14L1 15L0 15L0 16L1 16L1 15L2 15L2 17L3 17L3 16L4 16L4 17L7 17L7 18L5 18L5 19L4 19L4 18L2 18L2 19L4 19L4 20L2 20L2 21L4 21L4 20L5 20L5 21L8 21L8 22L9 22L9 21L8 21L8 19L9 19L9 20L10 20L10 19L9 19L9 18L11 18L11 17L12 17L12 20L13 20L13 21L15 21L15 22L16 22L16 21L18 21L18 22L19 22L19 20L18 20L18 19L19 19L19 17L18 17L18 16L19 16L19 15L18 15L18 16L17 16L17 14L18 14L18 13L20 13L20 12L21 12L21 11L20 11L20 10L22 10L22 9L23 9L23 10L24 10L24 8L21 8L21 5L20 5L20 4L21 4L21 3L20 3L20 4L19 4L19 3L18 3L18 4L16 4L16 3L17 3L17 2L16 2L16 3L15 3L15 2L13 2L13 1L12 1L12 2L10 2L10 1L11 1L11 0ZM14 0L14 1L17 1L17 0ZM18 1L18 2L19 2L19 1ZM20 1L20 2L21 2L21 1ZM11 3L11 4L10 4L10 5L9 5L9 7L10 7L10 6L11 6L11 7L12 7L12 6L11 6L11 4L12 4L12 5L13 5L13 4L14 4L14 3ZM15 5L15 7L14 7L14 6L13 6L13 7L14 7L14 9L13 9L13 8L12 8L12 9L11 9L11 8L10 8L10 10L12 10L12 11L13 11L13 13L15 13L15 12L16 12L16 11L17 11L17 12L19 12L19 10L20 10L20 9L21 9L21 8L20 8L20 9L19 9L19 8L17 8L17 7L18 7L18 6L19 6L19 7L20 7L20 6L19 6L19 5L18 5L18 6L17 6L17 7L16 7L16 5ZM15 7L15 8L16 8L16 10L19 10L19 9L17 9L17 8L16 8L16 7ZM6 8L6 9L7 9L7 8ZM26 8L26 9L27 9L27 10L25 10L25 12L24 12L24 11L22 11L22 12L23 12L23 13L21 13L21 15L22 15L22 14L23 14L23 13L24 13L24 19L25 19L25 20L23 20L23 19L22 19L22 18L20 18L20 19L21 19L21 20L20 20L20 25L19 25L19 26L16 26L16 25L18 25L18 24L19 24L19 23L17 23L17 24L16 24L16 23L15 23L15 24L16 24L16 25L15 25L15 26L16 26L16 27L17 27L17 29L26 29L26 28L25 28L25 27L27 27L27 29L28 29L28 28L29 28L29 27L28 27L28 25L29 25L29 24L28 24L28 23L27 23L27 22L28 22L28 21L29 21L29 20L28 20L28 19L27 19L27 17L28 17L28 10L29 10L29 8ZM13 10L13 11L15 11L15 10ZM2 11L2 12L3 12L3 11ZM11 12L11 14L9 14L9 15L8 15L8 18L9 18L9 15L10 15L10 17L11 17L11 15L12 15L12 17L14 17L14 19L13 19L13 20L14 20L14 19L15 19L15 17L16 17L16 18L18 18L18 17L17 17L17 16L16 16L16 14L17 14L17 13L16 13L16 14L14 14L14 15L13 15L13 14L12 14L12 12ZM25 12L25 13L26 13L26 14L27 14L27 12ZM2 13L2 14L3 14L3 15L5 15L5 14L3 14L3 13ZM6 15L6 16L7 16L7 15ZM14 15L14 17L15 17L15 15ZM25 15L25 16L27 16L27 15ZM20 16L20 17L22 17L22 16ZM0 17L0 21L1 21L1 17ZM5 19L5 20L7 20L7 19ZM16 19L16 20L15 20L15 21L16 21L16 20L17 20L17 19ZM26 19L26 20L25 20L25 21L26 21L26 22L25 22L25 24L26 24L26 25L25 25L25 26L24 26L24 25L22 25L22 26L23 26L23 27L25 27L25 26L27 26L27 23L26 23L26 22L27 22L27 21L28 21L28 20L27 20L27 19ZM10 21L10 22L11 22L11 24L10 24L10 25L9 25L9 24L8 24L8 27L9 27L9 29L11 29L11 28L13 28L13 29L15 29L15 28L14 28L14 26L13 26L13 25L14 25L14 23L13 23L13 22L12 22L12 21ZM21 21L21 24L24 24L24 21ZM22 22L22 23L23 23L23 22ZM12 23L12 24L13 24L13 23ZM10 25L10 26L9 26L9 27L10 27L10 26L12 26L12 27L13 27L13 26L12 26L12 25ZM20 26L20 27L19 27L19 28L22 28L22 27L21 27L21 26ZM0 0L0 7L7 7L7 0ZM1 1L1 6L6 6L6 1ZM2 2L2 5L5 5L5 2ZM22 0L22 7L29 7L29 0ZM23 1L23 6L28 6L28 1ZM24 2L24 5L27 5L27 2ZM0 22L0 29L7 29L7 22ZM1 23L1 28L6 28L6 23ZM2 24L2 27L5 27L5 24Z" fill="#000000"/></g></g></svg>
