<?xml version="1.0" encoding="UTF-8"?>
<svg xmlns="http://www.w3.org/2000/svg" version="1.1" width="200" height="200" viewBox="0 0 200 200"><rect x="0" y="0" width="200" height="200" fill="#ffffff"/><g transform="scale(4.878)"><g transform="translate(0,0)"><path fill-rule="evenodd" d="M11 0L11 2L10 2L10 4L8 4L8 5L10 5L10 4L11 4L11 5L12 5L12 8L13 8L13 9L14 9L14 11L13 11L13 10L12 10L12 9L11 9L11 8L9 8L9 6L8 6L8 8L6 8L6 9L7 9L7 10L5 10L5 9L4 9L4 8L2 8L2 9L3 9L3 10L2 10L2 14L0 14L0 17L1 17L1 19L3 19L3 20L2 20L2 21L3 21L3 20L4 20L4 19L5 19L5 16L6 16L6 17L7 17L7 16L8 16L8 17L10 17L10 18L9 18L9 20L11 20L11 23L10 23L10 21L9 21L9 22L5 22L5 21L4 21L4 22L5 22L5 23L4 23L4 24L2 24L2 23L3 23L3 22L1 22L1 20L0 20L0 24L1 24L1 28L2 28L2 25L4 25L4 26L5 26L5 27L4 27L4 28L3 28L3 29L1 29L1 30L0 30L0 31L1 31L1 30L2 30L2 32L1 32L1 33L2 33L2 32L3 32L3 33L5 33L5 32L6 32L6 33L7 33L7 32L6 32L6 31L7 31L7 30L8 30L8 31L11 31L11 32L10 32L10 33L11 33L11 35L10 35L10 39L9 39L9 37L8 37L8 39L9 39L9 40L10 40L10 39L11 39L11 41L12 41L12 39L13 39L13 41L18 41L18 40L20 40L20 39L22 39L22 38L23 38L23 39L24 39L24 40L22 40L22 41L26 41L26 40L25 40L25 39L27 39L27 38L28 38L28 39L30 39L30 40L32 40L32 41L33 41L33 39L34 39L34 38L33 38L33 37L35 37L35 41L37 41L37 40L38 40L38 41L40 41L40 39L41 39L41 37L40 37L40 39L39 39L39 38L38 38L38 37L39 37L39 36L41 36L41 35L39 35L39 34L41 34L41 31L40 31L40 30L39 30L39 31L38 31L38 29L39 29L39 28L38 28L38 27L37 27L37 26L38 26L38 25L37 25L37 26L36 26L36 24L35 24L35 23L34 23L34 24L35 24L35 25L34 25L34 27L35 27L35 29L33 29L33 24L32 24L32 23L30 23L30 21L29 21L29 23L30 23L30 24L28 24L28 23L27 23L27 26L25 26L25 25L26 25L26 24L21 24L21 23L24 23L24 22L25 22L25 23L26 23L26 22L27 22L27 21L26 21L26 20L31 20L31 22L32 22L32 21L33 21L33 20L34 20L34 22L35 22L35 21L36 21L36 22L38 22L38 21L40 21L40 19L38 19L38 18L39 18L39 17L41 17L41 16L39 16L39 17L38 17L38 16L37 16L37 15L36 15L36 13L35 13L35 12L36 12L36 11L38 11L38 10L37 10L37 8L36 8L36 11L35 11L35 8L33 8L33 6L32 6L32 5L33 5L33 1L32 1L32 0L31 0L31 1L30 1L30 0L29 0L29 1L28 1L28 2L29 2L29 3L28 3L28 4L27 4L27 5L28 5L28 4L29 4L29 6L28 6L28 7L27 7L27 6L26 6L26 10L27 10L27 8L28 8L28 11L25 11L25 8L24 8L24 7L25 7L25 6L24 6L24 5L26 5L26 4L25 4L25 3L27 3L27 0L26 0L26 2L25 2L25 0L23 0L23 1L22 1L22 0L21 0L21 1L20 1L20 0L16 0L16 1L15 1L15 0L14 0L14 1L13 1L13 0ZM14 1L14 2L13 2L13 3L12 3L12 2L11 2L11 3L12 3L12 4L13 4L13 5L14 5L14 6L13 6L13 7L14 7L14 8L15 8L15 9L16 9L16 8L17 8L17 9L18 9L18 8L19 8L19 9L20 9L20 10L21 10L21 11L19 11L19 12L18 12L18 10L17 10L17 11L15 11L15 12L17 12L17 13L16 13L16 14L13 14L13 15L12 15L12 13L14 13L14 12L13 12L13 11L11 11L11 9L10 9L10 10L9 10L9 12L10 12L10 11L11 11L11 14L10 14L10 13L6 13L6 12L8 12L8 11L6 11L6 12L5 12L5 10L3 10L3 11L4 11L4 12L3 12L3 13L4 13L4 12L5 12L5 13L6 13L6 14L8 14L8 16L9 16L9 15L10 15L10 16L11 16L11 15L12 15L12 16L14 16L14 17L13 17L13 18L12 18L12 19L13 19L13 20L12 20L12 21L13 21L13 23L12 23L12 24L11 24L11 27L10 27L10 28L9 28L9 30L12 30L12 28L11 28L11 27L13 27L13 29L14 29L14 30L15 30L15 29L16 29L16 27L17 27L17 28L19 28L19 29L18 29L18 30L19 30L19 29L20 29L20 28L21 28L21 29L23 29L23 30L22 30L22 32L23 32L23 33L19 33L19 35L18 35L18 34L16 34L16 33L18 33L18 31L17 31L17 30L16 30L16 31L17 31L17 32L14 32L14 31L13 31L13 32L11 32L11 33L12 33L12 35L11 35L11 39L12 39L12 37L13 37L13 39L15 39L15 40L16 40L16 38L17 38L17 40L18 40L18 39L19 39L19 37L22 37L22 34L23 34L23 33L24 33L24 35L23 35L23 38L24 38L24 37L25 37L25 38L26 38L26 37L27 37L27 36L29 36L29 37L28 37L28 38L29 38L29 37L30 37L30 39L33 39L33 38L31 38L31 37L32 37L32 36L31 36L31 35L30 35L30 34L29 34L29 31L27 31L27 30L28 30L28 27L29 27L29 30L30 30L30 31L31 31L31 29L32 29L32 27L30 27L30 25L28 25L28 26L27 26L27 28L26 28L26 27L25 27L25 28L26 28L26 29L25 29L25 30L26 30L26 32L25 32L25 33L24 33L24 29L23 29L23 28L24 28L24 27L23 27L23 28L21 28L21 27L17 27L17 26L16 26L16 25L17 25L17 24L18 24L18 23L20 23L20 21L21 21L21 22L22 22L22 20L21 20L21 18L20 18L20 20L18 20L18 19L17 19L17 18L19 18L19 16L20 16L20 17L21 17L21 15L22 15L22 14L23 14L23 13L22 13L22 14L21 14L21 15L19 15L19 14L18 14L18 17L16 17L16 16L15 16L15 15L17 15L17 13L20 13L20 12L23 12L23 11L24 11L24 8L23 8L23 7L24 7L24 6L23 6L23 2L22 2L22 1L21 1L21 2L20 2L20 1L19 1L19 2L18 2L18 5L17 5L17 7L16 7L16 6L15 6L15 5L16 5L16 4L17 4L17 3L14 3L14 2L15 2L15 1ZM29 1L29 2L30 2L30 3L29 3L29 4L30 4L30 6L29 6L29 7L28 7L28 8L29 8L29 7L30 7L30 11L29 11L29 12L28 12L28 13L26 13L26 12L24 12L24 14L25 14L25 16L26 16L26 18L25 18L25 17L24 17L24 19L26 19L26 18L27 18L27 16L28 16L28 17L29 17L29 19L30 19L30 17L31 17L31 19L32 19L32 20L33 20L33 19L34 19L34 20L36 20L36 21L38 21L38 19L37 19L37 17L36 17L36 16L35 16L35 15L34 15L34 14L35 14L35 13L34 13L34 12L35 12L35 11L33 11L33 10L34 10L34 9L33 9L33 8L32 8L32 6L31 6L31 4L32 4L32 1L31 1L31 2L30 2L30 1ZM19 2L19 3L20 3L20 2ZM21 2L21 3L22 3L22 2ZM13 3L13 4L14 4L14 5L15 5L15 4L14 4L14 3ZM20 4L20 5L21 5L21 6L20 6L20 7L21 7L21 8L22 8L22 7L23 7L23 6L22 6L22 4ZM10 6L10 7L11 7L11 6ZM14 6L14 7L15 7L15 8L16 8L16 7L15 7L15 6ZM18 6L18 7L17 7L17 8L18 8L18 7L19 7L19 6ZM21 6L21 7L22 7L22 6ZM30 6L30 7L31 7L31 6ZM31 8L31 10L33 10L33 9L32 9L32 8ZM0 9L0 13L1 13L1 9ZM22 9L22 10L23 10L23 9ZM40 9L40 10L41 10L41 9ZM31 11L31 12L29 12L29 13L28 13L28 14L27 14L27 15L26 15L26 16L27 16L27 15L28 15L28 16L29 16L29 14L30 14L30 13L31 13L31 12L32 12L32 14L31 14L31 15L30 15L30 16L31 16L31 15L33 15L33 11ZM37 13L37 14L40 14L40 15L41 15L41 13ZM4 14L4 15L1 15L1 17L2 17L2 18L3 18L3 19L4 19L4 16L5 16L5 14ZM6 15L6 16L7 16L7 15ZM23 15L23 16L22 16L22 19L23 19L23 16L24 16L24 15ZM15 17L15 19L14 19L14 18L13 18L13 19L14 19L14 20L16 20L16 17ZM6 18L6 19L8 19L8 18ZM10 18L10 19L11 19L11 18ZM34 18L34 19L35 19L35 18ZM36 19L36 20L37 20L37 19ZM6 20L6 21L8 21L8 20ZM17 20L17 21L16 21L16 23L15 23L15 24L14 24L14 23L13 23L13 24L12 24L12 26L14 26L14 27L15 27L15 25L16 25L16 23L17 23L17 21L18 21L18 20ZM14 21L14 22L15 22L15 21ZM39 22L39 23L40 23L40 22ZM6 23L6 24L7 24L7 25L6 25L6 26L8 26L8 27L9 27L9 26L10 26L10 25L9 25L9 24L10 24L10 23L9 23L9 24L8 24L8 23ZM37 23L37 24L38 24L38 23ZM4 24L4 25L5 25L5 24ZM13 24L13 25L14 25L14 24ZM19 24L19 25L18 25L18 26L24 26L24 25L20 25L20 24ZM31 24L31 25L32 25L32 24ZM40 24L40 25L39 25L39 26L40 26L40 28L41 28L41 24ZM35 26L35 27L36 27L36 26ZM5 27L5 28L7 28L7 29L5 29L5 30L7 30L7 29L8 29L8 28L7 28L7 27ZM10 28L10 29L11 29L11 28ZM30 28L30 29L31 29L31 28ZM37 28L37 29L36 29L36 30L37 30L37 29L38 29L38 28ZM26 29L26 30L27 30L27 29ZM32 30L32 32L31 32L31 33L32 33L32 32L33 32L33 31L34 31L34 32L37 32L37 33L38 33L38 34L39 34L39 33L38 33L38 31L34 31L34 30ZM20 31L20 32L21 32L21 31ZM39 31L39 32L40 32L40 31ZM8 32L8 35L9 35L9 32ZM13 32L13 33L14 33L14 32ZM26 32L26 33L25 33L25 34L26 34L26 35L24 35L24 36L26 36L26 35L27 35L27 32ZM33 33L33 36L36 36L36 33ZM14 34L14 35L13 35L13 36L14 36L14 37L15 37L15 38L16 38L16 36L14 36L14 35L15 35L15 34ZM20 34L20 36L21 36L21 34ZM28 34L28 35L29 35L29 36L30 36L30 35L29 35L29 34ZM34 34L34 35L35 35L35 34ZM17 35L17 36L18 36L18 35ZM38 35L38 36L39 36L39 35ZM17 37L17 38L18 38L18 37ZM36 37L36 40L37 40L37 37ZM28 40L28 41L29 41L29 40ZM0 0L0 7L7 7L7 0ZM1 1L1 6L6 6L6 1ZM2 2L2 5L5 5L5 2ZM34 0L34 7L41 7L41 0ZM35 1L35 6L40 6L40 1ZM36 2L36 5L39 5L39 2ZM0 34L0 41L7 41L7 34ZM1 35L1 40L6 40L6 35ZM2 36L2 39L5 39L5 36Z" fill="#000000"/></g></g></svg>
