<?xml version="1.0" encoding="UTF-8"?>
<svg xmlns="http://www.w3.org/2000/svg" version="1.1" width="200" height="200" viewBox="0 0 200 200"><rect x="0" y="0" width="200" height="200" fill="#ffffff"/><g transform="scale(6.897)"><g transform="translate(0,0)"><path fill-rule="evenodd" d="M8 0L8 1L9 1L9 0ZM10 0L10 2L9 2L9 3L8 3L8 4L9 4L9 6L8 6L8 7L9 7L9 8L8 8L8 9L7 9L7 8L4 8L4 9L5 9L5 12L6 12L6 13L5 13L5 14L6 14L6 15L5 15L5 16L4 16L4 15L3 15L3 16L2 16L2 17L1 17L1 18L0 18L0 19L1 19L1 20L0 20L0 21L1 21L1 20L2 20L2 21L4 21L4 20L5 20L5 21L8 21L8 22L9 22L9 20L8 20L8 19L13 19L13 20L12 20L12 21L10 21L10 23L8 23L8 25L9 25L9 26L8 26L8 27L10 27L10 28L9 28L9 29L13 29L13 28L11 28L11 27L10 27L10 26L12 26L12 25L13 25L13 26L16 26L16 28L17 28L17 29L20 29L20 25L21 25L21 26L22 26L22 25L23 25L23 26L24 26L24 25L25 25L25 26L28 26L28 27L27 27L27 28L26 28L26 27L25 27L25 28L23 28L23 27L22 27L22 28L23 28L23 29L25 29L25 28L26 28L26 29L27 29L27 28L28 28L28 29L29 29L29 26L28 26L28 25L29 25L29 24L26 24L26 23L25 23L25 19L27 19L27 20L26 20L26 21L28 21L28 22L27 22L27 23L29 23L29 21L28 21L28 19L29 19L29 18L27 18L27 17L26 17L26 14L24 14L24 13L25 13L25 11L26 11L26 13L27 13L27 12L28 12L28 13L29 13L29 12L28 12L28 11L29 11L29 8L28 8L28 9L26 9L26 8L25 8L25 9L24 9L24 10L25 10L25 11L24 11L24 12L23 12L23 10L22 10L22 8L19 8L19 11L20 11L20 12L19 12L19 14L18 14L18 15L17 15L17 16L18 16L18 17L17 17L17 18L16 18L16 17L15 17L15 15L16 15L16 14L15 14L15 13L14 13L14 14L15 14L15 15L14 15L14 16L13 16L13 17L14 17L14 18L12 18L12 16L11 16L11 15L12 15L12 14L10 14L10 12L9 12L9 11L11 11L11 12L12 12L12 13L13 13L13 12L15 12L15 11L14 11L14 10L13 10L13 12L12 12L12 11L11 11L11 8L10 8L10 7L11 7L11 6L10 6L10 5L11 5L11 4L14 4L14 5L18 5L18 7L19 7L19 5L20 5L20 7L21 7L21 0L20 0L20 1L19 1L19 2L20 2L20 3L19 3L19 4L18 4L18 3L17 3L17 2L18 2L18 1L17 1L17 0L16 0L16 1L17 1L17 2L11 2L11 0ZM9 3L9 4L10 4L10 3ZM9 6L9 7L10 7L10 6ZM12 6L12 9L15 9L15 10L16 10L16 9L15 9L15 8L13 8L13 6ZM14 6L14 7L15 7L15 6ZM16 6L16 8L17 8L17 6ZM2 8L2 9L1 9L1 10L3 10L3 11L4 11L4 10L3 10L3 8ZM9 8L9 9L8 9L8 10L7 10L7 9L6 9L6 10L7 10L7 11L6 11L6 12L7 12L7 13L6 13L6 14L8 14L8 15L6 15L6 16L7 16L7 17L4 17L4 16L3 16L3 18L1 18L1 19L2 19L2 20L4 20L4 18L7 18L7 19L6 19L6 20L7 20L7 19L8 19L8 18L7 18L7 17L9 17L9 14L8 14L8 12L7 12L7 11L9 11L9 9L10 9L10 8ZM17 9L17 11L16 11L16 13L17 13L17 12L18 12L18 9ZM25 9L25 10L26 10L26 9ZM27 10L27 11L28 11L28 10ZM1 11L1 13L0 13L0 14L2 14L2 13L3 13L3 14L4 14L4 12L2 12L2 11ZM21 11L21 12L22 12L22 11ZM20 13L20 14L19 14L19 15L20 15L20 16L19 16L19 17L18 17L18 18L17 18L17 19L15 19L15 18L14 18L14 20L15 20L15 21L16 21L16 23L17 23L17 24L16 24L16 25L17 25L17 28L18 28L18 26L19 26L19 25L17 25L17 24L19 24L19 23L17 23L17 22L18 22L18 20L17 20L17 19L20 19L20 20L19 20L19 21L20 21L20 20L21 20L21 19L22 19L22 18L23 18L23 19L24 19L24 18L26 18L26 17L24 17L24 16L25 16L25 15L24 15L24 14L23 14L23 15L22 15L22 14L21 14L21 13ZM20 14L20 15L21 15L21 14ZM27 14L27 16L28 16L28 17L29 17L29 16L28 16L28 15L29 15L29 14ZM0 15L0 16L1 16L1 15ZM23 15L23 16L22 16L22 17L23 17L23 18L24 18L24 17L23 17L23 16L24 16L24 15ZM10 16L10 18L11 18L11 16ZM19 17L19 18L20 18L20 17ZM16 20L16 21L17 21L17 20ZM12 21L12 22L11 22L11 24L9 24L9 25L12 25L12 24L15 24L15 22L14 22L14 23L12 23L12 22L13 22L13 21ZM21 21L21 24L24 24L24 21ZM22 22L22 23L23 23L23 22ZM14 27L14 29L15 29L15 27ZM0 0L0 7L7 7L7 0ZM1 1L1 6L6 6L6 1ZM2 2L2 5L5 5L5 2ZM22 0L22 7L29 7L29 0ZM23 1L23 6L28 6L28 1ZM24 2L24 5L27 5L27 2ZM0 22L0 29L7 29L7 22ZM1 23L1 28L6 28L6 23ZM2 24L2 27L5 27L5 24Z" fill="#000000"/></g></g></svg>
