<?xml version="1.0" encoding="UTF-8"?>
<svg xmlns="http://www.w3.org/2000/svg" version="1.1" width="200" height="200" viewBox="0 0 200 200"><rect x="0" y="0" width="200" height="200" fill="#ffffff"/><g transform="scale(6.897)"><g transform="translate(0,0)"><path fill-rule="evenodd" d="M9 0L9 1L10 1L10 2L8 2L8 4L9 4L9 6L8 6L8 7L9 7L9 6L10 6L10 8L11 8L11 9L12 9L12 10L11 10L11 11L12 11L12 13L10 13L10 14L12 14L12 13L13 13L13 14L14 14L14 19L13 19L13 20L14 20L14 21L12 21L12 22L11 22L11 23L12 23L12 22L14 22L14 21L15 21L15 24L14 24L14 23L13 23L13 24L14 24L14 25L13 25L13 26L12 26L12 29L13 29L13 28L14 28L14 29L17 29L17 28L18 28L18 29L19 29L19 28L20 28L20 29L21 29L21 27L22 27L22 28L24 28L24 29L28 29L28 28L27 28L27 27L29 27L29 26L27 26L27 25L28 25L28 24L29 24L29 23L28 23L28 24L26 24L26 26L25 26L25 22L27 22L27 21L26 21L26 20L27 20L27 19L26 19L26 18L29 18L29 17L28 17L28 16L29 16L29 14L27 14L27 13L29 13L29 11L28 11L28 10L27 10L27 8L25 8L25 9L24 9L24 10L23 10L23 9L22 9L22 10L23 10L23 12L22 12L22 11L21 11L21 12L19 12L19 10L18 10L18 9L19 9L19 8L18 8L18 9L17 9L17 6L18 6L18 7L19 7L19 6L20 6L20 7L21 7L21 4L20 4L20 3L21 3L21 1L20 1L20 0L16 0L16 2L15 2L15 0L14 0L14 1L13 1L13 2L12 2L12 1L11 1L11 0ZM17 1L17 2L16 2L16 3L17 3L17 4L15 4L15 3L14 3L14 2L13 2L13 3L12 3L12 6L11 6L11 2L10 2L10 6L11 6L11 8L12 8L12 9L13 9L13 7L14 7L14 5L17 5L17 4L18 4L18 3L20 3L20 1L19 1L19 2L18 2L18 1ZM12 6L12 7L13 7L13 6ZM15 6L15 8L14 8L14 10L13 10L13 11L15 11L15 13L17 13L17 12L18 12L18 10L17 10L17 9L16 9L16 6ZM3 8L3 10L2 10L2 9L1 9L1 11L4 11L4 10L5 10L5 8ZM6 8L6 9L8 9L8 8ZM20 8L20 10L21 10L21 8ZM15 9L15 11L16 11L16 9ZM25 9L25 10L26 10L26 11L27 11L27 12L28 12L28 11L27 11L27 10L26 10L26 9ZM6 10L6 11L7 11L7 12L6 12L6 13L7 13L7 12L8 12L8 13L9 13L9 12L10 12L10 11L9 11L9 10L8 10L8 11L7 11L7 10ZM1 12L1 13L2 13L2 14L0 14L0 15L3 15L3 16L5 16L5 17L4 17L4 18L3 18L3 17L1 17L1 16L0 16L0 21L3 21L3 20L4 20L4 21L8 21L8 23L10 23L10 21L11 21L11 19L12 19L12 18L13 18L13 17L12 17L12 18L11 18L11 15L10 15L10 16L8 16L8 15L7 15L7 14L6 14L6 15L7 15L7 16L5 16L5 13L4 13L4 12L3 12L3 13L2 13L2 12ZM13 12L13 13L14 13L14 12ZM21 12L21 14L20 14L20 15L19 15L19 13L18 13L18 14L15 14L15 16L17 16L17 17L15 17L15 18L16 18L16 20L15 20L15 21L16 21L16 22L17 22L17 23L16 23L16 25L14 25L14 28L17 28L17 26L16 26L16 25L19 25L19 27L21 27L21 26L22 26L22 27L25 27L25 26L24 26L24 25L19 25L19 24L20 24L20 20L22 20L22 19L20 19L20 15L21 15L21 18L22 18L22 16L24 16L24 12L23 12L23 14L22 14L22 12ZM3 13L3 15L4 15L4 13ZM25 13L25 16L26 16L26 17L27 17L27 16L28 16L28 15L27 15L27 16L26 16L26 13ZM12 15L12 16L13 16L13 15ZM7 16L7 17L6 17L6 18L5 18L5 19L4 19L4 20L7 20L7 19L8 19L8 20L9 20L9 21L10 21L10 19L9 19L9 17L8 17L8 16ZM18 16L18 17L17 17L17 19L18 19L18 20L16 20L16 21L18 21L18 20L19 20L19 19L18 19L18 18L19 18L19 16ZM6 18L6 19L7 19L7 18ZM2 19L2 20L3 20L3 19ZM23 19L23 20L26 20L26 19ZM21 21L21 24L24 24L24 21ZM28 21L28 22L29 22L29 21ZM18 22L18 23L17 23L17 24L18 24L18 23L19 23L19 22ZM22 22L22 23L23 23L23 22ZM8 24L8 26L9 26L9 28L10 28L10 27L11 27L11 26L10 26L10 24ZM15 26L15 27L16 27L16 26ZM26 26L26 27L27 27L27 26ZM0 0L0 7L7 7L7 0ZM1 1L1 6L6 6L6 1ZM2 2L2 5L5 5L5 2ZM22 0L22 7L29 7L29 0ZM23 1L23 6L28 6L28 1ZM24 2L24 5L27 5L27 2ZM0 22L0 29L7 29L7 22ZM1 23L1 28L6 28L6 23ZM2 24L2 27L5 27L5 24Z" fill="#000000"/></g></g></svg>
