<?xml version="1.0" encoding="UTF-8"?>
<svg xmlns="http://www.w3.org/2000/svg" version="1.1" width="200" height="200" viewBox="0 0 200 200"><rect x="0" y="0" width="200" height="200" fill="#ffffff"/><g transform="scale(6.897)"><g transform="translate(0,0)"><path fill-rule="evenodd" d="M9 0L9 3L10 3L10 4L8 4L8 5L9 5L9 6L8 6L8 8L6 8L6 9L8 9L8 11L7 11L7 10L6 10L6 11L7 11L7 12L6 12L6 13L5 13L5 10L4 10L4 8L2 8L2 9L0 9L0 11L1 11L1 13L0 13L0 17L1 17L1 18L0 18L0 19L1 19L1 18L2 18L2 19L3 19L3 21L4 21L4 20L5 20L5 21L8 21L8 23L9 23L9 25L8 25L8 27L10 27L10 28L9 28L9 29L10 29L10 28L11 28L11 27L10 27L10 26L9 26L9 25L10 25L10 23L11 23L11 24L12 24L12 25L11 25L11 26L12 26L12 27L13 27L13 28L14 28L14 29L17 29L17 28L18 28L18 27L17 27L17 28L16 28L16 25L17 25L17 24L18 24L18 26L19 26L19 25L20 25L20 27L21 27L21 25L23 25L23 26L24 26L24 27L22 27L22 29L23 29L23 28L25 28L25 29L27 29L27 28L29 28L29 26L28 26L28 27L27 27L27 25L26 25L26 23L25 23L25 22L26 22L26 20L27 20L27 21L28 21L28 22L27 22L27 24L29 24L29 23L28 23L28 22L29 22L29 21L28 21L28 20L27 20L27 18L29 18L29 17L26 17L26 16L25 16L25 15L24 15L24 16L23 16L23 17L21 17L21 18L20 18L20 17L19 17L19 18L20 18L20 20L19 20L19 19L17 19L17 18L16 18L16 17L17 17L17 16L16 16L16 17L14 17L14 18L13 18L13 19L14 19L14 20L15 20L15 21L14 21L14 22L15 22L15 23L17 23L17 24L16 24L16 25L15 25L15 24L14 24L14 23L13 23L13 24L12 24L12 22L13 22L13 21L12 21L12 22L11 22L11 21L8 21L8 20L10 20L10 19L8 19L8 20L6 20L6 19L7 19L7 18L5 18L5 17L4 17L4 15L3 15L3 11L4 11L4 14L6 14L6 15L7 15L7 16L6 16L6 17L7 17L7 16L8 16L8 15L10 15L10 14L8 14L8 12L10 12L10 13L11 13L11 12L12 12L12 13L13 13L13 12L14 12L14 13L15 13L15 14L11 14L11 16L12 16L12 17L11 17L11 18L12 18L12 17L13 17L13 15L14 15L14 16L15 16L15 15L16 15L16 13L15 13L15 12L17 12L17 11L16 11L16 10L17 10L17 6L18 6L18 7L19 7L19 8L18 8L18 11L20 11L20 12L19 12L19 13L20 13L20 14L18 14L18 13L17 13L17 15L20 15L20 14L21 14L21 13L20 13L20 12L22 12L22 9L23 9L23 13L22 13L22 15L23 15L23 14L24 14L24 13L25 13L25 14L26 14L26 15L27 15L27 16L28 16L28 15L29 15L29 14L28 14L28 12L29 12L29 11L28 11L28 12L27 12L27 10L29 10L29 9L25 9L25 8L24 8L24 9L23 9L23 8L21 8L21 3L20 3L20 2L18 2L18 1L17 1L17 0L16 0L16 1L15 1L15 0L14 0L14 1L13 1L13 0L11 0L11 1L10 1L10 0ZM11 1L11 4L10 4L10 6L9 6L9 8L10 8L10 6L11 6L11 9L10 9L10 11L13 11L13 10L12 10L12 9L13 9L13 8L12 8L12 6L13 6L13 7L14 7L14 11L15 11L15 10L16 10L16 8L15 8L15 7L16 7L16 6L15 6L15 7L14 7L14 6L13 6L13 5L12 5L12 6L11 6L11 4L14 4L14 3L17 3L17 4L16 4L16 5L19 5L19 7L20 7L20 5L19 5L19 4L20 4L20 3L19 3L19 4L18 4L18 2L17 2L17 1L16 1L16 2L12 2L12 1ZM19 8L19 10L20 10L20 9L21 9L21 8ZM2 9L2 10L1 10L1 11L3 11L3 9ZM24 9L24 10L25 10L25 9ZM25 11L25 13L27 13L27 12L26 12L26 11ZM1 13L1 15L2 15L2 16L1 16L1 17L2 17L2 16L3 16L3 15L2 15L2 13ZM6 13L6 14L7 14L7 15L8 15L8 14L7 14L7 13ZM9 16L9 17L8 17L8 18L9 18L9 17L10 17L10 16ZM24 16L24 17L23 17L23 18L22 18L22 19L21 19L21 20L22 20L22 19L24 19L24 18L26 18L26 17L25 17L25 16ZM3 17L3 19L5 19L5 18L4 18L4 17ZM11 19L11 20L12 20L12 19ZM15 19L15 20L16 20L16 19ZM25 19L25 20L26 20L26 19ZM1 20L1 21L2 21L2 20ZM17 20L17 21L16 21L16 22L17 22L17 21L18 21L18 24L19 24L19 22L20 22L20 21L19 21L19 20ZM21 21L21 24L24 24L24 21ZM22 22L22 23L23 23L23 22ZM13 25L13 26L14 26L14 25ZM24 25L24 26L25 26L25 28L27 28L27 27L26 27L26 26L25 26L25 25ZM19 28L19 29L20 29L20 28ZM0 0L0 7L7 7L7 0ZM1 1L1 6L6 6L6 1ZM2 2L2 5L5 5L5 2ZM22 0L22 7L29 7L29 0ZM23 1L23 6L28 6L28 1ZM24 2L24 5L27 5L27 2ZM0 22L0 29L7 29L7 22ZM1 23L1 28L6 28L6 23ZM2 24L2 27L5 27L5 24Z" fill="#000000"/></g></g></svg>
