<?xml version="1.0" encoding="UTF-8"?>
<svg xmlns="http://www.w3.org/2000/svg" version="1.1" width="200" height="200" viewBox="0 0 200 200"><rect x="0" y="0" width="200" height="200" fill="#ffffff"/><g transform="scale(4.878)"><g transform="translate(0,0)"><path fill-rule="evenodd" d="M8 0L8 3L9 3L9 5L8 5L8 9L7 9L7 8L6 8L6 9L7 9L7 10L6 10L6 11L4 11L4 9L5 9L5 8L2 8L2 9L0 9L0 13L1 13L1 14L0 14L0 15L1 15L1 17L0 17L0 19L1 19L1 18L2 18L2 17L4 17L4 18L3 18L3 20L0 20L0 21L2 21L2 22L1 22L1 23L0 23L0 24L1 24L1 25L0 25L0 26L1 26L1 27L0 27L0 28L1 28L1 29L0 29L0 33L1 33L1 29L2 29L2 33L8 33L8 34L9 34L9 36L8 36L8 39L11 39L11 40L12 40L12 39L11 39L11 37L13 37L13 33L14 33L14 37L15 37L15 38L13 38L13 39L15 39L15 40L14 40L14 41L19 41L19 40L17 40L17 39L18 39L18 38L17 38L17 37L15 37L15 36L18 36L18 37L19 37L19 36L18 36L18 33L20 33L20 34L19 34L19 35L21 35L21 36L24 36L24 37L25 37L25 38L24 38L24 40L23 40L23 41L24 41L24 40L25 40L25 41L27 41L27 40L28 40L28 41L32 41L32 40L33 40L33 41L34 41L34 40L33 40L33 39L35 39L35 40L36 40L36 39L37 39L37 37L39 37L39 40L40 40L40 38L41 38L41 37L40 37L40 36L41 36L41 35L40 35L40 34L41 34L41 33L40 33L40 32L41 32L41 31L40 31L40 30L41 30L41 29L40 29L40 28L41 28L41 27L40 27L40 26L41 26L41 23L40 23L40 26L39 26L39 24L37 24L37 25L36 25L36 23L35 23L35 25L34 25L34 24L32 24L32 23L34 23L34 22L36 22L36 21L37 21L37 22L38 22L38 21L39 21L39 20L38 20L38 18L37 18L37 17L39 17L39 18L41 18L41 16L40 16L40 17L39 17L39 16L37 16L37 15L40 15L40 14L41 14L41 13L40 13L40 12L41 12L41 11L40 11L40 10L41 10L41 8L38 8L38 9L40 9L40 10L37 10L37 9L36 9L36 8L33 8L33 6L32 6L32 9L31 9L31 8L29 8L29 5L30 5L30 7L31 7L31 5L32 5L32 4L33 4L33 3L32 3L32 2L33 2L33 1L32 1L32 0L31 0L31 1L30 1L30 2L31 2L31 3L30 3L30 4L28 4L28 5L27 5L27 6L26 6L26 7L25 7L25 6L24 6L24 5L25 5L25 4L24 4L24 5L23 5L23 4L22 4L22 3L23 3L23 1L24 1L24 2L25 2L25 3L26 3L26 4L27 4L27 3L29 3L29 1L27 1L27 0L23 0L23 1L22 1L22 3L20 3L20 4L21 4L21 5L20 5L20 8L18 8L18 7L19 7L19 6L18 6L18 7L17 7L17 6L16 6L16 7L15 7L15 5L14 5L14 4L13 4L13 2L12 2L12 3L11 3L11 1L12 1L12 0ZM13 0L13 1L14 1L14 2L15 2L15 3L16 3L16 5L18 5L18 4L17 4L17 3L16 3L16 0ZM17 0L17 1L18 1L18 0ZM20 0L20 1L19 1L19 2L18 2L18 3L19 3L19 2L21 2L21 0ZM31 1L31 2L32 2L32 1ZM26 2L26 3L27 3L27 2ZM31 3L31 4L30 4L30 5L31 5L31 4L32 4L32 3ZM11 4L11 5L10 5L10 6L9 6L9 7L10 7L10 6L11 6L11 10L10 10L10 11L9 11L9 12L11 12L11 10L14 10L14 9L15 9L15 7L14 7L14 5L13 5L13 4ZM12 5L12 7L13 7L13 5ZM21 5L21 8L22 8L22 9L20 9L20 10L23 10L23 11L22 11L22 12L21 12L21 11L20 11L20 12L21 12L21 13L20 13L20 14L19 14L19 12L18 12L18 10L17 10L17 7L16 7L16 12L15 12L15 11L14 11L14 13L13 13L13 12L12 12L12 15L11 15L11 13L10 13L10 15L11 15L11 16L12 16L12 17L10 17L10 16L8 16L8 15L9 15L9 13L8 13L8 14L7 14L7 13L5 13L5 12L4 12L4 11L3 11L3 10L2 10L2 11L1 11L1 13L2 13L2 14L1 14L1 15L2 15L2 16L3 16L3 15L4 15L4 14L5 14L5 16L4 16L4 17L5 17L5 18L4 18L4 21L3 21L3 22L4 22L4 23L2 23L2 24L4 24L4 25L1 25L1 26L2 26L2 27L1 27L1 28L2 28L2 29L3 29L3 30L5 30L5 31L4 31L4 32L7 32L7 31L6 31L6 30L8 30L8 29L3 29L3 28L4 28L4 27L5 27L5 28L9 28L9 29L11 29L11 30L12 30L12 31L10 31L10 30L9 30L9 31L10 31L10 32L11 32L11 33L9 33L9 34L10 34L10 36L11 36L11 34L12 34L12 32L13 32L13 30L12 30L12 28L13 28L13 29L15 29L15 28L16 28L16 32L17 32L17 33L16 33L16 34L15 34L15 35L16 35L16 34L17 34L17 33L18 33L18 32L19 32L19 31L17 31L17 30L20 30L20 33L23 33L23 34L22 34L22 35L23 35L23 34L24 34L24 36L25 36L25 37L27 37L27 38L26 38L26 39L25 39L25 40L26 40L26 39L27 39L27 38L29 38L29 39L28 39L28 40L30 40L30 39L31 39L31 40L32 40L32 39L33 39L33 38L36 38L36 37L33 37L33 38L32 38L32 39L31 39L31 37L32 37L32 36L31 36L31 35L30 35L30 33L31 33L31 34L32 34L32 32L35 32L35 31L34 31L34 30L35 30L35 29L37 29L37 30L38 30L38 31L37 31L37 32L39 32L39 30L38 30L38 29L39 29L39 26L38 26L38 28L36 28L36 27L37 27L37 26L36 26L36 25L35 25L35 26L36 26L36 27L35 27L35 29L34 29L34 28L33 28L33 29L32 29L32 28L31 28L31 27L34 27L34 25L32 25L32 24L31 24L31 23L32 23L32 22L34 22L34 21L36 21L36 20L37 20L37 21L38 21L38 20L37 20L37 18L36 18L36 17L37 17L37 16L36 16L36 15L35 15L35 14L36 14L36 13L37 13L37 14L40 14L40 13L39 13L39 11L38 11L38 12L37 12L37 11L36 11L36 10L34 10L34 11L33 11L33 9L32 9L32 10L31 10L31 9L29 9L29 8L28 8L28 6L27 6L27 7L26 7L26 8L22 8L22 6L23 6L23 7L24 7L24 6L23 6L23 5ZM9 8L9 9L8 9L8 10L9 10L9 9L10 9L10 8ZM12 8L12 9L13 9L13 8ZM26 8L26 9L28 9L28 10L26 10L26 12L27 12L27 14L26 14L26 13L25 13L25 14L23 14L23 15L21 15L21 14L20 14L20 15L19 15L19 16L17 16L17 15L18 15L18 13L17 13L17 12L16 12L16 13L14 13L14 14L13 14L13 15L12 15L12 16L13 16L13 15L16 15L16 16L17 16L17 17L15 17L15 16L14 16L14 17L15 17L15 18L17 18L17 17L18 17L18 19L16 19L16 20L15 20L15 19L12 19L12 18L13 18L13 17L12 17L12 18L11 18L11 19L12 19L12 20L11 20L11 21L10 21L10 20L8 20L8 19L9 19L9 17L8 17L8 16L6 16L6 17L7 17L7 18L6 18L6 19L7 19L7 20L5 20L5 21L4 21L4 22L5 22L5 23L7 23L7 24L6 24L6 25L4 25L4 26L5 26L5 27L7 27L7 26L6 26L6 25L7 25L7 24L8 24L8 26L9 26L9 27L10 27L10 26L11 26L11 27L12 27L12 26L13 26L13 28L15 28L15 27L18 27L18 28L17 28L17 29L18 29L18 28L19 28L19 29L21 29L21 32L23 32L23 33L24 33L24 34L25 34L25 36L26 36L26 35L29 35L29 34L25 34L25 33L26 33L26 32L23 32L23 31L24 31L24 30L25 30L25 29L26 29L26 31L27 31L27 30L30 30L30 31L31 31L31 30L30 30L30 29L31 29L31 28L29 28L29 26L32 26L32 25L30 25L30 24L29 24L29 23L31 23L31 22L32 22L32 21L34 21L34 20L32 20L32 19L30 19L30 17L31 17L31 18L34 18L34 19L35 19L35 20L36 20L36 19L35 19L35 17L36 17L36 16L35 16L35 17L34 17L34 16L33 16L33 15L34 15L34 14L33 14L33 13L34 13L34 12L33 12L33 11L32 11L32 12L33 12L33 13L32 13L32 14L31 14L31 12L29 12L29 9L28 9L28 8ZM2 11L2 12L3 12L3 11ZM6 11L6 12L8 12L8 11ZM23 11L23 12L22 12L22 13L24 13L24 11ZM27 11L27 12L28 12L28 11ZM3 13L3 14L4 14L4 13ZM16 13L16 15L17 15L17 13ZM28 13L28 14L30 14L30 15L28 15L28 17L27 17L27 16L26 16L26 15L25 15L25 16L24 16L24 19L23 19L23 18L22 18L22 17L20 17L20 18L19 18L19 19L18 19L18 20L19 20L19 21L18 21L18 22L17 22L17 21L16 21L16 23L17 23L17 24L18 24L18 25L17 25L17 26L18 26L18 25L19 25L19 26L20 26L20 23L21 23L21 27L22 27L22 28L23 28L23 30L22 30L22 31L23 31L23 30L24 30L24 29L25 29L25 28L23 28L23 27L24 27L24 25L26 25L26 29L27 29L27 28L28 28L28 29L29 29L29 28L28 28L28 27L27 27L27 26L29 26L29 25L27 25L27 24L28 24L28 23L27 23L27 22L30 22L30 21L32 21L32 20L29 20L29 19L27 19L27 20L25 20L25 21L26 21L26 23L24 23L24 21L23 21L23 20L24 20L24 19L25 19L25 16L26 16L26 18L29 18L29 16L31 16L31 14L30 14L30 13ZM6 14L6 15L7 15L7 14ZM32 14L32 15L33 15L33 14ZM20 15L20 16L21 16L21 15ZM32 16L32 17L33 17L33 16ZM7 18L7 19L8 19L8 18ZM20 18L20 19L21 19L21 18ZM14 20L14 23L13 23L13 22L11 22L11 24L10 24L10 25L9 25L9 26L10 26L10 25L11 25L11 24L12 24L12 25L13 25L13 26L16 26L16 24L15 24L15 25L13 25L13 24L14 24L14 23L15 23L15 20ZM20 20L20 21L21 21L21 20ZM27 20L27 21L29 21L29 20ZM40 20L40 21L41 21L41 20ZM6 21L6 22L7 22L7 23L8 23L8 24L9 24L9 23L10 23L10 21ZM22 21L22 25L24 25L24 24L23 24L23 21ZM18 22L18 24L19 24L19 23L20 23L20 22ZM12 23L12 24L13 24L13 23ZM26 23L26 24L27 24L27 23ZM22 26L22 27L23 27L23 26ZM2 27L2 28L3 28L3 27ZM33 29L33 30L32 30L32 31L33 31L33 30L34 30L34 29ZM14 31L14 32L15 32L15 31ZM28 31L28 33L30 33L30 32L29 32L29 31ZM33 33L33 36L36 36L36 33ZM38 33L38 34L37 34L37 36L40 36L40 35L38 35L38 34L39 34L39 33ZM34 34L34 35L35 35L35 34ZM27 36L27 37L29 37L29 36ZM30 36L30 37L31 37L31 36ZM9 37L9 38L10 38L10 37ZM22 37L22 38L23 38L23 37ZM16 38L16 39L17 39L17 38ZM19 38L19 39L20 39L20 41L21 41L21 38ZM0 0L0 7L7 7L7 0ZM1 1L1 6L6 6L6 1ZM2 2L2 5L5 5L5 2ZM34 0L34 7L41 7L41 0ZM35 1L35 6L40 6L40 1ZM36 2L36 5L39 5L39 2ZM0 34L0 41L7 41L7 34ZM1 35L1 40L6 40L6 35ZM2 36L2 39L5 39L5 36Z" fill="#000000"/></g></g></svg>
