<?xml version="1.0" encoding="UTF-8"?>
<svg xmlns="http://www.w3.org/2000/svg" version="1.1" width="200" height="200" viewBox="0 0 200 200"><rect x="0" y="0" width="200" height="200" fill="#ffffff"/><g transform="scale(4.878)"><g transform="translate(0,0)"><path fill-rule="evenodd" d="M8 0L8 3L9 3L9 0ZM11 0L11 1L10 1L10 2L11 2L11 3L10 3L10 4L9 4L9 5L8 5L8 9L7 9L7 8L6 8L6 9L7 9L7 10L6 10L6 11L4 11L4 9L5 9L5 8L2 8L2 9L1 9L1 10L0 10L0 14L1 14L1 10L2 10L2 11L3 11L3 12L2 12L2 15L3 15L3 13L4 13L4 14L6 14L6 15L7 15L7 16L6 16L6 17L5 17L5 18L6 18L6 19L4 19L4 20L5 20L5 21L4 21L4 24L3 24L3 25L1 25L1 26L3 26L3 27L2 27L2 28L3 28L3 31L2 31L2 32L3 32L3 31L4 31L4 28L3 28L3 27L5 27L5 26L4 26L4 25L5 25L5 23L7 23L7 24L6 24L6 25L7 25L7 24L8 24L8 26L10 26L10 25L11 25L11 27L12 27L12 28L11 28L11 29L10 29L10 32L11 32L11 33L10 33L10 34L9 34L9 30L8 30L8 31L7 31L7 30L6 30L6 29L7 29L7 28L8 28L8 29L9 29L9 27L7 27L7 26L6 26L6 27L7 27L7 28L5 28L5 31L7 31L7 32L5 32L5 33L8 33L8 34L9 34L9 36L8 36L8 39L9 39L9 40L10 40L10 39L11 39L11 40L12 40L12 39L11 39L11 38L10 38L10 39L9 39L9 37L10 37L10 36L11 36L11 37L13 37L13 41L16 41L16 40L14 40L14 39L15 39L15 38L16 38L16 37L18 37L18 38L19 38L19 37L18 37L18 36L19 36L19 35L17 35L17 34L18 34L18 33L20 33L20 32L21 32L21 33L22 33L22 34L21 34L21 35L20 35L20 37L21 37L21 38L23 38L23 39L17 39L17 40L18 40L18 41L19 41L19 40L20 40L20 41L22 41L22 40L23 40L23 39L25 39L25 40L24 40L24 41L27 41L27 40L28 40L28 39L30 39L30 38L31 38L31 40L33 40L33 41L34 41L34 40L33 40L33 39L35 39L35 40L36 40L36 39L37 39L37 40L40 40L40 38L41 38L41 37L40 37L40 36L41 36L41 35L40 35L40 34L41 34L41 33L40 33L40 30L41 30L41 29L39 29L39 32L38 32L38 31L36 31L36 32L33 32L33 31L32 31L32 30L33 30L33 29L34 29L34 28L33 28L33 27L34 27L34 26L35 26L35 25L36 25L36 27L37 27L37 28L38 28L38 26L39 26L39 28L41 28L41 27L40 27L40 26L41 26L41 23L39 23L39 24L40 24L40 26L39 26L39 25L36 25L36 24L37 24L37 23L38 23L38 21L39 21L39 20L38 20L38 19L37 19L37 20L36 20L36 19L35 19L35 17L36 17L36 18L38 18L38 17L39 17L39 16L37 16L37 15L38 15L38 14L39 14L39 15L40 15L40 14L41 14L41 13L40 13L40 14L39 14L39 13L38 13L38 14L37 14L37 13L36 13L36 15L35 15L35 17L34 17L34 16L32 16L32 17L30 17L30 16L29 16L29 15L28 15L28 16L29 16L29 17L30 17L30 19L31 19L31 20L30 20L30 21L29 21L29 19L28 19L28 18L27 18L27 17L26 17L26 19L25 19L25 17L24 17L24 19L25 19L25 21L26 21L26 22L25 22L25 23L26 23L26 22L27 22L27 25L24 25L24 20L22 20L22 21L23 21L23 23L22 23L22 22L21 22L21 18L22 18L22 19L23 19L23 17L21 17L21 16L22 16L22 15L23 15L23 16L24 16L24 14L25 14L25 16L26 16L26 14L25 14L25 13L24 13L24 11L23 11L23 13L22 13L22 14L21 14L21 13L20 13L20 11L18 11L18 10L21 10L21 12L22 12L22 10L21 10L21 8L20 8L20 7L21 7L21 6L22 6L22 9L23 9L23 10L24 10L24 9L25 9L25 10L26 10L26 9L29 9L29 10L30 10L30 11L31 11L31 10L33 10L33 9L34 9L34 11L33 11L33 12L29 12L29 11L28 11L28 10L27 10L27 11L26 11L26 12L27 12L27 14L30 14L30 15L31 15L31 13L33 13L33 14L32 14L32 15L34 15L34 13L35 13L35 12L38 12L38 11L40 11L40 12L41 12L41 11L40 11L40 10L41 10L41 8L38 8L38 9L40 9L40 10L37 10L37 9L36 9L36 8L33 8L33 9L31 9L31 8L32 8L32 7L33 7L33 6L32 6L32 7L31 7L31 6L30 6L30 7L31 7L31 8L27 8L27 6L28 6L28 7L29 7L29 6L28 6L28 5L27 5L27 4L26 4L26 5L25 5L25 4L24 4L24 3L25 3L25 0L22 0L22 1L20 1L20 0L19 0L19 2L18 2L18 4L14 4L14 3L16 3L16 2L17 2L17 1L16 1L16 2L15 2L15 1L13 1L13 0ZM26 0L26 1L27 1L27 2L26 2L26 3L28 3L28 4L29 4L29 3L32 3L32 4L30 4L30 5L32 5L32 4L33 4L33 3L32 3L32 2L33 2L33 1L32 1L32 0L31 0L31 1L32 1L32 2L30 2L30 0L29 0L29 1L27 1L27 0ZM12 1L12 4L13 4L13 3L14 3L14 2L13 2L13 1ZM22 1L22 2L23 2L23 3L21 3L21 4L20 4L20 2L19 2L19 4L18 4L18 5L19 5L19 7L18 7L18 6L17 6L17 7L18 7L18 9L16 9L16 8L15 8L15 9L16 9L16 11L17 11L17 12L15 12L15 10L14 10L14 11L13 11L13 9L14 9L14 5L11 5L11 7L10 7L10 6L9 6L9 8L10 8L10 9L9 9L9 12L7 12L7 11L6 11L6 12L5 12L5 13L6 13L6 14L7 14L7 15L10 15L10 12L12 12L12 13L11 13L11 14L12 14L12 15L11 15L11 16L10 16L10 18L11 18L11 16L12 16L12 15L13 15L13 14L12 14L12 13L13 13L13 12L14 12L14 13L17 13L17 12L18 12L18 13L19 13L19 14L17 14L17 16L16 16L16 14L14 14L14 15L15 15L15 16L13 16L13 17L12 17L12 18L14 18L14 19L13 19L13 20L12 20L12 19L10 19L10 20L12 20L12 21L14 21L14 19L15 19L15 21L16 21L16 19L15 19L15 17L18 17L18 18L19 18L19 17L20 17L20 15L19 15L19 14L20 14L20 13L19 13L19 12L18 12L18 11L17 11L17 10L18 10L18 9L20 9L20 8L19 8L19 7L20 7L20 6L21 6L21 4L22 4L22 6L23 6L23 7L24 7L24 6L25 6L25 8L26 8L26 6L27 6L27 5L26 5L26 6L25 6L25 5L24 5L24 4L23 4L23 3L24 3L24 1ZM19 4L19 5L20 5L20 4ZM12 6L12 8L13 8L13 6ZM15 6L15 7L16 7L16 6ZM2 9L2 10L3 10L3 9ZM30 9L30 10L31 10L31 9ZM35 9L35 11L37 11L37 10L36 10L36 9ZM10 10L10 11L12 11L12 10ZM6 12L6 13L7 13L7 12ZM28 12L28 13L29 13L29 12ZM33 12L33 13L34 13L34 12ZM23 13L23 14L24 14L24 13ZM18 15L18 16L19 16L19 15ZM0 16L0 19L1 19L1 17L3 17L3 16ZM7 16L7 17L6 17L6 18L8 18L8 19L9 19L9 18L8 18L8 16ZM36 16L36 17L37 17L37 16ZM40 16L40 18L39 18L39 19L40 19L40 18L41 18L41 16ZM32 17L32 18L31 18L31 19L32 19L32 20L31 20L31 21L30 21L30 22L29 22L29 21L27 21L27 22L29 22L29 24L30 24L30 22L31 22L31 23L32 23L32 24L31 24L31 25L30 25L30 26L29 26L29 25L27 25L27 26L28 26L28 27L27 27L27 28L26 28L26 27L25 27L25 28L23 28L23 29L22 29L22 28L21 28L21 26L23 26L23 27L24 27L24 26L23 26L23 25L21 25L21 26L20 26L20 27L18 27L18 26L19 26L19 25L18 25L18 24L22 24L22 23L21 23L21 22L20 22L20 23L19 23L19 22L18 22L18 21L20 21L20 20L17 20L17 22L15 22L15 23L16 23L16 25L15 25L15 24L14 24L14 25L13 25L13 23L10 23L10 21L8 21L8 22L7 22L7 21L5 21L5 22L7 22L7 23L8 23L8 24L11 24L11 25L13 25L13 26L12 26L12 27L13 27L13 28L14 28L14 29L13 29L13 30L14 30L14 32L13 32L13 31L11 31L11 32L13 32L13 33L14 33L14 34L12 34L12 33L11 33L11 34L10 34L10 35L11 35L11 36L13 36L13 37L14 37L14 38L15 38L15 37L16 37L16 36L17 36L17 35L16 35L16 33L14 33L14 32L15 32L15 31L16 31L16 32L17 32L17 31L18 31L18 32L19 32L19 31L21 31L21 32L22 32L22 31L23 31L23 32L24 32L24 30L25 30L25 29L26 29L26 30L27 30L27 28L31 28L31 29L28 29L28 30L29 30L29 31L28 31L28 33L26 33L26 31L25 31L25 33L24 33L24 34L26 34L26 35L25 35L25 36L23 36L23 37L25 37L25 38L26 38L26 37L25 37L25 36L26 36L26 35L27 35L27 34L28 34L28 35L29 35L29 34L28 34L28 33L29 33L29 32L31 32L31 30L32 30L32 29L33 29L33 28L32 28L32 27L33 27L33 25L35 25L35 24L36 24L36 23L35 23L35 22L36 22L36 21L35 21L35 19L34 19L34 18L33 18L33 17ZM32 18L32 19L33 19L33 18ZM2 19L2 20L1 20L1 21L2 21L2 23L1 23L1 22L0 22L0 24L2 24L2 23L3 23L3 19ZM6 19L6 20L7 20L7 19ZM26 19L26 20L28 20L28 19ZM32 20L32 21L31 21L31 22L32 22L32 21L34 21L34 22L35 22L35 21L34 21L34 20ZM37 20L37 21L38 21L38 20ZM40 20L40 21L41 21L41 20ZM8 22L8 23L9 23L9 22ZM17 23L17 24L18 24L18 23ZM33 23L33 24L32 24L32 25L31 25L31 26L32 26L32 25L33 25L33 24L34 24L34 23ZM14 25L14 26L13 26L13 27L14 27L14 26L15 26L15 25ZM16 25L16 26L17 26L17 25ZM17 27L17 28L15 28L15 29L14 29L14 30L15 30L15 29L16 29L16 30L17 30L17 28L18 28L18 29L19 29L19 30L21 30L21 31L22 31L22 30L21 30L21 29L19 29L19 28L18 28L18 27ZM0 28L0 33L1 33L1 28ZM35 28L35 29L36 29L36 30L37 30L37 29L36 29L36 28ZM23 29L23 30L24 30L24 29ZM34 30L34 31L35 31L35 30ZM37 32L37 34L38 34L38 35L37 35L37 36L40 36L40 35L39 35L39 33L38 33L38 32ZM30 33L30 35L31 35L31 34L32 34L32 33ZM33 33L33 36L36 36L36 33ZM14 34L14 35L13 35L13 36L16 36L16 35L15 35L15 34ZM34 34L34 35L35 35L35 34ZM21 35L21 36L22 36L22 35ZM29 36L29 37L27 37L27 38L30 38L30 37L31 37L31 38L32 38L32 39L33 39L33 38L36 38L36 37L32 37L32 36ZM37 38L37 39L38 39L38 38ZM29 40L29 41L30 41L30 40ZM0 0L0 7L7 7L7 0ZM1 1L1 6L6 6L6 1ZM2 2L2 5L5 5L5 2ZM34 0L34 7L41 7L41 0ZM35 1L35 6L40 6L40 1ZM36 2L36 5L39 5L39 2ZM0 34L0 41L7 41L7 34ZM1 35L1 40L6 40L6 35ZM2 36L2 39L5 39L5 36Z" fill="#000000"/></g></g></svg>
