<?xml version="1.0" encoding="UTF-8"?>
<svg xmlns="http://www.w3.org/2000/svg" version="1.1" width="200" height="200" viewBox="0 0 200 200"><rect x="0" y="0" width="200" height="200" fill="#ffffff"/><g transform="scale(6.897)"><g transform="translate(0,0)"><path fill-rule="evenodd" d="M9 0L9 2L11 2L11 3L10 3L10 4L12 4L12 7L11 7L11 5L9 5L9 4L8 4L8 5L9 5L9 6L8 6L8 8L6 8L6 9L7 9L7 10L6 10L6 11L5 11L5 9L4 9L4 8L2 8L2 9L4 9L4 11L3 11L3 10L2 10L2 12L1 12L1 14L3 14L3 15L4 15L4 16L2 16L2 15L1 15L1 18L0 18L0 19L1 19L1 18L3 18L3 17L4 17L4 16L5 16L5 14L6 14L6 15L7 15L7 16L6 16L6 17L5 17L5 18L6 18L6 19L8 19L8 17L9 17L9 19L10 19L10 20L9 20L9 21L8 21L8 23L9 23L9 24L10 24L10 25L11 25L11 27L12 27L12 26L13 26L13 25L14 25L14 27L13 27L13 28L12 28L12 29L14 29L14 27L15 27L15 24L16 24L16 22L17 22L17 25L16 25L16 27L18 27L18 28L17 28L17 29L18 29L18 28L19 28L19 29L20 29L20 28L19 28L19 26L20 26L20 25L23 25L23 26L24 26L24 27L22 27L22 29L23 29L23 28L25 28L25 29L26 29L26 26L24 26L24 25L26 25L26 23L25 23L25 22L26 22L26 20L24 20L24 19L25 19L25 18L24 18L24 19L22 19L22 18L23 18L23 17L24 17L24 16L25 16L25 17L26 17L26 19L27 19L27 18L29 18L29 17L26 17L26 16L25 16L25 15L24 15L24 16L23 16L23 17L21 17L21 18L20 18L20 17L19 17L19 16L18 16L18 14L19 14L19 15L20 15L20 14L21 14L21 13L20 13L20 12L22 12L22 9L23 9L23 13L22 13L22 15L23 15L23 14L24 14L24 13L25 13L25 14L26 14L26 15L27 15L27 13L28 13L28 12L29 12L29 11L28 11L28 12L27 12L27 11L26 11L26 10L29 10L29 9L25 9L25 8L24 8L24 9L23 9L23 8L21 8L21 3L20 3L20 2L18 2L18 1L17 1L17 0L16 0L16 1L15 1L15 0L13 0L13 1L14 1L14 2L13 2L13 3L12 3L12 1L11 1L11 0ZM16 1L16 2L15 2L15 4L14 4L14 3L13 3L13 4L14 4L14 6L13 6L13 7L12 7L12 8L11 8L11 7L10 7L10 6L9 6L9 8L11 8L11 9L10 9L10 10L9 10L9 11L8 11L8 10L7 10L7 11L6 11L6 12L5 12L5 13L4 13L4 12L2 12L2 13L4 13L4 14L5 14L5 13L6 13L6 14L8 14L8 15L10 15L10 18L12 18L12 20L11 20L11 21L12 21L12 20L13 20L13 22L12 22L12 23L11 23L11 22L10 22L10 24L12 24L12 23L13 23L13 24L14 24L14 22L16 22L16 21L17 21L17 22L19 22L19 23L20 23L20 21L18 21L18 20L20 20L20 18L17 18L17 17L18 17L18 16L16 16L16 14L18 14L18 13L17 13L17 11L19 11L19 12L20 12L20 11L19 11L19 10L20 10L20 9L21 9L21 8L19 8L19 7L20 7L20 5L19 5L19 4L20 4L20 3L19 3L19 4L18 4L18 2L17 2L17 1ZM16 3L16 4L17 4L17 3ZM15 5L15 6L14 6L14 7L15 7L15 8L16 8L16 10L15 10L15 9L13 9L13 8L12 8L12 9L11 9L11 10L13 10L13 11L15 11L15 12L13 12L13 13L12 13L12 14L10 14L10 15L11 15L11 17L12 17L12 18L14 18L14 17L12 17L12 15L13 15L13 16L15 16L15 14L16 14L16 13L15 13L15 12L16 12L16 10L19 10L19 8L18 8L18 9L17 9L17 6L18 6L18 7L19 7L19 5ZM15 6L15 7L16 7L16 6ZM24 9L24 10L25 10L25 9ZM0 10L0 11L1 11L1 10ZM7 11L7 12L6 12L6 13L8 13L8 14L9 14L9 13L11 13L11 12L12 12L12 11L9 11L9 12L8 12L8 11ZM25 11L25 13L27 13L27 12L26 12L26 11ZM13 13L13 15L14 15L14 14L15 14L15 13ZM19 13L19 14L20 14L20 13ZM28 14L28 15L29 15L29 14ZM7 16L7 17L6 17L6 18L7 18L7 17L8 17L8 16ZM16 18L16 19L17 19L17 20L18 20L18 19L17 19L17 18ZM3 19L3 20L5 20L5 21L7 21L7 20L5 20L5 19ZM14 19L14 21L16 21L16 20L15 20L15 19ZM21 19L21 20L22 20L22 19ZM1 20L1 21L2 21L2 20ZM27 20L27 21L28 21L28 22L27 22L27 24L29 24L29 23L28 23L28 22L29 22L29 21L28 21L28 20ZM21 21L21 24L24 24L24 21ZM22 22L22 23L23 23L23 22ZM19 24L19 25L20 25L20 24ZM8 25L8 27L9 27L9 29L11 29L11 28L10 28L10 26L9 26L9 25ZM28 26L28 27L27 27L27 28L29 28L29 26ZM0 0L0 7L7 7L7 0ZM1 1L1 6L6 6L6 1ZM2 2L2 5L5 5L5 2ZM22 0L22 7L29 7L29 0ZM23 1L23 6L28 6L28 1ZM24 2L24 5L27 5L27 2ZM0 22L0 29L7 29L7 22ZM1 23L1 28L6 28L6 23ZM2 24L2 27L5 27L5 24Z" fill="#000000"/></g></g></svg>
