<?xml version="1.0" encoding="UTF-8"?>
<svg xmlns="http://www.w3.org/2000/svg" version="1.1" width="200" height="200" viewBox="0 0 200 200"><rect x="0" y="0" width="200" height="200" fill="#ffffff"/><g transform="scale(4.878)"><g transform="translate(0,0)"><path fill-rule="evenodd" d="M8 0L8 3L9 3L9 4L10 4L10 5L13 5L13 6L12 6L12 7L11 7L11 6L10 6L10 7L11 7L11 8L12 8L12 7L13 7L13 9L12 9L12 10L11 10L11 12L9 12L9 10L10 10L10 9L9 9L9 5L8 5L8 10L6 10L6 9L7 9L7 8L6 8L6 9L5 9L5 8L2 8L2 9L4 9L4 10L3 10L3 11L2 11L2 12L3 12L3 13L1 13L1 11L0 11L0 13L1 13L1 14L0 14L0 15L1 15L1 16L0 16L0 19L1 19L1 20L0 20L0 21L3 21L3 22L4 22L4 21L3 21L3 19L4 19L4 20L5 20L5 22L6 22L6 23L5 23L5 25L4 25L4 23L2 23L2 22L1 22L1 23L2 23L2 25L0 25L0 26L2 26L2 27L3 27L3 28L1 28L1 27L0 27L0 28L1 28L1 29L0 29L0 33L1 33L1 29L3 29L3 30L2 30L2 32L3 32L3 31L9 31L9 32L8 32L8 34L9 34L9 32L11 32L11 33L12 33L12 32L14 32L14 34L13 34L13 36L11 36L11 34L10 34L10 35L9 35L9 36L8 36L8 39L9 39L9 36L11 36L11 37L10 37L10 40L11 40L11 38L12 38L12 37L13 37L13 38L15 38L15 39L13 39L13 40L12 40L12 41L16 41L16 40L17 40L17 41L18 41L18 40L22 40L22 39L21 39L21 38L22 38L22 37L21 37L21 36L22 36L22 35L21 35L21 36L20 36L20 34L21 34L21 33L20 33L20 31L21 31L21 30L20 30L20 29L22 29L22 28L21 28L21 27L22 27L22 26L23 26L23 25L24 25L24 27L23 27L23 28L24 28L24 29L23 29L23 30L25 30L25 31L22 31L22 32L24 32L24 35L23 35L23 36L26 36L26 37L25 37L25 38L26 38L26 39L25 39L25 40L24 40L24 39L23 39L23 40L24 40L24 41L27 41L27 40L28 40L28 38L27 38L27 37L29 37L29 35L28 35L28 34L26 34L26 33L25 33L25 31L27 31L27 30L29 30L29 31L28 31L28 33L30 33L30 35L32 35L32 37L31 37L31 36L30 36L30 37L31 37L31 38L32 38L32 37L36 37L36 38L33 38L33 39L32 39L32 40L31 40L31 39L30 39L30 38L29 38L29 39L30 39L30 40L29 40L29 41L30 41L30 40L31 40L31 41L32 41L32 40L33 40L33 41L34 41L34 40L33 40L33 39L35 39L35 40L36 40L36 39L39 39L39 40L40 40L40 38L41 38L41 37L40 37L40 36L41 36L41 35L40 35L40 34L41 34L41 33L39 33L39 32L40 32L40 30L41 30L41 29L40 29L40 28L41 28L41 27L40 27L40 26L41 26L41 23L40 23L40 26L39 26L39 24L37 24L37 25L36 25L36 23L34 23L34 22L36 22L36 21L37 21L37 20L38 20L38 21L39 21L39 20L38 20L38 19L40 19L40 18L41 18L41 16L40 16L40 18L38 18L38 17L39 17L39 16L38 16L38 15L36 15L36 14L37 14L37 13L36 13L36 14L35 14L35 17L34 17L34 16L33 16L33 15L34 15L34 14L33 14L33 13L34 13L34 12L33 12L33 13L32 13L32 14L31 14L31 12L32 12L32 11L31 11L31 12L28 12L28 11L30 11L30 10L29 10L29 9L31 9L31 10L32 10L32 9L34 9L34 10L33 10L33 11L34 11L34 10L35 10L35 11L37 11L37 12L38 12L38 11L39 11L39 12L40 12L40 10L41 10L41 8L38 8L38 9L40 9L40 10L37 10L37 9L36 9L36 8L33 8L33 5L32 5L32 4L33 4L33 3L32 3L32 2L33 2L33 0L30 0L30 2L31 2L31 3L30 3L30 4L29 4L29 1L27 1L27 0L22 0L22 2L23 2L23 1L24 1L24 2L25 2L25 3L24 3L24 4L23 4L23 3L21 3L21 4L17 4L17 5L16 5L16 4L14 4L14 2L15 2L15 3L16 3L16 2L17 2L17 0L16 0L16 1L14 1L14 0L11 0L11 1L12 1L12 3L11 3L11 4L10 4L10 2L9 2L9 1L10 1L10 0ZM18 0L18 2L19 2L19 1L21 1L21 0ZM31 1L31 2L32 2L32 1ZM26 2L26 3L25 3L25 4L24 4L24 6L23 6L23 7L22 7L22 5L23 5L23 4L21 4L21 5L18 5L18 6L17 6L17 7L16 7L16 5L15 5L15 8L17 8L17 9L16 9L16 10L17 10L17 11L15 11L15 9L14 9L14 10L13 10L13 11L15 11L15 12L14 12L14 13L12 13L12 14L13 14L13 16L12 16L12 15L11 15L11 16L10 16L10 14L11 14L11 13L9 13L9 14L8 14L8 13L6 13L6 12L8 12L8 11L6 11L6 10L4 10L4 12L5 12L5 13L4 13L4 14L1 14L1 15L3 15L3 16L2 16L2 18L1 18L1 19L3 19L3 17L4 17L4 19L6 19L6 20L8 20L8 21L6 21L6 22L7 22L7 23L6 23L6 24L7 24L7 23L8 23L8 26L7 26L7 25L5 25L5 26L7 26L7 27L5 27L5 28L7 28L7 29L6 29L6 30L7 30L7 29L8 29L8 30L9 30L9 31L10 31L10 30L12 30L12 31L11 31L11 32L12 32L12 31L13 31L13 30L12 30L12 29L13 29L13 28L12 28L12 27L13 27L13 26L15 26L15 25L16 25L16 23L17 23L17 22L18 22L18 25L17 25L17 28L16 28L16 27L15 27L15 28L14 28L14 32L15 32L15 28L16 28L16 29L17 29L17 30L19 30L19 31L17 31L17 33L15 33L15 35L14 35L14 36L16 36L16 38L17 38L17 39L20 39L20 38L21 38L21 37L19 37L19 36L18 36L18 35L19 35L19 34L20 34L20 33L19 33L19 34L17 34L17 33L18 33L18 32L19 32L19 31L20 31L20 30L19 30L19 29L17 29L17 28L20 28L20 25L21 25L21 26L22 26L22 25L23 25L23 24L24 24L24 25L25 25L25 27L27 27L27 26L29 26L29 27L28 27L28 29L29 29L29 30L30 30L30 31L29 31L29 32L30 32L30 33L32 33L32 32L35 32L35 31L37 31L37 30L38 30L38 32L37 32L37 33L38 33L38 34L37 34L37 36L39 36L39 35L38 35L38 34L39 34L39 33L38 33L38 32L39 32L39 28L40 28L40 27L39 27L39 26L38 26L38 28L36 28L36 29L34 29L34 28L33 28L33 27L34 27L34 25L35 25L35 27L36 27L36 25L35 25L35 24L34 24L34 23L33 23L33 24L32 24L32 22L34 22L34 21L36 21L36 20L37 20L37 19L38 19L38 18L36 18L36 17L38 17L38 16L36 16L36 17L35 17L35 19L34 19L34 18L33 18L33 17L32 17L32 18L30 18L30 19L31 19L31 20L29 20L29 19L27 19L27 20L26 20L26 21L27 21L27 22L28 22L28 24L31 24L31 25L30 25L30 26L29 26L29 25L26 25L26 24L27 24L27 23L26 23L26 22L25 22L25 21L24 21L24 20L25 20L25 19L26 19L26 18L29 18L29 16L30 16L30 17L31 17L31 16L30 16L30 15L31 15L31 14L30 14L30 13L28 13L28 12L27 12L27 10L28 10L28 9L29 9L29 8L31 8L31 9L32 9L32 8L31 8L31 7L32 7L32 5L31 5L31 4L32 4L32 3L31 3L31 4L30 4L30 5L29 5L29 4L28 4L28 3L27 3L27 2ZM26 3L26 4L27 4L27 3ZM13 4L13 5L14 5L14 4ZM27 5L27 6L26 6L26 7L27 7L27 6L28 6L28 7L29 7L29 6L28 6L28 5ZM30 5L30 7L31 7L31 5ZM13 6L13 7L14 7L14 6ZM18 6L18 9L21 9L21 8L19 8L19 6ZM20 6L20 7L21 7L21 6ZM24 6L24 8L22 8L22 9L24 9L24 10L23 10L23 11L22 11L22 10L21 10L21 11L22 11L22 12L23 12L23 14L22 14L22 13L18 13L18 12L17 12L17 14L22 14L22 16L20 16L20 15L16 15L16 16L15 16L15 20L14 20L14 19L12 19L12 16L11 16L11 18L10 18L10 16L8 16L8 15L7 15L7 14L4 14L4 16L5 16L5 17L7 17L7 18L6 18L6 19L7 19L7 18L8 18L8 19L9 19L9 18L10 18L10 20L9 20L9 21L8 21L8 23L9 23L9 25L11 25L11 24L10 24L10 22L9 22L9 21L11 21L11 23L12 23L12 26L9 26L9 28L8 28L8 29L11 29L11 27L12 27L12 26L13 26L13 25L15 25L15 24L13 24L13 23L12 23L12 22L13 22L13 21L14 21L14 22L15 22L15 23L16 23L16 20L17 20L17 21L18 21L18 22L19 22L19 20L17 20L17 19L16 19L16 16L17 16L17 17L18 17L18 18L22 18L22 19L21 19L21 20L20 20L20 21L21 21L21 22L22 22L22 24L21 24L21 23L19 23L19 25L18 25L18 27L19 27L19 25L20 25L20 24L21 24L21 25L22 25L22 24L23 24L23 23L24 23L24 22L23 22L23 21L22 21L22 19L23 19L23 20L24 20L24 18L26 18L26 17L25 17L25 16L24 16L24 15L25 15L25 14L24 14L24 12L25 12L25 11L26 11L26 10L25 10L25 6ZM26 8L26 9L28 9L28 8ZM35 9L35 10L36 10L36 9ZM19 10L19 11L20 11L20 10ZM24 10L24 11L25 11L25 10ZM15 12L15 13L16 13L16 12ZM26 12L26 14L27 14L27 17L28 17L28 15L29 15L29 14L28 14L28 13L27 13L27 12ZM38 13L38 14L41 14L41 13ZM32 14L32 15L33 15L33 14ZM6 15L6 16L7 16L7 17L8 17L8 16L7 16L7 15ZM13 16L13 17L14 17L14 16ZM18 16L18 17L19 17L19 16ZM23 16L23 17L24 17L24 16ZM11 19L11 21L13 21L13 20L12 20L12 19ZM35 19L35 20L36 20L36 19ZM27 20L27 21L29 21L29 22L30 22L30 23L31 23L31 22L32 22L32 21L34 21L34 20L31 20L31 21L29 21L29 20ZM40 20L40 21L41 21L41 20ZM38 22L38 23L39 23L39 22ZM25 23L25 24L26 24L26 23ZM33 24L33 25L31 25L31 26L32 26L32 27L33 27L33 25L34 25L34 24ZM3 25L3 27L4 27L4 25ZM3 28L3 29L4 29L4 28ZM29 28L29 29L31 29L31 28ZM32 28L32 29L33 29L33 30L32 30L32 31L33 31L33 30L34 30L34 31L35 31L35 30L34 30L34 29L33 29L33 28ZM25 29L25 30L26 30L26 29ZM36 29L36 30L37 30L37 29ZM30 31L30 32L31 32L31 31ZM5 32L5 33L7 33L7 32ZM22 33L22 34L23 34L23 33ZM33 33L33 36L36 36L36 33ZM16 34L16 35L17 35L17 34ZM34 34L34 35L35 35L35 34ZM26 35L26 36L28 36L28 35ZM17 36L17 38L19 38L19 37L18 37L18 36ZM38 37L38 38L39 38L39 37ZM26 39L26 40L27 40L27 39ZM0 0L0 7L7 7L7 0ZM1 1L1 6L6 6L6 1ZM2 2L2 5L5 5L5 2ZM34 0L34 7L41 7L41 0ZM35 1L35 6L40 6L40 1ZM36 2L36 5L39 5L39 2ZM0 34L0 41L7 41L7 34ZM1 35L1 40L6 40L6 35ZM2 36L2 39L5 39L5 36Z" fill="#000000"/></g></g></svg>
