<?xml version="1.0" encoding="UTF-8"?>
<svg xmlns="http://www.w3.org/2000/svg" version="1.1" width="200" height="200" viewBox="0 0 200 200"><rect x="0" y="0" width="200" height="200" fill="#ffffff"/><g transform="scale(6.897)"><g transform="translate(0,0)"><path fill-rule="evenodd" d="M9 0L9 2L8 2L8 4L9 4L9 6L8 6L8 7L9 7L9 8L10 8L10 9L11 9L11 11L9 11L9 9L8 9L8 8L6 8L6 9L5 9L5 8L3 8L3 9L2 9L2 10L0 10L0 14L2 14L2 15L4 15L4 14L3 14L3 12L1 12L1 11L3 11L3 9L5 9L5 10L4 10L4 11L5 11L5 12L4 12L4 13L5 13L5 12L6 12L6 13L9 13L9 16L8 16L8 14L5 14L5 16L6 16L6 17L4 17L4 16L0 16L0 21L4 21L4 19L5 19L5 21L8 21L8 23L10 23L10 24L8 24L8 26L9 26L9 25L10 25L10 24L11 24L11 23L12 23L12 22L13 22L13 24L12 24L12 25L13 25L13 26L12 26L12 27L14 27L14 28L13 28L13 29L14 29L14 28L15 28L15 29L20 29L20 28L21 28L21 29L23 29L23 28L24 28L24 29L28 29L28 28L25 28L25 27L26 27L26 25L29 25L29 22L28 22L28 21L26 21L26 20L27 20L27 18L28 18L28 19L29 19L29 17L28 17L28 16L29 16L29 14L28 14L28 13L29 13L29 11L28 11L28 10L27 10L27 11L26 11L26 10L25 10L25 12L24 12L24 16L23 16L23 12L22 12L22 11L21 11L21 10L19 10L19 9L17 9L17 8L19 8L19 6L20 6L20 7L21 7L21 4L19 4L19 3L20 3L20 1L21 1L21 0L19 0L19 1L18 1L18 0L15 0L15 1L14 1L14 0L12 0L12 1L10 1L10 0ZM16 1L16 2L13 2L13 3L14 3L14 4L13 4L13 5L12 5L12 4L11 4L11 3L12 3L12 2L11 2L11 3L10 3L10 2L9 2L9 4L11 4L11 5L10 5L10 6L9 6L9 7L10 7L10 8L11 8L11 7L12 7L12 6L13 6L13 7L14 7L14 8L12 8L12 9L14 9L14 10L12 10L12 11L11 11L11 12L10 12L10 16L9 16L9 17L11 17L11 18L10 18L10 19L12 19L12 20L8 20L8 21L13 21L13 22L15 22L15 23L14 23L14 24L15 24L15 23L16 23L16 21L18 21L18 22L17 22L17 25L14 25L14 27L15 27L15 28L16 28L16 26L17 26L17 25L18 25L18 26L19 26L19 28L20 28L20 27L21 27L21 26L22 26L22 28L23 28L23 27L25 27L25 26L24 26L24 25L19 25L19 24L20 24L20 21L18 21L18 20L17 20L17 19L16 19L16 18L18 18L18 17L19 17L19 18L20 18L20 19L21 19L21 20L22 20L22 19L21 19L21 16L20 16L20 15L21 15L21 14L22 14L22 12L21 12L21 14L20 14L20 15L18 15L18 11L17 11L17 9L15 9L15 7L16 7L16 6L15 6L15 5L14 5L14 4L16 4L16 5L17 5L17 7L18 7L18 6L19 6L19 4L18 4L18 3L19 3L19 2L18 2L18 1ZM16 3L16 4L17 4L17 3ZM11 5L11 6L10 6L10 7L11 7L11 6L12 6L12 5ZM14 6L14 7L15 7L15 6ZM25 8L25 9L27 9L27 8ZM6 9L6 10L7 10L7 9ZM22 9L22 10L23 10L23 11L24 11L24 9ZM15 10L15 11L13 11L13 13L12 13L12 14L11 14L11 17L12 17L12 19L13 19L13 20L14 20L14 19L13 19L13 18L14 18L14 16L15 16L15 17L18 17L18 15L17 15L17 13L14 13L14 12L15 12L15 11L16 11L16 12L17 12L17 11L16 11L16 10ZM6 11L6 12L9 12L9 11ZM27 11L27 12L28 12L28 11ZM19 12L19 13L20 13L20 12ZM25 13L25 16L26 16L26 17L27 17L27 16L28 16L28 14L27 14L27 16L26 16L26 13ZM12 14L12 16L14 16L14 15L15 15L15 16L17 16L17 15L16 15L16 14ZM6 15L6 16L7 16L7 17L6 17L6 18L5 18L5 19L6 19L6 20L7 20L7 19L8 19L8 18L7 18L7 17L8 17L8 16L7 16L7 15ZM22 16L22 17L23 17L23 16ZM2 18L2 20L3 20L3 18ZM6 18L6 19L7 19L7 18ZM25 18L25 19L23 19L23 20L26 20L26 18ZM15 19L15 21L16 21L16 19ZM21 21L21 24L24 24L24 21ZM22 22L22 23L23 23L23 22ZM25 22L25 25L26 25L26 24L28 24L28 23L27 23L27 22ZM10 26L10 28L11 28L11 26ZM27 26L27 27L29 27L29 26ZM0 0L0 7L7 7L7 0ZM1 1L1 6L6 6L6 1ZM2 2L2 5L5 5L5 2ZM22 0L22 7L29 7L29 0ZM23 1L23 6L28 6L28 1ZM24 2L24 5L27 5L27 2ZM0 22L0 29L7 29L7 22ZM1 23L1 28L6 28L6 23ZM2 24L2 27L5 27L5 24Z" fill="#000000"/></g></g></svg>
