<?xml version="1.0" encoding="UTF-8"?>
<svg xmlns="http://www.w3.org/2000/svg" version="1.1" width="200" height="200" viewBox="0 0 200 200"><rect x="0" y="0" width="200" height="200" fill="#ffffff"/><g transform="scale(4.878)"><g transform="translate(0,0)"><path fill-rule="evenodd" d="M16 0L16 1L17 1L17 0ZM18 0L18 1L19 1L19 2L20 2L20 3L19 3L19 4L20 4L20 5L17 5L17 6L16 6L16 4L15 4L15 3L16 3L16 2L15 2L15 1L13 1L13 2L11 2L11 1L10 1L10 3L9 3L9 5L8 5L8 8L4 8L4 9L2 9L2 10L3 10L3 11L4 11L4 10L6 10L6 11L7 11L7 12L6 12L6 13L5 13L5 12L4 12L4 13L5 13L5 14L4 14L4 15L5 15L5 16L6 16L6 17L10 17L10 18L9 18L9 19L10 19L10 21L11 21L11 23L10 23L10 22L8 22L8 23L10 23L10 24L11 24L11 25L9 25L9 24L8 24L8 25L7 25L7 24L6 24L6 23L7 23L7 22L6 22L6 21L7 21L7 20L6 20L6 21L5 21L5 20L3 20L3 18L4 18L4 19L8 19L8 18L4 18L4 16L3 16L3 15L1 15L1 14L3 14L3 12L2 12L2 13L1 13L1 10L0 10L0 17L1 17L1 18L2 18L2 19L1 19L1 20L0 20L0 21L1 21L1 23L0 23L0 24L1 24L1 26L0 26L0 28L1 28L1 27L2 27L2 24L4 24L4 25L3 25L3 26L4 26L4 25L5 25L5 27L3 27L3 28L4 28L4 29L3 29L3 30L4 30L4 29L5 29L5 28L6 28L6 29L7 29L7 30L6 30L6 31L8 31L8 32L6 32L6 33L8 33L8 37L9 37L9 39L10 39L10 36L9 36L9 35L10 35L10 34L11 34L11 35L12 35L12 36L13 36L13 34L14 34L14 36L15 36L15 37L14 37L14 38L13 38L13 39L11 39L11 41L14 41L14 40L15 40L15 41L16 41L16 39L17 39L17 40L18 40L18 41L20 41L20 40L19 40L19 37L20 37L20 39L21 39L21 38L22 38L22 39L23 39L23 38L22 38L22 37L25 37L25 36L26 36L26 35L27 35L27 36L28 36L28 37L27 37L27 41L28 41L28 40L29 40L29 41L30 41L30 39L31 39L31 41L33 41L33 39L34 39L34 40L35 40L35 39L34 39L34 37L36 37L36 38L37 38L37 39L36 39L36 40L37 40L37 41L40 41L40 40L41 40L41 37L40 37L40 36L41 36L41 33L40 33L40 32L41 32L41 29L40 29L40 30L39 30L39 28L38 28L38 26L37 26L37 25L36 25L36 24L37 24L37 23L38 23L38 22L40 22L40 23L41 23L41 22L40 22L40 21L41 21L41 13L40 13L40 16L39 16L39 17L38 17L38 14L39 14L39 12L38 12L38 11L41 11L41 9L40 9L40 8L39 8L39 9L36 9L36 8L34 8L34 10L33 10L33 9L32 9L32 10L33 10L33 11L34 11L34 12L35 12L35 11L37 11L37 13L36 13L36 14L34 14L34 13L33 13L33 12L32 12L32 11L31 11L31 9L30 9L30 7L31 7L31 6L32 6L32 7L33 7L33 2L32 2L32 1L33 1L33 0L32 0L32 1L30 1L30 2L29 2L29 1L28 1L28 0L27 0L27 1L28 1L28 2L27 2L27 3L26 3L26 2L25 2L25 0L24 0L24 2L23 2L23 0L20 0L20 1L19 1L19 0ZM8 1L8 2L9 2L9 1ZM21 1L21 3L20 3L20 4L21 4L21 3L23 3L23 4L22 4L22 5L23 5L23 7L22 7L22 6L21 6L21 8L20 8L20 6L19 6L19 7L18 7L18 6L17 6L17 8L16 8L16 9L15 9L15 11L16 11L16 12L14 12L14 14L15 14L15 16L14 16L14 15L13 15L13 16L14 16L14 18L15 18L15 20L18 20L18 19L19 19L19 21L17 21L17 22L16 22L16 23L15 23L15 26L14 26L14 25L13 25L13 26L12 26L12 27L11 27L11 26L9 26L9 25L8 25L8 28L7 28L7 27L6 27L6 28L7 28L7 29L8 29L8 30L9 30L9 34L10 34L10 31L11 31L11 33L12 33L12 34L13 34L13 33L14 33L14 34L15 34L15 35L16 35L16 34L17 34L17 35L18 35L18 36L16 36L16 37L15 37L15 38L14 38L14 39L13 39L13 40L14 40L14 39L15 39L15 38L16 38L16 37L17 37L17 38L18 38L18 36L20 36L20 37L21 37L21 36L20 36L20 35L21 35L21 33L20 33L20 31L22 31L22 32L24 32L24 33L23 33L23 35L24 35L24 36L25 36L25 31L26 31L26 30L27 30L27 32L29 32L29 31L28 31L28 29L29 29L29 30L31 30L31 32L30 32L30 33L28 33L28 34L30 34L30 35L31 35L31 36L32 36L32 35L31 35L31 34L32 34L32 33L31 33L31 32L34 32L34 31L37 31L37 33L38 33L38 34L37 34L37 37L39 37L39 38L40 38L40 37L39 37L39 34L40 34L40 33L39 33L39 30L38 30L38 31L37 31L37 30L36 30L36 29L37 29L37 26L36 26L36 25L35 25L35 24L36 24L36 23L35 23L35 24L34 24L34 22L33 22L33 23L32 23L32 21L36 21L36 22L38 22L38 21L39 21L39 20L40 20L40 17L39 17L39 18L38 18L38 17L37 17L37 16L36 16L36 17L35 17L35 16L34 16L34 15L33 15L33 13L32 13L32 15L33 15L33 16L30 16L30 17L31 17L31 19L30 19L30 18L29 18L29 16L27 16L27 15L26 15L26 11L25 11L25 14L24 14L24 10L25 10L25 9L24 9L24 8L25 8L25 7L26 7L26 6L27 6L27 7L28 7L28 6L29 6L29 7L30 7L30 5L32 5L32 3L30 3L30 5L26 5L26 3L25 3L25 2L24 2L24 3L23 3L23 2L22 2L22 1ZM17 2L17 4L18 4L18 2ZM28 2L28 3L27 3L27 4L28 4L28 3L29 3L29 2ZM10 3L10 5L9 5L9 8L8 8L8 10L7 10L7 9L6 9L6 10L7 10L7 11L8 11L8 10L9 10L9 12L8 12L8 13L6 13L6 14L7 14L7 15L6 15L6 16L7 16L7 15L8 15L8 14L10 14L10 17L12 17L12 18L10 18L10 19L12 19L12 18L13 18L13 17L12 17L12 16L11 16L11 14L12 14L12 13L11 13L11 14L10 14L10 13L9 13L9 12L10 12L10 10L9 10L9 9L10 9L10 5L11 5L11 8L12 8L12 9L11 9L11 12L13 12L13 9L14 9L14 8L15 8L15 7L16 7L16 6L15 6L15 5L14 5L14 3ZM24 3L24 4L23 4L23 5L24 5L24 7L25 7L25 6L26 6L26 5L24 5L24 4L25 4L25 3ZM13 5L13 6L12 6L12 7L13 7L13 8L14 8L14 7L15 7L15 6L14 6L14 5ZM13 6L13 7L14 7L14 6ZM17 8L17 9L18 9L18 12L23 12L23 10L24 10L24 9L23 9L23 8L21 8L21 11L20 11L20 10L19 10L19 8ZM28 8L28 9L29 9L29 10L30 10L30 9L29 9L29 8ZM16 10L16 11L17 11L17 10ZM27 11L27 14L28 14L28 15L29 15L29 14L30 14L30 13L28 13L28 11ZM30 11L30 12L31 12L31 11ZM16 12L16 15L17 15L17 16L16 16L16 17L17 17L17 18L19 18L19 19L21 19L21 20L20 20L20 21L19 21L19 22L20 22L20 24L21 24L21 21L22 21L22 22L23 22L23 20L24 20L24 19L25 19L25 20L27 20L27 19L28 19L28 17L26 17L26 19L25 19L25 18L20 18L20 17L19 17L19 16L21 16L21 17L24 17L24 16L25 16L25 15L23 15L23 13L22 13L22 16L21 16L21 15L19 15L19 14L18 14L18 13L17 13L17 12ZM20 13L20 14L21 14L21 13ZM36 14L36 15L37 15L37 14ZM2 16L2 17L3 17L3 16ZM17 16L17 17L18 17L18 16ZM32 17L32 19L31 19L31 21L30 21L30 22L29 22L29 23L28 23L28 21L29 21L29 20L28 20L28 21L24 21L24 23L25 23L25 22L26 22L26 24L23 24L23 23L22 23L22 24L23 24L23 25L19 25L19 24L17 24L17 23L16 23L16 24L17 24L17 25L19 25L19 26L18 26L18 27L20 27L20 26L24 26L24 25L25 25L25 27L24 27L24 29L25 29L25 28L26 28L26 29L27 29L27 28L29 28L29 29L31 29L31 30L32 30L32 31L33 31L33 29L36 29L36 26L35 26L35 25L33 25L33 24L31 24L31 23L30 23L30 22L31 22L31 21L32 21L32 20L33 20L33 17ZM34 17L34 18L35 18L35 19L34 19L34 20L35 20L35 19L36 19L36 21L37 21L37 19L38 19L38 18L37 18L37 17L36 17L36 18L35 18L35 17ZM13 19L13 20L11 20L11 21L12 21L12 22L13 22L13 23L11 23L11 24L13 24L13 23L14 23L14 22L15 22L15 21L13 21L13 20L14 20L14 19ZM2 20L2 21L3 21L3 22L2 22L2 23L1 23L1 24L2 24L2 23L3 23L3 22L5 22L5 23L6 23L6 22L5 22L5 21L3 21L3 20ZM27 23L27 25L26 25L26 27L27 27L27 25L28 25L28 27L29 27L29 25L28 25L28 23ZM30 24L30 25L31 25L31 27L32 27L32 29L33 29L33 27L34 27L34 28L35 28L35 26L33 26L33 25L31 25L31 24ZM39 24L39 27L41 27L41 24ZM6 25L6 26L7 26L7 25ZM15 26L15 27L13 27L13 28L12 28L12 29L11 29L11 30L12 30L12 31L13 31L13 29L14 29L14 28L15 28L15 27L16 27L16 29L15 29L15 30L14 30L14 31L15 31L15 32L14 32L14 33L17 33L17 34L18 34L18 35L19 35L19 34L18 34L18 33L19 33L19 32L18 32L18 30L19 30L19 29L18 29L18 30L17 30L17 27L16 27L16 26ZM32 26L32 27L33 27L33 26ZM9 27L9 28L8 28L8 29L10 29L10 28L11 28L11 27ZM21 27L21 28L20 28L20 30L22 30L22 31L25 31L25 30L22 30L22 27ZM0 29L0 30L1 30L1 29ZM16 30L16 31L17 31L17 30ZM2 31L2 32L0 32L0 33L5 33L5 32L4 32L4 31ZM30 33L30 34L31 34L31 33ZM33 33L33 36L36 36L36 33ZM34 34L34 35L35 35L35 34ZM28 35L28 36L29 36L29 37L28 37L28 38L31 38L31 39L32 39L32 38L31 38L31 37L30 37L30 36L29 36L29 35ZM11 37L11 38L12 38L12 37ZM24 39L24 40L23 40L23 41L25 41L25 39ZM37 39L37 40L39 40L39 39ZM0 0L0 7L7 7L7 0ZM1 1L1 6L6 6L6 1ZM2 2L2 5L5 5L5 2ZM34 0L34 7L41 7L41 0ZM35 1L35 6L40 6L40 1ZM36 2L36 5L39 5L39 2ZM0 34L0 41L7 41L7 34ZM1 35L1 40L6 40L6 35ZM2 36L2 39L5 39L5 36Z" fill="#000000"/></g></g></svg>
