<?xml version="1.0" encoding="UTF-8"?>
<svg xmlns="http://www.w3.org/2000/svg" version="1.1" width="200" height="200" viewBox="0 0 200 200"><rect x="0" y="0" width="200" height="200" fill="#ffffff"/><g transform="scale(6.897)"><g transform="translate(0,0)"><path fill-rule="evenodd" d="M9 0L9 1L8 1L8 7L9 7L9 8L5 8L5 9L3 9L3 8L2 8L2 10L5 10L5 11L2 11L2 12L0 12L0 14L1 14L1 13L3 13L3 12L4 12L4 13L5 13L5 11L7 11L7 10L6 10L6 9L8 9L8 10L9 10L9 9L10 9L10 11L9 11L9 12L6 12L6 13L7 13L7 14L6 14L6 15L7 15L7 16L5 16L5 17L9 17L9 18L6 18L6 19L5 19L5 18L4 18L4 16L3 16L3 15L4 15L4 14L3 14L3 15L2 15L2 17L3 17L3 18L0 18L0 19L2 19L2 20L0 20L0 21L2 21L2 20L3 20L3 21L4 21L4 19L5 19L5 20L6 20L6 21L8 21L8 24L10 24L10 27L11 27L11 28L10 28L10 29L12 29L12 28L13 28L13 27L15 27L15 25L16 25L16 26L18 26L18 27L17 27L17 29L19 29L19 28L18 28L18 27L19 27L19 26L20 26L20 27L21 27L21 29L22 29L22 28L24 28L24 29L29 29L29 26L27 26L27 27L28 27L28 28L24 28L24 26L23 26L23 27L22 27L22 26L21 26L21 25L25 25L25 26L26 26L26 25L29 25L29 24L26 24L26 25L25 25L25 23L26 23L26 21L27 21L27 23L28 23L28 22L29 22L29 21L27 21L27 19L26 19L26 18L28 18L28 19L29 19L29 18L28 18L28 17L29 17L29 16L27 16L27 17L25 17L25 16L22 16L22 15L25 15L25 14L26 14L26 13L29 13L29 12L27 12L27 11L29 11L29 9L28 9L28 8L23 8L23 10L22 10L22 11L21 11L21 9L22 9L22 8L21 8L21 0L19 0L19 1L20 1L20 2L19 2L19 3L20 3L20 5L17 5L17 4L16 4L16 3L15 3L15 2L14 2L14 3L13 3L13 2L11 2L11 0ZM13 0L13 1L18 1L18 0ZM9 2L9 7L10 7L10 9L15 9L15 10L14 10L14 11L15 11L15 12L14 12L14 14L13 14L13 10L11 10L11 11L10 11L10 14L11 14L11 15L14 15L14 16L13 16L13 17L11 17L11 16L9 16L9 17L11 17L11 18L10 18L10 19L12 19L12 18L13 18L13 20L9 20L9 19L6 19L6 20L9 20L9 22L11 22L11 21L12 21L12 23L13 23L13 22L14 22L14 19L15 19L15 23L16 23L16 24L17 24L17 25L18 25L18 26L19 26L19 25L18 25L18 24L17 24L17 23L18 23L18 21L17 21L17 20L16 20L16 19L15 19L15 18L17 18L17 16L16 16L16 14L15 14L15 12L16 12L16 13L18 13L18 14L22 14L22 12L21 12L21 13L20 13L20 12L19 12L19 11L20 11L20 8L19 8L19 7L20 7L20 6L19 6L19 7L18 7L18 6L17 6L17 5L16 5L16 6L15 6L15 7L14 7L14 6L13 6L13 7L12 7L12 4L13 4L13 5L14 5L14 4L13 4L13 3L11 3L11 4L10 4L10 2ZM17 2L17 3L18 3L18 2ZM10 6L10 7L11 7L11 8L12 8L12 7L11 7L11 6ZM16 6L16 7L15 7L15 9L16 9L16 8L17 8L17 10L16 10L16 11L17 11L17 12L18 12L18 13L19 13L19 12L18 12L18 11L19 11L19 10L18 10L18 7L17 7L17 6ZM0 9L0 11L1 11L1 9ZM25 9L25 10L24 10L24 11L27 11L27 10L28 10L28 9ZM11 11L11 13L12 13L12 11ZM23 12L23 14L25 14L25 13L24 13L24 12ZM27 14L27 15L29 15L29 14ZM0 15L0 17L1 17L1 15ZM19 15L19 16L18 16L18 17L19 17L19 18L20 18L20 19L18 19L18 20L22 20L22 19L21 19L21 15ZM15 16L15 17L13 17L13 18L15 18L15 17L16 17L16 16ZM19 16L19 17L20 17L20 16ZM22 17L22 18L25 18L25 17ZM3 18L3 19L4 19L4 18ZM23 19L23 20L24 20L24 19ZM19 21L19 22L20 22L20 21ZM21 21L21 24L24 24L24 21ZM22 22L22 23L23 23L23 22ZM19 23L19 24L20 24L20 23ZM11 24L11 25L12 25L12 26L11 26L11 27L13 27L13 26L14 26L14 24ZM8 26L8 27L9 27L9 26ZM15 28L15 29L16 29L16 28ZM0 0L0 7L7 7L7 0ZM1 1L1 6L6 6L6 1ZM2 2L2 5L5 5L5 2ZM22 0L22 7L29 7L29 0ZM23 1L23 6L28 6L28 1ZM24 2L24 5L27 5L27 2ZM0 22L0 29L7 29L7 22ZM1 23L1 28L6 28L6 23ZM2 24L2 27L5 27L5 24Z" fill="#000000"/></g></g></svg>
