<?xml version="1.0" encoding="UTF-8"?>
<svg xmlns="http://www.w3.org/2000/svg" version="1.1" width="200" height="200" viewBox="0 0 200 200"><rect x="0" y="0" width="200" height="200" fill="#ffffff"/><g transform="scale(4.878)"><g transform="translate(0,0)"><path fill-rule="evenodd" d="M10 0L10 1L8 1L8 2L9 2L9 3L10 3L10 2L11 2L11 4L12 4L12 8L11 8L11 5L10 5L10 4L9 4L9 5L8 5L8 8L4 8L4 10L3 10L3 9L1 9L1 10L0 10L0 11L1 11L1 13L0 13L0 15L1 15L1 17L2 17L2 18L0 18L0 19L1 19L1 20L2 20L2 18L3 18L3 17L2 17L2 16L4 16L4 13L3 13L3 15L1 15L1 13L2 13L2 10L3 10L3 11L5 11L5 12L6 12L6 13L7 13L7 14L6 14L6 15L5 15L5 16L6 16L6 17L5 17L5 18L4 18L4 20L3 20L3 22L2 22L2 21L0 21L0 26L2 26L2 27L1 27L1 28L2 28L2 29L0 29L0 30L2 30L2 32L0 32L0 33L3 33L3 32L4 32L4 33L5 33L5 32L6 32L6 33L8 33L8 37L9 37L9 40L11 40L11 41L17 41L17 40L19 40L19 39L17 39L17 40L13 40L13 39L15 39L15 38L16 38L16 36L18 36L18 37L17 37L17 38L19 38L19 37L20 37L20 40L21 40L21 41L22 41L22 40L24 40L24 39L25 39L25 40L26 40L26 41L27 41L27 39L28 39L28 41L31 41L31 39L30 39L30 38L32 38L32 37L33 37L33 39L32 39L32 41L33 41L33 39L34 39L34 40L35 40L35 39L34 39L34 37L36 37L36 38L37 38L37 35L38 35L38 34L39 34L39 36L40 36L40 35L41 35L41 33L40 33L40 32L39 32L39 33L38 33L38 30L39 30L39 31L41 31L41 29L40 29L40 27L41 27L41 24L40 24L40 23L41 23L41 22L40 22L40 21L41 21L41 13L39 13L39 12L38 12L38 11L41 11L41 9L40 9L40 8L39 8L39 9L36 9L36 8L34 8L34 10L37 10L37 11L35 11L35 12L34 12L34 11L33 11L33 13L31 13L31 12L30 12L30 11L31 11L31 10L28 10L28 9L32 9L32 10L33 10L33 9L32 9L32 8L31 8L31 6L32 6L32 7L33 7L33 6L32 6L32 5L31 5L31 3L32 3L32 2L33 2L33 1L31 1L31 0L29 0L29 1L28 1L28 0L27 0L27 1L26 1L26 0L25 0L25 1L24 1L24 0L23 0L23 1L22 1L22 0L17 0L17 3L20 3L20 8L19 8L19 10L20 10L20 11L21 11L21 10L22 10L22 13L17 13L17 12L16 12L16 14L14 14L14 13L13 13L13 10L12 10L12 8L13 8L13 3L14 3L14 4L16 4L16 5L14 5L14 10L15 10L15 9L16 9L16 11L17 11L17 10L18 10L18 9L17 9L17 5L18 5L18 7L19 7L19 4L16 4L16 2L14 2L14 1L16 1L16 0L14 0L14 1L13 1L13 2L12 2L12 0ZM19 1L19 2L20 2L20 3L21 3L21 2L20 2L20 1ZM23 1L23 2L22 2L22 3L23 3L23 2L24 2L24 1ZM27 1L27 2L28 2L28 3L26 3L26 2L25 2L25 5L24 5L24 4L22 4L22 5L23 5L23 7L22 7L22 6L21 6L21 7L22 7L22 9L24 9L24 10L25 10L25 11L27 11L27 12L24 12L24 11L23 11L23 13L22 13L22 14L24 14L24 15L25 15L25 16L24 16L24 20L23 20L23 17L22 17L22 15L21 15L21 14L19 14L19 16L18 16L18 14L17 14L17 16L15 16L15 17L14 17L14 14L13 14L13 13L12 13L12 12L10 12L10 10L11 10L11 11L12 11L12 10L11 10L11 8L8 8L8 10L9 10L9 12L8 12L8 11L6 11L6 10L7 10L7 9L5 9L5 11L6 11L6 12L7 12L7 13L9 13L9 12L10 12L10 14L7 14L7 15L6 15L6 16L7 16L7 15L8 15L8 16L9 16L9 17L8 17L8 20L7 20L7 19L6 19L6 18L7 18L7 17L6 17L6 18L5 18L5 19L6 19L6 20L7 20L7 21L4 21L4 24L9 24L9 23L8 23L8 20L9 20L9 21L10 21L10 26L13 26L13 27L12 27L12 28L11 28L11 27L10 27L10 28L9 28L9 30L8 30L8 27L9 27L9 25L8 25L8 27L6 27L6 26L7 26L7 25L6 25L6 26L5 26L5 27L4 27L4 25L3 25L3 24L2 24L2 22L1 22L1 24L2 24L2 25L3 25L3 30L4 30L4 29L5 29L5 27L6 27L6 28L7 28L7 29L6 29L6 30L5 30L5 31L6 31L6 32L7 32L7 31L6 31L6 30L8 30L8 31L10 31L10 29L11 29L11 30L13 30L13 27L15 27L15 26L13 26L13 25L14 25L14 21L13 21L13 23L11 23L11 21L12 21L12 17L11 17L11 16L13 16L13 17L14 17L14 18L15 18L15 19L14 19L14 20L15 20L15 23L16 23L16 24L15 24L15 25L16 25L16 24L19 24L19 22L18 22L18 20L20 20L20 19L19 19L19 18L22 18L22 20L21 20L21 22L20 22L20 23L21 23L21 24L20 24L20 28L19 28L19 29L20 29L20 30L21 30L21 29L25 29L25 31L24 31L24 30L23 30L23 31L20 31L20 32L21 32L21 33L22 33L22 34L23 34L23 35L24 35L24 32L26 32L26 30L28 30L28 31L31 31L31 30L30 30L30 29L31 29L31 28L33 28L33 29L32 29L32 31L33 31L33 32L34 32L34 31L36 31L36 32L37 32L37 30L36 30L36 29L37 29L37 28L36 28L36 29L35 29L35 28L34 28L34 27L32 27L32 25L35 25L35 26L36 26L36 27L37 27L37 26L38 26L38 28L39 28L39 25L37 25L37 24L39 24L39 23L40 23L40 22L39 22L39 23L37 23L37 22L36 22L36 21L35 21L35 20L36 20L36 19L35 19L35 18L36 18L36 17L37 17L37 15L38 15L38 17L39 17L39 18L37 18L37 19L38 19L38 21L39 21L39 20L40 20L40 17L39 17L39 16L40 16L40 15L38 15L38 14L36 14L36 13L37 13L37 12L35 12L35 13L33 13L33 14L35 14L35 15L36 15L36 17L35 17L35 16L34 16L34 15L32 15L32 14L31 14L31 15L30 15L30 16L32 16L32 17L29 17L29 15L28 15L28 13L29 13L29 14L30 14L30 13L29 13L29 11L27 11L27 10L25 10L25 9L27 9L27 8L25 8L25 7L26 7L26 6L27 6L27 7L28 7L28 6L29 6L29 7L30 7L30 6L31 6L31 5L30 5L30 4L29 4L29 3L31 3L31 1L30 1L30 2L28 2L28 1ZM27 4L27 5L28 5L28 4ZM9 5L9 7L10 7L10 5ZM15 6L15 7L16 7L16 6ZM24 6L24 7L25 7L25 6ZM20 8L20 10L21 10L21 8ZM24 8L24 9L25 9L25 8ZM9 9L9 10L10 10L10 9ZM18 11L18 12L19 12L19 11ZM25 13L25 15L26 15L26 16L27 16L27 19L26 19L26 18L25 18L25 20L24 20L24 22L23 22L23 23L26 23L26 25L25 25L25 24L24 24L24 26L26 26L26 28L25 28L25 29L26 29L26 28L28 28L28 29L30 29L30 28L31 28L31 26L30 26L30 25L32 25L32 24L33 24L33 23L30 23L30 22L28 22L28 21L29 21L29 20L30 20L30 21L32 21L32 22L34 22L34 24L35 24L35 25L36 25L36 26L37 26L37 25L36 25L36 23L35 23L35 21L32 21L32 19L30 19L30 18L28 18L28 16L27 16L27 13ZM11 14L11 15L13 15L13 14ZM9 15L9 16L10 16L10 15ZM19 16L19 17L21 17L21 16ZM10 17L10 18L11 18L11 17ZM15 17L15 18L16 18L16 19L15 19L15 20L16 20L16 21L17 21L17 20L18 20L18 17ZM32 17L32 18L33 18L33 17ZM34 17L34 18L35 18L35 17ZM9 19L9 20L10 20L10 21L11 21L11 19ZM27 19L27 20L26 20L26 21L28 21L28 20L29 20L29 19ZM34 19L34 20L35 20L35 19ZM5 22L5 23L7 23L7 22ZM26 22L26 23L27 23L27 22ZM21 24L21 28L20 28L20 29L21 29L21 28L23 28L23 27L22 27L22 26L23 26L23 24ZM28 24L28 25L29 25L29 24ZM17 25L17 26L16 26L16 27L17 27L17 28L18 28L18 27L19 27L19 26L18 26L18 25ZM17 26L17 27L18 27L18 26ZM28 26L28 27L29 27L29 26ZM14 28L14 29L15 29L15 30L14 30L14 31L15 31L15 32L13 32L13 33L12 33L12 32L11 32L11 33L10 33L10 32L9 32L9 36L10 36L10 34L13 34L13 33L14 33L14 35L11 35L11 37L10 37L10 39L13 39L13 36L14 36L14 38L15 38L15 36L16 36L16 35L17 35L17 31L18 31L18 30L17 30L17 29L16 29L16 28ZM33 29L33 30L34 30L34 29ZM39 29L39 30L40 30L40 29ZM15 30L15 31L16 31L16 30ZM23 31L23 32L24 32L24 31ZM15 32L15 34L16 34L16 32ZM27 32L27 33L26 33L26 34L25 34L25 36L22 36L22 35L21 35L21 34L20 34L20 33L18 33L18 34L19 34L19 35L20 35L20 36L22 36L22 39L21 39L21 40L22 40L22 39L23 39L23 37L24 37L24 38L25 38L25 39L27 39L27 37L28 37L28 38L29 38L29 37L31 37L31 36L32 36L32 35L30 35L30 34L32 34L32 32L31 32L31 33L30 33L30 34L29 34L29 35L28 35L28 36L27 36L27 33L29 33L29 32ZM33 33L33 36L36 36L36 33ZM37 33L37 34L38 34L38 33ZM39 33L39 34L40 34L40 33ZM34 34L34 35L35 35L35 34ZM14 35L14 36L15 36L15 35ZM26 36L26 37L25 37L25 38L26 38L26 37L27 37L27 36ZM28 36L28 37L29 37L29 36ZM40 37L40 38L38 38L38 39L36 39L36 40L37 40L37 41L40 41L40 40L41 40L41 37ZM0 0L0 7L7 7L7 0ZM1 1L1 6L6 6L6 1ZM2 2L2 5L5 5L5 2ZM34 0L34 7L41 7L41 0ZM35 1L35 6L40 6L40 1ZM36 2L36 5L39 5L39 2ZM0 34L0 41L7 41L7 34ZM1 35L1 40L6 40L6 35ZM2 36L2 39L5 39L5 36Z" fill="#000000"/></g></g></svg>
