<?xml version="1.0" encoding="UTF-8"?>
<svg xmlns="http://www.w3.org/2000/svg" version="1.1" width="200" height="200" viewBox="0 0 200 200"><rect x="0" y="0" width="200" height="200" fill="#ffffff"/><g transform="scale(6.897)"><g transform="translate(0,0)"><path fill-rule="evenodd" d="M9 0L9 2L8 2L8 4L9 4L9 2L10 2L10 3L11 3L11 1L10 1L10 0ZM12 0L12 2L15 2L15 1L14 1L14 0ZM17 0L17 1L18 1L18 2L19 2L19 3L18 3L18 4L19 4L19 6L18 6L18 7L17 7L17 5L16 5L16 4L17 4L17 2L16 2L16 3L15 3L15 4L14 4L14 3L12 3L12 5L11 5L11 4L10 4L10 5L9 5L9 6L8 6L8 7L9 7L9 9L8 9L8 8L6 8L6 9L8 9L8 11L7 11L7 10L4 10L4 11L3 11L3 9L5 9L5 8L3 8L3 9L2 9L2 10L0 10L0 13L1 13L1 14L0 14L0 15L1 15L1 14L2 14L2 15L4 15L4 16L6 16L6 17L4 17L4 19L5 19L5 21L7 21L7 20L6 20L6 19L7 19L7 18L8 18L8 20L11 20L11 21L8 21L8 23L9 23L9 24L8 24L8 26L9 26L9 24L10 24L10 25L11 25L11 23L12 23L12 22L13 22L13 25L12 25L12 26L10 26L10 28L11 28L11 29L12 29L12 28L11 28L11 27L14 27L14 28L13 28L13 29L14 29L14 28L15 28L15 29L20 29L20 28L21 28L21 29L23 29L23 28L24 28L24 29L28 29L28 28L27 28L27 27L29 27L29 26L27 26L27 25L29 25L29 22L28 22L28 21L26 21L26 20L23 20L23 19L26 19L26 18L28 18L28 19L29 19L29 17L28 17L28 16L29 16L29 14L28 14L28 13L29 13L29 11L28 11L28 10L27 10L27 11L26 11L26 10L25 10L25 12L24 12L24 16L23 16L23 12L22 12L22 11L21 11L21 10L19 10L19 9L17 9L17 8L19 8L19 6L20 6L20 7L21 7L21 4L19 4L19 3L20 3L20 1L21 1L21 0L19 0L19 1L18 1L18 0ZM12 5L12 6L11 6L11 7L10 7L10 6L9 6L9 7L10 7L10 9L9 9L9 11L8 11L8 12L9 12L9 11L11 11L11 10L12 10L12 9L14 9L14 10L13 10L13 11L12 11L12 12L10 12L10 14L9 14L9 13L6 13L6 12L7 12L7 11L6 11L6 12L5 12L5 11L4 11L4 12L2 12L2 11L1 11L1 12L2 12L2 13L3 13L3 14L4 14L4 15L5 15L5 14L8 14L8 16L7 16L7 15L6 15L6 16L7 16L7 17L6 17L6 18L5 18L5 19L6 19L6 18L7 18L7 17L9 17L9 15L10 15L10 14L12 14L12 17L11 17L11 16L10 16L10 17L11 17L11 18L10 18L10 19L11 19L11 20L12 20L12 21L13 21L13 22L14 22L14 24L15 24L15 23L16 23L16 21L17 21L17 22L19 22L19 23L18 23L18 24L16 24L16 26L14 26L14 27L17 27L17 25L18 25L18 24L20 24L20 21L18 21L18 20L16 20L16 19L17 19L17 18L18 18L18 17L19 17L19 18L20 18L20 19L21 19L21 20L22 20L22 19L21 19L21 16L20 16L20 15L21 15L21 14L22 14L22 12L21 12L21 14L20 14L20 15L19 15L19 16L18 16L18 15L16 15L16 14L14 14L14 13L15 13L15 12L14 12L14 13L13 13L13 11L15 11L15 10L16 10L16 9L15 9L15 8L12 8L12 9L11 9L11 7L12 7L12 6L13 6L13 7L14 7L14 6L15 6L15 7L16 7L16 6L15 6L15 5ZM25 8L25 9L27 9L27 8ZM10 9L10 10L11 10L11 9ZM22 9L22 10L23 10L23 11L24 11L24 9ZM17 11L17 12L16 12L16 13L17 13L17 14L18 14L18 11ZM27 11L27 12L28 12L28 11ZM4 12L4 13L5 13L5 12ZM19 12L19 13L20 13L20 12ZM12 13L12 14L13 14L13 15L14 15L14 16L15 16L15 17L12 17L12 18L11 18L11 19L12 19L12 20L14 20L14 19L13 19L13 18L16 18L16 16L15 16L15 15L14 15L14 14L13 14L13 13ZM25 13L25 16L26 16L26 17L27 17L27 16L28 16L28 14L27 14L27 16L26 16L26 13ZM2 16L2 18L1 18L1 17L0 17L0 21L2 21L2 19L3 19L3 16ZM17 16L17 17L18 17L18 16ZM22 16L22 17L23 17L23 16ZM3 20L3 21L4 21L4 20ZM15 20L15 21L16 21L16 20ZM21 21L21 24L24 24L24 21ZM9 22L9 23L11 23L11 22ZM22 22L22 23L23 23L23 22ZM25 22L25 26L24 26L24 25L19 25L19 28L20 28L20 27L21 27L21 26L22 26L22 28L23 28L23 27L25 27L25 28L26 28L26 24L28 24L28 23L27 23L27 22ZM0 0L0 7L7 7L7 0ZM1 1L1 6L6 6L6 1ZM2 2L2 5L5 5L5 2ZM22 0L22 7L29 7L29 0ZM23 1L23 6L28 6L28 1ZM24 2L24 5L27 5L27 2ZM0 22L0 29L7 29L7 22ZM1 23L1 28L6 28L6 23ZM2 24L2 27L5 27L5 24Z" fill="#000000"/></g></g></svg>
