<?xml version="1.0" encoding="UTF-8"?>
<svg xmlns="http://www.w3.org/2000/svg" version="1.1" width="200" height="200" viewBox="0 0 200 200"><rect x="0" y="0" width="200" height="200" fill="#ffffff"/><g transform="scale(4.878)"><g transform="translate(0,0)"><path fill-rule="evenodd" d="M8 0L8 1L9 1L9 2L8 2L8 3L9 3L9 4L8 4L8 5L9 5L9 4L12 4L12 7L11 7L11 5L10 5L10 7L11 7L11 10L5 10L5 9L7 9L7 8L5 8L5 9L2 9L2 10L0 10L0 13L1 13L1 12L2 12L2 13L3 13L3 14L2 14L2 15L3 15L3 17L4 17L4 16L5 16L5 17L8 17L8 19L10 19L10 20L11 20L11 21L10 21L10 22L9 22L9 20L6 20L6 19L7 19L7 18L6 18L6 19L5 19L5 20L4 20L4 19L3 19L3 20L4 20L4 21L5 21L5 22L3 22L3 21L2 21L2 22L1 22L1 23L0 23L0 24L1 24L1 25L3 25L3 27L4 27L4 26L6 26L6 27L7 27L7 28L4 28L4 30L3 30L3 31L2 31L2 28L0 28L0 33L1 33L1 31L2 31L2 32L3 32L3 33L8 33L8 34L9 34L9 35L8 35L8 36L9 36L9 35L10 35L10 38L9 38L9 39L10 39L10 40L9 40L9 41L14 41L14 39L15 39L15 40L16 40L16 39L17 39L17 41L19 41L19 40L20 40L20 41L24 41L24 39L22 39L22 37L23 37L23 36L24 36L24 37L25 37L25 38L26 38L26 39L25 39L25 40L26 40L26 41L28 41L28 40L29 40L29 41L30 41L30 40L29 40L29 39L28 39L28 38L29 38L29 37L31 37L31 39L32 39L32 37L36 37L36 38L34 38L34 39L33 39L33 41L34 41L34 40L36 40L36 39L38 39L38 40L39 40L39 39L40 39L40 40L41 40L41 39L40 39L40 38L41 38L41 35L40 35L40 34L39 34L39 32L37 32L37 31L36 31L36 30L38 30L38 31L41 31L41 29L40 29L40 28L41 28L41 27L40 27L40 26L41 26L41 25L36 25L36 26L35 26L35 24L36 24L36 23L34 23L34 27L36 27L36 28L34 28L34 29L36 29L36 30L35 30L35 32L34 32L34 31L33 31L33 32L32 32L32 34L30 34L30 35L31 35L31 36L28 36L28 35L29 35L29 33L31 33L31 32L29 32L29 29L30 29L30 31L32 31L32 30L31 30L31 29L30 29L30 28L29 28L29 27L28 27L28 24L29 24L29 23L30 23L30 24L31 24L31 25L29 25L29 26L32 26L32 27L33 27L33 22L34 22L34 19L33 19L33 20L32 20L32 21L30 21L30 22L29 22L29 20L31 20L31 19L32 19L32 17L34 17L34 18L35 18L35 20L36 20L36 21L35 21L35 22L36 22L36 21L38 21L38 22L41 22L41 20L40 20L40 19L41 19L41 15L40 15L40 14L41 14L41 12L40 12L40 13L39 13L39 12L38 12L38 11L40 11L40 9L41 9L41 8L40 8L40 9L39 9L39 8L38 8L38 10L37 10L37 8L36 8L36 11L35 11L35 12L34 12L34 9L35 9L35 8L34 8L34 9L33 9L33 8L32 8L32 7L33 7L33 5L32 5L32 4L31 4L31 3L32 3L32 2L31 2L31 1L30 1L30 0L28 0L28 2L27 2L27 1L24 1L24 2L23 2L23 0L20 0L20 3L21 3L21 4L19 4L19 1L18 1L18 0L16 0L16 1L15 1L15 3L14 3L14 7L15 7L15 8L16 8L16 7L17 7L17 8L18 8L18 9L17 9L17 11L15 11L15 10L16 10L16 9L15 9L15 10L13 10L13 1L14 1L14 0L13 0L13 1L12 1L12 0ZM32 0L32 1L33 1L33 0ZM10 1L10 2L9 2L9 3L12 3L12 2L11 2L11 1ZM16 1L16 4L17 4L17 3L18 3L18 1ZM21 1L21 3L22 3L22 4L23 4L23 5L21 5L21 9L20 9L20 10L19 10L19 9L18 9L18 12L21 12L21 13L20 13L20 14L21 14L21 13L24 13L24 12L25 12L25 10L24 10L24 11L23 11L23 9L24 9L24 3L23 3L23 2L22 2L22 1ZM29 1L29 5L28 5L28 4L27 4L27 2L26 2L26 3L25 3L25 5L26 5L26 6L25 6L25 7L26 7L26 8L27 8L27 9L28 9L28 8L30 8L30 9L29 9L29 10L28 10L28 11L27 11L27 10L26 10L26 11L27 11L27 12L26 12L26 13L27 13L27 14L29 14L29 16L28 16L28 15L27 15L27 16L25 16L25 15L26 15L26 14L22 14L22 15L23 15L23 17L22 17L22 16L20 16L20 15L18 15L18 16L16 16L16 14L18 14L18 13L17 13L17 12L15 12L15 14L14 14L14 15L15 15L15 16L13 16L13 17L11 17L11 16L12 16L12 15L10 15L10 14L11 14L11 11L9 11L9 12L8 12L8 13L9 13L9 14L8 14L8 16L9 16L9 17L11 17L11 18L10 18L10 19L12 19L12 21L14 21L14 22L15 22L15 20L16 20L16 23L17 23L17 24L20 24L20 26L17 26L17 25L14 25L14 24L15 24L15 23L14 23L14 24L12 24L12 25L13 25L13 26L14 26L14 28L13 28L13 27L12 27L12 26L10 26L10 27L9 27L9 28L7 28L7 29L6 29L6 30L4 30L4 32L9 32L9 33L10 33L10 34L11 34L11 33L12 33L12 31L11 31L11 30L10 30L10 29L12 29L12 28L13 28L13 32L14 32L14 34L15 34L15 30L17 30L17 32L16 32L16 35L17 35L17 34L18 34L18 37L17 37L17 38L18 38L18 37L19 37L19 38L20 38L20 40L22 40L22 39L21 39L21 38L20 38L20 37L21 37L21 35L23 35L23 34L22 34L22 33L21 33L21 32L25 32L25 33L24 33L24 35L25 35L25 37L26 37L26 38L27 38L27 34L26 34L26 30L27 30L27 31L28 31L28 29L29 29L29 28L28 28L28 29L25 29L25 28L26 28L26 27L25 27L25 28L24 28L24 27L23 27L23 26L24 26L24 25L25 25L25 26L27 26L27 25L26 25L26 24L25 24L25 22L23 22L23 20L25 20L25 21L26 21L26 20L27 20L27 21L28 21L28 20L29 20L29 19L31 19L31 18L29 18L29 16L30 16L30 17L31 17L31 15L30 15L30 9L32 9L32 8L30 8L30 6L29 6L29 5L31 5L31 7L32 7L32 5L31 5L31 4L30 4L30 3L31 3L31 2L30 2L30 1ZM15 5L15 7L16 7L16 6L17 6L17 7L18 7L18 8L20 8L20 5L19 5L19 7L18 7L18 6L17 6L17 5ZM8 6L8 8L9 8L9 6ZM22 6L22 9L23 9L23 6ZM26 6L26 7L27 7L27 6ZM28 6L28 7L29 7L29 6ZM2 10L2 12L3 12L3 10ZM20 10L20 11L21 11L21 12L23 12L23 11L22 11L22 10ZM31 10L31 11L32 11L32 12L33 12L33 10ZM6 11L6 12L7 12L7 11ZM12 11L12 14L13 14L13 12L14 12L14 11ZM9 12L9 13L10 13L10 12ZM36 12L36 13L34 13L34 15L35 15L35 16L34 16L34 17L35 17L35 18L36 18L36 20L39 20L39 21L40 21L40 20L39 20L39 17L40 17L40 16L39 16L39 17L38 17L38 18L36 18L36 17L37 17L37 16L38 16L38 14L39 14L39 13L38 13L38 14L37 14L37 15L35 15L35 14L36 14L36 13L37 13L37 12ZM6 13L6 14L4 14L4 15L5 15L5 16L7 16L7 15L6 15L6 14L7 14L7 13ZM31 13L31 14L32 14L32 16L33 16L33 14L32 14L32 13ZM0 14L0 16L1 16L1 17L2 17L2 16L1 16L1 14ZM15 16L15 18L14 18L14 17L13 17L13 20L14 20L14 19L17 19L17 20L18 20L18 21L19 21L19 22L18 22L18 23L22 23L22 24L23 24L23 25L22 25L22 26L23 26L23 25L24 25L24 23L23 23L23 22L20 22L20 21L19 21L19 20L18 20L18 18L19 18L19 19L20 19L20 20L21 20L21 21L22 21L22 19L26 19L26 18L22 18L22 17L21 17L21 19L20 19L20 17L16 17L16 16ZM27 16L27 19L29 19L29 18L28 18L28 16ZM35 16L35 17L36 17L36 16ZM0 19L0 21L1 21L1 20L2 20L2 19ZM6 21L6 22L5 22L5 23L4 23L4 24L3 24L3 23L1 23L1 24L3 24L3 25L4 25L4 24L5 24L5 23L6 23L6 24L9 24L9 25L8 25L8 26L7 26L7 25L6 25L6 26L7 26L7 27L8 27L8 26L9 26L9 25L10 25L10 23L12 23L12 22L10 22L10 23L8 23L8 22L7 22L7 21ZM6 22L6 23L7 23L7 22ZM30 22L30 23L31 23L31 24L32 24L32 22ZM27 23L27 24L28 24L28 23ZM39 23L39 24L41 24L41 23ZM1 26L1 27L2 27L2 26ZM38 26L38 27L39 27L39 26ZM11 27L11 28L12 28L12 27ZM16 27L16 28L14 28L14 29L16 29L16 28L18 28L18 29L19 29L19 28L20 28L20 30L19 30L19 32L18 32L18 34L20 34L20 35L21 35L21 33L20 33L20 32L21 32L21 31L22 31L22 29L23 29L23 30L24 30L24 29L23 29L23 27L22 27L22 28L20 28L20 27L19 27L19 28L18 28L18 27ZM9 28L9 29L7 29L7 30L6 30L6 31L9 31L9 29L10 29L10 28ZM32 28L32 29L33 29L33 28ZM36 28L36 29L38 29L38 30L40 30L40 29L39 29L39 28ZM10 32L10 33L11 33L11 32ZM27 32L27 33L28 33L28 32ZM33 33L33 36L36 36L36 33ZM25 34L25 35L26 35L26 34ZM34 34L34 35L35 35L35 34ZM38 34L38 35L37 35L37 38L40 38L40 35L39 35L39 34ZM19 36L19 37L20 37L20 36ZM12 37L12 38L10 38L10 39L11 39L11 40L12 40L12 38L13 38L13 39L14 39L14 37ZM15 37L15 38L16 38L16 37ZM31 40L31 41L32 41L32 40ZM0 0L0 7L7 7L7 0ZM1 1L1 6L6 6L6 1ZM2 2L2 5L5 5L5 2ZM34 0L34 7L41 7L41 0ZM35 1L35 6L40 6L40 1ZM36 2L36 5L39 5L39 2ZM0 34L0 41L7 41L7 34ZM1 35L1 40L6 40L6 35ZM2 36L2 39L5 39L5 36Z" fill="#000000"/></g></g></svg>
