<?xml version="1.0" encoding="UTF-8"?>
<svg xmlns="http://www.w3.org/2000/svg" version="1.1" width="200" height="200" viewBox="0 0 200 200"><rect x="0" y="0" width="200" height="200" fill="#ffffff"/><g transform="scale(4.878)"><g transform="translate(0,0)"><path fill-rule="evenodd" d="M8 0L8 2L9 2L9 3L8 3L8 7L9 7L9 6L10 6L10 8L9 8L9 9L10 9L10 8L11 8L11 10L12 10L12 9L13 9L13 11L8 11L8 10L6 10L6 9L7 9L7 8L6 8L6 9L5 9L5 11L3 11L3 9L4 9L4 8L3 8L3 9L2 9L2 12L0 12L0 13L1 13L1 15L0 15L0 16L1 16L1 15L2 15L2 17L1 17L1 22L0 22L0 24L1 24L1 26L0 26L0 27L1 27L1 26L2 26L2 25L3 25L3 28L5 28L5 29L1 29L1 28L0 28L0 29L1 29L1 30L0 30L0 31L1 31L1 30L4 30L4 31L3 31L3 32L5 32L5 33L7 33L7 32L5 32L5 30L6 30L6 31L10 31L10 35L9 35L9 37L8 37L8 38L9 38L9 37L12 37L12 36L14 36L14 34L15 34L15 35L16 35L16 36L17 36L17 37L14 37L14 38L13 38L13 39L14 39L14 40L15 40L15 41L18 41L18 40L17 40L17 37L18 37L18 39L19 39L19 41L21 41L21 40L22 40L22 37L23 37L23 36L22 36L22 35L23 35L23 34L24 34L24 36L25 36L25 34L24 34L24 31L23 31L23 34L22 34L22 35L21 35L21 34L20 34L20 33L19 33L19 34L20 34L20 35L21 35L21 36L20 36L20 37L19 37L19 36L17 36L17 35L18 35L18 34L17 34L17 35L16 35L16 33L12 33L12 31L13 31L13 32L15 32L15 31L13 31L13 30L14 30L14 29L15 29L15 30L16 30L16 31L17 31L17 30L18 30L18 32L17 32L17 33L18 33L18 32L19 32L19 31L20 31L20 29L19 29L19 30L18 30L18 28L22 28L22 29L23 29L23 30L25 30L25 29L26 29L26 28L27 28L27 27L26 27L26 28L25 28L25 27L23 27L23 28L22 28L22 27L18 27L18 28L17 28L17 27L15 27L15 28L14 28L14 27L13 27L13 25L14 25L14 24L15 24L15 25L16 25L16 26L17 26L17 25L18 25L18 26L20 26L20 24L19 24L19 25L18 25L18 23L19 23L19 22L17 22L17 20L16 20L16 19L17 19L17 18L18 18L18 19L19 19L19 18L20 18L20 20L18 20L18 21L20 21L20 20L23 20L23 18L22 18L22 17L23 17L23 16L24 16L24 18L26 18L26 19L25 19L25 20L29 20L29 22L28 22L28 23L29 23L29 22L30 22L30 20L29 20L29 19L30 19L30 18L31 18L31 16L30 16L30 15L32 15L32 16L33 16L33 15L32 15L32 14L33 14L33 10L35 10L35 9L37 9L37 10L38 10L38 8L35 8L35 9L33 9L33 8L32 8L32 9L33 9L33 10L31 10L31 6L32 6L32 7L33 7L33 2L32 2L32 3L31 3L31 4L32 4L32 5L31 5L31 6L30 6L30 7L29 7L29 4L30 4L30 1L32 1L32 0L30 0L30 1L29 1L29 0L27 0L27 1L26 1L26 0L25 0L25 3L24 3L24 2L22 2L22 0L21 0L21 1L20 1L20 0L19 0L19 2L18 2L18 1L15 1L15 2L14 2L14 0L11 0L11 1L10 1L10 0ZM23 0L23 1L24 1L24 0ZM9 1L9 2L10 2L10 3L9 3L9 4L10 4L10 6L11 6L11 7L12 7L12 6L11 6L11 5L12 5L12 4L10 4L10 3L12 3L12 1L11 1L11 2L10 2L10 1ZM28 1L28 2L26 2L26 3L27 3L27 4L29 4L29 1ZM16 2L16 3L18 3L18 4L15 4L15 3L14 3L14 6L13 6L13 9L15 9L15 10L16 10L16 12L15 12L15 11L13 11L13 12L11 12L11 13L9 13L9 12L8 12L8 11L6 11L6 12L7 12L7 13L5 13L5 12L4 12L4 14L7 14L7 15L5 15L5 16L4 16L4 15L3 15L3 12L2 12L2 15L3 15L3 17L2 17L2 18L3 18L3 19L2 19L2 22L1 22L1 23L2 23L2 24L3 24L3 23L5 23L5 24L7 24L7 25L6 25L6 26L5 26L5 28L7 28L7 29L6 29L6 30L8 30L8 29L10 29L10 30L13 30L13 29L12 29L12 28L13 28L13 27L12 27L12 26L10 26L10 25L11 25L11 24L10 24L10 25L9 25L9 23L8 23L8 24L7 24L7 23L6 23L6 22L9 22L9 20L10 20L10 19L11 19L11 17L9 17L9 19L4 19L4 18L3 18L3 17L5 17L5 18L8 18L8 16L9 16L9 15L8 15L8 14L12 14L12 15L10 15L10 16L12 16L12 18L14 18L14 17L15 17L15 18L17 18L17 17L16 17L16 15L18 15L18 17L21 17L21 16L19 16L19 14L18 14L18 13L17 13L17 14L16 14L16 12L17 12L17 11L18 11L18 12L19 12L19 13L20 13L20 15L21 15L21 12L24 12L24 10L26 10L26 6L27 6L27 11L26 11L26 12L25 12L25 13L24 13L24 14L23 14L23 13L22 13L22 15L24 15L24 16L25 16L25 17L26 17L26 18L27 18L27 19L28 19L28 18L29 18L29 15L30 15L30 14L32 14L32 13L30 13L30 14L27 14L27 15L24 15L24 14L25 14L25 13L26 13L26 12L27 12L27 13L29 13L29 12L31 12L31 10L29 10L29 9L30 9L30 8L29 8L29 7L28 7L28 6L27 6L27 5L26 5L26 4L23 4L23 3L20 3L20 2L19 2L19 3L18 3L18 2ZM18 4L18 7L17 7L17 6L16 6L16 5L15 5L15 6L14 6L14 8L16 8L16 7L17 7L17 8L18 8L18 9L16 9L16 10L20 10L20 11L21 11L21 10L23 10L23 9L24 9L24 8L23 8L23 6L24 6L24 7L25 7L25 5L23 5L23 4ZM21 5L21 7L20 7L20 6L19 6L19 7L18 7L18 8L19 8L19 7L20 7L20 8L22 8L22 9L23 9L23 8L22 8L22 5ZM15 6L15 7L16 7L16 6ZM39 8L39 9L40 9L40 10L41 10L41 8ZM20 9L20 10L21 10L21 9ZM28 10L28 11L27 11L27 12L28 12L28 11L29 11L29 10ZM38 11L38 13L37 13L37 14L36 14L36 13L35 13L35 12L34 12L34 15L35 15L35 14L36 14L36 15L37 15L37 14L38 14L38 15L39 15L39 14L38 14L38 13L39 13L39 12L40 12L40 13L41 13L41 12L40 12L40 11ZM13 12L13 13L12 13L12 14L13 14L13 15L12 15L12 16L13 16L13 17L14 17L14 16L15 16L15 15L16 15L16 14L15 14L15 13L14 13L14 12ZM7 13L7 14L8 14L8 13ZM13 13L13 14L14 14L14 15L13 15L13 16L14 16L14 15L15 15L15 14L14 14L14 13ZM40 14L40 15L41 15L41 14ZM27 15L27 16L26 16L26 17L27 17L27 16L28 16L28 15ZM5 16L5 17L7 17L7 16ZM35 16L35 17L32 17L32 19L34 19L34 22L35 22L35 21L36 21L36 22L37 22L37 21L40 21L40 20L41 20L41 16L39 16L39 17L38 17L38 16L37 16L37 19L36 19L36 20L35 20L35 19L34 19L34 18L35 18L35 17L36 17L36 16ZM38 18L38 19L37 19L37 20L40 20L40 19L39 19L39 18ZM3 19L3 21L4 21L4 22L6 22L6 21L8 21L8 20L6 20L6 21L4 21L4 19ZM15 20L15 21L16 21L16 20ZM32 20L32 21L33 21L33 20ZM10 21L10 22L11 22L11 23L12 23L12 24L14 24L14 23L17 23L17 22L14 22L14 21L13 21L13 22L12 22L12 21ZM21 21L21 22L20 22L20 23L22 23L22 24L21 24L21 26L22 26L22 25L25 25L25 24L26 24L26 23L27 23L27 22L26 22L26 21L24 21L24 22L26 22L26 23L25 23L25 24L24 24L24 23L23 23L23 21ZM2 22L2 23L3 23L3 22ZM31 22L31 23L30 23L30 24L28 24L28 25L30 25L30 24L32 24L32 23L33 23L33 22ZM39 22L39 23L34 23L34 25L35 25L35 24L37 24L37 27L38 27L38 26L39 26L39 25L40 25L40 24L41 24L41 23L40 23L40 22ZM39 23L39 24L38 24L38 25L39 25L39 24L40 24L40 23ZM8 25L8 26L6 26L6 27L8 27L8 28L10 28L10 26L9 26L9 25ZM31 25L31 26L32 26L32 28L31 28L31 27L30 27L30 26L28 26L28 28L29 28L29 29L27 29L27 31L26 31L26 34L27 34L27 33L28 33L28 32L27 32L27 31L29 31L29 32L30 32L30 33L29 33L29 34L28 34L28 35L29 35L29 34L30 34L30 37L29 37L29 36L28 36L28 37L29 37L29 38L28 38L28 39L27 39L27 38L26 38L26 37L27 37L27 36L26 36L26 37L24 37L24 39L23 39L23 40L24 40L24 41L26 41L26 40L27 40L27 41L31 41L31 40L32 40L32 41L33 41L33 39L34 39L34 38L36 38L36 40L37 40L37 41L40 41L40 39L41 39L41 38L40 38L40 37L41 37L41 35L40 35L40 37L39 37L39 38L36 38L36 37L37 37L37 35L38 35L38 36L39 36L39 34L41 34L41 29L39 29L39 28L41 28L41 26L40 26L40 27L39 27L39 28L37 28L37 31L39 31L39 30L40 30L40 32L35 32L35 31L34 31L34 29L36 29L36 27L34 27L34 26L32 26L32 25ZM8 26L8 27L9 27L9 26ZM15 28L15 29L16 29L16 30L17 30L17 28ZM24 28L24 29L25 29L25 28ZM32 28L32 29L33 29L33 28ZM29 29L29 31L30 31L30 32L31 32L31 35L32 35L32 32L34 32L34 31L33 31L33 30L30 30L30 29ZM21 30L21 32L22 32L22 30ZM0 32L0 33L1 33L1 32ZM8 33L8 34L9 34L9 33ZM11 33L11 34L12 34L12 35L13 35L13 34L12 34L12 33ZM33 33L33 36L36 36L36 33ZM37 33L37 34L39 34L39 33ZM34 34L34 35L35 35L35 34ZM21 36L21 37L20 37L20 38L19 38L19 39L20 39L20 40L21 40L21 37L22 37L22 36ZM31 36L31 37L32 37L32 36ZM14 38L14 39L15 39L15 38ZM25 38L25 39L24 39L24 40L26 40L26 38ZM30 38L30 40L31 40L31 39L33 39L33 38ZM39 38L39 39L38 39L38 40L39 40L39 39L40 39L40 38ZM10 39L10 40L9 40L9 41L10 41L10 40L11 40L11 39ZM28 39L28 40L29 40L29 39ZM0 0L0 7L7 7L7 0ZM1 1L1 6L6 6L6 1ZM2 2L2 5L5 5L5 2ZM34 0L34 7L41 7L41 0ZM35 1L35 6L40 6L40 1ZM36 2L36 5L39 5L39 2ZM0 34L0 41L7 41L7 34ZM1 35L1 40L6 40L6 35ZM2 36L2 39L5 39L5 36Z" fill="#000000"/></g></g></svg>
