<?xml version="1.0" encoding="UTF-8"?>
<svg xmlns="http://www.w3.org/2000/svg" version="1.1" width="200" height="200" viewBox="0 0 200 200"><rect x="0" y="0" width="200" height="200" fill="#ffffff"/><g transform="scale(6.897)"><g transform="translate(0,0)"><path fill-rule="evenodd" d="M10 0L10 2L11 2L11 3L10 3L10 4L11 4L11 5L9 5L9 4L8 4L8 5L9 5L9 6L8 6L8 8L6 8L6 9L10 9L10 8L11 8L11 9L12 9L12 10L11 10L11 11L10 11L10 10L9 10L9 12L5 12L5 11L8 11L8 10L4 10L4 13L3 13L3 12L2 12L2 11L1 11L1 9L0 9L0 14L1 14L1 15L2 15L2 16L0 16L0 17L3 17L3 18L2 18L2 19L7 19L7 20L1 20L1 21L8 21L8 23L9 23L9 22L10 22L10 23L11 23L11 24L9 24L9 25L8 25L8 27L9 27L9 28L11 28L11 29L14 29L14 27L13 27L13 28L11 28L11 27L12 27L12 26L11 26L11 25L12 25L12 23L13 23L13 22L12 22L12 21L13 21L13 20L15 20L15 21L14 21L14 22L18 22L18 21L16 21L16 19L17 19L17 18L18 18L18 16L19 16L19 15L20 15L20 14L21 14L21 13L20 13L20 12L22 12L22 9L23 9L23 13L22 13L22 15L23 15L23 14L24 14L24 13L25 13L25 14L26 14L26 15L27 15L27 16L28 16L28 15L29 15L29 14L28 14L28 15L27 15L27 13L28 13L28 12L29 12L29 11L28 11L28 12L27 12L27 11L26 11L26 10L29 10L29 9L25 9L25 8L24 8L24 9L23 9L23 8L21 8L21 9L20 9L20 7L21 7L21 3L20 3L20 2L18 2L18 1L16 1L16 0L15 0L15 1L14 1L14 2L13 2L13 1L12 1L12 0ZM12 2L12 3L13 3L13 4L12 4L12 5L11 5L11 7L12 7L12 6L13 6L13 7L14 7L14 8L15 8L15 9L17 9L17 10L16 10L16 11L15 11L15 10L14 10L14 12L13 12L13 10L12 10L12 11L11 11L11 12L10 12L10 13L9 13L9 14L10 14L10 13L11 13L11 15L12 15L12 16L11 16L11 17L12 17L12 16L13 16L13 15L14 15L14 16L15 16L15 15L17 15L17 16L16 16L16 18L15 18L15 17L13 17L13 19L14 19L14 18L15 18L15 19L16 19L16 18L17 18L17 16L18 16L18 15L17 15L17 14L18 14L18 13L17 13L17 12L20 12L20 11L19 11L19 10L20 10L20 9L19 9L19 10L18 10L18 8L19 8L19 7L20 7L20 5L19 5L19 4L20 4L20 3L19 3L19 4L18 4L18 2L16 2L16 3L17 3L17 4L16 4L16 5L19 5L19 7L18 7L18 6L17 6L17 8L15 8L15 7L16 7L16 6L15 6L15 7L14 7L14 6L13 6L13 5L14 5L14 4L15 4L15 3L13 3L13 2ZM9 6L9 8L10 8L10 6ZM2 8L2 10L3 10L3 9L4 9L4 8ZM12 8L12 9L13 9L13 8ZM24 9L24 10L25 10L25 9ZM17 10L17 11L16 11L16 12L15 12L15 13L14 13L14 14L16 14L16 12L17 12L17 11L18 11L18 10ZM25 11L25 13L27 13L27 12L26 12L26 11ZM11 12L11 13L12 13L12 12ZM1 13L1 14L3 14L3 13ZM5 13L5 14L4 14L4 15L3 15L3 17L4 17L4 18L7 18L7 19L8 19L8 21L9 21L9 17L8 17L8 16L9 16L9 15L8 15L8 14L7 14L7 13ZM19 13L19 14L20 14L20 13ZM6 14L6 15L7 15L7 14ZM12 14L12 15L13 15L13 14ZM24 15L24 16L23 16L23 17L21 17L21 18L20 18L20 17L19 17L19 18L20 18L20 20L19 20L19 19L18 19L18 20L19 20L19 21L20 21L20 23L17 23L17 25L16 25L16 24L15 24L15 23L14 23L14 24L13 24L13 26L15 26L15 27L16 27L16 28L15 28L15 29L16 29L16 28L18 28L18 29L20 29L20 28L18 28L18 26L20 26L20 25L23 25L23 26L24 26L24 27L22 27L22 29L23 29L23 28L25 28L25 29L27 29L27 28L29 28L29 26L28 26L28 27L27 27L27 25L29 25L29 23L28 23L28 20L27 20L27 23L28 23L28 24L27 24L27 25L26 25L26 23L25 23L25 22L26 22L26 18L29 18L29 17L26 17L26 16L25 16L25 15ZM4 16L4 17L7 17L7 18L8 18L8 17L7 17L7 16ZM24 16L24 17L23 17L23 18L22 18L22 19L21 19L21 20L22 20L22 19L24 19L24 20L25 20L25 19L24 19L24 18L26 18L26 17L25 17L25 16ZM0 18L0 19L1 19L1 18ZM11 19L11 20L10 20L10 22L11 22L11 21L12 21L12 19ZM21 21L21 24L24 24L24 21ZM22 22L22 23L23 23L23 22ZM19 24L19 25L20 25L20 24ZM9 25L9 27L11 27L11 26L10 26L10 25ZM15 25L15 26L16 26L16 25ZM17 25L17 26L18 26L18 25ZM24 25L24 26L25 26L25 28L27 28L27 27L26 27L26 26L25 26L25 25ZM0 0L0 7L7 7L7 0ZM1 1L1 6L6 6L6 1ZM2 2L2 5L5 5L5 2ZM22 0L22 7L29 7L29 0ZM23 1L23 6L28 6L28 1ZM24 2L24 5L27 5L27 2ZM0 22L0 29L7 29L7 22ZM1 23L1 28L6 28L6 23ZM2 24L2 27L5 27L5 24Z" fill="#000000"/></g></g></svg>
