<?xml version="1.0" encoding="UTF-8"?>
<svg xmlns="http://www.w3.org/2000/svg" version="1.1" width="200" height="200" viewBox="0 0 200 200"><rect x="0" y="0" width="200" height="200" fill="#ffffff"/><g transform="scale(6.897)"><g transform="translate(0,0)"><path fill-rule="evenodd" d="M9 0L9 2L11 2L11 3L10 3L10 4L8 4L8 5L9 5L9 6L8 6L8 8L6 8L6 9L8 9L8 10L6 10L6 11L5 11L5 9L4 9L4 8L2 8L2 9L1 9L1 10L0 10L0 11L1 11L1 10L2 10L2 11L3 11L3 12L1 12L1 13L0 13L0 14L1 14L1 15L2 15L2 14L3 14L3 15L4 15L4 14L5 14L5 15L7 15L7 16L6 16L6 17L7 17L7 18L6 18L6 19L7 19L7 20L5 20L5 19L4 19L4 18L3 18L3 16L2 16L2 17L1 17L1 16L0 16L0 17L1 17L1 18L0 18L0 19L1 19L1 18L3 18L3 19L4 19L4 20L5 20L5 21L8 21L8 23L9 23L9 25L8 25L8 27L9 27L9 29L14 29L14 27L15 27L15 25L14 25L14 24L13 24L13 23L15 23L15 24L16 24L16 22L17 22L17 25L16 25L16 27L18 27L18 28L17 28L17 29L18 29L18 28L19 28L19 29L20 29L20 28L19 28L19 26L20 26L20 25L23 25L23 26L24 26L24 27L22 27L22 29L23 29L23 28L25 28L25 27L27 27L27 28L26 28L26 29L27 29L27 28L29 28L29 26L28 26L28 27L27 27L27 26L24 26L24 25L26 25L26 23L25 23L25 22L26 22L26 20L27 20L27 21L28 21L28 22L27 22L27 24L29 24L29 23L28 23L28 22L29 22L29 21L28 21L28 20L27 20L27 18L29 18L29 17L26 17L26 16L25 16L25 15L24 15L24 16L23 16L23 17L21 17L21 18L20 18L20 17L19 17L19 15L20 15L20 14L21 14L21 13L20 13L20 12L22 12L22 9L23 9L23 13L22 13L22 15L23 15L23 14L24 14L24 13L25 13L25 14L26 14L26 15L27 15L27 16L29 16L29 14L28 14L28 12L29 12L29 11L28 11L28 12L27 12L27 11L26 11L26 10L29 10L29 9L25 9L25 8L24 8L24 9L23 9L23 8L21 8L21 3L20 3L20 2L18 2L18 1L17 1L17 0L15 0L15 1L14 1L14 0L13 0L13 1L11 1L11 0ZM13 1L13 2L12 2L12 3L11 3L11 4L10 4L10 5L11 5L11 7L12 7L12 8L11 8L11 9L10 9L10 8L9 8L9 9L10 9L10 10L8 10L8 12L7 12L7 11L6 11L6 12L5 12L5 13L6 13L6 14L8 14L8 15L11 15L11 14L12 14L12 13L13 13L13 12L15 12L15 11L11 11L11 10L13 10L13 9L12 9L12 8L15 8L15 9L16 9L16 11L19 11L19 12L20 12L20 11L19 11L19 10L20 10L20 9L21 9L21 8L19 8L19 7L20 7L20 5L19 5L19 4L20 4L20 3L19 3L19 4L18 4L18 2L17 2L17 1L16 1L16 2L15 2L15 4L14 4L14 3L13 3L13 2L14 2L14 1ZM16 2L16 4L17 4L17 2ZM12 3L12 7L13 7L13 6L14 6L14 7L15 7L15 8L16 8L16 9L17 9L17 10L19 10L19 8L18 8L18 9L17 9L17 6L18 6L18 7L19 7L19 5L13 5L13 3ZM9 6L9 7L10 7L10 6ZM15 6L15 7L16 7L16 6ZM2 9L2 10L3 10L3 11L4 11L4 9ZM24 9L24 10L25 10L25 9ZM9 11L9 12L8 12L8 14L9 14L9 13L11 13L11 11ZM25 11L25 13L27 13L27 12L26 12L26 11ZM3 12L3 13L4 13L4 12ZM6 12L6 13L7 13L7 12ZM16 12L16 14L15 14L15 13L14 13L14 14L15 14L15 18L12 18L12 17L11 17L11 16L10 16L10 17L11 17L11 19L12 19L12 20L13 20L13 22L12 22L12 23L11 23L11 22L10 22L10 25L9 25L9 26L10 26L10 28L12 28L12 27L14 27L14 25L12 25L12 27L11 27L11 24L12 24L12 23L13 23L13 22L16 22L16 21L17 21L17 22L18 22L18 23L20 23L20 21L18 21L18 20L20 20L20 18L19 18L19 17L18 17L18 18L17 18L17 19L16 19L16 14L17 14L17 12ZM19 13L19 14L20 14L20 13ZM27 14L27 15L28 15L28 14ZM12 15L12 16L13 16L13 17L14 17L14 15ZM17 15L17 16L18 16L18 15ZM7 16L7 17L8 17L8 16ZM24 16L24 17L23 17L23 18L22 18L22 19L21 19L21 20L22 20L22 19L24 19L24 18L25 18L25 19L26 19L26 17L25 17L25 16ZM8 18L8 21L9 21L9 20L10 20L10 19L9 19L9 18ZM14 19L14 21L15 21L15 19ZM17 19L17 20L18 20L18 19ZM1 20L1 21L2 21L2 20ZM21 21L21 24L24 24L24 21ZM22 22L22 23L23 23L23 22ZM19 24L19 25L18 25L18 26L19 26L19 25L20 25L20 24ZM15 28L15 29L16 29L16 28ZM0 0L0 7L7 7L7 0ZM1 1L1 6L6 6L6 1ZM2 2L2 5L5 5L5 2ZM22 0L22 7L29 7L29 0ZM23 1L23 6L28 6L28 1ZM24 2L24 5L27 5L27 2ZM0 22L0 29L7 29L7 22ZM1 23L1 28L6 28L6 23ZM2 24L2 27L5 27L5 24Z" fill="#000000"/></g></g></svg>
