<?xml version="1.0" encoding="UTF-8"?>
<svg xmlns="http://www.w3.org/2000/svg" version="1.1" width="200" height="200" viewBox="0 0 200 200"><rect x="0" y="0" width="200" height="200" fill="#ffffff"/><g transform="scale(4.878)"><g transform="translate(0,0)"><path fill-rule="evenodd" d="M8 0L8 3L9 3L9 4L10 4L10 5L8 5L8 10L6 10L6 9L7 9L7 8L6 8L6 9L5 9L5 8L2 8L2 9L3 9L3 10L5 10L5 11L3 11L3 12L2 12L2 11L1 11L1 10L0 10L0 11L1 11L1 12L0 12L0 16L1 16L1 17L2 17L2 16L4 16L4 17L3 17L3 18L2 18L2 19L3 19L3 18L4 18L4 17L5 17L5 18L6 18L6 19L8 19L8 20L5 20L5 21L7 21L7 22L6 22L6 23L5 23L5 22L4 22L4 21L0 21L0 23L1 23L1 24L0 24L0 33L1 33L1 30L2 30L2 32L3 32L3 33L7 33L7 32L9 32L9 33L8 33L8 34L9 34L9 36L8 36L8 39L10 39L10 38L11 38L11 40L9 40L9 41L11 41L11 40L12 40L12 39L13 39L13 38L14 38L14 40L13 40L13 41L15 41L15 40L17 40L17 41L21 41L21 40L22 40L22 41L24 41L24 40L25 40L25 41L26 41L26 40L28 40L28 41L32 41L32 40L33 40L33 41L34 41L34 40L33 40L33 39L32 39L32 38L31 38L31 37L30 37L30 38L31 38L31 39L32 39L32 40L28 40L28 39L29 39L29 38L27 38L27 37L29 37L29 36L32 36L32 37L33 37L33 38L34 38L34 39L35 39L35 40L36 40L36 39L37 39L37 40L40 40L40 38L41 38L41 37L39 37L39 36L40 36L40 34L41 34L41 33L40 33L40 30L41 30L41 29L39 29L39 32L38 32L38 31L37 31L37 29L36 29L36 28L38 28L38 26L39 26L39 27L40 27L40 26L41 26L41 23L39 23L39 22L37 22L37 21L39 21L39 20L36 20L36 19L35 19L35 17L36 17L36 18L38 18L38 17L39 17L39 16L37 16L37 15L38 15L38 14L37 14L37 13L36 13L36 14L35 14L35 17L34 17L34 16L33 16L33 17L31 17L31 16L29 16L29 15L28 15L28 16L29 16L29 17L31 17L31 18L30 18L30 19L31 19L31 20L30 20L30 21L31 21L31 22L29 22L29 21L28 21L28 19L29 19L29 18L27 18L27 19L26 19L26 20L25 20L25 19L24 19L24 20L25 20L25 21L26 21L26 22L27 22L27 23L26 23L26 25L25 25L25 23L24 23L24 21L23 21L23 20L22 20L22 19L23 19L23 18L26 18L26 17L23 17L23 16L24 16L24 15L26 15L26 16L27 16L27 15L26 15L26 12L27 12L27 14L29 14L29 13L30 13L30 14L31 14L31 12L32 12L32 13L33 13L33 14L32 14L32 15L34 15L34 13L35 13L35 11L36 11L36 12L38 12L38 11L39 11L39 12L41 12L41 11L40 11L40 10L41 10L41 8L38 8L38 9L40 9L40 10L37 10L37 9L36 9L36 8L32 8L32 9L31 9L31 5L33 5L33 4L29 4L29 3L31 3L31 2L30 2L30 1L32 1L32 2L33 2L33 0L29 0L29 1L27 1L27 0L26 0L26 1L27 1L27 2L26 2L26 3L28 3L28 4L29 4L29 5L30 5L30 8L29 8L29 9L28 9L28 8L27 8L27 9L26 9L26 7L27 7L27 6L28 6L28 7L29 7L29 6L28 6L28 5L27 5L27 4L25 4L25 1L24 1L24 0L23 0L23 1L22 1L22 0L21 0L21 1L20 1L20 0L19 0L19 1L20 1L20 2L18 2L18 3L19 3L19 4L18 4L18 5L17 5L17 6L16 6L16 9L17 9L17 6L18 6L18 7L19 7L19 6L18 6L18 5L19 5L19 4L20 4L20 9L19 9L19 10L17 10L17 11L16 11L16 10L15 10L15 8L13 8L13 6L14 6L14 7L15 7L15 6L14 6L14 5L13 5L13 2L11 2L11 4L10 4L10 0ZM12 0L12 1L14 1L14 3L15 3L15 5L16 5L16 1L15 1L15 0ZM17 0L17 1L18 1L18 0ZM21 1L21 3L22 3L22 1ZM23 3L23 4L22 4L22 5L21 5L21 7L22 7L22 5L23 5L23 4L24 4L24 3ZM11 4L11 5L10 5L10 6L9 6L9 7L10 7L10 8L9 8L9 9L10 9L10 11L9 11L9 10L8 10L8 11L6 11L6 12L8 12L8 11L9 11L9 13L5 13L5 12L4 12L4 13L2 13L2 14L1 14L1 15L2 15L2 14L3 14L3 15L4 15L4 16L5 16L5 17L6 17L6 18L7 18L7 17L8 17L8 19L9 19L9 20L8 20L8 22L9 22L9 21L10 21L10 23L9 23L9 24L8 24L8 23L6 23L6 24L4 24L4 22L3 22L3 23L2 23L2 22L1 22L1 23L2 23L2 24L1 24L1 25L2 25L2 26L3 26L3 27L6 27L6 28L5 28L5 30L4 30L4 32L7 32L7 31L9 31L9 30L8 30L8 29L6 29L6 28L7 28L7 27L8 27L8 28L9 28L9 26L10 26L10 30L12 30L12 28L13 28L13 25L11 25L11 20L10 20L10 19L11 19L11 18L12 18L12 20L14 20L14 18L15 18L15 17L16 17L16 16L17 16L17 17L18 17L18 16L19 16L19 19L20 19L20 20L18 20L18 19L16 19L16 21L17 21L17 23L18 23L18 24L19 24L19 25L18 25L18 26L19 26L19 25L20 25L20 26L21 26L21 27L20 27L20 28L21 28L21 29L22 29L22 30L20 30L20 29L19 29L19 30L20 30L20 31L19 31L19 32L17 32L17 35L16 35L16 34L14 34L14 35L12 35L12 34L13 34L13 33L14 33L14 32L13 32L13 33L12 33L12 31L10 31L10 32L11 32L11 34L10 34L10 35L12 35L12 36L10 36L10 37L9 37L9 38L10 38L10 37L12 37L12 38L13 38L13 37L14 37L14 36L15 36L15 35L16 35L16 36L17 36L17 37L16 37L16 38L15 38L15 39L16 39L16 38L17 38L17 37L18 37L18 38L19 38L19 37L18 37L18 34L21 34L21 35L19 35L19 36L21 36L21 37L22 37L22 36L23 36L23 39L22 39L22 38L21 38L21 39L22 39L22 40L23 40L23 39L24 39L24 36L25 36L25 37L27 37L27 36L29 36L29 35L27 35L27 36L25 36L25 33L26 33L26 31L25 31L25 32L24 32L24 30L26 30L26 29L27 29L27 27L26 27L26 26L28 26L28 27L29 27L29 28L31 28L31 29L28 29L28 30L30 30L30 31L28 31L28 33L27 33L27 34L28 34L28 33L29 33L29 32L30 32L30 33L31 33L31 34L30 34L30 35L31 35L31 34L32 34L32 33L31 33L31 30L32 30L32 31L33 31L33 32L35 32L35 31L36 31L36 29L35 29L35 28L36 28L36 27L37 27L37 26L34 26L34 25L39 25L39 26L40 26L40 24L39 24L39 23L37 23L37 24L36 24L36 23L35 23L35 22L36 22L36 21L35 21L35 19L34 19L34 18L31 18L31 19L33 19L33 20L34 20L34 21L32 21L32 20L31 20L31 21L32 21L32 22L31 22L31 25L30 25L30 26L29 26L29 25L26 25L26 26L25 26L25 25L24 25L24 23L23 23L23 25L24 25L24 26L22 26L22 25L20 25L20 22L21 22L21 24L22 24L22 21L21 21L21 19L22 19L22 18L21 18L21 19L20 19L20 17L22 17L22 16L23 16L23 15L24 15L24 14L25 14L25 12L26 12L26 11L25 11L25 12L24 12L24 10L25 10L25 8L24 8L24 9L23 9L23 8L22 8L22 9L20 9L20 11L18 11L18 12L17 12L17 13L18 13L18 16L17 16L17 15L15 15L15 17L14 17L14 18L13 18L13 17L12 17L12 16L11 16L11 18L10 18L10 15L11 15L11 14L12 14L12 13L13 13L13 16L14 16L14 13L15 13L15 12L14 12L14 13L13 13L13 12L11 12L11 14L10 14L10 11L12 11L12 9L13 9L13 11L15 11L15 10L14 10L14 9L13 9L13 8L12 8L12 6L11 6L11 5L12 5L12 4ZM24 5L24 6L23 6L23 7L24 7L24 6L25 6L25 7L26 7L26 6L25 6L25 5ZM10 6L10 7L11 7L11 6ZM32 6L32 7L33 7L33 6ZM10 8L10 9L11 9L11 8ZM27 9L27 10L28 10L28 11L27 11L27 12L28 12L28 13L29 13L29 12L31 12L31 11L34 11L34 9L32 9L32 10L31 10L31 9L29 9L29 10L28 10L28 9ZM35 9L35 10L36 10L36 11L37 11L37 10L36 10L36 9ZM21 10L21 11L20 11L20 12L18 12L18 13L22 13L22 12L21 12L21 11L22 11L22 10ZM30 10L30 11L31 11L31 10ZM28 11L28 12L29 12L29 11ZM23 12L23 13L24 13L24 12ZM33 12L33 13L34 13L34 12ZM39 13L39 14L41 14L41 13ZM4 14L4 15L7 15L7 16L6 16L6 17L7 17L7 16L8 16L8 17L9 17L9 14L8 14L8 15L7 15L7 14ZM22 14L22 15L21 15L21 16L22 16L22 15L23 15L23 14ZM19 15L19 16L20 16L20 15ZM36 16L36 17L37 17L37 16ZM40 16L40 18L39 18L39 19L40 19L40 18L41 18L41 16ZM0 18L0 20L1 20L1 18ZM9 18L9 19L10 19L10 18ZM17 20L17 21L18 21L18 20ZM40 20L40 21L41 21L41 20ZM14 21L14 23L13 23L13 22L12 22L12 24L14 24L14 23L15 23L15 24L16 24L16 25L17 25L17 24L16 24L16 22L15 22L15 21ZM19 21L19 22L18 22L18 23L19 23L19 22L20 22L20 21ZM27 21L27 22L28 22L28 21ZM34 21L34 22L32 22L32 23L33 23L33 24L32 24L32 25L31 25L31 26L32 26L32 25L34 25L34 24L35 24L35 23L34 23L34 22L35 22L35 21ZM27 23L27 24L30 24L30 23ZM3 24L3 26L5 26L5 25L4 25L4 24ZM6 24L6 25L7 25L7 26L6 26L6 27L7 27L7 26L8 26L8 25L7 25L7 24ZM9 24L9 25L10 25L10 24ZM15 26L15 27L17 27L17 26ZM33 26L33 27L34 27L34 26ZM1 27L1 29L2 29L2 27ZM11 27L11 28L12 28L12 27ZM18 27L18 28L19 28L19 27ZM22 27L22 28L23 28L23 30L22 30L22 32L21 32L21 31L20 31L20 32L21 32L21 33L22 33L22 32L23 32L23 30L24 30L24 28L25 28L25 29L26 29L26 28L25 28L25 27L24 27L24 28L23 28L23 27ZM3 28L3 29L4 29L4 28ZM16 28L16 29L13 29L13 31L16 31L16 30L17 30L17 31L18 31L18 30L17 30L17 28ZM33 28L33 29L32 29L32 30L33 30L33 29L34 29L34 28ZM5 30L5 31L7 31L7 30ZM34 30L34 31L35 31L35 30ZM15 32L15 33L16 33L16 32ZM37 32L37 36L39 36L39 34L38 34L38 32ZM23 33L23 34L22 34L22 35L21 35L21 36L22 36L22 35L23 35L23 36L24 36L24 33ZM33 33L33 36L36 36L36 33ZM34 34L34 35L35 35L35 34ZM12 36L12 37L13 37L13 36ZM34 37L34 38L36 38L36 37ZM37 38L37 39L38 39L38 38ZM18 39L18 40L19 40L19 39ZM0 0L0 7L7 7L7 0ZM1 1L1 6L6 6L6 1ZM2 2L2 5L5 5L5 2ZM34 0L34 7L41 7L41 0ZM35 1L35 6L40 6L40 1ZM36 2L36 5L39 5L39 2ZM0 34L0 41L7 41L7 34ZM1 35L1 40L6 40L6 35ZM2 36L2 39L5 39L5 36Z" fill="#000000"/></g></g></svg>
