<?xml version="1.0" encoding="UTF-8"?>
<svg xmlns="http://www.w3.org/2000/svg" version="1.1" width="200" height="200" viewBox="0 0 200 200"><rect x="0" y="0" width="200" height="200" fill="#ffffff"/><g transform="scale(4.878)"><g transform="translate(0,0)"><path fill-rule="evenodd" d="M9 0L9 2L8 2L8 4L9 4L9 2L10 2L10 0ZM12 0L12 4L11 4L11 3L10 3L10 4L11 4L11 5L9 5L9 6L8 6L8 7L9 7L9 9L10 9L10 10L11 10L11 13L12 13L12 14L10 14L10 13L9 13L9 12L10 12L10 11L9 11L9 10L8 10L8 12L6 12L6 13L8 13L8 15L7 15L7 14L4 14L4 15L3 15L3 14L2 14L2 16L3 16L3 17L2 17L2 18L0 18L0 20L1 20L1 19L3 19L3 21L4 21L4 20L5 20L5 24L4 24L4 22L3 22L3 24L0 24L0 25L1 25L1 26L0 26L0 27L2 27L2 29L3 29L3 28L6 28L6 29L4 29L4 30L3 30L3 31L2 31L2 30L1 30L1 29L0 29L0 33L2 33L2 32L4 32L4 31L5 31L5 33L8 33L8 35L9 35L9 36L8 36L8 38L12 38L12 40L11 40L11 39L9 39L9 41L12 41L12 40L14 40L14 41L15 41L15 40L14 40L14 39L15 39L15 38L16 38L16 41L18 41L18 40L17 40L17 39L18 39L18 38L16 38L16 37L17 37L17 36L20 36L20 37L19 37L19 38L20 38L20 40L19 40L19 41L20 41L20 40L21 40L21 41L23 41L23 40L24 40L24 38L23 38L23 37L25 37L25 39L26 39L26 37L27 37L27 41L29 41L29 39L30 39L30 41L34 41L34 40L35 40L35 41L36 41L36 39L37 39L37 38L38 38L38 37L37 37L37 33L38 33L38 34L39 34L39 36L40 36L40 38L39 38L39 39L38 39L38 41L39 41L39 39L40 39L40 40L41 40L41 36L40 36L40 34L39 34L39 31L41 31L41 30L38 30L38 29L40 29L40 27L41 27L41 25L39 25L39 27L36 27L36 28L38 28L38 29L35 29L35 28L34 28L34 30L37 30L37 31L36 31L36 32L34 32L34 31L32 31L32 30L31 30L31 29L29 29L29 30L28 30L28 31L27 31L27 32L29 32L29 33L27 33L27 35L26 35L26 37L25 37L25 34L26 34L26 31L24 31L24 30L27 30L27 29L28 29L28 24L27 24L27 25L26 25L26 26L24 26L24 25L25 25L25 23L29 23L29 24L30 24L30 25L29 25L29 26L30 26L30 25L33 25L33 26L31 26L31 28L33 28L33 26L35 26L35 24L34 24L34 21L35 21L35 23L36 23L36 21L37 21L37 23L39 23L39 24L40 24L40 23L39 23L39 22L41 22L41 21L39 21L39 20L40 20L40 19L41 19L41 18L40 18L40 19L37 19L37 20L36 20L36 18L37 18L37 17L35 17L35 20L34 20L34 19L32 19L32 18L33 18L33 17L34 17L34 16L35 16L35 14L34 14L34 13L36 13L36 14L37 14L37 15L36 15L36 16L40 16L40 17L41 17L41 11L40 11L40 9L39 9L39 8L37 8L37 9L35 9L35 10L36 10L36 11L34 11L34 10L33 10L33 6L32 6L32 7L31 7L31 6L30 6L30 8L29 8L29 9L28 9L28 8L27 8L27 4L28 4L28 5L30 5L30 4L31 4L31 5L33 5L33 4L31 4L31 3L32 3L32 1L31 1L31 0L28 0L28 2L27 2L27 4L26 4L26 5L24 5L24 4L23 4L23 5L22 5L22 3L24 3L24 2L25 2L25 0L24 0L24 2L23 2L23 0L22 0L22 3L21 3L21 2L20 2L20 3L19 3L19 2L18 2L18 0L17 0L17 1L16 1L16 0L15 0L15 1L14 1L14 0ZM13 1L13 4L12 4L12 5L11 5L11 7L10 7L10 6L9 6L9 7L10 7L10 8L11 8L11 10L12 10L12 11L14 11L14 13L13 13L13 12L12 12L12 13L13 13L13 14L12 14L12 17L13 17L13 18L15 18L15 17L14 17L14 16L13 16L13 14L14 14L14 15L15 15L15 14L14 14L14 13L15 13L15 11L17 11L17 13L16 13L16 14L17 14L17 13L18 13L18 12L19 12L19 14L20 14L20 15L19 15L19 16L20 16L20 17L19 17L19 19L18 19L18 17L16 17L16 18L17 18L17 22L16 22L16 19L14 19L14 20L13 20L13 21L15 21L15 22L16 22L16 24L15 24L15 23L12 23L12 21L11 21L11 19L12 19L12 18L10 18L10 17L11 17L11 15L10 15L10 17L9 17L9 16L7 16L7 15L4 15L4 18L3 18L3 19L5 19L5 20L8 20L8 19L5 19L5 18L7 18L7 17L9 17L9 18L10 18L10 20L9 20L9 21L11 21L11 23L10 23L10 22L9 22L9 23L10 23L10 25L9 25L9 24L7 24L7 23L8 23L8 22L7 22L7 21L6 21L6 22L7 22L7 23L6 23L6 24L5 24L5 26L7 26L7 27L6 27L6 28L7 28L7 29L6 29L6 30L5 30L5 31L6 31L6 32L8 32L8 33L9 33L9 35L11 35L11 34L12 34L12 36L13 36L13 35L15 35L15 34L16 34L16 33L17 33L17 34L18 34L18 35L20 35L20 36L21 36L21 37L20 37L20 38L21 38L21 39L22 39L22 36L21 36L21 35L23 35L23 33L22 33L22 32L23 32L23 29L22 29L22 32L21 32L21 33L22 33L22 34L18 34L18 33L19 33L19 32L20 32L20 31L21 31L21 30L20 30L20 31L19 31L19 30L18 30L18 31L17 31L17 32L16 32L16 31L13 31L13 30L16 30L16 29L17 29L17 28L18 28L18 29L19 29L19 28L20 28L20 29L21 29L21 28L24 28L24 29L25 29L25 28L24 28L24 27L23 27L23 25L24 25L24 24L22 24L22 25L21 25L21 23L19 23L19 24L18 24L18 21L20 21L20 22L21 22L21 21L22 21L22 20L23 20L23 21L24 21L24 22L23 22L23 23L24 23L24 22L25 22L25 21L26 21L26 22L27 22L27 21L26 21L26 19L25 19L25 18L24 18L24 19L22 19L22 18L23 18L23 17L22 17L22 16L21 16L21 15L23 15L23 16L24 16L24 15L25 15L25 16L26 16L26 17L27 17L27 16L28 16L28 17L29 17L29 18L28 18L28 21L29 21L29 22L30 22L30 23L31 23L31 24L32 24L32 23L33 23L33 22L30 22L30 21L31 21L31 20L29 20L29 19L31 19L31 17L30 17L30 15L32 15L32 16L33 16L33 13L32 13L32 14L30 14L30 12L28 12L28 13L27 13L27 14L28 14L28 15L27 15L27 16L26 16L26 14L24 14L24 13L25 13L25 12L27 12L27 9L26 9L26 10L24 10L24 8L26 8L26 6L25 6L25 7L24 7L24 5L23 5L23 11L21 11L21 10L22 10L22 8L20 8L20 5L19 5L19 4L18 4L18 5L19 5L19 8L20 8L20 11L18 11L18 10L17 10L17 9L18 9L18 8L17 8L17 9L16 9L16 8L14 8L14 6L15 6L15 7L16 7L16 6L17 6L17 7L18 7L18 6L17 6L17 5L16 5L16 4L17 4L17 3L16 3L16 1L15 1L15 2L14 2L14 1ZM29 1L29 2L28 2L28 3L29 3L29 4L30 4L30 3L31 3L31 2L30 2L30 1ZM20 3L20 4L21 4L21 3ZM12 5L12 7L11 7L11 8L12 8L12 7L13 7L13 5ZM21 5L21 7L22 7L22 5ZM28 6L28 7L29 7L29 6ZM3 8L3 9L1 9L1 11L2 11L2 12L0 12L0 13L2 13L2 12L3 12L3 13L5 13L5 12L3 12L3 11L4 11L4 10L3 10L3 9L5 9L5 11L7 11L7 10L6 10L6 9L8 9L8 8L6 8L6 9L5 9L5 8ZM30 8L30 9L29 9L29 10L30 10L30 11L32 11L32 12L33 12L33 10L30 10L30 9L32 9L32 8ZM12 9L12 10L13 10L13 9ZM14 9L14 11L15 11L15 9ZM37 9L37 10L38 10L38 12L40 12L40 11L39 11L39 10L38 10L38 9ZM21 12L21 13L20 13L20 14L22 14L22 13L24 13L24 12ZM36 12L36 13L37 13L37 14L38 14L38 15L40 15L40 13L39 13L39 14L38 14L38 13L37 13L37 12ZM29 14L29 15L28 15L28 16L29 16L29 15L30 15L30 14ZM17 15L17 16L18 16L18 15ZM6 16L6 17L7 17L7 16ZM20 17L20 18L22 18L22 17ZM20 19L20 20L21 20L21 19ZM35 20L35 21L36 21L36 20ZM37 20L37 21L38 21L38 20ZM0 21L0 22L2 22L2 21ZM3 24L3 25L2 25L2 27L4 27L4 26L3 26L3 25L4 25L4 24ZM6 24L6 25L7 25L7 24ZM11 24L11 25L10 25L10 26L11 26L11 27L10 27L10 29L11 29L11 30L10 30L10 31L8 31L8 30L9 30L9 28L8 28L8 30L6 30L6 31L8 31L8 32L10 32L10 34L11 34L11 31L12 31L12 34L13 34L13 31L12 31L12 29L14 29L14 28L12 28L12 27L13 27L13 26L14 26L14 25L15 25L15 24L13 24L13 25L12 25L12 24ZM11 25L11 26L12 26L12 25ZM17 25L17 26L16 26L16 27L15 27L15 28L17 28L17 27L19 27L19 26L20 26L20 25L19 25L19 26L18 26L18 25ZM36 25L36 26L37 26L37 25ZM21 26L21 27L20 27L20 28L21 28L21 27L22 27L22 26ZM26 26L26 27L27 27L27 26ZM11 28L11 29L12 29L12 28ZM18 31L18 32L19 32L19 31ZM29 31L29 32L30 32L30 31ZM37 31L37 32L38 32L38 31ZM14 32L14 33L16 33L16 32ZM24 32L24 34L25 34L25 32ZM40 32L40 33L41 33L41 32ZM29 33L29 34L28 34L28 35L29 35L29 34L32 34L32 33ZM33 33L33 36L36 36L36 33ZM34 34L34 35L35 35L35 34ZM16 35L16 36L15 36L15 37L16 37L16 36L17 36L17 35ZM30 35L30 36L31 36L31 35ZM28 36L28 38L31 38L31 37L29 37L29 36ZM32 37L32 39L31 39L31 40L33 40L33 37ZM34 37L34 39L35 39L35 38L36 38L36 37ZM25 40L25 41L26 41L26 40ZM0 0L0 7L7 7L7 0ZM1 1L1 6L6 6L6 1ZM2 2L2 5L5 5L5 2ZM34 0L34 7L41 7L41 0ZM35 1L35 6L40 6L40 1ZM36 2L36 5L39 5L39 2ZM0 34L0 41L7 41L7 34ZM1 35L1 40L6 40L6 35ZM2 36L2 39L5 39L5 36Z" fill="#000000"/></g></g></svg>
