<?xml version="1.0" encoding="UTF-8"?>
<svg xmlns="http://www.w3.org/2000/svg" version="1.1" width="200" height="200" viewBox="0 0 200 200"><rect x="0" y="0" width="200" height="200" fill="#ffffff"/><g transform="scale(6.897)"><g transform="translate(0,0)"><path fill-rule="evenodd" d="M9 0L9 1L10 1L10 2L8 2L8 4L10 4L10 2L11 2L11 3L12 3L12 2L14 2L14 3L15 3L15 4L17 4L17 5L15 5L15 6L14 6L14 7L13 7L13 6L12 6L12 4L11 4L11 5L10 5L10 7L11 7L11 6L12 6L12 7L13 7L13 8L11 8L11 9L13 9L13 10L11 10L11 12L12 12L12 13L9 13L9 12L10 12L10 11L9 11L9 9L8 9L8 8L6 8L6 9L5 9L5 8L3 8L3 9L2 9L2 10L1 10L1 11L2 11L2 12L1 12L1 13L0 13L0 14L1 14L1 16L0 16L0 21L2 21L2 19L3 19L3 20L4 20L4 21L8 21L8 23L10 23L10 25L9 25L9 24L8 24L8 26L9 26L9 28L10 28L10 27L11 27L11 29L13 29L13 28L14 28L14 29L15 29L15 28L14 28L14 26L15 26L15 25L17 25L17 26L16 26L16 27L17 27L17 28L16 28L16 29L17 29L17 28L18 28L18 29L19 29L19 28L20 28L20 29L21 29L21 27L22 27L22 28L24 28L24 29L28 29L28 28L27 28L27 27L29 27L29 26L27 26L27 25L28 25L28 24L29 24L29 23L28 23L28 24L26 24L26 25L25 25L25 22L27 22L27 21L26 21L26 20L27 20L27 19L26 19L26 18L29 18L29 17L28 17L28 16L29 16L29 14L27 14L27 13L29 13L29 11L28 11L28 10L27 10L27 8L25 8L25 9L24 9L24 10L23 10L23 9L22 9L22 10L23 10L23 12L22 12L22 11L21 11L21 12L19 12L19 10L18 10L18 9L19 9L19 8L18 8L18 9L16 9L16 10L15 10L15 6L16 6L16 8L17 8L17 6L18 6L18 7L19 7L19 6L20 6L20 7L21 7L21 4L20 4L20 3L21 3L21 1L20 1L20 0L14 0L14 1L13 1L13 0L11 0L11 1L10 1L10 0ZM15 1L15 2L17 2L17 4L18 4L18 3L20 3L20 1L19 1L19 2L18 2L18 1ZM13 4L13 5L14 5L14 4ZM8 6L8 7L9 7L9 6ZM13 8L13 9L14 9L14 8ZM20 8L20 10L21 10L21 8ZM6 9L6 10L4 10L4 13L3 13L3 12L2 12L2 13L1 13L1 14L2 14L2 13L3 13L3 15L2 15L2 16L1 16L1 18L4 18L4 17L5 17L5 19L4 19L4 20L9 20L9 21L10 21L10 22L12 22L12 23L11 23L11 26L12 26L12 28L13 28L13 25L12 25L12 24L13 24L13 22L12 22L12 21L14 21L14 22L15 22L15 21L16 21L16 22L17 22L17 23L16 23L16 24L18 24L18 26L19 26L19 27L21 27L21 26L22 26L22 27L25 27L25 28L26 28L26 26L24 26L24 25L19 25L19 24L20 24L20 20L22 20L22 19L20 19L20 15L21 15L21 18L22 18L22 16L24 16L24 17L23 17L23 18L24 18L24 17L25 17L25 16L26 16L26 17L27 17L27 16L28 16L28 15L27 15L27 16L26 16L26 13L25 13L25 16L24 16L24 12L23 12L23 14L22 14L22 12L21 12L21 14L20 14L20 15L19 15L19 16L18 16L18 17L19 17L19 18L18 18L18 19L17 19L17 20L18 20L18 21L16 21L16 19L15 19L15 21L14 21L14 20L13 20L13 19L14 19L14 18L15 18L15 16L16 16L16 18L17 18L17 14L19 14L19 13L17 13L17 12L18 12L18 10L17 10L17 11L16 11L16 13L17 13L17 14L15 14L15 15L13 15L13 13L14 13L14 12L13 12L13 11L15 11L15 10L13 10L13 11L12 11L12 12L13 12L13 13L12 13L12 14L11 14L11 15L10 15L10 14L9 14L9 13L8 13L8 12L7 12L7 11L6 11L6 10L8 10L8 9ZM25 9L25 10L26 10L26 11L27 11L27 12L28 12L28 11L27 11L27 10L26 10L26 9ZM6 12L6 13L7 13L7 12ZM6 14L6 15L7 15L7 16L6 16L6 17L7 17L7 18L6 18L6 19L10 19L10 21L12 21L12 19L13 19L13 17L14 17L14 16L13 16L13 15L12 15L12 16L13 16L13 17L11 17L11 18L10 18L10 17L7 17L7 16L8 16L8 15L7 15L7 14ZM3 15L3 17L4 17L4 16L5 16L5 15ZM9 15L9 16L10 16L10 15ZM11 18L11 19L12 19L12 18ZM18 19L18 20L19 20L19 19ZM23 19L23 20L26 20L26 19ZM21 21L21 24L24 24L24 21ZM28 21L28 22L29 22L29 21ZM22 22L22 23L23 23L23 22ZM14 23L14 24L15 24L15 23ZM18 23L18 24L19 24L19 23ZM0 0L0 7L7 7L7 0ZM1 1L1 6L6 6L6 1ZM2 2L2 5L5 5L5 2ZM22 0L22 7L29 7L29 0ZM23 1L23 6L28 6L28 1ZM24 2L24 5L27 5L27 2ZM0 22L0 29L7 29L7 22ZM1 23L1 28L6 28L6 23ZM2 24L2 27L5 27L5 24Z" fill="#000000"/></g></g></svg>
