<?xml version="1.0" encoding="UTF-8"?>
<svg xmlns="http://www.w3.org/2000/svg" version="1.1" width="200" height="200" viewBox="0 0 200 200"><rect x="0" y="0" width="200" height="200" fill="#ffffff"/><g transform="scale(4.878)"><g transform="translate(0,0)"><path fill-rule="evenodd" d="M8 0L8 3L9 3L9 5L8 5L8 9L7 9L7 8L6 8L6 9L7 9L7 10L5 10L5 11L4 11L4 10L3 10L3 11L2 11L2 10L0 10L0 13L1 13L1 15L0 15L0 19L3 19L3 16L4 16L4 17L5 17L5 19L4 19L4 20L3 20L3 22L0 22L0 23L2 23L2 24L1 24L1 25L0 25L0 28L1 28L1 27L2 27L2 28L3 28L3 30L2 30L2 29L0 29L0 33L1 33L1 30L2 30L2 31L3 31L3 32L2 32L2 33L3 33L3 32L4 32L4 31L5 31L5 32L6 32L6 33L8 33L8 34L9 34L9 33L11 33L11 34L10 34L10 35L11 35L11 36L12 36L12 37L10 37L10 38L9 38L9 36L8 36L8 39L9 39L9 40L10 40L10 41L11 41L11 40L10 40L10 39L11 39L11 38L12 38L12 37L13 37L13 38L17 38L17 39L16 39L16 40L14 40L14 39L13 39L13 40L12 40L12 41L13 41L13 40L14 40L14 41L16 41L16 40L17 40L17 41L20 41L20 40L18 40L18 38L17 38L17 37L18 37L18 36L20 36L20 37L21 37L21 38L20 38L20 39L22 39L22 37L23 37L23 38L26 38L26 37L28 37L28 38L27 38L27 40L28 40L28 41L32 41L32 40L33 40L33 41L34 41L34 40L33 40L33 39L32 39L32 37L33 37L33 38L34 38L34 39L35 39L35 40L36 40L36 39L39 39L39 40L40 40L40 38L41 38L41 36L40 36L40 34L41 34L41 33L40 33L40 32L41 32L41 31L40 31L40 30L41 30L41 29L40 29L40 28L41 28L41 27L40 27L40 26L41 26L41 23L40 23L40 26L39 26L39 24L37 24L37 25L36 25L36 23L34 23L34 22L36 22L36 21L39 21L39 20L36 20L36 19L35 19L35 17L36 17L36 18L37 18L37 19L40 19L40 18L41 18L41 16L40 16L40 18L37 18L37 17L36 17L36 16L38 16L38 17L39 17L39 16L38 16L38 15L37 15L37 13L36 13L36 16L35 16L35 17L34 17L34 16L33 16L33 15L34 15L34 14L33 14L33 13L34 13L34 12L33 12L33 11L34 11L34 10L35 10L35 12L38 12L38 11L40 11L40 10L41 10L41 8L38 8L38 9L40 9L40 10L37 10L37 9L36 9L36 8L33 8L33 6L32 6L32 7L31 7L31 5L32 5L32 4L33 4L33 2L31 2L31 1L33 1L33 0L30 0L30 2L31 2L31 3L30 3L30 4L29 4L29 1L27 1L27 0L25 0L25 2L24 2L24 3L23 3L23 2L22 2L22 1L23 1L23 0L18 0L18 1L17 1L17 3L16 3L16 0L10 0L10 1L12 1L12 2L10 2L10 3L9 3L9 0ZM13 1L13 2L12 2L12 4L11 4L11 3L10 3L10 5L9 5L9 7L10 7L10 8L9 8L9 9L8 9L8 10L7 10L7 11L6 11L6 12L5 12L5 13L3 13L3 12L4 12L4 11L3 11L3 12L1 12L1 13L2 13L2 14L4 14L4 15L5 15L5 16L7 16L7 15L5 15L5 13L6 13L6 14L7 14L7 13L8 13L8 14L11 14L11 16L10 16L10 17L13 17L13 16L14 16L14 18L13 18L13 19L15 19L15 17L17 17L17 16L14 16L14 15L13 15L13 14L15 14L15 15L16 15L16 14L19 14L19 13L16 13L16 14L15 14L15 13L14 13L14 11L15 11L15 12L16 12L16 10L17 10L17 11L19 11L19 12L20 12L20 11L21 11L21 12L23 12L23 9L24 9L24 10L25 10L25 11L26 11L26 12L24 12L24 13L25 13L25 14L23 14L23 15L20 15L20 16L19 16L19 15L18 15L18 18L19 18L19 17L21 17L21 18L22 18L22 17L23 17L23 19L24 19L24 20L22 20L22 21L26 21L26 22L28 22L28 23L26 23L26 26L25 26L25 23L24 23L24 22L23 22L23 25L24 25L24 26L23 26L23 27L22 27L22 28L21 28L21 29L20 29L20 25L19 25L19 24L21 24L21 25L22 25L22 24L21 24L21 22L20 22L20 23L19 23L19 22L18 22L18 21L19 21L19 20L18 20L18 19L17 19L17 20L18 20L18 21L17 21L17 22L15 22L15 23L13 23L13 22L14 22L14 21L15 21L15 20L14 20L14 21L13 21L13 22L12 22L12 20L11 20L11 19L12 19L12 18L11 18L11 19L10 19L10 18L8 18L8 19L6 19L6 20L5 20L5 22L4 22L4 23L6 23L6 24L7 24L7 25L6 25L6 26L7 26L7 25L10 25L10 24L12 24L12 26L13 26L13 27L14 27L14 29L13 29L13 28L11 28L11 26L10 26L10 28L11 28L11 29L9 29L9 28L8 28L8 27L3 27L3 26L4 26L4 24L2 24L2 25L3 25L3 26L2 26L2 27L3 27L3 28L7 28L7 29L5 29L5 31L6 31L6 32L8 32L8 33L9 33L9 32L12 32L12 33L13 33L13 37L17 37L17 36L18 36L18 35L19 35L19 33L20 33L20 36L21 36L21 37L22 37L22 36L23 36L23 35L24 35L24 36L26 36L26 35L27 35L27 36L28 36L28 37L29 37L29 38L28 38L28 40L32 40L32 39L29 39L29 38L31 38L31 37L32 37L32 35L30 35L30 33L32 33L32 32L35 32L35 31L37 31L37 32L40 32L40 31L38 31L38 30L39 30L39 26L38 26L38 28L36 28L36 29L34 29L34 28L33 28L33 27L34 27L34 25L35 25L35 26L36 26L36 27L37 27L37 26L36 26L36 25L35 25L35 24L34 24L34 25L32 25L32 24L33 24L33 23L32 23L32 22L34 22L34 21L36 21L36 20L35 20L35 19L34 19L34 18L31 18L31 17L30 17L30 19L32 19L32 20L29 20L29 16L30 16L30 15L28 15L28 17L27 17L27 16L26 16L26 14L27 14L27 12L30 12L30 11L32 11L32 10L34 10L34 9L32 9L32 8L31 8L31 9L28 9L28 8L30 8L30 5L31 5L31 4L32 4L32 3L31 3L31 4L30 4L30 5L29 5L29 4L28 4L28 3L27 3L27 2L26 2L26 3L25 3L25 4L23 4L23 3L22 3L22 2L21 2L21 3L19 3L19 5L20 5L20 4L21 4L21 3L22 3L22 5L21 5L21 8L20 8L20 11L19 11L19 10L17 10L17 9L19 9L19 8L17 8L17 7L18 7L18 6L17 6L17 5L18 5L18 4L16 4L16 3L15 3L15 2L14 2L14 1ZM19 1L19 2L20 2L20 1ZM26 3L26 4L27 4L27 3ZM12 4L12 5L11 5L11 6L10 6L10 7L11 7L11 6L12 6L12 7L13 7L13 4ZM14 5L14 8L16 8L16 7L17 7L17 6L16 6L16 5ZM22 5L22 9L21 9L21 10L22 10L22 9L23 9L23 8L24 8L24 9L25 9L25 10L26 10L26 9L27 9L27 8L28 8L28 7L29 7L29 5L27 5L27 6L26 6L26 7L27 7L27 8L24 8L24 7L25 7L25 5L24 5L24 7L23 7L23 5ZM15 6L15 7L16 7L16 6ZM19 6L19 7L20 7L20 6ZM27 6L27 7L28 7L28 6ZM2 8L2 9L5 9L5 8ZM12 8L12 11L11 11L11 12L12 12L12 13L11 13L11 14L12 14L12 13L13 13L13 12L12 12L12 11L14 11L14 9L13 9L13 8ZM9 9L9 10L8 10L8 11L9 11L9 12L8 12L8 13L9 13L9 12L10 12L10 9ZM31 9L31 10L32 10L32 9ZM35 9L35 10L36 10L36 11L37 11L37 10L36 10L36 9ZM27 10L27 11L30 11L30 10ZM6 12L6 13L7 13L7 12ZM31 12L31 14L32 14L32 15L33 15L33 14L32 14L32 13L33 13L33 12ZM21 13L21 14L22 14L22 13ZM28 13L28 14L30 14L30 13ZM38 13L38 14L41 14L41 13ZM2 15L2 16L3 16L3 15ZM23 15L23 17L24 17L24 18L25 18L25 19L27 19L27 20L28 20L28 21L29 21L29 20L28 20L28 18L27 18L27 17L24 17L24 16L25 16L25 15ZM21 16L21 17L22 17L22 16ZM32 16L32 17L33 17L33 16ZM6 17L6 18L7 18L7 17ZM9 19L9 22L8 22L8 24L9 24L9 22L10 22L10 21L11 21L11 20L10 20L10 19ZM0 20L0 21L2 21L2 20ZM6 20L6 21L8 21L8 20ZM32 20L32 21L30 21L30 22L32 22L32 21L34 21L34 20ZM40 20L40 21L41 21L41 20ZM6 22L6 23L7 23L7 22ZM11 22L11 23L12 23L12 24L13 24L13 23L12 23L12 22ZM15 23L15 24L14 24L14 27L15 27L15 26L17 26L17 27L16 27L16 28L15 28L15 29L16 29L16 28L17 28L17 29L18 29L18 31L17 31L17 30L16 30L16 31L15 31L15 30L13 30L13 29L11 29L11 30L9 30L9 29L8 29L8 30L6 30L6 31L8 31L8 32L9 32L9 31L13 31L13 32L16 32L16 31L17 31L17 32L18 32L18 31L19 31L19 30L20 30L20 29L18 29L18 28L19 28L19 27L18 27L18 26L17 26L17 25L15 25L15 24L17 24L17 23ZM18 23L18 24L19 24L19 23ZM27 24L27 25L28 25L28 26L27 26L27 28L25 28L25 27L24 27L24 28L22 28L22 29L21 29L21 30L22 30L22 29L23 29L23 31L20 31L20 33L21 33L21 32L22 32L22 34L24 34L24 35L26 35L26 33L27 33L27 31L26 31L26 33L25 33L25 34L24 34L24 32L25 32L25 31L24 31L24 30L26 30L26 29L27 29L27 30L29 30L29 31L28 31L28 33L30 33L30 32L29 32L29 31L30 31L30 30L29 30L29 29L31 29L31 28L32 28L32 29L33 29L33 30L32 30L32 31L33 31L33 30L34 30L34 31L35 31L35 30L34 30L34 29L33 29L33 28L32 28L32 27L33 27L33 26L32 26L32 25L30 25L30 24L29 24L29 25L28 25L28 24ZM29 26L29 28L28 28L28 29L29 29L29 28L31 28L31 27L32 27L32 26ZM17 27L17 28L18 28L18 27ZM24 28L24 29L25 29L25 28ZM36 29L36 30L38 30L38 29ZM15 33L15 34L16 34L16 35L14 35L14 36L17 36L17 35L18 35L18 34L17 34L17 33ZM33 33L33 36L36 36L36 33ZM37 33L37 36L39 36L39 34L38 34L38 33ZM27 34L27 35L29 35L29 34ZM34 34L34 35L35 35L35 34ZM21 35L21 36L22 36L22 35ZM30 36L30 37L31 37L31 36ZM34 37L34 38L36 38L36 37ZM37 37L37 38L39 38L39 37ZM25 39L25 40L23 40L23 41L25 41L25 40L26 40L26 39ZM0 0L0 7L7 7L7 0ZM1 1L1 6L6 6L6 1ZM2 2L2 5L5 5L5 2ZM34 0L34 7L41 7L41 0ZM35 1L35 6L40 6L40 1ZM36 2L36 5L39 5L39 2ZM0 34L0 41L7 41L7 34ZM1 35L1 40L6 40L6 35ZM2 36L2 39L5 39L5 36Z" fill="#000000"/></g></g></svg>
