<?xml version="1.0" encoding="UTF-8"?>
<svg xmlns="http://www.w3.org/2000/svg" version="1.1" width="200" height="200" viewBox="0 0 200 200"><rect x="0" y="0" width="200" height="200" fill="#ffffff"/><g transform="scale(4.878)"><g transform="translate(0,0)"><path fill-rule="evenodd" d="M8 0L8 3L9 3L9 4L10 4L10 7L11 7L11 8L12 8L12 9L11 9L11 11L9 11L9 10L10 10L10 9L9 9L9 5L8 5L8 9L9 9L9 10L6 10L6 11L4 11L4 12L3 12L3 10L2 10L2 9L5 9L5 8L2 8L2 9L0 9L0 11L2 11L2 13L3 13L3 14L4 14L4 15L2 15L2 14L1 14L1 15L0 15L0 16L5 16L5 17L4 17L4 18L3 18L3 17L2 17L2 18L1 18L1 19L0 19L0 20L1 20L1 21L0 21L0 22L1 22L1 21L2 21L2 23L3 23L3 21L2 21L2 20L1 20L1 19L3 19L3 20L4 20L4 19L5 19L5 20L6 20L6 21L7 21L7 22L6 22L6 23L5 23L5 21L4 21L4 23L5 23L5 24L6 24L6 25L5 25L5 27L7 27L7 28L4 28L4 24L3 24L3 25L2 25L2 24L1 24L1 23L0 23L0 25L1 25L1 26L0 26L0 27L1 27L1 28L0 28L0 33L1 33L1 29L2 29L2 27L3 27L3 30L2 30L2 31L4 31L4 30L5 30L5 32L3 32L3 33L5 33L5 32L6 32L6 33L7 33L7 32L8 32L8 34L9 34L9 35L10 35L10 36L8 36L8 39L9 39L9 38L12 38L12 39L13 39L13 40L14 40L14 39L13 39L13 38L12 38L12 37L14 37L14 38L15 38L15 37L16 37L16 38L17 38L17 37L20 37L20 40L22 40L22 39L23 39L23 40L24 40L24 41L26 41L26 40L28 40L28 41L32 41L32 40L33 40L33 41L34 41L34 40L33 40L33 39L35 39L35 40L36 40L36 39L37 39L37 40L40 40L40 38L41 38L41 37L40 37L40 36L41 36L41 35L40 35L40 34L41 34L41 33L40 33L40 32L41 32L41 31L40 31L40 30L41 30L41 29L39 29L39 32L37 32L37 31L38 31L38 30L37 30L37 29L35 29L35 30L34 30L34 31L35 31L35 32L33 32L33 31L32 31L32 30L33 30L33 29L34 29L34 28L33 28L33 29L32 29L32 30L31 30L31 31L30 31L30 32L28 32L28 31L29 31L29 30L28 30L28 29L31 29L31 28L27 28L27 27L29 27L29 26L32 26L32 27L34 27L34 26L35 26L35 25L36 25L36 27L35 27L35 28L38 28L38 26L39 26L39 27L40 27L40 26L41 26L41 23L39 23L39 22L37 22L37 21L39 21L39 20L36 20L36 19L35 19L35 17L36 17L36 18L37 18L37 19L38 19L38 18L37 18L37 17L39 17L39 16L37 16L37 15L39 15L39 14L41 14L41 12L39 12L39 14L37 14L37 13L36 13L36 14L35 14L35 15L36 15L36 16L35 16L35 17L34 17L34 16L33 16L33 17L30 17L30 16L29 16L29 15L30 15L30 14L31 14L31 12L29 12L29 13L28 13L28 12L27 12L27 11L28 11L28 10L27 10L27 11L26 11L26 8L25 8L25 10L23 10L23 11L25 11L25 12L26 12L26 13L25 13L25 14L29 14L29 15L28 15L28 16L29 16L29 17L30 17L30 19L31 19L31 18L32 18L32 20L33 20L33 21L31 21L31 20L30 20L30 21L31 21L31 22L27 22L27 24L26 24L26 23L25 23L25 22L26 22L26 21L25 21L25 22L24 22L24 21L23 21L23 20L28 20L28 21L29 21L29 20L28 20L28 19L29 19L29 18L27 18L27 19L26 19L26 18L23 18L23 17L21 17L21 18L20 18L20 19L19 19L19 20L22 20L22 21L23 21L23 22L21 22L21 21L19 21L19 22L17 22L17 20L16 20L16 19L18 19L18 18L16 18L16 17L17 17L17 16L18 16L18 17L20 17L20 16L21 16L21 15L19 15L19 14L18 14L18 13L19 13L19 12L21 12L21 11L20 11L20 9L19 9L19 11L18 11L18 13L17 13L17 12L15 12L15 14L14 14L14 10L18 10L18 9L17 9L17 6L16 6L16 7L15 7L15 5L14 5L14 7L13 7L13 6L12 6L12 7L11 7L11 5L13 5L13 3L14 3L14 4L16 4L16 5L21 5L21 6L20 6L20 7L21 7L21 6L22 6L22 8L21 8L21 10L22 10L22 9L23 9L23 6L22 6L22 3L23 3L23 2L25 2L25 0L24 0L24 1L23 1L23 0L21 0L21 4L19 4L19 3L20 3L20 0L19 0L19 1L18 1L18 0L16 0L16 1L14 1L14 0L12 0L12 1L11 1L11 0L10 0L10 1L11 1L11 2L9 2L9 0ZM26 0L26 1L27 1L27 2L26 2L26 3L28 3L28 4L29 4L29 3L31 3L31 2L30 2L30 0L29 0L29 1L27 1L27 0ZM31 0L31 1L32 1L32 2L33 2L33 1L32 1L32 0ZM12 1L12 2L14 2L14 3L17 3L17 4L18 4L18 3L19 3L19 2L18 2L18 1L16 1L16 2L14 2L14 1ZM22 1L22 2L23 2L23 1ZM10 3L10 4L12 4L12 3ZM23 4L23 5L24 5L24 4ZM25 4L25 6L24 6L24 7L25 7L25 6L26 6L26 7L27 7L27 9L31 9L31 10L30 10L30 11L31 11L31 10L32 10L32 9L33 9L33 10L34 10L34 11L33 11L33 12L32 12L32 13L33 13L33 14L32 14L32 15L34 15L34 13L35 13L35 10L36 10L36 11L37 11L37 12L38 12L38 11L40 11L40 10L41 10L41 8L38 8L38 9L40 9L40 10L37 10L37 9L36 9L36 8L33 8L33 4L30 4L30 8L29 8L29 5L27 5L27 4ZM26 5L26 6L27 6L27 7L28 7L28 6L27 6L27 5ZM31 5L31 9L32 9L32 5ZM18 6L18 8L19 8L19 6ZM12 7L12 8L13 8L13 9L12 9L12 10L14 10L14 8L13 8L13 7ZM6 8L6 9L7 9L7 8ZM6 11L6 12L7 12L7 13L4 13L4 14L7 14L7 15L6 15L6 16L7 16L7 17L5 17L5 19L6 19L6 20L7 20L7 21L8 21L8 20L9 20L9 19L10 19L10 18L9 18L9 19L6 19L6 18L7 18L7 17L8 17L8 15L9 15L9 14L8 14L8 13L9 13L9 12L7 12L7 11ZM11 11L11 12L10 12L10 13L12 13L12 14L11 14L11 16L13 16L13 17L12 17L12 19L11 19L11 21L10 21L10 22L7 22L7 23L6 23L6 24L7 24L7 25L6 25L6 26L7 26L7 27L8 27L8 29L10 29L10 30L8 30L8 31L10 31L10 30L11 30L11 32L13 32L13 31L12 31L12 30L13 30L13 29L16 29L16 31L15 31L15 30L14 30L14 31L15 31L15 32L17 32L17 33L19 33L19 35L18 35L18 34L15 34L15 33L12 33L12 34L13 34L13 35L11 35L11 36L13 36L13 35L14 35L14 36L15 36L15 35L18 35L18 36L23 36L23 37L24 37L24 40L26 40L26 38L28 38L28 40L32 40L32 39L33 39L33 38L36 38L36 37L32 37L32 36L29 36L29 37L24 37L24 35L25 35L25 36L28 36L28 35L29 35L29 33L27 33L27 32L25 32L25 33L27 33L27 34L28 34L28 35L25 35L25 34L23 34L23 35L22 35L22 33L23 33L23 30L25 30L25 29L26 29L26 30L27 30L27 29L26 29L26 28L23 28L23 29L22 29L22 28L21 28L21 27L23 27L23 26L24 26L24 27L25 27L25 26L26 26L26 27L27 27L27 26L28 26L28 25L29 25L29 24L30 24L30 25L32 25L32 26L33 26L33 25L35 25L35 24L36 24L36 25L39 25L39 26L40 26L40 24L39 24L39 23L37 23L37 24L36 24L36 23L35 23L35 22L36 22L36 21L35 21L35 19L34 19L34 18L33 18L33 20L34 20L34 21L33 21L33 22L31 22L31 24L30 24L30 23L29 23L29 24L28 24L28 25L27 25L27 26L26 26L26 25L25 25L25 23L24 23L24 24L23 24L23 23L22 23L22 25L21 25L21 24L20 24L20 25L19 25L19 23L17 23L17 22L16 22L16 21L15 21L15 19L16 19L16 18L15 18L15 17L14 17L14 15L13 15L13 13L12 13L12 11ZM0 12L0 13L1 13L1 12ZM33 12L33 13L34 13L34 12ZM16 13L16 16L17 16L17 13ZM20 13L20 14L21 14L21 13ZM23 13L23 15L22 15L22 16L23 16L23 15L24 15L24 13ZM29 13L29 14L30 14L30 13ZM18 15L18 16L19 16L19 15ZM9 16L9 17L10 17L10 16ZM25 16L25 17L27 17L27 16ZM36 16L36 17L37 17L37 16ZM40 16L40 18L39 18L39 19L40 19L40 18L41 18L41 16ZM14 18L14 19L15 19L15 18ZM21 18L21 19L23 19L23 18ZM13 20L13 21L12 21L12 23L13 23L13 21L14 21L14 20ZM40 20L40 21L41 21L41 20ZM34 21L34 22L35 22L35 21ZM14 22L14 23L16 23L16 22ZM20 22L20 23L21 23L21 22ZM9 23L9 24L10 24L10 25L8 25L8 26L10 26L10 27L12 27L12 28L11 28L11 30L12 30L12 29L13 29L13 27L14 27L14 26L12 26L12 25L11 25L11 23ZM32 23L32 25L33 25L33 24L34 24L34 23ZM15 24L15 25L16 25L16 24ZM18 25L18 26L19 26L19 28L16 28L16 29L20 29L20 26L19 26L19 25ZM22 25L22 26L23 26L23 25ZM24 25L24 26L25 26L25 25ZM16 26L16 27L17 27L17 26ZM5 29L5 30L7 30L7 29ZM18 30L18 31L17 31L17 32L18 32L18 31L19 31L19 32L20 32L20 33L21 33L21 32L22 32L22 31L21 31L21 30L20 30L20 31L19 31L19 30ZM35 30L35 31L36 31L36 30ZM6 31L6 32L7 32L7 31ZM20 31L20 32L21 32L21 31ZM30 32L30 33L31 33L31 34L30 34L30 35L31 35L31 34L32 34L32 33L31 33L31 32ZM10 33L10 34L11 34L11 33ZM33 33L33 36L36 36L36 33ZM38 33L38 36L37 36L37 37L38 37L38 36L40 36L40 35L39 35L39 33ZM20 34L20 35L21 35L21 34ZM34 34L34 35L35 35L35 34ZM21 37L21 38L22 38L22 37ZM30 37L30 38L29 38L29 39L31 39L31 38L32 38L32 37ZM37 38L37 39L38 39L38 38ZM10 39L10 40L9 40L9 41L12 41L12 40L11 40L11 39ZM16 39L16 40L17 40L17 41L18 41L18 40L19 40L19 39ZM0 0L0 7L7 7L7 0ZM1 1L1 6L6 6L6 1ZM2 2L2 5L5 5L5 2ZM34 0L34 7L41 7L41 0ZM35 1L35 6L40 6L40 1ZM36 2L36 5L39 5L39 2ZM0 34L0 41L7 41L7 34ZM1 35L1 40L6 40L6 35ZM2 36L2 39L5 39L5 36Z" fill="#000000"/></g></g></svg>
