<?xml version="1.0" encoding="UTF-8"?>
<svg xmlns="http://www.w3.org/2000/svg" version="1.1" width="200" height="200" viewBox="0 0 200 200"><rect x="0" y="0" width="200" height="200" fill="#ffffff"/><g transform="scale(4.878)"><g transform="translate(0,0)"><path fill-rule="evenodd" d="M8 0L8 3L10 3L10 4L9 4L9 5L8 5L8 9L7 9L7 8L6 8L6 9L5 9L5 8L2 8L2 9L0 9L0 10L1 10L1 11L3 11L3 14L4 14L4 17L3 17L3 18L2 18L2 16L1 16L1 15L2 15L2 14L1 14L1 13L2 13L2 12L1 12L1 13L0 13L0 14L1 14L1 15L0 15L0 18L2 18L2 19L0 19L0 20L2 20L2 21L3 21L3 22L1 22L1 21L0 21L0 22L1 22L1 23L3 23L3 24L0 24L0 25L1 25L1 28L0 28L0 33L1 33L1 29L2 29L2 27L3 27L3 28L4 28L4 27L5 27L5 29L3 29L3 30L6 30L6 31L4 31L4 33L8 33L8 34L9 34L9 35L11 35L11 34L12 34L12 33L13 33L13 34L14 34L14 36L16 36L16 37L13 37L13 40L12 40L12 41L14 41L14 39L16 39L16 40L15 40L15 41L17 41L17 40L18 40L18 41L20 41L20 37L22 37L22 36L19 36L19 35L18 35L18 36L19 36L19 37L18 37L18 38L19 38L19 39L17 39L17 36L16 36L16 35L17 35L17 34L19 34L19 33L20 33L20 32L21 32L21 34L20 34L20 35L21 35L21 34L22 34L22 35L25 35L25 34L22 34L22 33L24 33L24 31L23 31L23 32L22 32L22 30L23 30L23 29L24 29L24 30L25 30L25 33L29 33L29 34L27 34L27 36L24 36L24 37L23 37L23 39L22 39L22 40L21 40L21 41L23 41L23 40L24 40L24 41L25 41L25 40L26 40L26 41L27 41L27 40L28 40L28 41L32 41L32 40L33 40L33 41L34 41L34 40L33 40L33 39L32 39L32 38L31 38L31 37L29 37L29 36L32 36L32 37L33 37L33 38L34 38L34 39L35 39L35 40L36 40L36 39L37 39L37 40L40 40L40 38L41 38L41 37L39 37L39 36L37 36L37 35L40 35L40 36L41 36L41 35L40 35L40 34L41 34L41 33L39 33L39 32L41 32L41 31L40 31L40 30L41 30L41 29L40 29L40 26L41 26L41 23L39 23L39 24L40 24L40 26L39 26L39 25L36 25L36 24L37 24L37 21L38 21L38 22L39 22L39 20L36 20L36 19L35 19L35 17L36 17L36 18L38 18L38 17L39 17L39 18L41 18L41 16L40 16L40 17L39 17L39 16L37 16L37 15L40 15L40 14L41 14L41 13L40 13L40 12L41 12L41 11L40 11L40 10L41 10L41 8L38 8L38 9L40 9L40 10L37 10L37 9L36 9L36 8L33 8L33 9L31 9L31 8L32 8L32 7L33 7L33 4L30 4L30 7L31 7L31 8L29 8L29 4L28 4L28 5L27 5L27 4L25 4L25 3L24 3L24 2L25 2L25 0L23 0L23 1L24 1L24 2L23 2L23 3L22 3L22 2L21 2L21 1L22 1L22 0L21 0L21 1L20 1L20 0L18 0L18 1L16 1L16 0L15 0L15 1L13 1L13 2L12 2L12 1L11 1L11 0L10 0L10 1L9 1L9 0ZM26 0L26 1L27 1L27 2L26 2L26 3L33 3L33 1L32 1L32 0L31 0L31 1L32 1L32 2L30 2L30 0L29 0L29 1L27 1L27 0ZM18 1L18 2L19 2L19 1ZM11 2L11 3L12 3L12 2ZM13 2L13 3L15 3L15 4L12 4L12 5L11 5L11 4L10 4L10 5L11 5L11 7L10 7L10 6L9 6L9 7L10 7L10 8L9 8L9 9L8 9L8 10L12 10L12 11L10 11L10 12L9 12L9 11L6 11L6 12L5 12L5 11L4 11L4 9L3 9L3 11L4 11L4 14L5 14L5 16L7 16L7 17L6 17L6 18L4 18L4 19L3 19L3 21L4 21L4 22L3 22L3 23L4 23L4 24L3 24L3 25L2 25L2 26L3 26L3 27L4 27L4 26L3 26L3 25L5 25L5 27L6 27L6 28L7 28L7 29L6 29L6 30L7 30L7 31L6 31L6 32L7 32L7 31L9 31L9 32L10 32L10 33L11 33L11 32L10 32L10 30L9 30L9 29L11 29L11 31L12 31L12 32L13 32L13 33L14 33L14 32L15 32L15 34L16 34L16 33L17 33L17 32L18 32L18 33L19 33L19 31L21 31L21 30L19 30L19 31L18 31L18 30L17 30L17 29L19 29L19 28L18 28L18 27L17 27L17 25L19 25L19 27L20 27L20 28L21 28L21 29L23 29L23 27L24 27L24 28L26 28L26 27L27 27L27 28L28 28L28 27L29 27L29 28L31 28L31 29L28 29L28 30L30 30L30 31L28 31L28 32L31 32L31 30L32 30L32 31L33 31L33 32L35 32L35 31L36 31L36 29L37 29L37 30L39 30L39 26L38 26L38 28L36 28L36 29L35 29L35 26L36 26L36 25L35 25L35 24L36 24L36 23L35 23L35 22L36 22L36 21L35 21L35 19L34 19L34 18L33 18L33 17L32 17L32 16L34 16L34 17L35 17L35 16L36 16L36 17L37 17L37 16L36 16L36 13L37 13L37 14L40 14L40 13L39 13L39 12L40 12L40 11L38 11L38 12L37 12L37 11L35 11L35 13L34 13L34 12L33 12L33 11L34 11L34 9L33 9L33 11L32 11L32 10L31 10L31 9L27 9L27 7L28 7L28 6L27 6L27 7L26 7L26 6L25 6L25 7L24 7L24 6L23 6L23 5L25 5L25 4L24 4L24 3L23 3L23 5L22 5L22 4L21 4L21 3L20 3L20 4L19 4L19 3L18 3L18 4L16 4L16 3L15 3L15 2ZM14 5L14 7L15 7L15 8L13 8L13 9L12 9L12 7L13 7L13 6L12 6L12 7L11 7L11 8L10 8L10 9L12 9L12 10L13 10L13 11L12 11L12 12L11 12L11 15L12 15L12 16L14 16L14 19L15 19L15 20L13 20L13 18L12 18L12 17L11 17L11 16L10 16L10 13L9 13L9 12L6 12L6 13L5 13L5 14L6 14L6 15L8 15L8 16L9 16L9 17L8 17L8 18L9 18L9 19L7 19L7 18L6 18L6 19L4 19L4 21L5 21L5 22L6 22L6 23L9 23L9 24L6 24L6 25L8 25L8 26L6 26L6 27L8 27L8 26L9 26L9 24L10 24L10 25L11 25L11 26L12 26L12 27L14 27L14 31L13 31L13 32L14 32L14 31L15 31L15 30L16 30L16 32L17 32L17 30L16 30L16 29L15 29L15 27L16 27L16 28L17 28L17 27L16 27L16 25L15 25L15 26L12 26L12 25L14 25L14 24L16 24L16 23L17 23L17 24L20 24L20 22L21 22L21 23L22 23L22 22L24 22L24 23L25 23L25 24L22 24L22 25L21 25L21 26L22 26L22 25L23 25L23 26L24 26L24 27L26 27L26 26L27 26L27 27L28 27L28 26L27 26L27 25L29 25L29 26L30 26L30 25L31 25L31 26L32 26L32 25L33 25L33 27L31 27L31 28L33 28L33 29L32 29L32 30L33 30L33 29L34 29L34 28L33 28L33 27L34 27L34 26L35 26L35 25L33 25L33 24L34 24L34 23L32 23L32 25L31 25L31 24L28 24L28 23L29 23L29 22L30 22L30 23L31 23L31 22L33 22L33 21L34 21L34 22L35 22L35 21L34 21L34 20L33 20L33 19L32 19L32 20L33 20L33 21L31 21L31 20L30 20L30 21L29 21L29 20L28 20L28 19L29 19L29 18L26 18L26 19L27 19L27 20L26 20L26 21L25 21L25 22L24 22L24 20L23 20L23 19L24 19L24 13L27 13L27 14L30 14L30 16L29 16L29 15L28 15L28 16L29 16L29 17L31 17L31 18L30 18L30 19L31 19L31 18L32 18L32 17L31 17L31 12L32 12L32 13L33 13L33 14L32 14L32 15L34 15L34 13L33 13L33 12L32 12L32 11L31 11L31 10L27 10L27 12L26 12L26 11L25 11L25 12L24 12L24 11L23 11L23 12L21 12L21 11L22 11L22 10L23 10L23 9L24 9L24 10L26 10L26 8L23 8L23 9L22 9L22 10L21 10L21 9L20 9L20 8L21 8L21 6L20 6L20 8L19 8L19 6L18 6L18 9L17 9L17 11L16 11L16 12L18 12L18 14L17 14L17 15L16 15L16 13L15 13L15 12L13 12L13 11L14 11L14 10L16 10L16 9L15 9L15 8L17 8L17 5L16 5L16 7L15 7L15 5ZM31 5L31 7L32 7L32 5ZM22 6L22 7L23 7L23 6ZM6 9L6 10L7 10L7 9ZM18 9L18 10L19 10L19 11L18 11L18 12L19 12L19 16L18 16L18 15L17 15L17 16L16 16L16 15L14 15L14 16L16 16L16 17L15 17L15 19L16 19L16 20L15 20L15 21L14 21L14 23L13 23L13 22L12 22L12 23L10 23L10 20L9 20L9 21L8 21L8 20L7 20L7 19L6 19L6 20L5 20L5 21L6 21L6 22L9 22L9 23L10 23L10 24L14 24L14 23L16 23L16 21L17 21L17 23L19 23L19 22L18 22L18 20L20 20L20 21L23 21L23 20L22 20L22 19L23 19L23 15L22 15L22 14L23 14L23 13L24 13L24 12L23 12L23 13L22 13L22 14L21 14L21 12L20 12L20 9ZM35 9L35 10L36 10L36 9ZM28 11L28 13L29 13L29 12L30 12L30 11ZM12 12L12 15L13 15L13 14L14 14L14 13L13 13L13 12ZM6 13L6 14L8 14L8 15L9 15L9 13ZM20 15L20 16L19 16L19 17L18 17L18 16L17 16L17 18L19 18L19 17L20 17L20 20L21 20L21 18L22 18L22 17L20 17L20 16L21 16L21 15ZM26 15L26 17L27 17L27 15ZM10 18L10 19L11 19L11 21L13 21L13 20L12 20L12 19L11 19L11 18ZM17 19L17 20L18 20L18 19ZM6 20L6 21L7 21L7 20ZM40 20L40 21L41 21L41 20ZM27 21L27 22L25 22L25 23L26 23L26 24L25 24L25 25L24 25L24 26L26 26L26 25L27 25L27 22L29 22L29 21ZM30 21L30 22L31 22L31 21ZM9 27L9 28L8 28L8 29L9 29L9 28L11 28L11 29L13 29L13 28L11 28L11 27ZM21 27L21 28L22 28L22 27ZM34 30L34 31L35 31L35 30ZM2 31L2 33L3 33L3 31ZM37 31L37 32L39 32L39 31ZM30 33L30 35L31 35L31 34L32 34L32 33ZM33 33L33 36L36 36L36 33ZM37 33L37 34L39 34L39 33ZM34 34L34 35L35 35L35 34ZM12 35L12 36L13 36L13 35ZM28 35L28 36L27 36L27 38L25 38L25 39L27 39L27 38L29 38L29 39L28 39L28 40L32 40L32 39L30 39L30 38L29 38L29 37L28 37L28 36L29 36L29 35ZM8 36L8 39L10 39L10 41L11 41L11 39L10 39L10 38L12 38L12 37L10 37L10 38L9 38L9 36ZM34 37L34 38L36 38L36 37ZM37 38L37 39L38 39L38 38ZM0 0L0 7L7 7L7 0ZM1 1L1 6L6 6L6 1ZM2 2L2 5L5 5L5 2ZM34 0L34 7L41 7L41 0ZM35 1L35 6L40 6L40 1ZM36 2L36 5L39 5L39 2ZM0 34L0 41L7 41L7 34ZM1 35L1 40L6 40L6 35ZM2 36L2 39L5 39L5 36Z" fill="#000000"/></g></g></svg>
