<?xml version="1.0" encoding="UTF-8"?>
<svg xmlns="http://www.w3.org/2000/svg" version="1.1" width="200" height="200" viewBox="0 0 200 200"><rect x="0" y="0" width="200" height="200" fill="#ffffff"/><g transform="scale(4.878)"><g transform="translate(0,0)"><path fill-rule="evenodd" d="M8 0L8 3L10 3L10 2L9 2L9 1L10 1L10 0ZM12 0L12 1L11 1L11 2L12 2L12 3L11 3L11 4L9 4L9 5L8 5L8 10L6 10L6 11L5 11L5 10L4 10L4 9L5 9L5 8L2 8L2 9L0 9L0 11L2 11L2 12L0 12L0 17L2 17L2 16L1 16L1 14L4 14L4 15L3 15L3 16L5 16L5 15L7 15L7 16L6 16L6 17L4 17L4 18L3 18L3 20L2 20L2 19L1 19L1 20L0 20L0 21L2 21L2 22L1 22L1 23L0 23L0 26L1 26L1 27L0 27L0 28L3 28L3 29L2 29L2 31L4 31L4 32L2 32L2 33L5 33L5 31L8 31L8 32L6 32L6 33L8 33L8 34L10 34L10 35L9 35L9 36L8 36L8 39L9 39L9 38L10 38L10 41L11 41L11 39L13 39L13 40L12 40L12 41L15 41L15 40L17 40L17 41L18 41L18 40L19 40L19 39L20 39L20 40L22 40L22 38L24 38L24 39L23 39L23 41L26 41L26 40L25 40L25 39L26 39L26 37L29 37L29 36L31 36L31 35L32 35L32 38L34 38L34 39L35 39L35 40L36 40L36 39L37 39L37 40L40 40L40 38L41 38L41 37L40 37L40 36L41 36L41 35L40 35L40 34L41 34L41 33L39 33L39 32L40 32L40 30L41 30L41 29L39 29L39 30L38 30L38 31L39 31L39 32L37 32L37 29L36 29L36 28L38 28L38 26L39 26L39 28L41 28L41 27L40 27L40 26L41 26L41 23L39 23L39 22L37 22L37 21L39 21L39 20L36 20L36 19L35 19L35 17L36 17L36 18L38 18L38 17L39 17L39 18L41 18L41 16L40 16L40 17L39 17L39 16L37 16L37 14L38 14L38 13L36 13L36 16L35 16L35 17L34 17L34 16L33 16L33 17L31 17L31 15L30 15L30 16L29 16L29 15L28 15L28 16L29 16L29 17L31 17L31 18L30 18L30 19L31 19L31 18L34 18L34 19L35 19L35 21L34 21L34 20L32 20L32 21L31 21L31 20L30 20L30 21L31 21L31 22L29 22L29 23L30 23L30 24L28 24L28 22L26 22L26 21L29 21L29 20L27 20L27 19L28 19L28 18L27 18L27 16L26 16L26 15L27 15L27 14L29 14L29 13L30 13L30 14L31 14L31 12L29 12L29 13L28 13L28 12L27 12L27 11L28 11L28 10L27 10L27 9L30 9L30 11L31 11L31 10L32 10L32 11L33 11L33 12L32 12L32 13L33 13L33 14L32 14L32 15L34 15L34 13L35 13L35 12L38 12L38 11L39 11L39 14L41 14L41 12L40 12L40 10L41 10L41 8L38 8L38 9L40 9L40 10L37 10L37 9L36 9L36 8L33 8L33 5L32 5L32 4L33 4L33 3L32 3L32 2L33 2L33 1L32 1L32 0L31 0L31 1L32 1L32 2L30 2L30 0L29 0L29 1L27 1L27 0L26 0L26 1L27 1L27 2L26 2L26 3L28 3L28 4L29 4L29 3L32 3L32 4L30 4L30 8L25 8L25 6L26 6L26 7L27 7L27 6L28 6L28 7L29 7L29 5L27 5L27 4L26 4L26 5L25 5L25 0L24 0L24 2L23 2L23 1L22 1L22 0L21 0L21 1L20 1L20 3L22 3L22 4L21 4L21 5L22 5L22 8L21 8L21 6L20 6L20 5L19 5L19 3L18 3L18 2L19 2L19 1L18 1L18 0L17 0L17 1L16 1L16 0L15 0L15 3L14 3L14 2L13 2L13 0ZM16 2L16 3L17 3L17 5L14 5L14 3L12 3L12 4L11 4L11 7L10 7L10 6L9 6L9 7L10 7L10 8L11 8L11 9L10 9L10 10L11 10L11 11L9 11L9 12L8 12L8 11L6 11L6 12L7 12L7 13L5 13L5 12L4 12L4 10L2 10L2 11L3 11L3 12L2 12L2 13L3 13L3 12L4 12L4 13L5 13L5 14L8 14L8 13L10 13L10 12L11 12L11 11L12 11L12 14L13 14L13 16L12 16L12 15L11 15L11 14L10 14L10 15L11 15L11 16L9 16L9 17L8 17L8 18L7 18L7 17L6 17L6 18L5 18L5 19L4 19L4 20L5 20L5 23L6 23L6 24L7 24L7 25L6 25L6 26L5 26L5 25L4 25L4 24L2 24L2 23L1 23L1 25L4 25L4 26L2 26L2 27L3 27L3 28L4 28L4 26L5 26L5 28L8 28L8 29L6 29L6 30L8 30L8 31L11 31L11 33L10 33L10 32L8 32L8 33L10 33L10 34L11 34L11 35L10 35L10 36L12 36L12 34L13 34L13 33L14 33L14 34L15 34L15 33L16 33L16 35L17 35L17 36L15 36L15 35L13 35L13 36L15 36L15 38L14 38L14 37L11 37L11 38L14 38L14 39L15 39L15 38L18 38L18 39L19 39L19 38L18 38L18 34L17 34L17 33L16 33L16 32L15 32L15 31L16 31L16 30L17 30L17 31L18 31L18 30L19 30L19 32L20 32L20 33L22 33L22 34L21 34L21 35L19 35L19 37L20 37L20 36L21 36L21 37L24 37L24 38L25 38L25 37L24 37L24 36L26 36L26 35L24 35L24 36L21 36L21 35L22 35L22 34L26 34L26 33L27 33L27 34L29 34L29 33L27 33L27 32L26 32L26 33L25 33L25 31L23 31L23 30L24 30L24 29L25 29L25 30L27 30L27 29L25 29L25 28L24 28L24 27L25 27L25 26L26 26L26 25L27 25L27 26L29 26L29 27L28 27L28 28L31 28L31 29L28 29L28 30L32 30L32 31L33 31L33 32L36 32L36 29L35 29L35 28L36 28L36 27L37 27L37 26L36 26L36 25L39 25L39 26L40 26L40 24L39 24L39 23L37 23L37 24L36 24L36 23L35 23L35 22L36 22L36 21L35 21L35 22L34 22L34 21L32 21L32 22L31 22L31 24L33 24L33 25L32 25L32 26L31 26L31 25L30 25L30 26L29 26L29 25L28 25L28 24L27 24L27 23L25 23L25 21L26 21L26 20L25 20L25 19L27 19L27 18L24 18L24 21L22 21L22 20L23 20L23 19L22 19L22 18L21 18L21 17L19 17L19 16L20 16L20 15L21 15L21 16L22 16L22 15L23 15L23 13L22 13L22 12L23 12L23 11L25 11L25 10L26 10L26 11L27 11L27 10L26 10L26 9L25 9L25 8L24 8L24 6L25 6L25 5L24 5L24 3L23 3L23 2L22 2L22 3L23 3L23 9L25 9L25 10L23 10L23 11L22 11L22 12L21 12L21 13L20 13L20 11L21 11L21 10L22 10L22 9L21 9L21 8L20 8L20 9L19 9L19 8L18 8L18 6L17 6L17 5L18 5L18 3L17 3L17 2ZM12 4L12 5L13 5L13 6L12 6L12 10L14 10L14 11L15 11L15 12L16 12L16 13L15 13L15 14L14 14L14 20L15 20L15 21L18 21L18 22L19 22L19 23L18 23L18 24L17 24L17 23L16 23L16 22L15 22L15 23L14 23L14 24L13 24L13 19L12 19L12 20L11 20L11 22L10 22L10 21L8 21L8 22L9 22L9 23L8 23L8 26L6 26L6 27L8 27L8 26L11 26L11 27L9 27L9 29L8 29L8 30L10 30L10 28L11 28L11 31L12 31L12 33L13 33L13 31L14 31L14 30L15 30L15 29L18 29L18 28L17 28L17 26L19 26L19 25L20 25L20 28L22 28L22 29L19 29L19 30L20 30L20 31L21 31L21 32L23 32L23 33L24 33L24 32L23 32L23 31L21 31L21 30L22 30L22 29L23 29L23 27L24 27L24 25L25 25L25 24L24 24L24 23L23 23L23 22L22 22L22 21L21 21L21 22L22 22L22 23L23 23L23 24L20 24L20 22L19 22L19 21L20 21L20 20L19 20L19 19L21 19L21 18L18 18L18 19L16 19L16 18L17 18L17 15L16 15L16 13L17 13L17 12L18 12L18 10L19 10L19 9L18 9L18 8L17 8L17 6L16 6L16 8L15 8L15 9L14 9L14 8L13 8L13 6L14 6L14 7L15 7L15 6L14 6L14 5L13 5L13 4ZM31 5L31 7L32 7L32 5ZM19 6L19 7L20 7L20 6ZM6 8L6 9L7 9L7 8ZM30 8L30 9L32 9L32 10L33 10L33 11L34 11L34 10L33 10L33 9L32 9L32 8ZM15 9L15 10L16 10L16 9ZM17 9L17 10L18 10L18 9ZM20 9L20 10L21 10L21 9ZM35 10L35 11L36 11L36 10ZM13 12L13 13L14 13L14 12ZM33 12L33 13L34 13L34 12ZM18 13L18 16L19 16L19 13ZM21 13L21 15L22 15L22 13ZM24 13L24 15L25 15L25 14L26 14L26 13ZM15 16L15 17L16 17L16 16ZM36 16L36 17L37 17L37 16ZM12 17L12 18L13 18L13 17ZM6 18L6 19L7 19L7 20L6 20L6 21L7 21L7 20L10 20L10 19L11 19L11 18L9 18L9 19L7 19L7 18ZM15 19L15 20L16 20L16 19ZM40 20L40 21L41 21L41 20ZM3 21L3 23L4 23L4 21ZM6 22L6 23L7 23L7 22ZM11 22L11 24L9 24L9 25L11 25L11 26L12 26L12 27L11 27L11 28L12 28L12 30L14 30L14 29L15 29L15 28L16 28L16 26L17 26L17 24L14 24L14 25L15 25L15 26L14 26L14 27L15 27L15 28L13 28L13 26L12 26L12 25L11 25L11 24L12 24L12 22ZM32 22L32 23L33 23L33 24L35 24L35 25L33 25L33 26L32 26L32 27L31 27L31 28L32 28L32 27L34 27L34 26L35 26L35 27L36 27L36 26L35 26L35 25L36 25L36 24L35 24L35 23L33 23L33 22ZM22 25L22 26L21 26L21 27L23 27L23 25ZM33 28L33 29L32 29L32 30L33 30L33 29L34 29L34 28ZM0 29L0 33L1 33L1 29ZM4 30L4 31L5 31L5 30ZM34 30L34 31L35 31L35 30ZM28 31L28 32L31 32L31 31ZM14 32L14 33L15 33L15 32ZM30 33L30 35L31 35L31 33ZM33 33L33 36L36 36L36 33ZM37 33L37 35L38 35L38 36L37 36L37 37L38 37L38 36L39 36L39 34L38 34L38 33ZM34 34L34 35L35 35L35 34ZM27 35L27 36L28 36L28 35ZM30 37L30 38L31 38L31 37ZM34 37L34 38L36 38L36 37ZM20 38L20 39L21 39L21 38ZM27 38L27 40L28 40L28 39L29 39L29 38ZM37 38L37 39L38 39L38 38ZM30 39L30 40L29 40L29 41L30 41L30 40L33 40L33 41L34 41L34 40L33 40L33 39ZM0 0L0 7L7 7L7 0ZM1 1L1 6L6 6L6 1ZM2 2L2 5L5 5L5 2ZM34 0L34 7L41 7L41 0ZM35 1L35 6L40 6L40 1ZM36 2L36 5L39 5L39 2ZM0 34L0 41L7 41L7 34ZM1 35L1 40L6 40L6 35ZM2 36L2 39L5 39L5 36Z" fill="#000000"/></g></g></svg>
