<?xml version="1.0" encoding="UTF-8"?>
<svg xmlns="http://www.w3.org/2000/svg" version="1.1" width="200" height="200" viewBox="0 0 200 200"><rect x="0" y="0" width="200" height="200" fill="#ffffff"/><g transform="scale(6.897)"><g transform="translate(0,0)"><path fill-rule="evenodd" d="M9 0L9 1L10 1L10 0ZM14 0L14 1L11 1L11 2L10 2L10 3L11 3L11 4L9 4L9 2L8 2L8 4L9 4L9 5L11 5L11 4L12 4L12 9L11 9L11 8L10 8L10 7L11 7L11 6L10 6L10 7L9 7L9 6L8 6L8 7L9 7L9 9L10 9L10 10L9 10L9 11L8 11L8 8L6 8L6 9L5 9L5 8L3 8L3 9L2 9L2 10L1 10L1 9L0 9L0 12L1 12L1 13L0 13L0 15L2 15L2 16L4 16L4 17L1 17L1 16L0 16L0 21L7 21L7 20L8 20L8 19L9 19L9 20L10 20L10 19L11 19L11 18L12 18L12 20L15 20L15 22L16 22L16 23L17 23L17 24L18 24L18 25L17 25L17 26L14 26L14 25L16 25L16 24L15 24L15 23L14 23L14 22L13 22L13 23L14 23L14 25L12 25L12 26L13 26L13 27L11 27L11 26L10 26L10 27L11 27L11 28L13 28L13 29L14 29L14 28L15 28L15 29L17 29L17 27L18 27L18 29L20 29L20 28L21 28L21 29L23 29L23 28L24 28L24 29L25 29L25 27L26 27L26 29L28 29L28 28L27 28L27 27L29 27L29 26L27 26L27 25L29 25L29 22L28 22L28 21L26 21L26 19L25 19L25 18L28 18L28 19L29 19L29 17L28 17L28 16L29 16L29 14L27 14L27 13L29 13L29 11L28 11L28 10L27 10L27 11L26 11L26 9L27 9L27 8L25 8L25 12L24 12L24 16L23 16L23 12L22 12L22 11L21 11L21 10L19 10L19 9L16 9L16 10L14 10L14 13L13 13L13 10L12 10L12 9L13 9L13 6L14 6L14 7L15 7L15 6L16 6L16 7L17 7L17 8L19 8L19 6L20 6L20 8L21 8L21 4L19 4L19 3L20 3L20 1L21 1L21 0L19 0L19 1L18 1L18 0ZM16 1L16 2L17 2L17 3L16 3L16 4L17 4L17 5L16 5L16 6L17 6L17 7L18 7L18 6L19 6L19 4L18 4L18 3L19 3L19 2L18 2L18 1ZM11 2L11 3L12 3L12 4L13 4L13 3L12 3L12 2ZM14 2L14 4L15 4L15 2ZM14 5L14 6L15 6L15 5ZM6 9L6 10L7 10L7 9ZM22 9L22 10L23 10L23 11L24 11L24 9ZM3 10L3 11L1 11L1 12L2 12L2 13L3 13L3 11L5 11L5 14L4 14L4 16L5 16L5 17L4 17L4 18L7 18L7 19L4 19L4 20L7 20L7 19L8 19L8 18L9 18L9 19L10 19L10 17L12 17L12 18L14 18L14 19L15 19L15 20L16 20L16 22L17 22L17 23L18 23L18 24L20 24L20 21L19 21L19 18L20 18L20 19L21 19L21 20L22 20L22 19L21 19L21 16L20 16L20 15L21 15L21 14L22 14L22 12L21 12L21 14L20 14L20 15L17 15L17 14L16 14L16 12L15 12L15 14L14 14L14 15L13 15L13 13L12 13L12 11L11 11L11 12L8 12L8 11L5 11L5 10ZM17 10L17 11L19 11L19 10ZM27 11L27 12L28 12L28 11ZM6 12L6 13L7 13L7 12ZM17 12L17 13L18 13L18 12ZM19 12L19 13L20 13L20 12ZM8 13L8 15L7 15L7 14L5 14L5 15L7 15L7 16L6 16L6 17L7 17L7 18L8 18L8 17L10 17L10 16L12 16L12 17L13 17L13 16L12 16L12 15L9 15L9 13ZM10 13L10 14L12 14L12 13ZM25 13L25 16L26 16L26 17L27 17L27 16L28 16L28 15L27 15L27 16L26 16L26 13ZM2 14L2 15L3 15L3 14ZM15 14L15 15L14 15L14 17L15 17L15 19L16 19L16 18L19 18L19 16L16 16L16 17L15 17L15 15L16 15L16 14ZM22 16L22 17L23 17L23 16ZM2 19L2 20L3 20L3 19ZM23 19L23 20L24 20L24 19ZM17 20L17 22L19 22L19 21L18 21L18 20ZM8 21L8 23L9 23L9 24L8 24L8 26L9 26L9 24L10 24L10 25L11 25L11 24L12 24L12 23L11 23L11 22L12 22L12 21ZM21 21L21 24L24 24L24 21ZM9 22L9 23L10 23L10 22ZM22 22L22 23L23 23L23 22ZM25 22L25 25L26 25L26 24L28 24L28 23L27 23L27 22ZM18 25L18 27L19 27L19 28L20 28L20 27L21 27L21 26L22 26L22 28L23 28L23 27L25 27L25 26L24 26L24 25ZM26 26L26 27L27 27L27 26ZM13 27L13 28L14 28L14 27ZM9 28L9 29L10 29L10 28ZM0 0L0 7L7 7L7 0ZM1 1L1 6L6 6L6 1ZM2 2L2 5L5 5L5 2ZM22 0L22 7L29 7L29 0ZM23 1L23 6L28 6L28 1ZM24 2L24 5L27 5L27 2ZM0 22L0 29L7 29L7 22ZM1 23L1 28L6 28L6 23ZM2 24L2 27L5 27L5 24Z" fill="#000000"/></g></g></svg>
