<?xml version="1.0" encoding="UTF-8"?>
<svg xmlns="http://www.w3.org/2000/svg" version="1.1" width="200" height="200" viewBox="0 0 200 200"><rect x="0" y="0" width="200" height="200" fill="#ffffff"/><g transform="scale(4.878)"><g transform="translate(0,0)"><path fill-rule="evenodd" d="M8 0L8 3L9 3L9 4L10 4L10 7L9 7L9 5L8 5L8 10L12 10L12 9L14 9L14 10L13 10L13 11L12 11L12 12L13 12L13 14L15 14L15 16L17 16L17 17L16 17L16 18L14 18L14 17L13 17L13 19L12 19L12 18L11 18L11 17L10 17L10 16L11 16L11 15L9 15L9 14L8 14L8 15L9 15L9 16L8 16L8 17L7 17L7 16L6 16L6 17L5 17L5 19L4 19L4 20L1 20L1 21L2 21L2 22L3 22L3 21L5 21L5 23L9 23L9 24L10 24L10 25L9 25L9 26L8 26L8 24L3 24L3 26L2 26L2 28L4 28L4 29L2 29L2 30L3 30L3 32L2 32L2 33L3 33L3 32L6 32L6 33L8 33L8 34L9 34L9 35L10 35L10 37L9 37L9 36L8 36L8 39L9 39L9 38L11 38L11 39L12 39L12 41L15 41L15 40L16 40L16 41L18 41L18 40L19 40L19 41L20 41L20 40L19 40L19 39L22 39L22 41L23 41L23 39L24 39L24 41L26 41L26 40L27 40L27 41L32 41L32 40L33 40L33 41L34 41L34 40L33 40L33 39L35 39L35 40L36 40L36 39L37 39L37 40L40 40L40 38L41 38L41 37L39 37L39 36L38 36L38 35L40 35L40 36L41 36L41 35L40 35L40 34L41 34L41 33L40 33L40 32L41 32L41 31L40 31L40 30L41 30L41 29L40 29L40 28L39 28L39 32L38 32L38 29L35 29L35 30L34 30L34 31L36 31L36 32L33 32L33 31L32 31L32 30L33 30L33 29L34 29L34 28L33 28L33 29L32 29L32 30L31 30L31 29L30 29L30 28L27 28L27 32L25 32L25 33L29 33L29 34L26 34L26 35L27 35L27 37L25 37L25 35L24 35L24 33L23 33L23 34L22 34L22 32L23 32L23 30L24 30L24 31L25 31L25 30L24 30L24 29L23 29L23 28L22 28L22 30L20 30L20 29L21 29L21 27L20 27L20 28L19 28L19 27L17 27L17 26L16 26L16 25L17 25L17 24L18 24L18 25L19 25L19 26L20 26L20 25L19 25L19 24L20 24L20 23L22 23L22 25L25 25L25 27L24 27L24 28L25 28L25 29L26 29L26 27L29 27L29 26L30 26L30 25L31 25L31 26L33 26L33 27L34 27L34 26L37 26L37 27L36 27L36 28L38 28L38 26L39 26L39 27L40 27L40 26L41 26L41 23L39 23L39 24L40 24L40 26L39 26L39 25L31 25L31 24L29 24L29 23L28 23L28 22L26 22L26 21L24 21L24 19L25 19L25 20L28 20L28 21L29 21L29 20L28 20L28 19L29 19L29 18L27 18L27 17L26 17L26 16L27 16L27 14L29 14L29 15L28 15L28 16L29 16L29 17L31 17L31 18L30 18L30 19L31 19L31 18L32 18L32 19L33 19L33 18L34 18L34 19L35 19L35 21L34 21L34 20L33 20L33 21L31 21L31 20L30 20L30 21L31 21L31 22L32 22L32 24L34 24L34 23L33 23L33 21L34 21L34 22L35 22L35 23L36 23L36 24L37 24L37 23L38 23L38 22L39 22L39 20L38 20L38 18L37 18L37 17L39 17L39 16L37 16L37 14L38 14L38 13L36 13L36 14L35 14L35 17L34 17L34 16L33 16L33 17L31 17L31 12L29 12L29 11L28 11L28 10L27 10L27 9L30 9L30 10L32 10L32 11L33 11L33 12L32 12L32 13L33 13L33 14L32 14L32 15L34 15L34 13L35 13L35 11L36 11L36 12L38 12L38 11L40 11L40 10L41 10L41 8L38 8L38 9L40 9L40 10L37 10L37 9L36 9L36 8L33 8L33 6L32 6L32 9L30 9L30 8L28 8L28 7L29 7L29 5L27 5L27 4L25 4L25 2L23 2L23 1L21 1L21 0L19 0L19 1L17 1L17 0L12 0L12 1L11 1L11 0L10 0L10 1L9 1L9 0ZM26 0L26 1L27 1L27 2L26 2L26 3L28 3L28 4L29 4L29 3L31 3L31 2L30 2L30 1L32 1L32 4L30 4L30 5L32 5L32 4L33 4L33 0L29 0L29 1L27 1L27 0ZM10 1L10 4L11 4L11 3L12 3L12 4L13 4L13 7L12 7L12 6L11 6L11 7L12 7L12 8L14 8L14 9L15 9L15 10L16 10L16 12L18 12L18 13L19 13L19 12L18 12L18 8L19 8L19 10L20 10L20 9L21 9L21 11L20 11L20 12L22 12L22 13L21 13L21 14L19 14L19 15L18 15L18 16L20 16L20 17L21 17L21 18L19 18L19 17L18 17L18 18L16 18L16 19L15 19L15 20L13 20L13 21L12 21L12 19L11 19L11 20L10 20L10 21L11 21L11 22L13 22L13 23L14 23L14 24L13 24L13 28L14 28L14 29L12 29L12 28L11 28L11 27L12 27L12 26L11 26L11 25L12 25L12 24L11 24L11 23L10 23L10 24L11 24L11 25L10 25L10 28L9 28L9 29L10 29L10 30L8 30L8 29L4 29L4 30L7 30L7 31L6 31L6 32L7 32L7 31L11 31L11 30L12 30L12 33L11 33L11 35L13 35L13 36L11 36L11 38L12 38L12 39L13 39L13 38L12 38L12 37L14 37L14 40L15 40L15 39L16 39L16 38L17 38L17 36L16 36L16 35L15 35L15 36L14 36L14 35L13 35L13 34L14 34L14 33L15 33L15 34L16 34L16 33L15 33L15 32L18 32L18 34L17 34L17 35L18 35L18 36L19 36L19 32L20 32L20 34L21 34L21 35L20 35L20 37L18 37L18 38L20 38L20 37L23 37L23 38L24 38L24 39L25 39L25 37L23 37L23 36L24 36L24 35L23 35L23 36L22 36L22 34L21 34L21 32L22 32L22 31L19 31L19 32L18 32L18 30L17 30L17 31L14 31L14 29L17 29L17 28L15 28L15 27L16 27L16 26L15 26L15 27L14 27L14 24L15 24L15 25L16 25L16 24L17 24L17 23L20 23L20 22L22 22L22 20L23 20L23 19L24 19L24 18L25 18L25 19L26 19L26 18L25 18L25 17L24 17L24 18L23 18L23 16L26 16L26 15L25 15L25 14L24 14L24 11L25 11L25 12L26 12L26 13L27 13L27 12L28 12L28 13L29 13L29 14L30 14L30 13L29 13L29 12L28 12L28 11L27 11L27 12L26 12L26 11L25 11L25 10L26 10L26 8L25 8L25 9L24 9L24 8L23 8L23 7L24 7L24 3L23 3L23 2L22 2L22 4L21 4L21 5L19 5L19 4L18 4L18 3L19 3L19 2L20 2L20 3L21 3L21 2L20 2L20 1L19 1L19 2L18 2L18 3L17 3L17 5L16 5L16 2L17 2L17 1L16 1L16 2L15 2L15 1L12 1L12 2L11 2L11 1ZM12 2L12 3L14 3L14 5L15 5L15 6L14 6L14 8L16 8L16 10L17 10L17 8L18 8L18 7L19 7L19 6L18 6L18 7L17 7L17 6L16 6L16 5L15 5L15 3L14 3L14 2ZM15 6L15 7L16 7L16 8L17 8L17 7L16 7L16 6ZM20 6L20 8L21 8L21 9L23 9L23 10L24 10L24 9L23 9L23 8L22 8L22 7L23 7L23 6L22 6L22 7L21 7L21 6ZM25 6L25 7L26 7L26 6ZM27 6L27 7L28 7L28 6ZM30 6L30 7L31 7L31 6ZM2 8L2 9L0 9L0 12L1 12L1 10L2 10L2 13L1 13L1 14L0 14L0 18L2 18L2 19L3 19L3 17L4 17L4 16L3 16L3 14L4 14L4 12L5 12L5 13L8 13L8 12L9 12L9 13L11 13L11 14L12 14L12 13L11 13L11 12L9 12L9 11L8 11L8 12L6 12L6 11L7 11L7 10L6 10L6 9L7 9L7 8L6 8L6 9L5 9L5 8ZM10 8L10 9L11 9L11 8ZM4 9L4 11L3 11L3 12L4 12L4 11L6 11L6 10L5 10L5 9ZM32 9L32 10L33 10L33 11L34 11L34 9ZM35 9L35 10L36 10L36 9ZM14 11L14 13L15 13L15 11ZM33 12L33 13L34 13L34 12ZM2 13L2 14L3 14L3 13ZM16 13L16 14L17 14L17 13ZM39 13L39 14L41 14L41 13ZM6 14L6 15L7 15L7 14ZM21 14L21 15L22 15L22 16L21 16L21 17L22 17L22 16L23 16L23 15L24 15L24 14L23 14L23 15L22 15L22 14ZM13 15L13 16L14 16L14 15ZM29 15L29 16L30 16L30 15ZM2 16L2 17L3 17L3 16ZM36 16L36 17L35 17L35 19L36 19L36 20L37 20L37 22L38 22L38 20L37 20L37 18L36 18L36 17L37 17L37 16ZM40 16L40 18L39 18L39 19L40 19L40 18L41 18L41 16ZM6 17L6 18L7 18L7 19L6 19L6 20L5 20L5 21L6 21L6 22L9 22L9 21L6 21L6 20L7 20L7 19L8 19L8 20L9 20L9 19L10 19L10 18L7 18L7 17ZM18 18L18 19L17 19L17 20L18 20L18 19L19 19L19 20L20 20L20 21L21 21L21 20L20 20L20 19L19 19L19 18ZM21 18L21 19L22 19L22 18ZM15 20L15 21L13 21L13 22L14 22L14 23L15 23L15 22L16 22L16 20ZM40 20L40 21L41 21L41 20ZM23 21L23 23L24 23L24 21ZM35 21L35 22L36 22L36 21ZM0 23L0 26L1 26L1 23ZM28 24L28 25L26 25L26 26L28 26L28 25L29 25L29 24ZM4 25L4 27L6 27L6 28L7 28L7 27L8 27L8 26L7 26L7 25ZM6 26L6 27L7 27L7 26ZM22 26L22 27L23 27L23 26ZM31 27L31 28L32 28L32 27ZM18 28L18 29L19 29L19 28ZM0 29L0 33L1 33L1 29ZM28 29L28 30L30 30L30 29ZM28 31L28 32L30 32L30 33L31 33L31 31ZM8 32L8 33L9 33L9 34L10 34L10 32ZM37 32L37 34L39 34L39 33L38 33L38 32ZM12 33L12 34L13 34L13 33ZM33 33L33 36L36 36L36 33ZM30 34L30 35L31 35L31 36L29 36L29 37L27 37L27 38L26 38L26 39L27 39L27 38L30 38L30 37L32 37L32 39L28 39L28 40L32 40L32 39L33 39L33 38L36 38L36 37L32 37L32 35L31 35L31 34ZM34 34L34 35L35 35L35 34ZM15 36L15 37L16 37L16 36ZM37 36L37 37L38 37L38 36ZM37 38L37 39L38 39L38 38ZM17 39L17 40L18 40L18 39ZM9 40L9 41L11 41L11 40ZM0 0L0 7L7 7L7 0ZM1 1L1 6L6 6L6 1ZM2 2L2 5L5 5L5 2ZM34 0L34 7L41 7L41 0ZM35 1L35 6L40 6L40 1ZM36 2L36 5L39 5L39 2ZM0 34L0 41L7 41L7 34ZM1 35L1 40L6 40L6 35ZM2 36L2 39L5 39L5 36Z" fill="#000000"/></g></g></svg>
