<?xml version="1.0" encoding="UTF-8"?>
<svg xmlns="http://www.w3.org/2000/svg" version="1.1" width="200" height="200" viewBox="0 0 200 200"><rect x="0" y="0" width="200" height="200" fill="#ffffff"/><g transform="scale(6.897)"><g transform="translate(0,0)"><path fill-rule="evenodd" d="M9 0L9 1L8 1L8 7L9 7L9 8L5 8L5 9L9 9L9 8L10 8L10 9L11 9L11 11L12 11L12 12L11 12L11 13L10 13L10 17L11 17L11 16L12 16L12 17L13 17L13 16L14 16L14 18L13 18L13 19L14 19L14 18L15 18L15 19L17 19L17 15L16 15L16 14L17 14L17 12L15 12L15 10L13 10L13 11L12 11L12 9L14 9L14 8L15 8L15 6L16 6L16 7L17 7L17 8L16 8L16 10L18 10L18 7L19 7L19 8L20 8L20 11L19 11L19 12L18 12L18 13L19 13L19 12L20 12L20 13L21 13L21 12L22 12L22 14L18 14L18 17L20 17L20 16L19 16L19 15L21 15L21 19L22 19L22 20L19 20L19 19L20 19L20 18L19 18L19 19L18 19L18 20L19 20L19 21L20 21L20 22L19 22L19 23L20 23L20 24L19 24L19 25L18 25L18 24L17 24L17 23L16 23L16 24L14 24L14 25L15 25L15 28L16 28L16 26L20 26L20 27L21 27L21 29L22 29L22 28L24 28L24 29L26 29L26 28L27 28L27 29L29 29L29 26L27 26L27 25L29 25L29 24L26 24L26 25L25 25L25 23L26 23L26 21L27 21L27 23L28 23L28 22L29 22L29 21L27 21L27 20L25 20L25 19L26 19L26 18L28 18L28 19L29 19L29 18L28 18L28 17L29 17L29 16L27 16L27 17L25 17L25 16L22 16L22 15L25 15L25 14L26 14L26 13L28 13L28 15L29 15L29 12L27 12L27 11L29 11L29 9L28 9L28 8L23 8L23 10L22 10L22 11L21 11L21 9L22 9L22 8L20 8L20 7L21 7L21 0L19 0L19 1L20 1L20 2L19 2L19 3L20 3L20 5L16 5L16 4L17 4L17 3L18 3L18 2L17 2L17 1L18 1L18 0L17 0L17 1L16 1L16 0L14 0L14 1L16 1L16 2L13 2L13 0ZM9 1L9 4L10 4L10 5L9 5L9 7L10 7L10 5L12 5L12 6L11 6L11 8L14 8L14 6L13 6L13 5L12 5L12 3L13 3L13 2L12 2L12 1ZM10 2L10 4L11 4L11 2ZM16 2L16 3L17 3L17 2ZM12 6L12 7L13 7L13 6ZM17 6L17 7L18 7L18 6ZM19 6L19 7L20 7L20 6ZM2 8L2 11L5 11L5 12L1 12L1 13L0 13L0 15L3 15L3 16L4 16L4 17L2 17L2 16L0 16L0 17L2 17L2 18L0 18L0 19L2 19L2 18L3 18L3 21L5 21L5 20L4 20L4 19L7 19L7 18L9 18L9 17L7 17L7 16L8 16L8 15L7 15L7 14L8 14L8 12L6 12L6 11L9 11L9 12L10 12L10 10L4 10L4 9L3 9L3 8ZM25 9L25 10L24 10L24 11L27 11L27 10L28 10L28 9ZM0 10L0 11L1 11L1 10ZM13 11L13 13L14 13L14 14L12 14L12 15L14 15L14 14L16 14L16 13L14 13L14 11ZM5 12L5 14L4 14L4 16L5 16L5 15L6 15L6 16L7 16L7 15L6 15L6 14L7 14L7 13L6 13L6 12ZM23 12L23 14L25 14L25 13L24 13L24 12ZM1 13L1 14L3 14L3 13ZM15 15L15 18L16 18L16 15ZM6 17L6 18L7 18L7 17ZM22 17L22 18L25 18L25 17ZM10 18L10 19L8 19L8 24L9 24L9 23L11 23L11 22L13 22L13 21L11 21L11 22L9 22L9 20L10 20L10 19L11 19L11 20L12 20L12 18ZM23 19L23 20L24 20L24 19ZM0 20L0 21L2 21L2 20ZM6 20L6 21L7 21L7 20ZM14 20L14 22L18 22L18 21L16 21L16 20ZM21 21L21 24L24 24L24 21ZM22 22L22 23L23 23L23 22ZM12 23L12 24L13 24L13 23ZM10 24L10 25L11 25L11 24ZM12 25L12 26L10 26L10 28L9 28L9 29L12 29L12 28L11 28L11 27L12 27L12 26L13 26L13 27L14 27L14 26L13 26L13 25ZM21 25L21 26L22 26L22 27L23 27L23 26L24 26L24 28L26 28L26 27L25 27L25 25ZM8 26L8 27L9 27L9 26ZM27 27L27 28L28 28L28 27ZM18 28L18 29L19 29L19 28ZM0 0L0 7L7 7L7 0ZM1 1L1 6L6 6L6 1ZM2 2L2 5L5 5L5 2ZM22 0L22 7L29 7L29 0ZM23 1L23 6L28 6L28 1ZM24 2L24 5L27 5L27 2ZM0 22L0 29L7 29L7 22ZM1 23L1 28L6 28L6 23ZM2 24L2 27L5 27L5 24Z" fill="#000000"/></g></g></svg>
