<?xml version="1.0" encoding="UTF-8"?>
<svg xmlns="http://www.w3.org/2000/svg" version="1.1" width="200" height="200" viewBox="0 0 200 200"><rect x="0" y="0" width="200" height="200" fill="#ffffff"/><g transform="scale(6.897)"><g transform="translate(0,0)"><path fill-rule="evenodd" d="M11 0L11 1L10 1L10 2L9 2L9 1L8 1L8 2L9 2L9 3L10 3L10 2L11 2L11 3L12 3L12 4L13 4L13 3L14 3L14 4L15 4L15 5L13 5L13 6L12 6L12 7L11 7L11 5L10 5L10 7L9 7L9 5L8 5L8 8L4 8L4 9L2 9L2 10L0 10L0 12L1 12L1 13L2 13L2 16L3 16L3 13L2 13L2 12L1 12L1 11L3 11L3 12L4 12L4 14L5 14L5 15L4 15L4 17L3 17L3 18L2 18L2 20L0 20L0 21L4 21L4 20L5 20L5 21L7 21L7 20L9 20L9 21L8 21L8 25L9 25L9 27L11 27L11 28L12 28L12 29L22 29L22 28L23 28L23 29L27 29L27 28L28 28L28 27L29 27L29 26L27 26L27 24L28 24L28 25L29 25L29 22L28 22L28 23L27 23L27 21L29 21L29 19L27 19L27 18L28 18L28 17L27 17L27 18L26 18L26 19L25 19L25 20L24 20L24 18L21 18L21 19L20 19L20 17L23 17L23 16L24 16L24 17L25 17L25 16L24 16L24 14L25 14L25 15L27 15L27 16L29 16L29 14L27 14L27 12L29 12L29 9L28 9L28 8L27 8L27 9L24 9L24 8L22 8L22 9L24 9L24 10L22 10L22 11L23 11L23 13L22 13L22 12L18 12L18 13L19 13L19 14L21 14L21 13L22 13L22 14L23 14L23 16L22 16L22 15L21 15L21 16L19 16L19 15L18 15L18 16L16 16L16 15L15 15L15 16L16 16L16 17L18 17L18 16L19 16L19 18L17 18L17 19L16 19L16 18L15 18L15 22L14 22L14 23L13 23L13 21L12 21L12 20L13 20L13 19L14 19L14 17L13 17L13 16L12 16L12 15L14 15L14 14L17 14L17 11L16 11L16 10L18 10L18 9L19 9L19 10L20 10L20 11L21 11L21 9L19 9L19 8L21 8L21 6L20 6L20 7L19 7L19 4L20 4L20 5L21 5L21 1L20 1L20 0L18 0L18 2L17 2L17 1L16 1L16 0L15 0L15 1L13 1L13 0ZM11 1L11 2L12 2L12 3L13 3L13 1ZM19 1L19 2L20 2L20 1ZM15 2L15 3L17 3L17 2ZM18 3L18 4L16 4L16 6L15 6L15 7L16 7L16 8L17 8L17 9L18 9L18 8L17 8L17 7L18 7L18 4L19 4L19 3ZM13 6L13 9L12 9L12 10L13 10L13 11L14 11L14 10L16 10L16 9L14 9L14 6ZM16 6L16 7L17 7L17 6ZM8 8L8 9L4 9L4 10L3 10L3 11L4 11L4 12L7 12L7 11L8 11L8 12L11 12L11 13L12 13L12 14L13 14L13 13L14 13L14 12L13 12L13 13L12 13L12 11L10 11L10 10L11 10L11 8L10 8L10 9L9 9L9 8ZM27 9L27 10L28 10L28 9ZM4 10L4 11L5 11L5 10ZM6 10L6 11L7 11L7 10ZM8 10L8 11L9 11L9 10ZM24 10L24 12L25 12L25 10ZM5 13L5 14L8 14L8 15L10 15L10 16L8 16L8 18L7 18L7 17L4 17L4 18L5 18L5 19L6 19L6 20L7 20L7 19L9 19L9 17L10 17L10 18L11 18L11 19L10 19L10 21L9 21L9 23L10 23L10 24L9 24L9 25L10 25L10 26L12 26L12 27L16 27L16 28L19 28L19 26L20 26L20 28L21 28L21 26L22 26L22 27L23 27L23 28L26 28L26 27L27 27L27 26L26 26L26 27L23 27L23 26L24 26L24 25L19 25L19 24L20 24L20 22L19 22L19 21L20 21L20 20L19 20L19 19L18 19L18 22L19 22L19 23L17 23L17 22L16 22L16 23L14 23L14 24L12 24L12 23L10 23L10 21L11 21L11 22L12 22L12 21L11 21L11 19L13 19L13 18L11 18L11 17L10 17L10 16L11 16L11 15L10 15L10 14L9 14L9 13ZM23 13L23 14L24 14L24 13ZM25 13L25 14L26 14L26 13ZM0 14L0 15L1 15L1 14ZM6 15L6 16L7 16L7 15ZM0 17L0 18L1 18L1 17ZM6 18L6 19L7 19L7 18ZM3 19L3 20L4 20L4 19ZM22 19L22 20L23 20L23 19ZM26 19L26 20L27 20L27 19ZM16 20L16 21L17 21L17 20ZM21 21L21 24L24 24L24 21ZM25 21L25 25L26 25L26 24L27 24L27 23L26 23L26 21ZM22 22L22 23L23 23L23 22ZM10 24L10 25L12 25L12 26L15 26L15 24L14 24L14 25L12 25L12 24ZM17 24L17 25L16 25L16 27L17 27L17 26L18 26L18 24ZM9 28L9 29L10 29L10 28ZM0 0L0 7L7 7L7 0ZM1 1L1 6L6 6L6 1ZM2 2L2 5L5 5L5 2ZM22 0L22 7L29 7L29 0ZM23 1L23 6L28 6L28 1ZM24 2L24 5L27 5L27 2ZM0 22L0 29L7 29L7 22ZM1 23L1 28L6 28L6 23ZM2 24L2 27L5 27L5 24Z" fill="#000000"/></g></g></svg>
