<?xml version="1.0" encoding="UTF-8"?>
<svg xmlns="http://www.w3.org/2000/svg" version="1.1" width="200" height="200" viewBox="0 0 200 200"><rect x="0" y="0" width="200" height="200" fill="#ffffff"/><g transform="scale(6.897)"><g transform="translate(0,0)"><path fill-rule="evenodd" d="M10 0L10 2L9 2L9 1L8 1L8 2L9 2L9 3L10 3L10 2L11 2L11 0ZM14 0L14 1L12 1L12 3L11 3L11 4L13 4L13 6L12 6L12 7L11 7L11 6L10 6L10 7L9 7L9 5L8 5L8 8L4 8L4 9L3 9L3 10L0 10L0 12L1 12L1 13L2 13L2 15L1 15L1 14L0 14L0 16L3 16L3 17L2 17L2 19L3 19L3 21L4 21L4 20L5 20L5 21L8 21L8 25L9 25L9 27L11 27L11 25L12 25L12 26L14 26L14 23L16 23L16 22L18 22L18 19L19 19L19 20L20 20L20 21L19 21L19 22L20 22L20 24L18 24L18 23L17 23L17 25L15 25L15 26L18 26L18 25L24 25L24 26L23 26L23 27L22 27L22 26L21 26L21 28L20 28L20 26L19 26L19 28L17 28L17 27L16 27L16 29L22 29L22 28L23 28L23 29L25 29L25 28L28 28L28 27L29 27L29 26L27 26L27 24L28 24L28 25L29 25L29 22L28 22L28 23L27 23L27 21L29 21L29 19L27 19L27 18L28 18L28 17L27 17L27 18L26 18L26 19L27 19L27 20L24 20L24 17L23 17L23 16L24 16L24 14L25 14L25 15L27 15L27 16L29 16L29 14L27 14L27 12L29 12L29 9L28 9L28 8L27 8L27 9L24 9L24 8L22 8L22 9L24 9L24 10L22 10L22 11L23 11L23 13L22 13L22 12L18 12L18 13L19 13L19 14L21 14L21 13L22 13L22 14L23 14L23 16L22 16L22 15L21 15L21 16L17 16L17 17L16 17L16 18L15 18L15 19L16 19L16 20L15 20L15 22L13 22L13 21L12 21L12 20L13 20L13 19L14 19L14 17L15 17L15 16L16 16L16 15L15 15L15 16L14 16L14 17L13 17L13 16L12 16L12 15L13 15L13 14L17 14L17 12L16 12L16 11L17 11L17 10L18 10L18 9L19 9L19 10L20 10L20 11L21 11L21 9L19 9L19 8L21 8L21 6L20 6L20 7L19 7L19 4L20 4L20 5L21 5L21 1L20 1L20 0L18 0L18 2L17 2L17 3L16 3L16 4L15 4L15 1L16 1L16 0ZM19 1L19 2L20 2L20 1ZM13 3L13 4L14 4L14 6L13 6L13 8L12 8L12 10L11 10L11 11L10 11L10 9L11 9L11 8L10 8L10 9L9 9L9 8L8 8L8 10L7 10L7 9L4 9L4 10L3 10L3 11L1 11L1 12L2 12L2 13L3 13L3 16L5 16L5 17L4 17L4 18L3 18L3 19L4 19L4 18L5 18L5 19L6 19L6 20L8 20L8 21L9 21L9 24L10 24L10 23L11 23L11 24L12 24L12 23L11 23L11 22L12 22L12 21L11 21L11 20L12 20L12 19L13 19L13 18L12 18L12 17L11 17L11 19L10 19L10 21L9 21L9 19L8 19L8 18L9 18L9 17L10 17L10 16L8 16L8 18L7 18L7 17L6 17L6 16L7 16L7 15L6 15L6 14L8 14L8 15L9 15L9 14L10 14L10 15L11 15L11 14L10 14L10 13L5 13L5 15L4 15L4 12L11 12L11 13L12 13L12 14L13 14L13 13L14 13L14 12L13 12L13 13L12 13L12 11L14 11L14 10L15 10L15 11L16 11L16 10L17 10L17 9L18 9L18 8L17 8L17 7L18 7L18 4L19 4L19 3L18 3L18 4L16 4L16 6L15 6L15 4L14 4L14 3ZM14 6L14 8L13 8L13 9L14 9L14 8L15 8L15 10L16 10L16 9L17 9L17 8L16 8L16 7L17 7L17 6L16 6L16 7L15 7L15 6ZM27 9L27 10L28 10L28 9ZM4 10L4 11L3 11L3 12L4 12L4 11L5 11L5 10ZM6 10L6 11L7 11L7 10ZM8 10L8 11L9 11L9 10ZM24 10L24 12L25 12L25 10ZM23 13L23 14L24 14L24 13ZM25 13L25 14L26 14L26 13ZM5 15L5 16L6 16L6 15ZM0 17L0 18L1 18L1 17ZM17 17L17 18L16 18L16 19L17 19L17 18L18 18L18 17ZM20 17L20 19L21 19L21 18L23 18L23 17ZM6 18L6 19L7 19L7 18ZM22 19L22 20L23 20L23 19ZM0 20L0 21L2 21L2 20ZM16 20L16 21L17 21L17 20ZM10 21L10 22L11 22L11 21ZM21 21L21 24L24 24L24 21ZM25 21L25 25L26 25L26 24L27 24L27 23L26 23L26 21ZM22 22L22 23L23 23L23 22ZM25 26L25 27L23 27L23 28L25 28L25 27L26 27L26 26ZM13 27L13 28L11 28L11 29L15 29L15 27ZM9 28L9 29L10 29L10 28ZM0 0L0 7L7 7L7 0ZM1 1L1 6L6 6L6 1ZM2 2L2 5L5 5L5 2ZM22 0L22 7L29 7L29 0ZM23 1L23 6L28 6L28 1ZM24 2L24 5L27 5L27 2ZM0 22L0 29L7 29L7 22ZM1 23L1 28L6 28L6 23ZM2 24L2 27L5 27L5 24Z" fill="#000000"/></g></g></svg>
