<?xml version="1.0" encoding="UTF-8"?>
<svg xmlns="http://www.w3.org/2000/svg" version="1.1" width="200" height="200" viewBox="0 0 200 200"><rect x="0" y="0" width="200" height="200" fill="#ffffff"/><g transform="scale(6.897)"><g transform="translate(0,0)"><path fill-rule="evenodd" d="M8 0L8 1L9 1L9 2L8 2L8 3L9 3L9 4L8 4L8 5L9 5L9 6L8 6L8 8L9 8L9 6L10 6L10 9L11 9L11 5L12 5L12 4L13 4L13 5L14 5L14 7L13 7L13 6L12 6L12 8L14 8L14 7L15 7L15 9L13 9L13 12L14 12L14 10L16 10L16 8L19 8L19 9L17 9L17 11L15 11L15 13L14 13L14 14L15 14L15 15L14 15L14 18L13 18L13 17L11 17L11 16L12 16L12 12L11 12L11 14L10 14L10 10L9 10L9 9L7 9L7 8L5 8L5 10L4 10L4 9L3 9L3 10L4 10L4 11L5 11L5 13L8 13L8 12L9 12L9 15L11 15L11 16L10 16L10 17L9 17L9 16L8 16L8 15L7 15L7 14L6 14L6 15L7 15L7 16L6 16L6 17L7 17L7 18L5 18L5 14L4 14L4 13L3 13L3 14L4 14L4 15L2 15L2 13L0 13L0 21L1 21L1 19L2 19L2 21L7 21L7 20L6 20L6 19L8 19L8 20L9 20L9 19L10 19L10 20L13 20L13 21L11 21L11 22L9 22L9 21L8 21L8 22L9 22L9 23L8 23L8 24L9 24L9 25L10 25L10 29L12 29L12 28L13 28L13 29L15 29L15 28L16 28L16 27L18 27L18 29L25 29L25 28L26 28L26 29L28 29L28 28L26 28L26 27L23 27L23 26L21 26L21 25L24 25L24 26L27 26L27 27L28 27L28 26L27 26L27 24L28 24L28 23L29 23L29 22L28 22L28 23L27 23L27 21L25 21L25 18L26 18L26 20L27 20L27 18L28 18L28 19L29 19L29 18L28 18L28 16L29 16L29 15L28 15L28 14L26 14L26 13L29 13L29 12L27 12L27 11L28 11L28 10L27 10L27 11L26 11L26 9L27 9L27 8L26 8L26 9L25 9L25 8L24 8L24 9L23 9L23 8L22 8L22 10L24 10L24 9L25 9L25 12L24 12L24 11L20 11L20 10L19 10L19 9L20 9L20 7L21 7L21 5L20 5L20 4L19 4L19 3L18 3L18 4L17 4L17 6L16 6L16 4L13 4L13 3L11 3L11 0ZM17 0L17 1L15 1L15 2L14 2L14 3L15 3L15 2L16 2L16 3L17 3L17 1L18 1L18 2L19 2L19 1L20 1L20 2L21 2L21 0L19 0L19 1L18 1L18 0ZM12 1L12 2L13 2L13 1ZM10 3L10 5L11 5L11 3ZM18 5L18 6L17 6L17 7L18 7L18 6L19 6L19 7L20 7L20 6L19 6L19 5ZM15 6L15 7L16 7L16 6ZM28 8L28 9L29 9L29 8ZM1 9L1 10L2 10L2 9ZM6 9L6 10L7 10L7 9ZM8 10L8 11L9 11L9 10ZM11 10L11 11L12 11L12 10ZM0 11L0 12L3 12L3 11ZM6 11L6 12L7 12L7 11ZM18 11L18 12L17 12L17 13L16 13L16 16L17 16L17 15L18 15L18 16L19 16L19 17L18 17L18 19L17 19L17 17L15 17L15 19L13 19L13 20L15 20L15 21L16 21L16 22L14 22L14 21L13 21L13 23L12 23L12 22L11 22L11 24L10 24L10 23L9 23L9 24L10 24L10 25L11 25L11 26L12 26L12 27L13 27L13 26L14 26L14 25L16 25L16 26L15 26L15 27L16 27L16 26L18 26L18 27L19 27L19 28L20 28L20 27L21 27L21 26L20 26L20 27L19 27L19 24L20 24L20 20L22 20L22 19L21 19L21 17L20 17L20 15L21 15L21 14L22 14L22 15L23 15L23 16L22 16L22 18L24 18L24 12L23 12L23 14L22 14L22 12L21 12L21 13L20 13L20 12L19 12L19 11ZM18 12L18 13L17 13L17 14L18 14L18 15L19 15L19 14L18 14L18 13L19 13L19 12ZM1 15L1 18L2 18L2 19L3 19L3 18L4 18L4 17L3 17L3 16L2 16L2 15ZM25 15L25 16L26 16L26 15ZM27 15L27 16L28 16L28 15ZM7 16L7 17L8 17L8 16ZM2 17L2 18L3 18L3 17ZM10 18L10 19L12 19L12 18ZM19 18L19 19L18 19L18 20L19 20L19 19L20 19L20 18ZM16 19L16 21L17 21L17 22L18 22L18 23L19 23L19 22L18 22L18 21L17 21L17 19ZM23 19L23 20L24 20L24 19ZM28 20L28 21L29 21L29 20ZM21 21L21 24L24 24L24 21ZM22 22L22 23L23 23L23 22ZM25 22L25 25L26 25L26 24L27 24L27 23L26 23L26 22ZM13 23L13 25L14 25L14 24L16 24L16 25L17 25L17 23ZM22 27L22 28L23 28L23 27ZM0 0L0 7L7 7L7 0ZM1 1L1 6L6 6L6 1ZM2 2L2 5L5 5L5 2ZM22 0L22 7L29 7L29 0ZM23 1L23 6L28 6L28 1ZM24 2L24 5L27 5L27 2ZM0 22L0 29L7 29L7 22ZM1 23L1 28L6 28L6 23ZM2 24L2 27L5 27L5 24Z" fill="#000000"/></g></g></svg>
