<?xml version="1.0" encoding="UTF-8"?>
<svg xmlns="http://www.w3.org/2000/svg" version="1.1" width="200" height="200" viewBox="0 0 200 200"><rect x="0" y="0" width="200" height="200" fill="#ffffff"/><g transform="scale(6.897)"><g transform="translate(0,0)"><path fill-rule="evenodd" d="M8 0L8 1L10 1L10 2L8 2L8 3L9 3L9 4L8 4L8 5L10 5L10 3L16 3L16 4L17 4L17 3L16 3L16 2L13 2L13 1L12 1L12 0L11 0L11 1L10 1L10 0ZM14 0L14 1L16 1L16 0ZM17 0L17 1L18 1L18 2L19 2L19 3L18 3L18 7L19 7L19 8L18 8L18 9L17 9L17 13L16 13L16 12L15 12L15 8L14 8L14 7L15 7L15 6L16 6L16 8L17 8L17 6L16 6L16 5L15 5L15 4L13 4L13 6L12 6L12 7L13 7L13 8L14 8L14 9L13 9L13 10L14 10L14 11L13 11L13 12L12 12L12 11L9 11L9 12L6 12L6 11L7 11L7 10L8 10L8 9L7 9L7 8L5 8L5 9L3 9L3 10L2 10L2 9L1 9L1 11L2 11L2 12L1 12L1 14L0 14L0 16L1 16L1 17L0 17L0 21L1 21L1 19L5 19L5 18L6 18L6 19L8 19L8 17L9 17L9 19L10 19L10 20L11 20L11 21L12 21L12 22L13 22L13 24L14 24L14 21L15 21L15 25L17 25L17 26L16 26L16 27L15 27L15 29L19 29L19 28L21 28L21 27L22 27L22 28L23 28L23 29L26 29L26 28L27 28L27 29L28 29L28 28L27 28L27 27L28 27L28 26L27 26L27 27L23 27L23 26L21 26L21 25L24 25L24 26L26 26L26 25L28 25L28 24L26 24L26 25L25 25L25 22L26 22L26 23L27 23L27 21L25 21L25 20L23 20L23 18L21 18L21 17L20 17L20 19L18 19L18 18L19 18L19 16L17 16L17 17L16 17L16 16L15 16L15 14L16 14L16 15L18 15L18 13L21 13L21 12L22 12L22 15L23 15L23 11L21 11L21 5L20 5L20 3L21 3L21 2L20 2L20 0ZM8 6L8 8L9 8L9 9L10 9L10 10L12 10L12 8L11 8L11 6L10 6L10 7L9 7L9 6ZM13 6L13 7L14 7L14 6ZM19 6L19 7L20 7L20 6ZM22 8L22 10L23 10L23 8ZM24 8L24 16L25 16L25 17L24 17L24 19L26 19L26 18L28 18L28 16L29 16L29 15L28 15L28 14L26 14L26 13L29 13L29 12L27 12L27 11L28 11L28 10L27 10L27 8L26 8L26 10L25 10L25 8ZM28 8L28 9L29 9L29 8ZM5 9L5 10L3 10L3 12L4 12L4 13L2 13L2 14L1 14L1 15L2 15L2 16L3 16L3 17L2 17L2 18L5 18L5 17L6 17L6 18L7 18L7 17L8 17L8 16L10 16L10 15L11 15L11 16L12 16L12 18L11 18L11 17L10 17L10 18L11 18L11 20L12 20L12 21L13 21L13 20L16 20L16 22L17 22L17 24L18 24L18 25L19 25L19 24L20 24L20 21L19 21L19 20L18 20L18 19L17 19L17 18L18 18L18 17L17 17L17 18L16 18L16 17L15 17L15 16L14 16L14 17L13 17L13 16L12 16L12 15L13 15L13 14L15 14L15 13L14 13L14 12L13 12L13 13L12 13L12 12L9 12L9 14L8 14L8 16L7 16L7 15L6 15L6 16L5 16L5 14L7 14L7 13L6 13L6 12L4 12L4 11L5 11L5 10L7 10L7 9ZM18 9L18 10L19 10L19 12L21 12L21 11L20 11L20 9ZM10 13L10 14L9 14L9 15L10 15L10 14L12 14L12 13ZM2 14L2 15L3 15L3 16L4 16L4 15L3 15L3 14ZM20 15L20 16L21 16L21 15ZM25 15L25 16L26 16L26 15ZM27 15L27 16L28 16L28 15ZM6 16L6 17L7 17L7 16ZM22 16L22 17L23 17L23 16ZM12 18L12 20L13 20L13 18ZM14 18L14 19L15 19L15 18ZM21 19L21 20L22 20L22 19ZM5 20L5 21L7 21L7 20ZM8 20L8 22L9 22L9 23L8 23L8 24L9 24L9 28L10 28L10 26L11 26L11 28L12 28L12 29L13 29L13 28L14 28L14 27L12 27L12 26L13 26L13 25L12 25L12 26L11 26L11 24L12 24L12 23L11 23L11 22L9 22L9 20ZM17 20L17 21L18 21L18 20ZM28 20L28 22L29 22L29 20ZM21 21L21 24L24 24L24 21ZM18 22L18 24L19 24L19 22ZM22 22L22 23L23 23L23 22ZM9 23L9 24L10 24L10 23ZM20 26L20 27L21 27L21 26ZM16 27L16 28L17 28L17 27ZM0 0L0 7L7 7L7 0ZM1 1L1 6L6 6L6 1ZM2 2L2 5L5 5L5 2ZM22 0L22 7L29 7L29 0ZM23 1L23 6L28 6L28 1ZM24 2L24 5L27 5L27 2ZM0 22L0 29L7 29L7 22ZM1 23L1 28L6 28L6 23ZM2 24L2 27L5 27L5 24Z" fill="#000000"/></g></g></svg>
