<?xml version="1.0" encoding="UTF-8"?>
<svg xmlns="http://www.w3.org/2000/svg" version="1.1" width="200" height="200" viewBox="0 0 200 200"><rect x="0" y="0" width="200" height="200" fill="#ffffff"/><g transform="scale(6.897)"><g transform="translate(0,0)"><path fill-rule="evenodd" d="M10 0L10 2L11 2L11 3L10 3L10 4L8 4L8 5L9 5L9 6L8 6L8 8L6 8L6 9L5 9L5 10L3 10L3 9L4 9L4 8L2 8L2 11L1 11L1 9L0 9L0 14L1 14L1 13L2 13L2 12L4 12L4 13L3 13L3 14L2 14L2 16L1 16L1 18L0 18L0 19L1 19L1 18L2 18L2 17L3 17L3 15L4 15L4 17L5 17L5 14L4 14L4 13L7 13L7 14L6 14L6 15L7 15L7 14L8 14L8 15L9 15L9 16L8 16L8 17L7 17L7 16L6 16L6 17L7 17L7 18L3 18L3 19L2 19L2 20L1 20L1 21L8 21L8 23L9 23L9 24L10 24L10 25L12 25L12 26L11 26L11 27L9 27L9 25L8 25L8 27L9 27L9 28L11 28L11 29L14 29L14 27L13 27L13 28L11 28L11 27L12 27L12 26L16 26L16 27L15 27L15 28L16 28L16 27L17 27L17 28L18 28L18 29L20 29L20 28L18 28L18 26L17 26L17 25L16 25L16 24L15 24L15 22L17 22L17 21L16 21L16 20L15 20L15 18L16 18L16 17L17 17L17 18L20 18L20 20L19 20L19 19L18 19L18 20L19 20L19 21L20 21L20 23L19 23L19 22L18 22L18 24L20 24L20 25L19 25L19 26L20 26L20 25L23 25L23 26L24 26L24 27L22 27L22 29L23 29L23 28L25 28L25 26L26 26L26 27L27 27L27 28L26 28L26 29L27 29L27 28L29 28L29 26L28 26L28 27L27 27L27 25L29 25L29 23L28 23L28 20L27 20L27 23L28 23L28 24L27 24L27 25L26 25L26 23L25 23L25 22L26 22L26 20L25 20L25 19L26 19L26 18L29 18L29 17L26 17L26 16L25 16L25 15L24 15L24 16L23 16L23 17L21 17L21 18L20 18L20 17L19 17L19 15L20 15L20 14L21 14L21 13L20 13L20 12L22 12L22 9L23 9L23 13L22 13L22 15L23 15L23 14L24 14L24 13L25 13L25 14L26 14L26 15L27 15L27 16L28 16L28 14L27 14L27 13L28 13L28 12L29 12L29 11L28 11L28 12L27 12L27 11L26 11L26 10L24 10L24 9L25 9L25 8L24 8L24 9L23 9L23 8L21 8L21 9L20 9L20 7L21 7L21 3L20 3L20 2L18 2L18 1L17 1L17 2L16 2L16 3L15 3L15 1L16 1L16 0L15 0L15 1L14 1L14 2L13 2L13 1L12 1L12 0ZM11 1L11 2L12 2L12 1ZM17 2L17 4L16 4L16 5L19 5L19 7L18 7L18 6L17 6L17 10L16 10L16 11L17 11L17 12L15 12L15 10L14 10L14 12L12 12L12 10L13 10L13 9L14 9L14 8L13 8L13 9L12 9L12 10L11 10L11 9L9 9L9 10L10 10L10 11L11 11L11 12L10 12L10 13L11 13L11 15L12 15L12 16L10 16L10 17L11 17L11 18L12 18L12 17L13 17L13 19L14 19L14 17L15 17L15 16L14 16L14 15L12 15L12 14L14 14L14 13L16 13L16 14L15 14L15 15L17 15L17 14L18 14L18 13L17 13L17 12L20 12L20 11L19 11L19 10L20 10L20 9L19 9L19 10L18 10L18 8L19 8L19 7L20 7L20 5L19 5L19 4L20 4L20 3L19 3L19 4L18 4L18 2ZM13 3L13 4L12 4L12 5L11 5L11 4L10 4L10 5L11 5L11 7L12 7L12 6L13 6L13 7L14 7L14 6L15 6L15 7L16 7L16 6L15 6L15 5L14 5L14 4L15 4L15 3ZM9 6L9 8L10 8L10 6ZM15 8L15 9L16 9L16 8ZM6 9L6 10L7 10L7 11L5 11L5 12L7 12L7 13L8 13L8 10L7 10L7 9ZM27 9L27 10L29 10L29 9ZM17 10L17 11L18 11L18 10ZM25 11L25 13L27 13L27 12L26 12L26 11ZM19 13L19 14L20 14L20 13ZM9 14L9 15L10 15L10 14ZM13 16L13 17L14 17L14 16ZM17 16L17 17L18 17L18 16ZM24 16L24 17L23 17L23 18L22 18L22 19L21 19L21 20L22 20L22 19L24 19L24 18L26 18L26 17L25 17L25 16ZM8 17L8 19L4 19L4 20L8 20L8 21L9 21L9 17ZM10 20L10 22L9 22L9 23L11 23L11 20ZM13 20L13 21L12 21L12 22L13 22L13 23L12 23L12 24L13 24L13 25L14 25L14 21L15 21L15 20ZM21 21L21 24L24 24L24 21ZM22 22L22 23L23 23L23 22ZM24 25L24 26L25 26L25 25ZM0 0L0 7L7 7L7 0ZM1 1L1 6L6 6L6 1ZM2 2L2 5L5 5L5 2ZM22 0L22 7L29 7L29 0ZM23 1L23 6L28 6L28 1ZM24 2L24 5L27 5L27 2ZM0 22L0 29L7 29L7 22ZM1 23L1 28L6 28L6 23ZM2 24L2 27L5 27L5 24Z" fill="#000000"/></g></g></svg>
