<?xml version="1.0" encoding="UTF-8"?>
<svg xmlns="http://www.w3.org/2000/svg" version="1.1" width="200" height="200" viewBox="0 0 200 200"><rect x="0" y="0" width="200" height="200" fill="#ffffff"/><g transform="scale(4.878)"><g transform="translate(0,0)"><path fill-rule="evenodd" d="M8 0L8 3L9 3L9 5L8 5L8 9L9 9L9 6L10 6L10 8L11 8L11 5L12 5L12 8L14 8L14 9L15 9L15 8L16 8L16 7L17 7L17 9L16 9L16 10L15 10L15 13L13 13L13 14L14 14L14 15L13 15L13 16L11 16L11 17L10 17L10 20L12 20L12 21L11 21L11 22L10 22L10 23L8 23L8 21L9 21L9 19L8 19L8 18L9 18L9 16L6 16L6 15L8 15L8 14L10 14L10 15L11 15L11 13L12 13L12 10L13 10L13 11L14 11L14 10L13 10L13 9L12 9L12 10L9 10L9 11L11 11L11 13L8 13L8 14L6 14L6 13L7 13L7 12L5 12L5 11L7 11L7 10L5 10L5 8L2 8L2 9L0 9L0 10L2 10L2 11L1 11L1 12L0 12L0 13L1 13L1 12L2 12L2 11L3 11L3 12L5 12L5 14L6 14L6 15L5 15L5 16L4 16L4 17L1 17L1 15L2 15L2 16L3 16L3 14L0 14L0 18L2 18L2 19L1 19L1 20L3 20L3 21L5 21L5 23L7 23L7 24L6 24L6 25L5 25L5 24L4 24L4 22L2 22L2 23L3 23L3 24L2 24L2 25L1 25L1 23L0 23L0 25L1 25L1 27L3 27L3 31L2 31L2 32L3 32L3 33L8 33L8 34L10 34L10 35L11 35L11 33L14 33L14 32L12 32L12 31L15 31L15 32L17 32L17 31L16 31L16 28L17 28L17 30L18 30L18 27L17 27L17 25L18 25L18 26L19 26L19 27L20 27L20 26L22 26L22 27L23 27L23 26L24 26L24 25L23 25L23 23L22 23L22 22L23 22L23 21L24 21L24 23L25 23L25 24L26 24L26 23L25 23L25 22L27 22L27 23L28 23L28 22L27 22L27 21L29 21L29 19L28 19L28 18L27 18L27 17L26 17L26 20L25 20L25 19L24 19L24 20L23 20L23 19L22 19L22 18L23 18L23 16L26 16L26 14L30 14L30 16L29 16L29 15L28 15L28 16L29 16L29 17L30 17L30 19L31 19L31 20L30 20L30 21L31 21L31 22L30 22L30 23L31 23L31 24L29 24L29 25L28 25L28 24L27 24L27 25L26 25L26 26L27 26L27 28L25 28L25 27L24 27L24 29L25 29L25 31L24 31L24 32L23 32L23 31L21 31L21 29L22 29L22 30L23 30L23 28L19 28L19 31L18 31L18 34L17 34L17 33L15 33L15 34L12 34L12 36L13 36L13 37L15 37L15 38L16 38L16 39L14 39L14 38L12 38L12 37L11 37L11 36L10 36L10 37L11 37L11 38L10 38L10 39L9 39L9 36L8 36L8 39L9 39L9 40L10 40L10 41L11 41L11 40L12 40L12 41L19 41L19 40L20 40L20 38L18 38L18 37L20 37L20 36L18 36L18 37L17 37L17 36L16 36L16 35L24 35L24 37L23 37L23 38L21 38L21 39L23 39L23 38L24 38L24 37L26 37L26 40L25 40L25 39L24 39L24 41L26 41L26 40L27 40L27 41L28 41L28 39L30 39L30 40L29 40L29 41L30 41L30 40L33 40L33 41L34 41L34 40L33 40L33 39L32 39L32 38L31 38L31 37L30 37L30 38L27 38L27 37L29 37L29 36L31 36L31 35L32 35L32 37L33 37L33 38L34 38L34 39L35 39L35 40L36 40L36 39L37 39L37 40L40 40L40 38L41 38L41 37L40 37L40 36L41 36L41 35L40 35L40 34L41 34L41 33L39 33L39 32L41 32L41 31L40 31L40 30L41 30L41 29L40 29L40 28L39 28L39 32L33 32L33 31L32 31L32 30L33 30L33 29L34 29L34 28L33 28L33 29L32 29L32 28L31 28L31 29L30 29L30 28L29 28L29 27L28 27L28 26L30 26L30 25L31 25L31 26L32 26L32 27L34 27L34 26L35 26L35 25L36 25L36 27L35 27L35 29L36 29L36 31L38 31L38 30L37 30L37 29L36 29L36 28L38 28L38 26L39 26L39 27L40 27L40 26L41 26L41 23L39 23L39 22L38 22L38 21L39 21L39 20L36 20L36 19L35 19L35 17L36 17L36 18L37 18L37 19L38 19L38 18L37 18L37 17L36 17L36 16L38 16L38 17L39 17L39 18L41 18L41 16L40 16L40 17L39 17L39 16L38 16L38 14L37 14L37 13L36 13L36 14L35 14L35 15L36 15L36 16L35 16L35 17L34 17L34 16L33 16L33 17L30 17L30 16L31 16L31 12L29 12L29 13L28 13L28 11L29 11L29 9L30 9L30 10L33 10L33 9L34 9L34 11L33 11L33 12L32 12L32 13L33 13L33 14L32 14L32 15L34 15L34 13L35 13L35 11L37 11L37 12L38 12L38 11L39 11L39 13L40 13L40 14L39 14L39 15L40 15L40 14L41 14L41 13L40 13L40 12L41 12L41 11L40 11L40 10L41 10L41 8L38 8L38 9L40 9L40 10L37 10L37 9L36 9L36 8L33 8L33 6L32 6L32 8L33 8L33 9L30 9L30 8L31 8L31 5L33 5L33 4L30 4L30 5L29 5L29 4L28 4L28 5L27 5L27 4L26 4L26 5L25 5L25 4L24 4L24 5L25 5L25 6L24 6L24 8L26 8L26 9L24 9L24 10L25 10L25 13L26 13L26 14L24 14L24 11L22 11L22 12L21 12L21 10L20 10L20 9L21 9L21 8L22 8L22 9L23 9L23 8L22 8L22 7L23 7L23 6L22 6L22 7L21 7L21 5L22 5L22 4L23 4L23 3L24 3L24 1L25 1L25 0L24 0L24 1L22 1L22 2L21 2L21 4L18 4L18 3L19 3L19 1L20 1L20 0L18 0L18 3L14 3L14 5L13 5L13 4L10 4L10 2L11 2L11 0L10 0L10 1L9 1L9 0ZM12 0L12 1L13 1L13 0ZM15 0L15 1L16 1L16 0ZM26 0L26 1L27 1L27 2L26 2L26 3L31 3L31 2L30 2L30 0L29 0L29 1L27 1L27 0ZM31 0L31 1L32 1L32 0ZM12 2L12 3L13 3L13 2ZM32 2L32 3L33 3L33 2ZM16 4L16 5L14 5L14 6L13 6L13 7L14 7L14 8L15 8L15 7L16 7L16 5L17 5L17 4ZM18 5L18 6L17 6L17 7L18 7L18 8L19 8L19 7L20 7L20 5ZM14 6L14 7L15 7L15 6ZM18 6L18 7L19 7L19 6ZM25 6L25 7L26 7L26 6ZM27 6L27 7L28 7L28 8L27 8L27 10L26 10L26 12L27 12L27 10L28 10L28 9L29 9L29 8L30 8L30 6L29 6L29 7L28 7L28 6ZM6 8L6 9L7 9L7 8ZM2 9L2 10L3 10L3 11L5 11L5 10L3 10L3 9ZM17 9L17 10L18 10L18 11L16 11L16 13L15 13L15 14L16 14L16 17L15 17L15 15L14 15L14 17L12 17L12 18L15 18L15 19L16 19L16 18L18 18L18 17L20 17L20 18L22 18L22 16L21 16L21 15L20 15L20 16L19 16L19 12L20 12L20 10L19 10L19 9ZM35 9L35 10L36 10L36 9ZM33 12L33 13L34 13L34 12ZM16 13L16 14L17 14L17 13ZM20 13L20 14L22 14L22 15L24 15L24 14L22 14L22 13ZM17 15L17 16L18 16L18 15ZM5 16L5 17L4 17L4 18L3 18L3 20L4 20L4 18L5 18L5 20L7 20L7 19L6 19L6 18L8 18L8 17L6 17L6 16ZM20 16L20 17L21 17L21 16ZM31 18L31 19L32 19L32 20L31 20L31 21L33 21L33 22L34 22L34 23L35 23L35 24L34 24L34 25L32 25L32 24L33 24L33 23L32 23L32 22L31 22L31 23L32 23L32 24L31 24L31 25L32 25L32 26L34 26L34 25L35 25L35 24L36 24L36 25L39 25L39 26L40 26L40 24L39 24L39 23L37 23L37 24L36 24L36 23L35 23L35 22L36 22L36 21L35 21L35 19L34 19L34 18ZM12 19L12 20L14 20L14 21L16 21L16 22L15 22L15 24L14 24L14 23L13 23L13 21L12 21L12 22L11 22L11 23L10 23L10 24L12 24L12 26L10 26L10 25L9 25L9 26L8 26L8 27L6 27L6 26L7 26L7 25L8 25L8 24L7 24L7 25L6 25L6 26L5 26L5 27L4 27L4 24L3 24L3 25L2 25L2 26L3 26L3 27L4 27L4 28L5 28L5 27L6 27L6 28L7 28L7 29L4 29L4 30L5 30L5 31L3 31L3 32L9 32L9 33L10 33L10 31L9 31L9 29L10 29L10 30L11 30L11 31L12 31L12 30L11 30L11 29L13 29L13 30L15 30L15 29L13 29L13 27L12 27L12 26L14 26L14 28L16 28L16 26L15 26L15 25L16 25L16 22L19 22L19 23L21 23L21 24L20 24L20 25L19 25L19 26L20 26L20 25L22 25L22 26L23 26L23 25L22 25L22 23L21 23L21 22L22 22L22 21L23 21L23 20L22 20L22 21L21 21L21 19L20 19L20 20L19 20L19 19L18 19L18 20L19 20L19 21L17 21L17 20L14 20L14 19ZM24 20L24 21L25 21L25 20ZM26 20L26 21L27 21L27 20ZM33 20L33 21L34 21L34 22L35 22L35 21L34 21L34 20ZM40 20L40 21L41 21L41 20ZM6 21L6 22L7 22L7 21ZM19 21L19 22L21 22L21 21ZM17 23L17 24L18 24L18 23ZM27 25L27 26L28 26L28 25ZM9 26L9 27L8 27L8 28L10 28L10 29L11 29L11 28L12 28L12 27L11 27L11 28L10 28L10 26ZM0 29L0 33L1 33L1 30L2 30L2 29ZM7 29L7 30L6 30L6 31L7 31L7 30L8 30L8 29ZM28 29L28 30L30 30L30 31L28 31L28 33L26 33L26 34L28 34L28 35L27 35L27 36L28 36L28 35L29 35L29 34L28 34L28 33L29 33L29 32L30 32L30 33L31 33L31 32L30 32L30 31L31 31L31 30L32 30L32 29L31 29L31 30L30 30L30 29ZM26 30L26 31L27 31L27 30ZM34 30L34 31L35 31L35 30ZM20 31L20 32L21 32L21 33L20 33L20 34L21 34L21 33L22 33L22 32L21 32L21 31ZM33 33L33 36L36 36L36 33ZM37 33L37 35L38 35L38 36L37 36L37 37L38 37L38 36L39 36L39 35L38 35L38 34L39 34L39 33ZM30 34L30 35L31 35L31 34ZM34 34L34 35L35 35L35 34ZM14 35L14 36L15 36L15 37L16 37L16 38L17 38L17 40L19 40L19 39L18 39L18 38L17 38L17 37L16 37L16 36L15 36L15 35ZM25 35L25 36L26 36L26 35ZM21 36L21 37L22 37L22 36ZM34 37L34 38L36 38L36 37ZM11 38L11 39L10 39L10 40L11 40L11 39L12 39L12 38ZM37 38L37 39L38 39L38 38ZM13 39L13 40L14 40L14 39ZM22 40L22 41L23 41L23 40ZM0 0L0 7L7 7L7 0ZM1 1L1 6L6 6L6 1ZM2 2L2 5L5 5L5 2ZM34 0L34 7L41 7L41 0ZM35 1L35 6L40 6L40 1ZM36 2L36 5L39 5L39 2ZM0 34L0 41L7 41L7 34ZM1 35L1 40L6 40L6 35ZM2 36L2 39L5 39L5 36Z" fill="#000000"/></g></g></svg>
