<?xml version="1.0" encoding="UTF-8"?>
<svg xmlns="http://www.w3.org/2000/svg" version="1.1" width="200" height="200" viewBox="0 0 200 200"><rect x="0" y="0" width="200" height="200" fill="#ffffff"/><g transform="scale(4.878)"><g transform="translate(0,0)"><path fill-rule="evenodd" d="M8 0L8 3L9 3L9 5L8 5L8 9L7 9L7 8L6 8L6 9L7 9L7 10L6 10L6 11L3 11L3 12L2 12L2 10L3 10L3 9L4 9L4 10L5 10L5 8L2 8L2 9L1 9L1 10L0 10L0 11L1 11L1 12L0 12L0 14L1 14L1 13L2 13L2 15L3 15L3 14L4 14L4 16L3 16L3 17L2 17L2 16L1 16L1 15L0 15L0 17L1 17L1 19L0 19L0 23L1 23L1 25L2 25L2 26L1 26L1 27L0 27L0 28L1 28L1 29L0 29L0 33L1 33L1 29L2 29L2 30L3 30L3 31L4 31L4 30L5 30L5 29L4 29L4 28L3 28L3 27L4 27L4 26L3 26L3 24L5 24L5 25L7 25L7 24L5 24L5 23L7 23L7 22L8 22L8 21L7 21L7 20L9 20L9 19L8 19L8 18L9 18L9 17L10 17L10 19L11 19L11 20L10 20L10 21L11 21L11 22L10 22L10 23L8 23L8 24L9 24L9 25L8 25L8 26L6 26L6 27L5 27L5 28L6 28L6 29L8 29L8 28L9 28L9 27L8 27L8 26L10 26L10 27L12 27L12 25L13 25L13 26L14 26L14 27L13 27L13 31L12 31L12 30L10 30L10 31L11 31L11 32L8 32L8 31L9 31L9 30L8 30L8 31L7 31L7 30L6 30L6 31L5 31L5 32L3 32L3 33L5 33L5 32L6 32L6 33L8 33L8 34L9 34L9 33L11 33L11 34L10 34L10 35L9 35L9 36L8 36L8 39L9 39L9 41L10 41L10 39L11 39L11 37L12 37L12 38L13 38L13 39L14 39L14 38L15 38L15 40L14 40L14 41L15 41L15 40L16 40L16 41L18 41L18 40L21 40L21 38L22 38L22 39L24 39L24 40L23 40L23 41L24 41L24 40L25 40L25 41L27 41L27 40L28 40L28 41L31 41L31 40L33 40L33 41L34 41L34 40L33 40L33 39L32 39L32 37L33 37L33 38L34 38L34 39L35 39L35 40L36 40L36 39L37 39L37 40L40 40L40 38L41 38L41 37L39 37L39 36L38 36L38 35L40 35L40 36L41 36L41 35L40 35L40 34L41 34L41 33L39 33L39 32L41 32L41 31L40 31L40 30L41 30L41 29L39 29L39 32L37 32L37 30L38 30L38 29L36 29L36 28L38 28L38 26L39 26L39 27L40 27L40 28L41 28L41 27L40 27L40 26L41 26L41 23L39 23L39 24L40 24L40 26L39 26L39 25L34 25L34 24L35 24L35 23L36 23L36 24L37 24L37 23L38 23L38 22L39 22L39 20L38 20L38 17L39 17L39 18L41 18L41 16L40 16L40 17L39 17L39 16L37 16L37 15L36 15L36 14L38 14L38 13L36 13L36 14L35 14L35 17L34 17L34 16L33 16L33 17L30 17L30 16L29 16L29 15L28 15L28 16L29 16L29 17L30 17L30 19L31 19L31 20L30 20L30 21L28 21L28 20L29 20L29 18L27 18L27 21L28 21L28 22L27 22L27 23L26 23L26 24L25 24L25 25L29 25L29 26L27 26L27 28L26 28L26 27L22 27L22 28L25 28L25 30L24 30L24 31L22 31L22 32L20 32L20 31L21 31L21 30L22 30L22 29L21 29L21 28L19 28L19 29L16 29L16 30L15 30L15 31L16 31L16 30L20 30L20 31L19 31L19 32L18 32L18 31L17 31L17 32L15 32L15 33L14 33L14 27L16 27L16 28L17 28L17 27L16 27L16 25L18 25L18 24L19 24L19 26L20 26L20 27L21 27L21 26L20 26L20 24L21 24L21 25L22 25L22 26L23 26L23 25L24 25L24 24L23 24L23 25L22 25L22 23L24 23L24 22L25 22L25 21L26 21L26 20L25 20L25 19L26 19L26 18L23 18L23 17L20 17L20 18L22 18L22 19L23 19L23 20L21 20L21 21L20 21L20 20L18 20L18 21L19 21L19 22L17 22L17 23L18 23L18 24L16 24L16 25L15 25L15 26L14 26L14 25L13 25L13 23L14 23L14 24L15 24L15 23L14 23L14 22L15 22L15 21L14 21L14 22L13 22L13 21L12 21L12 19L13 19L13 20L14 20L14 19L15 19L15 14L16 14L16 17L17 17L17 18L16 18L16 20L17 20L17 19L19 19L19 16L18 16L18 17L17 17L17 14L18 14L18 15L20 15L20 14L19 14L19 13L17 13L17 14L16 14L16 13L15 13L15 11L16 11L16 12L17 12L17 6L18 6L18 8L19 8L19 6L18 6L18 5L17 5L17 4L16 4L16 5L15 5L15 6L14 6L14 7L13 7L13 6L12 6L12 5L14 5L14 4L15 4L15 3L18 3L18 2L19 2L19 3L20 3L20 4L19 4L19 5L20 5L20 4L21 4L21 5L22 5L22 7L21 7L21 6L20 6L20 8L21 8L21 9L18 9L18 10L19 10L19 11L18 11L18 12L21 12L21 14L22 14L22 11L23 11L23 12L25 12L25 13L26 13L26 12L25 12L25 11L23 11L23 10L24 10L24 9L25 9L25 10L26 10L26 11L27 11L27 14L30 14L30 15L31 15L31 12L32 12L32 13L33 13L33 14L32 14L32 15L34 15L34 13L35 13L35 11L36 11L36 12L38 12L38 11L39 11L39 14L41 14L41 12L40 12L40 10L41 10L41 8L38 8L38 9L40 9L40 10L37 10L37 9L36 9L36 8L32 8L32 7L33 7L33 6L32 6L32 7L31 7L31 5L32 5L32 4L33 4L33 3L32 3L32 4L28 4L28 5L27 5L27 4L26 4L26 5L24 5L24 4L25 4L25 3L24 3L24 4L23 4L23 5L22 5L22 4L21 4L21 3L22 3L22 0L21 0L21 2L20 2L20 0L18 0L18 1L16 1L16 0L14 0L14 1L16 1L16 2L15 2L15 3L14 3L14 2L13 2L13 4L11 4L11 6L10 6L10 9L11 9L11 10L10 10L10 12L9 12L9 10L8 10L8 9L9 9L9 5L10 5L10 3L9 3L9 2L10 2L10 0ZM11 0L11 3L12 3L12 0ZM26 0L26 1L27 1L27 2L26 2L26 3L31 3L31 2L30 2L30 0L29 0L29 1L27 1L27 0ZM31 0L31 1L32 1L32 2L33 2L33 1L32 1L32 0ZM29 5L29 7L28 7L28 6L27 6L27 8L26 8L26 6L25 6L25 7L24 7L24 6L23 6L23 7L22 7L22 8L23 8L23 9L24 9L24 8L25 8L25 9L27 9L27 10L29 10L29 11L28 11L28 13L29 13L29 12L31 12L31 11L32 11L32 12L33 12L33 13L34 13L34 12L33 12L33 11L34 11L34 10L33 10L33 9L32 9L32 8L31 8L31 7L30 7L30 5ZM11 6L11 7L12 7L12 8L11 8L11 9L12 9L12 11L13 11L13 12L12 12L12 14L11 14L11 12L10 12L10 14L11 14L11 17L13 17L13 19L14 19L14 16L12 16L12 14L15 14L15 13L13 13L13 12L14 12L14 11L15 11L15 10L16 10L16 9L15 9L15 10L14 10L14 9L13 9L13 7L12 7L12 6ZM15 6L15 7L14 7L14 8L16 8L16 6ZM27 8L27 9L31 9L31 10L30 10L30 11L31 11L31 10L32 10L32 11L33 11L33 10L32 10L32 9L31 9L31 8ZM7 10L7 11L6 11L6 12L5 12L5 13L4 13L4 14L7 14L7 13L8 13L8 10ZM13 10L13 11L14 11L14 10ZM20 10L20 11L22 11L22 10ZM6 12L6 13L7 13L7 12ZM23 14L23 15L22 15L22 16L25 16L25 15L24 15L24 14ZM6 15L6 16L7 16L7 15ZM8 15L8 17L5 17L5 16L4 16L4 17L3 17L3 18L2 18L2 19L1 19L1 23L2 23L2 24L3 24L3 23L5 23L5 22L3 22L3 21L2 21L2 19L3 19L3 20L4 20L4 21L6 21L6 22L7 22L7 21L6 21L6 20L7 20L7 19L6 19L6 18L8 18L8 17L9 17L9 16L10 16L10 15ZM36 16L36 17L35 17L35 19L34 19L34 18L33 18L33 19L32 19L32 18L31 18L31 19L32 19L32 20L31 20L31 21L30 21L30 22L28 22L28 24L30 24L30 22L31 22L31 23L32 23L32 22L31 22L31 21L33 21L33 22L34 22L34 23L33 23L33 24L31 24L31 25L30 25L30 26L29 26L29 27L28 27L28 28L31 28L31 29L28 29L28 30L32 30L32 31L33 31L33 32L36 32L36 31L34 31L34 30L36 30L36 29L35 29L35 28L36 28L36 27L37 27L37 26L34 26L34 25L33 25L33 24L34 24L34 23L35 23L35 22L36 22L36 21L35 21L35 19L36 19L36 20L37 20L37 22L38 22L38 20L37 20L37 18L36 18L36 17L37 17L37 16ZM4 17L4 18L3 18L3 19L4 19L4 18L5 18L5 17ZM11 18L11 19L12 19L12 18ZM5 19L5 20L6 20L6 19ZM33 20L33 21L34 21L34 22L35 22L35 21L34 21L34 20ZM40 20L40 21L41 21L41 20ZM21 21L21 22L20 22L20 23L19 23L19 24L20 24L20 23L21 23L21 22L24 22L24 21ZM12 22L12 23L13 23L13 22ZM10 23L10 26L11 26L11 25L12 25L12 24L11 24L11 23ZM31 25L31 26L32 26L32 27L31 27L31 28L32 28L32 27L34 27L34 26L33 26L33 25ZM2 26L2 27L3 27L3 26ZM6 27L6 28L8 28L8 27ZM2 28L2 29L3 29L3 28ZM10 28L10 29L12 29L12 28ZM33 28L33 29L32 29L32 30L33 30L33 29L34 29L34 28ZM26 29L26 30L25 30L25 32L22 32L22 34L23 34L23 33L24 33L24 35L23 35L23 36L22 36L22 38L23 38L23 36L24 36L24 39L25 39L25 40L26 40L26 38L25 38L25 36L26 36L26 37L27 37L27 38L28 38L28 40L31 40L31 39L30 39L30 37L32 37L32 35L31 35L31 34L30 34L30 35L31 35L31 36L29 36L29 33L27 33L27 32L26 32L26 30L27 30L27 29ZM6 31L6 32L7 32L7 31ZM28 31L28 32L30 32L30 33L31 33L31 31ZM12 32L12 34L11 34L11 35L10 35L10 36L9 36L9 38L10 38L10 37L11 37L11 35L13 35L13 36L14 36L14 35L15 35L15 34L14 34L14 33L13 33L13 32ZM17 32L17 34L18 34L18 35L17 35L17 36L18 36L18 38L19 38L19 39L20 39L20 38L21 38L21 37L19 37L19 35L20 35L20 36L21 36L21 34L19 34L19 33L18 33L18 32ZM33 33L33 36L36 36L36 33ZM37 33L37 35L38 35L38 34L39 34L39 33ZM25 34L25 35L24 35L24 36L25 36L25 35L28 35L28 34ZM34 34L34 35L35 35L35 34ZM15 36L15 37L16 37L16 39L17 39L17 40L18 40L18 39L17 39L17 37L16 37L16 36ZM27 36L27 37L29 37L29 36ZM37 36L37 37L38 37L38 36ZM13 37L13 38L14 38L14 37ZM34 37L34 38L36 38L36 37ZM37 38L37 39L38 39L38 38ZM11 40L11 41L13 41L13 40ZM0 0L0 7L7 7L7 0ZM1 1L1 6L6 6L6 1ZM2 2L2 5L5 5L5 2ZM34 0L34 7L41 7L41 0ZM35 1L35 6L40 6L40 1ZM36 2L36 5L39 5L39 2ZM0 34L0 41L7 41L7 34ZM1 35L1 40L6 40L6 35ZM2 36L2 39L5 39L5 36Z" fill="#000000"/></g></g></svg>
