<?xml version="1.0" encoding="UTF-8"?>
<svg xmlns="http://www.w3.org/2000/svg" version="1.1" width="200" height="200" viewBox="0 0 200 200"><rect x="0" y="0" width="200" height="200" fill="#ffffff"/><g transform="scale(4.878)"><g transform="translate(0,0)"><path fill-rule="evenodd" d="M8 0L8 3L9 3L9 4L10 4L10 5L8 5L8 9L7 9L7 8L6 8L6 9L5 9L5 8L2 8L2 10L5 10L5 12L3 12L3 11L2 11L2 13L0 13L0 15L2 15L2 17L0 17L0 20L2 20L2 19L3 19L3 18L4 18L4 19L5 19L5 20L6 20L6 21L4 21L4 20L3 20L3 22L0 22L0 23L1 23L1 24L2 24L2 23L4 23L4 24L6 24L6 25L8 25L8 28L6 28L6 29L5 29L5 30L4 30L4 31L7 31L7 32L6 32L6 33L7 33L7 32L8 32L8 34L9 34L9 32L11 32L11 33L10 33L10 35L9 35L9 36L8 36L8 39L9 39L9 36L10 36L10 35L11 35L11 34L12 34L12 36L13 36L13 37L12 37L12 38L11 38L11 37L10 37L10 40L9 40L9 41L10 41L10 40L11 40L11 41L16 41L16 40L18 40L18 41L21 41L21 38L20 38L20 39L19 39L19 37L20 37L20 36L21 36L21 35L20 35L20 36L19 36L19 37L18 37L18 38L17 38L17 39L16 39L16 37L17 37L17 36L16 36L16 37L15 37L15 38L14 38L14 36L15 36L15 34L16 34L16 33L17 33L17 32L19 32L19 31L20 31L20 32L22 32L22 34L23 34L23 33L25 33L25 34L24 34L24 36L23 36L23 35L22 35L22 41L25 41L25 39L27 39L27 40L26 40L26 41L27 41L27 40L28 40L28 41L31 41L31 40L33 40L33 41L34 41L34 40L33 40L33 38L34 38L34 39L35 39L35 40L36 40L36 39L37 39L37 40L40 40L40 38L41 38L41 37L39 37L39 36L41 36L41 35L40 35L40 34L41 34L41 32L37 32L37 31L35 31L35 30L38 30L38 29L35 29L35 30L34 30L34 31L35 31L35 32L33 32L33 31L32 31L32 30L33 30L33 29L34 29L34 28L33 28L33 27L34 27L34 26L35 26L35 27L36 27L36 28L38 28L38 26L39 26L39 27L40 27L40 26L41 26L41 23L39 23L39 22L38 22L38 21L39 21L39 20L38 20L38 19L40 19L40 18L41 18L41 16L40 16L40 18L38 18L38 17L39 17L39 16L38 16L38 13L36 13L36 14L37 14L37 15L36 15L36 16L35 16L35 17L34 17L34 16L32 16L32 17L31 17L31 16L29 16L29 15L28 15L28 16L29 16L29 17L31 17L31 18L30 18L30 19L31 19L31 18L32 18L32 17L33 17L33 18L34 18L34 19L35 19L35 21L34 21L34 20L33 20L33 19L32 19L32 20L33 20L33 21L31 21L31 20L30 20L30 21L31 21L31 22L33 22L33 21L34 21L34 22L35 22L35 23L33 23L33 24L32 24L32 23L30 23L30 22L29 22L29 23L30 23L30 24L29 24L29 25L28 25L28 24L27 24L27 25L28 25L28 26L24 26L24 25L26 25L26 24L25 24L25 23L26 23L26 20L27 20L27 21L29 21L29 18L27 18L27 16L26 16L26 15L27 15L27 14L29 14L29 13L30 13L30 14L31 14L31 12L32 12L32 13L33 13L33 14L32 14L32 15L34 15L34 13L35 13L35 12L38 12L38 11L39 11L39 14L41 14L41 13L40 13L40 10L41 10L41 8L38 8L38 9L40 9L40 10L37 10L37 9L36 9L36 8L33 8L33 4L30 4L30 7L31 7L31 5L32 5L32 9L30 9L30 8L29 8L29 5L27 5L27 4L26 4L26 5L27 5L27 6L26 6L26 7L25 7L25 4L24 4L24 3L25 3L25 1L23 1L23 2L22 2L22 0L21 0L21 3L22 3L22 4L21 4L21 6L20 6L20 9L19 9L19 6L18 6L18 4L19 4L19 3L20 3L20 2L19 2L19 1L20 1L20 0L19 0L19 1L17 1L17 3L18 3L18 4L17 4L17 5L16 5L16 7L15 7L15 6L14 6L14 5L15 5L15 4L14 4L14 3L13 3L13 4L12 4L12 3L11 3L11 2L15 2L15 3L16 3L16 2L15 2L15 1L16 1L16 0L14 0L14 1L11 1L11 0ZM26 0L26 1L27 1L27 2L26 2L26 3L28 3L28 4L29 4L29 3L33 3L33 0L29 0L29 1L27 1L27 0ZM9 1L9 3L10 3L10 2L11 2L11 1ZM30 1L30 2L32 2L32 1ZM23 2L23 3L24 3L24 2ZM11 4L11 8L10 8L10 6L9 6L9 9L8 9L8 10L7 10L7 9L6 9L6 10L7 10L7 11L6 11L6 12L9 12L9 13L10 13L10 14L11 14L11 15L12 15L12 18L14 18L14 19L11 19L11 21L10 21L10 19L8 19L8 20L7 20L7 19L6 19L6 18L10 18L10 15L9 15L9 14L8 14L8 15L9 15L9 16L7 16L7 15L6 15L6 14L7 14L7 13L5 13L5 15L6 15L6 16L7 16L7 17L6 17L6 18L5 18L5 19L6 19L6 20L7 20L7 21L6 21L6 22L4 22L4 23L6 23L6 24L7 24L7 23L9 23L9 21L10 21L10 22L11 22L11 21L12 21L12 20L13 20L13 22L14 22L14 23L15 23L15 24L14 24L14 26L13 26L13 23L12 23L12 24L11 24L11 23L10 23L10 24L9 24L9 26L10 26L10 25L11 25L11 26L13 26L13 27L12 27L12 29L11 29L11 28L10 28L10 27L9 27L9 28L8 28L8 30L9 30L9 28L10 28L10 29L11 29L11 30L10 30L10 31L11 31L11 30L12 30L12 29L13 29L13 30L14 30L14 31L13 31L13 36L14 36L14 33L15 33L15 32L17 32L17 31L19 31L19 30L18 30L18 29L19 29L19 27L22 27L22 28L20 28L20 30L22 30L22 32L23 32L23 30L24 30L24 29L23 29L23 28L24 28L24 27L23 27L23 26L19 26L19 27L17 27L17 25L23 25L23 24L21 24L21 22L22 22L22 23L23 23L23 22L24 22L24 21L23 21L23 20L25 20L25 19L27 19L27 20L28 20L28 19L27 19L27 18L24 18L24 19L23 19L23 18L20 18L20 17L22 17L22 16L21 16L21 15L23 15L23 16L24 16L24 15L23 15L23 14L24 14L24 13L25 13L25 14L26 14L26 13L27 13L27 12L28 12L28 13L29 13L29 12L30 12L30 11L32 11L32 10L33 10L33 11L34 11L34 10L33 10L33 9L32 9L32 10L30 10L30 9L27 9L27 7L28 7L28 6L27 6L27 7L26 7L26 10L24 10L24 9L25 9L25 8L24 8L24 6L23 6L23 5L22 5L22 6L21 6L21 8L22 8L22 11L20 11L20 10L21 10L21 9L20 9L20 10L18 10L18 11L17 11L17 10L15 10L15 9L16 9L16 8L15 8L15 9L14 9L14 8L13 8L13 9L14 9L14 11L12 11L12 10L9 10L9 9L12 9L12 4ZM13 4L13 5L14 5L14 4ZM13 6L13 7L14 7L14 6ZM17 6L17 7L18 7L18 6ZM22 6L22 7L23 7L23 6ZM23 8L23 9L24 9L24 8ZM0 10L0 12L1 12L1 10ZM8 10L8 11L9 11L9 12L10 12L10 13L11 13L11 14L12 14L12 13L11 13L11 11L9 11L9 10ZM27 10L27 11L26 11L26 12L25 12L25 13L26 13L26 12L27 12L27 11L28 11L28 10ZM29 10L29 11L30 11L30 10ZM14 11L14 14L13 14L13 16L14 16L14 18L15 18L15 17L17 17L17 16L14 16L14 14L15 14L15 13L16 13L16 15L17 15L17 13L19 13L19 14L20 14L20 15L18 15L18 16L19 16L19 17L20 17L20 15L21 15L21 14L23 14L23 13L24 13L24 12L23 12L23 13L21 13L21 12L19 12L19 11L18 11L18 12L17 12L17 11L16 11L16 12L15 12L15 11ZM16 12L16 13L17 13L17 12ZM33 12L33 13L34 13L34 12ZM3 13L3 14L4 14L4 13ZM3 15L3 16L4 16L4 15ZM25 16L25 17L26 17L26 16ZM36 16L36 17L35 17L35 19L36 19L36 20L37 20L37 21L38 21L38 20L37 20L37 19L38 19L38 18L36 18L36 17L38 17L38 16ZM2 17L2 18L3 18L3 17ZM16 18L16 19L17 19L17 18ZM18 18L18 19L19 19L19 20L20 20L20 18ZM14 20L14 22L15 22L15 23L16 23L16 22L18 22L18 23L17 23L17 24L16 24L16 25L17 25L17 24L18 24L18 23L20 23L20 22L21 22L21 21L22 21L22 22L23 22L23 21L22 21L22 20L21 20L21 21L19 21L19 22L18 22L18 20L17 20L17 21L16 21L16 20ZM40 20L40 21L41 21L41 20ZM15 21L15 22L16 22L16 21ZM35 21L35 22L36 22L36 21ZM6 22L6 23L7 23L7 22ZM27 22L27 23L28 23L28 22ZM35 23L35 24L34 24L34 25L32 25L32 24L31 24L31 25L30 25L30 26L28 26L28 28L27 28L27 27L25 27L25 28L27 28L27 29L28 29L28 30L32 30L32 29L33 29L33 28L32 28L32 27L33 27L33 26L34 26L34 25L39 25L39 26L40 26L40 24L39 24L39 23L37 23L37 24L36 24L36 23ZM0 25L0 27L1 27L1 28L0 28L0 33L1 33L1 30L2 30L2 31L3 31L3 30L2 30L2 29L1 29L1 28L3 28L3 29L4 29L4 28L5 28L5 25L2 25L2 27L1 27L1 25ZM31 25L31 26L32 26L32 25ZM6 26L6 27L7 27L7 26ZM14 26L14 28L17 28L17 29L16 29L16 30L15 30L15 29L14 29L14 30L15 30L15 31L14 31L14 32L15 32L15 31L16 31L16 30L17 30L17 29L18 29L18 28L17 28L17 27L15 27L15 26ZM36 26L36 27L37 27L37 26ZM3 27L3 28L4 28L4 27ZM28 28L28 29L31 29L31 28ZM39 28L39 31L40 31L40 30L41 30L41 29L40 29L40 28ZM6 29L6 30L7 30L7 29ZM22 29L22 30L23 30L23 29ZM26 30L26 31L27 31L27 30ZM8 31L8 32L9 32L9 31ZM28 31L28 32L30 32L30 33L31 33L31 31ZM2 32L2 33L5 33L5 32ZM25 32L25 33L26 33L26 34L25 34L25 36L26 36L26 38L30 38L30 37L32 37L32 38L31 38L31 39L28 39L28 40L31 40L31 39L32 39L32 38L33 38L33 37L32 37L32 35L31 35L31 34L30 34L30 35L31 35L31 36L29 36L29 35L26 35L26 34L29 34L29 33L27 33L27 32ZM18 33L18 34L19 34L19 33ZM20 33L20 34L21 34L21 33ZM33 33L33 36L36 36L36 33ZM38 33L38 35L37 35L37 36L39 36L39 33ZM34 34L34 35L35 35L35 34ZM27 36L27 37L29 37L29 36ZM24 37L24 38L23 38L23 40L24 40L24 38L25 38L25 37ZM34 37L34 38L36 38L36 37ZM12 38L12 39L11 39L11 40L12 40L12 39L13 39L13 40L15 40L15 39L14 39L14 38ZM37 38L37 39L38 39L38 38ZM0 0L0 7L7 7L7 0ZM1 1L1 6L6 6L6 1ZM2 2L2 5L5 5L5 2ZM34 0L34 7L41 7L41 0ZM35 1L35 6L40 6L40 1ZM36 2L36 5L39 5L39 2ZM0 34L0 41L7 41L7 34ZM1 35L1 40L6 40L6 35ZM2 36L2 39L5 39L5 36Z" fill="#000000"/></g></g></svg>
