<?xml version="1.0" encoding="UTF-8"?>
<svg xmlns="http://www.w3.org/2000/svg" version="1.1" width="200" height="200" viewBox="0 0 200 200"><rect x="0" y="0" width="200" height="200" fill="#ffffff"/><g transform="scale(4.878)"><g transform="translate(0,0)"><path fill-rule="evenodd" d="M8 0L8 3L9 3L9 1L10 1L10 0ZM13 0L13 1L11 1L11 2L10 2L10 3L11 3L11 5L8 5L8 9L9 9L9 10L5 10L5 12L6 12L6 13L9 13L9 14L5 14L5 15L4 15L4 14L3 14L3 13L2 13L2 14L1 14L1 12L2 12L2 11L1 11L1 12L0 12L0 20L1 20L1 21L0 21L0 22L1 22L1 23L0 23L0 24L1 24L1 23L3 23L3 24L2 24L2 25L0 25L0 26L2 26L2 28L3 28L3 29L0 29L0 33L1 33L1 30L2 30L2 31L3 31L3 32L4 32L4 33L5 33L5 32L6 32L6 33L8 33L8 34L9 34L9 32L10 32L10 33L11 33L11 35L10 35L10 36L11 36L11 37L10 37L10 39L11 39L11 37L12 37L12 39L13 39L13 37L14 37L14 39L16 39L16 41L19 41L19 40L20 40L20 41L21 41L21 40L20 40L20 39L19 39L19 38L16 38L16 36L17 36L17 37L19 37L19 36L20 36L20 37L21 37L21 36L22 36L22 34L23 34L23 35L25 35L25 34L24 34L24 33L25 33L25 32L27 32L27 33L29 33L29 34L27 34L27 35L29 35L29 36L27 36L27 37L26 37L26 36L23 36L23 37L22 37L22 38L21 38L21 39L22 39L22 41L23 41L23 39L22 39L22 38L24 38L24 40L25 40L25 41L27 41L27 40L28 40L28 41L31 41L31 40L33 40L33 41L34 41L34 40L33 40L33 39L31 39L31 40L28 40L28 39L29 39L29 38L27 38L27 37L29 37L29 36L31 36L31 35L32 35L32 37L30 37L30 38L32 38L32 37L33 37L33 38L34 38L34 39L35 39L35 40L36 40L36 39L37 39L37 40L40 40L40 38L41 38L41 37L40 37L40 36L41 36L41 35L40 35L40 34L41 34L41 33L39 33L39 32L40 32L40 30L41 30L41 29L40 29L40 28L41 28L41 27L40 27L40 26L41 26L41 23L39 23L39 24L40 24L40 26L39 26L39 25L36 25L36 24L37 24L37 20L38 20L38 22L39 22L39 20L38 20L38 19L40 19L40 18L41 18L41 16L40 16L40 18L38 18L38 17L39 17L39 16L38 16L38 15L35 15L35 17L34 17L34 16L32 16L32 17L31 17L31 15L30 15L30 14L31 14L31 12L32 12L32 13L33 13L33 14L32 14L32 15L34 15L34 13L35 13L35 9L36 9L36 12L38 12L38 11L40 11L40 12L39 12L39 13L38 13L38 14L39 14L39 15L40 15L40 14L41 14L41 13L40 13L40 12L41 12L41 11L40 11L40 10L41 10L41 8L38 8L38 9L40 9L40 10L37 10L37 9L36 9L36 8L33 8L33 6L32 6L32 8L33 8L33 9L31 9L31 5L33 5L33 4L30 4L30 5L29 5L29 6L28 6L28 5L27 5L27 4L25 4L25 5L24 5L24 7L23 7L23 6L22 6L22 8L24 8L24 9L23 9L23 10L22 10L22 9L21 9L21 10L22 10L22 11L20 11L20 13L18 13L18 12L19 12L19 11L18 11L18 10L20 10L20 7L21 7L21 6L20 6L20 7L19 7L19 6L18 6L18 5L21 5L21 4L22 4L22 5L23 5L23 3L20 3L20 2L22 2L22 1L19 1L19 0L16 0L16 3L15 3L15 2L14 2L14 4L15 4L15 6L14 6L14 7L13 7L13 5L12 5L12 3L11 3L11 2L13 2L13 1L14 1L14 0ZM23 0L23 2L24 2L24 1L25 1L25 0ZM26 0L26 1L27 1L27 2L26 2L26 3L28 3L28 4L29 4L29 3L31 3L31 2L30 2L30 0L29 0L29 1L27 1L27 0ZM31 0L31 1L32 1L32 3L33 3L33 1L32 1L32 0ZM17 1L17 2L18 2L18 4L20 4L20 3L19 3L19 1ZM16 5L16 6L15 6L15 7L14 7L14 8L16 8L16 6L17 6L17 9L16 9L16 10L15 10L15 9L14 9L14 10L15 10L15 12L14 12L14 11L13 11L13 9L12 9L12 8L13 8L13 7L12 7L12 6L11 6L11 7L10 7L10 6L9 6L9 7L10 7L10 8L9 8L9 9L10 9L10 8L11 8L11 10L9 10L9 13L12 13L12 14L9 14L9 15L10 15L10 16L12 16L12 19L13 19L13 18L14 18L14 13L15 13L15 12L16 12L16 13L17 13L17 14L18 14L18 13L17 13L17 9L19 9L19 7L18 7L18 6L17 6L17 5ZM26 5L26 6L25 6L25 8L26 8L26 9L24 9L24 10L23 10L23 11L24 11L24 10L25 10L25 12L26 12L26 13L25 13L25 14L26 14L26 13L27 13L27 11L26 11L26 10L28 10L28 9L29 9L29 11L28 11L28 13L29 13L29 14L27 14L27 15L26 15L26 17L25 17L25 18L24 18L24 16L25 16L25 15L23 15L23 14L24 14L24 12L23 12L23 14L22 14L22 13L20 13L20 14L19 14L19 15L20 15L20 16L23 16L23 18L21 18L21 17L19 17L19 16L18 16L18 18L20 18L20 19L17 19L17 18L15 18L15 19L17 19L17 21L18 21L18 22L16 22L16 25L17 25L17 27L18 27L18 28L17 28L17 29L16 29L16 28L15 28L15 27L14 27L14 25L13 25L13 24L15 24L15 22L14 22L14 21L11 21L11 20L9 20L9 19L11 19L11 17L9 17L9 16L8 16L8 15L5 15L5 16L7 16L7 17L5 17L5 20L9 20L9 21L6 21L6 22L5 22L5 21L4 21L4 22L3 22L3 23L4 23L4 24L3 24L3 25L2 25L2 26L4 26L4 27L3 27L3 28L4 28L4 29L5 29L5 28L4 28L4 27L5 27L5 26L9 26L9 25L10 25L10 27L9 27L9 28L7 28L7 27L6 27L6 28L7 28L7 29L6 29L6 30L3 30L3 31L4 31L4 32L5 32L5 31L6 31L6 32L9 32L9 29L11 29L11 30L12 30L12 31L11 31L11 33L12 33L12 31L13 31L13 30L12 30L12 28L10 28L10 27L13 27L13 29L14 29L14 28L15 28L15 29L16 29L16 30L18 30L18 29L19 29L19 30L20 30L20 29L19 29L19 27L18 27L18 26L22 26L22 27L23 27L23 28L24 28L24 27L27 27L27 28L31 28L31 29L28 29L28 30L32 30L32 31L33 31L33 32L39 32L39 28L40 28L40 27L39 27L39 26L38 26L38 28L36 28L36 27L37 27L37 26L36 26L36 25L35 25L35 24L36 24L36 23L35 23L35 22L36 22L36 21L35 21L35 19L36 19L36 20L37 20L37 19L38 19L38 18L36 18L36 17L38 17L38 16L36 16L36 17L35 17L35 19L34 19L34 18L33 18L33 17L32 17L32 18L31 18L31 17L29 17L29 16L30 16L30 15L29 15L29 14L30 14L30 13L29 13L29 12L31 12L31 11L34 11L34 9L33 9L33 10L31 10L31 9L29 9L29 8L30 8L30 6L29 6L29 7L28 7L28 6L27 6L27 5ZM26 6L26 7L27 7L27 9L28 9L28 7L27 7L27 6ZM2 8L2 9L1 9L1 10L3 10L3 9L5 9L5 8ZM6 8L6 9L7 9L7 8ZM11 10L11 12L12 12L12 10ZM3 11L3 12L4 12L4 11ZM6 11L6 12L7 12L7 11ZM13 12L13 13L14 13L14 12ZM33 12L33 13L34 13L34 12ZM36 13L36 14L37 14L37 13ZM39 13L39 14L40 14L40 13ZM2 14L2 15L1 15L1 16L2 16L2 18L1 18L1 20L3 20L3 19L4 19L4 16L2 16L2 15L3 15L3 14ZM15 14L15 17L17 17L17 15L16 15L16 14ZM21 14L21 15L22 15L22 14ZM28 15L28 16L29 16L29 15ZM2 18L2 19L3 19L3 18ZM6 18L6 19L7 19L7 18ZM8 18L8 19L9 19L9 18ZM27 18L27 21L26 21L26 19L25 19L25 21L26 21L26 23L24 23L24 24L23 24L23 19L22 19L22 24L23 24L23 25L24 25L24 26L23 26L23 27L24 27L24 26L26 26L26 25L29 25L29 26L27 26L27 27L29 27L29 26L32 26L32 25L34 25L34 26L33 26L33 27L34 27L34 26L35 26L35 27L36 27L36 26L35 26L35 25L34 25L34 24L35 24L35 23L34 23L34 24L31 24L31 25L30 25L30 24L28 24L28 23L30 23L30 22L27 22L27 21L29 21L29 20L28 20L28 19L29 19L29 18ZM30 18L30 19L31 19L31 18ZM20 19L20 20L18 20L18 21L20 21L20 22L18 22L18 23L17 23L17 24L19 24L19 23L20 23L20 24L21 24L21 23L20 23L20 22L21 22L21 19ZM15 20L15 21L16 21L16 20ZM30 20L30 21L31 21L31 22L32 22L32 23L33 23L33 22L32 22L32 21L34 21L34 22L35 22L35 21L34 21L34 20ZM40 20L40 21L41 21L41 20ZM1 21L1 22L2 22L2 21ZM10 21L10 23L11 23L11 24L13 24L13 23L14 23L14 22L13 22L13 23L11 23L11 21ZM4 22L4 23L5 23L5 22ZM6 22L6 23L7 23L7 22ZM8 22L8 23L9 23L9 22ZM26 23L26 24L24 24L24 25L26 25L26 24L27 24L27 23ZM5 24L5 25L7 25L7 24ZM11 25L11 26L12 26L12 25ZM31 27L31 28L32 28L32 27ZM21 28L21 29L22 29L22 30L21 30L21 31L20 31L20 33L19 33L19 32L16 32L16 31L15 31L15 30L14 30L14 32L16 32L16 34L15 34L15 33L13 33L13 34L14 34L14 35L11 35L11 36L16 36L16 34L18 34L18 35L17 35L17 36L18 36L18 35L19 35L19 34L20 34L20 33L21 33L21 31L22 31L22 33L23 33L23 32L24 32L24 31L23 31L23 29L22 29L22 28ZM33 28L33 29L32 29L32 30L33 30L33 29L34 29L34 28ZM35 28L35 29L36 29L36 30L34 30L34 31L38 31L38 30L37 30L37 29L36 29L36 28ZM7 29L7 30L6 30L6 31L7 31L7 30L8 30L8 29ZM25 29L25 31L26 31L26 29ZM28 31L28 32L30 32L30 31ZM18 33L18 34L19 34L19 33ZM30 33L30 35L31 35L31 33ZM33 33L33 36L36 36L36 33ZM38 33L38 36L37 36L37 37L38 37L38 36L39 36L39 33ZM34 34L34 35L35 35L35 34ZM8 36L8 39L9 39L9 36ZM24 37L24 38L25 38L25 39L26 39L26 37ZM34 37L34 38L36 38L36 37ZM37 38L37 39L38 39L38 38ZM9 40L9 41L11 41L11 40ZM12 40L12 41L13 41L13 40ZM14 40L14 41L15 41L15 40ZM0 0L0 7L7 7L7 0ZM1 1L1 6L6 6L6 1ZM2 2L2 5L5 5L5 2ZM34 0L34 7L41 7L41 0ZM35 1L35 6L40 6L40 1ZM36 2L36 5L39 5L39 2ZM0 34L0 41L7 41L7 34ZM1 35L1 40L6 40L6 35ZM2 36L2 39L5 39L5 36Z" fill="#000000"/></g></g></svg>
