<?xml version="1.0" encoding="UTF-8"?>
<svg xmlns="http://www.w3.org/2000/svg" version="1.1" width="200" height="200" viewBox="0 0 200 200"><rect x="0" y="0" width="200" height="200" fill="#ffffff"/><g transform="scale(6.897)"><g transform="translate(0,0)"><path fill-rule="evenodd" d="M9 0L9 2L8 2L8 4L9 4L9 5L10 5L10 8L9 8L9 9L10 9L10 10L9 10L9 13L7 13L7 12L5 12L5 10L6 10L6 11L8 11L8 10L6 10L6 9L8 9L8 8L6 8L6 9L5 9L5 8L3 8L3 9L1 9L1 10L2 10L2 11L0 11L0 12L2 12L2 14L0 14L0 15L1 15L1 16L0 16L0 21L2 21L2 20L3 20L3 21L4 21L4 20L5 20L5 21L8 21L8 23L10 23L10 22L9 22L9 21L8 21L8 20L9 20L9 19L10 19L10 21L11 21L11 24L12 24L12 25L11 25L11 27L10 27L10 29L12 29L12 28L13 28L13 29L14 29L14 28L15 28L15 29L16 29L16 28L17 28L17 29L20 29L20 28L21 28L21 29L23 29L23 28L24 28L24 29L26 29L26 28L27 28L27 29L28 29L28 28L27 28L27 27L29 27L29 26L27 26L27 24L28 24L28 25L29 25L29 23L27 23L27 24L26 24L26 28L25 28L25 27L23 27L23 28L22 28L22 26L21 26L21 27L20 27L20 28L19 28L19 27L18 27L18 26L17 26L17 27L16 27L16 28L15 28L15 26L16 26L16 25L17 25L17 24L19 24L19 25L24 25L24 26L25 26L25 22L28 22L28 21L26 21L26 20L25 20L25 18L26 18L26 19L27 19L27 18L28 18L28 19L29 19L29 17L28 17L28 16L29 16L29 14L28 14L28 13L29 13L29 11L28 11L28 10L26 10L26 9L27 9L27 8L25 8L25 12L24 12L24 16L23 16L23 12L22 12L22 11L21 11L21 10L19 10L19 9L17 9L17 10L18 10L18 11L19 11L19 12L18 12L18 13L17 13L17 11L16 11L16 8L19 8L19 6L20 6L20 8L21 8L21 4L19 4L19 3L20 3L20 1L21 1L21 0L19 0L19 1L18 1L18 0L17 0L17 1L18 1L18 2L19 2L19 3L18 3L18 5L19 5L19 6L18 6L18 7L17 7L17 5L16 5L16 4L15 4L15 6L14 6L14 9L13 9L13 11L10 11L10 10L12 10L12 9L10 9L10 8L11 8L11 6L12 6L12 8L13 8L13 6L12 6L12 5L10 5L10 2L11 2L11 4L13 4L13 5L14 5L14 4L13 4L13 3L17 3L17 2L15 2L15 1L16 1L16 0L15 0L15 1L12 1L12 0ZM12 2L12 3L13 3L13 2ZM8 6L8 7L9 7L9 6ZM15 6L15 7L16 7L16 6ZM3 9L3 10L5 10L5 9ZM14 9L14 10L15 10L15 9ZM22 9L22 10L23 10L23 11L24 11L24 9ZM2 11L2 12L3 12L3 13L4 13L4 14L2 14L2 15L4 15L4 14L7 14L7 13L5 13L5 12L4 12L4 11ZM14 11L14 12L12 12L12 16L13 16L13 17L12 17L12 18L16 18L16 17L14 17L14 14L15 14L15 11ZM27 11L27 12L28 12L28 11ZM10 12L10 13L9 13L9 14L8 14L8 16L7 16L7 15L6 15L6 16L5 16L5 17L4 17L4 16L3 16L3 17L2 17L2 16L1 16L1 17L2 17L2 19L3 19L3 20L4 20L4 18L5 18L5 17L6 17L6 18L8 18L8 19L6 19L6 20L8 20L8 19L9 19L9 15L10 15L10 16L11 16L11 15L10 15L10 14L11 14L11 12ZM19 12L19 13L18 13L18 14L17 14L17 13L16 13L16 14L17 14L17 15L16 15L16 16L17 16L17 18L18 18L18 19L16 19L16 22L14 22L14 24L13 24L13 23L12 23L12 24L13 24L13 25L12 25L12 26L13 26L13 27L14 27L14 26L13 26L13 25L14 25L14 24L15 24L15 25L16 25L16 24L17 24L17 23L19 23L19 24L20 24L20 21L19 21L19 20L18 20L18 19L19 19L19 18L20 18L20 19L21 19L21 20L22 20L22 19L21 19L21 16L20 16L20 15L21 15L21 14L22 14L22 12L21 12L21 14L20 14L20 15L18 15L18 14L19 14L19 13L20 13L20 12ZM13 13L13 14L14 14L14 13ZM25 13L25 16L26 16L26 17L27 17L27 16L28 16L28 14L27 14L27 16L26 16L26 13ZM6 16L6 17L7 17L7 16ZM18 16L18 18L19 18L19 16ZM22 16L22 17L23 17L23 16ZM3 17L3 18L4 18L4 17ZM10 17L10 19L11 19L11 20L12 20L12 21L14 21L14 20L13 20L13 19L11 19L11 17ZM23 19L23 20L24 20L24 19ZM17 21L17 22L18 22L18 21ZM21 21L21 24L24 24L24 21ZM22 22L22 23L23 23L23 22ZM15 23L15 24L16 24L16 23ZM8 24L8 26L9 26L9 24ZM17 27L17 28L18 28L18 27ZM0 0L0 7L7 7L7 0ZM1 1L1 6L6 6L6 1ZM2 2L2 5L5 5L5 2ZM22 0L22 7L29 7L29 0ZM23 1L23 6L28 6L28 1ZM24 2L24 5L27 5L27 2ZM0 22L0 29L7 29L7 22ZM1 23L1 28L6 28L6 23ZM2 24L2 27L5 27L5 24Z" fill="#000000"/></g></g></svg>
