<?xml version="1.0" encoding="UTF-8"?>
<svg xmlns="http://www.w3.org/2000/svg" version="1.1" width="200" height="200" viewBox="0 0 200 200"><rect x="0" y="0" width="200" height="200" fill="#ffffff"/><g transform="scale(4.878)"><g transform="translate(0,0)"><path fill-rule="evenodd" d="M8 0L8 1L10 1L10 0ZM11 0L11 2L12 2L12 3L11 3L11 5L10 5L10 3L9 3L9 2L8 2L8 3L9 3L9 4L8 4L8 5L9 5L9 6L8 6L8 8L10 8L10 10L9 10L9 9L7 9L7 8L5 8L5 9L1 9L1 10L4 10L4 11L3 11L3 12L2 12L2 11L1 11L1 12L0 12L0 13L1 13L1 14L0 14L0 18L1 18L1 19L0 19L0 20L1 20L1 21L0 21L0 25L1 25L1 24L2 24L2 25L3 25L3 26L4 26L4 27L3 27L3 28L4 28L4 29L3 29L3 30L4 30L4 31L2 31L2 30L1 30L1 29L2 29L2 28L1 28L1 27L2 27L2 26L1 26L1 27L0 27L0 28L1 28L1 29L0 29L0 33L1 33L1 31L2 31L2 32L4 32L4 31L5 31L5 33L8 33L8 34L9 34L9 33L8 33L8 32L9 32L9 31L7 31L7 30L4 30L4 29L5 29L5 28L6 28L6 29L8 29L8 27L7 27L7 26L6 26L6 27L5 27L5 25L4 25L4 24L6 24L6 25L7 25L7 24L8 24L8 22L9 22L9 23L11 23L11 25L10 25L10 26L9 26L9 25L8 25L8 26L9 26L9 27L10 27L10 28L11 28L11 25L13 25L13 26L14 26L14 25L15 25L15 26L16 26L16 25L15 25L15 24L14 24L14 22L13 22L13 21L16 21L16 22L17 22L17 20L18 20L18 23L16 23L16 24L17 24L17 26L18 26L18 27L16 27L16 29L15 29L15 30L17 30L17 28L18 28L18 30L19 30L19 31L16 31L16 32L15 32L15 31L14 31L14 27L13 27L13 28L12 28L12 29L10 29L10 30L11 30L11 31L12 31L12 33L11 33L11 32L10 32L10 33L11 33L11 35L13 35L13 34L12 34L12 33L17 33L17 34L15 34L15 35L14 35L14 37L12 37L12 36L11 36L11 38L9 38L9 39L10 39L10 41L13 41L13 40L15 40L15 41L19 41L19 40L21 40L21 41L23 41L23 40L24 40L24 39L23 39L23 40L22 40L22 39L20 39L20 38L25 38L25 37L20 37L20 36L21 36L21 35L22 35L22 36L24 36L24 35L25 35L25 36L26 36L26 37L27 37L27 38L26 38L26 39L25 39L25 40L26 40L26 41L27 41L27 39L28 39L28 40L29 40L29 41L30 41L30 40L29 40L29 39L30 39L30 38L31 38L31 39L32 39L32 38L33 38L33 37L36 37L36 38L34 38L34 39L33 39L33 41L34 41L34 40L36 40L36 39L37 39L37 40L38 40L38 39L40 39L40 40L41 40L41 39L40 39L40 38L41 38L41 35L40 35L40 34L39 34L39 33L41 33L41 32L38 32L38 30L37 30L37 29L36 29L36 28L39 28L39 29L40 29L40 30L39 30L39 31L41 31L41 29L40 29L40 28L39 28L39 27L40 27L40 26L41 26L41 25L39 25L39 24L37 24L37 21L39 21L39 22L41 22L41 20L40 20L40 19L41 19L41 15L40 15L40 14L41 14L41 11L40 11L40 9L41 9L41 8L40 8L40 9L39 9L39 8L38 8L38 10L37 10L37 8L36 8L36 9L35 9L35 8L34 8L34 9L35 9L35 10L34 10L34 12L35 12L35 13L36 13L36 14L38 14L38 15L34 15L34 14L32 14L32 17L31 17L31 15L30 15L30 14L31 14L31 13L32 13L32 12L30 12L30 14L29 14L29 12L27 12L27 11L29 11L29 9L30 9L30 10L32 10L32 11L33 11L33 6L32 6L32 7L31 7L31 5L32 5L32 4L30 4L30 5L29 5L29 6L28 6L28 7L29 7L29 6L30 6L30 7L31 7L31 8L32 8L32 9L30 9L30 8L28 8L28 9L27 9L27 8L26 8L26 10L27 10L27 11L26 11L26 12L27 12L27 13L25 13L25 14L24 14L24 12L25 12L25 11L23 11L23 14L22 14L22 15L21 15L21 16L23 16L23 18L24 18L24 19L21 19L21 21L20 21L20 16L18 16L18 15L19 15L19 12L22 12L22 11L20 11L20 10L19 10L19 8L20 8L20 9L22 9L22 10L24 10L24 9L22 9L22 8L24 8L24 7L25 7L25 6L26 6L26 7L27 7L27 6L26 6L26 5L27 5L27 4L28 4L28 3L33 3L33 1L32 1L32 2L30 2L30 1L31 1L31 0L30 0L30 1L29 1L29 0L28 0L28 2L26 2L26 5L24 5L24 7L23 7L23 6L22 6L22 7L21 7L21 6L20 6L20 7L19 7L19 6L18 6L18 7L19 7L19 8L17 8L17 4L18 4L18 5L20 5L20 4L18 4L18 3L16 3L16 2L18 2L18 0L17 0L17 1L16 1L16 0L15 0L15 1L14 1L14 2L12 2L12 1L13 1L13 0ZM19 0L19 2L20 2L20 3L21 3L21 4L23 4L23 2L22 2L22 1L23 1L23 0ZM25 0L25 1L24 1L24 4L25 4L25 1L26 1L26 0ZM15 1L15 2L14 2L14 5L13 5L13 7L14 7L14 8L15 8L15 9L14 9L14 13L17 13L17 14L12 14L12 13L13 13L13 11L12 11L12 6L11 6L11 7L10 7L10 6L9 6L9 7L10 7L10 8L11 8L11 11L10 11L10 12L11 12L11 11L12 11L12 13L11 13L11 15L10 15L10 14L9 14L9 12L8 12L8 13L6 13L6 14L8 14L8 16L9 16L9 18L8 18L8 19L6 19L6 18L7 18L7 17L5 17L5 15L2 15L2 16L1 16L1 17L2 17L2 18L3 18L3 17L5 17L5 19L4 19L4 23L5 23L5 22L8 22L8 21L5 21L5 19L6 19L6 20L8 20L8 19L11 19L11 20L12 20L12 19L14 19L14 20L15 20L15 19L17 19L17 14L18 14L18 13L17 13L17 12L19 12L19 11L18 11L18 10L17 10L17 12L16 12L16 11L15 11L15 9L16 9L16 6L15 6L15 7L14 7L14 5L15 5L15 4L16 4L16 3L15 3L15 2L16 2L16 1ZM20 1L20 2L21 2L21 3L22 3L22 2L21 2L21 1ZM12 3L12 4L13 4L13 3ZM20 7L20 8L21 8L21 7ZM6 9L6 10L7 10L7 11L6 11L6 12L7 12L7 11L9 11L9 10L7 10L7 9ZM35 10L35 12L36 12L36 13L37 13L37 12L36 12L36 10ZM4 11L4 12L5 12L5 11ZM38 11L38 12L39 12L39 13L38 13L38 14L39 14L39 13L40 13L40 11ZM3 13L3 14L4 14L4 13ZM27 13L27 15L28 15L28 16L27 16L27 17L28 17L28 19L27 19L27 18L26 18L26 16L25 16L25 15L26 15L26 14L25 14L25 15L24 15L24 14L23 14L23 16L25 16L25 18L26 18L26 19L24 19L24 20L22 20L22 21L21 21L21 23L20 23L20 21L19 21L19 23L18 23L18 25L20 25L20 24L21 24L21 26L19 26L19 27L18 27L18 28L20 28L20 29L19 29L19 30L21 30L21 31L20 31L20 32L21 32L21 33L19 33L19 32L17 32L17 33L18 33L18 34L17 34L17 36L16 36L16 35L15 35L15 36L16 36L16 37L15 37L15 38L14 38L14 39L15 39L15 40L18 40L18 39L19 39L19 38L20 38L20 37L18 37L18 34L21 34L21 33L22 33L22 32L21 32L21 31L22 31L22 29L23 29L23 30L24 30L24 31L25 31L25 33L24 33L24 32L23 32L23 33L24 33L24 34L23 34L23 35L24 35L24 34L25 34L25 35L26 35L26 36L28 36L28 38L30 38L30 37L31 37L31 38L32 38L32 37L31 37L31 36L32 36L32 35L31 35L31 34L30 34L30 35L31 35L31 36L30 36L30 37L29 37L29 36L28 36L28 35L27 35L27 34L26 34L26 32L30 32L30 33L31 33L31 32L30 32L30 31L29 31L29 29L25 29L25 28L24 28L24 27L23 27L23 28L22 28L22 25L23 25L23 23L25 23L25 24L26 24L26 25L25 25L25 27L26 27L26 25L27 25L27 24L29 24L29 25L30 25L30 26L29 26L29 28L31 28L31 29L30 29L30 30L31 30L31 31L32 31L32 29L33 29L33 28L32 28L32 26L31 26L31 25L30 25L30 24L31 24L31 23L32 23L32 24L33 24L33 26L34 26L34 27L35 27L35 26L36 26L36 27L37 27L37 26L36 26L36 25L37 25L37 24L36 24L36 23L35 23L35 22L36 22L36 21L35 21L35 18L36 18L36 20L39 20L39 21L40 21L40 20L39 20L39 19L40 19L40 16L39 16L39 17L38 17L38 16L36 16L36 17L35 17L35 16L34 16L34 17L32 17L32 18L33 18L33 19L32 19L32 20L31 20L31 19L29 19L29 18L31 18L31 17L29 17L29 16L30 16L30 15L29 15L29 14L28 14L28 13ZM6 15L6 16L7 16L7 15ZM9 15L9 16L10 16L10 15ZM11 15L11 16L14 16L14 17L10 17L10 18L11 18L11 19L12 19L12 18L16 18L16 15ZM21 17L21 18L22 18L22 17ZM34 17L34 18L35 18L35 17ZM36 17L36 18L37 18L37 17ZM18 18L18 20L19 20L19 18ZM38 18L38 19L39 19L39 18ZM26 19L26 21L24 21L24 22L26 22L26 24L27 24L27 23L28 23L28 22L29 22L29 19L28 19L28 20L27 20L27 19ZM33 19L33 23L34 23L34 26L35 26L35 23L34 23L34 19ZM9 20L9 21L10 21L10 20ZM30 20L30 21L31 21L31 22L32 22L32 21L31 21L31 20ZM1 21L1 23L2 23L2 21ZM11 22L11 23L12 23L12 24L13 24L13 23L12 23L12 22ZM22 22L22 23L23 23L23 22ZM6 23L6 24L7 24L7 23ZM40 23L40 24L41 24L41 23ZM38 26L38 27L39 27L39 26ZM4 27L4 28L5 28L5 27ZM6 27L6 28L7 28L7 27ZM20 27L20 28L21 28L21 27ZM27 27L27 28L28 28L28 27ZM23 28L23 29L24 29L24 30L25 30L25 31L28 31L28 30L25 30L25 29L24 29L24 28ZM34 28L34 30L33 30L33 31L34 31L34 32L35 32L35 30L36 30L36 29L35 29L35 28ZM12 29L12 30L13 30L13 29ZM6 31L6 32L7 32L7 31ZM13 31L13 32L14 32L14 31ZM37 32L37 37L39 37L39 38L40 38L40 35L39 35L39 34L38 34L38 32ZM33 33L33 36L36 36L36 33ZM34 34L34 35L35 35L35 34ZM8 35L8 36L9 36L9 37L10 37L10 36L9 36L9 35ZM16 37L16 39L18 39L18 38L17 38L17 37ZM37 38L37 39L38 39L38 38ZM11 39L11 40L12 40L12 39ZM31 40L31 41L32 41L32 40ZM0 0L0 7L7 7L7 0ZM1 1L1 6L6 6L6 1ZM2 2L2 5L5 5L5 2ZM34 0L34 7L41 7L41 0ZM35 1L35 6L40 6L40 1ZM36 2L36 5L39 5L39 2ZM0 34L0 41L7 41L7 34ZM1 35L1 40L6 40L6 35ZM2 36L2 39L5 39L5 36Z" fill="#000000"/></g></g></svg>
