<?xml version="1.0" encoding="UTF-8"?>
<svg xmlns="http://www.w3.org/2000/svg" version="1.1" width="200" height="200" viewBox="0 0 200 200"><rect x="0" y="0" width="200" height="200" fill="#ffffff"/><g transform="scale(4.878)"><g transform="translate(0,0)"><path fill-rule="evenodd" d="M8 0L8 2L9 2L9 3L8 3L8 7L9 7L9 5L11 5L11 6L10 6L10 7L11 7L11 6L12 6L12 8L11 8L11 10L10 10L10 9L8 9L8 10L10 10L10 11L11 11L11 12L12 12L12 13L8 13L8 15L7 15L7 14L6 14L6 15L7 15L7 16L5 16L5 15L4 15L4 13L7 13L7 12L6 12L6 11L7 11L7 10L6 10L6 9L7 9L7 8L6 8L6 9L4 9L4 8L3 8L3 9L4 9L4 10L2 10L2 9L1 9L1 10L0 10L0 11L1 11L1 12L0 12L0 13L1 13L1 12L3 12L3 13L2 13L2 14L0 14L0 15L1 15L1 16L0 16L0 17L1 17L1 16L5 16L5 19L4 19L4 18L1 18L1 19L3 19L3 20L0 20L0 24L1 24L1 25L7 25L7 24L5 24L5 22L4 22L4 21L5 21L5 19L7 19L7 20L6 20L6 21L7 21L7 20L9 20L9 22L10 22L10 19L12 19L12 16L13 16L13 19L16 19L16 20L17 20L17 22L18 22L18 25L16 25L16 24L17 24L17 23L14 23L14 22L15 22L15 20L12 20L12 21L11 21L11 24L12 24L12 25L10 25L10 23L9 23L9 26L8 26L8 27L7 27L7 26L6 26L6 27L7 27L7 28L6 28L6 29L5 29L5 28L4 28L4 27L5 27L5 26L2 26L2 27L1 27L1 30L0 30L0 31L1 31L1 30L2 30L2 29L3 29L3 28L4 28L4 29L5 29L5 32L6 32L6 33L7 33L7 32L6 32L6 31L8 31L8 32L9 32L9 31L13 31L13 32L12 32L12 33L15 33L15 34L14 34L14 36L15 36L15 35L17 35L17 36L16 36L16 37L15 37L15 38L14 38L14 37L13 37L13 34L12 34L12 37L11 37L11 33L10 33L10 34L9 34L9 33L8 33L8 34L9 34L9 36L10 36L10 38L9 38L9 37L8 37L8 38L9 38L9 39L13 39L13 38L14 38L14 39L15 39L15 38L16 38L16 39L17 39L17 37L18 37L18 36L19 36L19 35L17 35L17 34L20 34L20 35L23 35L23 36L22 36L22 37L20 37L20 38L19 38L19 39L21 39L21 41L33 41L33 39L34 39L34 38L36 38L36 40L37 40L37 41L40 41L40 39L41 39L41 38L40 38L40 37L41 37L41 36L40 36L40 37L37 37L37 33L39 33L39 34L38 34L38 36L39 36L39 34L41 34L41 33L39 33L39 32L37 32L37 30L38 30L38 31L39 31L39 30L40 30L40 32L41 32L41 29L39 29L39 28L41 28L41 26L40 26L40 27L39 27L39 28L37 28L37 30L36 30L36 29L35 29L35 30L36 30L36 31L34 31L34 30L32 30L32 29L33 29L33 28L32 28L32 27L30 27L30 26L32 26L32 24L34 24L34 25L35 25L35 24L34 24L34 22L35 22L35 23L37 23L37 24L38 24L38 25L37 25L37 26L36 26L36 27L35 27L35 26L34 26L34 27L35 27L35 28L36 28L36 27L38 27L38 26L39 26L39 25L40 25L40 24L41 24L41 23L40 23L40 22L39 22L39 23L37 23L37 22L38 22L38 21L40 21L40 20L41 20L41 16L39 16L39 17L38 17L38 18L37 18L37 19L36 19L36 21L35 21L35 19L34 19L34 18L35 18L35 17L36 17L36 15L37 15L37 16L38 16L38 15L41 15L41 14L40 14L40 13L39 13L39 11L38 11L38 13L39 13L39 14L38 14L38 15L37 15L37 14L36 14L36 13L34 13L34 12L36 12L36 11L35 11L35 10L36 10L36 9L37 9L37 10L38 10L38 8L35 8L35 9L34 9L34 10L30 10L30 12L28 12L28 11L29 11L29 8L31 8L31 6L32 6L32 9L33 9L33 6L32 6L32 5L33 5L33 3L31 3L31 1L32 1L32 2L33 2L33 0L31 0L31 1L30 1L30 0L27 0L27 2L26 2L26 3L25 3L25 4L24 4L24 2L25 2L25 1L24 1L24 0L20 0L20 1L19 1L19 2L18 2L18 0ZM10 1L10 3L9 3L9 4L11 4L11 3L12 3L12 2L13 2L13 3L14 3L14 4L15 4L15 5L14 5L14 6L13 6L13 4L12 4L12 6L13 6L13 9L12 9L12 10L11 10L11 11L12 11L12 12L13 12L13 11L14 11L14 10L13 10L13 9L14 9L14 8L15 8L15 7L16 7L16 6L17 6L17 7L18 7L18 8L16 8L16 9L15 9L15 11L17 11L17 12L16 12L16 13L15 13L15 12L14 12L14 13L12 13L12 14L11 14L11 15L10 15L10 14L9 14L9 15L10 15L10 16L8 16L8 17L6 17L6 18L7 18L7 19L8 19L8 18L11 18L11 16L12 16L12 14L14 14L14 15L15 15L15 14L16 14L16 16L15 16L15 17L14 17L14 18L15 18L15 17L19 17L19 19L18 19L18 18L16 18L16 19L18 19L18 20L19 20L19 21L18 21L18 22L19 22L19 23L20 23L20 26L18 26L18 28L17 28L17 27L15 27L15 24L13 24L13 25L12 25L12 26L9 26L9 27L8 27L8 28L7 28L7 29L6 29L6 30L7 30L7 29L8 29L8 30L9 30L9 29L8 29L8 28L10 28L10 29L11 29L11 30L12 30L12 28L13 28L13 31L14 31L14 32L16 32L16 30L17 30L17 31L18 31L18 33L19 33L19 31L20 31L20 33L21 33L21 34L23 34L23 35L24 35L24 36L23 36L23 37L22 37L22 40L23 40L23 37L25 37L25 38L24 38L24 40L25 40L25 39L28 39L28 40L29 40L29 39L28 39L28 37L30 37L30 39L31 39L31 40L32 40L32 38L33 38L33 37L32 37L32 36L31 36L31 35L32 35L32 33L31 33L31 34L30 34L30 32L27 32L27 31L29 31L29 30L30 30L30 29L28 29L28 30L27 30L27 31L24 31L24 28L25 28L25 27L28 27L28 28L29 28L29 27L28 27L28 25L29 25L29 26L30 26L30 25L29 25L29 24L30 24L30 23L29 23L29 22L28 22L28 20L29 20L29 19L30 19L30 17L29 17L29 16L28 16L28 15L27 15L27 13L28 13L28 14L29 14L29 13L28 13L28 12L27 12L27 11L28 11L28 6L29 6L29 7L30 7L30 6L31 6L31 5L32 5L32 4L31 4L31 5L30 5L30 4L28 4L28 3L30 3L30 1L28 1L28 2L27 2L27 3L26 3L26 5L25 5L25 9L21 9L21 7L22 7L22 6L23 6L23 8L24 8L24 6L23 6L23 5L24 5L24 4L22 4L22 3L21 3L21 1L20 1L20 2L19 2L19 3L18 3L18 4L17 4L17 1L16 1L16 4L15 4L15 3L14 3L14 2L15 2L15 1L12 1L12 2L11 2L11 1ZM22 1L22 2L23 2L23 1ZM19 3L19 4L18 4L18 5L17 5L17 4L16 4L16 5L15 5L15 6L14 6L14 7L15 7L15 6L16 6L16 5L17 5L17 6L18 6L18 7L19 7L19 6L20 6L20 7L21 7L21 5L19 5L19 4L21 4L21 3ZM27 4L27 6L26 6L26 8L27 8L27 6L28 6L28 4ZM19 8L19 9L16 9L16 10L18 10L18 11L20 11L20 12L19 12L19 14L18 14L18 12L17 12L17 13L16 13L16 14L18 14L18 15L19 15L19 17L22 17L22 18L23 18L23 19L22 19L22 21L21 21L21 22L20 22L20 21L19 21L19 22L20 22L20 23L21 23L21 22L23 22L23 23L22 23L22 24L23 24L23 23L24 23L24 26L21 26L21 27L20 27L20 28L19 28L19 29L17 29L17 30L19 30L19 29L20 29L20 30L21 30L21 32L22 32L22 33L23 33L23 32L24 32L24 34L25 34L25 35L27 35L27 34L26 34L26 33L27 33L27 32L24 32L24 31L23 31L23 30L21 30L21 29L22 29L22 28L21 28L21 27L23 27L23 28L24 28L24 26L26 26L26 25L25 25L25 23L24 23L24 22L25 22L25 21L27 21L27 18L26 18L26 19L25 19L25 17L26 17L26 16L27 16L27 17L28 17L28 16L27 16L27 15L26 15L26 16L22 16L22 15L24 15L24 14L25 14L25 13L26 13L26 11L27 11L27 9L26 9L26 10L25 10L25 13L24 13L24 12L22 12L22 13L21 13L21 14L22 14L22 15L21 15L21 16L20 16L20 15L19 15L19 14L20 14L20 12L21 12L21 11L23 11L23 10L19 10L19 9L20 9L20 8ZM39 8L39 9L40 9L40 10L41 10L41 8ZM1 10L1 11L2 11L2 10ZM4 10L4 12L5 12L5 10ZM12 10L12 11L13 11L13 10ZM31 12L31 13L30 13L30 14L31 14L31 15L30 15L30 16L31 16L31 15L32 15L32 17L31 17L31 22L32 22L32 23L33 23L33 22L34 22L34 19L33 19L33 21L32 21L32 17L35 17L35 15L36 15L36 14L35 14L35 15L34 15L34 14L33 14L33 12ZM23 13L23 14L24 14L24 13ZM32 14L32 15L33 15L33 14ZM39 17L39 19L38 19L38 20L37 20L37 21L36 21L36 22L37 22L37 21L38 21L38 20L40 20L40 17ZM19 19L19 20L21 20L21 19ZM3 20L3 21L2 21L2 23L1 23L1 24L2 24L2 23L3 23L3 24L4 24L4 23L3 23L3 21L4 21L4 20ZM24 20L24 21L25 21L25 20ZM13 21L13 22L12 22L12 23L13 23L13 22L14 22L14 21ZM6 22L6 23L8 23L8 22ZM26 23L26 24L27 24L27 23ZM13 25L13 26L12 26L12 27L10 27L10 28L12 28L12 27L13 27L13 26L14 26L14 25ZM14 28L14 29L16 29L16 28ZM26 28L26 29L25 29L25 30L26 30L26 29L27 29L27 28ZM3 30L3 31L2 31L2 33L4 33L4 32L3 32L3 31L4 31L4 30ZM14 30L14 31L15 31L15 30ZM22 31L22 32L23 32L23 31ZM33 31L33 32L34 32L34 31ZM0 32L0 33L1 33L1 32ZM16 33L16 34L17 34L17 33ZM33 33L33 36L36 36L36 33ZM28 34L28 35L29 35L29 36L30 36L30 34ZM34 34L34 35L35 35L35 34ZM26 36L26 38L27 38L27 36ZM12 37L12 38L13 38L13 37ZM36 37L36 38L37 38L37 40L38 40L38 38L37 38L37 37ZM39 38L39 39L40 39L40 38ZM9 40L9 41L10 41L10 40ZM13 40L13 41L14 41L14 40ZM18 40L18 41L19 41L19 40ZM0 0L0 7L7 7L7 0ZM1 1L1 6L6 6L6 1ZM2 2L2 5L5 5L5 2ZM34 0L34 7L41 7L41 0ZM35 1L35 6L40 6L40 1ZM36 2L36 5L39 5L39 2ZM0 34L0 41L7 41L7 34ZM1 35L1 40L6 40L6 35ZM2 36L2 39L5 39L5 36Z" fill="#000000"/></g></g></svg>
