<?xml version="1.0" encoding="UTF-8"?>
<svg xmlns="http://www.w3.org/2000/svg" version="1.1" width="200" height="200" viewBox="0 0 200 200"><rect x="0" y="0" width="200" height="200" fill="#ffffff"/><g transform="scale(6.897)"><g transform="translate(0,0)"><path fill-rule="evenodd" d="M9 0L9 2L8 2L8 4L9 4L9 6L8 6L8 7L9 7L9 6L10 6L10 7L11 7L11 9L10 9L10 10L11 10L11 11L9 11L9 9L8 9L8 8L6 8L6 9L7 9L7 10L4 10L4 11L5 11L5 12L4 12L4 14L3 14L3 11L2 11L2 10L3 10L3 9L5 9L5 8L3 8L3 9L1 9L1 10L0 10L0 13L1 13L1 14L2 14L2 15L1 15L1 16L0 16L0 21L4 21L4 20L2 20L2 17L4 17L4 18L3 18L3 19L5 19L5 21L7 21L7 20L6 20L6 19L7 19L7 18L6 18L6 19L5 19L5 17L4 17L4 16L2 16L2 15L7 15L7 16L6 16L6 17L7 17L7 16L8 16L8 17L9 17L9 18L8 18L8 20L14 20L14 19L13 19L13 18L14 18L14 17L16 17L16 18L15 18L15 19L16 19L16 20L18 20L18 21L20 21L20 24L19 24L19 22L18 22L18 25L17 25L17 21L16 21L16 23L15 23L15 22L14 22L14 21L10 21L10 22L9 22L9 21L8 21L8 23L10 23L10 24L11 24L11 23L12 23L12 22L13 22L13 23L14 23L14 25L12 25L12 26L13 26L13 27L11 27L11 25L10 25L10 28L13 28L13 29L14 29L14 28L16 28L16 29L20 29L20 28L21 28L21 29L23 29L23 28L24 28L24 29L25 29L25 28L27 28L27 29L28 29L28 28L27 28L27 27L29 27L29 26L26 26L26 25L29 25L29 22L28 22L28 21L26 21L26 20L27 20L27 19L25 19L25 18L28 18L28 19L29 19L29 17L28 17L28 16L29 16L29 14L27 14L27 13L29 13L29 11L28 11L28 10L27 10L27 8L25 8L25 12L24 12L24 16L23 16L23 12L22 12L22 11L21 11L21 10L19 10L19 9L17 9L17 8L19 8L19 6L20 6L20 7L21 7L21 4L19 4L19 3L20 3L20 1L21 1L21 0L19 0L19 1L18 1L18 0L17 0L17 1L18 1L18 2L19 2L19 3L18 3L18 4L19 4L19 6L18 6L18 7L17 7L17 5L16 5L16 4L17 4L17 3L16 3L16 2L15 2L15 0L13 0L13 1L12 1L12 0ZM11 1L11 2L12 2L12 1ZM9 2L9 4L11 4L11 5L10 5L10 6L11 6L11 7L12 7L12 6L13 6L13 9L14 9L14 10L13 10L13 11L12 11L12 13L11 13L11 12L10 12L10 13L8 13L8 12L9 12L9 11L6 11L6 12L5 12L5 14L8 14L8 16L9 16L9 17L10 17L10 19L11 19L11 17L10 17L10 15L9 15L9 14L12 14L12 16L13 16L13 17L12 17L12 18L13 18L13 17L14 17L14 16L16 16L16 17L17 17L17 18L20 18L20 19L21 19L21 20L22 20L22 19L21 19L21 16L20 16L20 15L21 15L21 14L22 14L22 12L21 12L21 14L20 14L20 15L19 15L19 14L17 14L17 15L16 15L16 14L14 14L14 13L18 13L18 11L17 11L17 12L14 12L14 13L13 13L13 11L15 11L15 10L16 10L16 9L15 9L15 7L16 7L16 6L15 6L15 7L14 7L14 6L13 6L13 5L14 5L14 4L16 4L16 3L15 3L15 2L13 2L13 3L14 3L14 4L13 4L13 5L12 5L12 3L10 3L10 2ZM11 5L11 6L12 6L12 5ZM11 9L11 10L12 10L12 9ZM22 9L22 10L23 10L23 11L24 11L24 9ZM26 10L26 11L27 11L27 12L28 12L28 11L27 11L27 10ZM1 11L1 12L2 12L2 11ZM6 12L6 13L7 13L7 12ZM19 12L19 13L20 13L20 12ZM12 13L12 14L13 14L13 16L14 16L14 14L13 14L13 13ZM25 13L25 16L26 16L26 17L27 17L27 16L28 16L28 15L27 15L27 16L26 16L26 13ZM1 16L1 17L2 17L2 16ZM18 16L18 17L19 17L19 16ZM22 16L22 17L23 17L23 16ZM23 19L23 20L24 20L24 19ZM21 21L21 24L24 24L24 21ZM10 22L10 23L11 23L11 22ZM22 22L22 23L23 23L23 22ZM25 22L25 25L26 25L26 24L28 24L28 23L27 23L27 22ZM8 24L8 26L9 26L9 24ZM19 25L19 28L20 28L20 27L21 27L21 26L22 26L22 28L23 28L23 27L26 27L26 26L24 26L24 25ZM14 26L14 27L13 27L13 28L14 28L14 27L16 27L16 26ZM0 0L0 7L7 7L7 0ZM1 1L1 6L6 6L6 1ZM2 2L2 5L5 5L5 2ZM22 0L22 7L29 7L29 0ZM23 1L23 6L28 6L28 1ZM24 2L24 5L27 5L27 2ZM0 22L0 29L7 29L7 22ZM1 23L1 28L6 28L6 23ZM2 24L2 27L5 27L5 24Z" fill="#000000"/></g></g></svg>
