<?xml version="1.0" encoding="UTF-8"?>
<svg xmlns="http://www.w3.org/2000/svg" version="1.1" width="200" height="200" viewBox="0 0 200 200"><rect x="0" y="0" width="200" height="200" fill="#ffffff"/><g transform="scale(4.878)"><g transform="translate(0,0)"><path fill-rule="evenodd" d="M9 0L9 1L10 1L10 0ZM11 0L11 1L12 1L12 2L8 2L8 4L9 4L9 6L8 6L8 7L9 7L9 8L10 8L10 7L11 7L11 8L13 8L13 10L12 10L12 9L10 9L10 11L9 11L9 9L8 9L8 8L6 8L6 9L5 9L5 8L3 8L3 9L2 9L2 10L1 10L1 9L0 9L0 12L2 12L2 14L1 14L1 16L2 16L2 17L4 17L4 16L2 16L2 15L5 15L5 16L6 16L6 17L5 17L5 19L4 19L4 20L3 20L3 21L4 21L4 22L3 22L3 23L2 23L2 24L4 24L4 25L1 25L1 24L0 24L0 25L1 25L1 26L0 26L0 27L1 27L1 28L2 28L2 29L3 29L3 31L2 31L2 30L1 30L1 29L0 29L0 33L8 33L8 35L9 35L9 33L12 33L12 32L15 32L15 31L16 31L16 32L17 32L17 33L18 33L18 34L17 34L17 35L16 35L16 33L13 33L13 34L10 34L10 35L11 35L11 37L12 37L12 35L13 35L13 37L14 37L14 39L16 39L16 38L18 38L18 39L19 39L19 40L18 40L18 41L19 41L19 40L21 40L21 41L23 41L23 40L21 40L21 39L23 39L23 38L24 38L24 39L25 39L25 38L24 38L24 37L27 37L27 38L26 38L26 40L25 40L25 41L26 41L26 40L27 40L27 41L29 41L29 39L28 39L28 38L29 38L29 37L30 37L30 39L32 39L32 37L36 37L36 38L35 38L35 39L33 39L33 40L30 40L30 41L34 41L34 40L35 40L35 41L36 41L36 39L37 39L37 40L38 40L38 41L39 41L39 40L38 40L38 39L40 39L40 40L41 40L41 36L40 36L40 34L37 34L37 32L38 32L38 33L39 33L39 31L41 31L41 30L38 30L38 29L41 29L41 25L39 25L39 24L37 24L37 20L38 20L38 23L39 23L39 22L41 22L41 21L39 21L39 20L40 20L40 19L41 19L41 18L40 18L40 17L41 17L41 12L40 12L40 13L39 13L39 12L38 12L38 10L39 10L39 11L40 11L40 9L39 9L39 8L37 8L37 9L36 9L36 10L34 10L34 9L33 9L33 10L32 10L32 7L33 7L33 6L32 6L32 7L31 7L31 5L32 5L32 4L33 4L33 3L32 3L32 4L29 4L29 5L28 5L28 7L27 7L27 6L26 6L26 8L27 8L27 9L26 9L26 11L28 11L28 15L27 15L27 14L24 14L24 13L25 13L25 12L22 12L22 11L25 11L25 5L26 5L26 4L28 4L28 2L29 2L29 3L31 3L31 2L33 2L33 1L31 1L31 0L30 0L30 1L29 1L29 0L28 0L28 2L27 2L27 1L26 1L26 0L25 0L25 1L24 1L24 0L22 0L22 1L21 1L21 0L18 0L18 2L17 2L17 3L16 3L16 4L17 4L17 6L16 6L16 5L15 5L15 6L14 6L14 7L13 7L13 6L12 6L12 5L14 5L14 4L15 4L15 3L13 3L13 1L12 1L12 0ZM15 0L15 1L14 1L14 2L15 2L15 1L17 1L17 0ZM22 1L22 2L23 2L23 3L22 3L22 4L21 4L21 3L20 3L20 2L19 2L19 3L17 3L17 4L18 4L18 6L17 6L17 7L16 7L16 6L15 6L15 9L14 9L14 10L15 10L15 11L14 11L14 12L15 12L15 13L17 13L17 14L16 14L16 15L15 15L15 14L14 14L14 15L13 15L13 17L11 17L11 15L12 15L12 14L13 14L13 11L12 11L12 14L11 14L11 13L10 13L10 12L11 12L11 11L10 11L10 12L8 12L8 11L6 11L6 12L7 12L7 13L5 13L5 10L4 10L4 9L3 9L3 10L2 10L2 11L3 11L3 13L4 13L4 14L7 14L7 15L6 15L6 16L7 16L7 15L8 15L8 16L10 16L10 17L8 17L8 18L7 18L7 17L6 17L6 18L7 18L7 19L5 19L5 20L4 20L4 21L5 21L5 22L10 22L10 25L11 25L11 23L12 23L12 22L15 22L15 24L14 24L14 23L13 23L13 24L14 24L14 28L13 28L13 27L12 27L12 26L10 26L10 27L9 27L9 25L8 25L8 26L7 26L7 25L6 25L6 24L7 24L7 23L6 23L6 24L5 24L5 25L4 25L4 26L1 26L1 27L2 27L2 28L5 28L5 29L6 29L6 30L8 30L8 31L9 31L9 30L10 30L10 28L11 28L11 31L13 31L13 30L16 30L16 31L17 31L17 30L19 30L19 29L20 29L20 27L21 27L21 29L22 29L22 30L23 30L23 32L22 32L22 31L21 31L21 33L20 33L20 32L19 32L19 31L18 31L18 32L19 32L19 34L18 34L18 35L17 35L17 36L16 36L16 35L15 35L15 34L13 34L13 35L14 35L14 37L18 37L18 38L19 38L19 39L20 39L20 37L18 37L18 36L20 36L20 35L21 35L21 38L23 38L23 37L24 37L24 36L26 36L26 35L24 35L24 34L27 34L27 32L28 32L28 33L29 33L29 32L31 32L31 33L30 33L30 34L29 34L29 35L27 35L27 36L30 36L30 37L31 37L31 36L32 36L32 35L31 35L31 33L32 33L32 32L33 32L33 31L34 31L34 32L35 32L35 30L36 30L36 31L37 31L37 30L36 30L36 29L38 29L38 28L36 28L36 29L35 29L35 28L34 28L34 29L35 29L35 30L33 30L33 31L32 31L32 28L31 28L31 26L32 26L32 27L33 27L33 26L32 26L32 25L33 25L33 24L32 24L32 25L31 25L31 23L32 23L32 22L33 22L33 23L34 23L34 24L35 24L35 27L39 27L39 28L40 28L40 27L39 27L39 25L37 25L37 24L35 24L35 23L36 23L36 21L34 21L34 22L33 22L33 20L31 20L31 19L29 19L29 18L28 18L28 20L29 20L29 21L28 21L28 22L31 22L31 23L30 23L30 24L28 24L28 26L29 26L29 30L28 30L28 27L25 27L25 26L24 26L24 25L25 25L25 24L26 24L26 25L27 25L27 24L26 24L26 23L27 23L27 22L26 22L26 20L27 20L27 19L26 19L26 18L25 18L25 19L26 19L26 20L25 20L25 21L23 21L23 20L24 20L24 19L22 19L22 17L21 17L21 16L20 16L20 17L19 17L19 16L18 16L18 18L19 18L19 20L20 20L20 19L21 19L21 20L22 20L22 21L21 21L21 24L20 24L20 27L18 27L18 28L19 28L19 29L17 29L17 30L16 30L16 29L14 29L14 28L17 28L17 27L15 27L15 26L18 26L18 25L19 25L19 23L16 23L16 21L17 21L17 22L19 22L19 21L17 21L17 20L18 20L18 19L17 19L17 20L15 20L15 19L16 19L16 18L15 18L15 17L17 17L17 16L16 16L16 15L20 15L20 14L21 14L21 15L22 15L22 16L23 16L23 17L24 17L24 16L25 16L25 15L24 15L24 16L23 16L23 13L22 13L22 12L19 12L19 11L21 11L21 10L24 10L24 9L22 9L22 6L23 6L23 7L24 7L24 5L22 5L22 4L24 4L24 2L23 2L23 1ZM30 1L30 2L31 2L31 1ZM10 3L10 4L11 4L11 5L10 5L10 6L9 6L9 7L10 7L10 6L11 6L11 7L12 7L12 6L11 6L11 5L12 5L12 3ZM19 3L19 4L20 4L20 5L19 5L19 6L18 6L18 7L17 7L17 8L19 8L19 6L20 6L20 9L21 9L21 6L22 6L22 5L21 5L21 4L20 4L20 3ZM25 3L25 4L26 4L26 3ZM29 5L29 8L28 8L28 9L29 9L29 10L28 10L28 11L30 11L30 9L31 9L31 8L30 8L30 5ZM29 8L29 9L30 9L30 8ZM6 9L6 10L8 10L8 9ZM16 9L16 10L17 10L17 9ZM37 9L37 10L36 10L36 11L34 11L34 10L33 10L33 11L32 11L32 10L31 10L31 12L32 12L32 13L33 13L33 14L36 14L36 13L37 13L37 12L36 12L36 11L37 11L37 10L38 10L38 9ZM3 10L3 11L4 11L4 10ZM18 10L18 11L19 11L19 10ZM17 12L17 13L19 13L19 14L20 14L20 13L19 13L19 12ZM29 12L29 15L28 15L28 16L27 16L27 15L26 15L26 17L30 17L30 18L31 18L31 17L32 17L32 19L34 19L34 20L35 20L35 17L37 17L37 18L36 18L36 20L37 20L37 19L39 19L39 17L40 17L40 16L38 16L38 15L37 15L37 16L34 16L34 17L33 17L33 16L32 16L32 15L31 15L31 14L30 14L30 12ZM35 12L35 13L36 13L36 12ZM8 13L8 14L10 14L10 13ZM14 15L14 16L15 16L15 15ZM30 16L30 17L31 17L31 16ZM37 16L37 17L38 17L38 16ZM0 17L0 18L1 18L1 17ZM13 17L13 18L12 18L12 19L11 19L11 18L8 18L8 19L7 19L7 20L5 20L5 21L10 21L10 20L11 20L11 22L12 22L12 19L13 19L13 20L14 20L14 17ZM20 17L20 18L21 18L21 17ZM8 19L8 20L9 20L9 19ZM1 20L1 21L0 21L0 22L1 22L1 21L2 21L2 20ZM30 20L30 21L31 21L31 22L32 22L32 21L31 21L31 20ZM23 22L23 23L22 23L22 24L21 24L21 25L22 25L22 24L25 24L25 23L26 23L26 22L25 22L25 23L24 23L24 22ZM8 23L8 24L9 24L9 23ZM5 25L5 26L6 26L6 27L7 27L7 28L6 28L6 29L8 29L8 28L9 28L9 27L7 27L7 26L6 26L6 25ZM29 25L29 26L31 26L31 25ZM36 25L36 26L37 26L37 25ZM21 26L21 27L22 27L22 28L23 28L23 30L24 30L24 28L23 28L23 27L22 27L22 26ZM12 29L12 30L13 30L13 29ZM25 29L25 30L26 30L26 31L28 31L28 30L26 30L26 29ZM30 29L30 30L29 30L29 31L31 31L31 29ZM3 31L3 32L4 32L4 31ZM5 31L5 32L7 32L7 31ZM24 32L24 33L21 33L21 35L23 35L23 34L24 34L24 33L25 33L25 32ZM40 32L40 33L41 33L41 32ZM33 33L33 36L36 36L36 33ZM19 34L19 35L20 35L20 34ZM34 34L34 35L35 35L35 34ZM30 35L30 36L31 36L31 35ZM37 35L37 38L40 38L40 36L39 36L39 35ZM8 36L8 38L10 38L10 39L9 39L9 40L11 40L11 41L13 41L13 39L12 39L12 40L11 40L11 38L10 38L10 36ZM27 39L27 40L28 40L28 39ZM14 40L14 41L17 41L17 40ZM0 0L0 7L7 7L7 0ZM1 1L1 6L6 6L6 1ZM2 2L2 5L5 5L5 2ZM34 0L34 7L41 7L41 0ZM35 1L35 6L40 6L40 1ZM36 2L36 5L39 5L39 2ZM0 34L0 41L7 41L7 34ZM1 35L1 40L6 40L6 35ZM2 36L2 39L5 39L5 36Z" fill="#000000"/></g></g></svg>
