<?xml version="1.0" encoding="UTF-8"?>
<svg xmlns="http://www.w3.org/2000/svg" version="1.1" width="200" height="200" viewBox="0 0 200 200"><rect x="0" y="0" width="200" height="200" fill="#ffffff"/><g transform="scale(4.878)"><g transform="translate(0,0)"><path fill-rule="evenodd" d="M8 0L8 3L9 3L9 5L8 5L8 10L6 10L6 9L7 9L7 8L6 8L6 9L5 9L5 8L2 8L2 9L3 9L3 11L2 11L2 10L1 10L1 13L0 13L0 15L1 15L1 17L3 17L3 18L2 18L2 19L1 19L1 18L0 18L0 19L1 19L1 20L0 20L0 21L1 21L1 22L0 22L0 23L1 23L1 24L0 24L0 26L1 26L1 27L0 27L0 28L1 28L1 29L0 29L0 33L1 33L1 29L3 29L3 28L4 28L4 26L3 26L3 25L5 25L5 24L6 24L6 25L9 25L9 26L5 26L5 27L8 27L8 28L9 28L9 29L10 29L10 31L9 31L9 30L8 30L8 29L7 29L7 28L6 28L6 29L5 29L5 30L6 30L6 31L4 31L4 30L3 30L3 31L2 31L2 32L3 32L3 31L4 31L4 33L7 33L7 32L6 32L6 31L7 31L7 30L8 30L8 31L9 31L9 32L8 32L8 34L10 34L10 35L9 35L9 36L8 36L8 39L9 39L9 41L11 41L11 38L13 38L13 35L12 35L12 34L14 34L14 35L15 35L15 36L14 36L14 38L15 38L15 36L17 36L17 37L16 37L16 39L17 39L17 38L18 38L18 39L19 39L19 40L18 40L18 41L19 41L19 40L21 40L21 41L23 41L23 40L24 40L24 41L31 41L31 40L33 40L33 41L34 41L34 40L33 40L33 39L31 39L31 40L28 40L28 39L29 39L29 38L27 38L27 37L29 37L29 36L31 36L31 35L32 35L32 37L30 37L30 38L32 38L32 37L33 37L33 38L34 38L34 39L35 39L35 40L36 40L36 39L37 39L37 40L40 40L40 38L41 38L41 37L39 37L39 36L41 36L41 35L40 35L40 34L41 34L41 33L39 33L39 32L40 32L40 30L41 30L41 29L39 29L39 32L37 32L37 31L38 31L38 29L35 29L35 30L34 30L34 31L35 31L35 32L33 32L33 31L32 31L32 30L33 30L33 29L34 29L34 28L33 28L33 29L32 29L32 30L31 30L31 29L30 29L30 28L28 28L28 26L32 26L32 27L31 27L31 28L32 28L32 27L34 27L34 26L36 26L36 27L37 27L37 28L38 28L38 26L39 26L39 27L40 27L40 28L41 28L41 27L40 27L40 26L41 26L41 23L39 23L39 24L40 24L40 26L39 26L39 25L33 25L33 24L32 24L32 25L30 25L30 24L31 24L31 23L30 23L30 22L27 22L27 20L28 20L28 21L29 21L29 20L28 20L28 18L27 18L27 15L24 15L24 14L25 14L25 13L26 13L26 12L27 12L27 14L29 14L29 13L30 13L30 14L31 14L31 12L29 12L29 9L30 9L30 10L32 10L32 9L34 9L34 11L33 11L33 12L32 12L32 13L33 13L33 14L32 14L32 15L34 15L34 13L35 13L35 11L36 11L36 12L38 12L38 11L39 11L39 12L41 12L41 11L40 11L40 10L41 10L41 8L38 8L38 9L40 9L40 10L37 10L37 9L36 9L36 8L33 8L33 5L32 5L32 4L33 4L33 3L32 3L32 4L30 4L30 5L32 5L32 7L31 7L31 6L30 6L30 7L31 7L31 8L32 8L32 9L30 9L30 8L29 8L29 6L28 6L28 5L29 5L29 4L28 4L28 5L27 5L27 4L26 4L26 5L25 5L25 0L24 0L24 1L23 1L23 0L22 0L22 1L21 1L21 0L20 0L20 1L19 1L19 2L18 2L18 3L17 3L17 2L16 2L16 1L18 1L18 0L15 0L15 2L14 2L14 0ZM26 0L26 1L27 1L27 2L26 2L26 3L31 3L31 2L30 2L30 1L32 1L32 2L33 2L33 0L29 0L29 1L27 1L27 0ZM9 1L9 3L10 3L10 1ZM11 1L11 4L10 4L10 6L9 6L9 7L10 7L10 8L9 8L9 9L10 9L10 10L11 10L11 11L9 11L9 10L8 10L8 12L9 12L9 15L10 15L10 14L12 14L12 10L11 10L11 9L10 9L10 8L11 8L11 7L12 7L12 9L13 9L13 10L14 10L14 9L13 9L13 7L14 7L14 8L15 8L15 7L16 7L16 4L17 4L17 7L18 7L18 4L17 4L17 3L16 3L16 2L15 2L15 4L12 4L12 3L14 3L14 2L12 2L12 1ZM20 1L20 2L19 2L19 8L17 8L17 9L16 9L16 11L18 11L18 10L17 10L17 9L19 9L19 10L20 10L20 9L19 9L19 8L21 8L21 7L22 7L22 6L21 6L21 4L20 4L20 2L21 2L21 1ZM22 1L22 2L23 2L23 4L24 4L24 2L23 2L23 1ZM11 4L11 5L12 5L12 7L13 7L13 6L14 6L14 7L15 7L15 6L14 6L14 5L12 5L12 4ZM23 5L23 8L22 8L22 10L21 10L21 11L22 11L22 10L23 10L23 11L24 11L24 12L26 12L26 10L25 10L25 11L24 11L24 10L23 10L23 8L24 8L24 5ZM10 6L10 7L11 7L11 6ZM20 6L20 7L21 7L21 6ZM25 6L25 9L27 9L27 10L28 10L28 9L29 9L29 8L28 8L28 9L27 9L27 7L28 7L28 6L27 6L27 7L26 7L26 6ZM4 9L4 13L1 13L1 14L2 14L2 16L3 16L3 17L4 17L4 16L5 16L5 17L6 17L6 18L4 18L4 19L2 19L2 20L1 20L1 21L2 21L2 22L1 22L1 23L3 23L3 24L4 24L4 23L5 23L5 22L7 22L7 21L8 21L8 20L7 20L7 19L6 19L6 18L7 18L7 17L6 17L6 16L7 16L7 15L8 15L8 14L7 14L7 13L6 13L6 14L5 14L5 11L6 11L6 12L7 12L7 11L6 11L6 10L5 10L5 9ZM35 9L35 10L36 10L36 9ZM14 11L14 14L13 14L13 15L12 15L12 17L13 17L13 18L10 18L10 19L14 19L14 20L16 20L16 19L17 19L17 20L19 20L19 21L16 21L16 22L15 22L15 21L13 21L13 22L12 22L12 20L9 20L9 21L11 21L11 23L10 23L10 22L9 22L9 23L8 23L8 24L9 24L9 23L10 23L10 24L11 24L11 25L10 25L10 28L13 28L13 27L14 27L14 31L12 31L12 29L11 29L11 32L9 32L9 33L10 33L10 34L12 34L12 33L14 33L14 32L15 32L15 30L16 30L16 31L17 31L17 32L16 32L16 34L15 34L15 35L18 35L18 36L19 36L19 34L18 34L18 33L19 33L19 32L18 32L18 31L19 31L19 30L20 30L20 34L21 34L21 31L22 31L22 32L24 32L24 33L25 33L25 34L22 34L22 35L21 35L21 36L20 36L20 39L21 39L21 40L23 40L23 38L24 38L24 40L25 40L25 37L26 37L26 36L28 36L28 35L27 35L27 34L29 34L29 33L27 33L27 29L26 29L26 27L24 27L24 25L27 25L27 26L28 26L28 25L29 25L29 24L30 24L30 23L28 23L28 24L27 24L27 22L26 22L26 23L25 23L25 24L23 24L23 23L24 23L24 22L25 22L25 21L26 21L26 20L22 20L22 21L24 21L24 22L21 22L21 19L23 19L23 18L25 18L25 19L26 19L26 18L25 18L25 17L26 17L26 16L24 16L24 17L22 17L22 16L21 16L21 17L20 17L20 15L23 15L23 12L21 12L21 14L20 14L20 15L19 15L19 12L15 12L15 11ZM10 12L10 13L11 13L11 12ZM28 12L28 13L29 13L29 12ZM33 12L33 13L34 13L34 12ZM15 13L15 14L14 14L14 15L13 15L13 17L14 17L14 18L19 18L19 20L20 20L20 18L19 18L19 17L17 17L17 16L16 16L16 15L18 15L18 16L19 16L19 15L18 15L18 14L17 14L17 13ZM36 13L36 15L35 15L35 17L34 17L34 16L33 16L33 17L31 17L31 16L29 16L29 15L28 15L28 16L29 16L29 17L31 17L31 18L30 18L30 19L31 19L31 18L32 18L32 19L33 19L33 18L34 18L34 19L35 19L35 21L34 21L34 20L30 20L30 21L31 21L31 22L32 22L32 21L34 21L34 22L33 22L33 23L34 23L34 24L35 24L35 23L36 23L36 24L37 24L37 20L38 20L38 21L39 21L39 20L38 20L38 19L37 19L37 20L36 20L36 19L35 19L35 17L36 17L36 18L38 18L38 17L39 17L39 18L41 18L41 16L40 16L40 17L39 17L39 16L37 16L37 14L38 14L38 15L40 15L40 14L41 14L41 13L40 13L40 14L38 14L38 13ZM3 14L3 15L4 15L4 14ZM6 14L6 15L7 15L7 14ZM15 14L15 15L14 15L14 16L15 16L15 15L16 15L16 14ZM8 16L8 18L9 18L9 16ZM36 16L36 17L37 17L37 16ZM21 17L21 18L22 18L22 17ZM4 20L4 21L7 21L7 20ZM40 20L40 21L41 21L41 20ZM19 21L19 22L18 22L18 25L17 25L17 26L19 26L19 23L20 23L20 21ZM35 21L35 22L34 22L34 23L35 23L35 22L36 22L36 21ZM3 22L3 23L4 23L4 22ZM13 22L13 23L14 23L14 24L12 24L12 23L11 23L11 24L12 24L12 25L11 25L11 26L12 26L12 25L14 25L14 26L15 26L15 25L14 25L14 24L15 24L15 23L14 23L14 22ZM6 23L6 24L7 24L7 23ZM16 23L16 24L17 24L17 23ZM21 23L21 24L20 24L20 26L22 26L22 27L21 27L21 28L19 28L19 27L17 27L17 28L18 28L18 29L16 29L16 30L18 30L18 29L21 29L21 30L22 30L22 31L23 31L23 30L26 30L26 29L25 29L25 28L24 28L24 29L23 29L23 28L22 28L22 27L23 27L23 26L22 26L22 25L23 25L23 24L22 24L22 23ZM1 25L1 26L2 26L2 27L3 27L3 26L2 26L2 25ZM32 25L32 26L33 26L33 25ZM21 28L21 29L22 29L22 30L23 30L23 29L22 29L22 28ZM6 29L6 30L7 30L7 29ZM28 29L28 30L30 30L30 29ZM28 31L28 32L31 32L31 31ZM11 32L11 33L12 33L12 32ZM17 32L17 33L18 33L18 32ZM25 32L25 33L26 33L26 32ZM30 33L30 35L31 35L31 33ZM33 33L33 36L36 36L36 33ZM37 33L37 34L39 34L39 33ZM25 34L25 35L24 35L24 36L21 36L21 38L22 38L22 37L24 37L24 36L25 36L25 35L26 35L26 34ZM34 34L34 35L35 35L35 34ZM10 35L10 36L9 36L9 37L12 37L12 36L11 36L11 35ZM37 35L37 36L39 36L39 35ZM34 37L34 38L36 38L36 37ZM37 38L37 39L38 39L38 38ZM12 39L12 41L17 41L17 40L13 40L13 39ZM26 39L26 40L27 40L27 39ZM0 0L0 7L7 7L7 0ZM1 1L1 6L6 6L6 1ZM2 2L2 5L5 5L5 2ZM34 0L34 7L41 7L41 0ZM35 1L35 6L40 6L40 1ZM36 2L36 5L39 5L39 2ZM0 34L0 41L7 41L7 34ZM1 35L1 40L6 40L6 35ZM2 36L2 39L5 39L5 36Z" fill="#000000"/></g></g></svg>
