<?xml version="1.0" encoding="UTF-8"?>
<svg xmlns="http://www.w3.org/2000/svg" version="1.1" width="200" height="200" viewBox="0 0 200 200"><rect x="0" y="0" width="200" height="200" fill="#ffffff"/><g transform="scale(4.878)"><g transform="translate(0,0)"><path fill-rule="evenodd" d="M8 0L8 1L9 1L9 2L8 2L8 3L9 3L9 4L8 4L8 5L9 5L9 4L12 4L12 2L13 2L13 5L12 5L12 7L11 7L11 6L10 6L10 7L11 7L11 8L12 8L12 9L8 9L8 10L5 10L5 9L7 9L7 8L5 8L5 9L0 9L0 11L1 11L1 12L3 12L3 11L5 11L5 12L4 12L4 13L2 13L2 14L3 14L3 16L4 16L4 17L1 17L1 16L2 16L2 15L0 15L0 24L1 24L1 26L0 26L0 33L1 33L1 31L2 31L2 33L4 33L4 32L5 32L5 33L7 33L7 32L8 32L8 34L9 34L9 35L8 35L8 36L11 36L11 37L10 37L10 39L9 39L9 41L10 41L10 39L11 39L11 38L12 38L12 34L11 34L11 35L10 35L10 33L9 33L9 32L10 32L10 31L9 31L9 30L11 30L11 31L14 31L14 32L16 32L16 30L17 30L17 31L19 31L19 32L17 32L17 33L19 33L19 34L20 34L20 35L21 35L21 36L20 36L20 38L19 38L19 35L18 35L18 34L16 34L16 33L13 33L13 32L11 32L11 33L13 33L13 34L15 34L15 35L14 35L14 36L13 36L13 37L14 37L14 39L20 39L20 40L21 40L21 36L22 36L22 37L23 37L23 34L24 34L24 32L23 32L23 33L22 33L22 32L21 32L21 30L22 30L22 31L25 31L25 29L24 29L24 28L25 28L25 27L24 27L24 28L23 28L23 27L22 27L22 26L23 26L23 25L24 25L24 24L26 24L26 25L27 25L27 26L26 26L26 27L28 27L28 28L26 28L26 32L28 32L28 33L26 33L26 36L25 36L25 35L24 35L24 37L26 37L26 38L25 38L25 40L23 40L23 41L26 41L26 40L27 40L27 41L32 41L32 40L31 40L31 39L30 39L30 40L29 40L29 39L28 39L28 37L26 37L26 36L27 36L27 35L29 35L29 33L31 33L31 34L30 34L30 35L32 35L32 36L29 36L29 37L31 37L31 38L33 38L33 41L34 41L34 40L36 40L36 39L37 39L37 37L38 37L38 34L39 34L39 35L40 35L40 38L38 38L38 40L39 40L39 39L40 39L40 40L41 40L41 39L40 39L40 38L41 38L41 35L40 35L40 34L39 34L39 32L40 32L40 31L41 31L41 29L40 29L40 30L39 30L39 32L37 32L37 30L38 30L38 29L35 29L35 28L39 28L39 27L40 27L40 28L41 28L41 27L40 27L40 26L41 26L41 25L36 25L36 27L35 27L35 24L36 24L36 23L34 23L34 27L35 27L35 28L34 28L34 29L35 29L35 30L36 30L36 32L34 32L34 31L33 31L33 32L32 32L32 33L31 33L31 32L29 32L29 29L30 29L30 31L32 31L32 30L31 30L31 29L30 29L30 28L29 28L29 26L30 26L30 25L31 25L31 26L32 26L32 29L33 29L33 24L32 24L32 23L30 23L30 22L34 22L34 19L33 19L33 20L31 20L31 19L32 19L32 17L34 17L34 18L35 18L35 20L36 20L36 21L35 21L35 22L36 22L36 21L39 21L39 22L41 22L41 20L40 20L40 19L41 19L41 15L40 15L40 14L41 14L41 11L40 11L40 9L41 9L41 8L40 8L40 9L39 9L39 8L38 8L38 10L37 10L37 8L36 8L36 11L37 11L37 13L36 13L36 12L34 12L34 9L35 9L35 8L34 8L34 9L33 9L33 6L32 6L32 9L31 9L31 5L33 5L33 3L32 3L32 4L31 4L31 3L30 3L30 4L31 4L31 5L29 5L29 1L30 1L30 2L31 2L31 0L28 0L28 2L27 2L27 1L24 1L24 0L21 0L21 2L20 2L20 3L19 3L19 0L13 0L13 1L12 1L12 0ZM10 1L10 2L11 2L11 1ZM13 1L13 2L15 2L15 1ZM17 1L17 4L16 4L16 3L14 3L14 5L13 5L13 8L15 8L15 9L14 9L14 10L13 10L13 11L12 11L12 10L9 10L9 11L11 11L11 12L7 12L7 11L6 11L6 12L7 12L7 13L4 13L4 15L5 15L5 16L7 16L7 17L6 17L6 18L5 18L5 17L4 17L4 18L5 18L5 20L4 20L4 19L2 19L2 18L1 18L1 19L2 19L2 20L1 20L1 22L2 22L2 21L4 21L4 22L3 22L3 23L1 23L1 24L3 24L3 25L2 25L2 26L1 26L1 28L3 28L3 29L1 29L1 30L3 30L3 31L5 31L5 32L7 32L7 31L6 31L6 30L9 30L9 28L13 28L13 26L11 26L11 25L12 25L12 23L14 23L14 24L13 24L13 25L14 25L14 26L15 26L15 27L14 27L14 28L15 28L15 30L16 30L16 29L18 29L18 30L19 30L19 29L22 29L22 30L23 30L23 29L22 29L22 28L21 28L21 24L19 24L19 22L20 22L20 23L22 23L22 25L23 25L23 24L24 24L24 23L25 23L25 22L27 22L27 21L26 21L26 20L27 20L27 19L26 19L26 20L25 20L25 17L26 17L26 18L27 18L27 16L28 16L28 18L29 18L29 19L28 19L28 22L30 22L30 21L31 21L31 20L29 20L29 19L31 19L31 17L30 17L30 18L29 18L29 16L31 16L31 15L29 15L29 16L28 16L28 15L26 15L26 16L25 16L25 15L24 15L24 14L26 14L26 12L24 12L24 13L23 13L23 14L22 14L22 15L24 15L24 16L22 16L22 19L24 19L24 20L21 20L21 19L20 19L20 17L19 17L19 18L18 18L18 20L19 20L19 21L18 21L18 22L17 22L17 24L16 24L16 23L15 23L15 22L16 22L16 20L15 20L15 19L16 19L16 18L17 18L17 17L16 17L16 18L13 18L13 17L15 17L15 16L18 16L18 15L19 15L19 14L20 14L20 12L21 12L21 13L22 13L22 12L21 12L21 11L26 11L26 10L27 10L27 9L25 9L25 8L22 8L22 6L21 6L21 8L20 8L20 10L21 10L21 11L20 11L20 12L19 12L19 11L18 11L18 10L19 10L19 7L20 7L20 4L21 4L21 5L24 5L24 6L23 6L23 7L24 7L24 6L25 6L25 7L26 7L26 8L28 8L28 11L29 11L29 12L28 12L28 13L27 13L27 14L30 14L30 11L29 11L29 10L31 10L31 12L32 12L32 10L31 10L31 9L29 9L29 8L30 8L30 6L29 6L29 7L28 7L28 4L27 4L27 2L26 2L26 3L24 3L24 2L21 2L21 3L20 3L20 4L19 4L19 7L18 7L18 1ZM32 1L32 2L33 2L33 1ZM22 3L22 4L24 4L24 5L25 5L25 6L26 6L26 7L27 7L27 6L26 6L26 5L25 5L25 4L24 4L24 3ZM15 5L15 6L14 6L14 7L15 7L15 6L16 6L16 8L17 8L17 10L18 10L18 7L17 7L17 6L16 6L16 5ZM8 6L8 8L9 8L9 6ZM15 9L15 10L14 10L14 11L15 11L15 14L14 14L14 15L13 15L13 14L11 14L11 13L14 13L14 12L11 12L11 13L8 13L8 17L7 17L7 18L6 18L6 19L7 19L7 20L5 20L5 21L7 21L7 22L4 22L4 23L5 23L5 24L6 24L6 25L8 25L8 24L6 24L6 23L7 23L7 22L8 22L8 23L9 23L9 26L10 26L10 27L11 27L11 26L10 26L10 25L11 25L11 24L10 24L10 23L12 23L12 22L13 22L13 21L12 21L12 20L11 20L11 19L12 19L12 17L13 17L13 16L14 16L14 15L15 15L15 14L16 14L16 15L18 15L18 14L19 14L19 13L18 13L18 14L17 14L17 13L16 13L16 12L18 12L18 11L15 11L15 10L16 10L16 9ZM21 9L21 10L25 10L25 9ZM1 10L1 11L3 11L3 10ZM38 11L38 12L39 12L39 11ZM0 13L0 14L1 14L1 13ZM31 13L31 14L32 14L32 16L33 16L33 14L32 14L32 13ZM34 13L34 15L37 15L37 16L36 16L36 17L35 17L35 16L34 16L34 17L35 17L35 18L36 18L36 20L39 20L39 21L40 21L40 20L39 20L39 17L40 17L40 16L39 16L39 17L37 17L37 16L38 16L38 15L39 15L39 13L38 13L38 15L37 15L37 14L36 14L36 13ZM5 14L5 15L7 15L7 14ZM12 15L12 16L13 16L13 15ZM20 15L20 16L21 16L21 15ZM9 16L9 17L10 17L10 18L9 18L9 19L8 19L8 18L7 18L7 19L8 19L8 22L9 22L9 23L10 23L10 22L9 22L9 19L11 19L11 16ZM24 16L24 17L23 17L23 18L24 18L24 17L25 17L25 16ZM36 17L36 18L37 18L37 17ZM13 19L13 20L14 20L14 19ZM24 20L24 21L25 21L25 20ZM11 21L11 22L12 22L12 21ZM14 21L14 22L15 22L15 21ZM20 21L20 22L23 22L23 23L24 23L24 22L23 22L23 21ZM37 22L37 23L38 23L38 22ZM27 23L27 24L28 24L28 26L29 26L29 25L30 25L30 23L29 23L29 24L28 24L28 23ZM39 23L39 24L41 24L41 23ZM14 24L14 25L16 25L16 26L17 26L17 27L16 27L16 28L17 28L17 27L20 27L20 26L19 26L19 25L18 25L18 24L17 24L17 25L16 25L16 24ZM3 25L3 26L2 26L2 27L3 27L3 26L4 26L4 25ZM5 26L5 28L4 28L4 29L5 29L5 30L6 30L6 29L8 29L8 28L9 28L9 27L7 27L7 26ZM38 26L38 27L39 27L39 26ZM6 27L6 28L5 28L5 29L6 29L6 28L7 28L7 27ZM28 28L28 29L27 29L27 31L28 31L28 29L29 29L29 28ZM13 29L13 30L14 30L14 29ZM20 32L20 34L21 34L21 35L22 35L22 34L21 34L21 32ZM33 33L33 36L36 36L36 33ZM37 33L37 34L38 34L38 33ZM34 34L34 35L35 35L35 34ZM15 35L15 36L14 36L14 37L15 37L15 38L16 38L16 37L15 37L15 36L17 36L17 35ZM17 37L17 38L18 38L18 37ZM34 37L34 38L36 38L36 37ZM22 38L22 39L24 39L24 38ZM26 38L26 39L27 39L27 38ZM12 39L12 40L13 40L13 41L15 41L15 40L13 40L13 39ZM16 40L16 41L18 41L18 40ZM0 0L0 7L7 7L7 0ZM1 1L1 6L6 6L6 1ZM2 2L2 5L5 5L5 2ZM34 0L34 7L41 7L41 0ZM35 1L35 6L40 6L40 1ZM36 2L36 5L39 5L39 2ZM0 34L0 41L7 41L7 34ZM1 35L1 40L6 40L6 35ZM2 36L2 39L5 39L5 36Z" fill="#000000"/></g></g></svg>
