<?xml version="1.0" encoding="UTF-8"?>
<svg xmlns="http://www.w3.org/2000/svg" version="1.1" width="200" height="200" viewBox="0 0 200 200"><rect x="0" y="0" width="200" height="200" fill="#ffffff"/><g transform="scale(4.878)"><g transform="translate(0,0)"><path fill-rule="evenodd" d="M8 0L8 3L9 3L9 2L11 2L11 3L10 3L10 5L11 5L11 6L10 6L10 7L11 7L11 6L12 6L12 8L10 8L10 9L9 9L9 5L8 5L8 9L7 9L7 8L6 8L6 9L5 9L5 8L2 8L2 10L1 10L1 9L0 9L0 11L1 11L1 12L3 12L3 17L4 17L4 20L2 20L2 18L0 18L0 25L1 25L1 27L0 27L0 28L1 28L1 27L2 27L2 26L3 26L3 27L4 27L4 26L5 26L5 28L3 28L3 29L7 29L7 30L6 30L6 31L5 31L5 30L2 30L2 31L3 31L3 33L4 33L4 31L5 31L5 32L6 32L6 33L8 33L8 34L10 34L10 35L13 35L13 34L12 34L12 32L13 32L13 31L14 31L14 32L17 32L17 31L19 31L19 29L20 29L20 30L23 30L23 31L22 31L22 32L21 32L21 33L22 33L22 32L23 32L23 31L24 31L24 34L22 34L22 36L21 36L21 35L20 35L20 36L19 36L19 37L20 37L20 38L17 38L17 37L18 37L18 36L17 36L17 33L16 33L16 34L14 34L14 36L15 36L15 35L16 35L16 36L17 36L17 37L16 37L16 38L15 38L15 37L13 37L13 36L12 36L12 38L10 38L10 37L9 37L9 36L8 36L8 39L9 39L9 41L10 41L10 40L11 40L11 41L13 41L13 40L14 40L14 41L16 41L16 40L15 40L15 39L16 39L16 38L17 38L17 40L18 40L18 39L20 39L20 41L24 41L24 39L25 39L25 40L26 40L26 41L28 41L28 40L27 40L27 39L28 39L28 38L27 38L27 37L29 37L29 36L31 36L31 35L32 35L32 37L30 37L30 38L29 38L29 39L30 39L30 38L31 38L31 39L32 39L32 40L31 40L31 41L32 41L32 40L33 40L33 41L34 41L34 40L33 40L33 39L32 39L32 37L33 37L33 38L34 38L34 39L35 39L35 40L36 40L36 39L37 39L37 40L40 40L40 38L41 38L41 37L39 37L39 36L40 36L40 34L41 34L41 32L40 32L40 30L41 30L41 29L40 29L40 26L41 26L41 23L39 23L39 24L40 24L40 26L39 26L39 25L31 25L31 22L32 22L32 24L33 24L33 23L34 23L34 24L35 24L35 23L36 23L36 24L37 24L37 23L38 23L38 21L39 21L39 20L38 20L38 19L37 19L37 20L36 20L36 19L35 19L35 17L36 17L36 18L38 18L38 17L39 17L39 16L37 16L37 15L39 15L39 14L41 14L41 13L40 13L40 12L41 12L41 11L40 11L40 10L41 10L41 8L38 8L38 9L40 9L40 10L37 10L37 9L36 9L36 8L33 8L33 6L32 6L32 7L31 7L31 6L30 6L30 8L26 8L26 9L25 9L25 10L24 10L24 11L23 11L23 12L22 12L22 10L23 10L23 8L22 8L22 7L23 7L23 5L24 5L24 8L25 8L25 5L27 5L27 6L26 6L26 7L27 7L27 6L28 6L28 7L29 7L29 5L27 5L27 4L24 4L24 3L25 3L25 0L24 0L24 3L22 3L22 1L23 1L23 0L20 0L20 1L19 1L19 2L18 2L18 1L16 1L16 0L15 0L15 1L14 1L14 2L15 2L15 1L16 1L16 4L15 4L15 3L12 3L12 0L10 0L10 1L9 1L9 0ZM26 0L26 1L27 1L27 2L26 2L26 3L28 3L28 4L29 4L29 3L31 3L31 2L30 2L30 1L33 1L33 0L29 0L29 1L27 1L27 0ZM20 1L20 4L19 4L19 5L20 5L20 6L19 6L19 8L18 8L18 2L17 2L17 8L18 8L18 9L19 9L19 8L21 8L21 9L20 9L20 10L19 10L19 11L21 11L21 9L22 9L22 8L21 8L21 7L22 7L22 5L23 5L23 4L22 4L22 5L21 5L21 1ZM32 2L32 4L30 4L30 5L32 5L32 4L33 4L33 2ZM11 3L11 5L12 5L12 6L13 6L13 7L14 7L14 8L16 8L16 5L15 5L15 4L14 4L14 6L13 6L13 4L12 4L12 3ZM14 6L14 7L15 7L15 6ZM20 6L20 7L21 7L21 6ZM31 8L31 9L27 9L27 10L26 10L26 11L25 11L25 12L24 12L24 13L23 13L23 14L22 14L22 12L21 12L21 15L19 15L19 13L18 13L18 10L17 10L17 9L16 9L16 11L15 11L15 9L14 9L14 13L15 13L15 12L16 12L16 11L17 11L17 13L16 13L16 14L14 14L14 15L15 15L15 16L14 16L14 17L15 17L15 19L14 19L14 21L15 21L15 22L14 22L14 23L13 23L13 24L14 24L14 26L13 26L13 27L12 27L12 28L11 28L11 27L9 27L9 26L10 26L10 25L12 25L12 24L10 24L10 25L8 25L8 24L9 24L9 23L8 23L8 20L10 20L10 22L11 22L11 23L12 23L12 21L13 21L13 20L10 20L10 19L9 19L9 17L10 17L10 18L11 18L11 19L13 19L13 18L12 18L12 17L13 17L13 14L12 14L12 12L13 12L13 10L12 10L12 9L11 9L11 10L10 10L10 11L9 11L9 9L8 9L8 10L7 10L7 9L6 9L6 10L7 10L7 11L6 11L6 12L5 12L5 11L4 11L4 10L5 10L5 9L4 9L4 10L3 10L3 12L5 12L5 14L4 14L4 16L7 16L7 17L5 17L5 19L6 19L6 20L5 20L5 22L7 22L7 23L6 23L6 24L7 24L7 25L5 25L5 24L4 24L4 23L2 23L2 24L4 24L4 25L5 25L5 26L7 26L7 25L8 25L8 27L9 27L9 28L8 28L8 29L10 29L10 28L11 28L11 29L13 29L13 27L14 27L14 28L15 28L15 29L14 29L14 30L15 30L15 29L16 29L16 30L17 30L17 29L18 29L18 27L19 27L19 28L21 28L21 25L22 25L22 28L23 28L23 25L24 25L24 24L26 24L26 23L25 23L25 22L28 22L28 21L29 21L29 22L31 22L31 21L30 21L30 20L34 20L34 21L32 21L32 22L34 22L34 23L35 23L35 22L36 22L36 21L35 21L35 19L34 19L34 18L33 18L33 17L32 17L32 16L34 16L34 17L35 17L35 16L36 16L36 17L37 17L37 16L36 16L36 15L37 15L37 14L39 14L39 12L40 12L40 11L38 11L38 12L35 12L35 13L34 13L34 12L33 12L33 11L34 11L34 10L33 10L33 9L32 9L32 8ZM31 9L31 10L30 10L30 12L29 12L29 13L28 13L28 11L29 11L29 10L27 10L27 11L26 11L26 12L25 12L25 13L24 13L24 14L23 14L23 15L25 15L25 14L26 14L26 15L27 15L27 14L29 14L29 13L30 13L30 14L31 14L31 10L32 10L32 11L33 11L33 10L32 10L32 9ZM7 11L7 12L6 12L6 13L8 13L8 15L9 15L9 16L8 16L8 17L7 17L7 18L6 18L6 19L7 19L7 20L6 20L6 21L7 21L7 20L8 20L8 17L9 17L9 16L10 16L10 17L11 17L11 16L10 16L10 15L9 15L9 13L8 13L8 12L9 12L9 11ZM26 12L26 13L27 13L27 12ZM32 12L32 13L33 13L33 14L32 14L32 15L34 15L34 13L33 13L33 12ZM10 13L10 14L11 14L11 13ZM17 13L17 16L18 16L18 17L20 17L20 20L21 20L21 19L22 19L22 17L23 17L23 16L22 16L22 15L21 15L21 16L18 16L18 13ZM36 13L36 14L37 14L37 13ZM1 14L1 17L2 17L2 14ZM5 14L5 15L7 15L7 14ZM28 15L28 16L29 16L29 17L31 17L31 18L30 18L30 19L31 19L31 18L32 18L32 17L31 17L31 15L30 15L30 16L29 16L29 15ZM15 16L15 17L16 17L16 18L17 18L17 19L15 19L15 21L18 21L18 24L17 24L17 23L16 23L16 22L15 22L15 23L14 23L14 24L15 24L15 23L16 23L16 25L15 25L15 28L16 28L16 29L17 29L17 27L18 27L18 26L19 26L19 27L20 27L20 24L22 24L22 23L21 23L21 22L23 22L23 21L18 21L18 20L19 20L19 18L17 18L17 17L16 17L16 16ZM21 16L21 17L22 17L22 16ZM24 16L24 17L26 17L26 19L25 19L25 20L26 20L26 21L28 21L28 20L27 20L27 19L28 19L28 18L27 18L27 17L26 17L26 16ZM40 16L40 18L39 18L39 19L40 19L40 18L41 18L41 16ZM23 18L23 19L24 19L24 18ZM17 19L17 20L18 20L18 19ZM37 20L37 21L38 21L38 20ZM40 20L40 21L41 21L41 20ZM1 21L1 22L4 22L4 21ZM24 21L24 22L25 22L25 21ZM34 21L34 22L35 22L35 21ZM7 23L7 24L8 24L8 23ZM27 23L27 24L28 24L28 23ZM29 23L29 24L30 24L30 23ZM16 25L16 26L17 26L17 25ZM27 25L27 26L24 26L24 27L27 27L27 28L28 28L28 27L29 27L29 28L30 28L30 29L28 29L28 30L29 30L29 31L28 31L28 32L30 32L30 33L31 33L31 32L30 32L30 29L31 29L31 30L32 30L32 31L33 31L33 32L39 32L39 26L38 26L38 28L37 28L37 27L36 27L36 26L34 26L34 27L32 27L32 26L31 26L31 25L30 25L30 26L29 26L29 25ZM27 26L27 27L28 27L28 26ZM6 27L6 28L7 28L7 27ZM24 28L24 29L25 29L25 28ZM31 28L31 29L32 29L32 30L33 30L33 29L34 29L34 28L33 28L33 29L32 29L32 28ZM35 28L35 29L36 29L36 31L37 31L37 29L36 29L36 28ZM0 29L0 33L1 33L1 29ZM8 30L8 31L6 31L6 32L8 32L8 33L9 33L9 32L10 32L10 30ZM12 30L12 31L11 31L11 32L12 32L12 31L13 31L13 30ZM26 30L26 31L25 31L25 32L27 32L27 30ZM34 30L34 31L35 31L35 30ZM18 32L18 34L19 34L19 33L20 33L20 32ZM10 33L10 34L11 34L11 33ZM25 33L25 37L23 37L23 36L22 36L22 37L21 37L21 36L20 36L20 37L21 37L21 38L20 38L20 39L21 39L21 38L23 38L23 39L22 39L22 40L23 40L23 39L24 39L24 38L26 38L26 34L28 34L28 35L27 35L27 36L29 36L29 33ZM33 33L33 36L36 36L36 33ZM38 33L38 34L37 34L37 36L39 36L39 33ZM30 34L30 35L31 35L31 34ZM34 34L34 35L35 35L35 34ZM34 37L34 38L36 38L36 37ZM14 38L14 39L15 39L15 38ZM37 38L37 39L38 39L38 38ZM11 39L11 40L13 40L13 39ZM29 40L29 41L30 41L30 40ZM0 0L0 7L7 7L7 0ZM1 1L1 6L6 6L6 1ZM2 2L2 5L5 5L5 2ZM34 0L34 7L41 7L41 0ZM35 1L35 6L40 6L40 1ZM36 2L36 5L39 5L39 2ZM0 34L0 41L7 41L7 34ZM1 35L1 40L6 40L6 35ZM2 36L2 39L5 39L5 36Z" fill="#000000"/></g></g></svg>
