<?xml version="1.0" encoding="UTF-8"?>
<svg xmlns="http://www.w3.org/2000/svg" version="1.1" width="200" height="200" viewBox="0 0 200 200"><rect x="0" y="0" width="200" height="200" fill="#ffffff"/><g transform="scale(4.878)"><g transform="translate(0,0)"><path fill-rule="evenodd" d="M10 0L10 1L9 1L9 2L8 2L8 4L9 4L9 6L8 6L8 7L9 7L9 8L10 8L10 7L11 7L11 6L12 6L12 7L13 7L13 6L12 6L12 4L14 4L14 8L11 8L11 9L10 9L10 10L11 10L11 11L9 11L9 10L8 10L8 8L6 8L6 9L7 9L7 10L6 10L6 11L9 11L9 13L10 13L10 14L11 14L11 15L9 15L9 16L11 16L11 17L8 17L8 16L6 16L6 15L8 15L8 14L6 14L6 13L8 13L8 12L6 12L6 13L4 13L4 14L5 14L5 15L2 15L2 14L3 14L3 13L1 13L1 15L0 15L0 20L3 20L3 21L4 21L4 24L1 24L1 23L0 23L0 24L1 24L1 25L0 25L0 33L2 33L2 32L3 32L3 33L4 33L4 32L5 32L5 33L7 33L7 32L8 32L8 31L10 31L10 30L6 30L6 29L7 29L7 28L5 28L5 27L4 27L4 26L5 26L5 24L6 24L6 25L7 25L7 26L6 26L6 27L7 27L7 26L8 26L8 27L9 27L9 28L11 28L11 27L13 27L13 25L14 25L14 28L13 28L13 30L14 30L14 31L16 31L16 32L11 32L11 33L10 33L10 34L9 34L9 33L8 33L8 35L10 35L10 36L8 36L8 38L9 38L9 37L10 37L10 39L11 39L11 38L12 38L12 36L11 36L11 33L13 33L13 34L12 34L12 35L13 35L13 38L14 38L14 39L12 39L12 40L11 40L11 41L12 41L12 40L15 40L15 41L16 41L16 40L17 40L17 41L21 41L21 40L20 40L20 39L18 39L18 38L15 38L15 37L19 37L19 38L22 38L22 41L29 41L29 39L30 39L30 38L31 38L31 40L30 40L30 41L31 41L31 40L32 40L32 41L34 41L34 40L35 40L35 41L36 41L36 39L37 39L37 40L38 40L38 41L39 41L39 40L38 40L38 39L40 39L40 40L41 40L41 36L40 36L40 34L37 34L37 33L41 33L41 32L40 32L40 31L41 31L41 30L38 30L38 29L39 29L39 28L41 28L41 25L39 25L39 24L37 24L37 23L39 23L39 22L41 22L41 21L39 21L39 20L40 20L40 19L41 19L41 18L40 18L40 17L41 17L41 12L40 12L40 9L39 9L39 8L37 8L37 9L36 9L36 11L35 11L35 10L34 10L34 9L33 9L33 8L32 8L32 7L33 7L33 6L32 6L32 7L31 7L31 6L30 6L30 8L29 8L29 5L33 5L33 4L29 4L29 3L31 3L31 2L32 2L32 1L31 1L31 0L30 0L30 1L29 1L29 0L28 0L28 2L27 2L27 1L26 1L26 0L21 0L21 1L25 1L25 3L24 3L24 7L23 7L23 6L22 6L22 5L23 5L23 4L22 4L22 3L20 3L20 4L19 4L19 6L18 6L18 7L19 7L19 6L20 6L20 8L19 8L19 9L18 9L18 10L17 10L17 9L15 9L15 6L16 6L16 8L17 8L17 6L16 6L16 5L15 5L15 4L17 4L17 3L19 3L19 2L17 2L17 0L16 0L16 1L14 1L14 0L12 0L12 1L14 1L14 2L13 2L13 3L12 3L12 4L11 4L11 2L10 2L10 1L11 1L11 0ZM30 1L30 2L31 2L31 1ZM15 2L15 3L14 3L14 4L15 4L15 3L17 3L17 2ZM28 2L28 3L29 3L29 2ZM9 3L9 4L10 4L10 6L9 6L9 7L10 7L10 6L11 6L11 4L10 4L10 3ZM25 3L25 4L26 4L26 5L25 5L25 7L26 7L26 8L24 8L24 9L23 9L23 10L22 10L22 11L21 11L21 8L20 8L20 12L19 12L19 11L17 11L17 12L16 12L16 11L15 11L15 12L16 12L16 13L14 13L14 12L12 12L12 15L11 15L11 16L12 16L12 15L14 15L14 16L15 16L15 14L16 14L16 13L17 13L17 12L18 12L18 13L20 13L20 15L22 15L22 14L23 14L23 16L21 16L21 17L20 17L20 19L21 19L21 18L22 18L22 17L23 17L23 19L22 19L22 20L24 20L24 19L26 19L26 18L27 18L27 17L30 17L30 18L31 18L31 17L32 17L32 15L30 15L30 12L29 12L29 11L33 11L33 12L32 12L32 13L33 13L33 14L36 14L36 13L37 13L37 11L36 11L36 13L35 13L35 11L34 11L34 10L31 10L31 9L29 9L29 8L28 8L28 9L29 9L29 11L28 11L28 12L29 12L29 15L28 15L28 13L27 13L27 14L26 14L26 15L25 15L25 14L23 14L23 13L24 13L24 12L23 12L23 13L22 13L22 11L24 11L24 10L25 10L25 13L26 13L26 10L27 10L27 9L26 9L26 8L27 8L27 7L28 7L28 4L26 4L26 3ZM26 5L26 7L27 7L27 5ZM21 6L21 7L22 7L22 6ZM3 8L3 9L5 9L5 8ZM0 9L0 12L1 12L1 11L2 11L2 12L3 12L3 10L2 10L2 9ZM12 9L12 11L14 11L14 10L13 10L13 9ZM25 9L25 10L26 10L26 9ZM37 9L37 10L38 10L38 12L39 12L39 13L40 13L40 12L39 12L39 10L38 10L38 9ZM4 10L4 12L5 12L5 10ZM10 12L10 13L11 13L11 12ZM20 12L20 13L21 13L21 12ZM13 13L13 14L14 14L14 13ZM17 14L17 15L18 15L18 14ZM37 14L37 16L36 16L36 15L35 15L35 16L34 16L34 17L33 17L33 19L32 19L32 22L31 22L31 21L30 21L30 20L31 20L31 19L29 19L29 18L28 18L28 19L27 19L27 20L25 20L25 21L24 21L24 22L22 22L22 21L21 21L21 20L19 20L19 19L18 19L18 20L17 20L17 19L16 19L16 20L17 20L17 21L18 21L18 22L17 22L17 23L16 23L16 24L15 24L15 23L14 23L14 22L15 22L15 18L14 18L14 17L11 17L11 18L14 18L14 19L13 19L13 20L14 20L14 21L11 21L11 20L12 20L12 19L10 19L10 18L8 18L8 19L10 19L10 20L8 20L8 21L6 21L6 20L7 20L7 19L5 19L5 18L7 18L7 17L6 17L6 16L4 16L4 17L2 17L2 15L1 15L1 17L2 17L2 18L1 18L1 19L2 19L2 18L4 18L4 19L3 19L3 20L4 20L4 21L6 21L6 22L8 22L8 23L9 23L9 24L8 24L8 26L9 26L9 27L10 27L10 26L12 26L12 25L10 25L10 23L11 23L11 24L13 24L13 23L14 23L14 25L16 25L16 26L17 26L17 27L15 27L15 29L16 29L16 30L18 30L18 31L19 31L19 30L21 30L21 28L22 28L22 30L23 30L23 27L25 27L25 26L26 26L26 28L24 28L24 30L25 30L25 29L26 29L26 28L29 28L29 29L31 29L31 32L30 32L30 31L29 31L29 30L28 30L28 29L27 29L27 30L26 30L26 31L23 31L23 34L22 34L22 35L21 35L21 34L20 34L20 33L22 33L22 32L21 32L21 31L20 31L20 33L18 33L18 32L16 32L16 33L18 33L18 34L17 34L17 35L18 35L18 36L19 36L19 35L21 35L21 36L22 36L22 37L23 37L23 36L24 36L24 37L25 37L25 38L23 38L23 39L24 39L24 40L28 40L28 39L29 39L29 38L30 38L30 37L31 37L31 38L32 38L32 40L33 40L33 39L35 39L35 38L36 38L36 37L33 37L33 38L32 38L32 37L31 37L31 36L32 36L32 35L31 35L31 34L29 34L29 33L28 33L28 34L29 34L29 36L30 36L30 37L29 37L29 38L28 38L28 39L26 39L26 37L27 37L27 36L28 36L28 35L26 35L26 37L25 37L25 36L24 36L24 32L25 32L25 33L26 33L26 31L27 31L27 32L30 32L30 33L32 33L32 32L33 32L33 31L34 31L34 32L36 32L36 30L33 30L33 31L32 31L32 28L33 28L33 26L34 26L34 23L36 23L36 21L34 21L34 23L33 23L33 19L34 19L34 20L35 20L35 17L37 17L37 16L38 16L38 18L36 18L36 20L37 20L37 22L38 22L38 20L37 20L37 19L39 19L39 17L40 17L40 16L38 16L38 14ZM24 15L24 16L25 16L25 18L26 18L26 17L27 17L27 16L28 16L28 15L27 15L27 16L25 16L25 15ZM17 16L17 18L18 18L18 17L19 17L19 16ZM30 16L30 17L31 17L31 16ZM4 19L4 20L5 20L5 19ZM27 20L27 21L25 21L25 22L24 22L24 23L25 23L25 24L26 24L26 22L27 22L27 25L26 25L26 26L27 26L27 27L29 27L29 26L30 26L30 25L32 25L32 26L31 26L31 28L32 28L32 26L33 26L33 25L32 25L32 24L33 24L33 23L32 23L32 24L31 24L31 23L29 23L29 21L28 21L28 20ZM9 21L9 23L10 23L10 21ZM20 21L20 22L21 22L21 21ZM18 22L18 23L17 23L17 24L20 24L20 25L22 25L22 26L24 26L24 24L23 24L23 23L22 23L22 24L21 24L21 23L19 23L19 22ZM6 23L6 24L7 24L7 23ZM22 24L22 25L23 25L23 24ZM28 24L28 26L29 26L29 25L30 25L30 24ZM35 24L35 26L36 26L36 25L37 25L37 27L35 27L35 28L34 28L34 29L38 29L38 28L37 28L37 27L39 27L39 25L37 25L37 24ZM3 25L3 26L4 26L4 25ZM17 25L17 26L19 26L19 27L18 27L18 28L16 28L16 29L18 29L18 30L19 30L19 27L20 27L20 28L21 28L21 27L20 27L20 26L19 26L19 25ZM1 27L1 28L2 28L2 27ZM3 27L3 29L2 29L2 30L3 30L3 29L4 29L4 27ZM4 30L4 31L3 31L3 32L4 32L4 31L5 31L5 30ZM27 30L27 31L28 31L28 30ZM6 31L6 32L7 32L7 31ZM37 31L37 32L38 32L38 31ZM14 33L14 34L13 34L13 35L14 35L14 36L15 36L15 33ZM33 33L33 36L36 36L36 33ZM34 34L34 35L35 35L35 34ZM22 35L22 36L23 36L23 35ZM30 35L30 36L31 36L31 35ZM37 35L37 38L40 38L40 37L39 37L39 35ZM10 36L10 37L11 37L11 36ZM15 39L15 40L16 40L16 39ZM17 39L17 40L18 40L18 39ZM9 40L9 41L10 41L10 40ZM0 0L0 7L7 7L7 0ZM1 1L1 6L6 6L6 1ZM2 2L2 5L5 5L5 2ZM34 0L34 7L41 7L41 0ZM35 1L35 6L40 6L40 1ZM36 2L36 5L39 5L39 2ZM0 34L0 41L7 41L7 34ZM1 35L1 40L6 40L6 35ZM2 36L2 39L5 39L5 36Z" fill="#000000"/></g></g></svg>
