<?xml version="1.0" encoding="UTF-8"?>
<svg xmlns="http://www.w3.org/2000/svg" version="1.1" width="200" height="200" viewBox="0 0 200 200"><rect x="0" y="0" width="200" height="200" fill="#ffffff"/><g transform="scale(4.878)"><g transform="translate(0,0)"><path fill-rule="evenodd" d="M8 0L8 2L10 2L10 1L9 1L9 0ZM11 0L11 4L10 4L10 7L11 7L11 4L12 4L12 8L10 8L10 9L12 9L12 10L10 10L10 11L8 11L8 10L5 10L5 9L4 9L4 8L3 8L3 9L2 9L2 10L1 10L1 11L0 11L0 15L2 15L2 16L3 16L3 15L2 15L2 14L4 14L4 12L5 12L5 13L8 13L8 12L9 12L9 15L8 15L8 17L7 17L7 16L6 16L6 15L7 15L7 14L6 14L6 15L5 15L5 16L6 16L6 17L7 17L7 18L6 18L6 19L5 19L5 17L4 17L4 18L3 18L3 17L1 17L1 16L0 16L0 18L1 18L1 19L0 19L0 20L2 20L2 18L3 18L3 19L4 19L4 20L3 20L3 21L4 21L4 20L6 20L6 21L7 21L7 22L6 22L6 23L7 23L7 22L8 22L8 24L11 24L11 23L10 23L10 22L8 22L8 20L6 20L6 19L9 19L9 18L10 18L10 17L11 17L11 16L12 16L12 18L13 18L13 19L14 19L14 15L13 15L13 12L14 12L14 13L15 13L15 12L16 12L16 13L17 13L17 14L16 14L16 15L15 15L15 18L16 18L16 19L17 19L17 20L15 20L15 21L14 21L14 22L15 22L15 23L13 23L13 21L12 21L12 20L11 20L11 19L10 19L10 20L11 20L11 21L12 21L12 24L14 24L14 25L10 25L10 27L9 27L9 29L10 29L10 30L8 30L8 27L7 27L7 26L8 26L8 25L7 25L7 24L6 24L6 25L7 25L7 26L6 26L6 27L7 27L7 28L5 28L5 26L4 26L4 25L5 25L5 23L4 23L4 24L3 24L3 27L2 27L2 25L1 25L1 24L2 24L2 23L1 23L1 24L0 24L0 25L1 25L1 26L0 26L0 27L1 27L1 28L0 28L0 29L1 29L1 28L3 28L3 29L2 29L2 30L4 30L4 31L2 31L2 32L3 32L3 33L8 33L8 34L10 34L10 35L9 35L9 37L8 37L8 38L9 38L9 37L10 37L10 38L11 38L11 40L12 40L12 41L13 41L13 40L14 40L14 41L15 41L15 40L14 40L14 39L15 39L15 38L14 38L14 36L16 36L16 39L18 39L18 40L19 40L19 41L22 41L22 40L24 40L24 39L21 39L21 38L18 38L18 37L20 37L20 34L19 34L19 33L18 33L18 29L19 29L19 31L20 31L20 30L21 30L21 31L22 31L22 30L23 30L23 27L21 27L21 28L22 28L22 30L21 30L21 29L20 29L20 28L19 28L19 27L20 27L20 26L21 26L21 25L23 25L23 24L24 24L24 25L25 25L25 26L26 26L26 25L27 25L27 24L28 24L28 23L27 23L27 20L28 20L28 19L29 19L29 23L30 23L30 22L31 22L31 24L29 24L29 25L28 25L28 26L29 26L29 28L28 28L28 29L26 29L26 28L27 28L27 27L24 27L24 29L26 29L26 30L25 30L25 31L24 31L24 33L22 33L22 32L21 32L21 33L22 33L22 35L21 35L21 37L22 37L22 38L23 38L23 37L22 37L22 36L23 36L23 35L24 35L24 36L25 36L25 37L26 37L26 38L27 38L27 37L26 37L26 36L27 36L27 35L25 35L25 34L26 34L26 32L30 32L30 34L29 34L29 36L30 36L30 34L32 34L32 37L31 37L31 38L30 38L30 37L28 37L28 39L27 39L27 40L26 40L26 39L25 39L25 41L33 41L33 39L34 39L34 38L36 38L36 40L37 40L37 41L40 41L40 39L41 39L41 38L40 38L40 37L41 37L41 36L40 36L40 37L38 37L38 36L39 36L39 35L37 35L37 32L38 32L38 33L39 33L39 34L41 34L41 33L39 33L39 32L38 32L38 31L39 31L39 30L40 30L40 32L41 32L41 29L39 29L39 28L41 28L41 26L40 26L40 27L39 27L39 28L37 28L37 27L38 27L38 26L39 26L39 25L40 25L40 24L41 24L41 23L40 23L40 22L39 22L39 23L37 23L37 22L36 22L36 21L40 21L40 20L41 20L41 16L39 16L39 17L37 17L37 19L36 19L36 21L35 21L35 19L34 19L34 18L35 18L35 17L36 17L36 15L37 15L37 16L38 16L38 15L37 15L37 14L36 14L36 13L34 13L34 12L36 12L36 11L35 11L35 9L37 9L37 10L38 10L38 8L35 8L35 9L32 9L32 10L31 10L31 8L32 8L32 7L33 7L33 6L32 6L32 5L33 5L33 3L32 3L32 2L33 2L33 0L31 0L31 1L30 1L30 0L27 0L27 2L26 2L26 3L25 3L25 2L24 2L24 3L23 3L23 1L25 1L25 0L21 0L21 1L19 1L19 0L18 0L18 1L19 1L19 2L18 2L18 4L17 4L17 0L13 0L13 1L12 1L12 0ZM13 1L13 2L12 2L12 3L15 3L15 2L14 2L14 1ZM21 1L21 2L19 2L19 4L20 4L20 5L21 5L21 4L23 4L23 5L22 5L22 6L21 6L21 7L22 7L22 8L23 8L23 9L21 9L21 8L20 8L20 6L19 6L19 5L15 5L15 10L14 10L14 11L16 11L16 12L17 12L17 13L18 13L18 14L17 14L17 16L16 16L16 17L17 17L17 19L18 19L18 21L16 21L16 22L17 22L17 23L15 23L15 24L17 24L17 23L19 23L19 24L18 24L18 25L16 25L16 26L15 26L15 25L14 25L14 26L12 26L12 27L10 27L10 28L13 28L13 29L12 29L12 30L16 30L16 31L15 31L15 33L16 33L16 34L15 34L15 35L17 35L17 33L16 33L16 31L17 31L17 28L16 28L16 29L14 29L14 28L15 28L15 27L17 27L17 26L18 26L18 25L19 25L19 24L20 24L20 23L21 23L21 24L22 24L22 22L20 22L20 23L19 23L19 18L20 18L20 20L21 20L21 21L22 21L22 19L23 19L23 20L24 20L24 18L26 18L26 19L25 19L25 20L26 20L26 19L28 19L28 18L29 18L29 19L30 19L30 17L29 17L29 16L28 16L28 15L27 15L27 13L28 13L28 14L29 14L29 13L28 13L28 12L25 12L25 13L26 13L26 14L25 14L25 17L24 17L24 18L23 18L23 17L19 17L19 18L18 18L18 16L19 16L19 15L18 15L18 14L19 14L19 13L20 13L20 11L21 11L21 15L20 15L20 16L22 16L22 15L23 15L23 14L24 14L24 13L22 13L22 11L21 11L21 10L23 10L23 12L24 12L24 10L26 10L26 11L29 11L29 12L30 12L30 11L29 11L29 10L28 10L28 9L26 9L26 8L27 8L27 7L28 7L28 6L27 6L27 7L26 7L26 5L27 5L27 4L28 4L28 5L30 5L30 4L28 4L28 3L30 3L30 1L28 1L28 2L27 2L27 3L26 3L26 5L25 5L25 3L24 3L24 4L23 4L23 3L22 3L22 1ZM31 1L31 2L32 2L32 1ZM8 3L8 7L9 7L9 3ZM20 3L20 4L21 4L21 3ZM13 4L13 5L14 5L14 4ZM31 4L31 5L32 5L32 4ZM23 5L23 6L22 6L22 7L23 7L23 8L24 8L24 9L23 9L23 10L24 10L24 9L25 9L25 6L24 6L24 5ZM13 6L13 7L14 7L14 6ZM16 6L16 8L17 8L17 6ZM18 6L18 7L19 7L19 6ZM23 6L23 7L24 7L24 6ZM29 6L29 7L30 7L30 8L29 8L29 9L30 9L30 8L31 8L31 7L32 7L32 6L31 6L31 7L30 7L30 6ZM6 8L6 9L7 9L7 8ZM12 8L12 9L14 9L14 8ZM39 8L39 9L40 9L40 10L41 10L41 8ZM3 9L3 10L2 10L2 11L1 11L1 12L4 12L4 11L3 11L3 10L4 10L4 9ZM17 9L17 11L19 11L19 9ZM20 9L20 10L21 10L21 9ZM12 10L12 11L11 11L11 12L10 12L10 13L12 13L12 11L13 11L13 10ZM5 11L5 12L7 12L7 11ZM31 11L31 13L30 13L30 16L31 16L31 15L32 15L32 17L31 17L31 19L32 19L32 20L31 20L31 22L34 22L34 23L33 23L33 24L32 24L32 26L30 26L30 25L29 25L29 26L30 26L30 27L31 27L31 28L33 28L33 29L32 29L32 30L34 30L34 31L33 31L33 32L34 32L34 31L35 31L35 32L37 32L37 31L36 31L36 30L37 30L37 28L35 28L35 27L36 27L36 26L37 26L37 25L38 25L38 24L37 24L37 23L35 23L35 22L34 22L34 19L33 19L33 18L32 18L32 17L35 17L35 15L36 15L36 14L35 14L35 15L34 15L34 14L33 14L33 11ZM38 11L38 14L39 14L39 11ZM40 11L40 13L41 13L41 11ZM18 12L18 13L19 13L19 12ZM11 14L11 15L9 15L9 17L8 17L8 18L9 18L9 17L10 17L10 16L11 16L11 15L12 15L12 16L13 16L13 15L12 15L12 14ZM32 14L32 15L33 15L33 14ZM40 14L40 15L41 15L41 14ZM26 15L26 18L27 18L27 17L28 17L28 16L27 16L27 15ZM39 17L39 19L37 19L37 20L40 20L40 17ZM32 20L32 21L33 21L33 20ZM0 21L0 22L2 22L2 21ZM24 21L24 24L25 24L25 25L26 25L26 24L27 24L27 23L25 23L25 22L26 22L26 21ZM33 24L33 26L32 26L32 27L33 27L33 26L34 26L34 27L35 27L35 26L34 26L34 25L35 25L35 24ZM13 27L13 28L14 28L14 27ZM6 29L6 30L7 30L7 29ZM28 29L28 30L26 30L26 31L25 31L25 32L26 32L26 31L29 31L29 30L30 30L30 32L31 32L31 30L30 30L30 29ZM35 29L35 30L36 30L36 29ZM38 29L38 30L39 30L39 29ZM0 30L0 31L1 31L1 30ZM4 31L4 32L5 32L5 31ZM6 31L6 32L7 32L7 31ZM8 31L8 32L10 32L10 33L11 33L11 35L12 35L12 36L10 36L10 37L12 37L12 39L13 39L13 37L12 37L12 36L13 36L13 35L12 35L12 33L11 33L11 32L13 32L13 34L14 34L14 31ZM0 32L0 33L1 33L1 32ZM24 33L24 34L25 34L25 33ZM33 33L33 36L36 36L36 33ZM34 34L34 35L35 35L35 34ZM18 35L18 36L19 36L19 35ZM36 37L36 38L37 38L37 40L38 40L38 38L37 38L37 37ZM29 38L29 39L28 39L28 40L29 40L29 39L30 39L30 38ZM31 38L31 40L32 40L32 39L33 39L33 38ZM39 38L39 39L40 39L40 38ZM9 39L9 40L10 40L10 39ZM19 39L19 40L21 40L21 39ZM0 0L0 7L7 7L7 0ZM1 1L1 6L6 6L6 1ZM2 2L2 5L5 5L5 2ZM34 0L34 7L41 7L41 0ZM35 1L35 6L40 6L40 1ZM36 2L36 5L39 5L39 2ZM0 34L0 41L7 41L7 34ZM1 35L1 40L6 40L6 35ZM2 36L2 39L5 39L5 36Z" fill="#000000"/></g></g></svg>
