<?xml version="1.0" encoding="UTF-8"?>
<svg xmlns="http://www.w3.org/2000/svg" version="1.1" width="200" height="200" viewBox="0 0 200 200"><rect x="0" y="0" width="200" height="200" fill="#ffffff"/><g transform="scale(6.897)"><g transform="translate(0,0)"><path fill-rule="evenodd" d="M9 0L9 1L10 1L10 2L12 2L12 3L10 3L10 4L8 4L8 5L9 5L9 6L8 6L8 8L6 8L6 9L5 9L5 10L6 10L6 11L5 11L5 12L4 12L4 11L3 11L3 12L2 12L2 9L4 9L4 8L2 8L2 9L1 9L1 10L0 10L0 12L2 12L2 13L0 13L0 16L1 16L1 17L2 17L2 16L3 16L3 15L4 15L4 18L3 18L3 19L2 19L2 20L1 20L1 21L8 21L8 23L9 23L9 24L10 24L10 25L8 25L8 27L9 27L9 26L10 26L10 28L9 28L9 29L10 29L10 28L14 28L14 29L15 29L15 28L16 28L16 29L17 29L17 28L20 28L20 29L22 29L22 27L21 27L21 28L20 28L20 27L18 27L18 26L20 26L20 25L23 25L23 26L24 26L24 27L23 27L23 28L25 28L25 27L27 27L27 28L29 28L29 26L28 26L28 27L27 27L27 26L24 26L24 25L26 25L26 23L25 23L25 22L26 22L26 18L28 18L28 19L29 19L29 17L26 17L26 16L25 16L25 15L24 15L24 16L23 16L23 15L22 15L22 14L24 14L24 13L25 13L25 14L26 14L26 15L27 15L27 16L28 16L28 15L29 15L29 14L28 14L28 15L27 15L27 13L28 13L28 12L29 12L29 11L28 11L28 12L27 12L27 11L26 11L26 10L25 10L25 8L24 8L24 10L23 10L23 11L24 11L24 10L25 10L25 11L26 11L26 12L27 12L27 13L25 13L25 12L23 12L23 13L22 13L22 14L21 14L21 13L20 13L20 14L19 14L19 12L20 12L20 11L19 11L19 12L18 12L18 11L17 11L17 10L18 10L18 9L17 9L17 8L20 8L20 9L21 9L21 12L22 12L22 9L23 9L23 8L20 8L20 7L21 7L21 0L20 0L20 1L19 1L19 0L18 0L18 1L17 1L17 0L16 0L16 2L18 2L18 4L17 4L17 5L16 5L16 4L15 4L15 1L14 1L14 0L12 0L12 1L11 1L11 0ZM13 1L13 3L12 3L12 4L13 4L13 5L15 5L15 4L14 4L14 1ZM18 1L18 2L19 2L19 3L20 3L20 2L19 2L19 1ZM10 4L10 6L9 6L9 9L11 9L11 10L10 10L10 12L8 12L8 14L7 14L7 13L6 13L6 14L5 14L5 13L3 13L3 14L5 14L5 15L6 15L6 16L5 16L5 17L6 17L6 18L7 18L7 19L6 19L6 20L10 20L10 19L11 19L11 22L12 22L12 20L13 20L13 22L14 22L14 19L15 19L15 20L16 20L16 19L18 19L18 20L19 20L19 21L18 21L18 22L17 22L17 23L16 23L16 21L15 21L15 23L14 23L14 24L12 24L12 25L13 25L13 26L14 26L14 27L16 27L16 28L17 28L17 26L18 26L18 25L20 25L20 24L18 24L18 23L20 23L20 20L22 20L22 19L24 19L24 20L25 20L25 19L24 19L24 18L26 18L26 17L25 17L25 16L24 16L24 17L23 17L23 18L22 18L22 17L21 17L21 18L20 18L20 20L19 20L19 18L18 18L18 17L20 17L20 16L21 16L21 14L20 14L20 15L19 15L19 14L18 14L18 15L19 15L19 16L18 16L18 17L17 17L17 16L15 16L15 15L14 15L14 19L13 19L13 18L12 18L12 17L13 17L13 16L12 16L12 13L11 13L11 15L10 15L10 16L11 16L11 17L10 17L10 19L9 19L9 18L7 18L7 17L8 17L8 16L7 16L7 15L9 15L9 14L10 14L10 12L14 12L14 13L13 13L13 14L14 14L14 13L15 13L15 12L14 12L14 11L16 11L16 12L17 12L17 13L18 13L18 12L17 12L17 11L16 11L16 10L17 10L17 9L14 9L14 6L13 6L13 8L12 8L12 9L11 9L11 8L10 8L10 6L11 6L11 7L12 7L12 5L11 5L11 4ZM18 4L18 5L17 5L17 7L18 7L18 6L19 6L19 7L20 7L20 5L19 5L19 4ZM15 6L15 8L16 8L16 6ZM6 9L6 10L8 10L8 11L9 11L9 10L8 10L8 9ZM13 9L13 10L14 10L14 9ZM27 9L27 10L29 10L29 9ZM11 10L11 11L12 11L12 10ZM6 11L6 12L7 12L7 11ZM6 14L6 15L7 15L7 14ZM16 14L16 15L17 15L17 14ZM1 15L1 16L2 16L2 15ZM6 16L6 17L7 17L7 16ZM16 17L16 18L17 18L17 17ZM0 18L0 19L1 19L1 18ZM4 18L4 20L5 20L5 18ZM21 18L21 19L22 19L22 18ZM27 20L27 23L28 23L28 24L27 24L27 25L29 25L29 23L28 23L28 20ZM9 21L9 23L10 23L10 24L11 24L11 23L10 23L10 21ZM21 21L21 24L24 24L24 21ZM22 22L22 23L23 23L23 22ZM15 23L15 26L17 26L17 25L18 25L18 24L17 24L17 25L16 25L16 23ZM10 25L10 26L11 26L11 27L12 27L12 26L11 26L11 25ZM0 0L0 7L7 7L7 0ZM1 1L1 6L6 6L6 1ZM2 2L2 5L5 5L5 2ZM22 0L22 7L29 7L29 0ZM23 1L23 6L28 6L28 1ZM24 2L24 5L27 5L27 2ZM0 22L0 29L7 29L7 22ZM1 23L1 28L6 28L6 23ZM2 24L2 27L5 27L5 24Z" fill="#000000"/></g></g></svg>
