<?xml version="1.0" encoding="UTF-8"?>
<svg xmlns="http://www.w3.org/2000/svg" version="1.1" width="200" height="200" viewBox="0 0 200 200"><rect x="0" y="0" width="200" height="200" fill="#ffffff"/><g transform="scale(4.878)"><g transform="translate(0,0)"><path fill-rule="evenodd" d="M8 0L8 2L9 2L9 0ZM10 0L10 4L9 4L9 3L8 3L8 7L9 7L9 5L10 5L10 4L11 4L11 1L12 1L12 5L11 5L11 6L10 6L10 7L11 7L11 6L12 6L12 7L13 7L13 8L11 8L11 9L12 9L12 10L10 10L10 11L7 11L7 10L9 10L9 9L10 9L10 8L9 8L9 9L7 9L7 8L6 8L6 9L7 9L7 10L6 10L6 11L7 11L7 12L6 12L6 13L5 13L5 12L4 12L4 11L5 11L5 9L4 9L4 8L3 8L3 9L2 9L2 10L1 10L1 11L2 11L2 12L1 12L1 13L0 13L0 15L1 15L1 14L3 14L3 17L1 17L1 16L0 16L0 17L1 17L1 18L0 18L0 19L1 19L1 18L2 18L2 20L1 20L1 21L2 21L2 22L0 22L0 26L4 26L4 27L5 27L5 28L6 28L6 29L5 29L5 31L3 31L3 30L4 30L4 29L3 29L3 30L2 30L2 33L4 33L4 32L6 32L6 33L8 33L8 34L9 34L9 35L10 35L10 36L9 36L9 37L8 37L8 38L9 38L9 39L10 39L10 38L11 38L11 41L12 41L12 40L13 40L13 41L19 41L19 40L20 40L20 38L21 38L21 39L22 39L22 40L21 40L21 41L22 41L22 40L25 40L25 41L27 41L27 40L25 40L25 37L26 37L26 35L25 35L25 33L26 33L26 34L27 34L27 32L28 32L28 34L29 34L29 35L27 35L27 36L28 36L28 37L29 37L29 38L28 38L28 39L29 39L29 40L28 40L28 41L33 41L33 39L34 39L34 38L36 38L36 40L37 40L37 41L40 41L40 39L41 39L41 38L40 38L40 37L41 37L41 36L40 36L40 37L38 37L38 36L39 36L39 34L41 34L41 28L40 28L40 29L39 29L39 28L37 28L37 30L36 30L36 29L35 29L35 31L34 31L34 30L32 30L32 29L33 29L33 26L34 26L34 27L38 27L38 26L39 26L39 25L40 25L40 24L41 24L41 23L40 23L40 22L39 22L39 23L37 23L37 22L38 22L38 21L40 21L40 20L41 20L41 16L39 16L39 17L37 17L37 18L39 18L39 17L40 17L40 20L37 20L37 19L36 19L36 21L35 21L35 19L34 19L34 18L35 18L35 17L36 17L36 15L37 15L37 16L38 16L38 15L41 15L41 14L40 14L40 13L39 13L39 11L38 11L38 13L39 13L39 14L38 14L38 15L37 15L37 14L36 14L36 13L34 13L34 12L35 12L35 11L36 11L36 9L37 9L37 10L38 10L38 8L35 8L35 9L34 9L34 10L33 10L33 9L32 9L32 10L30 10L30 9L29 9L29 8L31 8L31 6L32 6L32 8L33 8L33 6L32 6L32 5L33 5L33 0L31 0L31 1L30 1L30 0L27 0L27 2L26 2L26 3L25 3L25 2L24 2L24 3L25 3L25 5L24 5L24 8L23 8L23 5L21 5L21 6L20 6L20 4L21 4L21 3L23 3L23 0L21 0L21 1L20 1L20 0L19 0L19 1L18 1L18 5L17 5L17 4L15 4L15 5L17 5L17 6L16 6L16 7L17 7L17 8L16 8L16 10L17 10L17 12L16 12L16 11L15 11L15 10L14 10L14 11L15 11L15 13L17 13L17 12L18 12L18 16L17 16L17 15L14 15L14 17L15 17L15 18L13 18L13 19L15 19L15 20L13 20L13 21L12 21L12 16L13 16L13 15L12 15L12 12L13 12L13 11L12 11L12 10L13 10L13 9L14 9L14 8L15 8L15 6L14 6L14 7L13 7L13 2L14 2L14 1L15 1L15 2L16 2L16 3L17 3L17 2L16 2L16 0L14 0L14 1L13 1L13 0ZM28 1L28 2L27 2L27 3L26 3L26 5L27 5L27 4L28 4L28 6L27 6L27 7L26 7L26 6L25 6L25 7L26 7L26 8L24 8L24 9L23 9L23 8L22 8L22 6L21 6L21 8L20 8L20 6L19 6L19 9L17 9L17 10L19 10L19 11L20 11L20 13L19 13L19 16L18 16L18 17L19 17L19 16L20 16L20 18L17 18L17 17L16 17L16 16L15 16L15 17L16 17L16 18L15 18L15 19L17 19L17 20L15 20L15 21L14 21L14 23L13 23L13 25L12 25L12 21L11 21L11 18L10 18L10 17L11 17L11 16L9 16L9 15L8 15L8 16L7 16L7 15L5 15L5 14L4 14L4 13L3 13L3 12L2 12L2 13L3 13L3 14L4 14L4 15L5 15L5 16L4 16L4 17L3 17L3 18L4 18L4 19L5 19L5 18L8 18L8 20L10 20L10 21L9 21L9 22L7 22L7 21L6 21L6 20L7 20L7 19L6 19L6 20L4 20L4 21L5 21L5 22L4 22L4 23L3 23L3 24L4 24L4 26L5 26L5 27L6 27L6 28L7 28L7 29L6 29L6 30L7 30L7 29L8 29L8 28L7 28L7 27L6 27L6 26L9 26L9 25L8 25L8 24L7 24L7 23L9 23L9 22L11 22L11 23L10 23L10 24L11 24L11 25L12 25L12 27L11 27L11 26L10 26L10 27L9 27L9 28L12 28L12 29L9 29L9 30L8 30L8 31L6 31L6 32L8 32L8 33L9 33L9 34L10 34L10 35L12 35L12 39L13 39L13 38L14 38L14 39L16 39L16 38L15 38L15 37L16 37L16 36L17 36L17 40L18 40L18 37L19 37L19 38L20 38L20 36L17 36L17 34L16 34L16 33L17 33L17 32L16 32L16 31L17 31L17 30L16 30L16 28L19 28L19 27L20 27L20 26L19 26L19 25L21 25L21 24L22 24L22 26L21 26L21 27L22 27L22 26L25 26L25 25L26 25L26 24L25 24L25 23L26 23L26 22L25 22L25 23L24 23L24 24L22 24L22 23L23 23L23 22L24 22L24 20L25 20L25 21L26 21L26 20L25 20L25 19L26 19L26 18L24 18L24 17L23 17L23 16L26 16L26 17L27 17L27 19L28 19L28 20L27 20L27 23L28 23L28 22L29 22L29 24L30 24L30 25L28 25L28 24L27 24L27 27L26 27L26 29L28 29L28 30L27 30L27 31L26 31L26 30L25 30L25 29L22 29L22 30L24 30L24 31L26 31L26 32L27 32L27 31L31 31L31 28L32 28L32 26L33 26L33 24L36 24L36 26L37 26L37 25L38 25L38 24L37 24L37 23L35 23L35 22L34 22L34 19L33 19L33 21L32 21L32 18L33 18L33 17L35 17L35 15L36 15L36 14L35 14L35 15L34 15L34 14L33 14L33 11L31 11L31 13L30 13L30 14L31 14L31 15L32 15L32 16L33 16L33 17L31 17L31 22L32 22L32 23L33 23L33 24L30 24L30 22L29 22L29 19L30 19L30 17L29 17L29 16L28 16L28 15L25 15L25 14L27 14L27 13L28 13L28 14L29 14L29 13L28 13L28 11L29 11L29 12L30 12L30 11L29 11L29 10L28 10L28 9L26 9L26 8L27 8L27 7L28 7L28 6L29 6L29 7L30 7L30 4L28 4L28 3L30 3L30 1ZM31 1L31 3L32 3L32 1ZM19 2L19 3L21 3L21 2ZM31 4L31 5L32 5L32 4ZM17 6L17 7L18 7L18 6ZM39 8L39 9L40 9L40 10L41 10L41 8ZM3 9L3 11L4 11L4 9ZM19 9L19 10L20 10L20 11L21 11L21 10L23 10L23 9ZM24 10L24 12L22 12L22 13L23 13L23 14L25 14L25 13L26 13L26 12L27 12L27 10ZM10 11L10 12L9 12L9 13L10 13L10 15L11 15L11 13L10 13L10 12L11 12L11 11ZM25 11L25 12L24 12L24 13L25 13L25 12L26 12L26 11ZM7 12L7 13L6 13L6 14L7 14L7 13L8 13L8 12ZM13 13L13 14L14 14L14 13ZM20 13L20 16L23 16L23 15L22 15L22 14L21 14L21 13ZM32 14L32 15L33 15L33 14ZM5 16L5 17L7 17L7 16ZM27 16L27 17L28 17L28 16ZM21 17L21 18L20 18L20 19L19 19L19 20L21 20L21 21L22 21L22 20L23 20L23 19L24 19L24 18L22 18L22 17ZM28 18L28 19L29 19L29 18ZM17 20L17 21L18 21L18 20ZM15 21L15 25L13 25L13 27L12 27L12 28L13 28L13 30L14 30L14 31L16 31L16 30L15 30L15 29L14 29L14 28L13 28L13 27L15 27L15 28L16 28L16 27L15 27L15 26L16 26L16 23L17 23L17 22L16 22L16 21ZM19 21L19 24L17 24L17 27L19 27L19 26L18 26L18 25L19 25L19 24L21 24L21 23L20 23L20 21ZM36 21L36 22L37 22L37 21ZM5 22L5 23L4 23L4 24L5 24L5 26L6 26L6 25L7 25L7 24L5 24L5 23L7 23L7 22ZM1 23L1 24L2 24L2 23ZM31 25L31 26L32 26L32 25ZM34 25L34 26L35 26L35 25ZM29 26L29 28L28 28L28 29L30 29L30 28L31 28L31 27L30 27L30 26ZM40 26L40 27L41 27L41 26ZM1 27L1 28L2 28L2 27ZM20 28L20 30L19 30L19 29L18 29L18 31L19 31L19 32L18 32L18 33L20 33L20 34L19 34L19 35L20 35L20 34L21 34L21 38L22 38L22 37L23 37L23 38L24 38L24 37L23 37L23 36L22 36L22 34L21 34L21 33L20 33L20 30L21 30L21 28ZM0 30L0 31L1 31L1 30ZM37 30L37 31L35 31L35 32L40 32L40 30L39 30L39 31L38 31L38 30ZM8 31L8 32L10 32L10 34L12 34L12 35L13 35L13 36L14 36L14 37L15 37L15 36L16 36L16 35L15 35L15 36L14 36L14 35L13 35L13 33L12 33L12 32L13 32L13 31ZM21 31L21 32L22 32L22 33L23 33L23 34L24 34L24 33L23 33L23 31ZM33 31L33 32L34 32L34 31ZM0 32L0 33L1 33L1 32ZM14 32L14 34L15 34L15 32ZM29 32L29 34L30 34L30 36L29 36L29 37L30 37L30 38L29 38L29 39L30 39L30 38L31 38L31 40L32 40L32 39L33 39L33 37L32 37L32 36L31 36L31 35L32 35L32 33L31 33L31 34L30 34L30 32ZM33 33L33 36L36 36L36 33ZM34 34L34 35L35 35L35 34ZM24 35L24 36L25 36L25 35ZM9 37L9 38L10 38L10 37ZM31 37L31 38L32 38L32 37ZM36 37L36 38L37 38L37 40L38 40L38 38L37 38L37 37ZM26 38L26 39L27 39L27 38ZM39 38L39 39L40 39L40 38ZM9 40L9 41L10 41L10 40ZM0 0L0 7L7 7L7 0ZM1 1L1 6L6 6L6 1ZM2 2L2 5L5 5L5 2ZM34 0L34 7L41 7L41 0ZM35 1L35 6L40 6L40 1ZM36 2L36 5L39 5L39 2ZM0 34L0 41L7 41L7 34ZM1 35L1 40L6 40L6 35ZM2 36L2 39L5 39L5 36Z" fill="#000000"/></g></g></svg>
