<?xml version="1.0" encoding="UTF-8"?>
<svg xmlns="http://www.w3.org/2000/svg" version="1.1" width="200" height="200" viewBox="0 0 200 200"><rect x="0" y="0" width="200" height="200" fill="#ffffff"/><g transform="scale(4.878)"><g transform="translate(0,0)"><path fill-rule="evenodd" d="M8 0L8 3L9 3L9 4L12 4L12 7L11 7L11 6L10 6L10 5L8 5L8 11L7 11L7 10L6 10L6 9L7 9L7 8L6 8L6 9L5 9L5 8L2 8L2 9L1 9L1 12L2 12L2 11L3 11L3 12L4 12L4 13L1 13L1 14L2 14L2 16L1 16L1 17L0 17L0 19L3 19L3 20L2 20L2 21L1 21L1 20L0 20L0 24L1 24L1 25L2 25L2 26L1 26L1 27L2 27L2 26L4 26L4 25L5 25L5 23L4 23L4 20L6 20L6 21L7 21L7 22L6 22L6 23L7 23L7 24L6 24L6 25L7 25L7 24L8 24L8 27L7 27L7 26L5 26L5 27L3 27L3 29L2 29L2 31L3 31L3 32L4 32L4 30L5 30L5 29L4 29L4 28L6 28L6 29L7 29L7 30L6 30L6 31L5 31L5 32L6 32L6 33L7 33L7 32L10 32L10 33L11 33L11 32L14 32L14 33L13 33L13 34L12 34L12 35L13 35L13 34L14 34L14 33L15 33L15 35L14 35L14 36L11 36L11 37L9 37L9 36L10 36L10 34L9 34L9 33L8 33L8 34L9 34L9 36L8 36L8 39L9 39L9 38L10 38L10 40L9 40L9 41L10 41L10 40L12 40L12 41L15 41L15 40L13 40L13 39L11 39L11 38L12 38L12 37L16 37L16 36L17 36L17 33L18 33L18 35L22 35L22 34L21 34L21 33L22 33L22 31L23 31L23 32L24 32L24 33L23 33L23 36L22 36L22 37L21 37L21 36L19 36L19 37L20 37L20 38L19 38L19 39L20 39L20 41L23 41L23 40L24 40L24 41L25 41L25 40L26 40L26 41L27 41L27 40L28 40L28 41L31 41L31 40L33 40L33 41L34 41L34 40L33 40L33 39L32 39L32 37L33 37L33 38L34 38L34 39L35 39L35 40L36 40L36 39L37 39L37 40L40 40L40 38L41 38L41 37L39 37L39 36L40 36L40 34L41 34L41 33L40 33L40 32L41 32L41 31L40 31L40 30L41 30L41 29L40 29L40 28L39 28L39 30L38 30L38 29L36 29L36 28L38 28L38 26L39 26L39 27L40 27L40 26L41 26L41 23L39 23L39 22L37 22L37 20L38 20L38 21L39 21L39 20L38 20L38 19L39 19L39 18L41 18L41 16L40 16L40 17L39 17L39 16L37 16L37 15L38 15L38 13L36 13L36 14L37 14L37 15L35 15L35 17L34 17L34 16L32 16L32 17L31 17L31 12L32 12L32 13L33 13L33 14L32 14L32 15L34 15L34 13L35 13L35 11L36 11L36 12L38 12L38 11L40 11L40 12L39 12L39 13L40 13L40 14L39 14L39 15L40 15L40 14L41 14L41 13L40 13L40 12L41 12L41 11L40 11L40 10L41 10L41 8L38 8L38 9L40 9L40 10L37 10L37 9L36 9L36 8L33 8L33 5L32 5L32 4L33 4L33 1L32 1L32 0L31 0L31 1L32 1L32 4L30 4L30 5L29 5L29 6L28 6L28 5L27 5L27 4L26 4L26 5L27 5L27 6L26 6L26 7L25 7L25 4L24 4L24 2L25 2L25 1L24 1L24 0L21 0L21 1L23 1L23 3L22 3L22 4L23 4L23 5L22 5L22 7L23 7L23 5L24 5L24 8L25 8L25 9L26 9L26 11L25 11L25 10L24 10L24 9L23 9L23 10L24 10L24 11L25 11L25 12L28 12L28 10L27 10L27 9L31 9L31 10L30 10L30 12L29 12L29 13L27 13L27 14L29 14L29 13L30 13L30 16L29 16L29 15L28 15L28 16L29 16L29 17L31 17L31 18L30 18L30 19L31 19L31 18L32 18L32 21L31 21L31 20L30 20L30 21L31 21L31 22L32 22L32 23L31 23L31 24L28 24L28 23L29 23L29 22L27 22L27 23L26 23L26 25L25 25L25 23L24 23L24 22L25 22L25 21L26 21L26 20L28 20L28 21L29 21L29 20L28 20L28 19L29 19L29 18L27 18L27 19L25 19L25 17L27 17L27 15L26 15L26 13L25 13L25 14L23 14L23 15L22 15L22 13L24 13L24 12L22 12L22 11L20 11L20 10L22 10L22 8L21 8L21 5L19 5L19 0L16 0L16 1L17 1L17 2L16 2L16 3L17 3L17 4L16 4L16 5L15 5L15 4L12 4L12 3L13 3L13 2L12 2L12 3L11 3L11 2L10 2L10 1L11 1L11 0ZM12 0L12 1L14 1L14 0ZM26 0L26 1L27 1L27 2L26 2L26 3L28 3L28 4L29 4L29 3L31 3L31 2L30 2L30 0L29 0L29 1L27 1L27 0ZM9 2L9 3L10 3L10 2ZM17 2L17 3L18 3L18 2ZM20 2L20 4L21 4L21 2ZM17 4L17 7L18 7L18 8L19 8L19 10L20 10L20 9L21 9L21 8L20 8L20 6L19 6L19 5L18 5L18 4ZM13 5L13 8L16 8L16 6L15 6L15 5ZM30 5L30 6L29 6L29 8L31 8L31 9L32 9L32 10L31 10L31 11L32 11L32 12L33 12L33 13L34 13L34 12L33 12L33 11L34 11L34 9L32 9L32 5ZM9 6L9 8L10 8L10 10L9 10L9 11L8 11L8 13L6 13L6 12L7 12L7 11L6 11L6 10L5 10L5 9L4 9L4 10L3 10L3 9L2 9L2 10L3 10L3 11L4 11L4 12L5 12L5 13L6 13L6 14L5 14L5 15L4 15L4 14L3 14L3 15L4 15L4 16L5 16L5 17L1 17L1 18L5 18L5 19L6 19L6 20L7 20L7 21L8 21L8 19L10 19L10 20L9 20L9 22L7 22L7 23L9 23L9 25L10 25L10 26L9 26L9 28L8 28L8 30L7 30L7 31L6 31L6 32L7 32L7 31L8 31L8 30L10 30L10 29L11 29L11 28L12 28L12 31L13 31L13 30L14 30L14 29L15 29L15 30L17 30L17 32L16 32L16 31L14 31L14 32L16 32L16 33L17 33L17 32L18 32L18 28L19 28L19 29L21 29L21 31L20 31L20 33L19 33L19 34L20 34L20 33L21 33L21 31L22 31L22 30L23 30L23 31L25 31L25 33L24 33L24 34L25 34L25 33L26 33L26 34L28 34L28 35L29 35L29 33L26 33L26 31L25 31L25 30L23 30L23 29L24 29L24 27L25 27L25 29L27 29L27 28L28 28L28 27L27 27L27 26L29 26L29 28L32 28L32 29L30 29L30 30L29 30L29 29L28 29L28 30L29 30L29 31L28 31L28 32L30 32L30 33L31 33L31 34L30 34L30 35L31 35L31 34L32 34L32 33L31 33L31 31L30 31L30 30L32 30L32 31L33 31L33 32L36 32L36 31L37 31L37 32L40 32L40 31L38 31L38 30L36 30L36 29L35 29L35 28L36 28L36 27L37 27L37 26L36 26L36 27L35 27L35 26L34 26L34 25L39 25L39 26L40 26L40 24L39 24L39 23L37 23L37 24L36 24L36 23L35 23L35 22L36 22L36 21L35 21L35 19L36 19L36 20L37 20L37 19L38 19L38 18L39 18L39 17L37 17L37 16L36 16L36 17L35 17L35 19L34 19L34 18L33 18L33 17L32 17L32 18L33 18L33 20L34 20L34 21L32 21L32 22L33 22L33 23L32 23L32 24L31 24L31 25L30 25L30 26L29 26L29 25L28 25L28 24L27 24L27 26L24 26L24 25L23 25L23 24L24 24L24 23L22 23L22 25L23 25L23 26L20 26L20 25L21 25L21 24L20 24L20 23L21 23L21 22L22 22L22 20L24 20L24 21L25 21L25 20L24 20L24 19L23 19L23 18L24 18L24 16L22 16L22 17L19 17L19 18L18 18L18 16L17 16L17 15L18 15L18 14L19 14L19 15L21 15L21 14L19 14L19 13L21 13L21 12L17 12L17 13L18 13L18 14L17 14L17 15L16 15L16 13L14 13L14 15L13 15L13 16L12 16L12 15L11 15L11 13L10 13L10 14L8 14L8 13L9 13L9 11L10 11L10 12L11 12L11 11L13 11L13 10L14 10L14 11L15 11L15 10L18 10L18 9L15 9L15 10L14 10L14 9L12 9L12 8L10 8L10 6ZM14 6L14 7L15 7L15 6ZM18 6L18 7L19 7L19 6ZM27 6L27 8L26 8L26 9L27 9L27 8L28 8L28 6ZM30 6L30 7L31 7L31 6ZM35 9L35 10L36 10L36 9ZM10 10L10 11L11 11L11 10ZM32 10L32 11L33 11L33 10ZM6 14L6 15L7 15L7 14ZM8 15L8 16L9 16L9 15ZM10 15L10 16L11 16L11 17L12 17L12 16L11 16L11 15ZM15 15L15 16L13 16L13 17L15 17L15 18L16 18L16 19L18 19L18 18L16 18L16 17L17 17L17 16L16 16L16 15ZM25 15L25 16L26 16L26 15ZM6 16L6 17L5 17L5 18L6 18L6 19L7 19L7 18L6 18L6 17L7 17L7 16ZM36 17L36 18L37 18L37 17ZM12 18L12 20L10 20L10 21L11 21L11 22L12 22L12 23L11 23L11 24L10 24L10 25L11 25L11 24L13 24L13 23L15 23L15 20L14 20L14 19L13 19L13 18ZM19 18L19 19L20 19L20 18ZM12 20L12 22L14 22L14 20ZM19 20L19 21L20 21L20 20ZM40 20L40 21L41 21L41 20ZM2 21L2 22L1 22L1 24L2 24L2 22L3 22L3 21ZM16 21L16 24L15 24L15 25L16 25L16 26L15 26L15 28L17 28L17 27L16 27L16 26L19 26L19 25L20 25L20 24L18 24L18 23L19 23L19 22L18 22L18 21ZM34 21L34 22L35 22L35 21ZM9 22L9 23L10 23L10 22ZM17 22L17 23L18 23L18 22ZM33 23L33 24L32 24L32 25L31 25L31 26L32 26L32 25L34 25L34 23ZM3 24L3 25L4 25L4 24ZM17 24L17 25L18 25L18 24ZM13 25L13 27L12 27L12 26L11 26L11 27L10 27L10 28L11 28L11 27L12 27L12 28L14 28L14 25ZM23 26L23 27L21 27L21 29L22 29L22 28L23 28L23 27L24 27L24 26ZM33 26L33 27L34 27L34 26ZM6 27L6 28L7 28L7 27ZM19 27L19 28L20 28L20 27ZM26 27L26 28L27 28L27 27ZM0 28L0 33L1 33L1 28ZM33 28L33 29L32 29L32 30L33 30L33 29L34 29L34 28ZM3 29L3 30L4 30L4 29ZM34 30L34 31L36 31L36 30ZM10 31L10 32L11 32L11 31ZM33 33L33 36L36 36L36 33ZM37 33L37 35L38 35L38 36L37 36L37 37L38 37L38 36L39 36L39 35L38 35L38 34L39 34L39 33ZM34 34L34 35L35 35L35 34ZM24 35L24 37L26 37L26 40L27 40L27 38L29 38L29 39L28 39L28 40L30 40L30 39L31 39L31 38L30 38L30 37L32 37L32 36L29 36L29 37L26 37L26 36L25 36L25 35ZM22 37L22 39L23 39L23 37ZM34 37L34 38L36 38L36 37ZM15 38L15 39L17 39L17 40L16 40L16 41L19 41L19 40L18 40L18 39L17 39L17 38ZM24 38L24 40L25 40L25 38ZM37 38L37 39L38 39L38 38ZM0 0L0 7L7 7L7 0ZM1 1L1 6L6 6L6 1ZM2 2L2 5L5 5L5 2ZM34 0L34 7L41 7L41 0ZM35 1L35 6L40 6L40 1ZM36 2L36 5L39 5L39 2ZM0 34L0 41L7 41L7 34ZM1 35L1 40L6 40L6 35ZM2 36L2 39L5 39L5 36Z" fill="#000000"/></g></g></svg>
