<?xml version="1.0" encoding="UTF-8"?>
<svg xmlns="http://www.w3.org/2000/svg" version="1.1" width="200" height="200" viewBox="0 0 200 200"><rect x="0" y="0" width="200" height="200" fill="#ffffff"/><g transform="scale(6.897)"><g transform="translate(0,0)"><path fill-rule="evenodd" d="M9 0L9 3L10 3L10 4L11 4L11 6L10 6L10 8L11 8L11 6L12 6L12 9L11 9L11 10L12 10L12 9L13 9L13 11L10 11L10 9L9 9L9 6L8 6L8 8L6 8L6 9L5 9L5 10L4 10L4 8L2 8L2 9L0 9L0 11L1 11L1 13L0 13L0 14L1 14L1 13L2 13L2 15L3 15L3 16L1 16L1 18L0 18L0 19L1 19L1 18L2 18L2 20L1 20L1 21L2 21L2 20L3 20L3 21L4 21L4 20L5 20L5 21L8 21L8 23L10 23L10 25L11 25L11 27L10 27L10 26L9 26L9 25L8 25L8 27L10 27L10 28L9 28L9 29L10 29L10 28L11 28L11 29L12 29L12 28L11 28L11 27L12 27L12 25L11 25L11 24L12 24L12 22L13 22L13 21L12 21L12 20L13 20L13 19L14 19L14 20L15 20L15 21L14 21L14 22L15 22L15 23L17 23L17 25L18 25L18 26L19 26L19 25L20 25L20 27L21 27L21 25L23 25L23 26L24 26L24 27L22 27L22 29L23 29L23 28L25 28L25 29L27 29L27 28L29 28L29 26L28 26L28 27L25 27L25 26L27 26L27 25L26 25L26 23L25 23L25 22L26 22L26 20L24 20L24 19L25 19L25 18L24 18L24 19L22 19L22 18L23 18L23 17L24 17L24 16L25 16L25 17L26 17L26 19L27 19L27 18L29 18L29 17L26 17L26 16L25 16L25 15L24 15L24 16L23 16L23 17L21 17L21 18L20 18L20 17L19 17L19 18L20 18L20 20L19 20L19 19L17 19L17 18L16 18L16 17L15 17L15 16L14 16L14 17L15 17L15 18L12 18L12 17L13 17L13 14L14 14L14 13L15 13L15 15L16 15L16 12L15 12L15 11L14 11L14 10L16 10L16 11L17 11L17 10L16 10L16 9L13 9L13 8L17 8L17 6L18 6L18 7L19 7L19 8L18 8L18 11L20 11L20 12L19 12L19 13L20 13L20 14L19 14L19 15L20 15L20 14L21 14L21 13L20 13L20 12L22 12L22 9L23 9L23 13L22 13L22 15L23 15L23 14L24 14L24 13L25 13L25 14L26 14L26 15L27 15L27 16L28 16L28 15L27 15L27 14L29 14L29 13L28 13L28 12L29 12L29 11L28 11L28 12L27 12L27 10L29 10L29 9L27 9L27 10L26 10L26 9L25 9L25 8L24 8L24 9L23 9L23 8L21 8L21 3L20 3L20 2L18 2L18 1L17 1L17 0L15 0L15 1L13 1L13 2L15 2L15 3L14 3L14 5L13 5L13 4L11 4L11 1L12 1L12 0ZM16 2L16 3L17 3L17 4L16 4L16 5L19 5L19 7L20 7L20 5L19 5L19 4L20 4L20 3L19 3L19 4L18 4L18 2ZM8 4L8 5L9 5L9 4ZM12 5L12 6L13 6L13 7L14 7L14 6L15 6L15 7L16 7L16 6L15 6L15 5L14 5L14 6L13 6L13 5ZM19 8L19 10L20 10L20 9L21 9L21 8ZM2 9L2 10L1 10L1 11L3 11L3 9ZM6 9L6 10L5 10L5 13L6 13L6 14L7 14L7 15L6 15L6 16L5 16L5 17L6 17L6 18L8 18L8 19L10 19L10 20L8 20L8 21L11 21L11 22L10 22L10 23L11 23L11 22L12 22L12 21L11 21L11 20L12 20L12 19L11 19L11 17L12 17L12 16L11 16L11 15L8 15L8 14L13 14L13 13L14 13L14 12L13 12L13 13L12 13L12 12L11 12L11 13L10 13L10 12L9 12L9 11L8 11L8 10L9 10L9 9ZM24 9L24 10L25 10L25 9ZM6 10L6 11L7 11L7 10ZM25 11L25 13L27 13L27 12L26 12L26 11ZM2 12L2 13L3 13L3 15L4 15L4 12ZM6 12L6 13L7 13L7 14L8 14L8 13L7 13L7 12ZM7 15L7 16L6 16L6 17L7 17L7 16L8 16L8 18L9 18L9 16L8 16L8 15ZM17 15L17 16L18 16L18 15ZM10 16L10 17L11 17L11 16ZM3 17L3 18L4 18L4 19L5 19L5 18L4 18L4 17ZM15 18L15 19L16 19L16 18ZM6 19L6 20L7 20L7 19ZM21 19L21 20L22 20L22 19ZM17 20L17 21L16 21L16 22L17 22L17 23L18 23L18 24L19 24L19 23L18 23L18 22L20 22L20 21L19 21L19 20ZM27 20L27 21L28 21L28 22L27 22L27 24L29 24L29 23L28 23L28 22L29 22L29 21L28 21L28 20ZM17 21L17 22L18 22L18 21ZM21 21L21 24L24 24L24 21ZM22 22L22 23L23 23L23 22ZM14 24L14 26L13 26L13 28L14 28L14 29L15 29L15 28L16 28L16 29L17 29L17 28L18 28L18 27L15 27L15 26L16 26L16 25L15 25L15 24ZM24 25L24 26L25 26L25 25ZM19 28L19 29L20 29L20 28ZM0 0L0 7L7 7L7 0ZM1 1L1 6L6 6L6 1ZM2 2L2 5L5 5L5 2ZM22 0L22 7L29 7L29 0ZM23 1L23 6L28 6L28 1ZM24 2L24 5L27 5L27 2ZM0 22L0 29L7 29L7 22ZM1 23L1 28L6 28L6 23ZM2 24L2 27L5 27L5 24Z" fill="#000000"/></g></g></svg>
