<?xml version="1.0" encoding="UTF-8"?>
<svg xmlns="http://www.w3.org/2000/svg" version="1.1" width="200" height="200" viewBox="0 0 200 200"><rect x="0" y="0" width="200" height="200" fill="#ffffff"/><g transform="scale(6.897)"><g transform="translate(0,0)"><path fill-rule="evenodd" d="M9 0L9 1L8 1L8 7L9 7L9 8L5 8L5 9L3 9L3 8L2 8L2 10L1 10L1 9L0 9L0 10L1 10L1 12L2 12L2 10L3 10L3 12L4 12L4 10L6 10L6 11L5 11L5 13L8 13L8 11L9 11L9 13L10 13L10 11L12 11L12 10L9 10L9 8L10 8L10 9L12 9L12 8L10 8L10 7L11 7L11 6L10 6L10 5L11 5L11 4L12 4L12 2L11 2L11 1L10 1L10 0ZM12 0L12 1L13 1L13 0ZM16 0L16 1L15 1L15 3L14 3L14 2L13 2L13 3L14 3L14 4L15 4L15 6L14 6L14 5L12 5L12 7L13 7L13 6L14 6L14 9L13 9L13 10L14 10L14 11L13 11L13 12L14 12L14 11L15 11L15 9L17 9L17 10L18 10L18 11L16 11L16 12L15 12L15 13L12 13L12 12L11 12L11 14L10 14L10 16L11 16L11 17L8 17L8 16L9 16L9 14L5 14L5 15L3 15L3 14L4 14L4 13L3 13L3 14L2 14L2 13L1 13L1 15L3 15L3 16L2 16L2 17L3 17L3 16L5 16L5 17L4 17L4 18L0 18L0 19L2 19L2 20L0 20L0 21L4 21L4 20L6 20L6 21L7 21L7 20L8 20L8 24L9 24L9 25L10 25L10 24L11 24L11 23L12 23L12 24L13 24L13 25L14 25L14 26L16 26L16 25L15 25L15 24L19 24L19 26L20 26L20 27L21 27L21 29L22 29L22 28L24 28L24 29L29 29L29 26L27 26L27 24L28 24L28 25L29 25L29 24L28 24L28 23L29 23L29 21L27 21L27 19L26 19L26 20L23 20L23 19L25 19L25 18L28 18L28 19L29 19L29 18L28 18L28 17L29 17L29 16L27 16L27 17L25 17L25 16L22 16L22 15L25 15L25 14L26 14L26 13L29 13L29 12L27 12L27 11L29 11L29 9L28 9L28 8L23 8L23 10L22 10L22 11L21 11L21 9L22 9L22 8L20 8L20 7L21 7L21 0L19 0L19 1L20 1L20 2L19 2L19 3L20 3L20 5L19 5L19 4L18 4L18 5L17 5L17 3L18 3L18 2L17 2L17 1L18 1L18 0ZM10 2L10 3L11 3L11 2ZM15 3L15 4L16 4L16 3ZM9 4L9 5L10 5L10 4ZM16 5L16 6L15 6L15 7L16 7L16 6L17 6L17 7L18 7L18 10L19 10L19 11L20 11L20 8L19 8L19 7L20 7L20 6L19 6L19 7L18 7L18 6L17 6L17 5ZM9 6L9 7L10 7L10 6ZM6 9L6 10L7 10L7 9ZM25 9L25 10L24 10L24 11L27 11L27 10L28 10L28 9L27 9L27 10L26 10L26 9ZM6 11L6 12L7 12L7 11ZM17 12L17 13L16 13L16 14L17 14L17 13L18 13L18 12ZM19 12L19 14L22 14L22 12L21 12L21 13L20 13L20 12ZM23 12L23 14L25 14L25 13L24 13L24 12ZM11 14L11 15L14 15L14 14ZM27 14L27 15L29 15L29 14ZM5 15L5 16L7 16L7 15ZM18 15L18 16L20 16L20 17L19 17L19 18L18 18L18 19L17 19L17 16L16 16L16 18L15 18L15 16L12 16L12 17L11 17L11 18L10 18L10 19L8 19L8 20L9 20L9 22L10 22L10 19L12 19L12 22L13 22L13 23L14 23L14 22L15 22L15 23L16 23L16 22L15 22L15 20L16 20L16 21L17 21L17 22L18 22L18 21L19 21L19 22L20 22L20 21L19 21L19 20L22 20L22 19L21 19L21 15ZM5 17L5 18L8 18L8 17ZM22 17L22 18L25 18L25 17ZM13 18L13 19L15 19L15 18ZM19 18L19 19L20 19L20 18ZM3 19L3 20L4 20L4 19ZM6 19L6 20L7 20L7 19ZM16 19L16 20L17 20L17 21L18 21L18 20L17 20L17 19ZM13 21L13 22L14 22L14 21ZM21 21L21 24L24 24L24 21ZM26 21L26 23L25 23L25 25L21 25L21 26L22 26L22 27L23 27L23 26L24 26L24 28L26 28L26 27L27 27L27 28L28 28L28 27L27 27L27 26L26 26L26 24L27 24L27 23L28 23L28 22L27 22L27 21ZM22 22L22 23L23 23L23 22ZM9 23L9 24L10 24L10 23ZM19 23L19 24L20 24L20 23ZM8 26L8 27L9 27L9 26ZM11 27L11 29L12 29L12 28L14 28L14 27ZM15 27L15 28L16 28L16 29L19 29L19 28L17 28L17 27ZM0 0L0 7L7 7L7 0ZM1 1L1 6L6 6L6 1ZM2 2L2 5L5 5L5 2ZM22 0L22 7L29 7L29 0ZM23 1L23 6L28 6L28 1ZM24 2L24 5L27 5L27 2ZM0 22L0 29L7 29L7 22ZM1 23L1 28L6 28L6 23ZM2 24L2 27L5 27L5 24Z" fill="#000000"/></g></g></svg>
