<?xml version="1.0" encoding="UTF-8"?>
<svg xmlns="http://www.w3.org/2000/svg" version="1.1" width="200" height="200" viewBox="0 0 200 200"><rect x="0" y="0" width="200" height="200" fill="#ffffff"/><g transform="scale(6.897)"><g transform="translate(0,0)"><path fill-rule="evenodd" d="M8 0L8 1L9 1L9 0ZM16 0L16 1L15 1L15 2L14 2L14 1L13 1L13 3L14 3L14 4L11 4L11 2L12 2L12 1L10 1L10 2L9 2L9 3L8 3L8 4L9 4L9 5L10 5L10 7L9 7L9 6L8 6L8 7L9 7L9 8L8 8L8 10L9 10L9 11L8 11L8 16L10 16L10 13L9 13L9 11L12 11L12 12L11 12L11 15L12 15L12 16L13 16L13 15L14 15L14 16L16 16L16 20L17 20L17 17L18 17L18 19L19 19L19 20L18 20L18 22L17 22L17 23L19 23L19 24L18 24L18 25L19 25L19 24L20 24L20 26L17 26L17 25L15 25L15 26L14 26L14 23L12 23L12 24L11 24L11 25L12 25L12 26L14 26L14 27L11 27L11 26L10 26L10 25L9 25L9 23L11 23L11 22L10 22L10 20L11 20L11 21L12 21L12 20L13 20L13 21L14 21L14 22L15 22L15 23L16 23L16 21L15 21L15 19L14 19L14 18L13 18L13 19L12 19L12 18L11 18L11 17L10 17L10 18L11 18L11 19L10 19L10 20L9 20L9 18L8 18L8 17L7 17L7 16L6 16L6 15L7 15L7 14L6 14L6 13L7 13L7 12L6 12L6 11L7 11L7 10L6 10L6 9L7 9L7 8L4 8L4 9L3 9L3 8L2 8L2 9L3 9L3 10L1 10L1 9L0 9L0 11L1 11L1 12L0 12L0 13L1 13L1 17L3 17L3 18L2 18L2 19L1 19L1 18L0 18L0 19L1 19L1 20L0 20L0 21L1 21L1 20L2 20L2 19L3 19L3 20L4 20L4 19L7 19L7 18L8 18L8 22L9 22L9 23L8 23L8 25L9 25L9 26L8 26L8 27L9 27L9 29L11 29L11 28L13 28L13 29L14 29L14 27L15 27L15 26L17 26L17 27L19 27L19 28L18 28L18 29L20 29L20 27L21 27L21 26L22 26L22 25L23 25L23 26L24 26L24 25L25 25L25 26L26 26L26 27L25 27L25 28L23 28L23 27L22 27L22 28L23 28L23 29L25 29L25 28L26 28L26 29L27 29L27 28L28 28L28 29L29 29L29 26L28 26L28 25L29 25L29 24L28 24L28 23L27 23L27 24L26 24L26 23L25 23L25 20L26 20L26 21L28 21L28 22L29 22L29 21L28 21L28 19L29 19L29 18L27 18L27 17L26 17L26 14L24 14L24 13L25 13L25 11L26 11L26 13L27 13L27 14L28 14L28 15L27 15L27 16L28 16L28 17L29 17L29 16L28 16L28 15L29 15L29 14L28 14L28 13L29 13L29 12L28 12L28 11L29 11L29 8L28 8L28 9L27 9L27 10L28 10L28 11L26 11L26 10L25 10L25 9L26 9L26 8L25 8L25 9L24 9L24 10L25 10L25 11L24 11L24 12L23 12L23 10L22 10L22 8L21 8L21 0L20 0L20 1L19 1L19 2L20 2L20 3L19 3L19 5L18 5L18 3L17 3L17 2L18 2L18 1L17 1L17 0ZM15 2L15 3L16 3L16 4L15 4L15 5L13 5L13 7L12 7L12 6L11 6L11 8L9 8L9 9L10 9L10 10L13 10L13 12L12 12L12 15L13 15L13 13L14 13L14 15L15 15L15 14L16 14L16 13L17 13L17 14L19 14L19 15L20 15L20 16L19 16L19 17L20 17L20 18L19 18L19 19L20 19L20 20L19 20L19 21L20 21L20 20L21 20L21 19L22 19L22 18L23 18L23 19L24 19L24 20L25 20L25 19L24 19L24 18L26 18L26 20L27 20L27 18L26 18L26 17L24 17L24 16L25 16L25 15L24 15L24 14L23 14L23 15L22 15L22 14L21 14L21 13L20 13L20 14L19 14L19 13L17 13L17 12L20 12L20 11L18 11L18 10L19 10L19 8L20 8L20 5L19 5L19 7L18 7L18 5L16 5L16 4L17 4L17 3L16 3L16 2ZM10 4L10 5L11 5L11 4ZM14 6L14 7L15 7L15 6ZM16 6L16 8L17 8L17 6ZM11 8L11 9L13 9L13 8ZM14 9L14 10L15 10L15 9ZM16 9L16 11L17 11L17 9ZM3 10L3 12L4 12L4 11L6 11L6 10ZM14 11L14 12L15 12L15 11ZM21 11L21 12L22 12L22 11ZM1 12L1 13L2 13L2 15L4 15L4 14L5 14L5 13L4 13L4 14L3 14L3 13L2 13L2 12ZM27 12L27 13L28 13L28 12ZM20 14L20 15L21 15L21 14ZM17 15L17 16L18 16L18 15ZM23 15L23 16L22 16L22 17L23 17L23 18L24 18L24 17L23 17L23 16L24 16L24 15ZM3 16L3 17L4 17L4 18L7 18L7 17L6 17L6 16L5 16L5 17L4 17L4 16ZM11 19L11 20L12 20L12 19ZM5 20L5 21L7 21L7 20ZM21 21L21 24L24 24L24 21ZM19 22L19 23L20 23L20 22ZM22 22L22 23L23 23L23 22ZM27 24L27 25L26 25L26 26L27 26L27 27L26 27L26 28L27 28L27 27L28 27L28 26L27 26L27 25L28 25L28 24ZM10 27L10 28L11 28L11 27ZM0 0L0 7L7 7L7 0ZM1 1L1 6L6 6L6 1ZM2 2L2 5L5 5L5 2ZM22 0L22 7L29 7L29 0ZM23 1L23 6L28 6L28 1ZM24 2L24 5L27 5L27 2ZM0 22L0 29L7 29L7 22ZM1 23L1 28L6 28L6 23ZM2 24L2 27L5 27L5 24Z" fill="#000000"/></g></g></svg>
