<?xml version="1.0" encoding="UTF-8"?>
<svg xmlns="http://www.w3.org/2000/svg" version="1.1" width="200" height="200" viewBox="0 0 200 200"><rect x="0" y="0" width="200" height="200" fill="#ffffff"/><g transform="scale(4.878)"><g transform="translate(0,0)"><path fill-rule="evenodd" d="M8 0L8 3L9 3L9 4L10 4L10 5L8 5L8 9L7 9L7 8L6 8L6 9L5 9L5 8L2 8L2 9L0 9L0 13L1 13L1 14L0 14L0 16L2 16L2 19L1 19L1 18L0 18L0 19L1 19L1 23L0 23L0 24L1 24L1 27L0 27L0 33L1 33L1 30L4 30L4 33L7 33L7 32L8 32L8 31L11 31L11 32L10 32L10 35L9 35L9 36L8 36L8 39L9 39L9 36L10 36L10 38L11 38L11 40L14 40L14 41L16 41L16 40L17 40L17 41L21 41L21 38L22 38L22 41L23 41L23 38L22 38L22 37L23 37L23 35L24 35L24 36L26 36L26 38L27 38L27 40L26 40L26 41L31 41L31 40L33 40L33 41L34 41L34 40L33 40L33 39L35 39L35 40L36 40L36 39L37 39L37 40L40 40L40 38L41 38L41 37L40 37L40 36L41 36L41 35L40 35L40 34L41 34L41 33L39 33L39 32L40 32L40 30L41 30L41 28L39 28L39 32L37 32L37 30L38 30L38 29L36 29L36 28L35 28L35 29L36 29L36 32L33 32L33 31L32 31L32 30L33 30L33 29L34 29L34 28L33 28L33 29L32 29L32 30L31 30L31 29L30 29L30 28L29 28L29 27L28 27L28 26L27 26L27 25L29 25L29 26L30 26L30 25L31 25L31 26L32 26L32 27L31 27L31 28L32 28L32 27L34 27L34 26L35 26L35 25L36 25L36 27L37 27L37 28L38 28L38 26L39 26L39 27L40 27L40 26L41 26L41 23L39 23L39 24L40 24L40 26L39 26L39 25L36 25L36 24L37 24L37 23L38 23L38 22L37 22L37 20L38 20L38 21L39 21L39 20L38 20L38 18L37 18L37 17L36 17L36 16L38 16L38 17L39 17L39 16L38 16L38 14L41 14L41 13L38 13L38 14L37 14L37 13L36 13L36 14L37 14L37 15L35 15L35 17L34 17L34 16L32 16L32 17L31 17L31 16L29 16L29 15L31 15L31 12L29 12L29 13L28 13L28 12L27 12L27 11L28 11L28 10L27 10L27 8L28 8L28 9L29 9L29 10L30 10L30 11L31 11L31 10L32 10L32 13L33 13L33 14L32 14L32 15L34 15L34 13L35 13L35 9L36 9L36 10L37 10L37 11L36 11L36 12L38 12L38 11L39 11L39 12L40 12L40 10L41 10L41 8L38 8L38 9L40 9L40 10L37 10L37 9L36 9L36 8L33 8L33 6L32 6L32 7L31 7L31 5L32 5L32 4L33 4L33 1L32 1L32 0L31 0L31 1L32 1L32 4L30 4L30 5L27 5L27 4L25 4L25 5L26 5L26 7L25 7L25 6L24 6L24 4L22 4L22 3L23 3L23 2L25 2L25 1L24 1L24 0L23 0L23 2L22 2L22 1L21 1L21 0L16 0L16 1L15 1L15 0L11 0L11 2L9 2L9 0ZM26 0L26 1L27 1L27 2L26 2L26 3L28 3L28 4L29 4L29 3L31 3L31 2L30 2L30 0L29 0L29 1L27 1L27 0ZM12 1L12 4L11 4L11 5L12 5L12 6L11 6L11 7L12 7L12 13L13 13L13 16L14 16L14 13L15 13L15 14L16 14L16 13L18 13L18 16L17 16L17 17L16 17L16 18L15 18L15 19L14 19L14 18L12 18L12 16L11 16L11 18L7 18L7 17L8 17L8 16L9 16L9 17L10 17L10 15L11 15L11 14L9 14L9 11L11 11L11 10L9 10L9 9L8 9L8 10L9 10L9 11L6 11L6 12L5 12L5 10L3 10L3 9L2 9L2 10L3 10L3 12L4 12L4 13L3 13L3 15L4 15L4 16L7 16L7 17L6 17L6 18L7 18L7 19L3 19L3 20L2 20L2 23L1 23L1 24L2 24L2 23L4 23L4 22L3 22L3 20L4 20L4 21L5 21L5 22L7 22L7 23L5 23L5 27L6 27L6 28L5 28L5 29L6 29L6 30L5 30L5 32L7 32L7 31L6 31L6 30L7 30L7 29L8 29L8 30L10 30L10 29L8 29L8 27L9 27L9 26L8 26L8 27L6 27L6 26L7 26L7 25L9 25L9 23L10 23L10 21L12 21L12 22L13 22L13 25L12 25L12 27L11 27L11 29L12 29L12 30L11 30L11 31L12 31L12 30L13 30L13 32L11 32L11 33L13 33L13 35L10 35L10 36L11 36L11 38L12 38L12 39L13 39L13 38L12 38L12 37L14 37L14 35L15 35L15 36L16 36L16 37L15 37L15 39L14 39L14 40L15 40L15 39L16 39L16 38L17 38L17 40L18 40L18 39L19 39L19 40L20 40L20 39L19 39L19 38L20 38L20 37L22 37L22 36L20 36L20 35L23 35L23 34L19 34L19 33L20 33L20 32L21 32L21 33L23 33L23 32L24 32L24 31L25 31L25 30L23 30L23 29L22 29L22 30L20 30L20 29L19 29L19 30L20 30L20 32L19 32L19 31L17 31L17 30L18 30L18 29L17 29L17 28L21 28L21 27L23 27L23 28L24 28L24 26L26 26L26 27L27 27L27 28L26 28L26 29L27 29L27 28L28 28L28 27L27 27L27 26L26 26L26 24L28 24L28 23L29 23L29 24L30 24L30 23L29 23L29 22L31 22L31 23L33 23L33 24L31 24L31 25L35 25L35 24L36 24L36 23L33 23L33 22L34 22L34 21L35 21L35 22L36 22L36 21L35 21L35 19L36 19L36 20L37 20L37 18L36 18L36 17L35 17L35 19L34 19L34 18L33 18L33 17L32 17L32 18L31 18L31 17L29 17L29 16L28 16L28 15L29 15L29 14L30 14L30 13L29 13L29 14L27 14L27 17L26 17L26 13L27 13L27 12L24 12L24 10L23 10L23 11L22 11L22 9L21 9L21 7L22 7L22 8L23 8L23 9L24 9L24 8L25 8L25 7L24 7L24 6L23 6L23 5L21 5L21 4L20 4L20 5L21 5L21 7L20 7L20 6L19 6L19 8L18 8L18 6L17 6L17 5L19 5L19 3L22 3L22 2L21 2L21 1L19 1L19 3L18 3L18 1L16 1L16 3L15 3L15 1ZM13 2L13 3L14 3L14 4L15 4L15 3L14 3L14 2ZM16 3L16 5L14 5L14 7L13 7L13 6L12 6L12 7L13 7L13 8L15 8L15 6L16 6L16 9L15 9L15 10L14 10L14 9L13 9L13 11L14 11L14 12L13 12L13 13L14 13L14 12L15 12L15 13L16 13L16 12L17 12L17 11L18 11L18 13L19 13L19 16L18 16L18 19L17 19L17 18L16 18L16 19L15 19L15 22L17 22L17 23L18 23L18 22L19 22L19 23L20 23L20 24L22 24L22 23L23 23L23 26L24 26L24 25L25 25L25 24L26 24L26 23L25 23L25 22L26 22L26 21L29 21L29 20L28 20L28 18L27 18L27 20L26 20L26 21L24 21L24 22L22 22L22 21L23 21L23 20L25 20L25 19L26 19L26 17L24 17L24 16L25 16L25 13L24 13L24 14L23 14L23 15L24 15L24 16L23 16L23 17L22 17L22 20L21 20L21 19L19 19L19 18L20 18L20 16L21 16L21 15L22 15L22 14L21 14L21 13L22 13L22 12L20 12L20 11L21 11L21 10L20 10L20 9L18 9L18 10L17 10L17 6L16 6L16 5L17 5L17 3ZM12 4L12 5L13 5L13 4ZM9 6L9 7L10 7L10 6ZM22 6L22 7L23 7L23 6ZM27 6L27 7L28 7L28 8L30 8L30 9L33 9L33 11L34 11L34 9L33 9L33 8L30 8L30 6L29 6L29 7L28 7L28 6ZM6 9L6 10L7 10L7 9ZM18 10L18 11L19 11L19 10ZM1 12L1 13L2 13L2 12ZM6 12L6 13L5 13L5 15L7 15L7 14L6 14L6 13L7 13L7 12ZM10 12L10 13L11 13L11 12ZM19 12L19 13L20 13L20 12ZM33 12L33 13L34 13L34 12ZM1 14L1 15L2 15L2 14ZM8 14L8 15L9 15L9 14ZM40 16L40 18L39 18L39 19L40 19L40 18L41 18L41 16ZM3 17L3 18L4 18L4 17ZM23 17L23 19L24 19L24 17ZM30 18L30 19L31 19L31 20L30 20L30 21L31 21L31 22L32 22L32 21L34 21L34 20L33 20L33 19L31 19L31 18ZM7 19L7 20L6 20L6 21L7 21L7 22L9 22L9 21L8 21L8 19ZM9 19L9 20L12 20L12 21L13 21L13 22L14 22L14 21L13 21L13 20L12 20L12 19ZM16 19L16 20L17 20L17 19ZM18 19L18 21L20 21L20 20L19 20L19 19ZM31 20L31 21L32 21L32 20ZM40 20L40 21L41 21L41 20ZM20 22L20 23L21 23L21 22ZM27 22L27 23L28 23L28 22ZM7 23L7 24L6 24L6 25L7 25L7 24L8 24L8 23ZM11 23L11 24L12 24L12 23ZM14 23L14 24L15 24L15 26L14 26L14 25L13 25L13 27L12 27L12 28L13 28L13 27L14 27L14 28L15 28L15 30L17 30L17 29L16 29L16 28L17 28L17 27L18 27L18 26L16 26L16 23ZM3 24L3 27L2 27L2 29L4 29L4 28L3 28L3 27L4 27L4 24ZM18 24L18 25L19 25L19 26L20 26L20 27L21 27L21 26L22 26L22 25L19 25L19 24ZM10 25L10 26L11 26L11 25ZM15 26L15 27L16 27L16 26ZM6 28L6 29L7 29L7 28ZM28 29L28 30L29 30L29 31L28 31L28 32L31 32L31 31L30 31L30 29ZM34 30L34 31L35 31L35 30ZM2 31L2 32L3 32L3 31ZM14 31L14 32L16 32L16 33L17 33L17 34L15 34L15 35L16 35L16 36L17 36L17 38L19 38L19 37L18 37L18 36L19 36L19 34L18 34L18 33L17 33L17 31ZM22 31L22 32L23 32L23 31ZM26 31L26 32L25 32L25 35L27 35L27 34L29 34L29 33L27 33L27 31ZM8 33L8 34L9 34L9 33ZM26 33L26 34L27 34L27 33ZM30 33L30 35L31 35L31 34L32 34L32 33ZM33 33L33 36L36 36L36 33ZM38 33L38 34L37 34L37 36L40 36L40 35L38 35L38 34L39 34L39 33ZM17 34L17 35L18 35L18 34ZM34 34L34 35L35 35L35 34ZM28 35L28 36L29 36L29 37L27 37L27 38L30 38L30 39L28 39L28 40L31 40L31 39L33 39L33 38L36 38L36 37L33 37L33 38L32 38L32 36L29 36L29 35ZM24 37L24 38L25 38L25 37ZM30 37L30 38L31 38L31 37ZM37 38L37 39L38 39L38 38ZM24 39L24 41L25 41L25 39ZM9 40L9 41L10 41L10 40ZM0 0L0 7L7 7L7 0ZM1 1L1 6L6 6L6 1ZM2 2L2 5L5 5L5 2ZM34 0L34 7L41 7L41 0ZM35 1L35 6L40 6L40 1ZM36 2L36 5L39 5L39 2ZM0 34L0 41L7 41L7 34ZM1 35L1 40L6 40L6 35ZM2 36L2 39L5 39L5 36Z" fill="#000000"/></g></g></svg>
