<?xml version="1.0" encoding="UTF-8"?>
<svg xmlns="http://www.w3.org/2000/svg" version="1.1" width="200" height="200" viewBox="0 0 200 200"><rect x="0" y="0" width="200" height="200" fill="#ffffff"/><g transform="scale(6.897)"><g transform="translate(0,0)"><path fill-rule="evenodd" d="M9 0L9 2L8 2L8 4L9 4L9 2L10 2L10 3L11 3L11 4L10 4L10 5L9 5L9 6L8 6L8 7L9 7L9 9L8 9L8 8L6 8L6 9L5 9L5 8L3 8L3 9L2 9L2 10L0 10L0 15L1 15L1 14L2 14L2 15L4 15L4 16L1 16L1 17L0 17L0 21L4 21L4 19L5 19L5 21L7 21L7 20L8 20L8 19L9 19L9 20L11 20L11 21L8 21L8 23L10 23L10 25L11 25L11 26L10 26L10 28L11 28L11 26L12 26L12 25L13 25L13 27L14 27L14 28L13 28L13 29L14 29L14 28L15 28L15 27L14 27L14 26L15 26L15 25L16 25L16 24L17 24L17 28L16 28L16 29L20 29L20 28L21 28L21 29L23 29L23 28L24 28L24 29L25 29L25 28L26 28L26 29L28 29L28 28L26 28L26 27L23 27L23 28L22 28L22 26L21 26L21 27L20 27L20 28L19 28L19 25L24 25L24 26L25 26L25 22L27 22L27 23L28 23L28 24L26 24L26 26L27 26L27 27L29 27L29 26L27 26L27 25L29 25L29 22L28 22L28 21L26 21L26 20L23 20L23 19L25 19L25 18L26 18L26 19L27 19L27 18L28 18L28 19L29 19L29 17L28 17L28 16L29 16L29 14L28 14L28 13L29 13L29 11L28 11L28 10L27 10L27 11L26 11L26 10L25 10L25 12L24 12L24 16L23 16L23 12L22 12L22 11L21 11L21 10L19 10L19 9L17 9L17 8L19 8L19 6L20 6L20 7L21 7L21 4L19 4L19 3L20 3L20 1L21 1L21 0L19 0L19 1L18 1L18 0L15 0L15 1L14 1L14 0L12 0L12 1L10 1L10 0ZM12 1L12 2L13 2L13 3L14 3L14 4L13 4L13 5L12 5L12 4L11 4L11 5L10 5L10 6L9 6L9 7L10 7L10 6L11 6L11 7L12 7L12 6L13 6L13 7L14 7L14 8L12 8L12 9L11 9L11 8L10 8L10 9L9 9L9 10L7 10L7 9L6 9L6 10L7 10L7 11L6 11L6 12L5 12L5 11L4 11L4 10L5 10L5 9L4 9L4 10L3 10L3 11L1 11L1 12L3 12L3 14L4 14L4 15L6 15L6 16L4 16L4 17L6 17L6 18L5 18L5 19L6 19L6 20L7 20L7 19L6 19L6 18L7 18L7 17L8 17L8 18L9 18L9 17L8 17L8 16L9 16L9 15L11 15L11 14L12 14L12 17L11 17L11 18L10 18L10 19L11 19L11 18L13 18L13 19L14 19L14 20L12 20L12 21L13 21L13 22L12 22L12 23L11 23L11 25L12 25L12 24L14 24L14 25L15 25L15 23L16 23L16 21L18 21L18 22L19 22L19 23L18 23L18 25L19 25L19 24L20 24L20 21L18 21L18 20L17 20L17 18L20 18L20 19L21 19L21 20L22 20L22 19L21 19L21 16L20 16L20 15L21 15L21 14L22 14L22 12L21 12L21 14L20 14L20 15L19 15L19 14L18 14L18 11L17 11L17 10L16 10L16 9L15 9L15 10L12 10L12 9L14 9L14 8L15 8L15 7L16 7L16 6L15 6L15 5L14 5L14 4L15 4L15 2L16 2L16 3L17 3L17 4L16 4L16 5L17 5L17 7L18 7L18 6L19 6L19 4L18 4L18 3L19 3L19 2L18 2L18 1L15 1L15 2L13 2L13 1ZM11 5L11 6L12 6L12 5ZM14 6L14 7L15 7L15 6ZM25 8L25 9L27 9L27 8ZM10 9L10 10L11 10L11 11L8 11L8 12L6 12L6 13L9 13L9 14L10 14L10 12L11 12L11 13L12 13L12 14L13 14L13 15L14 15L14 14L16 14L16 15L17 15L17 16L13 16L13 18L16 18L16 17L17 17L17 16L18 16L18 17L19 17L19 16L18 16L18 14L17 14L17 13L14 13L14 12L15 12L15 11L16 11L16 10L15 10L15 11L12 11L12 10L11 10L11 9ZM22 9L22 10L23 10L23 11L24 11L24 9ZM3 11L3 12L4 12L4 14L5 14L5 12L4 12L4 11ZM11 11L11 12L12 12L12 13L13 13L13 12L12 12L12 11ZM27 11L27 12L28 12L28 11ZM19 12L19 13L20 13L20 12ZM25 13L25 16L26 16L26 17L27 17L27 16L28 16L28 14L27 14L27 16L26 16L26 13ZM6 14L6 15L7 15L7 16L6 16L6 17L7 17L7 16L8 16L8 14ZM22 16L22 17L23 17L23 16ZM1 17L1 18L2 18L2 19L4 19L4 18L3 18L3 17ZM15 19L15 21L16 21L16 19ZM21 21L21 24L24 24L24 21ZM13 22L13 23L14 23L14 22ZM22 22L22 23L23 23L23 22ZM8 24L8 26L9 26L9 24ZM0 0L0 7L7 7L7 0ZM1 1L1 6L6 6L6 1ZM2 2L2 5L5 5L5 2ZM22 0L22 7L29 7L29 0ZM23 1L23 6L28 6L28 1ZM24 2L24 5L27 5L27 2ZM0 22L0 29L7 29L7 22ZM1 23L1 28L6 28L6 23ZM2 24L2 27L5 27L5 24Z" fill="#000000"/></g></g></svg>
