<?xml version="1.0" encoding="UTF-8"?>
<svg xmlns="http://www.w3.org/2000/svg" version="1.1" width="200" height="200" viewBox="0 0 200 200"><rect x="0" y="0" width="200" height="200" fill="#ffffff"/><g transform="scale(6.897)"><g transform="translate(0,0)"><path fill-rule="evenodd" d="M11 0L11 1L12 1L12 0ZM15 0L15 1L14 1L14 2L13 2L13 4L11 4L11 3L12 3L12 2L10 2L10 1L9 1L9 4L8 4L8 5L9 5L9 6L8 6L8 8L6 8L6 9L4 9L4 8L2 8L2 9L3 9L3 10L1 10L1 11L0 11L0 14L2 14L2 16L1 16L1 15L0 15L0 17L2 17L2 19L3 19L3 20L1 20L1 21L4 21L4 20L5 20L5 21L7 21L7 20L6 20L6 19L7 19L7 18L6 18L6 17L9 17L9 15L10 15L10 17L11 17L11 19L12 19L12 15L13 15L13 17L14 17L14 18L16 18L16 19L13 19L13 20L12 20L12 21L11 21L11 20L9 20L9 21L8 21L8 23L9 23L9 25L8 25L8 27L9 27L9 29L14 29L14 28L10 28L10 27L12 27L12 26L13 26L13 27L14 27L14 26L15 26L15 25L14 25L14 23L15 23L15 24L16 24L16 23L17 23L17 24L20 24L20 25L19 25L19 26L20 26L20 25L23 25L23 26L24 26L24 27L22 27L22 29L23 29L23 28L25 28L25 29L26 29L26 26L27 26L27 25L28 25L28 24L29 24L29 21L28 21L28 20L27 20L27 21L28 21L28 24L27 24L27 25L26 25L26 23L25 23L25 22L26 22L26 20L25 20L25 18L24 18L24 19L22 19L22 18L23 18L23 17L24 17L24 16L25 16L25 17L26 17L26 19L27 19L27 18L29 18L29 17L26 17L26 16L25 16L25 15L24 15L24 16L23 16L23 17L21 17L21 18L20 18L20 17L18 17L18 16L17 16L17 15L18 15L18 14L17 14L17 13L20 13L20 14L19 14L19 15L20 15L20 14L21 14L21 13L20 13L20 12L22 12L22 9L23 9L23 13L22 13L22 15L23 15L23 14L24 14L24 13L25 13L25 14L26 14L26 15L27 15L27 16L28 16L28 15L29 15L29 14L28 14L28 12L29 12L29 11L28 11L28 12L27 12L27 11L26 11L26 10L24 10L24 9L25 9L25 8L24 8L24 9L23 9L23 8L21 8L21 9L20 9L20 7L21 7L21 3L20 3L20 2L18 2L18 1L17 1L17 0ZM14 2L14 5L13 5L13 9L12 9L12 10L11 10L11 9L6 9L6 10L3 10L3 12L4 12L4 13L5 13L5 15L6 15L6 16L4 16L4 14L3 14L3 13L2 13L2 11L1 11L1 13L2 13L2 14L3 14L3 16L2 16L2 17L3 17L3 16L4 16L4 18L5 18L5 17L6 17L6 16L8 16L8 15L9 15L9 14L13 14L13 13L14 13L14 14L15 14L15 15L14 15L14 16L15 16L15 17L16 17L16 13L17 13L17 10L18 10L18 8L19 8L19 7L20 7L20 5L19 5L19 7L18 7L18 6L17 6L17 5L18 5L18 2ZM16 3L16 4L15 4L15 5L14 5L14 7L15 7L15 6L16 6L16 7L17 7L17 6L16 6L16 5L17 5L17 3ZM19 3L19 4L20 4L20 3ZM9 4L9 5L10 5L10 6L9 6L9 7L10 7L10 8L11 8L11 7L12 7L12 6L11 6L11 5L10 5L10 4ZM10 6L10 7L11 7L11 6ZM15 8L15 11L14 11L14 13L15 13L15 12L16 12L16 8ZM19 9L19 10L20 10L20 9ZM27 9L27 10L29 10L29 9ZM6 10L6 11L8 11L8 10ZM9 10L9 12L6 12L6 13L8 13L8 14L6 14L6 15L8 15L8 14L9 14L9 12L11 12L11 10ZM12 10L12 11L13 11L13 10ZM4 11L4 12L5 12L5 11ZM19 11L19 12L20 12L20 11ZM25 11L25 13L27 13L27 12L26 12L26 11ZM12 12L12 13L13 13L13 12ZM27 14L27 15L28 15L28 14ZM17 17L17 18L18 18L18 19L17 19L17 20L15 20L15 21L14 21L14 20L13 20L13 21L14 21L14 22L10 22L10 21L9 21L9 22L10 22L10 23L12 23L12 24L13 24L13 23L14 23L14 22L15 22L15 23L16 23L16 22L15 22L15 21L17 21L17 20L18 20L18 21L19 21L19 22L18 22L18 23L20 23L20 21L19 21L19 20L20 20L20 18L18 18L18 17ZM0 18L0 19L1 19L1 18ZM8 18L8 19L9 19L9 18ZM21 19L21 20L22 20L22 19ZM21 21L21 24L24 24L24 21ZM22 22L22 23L23 23L23 22ZM10 24L10 25L9 25L9 27L10 27L10 26L12 26L12 25L11 25L11 24ZM16 25L16 26L17 26L17 28L16 28L16 27L15 27L15 28L16 28L16 29L20 29L20 28L18 28L18 25ZM24 25L24 26L25 26L25 25ZM28 26L28 27L27 27L27 28L29 28L29 26ZM0 0L0 7L7 7L7 0ZM1 1L1 6L6 6L6 1ZM2 2L2 5L5 5L5 2ZM22 0L22 7L29 7L29 0ZM23 1L23 6L28 6L28 1ZM24 2L24 5L27 5L27 2ZM0 22L0 29L7 29L7 22ZM1 23L1 28L6 28L6 23ZM2 24L2 27L5 27L5 24Z" fill="#000000"/></g></g></svg>
