<?xml version="1.0" encoding="UTF-8"?>
<svg xmlns="http://www.w3.org/2000/svg" version="1.1" width="200" height="200" viewBox="0 0 200 200"><rect x="0" y="0" width="200" height="200" fill="#ffffff"/><g transform="scale(4.878)"><g transform="translate(0,0)"><path fill-rule="evenodd" d="M8 0L8 3L9 3L9 4L11 4L11 3L13 3L13 4L17 4L17 5L19 5L19 4L18 4L18 3L19 3L19 2L17 2L17 1L18 1L18 0L17 0L17 1L16 1L16 0L13 0L13 1L15 1L15 2L14 2L14 3L13 3L13 2L11 2L11 3L10 3L10 2L9 2L9 0ZM20 0L20 1L21 1L21 2L20 2L20 3L21 3L21 2L22 2L22 3L23 3L23 4L22 4L22 5L20 5L20 7L19 7L19 6L18 6L18 7L17 7L17 6L16 6L16 5L15 5L15 6L14 6L14 8L12 8L12 7L13 7L13 5L11 5L11 6L10 6L10 7L9 7L9 5L8 5L8 9L10 9L10 12L11 12L11 11L13 11L13 9L15 9L15 10L14 10L14 14L13 14L13 12L12 12L12 15L14 15L14 17L13 17L13 18L14 18L14 20L17 20L17 19L15 19L15 18L16 18L16 17L15 17L15 16L16 16L16 15L17 15L17 16L18 16L18 17L17 17L17 18L18 18L18 17L19 17L19 19L21 19L21 20L22 20L22 19L21 19L21 18L20 18L20 16L21 16L21 17L22 17L22 18L23 18L23 17L24 17L24 15L25 15L25 17L26 17L26 16L27 16L27 14L30 14L30 16L29 16L29 15L28 15L28 16L29 16L29 17L31 17L31 18L30 18L30 19L31 19L31 20L30 20L30 21L31 21L31 22L29 22L29 23L28 23L28 22L27 22L27 23L26 23L26 24L23 24L23 22L24 22L24 23L25 23L25 22L26 22L26 19L28 19L28 20L27 20L27 21L29 21L29 19L28 19L28 18L26 18L26 19L25 19L25 22L24 22L24 19L23 19L23 22L21 22L21 21L19 21L19 20L18 20L18 21L17 21L17 23L18 23L18 21L19 21L19 26L18 26L18 24L16 24L16 25L15 25L15 27L14 27L14 26L13 26L13 25L12 25L12 24L13 24L13 23L12 23L12 22L11 22L11 23L10 23L10 20L11 20L11 21L12 21L12 20L13 20L13 19L12 19L12 18L10 18L10 17L11 17L11 15L9 15L9 14L10 14L10 13L9 13L9 10L8 10L8 12L6 12L6 13L4 13L4 12L5 12L5 11L7 11L7 10L6 10L6 9L7 9L7 8L6 8L6 9L5 9L5 8L2 8L2 11L3 11L3 12L2 12L2 13L1 13L1 14L2 14L2 17L3 17L3 16L4 16L4 17L5 17L5 19L4 19L4 20L3 20L3 18L2 18L2 21L1 21L1 19L0 19L0 21L1 21L1 23L2 23L2 25L1 25L1 26L2 26L2 25L3 25L3 24L4 24L4 25L5 25L5 24L6 24L6 25L7 25L7 26L6 26L6 27L7 27L7 28L6 28L6 29L5 29L5 28L4 28L4 29L5 29L5 30L4 30L4 31L3 31L3 29L2 29L2 28L3 28L3 27L4 27L4 26L3 26L3 27L0 27L0 33L1 33L1 30L2 30L2 31L3 31L3 32L2 32L2 33L3 33L3 32L5 32L5 31L7 31L7 30L6 30L6 29L8 29L8 31L9 31L9 32L8 32L8 34L9 34L9 32L11 32L11 33L10 33L10 36L12 36L12 35L13 35L13 37L12 37L12 38L11 38L11 39L12 39L12 38L13 38L13 40L9 40L9 41L13 41L13 40L14 40L14 41L15 41L15 40L14 40L14 39L16 39L16 40L17 40L17 41L19 41L19 40L21 40L21 39L22 39L22 40L23 40L23 41L24 41L24 39L22 39L22 38L26 38L26 41L27 41L27 40L28 40L28 41L31 41L31 40L33 40L33 41L34 41L34 40L33 40L33 39L35 39L35 40L36 40L36 39L37 39L37 40L40 40L40 38L41 38L41 37L39 37L39 36L37 36L37 35L38 35L38 34L37 34L37 33L39 33L39 35L40 35L40 34L41 34L41 33L39 33L39 32L41 32L41 31L40 31L40 30L41 30L41 28L40 28L40 26L41 26L41 23L39 23L39 24L40 24L40 26L39 26L39 25L36 25L36 24L37 24L37 23L38 23L38 22L39 22L39 20L38 20L38 17L39 17L39 16L38 16L38 14L37 14L37 13L36 13L36 14L35 14L35 17L34 17L34 16L33 16L33 17L31 17L31 12L32 12L32 13L33 13L33 14L32 14L32 15L34 15L34 13L35 13L35 11L37 11L37 12L38 12L38 11L39 11L39 14L41 14L41 13L40 13L40 10L41 10L41 8L38 8L38 9L40 9L40 10L37 10L37 9L36 9L36 8L33 8L33 9L32 9L32 8L27 8L27 9L26 9L26 7L27 7L27 6L28 6L28 7L29 7L29 4L28 4L28 5L27 5L27 4L24 4L24 1L23 1L23 0L22 0L22 1L21 1L21 0ZM26 0L26 1L27 1L27 2L26 2L26 3L31 3L31 2L30 2L30 0L29 0L29 1L27 1L27 0ZM31 0L31 1L32 1L32 0ZM22 1L22 2L23 2L23 1ZM15 2L15 3L17 3L17 2ZM32 2L32 3L33 3L33 2ZM30 4L30 7L31 7L31 5L32 5L32 7L33 7L33 4ZM22 5L22 6L21 6L21 7L20 7L20 8L18 8L18 9L16 9L16 8L17 8L17 7L16 7L16 6L15 6L15 7L16 7L16 8L15 8L15 9L16 9L16 12L15 12L15 14L19 14L19 15L18 15L18 16L19 16L19 15L20 15L20 14L22 14L22 15L21 15L21 16L22 16L22 15L23 15L23 14L22 14L22 13L25 13L25 12L26 12L26 11L27 11L27 10L29 10L29 11L28 11L28 13L29 13L29 12L31 12L31 11L34 11L34 9L33 9L33 10L31 10L31 9L27 9L27 10L26 10L26 11L23 11L23 10L20 10L20 9L21 9L21 7L22 7L22 6L23 6L23 8L22 8L22 9L23 9L23 8L25 8L25 7L26 7L26 6L25 6L25 5ZM11 6L11 7L12 7L12 6ZM24 6L24 7L25 7L25 6ZM10 8L10 9L11 9L11 8ZM3 9L3 10L4 10L4 9ZM35 9L35 10L36 10L36 9ZM17 10L17 12L16 12L16 13L17 13L17 12L19 12L19 13L20 13L20 10ZM0 11L0 12L1 12L1 11ZM22 11L22 12L21 12L21 13L22 13L22 12L23 12L23 11ZM33 12L33 13L34 13L34 12ZM2 13L2 14L3 14L3 15L4 15L4 16L5 16L5 17L6 17L6 18L7 18L7 19L6 19L6 20L4 20L4 21L5 21L5 22L4 22L4 24L5 24L5 23L6 23L6 24L8 24L8 23L9 23L9 22L7 22L7 21L6 21L6 20L7 20L7 19L8 19L8 21L9 21L9 19L10 19L10 18L9 18L9 19L8 19L8 17L6 17L6 16L7 16L7 15L8 15L8 16L9 16L9 17L10 17L10 16L9 16L9 15L8 15L8 14L9 14L9 13L8 13L8 14L7 14L7 13L6 13L6 14L4 14L4 13ZM6 14L6 15L5 15L5 16L6 16L6 15L7 15L7 14ZM0 15L0 17L1 17L1 15ZM36 16L36 17L35 17L35 19L34 19L34 18L33 18L33 19L32 19L32 18L31 18L31 19L32 19L32 20L31 20L31 21L32 21L32 22L31 22L31 24L33 24L33 25L32 25L32 26L31 26L31 25L30 25L30 26L29 26L29 25L27 25L27 24L28 24L28 23L27 23L27 24L26 24L26 26L28 26L28 27L29 27L29 28L31 28L31 29L28 29L28 30L30 30L30 31L28 31L28 33L26 33L26 35L25 35L25 34L24 34L24 33L25 33L25 32L27 32L27 30L26 30L26 29L27 29L27 28L26 28L26 27L24 27L24 26L23 26L23 25L22 25L22 26L23 26L23 27L21 27L21 26L19 26L19 28L16 28L16 27L15 27L15 28L12 28L12 27L13 27L13 26L12 26L12 25L11 25L11 28L9 28L9 31L10 31L10 30L11 30L11 31L12 31L12 33L11 33L11 34L13 34L13 33L14 33L14 34L15 34L15 33L14 33L14 31L13 31L13 30L14 30L14 29L15 29L15 31L16 31L16 33L18 33L18 32L19 32L19 33L23 33L23 34L24 34L24 35L23 35L23 36L22 36L22 37L24 37L24 36L26 36L26 37L27 37L27 38L28 38L28 40L30 40L30 39L33 39L33 38L36 38L36 37L33 37L33 38L32 38L32 36L29 36L29 37L27 37L27 34L28 34L28 35L29 35L29 34L28 34L28 33L29 33L29 32L30 32L30 33L31 33L31 34L30 34L30 35L31 35L31 34L32 34L32 33L31 33L31 30L32 30L32 31L33 31L33 32L39 32L39 31L34 31L34 30L36 30L36 29L37 29L37 30L39 30L39 26L38 26L38 28L36 28L36 27L35 27L35 26L36 26L36 25L35 25L35 24L36 24L36 23L35 23L35 22L36 22L36 21L35 21L35 19L36 19L36 20L37 20L37 22L38 22L38 20L37 20L37 18L36 18L36 17L38 17L38 16ZM40 16L40 18L39 18L39 19L40 19L40 18L41 18L41 16ZM32 20L32 21L34 21L34 22L35 22L35 21L34 21L34 20ZM40 20L40 21L41 21L41 20ZM2 21L2 22L3 22L3 21ZM14 21L14 24L15 24L15 21ZM6 22L6 23L7 23L7 22ZM32 22L32 23L33 23L33 24L34 24L34 23L33 23L33 22ZM21 23L21 24L22 24L22 23ZM29 23L29 24L30 24L30 23ZM9 24L9 25L8 25L8 26L9 26L9 27L10 27L10 24ZM16 25L16 26L17 26L17 25ZM33 25L33 27L34 27L34 26L35 26L35 25ZM20 27L20 28L19 28L19 32L20 32L20 29L23 29L23 30L22 30L22 31L21 31L21 32L23 32L23 31L24 31L24 30L25 30L25 31L26 31L26 30L25 30L25 28L24 28L24 29L23 29L23 28L21 28L21 27ZM31 27L31 28L32 28L32 27ZM15 28L15 29L16 29L16 30L17 30L17 29L16 29L16 28ZM33 28L33 29L32 29L32 30L33 30L33 29L34 29L34 28ZM35 28L35 29L36 29L36 28ZM11 29L11 30L13 30L13 29ZM6 32L6 33L7 33L7 32ZM33 33L33 36L36 36L36 33ZM16 34L16 35L14 35L14 36L17 36L17 34ZM18 34L18 37L17 37L17 38L16 38L16 39L18 39L18 38L19 38L19 39L21 39L21 37L19 37L19 35L20 35L20 34ZM21 34L21 35L22 35L22 34ZM34 34L34 35L35 35L35 34ZM8 36L8 39L10 39L10 38L9 38L9 36ZM14 37L14 38L15 38L15 37ZM30 37L30 38L29 38L29 39L30 39L30 38L31 38L31 37ZM37 38L37 39L38 39L38 38ZM0 0L0 7L7 7L7 0ZM1 1L1 6L6 6L6 1ZM2 2L2 5L5 5L5 2ZM34 0L34 7L41 7L41 0ZM35 1L35 6L40 6L40 1ZM36 2L36 5L39 5L39 2ZM0 34L0 41L7 41L7 34ZM1 35L1 40L6 40L6 35ZM2 36L2 39L5 39L5 36Z" fill="#000000"/></g></g></svg>
