<?xml version="1.0" encoding="UTF-8"?>
<svg xmlns="http://www.w3.org/2000/svg" version="1.1" width="200" height="200" viewBox="0 0 200 200"><rect x="0" y="0" width="200" height="200" fill="#ffffff"/><g transform="scale(6.897)"><g transform="translate(0,0)"><path fill-rule="evenodd" d="M11 0L11 1L10 1L10 2L9 2L9 1L8 1L8 2L9 2L9 3L10 3L10 2L11 2L11 1L12 1L12 3L11 3L11 4L13 4L13 6L12 6L12 7L11 7L11 5L10 5L10 4L9 4L9 5L8 5L8 8L4 8L4 9L8 9L8 8L10 8L10 11L12 11L12 12L9 12L9 11L8 11L8 10L6 10L6 11L8 11L8 13L10 13L10 14L11 14L11 15L10 15L10 16L9 16L9 15L8 15L8 14L5 14L5 13L7 13L7 12L4 12L4 17L5 17L5 18L2 18L2 19L3 19L3 21L4 21L4 20L5 20L5 21L8 21L8 25L9 25L9 27L12 27L12 29L22 29L22 28L23 28L23 29L27 29L27 28L28 28L28 27L29 27L29 26L26 26L26 25L27 25L27 24L28 24L28 25L29 25L29 22L28 22L28 23L27 23L27 21L29 21L29 19L27 19L27 18L28 18L28 17L27 17L27 18L26 18L26 19L27 19L27 20L24 20L24 19L23 19L23 18L21 18L21 19L20 19L20 17L23 17L23 16L24 16L24 18L25 18L25 16L24 16L24 14L25 14L25 15L27 15L27 16L29 16L29 14L27 14L27 12L29 12L29 9L28 9L28 8L27 8L27 9L24 9L24 8L22 8L22 9L24 9L24 10L22 10L22 11L23 11L23 13L22 13L22 12L18 12L18 13L19 13L19 14L18 14L18 15L17 15L17 16L16 16L16 15L15 15L15 16L16 16L16 17L18 17L18 16L19 16L19 18L17 18L17 21L16 21L16 20L15 20L15 23L14 23L14 21L12 21L12 20L13 20L13 19L14 19L14 18L15 18L15 17L12 17L12 15L13 15L13 16L14 16L14 14L17 14L17 10L18 10L18 9L19 9L19 10L20 10L20 11L21 11L21 9L19 9L19 8L21 8L21 6L20 6L20 7L19 7L19 4L20 4L20 5L21 5L21 1L20 1L20 0L18 0L18 2L17 2L17 3L15 3L15 2L16 2L16 1L15 1L15 0L14 0L14 1L12 1L12 0ZM19 1L19 2L20 2L20 1ZM13 3L13 4L14 4L14 5L15 5L15 4L14 4L14 3ZM18 3L18 4L16 4L16 6L15 6L15 7L16 7L16 10L17 10L17 9L18 9L18 8L17 8L17 7L18 7L18 4L19 4L19 3ZM9 5L9 7L10 7L10 5ZM13 6L13 7L14 7L14 6ZM16 6L16 7L17 7L17 6ZM13 8L13 11L14 11L14 10L15 10L15 8ZM11 9L11 10L12 10L12 9ZM27 9L27 10L28 10L28 9ZM0 10L0 12L1 12L1 13L2 13L2 15L1 15L1 14L0 14L0 18L1 18L1 16L3 16L3 12L1 12L1 11L3 11L3 10ZM4 10L4 11L5 11L5 10ZM24 10L24 12L25 12L25 10ZM15 11L15 13L16 13L16 11ZM13 12L13 13L12 13L12 14L13 14L13 13L14 13L14 12ZM21 13L21 14L19 14L19 16L21 16L21 15L22 15L22 16L23 16L23 14L24 14L24 13L23 13L23 14L22 14L22 13ZM25 13L25 14L26 14L26 13ZM5 15L5 17L6 17L6 18L5 18L5 19L6 19L6 20L8 20L8 21L9 21L9 23L10 23L10 24L9 24L9 25L11 25L11 24L12 24L12 25L14 25L14 23L13 23L13 24L12 24L12 23L10 23L10 21L11 21L11 22L12 22L12 21L11 21L11 19L10 19L10 21L9 21L9 19L8 19L8 18L9 18L9 17L6 17L6 16L7 16L7 15ZM6 18L6 19L7 19L7 18ZM12 18L12 19L13 19L13 18ZM18 19L18 23L19 23L19 24L17 24L17 22L16 22L16 23L15 23L15 26L13 26L13 27L16 27L16 28L19 28L19 26L20 26L20 28L21 28L21 26L22 26L22 27L23 27L23 28L25 28L25 27L23 27L23 26L24 26L24 25L19 25L19 24L20 24L20 22L19 22L19 21L20 21L20 20L19 20L19 19ZM22 19L22 20L23 20L23 19ZM0 20L0 21L2 21L2 20ZM21 21L21 24L24 24L24 21ZM25 21L25 25L26 25L26 24L27 24L27 23L26 23L26 21ZM22 22L22 23L23 23L23 22ZM16 24L16 25L17 25L17 26L16 26L16 27L17 27L17 26L18 26L18 25L17 25L17 24ZM26 27L26 28L27 28L27 27ZM9 28L9 29L10 29L10 28ZM0 0L0 7L7 7L7 0ZM1 1L1 6L6 6L6 1ZM2 2L2 5L5 5L5 2ZM22 0L22 7L29 7L29 0ZM23 1L23 6L28 6L28 1ZM24 2L24 5L27 5L27 2ZM0 22L0 29L7 29L7 22ZM1 23L1 28L6 28L6 23ZM2 24L2 27L5 27L5 24Z" fill="#000000"/></g></g></svg>
