<?xml version="1.0" encoding="UTF-8"?>
<svg xmlns="http://www.w3.org/2000/svg" version="1.1" width="200" height="200" viewBox="0 0 200 200"><rect x="0" y="0" width="200" height="200" fill="#ffffff"/><g transform="scale(4.878)"><g transform="translate(0,0)"><path fill-rule="evenodd" d="M8 0L8 3L10 3L10 7L11 7L11 3L12 3L12 7L13 7L13 8L9 8L9 5L8 5L8 9L7 9L7 8L6 8L6 9L7 9L7 10L5 10L5 8L2 8L2 9L3 9L3 11L1 11L1 10L0 10L0 11L1 11L1 12L0 12L0 13L1 13L1 14L3 14L3 17L2 17L2 15L0 15L0 17L1 17L1 18L2 18L2 19L0 19L0 20L2 20L2 21L4 21L4 22L1 22L1 23L0 23L0 26L2 26L2 31L4 31L4 32L5 32L5 33L8 33L8 34L9 34L9 33L8 33L8 32L9 32L9 29L7 29L7 28L11 28L11 30L10 30L10 31L12 31L12 28L13 28L13 27L14 27L14 28L15 28L15 27L17 27L17 29L16 29L16 30L17 30L17 29L18 29L18 33L17 33L17 37L16 37L16 34L12 34L12 35L9 35L9 36L8 36L8 39L9 39L9 36L10 36L10 37L11 37L11 38L12 38L12 37L13 37L13 36L15 36L15 37L14 37L14 38L13 38L13 39L12 39L12 40L11 40L11 39L10 39L10 40L9 40L9 41L15 41L15 39L14 39L14 38L15 38L15 37L16 37L16 38L17 38L17 39L16 39L16 41L20 41L20 40L21 40L21 39L22 39L22 41L23 41L23 39L24 39L24 38L25 38L25 36L21 36L21 35L20 35L20 34L19 34L19 35L20 35L20 37L19 37L19 36L18 36L18 33L20 33L20 32L21 32L21 31L22 31L22 32L23 32L23 35L27 35L27 36L28 36L28 37L29 37L29 36L31 36L31 35L32 35L32 37L30 37L30 39L31 39L31 40L24 40L24 41L31 41L31 40L33 40L33 41L34 41L34 40L33 40L33 39L31 39L31 38L34 38L34 39L35 39L35 40L36 40L36 39L37 39L37 40L40 40L40 38L41 38L41 37L39 37L39 36L38 36L38 35L40 35L40 36L41 36L41 35L40 35L40 34L41 34L41 33L40 33L40 30L41 30L41 29L39 29L39 32L33 32L33 31L32 31L32 30L33 30L33 29L34 29L34 28L33 28L33 29L32 29L32 30L31 30L31 29L30 29L30 28L26 28L26 27L29 27L29 26L30 26L30 25L31 25L31 26L32 26L32 27L31 27L31 28L32 28L32 27L34 27L34 26L35 26L35 25L36 25L36 27L35 27L35 29L36 29L36 31L38 31L38 29L36 29L36 28L38 28L38 26L39 26L39 27L40 27L40 28L41 28L41 27L40 27L40 26L41 26L41 23L39 23L39 22L37 22L37 20L38 20L38 21L39 21L39 20L38 20L38 19L39 19L39 18L41 18L41 16L40 16L40 17L39 17L39 16L37 16L37 17L36 17L36 16L35 16L35 17L34 17L34 16L32 16L32 17L31 17L31 16L29 16L29 15L31 15L31 10L32 10L32 13L33 13L33 14L32 14L32 15L34 15L34 13L35 13L35 10L37 10L37 11L36 11L36 12L38 12L38 11L39 11L39 14L41 14L41 13L40 13L40 12L41 12L41 11L40 11L40 10L41 10L41 8L38 8L38 9L40 9L40 10L37 10L37 9L36 9L36 8L29 8L29 6L30 6L30 7L31 7L31 5L32 5L32 4L33 4L33 3L32 3L32 4L30 4L30 5L29 5L29 6L28 6L28 5L27 5L27 4L26 4L26 8L25 8L25 6L24 6L24 8L25 8L25 9L31 9L31 10L26 10L26 11L25 11L25 12L26 12L26 13L23 13L23 11L24 11L24 9L22 9L22 7L23 7L23 6L22 6L22 7L21 7L21 5L20 5L20 4L17 4L17 3L16 3L16 2L17 2L17 0L14 0L14 2L12 2L12 0L11 0L11 3L10 3L10 2L9 2L9 0ZM18 0L18 1L19 1L19 2L18 2L18 3L21 3L21 4L23 4L23 5L25 5L25 0L22 0L22 1L21 1L21 2L20 2L20 1L19 1L19 0ZM26 0L26 1L27 1L27 2L26 2L26 3L28 3L28 4L29 4L29 3L31 3L31 2L30 2L30 1L33 1L33 0L29 0L29 1L27 1L27 0ZM15 1L15 2L14 2L14 4L16 4L16 3L15 3L15 2L16 2L16 1ZM22 1L22 2L21 2L21 3L22 3L22 2L23 2L23 3L24 3L24 1ZM13 5L13 7L14 7L14 8L13 8L13 9L14 9L14 8L16 8L16 9L15 9L15 10L17 10L17 9L18 9L18 10L19 10L19 11L20 11L20 10L21 10L21 12L20 12L20 13L21 13L21 14L19 14L19 13L18 13L18 12L17 12L17 11L16 11L16 13L15 13L15 11L14 11L14 10L13 10L13 11L11 11L11 10L12 10L12 9L10 9L10 10L7 10L7 11L6 11L6 12L7 12L7 13L6 13L6 14L7 14L7 15L5 15L5 16L7 16L7 17L4 17L4 19L2 19L2 20L4 20L4 21L5 21L5 19L6 19L6 20L7 20L7 21L6 21L6 22L5 22L5 23L6 23L6 24L7 24L7 23L8 23L8 24L9 24L9 23L13 23L13 24L12 24L12 25L11 25L11 26L10 26L10 25L9 25L9 26L7 26L7 25L6 25L6 26L5 26L5 25L3 25L3 26L4 26L4 27L3 27L3 29L4 29L4 30L7 30L7 31L5 31L5 32L7 32L7 31L8 31L8 30L7 30L7 29L5 29L5 27L6 27L6 28L7 28L7 27L9 27L9 26L10 26L10 27L11 27L11 26L12 26L12 27L13 27L13 26L14 26L14 27L15 27L15 26L16 26L16 25L17 25L17 27L18 27L18 26L22 26L22 25L17 25L17 22L20 22L20 23L21 23L21 24L22 24L22 23L24 23L24 20L22 20L22 18L26 18L26 17L27 17L27 18L28 18L28 19L26 19L26 20L25 20L25 21L26 21L26 22L25 22L25 23L27 23L27 22L28 22L28 24L26 24L26 25L24 25L24 24L23 24L23 27L22 27L22 28L21 28L21 27L19 27L19 28L18 28L18 29L22 29L22 28L23 28L23 30L24 30L24 31L23 31L23 32L24 32L24 33L25 33L25 34L29 34L29 33L26 33L26 32L27 32L27 29L26 29L26 28L25 28L25 27L26 27L26 25L27 25L27 26L28 26L28 25L29 25L29 24L30 24L30 23L31 23L31 24L33 24L33 23L32 23L32 22L34 22L34 23L35 23L35 24L34 24L34 25L32 25L32 26L34 26L34 25L35 25L35 24L36 24L36 25L39 25L39 26L40 26L40 24L39 24L39 23L37 23L37 24L36 24L36 23L35 23L35 22L36 22L36 21L35 21L35 19L36 19L36 20L37 20L37 18L39 18L39 17L37 17L37 18L36 18L36 17L35 17L35 19L34 19L34 18L33 18L33 17L32 17L32 18L31 18L31 17L29 17L29 16L28 16L28 15L29 15L29 14L30 14L30 13L29 13L29 12L30 12L30 11L28 11L28 13L29 13L29 14L27 14L27 13L26 13L26 15L25 15L25 16L26 16L26 17L24 17L24 15L23 15L23 13L22 13L22 10L21 10L21 8L20 8L20 9L19 9L19 7L20 7L20 6L19 6L19 7L18 7L18 6L17 6L17 8L16 8L16 6L15 6L15 7L14 7L14 5ZM27 6L27 8L28 8L28 6ZM32 6L32 7L33 7L33 6ZM32 9L32 10L33 10L33 11L34 11L34 10L33 10L33 9ZM4 10L4 11L3 11L3 14L5 14L5 13L4 13L4 11L5 11L5 10ZM7 11L7 12L9 12L9 13L7 13L7 14L8 14L8 15L9 15L9 16L8 16L8 17L7 17L7 18L6 18L6 19L7 19L7 18L9 18L9 17L10 17L10 15L11 15L11 14L12 14L12 13L13 13L13 14L14 14L14 15L12 15L12 17L11 17L11 18L10 18L10 19L9 19L9 20L8 20L8 21L10 21L10 22L12 22L12 21L10 21L10 19L11 19L11 18L12 18L12 20L13 20L13 18L12 18L12 17L14 17L14 21L13 21L13 23L15 23L15 24L16 24L16 22L14 22L14 21L15 21L15 19L16 19L16 18L15 18L15 16L14 16L14 15L16 15L16 14L17 14L17 13L16 13L16 14L14 14L14 13L13 13L13 12L10 12L10 11ZM26 11L26 12L27 12L27 11ZM1 12L1 13L2 13L2 12ZM33 12L33 13L34 13L34 12ZM9 13L9 15L10 15L10 14L11 14L11 13ZM36 13L36 14L35 14L35 15L38 15L38 13ZM19 15L19 16L22 16L22 17L23 17L23 15ZM26 15L26 16L27 16L27 15ZM17 16L17 19L19 19L19 20L18 20L18 21L19 21L19 20L20 20L20 18L21 18L21 17L20 17L20 18L19 18L19 17L18 17L18 16ZM30 18L30 19L31 19L31 20L30 20L30 21L31 21L31 22L32 22L32 21L34 21L34 22L35 22L35 21L34 21L34 20L33 20L33 18L32 18L32 19L31 19L31 18ZM26 20L26 21L28 21L28 22L29 22L29 21L28 21L28 20ZM31 20L31 21L32 21L32 20ZM40 20L40 21L41 21L41 20ZM20 21L20 22L21 22L21 23L22 23L22 22L23 22L23 21ZM6 22L6 23L7 23L7 22ZM2 23L2 24L4 24L4 23ZM18 23L18 24L19 24L19 23ZM12 25L12 26L13 26L13 25ZM14 25L14 26L15 26L15 25ZM6 26L6 27L7 27L7 26ZM24 26L24 27L25 27L25 26ZM0 27L0 28L1 28L1 27ZM24 28L24 30L25 30L25 31L26 31L26 30L25 30L25 28ZM0 29L0 33L1 33L1 29ZM13 29L13 31L14 31L14 30L15 30L15 29ZM28 29L28 30L29 30L29 31L28 31L28 32L30 32L30 29ZM19 30L19 31L20 31L20 30ZM34 30L34 31L35 31L35 30ZM15 31L15 33L16 33L16 31ZM11 32L11 33L12 33L12 32ZM13 32L13 33L14 33L14 32ZM30 33L30 35L31 35L31 33ZM33 33L33 36L36 36L36 33ZM37 33L37 34L39 34L39 33ZM34 34L34 35L35 35L35 34ZM12 35L12 36L13 36L13 35ZM28 35L28 36L29 36L29 35ZM37 36L37 37L38 37L38 36ZM20 37L20 38L18 38L18 39L17 39L17 40L20 40L20 38L21 38L21 37ZM34 37L34 38L36 38L36 37ZM22 38L22 39L23 39L23 38ZM26 38L26 39L28 39L28 38ZM37 38L37 39L38 39L38 38ZM13 39L13 40L14 40L14 39ZM0 0L0 7L7 7L7 0ZM1 1L1 6L6 6L6 1ZM2 2L2 5L5 5L5 2ZM34 0L34 7L41 7L41 0ZM35 1L35 6L40 6L40 1ZM36 2L36 5L39 5L39 2ZM0 34L0 41L7 41L7 34ZM1 35L1 40L6 40L6 35ZM2 36L2 39L5 39L5 36Z" fill="#000000"/></g></g></svg>
