<?xml version="1.0" encoding="UTF-8"?>
<svg xmlns="http://www.w3.org/2000/svg" version="1.1" width="200" height="200" viewBox="0 0 200 200"><rect x="0" y="0" width="200" height="200" fill="#ffffff"/><g transform="scale(4.878)"><g transform="translate(0,0)"><path fill-rule="evenodd" d="M8 0L8 3L10 3L10 1L11 1L11 5L8 5L8 12L10 12L10 11L11 11L11 12L12 12L12 11L13 11L13 13L12 13L12 14L11 14L11 13L10 13L10 14L11 14L11 15L10 15L10 16L8 16L8 17L7 17L7 16L6 16L6 15L7 15L7 14L8 14L8 15L9 15L9 13L7 13L7 12L6 12L6 11L7 11L7 10L6 10L6 11L5 11L5 12L4 12L4 9L5 9L5 8L2 8L2 9L3 9L3 10L2 10L2 11L1 11L1 10L0 10L0 12L1 12L1 13L5 13L5 14L3 14L3 15L2 15L2 16L3 16L3 17L1 17L1 20L0 20L0 21L1 21L1 20L2 20L2 22L1 22L1 23L2 23L2 24L1 24L1 25L0 25L0 26L1 26L1 25L2 25L2 24L3 24L3 26L2 26L2 27L0 27L0 28L1 28L1 29L0 29L0 33L1 33L1 29L2 29L2 32L3 32L3 33L5 33L5 32L6 32L6 33L7 33L7 32L8 32L8 30L6 30L6 29L7 29L7 28L8 28L8 29L9 29L9 30L10 30L10 32L11 32L11 34L12 34L12 35L9 35L9 36L8 36L8 39L9 39L9 41L10 41L10 40L11 40L11 41L13 41L13 39L14 39L14 41L15 41L15 40L16 40L16 41L17 41L17 39L18 39L18 40L19 40L19 39L20 39L20 41L21 41L21 38L19 38L19 37L20 37L20 36L18 36L18 38L17 38L17 37L16 37L16 38L17 38L17 39L14 39L14 35L13 35L13 34L14 34L14 33L16 33L16 34L15 34L15 36L16 36L16 34L17 34L17 35L18 35L18 34L20 34L20 35L21 35L21 37L22 37L22 38L23 38L23 40L24 40L24 41L25 41L25 40L27 40L27 41L32 41L32 40L33 40L33 41L34 41L34 40L33 40L33 39L35 39L35 40L36 40L36 39L37 39L37 40L40 40L40 38L41 38L41 37L39 37L39 36L41 36L41 35L40 35L40 34L41 34L41 33L40 33L40 32L41 32L41 31L40 31L40 30L41 30L41 29L39 29L39 30L38 30L38 31L37 31L37 29L36 29L36 28L38 28L38 26L39 26L39 28L41 28L41 27L40 27L40 26L41 26L41 23L39 23L39 24L40 24L40 26L39 26L39 25L34 25L34 24L33 24L33 21L34 21L34 22L35 22L35 23L36 23L36 24L37 24L37 23L38 23L38 22L37 22L37 20L38 20L38 21L39 21L39 20L38 20L38 19L39 19L39 18L41 18L41 16L40 16L40 17L39 17L39 16L38 16L38 15L37 15L37 14L38 14L38 13L36 13L36 14L35 14L35 15L36 15L36 16L35 16L35 17L34 17L34 16L33 16L33 17L30 17L30 16L31 16L31 11L30 11L30 12L29 12L29 13L28 13L28 12L26 12L26 13L24 13L24 14L22 14L22 15L20 15L20 17L19 17L19 16L18 16L18 13L20 13L20 14L21 14L21 13L20 13L20 12L21 12L21 10L22 10L22 11L23 11L23 12L22 12L22 13L23 13L23 12L24 12L24 10L25 10L25 9L26 9L26 11L28 11L28 10L27 10L27 9L31 9L31 10L32 10L32 9L33 9L33 10L34 10L34 11L33 11L33 12L32 12L32 13L33 13L33 14L32 14L32 15L34 15L34 13L35 13L35 11L36 11L36 12L38 12L38 11L40 11L40 10L41 10L41 8L38 8L38 9L40 9L40 10L37 10L37 9L36 9L36 8L32 8L32 7L33 7L33 4L30 4L30 5L29 5L29 4L28 4L28 5L27 5L27 4L25 4L25 3L22 3L22 2L21 2L21 1L23 1L23 2L24 2L24 1L25 1L25 0L21 0L21 1L20 1L20 3L21 3L21 6L20 6L20 9L19 9L19 10L20 10L20 11L19 11L19 12L16 12L16 11L15 11L15 9L16 9L16 10L17 10L17 9L16 9L16 8L14 8L14 11L13 11L13 10L10 10L10 8L11 8L11 9L12 9L12 8L13 8L13 6L12 6L12 5L16 5L16 7L17 7L17 8L18 8L18 7L19 7L19 5L20 5L20 4L19 4L19 3L18 3L18 4L19 4L19 5L17 5L17 2L19 2L19 0L17 0L17 1L16 1L16 0L10 0L10 1L9 1L9 0ZM26 0L26 1L27 1L27 2L26 2L26 3L31 3L31 2L30 2L30 0L29 0L29 1L27 1L27 0ZM31 0L31 1L32 1L32 3L33 3L33 1L32 1L32 0ZM15 1L15 2L14 2L14 4L15 4L15 3L16 3L16 1ZM22 4L22 6L21 6L21 7L22 7L22 10L23 10L23 7L24 7L24 9L25 9L25 7L26 7L26 6L27 6L27 8L28 8L28 6L29 6L29 8L31 8L31 9L32 9L32 8L31 8L31 7L32 7L32 5L30 5L30 6L29 6L29 5L28 5L28 6L27 6L27 5L25 5L25 4ZM23 5L23 6L22 6L22 7L23 7L23 6L24 6L24 7L25 7L25 6L24 6L24 5ZM9 6L9 7L10 7L10 6ZM11 6L11 8L12 8L12 6ZM14 6L14 7L15 7L15 6ZM17 6L17 7L18 7L18 6ZM30 6L30 7L31 7L31 6ZM6 8L6 9L7 9L7 8ZM36 10L36 11L37 11L37 10ZM2 11L2 12L3 12L3 11ZM14 11L14 12L15 12L15 13L13 13L13 14L12 14L12 15L14 15L14 14L15 14L15 13L16 13L16 14L17 14L17 13L16 13L16 12L15 12L15 11ZM33 12L33 13L34 13L34 12ZM39 12L39 14L41 14L41 12ZM6 13L6 14L5 14L5 15L4 15L4 16L5 16L5 18L4 18L4 19L2 19L2 20L3 20L3 24L4 24L4 28L5 28L5 27L6 27L6 28L7 28L7 27L6 27L6 26L7 26L7 25L8 25L8 27L9 27L9 28L10 28L10 25L11 25L11 24L13 24L13 25L12 25L12 27L13 27L13 30L12 30L12 28L11 28L11 30L12 30L12 31L11 31L11 32L12 32L12 33L14 33L14 32L15 32L15 31L14 31L14 32L13 32L13 30L16 30L16 31L17 31L17 34L18 34L18 33L19 33L19 32L20 32L20 33L21 33L21 32L24 32L24 31L23 31L23 28L20 28L20 27L21 27L21 26L22 26L22 24L24 24L24 25L23 25L23 26L24 26L24 27L25 27L25 26L26 26L26 25L27 25L27 26L29 26L29 27L28 27L28 28L30 28L30 29L28 29L28 30L29 30L29 31L28 31L28 32L30 32L30 31L31 31L31 30L32 30L32 31L33 31L33 32L36 32L36 31L34 31L34 30L36 30L36 29L35 29L35 28L36 28L36 27L35 27L35 26L34 26L34 25L32 25L32 22L31 22L31 21L33 21L33 20L34 20L34 21L35 21L35 22L36 22L36 21L35 21L35 19L36 19L36 20L37 20L37 19L38 19L38 18L39 18L39 17L38 17L38 16L36 16L36 17L35 17L35 19L34 19L34 18L31 18L31 19L30 19L30 17L29 17L29 16L30 16L30 15L29 15L29 14L30 14L30 13L29 13L29 14L27 14L27 13L26 13L26 14L27 14L27 18L26 18L26 20L25 20L25 19L23 19L23 17L24 17L24 18L25 18L25 17L26 17L26 15L23 15L23 16L22 16L22 20L20 20L20 21L21 21L21 22L19 22L19 23L18 23L18 24L19 24L19 25L20 25L20 24L19 24L19 23L21 23L21 22L22 22L22 21L23 21L23 22L24 22L24 23L22 23L22 24L21 24L21 26L20 26L20 27L18 27L18 26L17 26L17 27L16 27L16 26L15 26L15 27L16 27L16 29L15 29L15 28L14 28L14 25L16 25L16 24L13 24L13 22L14 22L14 23L17 23L17 22L14 22L14 21L13 21L13 19L14 19L14 18L15 18L15 17L14 17L14 16L13 16L13 17L14 17L14 18L13 18L13 19L11 19L11 20L12 20L12 21L11 21L11 22L12 22L12 23L11 23L11 24L10 24L10 23L9 23L9 22L10 22L10 20L9 20L9 19L10 19L10 18L12 18L12 16L11 16L11 17L8 17L8 22L7 22L7 21L6 21L6 22L5 22L5 21L4 21L4 19L6 19L6 20L7 20L7 19L6 19L6 18L7 18L7 17L6 17L6 16L5 16L5 15L6 15L6 14L7 14L7 13ZM0 14L0 15L1 15L1 14ZM28 15L28 16L29 16L29 15ZM16 16L16 17L17 17L17 18L16 18L16 19L17 19L17 20L16 20L16 21L18 21L18 20L19 20L19 19L17 19L17 18L19 18L19 17L18 17L18 16ZM24 16L24 17L25 17L25 16ZM36 17L36 18L37 18L37 17ZM20 18L20 19L21 19L21 18ZM27 18L27 19L28 19L28 18ZM32 19L32 20L33 20L33 19ZM23 20L23 21L25 21L25 22L27 22L27 23L24 23L24 24L28 24L28 25L29 25L29 26L30 26L30 25L31 25L31 26L32 26L32 27L34 27L34 26L32 26L32 25L31 25L31 24L28 24L28 23L29 23L29 22L27 22L27 21L29 21L29 20L27 20L27 21L25 21L25 20ZM30 20L30 21L31 21L31 20ZM40 20L40 21L41 21L41 20ZM4 22L4 23L5 23L5 22ZM6 22L6 23L7 23L7 24L6 24L6 25L5 25L5 26L6 26L6 25L7 25L7 24L8 24L8 25L9 25L9 23L7 23L7 22ZM30 22L30 23L31 23L31 22ZM2 27L2 29L3 29L3 27ZM17 27L17 29L16 29L16 30L17 30L17 29L19 29L19 30L18 30L18 32L19 32L19 31L21 31L21 30L20 30L20 29L19 29L19 28L18 28L18 27ZM24 28L24 29L26 29L26 30L25 30L25 31L26 31L26 32L25 32L25 33L24 33L24 34L26 34L26 35L23 35L23 33L22 33L22 35L23 35L23 36L22 36L22 37L24 37L24 38L25 38L25 39L26 39L26 38L25 38L25 37L24 37L24 36L26 36L26 37L27 37L27 38L30 38L30 39L28 39L28 40L30 40L30 39L31 39L31 40L32 40L32 39L33 39L33 38L36 38L36 37L33 37L33 38L30 38L30 37L32 37L32 36L29 36L29 33L27 33L27 28ZM33 28L33 29L32 29L32 30L33 30L33 29L34 29L34 28ZM4 29L4 30L3 30L3 31L4 31L4 32L5 32L5 31L4 31L4 30L5 30L5 29ZM30 29L30 30L31 30L31 29ZM6 31L6 32L7 32L7 31ZM38 31L38 32L37 32L37 34L38 34L38 36L37 36L37 37L38 37L38 36L39 36L39 33L38 33L38 32L40 32L40 31ZM8 33L8 34L10 34L10 33ZM26 33L26 34L27 34L27 36L28 36L28 37L29 37L29 36L28 36L28 34L27 34L27 33ZM30 33L30 35L31 35L31 34L32 34L32 33ZM33 33L33 36L36 36L36 33ZM34 34L34 35L35 35L35 34ZM12 35L12 36L10 36L10 37L9 37L9 39L13 39L13 37L12 37L12 36L13 36L13 35ZM10 37L10 38L12 38L12 37ZM18 38L18 39L19 39L19 38ZM37 38L37 39L38 39L38 38ZM0 0L0 7L7 7L7 0ZM1 1L1 6L6 6L6 1ZM2 2L2 5L5 5L5 2ZM34 0L34 7L41 7L41 0ZM35 1L35 6L40 6L40 1ZM36 2L36 5L39 5L39 2ZM0 34L0 41L7 41L7 34ZM1 35L1 40L6 40L6 35ZM2 36L2 39L5 39L5 36Z" fill="#000000"/></g></g></svg>
