<?xml version="1.0" encoding="UTF-8"?>
<svg xmlns="http://www.w3.org/2000/svg" version="1.1" width="200" height="200" viewBox="0 0 200 200"><rect x="0" y="0" width="200" height="200" fill="#ffffff"/><g transform="scale(6.897)"><g transform="translate(0,0)"><path fill-rule="evenodd" d="M8 0L8 3L10 3L10 4L9 4L9 5L8 5L8 9L7 9L7 8L6 8L6 9L7 9L7 10L5 10L5 11L4 11L4 12L3 12L3 10L2 10L2 9L5 9L5 8L2 8L2 9L1 9L1 11L2 11L2 13L0 13L0 15L2 15L2 16L1 16L1 17L0 17L0 21L1 21L1 17L3 17L3 18L2 18L2 20L4 20L4 19L3 19L3 18L4 18L4 17L5 17L5 19L7 19L7 18L8 18L8 20L5 20L5 21L8 21L8 22L9 22L9 24L8 24L8 27L10 27L10 28L11 28L11 29L13 29L13 28L15 28L15 29L19 29L19 28L20 28L20 26L21 26L21 28L22 28L22 27L23 27L23 29L25 29L25 28L26 28L26 29L28 29L28 28L29 28L29 27L28 27L28 25L29 25L29 24L28 24L28 23L27 23L27 22L28 22L28 21L29 21L29 20L28 20L28 19L29 19L29 18L28 18L28 19L26 19L26 18L27 18L27 17L28 17L28 10L29 10L29 8L26 8L26 9L27 9L27 10L25 10L25 9L24 9L24 8L21 8L21 5L20 5L20 4L21 4L21 2L20 2L20 1L21 1L21 0L20 0L20 1L19 1L19 0L18 0L18 2L19 2L19 3L18 3L18 7L19 7L19 8L18 8L18 9L16 9L16 11L17 11L17 12L15 12L15 9L14 9L14 8L17 8L17 6L16 6L16 7L15 7L15 6L14 6L14 7L13 7L13 6L12 6L12 7L13 7L13 9L12 9L12 8L9 8L9 5L10 5L10 4L12 4L12 2L13 2L13 3L14 3L14 5L15 5L15 2L16 2L16 3L17 3L17 2L16 2L16 1L17 1L17 0L15 0L15 2L13 2L13 1L14 1L14 0L13 0L13 1L12 1L12 0L11 0L11 1L10 1L10 0ZM10 6L10 7L11 7L11 6ZM19 6L19 7L20 7L20 6ZM11 9L11 10L7 10L7 11L6 11L6 12L8 12L8 13L10 13L10 11L12 11L12 12L11 12L11 13L12 13L12 14L8 14L8 15L11 15L11 16L10 16L10 17L9 17L9 16L7 16L7 15L6 15L6 16L5 16L5 15L4 15L4 14L3 14L3 13L2 13L2 14L3 14L3 17L4 17L4 16L5 16L5 17L6 17L6 18L7 18L7 17L9 17L9 18L10 18L10 19L11 19L11 20L9 20L9 21L11 21L11 23L10 23L10 24L11 24L11 23L12 23L12 24L13 24L13 22L14 22L14 23L15 23L15 24L14 24L14 25L13 25L13 27L11 27L11 26L10 26L10 25L9 25L9 26L10 26L10 27L11 27L11 28L13 28L13 27L17 27L17 26L14 26L14 25L15 25L15 24L16 24L16 23L15 23L15 22L16 22L16 21L17 21L17 22L19 22L19 23L17 23L17 24L19 24L19 25L20 25L20 21L19 21L19 20L18 20L18 19L19 19L19 18L20 18L20 19L21 19L21 18L20 18L20 17L22 17L22 19L23 19L23 20L25 20L25 21L26 21L26 22L25 22L25 24L26 24L26 25L25 25L25 26L24 26L24 25L22 25L22 26L23 26L23 27L26 27L26 26L27 26L27 23L26 23L26 22L27 22L27 21L28 21L28 20L26 20L26 19L24 19L24 18L25 18L25 16L27 16L27 15L25 15L25 16L24 16L24 13L23 13L23 12L24 12L24 9L22 9L22 10L21 10L21 9L18 9L18 10L19 10L19 13L18 13L18 12L17 12L17 14L19 14L19 18L18 18L18 15L17 15L17 17L15 17L15 18L14 18L14 16L15 16L15 15L16 15L16 13L15 13L15 12L14 12L14 13L12 13L12 12L13 12L13 11L14 11L14 10L13 10L13 11L12 11L12 9ZM20 10L20 11L21 11L21 10ZM8 11L8 12L9 12L9 11ZM22 11L22 12L23 12L23 11ZM25 12L25 13L26 13L26 14L27 14L27 12ZM5 13L5 14L7 14L7 13ZM21 13L21 14L22 14L22 15L21 15L21 16L22 16L22 17L23 17L23 18L24 18L24 17L23 17L23 13ZM13 14L13 15L12 15L12 16L11 16L11 19L12 19L12 18L13 18L13 19L14 19L14 18L13 18L13 15L14 15L14 14ZM6 16L6 17L7 17L7 16ZM15 18L15 20L13 20L13 21L12 21L12 22L13 22L13 21L14 21L14 22L15 22L15 20L16 20L16 19L17 19L17 18ZM17 20L17 21L18 21L18 20ZM21 21L21 24L24 24L24 21ZM22 22L22 23L23 23L23 22ZM0 0L0 7L7 7L7 0ZM1 1L1 6L6 6L6 1ZM2 2L2 5L5 5L5 2ZM22 0L22 7L29 7L29 0ZM23 1L23 6L28 6L28 1ZM24 2L24 5L27 5L27 2ZM0 22L0 29L7 29L7 22ZM1 23L1 28L6 28L6 23ZM2 24L2 27L5 27L5 24Z" fill="#000000"/></g></g></svg>
