<?xml version="1.0" encoding="UTF-8"?>
<svg xmlns="http://www.w3.org/2000/svg" version="1.1" width="200" height="200" viewBox="0 0 200 200"><rect x="0" y="0" width="200" height="200" fill="#ffffff"/><g transform="scale(6.897)"><g transform="translate(0,0)"><path fill-rule="evenodd" d="M9 0L9 3L10 3L10 4L11 4L11 5L10 5L10 7L9 7L9 6L8 6L8 8L6 8L6 9L5 9L5 10L4 10L4 11L3 11L3 9L4 9L4 8L2 8L2 9L0 9L0 11L1 11L1 13L2 13L2 14L0 14L0 15L1 15L1 16L0 16L0 17L3 17L3 16L4 16L4 15L3 15L3 13L2 13L2 11L3 11L3 12L4 12L4 14L6 14L6 15L5 15L5 16L6 16L6 17L7 17L7 16L8 16L8 15L11 15L11 16L10 16L10 17L11 17L11 18L12 18L12 19L11 19L11 20L12 20L12 19L14 19L14 20L15 20L15 21L12 21L12 22L11 22L11 21L10 21L10 22L9 22L9 21L8 21L8 23L10 23L10 22L11 22L11 24L9 24L9 25L8 25L8 27L10 27L10 28L9 28L9 29L10 29L10 28L11 28L11 29L12 29L12 28L14 28L14 29L15 29L15 27L17 27L17 28L16 28L16 29L17 29L17 28L18 28L18 27L17 27L17 26L13 26L13 27L12 27L12 25L14 25L14 24L15 24L15 23L19 23L19 24L18 24L18 26L19 26L19 25L20 25L20 27L21 27L21 25L23 25L23 26L24 26L24 27L22 27L22 29L23 29L23 28L26 28L26 27L25 27L25 26L24 26L24 25L26 25L26 26L27 26L27 25L26 25L26 23L25 23L25 22L26 22L26 18L29 18L29 17L26 17L26 16L25 16L25 15L24 15L24 16L23 16L23 17L21 17L21 18L20 18L20 17L19 17L19 15L20 15L20 14L21 14L21 13L20 13L20 12L22 12L22 9L23 9L23 13L22 13L22 15L23 15L23 14L24 14L24 13L25 13L25 14L26 14L26 15L27 15L27 16L28 16L28 15L29 15L29 14L28 14L28 12L29 12L29 11L28 11L28 12L27 12L27 10L29 10L29 9L25 9L25 8L24 8L24 9L23 9L23 8L21 8L21 3L20 3L20 2L18 2L18 1L16 1L16 0L14 0L14 1L13 1L13 2L11 2L11 1L12 1L12 0ZM15 1L15 2L13 2L13 3L11 3L11 4L13 4L13 5L12 5L12 6L11 6L11 8L10 8L10 9L11 9L11 10L10 10L10 11L11 11L11 12L13 12L13 13L10 13L10 12L9 12L9 11L8 11L8 10L9 10L9 9L8 9L8 10L7 10L7 9L6 9L6 10L5 10L5 13L6 13L6 14L7 14L7 15L6 15L6 16L7 16L7 15L8 15L8 14L9 14L9 13L10 13L10 14L13 14L13 16L11 16L11 17L12 17L12 18L16 18L16 16L17 16L17 13L18 13L18 15L19 15L19 14L20 14L20 13L19 13L19 12L20 12L20 11L18 11L18 8L19 8L19 10L20 10L20 9L21 9L21 8L19 8L19 7L20 7L20 5L19 5L19 4L20 4L20 3L19 3L19 4L18 4L18 2L17 2L17 4L16 4L16 1ZM14 3L14 5L13 5L13 6L12 6L12 9L13 9L13 10L11 10L11 11L13 11L13 12L14 12L14 13L13 13L13 14L14 14L14 13L15 13L15 15L16 15L16 12L17 12L17 11L16 11L16 12L15 12L15 11L14 11L14 10L15 10L15 8L17 8L17 6L18 6L18 7L19 7L19 5L16 5L16 4L15 4L15 3ZM8 4L8 5L9 5L9 4ZM13 6L13 7L14 7L14 8L15 8L15 7L16 7L16 6L15 6L15 7L14 7L14 6ZM16 9L16 10L17 10L17 9ZM24 9L24 10L25 10L25 9ZM1 10L1 11L2 11L2 10ZM6 10L6 11L7 11L7 12L6 12L6 13L7 13L7 14L8 14L8 13L7 13L7 12L8 12L8 11L7 11L7 10ZM25 11L25 13L27 13L27 12L26 12L26 11ZM2 15L2 16L3 16L3 15ZM13 16L13 17L14 17L14 16ZM24 16L24 17L23 17L23 18L22 18L22 19L21 19L21 20L22 20L22 19L24 19L24 18L26 18L26 17L25 17L25 16ZM4 17L4 18L5 18L5 19L4 19L4 20L3 20L3 21L4 21L4 20L5 20L5 21L7 21L7 20L8 20L8 19L9 19L9 20L10 20L10 19L9 19L9 17L8 17L8 18L5 18L5 17ZM17 17L17 19L19 19L19 20L17 20L17 21L16 21L16 22L20 22L20 21L19 21L19 20L20 20L20 18L19 18L19 17ZM0 18L0 19L1 19L1 18ZM6 19L6 20L7 20L7 19ZM15 19L15 20L16 20L16 19ZM1 20L1 21L2 21L2 20ZM27 20L27 21L28 21L28 22L27 22L27 24L29 24L29 23L28 23L28 22L29 22L29 21L28 21L28 20ZM21 21L21 24L24 24L24 21ZM12 22L12 24L11 24L11 25L9 25L9 26L10 26L10 27L11 27L11 28L12 28L12 27L11 27L11 25L12 25L12 24L14 24L14 23L15 23L15 22ZM22 22L22 23L23 23L23 22ZM16 24L16 25L17 25L17 24ZM28 26L28 27L27 27L27 28L29 28L29 26ZM19 28L19 29L20 29L20 28ZM0 0L0 7L7 7L7 0ZM1 1L1 6L6 6L6 1ZM2 2L2 5L5 5L5 2ZM22 0L22 7L29 7L29 0ZM23 1L23 6L28 6L28 1ZM24 2L24 5L27 5L27 2ZM0 22L0 29L7 29L7 22ZM1 23L1 28L6 28L6 23ZM2 24L2 27L5 27L5 24Z" fill="#000000"/></g></g></svg>
