<?xml version="1.0" encoding="UTF-8"?>
<svg xmlns="http://www.w3.org/2000/svg" version="1.1" width="200" height="200" viewBox="0 0 200 200"><rect x="0" y="0" width="200" height="200" fill="#ffffff"/><g transform="scale(4.878)"><g transform="translate(0,0)"><path fill-rule="evenodd" d="M8 0L8 3L10 3L10 2L9 2L9 1L12 1L12 3L11 3L11 4L9 4L9 5L8 5L8 9L7 9L7 8L6 8L6 9L7 9L7 10L5 10L5 8L2 8L2 9L3 9L3 10L2 10L2 11L0 11L0 16L1 16L1 17L0 17L0 18L1 18L1 17L2 17L2 18L4 18L4 19L3 19L3 20L1 20L1 19L0 19L0 20L1 20L1 22L0 22L0 24L2 24L2 25L0 25L0 27L1 27L1 26L2 26L2 28L1 28L1 29L0 29L0 33L1 33L1 30L3 30L3 29L4 29L4 32L2 32L2 33L8 33L8 34L9 34L9 36L8 36L8 39L9 39L9 41L11 41L11 40L12 40L12 41L14 41L14 40L15 40L15 41L17 41L17 39L18 39L18 41L19 41L19 40L21 40L21 41L22 41L22 40L21 40L21 39L23 39L23 40L24 40L24 41L25 41L25 39L23 39L23 38L21 38L21 39L19 39L19 38L20 38L20 37L21 37L21 36L22 36L22 37L24 37L24 38L25 38L25 37L24 37L24 36L22 36L22 35L26 35L26 40L28 40L28 39L30 39L30 38L29 38L29 37L28 37L28 36L29 36L29 35L28 35L28 34L27 34L27 33L26 33L26 34L23 34L23 32L24 32L24 33L25 33L25 30L29 30L29 31L28 31L28 33L31 33L31 31L30 31L30 30L29 30L29 29L31 29L31 28L29 28L29 29L28 29L28 28L27 28L27 27L28 27L28 26L26 26L26 25L29 25L29 26L30 26L30 25L31 25L31 26L32 26L32 29L33 29L33 30L32 30L32 31L33 31L33 30L34 30L34 31L35 31L35 32L32 32L32 34L30 34L30 35L31 35L31 36L30 36L30 37L31 37L31 40L33 40L33 41L34 41L34 40L33 40L33 39L32 39L32 37L33 37L33 38L34 38L34 39L35 39L35 40L36 40L36 39L37 39L37 36L38 36L38 37L39 37L39 38L38 38L38 39L39 39L39 40L40 40L40 38L41 38L41 37L39 37L39 36L38 36L38 33L39 33L39 35L40 35L40 36L41 36L41 35L40 35L40 34L41 34L41 33L40 33L40 32L41 32L41 31L40 31L40 30L41 30L41 29L40 29L40 28L39 28L39 31L40 31L40 32L38 32L38 31L37 31L37 30L38 30L38 29L36 29L36 28L38 28L38 26L39 26L39 27L40 27L40 26L41 26L41 23L40 23L40 26L39 26L39 24L37 24L37 25L36 25L36 23L34 23L34 22L36 22L36 21L39 21L39 20L36 20L36 19L35 19L35 17L36 17L36 18L37 18L37 17L36 17L36 16L38 16L38 17L39 17L39 18L41 18L41 16L40 16L40 17L39 17L39 16L38 16L38 15L40 15L40 14L41 14L41 13L40 13L40 10L41 10L41 8L38 8L38 9L40 9L40 10L37 10L37 9L36 9L36 8L33 8L33 6L32 6L32 7L31 7L31 5L33 5L33 4L31 4L31 3L30 3L30 4L31 4L31 5L29 5L29 6L28 6L28 5L27 5L27 6L26 6L26 7L25 7L25 6L24 6L24 5L26 5L26 4L27 4L27 3L28 3L28 4L29 4L29 1L27 1L27 0L23 0L23 2L22 2L22 1L20 1L20 0L18 0L18 1L20 1L20 3L19 3L19 2L17 2L17 4L16 4L16 1L17 1L17 0L16 0L16 1L14 1L14 0ZM31 0L31 1L30 1L30 2L31 2L31 1L32 1L32 0ZM13 1L13 3L14 3L14 1ZM23 2L23 3L24 3L24 2ZM26 2L26 3L25 3L25 4L26 4L26 3L27 3L27 2ZM20 3L20 4L21 4L21 3ZM11 4L11 5L13 5L13 8L11 8L11 7L12 7L12 6L11 6L11 7L10 7L10 6L9 6L9 7L10 7L10 8L9 8L9 9L8 9L8 10L7 10L7 11L6 11L6 12L4 12L4 11L5 11L5 10L4 10L4 11L2 11L2 14L1 14L1 15L2 15L2 17L3 17L3 16L8 16L8 15L9 15L9 17L8 17L8 19L9 19L9 20L7 20L7 19L6 19L6 20L5 20L5 19L4 19L4 20L3 20L3 21L2 21L2 22L4 22L4 23L5 23L5 26L7 26L7 25L6 25L6 24L7 24L7 23L5 23L5 22L9 22L9 23L8 23L8 26L9 26L9 25L10 25L10 26L13 26L13 27L12 27L12 28L10 28L10 27L9 27L9 28L8 28L8 27L5 27L5 28L4 28L4 26L3 26L3 28L2 28L2 29L3 29L3 28L4 28L4 29L5 29L5 31L6 31L6 32L7 32L7 31L6 31L6 30L7 30L7 29L5 29L5 28L8 28L8 29L12 29L12 28L13 28L13 29L15 29L15 30L14 30L14 31L13 31L13 30L11 30L11 31L10 31L10 30L8 30L8 31L10 31L10 32L11 32L11 33L9 33L9 34L11 34L11 33L12 33L12 35L11 35L11 36L9 36L9 39L10 39L10 40L11 40L11 39L13 39L13 38L12 38L12 37L13 37L13 36L14 36L14 34L17 34L17 35L15 35L15 36L17 36L17 35L20 35L20 36L18 36L18 37L20 37L20 36L21 36L21 35L22 35L22 33L21 33L21 30L25 30L25 29L23 29L23 28L25 28L25 27L26 27L26 26L25 26L25 25L26 25L26 24L23 24L23 25L21 25L21 24L19 24L19 23L22 23L22 22L24 22L24 20L23 20L23 19L22 19L22 18L21 18L21 16L20 16L20 14L19 14L19 11L18 11L18 13L17 13L17 11L16 11L16 12L15 12L15 10L17 10L17 9L16 9L16 8L17 8L17 7L18 7L18 6L17 6L17 7L16 7L16 4L15 4L15 5L13 5L13 4ZM23 4L23 5L19 5L19 9L18 9L18 10L20 10L20 11L22 11L22 13L21 13L21 15L22 15L22 17L23 17L23 15L25 15L25 16L24 16L24 19L25 19L25 20L27 20L27 19L26 19L26 18L28 18L28 19L29 19L29 16L31 16L31 15L30 15L30 14L29 14L29 13L28 13L28 14L29 14L29 15L28 15L28 17L27 17L27 15L25 15L25 14L24 14L24 13L26 13L26 14L27 14L27 11L26 11L26 10L29 10L29 12L31 12L31 14L32 14L32 15L33 15L33 16L34 16L34 17L35 17L35 16L36 16L36 15L35 15L35 14L36 14L36 13L37 13L37 14L40 14L40 13L39 13L39 11L38 11L38 12L37 12L37 11L36 11L36 10L34 10L34 11L33 11L33 9L32 9L32 8L31 8L31 9L27 9L27 7L28 7L28 6L27 6L27 7L26 7L26 9L25 9L25 11L24 11L24 10L23 10L23 9L22 9L22 8L21 8L21 7L22 7L22 6L23 6L23 8L24 8L24 6L23 6L23 5L24 5L24 4ZM14 6L14 8L13 8L13 10L11 10L11 12L10 12L10 11L9 11L9 12L10 12L10 13L9 13L9 14L10 14L10 17L9 17L9 18L10 18L10 17L13 17L13 16L14 16L14 17L15 17L15 18L17 18L17 19L15 19L15 20L13 20L13 19L14 19L14 18L11 18L11 19L10 19L10 20L11 20L11 21L12 21L12 22L10 22L10 23L11 23L11 25L12 25L12 23L13 23L13 24L15 24L15 27L13 27L13 28L15 28L15 29L16 29L16 30L17 30L17 31L14 31L14 32L13 32L13 31L12 31L12 33L13 33L13 34L14 34L14 33L16 33L16 32L17 32L17 31L20 31L20 30L21 30L21 29L22 29L22 28L21 28L21 25L18 25L18 24L17 24L17 26L16 26L16 23L19 23L19 22L20 22L20 21L17 21L17 20L18 20L18 18L19 18L19 19L21 19L21 22L22 22L22 19L21 19L21 18L19 18L19 16L18 16L18 15L19 15L19 14L17 14L17 13L16 13L16 14L17 14L17 15L15 15L15 14L14 14L14 15L12 15L12 14L13 14L13 13L15 13L15 12L13 12L13 13L12 13L12 11L14 11L14 9L15 9L15 6ZM20 6L20 7L21 7L21 6ZM29 6L29 8L30 8L30 6ZM10 8L10 9L11 9L11 8ZM0 9L0 10L1 10L1 9ZM20 9L20 10L22 10L22 11L23 11L23 10L22 10L22 9ZM31 9L31 10L32 10L32 9ZM25 11L25 12L26 12L26 11ZM31 11L31 12L32 12L32 11ZM3 12L3 14L2 14L2 15L3 15L3 14L4 14L4 15L5 15L5 14L4 14L4 12ZM6 12L6 13L7 13L7 14L6 14L6 15L7 15L7 14L8 14L8 13L7 13L7 12ZM23 12L23 13L24 13L24 12ZM33 12L33 13L32 13L32 14L33 14L33 15L34 15L34 14L33 14L33 13L34 13L34 12ZM10 13L10 14L11 14L11 13ZM22 14L22 15L23 15L23 14ZM11 15L11 16L12 16L12 15ZM17 16L17 17L18 17L18 16ZM6 17L6 18L7 18L7 17ZM25 17L25 18L26 18L26 17ZM30 17L30 19L31 19L31 20L29 20L29 21L26 21L26 22L25 22L25 23L27 23L27 24L30 24L30 23L27 23L27 22L30 22L30 21L32 21L32 22L31 22L31 25L32 25L32 26L33 26L33 27L34 27L34 25L35 25L35 27L36 27L36 25L35 25L35 24L34 24L34 25L32 25L32 24L33 24L33 23L32 23L32 22L34 22L34 21L36 21L36 20L35 20L35 19L34 19L34 18L33 18L33 17L32 17L32 18L31 18L31 17ZM32 18L32 21L34 21L34 20L33 20L33 18ZM11 19L11 20L12 20L12 21L13 21L13 22L14 22L14 23L16 23L16 22L17 22L17 21L16 21L16 22L15 22L15 21L13 21L13 20L12 20L12 19ZM4 20L4 22L5 22L5 20ZM6 20L6 21L7 21L7 20ZM40 20L40 21L41 21L41 20ZM3 24L3 25L4 25L4 24ZM13 25L13 26L14 26L14 25ZM23 25L23 26L22 26L22 27L23 27L23 26L24 26L24 25ZM19 26L19 27L20 27L20 26ZM15 27L15 28L16 28L16 27ZM17 28L17 30L18 30L18 29L21 29L21 28ZM33 28L33 29L34 29L34 30L36 30L36 29L34 29L34 28ZM22 31L22 32L23 32L23 31ZM29 31L29 32L30 32L30 31ZM19 32L19 33L18 33L18 34L21 34L21 33L20 33L20 32ZM37 32L37 33L38 33L38 32ZM33 33L33 36L36 36L36 33ZM26 34L26 35L27 35L27 34ZM34 34L34 35L35 35L35 34ZM11 36L11 37L10 37L10 39L11 39L11 37L12 37L12 36ZM31 36L31 37L32 37L32 36ZM14 37L14 39L15 39L15 40L16 40L16 38L17 38L17 37ZM27 37L27 38L28 38L28 37ZM34 37L34 38L36 38L36 37ZM29 40L29 41L30 41L30 40ZM0 0L0 7L7 7L7 0ZM1 1L1 6L6 6L6 1ZM2 2L2 5L5 5L5 2ZM34 0L34 7L41 7L41 0ZM35 1L35 6L40 6L40 1ZM36 2L36 5L39 5L39 2ZM0 34L0 41L7 41L7 34ZM1 35L1 40L6 40L6 35ZM2 36L2 39L5 39L5 36Z" fill="#000000"/></g></g></svg>
