<?xml version="1.0" encoding="UTF-8"?>
<svg xmlns="http://www.w3.org/2000/svg" version="1.1" width="200" height="200" viewBox="0 0 200 200"><rect x="0" y="0" width="200" height="200" fill="#ffffff"/><g transform="scale(4.878)"><g transform="translate(0,0)"><path fill-rule="evenodd" d="M8 0L8 3L9 3L9 5L8 5L8 9L7 9L7 8L6 8L6 9L5 9L5 8L2 8L2 9L0 9L0 10L3 10L3 12L4 12L4 10L6 10L6 11L5 11L5 13L1 13L1 12L0 12L0 16L1 16L1 17L0 17L0 22L1 22L1 23L0 23L0 26L1 26L1 27L3 27L3 26L4 26L4 25L8 25L8 27L7 27L7 26L5 26L5 27L4 27L4 28L3 28L3 29L4 29L4 30L2 30L2 32L3 32L3 31L4 31L4 32L5 32L5 33L7 33L7 32L5 32L5 31L7 31L7 30L5 30L5 29L7 29L7 28L9 28L9 25L8 25L8 24L6 24L6 23L8 23L8 22L10 22L10 21L9 21L9 20L8 20L8 19L9 19L9 18L10 18L10 20L12 20L12 21L11 21L11 22L13 22L13 21L14 21L14 22L16 22L16 21L19 21L19 20L20 20L20 22L18 22L18 23L13 23L13 24L16 24L16 26L14 26L14 25L11 25L11 24L10 24L10 23L9 23L9 24L10 24L10 25L11 25L11 26L10 26L10 29L11 29L11 30L9 30L9 31L8 31L8 32L9 32L9 33L8 33L8 34L9 34L9 35L10 35L10 32L12 32L12 33L14 33L14 34L15 34L15 32L13 32L13 31L11 31L11 30L14 30L14 31L16 31L16 32L17 32L17 31L16 31L16 29L18 29L18 32L19 32L19 33L20 33L20 35L21 35L21 36L20 36L20 38L18 38L18 41L19 41L19 39L20 39L20 41L22 41L22 40L23 40L23 37L25 37L25 36L26 36L26 34L25 34L25 33L26 33L26 30L25 30L25 29L24 29L24 28L25 28L25 27L26 27L26 28L27 28L27 33L28 33L28 34L27 34L27 37L29 37L29 38L30 38L30 40L29 40L29 41L30 41L30 40L33 40L33 41L34 41L34 40L33 40L33 39L32 39L32 37L33 37L33 38L34 38L34 39L35 39L35 40L36 40L36 39L37 39L37 40L40 40L40 38L41 38L41 37L40 37L40 36L38 36L38 35L37 35L37 34L38 34L38 33L39 33L39 35L40 35L40 34L41 34L41 33L39 33L39 32L41 32L41 31L40 31L40 30L41 30L41 29L39 29L39 32L38 32L38 31L36 31L36 30L38 30L38 29L35 29L35 30L34 30L34 31L36 31L36 32L33 32L33 31L32 31L32 30L33 30L33 29L34 29L34 28L33 28L33 29L32 29L32 30L31 30L31 29L30 29L30 28L29 28L29 27L28 27L28 26L30 26L30 25L31 25L31 26L32 26L32 27L31 27L31 28L32 28L32 27L34 27L34 26L36 26L36 27L35 27L35 28L38 28L38 26L39 26L39 27L40 27L40 26L41 26L41 23L39 23L39 24L40 24L40 26L39 26L39 25L33 25L33 24L32 24L32 23L34 23L34 22L35 22L35 23L36 23L36 24L37 24L37 21L39 21L39 20L36 20L36 19L35 19L35 17L36 17L36 18L37 18L37 19L39 19L39 18L41 18L41 16L40 16L40 17L39 17L39 16L37 16L37 14L38 14L38 15L40 15L40 14L41 14L41 13L40 13L40 12L41 12L41 11L40 11L40 10L41 10L41 8L38 8L38 9L40 9L40 10L37 10L37 9L36 9L36 8L33 8L33 9L31 9L31 6L30 6L30 5L32 5L32 4L33 4L33 3L31 3L31 2L30 2L30 0L29 0L29 1L27 1L27 0L26 0L26 1L27 1L27 2L26 2L26 3L31 3L31 4L30 4L30 5L29 5L29 4L28 4L28 5L27 5L27 4L26 4L26 5L25 5L25 4L24 4L24 5L25 5L25 6L24 6L24 7L25 7L25 6L26 6L26 7L27 7L27 9L31 9L31 10L30 10L30 12L29 12L29 13L28 13L28 12L27 12L27 11L29 11L29 10L26 10L26 8L24 8L24 10L23 10L23 5L22 5L22 4L21 4L21 3L20 3L20 2L22 2L22 1L23 1L23 0L22 0L22 1L21 1L21 0L16 0L16 1L15 1L15 0L14 0L14 1L15 1L15 2L13 2L13 1L12 1L12 0L10 0L10 1L12 1L12 4L11 4L11 3L10 3L10 2L9 2L9 0ZM24 0L24 1L25 1L25 0ZM31 0L31 1L32 1L32 0ZM17 1L17 2L18 2L18 3L19 3L19 4L18 4L18 5L19 5L19 8L17 8L17 10L16 10L16 9L15 9L15 10L14 10L14 11L15 11L15 12L13 12L13 13L12 13L12 12L11 12L11 11L10 11L10 12L11 12L11 13L12 13L12 14L10 14L10 13L9 13L9 11L8 11L8 13L9 13L9 14L10 14L10 15L9 15L9 16L12 16L12 17L11 17L11 18L13 18L13 16L14 16L14 17L15 17L15 18L14 18L14 19L13 19L13 20L16 20L16 19L17 19L17 20L19 20L19 19L22 19L22 18L24 18L24 19L23 19L23 20L21 20L21 21L23 21L23 22L24 22L24 25L21 25L21 23L22 23L22 22L20 22L20 23L18 23L18 24L17 24L17 26L16 26L16 28L18 28L18 27L19 27L19 26L18 26L18 25L21 25L21 26L20 26L20 27L21 27L21 28L19 28L19 29L23 29L23 28L24 28L24 27L25 27L25 26L26 26L26 25L25 25L25 24L26 24L26 22L28 22L28 21L29 21L29 24L28 24L28 25L27 25L27 26L28 26L28 25L29 25L29 24L30 24L30 23L32 23L32 22L34 22L34 21L35 21L35 22L36 22L36 21L35 21L35 19L34 19L34 18L33 18L33 17L32 17L32 16L34 16L34 17L35 17L35 15L36 15L36 13L38 13L38 14L40 14L40 13L39 13L39 12L40 12L40 11L38 11L38 12L36 12L36 11L37 11L37 10L35 10L35 13L34 13L34 12L33 12L33 11L34 11L34 10L33 10L33 11L32 11L32 10L31 10L31 11L32 11L32 12L31 12L31 14L30 14L30 13L29 13L29 14L26 14L26 17L27 17L27 18L28 18L28 19L26 19L26 18L25 18L25 16L24 16L24 14L23 14L23 12L22 12L22 10L21 10L21 9L20 9L20 8L22 8L22 6L21 6L21 7L20 7L20 5L21 5L21 4L20 4L20 3L19 3L19 2L20 2L20 1ZM15 2L15 4L14 4L14 6L13 6L13 7L12 7L12 5L11 5L11 4L10 4L10 5L11 5L11 7L10 7L10 6L9 6L9 7L10 7L10 8L12 8L12 9L10 9L10 10L12 10L12 9L13 9L13 7L14 7L14 8L16 8L16 5L17 5L17 3L16 3L16 2ZM24 2L24 3L25 3L25 2ZM14 6L14 7L15 7L15 6ZM17 6L17 7L18 7L18 6ZM27 6L27 7L28 7L28 8L30 8L30 6L29 6L29 7L28 7L28 6ZM32 6L32 7L33 7L33 6ZM6 9L6 10L7 10L7 9ZM8 9L8 10L9 10L9 9ZM15 10L15 11L16 11L16 10ZM19 10L19 12L18 12L18 13L17 13L17 12L15 12L15 13L14 13L14 16L15 16L15 17L16 17L16 18L15 18L15 19L16 19L16 18L18 18L18 16L19 16L19 15L20 15L20 17L22 17L22 16L23 16L23 17L24 17L24 16L23 16L23 15L22 15L22 14L21 14L21 13L22 13L22 12L21 12L21 13L19 13L19 12L20 12L20 11L21 11L21 10ZM25 10L25 11L24 11L24 13L27 13L27 12L25 12L25 11L26 11L26 10ZM6 11L6 12L7 12L7 11ZM32 12L32 13L33 13L33 14L32 14L32 15L34 15L34 13L33 13L33 12ZM6 13L6 14L5 14L5 15L1 15L1 16L2 16L2 18L3 18L3 16L4 16L4 19L3 19L3 20L1 20L1 21L2 21L2 23L1 23L1 26L3 26L3 23L4 23L4 22L5 22L5 23L6 23L6 22L7 22L7 21L6 21L6 20L7 20L7 19L6 19L6 20L5 20L5 17L6 17L6 18L8 18L8 17L6 17L6 16L8 16L8 15L6 15L6 14L7 14L7 13ZM15 13L15 14L17 14L17 15L16 15L16 17L17 17L17 16L18 16L18 15L19 15L19 14L17 14L17 13ZM12 14L12 15L13 15L13 14ZM20 14L20 15L21 15L21 16L22 16L22 15L21 15L21 14ZM29 14L29 15L28 15L28 16L29 16L29 17L31 17L31 18L30 18L30 19L31 19L31 18L32 18L32 17L31 17L31 16L29 16L29 15L30 15L30 14ZM36 16L36 17L37 17L37 18L39 18L39 17L37 17L37 16ZM25 19L25 20L26 20L26 21L28 21L28 20L29 20L29 19L28 19L28 20L26 20L26 19ZM32 19L32 21L31 21L31 20L30 20L30 21L31 21L31 22L32 22L32 21L34 21L34 20L33 20L33 19ZM3 20L3 22L4 22L4 20ZM40 20L40 21L41 21L41 20ZM5 21L5 22L6 22L6 21ZM24 21L24 22L25 22L25 21ZM31 24L31 25L32 25L32 26L33 26L33 25L32 25L32 24ZM24 25L24 26L22 26L22 28L23 28L23 27L24 27L24 26L25 26L25 25ZM12 26L12 27L11 27L11 29L12 29L12 27L14 27L14 30L15 30L15 27L14 27L14 26ZM5 27L5 28L7 28L7 27ZM27 27L27 28L28 28L28 27ZM0 28L0 33L1 33L1 29L2 29L2 28ZM28 29L28 30L29 30L29 31L28 31L28 33L29 33L29 32L31 32L31 31L30 31L30 29ZM20 30L20 31L21 31L21 32L22 32L22 33L21 33L21 35L24 35L24 31L25 31L25 30ZM9 31L9 32L10 32L10 31ZM22 31L22 32L23 32L23 31ZM37 32L37 33L38 33L38 32ZM30 33L30 35L31 35L31 34L32 34L32 33ZM33 33L33 36L36 36L36 33ZM16 34L16 36L13 36L13 38L12 38L12 37L11 37L11 36L12 36L12 35L11 35L11 36L8 36L8 39L9 39L9 40L10 40L10 41L12 41L12 39L13 39L13 40L15 40L15 39L16 39L16 40L17 40L17 38L15 38L15 37L16 37L16 36L18 36L18 35L19 35L19 34L18 34L18 35L17 35L17 34ZM28 34L28 36L29 36L29 37L32 37L32 36L29 36L29 34ZM34 34L34 35L35 35L35 34ZM21 36L21 38L20 38L20 39L21 39L21 40L22 40L22 39L21 39L21 38L22 38L22 37L23 37L23 36ZM37 36L37 37L38 37L38 36ZM9 37L9 39L10 39L10 38L11 38L11 39L12 39L12 38L11 38L11 37ZM34 37L34 38L36 38L36 37ZM24 38L24 40L25 40L25 41L26 41L26 40L25 40L25 39L28 39L28 38ZM37 38L37 39L38 39L38 38ZM27 40L27 41L28 41L28 40ZM0 0L0 7L7 7L7 0ZM1 1L1 6L6 6L6 1ZM2 2L2 5L5 5L5 2ZM34 0L34 7L41 7L41 0ZM35 1L35 6L40 6L40 1ZM36 2L36 5L39 5L39 2ZM0 34L0 41L7 41L7 34ZM1 35L1 40L6 40L6 35ZM2 36L2 39L5 39L5 36Z" fill="#000000"/></g></g></svg>
