<?xml version="1.0" encoding="UTF-8"?>
<svg xmlns="http://www.w3.org/2000/svg" version="1.1" width="200" height="200" viewBox="0 0 200 200"><rect x="0" y="0" width="200" height="200" fill="#ffffff"/><g transform="scale(6.897)"><g transform="translate(0,0)"><path fill-rule="evenodd" d="M11 0L11 1L14 1L14 0ZM16 0L16 1L18 1L18 0ZM19 0L19 1L20 1L20 2L19 2L19 3L20 3L20 5L14 5L14 3L15 3L15 2L12 2L12 4L11 4L11 2L10 2L10 1L8 1L8 7L9 7L9 8L5 8L5 9L4 9L4 11L5 11L5 9L9 9L9 10L6 10L6 11L9 11L9 12L10 12L10 13L9 13L9 14L6 14L6 13L7 13L7 12L3 12L3 10L2 10L2 11L1 11L1 9L0 9L0 13L1 13L1 14L0 14L0 15L2 15L2 16L1 16L1 17L2 17L2 18L0 18L0 19L2 19L2 20L0 20L0 21L3 21L3 17L2 17L2 16L5 16L5 17L4 17L4 18L6 18L6 19L7 19L7 20L6 20L6 21L7 21L7 20L8 20L8 24L9 24L9 25L10 25L10 26L8 26L8 27L11 27L11 25L10 25L10 24L12 24L12 27L15 27L15 28L17 28L17 29L18 29L18 28L19 28L19 26L20 26L20 27L21 27L21 29L22 29L22 28L24 28L24 29L25 29L25 28L26 28L26 27L25 27L25 28L24 28L24 26L23 26L23 27L22 27L22 26L21 26L21 25L25 25L25 23L26 23L26 21L27 21L27 23L28 23L28 22L29 22L29 21L27 21L27 19L26 19L26 18L28 18L28 19L29 19L29 18L28 18L28 17L29 17L29 16L27 16L27 17L25 17L25 16L22 16L22 15L25 15L25 14L26 14L26 13L27 13L27 15L29 15L29 14L28 14L28 13L29 13L29 12L27 12L27 11L29 11L29 9L28 9L28 8L23 8L23 10L22 10L22 11L21 11L21 9L22 9L22 8L21 8L21 0ZM9 2L9 4L10 4L10 6L9 6L9 7L10 7L10 8L11 8L11 9L10 9L10 10L9 10L9 11L10 11L10 12L11 12L11 13L10 13L10 15L9 15L9 16L11 16L11 15L13 15L13 16L15 16L15 14L16 14L16 12L17 12L17 14L22 14L22 12L21 12L21 13L20 13L20 12L19 12L19 13L18 13L18 12L17 12L17 11L16 11L16 10L15 10L15 9L16 9L16 8L17 8L17 7L18 7L18 9L17 9L17 10L18 10L18 11L20 11L20 9L19 9L19 7L20 7L20 6L19 6L19 7L18 7L18 6L17 6L17 7L16 7L16 6L15 6L15 7L14 7L14 5L13 5L13 4L12 4L12 5L13 5L13 7L14 7L14 8L12 8L12 6L11 6L11 4L10 4L10 2ZM16 2L16 4L17 4L17 3L18 3L18 2ZM10 6L10 7L11 7L11 6ZM2 8L2 9L3 9L3 8ZM25 9L25 10L24 10L24 11L27 11L27 10L28 10L28 9ZM11 10L11 11L13 11L13 12L12 12L12 13L11 13L11 14L12 14L12 13L13 13L13 14L15 14L15 13L14 13L14 12L15 12L15 11L14 11L14 10ZM23 12L23 14L25 14L25 13L24 13L24 12ZM2 14L2 15L3 15L3 14ZM4 14L4 15L6 15L6 16L7 16L7 17L6 17L6 18L7 18L7 19L8 19L8 18L9 18L9 24L10 24L10 23L12 23L12 24L13 24L13 25L14 25L14 26L16 26L16 27L18 27L18 25L19 25L19 24L20 24L20 23L19 23L19 24L18 24L18 22L20 22L20 21L18 21L18 20L22 20L22 19L21 19L21 15L17 15L17 17L16 17L16 18L17 18L17 19L18 19L18 20L16 20L16 21L15 21L15 19L14 19L14 20L13 20L13 19L12 19L12 22L10 22L10 20L11 20L11 19L10 19L10 17L8 17L8 15L6 15L6 14ZM19 16L19 17L18 17L18 18L19 18L19 19L20 19L20 18L19 18L19 17L20 17L20 16ZM11 17L11 18L12 18L12 17ZM22 17L22 18L25 18L25 17ZM4 19L4 20L5 20L5 19ZM23 19L23 20L24 20L24 19ZM25 19L25 20L26 20L26 19ZM16 21L16 22L15 22L15 23L14 23L14 22L12 22L12 23L13 23L13 24L14 24L14 25L15 25L15 24L16 24L16 26L17 26L17 23L16 23L16 22L17 22L17 21ZM21 21L21 24L24 24L24 21ZM22 22L22 23L23 23L23 22ZM26 24L26 26L27 26L27 27L28 27L28 28L27 28L27 29L29 29L29 26L27 26L27 25L29 25L29 24ZM0 0L0 7L7 7L7 0ZM1 1L1 6L6 6L6 1ZM2 2L2 5L5 5L5 2ZM22 0L22 7L29 7L29 0ZM23 1L23 6L28 6L28 1ZM24 2L24 5L27 5L27 2ZM0 22L0 29L7 29L7 22ZM1 23L1 28L6 28L6 23ZM2 24L2 27L5 27L5 24Z" fill="#000000"/></g></g></svg>
