<?xml version="1.0" encoding="UTF-8"?>
<svg xmlns="http://www.w3.org/2000/svg" version="1.1" width="200" height="200" viewBox="0 0 200 200"><rect x="0" y="0" width="200" height="200" fill="#ffffff"/><g transform="scale(4.878)"><g transform="translate(0,0)"><path fill-rule="evenodd" d="M8 0L8 3L9 3L9 5L8 5L8 9L7 9L7 8L6 8L6 9L7 9L7 10L4 10L4 9L5 9L5 8L2 8L2 9L3 9L3 10L1 10L1 9L0 9L0 13L1 13L1 11L3 11L3 13L4 13L4 14L3 14L3 15L2 15L2 16L0 16L0 18L1 18L1 19L3 19L3 18L2 18L2 16L3 16L3 17L8 17L8 18L10 18L10 19L7 19L7 18L6 18L6 19L5 19L5 20L3 20L3 22L2 22L2 20L1 20L1 22L2 22L2 23L5 23L5 24L3 24L3 25L2 25L2 24L1 24L1 23L0 23L0 25L2 25L2 26L0 26L0 27L1 27L1 28L0 28L0 33L1 33L1 30L2 30L2 32L3 32L3 33L8 33L8 34L10 34L10 33L11 33L11 34L12 34L12 33L14 33L14 34L13 34L13 36L11 36L11 35L10 35L10 40L9 40L9 41L11 41L11 40L14 40L14 39L12 39L12 38L14 38L14 36L15 36L15 35L16 35L16 33L15 33L15 32L12 32L12 31L15 31L15 30L16 30L16 32L17 32L17 36L16 36L16 37L15 37L15 39L16 39L16 41L23 41L23 40L24 40L24 41L26 41L26 40L25 40L25 38L27 38L27 39L28 39L28 38L27 38L27 36L28 36L28 37L29 37L29 36L31 36L31 35L32 35L32 37L33 37L33 38L34 38L34 39L35 39L35 40L36 40L36 39L37 39L37 40L40 40L40 38L41 38L41 37L39 37L39 36L41 36L41 35L40 35L40 34L41 34L41 33L39 33L39 32L37 32L37 30L38 30L38 29L36 29L36 28L35 28L35 29L36 29L36 31L35 31L35 30L34 30L34 31L35 31L35 32L33 32L33 31L32 31L32 30L33 30L33 29L34 29L34 28L33 28L33 27L34 27L34 26L35 26L35 25L36 25L36 27L37 27L37 28L38 28L38 26L39 26L39 28L41 28L41 27L40 27L40 26L41 26L41 23L39 23L39 24L40 24L40 26L39 26L39 25L36 25L36 24L37 24L37 23L38 23L38 22L37 22L37 20L38 20L38 21L39 21L39 20L38 20L38 19L39 19L39 18L41 18L41 16L40 16L40 17L39 17L39 16L37 16L37 17L36 17L36 16L35 16L35 17L34 17L34 16L32 16L32 17L31 17L31 16L29 16L29 15L30 15L30 14L31 14L31 12L32 12L32 13L33 13L33 14L32 14L32 15L34 15L34 13L35 13L35 9L36 9L36 11L37 11L37 12L38 12L38 11L40 11L40 10L41 10L41 8L38 8L38 9L40 9L40 10L37 10L37 9L36 9L36 8L33 8L33 6L32 6L32 7L31 7L31 5L32 5L32 4L33 4L33 3L32 3L32 4L30 4L30 5L27 5L27 4L26 4L26 7L25 7L25 5L23 5L23 3L22 3L22 7L21 7L21 5L20 5L20 4L19 4L19 5L20 5L20 7L21 7L21 8L19 8L19 6L18 6L18 5L16 5L16 7L15 7L15 6L14 6L14 7L15 7L15 8L13 8L13 6L12 6L12 5L11 5L11 1L12 1L12 3L13 3L13 4L15 4L15 3L14 3L14 2L16 2L16 3L21 3L21 2L22 2L22 1L24 1L24 0L22 0L22 1L21 1L21 2L20 2L20 0L18 0L18 2L16 2L16 1L15 1L15 0L14 0L14 1L13 1L13 0L11 0L11 1L10 1L10 0ZM26 0L26 1L27 1L27 2L26 2L26 3L28 3L28 4L29 4L29 3L31 3L31 2L30 2L30 0L29 0L29 1L27 1L27 0ZM31 0L31 1L32 1L32 2L33 2L33 1L32 1L32 0ZM24 2L24 3L25 3L25 2ZM10 5L10 6L9 6L9 7L10 7L10 6L11 6L11 8L12 8L12 6L11 6L11 5ZM17 6L17 7L16 7L16 9L15 9L15 10L14 10L14 9L12 9L12 10L13 10L13 11L15 11L15 10L16 10L16 11L17 11L17 10L20 10L20 11L18 11L18 12L17 12L17 13L16 13L16 12L15 12L15 13L14 13L14 12L12 12L12 11L10 11L10 10L11 10L11 9L9 9L9 10L7 10L7 11L6 11L6 12L5 12L5 13L6 13L6 14L4 14L4 15L3 15L3 16L4 16L4 15L5 15L5 16L7 16L7 15L8 15L8 14L9 14L9 12L10 12L10 13L11 13L11 15L13 15L13 17L12 17L12 18L11 18L11 16L10 16L10 18L11 18L11 19L10 19L10 20L8 20L8 21L6 21L6 20L7 20L7 19L6 19L6 20L5 20L5 21L4 21L4 22L5 22L5 21L6 21L6 22L7 22L7 23L6 23L6 24L5 24L5 25L3 25L3 26L2 26L2 28L1 28L1 29L2 29L2 28L3 28L3 29L4 29L4 30L3 30L3 32L5 32L5 31L4 31L4 30L5 30L5 29L6 29L6 30L7 30L7 31L6 31L6 32L8 32L8 33L9 33L9 32L11 32L11 30L15 30L15 29L16 29L16 30L17 30L17 32L18 32L18 33L20 33L20 37L18 37L18 36L19 36L19 34L18 34L18 36L17 36L17 37L16 37L16 38L17 38L17 37L18 37L18 39L17 39L17 40L18 40L18 39L20 39L20 40L22 40L22 38L23 38L23 37L24 37L24 38L25 38L25 36L26 36L26 35L25 35L25 36L24 36L24 32L27 32L27 28L30 28L30 29L28 29L28 30L30 30L30 31L28 31L28 32L30 32L30 31L31 31L31 30L32 30L32 29L33 29L33 28L32 28L32 26L29 26L29 27L26 27L26 28L25 28L25 26L22 26L22 28L23 28L23 27L24 27L24 29L25 29L25 30L24 30L24 32L23 32L23 30L22 30L22 31L21 31L21 29L20 29L20 27L18 27L18 26L21 26L21 25L23 25L23 23L24 23L24 22L23 22L23 23L22 23L22 21L23 21L23 20L24 20L24 19L25 19L25 17L20 17L20 15L22 15L22 16L26 16L26 15L27 15L27 18L26 18L26 21L25 21L25 22L26 22L26 23L25 23L25 24L27 24L27 25L26 25L26 26L28 26L28 25L29 25L29 24L30 24L30 25L35 25L35 24L36 24L36 23L35 23L35 22L36 22L36 21L35 21L35 19L36 19L36 20L37 20L37 19L38 19L38 18L39 18L39 17L38 17L38 18L36 18L36 17L35 17L35 19L34 19L34 18L33 18L33 17L32 17L32 18L31 18L31 17L29 17L29 16L28 16L28 15L29 15L29 14L30 14L30 13L29 13L29 12L31 12L31 11L32 11L32 12L33 12L33 13L34 13L34 12L33 12L33 11L34 11L34 9L33 9L33 8L31 8L31 7L30 7L30 6L29 6L29 7L28 7L28 6L27 6L27 7L26 7L26 9L27 9L27 10L22 10L22 8L21 8L21 10L20 10L20 9L18 9L18 8L17 8L17 7L18 7L18 6ZM23 6L23 7L24 7L24 6ZM23 8L23 9L24 9L24 8ZM27 8L27 9L31 9L31 10L27 10L27 11L31 11L31 10L32 10L32 11L33 11L33 9L31 9L31 8ZM16 9L16 10L17 10L17 9ZM21 10L21 11L20 11L20 12L21 12L21 13L19 13L19 14L18 14L18 13L17 13L17 14L16 14L16 13L15 13L15 14L14 14L14 13L12 13L12 12L11 12L11 13L12 13L12 14L13 14L13 15L18 15L18 16L17 16L17 18L16 18L16 17L15 17L15 19L11 19L11 20L10 20L10 23L9 23L9 21L8 21L8 23L7 23L7 24L6 24L6 25L7 25L7 26L4 26L4 29L5 29L5 27L7 27L7 28L6 28L6 29L7 29L7 30L8 30L8 31L10 31L10 30L11 30L11 29L12 29L12 28L11 28L11 27L13 27L13 29L15 29L15 28L16 28L16 29L17 29L17 28L18 28L18 27L17 27L17 26L18 26L18 22L20 22L20 23L21 23L21 22L20 22L20 21L22 21L22 20L23 20L23 18L20 18L20 17L18 17L18 16L19 16L19 15L20 15L20 14L22 14L22 15L26 15L26 14L29 14L29 13L28 13L28 12L27 12L27 13L26 13L26 11L25 11L25 13L24 13L24 11L22 11L22 10ZM7 11L7 12L6 12L6 13L7 13L7 14L6 14L6 15L7 15L7 14L8 14L8 11ZM22 12L22 13L23 13L23 12ZM39 12L39 14L41 14L41 13L40 13L40 12ZM25 13L25 14L26 14L26 13ZM36 13L36 15L38 15L38 14L37 14L37 13ZM0 14L0 15L1 15L1 14ZM13 17L13 18L14 18L14 17ZM17 18L17 19L15 19L15 20L14 20L14 21L12 21L12 20L11 20L11 24L10 24L10 26L12 26L12 25L15 25L15 27L14 27L14 26L13 26L13 27L14 27L14 28L15 28L15 27L16 27L16 25L15 25L15 24L16 24L16 23L15 23L15 22L16 22L16 21L17 21L17 22L18 22L18 18ZM27 18L27 19L28 19L28 18ZM30 18L30 19L31 19L31 20L30 20L30 21L31 21L31 22L29 22L29 21L28 21L28 20L27 20L27 21L28 21L28 22L27 22L27 24L28 24L28 23L31 23L31 24L33 24L33 23L31 23L31 22L32 22L32 21L34 21L34 22L35 22L35 21L34 21L34 20L33 20L33 18L32 18L32 19L31 19L31 18ZM21 19L21 20L22 20L22 19ZM31 20L31 21L32 21L32 20ZM40 20L40 21L41 21L41 20ZM13 22L13 24L15 24L15 23L14 23L14 22ZM7 24L7 25L8 25L8 26L7 26L7 27L8 27L8 26L9 26L9 24ZM11 24L11 25L12 25L12 24ZM19 24L19 25L21 25L21 24ZM8 28L8 29L10 29L10 28ZM18 29L18 32L20 32L20 30L19 30L19 29ZM30 29L30 30L31 30L31 29ZM39 29L39 31L40 31L40 30L41 30L41 29ZM25 30L25 31L26 31L26 30ZM21 32L21 33L22 33L22 35L23 35L23 32ZM26 33L26 34L29 34L29 33ZM30 33L30 35L31 35L31 33ZM33 33L33 36L36 36L36 33ZM37 33L37 34L38 34L38 35L37 35L37 36L39 36L39 33ZM34 34L34 35L35 35L35 34ZM28 35L28 36L29 36L29 35ZM8 36L8 39L9 39L9 36ZM30 37L30 38L29 38L29 39L30 39L30 40L27 40L27 41L32 41L32 40L33 40L33 41L34 41L34 40L33 40L33 39L32 39L32 38L31 38L31 37ZM34 37L34 38L36 38L36 37ZM30 38L30 39L31 39L31 40L32 40L32 39L31 39L31 38ZM37 38L37 39L38 39L38 38ZM0 0L0 7L7 7L7 0ZM1 1L1 6L6 6L6 1ZM2 2L2 5L5 5L5 2ZM34 0L34 7L41 7L41 0ZM35 1L35 6L40 6L40 1ZM36 2L36 5L39 5L39 2ZM0 34L0 41L7 41L7 34ZM1 35L1 40L6 40L6 35ZM2 36L2 39L5 39L5 36Z" fill="#000000"/></g></g></svg>
