<?xml version="1.0" encoding="UTF-8"?>
<svg xmlns="http://www.w3.org/2000/svg" version="1.1" width="200" height="200" viewBox="0 0 200 200"><rect x="0" y="0" width="200" height="200" fill="#ffffff"/><g transform="scale(4.878)"><g transform="translate(0,0)"><path fill-rule="evenodd" d="M8 0L8 3L9 3L9 5L8 5L8 9L7 9L7 8L6 8L6 9L5 9L5 8L2 8L2 9L5 9L5 11L7 11L7 12L5 12L5 16L3 16L3 15L1 15L1 14L0 14L0 17L1 17L1 18L0 18L0 20L1 20L1 21L0 21L0 24L1 24L1 25L2 25L2 24L1 24L1 23L2 23L2 22L1 22L1 21L3 21L3 24L4 24L4 21L3 21L3 20L6 20L6 21L5 21L5 23L7 23L7 22L6 22L6 21L8 21L8 20L6 20L6 19L9 19L9 17L10 17L10 16L11 16L11 18L10 18L10 19L11 19L11 20L12 20L12 19L13 19L13 18L14 18L14 20L15 20L15 21L14 21L14 25L13 25L13 24L11 24L11 25L10 25L10 23L12 23L12 22L13 22L13 21L11 21L11 22L10 22L10 21L9 21L9 22L8 22L8 24L9 24L9 25L10 25L10 26L12 26L12 25L13 25L13 27L10 27L10 28L8 28L8 26L5 26L5 25L7 25L7 24L5 24L5 25L3 25L3 27L2 27L2 28L1 28L1 26L0 26L0 28L1 28L1 29L0 29L0 33L1 33L1 30L2 30L2 31L3 31L3 32L4 32L4 31L5 31L5 33L7 33L7 32L8 32L8 34L9 34L9 33L10 33L10 32L11 32L11 31L10 31L10 30L8 30L8 29L12 29L12 30L13 30L13 27L14 27L14 29L15 29L15 27L17 27L17 31L15 31L15 30L14 30L14 31L15 31L15 32L13 32L13 31L12 31L12 32L13 32L13 37L12 37L12 36L11 36L11 37L12 37L12 38L11 38L11 39L10 39L10 40L9 40L9 41L12 41L12 40L13 40L13 41L16 41L16 40L17 40L17 41L19 41L19 40L21 40L21 39L20 39L20 38L21 38L21 37L22 37L22 40L23 40L23 41L25 41L25 40L23 40L23 37L24 37L24 38L26 38L26 39L28 39L28 38L29 38L29 37L28 37L28 36L31 36L31 35L32 35L32 37L30 37L30 39L31 39L31 40L26 40L26 41L31 41L31 40L33 40L33 41L34 41L34 40L33 40L33 39L35 39L35 40L36 40L36 39L37 39L37 40L40 40L40 38L41 38L41 37L40 37L40 36L41 36L41 35L40 35L40 34L41 34L41 33L39 33L39 32L41 32L41 31L40 31L40 30L41 30L41 28L39 28L39 30L38 30L38 31L36 31L36 30L37 30L37 29L36 29L36 28L38 28L38 26L39 26L39 27L40 27L40 26L41 26L41 23L39 23L39 24L40 24L40 26L39 26L39 25L36 25L36 24L37 24L37 21L38 21L38 22L39 22L39 20L36 20L36 19L35 19L35 17L36 17L36 18L37 18L37 17L39 17L39 16L37 16L37 13L36 13L36 15L35 15L35 17L34 17L34 16L33 16L33 17L31 17L31 16L29 16L29 15L31 15L31 13L33 13L33 14L32 14L32 15L34 15L34 13L35 13L35 11L36 11L36 12L38 12L38 11L39 11L39 13L38 13L38 14L41 14L41 12L40 12L40 10L41 10L41 8L38 8L38 9L40 9L40 10L37 10L37 9L36 9L36 8L32 8L32 7L33 7L33 6L32 6L32 7L31 7L31 6L30 6L30 7L31 7L31 8L29 8L29 9L28 9L28 8L27 8L27 6L28 6L28 7L29 7L29 6L28 6L28 5L27 5L27 4L25 4L25 5L26 5L26 9L25 9L25 8L24 8L24 9L23 9L23 11L22 11L22 9L21 9L21 8L23 8L23 6L22 6L22 5L24 5L24 3L25 3L25 0L24 0L24 2L23 2L23 0L22 0L22 2L23 2L23 3L20 3L20 2L21 2L21 1L19 1L19 0L18 0L18 1L19 1L19 3L20 3L20 4L19 4L19 6L18 6L18 7L17 7L17 6L16 6L16 5L15 5L15 6L14 6L14 5L13 5L13 4L14 4L14 3L16 3L16 2L17 2L17 0L15 0L15 1L14 1L14 3L13 3L13 2L12 2L12 1L11 1L11 2L10 2L10 3L9 3L9 1L10 1L10 0ZM26 0L26 1L27 1L27 2L26 2L26 3L28 3L28 4L29 4L29 3L33 3L33 2L30 2L30 0L29 0L29 1L27 1L27 0ZM31 0L31 1L32 1L32 0ZM11 4L11 5L10 5L10 6L9 6L9 7L10 7L10 8L9 8L9 10L12 10L12 9L13 9L13 10L16 10L16 11L15 11L15 14L14 14L14 13L12 13L12 14L11 14L11 13L10 13L10 12L12 12L12 11L8 11L8 13L6 13L6 14L9 14L9 13L10 13L10 14L11 14L11 15L12 15L12 16L13 16L13 17L12 17L12 18L11 18L11 19L12 19L12 18L13 18L13 17L14 17L14 16L15 16L15 17L17 17L17 20L16 20L16 19L15 19L15 20L16 20L16 21L15 21L15 22L16 22L16 23L20 23L20 29L22 29L22 30L21 30L21 32L22 32L22 33L20 33L20 34L17 34L17 32L18 32L18 33L19 33L19 32L20 32L20 30L19 30L19 28L18 28L18 31L17 31L17 32L16 32L16 34L17 34L17 36L18 36L18 37L19 37L19 36L18 36L18 35L20 35L20 37L21 37L21 36L22 36L22 35L23 35L23 34L26 34L26 32L27 32L27 31L26 31L26 30L27 30L27 26L28 26L28 25L29 25L29 24L30 24L30 23L31 23L31 25L30 25L30 26L29 26L29 27L28 27L28 28L30 28L30 29L28 29L28 30L29 30L29 31L28 31L28 33L27 33L27 34L28 34L28 33L29 33L29 32L31 32L31 30L32 30L32 31L33 31L33 32L36 32L36 31L34 31L34 30L36 30L36 29L35 29L35 28L36 28L36 27L37 27L37 26L36 26L36 25L35 25L35 24L36 24L36 23L35 23L35 22L36 22L36 21L35 21L35 19L34 19L34 18L33 18L33 20L31 20L31 19L32 19L32 18L31 18L31 17L29 17L29 16L28 16L28 15L29 15L29 14L30 14L30 13L29 13L29 12L30 12L30 11L31 11L31 12L33 12L33 13L34 13L34 12L33 12L33 11L34 11L34 9L32 9L32 8L31 8L31 9L29 9L29 11L25 11L25 13L26 13L26 12L28 12L28 13L29 13L29 14L27 14L27 15L26 15L26 14L25 14L25 16L24 16L24 17L25 17L25 16L26 16L26 17L27 17L27 18L25 18L25 19L24 19L24 18L22 18L22 19L20 19L20 17L22 17L22 16L23 16L23 15L24 15L24 13L23 13L23 12L22 12L22 11L21 11L21 10L19 10L19 9L20 9L20 8L18 8L18 9L17 9L17 7L16 7L16 6L15 6L15 7L14 7L14 6L13 6L13 5L12 5L12 4ZM20 4L20 5L22 5L22 4ZM30 4L30 5L33 5L33 4ZM11 5L11 6L10 6L10 7L11 7L11 8L10 8L10 9L12 9L12 8L14 8L14 7L13 7L13 6L12 6L12 5ZM11 6L11 7L12 7L12 6ZM19 6L19 7L20 7L20 6ZM21 6L21 7L22 7L22 6ZM24 6L24 7L25 7L25 6ZM15 7L15 9L16 9L16 10L17 10L17 9L16 9L16 7ZM6 9L6 10L7 10L7 9ZM24 9L24 10L25 10L25 9ZM26 9L26 10L28 10L28 9ZM31 9L31 10L32 10L32 11L33 11L33 10L32 10L32 9ZM35 9L35 10L36 10L36 9ZM0 10L0 11L4 11L4 10ZM17 11L17 13L20 13L20 15L19 15L19 14L17 14L17 17L18 17L18 18L19 18L19 17L18 17L18 15L19 15L19 16L20 16L20 15L21 15L21 13L22 13L22 12L21 12L21 11L19 11L19 12L18 12L18 11ZM0 12L0 13L1 13L1 12ZM2 12L2 14L3 14L3 13L4 13L4 12ZM20 12L20 13L21 13L21 12ZM12 14L12 15L13 15L13 16L14 16L14 15L13 15L13 14ZM6 15L6 16L7 16L7 17L5 17L5 18L4 18L4 17L3 17L3 16L1 16L1 17L3 17L3 18L2 18L2 19L1 19L1 20L2 20L2 19L5 19L5 18L8 18L8 17L9 17L9 16L10 16L10 15ZM15 15L15 16L16 16L16 15ZM36 16L36 17L37 17L37 16ZM40 16L40 18L38 18L38 19L40 19L40 18L41 18L41 16ZM27 18L27 19L26 19L26 20L24 20L24 19L22 19L22 20L18 20L18 21L17 21L17 22L19 22L19 21L21 21L21 22L20 22L20 23L21 23L21 22L23 22L23 26L21 26L21 28L22 28L22 27L23 27L23 28L25 28L25 29L24 29L24 30L22 30L22 32L23 32L23 31L24 31L24 30L25 30L25 29L26 29L26 25L28 25L28 24L29 24L29 23L28 23L28 22L29 22L29 21L28 21L28 19L29 19L29 18ZM30 18L30 19L31 19L31 18ZM22 20L22 21L23 21L23 22L24 22L24 23L25 23L25 24L24 24L24 26L25 26L25 24L27 24L27 22L28 22L28 21L27 21L27 20L26 20L26 21L25 21L25 22L24 22L24 21L23 21L23 20ZM30 20L30 21L31 21L31 22L33 22L33 21L34 21L34 22L35 22L35 21L34 21L34 20L33 20L33 21L31 21L31 20ZM40 20L40 21L41 21L41 20ZM17 24L17 25L16 25L16 26L18 26L18 24ZM21 24L21 25L22 25L22 24ZM32 24L32 25L31 25L31 26L32 26L32 25L34 25L34 26L33 26L33 27L34 27L34 26L35 26L35 27L36 27L36 26L35 26L35 25L34 25L34 24ZM4 27L4 29L5 29L5 27ZM6 27L6 28L7 28L7 29L6 29L6 30L7 30L7 29L8 29L8 28L7 28L7 27ZM31 27L31 28L32 28L32 27ZM2 28L2 29L3 29L3 28ZM33 28L33 29L32 29L32 30L33 30L33 29L34 29L34 28ZM30 29L30 30L31 30L31 29ZM6 31L6 32L7 32L7 31ZM18 31L18 32L19 32L19 31ZM25 31L25 32L24 32L24 33L25 33L25 32L26 32L26 31ZM38 31L38 32L37 32L37 36L40 36L40 35L38 35L38 34L39 34L39 33L38 33L38 32L39 32L39 31ZM11 33L11 34L10 34L10 35L11 35L11 34L12 34L12 33ZM14 33L14 34L15 34L15 33ZM30 33L30 35L31 35L31 33ZM33 33L33 36L36 36L36 33ZM20 34L20 35L22 35L22 34ZM34 34L34 35L35 35L35 34ZM15 35L15 36L14 36L14 37L15 37L15 38L13 38L13 39L15 39L15 40L16 40L16 38L17 38L17 37L15 37L15 36L16 36L16 35ZM24 35L24 36L25 36L25 35ZM26 35L26 36L28 36L28 35ZM8 36L8 39L9 39L9 38L10 38L10 37L9 37L9 36ZM26 37L26 38L28 38L28 37ZM32 37L32 39L33 39L33 38L36 38L36 37ZM18 38L18 39L17 39L17 40L19 40L19 38ZM37 38L37 39L38 39L38 38ZM11 39L11 40L12 40L12 39ZM0 0L0 7L7 7L7 0ZM1 1L1 6L6 6L6 1ZM2 2L2 5L5 5L5 2ZM34 0L34 7L41 7L41 0ZM35 1L35 6L40 6L40 1ZM36 2L36 5L39 5L39 2ZM0 34L0 41L7 41L7 34ZM1 35L1 40L6 40L6 35ZM2 36L2 39L5 39L5 36Z" fill="#000000"/></g></g></svg>
