<?xml version="1.0" encoding="UTF-8"?>
<svg xmlns="http://www.w3.org/2000/svg" version="1.1" width="200" height="200" viewBox="0 0 200 200"><rect x="0" y="0" width="200" height="200" fill="#ffffff"/><g transform="scale(4.878)"><g transform="translate(0,0)"><path fill-rule="evenodd" d="M8 0L8 3L9 3L9 1L12 1L12 0ZM13 0L13 2L12 2L12 4L15 4L15 5L12 5L12 7L13 7L13 8L12 8L12 10L13 10L13 14L12 14L12 15L10 15L10 14L11 14L11 13L12 13L12 12L11 12L11 10L8 10L8 11L7 11L7 10L6 10L6 9L7 9L7 8L6 8L6 9L5 9L5 8L2 8L2 9L5 9L5 10L6 10L6 11L7 11L7 12L6 12L6 13L7 13L7 14L5 14L5 11L4 11L4 14L3 14L3 13L2 13L2 12L3 12L3 10L2 10L2 12L1 12L1 11L0 11L0 15L1 15L1 16L0 16L0 20L1 20L1 21L3 21L3 22L0 22L0 28L1 28L1 26L2 26L2 27L4 27L4 28L5 28L5 27L4 27L4 26L2 26L2 25L5 25L5 26L6 26L6 27L7 27L7 28L6 28L6 29L3 29L3 30L2 30L2 33L4 33L4 32L5 32L5 31L4 31L4 30L6 30L6 31L7 31L7 30L8 30L8 34L9 34L9 33L11 33L11 32L14 32L14 31L13 31L13 30L14 30L14 28L13 28L13 27L14 27L14 26L15 26L15 27L17 27L17 28L16 28L16 29L15 29L15 33L14 33L14 34L15 34L15 35L14 35L14 36L13 36L13 33L12 33L12 34L10 34L10 35L11 35L11 36L10 36L10 38L9 38L9 36L8 36L8 39L10 39L10 40L9 40L9 41L10 41L10 40L11 40L11 41L12 41L12 40L14 40L14 41L15 41L15 40L16 40L16 41L20 41L20 40L21 40L21 38L20 38L20 37L18 37L18 34L20 34L20 35L19 35L19 36L23 36L23 34L22 34L22 33L21 33L21 32L20 32L20 33L19 33L19 29L18 29L18 30L17 30L17 28L18 28L18 27L19 27L19 28L20 28L20 27L21 27L21 28L22 28L22 29L20 29L20 31L23 31L23 29L25 29L25 31L24 31L24 32L25 32L25 33L29 33L29 34L27 34L27 35L26 35L26 34L25 34L25 35L24 35L24 36L27 36L27 37L23 37L23 38L22 38L22 39L24 39L24 41L26 41L26 40L27 40L27 41L28 41L28 39L29 39L29 38L27 38L27 37L29 37L29 36L31 36L31 35L32 35L32 38L33 38L33 39L31 39L31 37L30 37L30 39L31 39L31 40L33 40L33 41L34 41L34 40L33 40L33 39L35 39L35 40L36 40L36 39L37 39L37 40L40 40L40 38L41 38L41 37L39 37L39 36L41 36L41 35L40 35L40 34L41 34L41 33L39 33L39 32L33 32L33 31L32 31L32 30L33 30L33 29L34 29L34 28L33 28L33 27L34 27L34 26L37 26L37 27L35 27L35 29L36 29L36 30L34 30L34 31L37 31L37 30L38 30L38 31L40 31L40 30L41 30L41 29L40 29L40 28L41 28L41 27L40 27L40 26L41 26L41 23L39 23L39 24L40 24L40 26L39 26L39 25L34 25L34 24L35 24L35 23L36 23L36 24L37 24L37 23L38 23L38 22L37 22L37 21L39 21L39 20L36 20L36 19L35 19L35 17L36 17L36 18L37 18L37 19L38 19L38 17L39 17L39 18L41 18L41 16L40 16L40 17L39 17L39 16L37 16L37 17L36 17L36 16L35 16L35 17L34 17L34 16L32 16L32 17L30 17L30 16L29 16L29 15L31 15L31 12L32 12L32 13L33 13L33 14L32 14L32 15L34 15L34 13L35 13L35 11L36 11L36 12L38 12L38 11L40 11L40 12L39 12L39 13L40 13L40 14L38 14L38 13L36 13L36 14L35 14L35 15L37 15L37 14L38 14L38 15L40 15L40 14L41 14L41 13L40 13L40 12L41 12L41 11L40 11L40 10L41 10L41 8L38 8L38 9L40 9L40 10L37 10L37 9L36 9L36 8L33 8L33 9L31 9L31 8L32 8L32 7L33 7L33 6L32 6L32 7L31 7L31 5L33 5L33 4L30 4L30 7L31 7L31 8L29 8L29 4L28 4L28 5L27 5L27 4L24 4L24 3L25 3L25 2L24 2L24 3L23 3L23 2L22 2L22 0L21 0L21 1L20 1L20 0L17 0L17 1L18 1L18 3L17 3L17 2L15 2L15 3L13 3L13 2L14 2L14 1L15 1L15 0ZM24 0L24 1L25 1L25 0ZM26 0L26 1L27 1L27 2L26 2L26 3L32 3L32 2L30 2L30 1L33 1L33 0L29 0L29 1L27 1L27 0ZM20 2L20 3L19 3L19 4L16 4L16 3L15 3L15 4L16 4L16 6L15 6L15 7L14 7L14 6L13 6L13 7L14 7L14 8L13 8L13 9L14 9L14 8L15 8L15 7L16 7L16 9L15 9L15 10L14 10L14 11L15 11L15 12L14 12L14 14L15 14L15 15L17 15L17 17L14 17L14 15L12 15L12 16L10 16L10 15L6 15L6 16L3 16L3 17L5 17L5 18L4 18L4 23L5 23L5 21L6 21L6 22L7 22L7 23L6 23L6 24L7 24L7 25L6 25L6 26L8 26L8 28L9 28L9 29L10 29L10 25L11 25L11 26L12 26L12 27L11 27L11 28L12 28L12 29L11 29L11 31L12 31L12 29L13 29L13 28L12 28L12 27L13 27L13 25L14 25L14 24L16 24L16 25L15 25L15 26L17 26L17 27L18 27L18 26L19 26L19 27L20 27L20 26L19 26L19 24L20 24L20 20L19 20L19 19L21 19L21 21L22 21L22 22L23 22L23 23L21 23L21 25L22 25L22 26L21 26L21 27L22 27L22 28L24 28L24 27L25 27L25 29L26 29L26 27L25 27L25 26L29 26L29 27L28 27L28 28L30 28L30 29L28 29L28 30L29 30L29 31L28 31L28 32L30 32L30 33L31 33L31 30L32 30L32 29L33 29L33 28L32 28L32 26L31 26L31 25L33 25L33 26L34 26L34 25L33 25L33 24L34 24L34 23L35 23L35 22L36 22L36 21L35 21L35 19L34 19L34 18L33 18L33 17L32 17L32 18L31 18L31 19L30 19L30 17L29 17L29 16L28 16L28 15L29 15L29 14L30 14L30 13L29 13L29 12L30 12L30 11L34 11L34 10L31 10L31 9L27 9L27 8L26 8L26 9L27 9L27 10L24 10L24 11L23 11L23 8L24 8L24 6L25 6L25 7L26 7L26 6L27 6L27 7L28 7L28 6L27 6L27 5L26 5L26 6L25 6L25 5L24 5L24 4L23 4L23 3L22 3L22 2ZM10 3L10 4L9 4L9 5L8 5L8 9L10 9L10 8L11 8L11 3ZM17 5L17 6L16 6L16 7L17 7L17 8L19 8L19 9L20 9L20 8L19 8L19 5ZM21 5L21 6L20 6L20 7L21 7L21 6L22 6L22 7L23 7L23 6L24 6L24 5L23 5L23 6L22 6L22 5ZM9 6L9 8L10 8L10 6ZM17 6L17 7L18 7L18 6ZM0 9L0 10L1 10L1 9ZM15 10L15 11L16 11L16 12L15 12L15 13L16 13L16 14L17 14L17 15L19 15L19 14L21 14L21 15L20 15L20 18L21 18L21 19L22 19L22 20L23 20L23 21L24 21L24 22L25 22L25 21L26 21L26 22L27 22L27 23L26 23L26 24L25 24L25 25L26 25L26 24L28 24L28 25L29 25L29 26L30 26L30 25L31 25L31 22L32 22L32 21L34 21L34 22L33 22L33 23L34 23L34 22L35 22L35 21L34 21L34 20L32 20L32 21L31 21L31 20L30 20L30 21L28 21L28 19L29 19L29 18L27 18L27 21L26 21L26 19L22 19L22 18L24 18L24 17L25 17L25 18L26 18L26 17L27 17L27 15L26 15L26 12L27 12L27 14L29 14L29 13L28 13L28 12L29 12L29 11L30 11L30 10L29 10L29 11L28 11L28 10L27 10L27 11L25 11L25 13L23 13L23 11L22 11L22 13L19 13L19 12L20 12L20 11L21 11L21 10L17 10L17 11L16 11L16 10ZM9 11L9 12L8 12L8 14L10 14L10 13L9 13L9 12L10 12L10 11ZM17 12L17 14L19 14L19 13L18 13L18 12ZM33 12L33 13L34 13L34 12ZM22 13L22 14L23 14L23 13ZM1 14L1 15L3 15L3 14ZM4 14L4 15L5 15L5 14ZM24 14L24 15L25 15L25 14ZM1 16L1 17L2 17L2 16ZM6 16L6 17L7 17L7 16ZM12 16L12 17L9 17L9 18L11 18L11 19L12 19L12 20L13 20L13 18L14 18L14 17L13 17L13 16ZM21 16L21 18L22 18L22 17L24 17L24 16ZM25 16L25 17L26 17L26 16ZM12 17L12 18L13 18L13 17ZM6 18L6 19L7 19L7 20L6 20L6 21L7 21L7 22L8 22L8 21L7 21L7 20L9 20L9 22L10 22L10 24L11 24L11 25L12 25L12 24L11 24L11 23L12 23L12 22L13 22L13 21L11 21L11 20L10 20L10 19L8 19L8 18ZM17 18L17 19L19 19L19 18ZM1 19L1 20L2 20L2 19ZM14 19L14 20L15 20L15 19ZM18 20L18 22L17 22L17 21L15 21L15 22L17 22L17 23L16 23L16 24L17 24L17 25L18 25L18 24L19 24L19 23L18 23L18 22L19 22L19 20ZM24 20L24 21L25 21L25 20ZM40 20L40 21L41 21L41 20ZM27 21L27 22L28 22L28 24L30 24L30 22L31 22L31 21L30 21L30 22L28 22L28 21ZM2 23L2 24L3 24L3 23ZM8 24L8 26L9 26L9 24ZM23 25L23 26L22 26L22 27L24 27L24 25ZM38 26L38 28L36 28L36 29L38 29L38 30L39 30L39 26ZM0 29L0 33L1 33L1 29ZM6 29L6 30L7 30L7 29ZM30 29L30 30L31 30L31 29ZM9 30L9 32L10 32L10 30ZM26 30L26 31L27 31L27 30ZM3 31L3 32L4 32L4 31ZM16 31L16 34L17 34L17 31ZM6 32L6 33L7 33L7 32ZM33 33L33 36L36 36L36 33ZM38 33L38 34L37 34L37 35L38 35L38 36L37 36L37 37L38 37L38 36L39 36L39 35L38 35L38 34L39 34L39 33ZM21 34L21 35L22 35L22 34ZM30 34L30 35L31 35L31 34ZM34 34L34 35L35 35L35 34ZM15 35L15 36L14 36L14 37L13 37L13 36L11 36L11 38L10 38L10 39L11 39L11 40L12 40L12 39L11 39L11 38L13 38L13 39L14 39L14 40L15 40L15 38L14 38L14 37L15 37L15 36L16 36L16 35ZM28 35L28 36L29 36L29 35ZM16 37L16 38L18 38L18 39L16 39L16 40L18 40L18 39L20 39L20 38L18 38L18 37ZM33 37L33 38L36 38L36 37ZM25 38L25 40L26 40L26 39L27 39L27 38ZM37 38L37 39L38 39L38 38ZM29 40L29 41L30 41L30 40ZM0 0L0 7L7 7L7 0ZM1 1L1 6L6 6L6 1ZM2 2L2 5L5 5L5 2ZM34 0L34 7L41 7L41 0ZM35 1L35 6L40 6L40 1ZM36 2L36 5L39 5L39 2ZM0 34L0 41L7 41L7 34ZM1 35L1 40L6 40L6 35ZM2 36L2 39L5 39L5 36Z" fill="#000000"/></g></g></svg>
