<?xml version="1.0" encoding="UTF-8"?>
<svg xmlns="http://www.w3.org/2000/svg" version="1.1" width="200" height="200" viewBox="0 0 200 200"><rect x="0" y="0" width="200" height="200" fill="#ffffff"/><g transform="scale(4.878)"><g transform="translate(0,0)"><path fill-rule="evenodd" d="M8 0L8 3L9 3L9 4L10 4L10 5L8 5L8 11L9 11L9 9L10 9L10 8L11 8L11 6L12 6L12 7L13 7L13 9L11 9L11 10L13 10L13 11L12 11L12 12L11 12L11 13L13 13L13 11L14 11L14 12L15 12L15 11L14 11L14 10L13 10L13 9L14 9L14 7L15 7L15 10L16 10L16 7L17 7L17 9L18 9L18 10L17 10L17 11L16 11L16 12L17 12L17 11L18 11L18 12L20 12L20 13L21 13L21 14L20 14L20 16L19 16L19 14L18 14L18 13L17 13L17 14L16 14L16 13L14 13L14 14L11 14L11 15L12 15L12 19L11 19L11 20L10 20L10 21L9 21L9 22L6 22L6 23L12 23L12 24L10 24L10 25L9 25L9 24L6 24L6 25L9 25L9 26L10 26L10 25L11 25L11 26L13 26L13 27L9 27L9 28L8 28L8 27L7 27L7 26L5 26L5 27L3 27L3 29L2 29L2 30L3 30L3 31L2 31L2 32L3 32L3 33L8 33L8 34L10 34L10 33L11 33L11 32L10 32L10 33L8 33L8 32L4 32L4 31L9 31L9 30L10 30L10 31L12 31L12 34L13 34L13 35L14 35L14 33L13 33L13 32L15 32L15 36L16 36L16 37L13 37L13 39L12 39L12 40L11 40L11 39L10 39L10 40L9 40L9 41L15 41L15 40L13 40L13 39L16 39L16 41L19 41L19 39L18 39L18 40L17 40L17 38L18 38L18 37L17 37L17 36L18 36L18 35L16 35L16 33L17 33L17 34L19 34L19 35L20 35L20 36L19 36L19 37L20 37L20 36L21 36L21 34L22 34L22 37L21 37L21 39L22 39L22 37L23 37L23 38L25 38L25 39L24 39L24 40L22 40L22 41L25 41L25 40L28 40L28 41L31 41L31 40L33 40L33 41L34 41L34 40L33 40L33 39L35 39L35 40L36 40L36 39L37 39L37 40L40 40L40 38L41 38L41 37L40 37L40 36L38 36L38 34L37 34L37 33L39 33L39 35L40 35L40 34L41 34L41 33L40 33L40 32L41 32L41 31L40 31L40 30L41 30L41 29L40 29L40 28L39 28L39 32L33 32L33 31L32 31L32 30L33 30L33 29L34 29L34 28L33 28L33 27L34 27L34 26L35 26L35 27L36 27L36 28L38 28L38 26L39 26L39 27L40 27L40 26L41 26L41 23L39 23L39 22L38 22L38 21L39 21L39 20L38 20L38 19L40 19L40 18L41 18L41 16L40 16L40 18L38 18L38 17L39 17L39 16L37 16L37 14L38 14L38 15L40 15L40 14L41 14L41 13L40 13L40 14L38 14L38 13L36 13L36 14L35 14L35 15L36 15L36 16L35 16L35 17L34 17L34 16L32 16L32 17L30 17L30 16L29 16L29 15L31 15L31 12L32 12L32 13L33 13L33 14L32 14L32 15L34 15L34 13L35 13L35 11L36 11L36 12L38 12L38 11L39 11L39 12L41 12L41 11L40 11L40 10L41 10L41 8L38 8L38 9L40 9L40 10L37 10L37 9L36 9L36 8L32 8L32 9L30 9L30 8L29 8L29 9L28 9L28 7L29 7L29 4L28 4L28 5L27 5L27 4L24 4L24 2L23 2L23 1L24 1L24 0L23 0L23 1L22 1L22 0L21 0L21 1L20 1L20 7L19 7L19 6L18 6L18 7L17 7L17 5L15 5L15 3L17 3L17 2L15 2L15 3L14 3L14 1L16 1L16 0L14 0L14 1L11 1L11 0L10 0L10 1L9 1L9 0ZM18 0L18 2L19 2L19 0ZM26 0L26 1L27 1L27 2L26 2L26 3L31 3L31 2L30 2L30 1L32 1L32 3L33 3L33 0L29 0L29 1L27 1L27 0ZM21 1L21 2L22 2L22 4L23 4L23 5L21 5L21 7L22 7L22 8L21 8L21 9L19 9L19 8L18 8L18 9L19 9L19 11L21 11L21 12L23 12L23 13L22 13L22 14L23 14L23 15L22 15L22 16L20 16L20 17L19 17L19 16L18 16L18 17L17 17L17 18L16 18L16 19L15 19L15 17L14 17L14 16L17 16L17 15L13 15L13 17L14 17L14 18L13 18L13 19L14 19L14 20L12 20L12 21L11 21L11 22L12 22L12 23L13 23L13 24L12 24L12 25L13 25L13 24L15 24L15 27L13 27L13 28L15 28L15 30L16 30L16 31L15 31L15 32L16 32L16 31L19 31L19 33L20 33L20 34L21 34L21 33L20 33L20 32L25 32L25 31L24 31L24 30L23 30L23 27L27 27L27 26L28 26L28 27L29 27L29 28L31 28L31 29L28 29L28 30L32 30L32 29L33 29L33 28L32 28L32 26L34 26L34 25L39 25L39 26L40 26L40 24L39 24L39 23L38 23L38 22L37 22L37 24L36 24L36 23L35 23L35 22L36 22L36 21L35 21L35 19L36 19L36 20L37 20L37 21L38 21L38 20L37 20L37 19L38 19L38 18L36 18L36 17L37 17L37 16L36 16L36 17L35 17L35 19L34 19L34 18L33 18L33 17L32 17L32 18L31 18L31 19L30 19L30 17L29 17L29 16L28 16L28 15L29 15L29 14L30 14L30 13L29 13L29 12L31 12L31 11L32 11L32 12L33 12L33 13L34 13L34 12L33 12L33 11L34 11L34 9L32 9L32 10L30 10L30 9L29 9L29 12L28 12L28 13L29 13L29 14L27 14L27 13L24 13L24 12L25 12L25 10L26 10L26 9L27 9L27 10L28 10L28 9L27 9L27 8L25 8L25 10L24 10L24 8L23 8L23 7L24 7L24 4L23 4L23 2L22 2L22 1ZM10 2L10 3L12 3L12 4L13 4L13 5L14 5L14 6L13 6L13 7L14 7L14 6L15 6L15 7L16 7L16 6L15 6L15 5L14 5L14 3L12 3L12 2ZM18 3L18 5L19 5L19 3ZM30 4L30 5L32 5L32 7L33 7L33 4ZM25 5L25 7L26 7L26 5ZM9 6L9 7L10 7L10 6ZM22 6L22 7L23 7L23 6ZM27 6L27 7L28 7L28 6ZM30 6L30 7L31 7L31 6ZM2 8L2 10L1 10L1 9L0 9L0 12L1 12L1 13L0 13L0 15L2 15L2 16L0 16L0 17L3 17L3 18L2 18L2 19L0 19L0 20L1 20L1 23L2 23L2 22L3 22L3 24L2 24L2 25L1 25L1 24L0 24L0 25L1 25L1 26L0 26L0 28L1 28L1 26L2 26L2 25L3 25L3 26L4 26L4 25L3 25L3 24L5 24L5 23L4 23L4 22L3 22L3 21L4 21L4 20L5 20L5 21L8 21L8 20L9 20L9 18L10 18L10 16L9 16L9 15L10 15L10 14L9 14L9 13L10 13L10 12L9 12L9 13L7 13L7 12L5 12L5 10L6 10L6 11L7 11L7 10L6 10L6 9L7 9L7 8L6 8L6 9L5 9L5 8ZM3 9L3 10L2 10L2 14L3 14L3 13L4 13L4 11L3 11L3 10L4 10L4 9ZM21 9L21 10L22 10L22 9ZM35 9L35 10L36 10L36 9ZM32 10L32 11L33 11L33 10ZM6 13L6 14L7 14L7 15L5 15L5 14L4 14L4 15L3 15L3 17L4 17L4 18L3 18L3 19L4 19L4 18L5 18L5 19L6 19L6 20L7 20L7 19L8 19L8 17L9 17L9 16L8 16L8 14L7 14L7 13ZM23 13L23 14L24 14L24 13ZM26 14L26 15L23 15L23 16L22 16L22 17L20 17L20 18L22 18L22 19L24 19L24 18L25 18L25 20L23 20L23 21L24 21L24 23L22 23L22 21L21 21L21 19L19 19L19 20L20 20L20 21L19 21L19 22L16 22L16 23L19 23L19 22L20 22L20 21L21 21L21 23L22 23L22 24L25 24L25 25L24 25L24 26L25 26L25 25L26 25L26 26L27 26L27 25L28 25L28 26L32 26L32 25L34 25L34 23L33 23L33 22L32 22L32 21L34 21L34 22L35 22L35 21L34 21L34 20L32 20L32 19L33 19L33 18L32 18L32 19L31 19L31 20L30 20L30 21L31 21L31 22L32 22L32 23L33 23L33 24L31 24L31 25L30 25L30 24L29 24L29 23L28 23L28 22L27 22L27 20L28 20L28 21L29 21L29 20L28 20L28 18L27 18L27 19L26 19L26 18L25 18L25 17L26 17L26 16L27 16L27 14ZM5 16L5 17L8 17L8 16ZM23 16L23 17L25 17L25 16ZM18 17L18 18L17 18L17 19L16 19L16 20L17 20L17 19L18 19L18 18L19 18L19 17ZM6 18L6 19L7 19L7 18ZM14 20L14 21L13 21L13 22L15 22L15 20ZM25 20L25 24L26 24L26 20ZM31 20L31 21L32 21L32 20ZM40 20L40 21L41 21L41 20ZM27 23L27 24L28 24L28 25L29 25L29 24L28 24L28 23ZM18 24L18 25L19 25L19 26L20 26L20 28L21 28L21 30L20 30L20 31L21 31L21 30L22 30L22 31L23 31L23 30L22 30L22 27L23 27L23 25L22 25L22 27L21 27L21 26L20 26L20 25L21 25L21 24ZM17 26L17 27L18 27L18 26ZM36 26L36 27L37 27L37 26ZM6 27L6 28L5 28L5 29L3 29L3 30L7 30L7 29L6 29L6 28L7 28L7 27ZM25 28L25 30L26 30L26 31L27 31L27 30L26 30L26 28ZM0 29L0 33L1 33L1 29ZM12 29L12 30L14 30L14 29ZM16 29L16 30L19 30L19 29ZM35 29L35 30L34 30L34 31L35 31L35 30L36 30L36 31L38 31L38 30L37 30L37 29ZM28 31L28 32L30 32L30 33L31 33L31 34L30 34L30 35L31 35L31 34L32 34L32 33L31 33L31 32L30 32L30 31ZM26 32L26 33L25 33L25 34L23 34L23 33L22 33L22 34L23 34L23 35L25 35L25 36L24 36L24 37L25 37L25 38L26 38L26 37L27 37L27 38L28 38L28 40L30 40L30 39L29 39L29 38L30 38L30 37L31 37L31 39L32 39L32 38L36 38L36 37L32 37L32 36L28 36L28 37L27 37L27 36L26 36L26 35L25 35L25 34L26 34L26 33L27 33L27 34L29 34L29 33L27 33L27 32ZM33 33L33 36L36 36L36 33ZM34 34L34 35L35 35L35 34ZM9 35L9 36L8 36L8 39L9 39L9 38L11 38L11 36L12 36L12 35L11 35L11 36L10 36L10 35ZM9 36L9 37L10 37L10 36ZM25 36L25 37L26 37L26 36ZM37 36L37 37L38 37L38 36ZM28 37L28 38L29 38L29 37ZM37 38L37 39L38 39L38 38ZM20 40L20 41L21 41L21 40ZM0 0L0 7L7 7L7 0ZM1 1L1 6L6 6L6 1ZM2 2L2 5L5 5L5 2ZM34 0L34 7L41 7L41 0ZM35 1L35 6L40 6L40 1ZM36 2L36 5L39 5L39 2ZM0 34L0 41L7 41L7 34ZM1 35L1 40L6 40L6 35ZM2 36L2 39L5 39L5 36Z" fill="#000000"/></g></g></svg>
