<?xml version="1.0" encoding="UTF-8"?>
<svg xmlns="http://www.w3.org/2000/svg" version="1.1" width="200" height="200" viewBox="0 0 200 200"><rect x="0" y="0" width="200" height="200" fill="#ffffff"/><g transform="scale(6.897)"><g transform="translate(0,0)"><path fill-rule="evenodd" d="M8 0L8 1L9 1L9 0ZM13 0L13 1L12 1L12 2L14 2L14 1L15 1L15 2L16 2L16 1L17 1L17 2L18 2L18 1L17 1L17 0ZM20 0L20 1L19 1L19 2L20 2L20 3L19 3L19 4L18 4L18 3L16 3L16 5L18 5L18 7L19 7L19 5L20 5L20 7L21 7L21 0ZM10 1L10 2L11 2L11 1ZM8 3L8 4L9 4L9 5L10 5L10 7L11 7L11 8L8 8L8 11L9 11L9 10L10 10L10 11L12 11L12 12L13 12L13 13L12 13L12 14L10 14L10 15L9 15L9 14L8 14L8 12L6 12L6 13L5 13L5 15L4 15L4 14L0 14L0 15L1 15L1 18L0 18L0 19L1 19L1 20L0 20L0 21L1 21L1 20L5 20L5 21L8 21L8 22L11 22L11 21L12 21L12 19L13 19L13 22L12 22L12 23L11 23L11 25L9 25L9 23L8 23L8 25L9 25L9 26L8 26L8 27L9 27L9 29L10 29L10 26L11 26L11 25L13 25L13 26L12 26L12 27L11 27L11 29L12 29L12 27L14 27L14 26L15 26L15 27L16 27L16 26L17 26L17 28L16 28L16 29L17 29L17 28L18 28L18 29L20 29L20 27L21 27L21 26L22 26L22 25L23 25L23 26L24 26L24 25L25 25L25 26L26 26L26 27L25 27L25 28L23 28L23 27L22 27L22 28L23 28L23 29L25 29L25 28L26 28L26 27L27 27L27 28L28 28L28 29L29 29L29 26L28 26L28 25L29 25L29 24L26 24L26 23L25 23L25 20L26 20L26 21L28 21L28 22L27 22L27 23L29 23L29 21L28 21L28 19L29 19L29 18L27 18L27 17L26 17L26 14L24 14L24 13L25 13L25 11L26 11L26 13L27 13L27 12L28 12L28 14L29 14L29 12L28 12L28 11L29 11L29 8L28 8L28 9L27 9L27 10L25 10L25 9L26 9L26 8L25 8L25 9L24 9L24 10L25 10L25 11L24 11L24 12L23 12L23 10L22 10L22 8L19 8L19 10L17 10L17 9L16 9L16 10L15 10L15 9L14 9L14 8L15 8L15 6L14 6L14 7L13 7L13 5L14 5L14 4L15 4L15 3L13 3L13 5L12 5L12 3L10 3L10 4L9 4L9 3ZM8 6L8 7L9 7L9 6ZM11 6L11 7L12 7L12 8L11 8L11 9L13 9L13 10L14 10L14 9L13 9L13 7L12 7L12 6ZM16 6L16 8L17 8L17 6ZM2 8L2 10L3 10L3 13L4 13L4 10L5 10L5 11L7 11L7 10L6 10L6 9L7 9L7 8L4 8L4 9L3 9L3 8ZM0 9L0 10L1 10L1 9ZM27 10L27 11L28 11L28 10ZM13 11L13 12L14 12L14 13L15 13L15 16L14 16L14 14L12 14L12 15L11 15L11 18L10 18L10 17L9 17L9 16L8 16L8 14L7 14L7 13L6 13L6 14L7 14L7 15L6 15L6 16L7 16L7 17L5 17L5 16L4 16L4 15L2 15L2 16L4 16L4 17L5 17L5 20L7 20L7 19L8 19L8 20L9 20L9 19L12 19L12 15L13 15L13 17L16 17L16 14L17 14L17 13L15 13L15 11ZM17 11L17 12L18 12L18 11ZM19 11L19 12L20 12L20 11ZM21 11L21 12L22 12L22 11ZM1 12L1 13L2 13L2 12ZM20 13L20 14L19 14L19 15L18 15L18 16L17 16L17 19L16 19L16 21L15 21L15 19L14 19L14 18L13 18L13 19L14 19L14 22L16 22L16 21L17 21L17 22L18 22L18 24L19 24L19 26L18 26L18 28L19 28L19 26L20 26L20 24L19 24L19 23L20 23L20 22L18 22L18 21L20 21L20 20L21 20L21 19L22 19L22 18L23 18L23 19L24 19L24 20L25 20L25 19L24 19L24 18L26 18L26 17L24 17L24 16L25 16L25 15L24 15L24 14L23 14L23 15L22 15L22 14L21 14L21 13ZM20 14L20 15L19 15L19 16L18 16L18 17L19 17L19 18L20 18L20 17L19 17L19 16L20 16L20 15L21 15L21 14ZM23 15L23 16L22 16L22 17L23 17L23 18L24 18L24 17L23 17L23 16L24 16L24 15ZM27 15L27 16L28 16L28 17L29 17L29 16L28 16L28 15ZM2 17L2 18L1 18L1 19L3 19L3 17ZM7 17L7 18L6 18L6 19L7 19L7 18L9 18L9 17ZM17 19L17 20L18 20L18 19ZM19 19L19 20L20 20L20 19ZM21 21L21 24L24 24L24 21ZM22 22L22 23L23 23L23 22ZM14 23L14 24L13 24L13 25L15 25L15 26L16 26L16 25L17 25L17 24L16 24L16 23ZM15 24L15 25L16 25L16 24ZM26 25L26 26L27 26L27 27L28 27L28 26L27 26L27 25ZM13 28L13 29L14 29L14 28ZM0 0L0 7L7 7L7 0ZM1 1L1 6L6 6L6 1ZM2 2L2 5L5 5L5 2ZM22 0L22 7L29 7L29 0ZM23 1L23 6L28 6L28 1ZM24 2L24 5L27 5L27 2ZM0 22L0 29L7 29L7 22ZM1 23L1 28L6 28L6 23ZM2 24L2 27L5 27L5 24Z" fill="#000000"/></g></g></svg>
