<?xml version="1.0" encoding="UTF-8"?>
<svg xmlns="http://www.w3.org/2000/svg" version="1.1" width="200" height="200" viewBox="0 0 200 200"><rect x="0" y="0" width="200" height="200" fill="#ffffff"/><g transform="scale(4.878)"><g transform="translate(0,0)"><path fill-rule="evenodd" d="M8 0L8 3L9 3L9 2L11 2L11 4L13 4L13 0ZM14 0L14 1L15 1L15 0ZM19 0L19 1L16 1L16 2L15 2L15 3L14 3L14 4L15 4L15 3L17 3L17 4L16 4L16 5L15 5L15 6L14 6L14 5L12 5L12 7L11 7L11 5L10 5L10 4L9 4L9 5L8 5L8 9L9 9L9 11L8 11L8 10L6 10L6 11L5 11L5 8L2 8L2 9L1 9L1 11L0 11L0 13L1 13L1 14L3 14L3 15L1 15L1 17L2 17L2 18L1 18L1 20L0 20L0 23L1 23L1 22L2 22L2 21L1 21L1 20L2 20L2 19L3 19L3 20L4 20L4 19L8 19L8 21L7 21L7 20L5 20L5 22L3 22L3 23L2 23L2 24L0 24L0 25L1 25L1 26L0 26L0 28L1 28L1 27L7 27L7 28L6 28L6 29L7 29L7 30L6 30L6 31L5 31L5 32L3 32L3 33L5 33L5 32L6 32L6 33L7 33L7 32L8 32L8 34L10 34L10 35L9 35L9 36L8 36L8 39L9 39L9 38L10 38L10 37L9 37L9 36L12 36L12 35L13 35L13 37L12 37L12 40L11 40L11 39L10 39L10 40L9 40L9 41L13 41L13 40L15 40L15 38L13 38L13 37L14 37L14 36L16 36L16 35L18 35L18 36L17 36L17 37L18 37L18 38L19 38L19 40L18 40L18 41L21 41L21 40L23 40L23 41L25 41L25 39L26 39L26 41L27 41L27 40L28 40L28 41L31 41L31 40L33 40L33 41L34 41L34 40L33 40L33 39L30 39L30 38L31 38L31 37L30 37L30 38L29 38L29 37L28 37L28 38L27 38L27 37L25 37L25 34L26 34L26 35L27 35L27 36L28 36L28 34L27 34L27 33L29 33L29 36L31 36L31 35L32 35L32 37L33 37L33 38L34 38L34 39L35 39L35 40L36 40L36 39L37 39L37 40L40 40L40 38L41 38L41 37L40 37L40 36L41 36L41 35L40 35L40 34L41 34L41 33L39 33L39 32L33 32L33 31L32 31L32 30L33 30L33 29L34 29L34 28L33 28L33 29L32 29L32 30L30 30L30 29L31 29L31 28L29 28L29 26L30 26L30 25L31 25L31 26L32 26L32 27L34 27L34 26L35 26L35 27L37 27L37 28L38 28L38 26L39 26L39 27L40 27L40 28L39 28L39 31L40 31L40 32L41 32L41 31L40 31L40 30L41 30L41 29L40 29L40 28L41 28L41 27L40 27L40 26L41 26L41 23L39 23L39 24L40 24L40 26L39 26L39 25L34 25L34 24L35 24L35 23L36 23L36 24L37 24L37 21L39 21L39 20L36 20L36 19L35 19L35 17L36 17L36 18L37 18L37 19L39 19L39 18L41 18L41 16L40 16L40 17L39 17L39 16L38 16L38 13L36 13L36 14L35 14L35 15L36 15L36 16L35 16L35 17L34 17L34 16L33 16L33 17L31 17L31 16L29 16L29 15L28 15L28 16L29 16L29 17L31 17L31 18L30 18L30 19L31 19L31 18L34 18L34 19L35 19L35 21L34 21L34 20L33 20L33 19L32 19L32 21L31 21L31 20L30 20L30 21L31 21L31 22L32 22L32 21L34 21L34 22L33 22L33 23L32 23L32 24L33 24L33 25L31 25L31 24L28 24L28 23L30 23L30 22L27 22L27 25L26 25L26 26L24 26L24 25L23 25L23 24L24 24L24 23L25 23L25 21L26 21L26 20L27 20L27 21L29 21L29 20L28 20L28 19L29 19L29 18L27 18L27 19L25 19L25 20L24 20L24 19L22 19L22 18L26 18L26 17L27 17L27 15L26 15L26 17L24 17L24 16L23 16L23 15L24 15L24 13L26 13L26 14L29 14L29 13L30 13L30 15L31 15L31 12L32 12L32 13L33 13L33 14L32 14L32 15L34 15L34 13L35 13L35 12L38 12L38 11L40 11L40 10L41 10L41 8L38 8L38 9L40 9L40 10L37 10L37 9L36 9L36 8L32 8L32 9L31 9L31 8L28 8L28 7L29 7L29 5L27 5L27 4L24 4L24 3L25 3L25 2L23 2L23 3L22 3L22 4L21 4L21 3L20 3L20 5L21 5L21 6L20 6L20 7L19 7L19 5L18 5L18 7L17 7L17 4L18 4L18 3L17 3L17 2L20 2L20 1L21 1L21 2L22 2L22 1L21 1L21 0ZM26 0L26 1L27 1L27 2L26 2L26 3L28 3L28 4L29 4L29 3L32 3L32 2L33 2L33 1L32 1L32 0L31 0L31 1L32 1L32 2L30 2L30 0L29 0L29 1L27 1L27 0ZM11 1L11 2L12 2L12 1ZM30 4L30 7L31 7L31 5L32 5L32 7L33 7L33 4ZM9 5L9 7L10 7L10 5ZM22 5L22 6L21 6L21 8L20 8L20 9L22 9L22 8L23 8L23 11L22 11L22 10L21 10L21 11L22 11L22 12L19 12L19 11L18 11L18 13L24 13L24 12L26 12L26 13L29 13L29 12L31 12L31 11L34 11L34 10L33 10L33 9L32 9L32 10L31 10L31 9L28 9L28 8L27 8L27 7L28 7L28 6L27 6L27 5L26 5L26 6L25 6L25 5L24 5L24 6L23 6L23 5ZM13 6L13 8L12 8L12 9L11 9L11 8L9 8L9 9L11 9L11 10L10 10L10 11L9 11L9 12L7 12L7 11L6 11L6 12L7 12L7 13L6 13L6 14L7 14L7 15L6 15L6 16L7 16L7 17L6 17L6 18L7 18L7 17L8 17L8 19L9 19L9 21L11 21L11 22L12 22L12 23L10 23L10 22L9 22L9 23L6 23L6 24L5 24L5 23L3 23L3 25L2 25L2 26L3 26L3 25L6 25L6 26L7 26L7 27L8 27L8 28L9 28L9 30L7 30L7 31L6 31L6 32L7 32L7 31L8 31L8 32L9 32L9 30L12 30L12 29L10 29L10 28L9 28L9 27L12 27L12 28L13 28L13 30L14 30L14 32L13 32L13 33L12 33L12 34L14 34L14 35L15 35L15 33L17 33L17 32L19 32L19 33L18 33L18 34L19 34L19 33L20 33L20 34L21 34L21 35L19 35L19 36L20 36L20 37L19 37L19 38L22 38L22 39L23 39L23 40L24 40L24 39L25 39L25 37L23 37L23 36L24 36L24 35L22 35L22 34L21 34L21 33L26 33L26 32L27 32L27 30L26 30L26 32L21 32L21 31L22 31L22 30L23 30L23 29L26 29L26 28L20 28L20 29L18 29L18 30L20 30L20 31L15 31L15 30L16 30L16 28L18 28L18 26L19 26L19 27L20 27L20 26L21 26L21 27L22 27L22 26L23 26L23 27L24 27L24 26L23 26L23 25L22 25L22 24L20 24L20 23L19 23L19 25L18 25L18 26L17 26L17 25L16 25L16 24L14 24L14 23L17 23L17 24L18 24L18 22L21 22L21 23L22 23L22 21L23 21L23 23L24 23L24 21L23 21L23 20L22 20L22 19L21 19L21 18L22 18L22 15L23 15L23 14L20 14L20 15L19 15L19 14L18 14L18 15L17 15L17 14L16 14L16 13L17 13L17 9L16 9L16 10L15 10L15 11L14 11L14 10L13 10L13 9L14 9L14 6ZM15 6L15 8L16 8L16 6ZM22 6L22 7L23 7L23 6ZM24 6L24 9L25 9L25 10L24 10L24 11L26 11L26 12L28 12L28 11L29 11L29 10L26 10L26 9L25 9L25 6ZM26 6L26 7L27 7L27 6ZM6 8L6 9L7 9L7 8ZM18 8L18 9L19 9L19 8ZM2 9L2 10L4 10L4 9ZM11 10L11 11L12 11L12 12L11 12L11 13L12 13L12 15L11 15L11 14L10 14L10 15L9 15L9 16L8 16L8 15L7 15L7 16L8 16L8 17L9 17L9 16L11 16L11 17L10 17L10 18L9 18L9 19L10 19L10 20L12 20L12 19L13 19L13 18L14 18L14 19L15 19L15 17L16 17L16 18L18 18L18 19L16 19L16 20L18 20L18 19L20 19L20 18L21 18L21 17L20 17L20 18L18 18L18 16L17 16L17 15L16 15L16 16L15 16L15 17L13 17L13 16L12 16L12 15L13 15L13 13L12 13L12 12L13 12L13 11L12 11L12 10ZM30 10L30 11L31 11L31 10ZM3 11L3 12L4 12L4 13L3 13L3 14L4 14L4 15L5 15L5 14L4 14L4 13L5 13L5 12L4 12L4 11ZM14 12L14 14L15 14L15 13L16 13L16 12ZM33 12L33 13L34 13L34 12ZM39 12L39 13L40 13L40 14L39 14L39 15L40 15L40 14L41 14L41 12ZM7 13L7 14L8 14L8 13ZM36 14L36 15L37 15L37 14ZM3 16L3 17L5 17L5 16ZM16 16L16 17L17 17L17 16ZM36 16L36 17L37 17L37 18L39 18L39 17L38 17L38 16ZM12 17L12 18L10 18L10 19L12 19L12 18L13 18L13 17ZM3 18L3 19L4 19L4 18ZM13 20L13 21L15 21L15 20ZM20 20L20 21L22 21L22 20ZM40 20L40 21L41 21L41 20ZM6 21L6 22L7 22L7 21ZM16 21L16 22L17 22L17 21ZM35 21L35 22L34 22L34 23L35 23L35 22L36 22L36 21ZM13 22L13 23L14 23L14 22ZM9 23L9 24L8 24L8 25L7 25L7 24L6 24L6 25L7 25L7 26L8 26L8 25L9 25L9 26L11 26L11 25L10 25L10 23ZM13 25L13 26L12 26L12 27L14 27L14 29L15 29L15 27L14 27L14 25ZM27 25L27 26L26 26L26 27L27 27L27 28L28 28L28 27L27 27L27 26L29 26L29 25ZM33 25L33 26L34 26L34 25ZM2 28L2 31L4 31L4 29L3 29L3 28ZM35 28L35 29L36 29L36 31L38 31L38 29L36 29L36 28ZM0 29L0 33L1 33L1 29ZM20 29L20 30L21 30L21 29ZM28 29L28 30L29 30L29 31L28 31L28 32L31 32L31 31L30 31L30 30L29 30L29 29ZM34 30L34 31L35 31L35 30ZM11 31L11 32L10 32L10 34L11 34L11 32L12 32L12 31ZM20 32L20 33L21 33L21 32ZM30 33L30 35L31 35L31 33ZM33 33L33 36L36 36L36 33ZM37 33L37 34L39 34L39 33ZM34 34L34 35L35 35L35 34ZM37 35L37 36L39 36L39 35ZM21 36L21 37L22 37L22 38L23 38L23 39L24 39L24 38L23 38L23 37L22 37L22 36ZM34 37L34 38L36 38L36 37ZM16 38L16 39L17 39L17 38ZM26 38L26 39L27 39L27 38ZM28 38L28 40L30 40L30 39L29 39L29 38ZM37 38L37 39L38 39L38 38ZM20 39L20 40L21 40L21 39ZM16 40L16 41L17 41L17 40ZM0 0L0 7L7 7L7 0ZM1 1L1 6L6 6L6 1ZM2 2L2 5L5 5L5 2ZM34 0L34 7L41 7L41 0ZM35 1L35 6L40 6L40 1ZM36 2L36 5L39 5L39 2ZM0 34L0 41L7 41L7 34ZM1 35L1 40L6 40L6 35ZM2 36L2 39L5 39L5 36Z" fill="#000000"/></g></g></svg>
