<?xml version="1.0" encoding="UTF-8"?>
<svg xmlns="http://www.w3.org/2000/svg" version="1.1" width="200" height="200" viewBox="0 0 200 200"><rect x="0" y="0" width="200" height="200" fill="#ffffff"/><g transform="scale(6.897)"><g transform="translate(0,0)"><path fill-rule="evenodd" d="M9 0L9 1L10 1L10 0ZM11 0L11 2L10 2L10 3L11 3L11 4L9 4L9 2L8 2L8 4L9 4L9 6L8 6L8 7L9 7L9 8L10 8L10 10L9 10L9 9L8 9L8 8L6 8L6 9L8 9L8 12L11 12L11 13L8 13L8 15L7 15L7 14L5 14L5 15L4 15L4 13L5 13L5 11L7 11L7 10L5 10L5 8L3 8L3 9L2 9L2 10L1 10L1 9L0 9L0 12L1 12L1 13L0 13L0 14L1 14L1 15L0 15L0 21L8 21L8 23L9 23L9 24L8 24L8 26L9 26L9 24L10 24L10 25L11 25L11 24L12 24L12 25L13 25L13 26L10 26L10 27L11 27L11 28L13 28L13 29L14 29L14 28L16 28L16 29L17 29L17 28L16 28L16 27L18 27L18 29L20 29L20 28L21 28L21 29L23 29L23 28L24 28L24 29L25 29L25 28L26 28L26 29L28 29L28 28L27 28L27 27L29 27L29 26L27 26L27 25L29 25L29 24L28 24L28 23L29 23L29 21L28 21L28 22L27 22L27 21L26 21L26 20L27 20L27 19L26 19L26 20L23 20L23 19L25 19L25 18L28 18L28 19L29 19L29 17L28 17L28 16L29 16L29 14L27 14L27 13L29 13L29 11L28 11L28 10L27 10L27 11L26 11L26 9L27 9L27 8L25 8L25 12L24 12L24 16L23 16L23 12L22 12L22 11L21 11L21 10L19 10L19 9L17 9L17 10L19 10L19 11L16 11L16 14L15 14L15 9L14 9L14 8L13 8L13 6L14 6L14 7L15 7L15 6L16 6L16 7L17 7L17 8L19 8L19 6L20 6L20 8L21 8L21 4L19 4L19 3L20 3L20 1L21 1L21 0L19 0L19 1L18 1L18 0L16 0L16 1L15 1L15 0L14 0L14 1L12 1L12 0ZM17 1L17 2L16 2L16 3L15 3L15 2L14 2L14 4L17 4L17 5L16 5L16 6L17 6L17 7L18 7L18 6L19 6L19 4L18 4L18 3L19 3L19 2L18 2L18 1ZM12 3L12 4L11 4L11 7L10 7L10 6L9 6L9 7L10 7L10 8L11 8L11 9L12 9L12 10L11 10L11 11L12 11L12 12L13 12L13 13L12 13L12 14L9 14L9 15L12 15L12 16L11 16L11 18L12 18L12 16L13 16L13 14L14 14L14 17L13 17L13 18L14 18L14 19L15 19L15 20L11 20L11 19L10 19L10 17L9 17L9 16L8 16L8 17L6 17L6 16L7 16L7 15L6 15L6 16L5 16L5 17L4 17L4 16L1 16L1 18L2 18L2 19L4 19L4 20L8 20L8 21L9 21L9 23L10 23L10 21L12 21L12 22L11 22L11 23L12 23L12 24L13 24L13 25L15 25L15 24L16 24L16 26L15 26L15 27L16 27L16 26L17 26L17 25L18 25L18 27L19 27L19 28L20 28L20 27L21 27L21 26L22 26L22 28L23 28L23 27L25 27L25 26L26 26L26 27L27 27L27 26L26 26L26 24L27 24L27 22L25 22L25 26L24 26L24 25L18 25L18 24L20 24L20 21L19 21L19 18L20 18L20 19L21 19L21 20L22 20L22 19L21 19L21 16L20 16L20 15L21 15L21 14L22 14L22 12L21 12L21 14L20 14L20 15L18 15L18 14L16 14L16 15L15 15L15 14L14 14L14 9L13 9L13 8L12 8L12 4L13 4L13 3ZM3 9L3 10L2 10L2 11L1 11L1 12L2 12L2 11L3 11L3 10L4 10L4 11L5 11L5 10L4 10L4 9ZM22 9L22 10L23 10L23 11L24 11L24 9ZM27 11L27 12L28 12L28 11ZM6 12L6 13L7 13L7 12ZM17 12L17 13L18 13L18 12ZM19 12L19 13L20 13L20 12ZM25 13L25 16L26 16L26 17L27 17L27 16L28 16L28 15L27 15L27 16L26 16L26 13ZM2 14L2 15L3 15L3 14ZM16 16L16 17L17 17L17 18L16 18L16 19L17 19L17 18L19 18L19 17L18 17L18 16ZM22 16L22 17L23 17L23 16ZM3 17L3 18L4 18L4 19L8 19L8 18L6 18L6 17L5 17L5 18L4 18L4 17ZM14 17L14 18L15 18L15 17ZM9 19L9 20L10 20L10 19ZM15 20L15 22L14 22L14 21L13 21L13 22L14 22L14 23L13 23L13 24L14 24L14 23L15 23L15 22L16 22L16 23L17 23L17 22L16 22L16 20ZM17 20L17 21L18 21L18 23L19 23L19 21L18 21L18 20ZM21 21L21 24L24 24L24 21ZM22 22L22 23L23 23L23 22ZM13 27L13 28L14 28L14 27ZM9 28L9 29L10 29L10 28ZM0 0L0 7L7 7L7 0ZM1 1L1 6L6 6L6 1ZM2 2L2 5L5 5L5 2ZM22 0L22 7L29 7L29 0ZM23 1L23 6L28 6L28 1ZM24 2L24 5L27 5L27 2ZM0 22L0 29L7 29L7 22ZM1 23L1 28L6 28L6 23ZM2 24L2 27L5 27L5 24Z" fill="#000000"/></g></g></svg>
