<?xml version="1.0" encoding="UTF-8"?>
<svg xmlns="http://www.w3.org/2000/svg" version="1.1" width="200" height="200" viewBox="0 0 200 200"><rect x="0" y="0" width="200" height="200" fill="#ffffff"/><g transform="scale(4.878)"><g transform="translate(0,0)"><path fill-rule="evenodd" d="M8 0L8 3L9 3L9 5L8 5L8 9L7 9L7 8L6 8L6 9L7 9L7 10L6 10L6 11L7 11L7 10L9 10L9 9L10 9L10 11L9 11L9 12L6 12L6 13L5 13L5 12L4 12L4 15L5 15L5 14L6 14L6 15L7 15L7 14L8 14L8 15L9 15L9 16L3 16L3 15L2 15L2 14L1 14L1 16L2 16L2 17L0 17L0 18L1 18L1 19L3 19L3 20L4 20L4 21L5 21L5 22L4 22L4 23L2 23L2 20L0 20L0 21L1 21L1 22L0 22L0 23L1 23L1 24L0 24L0 25L2 25L2 24L5 24L5 25L3 25L3 26L4 26L4 27L3 27L3 28L4 28L4 29L1 29L1 28L0 28L0 33L1 33L1 30L2 30L2 31L3 31L3 32L2 32L2 33L3 33L3 32L4 32L4 33L7 33L7 32L6 32L6 31L8 31L8 34L9 34L9 32L10 32L10 34L13 34L13 36L12 36L12 35L9 35L9 36L8 36L8 39L11 39L11 41L13 41L13 40L12 40L12 39L13 39L13 38L14 38L14 39L15 39L15 37L14 37L14 36L15 36L15 35L17 35L17 34L18 34L18 35L19 35L19 34L20 34L20 36L18 36L18 37L17 37L17 36L16 36L16 40L18 40L18 41L20 41L20 39L22 39L22 41L27 41L27 40L28 40L28 41L32 41L32 40L33 40L33 41L34 41L34 40L33 40L33 39L35 39L35 40L36 40L36 39L39 39L39 40L40 40L40 38L41 38L41 37L39 37L39 36L40 36L40 34L41 34L41 33L39 33L39 32L37 32L37 30L38 30L38 31L40 31L40 30L41 30L41 29L40 29L40 28L39 28L39 30L38 30L38 29L35 29L35 27L36 27L36 28L38 28L38 26L39 26L39 27L40 27L40 26L41 26L41 23L40 23L40 26L39 26L39 24L37 24L37 25L36 25L36 23L34 23L34 22L36 22L36 21L37 21L37 22L38 22L38 23L39 23L39 22L38 22L38 21L39 21L39 20L36 20L36 19L35 19L35 17L36 17L36 18L37 18L37 17L36 17L36 16L38 16L38 17L39 17L39 16L38 16L38 13L36 13L36 14L35 14L35 15L36 15L36 16L35 16L35 17L34 17L34 16L33 16L33 15L34 15L34 14L33 14L33 13L34 13L34 12L33 12L33 13L32 13L32 14L31 14L31 10L32 10L32 11L34 11L34 10L35 10L35 12L38 12L38 11L40 11L40 10L41 10L41 8L38 8L38 9L40 9L40 10L37 10L37 9L36 9L36 8L32 8L32 9L31 9L31 8L29 8L29 5L30 5L30 7L31 7L31 5L32 5L32 7L33 7L33 5L32 5L32 4L33 4L33 2L31 2L31 1L32 1L32 0L31 0L31 1L30 1L30 2L31 2L31 3L30 3L30 4L29 4L29 1L27 1L27 0L25 0L25 1L23 1L23 0L20 0L20 1L22 1L22 3L20 3L20 2L19 2L19 1L18 1L18 0L15 0L15 1L13 1L13 2L12 2L12 3L13 3L13 2L14 2L14 3L15 3L15 4L14 4L14 5L15 5L15 6L14 6L14 7L13 7L13 4L12 4L12 5L11 5L11 3L9 3L9 2L10 2L10 1L12 1L12 0L10 0L10 1L9 1L9 0ZM15 1L15 3L16 3L16 2L18 2L18 1ZM26 2L26 3L23 3L23 4L25 4L25 5L21 5L21 4L19 4L19 3L17 3L17 4L16 4L16 6L15 6L15 7L14 7L14 9L13 9L13 10L12 10L12 12L14 12L14 13L12 13L12 14L11 14L11 13L10 13L10 12L11 12L11 11L10 11L10 12L9 12L9 13L8 13L8 14L9 14L9 15L10 15L10 16L11 16L11 17L9 17L9 18L7 18L7 17L5 17L5 18L4 18L4 20L5 20L5 21L6 21L6 22L7 22L7 23L5 23L5 24L7 24L7 25L5 25L5 26L8 26L8 27L9 27L9 26L10 26L10 27L11 27L11 28L10 28L10 29L9 29L9 28L7 28L7 27L6 27L6 28L5 28L5 27L4 27L4 28L5 28L5 29L4 29L4 30L5 30L5 29L6 29L6 30L8 30L8 29L9 29L9 30L11 30L11 31L10 31L10 32L11 32L11 31L12 31L12 30L13 30L13 31L14 31L14 32L13 32L13 33L14 33L14 35L15 35L15 33L16 33L16 34L17 34L17 33L18 33L18 34L19 34L19 33L18 33L18 32L19 32L19 31L18 31L18 32L17 32L17 30L15 30L15 29L13 29L13 28L14 28L14 27L15 27L15 28L16 28L16 26L17 26L17 27L18 27L18 28L17 28L17 29L18 29L18 28L20 28L20 30L22 30L22 31L20 31L20 33L21 33L21 34L22 34L22 32L23 32L23 30L22 30L22 29L21 29L21 28L22 28L22 27L23 27L23 26L24 26L24 27L25 27L25 26L26 26L26 25L27 25L27 26L29 26L29 28L28 28L28 29L29 29L29 30L27 30L27 29L26 29L26 28L23 28L23 29L26 29L26 31L27 31L27 32L26 32L26 33L27 33L27 34L26 34L26 37L25 37L25 36L24 36L24 35L25 35L25 32L24 32L24 35L23 35L23 37L25 37L25 38L26 38L26 40L27 40L27 38L29 38L29 39L28 39L28 40L32 40L32 39L33 39L33 38L36 38L36 37L32 37L32 35L30 35L30 34L31 34L31 33L32 33L32 32L36 32L36 30L35 30L35 29L34 29L34 28L33 28L33 29L32 29L32 27L34 27L34 25L35 25L35 26L36 26L36 25L35 25L35 24L34 24L34 23L33 23L33 22L34 22L34 21L36 21L36 20L35 20L35 19L34 19L34 18L33 18L33 19L32 19L32 18L31 18L31 17L30 17L30 19L32 19L32 20L29 20L29 21L27 21L27 20L28 20L28 19L29 19L29 16L31 16L31 14L30 14L30 13L28 13L28 14L30 14L30 15L28 15L28 17L27 17L27 16L24 16L24 15L23 15L23 16L24 16L24 17L25 17L25 18L24 18L24 19L23 19L23 18L22 18L22 19L21 19L21 18L20 18L20 17L22 17L22 14L24 14L24 13L25 13L25 12L26 12L26 15L27 15L27 12L30 12L30 10L31 10L31 9L29 9L29 8L28 8L28 9L26 9L26 11L23 11L23 13L22 13L22 9L21 9L21 8L22 8L22 6L23 6L23 8L25 8L25 7L26 7L26 5L29 5L29 4L28 4L28 3L27 3L27 2ZM26 3L26 4L27 4L27 3ZM31 3L31 4L30 4L30 5L31 5L31 4L32 4L32 3ZM17 4L17 5L18 5L18 8L17 8L17 9L19 9L19 8L20 8L20 7L21 7L21 6L20 6L20 7L19 7L19 4ZM9 6L9 7L10 7L10 9L11 9L11 8L13 8L13 7L12 7L12 6L11 6L11 7L10 7L10 6ZM16 6L16 7L15 7L15 8L16 8L16 7L17 7L17 6ZM24 6L24 7L25 7L25 6ZM27 6L27 7L28 7L28 6ZM2 8L2 9L5 9L5 8ZM14 9L14 10L15 10L15 11L16 11L16 12L15 12L15 15L14 15L14 14L12 14L12 15L11 15L11 14L10 14L10 13L9 13L9 14L10 14L10 15L11 15L11 16L12 16L12 19L11 19L11 18L9 18L9 19L11 19L11 20L12 20L12 25L13 25L13 26L11 26L11 27L12 27L12 28L13 28L13 26L14 26L14 25L16 25L16 24L17 24L17 23L16 23L16 22L17 22L17 21L18 21L18 23L19 23L19 22L23 22L23 23L22 23L22 25L21 25L21 23L20 23L20 24L18 24L18 27L22 27L22 25L23 25L23 24L25 24L25 25L24 25L24 26L25 26L25 25L26 25L26 23L27 23L27 24L28 24L28 25L29 25L29 26L32 26L32 25L34 25L34 24L33 24L33 23L31 23L31 22L33 22L33 21L34 21L34 20L33 20L33 21L29 21L29 22L26 22L26 19L28 19L28 18L25 18L25 19L24 19L24 20L23 20L23 19L22 19L22 20L23 20L23 21L21 21L21 19L20 19L20 21L19 21L19 20L18 20L18 19L19 19L19 18L18 18L18 16L20 16L20 15L21 15L21 14L22 14L22 13L19 13L19 12L18 12L18 13L17 13L17 16L16 16L16 12L17 12L17 11L19 11L19 10L17 10L17 11L16 11L16 9ZM20 9L20 12L21 12L21 9ZM28 9L28 10L27 10L27 11L28 11L28 10L29 10L29 9ZM32 9L32 10L33 10L33 9ZM2 10L2 11L0 11L0 13L1 13L1 12L3 12L3 10ZM4 10L4 11L5 11L5 10ZM36 10L36 11L37 11L37 10ZM39 12L39 13L40 13L40 14L39 14L39 15L40 15L40 14L41 14L41 12ZM6 13L6 14L7 14L7 13ZM18 14L18 15L20 15L20 14ZM32 14L32 15L33 15L33 14ZM12 15L12 16L13 16L13 17L16 17L16 18L14 18L14 19L13 19L13 20L14 20L14 19L15 19L15 21L13 21L13 22L16 22L16 21L17 21L17 20L16 20L16 18L17 18L17 17L16 17L16 16L14 16L14 15ZM32 16L32 17L33 17L33 16ZM40 16L40 18L38 18L38 19L40 19L40 18L41 18L41 16ZM2 17L2 18L3 18L3 17ZM6 18L6 19L5 19L5 20L6 20L6 21L7 21L7 20L6 20L6 19L7 19L7 18ZM8 20L8 24L10 24L10 25L11 25L11 23L10 23L10 22L11 22L11 21L9 21L9 20ZM24 20L24 23L26 23L26 22L25 22L25 20ZM40 20L40 21L41 21L41 20ZM29 22L29 23L28 23L28 24L30 24L30 25L32 25L32 24L31 24L31 23L30 23L30 22ZM13 24L13 25L14 25L14 24ZM8 25L8 26L9 26L9 25ZM20 25L20 26L21 26L21 25ZM6 28L6 29L7 29L7 28ZM29 28L29 29L31 29L31 28ZM11 29L11 30L12 30L12 29ZM33 29L33 30L32 30L32 31L33 31L33 30L34 30L34 31L35 31L35 30L34 30L34 29ZM14 30L14 31L15 31L15 32L16 32L16 31L15 31L15 30ZM24 30L24 31L25 31L25 30ZM30 30L30 32L29 32L29 31L28 31L28 32L29 32L29 33L28 33L28 34L27 34L27 36L28 36L28 37L29 37L29 36L28 36L28 34L29 34L29 33L31 33L31 30ZM4 31L4 32L5 32L5 31ZM33 33L33 36L36 36L36 33ZM37 33L37 34L38 34L38 35L37 35L37 36L39 36L39 34L38 34L38 33ZM34 34L34 35L35 35L35 34ZM9 36L9 37L10 37L10 36ZM20 36L20 37L19 37L19 38L22 38L22 39L23 39L23 40L25 40L25 39L23 39L23 38L22 38L22 37L21 37L21 36ZM30 36L30 37L31 37L31 36ZM26 37L26 38L27 38L27 37ZM38 37L38 38L39 38L39 37ZM11 38L11 39L12 39L12 38ZM17 38L17 39L18 39L18 40L19 40L19 39L18 39L18 38ZM30 38L30 39L32 39L32 38ZM14 40L14 41L15 41L15 40ZM0 0L0 7L7 7L7 0ZM1 1L1 6L6 6L6 1ZM2 2L2 5L5 5L5 2ZM34 0L34 7L41 7L41 0ZM35 1L35 6L40 6L40 1ZM36 2L36 5L39 5L39 2ZM0 34L0 41L7 41L7 34ZM1 35L1 40L6 40L6 35ZM2 36L2 39L5 39L5 36Z" fill="#000000"/></g></g></svg>
