<?xml version="1.0" encoding="UTF-8"?>
<svg xmlns="http://www.w3.org/2000/svg" version="1.1" width="200" height="200" viewBox="0 0 200 200"><rect x="0" y="0" width="200" height="200" fill="#ffffff"/><g transform="scale(6.897)"><g transform="translate(0,0)"><path fill-rule="evenodd" d="M9 0L9 1L12 1L12 2L10 2L10 3L11 3L11 4L10 4L10 5L9 5L9 6L8 6L8 7L9 7L9 9L10 9L10 8L11 8L11 6L10 6L10 5L11 5L11 4L12 4L12 8L14 8L14 15L16 15L16 14L17 14L17 16L16 16L16 19L14 19L14 18L15 18L15 17L14 17L14 16L12 16L12 15L10 15L10 14L12 14L12 13L13 13L13 12L12 12L12 13L8 13L8 15L7 15L7 14L5 14L5 16L6 16L6 17L5 17L5 18L4 18L4 19L7 19L7 20L2 20L2 19L3 19L3 18L2 18L2 17L0 17L0 21L8 21L8 23L9 23L9 21L8 21L8 19L9 19L9 20L10 20L10 19L12 19L12 20L11 20L11 21L10 21L10 22L12 22L12 20L16 20L16 19L17 19L17 18L19 18L19 21L18 21L18 20L17 20L17 21L18 21L18 22L16 22L16 21L15 21L15 22L16 22L16 23L18 23L18 25L16 25L16 24L15 24L15 25L13 25L13 27L14 27L14 28L13 28L13 29L14 29L14 28L15 28L15 29L17 29L17 28L16 28L16 26L17 26L17 27L18 27L18 29L20 29L20 28L21 28L21 29L23 29L23 28L24 28L24 29L26 29L26 28L25 28L25 27L26 27L26 26L25 26L25 22L27 22L27 23L28 23L28 24L26 24L26 25L29 25L29 22L28 22L28 21L26 21L26 20L27 20L27 19L26 19L26 20L23 20L23 19L25 19L25 18L28 18L28 19L29 19L29 17L28 17L28 16L29 16L29 11L28 11L28 10L27 10L27 8L25 8L25 9L26 9L26 10L25 10L25 12L24 12L24 16L23 16L23 12L22 12L22 11L21 11L21 10L19 10L19 9L17 9L17 10L16 10L16 11L15 11L15 8L14 8L14 7L15 7L15 6L16 6L16 7L17 7L17 8L19 8L19 6L20 6L20 8L21 8L21 4L19 4L19 3L20 3L20 1L21 1L21 0L19 0L19 1L18 1L18 0L17 0L17 1L16 1L16 3L17 3L17 1L18 1L18 2L19 2L19 3L18 3L18 4L19 4L19 6L18 6L18 7L17 7L17 6L16 6L16 5L17 5L17 4L14 4L14 2L15 2L15 1L13 1L13 0ZM8 2L8 4L9 4L9 2ZM12 3L12 4L13 4L13 5L14 5L14 4L13 4L13 3ZM9 6L9 7L10 7L10 6ZM13 6L13 7L14 7L14 6ZM3 8L3 9L2 9L2 10L1 10L1 9L0 9L0 12L1 12L1 14L0 14L0 15L1 15L1 16L3 16L3 17L4 17L4 13L5 13L5 11L7 11L7 10L6 10L6 9L8 9L8 8L6 8L6 9L5 9L5 8ZM3 9L3 10L2 10L2 11L1 11L1 12L2 12L2 11L5 11L5 10L4 10L4 9ZM12 9L12 10L13 10L13 9ZM22 9L22 10L23 10L23 11L24 11L24 9ZM9 10L9 12L11 12L11 10ZM17 10L17 11L16 11L16 12L15 12L15 14L16 14L16 12L17 12L17 13L18 13L18 12L17 12L17 11L19 11L19 10ZM26 10L26 11L27 11L27 12L28 12L28 11L27 11L27 10ZM6 12L6 13L7 13L7 12ZM19 12L19 13L20 13L20 12ZM21 12L21 14L20 14L20 15L19 15L19 14L18 14L18 16L17 16L17 17L19 17L19 18L20 18L20 19L21 19L21 20L22 20L22 19L21 19L21 16L20 16L20 15L21 15L21 14L22 14L22 12ZM25 13L25 16L26 16L26 17L27 17L27 16L28 16L28 13L27 13L27 16L26 16L26 13ZM1 14L1 15L3 15L3 14ZM6 15L6 16L7 16L7 15ZM9 16L9 19L10 19L10 16ZM11 16L11 18L12 18L12 19L13 19L13 18L14 18L14 17L13 17L13 18L12 18L12 16ZM22 16L22 17L23 17L23 16ZM6 17L6 18L8 18L8 17ZM13 21L13 24L14 24L14 21ZM19 21L19 24L20 24L20 21ZM21 21L21 24L24 24L24 21ZM22 22L22 23L23 23L23 22ZM10 23L10 24L8 24L8 26L9 26L9 25L11 25L11 26L10 26L10 27L11 27L11 29L12 29L12 27L11 27L11 26L12 26L12 25L11 25L11 24L12 24L12 23ZM18 25L18 27L19 27L19 28L20 28L20 27L21 27L21 26L22 26L22 28L23 28L23 27L25 27L25 26L24 26L24 25ZM27 26L27 27L29 27L29 26ZM9 28L9 29L10 29L10 28ZM27 28L27 29L28 29L28 28ZM0 0L0 7L7 7L7 0ZM1 1L1 6L6 6L6 1ZM2 2L2 5L5 5L5 2ZM22 0L22 7L29 7L29 0ZM23 1L23 6L28 6L28 1ZM24 2L24 5L27 5L27 2ZM0 22L0 29L7 29L7 22ZM1 23L1 28L6 28L6 23ZM2 24L2 27L5 27L5 24Z" fill="#000000"/></g></g></svg>
