<?xml version="1.0" encoding="UTF-8"?>
<svg xmlns="http://www.w3.org/2000/svg" version="1.1" width="200" height="200" viewBox="0 0 200 200"><rect x="0" y="0" width="200" height="200" fill="#ffffff"/><g transform="scale(4.878)"><g transform="translate(0,0)"><path fill-rule="evenodd" d="M8 0L8 3L9 3L9 5L8 5L8 9L7 9L7 8L6 8L6 9L5 9L5 8L2 8L2 9L0 9L0 10L2 10L2 11L1 11L1 12L2 12L2 13L3 13L3 14L4 14L4 13L7 13L7 12L8 12L8 13L9 13L9 14L6 14L6 15L5 15L5 17L7 17L7 16L11 16L11 18L10 18L10 17L8 17L8 18L9 18L9 19L11 19L11 18L13 18L13 19L12 19L12 20L11 20L11 21L12 21L12 20L13 20L13 23L14 23L14 22L15 22L15 23L16 23L16 24L17 24L17 23L18 23L18 24L20 24L20 25L21 25L21 26L23 26L23 25L24 25L24 28L23 28L23 29L24 29L24 30L25 30L25 31L26 31L26 30L27 30L27 33L29 33L29 35L28 35L28 34L24 34L24 31L23 31L23 33L22 33L22 29L21 29L21 28L22 28L22 27L19 27L19 26L17 26L17 28L18 28L18 27L19 27L19 28L20 28L20 30L18 30L18 31L20 31L20 32L19 32L19 33L17 33L17 34L16 34L16 35L14 35L14 33L13 33L13 32L14 32L14 31L16 31L16 32L15 32L15 33L16 33L16 32L17 32L17 31L16 31L16 30L17 30L17 29L16 29L16 28L15 28L15 26L13 26L13 25L15 25L15 24L13 24L13 25L10 25L10 24L12 24L12 22L9 22L9 26L12 26L12 28L11 28L11 29L10 29L10 30L8 30L8 31L7 31L7 30L6 30L6 29L7 29L7 28L10 28L10 27L8 27L8 25L7 25L7 24L5 24L5 25L3 25L3 26L6 26L6 27L7 27L7 28L6 28L6 29L5 29L5 31L2 31L2 32L3 32L3 33L4 33L4 32L5 32L5 31L7 31L7 32L6 32L6 33L8 33L8 34L10 34L10 35L11 35L11 34L12 34L12 37L14 37L14 38L17 38L17 39L18 39L18 38L19 38L19 40L18 40L18 41L19 41L19 40L21 40L21 41L24 41L24 38L25 38L25 36L26 36L26 37L28 37L28 38L27 38L27 39L28 39L28 38L29 38L29 37L28 37L28 36L31 36L31 35L32 35L32 38L31 38L31 37L30 37L30 39L32 39L32 40L27 40L27 41L32 41L32 40L33 40L33 41L34 41L34 40L33 40L33 39L32 39L32 38L34 38L34 39L35 39L35 40L36 40L36 39L37 39L37 40L40 40L40 38L41 38L41 37L40 37L40 36L41 36L41 35L40 35L40 34L41 34L41 33L39 33L39 32L40 32L40 30L41 30L41 29L39 29L39 32L38 32L38 31L36 31L36 30L37 30L37 29L36 29L36 28L35 28L35 29L36 29L36 30L34 30L34 31L36 31L36 32L33 32L33 31L32 31L32 30L33 30L33 29L34 29L34 28L33 28L33 29L32 29L32 30L31 30L31 29L30 29L30 28L25 28L25 27L26 27L26 26L25 26L25 25L26 25L26 24L27 24L27 25L28 25L28 26L27 26L27 27L29 27L29 26L30 26L30 25L31 25L31 26L32 26L32 27L31 27L31 28L32 28L32 27L34 27L34 26L35 26L35 25L36 25L36 27L37 27L37 28L38 28L38 26L39 26L39 27L40 27L40 26L41 26L41 23L39 23L39 24L40 24L40 26L39 26L39 25L36 25L36 24L37 24L37 22L38 22L38 21L39 21L39 20L38 20L38 19L39 19L39 18L41 18L41 16L40 16L40 17L39 17L39 16L37 16L37 17L36 17L36 16L35 16L35 17L34 17L34 16L33 16L33 17L31 17L31 12L32 12L32 13L33 13L33 14L32 14L32 15L34 15L34 13L35 13L35 12L38 12L38 11L39 11L39 12L40 12L40 10L41 10L41 8L38 8L38 9L40 9L40 10L37 10L37 9L36 9L36 8L33 8L33 5L32 5L32 4L33 4L33 3L32 3L32 2L30 2L30 0L29 0L29 1L27 1L27 0L26 0L26 1L27 1L27 2L26 2L26 3L32 3L32 4L30 4L30 5L32 5L32 8L33 8L33 9L31 9L31 6L30 6L30 8L28 8L28 7L29 7L29 6L28 6L28 5L29 5L29 4L28 4L28 5L27 5L27 4L25 4L25 3L24 3L24 4L25 4L25 5L23 5L23 6L22 6L22 7L23 7L23 6L24 6L24 7L25 7L25 5L27 5L27 6L26 6L26 8L28 8L28 9L31 9L31 10L33 10L33 9L34 9L34 11L30 11L30 12L29 12L29 13L28 13L28 11L29 11L29 10L27 10L27 9L25 9L25 8L23 8L23 9L24 9L24 10L23 10L23 11L21 11L21 10L22 10L22 8L20 8L20 7L21 7L21 5L22 5L22 3L20 3L20 0L19 0L19 1L18 1L18 2L17 2L17 3L15 3L15 2L14 2L14 1L13 1L13 0L12 0L12 3L11 3L11 6L10 6L10 2L11 2L11 1L10 1L10 0ZM21 0L21 1L22 1L22 2L23 2L23 1L24 1L24 2L25 2L25 1L24 1L24 0ZM31 0L31 1L32 1L32 0ZM9 1L9 2L10 2L10 1ZM13 2L13 4L14 4L14 6L13 6L13 5L12 5L12 6L11 6L11 7L12 7L12 8L14 8L14 9L11 9L11 8L10 8L10 10L9 10L9 9L8 9L8 11L10 11L10 10L14 10L14 9L15 9L15 11L14 11L14 12L13 12L13 11L11 11L11 12L12 12L12 16L13 16L13 18L14 18L14 19L13 19L13 20L14 20L14 21L15 21L15 22L18 22L18 23L19 23L19 21L18 21L18 20L17 20L17 21L16 21L16 20L15 20L15 17L14 17L14 16L15 16L15 14L16 14L16 15L17 15L17 16L16 16L16 17L17 17L17 16L19 16L19 17L18 17L18 19L19 19L19 20L22 20L22 22L21 22L21 21L20 21L20 23L21 23L21 24L22 24L22 25L23 25L23 24L24 24L24 23L26 23L26 21L27 21L27 22L31 22L31 23L34 23L34 25L32 25L32 24L31 24L31 25L32 25L32 26L34 26L34 25L35 25L35 24L36 24L36 23L35 23L35 22L36 22L36 21L35 21L35 19L36 19L36 20L37 20L37 21L38 21L38 20L37 20L37 19L38 19L38 18L39 18L39 17L38 17L38 18L36 18L36 17L35 17L35 19L34 19L34 18L33 18L33 19L32 19L32 18L31 18L31 17L29 17L29 16L30 16L30 13L29 13L29 14L27 14L27 13L26 13L26 12L27 12L27 11L26 11L26 12L25 12L25 13L24 13L24 14L23 14L23 12L24 12L24 11L25 11L25 10L24 10L24 11L23 11L23 12L21 12L21 11L20 11L20 10L21 10L21 9L20 9L20 8L18 8L18 4L19 4L19 7L20 7L20 3L18 3L18 4L16 4L16 5L15 5L15 3L14 3L14 2ZM16 5L16 7L17 7L17 5ZM9 6L9 7L10 7L10 6ZM12 6L12 7L13 7L13 6ZM14 6L14 7L15 7L15 6ZM27 6L27 7L28 7L28 6ZM16 8L16 9L17 9L17 8ZM4 9L4 10L5 10L5 9ZM6 9L6 10L7 10L7 9ZM35 9L35 10L36 10L36 11L37 11L37 10L36 10L36 9ZM18 10L18 12L19 12L19 14L18 14L18 13L17 13L17 15L22 15L22 16L21 16L21 17L19 17L19 19L20 19L20 18L21 18L21 19L22 19L22 20L23 20L23 22L24 22L24 21L26 21L26 20L23 20L23 19L25 19L25 18L26 18L26 19L27 19L27 21L29 21L29 18L27 18L27 16L26 16L26 15L25 15L25 14L24 14L24 15L22 15L22 14L20 14L20 11L19 11L19 10ZM2 11L2 12L3 12L3 13L4 13L4 12L5 12L5 11L4 11L4 12L3 12L3 11ZM6 11L6 12L7 12L7 11ZM15 11L15 12L16 12L16 11ZM33 12L33 13L34 13L34 12ZM10 13L10 14L9 14L9 15L10 15L10 14L11 14L11 13ZM13 13L13 16L14 16L14 14L15 14L15 13ZM36 13L36 14L35 14L35 15L38 15L38 14L37 14L37 13ZM40 13L40 14L39 14L39 15L40 15L40 14L41 14L41 13ZM0 14L0 17L1 17L1 16L2 16L2 15L1 15L1 14ZM6 15L6 16L7 16L7 15ZM24 15L24 16L23 16L23 17L24 17L24 18L25 18L25 15ZM28 15L28 16L29 16L29 15ZM2 17L2 18L4 18L4 19L5 19L5 18L4 18L4 17ZM0 18L0 19L1 19L1 20L2 20L2 21L3 21L3 20L2 20L2 19L1 19L1 18ZM6 18L6 19L7 19L7 18ZM16 18L16 19L17 19L17 18ZM22 18L22 19L23 19L23 18ZM30 18L30 19L31 19L31 18ZM6 20L6 21L4 21L4 22L3 22L3 23L1 23L1 24L3 24L3 23L5 23L5 22L6 22L6 23L7 23L7 22L8 22L8 21L9 21L9 20ZM30 20L30 21L31 21L31 22L32 22L32 21L34 21L34 22L35 22L35 21L34 21L34 20ZM40 20L40 21L41 21L41 20ZM6 21L6 22L7 22L7 21ZM22 23L22 24L23 24L23 23ZM27 23L27 24L28 24L28 25L29 25L29 24L30 24L30 23ZM0 25L0 26L1 26L1 27L0 27L0 33L1 33L1 29L2 29L2 30L4 30L4 29L3 29L3 28L4 28L4 27L3 27L3 28L1 28L1 27L2 27L2 25ZM6 25L6 26L7 26L7 25ZM13 27L13 29L14 29L14 30L12 30L12 29L11 29L11 31L8 31L8 33L10 33L10 32L11 32L11 33L12 33L12 32L11 32L11 31L14 31L14 30L15 30L15 29L14 29L14 27ZM24 28L24 29L25 29L25 28ZM28 29L28 30L30 30L30 29ZM28 31L28 32L30 32L30 31ZM25 32L25 33L26 33L26 32ZM37 32L37 33L38 33L38 34L37 34L37 36L39 36L39 35L38 35L38 34L39 34L39 33L38 33L38 32ZM30 33L30 35L31 35L31 33ZM33 33L33 36L36 36L36 33ZM17 34L17 36L18 36L18 37L17 37L17 38L18 38L18 37L19 37L19 36L20 36L20 35L18 35L18 34ZM21 34L21 35L22 35L22 34ZM34 34L34 35L35 35L35 34ZM23 35L23 36L22 36L22 37L23 37L23 38L22 38L22 39L21 39L21 37L20 37L20 39L21 39L21 40L22 40L22 39L23 39L23 38L24 38L24 37L23 37L23 36L24 36L24 35ZM8 36L8 39L9 39L9 38L10 38L10 39L11 39L11 41L13 41L13 38L11 38L11 37L9 37L9 36ZM14 36L14 37L16 37L16 36ZM34 37L34 38L36 38L36 37ZM37 38L37 39L38 39L38 38ZM14 39L14 41L15 41L15 39ZM9 40L9 41L10 41L10 40ZM0 0L0 7L7 7L7 0ZM1 1L1 6L6 6L6 1ZM2 2L2 5L5 5L5 2ZM34 0L34 7L41 7L41 0ZM35 1L35 6L40 6L40 1ZM36 2L36 5L39 5L39 2ZM0 34L0 41L7 41L7 34ZM1 35L1 40L6 40L6 35ZM2 36L2 39L5 39L5 36Z" fill="#000000"/></g></g></svg>
