<?xml version="1.0" encoding="UTF-8"?>
<svg xmlns="http://www.w3.org/2000/svg" version="1.1" width="200" height="200" viewBox="0 0 200 200"><rect x="0" y="0" width="200" height="200" fill="#ffffff"/><g transform="scale(6.897)"><g transform="translate(0,0)"><path fill-rule="evenodd" d="M8 0L8 1L10 1L10 2L8 2L8 3L9 3L9 4L8 4L8 5L9 5L9 4L10 4L10 3L11 3L11 4L12 4L12 3L16 3L16 4L17 4L17 1L18 1L18 2L19 2L19 3L18 3L18 7L19 7L19 8L18 8L18 9L17 9L17 6L16 6L16 5L15 5L15 4L13 4L13 5L15 5L15 6L14 6L14 7L13 7L13 6L12 6L12 7L13 7L13 8L10 8L10 7L11 7L11 5L10 5L10 7L9 7L9 6L8 6L8 8L10 8L10 10L11 10L11 11L9 11L9 9L7 9L7 8L5 8L5 9L3 9L3 10L2 10L2 9L1 9L1 11L2 11L2 12L1 12L1 13L0 13L0 16L1 16L1 17L0 17L0 21L1 21L1 19L2 19L2 21L3 21L3 19L5 19L5 18L4 18L4 17L7 17L7 18L6 18L6 19L7 19L7 20L5 20L5 21L8 21L8 22L9 22L9 23L8 23L8 24L9 24L9 28L10 28L10 24L9 24L9 23L11 23L11 24L12 24L12 25L11 25L11 27L12 27L12 29L13 29L13 28L14 28L14 27L13 27L13 25L14 25L14 24L15 24L15 25L16 25L16 26L17 26L17 28L15 28L15 29L19 29L19 28L21 28L21 27L22 27L22 28L23 28L23 29L25 29L25 27L26 27L26 26L25 26L25 22L26 22L26 23L27 23L27 21L25 21L25 20L26 20L26 18L28 18L28 16L29 16L29 15L28 15L28 14L26 14L26 13L29 13L29 12L27 12L27 11L28 11L28 10L27 10L27 8L26 8L26 10L25 10L25 8L24 8L24 17L23 17L23 16L22 16L22 17L23 17L23 18L21 18L21 17L20 17L20 19L18 19L18 18L19 18L19 17L18 17L18 16L19 16L19 15L18 15L18 14L17 14L17 13L21 13L21 12L22 12L22 15L23 15L23 11L21 11L21 5L20 5L20 3L21 3L21 2L20 2L20 0L17 0L17 1L16 1L16 2L12 2L12 1L13 1L13 0L11 0L11 1L10 1L10 0ZM11 2L11 3L12 3L12 2ZM15 6L15 9L16 9L16 10L15 10L15 11L16 11L16 10L17 10L17 9L16 9L16 6ZM19 6L19 7L20 7L20 6ZM13 8L13 9L14 9L14 8ZM22 8L22 10L23 10L23 8ZM28 8L28 9L29 9L29 8ZM6 9L6 10L7 10L7 11L6 11L6 12L4 12L4 13L3 13L3 12L2 12L2 14L3 14L3 15L1 15L1 16L3 16L3 17L2 17L2 19L3 19L3 17L4 17L4 16L3 16L3 15L4 15L4 14L5 14L5 15L6 15L6 16L7 16L7 17L11 17L11 16L12 16L12 18L11 18L11 20L10 20L10 19L9 19L9 18L8 18L8 20L9 20L9 22L11 22L11 23L12 23L12 24L14 24L14 23L13 23L13 22L12 22L12 21L13 21L13 20L15 20L15 21L14 21L14 22L15 22L15 21L16 21L16 22L17 22L17 24L16 24L16 25L17 25L17 24L18 24L18 26L19 26L19 24L20 24L20 21L19 21L19 20L18 20L18 19L17 19L17 18L18 18L18 17L17 17L17 18L16 18L16 20L15 20L15 19L14 19L14 16L17 16L17 15L16 15L16 14L15 14L15 13L14 13L14 12L13 12L13 11L14 11L14 10L12 10L12 12L13 12L13 13L12 13L12 14L10 14L10 16L9 16L9 14L8 14L8 16L7 16L7 15L6 15L6 14L7 14L7 13L6 13L6 12L9 12L9 13L11 13L11 12L9 12L9 11L8 11L8 10L7 10L7 9ZM18 9L18 10L19 10L19 12L21 12L21 11L20 11L20 9ZM4 10L4 11L5 11L5 10ZM16 12L16 13L17 13L17 12ZM12 15L12 16L13 16L13 15ZM20 15L20 16L21 16L21 15ZM25 15L25 16L26 16L26 15ZM27 15L27 16L28 16L28 15ZM24 17L24 18L25 18L25 17ZM12 18L12 20L13 20L13 18ZM21 19L21 20L22 20L22 19ZM23 19L23 20L25 20L25 19ZM17 20L17 22L18 22L18 23L19 23L19 22L18 22L18 20ZM28 20L28 22L29 22L29 20ZM21 21L21 24L24 24L24 21ZM22 22L22 23L23 23L23 22ZM26 24L26 25L28 25L28 24ZM21 25L21 26L20 26L20 27L21 27L21 26L23 26L23 27L25 27L25 26L24 26L24 25ZM27 26L27 27L28 27L28 26ZM27 28L27 29L28 29L28 28ZM0 0L0 7L7 7L7 0ZM1 1L1 6L6 6L6 1ZM2 2L2 5L5 5L5 2ZM22 0L22 7L29 7L29 0ZM23 1L23 6L28 6L28 1ZM24 2L24 5L27 5L27 2ZM0 22L0 29L7 29L7 22ZM1 23L1 28L6 28L6 23ZM2 24L2 27L5 27L5 24Z" fill="#000000"/></g></g></svg>
