<?xml version="1.0" encoding="UTF-8"?>
<svg xmlns="http://www.w3.org/2000/svg" version="1.1" width="200" height="200" viewBox="0 0 200 200"><rect x="0" y="0" width="200" height="200" fill="#ffffff"/><g transform="scale(4.878)"><g transform="translate(0,0)"><path fill-rule="evenodd" d="M9 0L9 1L8 1L8 2L10 2L10 1L11 1L11 0ZM18 0L18 1L17 1L17 2L16 2L16 1L15 1L15 2L16 2L16 3L15 3L15 4L16 4L16 7L15 7L15 5L14 5L14 4L13 4L13 2L11 2L11 3L12 3L12 4L11 4L11 5L10 5L10 4L9 4L9 5L8 5L8 8L4 8L4 9L3 9L3 10L1 10L1 9L0 9L0 10L1 10L1 11L0 11L0 14L1 14L1 13L2 13L2 15L3 15L3 16L2 16L2 17L3 17L3 18L4 18L4 19L3 19L3 20L2 20L2 23L0 23L0 24L1 24L1 25L0 25L0 30L1 30L1 29L2 29L2 28L5 28L5 29L3 29L3 30L4 30L4 31L5 31L5 30L6 30L6 31L8 31L8 30L9 30L9 31L11 31L11 32L10 32L10 33L11 33L11 34L10 34L10 35L11 35L11 34L13 34L13 35L12 35L12 36L10 36L10 37L9 37L9 32L8 32L8 37L9 37L9 41L10 41L10 37L12 37L12 38L11 38L11 39L12 39L12 38L13 38L13 40L12 40L12 41L15 41L15 39L16 39L16 41L17 41L17 39L18 39L18 40L19 40L19 41L20 41L20 39L21 39L21 41L23 41L23 39L24 39L24 38L26 38L26 39L25 39L25 40L26 40L26 39L28 39L28 40L29 40L29 41L30 41L30 40L31 40L31 41L33 41L33 39L32 39L32 38L33 38L33 37L36 37L36 38L37 38L37 35L39 35L39 36L40 36L40 35L41 35L41 33L40 33L40 34L39 34L39 33L38 33L38 30L39 30L39 31L41 31L41 29L40 29L40 28L38 28L38 26L37 26L37 25L39 25L39 27L41 27L41 24L40 24L40 23L41 23L41 22L40 22L40 21L41 21L41 13L40 13L40 12L41 12L41 9L40 9L40 8L39 8L39 9L36 9L36 8L34 8L34 9L32 9L32 8L33 8L33 2L32 2L32 1L33 1L33 0L32 0L32 1L31 1L31 2L32 2L32 5L31 5L31 3L29 3L29 4L30 4L30 5L31 5L31 6L30 6L30 7L29 7L29 6L28 6L28 8L29 8L29 9L27 9L27 11L26 11L26 12L28 12L28 10L29 10L29 13L28 13L28 15L29 15L29 17L32 17L32 19L33 19L33 17L32 17L32 16L30 16L30 15L31 15L31 14L32 14L32 15L34 15L34 16L35 16L35 17L34 17L34 18L35 18L35 19L34 19L34 20L35 20L35 21L32 21L32 20L31 20L31 19L30 19L30 18L29 18L29 20L28 20L28 16L27 16L27 15L26 15L26 16L25 16L25 15L24 15L24 14L23 14L23 13L25 13L25 14L27 14L27 13L25 13L25 12L24 12L24 11L25 11L25 9L26 9L26 8L27 8L27 6L26 6L26 4L25 4L25 6L24 6L24 9L23 9L23 8L22 8L22 7L23 7L23 6L22 6L22 5L21 5L21 6L20 6L20 9L19 9L19 10L18 10L18 11L17 11L17 8L16 8L16 7L17 7L17 4L19 4L19 3L21 3L21 4L22 4L22 3L23 3L23 2L24 2L24 3L25 3L25 2L26 2L26 3L28 3L28 2L30 2L30 0L29 0L29 1L28 1L28 0L27 0L27 1L26 1L26 0L25 0L25 2L24 2L24 1L23 1L23 2L22 2L22 0L21 0L21 1L20 1L20 2L19 2L19 0ZM27 1L27 2L28 2L28 1ZM27 4L27 5L28 5L28 4ZM12 5L12 6L11 6L11 7L10 7L10 6L9 6L9 8L8 8L8 9L9 9L9 8L12 8L12 6L13 6L13 9L12 9L12 11L11 11L11 13L10 13L10 14L9 14L9 12L10 12L10 10L9 10L9 12L8 12L8 11L6 11L6 10L7 10L7 9L6 9L6 10L4 10L4 11L5 11L5 13L4 13L4 12L3 12L3 13L4 13L4 14L3 14L3 15L4 15L4 16L3 16L3 17L4 17L4 16L7 16L7 15L5 15L5 14L9 14L9 15L10 15L10 18L11 18L11 19L12 19L12 22L10 22L10 19L9 19L9 17L5 17L5 18L7 18L7 19L6 19L6 20L5 20L5 19L4 19L4 20L5 20L5 21L4 21L4 22L3 22L3 23L2 23L2 26L1 26L1 28L2 28L2 26L3 26L3 27L5 27L5 28L8 28L8 29L6 29L6 30L8 30L8 29L9 29L9 30L12 30L12 32L11 32L11 33L12 33L12 32L13 32L13 33L14 33L14 31L15 31L15 34L14 34L14 35L15 35L15 36L14 36L14 38L15 38L15 36L17 36L17 38L18 38L18 39L19 39L19 38L21 38L21 39L22 39L22 38L21 38L21 37L26 37L26 38L27 38L27 37L28 37L28 38L30 38L30 39L31 39L31 38L30 38L30 37L31 37L31 36L32 36L32 35L30 35L30 34L32 34L32 32L31 32L31 30L30 30L30 32L31 32L31 33L30 33L30 34L29 34L29 33L28 33L28 32L27 32L27 33L28 33L28 35L29 35L29 37L28 37L28 36L22 36L22 34L23 34L23 35L25 35L25 33L26 33L26 31L24 31L24 30L26 30L26 29L27 29L27 30L28 30L28 31L29 31L29 29L28 29L28 28L27 28L27 27L26 27L26 26L27 26L27 25L25 25L25 24L27 24L27 23L26 23L26 20L27 20L27 21L28 21L28 23L29 23L29 21L30 21L30 25L31 25L31 28L30 28L30 29L31 29L31 28L33 28L33 29L32 29L32 31L33 31L33 32L34 32L34 31L36 31L36 32L37 32L37 30L38 30L38 29L37 29L37 28L36 28L36 29L35 29L35 28L34 28L34 27L32 27L32 25L35 25L35 26L36 26L36 27L37 27L37 26L36 26L36 25L37 25L37 24L39 24L39 23L40 23L40 22L39 22L39 23L37 23L37 22L36 22L36 21L35 21L35 23L36 23L36 25L35 25L35 24L33 24L33 23L34 23L34 22L32 22L32 21L30 21L30 20L29 20L29 21L28 21L28 20L27 20L27 18L26 18L26 20L25 20L25 18L24 18L24 17L25 17L25 16L24 16L24 15L22 15L22 14L21 14L21 13L23 13L23 12L21 12L21 10L20 10L20 11L18 11L18 12L15 12L15 11L14 11L14 12L13 12L13 13L14 13L14 14L15 14L15 16L17 16L17 15L18 15L18 16L19 16L19 17L18 17L18 18L19 18L19 17L21 17L21 19L20 19L20 20L22 20L22 18L24 18L24 19L23 19L23 20L24 20L24 21L19 21L19 19L18 19L18 20L17 20L17 19L16 19L16 17L15 17L15 18L14 18L14 16L12 16L12 15L10 15L10 14L12 14L12 11L13 11L13 10L14 10L14 8L15 8L15 7L14 7L14 6L13 6L13 5ZM18 6L18 8L19 8L19 6ZM21 6L21 7L22 7L22 6ZM25 6L25 7L26 7L26 6ZM31 6L31 7L30 7L30 8L32 8L32 6ZM21 8L21 9L22 9L22 8ZM15 9L15 10L16 10L16 9ZM30 9L30 11L31 11L31 13L33 13L33 14L35 14L35 16L36 16L36 17L35 17L35 18L36 18L36 17L37 17L37 19L38 19L38 21L39 21L39 20L40 20L40 19L38 19L38 17L39 17L39 16L40 16L40 15L39 15L39 14L38 14L38 13L37 13L37 11L36 11L36 9L35 9L35 10L32 10L32 9ZM22 10L22 11L24 11L24 10ZM1 11L1 12L2 12L2 11ZM33 11L33 13L35 13L35 12L36 12L36 11L35 11L35 12L34 12L34 11ZM38 11L38 12L39 12L39 11ZM6 12L6 13L7 13L7 12ZM14 12L14 13L15 13L15 14L16 14L16 15L17 15L17 13L15 13L15 12ZM19 12L19 13L18 13L18 15L19 15L19 16L21 16L21 17L22 17L22 16L21 16L21 15L20 15L20 14L19 14L19 13L20 13L20 12ZM29 13L29 15L30 15L30 13ZM36 13L36 15L38 15L38 14L37 14L37 13ZM0 15L0 22L1 22L1 15ZM23 16L23 17L24 17L24 16ZM26 16L26 17L27 17L27 16ZM12 17L12 19L13 19L13 20L14 20L14 18L13 18L13 17ZM7 19L7 20L6 20L6 21L7 21L7 22L4 22L4 23L3 23L3 26L4 26L4 23L7 23L7 24L5 24L5 25L8 25L8 23L7 23L7 22L9 22L9 21L7 21L7 20L8 20L8 19ZM15 19L15 21L13 21L13 22L14 22L14 24L15 24L15 25L13 25L13 23L11 23L11 24L10 24L10 23L9 23L9 26L10 26L10 27L9 27L9 28L10 28L10 29L11 29L11 28L10 28L10 27L11 27L11 26L12 26L12 27L15 27L15 25L16 25L16 26L18 26L18 27L17 27L17 28L16 28L16 29L17 29L17 30L18 30L18 31L16 31L16 32L18 32L18 34L17 34L17 33L16 33L16 34L15 34L15 35L16 35L16 34L17 34L17 36L19 36L19 37L20 37L20 36L19 36L19 35L21 35L21 34L22 34L22 33L25 33L25 32L24 32L24 31L23 31L23 30L22 30L22 29L23 29L23 28L24 28L24 29L26 29L26 28L24 28L24 27L25 27L25 26L24 26L24 25L23 25L23 22L19 22L19 24L18 24L18 25L17 25L17 23L18 23L18 22L16 22L16 19ZM35 19L35 20L36 20L36 19ZM20 23L20 24L19 24L19 25L18 25L18 26L22 26L22 27L21 27L21 29L20 29L20 30L19 30L19 31L18 31L18 32L19 32L19 33L21 33L21 32L22 32L22 31L21 31L21 29L22 29L22 27L24 27L24 26L23 26L23 25L22 25L22 24L21 24L21 23ZM11 24L11 25L10 25L10 26L11 26L11 25L12 25L12 26L13 26L13 25L12 25L12 24ZM28 24L28 25L29 25L29 24ZM5 26L5 27L7 27L7 26ZM28 26L28 27L29 27L29 26ZM18 27L18 29L19 29L19 28L20 28L20 27ZM12 29L12 30L14 30L14 29ZM33 29L33 30L34 30L34 29ZM36 29L36 30L37 30L37 29ZM39 29L39 30L40 30L40 29ZM20 31L20 32L21 32L21 31ZM0 32L0 33L3 33L3 32ZM6 32L6 33L7 33L7 32ZM33 33L33 36L36 36L36 33ZM26 34L26 35L27 35L27 34ZM34 34L34 35L35 35L35 34ZM40 37L40 38L38 38L38 39L36 39L36 40L37 40L37 41L40 41L40 40L41 40L41 37ZM34 39L34 40L35 40L35 39ZM0 0L0 7L7 7L7 0ZM1 1L1 6L6 6L6 1ZM2 2L2 5L5 5L5 2ZM34 0L34 7L41 7L41 0ZM35 1L35 6L40 6L40 1ZM36 2L36 5L39 5L39 2ZM0 34L0 41L7 41L7 34ZM1 35L1 40L6 40L6 35ZM2 36L2 39L5 39L5 36Z" fill="#000000"/></g></g></svg>
