<?xml version="1.0" encoding="UTF-8"?>
<svg xmlns="http://www.w3.org/2000/svg" version="1.1" width="200" height="200" viewBox="0 0 200 200"><rect x="0" y="0" width="200" height="200" fill="#ffffff"/><g transform="scale(4.878)"><g transform="translate(0,0)"><path fill-rule="evenodd" d="M8 0L8 3L9 3L9 1L10 1L10 0ZM11 0L11 1L12 1L12 0ZM15 0L15 1L14 1L14 3L15 3L15 4L13 4L13 5L12 5L12 7L13 7L13 6L14 6L14 7L15 7L15 8L12 8L12 9L9 9L9 5L11 5L11 4L12 4L12 3L13 3L13 2L11 2L11 3L10 3L10 4L9 4L9 5L8 5L8 9L9 9L9 10L5 10L5 12L4 12L4 13L5 13L5 14L3 14L3 17L5 17L5 18L6 18L6 19L3 19L3 21L2 21L2 22L0 22L0 26L1 26L1 27L0 27L0 28L1 28L1 27L2 27L2 26L3 26L3 28L2 28L2 29L0 29L0 33L1 33L1 30L2 30L2 33L4 33L4 32L5 32L5 30L6 30L6 31L7 31L7 32L6 32L6 33L8 33L8 34L9 34L9 33L10 33L10 31L9 31L9 30L10 30L10 29L9 29L9 30L8 30L8 29L7 29L7 28L10 28L10 27L9 27L9 26L10 26L10 25L11 25L11 28L12 28L12 27L13 27L13 28L16 28L16 29L17 29L17 31L14 31L14 30L13 30L13 29L12 29L12 31L11 31L11 32L17 32L17 34L16 34L16 33L15 33L15 34L14 34L14 35L16 35L16 36L15 36L15 37L13 37L13 40L12 40L12 38L11 38L11 37L12 37L12 36L10 36L10 38L11 38L11 39L9 39L9 36L8 36L8 39L9 39L9 41L10 41L10 40L12 40L12 41L14 41L14 40L15 40L15 41L16 41L16 40L17 40L17 41L22 41L22 40L21 40L21 39L22 39L22 37L23 37L23 40L24 40L24 41L25 41L25 40L26 40L26 39L27 39L27 41L28 41L28 39L30 39L30 40L29 40L29 41L30 41L30 40L33 40L33 41L34 41L34 40L33 40L33 39L32 39L32 37L33 37L33 38L34 38L34 39L35 39L35 40L36 40L36 39L37 39L37 36L38 36L38 37L39 37L39 40L40 40L40 38L41 38L41 37L39 37L39 36L38 36L38 35L40 35L40 34L41 34L41 33L40 33L40 32L38 32L38 31L40 31L40 30L41 30L41 29L40 29L40 28L41 28L41 27L40 27L40 26L41 26L41 23L40 23L40 26L39 26L39 24L37 24L37 25L30 25L30 24L28 24L28 23L31 23L31 22L33 22L33 21L34 21L34 22L36 22L36 21L38 21L38 22L39 22L39 20L36 20L36 19L35 19L35 17L36 17L36 18L38 18L38 17L39 17L39 18L41 18L41 16L40 16L40 17L39 17L39 16L37 16L37 15L38 15L38 14L37 14L37 13L36 13L36 14L35 14L35 15L36 15L36 16L35 16L35 17L34 17L34 16L33 16L33 15L34 15L34 14L33 14L33 13L34 13L34 12L33 12L33 13L32 13L32 14L31 14L31 12L29 12L29 11L28 11L28 10L29 10L29 9L31 9L31 10L32 10L32 11L34 11L34 10L35 10L35 11L36 11L36 12L38 12L38 11L40 11L40 10L41 10L41 8L38 8L38 9L40 9L40 10L37 10L37 9L36 9L36 8L32 8L32 7L33 7L33 5L32 5L32 4L33 4L33 2L31 2L31 1L32 1L32 0L31 0L31 1L30 1L30 2L31 2L31 3L30 3L30 4L31 4L31 5L27 5L27 6L26 6L26 4L27 4L27 3L28 3L28 4L29 4L29 1L27 1L27 0L25 0L25 3L24 3L24 2L23 2L23 3L24 3L24 4L23 4L23 5L22 5L22 4L18 4L18 5L17 5L17 6L16 6L16 7L15 7L15 4L16 4L16 2L20 2L20 3L21 3L21 2L22 2L22 1L21 1L21 0L19 0L19 1L16 1L16 0ZM15 1L15 2L16 2L16 1ZM26 2L26 3L25 3L25 4L24 4L24 5L23 5L23 7L22 7L22 5L20 5L20 6L19 6L19 7L20 7L20 6L21 6L21 8L18 8L18 6L17 6L17 7L16 7L16 8L15 8L15 9L16 9L16 8L18 8L18 10L16 10L16 12L15 12L15 15L13 15L13 13L14 13L14 11L15 11L15 10L14 10L14 9L13 9L13 10L12 10L12 12L11 12L11 13L12 13L12 16L11 16L11 17L10 17L10 18L12 18L12 16L13 16L13 17L14 17L14 18L13 18L13 19L15 19L15 20L12 20L12 19L9 19L9 16L10 16L10 15L9 15L9 16L8 16L8 15L4 15L4 16L5 16L5 17L6 17L6 18L7 18L7 19L6 19L6 20L7 20L7 19L9 19L9 20L11 20L11 22L10 22L10 21L9 21L9 23L8 23L8 21L4 21L4 22L7 22L7 23L6 23L6 24L7 24L7 25L6 25L6 26L9 26L9 25L10 25L10 24L11 24L11 25L12 25L12 24L11 24L11 22L12 22L12 21L14 21L14 22L13 22L13 23L14 23L14 24L15 24L15 23L16 23L16 26L15 26L15 25L14 25L14 26L13 26L13 27L14 27L14 26L15 26L15 27L16 27L16 28L18 28L18 29L20 29L20 32L21 32L21 33L22 33L22 34L23 34L23 35L22 35L22 36L24 36L24 40L25 40L25 39L26 39L26 38L31 38L31 37L32 37L32 36L31 36L31 35L30 35L30 34L32 34L32 32L35 32L35 31L38 31L38 30L39 30L39 26L38 26L38 28L36 28L36 27L35 27L35 28L36 28L36 29L34 29L34 28L33 28L33 29L32 29L32 27L34 27L34 26L29 26L29 25L28 25L28 24L27 24L27 23L24 23L24 22L25 22L25 21L24 21L24 20L26 20L26 21L27 21L27 22L30 22L30 21L33 21L33 20L34 20L34 21L36 21L36 20L35 20L35 19L34 19L34 18L31 18L31 17L30 17L30 19L33 19L33 20L29 20L29 21L27 21L27 18L28 18L28 19L29 19L29 16L30 16L30 15L31 15L31 14L30 14L30 13L28 13L28 14L29 14L29 15L28 15L28 17L27 17L27 14L23 14L23 15L26 15L26 17L25 17L25 16L24 16L24 18L26 18L26 19L22 19L22 18L23 18L23 16L21 16L21 17L20 17L20 19L19 19L19 16L20 16L20 15L22 15L22 14L21 14L21 13L23 13L23 11L24 11L24 13L25 13L25 9L24 9L24 10L23 10L23 9L21 9L21 8L23 8L23 7L24 7L24 8L25 8L25 7L26 7L26 6L25 6L25 4L26 4L26 3L27 3L27 2ZM31 3L31 4L32 4L32 3ZM31 5L31 7L32 7L32 5ZM10 6L10 8L11 8L11 6ZM24 6L24 7L25 7L25 6ZM27 6L27 7L28 7L28 6ZM29 6L29 8L28 8L28 9L27 9L27 10L26 10L26 11L27 11L27 12L26 12L26 13L27 13L27 12L28 12L28 11L27 11L27 10L28 10L28 9L29 9L29 8L30 8L30 6ZM2 8L2 11L1 11L1 9L0 9L0 11L1 11L1 12L0 12L0 14L1 14L1 15L2 15L2 13L1 13L1 12L2 12L2 11L3 11L3 10L4 10L4 9L5 9L5 8ZM6 8L6 9L7 9L7 8ZM31 8L31 9L32 9L32 10L34 10L34 9L32 9L32 8ZM35 9L35 10L36 10L36 9ZM10 10L10 11L6 11L6 12L5 12L5 13L6 13L6 14L7 14L7 13L9 13L9 14L10 14L10 11L11 11L11 10ZM13 10L13 11L14 11L14 10ZM22 10L22 11L23 11L23 10ZM18 11L18 13L21 13L21 11L20 11L20 12L19 12L19 11ZM6 12L6 13L7 13L7 12ZM12 12L12 13L13 13L13 12ZM39 12L39 13L40 13L40 14L39 14L39 15L40 15L40 14L41 14L41 13L40 13L40 12ZM17 14L17 15L15 15L15 16L16 16L16 17L17 17L17 18L16 18L16 20L15 20L15 21L16 21L16 22L17 22L17 25L18 25L18 26L16 26L16 27L19 27L19 26L20 26L20 28L21 28L21 30L22 30L22 31L21 31L21 32L22 32L22 33L23 33L23 34L25 34L25 35L24 35L24 36L25 36L25 35L26 35L26 37L25 37L25 38L26 38L26 37L29 37L29 36L27 36L27 35L28 35L28 34L29 34L29 33L31 33L31 32L29 32L29 31L30 31L30 30L31 30L31 29L30 29L30 28L29 28L29 29L28 29L28 28L27 28L27 27L28 27L28 26L25 26L25 25L27 25L27 24L25 24L25 25L23 25L23 28L22 28L22 25L21 25L21 24L23 24L23 22L24 22L24 21L22 21L22 20L21 20L21 19L20 19L20 20L19 20L19 19L17 19L17 18L18 18L18 16L19 16L19 15L20 15L20 14L19 14L19 15L18 15L18 14ZM32 14L32 15L33 15L33 14ZM0 16L0 17L2 17L2 16ZM6 16L6 17L7 17L7 16ZM32 16L32 17L33 17L33 16ZM36 16L36 17L37 17L37 16ZM26 17L26 18L27 18L27 17ZM0 18L0 19L1 19L1 20L2 20L2 18ZM16 20L16 21L17 21L17 22L19 22L19 23L18 23L18 25L20 25L20 26L21 26L21 25L20 25L20 23L21 23L21 22L20 22L20 21L21 21L21 20L20 20L20 21L18 21L18 20ZM40 20L40 21L41 21L41 20ZM2 22L2 23L3 23L3 22ZM4 23L4 25L5 25L5 23ZM7 23L7 24L8 24L8 25L9 25L9 24L8 24L8 23ZM35 23L35 24L36 24L36 23ZM1 25L1 26L2 26L2 25ZM24 26L24 28L25 28L25 26ZM4 27L4 30L3 30L3 29L2 29L2 30L3 30L3 31L4 31L4 30L5 30L5 29L6 29L6 30L7 30L7 29L6 29L6 28L7 28L7 27ZM22 29L22 30L23 30L23 29ZM24 29L24 30L25 30L25 29ZM26 29L26 32L25 32L25 34L28 34L28 33L29 33L29 32L28 32L28 31L29 31L29 30L30 30L30 29L29 29L29 30L27 30L27 29ZM33 29L33 30L32 30L32 31L33 31L33 30L34 30L34 31L35 31L35 30L34 30L34 29ZM36 29L36 30L37 30L37 29ZM18 31L18 32L19 32L19 31ZM22 31L22 32L23 32L23 33L24 33L24 32L23 32L23 31ZM26 32L26 33L27 33L27 32ZM37 32L37 34L39 34L39 33L38 33L38 32ZM18 33L18 34L17 34L17 36L16 36L16 37L15 37L15 38L14 38L14 39L16 39L16 37L18 37L18 39L19 39L19 40L20 40L20 39L21 39L21 38L20 38L20 37L21 37L21 34L20 34L20 33ZM33 33L33 36L36 36L36 33ZM11 34L11 35L12 35L12 34ZM18 34L18 35L19 35L19 37L20 37L20 35L19 35L19 34ZM34 34L34 35L35 35L35 34ZM30 36L30 37L31 37L31 36ZM34 37L34 38L36 38L36 37ZM19 38L19 39L20 39L20 38ZM0 0L0 7L7 7L7 0ZM1 1L1 6L6 6L6 1ZM2 2L2 5L5 5L5 2ZM34 0L34 7L41 7L41 0ZM35 1L35 6L40 6L40 1ZM36 2L36 5L39 5L39 2ZM0 34L0 41L7 41L7 34ZM1 35L1 40L6 40L6 35ZM2 36L2 39L5 39L5 36Z" fill="#000000"/></g></g></svg>
