<?xml version="1.0" encoding="UTF-8"?>
<svg xmlns="http://www.w3.org/2000/svg" version="1.1" width="200" height="200" viewBox="0 0 200 200"><rect x="0" y="0" width="200" height="200" fill="#ffffff"/><g transform="scale(6.897)"><g transform="translate(0,0)"><path fill-rule="evenodd" d="M9 0L9 1L8 1L8 7L9 7L9 8L5 8L5 9L7 9L7 10L4 10L4 11L3 11L3 8L2 8L2 9L1 9L1 10L0 10L0 11L1 11L1 10L2 10L2 12L1 12L1 13L3 13L3 14L1 14L1 16L2 16L2 15L3 15L3 17L4 17L4 19L3 19L3 21L5 21L5 20L4 20L4 19L7 19L7 20L6 20L6 21L8 21L8 24L9 24L9 23L10 23L10 25L11 25L11 22L13 22L13 23L12 23L12 25L14 25L14 24L15 24L15 26L16 26L16 27L17 27L17 26L18 26L18 25L17 25L17 24L19 24L19 26L20 26L20 27L21 27L21 29L22 29L22 28L24 28L24 29L25 29L25 28L27 28L27 29L29 29L29 26L27 26L27 27L26 27L26 26L25 26L25 28L24 28L24 26L23 26L23 27L22 27L22 26L21 26L21 25L25 25L25 23L26 23L26 21L27 21L27 23L28 23L28 22L29 22L29 21L27 21L27 19L26 19L26 18L28 18L28 19L29 19L29 18L28 18L28 17L29 17L29 16L27 16L27 17L25 17L25 16L22 16L22 15L25 15L25 14L26 14L26 13L28 13L28 15L29 15L29 12L27 12L27 11L29 11L29 9L28 9L28 8L23 8L23 10L22 10L22 11L21 11L21 9L22 9L22 8L20 8L20 7L21 7L21 0L19 0L19 1L20 1L20 2L19 2L19 3L20 3L20 5L16 5L16 4L17 4L17 3L18 3L18 2L16 2L16 4L15 4L15 2L13 2L13 0L11 0L11 2L10 2L10 4L11 4L11 3L12 3L12 5L11 5L11 6L10 6L10 7L9 7L9 1L10 1L10 0ZM17 0L17 1L18 1L18 0ZM12 2L12 3L13 3L13 2ZM13 4L13 5L12 5L12 6L11 6L11 8L9 8L9 9L8 9L8 10L10 10L10 12L7 12L7 11L6 11L6 12L5 12L5 11L4 11L4 12L5 12L5 13L4 13L4 14L5 14L5 15L4 15L4 17L5 17L5 18L9 18L9 19L8 19L8 20L9 20L9 22L11 22L11 21L14 21L14 20L15 20L15 21L17 21L17 22L14 22L14 23L15 23L15 24L16 24L16 23L17 23L17 22L20 22L20 21L19 21L19 20L22 20L22 19L21 19L21 15L18 15L18 14L22 14L22 12L21 12L21 13L20 13L20 12L19 12L19 11L20 11L20 8L19 8L19 7L20 7L20 6L19 6L19 7L18 7L18 6L17 6L17 7L16 7L16 6L15 6L15 5L14 5L14 4ZM12 6L12 7L13 7L13 9L14 9L14 10L12 10L12 8L11 8L11 9L10 9L10 10L12 10L12 12L11 12L11 13L9 13L9 15L11 15L11 16L10 16L10 17L11 17L11 18L10 18L10 19L9 19L9 20L10 20L10 19L12 19L12 17L13 17L13 16L14 16L14 17L15 17L15 15L16 15L16 18L17 18L17 17L18 17L18 18L19 18L19 19L18 19L18 20L19 20L19 19L20 19L20 18L19 18L19 17L20 17L20 16L19 16L19 17L18 17L18 15L16 15L16 14L17 14L17 10L18 10L18 7L17 7L17 10L16 10L16 12L15 12L15 8L14 8L14 7L15 7L15 6L14 6L14 7L13 7L13 6ZM25 9L25 10L24 10L24 11L27 11L27 10L28 10L28 9ZM13 11L13 13L14 13L14 14L12 14L12 15L14 15L14 14L16 14L16 13L14 13L14 11ZM6 12L6 13L7 13L7 14L6 14L6 15L5 15L5 16L6 16L6 17L7 17L7 16L8 16L8 17L9 17L9 16L8 16L8 15L7 15L7 14L8 14L8 13L7 13L7 12ZM18 12L18 13L19 13L19 12ZM23 12L23 14L25 14L25 13L24 13L24 12ZM6 15L6 16L7 16L7 15ZM11 16L11 17L12 17L12 16ZM1 17L1 18L0 18L0 19L2 19L2 17ZM22 17L22 18L25 18L25 17ZM13 18L13 19L14 19L14 18ZM16 19L16 20L17 20L17 19ZM23 19L23 20L26 20L26 19ZM0 20L0 21L2 21L2 20ZM21 21L21 24L24 24L24 21ZM22 22L22 23L23 23L23 22ZM19 23L19 24L20 24L20 23ZM26 24L26 25L29 25L29 24ZM8 26L8 27L9 27L9 26ZM10 26L10 28L9 28L9 29L12 29L12 28L11 28L11 27L14 27L14 26ZM27 27L27 28L28 28L28 27ZM15 28L15 29L16 29L16 28ZM18 28L18 29L19 29L19 28ZM0 0L0 7L7 7L7 0ZM1 1L1 6L6 6L6 1ZM2 2L2 5L5 5L5 2ZM22 0L22 7L29 7L29 0ZM23 1L23 6L28 6L28 1ZM24 2L24 5L27 5L27 2ZM0 22L0 29L7 29L7 22ZM1 23L1 28L6 28L6 23ZM2 24L2 27L5 27L5 24Z" fill="#000000"/></g></g></svg>
