<?xml version="1.0" encoding="UTF-8"?>
<svg xmlns="http://www.w3.org/2000/svg" version="1.1" width="200" height="200" viewBox="0 0 200 200"><rect x="0" y="0" width="200" height="200" fill="#ffffff"/><g transform="scale(4.878)"><g transform="translate(0,0)"><path fill-rule="evenodd" d="M8 0L8 1L9 1L9 0ZM10 0L10 3L9 3L9 2L8 2L8 3L9 3L9 4L8 4L8 5L9 5L9 6L8 6L8 8L9 8L9 6L10 6L10 7L11 7L11 6L12 6L12 7L13 7L13 8L11 8L11 9L10 9L10 12L9 12L9 13L7 13L7 12L6 12L6 11L9 11L9 10L8 10L8 9L7 9L7 8L5 8L5 9L4 9L4 10L3 10L3 9L1 9L1 13L0 13L0 14L1 14L1 13L2 13L2 10L3 10L3 14L4 14L4 15L5 15L5 14L4 14L4 10L6 10L6 11L5 11L5 12L6 12L6 13L7 13L7 14L6 14L6 15L7 15L7 16L4 16L4 19L5 19L5 18L6 18L6 19L7 19L7 20L5 20L5 21L4 21L4 20L3 20L3 21L4 21L4 22L5 22L5 21L7 21L7 20L9 20L9 23L8 23L8 24L6 24L6 23L7 23L7 22L6 22L6 23L2 23L2 20L1 20L1 19L3 19L3 17L0 17L0 20L1 20L1 22L0 22L0 23L2 23L2 24L1 24L1 25L0 25L0 33L1 33L1 31L2 31L2 32L5 32L5 31L8 31L8 32L10 32L10 31L8 31L8 30L9 30L9 28L8 28L8 26L9 26L9 24L10 24L10 25L11 25L11 24L12 24L12 26L11 26L11 28L12 28L12 26L13 26L13 29L14 29L14 30L13 30L13 31L12 31L12 29L10 29L10 30L11 30L11 31L12 31L12 33L13 33L13 32L15 32L15 31L16 31L16 28L17 28L17 27L19 27L19 24L20 24L20 28L19 28L19 29L17 29L17 31L18 31L18 30L19 30L19 31L20 31L20 28L21 28L21 29L23 29L23 26L24 26L24 28L25 28L25 30L24 30L24 33L23 33L23 32L22 32L22 33L23 33L23 34L21 34L21 32L20 32L20 33L19 33L19 32L18 32L18 33L17 33L17 32L16 32L16 33L17 33L17 35L16 35L16 34L15 34L15 33L14 33L14 34L15 34L15 35L13 35L13 37L11 37L11 39L10 39L10 36L9 36L9 35L11 35L11 36L12 36L12 35L11 35L11 33L8 33L8 34L9 34L9 35L8 35L8 36L9 36L9 40L11 40L11 41L12 41L12 40L13 40L13 41L14 41L14 39L15 39L15 35L16 35L16 37L17 37L17 41L18 41L18 37L19 37L19 36L20 36L20 35L24 35L24 34L25 34L25 37L26 37L26 36L27 36L27 38L25 38L25 39L24 39L24 38L23 38L23 39L22 39L22 40L21 40L21 39L20 39L20 38L19 38L19 40L20 40L20 41L22 41L22 40L23 40L23 41L26 41L26 40L25 40L25 39L27 39L27 41L32 41L32 40L31 40L31 39L32 39L32 37L33 37L33 41L34 41L34 40L36 40L36 39L37 39L37 40L38 40L38 39L40 39L40 40L41 40L41 39L40 39L40 38L41 38L41 35L40 35L40 34L39 34L39 33L41 33L41 32L34 32L34 31L33 31L33 30L34 30L34 28L41 28L41 27L40 27L40 26L41 26L41 25L39 25L39 24L37 24L37 20L38 20L38 22L41 22L41 20L40 20L40 19L41 19L41 15L38 15L38 13L40 13L40 14L41 14L41 11L40 11L40 9L41 9L41 8L40 8L40 9L39 9L39 8L38 8L38 10L37 10L37 8L36 8L36 10L34 10L34 9L35 9L35 8L34 8L34 9L33 9L33 10L34 10L34 12L35 12L35 13L36 13L36 14L35 14L35 15L34 15L34 14L32 14L32 16L33 16L33 17L31 17L31 16L29 16L29 17L31 17L31 18L28 18L28 17L27 17L27 18L26 18L26 19L27 19L27 20L25 20L25 19L23 19L23 17L25 17L25 16L28 16L28 15L25 15L25 16L23 16L23 15L20 15L20 14L19 14L19 13L21 13L21 14L23 14L23 13L26 13L26 14L27 14L27 11L28 11L28 10L29 10L29 9L30 9L30 10L32 10L32 9L30 9L30 8L25 8L25 6L26 6L26 7L27 7L27 6L26 6L26 5L27 5L27 4L28 4L28 3L32 3L32 4L30 4L30 7L31 7L31 5L33 5L33 3L32 3L32 2L30 2L30 1L29 1L29 0L28 0L28 2L26 2L26 5L25 5L25 2L24 2L24 1L22 1L22 0L21 0L21 2L20 2L20 0L19 0L19 2L18 2L18 3L17 3L17 2L15 2L15 3L16 3L16 4L17 4L17 5L18 5L18 10L19 10L19 9L20 9L20 10L21 10L21 12L19 12L19 11L17 11L17 13L15 13L15 12L14 12L14 13L13 13L13 14L14 14L14 15L13 15L13 16L15 16L15 18L14 18L14 17L12 17L12 16L11 16L11 14L12 14L12 12L13 12L13 11L14 11L14 10L16 10L16 8L17 8L17 6L16 6L16 5L15 5L15 4L14 4L14 5L13 5L13 4L12 4L12 3L14 3L14 0L13 0L13 2L12 2L12 1L11 1L11 0ZM16 0L16 1L18 1L18 0ZM25 0L25 1L26 1L26 0ZM32 0L32 1L33 1L33 0ZM11 2L11 3L12 3L12 2ZM23 2L23 3L19 3L19 5L20 5L20 6L19 6L19 7L20 7L20 8L21 8L21 10L24 10L24 9L25 9L25 11L24 11L24 12L25 12L25 11L27 11L27 10L26 10L26 9L25 9L25 8L24 8L24 4L23 4L23 3L24 3L24 2ZM9 4L9 5L10 5L10 6L11 6L11 4ZM21 4L21 5L23 5L23 4ZM12 5L12 6L13 6L13 7L14 7L14 8L13 8L13 10L12 10L12 11L11 11L11 12L10 12L10 13L9 13L9 14L10 14L10 13L11 13L11 12L12 12L12 11L13 11L13 10L14 10L14 8L15 8L15 7L16 7L16 6L15 6L15 5L14 5L14 6L13 6L13 5ZM28 5L28 7L29 7L29 5ZM14 6L14 7L15 7L15 6ZM20 6L20 7L21 7L21 6ZM22 6L22 8L23 8L23 6ZM32 6L32 7L33 7L33 6ZM6 9L6 10L7 10L7 9ZM35 11L35 12L36 12L36 13L37 13L37 12L36 12L36 11ZM38 11L38 12L40 12L40 11ZM21 12L21 13L23 13L23 12ZM28 12L28 14L30 14L30 15L31 15L31 13L32 13L32 12L30 12L30 13L29 13L29 12ZM14 13L14 14L15 14L15 16L16 16L16 15L17 15L17 17L16 17L16 19L14 19L14 20L13 20L13 19L11 19L11 18L12 18L12 17L11 17L11 16L7 16L7 17L6 17L6 18L7 18L7 19L10 19L10 21L11 21L11 22L10 22L10 23L11 23L11 22L12 22L12 21L13 21L13 24L16 24L16 27L14 27L14 29L15 29L15 28L16 28L16 27L17 27L17 26L18 26L18 24L19 24L19 23L20 23L20 24L21 24L21 26L22 26L22 24L23 24L23 25L24 25L24 26L25 26L25 25L26 25L26 27L25 27L25 28L26 28L26 30L28 30L28 31L26 31L26 32L25 32L25 33L26 33L26 35L27 35L27 36L28 36L28 35L29 35L29 34L28 34L28 35L27 35L27 32L30 32L30 33L31 33L31 34L30 34L30 35L31 35L31 34L32 34L32 33L31 33L31 32L30 32L30 29L31 29L31 31L32 31L32 29L33 29L33 26L34 26L34 27L36 27L36 26L34 26L34 23L35 23L35 24L36 24L36 25L37 25L37 24L36 24L36 23L35 23L35 22L36 22L36 21L35 21L35 18L36 18L36 20L37 20L37 19L38 19L38 20L39 20L39 21L40 21L40 20L39 20L39 19L38 19L38 18L39 18L39 17L40 17L40 16L39 16L39 17L38 17L38 16L36 16L36 17L35 17L35 16L34 16L34 17L33 17L33 19L32 19L32 20L31 20L31 19L29 19L29 23L28 23L28 28L30 28L30 29L27 29L27 23L26 23L26 24L25 24L25 22L26 22L26 21L25 21L25 20L23 20L23 19L22 19L22 18L21 18L21 17L22 17L22 16L21 16L21 17L20 17L20 15L19 15L19 14L18 14L18 15L17 15L17 14L15 14L15 13ZM7 14L7 15L8 15L8 14ZM2 15L2 16L3 16L3 15ZM18 15L18 16L19 16L19 15ZM7 17L7 18L8 18L8 17ZM17 17L17 19L16 19L16 22L15 22L15 20L14 20L14 22L15 22L15 23L16 23L16 22L17 22L17 24L18 24L18 23L19 23L19 22L18 22L18 21L17 21L17 19L18 19L18 20L19 20L19 19L20 19L20 20L22 20L22 21L23 21L23 22L24 22L24 21L23 21L23 20L22 20L22 19L21 19L21 18L20 18L20 17L19 17L19 19L18 19L18 17ZM34 17L34 18L35 18L35 17ZM36 17L36 18L38 18L38 17ZM33 19L33 20L32 20L32 21L31 21L31 20L30 20L30 21L31 21L31 22L33 22L33 23L34 23L34 19ZM11 20L11 21L12 21L12 20ZM20 22L20 23L21 23L21 24L22 24L22 22ZM31 23L31 25L29 25L29 26L32 26L32 23ZM40 23L40 24L41 24L41 23ZM24 24L24 25L25 25L25 24ZM2 25L2 26L1 26L1 27L2 27L2 26L3 26L3 25ZM5 25L5 26L4 26L4 28L7 28L7 27L5 27L5 26L8 26L8 25ZM38 26L38 27L39 27L39 26ZM21 27L21 28L22 28L22 27ZM3 29L3 31L5 31L5 30L4 30L4 29ZM6 29L6 30L7 30L7 29ZM35 29L35 31L41 31L41 29L40 29L40 30L38 30L38 29ZM6 32L6 33L7 33L7 32ZM33 33L33 36L36 36L36 33ZM34 34L34 35L35 35L35 34ZM38 34L38 37L39 37L39 38L40 38L40 37L39 37L39 36L40 36L40 35L39 35L39 34ZM17 35L17 36L18 36L18 35ZM30 36L30 37L29 37L29 38L28 38L28 39L29 39L29 40L30 40L30 39L31 39L31 38L30 38L30 37L31 37L31 36ZM13 37L13 38L12 38L12 39L11 39L11 40L12 40L12 39L14 39L14 37ZM21 37L21 38L22 38L22 37ZM34 37L34 38L36 38L36 37ZM29 38L29 39L30 39L30 38ZM37 38L37 39L38 39L38 38ZM15 40L15 41L16 41L16 40ZM0 0L0 7L7 7L7 0ZM1 1L1 6L6 6L6 1ZM2 2L2 5L5 5L5 2ZM34 0L34 7L41 7L41 0ZM35 1L35 6L40 6L40 1ZM36 2L36 5L39 5L39 2ZM0 34L0 41L7 41L7 34ZM1 35L1 40L6 40L6 35ZM2 36L2 39L5 39L5 36Z" fill="#000000"/></g></g></svg>
