<?xml version="1.0" encoding="UTF-8"?>
<svg xmlns="http://www.w3.org/2000/svg" version="1.1" width="200" height="200" viewBox="0 0 200 200"><rect x="0" y="0" width="200" height="200" fill="#ffffff"/><g transform="scale(6.897)"><g transform="translate(0,0)"><path fill-rule="evenodd" d="M9 0L9 1L8 1L8 7L9 7L9 8L5 8L5 9L7 9L7 10L6 10L6 11L7 11L7 12L5 12L5 10L3 10L3 11L2 11L2 9L3 9L3 8L2 8L2 9L1 9L1 12L0 12L0 14L2 14L2 13L4 13L4 12L5 12L5 13L8 13L8 14L9 14L9 12L10 12L10 11L9 11L9 12L8 12L8 10L9 10L9 9L10 9L10 7L11 7L11 8L12 8L12 9L11 9L11 11L12 11L12 9L13 9L13 8L12 8L12 7L13 7L13 6L14 6L14 8L15 8L15 6L16 6L16 7L17 7L17 10L16 10L16 11L18 11L18 14L19 14L19 15L21 15L21 19L22 19L22 20L19 20L19 19L20 19L20 18L18 18L18 19L15 19L15 17L14 17L14 15L15 15L15 16L17 16L17 17L18 17L18 15L15 15L15 12L12 12L12 13L13 13L13 14L14 14L14 15L12 15L12 14L11 14L11 13L10 13L10 14L11 14L11 16L12 16L12 17L10 17L10 15L9 15L9 17L7 17L7 16L8 16L8 15L7 15L7 14L4 14L4 15L7 15L7 16L4 16L4 17L1 17L1 16L3 16L3 15L1 15L1 16L0 16L0 17L1 17L1 18L0 18L0 19L2 19L2 20L0 20L0 21L2 21L2 20L3 20L3 21L5 21L5 18L6 18L6 19L7 19L7 20L6 20L6 21L8 21L8 24L12 24L12 25L10 25L10 26L11 26L11 27L10 27L10 28L9 28L9 29L10 29L10 28L14 28L14 27L16 27L16 26L15 26L15 25L14 25L14 24L15 24L15 23L14 23L14 22L13 22L13 21L12 21L12 19L13 19L13 18L14 18L14 20L15 20L15 21L16 21L16 20L18 20L18 21L17 21L17 22L16 22L16 23L17 23L17 24L16 24L16 25L19 25L19 26L18 26L18 27L17 27L17 28L15 28L15 29L17 29L17 28L18 28L18 29L19 29L19 28L18 28L18 27L19 27L19 26L20 26L20 27L21 27L21 29L22 29L22 28L24 28L24 29L25 29L25 28L27 28L27 29L29 29L29 26L27 26L27 25L28 25L28 24L26 24L26 27L25 27L25 28L24 28L24 26L23 26L23 27L22 27L22 26L21 26L21 25L25 25L25 23L26 23L26 21L27 21L27 20L26 20L26 19L27 19L27 18L28 18L28 19L29 19L29 18L28 18L28 17L29 17L29 16L27 16L27 17L25 17L25 16L22 16L22 15L25 15L25 14L26 14L26 13L29 13L29 12L27 12L27 11L29 11L29 9L28 9L28 8L23 8L23 10L22 10L22 11L21 11L21 9L22 9L22 8L21 8L21 0L19 0L19 1L20 1L20 2L19 2L19 3L20 3L20 5L19 5L19 4L18 4L18 5L16 5L16 4L15 4L15 3L14 3L14 4L13 4L13 3L10 3L10 2L9 2L9 1L10 1L10 0ZM11 0L11 2L13 2L13 1L15 1L15 0ZM17 0L17 1L16 1L16 3L18 3L18 2L17 2L17 1L18 1L18 0ZM11 4L11 5L12 5L12 6L11 6L11 7L12 7L12 6L13 6L13 4ZM14 4L14 6L15 6L15 4ZM9 6L9 7L10 7L10 6ZM17 6L17 7L18 7L18 11L20 11L20 8L19 8L19 7L20 7L20 6L19 6L19 7L18 7L18 6ZM25 9L25 10L24 10L24 11L27 11L27 10L28 10L28 9ZM3 11L3 12L4 12L4 11ZM1 12L1 13L2 13L2 12ZM19 12L19 14L22 14L22 12L21 12L21 13L20 13L20 12ZM23 12L23 14L25 14L25 13L24 13L24 12ZM27 14L27 15L29 15L29 14ZM19 16L19 17L20 17L20 16ZM4 17L4 18L2 18L2 19L3 19L3 20L4 20L4 18L5 18L5 17ZM6 17L6 18L7 18L7 17ZM9 17L9 18L8 18L8 19L9 19L9 23L10 23L10 20L11 20L11 19L12 19L12 18L13 18L13 17L12 17L12 18L11 18L11 19L10 19L10 17ZM22 17L22 18L25 18L25 19L26 19L26 18L25 18L25 17ZM23 19L23 20L24 20L24 19ZM18 21L18 22L17 22L17 23L18 23L18 22L20 22L20 21ZM21 21L21 24L24 24L24 21ZM11 22L11 23L12 23L12 22ZM22 22L22 23L23 23L23 22ZM28 22L28 23L29 23L29 22ZM13 23L13 24L14 24L14 23ZM19 23L19 24L20 24L20 23ZM12 25L12 27L14 27L14 25ZM8 26L8 27L9 27L9 26ZM27 27L27 28L28 28L28 27ZM0 0L0 7L7 7L7 0ZM1 1L1 6L6 6L6 1ZM2 2L2 5L5 5L5 2ZM22 0L22 7L29 7L29 0ZM23 1L23 6L28 6L28 1ZM24 2L24 5L27 5L27 2ZM0 22L0 29L7 29L7 22ZM1 23L1 28L6 28L6 23ZM2 24L2 27L5 27L5 24Z" fill="#000000"/></g></g></svg>
