<?xml version="1.0" encoding="UTF-8"?>
<svg xmlns="http://www.w3.org/2000/svg" version="1.1" width="200" height="200" viewBox="0 0 200 200"><rect x="0" y="0" width="200" height="200" fill="#ffffff"/><g transform="scale(4.878)"><g transform="translate(0,0)"><path fill-rule="evenodd" d="M10 0L10 1L11 1L11 3L12 3L12 4L13 4L13 3L14 3L14 5L12 5L12 7L13 7L13 6L14 6L14 8L13 8L13 9L15 9L15 8L16 8L16 7L17 7L17 10L16 10L16 12L14 12L14 11L12 11L12 8L11 8L11 10L10 10L10 11L9 11L9 10L6 10L6 9L8 9L8 8L9 8L9 9L10 9L10 7L11 7L11 5L10 5L10 3L9 3L9 5L8 5L8 8L4 8L4 9L0 9L0 11L1 11L1 10L6 10L6 11L7 11L7 12L5 12L5 11L3 11L3 12L1 12L1 13L2 13L2 14L0 14L0 17L1 17L1 18L0 18L0 19L1 19L1 21L0 21L0 22L1 22L1 23L0 23L0 25L1 25L1 24L2 24L2 22L1 22L1 21L2 21L2 20L4 20L4 21L3 21L3 24L4 24L4 26L3 26L3 25L2 25L2 27L0 27L0 30L2 30L2 31L3 31L3 32L0 32L0 33L3 33L3 32L5 32L5 33L8 33L8 37L9 37L9 39L11 39L11 40L10 40L10 41L11 41L11 40L13 40L13 41L14 41L14 39L13 39L13 37L14 37L14 38L16 38L16 39L15 39L15 40L16 40L16 41L18 41L18 40L19 40L19 36L18 36L18 35L19 35L19 33L21 33L21 32L23 32L23 34L22 34L22 37L23 37L23 38L22 38L22 39L21 39L21 37L20 37L20 41L24 41L24 40L26 40L26 41L31 41L31 38L28 38L28 37L29 37L29 36L30 36L30 37L32 37L32 38L33 38L33 39L32 39L32 41L33 41L33 39L34 39L34 40L35 40L35 39L34 39L34 37L36 37L36 38L39 38L39 40L37 40L37 39L36 39L36 40L37 40L37 41L40 41L40 40L41 40L41 37L40 37L40 38L39 38L39 37L38 37L38 35L37 35L37 33L38 33L38 34L39 34L39 35L40 35L40 36L41 36L41 33L40 33L40 34L39 34L39 33L38 33L38 31L37 31L37 29L38 29L38 30L39 30L39 31L41 31L41 29L40 29L40 30L39 30L39 28L38 28L38 26L37 26L37 25L36 25L36 24L37 24L37 23L39 23L39 22L40 22L40 23L41 23L41 22L40 22L40 21L41 21L41 13L40 13L40 12L38 12L38 11L41 11L41 9L40 9L40 8L39 8L39 9L36 9L36 8L34 8L34 10L32 10L32 11L30 11L30 10L29 10L29 11L28 11L28 9L33 9L33 8L32 8L32 7L33 7L33 6L32 6L32 5L33 5L33 3L32 3L32 1L33 1L33 0L32 0L32 1L30 1L30 2L29 2L29 1L28 1L28 0L27 0L27 1L28 1L28 2L27 2L27 3L26 3L26 2L24 2L24 1L25 1L25 0L21 0L21 1L20 1L20 0L18 0L18 1L17 1L17 2L18 2L18 1L20 1L20 2L19 2L19 3L24 3L24 4L19 4L19 6L18 6L18 4L17 4L17 3L16 3L16 2L13 2L13 3L12 3L12 0ZM15 0L15 1L16 1L16 0ZM8 1L8 2L9 2L9 1ZM22 1L22 2L23 2L23 1ZM28 2L28 3L27 3L27 4L28 4L28 5L27 5L27 7L28 7L28 8L26 8L26 9L24 9L24 8L25 8L25 7L26 7L26 3L25 3L25 4L24 4L24 5L21 5L21 8L18 8L18 10L17 10L17 12L18 12L18 14L17 14L17 13L16 13L16 14L15 14L15 15L12 15L12 13L11 13L11 12L12 12L12 11L11 11L11 12L9 12L9 13L8 13L8 12L7 12L7 13L5 13L5 12L4 12L4 13L3 13L3 14L2 14L2 15L1 15L1 17L2 17L2 15L3 15L3 16L4 16L4 15L6 15L6 16L7 16L7 17L3 17L3 19L5 19L5 18L7 18L7 17L8 17L8 19L6 19L6 20L5 20L5 21L6 21L6 22L7 22L7 21L8 21L8 22L9 22L9 24L10 24L10 27L9 27L9 25L8 25L8 28L10 28L10 27L11 27L11 29L10 29L10 30L9 30L9 31L8 31L8 30L7 30L7 29L6 29L6 28L7 28L7 27L6 27L6 26L7 26L7 25L6 25L6 24L7 24L7 23L6 23L6 24L5 24L5 26L4 26L4 27L2 27L2 28L1 28L1 29L2 29L2 28L3 28L3 29L4 29L4 31L5 31L5 32L9 32L9 37L10 37L10 38L11 38L11 37L13 37L13 36L15 36L15 37L16 37L16 36L15 36L15 35L17 35L17 34L18 34L18 33L17 33L17 32L20 32L20 30L19 30L19 29L18 29L18 28L19 28L19 27L20 27L20 26L21 26L21 24L22 24L22 26L23 26L23 23L24 23L24 22L25 22L25 18L26 18L26 16L27 16L27 17L28 17L28 19L29 19L29 21L28 21L28 20L27 20L27 19L26 19L26 24L24 24L24 26L26 26L26 25L27 25L27 21L28 21L28 22L30 22L30 21L31 21L31 23L30 23L30 25L31 25L31 27L34 27L34 28L36 28L36 29L33 29L33 28L32 28L32 29L33 29L33 31L32 31L32 30L31 30L31 29L29 29L29 28L28 28L28 29L26 29L26 27L24 27L24 30L25 30L25 31L23 31L23 32L24 32L24 34L23 34L23 35L24 35L24 36L23 36L23 37L25 37L25 38L24 38L24 39L22 39L22 40L24 40L24 39L25 39L25 38L26 38L26 40L27 40L27 38L26 38L26 37L28 37L28 36L29 36L29 34L30 34L30 35L31 35L31 36L32 36L32 35L31 35L31 34L32 34L32 33L29 33L29 31L28 31L28 29L29 29L29 30L31 30L31 31L30 31L30 32L34 32L34 31L35 31L35 30L36 30L36 29L37 29L37 27L35 27L35 26L36 26L36 25L35 25L35 24L36 24L36 23L34 23L34 22L33 22L33 21L36 21L36 22L38 22L38 21L39 21L39 20L40 20L40 19L38 19L38 18L37 18L37 19L38 19L38 21L36 21L36 19L35 19L35 18L36 18L36 17L39 17L39 16L40 16L40 15L39 15L39 14L38 14L38 13L37 13L37 11L36 11L36 12L34 12L34 11L32 11L32 12L33 12L33 13L32 13L32 15L33 15L33 16L31 16L31 14L30 14L30 13L28 13L28 12L27 12L27 9L28 9L28 8L29 8L29 7L30 7L30 8L31 8L31 7L32 7L32 6L31 6L31 5L32 5L32 3L30 3L30 4L29 4L29 2ZM15 3L15 5L16 5L16 3ZM28 5L28 7L29 7L29 6L30 6L30 7L31 7L31 6L30 6L30 5ZM9 6L9 7L10 7L10 6ZM15 6L15 7L16 7L16 6ZM17 6L17 7L18 7L18 6ZM19 6L19 7L20 7L20 6ZM22 6L22 9L19 9L19 10L24 10L24 11L25 11L25 10L24 10L24 9L23 9L23 6ZM24 6L24 7L25 7L25 6ZM19 11L19 13L20 13L20 11ZM21 11L21 12L23 12L23 11ZM13 12L13 13L14 13L14 12ZM26 12L26 13L25 13L25 14L24 14L24 16L23 16L23 15L22 15L22 16L21 16L21 17L20 17L20 18L21 18L21 17L23 17L23 18L22 18L22 19L23 19L23 20L24 20L24 19L23 19L23 18L24 18L24 16L25 16L25 15L26 15L26 13L27 13L27 12ZM7 13L7 14L6 14L6 15L7 15L7 16L9 16L9 15L10 15L10 16L11 16L11 17L12 17L12 16L11 16L11 15L10 15L10 14L11 14L11 13L10 13L10 14L8 14L8 13ZM21 13L21 14L18 14L18 16L20 16L20 15L21 15L21 14L22 14L22 13ZM33 13L33 15L34 15L34 16L35 16L35 17L34 17L34 18L35 18L35 17L36 17L36 16L37 16L37 15L35 15L35 14L34 14L34 13ZM36 13L36 14L37 14L37 13ZM3 14L3 15L4 15L4 14ZM7 14L7 15L8 15L8 14ZM27 14L27 16L29 16L29 18L30 18L30 19L31 19L31 21L33 21L33 20L32 20L32 19L33 19L33 17L32 17L32 19L31 19L31 17L30 17L30 15L28 15L28 14ZM15 15L15 16L14 16L14 17L13 17L13 18L14 18L14 22L13 22L13 21L11 21L11 20L13 20L13 19L12 19L12 18L11 18L11 19L10 19L10 21L9 21L9 19L8 19L8 21L9 21L9 22L11 22L11 23L10 23L10 24L11 24L11 25L13 25L13 26L11 26L11 27L12 27L12 29L11 29L11 30L12 30L12 29L13 29L13 27L14 27L14 29L15 29L15 31L16 31L16 32L15 32L15 34L17 34L17 33L16 33L16 32L17 32L17 31L16 31L16 28L15 28L15 27L14 27L14 26L16 26L16 27L17 27L17 26L20 26L20 25L17 25L17 26L16 26L16 23L15 23L15 20L17 20L17 21L16 21L16 22L17 22L17 23L21 23L21 22L23 22L23 21L21 21L21 19L19 19L19 20L20 20L20 21L21 21L21 22L19 22L19 21L18 21L18 18L19 18L19 17L18 17L18 18L17 18L17 15ZM9 17L9 18L10 18L10 17ZM15 17L15 18L16 18L16 17ZM34 19L34 20L35 20L35 19ZM6 20L6 21L7 21L7 20ZM4 22L4 23L5 23L5 22ZM12 22L12 23L13 23L13 24L14 24L14 25L15 25L15 23L13 23L13 22ZM32 22L32 23L33 23L33 24L34 24L34 23L33 23L33 22ZM31 24L31 25L32 25L32 26L35 26L35 25L32 25L32 24ZM39 24L39 27L40 27L40 28L41 28L41 24ZM28 25L28 27L29 27L29 25ZM4 27L4 29L5 29L5 27ZM22 27L22 28L21 28L21 29L22 29L22 30L23 30L23 27ZM25 29L25 30L26 30L26 31L25 31L25 32L27 32L27 33L26 33L26 34L24 34L24 35L25 35L25 37L26 37L26 36L28 36L28 34L29 34L29 33L28 33L28 32L27 32L27 30L26 30L26 29ZM6 30L6 31L7 31L7 30ZM13 30L13 31L14 31L14 30ZM18 30L18 31L19 31L19 30ZM9 31L9 32L10 32L10 34L14 34L14 33L13 33L13 32L12 32L12 31L11 31L11 32L10 32L10 31ZM36 31L36 32L37 32L37 31ZM33 33L33 36L36 36L36 33ZM26 34L26 35L27 35L27 34ZM34 34L34 35L35 35L35 34ZM10 35L10 36L13 36L13 35ZM20 35L20 36L21 36L21 35ZM17 38L17 39L16 39L16 40L18 40L18 38ZM0 0L0 7L7 7L7 0ZM1 1L1 6L6 6L6 1ZM2 2L2 5L5 5L5 2ZM34 0L34 7L41 7L41 0ZM35 1L35 6L40 6L40 1ZM36 2L36 5L39 5L39 2ZM0 34L0 41L7 41L7 34ZM1 35L1 40L6 40L6 35ZM2 36L2 39L5 39L5 36Z" fill="#000000"/></g></g></svg>
