<?xml version="1.0" encoding="UTF-8"?>
<svg xmlns="http://www.w3.org/2000/svg" version="1.1" width="200" height="200" viewBox="0 0 200 200"><rect x="0" y="0" width="200" height="200" fill="#ffffff"/><g transform="scale(4.878)"><g transform="translate(0,0)"><path fill-rule="evenodd" d="M9 0L9 1L8 1L8 7L9 7L9 8L5 8L5 9L3 9L3 8L2 8L2 10L1 10L1 9L0 9L0 12L3 12L3 13L2 13L2 14L1 14L1 13L0 13L0 16L2 16L2 17L0 17L0 20L1 20L1 22L0 22L0 24L1 24L1 26L0 26L0 28L1 28L1 30L0 30L0 31L2 31L2 32L0 32L0 33L4 33L4 32L5 32L5 31L2 31L2 30L3 30L3 28L5 28L5 27L7 27L7 28L6 28L6 29L7 29L7 30L6 30L6 31L7 31L7 30L8 30L8 36L9 36L9 38L8 38L8 39L9 39L9 40L11 40L11 41L14 41L14 40L17 40L17 41L20 41L20 40L21 40L21 39L22 39L22 40L23 40L23 39L24 39L24 40L25 40L25 39L26 39L26 40L27 40L27 41L28 41L28 39L30 39L30 41L36 41L36 40L37 40L37 41L39 41L39 39L41 39L41 36L40 36L40 35L41 35L41 32L40 32L40 34L38 34L38 33L37 33L37 32L36 32L36 28L34 28L34 27L35 27L35 26L36 26L36 27L37 27L37 29L39 29L39 28L38 28L38 27L40 27L40 30L39 30L39 31L41 31L41 25L39 25L39 24L37 24L37 26L36 26L36 24L33 24L33 27L32 27L32 20L33 20L33 22L34 22L34 23L35 23L35 20L36 20L36 21L37 21L37 19L36 19L36 18L35 18L35 16L36 16L36 15L37 15L37 18L38 18L38 19L39 19L39 20L40 20L40 19L41 19L41 17L39 17L39 18L38 18L38 15L39 15L39 16L40 16L40 15L41 15L41 13L40 13L40 11L41 11L41 9L40 9L40 8L35 8L35 9L34 9L34 8L33 8L33 3L32 3L32 8L31 8L31 6L30 6L30 5L31 5L31 1L29 1L29 0L28 0L28 2L27 2L27 4L28 4L28 2L30 2L30 4L29 4L29 5L28 5L28 7L27 7L27 5L26 5L26 4L25 4L25 5L26 5L26 8L27 8L27 11L26 11L26 14L24 14L24 15L22 15L22 14L23 14L23 13L24 13L24 12L25 12L25 11L23 11L23 10L24 10L24 9L22 9L22 8L20 8L20 9L16 9L16 7L17 7L17 6L16 6L16 3L19 3L19 4L20 4L20 5L19 5L19 6L18 6L18 8L19 8L19 6L20 6L20 7L21 7L21 6L22 6L22 7L23 7L23 8L25 8L25 6L24 6L24 7L23 7L23 6L22 6L22 5L23 5L23 4L22 4L22 5L21 5L21 4L20 4L20 3L21 3L21 2L22 2L22 1L23 1L23 0L22 0L22 1L20 1L20 2L18 2L18 1L19 1L19 0L15 0L15 1L16 1L16 3L12 3L12 2L11 2L11 0ZM12 0L12 1L13 1L13 2L14 2L14 0ZM24 0L24 2L25 2L25 3L26 3L26 2L25 2L25 1L26 1L26 0ZM32 0L32 2L33 2L33 0ZM9 1L9 7L10 7L10 6L11 6L11 8L13 8L13 7L14 7L14 8L15 8L15 7L16 7L16 6L15 6L15 5L14 5L14 6L13 6L13 7L12 7L12 5L13 5L13 4L12 4L12 3L11 3L11 2L10 2L10 1ZM10 3L10 4L11 4L11 5L12 5L12 4L11 4L11 3ZM17 4L17 5L18 5L18 4ZM14 6L14 7L15 7L15 6ZM29 6L29 7L28 7L28 8L29 8L29 10L30 10L30 11L29 11L29 17L28 17L28 16L27 16L27 15L28 15L28 13L27 13L27 14L26 14L26 16L25 16L25 19L23 19L23 21L22 21L22 17L21 17L21 16L22 16L22 15L19 15L19 14L18 14L18 13L19 13L19 12L20 12L20 13L23 13L23 11L22 11L22 10L18 10L18 11L17 11L17 12L16 12L16 9L14 9L14 10L15 10L15 11L13 11L13 9L12 9L12 10L11 10L11 9L5 9L5 10L3 10L3 12L4 12L4 15L5 15L5 13L6 13L6 14L7 14L7 15L6 15L6 16L3 16L3 17L2 17L2 20L3 20L3 19L4 19L4 21L5 21L5 20L7 20L7 19L8 19L8 21L9 21L9 22L10 22L10 23L8 23L8 22L7 22L7 21L6 21L6 22L7 22L7 23L6 23L6 24L7 24L7 25L5 25L5 26L4 26L4 24L5 24L5 22L3 22L3 21L2 21L2 24L3 24L3 26L2 26L2 27L1 27L1 28L2 28L2 27L3 27L3 26L4 26L4 27L5 27L5 26L7 26L7 27L9 27L9 28L7 28L7 29L8 29L8 30L9 30L9 29L10 29L10 30L11 30L11 31L12 31L12 35L10 35L10 34L9 34L9 35L10 35L10 37L11 37L11 38L12 38L12 35L15 35L15 37L16 37L16 38L15 38L15 39L17 39L17 40L18 40L18 38L21 38L21 37L22 37L22 38L24 38L24 37L25 37L25 38L26 38L26 39L27 39L27 37L26 37L26 36L28 36L28 38L31 38L31 35L32 35L32 32L31 32L31 31L32 31L32 29L31 29L31 28L32 28L32 27L31 27L31 24L30 24L30 21L29 21L29 23L28 23L28 24L29 24L29 25L30 25L30 27L27 27L27 25L25 25L25 24L24 24L24 23L23 23L23 24L22 24L22 23L21 23L21 25L25 25L25 26L24 26L24 27L22 27L22 29L20 29L20 30L19 30L19 28L21 28L21 26L20 26L20 24L18 24L18 23L20 23L20 22L19 22L19 20L18 20L18 21L17 21L17 19L16 19L16 18L14 18L14 17L17 17L17 18L18 18L18 17L21 17L21 18L19 18L19 19L20 19L20 21L21 21L21 22L27 22L27 20L30 20L30 19L27 19L27 18L26 18L26 16L27 16L27 17L28 17L28 18L31 18L31 16L32 16L32 18L33 18L33 19L34 19L34 20L35 20L35 18L34 18L34 17L33 17L33 14L37 14L37 15L38 15L38 13L37 13L37 11L38 11L38 12L39 12L39 9L35 9L35 10L33 10L33 12L32 12L32 13L30 13L30 12L31 12L31 10L30 10L30 6ZM5 10L5 11L4 11L4 12L6 12L6 13L9 13L9 15L10 15L10 16L11 16L11 18L12 18L12 19L13 19L13 20L12 20L12 21L11 21L11 19L10 19L10 17L7 17L7 16L8 16L8 15L7 15L7 16L6 16L6 17L7 17L7 18L6 18L6 19L7 19L7 18L9 18L9 19L10 19L10 20L9 20L9 21L11 21L11 24L8 24L8 25L7 25L7 26L8 26L8 25L9 25L9 26L11 26L11 28L10 28L10 29L11 29L11 30L12 30L12 31L13 31L13 32L16 32L16 33L15 33L15 34L16 34L16 36L17 36L17 38L18 38L18 36L19 36L19 34L18 34L18 35L17 35L17 34L16 34L16 33L17 33L17 32L16 32L16 31L18 31L18 32L19 32L19 33L20 33L20 32L22 32L22 33L21 33L21 34L20 34L20 36L21 36L21 35L23 35L23 34L22 34L22 33L23 33L23 32L22 32L22 30L23 30L23 31L24 31L24 34L26 34L26 33L25 33L25 32L27 32L27 35L29 35L29 37L30 37L30 35L29 35L29 34L31 34L31 32L30 32L30 33L29 33L29 34L28 34L28 32L27 32L27 31L28 31L28 30L27 30L27 29L28 29L28 28L27 28L27 27L26 27L26 26L25 26L25 27L26 27L26 29L24 29L24 28L23 28L23 29L22 29L22 30L20 30L20 31L19 31L19 30L16 30L16 31L15 31L15 30L14 30L14 29L13 29L13 28L12 28L12 27L14 27L14 28L15 28L15 29L17 29L17 27L18 27L18 26L19 26L19 27L20 27L20 26L19 26L19 25L18 25L18 24L17 24L17 23L15 23L15 21L16 21L16 22L17 22L17 21L16 21L16 19L13 19L13 17L14 17L14 16L15 16L15 13L16 13L16 14L17 14L17 15L16 15L16 16L17 16L17 17L18 17L18 16L17 16L17 15L18 15L18 14L17 14L17 13L16 13L16 12L12 12L12 13L10 13L10 12L11 12L11 10L9 10L9 11L8 11L8 10ZM36 10L36 11L37 11L37 10ZM6 11L6 12L8 12L8 11ZM18 11L18 12L19 12L19 11ZM20 11L20 12L22 12L22 11ZM27 11L27 12L28 12L28 11ZM34 11L34 12L35 12L35 13L36 13L36 12L35 12L35 11ZM39 13L39 15L40 15L40 13ZM10 14L10 15L11 15L11 16L14 16L14 14ZM31 14L31 15L32 15L32 14ZM34 15L34 16L35 16L35 15ZM23 16L23 18L24 18L24 16ZM3 17L3 18L4 18L4 17ZM26 19L26 20L27 20L27 19ZM31 19L31 20L32 20L32 19ZM13 20L13 21L14 21L14 20ZM24 20L24 21L25 21L25 20ZM39 21L39 22L40 22L40 24L41 24L41 22L40 22L40 21ZM12 22L12 25L11 25L11 26L13 26L13 24L14 24L14 27L15 27L15 28L16 28L16 27L17 27L17 26L18 26L18 25L16 25L16 24L14 24L14 23L13 23L13 22ZM36 22L36 23L37 23L37 22ZM3 23L3 24L4 24L4 23ZM26 23L26 24L27 24L27 23ZM15 25L15 26L16 26L16 25ZM37 26L37 27L38 27L38 26ZM30 27L30 28L31 28L31 27ZM11 28L11 29L12 29L12 30L13 30L13 29L12 29L12 28ZM34 29L34 30L33 30L33 31L34 31L34 32L35 32L35 29ZM24 30L24 31L26 31L26 30ZM30 30L30 31L31 31L31 30ZM6 32L6 33L7 33L7 32ZM9 32L9 33L10 33L10 32ZM13 33L13 34L14 34L14 33ZM33 33L33 36L36 36L36 33ZM34 34L34 35L35 35L35 34ZM37 34L37 35L38 35L38 37L39 37L39 38L38 38L38 39L39 39L39 38L40 38L40 36L39 36L39 35L38 35L38 34ZM23 36L23 37L24 37L24 36ZM13 37L13 38L14 38L14 37ZM34 37L34 40L35 40L35 39L36 39L36 38L37 38L37 37ZM12 39L12 40L14 40L14 39ZM19 39L19 40L20 40L20 39ZM40 40L40 41L41 41L41 40ZM0 0L0 7L7 7L7 0ZM1 1L1 6L6 6L6 1ZM2 2L2 5L5 5L5 2ZM34 0L34 7L41 7L41 0ZM35 1L35 6L40 6L40 1ZM36 2L36 5L39 5L39 2ZM0 34L0 41L7 41L7 34ZM1 35L1 40L6 40L6 35ZM2 36L2 39L5 39L5 36Z" fill="#000000"/></g></g></svg>
