<?xml version="1.0" encoding="UTF-8"?>
<svg xmlns="http://www.w3.org/2000/svg" version="1.1" width="200" height="200" viewBox="0 0 200 200"><rect x="0" y="0" width="200" height="200" fill="#ffffff"/><g transform="scale(4.878)"><g transform="translate(0,0)"><path fill-rule="evenodd" d="M8 0L8 1L9 1L9 2L8 2L8 3L9 3L9 2L10 2L10 4L12 4L12 2L13 2L13 3L14 3L14 2L16 2L16 3L17 3L17 0L16 0L16 1L14 1L14 0L13 0L13 1L12 1L12 2L11 2L11 0ZM19 0L19 4L20 4L20 5L18 5L18 9L16 9L16 8L15 8L15 9L16 9L16 12L15 12L15 10L14 10L14 7L15 7L15 6L16 6L16 7L17 7L17 6L16 6L16 5L15 5L15 4L14 4L14 5L13 5L13 6L12 6L12 5L11 5L11 6L10 6L10 8L11 8L11 9L9 9L9 10L8 10L8 11L7 11L7 10L4 10L4 9L2 9L2 10L1 10L1 9L0 9L0 11L2 11L2 10L4 10L4 11L7 11L7 12L6 12L6 13L4 13L4 12L0 12L0 14L1 14L1 13L2 13L2 15L3 15L3 17L2 17L2 16L1 16L1 15L0 15L0 22L1 22L1 23L0 23L0 25L1 25L1 26L0 26L0 33L1 33L1 31L2 31L2 33L4 33L4 32L6 32L6 33L7 33L7 32L8 32L8 34L9 34L9 33L10 33L10 32L13 32L13 33L12 33L12 34L10 34L10 35L8 35L8 36L10 36L10 38L9 38L9 39L10 39L10 40L9 40L9 41L10 41L10 40L11 40L11 39L12 39L12 41L13 41L13 40L14 40L14 41L16 41L16 40L14 40L14 39L12 39L12 38L11 38L11 37L12 37L12 36L13 36L13 35L14 35L14 37L13 37L13 38L14 38L14 37L16 37L16 36L17 36L17 38L16 38L16 39L17 39L17 41L20 41L20 40L21 40L21 41L22 41L22 40L21 40L21 38L20 38L20 39L19 39L19 38L18 38L18 37L19 37L19 36L20 36L20 37L22 37L22 39L24 39L24 40L23 40L23 41L25 41L25 40L26 40L26 41L27 41L27 39L28 39L28 41L31 41L31 40L32 40L32 39L31 39L31 38L32 38L32 37L36 37L36 38L34 38L34 39L33 39L33 41L34 41L34 40L36 40L36 39L37 39L37 40L38 40L38 39L40 39L40 40L41 40L41 39L40 39L40 38L41 38L41 36L40 36L40 34L39 34L39 33L40 33L40 32L37 32L37 29L36 29L36 28L39 28L39 29L40 29L40 30L39 30L39 31L41 31L41 29L40 29L40 26L41 26L41 25L39 25L39 24L37 24L37 21L38 21L38 22L41 22L41 20L40 20L40 19L41 19L41 15L40 15L40 14L41 14L41 12L40 12L40 9L41 9L41 8L40 8L40 9L39 9L39 8L38 8L38 10L37 10L37 8L36 8L36 11L37 11L37 13L36 13L36 12L35 12L35 10L34 10L34 9L35 9L35 8L34 8L34 9L33 9L33 8L31 8L31 9L30 9L30 8L29 8L29 6L28 6L28 7L27 7L27 6L26 6L26 7L27 7L27 9L25 9L25 11L26 11L26 12L25 12L25 14L26 14L26 15L24 15L24 14L23 14L23 15L22 15L22 16L21 16L21 15L20 15L20 17L19 17L19 15L18 15L18 14L19 14L19 13L20 13L20 12L21 12L21 14L22 14L22 13L23 13L23 11L22 11L22 10L19 10L19 6L20 6L20 7L21 7L21 6L20 6L20 5L21 5L21 4L22 4L22 5L23 5L23 6L22 6L22 8L21 8L21 9L22 9L22 8L23 8L23 9L24 9L24 8L23 8L23 6L24 6L24 7L25 7L25 6L24 6L24 4L22 4L22 3L23 3L23 2L25 2L25 1L26 1L26 0L25 0L25 1L24 1L24 0L22 0L22 1L21 1L21 0ZM28 0L28 2L26 2L26 5L27 5L27 4L28 4L28 3L31 3L31 4L30 4L30 7L31 7L31 5L32 5L32 3L31 3L31 2L30 2L30 1L29 1L29 0ZM32 0L32 1L33 1L33 0ZM13 1L13 2L14 2L14 1ZM20 1L20 2L21 2L21 3L22 3L22 2L21 2L21 1ZM8 4L8 5L9 5L9 4ZM8 6L8 8L9 8L9 6ZM11 6L11 8L13 8L13 7L14 7L14 6L13 6L13 7L12 7L12 6ZM32 6L32 7L33 7L33 6ZM5 8L5 9L7 9L7 8ZM29 9L29 10L30 10L30 9ZM9 10L9 11L12 11L12 12L11 12L11 13L8 13L8 12L7 12L7 13L6 13L6 14L7 14L7 15L5 15L5 14L4 14L4 13L3 13L3 14L4 14L4 18L3 18L3 20L2 20L2 19L1 19L1 21L2 21L2 24L1 24L1 25L2 25L2 24L3 24L3 21L4 21L4 22L5 22L5 23L4 23L4 24L5 24L5 25L6 25L6 26L5 26L5 30L4 30L4 31L6 31L6 32L7 32L7 31L6 31L6 30L7 30L7 29L6 29L6 28L8 28L8 29L9 29L9 30L8 30L8 31L9 31L9 32L10 32L10 31L9 31L9 30L11 30L11 31L12 31L12 29L13 29L13 31L14 31L14 32L15 32L15 34L14 34L14 35L17 35L17 36L18 36L18 35L19 35L19 34L20 34L20 35L21 35L21 36L23 36L23 38L24 38L24 39L25 39L25 38L26 38L26 39L27 39L27 38L26 38L26 37L27 37L27 36L28 36L28 38L29 38L29 40L31 40L31 39L30 39L30 38L29 38L29 34L28 34L28 35L27 35L27 36L25 36L25 34L27 34L27 33L25 33L25 32L24 32L24 33L25 33L25 34L23 34L23 35L22 35L22 33L20 33L20 32L19 32L19 31L20 31L20 30L21 30L21 32L22 32L22 31L23 31L23 29L26 29L26 30L25 30L25 31L26 31L26 30L28 30L28 31L27 31L27 32L31 32L31 31L32 31L32 29L33 29L33 28L32 28L32 26L31 26L31 25L30 25L30 23L29 23L29 22L31 22L31 23L32 23L32 24L33 24L33 26L34 26L34 27L35 27L35 28L34 28L34 30L33 30L33 31L34 31L34 32L35 32L35 30L36 30L36 29L35 29L35 28L36 28L36 27L37 27L37 26L36 26L36 25L37 25L37 24L36 24L36 23L35 23L35 22L36 22L36 21L35 21L35 18L36 18L36 20L39 20L39 21L40 21L40 20L39 20L39 19L40 19L40 16L39 16L39 17L37 17L37 16L38 16L38 14L39 14L39 13L40 13L40 12L39 12L39 11L38 11L38 12L39 12L39 13L37 13L37 14L36 14L36 13L35 13L35 12L34 12L34 10L33 10L33 11L32 11L32 10L31 10L31 12L32 12L32 13L31 13L31 15L29 15L29 14L30 14L30 11L29 11L29 14L28 14L28 13L27 13L27 12L26 12L26 14L27 14L27 15L28 15L28 16L27 16L27 17L26 17L26 16L24 16L24 15L23 15L23 16L22 16L22 17L20 17L20 18L19 18L19 17L18 17L18 16L17 16L17 15L16 15L16 14L15 14L15 15L14 15L14 17L13 17L13 16L11 16L11 14L13 14L13 12L14 12L14 10ZM17 10L17 11L19 11L19 10ZM26 10L26 11L27 11L27 10ZM21 11L21 12L22 12L22 11ZM17 13L17 14L18 14L18 13ZM8 14L8 16L9 16L9 17L10 17L10 14ZM32 14L32 17L30 17L30 16L29 16L29 17L30 17L30 18L29 18L29 19L31 19L31 20L30 20L30 21L31 21L31 22L33 22L33 23L34 23L34 19L33 19L33 20L32 20L32 17L34 17L34 18L35 18L35 17L36 17L36 18L37 18L37 19L38 19L38 18L37 18L37 17L36 17L36 16L37 16L37 15L36 15L36 16L35 16L35 15L34 15L34 14ZM15 15L15 16L16 16L16 18L15 18L15 17L14 17L14 19L13 19L13 18L12 18L12 17L11 17L11 18L12 18L12 19L13 19L13 21L15 21L15 20L14 20L14 19L16 19L16 22L14 22L14 23L13 23L13 25L14 25L14 24L15 24L15 25L16 25L16 26L15 26L15 27L16 27L16 28L15 28L15 29L14 29L14 31L15 31L15 29L17 29L17 31L16 31L16 32L17 32L17 35L18 35L18 34L19 34L19 32L17 32L17 31L19 31L19 30L18 30L18 29L19 29L19 26L20 26L20 28L21 28L21 27L22 27L22 29L21 29L21 30L22 30L22 29L23 29L23 28L24 28L24 27L25 27L25 28L26 28L26 27L27 27L27 29L32 29L32 28L29 28L29 27L28 27L28 24L26 24L26 23L25 23L25 24L24 24L24 23L23 23L23 22L27 22L27 23L28 23L28 22L29 22L29 20L28 20L28 21L27 21L27 19L28 19L28 17L27 17L27 18L25 18L25 19L26 19L26 20L25 20L25 21L24 21L24 20L22 20L22 19L23 19L23 18L24 18L24 17L22 17L22 19L21 19L21 18L20 18L20 19L19 19L19 22L18 22L18 23L20 23L20 24L24 24L24 27L22 27L22 26L23 26L23 25L22 25L22 26L20 26L20 25L18 25L18 24L17 24L17 25L16 25L16 24L15 24L15 23L16 23L16 22L17 22L17 19L16 19L16 18L17 18L17 16L16 16L16 15ZM6 16L6 17L5 17L5 19L4 19L4 21L5 21L5 19L8 19L8 20L9 20L9 19L10 19L10 18L9 18L9 19L8 19L8 18L6 18L6 17L7 17L7 16ZM34 16L34 17L35 17L35 16ZM1 17L1 18L2 18L2 17ZM6 20L6 21L7 21L7 22L6 22L6 23L7 23L7 22L10 22L10 21L7 21L7 20ZM21 20L21 22L22 22L22 20ZM31 20L31 21L32 21L32 20ZM9 23L9 24L6 24L6 25L9 25L9 29L10 29L10 26L11 26L11 25L10 25L10 24L12 24L12 23ZM40 23L40 24L41 24L41 23ZM34 24L34 26L35 26L35 27L36 27L36 26L35 26L35 24ZM3 25L3 26L4 26L4 25ZM26 25L26 26L27 26L27 25ZM29 25L29 26L30 26L30 25ZM6 26L6 27L7 27L7 26ZM13 26L13 27L11 27L11 29L12 29L12 28L13 28L13 27L14 27L14 26ZM16 26L16 27L17 27L17 26ZM38 26L38 27L39 27L39 26ZM3 27L3 29L1 29L1 30L2 30L2 31L3 31L3 29L4 29L4 27ZM29 30L29 31L31 31L31 30ZM30 33L30 35L31 35L31 34L32 34L32 33ZM33 33L33 36L36 36L36 33ZM37 33L37 34L38 34L38 35L37 35L37 37L39 37L39 38L40 38L40 37L39 37L39 34L38 34L38 33ZM34 34L34 35L35 35L35 34ZM30 36L30 37L31 37L31 36ZM24 37L24 38L25 38L25 37ZM10 38L10 39L11 39L11 38ZM17 38L17 39L18 39L18 40L19 40L19 39L18 39L18 38ZM37 38L37 39L38 39L38 38ZM0 0L0 7L7 7L7 0ZM1 1L1 6L6 6L6 1ZM2 2L2 5L5 5L5 2ZM34 0L34 7L41 7L41 0ZM35 1L35 6L40 6L40 1ZM36 2L36 5L39 5L39 2ZM0 34L0 41L7 41L7 34ZM1 35L1 40L6 40L6 35ZM2 36L2 39L5 39L5 36Z" fill="#000000"/></g></g></svg>
