<?xml version="1.0" encoding="UTF-8"?>
<svg xmlns="http://www.w3.org/2000/svg" version="1.1" width="200" height="200" viewBox="0 0 200 200"><rect x="0" y="0" width="200" height="200" fill="#ffffff"/><g transform="scale(6.897)"><g transform="translate(0,0)"><path fill-rule="evenodd" d="M9 0L9 1L10 1L10 2L8 2L8 4L9 4L9 6L8 6L8 7L9 7L9 6L10 6L10 7L11 7L11 6L12 6L12 7L13 7L13 8L14 8L14 9L13 9L13 10L12 10L12 11L11 11L11 13L10 13L10 15L9 15L9 16L10 16L10 15L11 15L11 14L12 14L12 13L13 13L13 14L14 14L14 16L13 16L13 15L12 15L12 16L13 16L13 17L8 17L8 18L9 18L9 19L8 19L8 20L4 20L4 19L5 19L5 17L4 17L4 16L6 16L6 17L7 17L7 16L8 16L8 15L7 15L7 14L4 14L4 15L3 15L3 13L4 13L4 10L6 10L6 11L9 11L9 12L6 12L6 13L9 13L9 12L10 12L10 11L9 11L9 9L12 9L12 8L9 8L9 9L8 9L8 8L6 8L6 9L5 9L5 8L3 8L3 9L1 9L1 11L2 11L2 12L1 12L1 13L0 13L0 14L1 14L1 13L2 13L2 15L3 15L3 17L1 17L1 15L0 15L0 21L2 21L2 20L4 20L4 21L8 21L8 23L12 23L12 22L14 22L14 24L15 24L15 25L13 25L13 26L12 26L12 25L11 25L11 24L8 24L8 26L9 26L9 28L10 28L10 27L11 27L11 29L13 29L13 28L14 28L14 29L17 29L17 28L18 28L18 29L19 29L19 28L20 28L20 29L21 29L21 27L22 27L22 28L24 28L24 29L25 29L25 28L26 28L26 27L22 27L22 26L21 26L21 27L19 27L19 26L18 26L18 25L17 25L17 24L18 24L18 23L17 23L17 22L18 22L18 20L19 20L19 19L18 19L18 18L19 18L19 16L18 16L18 17L16 17L16 16L15 16L15 14L17 14L17 15L20 15L20 19L22 19L22 20L20 20L20 24L19 24L19 25L24 25L24 26L25 26L25 22L27 22L27 21L26 21L26 19L27 19L27 18L29 18L29 17L28 17L28 16L29 16L29 14L27 14L27 13L29 13L29 11L28 11L28 10L27 10L27 8L25 8L25 9L24 9L24 10L23 10L23 9L22 9L22 10L23 10L23 12L22 12L22 11L21 11L21 12L19 12L19 10L18 10L18 9L19 9L19 8L18 8L18 9L17 9L17 10L18 10L18 12L17 12L17 11L16 11L16 9L15 9L15 6L16 6L16 8L17 8L17 6L18 6L18 7L19 7L19 6L20 6L20 7L21 7L21 4L20 4L20 3L21 3L21 1L20 1L20 0L17 0L17 1L13 1L13 0L12 0L12 2L11 2L11 0ZM17 1L17 4L15 4L15 3L16 3L16 2L15 2L15 3L14 3L14 2L12 2L12 6L13 6L13 7L14 7L14 6L15 6L15 5L17 5L17 4L18 4L18 3L20 3L20 1L19 1L19 2L18 2L18 1ZM10 2L10 5L11 5L11 2ZM13 5L13 6L14 6L14 5ZM20 8L20 10L21 10L21 8ZM6 9L6 10L8 10L8 9ZM25 9L25 10L26 10L26 11L27 11L27 12L28 12L28 11L27 11L27 10L26 10L26 9ZM2 10L2 11L3 11L3 10ZM13 10L13 11L12 11L12 12L13 12L13 13L14 13L14 12L13 12L13 11L15 11L15 10ZM16 12L16 13L17 13L17 12ZM21 12L21 14L20 14L20 15L21 15L21 18L22 18L22 16L24 16L24 18L25 18L25 19L26 19L26 18L25 18L25 16L26 16L26 17L27 17L27 16L28 16L28 15L27 15L27 16L26 16L26 13L25 13L25 16L24 16L24 12L23 12L23 14L22 14L22 12ZM18 13L18 14L19 14L19 13ZM6 15L6 16L7 16L7 15ZM3 17L3 18L2 18L2 19L4 19L4 17ZM13 17L13 18L12 18L12 19L11 19L11 20L12 20L12 21L10 21L10 19L9 19L9 22L12 22L12 21L14 21L14 22L15 22L15 21L16 21L16 22L17 22L17 21L16 21L16 19L17 19L17 20L18 20L18 19L17 19L17 18L15 18L15 21L14 21L14 20L12 20L12 19L14 19L14 17ZM6 18L6 19L7 19L7 18ZM23 19L23 20L24 20L24 19ZM21 21L21 24L24 24L24 21ZM28 21L28 22L29 22L29 21ZM22 22L22 23L23 23L23 22ZM16 23L16 24L17 24L17 23ZM28 23L28 24L26 24L26 26L27 26L27 27L29 27L29 26L27 26L27 25L28 25L28 24L29 24L29 23ZM10 25L10 26L11 26L11 25ZM15 25L15 26L14 26L14 28L15 28L15 26L16 26L16 28L17 28L17 25ZM27 28L27 29L28 29L28 28ZM0 0L0 7L7 7L7 0ZM1 1L1 6L6 6L6 1ZM2 2L2 5L5 5L5 2ZM22 0L22 7L29 7L29 0ZM23 1L23 6L28 6L28 1ZM24 2L24 5L27 5L27 2ZM0 22L0 29L7 29L7 22ZM1 23L1 28L6 28L6 23ZM2 24L2 27L5 27L5 24Z" fill="#000000"/></g></g></svg>
