<?xml version="1.0" encoding="UTF-8"?>
<svg xmlns="http://www.w3.org/2000/svg" version="1.1" width="200" height="200" viewBox="0 0 200 200"><rect x="0" y="0" width="200" height="200" fill="#ffffff"/><g transform="scale(4.878)"><g transform="translate(0,0)"><path fill-rule="evenodd" d="M9 0L9 2L8 2L8 4L10 4L10 3L9 3L9 2L10 2L10 0ZM13 0L13 1L12 1L12 2L11 2L11 4L12 4L12 7L11 7L11 6L10 6L10 5L9 5L9 6L8 6L8 7L9 7L9 9L8 9L8 8L6 8L6 9L5 9L5 8L3 8L3 9L2 9L2 10L1 10L1 11L2 11L2 12L1 12L1 13L0 13L0 15L1 15L1 13L3 13L3 14L2 14L2 16L0 16L0 18L1 18L1 19L0 19L0 20L3 20L3 21L4 21L4 22L6 22L6 23L7 23L7 22L6 22L6 21L7 21L7 20L8 20L8 21L9 21L9 20L10 20L10 19L12 19L12 20L11 20L11 21L10 21L10 22L9 22L9 23L8 23L8 25L7 25L7 24L5 24L5 23L4 23L4 24L5 24L5 26L3 26L3 25L2 25L2 24L3 24L3 23L2 23L2 21L0 21L0 26L1 26L1 27L0 27L0 28L1 28L1 27L2 27L2 29L0 29L0 33L3 33L3 32L6 32L6 33L8 33L8 35L9 35L9 34L11 34L11 33L12 33L12 35L13 35L13 36L14 36L14 38L12 38L12 36L10 36L10 37L11 37L11 39L10 39L10 38L9 38L9 36L8 36L8 38L9 38L9 39L10 39L10 40L9 40L9 41L10 41L10 40L11 40L11 39L13 39L13 40L12 40L12 41L13 41L13 40L14 40L14 41L15 41L15 38L16 38L16 41L20 41L20 39L19 39L19 38L20 38L20 37L21 37L21 41L22 41L22 39L24 39L24 40L23 40L23 41L26 41L26 40L27 40L27 41L28 41L28 40L29 40L29 38L28 38L28 35L29 35L29 37L32 37L32 38L31 38L31 39L30 39L30 40L32 40L32 41L34 41L34 40L35 40L35 41L36 41L36 39L38 39L38 41L39 41L39 39L40 39L40 40L41 40L41 36L40 36L40 38L39 38L39 37L38 37L38 35L40 35L40 34L37 34L37 33L39 33L39 31L41 31L41 30L37 30L37 29L35 29L35 28L34 28L34 30L36 30L36 31L35 31L35 32L34 32L34 31L32 31L32 30L31 30L31 29L32 29L32 28L33 28L33 27L32 27L32 26L33 26L33 25L32 25L32 23L33 23L33 24L34 24L34 26L35 26L35 23L36 23L36 21L37 21L37 20L38 20L38 23L39 23L39 24L40 24L40 23L39 23L39 22L41 22L41 21L39 21L39 20L40 20L40 19L41 19L41 18L40 18L40 17L41 17L41 11L40 11L40 9L39 9L39 8L37 8L37 9L36 9L36 10L35 10L35 11L34 11L34 9L33 9L33 6L32 6L32 7L31 7L31 5L33 5L33 4L31 4L31 3L32 3L32 2L33 2L33 0L32 0L32 1L30 1L30 0L28 0L28 2L27 2L27 4L25 4L25 3L24 3L24 4L25 4L25 5L26 5L26 7L25 7L25 6L24 6L24 5L22 5L22 4L23 4L23 2L24 2L24 1L23 1L23 2L22 2L22 4L20 4L20 3L21 3L21 1L20 1L20 0L19 0L19 4L20 4L20 5L17 5L17 6L16 6L16 5L15 5L15 6L14 6L14 8L13 8L13 4L16 4L16 3L13 3L13 2L14 2L14 0ZM15 0L15 1L16 1L16 2L17 2L17 4L18 4L18 0L17 0L17 1L16 1L16 0ZM29 1L29 2L28 2L28 3L29 3L29 5L31 5L31 4L30 4L30 3L31 3L31 2L30 2L30 1ZM27 4L27 7L26 7L26 8L25 8L25 7L24 7L24 6L23 6L23 10L22 10L22 9L20 9L20 6L21 6L21 8L22 8L22 6L21 6L21 5L20 5L20 6L19 6L19 7L18 7L18 6L17 6L17 9L18 9L18 10L22 10L22 11L21 11L21 12L22 12L22 11L24 11L24 13L23 13L23 15L21 15L21 13L20 13L20 11L19 11L19 12L18 12L18 11L13 11L13 9L11 9L11 7L10 7L10 6L9 6L9 7L10 7L10 10L8 10L8 9L6 9L6 10L5 10L5 11L4 11L4 9L3 9L3 12L4 12L4 13L5 13L5 11L6 11L6 12L8 12L8 13L6 13L6 14L8 14L8 13L9 13L9 14L10 14L10 15L11 15L11 16L12 16L12 17L8 17L8 16L9 16L9 15L8 15L8 16L7 16L7 15L6 15L6 16L4 16L4 15L5 15L5 14L4 14L4 15L3 15L3 16L2 16L2 18L3 18L3 20L4 20L4 19L5 19L5 21L6 21L6 20L7 20L7 19L8 19L8 20L9 20L9 18L13 18L13 16L14 16L14 14L15 14L15 16L16 16L16 19L15 19L15 20L14 20L14 19L13 19L13 20L12 20L12 22L11 22L11 23L12 23L12 22L14 22L14 23L16 23L16 25L17 25L17 27L18 27L18 28L17 28L17 30L18 30L18 32L19 32L19 34L17 34L17 35L16 35L16 33L17 33L17 31L16 31L16 26L15 26L15 24L13 24L13 25L14 25L14 27L15 27L15 28L13 28L13 27L12 27L12 32L13 32L13 33L14 33L14 34L15 34L15 37L16 37L16 38L17 38L17 40L19 40L19 39L18 39L18 38L17 38L17 35L19 35L19 34L20 34L20 36L18 36L18 37L20 37L20 36L21 36L21 37L22 37L22 35L23 35L23 36L24 36L24 35L23 35L23 32L20 32L20 29L18 29L18 28L20 28L20 27L21 27L21 28L22 28L22 30L21 30L21 31L22 31L22 30L25 30L25 29L23 29L23 28L24 28L24 27L25 27L25 26L26 26L26 27L27 27L27 26L26 26L26 25L25 25L25 24L24 24L24 21L25 21L25 23L27 23L27 24L28 24L28 27L29 27L29 28L28 28L28 29L27 29L27 28L26 28L26 31L24 31L24 33L26 33L26 34L25 34L25 35L26 35L26 36L25 36L25 37L23 37L23 38L25 38L25 39L27 39L27 38L25 38L25 37L26 37L26 36L27 36L27 33L29 33L29 34L31 34L31 33L29 33L29 32L31 32L31 31L30 31L30 30L29 30L29 29L31 29L31 28L32 28L32 27L31 27L31 26L32 26L32 25L31 25L31 23L32 23L32 22L31 22L31 23L30 23L30 21L32 21L32 20L29 20L29 19L31 19L31 18L30 18L30 17L31 17L31 16L30 16L30 15L32 15L32 18L33 18L33 19L34 19L34 20L35 20L35 21L34 21L34 23L35 23L35 21L36 21L36 20L37 20L37 18L36 18L36 20L35 20L35 17L37 17L37 16L38 16L38 19L39 19L39 17L40 17L40 16L38 16L38 15L39 15L39 14L37 14L37 16L36 16L36 13L37 13L37 12L36 12L36 13L34 13L34 14L35 14L35 16L34 16L34 17L33 17L33 13L32 13L32 14L30 14L30 12L31 12L31 11L32 11L32 10L30 10L30 9L32 9L32 8L30 8L30 6L29 6L29 8L30 8L30 9L28 9L28 11L27 11L27 8L28 8L28 4ZM15 6L15 8L16 8L16 6ZM24 8L24 10L26 10L26 9L25 9L25 8ZM15 9L15 10L16 10L16 9ZM37 9L37 10L36 10L36 11L37 11L37 10L38 10L38 12L39 12L39 13L40 13L40 12L39 12L39 10L38 10L38 9ZM6 10L6 11L7 11L7 10ZM10 10L10 11L8 11L8 12L10 12L10 13L11 13L11 11L12 11L12 12L13 12L13 11L12 11L12 10ZM25 11L25 13L24 13L24 14L25 14L25 18L24 18L24 17L23 17L23 16L21 16L21 18L20 18L20 16L17 16L17 14L18 14L18 15L20 15L20 14L18 14L18 13L15 13L15 14L16 14L16 16L17 16L17 19L16 19L16 20L15 20L15 21L16 21L16 22L19 22L19 21L21 21L21 22L20 22L20 23L17 23L17 25L18 25L18 26L19 26L19 27L20 27L20 26L21 26L21 27L23 27L23 25L24 25L24 26L25 26L25 25L24 25L24 24L22 24L22 25L20 25L20 24L21 24L21 23L23 23L23 22L22 22L22 21L21 21L21 20L19 20L19 19L21 19L21 18L22 18L22 20L23 20L23 21L24 21L24 20L25 20L25 21L27 21L27 23L28 23L28 22L29 22L29 21L27 21L27 19L28 19L28 18L29 18L29 17L28 17L28 16L29 16L29 15L28 15L28 14L27 14L27 15L26 15L26 12L27 12L27 13L28 13L28 12L30 12L30 11L28 11L28 12L27 12L27 11ZM13 13L13 14L14 14L14 13ZM12 15L12 16L13 16L13 15ZM27 15L27 16L28 16L28 15ZM3 16L3 17L4 17L4 16ZM6 16L6 17L5 17L5 18L6 18L6 19L7 19L7 18L8 18L8 17L7 17L7 16ZM6 17L6 18L7 18L7 17ZM22 17L22 18L23 18L23 20L24 20L24 18L23 18L23 17ZM26 18L26 19L25 19L25 20L26 20L26 19L27 19L27 18ZM17 19L17 20L18 20L18 21L19 21L19 20L18 20L18 19ZM13 20L13 21L14 21L14 20ZM9 23L9 25L10 25L10 26L8 26L8 27L6 27L6 28L7 28L7 29L5 29L5 27L3 27L3 29L5 29L5 30L4 30L4 31L6 31L6 32L8 32L8 30L9 30L9 29L10 29L10 28L8 28L8 27L11 27L11 25L12 25L12 24L11 24L11 25L10 25L10 23ZM29 23L29 24L30 24L30 23ZM1 25L1 26L2 26L2 25ZM6 25L6 26L7 26L7 25ZM29 25L29 26L31 26L31 25ZM36 25L36 26L37 26L37 25ZM39 25L39 27L36 27L36 28L38 28L38 29L40 29L40 27L41 27L41 25ZM7 29L7 30L6 30L6 31L7 31L7 30L8 30L8 29ZM14 29L14 30L13 30L13 31L15 31L15 29ZM28 30L28 31L27 31L27 32L29 32L29 30ZM2 31L2 32L3 32L3 31ZM9 31L9 32L10 32L10 31ZM37 31L37 32L38 32L38 31ZM14 32L14 33L16 33L16 32ZM40 32L40 33L41 33L41 32ZM20 33L20 34L21 34L21 35L22 35L22 34L21 34L21 33ZM33 33L33 36L36 36L36 33ZM34 34L34 35L35 35L35 34ZM30 35L30 36L32 36L32 35ZM33 37L33 38L32 38L32 40L33 40L33 39L35 39L35 38L36 38L36 37ZM38 38L38 39L39 39L39 38ZM0 0L0 7L7 7L7 0ZM1 1L1 6L6 6L6 1ZM2 2L2 5L5 5L5 2ZM34 0L34 7L41 7L41 0ZM35 1L35 6L40 6L40 1ZM36 2L36 5L39 5L39 2ZM0 34L0 41L7 41L7 34ZM1 35L1 40L6 40L6 35ZM2 36L2 39L5 39L5 36Z" fill="#000000"/></g></g></svg>
