<?xml version="1.0" encoding="UTF-8"?>
<svg xmlns="http://www.w3.org/2000/svg" version="1.1" width="200" height="200" viewBox="0 0 200 200"><rect x="0" y="0" width="200" height="200" fill="#ffffff"/><g transform="scale(4.878)"><g transform="translate(0,0)"><path fill-rule="evenodd" d="M9 0L9 1L8 1L8 7L9 7L9 8L5 8L5 9L7 9L7 10L5 10L5 11L4 11L4 9L3 9L3 8L2 8L2 9L1 9L1 10L0 10L0 12L1 12L1 10L2 10L2 9L3 9L3 11L2 11L2 12L3 12L3 13L4 13L4 14L2 14L2 13L1 13L1 14L0 14L0 15L1 15L1 16L0 16L0 17L2 17L2 16L4 16L4 15L5 15L5 14L6 14L6 15L7 15L7 16L5 16L5 17L3 17L3 18L0 18L0 20L1 20L1 21L0 21L0 24L1 24L1 25L2 25L2 23L3 23L3 26L0 26L0 27L3 27L3 29L4 29L4 31L7 31L7 32L6 32L6 33L8 33L8 36L10 36L10 35L11 35L11 36L12 36L12 37L10 37L10 38L11 38L11 39L9 39L9 38L8 38L8 39L9 39L9 40L12 40L12 39L13 39L13 40L15 40L15 41L17 41L17 40L15 40L15 39L17 39L17 37L19 37L19 38L18 38L18 39L19 39L19 40L18 40L18 41L21 41L21 39L20 39L20 37L21 37L21 38L22 38L22 40L23 40L23 41L25 41L25 40L26 40L26 41L28 41L28 40L27 40L27 39L28 39L28 36L29 36L29 37L30 37L30 35L29 35L29 34L30 34L30 33L29 33L29 34L28 34L28 32L26 32L26 30L27 30L27 31L28 31L28 30L27 30L27 29L26 29L26 28L27 28L27 27L28 27L28 24L26 24L26 23L28 23L28 20L29 20L29 21L30 21L30 22L29 22L29 23L30 23L30 25L29 25L29 27L30 27L30 28L31 28L31 29L32 29L32 31L30 31L30 30L29 30L29 31L30 31L30 32L32 32L32 33L31 33L31 34L32 34L32 36L31 36L31 37L33 37L33 38L32 38L32 39L31 39L31 38L30 38L30 39L31 39L31 40L30 40L30 41L36 41L36 40L37 40L37 41L39 41L39 39L41 39L41 36L40 36L40 38L39 38L39 37L37 37L37 35L41 35L41 32L40 32L40 34L37 34L37 30L36 30L36 28L34 28L34 27L36 27L36 24L34 24L34 23L35 23L35 20L36 20L36 21L37 21L37 19L36 19L36 18L35 18L35 16L34 16L34 15L36 15L36 14L33 14L33 17L34 17L34 18L35 18L35 20L34 20L34 19L33 19L33 22L32 22L32 21L31 21L31 19L32 19L32 16L31 16L31 15L32 15L32 14L30 14L30 13L32 13L32 12L33 12L33 11L32 11L32 10L35 10L35 11L34 11L34 12L35 12L35 13L36 13L36 10L35 10L35 9L39 9L39 11L40 11L40 13L39 13L39 12L38 12L38 11L37 11L37 17L38 17L38 15L39 15L39 16L40 16L40 15L41 15L41 9L40 9L40 8L35 8L35 9L34 9L34 8L32 8L32 9L31 9L31 8L30 8L30 10L29 10L29 8L28 8L28 7L29 7L29 6L30 6L30 7L31 7L31 6L30 6L30 5L31 5L31 3L32 3L32 7L33 7L33 2L31 2L31 1L29 1L29 0L28 0L28 2L27 2L27 4L28 4L28 2L30 2L30 4L29 4L29 6L28 6L28 7L27 7L27 6L26 6L26 7L25 7L25 6L24 6L24 7L25 7L25 8L22 8L22 7L23 7L23 5L24 5L24 4L22 4L22 3L21 3L21 1L20 1L20 3L21 3L21 4L22 4L22 5L20 5L20 4L19 4L19 3L18 3L18 4L19 4L19 5L17 5L17 3L16 3L16 2L15 2L15 1L16 1L16 0L14 0L14 2L13 2L13 3L12 3L12 1L11 1L11 2L10 2L10 5L9 5L9 1L10 1L10 0ZM17 0L17 2L18 2L18 1L19 1L19 0ZM22 0L22 1L23 1L23 2L24 2L24 3L26 3L26 2L25 2L25 1L26 1L26 0L24 0L24 1L23 1L23 0ZM32 0L32 1L33 1L33 0ZM11 3L11 4L12 4L12 3ZM15 4L15 5L14 5L14 6L13 6L13 8L12 8L12 5L10 5L10 6L9 6L9 7L10 7L10 6L11 6L11 8L12 8L12 10L13 10L13 8L15 8L15 9L16 9L16 8L17 8L17 9L18 9L18 10L19 10L19 11L18 11L18 12L17 12L17 11L16 11L16 10L15 10L15 11L11 11L11 10L10 10L10 8L9 8L9 10L7 10L7 11L5 11L5 12L7 12L7 13L6 13L6 14L7 14L7 15L8 15L8 16L7 16L7 17L6 17L6 18L3 18L3 20L2 20L2 19L1 19L1 20L2 20L2 21L1 21L1 23L2 23L2 21L4 21L4 25L5 25L5 26L4 26L4 28L8 28L8 26L9 26L9 27L11 27L11 28L10 28L10 29L9 29L9 30L7 30L7 29L5 29L5 30L7 30L7 31L11 31L11 33L10 33L10 34L9 34L9 35L10 35L10 34L11 34L11 35L12 35L12 36L14 36L14 37L12 37L12 38L13 38L13 39L14 39L14 38L15 38L15 37L17 37L17 36L19 36L19 37L20 37L20 35L21 35L21 34L22 34L22 36L23 36L23 38L24 38L24 39L25 39L25 37L26 37L26 35L25 35L25 34L26 34L26 33L25 33L25 32L24 32L24 31L25 31L25 30L26 30L26 29L25 29L25 28L26 28L26 26L23 26L23 25L22 25L22 24L23 24L23 23L24 23L24 25L26 25L26 24L25 24L25 23L24 23L24 20L22 20L22 19L24 19L24 16L25 16L25 15L23 15L23 12L22 12L22 11L24 11L24 14L26 14L26 15L28 15L28 13L27 13L27 12L28 12L28 11L27 11L27 12L25 12L25 11L26 11L26 10L25 10L25 9L22 9L22 8L21 8L21 9L22 9L22 10L19 10L19 9L20 9L20 5L19 5L19 8L17 8L17 7L18 7L18 6L17 6L17 5L16 5L16 4ZM14 6L14 7L15 7L15 6ZM16 6L16 7L17 7L17 6ZM21 6L21 7L22 7L22 6ZM26 7L26 9L27 9L27 7ZM3 11L3 12L4 12L4 11ZM7 11L7 12L8 12L8 13L7 13L7 14L8 14L8 15L10 15L10 13L9 13L9 12L8 12L8 11ZM10 11L10 12L11 12L11 13L12 13L12 14L14 14L14 13L15 13L15 14L16 14L16 15L11 15L11 17L10 17L10 16L9 16L9 18L10 18L10 19L11 19L11 20L10 20L10 22L8 22L8 21L9 21L9 20L8 20L8 21L7 21L7 20L6 20L6 21L5 21L5 23L7 23L7 24L5 24L5 25L7 25L7 26L5 26L5 27L7 27L7 26L8 26L8 25L9 25L9 26L12 26L12 28L13 28L13 29L12 29L12 30L13 30L13 29L15 29L15 28L14 28L14 27L17 27L17 28L16 28L16 30L15 30L15 31L13 31L13 32L15 32L15 35L16 35L16 36L17 36L17 35L19 35L19 34L21 34L21 33L22 33L22 34L23 34L23 35L24 35L24 36L25 36L25 35L24 35L24 34L25 34L25 33L24 33L24 32L23 32L23 33L22 33L22 32L21 32L21 29L20 29L20 28L19 28L19 30L18 30L18 31L17 31L17 28L18 28L18 27L21 27L21 28L22 28L22 26L21 26L21 24L19 24L19 23L18 23L18 22L16 22L16 23L14 23L14 22L15 22L15 21L16 21L16 20L15 20L15 19L16 19L16 15L17 15L17 21L19 21L19 19L18 19L18 16L20 16L20 15L21 15L21 17L20 17L20 19L21 19L21 18L23 18L23 17L22 17L22 16L23 16L23 15L22 15L22 13L20 13L20 12L18 12L18 15L17 15L17 13L15 13L15 12L11 12L11 11ZM29 11L29 13L30 13L30 12L32 12L32 11ZM19 13L19 15L20 15L20 13ZM26 13L26 14L27 14L27 13ZM38 13L38 14L39 14L39 13ZM1 14L1 15L2 15L2 14ZM29 15L29 17L28 17L28 16L27 16L27 17L28 17L28 18L31 18L31 16L30 16L30 15ZM12 16L12 17L11 17L11 18L12 18L12 20L13 20L13 19L14 19L14 18L15 18L15 17L14 17L14 18L13 18L13 16ZM7 17L7 18L6 18L6 19L7 19L7 18L8 18L8 17ZM25 17L25 19L26 19L26 17ZM40 17L40 19L39 19L39 18L38 18L38 19L39 19L39 20L40 20L40 19L41 19L41 17ZM4 19L4 20L5 20L5 19ZM29 19L29 20L30 20L30 19ZM14 20L14 21L15 21L15 20ZM20 20L20 21L21 21L21 20ZM6 21L6 22L7 22L7 23L8 23L8 24L9 24L9 23L8 23L8 22L7 22L7 21ZM22 21L22 23L23 23L23 21ZM26 21L26 22L27 22L27 21ZM39 21L39 22L40 22L40 24L41 24L41 22L40 22L40 21ZM10 22L10 23L12 23L12 24L11 24L11 25L12 25L12 24L13 24L13 22ZM20 22L20 23L21 23L21 22ZM36 22L36 23L38 23L38 22ZM17 23L17 24L16 24L16 25L17 25L17 26L19 26L19 24L18 24L18 23ZM31 23L31 24L32 24L32 27L31 27L31 26L30 26L30 27L31 27L31 28L33 28L33 26L34 26L34 24L33 24L33 23ZM14 24L14 25L13 25L13 26L14 26L14 25L15 25L15 24ZM17 24L17 25L18 25L18 24ZM37 24L37 26L38 26L38 27L37 27L37 29L39 29L39 28L38 28L38 27L40 27L40 30L39 30L39 31L41 31L41 25L39 25L39 24ZM23 27L23 28L24 28L24 27ZM23 29L23 30L22 30L22 31L24 31L24 29ZM34 29L34 30L33 30L33 31L34 31L34 32L36 32L36 30L35 30L35 29ZM0 30L0 31L3 31L3 30ZM19 30L19 31L20 31L20 30ZM16 31L16 32L17 32L17 33L19 33L19 32L17 32L17 31ZM0 32L0 33L3 33L3 32ZM4 32L4 33L5 33L5 32ZM8 32L8 33L9 33L9 32ZM12 33L12 35L13 35L13 34L14 34L14 33ZM33 33L33 36L36 36L36 33ZM34 34L34 35L35 35L35 34ZM34 37L34 40L35 40L35 39L36 39L36 38L37 38L37 37ZM38 38L38 39L39 39L39 38ZM40 40L40 41L41 41L41 40ZM0 0L0 7L7 7L7 0ZM1 1L1 6L6 6L6 1ZM2 2L2 5L5 5L5 2ZM34 0L34 7L41 7L41 0ZM35 1L35 6L40 6L40 1ZM36 2L36 5L39 5L39 2ZM0 34L0 41L7 41L7 34ZM1 35L1 40L6 40L6 35ZM2 36L2 39L5 39L5 36Z" fill="#000000"/></g></g></svg>
