<?xml version="1.0" encoding="UTF-8"?>
<svg xmlns="http://www.w3.org/2000/svg" version="1.1" width="200" height="200" viewBox="0 0 200 200"><rect x="0" y="0" width="200" height="200" fill="#ffffff"/><g transform="scale(4.878)"><g transform="translate(0,0)"><path fill-rule="evenodd" d="M9 0L9 1L8 1L8 2L9 2L9 5L8 5L8 8L4 8L4 10L5 10L5 11L3 11L3 10L2 10L2 12L1 12L1 9L0 9L0 13L1 13L1 14L0 14L0 15L1 15L1 14L2 14L2 15L3 15L3 16L0 16L0 18L1 18L1 19L2 19L2 21L3 21L3 23L2 23L2 22L1 22L1 20L0 20L0 23L1 23L1 24L3 24L3 25L2 25L2 28L0 28L0 30L1 30L1 29L3 29L3 30L6 30L6 31L9 31L9 32L10 32L10 33L8 33L8 32L4 32L4 31L2 31L2 32L0 32L0 33L2 33L2 32L4 32L4 33L8 33L8 37L10 37L10 38L9 38L9 39L10 39L10 38L11 38L11 39L12 39L12 38L11 38L11 37L13 37L13 39L15 39L15 38L16 38L16 37L15 37L15 35L14 35L14 32L12 32L12 33L11 33L11 31L10 31L10 30L11 30L11 29L13 29L13 30L14 30L14 29L13 29L13 28L9 28L9 27L11 27L11 26L9 26L9 25L12 25L12 24L13 24L13 25L19 25L19 24L20 24L20 20L19 20L19 19L21 19L21 20L22 20L22 22L23 22L23 23L25 23L25 21L23 21L23 20L24 20L24 19L23 19L23 17L22 17L22 16L24 16L24 15L23 15L23 13L22 13L22 16L20 16L20 13L21 13L21 12L22 12L22 10L23 10L23 11L24 11L24 10L25 10L25 12L24 12L24 13L25 13L25 14L27 14L27 13L25 13L25 12L26 12L26 10L27 10L27 12L29 12L29 13L28 13L28 15L29 15L29 17L30 17L30 18L29 18L29 20L28 20L28 16L26 16L26 15L25 15L25 17L27 17L27 19L26 19L26 21L27 21L27 22L26 22L26 23L28 23L28 21L29 21L29 20L30 20L30 21L32 21L32 23L31 23L31 22L29 22L29 25L27 25L27 24L23 24L23 25L26 25L26 26L25 26L25 27L23 27L23 26L22 26L22 25L20 25L20 26L18 26L18 28L19 28L19 29L18 29L18 31L19 31L19 32L20 32L20 33L21 33L21 30L23 30L23 28L24 28L24 30L26 30L26 31L25 31L25 32L22 32L22 34L23 34L23 33L25 33L25 35L26 35L26 33L27 33L27 36L25 36L25 38L26 38L26 37L27 37L27 41L33 41L33 39L34 39L34 40L35 40L35 39L34 39L34 37L36 37L36 38L37 38L37 37L38 37L38 35L37 35L37 34L38 34L38 30L39 30L39 31L41 31L41 29L40 29L40 28L41 28L41 24L40 24L40 23L41 23L41 22L40 22L40 21L41 21L41 13L40 13L40 11L41 11L41 9L40 9L40 8L39 8L39 9L36 9L36 8L34 8L34 10L37 10L37 13L36 13L36 14L38 14L38 15L37 15L37 17L36 17L36 16L35 16L35 14L33 14L33 13L35 13L35 12L36 12L36 11L35 11L35 12L34 12L34 11L33 11L33 9L32 9L32 8L33 8L33 3L32 3L32 2L33 2L33 1L31 1L31 0L29 0L29 1L28 1L28 0L27 0L27 1L26 1L26 0L25 0L25 2L24 2L24 3L23 3L23 4L22 4L22 3L21 3L21 2L22 2L22 1L23 1L23 0L22 0L22 1L21 1L21 2L20 2L20 3L21 3L21 5L22 5L22 7L21 7L21 6L20 6L20 5L19 5L19 6L18 6L18 7L17 7L17 6L16 6L16 8L17 8L17 9L15 9L15 10L16 10L16 11L15 11L15 12L14 12L14 9L13 9L13 5L11 5L11 6L10 6L10 7L11 7L11 9L13 9L13 12L12 12L12 10L11 10L11 12L12 12L12 14L11 14L11 15L12 15L12 14L13 14L13 13L14 13L14 14L15 14L15 17L14 17L14 16L13 16L13 18L10 18L10 17L9 17L9 18L10 18L10 19L8 19L8 18L6 18L6 17L7 17L7 16L4 16L4 15L7 15L7 14L8 14L8 16L9 16L9 14L8 14L8 13L7 13L7 12L10 12L10 8L9 8L9 5L10 5L10 4L11 4L11 3L13 3L13 2L14 2L14 1L16 1L16 2L17 2L17 3L19 3L19 2L18 2L18 1L16 1L16 0L12 0L12 2L11 2L11 3L10 3L10 2L9 2L9 1L10 1L10 0ZM19 0L19 1L20 1L20 0ZM27 1L27 2L28 2L28 3L26 3L26 2L25 2L25 7L24 7L24 6L23 6L23 7L24 7L24 8L26 8L26 9L25 9L25 10L26 10L26 9L29 9L29 10L28 10L28 11L30 11L30 12L31 12L31 11L32 11L32 13L33 13L33 11L32 11L32 9L29 9L29 7L30 7L30 8L32 8L32 6L31 6L31 7L30 7L30 5L29 5L29 7L28 7L28 5L27 5L27 4L28 4L28 3L31 3L31 5L32 5L32 3L31 3L31 1L30 1L30 2L28 2L28 1ZM14 3L14 5L15 5L15 3ZM17 4L17 5L18 5L18 4ZM26 5L26 7L27 7L27 5ZM11 6L11 7L12 7L12 6ZM14 6L14 7L15 7L15 6ZM19 6L19 7L18 7L18 9L20 9L20 10L22 10L22 8L20 8L20 6ZM8 8L8 9L5 9L5 10L7 10L7 11L5 11L5 12L3 12L3 15L4 15L4 14L7 14L7 13L5 13L5 12L7 12L7 11L8 11L8 9L9 9L9 8ZM23 9L23 10L24 10L24 9ZM17 10L17 11L16 11L16 13L15 13L15 14L17 14L17 11L19 11L19 12L18 12L18 13L20 13L20 12L21 12L21 11L19 11L19 10ZM30 10L30 11L31 11L31 10ZM38 11L38 12L39 12L39 11ZM29 13L29 15L30 15L30 17L31 17L31 18L30 18L30 19L31 19L31 20L32 20L32 21L35 21L35 23L34 23L34 22L33 22L33 23L34 23L34 25L31 25L31 24L30 24L30 25L31 25L31 28L33 28L33 29L32 29L32 31L33 31L33 32L34 32L34 31L35 31L35 29L37 29L37 30L38 30L38 29L37 29L37 27L35 27L35 28L34 28L34 27L32 27L32 26L34 26L34 25L37 25L37 26L38 26L38 28L39 28L39 25L37 25L37 24L39 24L39 23L40 23L40 22L36 22L36 21L35 21L35 20L36 20L36 19L35 19L35 18L36 18L36 17L35 17L35 16L34 16L34 15L32 15L32 14L31 14L31 15L30 15L30 13ZM39 13L39 15L38 15L38 17L39 17L39 19L37 19L37 21L39 21L39 20L40 20L40 17L39 17L39 16L40 16L40 13ZM16 15L16 16L17 16L17 15ZM18 15L18 16L19 16L19 15ZM3 16L3 19L5 19L5 20L3 20L3 21L5 21L5 22L7 22L7 23L6 23L6 24L7 24L7 23L8 23L8 25L9 25L9 23L10 23L10 24L12 24L12 23L11 23L11 22L10 22L10 21L9 21L9 20L8 20L8 21L6 21L6 20L7 20L7 19L6 19L6 18L4 18L4 16ZM31 16L31 17L33 17L33 16ZM15 17L15 18L14 18L14 19L10 19L10 20L13 20L13 21L12 21L12 22L13 22L13 21L14 21L14 22L16 22L16 23L17 23L17 24L18 24L18 23L19 23L19 22L17 22L17 21L16 21L16 20L18 20L18 19L19 19L19 18L21 18L21 19L22 19L22 20L23 20L23 19L22 19L22 17L19 17L19 18L17 18L17 17ZM34 17L34 18L35 18L35 17ZM15 18L15 19L14 19L14 20L16 20L16 19L17 19L17 18ZM32 18L32 19L33 19L33 18ZM34 19L34 20L35 20L35 19ZM27 20L27 21L28 21L28 20ZM8 22L8 23L9 23L9 22ZM3 23L3 24L5 24L5 23ZM13 23L13 24L15 24L15 23ZM35 23L35 24L36 24L36 23ZM6 25L6 26L7 26L7 25ZM0 26L0 27L1 27L1 26ZM4 26L4 27L3 27L3 28L4 28L4 29L6 29L6 30L7 30L7 29L6 29L6 28L8 28L8 27L6 27L6 28L5 28L5 26ZM13 26L13 27L14 27L14 28L15 28L15 26ZM16 26L16 27L17 27L17 26ZM20 26L20 27L19 27L19 28L20 28L20 29L19 29L19 31L20 31L20 29L21 29L21 28L23 28L23 27L21 27L21 26ZM26 26L26 28L25 28L25 29L26 29L26 30L28 30L28 31L29 31L29 30L31 30L31 29L28 29L28 28L29 28L29 26L28 26L28 27L27 27L27 26ZM20 27L20 28L21 28L21 27ZM16 28L16 29L15 29L15 30L16 30L16 31L15 31L15 33L17 33L17 34L16 34L16 36L17 36L17 34L18 34L18 36L19 36L19 38L18 38L18 41L20 41L20 40L19 40L19 38L20 38L20 39L21 39L21 37L22 37L22 40L21 40L21 41L22 41L22 40L23 40L23 39L24 39L24 40L25 40L25 41L26 41L26 40L25 40L25 39L24 39L24 37L23 37L23 36L24 36L24 35L21 35L21 37L20 37L20 35L19 35L19 34L18 34L18 33L17 33L17 32L16 32L16 31L17 31L17 28ZM8 29L8 30L10 30L10 29ZM33 29L33 30L34 30L34 29ZM39 29L39 30L40 30L40 29ZM30 31L30 32L31 32L31 33L30 33L30 34L29 34L29 37L28 37L28 36L27 36L27 37L28 37L28 38L30 38L30 37L31 37L31 39L30 39L30 40L31 40L31 39L33 39L33 38L32 38L32 37L31 37L31 35L30 35L30 34L31 34L31 33L32 33L32 32L31 32L31 31ZM36 31L36 32L37 32L37 31ZM25 32L25 33L26 33L26 32ZM27 32L27 33L29 33L29 32ZM10 33L10 34L11 34L11 35L10 35L10 37L11 37L11 36L13 36L13 37L14 37L14 38L15 38L15 37L14 37L14 35L13 35L13 33L12 33L12 34L11 34L11 33ZM33 33L33 36L36 36L36 33ZM40 33L40 34L39 34L39 36L40 36L40 35L41 35L41 33ZM34 34L34 35L35 35L35 34ZM40 37L40 38L38 38L38 39L36 39L36 40L37 40L37 41L40 41L40 40L41 40L41 37ZM16 39L16 40L13 40L13 41L17 41L17 39ZM10 40L10 41L12 41L12 40ZM0 0L0 7L7 7L7 0ZM1 1L1 6L6 6L6 1ZM2 2L2 5L5 5L5 2ZM34 0L34 7L41 7L41 0ZM35 1L35 6L40 6L40 1ZM36 2L36 5L39 5L39 2ZM0 34L0 41L7 41L7 34ZM1 35L1 40L6 40L6 35ZM2 36L2 39L5 39L5 36Z" fill="#000000"/></g></g></svg>
