<?xml version="1.0" encoding="UTF-8"?>
<svg xmlns="http://www.w3.org/2000/svg" version="1.1" width="200" height="200" viewBox="0 0 200 200"><rect x="0" y="0" width="200" height="200" fill="#ffffff"/><g transform="scale(4.878)"><g transform="translate(0,0)"><path fill-rule="evenodd" d="M8 0L8 3L13 3L13 5L12 5L12 7L13 7L13 8L12 8L12 9L11 9L11 8L9 8L9 6L10 6L10 7L11 7L11 6L10 6L10 4L9 4L9 5L8 5L8 9L7 9L7 8L6 8L6 9L5 9L5 8L2 8L2 10L1 10L1 9L0 9L0 12L1 12L1 11L2 11L2 13L1 13L1 14L0 14L0 15L1 15L1 14L2 14L2 16L0 16L0 18L1 18L1 19L0 19L0 20L1 20L1 22L0 22L0 23L2 23L2 24L0 24L0 25L2 25L2 24L3 24L3 22L4 22L4 24L5 24L5 25L3 25L3 26L2 26L2 28L3 28L3 29L0 29L0 33L1 33L1 30L2 30L2 31L3 31L3 29L5 29L5 30L6 30L6 31L7 31L7 30L6 30L6 29L7 29L7 28L6 28L6 29L5 29L5 27L7 27L7 26L5 26L5 25L7 25L7 24L8 24L8 25L10 25L10 26L11 26L11 25L12 25L12 26L13 26L13 28L12 28L12 27L9 27L9 29L11 29L11 30L8 30L8 32L5 32L5 33L8 33L8 34L10 34L10 36L8 36L8 39L9 39L9 40L11 40L11 39L12 39L12 41L14 41L14 40L13 40L13 39L15 39L15 41L16 41L16 39L18 39L18 38L20 38L20 36L21 36L21 35L22 35L22 36L23 36L23 37L21 37L21 39L24 39L24 40L27 40L27 41L28 41L28 39L30 39L30 40L29 40L29 41L30 41L30 40L33 40L33 41L34 41L34 40L33 40L33 39L30 39L30 38L31 38L31 37L30 37L30 38L27 38L27 39L24 39L24 38L23 38L23 37L24 37L24 36L26 36L26 37L25 37L25 38L26 38L26 37L29 37L29 36L31 36L31 35L32 35L32 38L34 38L34 39L35 39L35 40L36 40L36 39L37 39L37 40L40 40L40 38L41 38L41 37L39 37L39 36L40 36L40 34L41 34L41 33L40 33L40 32L41 32L41 31L40 31L40 30L41 30L41 29L39 29L39 31L40 31L40 32L37 32L37 31L38 31L38 30L37 30L37 29L36 29L36 28L38 28L38 26L39 26L39 28L41 28L41 27L40 27L40 26L41 26L41 23L39 23L39 24L40 24L40 26L39 26L39 25L36 25L36 24L37 24L37 23L38 23L38 22L37 22L37 21L39 21L39 20L36 20L36 19L35 19L35 17L36 17L36 18L37 18L37 17L36 17L36 16L38 16L38 17L39 17L39 16L38 16L38 15L40 15L40 14L41 14L41 13L40 13L40 14L37 14L37 13L36 13L36 16L35 16L35 17L34 17L34 16L32 16L32 17L30 17L30 16L31 16L31 12L32 12L32 13L33 13L33 14L32 14L32 15L34 15L34 13L35 13L35 11L36 11L36 12L38 12L38 11L39 11L39 12L41 12L41 11L40 11L40 10L41 10L41 8L38 8L38 9L40 9L40 10L37 10L37 9L36 9L36 8L32 8L32 7L33 7L33 5L32 5L32 4L33 4L33 1L32 1L32 0L31 0L31 1L32 1L32 4L28 4L28 5L27 5L27 4L26 4L26 7L25 7L25 4L24 4L24 3L25 3L25 2L23 2L23 0L21 0L21 2L23 2L23 4L24 4L24 5L22 5L22 3L19 3L19 2L18 2L18 0L17 0L17 2L18 2L18 3L19 3L19 5L18 5L18 4L17 4L17 5L15 5L15 3L16 3L16 2L15 2L15 1L14 1L14 0L13 0L13 2L9 2L9 1L10 1L10 0ZM11 0L11 1L12 1L12 0ZM19 0L19 1L20 1L20 0ZM26 0L26 1L27 1L27 2L26 2L26 3L31 3L31 2L30 2L30 0L29 0L29 1L27 1L27 0ZM13 2L13 3L14 3L14 2ZM13 5L13 7L14 7L14 5ZM17 5L17 7L16 7L16 6L15 6L15 8L14 8L14 9L16 9L16 10L13 10L13 9L12 9L12 10L11 10L11 9L10 9L10 11L9 11L9 10L7 10L7 9L6 9L6 10L7 10L7 11L6 11L6 12L7 12L7 11L8 11L8 13L6 13L6 14L5 14L5 10L4 10L4 9L3 9L3 10L2 10L2 11L3 11L3 13L2 13L2 14L3 14L3 16L2 16L2 17L1 17L1 18L2 18L2 17L3 17L3 16L5 16L5 17L4 17L4 18L3 18L3 21L4 21L4 22L5 22L5 23L6 23L6 24L7 24L7 23L6 23L6 22L7 22L7 21L8 21L8 20L7 20L7 19L4 19L4 18L8 18L8 19L9 19L9 20L10 20L10 21L9 21L9 23L8 23L8 24L10 24L10 25L11 25L11 24L12 24L12 25L13 25L13 24L14 24L14 29L12 29L12 30L11 30L11 32L10 32L10 34L11 34L11 35L12 35L12 36L11 36L11 37L14 37L14 38L15 38L15 39L16 39L16 38L15 38L15 34L14 34L14 33L16 33L16 32L17 32L17 33L18 33L18 35L19 35L19 36L20 36L20 35L19 35L19 34L21 34L21 33L19 33L19 31L21 31L21 32L22 32L22 33L24 33L24 34L22 34L22 35L25 35L25 34L26 34L26 35L27 35L27 36L29 36L29 35L27 35L27 34L29 34L29 33L26 33L26 31L27 31L27 30L26 30L26 31L25 31L25 32L23 32L23 31L24 31L24 29L26 29L26 28L30 28L30 29L28 29L28 30L29 30L29 31L28 31L28 32L30 32L30 33L31 33L31 31L30 31L30 29L31 29L31 30L32 30L32 31L33 31L33 32L36 32L36 31L34 31L34 30L36 30L36 29L35 29L35 28L36 28L36 27L37 27L37 26L36 26L36 25L35 25L35 24L36 24L36 23L35 23L35 22L36 22L36 21L35 21L35 19L34 19L34 18L33 18L33 17L32 17L32 18L31 18L31 19L30 19L30 17L29 17L29 16L30 16L30 14L27 14L27 13L29 13L29 12L31 12L31 11L34 11L34 10L33 10L33 9L32 9L32 8L30 8L30 5L28 5L28 6L27 6L27 7L28 7L28 6L29 6L29 8L28 8L28 9L27 9L27 8L26 8L26 9L25 9L25 7L24 7L24 6L23 6L23 7L24 7L24 8L23 8L23 9L22 9L22 8L21 8L21 7L22 7L22 5L19 5L19 7L18 7L18 5ZM31 5L31 7L32 7L32 5ZM20 6L20 7L19 7L19 8L18 8L18 7L17 7L17 8L18 8L18 9L19 9L19 10L22 10L22 11L18 11L18 12L20 12L20 13L21 13L21 14L22 14L22 13L23 13L23 14L25 14L25 15L27 15L27 14L26 14L26 13L27 13L27 12L28 12L28 11L29 11L29 9L30 9L30 10L32 10L32 9L30 9L30 8L29 8L29 9L28 9L28 10L27 10L27 9L26 9L26 12L25 12L25 13L23 13L23 12L22 12L22 11L23 11L23 10L24 10L24 11L25 11L25 10L24 10L24 9L23 9L23 10L22 10L22 9L20 9L20 7L21 7L21 6ZM3 10L3 11L4 11L4 10ZM12 10L12 11L13 11L13 10ZM36 10L36 11L37 11L37 10ZM14 11L14 12L9 12L9 14L8 14L8 15L10 15L10 16L6 16L6 15L7 15L7 14L6 14L6 15L5 15L5 16L6 16L6 17L8 17L8 18L9 18L9 19L10 19L10 20L12 20L12 21L13 21L13 22L14 22L14 24L16 24L16 26L15 26L15 28L16 28L16 29L14 29L14 31L12 31L12 32L13 32L13 33L14 33L14 32L15 32L15 30L16 30L16 31L17 31L17 30L18 30L18 31L19 31L19 30L21 30L21 31L23 31L23 29L24 29L24 28L26 28L26 25L29 25L29 26L32 26L32 25L33 25L33 27L34 27L34 26L35 26L35 25L33 25L33 24L32 24L32 25L30 25L30 24L31 24L31 22L32 22L32 23L33 23L33 21L34 21L34 22L35 22L35 21L34 21L34 20L33 20L33 18L32 18L32 20L33 20L33 21L31 21L31 20L30 20L30 21L31 21L31 22L29 22L29 21L28 21L28 20L29 20L29 19L28 19L28 18L27 18L27 17L26 17L26 18L27 18L27 20L23 20L23 19L24 19L24 18L22 18L22 17L21 17L21 16L18 16L18 17L17 17L17 15L16 15L16 14L17 14L17 12L16 12L16 11ZM21 12L21 13L22 13L22 12ZM33 12L33 13L34 13L34 12ZM10 13L10 14L11 14L11 16L10 16L10 19L11 19L11 18L12 18L12 19L14 19L14 21L15 21L15 22L16 22L16 23L17 23L17 24L18 24L18 25L20 25L20 23L21 23L21 24L22 24L22 25L21 25L21 26L22 26L22 27L20 27L20 28L21 28L21 29L23 29L23 28L24 28L24 27L25 27L25 26L24 26L24 27L23 27L23 24L24 24L24 25L26 25L26 24L27 24L27 22L28 22L28 21L26 21L26 23L25 23L25 22L23 22L23 20L22 20L22 22L23 22L23 23L21 23L21 20L20 20L20 19L21 19L21 18L20 18L20 17L18 17L18 19L17 19L17 18L15 18L15 19L14 19L14 16L15 16L15 17L16 17L16 15L14 15L14 14L13 14L13 13L12 13L12 14L11 14L11 13ZM18 13L18 14L19 14L19 13ZM12 14L12 15L13 15L13 16L14 16L14 15L13 15L13 14ZM23 15L23 16L24 16L24 15ZM28 15L28 16L29 16L29 15ZM11 16L11 17L12 17L12 16ZM40 16L40 18L39 18L39 19L40 19L40 18L41 18L41 16ZM19 18L19 19L18 19L18 20L17 20L17 19L16 19L16 20L15 20L15 21L16 21L16 20L17 20L17 21L18 21L18 22L20 22L20 21L19 21L19 19L20 19L20 18ZM4 20L4 21L5 21L5 20ZM6 20L6 21L7 21L7 20ZM40 20L40 21L41 21L41 20ZM10 21L10 24L11 24L11 23L12 23L12 22L11 22L11 21ZM29 23L29 24L30 24L30 23ZM3 26L3 27L5 27L5 26ZM27 26L27 27L28 27L28 26ZM18 27L18 28L17 28L17 29L18 29L18 30L19 30L19 29L18 29L18 28L19 28L19 27ZM22 27L22 28L23 28L23 27ZM31 27L31 28L32 28L32 27ZM33 28L33 29L32 29L32 30L33 30L33 29L34 29L34 28ZM2 32L2 33L4 33L4 32ZM8 32L8 33L9 33L9 32ZM11 33L11 34L12 34L12 33ZM33 33L33 36L36 36L36 33ZM37 33L37 36L39 36L39 34L38 34L38 33ZM13 34L13 35L14 35L14 34ZM16 34L16 36L17 36L17 34ZM30 34L30 35L31 35L31 34ZM34 34L34 35L35 35L35 34ZM34 37L34 38L36 38L36 37ZM9 38L9 39L11 39L11 38ZM37 38L37 39L38 39L38 38ZM19 39L19 41L23 41L23 40L20 40L20 39ZM0 0L0 7L7 7L7 0ZM1 1L1 6L6 6L6 1ZM2 2L2 5L5 5L5 2ZM34 0L34 7L41 7L41 0ZM35 1L35 6L40 6L40 1ZM36 2L36 5L39 5L39 2ZM0 34L0 41L7 41L7 34ZM1 35L1 40L6 40L6 35ZM2 36L2 39L5 39L5 36Z" fill="#000000"/></g></g></svg>
