<?xml version="1.0" encoding="UTF-8"?>
<svg xmlns="http://www.w3.org/2000/svg" version="1.1" width="200" height="200" viewBox="0 0 200 200"><rect x="0" y="0" width="200" height="200" fill="#ffffff"/><g transform="scale(4.878)"><g transform="translate(0,0)"><path fill-rule="evenodd" d="M8 0L8 2L9 2L9 0ZM11 0L11 1L10 1L10 3L11 3L11 2L12 2L12 3L13 3L13 4L9 4L9 3L8 3L8 7L9 7L9 6L10 6L10 8L9 8L9 9L7 9L7 8L6 8L6 9L7 9L7 10L5 10L5 9L4 9L4 8L3 8L3 9L2 9L2 10L1 10L1 9L0 9L0 10L1 10L1 11L2 11L2 10L3 10L3 11L4 11L4 12L2 12L2 13L1 13L1 12L0 12L0 13L1 13L1 15L0 15L0 17L3 17L3 16L4 16L4 18L5 18L5 19L3 19L3 18L2 18L2 19L1 19L1 20L2 20L2 19L3 19L3 21L2 21L2 23L3 23L3 22L5 22L5 23L4 23L4 24L2 24L2 25L0 25L0 26L1 26L1 27L0 27L0 28L1 28L1 29L2 29L2 33L4 33L4 32L3 32L3 31L4 31L4 30L6 30L6 31L5 31L5 33L7 33L7 32L6 32L6 31L8 31L8 30L10 30L10 31L9 31L9 33L8 33L8 34L9 34L9 36L10 36L10 39L11 39L11 37L12 37L12 35L11 35L11 34L10 34L10 31L11 31L11 32L13 32L13 30L12 30L12 29L16 29L16 30L14 30L14 31L16 31L16 30L17 30L17 29L18 29L18 30L20 30L20 31L18 31L18 32L19 32L19 33L18 33L18 35L17 35L17 34L16 34L16 33L17 33L17 32L16 32L16 33L15 33L15 32L14 32L14 33L15 33L15 36L13 36L13 38L12 38L12 40L9 40L9 41L12 41L12 40L15 40L15 41L16 41L16 39L17 39L17 41L19 41L19 39L22 39L22 40L21 40L21 41L22 41L22 40L23 40L23 41L25 41L25 37L27 37L27 36L28 36L28 35L27 35L27 34L25 34L25 32L30 32L30 34L29 34L29 36L30 36L30 34L32 34L32 37L33 37L33 38L32 38L32 40L30 40L30 39L31 39L31 38L30 38L30 37L28 37L28 38L30 38L30 39L29 39L29 40L28 40L28 39L27 39L27 38L26 38L26 39L27 39L27 40L28 40L28 41L33 41L33 39L34 39L34 38L36 38L36 40L37 40L37 41L40 41L40 39L41 39L41 38L40 38L40 37L41 37L41 36L39 36L39 35L37 35L37 33L39 33L39 34L41 34L41 32L40 32L40 31L41 31L41 29L40 29L40 28L41 28L41 26L40 26L40 28L37 28L37 27L38 27L38 26L39 26L39 25L40 25L40 24L41 24L41 23L40 23L40 22L39 22L39 21L40 21L40 20L41 20L41 16L39 16L39 18L38 18L38 17L37 17L37 18L38 18L38 19L40 19L40 20L37 20L37 19L36 19L36 21L35 21L35 19L34 19L34 18L35 18L35 17L36 17L36 15L35 15L35 14L36 14L36 13L34 13L34 12L35 12L35 10L36 10L36 12L37 12L37 10L38 10L38 8L35 8L35 9L34 9L34 10L30 10L30 9L29 9L29 8L30 8L30 7L31 7L31 8L32 8L32 9L33 9L33 6L32 6L32 5L33 5L33 3L32 3L32 2L31 2L31 1L33 1L33 0L31 0L31 1L30 1L30 0L27 0L27 2L26 2L26 3L25 3L25 0L23 0L23 2L22 2L22 1L19 1L19 0L16 0L16 1L15 1L15 0L13 0L13 2L12 2L12 0ZM17 1L17 2L16 2L16 3L15 3L15 2L14 2L14 3L15 3L15 4L14 4L14 5L12 5L12 6L11 6L11 7L12 7L12 9L13 9L13 10L11 10L11 8L10 8L10 9L9 9L9 10L7 10L7 11L5 11L5 12L8 12L8 13L4 13L4 16L7 16L7 15L6 15L6 14L8 14L8 18L7 18L7 17L6 17L6 18L7 18L7 19L5 19L5 21L6 21L6 22L7 22L7 23L6 23L6 24L7 24L7 23L8 23L8 26L9 26L9 27L10 27L10 28L7 28L7 27L6 27L6 26L7 26L7 25L6 25L6 26L4 26L4 27L3 27L3 25L2 25L2 29L4 29L4 28L5 28L5 29L6 29L6 30L7 30L7 29L12 29L12 28L13 28L13 27L12 27L12 26L14 26L14 27L15 27L15 28L19 28L19 29L21 29L21 28L19 28L19 27L21 27L21 26L22 26L22 28L23 28L23 27L24 27L24 29L23 29L23 30L22 30L22 31L21 31L21 32L20 32L20 33L19 33L19 34L21 34L21 37L20 37L20 38L22 38L22 37L23 37L23 39L24 39L24 37L25 37L25 35L24 35L24 37L23 37L23 36L22 36L22 34L21 34L21 32L22 32L22 33L24 33L24 31L23 31L23 30L25 30L25 31L30 31L30 30L31 30L31 28L30 28L30 29L28 29L28 28L29 28L29 27L28 27L28 25L29 25L29 26L30 26L30 27L32 27L32 26L33 26L33 29L32 29L32 30L34 30L34 31L33 31L33 32L34 32L34 31L36 31L36 32L39 32L39 33L40 33L40 32L39 32L39 31L40 31L40 30L38 30L38 31L36 31L36 30L37 30L37 28L36 28L36 29L35 29L35 27L34 27L34 26L35 26L35 25L34 25L34 24L36 24L36 26L37 26L37 25L38 25L38 24L37 24L37 23L38 23L38 22L37 22L37 21L36 21L36 22L37 22L37 23L35 23L35 22L34 22L34 19L33 19L33 21L32 21L32 20L31 20L31 22L32 22L32 23L33 23L33 24L31 24L31 23L29 23L29 22L28 22L28 20L29 20L29 19L30 19L30 18L31 18L31 19L32 19L32 17L35 17L35 15L34 15L34 14L33 14L33 12L32 12L32 13L30 13L30 14L29 14L29 13L28 13L28 12L31 12L31 11L30 11L30 10L28 10L28 6L27 6L27 4L28 4L28 5L30 5L30 4L28 4L28 3L30 3L30 1L28 1L28 2L27 2L27 3L26 3L26 5L25 5L25 4L24 4L24 3L21 3L21 2L19 2L19 1ZM18 2L18 5L20 5L20 4L19 4L19 2ZM16 4L16 7L15 7L15 6L14 6L14 7L15 7L15 8L13 8L13 9L16 9L16 8L19 8L19 9L17 9L17 10L18 10L18 12L16 12L16 10L13 10L13 11L12 11L12 12L11 12L11 11L10 11L10 12L11 12L11 13L10 13L10 15L11 15L11 14L12 14L12 15L13 15L13 16L9 16L9 18L8 18L8 19L9 19L9 18L10 18L10 17L12 17L12 18L15 18L15 19L13 19L13 20L12 20L12 19L11 19L11 20L8 20L8 22L9 22L9 23L10 23L10 24L9 24L9 25L12 25L12 24L13 24L13 25L14 25L14 26L16 26L16 25L17 25L17 27L19 27L19 26L21 26L21 25L23 25L23 26L24 26L24 25L23 25L23 23L24 23L24 24L26 24L26 23L27 23L27 25L25 25L25 30L26 30L26 26L27 26L27 25L28 25L28 23L27 23L27 22L26 22L26 23L24 23L24 21L25 21L25 20L26 20L26 18L27 18L27 17L28 17L28 16L29 16L29 17L30 17L30 16L31 16L31 17L32 17L32 15L33 15L33 14L32 14L32 15L31 15L31 14L30 14L30 15L29 15L29 14L28 14L28 13L27 13L27 12L28 12L28 11L27 11L27 6L26 6L26 10L25 10L25 9L23 9L23 11L24 11L24 12L22 12L22 13L21 13L21 12L20 12L20 11L22 11L22 10L21 10L21 9L20 9L20 8L19 8L19 6L18 6L18 7L17 7L17 4ZM31 4L31 5L32 5L32 4ZM22 5L22 7L23 7L23 8L25 8L25 6L24 6L24 7L23 7L23 5ZM12 6L12 7L13 7L13 6ZM20 6L20 7L21 7L21 6ZM29 6L29 7L30 7L30 6ZM31 6L31 7L32 7L32 6ZM39 8L39 9L40 9L40 10L41 10L41 8ZM3 9L3 10L4 10L4 9ZM19 9L19 10L20 10L20 9ZM36 9L36 10L37 10L37 9ZM8 11L8 12L9 12L9 11ZM14 11L14 12L12 12L12 13L13 13L13 15L14 15L14 14L15 14L15 16L14 16L14 17L16 17L16 16L17 16L17 18L16 18L16 19L15 19L15 20L14 20L14 22L13 22L13 21L12 21L12 22L11 22L11 21L9 21L9 22L10 22L10 23L11 23L11 24L12 24L12 22L13 22L13 23L14 23L14 25L16 25L16 24L15 24L15 23L14 23L14 22L15 22L15 20L18 20L18 21L19 21L19 22L18 22L18 23L19 23L19 22L20 22L20 25L21 25L21 24L22 24L22 23L23 23L23 20L22 20L22 18L21 18L21 17L22 17L22 15L23 15L23 13L22 13L22 15L21 15L21 14L20 14L20 16L19 16L19 15L18 15L18 14L19 14L19 13L20 13L20 12L18 12L18 13L17 13L17 15L16 15L16 14L15 14L15 13L14 13L14 12L15 12L15 11ZM38 11L38 13L37 13L37 16L38 16L38 13L39 13L39 12L40 12L40 13L41 13L41 11ZM24 12L24 16L23 16L23 18L24 18L24 20L25 20L25 18L26 18L26 17L25 17L25 16L26 16L26 15L25 15L25 13L26 13L26 14L27 14L27 13L26 13L26 12ZM2 13L2 15L1 15L1 16L2 16L2 15L3 15L3 13ZM40 14L40 15L41 15L41 14ZM17 15L17 16L18 16L18 15ZM27 15L27 16L28 16L28 15ZM20 16L20 17L19 17L19 18L17 18L17 19L21 19L21 18L20 18L20 17L21 17L21 16ZM6 20L6 21L7 21L7 20ZM20 20L20 22L22 22L22 20ZM16 21L16 22L17 22L17 21ZM0 22L0 23L1 23L1 22ZM33 22L33 23L34 23L34 22ZM18 24L18 25L19 25L19 24ZM29 24L29 25L30 25L30 24ZM31 25L31 26L32 26L32 25ZM11 27L11 28L12 28L12 27ZM6 28L6 29L7 29L7 28ZM27 29L27 30L28 30L28 29ZM0 30L0 31L1 31L1 30ZM11 30L11 31L12 31L12 30ZM22 31L22 32L23 32L23 31ZM0 32L0 33L1 33L1 32ZM12 33L12 34L13 34L13 35L14 35L14 34L13 34L13 33ZM33 33L33 36L36 36L36 33ZM34 34L34 35L35 35L35 34ZM10 35L10 36L11 36L11 35ZM19 35L19 36L20 36L20 35ZM15 36L15 37L16 37L16 38L17 38L17 36ZM38 36L38 37L39 37L39 36ZM8 37L8 38L9 38L9 37ZM36 37L36 38L37 38L37 40L38 40L38 38L37 38L37 37ZM13 38L13 39L15 39L15 38ZM18 38L18 39L19 39L19 38ZM39 38L39 39L40 39L40 38ZM0 0L0 7L7 7L7 0ZM1 1L1 6L6 6L6 1ZM2 2L2 5L5 5L5 2ZM34 0L34 7L41 7L41 0ZM35 1L35 6L40 6L40 1ZM36 2L36 5L39 5L39 2ZM0 34L0 41L7 41L7 34ZM1 35L1 40L6 40L6 35ZM2 36L2 39L5 39L5 36Z" fill="#000000"/></g></g></svg>
