<?xml version="1.0" encoding="UTF-8"?>
<svg xmlns="http://www.w3.org/2000/svg" version="1.1" width="200" height="200" viewBox="0 0 200 200"><rect x="0" y="0" width="200" height="200" fill="#ffffff"/><g transform="scale(4.878)"><g transform="translate(0,0)"><path fill-rule="evenodd" d="M8 0L8 3L9 3L9 4L10 4L10 5L8 5L8 11L7 11L7 10L6 10L6 9L7 9L7 8L6 8L6 9L5 9L5 8L2 8L2 10L3 10L3 11L2 11L2 12L3 12L3 13L5 13L5 15L7 15L7 16L3 16L3 14L2 14L2 13L1 13L1 14L2 14L2 15L1 15L1 16L3 16L3 17L2 17L2 18L1 18L1 17L0 17L0 18L1 18L1 19L2 19L2 22L1 22L1 23L0 23L0 27L1 27L1 28L0 28L0 33L1 33L1 29L2 29L2 30L3 30L3 31L2 31L2 33L4 33L4 32L5 32L5 31L4 31L4 30L5 30L5 29L7 29L7 30L6 30L6 31L7 31L7 32L6 32L6 33L7 33L7 32L8 32L8 31L7 31L7 30L8 30L8 29L7 29L7 28L8 28L8 26L6 26L6 25L8 25L8 24L5 24L5 23L4 23L4 24L5 24L5 25L2 25L2 26L6 26L6 27L7 27L7 28L5 28L5 29L4 29L4 27L3 27L3 28L2 28L2 27L1 27L1 24L2 24L2 23L3 23L3 20L4 20L4 21L7 21L7 22L6 22L6 23L7 23L7 22L8 22L8 23L9 23L9 24L10 24L10 22L11 22L11 23L12 23L12 20L14 20L14 21L13 21L13 22L14 22L14 23L15 23L15 22L16 22L16 24L11 24L11 27L10 27L10 25L9 25L9 27L10 27L10 28L9 28L9 29L11 29L11 30L12 30L12 32L11 32L11 33L10 33L10 34L9 34L9 33L8 33L8 34L9 34L9 36L8 36L8 39L10 39L10 41L11 41L11 40L13 40L13 41L18 41L18 39L19 39L19 41L20 41L20 39L21 39L21 38L22 38L22 36L23 36L23 37L24 37L24 36L25 36L25 38L23 38L23 39L25 39L25 38L26 38L26 41L27 41L27 40L28 40L28 41L32 41L32 40L33 40L33 41L34 41L34 40L33 40L33 39L35 39L35 40L36 40L36 39L37 39L37 40L40 40L40 38L41 38L41 37L40 37L40 36L41 36L41 35L40 35L40 34L41 34L41 32L40 32L40 30L41 30L41 29L40 29L40 28L41 28L41 27L40 27L40 26L41 26L41 23L39 23L39 24L40 24L40 26L39 26L39 25L36 25L36 24L37 24L37 23L38 23L38 21L39 21L39 20L36 20L36 19L35 19L35 17L36 17L36 18L38 18L38 17L39 17L39 16L38 16L38 15L37 15L37 14L38 14L38 13L36 13L36 14L35 14L35 17L34 17L34 16L32 16L32 17L31 17L31 16L29 16L29 15L31 15L31 12L29 12L29 11L28 11L28 10L29 10L29 9L31 9L31 10L33 10L33 9L34 9L34 11L33 11L33 12L32 12L32 13L33 13L33 14L32 14L32 15L34 15L34 13L35 13L35 11L37 11L37 12L38 12L38 11L39 11L39 13L40 13L40 14L39 14L39 15L40 15L40 14L41 14L41 12L40 12L40 10L41 10L41 8L38 8L38 9L40 9L40 10L37 10L37 9L36 9L36 8L33 8L33 9L31 9L31 6L30 6L30 8L29 8L29 9L28 9L28 8L27 8L27 6L28 6L28 7L29 7L29 5L27 5L27 4L26 4L26 5L25 5L25 4L24 4L24 3L23 3L23 4L24 4L24 5L21 5L21 6L20 6L20 3L21 3L21 4L22 4L22 3L21 3L21 2L22 2L22 1L23 1L23 0L22 0L22 1L18 1L18 0L16 0L16 1L17 1L17 2L15 2L15 1L14 1L14 0L13 0L13 1L14 1L14 2L15 2L15 4L14 4L14 5L12 5L12 4L10 4L10 3L11 3L11 2L12 2L12 3L13 3L13 2L12 2L12 0L10 0L10 1L9 1L9 0ZM26 0L26 1L27 1L27 2L26 2L26 3L28 3L28 4L29 4L29 3L31 3L31 2L30 2L30 0L29 0L29 1L27 1L27 0ZM31 0L31 1L32 1L32 2L33 2L33 1L32 1L32 0ZM24 1L24 2L25 2L25 1ZM9 2L9 3L10 3L10 2ZM17 2L17 3L16 3L16 4L15 4L15 5L14 5L14 6L13 6L13 7L12 7L12 5L10 5L10 6L9 6L9 7L10 7L10 6L11 6L11 8L10 8L10 9L9 9L9 11L8 11L8 12L9 12L9 14L8 14L8 13L6 13L6 12L7 12L7 11L6 11L6 10L5 10L5 11L3 11L3 12L5 12L5 13L6 13L6 14L8 14L8 16L9 16L9 18L8 18L8 17L6 17L6 18L8 18L8 19L6 19L6 20L11 20L11 19L12 19L12 18L13 18L13 17L14 17L14 18L15 18L15 20L16 20L16 22L17 22L17 24L16 24L16 26L15 26L15 27L17 27L17 26L18 26L18 28L20 28L20 27L21 27L21 25L22 25L22 26L23 26L23 24L20 24L20 27L19 27L19 23L21 23L21 22L23 22L23 23L24 23L24 24L25 24L25 25L26 25L26 26L24 26L24 27L25 27L25 29L24 29L24 28L23 28L23 27L22 27L22 29L20 29L20 30L17 30L17 32L19 32L19 34L20 34L20 33L21 33L21 35L15 35L15 34L14 34L14 33L16 33L16 34L18 34L18 33L16 33L16 29L17 29L17 28L14 28L14 30L13 30L13 31L14 31L14 32L13 32L13 33L11 33L11 34L10 34L10 37L9 37L9 38L10 38L10 39L11 39L11 38L14 38L14 39L13 39L13 40L17 40L17 39L18 39L18 38L17 38L17 36L18 36L18 37L19 37L19 36L22 36L22 35L23 35L23 36L24 36L24 33L27 33L27 34L28 34L28 35L27 35L27 36L26 36L26 34L25 34L25 36L26 36L26 37L27 37L27 38L28 38L28 37L29 37L29 38L30 38L30 39L28 39L28 40L32 40L32 39L33 39L33 38L36 38L36 37L33 37L33 38L32 38L32 35L31 35L31 34L30 34L30 35L31 35L31 36L29 36L29 33L27 33L27 31L26 31L26 30L27 30L27 28L28 28L28 27L26 27L26 26L28 26L28 25L29 25L29 24L31 24L31 25L30 25L30 26L29 26L29 28L31 28L31 29L28 29L28 30L29 30L29 31L28 31L28 32L30 32L30 33L31 33L31 32L30 32L30 31L31 31L31 30L32 30L32 31L33 31L33 32L36 32L36 31L37 31L37 30L39 30L39 26L38 26L38 28L36 28L36 29L35 29L35 26L36 26L36 25L35 25L35 24L36 24L36 23L35 23L35 22L36 22L36 21L35 21L35 19L34 19L34 18L33 18L33 17L32 17L32 18L31 18L31 17L29 17L29 16L28 16L28 15L29 15L29 14L30 14L30 13L29 13L29 12L28 12L28 13L29 13L29 14L26 14L26 15L25 15L25 13L27 13L27 12L24 12L24 11L26 11L26 10L28 10L28 9L26 9L26 10L24 10L24 6L25 6L25 8L26 8L26 6L25 6L25 5L24 5L24 6L23 6L23 7L22 7L22 6L21 6L21 8L20 8L20 10L19 10L19 11L17 11L17 10L18 10L18 8L19 8L19 7L20 7L20 6L19 6L19 7L18 7L18 6L17 6L17 5L16 5L16 4L19 4L19 2ZM32 3L32 4L30 4L30 5L32 5L32 7L33 7L33 5L32 5L32 4L33 4L33 3ZM14 6L14 7L15 7L15 6ZM16 6L16 7L17 7L17 8L18 8L18 7L17 7L17 6ZM12 8L12 9L11 9L11 10L10 10L10 11L9 11L9 12L11 12L11 13L10 13L10 14L9 14L9 15L10 15L10 16L11 16L11 17L10 17L10 18L9 18L9 19L11 19L11 18L12 18L12 16L13 16L13 15L15 15L15 16L16 16L16 18L17 18L17 19L18 19L18 20L17 20L17 21L18 21L18 22L19 22L19 19L18 19L18 17L19 17L19 16L18 16L18 14L17 14L17 13L16 13L16 14L17 14L17 16L16 16L16 15L15 15L15 14L14 14L14 13L13 13L13 12L16 12L16 11L14 11L14 9L13 9L13 8ZM15 8L15 10L16 10L16 8ZM22 8L22 12L21 12L21 10L20 10L20 11L19 11L19 12L18 12L18 13L19 13L19 12L20 12L20 14L19 14L19 15L21 15L21 16L22 16L22 15L24 15L24 17L23 17L23 18L20 18L20 19L21 19L21 20L20 20L20 22L21 22L21 20L22 20L22 21L23 21L23 22L25 22L25 23L26 23L26 24L27 24L27 25L28 25L28 24L27 24L27 23L28 23L28 22L26 22L26 21L23 21L23 20L26 20L26 19L23 19L23 18L25 18L25 15L24 15L24 14L23 14L23 13L22 13L22 12L23 12L23 11L24 11L24 10L23 10L23 8ZM12 9L12 10L11 10L11 11L12 11L12 12L13 12L13 11L12 11L12 10L13 10L13 9ZM35 9L35 10L36 10L36 9ZM0 10L0 11L1 11L1 10ZM5 11L5 12L6 12L6 11ZM33 12L33 13L34 13L34 12ZM11 13L11 14L10 14L10 15L11 15L11 16L12 16L12 15L13 15L13 14L12 14L12 13ZM21 14L21 15L22 15L22 14ZM26 15L26 16L27 16L27 15ZM36 16L36 17L38 17L38 16ZM40 16L40 18L39 18L39 19L40 19L40 18L41 18L41 16ZM26 17L26 18L27 18L27 19L28 19L28 20L27 20L27 21L29 21L29 22L30 22L30 23L31 23L31 22L32 22L32 25L31 25L31 26L32 26L32 25L34 25L34 26L33 26L33 27L31 27L31 28L33 28L33 29L32 29L32 30L33 30L33 29L34 29L34 28L33 28L33 27L34 27L34 26L35 26L35 25L34 25L34 23L33 23L33 21L34 21L34 22L35 22L35 21L34 21L34 20L33 20L33 21L31 21L31 20L32 20L32 19L33 19L33 18L32 18L32 19L31 19L31 18L30 18L30 19L31 19L31 20L30 20L30 21L29 21L29 18L27 18L27 17ZM2 18L2 19L4 19L4 18ZM22 19L22 20L23 20L23 19ZM40 20L40 21L41 21L41 20ZM8 21L8 22L10 22L10 21ZM30 21L30 22L31 22L31 21ZM17 24L17 25L18 25L18 24ZM12 25L12 26L13 26L13 27L14 27L14 26L13 26L13 25ZM11 27L11 29L12 29L12 27ZM23 29L23 32L22 32L22 34L23 34L23 32L24 32L24 29ZM36 29L36 30L34 30L34 31L36 31L36 30L37 30L37 29ZM9 30L9 32L10 32L10 30ZM14 30L14 31L15 31L15 30ZM3 31L3 32L4 32L4 31ZM20 31L20 32L21 32L21 31ZM25 31L25 32L26 32L26 31ZM38 31L38 32L37 32L37 33L38 33L38 34L37 34L37 35L38 35L38 36L37 36L37 37L38 37L38 36L39 36L39 35L38 35L38 34L39 34L39 33L38 33L38 32L39 32L39 31ZM33 33L33 36L36 36L36 33ZM13 34L13 35L12 35L12 36L11 36L11 37L10 37L10 38L11 38L11 37L12 37L12 36L13 36L13 37L14 37L14 38L16 38L16 36L13 36L13 35L14 35L14 34ZM34 34L34 35L35 35L35 34ZM27 36L27 37L28 37L28 36ZM30 37L30 38L31 38L31 39L32 39L32 38L31 38L31 37ZM19 38L19 39L20 39L20 38ZM37 38L37 39L38 39L38 38ZM21 40L21 41L22 41L22 40ZM0 0L0 7L7 7L7 0ZM1 1L1 6L6 6L6 1ZM2 2L2 5L5 5L5 2ZM34 0L34 7L41 7L41 0ZM35 1L35 6L40 6L40 1ZM36 2L36 5L39 5L39 2ZM0 34L0 41L7 41L7 34ZM1 35L1 40L6 40L6 35ZM2 36L2 39L5 39L5 36Z" fill="#000000"/></g></g></svg>
