<?xml version="1.0" encoding="UTF-8"?>
<svg xmlns="http://www.w3.org/2000/svg" version="1.1" width="200" height="200" viewBox="0 0 200 200"><rect x="0" y="0" width="200" height="200" fill="#ffffff"/><g transform="scale(6.897)"><g transform="translate(0,0)"><path fill-rule="evenodd" d="M9 0L9 1L8 1L8 7L9 7L9 4L10 4L10 7L11 7L11 5L12 5L12 9L11 9L11 10L10 10L10 11L8 11L8 12L6 12L6 11L7 11L7 10L9 10L9 9L10 9L10 8L5 8L5 9L7 9L7 10L6 10L6 11L5 11L5 10L4 10L4 9L3 9L3 8L2 8L2 9L0 9L0 10L2 10L2 9L3 9L3 10L4 10L4 11L2 11L2 12L1 12L1 11L0 11L0 12L1 12L1 15L2 15L2 16L0 16L0 17L2 17L2 18L0 18L0 19L2 19L2 20L0 20L0 21L2 21L2 20L4 20L4 21L5 21L5 20L4 20L4 19L5 19L5 18L4 18L4 19L3 19L3 17L4 17L4 15L2 15L2 12L3 12L3 13L4 13L4 14L5 14L5 13L4 13L4 12L6 12L6 13L7 13L7 14L6 14L6 15L5 15L5 17L7 17L7 18L6 18L6 19L7 19L7 20L6 20L6 21L7 21L7 20L9 20L9 19L10 19L10 22L9 22L9 21L8 21L8 24L9 24L9 26L8 26L8 27L9 27L9 28L10 28L10 29L15 29L15 27L16 27L16 26L18 26L18 27L17 27L17 28L18 28L18 29L21 29L21 28L20 28L20 27L22 27L22 26L21 26L21 25L25 25L25 23L26 23L26 21L27 21L27 20L23 20L23 19L26 19L26 18L28 18L28 17L29 17L29 16L27 16L27 17L25 17L25 16L23 16L23 15L25 15L25 14L26 14L26 13L29 13L29 12L27 12L27 11L29 11L29 9L28 9L28 8L23 8L23 9L28 9L28 10L27 10L27 11L25 11L25 10L22 10L22 11L21 11L21 12L18 12L18 11L20 11L20 10L19 10L19 8L21 8L21 9L22 9L22 8L21 8L21 3L19 3L19 4L16 4L16 3L18 3L18 2L17 2L17 1L19 1L19 2L20 2L20 0L17 0L17 1L16 1L16 0L15 0L15 3L14 3L14 4L16 4L16 5L12 5L12 4L13 4L13 3L12 3L12 4L11 4L11 3L10 3L10 2L12 2L12 1L11 1L11 0ZM9 1L9 2L10 2L10 1ZM19 4L19 5L16 5L16 6L15 6L15 7L14 7L14 6L13 6L13 8L15 8L15 9L14 9L14 11L16 11L16 13L17 13L17 14L15 14L15 13L14 13L14 12L13 12L13 9L12 9L12 11L11 11L11 12L9 12L9 16L8 16L8 17L12 17L12 18L11 18L11 19L12 19L12 18L13 18L13 20L11 20L11 22L12 22L12 23L13 23L13 24L10 24L10 25L11 25L11 28L13 28L13 26L14 26L14 24L15 24L15 22L14 22L14 21L16 21L16 20L15 20L15 19L17 19L17 22L16 22L16 23L17 23L17 25L19 25L19 24L20 24L20 23L18 23L18 21L19 21L19 22L20 22L20 20L19 20L19 19L20 19L20 17L19 17L19 16L21 16L21 18L25 18L25 17L23 17L23 16L22 16L22 15L23 15L23 14L25 14L25 13L24 13L24 12L25 12L25 11L23 11L23 14L22 14L22 12L21 12L21 13L19 13L19 14L18 14L18 13L17 13L17 11L18 11L18 10L16 10L16 9L17 9L17 8L18 8L18 6L19 6L19 7L20 7L20 6L19 6L19 5L20 5L20 4ZM16 6L16 8L17 8L17 6ZM11 12L11 13L10 13L10 14L11 14L11 15L10 15L10 16L11 16L11 15L12 15L12 14L14 14L14 13L13 13L13 12ZM7 14L7 15L6 15L6 16L7 16L7 15L8 15L8 14ZM17 14L17 15L16 15L16 16L15 16L15 15L13 15L13 17L14 17L14 16L15 16L15 17L16 17L16 16L17 16L17 17L18 17L18 16L19 16L19 15L21 15L21 14L19 14L19 15L18 15L18 14ZM27 14L27 15L29 15L29 14ZM2 16L2 17L3 17L3 16ZM7 18L7 19L8 19L8 18ZM14 18L14 19L15 19L15 18ZM17 18L17 19L18 19L18 18ZM21 19L21 20L22 20L22 19ZM21 21L21 24L24 24L24 21ZM13 22L13 23L14 23L14 22ZM22 22L22 23L23 23L23 22ZM28 22L28 23L29 23L29 22ZM26 24L26 25L28 25L28 24ZM15 25L15 26L16 26L16 25ZM19 26L19 27L18 27L18 28L19 28L19 27L20 27L20 26ZM23 26L23 28L22 28L22 29L23 29L23 28L24 28L24 29L29 29L29 26L25 26L25 27L28 27L28 28L24 28L24 26ZM0 0L0 7L7 7L7 0ZM1 1L1 6L6 6L6 1ZM2 2L2 5L5 5L5 2ZM22 0L22 7L29 7L29 0ZM23 1L23 6L28 6L28 1ZM24 2L24 5L27 5L27 2ZM0 22L0 29L7 29L7 22ZM1 23L1 28L6 28L6 23ZM2 24L2 27L5 27L5 24Z" fill="#000000"/></g></g></svg>
