<?xml version="1.0" encoding="UTF-8"?>
<svg xmlns="http://www.w3.org/2000/svg" version="1.1" width="200" height="200" viewBox="0 0 200 200"><rect x="0" y="0" width="200" height="200" fill="#ffffff"/><g transform="scale(6.897)"><g transform="translate(0,0)"><path fill-rule="evenodd" d="M8 0L8 1L9 1L9 0ZM10 0L10 2L9 2L9 3L8 3L8 4L11 4L11 5L9 5L9 6L8 6L8 7L9 7L9 6L10 6L10 7L11 7L11 6L12 6L12 7L13 7L13 8L10 8L10 9L9 9L9 8L8 8L8 9L9 9L9 10L8 10L8 11L11 11L11 15L10 15L10 18L12 18L12 19L10 19L10 20L8 20L8 18L9 18L9 17L7 17L7 16L4 16L4 15L5 15L5 14L6 14L6 15L7 15L7 14L6 14L6 13L8 13L8 16L9 16L9 14L10 14L10 13L9 13L9 12L6 12L6 11L7 11L7 10L6 10L6 9L7 9L7 8L4 8L4 9L3 9L3 8L2 8L2 9L3 9L3 11L4 11L4 12L2 12L2 10L1 10L1 9L0 9L0 11L1 11L1 12L0 12L0 13L1 13L1 14L0 14L0 17L1 17L1 18L0 18L0 19L1 19L1 20L0 20L0 21L1 21L1 20L2 20L2 21L3 21L3 20L2 20L2 19L1 19L1 18L4 18L4 19L7 19L7 20L5 20L5 21L7 21L7 20L8 20L8 22L9 22L9 23L8 23L8 25L9 25L9 26L8 26L8 27L9 27L9 29L12 29L12 28L13 28L13 29L14 29L14 27L15 27L15 29L16 29L16 27L19 27L19 28L18 28L18 29L20 29L20 27L21 27L21 26L22 26L22 25L23 25L23 26L24 26L24 25L25 25L25 26L26 26L26 27L25 27L25 28L23 28L23 27L22 27L22 28L23 28L23 29L26 29L26 27L27 27L27 28L28 28L28 29L29 29L29 26L28 26L28 25L29 25L29 24L28 24L28 23L27 23L27 24L26 24L26 23L25 23L25 20L26 20L26 21L28 21L28 22L29 22L29 21L28 21L28 19L29 19L29 18L27 18L27 17L26 17L26 14L24 14L24 13L25 13L25 11L26 11L26 13L27 13L27 12L28 12L28 13L29 13L29 12L28 12L28 11L29 11L29 8L28 8L28 9L26 9L26 8L25 8L25 9L24 9L24 10L25 10L25 11L24 11L24 12L23 12L23 10L22 10L22 8L21 8L21 0L20 0L20 1L19 1L19 2L20 2L20 3L19 3L19 5L18 5L18 3L17 3L17 4L16 4L16 2L14 2L14 1L13 1L13 0ZM16 0L16 1L17 1L17 2L18 2L18 1L17 1L17 0ZM11 1L11 3L12 3L12 4L14 4L14 3L12 3L12 1ZM15 4L15 8L13 8L13 11L12 11L12 9L11 9L11 11L12 11L12 15L11 15L11 17L12 17L12 15L13 15L13 14L14 14L14 15L15 15L15 14L16 14L16 13L17 13L17 12L20 12L20 11L18 11L18 10L19 10L19 8L20 8L20 5L19 5L19 7L18 7L18 5L16 5L16 4ZM13 6L13 7L14 7L14 6ZM16 6L16 8L17 8L17 6ZM14 9L14 10L16 10L16 11L14 11L14 12L17 12L17 10L16 10L16 9ZM4 10L4 11L6 11L6 10ZM26 10L26 11L28 11L28 10ZM21 11L21 12L22 12L22 11ZM1 12L1 13L2 13L2 15L1 15L1 16L2 16L2 15L4 15L4 14L3 14L3 13L2 13L2 12ZM18 13L18 15L17 15L17 16L18 16L18 17L17 17L17 18L16 18L16 19L15 19L15 18L14 18L14 17L16 17L16 16L13 16L13 18L14 18L14 19L15 19L15 21L16 21L16 23L13 23L13 22L14 22L14 21L13 21L13 20L10 20L10 21L9 21L9 22L11 22L11 23L10 23L10 26L11 26L11 27L10 27L10 28L12 28L12 26L13 26L13 27L14 27L14 26L13 26L13 24L15 24L15 27L16 27L16 24L18 24L18 25L17 25L17 26L18 26L18 25L19 25L19 26L20 26L20 24L19 24L19 23L20 23L20 22L17 22L17 21L18 21L18 20L19 20L19 21L20 21L20 20L21 20L21 19L22 19L22 18L23 18L23 19L24 19L24 18L25 18L25 19L26 19L26 20L27 20L27 18L26 18L26 17L24 17L24 16L25 16L25 15L24 15L24 14L23 14L23 15L22 15L22 14L21 14L21 13L20 13L20 14L19 14L19 13ZM20 14L20 15L18 15L18 16L20 16L20 15L21 15L21 14ZM27 14L27 16L28 16L28 17L29 17L29 16L28 16L28 15L29 15L29 14ZM23 15L23 16L22 16L22 17L23 17L23 18L24 18L24 17L23 17L23 16L24 16L24 15ZM4 17L4 18L7 18L7 17ZM18 17L18 19L19 19L19 20L20 20L20 19L19 19L19 18L20 18L20 17ZM21 21L21 24L24 24L24 21ZM22 22L22 23L23 23L23 22ZM12 23L12 24L11 24L11 25L12 25L12 24L13 24L13 23ZM27 24L27 25L26 25L26 26L27 26L27 27L28 27L28 26L27 26L27 25L28 25L28 24ZM0 0L0 7L7 7L7 0ZM1 1L1 6L6 6L6 1ZM2 2L2 5L5 5L5 2ZM22 0L22 7L29 7L29 0ZM23 1L23 6L28 6L28 1ZM24 2L24 5L27 5L27 2ZM0 22L0 29L7 29L7 22ZM1 23L1 28L6 28L6 23ZM2 24L2 27L5 27L5 24Z" fill="#000000"/></g></g></svg>
