<?xml version="1.0" encoding="UTF-8"?>
<svg xmlns="http://www.w3.org/2000/svg" version="1.1" width="200" height="200" viewBox="0 0 200 200"><rect x="0" y="0" width="200" height="200" fill="#ffffff"/><g transform="scale(6.897)"><g transform="translate(0,0)"><path fill-rule="evenodd" d="M9 0L9 1L8 1L8 7L9 7L9 8L5 8L5 9L3 9L3 8L2 8L2 9L0 9L0 10L1 10L1 11L3 11L3 10L4 10L4 12L3 12L3 14L2 14L2 15L1 15L1 18L0 18L0 19L2 19L2 20L0 20L0 21L3 21L3 18L2 18L2 16L4 16L4 21L5 21L5 20L6 20L6 21L7 21L7 20L6 20L6 19L7 19L7 18L8 18L8 17L7 17L7 16L9 16L9 15L11 15L11 17L12 17L12 14L13 14L13 17L14 17L14 18L11 18L11 19L10 19L10 17L9 17L9 19L8 19L8 24L10 24L10 26L11 26L11 28L10 28L10 27L9 27L9 26L8 26L8 27L9 27L9 29L16 29L16 28L17 28L17 29L19 29L19 27L18 27L18 26L19 26L19 24L18 24L18 25L15 25L15 24L16 24L16 23L15 23L15 24L14 24L14 22L17 22L17 23L18 23L18 21L17 21L17 20L18 20L18 19L20 19L20 18L18 18L18 17L20 17L20 16L18 16L18 15L21 15L21 19L22 19L22 20L19 20L19 21L20 21L20 25L25 25L25 23L26 23L26 21L27 21L27 22L28 22L28 23L27 23L27 24L26 24L26 25L27 25L27 24L28 24L28 25L29 25L29 24L28 24L28 23L29 23L29 21L27 21L27 20L23 20L23 19L26 19L26 18L28 18L28 19L29 19L29 18L28 18L28 17L29 17L29 16L27 16L27 17L25 17L25 16L22 16L22 15L25 15L25 14L26 14L26 13L29 13L29 12L27 12L27 11L29 11L29 9L28 9L28 8L23 8L23 10L22 10L22 11L21 11L21 9L22 9L22 8L21 8L21 0L19 0L19 1L20 1L20 2L19 2L19 3L20 3L20 5L19 5L19 4L18 4L18 5L15 5L15 2L14 2L14 1L15 1L15 0L14 0L14 1L13 1L13 0L12 0L12 1L11 1L11 0ZM17 0L17 1L16 1L16 3L18 3L18 2L17 2L17 1L18 1L18 0ZM9 1L9 3L10 3L10 2L11 2L11 4L12 4L12 5L11 5L11 8L9 8L9 10L8 10L8 9L5 9L5 11L6 11L6 12L7 12L7 13L5 13L5 12L4 12L4 13L5 13L5 14L4 14L4 15L6 15L6 16L5 16L5 17L6 17L6 18L7 18L7 17L6 17L6 16L7 16L7 15L6 15L6 14L7 14L7 13L8 13L8 14L9 14L9 12L7 12L7 11L9 11L9 10L10 10L10 13L11 13L11 14L12 14L12 13L13 13L13 14L14 14L14 17L15 17L15 18L14 18L14 19L12 19L12 20L10 20L10 21L9 21L9 22L10 22L10 23L11 23L11 24L12 24L12 25L13 25L13 26L12 26L12 27L13 27L13 26L14 26L14 25L13 25L13 23L12 23L12 20L13 20L13 21L14 21L14 19L15 19L15 21L16 21L16 18L17 18L17 19L18 19L18 18L17 18L17 17L18 17L18 16L17 16L17 15L18 15L18 14L22 14L22 12L21 12L21 13L20 13L20 12L19 12L19 11L20 11L20 8L19 8L19 7L20 7L20 6L19 6L19 7L18 7L18 6L17 6L17 7L16 7L16 6L15 6L15 5L14 5L14 6L13 6L13 8L12 8L12 5L13 5L13 4L14 4L14 3L12 3L12 2L13 2L13 1L12 1L12 2L11 2L11 1ZM9 6L9 7L10 7L10 6ZM14 6L14 7L15 7L15 6ZM17 7L17 8L16 8L16 12L15 12L15 9L14 9L14 8L13 8L13 9L12 9L12 10L11 10L11 9L10 9L10 10L11 10L11 11L12 11L12 12L11 12L11 13L12 13L12 12L14 12L14 14L15 14L15 16L16 16L16 15L17 15L17 14L18 14L18 11L19 11L19 10L17 10L17 9L18 9L18 7ZM13 9L13 11L14 11L14 9ZM25 9L25 10L24 10L24 11L26 11L26 9ZM27 9L27 10L28 10L28 9ZM6 10L6 11L7 11L7 10ZM0 12L0 13L1 13L1 12ZM16 12L16 13L15 13L15 14L17 14L17 12ZM23 12L23 14L25 14L25 13L24 13L24 12ZM27 14L27 15L29 15L29 14ZM22 17L22 18L25 18L25 17ZM10 21L10 22L11 22L11 21ZM21 21L21 24L24 24L24 21ZM22 22L22 23L23 23L23 22ZM16 26L16 27L15 27L15 28L16 28L16 27L17 27L17 28L18 28L18 27L17 27L17 26ZM21 26L21 29L22 29L22 28L24 28L24 29L26 29L26 28L24 28L24 26L23 26L23 27L22 27L22 26ZM25 26L25 27L28 27L28 28L27 28L27 29L29 29L29 26ZM0 0L0 7L7 7L7 0ZM1 1L1 6L6 6L6 1ZM2 2L2 5L5 5L5 2ZM22 0L22 7L29 7L29 0ZM23 1L23 6L28 6L28 1ZM24 2L24 5L27 5L27 2ZM0 22L0 29L7 29L7 22ZM1 23L1 28L6 28L6 23ZM2 24L2 27L5 27L5 24Z" fill="#000000"/></g></g></svg>
