<?xml version="1.0" encoding="UTF-8"?>
<svg xmlns="http://www.w3.org/2000/svg" version="1.1" width="200" height="200" viewBox="0 0 200 200"><rect x="0" y="0" width="200" height="200" fill="#ffffff"/><g transform="scale(4.878)"><g transform="translate(0,0)"><path fill-rule="evenodd" d="M10 0L10 2L9 2L9 1L8 1L8 2L9 2L9 5L8 5L8 8L4 8L4 9L0 9L0 11L3 11L3 10L4 10L4 12L3 12L3 14L4 14L4 15L5 15L5 14L4 14L4 12L5 12L5 13L9 13L9 14L10 14L10 15L8 15L8 14L6 14L6 15L8 15L8 17L7 17L7 16L5 16L5 17L7 17L7 18L6 18L6 19L5 19L5 18L3 18L3 16L2 16L2 14L1 14L1 13L0 13L0 17L1 17L1 18L0 18L0 22L2 22L2 20L3 20L3 21L4 21L4 22L3 22L3 23L4 23L4 24L3 24L3 26L2 26L2 24L1 24L1 23L0 23L0 24L1 24L1 25L0 25L0 26L1 26L1 27L0 27L0 30L1 30L1 27L3 27L3 33L8 33L8 37L10 37L10 38L9 38L9 39L10 39L10 40L9 40L9 41L11 41L11 39L13 39L13 38L15 38L15 40L14 40L14 41L15 41L15 40L16 40L16 37L17 37L17 34L19 34L19 31L22 31L22 32L24 32L24 33L25 33L25 34L24 34L24 35L21 35L21 34L23 34L23 33L21 33L21 32L20 32L20 33L21 33L21 34L20 34L20 35L18 35L18 38L17 38L17 40L18 40L18 41L19 41L19 39L20 39L20 37L19 37L19 36L21 36L21 37L22 37L22 38L21 38L21 39L22 39L22 38L24 38L24 39L23 39L23 40L21 40L21 41L23 41L23 40L25 40L25 39L26 39L26 40L27 40L27 41L33 41L33 39L34 39L34 40L35 40L35 39L34 39L34 37L36 37L36 38L37 38L37 39L36 39L36 40L37 40L37 41L40 41L40 40L41 40L41 37L40 37L40 36L41 36L41 33L40 33L40 34L39 34L39 33L38 33L38 34L37 34L37 32L35 32L35 31L34 31L34 32L31 32L31 31L29 31L29 29L31 29L31 30L32 30L32 31L33 31L33 29L35 29L35 30L37 30L37 29L38 29L38 30L39 30L39 31L40 31L40 32L41 32L41 29L40 29L40 30L39 30L39 28L38 28L38 26L37 26L37 25L32 25L32 24L35 24L35 23L36 23L36 24L37 24L37 22L36 22L36 21L37 21L37 19L39 19L39 17L40 17L40 20L39 20L39 21L38 21L38 22L40 22L40 23L41 23L41 22L40 22L40 21L41 21L41 13L39 13L39 12L38 12L38 11L40 11L40 12L41 12L41 9L40 9L40 8L39 8L39 9L36 9L36 8L34 8L34 9L33 9L33 6L32 6L32 5L33 5L33 1L31 1L31 0L30 0L30 2L29 2L29 1L28 1L28 0L27 0L27 1L28 1L28 2L27 2L27 3L26 3L26 2L25 2L25 3L24 3L24 2L23 2L23 1L25 1L25 0L23 0L23 1L22 1L22 3L21 3L21 2L20 2L20 3L17 3L17 2L16 2L16 1L18 1L18 2L19 2L19 1L18 1L18 0L16 0L16 1L14 1L14 0L12 0L12 2L11 2L11 0ZM13 2L13 4L12 4L12 3L11 3L11 4L10 4L10 5L12 5L12 6L11 6L11 8L8 8L8 9L6 9L6 10L5 10L5 12L9 12L9 10L8 10L8 9L10 9L10 10L11 10L11 11L10 11L10 12L11 12L11 15L10 15L10 16L11 16L11 17L8 17L8 18L9 18L9 19L10 19L10 18L12 18L12 17L15 17L15 16L16 16L16 17L18 17L18 18L19 18L19 16L16 16L16 15L15 15L15 16L14 16L14 15L13 15L13 14L14 14L14 13L13 13L13 11L14 11L14 8L16 8L16 9L15 9L15 10L16 10L16 11L15 11L15 12L16 12L16 14L17 14L17 15L19 15L19 14L20 14L20 15L21 15L21 17L20 17L20 18L21 18L21 19L19 19L19 20L18 20L18 19L17 19L17 18L16 18L16 19L15 19L15 20L16 20L16 21L19 21L19 22L17 22L17 23L12 23L12 24L11 24L11 25L10 25L10 26L11 26L11 25L14 25L14 26L15 26L15 27L13 27L13 26L12 26L12 27L13 27L13 28L11 28L11 27L9 27L9 24L7 24L7 23L8 23L8 21L9 21L9 23L10 23L10 21L11 21L11 22L13 22L13 21L12 21L12 20L14 20L14 18L13 18L13 19L11 19L11 20L8 20L8 21L5 21L5 19L3 19L3 20L4 20L4 21L5 21L5 22L4 22L4 23L6 23L6 24L4 24L4 25L6 25L6 26L7 26L7 27L6 27L6 28L8 28L8 30L7 30L7 29L5 29L5 27L4 27L4 26L3 26L3 27L4 27L4 29L5 29L5 30L4 30L4 32L7 32L7 31L8 31L8 30L9 30L9 32L11 32L11 34L12 34L12 36L10 36L10 33L9 33L9 36L10 36L10 37L11 37L11 38L10 38L10 39L11 39L11 38L13 38L13 37L16 37L16 35L15 35L15 34L17 34L17 33L16 33L16 31L19 31L19 29L18 29L18 30L16 30L16 29L14 29L14 30L13 30L13 28L17 28L17 27L19 27L19 26L20 26L20 25L19 25L19 26L18 26L18 25L17 25L17 24L19 24L19 23L20 23L20 24L21 24L21 22L20 22L20 21L22 21L22 20L21 20L21 19L23 19L23 20L25 20L25 18L26 18L26 21L25 21L25 22L24 22L24 23L23 23L23 22L22 22L22 25L21 25L21 26L24 26L24 25L25 25L25 27L23 27L23 30L22 30L22 31L24 31L24 32L25 32L25 31L26 31L26 29L24 29L24 28L26 28L26 27L27 27L27 25L28 25L28 28L27 28L27 32L26 32L26 33L27 33L27 32L29 32L29 31L28 31L28 29L29 29L29 25L28 25L28 24L27 24L27 23L25 23L25 22L26 22L26 21L28 21L28 23L30 23L30 24L32 24L32 21L36 21L36 19L35 19L35 18L36 18L36 17L37 17L37 18L38 18L38 17L39 17L39 16L40 16L40 15L39 15L39 14L38 14L38 13L37 13L37 11L35 11L35 12L34 12L34 11L33 11L33 13L32 13L32 15L33 15L33 16L31 16L31 15L30 15L30 16L31 16L31 17L30 17L30 18L29 18L29 16L26 16L26 17L25 17L25 18L24 18L24 17L22 17L22 15L21 15L21 12L22 12L22 13L23 13L23 12L25 12L25 10L24 10L24 9L23 9L23 10L22 10L22 8L27 8L27 9L28 9L28 10L30 10L30 11L31 11L31 12L32 12L32 10L33 10L33 9L28 9L28 8L27 8L27 7L28 7L28 6L29 6L29 7L30 7L30 6L29 6L29 5L32 5L32 3L30 3L30 4L29 4L29 2L28 2L28 3L27 3L27 4L28 4L28 5L26 5L26 6L25 6L25 4L26 4L26 3L25 3L25 4L24 4L24 6L23 6L23 4L22 4L22 5L16 5L16 6L15 6L15 7L14 7L14 5L15 5L15 4L17 4L17 3L16 3L16 2L15 2L15 4L14 4L14 2ZM13 4L13 5L14 5L14 4ZM9 6L9 7L10 7L10 6ZM12 6L12 7L13 7L13 6ZM16 6L16 8L17 8L17 11L18 11L18 14L19 14L19 13L20 13L20 11L21 11L21 8L22 8L22 7L23 7L23 6L22 6L22 7L21 7L21 6L20 6L20 7L19 7L19 6L18 6L18 7L17 7L17 6ZM24 6L24 7L25 7L25 6ZM26 6L26 7L27 7L27 6ZM31 6L31 7L32 7L32 6ZM20 7L20 8L18 8L18 9L19 9L19 10L20 10L20 8L21 8L21 7ZM12 8L12 9L11 9L11 10L12 10L12 11L13 11L13 8ZM35 9L35 10L36 10L36 9ZM6 10L6 11L8 11L8 10ZM23 10L23 11L22 11L22 12L23 12L23 11L24 11L24 10ZM26 12L26 15L27 15L27 14L28 14L28 15L29 15L29 14L30 14L30 13L28 13L28 12ZM12 13L12 14L13 14L13 13ZM33 13L33 15L34 15L34 16L35 16L35 17L34 17L34 18L35 18L35 17L36 17L36 16L35 16L35 15L38 15L38 14L37 14L37 13L36 13L36 14L34 14L34 13ZM12 15L12 16L13 16L13 15ZM23 15L23 16L24 16L24 15ZM21 17L21 18L22 18L22 17ZM26 17L26 18L27 18L27 19L28 19L28 21L29 21L29 18L28 18L28 17ZM32 17L32 19L31 19L31 18L30 18L30 19L31 19L31 21L30 21L30 23L31 23L31 21L32 21L32 20L33 20L33 17ZM1 18L1 20L2 20L2 18ZM6 19L6 20L7 20L7 19ZM34 19L34 20L35 20L35 19ZM14 21L14 22L15 22L15 21ZM6 22L6 23L7 23L7 22ZM34 22L34 23L35 23L35 22ZM24 23L24 24L23 24L23 25L24 25L24 24L25 24L25 25L27 25L27 24L25 24L25 23ZM6 24L6 25L7 25L7 26L8 26L8 25L7 25L7 24ZM14 24L14 25L16 25L16 27L17 27L17 25L16 25L16 24ZM39 24L39 27L40 27L40 28L41 28L41 24ZM30 25L30 26L31 26L31 27L32 27L32 29L33 29L33 27L34 27L34 28L35 28L35 29L37 29L37 26L33 26L33 27L32 27L32 25ZM8 27L8 28L9 28L9 27ZM35 27L35 28L36 28L36 27ZM10 28L10 29L9 29L9 30L10 30L10 29L11 29L11 28ZM21 28L21 29L20 29L20 30L21 30L21 29L22 29L22 28ZM6 30L6 31L7 31L7 30ZM11 30L11 31L12 31L12 32L13 32L13 33L15 33L15 32L13 32L13 30ZM24 30L24 31L25 31L25 30ZM0 32L0 33L2 33L2 32ZM28 33L28 35L26 35L26 34L25 34L25 35L26 35L26 37L29 37L29 39L33 39L33 38L32 38L32 37L30 37L30 36L28 36L28 35L29 35L29 34L30 34L30 35L31 35L31 36L32 36L32 35L31 35L31 34L32 34L32 33ZM33 33L33 36L36 36L36 33ZM34 34L34 35L35 35L35 34ZM38 34L38 37L37 37L37 38L38 38L38 39L37 39L37 40L39 40L39 38L40 38L40 37L39 37L39 36L40 36L40 35L39 35L39 34ZM14 35L14 36L15 36L15 35ZM12 36L12 37L13 37L13 36ZM22 36L22 37L24 37L24 38L25 38L25 36ZM38 37L38 38L39 38L39 37ZM26 38L26 39L27 39L27 38ZM12 40L12 41L13 41L13 40ZM0 0L0 7L7 7L7 0ZM1 1L1 6L6 6L6 1ZM2 2L2 5L5 5L5 2ZM34 0L34 7L41 7L41 0ZM35 1L35 6L40 6L40 1ZM36 2L36 5L39 5L39 2ZM0 34L0 41L7 41L7 34ZM1 35L1 40L6 40L6 35ZM2 36L2 39L5 39L5 36Z" fill="#000000"/></g></g></svg>
