<?xml version="1.0" encoding="UTF-8"?>
<svg xmlns="http://www.w3.org/2000/svg" version="1.1" width="200" height="200" viewBox="0 0 200 200"><rect x="0" y="0" width="200" height="200" fill="#ffffff"/><g transform="scale(6.897)"><g transform="translate(0,0)"><path fill-rule="evenodd" d="M9 0L9 1L10 1L10 0ZM11 0L11 1L12 1L12 3L10 3L10 4L8 4L8 5L9 5L9 6L8 6L8 8L6 8L6 9L7 9L7 10L6 10L6 11L7 11L7 12L6 12L6 13L5 13L5 12L4 12L4 8L2 8L2 10L3 10L3 13L2 13L2 12L0 12L0 15L1 15L1 14L2 14L2 16L3 16L3 18L2 18L2 17L1 17L1 16L0 16L0 17L1 17L1 18L0 18L0 19L1 19L1 18L2 18L2 20L1 20L1 21L3 21L3 20L4 20L4 21L7 21L7 20L8 20L8 19L9 19L9 18L5 18L5 17L10 17L10 16L8 16L8 15L9 15L9 14L12 14L12 15L11 15L11 16L12 16L12 15L13 15L13 14L12 14L12 13L13 13L13 12L14 12L14 10L13 10L13 9L12 9L12 8L11 8L11 6L12 6L12 7L13 7L13 8L14 8L14 7L15 7L15 6L16 6L16 7L17 7L17 6L18 6L18 7L19 7L19 8L18 8L18 9L16 9L16 8L15 8L15 10L16 10L16 11L15 11L15 12L16 12L16 13L18 13L18 14L17 14L17 15L16 15L16 14L14 14L14 16L13 16L13 17L15 17L15 19L18 19L18 20L17 20L17 21L18 21L18 23L19 23L19 24L18 24L18 25L17 25L17 23L16 23L16 20L14 20L14 21L13 21L13 20L12 20L12 21L11 21L11 20L9 20L9 21L8 21L8 23L11 23L11 24L9 24L9 25L8 25L8 27L9 27L9 28L10 28L10 29L11 29L11 28L12 28L12 29L14 29L14 27L13 27L13 26L11 26L11 27L10 27L10 26L9 26L9 25L12 25L12 24L13 24L13 25L14 25L14 26L15 26L15 27L16 27L16 28L15 28L15 29L16 29L16 28L19 28L19 29L20 29L20 28L19 28L19 27L18 27L18 26L20 26L20 25L23 25L23 26L24 26L24 27L22 27L22 29L23 29L23 28L25 28L25 29L26 29L26 28L25 28L25 27L26 27L26 26L27 26L27 25L29 25L29 23L28 23L28 20L27 20L27 18L29 18L29 17L26 17L26 16L25 16L25 15L24 15L24 16L23 16L23 17L21 17L21 18L20 18L20 17L19 17L19 16L18 16L18 15L20 15L20 14L21 14L21 13L20 13L20 12L22 12L22 9L23 9L23 13L22 13L22 15L23 15L23 14L24 14L24 13L25 13L25 14L26 14L26 15L27 15L27 16L28 16L28 15L29 15L29 14L28 14L28 15L27 15L27 13L28 13L28 12L29 12L29 11L28 11L28 12L27 12L27 11L26 11L26 10L24 10L24 9L25 9L25 8L24 8L24 9L23 9L23 8L21 8L21 9L20 9L20 10L19 10L19 8L20 8L20 7L21 7L21 3L20 3L20 2L18 2L18 1L17 1L17 2L16 2L16 0L15 0L15 1L14 1L14 4L16 4L16 5L13 5L13 4L12 4L12 3L13 3L13 0ZM15 2L15 3L16 3L16 4L17 4L17 5L16 5L16 6L17 6L17 5L19 5L19 7L20 7L20 5L19 5L19 4L20 4L20 3L19 3L19 4L18 4L18 2L17 2L17 3L16 3L16 2ZM10 4L10 5L12 5L12 6L13 6L13 7L14 7L14 6L13 6L13 5L12 5L12 4ZM9 6L9 7L10 7L10 6ZM9 8L9 9L10 9L10 10L11 10L11 13L12 13L12 12L13 12L13 10L12 10L12 9L10 9L10 8ZM0 9L0 11L1 11L1 9ZM27 9L27 10L29 10L29 9ZM8 11L8 12L7 12L7 13L6 13L6 14L5 14L5 13L3 13L3 14L5 14L5 15L4 15L4 16L7 16L7 15L8 15L8 14L9 14L9 13L10 13L10 12L9 12L9 11ZM17 11L17 12L18 12L18 11ZM19 11L19 12L20 12L20 11ZM25 11L25 13L27 13L27 12L26 12L26 11ZM19 13L19 14L20 14L20 13ZM6 14L6 15L7 15L7 14ZM15 15L15 16L16 16L16 15ZM24 16L24 17L23 17L23 18L22 18L22 19L21 19L21 20L22 20L22 19L24 19L24 18L26 18L26 17L25 17L25 16ZM11 17L11 19L12 19L12 17ZM16 17L16 18L18 18L18 17ZM4 18L4 19L5 19L5 18ZM13 18L13 19L14 19L14 18ZM19 18L19 20L18 20L18 21L19 21L19 23L20 23L20 21L19 21L19 20L20 20L20 18ZM6 19L6 20L7 20L7 19ZM25 19L25 20L26 20L26 22L25 22L25 23L26 23L26 25L24 25L24 26L26 26L26 25L27 25L27 24L28 24L28 23L27 23L27 20L26 20L26 19ZM9 21L9 22L10 22L10 21ZM12 21L12 22L11 22L11 23L13 23L13 21ZM14 21L14 22L15 22L15 21ZM21 21L21 24L24 24L24 21ZM22 22L22 23L23 23L23 22ZM14 23L14 24L15 24L15 26L16 26L16 27L17 27L17 26L16 26L16 23ZM19 24L19 25L20 25L20 24ZM28 26L28 27L27 27L27 28L29 28L29 26ZM12 27L12 28L13 28L13 27ZM0 0L0 7L7 7L7 0ZM1 1L1 6L6 6L6 1ZM2 2L2 5L5 5L5 2ZM22 0L22 7L29 7L29 0ZM23 1L23 6L28 6L28 1ZM24 2L24 5L27 5L27 2ZM0 22L0 29L7 29L7 22ZM1 23L1 28L6 28L6 23ZM2 24L2 27L5 27L5 24Z" fill="#000000"/></g></g></svg>
