<?xml version="1.0" encoding="UTF-8"?>
<svg xmlns="http://www.w3.org/2000/svg" version="1.1" width="200" height="200" viewBox="0 0 200 200"><rect x="0" y="0" width="200" height="200" fill="#ffffff"/><g transform="scale(4.878)"><g transform="translate(0,0)"><path fill-rule="evenodd" d="M8 0L8 3L9 3L9 4L10 4L10 5L8 5L8 10L5 10L5 8L2 8L2 9L1 9L1 11L0 11L0 13L1 13L1 14L2 14L2 13L1 13L1 11L4 11L4 10L5 10L5 11L10 11L10 9L9 9L9 6L10 6L10 8L11 8L11 9L13 9L13 10L12 10L12 12L8 12L8 14L10 14L10 15L8 15L8 16L6 16L6 15L7 15L7 14L6 14L6 13L7 13L7 12L4 12L4 14L5 14L5 16L4 16L4 15L3 15L3 16L4 16L4 17L3 17L3 19L4 19L4 20L3 20L3 22L2 22L2 21L1 21L1 20L2 20L2 18L1 18L1 17L2 17L2 16L1 16L1 15L0 15L0 16L1 16L1 17L0 17L0 18L1 18L1 20L0 20L0 22L1 22L1 24L0 24L0 25L2 25L2 26L1 26L1 27L2 27L2 26L3 26L3 25L2 25L2 23L3 23L3 24L4 24L4 25L5 25L5 24L6 24L6 25L7 25L7 26L4 26L4 27L3 27L3 28L2 28L2 29L0 29L0 33L1 33L1 30L2 30L2 32L5 32L5 33L7 33L7 32L8 32L8 34L10 34L10 30L11 30L11 29L12 29L12 30L13 30L13 28L12 28L12 27L11 27L11 26L9 26L9 25L12 25L12 26L14 26L14 24L15 24L15 23L16 23L16 22L15 22L15 23L13 23L13 22L14 22L14 21L11 21L11 20L13 20L13 19L11 19L11 20L9 20L9 18L8 18L8 17L10 17L10 15L11 15L11 16L12 16L12 17L11 17L11 18L13 18L13 17L14 17L14 18L16 18L16 19L17 19L17 20L15 20L15 21L17 21L17 23L18 23L18 24L17 24L17 25L16 25L16 26L18 26L18 27L16 27L16 28L14 28L14 30L18 30L18 32L17 32L17 31L16 31L16 32L14 32L14 31L12 31L12 32L11 32L11 35L12 35L12 37L11 37L11 39L12 39L12 37L14 37L14 38L16 38L16 39L18 39L18 40L19 40L19 41L21 41L21 40L19 40L19 39L20 39L20 38L22 38L22 37L23 37L23 40L22 40L22 41L24 41L24 39L25 39L25 38L26 38L26 39L27 39L27 40L28 40L28 41L31 41L31 40L33 40L33 41L34 41L34 40L33 40L33 39L30 39L30 38L31 38L31 37L30 37L30 38L29 38L29 37L28 37L28 36L26 36L26 35L25 35L25 37L24 37L24 36L21 36L21 35L22 35L22 32L23 32L23 33L24 33L24 34L23 34L23 35L24 35L24 34L26 34L26 32L25 32L25 33L24 33L24 32L23 32L23 31L25 31L25 28L24 28L24 30L23 30L23 31L22 31L22 30L20 30L20 29L22 29L22 28L23 28L23 27L22 27L22 28L21 28L21 27L19 27L19 25L21 25L21 24L22 24L22 23L21 23L21 22L23 22L23 21L21 21L21 22L20 22L20 20L19 20L19 18L20 18L20 19L21 19L21 20L22 20L22 19L21 19L21 18L20 18L20 17L21 17L21 15L22 15L22 13L23 13L23 15L24 15L24 16L22 16L22 17L23 17L23 19L24 19L24 16L25 16L25 19L26 19L26 18L27 18L27 19L28 19L28 20L27 20L27 21L24 21L24 22L27 22L27 23L24 23L24 27L25 27L25 25L26 25L26 24L27 24L27 25L29 25L29 26L27 26L27 33L29 33L29 34L27 34L27 35L29 35L29 36L31 36L31 35L32 35L32 38L34 38L34 39L35 39L35 40L36 40L36 39L37 39L37 40L40 40L40 38L41 38L41 37L40 37L40 34L41 34L41 33L40 33L40 32L37 32L37 31L38 31L38 30L37 30L37 29L36 29L36 28L35 28L35 29L36 29L36 30L34 30L34 31L36 31L36 32L33 32L33 31L32 31L32 30L33 30L33 29L34 29L34 28L33 28L33 29L32 29L32 28L29 28L29 26L32 26L32 27L34 27L34 26L35 26L35 27L37 27L37 28L38 28L38 26L39 26L39 28L40 28L40 26L41 26L41 23L39 23L39 22L38 22L38 21L39 21L39 20L36 20L36 19L35 19L35 17L36 17L36 18L37 18L37 17L36 17L36 16L38 16L38 17L39 17L39 18L41 18L41 16L40 16L40 17L39 17L39 16L38 16L38 15L40 15L40 14L41 14L41 12L39 12L39 13L40 13L40 14L38 14L38 13L36 13L36 14L35 14L35 17L34 17L34 16L32 16L32 17L31 17L31 15L30 15L30 14L31 14L31 12L32 12L32 13L33 13L33 14L32 14L32 15L34 15L34 13L35 13L35 9L36 9L36 11L37 11L37 12L38 12L38 11L40 11L40 10L41 10L41 8L38 8L38 9L40 9L40 10L37 10L37 9L36 9L36 8L32 8L32 9L31 9L31 8L28 8L28 7L29 7L29 6L30 6L30 7L31 7L31 6L30 6L30 5L32 5L32 7L33 7L33 4L32 4L32 3L31 3L31 2L30 2L30 0L29 0L29 1L27 1L27 0L26 0L26 1L27 1L27 2L26 2L26 3L28 3L28 4L29 4L29 3L31 3L31 4L30 4L30 5L27 5L27 4L25 4L25 2L24 2L24 0L22 0L22 1L23 1L23 3L22 3L22 2L21 2L21 0L19 0L19 2L18 2L18 3L17 3L17 2L16 2L16 4L15 4L15 0L10 0L10 1L14 1L14 2L12 2L12 5L11 5L11 2L10 2L10 3L9 3L9 0ZM17 0L17 1L18 1L18 0ZM31 0L31 1L32 1L32 0ZM19 2L19 3L20 3L20 4L19 4L19 5L18 5L18 6L17 6L17 4L16 4L16 6L15 6L15 7L16 7L16 6L17 6L17 7L18 7L18 9L19 9L19 7L20 7L20 6L21 6L21 7L22 7L22 8L20 8L20 9L21 9L21 10L20 10L20 12L18 12L18 11L16 11L16 10L17 10L17 8L16 8L16 9L15 9L15 8L14 8L14 6L13 6L13 5L12 5L12 6L11 6L11 5L10 5L10 6L11 6L11 8L14 8L14 9L15 9L15 11L16 11L16 12L14 12L14 10L13 10L13 12L12 12L12 13L13 13L13 12L14 12L14 13L15 13L15 15L13 15L13 16L14 16L14 17L16 17L16 18L17 18L17 19L18 19L18 17L20 17L20 15L19 15L19 13L22 13L22 12L23 12L23 10L24 10L24 9L23 9L23 7L24 7L24 6L23 6L23 7L22 7L22 5L24 5L24 4L22 4L22 3L20 3L20 2ZM14 4L14 5L15 5L15 4ZM20 4L20 5L22 5L22 4ZM25 5L25 9L27 9L27 10L28 10L28 11L27 11L27 12L28 12L28 13L29 13L29 14L27 14L27 13L26 13L26 11L25 11L25 12L24 12L24 13L25 13L25 14L24 14L24 15L25 15L25 16L26 16L26 15L25 15L25 14L27 14L27 18L29 18L29 21L27 21L27 22L29 22L29 23L27 23L27 24L30 24L30 25L35 25L35 26L36 26L36 25L39 25L39 26L40 26L40 24L39 24L39 23L37 23L37 24L36 24L36 23L35 23L35 22L36 22L36 21L35 21L35 19L34 19L34 18L33 18L33 17L32 17L32 18L31 18L31 17L29 17L29 16L30 16L30 15L29 15L29 14L30 14L30 13L29 13L29 12L30 12L30 11L29 11L29 10L31 10L31 11L32 11L32 12L33 12L33 13L34 13L34 12L33 12L33 11L34 11L34 9L32 9L32 10L31 10L31 9L27 9L27 7L28 7L28 6L27 6L27 5ZM12 6L12 7L13 7L13 6ZM18 6L18 7L19 7L19 6ZM26 6L26 7L27 7L27 6ZM6 8L6 9L7 9L7 8ZM2 9L2 10L3 10L3 9ZM22 9L22 10L23 10L23 9ZM32 10L32 11L33 11L33 10ZM21 11L21 12L22 12L22 11ZM28 11L28 12L29 12L29 11ZM16 12L16 13L17 13L17 14L16 14L16 15L17 15L17 17L18 17L18 15L17 15L17 14L18 14L18 13L17 13L17 12ZM36 14L36 15L38 15L38 14ZM28 15L28 16L29 16L29 15ZM4 17L4 19L5 19L5 20L4 20L4 21L5 21L5 22L3 22L3 23L4 23L4 24L5 24L5 23L6 23L6 24L7 24L7 23L6 23L6 22L9 22L9 20L7 20L7 19L5 19L5 18L7 18L7 17ZM30 18L30 19L31 19L31 18ZM32 19L32 21L31 21L31 20L30 20L30 21L29 21L29 22L30 22L30 24L34 24L34 22L35 22L35 21L34 21L34 20L33 20L33 19ZM6 20L6 21L7 21L7 20ZM40 20L40 21L41 21L41 20ZM30 21L30 22L31 22L31 23L32 23L32 22L34 22L34 21L32 21L32 22L31 22L31 21ZM11 22L11 23L12 23L12 22ZM8 23L8 25L9 25L9 23ZM20 23L20 24L21 24L21 23ZM35 24L35 25L36 25L36 24ZM8 26L8 28L7 28L7 27L6 27L6 28L5 28L5 27L4 27L4 29L3 29L3 30L4 30L4 31L5 31L5 29L6 29L6 30L7 30L7 29L8 29L8 30L9 30L9 26ZM10 27L10 29L11 29L11 27ZM18 27L18 28L16 28L16 29L19 29L19 27ZM6 28L6 29L7 29L7 28ZM28 29L28 30L29 30L29 31L28 31L28 32L30 32L30 30L32 30L32 29L30 29L30 30L29 30L29 29ZM39 29L39 31L40 31L40 30L41 30L41 29ZM36 30L36 31L37 31L37 30ZM6 31L6 32L7 32L7 31ZM8 31L8 32L9 32L9 31ZM21 31L21 32L22 32L22 31ZM12 32L12 35L13 35L13 32ZM18 33L18 34L14 34L14 35L17 35L17 36L16 36L16 38L20 38L20 37L19 37L19 35L21 35L21 33L20 33L20 34L19 34L19 33ZM30 33L30 35L31 35L31 33ZM33 33L33 36L36 36L36 33ZM38 33L38 34L37 34L37 36L39 36L39 33ZM18 34L18 35L19 35L19 34ZM34 34L34 35L35 35L35 34ZM8 36L8 39L10 39L10 36ZM14 36L14 37L15 37L15 36ZM26 37L26 38L28 38L28 40L30 40L30 39L29 39L29 38L28 38L28 37ZM34 37L34 38L36 38L36 37ZM37 38L37 39L38 39L38 38ZM9 40L9 41L10 41L10 40ZM11 40L11 41L12 41L12 40ZM13 40L13 41L14 41L14 40ZM15 40L15 41L17 41L17 40ZM25 40L25 41L26 41L26 40ZM0 0L0 7L7 7L7 0ZM1 1L1 6L6 6L6 1ZM2 2L2 5L5 5L5 2ZM34 0L34 7L41 7L41 0ZM35 1L35 6L40 6L40 1ZM36 2L36 5L39 5L39 2ZM0 34L0 41L7 41L7 34ZM1 35L1 40L6 40L6 35ZM2 36L2 39L5 39L5 36Z" fill="#000000"/></g></g></svg>
