<?xml version="1.0" encoding="UTF-8"?>
<svg xmlns="http://www.w3.org/2000/svg" version="1.1" width="200" height="200" viewBox="0 0 200 200"><rect x="0" y="0" width="200" height="200" fill="#ffffff"/><g transform="scale(4.878)"><g transform="translate(0,0)"><path fill-rule="evenodd" d="M8 0L8 3L10 3L10 4L9 4L9 5L8 5L8 9L7 9L7 8L6 8L6 9L5 9L5 8L2 8L2 11L1 11L1 10L0 10L0 11L1 11L1 12L3 12L3 11L5 11L5 12L4 12L4 13L5 13L5 14L3 14L3 15L4 15L4 16L5 16L5 17L3 17L3 16L2 16L2 17L3 17L3 18L5 18L5 20L4 20L4 21L3 21L3 20L2 20L2 19L0 19L0 20L2 20L2 21L1 21L1 22L0 22L0 27L2 27L2 26L3 26L3 27L4 27L4 26L3 26L3 25L2 25L2 24L4 24L4 25L5 25L5 24L6 24L6 25L7 25L7 26L6 26L6 27L7 27L7 26L8 26L8 27L9 27L9 28L8 28L8 30L9 30L9 29L10 29L10 28L12 28L12 30L14 30L14 31L9 31L9 32L8 32L8 31L7 31L7 30L5 30L5 29L7 29L7 28L1 28L1 29L0 29L0 33L1 33L1 29L2 29L2 31L5 31L5 32L4 32L4 33L5 33L5 32L6 32L6 33L8 33L8 34L9 34L9 33L10 33L10 32L11 32L11 36L10 36L10 35L9 35L9 36L8 36L8 39L9 39L9 40L12 40L12 41L14 41L14 40L15 40L15 41L17 41L17 40L20 40L20 39L18 39L18 38L21 38L21 40L22 40L22 38L23 38L23 37L24 37L24 38L26 38L26 39L23 39L23 41L25 41L25 40L26 40L26 41L27 41L27 40L28 40L28 41L31 41L31 40L33 40L33 41L34 41L34 40L33 40L33 39L35 39L35 40L36 40L36 39L39 39L39 40L40 40L40 38L41 38L41 37L40 37L40 36L38 36L38 33L39 33L39 35L40 35L40 34L41 34L41 33L40 33L40 32L41 32L41 31L40 31L40 30L41 30L41 29L40 29L40 28L41 28L41 27L40 27L40 26L41 26L41 23L40 23L40 26L39 26L39 24L37 24L37 25L32 25L32 24L31 24L31 23L30 23L30 24L29 24L29 25L28 25L28 23L29 23L29 22L26 22L26 21L29 21L29 20L32 20L32 21L30 21L30 22L32 22L32 23L33 23L33 24L34 24L34 22L36 22L36 21L38 21L38 22L39 22L39 20L36 20L36 19L35 19L35 17L36 17L36 18L38 18L38 19L39 19L39 18L41 18L41 16L40 16L40 17L39 17L39 16L37 16L37 15L39 15L39 14L41 14L41 13L40 13L40 12L39 12L39 14L37 14L37 13L36 13L36 14L37 14L37 15L35 15L35 17L34 17L34 16L33 16L33 15L34 15L34 14L33 14L33 13L34 13L34 12L33 12L33 11L34 11L34 10L35 10L35 9L36 9L36 10L37 10L37 11L36 11L36 12L38 12L38 11L40 11L40 10L41 10L41 8L38 8L38 9L40 9L40 10L37 10L37 9L36 9L36 8L33 8L33 6L32 6L32 7L31 7L31 6L30 6L30 5L29 5L29 6L28 6L28 5L26 5L26 4L27 4L27 3L28 3L28 4L29 4L29 1L27 1L27 0L25 0L25 3L24 3L24 4L25 4L25 5L26 5L26 7L25 7L25 6L24 6L24 5L23 5L23 4L22 4L22 3L21 3L21 2L22 2L22 1L23 1L23 2L24 2L24 1L23 1L23 0L22 0L22 1L21 1L21 0L19 0L19 1L18 1L18 2L16 2L16 3L15 3L15 1L13 1L13 3L12 3L12 1L11 1L11 3L10 3L10 0ZM16 0L16 1L17 1L17 0ZM30 0L30 2L31 2L31 1L32 1L32 2L33 2L33 0ZM20 1L20 2L19 2L19 3L18 3L18 4L17 4L17 3L16 3L16 4L15 4L15 5L16 5L16 6L15 6L15 7L14 7L14 6L13 6L13 5L12 5L12 3L11 3L11 4L10 4L10 6L9 6L9 7L10 7L10 6L11 6L11 8L9 8L9 9L11 9L11 8L12 8L12 10L13 10L13 11L16 11L16 12L17 12L17 13L15 13L15 12L13 12L13 13L12 13L12 12L11 12L11 13L9 13L9 11L8 11L8 10L7 10L7 9L6 9L6 10L7 10L7 11L6 11L6 12L7 12L7 13L6 13L6 14L5 14L5 16L7 16L7 17L5 17L5 18L7 18L7 17L8 17L8 20L7 20L7 19L6 19L6 20L5 20L5 21L4 21L4 22L3 22L3 21L2 21L2 22L1 22L1 23L4 23L4 22L5 22L5 21L6 21L6 22L8 22L8 23L6 23L6 24L8 24L8 26L10 26L10 27L11 27L11 26L10 26L10 25L12 25L12 24L11 24L11 23L9 23L9 22L12 22L12 21L14 21L14 20L10 20L10 21L9 21L9 19L11 19L11 18L13 18L13 19L16 19L16 20L17 20L17 19L21 19L21 20L22 20L22 21L21 21L21 22L20 22L20 21L19 21L19 20L18 20L18 21L19 21L19 22L20 22L20 23L21 23L21 24L24 24L24 25L23 25L23 26L21 26L21 28L23 28L23 27L24 27L24 28L25 28L25 29L24 29L24 30L25 30L25 29L27 29L27 28L25 28L25 27L26 27L26 25L25 25L25 24L24 24L24 23L26 23L26 22L25 22L25 21L26 21L26 19L27 19L27 20L29 20L29 19L27 19L27 18L29 18L29 16L31 16L31 14L32 14L32 15L33 15L33 14L32 14L32 13L33 13L33 12L32 12L32 11L33 11L33 10L34 10L34 9L32 9L32 8L30 8L30 6L29 6L29 8L28 8L28 9L27 9L27 7L28 7L28 6L27 6L27 7L26 7L26 8L25 8L25 9L24 9L24 10L26 10L26 11L27 11L27 10L28 10L28 11L29 11L29 12L30 12L30 11L31 11L31 14L30 14L30 13L28 13L28 14L29 14L29 15L28 15L28 17L27 17L27 16L26 16L26 15L27 15L27 12L26 12L26 13L25 13L25 14L26 14L26 15L20 15L20 14L22 14L22 13L23 13L23 14L24 14L24 13L23 13L23 12L24 12L24 11L23 11L23 8L22 8L22 6L21 6L21 5L19 5L19 7L20 7L20 8L17 8L17 10L13 10L13 9L16 9L16 6L17 6L17 7L18 7L18 4L21 4L21 3L20 3L20 2L21 2L21 1ZM26 2L26 3L25 3L25 4L26 4L26 3L27 3L27 2ZM30 3L30 4L31 4L31 5L33 5L33 4L32 4L32 3ZM16 4L16 5L17 5L17 4ZM12 6L12 8L13 8L13 6ZM20 6L20 7L21 7L21 6ZM23 6L23 7L24 7L24 6ZM20 8L20 11L18 11L18 10L19 10L19 9L18 9L18 10L17 10L17 11L18 11L18 13L22 13L22 8ZM29 8L29 9L28 9L28 10L29 10L29 11L30 11L30 10L32 10L32 9L30 9L30 8ZM3 9L3 10L4 10L4 9ZM26 9L26 10L27 10L27 9ZM29 9L29 10L30 10L30 9ZM10 10L10 11L11 11L11 10ZM7 11L7 12L8 12L8 11ZM20 11L20 12L21 12L21 11ZM0 13L0 15L2 15L2 14L1 14L1 13ZM7 13L7 14L6 14L6 15L7 15L7 16L8 16L8 17L9 17L9 16L11 16L11 17L12 17L12 16L13 16L13 18L14 18L14 17L15 17L15 18L16 18L16 19L17 19L17 18L16 18L16 17L15 17L15 16L14 16L14 15L16 15L16 14L14 14L14 13L13 13L13 14L12 14L12 13L11 13L11 14L8 14L8 13ZM17 14L17 15L18 15L18 14ZM8 15L8 16L9 16L9 15ZM11 15L11 16L12 16L12 15ZM18 16L18 18L19 18L19 16ZM21 16L21 18L22 18L22 20L24 20L24 21L23 21L23 22L21 22L21 23L23 23L23 22L24 22L24 21L25 21L25 20L24 20L24 18L25 18L25 19L26 19L26 18L25 18L25 17L26 17L26 16L24 16L24 17L23 17L23 16ZM36 16L36 17L37 17L37 16ZM22 17L22 18L23 18L23 17ZM30 17L30 19L32 19L32 18L33 18L33 20L34 20L34 21L32 21L32 22L34 22L34 21L36 21L36 20L35 20L35 19L34 19L34 18L33 18L33 17L32 17L32 18L31 18L31 17ZM38 17L38 18L39 18L39 17ZM6 20L6 21L7 21L7 20ZM40 20L40 21L41 21L41 20ZM15 21L15 22L14 22L14 23L13 23L13 24L14 24L14 23L15 23L15 22L17 22L17 21ZM8 23L8 24L9 24L9 25L10 25L10 24L9 24L9 23ZM17 23L17 24L18 24L18 25L17 25L17 26L14 26L14 25L13 25L13 26L14 26L14 27L12 27L12 28L13 28L13 29L15 29L15 28L16 28L16 29L17 29L17 28L18 28L18 29L19 29L19 28L20 28L20 27L19 27L19 26L20 26L20 24L19 24L19 23ZM35 23L35 24L36 24L36 23ZM15 24L15 25L16 25L16 24ZM27 25L27 26L28 26L28 27L29 27L29 28L28 28L28 29L29 29L29 28L31 28L31 29L30 29L30 30L27 30L27 31L25 31L25 33L24 33L24 35L23 35L23 33L22 33L22 31L21 31L21 33L20 33L20 32L19 32L19 31L20 31L20 30L21 30L21 29L20 29L20 30L19 30L19 31L18 31L18 32L19 32L19 34L20 34L20 35L19 35L19 36L21 36L21 38L22 38L22 37L23 37L23 36L24 36L24 37L25 37L25 36L24 36L24 35L25 35L25 33L27 33L27 34L28 34L28 36L29 36L29 37L27 37L27 38L28 38L28 40L30 40L30 38L31 38L31 39L33 39L33 38L36 38L36 37L32 37L32 35L30 35L30 34L31 34L31 33L32 33L32 32L39 32L39 31L38 31L38 30L39 30L39 26L38 26L38 28L36 28L36 29L34 29L34 28L33 28L33 29L32 29L32 28L31 28L31 27L34 27L34 26L31 26L31 25L30 25L30 26L28 26L28 25ZM35 26L35 27L36 27L36 26ZM3 29L3 30L4 30L4 29ZM22 29L22 30L23 30L23 29ZM33 29L33 30L32 30L32 31L33 31L33 30L34 30L34 31L37 31L37 29L36 29L36 30L34 30L34 29ZM30 30L30 32L29 32L29 31L28 31L28 33L31 33L31 30ZM6 31L6 32L7 32L7 31ZM14 31L14 35L16 35L16 36L13 36L13 35L12 35L12 37L13 37L13 38L14 38L14 39L16 39L16 40L17 40L17 38L18 38L18 34L17 34L17 35L16 35L16 32L15 32L15 31ZM12 32L12 34L13 34L13 32ZM21 33L21 34L22 34L22 33ZM33 33L33 36L36 36L36 33ZM34 34L34 35L35 35L35 34ZM21 35L21 36L23 36L23 35ZM9 36L9 37L10 37L10 38L9 38L9 39L10 39L10 38L11 38L11 39L12 39L12 40L13 40L13 39L12 39L12 38L11 38L11 37L10 37L10 36ZM30 36L30 37L31 37L31 38L32 38L32 37L31 37L31 36ZM37 36L37 38L39 38L39 37L38 37L38 36ZM26 39L26 40L27 40L27 39ZM0 0L0 7L7 7L7 0ZM1 1L1 6L6 6L6 1ZM2 2L2 5L5 5L5 2ZM34 0L34 7L41 7L41 0ZM35 1L35 6L40 6L40 1ZM36 2L36 5L39 5L39 2ZM0 34L0 41L7 41L7 34ZM1 35L1 40L6 40L6 35ZM2 36L2 39L5 39L5 36Z" fill="#000000"/></g></g></svg>
