<?xml version="1.0" encoding="UTF-8"?>
<svg xmlns="http://www.w3.org/2000/svg" version="1.1" width="200" height="200" viewBox="0 0 200 200"><rect x="0" y="0" width="200" height="200" fill="#ffffff"/><g transform="scale(6.897)"><g transform="translate(0,0)"><path fill-rule="evenodd" d="M8 0L8 3L10 3L10 4L9 4L9 5L8 5L8 10L5 10L5 11L4 11L4 12L3 12L3 14L2 14L2 13L1 13L1 14L0 14L0 15L2 15L2 16L1 16L1 17L0 17L0 21L1 21L1 18L4 18L4 16L6 16L6 17L5 17L5 19L7 19L7 20L5 20L5 21L7 21L7 20L8 20L8 22L9 22L9 24L8 24L8 27L10 27L10 28L11 28L11 29L13 29L13 28L15 28L15 29L19 29L19 28L20 28L20 26L21 26L21 28L22 28L22 27L23 27L23 29L25 29L25 28L27 28L27 29L28 29L28 28L29 28L29 27L28 27L28 25L29 25L29 24L28 24L28 23L27 23L27 22L28 22L28 21L29 21L29 20L28 20L28 19L29 19L29 18L28 18L28 19L27 19L27 17L28 17L28 10L29 10L29 8L26 8L26 9L27 9L27 10L25 10L25 9L24 9L24 8L21 8L21 5L20 5L20 4L21 4L21 2L20 2L20 1L21 1L21 0L20 0L20 1L19 1L19 0L18 0L18 2L19 2L19 3L18 3L18 7L19 7L19 8L18 8L18 9L17 9L17 10L14 10L14 9L15 9L15 8L17 8L17 6L16 6L16 7L15 7L15 6L14 6L14 5L15 5L15 2L16 2L16 0L12 0L12 1L11 1L11 0ZM13 1L13 2L11 2L11 3L12 3L12 4L10 4L10 5L11 5L11 8L14 8L14 6L13 6L13 5L14 5L14 3L13 3L13 2L15 2L15 1ZM9 6L9 9L10 9L10 6ZM12 6L12 7L13 7L13 6ZM19 6L19 7L20 7L20 6ZM2 8L2 10L1 10L1 11L2 11L2 10L4 10L4 9L5 9L5 8ZM6 8L6 9L7 9L7 8ZM11 9L11 10L9 10L9 12L8 12L8 11L6 11L6 12L7 12L7 13L5 13L5 15L6 15L6 16L7 16L7 17L6 17L6 18L7 18L7 19L8 19L8 20L9 20L9 21L11 21L11 23L12 23L12 25L9 25L9 26L10 26L10 27L12 27L12 26L13 26L13 27L15 27L15 28L17 28L17 26L16 26L16 25L15 25L15 26L14 26L14 24L16 24L16 23L14 23L14 22L12 22L12 21L13 21L13 20L15 20L15 19L16 19L16 18L17 18L17 20L16 20L16 21L15 21L15 22L16 22L16 21L17 21L17 25L20 25L20 21L19 21L19 20L18 20L18 19L19 19L19 18L20 18L20 19L21 19L21 18L20 18L20 17L22 17L22 19L23 19L23 20L24 20L24 18L25 18L25 19L26 19L26 20L25 20L25 21L26 21L26 22L25 22L25 24L26 24L26 25L27 25L27 23L26 23L26 22L27 22L27 21L28 21L28 20L27 20L27 19L26 19L26 18L25 18L25 17L24 17L24 13L23 13L23 12L24 12L24 9L22 9L22 10L21 10L21 9L18 9L18 10L19 10L19 13L18 13L18 12L17 12L17 11L15 11L15 12L14 12L14 13L12 13L12 12L13 12L13 11L14 11L14 10L12 10L12 9ZM11 10L11 11L10 11L10 15L8 15L8 14L9 14L9 13L7 13L7 14L6 14L6 15L7 15L7 16L9 16L9 17L8 17L8 19L9 19L9 20L12 20L12 19L10 19L10 18L9 18L9 17L11 17L11 18L13 18L13 19L14 19L14 18L15 18L15 17L17 17L17 14L18 14L18 13L17 13L17 12L16 12L16 15L15 15L15 14L13 14L13 15L12 15L12 16L11 16L11 14L12 14L12 13L11 13L11 11L12 11L12 10ZM20 10L20 11L21 11L21 10ZM22 11L22 12L23 12L23 11ZM25 12L25 13L26 13L26 14L27 14L27 12ZM21 13L21 14L22 14L22 15L21 15L21 16L22 16L22 17L23 17L23 18L24 18L24 17L23 17L23 13ZM3 14L3 16L4 16L4 14ZM13 15L13 16L14 16L14 15ZM18 15L18 17L19 17L19 15ZM25 15L25 16L27 16L27 15ZM13 17L13 18L14 18L14 17ZM2 19L2 21L3 21L3 20L4 20L4 19ZM17 20L17 21L18 21L18 20ZM21 21L21 24L24 24L24 21ZM18 22L18 24L19 24L19 22ZM22 22L22 23L23 23L23 22ZM13 23L13 24L14 24L14 23ZM22 25L22 26L23 26L23 27L27 27L27 26L24 26L24 25ZM15 26L15 27L16 27L16 26ZM0 0L0 7L7 7L7 0ZM1 1L1 6L6 6L6 1ZM2 2L2 5L5 5L5 2ZM22 0L22 7L29 7L29 0ZM23 1L23 6L28 6L28 1ZM24 2L24 5L27 5L27 2ZM0 22L0 29L7 29L7 22ZM1 23L1 28L6 28L6 23ZM2 24L2 27L5 27L5 24Z" fill="#000000"/></g></g></svg>
