<?xml version="1.0" encoding="UTF-8"?>
<svg xmlns="http://www.w3.org/2000/svg" version="1.1" width="200" height="200" viewBox="0 0 200 200"><rect x="0" y="0" width="200" height="200" fill="#ffffff"/><g transform="scale(4.878)"><g transform="translate(0,0)"><path fill-rule="evenodd" d="M9 0L9 2L8 2L8 4L9 4L9 2L10 2L10 4L12 4L12 5L11 5L11 6L10 6L10 7L9 7L9 6L8 6L8 7L9 7L9 8L10 8L10 9L11 9L11 8L10 8L10 7L11 7L11 6L12 6L12 7L13 7L13 8L12 8L12 11L7 11L7 10L4 10L4 12L3 12L3 11L2 11L2 10L3 10L3 9L5 9L5 8L3 8L3 9L0 9L0 10L1 10L1 11L0 11L0 12L3 12L3 13L5 13L5 14L6 14L6 15L7 15L7 16L5 16L5 15L4 15L4 14L2 14L2 13L0 13L0 14L2 14L2 16L1 16L1 15L0 15L0 16L1 16L1 17L2 17L2 18L3 18L3 19L2 19L2 20L1 20L1 18L0 18L0 20L1 20L1 21L2 21L2 23L3 23L3 21L4 21L4 22L6 22L6 23L5 23L5 24L3 24L3 25L2 25L2 24L1 24L1 23L0 23L0 25L1 25L1 26L2 26L2 28L3 28L3 30L2 30L2 29L0 29L0 33L2 33L2 31L3 31L3 33L4 33L4 29L5 29L5 28L6 28L6 29L9 29L9 31L8 31L8 30L5 30L5 31L7 31L7 32L5 32L5 33L7 33L7 32L9 32L9 31L11 31L11 30L10 30L10 28L11 28L11 27L8 27L8 28L6 28L6 27L7 27L7 26L10 26L10 25L11 25L11 21L10 21L10 18L8 18L8 19L9 19L9 21L10 21L10 23L9 23L9 22L8 22L8 21L7 21L7 20L6 20L6 19L7 19L7 18L6 18L6 19L5 19L5 20L4 20L4 18L3 18L3 17L7 17L7 16L8 16L8 15L12 15L12 14L6 14L6 13L7 13L7 12L8 12L8 13L10 13L10 12L13 12L13 15L14 15L14 13L15 13L15 14L16 14L16 15L17 15L17 17L16 17L16 16L15 16L15 17L14 17L14 16L10 16L10 17L13 17L13 18L11 18L11 20L13 20L13 21L14 21L14 20L15 20L15 19L16 19L16 21L15 21L15 23L14 23L14 22L13 22L13 23L14 23L14 24L15 24L15 23L16 23L16 22L17 22L17 24L16 24L16 26L14 26L14 25L13 25L13 24L12 24L12 26L14 26L14 27L12 27L12 31L13 31L13 30L15 30L15 32L12 32L12 33L11 33L11 35L10 35L10 36L8 36L8 38L9 38L9 37L10 37L10 39L9 39L9 40L10 40L10 41L13 41L13 40L16 40L16 41L17 41L17 39L18 39L18 40L19 40L19 39L21 39L21 38L22 38L22 40L23 40L23 39L24 39L24 41L26 41L26 40L27 40L27 39L28 39L28 41L29 41L29 37L30 37L30 38L33 38L33 37L36 37L36 38L35 38L35 39L33 39L33 40L32 40L32 39L31 39L31 40L30 40L30 41L31 41L31 40L32 40L32 41L34 41L34 40L35 40L35 41L36 41L36 39L37 39L37 40L38 40L38 41L39 41L39 40L38 40L38 39L40 39L40 40L41 40L41 36L39 36L39 37L40 37L40 38L37 38L37 37L38 37L38 35L37 35L37 34L39 34L39 35L40 35L40 34L39 34L39 33L41 33L41 32L39 32L39 31L41 31L41 30L38 30L38 32L37 32L37 31L36 31L36 30L37 30L37 29L34 29L34 28L35 28L35 27L36 27L36 28L38 28L38 29L41 29L41 25L39 25L39 24L37 24L37 20L38 20L38 21L39 21L39 22L38 22L38 23L39 23L39 22L41 22L41 21L39 21L39 20L40 20L40 19L41 19L41 18L40 18L40 17L41 17L41 12L40 12L40 9L39 9L39 8L37 8L37 9L36 9L36 10L37 10L37 11L36 11L36 12L35 12L35 13L36 13L36 14L37 14L37 15L36 15L36 16L37 16L37 17L35 17L35 20L34 20L34 19L33 19L33 20L32 20L32 17L27 17L27 16L28 16L28 15L32 15L32 16L33 16L33 17L34 17L34 16L35 16L35 14L33 14L33 13L32 13L32 12L33 12L33 10L34 10L34 11L35 11L35 10L34 10L34 9L33 9L33 5L32 5L32 4L33 4L33 3L32 3L32 1L33 1L33 0L32 0L32 1L31 1L31 2L30 2L30 1L29 1L29 0L28 0L28 2L27 2L27 1L26 1L26 0L25 0L25 3L26 3L26 4L28 4L28 2L29 2L29 3L32 3L32 4L30 4L30 5L28 5L28 7L29 7L29 6L30 6L30 7L31 7L31 5L32 5L32 8L31 8L31 9L30 9L30 8L29 8L29 9L25 9L25 10L27 10L27 13L26 13L26 14L25 14L25 13L23 13L23 11L24 11L24 8L22 8L22 9L20 9L20 11L19 11L19 10L17 10L17 12L16 12L16 11L15 11L15 10L16 10L16 9L19 9L19 6L18 6L18 5L15 5L15 4L16 4L16 3L14 3L14 2L15 2L15 1L13 1L13 3L12 3L12 1L11 1L11 0ZM16 0L16 2L17 2L17 4L18 4L18 2L17 2L17 1L18 1L18 0ZM21 0L21 1L19 1L19 2L21 2L21 1L22 1L22 2L23 2L23 1L22 1L22 0ZM20 3L20 4L19 4L19 5L22 5L22 7L23 7L23 5L22 5L22 4L23 4L23 3ZM24 4L24 7L25 7L25 8L27 8L27 5L26 5L26 7L25 7L25 4ZM13 5L13 7L14 7L14 5ZM15 6L15 9L14 9L14 10L13 10L13 11L14 11L14 12L15 12L15 11L14 11L14 10L15 10L15 9L16 9L16 8L18 8L18 6L17 6L17 7L16 7L16 6ZM20 6L20 8L21 8L21 6ZM6 8L6 9L8 9L8 10L9 10L9 9L8 9L8 8ZM29 9L29 10L28 10L28 12L29 12L29 14L30 14L30 12L32 12L32 10L30 10L30 9ZM37 9L37 10L38 10L38 12L39 12L39 10L38 10L38 9ZM21 10L21 11L20 11L20 12L19 12L19 11L18 11L18 12L19 12L19 13L20 13L20 14L21 14L21 13L20 13L20 12L21 12L21 11L23 11L23 10ZM29 10L29 12L30 12L30 10ZM5 11L5 12L7 12L7 11ZM36 12L36 13L37 13L37 14L38 14L38 13L37 13L37 12ZM17 13L17 15L18 15L18 17L17 17L17 18L18 18L18 20L21 20L21 21L20 21L20 22L19 22L19 23L18 23L18 24L17 24L17 25L18 25L18 27L17 27L17 26L16 26L16 29L15 29L15 28L14 28L14 29L15 29L15 30L16 30L16 29L18 29L18 30L17 30L17 31L18 31L18 30L19 30L19 32L18 32L18 34L20 34L20 35L18 35L18 36L17 36L17 38L16 38L16 39L17 39L17 38L18 38L18 37L19 37L19 38L20 38L20 37L21 37L21 36L22 36L22 38L24 38L24 39L25 39L25 40L26 40L26 39L27 39L27 37L26 37L26 36L24 36L24 37L23 37L23 36L22 36L22 33L23 33L23 34L24 34L24 35L26 35L26 34L27 34L27 32L28 32L28 33L29 33L29 32L30 32L30 33L31 33L31 34L28 34L28 35L29 35L29 36L30 36L30 37L31 37L31 36L30 36L30 35L31 35L31 34L32 34L32 32L33 32L33 31L34 31L34 32L35 32L35 30L33 30L33 31L32 31L32 28L33 28L33 26L34 26L34 24L35 24L35 26L36 26L36 27L39 27L39 25L37 25L37 24L35 24L35 23L36 23L36 21L34 21L34 24L33 24L33 22L31 22L31 21L30 21L30 20L31 20L31 19L26 19L26 18L25 18L25 17L26 17L26 16L27 16L27 15L28 15L28 13L27 13L27 14L26 14L26 16L25 16L25 14L24 14L24 15L23 15L23 13L22 13L22 15L20 15L20 16L21 16L21 17L19 17L19 14L18 14L18 13ZM39 13L39 15L40 15L40 13ZM22 15L22 16L23 16L23 15ZM37 15L37 16L38 16L38 17L37 17L37 18L36 18L36 20L37 20L37 19L38 19L38 18L39 18L39 17L40 17L40 16L38 16L38 15ZM2 16L2 17L3 17L3 16ZM18 17L18 18L19 18L19 17ZM23 17L23 18L22 18L22 19L23 19L23 22L22 22L22 23L21 23L21 22L20 22L20 23L19 23L19 25L20 25L20 23L21 23L21 26L22 26L22 27L20 27L20 28L18 28L18 29L20 29L20 30L23 30L23 29L24 29L24 32L23 32L23 33L24 33L24 34L25 34L25 33L26 33L26 32L27 32L27 31L28 31L28 30L30 30L30 31L31 31L31 30L30 30L30 29L31 29L31 28L30 28L30 29L29 29L29 26L31 26L31 27L32 27L32 26L33 26L33 25L32 25L32 24L31 24L31 25L29 25L29 24L30 24L30 23L31 23L31 22L29 22L29 21L28 21L28 20L27 20L27 21L26 21L26 23L29 23L29 24L26 24L26 25L27 25L27 27L26 27L26 28L25 28L25 27L24 27L24 28L23 28L23 29L22 29L22 27L23 27L23 24L25 24L25 23L23 23L23 22L24 22L24 19L23 19L23 18L24 18L24 17ZM13 18L13 20L14 20L14 19L15 19L15 18ZM20 18L20 19L21 19L21 18ZM25 19L25 20L26 20L26 19ZM6 21L6 22L7 22L7 23L6 23L6 24L8 24L8 25L10 25L10 24L9 24L9 23L8 23L8 22L7 22L7 21ZM22 23L22 24L23 24L23 23ZM4 25L4 26L5 26L5 27L6 27L6 26L7 26L7 25L6 25L6 26L5 26L5 25ZM24 25L24 26L25 26L25 25ZM31 25L31 26L32 26L32 25ZM36 25L36 26L37 26L37 25ZM0 27L0 28L1 28L1 27ZM3 27L3 28L4 28L4 27ZM24 28L24 29L25 29L25 28ZM27 29L27 30L28 30L28 29ZM25 30L25 31L26 31L26 30ZM21 31L21 33L20 33L20 32L19 32L19 33L20 33L20 34L21 34L21 33L22 33L22 31ZM24 32L24 33L25 33L25 32ZM8 33L8 35L9 35L9 34L10 34L10 33ZM13 33L13 34L14 34L14 33ZM16 33L16 34L15 34L15 35L14 35L14 36L15 36L15 37L14 37L14 38L13 38L13 37L12 37L12 36L13 36L13 35L11 35L11 37L12 37L12 38L11 38L11 39L10 39L10 40L11 40L11 39L12 39L12 38L13 38L13 39L15 39L15 37L16 37L16 36L15 36L15 35L16 35L16 34L17 34L17 33ZM33 33L33 36L36 36L36 33ZM34 34L34 35L35 35L35 34ZM20 35L20 36L21 36L21 35ZM24 37L24 38L25 38L25 37ZM20 40L20 41L21 41L21 40ZM0 0L0 7L7 7L7 0ZM1 1L1 6L6 6L6 1ZM2 2L2 5L5 5L5 2ZM34 0L34 7L41 7L41 0ZM35 1L35 6L40 6L40 1ZM36 2L36 5L39 5L39 2ZM0 34L0 41L7 41L7 34ZM1 35L1 40L6 40L6 35ZM2 36L2 39L5 39L5 36Z" fill="#000000"/></g></g></svg>
