<?xml version="1.0" encoding="UTF-8"?>
<svg xmlns="http://www.w3.org/2000/svg" version="1.1" width="200" height="200" viewBox="0 0 200 200"><rect x="0" y="0" width="200" height="200" fill="#ffffff"/><g transform="scale(4.878)"><g transform="translate(0,0)"><path fill-rule="evenodd" d="M8 0L8 3L9 3L9 5L8 5L8 9L9 9L9 6L10 6L10 10L9 10L9 11L7 11L7 10L6 10L6 9L7 9L7 8L6 8L6 9L5 9L5 8L2 8L2 9L3 9L3 12L4 12L4 10L5 10L5 12L6 12L6 13L7 13L7 14L6 14L6 15L7 15L7 16L6 16L6 17L8 17L8 18L5 18L5 16L3 16L3 15L5 15L5 14L4 14L4 13L2 13L2 12L0 12L0 14L1 14L1 13L2 13L2 15L1 15L1 16L0 16L0 17L3 17L3 18L1 18L1 19L0 19L0 20L2 20L2 19L3 19L3 18L5 18L5 19L8 19L8 18L10 18L10 17L11 17L11 18L12 18L12 19L13 19L13 20L14 20L14 21L15 21L15 22L16 22L16 25L14 25L14 24L15 24L15 23L14 23L14 22L13 22L13 21L12 21L12 20L11 20L11 19L10 19L10 20L11 20L11 21L10 21L10 22L9 22L9 23L7 23L7 22L8 22L8 21L7 21L7 20L3 20L3 21L4 21L4 22L6 22L6 23L7 23L7 24L6 24L6 25L7 25L7 26L5 26L5 27L4 27L4 28L3 28L3 29L2 29L2 28L1 28L1 26L0 26L0 28L1 28L1 29L0 29L0 33L1 33L1 30L2 30L2 31L3 31L3 29L4 29L4 30L5 30L5 32L4 32L4 33L5 33L5 32L6 32L6 33L8 33L8 34L9 34L9 36L8 36L8 39L9 39L9 40L11 40L11 41L13 41L13 38L16 38L16 40L17 40L17 41L19 41L19 40L21 40L21 41L22 41L22 40L23 40L23 41L25 41L25 40L28 40L28 39L29 39L29 38L27 38L27 37L29 37L29 36L32 36L32 38L34 38L34 39L35 39L35 40L36 40L36 39L37 39L37 40L40 40L40 38L41 38L41 37L39 37L39 36L40 36L40 34L41 34L41 33L40 33L40 32L41 32L41 31L40 31L40 30L41 30L41 29L39 29L39 30L38 30L38 29L35 29L35 30L34 30L34 31L35 31L35 32L33 32L33 31L32 31L32 30L33 30L33 29L34 29L34 28L33 28L33 27L34 27L34 26L35 26L35 25L36 25L36 26L37 26L37 27L36 27L36 28L38 28L38 26L39 26L39 28L40 28L40 26L41 26L41 23L39 23L39 22L37 22L37 21L39 21L39 20L36 20L36 19L35 19L35 17L36 17L36 18L37 18L37 19L39 19L39 18L41 18L41 16L40 16L40 17L39 17L39 16L37 16L37 15L40 15L40 14L41 14L41 13L40 13L40 14L37 14L37 13L36 13L36 14L37 14L37 15L35 15L35 17L34 17L34 16L33 16L33 17L30 17L30 16L31 16L31 15L30 15L30 16L29 16L29 15L28 15L28 16L29 16L29 17L30 17L30 19L31 19L31 18L34 18L34 19L35 19L35 21L34 21L34 20L33 20L33 19L32 19L32 20L33 20L33 21L31 21L31 20L30 20L30 21L31 21L31 22L30 22L30 23L31 23L31 22L32 22L32 24L34 24L34 22L35 22L35 23L36 23L36 24L35 24L35 25L31 25L31 24L28 24L28 23L29 23L29 21L28 21L28 20L29 20L29 18L27 18L27 20L26 20L26 19L25 19L25 18L26 18L26 17L27 17L27 16L26 16L26 15L27 15L27 14L29 14L29 13L30 13L30 14L31 14L31 12L29 12L29 13L28 13L28 12L26 12L26 11L24 11L24 9L26 9L26 8L24 8L24 7L25 7L25 6L26 6L26 7L27 7L27 9L30 9L30 10L27 10L27 11L31 11L31 10L32 10L32 11L33 11L33 12L32 12L32 13L33 13L33 14L32 14L32 15L34 15L34 13L35 13L35 11L36 11L36 12L38 12L38 11L40 11L40 10L41 10L41 8L38 8L38 9L40 9L40 10L37 10L37 9L36 9L36 8L32 8L32 7L33 7L33 6L32 6L32 7L31 7L31 5L32 5L32 4L33 4L33 2L30 2L30 0L29 0L29 1L27 1L27 0L26 0L26 1L27 1L27 2L26 2L26 3L28 3L28 4L29 4L29 3L32 3L32 4L30 4L30 8L29 8L29 5L27 5L27 4L26 4L26 5L25 5L25 3L24 3L24 5L25 5L25 6L24 6L24 7L23 7L23 6L22 6L22 7L23 7L23 8L22 8L22 9L21 9L21 8L20 8L20 10L22 10L22 9L23 9L23 11L22 11L22 12L23 12L23 13L21 13L21 14L22 14L22 15L20 15L20 12L19 12L19 11L18 11L18 10L19 10L19 6L20 6L20 7L21 7L21 6L20 6L20 5L23 5L23 4L20 4L20 3L23 3L23 2L25 2L25 0L22 0L22 2L20 2L20 3L19 3L19 4L20 4L20 5L19 5L19 6L18 6L18 9L17 9L17 3L18 3L18 2L19 2L19 1L21 1L21 0L19 0L19 1L18 1L18 2L16 2L16 1L17 1L17 0L15 0L15 2L16 2L16 3L15 3L15 5L14 5L14 4L13 4L13 2L14 2L14 1L13 1L13 2L12 2L12 0L11 0L11 3L9 3L9 1L10 1L10 0ZM31 0L31 1L32 1L32 0ZM10 4L10 5L11 5L11 7L12 7L12 5L11 5L11 4ZM13 5L13 8L14 8L14 5ZM15 5L15 7L16 7L16 5ZM26 5L26 6L27 6L27 7L28 7L28 6L27 6L27 5ZM11 8L11 9L12 9L12 10L13 10L13 9L12 9L12 8ZM23 8L23 9L24 9L24 8ZM30 8L30 9L32 9L32 10L33 10L33 11L34 11L34 9L32 9L32 8ZM0 9L0 11L2 11L2 10L1 10L1 9ZM14 9L14 11L15 11L15 10L16 10L16 9ZM35 9L35 10L36 10L36 9ZM10 10L10 11L11 11L11 12L9 12L9 13L8 13L8 12L7 12L7 11L6 11L6 12L7 12L7 13L8 13L8 14L7 14L7 15L8 15L8 14L9 14L9 15L10 15L10 16L11 16L11 14L12 14L12 13L14 13L14 14L13 14L13 16L12 16L12 18L13 18L13 17L14 17L14 19L15 19L15 20L16 20L16 19L17 19L17 17L16 17L16 18L15 18L15 16L18 16L18 18L19 18L19 16L20 16L20 15L19 15L19 12L18 12L18 13L17 13L17 11L16 11L16 12L15 12L15 13L14 13L14 12L13 12L13 11L11 11L11 10ZM23 11L23 12L24 12L24 13L23 13L23 16L21 16L21 17L22 17L22 18L20 18L20 19L18 19L18 20L20 20L20 19L22 19L22 18L23 18L23 17L24 17L24 14L25 14L25 15L26 15L26 14L27 14L27 13L26 13L26 12L24 12L24 11ZM33 12L33 13L34 13L34 12ZM16 13L16 14L17 14L17 15L18 15L18 14L17 14L17 13ZM14 15L14 16L15 16L15 15ZM8 16L8 17L9 17L9 16ZM25 16L25 17L26 17L26 16ZM36 16L36 17L37 17L37 18L39 18L39 17L37 17L37 16ZM24 19L24 20L23 20L23 21L22 21L22 20L21 20L21 21L20 21L20 26L18 26L18 27L16 27L16 26L17 26L17 25L16 25L16 26L15 26L15 28L14 28L14 27L13 27L13 28L14 28L14 29L13 29L13 30L14 30L14 34L13 34L13 31L11 31L11 30L12 30L12 28L11 28L11 30L9 30L9 29L10 29L10 27L11 27L11 26L10 26L10 27L9 27L9 28L7 28L7 27L8 27L8 26L9 26L9 24L7 24L7 25L8 25L8 26L7 26L7 27L6 27L6 28L7 28L7 29L5 29L5 28L4 28L4 29L5 29L5 30L7 30L7 29L8 29L8 30L9 30L9 31L8 31L8 32L9 32L9 33L10 33L10 36L11 36L11 35L13 35L13 36L12 36L12 37L9 37L9 39L11 39L11 40L12 40L12 37L14 37L14 34L16 34L16 35L19 35L19 34L20 34L20 36L21 36L21 37L20 37L20 38L18 38L18 37L19 37L19 36L18 36L18 37L17 37L17 36L16 36L16 38L18 38L18 39L17 39L17 40L18 40L18 39L20 39L20 38L22 38L22 36L21 36L21 35L24 35L24 36L23 36L23 40L24 40L24 39L26 39L26 37L25 37L25 35L24 35L24 34L20 34L20 33L21 33L21 32L19 32L19 31L22 31L22 29L23 29L23 30L24 30L24 32L26 32L26 31L25 31L25 30L24 30L24 28L21 28L21 27L23 27L23 26L25 26L25 27L26 27L26 26L29 26L29 27L27 27L27 28L25 28L25 29L27 29L27 28L31 28L31 29L28 29L28 30L30 30L30 31L28 31L28 32L30 32L30 33L31 33L31 34L30 34L30 35L31 35L31 34L32 34L32 33L31 33L31 32L30 32L30 31L31 31L31 30L32 30L32 29L33 29L33 28L32 28L32 27L33 27L33 26L31 26L31 25L30 25L30 26L29 26L29 25L26 25L26 23L27 23L27 22L28 22L28 21L25 21L25 19ZM40 20L40 21L41 21L41 20ZM1 21L1 22L0 22L0 23L1 23L1 22L2 22L2 24L1 24L1 25L2 25L2 27L3 27L3 26L4 26L4 25L5 25L5 23L4 23L4 25L3 25L3 22L2 22L2 21ZM6 21L6 22L7 22L7 21ZM17 21L17 24L19 24L19 23L18 23L18 21ZM21 21L21 22L22 22L22 23L21 23L21 26L20 26L20 27L18 27L18 28L16 28L16 29L17 29L17 31L16 31L16 30L15 30L15 32L17 32L17 31L19 31L19 30L20 30L20 27L21 27L21 26L23 26L23 25L25 25L25 21L24 21L24 24L23 24L23 22L22 22L22 21ZM33 21L33 22L34 22L34 21ZM35 21L35 22L36 22L36 21ZM11 22L11 23L10 23L10 25L12 25L12 26L13 26L13 25L12 25L12 22ZM13 23L13 24L14 24L14 23ZM37 23L37 24L36 24L36 25L39 25L39 26L40 26L40 24L39 24L39 23ZM22 24L22 25L23 25L23 24ZM35 30L35 31L37 31L37 32L40 32L40 31L38 31L38 30ZM6 31L6 32L7 32L7 31ZM10 32L10 33L12 33L12 32ZM18 32L18 34L19 34L19 32ZM16 33L16 34L17 34L17 33ZM26 33L26 36L29 36L29 33ZM33 33L33 36L36 36L36 33ZM37 33L37 36L39 36L39 34L38 34L38 33ZM27 34L27 35L28 35L28 34ZM34 34L34 35L35 35L35 34ZM24 37L24 38L25 38L25 37ZM30 37L30 38L31 38L31 37ZM34 37L34 38L36 38L36 37ZM37 38L37 39L38 39L38 38ZM21 39L21 40L22 40L22 39ZM32 39L32 40L31 40L31 41L32 41L32 40L33 40L33 41L34 41L34 40L33 40L33 39ZM14 40L14 41L15 41L15 40ZM29 40L29 41L30 41L30 40ZM0 0L0 7L7 7L7 0ZM1 1L1 6L6 6L6 1ZM2 2L2 5L5 5L5 2ZM34 0L34 7L41 7L41 0ZM35 1L35 6L40 6L40 1ZM36 2L36 5L39 5L39 2ZM0 34L0 41L7 41L7 34ZM1 35L1 40L6 40L6 35ZM2 36L2 39L5 39L5 36Z" fill="#000000"/></g></g></svg>
