<?xml version="1.0" encoding="UTF-8"?>
<svg xmlns="http://www.w3.org/2000/svg" version="1.1" width="200" height="200" viewBox="0 0 200 200"><rect x="0" y="0" width="200" height="200" fill="#ffffff"/><g transform="scale(4.878)"><g transform="translate(0,0)"><path fill-rule="evenodd" d="M8 0L8 3L11 3L11 4L9 4L9 5L8 5L8 10L4 10L4 9L5 9L5 8L2 8L2 9L0 9L0 10L2 10L2 11L4 11L4 12L2 12L2 13L0 13L0 14L1 14L1 15L3 15L3 16L4 16L4 15L3 15L3 14L4 14L4 13L5 13L5 14L6 14L6 15L5 15L5 16L6 16L6 17L5 17L5 18L6 18L6 19L8 19L8 18L9 18L9 19L10 19L10 20L11 20L11 21L12 21L12 22L10 22L10 21L9 21L9 20L6 20L6 21L5 21L5 20L4 20L4 18L3 18L3 17L2 17L2 16L1 16L1 18L0 18L0 21L1 21L1 20L2 20L2 19L3 19L3 21L2 21L2 22L3 22L3 23L4 23L4 24L2 24L2 23L1 23L1 25L2 25L2 26L0 26L0 28L1 28L1 29L0 29L0 33L1 33L1 29L2 29L2 30L3 30L3 29L4 29L4 27L5 27L5 26L3 26L3 25L4 25L4 24L5 24L5 25L7 25L7 24L6 24L6 23L8 23L8 22L9 22L9 23L11 23L11 24L10 24L10 25L9 25L9 24L8 24L8 26L6 26L6 27L7 27L7 28L5 28L5 29L13 29L13 31L14 31L14 32L12 32L12 30L11 30L11 32L10 32L10 31L9 31L9 30L4 30L4 31L3 31L3 32L2 32L2 33L4 33L4 32L5 32L5 33L7 33L7 32L10 32L10 34L11 34L11 35L9 35L9 36L8 36L8 39L9 39L9 36L12 36L12 35L13 35L13 36L14 36L14 37L15 37L15 38L16 38L16 37L17 37L17 36L19 36L19 37L18 37L18 40L19 40L19 41L21 41L21 40L22 40L22 39L24 39L24 41L26 41L26 38L27 38L27 40L28 40L28 41L32 41L32 40L33 40L33 41L34 41L34 40L33 40L33 39L35 39L35 40L36 40L36 39L37 39L37 40L40 40L40 38L41 38L41 37L40 37L40 36L41 36L41 35L40 35L40 34L41 34L41 33L40 33L40 32L41 32L41 31L40 31L40 30L41 30L41 29L39 29L39 30L37 30L37 29L36 29L36 28L38 28L38 26L39 26L39 27L40 27L40 28L41 28L41 27L40 27L40 26L41 26L41 23L39 23L39 22L38 22L38 23L39 23L39 24L40 24L40 26L39 26L39 25L36 25L36 24L37 24L37 21L39 21L39 20L36 20L36 19L35 19L35 17L36 17L36 18L37 18L37 19L40 19L40 18L41 18L41 16L40 16L40 18L37 18L37 17L39 17L39 16L37 16L37 17L36 17L36 16L35 16L35 17L34 17L34 16L33 16L33 17L30 17L30 16L29 16L29 15L31 15L31 13L33 13L33 14L32 14L32 15L34 15L34 13L35 13L35 10L37 10L37 11L36 11L36 12L38 12L38 11L40 11L40 10L41 10L41 8L38 8L38 9L40 9L40 10L37 10L37 9L36 9L36 8L33 8L33 5L32 5L32 4L33 4L33 1L32 1L32 0L31 0L31 1L32 1L32 4L30 4L30 5L29 5L29 4L28 4L28 5L27 5L27 4L26 4L26 5L24 5L24 3L25 3L25 2L24 2L24 0L21 0L21 1L22 1L22 2L20 2L20 1L18 1L18 3L17 3L17 6L16 6L16 7L15 7L15 5L16 5L16 3L15 3L15 2L17 2L17 1L16 1L16 0L14 0L14 1L13 1L13 0L12 0L12 1L11 1L11 0ZM26 0L26 1L27 1L27 2L26 2L26 3L31 3L31 2L30 2L30 0L29 0L29 1L27 1L27 0ZM10 1L10 2L11 2L11 3L12 3L12 2L13 2L13 1L12 1L12 2L11 2L11 1ZM19 2L19 3L18 3L18 4L19 4L19 7L18 7L18 6L17 6L17 8L19 8L19 7L20 7L20 8L22 8L22 10L21 10L21 9L20 9L20 10L19 10L19 9L17 9L17 10L15 10L15 12L13 12L13 13L15 13L15 12L16 12L16 13L17 13L17 14L16 14L16 15L14 15L14 16L11 16L11 17L12 17L12 18L11 18L11 19L12 19L12 21L13 21L13 19L12 19L12 18L14 18L14 19L15 19L15 21L14 21L14 23L13 23L13 22L12 22L12 24L11 24L11 25L10 25L10 26L8 26L8 27L10 27L10 26L12 26L12 27L13 27L13 28L14 28L14 29L15 29L15 30L17 30L17 31L18 31L18 29L19 29L19 31L20 31L20 32L16 32L16 33L20 33L20 34L19 34L19 36L21 36L21 34L22 34L22 35L24 35L24 36L22 36L22 37L21 37L21 38L20 38L20 39L21 39L21 38L22 38L22 37L24 37L24 38L25 38L25 34L24 34L24 32L23 32L23 34L22 34L22 31L21 31L21 30L23 30L23 31L24 31L24 30L25 30L25 33L26 33L26 34L28 34L28 35L29 35L29 34L28 34L28 33L29 33L29 32L30 32L30 31L31 31L31 30L32 30L32 31L33 31L33 32L35 32L35 31L34 31L34 30L36 30L36 31L37 31L37 32L39 32L39 31L37 31L37 30L36 30L36 29L35 29L35 28L36 28L36 25L35 25L35 24L36 24L36 23L35 23L35 22L36 22L36 21L35 21L35 19L34 19L34 18L33 18L33 20L34 20L34 21L32 21L32 18L31 18L31 19L30 19L30 17L29 17L29 16L28 16L28 15L29 15L29 14L30 14L30 13L29 13L29 12L33 12L33 13L34 13L34 12L33 12L33 11L34 11L34 10L33 10L33 9L32 9L32 8L31 8L31 9L30 9L30 10L29 10L29 9L27 9L27 8L28 8L28 6L29 6L29 8L30 8L30 6L29 6L29 5L28 5L28 6L27 6L27 5L26 5L26 6L25 6L25 7L24 7L24 5L21 5L21 4L19 4L19 3L20 3L20 2ZM22 2L22 3L23 3L23 2ZM11 4L11 5L9 5L9 7L10 7L10 6L11 6L11 7L12 7L12 6L11 6L11 5L13 5L13 4ZM20 5L20 7L21 7L21 5ZM31 5L31 7L32 7L32 5ZM13 6L13 7L14 7L14 8L11 8L11 9L13 9L13 11L14 11L14 9L15 9L15 7L14 7L14 6ZM22 6L22 8L23 8L23 10L22 10L22 13L21 13L21 12L20 12L20 13L21 13L21 15L20 15L20 14L19 14L19 12L17 12L17 11L19 11L19 10L17 10L17 11L16 11L16 12L17 12L17 13L18 13L18 14L19 14L19 15L18 15L18 16L14 16L14 17L18 17L18 18L15 18L15 19L17 19L17 20L19 20L19 21L20 21L20 23L19 23L19 25L18 25L18 23L17 23L17 24L15 24L15 23L16 23L16 22L18 22L18 21L16 21L16 22L15 22L15 23L14 23L14 24L13 24L13 25L12 25L12 26L13 26L13 25L14 25L14 26L17 26L17 28L16 28L16 29L17 29L17 28L19 28L19 29L20 29L20 30L21 30L21 29L20 29L20 28L19 28L19 26L20 26L20 27L22 27L22 26L24 26L24 29L26 29L26 30L27 30L27 31L26 31L26 33L28 33L28 31L29 31L29 30L28 30L28 29L31 29L31 28L29 28L29 27L28 27L28 26L27 26L27 25L25 25L25 24L26 24L26 23L27 23L27 24L28 24L28 25L29 25L29 26L30 26L30 25L31 25L31 26L32 26L32 25L34 25L34 26L33 26L33 27L32 27L32 28L33 28L33 29L32 29L32 30L33 30L33 29L34 29L34 28L33 28L33 27L34 27L34 26L35 26L35 25L34 25L34 24L35 24L35 23L34 23L34 22L35 22L35 21L34 21L34 22L32 22L32 21L31 21L31 20L30 20L30 21L31 21L31 22L30 22L30 23L31 23L31 24L28 24L28 23L29 23L29 21L28 21L28 19L29 19L29 18L27 18L27 14L29 14L29 13L28 13L28 12L29 12L29 10L27 10L27 11L28 11L28 12L26 12L26 13L25 13L25 12L23 12L23 11L24 11L24 10L25 10L25 11L26 11L26 8L27 8L27 6L26 6L26 7L25 7L25 8L24 8L24 7L23 7L23 6ZM6 8L6 9L7 9L7 8ZM9 8L9 10L8 10L8 11L6 11L6 12L7 12L7 13L6 13L6 14L7 14L7 15L6 15L6 16L8 16L8 17L6 17L6 18L8 18L8 17L9 17L9 18L10 18L10 16L8 16L8 15L9 15L9 14L11 14L11 15L13 15L13 14L12 14L12 11L10 11L10 8ZM31 9L31 10L30 10L30 11L31 11L31 10L32 10L32 9ZM0 11L0 12L1 12L1 11ZM10 12L10 13L11 13L11 12ZM39 12L39 13L40 13L40 14L39 14L39 15L40 15L40 14L41 14L41 12ZM2 13L2 14L3 14L3 13ZM7 13L7 14L9 14L9 13ZM22 13L22 16L20 16L20 15L19 15L19 18L21 18L21 17L23 17L23 18L25 18L25 17L26 17L26 14L27 14L27 13L26 13L26 14L25 14L25 17L24 17L24 16L23 16L23 15L24 15L24 13ZM36 13L36 15L37 15L37 14L38 14L38 13ZM26 18L26 20L21 20L21 19L19 19L19 20L20 20L20 21L23 21L23 22L22 22L22 25L21 25L21 23L20 23L20 26L22 26L22 25L23 25L23 23L24 23L24 24L25 24L25 23L24 23L24 21L25 21L25 22L26 22L26 20L27 20L27 18ZM40 20L40 21L41 21L41 20ZM6 21L6 22L7 22L7 21ZM27 21L27 22L28 22L28 21ZM4 22L4 23L5 23L5 22ZM31 22L31 23L32 23L32 24L31 24L31 25L32 25L32 24L33 24L33 23L32 23L32 22ZM26 26L26 27L27 27L27 26ZM2 27L2 29L3 29L3 27ZM14 27L14 28L15 28L15 27ZM22 28L22 29L23 29L23 28ZM6 31L6 32L7 32L7 31ZM20 32L20 33L21 33L21 32ZM8 33L8 34L9 34L9 33ZM11 33L11 34L12 34L12 33ZM13 33L13 35L16 35L16 36L17 36L17 35L18 35L18 34L15 34L15 33ZM30 33L30 35L31 35L31 34L32 34L32 33ZM33 33L33 36L36 36L36 33ZM37 33L37 36L40 36L40 35L39 35L39 34L38 34L38 33ZM34 34L34 35L35 35L35 34ZM26 36L26 37L27 37L27 38L28 38L28 40L32 40L32 39L33 39L33 38L36 38L36 37L33 37L33 38L32 38L32 36L29 36L29 37L27 37L27 36ZM10 37L10 38L11 38L11 37ZM12 37L12 38L13 38L13 37ZM30 37L30 38L31 38L31 39L32 39L32 38L31 38L31 37ZM37 38L37 39L38 39L38 38ZM10 39L10 41L15 41L15 40L14 40L14 39ZM0 0L0 7L7 7L7 0ZM1 1L1 6L6 6L6 1ZM2 2L2 5L5 5L5 2ZM34 0L34 7L41 7L41 0ZM35 1L35 6L40 6L40 1ZM36 2L36 5L39 5L39 2ZM0 34L0 41L7 41L7 34ZM1 35L1 40L6 40L6 35ZM2 36L2 39L5 39L5 36Z" fill="#000000"/></g></g></svg>
