<?xml version="1.0" encoding="UTF-8"?>
<svg xmlns="http://www.w3.org/2000/svg" version="1.1" width="200" height="200" viewBox="0 0 200 200"><rect x="0" y="0" width="200" height="200" fill="#ffffff"/><g transform="scale(6.897)"><g transform="translate(0,0)"><path fill-rule="evenodd" d="M9 0L9 1L8 1L8 7L9 7L9 2L10 2L10 4L12 4L12 7L11 7L11 6L10 6L10 11L9 11L9 8L5 8L5 9L3 9L3 8L2 8L2 9L3 9L3 10L2 10L2 11L3 11L3 10L5 10L5 11L4 11L4 13L5 13L5 11L8 11L8 13L7 13L7 12L6 12L6 13L7 13L7 14L5 14L5 15L7 15L7 16L5 16L5 18L4 18L4 17L3 17L3 15L4 15L4 14L3 14L3 15L2 15L2 17L3 17L3 19L5 19L5 20L6 20L6 21L7 21L7 20L8 20L8 24L9 24L9 25L10 25L10 27L11 27L11 28L10 28L10 29L12 29L12 27L15 27L15 28L17 28L17 29L19 29L19 28L18 28L18 27L19 27L19 26L20 26L20 27L21 27L21 29L22 29L22 28L24 28L24 29L26 29L26 28L27 28L27 29L29 29L29 26L27 26L27 25L29 25L29 24L26 24L26 25L25 25L25 23L26 23L26 21L27 21L27 23L28 23L28 22L29 22L29 21L27 21L27 19L26 19L26 18L28 18L28 19L29 19L29 18L28 18L28 17L29 17L29 16L27 16L27 17L25 17L25 16L22 16L22 15L25 15L25 14L26 14L26 13L27 13L27 14L28 14L28 15L29 15L29 14L28 14L28 13L29 13L29 12L27 12L27 11L29 11L29 9L28 9L28 8L23 8L23 10L22 10L22 11L21 11L21 9L22 9L22 8L21 8L21 0L19 0L19 1L20 1L20 2L19 2L19 3L20 3L20 5L17 5L17 4L15 4L15 2L16 2L16 3L18 3L18 2L17 2L17 1L18 1L18 0L17 0L17 1L15 1L15 0L13 0L13 1L10 1L10 0ZM13 1L13 3L12 3L12 2L11 2L11 3L12 3L12 4L13 4L13 5L14 5L14 4L13 4L13 3L14 3L14 2L15 2L15 1ZM16 5L16 6L15 6L15 7L14 7L14 6L13 6L13 7L12 7L12 8L11 8L11 10L12 10L12 11L10 11L10 15L9 15L9 16L8 16L8 17L6 17L6 18L5 18L5 19L6 19L6 20L7 20L7 19L8 19L8 18L9 18L9 17L10 17L10 16L11 16L11 15L13 15L13 14L15 14L15 15L14 15L14 18L13 18L13 16L12 16L12 18L13 18L13 20L12 20L12 23L13 23L13 24L14 24L14 19L15 19L15 23L16 23L16 25L15 25L15 26L16 26L16 25L17 25L17 23L19 23L19 24L18 24L18 25L19 25L19 24L20 24L20 23L19 23L19 22L20 22L20 21L19 21L19 22L17 22L17 17L18 17L18 18L20 18L20 19L18 19L18 20L22 20L22 19L21 19L21 15L18 15L18 14L22 14L22 12L21 12L21 13L20 13L20 12L19 12L19 11L20 11L20 8L19 8L19 7L20 7L20 6L19 6L19 7L18 7L18 6L17 6L17 5ZM16 6L16 7L15 7L15 8L14 8L14 7L13 7L13 11L12 11L12 12L11 12L11 13L12 13L12 12L13 12L13 13L14 13L14 12L15 12L15 14L16 14L16 16L15 16L15 18L16 18L16 17L17 17L17 14L18 14L18 13L19 13L19 12L18 12L18 11L19 11L19 10L18 10L18 7L17 7L17 6ZM16 8L16 9L17 9L17 8ZM0 9L0 11L1 11L1 9ZM6 9L6 10L8 10L8 9ZM25 9L25 10L24 10L24 11L27 11L27 10L28 10L28 9L27 9L27 10L26 10L26 9ZM14 10L14 11L17 11L17 10ZM0 12L0 13L3 13L3 12ZM16 12L16 13L18 13L18 12ZM23 12L23 14L25 14L25 13L24 13L24 12ZM0 14L0 15L1 15L1 14ZM0 16L0 17L1 17L1 16ZM18 16L18 17L20 17L20 16ZM22 17L22 18L25 18L25 17ZM0 18L0 19L2 19L2 18ZM6 18L6 19L7 19L7 18ZM10 18L10 19L11 19L11 18ZM23 19L23 20L26 20L26 19ZM0 20L0 21L2 21L2 20ZM3 20L3 21L4 21L4 20ZM9 20L9 22L11 22L11 20ZM21 21L21 24L24 24L24 21ZM22 22L22 23L23 23L23 22ZM10 24L10 25L12 25L12 26L14 26L14 25L12 25L12 24ZM21 25L21 26L22 26L22 27L23 27L23 26L24 26L24 28L25 28L25 25ZM8 26L8 27L9 27L9 26ZM17 26L17 27L18 27L18 26ZM27 27L27 28L28 28L28 27ZM0 0L0 7L7 7L7 0ZM1 1L1 6L6 6L6 1ZM2 2L2 5L5 5L5 2ZM22 0L22 7L29 7L29 0ZM23 1L23 6L28 6L28 1ZM24 2L24 5L27 5L27 2ZM0 22L0 29L7 29L7 22ZM1 23L1 28L6 28L6 23ZM2 24L2 27L5 27L5 24Z" fill="#000000"/></g></g></svg>
