<?xml version="1.0" encoding="UTF-8"?>
<svg xmlns="http://www.w3.org/2000/svg" version="1.1" width="200" height="200" viewBox="0 0 200 200"><rect x="0" y="0" width="200" height="200" fill="#ffffff"/><g transform="scale(6.897)"><g transform="translate(0,0)"><path fill-rule="evenodd" d="M8 0L8 1L9 1L9 3L8 3L8 4L9 4L9 3L10 3L10 5L12 5L12 7L13 7L13 8L14 8L14 9L15 9L15 10L12 10L12 8L11 8L11 6L10 6L10 7L9 7L9 6L8 6L8 7L9 7L9 8L8 8L8 9L7 9L7 8L4 8L4 10L3 10L3 11L4 11L4 10L5 10L5 9L7 9L7 10L6 10L6 11L7 11L7 12L5 12L5 13L7 13L7 14L6 14L6 15L5 15L5 16L4 16L4 15L3 15L3 14L4 14L4 12L1 12L1 11L0 11L0 14L1 14L1 13L2 13L2 15L1 15L1 16L2 16L2 18L3 18L3 20L4 20L4 21L8 21L8 22L9 22L9 20L10 20L10 21L11 21L11 22L10 22L10 23L8 23L8 25L9 25L9 26L8 26L8 27L9 27L9 26L12 26L12 25L10 25L10 24L13 24L13 25L14 25L14 24L13 24L13 23L15 23L15 22L13 22L13 21L14 21L14 20L13 20L13 19L15 19L15 20L16 20L16 21L17 21L17 22L19 22L19 23L18 23L18 25L17 25L17 26L16 26L16 25L15 25L15 26L14 26L14 29L16 29L16 27L17 27L17 28L18 28L18 27L17 27L17 26L18 26L18 25L19 25L19 29L20 29L20 25L21 25L21 26L22 26L22 25L23 25L23 26L24 26L24 25L25 25L25 27L26 27L26 26L28 26L28 27L27 27L27 28L28 28L28 29L29 29L29 26L28 26L28 25L29 25L29 24L26 24L26 23L25 23L25 19L26 19L26 21L28 21L28 22L27 22L27 23L29 23L29 21L28 21L28 19L29 19L29 18L27 18L27 17L26 17L26 14L24 14L24 13L25 13L25 11L26 11L26 13L27 13L27 12L28 12L28 13L29 13L29 12L28 12L28 11L29 11L29 8L28 8L28 9L27 9L27 10L25 10L25 9L26 9L26 8L25 8L25 9L24 9L24 10L25 10L25 11L24 11L24 12L23 12L23 10L22 10L22 8L21 8L21 0L20 0L20 1L19 1L19 2L20 2L20 3L19 3L19 4L18 4L18 3L17 3L17 2L18 2L18 1L17 1L17 2L16 2L16 0L15 0L15 2L13 2L13 1L14 1L14 0ZM11 1L11 4L12 4L12 3L13 3L13 2L12 2L12 1ZM15 2L15 3L14 3L14 5L13 5L13 7L14 7L14 5L15 5L15 9L17 9L17 11L16 11L16 10L15 10L15 11L16 11L16 12L15 12L15 13L14 13L14 14L12 14L12 10L11 10L11 11L10 11L10 9L11 9L11 8L10 8L10 9L8 9L8 12L11 12L11 16L10 16L10 14L9 14L9 17L8 17L8 16L7 16L7 15L8 15L8 14L7 14L7 15L6 15L6 16L7 16L7 17L6 17L6 18L5 18L5 17L3 17L3 18L4 18L4 20L5 20L5 19L6 19L6 20L7 20L7 19L6 19L6 18L7 18L7 17L8 17L8 18L9 18L9 17L11 17L11 18L12 18L12 19L13 19L13 18L12 18L12 16L13 16L13 17L14 17L14 18L15 18L15 19L16 19L16 20L17 20L17 21L20 21L20 20L21 20L21 19L22 19L22 18L23 18L23 19L24 19L24 18L26 18L26 17L24 17L24 16L25 16L25 15L24 15L24 14L23 14L23 15L22 15L22 14L21 14L21 13L20 13L20 14L19 14L19 12L20 12L20 11L19 11L19 9L20 9L20 5L19 5L19 7L18 7L18 5L16 5L16 2ZM16 6L16 8L17 8L17 6ZM2 8L2 9L0 9L0 10L2 10L2 9L3 9L3 8ZM27 10L27 11L28 11L28 10ZM13 11L13 12L14 12L14 11ZM18 11L18 12L19 12L19 11ZM21 11L21 12L22 12L22 11ZM16 12L16 13L17 13L17 14L15 14L15 16L14 16L14 17L15 17L15 18L16 18L16 19L17 19L17 18L18 18L18 17L19 17L19 18L20 18L20 17L19 17L19 16L20 16L20 15L21 15L21 14L20 14L20 15L19 15L19 16L18 16L18 15L17 15L17 14L18 14L18 13L17 13L17 12ZM27 14L27 16L28 16L28 17L29 17L29 15L28 15L28 14ZM16 15L16 17L18 17L18 16L17 16L17 15ZM23 15L23 16L22 16L22 17L23 17L23 18L24 18L24 17L23 17L23 16L24 16L24 15ZM0 18L0 19L1 19L1 20L0 20L0 21L1 21L1 20L2 20L2 19L1 19L1 18ZM8 19L8 20L9 20L9 19ZM10 19L10 20L11 20L11 19ZM19 19L19 20L20 20L20 19ZM21 21L21 24L24 24L24 21ZM11 22L11 23L13 23L13 22ZM22 22L22 23L23 23L23 22ZM16 23L16 24L17 24L17 23ZM11 27L11 28L12 28L12 29L13 29L13 27ZM22 27L22 28L23 28L23 29L26 29L26 28L23 28L23 27ZM0 0L0 7L7 7L7 0ZM1 1L1 6L6 6L6 1ZM2 2L2 5L5 5L5 2ZM22 0L22 7L29 7L29 0ZM23 1L23 6L28 6L28 1ZM24 2L24 5L27 5L27 2ZM0 22L0 29L7 29L7 22ZM1 23L1 28L6 28L6 23ZM2 24L2 27L5 27L5 24Z" fill="#000000"/></g></g></svg>
