<?xml version="1.0" encoding="UTF-8"?>
<svg xmlns="http://www.w3.org/2000/svg" version="1.1" width="200" height="200" viewBox="0 0 200 200"><rect x="0" y="0" width="200" height="200" fill="#ffffff"/><g transform="scale(4.878)"><g transform="translate(0,0)"><path fill-rule="evenodd" d="M9 0L9 1L10 1L10 0ZM11 0L11 2L10 2L10 4L9 4L9 2L8 2L8 4L9 4L9 5L10 5L10 7L11 7L11 8L10 8L10 9L12 9L12 10L11 10L11 11L9 11L9 10L8 10L8 11L7 11L7 10L6 10L6 9L8 9L8 8L6 8L6 9L5 9L5 8L3 8L3 9L5 9L5 12L4 12L4 10L2 10L2 11L1 11L1 10L0 10L0 11L1 11L1 16L0 16L0 19L1 19L1 21L3 21L3 22L1 22L1 23L0 23L0 24L1 24L1 25L0 25L0 27L1 27L1 28L0 28L0 33L2 33L2 32L3 32L3 33L5 33L5 32L4 32L4 31L5 31L5 30L6 30L6 31L7 31L7 32L6 32L6 33L8 33L8 35L11 35L11 36L10 36L10 37L11 37L11 39L9 39L9 40L11 40L11 39L12 39L12 41L14 41L14 39L13 39L13 38L15 38L15 37L11 37L11 36L12 36L12 33L13 33L13 34L14 34L14 35L13 35L13 36L16 36L16 34L17 34L17 36L18 36L18 37L16 37L16 38L18 38L18 41L21 41L21 40L23 40L23 41L25 41L25 39L27 39L27 40L26 40L26 41L29 41L29 38L28 38L28 36L27 36L27 35L28 35L28 34L31 34L31 35L30 35L30 36L29 36L29 37L30 37L30 38L31 38L31 40L30 40L30 41L31 41L31 40L32 40L32 41L34 41L34 40L35 40L35 41L36 41L36 39L37 39L37 40L38 40L38 41L39 41L39 40L38 40L38 39L40 39L40 40L41 40L41 35L40 35L40 34L39 34L39 33L40 33L40 31L41 31L41 30L39 30L39 31L38 31L38 30L37 30L37 29L34 29L34 28L35 28L35 27L36 27L36 28L38 28L38 29L40 29L40 28L41 28L41 25L39 25L39 24L37 24L37 20L38 20L38 23L39 23L39 22L41 22L41 21L39 21L39 20L40 20L40 19L41 19L41 18L40 18L40 17L41 17L41 13L40 13L40 12L41 12L41 11L40 11L40 9L39 9L39 8L37 8L37 9L36 9L36 10L34 10L34 9L33 9L33 10L32 10L32 8L33 8L33 4L29 4L29 5L30 5L30 7L31 7L31 8L29 8L29 6L28 6L28 8L26 8L26 7L27 7L27 6L26 6L26 7L25 7L25 6L24 6L24 7L23 7L23 5L25 5L25 4L24 4L24 3L23 3L23 5L22 5L22 7L21 7L21 6L20 6L20 5L21 5L21 4L20 4L20 5L19 5L19 6L18 6L18 4L19 4L19 2L20 2L20 3L22 3L22 1L21 1L21 0L19 0L19 2L18 2L18 1L16 1L16 2L14 2L14 0L13 0L13 2L12 2L12 0ZM25 0L25 3L26 3L26 4L28 4L28 2L29 2L29 3L31 3L31 2L32 2L32 1L31 1L31 0L30 0L30 1L29 1L29 0L28 0L28 2L27 2L27 1L26 1L26 0ZM20 1L20 2L21 2L21 1ZM23 1L23 2L24 2L24 1ZM30 1L30 2L31 2L31 1ZM11 2L11 3L12 3L12 4L13 4L13 3L12 3L12 2ZM16 2L16 3L17 3L17 4L14 4L14 5L11 5L11 7L12 7L12 8L13 8L13 10L12 10L12 12L13 12L13 13L15 13L15 14L12 14L12 15L11 15L11 13L9 13L9 11L8 11L8 12L7 12L7 11L6 11L6 12L7 12L7 13L4 13L4 14L3 14L3 16L4 16L4 17L5 17L5 16L7 16L7 15L6 15L6 14L7 14L7 13L8 13L8 15L11 15L11 19L10 19L10 18L9 18L9 17L8 17L8 18L7 18L7 17L6 17L6 18L3 18L3 17L2 17L2 16L1 16L1 19L2 19L2 18L3 18L3 19L4 19L4 20L3 20L3 21L4 21L4 22L5 22L5 23L4 23L4 24L2 24L2 23L1 23L1 24L2 24L2 25L1 25L1 27L2 27L2 28L1 28L1 30L2 30L2 31L4 31L4 30L5 30L5 28L4 28L4 26L7 26L7 25L8 25L8 24L7 24L7 23L6 23L6 22L7 22L7 21L8 21L8 22L9 22L9 23L11 23L11 22L10 22L10 21L8 21L8 19L10 19L10 20L11 20L11 19L12 19L12 21L13 21L13 20L14 20L14 21L16 21L16 22L14 22L14 23L12 23L12 26L11 26L11 24L9 24L9 29L8 29L8 30L7 30L7 29L6 29L6 30L7 30L7 31L8 31L8 32L10 32L10 34L11 34L11 32L14 32L14 34L16 34L16 33L17 33L17 32L18 32L18 33L19 33L19 34L20 34L20 35L21 35L21 36L20 36L20 37L21 37L21 36L23 36L23 35L25 35L25 36L24 36L24 37L22 37L22 38L20 38L20 39L23 39L23 38L24 38L24 39L25 39L25 37L26 37L26 35L25 35L25 34L27 34L27 32L28 32L28 33L29 33L29 32L30 32L30 33L31 33L31 34L32 34L32 32L33 32L33 31L34 31L34 32L36 32L36 31L37 31L37 30L36 30L36 31L35 31L35 30L33 30L33 31L32 31L32 28L33 28L33 27L32 27L32 28L31 28L31 26L33 26L33 25L31 25L31 24L32 24L32 23L33 23L33 24L34 24L34 23L36 23L36 21L34 21L34 22L33 22L33 19L34 19L34 20L35 20L35 17L37 17L37 16L38 16L38 18L36 18L36 20L37 20L37 19L38 19L38 18L39 18L39 17L40 17L40 16L38 16L38 14L37 14L37 16L34 16L34 17L33 17L33 16L32 16L32 15L31 15L31 16L30 16L30 15L28 15L28 13L26 13L26 12L27 12L27 11L26 11L26 8L25 8L25 9L24 9L24 8L23 8L23 7L22 7L22 9L21 9L21 7L20 7L20 6L19 6L19 7L20 7L20 11L18 11L18 10L17 10L17 8L18 8L18 9L19 9L19 8L18 8L18 6L17 6L17 8L16 8L16 6L15 6L15 8L13 8L13 7L14 7L14 5L17 5L17 4L18 4L18 3L17 3L17 2ZM31 5L31 7L32 7L32 5ZM8 6L8 7L9 7L9 6ZM12 6L12 7L13 7L13 6ZM28 8L28 9L29 9L29 10L28 10L28 12L29 12L29 14L30 14L30 12L29 12L29 11L30 11L30 10L31 10L31 11L32 11L32 13L33 13L33 14L36 14L36 13L37 13L37 12L36 12L36 13L35 13L35 11L34 11L34 10L33 10L33 11L32 11L32 10L31 10L31 9L29 9L29 8ZM14 9L14 12L15 12L15 13L16 13L16 16L15 16L15 15L14 15L14 16L13 16L13 15L12 15L12 18L14 18L14 17L15 17L15 19L14 19L14 20L16 20L16 21L20 21L20 22L21 22L21 21L20 21L20 19L21 19L21 20L22 20L22 23L19 23L19 22L18 22L18 24L17 24L17 23L15 23L15 24L14 24L14 25L13 25L13 26L12 26L12 28L11 28L11 27L10 27L10 29L9 29L9 30L8 30L8 31L10 31L10 32L11 32L11 29L12 29L12 31L13 31L13 29L12 29L12 28L14 28L14 25L15 25L15 27L16 27L16 28L20 28L20 29L22 29L22 28L20 28L20 27L19 27L19 26L21 26L21 27L23 27L23 26L22 26L22 25L23 25L23 24L24 24L24 23L25 23L25 24L27 24L27 26L26 26L26 27L25 27L25 26L24 26L24 27L25 27L25 28L23 28L23 30L22 30L22 32L19 32L19 33L21 33L21 35L23 35L23 33L25 33L25 32L27 32L27 31L28 31L28 30L30 30L30 32L31 32L31 29L29 29L29 28L28 28L28 24L31 24L31 22L32 22L32 17L27 17L27 16L28 16L28 15L27 15L27 14L26 14L26 13L24 13L24 12L25 12L25 11L23 11L23 9L22 9L22 10L21 10L21 11L20 11L20 13L19 13L19 14L20 14L20 13L21 13L21 16L22 16L22 17L23 17L23 20L22 20L22 19L21 19L21 18L19 18L19 20L16 20L16 19L18 19L18 18L17 18L17 17L19 17L19 15L18 15L18 16L17 16L17 14L18 14L18 13L16 13L16 11L15 11L15 9ZM37 9L37 10L36 10L36 11L37 11L37 10L38 10L38 12L39 12L39 10L38 10L38 9ZM2 11L2 13L3 13L3 11ZM21 11L21 13L22 13L22 12L23 12L23 11ZM23 13L23 15L22 15L22 16L23 16L23 17L24 17L24 16L26 16L26 14L24 14L24 13ZM39 13L39 15L40 15L40 13ZM4 15L4 16L5 16L5 15ZM23 15L23 16L24 16L24 15ZM16 16L16 17L17 17L17 16ZM6 18L6 19L5 19L5 21L7 21L7 20L6 20L6 19L7 19L7 18ZM25 18L25 19L24 19L24 21L23 21L23 23L22 23L22 24L23 24L23 23L24 23L24 22L25 22L25 21L26 21L26 19L27 19L27 18ZM28 19L28 20L29 20L29 21L28 21L28 22L29 22L29 21L30 21L30 22L31 22L31 21L30 21L30 20L31 20L31 19ZM26 22L26 23L27 23L27 24L28 24L28 23L27 23L27 22ZM6 24L6 25L7 25L7 24ZM15 24L15 25L16 25L16 26L17 26L17 25L16 25L16 24ZM18 24L18 26L19 26L19 25L21 25L21 24ZM35 24L35 26L36 26L36 25L37 25L37 27L39 27L39 25L37 25L37 24ZM2 25L2 27L3 27L3 25ZM29 25L29 26L31 26L31 25ZM6 27L6 28L8 28L8 27ZM26 27L26 28L27 28L27 27ZM2 29L2 30L4 30L4 29ZM14 29L14 30L15 30L15 32L16 32L16 30L17 30L17 31L21 31L21 30L19 30L19 29ZM24 29L24 30L23 30L23 32L22 32L22 33L23 33L23 32L24 32L24 30L25 30L25 31L26 31L26 30L25 30L25 29ZM27 29L27 30L28 30L28 29ZM37 32L37 38L40 38L40 37L39 37L39 34L38 34L38 32ZM33 33L33 36L36 36L36 33ZM34 34L34 35L35 35L35 34ZM18 35L18 36L19 36L19 35ZM8 36L8 38L9 38L9 36ZM30 36L30 37L31 37L31 38L32 38L32 37L31 37L31 36ZM18 37L18 38L19 38L19 37ZM33 37L33 39L32 39L32 40L33 40L33 39L35 39L35 38L36 38L36 37ZM16 39L16 40L17 40L17 39ZM0 0L0 7L7 7L7 0ZM1 1L1 6L6 6L6 1ZM2 2L2 5L5 5L5 2ZM34 0L34 7L41 7L41 0ZM35 1L35 6L40 6L40 1ZM36 2L36 5L39 5L39 2ZM0 34L0 41L7 41L7 34ZM1 35L1 40L6 40L6 35ZM2 36L2 39L5 39L5 36Z" fill="#000000"/></g></g></svg>
