<?xml version="1.0" encoding="UTF-8"?>
<svg xmlns="http://www.w3.org/2000/svg" version="1.1" width="200" height="200" viewBox="0 0 200 200"><rect x="0" y="0" width="200" height="200" fill="#ffffff"/><g transform="scale(6.897)"><g transform="translate(0,0)"><path fill-rule="evenodd" d="M8 0L8 3L10 3L10 4L9 4L9 5L8 5L8 9L7 9L7 8L6 8L6 9L7 9L7 10L5 10L5 11L4 11L4 9L5 9L5 8L2 8L2 9L1 9L1 11L2 11L2 13L0 13L0 14L2 14L2 16L1 16L1 15L0 15L0 16L1 16L1 17L0 17L0 21L1 21L1 18L2 18L2 19L3 19L3 20L4 20L4 19L3 19L3 18L2 18L2 17L5 17L5 19L7 19L7 20L5 20L5 21L8 21L8 22L10 22L10 23L9 23L9 24L8 24L8 27L10 27L10 28L12 28L12 29L13 29L13 28L15 28L15 27L16 27L16 29L19 29L19 28L20 28L20 26L21 26L21 28L22 28L22 27L23 27L23 29L25 29L25 27L26 27L26 29L28 29L28 28L29 28L29 27L28 27L28 25L29 25L29 24L28 24L28 23L27 23L27 22L28 22L28 21L29 21L29 20L28 20L28 19L29 19L29 18L28 18L28 19L26 19L26 18L27 18L27 17L28 17L28 10L29 10L29 8L26 8L26 9L27 9L27 10L25 10L25 9L24 9L24 8L21 8L21 5L20 5L20 4L21 4L21 2L20 2L20 1L21 1L21 0L20 0L20 1L19 1L19 0L18 0L18 2L19 2L19 3L18 3L18 7L19 7L19 8L18 8L18 9L17 9L17 6L16 6L16 7L15 7L15 4L16 4L16 3L17 3L17 2L16 2L16 1L15 1L15 0L13 0L13 1L15 1L15 2L13 2L13 3L14 3L14 4L13 4L13 5L14 5L14 7L13 7L13 6L12 6L12 7L13 7L13 8L14 8L14 7L15 7L15 8L16 8L16 9L15 9L15 10L14 10L14 9L13 9L13 10L12 10L12 8L11 8L11 9L10 9L10 8L9 8L9 6L10 6L10 7L11 7L11 6L10 6L10 4L11 4L11 3L12 3L12 2L11 2L11 1L12 1L12 0L11 0L11 1L10 1L10 0ZM15 2L15 3L16 3L16 2ZM19 6L19 7L20 7L20 6ZM8 9L8 10L7 10L7 11L6 11L6 12L7 12L7 13L5 13L5 14L3 14L3 13L2 13L2 14L3 14L3 16L4 16L4 15L5 15L5 17L6 17L6 18L7 18L7 19L8 19L8 20L9 20L9 21L11 21L11 23L10 23L10 24L11 24L11 23L12 23L12 25L13 25L13 26L12 26L12 27L15 27L15 24L16 24L16 27L17 27L17 25L20 25L20 21L19 21L19 20L18 20L18 19L19 19L19 18L20 18L20 19L21 19L21 18L20 18L20 17L22 17L22 19L23 19L23 20L24 20L24 18L25 18L25 17L24 17L24 13L23 13L23 12L24 12L24 9L22 9L22 10L21 10L21 9L18 9L18 10L19 10L19 13L18 13L18 12L17 12L17 11L16 11L16 12L14 12L14 14L13 14L13 13L12 13L12 12L13 12L13 11L14 11L14 10L13 10L13 11L12 11L12 10L9 10L9 9ZM2 10L2 11L3 11L3 12L4 12L4 11L3 11L3 10ZM20 10L20 11L21 11L21 10ZM8 11L8 12L9 12L9 11ZM10 11L10 14L12 14L12 13L11 13L11 12L12 12L12 11ZM22 11L22 12L23 12L23 11ZM16 12L16 15L14 15L14 16L15 16L15 17L16 17L16 16L17 16L17 17L18 17L18 16L19 16L19 14L18 14L18 15L17 15L17 12ZM25 12L25 13L26 13L26 14L27 14L27 12ZM7 13L7 14L6 14L6 15L7 15L7 16L6 16L6 17L7 17L7 16L8 16L8 19L9 19L9 20L12 20L12 18L13 18L13 19L14 19L14 18L13 18L13 17L12 17L12 16L13 16L13 15L12 15L12 16L11 16L11 15L10 15L10 17L11 17L11 19L10 19L10 18L9 18L9 15L8 15L8 14L9 14L9 13ZM21 13L21 14L22 14L22 15L21 15L21 16L22 16L22 17L23 17L23 13ZM25 15L25 16L27 16L27 15ZM16 19L16 20L13 20L13 21L12 21L12 22L13 22L13 21L14 21L14 23L13 23L13 25L14 25L14 24L15 24L15 23L16 23L16 24L18 24L18 23L17 23L17 22L18 22L18 20L17 20L17 19ZM16 20L16 21L15 21L15 22L16 22L16 21L17 21L17 20ZM25 20L25 21L26 21L26 22L25 22L25 24L26 24L26 25L25 25L25 26L24 26L24 25L22 25L22 26L23 26L23 27L25 27L25 26L26 26L26 27L27 27L27 23L26 23L26 22L27 22L27 21L28 21L28 20ZM21 21L21 24L24 24L24 21ZM22 22L22 23L23 23L23 22ZM9 25L9 26L10 26L10 27L11 27L11 25ZM0 0L0 7L7 7L7 0ZM1 1L1 6L6 6L6 1ZM2 2L2 5L5 5L5 2ZM22 0L22 7L29 7L29 0ZM23 1L23 6L28 6L28 1ZM24 2L24 5L27 5L27 2ZM0 22L0 29L7 29L7 22ZM1 23L1 28L6 28L6 23ZM2 24L2 27L5 27L5 24Z" fill="#000000"/></g></g></svg>
