<?xml version="1.0" encoding="UTF-8"?>
<svg xmlns="http://www.w3.org/2000/svg" version="1.1" width="200" height="200" viewBox="0 0 200 200"><rect x="0" y="0" width="200" height="200" fill="#ffffff"/><g transform="scale(4.878)"><g transform="translate(0,0)"><path fill-rule="evenodd" d="M8 0L8 3L10 3L10 4L9 4L9 5L8 5L8 9L7 9L7 8L6 8L6 9L7 9L7 10L6 10L6 11L8 11L8 13L7 13L7 12L6 12L6 13L5 13L5 12L4 12L4 11L5 11L5 10L3 10L3 11L2 11L2 9L5 9L5 8L2 8L2 9L1 9L1 10L0 10L0 12L1 12L1 11L2 11L2 13L0 13L0 14L2 14L2 13L3 13L3 12L4 12L4 15L3 15L3 16L4 16L4 17L2 17L2 15L1 15L1 17L0 17L0 18L1 18L1 19L2 19L2 21L4 21L4 20L5 20L5 22L4 22L4 23L3 23L3 22L0 22L0 24L1 24L1 25L0 25L0 33L1 33L1 27L2 27L2 26L3 26L3 27L4 27L4 29L3 29L3 28L2 28L2 29L3 29L3 30L2 30L2 31L3 31L3 33L4 33L4 31L5 31L5 30L4 30L4 29L5 29L5 26L6 26L6 27L7 27L7 28L6 28L6 29L7 29L7 30L6 30L6 31L7 31L7 32L5 32L5 33L8 33L8 34L9 34L9 35L10 35L10 37L9 37L9 36L8 36L8 39L9 39L9 41L12 41L12 40L14 40L14 41L16 41L16 40L14 40L14 39L15 39L15 38L16 38L16 39L18 39L18 40L17 40L17 41L21 41L21 39L24 39L24 38L23 38L23 37L25 37L25 34L26 34L26 36L27 36L27 37L26 37L26 39L25 39L25 40L23 40L23 41L28 41L28 39L31 39L31 40L33 40L33 41L34 41L34 40L33 40L33 39L31 39L31 38L29 38L29 37L28 37L28 36L29 36L29 35L28 35L28 34L26 34L26 32L27 32L27 30L29 30L29 29L30 29L30 31L31 31L31 29L30 29L30 28L29 28L29 27L28 27L28 26L30 26L30 25L31 25L31 26L32 26L32 25L34 25L34 27L32 27L32 29L33 29L33 30L32 30L32 31L33 31L33 30L34 30L34 31L35 31L35 32L32 32L32 33L30 33L30 32L29 32L29 31L28 31L28 33L30 33L30 35L32 35L32 38L34 38L34 39L35 39L35 40L36 40L36 39L38 39L38 38L37 38L37 36L38 36L38 37L39 37L39 40L40 40L40 38L41 38L41 37L39 37L39 36L40 36L40 34L41 34L41 33L39 33L39 32L41 32L41 31L40 31L40 30L41 30L41 29L40 29L40 28L41 28L41 27L40 27L40 26L41 26L41 23L40 23L40 26L39 26L39 24L37 24L37 25L36 25L36 23L34 23L34 22L36 22L36 21L37 21L37 22L38 22L38 23L39 23L39 22L38 22L38 21L39 21L39 20L36 20L36 19L35 19L35 17L36 17L36 18L37 18L37 17L39 17L39 16L37 16L37 15L38 15L38 14L37 14L37 13L36 13L36 14L37 14L37 15L35 15L35 17L34 17L34 16L33 16L33 15L34 15L34 14L33 14L33 13L34 13L34 12L33 12L33 11L34 11L34 10L35 10L35 11L36 11L36 12L38 12L38 11L39 11L39 13L40 13L40 14L39 14L39 15L40 15L40 14L41 14L41 13L40 13L40 12L41 12L41 11L40 11L40 10L41 10L41 8L38 8L38 9L40 9L40 10L37 10L37 9L36 9L36 8L32 8L32 7L33 7L33 5L32 5L32 4L33 4L33 3L30 3L30 4L31 4L31 5L26 5L26 4L27 4L27 3L28 3L28 4L29 4L29 1L27 1L27 0L24 0L24 1L25 1L25 2L24 2L24 3L26 3L26 4L23 4L23 3L22 3L22 2L23 2L23 0L18 0L18 1L19 1L19 2L18 2L18 3L14 3L14 2L12 2L12 1L13 1L13 0L12 0L12 1L11 1L11 0ZM30 0L30 2L31 2L31 1L32 1L32 2L33 2L33 0ZM9 1L9 2L10 2L10 3L11 3L11 4L10 4L10 5L9 5L9 8L10 8L10 9L8 9L8 10L9 10L9 11L10 11L10 12L9 12L9 13L10 13L10 14L7 14L7 13L6 13L6 14L5 14L5 15L4 15L4 16L5 16L5 17L4 17L4 18L3 18L3 20L4 20L4 19L5 19L5 17L6 17L6 18L7 18L7 17L6 17L6 16L8 16L8 15L10 15L10 14L12 14L12 11L13 11L13 13L14 13L14 14L13 14L13 15L12 15L12 16L14 16L14 14L15 14L15 15L17 15L17 14L18 14L18 16L16 16L16 17L15 17L15 18L14 18L14 19L15 19L15 21L16 21L16 22L18 22L18 23L20 23L20 24L21 24L21 25L20 25L20 26L23 26L23 24L25 24L25 25L27 25L27 26L28 26L28 25L29 25L29 24L30 24L30 21L33 21L33 22L34 22L34 21L36 21L36 20L35 20L35 19L34 19L34 18L33 18L33 17L32 17L32 18L30 18L30 19L32 19L32 20L29 20L29 16L30 16L30 17L31 17L31 14L32 14L32 15L33 15L33 14L32 14L32 13L33 13L33 12L32 12L32 11L33 11L33 10L34 10L34 9L32 9L32 8L31 8L31 7L32 7L32 5L31 5L31 7L30 7L30 6L29 6L29 8L28 8L28 9L27 9L27 7L28 7L28 6L27 6L27 7L26 7L26 5L25 5L25 7L24 7L24 5L23 5L23 4L21 4L21 5L19 5L19 4L20 4L20 2L19 2L19 4L17 4L17 5L16 5L16 6L15 6L15 7L14 7L14 5L13 5L13 3L12 3L12 2L10 2L10 1ZM16 1L16 2L17 2L17 1ZM21 1L21 2L22 2L22 1ZM26 2L26 3L27 3L27 2ZM11 4L11 5L12 5L12 7L11 7L11 6L10 6L10 8L11 8L11 9L12 9L12 10L10 10L10 11L12 11L12 10L13 10L13 11L14 11L14 10L15 10L15 12L14 12L14 13L16 13L16 10L18 10L18 9L19 9L19 10L21 10L21 9L20 9L20 7L21 7L21 8L22 8L22 7L23 7L23 9L22 9L22 10L23 10L23 11L24 11L24 12L27 12L27 13L25 13L25 14L24 14L24 13L23 13L23 14L22 14L22 13L21 13L21 14L19 14L19 16L20 16L20 19L17 19L17 20L16 20L16 21L18 21L18 22L20 22L20 23L21 23L21 24L22 24L22 22L20 22L20 21L19 21L19 20L21 20L21 19L22 19L22 21L23 21L23 20L24 20L24 21L26 21L26 18L25 18L25 14L27 14L27 16L26 16L26 17L28 17L28 15L29 15L29 14L28 14L28 13L30 13L30 14L31 14L31 12L28 12L28 11L29 11L29 10L30 10L30 11L31 11L31 10L32 10L32 9L31 9L31 8L29 8L29 9L28 9L28 10L27 10L27 9L24 9L24 7L23 7L23 6L22 6L22 5L21 5L21 6L20 6L20 7L19 7L19 5L17 5L17 6L16 6L16 8L15 8L15 9L14 9L14 10L13 10L13 5L12 5L12 4ZM17 6L17 7L18 7L18 6ZM21 6L21 7L22 7L22 6ZM25 7L25 8L26 8L26 7ZM16 8L16 9L18 9L18 8ZM30 9L30 10L31 10L31 9ZM35 9L35 10L36 10L36 11L37 11L37 10L36 10L36 9ZM10 12L10 13L11 13L11 12ZM17 12L17 13L20 13L20 12ZM6 14L6 15L5 15L5 16L6 16L6 15L7 15L7 14ZM20 15L20 16L23 16L23 15ZM9 16L9 17L11 17L11 16ZM36 16L36 17L37 17L37 16ZM40 16L40 18L39 18L39 19L40 19L40 18L41 18L41 16ZM1 17L1 18L2 18L2 17ZM12 17L12 18L9 18L9 20L7 20L7 19L6 19L6 20L7 20L7 21L6 21L6 22L8 22L8 23L9 23L9 22L8 22L8 21L10 21L10 22L12 22L12 21L14 21L14 20L13 20L13 19L12 19L12 18L13 18L13 17ZM16 17L16 18L17 18L17 17ZM22 18L22 19L25 19L25 18ZM27 18L27 20L28 20L28 18ZM11 19L11 20L10 20L10 21L11 21L11 20L12 20L12 19ZM33 20L33 21L34 21L34 20ZM40 20L40 21L41 21L41 20ZM28 21L28 22L27 22L27 23L26 23L26 22L25 22L25 23L26 23L26 24L27 24L27 25L28 25L28 24L29 24L29 23L28 23L28 22L29 22L29 21ZM14 22L14 23L13 23L13 24L11 24L11 23L10 23L10 27L11 27L11 28L13 28L13 29L12 29L12 30L13 30L13 29L14 29L14 28L13 28L13 27L17 27L17 28L16 28L16 30L17 30L17 31L16 31L16 32L17 32L17 35L19 35L19 34L20 34L20 35L21 35L21 36L22 36L22 37L21 37L21 38L22 38L22 37L23 37L23 36L24 36L24 34L25 34L25 33L24 33L24 31L23 31L23 30L22 30L22 29L21 29L21 30L20 30L20 28L18 28L18 27L17 27L17 26L19 26L19 24L18 24L18 25L17 25L17 24L16 24L16 23L15 23L15 22ZM31 22L31 25L32 25L32 24L33 24L33 23L32 23L32 22ZM2 23L2 24L3 24L3 23ZM4 23L4 26L5 26L5 24L7 24L7 25L6 25L6 26L7 26L7 27L9 27L9 24L7 24L7 23ZM14 23L14 24L13 24L13 25L14 25L14 24L15 24L15 26L17 26L17 25L16 25L16 24L15 24L15 23ZM27 23L27 24L28 24L28 23ZM34 24L34 25L35 25L35 28L36 28L36 29L34 29L34 28L33 28L33 29L34 29L34 30L36 30L36 31L37 31L37 32L39 32L39 26L38 26L38 28L36 28L36 27L37 27L37 26L36 26L36 25L35 25L35 24ZM1 25L1 26L2 26L2 25ZM7 25L7 26L8 26L8 25ZM11 26L11 27L13 27L13 26ZM24 26L24 27L25 27L25 29L24 29L24 28L23 28L23 27L21 27L21 28L23 28L23 29L24 29L24 30L25 30L25 31L26 31L26 30L25 30L25 29L26 29L26 28L27 28L27 27L26 27L26 26ZM7 28L7 29L8 29L8 28ZM9 28L9 31L8 31L8 32L10 32L10 28ZM28 28L28 29L29 29L29 28ZM17 29L17 30L18 30L18 32L19 32L19 33L18 33L18 34L19 34L19 33L20 33L20 34L21 34L21 33L22 33L22 32L23 32L23 31L19 31L19 30L18 30L18 29ZM36 29L36 30L37 30L37 31L38 31L38 29ZM3 30L3 31L4 31L4 30ZM14 30L14 31L15 31L15 30ZM11 32L11 33L10 33L10 35L12 35L12 36L11 36L11 37L10 37L10 38L9 38L9 39L10 39L10 40L11 40L11 39L14 39L14 38L15 38L15 37L16 37L16 38L17 38L17 37L18 37L18 38L19 38L19 36L17 36L17 37L16 37L16 36L14 36L14 35L12 35L12 34L14 34L14 32ZM15 33L15 35L16 35L16 33ZM33 33L33 36L36 36L36 33ZM37 33L37 35L38 35L38 36L39 36L39 33ZM34 34L34 35L35 35L35 34ZM27 35L27 36L28 36L28 35ZM12 36L12 37L11 37L11 38L12 38L12 37L13 37L13 36ZM30 36L30 37L31 37L31 36ZM27 37L27 38L28 38L28 37ZM34 37L34 38L36 38L36 37ZM19 39L19 40L20 40L20 39ZM29 40L29 41L30 41L30 40ZM0 0L0 7L7 7L7 0ZM1 1L1 6L6 6L6 1ZM2 2L2 5L5 5L5 2ZM34 0L34 7L41 7L41 0ZM35 1L35 6L40 6L40 1ZM36 2L36 5L39 5L39 2ZM0 34L0 41L7 41L7 34ZM1 35L1 40L6 40L6 35ZM2 36L2 39L5 39L5 36Z" fill="#000000"/></g></g></svg>
