<?xml version="1.0" encoding="UTF-8"?>
<svg xmlns="http://www.w3.org/2000/svg" version="1.1" width="200" height="200" viewBox="0 0 200 200"><rect x="0" y="0" width="200" height="200" fill="#ffffff"/><g transform="scale(4.878)"><g transform="translate(0,0)"><path fill-rule="evenodd" d="M9 0L9 2L8 2L8 4L9 4L9 3L10 3L10 0ZM11 0L11 3L13 3L13 4L14 4L14 3L15 3L15 4L16 4L16 1L14 1L14 2L12 2L12 1L13 1L13 0ZM18 0L18 2L17 2L17 4L18 4L18 8L19 8L19 12L20 12L20 13L19 13L19 14L18 14L18 9L17 9L17 8L16 8L16 9L17 9L17 17L16 17L16 16L14 16L14 15L15 15L15 14L14 14L14 13L15 13L15 12L16 12L16 11L15 11L15 12L14 12L14 9L15 9L15 8L14 8L14 7L15 7L15 6L16 6L16 7L17 7L17 6L16 6L16 5L15 5L15 6L14 6L14 5L13 5L13 6L12 6L12 4L10 4L10 5L9 5L9 6L8 6L8 7L9 7L9 6L10 6L10 7L11 7L11 6L12 6L12 7L13 7L13 8L14 8L14 9L13 9L13 10L12 10L12 9L10 9L10 10L9 10L9 9L8 9L8 8L6 8L6 9L7 9L7 10L5 10L5 13L3 13L3 12L2 12L2 10L3 10L3 11L4 11L4 9L5 9L5 8L3 8L3 9L0 9L0 11L1 11L1 12L2 12L2 13L3 13L3 14L6 14L6 15L2 15L2 14L1 14L1 13L0 13L0 15L2 15L2 16L1 16L1 17L0 17L0 18L1 18L1 20L2 20L2 22L1 22L1 21L0 21L0 22L1 22L1 23L0 23L0 24L1 24L1 26L2 26L2 27L0 27L0 28L3 28L3 29L0 29L0 33L3 33L3 31L5 31L5 32L4 32L4 33L7 33L7 32L6 32L6 31L8 31L8 35L10 35L10 37L11 37L11 38L9 38L9 36L8 36L8 38L9 38L9 39L11 39L11 40L13 40L13 39L14 39L14 40L16 40L16 39L18 39L18 40L19 40L19 41L22 41L22 40L20 40L20 39L21 39L21 38L23 38L23 41L24 41L24 39L25 39L25 38L27 38L27 39L28 39L28 41L29 41L29 39L30 39L30 41L31 41L31 40L32 40L32 41L34 41L34 40L35 40L35 41L36 41L36 39L37 39L37 32L38 32L38 34L39 34L39 37L38 37L38 41L39 41L39 39L40 39L40 40L41 40L41 36L40 36L40 34L39 34L39 33L41 33L41 30L39 30L39 31L38 31L38 29L40 29L40 28L41 28L41 25L39 25L39 27L37 27L37 25L36 25L36 26L35 26L35 23L36 23L36 21L39 21L39 22L37 22L37 23L39 23L39 24L40 24L40 23L39 23L39 22L41 22L41 21L39 21L39 20L40 20L40 19L41 19L41 18L40 18L40 17L41 17L41 13L40 13L40 12L41 12L41 11L40 11L40 9L39 9L39 8L37 8L37 9L36 9L36 10L35 10L35 11L34 11L34 9L33 9L33 5L32 5L32 4L33 4L33 3L32 3L32 1L31 1L31 0L28 0L28 2L27 2L27 4L24 4L24 3L25 3L25 2L24 2L24 3L23 3L23 4L22 4L22 3L19 3L19 2L20 2L20 1L21 1L21 2L22 2L22 1L24 1L24 0L20 0L20 1L19 1L19 0ZM29 1L29 2L28 2L28 4L27 4L27 7L26 7L26 6L25 6L25 5L24 5L24 6L23 6L23 5L22 5L22 6L21 6L21 7L22 7L22 6L23 6L23 7L24 7L24 8L25 8L25 9L24 9L24 10L23 10L23 11L22 11L22 12L23 12L23 14L22 14L22 15L21 15L21 13L20 13L20 14L19 14L19 15L20 15L20 16L21 16L21 17L20 17L20 18L17 18L17 19L16 19L16 18L15 18L15 19L14 19L14 20L15 20L15 19L16 19L16 22L17 22L17 23L15 23L15 24L13 24L13 22L14 22L14 21L13 21L13 22L12 22L12 24L11 24L11 21L8 21L8 23L6 23L6 24L5 24L5 25L6 25L6 26L3 26L3 28L4 28L4 29L3 29L3 30L2 30L2 31L3 31L3 30L5 30L5 28L8 28L8 29L9 29L9 28L10 28L10 30L8 30L8 31L11 31L11 37L12 37L12 38L11 38L11 39L13 39L13 38L14 38L14 39L16 39L16 34L17 34L17 35L18 35L18 36L17 36L17 38L21 38L21 37L23 37L23 36L22 36L22 35L25 35L25 33L26 33L26 34L27 34L27 33L28 33L28 35L29 35L29 34L30 34L30 33L31 33L31 32L30 32L30 31L29 31L29 32L30 32L30 33L28 33L28 32L27 32L27 33L26 33L26 32L24 32L24 31L23 31L23 30L24 30L24 28L23 28L23 30L22 30L22 28L21 28L21 27L19 27L19 26L17 26L17 27L15 27L15 26L16 26L16 25L17 25L17 23L19 23L19 25L21 25L21 26L22 26L22 24L23 24L23 26L24 26L24 27L25 27L25 26L26 26L26 29L25 29L25 31L28 31L28 30L29 30L29 29L30 29L30 30L32 30L32 31L34 31L34 32L36 32L36 31L37 31L37 30L36 30L36 29L38 29L38 28L36 28L36 29L35 29L35 30L34 30L34 28L35 28L35 26L32 26L32 25L33 25L33 24L34 24L34 23L33 23L33 22L31 22L31 24L29 24L29 25L31 25L31 26L29 26L29 28L28 28L28 27L27 27L27 25L28 25L28 23L26 23L26 20L25 20L25 18L26 18L26 19L27 19L27 20L28 20L28 21L29 21L29 22L30 22L30 21L31 21L31 20L29 20L29 19L31 19L31 17L30 17L30 16L31 16L31 15L32 15L32 18L33 18L33 19L32 19L32 20L33 20L33 19L34 19L34 20L35 20L35 21L34 21L34 22L35 22L35 21L36 21L36 20L38 20L38 17L40 17L40 16L38 16L38 15L39 15L39 14L38 14L38 13L37 13L37 12L36 12L36 13L34 13L34 14L35 14L35 15L36 15L36 13L37 13L37 14L38 14L38 15L37 15L37 16L34 16L34 17L33 17L33 13L32 13L32 12L33 12L33 11L32 11L32 10L31 10L31 9L29 9L29 8L30 8L30 5L31 5L31 8L32 8L32 5L31 5L31 4L32 4L32 3L31 3L31 2L30 2L30 1ZM30 3L30 4L29 4L29 5L30 5L30 4L31 4L31 3ZM19 4L19 8L20 8L20 9L23 9L23 8L20 8L20 4ZM13 6L13 7L14 7L14 6ZM24 6L24 7L25 7L25 8L26 8L26 10L27 10L27 11L28 11L28 10L29 10L29 12L30 12L30 15L31 15L31 14L32 14L32 13L31 13L31 12L30 12L30 11L31 11L31 10L29 10L29 9L28 9L28 8L29 8L29 6L28 6L28 8L26 8L26 7L25 7L25 6ZM37 9L37 10L38 10L38 12L40 12L40 11L39 11L39 10L38 10L38 9ZM7 10L7 11L6 11L6 12L7 12L7 13L6 13L6 14L11 14L11 13L9 13L9 12L10 12L10 11L11 11L11 12L12 12L12 15L11 15L11 16L10 16L10 18L9 18L9 16L7 16L7 15L6 15L6 16L7 16L7 17L6 17L6 18L7 18L7 19L6 19L6 20L5 20L5 21L4 21L4 20L3 20L3 19L4 19L4 18L5 18L5 16L4 16L4 18L3 18L3 16L2 16L2 18L3 18L3 19L2 19L2 20L3 20L3 22L4 22L4 23L3 23L3 24L4 24L4 23L5 23L5 21L6 21L6 22L7 22L7 21L6 21L6 20L8 20L8 19L9 19L9 20L10 20L10 18L11 18L11 19L12 19L12 20L13 20L13 19L12 19L12 17L13 17L13 16L12 16L12 15L13 15L13 12L12 12L12 10L10 10L10 11L9 11L9 10ZM20 10L20 11L21 11L21 10ZM8 11L8 12L9 12L9 11ZM26 12L26 13L24 13L24 14L23 14L23 15L25 15L25 16L24 16L24 17L23 17L23 19L24 19L24 18L25 18L25 17L27 17L27 19L28 19L28 18L29 18L29 17L28 17L28 16L29 16L29 15L28 15L28 14L27 14L27 13L28 13L28 12ZM26 14L26 16L28 16L28 15L27 15L27 14ZM11 16L11 17L12 17L12 16ZM18 16L18 17L19 17L19 16ZM37 16L37 17L35 17L35 20L36 20L36 18L37 18L37 17L38 17L38 16ZM7 17L7 18L8 18L8 17ZM21 18L21 19L20 19L20 21L18 21L18 19L17 19L17 22L19 22L19 23L20 23L20 24L21 24L21 23L23 23L23 24L24 24L24 25L25 25L25 24L24 24L24 20L23 20L23 21L22 21L22 22L21 22L21 19L22 19L22 18ZM8 23L8 25L7 25L7 24L6 24L6 25L7 25L7 26L6 26L6 27L10 27L10 28L11 28L11 29L12 29L12 28L11 28L11 27L10 27L10 26L11 26L11 24L10 24L10 23ZM9 24L9 25L10 25L10 24ZM12 24L12 26L13 26L13 27L14 27L14 26L13 26L13 24ZM15 24L15 25L16 25L16 24ZM31 24L31 25L32 25L32 24ZM31 26L31 28L30 28L30 29L31 29L31 28L32 28L32 26ZM17 27L17 28L13 28L13 29L14 29L14 30L15 30L15 29L16 29L16 30L17 30L17 32L16 32L16 31L15 31L15 33L14 33L14 34L16 34L16 33L17 33L17 34L19 34L19 32L20 32L20 30L21 30L21 31L22 31L22 30L21 30L21 28L20 28L20 30L17 30L17 29L18 29L18 28L19 28L19 27ZM6 29L6 30L7 30L7 29ZM26 29L26 30L27 30L27 29ZM35 30L35 31L36 31L36 30ZM12 31L12 33L13 33L13 32L14 32L14 31ZM18 31L18 32L17 32L17 33L18 33L18 32L19 32L19 31ZM9 32L9 33L10 33L10 32ZM21 32L21 33L20 33L20 34L21 34L21 33L23 33L23 34L24 34L24 33L23 33L23 32ZM33 33L33 36L36 36L36 33ZM34 34L34 35L35 35L35 34ZM12 35L12 36L13 36L13 35ZM14 35L14 36L15 36L15 35ZM26 35L26 37L27 37L27 35ZM30 35L30 36L32 36L32 35ZM18 36L18 37L20 37L20 36ZM24 36L24 37L25 37L25 36ZM28 36L28 38L30 38L30 39L31 39L31 38L32 38L32 40L33 40L33 38L32 38L32 37L29 37L29 36ZM14 37L14 38L15 38L15 37ZM34 37L34 39L35 39L35 38L36 38L36 37ZM39 37L39 38L40 38L40 37ZM9 40L9 41L10 41L10 40ZM25 40L25 41L27 41L27 40ZM0 0L0 7L7 7L7 0ZM1 1L1 6L6 6L6 1ZM2 2L2 5L5 5L5 2ZM34 0L34 7L41 7L41 0ZM35 1L35 6L40 6L40 1ZM36 2L36 5L39 5L39 2ZM0 34L0 41L7 41L7 34ZM1 35L1 40L6 40L6 35ZM2 36L2 39L5 39L5 36Z" fill="#000000"/></g></g></svg>
