<?xml version="1.0" encoding="UTF-8"?>
<svg xmlns="http://www.w3.org/2000/svg" version="1.1" width="200" height="200" viewBox="0 0 200 200"><rect x="0" y="0" width="200" height="200" fill="#ffffff"/><g transform="scale(4.878)"><g transform="translate(0,0)"><path fill-rule="evenodd" d="M10 0L10 1L12 1L12 2L11 2L11 3L12 3L12 5L13 5L13 6L12 6L12 8L13 8L13 10L14 10L14 11L12 11L12 10L11 10L11 9L10 9L10 10L11 10L11 11L10 11L10 13L9 13L9 16L6 16L6 15L8 15L8 14L6 14L6 13L8 13L8 11L9 11L9 8L10 8L10 7L11 7L11 4L10 4L10 3L9 3L9 1L8 1L8 7L9 7L9 8L5 8L5 9L3 9L3 8L2 8L2 9L0 9L0 10L2 10L2 11L0 11L0 13L1 13L1 12L2 12L2 13L4 13L4 14L3 14L3 16L2 16L2 17L0 17L0 18L1 18L1 19L0 19L0 21L1 21L1 23L0 23L0 25L1 25L1 26L0 26L0 28L1 28L1 29L2 29L2 28L3 28L3 29L4 29L4 28L5 28L5 29L7 29L7 30L6 30L6 31L5 31L5 32L4 32L4 30L0 30L0 31L3 31L3 32L0 32L0 33L8 33L8 36L10 36L10 35L11 35L11 33L10 33L10 32L8 32L8 31L11 31L11 32L12 32L12 35L13 35L13 36L12 36L12 37L13 37L13 39L15 39L15 36L16 36L16 37L20 37L20 38L19 38L19 39L17 39L17 38L16 38L16 39L17 39L17 41L22 41L22 39L23 39L23 38L22 38L22 37L24 37L24 41L26 41L26 40L27 40L27 39L30 39L30 40L31 40L31 41L36 41L36 40L37 40L37 41L39 41L39 39L41 39L41 36L40 36L40 35L41 35L41 28L40 28L40 27L41 27L41 25L39 25L39 24L37 24L37 26L38 26L38 27L37 27L37 29L40 29L40 30L37 30L37 31L40 31L40 34L39 34L39 33L38 33L38 34L37 34L37 32L36 32L36 31L35 31L35 32L34 32L34 31L33 31L33 30L34 30L34 29L35 29L35 28L36 28L36 24L35 24L35 20L36 20L36 21L37 21L37 19L38 19L38 17L37 17L37 19L36 19L36 18L35 18L35 16L36 16L36 15L37 15L37 14L38 14L38 13L39 13L39 16L40 16L40 15L41 15L41 12L40 12L40 13L39 13L39 12L38 12L38 11L37 11L37 14L33 14L33 17L34 17L34 18L35 18L35 20L34 20L34 19L32 19L32 16L31 16L31 15L32 15L32 14L30 14L30 13L32 13L32 12L33 12L33 11L32 11L32 10L35 10L35 11L34 11L34 12L35 12L35 13L36 13L36 12L35 12L35 11L36 11L36 10L35 10L35 9L39 9L39 11L41 11L41 9L40 9L40 8L35 8L35 9L34 9L34 8L33 8L33 6L32 6L32 7L31 7L31 6L30 6L30 5L31 5L31 3L32 3L32 5L33 5L33 3L32 3L32 2L33 2L33 0L32 0L32 2L31 2L31 1L29 1L29 0L28 0L28 2L27 2L27 4L28 4L28 2L30 2L30 4L29 4L29 5L28 5L28 8L26 8L26 7L27 7L27 5L26 5L26 4L25 4L25 5L26 5L26 7L25 7L25 6L24 6L24 7L23 7L23 6L22 6L22 7L21 7L21 5L22 5L22 4L23 4L23 5L24 5L24 3L26 3L26 2L25 2L25 1L26 1L26 0L25 0L25 1L24 1L24 0L22 0L22 1L21 1L21 0L20 0L20 1L21 1L21 3L20 3L20 2L17 2L17 1L18 1L18 0L17 0L17 1L16 1L16 0L15 0L15 1L13 1L13 0ZM22 1L22 2L23 2L23 3L24 3L24 1ZM12 2L12 3L13 3L13 5L14 5L14 6L13 6L13 7L14 7L14 8L15 8L15 9L16 9L16 11L17 11L17 12L14 12L14 13L12 13L12 12L11 12L11 14L10 14L10 16L9 16L9 17L6 17L6 16L3 16L3 18L2 18L2 19L1 19L1 21L2 21L2 22L3 22L3 21L2 21L2 19L3 19L3 20L4 20L4 23L2 23L2 24L1 24L1 25L2 25L2 26L3 26L3 27L5 27L5 28L7 28L7 29L8 29L8 30L11 30L11 31L12 31L12 32L16 32L16 31L15 31L15 30L17 30L17 32L18 32L18 31L19 31L19 32L20 32L20 34L19 34L19 33L16 33L16 35L17 35L17 36L20 36L20 35L22 35L22 34L23 34L23 32L24 32L24 33L26 33L26 35L27 35L27 37L28 37L28 36L29 36L29 35L30 35L30 38L31 38L31 39L32 39L32 38L33 38L33 39L34 39L34 40L35 40L35 39L36 39L36 38L37 38L37 37L32 37L32 38L31 38L31 36L32 36L32 34L29 34L29 33L30 33L30 32L31 32L31 33L32 33L32 32L31 32L31 31L32 31L32 29L31 29L31 30L30 30L30 27L31 27L31 26L30 26L30 27L29 27L29 25L30 25L30 21L29 21L29 24L28 24L28 23L27 23L27 22L26 22L26 21L28 21L28 20L30 20L30 19L29 19L29 18L30 18L30 15L29 15L29 17L28 17L28 16L27 16L27 15L28 15L28 13L27 13L27 14L26 14L26 15L25 15L25 16L24 16L24 15L23 15L23 14L24 14L24 13L26 13L26 12L24 12L24 11L23 11L23 12L24 12L24 13L22 13L22 12L21 12L21 11L22 11L22 10L23 10L23 9L21 9L21 11L19 11L19 10L18 10L18 11L17 11L17 9L19 9L19 8L20 8L20 6L19 6L19 8L18 8L18 6L17 6L17 5L18 5L18 4L20 4L20 5L21 5L21 4L20 4L20 3L18 3L18 4L16 4L16 3L15 3L15 2ZM14 3L14 5L15 5L15 6L14 6L14 7L15 7L15 6L16 6L16 7L17 7L17 6L16 6L16 5L15 5L15 3ZM9 4L9 5L10 5L10 4ZM9 6L9 7L10 7L10 6ZM29 6L29 8L28 8L28 12L29 12L29 13L30 13L30 11L31 11L31 12L32 12L32 11L31 11L31 8L30 8L30 6ZM2 9L2 10L3 10L3 11L2 11L2 12L4 12L4 11L6 11L6 12L7 12L7 11L8 11L8 9L5 9L5 10L3 10L3 9ZM6 10L6 11L7 11L7 10ZM25 10L25 11L26 11L26 10ZM29 10L29 11L30 11L30 10ZM18 11L18 12L17 12L17 13L16 13L16 15L17 15L17 13L18 13L18 12L19 12L19 14L18 14L18 15L20 15L20 17L19 17L19 16L17 16L17 17L19 17L19 18L17 18L17 19L15 19L15 18L16 18L16 16L14 16L14 15L15 15L15 13L14 13L14 14L11 14L11 17L10 17L10 18L5 18L5 17L4 17L4 18L3 18L3 19L4 19L4 20L5 20L5 21L8 21L8 22L5 22L5 23L4 23L4 25L3 25L3 24L2 24L2 25L3 25L3 26L4 26L4 25L5 25L5 27L7 27L7 26L6 26L6 25L7 25L7 24L5 24L5 23L8 23L8 24L9 24L9 25L8 25L8 27L9 27L9 28L8 28L8 29L9 29L9 28L10 28L10 27L9 27L9 25L10 25L10 24L9 24L9 23L10 23L10 22L11 22L11 23L12 23L12 22L11 22L11 21L10 21L10 20L5 20L5 19L10 19L10 18L11 18L11 17L12 17L12 18L13 18L13 19L11 19L11 20L12 20L12 21L13 21L13 22L14 22L14 21L13 21L13 20L14 20L14 19L15 19L15 21L16 21L16 20L17 20L17 22L19 22L19 21L20 21L20 22L21 22L21 23L19 23L19 26L16 26L16 27L15 27L15 25L14 25L14 23L13 23L13 26L12 26L12 27L11 27L11 28L16 28L16 27L18 27L18 29L17 29L17 30L19 30L19 28L20 28L20 29L21 29L21 28L22 28L22 27L23 27L23 26L25 26L25 27L26 27L26 28L27 28L27 29L28 29L28 28L29 28L29 27L28 27L28 24L27 24L27 27L26 27L26 23L25 23L25 22L24 22L24 21L25 21L25 19L26 19L26 20L27 20L27 19L28 19L28 17L27 17L27 19L26 19L26 18L25 18L25 17L23 17L23 18L22 18L22 17L21 17L21 15L22 15L22 16L23 16L23 15L22 15L22 13L21 13L21 12L19 12L19 11ZM0 14L0 16L1 16L1 14ZM4 14L4 15L5 15L5 14ZM34 15L34 16L35 16L35 15ZM14 17L14 18L15 18L15 17ZM39 17L39 20L40 20L40 19L41 19L41 17ZM19 18L19 19L17 19L17 20L20 20L20 21L21 21L21 22L23 22L23 25L25 25L25 23L24 23L24 22L23 22L23 21L24 21L24 19L25 19L25 18L23 18L23 21L21 21L21 20L22 20L22 18ZM32 20L32 24L33 24L33 26L32 26L32 27L33 27L33 26L34 26L34 24L33 24L33 23L34 23L34 22L33 22L33 20ZM9 21L9 22L8 22L8 23L9 23L9 22L10 22L10 21ZM39 21L39 22L40 22L40 24L41 24L41 22L40 22L40 21ZM36 22L36 23L38 23L38 22ZM15 23L15 24L18 24L18 23ZM21 25L21 26L22 26L22 25ZM13 26L13 27L14 27L14 26ZM1 27L1 28L2 28L2 27ZM27 27L27 28L28 28L28 27ZM34 27L34 28L35 28L35 27ZM38 27L38 28L39 28L39 27ZM24 28L24 29L22 29L22 30L23 30L23 31L22 31L22 32L21 32L21 34L22 34L22 32L23 32L23 31L24 31L24 32L26 32L26 33L27 33L27 35L28 35L28 32L27 32L27 31L28 31L28 30L27 30L27 31L25 31L25 28ZM12 29L12 30L13 30L13 31L14 31L14 30L15 30L15 29ZM20 30L20 31L21 31L21 30ZM6 31L6 32L7 32L7 31ZM13 33L13 35L15 35L15 34L14 34L14 33ZM33 33L33 36L36 36L36 33ZM18 34L18 35L19 35L19 34ZM24 34L24 35L25 35L25 34ZM34 34L34 35L35 35L35 34ZM38 35L38 37L39 37L39 38L38 38L38 39L39 39L39 38L40 38L40 37L39 37L39 35ZM13 36L13 37L14 37L14 36ZM21 36L21 37L22 37L22 36ZM10 37L10 38L11 38L11 41L13 41L13 40L12 40L12 38L11 38L11 37ZM25 37L25 38L26 38L26 37ZM8 38L8 39L9 39L9 38ZM20 38L20 39L19 39L19 40L20 40L20 39L21 39L21 38ZM25 39L25 40L26 40L26 39ZM28 40L28 41L29 41L29 40ZM40 40L40 41L41 41L41 40ZM0 0L0 7L7 7L7 0ZM1 1L1 6L6 6L6 1ZM2 2L2 5L5 5L5 2ZM34 0L34 7L41 7L41 0ZM35 1L35 6L40 6L40 1ZM36 2L36 5L39 5L39 2ZM0 34L0 41L7 41L7 34ZM1 35L1 40L6 40L6 35ZM2 36L2 39L5 39L5 36Z" fill="#000000"/></g></g></svg>
