<?xml version="1.0" encoding="UTF-8"?>
<svg xmlns="http://www.w3.org/2000/svg" version="1.1" width="200" height="200" viewBox="0 0 200 200"><rect x="0" y="0" width="200" height="200" fill="#ffffff"/><g transform="scale(4.878)"><g transform="translate(0,0)"><path fill-rule="evenodd" d="M8 0L8 1L9 1L9 0ZM10 0L10 2L8 2L8 3L9 3L9 4L8 4L8 5L9 5L9 6L8 6L8 8L9 8L9 9L7 9L7 8L5 8L5 9L1 9L1 11L0 11L0 13L1 13L1 14L3 14L3 15L2 15L2 19L1 19L1 15L0 15L0 22L1 22L1 23L0 23L0 25L1 25L1 24L2 24L2 26L3 26L3 24L5 24L5 25L4 25L4 27L5 27L5 28L4 28L4 29L3 29L3 30L2 30L2 29L1 29L1 28L3 28L3 27L1 27L1 26L0 26L0 27L1 27L1 28L0 28L0 33L1 33L1 31L2 31L2 32L3 32L3 33L7 33L7 32L6 32L6 31L7 31L7 30L8 30L8 31L9 31L9 32L8 32L8 34L9 34L9 32L11 32L11 33L10 33L10 34L12 34L12 35L11 35L11 36L10 36L10 35L8 35L8 36L10 36L10 37L9 37L9 40L10 40L10 41L11 41L11 40L13 40L13 41L18 41L18 40L19 40L19 41L20 41L20 40L21 40L21 41L22 41L22 40L21 40L21 39L23 39L23 40L24 40L24 38L25 38L25 40L26 40L26 41L27 41L27 40L26 40L26 38L25 38L25 37L27 37L27 39L28 39L28 41L32 41L32 40L31 40L31 39L32 39L32 37L36 37L36 38L34 38L34 39L33 39L33 41L34 41L34 40L36 40L36 39L37 39L37 40L38 40L38 39L40 39L40 40L41 40L41 39L40 39L40 38L41 38L41 35L40 35L40 34L39 34L39 33L40 33L40 31L41 31L41 29L40 29L40 28L39 28L39 27L40 27L40 26L41 26L41 25L39 25L39 24L37 24L37 20L38 20L38 22L41 22L41 20L40 20L40 19L41 19L41 15L38 15L38 13L39 13L39 12L40 12L40 14L41 14L41 12L40 12L40 9L41 9L41 8L40 8L40 9L39 9L39 8L38 8L38 10L37 10L37 8L36 8L36 9L35 9L35 8L34 8L34 9L35 9L35 10L34 10L34 12L35 12L35 13L36 13L36 15L38 15L38 16L37 16L37 17L36 17L36 16L35 16L35 15L34 15L34 14L32 14L32 17L31 17L31 13L32 13L32 12L33 12L33 11L32 11L32 12L31 12L31 11L30 11L30 10L33 10L33 6L32 6L32 9L30 9L30 8L29 8L29 6L30 6L30 7L31 7L31 5L33 5L33 0L32 0L32 4L30 4L30 5L28 5L28 7L27 7L27 4L28 4L28 3L31 3L31 2L30 2L30 1L29 1L29 0L28 0L28 2L26 2L26 4L25 4L25 2L24 2L24 3L23 3L23 4L24 4L24 5L23 5L23 6L22 6L22 4L21 4L21 2L23 2L23 1L24 1L24 0L23 0L23 1L22 1L22 0L21 0L21 2L19 2L19 1L20 1L20 0L19 0L19 1L17 1L17 2L16 2L16 4L18 4L18 5L17 5L17 6L16 6L16 5L15 5L15 6L14 6L14 5L13 5L13 3L14 3L14 4L15 4L15 3L14 3L14 2L15 2L15 1L16 1L16 0L14 0L14 1L13 1L13 0ZM25 0L25 1L26 1L26 0ZM11 2L11 3L10 3L10 4L11 4L11 3L12 3L12 2ZM18 2L18 3L19 3L19 2ZM19 4L19 5L18 5L18 6L17 6L17 7L16 7L16 6L15 6L15 7L16 7L16 8L17 8L17 9L16 9L16 10L15 10L15 8L14 8L14 6L13 6L13 7L12 7L12 5L10 5L10 6L9 6L9 8L10 8L10 6L11 6L11 7L12 7L12 8L11 8L11 9L14 9L14 10L13 10L13 11L14 11L14 13L15 13L15 14L13 14L13 13L12 13L12 15L11 15L11 14L7 14L7 13L6 13L6 14L4 14L4 15L6 15L6 16L5 16L5 17L4 17L4 16L3 16L3 19L2 19L2 20L1 20L1 22L2 22L2 24L3 24L3 21L2 21L2 20L4 20L4 23L5 23L5 24L7 24L7 23L6 23L6 22L7 22L7 21L6 21L6 22L5 22L5 18L7 18L7 19L6 19L6 20L7 20L7 19L9 19L9 20L8 20L8 21L9 21L9 20L10 20L10 19L11 19L11 20L12 20L12 21L11 21L11 22L12 22L12 23L13 23L13 22L14 22L14 21L15 21L15 22L16 22L16 23L14 23L14 24L15 24L15 25L13 25L13 27L14 27L14 28L13 28L13 29L12 29L12 30L13 30L13 29L14 29L14 28L15 28L15 30L14 30L14 31L13 31L13 32L12 32L12 31L11 31L11 28L12 28L12 27L11 27L11 28L10 28L10 27L9 27L9 28L10 28L10 31L11 31L11 32L12 32L12 34L13 34L13 33L15 33L15 32L16 32L16 31L17 31L17 34L18 34L18 35L16 35L16 37L13 37L13 36L15 36L15 35L12 35L12 36L11 36L11 37L13 37L13 38L12 38L12 39L13 39L13 38L14 38L14 39L16 39L16 40L18 40L18 39L19 39L19 40L20 40L20 39L21 39L21 37L22 37L22 35L23 35L23 38L24 38L24 37L25 37L25 35L26 35L26 36L27 36L27 37L28 37L28 39L29 39L29 40L30 40L30 39L31 39L31 38L30 38L30 37L31 37L31 36L32 36L32 35L31 35L31 33L30 33L30 35L31 35L31 36L30 36L30 37L29 37L29 34L28 34L28 35L27 35L27 34L25 34L25 35L24 35L24 34L23 34L23 33L24 33L24 32L25 32L25 30L28 30L28 31L27 31L27 32L26 32L26 33L27 33L27 32L30 32L30 31L32 31L32 29L33 29L33 28L32 28L32 26L31 26L31 25L30 25L30 24L32 24L32 22L33 22L33 20L31 20L31 19L26 19L26 17L24 17L24 19L23 19L23 16L24 16L24 14L25 14L25 15L26 15L26 13L24 13L24 12L23 12L23 11L22 11L22 10L25 10L25 11L27 11L27 7L26 7L26 5L24 5L24 6L23 6L23 9L22 9L22 10L21 10L21 11L20 11L20 9L19 9L19 8L20 8L20 6L19 6L19 5L21 5L21 4ZM18 6L18 7L17 7L17 8L19 8L19 6ZM21 6L21 8L22 8L22 6ZM24 6L24 7L25 7L25 10L26 10L26 7L25 7L25 6ZM5 9L5 10L7 10L7 11L6 11L6 12L10 12L10 9L9 9L9 11L8 11L8 10L7 10L7 9ZM17 9L17 10L18 10L18 12L19 12L19 13L21 13L21 14L22 14L22 15L19 15L19 14L18 14L18 13L17 13L17 15L18 15L18 16L17 16L17 17L16 17L16 16L15 16L15 17L14 17L14 15L12 15L12 16L10 16L10 15L7 15L7 14L6 14L6 15L7 15L7 16L6 16L6 17L8 17L8 16L10 16L10 17L9 17L9 19L10 19L10 17L12 17L12 18L11 18L11 19L12 19L12 18L13 18L13 17L14 17L14 19L13 19L13 20L15 20L15 21L18 21L18 22L17 22L17 23L16 23L16 25L15 25L15 26L14 26L14 27L17 27L17 28L16 28L16 30L15 30L15 31L14 31L14 32L15 32L15 31L16 31L16 30L17 30L17 29L19 29L19 30L21 30L21 29L19 29L19 28L21 28L21 27L19 27L19 28L18 28L18 25L19 25L19 26L21 26L21 25L23 25L23 26L24 26L24 28L23 28L23 27L22 27L22 28L23 28L23 30L22 30L22 32L24 32L24 31L23 31L23 30L24 30L24 29L26 29L26 28L25 28L25 26L24 26L24 25L25 25L25 24L26 24L26 25L27 25L27 26L26 26L26 27L27 27L27 29L31 29L31 28L28 28L28 24L26 24L26 23L25 23L25 22L27 22L27 23L29 23L29 20L28 20L28 21L27 21L27 20L26 20L26 19L24 19L24 20L26 20L26 21L23 21L23 22L22 22L22 23L19 23L19 24L17 24L17 23L18 23L18 22L21 22L21 21L22 21L22 20L23 20L23 19L22 19L22 17L21 17L21 18L20 18L20 17L19 17L19 16L22 16L22 15L23 15L23 13L21 13L21 12L19 12L19 9ZM29 9L29 10L28 10L28 12L29 12L29 13L30 13L30 11L29 11L29 10L30 10L30 9ZM35 10L35 11L36 11L36 10ZM2 11L2 13L3 13L3 11ZM4 11L4 13L5 13L5 11ZM38 11L38 12L39 12L39 11ZM15 12L15 13L16 13L16 12ZM36 12L36 13L37 13L37 12ZM27 13L27 15L28 15L28 16L27 16L27 17L28 17L28 18L31 18L31 17L29 17L29 16L30 16L30 14L28 14L28 13ZM15 14L15 15L16 15L16 14ZM12 16L12 17L13 17L13 16ZM34 16L34 17L32 17L32 18L33 18L33 19L34 19L34 23L33 23L33 24L34 24L34 23L35 23L35 24L36 24L36 25L37 25L37 24L36 24L36 23L35 23L35 22L36 22L36 21L35 21L35 18L36 18L36 20L37 20L37 19L38 19L38 20L39 20L39 21L40 21L40 20L39 20L39 19L40 19L40 16L39 16L39 17L37 17L37 18L36 18L36 17L35 17L35 16ZM17 17L17 18L16 18L16 19L17 19L17 20L19 20L19 21L20 21L20 20L19 20L19 19L20 19L20 18L19 18L19 17ZM34 17L34 18L35 18L35 17ZM17 18L17 19L18 19L18 18ZM30 20L30 21L31 21L31 22L32 22L32 21L31 21L31 20ZM9 22L9 24L8 24L8 26L7 26L7 25L5 25L5 26L7 26L7 27L6 27L6 28L5 28L5 29L4 29L4 30L7 30L7 29L8 29L8 28L7 28L7 27L8 27L8 26L9 26L9 25L11 25L11 23L10 23L10 22ZM23 23L23 25L24 25L24 23ZM40 23L40 24L41 24L41 23ZM19 24L19 25L20 25L20 24ZM29 25L29 26L30 26L30 25ZM34 26L34 27L36 27L36 26ZM38 26L38 27L39 27L39 26ZM6 28L6 29L7 29L7 28ZM34 28L34 30L33 30L33 31L34 31L34 32L35 32L35 30L36 30L36 31L37 31L37 32L39 32L39 31L37 31L37 30L36 30L36 29L38 29L38 30L40 30L40 29L39 29L39 28L36 28L36 29L35 29L35 28ZM20 31L20 33L19 33L19 34L20 34L20 36L21 36L21 34L22 34L22 33L21 33L21 31ZM33 33L33 36L36 36L36 33ZM34 34L34 35L35 35L35 34ZM37 34L37 35L38 35L38 37L39 37L39 38L40 38L40 36L39 36L39 35L38 35L38 34ZM16 37L16 38L17 38L17 37ZM19 38L19 39L20 39L20 38ZM37 38L37 39L38 39L38 38ZM10 39L10 40L11 40L11 39ZM0 0L0 7L7 7L7 0ZM1 1L1 6L6 6L6 1ZM2 2L2 5L5 5L5 2ZM34 0L34 7L41 7L41 0ZM35 1L35 6L40 6L40 1ZM36 2L36 5L39 5L39 2ZM0 34L0 41L7 41L7 34ZM1 35L1 40L6 40L6 35ZM2 36L2 39L5 39L5 36Z" fill="#000000"/></g></g></svg>
