<?xml version="1.0" encoding="UTF-8"?>
<svg xmlns="http://www.w3.org/2000/svg" version="1.1" width="200" height="200" viewBox="0 0 200 200"><rect x="0" y="0" width="200" height="200" fill="#ffffff"/><g transform="scale(4.878)"><g transform="translate(0,0)"><path fill-rule="evenodd" d="M8 0L8 3L9 3L9 4L10 4L10 5L12 5L12 4L13 4L13 6L12 6L12 10L9 10L9 5L8 5L8 9L7 9L7 8L6 8L6 9L5 9L5 8L2 8L2 9L5 9L5 10L4 10L4 11L2 11L2 10L0 10L0 11L1 11L1 12L0 12L0 13L1 13L1 12L2 12L2 13L3 13L3 12L5 12L5 11L8 11L8 10L9 10L9 11L10 11L10 12L9 12L9 13L8 13L8 12L6 12L6 13L7 13L7 14L6 14L6 15L5 15L5 16L4 16L4 15L3 15L3 14L2 14L2 15L0 15L0 16L2 16L2 18L3 18L3 21L0 21L0 23L1 23L1 22L2 22L2 23L4 23L4 22L5 22L5 21L4 21L4 20L6 20L6 21L7 21L7 20L8 20L8 22L6 22L6 23L8 23L8 22L9 22L9 21L10 21L10 22L11 22L11 25L13 25L13 26L15 26L15 25L16 25L16 21L17 21L17 24L19 24L19 25L17 25L17 26L16 26L16 29L17 29L17 28L19 28L19 29L18 29L18 30L16 30L16 32L15 32L15 27L14 27L14 28L13 28L13 27L12 27L12 26L11 26L11 30L10 30L10 31L9 31L9 29L7 29L7 28L6 28L6 27L8 27L8 26L9 26L9 25L10 25L10 23L9 23L9 24L8 24L8 25L7 25L7 24L0 24L0 26L1 26L1 27L0 27L0 33L1 33L1 30L2 30L2 31L4 31L4 30L3 30L3 29L2 29L2 28L5 28L5 29L7 29L7 30L6 30L6 31L7 31L7 30L8 30L8 32L9 32L9 33L8 33L8 34L9 34L9 33L10 33L10 35L9 35L9 36L8 36L8 39L9 39L9 40L10 40L10 39L12 39L12 37L14 37L14 40L11 40L11 41L14 41L14 40L16 40L16 41L18 41L18 39L17 39L17 38L19 38L19 37L20 37L20 38L22 38L22 39L19 39L19 41L21 41L21 40L22 40L22 41L24 41L24 40L25 40L25 41L28 41L28 40L27 40L27 39L28 39L28 38L26 38L26 40L25 40L25 39L24 39L24 37L23 37L23 36L25 36L25 32L26 32L26 35L29 35L29 33L30 33L30 35L32 35L32 37L31 37L31 36L30 36L30 37L31 37L31 38L29 38L29 39L32 39L32 40L31 40L31 41L32 41L32 40L33 40L33 41L34 41L34 40L33 40L33 39L32 39L32 37L33 37L33 38L34 38L34 39L35 39L35 40L36 40L36 39L38 39L38 38L37 38L37 37L39 37L39 40L40 40L40 38L41 38L41 37L40 37L40 36L37 36L37 35L38 35L38 34L37 34L37 32L38 32L38 33L39 33L39 35L40 35L40 34L41 34L41 33L39 33L39 32L41 32L41 31L40 31L40 30L41 30L41 29L40 29L40 28L41 28L41 27L40 27L40 26L41 26L41 23L40 23L40 26L39 26L39 24L37 24L37 25L36 25L36 23L35 23L35 22L36 22L36 21L37 21L37 20L38 20L38 21L39 21L39 20L38 20L38 19L40 19L40 18L41 18L41 16L40 16L40 18L38 18L38 19L37 19L37 20L36 20L36 19L35 19L35 17L36 17L36 18L37 18L37 17L39 17L39 16L37 16L37 15L40 15L40 14L41 14L41 13L40 13L40 14L37 14L37 13L36 13L36 14L37 14L37 15L35 15L35 17L34 17L34 16L33 16L33 15L34 15L34 14L33 14L33 13L34 13L34 12L33 12L33 13L32 13L32 14L31 14L31 12L32 12L32 11L34 11L34 10L35 10L35 9L36 9L36 12L38 12L38 11L40 11L40 10L41 10L41 8L38 8L38 9L40 9L40 10L37 10L37 9L36 9L36 8L33 8L33 9L31 9L31 8L32 8L32 7L33 7L33 6L32 6L32 7L31 7L31 5L32 5L32 4L33 4L33 3L30 3L30 4L31 4L31 5L30 5L30 7L31 7L31 8L29 8L29 6L28 6L28 5L25 5L25 3L26 3L26 4L27 4L27 3L28 3L28 4L29 4L29 1L27 1L27 0L25 0L25 2L24 2L24 1L23 1L23 0L21 0L21 2L20 2L20 1L18 1L18 3L17 3L17 2L15 2L15 1L17 1L17 0L15 0L15 1L14 1L14 0L12 0L12 1L11 1L11 0ZM30 0L30 2L31 2L31 1L33 1L33 0ZM9 1L9 3L10 3L10 1ZM22 1L22 2L21 2L21 4L20 4L20 3L18 3L18 4L17 4L17 3L15 3L15 4L14 4L14 2L11 2L11 4L12 4L12 3L13 3L13 4L14 4L14 6L13 6L13 9L14 9L14 10L12 10L12 12L13 12L13 13L12 13L12 14L10 14L10 13L11 13L11 12L10 12L10 13L9 13L9 14L8 14L8 15L6 15L6 16L7 16L7 17L5 17L5 18L4 18L4 16L3 16L3 18L4 18L4 19L5 19L5 18L7 18L7 19L6 19L6 20L7 20L7 19L9 19L9 20L10 20L10 21L11 21L11 22L12 22L12 23L13 23L13 24L14 24L14 23L13 23L13 22L14 22L14 20L13 20L13 21L11 21L11 20L10 20L10 19L12 19L12 18L13 18L13 19L15 19L15 20L17 20L17 21L19 21L19 22L18 22L18 23L19 23L19 24L20 24L20 25L19 25L19 26L20 26L20 27L19 27L19 28L20 28L20 29L21 29L21 28L22 28L22 30L18 30L18 31L17 31L17 32L16 32L16 33L15 33L15 32L14 32L14 35L15 35L15 38L17 38L17 37L16 37L16 36L17 36L17 35L18 35L18 34L19 34L19 36L22 36L22 34L23 34L23 35L24 35L24 33L23 33L23 31L25 31L25 30L24 30L24 29L23 29L23 28L22 28L22 26L25 26L25 25L26 25L26 26L29 26L29 28L28 28L28 29L29 29L29 28L30 28L30 29L31 29L31 32L30 32L30 30L27 30L27 34L28 34L28 33L29 33L29 32L30 32L30 33L32 33L32 32L36 32L36 31L38 31L38 32L39 32L39 30L38 30L38 29L39 29L39 26L38 26L38 28L36 28L36 29L34 29L34 28L33 28L33 27L34 27L34 25L35 25L35 27L36 27L36 25L35 25L35 23L32 23L32 22L30 22L30 21L33 21L33 22L34 22L34 21L36 21L36 20L35 20L35 19L34 19L34 18L33 18L33 17L32 17L32 18L31 18L31 17L30 17L30 19L32 19L32 20L29 20L29 19L28 19L28 21L27 21L27 20L26 20L26 21L25 21L25 20L24 20L24 19L25 19L25 17L26 17L26 18L29 18L29 16L30 16L30 15L31 15L31 14L30 14L30 13L28 13L28 12L31 12L31 11L32 11L32 10L31 10L31 9L29 9L29 8L28 8L28 6L27 6L27 8L28 8L28 9L27 9L27 10L26 10L26 11L27 11L27 10L28 10L28 12L27 12L27 13L28 13L28 14L30 14L30 15L28 15L28 17L27 17L27 16L26 16L26 12L25 12L25 15L24 15L24 16L25 16L25 17L24 17L24 19L22 19L22 20L24 20L24 21L22 21L22 22L23 22L23 23L21 23L21 19L20 19L20 18L23 18L23 13L24 13L24 11L23 11L23 10L22 10L22 9L24 9L24 10L25 10L25 9L26 9L26 6L25 6L25 5L24 5L24 6L23 6L23 7L22 7L22 5L23 5L23 3L22 3L22 2L23 2L23 1ZM26 2L26 3L27 3L27 2ZM15 4L15 5L17 5L17 6L16 6L16 7L15 7L15 6L14 6L14 7L15 7L15 8L14 8L14 9L15 9L15 8L16 8L16 7L17 7L17 6L18 6L18 8L17 8L17 11L16 11L16 10L14 10L14 13L16 13L16 14L15 14L15 15L13 15L13 16L12 16L12 15L11 15L11 16L10 16L10 17L9 17L9 18L11 18L11 17L13 17L13 18L15 18L15 16L16 16L16 17L17 17L17 16L18 16L18 15L17 15L17 14L19 14L19 17L18 17L18 18L19 18L19 17L20 17L20 14L21 14L21 15L22 15L22 13L21 13L21 10L19 10L19 9L18 9L18 8L20 8L20 9L21 9L21 8L20 8L20 7L21 7L21 6L20 6L20 5L19 5L19 4L18 4L18 5L17 5L17 4ZM21 4L21 5L22 5L22 4ZM18 5L18 6L19 6L19 7L20 7L20 6L19 6L19 5ZM10 6L10 8L11 8L11 6ZM24 6L24 7L23 7L23 8L24 8L24 9L25 9L25 6ZM6 9L6 10L7 10L7 9ZM28 9L28 10L29 10L29 11L31 11L31 10L29 10L29 9ZM33 9L33 10L34 10L34 9ZM18 10L18 12L17 12L17 13L20 13L20 12L19 12L19 10ZM22 11L22 12L23 12L23 11ZM32 14L32 15L33 15L33 14ZM16 15L16 16L17 16L17 15ZM13 16L13 17L14 17L14 16ZM21 16L21 17L22 17L22 16ZM36 16L36 17L37 17L37 16ZM0 17L0 18L1 18L1 17ZM7 17L7 18L8 18L8 17ZM16 18L16 19L17 19L17 20L18 20L18 19L17 19L17 18ZM32 18L32 19L33 19L33 18ZM0 19L0 20L1 20L1 19ZM19 19L19 20L20 20L20 19ZM33 20L33 21L34 21L34 20ZM40 20L40 21L41 21L41 20ZM28 21L28 22L27 22L27 23L26 23L26 22L24 22L24 23L26 23L26 24L28 24L28 25L29 25L29 26L30 26L30 25L31 25L31 26L32 26L32 27L31 27L31 28L32 28L32 29L33 29L33 30L32 30L32 31L33 31L33 30L34 30L34 31L36 31L36 30L37 30L37 29L36 29L36 30L34 30L34 29L33 29L33 28L32 28L32 27L33 27L33 25L34 25L34 24L33 24L33 25L31 25L31 24L32 24L32 23L31 23L31 24L28 24L28 22L29 22L29 23L30 23L30 22L29 22L29 21ZM22 24L22 25L20 25L20 26L22 26L22 25L23 25L23 24ZM24 24L24 25L25 25L25 24ZM3 25L3 26L4 26L4 27L5 27L5 26L7 26L7 25ZM9 27L9 28L10 28L10 27ZM20 27L20 28L21 28L21 27ZM25 27L25 28L27 28L27 27ZM12 29L12 31L11 31L11 32L13 32L13 31L14 31L14 29ZM22 30L22 31L23 31L23 30ZM18 31L18 33L16 33L16 35L17 35L17 34L18 34L18 33L19 33L19 34L20 34L20 33L21 33L21 32L20 32L20 31ZM28 31L28 32L29 32L29 31ZM2 32L2 33L4 33L4 32ZM5 32L5 33L7 33L7 32ZM19 32L19 33L20 33L20 32ZM11 33L11 35L10 35L10 36L11 36L11 37L12 37L12 36L11 36L11 35L12 35L12 33ZM33 33L33 36L36 36L36 33ZM34 34L34 35L35 35L35 34ZM26 36L26 37L29 37L29 36ZM9 37L9 39L10 39L10 37ZM22 37L22 38L23 38L23 37ZM34 37L34 38L36 38L36 37ZM29 40L29 41L30 41L30 40ZM0 0L0 7L7 7L7 0ZM1 1L1 6L6 6L6 1ZM2 2L2 5L5 5L5 2ZM34 0L34 7L41 7L41 0ZM35 1L35 6L40 6L40 1ZM36 2L36 5L39 5L39 2ZM0 34L0 41L7 41L7 34ZM1 35L1 40L6 40L6 35ZM2 36L2 39L5 39L5 36Z" fill="#000000"/></g></g></svg>
