<?xml version="1.0" encoding="UTF-8"?>
<svg xmlns="http://www.w3.org/2000/svg" version="1.1" width="200" height="200" viewBox="0 0 200 200"><rect x="0" y="0" width="200" height="200" fill="#ffffff"/><g transform="scale(6.897)"><g transform="translate(0,0)"><path fill-rule="evenodd" d="M8 0L8 3L9 3L9 4L10 4L10 5L13 5L13 6L12 6L12 7L11 7L11 6L10 6L10 7L11 7L11 8L10 8L10 9L9 9L9 5L8 5L8 9L7 9L7 8L6 8L6 9L7 9L7 10L6 10L6 11L7 11L7 12L5 12L5 8L2 8L2 9L4 9L4 11L2 11L2 10L0 10L0 13L1 13L1 11L2 11L2 12L5 12L5 13L7 13L7 14L6 14L6 15L7 15L7 16L5 16L5 15L4 15L4 13L3 13L3 14L2 14L2 15L1 15L1 14L0 14L0 15L1 15L1 16L0 16L0 21L1 21L1 17L2 17L2 19L3 19L3 21L7 21L7 20L8 20L8 19L10 19L10 21L8 21L8 22L9 22L9 24L8 24L8 27L9 27L9 28L10 28L10 27L9 27L9 26L10 26L10 25L12 25L12 27L11 27L11 28L13 28L13 29L15 29L15 28L13 28L13 24L14 24L14 25L16 25L16 24L15 24L15 23L13 23L13 24L12 24L12 23L10 23L10 21L11 21L11 22L13 22L13 21L14 21L14 22L16 22L16 23L17 23L17 24L18 24L18 25L17 25L17 26L16 26L16 29L17 29L17 28L18 28L18 29L28 29L28 28L29 28L29 27L28 27L28 23L29 23L29 20L28 20L28 19L27 19L27 17L28 17L28 10L29 10L29 8L26 8L26 9L25 9L25 12L24 12L24 11L22 11L22 12L23 12L23 13L21 13L21 15L22 15L22 14L23 14L23 13L24 13L24 20L23 20L23 19L22 19L22 18L20 18L20 19L21 19L21 20L20 20L20 25L19 25L19 23L17 23L17 22L18 22L18 21L19 21L19 18L18 18L18 17L19 17L19 16L18 16L18 15L19 15L19 13L20 13L20 12L21 12L21 11L20 11L20 10L22 10L22 9L23 9L23 10L24 10L24 8L21 8L21 5L20 5L20 4L21 4L21 3L20 3L20 4L19 4L19 3L18 3L18 4L17 4L17 6L16 6L16 8L13 8L13 6L14 6L14 7L15 7L15 6L14 6L14 4L15 4L15 5L16 5L16 4L15 4L15 3L14 3L14 2L12 2L12 4L11 4L11 3L9 3L9 1L10 1L10 2L11 2L11 0ZM14 0L14 1L15 1L15 0ZM16 0L16 3L17 3L17 0ZM18 1L18 2L19 2L19 1ZM20 1L20 2L21 2L21 1ZM18 4L18 6L17 6L17 7L18 7L18 6L19 6L19 7L20 7L20 6L19 6L19 4ZM16 8L16 10L15 10L15 9L14 9L14 10L13 10L13 9L10 9L10 10L9 10L9 9L8 9L8 10L7 10L7 11L8 11L8 12L7 12L7 13L9 13L9 14L7 14L7 15L9 15L9 14L10 14L10 16L9 16L9 17L8 17L8 16L7 16L7 17L6 17L6 18L7 18L7 19L6 19L6 20L7 20L7 19L8 19L8 18L10 18L10 16L11 16L11 17L13 17L13 14L15 14L15 15L14 15L14 16L15 16L15 15L18 15L18 14L16 14L16 13L14 13L14 12L13 12L13 11L14 11L14 10L15 10L15 12L16 12L16 11L18 11L18 10L17 10L17 9L19 9L19 10L20 10L20 9L21 9L21 8L20 8L20 9L19 9L19 8ZM26 9L26 10L27 10L27 9ZM11 10L11 11L12 11L12 10ZM9 12L9 13L11 13L11 12ZM25 12L25 13L26 13L26 14L27 14L27 12ZM12 13L12 14L11 14L11 16L12 16L12 14L13 14L13 13ZM25 15L25 16L27 16L27 15ZM2 16L2 17L4 17L4 18L3 18L3 19L4 19L4 20L5 20L5 17L4 17L4 16ZM17 16L17 17L18 17L18 16ZM20 16L20 17L22 17L22 16ZM7 17L7 18L8 18L8 17ZM17 18L17 19L16 19L16 20L17 20L17 21L16 21L16 22L17 22L17 21L18 21L18 20L17 20L17 19L18 19L18 18ZM12 19L12 21L13 21L13 20L14 20L14 21L15 21L15 20L14 20L14 19ZM25 19L25 21L26 21L26 22L25 22L25 24L26 24L26 26L27 26L27 23L26 23L26 22L28 22L28 20L26 20L26 19ZM21 21L21 24L24 24L24 21ZM22 22L22 23L23 23L23 22ZM9 24L9 25L10 25L10 24ZM18 25L18 26L19 26L19 25ZM22 25L22 26L23 26L23 27L25 27L25 28L27 28L27 27L25 27L25 26L24 26L24 25ZM20 26L20 27L19 27L19 28L22 28L22 27L21 27L21 26ZM0 0L0 7L7 7L7 0ZM1 1L1 6L6 6L6 1ZM2 2L2 5L5 5L5 2ZM22 0L22 7L29 7L29 0ZM23 1L23 6L28 6L28 1ZM24 2L24 5L27 5L27 2ZM0 22L0 29L7 29L7 22ZM1 23L1 28L6 28L6 23ZM2 24L2 27L5 27L5 24Z" fill="#000000"/></g></g></svg>
