<?xml version="1.0" encoding="UTF-8"?>
<svg xmlns="http://www.w3.org/2000/svg" version="1.1" width="200" height="200" viewBox="0 0 200 200"><rect x="0" y="0" width="200" height="200" fill="#ffffff"/><g transform="scale(6.897)"><g transform="translate(0,0)"><path fill-rule="evenodd" d="M13 0L13 1L10 1L10 3L9 3L9 5L8 5L8 8L4 8L4 9L1 9L1 10L2 10L2 11L0 11L0 15L2 15L2 14L3 14L3 16L4 16L4 17L3 17L3 18L2 18L2 16L1 16L1 17L0 17L0 18L2 18L2 20L0 20L0 21L4 21L4 19L5 19L5 21L8 21L8 25L9 25L9 27L10 27L10 26L11 26L11 25L13 25L13 26L12 26L12 27L14 27L14 28L12 28L12 29L16 29L16 28L17 28L17 29L22 29L22 28L23 28L23 29L27 29L27 28L28 28L28 27L29 27L29 26L27 26L27 24L29 24L29 23L28 23L28 22L29 22L29 19L26 19L26 18L25 18L25 17L24 17L24 18L25 18L25 19L26 19L26 20L24 20L24 19L23 19L23 18L21 18L21 19L20 19L20 17L23 17L23 16L24 16L24 14L25 14L25 15L27 15L27 16L29 16L29 13L28 13L28 15L27 15L27 12L29 12L29 9L28 9L28 8L27 8L27 9L24 9L24 8L22 8L22 9L24 9L24 10L22 10L22 11L23 11L23 13L22 13L22 12L19 12L19 11L18 11L18 9L19 9L19 10L20 10L20 11L21 11L21 9L19 9L19 8L20 8L20 7L21 7L21 6L20 6L20 7L19 7L19 5L18 5L18 7L17 7L17 6L16 6L16 4L15 4L15 3L17 3L17 4L18 4L18 3L19 3L19 4L20 4L20 5L21 5L21 1L20 1L20 0L18 0L18 2L16 2L16 1L14 1L14 0ZM8 1L8 2L9 2L9 1ZM19 1L19 2L20 2L20 1ZM13 2L13 3L15 3L15 2ZM10 3L10 4L11 4L11 9L10 9L10 5L9 5L9 8L8 8L8 9L9 9L9 10L7 10L7 9L6 9L6 10L7 10L7 11L6 11L6 12L4 12L4 10L5 10L5 9L4 9L4 10L3 10L3 11L2 11L2 12L1 12L1 13L2 13L2 12L3 12L3 13L4 13L4 14L5 14L5 15L6 15L6 16L5 16L5 17L6 17L6 18L7 18L7 19L6 19L6 20L8 20L8 21L9 21L9 22L10 22L10 23L9 23L9 24L10 24L10 25L11 25L11 22L12 22L12 23L13 23L13 25L14 25L14 26L15 26L15 24L16 24L16 27L18 27L18 28L19 28L19 27L18 27L18 26L20 26L20 28L21 28L21 26L22 26L22 27L23 27L23 28L27 28L27 26L25 26L25 27L23 27L23 26L24 26L24 25L19 25L19 24L20 24L20 22L19 22L19 21L20 21L20 20L19 20L19 18L18 18L18 16L17 16L17 15L19 15L19 16L21 16L21 15L22 15L22 16L23 16L23 14L24 14L24 13L23 13L23 14L22 14L22 13L21 13L21 14L18 14L18 11L17 11L17 9L18 9L18 8L17 8L17 7L16 7L16 6L15 6L15 7L14 7L14 6L13 6L13 5L14 5L14 4L13 4L13 5L12 5L12 4L11 4L11 3ZM12 6L12 12L9 12L9 13L8 13L8 12L6 12L6 13L7 13L7 14L6 14L6 15L7 15L7 16L6 16L6 17L8 17L8 18L9 18L9 19L8 19L8 20L9 20L9 21L11 21L11 20L9 20L9 19L12 19L12 20L13 20L13 16L14 16L14 21L12 21L12 22L15 22L15 23L14 23L14 24L15 24L15 23L16 23L16 24L17 24L17 25L18 25L18 24L19 24L19 23L18 23L18 22L15 22L15 20L16 20L16 19L18 19L18 18L16 18L16 19L15 19L15 16L14 16L14 15L13 15L13 13L15 13L15 15L16 15L16 12L17 12L17 11L16 11L16 7L15 7L15 9L14 9L14 8L13 8L13 6ZM13 9L13 10L14 10L14 12L16 12L16 11L15 11L15 10L14 10L14 9ZM27 9L27 10L28 10L28 9ZM9 10L9 11L11 11L11 10ZM24 10L24 12L25 12L25 10ZM11 13L11 14L12 14L12 13ZM25 13L25 14L26 14L26 13ZM8 14L8 15L10 15L10 14ZM12 15L12 16L13 16L13 15ZM16 16L16 17L17 17L17 16ZM11 17L11 18L12 18L12 17ZM27 17L27 18L28 18L28 17ZM22 19L22 20L23 20L23 19ZM17 20L17 21L19 21L19 20ZM21 21L21 24L24 24L24 21ZM25 21L25 25L26 25L26 24L27 24L27 23L26 23L26 21ZM22 22L22 23L23 23L23 22ZM9 28L9 29L11 29L11 28ZM0 0L0 7L7 7L7 0ZM1 1L1 6L6 6L6 1ZM2 2L2 5L5 5L5 2ZM22 0L22 7L29 7L29 0ZM23 1L23 6L28 6L28 1ZM24 2L24 5L27 5L27 2ZM0 22L0 29L7 29L7 22ZM1 23L1 28L6 28L6 23ZM2 24L2 27L5 27L5 24Z" fill="#000000"/></g></g></svg>
