<?xml version="1.0" encoding="UTF-8"?>
<svg xmlns="http://www.w3.org/2000/svg" version="1.1" width="200" height="200" viewBox="0 0 200 200"><rect x="0" y="0" width="200" height="200" fill="#ffffff"/><g transform="scale(4.878)"><g transform="translate(0,0)"><path fill-rule="evenodd" d="M8 0L8 3L9 3L9 5L8 5L8 9L7 9L7 8L6 8L6 9L7 9L7 10L6 10L6 11L7 11L7 12L5 12L5 11L4 11L4 10L5 10L5 8L2 8L2 9L1 9L1 11L0 11L0 12L2 12L2 14L1 14L1 15L3 15L3 16L1 16L1 17L2 17L2 20L1 20L1 18L0 18L0 21L1 21L1 22L3 22L3 23L2 23L2 24L3 24L3 25L4 25L4 23L5 23L5 27L7 27L7 28L5 28L5 29L7 29L7 30L3 30L3 32L2 32L2 33L3 33L3 32L4 32L4 33L7 33L7 32L6 32L6 31L7 31L7 30L11 30L11 31L10 31L10 32L9 32L9 33L8 33L8 34L9 34L9 35L10 35L10 34L11 34L11 33L10 33L10 32L12 32L12 35L11 35L11 36L10 36L10 37L11 37L11 39L10 39L10 41L13 41L13 40L12 40L12 39L14 39L14 41L15 41L15 40L16 40L16 41L20 41L20 40L21 40L21 41L24 41L24 39L23 39L23 36L24 36L24 38L25 38L25 41L26 41L26 40L27 40L27 41L28 41L28 40L27 40L27 39L28 39L28 38L26 38L26 37L25 37L25 36L24 36L24 35L23 35L23 34L24 34L24 33L25 33L25 32L27 32L27 31L26 31L26 30L29 30L29 29L30 29L30 31L31 31L31 29L33 29L33 30L32 30L32 31L33 31L33 30L34 30L34 31L35 31L35 30L36 30L36 31L38 31L38 30L39 30L39 32L32 32L32 34L30 34L30 35L31 35L31 36L30 36L30 37L29 37L29 35L28 35L28 34L27 34L27 33L26 33L26 34L27 34L27 35L28 35L28 36L27 36L27 37L29 37L29 38L30 38L30 39L31 39L31 40L33 40L33 41L34 41L34 40L33 40L33 39L31 39L31 38L32 38L32 37L33 37L33 38L34 38L34 39L35 39L35 40L36 40L36 39L37 39L37 37L39 37L39 38L38 38L38 39L39 39L39 40L40 40L40 38L41 38L41 37L40 37L40 36L37 36L37 35L38 35L38 34L37 34L37 33L39 33L39 35L40 35L40 34L41 34L41 33L40 33L40 32L41 32L41 31L40 31L40 30L41 30L41 29L40 29L40 28L41 28L41 27L40 27L40 26L41 26L41 23L40 23L40 26L39 26L39 24L37 24L37 25L36 25L36 23L35 23L35 25L34 25L34 23L31 23L31 22L33 22L33 21L34 21L34 22L36 22L36 21L37 21L37 23L38 23L38 21L39 21L39 20L36 20L36 19L35 19L35 17L36 17L36 18L37 18L37 19L38 19L38 18L37 18L37 17L39 17L39 18L41 18L41 16L40 16L40 17L39 17L39 16L37 16L37 15L36 15L36 14L37 14L37 13L36 13L36 14L35 14L35 15L36 15L36 16L35 16L35 17L34 17L34 16L33 16L33 15L34 15L34 14L33 14L33 13L34 13L34 12L33 12L33 11L34 11L34 10L36 10L36 12L38 12L38 11L40 11L40 10L41 10L41 8L38 8L38 9L40 9L40 10L37 10L37 9L36 9L36 8L32 8L32 9L30 9L30 8L29 8L29 6L28 6L28 5L26 5L26 4L27 4L27 3L28 3L28 4L29 4L29 1L27 1L27 0L25 0L25 1L24 1L24 0L23 0L23 1L24 1L24 2L23 2L23 3L24 3L24 4L23 4L23 5L22 5L22 4L21 4L21 5L22 5L22 7L23 7L23 8L24 8L24 9L22 9L22 8L21 8L21 6L20 6L20 3L22 3L22 0L21 0L21 1L20 1L20 3L19 3L19 0L17 0L17 2L16 2L16 0L11 0L11 3L10 3L10 2L9 2L9 1L10 1L10 0ZM30 0L30 2L31 2L31 1L32 1L32 4L31 4L31 3L30 3L30 4L31 4L31 5L30 5L30 7L31 7L31 5L32 5L32 7L33 7L33 5L32 5L32 4L33 4L33 0ZM12 1L12 2L13 2L13 4L12 4L12 5L11 5L11 4L10 4L10 5L11 5L11 8L13 8L13 7L14 7L14 5L15 5L15 7L16 7L16 6L17 6L17 7L18 7L18 8L17 8L17 11L19 11L19 12L18 12L18 13L17 13L17 14L15 14L15 12L16 12L16 10L14 10L14 9L11 9L11 10L14 10L14 11L15 11L15 12L12 12L12 11L11 11L11 12L10 12L10 11L8 11L8 10L7 10L7 11L8 11L8 12L7 12L7 13L6 13L6 14L7 14L7 15L4 15L4 16L7 16L7 17L6 17L6 18L5 18L5 17L4 17L4 18L3 18L3 20L2 20L2 21L3 21L3 20L4 20L4 22L5 22L5 20L4 20L4 18L5 18L5 19L6 19L6 20L7 20L7 19L8 19L8 22L7 22L7 21L6 21L6 22L7 22L7 23L6 23L6 24L8 24L8 26L9 26L9 27L8 27L8 28L7 28L7 29L10 29L10 27L11 27L11 24L12 24L12 21L13 21L13 25L12 25L12 26L13 26L13 29L12 29L12 28L11 28L11 29L12 29L12 30L14 30L14 28L16 28L16 29L17 29L17 31L16 31L16 30L15 30L15 33L16 33L16 34L18 34L18 35L17 35L17 36L18 36L18 35L20 35L20 37L19 37L19 38L18 38L18 40L20 40L20 39L21 39L21 40L23 40L23 39L22 39L22 38L20 38L20 37L21 37L21 35L22 35L22 34L21 34L21 35L20 35L20 32L22 32L22 33L24 33L24 32L23 32L23 31L19 31L19 29L18 29L18 28L17 28L17 27L18 27L18 26L19 26L19 27L20 27L20 29L24 29L24 30L26 30L26 29L27 29L27 27L25 27L25 25L26 25L26 26L28 26L28 27L29 27L29 28L28 28L28 29L29 29L29 28L30 28L30 29L31 29L31 28L33 28L33 29L34 29L34 30L35 30L35 29L37 29L37 30L38 30L38 29L39 29L39 26L38 26L38 28L35 28L35 29L34 29L34 28L33 28L33 27L34 27L34 25L32 25L32 24L31 24L31 23L30 23L30 21L33 21L33 20L34 20L34 21L36 21L36 20L35 20L35 19L34 19L34 18L30 18L30 19L33 19L33 20L29 20L29 19L28 19L28 20L27 20L27 18L29 18L29 16L30 16L30 17L31 17L31 15L30 15L30 13L28 13L28 14L29 14L29 15L28 15L28 17L27 17L27 16L26 16L26 17L25 17L25 18L24 18L24 19L23 19L23 16L25 16L25 15L26 15L26 14L27 14L27 13L26 13L26 10L25 10L25 9L26 9L26 8L25 8L25 9L24 9L24 10L25 10L25 11L22 11L22 10L20 10L20 9L19 9L19 8L20 8L20 6L19 6L19 7L18 7L18 6L17 6L17 5L16 5L16 4L15 4L15 3L16 3L16 2L14 2L14 1ZM26 2L26 3L25 3L25 4L24 4L24 5L23 5L23 7L24 7L24 6L25 6L25 7L26 7L26 5L25 5L25 4L26 4L26 3L27 3L27 2ZM13 4L13 5L14 5L14 4ZM18 4L18 5L19 5L19 4ZM9 6L9 8L10 8L10 6ZM12 6L12 7L13 7L13 6ZM27 6L27 8L28 8L28 6ZM15 8L15 9L16 9L16 8ZM2 9L2 10L3 10L3 9ZM18 9L18 10L19 10L19 9ZM27 9L27 10L28 10L28 11L29 11L29 12L30 12L30 11L29 11L29 10L30 10L30 9ZM32 9L32 10L31 10L31 11L33 11L33 9ZM20 11L20 12L19 12L19 13L18 13L18 14L17 14L17 16L18 16L18 17L19 17L19 18L20 18L20 17L21 17L21 20L20 20L20 21L19 21L19 22L18 22L18 23L22 23L22 22L21 22L21 20L22 20L22 21L23 21L23 23L24 23L24 21L26 21L26 22L27 22L27 23L29 23L29 21L28 21L28 22L27 22L27 21L26 21L26 20L23 20L23 19L22 19L22 17L21 17L21 16L20 16L20 17L19 17L19 16L18 16L18 14L19 14L19 15L20 15L20 14L21 14L21 13L20 13L20 12L21 12L21 11ZM8 12L8 13L7 13L7 14L8 14L8 13L9 13L9 14L10 14L10 13L9 13L9 12ZM22 12L22 16L23 16L23 15L24 15L24 12ZM31 12L31 14L32 14L32 15L33 15L33 14L32 14L32 13L33 13L33 12ZM39 12L39 14L38 14L38 15L39 15L39 14L41 14L41 12ZM12 13L12 14L11 14L11 15L12 15L12 16L13 16L13 17L12 17L12 20L13 20L13 21L15 21L15 22L14 22L14 25L15 25L15 26L14 26L14 27L16 27L16 26L17 26L17 24L15 24L15 23L17 23L17 22L16 22L16 21L17 21L17 20L18 20L18 18L17 18L17 17L16 17L16 16L13 16L13 15L12 15L12 14L14 14L14 15L15 15L15 14L14 14L14 13ZM19 13L19 14L20 14L20 13ZM8 15L8 19L11 19L11 17L10 17L10 18L9 18L9 16L10 16L10 15ZM32 16L32 17L33 17L33 16ZM36 16L36 17L37 17L37 16ZM13 17L13 18L14 18L14 17ZM6 18L6 19L7 19L7 18ZM15 18L15 21L16 21L16 20L17 20L17 18ZM25 18L25 19L26 19L26 18ZM13 19L13 20L14 20L14 19ZM10 20L10 22L8 22L8 24L9 24L9 25L10 25L10 24L9 24L9 23L11 23L11 20ZM40 20L40 21L41 21L41 20ZM0 23L0 25L1 25L1 26L2 26L2 25L1 25L1 23ZM19 24L19 25L21 25L21 24ZM23 24L23 25L25 25L25 24ZM27 24L27 25L29 25L29 26L30 26L30 25L31 25L31 26L32 26L32 25L31 25L31 24ZM6 25L6 26L7 26L7 25ZM35 25L35 26L36 26L36 25ZM3 26L3 27L4 27L4 26ZM21 26L21 28L22 28L22 26ZM0 27L0 33L1 33L1 29L4 29L4 28L1 28L1 27ZM23 27L23 28L24 28L24 29L25 29L25 27ZM12 31L12 32L14 32L14 31ZM17 31L17 32L16 32L16 33L18 33L18 34L19 34L19 33L18 33L18 31ZM28 31L28 33L31 33L31 32L29 32L29 31ZM9 33L9 34L10 34L10 33ZM33 33L33 36L36 36L36 33ZM13 34L13 35L12 35L12 36L11 36L11 37L12 37L12 38L13 38L13 35L15 35L15 37L16 37L16 35L15 35L15 34ZM34 34L34 35L35 35L35 34ZM8 36L8 39L9 39L9 36ZM31 36L31 37L30 37L30 38L31 38L31 37L32 37L32 36ZM34 37L34 38L36 38L36 37ZM14 38L14 39L15 39L15 38ZM19 38L19 39L20 39L20 38ZM16 39L16 40L17 40L17 39ZM29 40L29 41L30 41L30 40ZM0 0L0 7L7 7L7 0ZM1 1L1 6L6 6L6 1ZM2 2L2 5L5 5L5 2ZM34 0L34 7L41 7L41 0ZM35 1L35 6L40 6L40 1ZM36 2L36 5L39 5L39 2ZM0 34L0 41L7 41L7 34ZM1 35L1 40L6 40L6 35ZM2 36L2 39L5 39L5 36Z" fill="#000000"/></g></g></svg>
