<?xml version="1.0" encoding="UTF-8"?>
<svg xmlns="http://www.w3.org/2000/svg" version="1.1" width="200" height="200" viewBox="0 0 200 200"><rect x="0" y="0" width="200" height="200" fill="#ffffff"/><g transform="scale(4.878)"><g transform="translate(0,0)"><path fill-rule="evenodd" d="M8 0L8 3L10 3L10 2L11 2L11 1L9 1L9 0ZM15 0L15 1L14 1L14 4L13 4L13 2L12 2L12 3L11 3L11 4L10 4L10 5L8 5L8 9L9 9L9 11L8 11L8 10L6 10L6 9L7 9L7 8L6 8L6 9L5 9L5 8L2 8L2 9L1 9L1 11L0 11L0 12L4 12L4 13L5 13L5 19L4 19L4 20L5 20L5 19L7 19L7 20L6 20L6 21L7 21L7 22L6 22L6 23L4 23L4 22L5 22L5 21L1 21L1 19L0 19L0 23L1 23L1 26L0 26L0 33L1 33L1 30L2 30L2 27L3 27L3 26L2 26L2 25L4 25L4 27L7 27L7 26L8 26L8 28L6 28L6 29L5 29L5 31L7 31L7 30L6 30L6 29L8 29L8 32L5 32L5 33L8 33L8 34L9 34L9 35L10 35L10 38L9 38L9 36L8 36L8 39L14 39L14 40L12 40L12 41L17 41L17 37L16 37L16 38L15 38L15 36L14 36L14 38L11 38L11 35L12 35L12 37L13 37L13 35L15 35L15 34L14 34L14 33L13 33L13 32L14 32L14 31L15 31L15 32L16 32L16 33L17 33L17 32L18 32L18 29L16 29L16 28L15 28L15 26L16 26L16 27L17 27L17 26L18 26L18 27L19 27L19 28L20 28L20 27L19 27L19 26L20 26L20 25L21 25L21 24L23 24L23 26L22 26L22 27L21 27L21 29L19 29L19 31L20 31L20 33L21 33L21 35L20 35L20 34L19 34L19 35L20 35L20 36L18 36L18 35L17 35L17 36L18 36L18 37L19 37L19 38L20 38L20 37L21 37L21 39L18 39L18 41L19 41L19 40L21 40L21 41L24 41L24 40L25 40L25 41L27 41L27 40L28 40L28 41L32 41L32 40L33 40L33 41L34 41L34 40L33 40L33 39L35 39L35 40L36 40L36 39L37 39L37 40L40 40L40 38L41 38L41 37L39 37L39 36L40 36L40 34L41 34L41 33L40 33L40 32L38 32L38 31L36 31L36 32L33 32L33 31L32 31L32 30L33 30L33 29L34 29L34 28L33 28L33 29L32 29L32 30L31 30L31 32L28 32L28 31L30 31L30 30L28 30L28 29L31 29L31 28L29 28L29 27L28 27L28 26L27 26L27 24L28 24L28 25L29 25L29 26L32 26L32 27L34 27L34 26L35 26L35 27L36 27L36 28L35 28L35 29L36 29L36 30L37 30L37 29L36 29L36 28L38 28L38 26L39 26L39 27L40 27L40 26L41 26L41 23L39 23L39 24L40 24L40 26L39 26L39 25L34 25L34 24L35 24L35 23L36 23L36 24L37 24L37 23L38 23L38 22L37 22L37 21L39 21L39 20L36 20L36 19L35 19L35 17L36 17L36 18L38 18L38 17L39 17L39 16L37 16L37 13L36 13L36 14L35 14L35 17L34 17L34 16L32 16L32 17L31 17L31 16L29 16L29 15L28 15L28 16L29 16L29 17L31 17L31 18L30 18L30 19L31 19L31 18L32 18L32 19L33 19L33 18L34 18L34 19L35 19L35 21L34 21L34 20L30 20L30 21L31 21L31 22L32 22L32 21L34 21L34 22L33 22L33 23L30 23L30 22L29 22L29 23L30 23L30 24L28 24L28 22L27 22L27 21L29 21L29 20L28 20L28 18L27 18L27 17L25 17L25 18L24 18L24 19L22 19L22 18L23 18L23 17L24 17L24 16L25 16L25 14L23 14L23 13L24 13L24 10L26 10L26 11L25 11L25 12L26 12L26 11L29 11L29 10L27 10L27 9L30 9L30 11L31 11L31 10L32 10L32 9L34 9L34 11L32 11L32 13L33 13L33 14L32 14L32 15L34 15L34 13L35 13L35 9L36 9L36 10L37 10L37 11L36 11L36 12L38 12L38 11L40 11L40 12L39 12L39 14L41 14L41 13L40 13L40 12L41 12L41 11L40 11L40 10L41 10L41 8L38 8L38 9L40 9L40 10L37 10L37 9L36 9L36 8L33 8L33 5L32 5L32 4L33 4L33 3L32 3L32 2L33 2L33 1L32 1L32 0L31 0L31 1L32 1L32 2L30 2L30 0L29 0L29 1L27 1L27 0L26 0L26 1L27 1L27 2L26 2L26 3L28 3L28 4L29 4L29 3L32 3L32 4L30 4L30 5L32 5L32 9L30 9L30 8L31 8L31 6L30 6L30 8L29 8L29 5L27 5L27 4L26 4L26 7L25 7L25 6L24 6L24 5L25 5L25 3L24 3L24 2L21 2L21 1L20 1L20 2L19 2L19 1L17 1L17 2L19 2L19 3L16 3L16 0ZM22 0L22 1L23 1L23 0ZM15 3L15 4L14 4L14 6L13 6L13 5L12 5L12 4L11 4L11 5L12 5L12 6L11 6L11 7L12 7L12 6L13 6L13 7L14 7L14 8L13 8L13 9L12 9L12 10L11 10L11 9L10 9L10 6L9 6L9 9L10 9L10 10L11 10L11 11L12 11L12 13L11 13L11 14L10 14L10 15L8 15L8 16L9 16L9 17L8 17L8 18L7 18L7 17L6 17L6 18L7 18L7 19L8 19L8 18L10 18L10 21L9 21L9 20L8 20L8 23L6 23L6 24L4 24L4 25L5 25L5 26L7 26L7 25L6 25L6 24L8 24L8 26L9 26L9 27L10 27L10 28L9 28L9 30L10 30L10 29L11 29L11 30L15 30L15 31L16 31L16 32L17 32L17 31L16 31L16 30L15 30L15 28L14 28L14 29L13 29L13 28L11 28L11 27L14 27L14 24L12 24L12 23L13 23L13 22L14 22L14 21L15 21L15 23L17 23L17 24L16 24L16 26L17 26L17 25L20 25L20 24L21 24L21 23L20 23L20 22L21 22L21 21L22 21L22 22L23 22L23 21L22 21L22 19L21 19L21 21L18 21L18 20L20 20L20 16L22 16L22 17L21 17L21 18L22 18L22 17L23 17L23 16L24 16L24 15L21 15L21 14L20 14L20 12L21 12L21 13L22 13L22 12L23 12L23 9L24 9L24 8L25 8L25 7L24 7L24 6L23 6L23 7L24 7L24 8L22 8L22 6L21 6L21 4L22 4L22 5L24 5L24 3L20 3L20 4L19 4L19 5L18 5L18 4L17 4L17 5L16 5L16 6L15 6L15 4L16 4L16 3ZM17 5L17 6L16 6L16 7L15 7L15 6L14 6L14 7L15 7L15 8L14 8L14 9L13 9L13 10L12 10L12 11L13 11L13 10L15 10L15 11L14 11L14 12L13 12L13 14L11 14L11 17L10 17L10 18L11 18L11 17L12 17L12 18L13 18L13 19L11 19L11 20L12 20L12 22L11 22L11 21L10 21L10 23L12 23L12 22L13 22L13 20L14 20L14 18L15 18L15 17L14 17L14 16L16 16L16 18L17 18L17 17L19 17L19 16L20 16L20 15L19 15L19 13L17 13L17 12L16 12L16 11L17 11L17 9L18 9L18 10L20 10L20 11L21 11L21 12L22 12L22 10L21 10L21 9L22 9L22 8L21 8L21 9L18 9L18 7L19 7L19 8L20 8L20 7L21 7L21 6L20 6L20 5L19 5L19 6L18 6L18 5ZM17 6L17 7L16 7L16 8L15 8L15 9L17 9L17 7L18 7L18 6ZM19 6L19 7L20 7L20 6ZM27 6L27 7L26 7L26 8L27 8L27 7L28 7L28 6ZM2 9L2 11L3 11L3 9ZM5 10L5 13L6 13L6 14L9 14L9 12L10 12L10 11L9 11L9 12L8 12L8 11L6 11L6 10ZM18 11L18 12L19 12L19 11ZM6 12L6 13L8 13L8 12ZM14 12L14 14L17 14L17 15L16 15L16 16L19 16L19 15L18 15L18 14L17 14L17 13L16 13L16 12ZM27 12L27 14L29 14L29 13L30 13L30 15L31 15L31 12L29 12L29 13L28 13L28 12ZM33 12L33 13L34 13L34 12ZM0 13L0 16L2 16L2 17L1 17L1 18L2 18L2 17L3 17L3 16L4 16L4 15L3 15L3 16L2 16L2 14L3 14L3 13ZM6 15L6 16L7 16L7 15ZM12 16L12 17L13 17L13 16ZM36 16L36 17L37 17L37 16ZM40 16L40 18L39 18L39 19L40 19L40 18L41 18L41 16ZM32 17L32 18L33 18L33 17ZM25 18L25 21L24 21L24 23L23 23L23 24L24 24L24 25L25 25L25 26L24 26L24 27L22 27L22 30L23 30L23 28L24 28L24 27L25 27L25 26L26 26L26 25L25 25L25 24L24 24L24 23L25 23L25 22L26 22L26 24L27 24L27 22L26 22L26 20L27 20L27 19L26 19L26 18ZM15 19L15 20L18 20L18 19ZM40 20L40 21L41 21L41 20ZM16 21L16 22L17 22L17 23L18 23L18 24L20 24L20 23L18 23L18 22L17 22L17 21ZM35 21L35 22L34 22L34 23L33 23L33 24L34 24L34 23L35 23L35 22L36 22L36 21ZM1 22L1 23L2 23L2 24L3 24L3 23L2 23L2 22ZM11 24L11 25L12 25L12 24ZM30 24L30 25L32 25L32 26L34 26L34 25L32 25L32 24ZM9 25L9 26L10 26L10 27L11 27L11 26L10 26L10 25ZM27 27L27 28L26 28L26 29L24 29L24 30L25 30L25 31L24 31L24 32L23 32L23 31L22 31L22 33L24 33L24 35L25 35L25 34L26 34L26 35L27 35L27 34L29 34L29 33L27 33L27 32L26 32L26 29L27 29L27 28L28 28L28 27ZM39 28L39 31L40 31L40 30L41 30L41 29L40 29L40 28ZM3 29L3 30L4 30L4 29ZM20 30L20 31L21 31L21 30ZM34 30L34 31L35 31L35 30ZM11 31L11 32L13 32L13 31ZM2 32L2 33L4 33L4 32ZM8 32L8 33L9 33L9 32ZM25 32L25 33L26 33L26 34L27 34L27 33L26 33L26 32ZM37 32L37 33L38 33L38 34L39 34L39 33L38 33L38 32ZM10 33L10 35L11 35L11 34L13 34L13 33ZM30 33L30 35L31 35L31 36L29 36L29 37L27 37L27 38L30 38L30 37L31 37L31 38L32 38L32 39L31 39L31 40L32 40L32 39L33 39L33 38L36 38L36 37L33 37L33 38L32 38L32 35L31 35L31 33ZM33 33L33 36L36 36L36 33ZM22 34L22 35L21 35L21 36L22 36L22 37L24 37L24 39L22 39L22 40L24 40L24 39L25 39L25 40L26 40L26 39L25 39L25 38L26 38L26 36L25 36L25 37L24 37L24 36L22 36L22 35L23 35L23 34ZM34 34L34 35L35 35L35 34ZM38 35L38 36L37 36L37 37L38 37L38 36L39 36L39 35ZM14 38L14 39L15 39L15 38ZM37 38L37 39L38 39L38 38ZM28 39L28 40L30 40L30 39ZM9 40L9 41L10 41L10 40ZM0 0L0 7L7 7L7 0ZM1 1L1 6L6 6L6 1ZM2 2L2 5L5 5L5 2ZM34 0L34 7L41 7L41 0ZM35 1L35 6L40 6L40 1ZM36 2L36 5L39 5L39 2ZM0 34L0 41L7 41L7 34ZM1 35L1 40L6 40L6 35ZM2 36L2 39L5 39L5 36Z" fill="#000000"/></g></g></svg>
