<?xml version="1.0" encoding="UTF-8"?>
<svg xmlns="http://www.w3.org/2000/svg" version="1.1" width="200" height="200" viewBox="0 0 200 200"><rect x="0" y="0" width="200" height="200" fill="#ffffff"/><g transform="scale(4.878)"><g transform="translate(0,0)"><path fill-rule="evenodd" d="M8 0L8 3L9 3L9 4L10 4L10 7L11 7L11 8L12 8L12 7L13 7L13 8L14 8L14 7L15 7L15 5L16 5L16 7L17 7L17 9L13 9L13 10L12 10L12 9L9 9L9 5L8 5L8 9L7 9L7 8L6 8L6 9L5 9L5 8L2 8L2 9L1 9L1 10L0 10L0 12L1 12L1 14L2 14L2 15L4 15L4 16L1 16L1 20L0 20L0 21L3 21L3 22L1 22L1 24L3 24L3 22L4 22L4 23L5 23L5 24L4 24L4 27L3 27L3 26L0 26L0 33L1 33L1 28L2 28L2 29L4 29L4 30L2 30L2 31L4 31L4 30L5 30L5 28L6 28L6 29L7 29L7 30L6 30L6 31L5 31L5 33L7 33L7 32L6 32L6 31L10 31L10 32L8 32L8 34L9 34L9 35L10 35L10 36L8 36L8 39L9 39L9 41L10 41L10 39L11 39L11 41L13 41L13 38L12 38L12 37L11 37L11 38L10 38L10 39L9 39L9 37L10 37L10 36L13 36L13 37L14 37L14 38L15 38L15 37L16 37L16 36L17 36L17 35L18 35L18 36L21 36L21 37L23 37L23 35L26 35L26 36L25 36L25 37L26 37L26 39L25 39L25 40L26 40L26 41L28 41L28 40L26 40L26 39L28 39L28 38L27 38L27 37L26 37L26 36L28 36L28 37L29 37L29 36L28 36L28 34L29 34L29 33L31 33L31 34L30 34L30 35L32 35L32 37L33 37L33 38L34 38L34 39L35 39L35 40L36 40L36 39L38 39L38 38L37 38L37 37L39 37L39 40L40 40L40 38L41 38L41 37L39 37L39 36L37 36L37 35L40 35L40 36L41 36L41 35L40 35L40 34L41 34L41 33L39 33L39 32L38 32L38 31L40 31L40 30L41 30L41 29L40 29L40 28L39 28L39 30L37 30L37 29L35 29L35 27L36 27L36 28L38 28L38 26L39 26L39 27L40 27L40 26L41 26L41 23L40 23L40 26L39 26L39 24L37 24L37 25L36 25L36 23L34 23L34 22L36 22L36 21L38 21L38 22L37 22L37 23L38 23L38 22L39 22L39 20L36 20L36 19L35 19L35 17L36 17L36 18L37 18L37 17L36 17L36 16L38 16L38 17L39 17L39 16L38 16L38 14L37 14L37 13L36 13L36 14L35 14L35 15L36 15L36 16L35 16L35 17L34 17L34 16L33 16L33 15L34 15L34 14L33 14L33 13L34 13L34 12L33 12L33 11L34 11L34 10L36 10L36 12L38 12L38 11L40 11L40 10L41 10L41 8L38 8L38 9L40 9L40 10L37 10L37 9L36 9L36 8L33 8L33 6L32 6L32 7L31 7L31 6L30 6L30 8L29 8L29 5L26 5L26 8L27 8L27 9L30 9L30 11L31 11L31 12L29 12L29 10L27 10L27 11L28 11L28 12L27 12L27 13L25 13L25 15L26 15L26 14L27 14L27 17L26 17L26 16L25 16L25 18L24 18L24 17L22 17L22 15L23 15L23 16L24 16L24 15L23 15L23 13L24 13L24 12L26 12L26 10L25 10L25 8L24 8L24 7L25 7L25 6L24 6L24 5L25 5L25 4L24 4L24 2L25 2L25 3L26 3L26 4L27 4L27 3L28 3L28 4L29 4L29 1L27 1L27 0L25 0L25 1L24 1L24 0L22 0L22 1L21 1L21 0L18 0L18 1L15 1L15 0L13 0L13 1L14 1L14 2L13 2L13 3L15 3L15 5L14 5L14 7L13 7L13 4L12 4L12 7L11 7L11 4L10 4L10 3L11 3L11 2L10 2L10 0ZM30 0L30 2L31 2L31 3L30 3L30 4L31 4L31 5L33 5L33 4L31 4L31 3L32 3L32 2L33 2L33 0ZM18 1L18 2L16 2L16 5L17 5L17 7L18 7L18 8L19 8L19 9L18 9L18 10L15 10L15 11L18 11L18 10L19 10L19 12L21 12L21 14L19 14L19 13L18 13L18 12L17 12L17 13L18 13L18 14L19 14L19 15L18 15L18 16L17 16L17 15L16 15L16 16L15 16L15 15L14 15L14 14L11 14L11 15L12 15L12 16L13 16L13 15L14 15L14 17L17 17L17 18L16 18L16 19L17 19L17 18L18 18L18 20L19 20L19 18L20 18L20 19L22 19L22 20L23 20L23 18L21 18L21 17L20 17L20 16L21 16L21 15L22 15L22 13L23 13L23 12L24 12L24 11L22 11L22 10L24 10L24 9L22 9L22 8L23 8L23 7L24 7L24 6L23 6L23 5L24 5L24 4L22 4L22 3L23 3L23 2L24 2L24 1L23 1L23 2L22 2L22 3L21 3L21 1ZM31 1L31 2L32 2L32 1ZM9 2L9 3L10 3L10 2ZM18 2L18 3L17 3L17 4L18 4L18 3L19 3L19 4L20 4L20 5L21 5L21 6L20 6L20 7L21 7L21 6L22 6L22 7L23 7L23 6L22 6L22 5L21 5L21 3L20 3L20 2ZM26 2L26 3L27 3L27 2ZM18 5L18 7L19 7L19 5ZM27 6L27 7L28 7L28 6ZM20 8L20 9L19 9L19 10L20 10L20 11L21 11L21 12L22 12L22 11L21 11L21 10L22 10L22 9L21 9L21 8ZM30 8L30 9L32 9L32 10L31 10L31 11L33 11L33 9L32 9L32 8ZM2 9L2 10L1 10L1 11L2 11L2 14L4 14L4 15L5 15L5 14L4 14L4 13L5 13L5 12L4 12L4 13L3 13L3 11L5 11L5 9L4 9L4 10L3 10L3 9ZM6 9L6 10L7 10L7 9ZM20 9L20 10L21 10L21 9ZM8 10L8 11L6 11L6 12L7 12L7 13L6 13L6 14L10 14L10 13L11 13L11 12L12 12L12 13L15 13L15 14L16 14L16 12L14 12L14 11L12 11L12 10L11 10L11 11L10 11L10 13L8 13L8 11L9 11L9 10ZM31 12L31 14L30 14L30 13L28 13L28 14L29 14L29 15L28 15L28 17L27 17L27 18L25 18L25 19L24 19L24 20L26 20L26 21L25 21L25 22L24 22L24 21L23 21L23 22L22 22L22 21L17 21L17 20L16 20L16 21L15 21L15 22L14 22L14 24L13 24L13 23L11 23L11 22L12 22L12 21L10 21L10 23L9 23L9 24L8 24L8 25L6 25L6 24L7 24L7 23L8 23L8 22L9 22L9 21L8 21L8 20L9 20L9 19L8 19L8 18L9 18L9 16L10 16L10 15L9 15L9 16L8 16L8 15L6 15L6 16L5 16L5 17L4 17L4 18L3 18L3 17L2 17L2 20L3 20L3 19L4 19L4 21L5 21L5 19L4 19L4 18L7 18L7 19L6 19L6 20L7 20L7 21L6 21L6 22L7 22L7 23L6 23L6 24L5 24L5 26L7 26L7 27L6 27L6 28L7 28L7 29L9 29L9 28L8 28L8 25L9 25L9 24L10 24L10 26L9 26L9 27L10 27L10 26L12 26L12 27L11 27L11 28L10 28L10 29L11 29L11 32L10 32L10 33L11 33L11 34L10 34L10 35L11 35L11 34L12 34L12 30L13 30L13 31L14 31L14 32L13 32L13 33L15 33L15 34L14 34L14 35L13 35L13 36L16 36L16 34L18 34L18 35L20 35L20 34L21 34L21 36L22 36L22 35L23 35L23 33L24 33L24 34L26 34L26 35L27 35L27 34L28 34L28 33L29 33L29 32L31 32L31 33L32 33L32 32L36 32L36 31L34 31L34 30L35 30L35 29L34 29L34 28L33 28L33 27L34 27L34 25L35 25L35 26L36 26L36 25L35 25L35 24L34 24L34 25L33 25L33 24L31 24L31 25L30 25L30 26L29 26L29 25L24 25L24 23L25 23L25 22L26 22L26 24L27 24L27 22L28 22L28 23L29 23L29 24L30 24L30 23L33 23L33 22L34 22L34 21L36 21L36 20L35 20L35 19L34 19L34 18L33 18L33 17L32 17L32 18L31 18L31 17L30 17L30 19L31 19L31 20L28 20L28 19L29 19L29 16L30 16L30 15L31 15L31 14L32 14L32 15L33 15L33 14L32 14L32 13L33 13L33 12ZM39 12L39 14L41 14L41 12ZM6 16L6 17L8 17L8 16ZM40 16L40 18L38 18L38 19L40 19L40 18L41 18L41 16ZM12 17L12 18L11 18L11 19L10 19L10 20L12 20L12 19L13 19L13 21L14 21L14 19L15 19L15 18L14 18L14 19L13 19L13 17ZM27 18L27 19L28 19L28 18ZM7 19L7 20L8 20L8 19ZM32 19L32 21L30 21L30 22L29 22L29 21L28 21L28 20L27 20L27 21L28 21L28 22L29 22L29 23L30 23L30 22L32 22L32 21L34 21L34 20L33 20L33 19ZM40 20L40 21L41 21L41 20ZM7 21L7 22L8 22L8 21ZM16 21L16 22L15 22L15 24L16 24L16 25L14 25L14 26L13 26L13 27L12 27L12 28L14 28L14 29L13 29L13 30L15 30L15 31L16 31L16 32L15 32L15 33L16 33L16 32L17 32L17 33L18 33L18 31L17 31L17 30L18 30L18 29L19 29L19 30L22 30L22 32L19 32L19 33L21 33L21 34L22 34L22 33L23 33L23 30L22 30L22 28L26 28L26 31L25 31L25 29L24 29L24 33L25 33L25 32L26 32L26 31L27 31L27 30L29 30L29 31L28 31L28 32L29 32L29 31L31 31L31 29L33 29L33 30L32 30L32 31L33 31L33 30L34 30L34 29L33 29L33 28L31 28L31 29L30 29L30 28L29 28L29 29L28 29L28 27L29 27L29 26L27 26L27 27L23 27L23 26L24 26L24 25L23 25L23 23L24 23L24 22L23 22L23 23L22 23L22 22L21 22L21 23L20 23L20 24L18 24L18 26L17 26L17 24L16 24L16 23L18 23L18 22L17 22L17 21ZM10 23L10 24L11 24L11 23ZM21 23L21 24L20 24L20 26L18 26L18 27L17 27L17 26L15 26L15 27L14 27L14 28L16 28L16 29L17 29L17 28L20 28L20 26L21 26L21 25L22 25L22 26L23 26L23 25L22 25L22 23ZM31 25L31 26L32 26L32 27L33 27L33 25ZM16 27L16 28L17 28L17 27ZM21 27L21 28L22 28L22 27ZM29 29L29 30L30 30L30 29ZM2 32L2 33L4 33L4 32ZM37 32L37 33L38 33L38 34L39 34L39 33L38 33L38 32ZM26 33L26 34L27 34L27 33ZM33 33L33 36L36 36L36 33ZM34 34L34 35L35 35L35 34ZM30 36L30 37L31 37L31 36ZM17 37L17 39L16 39L16 40L17 40L17 41L19 41L19 40L21 40L21 39L20 39L20 37L19 37L19 38L18 38L18 37ZM34 37L34 38L36 38L36 37ZM11 38L11 39L12 39L12 38ZM30 38L30 39L31 39L31 38ZM17 39L17 40L19 40L19 39ZM23 39L23 41L24 41L24 39ZM32 39L32 40L31 40L31 41L32 41L32 40L33 40L33 41L34 41L34 40L33 40L33 39ZM29 40L29 41L30 41L30 40ZM0 0L0 7L7 7L7 0ZM1 1L1 6L6 6L6 1ZM2 2L2 5L5 5L5 2ZM34 0L34 7L41 7L41 0ZM35 1L35 6L40 6L40 1ZM36 2L36 5L39 5L39 2ZM0 34L0 41L7 41L7 34ZM1 35L1 40L6 40L6 35ZM2 36L2 39L5 39L5 36Z" fill="#000000"/></g></g></svg>
