<?xml version="1.0" encoding="UTF-8"?>
<svg xmlns="http://www.w3.org/2000/svg" version="1.1" width="200" height="200" viewBox="0 0 200 200"><rect x="0" y="0" width="200" height="200" fill="#ffffff"/><g transform="scale(4.878)"><g transform="translate(0,0)"><path fill-rule="evenodd" d="M8 0L8 3L9 3L9 4L10 4L10 5L11 5L11 6L10 6L10 8L9 8L9 5L8 5L8 9L7 9L7 8L6 8L6 9L5 9L5 8L2 8L2 10L1 10L1 9L0 9L0 14L1 14L1 15L2 15L2 14L1 14L1 13L3 13L3 16L2 16L2 18L3 18L3 17L5 17L5 18L4 18L4 19L3 19L3 20L2 20L2 19L1 19L1 18L0 18L0 20L2 20L2 21L1 21L1 25L0 25L0 28L1 28L1 26L2 26L2 27L3 27L3 28L2 28L2 29L0 29L0 33L1 33L1 30L2 30L2 31L4 31L4 30L3 30L3 28L4 28L4 29L8 29L8 31L7 31L7 30L6 30L6 31L5 31L5 33L8 33L8 34L9 34L9 35L10 35L10 34L12 34L12 33L10 33L10 31L12 31L12 30L13 30L13 31L14 31L14 32L13 32L13 34L15 34L15 35L14 35L14 36L15 36L15 38L17 38L17 37L20 37L20 38L19 38L19 40L18 40L18 39L16 39L16 41L19 41L19 40L20 40L20 38L22 38L22 33L23 33L23 34L24 34L24 33L25 33L25 34L26 34L26 35L24 35L24 36L23 36L23 37L26 37L26 38L24 38L24 39L22 39L22 40L21 40L21 41L22 41L22 40L24 40L24 41L27 41L27 40L28 40L28 41L32 41L32 40L33 40L33 41L34 41L34 40L33 40L33 39L32 39L32 40L28 40L28 39L31 39L31 38L34 38L34 39L35 39L35 40L36 40L36 39L37 39L37 40L40 40L40 38L41 38L41 37L40 37L40 36L37 36L37 34L38 34L38 33L39 33L39 35L40 35L40 34L41 34L41 33L40 33L40 32L41 32L41 31L40 31L40 30L41 30L41 29L40 29L40 28L41 28L41 27L40 27L40 26L41 26L41 23L39 23L39 22L38 22L38 21L39 21L39 20L36 20L36 19L35 19L35 17L36 17L36 18L38 18L38 17L39 17L39 18L41 18L41 16L40 16L40 17L39 17L39 16L38 16L38 15L40 15L40 14L41 14L41 13L40 13L40 14L38 14L38 15L37 15L37 13L36 13L36 14L35 14L35 15L37 15L37 16L38 16L38 17L36 17L36 16L35 16L35 17L34 17L34 16L32 16L32 17L30 17L30 16L29 16L29 15L31 15L31 12L29 12L29 13L28 13L28 12L26 12L26 11L25 11L25 10L24 10L24 8L25 8L25 9L26 9L26 10L27 10L27 11L29 11L29 9L30 9L30 11L31 11L31 10L32 10L32 9L33 9L33 10L34 10L34 11L32 11L32 13L33 13L33 14L32 14L32 15L34 15L34 13L35 13L35 12L38 12L38 11L40 11L40 10L41 10L41 8L38 8L38 9L40 9L40 10L37 10L37 9L36 9L36 8L32 8L32 7L33 7L33 6L32 6L32 7L31 7L31 6L30 6L30 7L31 7L31 8L32 8L32 9L30 9L30 8L29 8L29 6L28 6L28 5L27 5L27 4L26 4L26 5L25 5L25 4L24 4L24 3L25 3L25 2L24 2L24 1L25 1L25 0L24 0L24 1L23 1L23 0L21 0L21 2L22 2L22 1L23 1L23 6L22 6L22 3L21 3L21 4L20 4L20 1L19 1L19 0L18 0L18 1L17 1L17 2L19 2L19 3L18 3L18 4L17 4L17 5L16 5L16 7L17 7L17 6L18 6L18 7L19 7L19 6L20 6L20 7L21 7L21 6L22 6L22 7L23 7L23 6L24 6L24 8L23 8L23 9L22 9L22 8L21 8L21 9L20 9L20 8L19 8L19 10L21 10L21 9L22 9L22 10L23 10L23 11L25 11L25 12L22 12L22 13L24 13L24 14L29 14L29 15L28 15L28 16L29 16L29 17L30 17L30 19L31 19L31 18L32 18L32 17L33 17L33 18L34 18L34 19L35 19L35 21L34 21L34 20L33 20L33 21L32 21L32 20L30 20L30 21L31 21L31 22L30 22L30 23L31 23L31 24L29 24L29 25L28 25L28 26L26 26L26 25L27 25L27 24L28 24L28 22L27 22L27 21L29 21L29 18L27 18L27 15L22 15L22 14L21 14L21 13L19 13L19 12L21 12L21 11L19 11L19 12L18 12L18 13L17 13L17 12L16 12L16 10L17 10L17 9L16 9L16 8L15 8L15 6L14 6L14 5L15 5L15 4L14 4L14 2L15 2L15 3L16 3L16 1L15 1L15 0L12 0L12 2L11 2L11 1L10 1L10 2L9 2L9 0ZM26 0L26 1L27 1L27 2L26 2L26 3L28 3L28 4L29 4L29 3L31 3L31 2L30 2L30 1L32 1L32 4L30 4L30 5L32 5L32 4L33 4L33 0L29 0L29 1L27 1L27 0ZM13 1L13 2L14 2L14 1ZM10 2L10 3L11 3L11 4L12 4L12 6L11 6L11 7L12 7L12 8L13 8L13 7L14 7L14 6L13 6L13 4L12 4L12 3L11 3L11 2ZM18 5L18 6L19 6L19 5ZM20 5L20 6L21 6L21 5ZM12 6L12 7L13 7L13 6ZM25 6L25 7L26 7L26 9L27 9L27 10L28 10L28 9L29 9L29 8L28 8L28 6L27 6L27 7L26 7L26 6ZM10 8L10 10L9 10L9 9L8 9L8 10L7 10L7 9L6 9L6 10L7 10L7 11L6 11L6 12L7 12L7 13L4 13L4 12L5 12L5 9L3 9L3 10L2 10L2 11L3 11L3 13L4 13L4 14L5 14L5 16L7 16L7 17L6 17L6 18L5 18L5 19L6 19L6 20L5 20L5 22L4 22L4 20L3 20L3 21L2 21L2 22L3 22L3 23L5 23L5 24L4 24L4 25L2 25L2 26L4 26L4 25L5 25L5 24L8 24L8 28L9 28L9 29L10 29L10 27L11 27L11 29L14 29L14 31L15 31L15 28L12 28L12 27L11 27L11 26L12 26L12 25L13 25L13 27L15 27L15 26L16 26L16 28L17 28L17 29L16 29L16 32L14 32L14 33L15 33L15 34L17 34L17 35L15 35L15 36L16 36L16 37L17 37L17 36L20 36L20 35L18 35L18 32L17 32L17 29L18 29L18 31L19 31L19 33L20 33L20 34L21 34L21 33L22 33L22 32L21 32L21 31L22 31L22 30L21 30L21 31L19 31L19 30L20 30L20 28L19 28L19 29L18 29L18 28L17 28L17 26L19 26L19 25L21 25L21 26L22 26L22 28L21 28L21 29L22 29L22 28L23 28L23 30L24 30L24 29L25 29L25 31L24 31L24 32L23 32L23 33L24 33L24 32L26 32L26 29L25 29L25 27L26 27L26 28L27 28L27 27L26 27L26 26L25 26L25 25L26 25L26 22L25 22L25 21L24 21L24 22L22 22L22 24L20 24L20 23L19 23L19 21L20 21L20 22L21 22L21 21L23 21L23 19L22 19L22 16L21 16L21 15L20 15L20 14L19 14L19 15L20 15L20 16L21 16L21 17L20 17L20 18L21 18L21 20L19 20L19 19L18 19L18 17L17 17L17 16L18 16L18 14L17 14L17 13L16 13L16 14L17 14L17 15L15 15L15 14L14 14L14 13L15 13L15 12L13 12L13 10L12 10L12 9L11 9L11 8ZM27 8L27 9L28 9L28 8ZM14 9L14 11L15 11L15 9ZM10 10L10 11L9 11L9 12L8 12L8 13L7 13L7 14L6 14L6 15L7 15L7 16L8 16L8 17L7 17L7 18L6 18L6 19L7 19L7 18L8 18L8 20L6 20L6 21L8 21L8 20L10 20L10 21L9 21L9 22L8 22L8 24L10 24L10 26L9 26L9 27L10 27L10 26L11 26L11 24L12 24L12 23L13 23L13 25L14 25L14 26L15 26L15 23L13 23L13 20L14 20L14 21L15 21L15 20L17 20L17 21L18 21L18 20L17 20L17 18L16 18L16 16L15 16L15 20L14 20L14 19L13 19L13 20L12 20L12 19L9 19L9 18L8 18L8 17L10 17L10 18L11 18L11 17L13 17L13 18L14 18L14 14L13 14L13 13L12 13L12 10ZM35 10L35 11L36 11L36 10ZM10 11L10 12L11 12L11 11ZM25 12L25 13L26 13L26 12ZM33 12L33 13L34 13L34 12ZM8 13L8 14L7 14L7 15L8 15L8 14L9 14L9 13ZM10 13L10 15L11 15L11 16L10 16L10 17L11 17L11 16L13 16L13 14L12 14L12 13ZM29 13L29 14L30 14L30 13ZM11 14L11 15L12 15L12 14ZM0 16L0 17L1 17L1 16ZM24 16L24 18L25 18L25 19L26 19L26 21L27 21L27 18L25 18L25 17L26 17L26 16ZM11 20L11 21L12 21L12 20ZM40 20L40 21L41 21L41 20ZM33 21L33 22L31 22L31 23L32 23L32 24L31 24L31 25L30 25L30 26L28 26L28 28L32 28L32 29L28 29L28 30L29 30L29 31L28 31L28 32L30 32L30 33L31 33L31 32L30 32L30 31L31 31L31 30L32 30L32 31L33 31L33 32L35 32L35 31L34 31L34 30L36 30L36 29L37 29L37 30L39 30L39 28L40 28L40 27L39 27L39 26L40 26L40 24L39 24L39 23L37 23L37 24L36 24L36 23L35 23L35 22L36 22L36 21L35 21L35 22L34 22L34 21ZM5 22L5 23L7 23L7 22ZM10 22L10 24L11 24L11 22ZM16 22L16 23L17 23L17 22ZM23 23L23 24L22 24L22 26L23 26L23 24L25 24L25 23ZM16 24L16 26L17 26L17 24ZM32 24L32 25L31 25L31 26L32 26L32 25L34 25L34 26L33 26L33 27L34 27L34 26L35 26L35 29L36 29L36 28L38 28L38 26L39 26L39 25L36 25L36 24L35 24L35 25L34 25L34 24ZM6 25L6 26L5 26L5 27L4 27L4 28L7 28L7 27L6 27L6 26L7 26L7 25ZM35 25L35 26L36 26L36 27L37 27L37 26L36 26L36 25ZM33 28L33 29L32 29L32 30L33 30L33 29L34 29L34 28ZM9 30L9 31L10 31L10 30ZM6 31L6 32L7 32L7 31ZM37 31L37 32L40 32L40 31ZM9 33L9 34L10 34L10 33ZM26 33L26 34L29 34L29 33ZM33 33L33 36L36 36L36 33ZM30 34L30 35L31 35L31 36L29 36L29 35L28 35L28 36L29 36L29 37L27 37L27 38L26 38L26 39L24 39L24 40L27 40L27 38L30 38L30 37L32 37L32 35L31 35L31 34ZM34 34L34 35L35 35L35 34ZM11 35L11 36L8 36L8 39L9 39L9 40L10 40L10 41L12 41L12 40L10 40L10 39L11 39L11 38L12 38L12 39L13 39L13 40L14 40L14 41L15 41L15 39L13 39L13 38L14 38L14 37L11 37L11 36L12 36L12 35ZM26 35L26 36L27 36L27 35ZM9 37L9 39L10 39L10 38L11 38L11 37ZM34 37L34 38L36 38L36 37ZM37 38L37 39L38 39L38 38ZM0 0L0 7L7 7L7 0ZM1 1L1 6L6 6L6 1ZM2 2L2 5L5 5L5 2ZM34 0L34 7L41 7L41 0ZM35 1L35 6L40 6L40 1ZM36 2L36 5L39 5L39 2ZM0 34L0 41L7 41L7 34ZM1 35L1 40L6 40L6 35ZM2 36L2 39L5 39L5 36Z" fill="#000000"/></g></g></svg>
