<?xml version="1.0" encoding="UTF-8"?>
<svg xmlns="http://www.w3.org/2000/svg" version="1.1" width="200" height="200" viewBox="0 0 200 200"><rect x="0" y="0" width="200" height="200" fill="#ffffff"/><g transform="scale(6.897)"><g transform="translate(0,0)"><path fill-rule="evenodd" d="M8 0L8 1L10 1L10 0ZM11 0L11 2L8 2L8 3L9 3L9 4L8 4L8 5L9 5L9 6L8 6L8 8L9 8L9 9L7 9L7 8L5 8L5 9L4 9L4 10L5 10L5 11L4 11L4 12L3 12L3 10L2 10L2 11L0 11L0 13L1 13L1 14L0 14L0 21L1 21L1 19L2 19L2 18L4 18L4 20L2 20L2 21L4 21L4 20L5 20L5 21L8 21L8 22L9 22L9 23L8 23L8 24L9 24L9 23L11 23L11 24L10 24L10 27L11 27L11 28L9 28L9 29L12 29L12 25L13 25L13 24L12 24L12 23L15 23L15 19L16 19L16 18L14 18L14 17L12 17L12 15L10 15L10 14L11 14L11 13L12 13L12 14L13 14L13 13L14 13L14 15L13 15L13 16L14 16L14 15L15 15L15 16L16 16L16 17L17 17L17 16L18 16L18 17L19 17L19 14L18 14L18 13L19 13L19 12L20 12L20 13L21 13L21 12L22 12L22 14L21 14L21 15L20 15L20 17L21 17L21 19L22 19L22 20L20 20L20 24L16 24L16 25L15 25L15 24L14 24L14 25L15 25L15 26L16 26L16 25L18 25L18 26L17 26L17 27L16 27L16 28L15 28L15 27L14 27L14 26L13 26L13 29L16 29L16 28L17 28L17 29L25 29L25 28L27 28L27 29L28 29L28 28L27 28L27 27L28 27L28 26L27 26L27 25L28 25L28 24L26 24L26 26L25 26L25 22L26 22L26 23L27 23L27 21L25 21L25 18L28 18L28 19L29 19L29 18L28 18L28 16L29 16L29 15L28 15L28 14L26 14L26 13L29 13L29 12L27 12L27 11L28 11L28 10L27 10L27 8L26 8L26 10L25 10L25 12L24 12L24 11L20 11L20 10L19 10L19 9L20 9L20 8L21 8L21 5L20 5L20 4L19 4L19 3L18 3L18 4L17 4L17 2L16 2L16 1L15 1L15 0ZM17 0L17 1L18 1L18 2L19 2L19 1L20 1L20 2L21 2L21 0L19 0L19 1L18 1L18 0ZM12 1L12 5L13 5L13 8L12 8L12 10L14 10L14 9L19 9L19 8L17 8L17 7L18 7L18 6L19 6L19 7L20 7L20 6L19 6L19 5L18 5L18 6L17 6L17 7L16 7L16 6L15 6L15 5L13 5L13 4L15 4L15 3L16 3L16 2L15 2L15 1ZM13 2L13 3L15 3L15 2ZM10 3L10 6L9 6L9 8L10 8L10 9L9 9L9 10L8 10L8 11L5 11L5 12L4 12L4 13L3 13L3 12L1 12L1 13L2 13L2 14L3 14L3 15L1 15L1 16L4 16L4 18L5 18L5 20L8 20L8 21L10 21L10 22L11 22L11 19L10 19L10 17L11 17L11 18L12 18L12 17L11 17L11 16L10 16L10 17L9 17L9 16L8 16L8 17L9 17L9 20L8 20L8 18L7 18L7 17L5 17L5 16L4 16L4 15L5 15L5 14L8 14L8 13L5 13L5 12L8 12L8 11L10 11L10 12L9 12L9 14L10 14L10 13L11 13L11 11L10 11L10 9L11 9L11 7L12 7L12 6L11 6L11 3ZM10 6L10 7L11 7L11 6ZM14 6L14 7L15 7L15 6ZM13 8L13 9L14 9L14 8ZM22 8L22 10L24 10L24 9L25 9L25 8L24 8L24 9L23 9L23 8ZM28 8L28 9L29 9L29 8ZM0 9L0 10L1 10L1 9ZM5 9L5 10L7 10L7 9ZM15 10L15 11L12 11L12 12L16 12L16 13L15 13L15 15L16 15L16 16L17 16L17 15L18 15L18 14L17 14L17 13L18 13L18 12L19 12L19 10ZM16 11L16 12L17 12L17 11ZM23 12L23 14L22 14L22 15L23 15L23 16L22 16L22 18L24 18L24 12ZM4 13L4 14L5 14L5 13ZM16 14L16 15L17 15L17 14ZM6 15L6 16L7 16L7 15ZM25 15L25 16L26 16L26 15ZM27 15L27 16L28 16L28 15ZM1 17L1 18L2 18L2 17ZM6 18L6 19L7 19L7 18ZM13 18L13 20L12 20L12 22L14 22L14 21L13 21L13 20L14 20L14 18ZM18 18L18 19L17 19L17 20L16 20L16 22L17 22L17 23L18 23L18 22L19 22L19 20L18 20L18 19L20 19L20 18ZM23 19L23 20L24 20L24 19ZM28 20L28 22L29 22L29 20ZM17 21L17 22L18 22L18 21ZM21 21L21 24L24 24L24 21ZM22 22L22 23L23 23L23 22ZM11 24L11 25L12 25L12 24ZM21 25L21 26L20 26L20 27L19 27L19 28L20 28L20 27L21 27L21 26L23 26L23 27L22 27L22 28L23 28L23 27L25 27L25 26L24 26L24 25ZM0 0L0 7L7 7L7 0ZM1 1L1 6L6 6L6 1ZM2 2L2 5L5 5L5 2ZM22 0L22 7L29 7L29 0ZM23 1L23 6L28 6L28 1ZM24 2L24 5L27 5L27 2ZM0 22L0 29L7 29L7 22ZM1 23L1 28L6 28L6 23ZM2 24L2 27L5 27L5 24Z" fill="#000000"/></g></g></svg>
