<?xml version="1.0" encoding="UTF-8"?>
<svg xmlns="http://www.w3.org/2000/svg" version="1.1" width="200" height="200" viewBox="0 0 200 200"><rect x="0" y="0" width="200" height="200" fill="#ffffff"/><g transform="scale(4.878)"><g transform="translate(0,0)"><path fill-rule="evenodd" d="M8 0L8 3L9 3L9 1L11 1L11 2L10 2L10 3L11 3L11 4L9 4L9 5L8 5L8 10L6 10L6 11L10 11L10 13L12 13L12 11L10 11L10 10L11 10L11 9L10 9L10 8L9 8L9 6L10 6L10 7L11 7L11 6L12 6L12 8L13 8L13 6L14 6L14 8L15 8L15 9L13 9L13 10L15 10L15 12L16 12L16 13L14 13L14 11L13 11L13 16L6 16L6 17L7 17L7 18L4 18L4 17L5 17L5 15L8 15L8 14L9 14L9 15L12 15L12 14L9 14L9 12L8 12L8 13L7 13L7 12L5 12L5 8L2 8L2 9L0 9L0 10L2 10L2 11L1 11L1 14L0 14L0 15L1 15L1 18L0 18L0 20L2 20L2 21L4 21L4 22L5 22L5 23L3 23L3 22L2 22L2 23L1 23L1 22L0 22L0 25L1 25L1 26L0 26L0 28L1 28L1 27L4 27L4 28L2 28L2 30L3 30L3 32L4 32L4 33L8 33L8 34L10 34L10 35L9 35L9 36L8 36L8 39L9 39L9 38L11 38L11 39L12 39L12 40L11 40L11 41L13 41L13 39L15 39L15 40L16 40L16 38L18 38L18 36L16 36L16 34L17 34L17 35L18 35L18 34L19 34L19 36L20 36L20 37L21 37L21 38L19 38L19 39L18 39L18 40L19 40L19 41L20 41L20 39L21 39L21 41L22 41L22 39L23 39L23 41L24 41L24 39L26 39L26 40L25 40L25 41L31 41L31 40L33 40L33 41L34 41L34 40L33 40L33 39L32 39L32 37L33 37L33 38L34 38L34 39L35 39L35 40L36 40L36 39L37 39L37 40L40 40L40 38L41 38L41 36L38 36L38 35L40 35L40 34L41 34L41 33L39 33L39 32L37 32L37 29L36 29L36 28L38 28L38 26L39 26L39 30L38 30L38 31L40 31L40 32L41 32L41 31L40 31L40 30L41 30L41 29L40 29L40 26L41 26L41 23L39 23L39 22L38 22L38 21L39 21L39 20L36 20L36 19L35 19L35 17L36 17L36 18L37 18L37 19L38 19L38 17L39 17L39 18L41 18L41 16L40 16L40 17L39 17L39 16L38 16L38 15L40 15L40 14L41 14L41 12L39 12L39 13L40 13L40 14L38 14L38 15L37 15L37 13L36 13L36 14L35 14L35 17L34 17L34 16L33 16L33 17L31 17L31 15L30 15L30 14L31 14L31 10L32 10L32 13L33 13L33 14L32 14L32 15L34 15L34 13L35 13L35 11L37 11L37 12L38 12L38 11L40 11L40 10L41 10L41 8L38 8L38 9L40 9L40 10L37 10L37 9L36 9L36 8L33 8L33 5L32 5L32 4L33 4L33 3L32 3L32 2L30 2L30 0L29 0L29 1L27 1L27 0L26 0L26 1L27 1L27 2L26 2L26 3L28 3L28 4L29 4L29 3L32 3L32 4L30 4L30 7L31 7L31 5L32 5L32 9L30 9L30 8L29 8L29 6L28 6L28 5L27 5L27 4L24 4L24 3L23 3L23 1L24 1L24 2L25 2L25 0L22 0L22 1L21 1L21 3L20 3L20 2L18 2L18 1L17 1L17 0L14 0L14 1L13 1L13 0ZM31 0L31 1L32 1L32 0ZM12 1L12 2L11 2L11 3L12 3L12 2L13 2L13 4L12 4L12 6L13 6L13 5L14 5L14 6L15 6L15 8L16 8L16 6L17 6L17 7L18 7L18 6L19 6L19 7L20 7L20 6L21 6L21 8L18 8L18 9L20 9L20 11L19 11L19 10L18 10L18 11L17 11L17 10L16 10L16 9L15 9L15 10L16 10L16 12L19 12L19 13L20 13L20 14L21 14L21 16L20 16L20 15L19 15L19 16L20 16L20 17L19 17L19 18L20 18L20 20L19 20L19 19L18 19L18 18L17 18L17 17L18 17L18 15L17 15L17 17L16 17L16 21L14 21L14 20L11 20L11 19L4 19L4 18L3 18L3 17L4 17L4 13L5 13L5 12L4 12L4 13L3 13L3 11L2 11L2 14L1 14L1 15L2 15L2 14L3 14L3 16L2 16L2 18L3 18L3 19L2 19L2 20L4 20L4 21L5 21L5 22L7 22L7 23L5 23L5 24L3 24L3 23L2 23L2 24L1 24L1 25L3 25L3 26L4 26L4 27L5 27L5 28L4 28L4 29L3 29L3 30L7 30L7 31L6 31L6 32L9 32L9 33L10 33L10 34L11 34L11 35L12 35L12 36L11 36L11 38L13 38L13 37L12 37L12 36L13 36L13 33L12 33L12 31L13 31L13 32L14 32L14 33L15 33L15 32L16 32L16 31L18 31L18 32L19 32L19 34L20 34L20 35L22 35L22 36L21 36L21 37L23 37L23 36L24 36L24 37L26 37L26 35L24 35L24 34L23 34L23 33L22 33L22 32L24 32L24 33L25 33L25 34L26 34L26 32L27 32L27 29L28 29L28 30L30 30L30 31L28 31L28 33L27 33L27 34L28 34L28 36L27 36L27 38L26 38L26 39L27 39L27 38L30 38L30 39L28 39L28 40L31 40L31 38L30 38L30 37L32 37L32 36L29 36L29 34L28 34L28 33L29 33L29 32L30 32L30 31L31 31L31 30L32 30L32 31L33 31L33 32L36 32L36 31L34 31L34 30L36 30L36 29L35 29L35 28L36 28L36 27L37 27L37 26L36 26L36 25L39 25L39 26L40 26L40 24L39 24L39 23L37 23L37 24L36 24L36 23L33 23L33 22L34 22L34 21L35 21L35 22L36 22L36 21L35 21L35 19L34 19L34 18L31 18L31 17L29 17L29 16L30 16L30 15L29 15L29 14L30 14L30 13L29 13L29 12L30 12L30 10L29 10L29 9L27 9L27 10L28 10L28 11L27 11L27 12L26 12L26 9L25 9L25 10L24 10L24 8L23 8L23 7L24 7L24 6L25 6L25 7L26 7L26 8L28 8L28 6L27 6L27 5L24 5L24 4L23 4L23 3L22 3L22 4L21 4L21 5L20 5L20 3L19 3L19 4L17 4L17 3L18 3L18 2L15 2L15 3L14 3L14 2L13 2L13 1ZM15 3L15 4L16 4L16 3ZM17 5L17 6L18 6L18 5ZM22 5L22 7L23 7L23 6L24 6L24 5ZM26 6L26 7L27 7L27 6ZM6 8L6 9L7 9L7 8ZM21 8L21 9L22 9L22 8ZM2 9L2 10L4 10L4 9ZM32 9L32 10L33 10L33 11L34 11L34 9ZM35 9L35 10L36 10L36 9ZM21 10L21 11L20 11L20 12L22 12L22 11L24 11L24 12L23 12L23 13L21 13L21 14L22 14L22 15L23 15L23 13L24 13L24 12L25 12L25 13L26 13L26 14L29 14L29 13L28 13L28 12L27 12L27 13L26 13L26 12L25 12L25 11L24 11L24 10ZM33 12L33 13L34 13L34 12ZM6 13L6 14L7 14L7 13ZM17 13L17 14L18 14L18 13ZM14 14L14 15L15 15L15 16L14 16L14 17L13 17L13 18L12 18L12 19L14 19L14 18L15 18L15 16L16 16L16 14ZM24 14L24 15L25 15L25 16L27 16L27 15L25 15L25 14ZM28 15L28 16L29 16L29 15ZM23 16L23 17L21 17L21 19L22 19L22 20L21 20L21 21L18 21L18 20L17 20L17 21L16 21L16 22L14 22L14 21L12 21L12 22L11 22L11 21L9 21L9 20L8 20L8 22L11 22L11 23L8 23L8 25L7 25L7 24L6 24L6 25L7 25L7 26L6 26L6 27L7 27L7 28L5 28L5 29L7 29L7 30L8 30L8 31L9 31L9 30L8 30L8 29L9 29L9 27L8 27L8 26L9 26L9 24L12 24L12 23L13 23L13 24L14 24L14 25L12 25L12 26L11 26L11 27L12 27L12 28L11 28L11 29L10 29L10 31L11 31L11 30L12 30L12 29L14 29L14 30L15 30L15 31L16 31L16 30L20 30L20 29L21 29L21 32L22 32L22 31L24 31L24 32L26 32L26 30L25 30L25 29L26 29L26 28L28 28L28 29L30 29L30 30L31 30L31 29L30 29L30 28L28 28L28 26L30 26L30 25L31 25L31 26L32 26L32 27L31 27L31 28L33 28L33 29L32 29L32 30L33 30L33 29L34 29L34 28L33 28L33 27L34 27L34 26L35 26L35 27L36 27L36 26L35 26L35 25L36 25L36 24L35 24L35 25L33 25L33 23L32 23L32 25L31 25L31 22L32 22L32 21L34 21L34 20L32 20L32 19L31 19L31 18L30 18L30 19L31 19L31 20L30 20L30 21L31 21L31 22L29 22L29 21L28 21L28 20L29 20L29 19L28 19L28 18L26 18L26 19L24 19L24 20L26 20L26 19L28 19L28 20L27 20L27 21L25 21L25 22L27 22L27 23L26 23L26 24L24 24L24 23L23 23L23 22L21 22L21 21L22 21L22 20L23 20L23 17L24 17L24 18L25 18L25 17L24 17L24 16ZM36 16L36 17L38 17L38 16ZM9 17L9 18L10 18L10 17ZM5 20L5 21L7 21L7 20ZM31 20L31 21L32 21L32 20ZM40 20L40 21L41 21L41 20ZM17 21L17 22L16 22L16 24L15 24L15 25L16 25L16 27L14 27L14 26L12 26L12 27L13 27L13 28L15 28L15 30L16 30L16 29L17 29L17 28L16 28L16 27L17 27L17 25L16 25L16 24L17 24L17 23L19 23L19 24L18 24L18 25L19 25L19 24L21 24L21 26L22 26L22 27L19 27L19 28L18 28L18 29L19 29L19 28L21 28L21 29L22 29L22 30L23 30L23 28L22 28L22 27L23 27L23 26L22 26L22 25L23 25L23 23L22 23L22 24L21 24L21 23L20 23L20 22L18 22L18 21ZM27 21L27 22L28 22L28 21ZM13 22L13 23L14 23L14 22ZM28 23L28 25L27 25L27 24L26 24L26 25L25 25L25 26L26 26L26 27L24 27L24 29L25 29L25 28L26 28L26 27L27 27L27 26L28 26L28 25L29 25L29 24L30 24L30 23ZM32 25L32 26L33 26L33 25ZM7 28L7 29L8 29L8 28ZM0 29L0 33L1 33L1 29ZM24 30L24 31L25 31L25 30ZM4 31L4 32L5 32L5 31ZM19 31L19 32L20 32L20 31ZM11 33L11 34L12 34L12 33ZM20 33L20 34L22 34L22 35L23 35L23 34L22 34L22 33ZM30 33L30 35L31 35L31 34L32 34L32 33ZM33 33L33 36L36 36L36 33ZM37 33L37 35L38 35L38 34L39 34L39 33ZM34 34L34 35L35 35L35 34ZM14 35L14 36L15 36L15 37L14 37L14 38L15 38L15 37L16 37L16 36L15 36L15 35ZM28 36L28 37L29 37L29 36ZM37 36L37 37L38 37L38 36ZM34 37L34 38L36 38L36 37ZM37 38L37 39L38 39L38 38ZM9 40L9 41L10 41L10 40ZM0 0L0 7L7 7L7 0ZM1 1L1 6L6 6L6 1ZM2 2L2 5L5 5L5 2ZM34 0L34 7L41 7L41 0ZM35 1L35 6L40 6L40 1ZM36 2L36 5L39 5L39 2ZM0 34L0 41L7 41L7 34ZM1 35L1 40L6 40L6 35ZM2 36L2 39L5 39L5 36Z" fill="#000000"/></g></g></svg>
