<?xml version="1.0" encoding="UTF-8"?>
<svg xmlns="http://www.w3.org/2000/svg" version="1.1" width="200" height="200" viewBox="0 0 200 200"><rect x="0" y="0" width="200" height="200" fill="#ffffff"/><g transform="scale(6.897)"><g transform="translate(0,0)"><path fill-rule="evenodd" d="M9 0L9 3L10 3L10 4L8 4L8 5L9 5L9 6L8 6L8 8L6 8L6 9L8 9L8 10L6 10L6 11L8 11L8 10L9 10L9 12L10 12L10 13L9 13L9 14L8 14L8 13L7 13L7 12L6 12L6 13L5 13L5 10L4 10L4 8L2 8L2 9L0 9L0 11L1 11L1 13L0 13L0 14L1 14L1 15L0 15L0 16L1 16L1 17L3 17L3 18L2 18L2 19L3 19L3 18L5 18L5 19L4 19L4 20L3 20L3 21L4 21L4 20L5 20L5 21L8 21L8 23L10 23L10 24L9 24L9 25L8 25L8 27L10 27L10 28L9 28L9 29L10 29L10 28L12 28L12 25L13 25L13 24L12 24L12 22L13 22L13 23L14 23L14 22L15 22L15 23L19 23L19 24L17 24L17 25L15 25L15 26L13 26L13 28L14 28L14 29L17 29L17 28L18 28L18 27L17 27L17 25L20 25L20 27L21 27L21 25L23 25L23 26L24 26L24 27L22 27L22 29L23 29L23 28L25 28L25 26L26 26L26 27L27 27L27 28L26 28L26 29L27 29L27 28L29 28L29 26L28 26L28 27L27 27L27 25L26 25L26 23L25 23L25 22L26 22L26 18L29 18L29 17L26 17L26 16L25 16L25 15L24 15L24 16L23 16L23 17L21 17L21 18L20 18L20 17L19 17L19 18L20 18L20 20L19 20L19 19L17 19L17 20L16 20L16 19L15 19L15 18L16 18L16 17L15 17L15 15L16 15L16 13L15 13L15 12L16 12L16 11L17 11L17 9L16 9L16 11L14 11L14 10L15 10L15 8L17 8L17 6L18 6L18 7L19 7L19 8L18 8L18 11L20 11L20 12L19 12L19 13L20 13L20 14L19 14L19 15L18 15L18 14L17 14L17 15L18 15L18 16L17 16L17 17L18 17L18 16L19 16L19 15L20 15L20 14L21 14L21 13L20 13L20 12L22 12L22 9L23 9L23 13L22 13L22 15L23 15L23 14L24 14L24 13L25 13L25 14L26 14L26 15L27 15L27 16L28 16L28 15L27 15L27 14L29 14L29 13L28 13L28 12L29 12L29 11L28 11L28 12L27 12L27 10L29 10L29 9L27 9L27 10L26 10L26 9L25 9L25 8L24 8L24 9L23 9L23 8L21 8L21 3L20 3L20 2L18 2L18 1L17 1L17 2L16 2L16 1L15 1L15 0L14 0L14 1L12 1L12 2L11 2L11 1L10 1L10 0ZM12 2L12 4L14 4L14 3L15 3L15 4L16 4L16 5L19 5L19 7L20 7L20 5L19 5L19 4L20 4L20 3L19 3L19 4L18 4L18 2L17 2L17 4L16 4L16 2ZM10 4L10 5L11 5L11 4ZM12 5L12 6L11 6L11 9L12 9L12 6L13 6L13 7L14 7L14 6L13 6L13 5ZM9 6L9 9L10 9L10 6ZM15 6L15 7L16 7L16 6ZM19 8L19 10L20 10L20 9L21 9L21 8ZM2 9L2 10L1 10L1 11L2 11L2 12L3 12L3 15L2 15L2 16L3 16L3 17L4 17L4 16L3 16L3 15L5 15L5 16L7 16L7 17L5 17L5 18L8 18L8 16L10 16L10 17L9 17L9 19L6 19L6 20L8 20L8 21L11 21L11 22L12 22L12 21L16 21L16 22L17 22L17 21L18 21L18 22L20 22L20 21L19 21L19 20L17 20L17 21L16 21L16 20L14 20L14 19L13 19L13 18L14 18L14 17L13 17L13 16L10 16L10 15L11 15L11 14L13 14L13 13L14 13L14 15L15 15L15 13L14 13L14 12L13 12L13 10L12 10L12 12L13 12L13 13L10 13L10 14L9 14L9 15L8 15L8 14L7 14L7 13L6 13L6 14L7 14L7 15L5 15L5 14L4 14L4 11L3 11L3 9ZM24 9L24 10L25 10L25 9ZM10 10L10 11L11 11L11 10ZM25 11L25 13L27 13L27 12L26 12L26 11ZM1 13L1 14L2 14L2 13ZM7 15L7 16L8 16L8 15ZM24 16L24 17L23 17L23 18L22 18L22 19L21 19L21 20L22 20L22 19L24 19L24 18L26 18L26 17L25 17L25 16ZM10 17L10 18L11 18L11 20L13 20L13 19L12 19L12 18L13 18L13 17L12 17L12 18L11 18L11 17ZM0 18L0 19L1 19L1 18ZM9 19L9 20L10 20L10 19ZM1 20L1 21L2 21L2 20ZM27 20L27 21L28 21L28 22L27 22L27 24L29 24L29 23L28 23L28 22L29 22L29 21L28 21L28 20ZM21 21L21 24L24 24L24 21ZM22 22L22 23L23 23L23 22ZM11 24L11 25L9 25L9 26L10 26L10 27L11 27L11 25L12 25L12 24ZM24 25L24 26L25 26L25 25ZM15 27L15 28L17 28L17 27ZM19 28L19 29L20 29L20 28ZM0 0L0 7L7 7L7 0ZM1 1L1 6L6 6L6 1ZM2 2L2 5L5 5L5 2ZM22 0L22 7L29 7L29 0ZM23 1L23 6L28 6L28 1ZM24 2L24 5L27 5L27 2ZM0 22L0 29L7 29L7 22ZM1 23L1 28L6 28L6 23ZM2 24L2 27L5 27L5 24Z" fill="#000000"/></g></g></svg>
