<?xml version="1.0" encoding="UTF-8"?>
<svg xmlns="http://www.w3.org/2000/svg" version="1.1" width="200" height="200" viewBox="0 0 200 200"><rect x="0" y="0" width="200" height="200" fill="#ffffff"/><g transform="scale(6.897)"><g transform="translate(0,0)"><path fill-rule="evenodd" d="M8 0L8 3L10 3L10 4L9 4L9 5L8 5L8 9L7 9L7 8L6 8L6 9L7 9L7 10L5 10L5 8L2 8L2 9L1 9L1 10L2 10L2 11L0 11L0 12L1 12L1 14L0 14L0 15L1 15L1 16L0 16L0 21L1 21L1 16L2 16L2 15L1 15L1 14L2 14L2 13L3 13L3 12L4 12L4 13L5 13L5 12L6 12L6 13L7 13L7 12L6 12L6 11L7 11L7 10L8 10L8 9L9 9L9 11L8 11L8 13L9 13L9 15L7 15L7 14L6 14L6 15L7 15L7 16L6 16L6 17L4 17L4 18L3 18L3 17L2 17L2 18L3 18L3 19L2 19L2 20L3 20L3 21L8 21L8 22L9 22L9 24L8 24L8 27L9 27L9 28L10 28L10 29L11 29L11 28L13 28L13 29L15 29L15 28L14 28L14 27L16 27L16 26L15 26L15 22L14 22L14 23L13 23L13 21L16 21L16 22L17 22L17 23L16 23L16 25L17 25L17 23L19 23L19 22L18 22L18 21L17 21L17 18L19 18L19 17L18 17L18 16L19 16L19 15L18 15L18 14L17 14L17 15L16 15L16 14L15 14L15 13L16 13L16 12L17 12L17 13L20 13L20 12L21 12L21 11L20 11L20 10L22 10L22 9L23 9L23 10L24 10L24 8L21 8L21 9L20 9L20 7L21 7L21 5L20 5L20 4L21 4L21 3L20 3L20 4L19 4L19 3L18 3L18 4L17 4L17 3L15 3L15 2L14 2L14 5L16 5L16 4L17 4L17 6L16 6L16 8L14 8L14 7L15 7L15 6L14 6L14 7L13 7L13 6L12 6L12 8L14 8L14 9L13 9L13 11L12 11L12 10L11 10L11 8L9 8L9 6L10 6L10 7L11 7L11 5L12 5L12 4L13 4L13 3L12 3L12 2L11 2L11 0ZM13 0L13 1L14 1L14 0ZM15 0L15 1L16 1L16 2L17 2L17 0ZM9 1L9 2L10 2L10 1ZM18 1L18 2L19 2L19 1ZM20 1L20 2L21 2L21 1ZM10 4L10 5L11 5L11 4ZM18 5L18 6L17 6L17 7L18 7L18 6L19 6L19 7L20 7L20 6L19 6L19 5ZM16 8L16 10L17 10L17 9L19 9L19 10L20 10L20 9L19 9L19 8ZM26 8L26 9L25 9L25 12L24 12L24 11L22 11L22 12L23 12L23 13L21 13L21 15L22 15L22 14L23 14L23 13L24 13L24 19L25 19L25 20L23 20L23 19L22 19L22 18L20 18L20 19L21 19L21 20L20 20L20 25L19 25L19 24L18 24L18 25L19 25L19 27L18 27L18 26L17 26L17 27L18 27L18 29L25 29L25 27L23 27L23 26L22 26L22 25L24 25L24 26L25 26L25 25L26 25L26 24L25 24L25 22L26 22L26 23L27 23L27 22L28 22L28 23L29 23L29 20L28 20L28 19L27 19L27 17L28 17L28 10L29 10L29 8ZM14 9L14 12L15 12L15 9ZM3 10L3 11L4 11L4 12L5 12L5 11L4 11L4 10ZM10 10L10 11L9 11L9 12L11 12L11 13L10 13L10 14L11 14L11 13L12 13L12 16L11 16L11 15L10 15L10 16L9 16L9 17L8 17L8 16L7 16L7 17L6 17L6 18L4 18L4 19L3 19L3 20L4 20L4 19L6 19L6 20L8 20L8 21L9 21L9 22L10 22L10 23L11 23L11 24L12 24L12 25L13 25L13 26L12 26L12 27L13 27L13 26L14 26L14 25L13 25L13 23L12 23L12 22L10 22L10 21L13 21L13 20L16 20L16 19L15 19L15 18L16 18L16 17L13 17L13 15L15 15L15 16L16 16L16 15L15 15L15 14L13 14L13 12L12 12L12 11L11 11L11 10ZM26 10L26 11L27 11L27 10ZM18 11L18 12L19 12L19 11ZM25 12L25 13L26 13L26 14L27 14L27 12ZM4 14L4 15L5 15L5 14ZM25 15L25 16L27 16L27 15ZM20 16L20 17L22 17L22 16ZM7 17L7 18L6 18L6 19L8 19L8 20L12 20L12 19L13 19L13 17L11 17L11 18L9 18L9 19L8 19L8 17ZM18 19L18 20L19 20L19 19ZM26 19L26 20L25 20L25 21L26 21L26 22L27 22L27 21L28 21L28 20L27 20L27 19ZM21 21L21 24L24 24L24 21ZM22 22L22 23L23 23L23 22ZM9 24L9 25L10 25L10 26L9 26L9 27L10 27L10 28L11 28L11 27L10 27L10 26L11 26L11 25L10 25L10 24ZM28 24L28 25L27 25L27 29L28 29L28 28L29 28L29 27L28 27L28 25L29 25L29 24ZM20 26L20 27L19 27L19 28L22 28L22 27L21 27L21 26ZM0 0L0 7L7 7L7 0ZM1 1L1 6L6 6L6 1ZM2 2L2 5L5 5L5 2ZM22 0L22 7L29 7L29 0ZM23 1L23 6L28 6L28 1ZM24 2L24 5L27 5L27 2ZM0 22L0 29L7 29L7 22ZM1 23L1 28L6 28L6 23ZM2 24L2 27L5 27L5 24Z" fill="#000000"/></g></g></svg>
