<?xml version="1.0" encoding="UTF-8"?>
<svg xmlns="http://www.w3.org/2000/svg" version="1.1" width="200" height="200" viewBox="0 0 200 200"><rect x="0" y="0" width="200" height="200" fill="#ffffff"/><g transform="scale(4.878)"><g transform="translate(0,0)"><path fill-rule="evenodd" d="M8 0L8 3L9 3L9 0ZM10 0L10 7L9 7L9 5L8 5L8 9L10 9L10 10L9 10L9 12L8 12L8 11L7 11L7 10L6 10L6 9L7 9L7 8L6 8L6 9L5 9L5 8L2 8L2 9L1 9L1 10L0 10L0 14L1 14L1 16L0 16L0 18L1 18L1 16L3 16L3 15L4 15L4 14L6 14L6 15L7 15L7 14L6 14L6 13L7 13L7 12L8 12L8 16L6 16L6 17L5 17L5 16L4 16L4 18L3 18L3 17L2 17L2 19L1 19L1 20L0 20L0 24L1 24L1 22L2 22L2 21L4 21L4 20L5 20L5 18L6 18L6 19L8 19L8 17L9 17L9 18L10 18L10 19L9 19L9 20L10 20L10 19L12 19L12 20L11 20L11 21L10 21L10 23L11 23L11 21L12 21L12 20L13 20L13 21L14 21L14 20L15 20L15 19L16 19L16 17L13 17L13 16L12 16L12 17L11 17L11 18L10 18L10 16L11 16L11 15L10 15L10 14L9 14L9 12L10 12L10 13L11 13L11 14L12 14L12 15L13 15L13 14L12 14L12 13L13 13L13 12L11 12L11 9L13 9L13 10L12 10L12 11L14 11L14 14L17 14L17 15L15 15L15 16L17 16L17 15L19 15L19 14L17 14L17 11L18 11L18 9L20 9L20 10L21 10L21 11L20 11L20 12L19 12L19 13L21 13L21 15L20 15L20 16L18 16L18 17L17 17L17 18L18 18L18 19L17 19L17 21L19 21L19 20L20 20L20 19L21 19L21 20L23 20L23 17L24 17L24 18L25 18L25 19L26 19L26 20L25 20L25 21L26 21L26 20L27 20L27 21L29 21L29 20L28 20L28 19L29 19L29 18L27 18L27 19L26 19L26 18L25 18L25 17L27 17L27 16L25 16L25 14L24 14L24 12L25 12L25 11L24 11L24 12L23 12L23 13L21 13L21 12L22 12L22 10L24 10L24 9L20 9L20 8L21 8L21 6L22 6L22 7L23 7L23 6L24 6L24 8L25 8L25 10L26 10L26 8L25 8L25 5L26 5L26 7L27 7L27 8L28 8L28 7L29 7L29 6L30 6L30 8L29 8L29 9L28 9L28 10L27 10L27 11L26 11L26 15L27 15L27 14L29 14L29 13L30 13L30 14L31 14L31 12L29 12L29 13L28 13L28 12L27 12L27 11L28 11L28 10L29 10L29 9L31 9L31 10L33 10L33 9L34 9L34 11L32 11L32 13L33 13L33 14L32 14L32 15L34 15L34 13L35 13L35 11L37 11L37 12L38 12L38 11L39 11L39 12L40 12L40 10L41 10L41 8L38 8L38 9L40 9L40 10L37 10L37 9L36 9L36 8L33 8L33 6L32 6L32 7L31 7L31 5L32 5L32 4L33 4L33 2L30 2L30 0L29 0L29 1L27 1L27 0L26 0L26 1L27 1L27 2L26 2L26 3L32 3L32 4L30 4L30 5L29 5L29 4L28 4L28 5L27 5L27 4L24 4L24 3L23 3L23 2L25 2L25 0L24 0L24 1L23 1L23 2L22 2L22 5L21 5L21 2L20 2L20 0L17 0L17 1L16 1L16 0ZM21 0L21 1L22 1L22 0ZM31 0L31 1L32 1L32 0ZM12 1L12 2L11 2L11 3L12 3L12 5L11 5L11 8L12 8L12 6L13 6L13 7L14 7L14 10L16 10L16 11L15 11L15 12L16 12L16 11L17 11L17 10L16 10L16 9L17 9L17 8L20 8L20 5L19 5L19 7L18 7L18 5L17 5L17 4L18 4L18 2L17 2L17 4L16 4L16 3L15 3L15 4L14 4L14 5L15 5L15 7L14 7L14 6L13 6L13 3L12 3L12 2L13 2L13 1ZM14 1L14 2L16 2L16 1ZM19 2L19 3L20 3L20 2ZM15 4L15 5L16 5L16 4ZM23 4L23 5L24 5L24 4ZM28 5L28 6L27 6L27 7L28 7L28 6L29 6L29 5ZM16 6L16 7L15 7L15 9L16 9L16 8L17 8L17 6ZM31 8L31 9L33 9L33 8ZM2 9L2 10L4 10L4 11L2 11L2 12L1 12L1 14L3 14L3 12L4 12L4 11L6 11L6 12L7 12L7 11L6 11L6 10L4 10L4 9ZM35 9L35 10L36 10L36 9ZM33 12L33 13L34 13L34 12ZM36 13L36 14L35 14L35 15L36 15L36 16L35 16L35 17L34 17L34 16L33 16L33 17L30 17L30 16L29 16L29 15L28 15L28 16L29 16L29 17L30 17L30 19L31 19L31 18L32 18L32 19L33 19L33 18L34 18L34 19L35 19L35 21L34 21L34 20L33 20L33 21L32 21L32 20L30 20L30 21L31 21L31 22L29 22L29 23L30 23L30 24L29 24L29 25L28 25L28 24L26 24L26 23L28 23L28 22L24 22L24 21L22 21L22 22L24 22L24 23L22 23L22 24L21 24L21 22L20 22L20 24L19 24L19 25L20 25L20 26L18 26L18 27L17 27L17 26L14 26L14 25L13 25L13 26L11 26L11 25L9 25L9 22L8 22L8 20L6 20L6 21L7 21L7 22L4 22L4 23L2 23L2 24L3 24L3 25L4 25L4 26L5 26L5 23L7 23L7 22L8 22L8 25L9 25L9 26L10 26L10 27L13 27L13 28L14 28L14 27L15 27L15 29L16 29L16 30L14 30L14 29L12 29L12 30L11 30L11 29L8 29L8 27L7 27L7 26L6 26L6 27L4 27L4 28L3 28L3 30L2 30L2 29L0 29L0 33L1 33L1 30L2 30L2 31L3 31L3 32L4 32L4 33L7 33L7 32L6 32L6 31L8 31L8 32L9 32L9 31L10 31L10 33L8 33L8 34L9 34L9 36L8 36L8 39L9 39L9 41L12 41L12 40L11 40L11 39L10 39L10 38L11 38L11 35L12 35L12 37L13 37L13 38L14 38L14 39L15 39L15 40L14 40L14 41L15 41L15 40L16 40L16 39L15 39L15 38L14 38L14 37L15 37L15 36L16 36L16 38L17 38L17 41L19 41L19 40L18 40L18 39L20 39L20 38L22 38L22 39L21 39L21 41L22 41L22 40L24 40L24 41L25 41L25 40L28 40L28 41L31 41L31 40L33 40L33 41L34 41L34 40L33 40L33 39L31 39L31 38L34 38L34 39L35 39L35 40L36 40L36 39L37 39L37 40L40 40L40 38L41 38L41 37L40 37L40 36L41 36L41 35L40 35L40 34L41 34L41 33L40 33L40 32L41 32L41 31L40 31L40 30L41 30L41 29L40 29L40 28L39 28L39 30L37 30L37 29L36 29L36 28L38 28L38 26L39 26L39 27L40 27L40 26L41 26L41 23L39 23L39 24L40 24L40 26L39 26L39 25L36 25L36 24L37 24L37 23L38 23L38 22L39 22L39 20L38 20L38 19L40 19L40 18L41 18L41 16L40 16L40 18L38 18L38 19L37 19L37 20L36 20L36 19L35 19L35 17L36 17L36 18L37 18L37 17L39 17L39 16L37 16L37 15L36 15L36 14L37 14L37 13ZM38 13L38 14L41 14L41 13ZM9 15L9 16L10 16L10 15ZM23 15L23 16L21 16L21 18L22 18L22 17L23 17L23 16L24 16L24 17L25 17L25 16L24 16L24 15ZM36 16L36 17L37 17L37 16ZM6 17L6 18L7 18L7 17ZM19 17L19 18L20 18L20 17ZM12 18L12 19L13 19L13 20L14 20L14 18ZM2 19L2 20L1 20L1 21L2 21L2 20L3 20L3 19ZM37 20L37 22L38 22L38 20ZM40 20L40 21L41 21L41 20ZM15 21L15 22L12 22L12 24L15 24L15 25L16 25L16 24L18 24L18 23L19 23L19 22L18 22L18 23L17 23L17 22L16 22L16 21ZM33 21L33 22L31 22L31 23L33 23L33 24L30 24L30 25L35 25L35 26L34 26L34 27L33 27L33 26L28 26L28 25L27 25L27 26L28 26L28 27L26 27L26 26L25 26L25 25L26 25L26 24L25 24L25 23L24 23L24 25L23 25L23 26L22 26L22 27L21 27L21 26L20 26L20 27L21 27L21 28L22 28L22 27L23 27L23 29L21 29L21 30L19 30L19 31L18 31L18 28L19 28L19 29L20 29L20 28L19 28L19 27L18 27L18 28L17 28L17 30L16 30L16 31L17 31L17 32L16 32L16 33L14 33L14 32L15 32L15 31L14 31L14 30L12 30L12 31L11 31L11 32L13 32L13 34L12 34L12 33L10 33L10 35L11 35L11 34L12 34L12 35L13 35L13 34L15 34L15 35L14 35L14 36L15 36L15 35L17 35L17 36L18 36L18 38L20 38L20 36L18 36L18 35L20 35L20 34L19 34L19 33L20 33L20 32L19 32L19 31L22 31L22 32L23 32L23 33L24 33L24 32L26 32L26 31L25 31L25 30L26 30L26 28L28 28L28 27L29 27L29 28L31 28L31 29L28 29L28 30L30 30L30 31L28 31L28 33L27 33L27 34L28 34L28 33L29 33L29 32L30 32L30 31L31 31L31 30L32 30L32 31L33 31L33 32L35 32L35 31L34 31L34 30L36 30L36 31L37 31L37 32L39 32L39 31L37 31L37 30L36 30L36 29L35 29L35 26L36 26L36 27L37 27L37 26L36 26L36 25L35 25L35 24L36 24L36 23L35 23L35 22L36 22L36 21L35 21L35 22L34 22L34 21ZM15 22L15 24L16 24L16 22ZM33 22L33 23L34 23L34 22ZM6 24L6 25L7 25L7 24ZM20 24L20 25L21 25L21 24ZM0 25L0 28L2 28L2 26L1 26L1 25ZM13 26L13 27L14 27L14 26ZM6 27L6 28L7 28L7 27ZM25 27L25 28L26 28L26 27ZM31 27L31 28L33 28L33 29L32 29L32 30L33 30L33 29L34 29L34 28L33 28L33 27ZM4 29L4 32L5 32L5 29ZM6 29L6 30L8 30L8 29ZM24 29L24 30L23 30L23 31L24 31L24 30L25 30L25 29ZM13 31L13 32L14 32L14 31ZM17 32L17 33L18 33L18 32ZM21 33L21 34L22 34L22 35L21 35L21 37L22 37L22 38L24 38L24 40L25 40L25 38L24 38L24 37L26 37L26 34L25 34L25 36L24 36L24 37L22 37L22 36L23 36L23 34L22 34L22 33ZM30 33L30 35L31 35L31 36L29 36L29 35L27 35L27 36L28 36L28 37L27 37L27 38L26 38L26 39L27 39L27 38L28 38L28 37L29 37L29 38L30 38L30 37L32 37L32 35L31 35L31 33ZM33 33L33 36L36 36L36 33ZM37 33L37 36L40 36L40 35L38 35L38 34L39 34L39 33ZM17 34L17 35L18 35L18 34ZM34 34L34 35L35 35L35 34ZM9 36L9 38L10 38L10 36ZM34 37L34 38L36 38L36 37ZM37 38L37 39L38 39L38 38ZM28 39L28 40L31 40L31 39ZM0 0L0 7L7 7L7 0ZM1 1L1 6L6 6L6 1ZM2 2L2 5L5 5L5 2ZM34 0L34 7L41 7L41 0ZM35 1L35 6L40 6L40 1ZM36 2L36 5L39 5L39 2ZM0 34L0 41L7 41L7 34ZM1 35L1 40L6 40L6 35ZM2 36L2 39L5 39L5 36Z" fill="#000000"/></g></g></svg>
