<?xml version="1.0" encoding="UTF-8"?>
<svg xmlns="http://www.w3.org/2000/svg" version="1.1" width="200" height="200" viewBox="0 0 200 200"><rect x="0" y="0" width="200" height="200" fill="#ffffff"/><g transform="scale(4.878)"><g transform="translate(0,0)"><path fill-rule="evenodd" d="M8 0L8 3L10 3L10 4L11 4L11 3L12 3L12 4L14 4L14 3L15 3L15 4L16 4L16 3L15 3L15 1L14 1L14 0L13 0L13 1L12 1L12 2L11 2L11 1L9 1L9 0ZM17 0L17 2L18 2L18 0ZM19 0L19 3L18 3L18 4L17 4L17 5L14 5L14 7L15 7L15 6L16 6L16 7L17 7L17 8L16 8L16 9L15 9L15 10L14 10L14 9L12 9L12 10L9 10L9 8L10 8L10 9L11 9L11 8L13 8L13 5L10 5L10 7L9 7L9 5L8 5L8 12L6 12L6 13L5 13L5 11L7 11L7 10L5 10L5 11L4 11L4 10L3 10L3 9L5 9L5 8L2 8L2 11L4 11L4 13L0 13L0 14L1 14L1 15L0 15L0 16L1 16L1 17L0 17L0 18L4 18L4 20L3 20L3 19L1 19L1 20L0 20L0 23L1 23L1 20L2 20L2 23L3 23L3 21L5 21L5 22L6 22L6 23L9 23L9 22L10 22L10 24L11 24L11 25L9 25L9 24L6 24L6 25L5 25L5 23L4 23L4 25L5 25L5 27L7 27L7 28L6 28L6 29L10 29L10 30L9 30L9 31L11 31L11 30L13 30L13 28L15 28L15 29L16 29L16 30L14 30L14 31L15 31L15 32L14 32L14 33L15 33L15 32L16 32L16 33L17 33L17 32L16 32L16 31L18 31L18 30L17 30L17 28L15 28L15 26L16 26L16 27L17 27L17 24L19 24L19 22L17 22L17 24L15 24L15 22L16 22L16 21L17 21L17 20L18 20L18 19L19 19L19 18L18 18L18 16L20 16L20 17L21 17L21 16L23 16L23 17L22 17L22 18L21 18L21 20L20 20L20 25L21 25L21 26L20 26L20 28L21 28L21 26L22 26L22 27L23 27L23 30L19 30L19 31L20 31L20 33L19 33L19 32L18 32L18 33L19 33L19 34L18 34L18 36L17 36L17 38L15 38L15 37L14 37L14 36L16 36L16 35L17 35L17 34L16 34L16 35L13 35L13 34L11 34L11 33L8 33L8 31L7 31L7 30L6 30L6 31L5 31L5 28L4 28L4 29L3 29L3 30L2 30L2 29L1 29L1 28L2 28L2 26L3 26L3 25L2 25L2 24L0 24L0 25L1 25L1 26L0 26L0 27L1 27L1 28L0 28L0 33L1 33L1 30L2 30L2 32L3 32L3 31L5 31L5 32L4 32L4 33L8 33L8 34L11 34L11 35L9 35L9 36L8 36L8 39L9 39L9 40L10 40L10 41L11 41L11 40L12 40L12 39L14 39L14 41L17 41L17 40L18 40L18 41L22 41L22 40L23 40L23 38L22 38L22 37L27 37L27 36L28 36L28 35L29 35L29 36L31 36L31 35L32 35L32 37L30 37L30 38L34 38L34 39L35 39L35 40L36 40L36 39L37 39L37 40L40 40L40 38L41 38L41 37L39 37L39 36L41 36L41 35L40 35L40 34L41 34L41 33L39 33L39 32L41 32L41 31L40 31L40 30L41 30L41 29L40 29L40 28L41 28L41 27L40 27L40 26L41 26L41 23L39 23L39 24L40 24L40 26L39 26L39 25L34 25L34 24L35 24L35 23L36 23L36 24L37 24L37 20L38 20L38 22L39 22L39 20L38 20L38 18L37 18L37 17L36 17L36 16L38 16L38 17L39 17L39 16L38 16L38 15L40 15L40 14L41 14L41 13L40 13L40 12L39 12L39 13L40 13L40 14L38 14L38 15L37 15L37 13L36 13L36 16L35 16L35 17L34 17L34 16L32 16L32 17L31 17L31 12L32 12L32 13L33 13L33 14L32 14L32 15L34 15L34 13L35 13L35 11L36 11L36 12L38 12L38 11L40 11L40 10L41 10L41 8L38 8L38 9L40 9L40 10L37 10L37 9L36 9L36 8L33 8L33 5L32 5L32 4L33 4L33 2L32 2L32 4L29 4L29 3L31 3L31 2L30 2L30 1L33 1L33 0L29 0L29 1L27 1L27 0L26 0L26 1L27 1L27 2L26 2L26 3L28 3L28 4L29 4L29 5L30 5L30 7L31 7L31 8L32 8L32 9L30 9L30 8L29 8L29 6L28 6L28 5L27 5L27 4L26 4L26 5L27 5L27 6L26 6L26 7L27 7L27 6L28 6L28 8L23 8L23 9L24 9L24 10L23 10L23 11L24 11L24 13L23 13L23 14L24 14L24 15L21 15L21 16L20 16L20 14L21 14L21 12L22 12L22 11L21 11L21 12L20 12L20 10L21 10L21 9L20 9L20 7L21 7L21 8L22 8L22 7L23 7L23 6L22 6L22 5L21 5L21 6L20 6L20 7L19 7L19 5L20 5L20 4L19 4L19 3L21 3L21 1L22 1L22 2L24 2L24 4L23 4L23 3L22 3L22 4L23 4L23 5L24 5L24 7L25 7L25 2L24 2L24 0L23 0L23 1L22 1L22 0ZM10 2L10 3L11 3L11 2ZM12 2L12 3L14 3L14 2ZM18 4L18 5L17 5L17 7L18 7L18 5L19 5L19 4ZM31 5L31 7L32 7L32 5ZM11 6L11 7L12 7L12 6ZM21 6L21 7L22 7L22 6ZM6 8L6 9L7 9L7 8ZM17 8L17 9L18 9L18 11L17 11L17 10L15 10L15 11L14 11L14 12L12 12L12 13L11 13L11 14L10 14L10 12L11 12L11 11L9 11L9 12L8 12L8 13L9 13L9 14L8 14L8 15L5 15L5 16L4 16L4 18L5 18L5 17L6 17L6 18L7 18L7 19L6 19L6 20L8 20L8 22L9 22L9 21L10 21L10 20L8 20L8 17L9 17L9 18L10 18L10 19L11 19L11 20L12 20L12 21L11 21L11 24L12 24L12 25L11 25L11 26L12 26L12 27L11 27L11 28L10 28L10 29L12 29L12 27L13 27L13 26L14 26L14 23L13 23L13 24L12 24L12 22L14 22L14 21L16 21L16 20L17 20L17 19L18 19L18 18L17 18L17 14L16 14L16 16L15 16L15 18L14 18L14 17L12 17L12 19L11 19L11 18L10 18L10 17L11 17L11 15L12 15L12 16L13 16L13 14L14 14L14 12L16 12L16 13L18 13L18 15L19 15L19 13L18 13L18 11L19 11L19 9L18 9L18 8ZM0 9L0 12L1 12L1 9ZM27 9L27 10L29 10L29 11L27 11L27 12L26 12L26 10L25 10L25 13L24 13L24 14L25 14L25 13L26 13L26 14L27 14L27 15L26 15L26 16L25 16L25 15L24 15L24 17L23 17L23 18L22 18L22 20L21 20L21 23L22 23L22 24L21 24L21 25L22 25L22 26L23 26L23 25L25 25L25 26L26 26L26 25L25 25L25 24L28 24L28 23L29 23L29 24L30 24L30 25L31 25L31 24L33 24L33 23L35 23L35 22L36 22L36 21L35 21L35 19L36 19L36 20L37 20L37 18L36 18L36 17L35 17L35 19L34 19L34 18L33 18L33 17L32 17L32 18L31 18L31 17L29 17L29 16L30 16L30 15L29 15L29 14L30 14L30 13L29 13L29 12L31 12L31 11L34 11L34 9L32 9L32 10L30 10L30 9ZM35 9L35 10L36 10L36 11L37 11L37 10L36 10L36 9ZM12 10L12 11L13 11L13 10ZM16 11L16 12L17 12L17 11ZM27 12L27 14L29 14L29 13L28 13L28 12ZM33 12L33 13L34 13L34 12ZM6 13L6 14L7 14L7 13ZM9 14L9 15L8 15L8 16L6 16L6 17L8 17L8 16L9 16L9 17L10 17L10 16L9 16L9 15L10 15L10 14ZM1 15L1 16L2 16L2 15ZM28 15L28 16L29 16L29 15ZM26 16L26 17L24 17L24 18L26 18L26 19L28 19L28 20L27 20L27 21L28 21L28 22L27 22L27 23L28 23L28 22L29 22L29 21L28 21L28 20L29 20L29 18L27 18L27 16ZM40 16L40 18L39 18L39 19L40 19L40 18L41 18L41 16ZM13 18L13 20L14 20L14 18ZM15 18L15 20L16 20L16 18ZM30 18L30 19L31 19L31 20L30 20L30 21L31 21L31 22L30 22L30 23L31 23L31 22L32 22L32 23L33 23L33 22L32 22L32 21L34 21L34 22L35 22L35 21L34 21L34 20L32 20L32 19L31 19L31 18ZM23 19L23 20L22 20L22 23L25 23L25 22L26 22L26 20L25 20L25 22L23 22L23 21L24 21L24 19ZM31 20L31 21L32 21L32 20ZM40 20L40 21L41 21L41 20ZM6 21L6 22L7 22L7 21ZM6 25L6 26L8 26L8 25ZM27 25L27 26L29 26L29 28L32 28L32 29L28 29L28 30L30 30L30 31L28 31L28 32L31 32L31 30L32 30L32 31L33 31L33 32L36 32L36 31L37 31L37 32L39 32L39 31L37 31L37 30L39 30L39 28L40 28L40 27L39 27L39 26L38 26L38 28L36 28L36 27L35 27L35 26L34 26L34 25L32 25L32 26L29 26L29 25ZM9 26L9 27L8 27L8 28L9 28L9 27L10 27L10 26ZM32 26L32 27L34 27L34 26ZM26 27L26 28L25 28L25 29L24 29L24 30L23 30L23 31L21 31L21 32L22 32L22 33L21 33L21 35L22 35L22 34L23 34L23 35L25 35L25 36L26 36L26 35L27 35L27 34L29 34L29 33L27 33L27 34L26 34L26 32L25 32L25 33L24 33L24 34L23 34L23 31L26 31L26 30L25 30L25 29L26 29L26 28L28 28L28 27ZM33 28L33 29L32 29L32 30L33 30L33 29L34 29L34 28ZM35 28L35 29L36 29L36 30L34 30L34 31L36 31L36 30L37 30L37 29L36 29L36 28ZM6 31L6 32L7 32L7 31ZM30 33L30 35L31 35L31 33ZM33 33L33 36L36 36L36 33ZM38 33L38 35L37 35L37 36L39 36L39 33ZM25 34L25 35L26 35L26 34ZM34 34L34 35L35 35L35 34ZM19 35L19 36L18 36L18 37L19 37L19 36L20 36L20 38L21 38L21 40L22 40L22 38L21 38L21 36L20 36L20 35ZM9 36L9 38L11 38L11 39L10 39L10 40L11 40L11 39L12 39L12 37L13 37L13 36L11 36L11 37L10 37L10 36ZM28 37L28 38L26 38L26 39L24 39L24 41L26 41L26 39L27 39L27 40L28 40L28 41L31 41L31 40L33 40L33 41L34 41L34 40L33 40L33 39L31 39L31 40L28 40L28 39L29 39L29 37ZM34 37L34 38L36 38L36 37ZM18 38L18 40L20 40L20 39L19 39L19 38ZM37 38L37 39L38 39L38 38ZM16 39L16 40L17 40L17 39ZM0 0L0 7L7 7L7 0ZM1 1L1 6L6 6L6 1ZM2 2L2 5L5 5L5 2ZM34 0L34 7L41 7L41 0ZM35 1L35 6L40 6L40 1ZM36 2L36 5L39 5L39 2ZM0 34L0 41L7 41L7 34ZM1 35L1 40L6 40L6 35ZM2 36L2 39L5 39L5 36Z" fill="#000000"/></g></g></svg>
