<?xml version="1.0" encoding="UTF-8"?>
<svg xmlns="http://www.w3.org/2000/svg" version="1.1" width="200" height="200" viewBox="0 0 200 200"><rect x="0" y="0" width="200" height="200" fill="#ffffff"/><g transform="scale(6.897)"><g transform="translate(0,0)"><path fill-rule="evenodd" d="M9 0L9 1L10 1L10 0ZM13 0L13 1L12 1L12 2L9 2L9 4L8 4L8 5L9 5L9 4L10 4L10 5L11 5L11 6L10 6L10 8L9 8L9 6L8 6L8 8L6 8L6 9L7 9L7 10L5 10L5 11L4 11L4 10L3 10L3 9L4 9L4 8L2 8L2 9L0 9L0 10L1 10L1 12L3 12L3 13L2 13L2 14L4 14L4 15L5 15L5 14L6 14L6 15L7 15L7 16L5 16L5 18L6 18L6 19L5 19L5 20L4 20L4 17L3 17L3 18L2 18L2 19L3 19L3 20L1 20L1 21L3 21L3 20L4 20L4 21L7 21L7 20L6 20L6 19L7 19L7 18L6 18L6 17L9 17L9 16L8 16L8 15L9 15L9 14L10 14L10 15L11 15L11 16L10 16L10 18L11 18L11 20L12 20L12 21L11 21L11 22L10 22L10 19L8 19L8 20L9 20L9 21L8 21L8 23L9 23L9 24L10 24L10 25L11 25L11 26L9 26L9 25L8 25L8 27L9 27L9 28L12 28L12 29L14 29L14 28L13 28L13 27L15 27L15 28L16 28L16 29L17 29L17 28L16 28L16 27L15 27L15 26L16 26L16 25L18 25L18 26L17 26L17 27L18 27L18 28L19 28L19 29L20 29L20 28L19 28L19 26L20 26L20 25L23 25L23 26L24 26L24 27L22 27L22 29L23 29L23 28L26 28L26 29L27 29L27 28L29 28L29 26L28 26L28 27L27 27L27 28L26 28L26 26L27 26L27 25L28 25L28 24L29 24L29 21L28 21L28 20L27 20L27 18L29 18L29 17L26 17L26 16L25 16L25 15L24 15L24 16L23 16L23 17L21 17L21 18L20 18L20 17L19 17L19 15L20 15L20 14L21 14L21 13L20 13L20 12L22 12L22 9L23 9L23 13L22 13L22 15L23 15L23 14L24 14L24 13L25 13L25 14L26 14L26 15L27 15L27 16L28 16L28 15L29 15L29 14L28 14L28 15L27 15L27 13L28 13L28 12L29 12L29 11L28 11L28 12L27 12L27 11L26 11L26 10L29 10L29 9L25 9L25 8L24 8L24 9L23 9L23 8L21 8L21 3L20 3L20 2L18 2L18 1L16 1L16 2L15 2L15 1L14 1L14 0ZM13 1L13 2L14 2L14 3L15 3L15 2L14 2L14 1ZM17 2L17 5L16 5L16 4L15 4L15 5L16 5L16 6L15 6L15 8L17 8L17 9L18 9L18 8L19 8L19 10L20 10L20 9L21 9L21 8L19 8L19 7L20 7L20 5L19 5L19 7L18 7L18 6L17 6L17 5L18 5L18 2ZM11 3L11 5L12 5L12 6L11 6L11 7L12 7L12 8L10 8L10 10L9 10L9 11L8 11L8 10L7 10L7 11L6 11L6 12L7 12L7 11L8 11L8 12L9 12L9 13L10 13L10 12L9 12L9 11L10 11L10 10L11 10L11 15L12 15L12 16L11 16L11 18L12 18L12 20L13 20L13 21L12 21L12 22L11 22L11 24L12 24L12 26L11 26L11 27L12 27L12 26L15 26L15 24L17 24L17 23L15 23L15 22L16 22L16 21L17 21L17 18L18 18L18 19L19 19L19 20L20 20L20 18L19 18L19 17L17 17L17 18L16 18L16 19L15 19L15 20L14 20L14 18L15 18L15 17L14 17L14 18L13 18L13 15L12 15L12 12L13 12L13 11L14 11L14 4L13 4L13 3ZM19 3L19 4L20 4L20 3ZM12 6L12 7L13 7L13 6ZM16 6L16 7L17 7L17 6ZM12 8L12 9L11 9L11 10L13 10L13 8ZM24 9L24 10L25 10L25 9ZM2 10L2 11L3 11L3 12L4 12L4 13L5 13L5 12L4 12L4 11L3 11L3 10ZM15 10L15 11L16 11L16 10ZM17 10L17 12L14 12L14 13L15 13L15 14L14 14L14 16L15 16L15 15L18 15L18 14L20 14L20 13L18 13L18 14L16 14L16 13L17 13L17 12L20 12L20 11L18 11L18 10ZM25 11L25 13L27 13L27 12L26 12L26 11ZM6 13L6 14L7 14L7 15L8 15L8 14L7 14L7 13ZM0 14L0 17L1 17L1 14ZM24 16L24 17L23 17L23 18L22 18L22 19L21 19L21 20L22 20L22 19L24 19L24 18L25 18L25 19L26 19L26 17L25 17L25 16ZM0 18L0 19L1 19L1 18ZM15 20L15 21L13 21L13 22L12 22L12 24L15 24L15 23L13 23L13 22L15 22L15 21L16 21L16 20ZM26 20L26 22L25 22L25 23L26 23L26 25L27 25L27 24L28 24L28 21L27 21L27 20ZM19 21L19 23L20 23L20 21ZM21 21L21 24L24 24L24 21ZM9 22L9 23L10 23L10 22ZM22 22L22 23L23 23L23 22ZM18 24L18 25L20 25L20 24ZM24 25L24 26L25 26L25 25ZM0 0L0 7L7 7L7 0ZM1 1L1 6L6 6L6 1ZM2 2L2 5L5 5L5 2ZM22 0L22 7L29 7L29 0ZM23 1L23 6L28 6L28 1ZM24 2L24 5L27 5L27 2ZM0 22L0 29L7 29L7 22ZM1 23L1 28L6 28L6 23ZM2 24L2 27L5 27L5 24Z" fill="#000000"/></g></g></svg>
