<?xml version="1.0" encoding="UTF-8"?>
<svg xmlns="http://www.w3.org/2000/svg" version="1.1" width="200" height="200" viewBox="0 0 200 200"><rect x="0" y="0" width="200" height="200" fill="#ffffff"/><g transform="scale(4.878)"><g transform="translate(0,0)"><path fill-rule="evenodd" d="M8 0L8 3L9 3L9 2L11 2L11 3L10 3L10 5L11 5L11 6L10 6L10 7L9 7L9 5L8 5L8 9L7 9L7 8L6 8L6 9L5 9L5 8L2 8L2 10L1 10L1 9L0 9L0 11L3 11L3 12L1 12L1 13L0 13L0 17L1 17L1 18L0 18L0 20L1 20L1 21L3 21L3 22L2 22L2 23L0 23L0 33L1 33L1 28L2 28L2 27L3 27L3 29L2 29L2 32L3 32L3 33L4 33L4 32L3 32L3 31L5 31L5 33L8 33L8 34L9 34L9 36L8 36L8 39L9 39L9 41L10 41L10 40L11 40L11 39L12 39L12 41L13 41L13 39L12 39L12 38L13 38L13 37L12 37L12 38L10 38L10 37L9 37L9 36L14 36L14 40L16 40L16 41L18 41L18 40L19 40L19 39L20 39L20 41L23 41L23 40L22 40L22 39L24 39L24 41L25 41L25 39L24 39L24 38L21 38L21 39L20 39L20 38L17 38L17 39L18 39L18 40L16 40L16 38L15 38L15 37L18 37L18 36L19 36L19 35L18 35L18 34L17 34L17 30L18 30L18 31L19 31L19 30L20 30L20 31L21 31L21 30L24 30L24 33L25 33L25 32L27 32L27 33L26 33L26 34L24 34L24 35L23 35L23 36L22 36L22 35L21 35L21 34L20 34L20 35L21 35L21 36L20 36L20 37L21 37L21 36L22 36L22 37L24 37L24 35L27 35L27 36L25 36L25 38L26 38L26 39L27 39L27 40L26 40L26 41L31 41L31 40L33 40L33 41L34 41L34 40L33 40L33 39L31 39L31 37L29 37L29 36L32 36L32 38L34 38L34 39L35 39L35 40L36 40L36 39L37 39L37 40L40 40L40 38L41 38L41 37L39 37L39 36L41 36L41 35L40 35L40 34L41 34L41 33L39 33L39 32L41 32L41 31L40 31L40 30L41 30L41 28L39 28L39 30L38 30L38 31L39 31L39 32L37 32L37 31L35 31L35 30L37 30L37 29L35 29L35 30L34 30L34 31L35 31L35 32L33 32L33 31L32 31L32 30L33 30L33 29L34 29L34 28L33 28L33 29L32 29L32 30L31 30L31 29L30 29L30 28L28 28L28 27L29 27L29 26L30 26L30 25L31 25L31 26L33 26L33 27L34 27L34 26L35 26L35 28L38 28L38 26L39 26L39 27L40 27L40 26L41 26L41 23L39 23L39 22L38 22L38 21L39 21L39 20L36 20L36 19L35 19L35 17L36 17L36 18L38 18L38 19L39 19L39 18L41 18L41 16L40 16L40 17L39 17L39 16L38 16L38 15L40 15L40 14L41 14L41 13L40 13L40 12L41 12L41 11L40 11L40 10L41 10L41 8L38 8L38 9L40 9L40 10L37 10L37 9L36 9L36 8L31 8L31 5L32 5L32 7L33 7L33 4L30 4L30 8L29 8L29 9L28 9L28 8L26 8L26 7L27 7L27 6L28 6L28 7L29 7L29 5L27 5L27 4L25 4L25 5L23 5L23 4L24 4L24 2L25 2L25 1L24 1L24 0L23 0L23 1L24 1L24 2L23 2L23 4L22 4L22 3L20 3L20 2L21 2L21 0L20 0L20 2L19 2L19 1L18 1L18 0L17 0L17 1L18 1L18 2L16 2L16 4L14 4L14 3L15 3L15 2L14 2L14 3L12 3L12 2L13 2L13 1L15 1L15 0L13 0L13 1L12 1L12 0ZM26 0L26 1L27 1L27 2L26 2L26 3L28 3L28 4L29 4L29 3L33 3L33 2L30 2L30 1L33 1L33 0L29 0L29 1L27 1L27 0ZM17 3L17 4L16 4L16 5L17 5L17 4L18 4L18 3ZM11 4L11 5L12 5L12 6L11 6L11 7L10 7L10 9L8 9L8 10L7 10L7 9L6 9L6 10L7 10L7 11L5 11L5 10L4 10L4 11L5 11L5 12L7 12L7 13L4 13L4 12L3 12L3 13L1 13L1 14L2 14L2 15L1 15L1 16L3 16L3 14L4 14L4 15L5 15L5 16L4 16L4 19L3 19L3 21L4 21L4 20L5 20L5 18L7 18L7 19L6 19L6 20L7 20L7 19L8 19L8 20L10 20L10 21L11 21L11 20L10 20L10 19L12 19L12 20L14 20L14 22L13 22L13 24L9 24L9 23L8 23L8 24L9 24L9 26L7 26L7 25L6 25L6 26L5 26L5 25L4 25L4 24L5 24L5 23L6 23L6 24L7 24L7 23L6 23L6 22L7 22L7 21L6 21L6 22L3 22L3 24L1 24L1 26L3 26L3 27L6 27L6 28L7 28L7 29L6 29L6 30L5 30L5 29L3 29L3 30L5 30L5 31L6 31L6 32L7 32L7 31L6 31L6 30L7 30L7 29L8 29L8 28L7 28L7 27L10 27L10 28L11 28L11 29L10 29L10 31L9 31L9 33L11 33L11 35L13 35L13 34L14 34L14 33L15 33L15 35L14 35L14 36L17 36L17 34L16 34L16 32L15 32L15 30L14 30L14 29L16 29L16 30L17 30L17 28L16 28L16 27L15 27L15 26L16 26L16 25L17 25L17 26L18 26L18 25L17 25L17 22L18 22L18 24L20 24L20 25L21 25L21 26L19 26L19 27L21 27L21 26L22 26L22 28L24 28L24 27L25 27L25 26L26 26L26 27L27 27L27 26L28 26L28 25L29 25L29 24L30 24L30 23L31 23L31 25L35 25L35 26L36 26L36 25L39 25L39 26L40 26L40 24L39 24L39 23L38 23L38 22L37 22L37 24L36 24L36 23L35 23L35 22L36 22L36 21L35 21L35 19L34 19L34 18L33 18L33 19L32 19L32 18L31 18L31 19L30 19L30 17L33 17L33 16L34 16L34 17L35 17L35 14L36 14L36 13L37 13L37 14L40 14L40 13L39 13L39 12L40 12L40 11L38 11L38 12L37 12L37 11L35 11L35 13L34 13L34 12L33 12L33 13L32 13L32 12L31 12L31 14L30 14L30 13L29 13L29 12L30 12L30 11L29 11L29 10L31 10L31 11L34 11L34 9L32 9L32 10L31 10L31 9L29 9L29 10L28 10L28 9L25 9L25 7L26 7L26 6L27 6L27 5L26 5L26 6L25 6L25 7L24 7L24 6L23 6L23 7L24 7L24 10L21 10L21 9L23 9L23 8L22 8L22 5L21 5L21 7L20 7L20 6L19 6L19 5L18 5L18 6L17 6L17 7L18 7L18 9L17 9L17 10L15 10L15 8L13 8L13 7L14 7L14 6L15 6L15 7L16 7L16 6L15 6L15 5L14 5L14 6L13 6L13 4ZM12 6L12 7L13 7L13 6ZM18 6L18 7L19 7L19 8L20 8L20 9L21 9L21 8L20 8L20 7L19 7L19 6ZM11 8L11 9L10 9L10 10L9 10L9 11L10 11L10 13L11 13L11 12L12 12L12 14L10 14L10 15L9 15L9 14L5 14L5 15L7 15L7 16L5 16L5 17L7 17L7 18L8 18L8 16L10 16L10 18L11 18L11 17L12 17L12 18L13 18L13 19L14 19L14 20L15 20L15 19L16 19L16 21L15 21L15 22L14 22L14 24L16 24L16 23L15 23L15 22L17 22L17 21L18 21L18 22L19 22L19 21L18 21L18 19L19 19L19 17L21 17L21 16L22 16L22 18L23 18L23 17L24 17L24 20L25 20L25 18L27 18L27 19L26 19L26 21L24 21L24 22L22 22L22 24L21 24L21 25L24 25L24 26L25 26L25 24L26 24L26 25L28 25L28 24L29 24L29 21L28 21L28 20L27 20L27 19L29 19L29 18L27 18L27 17L25 17L25 16L26 16L26 15L27 15L27 14L29 14L29 13L28 13L28 12L29 12L29 11L28 11L28 10L27 10L27 14L26 14L26 13L25 13L25 12L26 12L26 11L25 11L25 10L24 10L24 12L23 12L23 11L21 11L21 12L20 12L20 10L19 10L19 9L18 9L18 10L19 10L19 14L18 14L18 12L17 12L17 11L16 11L16 12L15 12L15 10L14 10L14 9L13 9L13 12L12 12L12 11L10 11L10 10L11 10L11 9L12 9L12 8ZM35 9L35 10L36 10L36 9ZM7 11L7 12L8 12L8 13L9 13L9 12L8 12L8 11ZM13 12L13 13L14 13L14 12ZM21 12L21 13L22 13L22 14L19 14L19 16L21 16L21 15L22 15L22 16L24 16L24 15L26 15L26 14L25 14L25 13L23 13L23 12ZM33 13L33 14L32 14L32 15L34 15L34 13ZM13 14L13 16L12 16L12 17L14 17L14 14ZM15 14L15 15L17 15L17 14ZM22 14L22 15L24 15L24 14ZM10 15L10 16L11 16L11 15ZM28 15L28 16L29 16L29 17L30 17L30 16L29 16L29 15ZM15 16L15 18L14 18L14 19L15 19L15 18L16 18L16 19L18 19L18 17L16 17L16 16ZM36 16L36 17L38 17L38 18L39 18L39 17L38 17L38 16ZM2 17L2 18L3 18L3 17ZM1 19L1 20L2 20L2 19ZM21 19L21 20L20 20L20 21L22 21L22 20L23 20L23 19ZM31 19L31 20L30 20L30 21L31 21L31 22L32 22L32 24L33 24L33 22L32 22L32 21L34 21L34 22L35 22L35 21L34 21L34 20L32 20L32 19ZM31 20L31 21L32 21L32 20ZM40 20L40 21L41 21L41 20ZM27 21L27 22L28 22L28 21ZM10 22L10 23L12 23L12 22ZM24 22L24 24L25 24L25 23L26 23L26 22ZM27 23L27 24L28 24L28 23ZM35 24L35 25L36 25L36 24ZM3 25L3 26L4 26L4 25ZM11 25L11 26L10 26L10 27L11 27L11 28L12 28L12 29L11 29L11 33L14 33L14 32L13 32L13 31L14 31L14 30L12 30L12 29L14 29L14 28L12 28L12 27L14 27L14 26L13 26L13 25ZM6 26L6 27L7 27L7 26ZM31 27L31 28L32 28L32 27ZM18 28L18 29L21 29L21 28ZM26 28L26 29L25 29L25 31L26 31L26 30L27 30L27 29L28 29L28 30L30 30L30 29L28 29L28 28ZM28 31L28 32L30 32L30 33L31 33L31 34L30 34L30 35L31 35L31 34L32 34L32 33L31 33L31 32L30 32L30 31ZM18 32L18 33L21 33L21 32ZM22 32L22 34L23 34L23 32ZM27 33L27 34L29 34L29 33ZM33 33L33 36L36 36L36 33ZM38 33L38 35L37 35L37 36L39 36L39 33ZM34 34L34 35L35 35L35 34ZM26 37L26 38L29 38L29 39L28 39L28 40L30 40L30 38L29 38L29 37ZM34 37L34 38L36 38L36 37ZM9 38L9 39L10 39L10 38ZM37 38L37 39L38 39L38 38ZM0 0L0 7L7 7L7 0ZM1 1L1 6L6 6L6 1ZM2 2L2 5L5 5L5 2ZM34 0L34 7L41 7L41 0ZM35 1L35 6L40 6L40 1ZM36 2L36 5L39 5L39 2ZM0 34L0 41L7 41L7 34ZM1 35L1 40L6 40L6 35ZM2 36L2 39L5 39L5 36Z" fill="#000000"/></g></g></svg>
