<?xml version="1.0" encoding="UTF-8"?>
<svg xmlns="http://www.w3.org/2000/svg" version="1.1" width="200" height="200" viewBox="0 0 200 200"><rect x="0" y="0" width="200" height="200" fill="#ffffff"/><g transform="scale(4.878)"><g transform="translate(0,0)"><path fill-rule="evenodd" d="M8 0L8 1L9 1L9 0ZM10 0L10 2L8 2L8 3L10 3L10 4L11 4L11 5L10 5L10 8L9 8L9 6L8 6L8 8L9 8L9 9L8 9L8 10L6 10L6 9L7 9L7 8L5 8L5 9L1 9L1 10L0 10L0 11L1 11L1 13L0 13L0 22L2 22L2 24L0 24L0 25L3 25L3 24L6 24L6 25L7 25L7 24L8 24L8 26L6 26L6 27L4 27L4 26L3 26L3 29L2 29L2 28L1 28L1 29L0 29L0 33L1 33L1 31L3 31L3 32L2 32L2 33L7 33L7 32L6 32L6 31L7 31L7 30L6 30L6 29L8 29L8 31L9 31L9 33L8 33L8 34L9 34L9 35L8 35L8 36L10 36L10 35L12 35L12 34L9 34L9 33L14 33L14 34L15 34L15 35L16 35L16 36L15 36L15 37L14 37L14 35L13 35L13 37L14 37L14 38L15 38L15 39L14 39L14 41L15 41L15 39L16 39L16 38L15 38L15 37L17 37L17 38L18 38L18 40L16 40L16 41L18 41L18 40L20 40L20 41L21 41L21 40L22 40L22 39L24 39L24 38L25 38L25 40L23 40L23 41L26 41L26 40L27 40L27 41L32 41L32 40L31 40L31 39L32 39L32 38L33 38L33 37L36 37L36 38L34 38L34 39L33 39L33 41L34 41L34 40L36 40L36 39L37 39L37 37L38 37L38 34L37 34L37 33L40 33L40 31L41 31L41 29L40 29L40 26L41 26L41 25L36 25L36 26L37 26L37 27L35 27L35 24L36 24L36 23L34 23L34 19L33 19L33 20L32 20L32 21L30 21L30 23L31 23L31 22L33 22L33 23L32 23L32 24L30 24L30 25L29 25L29 26L28 26L28 24L29 24L29 23L28 23L28 20L31 20L31 19L32 19L32 17L34 17L34 18L35 18L35 20L36 20L36 21L35 21L35 22L36 22L36 21L37 21L37 22L38 22L38 23L39 23L39 24L41 24L41 23L39 23L39 22L41 22L41 20L40 20L40 19L41 19L41 15L38 15L38 14L37 14L37 13L39 13L39 12L38 12L38 11L40 11L40 14L41 14L41 11L40 11L40 9L41 9L41 8L40 8L40 9L39 9L39 8L38 8L38 10L37 10L37 8L36 8L36 9L35 9L35 8L34 8L34 9L35 9L35 10L36 10L36 11L35 11L35 12L34 12L34 10L33 10L33 0L32 0L32 2L31 2L31 1L30 1L30 0L28 0L28 2L27 2L27 1L24 1L24 0L20 0L20 2L18 2L18 0L12 0L12 1L11 1L11 0ZM16 1L16 2L15 2L15 3L13 3L13 4L12 4L12 5L13 5L13 7L12 7L12 6L11 6L11 7L12 7L12 9L14 9L14 5L15 5L15 4L16 4L16 6L15 6L15 8L16 8L16 6L17 6L17 7L18 7L18 9L17 9L17 10L16 10L16 12L15 12L15 11L14 11L14 10L13 10L13 11L12 11L12 10L10 10L10 9L9 9L9 10L8 10L8 13L9 13L9 14L11 14L11 13L9 13L9 12L10 12L10 11L12 11L12 14L13 14L13 13L16 13L16 15L17 15L17 14L18 14L18 16L15 16L15 17L14 17L14 16L13 16L13 15L10 15L10 16L11 16L11 17L9 17L9 18L8 18L8 19L6 19L6 18L7 18L7 17L6 17L6 18L5 18L5 16L9 16L9 15L8 15L8 14L7 14L7 13L6 13L6 12L7 12L7 11L6 11L6 10L1 10L1 11L4 11L4 12L2 12L2 13L3 13L3 15L4 15L4 14L7 14L7 15L5 15L5 16L4 16L4 17L3 17L3 18L1 18L1 19L3 19L3 18L4 18L4 20L3 20L3 23L5 23L5 22L7 22L7 21L6 21L6 20L8 20L8 19L9 19L9 20L10 20L10 22L11 22L11 23L12 23L12 21L14 21L14 23L13 23L13 24L10 24L10 23L8 23L8 24L9 24L9 25L14 25L14 24L15 24L15 25L16 25L16 24L17 24L17 23L20 23L20 24L18 24L18 26L22 26L22 27L21 27L21 28L20 28L20 27L19 27L19 28L17 28L17 26L16 26L16 27L15 27L15 28L17 28L17 29L16 29L16 32L15 32L15 31L14 31L14 30L12 30L12 29L14 29L14 28L11 28L11 29L10 29L10 30L9 30L9 31L10 31L10 32L12 32L12 31L14 31L14 33L16 33L16 35L17 35L17 33L16 33L16 32L18 32L18 35L19 35L19 36L22 36L22 37L23 37L23 38L24 38L24 37L25 37L25 38L26 38L26 37L27 37L27 36L28 36L28 39L29 39L29 40L30 40L30 39L31 39L31 37L29 37L29 36L31 36L31 35L30 35L30 33L31 33L31 34L32 34L32 32L33 32L33 31L34 31L34 32L36 32L36 31L35 31L35 30L36 30L36 29L38 29L38 30L37 30L37 32L39 32L39 31L38 31L38 30L40 30L40 29L39 29L39 28L36 28L36 29L34 29L34 28L35 28L35 27L34 27L34 26L33 26L33 24L34 24L34 23L33 23L33 24L32 24L32 26L31 26L31 25L30 25L30 26L29 26L29 28L28 28L28 27L27 27L27 29L25 29L25 30L27 30L27 31L25 31L25 32L22 32L22 31L23 31L23 30L24 30L24 29L23 29L23 28L24 28L24 25L25 25L25 27L26 27L26 25L27 25L27 24L28 24L28 23L27 23L27 24L26 24L26 22L24 22L24 21L25 21L25 20L26 20L26 21L27 21L27 20L28 20L28 19L27 19L27 20L26 20L26 19L25 19L25 17L27 17L27 16L28 16L28 18L29 18L29 19L31 19L31 18L29 18L29 16L30 16L30 17L31 17L31 15L30 15L30 14L29 14L29 13L30 13L30 11L32 11L32 10L30 10L30 9L32 9L32 8L31 8L31 7L32 7L32 5L31 5L31 4L32 4L32 3L31 3L31 2L30 2L30 1L29 1L29 3L28 3L28 4L27 4L27 2L26 2L26 3L25 3L25 5L27 5L27 8L30 8L30 9L29 9L29 10L28 10L28 11L27 11L27 9L26 9L26 6L25 6L25 7L24 7L24 2L23 2L23 1L22 1L22 2L20 2L20 3L18 3L18 2L17 2L17 1ZM10 2L10 3L12 3L12 2ZM16 2L16 3L17 3L17 2ZM30 3L30 4L31 4L31 3ZM8 4L8 5L9 5L9 4ZM13 4L13 5L14 5L14 4ZM18 4L18 7L19 7L19 9L18 9L18 10L19 10L19 11L17 11L17 12L16 12L16 13L18 13L18 12L20 12L20 15L23 15L23 14L22 14L22 13L23 13L23 12L25 12L25 15L26 15L26 14L27 14L27 15L28 15L28 16L29 16L29 14L27 14L27 11L26 11L26 9L25 9L25 8L23 8L23 6L22 6L22 5L23 5L23 4L22 4L22 5L21 5L21 6L20 6L20 4ZM28 5L28 7L29 7L29 5ZM19 6L19 7L20 7L20 8L21 8L21 9L22 9L22 8L21 8L21 7L22 7L22 6L21 6L21 7L20 7L20 6ZM30 6L30 7L31 7L31 6ZM19 9L19 10L20 10L20 12L21 12L21 13L22 13L22 12L23 12L23 11L22 11L22 10L20 10L20 9ZM23 9L23 10L25 10L25 9ZM5 11L5 12L6 12L6 11ZM21 11L21 12L22 12L22 11ZM36 12L36 13L34 13L34 15L35 15L35 16L34 16L34 17L35 17L35 18L36 18L36 20L39 20L39 21L40 21L40 20L39 20L39 19L40 19L40 16L39 16L39 17L38 17L38 16L36 16L36 15L37 15L37 14L36 14L36 13L37 13L37 12ZM31 13L31 14L32 14L32 16L33 16L33 14L32 14L32 13ZM1 14L1 16L2 16L2 14ZM35 14L35 15L36 15L36 14ZM12 16L12 18L13 18L13 19L15 19L15 18L13 18L13 16ZM20 16L20 17L18 17L18 18L17 18L17 17L16 17L16 18L17 18L17 19L16 19L16 20L14 20L14 21L15 21L15 22L16 22L16 20L18 20L18 22L20 22L20 20L21 20L21 21L22 21L22 22L21 22L21 24L20 24L20 25L22 25L22 26L23 26L23 25L22 25L22 23L23 23L23 21L24 21L24 20L25 20L25 19L24 19L24 16L23 16L23 18L21 18L21 16ZM35 16L35 17L36 17L36 18L37 18L37 17L36 17L36 16ZM9 18L9 19L10 19L10 20L12 20L12 19L10 19L10 18ZM18 18L18 19L19 19L19 20L20 20L20 19L21 19L21 20L22 20L22 21L23 21L23 19L21 19L21 18L20 18L20 19L19 19L19 18ZM38 18L38 19L39 19L39 18ZM5 19L5 20L4 20L4 22L5 22L5 20L6 20L6 19ZM8 21L8 22L9 22L9 21ZM6 23L6 24L7 24L7 23ZM15 23L15 24L16 24L16 23ZM24 23L24 24L25 24L25 25L26 25L26 24L25 24L25 23ZM1 26L1 27L2 27L2 26ZM8 26L8 27L6 27L6 28L4 28L4 29L3 29L3 30L4 30L4 29L6 29L6 28L8 28L8 29L9 29L9 28L10 28L10 26ZM38 26L38 27L39 27L39 26ZM8 27L8 28L9 28L9 27ZM31 27L31 28L32 28L32 29L33 29L33 27ZM19 28L19 29L20 29L20 28ZM21 28L21 31L22 31L22 28ZM29 28L29 29L28 29L28 31L27 31L27 32L25 32L25 33L27 33L27 35L26 35L26 34L24 34L24 35L26 35L26 36L25 36L25 37L26 37L26 36L27 36L27 35L28 35L28 36L29 36L29 35L28 35L28 33L27 33L27 32L29 32L29 33L30 33L30 32L29 32L29 31L32 31L32 30L31 30L31 29L30 29L30 28ZM29 29L29 30L30 30L30 29ZM5 30L5 31L4 31L4 32L5 32L5 31L6 31L6 30ZM11 30L11 31L12 31L12 30ZM18 30L18 31L19 31L19 35L20 35L20 33L21 33L21 34L22 34L22 32L20 32L20 31L19 31L19 30ZM33 33L33 36L36 36L36 33ZM34 34L34 35L35 35L35 34ZM39 34L39 35L40 35L40 36L39 36L39 37L40 37L40 38L39 38L39 39L38 39L38 40L39 40L39 39L40 39L40 40L41 40L41 39L40 39L40 38L41 38L41 35L40 35L40 34ZM23 36L23 37L24 37L24 36ZM9 37L9 40L10 40L10 39L11 39L11 41L12 41L12 39L11 39L11 38L10 38L10 37ZM18 37L18 38L20 38L20 39L22 39L22 38L20 38L20 37ZM0 0L0 7L7 7L7 0ZM1 1L1 6L6 6L6 1ZM2 2L2 5L5 5L5 2ZM34 0L34 7L41 7L41 0ZM35 1L35 6L40 6L40 1ZM36 2L36 5L39 5L39 2ZM0 34L0 41L7 41L7 34ZM1 35L1 40L6 40L6 35ZM2 36L2 39L5 39L5 36Z" fill="#000000"/></g></g></svg>
