<?xml version="1.0" encoding="UTF-8"?>
<svg xmlns="http://www.w3.org/2000/svg" version="1.1" width="200" height="200" viewBox="0 0 200 200"><rect x="0" y="0" width="200" height="200" fill="#ffffff"/><g transform="scale(4.878)"><g transform="translate(0,0)"><path fill-rule="evenodd" d="M9 0L9 1L10 1L10 2L11 2L11 3L10 3L10 4L9 4L9 2L8 2L8 4L9 4L9 5L11 5L11 6L10 6L10 7L9 7L9 6L8 6L8 7L9 7L9 9L11 9L11 10L8 10L8 11L7 11L7 10L6 10L6 9L8 9L8 8L6 8L6 9L5 9L5 8L3 8L3 9L0 9L0 11L1 11L1 10L3 10L3 9L4 9L4 10L5 10L5 12L4 12L4 11L2 11L2 14L1 14L1 12L0 12L0 14L1 14L1 15L0 15L0 18L1 18L1 19L0 19L0 20L1 20L1 19L2 19L2 21L3 21L3 17L7 17L7 16L5 16L5 12L6 12L6 13L7 13L7 14L6 14L6 15L8 15L8 16L9 16L9 17L8 17L8 18L9 18L9 20L6 20L6 19L7 19L7 18L5 18L5 20L6 20L6 21L4 21L4 22L3 22L3 23L4 23L4 22L6 22L6 23L5 23L5 24L6 24L6 25L5 25L5 26L4 26L4 24L2 24L2 27L1 27L1 28L2 28L2 27L3 27L3 30L4 30L4 31L8 31L8 30L11 30L11 28L10 28L10 27L11 27L11 26L13 26L13 24L14 24L14 27L13 27L13 28L12 28L12 32L13 32L13 33L11 33L11 31L9 31L9 32L10 32L10 33L8 33L8 32L6 32L6 33L8 33L8 35L9 35L9 34L10 34L10 36L8 36L8 38L9 38L9 39L11 39L11 40L9 40L9 41L11 41L11 40L12 40L12 39L13 39L13 36L14 36L14 38L16 38L16 37L15 37L15 36L17 36L17 35L18 35L18 37L19 37L19 38L20 38L20 39L18 39L18 41L19 41L19 40L21 40L21 41L23 41L23 40L24 40L24 38L25 38L25 39L28 39L28 40L29 40L29 39L30 39L30 40L32 40L32 41L34 41L34 40L35 40L35 41L36 41L36 39L37 39L37 40L38 40L38 41L39 41L39 40L38 40L38 39L40 39L40 40L41 40L41 35L40 35L40 34L39 34L39 33L41 33L41 30L38 30L38 29L39 29L39 28L40 28L40 27L41 27L41 25L39 25L39 24L37 24L37 20L38 20L38 21L39 21L39 22L38 22L38 23L39 23L39 22L41 22L41 21L39 21L39 20L40 20L40 19L41 19L41 18L40 18L40 19L38 19L38 16L40 16L40 17L41 17L41 12L40 12L40 9L39 9L39 8L37 8L37 9L36 9L36 10L34 10L34 9L33 9L33 8L32 8L32 7L33 7L33 6L32 6L32 7L31 7L31 6L30 6L30 5L33 5L33 4L29 4L29 3L31 3L31 2L33 2L33 1L31 1L31 0L30 0L30 1L29 1L29 0L28 0L28 2L27 2L27 1L26 1L26 0L25 0L25 3L26 3L26 4L25 4L25 6L24 6L24 7L23 7L23 6L22 6L22 7L23 7L23 9L24 9L24 8L26 8L26 9L25 9L25 10L23 10L23 12L24 12L24 11L26 11L26 12L27 12L27 13L28 13L28 15L27 15L27 16L26 16L26 15L25 15L25 17L24 17L24 16L23 16L23 17L19 17L19 16L22 16L22 15L20 15L20 14L24 14L24 13L21 13L21 12L22 12L22 9L21 9L21 6L20 6L20 5L18 5L18 4L20 4L20 3L22 3L22 4L21 4L21 5L22 5L22 4L23 4L23 5L24 5L24 4L23 4L23 2L22 2L22 1L24 1L24 0L15 0L15 1L16 1L16 2L18 2L18 4L17 4L17 5L16 5L16 7L15 7L15 6L14 6L14 5L15 5L15 4L14 4L14 3L15 3L15 2L13 2L13 4L12 4L12 0ZM20 1L20 2L19 2L19 3L20 3L20 2L21 2L21 1ZM30 1L30 2L31 2L31 1ZM28 2L28 3L29 3L29 2ZM11 4L11 5L12 5L12 6L11 6L11 7L12 7L12 6L13 6L13 8L12 8L12 10L11 10L11 11L10 11L10 13L11 13L11 14L9 14L9 11L8 11L8 12L7 12L7 11L6 11L6 12L7 12L7 13L8 13L8 15L9 15L9 16L10 16L10 17L11 17L11 18L12 18L12 19L11 19L11 20L10 20L10 22L9 22L9 21L8 21L8 22L7 22L7 21L6 21L6 22L7 22L7 23L6 23L6 24L7 24L7 25L6 25L6 26L5 26L5 27L4 27L4 28L5 28L5 29L4 29L4 30L5 30L5 29L6 29L6 30L8 30L8 29L6 29L6 28L7 28L7 27L8 27L8 28L9 28L9 27L8 27L8 26L9 26L9 25L10 25L10 24L9 24L9 25L8 25L8 24L7 24L7 23L8 23L8 22L9 22L9 23L11 23L11 20L12 20L12 21L14 21L14 22L13 22L13 23L12 23L12 24L13 24L13 23L14 23L14 24L16 24L16 25L15 25L15 26L17 26L17 28L16 28L16 29L17 29L17 28L18 28L18 27L20 27L20 28L21 28L21 29L20 29L20 31L18 31L18 35L19 35L19 36L20 36L20 37L21 37L21 38L22 38L22 39L21 39L21 40L23 40L23 38L24 38L24 36L25 36L25 38L26 38L26 34L27 34L27 33L26 33L26 32L25 32L25 33L23 33L23 32L20 32L20 31L21 31L21 30L23 30L23 29L25 29L25 30L26 30L26 29L25 29L25 28L26 28L26 27L22 27L22 28L21 28L21 26L20 26L20 25L24 25L24 24L23 24L23 23L24 23L24 22L23 22L23 21L24 21L24 20L23 20L23 19L22 19L22 18L21 18L21 19L20 19L20 18L19 18L19 17L18 17L18 18L16 18L16 17L17 17L17 16L16 16L16 14L18 14L18 16L19 16L19 14L20 14L20 13L19 13L19 12L17 12L17 11L19 11L19 10L18 10L18 9L16 9L16 8L18 8L18 5L17 5L17 7L16 7L16 8L15 8L15 7L14 7L14 6L13 6L13 5L14 5L14 4L13 4L13 5L12 5L12 4ZM26 4L26 6L25 6L25 7L26 7L26 6L27 6L27 9L26 9L26 11L27 11L27 9L28 9L28 10L29 10L29 11L30 11L30 12L29 12L29 15L28 15L28 16L27 16L27 17L25 17L25 20L26 20L26 19L27 19L27 20L28 20L28 21L29 21L29 23L28 23L28 27L27 27L27 28L29 28L29 29L30 29L30 30L31 30L31 31L29 31L29 30L28 30L28 29L27 29L27 30L28 30L28 31L27 31L27 32L30 32L30 33L32 33L32 32L33 32L33 31L34 31L34 32L35 32L35 31L38 31L38 30L33 30L33 31L32 31L32 28L33 28L33 26L34 26L34 24L33 24L33 20L32 20L32 19L34 19L34 20L35 20L35 17L37 17L37 16L38 16L38 15L40 15L40 12L39 12L39 10L38 10L38 9L37 9L37 10L38 10L38 12L39 12L39 14L37 14L37 16L34 16L34 17L33 17L33 16L32 16L32 15L30 15L30 12L31 12L31 11L32 11L32 10L31 10L31 11L30 11L30 9L31 9L31 8L30 8L30 6L29 6L29 5L28 5L28 4ZM19 6L19 9L20 9L20 6ZM28 6L28 7L29 7L29 6ZM13 8L13 10L14 10L14 12L13 12L13 14L12 14L12 15L11 15L11 17L12 17L12 15L13 15L13 16L15 16L15 17L13 17L13 19L12 19L12 20L13 20L13 19L14 19L14 21L15 21L15 22L14 22L14 23L15 23L15 22L16 22L16 21L17 21L17 23L16 23L16 24L17 24L17 25L18 25L18 26L19 26L19 25L20 25L20 24L19 24L19 23L20 23L20 20L19 20L19 23L18 23L18 21L17 21L17 19L16 19L16 18L15 18L15 17L16 17L16 16L15 16L15 14L16 14L16 13L17 13L17 12L15 12L15 11L17 11L17 10L15 10L15 9L14 9L14 8ZM28 8L28 9L30 9L30 8ZM20 10L20 11L21 11L21 10ZM33 10L33 12L32 12L32 13L33 13L33 14L35 14L35 15L36 15L36 13L37 13L37 12L36 12L36 13L35 13L35 11L34 11L34 10ZM11 12L11 13L12 13L12 12ZM14 12L14 14L13 14L13 15L14 15L14 14L15 14L15 12ZM18 13L18 14L19 14L19 13ZM25 13L25 14L26 14L26 13ZM3 14L3 16L2 16L2 15L1 15L1 18L2 18L2 17L3 17L3 16L4 16L4 14ZM30 16L30 17L27 17L27 19L28 19L28 18L29 18L29 19L32 19L32 17L31 17L31 16ZM30 17L30 18L31 18L31 17ZM36 18L36 20L37 20L37 18ZM15 19L15 20L16 20L16 19ZM21 19L21 21L23 21L23 20L22 20L22 19ZM30 20L30 21L31 21L31 22L30 22L30 23L29 23L29 24L30 24L30 25L29 25L29 26L30 26L30 25L33 25L33 24L30 24L30 23L31 23L31 22L32 22L32 20ZM25 21L25 23L26 23L26 21ZM34 21L34 23L36 23L36 21ZM22 22L22 23L23 23L23 22ZM0 24L0 25L1 25L1 24ZM18 24L18 25L19 25L19 24ZM25 24L25 25L26 25L26 26L27 26L27 24ZM35 24L35 27L36 27L36 25L37 25L37 27L39 27L39 25L37 25L37 24ZM7 25L7 26L6 26L6 27L5 27L5 28L6 28L6 27L7 27L7 26L8 26L8 25ZM31 26L31 27L32 27L32 26ZM13 28L13 29L14 29L14 30L15 30L15 31L13 31L13 32L15 32L15 33L17 33L17 31L16 31L16 30L15 30L15 28ZM22 28L22 29L23 29L23 28ZM30 28L30 29L31 29L31 28ZM34 28L34 29L38 29L38 28ZM0 29L0 33L3 33L3 31L2 31L2 29ZM15 31L15 32L16 32L16 31ZM39 31L39 32L40 32L40 31ZM4 32L4 33L5 33L5 32ZM37 32L37 34L38 34L38 32ZM10 33L10 34L11 34L11 33ZM13 33L13 35L11 35L11 37L12 37L12 36L13 36L13 35L14 35L14 36L15 36L15 35L14 35L14 33ZM21 33L21 34L20 34L20 36L22 36L22 34L23 34L23 33ZM25 33L25 34L26 34L26 33ZM28 33L28 34L29 34L29 36L28 36L28 38L30 38L30 37L31 37L31 36L32 36L32 35L31 35L31 34L29 34L29 33ZM33 33L33 36L36 36L36 33ZM16 34L16 35L17 35L17 34ZM34 34L34 35L35 35L35 34ZM23 35L23 36L24 36L24 35ZM30 35L30 36L29 36L29 37L30 37L30 36L31 36L31 35ZM38 35L38 37L37 37L37 38L40 38L40 36L39 36L39 35ZM9 37L9 38L10 38L10 37ZM22 37L22 38L23 38L23 37ZM32 37L32 40L33 40L33 39L35 39L35 38L36 38L36 37ZM16 39L16 41L17 41L17 39ZM26 40L26 41L27 41L27 40ZM0 0L0 7L7 7L7 0ZM1 1L1 6L6 6L6 1ZM2 2L2 5L5 5L5 2ZM34 0L34 7L41 7L41 0ZM35 1L35 6L40 6L40 1ZM36 2L36 5L39 5L39 2ZM0 34L0 41L7 41L7 34ZM1 35L1 40L6 40L6 35ZM2 36L2 39L5 39L5 36Z" fill="#000000"/></g></g></svg>
