<?xml version="1.0" encoding="UTF-8"?>
<svg xmlns="http://www.w3.org/2000/svg" version="1.1" width="200" height="200" viewBox="0 0 200 200"><rect x="0" y="0" width="200" height="200" fill="#ffffff"/><g transform="scale(4.878)"><g transform="translate(0,0)"><path fill-rule="evenodd" d="M8 0L8 3L9 3L9 4L11 4L11 3L13 3L13 4L15 4L15 6L14 6L14 5L11 5L11 6L10 6L10 5L8 5L8 9L7 9L7 8L6 8L6 9L5 9L5 8L2 8L2 9L0 9L0 10L2 10L2 11L0 11L0 17L1 17L1 19L0 19L0 20L1 20L1 22L0 22L0 24L1 24L1 25L3 25L3 26L4 26L4 27L2 27L2 28L1 28L1 29L0 29L0 33L1 33L1 29L4 29L4 32L2 32L2 33L4 33L4 32L5 32L5 30L6 30L6 31L7 31L7 32L6 32L6 33L7 33L7 32L8 32L8 34L9 34L9 33L12 33L12 32L13 32L13 33L14 33L14 32L13 32L13 31L14 31L14 29L15 29L15 30L16 30L16 31L15 31L15 32L16 32L16 31L17 31L17 32L19 32L19 33L16 33L16 34L13 34L13 35L14 35L14 36L17 36L17 37L15 37L15 39L14 39L14 38L13 38L13 36L11 36L11 37L10 37L10 35L9 35L9 36L8 36L8 39L9 39L9 41L10 41L10 38L11 38L11 40L12 40L12 38L13 38L13 40L14 40L14 41L15 41L15 39L18 39L18 37L19 37L19 38L20 38L20 39L19 39L19 40L16 40L16 41L21 41L21 40L22 40L22 41L26 41L26 40L28 40L28 38L29 38L29 37L28 37L28 36L31 36L31 35L32 35L32 38L31 38L31 37L30 37L30 39L32 39L32 40L31 40L31 41L32 41L32 40L33 40L33 41L34 41L34 40L33 40L33 39L32 39L32 38L34 38L34 39L35 39L35 40L36 40L36 39L37 39L37 40L40 40L40 38L41 38L41 37L39 37L39 36L38 36L38 35L40 35L40 34L41 34L41 33L39 33L39 32L41 32L41 31L40 31L40 30L41 30L41 28L40 28L40 26L41 26L41 23L39 23L39 22L37 22L37 21L39 21L39 20L36 20L36 19L35 19L35 17L36 17L36 18L37 18L37 17L36 17L36 16L38 16L38 18L41 18L41 16L40 16L40 17L39 17L39 16L38 16L38 13L36 13L36 14L35 14L35 15L36 15L36 16L35 16L35 17L34 17L34 16L33 16L33 17L31 17L31 12L29 12L29 13L28 13L28 11L31 11L31 10L32 10L32 13L33 13L33 14L32 14L32 15L34 15L34 13L35 13L35 12L38 12L38 11L39 11L39 13L40 13L40 14L39 14L39 15L40 15L40 14L41 14L41 13L40 13L40 12L41 12L41 11L40 11L40 10L41 10L41 8L38 8L38 9L40 9L40 10L37 10L37 9L36 9L36 8L33 8L33 6L32 6L32 7L31 7L31 6L30 6L30 5L32 5L32 4L33 4L33 0L29 0L29 1L27 1L27 0L26 0L26 1L27 1L27 2L26 2L26 3L28 3L28 4L29 4L29 3L31 3L31 2L30 2L30 1L32 1L32 4L30 4L30 5L29 5L29 6L28 6L28 5L27 5L27 4L26 4L26 5L24 5L24 7L25 7L25 8L24 8L24 9L23 9L23 5L22 5L22 4L23 4L23 3L22 3L22 4L21 4L21 0L19 0L19 1L18 1L18 2L17 2L17 3L16 3L16 4L15 4L15 2L16 2L16 1L14 1L14 3L13 3L13 0L10 0L10 1L9 1L9 0ZM22 0L22 1L23 1L23 2L24 2L24 3L25 3L25 2L24 2L24 1L23 1L23 0ZM19 1L19 2L20 2L20 1ZM9 2L9 3L10 3L10 2ZM18 4L18 5L16 5L16 6L15 6L15 7L14 7L14 6L13 6L13 7L12 7L12 6L11 6L11 7L10 7L10 6L9 6L9 8L10 8L10 10L11 10L11 12L12 12L12 13L10 13L10 11L9 11L9 9L8 9L8 11L5 11L5 10L4 10L4 9L3 9L3 11L4 11L4 13L3 13L3 12L1 12L1 14L2 14L2 15L5 15L5 17L4 17L4 16L2 16L2 17L4 17L4 20L2 20L2 19L3 19L3 18L2 18L2 19L1 19L1 20L2 20L2 21L4 21L4 23L3 23L3 22L1 22L1 23L2 23L2 24L3 24L3 25L4 25L4 26L5 26L5 25L4 25L4 24L7 24L7 25L6 25L6 26L8 26L8 27L10 27L10 28L9 28L9 29L6 29L6 28L7 28L7 27L6 27L6 28L5 28L5 29L6 29L6 30L7 30L7 31L8 31L8 32L9 32L9 31L8 31L8 30L9 30L9 29L10 29L10 28L11 28L11 30L10 30L10 31L12 31L12 30L13 30L13 29L12 29L12 27L13 27L13 28L16 28L16 27L17 27L17 26L14 26L14 25L11 25L11 26L12 26L12 27L10 27L10 26L9 26L9 23L10 23L10 20L11 20L11 19L14 19L14 20L13 20L13 21L15 21L15 22L16 22L16 20L17 20L17 21L18 21L18 23L20 23L20 24L21 24L21 23L23 23L23 22L21 22L21 23L20 23L20 21L18 21L18 19L21 19L21 21L22 21L22 20L23 20L23 19L24 19L24 20L27 20L27 18L29 18L29 19L28 19L28 20L29 20L29 21L27 21L27 22L26 22L26 21L25 21L25 23L24 23L24 24L22 24L22 25L19 25L19 24L17 24L17 25L18 25L18 26L21 26L21 27L23 27L23 29L24 29L24 30L23 30L23 32L20 32L20 31L19 31L19 32L20 32L20 34L18 34L18 36L21 36L21 39L20 39L20 40L21 40L21 39L22 39L22 36L21 36L21 35L22 35L22 34L21 34L21 33L23 33L23 34L28 34L28 35L29 35L29 34L28 34L28 33L29 33L29 32L30 32L30 33L31 33L31 32L30 32L30 30L32 30L32 31L33 31L33 32L35 32L35 31L36 31L36 30L35 30L35 29L38 29L38 30L37 30L37 32L39 32L39 31L38 31L38 30L39 30L39 26L40 26L40 24L39 24L39 23L37 23L37 24L36 24L36 23L34 23L34 24L30 24L30 23L29 23L29 24L30 24L30 25L35 25L35 26L34 26L34 27L33 27L33 28L31 28L31 27L32 27L32 26L29 26L29 25L27 25L27 22L31 22L31 23L33 23L33 22L34 22L34 21L35 21L35 22L36 22L36 21L35 21L35 19L34 19L34 18L33 18L33 19L32 19L32 18L31 18L31 17L29 17L29 16L30 16L30 15L29 15L29 14L30 14L30 13L29 13L29 14L27 14L27 11L26 11L26 10L31 10L31 9L32 9L32 10L33 10L33 11L34 11L34 9L32 9L32 8L31 8L31 9L28 9L28 8L30 8L30 6L29 6L29 7L28 7L28 6L27 6L27 5L26 5L26 6L25 6L25 7L26 7L26 8L25 8L25 9L24 9L24 10L25 10L25 11L21 11L21 12L20 12L20 13L18 13L18 11L16 11L16 10L13 10L13 9L15 9L15 7L16 7L16 9L17 9L17 10L18 10L18 8L17 8L17 7L18 7L18 6L19 6L19 8L20 8L20 9L19 9L19 10L20 10L20 9L21 9L21 10L23 10L23 9L21 9L21 7L22 7L22 6L21 6L21 7L20 7L20 5L19 5L19 4ZM16 6L16 7L17 7L17 6ZM26 6L26 7L27 7L27 8L26 8L26 9L25 9L25 10L26 10L26 9L27 9L27 8L28 8L28 7L27 7L27 6ZM11 7L11 10L12 10L12 11L13 11L13 13L12 13L12 14L11 14L11 15L10 15L10 13L9 13L9 15L8 15L8 17L7 17L7 16L6 16L6 17L5 17L5 19L8 19L8 21L7 21L7 20L6 20L6 21L7 21L7 22L6 22L6 23L7 23L7 24L8 24L8 23L9 23L9 22L8 22L8 21L9 21L9 19L8 19L8 18L9 18L9 15L10 15L10 16L11 16L11 17L12 17L12 18L15 18L15 17L16 17L16 16L15 16L15 15L14 15L14 12L15 12L15 11L13 11L13 10L12 10L12 7ZM6 9L6 10L7 10L7 9ZM35 9L35 10L36 10L36 9ZM6 12L6 13L7 13L7 12ZM16 12L16 13L15 13L15 14L17 14L17 15L19 15L19 14L18 14L18 13L17 13L17 12ZM23 12L23 14L22 14L22 13L20 13L20 15L22 15L22 16L19 16L19 18L21 18L21 17L22 17L22 19L23 19L23 18L24 18L24 19L25 19L25 17L26 17L26 18L27 18L27 17L26 17L26 16L24 16L24 17L23 17L23 15L24 15L24 12ZM25 12L25 14L26 14L26 12ZM33 12L33 13L34 13L34 12ZM4 13L4 14L5 14L5 15L7 15L7 14L5 14L5 13ZM12 14L12 15L11 15L11 16L12 16L12 17L13 17L13 14ZM28 15L28 16L29 16L29 15ZM17 16L17 17L18 17L18 16ZM6 17L6 18L7 18L7 17ZM10 18L10 19L11 19L11 18ZM17 18L17 19L18 19L18 18ZM30 18L30 19L31 19L31 20L30 20L30 21L31 21L31 22L32 22L32 21L34 21L34 20L32 20L32 19L31 19L31 18ZM15 19L15 20L16 20L16 19ZM31 20L31 21L32 21L32 20ZM40 20L40 21L41 21L41 20ZM7 22L7 23L8 23L8 22ZM11 22L11 24L12 24L12 23L13 23L13 24L14 24L14 22ZM15 23L15 25L16 25L16 23ZM24 24L24 25L22 25L22 26L23 26L23 27L24 27L24 28L25 28L25 29L27 29L27 30L25 30L25 32L24 32L24 33L26 33L26 32L27 32L27 33L28 33L28 31L29 31L29 30L28 30L28 29L31 29L31 28L25 28L25 25L26 25L26 27L28 27L28 26L27 26L27 25L26 25L26 24ZM35 24L35 25L36 25L36 26L37 26L37 27L35 27L35 28L38 28L38 26L39 26L39 25L36 25L36 24ZM0 26L0 27L1 27L1 26ZM19 27L19 30L21 30L21 31L22 31L22 29L20 29L20 27ZM17 28L17 29L16 29L16 30L17 30L17 31L18 31L18 28ZM33 28L33 29L32 29L32 30L33 30L33 29L34 29L34 28ZM34 30L34 31L35 31L35 30ZM33 33L33 36L36 36L36 33ZM38 33L38 34L37 34L37 35L38 35L38 34L39 34L39 33ZM20 34L20 35L21 35L21 34ZM30 34L30 35L31 35L31 34ZM34 34L34 35L35 35L35 34ZM23 35L23 36L24 36L24 37L23 37L23 38L24 38L24 39L23 39L23 40L25 40L25 38L28 38L28 37L26 37L26 35L25 35L25 36L24 36L24 35ZM37 36L37 37L38 37L38 36ZM11 37L11 38L12 38L12 37ZM34 37L34 38L36 38L36 37ZM37 38L37 39L38 39L38 38ZM29 40L29 41L30 41L30 40ZM0 0L0 7L7 7L7 0ZM1 1L1 6L6 6L6 1ZM2 2L2 5L5 5L5 2ZM34 0L34 7L41 7L41 0ZM35 1L35 6L40 6L40 1ZM36 2L36 5L39 5L39 2ZM0 34L0 41L7 41L7 34ZM1 35L1 40L6 40L6 35ZM2 36L2 39L5 39L5 36Z" fill="#000000"/></g></g></svg>
