<?xml version="1.0" encoding="UTF-8"?>
<svg xmlns="http://www.w3.org/2000/svg" version="1.1" width="200" height="200" viewBox="0 0 200 200"><rect x="0" y="0" width="200" height="200" fill="#ffffff"/><g transform="scale(6.897)"><g transform="translate(0,0)"><path fill-rule="evenodd" d="M10 0L10 2L9 2L9 1L8 1L8 2L9 2L9 3L10 3L10 2L11 2L11 4L13 4L13 6L12 6L12 7L11 7L11 5L8 5L8 8L4 8L4 9L1 9L1 10L0 10L0 12L1 12L1 13L0 13L0 14L1 14L1 13L2 13L2 16L3 16L3 17L5 17L5 18L3 18L3 19L4 19L4 20L0 20L0 21L4 21L4 20L5 20L5 21L8 21L8 25L9 25L9 27L11 27L11 29L22 29L22 28L23 28L23 29L25 29L25 28L23 28L23 27L25 27L25 26L26 26L26 25L27 25L27 24L28 24L28 25L29 25L29 22L28 22L28 23L27 23L27 21L29 21L29 19L27 19L27 18L28 18L28 17L27 17L27 18L26 18L26 19L25 19L25 20L24 20L24 18L21 18L21 19L20 19L20 17L23 17L23 16L24 16L24 17L25 17L25 16L24 16L24 14L25 14L25 15L27 15L27 16L29 16L29 14L27 14L27 12L29 12L29 9L28 9L28 8L27 8L27 9L24 9L24 8L22 8L22 9L24 9L24 10L22 10L22 11L23 11L23 13L22 13L22 12L18 12L18 13L19 13L19 14L18 14L18 15L17 15L17 16L19 16L19 17L18 17L18 18L17 18L17 17L15 17L15 16L16 16L16 15L13 15L13 14L17 14L17 12L16 12L16 11L15 11L15 9L16 9L16 10L18 10L18 9L19 9L19 10L20 10L20 11L21 11L21 9L19 9L19 8L21 8L21 6L20 6L20 7L19 7L19 4L20 4L20 5L21 5L21 1L20 1L20 0L18 0L18 2L17 2L17 1L16 1L16 0L15 0L15 1L13 1L13 0ZM11 1L11 2L12 2L12 1ZM19 1L19 2L20 2L20 1ZM15 2L15 3L16 3L16 2ZM13 3L13 4L14 4L14 6L13 6L13 8L12 8L12 10L11 10L11 9L9 9L9 8L8 8L8 9L4 9L4 10L2 10L2 11L1 11L1 12L2 12L2 13L3 13L3 16L7 16L7 15L6 15L6 14L8 14L8 15L9 15L9 16L8 16L8 17L6 17L6 18L5 18L5 19L6 19L6 20L8 20L8 21L9 21L9 16L10 16L10 18L13 18L13 17L14 17L14 16L13 16L13 15L12 15L12 17L11 17L11 15L10 15L10 13L5 13L5 15L4 15L4 12L11 12L11 13L12 13L12 14L13 14L13 13L14 13L14 12L13 12L13 13L12 13L12 10L13 10L13 11L14 11L14 9L15 9L15 7L16 7L16 8L17 8L17 9L18 9L18 8L17 8L17 7L18 7L18 4L19 4L19 3L18 3L18 4L16 4L16 6L15 6L15 4L14 4L14 3ZM9 6L9 7L10 7L10 6ZM14 6L14 7L15 7L15 6ZM16 6L16 7L17 7L17 6ZM8 9L8 10L6 10L6 11L9 11L9 9ZM27 9L27 10L28 10L28 9ZM4 10L4 11L5 11L5 10ZM10 10L10 11L11 11L11 10ZM24 10L24 12L25 12L25 10ZM2 11L2 12L3 12L3 11ZM15 12L15 13L16 13L16 12ZM21 13L21 14L19 14L19 16L21 16L21 15L22 15L22 16L23 16L23 14L24 14L24 13L23 13L23 14L22 14L22 13ZM25 13L25 14L26 14L26 13ZM0 16L0 18L1 18L1 16ZM6 18L6 19L7 19L7 18ZM14 18L14 19L13 19L13 20L12 20L12 19L10 19L10 21L11 21L11 22L12 22L12 21L14 21L14 22L13 22L13 23L15 23L15 25L14 25L14 26L13 26L13 27L15 27L15 25L16 25L16 26L17 26L17 28L19 28L19 26L20 26L20 28L21 28L21 26L22 26L22 27L23 27L23 26L24 26L24 25L19 25L19 24L20 24L20 22L19 22L19 21L20 21L20 20L19 20L19 19L18 19L18 22L16 22L16 23L15 23L15 21L17 21L17 20L15 20L15 19L17 19L17 18ZM22 19L22 20L23 20L23 19ZM26 19L26 20L27 20L27 19ZM21 21L21 24L24 24L24 21ZM25 21L25 25L26 25L26 24L27 24L27 23L26 23L26 21ZM9 22L9 25L10 25L10 26L11 26L11 24L12 24L12 25L13 25L13 24L12 24L12 23L11 23L11 24L10 24L10 22ZM18 22L18 23L17 23L17 24L19 24L19 22ZM22 22L22 23L23 23L23 22ZM17 25L17 26L18 26L18 25ZM27 26L27 27L26 27L26 29L27 29L27 28L28 28L28 27L29 27L29 26ZM9 28L9 29L10 29L10 28ZM0 0L0 7L7 7L7 0ZM1 1L1 6L6 6L6 1ZM2 2L2 5L5 5L5 2ZM22 0L22 7L29 7L29 0ZM23 1L23 6L28 6L28 1ZM24 2L24 5L27 5L27 2ZM0 22L0 29L7 29L7 22ZM1 23L1 28L6 28L6 23ZM2 24L2 27L5 27L5 24Z" fill="#000000"/></g></g></svg>
