<?xml version="1.0" encoding="UTF-8"?>
<svg xmlns="http://www.w3.org/2000/svg" version="1.1" width="200" height="200" viewBox="0 0 200 200"><rect x="0" y="0" width="200" height="200" fill="#ffffff"/><g transform="scale(6.897)"><g transform="translate(0,0)"><path fill-rule="evenodd" d="M8 0L8 1L9 1L9 3L8 3L8 4L9 4L9 5L10 5L10 8L8 8L8 9L7 9L7 8L4 8L4 9L3 9L3 8L2 8L2 9L1 9L1 10L0 10L0 11L1 11L1 12L2 12L2 13L1 13L1 14L2 14L2 15L1 15L1 16L2 16L2 15L3 15L3 14L2 14L2 13L3 13L3 12L4 12L4 14L5 14L5 15L4 15L4 16L3 16L3 17L1 17L1 18L0 18L0 19L1 19L1 20L0 20L0 21L1 21L1 20L2 20L2 21L3 21L3 20L4 20L4 21L7 21L7 20L8 20L8 22L9 22L9 23L8 23L8 25L9 25L9 26L8 26L8 27L9 27L9 28L10 28L10 29L12 29L12 28L13 28L13 29L14 29L14 27L11 27L11 25L12 25L12 24L13 24L13 26L16 26L16 25L18 25L18 26L17 26L17 27L16 27L16 28L17 28L17 29L20 29L20 27L21 27L21 26L22 26L22 25L23 25L23 26L24 26L24 25L25 25L25 26L26 26L26 27L27 27L27 28L26 28L26 29L27 29L27 28L28 28L28 29L29 29L29 26L28 26L28 25L29 25L29 23L28 23L28 25L27 25L27 24L26 24L26 23L25 23L25 20L26 20L26 21L27 21L27 22L28 22L28 19L29 19L29 18L27 18L27 17L26 17L26 14L24 14L24 13L25 13L25 11L26 11L26 13L27 13L27 15L28 15L28 13L29 13L29 12L28 12L28 11L29 11L29 8L28 8L28 9L27 9L27 10L28 10L28 11L26 11L26 8L25 8L25 9L24 9L24 10L25 10L25 11L24 11L24 12L23 12L23 10L22 10L22 8L19 8L19 11L20 11L20 12L18 12L18 10L17 10L17 8L16 8L16 7L17 7L17 5L18 5L18 7L19 7L19 5L20 5L20 7L21 7L21 0L20 0L20 1L19 1L19 2L20 2L20 3L19 3L19 5L18 5L18 3L16 3L16 2L18 2L18 1L16 1L16 2L14 2L14 1L15 1L15 0L13 0L13 2L14 2L14 4L13 4L13 3L12 3L12 2L10 2L10 1L9 1L9 0ZM11 0L11 1L12 1L12 0ZM15 3L15 7L16 7L16 5L17 5L17 4L16 4L16 3ZM10 4L10 5L11 5L11 7L12 7L12 8L11 8L11 9L10 9L10 10L9 10L9 9L8 9L8 10L7 10L7 9L4 9L4 10L5 10L5 11L4 11L4 12L8 12L8 13L6 13L6 14L8 14L8 15L6 15L6 16L8 16L8 17L6 17L6 18L5 18L5 19L4 19L4 18L1 18L1 19L2 19L2 20L3 20L3 19L4 19L4 20L5 20L5 19L6 19L6 20L7 20L7 19L6 19L6 18L8 18L8 19L9 19L9 20L10 20L10 22L12 22L12 23L13 23L13 22L14 22L14 25L16 25L16 24L15 24L15 22L16 22L16 23L17 23L17 24L18 24L18 23L20 23L20 22L19 22L19 21L20 21L20 20L21 20L21 19L22 19L22 18L23 18L23 19L24 19L24 20L25 20L25 19L24 19L24 18L26 18L26 19L27 19L27 18L26 18L26 17L24 17L24 16L25 16L25 15L24 15L24 14L23 14L23 15L22 15L22 14L21 14L21 13L20 13L20 14L19 14L19 13L18 13L18 14L15 14L15 13L16 13L16 12L17 12L17 10L16 10L16 9L14 9L14 10L12 10L12 9L13 9L13 7L14 7L14 5L11 5L11 4ZM8 6L8 7L9 7L9 6ZM12 6L12 7L13 7L13 6ZM2 10L2 11L3 11L3 10ZM6 10L6 11L7 11L7 10ZM8 10L8 12L9 12L9 14L10 14L10 15L9 15L9 17L8 17L8 18L9 18L9 19L12 19L12 20L11 20L11 21L12 21L12 22L13 22L13 21L14 21L14 22L15 22L15 21L16 21L16 22L17 22L17 23L18 23L18 22L17 22L17 21L18 21L18 20L20 20L20 19L18 19L18 17L17 17L17 15L15 15L15 14L14 14L14 16L13 16L13 15L12 15L12 16L11 16L11 13L10 13L10 12L9 12L9 10ZM14 10L14 11L11 11L11 12L12 12L12 14L13 14L13 13L15 13L15 12L16 12L16 11L15 11L15 10ZM21 11L21 12L22 12L22 11ZM27 12L27 13L28 13L28 12ZM18 14L18 16L20 16L20 15L21 15L21 14L20 14L20 15L19 15L19 14ZM23 15L23 16L22 16L22 17L23 17L23 18L24 18L24 17L23 17L23 16L24 16L24 15ZM14 16L14 18L13 18L13 19L14 19L14 20L15 20L15 19L16 19L16 21L17 21L17 19L16 19L16 18L15 18L15 16ZM28 16L28 17L29 17L29 16ZM10 17L10 18L11 18L11 17ZM19 17L19 18L20 18L20 17ZM12 20L12 21L13 21L13 20ZM21 21L21 24L24 24L24 21ZM22 22L22 23L23 23L23 22ZM9 23L9 25L10 25L10 24L11 24L11 23ZM19 24L19 26L18 26L18 28L19 28L19 26L20 26L20 24ZM26 25L26 26L27 26L27 27L28 27L28 26L27 26L27 25ZM22 27L22 28L23 28L23 29L25 29L25 28L23 28L23 27ZM0 0L0 7L7 7L7 0ZM1 1L1 6L6 6L6 1ZM2 2L2 5L5 5L5 2ZM22 0L22 7L29 7L29 0ZM23 1L23 6L28 6L28 1ZM24 2L24 5L27 5L27 2ZM0 22L0 29L7 29L7 22ZM1 23L1 28L6 28L6 23ZM2 24L2 27L5 27L5 24Z" fill="#000000"/></g></g></svg>
