<?xml version="1.0" encoding="UTF-8"?>
<svg xmlns="http://www.w3.org/2000/svg" version="1.1" width="200" height="200" viewBox="0 0 200 200"><rect x="0" y="0" width="200" height="200" fill="#ffffff"/><g transform="scale(6.897)"><g transform="translate(0,0)"><path fill-rule="evenodd" d="M8 0L8 3L10 3L10 4L9 4L9 5L8 5L8 9L7 9L7 8L6 8L6 9L7 9L7 10L5 10L5 8L2 8L2 9L1 9L1 10L2 10L2 9L3 9L3 10L4 10L4 11L5 11L5 12L4 12L4 13L5 13L5 12L6 12L6 13L7 13L7 12L8 12L8 13L9 13L9 15L7 15L7 14L6 14L6 15L7 15L7 16L5 16L5 17L1 17L1 16L0 16L0 21L1 21L1 18L2 18L2 21L8 21L8 22L9 22L9 23L11 23L11 22L12 22L12 23L13 23L13 25L12 25L12 24L10 24L10 25L9 25L9 24L8 24L8 27L9 27L9 28L10 28L10 29L11 29L11 28L13 28L13 29L16 29L16 28L17 28L17 27L18 27L18 29L26 29L26 27L27 27L27 29L28 29L28 28L29 28L29 27L28 27L28 25L26 25L26 24L25 24L25 22L26 22L26 23L27 23L27 22L26 22L26 21L25 21L25 20L23 20L23 19L22 19L22 18L20 18L20 19L21 19L21 20L20 20L20 25L19 25L19 24L18 24L18 23L16 23L16 24L17 24L17 25L16 25L16 28L14 28L14 27L15 27L15 25L14 25L14 24L15 24L15 23L13 23L13 21L16 21L16 22L18 22L18 21L17 21L17 20L13 20L13 19L11 19L11 18L9 18L9 15L10 15L10 16L12 16L12 17L14 17L14 18L15 18L15 17L16 17L16 16L17 16L17 15L18 15L18 17L17 17L17 18L18 18L18 17L19 17L19 15L18 15L18 13L20 13L20 12L21 12L21 11L20 11L20 10L22 10L22 9L23 9L23 10L24 10L24 8L21 8L21 9L20 9L20 7L21 7L21 5L20 5L20 4L21 4L21 3L20 3L20 4L19 4L19 3L18 3L18 4L17 4L17 3L15 3L15 2L14 2L14 5L13 5L13 6L12 6L12 9L11 9L11 6L10 6L10 4L11 4L11 5L12 5L12 4L13 4L13 2L12 2L12 4L11 4L11 0ZM12 0L12 1L15 1L15 0ZM9 1L9 2L10 2L10 1ZM16 1L16 2L17 2L17 1ZM18 1L18 2L19 2L19 1ZM20 1L20 2L21 2L21 1ZM16 4L16 5L15 5L15 8L14 8L14 6L13 6L13 9L14 9L14 12L16 12L16 13L15 13L15 14L14 14L14 13L13 13L13 12L11 12L11 11L12 11L12 10L10 10L10 11L9 11L9 9L10 9L10 6L9 6L9 9L8 9L8 10L7 10L7 11L6 11L6 12L7 12L7 11L8 11L8 12L11 12L11 13L10 13L10 14L11 14L11 13L12 13L12 16L14 16L14 15L15 15L15 16L16 16L16 15L17 15L17 12L16 12L16 11L17 11L17 9L19 9L19 10L20 10L20 9L19 9L19 8L16 8L16 6L17 6L17 7L18 7L18 6L19 6L19 7L20 7L20 6L19 6L19 5L18 5L18 6L17 6L17 4ZM15 8L15 9L16 9L16 8ZM26 8L26 9L25 9L25 12L24 12L24 11L22 11L22 12L23 12L23 13L21 13L21 15L22 15L22 14L23 14L23 13L24 13L24 19L25 19L25 18L26 18L26 20L28 20L28 22L29 22L29 20L28 20L28 19L27 19L27 17L28 17L28 16L25 16L25 15L28 15L28 10L29 10L29 8ZM15 10L15 11L16 11L16 10ZM0 11L0 12L1 12L1 13L0 13L0 15L1 15L1 14L2 14L2 13L3 13L3 11ZM18 11L18 12L19 12L19 11ZM25 12L25 13L26 13L26 14L27 14L27 12ZM4 14L4 15L5 15L5 14ZM15 14L15 15L16 15L16 14ZM7 16L7 17L5 17L5 18L4 18L4 19L3 19L3 20L4 20L4 19L6 19L6 20L8 20L8 21L11 21L11 20L9 20L9 19L8 19L8 16ZM20 16L20 17L22 17L22 16ZM6 18L6 19L7 19L7 18ZM18 19L18 20L19 20L19 19ZM12 20L12 21L13 21L13 20ZM21 21L21 24L24 24L24 21ZM22 22L22 23L23 23L23 22ZM10 25L10 26L9 26L9 27L10 27L10 28L11 28L11 27L13 27L13 26L14 26L14 25L13 25L13 26L12 26L12 25ZM17 25L17 26L18 26L18 27L19 27L19 28L22 28L22 27L21 27L21 26L20 26L20 27L19 27L19 26L18 26L18 25ZM22 25L22 26L23 26L23 27L25 27L25 26L26 26L26 25L25 25L25 26L24 26L24 25ZM10 26L10 27L11 27L11 26ZM0 0L0 7L7 7L7 0ZM1 1L1 6L6 6L6 1ZM2 2L2 5L5 5L5 2ZM22 0L22 7L29 7L29 0ZM23 1L23 6L28 6L28 1ZM24 2L24 5L27 5L27 2ZM0 22L0 29L7 29L7 22ZM1 23L1 28L6 28L6 23ZM2 24L2 27L5 27L5 24Z" fill="#000000"/></g></g></svg>
