<?xml version="1.0" encoding="UTF-8"?>
<svg xmlns="http://www.w3.org/2000/svg" version="1.1" width="200" height="200" viewBox="0 0 200 200"><rect x="0" y="0" width="200" height="200" fill="#ffffff"/><g transform="scale(4.878)"><g transform="translate(0,0)"><path fill-rule="evenodd" d="M8 0L8 2L11 2L11 4L12 4L12 5L11 5L11 6L10 6L10 7L9 7L9 5L10 5L10 4L9 4L9 3L8 3L8 7L9 7L9 9L7 9L7 8L6 8L6 9L5 9L5 10L3 10L3 9L4 9L4 8L3 8L3 9L1 9L1 11L0 11L0 12L1 12L1 11L2 11L2 12L3 12L3 13L7 13L7 12L3 12L3 11L5 11L5 10L6 10L6 11L7 11L7 10L8 10L8 13L9 13L9 14L8 14L8 15L7 15L7 14L6 14L6 15L7 15L7 16L5 16L5 18L4 18L4 17L1 17L1 16L0 16L0 17L1 17L1 19L2 19L2 18L4 18L4 19L3 19L3 21L2 21L2 20L1 20L1 21L2 21L2 22L0 22L0 23L1 23L1 24L0 24L0 26L1 26L1 27L0 27L0 28L1 28L1 29L2 29L2 28L3 28L3 29L4 29L4 28L3 28L3 27L5 27L5 26L6 26L6 27L7 27L7 26L8 26L8 28L9 28L9 27L12 27L12 28L11 28L11 30L12 30L12 28L13 28L13 31L15 31L15 32L12 32L12 34L11 34L11 31L10 31L10 33L8 33L8 32L5 32L5 30L2 30L2 31L4 31L4 32L3 32L3 33L4 33L4 32L5 32L5 33L8 33L8 34L11 34L11 36L10 36L10 37L12 37L12 38L11 38L11 39L10 39L10 38L9 38L9 37L8 37L8 38L9 38L9 41L12 41L12 40L11 40L11 39L15 39L15 40L13 40L13 41L16 41L16 40L18 40L18 41L21 41L21 40L24 40L24 41L26 41L26 40L27 40L27 39L26 39L26 40L24 40L24 34L25 34L25 33L26 33L26 36L25 36L25 38L27 38L27 37L28 37L28 39L29 39L29 41L30 41L30 39L31 39L31 40L32 40L32 41L33 41L33 39L34 39L34 38L36 38L36 40L37 40L37 41L40 41L40 39L41 39L41 38L40 38L40 37L39 37L39 38L40 38L40 39L39 39L39 40L38 40L38 39L37 39L37 38L36 38L36 37L37 37L37 35L38 35L38 36L40 36L40 35L39 35L39 34L41 34L41 29L40 29L40 27L41 27L41 26L40 26L40 27L39 27L39 28L37 28L37 29L38 29L38 30L37 30L37 32L36 32L36 30L35 30L35 31L34 31L34 29L36 29L36 28L35 28L35 27L38 27L38 26L39 26L39 25L40 25L40 24L41 24L41 23L40 23L40 22L39 22L39 23L38 23L38 21L40 21L40 20L41 20L41 16L39 16L39 17L38 17L38 18L39 18L39 19L40 19L40 20L37 20L37 19L36 19L36 20L35 20L35 19L34 19L34 18L35 18L35 17L36 17L36 15L37 15L37 16L38 16L38 15L41 15L41 14L40 14L40 13L41 13L41 11L40 11L40 13L39 13L39 11L38 11L38 13L39 13L39 14L36 14L36 13L35 13L35 12L34 12L34 15L35 15L35 17L33 17L33 15L32 15L32 14L33 14L33 10L35 10L35 9L37 9L37 10L36 10L36 12L37 12L37 10L38 10L38 8L35 8L35 9L33 9L33 8L32 8L32 7L33 7L33 6L32 6L32 5L31 5L31 6L30 6L30 7L29 7L29 5L30 5L30 1L32 1L32 0L30 0L30 1L29 1L29 0L27 0L27 1L26 1L26 0L21 0L21 1L23 1L23 2L24 2L24 1L25 1L25 3L23 3L23 5L21 5L21 3L20 3L20 4L19 4L19 2L20 2L20 0L15 0L15 1L13 1L13 2L12 2L12 1L11 1L11 0ZM16 1L16 3L17 3L17 4L16 4L16 5L14 5L14 4L15 4L15 2L14 2L14 4L13 4L13 3L12 3L12 4L13 4L13 5L12 5L12 6L11 6L11 7L12 7L12 8L10 8L10 9L11 9L11 11L9 11L9 13L10 13L10 12L13 12L13 13L11 13L11 14L9 14L9 15L8 15L8 16L9 16L9 15L11 15L11 16L10 16L10 17L9 17L9 19L8 19L8 17L6 17L6 18L5 18L5 20L7 20L7 19L8 19L8 20L9 20L9 19L10 19L10 18L11 18L11 19L13 19L13 20L10 20L10 21L9 21L9 23L8 23L8 22L7 22L7 21L6 21L6 22L4 22L4 21L3 21L3 22L2 22L2 23L3 23L3 24L2 24L2 27L3 27L3 25L5 25L5 24L7 24L7 23L8 23L8 24L9 24L9 23L11 23L11 24L10 24L10 25L8 25L8 26L10 26L10 25L11 25L11 26L13 26L13 27L14 27L14 28L15 28L15 27L14 27L14 26L17 26L17 27L16 27L16 28L17 28L17 27L18 27L18 28L19 28L19 29L20 29L20 30L21 30L21 32L20 32L20 33L19 33L19 34L18 34L18 31L17 31L17 30L18 30L18 29L14 29L14 30L15 30L15 31L16 31L16 32L15 32L15 33L16 33L16 34L17 34L17 35L15 35L15 36L14 36L14 34L13 34L13 35L12 35L12 36L14 36L14 38L15 38L15 39L16 39L16 38L15 38L15 36L19 36L19 37L17 37L17 39L18 39L18 40L21 40L21 39L18 39L18 38L19 38L19 37L20 37L20 36L21 36L21 37L23 37L23 36L21 36L21 35L23 35L23 34L24 34L24 32L23 32L23 34L22 34L22 33L21 33L21 32L22 32L22 31L25 31L25 30L23 30L23 29L25 29L25 28L27 28L27 29L26 29L26 30L27 30L27 29L29 29L29 31L27 31L27 32L29 32L29 33L30 33L30 32L31 32L31 35L32 35L32 32L34 32L34 31L33 31L33 30L31 30L31 28L32 28L32 29L33 29L33 27L32 27L32 26L34 26L34 27L35 27L35 25L34 25L34 23L37 23L37 22L36 22L36 21L35 21L35 22L34 22L34 19L33 19L33 17L32 17L32 15L31 15L31 14L32 14L32 11L31 11L31 10L33 10L33 9L32 9L32 8L31 8L31 7L32 7L32 6L31 6L31 7L30 7L30 8L28 8L28 9L27 9L27 10L25 10L25 9L23 9L23 7L24 7L24 8L27 8L27 7L28 7L28 6L27 6L27 7L26 7L26 5L25 5L25 4L24 4L24 5L23 5L23 7L22 7L22 6L21 6L21 8L20 8L20 9L21 9L21 10L22 10L22 11L19 11L19 12L18 12L18 13L17 13L17 12L15 12L15 13L17 13L17 14L15 14L15 15L17 15L17 14L18 14L18 15L19 15L19 16L20 16L20 15L23 15L23 16L21 16L21 17L20 17L20 18L23 18L23 20L22 20L22 19L21 19L21 21L20 21L20 20L19 20L19 19L15 19L15 20L14 20L14 19L13 19L13 18L14 18L14 17L15 17L15 18L16 18L16 17L17 17L17 16L16 16L16 17L15 17L15 16L13 16L13 17L12 17L12 14L14 14L14 12L13 12L13 11L12 11L12 10L14 10L14 11L16 11L16 10L17 10L17 11L18 11L18 10L19 10L19 9L18 9L18 10L17 10L17 7L18 7L18 8L19 8L19 7L20 7L20 5L18 5L18 2L19 2L19 1L18 1L18 2L17 2L17 1ZM28 1L28 2L26 2L26 3L27 3L27 4L29 4L29 1ZM32 2L32 3L31 3L31 4L32 4L32 3L33 3L33 2ZM13 5L13 6L12 6L12 7L13 7L13 8L12 8L12 9L13 9L13 8L15 8L15 10L16 10L16 7L17 7L17 6L18 6L18 7L19 7L19 6L18 6L18 5L17 5L17 6L16 6L16 7L15 7L15 6L14 6L14 5ZM24 5L24 7L25 7L25 5ZM13 6L13 7L14 7L14 6ZM39 8L39 9L40 9L40 10L41 10L41 8ZM6 9L6 10L7 10L7 9ZM29 9L29 10L28 10L28 12L29 12L29 13L27 13L27 12L26 12L26 14L29 14L29 19L26 19L26 18L24 18L24 21L23 21L23 22L24 22L24 23L22 23L22 21L21 21L21 22L20 22L20 21L19 21L19 20L18 20L18 22L20 22L20 23L22 23L22 24L20 24L20 25L23 25L23 27L22 27L22 26L21 26L21 28L20 28L20 29L21 29L21 30L22 30L22 29L21 29L21 28L23 28L23 27L24 27L24 28L25 28L25 27L26 27L26 26L27 26L27 25L28 25L28 28L29 28L29 29L30 29L30 28L31 28L31 27L30 27L30 26L32 26L32 25L31 25L31 24L32 24L32 23L33 23L33 21L32 21L32 22L30 22L30 20L29 20L29 19L30 19L30 18L31 18L31 15L30 15L30 13L31 13L31 12L29 12L29 11L30 11L30 9ZM23 10L23 11L24 11L24 10ZM19 12L19 15L20 15L20 12ZM24 12L24 14L23 14L23 15L24 15L24 17L25 17L25 16L28 16L28 15L24 15L24 14L25 14L25 12ZM0 13L0 14L1 14L1 15L2 15L2 16L3 16L3 15L2 15L2 13ZM21 13L21 14L22 14L22 13ZM4 14L4 15L5 15L5 14ZM11 17L11 18L12 18L12 17ZM6 18L6 19L7 19L7 18ZM25 19L25 20L26 20L26 21L25 21L25 22L26 22L26 23L28 23L28 25L29 25L29 26L30 26L30 25L29 25L29 24L31 24L31 23L28 23L28 22L29 22L29 20L26 20L26 19ZM31 19L31 20L32 20L32 19ZM13 20L13 21L14 21L14 20ZM10 21L10 22L11 22L11 23L12 23L12 24L11 24L11 25L12 25L12 24L13 24L13 25L15 25L15 24L16 24L16 25L17 25L17 26L18 26L18 27L20 27L20 26L18 26L18 25L19 25L19 24L18 24L18 23L15 23L15 22L12 22L12 21ZM16 21L16 22L17 22L17 21ZM6 22L6 23L7 23L7 22ZM4 23L4 24L5 24L5 23ZM39 23L39 24L38 24L38 25L39 25L39 24L40 24L40 23ZM17 24L17 25L18 25L18 24ZM24 24L24 26L25 26L25 24ZM36 24L36 26L37 26L37 24ZM6 25L6 26L7 26L7 25ZM5 28L5 29L7 29L7 30L6 30L6 31L7 31L7 30L8 30L8 31L9 31L9 30L8 30L8 29L7 29L7 28ZM0 30L0 31L1 31L1 30ZM30 30L30 31L29 31L29 32L30 32L30 31L31 31L31 30ZM38 30L38 32L37 32L37 34L39 34L39 33L38 33L38 32L39 32L39 31L40 31L40 30ZM0 32L0 33L1 33L1 32ZM16 32L16 33L17 33L17 32ZM27 33L27 35L28 35L28 37L30 37L30 34L29 34L29 35L28 35L28 33ZM33 33L33 36L36 36L36 33ZM19 34L19 36L20 36L20 35L21 35L21 34ZM34 34L34 35L35 35L35 34ZM31 36L31 37L32 37L32 38L31 38L31 39L33 39L33 37L32 37L32 36ZM22 38L22 39L23 39L23 38ZM29 38L29 39L30 39L30 38ZM0 0L0 7L7 7L7 0ZM1 1L1 6L6 6L6 1ZM2 2L2 5L5 5L5 2ZM34 0L34 7L41 7L41 0ZM35 1L35 6L40 6L40 1ZM36 2L36 5L39 5L39 2ZM0 34L0 41L7 41L7 34ZM1 35L1 40L6 40L6 35ZM2 36L2 39L5 39L5 36Z" fill="#000000"/></g></g></svg>
