<?xml version="1.0" encoding="UTF-8"?>
<svg xmlns="http://www.w3.org/2000/svg" version="1.1" width="200" height="200" viewBox="0 0 200 200"><rect x="0" y="0" width="200" height="200" fill="#ffffff"/><g transform="scale(4.878)"><g transform="translate(0,0)"><path fill-rule="evenodd" d="M8 0L8 3L10 3L10 4L9 4L9 5L8 5L8 9L7 9L7 8L6 8L6 9L5 9L5 8L2 8L2 9L1 9L1 10L0 10L0 11L1 11L1 10L2 10L2 9L4 9L4 10L3 10L3 12L0 12L0 13L1 13L1 14L0 14L0 17L1 17L1 15L2 15L2 16L3 16L3 17L4 17L4 18L3 18L3 19L4 19L4 18L6 18L6 19L8 19L8 20L6 20L6 21L8 21L8 22L9 22L9 21L10 21L10 22L11 22L11 23L9 23L9 24L8 24L8 25L7 25L7 24L6 24L6 23L7 23L7 22L4 22L4 21L5 21L5 20L4 20L4 21L3 21L3 20L2 20L2 18L0 18L0 20L1 20L1 21L0 21L0 22L1 22L1 23L0 23L0 25L2 25L2 24L4 24L4 25L3 25L3 26L1 26L1 28L0 28L0 33L1 33L1 28L2 28L2 30L3 30L3 32L2 32L2 33L8 33L8 34L9 34L9 36L8 36L8 39L9 39L9 41L10 41L10 40L11 40L11 41L13 41L13 40L11 40L11 36L10 36L10 34L11 34L11 35L12 35L12 36L13 36L13 37L14 37L14 39L16 39L16 40L14 40L14 41L16 41L16 40L18 40L18 41L19 41L19 38L21 38L21 40L24 40L24 41L27 41L27 40L28 40L28 39L30 39L30 38L31 38L31 37L30 37L30 38L27 38L27 40L26 40L26 38L24 38L24 37L25 37L25 36L27 36L27 37L29 37L29 36L32 36L32 37L33 37L33 38L32 38L32 39L31 39L31 40L33 40L33 41L34 41L34 40L33 40L33 38L34 38L34 39L35 39L35 40L36 40L36 39L37 39L37 40L40 40L40 38L41 38L41 37L40 37L40 36L41 36L41 35L40 35L40 34L41 34L41 32L37 32L37 31L38 31L38 30L39 30L39 31L40 31L40 30L41 30L41 29L40 29L40 28L41 28L41 27L40 27L40 26L41 26L41 23L39 23L39 24L40 24L40 26L39 26L39 25L36 25L36 24L37 24L37 23L38 23L38 21L39 21L39 20L36 20L36 19L35 19L35 17L36 17L36 18L37 18L37 19L40 19L40 18L41 18L41 16L40 16L40 18L37 18L37 17L39 17L39 16L37 16L37 15L38 15L38 14L37 14L37 13L36 13L36 14L37 14L37 15L35 15L35 17L34 17L34 16L32 16L32 17L31 17L31 12L32 12L32 13L33 13L33 14L32 14L32 15L34 15L34 13L35 13L35 11L37 11L37 12L38 12L38 11L39 11L39 12L41 12L41 11L40 11L40 10L41 10L41 8L38 8L38 9L40 9L40 10L37 10L37 9L36 9L36 8L33 8L33 6L32 6L32 7L31 7L31 6L30 6L30 8L29 8L29 6L28 6L28 5L27 5L27 4L25 4L25 1L24 1L24 0L19 0L19 1L20 1L20 2L19 2L19 3L18 3L18 1L17 1L17 0L16 0L16 1L15 1L15 0L12 0L12 1L11 1L11 2L10 2L10 0ZM26 0L26 1L27 1L27 2L26 2L26 3L28 3L28 4L29 4L29 3L31 3L31 4L30 4L30 5L32 5L32 4L33 4L33 3L31 3L31 2L30 2L30 1L33 1L33 0L29 0L29 1L27 1L27 0ZM16 1L16 2L17 2L17 1ZM22 1L22 2L20 2L20 4L21 4L21 5L19 5L19 4L18 4L18 3L16 3L16 4L17 4L17 7L16 7L16 5L15 5L15 4L11 4L11 8L12 8L12 9L13 9L13 10L10 10L10 11L9 11L9 15L8 15L8 13L6 13L6 12L8 12L8 11L6 11L6 12L5 12L5 11L4 11L4 12L3 12L3 13L2 13L2 14L3 14L3 15L4 15L4 12L5 12L5 14L7 14L7 15L6 15L6 16L5 16L5 17L6 17L6 18L8 18L8 19L11 19L11 20L10 20L10 21L12 21L12 22L14 22L14 23L18 23L18 21L19 21L19 22L22 22L22 21L23 21L23 24L22 24L22 25L21 25L21 26L22 26L22 27L19 27L19 28L18 28L18 27L17 27L17 26L15 26L15 27L14 27L14 29L13 29L13 28L11 28L11 27L8 27L8 26L9 26L9 25L10 25L10 26L11 26L11 25L10 25L10 24L9 24L9 25L8 25L8 26L7 26L7 25L6 25L6 26L7 26L7 27L6 27L6 28L4 28L4 27L5 27L5 26L3 26L3 28L4 28L4 29L3 29L3 30L4 30L4 31L5 31L5 29L6 29L6 30L7 30L7 31L6 31L6 32L8 32L8 33L9 33L9 32L11 32L11 34L12 34L12 35L13 35L13 36L14 36L14 37L15 37L15 36L16 36L16 38L17 38L17 39L18 39L18 36L19 36L19 37L20 37L20 36L21 36L21 37L22 37L22 36L23 36L23 35L22 35L22 36L21 36L21 32L20 32L20 31L22 31L22 34L25 34L25 35L26 35L26 33L27 33L27 34L29 34L29 33L27 33L27 30L26 30L26 29L27 29L27 28L31 28L31 29L28 29L28 30L30 30L30 31L28 31L28 32L31 32L31 30L32 30L32 31L33 31L33 32L36 32L36 31L34 31L34 30L36 30L36 29L37 29L37 30L38 30L38 29L39 29L39 26L38 26L38 28L36 28L36 27L37 27L37 26L36 26L36 25L35 25L35 24L36 24L36 23L34 23L34 25L32 25L32 24L31 24L31 23L33 23L33 22L34 22L34 21L35 21L35 22L36 22L36 21L35 21L35 19L34 19L34 18L33 18L33 17L32 17L32 18L31 18L31 17L29 17L29 16L30 16L30 15L29 15L29 14L30 14L30 13L29 13L29 12L31 12L31 11L32 11L32 10L31 10L31 9L33 9L33 11L34 11L34 9L33 9L33 8L31 8L31 9L29 9L29 8L28 8L28 6L27 6L27 5L25 5L25 4L24 4L24 2L23 2L23 1ZM11 2L11 3L12 3L12 2ZM14 2L14 3L15 3L15 2ZM22 2L22 3L23 3L23 2ZM22 4L22 7L21 7L21 6L20 6L20 7L19 7L19 5L18 5L18 8L15 8L15 9L14 9L14 8L13 8L13 9L14 9L14 10L13 10L13 11L12 11L12 13L10 13L10 14L11 14L11 15L10 15L10 16L8 16L8 15L7 15L7 16L6 16L6 17L9 17L9 18L11 18L11 19L12 19L12 20L13 20L13 21L14 21L14 20L13 20L13 16L14 16L14 19L15 19L15 20L16 20L16 22L17 22L17 21L18 21L18 20L19 20L19 21L22 21L22 20L21 20L21 19L23 19L23 21L25 21L25 24L23 24L23 25L24 25L24 26L25 26L25 27L23 27L23 28L24 28L24 29L23 29L23 30L22 30L22 29L21 29L21 30L22 30L22 31L26 31L26 30L25 30L25 28L27 28L27 27L29 27L29 26L30 26L30 25L31 25L31 26L32 26L32 27L31 27L31 28L33 28L33 29L32 29L32 30L33 30L33 29L34 29L34 28L33 28L33 27L34 27L34 26L35 26L35 25L34 25L34 26L32 26L32 25L31 25L31 24L28 24L28 23L31 23L31 22L32 22L32 21L34 21L34 20L32 20L32 19L31 19L31 18L30 18L30 19L31 19L31 20L30 20L30 21L31 21L31 22L29 22L29 21L28 21L28 20L29 20L29 18L26 18L26 19L25 19L25 17L24 17L24 18L23 18L23 17L22 17L22 18L21 18L21 17L20 17L20 16L18 16L18 18L16 18L16 17L17 17L17 16L14 16L14 15L16 15L16 14L17 14L17 13L19 13L19 15L22 15L22 16L24 16L24 15L23 15L23 14L21 14L21 13L20 13L20 12L21 12L21 10L23 10L23 8L24 8L24 10L25 10L25 12L23 12L23 13L24 13L24 14L25 14L25 16L26 16L26 17L27 17L27 14L29 14L29 13L28 13L28 12L29 12L29 11L28 11L28 10L29 10L29 9L28 9L28 8L27 8L27 6L26 6L26 7L25 7L25 6L24 6L24 7L23 7L23 4ZM9 5L9 8L10 8L10 5ZM14 5L14 7L15 7L15 5ZM12 6L12 7L13 7L13 6ZM20 7L20 9L19 9L19 8L18 8L18 9L17 9L17 11L16 11L16 10L15 10L15 11L14 11L14 12L13 12L13 13L12 13L12 16L11 16L11 17L12 17L12 16L13 16L13 13L14 13L14 14L16 14L16 13L17 13L17 11L18 11L18 12L20 12L20 10L21 10L21 7ZM22 7L22 8L23 8L23 7ZM25 8L25 9L27 9L27 10L26 10L26 13L25 13L25 14L26 14L26 13L27 13L27 12L28 12L28 11L27 11L27 10L28 10L28 9L27 9L27 8ZM6 9L6 10L7 10L7 9ZM35 9L35 10L36 10L36 9ZM18 10L18 11L19 11L19 10ZM30 10L30 11L31 11L31 10ZM10 11L10 12L11 12L11 11ZM15 12L15 13L16 13L16 12ZM33 12L33 13L34 13L34 12ZM39 13L39 14L41 14L41 13ZM28 15L28 16L29 16L29 15ZM36 16L36 17L37 17L37 16ZM15 18L15 19L16 19L16 20L18 20L18 19L16 19L16 18ZM24 19L24 20L25 20L25 21L26 21L26 20L27 20L27 19L26 19L26 20L25 20L25 19ZM31 20L31 21L32 21L32 20ZM40 20L40 21L41 21L41 20ZM2 21L2 22L3 22L3 23L4 23L4 24L5 24L5 23L4 23L4 22L3 22L3 21ZM27 21L27 22L28 22L28 21ZM1 23L1 24L2 24L2 23ZM11 23L11 24L12 24L12 23ZM19 23L19 24L18 24L18 26L20 26L20 23ZM26 23L26 24L27 24L27 25L26 25L26 27L27 27L27 26L29 26L29 25L28 25L28 24L27 24L27 23ZM13 24L13 25L12 25L12 27L13 27L13 26L14 26L14 24ZM7 27L7 28L6 28L6 29L8 29L8 30L9 30L9 29L10 29L10 30L11 30L11 32L12 32L12 33L13 33L13 34L14 34L14 33L13 33L13 32L12 32L12 31L16 31L16 32L15 32L15 34L16 34L16 36L17 36L17 34L16 34L16 32L17 32L17 33L18 33L18 35L20 35L20 32L19 32L19 31L17 31L17 29L18 29L18 28L17 28L17 29L16 29L16 27L15 27L15 29L14 29L14 30L13 30L13 29L12 29L12 30L11 30L11 28L9 28L9 29L8 29L8 27ZM19 28L19 30L20 30L20 28ZM35 28L35 29L36 29L36 28ZM15 29L15 30L16 30L16 29ZM23 32L23 33L25 33L25 32ZM30 33L30 35L31 35L31 34L32 34L32 33ZM33 33L33 36L36 36L36 33ZM37 33L37 34L38 34L38 36L37 36L37 37L38 37L38 36L40 36L40 35L39 35L39 34L38 34L38 33ZM34 34L34 35L35 35L35 34ZM14 35L14 36L15 36L15 35ZM27 35L27 36L28 36L28 35ZM9 37L9 38L10 38L10 37ZM34 37L34 38L36 38L36 37ZM12 38L12 39L13 39L13 38ZM22 38L22 39L24 39L24 38ZM37 38L37 39L38 39L38 38ZM29 40L29 41L30 41L30 40ZM0 0L0 7L7 7L7 0ZM1 1L1 6L6 6L6 1ZM2 2L2 5L5 5L5 2ZM34 0L34 7L41 7L41 0ZM35 1L35 6L40 6L40 1ZM36 2L36 5L39 5L39 2ZM0 34L0 41L7 41L7 34ZM1 35L1 40L6 40L6 35ZM2 36L2 39L5 39L5 36Z" fill="#000000"/></g></g></svg>
