<?xml version="1.0" encoding="UTF-8"?>
<svg xmlns="http://www.w3.org/2000/svg" version="1.1" width="200" height="200" viewBox="0 0 200 200"><rect x="0" y="0" width="200" height="200" fill="#ffffff"/><g transform="scale(6.897)"><g transform="translate(0,0)"><path fill-rule="evenodd" d="M9 0L9 2L11 2L11 3L10 3L10 4L8 4L8 5L10 5L10 7L9 7L9 6L8 6L8 8L6 8L6 9L4 9L4 8L2 8L2 9L1 9L1 10L0 10L0 11L1 11L1 10L2 10L2 11L3 11L3 12L4 12L4 13L2 13L2 12L1 12L1 13L0 13L0 17L1 17L1 15L2 15L2 14L3 14L3 15L4 15L4 14L6 14L6 15L5 15L5 18L6 18L6 19L8 19L8 20L9 20L9 21L8 21L8 23L9 23L9 22L11 22L11 23L12 23L12 24L9 24L9 25L8 25L8 27L9 27L9 29L14 29L14 27L15 27L15 29L16 29L16 27L18 27L18 28L17 28L17 29L18 29L18 28L19 28L19 29L20 29L20 28L19 28L19 26L20 26L20 25L23 25L23 26L24 26L24 27L22 27L22 29L23 29L23 28L25 28L25 29L26 29L26 28L25 28L25 26L26 26L26 27L27 27L27 28L29 28L29 26L28 26L28 27L27 27L27 25L26 25L26 23L25 23L25 22L26 22L26 20L27 20L27 21L28 21L28 22L27 22L27 24L29 24L29 23L28 23L28 22L29 22L29 21L28 21L28 20L27 20L27 18L29 18L29 17L26 17L26 16L25 16L25 15L24 15L24 16L23 16L23 17L21 17L21 18L20 18L20 17L19 17L19 18L20 18L20 20L18 20L18 19L17 19L17 20L18 20L18 21L16 21L16 22L14 22L14 21L15 21L15 20L16 20L16 17L17 17L17 18L18 18L18 17L17 17L17 14L16 14L16 13L15 13L15 12L13 12L13 11L16 11L16 12L17 12L17 13L18 13L18 14L19 14L19 15L20 15L20 14L21 14L21 13L20 13L20 12L22 12L22 9L23 9L23 13L22 13L22 15L23 15L23 14L24 14L24 13L25 13L25 14L26 14L26 15L27 15L27 14L28 14L28 15L29 15L29 14L28 14L28 12L29 12L29 11L28 11L28 12L27 12L27 10L29 10L29 9L25 9L25 8L24 8L24 9L23 9L23 8L21 8L21 3L20 3L20 2L18 2L18 1L17 1L17 0L16 0L16 1L15 1L15 0L13 0L13 1L14 1L14 2L12 2L12 1L10 1L10 0ZM16 1L16 2L15 2L15 3L16 3L16 2L17 2L17 4L14 4L14 3L13 3L13 5L14 5L14 6L13 6L13 7L12 7L12 3L11 3L11 4L10 4L10 5L11 5L11 7L10 7L10 10L8 10L8 9L6 9L6 10L5 10L5 11L6 11L6 12L5 12L5 13L6 13L6 14L8 14L8 15L9 15L9 16L7 16L7 15L6 15L6 16L7 16L7 17L6 17L6 18L7 18L7 17L8 17L8 18L9 18L9 17L10 17L10 18L11 18L11 17L10 17L10 15L11 15L11 14L12 14L12 13L13 13L13 12L12 12L12 13L9 13L9 14L8 14L8 13L6 13L6 12L9 12L9 11L11 11L11 10L12 10L12 11L13 11L13 10L12 10L12 8L13 8L13 9L16 9L16 10L17 10L17 11L19 11L19 12L20 12L20 11L19 11L19 10L20 10L20 9L21 9L21 8L19 8L19 7L20 7L20 5L19 5L19 4L20 4L20 3L19 3L19 4L18 4L18 2L17 2L17 1ZM15 5L15 6L14 6L14 7L15 7L15 8L17 8L17 6L18 6L18 7L19 7L19 5ZM15 6L15 7L16 7L16 6ZM11 7L11 8L12 8L12 7ZM18 8L18 9L17 9L17 10L19 10L19 8ZM3 9L3 10L4 10L4 9ZM24 9L24 10L25 10L25 9ZM6 10L6 11L8 11L8 10ZM25 11L25 13L27 13L27 12L26 12L26 11ZM14 13L14 14L15 14L15 16L13 16L13 15L12 15L12 17L16 17L16 14L15 14L15 13ZM19 13L19 14L20 14L20 13ZM9 14L9 15L10 15L10 14ZM2 16L2 17L3 17L3 20L1 20L1 21L3 21L3 20L5 20L5 21L7 21L7 20L5 20L5 19L4 19L4 16ZM24 16L24 17L23 17L23 18L22 18L22 19L21 19L21 20L22 20L22 19L24 19L24 20L26 20L26 19L24 19L24 18L26 18L26 17L25 17L25 16ZM0 18L0 19L1 19L1 18ZM13 18L13 19L12 19L12 20L13 20L13 21L14 21L14 19L15 19L15 18ZM9 19L9 20L10 20L10 19ZM18 21L18 22L19 22L19 23L17 23L17 22L16 22L16 24L15 24L15 23L14 23L14 22L12 22L12 23L14 23L14 25L9 25L9 26L10 26L10 28L13 28L13 27L14 27L14 25L16 25L16 26L15 26L15 27L16 27L16 26L17 26L17 24L18 24L18 25L20 25L20 24L19 24L19 23L20 23L20 21ZM21 21L21 24L24 24L24 21ZM22 22L22 23L23 23L23 22ZM24 25L24 26L25 26L25 25ZM11 26L11 27L12 27L12 26ZM0 0L0 7L7 7L7 0ZM1 1L1 6L6 6L6 1ZM2 2L2 5L5 5L5 2ZM22 0L22 7L29 7L29 0ZM23 1L23 6L28 6L28 1ZM24 2L24 5L27 5L27 2ZM0 22L0 29L7 29L7 22ZM1 23L1 28L6 28L6 23ZM2 24L2 27L5 27L5 24Z" fill="#000000"/></g></g></svg>
