<?xml version="1.0" encoding="UTF-8"?>
<svg xmlns="http://www.w3.org/2000/svg" version="1.1" width="200" height="200" viewBox="0 0 200 200"><rect x="0" y="0" width="200" height="200" fill="#ffffff"/><g transform="scale(4.878)"><g transform="translate(0,0)"><path fill-rule="evenodd" d="M8 0L8 2L9 2L9 0ZM10 0L10 1L11 1L11 0ZM14 0L14 1L12 1L12 2L10 2L10 3L12 3L12 4L13 4L13 5L14 5L14 7L15 7L15 9L16 9L16 7L17 7L17 11L18 11L18 9L19 9L19 13L18 13L18 12L15 12L15 13L17 13L17 14L19 14L19 15L15 15L15 16L14 16L14 13L13 13L13 11L10 11L10 10L12 10L12 9L13 9L13 10L14 10L14 11L16 11L16 10L14 10L14 8L12 8L12 7L13 7L13 6L12 6L12 5L11 5L11 6L10 6L10 7L11 7L11 9L10 9L10 8L9 8L9 9L8 9L8 12L6 12L6 13L5 13L5 15L3 15L3 14L4 14L4 13L3 13L3 12L1 12L1 11L2 11L2 10L3 10L3 11L4 11L4 10L5 10L5 11L7 11L7 10L6 10L6 9L7 9L7 8L6 8L6 9L4 9L4 8L3 8L3 9L0 9L0 12L1 12L1 13L0 13L0 14L1 14L1 15L0 15L0 18L1 18L1 19L0 19L0 21L1 21L1 22L0 22L0 24L1 24L1 22L3 22L3 23L2 23L2 24L3 24L3 23L5 23L5 26L4 26L4 28L5 28L5 26L6 26L6 27L7 27L7 26L6 26L6 25L8 25L8 27L10 27L10 28L9 28L9 30L8 30L8 31L12 31L12 32L11 32L11 33L8 33L8 32L6 32L6 33L8 33L8 34L10 34L10 35L9 35L9 37L8 37L8 38L9 38L9 40L10 40L10 39L12 39L12 38L13 38L13 39L14 39L14 41L15 41L15 39L17 39L17 40L18 40L18 41L20 41L20 40L18 40L18 39L21 39L21 41L22 41L22 38L24 38L24 39L23 39L23 41L25 41L25 39L26 39L26 41L28 41L28 39L27 39L27 38L25 38L25 37L22 37L22 36L26 36L26 37L27 37L27 36L30 36L30 34L31 34L31 33L32 33L32 35L31 35L31 36L32 36L32 37L31 37L31 38L30 38L30 37L28 37L28 38L30 38L30 39L29 39L29 41L30 41L30 39L31 39L31 38L32 38L32 37L33 37L33 39L32 39L32 40L31 40L31 41L33 41L33 39L34 39L34 38L36 38L36 40L37 40L37 41L40 41L40 39L41 39L41 38L40 38L40 37L41 37L41 35L40 35L40 37L38 37L38 36L39 36L39 34L41 34L41 32L40 32L40 31L41 31L41 28L40 28L40 27L41 27L41 26L40 26L40 27L39 27L39 28L37 28L37 29L38 29L38 30L37 30L37 32L36 32L36 29L35 29L35 31L34 31L34 30L32 30L32 29L33 29L33 28L32 28L32 27L33 27L33 24L34 24L34 25L35 25L35 24L34 24L34 23L37 23L37 24L38 24L38 25L37 25L37 27L38 27L38 26L39 26L39 25L40 25L40 24L41 24L41 23L40 23L40 22L39 22L39 23L38 23L38 22L36 22L36 21L40 21L40 20L41 20L41 16L39 16L39 17L38 17L38 16L37 16L37 17L38 17L38 19L40 19L40 20L37 20L37 19L36 19L36 21L35 21L35 19L34 19L34 18L35 18L35 17L36 17L36 15L35 15L35 14L36 14L36 13L34 13L34 12L36 12L36 11L37 11L37 10L38 10L38 8L35 8L35 9L34 9L34 10L30 10L30 11L33 11L33 14L32 14L32 15L31 15L31 14L30 14L30 13L31 13L31 12L28 12L28 11L29 11L29 10L28 10L28 11L27 11L27 12L28 12L28 13L26 13L26 14L27 14L27 15L26 15L26 16L25 16L25 15L24 15L24 16L23 16L23 15L20 15L20 14L22 14L22 13L23 13L23 14L25 14L25 12L23 12L23 11L26 11L26 10L27 10L27 8L26 8L26 9L25 9L25 8L24 8L24 10L22 10L22 9L19 9L19 8L20 8L20 7L21 7L21 8L22 8L22 7L23 7L23 5L24 5L24 7L25 7L25 5L26 5L26 3L27 3L27 2L28 2L28 1L30 1L30 3L28 3L28 4L27 4L27 6L26 6L26 7L27 7L27 6L28 6L28 8L31 8L31 6L32 6L32 9L33 9L33 6L32 6L32 5L33 5L33 3L32 3L32 2L31 2L31 1L32 1L32 0L27 0L27 2L26 2L26 3L25 3L25 2L24 2L24 1L25 1L25 0L22 0L22 4L21 4L21 3L20 3L20 5L19 5L19 6L18 6L18 7L17 7L17 5L14 5L14 4L13 4L13 3L12 3L12 2L15 2L15 4L16 4L16 3L17 3L17 4L18 4L18 2L20 2L20 1L21 1L21 0L18 0L18 1L17 1L17 2L16 2L16 1L15 1L15 0ZM23 2L23 4L22 4L22 5L21 5L21 7L22 7L22 5L23 5L23 4L25 4L25 3L24 3L24 2ZM8 3L8 7L9 7L9 5L10 5L10 4L9 4L9 3ZM28 4L28 5L30 5L30 6L29 6L29 7L30 7L30 6L31 6L31 5L32 5L32 4L31 4L31 5L30 5L30 4ZM11 6L11 7L12 7L12 6ZM15 6L15 7L16 7L16 6ZM19 6L19 7L18 7L18 8L19 8L19 7L20 7L20 6ZM39 8L39 9L40 9L40 10L41 10L41 8ZM36 9L36 10L37 10L37 9ZM21 10L21 11L22 11L22 10ZM38 11L38 13L37 13L37 14L38 14L38 13L39 13L39 15L41 15L41 14L40 14L40 13L41 13L41 12L40 12L40 11ZM8 12L8 14L11 14L11 17L10 17L10 15L9 15L9 16L8 16L8 17L6 17L6 16L7 16L7 15L6 15L6 16L5 16L5 18L4 18L4 16L3 16L3 15L2 15L2 16L1 16L1 17L2 17L2 18L3 18L3 19L2 19L2 20L1 20L1 21L2 21L2 20L3 20L3 22L4 22L4 20L5 20L5 21L6 21L6 22L5 22L5 23L6 23L6 24L7 24L7 23L6 23L6 22L8 22L8 21L6 21L6 20L7 20L7 19L8 19L8 20L9 20L9 24L8 24L8 25L10 25L10 27L11 27L11 29L10 29L10 30L11 30L11 29L12 29L12 27L13 27L13 29L14 29L14 30L13 30L13 31L14 31L14 32L15 32L15 29L14 29L14 27L16 27L16 26L17 26L17 27L18 27L18 28L19 28L19 27L20 27L20 29L22 29L22 28L23 28L23 27L22 27L22 28L21 28L21 26L19 26L19 24L17 24L17 25L15 25L15 26L14 26L14 27L13 27L13 26L11 26L11 25L13 25L13 24L14 24L14 23L11 23L11 24L10 24L10 22L11 22L11 21L10 21L10 20L12 20L12 19L10 19L10 18L11 18L11 17L12 17L12 16L13 16L13 15L12 15L12 14L13 14L13 13L12 13L12 14L11 14L11 12ZM39 12L39 13L40 13L40 12ZM6 13L6 14L7 14L7 13ZM19 13L19 14L20 14L20 13ZM28 13L28 14L29 14L29 13ZM33 14L33 15L32 15L32 16L33 16L33 17L31 17L31 16L30 16L30 17L29 17L29 16L28 16L28 15L27 15L27 16L26 16L26 17L25 17L25 16L24 16L24 17L25 17L25 19L26 19L26 20L25 20L25 23L27 23L27 24L25 24L25 25L27 25L27 26L24 26L24 24L23 24L23 22L22 22L22 21L21 21L21 22L20 22L20 21L19 21L19 22L20 22L20 23L22 23L22 24L23 24L23 25L22 25L22 26L24 26L24 27L26 27L26 28L24 28L24 29L23 29L23 30L24 30L24 31L22 31L22 30L20 30L20 33L19 33L19 30L18 30L18 29L16 29L16 30L18 30L18 32L17 32L17 31L16 31L16 32L17 32L17 33L19 33L19 35L17 35L17 36L16 36L16 35L13 35L13 38L14 38L14 39L15 39L15 38L16 38L16 37L17 37L17 38L21 38L21 35L20 35L20 33L21 33L21 32L22 32L22 33L24 33L24 34L23 34L23 35L26 35L26 36L27 36L27 35L28 35L28 34L30 34L30 32L27 32L27 31L31 31L31 30L30 30L30 29L28 29L28 28L27 28L27 27L29 27L29 26L30 26L30 27L32 27L32 26L30 26L30 25L29 25L29 24L31 24L31 25L32 25L32 24L31 24L31 22L32 22L32 21L33 21L33 23L34 23L34 19L33 19L33 17L35 17L35 15L34 15L34 14ZM19 15L19 16L18 16L18 17L17 17L17 16L15 16L15 17L17 17L17 19L16 19L16 21L15 21L15 20L13 20L13 21L12 21L12 22L13 22L13 21L14 21L14 22L16 22L16 23L17 23L17 21L18 21L18 20L19 20L19 19L20 19L20 20L21 20L21 18L22 18L22 17L23 17L23 16L21 16L21 18L19 18L19 16L20 16L20 15ZM27 16L27 17L28 17L28 16ZM8 17L8 18L10 18L10 17ZM13 17L13 19L15 19L15 18L14 18L14 17ZM6 18L6 19L5 19L5 20L6 20L6 19L7 19L7 18ZM18 18L18 19L17 19L17 20L18 20L18 19L19 19L19 18ZM23 18L23 19L24 19L24 18ZM26 18L26 19L27 19L27 18ZM30 18L30 19L28 19L28 24L29 24L29 23L30 23L30 22L31 22L31 20L33 20L33 19L31 19L31 18ZM26 20L26 21L27 21L27 20ZM0 25L0 27L1 27L1 26L2 26L2 27L3 27L3 26L2 26L2 25ZM17 25L17 26L18 26L18 27L19 27L19 26L18 26L18 25ZM28 25L28 26L29 26L29 25ZM34 26L34 27L36 27L36 26ZM6 28L6 29L5 29L5 30L4 30L4 31L3 31L3 32L2 32L2 33L3 33L3 32L4 32L4 33L5 33L5 32L4 32L4 31L5 31L5 30L6 30L6 31L7 31L7 30L6 30L6 29L7 29L7 28ZM26 28L26 29L24 29L24 30L25 30L25 31L24 31L24 32L26 32L26 33L25 33L25 34L26 34L26 35L27 35L27 32L26 32L26 31L27 31L27 30L28 30L28 29L27 29L27 28ZM31 28L31 29L32 29L32 28ZM39 28L39 29L40 29L40 28ZM1 29L1 30L0 30L0 31L1 31L1 30L3 30L3 29ZM39 30L39 31L38 31L38 32L37 32L37 34L39 34L39 33L40 33L40 32L39 32L39 31L40 31L40 30ZM33 31L33 32L34 32L34 31ZM0 32L0 33L1 33L1 32ZM12 32L12 33L11 33L11 35L10 35L10 38L12 38L12 37L11 37L11 36L12 36L12 34L13 34L13 32ZM38 32L38 33L39 33L39 32ZM15 33L15 34L16 34L16 33ZM33 33L33 36L36 36L36 33ZM34 34L34 35L35 35L35 34ZM15 36L15 37L14 37L14 38L15 38L15 37L16 37L16 36ZM18 36L18 37L19 37L19 36ZM36 37L36 38L37 38L37 40L38 40L38 38L37 38L37 37ZM39 38L39 39L40 39L40 38ZM11 40L11 41L12 41L12 40ZM0 0L0 7L7 7L7 0ZM1 1L1 6L6 6L6 1ZM2 2L2 5L5 5L5 2ZM34 0L34 7L41 7L41 0ZM35 1L35 6L40 6L40 1ZM36 2L36 5L39 5L39 2ZM0 34L0 41L7 41L7 34ZM1 35L1 40L6 40L6 35ZM2 36L2 39L5 39L5 36Z" fill="#000000"/></g></g></svg>
