<?xml version="1.0" encoding="UTF-8"?>
<svg xmlns="http://www.w3.org/2000/svg" version="1.1" width="200" height="200" viewBox="0 0 200 200"><rect x="0" y="0" width="200" height="200" fill="#ffffff"/><g transform="scale(6.897)"><g transform="translate(0,0)"><path fill-rule="evenodd" d="M8 0L8 3L9 3L9 4L10 4L10 8L9 8L9 5L8 5L8 11L7 11L7 10L6 10L6 11L7 11L7 12L5 12L5 8L2 8L2 9L1 9L1 10L0 10L0 15L2 15L2 16L3 16L3 17L0 17L0 21L1 21L1 18L4 18L4 16L5 16L5 17L7 17L7 18L5 18L5 20L3 20L3 19L2 19L2 20L3 20L3 21L8 21L8 22L9 22L9 23L11 23L11 25L12 25L12 26L11 26L11 28L12 28L12 27L13 27L13 25L14 25L14 24L15 24L15 25L16 25L16 27L15 27L15 28L13 28L13 29L15 29L15 28L16 28L16 29L17 29L17 28L18 28L18 29L25 29L25 27L26 27L26 29L28 29L28 28L29 28L29 27L28 27L28 23L29 23L29 20L28 20L28 19L27 19L27 17L28 17L28 14L26 14L26 13L25 13L25 12L27 12L27 13L28 13L28 10L29 10L29 8L26 8L26 9L27 9L27 10L25 10L25 12L24 12L24 11L22 11L22 12L23 12L23 13L21 13L21 15L22 15L22 14L23 14L23 13L24 13L24 19L25 19L25 20L23 20L23 19L22 19L22 18L20 18L20 19L21 19L21 20L20 20L20 25L19 25L19 26L18 26L18 24L19 24L19 22L16 22L16 21L17 21L17 20L18 20L18 21L19 21L19 18L18 18L18 17L16 17L16 16L17 16L17 15L18 15L18 16L19 16L19 15L18 15L18 14L19 14L19 13L20 13L20 12L21 12L21 11L20 11L20 10L22 10L22 9L23 9L23 10L24 10L24 8L21 8L21 5L20 5L20 4L21 4L21 3L20 3L20 4L19 4L19 3L18 3L18 4L17 4L17 6L16 6L16 8L14 8L14 7L15 7L15 6L14 6L14 7L13 7L13 6L12 6L12 7L11 7L11 5L14 5L14 4L15 4L15 5L16 5L16 4L15 4L15 3L17 3L17 2L16 2L16 1L17 1L17 0L16 0L16 1L15 1L15 0L14 0L14 1L15 1L15 3L14 3L14 2L13 2L13 1L11 1L11 0ZM9 1L9 3L13 3L13 2L10 2L10 1ZM18 1L18 2L19 2L19 1ZM20 1L20 2L21 2L21 1ZM18 4L18 6L17 6L17 7L18 7L18 6L19 6L19 7L20 7L20 6L19 6L19 4ZM6 8L6 9L7 9L7 8ZM10 8L10 9L11 9L11 8ZM12 8L12 9L14 9L14 10L13 10L13 11L11 11L11 10L9 10L9 12L7 12L7 13L5 13L5 12L3 12L3 13L2 13L2 11L1 11L1 14L3 14L3 13L5 13L5 16L7 16L7 17L8 17L8 16L7 16L7 15L9 15L9 16L10 16L10 17L9 17L9 18L8 18L8 21L9 21L9 22L11 22L11 23L12 23L12 24L14 24L14 23L15 23L15 24L16 24L16 25L17 25L17 24L18 24L18 23L16 23L16 22L14 22L14 23L13 23L13 22L11 22L11 21L10 21L10 19L9 19L9 18L10 18L10 17L11 17L11 20L12 20L12 21L13 21L13 20L14 20L14 21L16 21L16 19L18 19L18 18L16 18L16 17L14 17L14 16L15 16L15 15L17 15L17 14L16 14L16 12L15 12L15 13L14 13L14 12L13 12L13 11L14 11L14 10L16 10L16 11L18 11L18 10L17 10L17 9L19 9L19 10L20 10L20 9L21 9L21 8L20 8L20 9L19 9L19 8L17 8L17 9L14 9L14 8ZM9 12L9 13L7 13L7 14L6 14L6 15L7 15L7 14L9 14L9 15L10 15L10 16L12 16L12 17L13 17L13 19L12 19L12 20L13 20L13 19L14 19L14 20L15 20L15 19L16 19L16 18L14 18L14 17L13 17L13 16L14 16L14 14L13 14L13 13L12 13L12 12ZM9 13L9 14L10 14L10 15L11 15L11 14L12 14L12 16L13 16L13 14L12 14L12 13ZM25 15L25 16L27 16L27 15ZM20 16L20 17L22 17L22 16ZM25 18L25 19L26 19L26 20L25 20L25 21L26 21L26 22L25 22L25 24L26 24L26 27L27 27L27 23L26 23L26 22L28 22L28 20L27 20L27 19L26 19L26 18ZM6 19L6 20L7 20L7 19ZM21 21L21 24L24 24L24 21ZM22 22L22 23L23 23L23 22ZM8 24L8 27L9 27L9 28L10 28L10 27L9 27L9 26L10 26L10 25L9 25L9 24ZM22 25L22 26L23 26L23 27L25 27L25 26L24 26L24 25ZM20 26L20 27L19 27L19 28L22 28L22 27L21 27L21 26ZM16 27L16 28L17 28L17 27ZM0 0L0 7L7 7L7 0ZM1 1L1 6L6 6L6 1ZM2 2L2 5L5 5L5 2ZM22 0L22 7L29 7L29 0ZM23 1L23 6L28 6L28 1ZM24 2L24 5L27 5L27 2ZM0 22L0 29L7 29L7 22ZM1 23L1 28L6 28L6 23ZM2 24L2 27L5 27L5 24Z" fill="#000000"/></g></g></svg>
