<?xml version="1.0" encoding="UTF-8"?>
<svg xmlns="http://www.w3.org/2000/svg" version="1.1" width="200" height="200" viewBox="0 0 200 200"><rect x="0" y="0" width="200" height="200" fill="#ffffff"/><g transform="scale(4.878)"><g transform="translate(0,0)"><path fill-rule="evenodd" d="M9 0L9 2L10 2L10 5L11 5L11 6L10 6L10 9L9 9L9 6L8 6L8 8L6 8L6 9L4 9L4 8L2 8L2 10L1 10L1 11L0 11L0 12L1 12L1 13L2 13L2 14L0 14L0 17L1 17L1 18L2 18L2 17L1 17L1 16L4 16L4 13L7 13L7 14L5 14L5 15L7 15L7 14L9 14L9 16L8 16L8 17L7 17L7 16L5 16L5 20L4 20L4 19L2 19L2 20L3 20L3 22L4 22L4 21L5 21L5 22L6 22L6 23L9 23L9 24L10 24L10 25L11 25L11 26L9 26L9 25L8 25L8 26L9 26L9 27L8 27L8 28L12 28L12 29L10 29L10 30L9 30L9 29L8 29L8 30L6 30L6 29L7 29L7 28L6 28L6 27L7 27L7 26L6 26L6 27L5 27L5 23L2 23L2 21L1 21L1 20L0 20L0 21L1 21L1 22L0 22L0 26L1 26L1 27L0 27L0 29L1 29L1 30L0 30L0 31L1 31L1 30L3 30L3 32L1 32L1 33L4 33L4 32L5 32L5 31L4 31L4 29L5 29L5 30L6 30L6 31L7 31L7 32L6 32L6 33L7 33L7 32L9 32L9 31L10 31L10 33L8 33L8 35L9 35L9 37L8 37L8 39L9 39L9 40L10 40L10 41L12 41L12 40L10 40L10 38L12 38L12 39L13 39L13 38L12 38L12 37L13 37L13 36L14 36L14 40L15 40L15 39L16 39L16 40L19 40L19 41L20 41L20 39L21 39L21 38L22 38L22 37L21 37L21 36L23 36L23 37L24 37L24 34L25 34L25 32L26 32L26 31L29 31L29 34L30 34L30 35L29 35L29 36L26 36L26 35L27 35L27 33L26 33L26 35L25 35L25 38L28 38L28 39L25 39L25 40L24 40L24 39L23 39L23 40L22 40L22 41L26 41L26 40L27 40L27 41L29 41L29 40L28 40L28 39L30 39L30 40L32 40L32 41L33 41L33 39L34 39L34 38L33 38L33 39L31 39L31 38L30 38L30 37L29 37L29 36L30 36L30 35L31 35L31 36L32 36L32 37L35 37L35 41L37 41L37 40L38 40L38 41L40 41L40 39L41 39L41 37L40 37L40 39L39 39L39 38L38 38L38 37L39 37L39 36L41 36L41 35L39 35L39 34L41 34L41 31L40 31L40 30L39 30L39 29L40 29L40 28L41 28L41 24L40 24L40 25L39 25L39 26L40 26L40 28L38 28L38 27L36 27L36 24L35 24L35 25L34 25L34 23L33 23L33 24L32 24L32 25L31 25L31 26L30 26L30 27L32 27L32 26L34 26L34 27L36 27L36 28L35 28L35 29L33 29L33 28L32 28L32 29L30 29L30 30L31 30L31 32L30 32L30 31L29 31L29 26L28 26L28 25L30 25L30 24L31 24L31 22L32 22L32 21L33 21L33 20L34 20L34 22L35 22L35 21L36 21L36 22L37 22L37 21L36 21L36 20L37 20L37 19L36 19L36 20L34 20L34 19L35 19L35 18L34 18L34 19L32 19L32 20L31 20L31 18L30 18L30 19L29 19L29 17L28 17L28 16L29 16L29 14L30 14L30 15L33 15L33 12L32 12L32 11L36 11L36 12L37 12L37 11L38 11L38 10L37 10L37 8L36 8L36 9L35 9L35 8L33 8L33 6L32 6L32 5L33 5L33 3L32 3L32 2L31 2L31 1L33 1L33 0L29 0L29 1L28 1L28 2L29 2L29 3L30 3L30 2L31 2L31 3L32 3L32 4L31 4L31 6L30 6L30 7L29 7L29 6L28 6L28 8L29 8L29 9L30 9L30 8L31 8L31 10L29 10L29 11L30 11L30 12L29 12L29 13L28 13L28 11L27 11L27 10L26 10L26 9L27 9L27 8L26 8L26 7L27 7L27 5L30 5L30 4L27 4L27 5L26 5L26 4L24 4L24 3L27 3L27 0L26 0L26 2L25 2L25 0L24 0L24 1L22 1L22 2L21 2L21 3L20 3L20 0L17 0L17 1L16 1L16 2L15 2L15 3L14 3L14 2L13 2L13 1L14 1L14 0L13 0L13 1L12 1L12 3L11 3L11 2L10 2L10 0ZM17 1L17 2L16 2L16 3L15 3L15 4L14 4L14 3L12 3L12 4L13 4L13 7L12 7L12 6L11 6L11 9L10 9L10 10L11 10L11 9L12 9L12 10L13 10L13 11L14 11L14 12L13 12L13 14L14 14L14 16L13 16L13 15L12 15L12 14L11 14L11 13L9 13L9 12L11 12L11 11L8 11L8 10L9 10L9 9L8 9L8 10L7 10L7 9L6 9L6 10L7 10L7 11L5 11L5 10L4 10L4 9L3 9L3 10L2 10L2 11L1 11L1 12L2 12L2 11L3 11L3 12L7 12L7 13L9 13L9 14L10 14L10 21L11 21L11 23L10 23L10 24L14 24L14 25L15 25L15 24L14 24L14 23L13 23L13 20L14 20L14 19L15 19L15 18L14 18L14 17L16 17L16 16L18 16L18 17L17 17L17 18L16 18L16 21L14 21L14 22L15 22L15 23L16 23L16 21L17 21L17 18L18 18L18 22L17 22L17 25L16 25L16 26L15 26L15 27L16 27L16 28L14 28L14 26L13 26L13 25L12 25L12 26L13 26L13 30L14 30L14 31L11 31L11 34L10 34L10 35L12 35L12 34L13 34L13 35L14 35L14 34L15 34L15 32L16 32L16 28L18 28L18 25L19 25L19 24L18 24L18 23L19 23L19 22L20 22L20 23L21 23L21 24L20 24L20 25L21 25L21 26L20 26L20 27L19 27L19 28L21 28L21 29L22 29L22 28L21 28L21 26L23 26L23 29L24 29L24 27L25 27L25 29L26 29L26 27L25 27L25 26L23 26L23 25L24 25L24 24L25 24L25 23L26 23L26 26L27 26L27 27L28 27L28 26L27 26L27 24L28 24L28 23L29 23L29 24L30 24L30 22L31 22L31 20L29 20L29 19L28 19L28 20L27 20L27 21L26 21L26 19L27 19L27 17L25 17L25 16L24 16L24 15L26 15L26 16L28 16L28 15L27 15L27 14L28 14L28 13L27 13L27 11L23 11L23 9L22 9L22 8L24 8L24 9L25 9L25 8L24 8L24 4L23 4L23 7L22 7L22 5L21 5L21 4L22 4L22 3L24 3L24 2L22 2L22 3L21 3L21 4L20 4L20 3L19 3L19 4L18 4L18 3L17 3L17 2L19 2L19 1ZM29 1L29 2L30 2L30 1ZM8 4L8 5L9 5L9 4ZM16 4L16 7L15 7L15 5L14 5L14 8L16 8L16 7L17 7L17 6L18 6L18 7L19 7L19 6L20 6L20 8L17 8L17 9L13 9L13 8L12 8L12 9L13 9L13 10L14 10L14 11L15 11L15 12L14 12L14 13L15 13L15 14L19 14L19 16L22 16L22 15L23 15L23 14L24 14L24 13L25 13L25 14L26 14L26 13L25 13L25 12L23 12L23 14L22 14L22 9L21 9L21 10L20 10L20 8L22 8L22 7L21 7L21 5L20 5L20 4L19 4L19 5L18 5L18 4ZM25 5L25 7L26 7L26 5ZM31 6L31 8L32 8L32 6ZM17 9L17 10L15 10L15 11L17 11L17 12L15 12L15 13L17 13L17 12L19 12L19 11L20 11L20 10L19 10L19 9ZM32 9L32 10L31 10L31 11L32 11L32 10L33 10L33 9ZM40 9L40 10L41 10L41 9ZM3 10L3 11L4 11L4 10ZM17 10L17 11L19 11L19 10ZM36 10L36 11L37 11L37 10ZM20 12L20 13L19 13L19 14L20 14L20 15L21 15L21 12ZM31 12L31 13L30 13L30 14L32 14L32 12ZM34 12L34 13L35 13L35 14L34 14L34 15L35 15L35 16L36 16L36 17L38 17L38 16L37 16L37 15L41 15L41 13L40 13L40 14L39 14L39 13L38 13L38 14L36 14L36 13L35 13L35 12ZM2 14L2 15L3 15L3 14ZM35 14L35 15L36 15L36 14ZM11 15L11 19L12 19L12 20L11 20L11 21L12 21L12 20L13 20L13 19L14 19L14 18L13 18L13 17L12 17L12 15ZM15 15L15 16L16 16L16 15ZM23 16L23 18L22 18L22 17L18 17L18 18L19 18L19 19L21 19L21 18L22 18L22 20L23 20L23 21L22 21L22 22L21 22L21 20L19 20L19 21L20 21L20 22L21 22L21 23L22 23L22 24L23 24L23 22L24 22L24 21L25 21L25 22L26 22L26 23L27 23L27 22L26 22L26 21L25 21L25 20L23 20L23 19L25 19L25 18L24 18L24 16ZM30 16L30 17L31 17L31 16ZM32 16L32 18L33 18L33 16ZM39 16L39 18L38 18L38 23L37 23L37 24L38 24L38 23L40 23L40 22L39 22L39 21L40 21L40 17L41 17L41 16ZM6 17L6 18L7 18L7 19L6 19L6 20L8 20L8 21L6 21L6 22L8 22L8 21L9 21L9 20L8 20L8 18L9 18L9 17L8 17L8 18L7 18L7 17ZM1 23L1 26L2 26L2 27L1 27L1 29L3 29L3 28L4 28L4 27L3 27L3 26L2 26L2 25L4 25L4 24L2 24L2 23ZM6 24L6 25L7 25L7 24ZM37 25L37 26L38 26L38 25ZM5 28L5 29L6 29L6 28ZM27 28L27 30L28 30L28 28ZM37 28L37 29L36 29L36 30L37 30L37 31L36 31L36 32L37 32L37 31L39 31L39 32L40 32L40 31L39 31L39 30L37 30L37 29L38 29L38 28ZM14 29L14 30L15 30L15 29ZM17 29L17 30L20 30L20 31L19 31L19 32L18 32L18 31L17 31L17 33L16 33L16 34L17 34L17 35L15 35L15 36L16 36L16 37L15 37L15 38L16 38L16 37L17 37L17 39L20 39L20 38L18 38L18 37L20 37L20 36L21 36L21 35L19 35L19 36L18 36L18 33L19 33L19 34L21 34L21 33L19 33L19 32L21 32L21 31L23 31L23 32L25 32L25 30L24 30L24 31L23 31L23 30L20 30L20 29ZM8 30L8 31L9 31L9 30ZM32 30L32 32L31 32L31 33L32 33L32 32L33 32L33 31L34 31L34 32L35 32L35 31L34 31L34 30ZM12 32L12 33L13 33L13 32ZM22 33L22 34L24 34L24 33ZM33 33L33 36L36 36L36 33ZM37 33L37 34L38 34L38 33ZM34 34L34 35L35 35L35 34ZM37 35L37 37L36 37L36 40L37 40L37 37L38 37L38 36L39 36L39 35ZM10 36L10 37L9 37L9 38L10 38L10 37L12 37L12 36ZM17 36L17 37L18 37L18 36ZM28 37L28 38L29 38L29 37ZM0 0L0 7L7 7L7 0ZM1 1L1 6L6 6L6 1ZM2 2L2 5L5 5L5 2ZM34 0L34 7L41 7L41 0ZM35 1L35 6L40 6L40 1ZM36 2L36 5L39 5L39 2ZM0 34L0 41L7 41L7 34ZM1 35L1 40L6 40L6 35ZM2 36L2 39L5 39L5 36Z" fill="#000000"/></g></g></svg>
