<?xml version="1.0" encoding="UTF-8"?>
<svg xmlns="http://www.w3.org/2000/svg" version="1.1" width="200" height="200" viewBox="0 0 200 200"><rect x="0" y="0" width="200" height="200" fill="#ffffff"/><g transform="scale(6.897)"><g transform="translate(0,0)"><path fill-rule="evenodd" d="M9 0L9 2L8 2L8 4L9 4L9 2L10 2L10 3L12 3L12 5L11 5L11 4L10 4L10 5L9 5L9 6L8 6L8 7L9 7L9 9L10 9L10 10L11 10L11 9L13 9L13 10L14 10L14 8L15 8L15 9L16 9L16 10L15 10L15 11L12 11L12 12L13 12L13 13L12 13L12 14L11 14L11 16L10 16L10 12L11 12L11 11L9 11L9 12L8 12L8 11L7 11L7 10L6 10L6 9L8 9L8 8L6 8L6 9L5 9L5 8L3 8L3 9L1 9L1 10L0 10L0 14L1 14L1 15L0 15L0 16L1 16L1 17L0 17L0 21L2 21L2 19L3 19L3 18L4 18L4 19L5 19L5 21L8 21L8 23L10 23L10 24L8 24L8 26L9 26L9 25L11 25L11 23L12 23L12 22L13 22L13 27L12 27L12 26L10 26L10 28L11 28L11 27L12 27L12 28L13 28L13 29L14 29L14 28L15 28L15 29L20 29L20 28L21 28L21 29L23 29L23 28L24 28L24 29L25 29L25 27L23 27L23 28L22 28L22 26L21 26L21 27L20 27L20 28L19 28L19 26L18 26L18 25L24 25L24 26L25 26L25 22L27 22L27 23L28 23L28 24L26 24L26 28L27 28L27 29L28 29L28 28L27 28L27 27L29 27L29 26L27 26L27 25L29 25L29 22L28 22L28 21L26 21L26 20L27 20L27 19L25 19L25 18L28 18L28 19L29 19L29 17L28 17L28 16L29 16L29 14L27 14L27 13L29 13L29 11L28 11L28 10L27 10L27 8L25 8L25 12L24 12L24 16L23 16L23 12L22 12L22 11L21 11L21 10L19 10L19 9L16 9L16 8L19 8L19 6L20 6L20 7L21 7L21 4L19 4L19 3L20 3L20 1L21 1L21 0L19 0L19 1L18 1L18 0L15 0L15 1L14 1L14 0L13 0L13 2L15 2L15 1L18 1L18 2L19 2L19 3L18 3L18 4L19 4L19 6L18 6L18 7L17 7L17 5L16 5L16 4L17 4L17 2L16 2L16 3L15 3L15 4L14 4L14 3L12 3L12 2L11 2L11 1L12 1L12 0L11 0L11 1L10 1L10 0ZM13 4L13 5L12 5L12 6L11 6L11 7L10 7L10 6L9 6L9 7L10 7L10 8L11 8L11 7L12 7L12 6L13 6L13 8L14 8L14 6L15 6L15 7L16 7L16 6L15 6L15 5L14 5L14 4ZM4 9L4 10L5 10L5 9ZM22 9L22 10L23 10L23 11L24 11L24 9ZM2 10L2 11L1 11L1 12L2 12L2 13L3 13L3 14L8 14L8 16L7 16L7 15L2 15L2 16L4 16L4 17L5 17L5 16L7 16L7 17L6 17L6 18L5 18L5 19L6 19L6 20L8 20L8 21L9 21L9 22L10 22L10 23L11 23L11 22L10 22L10 21L13 21L13 22L14 22L14 24L15 24L15 23L16 23L16 21L17 21L17 23L18 23L18 24L16 24L16 25L15 25L15 26L14 26L14 27L13 27L13 28L14 28L14 27L15 27L15 28L17 28L17 27L15 27L15 26L17 26L17 25L18 25L18 24L20 24L20 21L18 21L18 20L15 20L15 19L16 19L16 18L15 18L15 17L14 17L14 16L19 16L19 17L17 17L17 18L20 18L20 19L21 19L21 20L22 20L22 19L21 19L21 16L20 16L20 15L21 15L21 14L22 14L22 12L21 12L21 14L20 14L20 15L19 15L19 14L18 14L18 11L17 11L17 10L16 10L16 12L14 12L14 13L17 13L17 15L16 15L16 14L12 14L12 17L11 17L11 18L10 18L10 19L11 19L11 20L9 20L9 18L8 18L8 17L10 17L10 16L9 16L9 13L6 13L6 12L7 12L7 11L6 11L6 12L5 12L5 11L4 11L4 12L3 12L3 10ZM26 10L26 11L27 11L27 12L28 12L28 11L27 11L27 10ZM4 12L4 13L5 13L5 12ZM19 12L19 13L20 13L20 12ZM25 13L25 16L26 16L26 17L27 17L27 16L28 16L28 15L27 15L27 16L26 16L26 13ZM13 15L13 16L14 16L14 15ZM22 16L22 17L23 17L23 16ZM12 17L12 18L14 18L14 17ZM6 18L6 19L7 19L7 18ZM13 19L13 20L14 20L14 19ZM23 19L23 20L25 20L25 19ZM3 20L3 21L4 21L4 20ZM21 21L21 24L24 24L24 21ZM18 22L18 23L19 23L19 22ZM22 22L22 23L23 23L23 22ZM0 0L0 7L7 7L7 0ZM1 1L1 6L6 6L6 1ZM2 2L2 5L5 5L5 2ZM22 0L22 7L29 7L29 0ZM23 1L23 6L28 6L28 1ZM24 2L24 5L27 5L27 2ZM0 22L0 29L7 29L7 22ZM1 23L1 28L6 28L6 23ZM2 24L2 27L5 27L5 24Z" fill="#000000"/></g></g></svg>
