<?xml version="1.0" encoding="UTF-8"?>
<svg xmlns="http://www.w3.org/2000/svg" version="1.1" width="200" height="200" viewBox="0 0 200 200"><rect x="0" y="0" width="200" height="200" fill="#ffffff"/><g transform="scale(4.878)"><g transform="translate(0,0)"><path fill-rule="evenodd" d="M9 0L9 2L8 2L8 4L11 4L11 3L12 3L12 2L11 2L11 1L10 1L10 0ZM13 0L13 1L14 1L14 0ZM15 0L15 1L16 1L16 0ZM17 0L17 6L16 6L16 7L15 7L15 5L16 5L16 2L15 2L15 3L14 3L14 2L13 2L13 3L14 3L14 4L13 4L13 5L12 5L12 8L14 8L14 7L15 7L15 9L14 9L14 10L13 10L13 9L12 9L12 10L13 10L13 11L15 11L15 13L14 13L14 12L13 12L13 13L14 13L14 14L12 14L12 11L10 11L10 12L9 12L9 13L8 13L8 14L5 14L5 15L3 15L3 16L2 16L2 14L4 14L4 13L7 13L7 12L5 12L5 11L8 11L8 10L6 10L6 9L8 9L8 8L6 8L6 9L5 9L5 8L3 8L3 9L2 9L2 10L1 10L1 11L0 11L0 17L1 17L1 18L0 18L0 20L2 20L2 21L1 21L1 22L0 22L0 27L1 27L1 28L2 28L2 29L3 29L3 28L4 28L4 30L3 30L3 31L2 31L2 30L1 30L1 29L0 29L0 33L2 33L2 32L3 32L3 33L5 33L5 32L6 32L6 33L7 33L7 32L6 32L6 31L7 31L7 30L8 30L8 31L9 31L9 32L8 32L8 35L9 35L9 36L8 36L8 38L9 38L9 36L10 36L10 37L11 37L11 38L12 38L12 39L13 39L13 38L12 38L12 36L10 36L10 34L9 34L9 32L10 32L10 33L11 33L11 34L12 34L12 35L14 35L14 36L13 36L13 37L14 37L14 40L13 40L13 41L15 41L15 39L16 39L16 38L17 38L17 40L16 40L16 41L17 41L17 40L19 40L19 41L20 41L20 40L23 40L23 39L21 39L21 38L22 38L22 37L23 37L23 38L25 38L25 40L24 40L24 41L26 41L26 38L27 38L27 41L29 41L29 39L31 39L31 40L30 40L30 41L31 41L31 40L32 40L32 41L34 41L34 40L35 40L35 41L36 41L36 39L37 39L37 40L38 40L38 41L39 41L39 40L38 40L38 39L40 39L40 40L41 40L41 37L40 37L40 36L41 36L41 35L40 35L40 34L38 34L38 35L40 35L40 36L39 36L39 37L40 37L40 38L37 38L37 33L39 33L39 32L40 32L40 33L41 33L41 32L40 32L40 31L41 31L41 30L39 30L39 31L38 31L38 32L37 32L37 30L38 30L38 29L39 29L39 28L41 28L41 25L39 25L39 24L37 24L37 20L38 20L38 22L41 22L41 21L39 21L39 20L40 20L40 19L41 19L41 18L40 18L40 17L41 17L41 11L40 11L40 9L39 9L39 8L37 8L37 9L35 9L35 10L34 10L34 11L35 11L35 13L36 13L36 14L33 14L33 13L32 13L32 11L33 11L33 10L32 10L32 8L33 8L33 5L32 5L32 4L33 4L33 3L32 3L32 1L33 1L33 0L32 0L32 1L31 1L31 2L30 2L30 1L29 1L29 0L28 0L28 2L27 2L27 1L26 1L26 0L25 0L25 3L24 3L24 1L23 1L23 2L22 2L22 0L21 0L21 1L20 1L20 0L19 0L19 1L18 1L18 0ZM19 1L19 2L18 2L18 3L19 3L19 8L21 8L21 9L19 9L19 10L20 10L20 12L22 12L22 13L20 13L20 15L17 15L17 14L16 14L16 15L14 15L14 18L13 18L13 19L12 19L12 20L11 20L11 21L10 21L10 22L9 22L9 25L8 25L8 24L7 24L7 23L8 23L8 22L7 22L7 21L6 21L6 20L8 20L8 21L9 21L9 20L10 20L10 17L11 17L11 18L12 18L12 17L13 17L13 16L12 16L12 14L11 14L11 16L10 16L10 13L9 13L9 14L8 14L8 16L7 16L7 15L5 15L5 16L4 16L4 17L5 17L5 18L7 18L7 19L6 19L6 20L5 20L5 19L4 19L4 21L2 21L2 22L7 22L7 23L6 23L6 24L7 24L7 25L6 25L6 26L7 26L7 25L8 25L8 27L6 27L6 28L5 28L5 29L6 29L6 30L7 30L7 29L9 29L9 30L10 30L10 32L11 32L11 33L12 33L12 34L15 34L15 33L13 33L13 32L12 32L12 31L13 31L13 30L14 30L14 32L15 32L15 31L16 31L16 33L19 33L19 34L16 34L16 36L15 36L15 37L17 37L17 38L18 38L18 37L19 37L19 38L21 38L21 36L22 36L22 35L24 35L24 36L23 36L23 37L24 37L24 36L25 36L25 38L26 38L26 37L27 37L27 36L28 36L28 38L30 38L30 37L31 37L31 36L32 36L32 35L31 35L31 33L32 33L32 32L33 32L33 31L34 31L34 32L35 32L35 30L33 30L33 31L32 31L32 29L31 29L31 28L32 28L32 27L33 27L33 26L32 26L32 25L33 25L33 24L32 24L32 25L31 25L31 23L32 23L32 22L31 22L31 21L30 21L30 20L31 20L31 19L29 19L29 20L28 20L28 21L29 21L29 22L30 22L30 24L29 24L29 23L27 23L27 21L26 21L26 22L25 22L25 20L24 20L24 19L25 19L25 18L26 18L26 20L27 20L27 17L30 17L30 18L31 18L31 17L32 17L32 15L31 15L31 14L30 14L30 12L31 12L31 11L32 11L32 10L30 10L30 9L31 9L31 8L32 8L32 5L31 5L31 7L30 7L30 6L29 6L29 8L28 8L28 9L29 9L29 10L28 10L28 11L27 11L27 12L29 12L29 15L28 15L28 13L26 13L26 14L25 14L25 13L23 13L23 10L25 10L25 11L24 11L24 12L26 12L26 10L27 10L27 8L26 8L26 6L25 6L25 5L27 5L27 7L28 7L28 4L26 4L26 3L25 3L25 4L24 4L24 6L23 6L23 7L22 7L22 6L21 6L21 4L20 4L20 3L19 3L19 2L20 2L20 1ZM21 2L21 3L22 3L22 5L23 5L23 3L22 3L22 2ZM28 2L28 3L29 3L29 4L32 4L32 3L29 3L29 2ZM14 4L14 5L15 5L15 4ZM9 5L9 6L8 6L8 7L9 7L9 6L10 6L10 7L11 7L11 5ZM13 6L13 7L14 7L14 6ZM17 6L17 7L16 7L16 8L17 8L17 10L18 10L18 8L17 8L17 7L18 7L18 6ZM20 6L20 7L21 7L21 8L22 8L22 10L23 10L23 9L24 9L24 8L25 8L25 9L26 9L26 8L25 8L25 6L24 6L24 7L23 7L23 8L22 8L22 7L21 7L21 6ZM10 8L10 9L9 9L9 10L10 10L10 9L11 9L11 8ZM29 8L29 9L30 9L30 8ZM3 9L3 12L4 12L4 11L5 11L5 10L4 10L4 9ZM37 9L37 10L38 10L38 12L39 12L39 13L40 13L40 12L39 12L39 10L38 10L38 9ZM15 10L15 11L16 11L16 10ZM29 10L29 12L30 12L30 10ZM17 11L17 12L16 12L16 13L17 13L17 12L19 12L19 11ZM36 12L36 13L37 13L37 14L36 14L36 15L37 15L37 16L34 16L34 17L33 17L33 19L34 19L34 20L35 20L35 17L37 17L37 18L36 18L36 20L37 20L37 18L39 18L39 17L40 17L40 16L38 16L38 13L37 13L37 12ZM1 13L1 14L2 14L2 13ZM18 13L18 14L19 14L19 13ZM22 13L22 14L23 14L23 15L20 15L20 18L19 18L19 17L18 17L18 16L17 16L17 17L18 17L18 18L16 18L16 19L15 19L15 20L16 20L16 19L17 19L17 22L16 22L16 24L17 24L17 26L15 26L15 25L12 25L12 26L14 26L14 27L13 27L13 28L12 28L12 29L13 29L13 28L14 28L14 29L16 29L16 30L17 30L17 31L18 31L18 30L19 30L19 29L20 29L20 32L19 32L19 33L20 33L20 32L21 32L21 33L22 33L22 32L23 32L23 29L24 29L24 33L23 33L23 34L25 34L25 35L26 35L26 36L27 36L27 35L28 35L28 36L29 36L29 37L30 37L30 36L31 36L31 35L30 35L30 36L29 36L29 34L30 34L30 33L31 33L31 29L30 29L30 30L29 30L29 27L28 27L28 24L26 24L26 23L25 23L25 22L24 22L24 20L23 20L23 19L24 19L24 18L25 18L25 17L27 17L27 16L28 16L28 15L27 15L27 14L26 14L26 15L27 15L27 16L25 16L25 17L24 17L24 18L21 18L21 16L23 16L23 15L25 15L25 14L23 14L23 13ZM1 16L1 17L2 17L2 18L1 18L1 19L2 19L2 20L3 20L3 17L2 17L2 16ZM6 16L6 17L7 17L7 18L9 18L9 17L10 17L10 16L9 16L9 17L7 17L7 16ZM30 16L30 17L31 17L31 16ZM37 16L37 17L38 17L38 16ZM20 19L20 20L19 20L19 21L18 21L18 22L19 22L19 23L20 23L20 26L23 26L23 27L24 27L24 29L25 29L25 30L28 30L28 31L25 31L25 33L26 33L26 34L27 34L27 32L30 32L30 31L29 31L29 30L28 30L28 27L27 27L27 26L24 26L24 25L25 25L25 24L24 24L24 25L21 25L21 24L22 24L22 23L24 23L24 22L23 22L23 20L22 20L22 19ZM12 20L12 21L11 21L11 22L10 22L10 25L11 25L11 24L12 24L12 23L13 23L13 24L15 24L15 23L13 23L13 22L14 22L14 20ZM20 20L20 23L21 23L21 22L22 22L22 21L21 21L21 20ZM34 21L34 22L33 22L33 23L36 23L36 21ZM11 22L11 23L12 23L12 22ZM1 23L1 25L2 25L2 26L1 26L1 27L4 27L4 26L3 26L3 25L4 25L4 24L3 24L3 25L2 25L2 23ZM18 24L18 26L17 26L17 28L16 28L16 29L17 29L17 30L18 30L18 29L19 29L19 28L20 28L20 27L18 27L18 26L19 26L19 24ZM35 24L35 26L36 26L36 27L35 27L35 28L34 28L34 29L38 29L38 28L36 28L36 27L39 27L39 25L37 25L37 24ZM29 25L29 26L31 26L31 27L32 27L32 26L31 26L31 25ZM36 25L36 26L37 26L37 25ZM9 26L9 27L10 27L10 28L11 28L11 26ZM21 27L21 28L22 28L22 29L23 29L23 28L22 28L22 27ZM6 28L6 29L7 29L7 28ZM26 28L26 29L27 29L27 28ZM10 29L10 30L11 30L11 29ZM4 30L4 31L3 31L3 32L4 32L4 31L5 31L5 30ZM21 30L21 31L22 31L22 30ZM28 33L28 34L29 34L29 33ZM33 33L33 36L36 36L36 33ZM19 34L19 37L20 37L20 36L21 36L21 34ZM34 34L34 35L35 35L35 34ZM33 37L33 38L31 38L31 39L32 39L32 40L33 40L33 39L35 39L35 38L36 38L36 37ZM9 40L9 41L12 41L12 40ZM0 0L0 7L7 7L7 0ZM1 1L1 6L6 6L6 1ZM2 2L2 5L5 5L5 2ZM34 0L34 7L41 7L41 0ZM35 1L35 6L40 6L40 1ZM36 2L36 5L39 5L39 2ZM0 34L0 41L7 41L7 34ZM1 35L1 40L6 40L6 35ZM2 36L2 39L5 39L5 36Z" fill="#000000"/></g></g></svg>
