<?xml version="1.0" encoding="UTF-8"?>
<svg xmlns="http://www.w3.org/2000/svg" version="1.1" width="200" height="200" viewBox="0 0 200 200"><rect x="0" y="0" width="200" height="200" fill="#ffffff"/><g transform="scale(6.897)"><g transform="translate(0,0)"><path fill-rule="evenodd" d="M9 0L9 1L10 1L10 0ZM11 0L11 1L13 1L13 3L12 3L12 2L9 2L9 3L10 3L10 4L8 4L8 5L10 5L10 4L11 4L11 5L12 5L12 7L11 7L11 6L10 6L10 7L11 7L11 8L10 8L10 9L9 9L9 6L8 6L8 8L6 8L6 9L9 9L9 10L10 10L10 11L9 11L9 12L8 12L8 13L7 13L7 12L6 12L6 11L7 11L7 10L6 10L6 11L5 11L5 12L4 12L4 10L5 10L5 9L4 9L4 8L2 8L2 11L1 11L1 10L0 10L0 11L1 11L1 12L0 12L0 15L1 15L1 13L2 13L2 14L4 14L4 16L3 16L3 15L2 15L2 16L1 16L1 17L2 17L2 20L1 20L1 21L7 21L7 20L5 20L5 19L4 19L4 18L3 18L3 17L4 17L4 16L6 16L6 17L7 17L7 18L6 18L6 19L7 19L7 18L8 18L8 16L11 16L11 17L12 17L12 18L14 18L14 19L15 19L15 20L16 20L16 22L15 22L15 21L14 21L14 22L15 22L15 23L13 23L13 25L11 25L11 24L10 24L10 22L11 22L11 21L12 21L12 20L13 20L13 19L11 19L11 18L10 18L10 17L9 17L9 20L11 20L11 21L8 21L8 23L9 23L9 25L8 25L8 27L10 27L10 26L9 26L9 25L11 25L11 28L14 28L14 29L15 29L15 28L16 28L16 29L18 29L18 28L17 28L17 27L14 27L14 26L15 26L15 24L16 24L16 25L18 25L18 27L19 27L19 25L20 25L20 27L21 27L21 25L23 25L23 26L24 26L24 27L22 27L22 29L23 29L23 28L25 28L25 29L27 29L27 28L29 28L29 26L28 26L28 27L26 27L26 26L24 26L24 25L26 25L26 23L25 23L25 22L26 22L26 19L27 19L27 18L29 18L29 17L26 17L26 16L25 16L25 15L24 15L24 16L23 16L23 17L21 17L21 18L20 18L20 17L19 17L19 15L20 15L20 14L21 14L21 13L20 13L20 12L22 12L22 9L23 9L23 13L22 13L22 15L23 15L23 14L24 14L24 13L25 13L25 14L26 14L26 15L27 15L27 16L28 16L28 15L29 15L29 14L28 14L28 15L27 15L27 13L28 13L28 12L29 12L29 11L28 11L28 12L27 12L27 10L29 10L29 9L26 9L26 10L24 10L24 9L25 9L25 8L24 8L24 9L23 9L23 8L21 8L21 9L20 9L20 10L19 10L19 8L20 8L20 7L21 7L21 3L20 3L20 2L18 2L18 1L16 1L16 0L15 0L15 1L14 1L14 0ZM14 2L14 3L13 3L13 8L12 8L12 9L13 9L13 10L15 10L15 12L14 12L14 11L12 11L12 10L11 10L11 9L10 9L10 10L11 10L11 12L12 12L12 13L13 13L13 12L14 12L14 14L15 14L15 16L14 16L14 15L13 15L13 16L12 16L12 17L13 17L13 16L14 16L14 17L15 17L15 18L16 18L16 19L17 19L17 20L20 20L20 18L19 18L19 17L18 17L18 18L19 18L19 19L17 19L17 18L16 18L16 17L15 17L15 16L17 16L17 15L18 15L18 14L20 14L20 13L19 13L19 12L20 12L20 11L19 11L19 10L18 10L18 8L19 8L19 7L20 7L20 5L19 5L19 4L20 4L20 3L19 3L19 4L18 4L18 2ZM11 3L11 4L12 4L12 3ZM14 3L14 5L15 5L15 6L14 6L14 8L13 8L13 9L14 9L14 8L15 8L15 10L16 10L16 11L17 11L17 12L16 12L16 13L17 13L17 12L18 12L18 10L17 10L17 8L15 8L15 6L16 6L16 7L17 7L17 6L18 6L18 7L19 7L19 5L17 5L17 4L16 4L16 3ZM16 5L16 6L17 6L17 5ZM3 9L3 10L4 10L4 9ZM2 11L2 13L3 13L3 11ZM25 11L25 13L27 13L27 12L26 12L26 11ZM5 12L5 13L4 13L4 14L5 14L5 13L6 13L6 14L7 14L7 13L6 13L6 12ZM9 13L9 14L8 14L8 15L9 15L9 14L10 14L10 13ZM11 14L11 15L12 15L12 14ZM16 14L16 15L17 15L17 14ZM6 15L6 16L7 16L7 15ZM2 16L2 17L3 17L3 16ZM24 16L24 17L23 17L23 18L22 18L22 19L21 19L21 20L22 20L22 19L24 19L24 20L25 20L25 19L26 19L26 17L25 17L25 16ZM0 18L0 19L1 19L1 18ZM24 18L24 19L25 19L25 18ZM3 19L3 20L4 20L4 19ZM27 20L27 21L28 21L28 22L27 22L27 24L29 24L29 23L28 23L28 22L29 22L29 21L28 21L28 20ZM19 21L19 22L20 22L20 21ZM21 21L21 24L24 24L24 21ZM17 22L17 24L18 24L18 25L19 25L19 24L18 24L18 22ZM22 22L22 23L23 23L23 22ZM13 25L13 26L12 26L12 27L13 27L13 26L14 26L14 25ZM25 27L25 28L26 28L26 27ZM19 28L19 29L20 29L20 28ZM0 0L0 7L7 7L7 0ZM1 1L1 6L6 6L6 1ZM2 2L2 5L5 5L5 2ZM22 0L22 7L29 7L29 0ZM23 1L23 6L28 6L28 1ZM24 2L24 5L27 5L27 2ZM0 22L0 29L7 29L7 22ZM1 23L1 28L6 28L6 23ZM2 24L2 27L5 27L5 24Z" fill="#000000"/></g></g></svg>
