<?xml version="1.0" encoding="UTF-8"?>
<svg xmlns="http://www.w3.org/2000/svg" version="1.1" width="200" height="200" viewBox="0 0 200 200"><rect x="0" y="0" width="200" height="200" fill="#ffffff"/><g transform="scale(6.897)"><g transform="translate(0,0)"><path fill-rule="evenodd" d="M8 0L8 1L10 1L10 2L8 2L8 3L9 3L9 4L8 4L8 5L9 5L9 4L10 4L10 3L11 3L11 4L12 4L12 3L15 3L15 2L12 2L12 1L13 1L13 0L11 0L11 1L10 1L10 0ZM16 0L16 1L18 1L18 2L19 2L19 3L18 3L18 7L19 7L19 8L18 8L18 9L17 9L17 6L16 6L16 5L15 5L15 4L14 4L14 5L13 5L13 6L12 6L12 7L13 7L13 6L14 6L14 7L15 7L15 6L16 6L16 9L15 9L15 8L14 8L14 9L13 9L13 8L9 8L9 6L8 6L8 8L9 8L9 9L8 9L8 10L5 10L5 9L7 9L7 8L5 8L5 9L3 9L3 10L1 10L1 11L3 11L3 12L1 12L1 14L0 14L0 15L1 15L1 16L0 16L0 21L1 21L1 19L2 19L2 20L3 20L3 19L5 19L5 18L3 18L3 17L7 17L7 16L8 16L8 14L9 14L9 17L8 17L8 18L6 18L6 19L10 19L10 20L11 20L11 19L12 19L12 20L13 20L13 21L12 21L12 22L13 22L13 23L14 23L14 24L12 24L12 23L11 23L11 22L10 22L10 21L9 21L9 20L5 20L5 21L8 21L8 22L10 22L10 23L8 23L8 24L9 24L9 28L10 28L10 26L11 26L11 27L13 27L13 28L12 28L12 29L13 29L13 28L14 28L14 27L13 27L13 26L11 26L11 25L10 25L10 24L12 24L12 25L14 25L14 24L15 24L15 28L16 28L16 29L19 29L19 28L21 28L21 27L22 27L22 28L23 28L23 29L26 29L26 26L27 26L27 27L28 27L28 26L27 26L27 25L28 25L28 24L26 24L26 26L25 26L25 22L26 22L26 23L27 23L27 21L25 21L25 20L26 20L26 18L28 18L28 16L29 16L29 15L28 15L28 14L26 14L26 13L29 13L29 12L27 12L27 11L28 11L28 10L27 10L27 8L26 8L26 10L25 10L25 8L24 8L24 16L25 16L25 18L21 18L21 17L20 17L20 19L18 19L18 18L16 18L16 17L17 17L17 16L15 16L15 15L14 15L14 13L15 13L15 14L16 14L16 15L19 15L19 14L17 14L17 13L21 13L21 12L22 12L22 15L23 15L23 11L21 11L21 5L20 5L20 3L21 3L21 2L20 2L20 0ZM11 2L11 3L12 3L12 2ZM16 3L16 4L17 4L17 3ZM10 5L10 7L11 7L11 5ZM19 6L19 7L20 7L20 6ZM22 8L22 10L23 10L23 8ZM28 8L28 9L29 9L29 8ZM9 9L9 10L8 10L8 12L9 12L9 14L10 14L10 13L12 13L12 14L11 14L11 15L10 15L10 17L11 17L11 16L12 16L12 15L13 15L13 13L14 13L14 12L13 12L13 11L14 11L14 10L13 10L13 11L12 11L12 12L9 12L9 11L11 11L11 10L12 10L12 9ZM16 9L16 10L15 10L15 11L17 11L17 9ZM18 9L18 10L19 10L19 12L21 12L21 11L20 11L20 9ZM4 10L4 11L5 11L5 10ZM6 11L6 12L4 12L4 13L2 13L2 14L3 14L3 15L2 15L2 16L3 16L3 15L5 15L5 14L7 14L7 13L6 13L6 12L7 12L7 11ZM12 12L12 13L13 13L13 12ZM16 12L16 13L17 13L17 12ZM4 13L4 14L5 14L5 13ZM6 15L6 16L7 16L7 15ZM20 15L20 16L21 16L21 15ZM25 15L25 16L26 16L26 15ZM27 15L27 16L28 16L28 15ZM13 16L13 17L12 17L12 18L13 18L13 20L15 20L15 21L13 21L13 22L14 22L14 23L15 23L15 21L16 21L16 22L17 22L17 20L18 20L18 23L17 23L17 24L16 24L16 25L18 25L18 26L19 26L19 25L18 25L18 23L19 23L19 24L20 24L20 21L19 21L19 20L18 20L18 19L17 19L17 20L15 20L15 19L14 19L14 17L15 17L15 16ZM22 16L22 17L23 17L23 16ZM21 19L21 20L22 20L22 19ZM23 19L23 20L25 20L25 19ZM28 20L28 22L29 22L29 20ZM21 21L21 24L24 24L24 21ZM22 22L22 23L23 23L23 22ZM21 25L21 26L20 26L20 27L21 27L21 26L23 26L23 27L25 27L25 26L24 26L24 25ZM16 26L16 27L17 27L17 26ZM27 28L27 29L28 29L28 28ZM0 0L0 7L7 7L7 0ZM1 1L1 6L6 6L6 1ZM2 2L2 5L5 5L5 2ZM22 0L22 7L29 7L29 0ZM23 1L23 6L28 6L28 1ZM24 2L24 5L27 5L27 2ZM0 22L0 29L7 29L7 22ZM1 23L1 28L6 28L6 23ZM2 24L2 27L5 27L5 24Z" fill="#000000"/></g></g></svg>
