<?xml version="1.0" encoding="UTF-8"?>
<svg xmlns="http://www.w3.org/2000/svg" version="1.1" width="200" height="200" viewBox="0 0 200 200"><rect x="0" y="0" width="200" height="200" fill="#ffffff"/><g transform="scale(4.878)"><g transform="translate(0,0)"><path fill-rule="evenodd" d="M8 0L8 3L9 3L9 2L10 2L10 3L12 3L12 2L11 2L11 1L9 1L9 0ZM13 0L13 1L14 1L14 0ZM16 0L16 4L19 4L19 3L21 3L21 2L22 2L22 4L25 4L25 5L24 5L24 7L25 7L25 8L26 8L26 9L25 9L25 10L27 10L27 11L26 11L26 12L25 12L25 11L24 11L24 9L23 9L23 8L22 8L22 7L23 7L23 6L22 6L22 7L21 7L21 6L20 6L20 5L17 5L17 6L16 6L16 7L15 7L15 5L14 5L14 4L15 4L15 2L14 2L14 4L12 4L12 5L11 5L11 6L10 6L10 5L8 5L8 9L7 9L7 8L6 8L6 9L7 9L7 10L5 10L5 8L2 8L2 11L1 11L1 12L2 12L2 13L0 13L0 14L2 14L2 15L0 15L0 16L1 16L1 17L0 17L0 20L1 20L1 22L0 22L0 23L1 23L1 22L3 22L3 24L2 24L2 25L4 25L4 26L3 26L3 27L4 27L4 28L3 28L3 29L2 29L2 31L5 31L5 33L8 33L8 34L10 34L10 33L11 33L11 34L12 34L12 35L10 35L10 36L15 36L15 37L14 37L14 38L15 38L15 39L14 39L14 40L12 40L12 38L13 38L13 37L12 37L12 38L11 38L11 37L9 37L9 36L8 36L8 39L9 39L9 38L11 38L11 40L12 40L12 41L15 41L15 39L16 39L16 41L17 41L17 39L18 39L18 40L19 40L19 41L20 41L20 40L23 40L23 41L25 41L25 40L26 40L26 41L28 41L28 40L26 40L26 39L28 39L28 38L27 38L27 37L29 37L29 36L31 36L31 35L32 35L32 37L30 37L30 38L29 38L29 39L30 39L30 40L29 40L29 41L30 41L30 40L31 40L31 41L32 41L32 40L33 40L33 41L34 41L34 40L33 40L33 39L32 39L32 37L33 37L33 38L34 38L34 39L35 39L35 40L36 40L36 39L37 39L37 40L40 40L40 38L41 38L41 37L39 37L39 36L38 36L38 35L40 35L40 34L41 34L41 33L40 33L40 32L41 32L41 31L40 31L40 30L41 30L41 29L40 29L40 26L41 26L41 23L39 23L39 22L38 22L38 21L39 21L39 20L36 20L36 19L35 19L35 17L36 17L36 18L38 18L38 17L39 17L39 18L41 18L41 16L40 16L40 17L39 17L39 16L37 16L37 15L40 15L40 14L41 14L41 12L39 12L39 13L40 13L40 14L37 14L37 13L36 13L36 14L35 14L35 17L34 17L34 16L33 16L33 17L31 17L31 16L29 16L29 15L28 15L28 16L29 16L29 17L31 17L31 18L30 18L30 19L31 19L31 18L32 18L32 21L31 21L31 20L30 20L30 21L31 21L31 22L25 22L25 21L24 21L24 19L25 19L25 20L26 20L26 17L27 17L27 16L26 16L26 15L27 15L27 14L29 14L29 13L30 13L30 14L31 14L31 12L32 12L32 13L33 13L33 14L32 14L32 15L34 15L34 13L35 13L35 12L38 12L38 11L40 11L40 10L41 10L41 8L38 8L38 9L40 9L40 10L37 10L37 9L36 9L36 8L31 8L31 5L32 5L32 4L33 4L33 3L32 3L32 2L33 2L33 1L32 1L32 0L31 0L31 1L32 1L32 2L30 2L30 0L29 0L29 1L27 1L27 0L26 0L26 1L27 1L27 2L26 2L26 3L28 3L28 4L29 4L29 3L32 3L32 4L30 4L30 8L29 8L29 9L28 9L28 10L27 10L27 8L28 8L28 7L29 7L29 5L27 5L27 4L25 4L25 3L24 3L24 2L25 2L25 0L22 0L22 1L21 1L21 0L20 0L20 1L17 1L17 0ZM22 1L22 2L23 2L23 1ZM13 5L13 7L14 7L14 8L12 8L12 6L11 6L11 7L10 7L10 6L9 6L9 7L10 7L10 8L9 8L9 9L10 9L10 10L9 10L9 11L11 11L11 12L13 12L13 11L14 11L14 12L16 12L16 11L18 11L18 13L15 13L15 14L13 14L13 15L12 15L12 13L11 13L11 17L10 17L10 18L11 18L11 20L12 20L12 21L10 21L10 20L9 20L9 19L6 19L6 18L7 18L7 17L6 17L6 18L5 18L5 17L4 17L4 18L3 18L3 19L4 19L4 20L2 20L2 19L1 19L1 20L2 20L2 21L4 21L4 23L5 23L5 25L6 25L6 26L7 26L7 25L6 25L6 24L7 24L7 23L5 23L5 21L6 21L6 22L8 22L8 20L9 20L9 22L10 22L10 25L8 25L8 26L10 26L10 27L9 27L9 28L8 28L8 27L6 27L6 28L7 28L7 29L3 29L3 30L5 30L5 31L6 31L6 32L11 32L11 33L12 33L12 34L13 34L13 35L14 35L14 31L12 31L12 32L11 32L11 30L10 30L10 29L9 29L9 28L10 28L10 27L11 27L11 24L12 24L12 27L13 27L13 23L15 23L15 21L16 21L16 22L18 22L18 18L17 18L17 17L15 17L15 16L17 16L17 15L18 15L18 17L19 17L19 18L23 18L23 19L21 19L21 20L20 20L20 19L19 19L19 23L20 23L20 24L23 24L23 25L22 25L22 26L21 26L21 25L17 25L17 24L18 24L18 23L16 23L16 24L14 24L14 25L17 25L17 26L18 26L18 27L17 27L17 29L16 29L16 26L14 26L14 27L15 27L15 28L14 28L14 29L16 29L16 30L18 30L18 29L19 29L19 28L20 28L20 27L23 27L23 25L26 25L26 24L27 24L27 23L25 23L25 24L23 24L23 23L24 23L24 22L23 22L23 21L22 21L22 20L23 20L23 19L24 19L24 18L25 18L25 16L24 16L24 15L25 15L25 12L22 12L22 10L23 10L23 9L22 9L22 10L21 10L21 13L23 13L23 15L22 15L22 14L21 14L21 15L20 15L20 11L18 11L18 10L16 10L16 9L17 9L17 8L21 8L21 7L20 7L20 6L19 6L19 7L18 7L18 6L17 6L17 7L16 7L16 9L15 9L15 7L14 7L14 5ZM26 5L26 6L25 6L25 7L26 7L26 6L27 6L27 7L28 7L28 6L27 6L27 5ZM32 6L32 7L33 7L33 6ZM10 8L10 9L11 9L11 8ZM30 8L30 9L29 9L29 12L28 12L28 13L29 13L29 12L30 12L30 9L31 9L31 8ZM0 9L0 10L1 10L1 9ZM12 9L12 10L11 10L11 11L13 11L13 9ZM14 9L14 10L15 10L15 11L16 11L16 10L15 10L15 9ZM19 9L19 10L20 10L20 9ZM32 9L32 10L31 10L31 11L32 11L32 12L33 12L33 13L34 13L34 12L33 12L33 11L34 11L34 10L33 10L33 9ZM3 10L3 11L2 11L2 12L3 12L3 14L4 14L4 15L5 15L5 16L8 16L8 18L9 18L9 16L10 16L10 13L9 13L9 14L8 14L8 15L6 15L6 14L7 14L7 13L6 13L6 12L8 12L8 11L6 11L6 12L3 12L3 11L4 11L4 10ZM35 10L35 11L37 11L37 10ZM26 12L26 13L27 13L27 12ZM4 13L4 14L6 14L6 13ZM18 13L18 15L19 15L19 16L20 16L20 15L19 15L19 13ZM16 14L16 15L17 15L17 14ZM12 16L12 17L11 17L11 18L13 18L13 16ZM23 16L23 18L24 18L24 16ZM36 16L36 17L37 17L37 16ZM1 17L1 18L2 18L2 17ZM4 18L4 19L5 19L5 20L4 20L4 21L5 21L5 20L6 20L6 21L7 21L7 20L6 20L6 19L5 19L5 18ZM27 18L27 21L29 21L29 20L28 20L28 19L29 19L29 18ZM33 18L33 20L34 20L34 21L32 21L32 22L31 22L31 24L30 24L30 23L29 23L29 24L30 24L30 25L32 25L32 26L29 26L29 25L27 25L27 26L26 26L26 27L25 27L25 26L24 26L24 29L23 29L23 31L25 31L25 32L24 32L24 33L25 33L25 32L26 32L26 33L27 33L27 34L25 34L25 35L23 35L23 33L22 33L22 28L21 28L21 29L20 29L20 30L21 30L21 32L20 32L20 31L18 31L18 34L16 34L16 33L17 33L17 31L16 31L16 33L15 33L15 34L16 34L16 36L17 36L17 37L18 37L18 38L19 38L19 39L20 39L20 37L22 37L22 38L21 38L21 39L23 39L23 38L24 38L24 39L26 39L26 37L27 37L27 36L26 36L26 37L25 37L25 35L27 35L27 34L29 34L29 33L27 33L27 30L26 30L26 29L25 29L25 28L26 28L26 27L27 27L27 28L30 28L30 29L28 29L28 30L30 30L30 29L31 29L31 30L32 30L32 31L33 31L33 32L39 32L39 26L40 26L40 24L39 24L39 23L38 23L38 22L37 22L37 24L36 24L36 23L35 23L35 22L36 22L36 21L35 21L35 19L34 19L34 18ZM13 19L13 21L12 21L12 22L11 22L11 23L12 23L12 22L13 22L13 21L15 21L15 20L16 20L16 19L15 19L15 20L14 20L14 19ZM40 20L40 21L41 21L41 20ZM34 21L34 22L32 22L32 23L33 23L33 24L32 24L32 25L33 25L33 26L32 26L32 28L33 28L33 29L32 29L32 30L33 30L33 29L34 29L34 28L33 28L33 27L34 27L34 26L35 26L35 27L36 27L36 28L35 28L35 29L36 29L36 30L34 30L34 31L38 31L38 30L37 30L37 29L36 29L36 28L38 28L38 26L39 26L39 25L33 25L33 24L35 24L35 23L34 23L34 22L35 22L35 21ZM21 22L21 23L23 23L23 22ZM8 23L8 24L9 24L9 23ZM0 24L0 28L2 28L2 26L1 26L1 24ZM4 26L4 27L5 27L5 26ZM19 26L19 27L18 27L18 28L19 28L19 27L20 27L20 26ZM27 26L27 27L29 27L29 26ZM12 28L12 30L13 30L13 28ZM0 29L0 33L1 33L1 29ZM7 29L7 30L6 30L6 31L7 31L7 30L9 30L9 31L10 31L10 30L9 30L9 29ZM28 31L28 32L30 32L30 33L31 33L31 32L30 32L30 31ZM2 32L2 33L4 33L4 32ZM19 33L19 34L20 34L20 35L21 35L21 36L22 36L22 37L23 37L23 36L22 36L22 35L21 35L21 33ZM33 33L33 36L36 36L36 33ZM37 33L37 34L39 34L39 33ZM30 34L30 35L31 35L31 34ZM34 34L34 35L35 35L35 34ZM28 35L28 36L29 36L29 35ZM18 36L18 37L19 37L19 36ZM37 36L37 37L38 37L38 36ZM24 37L24 38L25 38L25 37ZM34 37L34 38L36 38L36 37ZM30 38L30 39L31 39L31 40L32 40L32 39L31 39L31 38ZM37 38L37 39L38 39L38 38ZM0 0L0 7L7 7L7 0ZM1 1L1 6L6 6L6 1ZM2 2L2 5L5 5L5 2ZM34 0L34 7L41 7L41 0ZM35 1L35 6L40 6L40 1ZM36 2L36 5L39 5L39 2ZM0 34L0 41L7 41L7 34ZM1 35L1 40L6 40L6 35ZM2 36L2 39L5 39L5 36Z" fill="#000000"/></g></g></svg>
