<?xml version="1.0" encoding="UTF-8"?>
<svg xmlns="http://www.w3.org/2000/svg" version="1.1" width="200" height="200" viewBox="0 0 200 200"><rect x="0" y="0" width="200" height="200" fill="#ffffff"/><g transform="scale(4.878)"><g transform="translate(0,0)"><path fill-rule="evenodd" d="M8 0L8 3L9 3L9 2L10 2L10 1L11 1L11 0ZM13 0L13 2L11 2L11 5L10 5L10 4L9 4L9 5L8 5L8 9L7 9L7 8L6 8L6 9L5 9L5 8L2 8L2 9L5 9L5 10L6 10L6 11L5 11L5 12L4 12L4 10L3 10L3 11L2 11L2 10L0 10L0 12L1 12L1 13L0 13L0 14L1 14L1 13L3 13L3 12L4 12L4 14L2 14L2 15L1 15L1 16L0 16L0 19L1 19L1 18L2 18L2 17L1 17L1 16L2 16L2 15L7 15L7 16L6 16L6 17L5 17L5 16L4 16L4 17L3 17L3 19L2 19L2 21L1 21L1 20L0 20L0 22L3 22L3 23L2 23L2 24L3 24L3 25L5 25L5 24L3 24L3 23L4 23L4 22L3 22L3 21L7 21L7 22L6 22L6 23L8 23L8 24L9 24L9 25L7 25L7 24L6 24L6 25L7 25L7 26L5 26L5 28L4 28L4 29L3 29L3 32L2 32L2 33L3 33L3 32L4 32L4 33L8 33L8 34L10 34L10 35L11 35L11 36L8 36L8 39L9 39L9 37L10 37L10 38L11 38L11 39L14 39L14 37L15 37L15 36L16 36L16 33L17 33L17 31L18 31L18 32L19 32L19 31L20 31L20 30L24 30L24 31L21 31L21 32L24 32L24 31L26 31L26 33L22 33L22 35L21 35L21 34L20 34L20 35L18 35L18 34L17 34L17 37L16 37L16 38L15 38L15 39L16 39L16 41L17 41L17 39L19 39L19 38L21 38L21 39L20 39L20 40L21 40L21 39L23 39L23 40L22 40L22 41L23 41L23 40L24 40L24 41L31 41L31 40L33 40L33 41L34 41L34 40L33 40L33 39L35 39L35 40L36 40L36 39L37 39L37 40L40 40L40 38L41 38L41 37L40 37L40 34L41 34L41 33L40 33L40 32L41 32L41 31L40 31L40 30L41 30L41 29L40 29L40 28L41 28L41 27L40 27L40 26L41 26L41 23L39 23L39 24L40 24L40 26L39 26L39 25L36 25L36 24L37 24L37 23L38 23L38 22L39 22L39 20L38 20L38 19L40 19L40 18L41 18L41 16L40 16L40 18L38 18L38 17L39 17L39 16L38 16L38 15L39 15L39 14L41 14L41 13L40 13L40 12L41 12L41 11L40 11L40 10L41 10L41 8L38 8L38 9L40 9L40 10L37 10L37 9L36 9L36 8L33 8L33 6L32 6L32 7L31 7L31 6L30 6L30 7L31 7L31 8L27 8L27 6L28 6L28 7L29 7L29 5L27 5L27 4L25 4L25 2L24 2L24 1L23 1L23 3L22 3L22 7L21 7L21 5L20 5L20 7L19 7L19 3L20 3L20 4L21 4L21 2L18 2L18 1L17 1L17 0ZM20 0L20 1L21 1L21 0ZM26 0L26 1L27 1L27 2L26 2L26 3L28 3L28 4L29 4L29 3L31 3L31 4L30 4L30 5L33 5L33 4L32 4L32 3L31 3L31 2L30 2L30 1L33 1L33 0L29 0L29 1L27 1L27 0ZM15 1L15 2L13 2L13 3L16 3L16 4L13 4L13 5L12 5L12 6L11 6L11 7L10 7L10 6L9 6L9 8L12 8L12 10L11 10L11 9L10 9L10 10L9 10L9 9L8 9L8 10L9 10L9 11L6 11L6 12L5 12L5 13L6 13L6 14L7 14L7 15L9 15L9 17L8 17L8 16L7 16L7 17L6 17L6 18L9 18L9 19L6 19L6 20L8 20L8 22L10 22L10 21L11 21L11 22L13 22L13 23L12 23L12 24L11 24L11 23L10 23L10 24L11 24L11 25L12 25L12 26L13 26L13 25L15 25L15 23L16 23L16 26L17 26L17 23L18 23L18 24L19 24L19 26L18 26L18 27L17 27L17 28L19 28L19 29L20 29L20 28L22 28L22 29L24 29L24 30L27 30L27 29L26 29L26 27L27 27L27 28L30 28L30 29L28 29L28 30L29 30L29 31L28 31L28 32L30 32L30 31L31 31L31 30L32 30L32 31L33 31L33 32L36 32L36 31L37 31L37 32L40 32L40 31L39 31L39 26L38 26L38 28L35 28L35 26L36 26L36 25L35 25L35 24L36 24L36 23L34 23L34 25L32 25L32 23L33 23L33 22L34 22L34 21L35 21L35 22L36 22L36 21L35 21L35 19L36 19L36 20L37 20L37 22L38 22L38 20L37 20L37 19L38 19L38 18L36 18L36 17L38 17L38 16L36 16L36 15L37 15L37 14L36 14L36 13L38 13L38 14L39 14L39 11L38 11L38 12L36 12L36 11L37 11L37 10L36 10L36 9L35 9L35 10L36 10L36 11L35 11L35 13L34 13L34 12L33 12L33 13L32 13L32 11L34 11L34 9L33 9L33 8L31 8L31 9L27 9L27 8L26 8L26 6L27 6L27 5L25 5L25 4L24 4L24 5L25 5L25 7L24 7L24 6L23 6L23 7L22 7L22 8L24 8L24 9L23 9L23 10L22 10L22 9L21 9L21 8L20 8L20 10L19 10L19 11L18 11L18 15L19 15L19 12L21 12L21 13L20 13L20 16L18 16L18 18L17 18L17 16L16 16L16 17L14 17L14 16L15 16L15 15L16 15L16 14L17 14L17 13L16 13L16 14L15 14L15 12L17 12L17 11L16 11L16 10L18 10L18 9L19 9L19 7L18 7L18 6L17 6L17 5L16 5L16 4L18 4L18 2L17 2L17 1ZM15 5L15 6L14 6L14 7L13 7L13 6L12 6L12 7L13 7L13 8L14 8L14 9L13 9L13 10L16 10L16 9L15 9L15 8L17 8L17 9L18 9L18 7L17 7L17 6L16 6L16 5ZM15 6L15 7L16 7L16 6ZM25 8L25 9L24 9L24 10L23 10L23 11L22 11L22 10L20 10L20 11L22 11L22 12L23 12L23 11L24 11L24 13L23 13L23 14L24 14L24 13L25 13L25 14L29 14L29 15L28 15L28 16L29 16L29 17L30 17L30 19L31 19L31 18L32 18L32 19L33 19L33 18L34 18L34 19L35 19L35 17L36 17L36 16L35 16L35 17L34 17L34 16L32 16L32 17L30 17L30 16L29 16L29 15L31 15L31 10L33 10L33 9L31 9L31 10L27 10L27 9L26 9L26 8ZM6 9L6 10L7 10L7 9ZM25 9L25 12L26 12L26 9ZM9 11L9 12L8 12L8 14L9 14L9 13L10 13L10 14L11 14L11 15L10 15L10 18L11 18L11 19L13 19L13 16L14 16L14 15L15 15L15 14L14 14L14 15L13 15L13 12L15 12L15 11L13 11L13 12L12 12L12 14L11 14L11 11ZM27 11L27 12L28 12L28 13L29 13L29 14L30 14L30 13L29 13L29 12L30 12L30 11L29 11L29 12L28 12L28 11ZM6 12L6 13L7 13L7 12ZM21 13L21 14L22 14L22 13ZM33 13L33 14L32 14L32 15L34 15L34 13ZM35 14L35 15L36 15L36 14ZM12 15L12 16L13 16L13 15ZM25 15L25 16L23 16L23 21L24 21L24 22L25 22L25 24L27 24L27 25L29 25L29 26L30 26L30 25L31 25L31 26L32 26L32 28L33 28L33 29L32 29L32 30L33 30L33 29L34 29L34 28L33 28L33 27L34 27L34 26L35 26L35 25L34 25L34 26L32 26L32 25L31 25L31 22L33 22L33 21L34 21L34 20L33 20L33 21L31 21L31 20L30 20L30 21L31 21L31 22L27 22L27 23L26 23L26 20L27 20L27 21L29 21L29 20L27 20L27 19L28 19L28 18L27 18L27 19L26 19L26 18L25 18L25 20L24 20L24 17L27 17L27 16L26 16L26 15ZM19 17L19 18L18 18L18 19L20 19L20 18L21 18L21 20L20 20L20 23L19 23L19 21L18 21L18 20L16 20L16 18L15 18L15 19L14 19L14 20L16 20L16 22L17 22L17 21L18 21L18 23L19 23L19 24L20 24L20 23L21 23L21 22L22 22L22 24L21 24L21 25L20 25L20 26L21 26L21 27L22 27L22 28L23 28L23 27L24 27L24 28L25 28L25 25L24 25L24 24L23 24L23 22L22 22L22 21L21 21L21 20L22 20L22 17ZM32 17L32 18L33 18L33 17ZM3 19L3 20L5 20L5 19ZM40 20L40 21L41 21L41 20ZM14 21L14 22L15 22L15 21ZM29 23L29 24L30 24L30 23ZM12 24L12 25L13 25L13 24ZM22 24L22 25L21 25L21 26L22 26L22 25L23 25L23 24ZM9 25L9 26L10 26L10 27L11 27L11 26L10 26L10 25ZM0 26L0 27L1 27L1 26ZM2 26L2 27L3 27L3 26ZM27 26L27 27L28 27L28 26ZM6 27L6 28L7 28L7 29L4 29L4 30L7 30L7 31L5 31L5 32L7 32L7 31L8 31L8 33L9 33L9 30L10 30L10 34L11 34L11 30L10 30L10 29L13 29L13 30L15 30L15 32L14 32L14 31L12 31L12 32L13 32L13 33L14 33L14 34L13 34L13 35L12 35L12 36L11 36L11 38L12 38L12 36L13 36L13 37L14 37L14 36L13 36L13 35L14 35L14 34L15 34L15 33L16 33L16 30L17 30L17 29L16 29L16 27L14 27L14 28L13 28L13 27L12 27L12 28L10 28L10 29L9 29L9 28L7 28L7 27ZM19 27L19 28L20 28L20 27ZM1 28L1 29L0 29L0 33L1 33L1 30L2 30L2 28ZM7 29L7 30L9 30L9 29ZM15 29L15 30L16 30L16 29ZM30 29L30 30L31 30L31 29ZM35 29L35 30L34 30L34 31L36 31L36 30L37 30L37 31L38 31L38 30L37 30L37 29ZM26 33L26 34L25 34L25 35L26 35L26 36L28 36L28 37L25 37L25 36L23 36L23 35L22 35L22 37L24 37L24 38L23 38L23 39L25 39L25 38L26 38L26 40L27 40L27 38L28 38L28 37L29 37L29 38L30 38L30 37L31 37L31 39L28 39L28 40L31 40L31 39L32 39L32 38L36 38L36 37L32 37L32 35L31 35L31 33L30 33L30 35L31 35L31 36L28 36L28 35L27 35L27 34L29 34L29 33ZM33 33L33 36L36 36L36 33ZM38 33L38 36L37 36L37 37L38 37L38 36L39 36L39 33ZM34 34L34 35L35 35L35 34ZM18 36L18 38L19 38L19 37L21 37L21 36ZM37 38L37 39L38 39L38 38ZM9 40L9 41L10 41L10 40ZM0 0L0 7L7 7L7 0ZM1 1L1 6L6 6L6 1ZM2 2L2 5L5 5L5 2ZM34 0L34 7L41 7L41 0ZM35 1L35 6L40 6L40 1ZM36 2L36 5L39 5L39 2ZM0 34L0 41L7 41L7 34ZM1 35L1 40L6 40L6 35ZM2 36L2 39L5 39L5 36Z" fill="#000000"/></g></g></svg>
