<?xml version="1.0" encoding="UTF-8"?>
<svg xmlns="http://www.w3.org/2000/svg" version="1.1" width="200" height="200" viewBox="0 0 200 200"><rect x="0" y="0" width="200" height="200" fill="#ffffff"/><g transform="scale(4.878)"><g transform="translate(0,0)"><path fill-rule="evenodd" d="M8 0L8 3L9 3L9 5L8 5L8 9L7 9L7 8L6 8L6 9L7 9L7 10L6 10L6 11L7 11L7 12L5 12L5 13L4 13L4 11L3 11L3 10L1 10L1 11L0 11L0 13L1 13L1 12L2 12L2 13L4 13L4 14L2 14L2 15L1 15L1 14L0 14L0 15L1 15L1 16L3 16L3 17L2 17L2 19L4 19L4 18L3 18L3 17L5 17L5 18L6 18L6 19L5 19L5 20L3 20L3 22L2 22L2 23L0 23L0 25L1 25L1 26L2 26L2 28L1 28L1 27L0 27L0 28L1 28L1 29L0 29L0 33L1 33L1 30L2 30L2 31L3 31L3 32L2 32L2 33L3 33L3 32L4 32L4 31L3 31L3 29L2 29L2 28L3 28L3 27L4 27L4 26L3 26L3 24L4 24L4 23L5 23L5 21L9 21L9 23L8 23L8 24L5 24L5 25L8 25L8 27L10 27L10 26L11 26L11 28L9 28L9 30L8 30L8 28L6 28L6 29L4 29L4 30L5 30L5 33L8 33L8 34L9 34L9 35L10 35L10 36L8 36L8 39L9 39L9 40L10 40L10 39L11 39L11 40L12 40L12 41L13 41L13 40L14 40L14 41L16 41L16 40L17 40L17 41L21 41L21 40L20 40L20 38L19 38L19 35L20 35L20 37L21 37L21 39L22 39L22 40L24 40L24 41L25 41L25 37L28 37L28 38L27 38L27 40L26 40L26 41L27 41L27 40L28 40L28 41L31 41L31 40L33 40L33 41L34 41L34 40L33 40L33 39L31 39L31 38L32 38L32 37L33 37L33 38L34 38L34 39L35 39L35 40L36 40L36 39L37 39L37 40L40 40L40 38L41 38L41 37L40 37L40 36L41 36L41 35L40 35L40 34L41 34L41 33L39 33L39 32L37 32L37 31L38 31L38 29L35 29L35 30L34 30L34 31L35 31L35 32L33 32L33 31L32 31L32 30L33 30L33 29L34 29L34 28L33 28L33 27L34 27L34 26L35 26L35 27L36 27L36 28L38 28L38 26L39 26L39 27L40 27L40 26L41 26L41 23L39 23L39 24L40 24L40 26L39 26L39 25L34 25L34 24L33 24L33 25L31 25L31 22L33 22L33 23L36 23L36 24L37 24L37 23L38 23L38 22L37 22L37 20L38 20L38 21L39 21L39 20L38 20L38 19L37 19L37 20L36 20L36 19L35 19L35 17L36 17L36 18L38 18L38 17L39 17L39 18L41 18L41 16L40 16L40 17L39 17L39 16L37 16L37 15L36 15L36 16L35 16L35 17L34 17L34 16L33 16L33 17L31 17L31 15L30 15L30 16L29 16L29 15L28 15L28 16L29 16L29 17L31 17L31 18L30 18L30 19L31 19L31 18L32 18L32 19L33 19L33 18L34 18L34 19L35 19L35 21L34 21L34 20L33 20L33 21L31 21L31 20L30 20L30 21L31 21L31 22L30 22L30 24L29 24L29 23L28 23L28 22L29 22L29 21L28 21L28 19L29 19L29 18L27 18L27 17L26 17L26 18L25 18L25 17L24 17L24 18L23 18L23 17L20 17L20 16L21 16L21 15L20 15L20 12L19 12L19 11L17 11L17 6L18 6L18 10L19 10L19 6L18 6L18 5L19 5L19 3L20 3L20 4L22 4L22 5L21 5L21 6L20 6L20 8L21 8L21 6L22 6L22 7L23 7L23 5L26 5L26 7L25 7L25 6L24 6L24 8L26 8L26 9L29 9L29 10L27 10L27 11L26 11L26 10L25 10L25 15L23 15L23 16L26 16L26 12L27 12L27 14L29 14L29 13L30 13L30 14L31 14L31 12L32 12L32 13L33 13L33 14L32 14L32 15L34 15L34 13L35 13L35 9L36 9L36 10L37 10L37 11L36 11L36 12L38 12L38 11L39 11L39 12L40 12L40 10L41 10L41 8L38 8L38 9L40 9L40 10L37 10L37 9L36 9L36 8L33 8L33 9L31 9L31 8L32 8L32 7L33 7L33 6L32 6L32 7L31 7L31 6L30 6L30 8L26 8L26 7L27 7L27 6L28 6L28 7L29 7L29 4L28 4L28 5L27 5L27 4L23 4L23 1L22 1L22 0L21 0L21 1L22 1L22 2L21 2L21 3L20 3L20 1L19 1L19 0L12 0L12 1L14 1L14 2L13 2L13 3L14 3L14 7L13 7L13 4L12 4L12 3L10 3L10 2L9 2L9 0ZM10 0L10 1L11 1L11 0ZM24 0L24 3L25 3L25 0ZM26 0L26 1L27 1L27 2L26 2L26 3L31 3L31 2L30 2L30 1L32 1L32 2L33 2L33 0L29 0L29 1L27 1L27 0ZM16 1L16 2L14 2L14 3L16 3L16 2L18 2L18 3L19 3L19 1ZM32 3L32 4L30 4L30 5L32 5L32 4L33 4L33 3ZM10 4L10 5L9 5L9 7L10 7L10 9L11 9L11 10L10 10L10 11L9 11L9 10L8 10L8 12L10 12L10 13L6 13L6 14L5 14L5 16L7 16L7 17L6 17L6 18L7 18L7 17L8 17L8 20L9 20L9 21L10 21L10 17L11 17L11 16L13 16L13 17L12 17L12 18L11 18L11 22L10 22L10 24L11 24L11 25L12 25L12 24L13 24L13 26L12 26L12 27L13 27L13 26L14 26L14 28L15 28L15 29L12 29L12 28L11 28L11 29L10 29L10 30L11 30L11 31L10 31L10 32L8 32L8 30L7 30L7 29L6 29L6 30L7 30L7 31L6 31L6 32L8 32L8 33L10 33L10 34L11 34L11 35L13 35L13 33L14 33L14 35L15 35L15 36L16 36L16 37L15 37L15 38L14 38L14 40L16 40L16 37L17 37L17 35L19 35L19 34L21 34L21 36L22 36L22 39L24 39L24 38L23 38L23 36L26 36L26 35L22 35L22 34L23 34L23 33L27 33L27 34L28 34L28 35L29 35L29 33L27 33L27 29L26 29L26 28L28 28L28 27L29 27L29 28L31 28L31 29L28 29L28 30L29 30L29 31L28 31L28 32L30 32L30 33L31 33L31 32L30 32L30 30L32 30L32 29L33 29L33 28L31 28L31 27L33 27L33 26L34 26L34 25L33 25L33 26L31 26L31 25L30 25L30 26L29 26L29 25L27 25L27 26L28 26L28 27L26 27L26 25L24 25L24 24L25 24L25 22L26 22L26 23L27 23L27 24L28 24L28 23L27 23L27 22L28 22L28 21L27 21L27 19L26 19L26 20L25 20L25 19L24 19L24 24L23 24L23 22L22 22L22 20L21 20L21 18L20 18L20 17L19 17L19 15L18 15L18 13L19 13L19 12L17 12L17 11L16 11L16 12L17 12L17 14L16 14L16 13L15 13L15 11L14 11L14 10L13 10L13 9L11 9L11 7L12 7L12 6L11 6L11 7L10 7L10 5L11 5L11 4ZM16 4L16 5L18 5L18 4ZM15 6L15 8L14 8L14 9L15 9L15 8L16 8L16 6ZM2 8L2 9L5 9L5 8ZM22 8L22 10L21 10L21 11L22 11L22 12L21 12L21 13L23 13L23 11L24 11L24 10L23 10L23 8ZM30 9L30 10L29 10L29 11L27 11L27 12L28 12L28 13L29 13L29 12L31 12L31 11L32 11L32 12L33 12L33 13L34 13L34 12L33 12L33 11L34 11L34 9L33 9L33 11L32 11L32 10L31 10L31 9ZM30 10L30 11L31 11L31 10ZM12 12L12 13L11 13L11 15L12 15L12 14L13 14L13 16L14 16L14 18L12 18L12 19L13 19L13 20L15 20L15 19L16 19L16 21L15 21L15 22L16 22L16 21L17 21L17 23L14 23L14 22L12 22L12 23L11 23L11 24L12 24L12 23L14 23L14 24L15 24L15 25L17 25L17 26L16 26L16 27L15 27L15 28L16 28L16 27L17 27L17 26L18 26L18 27L20 27L20 25L19 25L19 26L18 26L18 25L17 25L17 24L18 24L18 21L19 21L19 20L20 20L20 19L19 19L19 17L18 17L18 16L17 16L17 15L16 15L16 14L15 14L15 16L14 16L14 14L13 14L13 13L14 13L14 12ZM36 13L36 14L38 14L38 15L40 15L40 14L41 14L41 13L40 13L40 14L38 14L38 13ZM6 14L6 15L7 15L7 16L8 16L8 17L10 17L10 16L9 16L9 15L8 15L8 14ZM15 16L15 17L17 17L17 18L18 18L18 17L17 17L17 16ZM36 16L36 17L37 17L37 16ZM0 18L0 22L1 22L1 21L2 21L2 20L1 20L1 18ZM22 18L22 19L23 19L23 18ZM6 19L6 20L7 20L7 19ZM18 19L18 20L19 20L19 19ZM40 20L40 21L41 21L41 20ZM26 21L26 22L27 22L27 21ZM33 21L33 22L34 22L34 21ZM35 21L35 22L36 22L36 21ZM3 22L3 23L4 23L4 22ZM6 22L6 23L7 23L7 22ZM20 22L20 23L19 23L19 24L21 24L21 31L22 31L22 30L23 30L23 29L25 29L25 31L23 31L23 32L21 32L21 33L23 33L23 32L25 32L25 31L26 31L26 29L25 29L25 28L26 28L26 27L24 27L24 28L23 28L23 25L22 25L22 24L21 24L21 22ZM9 25L9 26L10 26L10 25ZM5 26L5 27L7 27L7 26ZM36 26L36 27L37 27L37 26ZM17 28L17 30L16 30L16 29L15 29L15 30L16 30L16 31L15 31L15 32L14 32L14 31L11 31L11 32L12 32L12 33L13 33L13 32L14 32L14 33L15 33L15 35L17 35L17 34L16 34L16 33L17 33L17 32L18 32L18 33L20 33L20 32L18 32L18 31L17 31L17 30L19 30L19 29L20 29L20 28ZM39 28L39 31L40 31L40 30L41 30L41 29L40 29L40 28ZM11 29L11 30L12 30L12 29ZM36 30L36 31L37 31L37 30ZM15 32L15 33L16 33L16 32ZM33 33L33 36L36 36L36 33ZM37 33L37 34L39 34L39 33ZM30 34L30 35L31 35L31 36L28 36L28 37L32 37L32 35L31 35L31 34ZM34 34L34 35L35 35L35 34ZM37 35L37 36L40 36L40 35ZM11 36L11 37L12 37L12 39L13 39L13 36ZM34 37L34 38L36 38L36 37ZM9 38L9 39L10 39L10 38ZM18 38L18 39L17 39L17 40L19 40L19 38ZM29 38L29 39L28 39L28 40L31 40L31 39L30 39L30 38ZM37 38L37 39L38 39L38 38ZM0 0L0 7L7 7L7 0ZM1 1L1 6L6 6L6 1ZM2 2L2 5L5 5L5 2ZM34 0L34 7L41 7L41 0ZM35 1L35 6L40 6L40 1ZM36 2L36 5L39 5L39 2ZM0 34L0 41L7 41L7 34ZM1 35L1 40L6 40L6 35ZM2 36L2 39L5 39L5 36Z" fill="#000000"/></g></g></svg>
