<?xml version="1.0" encoding="UTF-8"?>
<svg xmlns="http://www.w3.org/2000/svg" version="1.1" width="200" height="200" viewBox="0 0 200 200"><rect x="0" y="0" width="200" height="200" fill="#ffffff"/><g transform="scale(6.897)"><g transform="translate(0,0)"><path fill-rule="evenodd" d="M9 0L9 1L8 1L8 7L9 7L9 6L10 6L10 7L11 7L11 8L5 8L5 10L4 10L4 9L3 9L3 8L2 8L2 9L3 9L3 10L1 10L1 12L0 12L0 13L1 13L1 16L3 16L3 15L2 15L2 13L4 13L4 15L5 15L5 17L7 17L7 18L6 18L6 19L7 19L7 18L8 18L8 20L6 20L6 21L8 21L8 24L10 24L10 23L9 23L9 22L12 22L12 23L11 23L11 24L13 24L13 23L15 23L15 22L14 22L14 21L12 21L12 20L13 20L13 19L12 19L12 17L13 17L13 18L14 18L14 20L15 20L15 21L16 21L16 20L15 20L15 18L14 18L14 17L15 17L15 16L16 16L16 17L18 17L18 19L17 19L17 20L18 20L18 21L20 21L20 22L19 22L19 23L17 23L17 22L16 22L16 23L17 23L17 24L16 24L16 26L15 26L15 24L14 24L14 27L13 27L13 25L11 25L11 27L10 27L10 28L9 28L9 29L10 29L10 28L11 28L11 27L12 27L12 28L14 28L14 27L15 27L15 29L17 29L17 28L18 28L18 29L19 29L19 28L18 28L18 27L19 27L19 26L20 26L20 27L21 27L21 29L22 29L22 28L24 28L24 29L25 29L25 28L24 28L24 26L23 26L23 27L22 27L22 26L21 26L21 25L25 25L25 23L26 23L26 21L27 21L27 18L28 18L28 19L29 19L29 18L28 18L28 17L29 17L29 16L27 16L27 17L25 17L25 16L22 16L22 15L25 15L25 14L26 14L26 13L29 13L29 12L27 12L27 11L29 11L29 9L28 9L28 8L23 8L23 10L22 10L22 11L21 11L21 9L22 9L22 8L21 8L21 0L19 0L19 1L20 1L20 2L19 2L19 3L20 3L20 5L19 5L19 4L18 4L18 5L16 5L16 3L18 3L18 2L16 2L16 1L18 1L18 0L16 0L16 1L15 1L15 3L14 3L14 4L13 4L13 1L14 1L14 0L13 0L13 1L12 1L12 0L11 0L11 3L10 3L10 2L9 2L9 1L10 1L10 0ZM11 3L11 5L12 5L12 6L11 6L11 7L12 7L12 8L11 8L11 10L10 10L10 9L9 9L9 10L8 10L8 9L6 9L6 10L5 10L5 12L4 12L4 13L5 13L5 14L7 14L7 15L6 15L6 16L7 16L7 17L9 17L9 21L10 21L10 20L12 20L12 19L10 19L10 17L9 17L9 16L11 16L11 17L12 17L12 16L11 16L11 15L9 15L9 14L8 14L8 13L5 13L5 12L8 12L8 11L10 11L10 12L9 12L9 13L11 13L11 14L12 14L12 15L13 15L13 14L14 14L14 16L15 16L15 15L17 15L17 13L18 13L18 11L20 11L20 8L19 8L19 7L20 7L20 6L19 6L19 7L18 7L18 6L17 6L17 7L16 7L16 6L15 6L15 9L16 9L16 11L15 11L15 10L14 10L14 9L12 9L12 8L13 8L13 7L14 7L14 6L13 6L13 4L12 4L12 3ZM9 4L9 5L10 5L10 4ZM14 4L14 5L15 5L15 4ZM12 6L12 7L13 7L13 6ZM17 7L17 11L16 11L16 12L17 12L17 11L18 11L18 7ZM25 9L25 10L24 10L24 11L27 11L27 10L28 10L28 9ZM3 10L3 11L4 11L4 10ZM6 10L6 11L8 11L8 10ZM12 11L12 13L14 13L14 14L15 14L15 12L13 12L13 11ZM1 12L1 13L2 13L2 12ZM19 12L19 14L18 14L18 15L19 15L19 16L20 16L20 17L19 17L19 18L20 18L20 19L19 19L19 20L22 20L22 19L21 19L21 15L19 15L19 14L22 14L22 12L21 12L21 13L20 13L20 12ZM23 12L23 14L25 14L25 13L24 13L24 12ZM27 14L27 15L29 15L29 14ZM7 15L7 16L8 16L8 15ZM1 17L1 18L0 18L0 19L2 19L2 18L4 18L4 20L0 20L0 21L5 21L5 18L4 18L4 17ZM22 17L22 18L25 18L25 19L26 19L26 18L25 18L25 17ZM23 19L23 20L24 20L24 19ZM21 21L21 24L24 24L24 21ZM22 22L22 23L23 23L23 22ZM28 22L28 23L29 23L29 22ZM19 23L19 24L20 24L20 23ZM17 24L17 27L16 27L16 28L17 28L17 27L18 27L18 24ZM26 24L26 26L25 26L25 27L26 27L26 28L27 28L27 29L29 29L29 26L27 26L27 25L28 25L28 24ZM8 26L8 27L9 27L9 26ZM27 27L27 28L28 28L28 27ZM0 0L0 7L7 7L7 0ZM1 1L1 6L6 6L6 1ZM2 2L2 5L5 5L5 2ZM22 0L22 7L29 7L29 0ZM23 1L23 6L28 6L28 1ZM24 2L24 5L27 5L27 2ZM0 22L0 29L7 29L7 22ZM1 23L1 28L6 28L6 23ZM2 24L2 27L5 27L5 24Z" fill="#000000"/></g></g></svg>
