<?xml version="1.0" encoding="UTF-8"?>
<svg xmlns="http://www.w3.org/2000/svg" version="1.1" width="200" height="200" viewBox="0 0 200 200"><rect x="0" y="0" width="200" height="200" fill="#ffffff"/><g transform="scale(6.897)"><g transform="translate(0,0)"><path fill-rule="evenodd" d="M8 0L8 1L9 1L9 2L8 2L8 3L9 3L9 4L8 4L8 5L9 5L9 6L8 6L8 8L9 8L9 6L10 6L10 8L11 8L11 6L10 6L10 5L9 5L9 4L10 4L10 3L12 3L12 4L11 4L11 5L12 5L12 4L13 4L13 2L11 2L11 0ZM12 0L12 1L13 1L13 0ZM14 0L14 1L15 1L15 2L14 2L14 3L15 3L15 4L14 4L14 5L15 5L15 6L14 6L14 7L13 7L13 6L12 6L12 9L13 9L13 11L12 11L12 10L11 10L11 9L10 9L10 10L9 10L9 9L8 9L8 10L9 10L9 11L8 11L8 12L9 12L9 14L10 14L10 10L11 10L11 15L9 15L9 18L8 18L8 17L7 17L7 16L8 16L8 15L7 15L7 14L6 14L6 15L5 15L5 14L4 14L4 13L3 13L3 12L4 12L4 11L5 11L5 13L7 13L7 12L6 12L6 11L7 11L7 10L6 10L6 9L7 9L7 8L5 8L5 10L3 10L3 9L2 9L2 10L3 10L3 11L0 11L0 12L2 12L2 13L1 13L1 14L0 14L0 15L2 15L2 16L4 16L4 15L5 15L5 16L6 16L6 17L7 17L7 18L5 18L5 17L4 17L4 19L3 19L3 18L1 18L1 17L0 17L0 21L1 21L1 19L2 19L2 21L7 21L7 20L9 20L9 19L10 19L10 20L11 20L11 19L10 19L10 18L11 18L11 16L12 16L12 18L13 18L13 19L12 19L12 20L13 20L13 21L11 21L11 22L10 22L10 23L11 23L11 22L12 22L12 23L14 23L14 24L13 24L13 25L14 25L14 26L11 26L11 24L10 24L10 29L12 29L12 28L13 28L13 29L15 29L15 24L17 24L17 23L18 23L18 24L19 24L19 27L18 27L18 26L17 26L17 25L16 25L16 26L17 26L17 27L16 27L16 28L17 28L17 27L18 27L18 29L25 29L25 28L27 28L27 29L28 29L28 28L27 28L27 27L28 27L28 26L27 26L27 24L28 24L28 25L29 25L29 24L28 24L28 23L27 23L27 22L28 22L28 21L29 21L29 20L28 20L28 21L25 21L25 20L23 20L23 19L25 19L25 18L28 18L28 19L29 19L29 18L28 18L28 16L29 16L29 15L28 15L28 14L26 14L26 13L29 13L29 12L27 12L27 11L28 11L28 10L26 10L26 9L27 9L27 8L26 8L26 9L25 9L25 8L24 8L24 9L23 9L23 8L22 8L22 10L24 10L24 9L25 9L25 12L24 12L24 11L20 11L20 10L19 10L19 9L20 9L20 7L21 7L21 5L20 5L20 4L19 4L19 3L18 3L18 4L17 4L17 6L16 6L16 3L17 3L17 2L16 2L16 1L15 1L15 0ZM17 0L17 1L18 1L18 2L19 2L19 1L20 1L20 2L21 2L21 0L19 0L19 1L18 1L18 0ZM18 5L18 6L17 6L17 7L18 7L18 6L19 6L19 7L20 7L20 6L19 6L19 5ZM15 6L15 7L14 7L14 8L13 8L13 9L14 9L14 12L12 12L12 16L13 16L13 18L15 18L15 16L14 16L14 15L15 15L15 14L14 14L14 13L16 13L16 17L17 17L17 16L19 16L19 17L18 17L18 19L17 19L17 18L16 18L16 19L17 19L17 21L16 21L16 20L15 20L15 19L13 19L13 20L15 20L15 21L16 21L16 22L14 22L14 21L13 21L13 22L14 22L14 23L17 23L17 21L18 21L18 23L19 23L19 24L20 24L20 20L22 20L22 19L21 19L21 17L20 17L20 15L21 15L21 14L22 14L22 15L23 15L23 16L22 16L22 18L24 18L24 12L23 12L23 14L22 14L22 12L21 12L21 13L20 13L20 12L19 12L19 11L18 11L18 12L17 12L17 11L16 11L16 10L17 10L17 9L19 9L19 8L16 8L16 9L14 9L14 8L15 8L15 7L16 7L16 6ZM28 8L28 9L29 9L29 8ZM16 12L16 13L17 13L17 14L18 14L18 15L19 15L19 14L18 14L18 13L19 13L19 12L18 12L18 13L17 13L17 12ZM2 13L2 15L4 15L4 14L3 14L3 13ZM6 15L6 16L7 16L7 15ZM25 15L25 16L26 16L26 15ZM7 18L7 19L6 19L6 20L7 20L7 19L8 19L8 18ZM19 18L19 19L18 19L18 20L19 20L19 19L20 19L20 18ZM8 21L8 22L9 22L9 21ZM21 21L21 24L24 24L24 21ZM22 22L22 23L23 23L23 22ZM25 22L25 26L24 26L24 25L21 25L21 26L20 26L20 27L19 27L19 28L20 28L20 27L21 27L21 26L23 26L23 27L22 27L22 28L23 28L23 27L25 27L25 26L26 26L26 24L27 24L27 23L26 23L26 22ZM8 23L8 24L9 24L9 23ZM0 0L0 7L7 7L7 0ZM1 1L1 6L6 6L6 1ZM2 2L2 5L5 5L5 2ZM22 0L22 7L29 7L29 0ZM23 1L23 6L28 6L28 1ZM24 2L24 5L27 5L27 2ZM0 22L0 29L7 29L7 22ZM1 23L1 28L6 28L6 23ZM2 24L2 27L5 27L5 24Z" fill="#000000"/></g></g></svg>
