<?xml version="1.0" encoding="UTF-8"?>
<svg xmlns="http://www.w3.org/2000/svg" version="1.1" width="200" height="200" viewBox="0 0 200 200"><rect x="0" y="0" width="200" height="200" fill="#ffffff"/><g transform="scale(4.878)"><g transform="translate(0,0)"><path fill-rule="evenodd" d="M9 0L9 2L10 2L10 3L9 3L9 4L8 4L8 5L9 5L9 4L10 4L10 5L12 5L12 8L16 8L16 9L15 9L15 10L14 10L14 9L13 9L13 10L12 10L12 9L9 9L9 8L10 8L10 7L11 7L11 6L10 6L10 7L9 7L9 6L8 6L8 8L6 8L6 9L5 9L5 10L6 10L6 11L4 11L4 8L2 8L2 9L3 9L3 10L2 10L2 11L1 11L1 9L0 9L0 13L2 13L2 14L3 14L3 11L4 11L4 12L5 12L5 13L7 13L7 12L6 12L6 11L8 11L8 13L11 13L11 14L12 14L12 15L14 15L14 16L13 16L13 17L14 17L14 18L13 18L13 21L12 21L12 22L13 22L13 21L14 21L14 23L15 23L15 22L16 22L16 25L15 25L15 24L14 24L14 26L13 26L13 24L11 24L11 23L10 23L10 21L11 21L11 20L12 20L12 19L11 19L11 20L10 20L10 18L12 18L12 16L10 16L10 14L9 14L9 15L7 15L7 14L6 14L6 15L7 15L7 16L6 16L6 17L3 17L3 16L2 16L2 15L0 15L0 16L2 16L2 17L0 17L0 18L1 18L1 20L3 20L3 21L1 21L1 22L3 22L3 24L4 24L4 23L5 23L5 22L6 22L6 23L10 23L10 25L9 25L9 24L6 24L6 25L8 25L8 26L6 26L6 27L7 27L7 28L6 28L6 29L9 29L9 31L11 31L11 30L12 30L12 32L14 32L14 33L15 33L15 34L13 34L13 35L14 35L14 38L13 38L13 37L12 37L12 36L9 36L9 37L8 37L8 39L11 39L11 38L13 38L13 41L14 41L14 38L15 38L15 39L16 39L16 38L17 38L17 37L19 37L19 36L18 36L18 35L19 35L19 34L17 34L17 33L16 33L16 31L17 31L17 32L18 32L18 33L20 33L20 32L21 32L21 31L23 31L23 28L24 28L24 29L25 29L25 30L24 30L24 31L26 31L26 29L27 29L27 28L29 28L29 26L28 26L28 25L30 25L30 24L27 24L27 21L28 21L28 20L27 20L27 19L28 19L28 18L29 18L29 19L30 19L30 18L31 18L31 17L32 17L32 16L33 16L33 15L30 15L30 13L32 13L32 11L33 11L33 14L34 14L34 15L35 15L35 16L36 16L36 17L37 17L37 16L38 16L38 14L39 14L39 15L41 15L41 13L40 13L40 14L39 14L39 13L38 13L38 14L36 14L36 13L35 13L35 14L34 14L34 12L36 12L36 11L38 11L38 10L37 10L37 8L36 8L36 10L35 10L35 8L32 8L32 7L33 7L33 5L32 5L32 4L31 4L31 3L32 3L32 2L33 2L33 1L32 1L32 0L31 0L31 1L32 1L32 2L30 2L30 1L28 1L28 2L30 2L30 4L29 4L29 3L28 3L28 4L27 4L27 3L26 3L26 7L27 7L27 8L28 8L28 13L29 13L29 15L30 15L30 16L31 16L31 17L27 17L27 16L28 16L28 15L27 15L27 14L24 14L24 15L26 15L26 16L23 16L23 17L22 17L22 18L21 18L21 17L20 17L20 16L21 16L21 15L23 15L23 14L22 14L22 13L24 13L24 12L23 12L23 11L26 11L26 12L25 12L25 13L27 13L27 9L25 9L25 8L24 8L24 7L25 7L25 6L24 6L24 7L23 7L23 3L24 3L24 4L25 4L25 2L26 2L26 1L27 1L27 0L25 0L25 1L24 1L24 0L19 0L19 1L20 1L20 3L21 3L21 4L19 4L19 6L18 6L18 7L19 7L19 8L16 8L16 7L17 7L17 6L16 6L16 5L17 5L17 4L18 4L18 3L19 3L19 2L18 2L18 3L16 3L16 5L12 5L12 4L15 4L15 0L14 0L14 1L13 1L13 0L12 0L12 2L11 2L11 1L10 1L10 0ZM16 0L16 2L17 2L17 1L18 1L18 0ZM21 1L21 2L22 2L22 1ZM11 3L11 4L12 4L12 3ZM21 4L21 5L20 5L20 6L19 6L19 7L20 7L20 10L21 10L21 11L19 11L19 9L18 9L18 11L16 11L16 13L18 13L18 16L19 16L19 15L20 15L20 14L21 14L21 13L20 13L20 12L22 12L22 10L23 10L23 9L24 9L24 10L25 10L25 9L24 9L24 8L23 8L23 9L22 9L22 4ZM28 4L28 5L27 5L27 7L28 7L28 8L29 8L29 7L30 7L30 5L29 5L29 4ZM13 6L13 7L14 7L14 6ZM15 6L15 7L16 7L16 6ZM20 6L20 7L21 7L21 6ZM28 6L28 7L29 7L29 6ZM31 6L31 7L32 7L32 6ZM30 8L30 9L29 9L29 10L30 10L30 11L29 11L29 12L30 12L30 11L32 11L32 10L33 10L33 11L35 11L35 10L34 10L34 9L32 9L32 10L31 10L31 8ZM6 9L6 10L7 10L7 9ZM40 9L40 10L41 10L41 9ZM8 10L8 11L9 11L9 12L10 12L10 10ZM13 10L13 11L12 11L12 13L13 13L13 12L15 12L15 11L14 11L14 10ZM18 12L18 13L19 13L19 14L20 14L20 13L19 13L19 12ZM14 13L14 15L15 15L15 13ZM4 15L4 16L5 16L5 15ZM8 16L8 18L7 18L7 17L6 17L6 18L3 18L3 20L5 20L5 21L6 21L6 22L7 22L7 21L6 21L6 20L8 20L8 19L9 19L9 16ZM14 16L14 17L17 17L17 16ZM39 16L39 19L38 19L38 18L37 18L37 19L36 19L36 20L37 20L37 21L40 21L40 17L41 17L41 16ZM19 17L19 18L18 18L18 20L17 20L17 21L16 21L16 20L15 20L15 18L14 18L14 20L15 20L15 21L16 21L16 22L17 22L17 23L18 23L18 24L17 24L17 25L18 25L18 26L15 26L15 28L14 28L14 27L13 27L13 26L12 26L12 27L13 27L13 28L11 28L11 29L13 29L13 28L14 28L14 29L15 29L15 30L13 30L13 31L16 31L16 29L17 29L17 31L18 31L18 29L20 29L20 30L19 30L19 31L20 31L20 30L22 30L22 29L21 29L21 28L19 28L19 27L18 27L18 26L19 26L19 24L21 24L21 25L20 25L20 26L21 26L21 27L23 27L23 26L22 26L22 24L23 24L23 23L24 23L24 22L23 22L23 21L22 21L22 20L21 20L21 19L19 19L19 18L20 18L20 17ZM23 17L23 18L22 18L22 19L23 19L23 18L24 18L24 19L25 19L25 20L24 20L24 21L25 21L25 20L26 20L26 21L27 21L27 20L26 20L26 19L27 19L27 17L26 17L26 18L25 18L25 17ZM6 18L6 19L5 19L5 20L6 20L6 19L7 19L7 18ZM16 18L16 19L17 19L17 18ZM34 18L34 19L32 19L32 20L30 20L30 22L28 22L28 23L30 23L30 22L32 22L32 21L33 21L33 20L34 20L34 22L35 22L35 25L34 25L34 24L33 24L33 23L31 23L31 24L32 24L32 25L31 25L31 26L30 26L30 27L32 27L32 28L33 28L33 29L34 29L34 31L33 31L33 30L32 30L32 29L31 29L31 28L30 28L30 29L31 29L31 30L30 30L30 31L27 31L27 32L25 32L25 33L22 33L22 34L21 34L21 35L20 35L20 36L21 36L21 35L22 35L22 36L23 36L23 38L24 38L24 37L26 37L26 36L25 36L25 35L24 35L24 36L23 36L23 35L22 35L22 34L26 34L26 35L27 35L27 38L25 38L25 41L27 41L27 40L26 40L26 39L27 39L27 38L28 38L28 39L30 39L30 41L33 41L33 39L34 39L34 38L33 38L33 39L32 39L32 40L31 40L31 38L32 38L32 37L35 37L35 41L37 41L37 40L36 40L36 37L37 37L37 39L38 39L38 38L39 38L39 37L40 37L40 39L39 39L39 40L38 40L38 41L40 41L40 39L41 39L41 37L40 37L40 35L39 35L39 34L41 34L41 33L39 33L39 31L40 31L40 30L38 30L38 33L39 33L39 34L37 34L37 32L36 32L36 31L37 31L37 30L36 30L36 31L35 31L35 27L36 27L36 29L37 29L37 28L38 28L38 29L39 29L39 28L41 28L41 24L40 24L40 22L36 22L36 21L35 21L35 20L34 20L34 19L35 19L35 18ZM9 20L9 21L10 21L10 20ZM18 20L18 21L17 21L17 22L19 22L19 23L20 23L20 22L22 22L22 21L21 21L21 20L20 20L20 22L19 22L19 20ZM38 23L38 24L39 24L39 25L38 25L38 26L37 26L37 24L36 24L36 27L38 27L38 28L39 28L39 27L40 27L40 26L39 26L39 25L40 25L40 24L39 24L39 23ZM24 24L24 25L25 25L25 27L24 27L24 28L25 28L25 27L28 27L28 26L27 26L27 25L25 25L25 24ZM1 25L1 28L2 28L2 30L5 30L5 31L7 31L7 32L4 32L4 31L3 31L3 32L1 32L1 33L3 33L3 32L4 32L4 33L7 33L7 32L8 32L8 35L12 35L12 34L9 34L9 32L8 32L8 31L7 31L7 30L5 30L5 29L4 29L4 27L3 27L3 25ZM8 26L8 28L9 28L9 29L10 29L10 27L11 27L11 26ZM32 26L32 27L33 27L33 26ZM34 26L34 27L35 27L35 26ZM2 27L2 28L3 28L3 27ZM17 27L17 28L18 28L18 27ZM15 28L15 29L16 29L16 28ZM0 30L0 31L1 31L1 30ZM31 30L31 31L30 31L30 32L32 32L32 30ZM34 31L34 32L35 32L35 31ZM10 32L10 33L11 33L11 32ZM28 32L28 33L26 33L26 34L27 34L27 35L28 35L28 36L29 36L29 37L28 37L28 38L29 38L29 37L30 37L30 35L31 35L31 34L30 34L30 33L29 33L29 32ZM33 33L33 36L36 36L36 33ZM15 34L15 36L16 36L16 37L15 37L15 38L16 38L16 37L17 37L17 35L16 35L16 34ZM29 34L29 35L30 35L30 34ZM34 34L34 35L35 35L35 34ZM37 35L37 37L38 37L38 36L39 36L39 35ZM31 36L31 37L32 37L32 36ZM9 37L9 38L10 38L10 37ZM20 37L20 38L21 38L21 37ZM18 38L18 39L17 39L17 40L16 40L16 41L17 41L17 40L21 40L21 41L24 41L24 39L22 39L22 40L21 40L21 39L19 39L19 38ZM9 40L9 41L10 41L10 40ZM11 40L11 41L12 41L12 40ZM0 0L0 7L7 7L7 0ZM1 1L1 6L6 6L6 1ZM2 2L2 5L5 5L5 2ZM34 0L34 7L41 7L41 0ZM35 1L35 6L40 6L40 1ZM36 2L36 5L39 5L39 2ZM0 34L0 41L7 41L7 34ZM1 35L1 40L6 40L6 35ZM2 36L2 39L5 39L5 36Z" fill="#000000"/></g></g></svg>
