<?xml version="1.0" encoding="UTF-8"?>
<svg xmlns="http://www.w3.org/2000/svg" version="1.1" width="200" height="200" viewBox="0 0 200 200"><rect x="0" y="0" width="200" height="200" fill="#ffffff"/><g transform="scale(4.878)"><g transform="translate(0,0)"><path fill-rule="evenodd" d="M8 0L8 3L9 3L9 2L10 2L10 1L9 1L9 0ZM14 0L14 1L13 1L13 2L11 2L11 4L9 4L9 5L8 5L8 9L9 9L9 11L8 11L8 12L5 12L5 11L7 11L7 10L4 10L4 11L3 11L3 9L5 9L5 8L2 8L2 10L1 10L1 11L3 11L3 12L2 12L2 15L3 15L3 16L1 16L1 13L0 13L0 17L1 17L1 18L4 18L4 17L5 17L5 20L4 20L4 19L0 19L0 20L1 20L1 21L0 21L0 22L1 22L1 23L0 23L0 27L1 27L1 29L0 29L0 33L1 33L1 30L3 30L3 31L2 31L2 32L4 32L4 33L7 33L7 32L9 32L9 33L8 33L8 34L10 34L10 33L11 33L11 34L12 34L12 35L10 35L10 36L8 36L8 39L9 39L9 40L10 40L10 41L11 41L11 40L12 40L12 41L21 41L21 40L19 40L19 39L20 39L20 38L21 38L21 37L22 37L22 38L23 38L23 39L22 39L22 40L23 40L23 39L24 39L24 40L26 40L26 41L27 41L27 40L28 40L28 39L29 39L29 38L30 38L30 39L31 39L31 38L33 38L33 39L32 39L32 40L31 40L31 41L32 41L32 40L33 40L33 41L34 41L34 40L33 40L33 39L35 39L35 40L36 40L36 39L37 39L37 40L40 40L40 38L41 38L41 37L40 37L40 34L41 34L41 33L40 33L40 32L41 32L41 31L40 31L40 30L41 30L41 29L40 29L40 26L41 26L41 23L39 23L39 22L38 22L38 21L39 21L39 20L36 20L36 19L35 19L35 17L36 17L36 18L37 18L37 19L40 19L40 18L41 18L41 16L40 16L40 18L37 18L37 17L39 17L39 16L37 16L37 15L38 15L38 14L41 14L41 13L38 13L38 14L37 14L37 13L36 13L36 14L35 14L35 15L36 15L36 16L35 16L35 17L34 17L34 16L32 16L32 17L30 17L30 16L29 16L29 15L31 15L31 12L32 12L32 13L33 13L33 14L32 14L32 15L34 15L34 13L35 13L35 9L36 9L36 11L37 11L37 12L38 12L38 11L39 11L39 12L41 12L41 11L40 11L40 10L41 10L41 8L38 8L38 9L40 9L40 10L37 10L37 9L36 9L36 8L33 8L33 4L30 4L30 5L29 5L29 4L28 4L28 5L27 5L27 4L25 4L25 5L24 5L24 4L23 4L23 2L22 2L22 3L21 3L21 4L20 4L20 3L19 3L19 5L20 5L20 7L19 7L19 6L18 6L18 5L17 5L17 4L18 4L18 3L17 3L17 2L20 2L20 1L21 1L21 0L19 0L19 1L17 1L17 0ZM23 0L23 1L24 1L24 2L25 2L25 1L24 1L24 0ZM26 0L26 1L27 1L27 2L26 2L26 3L31 3L31 2L30 2L30 1L33 1L33 0L29 0L29 1L27 1L27 0ZM14 2L14 3L12 3L12 5L16 5L16 6L15 6L15 8L17 8L17 7L18 7L18 11L19 11L19 12L20 12L20 11L19 11L19 10L21 10L21 13L24 13L24 16L25 16L25 12L26 12L26 15L27 15L27 16L26 16L26 17L27 17L27 18L29 18L29 20L28 20L28 21L26 21L26 22L25 22L25 23L24 23L24 21L25 21L25 20L27 20L27 19L23 19L23 18L25 18L25 17L23 17L23 18L22 18L22 19L20 19L20 17L22 17L22 16L23 16L23 14L22 14L22 16L21 16L21 15L18 15L18 14L19 14L19 13L18 13L18 14L17 14L17 13L16 13L16 14L15 14L15 15L14 15L14 16L13 16L13 17L14 17L14 18L12 18L12 16L11 16L11 15L12 15L12 14L11 14L11 13L10 13L10 14L11 14L11 15L8 15L8 19L10 19L10 20L11 20L11 21L14 21L14 22L15 22L15 23L13 23L13 25L11 25L11 24L9 24L9 23L10 23L10 22L9 22L9 20L8 20L8 21L6 21L6 20L7 20L7 19L6 19L6 20L5 20L5 21L6 21L6 22L5 22L5 23L4 23L4 22L3 22L3 21L1 21L1 22L3 22L3 23L2 23L2 24L1 24L1 25L3 25L3 23L4 23L4 25L6 25L6 26L7 26L7 27L6 27L6 28L5 28L5 26L2 26L2 27L4 27L4 29L3 29L3 30L4 30L4 31L5 31L5 32L7 32L7 31L5 31L5 30L7 30L7 29L8 29L8 31L9 31L9 32L12 32L12 34L13 34L13 37L14 37L14 38L13 38L13 39L12 39L12 38L11 38L11 39L12 39L12 40L13 40L13 39L14 39L14 40L15 40L15 39L16 39L16 38L18 38L18 39L17 39L17 40L18 40L18 39L19 39L19 38L20 38L20 37L21 37L21 36L22 36L22 37L23 37L23 38L25 38L25 37L23 37L23 35L24 35L24 36L25 36L25 35L24 35L24 34L23 34L23 35L22 35L22 34L21 34L21 33L25 33L25 34L29 34L29 33L27 33L27 30L26 30L26 31L25 31L25 30L24 30L24 29L27 29L27 28L31 28L31 29L28 29L28 30L32 30L32 31L33 31L33 32L36 32L36 31L37 31L37 32L39 32L39 31L37 31L37 30L35 30L35 29L38 29L38 30L39 30L39 26L40 26L40 24L39 24L39 23L37 23L37 24L36 24L36 23L35 23L35 22L36 22L36 21L35 21L35 19L34 19L34 18L33 18L33 17L32 17L32 18L31 18L31 19L30 19L30 17L29 17L29 16L28 16L28 15L29 15L29 14L30 14L30 13L29 13L29 12L31 12L31 11L34 11L34 9L33 9L33 8L32 8L32 5L31 5L31 9L26 9L26 10L29 10L29 12L28 12L28 13L29 13L29 14L27 14L27 11L24 11L24 10L23 10L23 9L22 9L22 8L23 8L23 7L24 7L24 9L25 9L25 8L28 8L28 6L29 6L29 8L30 8L30 6L29 6L29 5L28 5L28 6L27 6L27 7L26 7L26 5L25 5L25 7L24 7L24 5L23 5L23 4L22 4L22 6L21 6L21 9L19 9L19 7L18 7L18 6L17 6L17 5L16 5L16 2ZM14 3L14 4L15 4L15 3ZM9 5L9 7L10 7L10 6L11 6L11 7L12 7L12 8L10 8L10 10L11 10L11 9L13 9L13 10L12 10L12 11L11 11L11 12L13 12L13 10L14 10L14 13L13 13L13 14L14 14L14 13L15 13L15 10L16 10L16 12L17 12L17 10L16 10L16 9L14 9L14 6L13 6L13 7L12 7L12 6L11 6L11 5ZM16 6L16 7L17 7L17 6ZM22 6L22 7L23 7L23 6ZM6 8L6 9L7 9L7 8ZM21 9L21 10L22 10L22 11L23 11L23 10L22 10L22 9ZM31 9L31 10L30 10L30 11L31 11L31 10L33 10L33 9ZM9 11L9 12L8 12L8 13L6 13L6 14L9 14L9 12L10 12L10 11ZM3 12L3 14L4 14L4 15L5 15L5 17L6 17L6 18L7 18L7 17L6 17L6 16L7 16L7 15L5 15L5 13L4 13L4 12ZM33 12L33 13L34 13L34 12ZM36 14L36 15L37 15L37 14ZM15 15L15 16L17 16L17 17L15 17L15 18L14 18L14 19L12 19L12 18L11 18L11 20L14 20L14 19L17 19L17 17L18 17L18 18L19 18L19 17L18 17L18 16L17 16L17 15ZM9 16L9 18L10 18L10 16ZM36 16L36 17L37 17L37 16ZM32 18L32 19L31 19L31 20L30 20L30 21L31 21L31 22L29 22L29 21L28 21L28 22L27 22L27 23L26 23L26 24L25 24L25 25L24 25L24 26L23 26L23 24L24 24L24 23L23 23L23 21L24 21L24 20L23 20L23 21L22 21L22 23L23 23L23 24L22 24L22 25L21 25L21 24L20 24L20 21L21 21L21 20L19 20L19 19L18 19L18 20L19 20L19 21L16 21L16 20L15 20L15 22L17 22L17 23L16 23L16 24L15 24L15 25L16 25L16 24L17 24L17 23L18 23L18 25L17 25L17 26L16 26L16 27L15 27L15 26L14 26L14 27L15 27L15 28L13 28L13 26L10 26L10 25L8 25L8 27L9 27L9 26L10 26L10 27L12 27L12 30L11 30L11 31L12 31L12 30L13 30L13 29L14 29L14 30L16 30L16 31L15 31L15 32L16 32L16 31L17 31L17 32L18 32L18 30L19 30L19 31L20 31L20 33L21 33L21 32L22 32L22 30L23 30L23 29L20 29L20 27L21 27L21 28L22 28L22 27L23 27L23 28L24 28L24 26L25 26L25 25L26 25L26 26L27 26L27 27L26 27L26 28L27 28L27 27L28 27L28 26L27 26L27 25L29 25L29 26L30 26L30 25L31 25L31 26L32 26L32 25L33 25L33 27L31 27L31 28L33 28L33 29L32 29L32 30L33 30L33 29L34 29L34 28L33 28L33 27L34 27L34 26L35 26L35 25L36 25L36 26L37 26L37 27L36 27L36 28L38 28L38 26L39 26L39 25L36 25L36 24L35 24L35 25L33 25L33 24L34 24L34 23L33 23L33 22L32 22L32 21L34 21L34 22L35 22L35 21L34 21L34 20L33 20L33 18ZM31 20L31 21L32 21L32 20ZM40 20L40 21L41 21L41 20ZM6 22L6 23L5 23L5 24L6 24L6 25L7 25L7 24L6 24L6 23L9 23L9 22ZM11 22L11 23L12 23L12 22ZM31 22L31 23L27 23L27 24L26 24L26 25L27 25L27 24L31 24L31 25L32 25L32 24L33 24L33 23L32 23L32 22ZM17 26L17 27L16 27L16 28L18 28L18 27L20 27L20 26ZM21 26L21 27L22 27L22 26ZM6 28L6 29L7 29L7 28ZM8 28L8 29L9 29L9 28ZM4 29L4 30L5 30L5 29ZM17 29L17 30L18 30L18 29ZM34 30L34 31L35 31L35 30ZM23 31L23 32L25 32L25 33L26 33L26 32L25 32L25 31ZM28 31L28 32L30 32L30 31ZM14 33L14 35L17 35L17 36L14 36L14 37L17 37L17 36L19 36L19 37L20 37L20 35L21 35L21 34L19 34L19 35L18 35L18 34L17 34L17 33ZM30 33L30 35L31 35L31 36L29 36L29 35L28 35L28 36L27 36L27 35L26 35L26 38L28 38L28 37L32 37L32 35L31 35L31 33ZM33 33L33 36L36 36L36 33ZM37 33L37 34L39 34L39 33ZM34 34L34 35L35 35L35 34ZM38 35L38 36L37 36L37 37L38 37L38 36L39 36L39 35ZM10 36L10 37L11 37L11 36ZM33 37L33 38L36 38L36 37ZM9 38L9 39L10 39L10 38ZM37 38L37 39L38 39L38 38ZM29 40L29 41L30 41L30 40ZM0 0L0 7L7 7L7 0ZM1 1L1 6L6 6L6 1ZM2 2L2 5L5 5L5 2ZM34 0L34 7L41 7L41 0ZM35 1L35 6L40 6L40 1ZM36 2L36 5L39 5L39 2ZM0 34L0 41L7 41L7 34ZM1 35L1 40L6 40L6 35ZM2 36L2 39L5 39L5 36Z" fill="#000000"/></g></g></svg>
