<?xml version="1.0" encoding="UTF-8"?>
<svg xmlns="http://www.w3.org/2000/svg" version="1.1" width="200" height="200" viewBox="0 0 200 200"><rect x="0" y="0" width="200" height="200" fill="#ffffff"/><g transform="scale(4.878)"><g transform="translate(0,0)"><path fill-rule="evenodd" d="M8 0L8 3L9 3L9 5L8 5L8 9L7 9L7 8L6 8L6 9L7 9L7 10L6 10L6 11L7 11L7 10L9 10L9 11L8 11L8 12L12 12L12 13L13 13L13 14L12 14L12 17L11 17L11 18L10 18L10 17L8 17L8 15L9 15L9 16L11 16L11 15L10 15L10 14L11 14L11 13L10 13L10 14L9 14L9 13L8 13L8 14L6 14L6 13L7 13L7 12L5 12L5 11L4 11L4 13L5 13L5 15L7 15L7 16L6 16L6 17L8 17L8 18L5 18L5 19L4 19L4 23L5 23L5 24L6 24L6 25L5 25L5 26L4 26L4 25L2 25L2 26L1 26L1 25L0 25L0 26L1 26L1 27L2 27L2 26L4 26L4 27L7 27L7 26L8 26L8 27L9 27L9 28L8 28L8 29L9 29L9 28L10 28L10 27L11 27L11 24L12 24L12 26L13 26L13 27L14 27L14 28L15 28L15 29L13 29L13 30L16 30L16 31L14 31L14 32L13 32L13 33L14 33L14 34L16 34L16 36L12 36L12 35L11 35L11 34L12 34L12 32L11 32L11 31L12 31L12 28L11 28L11 30L10 30L10 31L9 31L9 30L6 30L6 29L7 29L7 28L5 28L5 29L4 29L4 28L0 28L0 33L1 33L1 29L2 29L2 30L3 30L3 29L4 29L4 32L3 32L3 31L2 31L2 33L8 33L8 34L9 34L9 35L11 35L11 36L8 36L8 39L9 39L9 40L11 40L11 41L12 41L12 40L13 40L13 37L16 37L16 39L17 39L17 37L16 37L16 36L19 36L19 37L18 37L18 38L21 38L21 40L22 40L22 38L25 38L25 36L24 36L24 37L23 37L23 35L27 35L27 36L26 36L26 39L27 39L27 40L25 40L25 39L24 39L24 40L23 40L23 41L27 41L27 40L28 40L28 41L31 41L31 40L33 40L33 41L34 41L34 40L33 40L33 39L35 39L35 40L36 40L36 39L37 39L37 40L40 40L40 38L41 38L41 37L39 37L39 36L37 36L37 35L38 35L38 34L39 34L39 35L40 35L40 34L41 34L41 33L39 33L39 32L41 32L41 31L40 31L40 30L41 30L41 29L40 29L40 28L41 28L41 27L40 27L40 26L41 26L41 23L39 23L39 22L38 22L38 21L39 21L39 20L36 20L36 19L35 19L35 17L36 17L36 18L37 18L37 19L38 19L38 18L37 18L37 17L39 17L39 18L41 18L41 16L40 16L40 17L39 17L39 16L37 16L37 14L38 14L38 13L36 13L36 14L35 14L35 17L34 17L34 16L33 16L33 17L31 17L31 16L29 16L29 15L28 15L28 16L29 16L29 17L31 17L31 18L30 18L30 19L31 19L31 20L30 20L30 21L29 21L29 20L26 20L26 19L29 19L29 18L26 18L26 16L27 16L27 15L26 15L26 14L24 14L24 15L23 15L23 13L25 13L25 12L24 12L24 11L23 11L23 10L20 10L20 9L19 9L19 8L22 8L22 7L23 7L23 6L24 6L24 8L23 8L23 9L24 9L24 8L25 8L25 6L26 6L26 10L25 10L25 11L26 11L26 10L27 10L27 12L28 12L28 10L29 10L29 11L31 11L31 10L32 10L32 9L34 9L34 11L33 11L33 12L32 12L32 13L33 13L33 14L32 14L32 15L34 15L34 13L35 13L35 9L36 9L36 12L38 12L38 11L39 11L39 13L40 13L40 14L39 14L39 15L40 15L40 14L41 14L41 12L40 12L40 10L41 10L41 8L38 8L38 9L40 9L40 10L37 10L37 9L36 9L36 8L32 8L32 7L33 7L33 6L32 6L32 7L31 7L31 6L30 6L30 5L32 5L32 4L33 4L33 3L32 3L32 2L30 2L30 0L29 0L29 1L27 1L27 0L26 0L26 1L27 1L27 2L26 2L26 3L28 3L28 4L29 4L29 3L32 3L32 4L30 4L30 5L27 5L27 4L26 4L26 5L25 5L25 6L24 6L24 5L23 5L23 3L22 3L22 1L20 1L20 0L19 0L19 1L20 1L20 2L21 2L21 3L22 3L22 5L21 5L21 6L20 6L20 7L19 7L19 6L18 6L18 4L19 4L19 5L20 5L20 3L19 3L19 2L17 2L17 0L13 0L13 2L12 2L12 3L13 3L13 2L14 2L14 3L15 3L15 2L17 2L17 3L16 3L16 4L14 4L14 5L13 5L13 6L12 6L12 5L11 5L11 4L10 4L10 3L9 3L9 0ZM11 0L11 1L12 1L12 0ZM31 0L31 1L32 1L32 0ZM14 1L14 2L15 2L15 1ZM24 1L24 2L25 2L25 1ZM16 4L16 5L17 5L17 4ZM9 5L9 7L10 7L10 8L11 8L11 10L10 10L10 11L12 11L12 12L13 12L13 11L14 11L14 10L15 10L15 9L14 9L14 8L15 8L15 7L16 7L16 8L17 8L17 7L18 7L18 8L19 8L19 7L18 7L18 6L17 6L17 7L16 7L16 6L15 6L15 5L14 5L14 6L13 6L13 7L12 7L12 6L11 6L11 5ZM22 5L22 6L21 6L21 7L22 7L22 6L23 6L23 5ZM10 6L10 7L11 7L11 8L12 8L12 11L13 11L13 8L12 8L12 7L11 7L11 6ZM14 6L14 7L15 7L15 6ZM27 6L27 7L28 7L28 6ZM29 6L29 8L28 8L28 9L27 9L27 10L28 10L28 9L29 9L29 10L31 10L31 9L32 9L32 8L31 8L31 7L30 7L30 6ZM2 8L2 9L0 9L0 10L2 10L2 9L3 9L3 10L5 10L5 8ZM29 8L29 9L31 9L31 8ZM17 9L17 12L19 12L19 13L20 13L20 11L18 11L18 10L19 10L19 9ZM1 11L1 12L2 12L2 14L1 14L1 15L0 15L0 17L1 17L1 19L0 19L0 20L1 20L1 21L0 21L0 23L1 23L1 24L3 24L3 22L1 22L1 21L3 21L3 20L1 20L1 19L2 19L2 18L3 18L3 17L1 17L1 16L3 16L3 11ZM21 11L21 14L22 14L22 13L23 13L23 11ZM29 12L29 13L27 13L27 14L29 14L29 13L30 13L30 15L31 15L31 12ZM33 12L33 13L34 13L34 12ZM14 13L14 15L13 15L13 17L12 17L12 18L13 18L13 19L14 19L14 20L15 20L15 19L16 19L16 21L13 21L13 23L12 23L12 19L11 19L11 23L10 23L10 22L7 22L7 21L6 21L6 22L7 22L7 23L6 23L6 24L7 24L7 25L6 25L6 26L7 26L7 25L8 25L8 26L10 26L10 24L11 24L11 23L12 23L12 24L14 24L14 23L15 23L15 24L17 24L17 25L21 25L21 27L20 27L20 26L17 26L17 27L16 27L16 29L18 29L18 28L19 28L19 27L20 27L20 28L21 28L21 29L23 29L23 28L24 28L24 33L21 33L21 31L22 31L22 30L20 30L20 29L19 29L19 32L20 32L20 33L18 33L18 35L19 35L19 36L20 36L20 37L21 37L21 36L22 36L22 34L25 34L25 31L27 31L27 29L28 29L28 30L29 30L29 31L28 31L28 32L30 32L30 30L32 30L32 31L33 31L33 32L35 32L35 31L34 31L34 30L36 30L36 29L38 29L38 30L39 30L39 28L40 28L40 27L39 27L39 26L40 26L40 24L39 24L39 23L37 23L37 24L36 24L36 23L35 23L35 22L36 22L36 21L35 21L35 19L34 19L34 18L33 18L33 19L32 19L32 18L31 18L31 19L32 19L32 20L31 20L31 21L30 21L30 22L29 22L29 21L27 21L27 22L28 22L28 23L27 23L27 24L26 24L26 20L25 20L25 17L24 17L24 16L23 16L23 15L21 15L21 16L20 16L20 17L18 17L18 16L17 16L17 15L18 15L18 13L17 13L17 15L16 15L16 14L15 14L15 13ZM14 15L14 17L15 17L15 15ZM25 15L25 16L26 16L26 15ZM16 16L16 19L17 19L17 20L18 20L18 21L16 21L16 22L18 22L18 23L19 23L19 22L20 22L20 24L21 24L21 25L23 25L23 26L24 26L24 27L25 27L25 28L28 28L28 29L31 29L31 28L28 28L28 27L29 27L29 26L30 26L30 25L31 25L31 26L32 26L32 27L34 27L34 26L35 26L35 25L36 25L36 28L35 28L35 29L36 29L36 28L38 28L38 26L39 26L39 25L36 25L36 24L35 24L35 23L34 23L34 24L35 24L35 25L33 25L33 23L31 23L31 22L32 22L32 21L34 21L34 22L35 22L35 21L34 21L34 20L32 20L32 21L31 21L31 22L30 22L30 23L31 23L31 24L29 24L29 23L28 23L28 24L27 24L27 25L26 25L26 24L24 24L24 23L25 23L25 22L24 22L24 21L23 21L23 22L22 22L22 18L23 18L23 19L24 19L24 18L23 18L23 17L20 17L20 18L19 18L19 19L18 19L18 17L17 17L17 16ZM36 16L36 17L37 17L37 16ZM8 18L8 19L9 19L9 20L8 20L8 21L9 21L9 20L10 20L10 18ZM14 18L14 19L15 19L15 18ZM5 19L5 20L7 20L7 19ZM40 20L40 21L41 21L41 20ZM18 21L18 22L19 22L19 21ZM20 21L20 22L21 22L21 21ZM9 23L9 24L10 24L10 23ZM23 24L23 25L24 25L24 24ZM31 24L31 25L32 25L32 26L33 26L33 25L32 25L32 24ZM27 25L27 26L25 26L25 27L27 27L27 26L29 26L29 25ZM14 26L14 27L15 27L15 26ZM17 27L17 28L18 28L18 27ZM22 27L22 28L23 28L23 27ZM33 28L33 29L32 29L32 30L33 30L33 29L34 29L34 28ZM5 30L5 31L6 31L6 32L7 32L7 31L6 31L6 30ZM16 31L16 32L14 32L14 33L17 33L17 32L18 32L18 31ZM37 31L37 32L39 32L39 31ZM8 32L8 33L9 33L9 32ZM20 33L20 35L21 35L21 33ZM26 33L26 34L28 34L28 36L27 36L27 38L28 38L28 40L31 40L31 39L33 39L33 38L36 38L36 37L32 37L32 35L31 35L31 33L30 33L30 35L31 35L31 36L29 36L29 33ZM33 33L33 36L36 36L36 33ZM37 33L37 34L38 34L38 33ZM34 34L34 35L35 35L35 34ZM9 37L9 38L10 38L10 37ZM11 37L11 39L12 39L12 37ZM28 37L28 38L29 38L29 37ZM30 37L30 38L32 38L32 37ZM14 38L14 39L15 39L15 38ZM37 38L37 39L38 39L38 38ZM18 39L18 40L19 40L19 41L20 41L20 40L19 40L19 39ZM15 40L15 41L16 41L16 40ZM0 0L0 7L7 7L7 0ZM1 1L1 6L6 6L6 1ZM2 2L2 5L5 5L5 2ZM34 0L34 7L41 7L41 0ZM35 1L35 6L40 6L40 1ZM36 2L36 5L39 5L39 2ZM0 34L0 41L7 41L7 34ZM1 35L1 40L6 40L6 35ZM2 36L2 39L5 39L5 36Z" fill="#000000"/></g></g></svg>
