<?xml version="1.0" encoding="UTF-8"?>
<svg xmlns="http://www.w3.org/2000/svg" version="1.1" width="200" height="200" viewBox="0 0 200 200"><rect x="0" y="0" width="200" height="200" fill="#ffffff"/><g transform="scale(4.878)"><g transform="translate(0,0)"><path fill-rule="evenodd" d="M8 0L8 3L9 3L9 5L8 5L8 9L7 9L7 8L6 8L6 9L5 9L5 8L2 8L2 9L0 9L0 10L2 10L2 11L3 11L3 9L5 9L5 10L4 10L4 11L5 11L5 12L6 12L6 13L4 13L4 12L0 12L0 16L1 16L1 13L3 13L3 14L2 14L2 15L3 15L3 16L2 16L2 17L0 17L0 19L3 19L3 20L4 20L4 21L3 21L3 22L2 22L2 20L0 20L0 21L1 21L1 22L0 22L0 27L1 27L1 28L0 28L0 33L1 33L1 30L2 30L2 31L4 31L4 33L7 33L7 32L8 32L8 31L9 31L9 30L12 30L12 29L14 29L14 30L15 30L15 31L13 31L13 32L17 32L17 33L16 33L16 34L15 34L15 33L14 33L14 36L13 36L13 35L12 35L12 34L10 34L10 32L9 32L9 33L8 33L8 34L9 34L9 36L8 36L8 39L9 39L9 40L13 40L13 41L17 41L17 40L16 40L16 38L17 38L17 39L20 39L20 40L18 40L18 41L20 41L20 40L21 40L21 41L24 41L24 40L26 40L26 41L32 41L32 40L33 40L33 41L34 41L34 40L33 40L33 39L35 39L35 40L36 40L36 39L37 39L37 40L40 40L40 38L41 38L41 37L39 37L39 36L41 36L41 35L40 35L40 34L41 34L41 33L40 33L40 32L37 32L37 30L38 30L38 31L40 31L40 30L41 30L41 28L40 28L40 26L41 26L41 23L39 23L39 24L40 24L40 26L39 26L39 25L36 25L36 24L37 24L37 22L38 22L38 21L39 21L39 20L38 20L38 18L37 18L37 17L39 17L39 18L41 18L41 16L40 16L40 17L39 17L39 16L37 16L37 15L36 15L36 16L35 16L35 17L34 17L34 16L32 16L32 17L31 17L31 12L32 12L32 13L33 13L33 14L32 14L32 15L34 15L34 13L35 13L35 11L37 11L37 12L38 12L38 11L39 11L39 14L38 14L38 15L39 15L39 14L41 14L41 13L40 13L40 12L41 12L41 11L40 11L40 10L41 10L41 8L38 8L38 9L40 9L40 10L37 10L37 9L36 9L36 8L33 8L33 9L32 9L32 8L31 8L31 6L30 6L30 8L29 8L29 6L28 6L28 5L29 5L29 4L28 4L28 5L27 5L27 4L26 4L26 8L23 8L23 9L22 9L22 10L21 10L21 11L22 11L22 12L23 12L23 13L22 13L22 15L23 15L23 16L22 16L22 17L21 17L21 16L20 16L20 15L16 15L16 14L15 14L15 13L16 13L16 12L17 12L17 14L20 14L20 13L21 13L21 12L20 12L20 11L19 11L19 13L18 13L18 12L17 12L17 10L19 10L19 9L20 9L20 8L19 8L19 6L20 6L20 7L21 7L21 8L22 8L22 7L23 7L23 6L24 6L24 7L25 7L25 5L24 5L24 3L23 3L23 0L21 0L21 2L20 2L20 1L19 1L19 2L18 2L18 0L17 0L17 1L15 1L15 0L13 0L13 1L12 1L12 0ZM24 0L24 2L25 2L25 0ZM26 0L26 1L27 1L27 2L26 2L26 3L31 3L31 4L30 4L30 5L33 5L33 4L32 4L32 3L31 3L31 2L30 2L30 1L32 1L32 2L33 2L33 0L29 0L29 1L27 1L27 0ZM11 1L11 2L10 2L10 4L11 4L11 5L9 5L9 7L10 7L10 6L11 6L11 7L12 7L12 6L11 6L11 5L12 5L12 4L13 4L13 8L12 8L12 9L11 9L11 10L7 10L7 9L6 9L6 10L7 10L7 11L6 11L6 12L7 12L7 11L9 11L9 12L8 12L8 15L9 15L9 12L10 12L10 11L11 11L11 10L13 10L13 12L11 12L11 14L14 14L14 15L13 15L13 17L12 17L12 16L11 16L11 15L10 15L10 16L11 16L11 17L10 17L10 19L9 19L9 16L8 16L8 18L7 18L7 17L6 17L6 16L7 16L7 15L5 15L5 14L3 14L3 15L5 15L5 16L3 16L3 17L5 17L5 18L3 18L3 19L4 19L4 20L5 20L5 21L6 21L6 22L7 22L7 23L4 23L4 22L3 22L3 23L4 23L4 25L3 25L3 24L1 24L1 25L2 25L2 26L7 26L7 27L6 27L6 28L7 28L7 29L6 29L6 30L5 30L5 29L2 29L2 28L3 28L3 27L2 27L2 28L1 28L1 29L2 29L2 30L5 30L5 31L6 31L6 32L7 32L7 31L8 31L8 29L9 29L9 27L11 27L11 26L12 26L12 28L14 28L14 29L15 29L15 28L14 28L14 27L13 27L13 26L15 26L15 27L16 27L16 28L17 28L17 29L16 29L16 31L17 31L17 32L19 32L19 31L18 31L18 30L17 30L17 29L19 29L19 30L20 30L20 34L19 34L19 35L20 35L20 34L21 34L21 33L22 33L22 35L23 35L23 37L22 37L22 36L19 36L19 37L18 37L18 36L17 36L17 38L19 38L19 37L20 37L20 38L22 38L22 39L21 39L21 40L22 40L22 39L24 39L24 38L25 38L25 37L26 37L26 38L30 38L30 37L31 37L31 38L32 38L32 39L31 39L31 40L32 40L32 39L33 39L33 38L36 38L36 37L32 37L32 36L29 36L29 35L28 35L28 36L27 36L27 35L26 35L26 34L28 34L28 33L29 33L29 32L30 32L30 29L31 29L31 30L32 30L32 31L33 31L33 32L35 32L35 31L34 31L34 30L36 30L36 29L38 29L38 30L39 30L39 26L38 26L38 28L36 28L36 27L35 27L35 26L36 26L36 25L35 25L35 24L36 24L36 23L35 23L35 22L36 22L36 21L35 21L35 19L36 19L36 20L37 20L37 21L38 21L38 20L37 20L37 18L36 18L36 17L37 17L37 16L36 16L36 17L35 17L35 19L34 19L34 18L33 18L33 17L32 17L32 18L31 18L31 17L29 17L29 16L30 16L30 15L29 15L29 14L30 14L30 13L29 13L29 12L31 12L31 11L32 11L32 12L33 12L33 13L34 13L34 12L33 12L33 11L34 11L34 10L31 10L31 9L26 9L26 11L25 11L25 9L24 9L24 10L22 10L22 11L24 11L24 12L25 12L25 13L27 13L27 10L29 10L29 11L28 11L28 13L29 13L29 14L27 14L27 15L26 15L26 14L23 14L23 15L24 15L24 18L23 18L23 17L22 17L22 18L20 18L20 16L18 16L18 17L17 17L17 19L15 19L15 18L16 18L16 15L15 15L15 14L14 14L14 13L15 13L15 11L16 11L16 9L17 9L17 8L18 8L18 9L19 9L19 8L18 8L18 6L17 6L17 8L15 8L15 10L14 10L14 9L13 9L13 8L14 8L14 5L15 5L15 7L16 7L16 4L17 4L17 2L15 2L15 3L14 3L14 1L13 1L13 3L12 3L12 4L11 4L11 2L12 2L12 1ZM19 2L19 3L18 3L18 4L19 4L19 3L20 3L20 4L21 4L21 5L20 5L20 6L21 6L21 7L22 7L22 6L21 6L21 5L22 5L22 4L23 4L23 3L22 3L22 2L21 2L21 3L20 3L20 2ZM21 3L21 4L22 4L22 3ZM27 6L27 8L28 8L28 6ZM32 6L32 7L33 7L33 6ZM9 8L9 9L10 9L10 8ZM30 10L30 11L31 11L31 10ZM6 13L6 14L7 14L7 13ZM36 13L36 14L37 14L37 13ZM25 15L25 18L27 18L27 19L25 19L25 20L24 20L24 19L23 19L23 21L24 21L24 22L23 22L23 23L25 23L25 21L26 21L26 20L27 20L27 21L29 21L29 22L27 22L27 23L28 23L28 24L27 24L27 25L28 25L28 26L27 26L27 27L24 27L24 28L26 28L26 30L27 30L27 32L25 32L25 31L24 31L24 30L23 30L23 28L22 28L22 29L20 29L20 30L21 30L21 32L22 32L22 30L23 30L23 31L24 31L24 32L23 32L23 34L24 34L24 36L25 36L25 34L26 34L26 33L28 33L28 31L29 31L29 30L28 30L28 29L30 29L30 28L28 28L28 26L30 26L30 25L31 25L31 26L32 26L32 27L31 27L31 28L32 28L32 27L34 27L34 26L35 26L35 25L33 25L33 23L32 23L32 25L31 25L31 24L29 24L29 22L30 22L30 23L31 23L31 22L32 22L32 21L34 21L34 22L35 22L35 21L34 21L34 20L33 20L33 18L32 18L32 21L31 21L31 20L30 20L30 21L29 21L29 20L27 20L27 19L29 19L29 18L27 18L27 16L26 16L26 15ZM28 15L28 16L29 16L29 15ZM11 17L11 18L12 18L12 17ZM18 17L18 20L17 20L17 21L19 21L19 22L18 22L18 23L17 23L17 22L16 22L16 23L17 23L17 24L16 24L16 27L17 27L17 26L18 26L18 28L21 28L21 27L20 27L20 26L21 26L21 25L22 25L22 26L23 26L23 25L24 25L24 24L22 24L22 23L21 23L21 22L22 22L22 21L21 21L21 20L20 20L20 18L19 18L19 17ZM5 18L5 20L6 20L6 21L7 21L7 20L8 20L8 21L9 21L9 20L8 20L8 19L7 19L7 18ZM13 18L13 22L12 22L12 21L10 21L10 22L12 22L12 23L11 23L11 24L10 24L10 23L7 23L7 24L5 24L5 25L7 25L7 26L8 26L8 24L10 24L10 25L9 25L9 26L10 26L10 25L12 25L12 26L13 26L13 24L15 24L15 23L14 23L14 18ZM30 18L30 19L31 19L31 18ZM6 19L6 20L7 20L7 19ZM10 19L10 20L11 20L11 19ZM19 20L19 21L20 21L20 22L19 22L19 24L17 24L17 25L19 25L19 24L20 24L20 25L21 25L21 24L20 24L20 22L21 22L21 21L20 21L20 20ZM40 20L40 21L41 21L41 20ZM30 21L30 22L31 22L31 21ZM1 22L1 23L2 23L2 22ZM12 23L12 24L13 24L13 23ZM25 24L25 25L26 25L26 24ZM28 24L28 25L29 25L29 24ZM32 25L32 26L33 26L33 25ZM27 28L27 29L28 29L28 28ZM33 28L33 29L32 29L32 30L33 30L33 29L34 29L34 28ZM35 28L35 29L36 29L36 28ZM6 30L6 31L7 31L7 30ZM11 32L11 33L12 33L12 32ZM24 32L24 34L25 34L25 32ZM17 33L17 35L18 35L18 33ZM30 33L30 35L31 35L31 34L32 34L32 33ZM33 33L33 36L36 36L36 33ZM37 33L37 36L39 36L39 35L38 35L38 34L39 34L39 33ZM34 34L34 35L35 35L35 34ZM15 35L15 36L14 36L14 38L13 38L13 40L15 40L15 38L16 38L16 35ZM9 36L9 37L10 37L10 38L9 38L9 39L10 39L10 38L12 38L12 37L13 37L13 36L12 36L12 37L10 37L10 36ZM26 36L26 37L27 37L27 36ZM28 36L28 37L29 37L29 36ZM23 37L23 38L24 38L24 37ZM37 38L37 39L38 39L38 38ZM26 39L26 40L27 40L27 39ZM28 39L28 40L30 40L30 39ZM0 0L0 7L7 7L7 0ZM1 1L1 6L6 6L6 1ZM2 2L2 5L5 5L5 2ZM34 0L34 7L41 7L41 0ZM35 1L35 6L40 6L40 1ZM36 2L36 5L39 5L39 2ZM0 34L0 41L7 41L7 34ZM1 35L1 40L6 40L6 35ZM2 36L2 39L5 39L5 36Z" fill="#000000"/></g></g></svg>
