<?xml version="1.0" encoding="UTF-8"?>
<svg xmlns="http://www.w3.org/2000/svg" version="1.1" width="200" height="200" viewBox="0 0 200 200"><rect x="0" y="0" width="200" height="200" fill="#ffffff"/><g transform="scale(6.897)"><g transform="translate(0,0)"><path fill-rule="evenodd" d="M8 0L8 1L9 1L9 3L8 3L8 4L9 4L9 3L10 3L10 5L9 5L9 6L8 6L8 7L9 7L9 6L10 6L10 8L8 8L8 9L12 9L12 8L11 8L11 6L10 6L10 5L12 5L12 7L13 7L13 4L14 4L14 3L15 3L15 4L16 4L16 5L18 5L18 7L19 7L19 5L20 5L20 9L19 9L19 11L18 11L18 12L19 12L19 14L20 14L20 15L19 15L19 16L20 16L20 15L21 15L21 14L22 14L22 15L23 15L23 16L22 16L22 17L23 17L23 18L22 18L22 19L21 19L21 20L20 20L20 19L19 19L19 20L20 20L20 21L18 21L18 22L17 22L17 23L16 23L16 25L15 25L15 22L14 22L14 20L13 20L13 19L15 19L15 20L16 20L16 21L17 21L17 20L16 20L16 19L17 19L17 18L20 18L20 17L17 17L17 16L16 16L16 15L18 15L18 13L17 13L17 12L16 12L16 13L17 13L17 14L15 14L15 15L13 15L13 16L14 16L14 17L12 17L12 18L11 18L11 12L9 12L9 10L6 10L6 9L7 9L7 8L4 8L4 9L3 9L3 8L2 8L2 9L0 9L0 10L2 10L2 11L3 11L3 12L1 12L1 11L0 11L0 13L2 13L2 14L1 14L1 15L0 15L0 17L1 17L1 18L0 18L0 19L1 19L1 20L0 20L0 21L1 21L1 20L4 20L4 21L8 21L8 22L9 22L9 23L8 23L8 25L9 25L9 26L8 26L8 27L9 27L9 26L10 26L10 24L9 24L9 23L10 23L10 21L11 21L11 22L14 22L14 23L11 23L11 24L14 24L14 25L15 25L15 26L14 26L14 29L15 29L15 26L16 26L16 25L17 25L17 26L18 26L18 25L19 25L19 29L20 29L20 25L21 25L21 26L22 26L22 25L23 25L23 26L24 26L24 25L26 25L26 28L28 28L28 29L29 29L29 26L28 26L28 25L29 25L29 24L26 24L26 23L25 23L25 20L26 20L26 21L28 21L28 22L27 22L27 23L29 23L29 21L28 21L28 19L29 19L29 18L27 18L27 17L26 17L26 14L24 14L24 13L25 13L25 11L26 11L26 13L27 13L27 12L28 12L28 13L29 13L29 12L28 12L28 11L29 11L29 8L28 8L28 9L27 9L27 10L25 10L25 9L26 9L26 8L25 8L25 9L24 9L24 10L25 10L25 11L24 11L24 12L23 12L23 10L22 10L22 8L21 8L21 0L20 0L20 1L19 1L19 2L20 2L20 3L19 3L19 4L18 4L18 3L17 3L17 2L18 2L18 1L16 1L16 0L12 0L12 1L11 1L11 0ZM12 1L12 2L11 2L11 4L12 4L12 3L13 3L13 2L16 2L16 1ZM14 5L14 8L13 8L13 9L14 9L14 8L15 8L15 5ZM16 6L16 10L13 10L13 11L12 11L12 10L10 10L10 11L12 11L12 14L14 14L14 13L15 13L15 11L17 11L17 6ZM3 10L3 11L4 11L4 13L5 13L5 14L7 14L7 15L6 15L6 16L5 16L5 15L4 15L4 14L3 14L3 15L4 15L4 16L5 16L5 17L4 17L4 20L5 20L5 19L6 19L6 20L9 20L9 21L10 21L10 20L12 20L12 19L10 19L10 20L9 20L9 18L8 18L8 17L10 17L10 16L7 16L7 15L8 15L8 14L7 14L7 13L8 13L8 11L6 11L6 10ZM27 10L27 11L28 11L28 10ZM13 11L13 12L14 12L14 11ZM19 11L19 12L20 12L20 11ZM21 11L21 12L22 12L22 11ZM5 12L5 13L7 13L7 12ZM20 13L20 14L21 14L21 13ZM23 14L23 15L24 15L24 16L23 16L23 17L24 17L24 18L23 18L23 19L24 19L24 20L25 20L25 19L24 19L24 18L26 18L26 17L24 17L24 16L25 16L25 15L24 15L24 14ZM27 14L27 16L28 16L28 17L29 17L29 15L28 15L28 14ZM1 15L1 16L2 16L2 15ZM6 16L6 17L7 17L7 16ZM2 17L2 18L1 18L1 19L3 19L3 17ZM16 17L16 18L17 18L17 17ZM6 18L6 19L8 19L8 18ZM21 21L21 24L24 24L24 21ZM22 22L22 23L23 23L23 22ZM17 23L17 24L19 24L19 23ZM27 26L27 27L28 27L28 26ZM12 27L12 29L13 29L13 27ZM16 27L16 28L18 28L18 27ZM22 27L22 28L23 28L23 29L25 29L25 28L23 28L23 27ZM0 0L0 7L7 7L7 0ZM1 1L1 6L6 6L6 1ZM2 2L2 5L5 5L5 2ZM22 0L22 7L29 7L29 0ZM23 1L23 6L28 6L28 1ZM24 2L24 5L27 5L27 2ZM0 22L0 29L7 29L7 22ZM1 23L1 28L6 28L6 23ZM2 24L2 27L5 27L5 24Z" fill="#000000"/></g></g></svg>
