<?xml version="1.0" encoding="UTF-8"?>
<svg xmlns="http://www.w3.org/2000/svg" version="1.1" width="200" height="200" viewBox="0 0 200 200"><rect x="0" y="0" width="200" height="200" fill="#ffffff"/><g transform="scale(4.878)"><g transform="translate(0,0)"><path fill-rule="evenodd" d="M8 0L8 3L9 3L9 2L10 2L10 3L11 3L11 5L12 5L12 7L11 7L11 6L10 6L10 8L11 8L11 9L9 9L9 5L10 5L10 4L9 4L9 5L8 5L8 9L9 9L9 10L8 10L8 11L7 11L7 10L5 10L5 8L2 8L2 9L0 9L0 10L2 10L2 11L1 11L1 12L2 12L2 11L3 11L3 13L0 13L0 17L2 17L2 16L3 16L3 17L4 17L4 18L1 18L1 19L0 19L0 20L2 20L2 19L3 19L3 20L5 20L5 22L6 22L6 23L5 23L5 25L4 25L4 26L3 26L3 24L4 24L4 21L0 21L0 22L3 22L3 24L2 24L2 23L1 23L1 24L2 24L2 26L1 26L1 25L0 25L0 28L2 28L2 27L3 27L3 28L4 28L4 29L2 29L2 33L4 33L4 31L5 31L5 32L6 32L6 33L7 33L7 32L9 32L9 33L8 33L8 34L11 34L11 35L10 35L10 36L15 36L15 37L14 37L14 38L13 38L13 37L10 37L10 38L9 38L9 36L8 36L8 39L9 39L9 40L12 40L12 41L14 41L14 40L16 40L16 41L17 41L17 40L21 40L21 41L22 41L22 40L23 40L23 41L32 41L32 40L33 40L33 41L34 41L34 40L33 40L33 39L32 39L32 37L33 37L33 38L34 38L34 39L35 39L35 40L36 40L36 39L37 39L37 40L40 40L40 38L41 38L41 36L37 36L37 34L38 34L38 35L40 35L40 34L41 34L41 33L39 33L39 32L40 32L40 30L41 30L41 29L40 29L40 26L41 26L41 23L39 23L39 22L38 22L38 21L39 21L39 20L36 20L36 19L35 19L35 17L36 17L36 18L37 18L37 17L39 17L39 16L37 16L37 15L36 15L36 14L37 14L37 13L36 13L36 14L35 14L35 17L34 17L34 16L33 16L33 17L31 17L31 12L32 12L32 13L33 13L33 14L32 14L32 15L34 15L34 13L35 13L35 11L36 11L36 12L38 12L38 11L40 11L40 10L41 10L41 8L38 8L38 9L40 9L40 10L37 10L37 9L36 9L36 8L32 8L32 9L30 9L30 8L29 8L29 6L30 6L30 7L31 7L31 5L32 5L32 7L33 7L33 5L32 5L32 4L33 4L33 3L32 3L32 2L30 2L30 0L29 0L29 1L27 1L27 0L26 0L26 1L27 1L27 2L26 2L26 3L32 3L32 4L30 4L30 5L29 5L29 4L28 4L28 5L27 5L27 4L26 4L26 7L27 7L27 6L28 6L28 8L27 8L27 9L30 9L30 10L29 10L29 11L28 11L28 10L27 10L27 11L28 11L28 12L27 12L27 13L25 13L25 14L26 14L26 15L27 15L27 14L30 14L30 16L29 16L29 15L28 15L28 16L29 16L29 17L31 17L31 18L30 18L30 19L31 19L31 20L30 20L30 21L31 21L31 22L30 22L30 23L31 23L31 22L32 22L32 21L34 21L34 22L33 22L33 23L32 23L32 24L33 24L33 25L30 25L30 24L29 24L29 23L28 23L28 22L25 22L25 20L26 20L26 18L27 18L27 19L28 19L28 20L27 20L27 21L29 21L29 19L28 19L28 18L27 18L27 17L26 17L26 16L25 16L25 15L24 15L24 16L22 16L22 14L23 14L23 13L24 13L24 12L25 12L25 10L26 10L26 8L25 8L25 5L23 5L23 6L22 6L22 9L21 9L21 8L16 8L16 7L17 7L17 6L18 6L18 7L19 7L19 6L20 6L20 7L21 7L21 6L20 6L20 5L17 5L17 6L16 6L16 5L15 5L15 6L14 6L14 7L15 7L15 8L13 8L13 5L14 5L14 4L15 4L15 2L16 2L16 0L12 0L12 1L11 1L11 0L10 0L10 1L9 1L9 0ZM24 0L24 1L25 1L25 0ZM31 0L31 1L32 1L32 0ZM12 1L12 2L11 2L11 3L12 3L12 5L13 5L13 4L14 4L14 2L15 2L15 1ZM17 1L17 4L20 4L20 3L21 3L21 2L22 2L22 4L24 4L24 3L25 3L25 2L22 2L22 1L20 1L20 2L19 2L19 1ZM12 2L12 3L13 3L13 2ZM28 5L28 6L29 6L29 5ZM15 6L15 7L16 7L16 6ZM23 6L23 7L24 7L24 6ZM6 8L6 9L7 9L7 8ZM12 8L12 12L14 12L14 13L13 13L13 14L14 14L14 13L15 13L15 16L14 16L14 17L13 17L13 15L12 15L12 13L11 13L11 11L10 11L10 10L9 10L9 11L8 11L8 12L9 12L9 13L10 13L10 15L9 15L9 14L8 14L8 13L6 13L6 12L7 12L7 11L6 11L6 12L4 12L4 13L3 13L3 14L5 14L5 16L4 16L4 15L3 15L3 16L4 16L4 17L5 17L5 16L7 16L7 17L6 17L6 18L5 18L5 20L9 20L9 21L10 21L10 22L9 22L9 23L8 23L8 25L5 25L5 26L4 26L4 27L5 27L5 26L7 26L7 27L6 27L6 28L7 28L7 27L8 27L8 30L7 30L7 29L5 29L5 30L7 30L7 31L6 31L6 32L7 32L7 31L9 31L9 32L10 32L10 33L11 33L11 34L12 34L12 35L14 35L14 34L15 34L15 36L16 36L16 37L17 37L17 38L19 38L19 37L22 37L22 38L20 38L20 39L23 39L23 37L22 37L22 36L23 36L23 34L24 34L24 35L27 35L27 34L28 34L28 33L29 33L29 32L31 32L31 30L32 30L32 31L33 31L33 32L35 32L35 31L38 31L38 32L37 32L37 33L38 33L38 34L39 34L39 33L38 33L38 32L39 32L39 26L40 26L40 24L39 24L39 23L38 23L38 22L37 22L37 24L36 24L36 23L35 23L35 22L36 22L36 21L35 21L35 19L34 19L34 18L33 18L33 19L32 19L32 18L31 18L31 19L32 19L32 20L31 20L31 21L32 21L32 20L34 20L34 21L35 21L35 22L34 22L34 25L33 25L33 26L34 26L34 27L32 27L32 26L29 26L29 27L28 27L28 28L30 28L30 29L28 29L28 30L30 30L30 31L28 31L28 33L27 33L27 32L24 32L24 33L23 33L23 31L25 31L25 28L26 28L26 29L27 29L27 27L25 27L25 26L28 26L28 25L29 25L29 24L28 24L28 25L26 25L26 24L25 24L25 23L23 23L23 22L24 22L24 21L22 21L22 20L24 20L24 19L25 19L25 18L24 18L24 17L25 17L25 16L24 16L24 17L23 17L23 19L21 19L21 18L22 18L22 17L21 17L21 15L20 15L20 11L21 11L21 12L22 12L22 13L23 13L23 12L24 12L24 11L21 11L21 9L20 9L20 11L19 11L19 9L13 9L13 8ZM23 8L23 9L22 9L22 10L25 10L25 8ZM32 9L32 10L31 10L31 11L29 11L29 12L28 12L28 13L29 13L29 12L31 12L31 11L32 11L32 12L33 12L33 13L34 13L34 12L33 12L33 11L34 11L34 9ZM35 9L35 10L36 10L36 9ZM13 10L13 11L15 11L15 13L17 13L17 14L16 14L16 15L19 15L19 16L18 16L18 17L17 17L17 18L15 18L15 20L14 20L14 19L12 19L12 20L11 20L11 18L13 18L13 17L10 17L10 16L11 16L11 15L10 15L10 16L9 16L9 15L8 15L8 18L6 18L6 19L8 19L8 18L9 18L9 20L10 20L10 21L12 21L12 20L13 20L13 22L14 22L14 23L13 23L13 25L12 25L12 24L11 24L11 23L12 23L12 22L10 22L10 23L9 23L9 25L8 25L8 26L10 26L10 27L9 27L9 28L10 28L10 29L9 29L9 30L11 30L11 31L10 31L10 32L12 32L12 31L13 31L13 33L14 33L14 31L15 31L15 33L17 33L17 34L18 34L18 33L19 33L19 35L20 35L20 33L19 33L19 31L20 31L20 32L22 32L22 31L21 31L21 30L23 30L23 29L22 29L22 27L23 27L23 23L22 23L22 21L21 21L21 19L20 19L20 21L19 21L19 18L20 18L20 17L19 17L19 16L20 16L20 15L19 15L19 14L18 14L18 13L19 13L19 11L18 11L18 13L17 13L17 10L16 10L16 11L15 11L15 10ZM9 11L9 12L10 12L10 11ZM39 12L39 13L38 13L38 14L39 14L39 15L40 15L40 14L41 14L41 12ZM5 13L5 14L6 14L6 15L7 15L7 14L6 14L6 13ZM39 13L39 14L40 14L40 13ZM1 14L1 16L2 16L2 14ZM15 16L15 17L16 17L16 16ZM36 16L36 17L37 17L37 16ZM40 16L40 18L39 18L39 19L40 19L40 18L41 18L41 16ZM17 18L17 22L15 22L15 21L14 21L14 22L15 22L15 24L19 24L19 25L20 25L20 27L21 27L21 26L22 26L22 25L21 25L21 24L22 24L22 23L21 23L21 22L20 22L20 24L19 24L19 22L18 22L18 18ZM40 20L40 21L41 21L41 20ZM6 21L6 22L8 22L8 21ZM17 22L17 23L18 23L18 22ZM6 23L6 24L7 24L7 23ZM10 24L10 25L11 25L11 27L12 27L12 25L11 25L11 24ZM35 24L35 25L34 25L34 26L35 26L35 27L36 27L36 28L35 28L35 29L36 29L36 30L37 30L37 29L36 29L36 28L38 28L38 26L39 26L39 25L36 25L36 24ZM14 25L14 26L15 26L15 27L16 27L16 25ZM17 25L17 26L18 26L18 28L17 28L17 29L16 29L16 28L14 28L14 29L13 29L13 28L12 28L12 30L13 30L13 31L14 31L14 30L15 30L15 29L16 29L16 30L17 30L17 31L16 31L16 32L17 32L17 31L18 31L18 30L19 30L19 29L20 29L20 30L21 30L21 29L20 29L20 28L19 28L19 26L18 26L18 25ZM24 25L24 26L25 26L25 25ZM35 25L35 26L36 26L36 27L37 27L37 26L36 26L36 25ZM24 27L24 28L25 28L25 27ZM31 28L31 29L30 29L30 30L31 30L31 29L32 29L32 30L33 30L33 29L34 29L34 28L33 28L33 29L32 29L32 28ZM0 29L0 33L1 33L1 29ZM17 29L17 30L18 30L18 29ZM34 30L34 31L35 31L35 30ZM22 33L22 34L23 34L23 33ZM24 33L24 34L26 34L26 33ZM30 33L30 35L31 35L31 34L32 34L32 33ZM33 33L33 36L36 36L36 33ZM34 34L34 35L35 35L35 34ZM16 35L16 36L17 36L17 35ZM21 35L21 36L22 36L22 35ZM18 36L18 37L19 37L19 36ZM26 36L26 37L25 37L25 38L24 38L24 40L25 40L25 39L27 39L27 38L30 38L30 39L28 39L28 40L30 40L30 39L31 39L31 40L32 40L32 39L31 39L31 38L30 38L30 37L32 37L32 36L29 36L29 37L27 37L27 36ZM26 37L26 38L27 38L27 37ZM34 37L34 38L36 38L36 37ZM10 38L10 39L11 39L11 38ZM12 38L12 39L13 39L13 40L14 40L14 39L16 39L16 40L17 40L17 39L16 39L16 38L14 38L14 39L13 39L13 38ZM37 38L37 39L38 39L38 38ZM0 0L0 7L7 7L7 0ZM1 1L1 6L6 6L6 1ZM2 2L2 5L5 5L5 2ZM34 0L34 7L41 7L41 0ZM35 1L35 6L40 6L40 1ZM36 2L36 5L39 5L39 2ZM0 34L0 41L7 41L7 34ZM1 35L1 40L6 40L6 35ZM2 36L2 39L5 39L5 36Z" fill="#000000"/></g></g></svg>
