<?xml version="1.0" encoding="UTF-8"?>
<svg xmlns="http://www.w3.org/2000/svg" version="1.1" width="200" height="200" viewBox="0 0 200 200"><rect x="0" y="0" width="200" height="200" fill="#ffffff"/><g transform="scale(4.878)"><g transform="translate(0,0)"><path fill-rule="evenodd" d="M8 0L8 2L9 2L9 3L8 3L8 7L9 7L9 8L11 8L11 10L10 10L10 9L9 9L9 10L8 10L8 9L7 9L7 8L6 8L6 9L7 9L7 10L5 10L5 9L4 9L4 8L3 8L3 9L4 9L4 10L5 10L5 13L7 13L7 14L4 14L4 13L3 13L3 15L2 15L2 17L1 17L1 18L0 18L0 21L2 21L2 20L3 20L3 22L2 22L2 23L1 23L1 22L0 22L0 24L1 24L1 25L0 25L0 26L1 26L1 27L0 27L0 28L1 28L1 29L2 29L2 31L4 31L4 30L3 30L3 29L2 29L2 28L5 28L5 32L6 32L6 33L8 33L8 34L9 34L9 35L10 35L10 34L11 34L11 33L12 33L12 34L15 34L15 35L14 35L14 36L13 36L13 35L11 35L11 39L10 39L10 40L9 40L9 41L10 41L10 40L11 40L11 41L12 41L12 39L13 39L13 38L15 38L15 37L14 37L14 36L15 36L15 35L16 35L16 36L17 36L17 35L16 35L16 32L17 32L17 33L18 33L18 34L19 34L19 36L18 36L18 37L16 37L16 40L15 40L15 39L14 39L14 40L15 40L15 41L18 41L18 40L19 40L19 41L21 41L21 40L19 40L19 39L17 39L17 38L18 38L18 37L19 37L19 38L20 38L20 37L22 37L22 38L23 38L23 37L25 37L25 38L24 38L24 39L22 39L22 40L23 40L23 41L24 41L24 39L25 39L25 38L26 38L26 39L27 39L27 40L26 40L26 41L27 41L27 40L28 40L28 41L33 41L33 39L34 39L34 38L36 38L36 40L37 40L37 41L40 41L40 39L41 39L41 38L40 38L40 37L41 37L41 35L39 35L39 34L41 34L41 29L40 29L40 28L41 28L41 26L40 26L40 28L37 28L37 29L38 29L38 30L36 30L36 29L35 29L35 30L36 30L36 31L34 31L34 30L32 30L32 29L33 29L33 26L34 26L34 27L36 27L36 26L34 26L34 25L35 25L35 24L34 24L34 23L37 23L37 24L38 24L38 25L37 25L37 27L38 27L38 26L39 26L39 25L40 25L40 24L41 24L41 23L40 23L40 22L38 22L38 21L40 21L40 20L41 20L41 16L39 16L39 17L38 17L38 19L40 19L40 20L37 20L37 19L36 19L36 21L35 21L35 19L34 19L34 18L35 18L35 17L36 17L36 15L37 15L37 16L38 16L38 15L39 15L39 14L38 14L38 13L39 13L39 11L38 11L38 13L37 13L37 14L36 14L36 13L34 13L34 12L35 12L35 11L37 11L37 10L38 10L38 8L35 8L35 9L34 9L34 10L33 10L33 11L32 11L32 10L30 10L30 9L29 9L29 11L32 11L32 12L33 12L33 14L32 14L32 15L31 15L31 14L28 14L28 13L31 13L31 12L28 12L28 11L26 11L26 12L27 12L27 13L26 13L26 14L27 14L27 15L28 15L28 16L27 16L27 17L28 17L28 16L29 16L29 17L30 17L30 16L31 16L31 17L33 17L33 18L32 18L32 21L33 21L33 19L34 19L34 23L32 23L32 22L31 22L31 18L30 18L30 19L28 19L28 20L29 20L29 22L28 22L28 24L29 24L29 25L28 25L28 26L29 26L29 28L28 28L28 27L27 27L27 28L26 28L26 26L27 26L27 25L26 25L26 24L25 24L25 21L26 21L26 20L27 20L27 19L26 19L26 17L25 17L25 16L24 16L24 15L25 15L25 14L24 14L24 13L25 13L25 12L24 12L24 11L25 11L25 10L26 10L26 9L27 9L27 8L28 8L28 7L29 7L29 8L30 8L30 7L31 7L31 8L32 8L32 9L33 9L33 2L31 2L31 1L33 1L33 0L31 0L31 1L30 1L30 0L27 0L27 2L26 2L26 3L25 3L25 2L24 2L24 0L21 0L21 1L20 1L20 0L17 0L17 1L15 1L15 0L13 0L13 1L11 1L11 0ZM10 1L10 2L11 2L11 4L10 4L10 5L11 5L11 7L12 7L12 9L14 9L14 5L11 5L11 4L15 4L15 1L14 1L14 3L13 3L13 2L11 2L11 1ZM18 1L18 3L17 3L17 2L16 2L16 4L17 4L17 7L16 7L16 5L15 5L15 10L13 10L13 11L12 11L12 13L11 13L11 12L10 12L10 16L11 16L11 17L8 17L8 19L6 19L6 20L5 20L5 19L3 19L3 20L5 20L5 22L3 22L3 23L2 23L2 25L4 25L4 26L5 26L5 24L8 24L8 25L10 25L10 24L11 24L11 23L12 23L12 22L11 22L11 23L6 23L6 22L10 22L10 21L11 21L11 20L12 20L12 21L13 21L13 20L12 20L12 19L11 19L11 18L12 18L12 17L13 17L13 19L14 19L14 16L13 16L13 14L15 14L15 13L13 13L13 12L15 12L15 11L16 11L16 12L17 12L17 15L15 15L15 16L17 16L17 15L19 15L19 13L18 13L18 12L20 12L20 11L21 11L21 10L22 10L22 11L23 11L23 10L25 10L25 8L27 8L27 7L28 7L28 6L29 6L29 7L30 7L30 4L28 4L28 3L30 3L30 1L28 1L28 2L27 2L27 3L26 3L26 5L27 5L27 4L28 4L28 6L27 6L27 7L26 7L26 6L25 6L25 8L24 8L24 9L23 9L23 8L22 8L22 6L21 6L21 8L20 8L20 6L19 6L19 5L22 5L22 4L23 4L23 5L25 5L25 4L24 4L24 2L23 2L23 1L21 1L21 2L22 2L22 4L21 4L21 3L20 3L20 4L19 4L19 5L18 5L18 3L19 3L19 2L20 2L20 1ZM31 4L31 5L32 5L32 4ZM9 6L9 7L10 7L10 6ZM12 6L12 7L13 7L13 6ZM18 6L18 7L17 7L17 8L16 8L16 9L17 9L17 10L16 10L16 11L17 11L17 12L18 12L18 9L17 9L17 8L19 8L19 6ZM23 6L23 7L24 7L24 6ZM31 6L31 7L32 7L32 6ZM21 8L21 9L22 9L22 10L23 10L23 9L22 9L22 8ZM39 8L39 9L40 9L40 10L41 10L41 8ZM1 9L1 11L0 11L0 12L4 12L4 11L3 11L3 10L2 10L2 9ZM19 9L19 11L20 11L20 9ZM36 9L36 10L37 10L37 9ZM6 11L6 12L7 12L7 13L8 13L8 15L9 15L9 12L8 12L8 11ZM1 13L1 14L2 14L2 13ZM12 13L12 14L11 14L11 16L12 16L12 14L13 14L13 13ZM20 13L20 16L18 16L18 17L15 17L15 18L17 18L17 19L16 19L16 21L15 21L15 20L14 20L14 22L13 22L13 23L14 23L14 22L15 22L15 23L16 23L16 24L15 24L15 25L14 25L14 24L12 24L12 25L14 25L14 26L11 26L11 27L10 27L10 26L7 26L7 25L6 25L6 26L7 26L7 27L5 27L5 28L7 28L7 27L8 27L8 29L6 29L6 30L8 30L8 29L9 29L9 31L6 31L6 32L9 32L9 31L11 31L11 29L9 29L9 28L11 28L11 27L12 27L12 28L13 28L13 27L14 27L14 28L16 28L16 27L14 27L14 26L17 26L17 27L19 27L19 28L21 28L21 29L20 29L20 30L18 30L18 29L17 29L17 30L16 30L16 31L15 31L15 29L13 29L13 30L14 30L14 31L12 31L12 33L15 33L15 32L16 32L16 31L17 31L17 32L18 32L18 33L19 33L19 32L20 32L20 33L22 33L22 34L21 34L21 35L20 35L20 36L19 36L19 37L20 37L20 36L21 36L21 35L22 35L22 37L23 37L23 36L27 36L27 37L26 37L26 38L27 38L27 39L28 39L28 40L29 40L29 38L31 38L31 37L32 37L32 39L30 39L30 40L32 40L32 39L33 39L33 37L32 37L32 36L31 36L31 35L32 35L32 33L31 33L31 34L30 34L30 32L31 32L31 31L30 31L30 32L29 32L29 34L30 34L30 36L27 36L27 35L28 35L28 32L26 32L26 30L27 30L27 31L29 31L29 30L31 30L31 28L32 28L32 26L30 26L30 25L29 25L29 26L30 26L30 27L31 27L31 28L30 28L30 29L28 29L28 30L27 30L27 29L26 29L26 28L25 28L25 27L24 27L24 26L23 26L23 25L25 25L25 24L24 24L24 23L23 23L23 21L21 21L21 19L20 19L20 18L19 18L19 19L18 19L18 17L20 17L20 16L21 16L21 17L22 17L22 19L25 19L25 20L24 20L24 21L25 21L25 20L26 20L26 19L25 19L25 18L23 18L23 17L22 17L22 16L23 16L23 15L22 15L22 16L21 16L21 14L23 14L23 13ZM33 14L33 15L32 15L32 16L33 16L33 17L35 17L35 15L36 15L36 14L35 14L35 15L34 15L34 14ZM37 14L37 15L38 15L38 14ZM40 14L40 15L41 15L41 14ZM6 15L6 16L7 16L7 15ZM3 16L3 17L2 17L2 18L1 18L1 19L2 19L2 18L3 18L3 17L4 17L4 16ZM5 17L5 18L7 18L7 17ZM9 18L9 19L8 19L8 20L6 20L6 21L8 21L8 20L9 20L9 19L10 19L10 18ZM17 19L17 21L16 21L16 22L17 22L17 23L18 23L18 24L17 24L17 26L19 26L19 25L20 25L20 26L21 26L21 27L22 27L22 29L21 29L21 30L23 30L23 31L24 31L24 32L23 32L23 34L24 34L24 35L25 35L25 34L26 34L26 35L27 35L27 34L26 34L26 32L25 32L25 31L24 31L24 30L23 30L23 28L24 28L24 29L25 29L25 30L26 30L26 29L25 29L25 28L24 28L24 27L22 27L22 26L21 26L21 25L22 25L22 24L23 24L23 23L22 23L22 24L21 24L21 25L20 25L20 23L21 23L21 21L20 21L20 20L18 20L18 19ZM17 21L17 22L18 22L18 21ZM36 21L36 22L37 22L37 21ZM19 22L19 23L20 23L20 22ZM29 22L29 24L30 24L30 23L31 23L31 25L32 25L32 23L31 23L31 22ZM2 26L2 27L3 27L3 26ZM0 30L0 31L1 31L1 30ZM38 30L38 31L37 31L37 32L40 32L40 30ZM14 31L14 32L15 32L15 31ZM20 31L20 32L22 32L22 31ZM33 31L33 32L34 32L34 31ZM0 32L0 33L1 33L1 32ZM2 32L2 33L4 33L4 32ZM10 32L10 33L11 33L11 32ZM24 33L24 34L25 34L25 33ZM33 33L33 36L36 36L36 33ZM34 34L34 35L35 35L35 34ZM9 36L9 37L8 37L8 38L10 38L10 36ZM12 36L12 37L13 37L13 36ZM38 36L38 37L40 37L40 36ZM28 37L28 38L29 38L29 37ZM36 37L36 38L37 38L37 40L38 40L38 38L37 38L37 37ZM39 38L39 39L40 39L40 38ZM0 0L0 7L7 7L7 0ZM1 1L1 6L6 6L6 1ZM2 2L2 5L5 5L5 2ZM34 0L34 7L41 7L41 0ZM35 1L35 6L40 6L40 1ZM36 2L36 5L39 5L39 2ZM0 34L0 41L7 41L7 34ZM1 35L1 40L6 40L6 35ZM2 36L2 39L5 39L5 36Z" fill="#000000"/></g></g></svg>
