<?xml version="1.0" encoding="UTF-8"?>
<svg xmlns="http://www.w3.org/2000/svg" version="1.1" width="200" height="200" viewBox="0 0 200 200"><rect x="0" y="0" width="200" height="200" fill="#ffffff"/><g transform="scale(6.897)"><g transform="translate(0,0)"><path fill-rule="evenodd" d="M8 0L8 3L9 3L9 1L10 1L10 2L12 2L12 3L10 3L10 4L9 4L9 5L8 5L8 9L9 9L9 10L4 10L4 9L5 9L5 8L2 8L2 11L3 11L3 12L4 12L4 13L3 13L3 14L1 14L1 13L2 13L2 12L1 12L1 11L0 11L0 12L1 12L1 13L0 13L0 14L1 14L1 15L0 15L0 21L1 21L1 18L2 18L2 20L3 20L3 19L4 19L4 21L8 21L8 22L9 22L9 24L8 24L8 27L9 27L9 26L10 26L10 28L11 28L11 29L13 29L13 28L15 28L15 29L26 29L26 28L27 28L27 29L28 29L28 28L29 28L29 27L28 27L28 25L27 25L27 27L26 27L26 26L25 26L25 25L26 25L26 24L25 24L25 22L26 22L26 23L27 23L27 22L26 22L26 21L25 21L25 19L26 19L26 20L28 20L28 22L29 22L29 20L28 20L28 19L26 19L26 18L27 18L27 17L28 17L28 15L27 15L27 14L26 14L26 13L25 13L25 12L27 12L27 13L28 13L28 10L29 10L29 8L26 8L26 9L25 9L25 12L24 12L24 11L22 11L22 12L23 12L23 13L21 13L21 15L22 15L22 14L23 14L23 13L24 13L24 20L23 20L23 19L22 19L22 18L20 18L20 19L21 19L21 20L20 20L20 22L18 22L18 23L17 23L17 22L16 22L16 20L15 20L15 21L14 21L14 20L12 20L12 19L11 19L11 20L9 20L9 19L8 19L8 20L5 20L5 19L7 19L7 18L8 18L8 17L7 17L7 16L8 16L8 15L10 15L10 16L9 16L9 18L10 18L10 16L11 16L11 17L13 17L13 19L17 19L17 16L18 16L18 18L19 18L19 13L20 13L20 12L21 12L21 11L20 11L20 10L22 10L22 9L23 9L23 10L24 10L24 8L21 8L21 9L20 9L20 7L21 7L21 5L20 5L20 4L21 4L21 3L20 3L20 4L19 4L19 3L18 3L18 4L17 4L17 3L16 3L16 4L17 4L17 6L16 6L16 8L14 8L14 7L15 7L15 5L14 5L14 4L15 4L15 3L14 3L14 1L15 1L15 2L17 2L17 1L15 1L15 0L14 0L14 1L13 1L13 0L12 0L12 1L10 1L10 0ZM12 1L12 2L13 2L13 1ZM18 1L18 2L19 2L19 1ZM20 1L20 2L21 2L21 1ZM12 3L12 4L10 4L10 6L9 6L9 7L10 7L10 8L9 8L9 9L11 9L11 10L9 10L9 11L8 11L8 12L7 12L7 11L4 11L4 12L5 12L5 16L4 16L4 17L3 17L3 15L2 15L2 16L1 16L1 17L2 17L2 18L4 18L4 19L5 19L5 16L7 16L7 15L6 15L6 14L7 14L7 13L9 13L9 14L11 14L11 13L10 13L10 12L13 12L13 14L12 14L12 15L13 15L13 14L14 14L14 18L16 18L16 17L15 17L15 16L17 16L17 15L16 15L16 14L17 14L17 13L19 13L19 12L18 12L18 11L19 11L19 10L20 10L20 9L19 9L19 8L17 8L17 10L16 10L16 11L15 11L15 12L16 12L16 13L15 13L15 14L14 14L14 11L12 11L12 10L13 10L13 9L14 9L14 10L15 10L15 9L14 9L14 8L13 8L13 7L14 7L14 5L13 5L13 4L14 4L14 3ZM11 5L11 6L10 6L10 7L11 7L11 8L12 8L12 9L13 9L13 8L12 8L12 7L13 7L13 5ZM18 5L18 6L17 6L17 7L18 7L18 6L19 6L19 7L20 7L20 6L19 6L19 5ZM11 6L11 7L12 7L12 6ZM6 8L6 9L7 9L7 8ZM0 9L0 10L1 10L1 9ZM18 9L18 10L17 10L17 11L16 11L16 12L17 12L17 11L18 11L18 10L19 10L19 9ZM26 10L26 11L27 11L27 10ZM6 12L6 13L7 13L7 12ZM25 15L25 16L27 16L27 15ZM20 16L20 17L22 17L22 16ZM6 17L6 18L7 18L7 17ZM8 20L8 21L9 21L9 22L10 22L10 24L9 24L9 25L10 25L10 26L11 26L11 28L12 28L12 27L14 27L14 25L16 25L16 26L15 26L15 28L17 28L17 27L18 27L18 28L22 28L22 27L18 27L18 26L21 26L21 25L19 25L19 24L20 24L20 23L18 23L18 26L17 26L17 25L16 25L16 24L14 24L14 23L13 23L13 24L11 24L11 23L12 23L12 21L11 21L11 22L10 22L10 21L9 21L9 20ZM18 20L18 21L19 21L19 20ZM21 21L21 24L24 24L24 21ZM15 22L15 23L16 23L16 22ZM22 22L22 23L23 23L23 22ZM11 25L11 26L12 26L12 25ZM22 25L22 26L23 26L23 27L25 27L25 28L26 28L26 27L25 27L25 26L24 26L24 25ZM16 26L16 27L17 27L17 26ZM0 0L0 7L7 7L7 0ZM1 1L1 6L6 6L6 1ZM2 2L2 5L5 5L5 2ZM22 0L22 7L29 7L29 0ZM23 1L23 6L28 6L28 1ZM24 2L24 5L27 5L27 2ZM0 22L0 29L7 29L7 22ZM1 23L1 28L6 28L6 23ZM2 24L2 27L5 27L5 24Z" fill="#000000"/></g></g></svg>
