<?xml version="1.0" encoding="UTF-8"?>
<svg xmlns="http://www.w3.org/2000/svg" version="1.1" width="200" height="200" viewBox="0 0 200 200"><rect x="0" y="0" width="200" height="200" fill="#ffffff"/><g transform="scale(4.878)"><g transform="translate(0,0)"><path fill-rule="evenodd" d="M8 0L8 1L9 1L9 0ZM13 0L13 2L12 2L12 1L11 1L11 5L10 5L10 9L7 9L7 8L5 8L5 10L6 10L6 11L4 11L4 9L3 9L3 10L2 10L2 11L1 11L1 12L0 12L0 13L2 13L2 14L1 14L1 15L0 15L0 16L1 16L1 18L2 18L2 19L0 19L0 22L1 22L1 23L0 23L0 24L1 24L1 25L0 25L0 27L1 27L1 28L0 28L0 33L1 33L1 31L2 31L2 32L4 32L4 33L8 33L8 34L9 34L9 35L8 35L8 36L9 36L9 35L10 35L10 34L11 34L11 35L12 35L12 36L13 36L13 37L14 37L14 38L16 38L16 41L22 41L22 40L23 40L23 39L21 39L21 38L24 38L24 37L27 37L27 38L26 38L26 39L25 39L25 41L27 41L27 40L26 40L26 39L28 39L28 40L29 40L29 41L30 41L30 40L29 40L29 39L30 39L30 38L31 38L31 37L33 37L33 41L34 41L34 40L36 40L36 39L37 39L37 40L38 40L38 39L40 39L40 40L41 40L41 39L40 39L40 38L41 38L41 36L40 36L40 38L39 38L39 37L37 37L37 35L38 35L38 34L37 34L37 32L38 32L38 33L41 33L41 32L40 32L40 31L41 31L41 29L40 29L40 26L41 26L41 25L39 25L39 24L37 24L37 22L38 22L38 23L39 23L39 22L41 22L41 20L40 20L40 19L41 19L41 15L40 15L40 14L41 14L41 11L40 11L40 9L41 9L41 8L40 8L40 9L39 9L39 8L38 8L38 10L37 10L37 8L36 8L36 11L35 11L35 10L34 10L34 9L35 9L35 8L34 8L34 9L33 9L33 10L32 10L32 9L31 9L31 8L33 8L33 6L32 6L32 7L31 7L31 6L30 6L30 8L29 8L29 10L30 10L30 11L31 11L31 10L32 10L32 11L33 11L33 10L34 10L34 12L35 12L35 13L36 13L36 14L38 14L38 13L39 13L39 15L34 15L34 14L32 14L32 17L31 17L31 16L29 16L29 17L31 17L31 18L29 18L29 19L33 19L33 20L30 20L30 21L31 21L31 22L29 22L29 23L28 23L28 20L27 20L27 22L26 22L26 21L25 21L25 22L26 22L26 24L25 24L25 23L23 23L23 22L24 22L24 21L23 21L23 22L22 22L22 24L24 24L24 25L25 25L25 26L24 26L24 27L21 27L21 28L25 28L25 27L26 27L26 28L27 28L27 29L26 29L26 30L23 30L23 31L22 31L22 29L20 29L20 30L21 30L21 31L19 31L19 28L18 28L18 27L20 27L20 26L21 26L21 25L20 25L20 24L19 24L19 23L18 23L18 24L17 24L17 22L16 22L16 20L15 20L15 22L14 22L14 20L13 20L13 22L14 22L14 23L15 23L15 22L16 22L16 26L17 26L17 28L16 28L16 27L15 27L15 24L14 24L14 25L13 25L13 26L12 26L12 27L10 27L10 26L11 26L11 24L10 24L10 23L11 23L11 19L13 19L13 18L14 18L14 19L15 19L15 18L16 18L16 19L17 19L17 21L19 21L19 20L18 20L18 19L20 19L20 18L18 18L18 19L17 19L17 16L15 16L15 15L18 15L18 16L19 16L19 17L20 17L20 16L23 16L23 15L24 15L24 16L25 16L25 17L26 17L26 18L24 18L24 17L23 17L23 18L22 18L22 17L21 17L21 20L20 20L20 23L21 23L21 21L22 21L22 20L26 20L26 18L27 18L27 19L28 19L28 17L27 17L27 16L28 16L28 15L26 15L26 14L25 14L25 13L24 13L24 14L23 14L23 13L22 13L22 12L21 12L21 13L22 13L22 14L23 14L23 15L21 15L21 14L20 14L20 11L22 11L22 10L23 10L23 9L24 9L24 8L23 8L23 9L22 9L22 8L19 8L19 6L20 6L20 7L21 7L21 4L25 4L25 5L23 5L23 6L22 6L22 7L23 7L23 6L24 6L24 7L25 7L25 10L26 10L26 11L23 11L23 12L26 12L26 11L28 11L28 7L29 7L29 6L28 6L28 7L27 7L27 4L28 4L28 3L31 3L31 4L30 4L30 5L32 5L32 3L31 3L31 2L30 2L30 1L29 1L29 0L28 0L28 2L26 2L26 4L25 4L25 3L24 3L24 2L23 2L23 1L26 1L26 0L23 0L23 1L22 1L22 0L18 0L18 1L20 1L20 3L21 3L21 4L20 4L20 5L19 5L19 4L18 4L18 3L19 3L19 2L16 2L16 1L17 1L17 0L16 0L16 1L15 1L15 0ZM32 0L32 2L33 2L33 0ZM21 1L21 3L22 3L22 1ZM8 2L8 3L9 3L9 4L8 4L8 5L9 5L9 4L10 4L10 2ZM15 2L15 3L16 3L16 4L12 4L12 5L11 5L11 8L12 8L12 5L13 5L13 9L12 9L12 12L11 12L11 11L9 11L9 10L7 10L7 9L6 9L6 10L7 10L7 11L6 11L6 12L7 12L7 11L8 11L8 12L9 12L9 14L10 14L10 15L9 15L9 16L8 16L8 15L5 15L5 14L7 14L7 13L5 13L5 12L4 12L4 11L3 11L3 13L4 13L4 14L2 14L2 15L3 15L3 17L4 17L4 18L5 18L5 19L4 19L4 20L7 20L7 21L4 21L4 23L3 23L3 22L2 22L2 21L3 21L3 20L2 20L2 21L1 21L1 22L2 22L2 25L1 25L1 27L2 27L2 28L1 28L1 30L2 30L2 31L4 31L4 30L3 30L3 27L4 27L4 28L5 28L5 30L8 30L8 31L5 31L5 32L8 32L8 31L10 31L10 32L9 32L9 33L12 33L12 32L13 32L13 34L12 34L12 35L13 35L13 36L14 36L14 37L15 37L15 36L16 36L16 34L15 34L15 33L14 33L14 32L13 32L13 31L12 31L12 30L14 30L14 29L13 29L13 28L14 28L14 27L12 27L12 28L11 28L11 31L10 31L10 30L9 30L9 29L8 29L8 28L9 28L9 27L8 27L8 28L7 28L7 27L4 27L4 25L6 25L6 26L8 26L8 25L6 25L6 24L7 24L7 23L6 23L6 22L8 22L8 23L9 23L9 22L8 22L8 21L9 21L9 18L11 18L11 17L14 17L14 18L15 18L15 16L14 16L14 14L15 14L15 13L16 13L16 14L17 14L17 13L18 13L18 15L19 15L19 16L20 16L20 14L19 14L19 11L20 11L20 10L19 10L19 9L18 9L18 4L17 4L17 3L16 3L16 2ZM14 5L14 8L16 8L16 7L17 7L17 6L16 6L16 7L15 7L15 5ZM8 6L8 8L9 8L9 6ZM25 6L25 7L26 7L26 9L27 9L27 7L26 7L26 6ZM0 9L0 10L1 10L1 9ZM10 9L10 10L11 10L11 9ZM15 9L15 10L13 10L13 13L15 13L15 10L16 10L16 11L17 11L17 12L18 12L18 11L17 11L17 10L16 10L16 9ZM30 9L30 10L31 10L31 9ZM38 11L38 12L39 12L39 13L40 13L40 11ZM27 12L27 13L28 13L28 14L30 14L30 15L31 15L31 13L32 13L32 12L30 12L30 13L29 13L29 12ZM36 12L36 13L37 13L37 12ZM10 13L10 14L12 14L12 13ZM24 14L24 15L25 15L25 16L26 16L26 15L25 15L25 14ZM4 15L4 17L5 17L5 15ZM11 15L11 16L9 16L9 17L11 17L11 16L12 16L12 15ZM6 16L6 17L7 17L7 18L6 18L6 19L7 19L7 18L8 18L8 17L7 17L7 16ZM34 16L34 17L32 17L32 18L33 18L33 19L34 19L34 22L36 22L36 21L35 21L35 18L36 18L36 20L39 20L39 21L40 21L40 20L39 20L39 19L40 19L40 16L39 16L39 17L38 17L38 16L36 16L36 17L35 17L35 16ZM34 17L34 18L35 18L35 17ZM36 17L36 18L38 18L38 19L39 19L39 18L38 18L38 17ZM23 18L23 19L24 19L24 18ZM31 22L31 23L32 23L32 24L36 24L36 25L37 25L37 24L36 24L36 23L32 23L32 22ZM5 23L5 24L6 24L6 23ZM12 23L12 24L13 24L13 23ZM27 23L27 24L26 24L26 26L27 26L27 24L28 24L28 26L29 26L29 28L31 28L31 29L27 29L27 30L26 30L26 31L24 31L24 32L23 32L23 33L22 33L22 34L23 34L23 35L21 35L21 32L19 32L19 31L18 31L18 30L17 30L17 29L18 29L18 28L17 28L17 29L16 29L16 28L15 28L15 29L16 29L16 30L17 30L17 31L18 31L18 33L20 33L20 35L19 35L19 34L18 34L18 35L19 35L19 36L18 36L18 37L19 37L19 38L17 38L17 40L19 40L19 39L20 39L20 38L21 38L21 37L23 37L23 36L28 36L28 38L30 38L30 37L31 37L31 36L32 36L32 35L31 35L31 33L30 33L30 35L31 35L31 36L30 36L30 37L29 37L29 36L28 36L28 35L27 35L27 32L31 32L31 31L32 31L32 29L33 29L33 28L32 28L32 26L31 26L31 25L30 25L30 23L29 23L29 24L28 24L28 23ZM40 23L40 24L41 24L41 23ZM9 24L9 25L10 25L10 24ZM17 25L17 26L19 26L19 25ZM22 25L22 26L23 26L23 25ZM29 25L29 26L30 26L30 25ZM34 26L34 27L35 27L35 26ZM38 26L38 27L39 27L39 26ZM6 28L6 29L7 29L7 28ZM34 28L34 30L33 30L33 31L34 31L34 32L36 32L36 31L38 31L38 32L39 32L39 30L40 30L40 29L39 29L39 28ZM35 29L35 31L36 31L36 30L37 30L37 29ZM27 30L27 31L26 31L26 32L24 32L24 35L25 35L25 34L26 34L26 32L27 32L27 31L28 31L28 30ZM29 30L29 31L31 31L31 30ZM33 33L33 36L36 36L36 33ZM34 34L34 35L35 35L35 34ZM39 34L39 35L40 35L40 34ZM20 35L20 37L21 37L21 35ZM9 37L9 40L10 40L10 41L12 41L12 40L15 40L15 39L12 39L12 40L10 40L10 38L12 38L12 37ZM34 37L34 38L36 38L36 37ZM37 38L37 39L38 39L38 38ZM31 40L31 41L32 41L32 40ZM0 0L0 7L7 7L7 0ZM1 1L1 6L6 6L6 1ZM2 2L2 5L5 5L5 2ZM34 0L34 7L41 7L41 0ZM35 1L35 6L40 6L40 1ZM36 2L36 5L39 5L39 2ZM0 34L0 41L7 41L7 34ZM1 35L1 40L6 40L6 35ZM2 36L2 39L5 39L5 36Z" fill="#000000"/></g></g></svg>
