<?xml version="1.0" encoding="UTF-8"?>
<svg xmlns="http://www.w3.org/2000/svg" version="1.1" width="200" height="200" viewBox="0 0 200 200"><rect x="0" y="0" width="200" height="200" fill="#ffffff"/><g transform="scale(4.878)"><g transform="translate(0,0)"><path fill-rule="evenodd" d="M8 0L8 3L9 3L9 5L8 5L8 9L7 9L7 8L6 8L6 9L7 9L7 10L6 10L6 11L7 11L7 12L5 12L5 11L4 11L4 13L3 13L3 10L4 10L4 9L5 9L5 8L2 8L2 9L3 9L3 10L2 10L2 13L1 13L1 10L0 10L0 13L1 13L1 14L2 14L2 15L4 15L4 16L1 16L1 15L0 15L0 33L1 33L1 30L3 30L3 29L5 29L5 28L6 28L6 29L7 29L7 30L5 30L5 32L4 32L4 33L8 33L8 34L9 34L9 36L8 36L8 39L9 39L9 40L10 40L10 41L12 41L12 40L10 40L10 39L9 39L9 36L10 36L10 38L11 38L11 39L14 39L14 41L16 41L16 40L15 40L15 38L16 38L16 39L17 39L17 40L18 40L18 41L21 41L21 40L20 40L20 39L17 39L17 38L19 38L19 37L22 37L22 38L21 38L21 39L22 39L22 40L23 40L23 41L24 41L24 39L22 39L22 38L23 38L23 37L24 37L24 38L25 38L25 39L26 39L26 40L25 40L25 41L26 41L26 40L28 40L28 41L31 41L31 40L33 40L33 41L34 41L34 40L33 40L33 39L32 39L32 38L34 38L34 39L35 39L35 40L36 40L36 39L37 39L37 40L40 40L40 38L41 38L41 37L40 37L40 36L41 36L41 35L40 35L40 34L41 34L41 33L39 33L39 32L41 32L41 31L40 31L40 30L41 30L41 29L40 29L40 28L41 28L41 27L40 27L40 26L41 26L41 23L39 23L39 22L38 22L38 21L39 21L39 20L38 20L38 19L40 19L40 18L41 18L41 16L40 16L40 18L37 18L37 17L36 17L36 16L38 16L38 17L39 17L39 16L38 16L38 15L39 15L39 14L41 14L41 13L39 13L39 14L37 14L37 13L36 13L36 14L35 14L35 17L34 17L34 16L33 16L33 17L31 17L31 16L29 16L29 15L28 15L28 16L29 16L29 17L31 17L31 18L30 18L30 19L31 19L31 18L34 18L34 19L35 19L35 21L34 21L34 20L33 20L33 19L32 19L32 20L33 20L33 21L31 21L31 20L30 20L30 21L31 21L31 22L30 22L30 23L31 23L31 22L33 22L33 21L34 21L34 22L35 22L35 23L36 23L36 24L35 24L35 25L34 25L34 23L32 23L32 25L30 25L30 24L29 24L29 21L28 21L28 20L27 20L27 19L29 19L29 18L27 18L27 17L26 17L26 18L25 18L25 19L26 19L26 20L25 20L25 21L26 21L26 22L24 22L24 20L22 20L22 21L23 21L23 22L24 22L24 23L25 23L25 24L22 24L22 23L21 23L21 20L20 20L20 22L19 22L19 21L18 21L18 22L19 22L19 25L18 25L18 24L16 24L16 22L13 22L13 19L14 19L14 21L17 21L17 20L18 20L18 19L21 19L21 18L22 18L22 19L24 19L24 18L23 18L23 17L24 17L24 16L27 16L27 15L26 15L26 14L25 14L25 12L27 12L27 14L29 14L29 13L30 13L30 15L31 15L31 11L30 11L30 12L29 12L29 9L31 9L31 10L32 10L32 9L33 9L33 10L34 10L34 11L33 11L33 12L32 12L32 13L33 13L33 14L32 14L32 15L34 15L34 13L35 13L35 11L36 11L36 12L38 12L38 11L39 11L39 12L41 12L41 11L40 11L40 10L41 10L41 8L38 8L38 9L40 9L40 10L37 10L37 9L36 9L36 8L32 8L32 7L33 7L33 6L32 6L32 7L31 7L31 6L30 6L30 5L33 5L33 4L30 4L30 5L29 5L29 4L28 4L28 5L27 5L27 4L26 4L26 5L27 5L27 6L26 6L26 7L27 7L27 6L28 6L28 8L25 8L25 5L24 5L24 3L25 3L25 1L20 1L20 0L19 0L19 1L18 1L18 0L17 0L17 1L16 1L16 0L15 0L15 1L14 1L14 0L12 0L12 1L11 1L11 2L12 2L12 3L11 3L11 4L10 4L10 3L9 3L9 1L10 1L10 0ZM26 0L26 1L27 1L27 2L26 2L26 3L32 3L32 2L30 2L30 0L29 0L29 1L27 1L27 0ZM31 0L31 1L32 1L32 0ZM12 1L12 2L14 2L14 1ZM19 1L19 2L20 2L20 1ZM15 2L15 3L16 3L16 4L15 4L15 7L14 7L14 4L13 4L13 3L12 3L12 4L13 4L13 5L12 5L12 6L11 6L11 7L10 7L10 5L9 5L9 8L10 8L10 9L11 9L11 10L10 10L10 11L11 11L11 10L12 10L12 11L13 11L13 12L14 12L14 13L15 13L15 10L16 10L16 9L17 9L17 10L18 10L18 11L16 11L16 13L17 13L17 12L18 12L18 11L19 11L19 13L20 13L20 14L13 14L13 13L12 13L12 12L10 12L10 14L11 14L11 15L9 15L9 16L12 16L12 17L11 17L11 18L10 18L10 17L8 17L8 15L6 15L6 14L9 14L9 12L8 12L8 13L4 13L4 14L5 14L5 15L6 15L6 16L7 16L7 17L6 17L6 18L8 18L8 21L6 21L6 22L5 22L5 20L3 20L3 19L5 19L5 16L4 16L4 18L3 18L3 17L2 17L2 18L1 18L1 21L2 21L2 22L1 22L1 23L2 23L2 24L3 24L3 22L4 22L4 23L6 23L6 24L7 24L7 25L5 25L5 27L4 27L4 28L5 28L5 27L6 27L6 28L7 28L7 29L8 29L8 28L7 28L7 27L9 27L9 29L11 29L11 28L13 28L13 29L14 29L14 30L13 30L13 31L12 31L12 30L11 30L11 31L12 31L12 32L14 32L14 30L15 30L15 33L16 33L16 34L18 34L18 36L20 36L20 35L19 35L19 34L21 34L21 33L22 33L22 35L23 35L23 36L26 36L26 35L23 35L23 33L22 33L22 32L23 32L23 30L24 30L24 31L25 31L25 32L24 32L24 33L25 33L25 34L28 34L28 35L27 35L27 36L28 36L28 35L29 35L29 34L28 34L28 33L29 33L29 32L31 32L31 30L32 30L32 31L33 31L33 32L36 32L36 31L34 31L34 30L36 30L36 29L37 29L37 30L38 30L38 31L37 31L37 32L39 32L39 26L40 26L40 24L39 24L39 23L38 23L38 22L37 22L37 24L36 24L36 25L35 25L35 26L34 26L34 25L32 25L32 26L28 26L28 25L29 25L29 24L28 24L28 25L27 25L27 24L26 24L26 25L22 25L22 24L21 24L21 23L20 23L20 26L19 26L19 27L18 27L18 26L17 26L17 30L16 30L16 29L15 29L15 28L16 28L16 25L15 25L15 26L14 26L14 24L15 24L15 23L14 23L14 24L13 24L13 22L12 22L12 24L10 24L10 25L9 25L9 23L11 23L11 22L10 22L10 21L12 21L12 19L11 19L11 18L12 18L12 17L15 17L15 18L14 18L14 19L15 19L15 20L16 20L16 19L18 19L18 17L19 17L19 15L20 15L20 18L21 18L21 17L22 17L22 16L24 16L24 12L25 12L25 11L26 11L26 10L23 10L23 11L22 11L22 10L21 10L21 12L20 12L20 11L19 11L19 10L20 10L20 9L23 9L23 8L19 8L19 7L20 7L20 6L21 6L21 7L22 7L22 6L21 6L21 5L22 5L22 4L23 4L23 2L21 2L21 3L19 3L19 4L18 4L18 2L17 2L17 3L16 3L16 2ZM21 3L21 4L20 4L20 5L21 5L21 4L22 4L22 3ZM16 4L16 5L17 5L17 4ZM18 5L18 7L19 7L19 5ZM28 5L28 6L29 6L29 8L28 8L28 9L27 9L27 10L28 10L28 9L29 9L29 8L31 8L31 9L32 9L32 8L31 8L31 7L30 7L30 6L29 6L29 5ZM12 6L12 7L11 7L11 9L13 9L13 11L14 11L14 10L15 10L15 9L13 9L13 8L14 8L14 7L13 7L13 6ZM16 6L16 7L17 7L17 6ZM23 6L23 7L24 7L24 6ZM24 8L24 9L25 9L25 8ZM8 9L8 11L9 11L9 9ZM36 10L36 11L37 11L37 10ZM22 12L22 13L21 13L21 14L20 14L20 15L21 15L21 16L22 16L22 15L21 15L21 14L23 14L23 12ZM28 12L28 13L29 13L29 12ZM33 12L33 13L34 13L34 12ZM12 14L12 15L13 15L13 14ZM14 15L14 16L15 16L15 15ZM16 15L16 16L17 16L17 17L18 17L18 15ZM35 17L35 19L36 19L36 20L37 20L37 21L38 21L38 20L37 20L37 18L36 18L36 17ZM9 18L9 19L10 19L10 18ZM15 18L15 19L16 19L16 18ZM6 19L6 20L7 20L7 19ZM2 20L2 21L3 21L3 20ZM26 20L26 21L27 21L27 22L26 22L26 23L27 23L27 22L28 22L28 21L27 21L27 20ZM40 20L40 21L41 21L41 20ZM35 21L35 22L36 22L36 21ZM6 22L6 23L7 23L7 22ZM8 22L8 23L9 23L9 22ZM12 24L12 26L11 26L11 25L10 25L10 26L11 26L11 27L14 27L14 26L13 26L13 24ZM1 25L1 26L4 26L4 25ZM21 25L21 26L20 26L20 27L19 27L19 28L18 28L18 30L19 30L19 31L18 31L18 32L17 32L17 31L16 31L16 32L17 32L17 33L18 33L18 32L19 32L19 31L20 31L20 33L21 33L21 32L22 32L22 31L20 31L20 29L19 29L19 28L20 28L20 27L21 27L21 26L22 26L22 28L21 28L21 29L22 29L22 30L23 30L23 29L24 29L24 30L26 30L26 32L25 32L25 33L26 33L26 32L27 32L27 33L28 33L28 31L29 31L29 30L28 30L28 29L31 29L31 28L33 28L33 29L32 29L32 30L33 30L33 29L34 29L34 28L33 28L33 27L34 27L34 26L33 26L33 27L31 27L31 28L29 28L29 27L28 27L28 26L27 26L27 27L26 27L26 26L24 26L24 27L23 27L23 26L22 26L22 25ZM36 25L36 26L35 26L35 27L36 27L36 28L35 28L35 29L36 29L36 28L38 28L38 26L39 26L39 25ZM6 26L6 27L7 27L7 26ZM27 27L27 28L26 28L26 30L27 30L27 28L28 28L28 27ZM2 28L2 29L3 29L3 28ZM8 30L8 32L10 32L10 33L9 33L9 34L11 34L11 32L10 32L10 30ZM2 31L2 32L3 32L3 31ZM6 31L6 32L7 32L7 31ZM12 33L12 34L13 34L13 36L14 36L14 33ZM30 33L30 35L31 35L31 34L32 34L32 33ZM33 33L33 36L36 36L36 33ZM38 33L38 34L37 34L37 36L40 36L40 35L39 35L39 33ZM34 34L34 35L35 35L35 34ZM16 35L16 36L17 36L17 35ZM11 36L11 37L12 37L12 38L14 38L14 37L12 37L12 36ZM29 36L29 37L27 37L27 38L26 38L26 37L25 37L25 38L26 38L26 39L27 39L27 38L28 38L28 40L31 40L31 38L32 38L32 36ZM16 37L16 38L17 38L17 37ZM30 37L30 38L31 38L31 37ZM34 37L34 38L36 38L36 37ZM37 38L37 39L38 39L38 38ZM0 0L0 7L7 7L7 0ZM1 1L1 6L6 6L6 1ZM2 2L2 5L5 5L5 2ZM34 0L34 7L41 7L41 0ZM35 1L35 6L40 6L40 1ZM36 2L36 5L39 5L39 2ZM0 34L0 41L7 41L7 34ZM1 35L1 40L6 40L6 35ZM2 36L2 39L5 39L5 36Z" fill="#000000"/></g></g></svg>
