<?xml version="1.0" encoding="UTF-8"?>
<svg xmlns="http://www.w3.org/2000/svg" version="1.1" width="200" height="200" viewBox="0 0 200 200"><rect x="0" y="0" width="200" height="200" fill="#ffffff"/><g transform="scale(4.878)"><g transform="translate(0,0)"><path fill-rule="evenodd" d="M8 0L8 3L9 3L9 2L10 2L10 4L11 4L11 5L14 5L14 8L13 8L13 9L12 9L12 7L13 7L13 6L12 6L12 7L11 7L11 6L10 6L10 7L9 7L9 5L8 5L8 9L7 9L7 8L6 8L6 9L5 9L5 8L2 8L2 9L0 9L0 11L2 11L2 12L4 12L4 13L3 13L3 14L2 14L2 15L0 15L0 16L2 16L2 15L5 15L5 16L3 16L3 17L2 17L2 18L1 18L1 17L0 17L0 23L1 23L1 24L2 24L2 25L1 25L1 26L2 26L2 29L3 29L3 30L2 30L2 31L4 31L4 28L5 28L5 27L7 27L7 26L6 26L6 25L7 25L7 24L9 24L9 23L10 23L10 24L11 24L11 27L12 27L12 25L14 25L14 22L15 22L15 26L13 26L13 27L14 27L14 29L15 29L15 26L16 26L16 28L17 28L17 29L16 29L16 31L13 31L13 32L12 32L12 33L11 33L11 30L10 30L10 29L11 29L11 28L9 28L9 27L10 27L10 25L8 25L8 28L6 28L6 29L5 29L5 31L8 31L8 32L6 32L6 33L8 33L8 34L9 34L9 36L8 36L8 39L9 39L9 36L10 36L10 39L11 39L11 41L17 41L17 39L19 39L19 40L20 40L20 41L21 41L21 40L23 40L23 41L24 41L24 38L25 38L25 40L26 40L26 39L27 39L27 41L28 41L28 39L31 39L31 40L33 40L33 41L34 41L34 40L33 40L33 39L35 39L35 40L36 40L36 39L37 39L37 40L40 40L40 38L41 38L41 37L39 37L39 36L40 36L40 34L41 34L41 33L39 33L39 32L37 32L37 31L36 31L36 30L37 30L37 29L36 29L36 28L38 28L38 26L39 26L39 27L40 27L40 26L41 26L41 23L39 23L39 22L38 22L38 23L39 23L39 24L40 24L40 26L39 26L39 25L36 25L36 24L37 24L37 21L39 21L39 20L36 20L36 19L35 19L35 17L36 17L36 18L37 18L37 19L38 19L38 17L39 17L39 16L37 16L37 14L38 14L38 15L39 15L39 14L41 14L41 13L39 13L39 14L38 14L38 13L36 13L36 15L35 15L35 17L34 17L34 16L33 16L33 17L31 17L31 15L30 15L30 16L29 16L29 15L28 15L28 16L29 16L29 17L31 17L31 18L30 18L30 19L31 19L31 20L30 20L30 21L29 21L29 20L27 20L27 19L29 19L29 18L27 18L27 19L25 19L25 18L26 18L26 17L23 17L23 16L24 16L24 15L25 15L25 12L24 12L24 13L22 13L22 12L21 12L21 14L22 14L22 16L19 16L19 15L20 15L20 14L19 14L19 15L16 15L16 16L17 16L17 18L15 18L15 19L16 19L16 20L14 20L14 17L15 17L15 16L13 16L13 15L15 15L15 13L16 13L16 14L17 14L17 13L18 13L18 12L19 12L19 13L20 13L20 11L21 11L21 10L22 10L22 11L26 11L26 12L27 12L27 13L26 13L26 14L29 14L29 13L30 13L30 14L31 14L31 12L29 12L29 11L28 11L28 10L29 10L29 9L31 9L31 10L30 10L30 11L31 11L31 10L32 10L32 11L33 11L33 12L32 12L32 13L33 13L33 14L32 14L32 15L34 15L34 13L35 13L35 12L38 12L38 11L40 11L40 12L41 12L41 11L40 11L40 10L41 10L41 8L38 8L38 9L40 9L40 10L37 10L37 9L36 9L36 8L32 8L32 7L33 7L33 6L32 6L32 7L31 7L31 5L33 5L33 4L29 4L29 3L32 3L32 2L33 2L33 1L32 1L32 0L31 0L31 1L32 1L32 2L30 2L30 0L29 0L29 1L27 1L27 0L26 0L26 1L27 1L27 2L26 2L26 3L28 3L28 4L29 4L29 5L30 5L30 7L31 7L31 8L29 8L29 9L28 9L28 10L27 10L27 8L28 8L28 7L29 7L29 6L28 6L28 5L27 5L27 4L25 4L25 1L24 1L24 0L23 0L23 1L21 1L21 0L20 0L20 1L19 1L19 0L18 0L18 2L19 2L19 4L20 4L20 7L19 7L19 6L18 6L18 7L17 7L17 6L16 6L16 5L15 5L15 4L17 4L17 5L18 5L18 4L17 4L17 1L16 1L16 0L15 0L15 3L13 3L13 1L11 1L11 0L10 0L10 1L9 1L9 0ZM10 1L10 2L11 2L11 1ZM20 1L20 2L21 2L21 3L23 3L23 4L24 4L24 1L23 1L23 2L21 2L21 1ZM24 5L24 6L23 6L23 7L22 7L22 6L21 6L21 7L22 7L22 8L19 8L19 10L17 10L17 9L15 9L15 10L14 10L14 11L16 11L16 12L17 12L17 11L20 11L20 10L21 10L21 9L22 9L22 10L26 10L26 9L25 9L25 8L26 8L26 6L27 6L27 7L28 7L28 6L27 6L27 5L26 5L26 6L25 6L25 5ZM15 6L15 7L16 7L16 6ZM24 6L24 8L25 8L25 6ZM9 8L9 9L8 9L8 10L7 10L7 9L6 9L6 10L5 10L5 9L2 9L2 10L3 10L3 11L5 11L5 13L6 13L6 14L5 14L5 15L6 15L6 16L8 16L8 17L3 17L3 20L1 20L1 22L2 22L2 23L3 23L3 22L4 22L4 23L5 23L5 24L4 24L4 25L5 25L5 24L7 24L7 23L6 23L6 22L8 22L8 23L9 23L9 21L6 21L6 20L9 20L9 18L8 18L8 17L10 17L10 19L12 19L12 22L11 22L11 23L13 23L13 18L11 18L11 17L10 17L10 15L12 15L12 14L13 14L13 12L12 12L12 9L10 9L10 8ZM31 8L31 9L32 9L32 10L33 10L33 11L34 11L34 10L33 10L33 9L32 9L32 8ZM6 10L6 11L7 11L7 12L6 12L6 13L10 13L10 12L11 12L11 13L12 13L12 12L11 12L11 11L9 11L9 12L8 12L8 11L7 11L7 10ZM35 10L35 11L37 11L37 10ZM27 11L27 12L28 12L28 13L29 13L29 12L28 12L28 11ZM14 12L14 13L15 13L15 12ZM33 12L33 13L34 13L34 12ZM6 14L6 15L7 15L7 14ZM23 14L23 15L24 15L24 14ZM36 16L36 17L37 17L37 16ZM40 16L40 18L39 18L39 19L40 19L40 18L41 18L41 16ZM19 17L19 18L20 18L20 19L19 19L19 20L18 20L18 19L17 19L17 20L18 20L18 21L15 21L15 22L16 22L16 25L17 25L17 28L18 28L18 29L17 29L17 30L18 30L18 31L19 31L19 32L20 32L20 31L22 31L22 32L21 32L21 33L20 33L20 34L22 34L22 33L24 33L24 35L23 35L23 36L24 36L24 37L25 37L25 36L26 36L26 37L27 37L27 38L30 38L30 37L31 37L31 39L33 39L33 38L36 38L36 37L32 37L32 35L31 35L31 34L30 34L30 35L31 35L31 36L29 36L29 35L27 35L27 34L28 34L28 33L29 33L29 32L30 32L30 33L31 33L31 30L32 30L32 31L33 31L33 32L35 32L35 31L34 31L34 30L36 30L36 29L35 29L35 28L36 28L36 27L37 27L37 26L36 26L36 25L35 25L35 24L36 24L36 23L35 23L35 22L36 22L36 21L35 21L35 19L34 19L34 18L33 18L33 20L34 20L34 21L32 21L32 20L31 20L31 21L30 21L30 22L29 22L29 21L26 21L26 20L24 20L24 19L23 19L23 18L22 18L22 17L21 17L21 18L20 18L20 17ZM4 18L4 20L3 20L3 21L2 21L2 22L3 22L3 21L4 21L4 22L6 22L6 21L5 21L5 20L6 20L6 19L7 19L7 18L6 18L6 19L5 19L5 18ZM31 18L31 19L32 19L32 18ZM19 20L19 23L18 23L18 22L17 22L17 24L19 24L19 23L22 23L22 24L21 24L21 25L24 25L24 26L21 26L21 27L22 27L22 31L23 31L23 32L25 32L25 34L26 34L26 33L28 33L28 31L30 31L30 30L31 30L31 29L30 29L30 28L27 28L27 27L29 27L29 26L32 26L32 27L31 27L31 28L32 28L32 27L34 27L34 26L35 26L35 25L34 25L34 24L33 24L33 25L30 25L30 24L27 24L27 23L29 23L29 22L27 22L27 23L25 23L25 24L23 24L23 23L24 23L24 20L22 20L22 22L21 22L21 20ZM40 20L40 21L41 21L41 20ZM25 21L25 22L26 22L26 21ZM31 21L31 22L30 22L30 23L31 23L31 22L32 22L32 21ZM34 21L34 22L33 22L33 23L34 23L34 22L35 22L35 21ZM25 24L25 25L27 25L27 26L24 26L24 27L27 27L27 26L29 26L29 25L27 25L27 24ZM2 25L2 26L3 26L3 27L5 27L5 26L3 26L3 25ZM19 25L19 27L18 27L18 28L19 28L19 29L18 29L18 30L19 30L19 31L20 31L20 30L19 30L19 29L21 29L21 28L20 28L20 25ZM33 25L33 26L34 26L34 25ZM0 28L0 33L1 33L1 28ZM12 28L12 29L13 29L13 28ZM24 28L24 30L23 30L23 31L25 31L25 29L27 29L27 28ZM33 28L33 29L32 29L32 30L33 30L33 29L34 29L34 28ZM6 29L6 30L8 30L8 31L10 31L10 30L8 30L8 29ZM28 29L28 30L30 30L30 29ZM39 29L39 30L38 30L38 31L40 31L40 32L41 32L41 31L40 31L40 30L41 30L41 29ZM26 31L26 32L27 32L27 31ZM3 32L3 33L4 33L4 32ZM13 32L13 33L12 33L12 37L11 37L11 38L12 38L12 39L13 39L13 37L14 37L14 38L15 38L15 39L14 39L14 40L16 40L16 39L17 39L17 35L18 35L18 36L19 36L19 37L18 37L18 38L19 38L19 39L20 39L20 40L21 40L21 39L23 39L23 38L21 38L21 39L20 39L20 38L19 38L19 37L22 37L22 36L19 36L19 35L18 35L18 34L17 34L17 32L15 32L15 33L16 33L16 34L14 34L14 32ZM9 33L9 34L10 34L10 35L11 35L11 33ZM33 33L33 36L36 36L36 33ZM37 33L37 36L39 36L39 34L38 34L38 33ZM34 34L34 35L35 35L35 34ZM13 35L13 36L14 36L14 37L16 37L16 35L15 35L15 36L14 36L14 35ZM27 36L27 37L29 37L29 36ZM37 38L37 39L38 39L38 38ZM9 40L9 41L10 41L10 40ZM29 40L29 41L30 41L30 40ZM0 0L0 7L7 7L7 0ZM1 1L1 6L6 6L6 1ZM2 2L2 5L5 5L5 2ZM34 0L34 7L41 7L41 0ZM35 1L35 6L40 6L40 1ZM36 2L36 5L39 5L39 2ZM0 34L0 41L7 41L7 34ZM1 35L1 40L6 40L6 35ZM2 36L2 39L5 39L5 36Z" fill="#000000"/></g></g></svg>
