<?xml version="1.0" encoding="UTF-8"?>
<svg xmlns="http://www.w3.org/2000/svg" version="1.1" width="200" height="200" viewBox="0 0 200 200"><rect x="0" y="0" width="200" height="200" fill="#ffffff"/><g transform="scale(4.878)"><g transform="translate(0,0)"><path fill-rule="evenodd" d="M8 0L8 3L9 3L9 2L10 2L10 4L12 4L12 5L10 5L10 7L9 7L9 5L8 5L8 11L7 11L7 10L6 10L6 9L7 9L7 8L6 8L6 9L5 9L5 8L2 8L2 11L0 11L0 12L2 12L2 15L1 15L1 14L0 14L0 17L1 17L1 18L0 18L0 19L2 19L2 20L3 20L3 21L1 21L1 22L4 22L4 20L3 20L3 18L5 18L5 19L7 19L7 20L6 20L6 21L5 21L5 22L6 22L6 23L4 23L4 24L5 24L5 25L4 25L4 26L5 26L5 27L4 27L4 28L3 28L3 31L2 31L2 32L3 32L3 33L4 33L4 32L5 32L5 30L6 30L6 31L7 31L7 30L10 30L10 31L9 31L9 32L8 32L8 34L9 34L9 36L8 36L8 39L9 39L9 38L11 38L11 41L12 41L12 38L11 38L11 37L13 37L13 38L14 38L14 36L16 36L16 37L15 37L15 38L16 38L16 39L15 39L15 40L13 40L13 41L16 41L16 40L17 40L17 38L18 38L18 35L19 35L19 34L18 34L18 35L17 35L17 31L18 31L18 33L20 33L20 32L19 32L19 30L20 30L20 29L19 29L19 30L17 30L17 31L16 31L16 28L18 28L18 22L19 22L19 21L20 21L20 22L21 22L21 23L20 23L20 25L21 25L21 26L20 26L20 27L19 27L19 28L21 28L21 29L22 29L22 30L23 30L23 31L25 31L25 33L26 33L26 35L25 35L25 36L24 36L24 37L22 37L22 38L21 38L21 36L19 36L19 38L21 38L21 39L20 39L20 40L19 40L19 39L18 39L18 40L19 40L19 41L21 41L21 40L22 40L22 38L23 38L23 41L26 41L26 38L27 38L27 39L28 39L28 38L30 38L30 39L31 39L31 40L27 40L27 41L31 41L31 40L33 40L33 41L34 41L34 40L33 40L33 39L32 39L32 38L34 38L34 39L35 39L35 40L36 40L36 39L39 39L39 40L40 40L40 38L41 38L41 37L39 37L39 36L38 36L38 33L39 33L39 35L40 35L40 36L41 36L41 35L40 35L40 34L41 34L41 33L39 33L39 32L40 32L40 30L41 30L41 29L40 29L40 28L39 28L39 30L37 30L37 29L35 29L35 26L37 26L37 27L36 27L36 28L38 28L38 26L39 26L39 27L40 27L40 26L41 26L41 23L40 23L40 26L39 26L39 24L37 24L37 25L34 25L34 24L36 24L36 23L34 23L34 22L36 22L36 21L38 21L38 22L37 22L37 23L38 23L38 22L39 22L39 20L36 20L36 19L35 19L35 17L36 17L36 18L37 18L37 17L36 17L36 16L38 16L38 17L39 17L39 18L38 18L38 19L39 19L39 18L41 18L41 16L40 16L40 17L39 17L39 16L38 16L38 15L40 15L40 14L41 14L41 13L40 13L40 12L41 12L41 11L40 11L40 10L41 10L41 8L38 8L38 9L40 9L40 10L37 10L37 9L36 9L36 8L33 8L33 6L32 6L32 8L33 8L33 9L30 9L30 8L31 8L31 5L32 5L32 4L33 4L33 1L32 1L32 0L31 0L31 1L30 1L30 2L31 2L31 1L32 1L32 4L31 4L31 3L30 3L30 4L31 4L31 5L25 5L25 4L23 4L23 3L26 3L26 4L27 4L27 3L28 3L28 4L29 4L29 1L27 1L27 0L25 0L25 1L24 1L24 0L21 0L21 1L22 1L22 2L21 2L21 3L22 3L22 4L20 4L20 3L18 3L18 2L19 2L19 1L20 1L20 0L19 0L19 1L18 1L18 2L16 2L16 3L15 3L15 0L14 0L14 4L16 4L16 5L13 5L13 3L11 3L11 2L13 2L13 1L12 1L12 0L11 0L11 2L10 2L10 0ZM26 2L26 3L27 3L27 2ZM16 3L16 4L18 4L18 5L19 5L19 8L18 8L18 6L17 6L17 7L16 7L16 6L15 6L15 7L16 7L16 8L13 8L13 7L14 7L14 6L13 6L13 7L12 7L12 6L11 6L11 7L10 7L10 8L9 8L9 9L12 9L12 8L13 8L13 9L14 9L14 10L13 10L13 11L12 11L12 12L10 12L10 14L8 14L8 15L6 15L6 14L7 14L7 13L5 13L5 12L4 12L4 9L3 9L3 11L2 11L2 12L3 12L3 15L2 15L2 16L1 16L1 17L3 17L3 16L4 16L4 15L6 15L6 16L7 16L7 17L5 17L5 18L8 18L8 19L9 19L9 17L10 17L10 16L9 16L9 17L8 17L8 15L13 15L13 17L14 17L14 18L13 18L13 19L12 19L12 17L11 17L11 18L10 18L10 20L11 20L11 19L12 19L12 20L15 20L15 22L13 22L13 21L12 21L12 22L9 22L9 20L7 20L7 21L6 21L6 22L7 22L7 23L6 23L6 24L7 24L7 25L5 25L5 26L7 26L7 27L5 27L5 29L6 29L6 30L7 30L7 29L8 29L8 27L9 27L9 28L10 28L10 29L11 29L11 31L12 31L12 32L11 32L11 33L12 33L12 34L13 34L13 35L12 35L12 36L13 36L13 35L15 35L15 33L14 33L14 34L13 34L13 33L12 33L12 32L13 32L13 31L12 31L12 28L10 28L10 27L11 27L11 26L12 26L12 25L13 25L13 26L14 26L14 25L15 25L15 28L16 28L16 27L17 27L17 26L16 26L16 25L17 25L17 24L16 24L16 25L15 25L15 22L17 22L17 21L16 21L16 19L17 19L17 20L18 20L18 19L19 19L19 17L22 17L22 18L21 18L21 19L22 19L22 20L25 20L25 25L23 25L23 23L21 23L21 25L22 25L22 27L21 27L21 28L22 28L22 29L24 29L24 30L27 30L27 32L26 32L26 33L27 33L27 34L28 34L28 35L29 35L29 36L28 36L28 37L27 37L27 38L28 38L28 37L30 37L30 38L32 38L32 35L30 35L30 33L32 33L32 32L35 32L35 31L36 31L36 30L35 30L35 29L34 29L34 28L33 28L33 27L34 27L34 25L32 25L32 24L31 24L31 25L30 25L30 26L28 26L28 25L29 25L29 24L30 24L30 23L33 23L33 22L34 22L34 21L36 21L36 20L35 20L35 19L34 19L34 18L33 18L33 19L32 19L32 18L31 18L31 17L30 17L30 19L31 19L31 20L29 20L29 19L28 19L28 20L27 20L27 18L29 18L29 16L30 16L30 15L31 15L31 14L32 14L32 15L33 15L33 16L32 16L32 17L33 17L33 16L34 16L34 17L35 17L35 16L36 16L36 15L35 15L35 14L36 14L36 13L37 13L37 15L38 15L38 14L40 14L40 13L39 13L39 11L38 11L38 12L35 12L35 10L36 10L36 9L35 9L35 10L34 10L34 9L33 9L33 10L34 10L34 11L33 11L33 12L31 12L31 14L30 14L30 13L28 13L28 14L30 14L30 15L28 15L28 17L27 17L27 16L26 16L26 15L24 15L24 14L25 14L25 11L24 11L24 10L29 10L29 12L30 12L30 9L24 9L24 8L22 8L22 10L23 10L23 11L24 11L24 13L22 13L22 12L20 12L20 11L21 11L21 8L20 8L20 5L19 5L19 4L18 4L18 3ZM22 5L22 6L21 6L21 7L22 7L22 6L23 6L23 7L24 7L24 6L25 6L25 7L26 7L26 8L30 8L30 6L29 6L29 7L28 7L28 6L27 6L27 7L26 7L26 6L25 6L25 5ZM16 8L16 9L15 9L15 10L14 10L14 11L13 11L13 12L15 12L15 13L13 13L13 15L14 15L14 14L15 14L15 16L16 16L16 17L15 17L15 19L16 19L16 17L17 17L17 19L18 19L18 17L19 17L19 16L22 16L22 17L23 17L23 18L27 18L27 17L25 17L25 16L24 16L24 15L23 15L23 16L22 16L22 13L21 13L21 15L20 15L20 12L19 12L19 11L20 11L20 10L19 10L19 11L18 11L18 10L17 10L17 11L16 11L16 9L17 9L17 8ZM0 9L0 10L1 10L1 9ZM9 10L9 11L10 11L10 10ZM31 10L31 11L32 11L32 10ZM6 11L6 12L7 12L7 11ZM15 11L15 12L16 12L16 11ZM26 12L26 13L27 13L27 12ZM33 12L33 13L32 13L32 14L33 14L33 15L34 15L34 14L33 14L33 13L34 13L34 12ZM4 13L4 14L5 14L5 13ZM16 13L16 16L17 16L17 17L18 17L18 16L19 16L19 15L18 15L18 16L17 16L17 14L19 14L19 13ZM25 19L25 20L26 20L26 21L27 21L27 20L26 20L26 19ZM20 20L20 21L21 21L21 22L23 22L23 21L21 21L21 20ZM28 20L28 21L29 21L29 20ZM33 20L33 21L30 21L30 22L29 22L29 23L30 23L30 22L33 22L33 21L34 21L34 20ZM40 20L40 21L41 21L41 20ZM7 21L7 22L8 22L8 21ZM27 22L27 23L26 23L26 24L27 24L27 25L25 25L25 26L23 26L23 28L24 28L24 29L26 29L26 28L27 28L27 30L29 30L29 29L30 29L30 30L31 30L31 29L30 29L30 28L29 28L29 29L28 29L28 26L27 26L27 25L28 25L28 24L27 24L27 23L28 23L28 22ZM0 23L0 24L1 24L1 27L3 27L3 24L1 24L1 23ZM8 23L8 25L7 25L7 26L9 26L9 27L10 27L10 26L9 26L9 25L10 25L10 24L11 24L11 23L10 23L10 24L9 24L9 23ZM12 23L12 24L13 24L13 23ZM31 25L31 26L32 26L32 25ZM26 26L26 27L27 27L27 26ZM31 27L31 28L32 28L32 29L33 29L33 30L32 30L32 31L33 31L33 30L34 30L34 31L35 31L35 30L34 30L34 29L33 29L33 28L32 28L32 27ZM1 28L1 29L0 29L0 33L1 33L1 29L2 29L2 28ZM6 28L6 29L7 29L7 28ZM13 29L13 30L14 30L14 32L16 32L16 31L15 31L15 29ZM28 31L28 33L30 33L30 32L31 32L31 31L30 31L30 32L29 32L29 31ZM38 31L38 32L37 32L37 33L38 33L38 32L39 32L39 31ZM6 32L6 33L7 33L7 32ZM9 32L9 33L10 33L10 32ZM21 32L21 34L24 34L24 32L23 32L23 33L22 33L22 32ZM33 33L33 36L36 36L36 33ZM34 34L34 35L35 35L35 34ZM10 35L10 37L11 37L11 35ZM26 35L26 36L25 36L25 37L24 37L24 39L25 39L25 37L26 37L26 36L27 36L27 35ZM30 36L30 37L31 37L31 36ZM37 36L37 37L38 37L38 38L39 38L39 37L38 37L38 36ZM16 37L16 38L17 38L17 37ZM34 37L34 38L36 38L36 37ZM9 40L9 41L10 41L10 40ZM0 0L0 7L7 7L7 0ZM1 1L1 6L6 6L6 1ZM2 2L2 5L5 5L5 2ZM34 0L34 7L41 7L41 0ZM35 1L35 6L40 6L40 1ZM36 2L36 5L39 5L39 2ZM0 34L0 41L7 41L7 34ZM1 35L1 40L6 40L6 35ZM2 36L2 39L5 39L5 36Z" fill="#000000"/></g></g></svg>
