<?xml version="1.0" encoding="UTF-8"?>
<svg xmlns="http://www.w3.org/2000/svg" version="1.1" width="200" height="200" viewBox="0 0 200 200"><rect x="0" y="0" width="200" height="200" fill="#ffffff"/><g transform="scale(4.878)"><g transform="translate(0,0)"><path fill-rule="evenodd" d="M8 0L8 3L9 3L9 5L8 5L8 9L7 9L7 8L6 8L6 9L7 9L7 10L6 10L6 11L5 11L5 10L4 10L4 9L5 9L5 8L2 8L2 9L0 9L0 12L1 12L1 10L2 10L2 12L3 12L3 13L4 13L4 12L5 12L5 14L6 14L6 15L7 15L7 14L6 14L6 13L7 13L7 12L6 12L6 11L8 11L8 12L9 12L9 11L10 11L10 10L9 10L9 5L15 5L15 4L17 4L17 6L16 6L16 9L15 9L15 10L17 10L17 11L18 11L18 12L20 12L20 14L21 14L21 15L17 15L17 16L18 16L18 17L17 17L17 19L16 19L16 18L13 18L13 17L12 17L12 16L13 16L13 15L15 15L15 16L14 16L14 17L16 17L16 14L15 14L15 13L16 13L16 11L15 11L15 12L14 12L14 10L13 10L13 8L14 8L14 7L15 7L15 6L14 6L14 7L13 7L13 6L12 6L12 7L13 7L13 8L12 8L12 9L11 9L11 6L10 6L10 9L11 9L11 11L12 11L12 10L13 10L13 13L12 13L12 14L13 14L13 15L11 15L11 16L10 16L10 14L8 14L8 18L9 18L9 16L10 16L10 17L11 17L11 19L10 19L10 20L8 20L8 19L7 19L7 18L5 18L5 17L7 17L7 16L3 16L3 14L2 14L2 15L1 15L1 14L0 14L0 15L1 15L1 16L0 16L0 17L3 17L3 18L0 18L0 19L3 19L3 20L1 20L1 22L0 22L0 23L1 23L1 24L0 24L0 25L1 25L1 24L2 24L2 25L3 25L3 26L1 26L1 27L0 27L0 28L1 28L1 29L0 29L0 33L1 33L1 30L2 30L2 29L3 29L3 31L2 31L2 33L8 33L8 34L9 34L9 36L8 36L8 39L9 39L9 40L10 40L10 39L12 39L12 40L11 40L11 41L13 41L13 40L14 40L14 39L16 39L16 41L17 41L17 40L18 40L18 39L19 39L19 40L20 40L20 41L25 41L25 40L26 40L26 41L27 41L27 40L28 40L28 41L31 41L31 40L33 40L33 41L34 41L34 40L33 40L33 39L35 39L35 40L36 40L36 39L37 39L37 40L40 40L40 38L41 38L41 37L39 37L39 36L41 36L41 35L40 35L40 34L41 34L41 33L40 33L40 32L41 32L41 31L40 31L40 30L41 30L41 29L40 29L40 26L41 26L41 23L39 23L39 24L40 24L40 26L39 26L39 25L36 25L36 24L37 24L37 23L38 23L38 22L39 22L39 20L36 20L36 19L35 19L35 17L36 17L36 18L37 18L37 19L38 19L38 18L37 18L37 17L39 17L39 16L37 16L37 13L36 13L36 14L35 14L35 17L34 17L34 16L33 16L33 17L31 17L31 16L29 16L29 15L31 15L31 11L30 11L30 12L29 12L29 13L28 13L28 12L27 12L27 11L28 11L28 10L27 10L27 11L26 11L26 12L27 12L27 14L26 14L26 13L25 13L25 14L26 14L26 16L24 16L24 17L23 17L23 16L22 16L22 14L21 14L21 11L22 11L22 13L23 13L23 14L24 14L24 13L23 13L23 11L22 11L22 10L24 10L24 11L25 11L25 10L24 10L24 9L23 9L23 6L22 6L22 7L21 7L21 5L23 5L23 3L24 3L24 4L25 4L25 3L24 3L24 2L25 2L25 0L23 0L23 1L22 1L22 0L21 0L21 1L20 1L20 4L21 4L21 5L20 5L20 7L19 7L19 6L18 6L18 4L19 4L19 3L18 3L18 4L17 4L17 2L16 2L16 1L15 1L15 0L11 0L11 2L9 2L9 0ZM17 0L17 1L18 1L18 2L19 2L19 0ZM26 0L26 1L27 1L27 2L26 2L26 3L28 3L28 4L29 4L29 3L32 3L32 2L30 2L30 1L33 1L33 0L29 0L29 1L27 1L27 0ZM12 1L12 2L11 2L11 4L12 4L12 3L14 3L14 1ZM21 1L21 2L22 2L22 1ZM15 2L15 3L16 3L16 2ZM21 3L21 4L22 4L22 3ZM26 4L26 5L24 5L24 8L25 8L25 9L26 9L26 8L25 8L25 6L26 6L26 7L27 7L27 6L28 6L28 7L29 7L29 6L30 6L30 8L27 8L27 9L30 9L30 10L32 10L32 13L33 13L33 14L32 14L32 15L34 15L34 13L35 13L35 12L38 12L38 11L39 11L39 14L41 14L41 13L40 13L40 10L41 10L41 8L38 8L38 9L40 9L40 10L37 10L37 9L36 9L36 8L33 8L33 6L32 6L32 8L33 8L33 9L30 9L30 8L31 8L31 5L33 5L33 4L30 4L30 5L27 5L27 4ZM17 6L17 10L18 10L18 9L19 9L19 10L21 10L21 9L20 9L20 8L21 8L21 7L20 7L20 8L18 8L18 6ZM3 10L3 12L4 12L4 10ZM33 10L33 11L34 11L34 10ZM36 10L36 11L37 11L37 10ZM33 12L33 13L34 13L34 12ZM13 13L13 14L14 14L14 13ZM17 13L17 14L18 14L18 13ZM29 13L29 14L27 14L27 16L26 16L26 17L27 17L27 18L25 18L25 20L24 20L24 18L23 18L23 17L22 17L22 18L23 18L23 19L20 19L20 18L19 18L19 17L18 17L18 19L17 19L17 20L15 20L15 19L14 19L14 20L13 20L13 19L12 19L12 21L10 21L10 22L13 22L13 23L12 23L12 24L11 24L11 23L10 23L10 25L9 25L9 21L6 21L6 20L7 20L7 19L6 19L6 20L5 20L5 21L4 21L4 24L3 24L3 25L6 25L6 26L8 26L8 25L9 25L9 27L10 27L10 28L8 28L8 27L6 27L6 28L4 28L4 26L3 26L3 28L4 28L4 32L5 32L5 29L6 29L6 30L7 30L7 31L6 31L6 32L7 32L7 31L9 31L9 30L8 30L8 29L12 29L12 28L13 28L13 26L12 26L12 24L13 24L13 25L14 25L14 33L13 33L13 35L10 35L10 38L9 38L9 39L10 39L10 38L11 38L11 37L12 37L12 39L14 39L14 38L15 38L15 37L16 37L16 38L17 38L17 37L16 37L16 36L17 36L17 35L16 35L16 34L15 34L15 31L16 31L16 33L17 33L17 34L21 34L21 36L20 36L20 37L18 37L18 38L21 38L21 39L20 39L20 40L21 40L21 39L22 39L22 40L24 40L24 39L22 39L22 38L21 38L21 37L22 37L22 36L23 36L23 35L24 35L24 36L25 36L25 37L26 37L26 40L27 40L27 38L28 38L28 40L31 40L31 39L33 39L33 38L36 38L36 37L32 37L32 35L31 35L31 34L30 34L30 35L31 35L31 36L29 36L29 35L26 35L26 34L29 34L29 33L26 33L26 32L27 32L27 31L26 31L26 32L25 32L25 30L26 30L26 28L25 28L25 27L24 27L24 25L25 25L25 23L26 23L26 24L28 24L28 25L27 25L27 26L28 26L28 25L29 25L29 24L30 24L30 23L29 23L29 22L31 22L31 25L30 25L30 26L29 26L29 28L31 28L31 29L28 29L28 30L29 30L29 31L28 31L28 32L30 32L30 33L31 33L31 32L30 32L30 31L31 31L31 30L32 30L32 31L33 31L33 32L35 32L35 31L38 31L38 32L37 32L37 33L38 33L38 34L37 34L37 36L39 36L39 35L38 35L38 34L39 34L39 33L38 33L38 32L40 32L40 31L38 31L38 30L39 30L39 26L38 26L38 28L36 28L36 27L37 27L37 26L36 26L36 25L35 25L35 24L36 24L36 23L35 23L35 22L36 22L36 21L35 21L35 19L34 19L34 18L31 18L31 17L29 17L29 16L28 16L28 15L29 15L29 14L30 14L30 13ZM20 16L20 17L21 17L21 16ZM36 16L36 17L37 17L37 16ZM40 16L40 18L39 18L39 19L40 19L40 18L41 18L41 16ZM3 18L3 19L5 19L5 18ZM27 18L27 20L25 20L25 22L27 22L27 23L28 23L28 24L29 24L29 23L28 23L28 22L29 22L29 21L28 21L28 18ZM30 18L30 19L31 19L31 18ZM19 19L19 20L20 20L20 21L18 21L18 23L20 23L20 21L21 21L21 22L23 22L23 21L24 21L24 20L23 20L23 21L22 21L22 20L20 20L20 19ZM32 19L32 21L31 21L31 20L30 20L30 21L31 21L31 22L32 22L32 24L33 24L33 25L31 25L31 26L33 26L33 27L34 27L34 26L35 26L35 27L36 27L36 26L35 26L35 25L34 25L34 23L33 23L33 22L32 22L32 21L34 21L34 22L35 22L35 21L34 21L34 20L33 20L33 19ZM40 20L40 21L41 21L41 20ZM2 21L2 22L1 22L1 23L3 23L3 21ZM5 21L5 22L6 22L6 23L7 23L7 24L6 24L6 25L7 25L7 24L8 24L8 23L7 23L7 22L6 22L6 21ZM14 21L14 23L13 23L13 24L14 24L14 25L16 25L16 26L15 26L15 27L17 27L17 28L19 28L19 27L17 27L17 26L20 26L20 28L21 28L21 29L17 29L17 30L16 30L16 31L17 31L17 32L19 32L19 33L20 33L20 32L19 32L19 30L21 30L21 31L22 31L22 32L23 32L23 33L22 33L22 34L23 34L23 33L24 33L24 30L23 30L23 31L22 31L22 30L21 30L21 29L25 29L25 28L24 28L24 27L23 27L23 28L21 28L21 27L22 27L22 25L21 25L21 24L19 24L19 25L16 25L16 24L14 24L14 23L16 23L16 22L17 22L17 21ZM27 21L27 22L28 22L28 21ZM37 21L37 22L38 22L38 21ZM23 23L23 25L24 25L24 23ZM10 25L10 26L11 26L11 27L12 27L12 26L11 26L11 25ZM33 25L33 26L34 26L34 25ZM1 27L1 28L2 28L2 27ZM27 27L27 28L28 28L28 27ZM31 27L31 28L32 28L32 27ZM6 28L6 29L8 29L8 28ZM15 28L15 29L16 29L16 28ZM33 28L33 29L32 29L32 30L33 30L33 29L34 29L34 28ZM35 28L35 29L36 29L36 30L38 30L38 29L36 29L36 28ZM10 30L10 31L12 31L12 32L13 32L13 31L12 31L12 30ZM17 30L17 31L18 31L18 30ZM34 30L34 31L35 31L35 30ZM8 32L8 33L9 33L9 32ZM10 33L10 34L12 34L12 33ZM33 33L33 36L36 36L36 33ZM14 34L14 35L15 35L15 36L14 36L14 37L15 37L15 36L16 36L16 35L15 35L15 34ZM34 34L34 35L35 35L35 34ZM18 35L18 36L19 36L19 35ZM25 35L25 36L26 36L26 35ZM12 36L12 37L13 37L13 36ZM27 36L27 37L28 37L28 38L29 38L29 37L28 37L28 36ZM23 37L23 38L24 38L24 37ZM30 37L30 38L31 38L31 37ZM37 38L37 39L38 39L38 38ZM0 0L0 7L7 7L7 0ZM1 1L1 6L6 6L6 1ZM2 2L2 5L5 5L5 2ZM34 0L34 7L41 7L41 0ZM35 1L35 6L40 6L40 1ZM36 2L36 5L39 5L39 2ZM0 34L0 41L7 41L7 34ZM1 35L1 40L6 40L6 35ZM2 36L2 39L5 39L5 36Z" fill="#000000"/></g></g></svg>
