<?xml version="1.0" encoding="UTF-8"?>
<svg xmlns="http://www.w3.org/2000/svg" version="1.1" width="200" height="200" viewBox="0 0 200 200"><rect x="0" y="0" width="200" height="200" fill="#ffffff"/><g transform="scale(6.897)"><g transform="translate(0,0)"><path fill-rule="evenodd" d="M9 0L9 1L8 1L8 7L9 7L9 6L10 6L10 8L12 8L12 7L13 7L13 8L15 8L15 9L17 9L17 11L16 11L16 12L18 12L18 13L19 13L19 12L20 12L20 13L21 13L21 12L22 12L22 14L19 14L19 15L17 15L17 13L15 13L15 14L14 14L14 12L15 12L15 11L14 11L14 9L13 9L13 15L10 15L10 16L11 16L11 17L8 17L8 16L9 16L9 13L10 13L10 11L11 11L11 13L12 13L12 11L11 11L11 10L12 10L12 9L11 9L11 10L10 10L10 11L8 11L8 10L9 10L9 8L5 8L5 9L4 9L4 10L3 10L3 8L2 8L2 9L0 9L0 11L1 11L1 10L3 10L3 12L0 12L0 16L2 16L2 17L1 17L1 18L0 18L0 19L3 19L3 17L4 17L4 16L3 16L3 15L5 15L5 16L6 16L6 17L8 17L8 18L9 18L9 19L8 19L8 24L9 24L9 20L11 20L11 23L10 23L10 24L14 24L14 26L13 26L13 25L10 25L10 27L11 27L11 26L12 26L12 27L15 27L15 28L17 28L17 29L19 29L19 28L18 28L18 27L19 27L19 26L20 26L20 27L21 27L21 29L22 29L22 28L24 28L24 29L26 29L26 27L25 27L25 28L24 28L24 26L23 26L23 27L22 27L22 26L21 26L21 25L25 25L25 23L26 23L26 21L27 21L27 23L28 23L28 22L29 22L29 21L27 21L27 20L23 20L23 19L25 19L25 18L28 18L28 19L29 19L29 18L28 18L28 17L29 17L29 16L27 16L27 17L25 17L25 16L22 16L22 15L25 15L25 14L26 14L26 13L27 13L27 15L29 15L29 14L28 14L28 13L29 13L29 12L27 12L27 11L29 11L29 9L28 9L28 8L23 8L23 10L22 10L22 11L21 11L21 9L22 9L22 8L21 8L21 0L19 0L19 1L20 1L20 2L19 2L19 3L20 3L20 5L17 5L17 4L16 4L16 3L18 3L18 2L17 2L17 1L18 1L18 0L17 0L17 1L15 1L15 0ZM13 1L13 3L11 3L11 4L10 4L10 2L9 2L9 4L10 4L10 6L11 6L11 7L12 7L12 4L13 4L13 5L14 5L14 6L13 6L13 7L14 7L14 6L15 6L15 7L16 7L16 6L17 6L17 7L18 7L18 10L19 10L19 11L18 11L18 12L19 12L19 11L20 11L20 8L19 8L19 7L20 7L20 6L19 6L19 7L18 7L18 6L17 6L17 5L16 5L16 6L15 6L15 5L14 5L14 4L13 4L13 3L14 3L14 2L15 2L15 3L16 3L16 2L15 2L15 1ZM5 9L5 10L4 10L4 11L5 11L5 14L7 14L7 13L8 13L8 11L5 11L5 10L8 10L8 9ZM25 9L25 10L24 10L24 11L27 11L27 10L28 10L28 9ZM3 12L3 13L1 13L1 14L2 14L2 15L3 15L3 14L4 14L4 12ZM6 12L6 13L7 13L7 12ZM23 12L23 14L25 14L25 13L24 13L24 12ZM15 14L15 16L16 16L16 14ZM6 15L6 16L7 16L7 15ZM19 15L19 16L20 16L20 17L18 17L18 16L17 16L17 17L15 17L15 18L13 18L13 16L12 16L12 17L11 17L11 18L10 18L10 19L11 19L11 18L13 18L13 20L12 20L12 23L14 23L14 22L13 22L13 21L14 21L14 19L15 19L15 18L17 18L17 17L18 17L18 18L20 18L20 19L18 19L18 20L22 20L22 19L21 19L21 15ZM22 17L22 18L25 18L25 17ZM4 18L4 19L5 19L5 20L6 20L6 21L7 21L7 20L6 20L6 19L7 19L7 18L6 18L6 19L5 19L5 18ZM16 19L16 21L15 21L15 23L16 23L16 24L17 24L17 25L19 25L19 24L20 24L20 23L19 23L19 24L17 24L17 22L18 22L18 21L17 21L17 19ZM0 20L0 21L2 21L2 20ZM3 20L3 21L4 21L4 20ZM19 21L19 22L20 22L20 21ZM21 21L21 24L24 24L24 21ZM22 22L22 23L23 23L23 22ZM26 24L26 26L27 26L27 27L28 27L28 28L27 28L27 29L29 29L29 26L27 26L27 25L29 25L29 24ZM15 25L15 27L18 27L18 26L16 26L16 25ZM8 26L8 27L9 27L9 26ZM10 28L10 29L11 29L11 28ZM0 0L0 7L7 7L7 0ZM1 1L1 6L6 6L6 1ZM2 2L2 5L5 5L5 2ZM22 0L22 7L29 7L29 0ZM23 1L23 6L28 6L28 1ZM24 2L24 5L27 5L27 2ZM0 22L0 29L7 29L7 22ZM1 23L1 28L6 28L6 23ZM2 24L2 27L5 27L5 24Z" fill="#000000"/></g></g></svg>
