<?xml version="1.0" encoding="UTF-8"?>
<svg xmlns="http://www.w3.org/2000/svg" version="1.1" width="200" height="200" viewBox="0 0 200 200"><rect x="0" y="0" width="200" height="200" fill="#ffffff"/><g transform="scale(4.878)"><g transform="translate(0,0)"><path fill-rule="evenodd" d="M8 0L8 3L10 3L10 5L8 5L8 9L7 9L7 8L6 8L6 9L5 9L5 8L2 8L2 9L3 9L3 10L2 10L2 12L1 12L1 11L0 11L0 12L1 12L1 13L0 13L0 14L1 14L1 16L0 16L0 17L1 17L1 16L4 16L4 17L2 17L2 18L1 18L1 19L3 19L3 18L4 18L4 20L3 20L3 21L2 21L2 20L1 20L1 21L2 21L2 22L1 22L1 23L3 23L3 24L2 24L2 26L1 26L1 24L0 24L0 27L1 27L1 28L0 28L0 33L1 33L1 30L2 30L2 27L3 27L3 28L4 28L4 29L3 29L3 31L2 31L2 33L4 33L4 32L3 32L3 31L4 31L4 30L5 30L5 31L7 31L7 32L5 32L5 33L7 33L7 32L8 32L8 34L9 34L9 32L8 32L8 31L9 31L9 30L11 30L11 31L10 31L10 32L11 32L11 33L12 33L12 32L13 32L13 34L14 34L14 35L12 35L12 36L11 36L11 35L10 35L10 36L8 36L8 39L9 39L9 41L12 41L12 40L11 40L11 39L9 39L9 37L10 37L10 38L11 38L11 37L12 37L12 38L14 38L14 37L12 37L12 36L14 36L14 35L15 35L15 39L14 39L14 40L15 40L15 41L16 41L16 40L17 40L17 39L18 39L18 41L19 41L19 40L22 40L22 41L26 41L26 40L28 40L28 41L32 41L32 40L33 40L33 41L34 41L34 40L33 40L33 39L35 39L35 40L36 40L36 39L37 39L37 38L38 38L38 39L39 39L39 40L40 40L40 38L41 38L41 37L39 37L39 36L41 36L41 35L40 35L40 34L41 34L41 33L40 33L40 32L41 32L41 31L40 31L40 30L41 30L41 29L40 29L40 28L41 28L41 27L40 27L40 26L41 26L41 23L40 23L40 26L39 26L39 24L37 24L37 25L36 25L36 23L34 23L34 22L36 22L36 21L39 21L39 20L36 20L36 19L35 19L35 17L36 17L36 18L38 18L38 19L40 19L40 18L41 18L41 16L40 16L40 18L38 18L38 17L39 17L39 16L37 16L37 15L39 15L39 14L41 14L41 13L40 13L40 12L39 12L39 14L37 14L37 13L36 13L36 14L37 14L37 15L36 15L36 16L35 16L35 17L34 17L34 16L33 16L33 15L34 15L34 14L33 14L33 13L34 13L34 12L33 12L33 11L34 11L34 10L35 10L35 9L36 9L36 12L38 12L38 11L40 11L40 10L41 10L41 8L38 8L38 9L40 9L40 10L37 10L37 9L36 9L36 8L32 8L32 7L33 7L33 6L32 6L32 7L31 7L31 5L32 5L32 4L33 4L33 0L30 0L30 2L31 2L31 1L32 1L32 4L31 4L31 3L30 3L30 4L31 4L31 5L30 5L30 8L29 8L29 6L28 6L28 5L27 5L27 6L26 6L26 7L25 7L25 5L26 5L26 4L27 4L27 3L28 3L28 4L29 4L29 1L27 1L27 0L25 0L25 1L24 1L24 0L22 0L22 1L21 1L21 0L18 0L18 1L17 1L17 0L16 0L16 2L12 2L12 1L11 1L11 0L10 0L10 1L9 1L9 0ZM13 0L13 1L15 1L15 0ZM18 1L18 2L16 2L16 3L14 3L14 5L13 5L13 7L14 7L14 6L15 6L15 7L16 7L16 6L17 6L17 7L18 7L18 6L17 6L17 5L18 5L18 4L17 4L17 5L15 5L15 4L16 4L16 3L19 3L19 1ZM20 1L20 5L21 5L21 7L20 7L20 6L19 6L19 8L16 8L16 9L15 9L15 8L13 8L13 9L12 9L12 8L10 8L10 6L9 6L9 8L10 8L10 9L11 9L11 10L10 10L10 11L11 11L11 12L13 12L13 14L14 14L14 12L15 12L15 13L17 13L17 14L18 14L18 13L19 13L19 15L18 15L18 17L17 17L17 16L16 16L16 17L15 17L15 15L13 15L13 16L12 16L12 14L11 14L11 15L9 15L9 16L8 16L8 14L7 14L7 13L9 13L9 14L10 14L10 12L8 12L8 11L9 11L9 9L8 9L8 11L5 11L5 10L3 10L3 12L2 12L2 13L1 13L1 14L2 14L2 15L3 15L3 13L5 13L5 14L7 14L7 15L6 15L6 16L7 16L7 17L6 17L6 18L5 18L5 17L4 17L4 18L5 18L5 20L7 20L7 21L5 21L5 23L4 23L4 24L3 24L3 25L4 25L4 26L3 26L3 27L4 27L4 26L5 26L5 27L6 27L6 28L9 28L9 29L5 29L5 30L9 30L9 29L10 29L10 28L11 28L11 30L12 30L12 28L11 28L11 26L10 26L10 27L6 27L6 26L7 26L7 25L6 25L6 26L5 26L5 23L6 23L6 24L7 24L7 23L6 23L6 22L9 22L9 23L8 23L8 26L9 26L9 23L10 23L10 24L11 24L11 25L13 25L13 24L12 24L12 23L13 23L13 21L12 21L12 20L13 20L13 18L14 18L14 17L15 17L15 18L16 18L16 19L14 19L14 22L15 22L15 24L14 24L14 25L15 25L15 24L16 24L16 25L17 25L17 26L14 26L14 27L13 27L13 26L12 26L12 27L13 27L13 30L14 30L14 31L16 31L16 32L17 32L17 33L14 33L14 34L16 34L16 35L17 35L17 36L16 36L16 38L18 38L18 37L21 37L21 38L19 38L19 39L22 39L22 40L23 40L23 39L24 39L24 40L26 40L26 38L29 38L29 39L28 39L28 40L32 40L32 39L33 39L33 38L36 38L36 37L32 37L32 36L31 36L31 35L30 35L30 33L31 33L31 34L32 34L32 32L35 32L35 31L34 31L34 30L35 30L35 29L37 29L37 32L39 32L39 31L38 31L38 30L39 30L39 26L38 26L38 28L37 28L37 27L35 27L35 29L34 29L34 28L33 28L33 29L32 29L32 27L34 27L34 25L35 25L35 26L36 26L36 25L35 25L35 24L34 24L34 23L32 23L32 22L31 22L31 23L32 23L32 24L31 24L31 25L30 25L30 26L29 26L29 25L28 25L28 24L30 24L30 23L29 23L29 22L30 22L30 21L33 21L33 22L34 22L34 21L36 21L36 20L35 20L35 19L34 19L34 18L31 18L31 17L30 17L30 19L32 19L32 20L29 20L29 16L31 16L31 15L30 15L30 13L28 13L28 14L29 14L29 15L28 15L28 17L26 17L26 19L25 19L25 17L24 17L24 18L23 18L23 17L22 17L22 15L25 15L25 16L27 16L27 13L26 13L26 14L23 14L23 13L24 13L24 12L22 12L22 15L21 15L21 10L22 10L22 9L24 9L24 10L25 10L25 11L26 11L26 12L28 12L28 11L27 11L27 10L28 10L28 9L29 9L29 12L30 12L30 10L31 10L31 11L33 11L33 10L34 10L34 9L32 9L32 8L31 8L31 9L29 9L29 8L28 8L28 6L27 6L27 8L28 8L28 9L26 9L26 10L25 10L25 7L24 7L24 4L26 4L26 3L27 3L27 2L26 2L26 3L24 3L24 2L23 2L23 1L22 1L22 2L21 2L21 1ZM10 2L10 3L11 3L11 5L12 5L12 4L13 4L13 3L12 3L12 2ZM21 3L21 5L22 5L22 3ZM23 3L23 4L24 4L24 3ZM11 6L11 7L12 7L12 6ZM22 6L22 7L21 7L21 8L19 8L19 9L18 9L18 10L17 10L17 11L16 11L16 10L15 10L15 9L13 9L13 10L12 10L12 11L13 11L13 10L15 10L15 11L16 11L16 12L17 12L17 13L18 13L18 11L19 11L19 13L20 13L20 10L21 10L21 9L22 9L22 7L23 7L23 8L24 8L24 7L23 7L23 6ZM0 9L0 10L1 10L1 9ZM6 9L6 10L7 10L7 9ZM31 9L31 10L32 10L32 9ZM4 11L4 12L5 12L5 11ZM6 12L6 13L7 13L7 12ZM31 12L31 14L32 14L32 15L33 15L33 14L32 14L32 13L33 13L33 12ZM4 15L4 16L5 16L5 15ZM19 15L19 17L18 17L18 18L17 18L17 17L16 17L16 18L17 18L17 20L18 20L18 18L19 18L19 21L18 21L18 22L19 22L19 21L20 21L20 20L21 20L21 21L24 21L24 22L25 22L25 21L26 21L26 22L27 22L27 23L26 23L26 24L25 24L25 27L24 27L24 26L23 26L23 24L24 24L24 23L23 23L23 24L21 24L21 25L20 25L20 23L21 23L21 22L20 22L20 23L19 23L19 26L17 26L17 27L18 27L18 28L16 28L16 27L14 27L14 30L16 30L16 31L17 31L17 32L18 32L18 33L17 33L17 35L19 35L19 36L20 36L20 34L21 34L21 35L22 35L22 34L23 34L23 33L20 33L20 32L18 32L18 30L19 30L19 31L21 31L21 32L24 32L24 34L25 34L25 35L24 35L24 38L25 38L25 37L26 37L26 36L27 36L27 37L29 37L29 33L30 33L30 32L29 32L29 31L28 31L28 32L29 32L29 33L28 33L28 34L27 34L27 33L26 33L26 32L24 32L24 31L21 31L21 30L23 30L23 29L24 29L24 30L25 30L25 27L26 27L26 28L27 28L27 29L26 29L26 31L27 31L27 30L29 30L29 29L31 29L31 28L29 28L29 29L28 29L28 27L29 27L29 26L27 26L27 27L26 27L26 24L28 24L28 22L29 22L29 21L28 21L28 20L27 20L27 19L28 19L28 18L27 18L27 19L26 19L26 20L25 20L25 21L24 21L24 20L22 20L22 18L21 18L21 17L20 17L20 15ZM10 16L10 18L11 18L11 19L12 19L12 18L11 18L11 17L12 17L12 16ZM32 16L32 17L33 17L33 16ZM36 16L36 17L37 17L37 16ZM19 17L19 18L20 18L20 19L21 19L21 18L20 18L20 17ZM6 18L6 19L7 19L7 18ZM8 18L8 21L9 21L9 22L10 22L10 23L12 23L12 22L11 22L11 21L9 21L9 18ZM15 20L15 21L16 21L16 20ZM33 20L33 21L34 21L34 20ZM40 20L40 21L41 21L41 20ZM27 21L27 22L28 22L28 21ZM16 22L16 24L17 24L17 25L18 25L18 24L17 24L17 22ZM37 22L37 23L38 23L38 22ZM33 24L33 25L31 25L31 26L33 26L33 25L34 25L34 24ZM20 26L20 28L18 28L18 29L17 29L17 30L18 30L18 29L20 29L20 30L21 30L21 28L24 28L24 27L21 27L21 26ZM15 28L15 29L16 29L16 28ZM33 29L33 30L32 30L32 31L33 31L33 30L34 30L34 29ZM11 31L11 32L12 32L12 31ZM19 33L19 34L20 34L20 33ZM33 33L33 36L36 36L36 33ZM37 33L37 34L38 34L38 35L37 35L37 36L39 36L39 33ZM26 34L26 35L25 35L25 36L26 36L26 35L27 35L27 34ZM34 34L34 35L35 35L35 34ZM10 36L10 37L11 37L11 36ZM21 36L21 37L22 37L22 38L23 38L23 37L22 37L22 36ZM30 36L30 37L31 37L31 38L30 38L30 39L32 39L32 37L31 37L31 36ZM38 37L38 38L39 38L39 37ZM15 39L15 40L16 40L16 39ZM0 0L0 7L7 7L7 0ZM1 1L1 6L6 6L6 1ZM2 2L2 5L5 5L5 2ZM34 0L34 7L41 7L41 0ZM35 1L35 6L40 6L40 1ZM36 2L36 5L39 5L39 2ZM0 34L0 41L7 41L7 34ZM1 35L1 40L6 40L6 35ZM2 36L2 39L5 39L5 36Z" fill="#000000"/></g></g></svg>
