<?xml version="1.0" encoding="UTF-8"?>
<svg xmlns="http://www.w3.org/2000/svg" version="1.1" width="200" height="200" viewBox="0 0 200 200"><rect x="0" y="0" width="200" height="200" fill="#ffffff"/><g transform="scale(6.897)"><g transform="translate(0,0)"><path fill-rule="evenodd" d="M8 0L8 1L9 1L9 2L8 2L8 3L9 3L9 4L8 4L8 5L9 5L9 6L8 6L8 8L9 8L9 6L10 6L10 7L11 7L11 5L12 5L12 4L13 4L13 6L12 6L12 8L14 8L14 7L15 7L15 9L11 9L11 8L10 8L10 10L9 10L9 9L8 9L8 12L6 12L6 11L7 11L7 10L3 10L3 9L1 9L1 10L3 10L3 12L2 12L2 11L0 11L0 12L2 12L2 13L0 13L0 14L2 14L2 13L3 13L3 14L4 14L4 15L2 15L2 16L3 16L3 18L1 18L1 16L0 16L0 21L1 21L1 19L2 19L2 21L8 21L8 22L10 22L10 23L8 23L8 24L10 24L10 29L12 29L12 28L13 28L13 29L16 29L16 28L17 28L17 27L18 27L18 29L28 29L28 28L25 28L25 27L26 27L26 26L25 26L25 22L26 22L26 23L27 23L27 24L26 24L26 25L27 25L27 24L28 24L28 25L29 25L29 24L28 24L28 23L27 23L27 22L28 22L28 21L29 21L29 20L28 20L28 21L25 21L25 20L26 20L26 19L27 19L27 18L28 18L28 19L29 19L29 18L28 18L28 16L29 16L29 15L28 15L28 16L27 16L27 14L28 14L28 13L29 13L29 12L27 12L27 11L28 11L28 10L27 10L27 11L26 11L26 9L27 9L27 8L26 8L26 9L25 9L25 8L24 8L24 9L23 9L23 8L22 8L22 10L24 10L24 9L25 9L25 12L24 12L24 11L20 11L20 10L19 10L19 9L20 9L20 7L21 7L21 5L20 5L20 4L19 4L19 3L18 3L18 4L17 4L17 6L16 6L16 4L13 4L13 3L11 3L11 0ZM14 0L14 1L15 1L15 2L14 2L14 3L16 3L16 1L18 1L18 2L19 2L19 1L20 1L20 2L21 2L21 0L19 0L19 1L18 1L18 0L16 0L16 1L15 1L15 0ZM12 1L12 2L13 2L13 1ZM10 3L10 5L11 5L11 3ZM14 5L14 6L13 6L13 7L14 7L14 6L15 6L15 7L16 7L16 6L15 6L15 5ZM18 5L18 6L17 6L17 7L18 7L18 6L19 6L19 7L20 7L20 6L19 6L19 5ZM5 8L5 9L7 9L7 8ZM17 8L17 9L16 9L16 11L17 11L17 9L19 9L19 8ZM28 8L28 9L29 9L29 8ZM10 10L10 13L9 13L9 12L8 12L8 13L5 13L5 11L4 11L4 12L3 12L3 13L4 13L4 14L7 14L7 15L6 15L6 16L5 16L5 15L4 15L4 16L5 16L5 18L7 18L7 19L6 19L6 20L8 20L8 21L10 21L10 22L11 22L11 23L10 23L10 24L11 24L11 25L13 25L13 26L11 26L11 28L12 28L12 27L13 27L13 26L14 26L14 25L13 25L13 24L15 24L15 27L16 27L16 26L18 26L18 27L19 27L19 28L20 28L20 27L21 27L21 26L23 26L23 27L22 27L22 28L23 28L23 27L25 27L25 26L24 26L24 25L21 25L21 26L20 26L20 27L19 27L19 24L20 24L20 20L22 20L22 19L21 19L21 17L20 17L20 15L21 15L21 14L22 14L22 15L23 15L23 16L22 16L22 18L24 18L24 12L23 12L23 14L22 14L22 12L21 12L21 13L20 13L20 12L19 12L19 11L18 11L18 12L17 12L17 13L16 13L16 12L15 12L15 10L14 10L14 12L11 12L11 11L12 11L12 10ZM18 12L18 13L19 13L19 12ZM11 13L11 15L10 15L10 14L9 14L9 18L8 18L8 20L9 20L9 19L10 19L10 20L13 20L13 21L11 21L11 22L12 22L12 23L14 23L14 22L16 22L16 21L17 21L17 22L18 22L18 21L17 21L17 20L16 20L16 19L15 19L15 18L16 18L16 13L14 13L14 14L13 14L13 17L15 17L15 18L13 18L13 19L10 19L10 17L11 17L11 16L12 16L12 13ZM26 13L26 14L27 14L27 13ZM14 14L14 15L15 15L15 14ZM17 14L17 15L19 15L19 14ZM7 15L7 16L6 16L6 17L7 17L7 16L8 16L8 15ZM25 15L25 16L26 16L26 15ZM18 16L18 17L17 17L17 19L18 19L18 20L19 20L19 19L20 19L20 18L19 18L19 16ZM3 18L3 20L4 20L4 18ZM18 18L18 19L19 19L19 18ZM25 18L25 19L26 19L26 18ZM13 19L13 20L15 20L15 19ZM23 19L23 20L24 20L24 19ZM21 21L21 24L24 24L24 21ZM22 22L22 23L23 23L23 22ZM15 23L15 24L16 24L16 25L18 25L18 23ZM27 26L27 27L28 27L28 26ZM0 0L0 7L7 7L7 0ZM1 1L1 6L6 6L6 1ZM2 2L2 5L5 5L5 2ZM22 0L22 7L29 7L29 0ZM23 1L23 6L28 6L28 1ZM24 2L24 5L27 5L27 2ZM0 22L0 29L7 29L7 22ZM1 23L1 28L6 28L6 23ZM2 24L2 27L5 27L5 24Z" fill="#000000"/></g></g></svg>
