<?xml version="1.0" encoding="UTF-8"?>
<svg xmlns="http://www.w3.org/2000/svg" version="1.1" width="200" height="200" viewBox="0 0 200 200"><rect x="0" y="0" width="200" height="200" fill="#ffffff"/><g transform="scale(4.878)"><g transform="translate(0,0)"><path fill-rule="evenodd" d="M8 0L8 2L9 2L9 0ZM10 0L10 1L11 1L11 2L12 2L12 3L10 3L10 5L9 5L9 3L8 3L8 7L9 7L9 8L10 8L10 10L9 10L9 12L6 12L6 11L8 11L8 10L6 10L6 9L7 9L7 8L6 8L6 9L5 9L5 10L4 10L4 8L3 8L3 10L4 10L4 11L1 11L1 13L0 13L0 14L1 14L1 15L3 15L3 18L2 18L2 20L1 20L1 17L2 17L2 16L1 16L1 17L0 17L0 21L1 21L1 22L0 22L0 23L1 23L1 22L2 22L2 20L4 20L4 21L3 21L3 22L4 22L4 21L5 21L5 24L6 24L6 25L7 25L7 26L6 26L6 27L5 27L5 26L3 26L3 25L2 25L2 24L3 24L3 23L2 23L2 24L1 24L1 25L0 25L0 26L2 26L2 27L0 27L0 28L1 28L1 30L0 30L0 31L1 31L1 30L3 30L3 31L2 31L2 32L3 32L3 33L7 33L7 32L8 32L8 31L7 31L7 30L6 30L6 29L7 29L7 28L8 28L8 30L10 30L10 31L9 31L9 33L8 33L8 34L9 34L9 35L10 35L10 39L11 39L11 40L9 40L9 41L12 41L12 40L13 40L13 41L15 41L15 40L14 40L14 38L15 38L15 37L13 37L13 36L12 36L12 37L11 37L11 35L12 35L12 34L13 34L13 33L12 33L12 34L11 34L11 33L10 33L10 31L11 31L11 30L12 30L12 32L14 32L14 29L13 29L13 28L14 28L14 27L16 27L16 28L15 28L15 29L17 29L17 31L16 31L16 32L15 32L15 33L16 33L16 34L15 34L15 35L14 35L14 36L16 36L16 35L17 35L17 33L18 33L18 35L19 35L19 32L18 32L18 29L19 29L19 30L20 30L20 39L19 39L19 36L18 36L18 37L16 37L16 39L17 39L17 41L18 41L18 40L21 40L21 41L22 41L22 40L21 40L21 38L22 38L22 39L23 39L23 41L24 41L24 39L23 39L23 38L22 38L22 37L23 37L23 35L21 35L21 31L22 31L22 32L24 32L24 33L23 33L23 34L24 34L24 36L25 36L25 37L24 37L24 38L25 38L25 37L26 37L26 38L27 38L27 37L26 37L26 36L27 36L27 34L26 34L26 33L27 33L27 32L28 32L28 35L29 35L29 36L30 36L30 34L29 34L29 32L30 32L30 31L31 31L31 34L32 34L32 38L33 38L33 39L31 39L31 38L30 38L30 37L28 37L28 39L29 39L29 40L28 40L28 41L31 41L31 40L32 40L32 41L33 41L33 39L34 39L34 38L36 38L36 40L37 40L37 41L40 41L40 39L41 39L41 38L40 38L40 37L41 37L41 36L39 36L39 34L41 34L41 32L40 32L40 33L39 33L39 32L38 32L38 31L37 31L37 32L35 32L35 31L34 31L34 30L32 30L32 29L33 29L33 26L34 26L34 27L38 27L38 26L39 26L39 25L40 25L40 24L41 24L41 23L40 23L40 22L39 22L39 23L38 23L38 21L40 21L40 20L41 20L41 16L39 16L39 17L37 17L37 18L39 18L39 17L40 17L40 20L37 20L37 19L36 19L36 21L35 21L35 19L34 19L34 18L35 18L35 17L36 17L36 15L37 15L37 16L38 16L38 15L37 15L37 14L36 14L36 13L34 13L34 12L35 12L35 10L36 10L36 11L37 11L37 10L38 10L38 8L35 8L35 9L34 9L34 10L33 10L33 9L32 9L32 10L31 10L31 8L32 8L32 7L33 7L33 6L32 6L32 5L31 5L31 4L32 4L32 2L33 2L33 1L32 1L32 0L27 0L27 2L26 2L26 3L25 3L25 2L24 2L24 1L25 1L25 0L24 0L24 1L22 1L22 0L20 0L20 2L21 2L21 3L20 3L20 8L21 8L21 11L20 11L20 10L19 10L19 12L18 12L18 13L19 13L19 17L18 17L18 19L19 19L19 20L17 20L17 21L16 21L16 22L18 22L18 24L16 24L16 26L13 26L13 25L14 25L14 24L15 24L15 22L14 22L14 21L13 21L13 22L12 22L12 20L13 20L13 19L14 19L14 17L16 17L16 16L15 16L15 15L14 15L14 17L13 17L13 16L11 16L11 17L10 17L10 16L9 16L9 14L10 14L10 15L12 15L12 14L10 14L10 13L9 13L9 12L11 12L11 13L12 13L12 12L11 12L11 11L13 11L13 10L12 10L12 7L13 7L13 9L14 9L14 10L16 10L16 12L15 12L15 14L16 14L16 15L17 15L17 16L18 16L18 14L16 14L16 13L17 13L17 11L18 11L18 9L17 9L17 10L16 10L16 9L14 9L14 7L15 7L15 6L16 6L16 7L17 7L17 6L18 6L18 7L19 7L19 6L18 6L18 5L19 5L19 4L16 4L16 3L15 3L15 1L17 1L17 0L15 0L15 1L14 1L14 0L12 0L12 1L11 1L11 0ZM18 0L18 2L17 2L17 3L18 3L18 2L19 2L19 0ZM13 1L13 2L14 2L14 1ZM21 1L21 2L22 2L22 1ZM28 1L28 2L27 2L27 3L26 3L26 5L27 5L27 4L28 4L28 5L29 5L29 7L28 7L28 6L27 6L27 8L25 8L25 7L26 7L26 6L25 6L25 7L24 7L24 5L23 5L23 3L22 3L22 5L23 5L23 7L22 7L22 6L21 6L21 8L23 8L23 9L22 9L22 11L21 11L21 12L20 12L20 13L22 13L22 14L24 14L24 15L26 15L26 14L24 14L24 13L25 13L25 12L26 12L26 13L28 13L28 14L29 14L29 15L30 15L30 16L31 16L31 15L32 15L32 16L33 16L33 17L31 17L31 19L32 19L32 18L33 18L33 17L35 17L35 15L36 15L36 14L35 14L35 15L34 15L34 14L33 14L33 11L32 11L32 12L31 12L31 13L30 13L30 14L29 14L29 13L28 13L28 12L30 12L30 10L28 10L28 8L29 8L29 9L30 9L30 8L31 8L31 7L32 7L32 6L31 6L31 7L30 7L30 4L28 4L28 3L30 3L30 1ZM31 1L31 2L32 2L32 1ZM12 3L12 5L10 5L10 6L9 6L9 7L10 7L10 8L11 8L11 7L12 7L12 5L13 5L13 7L14 7L14 6L15 6L15 3ZM13 4L13 5L14 5L14 4ZM16 5L16 6L17 6L17 5ZM10 6L10 7L11 7L11 6ZM23 7L23 8L24 8L24 7ZM29 7L29 8L30 8L30 7ZM39 8L39 9L40 9L40 10L41 10L41 8ZM0 9L0 10L2 10L2 9ZM23 9L23 12L22 12L22 13L24 13L24 12L25 12L25 9ZM26 9L26 10L27 10L27 9ZM36 9L36 10L37 10L37 9ZM5 10L5 11L4 11L4 13L3 13L3 12L2 12L2 13L1 13L1 14L3 14L3 15L4 15L4 14L5 14L5 11L6 11L6 10ZM10 10L10 11L11 11L11 10ZM27 11L27 12L28 12L28 11ZM38 11L38 13L39 13L39 15L41 15L41 14L40 14L40 13L41 13L41 11ZM6 13L6 14L7 14L7 15L6 15L6 16L5 16L5 17L4 17L4 18L7 18L7 17L6 17L6 16L8 16L8 18L10 18L10 17L9 17L9 16L8 16L8 14L9 14L9 13L8 13L8 14L7 14L7 13ZM13 13L13 14L14 14L14 13ZM32 14L32 15L33 15L33 14ZM21 15L21 16L20 16L20 17L19 17L19 18L20 18L20 17L21 17L21 18L22 18L22 19L23 19L23 21L24 21L24 22L22 22L22 21L21 21L21 22L19 22L19 21L20 21L20 20L21 20L21 19L20 19L20 20L19 20L19 21L18 21L18 22L19 22L19 23L20 23L20 24L19 24L19 25L17 25L17 26L16 26L16 27L17 27L17 29L18 29L18 28L19 28L19 29L20 29L20 28L19 28L19 26L20 26L20 27L21 27L21 28L22 28L22 29L21 29L21 30L22 30L22 29L23 29L23 30L24 30L24 31L25 31L25 32L26 32L26 31L29 31L29 30L31 30L31 28L30 28L30 29L28 29L28 28L29 28L29 27L28 27L28 25L29 25L29 26L30 26L30 27L32 27L32 26L33 26L33 24L36 24L36 26L37 26L37 25L38 25L38 24L37 24L37 23L34 23L34 19L33 19L33 20L31 20L31 22L32 22L32 23L33 23L33 24L30 24L30 21L29 21L29 19L30 19L30 17L29 17L29 16L28 16L28 15L27 15L27 16L26 16L26 17L27 17L27 18L25 18L25 17L23 17L23 16L22 16L22 15ZM27 16L27 17L28 17L28 16ZM11 17L11 19L12 19L12 17ZM15 18L15 20L16 20L16 19L17 19L17 18ZM23 18L23 19L25 19L25 18ZM28 18L28 19L26 19L26 20L24 20L24 21L26 21L26 22L25 22L25 24L26 24L26 25L24 25L24 24L23 24L23 25L24 25L24 27L25 27L25 28L23 28L23 27L22 27L22 28L23 28L23 29L24 29L24 30L25 30L25 31L26 31L26 30L28 30L28 29L27 29L27 28L28 28L28 27L27 27L27 26L26 26L26 25L27 25L27 24L28 24L28 23L29 23L29 22L28 22L28 23L27 23L27 21L26 21L26 20L28 20L28 19L29 19L29 18ZM4 19L4 20L7 20L7 19ZM9 19L9 20L8 20L8 22L7 22L7 21L6 21L6 22L7 22L7 23L6 23L6 24L8 24L8 25L9 25L9 26L7 26L7 27L6 27L6 28L7 28L7 27L9 27L9 26L11 26L11 27L10 27L10 28L9 28L9 29L12 29L12 28L11 28L11 27L13 27L13 26L11 26L11 25L12 25L12 24L13 24L13 23L14 23L14 22L13 22L13 23L12 23L12 22L10 22L10 23L9 23L9 21L11 21L11 20L10 20L10 19ZM32 21L32 22L33 22L33 21ZM36 21L36 22L37 22L37 21ZM21 22L21 23L22 23L22 22ZM8 23L8 24L9 24L9 23ZM11 23L11 24L12 24L12 23ZM26 23L26 24L27 24L27 23ZM29 24L29 25L30 25L30 24ZM21 25L21 26L22 26L22 25ZM31 25L31 26L32 26L32 25ZM34 25L34 26L35 26L35 25ZM17 26L17 27L18 27L18 26ZM40 26L40 27L41 27L41 26ZM2 27L2 28L3 28L3 27ZM25 28L25 30L26 30L26 28ZM35 28L35 29L36 29L36 28ZM37 28L37 29L38 29L38 30L40 30L40 31L41 31L41 28L40 28L40 29L39 29L39 28ZM3 29L3 30L5 30L5 29ZM4 31L4 32L5 32L5 31ZM6 31L6 32L7 32L7 31ZM33 31L33 32L34 32L34 31ZM0 32L0 33L1 33L1 32ZM37 32L37 34L39 34L39 33L38 33L38 32ZM9 33L9 34L10 34L10 35L11 35L11 34L10 34L10 33ZM24 33L24 34L25 34L25 33ZM33 33L33 36L36 36L36 33ZM34 34L34 35L35 35L35 34ZM37 35L37 37L36 37L36 38L37 38L37 40L38 40L38 38L37 38L37 37L39 37L39 36L38 36L38 35ZM8 37L8 38L9 38L9 37ZM12 37L12 39L13 39L13 37ZM17 38L17 39L18 39L18 38ZM39 38L39 39L40 39L40 38ZM0 0L0 7L7 7L7 0ZM1 1L1 6L6 6L6 1ZM2 2L2 5L5 5L5 2ZM34 0L34 7L41 7L41 0ZM35 1L35 6L40 6L40 1ZM36 2L36 5L39 5L39 2ZM0 34L0 41L7 41L7 34ZM1 35L1 40L6 40L6 35ZM2 36L2 39L5 39L5 36Z" fill="#000000"/></g></g></svg>
