<?xml version="1.0" encoding="UTF-8"?>
<svg xmlns="http://www.w3.org/2000/svg" version="1.1" width="200" height="200" viewBox="0 0 200 200"><rect x="0" y="0" width="200" height="200" fill="#ffffff"/><g transform="scale(4.878)"><g transform="translate(0,0)"><path fill-rule="evenodd" d="M8 0L8 3L9 3L9 5L8 5L8 9L7 9L7 8L6 8L6 9L7 9L7 10L4 10L4 9L5 9L5 8L2 8L2 12L3 12L3 10L4 10L4 11L7 11L7 12L6 12L6 13L7 13L7 14L6 14L6 15L7 15L7 16L5 16L5 17L3 17L3 16L2 16L2 17L3 17L3 18L1 18L1 16L0 16L0 18L1 18L1 19L0 19L0 20L1 20L1 19L3 19L3 20L2 20L2 21L3 21L3 20L4 20L4 21L5 21L5 20L6 20L6 21L8 21L8 22L6 22L6 23L5 23L5 22L2 22L2 23L5 23L5 24L2 24L2 25L5 25L5 27L3 27L3 26L1 26L1 25L0 25L0 26L1 26L1 28L2 28L2 29L3 29L3 30L2 30L2 31L3 31L3 32L5 32L5 31L7 31L7 32L6 32L6 33L8 33L8 34L9 34L9 33L10 33L10 34L11 34L11 33L15 33L15 34L16 34L16 33L15 33L15 32L17 32L17 34L18 34L18 35L17 35L17 36L16 36L16 35L14 35L14 37L13 37L13 38L12 38L12 36L10 36L10 35L9 35L9 36L8 36L8 39L10 39L10 41L13 41L13 40L14 40L14 41L16 41L16 40L14 40L14 39L16 39L16 38L17 38L17 41L22 41L22 39L21 39L21 40L20 40L20 37L21 37L21 38L23 38L23 37L24 37L24 39L23 39L23 41L26 41L26 40L25 40L25 39L26 39L26 38L27 38L27 40L28 40L28 38L27 38L27 37L29 37L29 36L31 36L31 35L32 35L32 37L33 37L33 38L32 38L32 39L31 39L31 37L30 37L30 38L29 38L29 39L31 39L31 40L33 40L33 41L34 41L34 40L33 40L33 38L34 38L34 39L35 39L35 40L36 40L36 39L37 39L37 40L40 40L40 38L41 38L41 37L39 37L39 36L41 36L41 35L40 35L40 34L41 34L41 33L39 33L39 32L33 32L33 31L32 31L32 30L33 30L33 29L34 29L34 28L33 28L33 29L32 29L32 28L28 28L28 27L29 27L29 26L33 26L33 27L34 27L34 26L36 26L36 27L35 27L35 29L36 29L36 31L37 31L37 30L38 30L38 31L40 31L40 32L41 32L41 31L40 31L40 30L41 30L41 28L40 28L40 26L41 26L41 23L39 23L39 22L38 22L38 23L39 23L39 24L40 24L40 26L39 26L39 25L34 25L34 24L35 24L35 23L36 23L36 24L37 24L37 20L38 20L38 21L39 21L39 20L38 20L38 18L41 18L41 16L40 16L40 17L39 17L39 16L37 16L37 13L36 13L36 16L35 16L35 17L34 17L34 16L32 16L32 17L30 17L30 16L31 16L31 11L30 11L30 12L29 12L29 9L31 9L31 10L32 10L32 11L33 11L33 12L32 12L32 13L33 13L33 14L32 14L32 15L34 15L34 13L35 13L35 12L38 12L38 11L40 11L40 10L41 10L41 8L38 8L38 9L40 9L40 10L37 10L37 9L36 9L36 8L32 8L32 9L31 9L31 8L29 8L29 6L28 6L28 5L27 5L27 4L26 4L26 7L25 7L25 6L24 6L24 5L25 5L25 4L24 4L24 3L25 3L25 0L19 0L19 1L20 1L20 2L16 2L16 1L17 1L17 0L16 0L16 1L13 1L13 0L11 0L11 1L10 1L10 0ZM26 0L26 1L27 1L27 2L26 2L26 3L28 3L28 4L29 4L29 5L30 5L30 7L31 7L31 5L32 5L32 7L33 7L33 5L32 5L32 4L33 4L33 3L32 3L32 2L33 2L33 0L29 0L29 1L27 1L27 0ZM9 1L9 3L10 3L10 5L9 5L9 7L10 7L10 8L9 8L9 9L10 9L10 8L11 8L11 7L12 7L12 9L11 9L11 10L10 10L10 11L8 11L8 10L7 10L7 11L8 11L8 12L9 12L9 13L8 13L8 16L7 16L7 17L6 17L6 18L3 18L3 19L4 19L4 20L5 20L5 19L6 19L6 20L8 20L8 19L9 19L9 18L11 18L11 19L12 19L12 20L14 20L14 21L13 21L13 22L12 22L12 21L10 21L10 22L9 22L9 23L6 23L6 24L5 24L5 25L6 25L6 26L7 26L7 27L5 27L5 29L4 29L4 28L3 28L3 29L4 29L4 30L3 30L3 31L4 31L4 30L5 30L5 29L6 29L6 30L7 30L7 31L11 31L11 32L12 32L12 30L13 30L13 32L15 32L15 30L13 30L13 29L14 29L14 28L16 28L16 29L19 29L19 27L20 27L20 28L21 28L21 29L20 29L20 31L19 31L19 33L18 33L18 34L19 34L19 35L20 35L20 34L21 34L21 33L20 33L20 32L21 32L21 29L22 29L22 27L23 27L23 28L24 28L24 29L25 29L25 28L24 28L24 27L27 27L27 26L28 26L28 25L29 25L29 24L30 24L30 25L33 25L33 26L34 26L34 25L33 25L33 24L34 24L34 23L35 23L35 22L36 22L36 21L35 21L35 19L36 19L36 20L37 20L37 18L38 18L38 17L37 17L37 16L36 16L36 17L35 17L35 19L34 19L34 18L33 18L33 17L32 17L32 18L31 18L31 19L30 19L30 17L29 17L29 16L30 16L30 15L29 15L29 14L30 14L30 13L29 13L29 12L28 12L28 13L29 13L29 14L27 14L27 13L26 13L26 14L25 14L25 13L24 13L24 11L23 11L23 10L21 10L21 8L20 8L20 6L19 6L19 7L18 7L18 6L17 6L17 5L19 5L19 4L18 4L18 3L16 3L16 2L13 2L13 1L12 1L12 3L14 3L14 6L13 6L13 5L11 5L11 2L10 2L10 1ZM30 1L30 2L32 2L32 1ZM20 2L20 5L21 5L21 7L22 7L22 6L23 6L23 9L24 9L24 10L26 10L26 11L27 11L27 10L28 10L28 9L29 9L29 8L28 8L28 9L26 9L26 8L24 8L24 6L23 6L23 5L21 5L21 4L22 4L22 3L21 3L21 2ZM23 2L23 3L24 3L24 2ZM29 3L29 4L32 4L32 3ZM15 4L15 6L14 6L14 7L15 7L15 8L13 8L13 10L11 10L11 11L10 11L10 12L12 12L12 11L15 11L15 8L17 8L17 6L16 6L16 4ZM10 6L10 7L11 7L11 6ZM12 6L12 7L13 7L13 6ZM15 6L15 7L16 7L16 6ZM27 6L27 7L28 7L28 6ZM18 8L18 9L17 9L17 10L18 10L18 11L17 11L17 12L16 12L16 14L18 14L18 15L17 15L17 20L16 20L16 19L15 19L15 18L14 18L14 17L13 17L13 16L15 16L15 13L14 13L14 12L13 12L13 13L14 13L14 15L13 15L13 16L12 16L12 13L11 13L11 15L10 15L10 13L9 13L9 15L10 15L10 16L8 16L8 17L7 17L7 18L6 18L6 19L8 19L8 17L10 17L10 16L11 16L11 18L12 18L12 17L13 17L13 19L15 19L15 21L14 21L14 22L15 22L15 23L16 23L16 24L17 24L17 23L20 23L20 22L21 22L21 24L19 24L19 25L18 25L18 27L19 27L19 26L20 26L20 27L22 27L22 26L23 26L23 25L24 25L24 26L25 26L25 25L26 25L26 24L27 24L27 25L28 25L28 24L27 24L27 23L28 23L28 22L30 22L30 23L31 23L31 24L32 24L32 23L31 23L31 22L33 22L33 23L34 23L34 22L35 22L35 21L34 21L34 20L33 20L33 21L31 21L31 20L30 20L30 21L28 21L28 20L29 20L29 18L26 18L26 17L27 17L27 16L25 16L25 18L26 18L26 19L27 19L27 20L25 20L25 23L24 23L24 24L23 24L23 23L22 23L22 22L24 22L24 21L23 21L23 20L24 20L24 19L23 19L23 16L24 16L24 15L23 15L23 14L22 14L22 13L23 13L23 11L21 11L21 10L20 10L20 11L21 11L21 12L20 12L20 13L19 13L19 9L20 9L20 8ZM32 9L32 10L33 10L33 11L34 11L34 10L33 10L33 9ZM0 10L0 11L1 11L1 10ZM21 12L21 13L20 13L20 14L21 14L21 13L22 13L22 12ZM33 12L33 13L34 13L34 12ZM39 12L39 13L40 13L40 14L38 14L38 15L40 15L40 14L41 14L41 12ZM0 13L0 15L2 15L2 14L1 14L1 13ZM4 13L4 15L5 15L5 13ZM18 13L18 14L19 14L19 13ZM18 15L18 16L19 16L19 15ZM20 15L20 16L23 16L23 15ZM28 15L28 16L29 16L29 15ZM19 17L19 18L18 18L18 20L17 20L17 21L18 21L18 22L20 22L20 21L21 21L21 22L22 22L22 20L23 20L23 19L22 19L22 20L21 20L21 18L20 18L20 17ZM36 17L36 18L37 18L37 17ZM19 18L19 19L20 19L20 18ZM40 20L40 21L41 21L41 20ZM0 21L0 23L1 23L1 21ZM15 21L15 22L16 22L16 21ZM26 21L26 22L28 22L28 21ZM30 21L30 22L31 22L31 21ZM33 21L33 22L34 22L34 21ZM11 22L11 23L12 23L12 22ZM13 23L13 24L12 24L12 25L9 25L9 27L7 27L7 28L6 28L6 29L7 29L7 30L10 30L10 29L9 29L9 27L10 27L10 28L11 28L11 26L12 26L12 28L13 28L13 26L12 26L12 25L14 25L14 27L15 27L15 26L16 26L16 27L17 27L17 26L16 26L16 25L15 25L15 24L14 24L14 23ZM25 23L25 24L26 24L26 23ZM6 24L6 25L8 25L8 24ZM20 25L20 26L22 26L22 25ZM38 26L38 28L36 28L36 29L38 29L38 30L39 30L39 26ZM7 28L7 29L8 29L8 28ZM0 29L0 33L1 33L1 29ZM11 29L11 30L12 30L12 29ZM28 29L28 30L29 30L29 31L28 31L28 33L27 33L27 34L28 34L28 33L29 33L29 32L31 32L31 30L32 30L32 29ZM16 30L16 31L17 31L17 32L18 32L18 30ZM22 30L22 31L23 31L23 30ZM34 30L34 31L35 31L35 30ZM26 31L26 32L24 32L24 33L23 33L23 32L22 32L22 33L23 33L23 34L24 34L24 33L26 33L26 32L27 32L27 31ZM19 33L19 34L20 34L20 33ZM30 33L30 35L31 35L31 33ZM33 33L33 36L36 36L36 33ZM38 33L38 34L37 34L37 35L38 35L38 36L37 36L37 37L38 37L38 36L39 36L39 35L38 35L38 34L39 34L39 33ZM12 34L12 35L13 35L13 34ZM34 34L34 35L35 35L35 34ZM21 35L21 37L23 37L23 36L25 36L25 35ZM26 35L26 36L27 36L27 35ZM28 35L28 36L29 36L29 35ZM17 36L17 38L18 38L18 40L19 40L19 37L20 37L20 36ZM10 37L10 39L11 39L11 40L13 40L13 39L11 39L11 37ZM34 37L34 38L36 38L36 37ZM37 38L37 39L38 39L38 38ZM29 40L29 41L30 41L30 40ZM0 0L0 7L7 7L7 0ZM1 1L1 6L6 6L6 1ZM2 2L2 5L5 5L5 2ZM34 0L34 7L41 7L41 0ZM35 1L35 6L40 6L40 1ZM36 2L36 5L39 5L39 2ZM0 34L0 41L7 41L7 34ZM1 35L1 40L6 40L6 35ZM2 36L2 39L5 39L5 36Z" fill="#000000"/></g></g></svg>
