<?xml version="1.0" encoding="UTF-8"?>
<svg xmlns="http://www.w3.org/2000/svg" version="1.1" width="200" height="200" viewBox="0 0 200 200"><rect x="0" y="0" width="200" height="200" fill="#ffffff"/><g transform="scale(6.897)"><g transform="translate(0,0)"><path fill-rule="evenodd" d="M8 0L8 1L9 1L9 2L8 2L8 3L9 3L9 4L8 4L8 5L9 5L9 6L8 6L8 8L9 8L9 9L8 9L8 10L9 10L9 14L10 14L10 15L11 15L11 16L10 16L10 17L8 17L8 18L5 18L5 17L3 17L3 18L1 18L1 17L2 17L2 16L5 16L5 15L7 15L7 16L6 16L6 17L7 17L7 16L8 16L8 15L7 15L7 14L4 14L4 13L3 13L3 12L4 12L4 11L5 11L5 13L7 13L7 12L8 12L8 11L7 11L7 10L6 10L6 9L7 9L7 8L5 8L5 10L4 10L4 9L2 9L2 11L0 11L0 12L2 12L2 13L0 13L0 15L1 15L1 16L0 16L0 21L1 21L1 19L2 19L2 20L3 20L3 21L8 21L8 22L9 22L9 23L8 23L8 24L9 24L9 25L10 25L10 29L11 29L11 25L10 25L10 24L11 24L11 23L10 23L10 22L9 22L9 21L8 21L8 19L10 19L10 20L11 20L11 22L12 22L12 23L13 23L13 25L12 25L12 27L13 27L13 29L16 29L16 27L15 27L15 24L16 24L16 25L17 25L17 24L18 24L18 23L15 23L15 22L16 22L16 21L17 21L17 19L18 19L18 20L19 20L19 19L20 19L20 18L19 18L19 19L18 19L18 17L17 17L17 18L15 18L15 17L16 17L16 13L17 13L17 12L18 12L18 13L19 13L19 12L20 12L20 13L21 13L21 12L22 12L22 14L21 14L21 15L20 15L20 17L21 17L21 19L22 19L22 20L20 20L20 24L19 24L19 27L18 27L18 26L17 26L17 27L18 27L18 29L26 29L26 28L27 28L27 29L28 29L28 28L27 28L27 27L28 27L28 26L27 26L27 27L26 27L26 28L25 28L25 27L23 27L23 26L21 26L21 25L24 25L24 26L25 26L25 22L26 22L26 23L27 23L27 24L26 24L26 25L27 25L27 24L28 24L28 25L29 25L29 24L28 24L28 23L27 23L27 22L28 22L28 21L29 21L29 20L28 20L28 21L25 21L25 20L26 20L26 19L27 19L27 18L28 18L28 19L29 19L29 18L28 18L28 16L29 16L29 15L28 15L28 13L29 13L29 12L27 12L27 11L28 11L28 10L27 10L27 11L26 11L26 9L27 9L27 8L26 8L26 9L25 9L25 8L24 8L24 9L23 9L23 8L22 8L22 10L24 10L24 9L25 9L25 12L24 12L24 11L20 11L20 10L19 10L19 9L20 9L20 7L21 7L21 5L20 5L20 4L19 4L19 3L18 3L18 4L17 4L17 6L16 6L16 3L17 3L17 1L18 1L18 2L19 2L19 1L20 1L20 2L21 2L21 0L19 0L19 1L18 1L18 0L17 0L17 1L16 1L16 0L15 0L15 2L14 2L14 3L15 3L15 4L13 4L13 2L11 2L11 1L10 1L10 0ZM10 3L10 4L9 4L9 5L11 5L11 7L10 7L10 6L9 6L9 8L11 8L11 9L13 9L13 8L14 8L14 5L13 5L13 4L12 4L12 3ZM11 4L11 5L12 5L12 4ZM18 5L18 6L17 6L17 7L18 7L18 6L19 6L19 7L20 7L20 6L19 6L19 5ZM12 6L12 8L13 8L13 6ZM15 6L15 7L16 7L16 6ZM16 8L16 9L19 9L19 8ZM28 8L28 9L29 9L29 8ZM9 9L9 10L10 10L10 14L11 14L11 13L12 13L12 16L11 16L11 17L13 17L13 18L14 18L14 15L15 15L15 14L14 14L14 13L15 13L15 12L17 12L17 10L16 10L16 11L15 11L15 9L14 9L14 12L12 12L12 11L13 11L13 10L12 10L12 11L11 11L11 10L10 10L10 9ZM2 11L2 12L3 12L3 11ZM6 11L6 12L7 12L7 11ZM18 11L18 12L19 12L19 11ZM23 12L23 14L22 14L22 15L23 15L23 16L22 16L22 18L24 18L24 12ZM2 13L2 14L1 14L1 15L4 15L4 14L3 14L3 13ZM26 13L26 14L27 14L27 13ZM17 14L17 15L18 15L18 16L19 16L19 15L18 15L18 14ZM25 15L25 16L26 16L26 15ZM10 18L10 19L11 19L11 18ZM25 18L25 19L23 19L23 20L25 20L25 19L26 19L26 18ZM6 19L6 20L7 20L7 19ZM13 19L13 20L12 20L12 21L13 21L13 22L14 22L14 21L13 21L13 20L15 20L15 21L16 21L16 20L15 20L15 19ZM21 21L21 24L24 24L24 21ZM22 22L22 23L23 23L23 22ZM9 23L9 24L10 24L10 23ZM13 25L13 26L14 26L14 25ZM20 26L20 27L19 27L19 28L20 28L20 27L21 27L21 26ZM22 27L22 28L23 28L23 27ZM0 0L0 7L7 7L7 0ZM1 1L1 6L6 6L6 1ZM2 2L2 5L5 5L5 2ZM22 0L22 7L29 7L29 0ZM23 1L23 6L28 6L28 1ZM24 2L24 5L27 5L27 2ZM0 22L0 29L7 29L7 22ZM1 23L1 28L6 28L6 23ZM2 24L2 27L5 27L5 24Z" fill="#000000"/></g></g></svg>
