<?xml version="1.0" encoding="UTF-8"?>
<svg xmlns="http://www.w3.org/2000/svg" version="1.1" width="200" height="200" viewBox="0 0 200 200"><rect x="0" y="0" width="200" height="200" fill="#ffffff"/><g transform="scale(4.878)"><g transform="translate(0,0)"><path fill-rule="evenodd" d="M11 0L11 1L9 1L9 2L10 2L10 4L8 4L8 5L9 5L9 6L8 6L8 8L6 8L6 9L4 9L4 8L2 8L2 9L4 9L4 10L1 10L1 9L0 9L0 11L1 11L1 12L0 12L0 14L1 14L1 15L2 15L2 14L1 14L1 12L3 12L3 14L5 14L5 15L7 15L7 16L6 16L6 17L5 17L5 16L4 16L4 17L5 17L5 18L6 18L6 19L7 19L7 20L5 20L5 21L4 21L4 18L3 18L3 17L2 17L2 16L1 16L1 17L0 17L0 18L1 18L1 19L0 19L0 21L1 21L1 22L0 22L0 23L1 23L1 24L0 24L0 28L1 28L1 29L2 29L2 28L3 28L3 25L4 25L4 26L5 26L5 27L7 27L7 26L6 26L6 25L8 25L8 28L9 28L9 29L8 29L8 30L6 30L6 29L7 29L7 28L4 28L4 29L3 29L3 30L2 30L2 31L4 31L4 29L5 29L5 31L7 31L7 32L6 32L6 33L7 33L7 32L8 32L8 30L9 30L9 29L10 29L10 33L8 33L8 35L9 35L9 36L12 36L12 37L11 37L11 39L10 39L10 37L8 37L8 39L9 39L9 41L10 41L10 40L11 40L11 41L12 41L12 40L14 40L14 41L16 41L16 40L17 40L17 41L18 41L18 39L17 39L17 38L18 38L18 37L17 37L17 38L13 38L13 39L12 39L12 37L13 37L13 36L12 36L12 35L13 35L13 34L14 34L14 33L15 33L15 35L14 35L14 36L15 36L15 37L16 37L16 36L15 36L15 35L16 35L16 33L17 33L17 34L18 34L18 35L17 35L17 36L19 36L19 38L20 38L20 40L19 40L19 41L22 41L22 40L23 40L23 41L24 41L24 40L27 40L27 41L28 41L28 39L27 39L27 38L29 38L29 39L30 39L30 38L31 38L31 40L30 40L30 41L31 41L31 40L32 40L32 41L33 41L33 39L32 39L32 38L34 38L34 37L35 37L35 41L37 41L37 40L36 40L36 37L38 37L38 38L39 38L39 37L40 37L40 39L39 39L39 40L38 40L38 41L40 41L40 39L41 39L41 37L40 37L40 36L38 36L38 35L39 35L39 34L41 34L41 32L40 32L40 30L39 30L39 28L41 28L41 24L40 24L40 22L38 22L38 23L37 23L37 22L36 22L36 21L35 21L35 20L34 20L34 19L35 19L35 18L34 18L34 19L33 19L33 18L32 18L32 21L31 21L31 20L30 20L30 21L29 21L29 23L26 23L26 24L24 24L24 26L21 26L21 25L22 25L22 22L23 22L23 23L24 23L24 21L25 21L25 20L26 20L26 22L27 22L27 20L26 20L26 19L25 19L25 20L24 20L24 21L21 21L21 20L20 20L20 21L21 21L21 22L20 22L20 25L19 25L19 26L18 26L18 25L15 25L15 24L18 24L18 23L16 23L16 22L17 22L17 21L18 21L18 22L19 22L19 21L18 21L18 20L19 20L19 18L18 18L18 19L17 19L17 20L15 20L15 21L16 21L16 22L12 22L12 21L13 21L13 20L14 20L14 19L13 19L13 18L14 18L14 17L13 17L13 18L12 18L12 17L11 17L11 18L10 18L10 19L11 19L11 18L12 18L12 21L11 21L11 20L8 20L8 18L9 18L9 16L10 16L10 15L7 15L7 14L5 14L5 13L8 13L8 12L9 12L9 14L10 14L10 13L11 13L11 12L12 12L12 10L11 10L11 11L10 11L10 10L9 10L9 11L8 11L8 12L6 12L6 11L7 11L7 10L6 10L6 9L9 9L9 8L10 8L10 7L11 7L11 8L12 8L12 9L13 9L13 8L12 8L12 7L13 7L13 6L14 6L14 7L15 7L15 9L16 9L16 10L18 10L18 12L17 12L17 11L16 11L16 13L13 13L13 14L14 14L14 15L11 15L11 16L15 16L15 17L18 17L18 16L17 16L17 15L18 15L18 14L19 14L19 13L20 13L20 12L19 12L19 8L17 8L17 6L18 6L18 7L19 7L19 6L20 6L20 8L21 8L21 6L22 6L22 7L23 7L23 6L22 6L22 4L23 4L23 5L25 5L25 6L24 6L24 7L25 7L25 8L29 8L29 9L30 9L30 7L31 7L31 10L32 10L32 11L30 11L30 12L26 12L26 10L27 10L27 9L26 9L26 10L25 10L25 9L24 9L24 8L23 8L23 10L25 10L25 11L23 11L23 14L22 14L22 12L21 12L21 14L22 14L22 15L19 15L19 17L21 17L21 18L20 18L20 19L21 19L21 18L22 18L22 20L23 20L23 19L24 19L24 18L25 18L25 17L27 17L27 19L28 19L28 20L29 20L29 19L30 19L30 17L32 17L32 16L33 16L33 15L31 15L31 16L30 16L30 17L27 17L27 16L28 16L28 15L27 15L27 14L26 14L26 13L29 13L29 15L30 15L30 13L31 13L31 12L33 12L33 14L34 14L34 15L36 15L36 17L37 17L37 18L38 18L38 21L40 21L40 19L39 19L39 18L38 18L38 16L37 16L37 15L36 15L36 13L35 13L35 14L34 14L34 12L36 12L36 11L33 11L33 9L34 9L34 10L35 10L35 8L33 8L33 6L32 6L32 5L33 5L33 3L32 3L32 4L31 4L31 2L30 2L30 1L32 1L32 2L33 2L33 0L30 0L30 1L28 1L28 2L30 2L30 4L27 4L27 3L26 3L26 5L25 5L25 4L24 4L24 3L25 3L25 2L26 2L26 1L27 1L27 0L25 0L25 2L23 2L23 3L22 3L22 1L24 1L24 0L20 0L20 1L19 1L19 0L17 0L17 2L16 2L16 0L15 0L15 1L14 1L14 2L15 2L15 3L16 3L16 4L15 4L15 5L11 5L11 6L10 6L10 4L11 4L11 2L12 2L12 4L14 4L14 3L13 3L13 0ZM20 1L20 2L17 2L17 5L15 5L15 7L16 7L16 6L17 6L17 5L18 5L18 6L19 6L19 5L21 5L21 4L22 4L22 3L21 3L21 1ZM18 3L18 5L19 5L19 4L20 4L20 3ZM27 5L27 7L28 7L28 5ZM30 5L30 6L29 6L29 7L30 7L30 6L31 6L31 7L32 7L32 6L31 6L31 5ZM9 6L9 7L10 7L10 6ZM11 6L11 7L12 7L12 6ZM25 6L25 7L26 7L26 6ZM16 8L16 9L17 9L17 8ZM32 8L32 9L33 9L33 8ZM36 8L36 10L37 10L37 11L38 11L38 10L37 10L37 8ZM21 9L21 10L20 10L20 11L21 11L21 10L22 10L22 9ZM40 9L40 10L41 10L41 9ZM4 10L4 11L3 11L3 12L4 12L4 13L5 13L5 11L6 11L6 10ZM13 10L13 12L14 12L14 11L15 11L15 10ZM28 10L28 11L29 11L29 10ZM40 11L40 12L39 12L39 13L38 13L38 15L41 15L41 13L40 13L40 12L41 12L41 11ZM25 12L25 13L26 13L26 12ZM16 13L16 15L15 15L15 16L16 16L16 15L17 15L17 14L18 14L18 13ZM39 13L39 14L40 14L40 13ZM25 14L25 15L24 15L24 16L23 16L23 18L24 18L24 17L25 17L25 16L26 16L26 14ZM7 16L7 17L6 17L6 18L7 18L7 17L8 17L8 16ZM39 16L39 17L41 17L41 16ZM28 18L28 19L29 19L29 18ZM1 19L1 21L2 21L2 22L1 22L1 23L3 23L3 24L2 24L2 25L1 25L1 27L2 27L2 25L3 25L3 24L4 24L4 25L5 25L5 24L7 24L7 23L5 23L5 22L8 22L8 20L7 20L7 21L5 21L5 22L4 22L4 21L3 21L3 20L2 20L2 19ZM36 19L36 20L37 20L37 19ZM33 20L33 21L32 21L32 22L30 22L30 23L29 23L29 24L28 24L28 25L29 25L29 27L28 27L28 26L27 26L27 27L25 27L25 26L26 26L26 25L27 25L27 24L26 24L26 25L25 25L25 26L24 26L24 29L25 29L25 30L22 30L22 29L21 29L21 28L23 28L23 27L21 27L21 26L20 26L20 28L19 28L19 29L18 29L18 28L17 28L17 26L16 26L16 28L15 28L15 29L14 29L14 28L13 28L13 29L14 29L14 31L15 31L15 32L16 32L16 28L17 28L17 29L18 29L18 30L17 30L17 31L18 31L18 32L17 32L17 33L18 33L18 34L19 34L19 35L21 35L21 34L22 34L22 33L23 33L23 35L22 35L22 36L21 36L21 37L22 37L22 39L23 39L23 40L24 40L24 39L23 39L23 37L24 37L24 38L25 38L25 36L26 36L26 37L27 37L27 36L26 36L26 35L25 35L25 36L23 36L23 35L24 35L24 33L23 33L23 31L25 31L25 30L26 30L26 32L25 32L25 33L26 33L26 32L27 32L27 31L29 31L29 30L30 30L30 29L32 29L32 30L31 30L31 31L30 31L30 32L32 32L32 30L33 30L33 31L34 31L34 32L35 32L35 31L34 31L34 29L33 29L33 27L32 27L32 28L31 28L31 27L30 27L30 25L29 25L29 24L31 24L31 25L32 25L32 26L33 26L33 24L34 24L34 25L35 25L35 26L34 26L34 27L38 27L38 28L37 28L37 29L36 29L36 28L35 28L35 30L36 30L36 32L37 32L37 29L38 29L38 28L39 28L39 27L40 27L40 26L39 26L39 25L40 25L40 24L39 24L39 23L38 23L38 24L39 24L39 25L38 25L38 26L37 26L37 24L34 24L34 23L35 23L35 22L34 22L34 20ZM3 22L3 23L4 23L4 22ZM9 22L9 24L8 24L8 25L9 25L9 26L10 26L10 27L11 27L11 25L12 25L12 27L14 27L14 26L15 26L15 25L12 25L12 24L13 24L13 23L11 23L11 22ZM32 22L32 23L31 23L31 24L33 24L33 23L34 23L34 22ZM14 23L14 24L15 24L15 23ZM11 28L11 29L12 29L12 28ZM25 28L25 29L26 29L26 30L27 30L27 29L26 29L26 28ZM19 29L19 30L18 30L18 31L20 31L20 32L18 32L18 33L21 33L21 31L22 31L22 30L21 30L21 29ZM0 30L0 31L1 31L1 30ZM20 30L20 31L21 31L21 30ZM38 30L38 31L39 31L39 30ZM11 31L11 34L10 34L10 35L12 35L12 34L13 34L13 33L12 33L12 31ZM1 32L1 33L5 33L5 32ZM39 32L39 33L37 33L37 35L38 35L38 34L39 34L39 33L40 33L40 32ZM27 33L27 35L29 35L29 36L28 36L28 37L30 37L30 35L31 35L31 34L30 34L30 33L29 33L29 34L28 34L28 33ZM33 33L33 36L36 36L36 33ZM29 34L29 35L30 35L30 34ZM34 34L34 35L35 35L35 34ZM31 36L31 38L32 38L32 36ZM11 39L11 40L12 40L12 39ZM15 39L15 40L16 40L16 39ZM0 0L0 7L7 7L7 0ZM1 1L1 6L6 6L6 1ZM2 2L2 5L5 5L5 2ZM34 0L34 7L41 7L41 0ZM35 1L35 6L40 6L40 1ZM36 2L36 5L39 5L39 2ZM0 34L0 41L7 41L7 34ZM1 35L1 40L6 40L6 35ZM2 36L2 39L5 39L5 36Z" fill="#000000"/></g></g></svg>
