<?xml version="1.0" encoding="UTF-8"?>
<svg xmlns="http://www.w3.org/2000/svg" version="1.1" width="200" height="200" viewBox="0 0 200 200"><rect x="0" y="0" width="200" height="200" fill="#ffffff"/><g transform="scale(6.897)"><g transform="translate(0,0)"><path fill-rule="evenodd" d="M9 0L9 2L8 2L8 4L9 4L9 2L10 2L10 3L12 3L12 5L11 5L11 4L10 4L10 5L9 5L9 6L8 6L8 7L9 7L9 6L10 6L10 8L9 8L9 9L10 9L10 10L11 10L11 9L12 9L12 8L14 8L14 9L13 9L13 10L15 10L15 9L16 9L16 8L19 8L19 6L20 6L20 7L21 7L21 4L19 4L19 3L20 3L20 1L21 1L21 0L19 0L19 1L18 1L18 0L17 0L17 1L16 1L16 2L17 2L17 1L18 1L18 2L19 2L19 3L18 3L18 4L19 4L19 6L18 6L18 7L17 7L17 5L16 5L16 4L17 4L17 3L16 3L16 4L14 4L14 3L13 3L13 2L15 2L15 1L14 1L14 0L12 0L12 1L13 1L13 2L11 2L11 1L10 1L10 0ZM12 5L12 6L11 6L11 7L12 7L12 6L13 6L13 7L14 7L14 5ZM15 6L15 7L16 7L16 6ZM3 8L3 10L2 10L2 9L1 9L1 10L0 10L0 16L1 16L1 15L4 15L4 18L3 18L3 16L2 16L2 18L1 18L1 17L0 17L0 21L4 21L4 20L3 20L3 19L5 19L5 21L8 21L8 23L10 23L10 28L13 28L13 29L14 29L14 28L15 28L15 29L20 29L20 28L21 28L21 29L23 29L23 28L24 28L24 29L25 29L25 28L26 28L26 27L23 27L23 28L22 28L22 26L21 26L21 27L20 27L20 28L19 28L19 26L18 26L18 25L17 25L17 24L18 24L18 22L17 22L17 21L16 21L16 19L17 19L17 20L18 20L18 21L20 21L20 24L19 24L19 25L24 25L24 26L25 26L25 22L27 22L27 23L28 23L28 24L26 24L26 26L27 26L27 27L29 27L29 26L27 26L27 25L29 25L29 22L28 22L28 21L26 21L26 20L27 20L27 18L28 18L28 19L29 19L29 17L28 17L28 16L29 16L29 14L27 14L27 13L29 13L29 11L28 11L28 10L27 10L27 8L25 8L25 9L26 9L26 10L25 10L25 12L24 12L24 16L23 16L23 12L22 12L22 11L21 11L21 10L19 10L19 9L17 9L17 11L18 11L18 14L17 14L17 13L14 13L14 12L16 12L16 11L13 11L13 13L12 13L12 14L11 14L11 16L10 16L10 14L9 14L9 17L8 17L8 19L7 19L7 18L6 18L6 19L5 19L5 17L7 17L7 16L8 16L8 14L6 14L6 15L7 15L7 16L5 16L5 15L4 15L4 14L5 14L5 12L6 12L6 13L10 13L10 12L11 12L11 11L9 11L9 10L8 10L8 8L6 8L6 9L5 9L5 8ZM10 8L10 9L11 9L11 8ZM4 9L4 10L5 10L5 9ZM6 9L6 10L7 10L7 11L6 11L6 12L7 12L7 11L8 11L8 10L7 10L7 9ZM22 9L22 10L23 10L23 11L24 11L24 9ZM26 10L26 11L27 11L27 12L28 12L28 11L27 11L27 10ZM1 11L1 12L2 12L2 13L3 13L3 14L4 14L4 12L5 12L5 11ZM19 12L19 13L20 13L20 12ZM21 12L21 14L20 14L20 15L19 15L19 16L18 16L18 17L17 17L17 15L16 15L16 14L15 14L15 15L14 15L14 14L12 14L12 17L10 17L10 19L14 19L14 20L9 20L9 19L8 19L8 21L9 21L9 22L10 22L10 23L11 23L11 25L13 25L13 24L14 24L14 27L13 27L13 28L14 28L14 27L15 27L15 24L14 24L14 22L15 22L15 23L16 23L16 21L15 21L15 18L12 18L12 17L14 17L14 16L16 16L16 17L17 17L17 18L18 18L18 17L19 17L19 18L20 18L20 19L21 19L21 20L22 20L22 19L21 19L21 16L20 16L20 15L21 15L21 14L22 14L22 12ZM25 13L25 16L26 16L26 17L27 17L27 16L28 16L28 15L27 15L27 16L26 16L26 13ZM22 16L22 17L23 17L23 16ZM2 18L2 19L3 19L3 18ZM25 18L25 20L26 20L26 18ZM6 19L6 20L7 20L7 19ZM23 19L23 20L24 20L24 19ZM10 21L10 22L11 22L11 23L12 23L12 22L14 22L14 21ZM21 21L21 24L24 24L24 21ZM22 22L22 23L23 23L23 22ZM8 24L8 26L9 26L9 24ZM11 26L11 27L12 27L12 26ZM16 26L16 28L17 28L17 26ZM27 28L27 29L28 29L28 28ZM0 0L0 7L7 7L7 0ZM1 1L1 6L6 6L6 1ZM2 2L2 5L5 5L5 2ZM22 0L22 7L29 7L29 0ZM23 1L23 6L28 6L28 1ZM24 2L24 5L27 5L27 2ZM0 22L0 29L7 29L7 22ZM1 23L1 28L6 28L6 23ZM2 24L2 27L5 27L5 24Z" fill="#000000"/></g></g></svg>
