<?xml version="1.0" encoding="UTF-8"?>
<svg xmlns="http://www.w3.org/2000/svg" version="1.1" width="200" height="200" viewBox="0 0 200 200"><rect x="0" y="0" width="200" height="200" fill="#ffffff"/><g transform="scale(6.897)"><g transform="translate(0,0)"><path fill-rule="evenodd" d="M12 0L12 1L11 1L11 2L10 2L10 1L9 1L9 4L8 4L8 5L9 5L9 6L8 6L8 8L6 8L6 9L7 9L7 10L6 10L6 11L7 11L7 12L6 12L6 13L7 13L7 12L8 12L8 14L5 14L5 15L8 15L8 16L6 16L6 17L7 17L7 18L4 18L4 20L3 20L3 19L2 19L2 20L1 20L1 21L4 21L4 20L5 20L5 21L8 21L8 23L10 23L10 22L13 22L13 24L14 24L14 25L12 25L12 23L11 23L11 24L10 24L10 25L12 25L12 26L10 26L10 27L9 27L9 25L8 25L8 27L9 27L9 29L14 29L14 28L13 28L13 27L14 27L14 26L15 26L15 27L16 27L16 29L20 29L20 28L18 28L18 26L20 26L20 25L23 25L23 26L24 26L24 27L22 27L22 29L23 29L23 28L25 28L25 26L24 26L24 25L26 25L26 26L27 26L27 25L28 25L28 24L29 24L29 21L28 21L28 20L27 20L27 21L28 21L28 24L27 24L27 25L26 25L26 23L25 23L25 22L26 22L26 20L24 20L24 19L25 19L25 18L24 18L24 19L22 19L22 18L23 18L23 17L24 17L24 16L25 16L25 17L26 17L26 19L27 19L27 18L29 18L29 17L26 17L26 16L25 16L25 15L24 15L24 16L23 16L23 17L21 17L21 18L20 18L20 17L19 17L19 18L20 18L20 20L19 20L19 21L18 21L18 20L17 20L17 21L15 21L15 20L16 20L16 19L18 19L18 18L17 18L17 17L18 17L18 16L19 16L19 15L20 15L20 14L21 14L21 13L20 13L20 12L22 12L22 9L23 9L23 13L22 13L22 15L23 15L23 14L24 14L24 13L25 13L25 14L26 14L26 15L27 15L27 16L28 16L28 15L29 15L29 14L28 14L28 12L29 12L29 11L28 11L28 12L27 12L27 11L26 11L26 10L24 10L24 9L25 9L25 8L24 8L24 9L23 9L23 8L21 8L21 9L20 9L20 7L21 7L21 3L20 3L20 2L18 2L18 1L17 1L17 0L14 0L14 2L13 2L13 4L11 4L11 3L12 3L12 1L13 1L13 0ZM14 2L14 4L13 4L13 7L14 7L14 9L11 9L11 10L12 10L12 11L11 11L11 12L9 12L9 14L8 14L8 15L9 15L9 14L13 14L13 15L12 15L12 16L14 16L14 17L12 17L12 19L11 19L11 16L9 16L9 17L8 17L8 18L7 18L7 19L6 19L6 20L8 20L8 21L9 21L9 22L10 22L10 21L9 21L9 20L12 20L12 19L15 19L15 18L14 18L14 17L17 17L17 16L18 16L18 15L17 15L17 16L16 16L16 13L17 13L17 14L20 14L20 13L17 13L17 12L16 12L16 13L14 13L14 11L15 11L15 10L16 10L16 9L15 9L15 8L17 8L17 10L18 10L18 8L19 8L19 7L20 7L20 5L19 5L19 7L18 7L18 6L17 6L17 5L18 5L18 2L16 2L16 3L15 3L15 2ZM16 3L16 4L15 4L15 6L14 6L14 7L15 7L15 6L16 6L16 7L17 7L17 6L16 6L16 5L17 5L17 3ZM19 3L19 4L20 4L20 3ZM9 4L9 5L10 5L10 4ZM9 6L9 9L8 9L8 10L7 10L7 11L9 11L9 10L10 10L10 8L11 8L11 7L12 7L12 6L11 6L11 7L10 7L10 6ZM2 8L2 9L1 9L1 11L0 11L0 14L1 14L1 15L2 15L2 16L3 16L3 14L4 14L4 12L5 12L5 11L4 11L4 10L5 10L5 9L4 9L4 8ZM3 9L3 10L4 10L4 9ZM14 9L14 10L15 10L15 9ZM19 9L19 10L20 10L20 9ZM27 9L27 10L29 10L29 9ZM1 11L1 13L2 13L2 14L3 14L3 13L2 13L2 12L4 12L4 11ZM19 11L19 12L20 12L20 11ZM25 11L25 13L27 13L27 12L26 12L26 11ZM11 12L11 13L13 13L13 12ZM27 14L27 15L28 15L28 14ZM14 15L14 16L15 16L15 15ZM1 17L1 18L0 18L0 19L1 19L1 18L3 18L3 17ZM21 19L21 20L22 20L22 19ZM13 20L13 22L14 22L14 23L16 23L16 24L15 24L15 26L16 26L16 27L17 27L17 25L16 25L16 24L17 24L17 23L18 23L18 22L17 22L17 23L16 23L16 22L15 22L15 21L14 21L14 20ZM19 21L19 23L20 23L20 21ZM21 21L21 24L24 24L24 21ZM22 22L22 23L23 23L23 22ZM19 24L19 25L20 25L20 24ZM28 26L28 27L26 27L26 28L29 28L29 26ZM10 27L10 28L11 28L11 27ZM0 0L0 7L7 7L7 0ZM1 1L1 6L6 6L6 1ZM2 2L2 5L5 5L5 2ZM22 0L22 7L29 7L29 0ZM23 1L23 6L28 6L28 1ZM24 2L24 5L27 5L27 2ZM0 22L0 29L7 29L7 22ZM1 23L1 28L6 28L6 23ZM2 24L2 27L5 27L5 24Z" fill="#000000"/></g></g></svg>
