<?xml version="1.0" encoding="UTF-8"?>
<svg xmlns="http://www.w3.org/2000/svg" version="1.1" width="200" height="200" viewBox="0 0 200 200"><rect x="0" y="0" width="200" height="200" fill="#ffffff"/><g transform="scale(6.897)"><g transform="translate(0,0)"><path fill-rule="evenodd" d="M8 0L8 3L10 3L10 4L9 4L9 5L8 5L8 9L9 9L9 10L8 10L8 12L6 12L6 11L7 11L7 10L5 10L5 11L4 11L4 9L5 9L5 8L2 8L2 9L3 9L3 10L1 10L1 11L3 11L3 12L2 12L2 13L1 13L1 14L0 14L0 16L1 16L1 17L0 17L0 21L1 21L1 18L3 18L3 19L4 19L4 18L3 18L3 17L5 17L5 19L7 19L7 20L5 20L5 21L7 21L7 20L8 20L8 22L9 22L9 20L11 20L11 19L12 19L12 20L13 20L13 21L12 21L12 22L14 22L14 23L13 23L13 24L12 24L12 23L11 23L11 21L10 21L10 24L8 24L8 27L10 27L10 28L12 28L12 29L13 29L13 28L15 28L15 27L16 27L16 26L15 26L15 27L13 27L13 28L12 28L12 25L13 25L13 24L14 24L14 25L16 25L16 24L18 24L18 25L17 25L17 28L16 28L16 29L19 29L19 28L20 28L20 26L21 26L21 28L22 28L22 27L23 27L23 29L26 29L26 28L25 28L25 27L27 27L27 29L28 29L28 28L29 28L29 27L28 27L28 25L29 25L29 24L28 24L28 23L27 23L27 22L28 22L28 21L29 21L29 20L28 20L28 19L29 19L29 18L28 18L28 19L27 19L27 17L28 17L28 10L29 10L29 8L26 8L26 9L27 9L27 10L25 10L25 9L24 9L24 8L21 8L21 5L20 5L20 4L21 4L21 2L20 2L20 1L21 1L21 0L20 0L20 1L19 1L19 0L18 0L18 2L19 2L19 3L18 3L18 7L19 7L19 8L18 8L18 9L17 9L17 10L16 10L16 9L15 9L15 10L14 10L14 9L13 9L13 8L14 8L14 7L15 7L15 8L17 8L17 6L16 6L16 7L15 7L15 4L16 4L16 3L15 3L15 2L17 2L17 1L16 1L16 0L15 0L15 2L13 2L13 1L14 1L14 0L13 0L13 1L11 1L11 0ZM12 2L12 3L11 3L11 4L10 4L10 5L11 5L11 7L10 7L10 6L9 6L9 7L10 7L10 8L9 8L9 9L10 9L10 10L9 10L9 12L8 12L8 13L9 13L9 14L8 14L8 15L9 15L9 14L10 14L10 16L9 16L9 18L10 18L10 19L11 19L11 16L12 16L12 18L14 18L14 19L13 19L13 20L15 20L15 22L16 22L16 21L17 21L17 20L18 20L18 22L19 22L19 23L18 23L18 24L19 24L19 25L18 25L18 26L19 26L19 25L20 25L20 21L19 21L19 20L18 20L18 19L19 19L19 18L20 18L20 19L21 19L21 18L20 18L20 17L22 17L22 19L23 19L23 20L25 20L25 21L26 21L26 22L25 22L25 24L26 24L26 25L25 25L25 26L24 26L24 25L22 25L22 26L23 26L23 27L25 27L25 26L27 26L27 23L26 23L26 22L27 22L27 21L28 21L28 20L27 20L27 19L26 19L26 18L25 18L25 19L23 19L23 18L24 18L24 17L25 17L25 16L27 16L27 15L25 15L25 16L24 16L24 13L23 13L23 12L24 12L24 9L22 9L22 10L21 10L21 9L18 9L18 10L19 10L19 13L18 13L18 12L17 12L17 14L18 14L18 16L17 16L17 17L15 17L15 15L16 15L16 12L14 12L14 15L13 15L13 13L12 13L12 12L13 12L13 11L14 11L14 10L13 10L13 9L12 9L12 10L13 10L13 11L12 11L12 12L11 12L11 13L12 13L12 14L10 14L10 11L11 11L11 8L13 8L13 7L14 7L14 6L13 6L13 4L14 4L14 3L13 3L13 2ZM12 6L12 7L13 7L13 6ZM19 6L19 7L20 7L20 6ZM6 8L6 9L7 9L7 8ZM15 10L15 11L16 11L16 10ZM20 10L20 11L21 11L21 10ZM22 11L22 12L23 12L23 11ZM25 12L25 13L26 13L26 14L27 14L27 12ZM2 13L2 14L3 14L3 16L5 16L5 17L6 17L6 18L7 18L7 19L8 19L8 18L7 18L7 17L8 17L8 16L7 16L7 15L4 15L4 14L3 14L3 13ZM5 13L5 14L7 14L7 13ZM21 13L21 14L22 14L22 15L21 15L21 16L22 16L22 17L23 17L23 13ZM1 15L1 16L2 16L2 15ZM12 15L12 16L13 16L13 15ZM6 16L6 17L7 17L7 16ZM15 19L15 20L16 20L16 19ZM2 20L2 21L3 21L3 20ZM21 21L21 24L24 24L24 21ZM22 22L22 23L23 23L23 22ZM14 23L14 24L16 24L16 23ZM10 24L10 25L9 25L9 26L10 26L10 27L11 27L11 24ZM0 0L0 7L7 7L7 0ZM1 1L1 6L6 6L6 1ZM2 2L2 5L5 5L5 2ZM22 0L22 7L29 7L29 0ZM23 1L23 6L28 6L28 1ZM24 2L24 5L27 5L27 2ZM0 22L0 29L7 29L7 22ZM1 23L1 28L6 28L6 23ZM2 24L2 27L5 27L5 24Z" fill="#000000"/></g></g></svg>
