<?xml version="1.0" encoding="UTF-8"?>
<svg xmlns="http://www.w3.org/2000/svg" version="1.1" width="200" height="200" viewBox="0 0 200 200"><rect x="0" y="0" width="200" height="200" fill="#ffffff"/><g transform="scale(4.878)"><g transform="translate(0,0)"><path fill-rule="evenodd" d="M8 0L8 1L10 1L10 2L11 2L11 1L12 1L12 2L13 2L13 4L14 4L14 7L13 7L13 5L12 5L12 7L11 7L11 6L10 6L10 7L9 7L9 6L8 6L8 8L10 8L10 9L9 9L9 10L10 10L10 11L8 11L8 9L7 9L7 8L5 8L5 10L4 10L4 11L3 11L3 12L2 12L2 15L0 15L0 18L1 18L1 19L2 19L2 20L1 20L1 21L0 21L0 23L1 23L1 22L2 22L2 24L1 24L1 25L0 25L0 26L1 26L1 27L0 27L0 33L1 33L1 31L2 31L2 30L3 30L3 32L2 32L2 33L4 33L4 32L5 32L5 33L7 33L7 32L5 32L5 31L7 31L7 30L8 30L8 34L11 34L11 33L12 33L12 32L10 32L10 31L9 31L9 30L8 30L8 29L9 29L9 28L8 28L8 26L9 26L9 27L11 27L11 28L12 28L12 29L10 29L10 30L13 30L13 29L17 29L17 31L16 31L16 30L14 30L14 31L13 31L13 32L14 32L14 33L16 33L16 34L17 34L17 35L16 35L16 37L17 37L17 38L15 38L15 36L14 36L14 35L15 35L15 34L14 34L14 35L13 35L13 37L12 37L12 38L13 38L13 39L11 39L11 37L10 37L10 35L8 35L8 36L9 36L9 37L10 37L10 38L9 38L9 41L11 41L11 40L13 40L13 41L14 41L14 39L16 39L16 40L18 40L18 41L21 41L21 40L22 40L22 41L23 41L23 40L25 40L25 41L27 41L27 39L28 39L28 40L29 40L29 41L30 41L30 40L29 40L29 39L31 39L31 40L32 40L32 38L31 38L31 37L36 37L36 38L34 38L34 39L33 39L33 41L34 41L34 40L36 40L36 39L37 39L37 40L38 40L38 39L40 39L40 40L41 40L41 39L40 39L40 38L41 38L41 37L40 37L40 34L39 34L39 33L40 33L40 32L41 32L41 29L40 29L40 28L39 28L39 27L40 27L40 26L41 26L41 25L39 25L39 24L37 24L37 23L38 23L38 22L41 22L41 20L40 20L40 19L41 19L41 15L40 15L40 14L41 14L41 12L40 12L40 13L39 13L39 12L38 12L38 11L40 11L40 9L41 9L41 8L40 8L40 9L39 9L39 8L38 8L38 10L37 10L37 8L36 8L36 10L37 10L37 11L36 11L36 12L35 12L35 10L34 10L34 9L35 9L35 8L34 8L34 9L33 9L33 10L34 10L34 12L35 12L35 13L36 13L36 15L34 15L34 14L32 14L32 17L30 17L30 16L31 16L31 13L32 13L32 12L33 12L33 11L32 11L32 12L31 12L31 11L30 11L30 13L29 13L29 12L28 12L28 14L30 14L30 16L29 16L29 17L30 17L30 18L29 18L29 19L28 19L28 17L26 17L26 15L25 15L25 13L23 13L23 14L22 14L22 12L21 12L21 14L22 14L22 15L23 15L23 14L24 14L24 16L23 16L23 17L22 17L22 16L21 16L21 15L20 15L20 14L19 14L19 12L20 12L20 11L21 11L21 10L20 10L20 9L21 9L21 6L22 6L22 8L24 8L24 9L25 9L25 8L27 8L27 9L26 9L26 10L25 10L25 11L23 11L23 12L25 12L25 11L26 11L26 12L27 12L27 11L29 11L29 9L31 9L31 10L32 10L32 9L31 9L31 8L33 8L33 3L32 3L32 2L30 2L30 1L29 1L29 0L28 0L28 2L26 2L26 4L25 4L25 3L23 3L23 2L25 2L25 1L26 1L26 0L23 0L23 1L22 1L22 3L23 3L23 4L21 4L21 5L20 5L20 4L19 4L19 3L20 3L20 2L21 2L21 0L20 0L20 1L19 1L19 0L17 0L17 2L16 2L16 1L15 1L15 2L14 2L14 0L11 0L11 1L10 1L10 0ZM32 0L32 1L33 1L33 0ZM18 1L18 2L19 2L19 1ZM8 2L8 3L9 3L9 2ZM10 3L10 4L12 4L12 3ZM14 3L14 4L15 4L15 5L16 5L16 3ZM28 3L28 4L27 4L27 7L28 7L28 8L30 8L30 6L31 6L31 7L32 7L32 5L30 5L30 4L32 4L32 3ZM8 4L8 5L9 5L9 4ZM18 4L18 5L17 5L17 7L16 7L16 6L15 6L15 7L14 7L14 8L13 8L13 9L14 9L14 14L15 14L15 15L14 15L14 16L13 16L13 17L12 17L12 15L13 15L13 14L11 14L11 13L12 13L12 12L13 12L13 11L12 11L12 8L11 8L11 9L10 9L10 10L11 10L11 11L12 11L12 12L10 12L10 14L11 14L11 15L10 15L10 16L9 16L9 18L8 18L8 15L9 15L9 14L8 14L8 15L4 15L4 14L3 14L3 15L2 15L2 16L3 16L3 17L1 17L1 18L2 18L2 19L3 19L3 17L4 17L4 16L7 16L7 17L5 17L5 18L4 18L4 19L5 19L5 20L7 20L7 21L4 21L4 20L2 20L2 22L3 22L3 24L2 24L2 25L3 25L3 26L4 26L4 25L6 25L6 26L5 26L5 27L4 27L4 29L3 29L3 30L4 30L4 29L6 29L6 30L7 30L7 29L8 29L8 28L7 28L7 27L6 27L6 26L7 26L7 25L6 25L6 24L8 24L8 23L9 23L9 24L13 24L13 25L9 25L9 26L11 26L11 27L12 27L12 28L13 28L13 27L12 27L12 26L14 26L14 27L18 27L18 28L20 28L20 30L19 30L19 29L18 29L18 31L17 31L17 33L19 33L19 34L18 34L18 35L19 35L19 36L18 36L18 38L17 38L17 39L19 39L19 40L21 40L21 39L24 39L24 35L25 35L25 37L26 37L26 39L25 39L25 40L26 40L26 39L27 39L27 37L26 37L26 35L25 35L25 33L26 33L26 32L30 32L30 33L31 33L31 32L30 32L30 31L32 31L32 29L33 29L33 28L31 28L31 27L32 27L32 26L29 26L29 25L31 25L31 24L32 24L32 23L33 23L33 26L34 26L34 27L35 27L35 26L34 26L34 24L36 24L36 25L37 25L37 24L36 24L36 23L35 23L35 22L36 22L36 21L35 21L35 18L36 18L36 20L39 20L39 21L40 21L40 20L39 20L39 19L37 19L37 18L39 18L39 17L40 17L40 16L39 16L39 17L38 17L38 16L36 16L36 17L35 17L35 16L34 16L34 17L32 17L32 19L34 19L34 22L31 22L31 21L32 21L32 20L31 20L31 19L29 19L29 20L28 20L28 23L29 23L29 24L28 24L28 26L29 26L29 28L31 28L31 29L27 29L27 28L28 28L28 27L27 27L27 26L26 26L26 25L27 25L27 24L26 24L26 23L27 23L27 21L26 21L26 22L25 22L25 20L27 20L27 19L26 19L26 17L24 17L24 19L23 19L23 20L22 20L22 19L20 19L20 18L22 18L22 17L21 17L21 16L20 16L20 15L18 15L18 14L17 14L17 12L18 12L18 11L20 11L20 10L17 10L17 9L16 9L16 8L18 8L18 9L19 9L19 8L20 8L20 5L19 5L19 4ZM18 5L18 8L19 8L19 5ZM24 5L24 6L23 6L23 7L24 7L24 6L25 6L25 7L26 7L26 6L25 6L25 5ZM28 5L28 7L29 7L29 6L30 6L30 5ZM0 9L0 10L3 10L3 9ZM6 9L6 10L5 10L5 11L4 11L4 12L5 12L5 14L7 14L7 13L9 13L9 12L7 12L7 11L6 11L6 10L7 10L7 9ZM15 9L15 10L16 10L16 9ZM22 9L22 10L23 10L23 9ZM0 11L0 12L1 12L1 11ZM15 11L15 12L17 12L17 11ZM6 12L6 13L7 13L7 12ZM36 12L36 13L37 13L37 12ZM0 13L0 14L1 14L1 13ZM15 13L15 14L16 14L16 16L15 16L15 17L14 17L14 18L11 18L11 17L10 17L10 18L9 18L9 19L8 19L8 18L6 18L6 19L7 19L7 20L8 20L8 22L5 22L5 23L8 23L8 22L9 22L9 20L11 20L11 21L13 21L13 20L12 20L12 19L14 19L14 18L15 18L15 17L16 17L16 18L17 18L17 19L18 19L18 18L19 18L19 17L20 17L20 16L17 16L17 14L16 14L16 13ZM26 13L26 14L27 14L27 13ZM38 13L38 14L37 14L37 15L39 15L39 13ZM27 15L27 16L28 16L28 15ZM16 16L16 17L17 17L17 18L18 18L18 17L17 17L17 16ZM34 17L34 18L35 18L35 17ZM36 17L36 18L37 18L37 17ZM10 18L10 19L11 19L11 18ZM15 19L15 21L18 21L18 22L19 22L19 23L18 23L18 24L17 24L17 23L16 23L16 24L17 24L17 26L18 26L18 27L20 27L20 28L21 28L21 29L22 29L22 30L24 30L24 31L25 31L25 30L24 30L24 29L26 29L26 30L27 30L27 31L28 31L28 30L27 30L27 29L26 29L26 28L23 28L23 27L26 27L26 26L25 26L25 25L26 25L26 24L25 24L25 23L24 23L24 20L23 20L23 24L22 24L22 21L21 21L21 22L19 22L19 20L20 20L20 19L19 19L19 20L16 20L16 19ZM30 20L30 21L31 21L31 20ZM37 21L37 22L38 22L38 21ZM10 22L10 23L13 23L13 24L14 24L14 25L15 25L15 24L14 24L14 23L13 23L13 22ZM29 22L29 23L31 23L31 22ZM19 23L19 24L18 24L18 26L21 26L21 25L22 25L22 27L21 27L21 28L22 28L22 29L23 29L23 28L22 28L22 27L23 27L23 26L24 26L24 25L25 25L25 24L24 24L24 25L22 25L22 24L21 24L21 23ZM40 23L40 24L41 24L41 23ZM19 24L19 25L21 25L21 24ZM38 26L38 27L39 27L39 26ZM2 27L2 28L1 28L1 30L2 30L2 28L3 28L3 27ZM6 28L6 29L7 29L7 28ZM34 28L34 30L33 30L33 31L34 31L34 32L35 32L35 29L37 29L37 30L36 30L36 31L38 31L38 32L37 32L37 33L38 33L38 32L39 32L39 31L38 31L38 30L40 30L40 29L39 29L39 28ZM14 31L14 32L16 32L16 31ZM18 31L18 32L19 32L19 33L20 33L20 34L19 34L19 35L20 35L20 36L19 36L19 37L20 37L20 38L21 38L21 37L20 37L20 36L21 36L21 35L22 35L22 33L23 33L23 34L24 34L24 33L25 33L25 32L24 32L24 33L23 33L23 31L22 31L22 32L21 32L21 31L20 31L20 32L19 32L19 31ZM9 32L9 33L10 33L10 32ZM33 33L33 36L36 36L36 33ZM30 34L30 35L31 35L31 36L30 36L30 37L29 37L29 38L28 38L28 39L29 39L29 38L30 38L30 37L31 37L31 36L32 36L32 35L31 35L31 34ZM34 34L34 35L35 35L35 34ZM37 34L37 37L39 37L39 38L40 38L40 37L39 37L39 34ZM11 35L11 36L12 36L12 35ZM27 35L27 36L28 36L28 35ZM22 36L22 38L23 38L23 36ZM37 38L37 39L38 39L38 38ZM0 0L0 7L7 7L7 0ZM1 1L1 6L6 6L6 1ZM2 2L2 5L5 5L5 2ZM34 0L34 7L41 7L41 0ZM35 1L35 6L40 6L40 1ZM36 2L36 5L39 5L39 2ZM0 34L0 41L7 41L7 34ZM1 35L1 40L6 40L6 35ZM2 36L2 39L5 39L5 36Z" fill="#000000"/></g></g></svg>
