<?xml version="1.0" encoding="UTF-8"?>
<svg xmlns="http://www.w3.org/2000/svg" version="1.1" width="200" height="200" viewBox="0 0 200 200"><rect x="0" y="0" width="200" height="200" fill="#ffffff"/><g transform="scale(4.878)"><g transform="translate(0,0)"><path fill-rule="evenodd" d="M8 0L8 3L9 3L9 4L10 4L10 7L9 7L9 5L8 5L8 9L7 9L7 8L6 8L6 9L5 9L5 8L2 8L2 10L1 10L1 12L2 12L2 13L0 13L0 17L2 17L2 19L1 19L1 18L0 18L0 26L2 26L2 25L3 25L3 28L4 28L4 27L5 27L5 29L4 29L4 30L2 30L2 29L0 29L0 33L1 33L1 30L2 30L2 33L4 33L4 32L5 32L5 33L8 33L8 34L9 34L9 33L8 33L8 31L9 31L9 32L10 32L10 34L11 34L11 33L15 33L15 34L14 34L14 35L15 35L15 36L12 36L12 35L9 35L9 36L8 36L8 39L10 39L10 38L9 38L9 36L12 36L12 37L15 37L15 40L13 40L13 39L12 39L12 38L11 38L11 39L12 39L12 40L13 40L13 41L15 41L15 40L16 40L16 41L17 41L17 40L18 40L18 39L16 39L16 36L18 36L18 35L19 35L19 36L20 36L20 37L18 37L18 38L20 38L20 37L22 37L22 38L21 38L21 40L20 40L20 39L19 39L19 40L20 40L20 41L21 41L21 40L22 40L22 41L23 41L23 39L24 39L24 41L25 41L25 38L26 38L26 36L25 36L25 34L26 34L26 35L27 35L27 37L29 37L29 36L31 36L31 35L32 35L32 38L34 38L34 39L35 39L35 40L36 40L36 39L37 39L37 40L40 40L40 38L41 38L41 37L39 37L39 36L37 36L37 35L38 35L38 34L39 34L39 35L40 35L40 36L41 36L41 35L40 35L40 34L41 34L41 32L38 32L38 29L36 29L36 28L38 28L38 26L39 26L39 28L41 28L41 27L40 27L40 26L41 26L41 23L39 23L39 24L40 24L40 26L39 26L39 25L31 25L31 24L29 24L29 25L28 25L28 24L27 24L27 25L28 25L28 26L27 26L27 27L23 27L23 25L25 25L25 26L26 26L26 25L25 25L25 24L26 24L26 23L25 23L25 22L27 22L27 23L28 23L28 22L29 22L29 21L28 21L28 20L27 20L27 21L26 21L26 20L25 20L25 21L24 21L24 23L23 23L23 21L22 21L22 19L23 19L23 20L24 20L24 19L29 19L29 18L25 18L25 17L27 17L27 16L25 16L25 17L24 17L24 19L23 19L23 18L22 18L22 17L21 17L21 16L22 16L22 15L23 15L23 16L24 16L24 15L27 15L27 14L29 14L29 15L28 15L28 16L29 16L29 17L30 17L30 19L31 19L31 20L30 20L30 21L31 21L31 22L32 22L32 21L34 21L34 22L35 22L35 23L34 23L34 24L35 24L35 23L36 23L36 24L37 24L37 23L38 23L38 22L37 22L37 21L39 21L39 20L36 20L36 19L35 19L35 17L36 17L36 18L37 18L37 19L38 19L38 17L39 17L39 16L37 16L37 13L36 13L36 16L35 16L35 17L34 17L34 16L33 16L33 17L30 17L30 16L31 16L31 15L30 15L30 14L31 14L31 12L32 12L32 13L33 13L33 14L32 14L32 15L34 15L34 13L35 13L35 9L36 9L36 10L37 10L37 11L36 11L36 12L38 12L38 11L40 11L40 12L39 12L39 13L38 13L38 14L41 14L41 13L40 13L40 12L41 12L41 11L40 11L40 10L41 10L41 8L38 8L38 9L40 9L40 10L37 10L37 9L36 9L36 8L33 8L33 6L32 6L32 7L31 7L31 6L30 6L30 5L32 5L32 4L33 4L33 3L32 3L32 2L30 2L30 0L29 0L29 1L27 1L27 0L26 0L26 1L27 1L27 2L26 2L26 3L28 3L28 4L29 4L29 3L32 3L32 4L30 4L30 5L29 5L29 6L28 6L28 5L27 5L27 4L25 4L25 3L24 3L24 2L25 2L25 0L24 0L24 2L23 2L23 0L20 0L20 2L19 2L19 1L17 1L17 2L18 2L18 3L16 3L16 2L15 2L15 3L16 3L16 4L15 4L15 5L14 5L14 4L13 4L13 3L14 3L14 2L12 2L12 1L13 1L13 0L12 0L12 1L11 1L11 2L12 2L12 3L11 3L11 4L10 4L10 3L9 3L9 0ZM15 0L15 1L16 1L16 0ZM31 0L31 1L32 1L32 0ZM21 1L21 2L20 2L20 3L19 3L19 7L18 7L18 6L17 6L17 4L16 4L16 6L15 6L15 7L16 7L16 8L15 8L15 9L16 9L16 10L14 10L14 9L12 9L12 8L13 8L13 7L14 7L14 5L13 5L13 4L11 4L11 5L12 5L12 6L11 6L11 7L10 7L10 9L12 9L12 10L9 10L9 9L8 9L8 10L7 10L7 9L6 9L6 10L7 10L7 11L4 11L4 10L5 10L5 9L4 9L4 10L2 10L2 11L4 11L4 13L3 13L3 14L1 14L1 15L3 15L3 16L2 16L2 17L3 17L3 18L4 18L4 16L8 16L8 15L11 15L11 16L9 16L9 17L5 17L5 21L6 21L6 22L7 22L7 21L6 21L6 20L9 20L9 21L11 21L11 23L12 23L12 22L15 22L15 23L14 23L14 24L13 24L13 25L12 25L12 26L11 26L11 24L10 24L10 25L8 25L8 26L10 26L10 28L9 28L9 27L6 27L6 28L8 28L8 29L5 29L5 30L4 30L4 31L6 31L6 32L7 32L7 31L6 31L6 30L8 30L8 29L10 29L10 28L11 28L11 27L12 27L12 26L13 26L13 28L12 28L12 30L10 30L10 32L11 32L11 31L12 31L12 30L13 30L13 29L15 29L15 31L16 31L16 32L17 32L17 33L18 33L18 32L20 32L20 33L21 33L21 32L22 32L22 35L20 35L20 34L19 34L19 35L20 35L20 36L22 36L22 35L23 35L23 36L24 36L24 37L23 37L23 38L22 38L22 39L23 39L23 38L25 38L25 36L24 36L24 34L25 34L25 31L26 31L26 32L27 32L27 30L25 30L25 28L24 28L24 30L22 30L22 28L20 28L20 29L17 29L17 30L20 30L20 31L16 31L16 29L15 29L15 28L14 28L14 27L15 27L15 25L17 25L17 28L19 28L19 27L20 27L20 26L21 26L21 25L19 25L19 26L18 26L18 25L17 25L17 23L18 23L18 24L20 24L20 23L21 23L21 24L22 24L22 25L23 25L23 24L22 24L22 23L21 23L21 22L22 22L22 21L21 21L21 19L22 19L22 18L21 18L21 17L20 17L20 18L19 18L19 17L18 17L18 18L19 18L19 19L20 19L20 20L17 20L17 19L14 19L14 18L17 18L17 15L19 15L19 16L20 16L20 15L22 15L22 14L23 14L23 15L24 15L24 14L27 14L27 12L25 12L25 11L26 11L26 9L25 9L25 11L24 11L24 13L23 13L23 12L22 12L22 11L23 11L23 10L24 10L24 9L23 9L23 10L19 10L19 9L20 9L20 8L21 8L21 9L22 9L22 8L25 8L25 7L26 7L26 8L27 8L27 7L28 7L28 6L27 6L27 7L26 7L26 6L25 6L25 5L23 5L23 4L22 4L22 5L21 5L21 7L20 7L20 4L21 4L21 3L23 3L23 2L22 2L22 1ZM12 6L12 7L13 7L13 6ZM16 6L16 7L17 7L17 6ZM22 6L22 7L23 7L23 6ZM24 6L24 7L25 7L25 6ZM29 6L29 8L30 8L30 9L32 9L32 10L31 10L31 11L30 11L30 10L29 10L29 9L27 9L27 10L28 10L28 11L29 11L29 12L28 12L28 13L29 13L29 14L30 14L30 13L29 13L29 12L31 12L31 11L34 11L34 9L32 9L32 8L30 8L30 6ZM17 8L17 10L16 10L16 12L14 12L14 11L11 11L11 13L10 13L10 12L9 12L9 13L8 13L8 14L13 14L13 15L12 15L12 16L11 16L11 17L9 17L9 20L10 20L10 19L11 19L11 18L12 18L12 19L13 19L13 20L14 20L14 21L15 21L15 22L16 22L16 23L17 23L17 22L19 22L19 23L20 23L20 22L21 22L21 21L20 21L20 22L19 22L19 21L16 21L16 20L14 20L14 19L13 19L13 18L14 18L14 17L15 17L15 16L16 16L16 15L15 15L15 16L13 16L13 15L14 15L14 14L16 14L16 13L17 13L17 12L18 12L18 14L20 14L20 13L19 13L19 12L20 12L20 11L19 11L19 10L18 10L18 8ZM7 11L7 12L6 12L6 13L7 13L7 12L8 12L8 11ZM18 11L18 12L19 12L19 11ZM12 12L12 13L13 13L13 14L14 14L14 13L13 13L13 12ZM21 12L21 14L22 14L22 12ZM33 12L33 13L34 13L34 12ZM4 13L4 14L5 14L5 13ZM6 14L6 15L7 15L7 14ZM29 15L29 16L30 16L30 15ZM12 16L12 17L13 17L13 16ZM36 16L36 17L37 17L37 16ZM40 16L40 18L39 18L39 19L40 19L40 18L41 18L41 16ZM6 18L6 19L8 19L8 18ZM20 18L20 19L21 19L21 18ZM31 18L31 19L33 19L33 20L34 20L34 21L35 21L35 22L36 22L36 21L35 21L35 19L34 19L34 18ZM3 19L3 20L1 20L1 21L2 21L2 22L4 22L4 21L3 21L3 20L4 20L4 19ZM31 20L31 21L32 21L32 20ZM40 20L40 21L41 21L41 20ZM27 21L27 22L28 22L28 21ZM2 23L2 24L3 24L3 25L4 25L4 26L5 26L5 25L6 25L6 26L7 26L7 25L6 25L6 24L7 24L7 23L6 23L6 24L3 24L3 23ZM14 24L14 25L15 25L15 24ZM30 25L30 26L29 26L29 27L28 27L28 28L30 28L30 29L28 29L28 30L29 30L29 31L28 31L28 32L30 32L30 31L31 31L31 30L32 30L32 31L33 31L33 32L35 32L35 31L36 31L36 29L35 29L35 26L34 26L34 27L32 27L32 26L31 26L31 25ZM31 28L31 29L30 29L30 30L31 30L31 29L32 29L32 30L33 30L33 29L34 29L34 28L33 28L33 29L32 29L32 28ZM20 29L20 30L21 30L21 29ZM39 29L39 31L40 31L40 30L41 30L41 29ZM24 30L24 31L25 31L25 30ZM34 30L34 31L35 31L35 30ZM13 31L13 32L14 32L14 31ZM20 31L20 32L21 32L21 31ZM22 31L22 32L23 32L23 31ZM37 32L37 34L38 34L38 32ZM27 33L27 34L28 34L28 35L29 35L29 33ZM30 33L30 35L31 35L31 33ZM33 33L33 36L36 36L36 33ZM15 34L15 35L18 35L18 34ZM34 34L34 35L35 35L35 34ZM30 37L30 38L27 38L27 39L26 39L26 40L27 40L27 41L31 41L31 40L33 40L33 41L34 41L34 40L33 40L33 39L31 39L31 37ZM34 37L34 38L36 38L36 37ZM37 38L37 39L38 39L38 38ZM28 39L28 40L31 40L31 39ZM0 0L0 7L7 7L7 0ZM1 1L1 6L6 6L6 1ZM2 2L2 5L5 5L5 2ZM34 0L34 7L41 7L41 0ZM35 1L35 6L40 6L40 1ZM36 2L36 5L39 5L39 2ZM0 34L0 41L7 41L7 34ZM1 35L1 40L6 40L6 35ZM2 36L2 39L5 39L5 36Z" fill="#000000"/></g></g></svg>
