<?xml version="1.0" encoding="UTF-8"?>
<svg xmlns="http://www.w3.org/2000/svg" version="1.1" width="200" height="200" viewBox="0 0 200 200"><rect x="0" y="0" width="200" height="200" fill="#ffffff"/><g transform="scale(6.897)"><g transform="translate(0,0)"><path fill-rule="evenodd" d="M8 0L8 1L9 1L9 2L11 2L11 3L10 3L10 5L9 5L9 6L8 6L8 7L9 7L9 6L10 6L10 7L11 7L11 8L8 8L8 9L7 9L7 8L4 8L4 9L3 9L3 8L2 8L2 9L3 9L3 10L2 10L2 11L0 11L0 13L1 13L1 14L0 14L0 15L2 15L2 16L0 16L0 17L1 17L1 18L0 18L0 19L1 19L1 20L0 20L0 21L1 21L1 20L2 20L2 21L7 21L7 20L4 20L4 18L5 18L5 19L8 19L8 18L5 18L5 17L7 17L7 16L8 16L8 17L9 17L9 16L11 16L11 17L10 17L10 18L11 18L11 19L10 19L10 20L8 20L8 22L10 22L10 20L11 20L11 21L12 21L12 22L13 22L13 21L14 21L14 24L16 24L16 25L14 25L14 26L13 26L13 24L9 24L9 23L8 23L8 25L9 25L9 26L8 26L8 27L9 27L9 28L10 28L10 29L11 29L11 27L12 27L12 26L13 26L13 27L15 27L15 29L18 29L18 28L19 28L19 29L20 29L20 27L21 27L21 26L22 26L22 25L23 25L23 26L24 26L24 25L27 25L27 26L28 26L28 27L27 27L27 28L23 28L23 27L22 27L22 28L23 28L23 29L27 29L27 28L28 28L28 29L29 29L29 26L28 26L28 24L26 24L26 23L25 23L25 20L26 20L26 21L27 21L27 23L28 23L28 22L29 22L29 21L28 21L28 19L29 19L29 18L27 18L27 17L26 17L26 14L24 14L24 13L25 13L25 11L26 11L26 13L27 13L27 14L28 14L28 15L27 15L27 16L28 16L28 17L29 17L29 16L28 16L28 15L29 15L29 14L28 14L28 13L29 13L29 12L28 12L28 11L29 11L29 8L28 8L28 9L26 9L26 8L25 8L25 9L24 9L24 10L25 10L25 11L24 11L24 12L23 12L23 10L22 10L22 8L21 8L21 0L20 0L20 1L19 1L19 2L20 2L20 3L19 3L19 4L18 4L18 3L17 3L17 2L18 2L18 1L15 1L15 0L14 0L14 1L13 1L13 0L12 0L12 1L11 1L11 0ZM14 1L14 2L12 2L12 3L11 3L11 5L12 5L12 6L11 6L11 7L12 7L12 6L13 6L13 9L11 9L11 11L9 11L9 10L10 10L10 9L8 9L8 11L9 11L9 12L7 12L7 11L6 11L6 10L7 10L7 9L4 9L4 10L3 10L3 11L4 11L4 13L3 13L3 14L2 14L2 15L3 15L3 17L2 17L2 18L1 18L1 19L3 19L3 17L5 17L5 16L4 16L4 15L3 15L3 14L4 14L4 13L5 13L5 15L6 15L6 16L7 16L7 15L6 15L6 14L8 14L8 16L9 16L9 15L10 15L10 14L9 14L9 13L10 13L10 12L11 12L11 16L12 16L12 15L13 15L13 19L11 19L11 20L12 20L12 21L13 21L13 20L16 20L16 21L18 21L18 19L20 19L20 20L19 20L19 21L20 21L20 20L21 20L21 19L22 19L22 18L23 18L23 19L24 19L24 20L25 20L25 19L24 19L24 18L26 18L26 19L27 19L27 18L26 18L26 17L24 17L24 16L25 16L25 15L24 15L24 14L23 14L23 15L22 15L22 14L21 14L21 13L20 13L20 14L19 14L19 15L18 15L18 16L19 16L19 17L15 17L15 16L14 16L14 15L13 15L13 13L14 13L14 14L15 14L15 15L17 15L17 14L18 14L18 13L16 13L16 12L15 12L15 11L16 11L16 6L17 6L17 9L18 9L18 10L17 10L17 11L18 11L18 12L20 12L20 11L18 11L18 10L19 10L19 9L20 9L20 5L19 5L19 7L18 7L18 5L12 5L12 4L13 4L13 3L14 3L14 4L16 4L16 2L15 2L15 1ZM8 3L8 4L9 4L9 3ZM14 6L14 7L15 7L15 6ZM12 10L12 11L11 11L11 12L14 12L14 13L15 13L15 12L14 12L14 10ZM27 10L27 11L28 11L28 10ZM5 11L5 13L7 13L7 12L6 12L6 11ZM21 11L21 12L22 12L22 11ZM27 12L27 13L28 13L28 12ZM20 14L20 15L19 15L19 16L20 16L20 15L21 15L21 14ZM23 15L23 16L22 16L22 17L23 17L23 18L24 18L24 17L23 17L23 16L24 16L24 15ZM11 17L11 18L12 18L12 17ZM14 17L14 18L15 18L15 19L17 19L17 18L15 18L15 17ZM19 17L19 18L20 18L20 17ZM21 21L21 24L24 24L24 21ZM15 22L15 23L16 23L16 22ZM17 22L17 23L20 23L20 22ZM22 22L22 23L23 23L23 22ZM17 24L17 25L16 25L16 26L18 26L18 25L19 25L19 26L20 26L20 24ZM10 25L10 26L9 26L9 27L11 27L11 25ZM25 26L25 27L26 27L26 26ZM17 27L17 28L18 28L18 27ZM13 28L13 29L14 29L14 28ZM0 0L0 7L7 7L7 0ZM1 1L1 6L6 6L6 1ZM2 2L2 5L5 5L5 2ZM22 0L22 7L29 7L29 0ZM23 1L23 6L28 6L28 1ZM24 2L24 5L27 5L27 2ZM0 22L0 29L7 29L7 22ZM1 23L1 28L6 28L6 23ZM2 24L2 27L5 27L5 24Z" fill="#000000"/></g></g></svg>
