<?xml version="1.0" encoding="UTF-8"?>
<svg xmlns="http://www.w3.org/2000/svg" version="1.1" width="200" height="200" viewBox="0 0 200 200"><rect x="0" y="0" width="200" height="200" fill="#ffffff"/><g transform="scale(4.878)"><g transform="translate(0,0)"><path fill-rule="evenodd" d="M8 0L8 3L10 3L10 1L11 1L11 0L10 0L10 1L9 1L9 0ZM12 0L12 1L13 1L13 0ZM15 0L15 1L14 1L14 3L13 3L13 2L12 2L12 3L11 3L11 5L8 5L8 9L10 9L10 10L9 10L9 11L10 11L10 14L9 14L9 13L8 13L8 11L7 11L7 10L6 10L6 9L7 9L7 8L6 8L6 9L5 9L5 8L2 8L2 9L4 9L4 12L2 12L2 10L1 10L1 9L0 9L0 12L1 12L1 13L0 13L0 14L2 14L2 13L3 13L3 14L4 14L4 15L2 15L2 16L1 16L1 15L0 15L0 16L1 16L1 17L0 17L0 18L1 18L1 17L3 17L3 18L5 18L5 20L6 20L6 21L7 21L7 22L6 22L6 23L9 23L9 24L6 24L6 25L5 25L5 24L4 24L4 23L5 23L5 22L3 22L3 21L4 21L4 20L3 20L3 19L2 19L2 20L1 20L1 19L0 19L0 26L1 26L1 27L0 27L0 33L1 33L1 30L2 30L2 29L1 29L1 28L3 28L3 26L4 26L4 25L5 25L5 26L6 26L6 27L10 27L10 26L11 26L11 25L9 25L9 24L12 24L12 25L13 25L13 24L12 24L12 23L14 23L14 27L13 27L13 28L12 28L12 31L11 31L11 30L10 30L10 28L4 28L4 30L3 30L3 31L2 31L2 33L4 33L4 30L5 30L5 29L7 29L7 30L6 30L6 31L5 31L5 33L7 33L7 32L6 32L6 31L8 31L8 32L10 32L10 33L12 33L12 34L14 34L14 35L13 35L13 37L12 37L12 35L11 35L11 34L9 34L9 33L8 33L8 34L9 34L9 35L11 35L11 36L10 36L10 37L9 37L9 36L8 36L8 39L9 39L9 41L11 41L11 40L10 40L10 37L11 37L11 38L12 38L12 39L13 39L13 38L14 38L14 35L15 35L15 36L16 36L16 37L15 37L15 39L14 39L14 40L13 40L13 41L14 41L14 40L15 40L15 41L16 41L16 39L17 39L17 38L16 38L16 37L17 37L17 35L15 35L15 34L14 34L14 33L13 33L13 31L15 31L15 32L16 32L16 33L18 33L18 38L19 38L19 40L18 40L18 41L21 41L21 39L23 39L23 40L22 40L22 41L25 41L25 39L27 39L27 41L32 41L32 40L33 40L33 41L34 41L34 40L33 40L33 39L32 39L32 40L28 40L28 39L31 39L31 38L32 38L32 37L33 37L33 38L34 38L34 39L35 39L35 40L36 40L36 39L37 39L37 40L40 40L40 38L41 38L41 37L39 37L39 36L37 36L37 34L38 34L38 35L40 35L40 34L41 34L41 33L39 33L39 32L41 32L41 31L40 31L40 30L41 30L41 29L40 29L40 28L41 28L41 27L40 27L40 26L41 26L41 23L39 23L39 22L38 22L38 21L39 21L39 20L36 20L36 19L35 19L35 17L36 17L36 18L37 18L37 19L38 19L38 18L37 18L37 17L36 17L36 16L38 16L38 17L39 17L39 16L38 16L38 15L39 15L39 14L41 14L41 13L40 13L40 12L41 12L41 11L40 11L40 10L41 10L41 8L38 8L38 9L40 9L40 10L37 10L37 9L36 9L36 8L33 8L33 9L31 9L31 8L32 8L32 7L33 7L33 5L32 5L32 4L33 4L33 1L32 1L32 0L31 0L31 1L32 1L32 4L30 4L30 5L29 5L29 6L28 6L28 5L27 5L27 4L26 4L26 5L27 5L27 6L26 6L26 7L25 7L25 6L24 6L24 7L25 7L25 8L20 8L20 9L21 9L21 10L16 10L16 12L14 12L14 13L13 13L13 10L11 10L11 5L12 5L12 7L13 7L13 8L12 8L12 9L14 9L14 8L16 8L16 9L18 9L18 8L16 8L16 7L17 7L17 6L18 6L18 7L19 7L19 6L18 6L18 5L19 5L19 3L18 3L18 2L17 2L17 3L16 3L16 2L15 2L15 1L16 1L16 0ZM17 0L17 1L18 1L18 0ZM19 0L19 1L20 1L20 0ZM24 0L24 1L21 1L21 2L24 2L24 4L23 4L23 3L22 3L22 4L21 4L21 3L20 3L20 4L21 4L21 6L20 6L20 7L21 7L21 6L22 6L22 7L23 7L23 5L25 5L25 0ZM26 0L26 1L27 1L27 2L26 2L26 3L28 3L28 4L29 4L29 3L31 3L31 2L30 2L30 0L29 0L29 1L27 1L27 0ZM12 3L12 5L13 5L13 3ZM14 3L14 5L15 5L15 4L16 4L16 3ZM17 3L17 5L18 5L18 3ZM31 5L31 7L32 7L32 5ZM9 6L9 8L10 8L10 6ZM13 6L13 7L14 7L14 6ZM15 6L15 7L16 7L16 6ZM27 6L27 8L26 8L26 11L25 11L25 9L24 9L24 10L21 10L21 11L20 11L20 12L21 12L21 11L23 11L23 12L24 12L24 11L25 11L25 12L26 12L26 14L25 14L25 15L26 15L26 16L25 16L25 17L24 17L24 15L23 15L23 18L24 18L24 19L22 19L22 18L20 18L20 20L21 20L21 24L20 24L20 23L19 23L19 18L18 18L18 17L20 17L20 16L19 16L19 14L21 14L21 13L17 13L17 14L16 14L16 15L15 15L15 13L14 13L14 15L13 15L13 16L12 16L12 17L10 17L10 15L11 15L11 14L10 14L10 15L9 15L9 14L8 14L8 13L6 13L6 12L7 12L7 11L6 11L6 12L4 12L4 13L5 13L5 15L4 15L4 17L6 17L6 18L7 18L7 19L6 19L6 20L7 20L7 19L8 19L8 18L7 18L7 17L8 17L8 16L9 16L9 18L11 18L11 19L9 19L9 20L10 20L10 21L11 21L11 22L10 22L10 23L11 23L11 22L12 22L12 19L14 19L14 17L15 17L15 18L16 18L16 17L17 17L17 18L18 18L18 19L17 19L17 22L18 22L18 23L19 23L19 24L16 24L16 23L15 23L15 22L14 22L14 20L13 20L13 22L14 22L14 23L15 23L15 27L14 27L14 29L15 29L15 28L17 28L17 30L16 30L16 31L17 31L17 30L18 30L18 29L19 29L19 28L17 28L17 27L20 27L20 28L22 28L22 29L20 29L20 30L19 30L19 31L18 31L18 32L20 32L20 33L21 33L21 35L22 35L22 31L21 31L21 32L20 32L20 30L23 30L23 31L25 31L25 30L26 30L26 31L27 31L27 30L26 30L26 29L27 29L27 28L30 28L30 29L28 29L28 30L30 30L30 31L28 31L28 32L30 32L30 31L31 31L31 30L32 30L32 31L33 31L33 32L36 32L36 30L35 30L35 29L37 29L37 30L38 30L38 31L37 31L37 32L39 32L39 28L40 28L40 27L39 27L39 26L40 26L40 24L39 24L39 23L37 23L37 24L36 24L36 23L35 23L35 22L36 22L36 21L35 21L35 19L34 19L34 18L33 18L33 17L32 17L32 16L34 16L34 17L35 17L35 14L36 14L36 13L38 13L38 14L39 14L39 11L38 11L38 12L36 12L36 11L37 11L37 10L36 10L36 9L35 9L35 10L36 10L36 11L35 11L35 13L34 13L34 12L33 12L33 11L34 11L34 9L33 9L33 10L31 10L31 9L30 9L30 10L29 10L29 11L27 11L27 10L28 10L28 9L29 9L29 8L30 8L30 6L29 6L29 7L28 7L28 6ZM27 8L27 9L28 9L28 8ZM14 10L14 11L15 11L15 10ZM30 10L30 11L31 11L31 10ZM11 11L11 13L12 13L12 14L13 14L13 13L12 13L12 11ZM17 11L17 12L18 12L18 11ZM26 11L26 12L27 12L27 14L26 14L26 15L27 15L27 14L29 14L29 13L30 13L30 16L29 16L29 15L28 15L28 16L29 16L29 17L31 17L31 18L30 18L30 19L31 19L31 20L30 20L30 21L31 21L31 22L32 22L32 21L34 21L34 22L35 22L35 21L34 21L34 20L33 20L33 19L31 19L31 18L32 18L32 17L31 17L31 12L29 12L29 13L28 13L28 12L27 12L27 11ZM32 12L32 13L33 13L33 14L32 14L32 15L34 15L34 13L33 13L33 12ZM23 13L23 14L24 14L24 13ZM6 14L6 15L8 15L8 14ZM17 14L17 15L16 15L16 16L15 16L15 17L16 17L16 16L17 16L17 17L18 17L18 14ZM21 15L21 17L22 17L22 15ZM6 16L6 17L7 17L7 16ZM13 16L13 17L12 17L12 18L13 18L13 17L14 17L14 16ZM40 16L40 18L39 18L39 19L40 19L40 18L41 18L41 16ZM26 17L26 18L25 18L25 19L26 19L26 18L27 18L27 19L28 19L28 18L27 18L27 17ZM21 19L21 20L22 20L22 19ZM2 20L2 21L1 21L1 23L2 23L2 24L3 24L3 25L1 25L1 26L3 26L3 25L4 25L4 24L3 24L3 23L2 23L2 21L3 21L3 20ZM15 20L15 21L16 21L16 20ZM25 20L25 21L23 21L23 22L25 22L25 24L23 24L23 23L22 23L22 25L20 25L20 24L19 24L19 25L20 25L20 26L22 26L22 28L23 28L23 30L25 30L25 29L24 29L24 28L27 28L27 27L28 27L28 26L27 26L27 25L29 25L29 26L30 26L30 25L31 25L31 26L32 26L32 25L34 25L34 26L33 26L33 27L34 27L34 26L37 26L37 27L36 27L36 28L38 28L38 26L39 26L39 25L34 25L34 24L35 24L35 23L33 23L33 24L32 24L32 23L31 23L31 24L29 24L29 23L28 23L28 22L29 22L29 21L28 21L28 20ZM31 20L31 21L32 21L32 20ZM40 20L40 21L41 21L41 20ZM8 21L8 22L9 22L9 21ZM25 21L25 22L26 22L26 24L28 24L28 23L27 23L27 22L28 22L28 21L27 21L27 22L26 22L26 21ZM31 24L31 25L32 25L32 24ZM6 25L6 26L8 26L8 25ZM23 25L23 28L24 28L24 27L26 27L26 25L25 25L25 26L24 26L24 25ZM16 26L16 27L17 27L17 26ZM31 27L31 28L32 28L32 27ZM33 28L33 29L32 29L32 30L33 30L33 29L34 29L34 28ZM8 29L8 31L9 31L9 29ZM30 29L30 30L31 30L31 29ZM34 30L34 31L35 31L35 30ZM23 32L23 33L24 33L24 34L23 34L23 36L22 36L22 37L24 37L24 35L25 35L25 38L28 38L28 37L29 37L29 38L30 38L30 37L32 37L32 35L31 35L31 33L30 33L30 35L31 35L31 36L28 36L28 37L26 37L26 36L27 36L27 34L28 34L28 35L29 35L29 33L27 33L27 34L26 34L26 33L25 33L25 32ZM33 33L33 36L36 36L36 33ZM38 33L38 34L39 34L39 33ZM19 34L19 38L20 38L20 34ZM34 34L34 35L35 35L35 34ZM34 37L34 38L36 38L36 37ZM37 38L37 39L38 39L38 38ZM0 0L0 7L7 7L7 0ZM1 1L1 6L6 6L6 1ZM2 2L2 5L5 5L5 2ZM34 0L34 7L41 7L41 0ZM35 1L35 6L40 6L40 1ZM36 2L36 5L39 5L39 2ZM0 34L0 41L7 41L7 34ZM1 35L1 40L6 40L6 35ZM2 36L2 39L5 39L5 36Z" fill="#000000"/></g></g></svg>
