<?xml version="1.0" encoding="UTF-8"?>
<svg xmlns="http://www.w3.org/2000/svg" version="1.1" width="200" height="200" viewBox="0 0 200 200"><rect x="0" y="0" width="200" height="200" fill="#ffffff"/><g transform="scale(6.897)"><g transform="translate(0,0)"><path fill-rule="evenodd" d="M8 0L8 1L9 1L9 2L8 2L8 3L9 3L9 4L8 4L8 5L9 5L9 6L8 6L8 8L9 8L9 9L11 9L11 10L13 10L13 11L11 11L11 12L14 12L14 8L15 8L15 12L16 12L16 13L13 13L13 14L15 14L15 17L14 17L14 18L12 18L12 20L11 20L11 19L10 19L10 17L11 17L11 16L12 16L12 17L13 17L13 16L14 16L14 15L13 15L13 16L12 16L12 13L11 13L11 15L10 15L10 14L9 14L9 15L10 15L10 17L9 17L9 19L10 19L10 20L11 20L11 22L12 22L12 23L14 23L14 24L13 24L13 25L12 25L12 26L11 26L11 23L8 23L8 24L10 24L10 29L12 29L12 27L13 27L13 29L16 29L16 28L17 28L17 27L18 27L18 29L26 29L26 28L25 28L25 27L26 27L26 26L25 26L25 22L26 22L26 23L27 23L27 24L26 24L26 25L27 25L27 24L28 24L28 25L29 25L29 24L28 24L28 23L27 23L27 22L28 22L28 21L29 21L29 20L28 20L28 21L25 21L25 20L27 20L27 19L26 19L26 18L28 18L28 19L29 19L29 18L28 18L28 16L29 16L29 15L28 15L28 16L27 16L27 14L28 14L28 13L29 13L29 12L27 12L27 11L28 11L28 10L27 10L27 11L26 11L26 9L27 9L27 8L26 8L26 9L25 9L25 8L24 8L24 9L23 9L23 8L22 8L22 10L24 10L24 9L25 9L25 12L24 12L24 11L20 11L20 10L19 10L19 9L20 9L20 7L21 7L21 5L20 5L20 4L19 4L19 3L18 3L18 4L17 4L17 6L16 6L16 4L13 4L13 0L12 0L12 2L11 2L11 0ZM14 0L14 1L15 1L15 0ZM16 0L16 2L14 2L14 3L16 3L16 2L17 2L17 1L18 1L18 2L19 2L19 1L20 1L20 2L21 2L21 0L19 0L19 1L18 1L18 0ZM10 3L10 6L9 6L9 7L10 7L10 8L11 8L11 9L12 9L12 6L13 6L13 8L14 8L14 6L13 6L13 4L12 4L12 3ZM11 4L11 5L12 5L12 4ZM18 5L18 6L17 6L17 7L18 7L18 6L19 6L19 7L20 7L20 6L19 6L19 5ZM10 6L10 7L11 7L11 6ZM15 6L15 7L16 7L16 6ZM5 8L5 9L7 9L7 8ZM17 8L17 9L16 9L16 11L17 11L17 9L19 9L19 8ZM28 8L28 9L29 9L29 8ZM1 9L1 10L2 10L2 11L0 11L0 12L2 12L2 13L1 13L1 14L2 14L2 13L3 13L3 14L4 14L4 13L3 13L3 10L4 10L4 11L5 11L5 13L8 13L8 11L7 11L7 10L4 10L4 9L3 9L3 10L2 10L2 9ZM9 10L9 13L10 13L10 10ZM6 11L6 12L7 12L7 11ZM18 11L18 12L17 12L17 13L16 13L16 16L17 16L17 17L15 17L15 18L17 18L17 17L18 17L18 14L19 14L19 18L18 18L18 19L17 19L17 21L16 21L16 19L13 19L13 20L12 20L12 21L13 21L13 22L14 22L14 23L19 23L19 24L17 24L17 26L18 26L18 27L19 27L19 28L20 28L20 27L21 27L21 26L23 26L23 27L22 27L22 28L23 28L23 27L25 27L25 26L24 26L24 25L21 25L21 26L20 26L20 27L19 27L19 26L18 26L18 25L19 25L19 24L20 24L20 20L22 20L22 19L21 19L21 17L20 17L20 15L21 15L21 14L22 14L22 15L23 15L23 16L22 16L22 18L24 18L24 12L23 12L23 14L22 14L22 12L21 12L21 13L20 13L20 12L19 12L19 11ZM18 12L18 13L19 13L19 12ZM26 13L26 14L27 14L27 13ZM5 14L5 15L2 15L2 16L3 16L3 17L2 17L2 18L1 18L1 16L0 16L0 21L1 21L1 19L3 19L3 20L2 20L2 21L8 21L8 22L10 22L10 21L8 21L8 20L6 20L6 19L7 19L7 18L6 18L6 17L7 17L7 16L8 16L8 15L7 15L7 14ZM6 15L6 16L7 16L7 15ZM25 15L25 16L26 16L26 15ZM19 18L19 19L18 19L18 20L19 20L19 19L20 19L20 18ZM23 19L23 20L24 20L24 19ZM13 20L13 21L14 21L14 22L16 22L16 21L15 21L15 20ZM17 21L17 22L18 22L18 21ZM21 21L21 24L24 24L24 21ZM22 22L22 23L23 23L23 22ZM15 24L15 26L16 26L16 24ZM13 25L13 26L14 26L14 25ZM27 26L27 27L28 27L28 26ZM15 27L15 28L16 28L16 27ZM27 28L27 29L28 29L28 28ZM0 0L0 7L7 7L7 0ZM1 1L1 6L6 6L6 1ZM2 2L2 5L5 5L5 2ZM22 0L22 7L29 7L29 0ZM23 1L23 6L28 6L28 1ZM24 2L24 5L27 5L27 2ZM0 22L0 29L7 29L7 22ZM1 23L1 28L6 28L6 23ZM2 24L2 27L5 27L5 24Z" fill="#000000"/></g></g></svg>
