<?xml version="1.0" encoding="UTF-8"?>
<svg xmlns="http://www.w3.org/2000/svg" version="1.1" width="200" height="200" viewBox="0 0 200 200"><rect x="0" y="0" width="200" height="200" fill="#ffffff"/><g transform="scale(4.878)"><g transform="translate(0,0)"><path fill-rule="evenodd" d="M8 0L8 1L9 1L9 2L8 2L8 3L9 3L9 4L8 4L8 5L9 5L9 4L10 4L10 2L11 2L11 1L12 1L12 2L13 2L13 3L12 3L12 4L13 4L13 3L14 3L14 5L15 5L15 6L14 6L14 7L13 7L13 5L10 5L10 7L9 7L9 6L8 6L8 8L10 8L10 10L9 10L9 12L6 12L6 11L7 11L7 10L8 10L8 9L7 9L7 8L5 8L5 9L4 9L4 10L3 10L3 9L2 9L2 11L1 11L1 10L0 10L0 11L1 11L1 12L2 12L2 11L5 11L5 13L9 13L9 15L8 15L8 17L9 17L9 18L10 18L10 17L9 17L9 16L11 16L11 15L12 15L12 13L14 13L14 14L13 14L13 17L12 17L12 20L8 20L8 19L7 19L7 18L6 18L6 17L7 17L7 16L6 16L6 17L5 17L5 15L3 15L3 14L4 14L4 12L3 12L3 13L2 13L2 15L1 15L1 14L0 14L0 15L1 15L1 16L0 16L0 19L1 19L1 16L2 16L2 18L3 18L3 16L4 16L4 20L2 20L2 24L1 24L1 20L0 20L0 24L1 24L1 25L0 25L0 26L2 26L2 27L0 27L0 28L2 28L2 27L3 27L3 29L0 29L0 33L1 33L1 31L3 31L3 30L4 30L4 29L5 29L5 28L6 28L6 29L7 29L7 28L6 28L6 27L7 27L7 26L6 26L6 25L8 25L8 24L6 24L6 23L7 23L7 22L6 22L6 21L7 21L7 20L8 20L8 23L9 23L9 24L10 24L10 26L12 26L12 24L14 24L14 23L15 23L15 22L16 22L16 23L17 23L17 24L18 24L18 23L17 23L17 20L16 20L16 19L15 19L15 17L14 17L14 15L15 15L15 16L16 16L16 14L15 14L15 12L16 12L16 11L17 11L17 14L18 14L18 12L19 12L19 11L18 11L18 9L19 9L19 10L20 10L20 13L19 13L19 16L17 16L17 17L16 17L16 18L17 18L17 19L18 19L18 20L19 20L19 19L18 19L18 18L19 18L19 17L20 17L20 18L25 18L25 16L26 16L26 14L27 14L27 13L28 13L28 14L29 14L29 12L28 12L28 7L29 7L29 6L30 6L30 8L29 8L29 10L30 10L30 14L31 14L31 13L32 13L32 12L31 12L31 10L32 10L32 11L33 11L33 10L32 10L32 9L31 9L31 8L32 8L32 7L33 7L33 6L32 6L32 7L31 7L31 6L30 6L30 5L32 5L32 4L30 4L30 5L28 5L28 7L27 7L27 4L28 4L28 3L31 3L31 2L30 2L30 1L31 1L31 0L30 0L30 1L29 1L29 0L28 0L28 2L26 2L26 4L25 4L25 6L24 6L24 5L23 5L23 4L24 4L24 3L25 3L25 2L24 2L24 3L23 3L23 2L22 2L22 1L21 1L21 0L19 0L19 1L18 1L18 0L15 0L15 1L14 1L14 0ZM23 0L23 1L26 1L26 0ZM13 1L13 2L14 2L14 3L17 3L17 5L16 5L16 6L15 6L15 7L14 7L14 8L15 8L15 7L16 7L16 9L14 9L14 10L17 10L17 7L18 7L18 6L19 6L19 7L20 7L20 8L22 8L22 6L23 6L23 7L24 7L24 6L23 6L23 5L22 5L22 6L21 6L21 5L18 5L18 4L19 4L19 3L20 3L20 4L21 4L21 3L22 3L22 2L21 2L21 1L20 1L20 2L19 2L19 3L17 3L17 2L14 2L14 1ZM32 1L32 3L33 3L33 1ZM20 2L20 3L21 3L21 2ZM17 5L17 6L16 6L16 7L17 7L17 6L18 6L18 5ZM11 6L11 7L12 7L12 6ZM20 6L20 7L21 7L21 6ZM25 6L25 8L26 8L26 9L20 9L20 10L22 10L22 11L21 11L21 13L23 13L23 14L24 14L24 15L22 15L22 14L20 14L20 16L22 16L22 17L23 17L23 16L25 16L25 12L23 12L23 11L24 11L24 10L25 10L25 11L26 11L26 10L27 10L27 8L26 8L26 6ZM12 8L12 9L13 9L13 8ZM34 8L34 9L35 9L35 10L34 10L34 12L35 12L35 13L36 13L36 14L35 14L35 15L34 15L34 14L32 14L32 17L31 17L31 16L29 16L29 17L31 17L31 18L28 18L28 17L26 17L26 19L25 19L25 20L24 20L24 19L23 19L23 20L22 20L22 19L20 19L20 21L19 21L19 23L20 23L20 24L21 24L21 25L20 25L20 26L21 26L21 28L20 28L20 27L19 27L19 28L18 28L18 26L19 26L19 25L17 25L17 26L16 26L16 25L13 25L13 27L14 27L14 26L16 26L16 27L15 27L15 28L14 28L14 29L15 29L15 30L14 30L14 31L13 31L13 32L12 32L12 30L13 30L13 29L10 29L10 28L12 28L12 27L9 27L9 26L8 26L8 27L9 27L9 28L8 28L8 29L9 29L9 30L6 30L6 31L5 31L5 32L3 32L3 33L5 33L5 32L6 32L6 33L7 33L7 32L6 32L6 31L8 31L8 34L9 34L9 35L8 35L8 36L9 36L9 35L10 35L10 38L11 38L11 39L13 39L13 40L12 40L12 41L14 41L14 39L15 39L15 37L14 37L14 38L13 38L13 37L12 37L12 38L11 38L11 36L16 36L16 34L17 34L17 33L16 33L16 34L15 34L15 33L14 33L14 32L15 32L15 30L17 30L17 31L18 31L18 35L19 35L19 36L18 36L18 38L17 38L17 37L16 37L16 40L15 40L15 41L16 41L16 40L17 40L17 41L20 41L20 40L19 40L19 36L20 36L20 37L21 37L21 36L20 36L20 32L19 32L19 31L21 31L21 30L22 30L22 29L24 29L24 27L25 27L25 29L26 29L26 30L25 30L25 32L27 32L27 35L26 35L26 34L25 34L25 35L22 35L22 34L24 34L24 33L23 33L23 32L22 32L22 34L21 34L21 35L22 35L22 36L23 36L23 37L24 37L24 38L23 38L23 40L24 40L24 41L26 41L26 40L27 40L27 41L31 41L31 40L32 40L32 38L31 38L31 37L36 37L36 38L34 38L34 39L33 39L33 41L34 41L34 40L36 40L36 39L37 39L37 40L38 40L38 39L40 39L40 40L41 40L41 39L40 39L40 38L41 38L41 35L40 35L40 34L39 34L39 33L41 33L41 32L40 32L40 31L41 31L41 29L40 29L40 30L39 30L39 29L38 29L38 31L36 31L36 32L34 32L34 31L33 31L33 30L34 30L34 28L35 28L35 29L36 29L36 30L37 30L37 29L36 29L36 28L41 28L41 27L40 27L40 26L41 26L41 25L39 25L39 24L37 24L37 23L39 23L39 22L41 22L41 20L40 20L40 19L41 19L41 15L40 15L40 14L41 14L41 12L40 12L40 9L41 9L41 8L40 8L40 9L39 9L39 8L38 8L38 10L37 10L37 8L36 8L36 9L35 9L35 8ZM5 9L5 10L7 10L7 9ZM30 9L30 10L31 10L31 9ZM10 10L10 11L11 11L11 12L12 12L12 11L13 11L13 12L15 12L15 11L13 11L13 10L12 10L12 11L11 11L11 10ZM35 10L35 11L36 11L36 10ZM38 11L38 12L39 12L39 11ZM9 12L9 13L10 13L10 15L11 15L11 13L10 13L10 12ZM26 12L26 13L27 13L27 12ZM36 12L36 13L37 13L37 14L38 14L38 15L35 15L35 16L34 16L34 17L32 17L32 19L28 19L28 24L29 24L29 25L30 25L30 26L28 26L28 27L26 27L26 29L27 29L27 30L26 30L26 31L27 31L27 32L28 32L28 35L29 35L29 32L30 32L30 33L31 33L31 31L32 31L32 29L33 29L33 27L32 27L32 26L33 26L33 23L32 23L32 22L33 22L33 19L34 19L34 23L35 23L35 24L36 24L36 25L37 25L37 24L36 24L36 23L35 23L35 22L36 22L36 21L35 21L35 18L36 18L36 20L39 20L39 21L40 21L40 20L39 20L39 19L37 19L37 18L36 18L36 17L37 17L37 16L38 16L38 15L39 15L39 14L38 14L38 13L37 13L37 12ZM6 14L6 15L7 15L7 14ZM27 15L27 16L28 16L28 15ZM35 16L35 17L34 17L34 18L35 18L35 17L36 17L36 16ZM39 16L39 17L38 17L38 18L39 18L39 17L40 17L40 16ZM13 17L13 18L14 18L14 17ZM6 19L6 20L4 20L4 21L3 21L3 22L4 22L4 23L5 23L5 22L4 22L4 21L6 21L6 20L7 20L7 19ZM13 19L13 20L15 20L15 21L14 21L14 22L15 22L15 21L16 21L16 20L15 20L15 19ZM26 20L26 21L25 21L25 22L22 22L22 21L21 21L21 23L22 23L22 25L21 25L21 26L23 26L23 25L25 25L25 26L26 26L26 24L27 24L27 20ZM30 20L30 21L31 21L31 22L32 22L32 20ZM9 21L9 22L10 22L10 23L11 23L11 24L12 24L12 22L13 22L13 21L11 21L11 22L10 22L10 21ZM37 21L37 22L38 22L38 21ZM25 22L25 24L26 24L26 22ZM23 23L23 24L24 24L24 23ZM40 23L40 24L41 24L41 23ZM3 24L3 25L4 25L4 26L3 26L3 27L4 27L4 28L5 28L5 27L6 27L6 26L5 26L5 25L4 25L4 24ZM30 24L30 25L31 25L31 26L32 26L32 24ZM4 26L4 27L5 27L5 26ZM34 26L34 27L36 27L36 26ZM38 26L38 27L39 27L39 26ZM16 27L16 29L17 29L17 30L18 30L18 31L19 31L19 30L18 30L18 28L17 28L17 27ZM22 27L22 28L23 28L23 27ZM28 27L28 29L30 29L30 30L29 30L29 31L31 31L31 29L30 29L30 28L29 28L29 27ZM19 28L19 29L20 29L20 30L21 30L21 29L20 29L20 28ZM9 30L9 31L11 31L11 30ZM27 30L27 31L28 31L28 30ZM38 31L38 32L37 32L37 33L38 33L38 32L39 32L39 31ZM9 32L9 34L10 34L10 32ZM12 33L12 34L11 34L11 35L12 35L12 34L13 34L13 33ZM33 33L33 36L36 36L36 33ZM30 34L30 35L31 35L31 36L30 36L30 37L29 37L29 38L28 38L28 39L29 39L29 40L31 40L31 39L29 39L29 38L30 38L30 37L31 37L31 36L32 36L32 35L31 35L31 34ZM34 34L34 35L35 35L35 34ZM37 34L37 37L39 37L39 38L40 38L40 35L38 35L38 34ZM25 35L25 36L24 36L24 37L26 37L26 38L25 38L25 40L26 40L26 39L27 39L27 37L26 37L26 35ZM20 38L20 39L22 39L22 38ZM37 38L37 39L38 39L38 38ZM9 39L9 41L10 41L10 39ZM17 39L17 40L18 40L18 39ZM21 40L21 41L22 41L22 40ZM0 0L0 7L7 7L7 0ZM1 1L1 6L6 6L6 1ZM2 2L2 5L5 5L5 2ZM34 0L34 7L41 7L41 0ZM35 1L35 6L40 6L40 1ZM36 2L36 5L39 5L39 2ZM0 34L0 41L7 41L7 34ZM1 35L1 40L6 40L6 35ZM2 36L2 39L5 39L5 36Z" fill="#000000"/></g></g></svg>
