<?xml version="1.0" encoding="UTF-8"?>
<svg xmlns="http://www.w3.org/2000/svg" version="1.1" width="200" height="200" viewBox="0 0 200 200"><rect x="0" y="0" width="200" height="200" fill="#ffffff"/><g transform="scale(6.897)"><g transform="translate(0,0)"><path fill-rule="evenodd" d="M9 0L9 2L12 2L12 7L11 7L11 5L10 5L10 4L11 4L11 3L10 3L10 4L8 4L8 5L9 5L9 6L8 6L8 8L6 8L6 9L4 9L4 8L2 8L2 12L1 12L1 16L2 16L2 19L3 19L3 20L5 20L5 21L8 21L8 23L9 23L9 25L8 25L8 27L9 27L9 29L11 29L11 28L12 28L12 29L14 29L14 27L15 27L15 26L17 26L17 27L16 27L16 28L17 28L17 29L18 29L18 28L19 28L19 29L20 29L20 28L19 28L19 26L20 26L20 25L23 25L23 26L24 26L24 27L22 27L22 29L23 29L23 28L26 28L26 29L27 29L27 28L29 28L29 26L28 26L28 27L27 27L27 28L26 28L26 26L27 26L27 25L26 25L26 23L25 23L25 22L26 22L26 20L25 20L25 18L24 18L24 19L22 19L22 18L23 18L23 17L24 17L24 16L25 16L25 17L26 17L26 19L27 19L27 18L29 18L29 17L26 17L26 16L25 16L25 15L24 15L24 16L23 16L23 17L21 17L21 18L20 18L20 17L17 17L17 18L15 18L15 17L12 17L12 15L13 15L13 16L14 16L14 15L15 15L15 14L16 14L16 16L17 16L17 15L18 15L18 14L19 14L19 15L20 15L20 14L21 14L21 13L20 13L20 12L22 12L22 9L23 9L23 13L22 13L22 15L23 15L23 14L24 14L24 13L25 13L25 14L26 14L26 15L27 15L27 16L28 16L28 15L27 15L27 14L29 14L29 13L28 13L28 12L29 12L29 11L28 11L28 12L27 12L27 10L29 10L29 9L27 9L27 10L26 10L26 9L25 9L25 8L24 8L24 9L23 9L23 8L21 8L21 3L20 3L20 2L18 2L18 1L14 1L14 0L11 0L11 1L10 1L10 0ZM12 1L12 2L14 2L14 1ZM15 2L15 3L17 3L17 4L14 4L14 3L13 3L13 4L14 4L14 5L13 5L13 7L12 7L12 8L11 8L11 7L10 7L10 6L9 6L9 9L6 9L6 10L5 10L5 11L6 11L6 12L5 12L5 13L6 13L6 14L5 14L5 15L3 15L3 14L2 14L2 16L7 16L7 17L4 17L4 19L5 19L5 20L7 20L7 19L9 19L9 20L8 20L8 21L9 21L9 22L10 22L10 23L11 23L11 24L10 24L10 25L9 25L9 26L10 26L10 28L11 28L11 27L12 27L12 28L13 28L13 27L14 27L14 25L16 25L16 24L17 24L17 25L18 25L18 26L19 26L19 25L20 25L20 24L18 24L18 23L20 23L20 21L18 21L18 20L20 20L20 18L17 18L17 19L18 19L18 20L15 20L15 21L14 21L14 19L15 19L15 18L13 18L13 19L11 19L11 20L13 20L13 21L14 21L14 24L12 24L12 23L13 23L13 22L12 22L12 23L11 23L11 22L10 22L10 21L9 21L9 20L10 20L10 19L9 19L9 17L11 17L11 18L12 18L12 17L11 17L11 14L12 14L12 13L13 13L13 12L15 12L15 13L14 13L14 14L15 14L15 13L16 13L16 14L17 14L17 11L19 11L19 12L20 12L20 11L19 11L19 10L20 10L20 9L21 9L21 8L19 8L19 7L20 7L20 5L19 5L19 4L20 4L20 3L19 3L19 4L18 4L18 2ZM15 5L15 6L14 6L14 7L15 7L15 8L17 8L17 6L18 6L18 7L19 7L19 5ZM15 6L15 7L16 7L16 6ZM10 8L10 9L9 9L9 10L10 10L10 9L11 9L11 11L9 11L9 12L8 12L8 11L7 11L7 10L6 10L6 11L7 11L7 12L6 12L6 13L7 13L7 12L8 12L8 14L6 14L6 15L7 15L7 16L10 16L10 14L9 14L9 13L11 13L11 11L15 11L15 12L16 12L16 10L15 10L15 9L14 9L14 8L12 8L12 9L11 9L11 8ZM18 8L18 9L17 9L17 10L19 10L19 8ZM24 9L24 10L25 10L25 9ZM0 10L0 11L1 11L1 10ZM3 10L3 12L2 12L2 13L4 13L4 10ZM25 11L25 13L27 13L27 12L26 12L26 11ZM19 13L19 14L20 14L20 13ZM8 14L8 15L9 15L9 14ZM7 17L7 18L6 18L6 19L7 19L7 18L8 18L8 17ZM0 18L0 19L1 19L1 18ZM21 19L21 20L22 20L22 19ZM1 20L1 21L2 21L2 20ZM27 20L27 21L28 21L28 22L27 22L27 24L29 24L29 23L28 23L28 22L29 22L29 21L28 21L28 20ZM16 21L16 22L15 22L15 24L16 24L16 22L18 22L18 21ZM21 21L21 24L24 24L24 21ZM22 22L22 23L23 23L23 22ZM11 24L11 25L12 25L12 26L13 26L13 25L12 25L12 24ZM24 25L24 26L25 26L25 25ZM17 27L17 28L18 28L18 27ZM0 0L0 7L7 7L7 0ZM1 1L1 6L6 6L6 1ZM2 2L2 5L5 5L5 2ZM22 0L22 7L29 7L29 0ZM23 1L23 6L28 6L28 1ZM24 2L24 5L27 5L27 2ZM0 22L0 29L7 29L7 22ZM1 23L1 28L6 28L6 23ZM2 24L2 27L5 27L5 24Z" fill="#000000"/></g></g></svg>
