<?xml version="1.0" encoding="UTF-8"?>
<svg xmlns="http://www.w3.org/2000/svg" version="1.1" width="200" height="200" viewBox="0 0 200 200"><rect x="0" y="0" width="200" height="200" fill="#ffffff"/><g transform="scale(4.878)"><g transform="translate(0,0)"><path fill-rule="evenodd" d="M8 0L8 3L10 3L10 5L8 5L8 9L9 9L9 10L11 10L11 12L12 12L12 13L11 13L11 14L9 14L9 15L10 15L10 16L9 16L9 17L8 17L8 19L7 19L7 18L6 18L6 17L7 17L7 16L8 16L8 13L7 13L7 12L9 12L9 13L10 13L10 11L7 11L7 10L5 10L5 8L2 8L2 9L4 9L4 10L2 10L2 11L5 11L5 12L4 12L4 13L5 13L5 12L6 12L6 13L7 13L7 14L5 14L5 15L7 15L7 16L4 16L4 17L3 17L3 18L2 18L2 15L4 15L4 14L3 14L3 12L0 12L0 13L1 13L1 14L0 14L0 15L1 15L1 16L0 16L0 17L1 17L1 18L2 18L2 20L1 20L1 19L0 19L0 20L1 20L1 21L0 21L0 22L1 22L1 21L3 21L3 22L2 22L2 23L1 23L1 25L2 25L2 24L4 24L4 26L5 26L5 27L3 27L3 28L2 28L2 26L1 26L1 28L0 28L0 33L1 33L1 28L2 28L2 31L3 31L3 32L2 32L2 33L3 33L3 32L4 32L4 33L7 33L7 32L8 32L8 34L9 34L9 36L8 36L8 39L9 39L9 37L10 37L10 38L11 38L11 36L12 36L12 35L11 35L11 36L10 36L10 34L12 34L12 33L13 33L13 34L17 34L17 33L16 33L16 32L18 32L18 31L19 31L19 30L20 30L20 28L21 28L21 29L22 29L22 30L21 30L21 31L20 31L20 32L19 32L19 34L18 34L18 35L20 35L20 37L21 37L21 36L22 36L22 38L23 38L23 36L27 36L27 37L29 37L29 36L31 36L31 35L32 35L32 37L33 37L33 38L34 38L34 39L35 39L35 40L36 40L36 39L37 39L37 40L40 40L40 38L41 38L41 37L39 37L39 36L38 36L38 35L40 35L40 36L41 36L41 35L40 35L40 34L41 34L41 33L39 33L39 32L41 32L41 31L40 31L40 30L41 30L41 29L40 29L40 28L41 28L41 27L40 27L40 26L41 26L41 23L39 23L39 24L40 24L40 26L39 26L39 25L30 25L30 24L29 24L29 23L28 23L28 22L27 22L27 21L29 21L29 18L27 18L27 14L30 14L30 15L31 15L31 12L32 12L32 13L33 13L33 14L32 14L32 15L34 15L34 13L35 13L35 11L36 11L36 12L38 12L38 11L39 11L39 12L41 12L41 11L40 11L40 10L41 10L41 8L38 8L38 9L40 9L40 10L37 10L37 9L36 9L36 8L31 8L31 5L32 5L32 4L33 4L33 1L32 1L32 0L31 0L31 1L32 1L32 4L30 4L30 8L29 8L29 6L28 6L28 5L29 5L29 4L28 4L28 5L27 5L27 4L25 4L25 3L23 3L23 2L22 2L22 1L24 1L24 0L19 0L19 3L18 3L18 1L17 1L17 3L16 3L16 5L15 5L15 6L14 6L14 7L15 7L15 6L16 6L16 8L15 8L15 9L14 9L14 8L13 8L13 10L12 10L12 7L13 7L13 5L14 5L14 4L15 4L15 3L14 3L14 2L16 2L16 0L15 0L15 1L14 1L14 0L12 0L12 1L11 1L11 0ZM26 0L26 1L27 1L27 2L26 2L26 3L31 3L31 2L30 2L30 0L29 0L29 1L27 1L27 0ZM10 1L10 2L11 2L11 3L12 3L12 4L13 4L13 3L12 3L12 2L13 2L13 1L12 1L12 2L11 2L11 1ZM20 1L20 2L21 2L21 3L20 3L20 4L21 4L21 5L20 5L20 6L19 6L19 4L18 4L18 3L17 3L17 4L18 4L18 6L17 6L17 5L16 5L16 6L17 6L17 9L19 9L19 8L20 8L20 6L21 6L21 8L22 8L22 6L21 6L21 5L22 5L22 4L23 4L23 5L24 5L24 4L23 4L23 3L22 3L22 2L21 2L21 1ZM10 5L10 6L9 6L9 7L10 7L10 6L11 6L11 7L12 7L12 6L11 6L11 5ZM26 5L26 6L25 6L25 7L26 7L26 6L27 6L27 8L24 8L24 6L23 6L23 8L24 8L24 9L23 9L23 12L22 12L22 13L23 13L23 15L22 15L22 14L21 14L21 15L17 15L17 14L18 14L18 13L17 13L17 12L18 12L18 10L16 10L16 13L15 13L15 10L13 10L13 11L14 11L14 13L12 13L12 16L11 16L11 17L10 17L10 18L9 18L9 19L8 19L8 20L9 20L9 19L13 19L13 20L14 20L14 22L16 22L16 23L13 23L13 24L12 24L12 25L14 25L14 24L15 24L15 26L14 26L14 27L16 27L16 28L13 28L13 27L10 27L10 28L9 28L9 26L10 26L10 24L11 24L11 23L12 23L12 22L13 22L13 21L12 21L12 20L10 20L10 21L11 21L11 23L10 23L10 22L8 22L8 21L5 21L5 20L3 20L3 21L5 21L5 25L6 25L6 26L7 26L7 25L8 25L8 28L9 28L9 31L10 31L10 30L12 30L12 29L15 29L15 30L14 30L14 31L12 31L12 32L10 32L10 33L12 33L12 32L13 32L13 33L15 33L15 32L16 32L16 31L15 31L15 30L16 30L16 29L17 29L17 30L19 30L19 27L21 27L21 28L22 28L22 29L23 29L23 27L24 27L24 28L26 28L26 29L25 29L25 31L23 31L23 30L22 30L22 31L21 31L21 33L20 33L20 34L21 34L21 33L22 33L22 32L24 32L24 33L23 33L23 34L25 34L25 35L26 35L26 29L27 29L27 26L28 26L28 27L29 27L29 28L30 28L30 29L28 29L28 30L29 30L29 31L28 31L28 33L27 33L27 34L28 34L28 33L29 33L29 32L30 32L30 33L31 33L31 31L30 31L30 29L31 29L31 30L32 30L32 31L33 31L33 32L36 32L36 31L37 31L37 32L39 32L39 26L38 26L38 28L35 28L35 26L34 26L34 27L33 27L33 28L32 28L32 26L29 26L29 25L27 25L27 26L25 26L25 24L26 24L26 23L25 23L25 22L24 22L24 23L25 23L25 24L24 24L24 25L23 25L23 24L21 24L21 23L23 23L23 22L21 22L21 21L20 21L20 20L18 20L18 19L16 19L16 17L17 17L17 18L18 18L18 17L17 17L17 16L21 16L21 17L20 17L20 18L23 18L23 17L24 17L24 16L25 16L25 18L24 18L24 19L21 19L21 20L22 20L22 21L23 21L23 20L25 20L25 21L26 21L26 20L27 20L27 19L26 19L26 16L25 16L25 14L26 14L26 13L25 13L25 14L24 14L24 13L23 13L23 12L25 12L25 11L24 11L24 10L26 10L26 9L27 9L27 10L28 10L28 11L26 11L26 12L28 12L28 13L29 13L29 12L30 12L30 11L34 11L34 9L32 9L32 10L30 10L30 9L31 9L31 8L30 8L30 9L27 9L27 8L28 8L28 6L27 6L27 5ZM18 6L18 8L19 8L19 6ZM32 6L32 7L33 7L33 6ZM6 8L6 9L7 9L7 8ZM10 8L10 9L11 9L11 8ZM21 9L21 10L19 10L19 13L21 13L21 11L22 11L22 9ZM35 9L35 10L36 10L36 9ZM0 10L0 11L1 11L1 10ZM29 10L29 11L30 11L30 10ZM6 11L6 12L7 12L7 11ZM33 12L33 13L34 13L34 12ZM16 13L16 14L13 14L13 15L16 15L16 14L17 14L17 13ZM36 13L36 14L35 14L35 15L36 15L36 16L35 16L35 17L34 17L34 16L32 16L32 17L30 17L30 16L29 16L29 15L28 15L28 16L29 16L29 17L30 17L30 19L31 19L31 20L30 20L30 21L31 21L31 22L32 22L32 21L34 21L34 22L35 22L35 23L36 23L36 24L37 24L37 23L38 23L38 21L39 21L39 20L38 20L38 19L40 19L40 18L41 18L41 16L40 16L40 18L38 18L38 19L37 19L37 20L36 20L36 19L35 19L35 17L36 17L36 18L37 18L37 17L39 17L39 16L37 16L37 15L36 15L36 14L37 14L37 13ZM40 13L40 14L39 14L39 15L40 15L40 14L41 14L41 13ZM1 14L1 15L2 15L2 14ZM21 15L21 16L22 16L22 17L23 17L23 16L24 16L24 15L23 15L23 16L22 16L22 15ZM15 16L15 17L16 17L16 16ZM36 16L36 17L37 17L37 16ZM12 17L12 18L13 18L13 17ZM32 17L32 18L31 18L31 19L32 19L32 20L31 20L31 21L32 21L32 20L34 20L34 21L35 21L35 22L36 22L36 21L35 21L35 19L34 19L34 18L33 18L33 17ZM4 18L4 19L6 19L6 20L7 20L7 19L6 19L6 18ZM14 18L14 19L15 19L15 18ZM25 19L25 20L26 20L26 19ZM17 20L17 21L16 21L16 22L17 22L17 23L16 23L16 24L17 24L17 25L16 25L16 27L17 27L17 28L18 28L18 27L19 27L19 26L21 26L21 27L23 27L23 25L22 25L22 26L21 26L21 24L20 24L20 22L19 22L19 21L18 21L18 20ZM37 20L37 21L38 21L38 20ZM40 20L40 21L41 21L41 20ZM3 22L3 23L4 23L4 22ZM6 22L6 23L7 23L7 22ZM18 22L18 24L19 24L19 25L18 25L18 26L19 26L19 25L20 25L20 24L19 24L19 22ZM9 23L9 24L8 24L8 25L9 25L9 24L10 24L10 23ZM27 23L27 24L28 24L28 23ZM31 23L31 24L33 24L33 23ZM6 24L6 25L7 25L7 24ZM24 26L24 27L25 27L25 26ZM6 27L6 28L3 28L3 31L4 31L4 32L7 32L7 31L6 31L6 30L8 30L8 29L6 29L6 28L7 28L7 27ZM10 28L10 29L12 29L12 28ZM33 28L33 29L32 29L32 30L33 30L33 29L34 29L34 28ZM5 29L5 30L4 30L4 31L5 31L5 30L6 30L6 29ZM35 29L35 30L34 30L34 31L36 31L36 30L38 30L38 29ZM33 33L33 36L36 36L36 33ZM38 33L38 34L37 34L37 35L38 35L38 34L39 34L39 33ZM30 34L30 35L31 35L31 34ZM34 34L34 35L35 35L35 34ZM14 35L14 36L13 36L13 37L14 37L14 38L13 38L13 39L14 39L14 38L15 38L15 37L14 37L14 36L15 36L15 35ZM16 35L16 37L17 37L17 35ZM22 35L22 36L23 36L23 35ZM27 35L27 36L29 36L29 35ZM18 36L18 38L19 38L19 36ZM37 36L37 37L38 37L38 36ZM25 37L25 38L24 38L24 40L23 40L23 39L22 39L22 41L25 41L25 38L26 38L26 41L32 41L32 40L33 40L33 41L34 41L34 40L33 40L33 39L32 39L32 38L31 38L31 37L30 37L30 39L32 39L32 40L27 40L27 39L28 39L28 38L26 38L26 37ZM34 37L34 38L36 38L36 37ZM16 38L16 39L15 39L15 41L17 41L17 40L16 40L16 39L17 39L17 38ZM20 38L20 39L18 39L18 41L19 41L19 40L21 40L21 38ZM37 38L37 39L38 39L38 38ZM10 39L10 40L9 40L9 41L11 41L11 40L12 40L12 39ZM0 0L0 7L7 7L7 0ZM1 1L1 6L6 6L6 1ZM2 2L2 5L5 5L5 2ZM34 0L34 7L41 7L41 0ZM35 1L35 6L40 6L40 1ZM36 2L36 5L39 5L39 2ZM0 34L0 41L7 41L7 34ZM1 35L1 40L6 40L6 35ZM2 36L2 39L5 39L5 36Z" fill="#000000"/></g></g></svg>
