<?xml version="1.0" encoding="UTF-8"?>
<svg xmlns="http://www.w3.org/2000/svg" version="1.1" width="200" height="200" viewBox="0 0 200 200"><rect x="0" y="0" width="200" height="200" fill="#ffffff"/><g transform="scale(4.878)"><g transform="translate(0,0)"><path fill-rule="evenodd" d="M8 0L8 2L9 2L9 3L8 3L8 7L9 7L9 6L10 6L10 7L11 7L11 6L12 6L12 7L13 7L13 6L14 6L14 7L15 7L15 5L17 5L17 4L15 4L15 3L18 3L18 7L19 7L19 4L20 4L20 8L17 8L17 9L16 9L16 10L17 10L17 11L16 11L16 12L18 12L18 13L19 13L19 14L20 14L20 15L21 15L21 16L20 16L20 17L17 17L17 16L18 16L18 15L17 15L17 13L16 13L16 14L15 14L15 12L14 12L14 11L15 11L15 10L14 10L14 9L15 9L15 8L13 8L13 9L11 9L11 8L9 8L9 9L8 9L8 10L6 10L6 11L9 11L9 14L10 14L10 15L12 15L12 18L13 18L13 15L15 15L15 17L14 17L14 19L15 19L15 20L17 20L17 18L20 18L20 19L19 19L19 20L18 20L18 21L14 21L14 20L11 20L11 21L10 21L10 22L11 22L11 23L15 23L15 22L16 22L16 24L18 24L18 25L20 25L20 26L19 26L19 27L17 27L17 29L16 29L16 30L15 30L15 31L14 31L14 30L13 30L13 29L14 29L14 28L13 28L13 29L12 29L12 27L16 27L16 26L17 26L17 25L15 25L15 26L13 26L13 25L11 25L11 24L10 24L10 23L9 23L9 24L6 24L6 23L8 23L8 22L9 22L9 21L7 21L7 20L8 20L8 18L9 18L9 20L10 20L10 19L11 19L11 18L10 18L10 17L11 17L11 16L10 16L10 17L8 17L8 18L6 18L6 17L7 17L7 16L6 16L6 15L7 15L7 14L8 14L8 13L7 13L7 12L5 12L5 10L3 10L3 9L4 9L4 8L3 8L3 9L2 9L2 11L1 11L1 9L0 9L0 12L1 12L1 14L3 14L3 13L2 13L2 12L4 12L4 16L5 16L5 18L4 18L4 19L7 19L7 20L4 20L4 21L3 21L3 18L2 18L2 17L3 17L3 15L0 15L0 16L2 16L2 17L0 17L0 18L2 18L2 19L1 19L1 20L0 20L0 26L2 26L2 28L3 28L3 31L2 31L2 33L4 33L4 32L5 32L5 30L4 30L4 28L5 28L5 29L7 29L7 28L8 28L8 27L9 27L9 29L10 29L10 25L11 25L11 29L12 29L12 30L8 30L8 34L9 34L9 31L12 31L12 30L13 30L13 32L10 32L10 33L11 33L11 34L10 34L10 35L9 35L9 36L10 36L10 37L12 37L12 41L13 41L13 40L14 40L14 35L15 35L15 41L16 41L16 33L17 33L17 34L19 34L19 35L18 35L18 36L17 36L17 37L18 37L18 36L19 36L19 38L18 38L18 39L17 39L17 41L21 41L21 40L20 40L20 39L19 39L19 38L21 38L21 39L22 39L22 41L23 41L23 40L24 40L24 41L31 41L31 40L32 40L32 41L33 41L33 39L34 39L34 38L36 38L36 40L37 40L37 41L40 41L40 39L41 39L41 38L40 38L40 37L41 37L41 35L39 35L39 34L41 34L41 29L39 29L39 28L37 28L37 30L36 30L36 29L35 29L35 27L34 27L34 26L33 26L33 27L32 27L32 28L31 28L31 27L30 27L30 26L32 26L32 25L31 25L31 24L28 24L28 23L25 23L25 22L26 22L26 18L27 18L27 17L25 17L25 16L23 16L23 15L22 15L22 14L21 14L21 13L23 13L23 14L24 14L24 13L23 13L23 11L22 11L22 12L21 12L21 13L20 13L20 12L18 12L18 11L19 11L19 9L21 9L21 10L22 10L22 7L23 7L23 4L22 4L22 3L23 3L23 2L25 2L25 3L24 3L24 4L26 4L26 5L24 5L24 7L25 7L25 9L23 9L23 10L24 10L24 12L25 12L25 11L27 11L27 12L29 12L29 13L25 13L25 15L27 15L27 16L28 16L28 15L27 15L27 14L30 14L30 13L31 13L31 12L32 12L32 14L31 14L31 15L29 15L29 19L27 19L27 20L28 20L28 22L29 22L29 23L32 23L32 24L34 24L34 25L35 25L35 26L36 26L36 27L38 27L38 26L39 26L39 25L40 25L40 24L41 24L41 23L40 23L40 22L38 22L38 21L40 21L40 20L41 20L41 16L39 16L39 17L37 17L37 19L36 19L36 20L35 20L35 19L34 19L34 18L35 18L35 17L36 17L36 15L37 15L37 16L38 16L38 15L39 15L39 14L38 14L38 13L41 13L41 12L40 12L40 11L38 11L38 13L37 13L37 14L36 14L36 13L35 13L35 12L36 12L36 11L35 11L35 12L34 12L34 15L35 15L35 17L33 17L33 15L32 15L32 14L33 14L33 10L30 10L30 9L29 9L29 8L30 8L30 7L31 7L31 6L32 6L32 7L33 7L33 6L32 6L32 5L33 5L33 3L32 3L32 2L33 2L33 0L31 0L31 1L32 1L32 2L31 2L31 4L32 4L32 5L30 5L30 7L29 7L29 6L28 6L28 5L29 5L29 4L30 4L30 1L29 1L29 0L27 0L27 1L26 1L26 0L25 0L25 1L24 1L24 0L23 0L23 2L22 2L22 1L21 1L21 2L19 2L19 1L18 1L18 2L17 2L17 0L14 0L14 2L13 2L13 1L11 1L11 2L13 2L13 4L12 4L12 3L11 3L11 4L12 4L12 5L10 5L10 2L9 2L9 0ZM15 1L15 2L16 2L16 1ZM28 1L28 2L26 2L26 3L27 3L27 4L29 4L29 1ZM18 2L18 3L19 3L19 2ZM14 4L14 5L15 5L15 4ZM12 5L12 6L13 6L13 5ZM21 5L21 7L22 7L22 5ZM26 5L26 6L25 6L25 7L26 7L26 6L27 6L27 8L26 8L26 10L27 10L27 11L28 11L28 8L29 8L29 7L28 7L28 6L27 6L27 5ZM16 6L16 7L17 7L17 6ZM6 8L6 9L7 9L7 8ZM31 8L31 9L33 9L33 8ZM35 8L35 9L34 9L34 10L36 10L36 9L37 9L37 10L38 10L38 8ZM39 8L39 9L40 9L40 10L41 10L41 8ZM10 9L10 10L9 10L9 11L10 11L10 13L11 13L11 14L12 14L12 15L13 15L13 13L14 13L14 12L13 12L13 11L12 11L12 12L13 12L13 13L11 13L11 9ZM17 9L17 10L18 10L18 9ZM29 10L29 12L30 12L30 10ZM6 13L6 14L5 14L5 15L6 15L6 14L7 14L7 13ZM35 14L35 15L36 15L36 14ZM37 14L37 15L38 15L38 14ZM40 14L40 15L41 15L41 14ZM31 15L31 18L30 18L30 19L29 19L29 20L30 20L30 22L32 22L32 23L33 23L33 22L34 22L34 23L37 23L37 22L36 22L36 21L35 21L35 22L34 22L34 19L33 19L33 21L32 21L32 20L31 20L31 19L32 19L32 18L33 18L33 17L32 17L32 15ZM15 17L15 18L16 18L16 17ZM20 17L20 18L22 18L22 17ZM23 17L23 19L22 19L22 21L20 21L20 20L21 20L21 19L20 19L20 20L19 20L19 21L18 21L18 22L19 22L19 23L21 23L21 26L23 26L23 27L20 27L20 28L19 28L19 29L17 29L17 30L16 30L16 32L15 32L15 33L16 33L16 32L17 32L17 33L18 33L18 32L19 32L19 34L20 34L20 35L19 35L19 36L21 36L21 35L22 35L22 34L23 34L23 35L24 35L24 36L22 36L22 37L23 37L23 38L22 38L22 39L23 39L23 38L24 38L24 36L25 36L25 37L27 37L27 39L26 39L26 38L25 38L25 39L26 39L26 40L27 40L27 39L28 39L28 40L29 40L29 39L28 39L28 37L30 37L30 34L28 34L28 33L26 33L26 31L27 31L27 32L29 32L29 33L30 33L30 32L31 32L31 35L32 35L32 32L34 32L34 31L35 31L35 32L37 32L37 34L39 34L39 33L40 33L40 30L39 30L39 31L38 31L38 30L37 30L37 31L35 31L35 29L34 29L34 31L33 31L33 30L30 30L30 29L29 29L29 28L26 28L26 31L25 31L25 32L23 32L23 31L24 31L24 30L25 30L25 29L24 29L24 30L23 30L23 29L21 29L21 32L20 32L20 31L18 31L18 32L17 32L17 30L20 30L20 28L23 28L23 27L24 27L24 26L25 26L25 27L26 27L26 25L27 25L27 27L29 27L29 26L30 26L30 25L28 25L28 24L25 24L25 23L24 23L24 22L25 22L25 18L24 18L24 17ZM23 19L23 22L22 22L22 23L23 23L23 22L24 22L24 19ZM38 19L38 20L37 20L37 21L38 21L38 20L40 20L40 19ZM5 21L5 22L7 22L7 21ZM1 22L1 24L3 24L3 26L4 26L4 25L5 25L5 28L7 28L7 27L8 27L8 26L7 26L7 25L6 25L6 24L4 24L4 23L2 23L2 22ZM39 23L39 24L38 24L38 25L39 25L39 24L40 24L40 23ZM36 24L36 26L37 26L37 24ZM23 25L23 26L24 26L24 25ZM6 26L6 27L7 27L7 26ZM40 26L40 27L41 27L41 26ZM32 28L32 29L33 29L33 28ZM27 29L27 31L29 31L29 32L30 32L30 31L29 31L29 29ZM0 30L0 31L1 31L1 30ZM6 30L6 31L7 31L7 30ZM22 30L22 31L23 31L23 30ZM3 31L3 32L4 32L4 31ZM37 31L37 32L38 32L38 33L39 33L39 32L38 32L38 31ZM0 32L0 33L1 33L1 32ZM6 32L6 33L7 33L7 32ZM13 32L13 33L14 33L14 32ZM21 32L21 33L20 33L20 34L21 34L21 33L22 33L22 32ZM25 33L25 34L26 34L26 36L27 36L27 34L26 34L26 33ZM33 33L33 36L36 36L36 33ZM11 34L11 35L10 35L10 36L11 36L11 35L12 35L12 37L13 37L13 34ZM34 34L34 35L35 35L35 34ZM37 35L37 37L36 37L36 38L37 38L37 37L38 37L38 40L39 40L39 39L40 39L40 38L39 38L39 37L40 37L40 36L38 36L38 35ZM31 36L31 37L32 37L32 38L31 38L31 39L32 39L32 38L33 38L33 37L32 37L32 36ZM8 37L8 38L9 38L9 39L10 39L10 38L9 38L9 37ZM18 39L18 40L19 40L19 39ZM10 40L10 41L11 41L11 40ZM0 0L0 7L7 7L7 0ZM1 1L1 6L6 6L6 1ZM2 2L2 5L5 5L5 2ZM34 0L34 7L41 7L41 0ZM35 1L35 6L40 6L40 1ZM36 2L36 5L39 5L39 2ZM0 34L0 41L7 41L7 34ZM1 35L1 40L6 40L6 35ZM2 36L2 39L5 39L5 36Z" fill="#000000"/></g></g></svg>
