<?xml version="1.0" encoding="UTF-8"?>
<svg xmlns="http://www.w3.org/2000/svg" version="1.1" width="200" height="200" viewBox="0 0 200 200"><rect x="0" y="0" width="200" height="200" fill="#ffffff"/><g transform="scale(6.897)"><g transform="translate(0,0)"><path fill-rule="evenodd" d="M11 0L11 1L10 1L10 2L11 2L11 3L10 3L10 4L8 4L8 5L10 5L10 7L11 7L11 8L10 8L10 9L13 9L13 11L12 11L12 12L14 12L14 10L15 10L15 11L16 11L16 12L17 12L17 14L19 14L19 15L15 15L15 16L14 16L14 14L16 14L16 13L14 13L14 14L12 14L12 15L11 15L11 16L10 16L10 15L9 15L9 13L10 13L10 14L11 14L11 13L10 13L10 12L11 12L11 11L10 11L10 10L9 10L9 6L8 6L8 8L6 8L6 9L5 9L5 10L3 10L3 11L4 11L4 13L3 13L3 14L1 14L1 15L0 15L0 16L1 16L1 17L2 17L2 19L3 19L3 18L4 18L4 19L8 19L8 20L1 20L1 21L8 21L8 23L9 23L9 25L8 25L8 27L9 27L9 28L11 28L11 29L14 29L14 27L13 27L13 28L11 28L11 27L9 27L9 25L12 25L12 23L14 23L14 22L17 22L17 24L18 24L18 23L19 23L19 24L20 24L20 25L19 25L19 26L20 26L20 25L23 25L23 26L24 26L24 27L22 27L22 29L23 29L23 28L26 28L26 29L27 29L27 28L29 28L29 26L28 26L28 27L25 27L25 26L27 26L27 25L29 25L29 24L28 24L28 23L27 23L27 25L26 25L26 23L25 23L25 22L26 22L26 20L27 20L27 21L28 21L28 20L27 20L27 19L26 19L26 18L29 18L29 17L26 17L26 16L25 16L25 15L24 15L24 16L23 16L23 17L21 17L21 18L20 18L20 17L19 17L19 15L20 15L20 14L21 14L21 13L20 13L20 12L22 12L22 9L23 9L23 13L22 13L22 15L23 15L23 14L24 14L24 13L25 13L25 14L26 14L26 15L27 15L27 16L28 16L28 15L29 15L29 14L28 14L28 12L29 12L29 11L28 11L28 12L27 12L27 10L29 10L29 9L27 9L27 10L24 10L24 9L25 9L25 8L24 8L24 9L23 9L23 8L21 8L21 9L20 9L20 7L21 7L21 3L20 3L20 2L18 2L18 1L17 1L17 0L16 0L16 1L17 1L17 2L16 2L16 4L13 4L13 3L15 3L15 0L14 0L14 2L11 2L11 1L13 1L13 0ZM17 2L17 4L16 4L16 5L19 5L19 7L18 7L18 6L17 6L17 9L16 9L16 8L15 8L15 10L16 10L16 11L17 11L17 12L20 12L20 11L19 11L19 10L20 10L20 9L19 9L19 10L18 10L18 8L19 8L19 7L20 7L20 5L19 5L19 4L20 4L20 3L19 3L19 4L18 4L18 2ZM11 3L11 4L10 4L10 5L11 5L11 7L12 7L12 6L13 6L13 7L14 7L14 6L15 6L15 7L16 7L16 6L15 6L15 5L14 5L14 6L13 6L13 4L12 4L12 3ZM11 4L11 5L12 5L12 4ZM2 8L2 9L0 9L0 13L2 13L2 11L1 11L1 10L2 10L2 9L4 9L4 8ZM13 8L13 9L14 9L14 8ZM6 9L6 10L7 10L7 11L5 11L5 12L7 12L7 11L8 11L8 12L9 12L9 10L7 10L7 9ZM17 10L17 11L18 11L18 10ZM25 11L25 13L27 13L27 12L26 12L26 11ZM5 13L5 14L4 14L4 15L3 15L3 17L4 17L4 18L8 18L8 19L9 19L9 17L8 17L8 16L9 16L9 15L8 15L8 14L7 14L7 13ZM19 13L19 14L20 14L20 13ZM6 14L6 15L5 15L5 16L4 16L4 17L7 17L7 16L6 16L6 15L7 15L7 14ZM27 14L27 15L28 15L28 14ZM1 15L1 16L2 16L2 15ZM12 15L12 16L11 16L11 18L12 18L12 19L11 19L11 20L10 20L10 21L9 21L9 20L8 20L8 21L9 21L9 22L10 22L10 23L11 23L11 21L12 21L12 22L14 22L14 21L18 21L18 22L19 22L19 23L20 23L20 21L19 21L19 20L20 20L20 18L17 18L17 16L16 16L16 18L15 18L15 17L13 17L13 18L12 18L12 16L13 16L13 15ZM24 16L24 17L23 17L23 18L22 18L22 19L21 19L21 20L22 20L22 19L24 19L24 18L26 18L26 17L25 17L25 16ZM0 18L0 19L1 19L1 18ZM14 18L14 19L13 19L13 20L12 20L12 21L13 21L13 20L15 20L15 18ZM16 18L16 19L17 19L17 18ZM18 19L18 20L19 20L19 19ZM21 21L21 24L24 24L24 21ZM22 22L22 23L23 23L23 22ZM14 24L14 25L13 25L13 26L15 26L15 25L16 25L16 26L17 26L17 28L18 28L18 29L20 29L20 28L18 28L18 26L17 26L17 25L16 25L16 24ZM24 25L24 26L25 26L25 25ZM0 0L0 7L7 7L7 0ZM1 1L1 6L6 6L6 1ZM2 2L2 5L5 5L5 2ZM22 0L22 7L29 7L29 0ZM23 1L23 6L28 6L28 1ZM24 2L24 5L27 5L27 2ZM0 22L0 29L7 29L7 22ZM1 23L1 28L6 28L6 23ZM2 24L2 27L5 27L5 24Z" fill="#000000"/></g></g></svg>
