<?xml version="1.0" encoding="UTF-8"?>
<svg xmlns="http://www.w3.org/2000/svg" version="1.1" width="200" height="200" viewBox="0 0 200 200"><rect x="0" y="0" width="200" height="200" fill="#ffffff"/><g transform="scale(4.878)"><g transform="translate(0,0)"><path fill-rule="evenodd" d="M8 0L8 3L9 3L9 0ZM12 0L12 2L11 2L11 4L10 4L10 5L8 5L8 9L7 9L7 8L6 8L6 9L5 9L5 8L2 8L2 11L0 11L0 14L1 14L1 12L2 12L2 11L3 11L3 9L5 9L5 10L6 10L6 11L7 11L7 10L8 10L8 9L9 9L9 8L10 8L10 9L12 9L12 10L13 10L13 11L12 11L12 12L13 12L13 11L14 11L14 13L15 13L15 14L16 14L16 15L15 15L15 16L14 16L14 18L15 18L15 19L14 19L14 20L13 20L13 21L12 21L12 19L10 19L10 20L9 20L9 19L8 19L8 18L12 18L12 15L13 15L13 13L11 13L11 12L10 12L10 10L9 10L9 11L8 11L8 14L6 14L6 15L9 15L9 16L11 16L11 17L7 17L7 16L6 16L6 17L5 17L5 16L4 16L4 15L5 15L5 14L4 14L4 15L3 15L3 14L2 14L2 15L1 15L1 19L3 19L3 20L0 20L0 21L1 21L1 22L0 22L0 33L1 33L1 30L2 30L2 31L3 31L3 32L2 32L2 33L3 33L3 32L4 32L4 33L7 33L7 32L8 32L8 34L9 34L9 36L8 36L8 39L10 39L10 38L11 38L11 39L12 39L12 41L14 41L14 38L15 38L15 41L20 41L20 40L19 40L19 39L18 39L18 38L21 38L21 39L23 39L23 40L22 40L22 41L23 41L23 40L24 40L24 39L23 39L23 38L25 38L25 39L26 39L26 37L23 37L23 36L26 36L26 35L24 35L24 34L25 34L25 32L26 32L26 34L27 34L27 37L28 37L28 38L27 38L27 40L26 40L26 41L28 41L28 39L30 39L30 40L29 40L29 41L30 41L30 40L31 40L31 41L32 41L32 40L33 40L33 41L34 41L34 40L33 40L33 39L35 39L35 40L36 40L36 39L37 39L37 40L40 40L40 38L41 38L41 37L39 37L39 36L38 36L38 35L40 35L40 36L41 36L41 35L40 35L40 34L41 34L41 33L39 33L39 32L40 32L40 30L41 30L41 29L39 29L39 30L38 30L38 31L36 31L36 32L33 32L33 31L32 31L32 30L33 30L33 29L34 29L34 28L33 28L33 29L32 29L32 30L31 30L31 29L30 29L30 28L27 28L27 27L29 27L29 26L32 26L32 27L31 27L31 28L32 28L32 27L34 27L34 26L35 26L35 27L36 27L36 28L38 28L38 26L39 26L39 28L41 28L41 27L40 27L40 26L41 26L41 23L39 23L39 22L38 22L38 21L39 21L39 20L38 20L38 19L40 19L40 18L41 18L41 16L40 16L40 18L37 18L37 17L36 17L36 16L38 16L38 17L39 17L39 16L38 16L38 15L36 15L36 14L38 14L38 13L36 13L36 14L35 14L35 15L36 15L36 16L35 16L35 17L34 17L34 16L32 16L32 17L31 17L31 16L29 16L29 15L28 15L28 16L29 16L29 17L31 17L31 18L30 18L30 19L31 19L31 20L30 20L30 21L31 21L31 22L30 22L30 24L28 24L28 23L29 23L29 22L27 22L27 21L29 21L29 20L28 20L28 18L27 18L27 17L25 17L25 18L23 18L23 17L24 17L24 16L22 16L22 17L20 17L20 16L21 16L21 13L20 13L20 14L19 14L19 12L20 12L20 11L21 11L21 10L22 10L22 9L19 9L19 10L18 10L18 9L17 9L17 5L15 5L15 4L18 4L18 7L19 7L19 6L20 6L20 8L21 8L21 6L22 6L22 8L23 8L23 12L22 12L22 15L25 15L25 14L24 14L24 13L23 13L23 12L24 12L24 10L25 10L25 12L27 12L27 14L29 14L29 13L30 13L30 14L31 14L31 13L33 13L33 14L32 14L32 15L34 15L34 13L35 13L35 10L37 10L37 11L36 11L36 12L38 12L38 11L39 11L39 13L40 13L40 14L39 14L39 15L40 15L40 14L41 14L41 13L40 13L40 12L41 12L41 11L40 11L40 10L41 10L41 8L38 8L38 9L40 9L40 10L37 10L37 9L36 9L36 8L33 8L33 6L32 6L32 7L31 7L31 5L32 5L32 4L33 4L33 3L32 3L32 2L33 2L33 1L32 1L32 0L31 0L31 1L32 1L32 2L30 2L30 0L29 0L29 1L27 1L27 0L26 0L26 1L27 1L27 2L26 2L26 3L32 3L32 4L30 4L30 7L31 7L31 8L28 8L28 7L29 7L29 4L28 4L28 5L27 5L27 4L26 4L26 5L27 5L27 6L26 6L26 7L27 7L27 9L26 9L26 8L23 8L23 6L22 6L22 5L20 5L20 4L21 4L21 2L19 2L19 1L20 1L20 0L18 0L18 2L19 2L19 3L20 3L20 4L18 4L18 3L15 3L15 1L14 1L14 2L13 2L13 0ZM16 0L16 2L17 2L17 0ZM21 0L21 1L25 1L25 0ZM12 2L12 3L13 3L13 5L11 5L11 7L10 7L10 6L9 6L9 7L10 7L10 8L11 8L11 7L12 7L12 6L13 6L13 7L14 7L14 8L12 8L12 9L14 9L14 10L15 10L15 8L16 8L16 6L15 6L15 7L14 7L14 6L13 6L13 5L14 5L14 4L15 4L15 3L13 3L13 2ZM23 2L23 5L25 5L25 4L24 4L24 2ZM24 6L24 7L25 7L25 6ZM27 6L27 7L28 7L28 6ZM31 8L31 9L30 9L30 10L29 10L29 9L27 9L27 10L29 10L29 11L27 11L27 12L28 12L28 13L29 13L29 12L33 12L33 13L34 13L34 12L33 12L33 11L34 11L34 10L33 10L33 9L32 9L32 8ZM0 9L0 10L1 10L1 9ZM6 9L6 10L7 10L7 9ZM16 9L16 10L17 10L17 11L15 11L15 12L16 12L16 13L17 13L17 14L18 14L18 13L17 13L17 11L18 11L18 12L19 12L19 11L20 11L20 10L19 10L19 11L18 11L18 10L17 10L17 9ZM25 9L25 10L26 10L26 9ZM31 9L31 10L30 10L30 11L31 11L31 10L32 10L32 11L33 11L33 10L32 10L32 9ZM3 12L3 13L7 13L7 12ZM9 13L9 15L11 15L11 13ZM16 15L16 17L17 17L17 16L18 16L18 17L19 17L19 16L20 16L20 15L19 15L19 16L18 16L18 15ZM26 15L26 16L27 16L27 15ZM2 16L2 17L3 17L3 18L4 18L4 19L5 19L5 22L4 22L4 24L3 24L3 23L2 23L2 22L1 22L1 25L2 25L2 26L1 26L1 27L3 27L3 28L5 28L5 29L6 29L6 30L5 30L5 31L6 31L6 32L7 32L7 31L6 31L6 30L7 30L7 29L9 29L9 30L8 30L8 31L9 31L9 30L12 30L12 29L13 29L13 32L12 32L12 31L11 31L11 32L12 32L12 33L11 33L11 35L10 35L10 36L9 36L9 38L10 38L10 37L13 37L13 38L12 38L12 39L13 39L13 38L14 38L14 36L15 36L15 37L16 37L16 36L15 36L15 35L14 35L14 34L15 34L15 33L14 33L14 34L13 34L13 35L12 35L12 33L13 33L13 32L15 32L15 30L16 30L16 31L17 31L17 30L18 30L18 29L15 29L15 28L17 28L17 27L19 27L19 30L20 30L20 28L21 28L21 31L20 31L20 32L19 32L19 33L18 33L18 35L17 35L17 38L18 38L18 37L19 37L19 36L23 36L23 35L21 35L21 33L22 33L22 34L24 34L24 33L23 33L23 32L21 32L21 31L22 31L22 29L23 29L23 30L24 30L24 31L27 31L27 29L26 29L26 27L27 27L27 26L29 26L29 25L26 25L26 23L27 23L27 22L24 22L24 21L26 21L26 19L25 19L25 20L24 20L24 19L22 19L22 18L21 18L21 19L20 19L20 20L21 20L21 22L24 22L24 23L20 23L20 21L19 21L19 20L18 20L18 21L17 21L17 20L16 20L16 21L14 21L14 23L13 23L13 24L14 24L14 23L15 23L15 22L16 22L16 21L17 21L17 22L18 22L18 21L19 21L19 23L17 23L17 25L15 25L15 26L14 26L14 27L13 27L13 25L11 25L11 22L12 22L12 21L11 21L11 20L10 20L10 24L9 24L9 23L5 23L5 22L7 22L7 21L6 21L6 20L7 20L7 19L5 19L5 17L3 17L3 16ZM6 17L6 18L7 18L7 17ZM32 17L32 18L31 18L31 19L33 19L33 20L31 20L31 21L33 21L33 22L31 22L31 23L33 23L33 24L34 24L34 25L32 25L32 24L30 24L30 25L32 25L32 26L34 26L34 25L39 25L39 26L40 26L40 24L39 24L39 23L37 23L37 24L36 24L36 23L35 23L35 22L36 22L36 21L35 21L35 19L36 19L36 20L37 20L37 21L38 21L38 20L37 20L37 18L36 18L36 17L35 17L35 19L34 19L34 18L33 18L33 17ZM17 18L17 19L19 19L19 18ZM3 20L3 21L4 21L4 20ZM8 20L8 21L9 21L9 20ZM22 20L22 21L23 21L23 20ZM33 20L33 21L34 21L34 22L33 22L33 23L34 23L34 24L35 24L35 23L34 23L34 22L35 22L35 21L34 21L34 20ZM40 20L40 21L41 21L41 20ZM2 24L2 25L3 25L3 24ZM4 24L4 25L7 25L7 26L6 26L6 27L7 27L7 28L6 28L6 29L7 29L7 28L9 28L9 29L11 29L11 28L13 28L13 29L14 29L14 28L13 28L13 27L12 27L12 26L11 26L11 28L9 28L9 27L7 27L7 26L10 26L10 25L9 25L9 24L8 24L8 25L7 25L7 24ZM18 24L18 26L19 26L19 27L22 27L22 26L20 26L20 25L23 25L23 26L25 26L25 24L24 24L24 25L23 25L23 24ZM4 26L4 27L5 27L5 26ZM36 26L36 27L37 27L37 26ZM23 27L23 28L24 28L24 27ZM2 29L2 30L3 30L3 31L4 31L4 29ZM25 29L25 30L26 30L26 29ZM28 29L28 30L29 30L29 31L28 31L28 32L30 32L30 33L31 33L31 30L30 30L30 29ZM35 29L35 30L34 30L34 31L35 31L35 30L37 30L37 29ZM38 31L38 32L37 32L37 33L38 33L38 34L37 34L37 35L38 35L38 34L39 34L39 33L38 33L38 32L39 32L39 31ZM9 32L9 34L10 34L10 32ZM16 32L16 34L17 34L17 32ZM20 32L20 33L19 33L19 34L20 34L20 33L21 33L21 32ZM27 33L27 34L29 34L29 33ZM33 33L33 36L36 36L36 33ZM30 34L30 35L31 35L31 36L28 36L28 37L29 37L29 38L30 38L30 39L31 39L31 40L32 40L32 39L33 39L33 38L36 38L36 37L32 37L32 35L31 35L31 34ZM34 34L34 35L35 35L35 34ZM11 35L11 36L12 36L12 35ZM13 35L13 36L14 36L14 35ZM37 36L37 37L38 37L38 36ZM22 37L22 38L23 38L23 37ZM30 37L30 38L31 38L31 39L32 39L32 37ZM37 38L37 39L38 39L38 38ZM16 39L16 40L18 40L18 39ZM0 0L0 7L7 7L7 0ZM1 1L1 6L6 6L6 1ZM2 2L2 5L5 5L5 2ZM34 0L34 7L41 7L41 0ZM35 1L35 6L40 6L40 1ZM36 2L36 5L39 5L39 2ZM0 34L0 41L7 41L7 34ZM1 35L1 40L6 40L6 35ZM2 36L2 39L5 39L5 36Z" fill="#000000"/></g></g></svg>
