<?xml version="1.0" encoding="UTF-8"?>
<svg xmlns="http://www.w3.org/2000/svg" version="1.1" width="200" height="200" viewBox="0 0 200 200"><rect x="0" y="0" width="200" height="200" fill="#ffffff"/><g transform="scale(6.897)"><g transform="translate(0,0)"><path fill-rule="evenodd" d="M10 0L10 2L9 2L9 1L8 1L8 2L9 2L9 3L10 3L10 2L11 2L11 1L12 1L12 0ZM15 0L15 1L13 1L13 2L12 2L12 4L13 4L13 3L14 3L14 4L15 4L15 6L14 6L14 7L13 7L13 6L12 6L12 7L11 7L11 6L10 6L10 4L9 4L9 5L8 5L8 8L4 8L4 9L1 9L1 10L0 10L0 12L1 12L1 13L2 13L2 15L1 15L1 14L0 14L0 18L2 18L2 19L3 19L3 18L2 18L2 17L1 17L1 16L3 16L3 12L1 12L1 11L2 11L2 10L4 10L4 11L5 11L5 10L6 10L6 11L7 11L7 12L4 12L4 14L5 14L5 15L7 15L7 16L5 16L5 18L4 18L4 20L3 20L3 21L4 21L4 20L5 20L5 21L7 21L7 20L6 20L6 19L8 19L8 16L10 16L10 17L9 17L9 21L8 21L8 25L9 25L9 27L12 27L12 26L18 26L18 25L24 25L24 26L23 26L23 27L22 27L22 26L21 26L21 28L20 28L20 26L19 26L19 28L17 28L17 27L13 27L13 28L11 28L11 29L22 29L22 28L23 28L23 29L26 29L26 27L27 27L27 28L28 28L28 27L29 27L29 26L26 26L26 25L27 25L27 24L28 24L28 25L29 25L29 22L28 22L28 23L27 23L27 21L29 21L29 19L27 19L27 18L28 18L28 17L27 17L27 18L26 18L26 19L24 19L24 17L25 17L25 16L24 16L24 14L25 14L25 15L27 15L27 16L29 16L29 14L27 14L27 12L29 12L29 9L28 9L28 8L27 8L27 9L24 9L24 8L22 8L22 9L24 9L24 10L22 10L22 11L23 11L23 13L22 13L22 12L18 12L18 13L17 13L17 11L16 11L16 13L15 13L15 10L16 10L16 7L17 7L17 8L18 8L18 9L17 9L17 10L18 10L18 9L19 9L19 10L20 10L20 11L21 11L21 9L19 9L19 8L21 8L21 6L20 6L20 7L19 7L19 4L20 4L20 5L21 5L21 1L20 1L20 0L18 0L18 2L17 2L17 0ZM15 1L15 2L16 2L16 1ZM19 1L19 2L20 2L20 1ZM15 3L15 4L16 4L16 6L15 6L15 7L16 7L16 6L17 6L17 7L18 7L18 4L19 4L19 3L18 3L18 4L16 4L16 3ZM9 6L9 7L10 7L10 6ZM8 8L8 9L6 9L6 10L7 10L7 11L9 11L9 12L11 12L11 13L12 13L12 14L13 14L13 15L12 15L12 17L14 17L14 14L13 14L13 13L14 13L14 12L13 12L13 13L12 13L12 11L14 11L14 9L15 9L15 8L12 8L12 9L11 9L11 8L10 8L10 9L9 9L9 8ZM4 9L4 10L5 10L5 9ZM12 9L12 10L10 10L10 11L12 11L12 10L13 10L13 9ZM27 9L27 10L28 10L28 9ZM24 10L24 12L25 12L25 10ZM5 13L5 14L8 14L8 15L9 15L9 14L10 14L10 13ZM18 13L18 14L15 14L15 15L16 15L16 16L15 16L15 17L16 17L16 18L14 18L14 19L13 19L13 20L12 20L12 21L11 21L11 19L10 19L10 21L11 21L11 22L9 22L9 25L10 25L10 24L12 24L12 25L11 25L11 26L12 26L12 25L13 25L13 24L12 24L12 23L11 23L11 22L12 22L12 21L13 21L13 23L15 23L15 24L14 24L14 25L16 25L16 24L18 24L18 23L17 23L17 22L16 22L16 23L15 23L15 21L17 21L17 20L16 20L16 19L17 19L17 18L19 18L19 17L16 17L16 16L17 16L17 15L19 15L19 16L21 16L21 15L22 15L22 16L23 16L23 17L20 17L20 19L21 19L21 18L23 18L23 17L24 17L24 16L23 16L23 14L24 14L24 13L23 13L23 14L22 14L22 13L21 13L21 14L19 14L19 13ZM25 13L25 14L26 14L26 13ZM10 15L10 16L11 16L11 15ZM6 17L6 18L5 18L5 19L6 19L6 18L7 18L7 17ZM10 17L10 18L11 18L11 17ZM18 19L18 22L19 22L19 24L20 24L20 22L19 22L19 21L20 21L20 20L19 20L19 19ZM22 19L22 20L23 20L23 19ZM26 19L26 20L27 20L27 19ZM0 20L0 21L2 21L2 20ZM21 21L21 24L24 24L24 21ZM25 21L25 25L26 25L26 24L27 24L27 23L26 23L26 21ZM22 22L22 23L23 23L23 22ZM23 27L23 28L25 28L25 27ZM9 28L9 29L10 29L10 28ZM0 0L0 7L7 7L7 0ZM1 1L1 6L6 6L6 1ZM2 2L2 5L5 5L5 2ZM22 0L22 7L29 7L29 0ZM23 1L23 6L28 6L28 1ZM24 2L24 5L27 5L27 2ZM0 22L0 29L7 29L7 22ZM1 23L1 28L6 28L6 23ZM2 24L2 27L5 27L5 24Z" fill="#000000"/></g></g></svg>
