<?xml version="1.0" encoding="UTF-8"?>
<svg xmlns="http://www.w3.org/2000/svg" version="1.1" width="200" height="200" viewBox="0 0 200 200"><rect x="0" y="0" width="200" height="200" fill="#ffffff"/><g transform="scale(4.878)"><g transform="translate(0,0)"><path fill-rule="evenodd" d="M8 0L8 3L9 3L9 4L12 4L12 8L14 8L14 9L17 9L17 10L15 10L15 11L14 11L14 12L13 12L13 10L12 10L12 9L11 9L11 8L10 8L10 7L11 7L11 6L10 6L10 7L9 7L9 5L8 5L8 9L9 9L9 10L6 10L6 11L5 11L5 13L4 13L4 14L3 14L3 13L2 13L2 15L1 15L1 14L0 14L0 17L1 17L1 16L2 16L2 15L3 15L3 16L4 16L4 18L3 18L3 17L2 17L2 18L3 18L3 19L4 19L4 20L2 20L2 19L0 19L0 21L1 21L1 23L0 23L0 24L1 24L1 25L0 25L0 28L1 28L1 29L0 29L0 33L1 33L1 30L2 30L2 31L3 31L3 32L2 32L2 33L3 33L3 32L6 32L6 33L7 33L7 32L8 32L8 34L9 34L9 35L11 35L11 36L8 36L8 39L9 39L9 37L10 37L10 41L11 41L11 40L12 40L12 38L14 38L14 37L15 37L15 38L17 38L17 36L18 36L18 35L19 35L19 36L20 36L20 38L19 38L19 41L20 41L20 40L22 40L22 41L24 41L24 40L27 40L27 41L28 41L28 39L30 39L30 40L29 40L29 41L30 41L30 40L33 40L33 41L34 41L34 40L33 40L33 39L31 39L31 38L32 38L32 37L33 37L33 38L34 38L34 39L35 39L35 40L36 40L36 39L37 39L37 40L40 40L40 38L41 38L41 37L39 37L39 36L41 36L41 35L40 35L40 34L41 34L41 33L40 33L40 32L41 32L41 31L40 31L40 30L41 30L41 29L39 29L39 31L40 31L40 32L37 32L37 31L38 31L38 29L36 29L36 28L35 28L35 29L36 29L36 30L37 30L37 31L35 31L35 30L34 30L34 31L35 31L35 32L33 32L33 31L32 31L32 30L33 30L33 29L34 29L34 28L33 28L33 29L32 29L32 30L31 30L31 29L30 29L30 28L28 28L28 27L29 27L29 26L30 26L30 25L31 25L31 26L33 26L33 27L34 27L34 26L35 26L35 25L36 25L36 27L37 27L37 28L38 28L38 26L39 26L39 27L40 27L40 28L41 28L41 27L40 27L40 26L41 26L41 23L39 23L39 24L40 24L40 26L39 26L39 25L36 25L36 24L37 24L37 23L38 23L38 21L39 21L39 20L36 20L36 19L35 19L35 17L36 17L36 18L37 18L37 17L36 17L36 16L38 16L38 18L39 18L39 19L40 19L40 18L41 18L41 16L40 16L40 18L39 18L39 16L38 16L38 15L40 15L40 14L41 14L41 13L40 13L40 14L38 14L38 15L37 15L37 13L36 13L36 15L35 15L35 17L34 17L34 16L32 16L32 17L31 17L31 12L32 12L32 13L33 13L33 14L32 14L32 15L34 15L34 13L35 13L35 12L38 12L38 11L40 11L40 10L41 10L41 8L38 8L38 9L40 9L40 10L37 10L37 9L36 9L36 8L33 8L33 9L31 9L31 8L32 8L32 7L33 7L33 5L32 5L32 4L33 4L33 1L32 1L32 0L31 0L31 1L32 1L32 2L30 2L30 0L29 0L29 1L27 1L27 0L26 0L26 1L27 1L27 2L26 2L26 3L32 3L32 4L30 4L30 5L32 5L32 7L31 7L31 6L30 6L30 8L29 8L29 9L28 9L28 7L29 7L29 4L28 4L28 5L27 5L27 4L26 4L26 5L27 5L27 6L26 6L26 7L27 7L27 8L26 8L26 9L24 9L24 7L25 7L25 6L24 6L24 7L23 7L23 6L22 6L22 4L21 4L21 3L22 3L22 2L24 2L24 4L23 4L23 5L25 5L25 2L24 2L24 1L25 1L25 0L22 0L22 2L19 2L19 0L18 0L18 4L16 4L16 3L17 3L17 0L16 0L16 1L15 1L15 2L14 2L14 0L13 0L13 2L14 2L14 3L15 3L15 4L16 4L16 5L15 5L15 6L14 6L14 7L13 7L13 5L14 5L14 4L12 4L12 2L10 2L10 3L9 3L9 0ZM10 0L10 1L12 1L12 0ZM15 2L15 3L16 3L16 2ZM19 3L19 4L18 4L18 6L17 6L17 5L16 5L16 6L15 6L15 7L14 7L14 8L15 8L15 7L16 7L16 6L17 6L17 7L18 7L18 6L19 6L19 7L20 7L20 8L21 8L21 9L20 9L20 10L18 10L18 11L16 11L16 12L15 12L15 15L14 15L14 14L13 14L13 15L14 15L14 16L16 16L16 17L17 17L17 16L16 16L16 14L17 14L17 15L18 15L18 16L19 16L19 15L20 15L20 14L22 14L22 13L19 13L19 12L18 12L18 11L20 11L20 12L21 12L21 11L22 11L22 12L23 12L23 11L24 11L24 12L26 12L26 11L27 11L27 10L28 10L28 9L27 9L27 10L26 10L26 11L25 11L25 10L24 10L24 9L23 9L23 8L22 8L22 6L21 6L21 7L20 7L20 6L19 6L19 4L20 4L20 3ZM27 6L27 7L28 7L28 6ZM2 8L2 10L3 10L3 9L4 9L4 10L5 10L5 8ZM6 8L6 9L7 9L7 8ZM18 8L18 9L19 9L19 8ZM10 9L10 10L9 10L9 11L10 11L10 10L11 10L11 9ZM21 9L21 10L20 10L20 11L21 11L21 10L22 10L22 11L23 11L23 9ZM29 9L29 10L31 10L31 11L28 11L28 13L29 13L29 12L31 12L31 11L32 11L32 12L33 12L33 13L34 13L34 12L33 12L33 11L34 11L34 9L33 9L33 11L32 11L32 10L31 10L31 9ZM35 9L35 11L37 11L37 10L36 10L36 9ZM0 10L0 12L1 12L1 10ZM6 11L6 12L7 12L7 13L5 13L5 14L4 14L4 15L5 15L5 18L4 18L4 19L5 19L5 20L8 20L8 21L6 21L6 22L3 22L3 23L1 23L1 24L3 24L3 25L2 25L2 26L1 26L1 27L2 27L2 28L3 28L3 29L2 29L2 30L3 30L3 31L4 31L4 30L5 30L5 31L6 31L6 32L7 32L7 31L6 31L6 30L7 30L7 29L8 29L8 32L9 32L9 33L10 33L10 32L11 32L11 33L14 33L14 32L16 32L16 31L17 31L17 30L16 30L16 31L13 31L13 32L11 32L11 30L10 30L10 29L12 29L12 30L14 30L14 29L15 29L15 28L17 28L17 29L18 29L18 30L19 30L19 31L18 31L18 32L19 32L19 34L20 34L20 36L22 36L22 38L23 38L23 39L22 39L22 40L23 40L23 39L24 39L24 38L25 38L25 39L27 39L27 38L30 38L30 37L32 37L32 36L29 36L29 37L27 37L27 38L26 38L26 35L25 35L25 33L24 33L24 32L26 32L26 33L27 33L27 34L28 34L28 35L29 35L29 34L28 34L28 33L29 33L29 32L30 32L30 31L28 31L28 33L27 33L27 26L29 26L29 25L27 25L27 26L26 26L26 22L28 22L28 23L29 23L29 24L32 24L32 25L33 25L33 26L34 26L34 25L35 25L35 24L36 24L36 23L35 23L35 22L36 22L36 21L35 21L35 19L34 19L34 18L33 18L33 17L32 17L32 18L31 18L31 17L29 17L29 16L30 16L30 14L26 14L26 15L22 15L22 16L20 16L20 17L24 17L24 18L21 18L21 19L19 19L19 20L18 20L18 19L17 19L17 20L18 20L18 22L17 22L17 23L16 23L16 24L18 24L18 22L19 22L19 23L20 23L20 24L21 24L21 26L26 26L26 27L24 27L24 28L25 28L25 29L24 29L24 30L23 30L23 28L22 28L22 27L21 27L21 28L22 28L22 31L20 31L20 28L19 28L19 29L18 29L18 28L17 28L17 27L18 27L18 26L17 26L17 27L16 27L16 26L15 26L15 23L14 23L14 22L15 22L15 21L16 21L16 20L15 20L15 21L14 21L14 19L13 19L13 18L14 18L14 17L13 17L13 18L12 18L12 19L13 19L13 21L14 21L14 22L13 22L13 23L14 23L14 25L12 25L12 23L11 23L11 25L10 25L10 27L11 27L11 28L10 28L10 29L9 29L9 28L7 28L7 27L9 27L9 24L10 24L10 23L9 23L9 22L11 22L11 21L12 21L12 20L11 20L11 21L10 21L10 20L9 20L9 19L10 19L10 17L9 17L9 16L10 16L10 15L9 15L9 14L7 14L7 13L8 13L8 12L7 12L7 11ZM9 12L9 13L10 13L10 14L12 14L12 12ZM16 12L16 13L17 13L17 14L18 14L18 12ZM24 13L24 14L25 14L25 13ZM5 14L5 15L7 15L7 16L6 16L6 17L8 17L8 18L6 18L6 19L9 19L9 17L8 17L8 16L9 16L9 15L7 15L7 14ZM11 15L11 17L12 17L12 15ZM28 15L28 16L29 16L29 15ZM25 16L25 18L24 18L24 19L25 19L25 20L26 20L26 21L25 21L25 22L24 22L24 23L23 23L23 21L22 21L22 19L21 19L21 21L20 21L20 20L19 20L19 21L20 21L20 22L21 22L21 23L23 23L23 24L22 24L22 25L25 25L25 24L24 24L24 23L25 23L25 22L26 22L26 21L29 21L29 20L27 20L27 19L28 19L28 18L27 18L27 19L26 19L26 16ZM30 18L30 19L31 19L31 20L30 20L30 21L31 21L31 22L30 22L30 23L31 23L31 22L33 22L33 25L34 25L34 22L35 22L35 21L34 21L34 20L33 20L33 21L31 21L31 20L32 20L32 19L33 19L33 18L32 18L32 19L31 19L31 18ZM40 20L40 21L41 21L41 20ZM33 21L33 22L34 22L34 21ZM6 22L6 23L7 23L7 22ZM3 23L3 24L5 24L5 26L4 26L4 25L3 25L3 26L2 26L2 27L3 27L3 26L4 26L4 27L7 27L7 26L6 26L6 25L8 25L8 24L9 24L9 23L8 23L8 24L5 24L5 23ZM19 25L19 27L20 27L20 25ZM13 26L13 29L14 29L14 28L15 28L15 27L14 27L14 26ZM4 28L4 29L3 29L3 30L4 30L4 29L5 29L5 28ZM6 28L6 29L7 29L7 28ZM25 29L25 30L24 30L24 31L23 31L23 32L24 32L24 31L25 31L25 30L26 30L26 29ZM28 29L28 30L30 30L30 29ZM9 30L9 32L10 32L10 30ZM19 31L19 32L20 32L20 34L21 34L21 33L22 33L22 32L20 32L20 31ZM15 33L15 34L14 34L14 35L13 35L13 34L11 34L11 35L12 35L12 36L11 36L11 37L12 37L12 36L14 36L14 35L15 35L15 34L16 34L16 35L17 35L17 34L18 34L18 33ZM30 33L30 35L31 35L31 34L32 34L32 33ZM33 33L33 36L36 36L36 33ZM37 33L37 36L39 36L39 35L38 35L38 34L39 34L39 33ZM22 34L22 36L24 36L24 37L23 37L23 38L24 38L24 37L25 37L25 35L23 35L23 34ZM34 34L34 35L35 35L35 34ZM34 37L34 38L36 38L36 37ZM20 38L20 39L21 39L21 38ZM37 38L37 39L38 39L38 38ZM16 39L16 40L13 40L13 41L16 41L16 40L17 40L17 39ZM0 0L0 7L7 7L7 0ZM1 1L1 6L6 6L6 1ZM2 2L2 5L5 5L5 2ZM34 0L34 7L41 7L41 0ZM35 1L35 6L40 6L40 1ZM36 2L36 5L39 5L39 2ZM0 34L0 41L7 41L7 34ZM1 35L1 40L6 40L6 35ZM2 36L2 39L5 39L5 36Z" fill="#000000"/></g></g></svg>
