<?xml version="1.0" encoding="UTF-8"?>
<svg xmlns="http://www.w3.org/2000/svg" version="1.1" width="200" height="200" viewBox="0 0 200 200"><rect x="0" y="0" width="200" height="200" fill="#ffffff"/><g transform="scale(4.878)"><g transform="translate(0,0)"><path fill-rule="evenodd" d="M8 0L8 1L9 1L9 2L8 2L8 3L9 3L9 2L10 2L10 3L11 3L11 2L10 2L10 1L12 1L12 3L13 3L13 4L12 4L12 5L13 5L13 6L12 6L12 7L11 7L11 6L10 6L10 7L9 7L9 6L8 6L8 8L9 8L9 9L8 9L8 10L4 10L4 11L3 11L3 10L2 10L2 11L3 11L3 12L2 12L2 13L1 13L1 14L0 14L0 15L1 15L1 14L2 14L2 15L3 15L3 16L4 16L4 17L2 17L2 16L1 16L1 17L2 17L2 18L1 18L1 19L2 19L2 20L0 20L0 21L1 21L1 24L2 24L2 23L3 23L3 25L1 25L1 26L0 26L0 27L2 27L2 26L3 26L3 29L2 29L2 28L1 28L1 29L0 29L0 33L1 33L1 31L3 31L3 32L2 32L2 33L3 33L3 32L4 32L4 33L5 33L5 32L4 32L4 31L3 31L3 30L4 30L4 29L9 29L9 28L6 28L6 27L8 27L8 26L6 26L6 27L5 27L5 28L4 28L4 26L5 26L5 25L7 25L7 24L8 24L8 25L10 25L10 26L9 26L9 27L10 27L10 30L9 30L9 31L10 31L10 30L11 30L11 29L16 29L16 28L18 28L18 29L17 29L17 30L16 30L16 31L15 31L15 33L14 33L14 30L13 30L13 32L12 32L12 31L11 31L11 33L10 33L10 35L8 35L8 36L9 36L9 37L10 37L10 38L11 38L11 39L10 39L10 40L11 40L11 41L14 41L14 40L16 40L16 39L17 39L17 38L19 38L19 39L18 39L18 40L17 40L17 41L18 41L18 40L19 40L19 41L20 41L20 40L21 40L21 39L22 39L22 41L26 41L26 39L27 39L27 41L31 41L31 40L32 40L32 37L33 37L33 41L34 41L34 40L36 40L36 39L38 39L38 40L39 40L39 39L40 39L40 40L41 40L41 39L40 39L40 38L41 38L41 35L40 35L40 34L39 34L39 33L40 33L40 32L41 32L41 29L40 29L40 26L41 26L41 25L36 25L36 23L35 23L35 24L34 24L34 19L33 19L33 17L34 17L34 18L35 18L35 20L36 20L36 21L35 21L35 22L36 22L36 21L37 21L37 20L38 20L38 22L37 22L37 23L38 23L38 22L41 22L41 20L40 20L40 19L41 19L41 15L40 15L40 14L41 14L41 11L40 11L40 9L41 9L41 8L40 8L40 9L39 9L39 8L38 8L38 10L37 10L37 8L36 8L36 10L37 10L37 11L35 11L35 12L34 12L34 9L35 9L35 8L34 8L34 9L33 9L33 3L32 3L32 2L31 2L31 1L30 1L30 0L28 0L28 2L27 2L27 1L25 1L25 2L24 2L24 4L23 4L23 1L24 1L24 0L23 0L23 1L21 1L21 0L19 0L19 1L18 1L18 0L17 0L17 1L18 1L18 2L16 2L16 3L15 3L15 1L14 1L14 0L10 0L10 1L9 1L9 0ZM32 0L32 1L33 1L33 0ZM19 1L19 2L20 2L20 1ZM29 1L29 7L28 7L28 4L27 4L27 2L26 2L26 3L25 3L25 4L24 4L24 5L25 5L25 7L24 7L24 6L23 6L23 7L22 7L22 5L21 5L21 3L22 3L22 2L21 2L21 3L20 3L20 6L19 6L19 5L16 5L16 4L15 4L15 3L14 3L14 2L13 2L13 3L14 3L14 4L13 4L13 5L14 5L14 6L13 6L13 7L12 7L12 9L9 9L9 11L4 11L4 14L3 14L3 13L2 13L2 14L3 14L3 15L4 15L4 14L5 14L5 12L7 12L7 13L6 13L6 14L7 14L7 13L9 13L9 14L8 14L8 15L6 15L6 16L5 16L5 17L4 17L4 19L3 19L3 18L2 18L2 19L3 19L3 20L4 20L4 22L3 22L3 23L4 23L4 25L5 25L5 20L7 20L7 21L6 21L6 22L7 22L7 23L6 23L6 24L7 24L7 23L8 23L8 24L11 24L11 26L10 26L10 27L11 27L11 28L16 28L16 27L13 27L13 25L12 25L12 24L13 24L13 22L11 22L11 21L8 21L8 20L11 20L11 18L13 18L13 19L12 19L12 21L13 21L13 19L14 19L14 20L15 20L15 19L14 19L14 17L16 17L16 16L14 16L14 17L13 17L13 15L12 15L12 14L11 14L11 13L13 13L13 10L14 10L14 12L15 12L15 13L16 13L16 14L15 14L15 15L16 15L16 14L17 14L17 15L18 15L18 17L19 17L19 18L16 18L16 20L17 20L17 21L15 21L15 22L14 22L14 23L15 23L15 25L14 25L14 26L15 26L15 25L18 25L18 28L19 28L19 26L21 26L21 28L20 28L20 29L19 29L19 30L18 30L18 31L17 31L17 32L16 32L16 35L15 35L15 36L13 36L13 35L14 35L14 33L13 33L13 35L12 35L12 33L11 33L11 35L10 35L10 37L12 37L12 36L13 36L13 38L12 38L12 39L11 39L11 40L12 40L12 39L14 39L14 37L16 37L16 38L17 38L17 37L18 37L18 36L19 36L19 37L22 37L22 36L21 36L21 34L23 34L23 35L24 35L24 34L25 34L25 33L28 33L28 32L24 32L24 31L28 31L28 29L29 29L29 32L30 32L30 33L29 33L29 34L28 34L28 35L27 35L27 36L28 36L28 39L29 39L29 40L31 40L31 37L29 37L29 36L32 36L32 35L30 35L30 33L32 33L32 32L33 32L33 31L34 31L34 32L40 32L40 31L39 31L39 30L40 30L40 29L39 29L39 28L36 28L36 29L34 29L34 28L35 28L35 27L34 27L34 24L33 24L33 23L32 23L32 22L31 22L31 23L29 23L29 22L30 22L30 21L32 21L32 19L31 19L31 18L29 18L29 16L30 16L30 17L31 17L31 14L32 14L32 17L33 17L33 14L32 14L32 13L31 13L31 14L30 14L30 11L29 11L29 10L31 10L31 11L32 11L32 12L33 12L33 11L32 11L32 10L31 10L31 9L32 9L32 8L31 8L31 9L29 9L29 10L28 10L28 11L29 11L29 12L28 12L28 13L27 13L27 14L30 14L30 15L29 15L29 16L28 16L28 15L27 15L27 16L28 16L28 19L27 19L27 17L26 17L26 16L25 16L25 15L26 15L26 12L27 12L27 9L26 9L26 12L25 12L25 13L24 13L24 12L23 12L23 11L25 11L25 9L24 9L24 10L23 10L23 9L22 9L22 10L21 10L21 11L18 11L18 10L19 10L19 9L21 9L21 8L23 8L23 7L24 7L24 8L26 8L26 6L27 6L27 8L30 8L30 5L31 5L31 7L32 7L32 5L31 5L31 4L32 4L32 3L31 3L31 2L30 2L30 1ZM17 3L17 4L18 4L18 3ZM30 3L30 4L31 4L31 3ZM8 4L8 5L11 5L11 4ZM14 4L14 5L15 5L15 6L14 6L14 7L13 7L13 8L14 8L14 7L15 7L15 6L16 6L16 7L17 7L17 8L16 8L16 9L14 9L14 10L18 10L18 7L19 7L19 8L20 8L20 7L21 7L21 6L20 6L20 7L19 7L19 6L18 6L18 7L17 7L17 6L16 6L16 5L15 5L15 4ZM5 8L5 9L7 9L7 8ZM10 10L10 12L12 12L12 11L11 11L11 10ZM0 11L0 12L1 12L1 11ZM15 11L15 12L16 12L16 13L17 13L17 12L18 12L18 11L17 11L17 12L16 12L16 11ZM21 11L21 13L20 13L20 12L19 12L19 13L18 13L18 14L19 14L19 13L20 13L20 15L21 15L21 16L19 16L19 17L23 17L23 16L24 16L24 19L22 19L22 18L21 18L21 19L20 19L20 20L18 20L18 21L17 21L17 22L16 22L16 24L18 24L18 25L20 25L20 24L22 24L22 27L24 27L24 28L23 28L23 29L24 29L24 30L22 30L22 31L21 31L21 33L20 33L20 32L19 32L19 33L18 33L18 32L17 32L17 33L18 33L18 34L19 34L19 35L20 35L20 34L21 34L21 33L23 33L23 34L24 34L24 33L23 33L23 31L24 31L24 30L25 30L25 29L24 29L24 28L27 28L27 29L28 29L28 28L29 28L29 29L30 29L30 31L32 31L32 30L31 30L31 29L30 29L30 28L29 28L29 26L33 26L33 24L32 24L32 25L29 25L29 26L28 26L28 24L29 24L29 23L28 23L28 22L29 22L29 20L31 20L31 19L28 19L28 20L27 20L27 19L26 19L26 18L25 18L25 16L24 16L24 13L23 13L23 12L22 12L22 11ZM38 11L38 12L39 12L39 11ZM36 12L36 13L34 13L34 15L35 15L35 16L34 16L34 17L35 17L35 18L36 18L36 20L37 20L37 18L39 18L39 17L40 17L40 16L39 16L39 17L37 17L37 16L38 16L38 15L35 15L35 14L36 14L36 13L37 13L37 14L39 14L39 13L37 13L37 12ZM10 14L10 16L11 16L11 17L12 17L12 15L11 15L11 14ZM21 14L21 15L22 15L22 16L23 16L23 15L22 15L22 14ZM6 16L6 17L5 17L5 18L6 18L6 19L7 19L7 20L8 20L8 19L9 19L9 18L10 18L10 17L9 17L9 18L8 18L8 16ZM35 16L35 17L36 17L36 18L37 18L37 17L36 17L36 16ZM6 17L6 18L7 18L7 17ZM4 19L4 20L5 20L5 19ZM25 19L25 20L24 20L24 21L25 21L25 22L24 22L24 23L22 23L22 24L24 24L24 25L23 25L23 26L24 26L24 27L25 27L25 26L24 26L24 25L26 25L26 26L27 26L27 24L28 24L28 23L26 23L26 22L27 22L27 20L26 20L26 19ZM38 19L38 20L39 20L39 21L40 21L40 20L39 20L39 19ZM21 20L21 21L19 21L19 22L22 22L22 21L23 21L23 20ZM25 20L25 21L26 21L26 20ZM7 21L7 22L8 22L8 23L9 23L9 22L8 22L8 21ZM17 22L17 23L18 23L18 24L20 24L20 23L18 23L18 22ZM11 23L11 24L12 24L12 23ZM24 23L24 24L26 24L26 23ZM39 23L39 24L41 24L41 23ZM11 26L11 27L12 27L12 26ZM38 26L38 27L39 27L39 26ZM27 27L27 28L28 28L28 27ZM31 27L31 28L32 28L32 29L33 29L33 28L32 28L32 27ZM36 29L36 31L38 31L38 29ZM5 30L5 31L7 31L7 30ZM19 30L19 31L20 31L20 30ZM6 32L6 33L7 33L7 32ZM8 33L8 34L9 34L9 33ZM33 33L33 36L36 36L36 33ZM37 33L37 34L38 34L38 33ZM34 34L34 35L35 35L35 34ZM11 35L11 36L12 36L12 35ZM28 35L28 36L29 36L29 35ZM38 35L38 39L39 39L39 38L40 38L40 35ZM16 36L16 37L17 37L17 36ZM23 36L23 37L24 37L24 40L25 40L25 39L26 39L26 36L25 36L25 37L24 37L24 36ZM34 37L34 38L36 38L36 37ZM22 38L22 39L23 39L23 38ZM0 0L0 7L7 7L7 0ZM1 1L1 6L6 6L6 1ZM2 2L2 5L5 5L5 2ZM34 0L34 7L41 7L41 0ZM35 1L35 6L40 6L40 1ZM36 2L36 5L39 5L39 2ZM0 34L0 41L7 41L7 34ZM1 35L1 40L6 40L6 35ZM2 36L2 39L5 39L5 36Z" fill="#000000"/></g></g></svg>
