<?xml version="1.0" encoding="UTF-8"?>
<svg xmlns="http://www.w3.org/2000/svg" version="1.1" width="200" height="200" viewBox="0 0 200 200"><rect x="0" y="0" width="200" height="200" fill="#ffffff"/><g transform="scale(4.878)"><g transform="translate(0,0)"><path fill-rule="evenodd" d="M8 0L8 3L9 3L9 5L8 5L8 9L7 9L7 8L6 8L6 9L5 9L5 8L2 8L2 11L0 11L0 12L1 12L1 13L0 13L0 16L1 16L1 17L2 17L2 18L0 18L0 21L1 21L1 23L2 23L2 21L3 21L3 25L4 25L4 24L5 24L5 22L6 22L6 23L7 23L7 24L6 24L6 25L5 25L5 26L4 26L4 27L3 27L3 26L2 26L2 27L1 27L1 25L2 25L2 24L1 24L1 25L0 25L0 27L1 27L1 28L2 28L2 27L3 27L3 28L5 28L5 30L6 30L6 31L7 31L7 32L6 32L6 33L8 33L8 34L9 34L9 35L10 35L10 34L12 34L12 33L13 33L13 35L11 35L11 36L10 36L10 37L11 37L11 36L12 36L12 38L13 38L13 39L11 39L11 38L9 38L9 36L8 36L8 39L10 39L10 40L11 40L11 41L14 41L14 40L15 40L15 39L17 39L17 37L18 37L18 39L20 39L20 40L16 40L16 41L21 41L21 38L20 38L20 37L22 37L22 38L25 38L25 37L22 37L22 36L24 36L24 34L23 34L23 33L24 33L24 31L26 31L26 32L25 32L25 34L26 34L26 33L27 33L27 31L26 31L26 30L29 30L29 31L28 31L28 33L30 33L30 35L32 35L32 37L31 37L31 36L30 36L30 37L31 37L31 38L30 38L30 40L27 40L27 39L28 39L28 38L29 38L29 37L28 37L28 35L29 35L29 34L27 34L27 35L25 35L25 36L27 36L27 37L26 37L26 40L24 40L24 41L32 41L32 40L33 40L33 41L34 41L34 40L33 40L33 39L32 39L32 37L33 37L33 38L34 38L34 39L35 39L35 40L36 40L36 39L37 39L37 38L38 38L38 39L39 39L39 40L40 40L40 38L41 38L41 37L39 37L39 36L38 36L38 35L37 35L37 34L38 34L38 33L39 33L39 35L40 35L40 36L41 36L41 35L40 35L40 34L41 34L41 33L39 33L39 32L37 32L37 31L38 31L38 29L36 29L36 28L38 28L38 26L39 26L39 28L40 28L40 26L41 26L41 23L40 23L40 26L39 26L39 24L37 24L37 25L36 25L36 23L35 23L35 25L34 25L34 24L32 24L32 23L30 23L30 24L29 24L29 23L28 23L28 22L29 22L29 21L28 21L28 22L27 22L27 23L26 23L26 25L28 25L28 26L25 26L25 24L23 24L23 25L22 25L22 27L25 27L25 29L24 29L24 28L23 28L23 29L24 29L24 30L23 30L23 32L22 32L22 34L23 34L23 35L22 35L22 36L20 36L20 34L21 34L21 31L22 31L22 28L21 28L21 25L19 25L19 26L20 26L20 29L21 29L21 31L20 31L20 30L19 30L19 27L18 27L18 24L17 24L17 23L19 23L19 21L18 21L18 19L19 19L19 18L20 18L20 17L19 17L19 15L20 15L20 16L21 16L21 19L23 19L23 16L24 16L24 17L25 17L25 16L24 16L24 14L25 14L25 15L26 15L26 16L27 16L27 17L28 17L28 15L29 15L29 14L28 14L28 13L30 13L30 15L31 15L31 17L30 17L30 16L29 16L29 18L24 18L24 19L26 19L26 20L28 20L28 19L29 19L29 20L32 20L32 21L30 21L30 22L32 22L32 21L34 21L34 22L36 22L36 21L38 21L38 22L37 22L37 23L38 23L38 22L39 22L39 20L36 20L36 19L35 19L35 17L36 17L36 18L37 18L37 19L39 19L39 18L41 18L41 16L40 16L40 17L39 17L39 16L37 16L37 15L38 15L38 13L36 13L36 14L35 14L35 15L36 15L36 16L35 16L35 17L34 17L34 16L33 16L33 15L34 15L34 14L33 14L33 13L34 13L34 12L33 12L33 11L34 11L34 10L37 10L37 11L36 11L36 12L38 12L38 11L40 11L40 10L41 10L41 8L38 8L38 9L40 9L40 10L37 10L37 9L36 9L36 8L32 8L32 7L33 7L33 6L32 6L32 7L31 7L31 6L30 6L30 7L31 7L31 8L32 8L32 9L30 9L30 8L28 8L28 7L29 7L29 4L28 4L28 5L26 5L26 8L25 8L25 6L24 6L24 5L25 5L25 4L23 4L23 3L26 3L26 4L27 4L27 3L29 3L29 1L27 1L27 0L22 0L22 1L21 1L21 2L22 2L22 1L23 1L23 3L22 3L22 4L21 4L21 5L23 5L23 6L22 6L22 8L21 8L21 9L22 9L22 10L20 10L20 12L19 12L19 11L18 11L18 9L20 9L20 8L19 8L19 6L20 6L20 7L21 7L21 6L20 6L20 5L19 5L19 6L18 6L18 7L17 7L17 4L18 4L18 3L17 3L17 2L18 2L18 1L17 1L17 0L16 0L16 1L15 1L15 2L14 2L14 3L15 3L15 6L14 6L14 7L13 7L13 6L12 6L12 5L14 5L14 4L12 4L12 3L11 3L11 1L12 1L12 0L11 0L11 1L10 1L10 0ZM19 0L19 4L20 4L20 0ZM30 0L30 2L31 2L31 1L32 1L32 2L33 2L33 0ZM16 1L16 2L15 2L15 3L16 3L16 2L17 2L17 1ZM24 1L24 2L25 2L25 1ZM9 2L9 3L10 3L10 4L11 4L11 3L10 3L10 2ZM26 2L26 3L27 3L27 2ZM30 3L30 4L31 4L31 5L33 5L33 4L31 4L31 3ZM9 6L9 8L10 8L10 6ZM11 6L11 9L10 9L10 10L9 10L9 11L10 11L10 12L11 12L11 13L13 13L13 14L10 14L10 13L9 13L9 14L10 14L10 17L11 17L11 18L13 18L13 17L14 17L14 19L12 19L12 20L11 20L11 19L10 19L10 18L8 18L8 17L9 17L9 16L8 16L8 17L6 17L6 16L7 16L7 15L6 15L6 16L5 16L5 15L4 15L4 14L5 14L5 12L7 12L7 11L6 11L6 10L7 10L7 9L6 9L6 10L5 10L5 9L4 9L4 10L3 10L3 11L5 11L5 12L2 12L2 14L1 14L1 16L2 16L2 15L4 15L4 16L3 16L3 18L2 18L2 20L3 20L3 19L4 19L4 21L5 21L5 19L4 19L4 18L7 18L7 19L6 19L6 20L7 20L7 21L6 21L6 22L7 22L7 23L8 23L8 24L7 24L7 25L6 25L6 26L5 26L5 28L7 28L7 27L6 27L6 26L8 26L8 24L9 24L9 22L10 22L10 23L12 23L12 24L13 24L13 25L9 25L9 26L10 26L10 27L9 27L9 28L8 28L8 30L7 30L7 29L6 29L6 30L7 30L7 31L8 31L8 32L11 32L11 31L12 31L12 30L11 30L11 29L10 29L10 30L9 30L9 28L13 28L13 27L14 27L14 29L16 29L16 28L15 28L15 27L16 27L16 26L17 26L17 24L16 24L16 23L17 23L17 22L18 22L18 21L15 21L15 20L14 20L14 19L16 19L16 20L17 20L17 19L18 19L18 17L17 17L17 16L18 16L18 14L20 14L20 15L21 15L21 16L22 16L22 15L23 15L23 14L24 14L24 13L25 13L25 14L26 14L26 15L27 15L27 14L26 14L26 13L27 13L27 11L26 11L26 10L28 10L28 11L29 11L29 12L31 12L31 14L32 14L32 15L33 15L33 14L32 14L32 13L33 13L33 12L32 12L32 10L33 10L33 9L32 9L32 10L31 10L31 11L29 11L29 10L30 10L30 9L27 9L27 8L26 8L26 9L25 9L25 8L24 8L24 6L23 6L23 9L25 9L25 11L24 11L24 12L23 12L23 13L22 13L22 11L21 11L21 14L20 14L20 13L19 13L19 12L18 12L18 13L16 13L16 12L17 12L17 9L15 9L15 8L17 8L17 7L16 7L16 6L15 6L15 8L12 8L12 6ZM27 6L27 7L28 7L28 6ZM12 9L12 10L11 10L11 12L12 12L12 11L13 11L13 13L14 13L14 11L16 11L16 10L14 10L14 9ZM13 10L13 11L14 11L14 10ZM25 11L25 12L26 12L26 11ZM39 12L39 14L41 14L41 13L40 13L40 12ZM6 13L6 14L7 14L7 13ZM14 14L14 15L12 15L12 16L11 16L11 17L12 17L12 16L14 16L14 15L15 15L15 14ZM16 14L16 16L17 16L17 14ZM21 14L21 15L22 15L22 14ZM4 16L4 17L5 17L5 16ZM36 16L36 17L37 17L37 18L39 18L39 17L37 17L37 16ZM32 17L32 18L30 18L30 19L32 19L32 20L34 20L34 21L36 21L36 20L35 20L35 19L34 19L34 18L33 18L33 17ZM16 18L16 19L17 19L17 18ZM32 18L32 19L33 19L33 18ZM8 19L8 21L7 21L7 22L9 22L9 20L10 20L10 19ZM12 20L12 21L14 21L14 20ZM21 20L21 21L20 21L20 22L21 22L21 23L22 23L22 22L21 22L21 21L22 21L22 20ZM23 20L23 22L24 22L24 20ZM40 20L40 21L41 21L41 20ZM25 21L25 22L26 22L26 21ZM14 22L14 23L13 23L13 24L14 24L14 25L13 25L13 26L14 26L14 25L16 25L16 24L14 24L14 23L16 23L16 22ZM28 24L28 25L29 25L29 24ZM31 24L31 25L30 25L30 26L29 26L29 27L27 27L27 28L28 28L28 29L29 29L29 30L30 30L30 31L29 31L29 32L30 32L30 33L32 33L32 32L36 32L36 31L34 31L34 30L36 30L36 29L34 29L34 28L33 28L33 27L34 27L34 25L32 25L32 24ZM31 25L31 26L32 26L32 25ZM35 25L35 26L36 26L36 27L35 27L35 28L36 28L36 27L37 27L37 26L36 26L36 25ZM31 27L31 28L32 28L32 29L33 29L33 30L32 30L32 31L33 31L33 30L34 30L34 29L33 29L33 28L32 28L32 27ZM17 28L17 30L13 30L13 31L16 31L16 32L14 32L14 33L16 33L16 32L17 32L17 33L18 33L18 34L16 34L16 35L19 35L19 33L18 33L18 32L20 32L20 31L19 31L19 30L18 30L18 28ZM29 28L29 29L30 29L30 30L31 30L31 29L30 29L30 28ZM0 29L0 33L1 33L1 29ZM2 29L2 30L3 30L3 31L2 31L2 32L3 32L3 31L4 31L4 32L5 32L5 31L4 31L4 30L3 30L3 29ZM39 29L39 31L40 31L40 30L41 30L41 29ZM8 30L8 31L9 31L9 30ZM17 31L17 32L18 32L18 31ZM30 31L30 32L31 32L31 31ZM33 33L33 36L36 36L36 33ZM34 34L34 35L35 35L35 34ZM14 35L14 36L13 36L13 37L14 37L14 39L15 39L15 38L16 38L16 37L17 37L17 36L16 36L16 37L15 37L15 35ZM19 36L19 37L20 37L20 36ZM37 36L37 37L38 37L38 38L39 38L39 37L38 37L38 36ZM27 37L27 38L28 38L28 37ZM34 37L34 38L36 38L36 37ZM31 39L31 40L32 40L32 39ZM0 0L0 7L7 7L7 0ZM1 1L1 6L6 6L6 1ZM2 2L2 5L5 5L5 2ZM34 0L34 7L41 7L41 0ZM35 1L35 6L40 6L40 1ZM36 2L36 5L39 5L39 2ZM0 34L0 41L7 41L7 34ZM1 35L1 40L6 40L6 35ZM2 36L2 39L5 39L5 36Z" fill="#000000"/></g></g></svg>
