<?xml version="1.0" encoding="UTF-8"?>
<svg xmlns="http://www.w3.org/2000/svg" version="1.1" width="200" height="200" viewBox="0 0 200 200"><rect x="0" y="0" width="200" height="200" fill="#ffffff"/><g transform="scale(6.897)"><g transform="translate(0,0)"><path fill-rule="evenodd" d="M9 0L9 1L8 1L8 7L9 7L9 8L5 8L5 9L3 9L3 8L2 8L2 9L0 9L0 10L1 10L1 11L3 11L3 12L2 12L2 13L3 13L3 14L2 14L2 15L1 15L1 12L0 12L0 17L1 17L1 18L0 18L0 19L2 19L2 20L0 20L0 21L3 21L3 19L4 19L4 21L5 21L5 20L6 20L6 21L7 21L7 20L6 20L6 19L8 19L8 24L9 24L9 25L10 25L10 26L11 26L11 25L12 25L12 26L13 26L13 27L11 27L11 28L10 28L10 27L9 27L9 26L8 26L8 27L9 27L9 29L11 29L11 28L12 28L12 29L15 29L15 27L16 27L16 28L17 28L17 29L19 29L19 27L18 27L18 26L19 26L19 24L18 24L18 25L17 25L17 24L16 24L16 23L15 23L15 22L17 22L17 20L18 20L18 19L20 19L20 18L18 18L18 17L17 17L17 16L16 16L16 15L18 15L18 16L19 16L19 17L20 17L20 16L19 16L19 15L21 15L21 19L22 19L22 20L19 20L19 21L20 21L20 25L25 25L25 27L28 27L28 28L27 28L27 29L29 29L29 26L26 26L26 25L27 25L27 24L28 24L28 25L29 25L29 24L28 24L28 23L29 23L29 21L27 21L27 19L26 19L26 18L28 18L28 19L29 19L29 18L28 18L28 17L29 17L29 16L27 16L27 17L25 17L25 16L22 16L22 15L25 15L25 14L26 14L26 13L29 13L29 12L27 12L27 11L29 11L29 9L28 9L28 8L23 8L23 10L22 10L22 11L21 11L21 9L22 9L22 8L21 8L21 0L19 0L19 1L20 1L20 2L19 2L19 3L20 3L20 5L19 5L19 4L18 4L18 5L15 5L15 2L16 2L16 3L18 3L18 2L16 2L16 0L14 0L14 1L13 1L13 3L14 3L14 7L13 7L13 5L12 5L12 4L11 4L11 3L12 3L12 1L11 1L11 0ZM17 0L17 1L18 1L18 0ZM9 1L9 3L10 3L10 2L11 2L11 1ZM14 1L14 2L15 2L15 1ZM9 5L9 7L10 7L10 6L11 6L11 9L9 9L9 10L10 10L10 13L9 13L9 11L8 11L8 9L5 9L5 11L6 11L6 12L8 12L8 14L9 14L9 15L10 15L10 13L11 13L11 14L12 14L12 17L11 17L11 16L10 16L10 17L11 17L11 18L10 18L10 19L11 19L11 20L10 20L10 21L9 21L9 22L10 22L10 21L11 21L11 24L13 24L13 26L15 26L15 25L16 25L16 26L17 26L17 25L16 25L16 24L14 24L14 23L12 23L12 21L11 21L11 20L13 20L13 22L14 22L14 19L15 19L15 20L17 20L17 19L18 19L18 18L17 18L17 19L16 19L16 16L14 16L14 12L11 12L11 11L14 11L14 9L17 9L17 10L19 10L19 11L18 11L18 15L19 15L19 14L22 14L22 12L21 12L21 13L20 13L20 12L19 12L19 11L20 11L20 8L19 8L19 7L20 7L20 6L19 6L19 7L18 7L18 6L17 6L17 7L16 7L16 6L15 6L15 7L14 7L14 9L12 9L12 5ZM17 7L17 9L18 9L18 7ZM11 9L11 10L12 10L12 9ZM25 9L25 10L24 10L24 11L26 11L26 9ZM27 9L27 10L28 10L28 9ZM3 10L3 11L4 11L4 10ZM6 10L6 11L7 11L7 10ZM15 10L15 14L17 14L17 11L16 11L16 10ZM4 12L4 13L5 13L5 14L7 14L7 13L5 13L5 12ZM23 12L23 14L25 14L25 13L24 13L24 12ZM12 13L12 14L13 14L13 13ZM27 14L27 15L29 15L29 14ZM4 15L4 17L3 17L3 16L1 16L1 17L3 17L3 18L4 18L4 17L5 17L5 18L8 18L8 19L9 19L9 18L8 18L8 16L7 16L7 15L6 15L6 16L7 16L7 17L5 17L5 15ZM13 16L13 17L14 17L14 18L13 18L13 19L14 19L14 18L15 18L15 17L14 17L14 16ZM22 17L22 18L25 18L25 17ZM23 19L23 20L24 20L24 19ZM25 19L25 20L26 20L26 19ZM21 21L21 24L24 24L24 21ZM26 21L26 23L25 23L25 25L26 25L26 24L27 24L27 23L28 23L28 22L27 22L27 21ZM18 22L18 23L19 23L19 22ZM22 22L22 23L23 23L23 22ZM9 23L9 24L10 24L10 23ZM21 26L21 29L22 29L22 28L24 28L24 29L25 29L25 28L24 28L24 26L23 26L23 27L22 27L22 26ZM17 27L17 28L18 28L18 27ZM0 0L0 7L7 7L7 0ZM1 1L1 6L6 6L6 1ZM2 2L2 5L5 5L5 2ZM22 0L22 7L29 7L29 0ZM23 1L23 6L28 6L28 1ZM24 2L24 5L27 5L27 2ZM0 22L0 29L7 29L7 22ZM1 23L1 28L6 28L6 23ZM2 24L2 27L5 27L5 24Z" fill="#000000"/></g></g></svg>
