<?xml version="1.0" encoding="UTF-8"?>
<svg xmlns="http://www.w3.org/2000/svg" version="1.1" width="200" height="200" viewBox="0 0 200 200"><rect x="0" y="0" width="200" height="200" fill="#ffffff"/><g transform="scale(6.897)"><g transform="translate(0,0)"><path fill-rule="evenodd" d="M10 0L10 2L9 2L9 1L8 1L8 2L9 2L9 3L10 3L10 2L11 2L11 0ZM12 0L12 1L13 1L13 2L12 2L12 3L11 3L11 4L13 4L13 3L14 3L14 4L15 4L15 5L13 5L13 6L12 6L12 7L11 7L11 5L10 5L10 4L9 4L9 5L8 5L8 8L4 8L4 9L3 9L3 10L0 10L0 12L1 12L1 13L0 13L0 14L1 14L1 15L0 15L0 18L1 18L1 15L2 15L2 16L3 16L3 17L2 17L2 20L0 20L0 21L2 21L2 20L3 20L3 21L4 21L4 20L5 20L5 21L7 21L7 20L6 20L6 19L8 19L8 20L9 20L9 21L8 21L8 25L9 25L9 27L12 27L12 28L11 28L11 29L15 29L15 27L12 27L12 26L11 26L11 25L13 25L13 26L14 26L14 25L15 25L15 23L16 23L16 22L18 22L18 19L19 19L19 20L20 20L20 21L19 21L19 22L20 22L20 24L19 24L19 23L18 23L18 25L16 25L16 26L19 26L19 28L16 28L16 29L22 29L22 28L23 28L23 29L25 29L25 28L26 28L26 29L27 29L27 28L28 28L28 27L29 27L29 26L26 26L26 25L27 25L27 24L28 24L28 25L29 25L29 22L28 22L28 23L27 23L27 21L29 21L29 19L26 19L26 18L25 18L25 17L24 17L24 18L25 18L25 19L26 19L26 20L24 20L24 19L23 19L23 18L21 18L21 19L20 19L20 17L23 17L23 16L24 16L24 14L25 14L25 15L27 15L27 16L29 16L29 14L27 14L27 12L29 12L29 9L28 9L28 8L27 8L27 9L24 9L24 8L22 8L22 9L24 9L24 10L22 10L22 11L23 11L23 13L22 13L22 12L18 12L18 13L19 13L19 14L17 14L17 12L16 12L16 11L15 11L15 10L18 10L18 9L19 9L19 10L20 10L20 11L21 11L21 9L19 9L19 8L21 8L21 6L20 6L20 7L19 7L19 4L20 4L20 5L21 5L21 1L20 1L20 0L18 0L18 2L16 2L16 3L15 3L15 0L14 0L14 1L13 1L13 0ZM16 0L16 1L17 1L17 0ZM19 1L19 2L20 2L20 1ZM18 3L18 4L16 4L16 6L15 6L15 7L16 7L16 9L18 9L18 8L17 8L17 7L18 7L18 4L19 4L19 3ZM9 5L9 8L8 8L8 9L4 9L4 10L3 10L3 11L1 11L1 12L2 12L2 13L1 13L1 14L2 14L2 13L3 13L3 16L4 16L4 17L3 17L3 18L5 18L5 19L6 19L6 18L7 18L7 17L6 17L6 18L5 18L5 16L4 16L4 15L5 15L5 14L8 14L8 15L9 15L9 16L8 16L8 18L9 18L9 17L10 17L10 18L11 18L11 19L10 19L10 21L11 21L11 22L12 22L12 21L13 21L13 23L14 23L14 22L15 22L15 21L17 21L17 20L15 20L15 19L17 19L17 18L19 18L19 16L21 16L21 15L22 15L22 16L23 16L23 14L24 14L24 13L23 13L23 14L22 14L22 13L21 13L21 14L19 14L19 16L18 16L18 15L17 15L17 14L15 14L15 15L14 15L14 12L13 12L13 11L14 11L14 10L15 10L15 8L14 8L14 9L12 9L12 10L11 10L11 11L10 11L10 9L11 9L11 8L10 8L10 5ZM13 6L13 7L14 7L14 6ZM16 6L16 7L17 7L17 6ZM8 9L8 10L9 10L9 9ZM27 9L27 10L28 10L28 9ZM4 10L4 11L3 11L3 12L4 12L4 13L7 13L7 12L8 12L8 13L10 13L10 14L11 14L11 15L10 15L10 17L11 17L11 18L12 18L12 17L13 17L13 19L14 19L14 17L13 17L13 16L12 16L12 15L13 15L13 14L12 14L12 13L13 13L13 12L12 12L12 11L11 11L11 12L9 12L9 11L7 11L7 10L6 10L6 11L7 11L7 12L4 12L4 11L5 11L5 10ZM24 10L24 12L25 12L25 10ZM11 12L11 13L12 13L12 12ZM15 12L15 13L16 13L16 12ZM25 13L25 14L26 14L26 13ZM6 15L6 16L7 16L7 15ZM15 15L15 16L16 16L16 15ZM16 17L16 18L17 18L17 17ZM27 17L27 18L28 18L28 17ZM11 19L11 21L12 21L12 19ZM22 19L22 20L23 20L23 19ZM21 21L21 24L24 24L24 21ZM25 21L25 25L26 25L26 24L27 24L27 23L26 23L26 21ZM22 22L22 23L23 23L23 22ZM10 23L10 24L9 24L9 25L10 25L10 24L12 24L12 23ZM13 24L13 25L14 25L14 24ZM19 25L19 26L20 26L20 28L21 28L21 26L22 26L22 27L23 27L23 28L25 28L25 27L23 27L23 26L24 26L24 25ZM26 27L26 28L27 28L27 27ZM9 28L9 29L10 29L10 28ZM0 0L0 7L7 7L7 0ZM1 1L1 6L6 6L6 1ZM2 2L2 5L5 5L5 2ZM22 0L22 7L29 7L29 0ZM23 1L23 6L28 6L28 1ZM24 2L24 5L27 5L27 2ZM0 22L0 29L7 29L7 22ZM1 23L1 28L6 28L6 23ZM2 24L2 27L5 27L5 24Z" fill="#000000"/></g></g></svg>
