<?xml version="1.0" encoding="UTF-8"?>
<svg xmlns="http://www.w3.org/2000/svg" version="1.1" width="200" height="200" viewBox="0 0 200 200"><rect x="0" y="0" width="200" height="200" fill="#ffffff"/><g transform="scale(6.897)"><g transform="translate(0,0)"><path fill-rule="evenodd" d="M9 0L9 3L10 3L10 4L8 4L8 5L10 5L10 8L11 8L11 6L12 6L12 9L11 9L11 11L10 11L10 9L9 9L9 6L8 6L8 8L6 8L6 9L5 9L5 10L4 10L4 8L2 8L2 10L3 10L3 11L1 11L1 9L0 9L0 11L1 11L1 13L2 13L2 15L3 15L3 16L0 16L0 17L1 17L1 18L0 18L0 19L1 19L1 18L2 18L2 20L1 20L1 21L2 21L2 20L3 20L3 21L4 21L4 20L5 20L5 21L8 21L8 23L9 23L9 24L10 24L10 23L9 23L9 21L8 21L8 20L10 20L10 19L9 19L9 16L8 16L8 15L9 15L9 14L8 14L8 12L10 12L10 13L13 13L13 14L11 14L11 16L10 16L10 18L11 18L11 19L12 19L12 20L11 20L11 21L10 21L10 22L11 22L11 24L12 24L12 25L10 25L10 26L9 26L9 25L8 25L8 27L10 27L10 28L9 28L9 29L10 29L10 28L11 28L11 27L12 27L12 28L14 28L14 29L17 29L17 28L18 28L18 27L16 27L16 26L17 26L17 24L18 24L18 25L20 25L20 27L21 27L21 25L23 25L23 26L24 26L24 27L22 27L22 29L23 29L23 28L25 28L25 29L27 29L27 28L29 28L29 26L28 26L28 27L26 27L26 28L25 28L25 26L24 26L24 25L26 25L26 26L27 26L27 25L26 25L26 23L25 23L25 22L26 22L26 20L27 20L27 21L28 21L28 22L27 22L27 24L29 24L29 23L28 23L28 22L29 22L29 21L28 21L28 20L27 20L27 18L29 18L29 17L26 17L26 16L25 16L25 15L24 15L24 16L23 16L23 17L21 17L21 18L20 18L20 17L18 17L18 16L17 16L17 17L18 17L18 18L20 18L20 20L19 20L19 19L17 19L17 20L16 20L16 19L15 19L15 18L16 18L16 17L14 17L14 18L12 18L12 17L13 17L13 16L14 16L14 15L13 15L13 14L14 14L14 13L15 13L15 15L16 15L16 12L15 12L15 11L14 11L14 10L16 10L16 11L17 11L17 10L16 10L16 9L17 9L17 6L18 6L18 7L19 7L19 8L18 8L18 11L20 11L20 12L19 12L19 13L20 13L20 14L19 14L19 15L20 15L20 14L21 14L21 13L20 13L20 12L22 12L22 9L23 9L23 13L22 13L22 15L23 15L23 14L24 14L24 13L25 13L25 14L26 14L26 15L27 15L27 16L28 16L28 15L29 15L29 14L28 14L28 12L29 12L29 11L28 11L28 12L27 12L27 10L29 10L29 9L25 9L25 8L24 8L24 9L23 9L23 8L21 8L21 3L20 3L20 2L18 2L18 1L17 1L17 0L15 0L15 1L13 1L13 0ZM11 1L11 3L12 3L12 4L13 4L13 5L12 5L12 6L13 6L13 8L14 8L14 9L16 9L16 8L14 8L14 6L15 6L15 7L16 7L16 6L15 6L15 5L14 5L14 3L15 3L15 2L13 2L13 1ZM16 1L16 3L17 3L17 4L16 4L16 5L19 5L19 7L20 7L20 5L19 5L19 4L20 4L20 3L19 3L19 4L18 4L18 2L17 2L17 1ZM12 2L12 3L13 3L13 2ZM10 4L10 5L11 5L11 4ZM13 5L13 6L14 6L14 5ZM19 8L19 10L20 10L20 9L21 9L21 8ZM6 9L6 10L5 10L5 13L6 13L6 14L4 14L4 11L3 11L3 12L2 12L2 13L3 13L3 15L4 15L4 16L3 16L3 17L2 17L2 18L3 18L3 20L4 20L4 19L5 19L5 18L4 18L4 16L5 16L5 17L6 17L6 18L7 18L7 19L6 19L6 20L7 20L7 19L8 19L8 16L7 16L7 15L8 15L8 14L7 14L7 13L6 13L6 12L8 12L8 9ZM24 9L24 10L25 10L25 9ZM6 10L6 11L7 11L7 10ZM12 10L12 12L13 12L13 13L14 13L14 12L13 12L13 10ZM25 11L25 13L27 13L27 12L26 12L26 11ZM0 14L0 15L1 15L1 14ZM6 14L6 15L5 15L5 16L6 16L6 17L7 17L7 16L6 16L6 15L7 15L7 14ZM17 14L17 15L18 15L18 14ZM11 16L11 17L12 17L12 16ZM24 16L24 17L23 17L23 18L22 18L22 19L21 19L21 20L22 20L22 19L24 19L24 18L25 18L25 20L26 20L26 17L25 17L25 16ZM13 19L13 20L12 20L12 21L11 21L11 22L12 22L12 24L13 24L13 25L12 25L12 27L13 27L13 26L14 26L14 23L15 23L15 26L16 26L16 24L17 24L17 23L15 23L15 22L14 22L14 21L16 21L16 22L18 22L18 24L19 24L19 22L20 22L20 21L19 21L19 20L17 20L17 21L16 21L16 20L14 20L14 19ZM12 21L12 22L13 22L13 21ZM21 21L21 24L24 24L24 21ZM22 22L22 23L23 23L23 22ZM10 26L10 27L11 27L11 26ZM19 28L19 29L20 29L20 28ZM0 0L0 7L7 7L7 0ZM1 1L1 6L6 6L6 1ZM2 2L2 5L5 5L5 2ZM22 0L22 7L29 7L29 0ZM23 1L23 6L28 6L28 1ZM24 2L24 5L27 5L27 2ZM0 22L0 29L7 29L7 22ZM1 23L1 28L6 28L6 23ZM2 24L2 27L5 27L5 24Z" fill="#000000"/></g></g></svg>
