<?xml version="1.0" encoding="UTF-8"?>
<svg xmlns="http://www.w3.org/2000/svg" version="1.1" width="200" height="200" viewBox="0 0 200 200"><rect x="0" y="0" width="200" height="200" fill="#ffffff"/><g transform="scale(4.878)"><g transform="translate(0,0)"><path fill-rule="evenodd" d="M8 0L8 3L11 3L11 4L9 4L9 5L8 5L8 9L7 9L7 8L6 8L6 9L7 9L7 10L6 10L6 11L7 11L7 12L6 12L6 13L7 13L7 14L6 14L6 15L7 15L7 16L5 16L5 15L3 15L3 13L4 13L4 11L1 11L1 12L3 12L3 13L1 13L1 16L0 16L0 17L1 17L1 16L2 16L2 17L3 17L3 16L5 16L5 17L4 17L4 19L3 19L3 18L2 18L2 20L1 20L1 21L0 21L0 24L1 24L1 25L0 25L0 27L1 27L1 28L2 28L2 27L3 27L3 26L4 26L4 29L2 29L2 33L3 33L3 30L4 30L4 31L5 31L5 30L4 30L4 29L5 29L5 28L6 28L6 29L7 29L7 30L6 30L6 31L7 31L7 32L5 32L5 33L7 33L7 32L8 32L8 34L9 34L9 35L10 35L10 36L8 36L8 39L9 39L9 40L11 40L11 41L12 41L12 39L14 39L14 40L13 40L13 41L14 41L14 40L15 40L15 41L16 41L16 40L15 40L15 39L16 39L16 38L14 38L14 37L15 37L15 36L16 36L16 37L17 37L17 41L18 41L18 40L19 40L19 39L20 39L20 41L24 41L24 39L23 39L23 40L22 40L22 39L21 39L21 38L22 38L22 37L21 37L21 34L22 34L22 33L23 33L23 35L25 35L25 34L24 34L24 32L25 32L25 31L24 31L24 30L25 30L25 29L24 29L24 28L27 28L27 30L26 30L26 31L27 31L27 33L29 33L29 34L27 34L27 37L28 37L28 38L26 38L26 39L27 39L27 40L28 40L28 39L30 39L30 40L29 40L29 41L30 41L30 40L31 40L31 41L32 41L32 40L33 40L33 41L34 41L34 40L33 40L33 39L35 39L35 40L36 40L36 39L37 39L37 40L40 40L40 38L41 38L41 37L39 37L39 36L38 36L38 34L37 34L37 32L38 32L38 33L39 33L39 35L40 35L40 34L41 34L41 33L40 33L40 30L41 30L41 29L39 29L39 30L37 30L37 29L36 29L36 28L38 28L38 26L39 26L39 28L41 28L41 27L40 27L40 26L41 26L41 23L39 23L39 24L40 24L40 26L39 26L39 25L36 25L36 24L37 24L37 23L38 23L38 21L39 21L39 20L36 20L36 19L35 19L35 17L36 17L36 18L38 18L38 19L40 19L40 18L41 18L41 16L40 16L40 18L38 18L38 17L39 17L39 16L37 16L37 17L36 17L36 16L35 16L35 17L34 17L34 16L33 16L33 17L31 17L31 15L30 15L30 16L29 16L29 15L28 15L28 16L29 16L29 17L31 17L31 18L30 18L30 19L31 19L31 18L32 18L32 20L33 20L33 21L31 21L31 20L30 20L30 21L31 21L31 22L27 22L27 23L31 23L31 22L32 22L32 25L31 25L31 24L26 24L26 23L25 23L25 22L26 22L26 21L29 21L29 19L28 19L28 18L27 18L27 19L28 19L28 20L25 20L25 22L24 22L24 23L23 23L23 22L22 22L22 23L21 23L21 22L19 22L19 20L20 20L20 18L21 18L21 20L22 20L22 21L24 21L24 20L23 20L23 19L25 19L25 18L26 18L26 17L27 17L27 15L26 15L26 14L29 14L29 13L30 13L30 14L31 14L31 12L32 12L32 13L33 13L33 14L32 14L32 15L34 15L34 13L35 13L35 11L37 11L37 12L38 12L38 11L40 11L40 10L41 10L41 8L38 8L38 9L40 9L40 10L37 10L37 9L36 9L36 8L33 8L33 6L32 6L32 7L31 7L31 5L32 5L32 4L33 4L33 2L30 2L30 1L33 1L33 0L29 0L29 1L27 1L27 0L26 0L26 1L27 1L27 2L26 2L26 3L28 3L28 4L29 4L29 3L32 3L32 4L30 4L30 8L28 8L28 7L29 7L29 5L27 5L27 4L25 4L25 5L23 5L23 4L22 4L22 3L25 3L25 2L24 2L24 0L21 0L21 1L22 1L22 2L18 2L18 1L19 1L19 0L18 0L18 1L17 1L17 3L15 3L15 2L16 2L16 0L14 0L14 1L15 1L15 2L14 2L14 4L13 4L13 5L11 5L11 4L12 4L12 3L13 3L13 1L12 1L12 0L11 0L11 2L10 2L10 0ZM11 2L11 3L12 3L12 2ZM18 3L18 4L19 4L19 7L18 7L18 6L17 6L17 7L16 7L16 6L15 6L15 7L14 7L14 5L13 5L13 7L12 7L12 6L11 6L11 5L10 5L10 6L9 6L9 7L10 7L10 6L11 6L11 7L12 7L12 8L10 8L10 9L8 9L8 10L7 10L7 11L9 11L9 12L8 12L8 13L9 13L9 12L10 12L10 13L11 13L11 12L10 12L10 11L9 11L9 10L10 10L10 9L11 9L11 10L12 10L12 13L14 13L14 12L15 12L15 13L17 13L17 12L20 12L20 13L18 13L18 14L16 14L16 15L17 15L17 16L12 16L12 18L11 18L11 17L10 17L10 18L9 18L9 16L10 16L10 15L9 15L9 14L7 14L7 15L9 15L9 16L8 16L8 17L6 17L6 18L5 18L5 19L4 19L4 20L3 20L3 21L4 21L4 20L7 20L7 21L6 21L6 22L5 22L5 24L7 24L7 23L6 23L6 22L9 22L9 23L8 23L8 25L9 25L9 28L10 28L10 29L9 29L9 30L10 30L10 29L11 29L11 31L10 31L10 33L11 33L11 32L12 32L12 29L11 29L11 27L12 27L12 26L13 26L13 28L18 28L18 30L17 30L17 29L16 29L16 30L14 30L14 29L13 29L13 32L15 32L15 33L14 33L14 34L17 34L17 32L16 32L16 31L18 31L18 30L19 30L19 33L20 33L20 34L19 34L19 35L20 35L20 34L21 34L21 33L22 33L22 32L21 32L21 30L22 30L22 28L24 28L24 26L23 26L23 25L26 25L26 24L23 24L23 25L21 25L21 23L19 23L19 24L20 24L20 26L19 26L19 28L18 28L18 27L14 27L14 25L12 25L12 26L11 26L11 24L10 24L10 22L9 22L9 19L10 19L10 21L11 21L11 22L12 22L12 20L14 20L14 21L15 21L15 25L16 25L16 23L18 23L18 22L16 22L16 20L17 20L17 21L18 21L18 18L20 18L20 17L21 17L21 18L22 18L22 17L23 17L23 18L24 18L24 17L23 17L23 16L25 16L25 17L26 17L26 16L25 16L25 12L24 12L24 14L23 14L23 13L21 13L21 12L23 12L23 11L25 11L25 10L24 10L24 9L27 9L27 10L28 10L28 11L27 11L27 12L26 12L26 13L27 13L27 12L28 12L28 13L29 13L29 12L30 12L30 9L32 9L32 10L31 10L31 11L32 11L32 12L33 12L33 13L34 13L34 12L33 12L33 11L34 11L34 9L32 9L32 8L30 8L30 9L28 9L28 8L23 8L23 9L22 9L22 11L21 11L21 10L20 10L20 11L19 11L19 9L21 9L21 8L22 8L22 6L21 6L21 8L19 8L19 7L20 7L20 5L21 5L21 4L20 4L20 3ZM25 5L25 7L26 7L26 5ZM23 6L23 7L24 7L24 6ZM27 6L27 7L28 7L28 6ZM17 7L17 8L16 8L16 9L15 9L15 10L13 10L13 12L14 12L14 11L15 11L15 12L16 12L16 11L18 11L18 10L17 10L17 8L18 8L18 7ZM2 8L2 10L4 10L4 9L5 9L5 8ZM0 9L0 10L1 10L1 9ZM35 9L35 10L36 10L36 9ZM15 10L15 11L16 11L16 10ZM32 10L32 11L33 11L33 10ZM20 11L20 12L21 12L21 11ZM36 13L36 15L38 15L38 13ZM39 13L39 14L41 14L41 13ZM12 14L12 15L13 15L13 14ZM20 14L20 16L17 16L17 18L16 18L16 17L15 17L15 18L13 18L13 19L15 19L15 20L16 20L16 19L17 19L17 18L18 18L18 17L20 17L20 16L22 16L22 15L23 15L23 14ZM0 18L0 19L1 19L1 18ZM6 18L6 19L7 19L7 20L8 20L8 19L9 19L9 18ZM10 18L10 19L11 19L11 18ZM15 18L15 19L16 19L16 18ZM33 18L33 20L34 20L34 21L33 21L33 22L34 22L34 23L33 23L33 24L34 24L34 25L32 25L32 26L31 26L31 25L30 25L30 26L29 26L29 25L27 25L27 26L25 26L25 27L27 27L27 26L29 26L29 27L28 27L28 28L31 28L31 29L28 29L28 30L32 30L32 31L33 31L33 32L35 32L35 31L37 31L37 30L36 30L36 29L35 29L35 26L36 26L36 25L35 25L35 24L36 24L36 23L35 23L35 22L36 22L36 21L35 21L35 19L34 19L34 18ZM40 20L40 21L41 21L41 20ZM1 21L1 22L2 22L2 21ZM34 21L34 22L35 22L35 21ZM3 22L3 23L2 23L2 24L3 24L3 23L4 23L4 22ZM13 22L13 23L12 23L12 24L14 24L14 22ZM34 23L34 24L35 24L35 23ZM17 24L17 26L18 26L18 24ZM2 25L2 26L3 26L3 25ZM4 25L4 26L5 26L5 27L6 27L6 28L7 28L7 29L8 29L8 28L7 28L7 27L8 27L8 26L7 26L7 25L6 25L6 26L5 26L5 25ZM34 25L34 26L32 26L32 28L33 28L33 29L32 29L32 30L33 30L33 29L34 29L34 28L33 28L33 27L34 27L34 26L35 26L35 25ZM6 26L6 27L7 27L7 26ZM20 26L20 29L19 29L19 30L20 30L20 29L21 29L21 27L23 27L23 26ZM0 29L0 33L1 33L1 29ZM7 30L7 31L8 31L8 32L9 32L9 31L8 31L8 30ZM34 30L34 31L35 31L35 30ZM28 31L28 32L31 32L31 31ZM38 31L38 32L39 32L39 31ZM30 33L30 35L31 35L31 36L28 36L28 37L29 37L29 38L30 38L30 37L31 37L31 40L32 40L32 38L36 38L36 37L32 37L32 35L31 35L31 33ZM33 33L33 36L36 36L36 33ZM10 34L10 35L11 35L11 36L12 36L12 37L11 37L11 38L10 38L10 39L12 39L12 38L13 38L13 37L14 37L14 36L15 36L15 35L13 35L13 34ZM34 34L34 35L35 35L35 34ZM16 35L16 36L17 36L17 35ZM23 36L23 38L25 38L25 37L26 37L26 36ZM37 36L37 37L38 37L38 36ZM18 37L18 38L19 38L19 37ZM20 37L20 38L21 38L21 37ZM37 38L37 39L38 39L38 38ZM0 0L0 7L7 7L7 0ZM1 1L1 6L6 6L6 1ZM2 2L2 5L5 5L5 2ZM34 0L34 7L41 7L41 0ZM35 1L35 6L40 6L40 1ZM36 2L36 5L39 5L39 2ZM0 34L0 41L7 41L7 34ZM1 35L1 40L6 40L6 35ZM2 36L2 39L5 39L5 36Z" fill="#000000"/></g></g></svg>
