<?xml version="1.0" encoding="UTF-8"?>
<svg xmlns="http://www.w3.org/2000/svg" version="1.1" width="200" height="200" viewBox="0 0 200 200"><rect x="0" y="0" width="200" height="200" fill="#ffffff"/><g transform="scale(6.897)"><g transform="translate(0,0)"><path fill-rule="evenodd" d="M9 0L9 1L10 1L10 0ZM11 0L11 1L14 1L14 2L13 2L13 6L12 6L12 5L11 5L11 4L12 4L12 2L9 2L9 4L8 4L8 5L9 5L9 4L10 4L10 5L11 5L11 6L10 6L10 7L9 7L9 6L8 6L8 8L6 8L6 9L8 9L8 10L5 10L5 11L4 11L4 10L2 10L2 9L4 9L4 8L2 8L2 9L0 9L0 10L1 10L1 12L3 12L3 13L2 13L2 14L1 14L1 13L0 13L0 14L1 14L1 15L0 15L0 16L2 16L2 14L4 14L4 12L5 12L5 15L4 15L4 16L3 16L3 17L1 17L1 18L0 18L0 19L1 19L1 18L2 18L2 20L1 20L1 21L3 21L3 20L4 20L4 21L7 21L7 20L6 20L6 19L7 19L7 18L6 18L6 17L9 17L9 16L12 16L12 15L13 15L13 16L14 16L14 17L12 17L12 18L11 18L11 17L10 17L10 18L11 18L11 22L10 22L10 23L11 23L11 22L12 22L12 24L11 24L11 25L12 25L12 27L15 27L15 26L16 26L16 28L15 28L15 29L17 29L17 27L18 27L18 28L19 28L19 29L20 29L20 28L19 28L19 26L20 26L20 25L23 25L23 26L24 26L24 27L22 27L22 29L23 29L23 28L29 28L29 26L28 26L28 27L27 27L27 25L28 25L28 24L29 24L29 21L28 21L28 20L27 20L27 21L28 21L28 24L27 24L27 25L26 25L26 23L25 23L25 22L26 22L26 20L25 20L25 18L24 18L24 19L22 19L22 18L23 18L23 17L24 17L24 16L25 16L25 17L26 17L26 19L27 19L27 18L29 18L29 17L26 17L26 16L25 16L25 15L24 15L24 16L23 16L23 17L21 17L21 18L20 18L20 17L19 17L19 18L20 18L20 20L19 20L19 19L18 19L18 18L17 18L17 15L18 15L18 16L19 16L19 15L20 15L20 14L21 14L21 13L20 13L20 12L22 12L22 9L23 9L23 13L22 13L22 15L23 15L23 14L24 14L24 13L25 13L25 14L26 14L26 15L27 15L27 16L28 16L28 15L29 15L29 14L28 14L28 15L27 15L27 13L28 13L28 12L29 12L29 11L28 11L28 12L27 12L27 11L26 11L26 10L29 10L29 9L25 9L25 8L24 8L24 9L23 9L23 8L21 8L21 3L20 3L20 2L18 2L18 1L17 1L17 2L18 2L18 5L17 5L17 3L16 3L16 1L15 1L15 0ZM14 2L14 3L15 3L15 2ZM19 3L19 4L20 4L20 3ZM15 4L15 5L14 5L14 6L13 6L13 7L12 7L12 6L11 6L11 7L10 7L10 8L9 8L9 9L11 9L11 11L12 11L12 10L13 10L13 11L14 11L14 9L12 9L12 8L14 8L14 6L15 6L15 8L16 8L16 9L15 9L15 12L14 12L14 13L13 13L13 14L14 14L14 13L15 13L15 15L17 15L17 14L18 14L18 15L19 15L19 14L20 14L20 13L17 13L17 12L20 12L20 11L18 11L18 10L17 10L17 12L16 12L16 9L18 9L18 8L19 8L19 10L20 10L20 9L21 9L21 8L19 8L19 7L20 7L20 5L19 5L19 7L18 7L18 6L17 6L17 5L16 5L16 4ZM15 5L15 6L16 6L16 7L17 7L17 6L16 6L16 5ZM11 7L11 8L12 8L12 7ZM24 9L24 10L25 10L25 9ZM9 10L9 11L8 11L8 12L9 12L9 13L10 13L10 12L9 12L9 11L10 11L10 10ZM6 11L6 12L7 12L7 11ZM25 11L25 13L27 13L27 12L26 12L26 11ZM15 12L15 13L16 13L16 14L17 14L17 13L16 13L16 12ZM6 13L6 14L7 14L7 15L5 15L5 17L3 17L3 19L4 19L4 20L5 20L5 19L6 19L6 18L5 18L5 17L6 17L6 16L7 16L7 15L8 15L8 16L9 16L9 15L10 15L10 14L9 14L9 15L8 15L8 14L7 14L7 13ZM11 13L11 15L12 15L12 13ZM12 18L12 19L13 19L13 21L12 21L12 22L13 22L13 24L12 24L12 25L13 25L13 26L14 26L14 25L13 25L13 24L17 24L17 23L14 23L14 21L15 21L15 22L16 22L16 21L17 21L17 22L18 22L18 21L17 21L17 20L16 20L16 19L17 19L17 18L15 18L15 20L14 20L14 18ZM9 19L9 21L8 21L8 23L9 23L9 21L10 21L10 19ZM21 19L21 20L22 20L22 19ZM15 20L15 21L16 21L16 20ZM19 21L19 23L18 23L18 25L17 25L17 26L19 26L19 25L20 25L20 24L19 24L19 23L20 23L20 21ZM21 21L21 24L24 24L24 21ZM22 22L22 23L23 23L23 22ZM9 24L9 25L8 25L8 27L9 27L9 28L11 28L11 29L14 29L14 28L11 28L11 26L9 26L9 25L10 25L10 24ZM24 25L24 26L26 26L26 25ZM0 0L0 7L7 7L7 0ZM1 1L1 6L6 6L6 1ZM2 2L2 5L5 5L5 2ZM22 0L22 7L29 7L29 0ZM23 1L23 6L28 6L28 1ZM24 2L24 5L27 5L27 2ZM0 22L0 29L7 29L7 22ZM1 23L1 28L6 28L6 23ZM2 24L2 27L5 27L5 24Z" fill="#000000"/></g></g></svg>
