<?xml version="1.0" encoding="UTF-8"?>
<svg xmlns="http://www.w3.org/2000/svg" version="1.1" width="200" height="200" viewBox="0 0 200 200"><rect x="0" y="0" width="200" height="200" fill="#ffffff"/><g transform="scale(4.878)"><g transform="translate(0,0)"><path fill-rule="evenodd" d="M8 0L8 3L10 3L10 2L11 2L11 3L12 3L12 1L13 1L13 2L14 2L14 3L13 3L13 4L14 4L14 3L15 3L15 4L18 4L18 7L17 7L17 6L16 6L16 8L12 8L12 7L13 7L13 6L12 6L12 7L11 7L11 5L12 5L12 4L10 4L10 5L8 5L8 10L5 10L5 12L4 12L4 11L3 11L3 10L1 10L1 11L0 11L0 15L5 15L5 16L4 16L4 17L3 17L3 16L2 16L2 19L3 19L3 20L1 20L1 18L0 18L0 20L1 20L1 21L3 21L3 22L4 22L4 23L2 23L2 22L1 22L1 23L0 23L0 33L1 33L1 29L2 29L2 30L3 30L3 28L2 28L2 26L4 26L4 23L5 23L5 25L8 25L8 24L9 24L9 26L10 26L10 27L9 27L9 28L8 28L8 29L7 29L7 28L6 28L6 27L8 27L8 26L6 26L6 27L4 27L4 28L5 28L5 29L4 29L4 33L8 33L8 34L9 34L9 33L13 33L13 34L11 34L11 35L9 35L9 36L8 36L8 39L11 39L11 40L9 40L9 41L11 41L11 40L12 40L12 41L13 41L13 38L14 38L14 37L15 37L15 38L16 38L16 36L17 36L17 39L14 39L14 41L15 41L15 40L17 40L17 41L18 41L18 40L19 40L19 41L20 41L20 39L22 39L22 40L23 40L23 41L25 41L25 40L27 40L27 41L28 41L28 40L27 40L27 39L28 39L28 38L27 38L27 37L29 37L29 36L31 36L31 35L32 35L32 37L30 37L30 40L29 40L29 41L30 41L30 40L31 40L31 41L32 41L32 40L33 40L33 41L34 41L34 40L33 40L33 39L32 39L32 38L34 38L34 39L35 39L35 40L36 40L36 39L37 39L37 40L40 40L40 38L41 38L41 37L39 37L39 36L40 36L40 34L41 34L41 33L39 33L39 32L40 32L40 30L41 30L41 29L40 29L40 28L41 28L41 27L40 27L40 26L41 26L41 23L39 23L39 24L40 24L40 26L39 26L39 25L36 25L36 24L37 24L37 21L39 21L39 20L36 20L36 19L35 19L35 17L36 17L36 18L38 18L38 19L40 19L40 18L41 18L41 16L40 16L40 18L38 18L38 17L39 17L39 16L38 16L38 15L39 15L39 14L41 14L41 13L40 13L40 10L41 10L41 8L38 8L38 9L40 9L40 10L37 10L37 9L36 9L36 8L33 8L33 6L32 6L32 9L31 9L31 6L30 6L30 5L32 5L32 4L33 4L33 3L32 3L32 4L30 4L30 5L29 5L29 4L28 4L28 5L27 5L27 4L26 4L26 5L27 5L27 6L26 6L26 7L25 7L25 6L24 6L24 9L23 9L23 8L22 8L22 7L23 7L23 4L24 4L24 5L25 5L25 2L24 2L24 1L21 1L21 2L22 2L22 3L23 3L23 4L22 4L22 7L21 7L21 5L20 5L20 4L21 4L21 3L20 3L20 0L18 0L18 2L19 2L19 3L17 3L17 0L15 0L15 1L16 1L16 3L15 3L15 2L14 2L14 0L12 0L12 1L10 1L10 2L9 2L9 0ZM26 0L26 1L27 1L27 2L26 2L26 3L31 3L31 2L30 2L30 1L33 1L33 0L29 0L29 1L27 1L27 0ZM23 2L23 3L24 3L24 2ZM19 3L19 4L20 4L20 3ZM19 5L19 7L18 7L18 9L19 9L19 8L21 8L21 7L20 7L20 5ZM9 6L9 7L10 7L10 6ZM14 6L14 7L15 7L15 6ZM27 6L27 7L26 7L26 8L25 8L25 9L24 9L24 11L23 11L23 12L24 12L24 13L25 13L25 12L24 12L24 11L27 11L27 10L29 10L29 12L28 12L28 13L29 13L29 14L27 14L27 13L26 13L26 16L24 16L24 15L22 15L22 14L23 14L23 13L22 13L22 14L21 14L21 11L20 11L20 10L21 10L21 9L20 9L20 10L19 10L19 12L20 12L20 14L18 14L18 13L17 13L17 12L18 12L18 11L17 11L17 12L16 12L16 13L14 13L14 12L13 12L13 10L17 10L17 9L13 9L13 10L12 10L12 8L11 8L11 10L12 10L12 12L10 12L10 13L11 13L11 14L10 14L10 16L8 16L8 14L9 14L9 13L6 13L6 12L9 12L9 10L8 10L8 11L6 11L6 12L5 12L5 13L4 13L4 12L3 12L3 11L2 11L2 12L1 12L1 14L5 14L5 15L6 15L6 16L5 16L5 17L4 17L4 18L3 18L3 19L4 19L4 20L5 20L5 19L6 19L6 20L7 20L7 21L4 21L4 22L5 22L5 23L6 23L6 24L8 24L8 23L9 23L9 20L10 20L10 21L11 21L11 22L12 22L12 23L11 23L11 24L15 24L15 23L16 23L16 24L17 24L17 22L15 22L15 21L16 21L16 20L17 20L17 19L15 19L15 18L18 18L18 17L17 17L17 15L18 15L18 16L19 16L19 18L21 18L21 17L22 17L22 19L20 19L20 21L21 21L21 22L20 22L20 24L19 24L19 23L18 23L18 24L19 24L19 25L17 25L17 26L19 26L19 27L16 27L16 26L15 26L15 25L14 25L14 26L15 26L15 27L14 27L14 28L13 28L13 29L15 29L15 30L14 30L14 31L15 31L15 32L13 32L13 33L14 33L14 34L13 34L13 35L11 35L11 37L10 37L10 38L11 38L11 39L12 39L12 36L13 36L13 37L14 37L14 34L15 34L15 32L16 32L16 30L17 30L17 33L20 33L20 34L19 34L19 35L18 35L18 34L16 34L16 35L17 35L17 36L18 36L18 39L19 39L19 37L20 37L20 36L19 36L19 35L22 35L22 36L21 36L21 37L22 37L22 36L23 36L23 35L22 35L22 34L25 34L25 35L24 35L24 36L25 36L25 37L23 37L23 38L24 38L24 40L25 40L25 38L26 38L26 37L27 37L27 34L28 34L28 35L29 35L29 33L27 33L27 30L26 30L26 29L25 29L25 28L28 28L28 27L29 27L29 28L30 28L30 29L31 29L31 30L32 30L32 31L33 31L33 32L35 32L35 31L34 31L34 30L35 30L35 29L38 29L38 30L36 30L36 31L37 31L37 32L39 32L39 31L38 31L38 30L39 30L39 28L40 28L40 27L39 27L39 26L38 26L38 28L35 28L35 27L36 27L36 25L35 25L35 24L36 24L36 23L35 23L35 22L36 22L36 21L35 21L35 19L34 19L34 18L33 18L33 17L32 17L32 16L34 16L34 17L35 17L35 16L36 16L36 17L38 17L38 16L36 16L36 15L35 15L35 14L36 14L36 13L37 13L37 14L39 14L39 11L38 11L38 12L35 12L35 13L34 13L34 12L33 12L33 11L34 11L34 9L32 9L32 10L31 10L31 9L26 9L26 8L27 8L27 7L28 7L28 6ZM29 6L29 8L30 8L30 6ZM2 8L2 9L5 9L5 8ZM6 8L6 9L7 9L7 8ZM9 8L9 9L10 9L10 8ZM35 9L35 10L36 10L36 11L37 11L37 10L36 10L36 9ZM30 10L30 11L31 11L31 10ZM12 12L12 14L11 14L11 16L10 16L10 17L8 17L8 16L6 16L6 17L5 17L5 18L6 18L6 19L7 19L7 18L6 18L6 17L8 17L8 19L10 19L10 20L11 20L11 21L12 21L12 20L14 20L14 18L15 18L15 16L16 16L16 15L17 15L17 14L15 14L15 15L14 15L14 16L13 16L13 19L12 19L12 17L11 17L11 16L12 16L12 14L13 14L13 12ZM29 12L29 13L30 13L30 14L29 14L29 15L28 15L28 16L29 16L29 17L31 17L31 18L30 18L30 19L31 19L31 18L32 18L32 19L33 19L33 18L32 18L32 17L31 17L31 15L30 15L30 14L31 14L31 12ZM32 12L32 13L33 13L33 14L32 14L32 15L34 15L34 13L33 13L33 12ZM6 14L6 15L7 15L7 14ZM20 15L20 17L21 17L21 16L22 16L22 17L23 17L23 16L22 16L22 15ZM29 15L29 16L30 16L30 15ZM0 16L0 17L1 17L1 16ZM24 17L24 18L23 18L23 19L22 19L22 24L21 24L21 25L19 25L19 26L20 26L20 27L19 27L19 28L18 28L18 29L17 29L17 28L16 28L16 29L17 29L17 30L18 30L18 32L19 32L19 30L20 30L20 29L21 29L21 30L22 30L22 32L23 32L23 33L25 33L25 34L26 34L26 32L23 32L23 30L22 30L22 29L24 29L24 28L25 28L25 27L26 27L26 26L25 26L25 27L22 27L22 26L24 26L24 23L23 23L23 19L26 19L26 20L24 20L24 22L27 22L27 23L25 23L25 25L28 25L28 26L27 26L27 27L28 27L28 26L30 26L30 25L31 25L31 26L32 26L32 25L34 25L34 26L33 26L33 27L34 27L34 26L35 26L35 25L34 25L34 24L35 24L35 23L33 23L33 21L34 21L34 22L35 22L35 21L34 21L34 20L33 20L33 21L32 21L32 20L30 20L30 21L31 21L31 22L32 22L32 23L30 23L30 24L29 24L29 21L28 21L28 20L29 20L29 18L25 18L25 17ZM10 18L10 19L11 19L11 20L12 20L12 19L11 19L11 18ZM18 19L18 20L19 20L19 19ZM27 19L27 20L26 20L26 21L27 21L27 22L28 22L28 21L27 21L27 20L28 20L28 19ZM40 20L40 21L41 21L41 20ZM7 21L7 22L6 22L6 23L7 23L7 22L8 22L8 21ZM18 21L18 22L19 22L19 21ZM14 22L14 23L15 23L15 22ZM32 23L32 24L31 24L31 25L32 25L32 24L33 24L33 23ZM1 24L1 26L2 26L2 24ZM28 24L28 25L29 25L29 24ZM10 25L10 26L11 26L11 25ZM12 26L12 27L13 27L13 26ZM20 27L20 28L21 28L21 29L22 29L22 28L21 28L21 27ZM11 28L11 29L10 29L10 30L9 30L9 31L5 31L5 32L9 32L9 31L10 31L10 32L12 32L12 31L13 31L13 30L12 30L12 28ZM31 28L31 29L32 29L32 30L33 30L33 29L34 29L34 28L33 28L33 29L32 29L32 28ZM6 29L6 30L7 30L7 29ZM28 29L28 30L29 30L29 31L28 31L28 32L31 32L31 31L30 31L30 30L29 30L29 29ZM10 30L10 31L12 31L12 30ZM24 30L24 31L25 31L25 30ZM20 31L20 33L21 33L21 34L22 34L22 33L21 33L21 31ZM2 32L2 33L3 33L3 32ZM30 33L30 35L31 35L31 33ZM33 33L33 36L36 36L36 33ZM37 33L37 34L38 34L38 35L37 35L37 36L39 36L39 34L38 34L38 33ZM34 34L34 35L35 35L35 34ZM34 37L34 38L36 38L36 37ZM37 38L37 39L38 39L38 38ZM31 39L31 40L32 40L32 39ZM0 0L0 7L7 7L7 0ZM1 1L1 6L6 6L6 1ZM2 2L2 5L5 5L5 2ZM34 0L34 7L41 7L41 0ZM35 1L35 6L40 6L40 1ZM36 2L36 5L39 5L39 2ZM0 34L0 41L7 41L7 34ZM1 35L1 40L6 40L6 35ZM2 36L2 39L5 39L5 36Z" fill="#000000"/></g></g></svg>
