<?xml version="1.0" encoding="UTF-8"?>
<svg xmlns="http://www.w3.org/2000/svg" version="1.1" width="200" height="200" viewBox="0 0 200 200"><rect x="0" y="0" width="200" height="200" fill="#ffffff"/><g transform="scale(4.878)"><g transform="translate(0,0)"><path fill-rule="evenodd" d="M8 0L8 3L9 3L9 5L8 5L8 9L7 9L7 8L6 8L6 9L5 9L5 8L2 8L2 10L0 10L0 11L1 11L1 12L0 12L0 13L1 13L1 12L2 12L2 13L3 13L3 17L4 17L4 18L5 18L5 19L2 19L2 16L1 16L1 15L0 15L0 16L1 16L1 18L0 18L0 20L1 20L1 21L2 21L2 22L0 22L0 24L1 24L1 23L2 23L2 24L4 24L4 25L2 25L2 26L3 26L3 27L4 27L4 28L0 28L0 33L1 33L1 30L2 30L2 32L3 32L3 30L2 30L2 29L4 29L4 30L5 30L5 31L4 31L4 33L7 33L7 32L8 32L8 31L9 31L9 29L8 29L8 31L7 31L7 30L5 30L5 27L4 27L4 25L5 25L5 26L6 26L6 27L7 27L7 26L6 26L6 25L7 25L7 24L8 24L8 23L7 23L7 22L9 22L9 23L10 23L10 22L12 22L12 24L13 24L13 25L14 25L14 26L12 26L12 27L13 27L13 29L12 29L12 28L11 28L11 27L10 27L10 26L11 26L11 25L10 25L10 24L9 24L9 25L8 25L8 26L9 26L9 27L8 27L8 28L9 28L9 27L10 27L10 29L11 29L11 30L15 30L15 31L10 31L10 32L9 32L9 33L8 33L8 34L9 34L9 33L10 33L10 32L11 32L11 33L12 33L12 34L11 34L11 35L10 35L10 36L11 36L11 35L12 35L12 36L14 36L14 38L13 38L13 37L11 37L11 38L10 38L10 37L9 37L9 36L8 36L8 39L9 39L9 38L10 38L10 40L11 40L11 41L13 41L13 39L14 39L14 41L15 41L15 40L16 40L16 41L18 41L18 40L20 40L20 41L24 41L24 37L23 37L23 38L22 38L22 37L21 37L21 36L20 36L20 37L19 37L19 35L22 35L22 34L20 34L20 32L22 32L22 33L23 33L23 32L24 32L24 31L22 31L22 30L21 30L21 29L24 29L24 30L25 30L25 29L26 29L26 27L29 27L29 26L30 26L30 25L31 25L31 26L32 26L32 25L34 25L34 26L33 26L33 27L34 27L34 26L35 26L35 25L36 25L36 26L37 26L37 27L36 27L36 28L38 28L38 26L39 26L39 28L41 28L41 27L40 27L40 26L41 26L41 23L39 23L39 24L40 24L40 26L39 26L39 25L36 25L36 24L37 24L37 23L38 23L38 22L39 22L39 20L36 20L36 19L35 19L35 17L36 17L36 18L37 18L37 17L39 17L39 18L38 18L38 19L39 19L39 18L41 18L41 16L40 16L40 17L39 17L39 16L37 16L37 14L38 14L38 13L36 13L36 15L35 15L35 17L34 17L34 16L33 16L33 17L31 17L31 16L29 16L29 15L28 15L28 16L29 16L29 17L31 17L31 18L30 18L30 19L31 19L31 18L32 18L32 19L33 19L33 18L34 18L34 19L35 19L35 21L34 21L34 20L32 20L32 21L31 21L31 20L30 20L30 21L31 21L31 22L30 22L30 23L31 23L31 24L28 24L28 23L29 23L29 21L28 21L28 20L27 20L27 19L29 19L29 18L27 18L27 19L26 19L26 21L24 21L24 23L22 23L22 22L21 22L21 23L22 23L22 24L24 24L24 26L23 26L23 25L21 25L21 24L20 24L20 23L18 23L18 22L19 22L19 21L18 21L18 18L16 18L16 17L19 17L19 16L20 16L20 18L19 18L19 20L21 20L21 21L23 21L23 20L25 20L25 19L24 19L24 18L26 18L26 16L27 16L27 14L29 14L29 13L30 13L30 14L31 14L31 12L32 12L32 13L33 13L33 14L32 14L32 15L34 15L34 13L35 13L35 12L38 12L38 11L39 11L39 12L40 12L40 10L41 10L41 8L38 8L38 9L40 9L40 10L37 10L37 9L36 9L36 8L32 8L32 9L31 9L31 6L30 6L30 8L29 8L29 4L28 4L28 5L27 5L27 4L26 4L26 5L25 5L25 4L24 4L24 3L25 3L25 2L24 2L24 3L23 3L23 4L22 4L22 2L23 2L23 1L24 1L24 0L23 0L23 1L22 1L22 2L21 2L21 0L19 0L19 1L18 1L18 0L17 0L17 2L16 2L16 1L14 1L14 0L12 0L12 1L13 1L13 2L15 2L15 3L16 3L16 5L17 5L17 2L21 2L21 3L18 3L18 9L16 9L16 10L15 10L15 9L14 9L14 8L15 8L15 6L14 6L14 5L13 5L13 4L14 4L14 3L11 3L11 2L10 2L10 1L11 1L11 0L10 0L10 1L9 1L9 0ZM26 0L26 1L27 1L27 2L26 2L26 3L31 3L31 2L30 2L30 0L29 0L29 1L27 1L27 0ZM31 0L31 1L32 1L32 0ZM32 2L32 4L30 4L30 5L32 5L32 7L33 7L33 5L32 5L32 4L33 4L33 2ZM9 5L9 7L10 7L10 6L11 6L11 9L10 9L10 8L9 8L9 9L8 9L8 10L7 10L7 9L6 9L6 10L7 10L7 11L6 11L6 12L9 12L9 13L8 13L8 16L7 16L7 15L6 15L6 14L7 14L7 13L5 13L5 9L3 9L3 10L2 10L2 11L3 11L3 10L4 10L4 12L3 12L3 13L4 13L4 14L5 14L5 15L4 15L4 16L5 16L5 18L7 18L7 17L8 17L8 16L9 16L9 14L10 14L10 15L11 15L11 14L12 14L12 16L11 16L11 17L9 17L9 19L5 19L5 20L7 20L7 21L6 21L6 22L5 22L5 25L6 25L6 24L7 24L7 23L6 23L6 22L7 22L7 21L8 21L8 20L9 20L9 19L10 19L10 21L12 21L12 22L13 22L13 24L16 24L16 25L17 25L17 28L16 28L16 27L15 27L15 29L17 29L17 30L16 30L16 31L18 31L18 28L19 28L19 31L21 31L21 30L20 30L20 27L21 27L21 28L22 28L22 27L23 27L23 28L24 28L24 27L26 27L26 26L24 26L24 27L23 27L23 26L21 26L21 25L20 25L20 24L19 24L19 25L18 25L18 23L17 23L17 24L16 24L16 23L15 23L15 22L14 22L14 21L13 21L13 20L14 20L14 19L16 19L16 20L17 20L17 19L16 19L16 18L15 18L15 17L16 17L16 16L14 16L14 15L13 15L13 14L16 14L16 12L17 12L17 13L18 13L18 14L19 14L19 15L20 15L20 16L21 16L21 15L22 15L22 18L21 18L21 20L23 20L23 17L24 17L24 16L26 16L26 14L25 14L25 13L26 13L26 11L27 11L27 10L28 10L28 9L29 9L29 10L30 10L30 11L28 11L28 13L29 13L29 12L31 12L31 11L34 11L34 9L32 9L32 10L31 10L31 9L29 9L29 8L28 8L28 9L24 9L24 10L23 10L23 9L22 9L22 11L21 11L21 12L20 12L20 13L21 13L21 14L19 14L19 13L18 13L18 12L19 12L19 9L18 9L18 11L16 11L16 12L15 12L15 10L14 10L14 9L13 9L13 7L14 7L14 6L13 6L13 5ZM22 5L22 6L21 6L21 7L20 7L20 6L19 6L19 8L21 8L21 7L22 7L22 8L23 8L23 7L24 7L24 8L25 8L25 7L26 7L26 8L27 8L27 7L28 7L28 6L27 6L27 7L26 7L26 6L25 6L25 5ZM12 6L12 7L13 7L13 6ZM16 6L16 7L17 7L17 6ZM22 6L22 7L23 7L23 6ZM24 6L24 7L25 7L25 6ZM11 9L11 10L10 10L10 11L9 11L9 12L10 12L10 14L11 14L11 13L12 13L12 14L13 14L13 13L15 13L15 12L12 12L12 11L13 11L13 10L12 10L12 9ZM35 9L35 10L36 10L36 9ZM11 10L11 11L10 11L10 12L11 12L11 11L12 11L12 10ZM24 10L24 11L22 11L22 12L21 12L21 13L22 13L22 12L24 12L24 11L26 11L26 10ZM33 12L33 13L34 13L34 12ZM23 13L23 14L22 14L22 15L23 15L23 16L24 16L24 15L25 15L25 14L24 14L24 13ZM40 13L40 14L39 14L39 15L40 15L40 14L41 14L41 13ZM23 14L23 15L24 15L24 14ZM5 15L5 16L6 16L6 17L7 17L7 16L6 16L6 15ZM17 15L17 16L18 16L18 15ZM13 16L13 17L12 17L12 18L11 18L11 20L13 20L13 19L14 19L14 16ZM36 16L36 17L37 17L37 16ZM12 18L12 19L13 19L13 18ZM1 19L1 20L2 20L2 19ZM3 20L3 21L4 21L4 20ZM40 20L40 21L41 21L41 20ZM17 21L17 22L18 22L18 21ZM26 21L26 25L27 25L27 26L29 26L29 25L27 25L27 22L28 22L28 21ZM32 21L32 22L31 22L31 23L32 23L32 24L31 24L31 25L32 25L32 24L33 24L33 23L35 23L35 24L34 24L34 25L35 25L35 24L36 24L36 23L35 23L35 22L36 22L36 21L35 21L35 22L34 22L34 21ZM37 21L37 22L38 22L38 21ZM2 22L2 23L4 23L4 22ZM31 27L31 28L27 28L27 30L26 30L26 31L25 31L25 33L24 33L24 34L23 34L23 35L25 35L25 37L26 37L26 34L27 34L27 36L28 36L28 37L29 37L29 36L32 36L32 37L33 37L33 38L32 38L32 40L31 40L31 39L30 39L30 38L31 38L31 37L30 37L30 38L27 38L27 40L28 40L28 41L32 41L32 40L33 40L33 41L34 41L34 40L33 40L33 38L34 38L34 39L35 39L35 40L36 40L36 39L37 39L37 40L40 40L40 38L41 38L41 37L39 37L39 36L37 36L37 35L38 35L38 34L37 34L37 33L39 33L39 35L40 35L40 34L41 34L41 33L39 33L39 32L33 32L33 31L32 31L32 30L33 30L33 29L34 29L34 28L33 28L33 29L32 29L32 30L30 30L30 29L31 29L31 28L32 28L32 27ZM6 28L6 29L7 29L7 28ZM28 29L28 30L29 30L29 31L28 31L28 32L31 32L31 31L30 31L30 30L29 30L29 29ZM35 29L35 30L34 30L34 31L38 31L38 29ZM39 29L39 31L40 31L40 30L41 30L41 29ZM5 31L5 32L7 32L7 31ZM15 32L15 33L14 33L14 34L12 34L12 35L14 35L14 36L15 36L15 39L16 39L16 36L18 36L18 35L17 35L17 33L19 33L19 32ZM25 33L25 34L26 34L26 33ZM27 33L27 34L29 34L29 33ZM30 33L30 35L31 35L31 34L32 34L32 33ZM33 33L33 36L36 36L36 33ZM14 34L14 35L15 35L15 34ZM34 34L34 35L35 35L35 34ZM28 35L28 36L29 36L29 35ZM17 37L17 39L18 39L18 37ZM34 37L34 38L36 38L36 37ZM12 38L12 39L13 39L13 38ZM37 38L37 39L38 39L38 38ZM22 39L22 40L23 40L23 39ZM25 39L25 41L26 41L26 39ZM28 39L28 40L30 40L30 39ZM0 0L0 7L7 7L7 0ZM1 1L1 6L6 6L6 1ZM2 2L2 5L5 5L5 2ZM34 0L34 7L41 7L41 0ZM35 1L35 6L40 6L40 1ZM36 2L36 5L39 5L39 2ZM0 34L0 41L7 41L7 34ZM1 35L1 40L6 40L6 35ZM2 36L2 39L5 39L5 36Z" fill="#000000"/></g></g></svg>
