<?xml version="1.0" encoding="UTF-8"?>
<svg xmlns="http://www.w3.org/2000/svg" version="1.1" width="200" height="200" viewBox="0 0 200 200"><rect x="0" y="0" width="200" height="200" fill="#ffffff"/><g transform="scale(4.878)"><g transform="translate(0,0)"><path fill-rule="evenodd" d="M8 0L8 1L10 1L10 2L9 2L9 3L8 3L8 4L9 4L9 3L10 3L10 2L11 2L11 4L10 4L10 5L9 5L9 6L8 6L8 7L9 7L9 6L10 6L10 7L11 7L11 6L12 6L12 9L11 9L11 8L10 8L10 9L9 9L9 8L8 8L8 9L7 9L7 8L4 8L4 9L3 9L3 8L2 8L2 9L0 9L0 10L1 10L1 11L0 11L0 12L1 12L1 11L2 11L2 10L3 10L3 11L5 11L5 12L6 12L6 13L4 13L4 12L2 12L2 13L4 13L4 14L3 14L3 15L1 15L1 16L0 16L0 18L2 18L2 19L5 19L5 17L7 17L7 18L6 18L6 19L7 19L7 20L6 20L6 21L7 21L7 22L5 22L5 23L3 23L3 20L2 20L2 22L1 22L1 20L0 20L0 22L1 22L1 24L4 24L4 25L5 25L5 27L7 27L7 28L5 28L5 29L4 29L4 30L5 30L5 31L4 31L4 32L3 32L3 31L1 31L1 30L2 30L2 29L3 29L3 25L2 25L2 26L1 26L1 25L0 25L0 26L1 26L1 27L2 27L2 29L1 29L1 28L0 28L0 29L1 29L1 30L0 30L0 31L1 31L1 32L0 32L0 33L1 33L1 32L2 32L2 33L4 33L4 32L5 32L5 33L8 33L8 34L9 34L9 35L8 35L8 37L10 37L10 38L8 38L8 39L9 39L9 40L10 40L10 41L11 41L11 40L12 40L12 39L13 39L13 38L16 38L16 39L17 39L17 40L16 40L16 41L17 41L17 40L18 40L18 41L20 41L20 40L21 40L21 41L22 41L22 40L23 40L23 41L26 41L26 40L25 40L25 36L26 36L26 38L27 38L27 35L26 35L26 34L25 34L25 36L24 36L24 35L23 35L23 34L22 34L22 35L21 35L21 34L19 34L19 35L17 35L17 33L20 33L20 32L19 32L19 30L21 30L21 32L24 32L24 33L25 33L25 32L24 32L24 31L23 31L23 30L24 30L24 29L23 29L23 28L26 28L26 29L27 29L27 31L28 31L28 32L26 32L26 33L28 33L28 32L29 32L29 34L28 34L28 35L29 35L29 36L28 36L28 38L29 38L29 41L31 41L31 40L30 40L30 39L31 39L31 36L32 36L32 41L33 41L33 37L35 37L35 39L36 39L36 40L38 40L38 41L41 41L41 40L40 40L40 39L41 39L41 36L40 36L40 37L39 37L39 38L38 38L38 39L37 39L37 38L36 38L36 37L37 37L37 35L39 35L39 34L40 34L40 35L41 35L41 32L39 32L39 34L38 34L38 33L37 33L37 32L36 32L36 31L38 31L38 30L36 30L36 24L37 24L37 25L38 25L38 26L37 26L37 27L39 27L39 28L38 28L38 29L39 29L39 30L40 30L40 31L41 31L41 25L40 25L40 24L41 24L41 22L38 22L38 19L39 19L39 17L40 17L40 19L41 19L41 17L40 17L40 16L39 16L39 17L38 17L38 15L39 15L39 14L38 14L38 13L40 13L40 15L41 15L41 8L40 8L40 12L38 12L38 13L37 13L37 14L36 14L36 13L35 13L35 12L36 12L36 11L38 11L38 8L37 8L37 10L36 10L36 9L34 9L34 8L33 8L33 3L31 3L31 6L30 6L30 3L29 3L29 5L28 5L28 4L27 4L27 2L30 2L30 1L29 1L29 0L27 0L27 1L26 1L26 0L23 0L23 1L22 1L22 0L21 0L21 1L20 1L20 0L19 0L19 1L18 1L18 4L14 4L14 3L15 3L15 1L16 1L16 2L17 2L17 1L16 1L16 0L13 0L13 1L12 1L12 2L11 2L11 0ZM31 0L31 2L32 2L32 1L33 1L33 0ZM13 1L13 2L12 2L12 3L14 3L14 1ZM19 1L19 4L18 4L18 5L17 5L17 8L18 8L18 9L16 9L16 8L15 8L15 7L16 7L16 5L14 5L14 4L12 4L12 5L14 5L14 6L13 6L13 7L14 7L14 9L13 9L13 11L16 11L16 10L17 10L17 12L18 12L18 13L17 13L17 14L15 14L15 12L12 12L12 15L13 15L13 16L12 16L12 18L11 18L11 19L10 19L10 18L8 18L8 20L9 20L9 19L10 19L10 21L11 21L11 22L10 22L10 23L9 23L9 22L8 22L8 24L9 24L9 25L8 25L8 26L7 26L7 25L6 25L6 24L7 24L7 23L5 23L5 25L6 25L6 26L7 26L7 27L8 27L8 28L7 28L7 29L5 29L5 30L7 30L7 31L6 31L6 32L8 32L8 31L9 31L9 30L10 30L10 31L11 31L11 32L10 32L10 35L14 35L14 32L13 32L13 30L14 30L14 31L15 31L15 32L16 32L16 33L17 33L17 30L16 30L16 31L15 31L15 28L17 28L17 27L18 27L18 29L21 29L21 30L23 30L23 29L21 29L21 28L23 28L23 27L24 27L24 26L25 26L25 27L26 27L26 28L27 28L27 29L28 29L28 28L29 28L29 27L33 27L33 26L32 26L32 23L34 23L34 20L35 20L35 24L36 24L36 23L38 23L38 25L39 25L39 27L40 27L40 25L39 25L39 24L40 24L40 23L38 23L38 22L36 22L36 19L38 19L38 18L37 18L37 15L36 15L36 14L35 14L35 13L34 13L34 12L35 12L35 11L34 11L34 9L33 9L33 8L32 8L32 6L31 6L31 7L30 7L30 6L29 6L29 7L28 7L28 6L27 6L27 5L26 5L26 6L25 6L25 8L24 8L24 6L23 6L23 7L22 7L22 5L21 5L21 4L20 4L20 1ZM21 1L21 2L22 2L22 3L23 3L23 4L24 4L24 5L25 5L25 3L23 3L23 2L22 2L22 1ZM24 1L24 2L26 2L26 1ZM19 4L19 6L18 6L18 8L19 8L19 6L20 6L20 7L21 7L21 8L22 8L22 7L21 7L21 5L20 5L20 4ZM10 5L10 6L11 6L11 5ZM14 6L14 7L15 7L15 6ZM26 6L26 7L27 7L27 6ZM29 7L29 11L26 11L26 12L25 12L25 11L23 11L23 12L22 12L22 11L21 11L21 10L23 10L23 9L24 9L24 8L23 8L23 9L20 9L20 11L21 11L21 12L19 12L19 11L18 11L18 12L19 12L19 13L18 13L18 14L17 14L17 15L19 15L19 16L20 16L20 17L18 17L18 16L17 16L17 17L18 17L18 18L16 18L16 17L15 17L15 16L16 16L16 15L15 15L15 14L14 14L14 16L13 16L13 17L15 17L15 20L16 20L16 19L17 19L17 20L18 20L18 18L19 18L19 19L20 19L20 20L19 20L19 23L18 23L18 24L20 24L20 22L21 22L21 23L23 23L23 24L28 24L28 26L29 26L29 25L30 25L30 26L31 26L31 22L30 22L30 21L29 21L29 20L28 20L28 19L30 19L30 18L28 18L28 19L27 19L27 18L26 18L26 17L27 17L27 16L28 16L28 17L30 17L30 16L31 16L31 17L32 17L32 16L33 16L33 10L32 10L32 13L31 13L31 12L30 12L30 11L31 11L31 10L30 10L30 7ZM5 9L5 11L6 11L6 12L8 12L8 13L6 13L6 14L7 14L7 15L6 15L6 16L7 16L7 17L8 17L8 16L7 16L7 15L8 15L8 13L11 13L11 12L9 12L9 11L12 11L12 10L9 10L9 9L8 9L8 10L7 10L7 9ZM18 9L18 10L19 10L19 9ZM6 10L6 11L7 11L7 10ZM8 10L8 11L9 11L9 10ZM21 12L21 13L22 13L22 14L20 14L20 13L19 13L19 15L25 15L25 16L21 16L21 19L25 19L25 20L24 20L24 21L21 21L21 22L23 22L23 23L25 23L25 22L27 22L27 23L29 23L29 22L28 22L28 20L27 20L27 19L26 19L26 18L25 18L25 17L26 17L26 16L27 16L27 15L28 15L28 16L29 16L29 15L31 15L31 16L32 16L32 15L31 15L31 13L30 13L30 14L29 14L29 12L27 12L27 13L26 13L26 14L23 14L23 13L22 13L22 12ZM0 13L0 14L1 14L1 13ZM27 13L27 14L28 14L28 13ZM4 14L4 15L3 15L3 16L1 16L1 17L2 17L2 18L4 18L4 17L5 17L5 14ZM9 14L9 16L10 16L10 17L11 17L11 14ZM34 14L34 15L35 15L35 14ZM34 16L34 17L33 17L33 18L32 18L32 19L31 19L31 20L32 20L32 19L34 19L34 18L36 18L36 16ZM13 19L13 20L14 20L14 19ZM11 20L11 21L12 21L12 23L10 23L10 26L8 26L8 27L9 27L9 29L8 29L8 30L9 30L9 29L10 29L10 27L11 27L11 28L12 28L12 29L13 29L13 28L15 28L15 27L11 27L11 25L13 25L13 26L17 26L17 25L15 25L15 24L12 24L12 23L15 23L15 22L13 22L13 21L12 21L12 20ZM25 20L25 21L24 21L24 22L25 22L25 21L27 21L27 20ZM39 20L39 21L40 21L40 20ZM16 21L16 24L17 24L17 22L18 22L18 21ZM21 24L21 26L20 26L20 25L19 25L19 26L18 26L18 27L19 27L19 26L20 26L20 28L21 28L21 26L22 26L22 27L23 27L23 26L24 26L24 25L22 25L22 24ZM26 25L26 27L27 27L27 25ZM34 26L34 27L35 27L35 26ZM31 28L31 29L32 29L32 30L29 30L29 31L32 31L32 32L30 32L30 34L29 34L29 35L30 35L30 34L32 34L32 32L35 32L35 28L34 28L34 31L33 31L33 28ZM39 28L39 29L40 29L40 28ZM11 30L11 31L12 31L12 30ZM25 30L25 31L26 31L26 30ZM12 33L12 34L13 34L13 33ZM33 33L33 36L36 36L36 33ZM34 34L34 35L35 35L35 34ZM15 35L15 36L13 36L13 37L12 37L12 38L11 38L11 39L10 39L10 40L11 40L11 39L12 39L12 38L13 38L13 37L15 37L15 36L16 36L16 38L20 38L20 39L21 39L21 40L22 40L22 38L23 38L23 40L24 40L24 36L23 36L23 37L22 37L22 38L21 38L21 37L18 37L18 36L16 36L16 35ZM19 35L19 36L21 36L21 35ZM29 36L29 37L30 37L30 36ZM39 38L39 39L38 39L38 40L39 40L39 39L40 39L40 38ZM14 39L14 40L13 40L13 41L15 41L15 39ZM27 39L27 41L28 41L28 39ZM34 40L34 41L35 41L35 40ZM0 0L0 7L7 7L7 0ZM1 1L1 6L6 6L6 1ZM2 2L2 5L5 5L5 2ZM34 0L34 7L41 7L41 0ZM35 1L35 6L40 6L40 1ZM36 2L36 5L39 5L39 2ZM0 34L0 41L7 41L7 34ZM1 35L1 40L6 40L6 35ZM2 36L2 39L5 39L5 36Z" fill="#000000"/></g></g></svg>
