<?xml version="1.0" encoding="UTF-8"?>
<svg xmlns="http://www.w3.org/2000/svg" version="1.1" width="200" height="200" viewBox="0 0 200 200"><rect x="0" y="0" width="200" height="200" fill="#ffffff"/><g transform="scale(4.878)"><g transform="translate(0,0)"><path fill-rule="evenodd" d="M12 0L12 1L8 1L8 7L9 7L9 2L10 2L10 7L11 7L11 2L12 2L12 5L14 5L14 7L15 7L15 6L16 6L16 7L17 7L17 8L18 8L18 7L19 7L19 6L20 6L20 8L19 8L19 9L16 9L16 10L17 10L17 11L16 11L16 12L15 12L15 13L16 13L16 12L17 12L17 11L18 11L18 12L19 12L19 14L18 14L18 13L17 13L17 14L16 14L16 15L14 15L14 16L13 16L13 14L14 14L14 12L13 12L13 10L12 10L12 9L11 9L11 8L5 8L5 9L8 9L8 11L9 11L9 10L10 10L10 11L11 11L11 12L10 12L10 13L9 13L9 12L6 12L6 11L7 11L7 10L6 10L6 11L5 11L5 10L4 10L4 9L3 9L3 8L2 8L2 9L0 9L0 10L1 10L1 11L2 11L2 10L3 10L3 11L5 11L5 13L4 13L4 14L3 14L3 12L1 12L1 13L2 13L2 14L0 14L0 15L1 15L1 16L0 16L0 17L2 17L2 18L1 18L1 20L0 20L0 21L1 21L1 20L3 20L3 21L2 21L2 22L1 22L1 23L2 23L2 25L4 25L4 22L6 22L6 23L7 23L7 24L5 24L5 27L4 27L4 26L3 26L3 27L2 27L2 26L1 26L1 25L0 25L0 26L1 26L1 30L0 30L0 31L2 31L2 32L0 32L0 33L2 33L2 32L3 32L3 33L7 33L7 32L9 32L9 31L11 31L11 30L12 30L12 29L13 29L13 32L12 32L12 33L11 33L11 32L10 32L10 34L12 34L12 35L10 35L10 37L9 37L9 38L8 38L8 39L10 39L10 41L11 41L11 40L12 40L12 41L13 41L13 40L12 40L12 38L16 38L16 39L15 39L15 41L17 41L17 38L16 38L16 37L13 37L13 34L14 34L14 36L15 36L15 34L16 34L16 33L17 33L17 34L18 34L18 33L20 33L20 32L18 32L18 31L19 31L19 29L20 29L20 30L21 30L21 32L22 32L22 33L21 33L21 34L22 34L22 35L20 35L20 34L19 34L19 36L22 36L22 37L21 37L21 38L22 38L22 40L21 40L21 41L22 41L22 40L23 40L23 41L24 41L24 40L25 40L25 41L28 41L28 40L26 40L26 39L24 39L24 40L23 40L23 38L24 38L24 37L26 37L26 38L27 38L27 39L28 39L28 35L29 35L29 37L30 37L30 35L29 35L29 34L30 34L30 33L29 33L29 34L28 34L28 32L26 32L26 34L25 34L25 33L23 33L23 30L24 30L24 29L25 29L25 27L23 27L23 26L26 26L26 24L27 24L27 27L26 27L26 28L27 28L27 27L30 27L30 28L31 28L31 29L32 29L32 31L31 31L31 30L30 30L30 32L32 32L32 35L31 35L31 37L33 37L33 39L32 39L32 38L31 38L31 39L30 39L30 38L29 38L29 39L30 39L30 41L31 41L31 39L32 39L32 41L36 41L36 40L37 40L37 41L39 41L39 39L41 39L41 36L40 36L40 35L41 35L41 32L40 32L40 31L41 31L41 29L40 29L40 28L38 28L38 27L41 27L41 25L39 25L39 24L37 24L37 26L36 26L36 27L35 27L35 24L34 24L34 23L35 23L35 20L36 20L36 21L37 21L37 19L36 19L36 18L35 18L35 16L34 16L34 15L37 15L37 14L38 14L38 13L39 13L39 16L40 16L40 15L41 15L41 13L40 13L40 11L41 11L41 9L40 9L40 8L35 8L35 9L34 9L34 8L33 8L33 6L32 6L32 7L31 7L31 6L30 6L30 7L31 7L31 8L30 8L30 10L28 10L28 8L27 8L27 6L26 6L26 5L25 5L25 4L24 4L24 3L26 3L26 2L25 2L25 1L26 1L26 0L24 0L24 1L23 1L23 2L21 2L21 3L23 3L23 4L24 4L24 5L21 5L21 6L20 6L20 3L19 3L19 2L18 2L18 1L17 1L17 3L16 3L16 4L17 4L17 6L16 6L16 5L15 5L15 1L16 1L16 0L15 0L15 1L14 1L14 2L13 2L13 0ZM19 0L19 1L20 1L20 0ZM28 0L28 2L27 2L27 4L28 4L28 5L31 5L31 3L33 3L33 0L32 0L32 2L31 2L31 1L29 1L29 0ZM23 2L23 3L24 3L24 2ZM28 2L28 3L29 3L29 4L30 4L30 2ZM13 3L13 4L14 4L14 3ZM18 3L18 5L19 5L19 3ZM24 5L24 6L23 6L23 7L22 7L22 6L21 6L21 8L20 8L20 9L19 9L19 11L20 11L20 15L19 15L19 16L20 16L20 15L21 15L21 14L22 14L22 13L23 13L23 12L24 12L24 11L25 11L25 14L26 14L26 15L28 15L28 13L27 13L27 12L28 12L28 11L27 11L27 9L26 9L26 10L24 10L24 9L25 9L25 7L26 7L26 6L25 6L25 5ZM12 6L12 8L13 8L13 6ZM17 6L17 7L18 7L18 6ZM24 6L24 7L23 7L23 8L22 8L22 9L24 9L24 7L25 7L25 6ZM28 6L28 7L29 7L29 6ZM32 8L32 11L31 11L31 10L30 10L30 11L29 11L29 14L32 14L32 15L29 15L29 17L28 17L28 16L27 16L27 17L26 17L26 16L24 16L24 17L22 17L22 18L21 18L21 17L19 17L19 18L18 18L18 17L17 17L17 16L18 16L18 15L16 15L16 17L15 17L15 16L14 16L14 18L13 18L13 19L14 19L14 21L13 21L13 22L11 22L11 24L12 24L12 23L14 23L14 24L13 24L13 25L14 25L14 24L15 24L15 25L16 25L16 24L18 24L18 25L19 25L19 26L20 26L20 27L19 27L19 28L18 28L18 29L19 29L19 28L21 28L21 30L22 30L22 28L21 28L21 27L22 27L22 26L20 26L20 25L19 25L19 24L18 24L18 23L19 23L19 22L18 22L18 21L17 21L17 22L15 22L15 23L14 23L14 21L15 21L15 19L17 19L17 20L19 20L19 21L20 21L20 22L21 22L21 21L22 21L22 23L21 23L21 24L22 24L22 23L23 23L23 25L24 25L24 23L27 23L27 24L28 24L28 26L29 26L29 25L30 25L30 27L31 27L31 24L32 24L32 26L33 26L33 24L32 24L32 23L33 23L33 20L32 20L32 23L29 23L29 22L30 22L30 21L29 21L29 20L30 20L30 19L29 19L29 18L30 18L30 16L32 16L32 18L33 18L33 19L34 19L34 20L35 20L35 18L34 18L34 17L33 17L33 14L37 14L37 11L38 11L38 12L39 12L39 9L35 9L35 10L33 10L33 8ZM14 9L14 10L15 10L15 9ZM20 10L20 11L21 11L21 13L22 13L22 12L23 12L23 11L24 11L24 10L23 10L23 11L21 11L21 10ZM36 10L36 11L34 11L34 12L35 12L35 13L36 13L36 11L37 11L37 10ZM26 11L26 12L27 12L27 11ZM30 12L30 13L32 13L32 12ZM5 13L5 14L4 14L4 15L3 15L3 14L2 14L2 15L3 15L3 16L4 16L4 17L5 17L5 18L7 18L7 19L6 19L6 20L8 20L8 22L10 22L10 21L12 21L12 20L11 20L11 18L12 18L12 17L13 17L13 16L12 16L12 15L11 15L11 16L12 16L12 17L10 17L10 16L9 16L9 15L8 15L8 17L6 17L6 16L7 16L7 15L6 15L6 16L4 16L4 15L5 15L5 14L7 14L7 13ZM8 13L8 14L9 14L9 13ZM10 13L10 14L12 14L12 13ZM26 13L26 14L27 14L27 13ZM23 14L23 15L24 15L24 14ZM8 17L8 20L10 20L10 19L9 19L9 17ZM24 17L24 19L23 19L23 18L22 18L22 21L23 21L23 23L24 23L24 22L25 22L25 20L24 20L24 19L26 19L26 18L25 18L25 17ZM27 17L27 20L26 20L26 21L27 21L27 23L28 23L28 24L29 24L29 23L28 23L28 20L29 20L29 19L28 19L28 17ZM39 17L39 18L38 18L38 19L39 19L39 20L40 20L40 19L41 19L41 17ZM19 18L19 20L21 20L21 19L20 19L20 18ZM4 19L4 21L3 21L3 22L4 22L4 21L5 21L5 19ZM23 20L23 21L24 21L24 20ZM6 21L6 22L7 22L7 21ZM38 21L38 22L36 22L36 23L39 23L39 22L40 22L40 24L41 24L41 22L40 22L40 21ZM17 22L17 23L18 23L18 22ZM15 23L15 24L16 24L16 23ZM7 24L7 25L6 25L6 26L9 26L9 27L10 27L10 26L12 26L12 27L11 27L11 28L12 28L12 27L13 27L13 29L14 29L14 28L15 28L15 26L14 26L14 27L13 27L13 26L12 26L12 25L10 25L10 24L9 24L9 25L8 25L8 24ZM9 25L9 26L10 26L10 25ZM16 26L16 29L15 29L15 30L14 30L14 31L15 31L15 30L16 30L16 32L13 32L13 33L12 33L12 34L13 34L13 33L16 33L16 32L17 32L17 33L18 33L18 32L17 32L17 31L18 31L18 30L16 30L16 29L17 29L17 26ZM37 26L37 27L36 27L36 28L35 28L35 27L34 27L34 28L35 28L35 29L34 29L34 30L33 30L33 31L34 31L34 32L36 32L36 31L35 31L35 30L37 30L37 27L38 27L38 26ZM5 27L5 31L6 31L6 32L7 32L7 31L6 31L6 30L8 30L8 31L9 31L9 30L8 30L8 27ZM2 28L2 29L3 29L3 28ZM6 28L6 29L7 29L7 28ZM9 28L9 29L10 29L10 30L11 30L11 29L10 29L10 28ZM26 29L26 30L27 30L27 31L28 31L28 30L27 30L27 29ZM38 29L38 30L40 30L40 29ZM2 30L2 31L3 31L3 32L4 32L4 31L3 31L3 30ZM37 31L37 37L34 37L34 40L35 40L35 39L36 39L36 38L37 38L37 37L39 37L39 38L38 38L38 39L39 39L39 38L40 38L40 36L39 36L39 35L38 35L38 33L39 33L39 34L40 34L40 32L39 32L39 31ZM8 33L8 36L9 36L9 33ZM22 33L22 34L23 34L23 36L25 36L25 35L24 35L24 34L23 34L23 33ZM33 33L33 36L36 36L36 33ZM34 34L34 35L35 35L35 34ZM16 35L16 36L17 36L17 37L18 37L18 35ZM26 35L26 37L27 37L27 35ZM10 37L10 38L11 38L11 37ZM22 37L22 38L23 38L23 37ZM18 39L18 40L19 40L19 41L20 41L20 39ZM40 40L40 41L41 41L41 40ZM0 0L0 7L7 7L7 0ZM1 1L1 6L6 6L6 1ZM2 2L2 5L5 5L5 2ZM34 0L34 7L41 7L41 0ZM35 1L35 6L40 6L40 1ZM36 2L36 5L39 5L39 2ZM0 34L0 41L7 41L7 34ZM1 35L1 40L6 40L6 35ZM2 36L2 39L5 39L5 36Z" fill="#000000"/></g></g></svg>
