<?xml version="1.0" encoding="UTF-8"?>
<svg xmlns="http://www.w3.org/2000/svg" version="1.1" width="200" height="200" viewBox="0 0 200 200"><rect x="0" y="0" width="200" height="200" fill="#ffffff"/><g transform="scale(6.897)"><g transform="translate(0,0)"><path fill-rule="evenodd" d="M9 0L9 2L8 2L8 4L9 4L9 5L11 5L11 6L10 6L10 7L11 7L11 8L10 8L10 10L11 10L11 11L9 11L9 9L8 9L8 8L6 8L6 9L8 9L8 11L7 11L7 10L4 10L4 9L5 9L5 8L3 8L3 9L1 9L1 10L0 10L0 13L1 13L1 14L0 14L0 15L4 15L4 17L3 17L3 16L0 16L0 21L4 21L4 19L5 19L5 21L8 21L8 23L9 23L9 24L8 24L8 26L9 26L9 24L11 24L11 23L12 23L12 22L13 22L13 21L12 21L12 20L11 20L11 19L12 19L12 18L14 18L14 16L13 16L13 17L12 17L12 14L13 14L13 15L14 15L14 14L16 14L16 15L20 15L20 16L21 16L21 19L20 19L20 18L17 18L17 17L19 17L19 16L15 16L15 19L16 19L16 18L17 18L17 20L18 20L18 21L16 21L16 20L15 20L15 21L16 21L16 23L15 23L15 22L14 22L14 25L13 25L13 26L12 26L12 28L13 28L13 29L14 29L14 28L16 28L16 29L20 29L20 28L21 28L21 29L23 29L23 28L24 28L24 29L25 29L25 28L26 28L26 29L28 29L28 28L26 28L26 27L23 27L23 28L22 28L22 26L21 26L21 27L20 27L20 28L19 28L19 26L18 26L18 25L17 25L17 28L16 28L16 27L14 27L14 25L16 25L16 24L19 24L19 25L24 25L24 26L25 26L25 22L27 22L27 23L28 23L28 24L26 24L26 26L27 26L27 27L29 27L29 26L27 26L27 25L29 25L29 22L28 22L28 21L26 21L26 18L28 18L28 19L29 19L29 17L28 17L28 16L29 16L29 14L28 14L28 13L29 13L29 11L28 11L28 10L27 10L27 8L25 8L25 9L26 9L26 10L25 10L25 12L24 12L24 16L23 16L23 12L22 12L22 11L21 11L21 10L19 10L19 9L17 9L17 8L19 8L19 6L20 6L20 7L21 7L21 4L19 4L19 3L20 3L20 1L21 1L21 0L19 0L19 1L18 1L18 0L17 0L17 1L16 1L16 0L15 0L15 1L14 1L14 0L13 0L13 2L16 2L16 4L14 4L14 3L11 3L11 1L12 1L12 0ZM17 1L17 4L16 4L16 5L17 5L17 7L18 7L18 6L19 6L19 4L18 4L18 3L19 3L19 2L18 2L18 1ZM9 2L9 4L11 4L11 5L12 5L12 6L11 6L11 7L12 7L12 6L13 6L13 8L12 8L12 9L11 9L11 10L12 10L12 11L15 11L15 10L13 10L13 9L14 9L14 8L15 8L15 7L16 7L16 6L15 6L15 7L14 7L14 5L12 5L12 4L11 4L11 3L10 3L10 2ZM8 6L8 7L9 7L9 6ZM16 9L16 13L17 13L17 14L18 14L18 11L17 11L17 9ZM22 9L22 10L23 10L23 11L24 11L24 9ZM3 10L3 12L2 12L2 11L1 11L1 12L2 12L2 13L3 13L3 14L4 14L4 15L5 15L5 14L8 14L8 16L7 16L7 15L6 15L6 16L5 16L5 19L6 19L6 20L8 20L8 21L9 21L9 23L10 23L10 21L11 21L11 20L9 20L9 17L10 17L10 16L9 16L9 15L11 15L11 14L12 14L12 13L13 13L13 14L14 14L14 13L15 13L15 12L14 12L14 13L13 13L13 12L12 12L12 13L11 13L11 12L10 12L10 14L9 14L9 13L6 13L6 12L7 12L7 11L6 11L6 12L5 12L5 11L4 11L4 10ZM26 10L26 11L27 11L27 12L28 12L28 11L27 11L27 10ZM8 11L8 12L9 12L9 11ZM4 12L4 14L5 14L5 12ZM19 12L19 13L20 13L20 12ZM21 12L21 14L20 14L20 15L21 15L21 14L22 14L22 12ZM25 13L25 16L26 16L26 17L27 17L27 16L28 16L28 15L27 15L27 16L26 16L26 13ZM6 16L6 17L7 17L7 16ZM22 16L22 17L23 17L23 16ZM2 17L2 19L3 19L3 17ZM11 17L11 18L10 18L10 19L11 19L11 18L12 18L12 17ZM6 18L6 19L7 19L7 18ZM13 19L13 20L14 20L14 19ZM21 19L21 20L22 20L22 19ZM23 19L23 20L25 20L25 19ZM18 21L18 23L19 23L19 24L20 24L20 21ZM21 21L21 24L24 24L24 21ZM22 22L22 23L23 23L23 22ZM10 25L10 28L11 28L11 25ZM13 27L13 28L14 28L14 27ZM0 0L0 7L7 7L7 0ZM1 1L1 6L6 6L6 1ZM2 2L2 5L5 5L5 2ZM22 0L22 7L29 7L29 0ZM23 1L23 6L28 6L28 1ZM24 2L24 5L27 5L27 2ZM0 22L0 29L7 29L7 22ZM1 23L1 28L6 28L6 23ZM2 24L2 27L5 27L5 24Z" fill="#000000"/></g></g></svg>
