<?xml version="1.0" encoding="UTF-8"?>
<svg xmlns="http://www.w3.org/2000/svg" version="1.1" width="200" height="200" viewBox="0 0 200 200"><rect x="0" y="0" width="200" height="200" fill="#ffffff"/><g transform="scale(4.878)"><g transform="translate(0,0)"><path fill-rule="evenodd" d="M10 0L10 2L8 2L8 4L10 4L10 2L11 2L11 1L12 1L12 0ZM13 0L13 1L14 1L14 3L15 3L15 4L16 4L16 7L15 7L15 5L13 5L13 4L12 4L12 7L11 7L11 5L10 5L10 8L11 8L11 9L10 9L10 10L9 10L9 9L8 9L8 8L6 8L6 9L7 9L7 10L5 10L5 8L3 8L3 9L2 9L2 10L3 10L3 9L4 9L4 10L5 10L5 11L8 11L8 12L6 12L6 13L5 13L5 12L4 12L4 11L3 11L3 12L2 12L2 11L1 11L1 12L0 12L0 13L1 13L1 12L2 12L2 14L0 14L0 15L2 15L2 14L4 14L4 15L5 15L5 16L6 16L6 17L7 17L7 16L6 16L6 15L9 15L9 16L10 16L10 17L8 17L8 18L6 18L6 19L7 19L7 20L6 20L6 21L7 21L7 22L6 22L6 23L5 23L5 22L3 22L3 18L2 18L2 17L1 17L1 18L0 18L0 21L1 21L1 23L0 23L0 24L2 24L2 22L3 22L3 23L5 23L5 25L4 25L4 24L3 24L3 25L2 25L2 26L5 26L5 27L4 27L4 28L1 28L1 29L0 29L0 33L2 33L2 32L3 32L3 30L1 30L1 29L4 29L4 30L5 30L5 31L4 31L4 32L5 32L5 33L7 33L7 32L8 32L8 35L9 35L9 36L8 36L8 38L9 38L9 39L10 39L10 40L9 40L9 41L10 41L10 40L11 40L11 41L15 41L15 39L16 39L16 37L15 37L15 36L16 36L16 33L17 33L17 32L16 32L16 31L18 31L18 33L20 33L20 31L21 31L21 32L22 32L22 33L21 33L21 34L22 34L22 35L24 35L24 36L21 36L21 35L20 35L20 36L21 36L21 38L22 38L22 39L21 39L21 40L19 40L19 41L23 41L23 40L24 40L24 41L25 41L25 40L26 40L26 41L29 41L29 39L28 39L28 38L29 38L29 37L30 37L30 41L31 41L31 40L32 40L32 41L34 41L34 40L35 40L35 41L36 41L36 39L37 39L37 40L38 40L38 41L39 41L39 40L38 40L38 39L40 39L40 40L41 40L41 35L40 35L40 34L39 34L39 33L41 33L41 30L39 30L39 31L35 31L35 32L34 32L34 31L33 31L33 30L38 30L38 29L41 29L41 25L39 25L39 24L37 24L37 21L38 21L38 23L39 23L39 22L41 22L41 21L39 21L39 20L40 20L40 19L41 19L41 18L40 18L40 17L41 17L41 12L40 12L40 9L39 9L39 8L37 8L37 9L36 9L36 10L37 10L37 11L35 11L35 10L34 10L34 9L33 9L33 6L32 6L32 7L31 7L31 6L30 6L30 8L29 8L29 9L28 9L28 7L29 7L29 6L28 6L28 7L27 7L27 6L26 6L26 4L28 4L28 5L33 5L33 4L29 4L29 3L33 3L33 2L32 2L32 1L33 1L33 0L32 0L32 1L31 1L31 2L30 2L30 1L29 1L29 0L28 0L28 2L27 2L27 1L26 1L26 0L22 0L22 3L21 3L21 2L20 2L20 1L21 1L21 0L20 0L20 1L19 1L19 3L18 3L18 0L15 0L15 1L14 1L14 0ZM16 1L16 2L15 2L15 3L16 3L16 4L17 4L17 5L18 5L18 6L17 6L17 7L16 7L16 8L13 8L13 7L14 7L14 6L13 6L13 7L12 7L12 10L11 10L11 11L12 11L12 10L13 10L13 9L14 9L14 11L15 11L15 9L17 9L17 10L16 10L16 12L17 12L17 14L16 14L16 13L15 13L15 12L14 12L14 13L13 13L13 12L11 12L11 13L6 13L6 14L9 14L9 15L11 15L11 18L12 18L12 19L11 19L11 21L12 21L12 19L13 19L13 23L12 23L12 25L11 25L11 29L13 29L13 28L16 28L16 30L15 30L15 29L14 29L14 30L15 30L15 31L16 31L16 30L17 30L17 28L18 28L18 31L20 31L20 29L19 29L19 27L17 27L17 26L20 26L20 27L21 27L21 26L20 26L20 25L19 25L19 22L18 22L18 23L17 23L17 22L16 22L16 21L17 21L17 20L19 20L19 19L20 19L20 20L21 20L21 22L20 22L20 24L21 24L21 25L22 25L22 26L26 26L26 27L23 27L23 31L22 31L22 28L21 28L21 31L22 31L22 32L24 32L24 31L25 31L25 30L26 30L26 29L24 29L24 28L28 28L28 27L27 27L27 26L26 26L26 25L27 25L27 24L28 24L28 23L27 23L27 22L26 22L26 23L25 23L25 25L22 25L22 24L24 24L24 22L25 22L25 21L26 21L26 20L25 20L25 19L27 19L27 20L29 20L29 21L28 21L28 22L30 22L30 23L32 23L32 22L31 22L31 21L30 21L30 20L31 20L31 19L29 19L29 18L28 18L28 19L27 19L27 18L26 18L26 17L32 17L32 19L34 19L34 20L35 20L35 17L37 17L37 18L36 18L36 20L38 20L38 19L37 19L37 18L39 18L39 17L40 17L40 16L38 16L38 15L39 15L39 14L38 14L38 13L37 13L37 12L36 12L36 13L35 13L35 11L34 11L34 10L31 10L31 11L33 11L33 12L32 12L32 13L33 13L33 14L35 14L35 15L36 15L36 13L37 13L37 16L34 16L34 17L33 17L33 16L32 16L32 15L31 15L31 16L30 16L30 15L28 15L28 13L27 13L27 15L28 15L28 16L26 16L26 17L25 17L25 16L24 16L24 17L25 17L25 19L24 19L24 18L23 18L23 15L24 15L24 13L23 13L23 12L24 12L24 11L26 11L26 12L25 12L25 13L26 13L26 12L27 12L27 10L24 10L24 11L23 11L23 10L22 10L22 9L20 9L20 6L21 6L21 8L23 8L23 9L24 9L24 6L25 6L25 7L26 7L26 9L27 9L27 7L26 7L26 6L25 6L25 5L24 5L24 4L26 4L26 3L25 3L25 1L24 1L24 2L23 2L23 7L22 7L22 6L21 6L21 5L22 5L22 4L21 4L21 3L19 3L19 4L17 4L17 1ZM12 2L12 3L13 3L13 2ZM28 2L28 3L29 3L29 2ZM19 4L19 5L20 5L20 4ZM8 6L8 7L9 7L9 6ZM18 6L18 8L19 8L19 6ZM30 8L30 9L29 9L29 10L28 10L28 12L29 12L29 14L30 14L30 12L29 12L29 10L30 10L30 9L32 9L32 8ZM0 9L0 10L1 10L1 9ZM18 9L18 10L17 10L17 11L19 11L19 12L20 12L20 15L21 15L21 14L22 14L22 15L23 15L23 13L22 13L22 12L23 12L23 11L22 11L22 12L20 12L20 11L21 11L21 10L19 10L19 9ZM37 9L37 10L38 10L38 12L39 12L39 13L40 13L40 12L39 12L39 10L38 10L38 9ZM8 10L8 11L9 11L9 12L10 12L10 11L9 11L9 10ZM3 12L3 13L4 13L4 14L5 14L5 13L4 13L4 12ZM14 13L14 15L13 15L13 14L12 14L12 18L14 18L14 17L16 17L16 18L15 18L15 19L14 19L14 21L16 21L16 20L17 20L17 19L16 19L16 18L18 18L18 19L19 19L19 18L20 18L20 16L17 16L17 15L16 15L16 14L15 14L15 13ZM14 15L14 16L15 16L15 15ZM3 16L3 17L4 17L4 16ZM21 16L21 20L22 20L22 19L23 19L23 20L24 20L24 19L23 19L23 18L22 18L22 16ZM37 16L37 17L38 17L38 16ZM18 17L18 18L19 18L19 17ZM1 18L1 20L2 20L2 18ZM4 19L4 20L5 20L5 19ZM8 19L8 23L6 23L6 24L7 24L7 25L6 25L6 26L7 26L7 27L6 27L6 28L5 28L5 30L7 30L7 31L6 31L6 32L7 32L7 31L8 31L8 32L9 32L9 33L10 33L10 31L11 31L11 30L9 30L9 31L8 31L8 29L10 29L10 26L9 26L9 27L8 27L8 26L7 26L7 25L9 25L9 24L10 24L10 23L9 23L9 19ZM22 21L22 23L23 23L23 21ZM34 21L34 22L33 22L33 24L32 24L32 25L30 25L30 24L29 24L29 25L30 25L30 26L29 26L29 29L31 29L31 33L30 33L30 34L29 34L29 35L28 35L28 36L30 36L30 37L31 37L31 38L32 38L32 40L33 40L33 39L35 39L35 38L36 38L36 37L31 37L31 36L32 36L32 35L31 35L31 33L32 33L32 32L33 32L33 31L32 31L32 29L31 29L31 28L32 28L32 27L33 27L33 26L34 26L34 23L36 23L36 21ZM14 22L14 23L13 23L13 26L12 26L12 28L13 28L13 27L15 27L15 26L14 26L14 23L15 23L15 24L16 24L16 23L15 23L15 22ZM26 23L26 24L27 24L27 23ZM17 24L17 25L18 25L18 24ZM35 24L35 26L36 26L36 27L39 27L39 25L37 25L37 24ZM32 25L32 26L31 26L31 27L32 27L32 26L33 26L33 25ZM36 25L36 26L37 26L37 25ZM7 27L7 28L6 28L6 29L8 29L8 27ZM16 27L16 28L17 28L17 27ZM34 28L34 29L38 29L38 28ZM27 29L27 30L28 30L28 31L26 31L26 32L25 32L25 33L24 33L24 35L25 35L25 36L24 36L24 37L23 37L23 38L25 38L25 37L26 37L26 35L27 35L27 33L26 33L26 32L28 32L28 33L29 33L29 32L30 32L30 30L28 30L28 29ZM12 30L12 31L13 31L13 30ZM39 31L39 32L40 32L40 31ZM11 32L11 34L12 34L12 37L11 37L11 36L10 36L10 37L9 37L9 38L10 38L10 39L12 39L12 37L13 37L13 40L14 40L14 39L15 39L15 38L14 38L14 37L13 37L13 36L15 36L15 35L14 35L14 34L13 34L13 33L14 33L14 32ZM37 32L37 38L40 38L40 37L39 37L39 34L38 34L38 32ZM33 33L33 36L36 36L36 33ZM9 34L9 35L10 35L10 34ZM34 34L34 35L35 35L35 34ZM17 35L17 37L19 37L19 39L20 39L20 37L19 37L19 36L18 36L18 35ZM30 35L30 36L31 36L31 35ZM17 38L17 41L18 41L18 38ZM22 39L22 40L23 40L23 39ZM27 39L27 40L28 40L28 39ZM0 0L0 7L7 7L7 0ZM1 1L1 6L6 6L6 1ZM2 2L2 5L5 5L5 2ZM34 0L34 7L41 7L41 0ZM35 1L35 6L40 6L40 1ZM36 2L36 5L39 5L39 2ZM0 34L0 41L7 41L7 34ZM1 35L1 40L6 40L6 35ZM2 36L2 39L5 39L5 36Z" fill="#000000"/></g></g></svg>
