<?xml version="1.0" encoding="UTF-8"?>
<svg xmlns="http://www.w3.org/2000/svg" version="1.1" width="200" height="200" viewBox="0 0 200 200"><rect x="0" y="0" width="200" height="200" fill="#ffffff"/><g transform="scale(4.878)"><g transform="translate(0,0)"><path fill-rule="evenodd" d="M8 0L8 3L9 3L9 5L8 5L8 9L9 9L9 5L10 5L10 7L11 7L11 4L10 4L10 3L12 3L12 4L13 4L13 5L14 5L14 7L13 7L13 6L12 6L12 8L10 8L10 10L6 10L6 9L7 9L7 8L6 8L6 9L5 9L5 8L2 8L2 9L1 9L1 10L0 10L0 14L1 14L1 15L0 15L0 17L1 17L1 18L0 18L0 19L1 19L1 20L0 20L0 22L2 22L2 23L3 23L3 24L2 24L2 25L1 25L1 23L0 23L0 25L1 25L1 26L2 26L2 25L3 25L3 26L4 26L4 27L2 27L2 29L0 29L0 33L1 33L1 30L2 30L2 33L3 33L3 32L4 32L4 33L5 33L5 32L6 32L6 33L7 33L7 32L8 32L8 31L9 31L9 32L10 32L10 34L11 34L11 35L10 35L10 36L8 36L8 39L9 39L9 40L10 40L10 41L11 41L11 40L13 40L13 41L14 41L14 40L13 40L13 39L12 39L12 38L14 38L14 36L16 36L16 37L15 37L15 39L16 39L16 37L17 37L17 38L18 38L18 40L15 40L15 41L19 41L19 40L20 40L20 39L22 39L22 41L23 41L23 40L24 40L24 39L25 39L25 41L28 41L28 39L29 39L29 38L30 38L30 40L29 40L29 41L30 41L30 40L33 40L33 41L34 41L34 40L33 40L33 39L31 39L31 37L29 37L29 36L32 36L32 38L34 38L34 39L35 39L35 40L36 40L36 39L37 39L37 40L40 40L40 38L41 38L41 36L38 36L38 34L37 34L37 33L39 33L39 35L40 35L40 34L41 34L41 33L40 33L40 32L41 32L41 31L40 31L40 30L41 30L41 28L40 28L40 26L41 26L41 23L39 23L39 24L40 24L40 26L39 26L39 25L36 25L36 24L37 24L37 20L38 20L38 21L39 21L39 20L38 20L38 19L39 19L39 18L41 18L41 16L40 16L40 17L39 17L39 16L38 16L38 14L37 14L37 13L36 13L36 15L35 15L35 17L34 17L34 16L32 16L32 17L31 17L31 16L29 16L29 15L28 15L28 16L29 16L29 17L31 17L31 18L30 18L30 19L31 19L31 20L30 20L30 21L31 21L31 22L33 22L33 23L32 23L32 25L31 25L31 24L29 24L29 23L28 23L28 22L27 22L27 23L24 23L24 22L26 22L26 21L27 21L27 20L28 20L28 21L29 21L29 20L28 20L28 19L29 19L29 18L27 18L27 15L26 15L26 14L29 14L29 13L30 13L30 15L31 15L31 10L32 10L32 9L33 9L33 10L34 10L34 11L32 11L32 13L33 13L33 14L32 14L32 15L34 15L34 13L35 13L35 12L38 12L38 11L40 11L40 12L41 12L41 11L40 11L40 10L41 10L41 8L38 8L38 9L40 9L40 10L37 10L37 9L36 9L36 8L33 8L33 5L32 5L32 4L33 4L33 1L32 1L32 0L31 0L31 1L32 1L32 4L30 4L30 5L32 5L32 9L31 9L31 8L29 8L29 6L28 6L28 5L29 5L29 4L28 4L28 5L27 5L27 4L26 4L26 5L25 5L25 3L24 3L24 1L25 1L25 0L24 0L24 1L23 1L23 0L20 0L20 1L21 1L21 2L22 2L22 3L21 3L21 5L20 5L20 4L18 4L18 5L17 5L17 3L16 3L16 0L15 0L15 2L13 2L13 3L12 3L12 1L14 1L14 0L12 0L12 1L10 1L10 0ZM26 0L26 1L27 1L27 2L26 2L26 3L31 3L31 2L30 2L30 0L29 0L29 1L27 1L27 0ZM9 1L9 3L10 3L10 1ZM18 1L18 2L19 2L19 1ZM13 3L13 4L14 4L14 5L15 5L15 3ZM22 3L22 5L24 5L24 6L23 6L23 7L22 7L22 6L21 6L21 7L22 7L22 8L23 8L23 10L24 10L24 11L22 11L22 10L21 10L21 8L17 8L17 7L18 7L18 6L19 6L19 7L20 7L20 6L19 6L19 5L18 5L18 6L17 6L17 7L16 7L16 6L15 6L15 7L14 7L14 8L15 8L15 7L16 7L16 8L17 8L17 9L19 9L19 10L20 10L20 11L19 11L19 12L18 12L18 11L17 11L17 10L16 10L16 9L15 9L15 10L13 10L13 9L11 9L11 12L10 12L10 11L9 11L9 12L8 12L8 11L6 11L6 10L4 10L4 9L2 9L2 10L1 10L1 12L2 12L2 13L1 13L1 14L2 14L2 13L3 13L3 15L1 15L1 16L2 16L2 17L3 17L3 18L2 18L2 20L1 20L1 21L2 21L2 22L3 22L3 21L2 21L2 20L3 20L3 18L4 18L4 20L7 20L7 21L5 21L5 22L7 22L7 23L4 23L4 24L7 24L7 23L9 23L9 25L8 25L8 27L10 27L10 28L9 28L9 29L8 29L8 28L7 28L7 27L6 27L6 26L7 26L7 25L6 25L6 26L5 26L5 28L7 28L7 29L6 29L6 30L5 30L5 29L3 29L3 31L6 31L6 32L7 32L7 31L6 31L6 30L7 30L7 29L8 29L8 30L9 30L9 29L10 29L10 32L12 32L12 33L11 33L11 34L12 34L12 36L11 36L11 37L9 37L9 39L10 39L10 38L11 38L11 37L12 37L12 36L14 36L14 34L15 34L15 33L16 33L16 35L17 35L17 36L18 36L18 38L19 38L19 39L20 39L20 38L21 38L21 37L24 37L24 36L25 36L25 37L26 37L26 36L27 36L27 38L29 38L29 37L28 37L28 36L29 36L29 33L27 33L27 34L26 34L26 35L24 35L24 32L25 32L25 33L26 33L26 32L27 32L27 30L26 30L26 32L25 32L25 31L24 31L24 30L22 30L22 29L23 29L23 28L24 28L24 29L25 29L25 28L30 28L30 29L31 29L31 30L32 30L32 31L33 31L33 32L36 32L36 30L35 30L35 29L37 29L37 32L39 32L39 31L38 31L38 30L39 30L39 26L38 26L38 28L36 28L36 27L37 27L37 26L36 26L36 25L35 25L35 24L36 24L36 23L35 23L35 22L36 22L36 21L35 21L35 19L36 19L36 20L37 20L37 19L38 19L38 18L39 18L39 17L38 17L38 16L36 16L36 17L35 17L35 19L34 19L34 18L33 18L33 17L32 17L32 18L31 18L31 19L32 19L32 20L31 20L31 21L33 21L33 22L34 22L34 23L33 23L33 24L34 24L34 25L32 25L32 26L31 26L31 25L30 25L30 26L29 26L29 25L27 25L27 26L26 26L26 25L25 25L25 24L24 24L24 27L22 27L22 26L23 26L23 25L22 25L22 23L23 23L23 22L24 22L24 21L23 21L23 20L25 20L25 21L26 21L26 20L25 20L25 19L26 19L26 17L25 17L25 18L23 18L23 20L22 20L22 18L20 18L20 19L18 19L18 18L19 18L19 17L18 17L18 16L19 16L19 15L18 15L18 16L17 16L17 13L16 13L16 12L15 12L15 11L17 11L17 12L18 12L18 13L19 13L19 12L20 12L20 11L21 11L21 13L20 13L20 14L21 14L21 15L22 15L22 17L23 17L23 14L24 14L24 15L25 15L25 16L26 16L26 15L25 15L25 14L26 14L26 12L25 12L25 10L26 10L26 11L27 11L27 12L28 12L28 13L29 13L29 12L30 12L30 10L31 10L31 9L26 9L26 8L27 8L27 7L28 7L28 6L27 6L27 7L26 7L26 6L25 6L25 5L24 5L24 4L23 4L23 3ZM24 6L24 7L23 7L23 8L25 8L25 6ZM30 6L30 7L31 7L31 6ZM24 9L24 10L25 10L25 9ZM3 10L3 11L2 11L2 12L3 12L3 13L4 13L4 12L5 12L5 11L4 11L4 10ZM27 10L27 11L28 11L28 10ZM35 10L35 11L37 11L37 10ZM12 11L12 12L11 12L11 13L10 13L10 12L9 12L9 13L8 13L8 12L6 12L6 13L5 13L5 17L4 17L4 15L3 15L3 17L4 17L4 18L6 18L6 19L7 19L7 20L8 20L8 19L10 19L10 16L12 16L12 17L11 17L11 19L12 19L12 20L10 20L10 21L7 21L7 22L9 22L9 23L10 23L10 22L11 22L11 23L12 23L12 24L10 24L10 25L9 25L9 26L11 26L11 27L12 27L12 28L11 28L11 31L12 31L12 32L13 32L13 34L14 34L14 32L13 32L13 31L12 31L12 29L13 29L13 30L14 30L14 29L13 29L13 28L15 28L15 27L14 27L14 26L15 26L15 25L14 25L14 24L13 24L13 23L14 23L14 21L13 21L13 20L15 20L15 22L16 22L16 20L15 20L15 19L16 19L16 18L17 18L17 16L16 16L16 15L15 15L15 14L14 14L14 13L15 13L15 12L13 12L13 11ZM22 12L22 13L23 13L23 12ZM33 12L33 13L34 13L34 12ZM6 13L6 14L8 14L8 15L9 15L9 14L8 14L8 13ZM12 13L12 14L11 14L11 15L13 15L13 13ZM24 13L24 14L25 14L25 13ZM39 13L39 14L41 14L41 13ZM6 15L6 16L7 16L7 15ZM14 15L14 16L13 16L13 17L12 17L12 18L13 18L13 17L14 17L14 18L15 18L15 17L16 17L16 16L15 16L15 15ZM8 16L8 18L7 18L7 17L6 17L6 18L7 18L7 19L8 19L8 18L9 18L9 16ZM20 16L20 17L21 17L21 16ZM36 17L36 18L38 18L38 17ZM32 18L32 19L33 19L33 18ZM20 19L20 20L19 20L19 21L20 21L20 20L21 20L21 21L22 21L22 22L18 22L18 21L17 21L17 23L22 23L22 22L23 22L23 21L22 21L22 20L21 20L21 19ZM33 20L33 21L34 21L34 22L35 22L35 21L34 21L34 20ZM40 20L40 21L41 21L41 20ZM11 21L11 22L13 22L13 21ZM15 23L15 24L16 24L16 26L17 26L17 27L18 27L18 28L17 28L17 29L19 29L19 32L18 32L18 33L17 33L17 32L16 32L16 33L17 33L17 35L18 35L18 36L19 36L19 38L20 38L20 37L21 37L21 36L22 36L22 35L21 35L21 34L22 34L22 33L20 33L20 35L18 35L18 33L19 33L19 32L22 32L22 30L20 30L20 29L19 29L19 27L20 27L20 28L21 28L21 27L20 27L20 26L22 26L22 25L21 25L21 24L20 24L20 26L19 26L19 24L18 24L18 25L17 25L17 24L16 24L16 23ZM11 25L11 26L12 26L12 25ZM13 25L13 26L14 26L14 25ZM34 25L34 26L32 26L32 27L31 27L31 28L32 28L32 27L34 27L34 26L35 26L35 25ZM27 26L27 27L29 27L29 26ZM0 27L0 28L1 28L1 27ZM33 28L33 29L32 29L32 30L33 30L33 29L34 29L34 28ZM28 29L28 30L29 30L29 31L28 31L28 32L31 32L31 31L30 31L30 30L29 30L29 29ZM15 30L15 31L16 31L16 30ZM34 30L34 31L35 31L35 30ZM8 33L8 34L9 34L9 33ZM30 33L30 35L31 35L31 34L32 34L32 33ZM33 33L33 36L36 36L36 33ZM27 34L27 36L28 36L28 34ZM34 34L34 35L35 35L35 34ZM20 35L20 36L21 36L21 35ZM23 35L23 36L24 36L24 35ZM37 36L37 37L38 37L38 36ZM34 37L34 38L36 38L36 37ZM22 38L22 39L23 39L23 38ZM25 38L25 39L26 39L26 40L27 40L27 39L26 39L26 38ZM37 38L37 39L38 39L38 38ZM0 0L0 7L7 7L7 0ZM1 1L1 6L6 6L6 1ZM2 2L2 5L5 5L5 2ZM34 0L34 7L41 7L41 0ZM35 1L35 6L40 6L40 1ZM36 2L36 5L39 5L39 2ZM0 34L0 41L7 41L7 34ZM1 35L1 40L6 40L6 35ZM2 36L2 39L5 39L5 36Z" fill="#000000"/></g></g></svg>
