<?xml version="1.0" encoding="UTF-8"?>
<svg xmlns="http://www.w3.org/2000/svg" version="1.1" width="200" height="200" viewBox="0 0 200 200"><rect x="0" y="0" width="200" height="200" fill="#ffffff"/><g transform="scale(6.897)"><g transform="translate(0,0)"><path fill-rule="evenodd" d="M12 0L12 1L10 1L10 2L9 2L9 3L10 3L10 4L8 4L8 5L9 5L9 6L8 6L8 8L6 8L6 9L4 9L4 8L2 8L2 12L1 12L1 10L0 10L0 14L1 14L1 15L2 15L2 17L1 17L1 16L0 16L0 17L1 17L1 18L0 18L0 19L1 19L1 18L2 18L2 17L3 17L3 16L4 16L4 18L3 18L3 19L2 19L2 20L1 20L1 21L2 21L2 20L3 20L3 19L5 19L5 20L4 20L4 21L8 21L8 23L9 23L9 25L8 25L8 27L9 27L9 25L10 25L10 26L11 26L11 28L10 28L10 29L12 29L12 26L11 26L11 23L12 23L12 25L13 25L13 28L14 28L14 29L15 29L15 27L16 27L16 29L20 29L20 28L19 28L19 25L20 25L20 27L21 27L21 25L23 25L23 26L24 26L24 27L22 27L22 29L23 29L23 28L25 28L25 29L27 29L27 28L29 28L29 26L28 26L28 27L27 27L27 25L26 25L26 23L25 23L25 22L26 22L26 20L24 20L24 19L25 19L25 18L24 18L24 19L22 19L22 18L23 18L23 17L24 17L24 16L25 16L25 17L26 17L26 19L27 19L27 18L29 18L29 17L26 17L26 16L25 16L25 15L24 15L24 16L23 16L23 17L21 17L21 18L20 18L20 17L18 17L18 16L19 16L19 15L20 15L20 14L21 14L21 13L20 13L20 12L22 12L22 9L23 9L23 13L22 13L22 15L23 15L23 14L24 14L24 13L25 13L25 14L26 14L26 15L27 15L27 16L29 16L29 15L28 15L28 12L29 12L29 11L28 11L28 12L27 12L27 10L29 10L29 9L27 9L27 10L26 10L26 9L25 9L25 8L24 8L24 9L23 9L23 8L21 8L21 9L20 9L20 7L21 7L21 3L20 3L20 2L18 2L18 1L17 1L17 0L16 0L16 1L14 1L14 0ZM11 2L11 4L10 4L10 6L9 6L9 7L10 7L10 6L11 6L11 8L12 8L12 10L10 10L10 8L9 8L9 10L7 10L7 9L6 9L6 10L7 10L7 11L6 11L6 12L7 12L7 13L5 13L5 14L4 14L4 11L3 11L3 13L2 13L2 15L4 15L4 16L5 16L5 19L6 19L6 20L8 20L8 21L9 21L9 23L10 23L10 22L13 22L13 23L14 23L14 24L13 24L13 25L14 25L14 24L15 24L15 23L16 23L16 24L17 24L17 25L15 25L15 26L14 26L14 27L15 27L15 26L16 26L16 27L17 27L17 28L18 28L18 26L17 26L17 25L19 25L19 24L18 24L18 22L20 22L20 21L18 21L18 20L20 20L20 18L18 18L18 17L15 17L15 16L14 16L14 15L15 15L15 14L14 14L14 13L16 13L16 14L17 14L17 15L16 15L16 16L18 16L18 15L19 15L19 14L20 14L20 13L19 13L19 12L20 12L20 11L19 11L19 12L17 12L17 11L16 11L16 10L15 10L15 11L16 11L16 12L14 12L14 11L13 11L13 9L16 9L16 8L14 8L14 5L19 5L19 7L18 7L18 6L17 6L17 9L18 9L18 8L19 8L19 7L20 7L20 5L19 5L19 4L20 4L20 3L19 3L19 4L18 4L18 2L16 2L16 3L15 3L15 2L13 2L13 3L12 3L12 2ZM16 3L16 4L17 4L17 3ZM11 5L11 6L12 6L12 7L13 7L13 5ZM15 6L15 7L16 7L16 6ZM3 9L3 10L4 10L4 9ZM19 9L19 10L20 10L20 9ZM24 9L24 10L25 10L25 9ZM8 11L8 12L12 12L12 15L11 15L11 20L10 20L10 21L11 21L11 20L12 20L12 17L13 17L13 20L14 20L14 21L15 21L15 19L14 19L14 16L13 16L13 13L14 13L14 12L13 12L13 11ZM25 11L25 13L27 13L27 12L26 12L26 11ZM10 13L10 14L9 14L9 15L8 15L8 14L6 14L6 15L5 15L5 16L6 16L6 17L7 17L7 16L6 16L6 15L8 15L8 18L9 18L9 15L10 15L10 14L11 14L11 13ZM17 13L17 14L18 14L18 13ZM6 18L6 19L7 19L7 18ZM8 19L8 20L9 20L9 19ZM16 19L16 21L17 21L17 19ZM21 19L21 20L22 20L22 19ZM27 20L27 21L28 21L28 22L27 22L27 24L29 24L29 23L28 23L28 22L29 22L29 21L28 21L28 20ZM21 21L21 24L24 24L24 21ZM14 22L14 23L15 23L15 22ZM16 22L16 23L17 23L17 22ZM22 22L22 23L23 23L23 22ZM24 25L24 26L26 26L26 25ZM0 0L0 7L7 7L7 0ZM1 1L1 6L6 6L6 1ZM2 2L2 5L5 5L5 2ZM22 0L22 7L29 7L29 0ZM23 1L23 6L28 6L28 1ZM24 2L24 5L27 5L27 2ZM0 22L0 29L7 29L7 22ZM1 23L1 28L6 28L6 23ZM2 24L2 27L5 27L5 24Z" fill="#000000"/></g></g></svg>
