<?xml version="1.0" encoding="UTF-8"?>
<svg xmlns="http://www.w3.org/2000/svg" version="1.1" width="200" height="200" viewBox="0 0 200 200"><rect x="0" y="0" width="200" height="200" fill="#ffffff"/><g transform="scale(4.878)"><g transform="translate(0,0)"><path fill-rule="evenodd" d="M8 0L8 3L9 3L9 2L10 2L10 1L11 1L11 0ZM12 0L12 1L13 1L13 3L12 3L12 2L11 2L11 3L12 3L12 4L9 4L9 5L8 5L8 9L9 9L9 5L12 5L12 7L11 7L11 6L10 6L10 7L11 7L11 8L12 8L12 7L13 7L13 6L14 6L14 10L13 10L13 9L11 9L11 10L8 10L8 11L7 11L7 10L6 10L6 9L7 9L7 8L6 8L6 9L5 9L5 8L2 8L2 10L1 10L1 9L0 9L0 11L2 11L2 12L3 12L3 13L1 13L1 12L0 12L0 14L3 14L3 13L4 13L4 16L2 16L2 17L4 17L4 16L5 16L5 14L6 14L6 15L8 15L8 17L7 17L7 16L6 16L6 17L5 17L5 19L7 19L7 20L6 20L6 21L5 21L5 20L4 20L4 21L3 21L3 22L2 22L2 21L1 21L1 18L0 18L0 23L1 23L1 24L0 24L0 25L1 25L1 27L2 27L2 25L5 25L5 24L4 24L4 23L5 23L5 22L6 22L6 23L7 23L7 24L6 24L6 25L8 25L8 23L10 23L10 26L8 26L8 27L7 27L7 26L6 26L6 27L4 27L4 26L3 26L3 27L4 27L4 28L2 28L2 32L3 32L3 31L4 31L4 32L5 32L5 33L8 33L8 34L9 34L9 35L10 35L10 33L9 33L9 32L6 32L6 31L8 31L8 30L6 30L6 29L7 29L7 28L8 28L8 27L9 27L9 29L11 29L11 28L10 28L10 26L12 26L12 27L13 27L13 28L14 28L14 27L16 27L16 28L15 28L15 31L12 31L12 30L13 30L13 29L12 29L12 30L11 30L11 31L12 31L12 32L11 32L11 33L13 33L13 34L11 34L11 36L8 36L8 39L9 39L9 40L10 40L10 41L11 41L11 40L12 40L12 41L13 41L13 40L14 40L14 39L15 39L15 38L16 38L16 39L17 39L17 40L16 40L16 41L18 41L18 39L19 39L19 41L20 41L20 38L21 38L21 41L22 41L22 37L21 37L21 35L19 35L19 36L20 36L20 38L19 38L19 37L18 37L18 38L17 38L17 36L18 36L18 35L17 35L17 34L18 34L18 32L19 32L19 33L20 33L20 31L21 31L21 29L19 29L19 28L21 28L21 27L22 27L22 30L23 30L23 34L24 34L24 36L23 36L23 35L22 35L22 36L23 36L23 37L24 37L24 38L23 38L23 39L24 39L24 40L23 40L23 41L25 41L25 40L28 40L28 39L31 39L31 40L33 40L33 41L34 41L34 40L33 40L33 39L32 39L32 38L34 38L34 39L35 39L35 40L36 40L36 39L37 39L37 40L40 40L40 38L41 38L41 37L40 37L40 36L38 36L38 34L37 34L37 33L39 33L39 35L40 35L40 34L41 34L41 33L40 33L40 32L37 32L37 29L36 29L36 28L38 28L38 26L39 26L39 30L38 30L38 31L40 31L40 30L41 30L41 29L40 29L40 26L41 26L41 23L39 23L39 24L40 24L40 26L39 26L39 25L36 25L36 24L37 24L37 23L38 23L38 22L37 22L37 20L38 20L38 21L39 21L39 20L38 20L38 19L37 19L37 20L36 20L36 19L35 19L35 17L36 17L36 18L37 18L37 17L36 17L36 16L35 16L35 17L34 17L34 16L33 16L33 17L30 17L30 16L31 16L31 15L30 15L30 14L31 14L31 12L32 12L32 13L33 13L33 14L32 14L32 15L34 15L34 13L35 13L35 9L36 9L36 11L37 11L37 12L38 12L38 11L39 11L39 12L40 12L40 10L41 10L41 8L38 8L38 9L40 9L40 10L37 10L37 9L36 9L36 8L33 8L33 6L32 6L32 7L31 7L31 5L33 5L33 4L30 4L30 5L29 5L29 4L28 4L28 5L27 5L27 4L26 4L26 5L25 5L25 4L23 4L23 3L22 3L22 2L23 2L23 1L25 1L25 0L23 0L23 1L22 1L22 2L21 2L21 1L20 1L20 0L19 0L19 1L18 1L18 0L17 0L17 1L16 1L16 0L14 0L14 1L13 1L13 0ZM26 0L26 1L27 1L27 2L26 2L26 3L31 3L31 2L30 2L30 1L32 1L32 3L33 3L33 0L29 0L29 1L27 1L27 0ZM15 1L15 2L14 2L14 3L13 3L13 5L14 5L14 6L15 6L15 7L16 7L16 10L15 10L15 11L14 11L14 12L12 12L12 11L13 11L13 10L11 10L11 11L10 11L10 12L9 12L9 11L8 11L8 12L7 12L7 11L6 11L6 10L2 10L2 11L3 11L3 12L4 12L4 13L6 13L6 14L10 14L10 12L12 12L12 13L11 13L11 14L12 14L12 13L13 13L13 15L12 15L12 16L11 16L11 15L9 15L9 16L10 16L10 18L9 18L9 19L8 19L8 18L7 18L7 17L6 17L6 18L7 18L7 19L8 19L8 20L10 20L10 21L6 21L6 22L11 22L11 25L12 25L12 26L13 26L13 25L15 25L15 26L18 26L18 27L21 27L21 26L18 26L18 25L21 25L21 24L22 24L22 25L23 25L23 24L22 24L22 23L25 23L25 22L26 22L26 24L25 24L25 25L24 25L24 26L22 26L22 27L23 27L23 30L24 30L24 29L26 29L26 30L27 30L27 26L28 26L28 27L29 27L29 28L31 28L31 29L28 29L28 30L29 30L29 31L28 31L28 32L30 32L30 31L31 31L31 30L32 30L32 31L33 31L33 32L36 32L36 31L34 31L34 30L36 30L36 29L35 29L35 26L36 26L36 25L35 25L35 24L36 24L36 23L35 23L35 22L36 22L36 21L35 21L35 19L34 19L34 18L33 18L33 20L31 20L31 19L32 19L32 18L31 18L31 19L30 19L30 17L29 17L29 16L30 16L30 15L29 15L29 14L30 14L30 13L29 13L29 12L30 12L30 11L32 11L32 12L33 12L33 13L34 13L34 12L33 12L33 11L34 11L34 9L33 9L33 8L30 8L30 6L29 6L29 7L28 7L28 6L27 6L27 5L26 5L26 6L25 6L25 7L26 7L26 6L27 6L27 7L28 7L28 8L30 8L30 9L27 9L27 10L30 10L30 11L27 11L27 12L28 12L28 13L29 13L29 14L27 14L27 15L26 15L26 14L25 14L25 13L26 13L26 12L25 12L25 13L24 13L24 12L23 12L23 14L21 14L21 13L22 13L22 11L21 11L21 13L20 13L20 15L19 15L19 16L18 16L18 14L19 14L19 13L18 13L18 14L17 14L17 12L18 12L18 11L19 11L19 10L20 10L20 8L21 8L21 10L22 10L22 8L23 8L23 9L24 9L24 8L23 8L23 7L24 7L24 6L23 6L23 4L22 4L22 3L21 3L21 4L19 4L19 3L20 3L20 2L16 2L16 1ZM15 2L15 3L16 3L16 2ZM24 2L24 3L25 3L25 2ZM15 4L15 5L16 5L16 7L17 7L17 5L18 5L18 4L17 4L17 5L16 5L16 4ZM21 4L21 6L20 6L20 7L21 7L21 6L22 6L22 7L23 7L23 6L22 6L22 4ZM18 6L18 7L19 7L19 6ZM18 8L18 10L19 10L19 8ZM30 9L30 10L33 10L33 9ZM23 10L23 11L25 11L25 10ZM5 11L5 12L6 12L6 13L7 13L7 12L6 12L6 11ZM15 11L15 12L17 12L17 11ZM15 13L15 14L14 14L14 15L15 15L15 14L16 14L16 16L15 16L15 17L16 17L16 18L17 18L17 17L18 17L18 16L17 16L17 14L16 14L16 13ZM36 13L36 14L35 14L35 15L37 15L37 16L38 16L38 18L39 18L39 19L40 19L40 18L41 18L41 16L40 16L40 18L39 18L39 16L38 16L38 14L37 14L37 13ZM40 13L40 14L39 14L39 15L40 15L40 14L41 14L41 13ZM23 14L23 18L22 18L22 19L21 19L21 20L19 20L19 21L16 21L16 22L15 22L15 20L16 20L16 19L15 19L15 18L13 18L13 16L12 16L12 18L10 18L10 19L13 19L13 20L11 20L11 22L12 22L12 21L14 21L14 22L13 22L13 24L12 24L12 25L13 25L13 24L16 24L16 25L17 25L17 23L18 23L18 22L20 22L20 21L22 21L22 19L24 19L24 21L26 21L26 22L27 22L27 23L28 23L28 22L29 22L29 21L28 21L28 22L27 22L27 21L26 21L26 20L28 20L28 18L26 18L26 20L25 20L25 16L26 16L26 17L27 17L27 16L26 16L26 15L25 15L25 14ZM20 15L20 16L19 16L19 17L21 17L21 15ZM28 15L28 16L29 16L29 15ZM0 16L0 17L1 17L1 16ZM16 16L16 17L17 17L17 16ZM2 18L2 19L4 19L4 18ZM18 18L18 19L17 19L17 20L18 20L18 19L19 19L19 18ZM14 19L14 20L15 20L15 19ZM30 20L30 21L31 21L31 22L30 22L30 23L31 23L31 22L32 22L32 23L33 23L33 21L34 21L34 22L35 22L35 21L34 21L34 20L33 20L33 21L31 21L31 20ZM40 20L40 21L41 21L41 20ZM4 21L4 22L3 22L3 23L4 23L4 22L5 22L5 21ZM16 22L16 23L17 23L17 22ZM21 22L21 23L22 23L22 22ZM19 23L19 24L20 24L20 23ZM27 24L27 25L28 25L28 26L32 26L32 27L31 27L31 28L33 28L33 29L32 29L32 30L33 30L33 29L34 29L34 28L33 28L33 27L34 27L34 26L35 26L35 25L34 25L34 24L33 24L33 25L30 25L30 24L29 24L29 25L28 25L28 24ZM33 25L33 26L34 26L34 25ZM6 27L6 28L4 28L4 29L3 29L3 30L4 30L4 29L6 29L6 28L7 28L7 27ZM16 28L16 29L18 29L18 28ZM0 29L0 33L1 33L1 29ZM5 30L5 31L6 31L6 30ZM9 30L9 31L10 31L10 30ZM17 30L17 31L20 31L20 30ZM24 31L24 32L25 32L25 36L24 36L24 37L27 37L27 38L28 38L28 37L29 37L29 38L30 38L30 37L31 37L31 38L32 38L32 35L31 35L31 33L30 33L30 35L31 35L31 36L29 36L29 35L28 35L28 36L27 36L27 34L29 34L29 33L27 33L27 34L26 34L26 31ZM13 32L13 33L14 33L14 32ZM16 32L16 33L15 33L15 34L17 34L17 32ZM21 33L21 34L22 34L22 33ZM33 33L33 36L36 36L36 33ZM34 34L34 35L35 35L35 34ZM14 35L14 36L11 36L11 37L14 37L14 36L16 36L16 35ZM37 36L37 37L38 37L38 36ZM9 37L9 38L10 38L10 39L12 39L12 38L10 38L10 37ZM34 37L34 38L36 38L36 37ZM24 38L24 39L25 39L25 38ZM37 38L37 39L38 39L38 38ZM29 40L29 41L30 41L30 40ZM0 0L0 7L7 7L7 0ZM1 1L1 6L6 6L6 1ZM2 2L2 5L5 5L5 2ZM34 0L34 7L41 7L41 0ZM35 1L35 6L40 6L40 1ZM36 2L36 5L39 5L39 2ZM0 34L0 41L7 41L7 34ZM1 35L1 40L6 40L6 35ZM2 36L2 39L5 39L5 36Z" fill="#000000"/></g></g></svg>
