<?xml version="1.0" encoding="UTF-8"?>
<svg xmlns="http://www.w3.org/2000/svg" version="1.1" width="200" height="200" viewBox="0 0 200 200"><rect x="0" y="0" width="200" height="200" fill="#ffffff"/><g transform="scale(6.897)"><g transform="translate(0,0)"><path fill-rule="evenodd" d="M8 0L8 1L9 1L9 0ZM10 0L10 2L9 2L9 3L8 3L8 4L9 4L9 3L10 3L10 5L9 5L9 6L8 6L8 7L9 7L9 6L10 6L10 7L11 7L11 6L10 6L10 5L11 5L11 4L14 4L14 5L13 5L13 6L12 6L12 8L13 8L13 9L11 9L11 8L8 8L8 9L9 9L9 10L5 10L5 12L6 12L6 13L5 13L5 14L4 14L4 10L3 10L3 12L2 12L2 11L1 11L1 14L0 14L0 17L1 17L1 15L2 15L2 13L3 13L3 14L4 14L4 15L3 15L3 16L2 16L2 19L1 19L1 18L0 18L0 19L1 19L1 20L0 20L0 21L1 21L1 20L2 20L2 21L4 21L4 20L5 20L5 21L7 21L7 20L8 20L8 22L9 22L9 20L8 20L8 19L12 19L12 21L10 21L10 23L8 23L8 25L9 25L9 26L8 26L8 27L10 27L10 28L9 28L9 29L13 29L13 27L12 27L12 26L11 26L11 27L10 27L10 25L11 25L11 24L10 24L10 23L11 23L11 22L12 22L12 23L15 23L15 24L14 24L14 25L13 25L13 24L12 24L12 25L13 25L13 26L14 26L14 25L15 25L15 26L16 26L16 28L17 28L17 29L20 29L20 25L21 25L21 26L22 26L22 25L23 25L23 26L24 26L24 25L27 25L27 26L26 26L26 27L27 27L27 28L23 28L23 27L22 27L22 28L23 28L23 29L27 29L27 28L28 28L28 29L29 29L29 26L28 26L28 25L29 25L29 24L26 24L26 23L25 23L25 19L26 19L26 18L27 18L27 20L26 20L26 21L28 21L28 22L27 22L27 23L29 23L29 21L28 21L28 19L29 19L29 18L27 18L27 17L26 17L26 14L24 14L24 13L25 13L25 11L26 11L26 13L27 13L27 12L28 12L28 14L29 14L29 12L28 12L28 11L29 11L29 8L28 8L28 9L27 9L27 10L25 10L25 9L26 9L26 8L25 8L25 9L24 9L24 10L25 10L25 11L24 11L24 12L23 12L23 10L22 10L22 8L19 8L19 11L20 11L20 12L19 12L19 14L18 14L18 13L17 13L17 12L18 12L18 9L17 9L17 10L15 10L15 11L14 11L14 10L13 10L13 9L15 9L15 6L14 6L14 5L18 5L18 7L19 7L19 5L20 5L20 7L21 7L21 0L20 0L20 1L19 1L19 2L20 2L20 3L19 3L19 4L18 4L18 3L15 3L15 2L18 2L18 1L16 1L16 0L14 0L14 1L15 1L15 2L13 2L13 0L12 0L12 1L11 1L11 0ZM13 6L13 7L14 7L14 6ZM16 6L16 8L17 8L17 6ZM2 8L2 9L3 9L3 8ZM4 8L4 9L7 9L7 8ZM11 10L11 11L6 11L6 12L7 12L7 13L6 13L6 14L5 14L5 16L3 16L3 18L5 18L5 17L6 17L6 18L7 18L7 17L8 17L8 18L9 18L9 17L11 17L11 18L12 18L12 19L13 19L13 18L14 18L14 20L15 20L15 19L16 19L16 20L17 20L17 21L16 21L16 23L17 23L17 21L18 21L18 20L17 20L17 19L20 19L20 20L19 20L19 21L20 21L20 20L21 20L21 19L22 19L22 18L23 18L23 19L24 19L24 18L26 18L26 17L24 17L24 16L25 16L25 15L24 15L24 14L23 14L23 15L22 15L22 14L21 14L21 13L20 13L20 14L19 14L19 15L17 15L17 13L15 13L15 12L16 12L16 11L15 11L15 12L13 12L13 10ZM27 10L27 11L28 11L28 10ZM11 11L11 13L13 13L13 14L14 14L14 17L15 17L15 15L16 15L16 14L15 14L15 13L13 13L13 12L12 12L12 11ZM21 11L21 12L22 12L22 11ZM8 12L8 14L6 14L6 15L8 15L8 14L9 14L9 16L10 16L10 12ZM11 14L11 15L12 15L12 14ZM20 14L20 15L19 15L19 16L17 16L17 17L16 17L16 19L17 19L17 18L20 18L20 17L19 17L19 16L20 16L20 15L21 15L21 14ZM23 15L23 16L22 16L22 17L23 17L23 18L24 18L24 17L23 17L23 16L24 16L24 15ZM27 15L27 16L28 16L28 17L29 17L29 16L28 16L28 15ZM6 16L6 17L7 17L7 16ZM11 16L11 17L13 17L13 16ZM2 19L2 20L4 20L4 19ZM6 19L6 20L7 20L7 19ZM12 21L12 22L14 22L14 21ZM21 21L21 24L24 24L24 21ZM22 22L22 23L23 23L23 22ZM9 24L9 25L10 25L10 24ZM16 24L16 26L17 26L17 28L18 28L18 25L17 25L17 24ZM27 26L27 27L28 27L28 26ZM14 27L14 29L15 29L15 27ZM0 0L0 7L7 7L7 0ZM1 1L1 6L6 6L6 1ZM2 2L2 5L5 5L5 2ZM22 0L22 7L29 7L29 0ZM23 1L23 6L28 6L28 1ZM24 2L24 5L27 5L27 2ZM0 22L0 29L7 29L7 22ZM1 23L1 28L6 28L6 23ZM2 24L2 27L5 27L5 24Z" fill="#000000"/></g></g></svg>
