<?xml version="1.0" encoding="UTF-8"?>
<svg xmlns="http://www.w3.org/2000/svg" version="1.1" width="200" height="200" viewBox="0 0 200 200"><rect x="0" y="0" width="200" height="200" fill="#ffffff"/><g transform="scale(4.878)"><g transform="translate(0,0)"><path fill-rule="evenodd" d="M8 0L8 3L9 3L9 0ZM10 0L10 4L9 4L9 5L8 5L8 10L6 10L6 11L5 11L5 8L2 8L2 9L0 9L0 12L2 12L2 13L4 13L4 12L6 12L6 13L7 13L7 14L6 14L6 15L5 15L5 14L3 14L3 15L2 15L2 14L1 14L1 13L0 13L0 15L2 15L2 16L3 16L3 15L4 15L4 17L3 17L3 18L2 18L2 17L1 17L1 16L0 16L0 19L1 19L1 18L2 18L2 21L1 21L1 20L0 20L0 23L1 23L1 24L0 24L0 27L1 27L1 28L0 28L0 33L1 33L1 30L2 30L2 32L4 32L4 30L2 30L2 29L3 29L3 28L4 28L4 26L3 26L3 28L2 28L2 27L1 27L1 26L2 26L2 25L5 25L5 27L7 27L7 26L6 26L6 25L8 25L8 24L6 24L6 23L9 23L9 24L10 24L10 25L9 25L9 26L10 26L10 27L11 27L11 28L10 28L10 29L8 29L8 28L9 28L9 27L8 27L8 28L6 28L6 29L8 29L8 30L9 30L9 31L10 31L10 32L9 32L9 33L8 33L8 34L9 34L9 36L8 36L8 39L10 39L10 40L11 40L11 41L12 41L12 40L11 40L11 39L12 39L12 38L13 38L13 37L14 37L14 35L15 35L15 37L16 37L16 35L15 35L15 34L17 34L17 33L18 33L18 34L20 34L20 33L21 33L21 32L25 32L25 33L22 33L22 34L25 34L25 35L20 35L20 37L23 37L23 36L25 36L25 37L26 37L26 38L19 38L19 37L18 37L18 36L17 36L17 37L18 37L18 38L17 38L17 39L18 39L18 38L19 38L19 39L21 39L21 40L22 40L22 41L23 41L23 40L24 40L24 39L26 39L26 40L25 40L25 41L26 41L26 40L27 40L27 41L28 41L28 39L30 39L30 40L29 40L29 41L30 41L30 40L33 40L33 41L34 41L34 40L33 40L33 39L35 39L35 40L36 40L36 39L37 39L37 37L39 37L39 38L38 38L38 39L39 39L39 40L40 40L40 38L41 38L41 37L39 37L39 36L40 36L40 34L41 34L41 33L40 33L40 32L41 32L41 31L40 31L40 30L41 30L41 29L40 29L40 28L39 28L39 32L37 32L37 31L38 31L38 30L37 30L37 29L35 29L35 26L36 26L36 27L37 27L37 28L38 28L38 26L39 26L39 27L40 27L40 26L41 26L41 23L40 23L40 26L39 26L39 24L37 24L37 25L34 25L34 24L27 24L27 23L28 23L28 22L29 22L29 21L28 21L28 19L29 19L29 20L32 20L32 21L30 21L30 23L31 23L31 22L32 22L32 23L34 23L34 22L36 22L36 21L37 21L37 20L38 20L38 22L37 22L37 23L38 23L38 22L39 22L39 20L38 20L38 19L37 19L37 20L36 20L36 19L35 19L35 17L36 17L36 18L37 18L37 17L38 17L38 18L41 18L41 16L40 16L40 17L39 17L39 16L37 16L37 15L36 15L36 16L35 16L35 17L34 17L34 16L33 16L33 15L34 15L34 14L33 14L33 13L34 13L34 12L33 12L33 13L32 13L32 14L31 14L31 12L29 12L29 9L31 9L31 10L32 10L32 9L33 9L33 11L34 11L34 10L37 10L37 11L36 11L36 12L38 12L38 11L40 11L40 12L41 12L41 11L40 11L40 10L41 10L41 8L38 8L38 9L40 9L40 10L37 10L37 9L36 9L36 8L33 8L33 4L31 4L31 3L33 3L33 1L32 1L32 0L31 0L31 1L30 1L30 2L31 2L31 3L30 3L30 4L28 4L28 5L27 5L27 6L26 6L26 4L27 4L27 3L29 3L29 1L27 1L27 0L25 0L25 2L23 2L23 0L19 0L19 1L18 1L18 0L17 0L17 1L18 1L18 2L19 2L19 1L20 1L20 2L21 2L21 3L18 3L18 4L16 4L16 7L17 7L17 8L15 8L15 11L14 11L14 9L13 9L13 5L12 5L12 4L13 4L13 3L16 3L16 0L15 0L15 1L14 1L14 0L13 0L13 1L12 1L12 0ZM13 1L13 2L14 2L14 1ZM31 1L31 2L32 2L32 1ZM11 2L11 4L10 4L10 5L11 5L11 4L12 4L12 2ZM26 2L26 3L23 3L23 4L22 4L22 3L21 3L21 7L22 7L22 8L21 8L21 9L20 9L20 10L21 10L21 11L22 11L22 10L23 10L23 9L24 9L24 10L26 10L26 12L28 12L28 11L27 11L27 10L28 10L28 9L29 9L29 8L30 8L30 5L31 5L31 9L32 9L32 5L31 5L31 4L30 4L30 5L29 5L29 7L28 7L28 6L27 6L27 7L26 7L26 6L25 6L25 9L24 9L24 8L23 8L23 7L24 7L24 6L23 6L23 7L22 7L22 5L25 5L25 4L26 4L26 3L27 3L27 2ZM14 4L14 5L15 5L15 4ZM9 6L9 9L10 9L10 6ZM11 6L11 8L12 8L12 6ZM14 6L14 7L15 7L15 6ZM17 6L17 7L18 7L18 6ZM19 6L19 7L20 7L20 6ZM27 7L27 9L28 9L28 7ZM6 8L6 9L7 9L7 8ZM17 8L17 9L16 9L16 10L18 10L18 11L15 11L15 12L14 12L14 11L13 11L13 12L11 12L11 11L12 11L12 10L10 10L10 12L11 12L11 14L10 14L10 15L9 15L9 14L7 14L7 15L6 15L6 16L7 16L7 15L8 15L8 17L6 17L6 18L5 18L5 17L4 17L4 18L3 18L3 21L2 21L2 22L5 22L5 19L6 19L6 20L7 20L7 21L6 21L6 22L9 22L9 23L10 23L10 24L11 24L11 25L12 25L12 26L11 26L11 27L12 27L12 26L14 26L14 27L17 27L17 28L18 28L18 29L15 29L15 30L16 30L16 31L14 31L14 28L11 28L11 29L10 29L10 30L11 30L11 29L12 29L12 32L10 32L10 33L9 33L9 34L10 34L10 35L11 35L11 38L12 38L12 37L13 37L13 36L12 36L12 35L11 35L11 33L12 33L12 34L13 34L13 33L14 33L14 34L15 34L15 33L17 33L17 32L16 32L16 31L18 31L18 30L19 30L19 29L20 29L20 26L19 26L19 25L21 25L21 29L22 29L22 30L21 30L21 31L25 31L25 29L26 29L26 28L27 28L27 27L25 27L25 25L27 25L27 26L29 26L29 28L28 28L28 29L29 29L29 30L26 30L26 31L27 31L27 32L26 32L26 33L25 33L25 34L26 34L26 35L25 35L25 36L26 36L26 37L27 37L27 38L31 38L31 39L32 39L32 38L36 38L36 37L32 37L32 35L30 35L30 34L31 34L31 33L32 33L32 32L36 32L36 31L37 31L37 30L36 30L36 31L34 31L34 30L35 30L35 29L34 29L34 28L33 28L33 27L34 27L34 25L32 25L32 26L31 26L31 25L30 25L30 26L29 26L29 25L27 25L27 24L26 24L26 23L27 23L27 22L28 22L28 21L27 21L27 20L26 20L26 18L29 18L29 16L30 16L30 17L31 17L31 16L30 16L30 13L28 13L28 14L29 14L29 15L28 15L28 17L27 17L27 15L26 15L26 14L27 14L27 13L25 13L25 11L24 11L24 12L23 12L23 13L25 13L25 15L24 15L24 14L23 14L23 15L24 15L24 16L25 16L25 17L24 17L24 18L23 18L23 17L21 17L21 16L20 16L20 15L18 15L18 14L20 14L20 13L21 13L21 14L22 14L22 12L20 12L20 11L19 11L19 10L18 10L18 9L19 9L19 8ZM1 10L1 11L3 11L3 12L4 12L4 10ZM8 10L8 12L7 12L7 11L6 11L6 12L7 12L7 13L9 13L9 10ZM18 11L18 12L17 12L17 13L16 13L16 14L15 14L15 13L14 13L14 14L15 14L15 16L13 16L13 17L14 17L14 18L16 18L16 20L14 20L14 19L13 19L13 22L12 22L12 21L11 21L11 20L12 20L12 15L13 15L13 14L11 14L11 15L10 15L10 17L9 17L9 18L6 18L6 19L7 19L7 20L9 20L9 22L11 22L11 24L12 24L12 25L14 25L14 22L15 22L15 26L16 26L16 25L19 25L19 24L18 24L18 23L17 23L17 24L16 24L16 20L18 20L18 22L19 22L19 23L20 23L20 24L21 24L21 25L22 25L22 24L23 24L23 23L24 23L24 21L25 21L25 19L24 19L24 21L20 21L20 22L19 22L19 20L18 20L18 19L19 19L19 18L17 18L17 17L19 17L19 16L17 16L17 13L20 13L20 12L19 12L19 11ZM36 13L36 14L38 14L38 15L40 15L40 14L41 14L41 13L40 13L40 14L38 14L38 13ZM32 14L32 15L33 15L33 14ZM25 15L25 16L26 16L26 15ZM36 16L36 17L37 17L37 16ZM20 17L20 18L21 18L21 17ZM25 17L25 18L26 18L26 17ZM32 17L32 18L30 18L30 19L32 19L32 20L34 20L34 21L32 21L32 22L34 22L34 21L36 21L36 20L35 20L35 19L34 19L34 18L33 18L33 17ZM10 19L10 20L11 20L11 19ZM20 19L20 20L21 20L21 19ZM22 19L22 20L23 20L23 19ZM40 20L40 21L41 21L41 20ZM25 22L25 23L26 23L26 22ZM2 23L2 24L1 24L1 25L2 25L2 24L3 24L3 23ZM4 23L4 24L5 24L5 25L6 25L6 24L5 24L5 23ZM12 23L12 24L13 24L13 23ZM21 23L21 24L22 24L22 23ZM35 23L35 24L36 24L36 23ZM24 24L24 25L23 25L23 27L22 27L22 28L25 28L25 27L24 27L24 25L25 25L25 24ZM17 26L17 27L18 27L18 26ZM32 26L32 27L33 27L33 26ZM1 28L1 29L2 29L2 28ZM29 28L29 29L30 29L30 30L31 30L31 29L30 29L30 28ZM32 28L32 29L33 29L33 30L32 30L32 31L33 31L33 30L34 30L34 29L33 29L33 28ZM6 30L6 31L5 31L5 33L7 33L7 32L6 32L6 31L7 31L7 30ZM19 31L19 32L18 32L18 33L19 33L19 32L20 32L20 31ZM28 31L28 32L29 32L29 33L28 33L28 34L27 34L27 35L26 35L26 36L27 36L27 37L29 37L29 33L31 33L31 32L29 32L29 31ZM12 32L12 33L13 33L13 32ZM33 33L33 36L36 36L36 33ZM38 33L38 34L37 34L37 36L39 36L39 35L38 35L38 34L39 34L39 33ZM34 34L34 35L35 35L35 34ZM30 36L30 37L31 37L31 36ZM15 38L15 39L16 39L16 38ZM19 40L19 41L20 41L20 40ZM0 0L0 7L7 7L7 0ZM1 1L1 6L6 6L6 1ZM2 2L2 5L5 5L5 2ZM34 0L34 7L41 7L41 0ZM35 1L35 6L40 6L40 1ZM36 2L36 5L39 5L39 2ZM0 34L0 41L7 41L7 34ZM1 35L1 40L6 40L6 35ZM2 36L2 39L5 39L5 36Z" fill="#000000"/></g></g></svg>
