<?xml version="1.0" encoding="UTF-8"?>
<svg xmlns="http://www.w3.org/2000/svg" version="1.1" width="200" height="200" viewBox="0 0 200 200"><rect x="0" y="0" width="200" height="200" fill="#ffffff"/><g transform="scale(6.897)"><g transform="translate(0,0)"><path fill-rule="evenodd" d="M8 0L8 1L9 1L9 0ZM10 0L10 2L9 2L9 3L8 3L8 4L9 4L9 3L10 3L10 5L9 5L9 6L8 6L8 7L9 7L9 8L8 8L8 9L9 9L9 11L8 11L8 10L6 10L6 9L7 9L7 8L4 8L4 9L5 9L5 12L6 12L6 13L4 13L4 12L3 12L3 11L4 11L4 10L3 10L3 11L1 11L1 13L0 13L0 14L1 14L1 17L2 17L2 19L1 19L1 18L0 18L0 19L1 19L1 20L0 20L0 21L1 21L1 20L2 20L2 21L4 21L4 20L5 20L5 21L7 21L7 20L8 20L8 22L9 22L9 23L8 23L8 25L9 25L9 26L8 26L8 27L10 27L10 28L9 28L9 29L13 29L13 26L15 26L15 27L14 27L14 29L16 29L16 28L17 28L17 29L20 29L20 25L21 25L21 26L22 26L22 25L23 25L23 26L24 26L24 25L25 25L25 27L26 27L26 28L23 28L23 27L22 27L22 28L23 28L23 29L26 29L26 28L28 28L28 29L29 29L29 26L28 26L28 25L29 25L29 24L26 24L26 23L25 23L25 20L24 20L24 19L25 19L25 18L24 18L24 17L26 17L26 18L27 18L27 20L26 20L26 21L28 21L28 22L27 22L27 23L29 23L29 21L28 21L28 19L29 19L29 18L27 18L27 17L26 17L26 14L24 14L24 13L25 13L25 11L26 11L26 13L27 13L27 12L28 12L28 13L29 13L29 12L28 12L28 11L29 11L29 8L28 8L28 9L26 9L26 8L25 8L25 9L24 9L24 10L25 10L25 11L24 11L24 12L23 12L23 10L22 10L22 8L19 8L19 11L20 11L20 12L19 12L19 14L20 14L20 15L19 15L19 16L17 16L17 17L14 17L14 16L15 16L15 15L16 15L16 14L15 14L15 13L14 13L14 14L13 14L13 15L14 15L14 16L13 16L13 17L14 17L14 18L12 18L12 16L11 16L11 15L12 15L12 14L11 14L11 15L10 15L10 16L9 16L9 19L11 19L11 18L12 18L12 19L13 19L13 20L11 20L11 21L10 21L10 22L9 22L9 20L8 20L8 18L6 18L6 17L7 17L7 16L6 16L6 17L5 17L5 15L8 15L8 14L10 14L10 12L9 12L9 11L11 11L11 12L12 12L12 13L13 13L13 12L15 12L15 11L17 11L17 12L16 12L16 13L17 13L17 12L18 12L18 9L17 9L17 6L16 6L16 9L15 9L15 5L18 5L18 7L19 7L19 5L20 5L20 7L21 7L21 0L20 0L20 1L19 1L19 2L20 2L20 3L19 3L19 4L18 4L18 3L17 3L17 2L18 2L18 1L17 1L17 0L16 0L16 4L15 4L15 2L13 2L13 3L12 3L12 1L13 1L13 0ZM11 4L11 9L10 9L10 10L14 10L14 11L15 11L15 10L14 10L14 8L13 8L13 9L12 9L12 6L13 6L13 7L14 7L14 5L13 5L13 4ZM9 6L9 7L10 7L10 6ZM2 8L2 9L3 9L3 8ZM16 9L16 10L17 10L17 9ZM25 9L25 10L26 10L26 9ZM27 10L27 11L28 11L28 10ZM6 11L6 12L7 12L7 13L6 13L6 14L8 14L8 11ZM21 11L21 12L22 12L22 11ZM2 12L2 16L3 16L3 19L4 19L4 18L5 18L5 17L4 17L4 16L3 16L3 15L4 15L4 14L3 14L3 12ZM20 13L20 14L21 14L21 15L20 15L20 16L19 16L19 17L20 17L20 18L17 18L17 19L20 19L20 20L19 20L19 21L20 21L20 20L21 20L21 19L22 19L22 18L23 18L23 19L24 19L24 18L23 18L23 17L24 17L24 16L25 16L25 15L24 15L24 14L23 14L23 15L22 15L22 14L21 14L21 13ZM27 14L27 16L28 16L28 17L29 17L29 16L28 16L28 15L29 15L29 14ZM23 15L23 16L22 16L22 17L23 17L23 16L24 16L24 15ZM10 17L10 18L11 18L11 17ZM14 18L14 20L15 20L15 21L16 21L16 23L17 23L17 22L18 22L18 20L17 20L17 21L16 21L16 19L15 19L15 18ZM6 19L6 20L7 20L7 19ZM12 21L12 22L11 22L11 23L10 23L10 24L11 24L11 25L12 25L12 26L13 26L13 25L14 25L14 23L12 23L12 22L14 22L14 21ZM21 21L21 24L24 24L24 21ZM22 22L22 23L23 23L23 22ZM18 23L18 24L17 24L17 25L15 25L15 26L17 26L17 28L18 28L18 26L19 26L19 25L18 25L18 24L19 24L19 23ZM10 26L10 27L11 27L11 26ZM27 26L27 27L28 27L28 26ZM0 0L0 7L7 7L7 0ZM1 1L1 6L6 6L6 1ZM2 2L2 5L5 5L5 2ZM22 0L22 7L29 7L29 0ZM23 1L23 6L28 6L28 1ZM24 2L24 5L27 5L27 2ZM0 22L0 29L7 29L7 22ZM1 23L1 28L6 28L6 23ZM2 24L2 27L5 27L5 24Z" fill="#000000"/></g></g></svg>
