<?xml version="1.0" encoding="UTF-8"?>
<svg xmlns="http://www.w3.org/2000/svg" version="1.1" width="200" height="200" viewBox="0 0 200 200"><rect x="0" y="0" width="200" height="200" fill="#ffffff"/><g transform="scale(4.878)"><g transform="translate(0,0)"><path fill-rule="evenodd" d="M8 0L8 3L9 3L9 0ZM10 0L10 1L11 1L11 2L10 2L10 3L11 3L11 4L9 4L9 5L8 5L8 10L6 10L6 9L7 9L7 8L6 8L6 9L5 9L5 8L2 8L2 9L0 9L0 10L2 10L2 13L0 13L0 14L2 14L2 15L3 15L3 16L0 16L0 17L3 17L3 18L5 18L5 20L4 20L4 21L3 21L3 20L2 20L2 21L3 21L3 22L1 22L1 20L0 20L0 23L2 23L2 24L0 24L0 26L1 26L1 27L0 27L0 33L1 33L1 28L2 28L2 29L3 29L3 28L4 28L4 27L2 27L2 26L3 26L3 24L4 24L4 26L5 26L5 27L7 27L7 28L5 28L5 29L4 29L4 30L6 30L6 31L5 31L5 33L8 33L8 34L9 34L9 35L11 35L11 36L8 36L8 39L9 39L9 41L11 41L11 40L13 40L13 41L15 41L15 40L14 40L14 39L16 39L16 41L17 41L17 40L20 40L20 39L22 39L22 38L23 38L23 40L21 40L21 41L32 41L32 40L33 40L33 41L34 41L34 40L33 40L33 39L35 39L35 40L36 40L36 39L37 39L37 40L40 40L40 38L41 38L41 37L40 37L40 36L41 36L41 35L40 35L40 34L41 34L41 33L40 33L40 32L41 32L41 31L40 31L40 30L41 30L41 28L39 28L39 32L38 32L38 29L36 29L36 28L38 28L38 26L39 26L39 27L40 27L40 26L41 26L41 23L39 23L39 24L40 24L40 26L39 26L39 25L36 25L36 24L37 24L37 22L38 22L38 21L39 21L39 20L38 20L38 17L39 17L39 16L38 16L38 15L40 15L40 14L41 14L41 12L39 12L39 13L40 13L40 14L38 14L38 15L37 15L37 13L36 13L36 16L35 16L35 17L34 17L34 16L32 16L32 17L30 17L30 16L31 16L31 15L30 15L30 16L29 16L29 15L28 15L28 16L29 16L29 17L30 17L30 19L31 19L31 18L32 18L32 17L33 17L33 18L34 18L34 19L35 19L35 21L34 21L34 20L33 20L33 19L32 19L32 20L33 20L33 21L31 21L31 20L30 20L30 21L31 21L31 22L33 22L33 24L32 24L32 23L31 23L31 24L27 24L27 25L29 25L29 26L26 26L26 25L25 25L25 24L24 24L24 25L22 25L22 26L24 26L24 29L23 29L23 28L21 28L21 27L20 27L20 28L19 28L19 27L16 27L16 26L17 26L17 23L18 23L18 24L19 24L19 25L20 25L20 26L21 26L21 25L20 25L20 24L22 24L22 23L24 23L24 22L23 22L23 21L20 21L20 20L19 20L19 18L18 18L18 17L17 17L17 16L16 16L16 15L19 15L19 14L20 14L20 12L21 12L21 9L20 9L20 8L19 8L19 10L17 10L17 11L16 11L16 12L14 12L14 11L15 11L15 10L16 10L16 9L17 9L17 8L14 8L14 7L15 7L15 5L16 5L16 7L17 7L17 6L18 6L18 7L19 7L19 6L18 6L18 4L22 4L22 5L23 5L23 4L25 4L25 5L27 5L27 6L26 6L26 7L25 7L25 6L24 6L24 7L23 7L23 6L22 6L22 9L23 9L23 8L24 8L24 9L26 9L26 8L27 8L27 9L28 9L28 10L27 10L27 11L25 11L25 10L24 10L24 11L25 11L25 12L23 12L23 10L22 10L22 12L23 12L23 13L24 13L24 14L29 14L29 13L30 13L30 14L31 14L31 12L32 12L32 13L33 13L33 14L32 14L32 15L34 15L34 13L35 13L35 9L36 9L36 12L38 12L38 11L40 11L40 10L41 10L41 8L38 8L38 9L40 9L40 10L37 10L37 9L36 9L36 8L32 8L32 7L33 7L33 5L32 5L32 4L33 4L33 2L30 2L30 0L29 0L29 1L27 1L27 0L26 0L26 1L27 1L27 2L26 2L26 3L32 3L32 4L30 4L30 7L31 7L31 8L29 8L29 6L28 6L28 5L29 5L29 4L28 4L28 5L27 5L27 4L25 4L25 2L24 2L24 3L23 3L23 1L24 1L24 0L23 0L23 1L22 1L22 0L19 0L19 1L18 1L18 0L17 0L17 1L15 1L15 0L12 0L12 1L11 1L11 0ZM31 0L31 1L32 1L32 0ZM12 1L12 3L13 3L13 4L14 4L14 3L15 3L15 4L16 4L16 5L17 5L17 3L16 3L16 2L15 2L15 1L14 1L14 2L13 2L13 1ZM17 1L17 2L18 2L18 1ZM19 1L19 3L20 3L20 1ZM21 1L21 3L22 3L22 1ZM11 4L11 9L9 9L9 10L8 10L8 11L9 11L9 12L8 12L8 14L9 14L9 15L6 15L6 14L7 14L7 13L6 13L6 12L7 12L7 11L6 11L6 10L5 10L5 9L4 9L4 10L3 10L3 9L2 9L2 10L3 10L3 13L4 13L4 15L5 15L5 16L7 16L7 17L6 17L6 18L7 18L7 19L6 19L6 20L5 20L5 21L4 21L4 22L5 22L5 21L6 21L6 22L7 22L7 21L6 21L6 20L7 20L7 19L8 19L8 20L9 20L9 21L10 21L10 22L8 22L8 23L6 23L6 24L8 24L8 25L5 25L5 26L7 26L7 27L8 27L8 28L7 28L7 29L6 29L6 30L7 30L7 31L6 31L6 32L7 32L7 31L8 31L8 32L9 32L9 33L10 33L10 32L9 32L9 31L8 31L8 29L9 29L9 28L10 28L10 27L11 27L11 26L10 26L10 25L11 25L11 24L12 24L12 28L11 28L11 29L13 29L13 31L14 31L14 29L15 29L15 30L16 30L16 31L15 31L15 32L16 32L16 33L19 33L19 34L15 34L15 36L14 36L14 34L12 34L12 32L11 32L11 34L12 34L12 36L14 36L14 38L15 38L15 37L16 37L16 39L17 39L17 37L16 37L16 35L19 35L19 34L20 34L20 36L22 36L22 35L23 35L23 34L24 34L24 33L23 33L23 34L20 34L20 32L24 32L24 31L25 31L25 32L26 32L26 31L25 31L25 30L22 30L22 29L21 29L21 28L20 28L20 29L18 29L18 30L16 30L16 27L15 27L15 26L14 26L14 27L13 27L13 23L14 23L14 22L13 22L13 21L14 21L14 20L15 20L15 23L17 23L17 22L16 22L16 20L15 20L15 17L16 17L16 18L17 18L17 17L16 17L16 16L15 16L15 15L16 15L16 14L17 14L17 13L18 13L18 12L19 12L19 11L20 11L20 10L19 10L19 11L17 11L17 13L16 13L16 14L15 14L15 13L14 13L14 12L13 12L13 11L12 11L12 10L13 10L13 9L12 9L12 6L13 6L13 7L14 7L14 5L12 5L12 4ZM20 5L20 7L21 7L21 5ZM31 5L31 7L32 7L32 5ZM9 6L9 8L10 8L10 6ZM27 6L27 8L28 8L28 9L29 9L29 10L30 10L30 11L28 11L28 13L29 13L29 12L30 12L30 11L32 11L32 12L33 12L33 13L34 13L34 12L33 12L33 11L34 11L34 9L32 9L32 8L31 8L31 9L29 9L29 8L28 8L28 6ZM11 9L11 10L9 10L9 11L10 11L10 12L11 12L11 13L12 13L12 12L11 12L11 10L12 10L12 9ZM14 9L14 10L15 10L15 9ZM31 9L31 10L32 10L32 9ZM5 11L5 12L6 12L6 11ZM25 12L25 13L26 13L26 12ZM5 13L5 14L6 14L6 13ZM10 14L10 15L9 15L9 16L8 16L8 19L9 19L9 18L10 18L10 17L11 17L11 16L13 16L13 17L15 17L15 16L14 16L14 14L12 14L12 15L11 15L11 14ZM21 14L21 15L20 15L20 16L19 16L19 17L20 17L20 19L21 19L21 20L22 20L22 19L24 19L24 17L23 17L23 18L22 18L22 19L21 19L21 17L20 17L20 16L22 16L22 15L23 15L23 14ZM24 15L24 16L25 16L25 18L26 18L26 17L27 17L27 16L25 16L25 15ZM3 16L3 17L4 17L4 16ZM9 16L9 17L10 17L10 16ZM36 16L36 17L35 17L35 19L36 19L36 20L37 20L37 21L38 21L38 20L37 20L37 18L36 18L36 17L38 17L38 16ZM40 16L40 18L39 18L39 19L40 19L40 18L41 18L41 16ZM1 18L1 19L2 19L2 18ZM11 18L11 20L12 20L12 19L13 19L13 18ZM27 18L27 21L28 21L28 22L26 22L26 21L25 21L25 22L26 22L26 23L29 23L29 21L28 21L28 20L29 20L29 19L28 19L28 18ZM18 20L18 21L19 21L19 20ZM40 20L40 21L41 21L41 20ZM33 21L33 22L34 22L34 21ZM35 21L35 22L36 22L36 21ZM10 22L10 24L11 24L11 22ZM12 22L12 23L13 23L13 22ZM18 22L18 23L19 23L19 24L20 24L20 23L19 23L19 22ZM4 23L4 24L5 24L5 23ZM8 23L8 24L9 24L9 23ZM34 23L34 24L33 24L33 25L32 25L32 24L31 24L31 25L30 25L30 26L29 26L29 27L28 27L28 28L30 28L30 29L28 29L28 30L29 30L29 31L28 31L28 32L31 32L31 31L30 31L30 29L31 29L31 30L32 30L32 31L33 31L33 32L35 32L35 31L34 31L34 30L36 30L36 29L35 29L35 27L37 27L37 26L36 26L36 25L35 25L35 24L36 24L36 23ZM1 25L1 26L2 26L2 25ZM8 25L8 27L10 27L10 26L9 26L9 25ZM24 25L24 26L25 26L25 27L26 27L26 26L25 26L25 25ZM31 25L31 26L32 26L32 28L33 28L33 29L32 29L32 30L33 30L33 29L34 29L34 28L33 28L33 27L34 27L34 26L35 26L35 25L33 25L33 26L32 26L32 25ZM26 28L26 29L27 29L27 28ZM10 30L10 31L12 31L12 30ZM18 30L18 31L16 31L16 32L18 32L18 31L19 31L19 32L20 32L20 31L21 31L21 30L20 30L20 31L19 31L19 30ZM2 31L2 33L4 33L4 31ZM37 32L37 33L38 33L38 35L37 35L37 36L40 36L40 35L39 35L39 33L38 33L38 32ZM25 33L25 36L29 36L29 37L24 37L24 36L23 36L23 37L24 37L24 39L26 39L26 40L30 40L30 39L31 39L31 40L32 40L32 39L33 39L33 38L36 38L36 37L33 37L33 38L32 38L32 35L31 35L31 33L30 33L30 35L31 35L31 36L29 36L29 35L26 35L26 34L29 34L29 33ZM33 33L33 36L36 36L36 33ZM34 34L34 35L35 35L35 34ZM18 36L18 38L22 38L22 37L19 37L19 36ZM9 37L9 39L11 39L11 38L10 38L10 37ZM12 37L12 38L13 38L13 37ZM30 37L30 38L31 38L31 39L32 39L32 38L31 38L31 37ZM26 38L26 39L28 39L28 38ZM37 38L37 39L38 39L38 38ZM0 0L0 7L7 7L7 0ZM1 1L1 6L6 6L6 1ZM2 2L2 5L5 5L5 2ZM34 0L34 7L41 7L41 0ZM35 1L35 6L40 6L40 1ZM36 2L36 5L39 5L39 2ZM0 34L0 41L7 41L7 34ZM1 35L1 40L6 40L6 35ZM2 36L2 39L5 39L5 36Z" fill="#000000"/></g></g></svg>
