<?xml version="1.0" encoding="UTF-8"?>
<svg xmlns="http://www.w3.org/2000/svg" version="1.1" width="200" height="200" viewBox="0 0 200 200"><rect x="0" y="0" width="200" height="200" fill="#ffffff"/><g transform="scale(6.897)"><g transform="translate(0,0)"><path fill-rule="evenodd" d="M8 0L8 1L9 1L9 2L10 2L10 1L11 1L11 2L12 2L12 0L10 0L10 1L9 1L9 0ZM14 0L14 1L13 1L13 3L10 3L10 7L11 7L11 5L12 5L12 4L16 4L16 2L15 2L15 3L14 3L14 1L16 1L16 0ZM20 0L20 1L19 1L19 2L20 2L20 3L19 3L19 4L18 4L18 3L17 3L17 5L16 5L16 7L15 7L15 6L14 6L14 7L13 7L13 6L12 6L12 7L13 7L13 8L15 8L15 9L12 9L12 8L10 8L10 9L9 9L9 8L8 8L8 9L9 9L9 11L10 11L10 9L11 9L11 11L12 11L12 13L10 13L10 12L8 12L8 11L7 11L7 10L6 10L6 9L7 9L7 8L4 8L4 9L3 9L3 8L2 8L2 9L1 9L1 10L2 10L2 9L3 9L3 10L4 10L4 12L6 12L6 13L5 13L5 14L6 14L6 15L5 15L5 18L4 18L4 21L7 21L7 20L8 20L8 22L9 22L9 23L8 23L8 25L9 25L9 26L8 26L8 27L9 27L9 28L11 28L11 29L12 29L12 28L13 28L13 29L14 29L14 28L13 28L13 27L15 27L15 29L20 29L20 27L21 27L21 26L22 26L22 25L23 25L23 26L24 26L24 25L25 25L25 26L26 26L26 27L25 27L25 28L23 28L23 27L22 27L22 28L23 28L23 29L26 29L26 28L28 28L28 29L29 29L29 26L28 26L28 25L27 25L27 24L28 24L28 23L29 23L29 22L28 22L28 19L29 19L29 18L27 18L27 17L26 17L26 14L24 14L24 13L25 13L25 11L26 11L26 13L27 13L27 14L28 14L28 15L27 15L27 16L28 16L28 17L29 17L29 16L28 16L28 15L29 15L29 14L28 14L28 13L29 13L29 12L28 12L28 11L29 11L29 8L28 8L28 9L27 9L27 10L28 10L28 11L26 11L26 8L25 8L25 9L24 9L24 10L25 10L25 11L24 11L24 12L23 12L23 10L22 10L22 8L21 8L21 0ZM17 1L17 2L18 2L18 1ZM8 3L8 4L9 4L9 3ZM17 5L17 7L16 7L16 9L15 9L15 10L14 10L14 12L13 12L13 13L12 13L12 14L11 14L11 15L10 15L10 14L8 14L8 15L6 15L6 16L8 16L8 17L6 17L6 18L7 18L7 19L6 19L6 20L7 20L7 19L8 19L8 20L9 20L9 18L8 18L8 17L10 17L10 18L11 18L11 19L10 19L10 20L11 20L11 19L12 19L12 18L15 18L15 19L16 19L16 22L17 22L17 23L16 23L16 24L17 24L17 25L18 25L18 26L20 26L20 24L19 24L19 23L20 23L20 22L19 22L19 21L20 21L20 20L21 20L21 19L22 19L22 18L23 18L23 19L24 19L24 20L25 20L25 23L26 23L26 24L27 24L27 21L26 21L26 20L27 20L27 18L26 18L26 17L24 17L24 16L25 16L25 15L24 15L24 14L23 14L23 15L22 15L22 14L21 14L21 13L20 13L20 14L19 14L19 15L20 15L20 16L18 16L18 14L17 14L17 12L16 12L16 15L14 15L14 16L16 16L16 15L17 15L17 16L18 16L18 17L20 17L20 18L19 18L19 19L20 19L20 20L19 20L19 21L18 21L18 22L17 22L17 20L18 20L18 19L17 19L17 17L10 17L10 16L12 16L12 15L13 15L13 13L14 13L14 12L15 12L15 11L16 11L16 9L17 9L17 11L19 11L19 12L20 12L20 11L19 11L19 8L20 8L20 5L19 5L19 7L18 7L18 5ZM8 6L8 7L9 7L9 6ZM4 9L4 10L5 10L5 9ZM12 10L12 11L13 11L13 10ZM2 11L2 12L0 12L0 17L2 17L2 16L4 16L4 13L3 13L3 11ZM6 11L6 12L7 12L7 13L6 13L6 14L7 14L7 13L8 13L8 12L7 12L7 11ZM21 11L21 12L22 12L22 11ZM27 12L27 13L28 13L28 12ZM1 13L1 16L2 16L2 15L3 15L3 13ZM20 14L20 15L21 15L21 14ZM23 15L23 16L22 16L22 17L23 17L23 18L24 18L24 19L25 19L25 20L26 20L26 18L24 18L24 17L23 17L23 16L24 16L24 15ZM0 18L0 19L1 19L1 20L0 20L0 21L1 21L1 20L2 20L2 19L3 19L3 18L2 18L2 19L1 19L1 18ZM12 20L12 21L11 21L11 22L10 22L10 21L9 21L9 22L10 22L10 27L12 27L12 25L14 25L14 23L15 23L15 20L14 20L14 21L13 21L13 20ZM12 21L12 22L11 22L11 23L12 23L12 24L11 24L11 25L12 25L12 24L13 24L13 21ZM21 21L21 24L24 24L24 21ZM18 22L18 23L17 23L17 24L18 24L18 23L19 23L19 22ZM22 22L22 23L23 23L23 22ZM15 25L15 27L16 27L16 28L19 28L19 27L17 27L17 26L16 26L16 25ZM27 26L27 27L28 27L28 26ZM0 0L0 7L7 7L7 0ZM1 1L1 6L6 6L6 1ZM2 2L2 5L5 5L5 2ZM22 0L22 7L29 7L29 0ZM23 1L23 6L28 6L28 1ZM24 2L24 5L27 5L27 2ZM0 22L0 29L7 29L7 22ZM1 23L1 28L6 28L6 23ZM2 24L2 27L5 27L5 24Z" fill="#000000"/></g></g></svg>
