<?xml version="1.0" encoding="UTF-8"?>
<svg xmlns="http://www.w3.org/2000/svg" version="1.1" width="200" height="200" viewBox="0 0 200 200"><rect x="0" y="0" width="200" height="200" fill="#ffffff"/><g transform="scale(6.897)"><g transform="translate(0,0)"><path fill-rule="evenodd" d="M8 0L8 1L9 1L9 0ZM10 0L10 2L11 2L11 3L10 3L10 4L9 4L9 3L8 3L8 4L9 4L9 5L10 5L10 7L11 7L11 8L10 8L10 9L9 9L9 8L8 8L8 9L9 9L9 10L10 10L10 11L11 11L11 12L12 12L12 11L15 11L15 13L14 13L14 12L13 12L13 13L12 13L12 14L10 14L10 13L9 13L9 14L8 14L8 11L7 11L7 10L5 10L5 9L7 9L7 8L4 8L4 10L3 10L3 13L4 13L4 10L5 10L5 11L7 11L7 12L6 12L6 13L5 13L5 15L4 15L4 14L1 14L1 13L2 13L2 12L1 12L1 13L0 13L0 14L1 14L1 15L4 15L4 16L2 16L2 17L3 17L3 18L4 18L4 19L3 19L3 20L2 20L2 19L1 19L1 18L0 18L0 19L1 19L1 20L0 20L0 21L1 21L1 20L2 20L2 21L3 21L3 20L5 20L5 21L7 21L7 20L8 20L8 22L9 22L9 21L10 21L10 25L9 25L9 23L8 23L8 25L9 25L9 26L8 26L8 27L9 27L9 29L10 29L10 25L13 25L13 26L12 26L12 27L11 27L11 28L12 28L12 27L14 27L14 25L16 25L16 26L15 26L15 28L16 28L16 29L17 29L17 28L18 28L18 29L20 29L20 27L21 27L21 26L22 26L22 25L23 25L23 26L24 26L24 25L25 25L25 26L26 26L26 25L27 25L27 26L28 26L28 27L26 27L26 28L28 28L28 29L29 29L29 26L28 26L28 24L26 24L26 23L25 23L25 20L26 20L26 21L27 21L27 23L28 23L28 22L29 22L29 21L28 21L28 19L29 19L29 18L27 18L27 17L26 17L26 14L24 14L24 13L25 13L25 11L26 11L26 13L27 13L27 14L28 14L28 15L27 15L27 16L28 16L28 17L29 17L29 16L28 16L28 15L29 15L29 14L28 14L28 13L29 13L29 12L28 12L28 11L29 11L29 8L28 8L28 9L26 9L26 8L25 8L25 9L24 9L24 10L25 10L25 11L24 11L24 12L23 12L23 10L22 10L22 8L19 8L19 10L17 10L17 6L16 6L16 10L15 10L15 9L14 9L14 8L15 8L15 6L14 6L14 4L16 4L16 5L18 5L18 7L19 7L19 5L20 5L20 7L21 7L21 0L20 0L20 1L19 1L19 2L20 2L20 3L19 3L19 4L18 4L18 3L16 3L16 1L17 1L17 2L18 2L18 1L17 1L17 0L12 0L12 1L11 1L11 0ZM12 1L12 5L13 5L13 3L15 3L15 1L14 1L14 2L13 2L13 1ZM8 6L8 7L9 7L9 6ZM11 6L11 7L12 7L12 8L11 8L11 9L13 9L13 10L14 10L14 9L13 9L13 8L14 8L14 6L13 6L13 7L12 7L12 6ZM2 8L2 9L3 9L3 8ZM0 9L0 10L1 10L1 9ZM25 9L25 10L26 10L26 9ZM16 10L16 12L18 12L18 11L17 11L17 10ZM27 10L27 11L28 11L28 10ZM19 11L19 12L20 12L20 11ZM21 11L21 12L22 12L22 11ZM27 12L27 13L28 13L28 12ZM6 13L6 14L7 14L7 15L6 15L6 16L4 16L4 17L5 17L5 20L7 20L7 19L8 19L8 20L9 20L9 19L11 19L11 23L12 23L12 22L13 22L13 24L14 24L14 23L15 23L15 24L16 24L16 25L18 25L18 28L19 28L19 26L20 26L20 24L19 24L19 25L18 25L18 22L17 22L17 24L16 24L16 23L15 23L15 22L16 22L16 21L20 21L20 20L21 20L21 19L22 19L22 18L23 18L23 19L24 19L24 18L26 18L26 19L27 19L27 18L26 18L26 17L24 17L24 16L25 16L25 15L24 15L24 14L23 14L23 15L22 15L22 14L21 14L21 13L20 13L20 14L18 14L18 15L17 15L17 18L16 18L16 19L14 19L14 18L15 18L15 17L16 17L16 14L17 14L17 13L15 13L15 14L14 14L14 13L13 13L13 14L12 14L12 15L11 15L11 16L10 16L10 14L9 14L9 16L10 16L10 17L9 17L9 18L8 18L8 14L7 14L7 13ZM20 14L20 15L18 15L18 17L19 17L19 18L20 18L20 17L19 17L19 16L20 16L20 15L21 15L21 14ZM12 15L12 16L13 16L13 15ZM14 15L14 16L15 16L15 15ZM23 15L23 16L22 16L22 17L23 17L23 18L24 18L24 17L23 17L23 16L24 16L24 15ZM0 16L0 17L1 17L1 16ZM6 16L6 17L7 17L7 16ZM10 17L10 18L11 18L11 19L13 19L13 21L14 21L14 19L13 19L13 18L14 18L14 17L13 17L13 18L12 18L12 17ZM6 18L6 19L7 19L7 18ZM16 19L16 20L15 20L15 21L16 21L16 20L18 20L18 19ZM19 19L19 20L20 20L20 19ZM21 21L21 24L24 24L24 21ZM19 22L19 23L20 23L20 22ZM22 22L22 23L23 23L23 22ZM16 26L16 28L17 28L17 26ZM22 27L22 28L23 28L23 29L25 29L25 28L23 28L23 27ZM13 28L13 29L14 29L14 28ZM0 0L0 7L7 7L7 0ZM1 1L1 6L6 6L6 1ZM2 2L2 5L5 5L5 2ZM22 0L22 7L29 7L29 0ZM23 1L23 6L28 6L28 1ZM24 2L24 5L27 5L27 2ZM0 22L0 29L7 29L7 22ZM1 23L1 28L6 28L6 23ZM2 24L2 27L5 27L5 24Z" fill="#000000"/></g></g></svg>
