<?xml version="1.0" encoding="UTF-8"?>
<svg xmlns="http://www.w3.org/2000/svg" version="1.1" width="200" height="200" viewBox="0 0 200 200"><rect x="0" y="0" width="200" height="200" fill="#ffffff"/><g transform="scale(4.878)"><g transform="translate(0,0)"><path fill-rule="evenodd" d="M8 0L8 3L9 3L9 1L12 1L12 0ZM18 0L18 1L16 1L16 2L17 2L17 3L15 3L15 1L13 1L13 2L12 2L12 4L11 4L11 3L10 3L10 4L11 4L11 5L12 5L12 9L11 9L11 6L10 6L10 5L8 5L8 10L6 10L6 9L7 9L7 8L6 8L6 9L5 9L5 8L2 8L2 10L3 10L3 9L4 9L4 11L3 11L3 12L1 12L1 10L0 10L0 12L1 12L1 15L2 15L2 16L0 16L0 17L1 17L1 18L0 18L0 19L1 19L1 18L2 18L2 19L5 19L5 20L6 20L6 21L7 21L7 22L5 22L5 23L4 23L4 25L3 25L3 22L4 22L4 21L2 21L2 20L0 20L0 25L1 25L1 26L4 26L4 25L5 25L5 26L6 26L6 27L7 27L7 28L6 28L6 29L5 29L5 27L1 27L1 28L0 28L0 33L1 33L1 30L2 30L2 29L1 29L1 28L3 28L3 29L5 29L5 30L3 30L3 31L2 31L2 33L3 33L3 31L4 31L4 32L5 32L5 30L6 30L6 31L8 31L8 30L10 30L10 31L11 31L11 33L12 33L12 34L10 34L10 33L9 33L9 32L6 32L6 33L8 33L8 34L10 34L10 35L9 35L9 36L8 36L8 39L9 39L9 41L10 41L10 39L9 39L9 38L12 38L12 40L11 40L11 41L12 41L12 40L15 40L15 41L16 41L16 40L17 40L17 39L16 39L16 40L15 40L15 38L14 38L14 37L15 37L15 36L16 36L16 37L17 37L17 38L20 38L20 39L21 39L21 41L25 41L25 38L26 38L26 41L28 41L28 40L27 40L27 39L28 39L28 38L27 38L27 37L29 37L29 36L32 36L32 38L31 38L31 37L30 37L30 38L31 38L31 40L33 40L33 41L34 41L34 40L33 40L33 39L32 39L32 38L34 38L34 39L35 39L35 40L36 40L36 39L37 39L37 40L40 40L40 38L41 38L41 37L39 37L39 36L40 36L40 34L41 34L41 33L40 33L40 30L41 30L41 29L39 29L39 32L37 32L37 31L38 31L38 29L35 29L35 30L34 30L34 31L36 31L36 32L33 32L33 31L32 31L32 30L33 30L33 29L34 29L34 28L33 28L33 29L32 29L32 28L31 28L31 29L30 29L30 28L28 28L28 27L29 27L29 26L30 26L30 25L31 25L31 26L32 26L32 27L34 27L34 26L37 26L37 27L36 27L36 28L38 28L38 26L39 26L39 28L40 28L40 26L41 26L41 23L39 23L39 24L40 24L40 26L39 26L39 25L34 25L34 24L35 24L35 23L36 23L36 24L37 24L37 23L38 23L38 21L39 21L39 20L36 20L36 19L35 19L35 17L36 17L36 18L37 18L37 17L39 17L39 16L37 16L37 15L38 15L38 14L39 14L39 15L40 15L40 14L41 14L41 13L40 13L40 14L39 14L39 13L38 13L38 14L37 14L37 13L36 13L36 14L35 14L35 15L36 15L36 16L35 16L35 17L34 17L34 16L33 16L33 17L31 17L31 10L32 10L32 9L34 9L34 11L32 11L32 13L33 13L33 14L32 14L32 15L34 15L34 13L35 13L35 12L38 12L38 11L39 11L39 12L40 12L40 10L41 10L41 8L38 8L38 9L40 9L40 10L37 10L37 9L36 9L36 8L33 8L33 6L32 6L32 7L31 7L31 5L32 5L32 4L33 4L33 2L30 2L30 0L29 0L29 1L27 1L27 0L26 0L26 1L27 1L27 2L26 2L26 3L28 3L28 4L29 4L29 5L27 5L27 4L25 4L25 3L24 3L24 2L25 2L25 0L24 0L24 1L23 1L23 0L22 0L22 1L23 1L23 2L21 2L21 4L20 4L20 1L19 1L19 0ZM31 0L31 1L32 1L32 0ZM13 2L13 9L12 9L12 10L14 10L14 11L11 11L11 9L10 9L10 6L9 6L9 13L8 13L8 15L6 15L6 16L4 16L4 14L3 14L3 13L2 13L2 14L3 14L3 16L2 16L2 17L4 17L4 18L5 18L5 19L6 19L6 20L8 20L8 19L9 19L9 18L8 18L8 19L6 19L6 18L7 18L7 17L6 17L6 16L9 16L9 17L10 17L10 18L11 18L11 19L10 19L10 21L8 21L8 22L7 22L7 23L5 23L5 25L6 25L6 26L9 26L9 25L10 25L10 23L11 23L11 26L10 26L10 28L8 28L8 29L6 29L6 30L8 30L8 29L10 29L10 28L12 28L12 27L13 27L13 28L14 28L14 29L12 29L12 30L11 30L11 31L12 31L12 32L13 32L13 34L12 34L12 35L11 35L11 37L12 37L12 38L13 38L13 39L14 39L14 38L13 38L13 36L12 36L12 35L14 35L14 31L16 31L16 32L15 32L15 34L19 34L19 35L20 35L20 36L18 36L18 35L16 35L16 36L18 36L18 37L22 37L22 40L23 40L23 37L24 37L24 38L25 38L25 37L26 37L26 36L29 36L29 33L27 33L27 34L28 34L28 35L25 35L25 34L26 34L26 33L25 33L25 32L24 32L24 30L22 30L22 28L25 28L25 27L26 27L26 26L28 26L28 25L29 25L29 24L30 24L30 23L27 23L27 22L31 22L31 25L32 25L32 26L34 26L34 25L32 25L32 23L33 23L33 24L34 24L34 23L35 23L35 22L36 22L36 21L35 21L35 19L34 19L34 18L33 18L33 19L32 19L32 18L31 18L31 17L29 17L29 16L30 16L30 15L29 15L29 14L30 14L30 13L29 13L29 12L30 12L30 10L29 10L29 9L27 9L27 8L24 8L24 6L23 6L23 5L24 5L24 4L23 4L23 5L22 5L22 4L21 4L21 9L20 9L20 10L19 10L19 8L20 8L20 6L19 6L19 5L20 5L20 4L18 4L18 3L17 3L17 4L16 4L16 5L18 5L18 6L17 6L17 7L18 7L18 6L19 6L19 8L17 8L17 9L16 9L16 10L17 10L17 9L18 9L18 11L19 11L19 12L18 12L18 14L19 14L19 15L16 15L16 14L17 14L17 13L16 13L16 11L15 11L15 10L14 10L14 9L15 9L15 7L16 7L16 6L15 6L15 7L14 7L14 4L15 4L15 3L14 3L14 2ZM29 3L29 4L32 4L32 3ZM29 5L29 7L28 7L28 6L27 6L27 7L28 7L28 8L30 8L30 9L32 9L32 8L31 8L31 7L30 7L30 5ZM22 6L22 9L21 9L21 10L20 10L20 11L23 11L23 12L26 12L26 14L24 14L24 13L23 13L23 14L22 14L22 12L21 12L21 13L20 13L20 16L18 16L18 17L17 17L17 16L16 16L16 17L15 17L15 16L14 16L14 17L15 17L15 18L13 18L13 16L11 16L11 13L12 13L12 14L13 14L13 15L14 15L14 14L15 14L15 13L12 13L12 12L11 12L11 11L10 11L10 13L9 13L9 14L10 14L10 17L12 17L12 19L11 19L11 20L13 20L13 21L15 21L15 23L13 23L13 22L12 22L12 25L15 25L15 26L13 26L13 27L14 27L14 28L16 28L16 31L17 31L17 30L18 30L18 32L19 32L19 33L21 33L21 34L22 34L22 35L21 35L21 36L22 36L22 37L23 37L23 36L24 36L24 37L25 37L25 35L24 35L24 34L23 34L23 32L19 32L19 30L20 30L20 31L22 31L22 30L20 30L20 29L21 29L21 28L16 28L16 27L19 27L19 26L18 26L18 24L20 24L20 25L21 25L21 24L20 24L20 23L21 23L21 22L23 22L23 23L22 23L22 25L23 25L23 26L21 26L21 27L23 27L23 26L24 26L24 27L25 27L25 26L26 26L26 25L28 25L28 24L27 24L27 23L26 23L26 22L25 22L25 20L27 20L27 21L29 21L29 20L27 20L27 19L29 19L29 18L27 18L27 19L25 19L25 20L24 20L24 21L22 21L22 20L23 20L23 18L24 18L24 16L25 16L25 17L26 17L26 14L29 14L29 13L28 13L28 12L27 12L27 11L28 11L28 10L27 10L27 9L24 9L24 8L23 8L23 6ZM25 6L25 7L26 7L26 6ZM35 9L35 11L37 11L37 10L36 10L36 9ZM5 10L5 11L4 11L4 12L5 12L5 11L6 11L6 12L8 12L8 11L6 11L6 10ZM26 10L26 11L27 11L27 10ZM14 11L14 12L15 12L15 11ZM33 12L33 13L34 13L34 12ZM5 13L5 14L7 14L7 13ZM21 14L21 16L20 16L20 17L19 17L19 18L17 18L17 17L16 17L16 18L15 18L15 19L13 19L13 20L15 20L15 21L18 21L18 20L20 20L20 21L21 21L21 20L22 20L22 18L23 18L23 17L22 17L22 18L21 18L21 16L23 16L23 15L22 15L22 14ZM28 15L28 16L29 16L29 15ZM36 16L36 17L37 17L37 16ZM40 16L40 18L39 18L39 19L40 19L40 18L41 18L41 16ZM5 17L5 18L6 18L6 17ZM16 18L16 19L17 19L17 20L18 20L18 19L17 19L17 18ZM19 18L19 19L20 19L20 18ZM30 18L30 19L31 19L31 18ZM30 20L30 21L31 21L31 22L33 22L33 23L34 23L34 22L35 22L35 21L34 21L34 20L33 20L33 21L31 21L31 20ZM40 20L40 21L41 21L41 20ZM33 21L33 22L34 22L34 21ZM1 22L1 25L2 25L2 22ZM17 22L17 23L18 23L18 22ZM23 23L23 25L25 25L25 24L26 24L26 23ZM6 24L6 25L8 25L8 24ZM16 25L16 26L17 26L17 25ZM26 28L26 29L25 29L25 31L27 31L27 30L26 30L26 29L27 29L27 28ZM28 29L28 30L30 30L30 29ZM31 29L31 30L32 30L32 29ZM12 30L12 31L13 31L13 30ZM36 30L36 31L37 31L37 30ZM28 31L28 32L30 32L30 33L31 33L31 34L30 34L30 35L31 35L31 34L32 34L32 33L31 33L31 31ZM16 32L16 33L17 33L17 32ZM33 33L33 36L36 36L36 33ZM38 33L38 35L37 35L37 36L39 36L39 33ZM34 34L34 35L35 35L35 34ZM22 35L22 36L23 36L23 35ZM34 37L34 38L36 38L36 37ZM37 38L37 39L38 39L38 38ZM19 40L19 41L20 41L20 40ZM29 40L29 41L30 41L30 40ZM0 0L0 7L7 7L7 0ZM1 1L1 6L6 6L6 1ZM2 2L2 5L5 5L5 2ZM34 0L34 7L41 7L41 0ZM35 1L35 6L40 6L40 1ZM36 2L36 5L39 5L39 2ZM0 34L0 41L7 41L7 34ZM1 35L1 40L6 40L6 35ZM2 36L2 39L5 39L5 36Z" fill="#000000"/></g></g></svg>
