<?xml version="1.0" encoding="UTF-8"?>
<svg xmlns="http://www.w3.org/2000/svg" version="1.1" width="200" height="200" viewBox="0 0 200 200"><rect x="0" y="0" width="200" height="200" fill="#ffffff"/><g transform="scale(6.897)"><g transform="translate(0,0)"><path fill-rule="evenodd" d="M9 0L9 1L8 1L8 7L9 7L9 5L11 5L11 6L10 6L10 8L5 8L5 9L10 9L10 10L12 10L12 11L13 11L13 10L12 10L12 9L14 9L14 10L15 10L15 12L11 12L11 13L9 13L9 12L10 12L10 11L9 11L9 12L8 12L8 14L11 14L11 15L10 15L10 16L8 16L8 15L7 15L7 14L5 14L5 15L4 15L4 16L5 16L5 15L7 15L7 16L6 16L6 17L7 17L7 18L6 18L6 19L7 19L7 20L6 20L6 21L8 21L8 24L9 24L9 25L10 25L10 26L11 26L11 27L10 27L10 28L9 28L9 29L10 29L10 28L11 28L11 29L12 29L12 28L14 28L14 27L16 27L16 26L17 26L17 25L18 25L18 24L19 24L19 26L18 26L18 27L17 27L17 28L16 28L16 29L17 29L17 28L18 28L18 29L19 29L19 28L18 28L18 27L19 27L19 26L20 26L20 27L21 27L21 29L22 29L22 28L24 28L24 29L29 29L29 26L26 26L26 25L28 25L28 24L26 24L26 25L25 25L25 23L26 23L26 21L27 21L27 19L26 19L26 20L23 20L23 19L25 19L25 18L28 18L28 19L29 19L29 18L28 18L28 17L29 17L29 16L27 16L27 17L25 17L25 16L22 16L22 15L25 15L25 14L26 14L26 13L29 13L29 12L27 12L27 11L29 11L29 9L28 9L28 8L23 8L23 10L22 10L22 11L21 11L21 9L22 9L22 8L21 8L21 0L19 0L19 1L20 1L20 2L19 2L19 3L20 3L20 5L19 5L19 4L18 4L18 5L16 5L16 4L15 4L15 3L14 3L14 4L15 4L15 5L14 5L14 7L15 7L15 6L16 6L16 7L17 7L17 9L16 9L16 10L15 10L15 9L14 9L14 8L12 8L12 7L13 7L13 6L12 6L12 5L11 5L11 4L13 4L13 1L14 1L14 0L13 0L13 1L12 1L12 0L11 0L11 3L10 3L10 2L9 2L9 1L10 1L10 0ZM16 0L16 1L15 1L15 2L16 2L16 3L18 3L18 2L17 2L17 1L18 1L18 0ZM11 6L11 7L12 7L12 6ZM17 6L17 7L18 7L18 11L16 11L16 12L15 12L15 15L18 15L18 11L20 11L20 8L19 8L19 7L20 7L20 6L19 6L19 7L18 7L18 6ZM2 8L2 9L3 9L3 10L1 10L1 12L0 12L0 14L1 14L1 15L2 15L2 16L3 16L3 15L2 15L2 13L1 13L1 12L2 12L2 11L3 11L3 10L4 10L4 12L3 12L3 13L4 13L4 12L5 12L5 13L7 13L7 12L5 12L5 10L4 10L4 9L3 9L3 8ZM11 8L11 9L12 9L12 8ZM25 9L25 10L24 10L24 11L27 11L27 10L28 10L28 9ZM6 10L6 11L7 11L7 10ZM19 12L19 14L22 14L22 12L21 12L21 13L20 13L20 12ZM23 12L23 14L25 14L25 13L24 13L24 12ZM11 13L11 14L12 14L12 15L13 15L13 16L14 16L14 18L13 18L13 20L12 20L12 19L10 19L10 18L12 18L12 16L10 16L10 17L9 17L9 18L7 18L7 19L8 19L8 20L9 20L9 22L10 22L10 23L12 23L12 22L10 22L10 20L11 20L11 21L13 21L13 24L10 24L10 25L11 25L11 26L12 26L12 25L13 25L13 27L14 27L14 26L15 26L15 25L17 25L17 24L18 24L18 23L19 23L19 24L20 24L20 23L19 23L19 22L20 22L20 21L18 21L18 20L16 20L16 19L15 19L15 20L14 20L14 18L15 18L15 17L16 17L16 18L17 18L17 19L18 19L18 17L19 17L19 18L20 18L20 19L19 19L19 20L22 20L22 19L21 19L21 15L19 15L19 16L14 16L14 13ZM27 14L27 15L29 15L29 14ZM7 16L7 17L8 17L8 16ZM19 16L19 17L20 17L20 16ZM3 17L3 19L2 19L2 18L0 18L0 19L2 19L2 20L0 20L0 21L2 21L2 20L3 20L3 21L5 21L5 18L4 18L4 17ZM22 17L22 18L25 18L25 17ZM3 19L3 20L4 20L4 19ZM17 21L17 22L16 22L16 23L18 23L18 21ZM21 21L21 24L24 24L24 21ZM22 22L22 23L23 23L23 22ZM28 22L28 23L29 23L29 22ZM14 23L14 24L13 24L13 25L15 25L15 23ZM21 25L21 26L22 26L22 27L23 27L23 26L24 26L24 28L26 28L26 27L25 27L25 25ZM8 26L8 27L9 27L9 26ZM11 27L11 28L12 28L12 27ZM27 27L27 28L28 28L28 27ZM0 0L0 7L7 7L7 0ZM1 1L1 6L6 6L6 1ZM2 2L2 5L5 5L5 2ZM22 0L22 7L29 7L29 0ZM23 1L23 6L28 6L28 1ZM24 2L24 5L27 5L27 2ZM0 22L0 29L7 29L7 22ZM1 23L1 28L6 28L6 23ZM2 24L2 27L5 27L5 24Z" fill="#000000"/></g></g></svg>
