<?xml version="1.0" encoding="UTF-8"?>
<svg xmlns="http://www.w3.org/2000/svg" version="1.1" width="200" height="200" viewBox="0 0 200 200"><rect x="0" y="0" width="200" height="200" fill="#ffffff"/><g transform="scale(6.897)"><g transform="translate(0,0)"><path fill-rule="evenodd" d="M9 0L9 1L13 1L13 2L12 2L12 4L11 4L11 2L9 2L9 3L10 3L10 4L11 4L11 5L12 5L12 7L11 7L11 6L10 6L10 9L9 9L9 6L8 6L8 8L6 8L6 9L4 9L4 8L2 8L2 9L4 9L4 10L3 10L3 11L1 11L1 10L0 10L0 11L1 11L1 12L0 12L0 13L2 13L2 14L4 14L4 15L5 15L5 17L9 17L9 18L6 18L6 19L9 19L9 20L11 20L11 18L12 18L12 20L13 20L13 18L14 18L14 19L15 19L15 18L14 18L14 17L16 17L16 16L14 16L14 17L13 17L13 13L14 13L14 12L15 12L15 13L17 13L17 12L18 12L18 10L19 10L19 11L20 11L20 12L19 12L19 13L20 13L20 14L18 14L18 16L17 16L17 18L16 18L16 22L15 22L15 21L14 21L14 22L13 22L13 23L14 23L14 24L16 24L16 29L18 29L18 28L17 28L17 25L18 25L18 24L17 24L17 21L18 21L18 22L19 22L19 25L20 25L20 27L21 27L21 25L23 25L23 26L24 26L24 27L22 27L22 29L23 29L23 28L26 28L26 29L27 29L27 28L29 28L29 26L28 26L28 27L25 27L25 26L27 26L27 25L26 25L26 23L25 23L25 22L26 22L26 20L27 20L27 21L28 21L28 22L27 22L27 24L29 24L29 23L28 23L28 22L29 22L29 21L28 21L28 20L27 20L27 18L29 18L29 17L26 17L26 16L25 16L25 15L24 15L24 16L23 16L23 17L21 17L21 18L20 18L20 17L18 17L18 16L19 16L19 15L20 15L20 14L21 14L21 13L20 13L20 12L22 12L22 9L23 9L23 13L22 13L22 15L23 15L23 14L24 14L24 13L25 13L25 14L26 14L26 15L27 15L27 16L28 16L28 15L29 15L29 14L28 14L28 15L27 15L27 13L28 13L28 12L29 12L29 11L28 11L28 12L27 12L27 10L29 10L29 9L26 9L26 10L24 10L24 9L25 9L25 8L24 8L24 9L23 9L23 8L21 8L21 9L20 9L20 10L19 10L19 8L20 8L20 7L21 7L21 3L20 3L20 2L18 2L18 1L17 1L17 2L16 2L16 0ZM14 2L14 3L13 3L13 4L14 4L14 3L16 3L16 4L17 4L17 5L16 5L16 6L15 6L15 7L14 7L14 5L13 5L13 7L14 7L14 8L12 8L12 9L11 9L11 10L12 10L12 11L11 11L11 12L12 12L12 13L13 13L13 12L14 12L14 11L13 11L13 10L14 10L14 9L15 9L15 10L16 10L16 12L17 12L17 10L18 10L18 8L19 8L19 7L20 7L20 5L19 5L19 4L20 4L20 3L19 3L19 4L18 4L18 2L17 2L17 3L16 3L16 2ZM8 4L8 5L9 5L9 4ZM17 5L17 6L16 6L16 7L17 7L17 6L18 6L18 7L19 7L19 5ZM15 8L15 9L16 9L16 10L17 10L17 8ZM6 9L6 10L4 10L4 11L3 11L3 12L5 12L5 13L4 13L4 14L5 14L5 15L6 15L6 16L7 16L7 15L6 15L6 14L7 14L7 13L6 13L6 12L9 12L9 11L10 11L10 10L9 10L9 9ZM12 9L12 10L13 10L13 9ZM6 10L6 11L5 11L5 12L6 12L6 11L7 11L7 10ZM12 11L12 12L13 12L13 11ZM25 11L25 13L27 13L27 12L26 12L26 11ZM5 13L5 14L6 14L6 13ZM8 14L8 15L9 15L9 14ZM10 14L10 15L12 15L12 14ZM16 14L16 15L17 15L17 14ZM2 15L2 16L1 16L1 17L2 17L2 20L1 20L1 21L7 21L7 20L5 20L5 19L4 19L4 20L3 20L3 17L2 17L2 16L3 16L3 15ZM9 16L9 17L10 17L10 18L11 18L11 17L10 17L10 16ZM24 16L24 17L23 17L23 18L22 18L22 19L21 19L21 20L22 20L22 19L24 19L24 20L26 20L26 17L25 17L25 16ZM12 17L12 18L13 18L13 17ZM0 18L0 19L1 19L1 18ZM19 18L19 19L17 19L17 20L20 20L20 18ZM24 18L24 19L25 19L25 18ZM8 21L8 23L9 23L9 24L10 24L10 26L9 26L9 25L8 25L8 27L10 27L10 26L11 26L11 27L12 27L12 28L11 28L11 29L12 29L12 28L14 28L14 29L15 29L15 27L14 27L14 26L13 26L13 24L12 24L12 26L11 26L11 24L10 24L10 22L11 22L11 21ZM19 21L19 22L20 22L20 21ZM21 21L21 24L24 24L24 21ZM14 22L14 23L15 23L15 22ZM22 22L22 23L23 23L23 22ZM24 25L24 26L25 26L25 25ZM18 26L18 27L19 27L19 26ZM19 28L19 29L20 29L20 28ZM0 0L0 7L7 7L7 0ZM1 1L1 6L6 6L6 1ZM2 2L2 5L5 5L5 2ZM22 0L22 7L29 7L29 0ZM23 1L23 6L28 6L28 1ZM24 2L24 5L27 5L27 2ZM0 22L0 29L7 29L7 22ZM1 23L1 28L6 28L6 23ZM2 24L2 27L5 27L5 24Z" fill="#000000"/></g></g></svg>
