<?xml version="1.0" encoding="UTF-8"?>
<svg xmlns="http://www.w3.org/2000/svg" version="1.1" width="200" height="200" viewBox="0 0 200 200"><rect x="0" y="0" width="200" height="200" fill="#ffffff"/><g transform="scale(6.897)"><g transform="translate(0,0)"><path fill-rule="evenodd" d="M8 0L8 3L10 3L10 4L9 4L9 5L8 5L8 11L7 11L7 10L6 10L6 9L7 9L7 8L6 8L6 9L5 9L5 8L2 8L2 9L1 9L1 10L2 10L2 11L0 11L0 12L1 12L1 14L0 14L0 15L1 15L1 16L0 16L0 21L1 21L1 17L2 17L2 15L1 15L1 14L2 14L2 12L4 12L4 13L5 13L5 12L6 12L6 13L7 13L7 12L8 12L8 13L9 13L9 15L7 15L7 14L4 14L4 18L5 18L5 17L7 17L7 18L6 18L6 19L3 19L3 18L2 18L2 19L3 19L3 20L2 20L2 21L8 21L8 22L9 22L9 21L8 21L8 20L11 20L11 21L10 21L10 24L8 24L8 27L9 27L9 28L10 28L10 29L11 29L11 28L10 28L10 27L11 27L11 25L13 25L13 24L11 24L11 22L12 22L12 23L13 23L13 21L16 21L16 22L18 22L18 21L17 21L17 20L16 20L16 16L19 16L19 15L18 15L18 13L20 13L20 12L21 12L21 11L20 11L20 10L22 10L22 9L23 9L23 10L24 10L24 8L21 8L21 9L20 9L20 7L21 7L21 5L20 5L20 4L21 4L21 3L20 3L20 4L19 4L19 3L18 3L18 4L17 4L17 3L15 3L15 2L16 2L16 1L17 1L17 0L16 0L16 1L15 1L15 0L12 0L12 1L11 1L11 0ZM9 1L9 2L10 2L10 1ZM13 1L13 2L12 2L12 3L11 3L11 4L10 4L10 6L9 6L9 7L10 7L10 6L11 6L11 9L12 9L12 10L13 10L13 9L12 9L12 6L13 6L13 8L14 8L14 9L15 9L15 10L14 10L14 12L15 12L15 14L16 14L16 15L14 15L14 16L13 16L13 14L14 14L14 13L13 13L13 11L11 11L11 10L10 10L10 11L8 11L8 12L12 12L12 16L11 16L11 13L10 13L10 16L9 16L9 18L10 18L10 17L11 17L11 20L12 20L12 21L13 21L13 20L15 20L15 18L14 18L14 17L15 17L15 16L16 16L16 15L17 15L17 11L16 11L16 10L17 10L17 9L19 9L19 10L20 10L20 9L19 9L19 8L17 8L17 9L15 9L15 8L16 8L16 6L17 6L17 7L18 7L18 6L19 6L19 7L20 7L20 6L19 6L19 5L18 5L18 6L17 6L17 4L16 4L16 5L15 5L15 7L14 7L14 5L13 5L13 4L14 4L14 2L15 2L15 1ZM18 1L18 2L19 2L19 1ZM20 1L20 2L21 2L21 1ZM12 3L12 4L11 4L11 5L12 5L12 4L13 4L13 3ZM9 8L9 9L10 9L10 8ZM26 8L26 9L25 9L25 12L24 12L24 11L22 11L22 12L23 12L23 13L21 13L21 15L22 15L22 14L23 14L23 13L24 13L24 19L25 19L25 18L26 18L26 19L27 19L27 20L28 20L28 21L27 21L27 22L26 22L26 21L25 21L25 20L23 20L23 19L22 19L22 18L20 18L20 19L21 19L21 20L20 20L20 25L18 25L18 26L17 26L17 27L15 27L15 25L14 25L14 26L12 26L12 27L13 27L13 29L15 29L15 28L17 28L17 27L18 27L18 29L26 29L26 27L27 27L27 29L28 29L28 28L29 28L29 27L28 27L28 25L29 25L29 24L28 24L28 25L26 25L26 24L25 24L25 22L26 22L26 23L27 23L27 22L28 22L28 23L29 23L29 20L28 20L28 19L27 19L27 17L28 17L28 10L29 10L29 8ZM2 9L2 10L3 10L3 11L4 11L4 12L5 12L5 11L4 11L4 10L3 10L3 9ZM26 10L26 11L27 11L27 10ZM6 11L6 12L7 12L7 11ZM18 11L18 12L19 12L19 11ZM25 12L25 13L26 13L26 14L27 14L27 12ZM5 15L5 16L7 16L7 17L8 17L8 16L7 16L7 15ZM25 15L25 16L27 16L27 15ZM20 16L20 17L22 17L22 16ZM12 17L12 18L13 18L13 17ZM17 17L17 18L19 18L19 17ZM7 18L7 19L6 19L6 20L7 20L7 19L8 19L8 18ZM18 19L18 20L19 20L19 19ZM21 21L21 24L24 24L24 21ZM14 22L14 24L15 24L15 22ZM22 22L22 23L23 23L23 22ZM16 23L16 24L19 24L19 23ZM10 24L10 25L11 25L11 24ZM22 25L22 26L23 26L23 27L25 27L25 26L26 26L26 25L25 25L25 26L24 26L24 25ZM9 26L9 27L10 27L10 26ZM18 26L18 27L19 27L19 28L22 28L22 27L21 27L21 26L20 26L20 27L19 27L19 26ZM14 27L14 28L15 28L15 27ZM0 0L0 7L7 7L7 0ZM1 1L1 6L6 6L6 1ZM2 2L2 5L5 5L5 2ZM22 0L22 7L29 7L29 0ZM23 1L23 6L28 6L28 1ZM24 2L24 5L27 5L27 2ZM0 22L0 29L7 29L7 22ZM1 23L1 28L6 28L6 23ZM2 24L2 27L5 27L5 24Z" fill="#000000"/></g></g></svg>
