<?xml version="1.0" encoding="UTF-8"?>
<svg xmlns="http://www.w3.org/2000/svg" version="1.1" width="200" height="200" viewBox="0 0 200 200"><rect x="0" y="0" width="200" height="200" fill="#ffffff"/><g transform="scale(6.897)"><g transform="translate(0,0)"><path fill-rule="evenodd" d="M10 0L10 2L9 2L9 1L8 1L8 7L9 7L9 8L5 8L5 9L8 9L8 12L6 12L6 13L5 13L5 14L6 14L6 15L5 15L5 16L6 16L6 17L4 17L4 18L6 18L6 19L5 19L5 20L4 20L4 21L5 21L5 20L6 20L6 21L7 21L7 20L8 20L8 24L9 24L9 25L10 25L10 26L8 26L8 27L10 27L10 28L9 28L9 29L12 29L12 28L14 28L14 27L15 27L15 28L16 28L16 29L17 29L17 28L19 28L19 26L20 26L20 27L21 27L21 29L22 29L22 28L24 28L24 29L29 29L29 26L26 26L26 25L27 25L27 24L28 24L28 23L27 23L27 24L26 24L26 25L25 25L25 23L26 23L26 21L27 21L27 19L26 19L26 18L28 18L28 19L29 19L29 18L28 18L28 17L29 17L29 16L27 16L27 17L25 17L25 16L22 16L22 15L25 15L25 14L26 14L26 13L29 13L29 12L27 12L27 11L29 11L29 9L28 9L28 8L23 8L23 10L22 10L22 11L21 11L21 9L22 9L22 8L21 8L21 0L19 0L19 1L20 1L20 2L19 2L19 3L20 3L20 5L19 5L19 4L18 4L18 5L17 5L17 3L18 3L18 2L17 2L17 1L18 1L18 0L17 0L17 1L15 1L15 0ZM11 1L11 2L10 2L10 3L11 3L11 4L15 4L15 5L9 5L9 7L10 7L10 6L11 6L11 11L10 11L10 10L9 10L9 11L10 11L10 12L11 12L11 13L12 13L12 15L13 15L13 16L11 16L11 14L10 14L10 13L9 13L9 12L8 12L8 14L7 14L7 13L6 13L6 14L7 14L7 15L6 15L6 16L9 16L9 14L10 14L10 17L11 17L11 18L10 18L10 19L11 19L11 20L9 20L9 18L7 18L7 17L6 17L6 18L7 18L7 19L6 19L6 20L7 20L7 19L8 19L8 20L9 20L9 23L10 23L10 24L11 24L11 25L12 25L12 24L13 24L13 25L14 25L14 26L13 26L13 27L14 27L14 26L15 26L15 27L18 27L18 26L15 26L15 25L14 25L14 23L15 23L15 24L16 24L16 23L15 23L15 22L16 22L16 21L17 21L17 20L16 20L16 18L17 18L17 17L18 17L18 19L19 19L19 20L22 20L22 19L21 19L21 15L19 15L19 16L20 16L20 17L18 17L18 15L17 15L17 13L18 13L18 12L19 12L19 14L22 14L22 12L21 12L21 13L20 13L20 12L19 12L19 11L20 11L20 9L19 9L19 7L20 7L20 6L19 6L19 7L18 7L18 6L17 6L17 5L16 5L16 4L15 4L15 1L13 1L13 2L14 2L14 3L12 3L12 1ZM15 5L15 6L14 6L14 7L13 7L13 6L12 6L12 9L13 9L13 10L16 10L16 11L19 11L19 10L17 10L17 9L18 9L18 7L17 7L17 6L16 6L16 5ZM15 6L15 7L14 7L14 9L15 9L15 7L16 7L16 6ZM2 8L2 9L1 9L1 11L0 11L0 13L1 13L1 11L2 11L2 12L4 12L4 10L3 10L3 11L2 11L2 9L3 9L3 8ZM9 8L9 9L10 9L10 8ZM26 9L26 10L24 10L24 11L26 11L26 10L28 10L28 9ZM5 10L5 11L7 11L7 10ZM11 11L11 12L13 12L13 15L14 15L14 16L13 16L13 17L12 17L12 18L11 18L11 19L13 19L13 20L14 20L14 21L12 21L12 20L11 20L11 24L12 24L12 22L15 22L15 20L14 20L14 17L15 17L15 15L16 15L16 16L17 16L17 15L16 15L16 13L17 13L17 12L13 12L13 11ZM23 12L23 14L25 14L25 13L24 13L24 12ZM2 13L2 14L4 14L4 13ZM14 13L14 14L15 14L15 13ZM27 14L27 15L29 15L29 14ZM2 15L2 16L0 16L0 17L1 17L1 18L0 18L0 19L2 19L2 20L0 20L0 21L3 21L3 18L2 18L2 17L3 17L3 16L4 16L4 15ZM22 17L22 18L25 18L25 17ZM19 18L19 19L20 19L20 18ZM23 19L23 20L25 20L25 19ZM19 21L19 22L18 22L18 23L19 23L19 24L20 24L20 23L19 23L19 22L20 22L20 21ZM21 21L21 24L24 24L24 21ZM28 21L28 22L29 22L29 21ZM22 22L22 23L23 23L23 22ZM21 25L21 26L22 26L22 27L23 27L23 26L24 26L24 28L25 28L25 27L26 27L26 26L25 26L25 25ZM10 26L10 27L12 27L12 26ZM27 27L27 28L28 28L28 27ZM0 0L0 7L7 7L7 0ZM1 1L1 6L6 6L6 1ZM2 2L2 5L5 5L5 2ZM22 0L22 7L29 7L29 0ZM23 1L23 6L28 6L28 1ZM24 2L24 5L27 5L27 2ZM0 22L0 29L7 29L7 22ZM1 23L1 28L6 28L6 23ZM2 24L2 27L5 27L5 24Z" fill="#000000"/></g></g></svg>
