<?xml version="1.0" encoding="UTF-8"?>
<svg xmlns="http://www.w3.org/2000/svg" version="1.1" width="200" height="200" viewBox="0 0 200 200"><rect x="0" y="0" width="200" height="200" fill="#ffffff"/><g transform="scale(4.878)"><g transform="translate(0,0)"><path fill-rule="evenodd" d="M8 0L8 3L9 3L9 4L11 4L11 5L10 5L10 7L9 7L9 5L8 5L8 10L6 10L6 9L7 9L7 8L6 8L6 9L5 9L5 8L2 8L2 9L0 9L0 11L4 11L4 12L5 12L5 15L4 15L4 16L6 16L6 17L4 17L4 18L5 18L5 20L4 20L4 21L3 21L3 20L1 20L1 17L2 17L2 14L4 14L4 13L3 13L3 12L2 12L2 14L1 14L1 12L0 12L0 14L1 14L1 15L0 15L0 16L1 16L1 17L0 17L0 20L1 20L1 21L0 21L0 22L1 22L1 25L0 25L0 27L1 27L1 29L0 29L0 33L1 33L1 30L2 30L2 31L3 31L3 32L4 32L4 33L8 33L8 34L10 34L10 35L11 35L11 31L12 31L12 29L13 29L13 30L17 30L17 31L15 31L15 33L14 33L14 32L12 32L12 34L14 34L14 35L13 35L13 37L12 37L12 38L9 38L9 37L11 37L11 36L8 36L8 39L10 39L10 41L11 41L11 40L12 40L12 41L13 41L13 40L14 40L14 41L15 41L15 40L16 40L16 39L15 39L15 40L14 40L14 39L12 39L12 38L13 38L13 37L14 37L14 38L18 38L18 39L17 39L17 40L18 40L18 41L27 41L27 40L28 40L28 41L31 41L31 40L33 40L33 41L34 41L34 40L33 40L33 39L32 39L32 38L31 38L31 37L30 37L30 39L31 39L31 40L28 40L28 39L29 39L29 38L27 38L27 40L26 40L26 38L25 38L25 37L24 37L24 36L27 36L27 37L29 37L29 36L31 36L31 35L32 35L32 37L33 37L33 38L34 38L34 39L35 39L35 40L36 40L36 39L37 39L37 40L40 40L40 38L41 38L41 37L40 37L40 36L41 36L41 35L40 35L40 34L41 34L41 33L39 33L39 32L38 32L38 31L40 31L40 30L41 30L41 29L40 29L40 28L41 28L41 27L40 27L40 26L41 26L41 23L39 23L39 24L40 24L40 26L39 26L39 25L36 25L36 24L37 24L37 23L38 23L38 22L37 22L37 20L38 20L38 21L39 21L39 20L38 20L38 19L37 19L37 20L36 20L36 19L35 19L35 17L36 17L36 18L37 18L37 17L39 17L39 16L37 16L37 15L38 15L38 14L37 14L37 13L36 13L36 14L35 14L35 17L34 17L34 16L32 16L32 17L31 17L31 16L29 16L29 15L31 15L31 10L32 10L32 11L33 11L33 12L32 12L32 13L33 13L33 14L32 14L32 15L34 15L34 13L35 13L35 11L36 11L36 12L38 12L38 11L40 11L40 10L41 10L41 8L38 8L38 9L40 9L40 10L37 10L37 9L36 9L36 8L33 8L33 6L32 6L32 9L30 9L30 8L29 8L29 9L28 9L28 10L27 10L27 11L30 11L30 12L29 12L29 13L28 13L28 12L26 12L26 11L25 11L25 12L26 12L26 13L25 13L25 14L29 14L29 15L28 15L28 16L29 16L29 17L31 17L31 18L30 18L30 19L31 19L31 20L30 20L30 21L31 21L31 22L32 22L32 21L34 21L34 22L33 22L33 23L34 23L34 24L31 24L31 23L30 23L30 22L27 22L27 21L24 21L24 19L23 19L23 18L25 18L25 17L23 17L23 18L22 18L22 20L21 20L21 17L20 17L20 16L22 16L22 12L23 12L23 14L24 14L24 11L22 11L22 12L21 12L21 10L22 10L22 9L23 9L23 8L24 8L24 7L25 7L25 9L26 9L26 8L28 8L28 7L29 7L29 6L30 6L30 7L31 7L31 5L32 5L32 4L33 4L33 3L32 3L32 2L33 2L33 0L29 0L29 1L27 1L27 0L26 0L26 1L27 1L27 2L26 2L26 3L28 3L28 4L29 4L29 3L32 3L32 4L30 4L30 5L29 5L29 6L28 6L28 5L27 5L27 4L26 4L26 5L27 5L27 6L26 6L26 7L25 7L25 6L24 6L24 5L21 5L21 4L19 4L19 3L24 3L24 4L25 4L25 3L24 3L24 1L23 1L23 0L21 0L21 2L19 2L19 1L20 1L20 0L18 0L18 2L19 2L19 3L18 3L18 5L17 5L17 4L16 4L16 3L17 3L17 2L16 2L16 0L15 0L15 1L14 1L14 2L15 2L15 3L14 3L14 4L13 4L13 5L12 5L12 3L13 3L13 0L12 0L12 1L11 1L11 0ZM10 1L10 3L12 3L12 2L11 2L11 1ZM30 1L30 2L32 2L32 1ZM15 4L15 5L14 5L14 6L13 6L13 7L12 7L12 5L11 5L11 7L10 7L10 8L9 8L9 9L10 9L10 10L8 10L8 11L6 11L6 12L7 12L7 13L6 13L6 14L7 14L7 13L8 13L8 11L10 11L10 10L13 10L13 12L12 12L12 11L11 11L11 12L9 12L9 13L10 13L10 14L9 14L9 15L10 15L10 17L9 17L9 18L8 18L8 16L7 16L7 15L6 15L6 16L7 16L7 17L6 17L6 18L7 18L7 19L6 19L6 20L9 20L9 18L10 18L10 19L11 19L11 20L10 20L10 21L11 21L11 20L12 20L12 22L11 22L11 23L6 23L6 22L7 22L7 21L4 21L4 22L3 22L3 24L2 24L2 25L3 25L3 26L1 26L1 27L2 27L2 28L4 28L4 26L7 26L7 27L5 27L5 29L4 29L4 30L5 30L5 31L4 31L4 32L5 32L5 31L6 31L6 32L7 32L7 31L6 31L6 30L7 30L7 29L8 29L8 28L9 28L9 29L10 29L10 28L11 28L11 29L12 29L12 26L11 26L11 25L12 25L12 24L11 24L11 23L13 23L13 26L14 26L14 25L16 25L16 26L15 26L15 27L13 27L13 28L15 28L15 29L17 29L17 28L16 28L16 26L17 26L17 27L18 27L18 28L19 28L19 27L20 27L20 30L18 30L18 31L19 31L19 34L20 34L20 35L21 35L21 37L20 37L20 36L19 36L19 35L18 35L18 32L16 32L16 33L15 33L15 36L16 36L16 37L17 37L17 36L19 36L19 38L20 38L20 39L18 39L18 40L20 40L20 39L21 39L21 37L22 37L22 38L23 38L23 37L22 37L22 34L23 34L23 36L24 36L24 34L25 34L25 35L26 35L26 34L25 34L25 33L27 33L27 34L28 34L28 35L27 35L27 36L29 36L29 33L27 33L27 32L26 32L26 31L27 31L27 29L25 29L25 30L24 30L24 29L23 29L23 28L25 28L25 26L26 26L26 28L31 28L31 29L28 29L28 30L32 30L32 31L33 31L33 32L36 32L36 31L34 31L34 30L35 30L35 29L37 29L37 31L38 31L38 30L39 30L39 26L38 26L38 28L35 28L35 27L37 27L37 26L36 26L36 25L35 25L35 24L36 24L36 23L35 23L35 22L36 22L36 21L35 21L35 19L34 19L34 18L33 18L33 17L32 17L32 18L31 18L31 19L32 19L32 18L33 18L33 20L34 20L34 21L35 21L35 22L34 22L34 23L35 23L35 24L34 24L34 25L32 25L32 26L31 26L31 25L30 25L30 26L28 26L28 25L29 25L29 24L30 24L30 23L25 23L25 24L28 24L28 25L27 25L27 26L26 26L26 25L24 25L24 24L23 24L23 26L24 26L24 27L22 27L22 25L21 25L21 26L19 26L19 25L20 25L20 22L19 22L19 24L17 24L17 23L18 23L18 22L17 22L17 21L19 21L19 20L20 20L20 19L19 19L19 20L17 20L17 21L16 21L16 20L15 20L15 19L17 19L17 18L15 18L15 17L18 17L18 16L20 16L20 15L21 15L21 12L20 12L20 13L18 13L18 12L19 12L19 11L18 11L18 12L17 12L17 13L18 13L18 14L17 14L17 15L16 15L16 16L15 16L15 17L14 17L14 18L13 18L13 20L12 20L12 18L11 18L11 16L14 16L14 15L15 15L15 14L16 14L16 11L17 11L17 9L16 9L16 10L15 10L15 9L13 9L13 8L15 8L15 7L16 7L16 8L18 8L18 6L17 6L17 7L16 7L16 4ZM19 5L19 7L20 7L20 9L19 9L19 10L21 10L21 9L22 9L22 8L21 8L21 7L22 7L22 6L21 6L21 7L20 7L20 5ZM14 6L14 7L15 7L15 6ZM23 6L23 7L24 7L24 6ZM27 6L27 7L28 7L28 6ZM11 8L11 9L12 9L12 8ZM4 9L4 10L5 10L5 9ZM29 9L29 10L30 10L30 9ZM32 9L32 10L33 10L33 11L34 11L34 10L33 10L33 9ZM36 10L36 11L37 11L37 10ZM14 11L14 13L15 13L15 11ZM33 12L33 13L34 13L34 12ZM39 12L39 13L40 13L40 14L39 14L39 15L40 15L40 14L41 14L41 12ZM11 13L11 15L13 15L13 14L12 14L12 13ZM29 13L29 14L30 14L30 13ZM17 15L17 16L18 16L18 15ZM24 15L24 16L26 16L26 17L27 17L27 16L26 16L26 15ZM36 16L36 17L37 17L37 16ZM40 16L40 18L39 18L39 19L40 19L40 18L41 18L41 16ZM19 17L19 18L20 18L20 17ZM2 18L2 19L3 19L3 18ZM26 18L26 19L27 19L27 20L28 20L28 21L29 21L29 20L28 20L28 18ZM13 20L13 23L15 23L15 24L16 24L16 23L17 23L17 22L16 22L16 23L15 23L15 21L14 21L14 20ZM22 20L22 21L21 21L21 23L23 23L23 22L24 22L24 21L23 21L23 20ZM31 20L31 21L32 21L32 20ZM40 20L40 21L41 21L41 20ZM1 21L1 22L2 22L2 21ZM4 24L4 25L5 25L5 24ZM6 24L6 25L7 25L7 26L8 26L8 27L7 27L7 28L6 28L6 29L7 29L7 28L8 28L8 27L10 27L10 25L8 25L8 24ZM34 25L34 26L32 26L32 28L33 28L33 29L32 29L32 30L33 30L33 29L34 29L34 28L33 28L33 27L34 27L34 26L35 26L35 25ZM18 26L18 27L19 27L19 26ZM27 26L27 27L28 27L28 26ZM22 29L22 30L21 30L21 31L20 31L20 32L21 32L21 33L20 33L20 34L22 34L22 33L23 33L23 34L24 34L24 33L25 33L25 32L23 32L23 31L24 31L24 30L23 30L23 29ZM9 30L9 31L10 31L10 30ZM22 30L22 31L23 31L23 30ZM28 31L28 32L30 32L30 33L31 33L31 32L30 32L30 31ZM8 32L8 33L9 33L9 32ZM37 32L37 33L38 33L38 34L37 34L37 35L38 35L38 36L37 36L37 37L38 37L38 36L40 36L40 35L39 35L39 33L38 33L38 32ZM33 33L33 36L36 36L36 33ZM30 34L30 35L31 35L31 34ZM34 34L34 35L35 35L35 34ZM34 37L34 38L36 38L36 37ZM24 38L24 40L25 40L25 38ZM37 38L37 39L38 39L38 38ZM0 0L0 7L7 7L7 0ZM1 1L1 6L6 6L6 1ZM2 2L2 5L5 5L5 2ZM34 0L34 7L41 7L41 0ZM35 1L35 6L40 6L40 1ZM36 2L36 5L39 5L39 2ZM0 34L0 41L7 41L7 34ZM1 35L1 40L6 40L6 35ZM2 36L2 39L5 39L5 36Z" fill="#000000"/></g></g></svg>
