<?xml version="1.0" encoding="UTF-8"?>
<svg xmlns="http://www.w3.org/2000/svg" version="1.1" width="200" height="200" viewBox="0 0 200 200"><rect x="0" y="0" width="200" height="200" fill="#ffffff"/><g transform="scale(4.878)"><g transform="translate(0,0)"><path fill-rule="evenodd" d="M8 0L8 3L9 3L9 5L8 5L8 9L7 9L7 8L6 8L6 9L7 9L7 10L6 10L6 11L4 11L4 12L6 12L6 13L7 13L7 12L8 12L8 15L9 15L9 17L8 17L8 18L9 18L9 20L10 20L10 22L6 22L6 21L8 21L8 19L7 19L7 18L6 18L6 19L7 19L7 20L6 20L6 21L5 21L5 23L3 23L3 22L0 22L0 23L1 23L1 25L2 25L2 24L6 24L6 25L8 25L8 24L10 24L10 25L9 25L9 26L8 26L8 27L7 27L7 26L6 26L6 27L7 27L7 28L5 28L5 29L7 29L7 28L8 28L8 27L9 27L9 29L8 29L8 30L9 30L9 31L8 31L8 32L6 32L6 31L7 31L7 30L6 30L6 31L5 31L5 32L6 32L6 33L8 33L8 34L9 34L9 35L10 35L10 36L8 36L8 39L9 39L9 41L12 41L12 39L11 39L11 40L10 40L10 39L9 39L9 37L10 37L10 36L11 36L11 37L15 37L15 38L17 38L17 39L16 39L16 40L15 40L15 41L17 41L17 40L18 40L18 41L19 41L19 40L20 40L20 41L21 41L21 40L20 40L20 38L19 38L19 37L20 37L20 36L17 36L17 35L18 35L18 34L19 34L19 35L21 35L21 34L24 34L24 33L25 33L25 35L26 35L26 34L27 34L27 37L26 37L26 36L24 36L24 37L25 37L25 38L24 38L24 39L23 39L23 40L22 40L22 41L25 41L25 40L26 40L26 41L27 41L27 40L28 40L28 41L32 41L32 40L33 40L33 41L34 41L34 40L33 40L33 39L35 39L35 40L36 40L36 39L37 39L37 40L40 40L40 38L41 38L41 37L39 37L39 36L37 36L37 32L38 32L38 33L39 33L39 35L40 35L40 36L41 36L41 35L40 35L40 34L41 34L41 33L39 33L39 32L41 32L41 31L40 31L40 30L41 30L41 29L39 29L39 30L37 30L37 29L35 29L35 30L34 30L34 31L36 31L36 32L33 32L33 31L32 31L32 30L33 30L33 29L34 29L34 28L33 28L33 27L34 27L34 26L35 26L35 25L36 25L36 26L37 26L37 27L36 27L36 28L38 28L38 26L39 26L39 28L41 28L41 27L40 27L40 26L41 26L41 23L39 23L39 24L40 24L40 26L39 26L39 25L36 25L36 24L37 24L37 23L38 23L38 21L39 21L39 20L36 20L36 19L35 19L35 17L36 17L36 18L37 18L37 19L40 19L40 18L41 18L41 16L40 16L40 18L38 18L38 17L39 17L39 16L38 16L38 13L36 13L36 15L35 15L35 17L34 17L34 16L33 16L33 17L30 17L30 16L31 16L31 15L30 15L30 16L29 16L29 15L28 15L28 16L29 16L29 17L30 17L30 19L31 19L31 20L30 20L30 21L31 21L31 22L30 22L30 23L31 23L31 24L29 24L29 23L28 23L28 22L29 22L29 21L28 21L28 20L29 20L29 18L27 18L27 19L28 19L28 20L26 20L26 22L27 22L27 23L25 23L25 24L23 24L23 25L24 25L24 26L22 26L22 25L21 25L21 26L20 26L20 27L21 27L21 29L23 29L23 28L24 28L24 27L25 27L25 28L28 28L28 29L27 29L27 30L26 30L26 29L24 29L24 30L23 30L23 31L22 31L22 30L20 30L20 29L18 29L18 28L19 28L19 27L18 27L18 26L19 26L19 25L20 25L20 24L22 24L22 22L21 22L21 20L23 20L23 23L24 23L24 20L25 20L25 19L26 19L26 15L25 15L25 14L29 14L29 13L30 13L30 14L31 14L31 11L30 11L30 12L29 12L29 10L27 10L27 9L30 9L30 10L34 10L34 11L32 11L32 13L33 13L33 14L32 14L32 15L34 15L34 13L35 13L35 10L36 10L36 11L37 11L37 12L38 12L38 11L39 11L39 12L41 12L41 11L40 11L40 10L41 10L41 8L38 8L38 9L40 9L40 10L37 10L37 9L36 9L36 8L33 8L33 5L32 5L32 4L33 4L33 3L32 3L32 4L30 4L30 5L29 5L29 6L28 6L28 5L27 5L27 4L26 4L26 5L27 5L27 6L26 6L26 7L27 7L27 9L26 9L26 10L25 10L25 8L24 8L24 10L25 10L25 11L26 11L26 10L27 10L27 11L28 11L28 12L27 12L27 13L26 13L26 12L24 12L24 11L23 11L23 10L22 10L22 12L21 12L21 14L20 14L20 13L19 13L19 11L20 11L20 10L21 10L21 9L20 9L20 7L21 7L21 5L22 5L22 7L23 7L23 6L24 6L24 7L25 7L25 6L24 6L24 5L25 5L25 3L24 3L24 4L23 4L23 3L21 3L21 1L22 1L22 2L25 2L25 1L24 1L24 0L23 0L23 1L22 1L22 0L20 0L20 2L19 2L19 3L18 3L18 2L17 2L17 1L19 1L19 0L14 0L14 2L15 2L15 4L16 4L16 5L14 5L14 4L13 4L13 5L12 5L12 7L13 7L13 8L12 8L12 9L11 9L11 6L10 6L10 5L11 5L11 4L10 4L10 3L11 3L11 2L10 2L10 1L9 1L9 0ZM11 0L11 1L12 1L12 2L13 2L13 0ZM26 0L26 1L27 1L27 2L26 2L26 3L28 3L28 4L29 4L29 3L31 3L31 2L30 2L30 0L29 0L29 1L27 1L27 0ZM31 0L31 1L32 1L32 2L33 2L33 1L32 1L32 0ZM16 2L16 3L17 3L17 5L18 5L18 3L17 3L17 2ZM20 4L20 5L19 5L19 7L18 7L18 6L17 6L17 7L16 7L16 6L15 6L15 7L14 7L14 5L13 5L13 7L14 7L14 8L13 8L13 9L14 9L14 10L13 10L13 11L12 11L12 10L11 10L11 9L10 9L10 8L9 8L9 9L8 9L8 10L9 10L9 11L11 11L11 12L9 12L9 14L10 14L10 15L11 15L11 16L10 16L10 18L12 18L12 19L11 19L11 22L10 22L10 23L11 23L11 24L12 24L12 23L11 23L11 22L12 22L12 20L13 20L13 19L16 19L16 18L14 18L14 17L13 17L13 16L12 16L12 15L11 15L11 14L12 14L12 13L11 13L11 12L13 12L13 14L14 14L14 12L15 12L15 13L16 13L16 15L14 15L14 16L15 16L15 17L17 17L17 16L19 16L19 19L18 19L18 20L19 20L19 21L20 21L20 20L21 20L21 19L23 19L23 20L24 20L24 16L21 16L21 15L23 15L23 14L21 14L21 15L17 15L17 13L18 13L18 14L19 14L19 13L18 13L18 11L19 11L19 9L14 9L14 8L19 8L19 7L20 7L20 5L21 5L21 4ZM31 5L31 8L30 8L30 6L29 6L29 8L30 8L30 9L33 9L33 8L32 8L32 5ZM9 6L9 7L10 7L10 6ZM27 6L27 7L28 7L28 6ZM2 8L2 9L0 9L0 12L2 12L2 13L0 13L0 14L1 14L1 15L0 15L0 16L1 16L1 19L0 19L0 21L3 21L3 20L4 20L4 19L5 19L5 18L4 18L4 17L7 17L7 16L6 16L6 15L7 15L7 14L6 14L6 15L5 15L5 13L4 13L4 15L5 15L5 16L3 16L3 18L4 18L4 19L3 19L3 20L2 20L2 16L1 16L1 15L3 15L3 14L2 14L2 13L3 13L3 10L5 10L5 8ZM22 8L22 9L23 9L23 8ZM14 10L14 11L13 11L13 12L14 12L14 11L15 11L15 12L17 12L17 11L16 11L16 10ZM6 11L6 12L7 12L7 11ZM23 12L23 13L24 13L24 14L25 14L25 13L24 13L24 12ZM28 12L28 13L29 13L29 12ZM33 12L33 13L34 13L34 12ZM10 13L10 14L11 14L11 13ZM40 13L40 14L39 14L39 15L40 15L40 14L41 14L41 13ZM16 15L16 16L17 16L17 15ZM11 16L11 17L12 17L12 18L13 18L13 17L12 17L12 16ZM20 16L20 19L21 19L21 18L23 18L23 17L21 17L21 16ZM36 16L36 17L38 17L38 16ZM31 18L31 19L32 19L32 20L31 20L31 21L33 21L33 22L31 22L31 23L32 23L32 24L31 24L31 25L30 25L30 26L29 26L29 25L26 25L26 24L25 24L25 27L27 27L27 26L28 26L28 28L31 28L31 29L28 29L28 30L32 30L32 29L33 29L33 28L32 28L32 26L31 26L31 25L33 25L33 26L34 26L34 25L35 25L35 24L36 24L36 23L35 23L35 22L36 22L36 21L35 21L35 19L34 19L34 18L33 18L33 19L32 19L32 18ZM15 20L15 21L14 21L14 22L15 22L15 21L16 21L16 22L18 22L18 23L19 23L19 22L18 22L18 21L16 21L16 20ZM33 20L33 21L34 21L34 22L33 22L33 23L34 23L34 24L33 24L33 25L34 25L34 24L35 24L35 23L34 23L34 22L35 22L35 21L34 21L34 20ZM40 20L40 21L41 21L41 20ZM27 21L27 22L28 22L28 21ZM20 22L20 23L21 23L21 22ZM6 23L6 24L7 24L7 23ZM13 23L13 25L10 25L10 26L9 26L9 27L11 27L11 28L10 28L10 29L9 29L9 30L10 30L10 29L11 29L11 28L12 28L12 30L15 30L15 31L14 31L14 32L13 32L13 31L12 31L12 32L13 32L13 33L12 33L12 34L13 34L13 35L12 35L12 36L15 36L15 37L16 37L16 36L15 36L15 35L16 35L16 34L18 34L18 33L20 33L20 34L21 34L21 33L23 33L23 32L24 32L24 31L25 31L25 32L26 32L26 33L27 33L27 34L28 34L28 35L29 35L29 33L27 33L27 32L26 32L26 30L24 30L24 31L23 31L23 32L22 32L22 31L18 31L18 32L16 32L16 30L15 30L15 29L17 29L17 28L18 28L18 27L17 27L17 28L14 28L14 27L15 27L15 25L16 25L16 24L17 24L17 23L16 23L16 24L15 24L15 25L14 25L14 23ZM27 23L27 24L28 24L28 23ZM18 24L18 25L17 25L17 26L18 26L18 25L19 25L19 24ZM4 25L4 26L0 26L0 33L1 33L1 30L4 30L4 29L3 29L3 27L5 27L5 25ZM13 25L13 26L14 26L14 25ZM21 26L21 27L22 27L22 28L23 28L23 27L22 27L22 26ZM1 28L1 29L2 29L2 28ZM36 30L36 31L37 31L37 30ZM3 31L3 32L2 32L2 33L3 33L3 32L4 32L4 31ZM28 31L28 32L30 32L30 33L31 33L31 31ZM38 31L38 32L39 32L39 31ZM9 32L9 33L10 33L10 34L11 34L11 32ZM14 32L14 33L13 33L13 34L14 34L14 35L15 35L15 34L16 34L16 32ZM20 32L20 33L21 33L21 32ZM33 33L33 36L36 36L36 33ZM30 34L30 35L31 35L31 36L28 36L28 37L27 37L27 38L26 38L26 39L27 39L27 38L28 38L28 37L29 37L29 38L30 38L30 39L28 39L28 40L32 40L32 38L36 38L36 37L32 37L32 35L31 35L31 34ZM34 34L34 35L35 35L35 34ZM21 36L21 37L22 37L22 36ZM17 37L17 38L18 38L18 37ZM30 37L30 38L31 38L31 37ZM37 38L37 39L38 39L38 38ZM13 39L13 41L14 41L14 39ZM24 39L24 40L25 40L25 39ZM0 0L0 7L7 7L7 0ZM1 1L1 6L6 6L6 1ZM2 2L2 5L5 5L5 2ZM34 0L34 7L41 7L41 0ZM35 1L35 6L40 6L40 1ZM36 2L36 5L39 5L39 2ZM0 34L0 41L7 41L7 34ZM1 35L1 40L6 40L6 35ZM2 36L2 39L5 39L5 36Z" fill="#000000"/></g></g></svg>
