<?xml version="1.0" encoding="UTF-8"?>
<svg xmlns="http://www.w3.org/2000/svg" version="1.1" width="200" height="200" viewBox="0 0 200 200"><rect x="0" y="0" width="200" height="200" fill="#ffffff"/><g transform="scale(4.878)"><g transform="translate(0,0)"><path fill-rule="evenodd" d="M8 0L8 3L11 3L11 2L10 2L10 0ZM13 0L13 1L14 1L14 2L15 2L15 5L16 5L16 4L17 4L17 2L16 2L16 1L20 1L20 0L15 0L15 1L14 1L14 0ZM22 0L22 1L21 1L21 2L18 2L18 3L19 3L19 4L18 4L18 7L19 7L19 9L16 9L16 8L17 8L17 6L16 6L16 8L15 8L15 6L14 6L14 7L13 7L13 5L14 5L14 3L13 3L13 2L12 2L12 3L13 3L13 5L11 5L11 6L10 6L10 4L9 4L9 5L8 5L8 9L7 9L7 8L6 8L6 9L5 9L5 8L2 8L2 9L1 9L1 10L0 10L0 11L1 11L1 12L0 12L0 14L3 14L3 15L0 15L0 16L1 16L1 18L2 18L2 16L3 16L3 22L2 22L2 21L1 21L1 23L0 23L0 24L1 24L1 23L2 23L2 25L1 25L1 27L0 27L0 33L1 33L1 30L2 30L2 29L4 29L4 30L3 30L3 31L4 31L4 32L5 32L5 31L7 31L7 32L6 32L6 33L8 33L8 34L9 34L9 36L8 36L8 39L9 39L9 41L10 41L10 40L11 40L11 41L13 41L13 40L12 40L12 39L9 39L9 36L10 36L10 38L12 38L12 36L14 36L14 34L15 34L15 33L18 33L18 34L16 34L16 35L15 35L15 37L13 37L13 39L14 39L14 38L15 38L15 37L16 37L16 35L18 35L18 34L19 34L19 36L17 36L17 39L15 39L15 40L16 40L16 41L19 41L19 40L20 40L20 41L22 41L22 39L23 39L23 41L24 41L24 40L25 40L25 41L26 41L26 40L25 40L25 39L23 39L23 38L26 38L26 39L27 39L27 41L31 41L31 40L33 40L33 41L34 41L34 40L33 40L33 39L30 39L30 38L31 38L31 37L30 37L30 38L26 38L26 37L29 37L29 36L31 36L31 35L32 35L32 38L34 38L34 39L35 39L35 40L36 40L36 39L37 39L37 40L40 40L40 38L41 38L41 37L40 37L40 36L41 36L41 35L40 35L40 34L41 34L41 33L39 33L39 32L40 32L40 30L41 30L41 29L40 29L40 26L41 26L41 23L39 23L39 24L40 24L40 26L39 26L39 25L34 25L34 24L33 24L33 25L30 25L30 24L32 24L32 23L30 23L30 22L29 22L29 23L30 23L30 24L29 24L29 25L28 25L28 22L27 22L27 21L29 21L29 19L28 19L28 18L27 18L27 16L26 16L26 15L25 15L25 14L29 14L29 15L28 15L28 16L29 16L29 17L31 17L31 18L30 18L30 19L31 19L31 18L34 18L34 19L35 19L35 21L34 21L34 20L33 20L33 19L32 19L32 20L33 20L33 21L31 21L31 20L30 20L30 21L31 21L31 22L33 22L33 23L36 23L36 24L37 24L37 23L38 23L38 22L37 22L37 21L39 21L39 20L36 20L36 19L35 19L35 17L36 17L36 18L37 18L37 17L36 17L36 16L35 16L35 17L34 17L34 16L33 16L33 17L31 17L31 15L30 15L30 14L31 14L31 12L32 12L32 13L33 13L33 14L32 14L32 15L34 15L34 13L35 13L35 11L36 11L36 12L38 12L38 11L39 11L39 13L40 13L40 14L39 14L39 15L40 15L40 14L41 14L41 13L40 13L40 12L41 12L41 11L40 11L40 10L41 10L41 8L38 8L38 9L40 9L40 10L37 10L37 9L36 9L36 8L33 8L33 6L32 6L32 7L31 7L31 5L33 5L33 4L30 4L30 5L29 5L29 6L28 6L28 5L27 5L27 4L26 4L26 5L25 5L25 4L24 4L24 2L25 2L25 1L24 1L24 0ZM26 0L26 1L27 1L27 2L26 2L26 3L28 3L28 4L29 4L29 3L31 3L31 2L30 2L30 0L29 0L29 1L27 1L27 0ZM31 0L31 1L32 1L32 3L33 3L33 1L32 1L32 0ZM21 2L21 3L20 3L20 4L19 4L19 5L20 5L20 6L19 6L19 7L20 7L20 6L21 6L21 7L22 7L22 9L21 9L21 8L20 8L20 9L19 9L19 11L17 11L17 10L16 10L16 11L17 11L17 12L14 12L14 11L15 11L15 10L14 10L14 11L13 11L13 12L12 12L12 14L13 14L13 13L14 13L14 14L15 14L15 13L16 13L16 14L18 14L18 17L17 17L17 18L18 18L18 19L19 19L19 18L18 18L18 17L20 17L20 15L22 15L22 14L23 14L23 18L21 18L21 19L20 19L20 20L21 20L21 19L25 19L25 20L23 20L23 21L24 21L24 22L23 22L23 23L22 23L22 21L21 21L21 23L19 23L19 22L16 22L16 23L10 23L10 22L11 22L11 21L6 21L6 20L7 20L7 19L8 19L8 18L9 18L9 17L12 17L12 18L13 18L13 19L12 19L12 21L14 21L14 19L15 19L15 21L18 21L18 20L17 20L17 19L15 19L15 18L13 18L13 17L15 17L15 16L17 16L17 15L14 15L14 16L13 16L13 17L12 17L12 15L11 15L11 13L10 13L10 12L11 12L11 11L10 11L10 10L11 10L11 9L8 9L8 11L6 11L6 10L7 10L7 9L6 9L6 10L5 10L5 11L6 11L6 12L7 12L7 13L5 13L5 12L3 12L3 11L4 11L4 9L3 9L3 10L1 10L1 11L2 11L2 12L1 12L1 13L2 13L2 12L3 12L3 13L5 13L5 14L4 14L4 15L3 15L3 16L4 16L4 15L6 15L6 16L5 16L5 17L6 17L6 18L7 18L7 19L5 19L5 18L4 18L4 21L6 21L6 22L9 22L9 23L8 23L8 24L7 24L7 23L5 23L5 22L4 22L4 23L3 23L3 24L7 24L7 25L6 25L6 26L5 26L5 25L2 25L2 27L1 27L1 29L2 29L2 28L4 28L4 29L5 29L5 30L4 30L4 31L5 31L5 30L7 30L7 29L9 29L9 31L8 31L8 33L9 33L9 34L10 34L10 36L11 36L11 34L12 34L12 35L13 35L13 33L14 33L14 32L16 32L16 31L18 31L18 30L19 30L19 32L20 32L20 33L22 33L22 32L21 32L21 30L20 30L20 29L21 29L21 28L22 28L22 31L23 31L23 30L25 30L25 28L27 28L27 27L25 27L25 26L26 26L26 24L27 24L27 23L26 23L26 19L27 19L27 18L26 18L26 17L25 17L25 18L24 18L24 16L25 16L25 15L24 15L24 14L23 14L23 13L22 13L22 12L24 12L24 13L27 13L27 12L28 12L28 13L29 13L29 14L30 14L30 13L29 13L29 12L30 12L30 11L32 11L32 12L33 12L33 13L34 13L34 12L33 12L33 11L34 11L34 9L32 9L32 8L31 8L31 7L30 7L30 6L29 6L29 8L30 8L30 9L26 9L26 10L29 10L29 11L27 11L27 12L26 12L26 11L25 11L25 12L24 12L24 11L23 11L23 10L25 10L25 8L28 8L28 6L27 6L27 7L26 7L26 6L25 6L25 5L23 5L23 4L22 4L22 2ZM21 4L21 6L22 6L22 7L23 7L23 8L24 8L24 7L25 7L25 6L24 6L24 7L23 7L23 5L22 5L22 4ZM9 6L9 8L11 8L11 7L12 7L12 8L13 8L13 9L15 9L15 8L13 8L13 7L12 7L12 6L11 6L11 7L10 7L10 6ZM20 9L20 11L21 11L21 12L22 12L22 11L21 11L21 9ZM22 9L22 10L23 10L23 9ZM30 9L30 10L32 10L32 11L33 11L33 10L32 10L32 9ZM35 9L35 10L36 10L36 9ZM9 11L9 12L10 12L10 11ZM8 13L8 14L10 14L10 13ZM18 13L18 14L20 14L20 13ZM36 13L36 14L35 14L35 15L37 15L37 16L38 16L38 17L39 17L39 18L38 18L38 19L39 19L39 18L41 18L41 16L40 16L40 17L39 17L39 16L38 16L38 13ZM6 14L6 15L7 15L7 16L6 16L6 17L7 17L7 18L8 18L8 17L9 17L9 16L11 16L11 15L7 15L7 14ZM29 15L29 16L30 16L30 15ZM7 16L7 17L8 17L8 16ZM10 18L10 20L11 20L11 18ZM1 19L1 20L2 20L2 19ZM40 20L40 21L41 21L41 20ZM33 21L33 22L34 22L34 21ZM35 21L35 22L36 22L36 21ZM24 22L24 26L23 26L23 27L22 27L22 28L23 28L23 29L24 29L24 28L23 28L23 27L24 27L24 26L25 26L25 22ZM16 23L16 25L15 25L15 24L10 24L10 26L13 26L13 25L14 25L14 28L15 28L15 27L16 27L16 29L17 29L17 30L18 30L18 29L20 29L20 28L19 28L19 27L21 27L21 25L23 25L23 24L20 24L20 26L18 26L18 29L17 29L17 27L16 27L16 25L19 25L19 23ZM8 24L8 26L6 26L6 27L5 27L5 26L3 26L3 27L4 27L4 28L6 28L6 29L7 29L7 28L6 28L6 27L8 27L8 28L9 28L9 29L10 29L10 31L11 31L11 30L12 30L12 31L14 31L14 29L13 29L13 30L12 30L12 29L11 29L11 27L8 27L8 26L9 26L9 24ZM27 25L27 26L28 26L28 28L30 28L30 29L28 29L28 30L29 30L29 31L28 31L28 32L30 32L30 31L31 31L31 30L32 30L32 31L33 31L33 32L36 32L36 31L37 31L37 32L39 32L39 31L38 31L38 30L39 30L39 26L38 26L38 28L37 28L37 27L35 27L35 26L34 26L34 25L33 25L33 26L28 26L28 25ZM33 26L33 27L32 27L32 28L33 28L33 29L32 29L32 30L33 30L33 29L34 29L34 28L33 28L33 27L34 27L34 26ZM12 27L12 28L13 28L13 27ZM35 28L35 29L36 29L36 30L34 30L34 31L36 31L36 30L38 30L38 29L36 29L36 28ZM30 29L30 30L31 30L31 29ZM15 30L15 31L16 31L16 30ZM25 31L25 32L27 32L27 31ZM2 32L2 33L3 33L3 32ZM9 32L9 33L10 33L10 32ZM25 33L25 34L24 34L24 35L23 35L23 34L21 34L21 37L20 37L20 36L19 36L19 37L18 37L18 38L20 38L20 39L21 39L21 38L23 38L23 37L24 37L24 36L25 36L25 35L26 35L26 33ZM27 33L27 34L29 34L29 33ZM30 33L30 35L31 35L31 33ZM33 33L33 36L36 36L36 33ZM37 33L37 36L40 36L40 35L39 35L39 34L38 34L38 33ZM34 34L34 35L35 35L35 34ZM22 35L22 37L23 37L23 35ZM27 35L27 36L28 36L28 35ZM34 37L34 38L36 38L36 37ZM37 38L37 39L38 39L38 38ZM28 39L28 40L30 40L30 39ZM0 0L0 7L7 7L7 0ZM1 1L1 6L6 6L6 1ZM2 2L2 5L5 5L5 2ZM34 0L34 7L41 7L41 0ZM35 1L35 6L40 6L40 1ZM36 2L36 5L39 5L39 2ZM0 34L0 41L7 41L7 34ZM1 35L1 40L6 40L6 35ZM2 36L2 39L5 39L5 36Z" fill="#000000"/></g></g></svg>
