<?xml version="1.0" encoding="UTF-8"?>
<svg xmlns="http://www.w3.org/2000/svg" version="1.1" width="200" height="200" viewBox="0 0 200 200"><rect x="0" y="0" width="200" height="200" fill="#ffffff"/><g transform="scale(4.878)"><g transform="translate(0,0)"><path fill-rule="evenodd" d="M8 0L8 3L9 3L9 5L8 5L8 9L9 9L9 8L10 8L10 7L11 7L11 6L12 6L12 8L13 8L13 9L15 9L15 10L16 10L16 9L15 9L15 8L14 8L14 7L15 7L15 6L16 6L16 7L17 7L17 10L20 10L20 9L21 9L21 11L18 11L18 13L14 13L14 12L15 12L15 11L14 11L14 10L13 10L13 11L10 11L10 12L9 12L9 10L6 10L6 9L7 9L7 8L6 8L6 9L5 9L5 8L2 8L2 9L1 9L1 10L0 10L0 15L1 15L1 16L0 16L0 17L1 17L1 18L2 18L2 19L0 19L0 21L1 21L1 20L2 20L2 23L4 23L4 22L5 22L5 19L4 19L4 21L3 21L3 20L2 20L2 19L3 19L3 15L9 15L9 16L8 16L8 17L9 17L9 18L10 18L10 17L9 17L9 16L13 16L13 15L14 15L14 14L16 14L16 15L17 15L17 14L19 14L19 13L21 13L21 16L19 16L19 15L18 15L18 17L19 17L19 19L18 19L18 20L19 20L19 21L18 21L18 22L19 22L19 21L23 21L23 22L24 22L24 21L26 21L26 19L28 19L28 20L27 20L27 21L29 21L29 19L28 19L28 18L26 18L26 17L27 17L27 14L29 14L29 13L30 13L30 16L29 16L29 15L28 15L28 16L29 16L29 17L31 17L31 18L30 18L30 19L31 19L31 20L30 20L30 21L31 21L31 22L32 22L32 21L34 21L34 22L35 22L35 23L32 23L32 25L30 25L30 24L31 24L31 23L30 23L30 24L29 24L29 22L27 22L27 23L26 23L26 22L25 22L25 26L26 26L26 27L24 27L24 25L23 25L23 24L21 24L21 23L22 23L22 22L21 22L21 23L20 23L20 24L19 24L19 23L18 23L18 25L19 25L19 26L20 26L20 24L21 24L21 27L24 27L24 28L22 28L22 29L24 29L24 30L26 30L26 31L27 31L27 32L25 32L25 34L26 34L26 33L28 33L28 34L27 34L27 35L25 35L25 37L22 37L22 36L21 36L21 37L22 37L22 39L21 39L21 38L20 38L20 37L19 37L19 38L16 38L16 39L14 39L14 40L13 40L13 39L12 39L12 38L13 38L13 37L14 37L14 36L15 36L15 37L16 37L16 36L15 36L15 35L16 35L16 34L17 34L17 37L18 37L18 35L21 35L21 34L19 34L19 33L18 33L18 34L17 34L17 33L15 33L15 32L16 32L16 31L15 31L15 32L14 32L14 30L19 30L19 29L20 29L20 31L19 31L19 32L20 32L20 33L21 33L21 29L20 29L20 28L16 28L16 29L15 29L15 27L18 27L18 26L16 26L16 25L17 25L17 24L16 24L16 23L15 23L15 24L14 24L14 25L13 25L13 27L12 27L12 24L13 24L13 22L12 22L12 21L13 21L13 19L14 19L14 20L15 20L15 21L14 21L14 22L15 22L15 21L16 21L16 20L15 20L15 19L17 19L17 17L16 17L16 18L15 18L15 19L14 19L14 18L13 18L13 19L12 19L12 18L11 18L11 19L12 19L12 21L10 21L10 23L11 23L11 24L9 24L9 21L8 21L8 20L10 20L10 19L8 19L8 18L6 18L6 17L7 17L7 16L6 16L6 17L5 17L5 18L6 18L6 19L8 19L8 20L6 20L6 21L8 21L8 24L6 24L6 23L7 23L7 22L6 22L6 23L5 23L5 24L4 24L4 26L3 26L3 24L1 24L1 23L0 23L0 25L1 25L1 26L0 26L0 27L1 27L1 28L0 28L0 33L1 33L1 29L3 29L3 30L4 30L4 31L3 31L3 32L2 32L2 33L3 33L3 32L4 32L4 31L5 31L5 33L7 33L7 32L6 32L6 31L7 31L7 30L6 30L6 29L9 29L9 28L11 28L11 29L12 29L12 28L13 28L13 31L11 31L11 32L10 32L10 31L9 31L9 32L10 32L10 33L8 33L8 34L9 34L9 35L10 35L10 36L11 36L11 37L10 37L10 38L9 38L9 36L8 36L8 39L10 39L10 41L12 41L12 40L13 40L13 41L14 41L14 40L16 40L16 41L17 41L17 39L18 39L18 41L22 41L22 40L23 40L23 41L26 41L26 40L23 40L23 39L25 39L25 38L27 38L27 40L28 40L28 41L32 41L32 40L33 40L33 41L34 41L34 40L33 40L33 39L32 39L32 40L31 40L31 38L32 38L32 37L33 37L33 38L34 38L34 39L35 39L35 40L36 40L36 39L37 39L37 40L40 40L40 38L41 38L41 37L39 37L39 36L37 36L37 35L40 35L40 34L41 34L41 33L39 33L39 32L40 32L40 30L41 30L41 29L40 29L40 26L41 26L41 23L39 23L39 22L37 22L37 21L39 21L39 20L36 20L36 19L35 19L35 17L36 17L36 18L37 18L37 19L39 19L39 18L41 18L41 16L40 16L40 17L39 17L39 16L37 16L37 15L36 15L36 14L38 14L38 13L36 13L36 14L35 14L35 15L36 15L36 16L35 16L35 17L34 17L34 16L33 16L33 17L31 17L31 12L29 12L29 11L31 11L31 10L32 10L32 13L33 13L33 14L32 14L32 15L34 15L34 13L35 13L35 11L36 11L36 12L38 12L38 11L39 11L39 14L41 14L41 13L40 13L40 12L41 12L41 11L40 11L40 10L41 10L41 8L38 8L38 9L40 9L40 10L37 10L37 9L36 9L36 8L33 8L33 6L32 6L32 7L31 7L31 5L33 5L33 4L30 4L30 7L31 7L31 8L29 8L29 9L28 9L28 7L29 7L29 6L28 6L28 5L27 5L27 4L26 4L26 5L25 5L25 4L24 4L24 3L25 3L25 1L24 1L24 3L23 3L23 4L24 4L24 5L23 5L23 6L22 6L22 5L21 5L21 4L20 4L20 2L21 2L21 3L22 3L22 2L23 2L23 0L21 0L21 1L20 1L20 0L18 0L18 1L19 1L19 4L17 4L17 5L16 5L16 4L15 4L15 3L17 3L17 1L16 1L16 0L14 0L14 1L16 1L16 2L14 2L14 3L12 3L12 2L13 2L13 0L12 0L12 1L11 1L11 0L10 0L10 1L9 1L9 0ZM26 0L26 1L27 1L27 2L26 2L26 3L28 3L28 4L29 4L29 3L31 3L31 2L30 2L30 0L29 0L29 1L27 1L27 0ZM31 0L31 1L32 1L32 3L33 3L33 1L32 1L32 0ZM9 2L9 3L11 3L11 2ZM11 4L11 5L12 5L12 6L13 6L13 7L14 7L14 6L13 6L13 5L14 5L14 4ZM9 5L9 7L10 7L10 5ZM17 5L17 7L18 7L18 8L20 8L20 6L21 6L21 7L22 7L22 6L21 6L21 5L20 5L20 6L19 6L19 5ZM24 5L24 6L23 6L23 8L22 8L22 9L23 9L23 10L24 10L24 12L23 12L23 11L22 11L22 12L23 12L23 13L25 13L25 15L24 15L24 14L22 14L22 15L24 15L24 17L22 17L22 16L21 16L21 17L22 17L22 20L23 20L23 18L24 18L24 19L26 19L26 18L25 18L25 17L26 17L26 14L27 14L27 13L26 13L26 12L28 12L28 13L29 13L29 12L28 12L28 11L27 11L27 10L28 10L28 9L27 9L27 7L28 7L28 6L27 6L27 5L26 5L26 6L25 6L25 5ZM18 6L18 7L19 7L19 6ZM24 6L24 7L25 7L25 8L24 8L24 10L25 10L25 9L26 9L26 10L27 10L27 9L26 9L26 7L27 7L27 6L26 6L26 7L25 7L25 6ZM31 8L31 9L29 9L29 10L31 10L31 9L33 9L33 8ZM4 9L4 11L3 11L3 10L1 10L1 11L2 11L2 12L1 12L1 13L4 13L4 14L8 14L8 13L9 13L9 12L7 12L7 11L6 11L6 10L5 10L5 9ZM10 9L10 10L11 10L11 9ZM33 10L33 11L34 11L34 10ZM36 10L36 11L37 11L37 10ZM5 11L5 13L7 13L7 12L6 12L6 11ZM16 11L16 12L17 12L17 11ZM25 11L25 12L26 12L26 11ZM10 12L10 14L9 14L9 15L10 15L10 14L12 14L12 12ZM33 12L33 13L34 13L34 12ZM13 13L13 14L14 14L14 13ZM2 14L2 15L3 15L3 14ZM36 16L36 17L37 17L37 18L39 18L39 17L37 17L37 16ZM31 18L31 19L32 19L32 20L31 20L31 21L32 21L32 20L34 20L34 21L35 21L35 22L36 22L36 21L35 21L35 19L34 19L34 18L33 18L33 19L32 19L32 18ZM19 19L19 20L21 20L21 19ZM40 20L40 21L41 21L41 20ZM35 23L35 24L34 24L34 25L32 25L32 26L29 26L29 25L27 25L27 24L26 24L26 25L27 25L27 26L29 26L29 28L31 28L31 29L28 29L28 30L30 30L30 31L28 31L28 33L29 33L29 32L31 32L31 30L32 30L32 31L33 31L33 32L35 32L35 31L34 31L34 30L35 30L35 29L37 29L37 30L36 30L36 31L37 31L37 32L39 32L39 26L40 26L40 24L39 24L39 23L37 23L37 24L36 24L36 23ZM5 24L5 25L6 25L6 26L4 26L4 28L3 28L3 29L4 29L4 30L5 30L5 29L6 29L6 28L9 28L9 27L6 27L6 26L8 26L8 25L6 25L6 24ZM15 24L15 25L16 25L16 24ZM35 24L35 25L34 25L34 26L32 26L32 28L33 28L33 29L32 29L32 30L33 30L33 29L34 29L34 28L33 28L33 27L34 27L34 26L35 26L35 25L36 25L36 26L37 26L37 27L36 27L36 28L38 28L38 26L39 26L39 25L36 25L36 24ZM2 26L2 27L3 27L3 26ZM14 26L14 27L15 27L15 26ZM26 27L26 29L27 29L27 28L28 28L28 27ZM24 28L24 29L25 29L25 28ZM22 30L22 31L23 31L23 33L22 33L22 34L23 34L23 35L24 35L24 31L23 31L23 30ZM13 32L13 33L12 33L12 34L10 34L10 35L12 35L12 34L13 34L13 35L14 35L14 34L13 34L13 33L14 33L14 32ZM30 33L30 35L31 35L31 34L32 34L32 33ZM33 33L33 36L36 36L36 33ZM37 33L37 34L39 34L39 33ZM28 34L28 36L27 36L27 38L28 38L28 37L29 37L29 38L30 38L30 37L32 37L32 36L29 36L29 34ZM34 34L34 35L35 35L35 34ZM12 36L12 37L11 37L11 38L10 38L10 39L11 39L11 40L12 40L12 39L11 39L11 38L12 38L12 37L13 37L13 36ZM34 37L34 38L36 38L36 37ZM19 38L19 40L20 40L20 38ZM37 38L37 39L38 39L38 38ZM28 39L28 40L30 40L30 39ZM0 0L0 7L7 7L7 0ZM1 1L1 6L6 6L6 1ZM2 2L2 5L5 5L5 2ZM34 0L34 7L41 7L41 0ZM35 1L35 6L40 6L40 1ZM36 2L36 5L39 5L39 2ZM0 34L0 41L7 41L7 34ZM1 35L1 40L6 40L6 35ZM2 36L2 39L5 39L5 36Z" fill="#000000"/></g></g></svg>
