<?xml version="1.0" encoding="UTF-8"?>
<svg xmlns="http://www.w3.org/2000/svg" version="1.1" width="200" height="200" viewBox="0 0 200 200"><rect x="0" y="0" width="200" height="200" fill="#ffffff"/><g transform="scale(6.897)"><g transform="translate(0,0)"><path fill-rule="evenodd" d="M8 0L8 1L9 1L9 3L8 3L8 4L11 4L11 5L9 5L9 6L8 6L8 7L9 7L9 6L10 6L10 7L11 7L11 8L12 8L12 9L9 9L9 8L8 8L8 9L7 9L7 8L4 8L4 9L3 9L3 8L2 8L2 9L3 9L3 11L2 11L2 10L0 10L0 11L1 11L1 12L2 12L2 13L1 13L1 14L0 14L0 15L3 15L3 14L2 14L2 13L3 13L3 11L5 11L5 10L6 10L6 11L7 11L7 10L8 10L8 11L9 11L9 10L11 10L11 11L13 11L13 12L12 12L12 14L14 14L14 13L15 13L15 14L17 14L17 15L15 15L15 16L14 16L14 15L12 15L12 16L11 16L11 15L10 15L10 14L11 14L11 13L10 13L10 12L9 12L9 16L6 16L6 17L5 17L5 15L8 15L8 14L6 14L6 13L7 13L7 12L4 12L4 17L3 17L3 19L1 19L1 18L2 18L2 16L0 16L0 17L1 17L1 18L0 18L0 19L1 19L1 20L0 20L0 21L1 21L1 20L3 20L3 19L5 19L5 20L4 20L4 21L7 21L7 20L8 20L8 22L9 22L9 21L10 21L10 20L8 20L8 19L7 19L7 18L9 18L9 19L11 19L11 20L13 20L13 21L12 21L12 22L10 22L10 23L11 23L11 24L10 24L10 25L9 25L9 23L8 23L8 25L9 25L9 26L8 26L8 27L9 27L9 28L10 28L10 29L12 29L12 28L11 28L11 26L12 26L12 27L13 27L13 29L14 29L14 27L13 27L13 26L16 26L16 27L17 27L17 29L20 29L20 27L21 27L21 26L22 26L22 25L23 25L23 26L24 26L24 25L27 25L27 26L28 26L28 27L27 27L27 28L23 28L23 27L22 27L22 28L23 28L23 29L27 29L27 28L28 28L28 29L29 29L29 26L28 26L28 25L29 25L29 24L28 24L28 23L27 23L27 24L26 24L26 23L25 23L25 20L24 20L24 19L27 19L27 20L26 20L26 21L28 21L28 22L29 22L29 21L28 21L28 19L29 19L29 18L27 18L27 17L26 17L26 14L24 14L24 13L25 13L25 11L26 11L26 13L27 13L27 16L28 16L28 17L29 17L29 16L28 16L28 15L29 15L29 12L28 12L28 11L29 11L29 8L28 8L28 9L27 9L27 10L28 10L28 11L26 11L26 8L25 8L25 9L24 9L24 10L25 10L25 11L24 11L24 12L23 12L23 10L22 10L22 8L19 8L19 11L20 11L20 12L18 12L18 10L17 10L17 9L16 9L16 7L17 7L17 5L18 5L18 7L19 7L19 5L20 5L20 7L21 7L21 0L20 0L20 1L19 1L19 2L20 2L20 3L19 3L19 5L18 5L18 3L17 3L17 2L18 2L18 1L15 1L15 2L14 2L14 0L13 0L13 2L14 2L14 4L13 4L13 3L12 3L12 0L11 0L11 2L10 2L10 1L9 1L9 0ZM15 2L15 3L16 3L16 2ZM15 4L15 7L16 7L16 5L17 5L17 4ZM11 5L11 7L12 7L12 8L14 8L14 9L15 9L15 10L16 10L16 9L15 9L15 8L14 8L14 5ZM12 6L12 7L13 7L13 6ZM4 9L4 10L5 10L5 9ZM6 9L6 10L7 10L7 9ZM8 9L8 10L9 10L9 9ZM13 10L13 11L14 11L14 10ZM15 11L15 13L16 13L16 12L17 12L17 11ZM21 11L21 12L22 12L22 11ZM27 12L27 13L28 13L28 12ZM18 13L18 15L20 15L20 16L18 16L18 19L20 19L20 20L18 20L18 24L17 24L17 25L16 25L16 24L15 24L15 25L16 25L16 26L18 26L18 28L19 28L19 26L20 26L20 24L19 24L19 23L20 23L20 22L19 22L19 21L20 21L20 20L21 20L21 19L22 19L22 18L23 18L23 19L24 19L24 18L26 18L26 17L24 17L24 16L25 16L25 15L24 15L24 14L23 14L23 15L22 15L22 14L21 14L21 13L20 13L20 14L19 14L19 13ZM20 14L20 15L21 15L21 14ZM23 15L23 16L22 16L22 17L23 17L23 18L24 18L24 17L23 17L23 16L24 16L24 15ZM9 16L9 17L11 17L11 19L14 19L14 20L15 20L15 22L16 22L16 23L17 23L17 22L16 22L16 21L17 21L17 16L16 16L16 20L15 20L15 18L13 18L13 17L11 17L11 16ZM6 17L6 18L5 18L5 19L6 19L6 20L7 20L7 19L6 19L6 18L7 18L7 17ZM19 17L19 18L20 18L20 17ZM13 21L13 22L12 22L12 23L13 23L13 24L12 24L12 26L13 26L13 25L14 25L14 21ZM21 21L21 24L24 24L24 21ZM22 22L22 23L23 23L23 22ZM18 24L18 26L19 26L19 24ZM27 24L27 25L28 25L28 24ZM25 26L25 27L26 27L26 26ZM15 28L15 29L16 29L16 28ZM0 0L0 7L7 7L7 0ZM1 1L1 6L6 6L6 1ZM2 2L2 5L5 5L5 2ZM22 0L22 7L29 7L29 0ZM23 1L23 6L28 6L28 1ZM24 2L24 5L27 5L27 2ZM0 22L0 29L7 29L7 22ZM1 23L1 28L6 28L6 23ZM2 24L2 27L5 27L5 24Z" fill="#000000"/></g></g></svg>
