<?xml version="1.0" encoding="UTF-8"?>
<svg xmlns="http://www.w3.org/2000/svg" version="1.1" width="200" height="200" viewBox="0 0 200 200"><rect x="0" y="0" width="200" height="200" fill="#ffffff"/><g transform="scale(4.878)"><g transform="translate(0,0)"><path fill-rule="evenodd" d="M8 0L8 3L9 3L9 4L10 4L10 5L11 5L11 6L10 6L10 7L11 7L11 9L10 9L10 10L8 10L8 11L10 11L10 12L9 12L9 13L7 13L7 12L6 12L6 11L7 11L7 10L6 10L6 9L7 9L7 8L6 8L6 9L5 9L5 8L2 8L2 9L0 9L0 11L3 11L3 10L4 10L4 11L5 11L5 12L3 12L3 13L2 13L2 12L1 12L1 13L0 13L0 17L1 17L1 18L0 18L0 20L3 20L3 21L4 21L4 23L5 23L5 24L4 24L4 25L3 25L3 26L2 26L2 25L1 25L1 24L3 24L3 23L2 23L2 21L0 21L0 23L1 23L1 24L0 24L0 25L1 25L1 26L2 26L2 27L3 27L3 28L1 28L1 29L0 29L0 33L1 33L1 30L2 30L2 33L4 33L4 31L3 31L3 28L4 28L4 30L5 30L5 31L8 31L8 32L6 32L6 33L8 33L8 34L9 34L9 36L8 36L8 39L10 39L10 38L12 38L12 36L11 36L11 34L13 34L13 33L11 33L11 32L14 32L14 35L16 35L16 36L17 36L17 35L16 35L16 33L17 33L17 34L19 34L19 36L18 36L18 37L15 37L15 36L13 36L13 39L12 39L12 40L9 40L9 41L12 41L12 40L14 40L14 41L17 41L17 40L18 40L18 41L19 41L19 39L20 39L20 38L19 38L19 36L20 36L20 34L23 34L23 35L22 35L22 36L21 36L21 38L23 38L23 37L24 37L24 36L25 36L25 38L24 38L24 40L23 40L23 41L25 41L25 40L27 40L27 41L28 41L28 40L27 40L27 39L28 39L28 38L27 38L27 39L26 39L26 37L27 37L27 36L28 36L28 37L29 37L29 36L28 36L28 34L27 34L27 32L26 32L26 31L27 31L27 30L29 30L29 31L28 31L28 33L31 33L31 29L30 29L30 28L29 28L29 29L28 29L28 28L26 28L26 27L28 27L28 26L32 26L32 27L31 27L31 28L32 28L32 29L33 29L33 30L32 30L32 31L33 31L33 30L34 30L34 31L36 31L36 32L32 32L32 34L30 34L30 35L31 35L31 36L30 36L30 37L31 37L31 36L32 36L32 37L36 37L36 38L33 38L33 39L30 39L30 38L29 38L29 39L30 39L30 40L29 40L29 41L30 41L30 40L33 40L33 41L34 41L34 40L33 40L33 39L35 39L35 40L36 40L36 39L38 39L38 38L39 38L39 40L40 40L40 38L41 38L41 37L39 37L39 36L37 36L37 34L38 34L38 33L39 33L39 35L40 35L40 34L41 34L41 32L38 32L38 31L36 31L36 30L37 30L37 29L35 29L35 28L38 28L38 26L39 26L39 27L40 27L40 28L39 28L39 31L40 31L40 30L41 30L41 29L40 29L40 28L41 28L41 27L40 27L40 26L41 26L41 23L40 23L40 26L39 26L39 24L37 24L37 25L36 25L36 23L35 23L35 25L34 25L34 24L33 24L33 23L34 23L34 22L36 22L36 21L39 21L39 20L36 20L36 19L35 19L35 17L36 17L36 18L37 18L37 19L38 19L38 18L39 18L39 19L40 19L40 18L41 18L41 16L40 16L40 18L39 18L39 16L37 16L37 15L40 15L40 14L41 14L41 13L40 13L40 12L41 12L41 11L40 11L40 10L41 10L41 8L38 8L38 9L40 9L40 10L37 10L37 9L36 9L36 8L33 8L33 9L30 9L30 8L31 8L31 5L33 5L33 4L32 4L32 3L30 3L30 4L31 4L31 5L29 5L29 6L28 6L28 5L26 5L26 4L27 4L27 3L28 3L28 4L29 4L29 1L27 1L27 0L25 0L25 1L24 1L24 0L23 0L23 1L21 1L21 0L17 0L17 2L18 2L18 4L19 4L19 1L20 1L20 3L21 3L21 2L22 2L22 3L23 3L23 1L24 1L24 2L25 2L25 3L24 3L24 5L26 5L26 8L27 8L27 9L28 9L28 10L27 10L27 11L26 11L26 9L24 9L24 7L25 7L25 6L24 6L24 7L23 7L23 6L22 6L22 7L23 7L23 8L22 8L22 9L23 9L23 10L21 10L21 9L20 9L20 8L21 8L21 5L20 5L20 8L19 8L19 6L18 6L18 7L17 7L17 5L15 5L15 3L16 3L16 4L17 4L17 3L16 3L16 2L15 2L15 1L14 1L14 0L13 0L13 1L14 1L14 2L12 2L12 1L10 1L10 0ZM31 0L31 1L30 1L30 2L31 2L31 1L32 1L32 2L33 2L33 1L32 1L32 0ZM9 2L9 3L10 3L10 4L11 4L11 3L12 3L12 4L14 4L14 3L15 3L15 2L14 2L14 3L12 3L12 2L11 2L11 3L10 3L10 2ZM26 2L26 3L25 3L25 4L26 4L26 3L27 3L27 2ZM8 5L8 9L9 9L9 5ZM12 5L12 6L11 6L11 7L12 7L12 6L13 6L13 7L14 7L14 8L15 8L15 9L16 9L16 6L15 6L15 5ZM14 6L14 7L15 7L15 6ZM27 6L27 7L28 7L28 6ZM29 6L29 8L28 8L28 9L29 9L29 11L28 11L28 12L31 12L31 14L30 14L30 13L28 13L28 14L30 14L30 15L28 15L28 17L27 17L27 15L26 15L26 13L25 13L25 14L23 14L23 13L24 13L24 12L25 12L25 11L24 11L24 12L23 12L23 11L22 11L22 14L23 14L23 15L22 15L22 16L21 16L21 18L22 18L22 16L23 16L23 17L25 17L25 16L26 16L26 17L27 17L27 18L29 18L29 16L31 16L31 14L32 14L32 15L33 15L33 16L34 16L34 17L35 17L35 15L36 15L36 13L37 13L37 14L40 14L40 13L39 13L39 11L38 11L38 12L35 12L35 11L36 11L36 10L34 10L34 11L32 11L32 10L30 10L30 9L29 9L29 8L30 8L30 6ZM32 6L32 7L33 7L33 6ZM17 8L17 9L18 9L18 10L20 10L20 11L21 11L21 10L20 10L20 9L18 9L18 8ZM4 9L4 10L5 10L5 11L6 11L6 10L5 10L5 9ZM13 9L13 10L12 10L12 11L13 11L13 10L14 10L14 11L15 11L15 12L10 12L10 13L12 13L12 14L13 14L13 16L12 16L12 18L11 18L11 16L10 16L10 14L7 14L7 13L3 13L3 15L2 15L2 13L1 13L1 15L2 15L2 16L5 16L5 15L6 15L6 16L7 16L7 17L5 17L5 18L7 18L7 17L8 17L8 16L7 16L7 15L9 15L9 16L10 16L10 17L9 17L9 18L10 18L10 19L9 19L9 20L8 20L8 19L4 19L4 18L3 18L3 17L2 17L2 19L3 19L3 20L4 20L4 21L5 21L5 20L8 20L8 22L10 22L10 25L9 25L9 23L8 23L8 25L6 25L6 24L7 24L7 23L6 23L6 24L5 24L5 25L6 25L6 26L7 26L7 27L5 27L5 26L4 26L4 27L5 27L5 28L7 28L7 29L6 29L6 30L8 30L8 31L9 31L9 32L10 32L10 31L11 31L11 30L13 30L13 29L14 29L14 30L15 30L15 33L16 33L16 29L18 29L18 27L19 27L19 26L21 26L21 25L23 25L23 24L24 24L24 26L25 26L25 24L26 24L26 23L24 23L24 22L26 22L26 21L27 21L27 22L30 22L30 21L32 21L32 22L31 22L31 23L32 23L32 22L34 22L34 21L36 21L36 20L35 20L35 19L34 19L34 18L33 18L33 17L32 17L32 18L31 18L31 17L30 17L30 19L31 19L31 20L29 20L29 19L27 19L27 20L26 20L26 21L25 21L25 19L26 19L26 18L24 18L24 21L23 21L23 23L22 23L22 24L21 24L21 25L20 25L20 24L19 24L19 22L17 22L17 21L16 21L16 18L17 18L17 17L18 17L18 20L19 20L19 21L20 21L20 22L21 22L21 21L22 21L22 19L21 19L21 20L19 20L19 18L20 18L20 17L19 17L19 14L21 14L21 12L20 12L20 13L19 13L19 12L17 12L17 13L19 13L19 14L18 14L18 16L17 16L17 17L16 17L16 16L15 16L15 17L14 17L14 14L15 14L15 12L16 12L16 11L15 11L15 10L14 10L14 9ZM33 12L33 13L32 13L32 14L33 14L33 15L34 15L34 14L33 14L33 13L34 13L34 12ZM4 14L4 15L5 15L5 14ZM6 14L6 15L7 15L7 14ZM24 15L24 16L25 16L25 15ZM36 16L36 17L37 17L37 18L38 18L38 17L37 17L37 16ZM13 17L13 18L12 18L12 19L10 19L10 21L11 21L11 20L12 20L12 22L13 22L13 21L14 21L14 23L16 23L16 25L15 25L15 26L16 26L16 27L14 27L14 28L16 28L16 27L17 27L17 26L16 26L16 25L17 25L17 23L16 23L16 22L15 22L15 20L13 20L13 19L15 19L15 18L16 18L16 17L15 17L15 18L14 18L14 17ZM32 18L32 19L33 19L33 18ZM27 20L27 21L29 21L29 20ZM32 20L32 21L34 21L34 20ZM40 20L40 21L41 21L41 20ZM6 21L6 22L7 22L7 21ZM38 22L38 23L39 23L39 22ZM27 23L27 24L28 24L28 25L26 25L26 26L28 26L28 25L29 25L29 24L30 24L30 25L32 25L32 26L33 26L33 27L32 27L32 28L33 28L33 29L34 29L34 30L35 30L35 29L34 29L34 28L33 28L33 27L34 27L34 25L32 25L32 24L30 24L30 23L29 23L29 24L28 24L28 23ZM11 24L11 27L9 27L9 25L8 25L8 27L7 27L7 28L11 28L11 29L9 29L9 30L11 30L11 29L13 29L13 28L12 28L12 24ZM13 24L13 26L14 26L14 24ZM18 25L18 26L19 26L19 25ZM35 25L35 27L37 27L37 26L36 26L36 25ZM22 26L22 27L20 27L20 28L21 28L21 30L17 30L17 31L20 31L20 33L19 33L19 34L20 34L20 33L21 33L21 31L22 31L22 33L24 33L24 35L23 35L23 36L24 36L24 35L25 35L25 36L26 36L26 33L25 33L25 31L24 31L24 30L25 30L25 27L24 27L24 28L23 28L23 26ZM22 28L22 31L23 31L23 30L24 30L24 29L23 29L23 28ZM29 29L29 30L30 30L30 29ZM29 31L29 32L30 32L30 31ZM37 32L37 33L38 33L38 32ZM33 33L33 36L36 36L36 33ZM34 34L34 35L35 35L35 34ZM9 36L9 37L11 37L11 36ZM14 37L14 40L15 40L15 37ZM37 37L37 38L38 38L38 37ZM16 38L16 40L17 40L17 39L18 39L18 38ZM21 39L21 40L22 40L22 39ZM0 0L0 7L7 7L7 0ZM1 1L1 6L6 6L6 1ZM2 2L2 5L5 5L5 2ZM34 0L34 7L41 7L41 0ZM35 1L35 6L40 6L40 1ZM36 2L36 5L39 5L39 2ZM0 34L0 41L7 41L7 34ZM1 35L1 40L6 40L6 35ZM2 36L2 39L5 39L5 36Z" fill="#000000"/></g></g></svg>
