<?xml version="1.0" encoding="UTF-8"?>
<svg xmlns="http://www.w3.org/2000/svg" version="1.1" width="200" height="200" viewBox="0 0 200 200"><rect x="0" y="0" width="200" height="200" fill="#ffffff"/><g transform="scale(4.878)"><g transform="translate(0,0)"><path fill-rule="evenodd" d="M8 0L8 3L9 3L9 4L10 4L10 5L8 5L8 9L9 9L9 11L11 11L11 10L14 10L14 11L12 11L12 12L13 12L13 13L14 13L14 14L12 14L12 15L14 15L14 14L15 14L15 15L16 15L16 18L14 18L14 20L13 20L13 18L12 18L12 17L13 17L13 16L11 16L11 15L10 15L10 12L9 12L9 14L8 14L8 10L5 10L5 8L2 8L2 12L0 12L0 14L1 14L1 15L2 15L2 16L3 16L3 18L2 18L2 17L1 17L1 16L0 16L0 18L2 18L2 20L4 20L4 19L5 19L5 20L6 20L6 21L7 21L7 22L6 22L6 23L9 23L9 24L6 24L6 25L7 25L7 26L6 26L6 27L8 27L8 28L6 28L6 29L4 29L4 30L5 30L5 31L4 31L4 32L2 32L2 33L7 33L7 32L8 32L8 34L9 34L9 35L10 35L10 36L8 36L8 39L9 39L9 38L10 38L10 39L11 39L11 41L14 41L14 40L12 40L12 37L13 37L13 36L14 36L14 34L17 34L17 32L16 32L16 33L14 33L14 34L13 34L13 33L11 33L11 34L9 34L9 32L10 32L10 31L9 31L9 32L8 32L8 31L7 31L7 30L6 30L6 29L8 29L8 30L11 30L11 31L12 31L12 28L13 28L13 30L14 30L14 29L15 29L15 30L16 30L16 31L19 31L19 32L18 32L18 34L19 34L19 35L18 35L18 36L19 36L19 37L17 37L17 36L16 36L16 35L15 35L15 36L16 36L16 38L15 38L15 41L16 41L16 40L17 40L17 39L18 39L18 40L19 40L19 39L20 39L20 41L21 41L21 40L23 40L23 39L24 39L24 38L23 38L23 37L22 37L22 38L19 38L19 37L21 37L21 36L19 36L19 35L20 35L20 34L21 34L21 35L22 35L22 36L23 36L23 33L22 33L22 32L23 32L23 31L26 31L26 30L27 30L27 32L26 32L26 34L27 34L27 35L26 35L26 36L27 36L27 37L25 37L25 39L26 39L26 40L24 40L24 41L27 41L27 40L28 40L28 41L32 41L32 40L33 40L33 41L34 41L34 40L33 40L33 39L32 39L32 40L31 40L31 37L30 37L30 40L28 40L28 39L29 39L29 38L27 38L27 37L29 37L29 36L31 36L31 35L32 35L32 38L34 38L34 39L35 39L35 40L36 40L36 39L37 39L37 40L40 40L40 38L41 38L41 37L40 37L40 36L41 36L41 35L40 35L40 34L41 34L41 33L39 33L39 32L41 32L41 31L40 31L40 30L41 30L41 29L39 29L39 32L38 32L38 30L37 30L37 29L36 29L36 28L38 28L38 26L39 26L39 27L40 27L40 28L41 28L41 27L40 27L40 26L41 26L41 23L39 23L39 22L38 22L38 21L39 21L39 20L36 20L36 19L35 19L35 17L36 17L36 18L37 18L37 17L36 17L36 16L35 16L35 17L34 17L34 16L33 16L33 17L31 17L31 16L29 16L29 15L31 15L31 12L32 12L32 13L33 13L33 14L32 14L32 15L34 15L34 13L35 13L35 11L36 11L36 12L38 12L38 11L39 11L39 13L40 13L40 14L39 14L39 15L40 15L40 14L41 14L41 13L40 13L40 12L41 12L41 11L40 11L40 10L41 10L41 8L38 8L38 9L40 9L40 10L37 10L37 9L36 9L36 8L31 8L31 5L33 5L33 4L28 4L28 5L27 5L27 4L26 4L26 5L27 5L27 6L26 6L26 9L25 9L25 8L24 8L24 9L23 9L23 0L22 0L22 2L21 2L21 0L20 0L20 1L17 1L17 2L19 2L19 3L18 3L18 4L19 4L19 5L17 5L17 4L16 4L16 1L15 1L15 2L12 2L12 3L15 3L15 6L14 6L14 5L13 5L13 4L11 4L11 3L10 3L10 2L11 2L11 0L10 0L10 2L9 2L9 0ZM24 0L24 1L25 1L25 0ZM26 0L26 1L27 1L27 2L26 2L26 3L32 3L32 2L33 2L33 0L29 0L29 1L27 1L27 0ZM30 1L30 2L32 2L32 1ZM19 3L19 4L20 4L20 5L19 5L19 7L20 7L20 8L22 8L22 3L21 3L21 4L20 4L20 3ZM24 4L24 5L25 5L25 4ZM12 5L12 6L11 6L11 8L10 8L10 6L9 6L9 8L10 8L10 9L13 9L13 8L14 8L14 10L15 10L15 11L17 11L17 12L18 12L18 15L19 15L19 16L17 16L17 17L18 17L18 21L16 21L16 20L17 20L17 18L16 18L16 19L15 19L15 20L14 20L14 21L13 21L13 20L12 20L12 18L11 18L11 16L10 16L10 15L8 15L8 14L7 14L7 13L4 13L4 14L7 14L7 15L6 15L6 16L5 16L5 18L7 18L7 19L6 19L6 20L8 20L8 21L10 21L10 22L9 22L9 23L10 23L10 25L9 25L9 26L8 26L8 27L9 27L9 28L10 28L10 26L12 26L12 27L11 27L11 28L12 28L12 27L13 27L13 28L15 28L15 27L14 27L14 25L15 25L15 26L16 26L16 27L17 27L17 26L18 26L18 25L19 25L19 23L20 23L20 24L21 24L21 25L20 25L20 26L19 26L19 27L20 27L20 28L21 28L21 29L20 29L20 30L19 30L19 29L18 29L18 28L16 28L16 30L17 30L17 29L18 29L18 30L19 30L19 31L20 31L20 30L22 30L22 31L23 31L23 30L22 30L22 28L23 28L23 29L24 29L24 30L26 30L26 29L28 29L28 30L29 30L29 31L28 31L28 33L27 33L27 34L28 34L28 33L29 33L29 32L30 32L30 33L31 33L31 30L32 30L32 31L33 31L33 32L35 32L35 31L36 31L36 29L35 29L35 28L36 28L36 27L35 27L35 26L36 26L36 25L39 25L39 26L40 26L40 24L39 24L39 23L38 23L38 22L37 22L37 24L36 24L36 23L34 23L34 25L32 25L32 23L33 23L33 22L34 22L34 21L35 21L35 22L36 22L36 21L35 21L35 19L34 19L34 18L33 18L33 19L32 19L32 18L31 18L31 17L29 17L29 16L28 16L28 15L29 15L29 14L30 14L30 13L29 13L29 12L30 12L30 11L28 11L28 12L27 12L27 13L29 13L29 14L26 14L26 12L25 12L25 9L24 9L24 10L23 10L23 9L22 9L22 10L23 10L23 11L24 11L24 12L23 12L23 13L24 13L24 14L23 14L23 15L22 15L22 14L21 14L21 12L22 12L22 11L21 11L21 12L18 12L18 11L19 11L19 9L18 9L18 11L17 11L17 8L18 8L18 6L17 6L17 5L16 5L16 6L15 6L15 7L16 7L16 6L17 6L17 8L16 8L16 10L15 10L15 8L14 8L14 6L13 6L13 5ZM29 5L29 8L30 8L30 9L27 9L27 10L30 10L30 9L31 9L31 8L30 8L30 5ZM12 6L12 7L13 7L13 6ZM20 6L20 7L21 7L21 6ZM24 6L24 7L25 7L25 6ZM27 6L27 7L28 7L28 6ZM32 6L32 7L33 7L33 6ZM6 8L6 9L7 9L7 8ZM32 9L32 10L31 10L31 11L32 11L32 12L33 12L33 13L34 13L34 12L33 12L33 11L34 11L34 9ZM35 9L35 10L36 10L36 9ZM0 10L0 11L1 11L1 10ZM4 10L4 12L7 12L7 11L5 11L5 10ZM14 12L14 13L15 13L15 12ZM24 12L24 13L25 13L25 12ZM19 13L19 14L20 14L20 15L21 15L21 16L20 16L20 17L21 17L21 19L20 19L20 18L19 18L19 20L21 20L21 19L22 19L22 18L24 18L24 19L25 19L25 21L24 21L24 20L22 20L22 23L23 23L23 24L22 24L22 25L21 25L21 27L24 27L24 29L25 29L25 28L26 28L26 27L27 27L27 28L28 28L28 29L31 29L31 28L32 28L32 27L31 27L31 28L28 28L28 27L29 27L29 26L30 26L30 25L31 25L31 26L32 26L32 25L31 25L31 23L30 23L30 24L28 24L28 23L29 23L29 22L27 22L27 25L29 25L29 26L26 26L26 22L25 22L25 21L29 21L29 20L26 20L26 18L27 18L27 19L28 19L28 18L27 18L27 17L26 17L26 18L25 18L25 17L21 17L21 16L22 16L22 15L21 15L21 14L20 14L20 13ZM36 13L36 14L35 14L35 15L37 15L37 16L38 16L38 17L39 17L39 18L41 18L41 16L40 16L40 17L39 17L39 16L38 16L38 14L37 14L37 13ZM2 14L2 15L3 15L3 14ZM16 14L16 15L17 15L17 14ZM24 14L24 16L27 16L27 15L25 15L25 14ZM6 16L6 17L7 17L7 18L8 18L8 17L9 17L9 18L10 18L10 16L8 16L8 17L7 17L7 16ZM14 16L14 17L15 17L15 16ZM3 18L3 19L4 19L4 18ZM30 18L30 19L31 19L31 18ZM0 19L0 22L2 22L2 21L1 21L1 19ZM9 19L9 20L11 20L11 22L10 22L10 23L11 23L11 24L12 24L12 23L13 23L13 24L14 24L14 23L15 23L15 24L16 24L16 25L18 25L18 24L16 24L16 22L15 22L15 21L14 21L14 23L13 23L13 22L12 22L12 20L11 20L11 19ZM30 20L30 21L31 21L31 22L32 22L32 21L34 21L34 20ZM40 20L40 21L41 21L41 20ZM19 21L19 22L21 22L21 21ZM23 21L23 23L24 23L24 21ZM11 22L11 23L12 23L12 22ZM17 22L17 23L18 23L18 22ZM3 23L3 24L5 24L5 23ZM24 24L24 25L23 25L23 26L24 26L24 27L25 27L25 26L24 26L24 25L25 25L25 24ZM35 24L35 25L34 25L34 26L33 26L33 27L34 27L34 26L35 26L35 25L36 25L36 24ZM2 25L2 26L0 26L0 27L3 27L3 28L2 28L2 29L3 29L3 28L5 28L5 25ZM12 25L12 26L13 26L13 25ZM0 28L0 33L1 33L1 28ZM33 28L33 29L32 29L32 30L33 30L33 29L34 29L34 28ZM34 30L34 31L35 31L35 30ZM6 31L6 32L7 32L7 31ZM13 31L13 32L15 32L15 31ZM19 32L19 34L20 34L20 33L21 33L21 32ZM24 32L24 33L25 33L25 32ZM37 32L37 35L38 35L38 36L37 36L37 37L38 37L38 36L40 36L40 35L39 35L39 34L38 34L38 32ZM33 33L33 36L36 36L36 33ZM11 34L11 35L13 35L13 34ZM24 34L24 36L25 36L25 34ZM30 34L30 35L31 35L31 34ZM34 34L34 35L35 35L35 34ZM11 36L11 37L12 37L12 36ZM34 37L34 38L36 38L36 37ZM16 38L16 39L17 39L17 38ZM37 38L37 39L38 39L38 38ZM0 0L0 7L7 7L7 0ZM1 1L1 6L6 6L6 1ZM2 2L2 5L5 5L5 2ZM34 0L34 7L41 7L41 0ZM35 1L35 6L40 6L40 1ZM36 2L36 5L39 5L39 2ZM0 34L0 41L7 41L7 34ZM1 35L1 40L6 40L6 35ZM2 36L2 39L5 39L5 36Z" fill="#000000"/></g></g></svg>
