<?xml version="1.0" encoding="UTF-8"?>
<svg xmlns="http://www.w3.org/2000/svg" version="1.1" width="200" height="200" viewBox="0 0 200 200"><rect x="0" y="0" width="200" height="200" fill="#ffffff"/><g transform="scale(6.897)"><g transform="translate(0,0)"><path fill-rule="evenodd" d="M9 0L9 1L8 1L8 7L9 7L9 2L10 2L10 4L11 4L11 1L16 1L16 0ZM17 0L17 1L18 1L18 0ZM19 0L19 1L20 1L20 2L19 2L19 3L20 3L20 5L17 5L17 4L16 4L16 3L18 3L18 2L14 2L14 3L13 3L13 4L12 4L12 7L11 7L11 6L10 6L10 7L11 7L11 8L12 8L12 9L10 9L10 8L5 8L5 9L4 9L4 10L3 10L3 11L2 11L2 12L0 12L0 13L2 13L2 12L4 12L4 14L3 14L3 15L2 15L2 14L0 14L0 15L1 15L1 18L0 18L0 19L5 19L5 20L6 20L6 21L7 21L7 20L8 20L8 24L10 24L10 27L11 27L11 28L10 28L10 29L11 29L11 28L12 28L12 25L11 25L11 24L13 24L13 23L14 23L14 22L15 22L15 19L14 19L14 21L13 21L13 23L12 23L12 16L14 16L14 12L15 12L15 11L14 11L14 10L16 10L16 8L17 8L17 12L18 12L18 13L19 13L19 12L20 12L20 13L21 13L21 12L22 12L22 14L19 14L19 15L21 15L21 19L22 19L22 20L18 20L18 19L20 19L20 18L18 18L18 17L20 17L20 16L18 16L18 17L17 17L17 18L16 18L16 19L17 19L17 23L18 23L18 24L16 24L16 23L15 23L15 25L14 25L14 26L13 26L13 27L16 27L16 28L15 28L15 29L16 29L16 28L17 28L17 29L19 29L19 28L18 28L18 27L19 27L19 26L20 26L20 27L21 27L21 29L22 29L22 28L24 28L24 29L26 29L26 28L24 28L24 26L23 26L23 27L22 27L22 26L21 26L21 25L25 25L25 23L26 23L26 21L27 21L27 23L28 23L28 22L29 22L29 21L27 21L27 20L26 20L26 18L28 18L28 19L29 19L29 18L28 18L28 17L29 17L29 16L27 16L27 17L25 17L25 16L22 16L22 15L25 15L25 14L26 14L26 13L29 13L29 12L27 12L27 11L29 11L29 9L28 9L28 8L23 8L23 10L22 10L22 11L21 11L21 9L22 9L22 8L21 8L21 0ZM14 5L14 6L13 6L13 7L12 7L12 8L13 8L13 9L12 9L12 10L11 10L11 11L10 11L10 9L8 9L8 11L10 11L10 14L9 14L9 16L8 16L8 18L9 18L9 17L11 17L11 15L13 15L13 12L11 12L11 11L13 11L13 9L15 9L15 8L14 8L14 6L15 6L15 7L16 7L16 6L17 6L17 7L18 7L18 10L19 10L19 11L18 11L18 12L19 12L19 11L20 11L20 8L19 8L19 7L20 7L20 6L19 6L19 7L18 7L18 6L17 6L17 5L16 5L16 6L15 6L15 5ZM2 8L2 9L0 9L0 11L1 11L1 10L2 10L2 9L3 9L3 8ZM5 9L5 10L4 10L4 11L5 11L5 14L4 14L4 15L3 15L3 16L7 16L7 15L5 15L5 14L7 14L7 13L8 13L8 12L7 12L7 11L5 11L5 10L7 10L7 9ZM26 9L26 10L24 10L24 11L27 11L27 10L28 10L28 9ZM6 12L6 13L7 13L7 12ZM23 12L23 14L25 14L25 13L24 13L24 12ZM15 13L15 14L16 14L16 16L15 16L15 17L16 17L16 16L17 16L17 15L18 15L18 14L17 14L17 13ZM10 14L10 15L11 15L11 14ZM27 14L27 15L29 15L29 14ZM3 17L3 18L5 18L5 19L6 19L6 20L7 20L7 19L6 19L6 18L7 18L7 17L6 17L6 18L5 18L5 17ZM13 17L13 18L14 18L14 17ZM22 17L22 18L25 18L25 17ZM10 18L10 19L11 19L11 18ZM8 19L8 20L9 20L9 22L10 22L10 23L11 23L11 20L9 20L9 19ZM23 19L23 20L25 20L25 19ZM0 20L0 21L2 21L2 20ZM3 20L3 21L4 21L4 20ZM19 21L19 22L18 22L18 23L19 23L19 24L20 24L20 23L19 23L19 22L20 22L20 21ZM21 21L21 24L24 24L24 21ZM22 22L22 23L23 23L23 22ZM26 24L26 25L29 25L29 24ZM15 25L15 26L16 26L16 27L18 27L18 26L17 26L17 25ZM8 26L8 27L9 27L9 26ZM25 26L25 27L28 27L28 28L27 28L27 29L29 29L29 26ZM0 0L0 7L7 7L7 0ZM1 1L1 6L6 6L6 1ZM2 2L2 5L5 5L5 2ZM22 0L22 7L29 7L29 0ZM23 1L23 6L28 6L28 1ZM24 2L24 5L27 5L27 2ZM0 22L0 29L7 29L7 22ZM1 23L1 28L6 28L6 23ZM2 24L2 27L5 27L5 24Z" fill="#000000"/></g></g></svg>
