<?xml version="1.0" encoding="UTF-8"?>
<svg xmlns="http://www.w3.org/2000/svg" version="1.1" width="200" height="200" viewBox="0 0 200 200"><rect x="0" y="0" width="200" height="200" fill="#ffffff"/><g transform="scale(4.878)"><g transform="translate(0,0)"><path fill-rule="evenodd" d="M8 0L8 3L10 3L10 5L8 5L8 9L7 9L7 8L6 8L6 9L7 9L7 10L6 10L6 11L5 11L5 10L4 10L4 11L3 11L3 12L2 12L2 11L0 11L0 12L2 12L2 13L1 13L1 14L2 14L2 13L3 13L3 15L0 15L0 18L1 18L1 17L2 17L2 20L0 20L0 21L1 21L1 22L0 22L0 24L1 24L1 25L2 25L2 28L1 28L1 27L0 27L0 28L1 28L1 29L0 29L0 33L1 33L1 30L2 30L2 32L4 32L4 33L7 33L7 32L6 32L6 31L8 31L8 34L9 34L9 36L8 36L8 39L10 39L10 40L11 40L11 39L13 39L13 40L12 40L12 41L13 41L13 40L14 40L14 39L13 39L13 38L12 38L12 36L13 36L13 37L15 37L15 36L16 36L16 38L18 38L18 39L16 39L16 41L17 41L17 40L18 40L18 41L24 41L24 40L25 40L25 41L26 41L26 40L25 40L25 39L26 39L26 38L27 38L27 40L28 40L28 41L31 41L31 40L33 40L33 41L34 41L34 40L33 40L33 39L35 39L35 40L36 40L36 39L37 39L37 40L40 40L40 38L41 38L41 37L40 37L40 36L38 36L38 35L40 35L40 34L41 34L41 33L39 33L39 32L41 32L41 31L40 31L40 30L41 30L41 29L39 29L39 30L38 30L38 29L36 29L36 28L38 28L38 26L39 26L39 28L40 28L40 26L41 26L41 23L39 23L39 24L40 24L40 26L39 26L39 25L36 25L36 24L37 24L37 20L38 20L38 22L39 22L39 20L38 20L38 19L37 19L37 20L36 20L36 19L35 19L35 17L36 17L36 18L38 18L38 17L39 17L39 16L38 16L38 14L37 14L37 13L36 13L36 14L35 14L35 15L36 15L36 16L35 16L35 17L34 17L34 16L32 16L32 17L30 17L30 16L31 16L31 15L30 15L30 16L29 16L29 15L28 15L28 16L29 16L29 17L30 17L30 19L31 19L31 18L32 18L32 20L33 20L33 21L31 21L31 20L30 20L30 21L31 21L31 22L29 22L29 23L30 23L30 24L29 24L29 25L28 25L28 26L26 26L26 24L25 24L25 23L27 23L27 24L28 24L28 22L27 22L27 21L29 21L29 20L27 20L27 21L26 21L26 22L24 22L24 21L25 21L25 18L24 18L24 17L26 17L26 18L27 18L27 19L28 19L28 18L27 18L27 16L26 16L26 15L27 15L27 14L29 14L29 13L30 13L30 14L31 14L31 12L29 12L29 13L28 13L28 11L29 11L29 10L30 10L30 11L31 11L31 10L32 10L32 11L33 11L33 12L32 12L32 13L33 13L33 14L32 14L32 15L34 15L34 13L35 13L35 12L38 12L38 11L39 11L39 12L40 12L40 10L41 10L41 8L38 8L38 9L40 9L40 10L37 10L37 9L36 9L36 8L33 8L33 5L32 5L32 4L33 4L33 0L29 0L29 1L27 1L27 0L26 0L26 1L27 1L27 2L26 2L26 3L28 3L28 4L29 4L29 5L27 5L27 4L25 4L25 3L24 3L24 4L25 4L25 5L27 5L27 6L26 6L26 7L25 7L25 6L24 6L24 8L25 8L25 9L29 9L29 10L27 10L27 11L25 11L25 10L24 10L24 9L23 9L23 10L22 10L22 11L24 11L24 12L23 12L23 13L24 13L24 14L23 14L23 15L22 15L22 16L23 16L23 15L24 15L24 17L23 17L23 18L22 18L22 17L20 17L20 16L18 16L18 17L19 17L19 18L17 18L17 14L14 14L14 15L16 15L16 19L15 19L15 17L13 17L13 15L12 15L12 13L14 13L14 12L17 12L17 11L15 11L15 10L18 10L18 11L19 11L19 10L18 10L18 9L19 9L19 8L21 8L21 9L20 9L20 10L21 10L21 9L22 9L22 8L21 8L21 5L20 5L20 3L21 3L21 4L23 4L23 2L22 2L22 1L24 1L24 0L22 0L22 1L21 1L21 0L19 0L19 1L17 1L17 0L16 0L16 1L14 1L14 3L16 3L16 4L14 4L14 5L15 5L15 6L14 6L14 7L15 7L15 6L16 6L16 7L17 7L17 6L16 6L16 5L17 5L17 4L18 4L18 8L17 8L17 9L16 9L16 8L15 8L15 10L14 10L14 8L13 8L13 6L12 6L12 9L13 9L13 10L11 10L11 6L10 6L10 5L12 5L12 4L13 4L13 3L12 3L12 2L9 2L9 1L10 1L10 0ZM11 0L11 1L12 1L12 0ZM16 1L16 2L17 2L17 3L18 3L18 4L19 4L19 3L18 3L18 2L17 2L17 1ZM20 1L20 2L21 2L21 1ZM30 1L30 2L32 2L32 1ZM11 3L11 4L12 4L12 3ZM29 3L29 4L32 4L32 3ZM29 5L29 7L28 7L28 6L27 6L27 7L26 7L26 8L30 8L30 9L32 9L32 10L33 10L33 11L34 11L34 10L33 10L33 9L32 9L32 5L31 5L31 8L30 8L30 5ZM9 6L9 8L10 8L10 6ZM19 6L19 7L20 7L20 6ZM22 6L22 7L23 7L23 6ZM2 8L2 9L1 9L1 10L2 10L2 9L5 9L5 8ZM9 9L9 11L8 11L8 12L7 12L7 11L6 11L6 12L7 12L7 13L6 13L6 14L7 14L7 13L9 13L9 14L10 14L10 15L9 15L9 17L8 17L8 16L7 16L7 15L3 15L3 16L2 16L2 17L4 17L4 16L7 16L7 17L5 17L5 18L3 18L3 20L4 20L4 19L5 19L5 21L6 21L6 22L4 22L4 21L3 21L3 22L4 22L4 23L5 23L5 24L3 24L3 28L4 28L4 29L2 29L2 30L3 30L3 31L4 31L4 30L5 30L5 31L6 31L6 30L7 30L7 29L8 29L8 30L9 30L9 29L10 29L10 31L11 31L11 32L12 32L12 31L11 31L11 30L12 30L12 29L13 29L13 31L14 31L14 32L13 32L13 33L11 33L11 34L12 34L12 35L11 35L11 36L12 36L12 35L14 35L14 34L15 34L15 35L17 35L17 37L18 37L18 38L19 38L19 40L20 40L20 39L21 39L21 40L22 40L22 38L23 38L23 39L24 39L24 38L26 38L26 37L25 37L25 36L26 36L26 35L27 35L27 34L28 34L28 33L29 33L29 32L30 32L30 31L31 31L31 30L32 30L32 31L33 31L33 32L39 32L39 31L38 31L38 30L37 30L37 31L34 31L34 30L36 30L36 29L35 29L35 28L36 28L36 27L37 27L37 26L36 26L36 25L35 25L35 24L36 24L36 23L35 23L35 22L36 22L36 21L35 21L35 19L34 19L34 18L33 18L33 17L32 17L32 18L33 18L33 20L34 20L34 21L33 21L33 22L31 22L31 23L33 23L33 24L34 24L34 25L32 25L32 24L31 24L31 25L30 25L30 26L28 26L28 27L29 27L29 28L31 28L31 29L28 29L28 30L29 30L29 31L28 31L28 33L27 33L27 34L26 34L26 32L25 32L25 31L26 31L26 29L27 29L27 27L26 27L26 26L25 26L25 25L24 25L24 22L23 22L23 24L20 24L20 22L19 22L19 24L18 24L18 22L16 22L16 21L17 21L17 20L18 20L18 21L20 21L20 20L22 20L22 21L24 21L24 18L23 18L23 19L21 19L21 18L19 18L19 19L20 19L20 20L18 20L18 19L16 19L16 21L15 21L15 19L14 19L14 18L13 18L13 17L12 17L12 18L10 18L10 19L9 19L9 21L10 21L10 20L11 20L11 21L12 21L12 22L8 22L8 24L7 24L7 23L6 23L6 22L7 22L7 21L8 21L8 20L7 20L7 19L8 19L8 18L9 18L9 17L10 17L10 15L11 15L11 16L12 16L12 15L11 15L11 13L9 13L9 12L11 12L11 11L10 11L10 9ZM13 10L13 12L14 12L14 10ZM4 11L4 12L3 12L3 13L5 13L5 11ZM20 12L20 13L19 13L19 14L18 14L18 15L20 15L20 13L22 13L22 12ZM25 12L25 14L24 14L24 15L25 15L25 14L27 14L27 12ZM33 12L33 13L34 13L34 12ZM39 13L39 14L41 14L41 13ZM36 16L36 17L38 17L38 16ZM40 16L40 18L39 18L39 19L40 19L40 18L41 18L41 16ZM5 18L5 19L7 19L7 18ZM12 18L12 19L13 19L13 23L9 23L9 25L8 25L8 26L4 26L4 28L5 28L5 27L8 27L8 28L10 28L10 29L11 29L11 28L12 28L12 27L13 27L13 25L11 25L11 26L12 26L12 27L11 27L11 28L10 28L10 24L15 24L15 25L14 25L14 28L16 28L16 27L15 27L15 26L16 26L16 25L17 25L17 28L18 28L18 27L20 27L20 26L21 26L21 28L20 28L20 29L21 29L21 30L20 30L20 31L18 31L18 32L16 32L16 33L17 33L17 35L21 35L21 36L20 36L20 38L21 38L21 36L22 36L22 37L23 37L23 38L24 38L24 37L23 37L23 33L24 33L24 34L25 34L25 35L26 35L26 34L25 34L25 33L24 33L24 30L25 30L25 29L26 29L26 27L25 27L25 26L23 26L23 27L25 27L25 29L24 29L24 28L23 28L23 29L24 29L24 30L23 30L23 32L22 32L22 31L21 31L21 30L22 30L22 26L21 26L21 25L17 25L17 23L16 23L16 24L15 24L15 21L14 21L14 19L13 19L13 18ZM6 20L6 21L7 21L7 20ZM40 20L40 21L41 21L41 20ZM34 21L34 22L35 22L35 21ZM1 22L1 23L2 23L2 22ZM6 24L6 25L7 25L7 24ZM31 25L31 26L32 26L32 27L34 27L34 26L35 26L35 27L36 27L36 26L35 26L35 25L34 25L34 26L32 26L32 25ZM6 28L6 29L7 29L7 28ZM33 28L33 29L32 29L32 30L33 30L33 29L34 29L34 28ZM14 29L14 30L15 30L15 31L17 31L17 29L16 29L16 30L15 30L15 29ZM9 32L9 33L10 33L10 32ZM20 32L20 33L18 33L18 34L20 34L20 33L21 33L21 35L22 35L22 33L21 33L21 32ZM13 33L13 34L14 34L14 33ZM30 33L30 35L31 35L31 34L32 34L32 33ZM33 33L33 36L36 36L36 33ZM37 33L37 34L39 34L39 33ZM34 34L34 35L35 35L35 34ZM28 35L28 36L29 36L29 37L27 37L27 38L29 38L29 39L28 39L28 40L30 40L30 37L32 37L32 36L29 36L29 35ZM37 36L37 37L38 37L38 36ZM9 37L9 38L10 38L10 39L11 39L11 37ZM33 37L33 38L32 38L32 39L33 39L33 38L36 38L36 37ZM37 38L37 39L38 39L38 38ZM0 0L0 7L7 7L7 0ZM1 1L1 6L6 6L6 1ZM2 2L2 5L5 5L5 2ZM34 0L34 7L41 7L41 0ZM35 1L35 6L40 6L40 1ZM36 2L36 5L39 5L39 2ZM0 34L0 41L7 41L7 34ZM1 35L1 40L6 40L6 35ZM2 36L2 39L5 39L5 36Z" fill="#000000"/></g></g></svg>
