<?xml version="1.0" encoding="UTF-8"?>
<svg xmlns="http://www.w3.org/2000/svg" version="1.1" width="200" height="200" viewBox="0 0 200 200"><rect x="0" y="0" width="200" height="200" fill="#ffffff"/><g transform="scale(6.897)"><g transform="translate(0,0)"><path fill-rule="evenodd" d="M10 0L10 2L9 2L9 1L8 1L8 2L9 2L9 3L10 3L10 2L12 2L12 3L11 3L11 4L13 4L13 5L14 5L14 4L15 4L15 6L14 6L14 7L15 7L15 8L14 8L14 11L12 11L12 12L9 12L9 9L8 9L8 8L9 8L9 5L10 5L10 8L11 8L11 9L13 9L13 6L12 6L12 7L11 7L11 5L10 5L10 4L9 4L9 5L8 5L8 8L4 8L4 9L8 9L8 11L7 11L7 10L6 10L6 11L7 11L7 12L4 12L4 11L5 11L5 10L4 10L4 11L3 11L3 9L2 9L2 10L0 10L0 12L1 12L1 13L2 13L2 14L1 14L1 16L0 16L0 18L3 18L3 17L4 17L4 16L5 16L5 17L7 17L7 18L6 18L6 19L5 19L5 18L4 18L4 20L3 20L3 21L4 21L4 20L5 20L5 21L8 21L8 25L9 25L9 27L11 27L11 29L15 29L15 27L16 27L16 29L22 29L22 28L23 28L23 29L25 29L25 28L23 28L23 27L25 27L25 26L27 26L27 28L26 28L26 29L27 29L27 28L28 28L28 27L29 27L29 26L27 26L27 24L28 24L28 25L29 25L29 22L28 22L28 23L27 23L27 21L29 21L29 19L26 19L26 18L25 18L25 17L24 17L24 18L21 18L21 19L20 19L20 17L23 17L23 16L24 16L24 14L25 14L25 15L27 15L27 16L29 16L29 14L27 14L27 12L29 12L29 9L28 9L28 8L27 8L27 9L24 9L24 8L22 8L22 9L24 9L24 10L22 10L22 11L23 11L23 13L22 13L22 12L18 12L18 13L19 13L19 14L18 14L18 15L17 15L17 17L16 17L16 18L17 18L17 19L15 19L15 20L17 20L17 21L15 21L15 23L16 23L16 22L17 22L17 23L18 23L18 22L17 22L17 21L18 21L18 19L19 19L19 20L20 20L20 21L19 21L19 22L20 22L20 24L16 24L16 25L17 25L17 26L15 26L15 24L14 24L14 22L13 22L13 21L12 21L12 20L11 20L11 21L10 21L10 19L12 19L12 17L13 17L13 19L14 19L14 16L16 16L16 15L14 15L14 16L12 16L12 15L13 15L13 14L17 14L17 12L16 12L16 11L17 11L17 10L18 10L18 9L19 9L19 10L20 10L20 11L21 11L21 9L19 9L19 8L21 8L21 6L20 6L20 7L19 7L19 4L20 4L20 5L21 5L21 1L20 1L20 0L18 0L18 2L17 2L17 1L16 1L16 2L15 2L15 1L13 1L13 0L12 0L12 1L11 1L11 0ZM12 1L12 2L13 2L13 1ZM19 1L19 2L20 2L20 1ZM16 2L16 3L15 3L15 4L16 4L16 6L15 6L15 7L16 7L16 8L17 8L17 9L15 9L15 10L17 10L17 9L18 9L18 8L17 8L17 7L18 7L18 4L19 4L19 3L18 3L18 4L16 4L16 3L17 3L17 2ZM13 3L13 4L14 4L14 3ZM16 6L16 7L17 7L17 6ZM27 9L27 10L28 10L28 9ZM10 10L10 11L11 11L11 10ZM24 10L24 12L25 12L25 10ZM1 11L1 12L2 12L2 11ZM3 12L3 16L2 16L2 17L3 17L3 16L4 16L4 14L5 14L5 15L6 15L6 16L7 16L7 15L6 15L6 14L8 14L8 15L10 15L10 16L9 16L9 17L8 17L8 18L7 18L7 19L6 19L6 20L7 20L7 19L8 19L8 21L9 21L9 17L10 17L10 18L11 18L11 17L10 17L10 16L11 16L11 14L10 14L10 13L4 13L4 12ZM13 12L13 13L12 13L12 14L13 14L13 13L14 13L14 12ZM15 12L15 13L16 13L16 12ZM21 13L21 14L19 14L19 16L18 16L18 17L17 17L17 18L18 18L18 17L19 17L19 16L21 16L21 15L22 15L22 16L23 16L23 14L24 14L24 13L23 13L23 14L22 14L22 13ZM25 13L25 14L26 14L26 13ZM27 17L27 18L28 18L28 17ZM24 18L24 20L26 20L26 19L25 19L25 18ZM22 19L22 20L23 20L23 19ZM0 20L0 21L2 21L2 20ZM11 21L11 22L12 22L12 21ZM21 21L21 24L24 24L24 21ZM25 21L25 25L26 25L26 24L27 24L27 23L26 23L26 21ZM9 22L9 25L11 25L11 24L12 24L12 23L10 23L10 22ZM22 22L22 23L23 23L23 22ZM13 24L13 25L12 25L12 26L11 26L11 27L12 27L12 28L13 28L13 27L15 27L15 26L13 26L13 25L14 25L14 24ZM19 25L19 26L17 26L17 28L19 28L19 26L20 26L20 28L21 28L21 26L22 26L22 27L23 27L23 26L24 26L24 25ZM9 28L9 29L10 29L10 28ZM0 0L0 7L7 7L7 0ZM1 1L1 6L6 6L6 1ZM2 2L2 5L5 5L5 2ZM22 0L22 7L29 7L29 0ZM23 1L23 6L28 6L28 1ZM24 2L24 5L27 5L27 2ZM0 22L0 29L7 29L7 22ZM1 23L1 28L6 28L6 23ZM2 24L2 27L5 27L5 24Z" fill="#000000"/></g></g></svg>
