<?xml version="1.0" encoding="UTF-8"?>
<svg xmlns="http://www.w3.org/2000/svg" version="1.1" width="200" height="200" viewBox="0 0 200 200"><rect x="0" y="0" width="200" height="200" fill="#ffffff"/><g transform="scale(4.878)"><g transform="translate(0,0)"><path fill-rule="evenodd" d="M9 0L9 2L8 2L8 4L9 4L9 2L10 2L10 3L11 3L11 4L10 4L10 7L9 7L9 6L8 6L8 7L9 7L9 10L6 10L6 9L8 9L8 8L6 8L6 9L5 9L5 8L3 8L3 9L1 9L1 10L0 10L0 13L1 13L1 12L2 12L2 13L4 13L4 15L5 15L5 16L6 16L6 17L4 17L4 18L3 18L3 19L2 19L2 16L3 16L3 14L2 14L2 16L1 16L1 15L0 15L0 19L2 19L2 20L6 20L6 21L5 21L5 22L4 22L4 21L2 21L2 22L1 22L1 20L0 20L0 23L1 23L1 24L2 24L2 26L3 26L3 24L5 24L5 22L6 22L6 23L7 23L7 22L6 22L6 21L8 21L8 22L9 22L9 24L6 24L6 25L4 25L4 26L5 26L5 27L4 27L4 28L3 28L3 29L2 29L2 27L1 27L1 28L0 28L0 33L4 33L4 32L5 32L5 33L7 33L7 32L5 32L5 31L9 31L9 32L8 32L8 35L9 35L9 36L8 36L8 38L9 38L9 40L11 40L11 41L12 41L12 39L13 39L13 38L11 38L11 37L9 37L9 36L12 36L12 35L13 35L13 34L14 34L14 35L15 35L15 34L16 34L16 35L17 35L17 34L16 34L16 33L18 33L18 34L19 34L19 35L20 35L20 34L19 34L19 33L18 33L18 32L20 32L20 31L21 31L21 33L23 33L23 32L26 32L26 31L28 31L28 30L29 30L29 31L30 31L30 32L29 32L29 33L28 33L28 32L27 32L27 38L26 38L26 36L24 36L24 35L23 35L23 36L20 36L20 37L18 37L18 36L16 36L16 38L15 38L15 37L14 37L14 39L18 39L18 41L20 41L20 40L21 40L21 38L22 38L22 39L23 39L23 38L24 38L24 40L23 40L23 41L25 41L25 39L28 39L28 41L29 41L29 39L28 39L28 38L29 38L29 37L30 37L30 39L31 39L31 40L30 40L30 41L31 41L31 40L32 40L32 41L34 41L34 40L35 40L35 41L36 41L36 39L37 39L37 40L38 40L38 41L39 41L39 40L38 40L38 39L40 39L40 40L41 40L41 37L40 37L40 36L41 36L41 35L40 35L40 34L39 34L39 31L40 31L40 33L41 33L41 30L39 30L39 29L40 29L40 28L39 28L39 27L41 27L41 25L39 25L39 24L37 24L37 23L39 23L39 22L41 22L41 21L39 21L39 20L40 20L40 19L41 19L41 18L40 18L40 19L39 19L39 18L38 18L38 16L40 16L40 17L41 17L41 11L40 11L40 9L39 9L39 8L37 8L37 9L35 9L35 10L34 10L34 11L36 11L36 12L35 12L35 13L36 13L36 15L37 15L37 14L39 14L39 12L40 12L40 15L38 15L38 16L37 16L37 17L35 17L35 20L34 20L34 19L33 19L33 18L32 18L32 17L27 17L27 18L26 18L26 17L24 17L24 15L25 15L25 16L28 16L28 15L29 15L29 12L30 12L30 14L31 14L31 15L32 15L32 16L33 16L33 17L34 17L34 16L35 16L35 14L33 14L33 13L32 13L32 11L33 11L33 6L32 6L32 7L31 7L31 6L30 6L30 5L33 5L33 4L29 4L29 5L28 5L28 7L27 7L27 6L26 6L26 7L27 7L27 9L26 9L26 8L24 8L24 9L23 9L23 5L24 5L24 7L25 7L25 4L23 4L23 0L18 0L18 2L16 2L16 4L17 4L17 5L16 5L16 7L15 7L15 6L14 6L14 3L15 3L15 2L14 2L14 3L13 3L13 6L12 6L12 2L11 2L11 1L15 1L15 0ZM24 0L24 3L26 3L26 4L28 4L28 2L29 2L29 3L33 3L33 1L31 1L31 0L30 0L30 1L29 1L29 0L28 0L28 2L27 2L27 1L26 1L26 0ZM20 1L20 2L19 2L19 5L18 5L18 6L17 6L17 11L18 11L18 12L19 12L19 9L21 9L21 10L20 10L20 11L21 11L21 13L20 13L20 17L23 17L23 14L21 14L21 13L22 13L22 12L23 12L23 13L24 13L24 14L25 14L25 15L28 15L28 13L24 13L24 12L25 12L25 11L26 11L26 12L27 12L27 10L22 10L22 9L21 9L21 8L22 8L22 6L21 6L21 7L20 7L20 5L23 5L23 4L22 4L22 2L21 2L21 1ZM30 1L30 2L31 2L31 1ZM20 2L20 3L21 3L21 2ZM17 3L17 4L18 4L18 3ZM11 6L11 7L12 7L12 8L10 8L10 11L8 11L8 14L7 14L7 13L6 13L6 12L7 12L7 11L4 11L4 10L5 10L5 9L3 9L3 10L2 10L2 12L3 12L3 11L4 11L4 12L5 12L5 13L6 13L6 14L5 14L5 15L6 15L6 16L7 16L7 15L8 15L8 17L6 17L6 18L4 18L4 19L6 19L6 20L8 20L8 19L6 19L6 18L8 18L8 17L10 17L10 19L9 19L9 20L10 20L10 21L9 21L9 22L11 22L11 23L10 23L10 24L9 24L9 25L6 25L6 26L8 26L8 27L6 27L6 28L5 28L5 29L6 29L6 30L7 30L7 29L8 29L8 30L9 30L9 31L10 31L10 32L9 32L9 35L11 35L11 34L13 34L13 32L12 32L12 31L14 31L14 32L15 32L15 33L16 33L16 32L17 32L17 29L16 29L16 27L13 27L13 26L14 26L14 25L15 25L15 26L16 26L16 25L17 25L17 28L18 28L18 31L19 31L19 30L21 30L21 31L26 31L26 29L27 29L27 30L28 30L28 29L27 29L27 28L29 28L29 29L30 29L30 31L31 31L31 33L30 33L30 34L28 34L28 35L29 35L29 36L30 36L30 37L31 37L31 36L32 36L32 35L31 35L31 33L32 33L32 32L33 32L33 31L34 31L34 32L35 32L35 31L36 31L36 30L33 30L33 31L32 31L32 28L33 28L33 27L32 27L32 28L31 28L31 26L32 26L32 25L33 25L33 24L35 24L35 23L36 23L36 21L34 21L34 23L33 23L33 22L31 22L31 21L30 21L30 20L31 20L31 19L29 19L29 21L28 21L28 23L25 23L25 22L26 22L26 20L28 20L28 19L26 19L26 20L25 20L25 18L24 18L24 20L23 20L23 19L22 19L22 20L21 20L21 21L20 21L20 26L19 26L19 23L18 23L18 24L17 24L17 23L15 23L15 24L14 24L14 23L13 23L13 24L12 24L12 25L11 25L11 26L9 26L9 25L10 25L10 24L11 24L11 23L12 23L12 22L11 22L11 21L12 21L12 20L13 20L13 19L12 19L12 20L10 20L10 19L11 19L11 17L12 17L12 15L13 15L13 16L14 16L14 19L15 19L15 16L16 16L16 17L17 17L17 18L16 18L16 20L14 20L14 21L13 21L13 22L14 22L14 21L15 21L15 22L16 22L16 20L17 20L17 21L19 21L19 18L18 18L18 17L19 17L19 16L18 16L18 15L19 15L19 14L17 14L17 16L16 16L16 13L17 13L17 12L16 12L16 11L15 11L15 12L16 12L16 13L15 13L15 14L14 14L14 12L11 12L11 11L12 11L12 10L13 10L13 11L14 11L14 10L16 10L16 9L14 9L14 10L13 10L13 8L14 8L14 6L13 6L13 7L12 7L12 6ZM18 6L18 7L19 7L19 6ZM29 6L29 7L28 7L28 9L29 9L29 10L30 10L30 9L31 9L31 8L30 8L30 6ZM29 8L29 9L30 9L30 8ZM11 9L11 10L12 10L12 9ZM37 9L37 10L36 10L36 11L37 11L37 10L38 10L38 12L39 12L39 10L38 10L38 9ZM31 10L31 11L30 11L30 12L31 12L31 11L32 11L32 10ZM23 11L23 12L24 12L24 11ZM28 11L28 12L29 12L29 11ZM36 12L36 13L37 13L37 12ZM9 13L9 14L10 14L10 15L12 15L12 13L11 13L11 14L10 14L10 13ZM6 14L6 15L7 15L7 14ZM13 14L13 15L14 15L14 16L15 16L15 15L14 15L14 14ZM10 16L10 17L11 17L11 16ZM20 18L20 19L21 19L21 18ZM36 18L36 20L37 20L37 22L39 22L39 21L38 21L38 20L37 20L37 19L38 19L38 18ZM32 19L32 20L33 20L33 19ZM22 20L22 21L21 21L21 22L22 22L22 23L21 23L21 24L22 24L22 26L20 26L20 27L19 27L19 28L22 28L22 30L24 30L24 29L23 29L23 28L24 28L24 26L25 26L25 28L27 28L27 27L29 27L29 26L30 26L30 25L32 25L32 24L30 24L30 23L31 23L31 22L29 22L29 24L30 24L30 25L29 25L29 26L28 26L28 24L27 24L27 25L26 25L26 26L25 26L25 24L23 24L23 23L24 23L24 21L23 21L23 20ZM22 21L22 22L23 22L23 21ZM3 22L3 23L2 23L2 24L3 24L3 23L4 23L4 22ZM13 24L13 25L14 25L14 24ZM36 24L36 25L37 25L37 26L35 26L35 27L39 27L39 25L37 25L37 24ZM22 26L22 27L23 27L23 26ZM8 27L8 29L9 29L9 28L11 28L11 30L10 30L10 31L12 31L12 30L15 30L15 29L14 29L14 28L12 28L12 27ZM6 28L6 29L7 29L7 28ZM30 28L30 29L31 29L31 28ZM34 28L34 29L37 29L37 30L38 30L38 28ZM2 30L2 31L3 31L3 32L4 32L4 31L5 31L5 30ZM15 31L15 32L16 32L16 31ZM37 31L37 32L38 32L38 31ZM10 32L10 34L11 34L11 32ZM24 33L24 34L25 34L25 33ZM33 33L33 36L36 36L36 33ZM37 33L37 34L38 34L38 35L37 35L37 38L40 38L40 37L39 37L39 36L40 36L40 35L39 35L39 34L38 34L38 33ZM21 34L21 35L22 35L22 34ZM34 34L34 35L35 35L35 34ZM30 35L30 36L31 36L31 35ZM22 37L22 38L23 38L23 37ZM33 37L33 39L32 39L32 40L33 40L33 39L35 39L35 38L36 38L36 37ZM13 40L13 41L17 41L17 40ZM0 0L0 7L7 7L7 0ZM1 1L1 6L6 6L6 1ZM2 2L2 5L5 5L5 2ZM34 0L34 7L41 7L41 0ZM35 1L35 6L40 6L40 1ZM36 2L36 5L39 5L39 2ZM0 34L0 41L7 41L7 34ZM1 35L1 40L6 40L6 35ZM2 36L2 39L5 39L5 36Z" fill="#000000"/></g></g></svg>
