<?xml version="1.0" encoding="UTF-8"?>
<svg xmlns="http://www.w3.org/2000/svg" version="1.1" width="200" height="200" viewBox="0 0 200 200"><rect x="0" y="0" width="200" height="200" fill="#ffffff"/><g transform="scale(6.897)"><g transform="translate(0,0)"><path fill-rule="evenodd" d="M9 0L9 4L8 4L8 5L9 5L9 6L8 6L8 8L6 8L6 9L7 9L7 10L5 10L5 9L4 9L4 8L2 8L2 9L3 9L3 12L2 12L2 10L1 10L1 12L0 12L0 13L1 13L1 12L2 12L2 15L0 15L0 17L1 17L1 18L0 18L0 19L1 19L1 18L3 18L3 20L1 20L1 21L3 21L3 20L4 20L4 18L5 18L5 19L7 19L7 20L5 20L5 21L8 21L8 23L9 23L9 21L10 21L10 20L11 20L11 18L10 18L10 17L12 17L12 18L13 18L13 19L15 19L15 17L14 17L14 18L13 18L13 16L12 16L12 15L15 15L15 16L16 16L16 19L17 19L17 18L18 18L18 19L19 19L19 18L20 18L20 20L19 20L19 21L20 21L20 23L18 23L18 21L17 21L17 22L16 22L16 21L13 21L13 20L12 20L12 21L11 21L11 22L10 22L10 24L9 24L9 25L8 25L8 27L9 27L9 29L10 29L10 27L11 27L11 29L14 29L14 28L12 28L12 27L14 27L14 26L15 26L15 29L18 29L18 28L19 28L19 29L20 29L20 28L19 28L19 27L18 27L18 26L20 26L20 25L23 25L23 26L24 26L24 27L22 27L22 29L23 29L23 28L25 28L25 26L24 26L24 25L26 25L26 23L25 23L25 22L26 22L26 18L29 18L29 17L26 17L26 16L25 16L25 15L24 15L24 16L23 16L23 17L21 17L21 18L20 18L20 17L19 17L19 15L20 15L20 14L21 14L21 13L20 13L20 12L22 12L22 9L23 9L23 13L22 13L22 15L23 15L23 14L24 14L24 13L25 13L25 14L26 14L26 15L27 15L27 16L28 16L28 15L29 15L29 14L28 14L28 12L29 12L29 11L28 11L28 12L27 12L27 11L26 11L26 10L29 10L29 9L26 9L26 10L24 10L24 9L25 9L25 8L24 8L24 9L23 9L23 8L21 8L21 9L20 9L20 10L19 10L19 8L20 8L20 7L21 7L21 3L20 3L20 2L18 2L18 1L17 1L17 0L15 0L15 1L14 1L14 2L15 2L15 3L13 3L13 0L11 0L11 1L10 1L10 0ZM16 1L16 4L15 4L15 5L18 5L18 2L17 2L17 1ZM19 3L19 4L20 4L20 3ZM9 4L9 5L10 5L10 4ZM11 4L11 8L10 8L10 9L11 9L11 10L10 10L10 11L11 11L11 12L12 12L12 14L14 14L14 11L15 11L15 12L16 12L16 11L15 11L15 9L16 9L16 8L15 8L15 9L14 9L14 10L12 10L12 9L13 9L13 8L14 8L14 6L13 6L13 7L12 7L12 5L14 5L14 4ZM19 5L19 7L18 7L18 6L17 6L17 9L18 9L18 8L19 8L19 7L20 7L20 5ZM9 6L9 7L10 7L10 6ZM15 6L15 7L16 7L16 6ZM11 8L11 9L12 9L12 8ZM7 10L7 11L4 11L4 12L3 12L3 15L4 15L4 16L3 16L3 17L5 17L5 18L7 18L7 19L8 19L8 21L9 21L9 19L8 19L8 18L9 18L9 17L10 17L10 16L11 16L11 15L10 15L10 14L11 14L11 13L9 13L9 11L8 11L8 10ZM18 10L18 12L20 12L20 11L19 11L19 10ZM12 11L12 12L13 12L13 11ZM25 11L25 13L27 13L27 12L26 12L26 11ZM5 12L5 14L4 14L4 15L5 15L5 16L6 16L6 17L7 17L7 16L10 16L10 15L8 15L8 12ZM6 13L6 14L7 14L7 13ZM17 13L17 14L18 14L18 15L19 15L19 14L20 14L20 13ZM6 15L6 16L7 16L7 15ZM1 16L1 17L2 17L2 16ZM24 16L24 17L23 17L23 18L22 18L22 19L21 19L21 20L22 20L22 19L24 19L24 18L26 18L26 17L25 17L25 16ZM18 17L18 18L19 18L19 17ZM27 20L27 21L28 21L28 24L27 24L27 25L28 25L28 24L29 24L29 21L28 21L28 20ZM21 21L21 24L24 24L24 21ZM22 22L22 23L23 23L23 22ZM13 23L13 24L15 24L15 23ZM17 23L17 24L16 24L16 27L17 27L17 26L18 26L18 25L20 25L20 24L18 24L18 23ZM9 25L9 26L12 26L12 25ZM13 25L13 26L14 26L14 25ZM26 26L26 29L27 29L27 28L29 28L29 26L28 26L28 27L27 27L27 26ZM0 0L0 7L7 7L7 0ZM1 1L1 6L6 6L6 1ZM2 2L2 5L5 5L5 2ZM22 0L22 7L29 7L29 0ZM23 1L23 6L28 6L28 1ZM24 2L24 5L27 5L27 2ZM0 22L0 29L7 29L7 22ZM1 23L1 28L6 28L6 23ZM2 24L2 27L5 27L5 24Z" fill="#000000"/></g></g></svg>
