<?xml version="1.0" encoding="UTF-8"?>
<svg xmlns="http://www.w3.org/2000/svg" version="1.1" width="200" height="200" viewBox="0 0 200 200"><rect x="0" y="0" width="200" height="200" fill="#ffffff"/><g transform="scale(4.878)"><g transform="translate(0,0)"><path fill-rule="evenodd" d="M8 0L8 3L9 3L9 4L10 4L10 2L9 2L9 1L10 1L10 0ZM11 0L11 5L8 5L8 9L7 9L7 8L6 8L6 9L7 9L7 10L4 10L4 9L5 9L5 8L2 8L2 10L1 10L1 12L0 12L0 13L1 13L1 14L2 14L2 13L3 13L3 14L4 14L4 15L5 15L5 16L4 16L4 18L3 18L3 16L2 16L2 15L0 15L0 16L1 16L1 17L0 17L0 20L1 20L1 21L0 21L0 23L1 23L1 22L3 22L3 23L2 23L2 26L3 26L3 23L4 23L4 22L5 22L5 23L7 23L7 24L6 24L6 25L7 25L7 24L9 24L9 25L8 25L8 26L4 26L4 27L1 27L1 28L0 28L0 33L1 33L1 29L2 29L2 30L3 30L3 29L4 29L4 27L5 27L5 30L4 30L4 31L2 31L2 32L3 32L3 33L8 33L8 34L9 34L9 35L10 35L10 41L13 41L13 40L14 40L14 41L18 41L18 40L17 40L17 39L15 39L15 38L18 38L18 39L19 39L19 38L18 38L18 36L19 36L19 37L22 37L22 38L21 38L21 39L20 39L20 40L19 40L19 41L20 41L20 40L21 40L21 41L23 41L23 40L22 40L22 38L23 38L23 37L29 37L29 38L30 38L30 40L28 40L28 38L25 38L25 39L24 39L24 41L27 41L27 40L28 40L28 41L31 41L31 40L33 40L33 41L34 41L34 40L33 40L33 38L34 38L34 39L35 39L35 40L36 40L36 39L37 39L37 40L40 40L40 38L41 38L41 37L39 37L39 36L38 36L38 35L40 35L40 36L41 36L41 35L40 35L40 34L41 34L41 33L39 33L39 32L37 32L37 30L38 30L38 31L40 31L40 30L41 30L41 29L39 29L39 30L38 30L38 29L35 29L35 30L34 30L34 31L36 31L36 32L33 32L33 31L32 31L32 30L33 30L33 29L34 29L34 28L33 28L33 29L32 29L32 30L30 30L30 29L31 29L31 28L32 28L32 27L34 27L34 26L35 26L35 25L36 25L36 27L35 27L35 28L38 28L38 26L39 26L39 28L40 28L40 26L41 26L41 23L39 23L39 24L40 24L40 26L39 26L39 25L36 25L36 24L37 24L37 21L39 21L39 20L36 20L36 19L35 19L35 17L36 17L36 18L37 18L37 19L38 19L38 18L41 18L41 16L40 16L40 17L39 17L39 16L38 16L38 15L40 15L40 14L41 14L41 12L39 12L39 13L40 13L40 14L38 14L38 15L36 15L36 14L37 14L37 13L36 13L36 14L35 14L35 15L36 15L36 16L35 16L35 17L34 17L34 16L32 16L32 17L31 17L31 16L29 16L29 15L31 15L31 13L33 13L33 14L32 14L32 15L34 15L34 13L35 13L35 10L37 10L37 11L36 11L36 12L38 12L38 11L40 11L40 10L41 10L41 8L38 8L38 9L40 9L40 10L37 10L37 9L36 9L36 8L33 8L33 6L32 6L32 7L31 7L31 5L33 5L33 4L30 4L30 5L29 5L29 6L28 6L28 5L27 5L27 4L25 4L25 3L24 3L24 2L25 2L25 1L24 1L24 0L23 0L23 1L22 1L22 0L19 0L19 1L17 1L17 0L14 0L14 2L13 2L13 0ZM26 0L26 1L27 1L27 2L26 2L26 3L28 3L28 4L29 4L29 3L31 3L31 2L30 2L30 1L33 1L33 0L29 0L29 1L27 1L27 0ZM19 1L19 3L18 3L18 2L17 2L17 3L18 3L18 4L17 4L17 8L16 8L16 6L15 6L15 4L16 4L16 2L15 2L15 3L13 3L13 4L12 4L12 5L11 5L11 7L10 7L10 6L9 6L9 9L10 9L10 10L7 10L7 11L6 11L6 12L7 12L7 13L4 13L4 14L7 14L7 15L6 15L6 16L7 16L7 17L5 17L5 18L4 18L4 20L5 20L5 19L6 19L6 20L7 20L7 21L6 21L6 22L7 22L7 21L8 21L8 23L9 23L9 24L10 24L10 23L11 23L11 27L6 27L6 28L9 28L9 30L7 30L7 29L6 29L6 30L5 30L5 31L6 31L6 32L7 32L7 31L9 31L9 30L10 30L10 32L8 32L8 33L9 33L9 34L12 34L12 36L11 36L11 37L12 37L12 39L11 39L11 40L12 40L12 39L13 39L13 37L15 37L15 36L13 36L13 35L15 35L15 32L17 32L17 34L18 34L18 35L16 35L16 36L18 36L18 35L19 35L19 34L21 34L21 36L23 36L23 35L22 35L22 34L21 34L21 33L19 33L19 32L23 32L23 33L24 33L24 34L26 34L26 35L27 35L27 36L29 36L29 37L32 37L32 38L31 38L31 39L32 39L32 38L33 38L33 37L32 37L32 35L31 35L31 34L30 34L30 35L31 35L31 36L29 36L29 35L27 35L27 34L29 34L29 33L27 33L27 31L26 31L26 30L27 30L27 28L25 28L25 27L26 27L26 26L25 26L25 25L26 25L26 24L25 24L25 23L24 23L24 22L23 22L23 21L24 21L24 20L25 20L25 22L31 22L31 23L29 23L29 24L28 24L28 25L27 25L27 26L28 26L28 28L31 28L31 27L32 27L32 26L34 26L34 25L35 25L35 24L36 24L36 23L35 23L35 22L36 22L36 21L35 21L35 19L34 19L34 18L33 18L33 17L32 17L32 18L31 18L31 17L29 17L29 16L28 16L28 15L29 15L29 14L30 14L30 13L29 13L29 12L30 12L30 11L31 11L31 12L33 12L33 13L34 13L34 12L33 12L33 11L34 11L34 10L33 10L33 9L32 9L32 8L31 8L31 7L30 7L30 6L29 6L29 8L30 8L30 9L26 9L26 8L25 8L25 7L26 7L26 6L27 6L27 8L28 8L28 6L27 6L27 5L24 5L24 6L23 6L23 7L22 7L22 6L21 6L21 5L22 5L22 4L23 4L23 3L22 3L22 4L21 4L21 5L20 5L20 3L21 3L21 1ZM32 2L32 3L33 3L33 2ZM12 5L12 7L11 7L11 8L12 8L12 7L13 7L13 5ZM18 5L18 8L19 8L19 10L18 10L18 9L15 9L15 6L14 6L14 9L13 9L13 10L14 10L14 11L7 11L7 12L8 12L8 13L9 13L9 15L8 15L8 17L7 17L7 18L6 18L6 19L7 19L7 20L8 20L8 19L10 19L10 20L9 20L9 22L11 22L11 21L10 21L10 20L12 20L12 16L9 16L9 15L10 15L10 14L11 14L11 15L12 15L12 13L11 13L11 12L14 12L14 15L16 15L16 16L15 16L15 17L13 17L13 19L14 19L14 18L15 18L15 17L16 17L16 16L17 16L17 17L18 17L18 16L19 16L19 17L20 17L20 19L18 19L18 18L17 18L17 20L18 20L18 22L17 22L17 21L16 21L16 19L15 19L15 21L14 21L14 20L13 20L13 21L14 21L14 22L12 22L12 23L15 23L15 27L16 27L16 28L14 28L14 27L13 27L13 26L12 26L12 27L11 27L11 28L10 28L10 29L11 29L11 30L12 30L12 31L11 31L11 32L10 32L10 33L13 33L13 34L14 34L14 33L13 33L13 32L12 32L12 31L13 31L13 30L14 30L14 29L15 29L15 31L14 31L14 32L15 32L15 31L18 31L18 32L19 32L19 31L20 31L20 30L22 30L22 31L23 31L23 30L24 30L24 33L26 33L26 32L25 32L25 30L26 30L26 29L25 29L25 28L24 28L24 29L23 29L23 27L25 27L25 26L24 26L24 24L23 24L23 22L22 22L22 21L23 21L23 20L24 20L24 19L25 19L25 20L26 20L26 21L29 21L29 19L28 19L28 18L27 18L27 19L26 19L26 18L24 18L24 17L22 17L22 16L25 16L25 17L27 17L27 16L25 16L25 15L20 15L20 14L19 14L19 10L21 10L21 12L20 12L20 13L21 13L21 14L22 14L22 13L23 13L23 14L24 14L24 13L25 13L25 14L26 14L26 13L25 13L25 11L26 11L26 12L27 12L27 14L29 14L29 13L28 13L28 12L27 12L27 11L28 11L28 10L27 10L27 11L26 11L26 9L25 9L25 8L24 8L24 7L25 7L25 6L24 6L24 7L23 7L23 8L22 8L22 7L21 7L21 6L20 6L20 5ZM19 6L19 8L21 8L21 7L20 7L20 6ZM11 9L11 10L12 10L12 9ZM14 9L14 10L15 10L15 9ZM22 9L22 11L25 11L25 9ZM30 9L30 10L29 10L29 11L30 11L30 10L32 10L32 9ZM2 10L2 11L3 11L3 10ZM17 10L17 11L18 11L18 10ZM4 11L4 12L5 12L5 11ZM14 11L14 12L16 12L16 13L17 13L17 16L18 16L18 15L19 15L19 14L18 14L18 13L17 13L17 12L16 12L16 11ZM21 12L21 13L22 13L22 12ZM20 16L20 17L21 17L21 16ZM36 16L36 17L37 17L37 18L38 18L38 16ZM1 17L1 18L2 18L2 19L1 19L1 20L3 20L3 18L2 18L2 17ZM7 18L7 19L8 19L8 18ZM21 18L21 19L22 19L22 20L21 20L21 21L22 21L22 20L23 20L23 19L22 19L22 18ZM30 18L30 19L31 19L31 18ZM32 18L32 21L31 21L31 20L30 20L30 21L31 21L31 22L32 22L32 21L34 21L34 22L33 22L33 23L32 23L32 25L31 25L31 24L29 24L29 25L28 25L28 26L30 26L30 25L31 25L31 26L32 26L32 25L34 25L34 24L35 24L35 23L34 23L34 22L35 22L35 21L34 21L34 20L33 20L33 18ZM40 20L40 21L41 21L41 20ZM15 21L15 23L16 23L16 24L17 24L17 25L16 25L16 27L18 27L18 30L19 30L19 29L21 29L21 28L22 28L22 27L23 27L23 24L22 24L22 22L20 22L20 21L19 21L19 22L18 22L18 24L17 24L17 22L16 22L16 21ZM19 23L19 24L18 24L18 25L19 25L19 24L20 24L20 23ZM33 23L33 24L34 24L34 23ZM13 24L13 25L14 25L14 24ZM21 24L21 25L22 25L22 24ZM0 25L0 26L1 26L1 25ZM19 26L19 28L21 28L21 26ZM12 27L12 28L13 28L13 29L14 29L14 28L13 28L13 27ZM16 28L16 29L17 29L17 28ZM28 29L28 30L29 30L29 31L28 31L28 32L30 32L30 33L31 33L31 31L30 31L30 30L29 30L29 29ZM6 30L6 31L7 31L7 30ZM33 33L33 36L36 36L36 33ZM37 33L37 35L38 35L38 34L39 34L39 33ZM34 34L34 35L35 35L35 34ZM8 36L8 39L9 39L9 36ZM12 36L12 37L13 37L13 36ZM37 36L37 37L38 37L38 36ZM34 37L34 38L36 38L36 37ZM37 38L37 39L38 39L38 38ZM0 0L0 7L7 7L7 0ZM1 1L1 6L6 6L6 1ZM2 2L2 5L5 5L5 2ZM34 0L34 7L41 7L41 0ZM35 1L35 6L40 6L40 1ZM36 2L36 5L39 5L39 2ZM0 34L0 41L7 41L7 34ZM1 35L1 40L6 40L6 35ZM2 36L2 39L5 39L5 36Z" fill="#000000"/></g></g></svg>
