<?xml version="1.0" encoding="UTF-8"?>
<svg xmlns="http://www.w3.org/2000/svg" version="1.1" width="200" height="200" viewBox="0 0 200 200"><rect x="0" y="0" width="200" height="200" fill="#ffffff"/><g transform="scale(6.897)"><g transform="translate(0,0)"><path fill-rule="evenodd" d="M9 0L9 1L8 1L8 7L9 7L9 8L5 8L5 9L8 9L8 10L9 10L9 9L10 9L10 11L9 11L9 12L8 12L8 11L7 11L7 10L6 10L6 11L5 11L5 10L2 10L2 9L3 9L3 8L2 8L2 9L0 9L0 10L2 10L2 11L4 11L4 12L1 12L1 11L0 11L0 12L1 12L1 14L2 14L2 13L4 13L4 12L6 12L6 13L7 13L7 14L5 14L5 16L4 16L4 15L0 15L0 16L4 16L4 17L1 17L1 18L0 18L0 19L2 19L2 20L0 20L0 21L3 21L3 20L4 20L4 21L5 21L5 20L4 20L4 19L5 19L5 18L4 18L4 17L9 17L9 18L8 18L8 20L6 20L6 21L8 21L8 24L9 24L9 26L8 26L8 27L9 27L9 28L10 28L10 29L16 29L16 27L15 27L15 25L16 25L16 26L18 26L18 27L17 27L17 28L18 28L18 29L21 29L21 28L20 28L20 27L22 27L22 26L21 26L21 25L25 25L25 23L26 23L26 21L27 21L27 20L23 20L23 19L26 19L26 18L28 18L28 17L29 17L29 16L27 16L27 17L25 17L25 16L23 16L23 15L25 15L25 14L26 14L26 13L29 13L29 12L27 12L27 11L29 11L29 9L28 9L28 8L23 8L23 9L28 9L28 10L27 10L27 11L25 11L25 10L22 10L22 11L21 11L21 12L18 12L18 11L20 11L20 10L19 10L19 8L21 8L21 9L22 9L22 8L21 8L21 3L19 3L19 4L16 4L16 5L15 5L15 6L14 6L14 4L15 4L15 3L14 3L14 4L13 4L13 2L12 2L12 4L11 4L11 3L10 3L10 2L11 2L11 0ZM12 0L12 1L13 1L13 0ZM15 0L15 1L16 1L16 0ZM17 0L17 1L19 1L19 2L20 2L20 0ZM9 1L9 2L10 2L10 1ZM17 2L17 3L18 3L18 2ZM12 4L12 5L10 5L10 6L9 6L9 7L10 7L10 6L11 6L11 9L12 9L12 10L11 10L11 11L12 11L12 10L13 10L13 9L12 9L12 5L13 5L13 4ZM19 4L19 5L16 5L16 6L15 6L15 7L14 7L14 6L13 6L13 7L14 7L14 9L17 9L17 8L18 8L18 6L19 6L19 7L20 7L20 6L19 6L19 5L20 5L20 4ZM16 6L16 8L17 8L17 6ZM14 10L14 11L15 11L15 10ZM16 10L16 13L17 13L17 14L15 14L15 13L14 13L14 12L13 12L13 14L12 14L12 15L11 15L11 14L10 14L10 16L9 16L9 17L10 17L10 18L11 18L11 17L12 17L12 19L13 19L13 20L12 20L12 21L11 21L11 22L10 22L10 19L9 19L9 20L8 20L8 21L9 21L9 22L10 22L10 23L9 23L9 24L10 24L10 23L11 23L11 22L12 22L12 23L13 23L13 24L15 24L15 22L14 22L14 23L13 23L13 21L15 21L15 19L14 19L14 17L15 17L15 16L16 16L16 18L18 18L18 19L16 19L16 20L17 20L17 21L19 21L19 22L20 22L20 20L19 20L19 19L20 19L20 17L18 17L18 15L17 15L17 14L18 14L18 13L17 13L17 11L18 11L18 10ZM6 11L6 12L7 12L7 13L8 13L8 12L7 12L7 11ZM23 11L23 14L22 14L22 12L21 12L21 13L19 13L19 14L21 14L21 15L19 15L19 16L21 16L21 18L25 18L25 17L23 17L23 16L22 16L22 15L23 15L23 14L25 14L25 13L24 13L24 12L25 12L25 11ZM9 12L9 13L11 13L11 12ZM7 14L7 15L6 15L6 16L7 16L7 15L8 15L8 14ZM13 14L13 15L14 15L14 14ZM27 14L27 15L29 15L29 14ZM16 15L16 16L17 16L17 15ZM10 16L10 17L11 17L11 16ZM3 18L3 19L4 19L4 18ZM6 18L6 19L7 19L7 18ZM21 19L21 20L22 20L22 19ZM21 21L21 24L24 24L24 21ZM16 22L16 23L17 23L17 24L18 24L18 26L19 26L19 27L18 27L18 28L19 28L19 27L20 27L20 26L19 26L19 24L20 24L20 23L19 23L19 24L18 24L18 22ZM22 22L22 23L23 23L23 22ZM28 22L28 23L29 23L29 22ZM11 24L11 25L10 25L10 26L12 26L12 24ZM26 24L26 26L27 26L27 27L28 27L28 28L26 28L26 27L25 27L25 28L24 28L24 26L23 26L23 28L22 28L22 29L23 29L23 28L24 28L24 29L29 29L29 26L27 26L27 25L28 25L28 24ZM13 25L13 26L14 26L14 25ZM11 27L11 28L13 28L13 27ZM0 0L0 7L7 7L7 0ZM1 1L1 6L6 6L6 1ZM2 2L2 5L5 5L5 2ZM22 0L22 7L29 7L29 0ZM23 1L23 6L28 6L28 1ZM24 2L24 5L27 5L27 2ZM0 22L0 29L7 29L7 22ZM1 23L1 28L6 28L6 23ZM2 24L2 27L5 27L5 24Z" fill="#000000"/></g></g></svg>
