<?xml version="1.0" encoding="UTF-8"?>
<svg xmlns="http://www.w3.org/2000/svg" version="1.1" width="200" height="200" viewBox="0 0 200 200"><rect x="0" y="0" width="200" height="200" fill="#ffffff"/><g transform="scale(6.897)"><g transform="translate(0,0)"><path fill-rule="evenodd" d="M9 0L9 1L8 1L8 7L9 7L9 8L5 8L5 10L4 10L4 9L3 9L3 8L2 8L2 9L1 9L1 10L0 10L0 11L1 11L1 10L2 10L2 11L3 11L3 14L0 14L0 17L1 17L1 18L0 18L0 19L7 19L7 20L6 20L6 21L8 21L8 24L9 24L9 25L10 25L10 28L9 28L9 29L11 29L11 23L9 23L9 22L10 22L10 21L9 21L9 20L10 20L10 19L11 19L11 22L14 22L14 23L15 23L15 22L17 22L17 23L16 23L16 24L15 24L15 26L16 26L16 25L17 25L17 26L18 26L18 25L19 25L19 26L20 26L20 27L21 27L21 29L22 29L22 28L24 28L24 29L25 29L25 28L24 28L24 26L23 26L23 27L22 27L22 26L21 26L21 25L25 25L25 23L26 23L26 21L27 21L27 19L26 19L26 20L25 20L25 18L28 18L28 19L29 19L29 18L28 18L28 17L29 17L29 16L28 16L28 15L27 15L27 17L25 17L25 16L22 16L22 15L25 15L25 14L26 14L26 13L29 13L29 12L27 12L27 11L29 11L29 9L28 9L28 8L23 8L23 10L22 10L22 11L21 11L21 9L22 9L22 8L20 8L20 7L21 7L21 0L19 0L19 1L20 1L20 2L19 2L19 3L20 3L20 5L16 5L16 4L17 4L17 3L18 3L18 2L16 2L16 1L15 1L15 0L14 0L14 1L15 1L15 2L13 2L13 3L11 3L11 2L12 2L12 1L13 1L13 0L12 0L12 1L11 1L11 0ZM17 0L17 1L18 1L18 0ZM9 1L9 4L10 4L10 6L9 6L9 7L10 7L10 8L9 8L9 10L10 10L10 12L8 12L8 14L7 14L7 13L6 13L6 12L7 12L7 11L6 11L6 12L5 12L5 11L4 11L4 10L3 10L3 11L4 11L4 12L5 12L5 13L4 13L4 16L3 16L3 15L1 15L1 17L5 17L5 18L7 18L7 19L10 19L10 17L9 17L9 18L7 18L7 17L8 17L8 16L10 16L10 15L9 15L9 14L10 14L10 13L11 13L11 8L12 8L12 10L15 10L15 12L16 12L16 11L17 11L17 14L16 14L16 13L14 13L14 11L12 11L12 12L13 12L13 13L14 13L14 14L12 14L12 15L14 15L14 16L13 16L13 18L14 18L14 19L12 19L12 21L14 21L14 20L15 20L15 21L17 21L17 22L18 22L18 24L17 24L17 25L18 25L18 24L20 24L20 23L19 23L19 22L20 22L20 21L19 21L19 20L22 20L22 19L21 19L21 15L19 15L19 14L22 14L22 12L21 12L21 13L20 13L20 12L19 12L19 11L20 11L20 8L19 8L19 7L20 7L20 6L19 6L19 7L18 7L18 6L17 6L17 7L16 7L16 6L15 6L15 7L14 7L14 4L13 4L13 5L12 5L12 4L10 4L10 2L11 2L11 1ZM15 3L15 4L16 4L16 3ZM11 5L11 6L10 6L10 7L11 7L11 6L12 6L12 7L13 7L13 8L14 8L14 9L15 9L15 8L14 8L14 7L13 7L13 6L12 6L12 5ZM17 7L17 10L18 10L18 7ZM6 9L6 10L8 10L8 9ZM25 9L25 10L24 10L24 11L27 11L27 10L28 10L28 9ZM1 12L1 13L2 13L2 12ZM18 12L18 13L19 13L19 12ZM23 12L23 14L25 14L25 13L24 13L24 12ZM5 14L5 17L7 17L7 16L8 16L8 15L7 15L7 14ZM15 14L15 15L16 15L16 18L17 18L17 17L18 17L18 14L17 14L17 15L16 15L16 14ZM6 15L6 16L7 16L7 15ZM11 16L11 17L12 17L12 16ZM19 16L19 17L20 17L20 16ZM22 17L22 18L25 18L25 17ZM19 18L19 19L18 19L18 20L19 20L19 19L20 19L20 18ZM16 19L16 20L17 20L17 19ZM23 19L23 20L24 20L24 19ZM0 20L0 21L5 21L5 20ZM21 21L21 24L24 24L24 21ZM22 22L22 23L23 23L23 22ZM27 22L27 24L26 24L26 25L29 25L29 23L28 23L28 22ZM12 23L12 25L13 25L13 23ZM8 26L8 27L9 27L9 26ZM13 26L13 27L12 27L12 28L13 28L13 27L14 27L14 26ZM25 26L25 27L28 27L28 28L26 28L26 29L29 29L29 26ZM15 27L15 29L16 29L16 28L17 28L17 27ZM18 28L18 29L19 29L19 28ZM0 0L0 7L7 7L7 0ZM1 1L1 6L6 6L6 1ZM2 2L2 5L5 5L5 2ZM22 0L22 7L29 7L29 0ZM23 1L23 6L28 6L28 1ZM24 2L24 5L27 5L27 2ZM0 22L0 29L7 29L7 22ZM1 23L1 28L6 28L6 23ZM2 24L2 27L5 27L5 24Z" fill="#000000"/></g></g></svg>
