<?xml version="1.0" encoding="UTF-8"?>
<svg xmlns="http://www.w3.org/2000/svg" version="1.1" width="200" height="200" viewBox="0 0 200 200"><rect x="0" y="0" width="200" height="200" fill="#ffffff"/><g transform="scale(6.897)"><g transform="translate(0,0)"><path fill-rule="evenodd" d="M9 0L9 1L11 1L11 2L10 2L10 3L11 3L11 4L9 4L9 2L8 2L8 4L9 4L9 6L8 6L8 7L9 7L9 6L10 6L10 8L9 8L9 9L10 9L10 8L11 8L11 6L10 6L10 5L11 5L11 4L12 4L12 8L13 8L13 9L12 9L12 10L13 10L13 9L14 9L14 8L15 8L15 6L16 6L16 7L17 7L17 8L16 8L16 9L17 9L17 10L16 10L16 11L17 11L17 12L15 12L15 10L14 10L14 15L13 15L13 16L12 16L12 15L10 15L10 14L12 14L12 13L13 13L13 11L11 11L11 10L8 10L8 8L6 8L6 9L7 9L7 10L5 10L5 8L3 8L3 10L1 10L1 9L0 9L0 12L1 12L1 14L3 14L3 15L2 15L2 16L0 16L0 21L7 21L7 20L10 20L10 19L11 19L11 21L10 21L10 23L9 23L9 21L8 21L8 23L9 23L9 24L8 24L8 26L9 26L9 25L10 25L10 27L11 27L11 29L12 29L12 27L14 27L14 28L13 28L13 29L14 29L14 28L15 28L15 29L17 29L17 27L18 27L18 29L20 29L20 28L21 28L21 29L23 29L23 28L24 28L24 29L25 29L25 27L23 27L23 28L22 28L22 26L21 26L21 27L20 27L20 28L19 28L19 27L18 27L18 26L19 26L19 25L24 25L24 26L25 26L25 22L27 22L27 24L26 24L26 26L27 26L27 27L29 27L29 26L27 26L27 25L29 25L29 24L28 24L28 23L29 23L29 21L28 21L28 22L27 22L27 21L26 21L26 20L27 20L27 19L26 19L26 18L28 18L28 19L29 19L29 17L28 17L28 16L29 16L29 15L27 15L27 13L29 13L29 11L28 11L28 10L27 10L27 8L25 8L25 9L26 9L26 10L25 10L25 12L24 12L24 16L23 16L23 12L22 12L22 11L21 11L21 10L19 10L19 9L17 9L17 8L19 8L19 6L20 6L20 8L21 8L21 4L19 4L19 3L20 3L20 1L21 1L21 0L19 0L19 1L18 1L18 0L17 0L17 1L15 1L15 0L14 0L14 1L13 1L13 2L12 2L12 1L11 1L11 0ZM17 1L17 2L14 2L14 4L17 4L17 5L16 5L16 6L17 6L17 7L18 7L18 6L19 6L19 4L18 4L18 3L19 3L19 2L18 2L18 1ZM12 3L12 4L13 4L13 3ZM13 5L13 7L14 7L14 6L15 6L15 5ZM22 9L22 10L23 10L23 11L24 11L24 9ZM3 10L3 11L1 11L1 12L2 12L2 13L3 13L3 12L4 12L4 11L5 11L5 14L7 14L7 15L4 15L4 16L7 16L7 15L8 15L8 13L12 13L12 12L9 12L9 11L8 11L8 13L6 13L6 12L7 12L7 11L5 11L5 10ZM17 10L17 11L19 11L19 10ZM26 10L26 11L27 11L27 12L28 12L28 11L27 11L27 10ZM17 12L17 14L16 14L16 13L15 13L15 14L16 14L16 15L15 15L15 17L14 17L14 16L13 16L13 17L12 17L12 16L11 16L11 17L12 17L12 18L11 18L11 19L13 19L13 18L14 18L14 19L15 19L15 20L12 20L12 22L11 22L11 23L10 23L10 24L11 24L11 27L12 27L12 26L13 26L13 25L14 25L14 26L15 26L15 27L17 27L17 25L18 25L18 23L16 23L16 22L18 22L18 21L19 21L19 24L20 24L20 21L19 21L19 18L20 18L20 19L21 19L21 20L22 20L22 19L21 19L21 16L20 16L20 15L21 15L21 14L22 14L22 12L21 12L21 14L20 14L20 15L19 15L19 14L18 14L18 12ZM19 12L19 13L20 13L20 12ZM25 13L25 16L26 16L26 17L27 17L27 16L26 16L26 13ZM17 14L17 15L18 15L18 14ZM9 15L9 16L8 16L8 18L7 18L7 17L3 17L3 16L2 16L2 17L1 17L1 18L2 18L2 17L3 17L3 19L2 19L2 20L3 20L3 19L4 19L4 20L7 20L7 19L8 19L8 18L9 18L9 19L10 19L10 17L9 17L9 16L10 16L10 15ZM18 16L18 17L15 17L15 19L16 19L16 20L15 20L15 22L14 22L14 21L13 21L13 24L14 24L14 23L15 23L15 22L16 22L16 20L17 20L17 21L18 21L18 20L17 20L17 18L18 18L18 17L19 17L19 16ZM22 16L22 17L23 17L23 16ZM4 18L4 19L7 19L7 18ZM23 19L23 20L26 20L26 19ZM21 21L21 24L24 24L24 21ZM22 22L22 23L23 23L23 22ZM11 23L11 24L12 24L12 23ZM15 24L15 25L17 25L17 24ZM9 28L9 29L10 29L10 28ZM27 28L27 29L28 29L28 28ZM0 0L0 7L7 7L7 0ZM1 1L1 6L6 6L6 1ZM2 2L2 5L5 5L5 2ZM22 0L22 7L29 7L29 0ZM23 1L23 6L28 6L28 1ZM24 2L24 5L27 5L27 2ZM0 22L0 29L7 29L7 22ZM1 23L1 28L6 28L6 23ZM2 24L2 27L5 27L5 24Z" fill="#000000"/></g></g></svg>
