<?xml version="1.0" encoding="UTF-8"?>
<svg xmlns="http://www.w3.org/2000/svg" version="1.1" width="200" height="200" viewBox="0 0 200 200"><rect x="0" y="0" width="200" height="200" fill="#ffffff"/><g transform="scale(6.897)"><g transform="translate(0,0)"><path fill-rule="evenodd" d="M9 0L9 2L11 2L11 3L10 3L10 4L12 4L12 7L11 7L11 5L9 5L9 4L8 4L8 5L9 5L9 6L8 6L8 8L6 8L6 9L4 9L4 8L2 8L2 9L1 9L1 10L0 10L0 11L1 11L1 10L3 10L3 12L1 12L1 15L0 15L0 16L1 16L1 15L2 15L2 14L3 14L3 15L4 15L4 13L5 13L5 14L6 14L6 15L7 15L7 16L6 16L6 17L7 17L7 18L6 18L6 19L7 19L7 18L8 18L8 20L5 20L5 19L4 19L4 20L5 20L5 21L8 21L8 23L10 23L10 22L11 22L11 23L12 23L12 24L10 24L10 26L9 26L9 25L8 25L8 27L9 27L9 29L14 29L14 27L15 27L15 28L17 28L17 29L18 29L18 28L19 28L19 29L20 29L20 28L19 28L19 26L20 26L20 25L23 25L23 26L24 26L24 27L22 27L22 29L23 29L23 28L25 28L25 29L27 29L27 28L29 28L29 26L28 26L28 27L26 27L26 26L24 26L24 25L26 25L26 23L25 23L25 22L26 22L26 20L27 20L27 24L28 24L28 25L29 25L29 21L28 21L28 20L27 20L27 18L29 18L29 17L26 17L26 16L25 16L25 15L24 15L24 16L23 16L23 17L21 17L21 18L20 18L20 17L19 17L19 16L18 16L18 15L17 15L17 14L16 14L16 13L15 13L15 12L16 12L16 11L15 11L15 10L14 10L14 8L16 8L16 9L17 9L17 10L19 10L19 11L17 11L17 13L18 13L18 14L19 14L19 15L20 15L20 14L21 14L21 13L20 13L20 12L22 12L22 9L23 9L23 13L22 13L22 15L23 15L23 14L24 14L24 13L25 13L25 14L26 14L26 15L27 15L27 16L28 16L28 15L29 15L29 14L28 14L28 15L27 15L27 13L28 13L28 12L29 12L29 11L28 11L28 12L27 12L27 10L29 10L29 9L25 9L25 8L24 8L24 9L23 9L23 8L21 8L21 3L20 3L20 2L18 2L18 1L17 1L17 2L16 2L16 4L17 4L17 2L18 2L18 4L19 4L19 5L14 5L14 4L15 4L15 0L12 0L12 1L11 1L11 0ZM13 1L13 2L12 2L12 3L13 3L13 4L14 4L14 3L13 3L13 2L14 2L14 1ZM19 3L19 4L20 4L20 3ZM13 5L13 7L12 7L12 8L11 8L11 7L10 7L10 6L9 6L9 9L6 9L6 10L5 10L5 11L6 11L6 12L5 12L5 13L6 13L6 14L8 14L8 15L9 15L9 14L10 14L10 16L7 16L7 17L8 17L8 18L9 18L9 17L11 17L11 14L12 14L12 13L13 13L13 15L12 15L12 17L13 17L13 15L14 15L14 17L15 17L15 18L12 18L12 19L11 19L11 21L12 21L12 20L13 20L13 22L12 22L12 23L13 23L13 24L14 24L14 25L11 25L11 26L10 26L10 28L11 28L11 26L13 26L13 27L12 27L12 28L13 28L13 27L14 27L14 26L15 26L15 25L16 25L16 24L18 24L18 23L17 23L17 22L19 22L19 23L20 23L20 21L18 21L18 20L20 20L20 18L17 18L17 17L18 17L18 16L16 16L16 14L15 14L15 13L13 13L13 12L15 12L15 11L13 11L13 10L12 10L12 8L14 8L14 5ZM19 5L19 7L18 7L18 6L17 6L17 9L18 9L18 8L19 8L19 10L20 10L20 9L21 9L21 8L19 8L19 7L20 7L20 5ZM15 6L15 7L16 7L16 6ZM9 9L9 10L10 10L10 9ZM24 9L24 10L25 10L25 9ZM6 10L6 11L7 11L7 12L6 12L6 13L7 13L7 12L8 12L8 14L9 14L9 13L11 13L11 11L12 11L12 10L11 10L11 11L7 11L7 10ZM19 11L19 12L20 12L20 11ZM25 11L25 13L27 13L27 12L26 12L26 11ZM3 12L3 13L4 13L4 12ZM19 13L19 14L20 14L20 13ZM14 14L14 15L15 15L15 14ZM2 16L2 19L3 19L3 18L4 18L4 17L5 17L5 16L4 16L4 17L3 17L3 16ZM24 16L24 17L23 17L23 18L22 18L22 19L21 19L21 20L22 20L22 19L24 19L24 20L25 20L25 19L24 19L24 18L26 18L26 17L25 17L25 16ZM0 18L0 19L1 19L1 18ZM9 19L9 20L8 20L8 21L9 21L9 22L10 22L10 21L9 21L9 20L10 20L10 19ZM14 19L14 21L15 21L15 19ZM16 19L16 20L18 20L18 19ZM1 20L1 21L3 21L3 20ZM16 21L16 22L15 22L15 23L14 23L14 24L16 24L16 22L17 22L17 21ZM21 21L21 24L24 24L24 21ZM22 22L22 23L23 23L23 22ZM19 24L19 25L18 25L18 26L19 26L19 25L20 25L20 24ZM16 26L16 27L17 27L17 28L18 28L18 27L17 27L17 26ZM25 27L25 28L26 28L26 27ZM0 0L0 7L7 7L7 0ZM1 1L1 6L6 6L6 1ZM2 2L2 5L5 5L5 2ZM22 0L22 7L29 7L29 0ZM23 1L23 6L28 6L28 1ZM24 2L24 5L27 5L27 2ZM0 22L0 29L7 29L7 22ZM1 23L1 28L6 28L6 23ZM2 24L2 27L5 27L5 24Z" fill="#000000"/></g></g></svg>
