<?xml version="1.0" encoding="UTF-8"?>
<svg xmlns="http://www.w3.org/2000/svg" version="1.1" width="200" height="200" viewBox="0 0 200 200"><rect x="0" y="0" width="200" height="200" fill="#ffffff"/><g transform="scale(6.897)"><g transform="translate(0,0)"><path fill-rule="evenodd" d="M8 0L8 3L9 3L9 4L10 4L10 7L9 7L9 5L8 5L8 9L9 9L9 10L11 10L11 11L12 11L12 10L11 10L11 9L12 9L12 8L13 8L13 10L14 10L14 11L13 11L13 12L14 12L14 13L15 13L15 11L16 11L16 14L17 14L17 15L15 15L15 16L14 16L14 15L13 15L13 16L12 16L12 14L13 14L13 13L12 13L12 12L9 12L9 11L8 11L8 10L6 10L6 9L7 9L7 8L6 8L6 9L5 9L5 8L2 8L2 9L1 9L1 10L0 10L0 16L1 16L1 17L0 17L0 21L1 21L1 17L2 17L2 16L4 16L4 17L5 17L5 20L2 20L2 21L8 21L8 22L9 22L9 23L10 23L10 24L8 24L8 27L9 27L9 28L10 28L10 27L9 27L9 26L11 26L11 25L13 25L13 24L14 24L14 26L15 26L15 28L13 28L13 26L12 26L12 27L11 27L11 29L12 29L12 28L13 28L13 29L17 29L17 28L18 28L18 29L25 29L25 28L26 28L26 29L28 29L28 28L29 28L29 27L28 27L28 23L29 23L29 20L28 20L28 19L27 19L27 17L28 17L28 10L29 10L29 8L26 8L26 9L27 9L27 10L25 10L25 12L24 12L24 11L22 11L22 12L23 12L23 13L21 13L21 15L22 15L22 14L23 14L23 13L24 13L24 19L25 19L25 20L23 20L23 19L22 19L22 18L20 18L20 19L21 19L21 20L20 20L20 25L19 25L19 26L18 26L18 25L16 25L16 24L15 24L15 23L14 23L14 22L16 22L16 23L18 23L18 24L19 24L19 22L18 22L18 21L19 21L19 16L18 16L18 14L19 14L19 13L20 13L20 12L21 12L21 11L20 11L20 10L22 10L22 9L23 9L23 10L24 10L24 8L21 8L21 5L20 5L20 4L21 4L21 3L20 3L20 4L19 4L19 3L18 3L18 4L17 4L17 6L16 6L16 8L15 8L15 5L16 5L16 3L17 3L17 2L16 2L16 1L17 1L17 0L16 0L16 1L15 1L15 3L14 3L14 2L12 2L12 4L11 4L11 3L9 3L9 1L10 1L10 2L11 2L11 0ZM12 0L12 1L13 1L13 0ZM18 1L18 2L19 2L19 1ZM20 1L20 2L21 2L21 1ZM14 4L14 5L11 5L11 7L12 7L12 6L13 6L13 7L14 7L14 5L15 5L15 4ZM18 4L18 6L17 6L17 7L18 7L18 6L19 6L19 7L20 7L20 6L19 6L19 4ZM9 8L9 9L10 9L10 8ZM16 8L16 9L14 9L14 10L16 10L16 11L18 11L18 10L17 10L17 9L19 9L19 10L20 10L20 9L21 9L21 8L20 8L20 9L19 9L19 8ZM3 9L3 10L2 10L2 11L1 11L1 15L2 15L2 14L3 14L3 13L5 13L5 17L6 17L6 18L7 18L7 19L6 19L6 20L8 20L8 21L9 21L9 22L11 22L11 23L12 23L12 24L13 24L13 22L14 22L14 21L15 21L15 20L14 20L14 19L13 19L13 20L11 20L11 21L10 21L10 19L8 19L8 16L7 16L7 15L10 15L10 16L9 16L9 18L13 18L13 17L12 17L12 16L11 16L11 15L10 15L10 14L12 14L12 13L10 13L10 14L7 14L7 13L5 13L5 12L8 12L8 13L9 13L9 12L8 12L8 11L6 11L6 10L5 10L5 12L4 12L4 11L3 11L3 10L4 10L4 9ZM2 11L2 13L3 13L3 11ZM25 12L25 13L26 13L26 14L27 14L27 12ZM17 13L17 14L18 14L18 13ZM6 14L6 15L7 15L7 14ZM25 15L25 16L27 16L27 15ZM6 16L6 17L7 17L7 16ZM10 16L10 17L11 17L11 16ZM17 16L17 17L18 17L18 16ZM20 16L20 17L22 17L22 16ZM14 17L14 18L15 18L15 19L16 19L16 20L17 20L17 21L16 21L16 22L17 22L17 21L18 21L18 20L17 20L17 19L18 19L18 18L16 18L16 17ZM3 18L3 19L4 19L4 18ZM26 19L26 20L25 20L25 21L26 21L26 22L25 22L25 24L26 24L26 25L25 25L25 26L24 26L24 25L22 25L22 26L23 26L23 27L25 27L25 26L26 26L26 28L27 28L27 23L26 23L26 22L28 22L28 20L27 20L27 19ZM13 20L13 21L11 21L11 22L13 22L13 21L14 21L14 20ZM21 21L21 24L24 24L24 21ZM22 22L22 23L23 23L23 22ZM20 26L20 27L19 27L19 28L22 28L22 27L21 27L21 26ZM16 27L16 28L17 28L17 27ZM0 0L0 7L7 7L7 0ZM1 1L1 6L6 6L6 1ZM2 2L2 5L5 5L5 2ZM22 0L22 7L29 7L29 0ZM23 1L23 6L28 6L28 1ZM24 2L24 5L27 5L27 2ZM0 22L0 29L7 29L7 22ZM1 23L1 28L6 28L6 23ZM2 24L2 27L5 27L5 24Z" fill="#000000"/></g></g></svg>
