<?xml version="1.0" encoding="UTF-8"?>
<svg xmlns="http://www.w3.org/2000/svg" version="1.1" width="200" height="200" viewBox="0 0 200 200"><rect x="0" y="0" width="200" height="200" fill="#ffffff"/><g transform="scale(4.878)"><g transform="translate(0,0)"><path fill-rule="evenodd" d="M8 0L8 3L9 3L9 4L10 4L10 7L9 7L9 5L8 5L8 9L7 9L7 8L6 8L6 9L5 9L5 8L2 8L2 9L0 9L0 11L1 11L1 10L2 10L2 11L3 11L3 10L4 10L4 9L5 9L5 11L7 11L7 12L6 12L6 13L8 13L8 14L9 14L9 13L8 13L8 12L9 12L9 10L10 10L10 12L11 12L11 10L12 10L12 9L11 9L11 8L10 8L10 7L11 7L11 6L12 6L12 8L14 8L14 10L15 10L15 11L14 11L14 13L13 13L13 12L12 12L12 14L11 14L11 15L12 15L12 14L14 14L14 16L13 16L13 17L15 17L15 16L18 16L18 14L19 14L19 16L20 16L20 17L18 17L18 18L19 18L19 21L20 21L20 20L23 20L23 19L24 19L24 22L23 22L23 21L22 21L22 22L23 22L23 23L19 23L19 22L17 22L17 23L16 23L16 21L15 21L15 20L17 20L17 21L18 21L18 19L15 19L15 18L14 18L14 20L13 20L13 18L12 18L12 19L11 19L11 20L10 20L10 19L9 19L9 18L8 18L8 20L4 20L4 19L5 19L5 18L4 18L4 17L9 17L9 16L8 16L8 15L7 15L7 14L6 14L6 15L7 15L7 16L4 16L4 15L3 15L3 13L4 13L4 12L1 12L1 13L0 13L0 14L1 14L1 16L0 16L0 18L1 18L1 17L3 17L3 19L1 19L1 20L0 20L0 22L1 22L1 23L0 23L0 24L1 24L1 25L0 25L0 28L2 28L2 30L5 30L5 32L6 32L6 33L8 33L8 34L10 34L10 35L9 35L9 36L8 36L8 39L9 39L9 41L11 41L11 40L12 40L12 39L13 39L13 40L14 40L14 39L15 39L15 41L16 41L16 39L15 39L15 37L14 37L14 36L13 36L13 38L12 38L12 39L9 39L9 36L10 36L10 35L11 35L11 36L12 36L12 35L13 35L13 34L14 34L14 33L11 33L11 34L10 34L10 31L11 31L11 32L12 32L12 31L13 31L13 30L14 30L14 32L15 32L15 35L17 35L17 34L18 34L18 35L21 35L21 36L19 36L19 37L17 37L17 41L18 41L18 39L19 39L19 37L20 37L20 40L19 40L19 41L22 41L22 39L21 39L21 37L22 37L22 38L23 38L23 40L24 40L24 41L25 41L25 40L26 40L26 41L28 41L28 39L29 39L29 37L28 37L28 36L27 36L27 37L28 37L28 38L26 38L26 35L28 35L28 34L29 34L29 33L30 33L30 35L32 35L32 38L30 38L30 40L29 40L29 41L30 41L30 40L31 40L31 41L32 41L32 40L33 40L33 41L34 41L34 40L33 40L33 39L35 39L35 40L36 40L36 39L37 39L37 38L38 38L38 37L39 37L39 40L40 40L40 38L41 38L41 37L40 37L40 36L37 36L37 35L40 35L40 34L41 34L41 33L39 33L39 32L37 32L37 31L38 31L38 30L39 30L39 31L40 31L40 30L41 30L41 29L40 29L40 28L41 28L41 27L40 27L40 26L41 26L41 23L40 23L40 26L39 26L39 24L37 24L37 25L34 25L34 24L36 24L36 23L34 23L34 22L36 22L36 21L38 21L38 22L37 22L37 23L38 23L38 22L39 22L39 20L36 20L36 19L35 19L35 17L36 17L36 18L37 18L37 17L39 17L39 18L38 18L38 19L39 19L39 18L41 18L41 16L40 16L40 17L39 17L39 16L37 16L37 15L38 15L38 13L36 13L36 14L37 14L37 15L35 15L35 17L34 17L34 16L33 16L33 15L34 15L34 14L33 14L33 13L34 13L34 12L33 12L33 13L32 13L32 14L31 14L31 10L33 10L33 11L34 11L34 10L35 10L35 12L38 12L38 11L39 11L39 12L40 12L40 10L41 10L41 8L38 8L38 9L40 9L40 10L37 10L37 9L36 9L36 8L33 8L33 9L32 9L32 8L31 8L31 5L32 5L32 4L33 4L33 1L32 1L32 0L31 0L31 1L30 1L30 2L31 2L31 1L32 1L32 4L31 4L31 3L30 3L30 4L31 4L31 5L26 5L26 4L27 4L27 3L28 3L28 4L29 4L29 1L27 1L27 0L24 0L24 1L25 1L25 3L26 3L26 4L24 4L24 5L26 5L26 7L27 7L27 9L28 9L28 10L26 10L26 8L25 8L25 6L24 6L24 10L23 10L23 9L22 9L22 8L23 8L23 0L21 0L21 1L22 1L22 2L20 2L20 0L19 0L19 1L18 1L18 0L17 0L17 1L16 1L16 4L17 4L17 5L18 5L18 7L19 7L19 6L20 6L20 9L19 9L19 8L18 8L18 9L17 9L17 8L16 8L16 7L17 7L17 6L16 6L16 7L15 7L15 3L12 3L12 2L13 2L13 1L15 1L15 0ZM9 1L9 3L11 3L11 5L13 5L13 7L14 7L14 5L13 5L13 4L12 4L12 3L11 3L11 2L12 2L12 1L11 1L11 2L10 2L10 1ZM17 1L17 2L18 2L18 1ZM19 2L19 3L17 3L17 4L19 4L19 5L22 5L22 3L21 3L21 4L19 4L19 3L20 3L20 2ZM26 2L26 3L27 3L27 2ZM21 6L21 8L22 8L22 6ZM27 6L27 7L28 7L28 9L29 9L29 10L31 10L31 9L29 9L29 8L30 8L30 6L29 6L29 7L28 7L28 6ZM32 6L32 7L33 7L33 6ZM6 9L6 10L7 10L7 9ZM8 9L8 10L9 10L9 9ZM10 9L10 10L11 10L11 9ZM15 9L15 10L16 10L16 12L17 12L17 13L15 13L15 14L16 14L16 15L17 15L17 13L18 13L18 12L19 12L19 14L21 14L21 15L22 15L22 16L26 16L26 15L27 15L27 14L26 14L26 13L28 13L28 14L29 14L29 15L28 15L28 17L26 17L26 20L25 20L25 21L27 21L27 22L28 22L28 21L32 21L32 22L31 22L31 23L32 23L32 24L31 24L31 25L30 25L30 26L29 26L29 25L26 25L26 24L27 24L27 23L26 23L26 22L24 22L24 23L23 23L23 24L22 24L22 25L20 25L20 24L17 24L17 26L16 26L16 25L15 25L15 21L13 21L13 22L12 22L12 21L11 21L11 22L10 22L10 20L9 20L9 22L8 22L8 23L6 23L6 22L7 22L7 21L4 21L4 22L2 22L2 25L1 25L1 26L3 26L3 25L4 25L4 24L3 24L3 23L4 23L4 22L5 22L5 23L6 23L6 24L5 24L5 27L6 27L6 28L10 28L10 29L11 29L11 30L13 30L13 29L16 29L16 28L15 28L15 27L14 27L14 28L13 28L13 29L11 29L11 28L10 28L10 26L11 26L11 25L10 25L10 24L11 24L11 22L12 22L12 23L14 23L14 24L12 24L12 26L13 26L13 25L15 25L15 26L16 26L16 27L17 27L17 28L18 28L18 27L17 27L17 26L19 26L19 28L22 28L22 29L21 29L21 30L20 30L20 29L17 29L17 30L15 30L15 31L17 31L17 33L16 33L16 34L17 34L17 33L18 33L18 34L20 34L20 32L21 32L21 35L22 35L22 37L23 37L23 38L24 38L24 39L25 39L25 38L24 38L24 37L25 37L25 36L24 36L24 35L22 35L22 34L24 34L24 33L23 33L23 32L22 32L22 31L23 31L23 30L25 30L25 29L26 29L26 30L27 30L27 31L25 31L25 32L27 32L27 34L28 34L28 33L29 33L29 32L30 32L30 33L32 33L32 32L35 32L35 31L34 31L34 30L35 30L35 29L37 29L37 30L36 30L36 31L37 31L37 30L38 30L38 29L39 29L39 28L40 28L40 27L39 27L39 26L38 26L38 28L36 28L36 27L35 27L35 29L34 29L34 28L33 28L33 29L32 29L32 28L31 28L31 27L34 27L34 25L32 25L32 24L33 24L33 22L34 22L34 21L36 21L36 20L35 20L35 19L34 19L34 18L33 18L33 20L34 20L34 21L32 21L32 18L31 18L31 17L30 17L30 19L31 19L31 20L29 20L29 19L28 19L28 21L27 21L27 18L29 18L29 16L31 16L31 15L30 15L30 13L28 13L28 12L30 12L30 11L28 11L28 12L25 12L25 13L24 13L24 11L23 11L23 12L22 12L22 11L19 11L19 10L18 10L18 11L17 11L17 9ZM20 9L20 10L22 10L22 9ZM33 9L33 10L34 10L34 9ZM35 9L35 10L36 10L36 9ZM20 12L20 13L22 13L22 15L24 15L24 13L22 13L22 12ZM1 13L1 14L2 14L2 13ZM40 13L40 14L39 14L39 15L40 15L40 14L41 14L41 13ZM25 14L25 15L26 15L26 14ZM32 14L32 15L33 15L33 14ZM2 15L2 16L3 16L3 15ZM10 16L10 17L11 17L11 16ZM32 16L32 17L33 17L33 16ZM36 16L36 17L37 17L37 16ZM21 17L21 18L20 18L20 19L21 19L21 18L22 18L22 19L23 19L23 18L25 18L25 17L23 17L23 18L22 18L22 17ZM6 18L6 19L7 19L7 18ZM2 20L2 21L3 21L3 20ZM40 20L40 21L41 21L41 20ZM29 22L29 23L28 23L28 24L30 24L30 22ZM8 23L8 24L6 24L6 25L8 25L8 27L9 27L9 26L10 26L10 25L8 25L8 24L9 24L9 23ZM23 24L23 25L22 25L22 26L20 26L20 25L19 25L19 26L20 26L20 27L22 27L22 26L24 26L24 28L23 28L23 29L24 29L24 28L26 28L26 27L27 27L27 30L29 30L29 31L28 31L28 32L29 32L29 31L30 31L30 30L31 30L31 29L30 29L30 28L29 28L29 29L28 29L28 27L29 27L29 26L26 26L26 25L25 25L25 24ZM24 25L24 26L25 26L25 27L26 27L26 26L25 26L25 25ZM31 25L31 26L32 26L32 25ZM6 26L6 27L7 27L7 26ZM3 27L3 28L4 28L4 29L5 29L5 28L4 28L4 27ZM0 29L0 33L1 33L1 29ZM6 29L6 30L7 30L7 31L6 31L6 32L7 32L7 31L8 31L8 33L9 33L9 31L10 31L10 30L9 30L9 29ZM29 29L29 30L30 30L30 29ZM33 29L33 30L32 30L32 31L33 31L33 30L34 30L34 29ZM8 30L8 31L9 31L9 30ZM17 30L17 31L18 31L18 30ZM3 31L3 32L2 32L2 33L4 33L4 31ZM18 32L18 33L19 33L19 32ZM25 33L25 34L26 34L26 33ZM33 33L33 36L36 36L36 33ZM37 33L37 34L39 34L39 33ZM11 34L11 35L12 35L12 34ZM34 34L34 35L35 35L35 34ZM30 36L30 37L31 37L31 36ZM33 37L33 38L32 38L32 39L31 39L31 40L32 40L32 39L33 39L33 38L36 38L36 37ZM26 39L26 40L27 40L27 39ZM0 0L0 7L7 7L7 0ZM1 1L1 6L6 6L6 1ZM2 2L2 5L5 5L5 2ZM34 0L34 7L41 7L41 0ZM35 1L35 6L40 6L40 1ZM36 2L36 5L39 5L39 2ZM0 34L0 41L7 41L7 34ZM1 35L1 40L6 40L6 35ZM2 36L2 39L5 39L5 36Z" fill="#000000"/></g></g></svg>
