<?xml version="1.0" encoding="UTF-8"?>
<svg xmlns="http://www.w3.org/2000/svg" version="1.1" width="200" height="200" viewBox="0 0 200 200"><rect x="0" y="0" width="200" height="200" fill="#ffffff"/><g transform="scale(4.878)"><g transform="translate(0,0)"><path fill-rule="evenodd" d="M8 0L8 3L9 3L9 4L11 4L11 1L12 1L12 2L13 2L13 3L12 3L12 5L13 5L13 6L12 6L12 7L11 7L11 5L10 5L10 7L11 7L11 8L10 8L10 9L11 9L11 10L9 10L9 5L8 5L8 9L7 9L7 8L6 8L6 9L5 9L5 8L2 8L2 9L1 9L1 11L0 11L0 13L1 13L1 14L2 14L2 15L0 15L0 16L1 16L1 17L0 17L0 22L3 22L3 24L2 24L2 23L1 23L1 24L2 24L2 25L3 25L3 26L1 26L1 25L0 25L0 26L1 26L1 28L2 28L2 29L0 29L0 33L1 33L1 30L2 30L2 31L3 31L3 29L5 29L5 30L4 30L4 32L3 32L3 33L4 33L4 32L5 32L5 33L8 33L8 34L10 34L10 35L9 35L9 36L8 36L8 39L9 39L9 41L11 41L11 40L12 40L12 41L14 41L14 40L15 40L15 41L17 41L17 40L19 40L19 38L23 38L23 37L22 37L22 36L17 36L17 35L19 35L19 34L20 34L20 35L23 35L23 33L24 33L24 34L25 34L25 35L28 35L28 36L27 36L27 37L29 37L29 36L31 36L31 35L32 35L32 37L30 37L30 38L26 38L26 37L25 37L25 36L24 36L24 37L25 37L25 39L22 39L22 41L25 41L25 39L27 39L27 40L26 40L26 41L27 41L27 40L28 40L28 41L31 41L31 40L33 40L33 41L34 41L34 40L33 40L33 39L35 39L35 40L36 40L36 39L37 39L37 40L40 40L40 38L41 38L41 37L39 37L39 36L41 36L41 35L40 35L40 34L41 34L41 33L39 33L39 32L37 32L37 29L36 29L36 28L38 28L38 26L39 26L39 28L40 28L40 26L41 26L41 23L39 23L39 22L38 22L38 21L39 21L39 20L36 20L36 19L35 19L35 17L36 17L36 18L37 18L37 17L39 17L39 18L38 18L38 19L39 19L39 18L41 18L41 16L40 16L40 17L39 17L39 16L37 16L37 15L38 15L38 14L37 14L37 13L36 13L36 14L35 14L35 17L34 17L34 16L32 16L32 17L31 17L31 16L29 16L29 15L31 15L31 12L29 12L29 13L28 13L28 12L27 12L27 14L29 14L29 15L28 15L28 16L29 16L29 17L31 17L31 18L30 18L30 19L31 19L31 20L30 20L30 21L31 21L31 22L32 22L32 23L31 23L31 24L29 24L29 23L30 23L30 22L29 22L29 21L28 21L28 20L27 20L27 21L28 21L28 22L26 22L26 23L27 23L27 25L29 25L29 26L27 26L27 27L26 27L26 24L25 24L25 18L24 18L24 17L26 17L26 16L27 16L27 15L26 15L26 12L25 12L25 11L23 11L23 15L26 15L26 16L22 16L22 15L21 15L21 14L20 14L20 15L19 15L19 16L18 16L18 14L19 14L19 13L21 13L21 12L19 12L19 11L20 11L20 9L19 9L19 11L18 11L18 12L16 12L16 13L14 13L14 12L15 12L15 11L16 11L16 10L17 10L17 9L18 9L18 8L22 8L22 9L21 9L21 11L22 11L22 9L23 9L23 8L24 8L24 10L27 10L27 11L28 11L28 10L29 10L29 11L31 11L31 10L32 10L32 11L33 11L33 12L32 12L32 13L33 13L33 14L32 14L32 15L34 15L34 13L35 13L35 9L36 9L36 10L37 10L37 11L36 11L36 12L38 12L38 11L40 11L40 10L41 10L41 8L38 8L38 9L40 9L40 10L37 10L37 9L36 9L36 8L33 8L33 6L32 6L32 9L31 9L31 8L29 8L29 9L28 9L28 8L27 8L27 6L28 6L28 7L29 7L29 6L30 6L30 7L31 7L31 6L30 6L30 5L32 5L32 4L33 4L33 3L31 3L31 2L30 2L30 1L33 1L33 0L29 0L29 1L27 1L27 0L26 0L26 1L27 1L27 2L26 2L26 3L31 3L31 4L30 4L30 5L29 5L29 4L28 4L28 5L27 5L27 4L23 4L23 5L26 5L26 7L25 7L25 6L24 6L24 7L23 7L23 6L22 6L22 7L21 7L21 6L20 6L20 7L19 7L19 1L21 1L21 0L17 0L17 1L16 1L16 2L17 2L17 3L15 3L15 2L14 2L14 1L15 1L15 0L14 0L14 1L13 1L13 0L11 0L11 1L10 1L10 0ZM22 0L22 2L25 2L25 0L24 0L24 1L23 1L23 0ZM17 1L17 2L18 2L18 1ZM9 2L9 3L10 3L10 2ZM20 2L20 3L21 3L21 5L22 5L22 3L21 3L21 2ZM14 3L14 6L13 6L13 7L12 7L12 8L11 8L11 9L12 9L12 11L13 11L13 7L14 7L14 6L15 6L15 8L14 8L14 11L15 11L15 10L16 10L16 9L15 9L15 8L17 8L17 7L18 7L18 6L17 6L17 5L16 5L16 4L15 4L15 3ZM15 5L15 6L16 6L16 7L17 7L17 6L16 6L16 5ZM28 5L28 6L29 6L29 5ZM22 7L22 8L23 8L23 7ZM25 8L25 9L27 9L27 10L28 10L28 9L27 9L27 8ZM6 9L6 10L3 10L3 11L1 11L1 12L3 12L3 13L4 13L4 14L3 14L3 15L4 15L4 16L3 16L3 17L6 17L6 18L7 18L7 19L5 19L5 20L4 20L4 18L2 18L2 17L1 17L1 19L3 19L3 22L4 22L4 23L5 23L5 24L4 24L4 25L5 25L5 27L4 27L4 28L5 28L5 29L6 29L6 30L8 30L8 29L6 29L6 28L9 28L9 29L10 29L10 30L9 30L9 31L5 31L5 32L10 32L10 33L11 33L11 35L10 35L10 36L9 36L9 37L10 37L10 38L9 38L9 39L11 39L11 38L13 38L13 39L12 39L12 40L13 40L13 39L15 39L15 40L17 40L17 38L16 38L16 37L14 37L14 36L15 36L15 34L16 34L16 35L17 35L17 33L18 33L18 34L19 34L19 32L21 32L21 31L22 31L22 30L23 30L23 31L24 31L24 32L25 32L25 34L26 34L26 33L27 33L27 34L28 34L28 35L29 35L29 33L27 33L27 30L26 30L26 32L25 32L25 31L24 31L24 30L25 30L25 29L27 29L27 28L25 28L25 26L24 26L24 25L25 25L25 24L24 24L24 25L21 25L21 22L20 22L20 21L21 21L21 19L23 19L23 22L24 22L24 19L23 19L23 17L22 17L22 18L21 18L21 15L20 15L20 18L19 18L19 19L18 19L18 16L16 16L16 14L15 14L15 17L16 17L16 18L17 18L17 19L18 19L18 20L17 20L17 21L16 21L16 19L15 19L15 20L14 20L14 17L13 17L13 16L14 16L14 13L12 13L12 12L11 12L11 11L9 11L9 10L8 10L8 11L6 11L6 10L7 10L7 9ZM29 9L29 10L31 10L31 9ZM32 9L32 10L33 10L33 11L34 11L34 9ZM5 11L5 12L4 12L4 13L5 13L5 14L4 14L4 15L5 15L5 16L6 16L6 17L7 17L7 18L8 18L8 19L9 19L9 23L8 23L8 24L9 24L9 25L7 25L7 24L5 24L5 25L7 25L7 26L6 26L6 27L7 27L7 26L9 26L9 27L10 27L10 28L12 28L12 27L13 27L13 29L12 29L12 30L11 30L11 33L12 33L12 34L13 34L13 33L14 33L14 32L15 32L15 33L17 33L17 32L16 32L16 31L17 31L17 30L16 30L16 31L13 31L13 29L14 29L14 27L15 27L15 28L16 28L16 29L18 29L18 30L20 30L20 29L21 29L21 30L22 30L22 29L23 29L23 30L24 30L24 29L25 29L25 28L22 28L22 26L21 26L21 25L19 25L19 24L18 24L18 26L17 26L17 24L16 24L16 22L15 22L15 24L14 24L14 23L13 23L13 22L14 22L14 20L12 20L12 19L9 19L9 18L11 18L11 17L12 17L12 16L13 16L13 15L11 15L11 14L12 14L12 13L11 13L11 14L9 14L9 13L10 13L10 12L9 12L9 11L8 11L8 12L9 12L9 13L8 13L8 14L6 14L6 13L7 13L7 12L6 12L6 11ZM5 12L5 13L6 13L6 12ZM24 12L24 13L25 13L25 12ZM33 12L33 13L34 13L34 12ZM39 12L39 14L41 14L41 12ZM29 13L29 14L30 14L30 13ZM5 14L5 15L6 15L6 16L7 16L7 15L6 15L6 14ZM36 14L36 15L37 15L37 14ZM10 15L10 16L9 16L9 17L8 17L8 18L9 18L9 17L10 17L10 16L11 16L11 15ZM36 16L36 17L37 17L37 16ZM32 17L32 18L31 18L31 19L32 19L32 20L31 20L31 21L33 21L33 23L35 23L35 24L33 24L33 25L32 25L32 24L31 24L31 25L30 25L30 26L29 26L29 28L31 28L31 29L28 29L28 30L29 30L29 31L28 31L28 32L30 32L30 33L31 33L31 32L30 32L30 31L31 31L31 30L32 30L32 31L33 31L33 32L35 32L35 31L34 31L34 30L36 30L36 29L35 29L35 27L36 27L36 25L39 25L39 26L40 26L40 24L39 24L39 23L38 23L38 22L37 22L37 24L36 24L36 23L35 23L35 22L36 22L36 21L35 21L35 19L34 19L34 18L33 18L33 17ZM20 18L20 19L21 19L21 18ZM26 18L26 19L28 19L28 18ZM32 18L32 19L33 19L33 18ZM6 20L6 21L5 21L5 22L6 22L6 23L7 23L7 22L6 22L6 21L8 21L8 20ZM10 20L10 22L11 22L11 23L12 23L12 25L10 25L10 27L11 27L11 26L12 26L12 25L13 25L13 27L14 27L14 26L15 26L15 25L16 25L16 24L15 24L15 25L13 25L13 23L12 23L12 22L11 22L11 21L12 21L12 20ZM19 20L19 21L17 21L17 22L18 22L18 23L19 23L19 21L20 21L20 20ZM33 20L33 21L34 21L34 22L35 22L35 21L34 21L34 20ZM40 20L40 21L41 21L41 20ZM28 22L28 23L29 23L29 22ZM9 23L9 24L10 24L10 23ZM35 24L35 25L33 25L33 27L32 27L32 28L33 28L33 29L32 29L32 30L33 30L33 29L34 29L34 28L33 28L33 27L34 27L34 26L35 26L35 25L36 25L36 24ZM31 25L31 26L32 26L32 25ZM16 26L16 28L18 28L18 29L20 29L20 27L21 27L21 26L19 26L19 28L18 28L18 27L17 27L17 26ZM23 26L23 27L24 27L24 26ZM2 27L2 28L3 28L3 27ZM38 29L38 30L39 30L39 31L40 31L40 30L41 30L41 29ZM12 31L12 33L13 33L13 31ZM20 33L20 34L22 34L22 33ZM33 33L33 36L36 36L36 33ZM37 33L37 34L39 34L39 33ZM30 34L30 35L31 35L31 34ZM34 34L34 35L35 35L35 34ZM11 35L11 36L10 36L10 37L11 37L11 36L12 36L12 35ZM13 35L13 36L14 36L14 35ZM38 35L38 36L37 36L37 37L38 37L38 36L39 36L39 35ZM13 37L13 38L14 38L14 37ZM18 37L18 38L19 38L19 37ZM33 37L33 38L31 38L31 39L33 39L33 38L36 38L36 37ZM37 38L37 39L38 39L38 38ZM28 39L28 40L30 40L30 39ZM0 0L0 7L7 7L7 0ZM1 1L1 6L6 6L6 1ZM2 2L2 5L5 5L5 2ZM34 0L34 7L41 7L41 0ZM35 1L35 6L40 6L40 1ZM36 2L36 5L39 5L39 2ZM0 34L0 41L7 41L7 34ZM1 35L1 40L6 40L6 35ZM2 36L2 39L5 39L5 36Z" fill="#000000"/></g></g></svg>
