<?xml version="1.0" encoding="UTF-8"?>
<svg xmlns="http://www.w3.org/2000/svg" version="1.1" width="200" height="200" viewBox="0 0 200 200"><rect x="0" y="0" width="200" height="200" fill="#ffffff"/><g transform="scale(6.897)"><g transform="translate(0,0)"><path fill-rule="evenodd" d="M13 0L13 2L11 2L11 1L10 1L10 2L8 2L8 4L9 4L9 5L10 5L10 8L9 8L9 9L8 9L8 8L6 8L6 9L7 9L7 10L5 10L5 8L3 8L3 9L2 9L2 11L3 11L3 12L2 12L2 13L1 13L1 12L0 12L0 13L1 13L1 14L0 14L0 16L2 16L2 17L0 17L0 21L3 21L3 20L4 20L4 21L8 21L8 23L9 23L9 24L8 24L8 26L9 26L9 27L10 27L10 26L9 26L9 24L10 24L10 25L11 25L11 26L12 26L12 27L11 27L11 28L13 28L13 29L14 29L14 28L16 28L16 27L17 27L17 28L18 28L18 27L19 27L19 25L24 25L24 26L25 26L25 27L23 27L23 28L22 28L22 26L21 26L21 27L20 27L20 28L19 28L19 29L20 29L20 28L21 28L21 29L23 29L23 28L24 28L24 29L25 29L25 27L26 27L26 28L27 28L27 29L28 29L28 28L27 28L27 27L29 27L29 26L27 26L27 25L28 25L28 24L29 24L29 23L28 23L28 24L26 24L26 25L25 25L25 22L27 22L27 21L26 21L26 19L25 19L25 18L28 18L28 19L29 19L29 17L28 17L28 16L29 16L29 11L28 11L28 10L27 10L27 8L25 8L25 9L26 9L26 10L25 10L25 12L24 12L24 16L23 16L23 12L22 12L22 11L21 11L21 10L19 10L19 9L20 9L20 8L19 8L19 6L20 6L20 7L21 7L21 4L19 4L19 3L20 3L20 1L21 1L21 0L19 0L19 1L18 1L18 0L17 0L17 1L16 1L16 0L15 0L15 1L14 1L14 0ZM17 1L17 3L15 3L15 5L17 5L17 7L18 7L18 6L19 6L19 5L18 5L18 3L19 3L19 2L18 2L18 1ZM10 2L10 5L11 5L11 4L12 4L12 3L11 3L11 2ZM13 3L13 4L14 4L14 3ZM8 6L8 7L9 7L9 6ZM11 6L11 8L12 8L12 11L11 11L11 9L10 9L10 10L7 10L7 11L6 11L6 12L3 12L3 13L2 13L2 14L3 14L3 15L2 15L2 16L3 16L3 17L4 17L4 18L2 18L2 19L4 19L4 20L5 20L5 19L6 19L6 20L8 20L8 21L12 21L12 23L11 23L11 22L10 22L10 23L11 23L11 25L12 25L12 26L13 26L13 27L16 27L16 25L17 25L17 23L19 23L19 24L18 24L18 25L19 25L19 24L20 24L20 21L18 21L18 20L19 20L19 18L20 18L20 19L21 19L21 20L22 20L22 19L21 19L21 16L20 16L20 15L21 15L21 14L22 14L22 12L21 12L21 14L20 14L20 15L19 15L19 13L20 13L20 12L19 12L19 13L18 13L18 12L17 12L17 13L16 13L16 12L15 12L15 10L18 10L18 9L19 9L19 8L17 8L17 9L15 9L15 10L14 10L14 11L13 11L13 8L15 8L15 7L16 7L16 6L15 6L15 7L14 7L14 6L13 6L13 7L12 7L12 6ZM0 9L0 10L1 10L1 9ZM22 9L22 10L23 10L23 11L24 11L24 9ZM7 11L7 12L6 12L6 13L3 13L3 14L4 14L4 15L3 15L3 16L4 16L4 17L5 17L5 18L6 18L6 19L8 19L8 17L7 17L7 16L6 16L6 15L7 15L7 14L6 14L6 13L7 13L7 12L9 12L9 13L8 13L8 16L9 16L9 15L10 15L10 14L13 14L13 15L14 15L14 17L13 17L13 16L12 16L12 15L11 15L11 16L12 16L12 17L9 17L9 20L13 20L13 19L14 19L14 20L15 20L15 21L16 21L16 18L17 18L17 20L18 20L18 18L17 18L17 17L19 17L19 15L18 15L18 14L17 14L17 16L16 16L16 17L15 17L15 15L16 15L16 13L15 13L15 12L13 12L13 11L12 11L12 12L13 12L13 13L11 13L11 11ZM27 11L27 12L28 12L28 11ZM25 13L25 16L26 16L26 17L27 17L27 16L28 16L28 13L27 13L27 16L26 16L26 13ZM14 14L14 15L15 15L15 14ZM4 15L4 16L5 16L5 17L6 17L6 18L7 18L7 17L6 17L6 16L5 16L5 15ZM22 16L22 17L23 17L23 16ZM12 17L12 18L10 18L10 19L12 19L12 18L13 18L13 17ZM14 17L14 19L15 19L15 17ZM23 19L23 20L25 20L25 19ZM13 21L13 23L12 23L12 25L13 25L13 23L14 23L14 21ZM17 21L17 22L18 22L18 21ZM21 21L21 24L24 24L24 21ZM28 21L28 22L29 22L29 21ZM15 22L15 23L16 23L16 22ZM22 22L22 23L23 23L23 22ZM15 24L15 25L16 25L16 24ZM26 26L26 27L27 27L27 26ZM9 28L9 29L10 29L10 28ZM0 0L0 7L7 7L7 0ZM1 1L1 6L6 6L6 1ZM2 2L2 5L5 5L5 2ZM22 0L22 7L29 7L29 0ZM23 1L23 6L28 6L28 1ZM24 2L24 5L27 5L27 2ZM0 22L0 29L7 29L7 22ZM1 23L1 28L6 28L6 23ZM2 24L2 27L5 27L5 24Z" fill="#000000"/></g></g></svg>
