<?xml version="1.0" encoding="UTF-8"?>
<svg xmlns="http://www.w3.org/2000/svg" version="1.1" width="200" height="200" viewBox="0 0 200 200"><rect x="0" y="0" width="200" height="200" fill="#ffffff"/><g transform="scale(4.878)"><g transform="translate(0,0)"><path fill-rule="evenodd" d="M8 0L8 1L9 1L9 2L8 2L8 3L9 3L9 4L8 4L8 5L10 5L10 7L11 7L11 9L10 9L10 10L9 10L9 9L7 9L7 8L5 8L5 9L4 9L4 10L3 10L3 9L0 9L0 10L1 10L1 11L0 11L0 12L1 12L1 11L2 11L2 10L3 10L3 12L2 12L2 13L0 13L0 14L1 14L1 15L0 15L0 16L1 16L1 17L0 17L0 20L2 20L2 19L3 19L3 20L5 20L5 21L3 21L3 22L5 22L5 21L9 21L9 23L8 23L8 22L6 22L6 23L7 23L7 24L5 24L5 25L8 25L8 24L9 24L9 26L8 26L8 27L9 27L9 26L10 26L10 31L11 31L11 32L8 32L8 31L9 31L9 30L8 30L8 29L7 29L7 28L6 28L6 27L7 27L7 26L6 26L6 27L5 27L5 28L6 28L6 29L7 29L7 30L4 30L4 28L3 28L3 26L1 26L1 25L0 25L0 26L1 26L1 27L0 27L0 33L1 33L1 31L4 31L4 32L3 32L3 33L4 33L4 32L5 32L5 31L7 31L7 32L6 32L6 33L8 33L8 34L9 34L9 35L8 35L8 36L9 36L9 40L11 40L11 38L12 38L12 39L13 39L13 40L12 40L12 41L14 41L14 40L15 40L15 39L18 39L18 38L19 38L19 39L21 39L21 40L22 40L22 41L24 41L24 40L23 40L23 39L21 39L21 38L23 38L23 36L25 36L25 37L24 37L24 38L25 38L25 41L27 41L27 39L28 39L28 41L31 41L31 40L32 40L32 38L30 38L30 39L31 39L31 40L29 40L29 38L28 38L28 36L27 36L27 35L29 35L29 33L31 33L31 32L29 32L29 29L31 29L31 28L32 28L32 29L33 29L33 27L31 27L31 28L29 28L29 29L28 29L28 28L27 28L27 27L29 27L29 26L32 26L32 25L29 25L29 26L28 26L28 24L27 24L27 26L26 26L26 24L24 24L24 22L23 22L23 23L22 23L22 21L21 21L21 20L23 20L23 21L25 21L25 19L24 19L24 18L27 18L27 19L29 19L29 20L27 20L27 23L28 23L28 22L29 22L29 23L30 23L30 24L31 24L31 22L32 22L32 21L30 21L30 22L29 22L29 20L31 20L31 19L32 19L32 20L33 20L33 23L34 23L34 19L32 19L32 17L34 17L34 18L35 18L35 20L36 20L36 21L35 21L35 22L36 22L36 21L37 21L37 22L41 22L41 20L40 20L40 19L41 19L41 15L40 15L40 14L41 14L41 13L40 13L40 9L41 9L41 8L40 8L40 9L39 9L39 8L38 8L38 10L37 10L37 8L36 8L36 11L35 11L35 12L34 12L34 9L35 9L35 8L34 8L34 9L33 9L33 6L32 6L32 7L31 7L31 5L33 5L33 2L31 2L31 1L30 1L30 0L28 0L28 2L27 2L27 1L25 1L25 0L19 0L19 1L18 1L18 4L22 4L22 5L21 5L21 6L20 6L20 7L19 7L19 5L16 5L16 4L17 4L17 3L13 3L13 4L15 4L15 5L14 5L14 7L13 7L13 5L11 5L11 4L12 4L12 3L11 3L11 2L15 2L15 1L17 1L17 0ZM32 0L32 1L33 1L33 0ZM19 1L19 2L21 2L21 3L23 3L23 4L25 4L25 5L22 5L22 6L21 6L21 7L20 7L20 9L19 9L19 7L18 7L18 6L17 6L17 7L16 7L16 5L15 5L15 7L14 7L14 8L13 8L13 7L12 7L12 6L11 6L11 7L12 7L12 8L13 8L13 9L14 9L14 10L13 10L13 11L11 11L11 12L10 12L10 11L9 11L9 12L10 12L10 13L6 13L6 14L7 14L7 15L5 15L5 13L2 13L2 15L4 15L4 16L2 16L2 17L1 17L1 19L2 19L2 17L4 17L4 16L5 16L5 18L3 18L3 19L5 19L5 18L7 18L7 19L6 19L6 20L7 20L7 19L8 19L8 20L10 20L10 19L9 19L9 18L12 18L12 16L11 16L11 15L10 15L10 14L12 14L12 13L13 13L13 12L14 12L14 16L13 16L13 19L14 19L14 20L12 20L12 19L11 19L11 20L12 20L12 21L13 21L13 22L14 22L14 23L13 23L13 24L11 24L11 23L12 23L12 22L11 22L11 21L10 21L10 22L11 22L11 23L10 23L10 24L11 24L11 26L13 26L13 24L15 24L15 28L16 28L16 27L17 27L17 29L16 29L16 30L15 30L15 31L14 31L14 28L13 28L13 27L11 27L11 31L12 31L12 30L13 30L13 32L12 32L12 33L10 33L10 34L11 34L11 36L10 36L10 35L9 35L9 36L10 36L10 37L13 37L13 36L14 36L14 35L15 35L15 36L16 36L16 37L14 37L14 38L13 38L13 39L15 39L15 38L16 38L16 37L17 37L17 38L18 38L18 37L19 37L19 38L20 38L20 36L19 36L19 35L21 35L21 37L22 37L22 33L21 33L21 32L22 32L22 31L23 31L23 32L24 32L24 31L28 31L28 29L27 29L27 30L26 30L26 29L24 29L24 27L25 27L25 28L26 28L26 26L25 26L25 25L24 25L24 24L23 24L23 26L22 26L22 25L21 25L21 24L22 24L22 23L20 23L20 25L21 25L21 26L20 26L20 27L19 27L19 26L18 26L18 25L16 25L16 23L17 23L17 24L18 24L18 23L19 23L19 22L21 22L21 21L20 21L20 20L21 20L21 19L22 19L22 18L24 18L24 17L26 17L26 16L28 16L28 18L29 18L29 19L31 19L31 18L29 18L29 16L30 16L30 17L31 17L31 15L30 15L30 14L29 14L29 13L30 13L30 11L31 11L31 14L32 14L32 16L33 16L33 14L32 14L32 12L33 12L33 10L30 10L30 9L32 9L32 8L31 8L31 7L30 7L30 5L31 5L31 4L32 4L32 3L31 3L31 2L30 2L30 1L29 1L29 7L28 7L28 4L27 4L27 2L26 2L26 3L25 3L25 1L23 1L23 2L22 2L22 1ZM9 2L9 3L10 3L10 2ZM23 2L23 3L24 3L24 2ZM30 3L30 4L31 4L31 3ZM25 5L25 6L24 6L24 7L25 7L25 6L26 6L26 8L27 8L27 9L25 9L25 8L22 8L22 7L23 7L23 6L22 6L22 7L21 7L21 9L20 9L20 10L15 10L15 11L14 11L14 12L16 12L16 13L15 13L15 14L16 14L16 17L19 17L19 15L17 15L17 13L18 13L18 14L21 14L21 13L22 13L22 15L23 15L23 14L24 14L24 15L25 15L25 14L27 14L27 15L28 15L28 16L29 16L29 14L27 14L27 13L28 13L28 12L29 12L29 9L30 9L30 8L28 8L28 7L27 7L27 5ZM8 6L8 8L9 8L9 6ZM15 7L15 8L16 8L16 7ZM17 8L17 9L18 9L18 8ZM5 9L5 10L4 10L4 11L6 11L6 12L7 12L7 11L8 11L8 10L7 10L7 9ZM11 9L11 10L12 10L12 9ZM21 9L21 10L20 10L20 11L19 11L19 12L20 12L20 11L22 11L22 13L23 13L23 12L24 12L24 11L26 11L26 10L24 10L24 9ZM6 10L6 11L7 11L7 10ZM22 10L22 11L24 11L24 10ZM16 11L16 12L18 12L18 11ZM27 11L27 12L25 12L25 13L24 13L24 14L25 14L25 13L27 13L27 12L28 12L28 11ZM38 11L38 12L39 12L39 11ZM11 12L11 13L12 13L12 12ZM36 12L36 13L34 13L34 15L36 15L36 13L37 13L37 14L38 14L38 15L37 15L37 16L36 16L36 17L35 17L35 16L34 16L34 17L35 17L35 18L36 18L36 20L39 20L39 21L40 21L40 20L39 20L39 19L38 19L38 17L37 17L37 16L38 16L38 15L39 15L39 14L38 14L38 13L37 13L37 12ZM8 14L8 16L9 16L9 17L7 17L7 16L6 16L6 17L7 17L7 18L9 18L9 17L10 17L10 16L9 16L9 14ZM20 15L20 18L21 18L21 17L22 17L22 16L21 16L21 15ZM23 16L23 17L24 17L24 16ZM39 16L39 17L40 17L40 16ZM14 17L14 19L15 19L15 20L14 20L14 21L15 21L15 22L16 22L16 19L18 19L18 20L19 20L19 18L16 18L16 19L15 19L15 17ZM36 17L36 18L37 18L37 17ZM0 21L0 22L2 22L2 21ZM1 23L1 24L4 24L4 23ZM35 23L35 24L33 24L33 26L34 26L34 27L35 27L35 28L34 28L34 29L36 29L36 32L34 32L34 31L33 31L33 32L32 32L32 34L30 34L30 35L31 35L31 36L29 36L29 37L33 37L33 41L34 41L34 40L36 40L36 39L38 39L38 40L39 40L39 39L40 39L40 40L41 40L41 39L40 39L40 38L41 38L41 37L40 37L40 36L39 36L39 37L40 37L40 38L39 38L39 39L38 39L38 35L40 35L40 34L39 34L39 32L37 32L37 31L40 31L40 32L41 32L41 29L40 29L40 28L39 28L39 27L40 27L40 26L41 26L41 25L36 25L36 23ZM39 23L39 24L41 24L41 23ZM17 26L17 27L18 27L18 28L19 28L19 29L20 29L20 30L19 30L19 32L18 32L18 29L17 29L17 30L16 30L16 31L17 31L17 32L15 32L15 33L14 33L14 32L13 32L13 34L15 34L15 35L16 35L16 36L17 36L17 35L16 35L16 33L17 33L17 34L18 34L18 35L19 35L19 34L18 34L18 33L19 33L19 32L21 32L21 31L20 31L20 30L23 30L23 31L24 31L24 29L23 29L23 28L22 28L22 29L21 29L21 28L19 28L19 27L18 27L18 26ZM38 26L38 27L39 27L39 26ZM2 28L2 29L3 29L3 28ZM12 28L12 29L13 29L13 28ZM36 28L36 29L37 29L37 30L40 30L40 29L39 29L39 28ZM7 30L7 31L8 31L8 30ZM30 30L30 31L32 31L32 30ZM17 32L17 33L18 33L18 32ZM25 32L25 33L24 33L24 35L27 35L27 33L28 33L28 32ZM20 33L20 34L21 34L21 33ZM25 33L25 34L26 34L26 33ZM33 33L33 36L36 36L36 33ZM37 33L37 35L38 35L38 33ZM34 34L34 35L35 35L35 34ZM12 35L12 36L13 36L13 35ZM26 36L26 38L27 38L27 36ZM34 37L34 38L36 38L36 37ZM19 40L19 41L20 41L20 40ZM0 0L0 7L7 7L7 0ZM1 1L1 6L6 6L6 1ZM2 2L2 5L5 5L5 2ZM34 0L34 7L41 7L41 0ZM35 1L35 6L40 6L40 1ZM36 2L36 5L39 5L39 2ZM0 34L0 41L7 41L7 34ZM1 35L1 40L6 40L6 35ZM2 36L2 39L5 39L5 36Z" fill="#000000"/></g></g></svg>
