<?xml version="1.0" encoding="UTF-8"?>
<svg xmlns="http://www.w3.org/2000/svg" version="1.1" width="200" height="200" viewBox="0 0 200 200"><rect x="0" y="0" width="200" height="200" fill="#ffffff"/><g transform="scale(4.878)"><g transform="translate(0,0)"><path fill-rule="evenodd" d="M10 0L10 1L9 1L9 2L8 2L8 4L9 4L9 3L10 3L10 5L9 5L9 6L8 6L8 7L9 7L9 8L10 8L10 10L9 10L9 12L6 12L6 11L7 11L7 10L8 10L8 8L6 8L6 9L5 9L5 8L3 8L3 9L1 9L1 11L0 11L0 17L1 17L1 16L2 16L2 18L0 18L0 19L2 19L2 18L4 18L4 19L3 19L3 20L0 20L0 21L1 21L1 25L0 25L0 27L1 27L1 25L2 25L2 27L4 27L4 26L6 26L6 27L5 27L5 28L6 28L6 29L7 29L7 30L5 30L5 29L4 29L4 28L2 28L2 29L3 29L3 30L1 30L1 28L0 28L0 33L2 33L2 32L3 32L3 33L5 33L5 32L6 32L6 33L8 33L8 35L9 35L9 34L10 34L10 33L11 33L11 37L12 37L12 39L13 39L13 40L12 40L12 41L15 41L15 40L16 40L16 41L18 41L18 39L17 39L17 40L16 40L16 38L15 38L15 37L17 37L17 38L19 38L19 41L20 41L20 40L21 40L21 39L20 39L20 38L24 38L24 37L25 37L25 38L27 38L27 39L28 39L28 41L29 41L29 38L28 38L28 35L29 35L29 34L30 34L30 33L31 33L31 31L30 31L30 32L29 32L29 33L28 33L28 32L27 32L27 34L25 34L25 33L26 33L26 32L25 32L25 30L26 30L26 31L28 31L28 30L30 30L30 29L31 29L31 28L32 28L32 31L33 31L33 32L32 32L32 34L31 34L31 35L30 35L30 36L29 36L29 37L30 37L30 38L31 38L31 37L32 37L32 38L33 38L33 40L32 40L32 39L30 39L30 41L31 41L31 40L32 40L32 41L34 41L34 40L35 40L35 41L36 41L36 39L37 39L37 40L38 40L38 41L39 41L39 40L38 40L38 39L40 39L40 40L41 40L41 35L40 35L40 34L39 34L39 33L41 33L41 32L39 32L39 31L41 31L41 30L38 30L38 29L41 29L41 25L39 25L39 24L37 24L37 23L38 23L38 22L41 22L41 21L39 21L39 20L40 20L40 19L41 19L41 18L40 18L40 17L41 17L41 11L40 11L40 9L39 9L39 8L37 8L37 9L36 9L36 12L35 12L35 13L36 13L36 14L33 14L33 13L31 13L31 10L34 10L34 11L35 11L35 10L34 10L34 9L33 9L33 8L32 8L32 7L33 7L33 6L32 6L32 7L31 7L31 5L33 5L33 4L32 4L32 1L33 1L33 0L32 0L32 1L31 1L31 2L30 2L30 1L29 1L29 0L28 0L28 2L27 2L27 1L26 1L26 0L25 0L25 1L24 1L24 0L23 0L23 2L22 2L22 0L21 0L21 1L20 1L20 0L19 0L19 2L20 2L20 3L22 3L22 5L23 5L23 6L22 6L22 7L23 7L23 8L21 8L21 4L19 4L19 3L17 3L17 2L15 2L15 1L17 1L17 0L14 0L14 2L13 2L13 4L11 4L11 3L12 3L12 2L11 2L11 1L12 1L12 0ZM10 2L10 3L11 3L11 2ZM14 2L14 4L13 4L13 7L12 7L12 5L10 5L10 6L9 6L9 7L10 7L10 8L11 8L11 10L12 10L12 11L13 11L13 12L12 12L12 13L11 13L11 14L9 14L9 13L8 13L8 15L9 15L9 16L10 16L10 15L11 15L11 16L12 16L12 18L10 18L10 17L6 17L6 18L7 18L7 19L6 19L6 20L4 20L4 23L6 23L6 24L5 24L5 25L6 25L6 26L9 26L9 25L10 25L10 28L11 28L11 25L12 25L12 24L13 24L13 25L14 25L14 26L12 26L12 27L13 27L13 28L14 28L14 26L15 26L15 29L12 29L12 30L13 30L13 31L12 31L12 32L11 32L11 30L10 30L10 29L8 29L8 30L7 30L7 31L6 31L6 32L8 32L8 33L10 33L10 32L11 32L11 33L13 33L13 34L12 34L12 35L13 35L13 36L17 36L17 35L18 35L18 37L19 37L19 38L20 38L20 35L18 35L18 34L17 34L17 32L18 32L18 31L15 31L15 33L16 33L16 34L15 34L15 35L14 35L14 33L13 33L13 31L14 31L14 30L16 30L16 29L17 29L17 30L19 30L19 29L20 29L20 27L22 27L22 26L23 26L23 25L24 25L24 26L26 26L26 24L29 24L29 25L31 25L31 26L28 26L28 27L27 27L27 28L26 28L26 30L28 30L28 29L27 29L27 28L28 28L28 27L29 27L29 29L30 29L30 28L31 28L31 26L32 26L32 28L33 28L33 26L32 26L32 25L33 25L33 24L34 24L34 23L33 23L33 20L32 20L32 22L31 22L31 21L30 21L30 20L31 20L31 19L29 19L29 18L28 18L28 19L25 19L25 18L26 18L26 17L30 17L30 18L31 18L31 17L32 17L32 19L34 19L34 20L35 20L35 17L38 17L38 18L39 18L39 17L40 17L40 16L36 16L36 15L37 15L37 14L36 14L36 15L35 15L35 16L34 16L34 17L33 17L33 16L32 16L32 15L31 15L31 17L30 17L30 15L28 15L28 13L27 13L27 12L26 12L26 11L27 11L27 10L26 10L26 8L25 8L25 10L24 10L24 11L22 11L22 12L24 12L24 15L25 15L25 14L26 14L26 17L25 17L25 16L24 16L24 17L23 17L23 16L22 16L22 15L23 15L23 14L21 14L21 12L19 12L19 11L21 11L21 10L20 10L20 9L19 9L19 8L20 8L20 5L19 5L19 8L18 8L18 5L16 5L16 6L15 6L15 7L14 7L14 4L15 4L15 2ZM23 2L23 3L24 3L24 4L23 4L23 5L27 5L27 7L28 7L28 9L29 9L29 10L30 10L30 9L31 9L31 8L30 8L30 6L29 6L29 7L28 7L28 5L29 5L29 4L31 4L31 3L29 3L29 2L28 2L28 4L26 4L26 3L25 3L25 2ZM16 3L16 4L17 4L17 3ZM10 6L10 7L11 7L11 6ZM16 6L16 10L15 10L15 8L14 8L14 7L13 7L13 8L12 8L12 10L13 10L13 11L14 11L14 10L15 10L15 11L17 11L17 12L16 12L16 13L15 13L15 12L13 12L13 13L12 13L12 14L11 14L11 15L12 15L12 14L13 14L13 18L12 18L12 19L11 19L11 21L9 21L9 20L10 20L10 18L8 18L8 19L7 19L7 20L6 20L6 21L7 21L7 22L6 22L6 23L9 23L9 24L6 24L6 25L9 25L9 24L10 24L10 25L11 25L11 24L10 24L10 23L9 23L9 22L11 22L11 23L12 23L12 22L11 22L11 21L12 21L12 19L13 19L13 20L15 20L15 21L17 21L17 23L18 23L18 24L16 24L16 23L14 23L14 25L15 25L15 26L16 26L16 28L17 28L17 26L16 26L16 25L18 25L18 27L19 27L19 25L21 25L21 24L24 24L24 23L28 23L28 21L29 21L29 19L28 19L28 20L26 20L26 21L25 21L25 22L24 22L24 21L22 21L22 20L24 20L24 18L23 18L23 17L22 17L22 16L20 16L20 15L21 15L21 14L20 14L20 15L19 15L19 13L17 13L17 12L18 12L18 11L19 11L19 10L18 10L18 8L17 8L17 6ZM23 6L23 7L24 7L24 6ZM25 6L25 7L26 7L26 6ZM13 8L13 9L14 9L14 8ZM23 8L23 9L24 9L24 8ZM29 8L29 9L30 9L30 8ZM4 9L4 10L3 10L3 11L4 11L4 12L3 12L3 13L4 13L4 14L5 14L5 16L4 16L4 15L2 15L2 16L3 16L3 17L4 17L4 18L5 18L5 16L7 16L7 15L6 15L6 14L7 14L7 13L6 13L6 12L5 12L5 11L6 11L6 10L7 10L7 9L6 9L6 10L5 10L5 9ZM37 9L37 10L38 10L38 12L39 12L39 10L38 10L38 9ZM25 10L25 11L26 11L26 10ZM1 11L1 12L2 12L2 11ZM4 12L4 13L5 13L5 12ZM29 12L29 14L30 14L30 12ZM36 12L36 13L37 13L37 12ZM1 13L1 14L2 14L2 13ZM39 13L39 15L40 15L40 13ZM14 14L14 15L15 15L15 14ZM16 14L16 15L17 15L17 17L16 17L16 16L15 16L15 17L14 17L14 18L13 18L13 19L15 19L15 20L16 20L16 18L17 18L17 19L18 19L18 20L17 20L17 21L19 21L19 20L20 20L20 22L19 22L19 23L20 23L20 24L21 24L21 23L22 23L22 22L21 22L21 19L23 19L23 18L21 18L21 17L20 17L20 16L19 16L19 15L18 15L18 14ZM27 15L27 16L28 16L28 15ZM15 17L15 18L16 18L16 17ZM17 17L17 18L18 18L18 17ZM19 17L19 19L20 19L20 17ZM36 18L36 20L38 20L38 19L37 19L37 18ZM13 21L13 22L14 22L14 21ZM34 21L34 22L35 22L35 23L36 23L36 21ZM37 21L37 22L38 22L38 21ZM29 22L29 24L30 24L30 22ZM3 24L3 26L4 26L4 24ZM31 24L31 25L32 25L32 24ZM36 24L36 25L37 25L37 26L35 26L35 27L39 27L39 25L37 25L37 24ZM6 27L6 28L9 28L9 27ZM23 27L23 28L22 28L22 29L21 29L21 30L20 30L20 31L19 31L19 34L20 34L20 32L21 32L21 33L23 33L23 31L24 31L24 30L23 30L23 31L22 31L22 29L23 29L23 28L25 28L25 27ZM18 28L18 29L19 29L19 28ZM34 28L34 29L35 29L35 30L33 30L33 31L34 31L34 32L36 32L36 29L38 29L38 28L36 28L36 29L35 29L35 28ZM3 30L3 31L5 31L5 30ZM9 31L9 32L10 32L10 31ZM37 32L37 34L38 34L38 35L37 35L37 38L40 38L40 37L39 37L39 34L38 34L38 32ZM33 33L33 36L36 36L36 33ZM21 34L21 37L24 37L24 36L25 36L25 37L26 37L26 36L27 36L27 35L24 35L24 34ZM34 34L34 35L35 35L35 34ZM22 35L22 36L23 36L23 35ZM8 36L8 38L9 38L9 37L10 37L10 36ZM30 36L30 37L31 37L31 36ZM13 37L13 38L14 38L14 37ZM34 37L34 39L35 39L35 38L36 38L36 37ZM10 38L10 39L11 39L11 38ZM14 39L14 40L15 40L15 39ZM22 39L22 41L24 41L24 39ZM25 39L25 41L27 41L27 40L26 40L26 39ZM9 40L9 41L11 41L11 40ZM0 0L0 7L7 7L7 0ZM1 1L1 6L6 6L6 1ZM2 2L2 5L5 5L5 2ZM34 0L34 7L41 7L41 0ZM35 1L35 6L40 6L40 1ZM36 2L36 5L39 5L39 2ZM0 34L0 41L7 41L7 34ZM1 35L1 40L6 40L6 35ZM2 36L2 39L5 39L5 36Z" fill="#000000"/></g></g></svg>
