<?xml version="1.0" encoding="UTF-8"?>
<svg xmlns="http://www.w3.org/2000/svg" version="1.1" width="200" height="200" viewBox="0 0 200 200"><rect x="0" y="0" width="200" height="200" fill="#ffffff"/><g transform="scale(4.878)"><g transform="translate(0,0)"><path fill-rule="evenodd" d="M8 0L8 2L10 2L10 3L8 3L8 7L9 7L9 6L10 6L10 8L9 8L9 9L8 9L8 10L6 10L6 9L7 9L7 8L6 8L6 9L4 9L4 8L3 8L3 9L2 9L2 11L3 11L3 10L4 10L4 13L3 13L3 12L2 12L2 13L1 13L1 14L3 14L3 15L1 15L1 16L0 16L0 17L1 17L1 18L2 18L2 20L0 20L0 21L1 21L1 22L0 22L0 23L1 23L1 24L0 24L0 25L1 25L1 26L2 26L2 25L1 25L1 24L4 24L4 25L3 25L3 26L4 26L4 25L7 25L7 26L5 26L5 27L4 27L4 28L2 28L2 27L1 27L1 28L2 28L2 29L1 29L1 30L0 30L0 31L1 31L1 30L2 30L2 33L4 33L4 32L3 32L3 31L5 31L5 32L6 32L6 33L7 33L7 32L8 32L8 34L9 34L9 37L8 37L8 38L9 38L9 39L10 39L10 41L11 41L11 37L10 37L10 36L12 36L12 41L16 41L16 40L17 40L17 41L19 41L19 40L18 40L18 39L20 39L20 40L21 40L21 41L24 41L24 40L26 40L26 41L27 41L27 40L28 40L28 41L33 41L33 39L34 39L34 38L36 38L36 40L37 40L37 41L40 41L40 39L41 39L41 38L40 38L40 37L38 37L38 36L39 36L39 34L41 34L41 32L40 32L40 31L41 31L41 29L39 29L39 28L37 28L37 30L36 30L36 29L35 29L35 31L34 31L34 30L32 30L32 29L33 29L33 27L30 27L30 26L32 26L32 24L33 24L33 23L34 23L34 22L35 22L35 23L37 23L37 24L38 24L38 25L37 25L37 26L36 26L36 24L34 24L34 25L35 25L35 26L34 26L34 27L35 27L35 26L36 26L36 27L38 27L38 26L39 26L39 25L40 25L40 24L41 24L41 23L40 23L40 22L38 22L38 21L40 21L40 20L41 20L41 16L39 16L39 17L38 17L38 16L37 16L37 19L36 19L36 21L35 21L35 19L34 19L34 18L35 18L35 17L36 17L36 16L35 16L35 17L32 17L32 15L33 15L33 14L34 14L34 15L35 15L35 14L36 14L36 15L37 15L37 14L38 14L38 13L41 13L41 11L40 11L40 12L39 12L39 11L38 11L38 13L37 13L37 14L36 14L36 13L34 13L34 12L35 12L35 11L36 11L36 12L37 12L37 10L38 10L38 8L35 8L35 9L33 9L33 6L32 6L32 5L33 5L33 0L31 0L31 1L30 1L30 0L27 0L27 2L26 2L26 3L25 3L25 4L26 4L26 3L27 3L27 2L28 2L28 1L30 1L30 3L28 3L28 4L27 4L27 5L26 5L26 9L25 9L25 10L24 10L24 9L22 9L22 8L25 8L25 5L24 5L24 4L23 4L23 3L24 3L24 1L21 1L21 4L20 4L20 3L19 3L19 4L18 4L18 5L21 5L21 6L20 6L20 7L21 7L21 6L22 6L22 8L21 8L21 9L20 9L20 8L19 8L19 6L18 6L18 8L17 8L17 9L18 9L18 8L19 8L19 10L16 10L16 9L15 9L15 10L14 10L14 8L16 8L16 7L17 7L17 6L16 6L16 5L17 5L17 4L15 4L15 5L14 5L14 4L13 4L13 3L14 3L14 1L13 1L13 0ZM16 0L16 1L18 1L18 2L19 2L19 1L20 1L20 0L19 0L19 1L18 1L18 0ZM11 1L11 2L12 2L12 1ZM31 1L31 2L32 2L32 1ZM16 2L16 3L17 3L17 2ZM22 2L22 3L23 3L23 2ZM11 3L11 4L9 4L9 5L11 5L11 8L10 8L10 9L9 9L9 10L8 10L8 11L9 11L9 12L7 12L7 11L6 11L6 12L7 12L7 13L6 13L6 14L7 14L7 15L6 15L6 16L7 16L7 17L6 17L6 18L4 18L4 17L5 17L5 16L4 16L4 15L5 15L5 14L4 14L4 15L3 15L3 18L4 18L4 19L3 19L3 20L2 20L2 21L3 21L3 20L4 20L4 21L5 21L5 22L7 22L7 23L6 23L6 24L7 24L7 23L8 23L8 22L9 22L9 21L8 21L8 22L7 22L7 21L5 21L5 20L8 20L8 19L9 19L9 17L10 17L10 19L11 19L11 20L10 20L10 21L11 21L11 23L10 23L10 24L8 24L8 26L10 26L10 27L9 27L9 29L10 29L10 30L9 30L9 31L10 31L10 30L11 30L11 32L12 32L12 33L9 33L9 34L11 34L11 35L12 35L12 33L13 33L13 34L14 34L14 32L15 32L15 35L16 35L16 36L17 36L17 37L16 37L16 38L15 38L15 36L14 36L14 35L13 35L13 36L14 36L14 37L13 37L13 38L14 38L14 39L13 39L13 40L14 40L14 39L18 39L18 38L19 38L19 35L18 35L18 33L19 33L19 34L20 34L20 37L21 37L21 38L20 38L20 39L21 39L21 40L23 40L23 39L22 39L22 37L25 37L25 39L26 39L26 38L27 38L27 39L28 39L28 40L29 40L29 38L28 38L28 37L30 37L30 39L31 39L31 40L32 40L32 39L33 39L33 37L32 37L32 36L31 36L31 35L32 35L32 33L31 33L31 34L30 34L30 32L31 32L31 28L30 28L30 29L28 29L28 28L29 28L29 26L30 26L30 25L29 25L29 24L31 24L31 22L32 22L32 21L33 21L33 22L34 22L34 19L32 19L32 17L31 17L31 16L30 16L30 17L29 17L29 16L28 16L28 15L27 15L27 13L28 13L28 14L31 14L31 15L32 15L32 14L33 14L33 12L32 12L32 11L28 11L28 10L29 10L29 9L30 9L30 8L29 8L29 7L30 7L30 6L31 6L31 10L33 10L33 9L32 9L32 6L31 6L31 5L32 5L32 4L31 4L31 5L30 5L30 4L28 4L28 5L29 5L29 7L28 7L28 6L27 6L27 10L25 10L25 11L23 11L23 10L19 10L19 11L20 11L20 13L16 13L16 12L15 12L15 13L14 13L14 14L13 14L13 15L12 15L12 13L13 13L13 11L14 11L14 10L13 10L13 8L14 8L14 5L13 5L13 7L12 7L12 5L11 5L11 4L12 4L12 3ZM21 4L21 5L22 5L22 6L23 6L23 7L24 7L24 6L23 6L23 4ZM15 6L15 7L16 7L16 6ZM39 8L39 9L40 9L40 10L41 10L41 8ZM0 9L0 10L1 10L1 9ZM11 9L11 10L10 10L10 12L11 12L11 13L12 13L12 11L13 11L13 10L12 10L12 9ZM35 9L35 10L37 10L37 9ZM11 10L11 11L12 11L12 10ZM17 11L17 12L18 12L18 11ZM22 11L22 12L21 12L21 13L20 13L20 14L19 14L19 16L17 16L17 15L18 15L18 14L16 14L16 15L15 15L15 16L14 16L14 15L13 15L13 16L12 16L12 15L11 15L11 16L12 16L12 17L11 17L11 19L12 19L12 20L11 20L11 21L12 21L12 20L16 20L16 19L17 19L17 18L16 18L16 19L14 19L14 17L19 17L19 18L20 18L20 17L19 17L19 16L20 16L20 14L21 14L21 13L22 13L22 14L23 14L23 15L22 15L22 16L21 16L21 17L22 17L22 19L21 19L21 20L20 20L20 19L18 19L18 20L17 20L17 21L16 21L16 22L15 22L15 21L14 21L14 22L15 22L15 23L17 23L17 24L15 24L15 25L17 25L17 24L18 24L18 25L20 25L20 26L21 26L21 27L20 27L20 28L19 28L19 30L18 30L18 28L13 28L13 27L16 27L16 26L13 26L13 27L12 27L12 28L10 28L10 29L11 29L11 30L12 30L12 32L14 32L14 31L16 31L16 32L17 32L17 33L16 33L16 34L17 34L17 33L18 33L18 31L21 31L21 33L22 33L22 34L23 34L23 35L21 35L21 37L22 37L22 36L23 36L23 35L26 35L26 36L25 36L25 37L27 37L27 35L26 35L26 34L27 34L27 33L26 33L26 32L28 32L28 35L29 35L29 36L30 36L30 34L29 34L29 32L30 32L30 31L26 31L26 29L27 29L27 30L28 30L28 29L27 29L27 28L26 28L26 29L24 29L24 25L25 25L25 27L27 27L27 25L26 25L26 24L29 24L29 23L26 23L26 24L25 24L25 23L24 23L24 22L21 22L21 21L22 21L22 19L23 19L23 21L26 21L26 22L27 22L27 20L28 20L28 19L23 19L23 18L25 18L25 16L23 16L23 15L24 15L24 14L23 14L23 13L24 13L24 12L23 12L23 11ZM27 11L27 12L26 12L26 13L25 13L25 14L26 14L26 13L27 13L27 12L28 12L28 13L31 13L31 12L28 12L28 11ZM7 13L7 14L8 14L8 15L7 15L7 16L9 16L9 14L10 14L10 13ZM40 14L40 15L41 15L41 14ZM26 15L26 18L27 18L27 17L28 17L28 16L27 16L27 15ZM12 17L12 19L13 19L13 17ZM39 17L39 19L37 19L37 20L40 20L40 17ZM6 18L6 19L8 19L8 18ZM30 18L30 19L29 19L29 22L31 22L31 18ZM19 20L19 21L20 21L20 20ZM17 21L17 23L18 23L18 24L19 24L19 23L18 23L18 21ZM36 21L36 22L37 22L37 21ZM3 22L3 23L4 23L4 22ZM11 23L11 26L12 26L12 25L14 25L14 23L13 23L13 24L12 24L12 23ZM23 23L23 25L22 25L22 24L21 24L21 25L22 25L22 26L23 26L23 25L24 25L24 23ZM28 25L28 26L29 26L29 25ZM17 26L17 27L18 27L18 26ZM40 26L40 28L41 28L41 26ZM5 27L5 28L4 28L4 29L3 29L3 30L5 30L5 31L6 31L6 32L7 32L7 31L8 31L8 29L6 29L6 30L5 30L5 28L7 28L7 27ZM12 28L12 30L16 30L16 31L17 31L17 30L16 30L16 29L13 29L13 28ZM20 28L20 30L21 30L21 29L22 29L22 28ZM6 30L6 31L7 31L7 30ZM22 30L22 31L23 31L23 30ZM24 30L24 32L22 32L22 33L25 33L25 30ZM38 30L38 32L37 32L37 31L36 31L36 32L37 32L37 33L38 33L38 34L37 34L37 35L38 35L38 34L39 34L39 33L40 33L40 32L39 32L39 31L40 31L40 30ZM33 31L33 32L34 32L34 31ZM0 32L0 33L1 33L1 32ZM19 32L19 33L20 33L20 32ZM38 32L38 33L39 33L39 32ZM33 33L33 36L36 36L36 33ZM34 34L34 35L35 35L35 34ZM17 37L17 38L18 38L18 37ZM31 37L31 38L32 38L32 37ZM36 37L36 38L37 38L37 40L38 40L38 38L37 38L37 37ZM39 38L39 39L40 39L40 38ZM0 0L0 7L7 7L7 0ZM1 1L1 6L6 6L6 1ZM2 2L2 5L5 5L5 2ZM34 0L34 7L41 7L41 0ZM35 1L35 6L40 6L40 1ZM36 2L36 5L39 5L39 2ZM0 34L0 41L7 41L7 34ZM1 35L1 40L6 40L6 35ZM2 36L2 39L5 39L5 36Z" fill="#000000"/></g></g></svg>
