<?xml version="1.0" encoding="UTF-8"?>
<svg xmlns="http://www.w3.org/2000/svg" version="1.1" width="200" height="200" viewBox="0 0 200 200"><rect x="0" y="0" width="200" height="200" fill="#ffffff"/><g transform="scale(6.897)"><g transform="translate(0,0)"><path fill-rule="evenodd" d="M8 0L8 1L9 1L9 0ZM10 0L10 2L9 2L9 3L8 3L8 4L11 4L11 5L10 5L10 8L8 8L8 10L6 10L6 11L4 11L4 10L5 10L5 9L7 9L7 8L4 8L4 9L3 9L3 8L2 8L2 10L1 10L1 9L0 9L0 11L1 11L1 12L0 12L0 13L1 13L1 14L2 14L2 13L1 13L1 12L2 12L2 11L3 11L3 14L4 14L4 15L2 15L2 16L1 16L1 15L0 15L0 17L2 17L2 19L1 19L1 18L0 18L0 19L1 19L1 20L0 20L0 21L1 21L1 20L2 20L2 21L3 21L3 20L2 20L2 19L7 19L7 18L8 18L8 17L9 17L9 14L10 14L10 18L11 18L11 19L10 19L10 20L9 20L9 19L8 19L8 20L5 20L5 21L8 21L8 22L9 22L9 23L8 23L8 25L9 25L9 26L8 26L8 27L9 27L9 29L11 29L11 28L13 28L13 29L14 29L14 27L15 27L15 29L16 29L16 28L17 28L17 27L19 27L19 28L18 28L18 29L20 29L20 27L21 27L21 26L22 26L22 25L23 25L23 26L24 26L24 25L25 25L25 26L28 26L28 27L27 27L27 28L26 28L26 27L25 27L25 28L23 28L23 27L22 27L22 28L23 28L23 29L25 29L25 28L26 28L26 29L27 29L27 28L28 28L28 29L29 29L29 26L28 26L28 25L29 25L29 24L28 24L28 23L27 23L27 24L26 24L26 23L25 23L25 20L26 20L26 21L28 21L28 22L29 22L29 21L28 21L28 19L29 19L29 18L27 18L27 17L26 17L26 14L24 14L24 13L25 13L25 11L26 11L26 13L27 13L27 14L28 14L28 15L27 15L27 16L28 16L28 17L29 17L29 16L28 16L28 15L29 15L29 14L28 14L28 13L29 13L29 12L28 12L28 11L29 11L29 8L28 8L28 9L27 9L27 10L28 10L28 11L26 11L26 8L25 8L25 9L24 9L24 10L25 10L25 11L24 11L24 12L23 12L23 10L22 10L22 8L21 8L21 0L20 0L20 1L19 1L19 2L20 2L20 3L19 3L19 5L18 5L18 3L17 3L17 2L18 2L18 1L17 1L17 0L15 0L15 1L17 1L17 2L14 2L14 1L13 1L13 0L12 0L12 2L11 2L11 0ZM12 2L12 3L11 3L11 4L14 4L14 3L13 3L13 2ZM16 3L16 4L15 4L15 5L14 5L14 6L13 6L13 7L12 7L12 6L11 6L11 8L12 8L12 9L13 9L13 10L11 10L11 11L6 11L6 12L9 12L9 13L10 13L10 14L11 14L11 12L12 12L12 15L11 15L11 17L12 17L12 15L14 15L14 17L13 17L13 18L12 18L12 19L11 19L11 20L10 20L10 21L9 21L9 22L10 22L10 25L11 25L11 24L12 24L12 23L13 23L13 24L14 24L14 26L12 26L12 27L14 27L14 26L15 26L15 25L16 25L16 27L17 27L17 26L18 26L18 25L19 25L19 26L20 26L20 24L19 24L19 23L20 23L20 22L17 22L17 21L18 21L18 20L19 20L19 21L20 21L20 20L21 20L21 19L22 19L22 18L23 18L23 19L24 19L24 18L25 18L25 19L26 19L26 20L27 20L27 18L26 18L26 17L24 17L24 16L25 16L25 15L24 15L24 14L23 14L23 15L22 15L22 14L21 14L21 13L20 13L20 14L19 14L19 13L17 13L17 12L20 12L20 11L18 11L18 10L19 10L19 8L20 8L20 5L19 5L19 7L18 7L18 5L16 5L16 4L17 4L17 3ZM8 6L8 7L9 7L9 6ZM14 6L14 7L15 7L15 6ZM16 6L16 9L15 9L15 8L14 8L14 10L17 10L17 6ZM14 11L14 12L17 12L17 11ZM21 11L21 12L22 12L22 11ZM27 12L27 13L28 13L28 12ZM6 13L6 14L5 14L5 15L4 15L4 16L3 16L3 17L4 17L4 18L7 18L7 17L8 17L8 13ZM13 13L13 14L14 14L14 15L15 15L15 16L16 16L16 17L18 17L18 19L19 19L19 20L20 20L20 19L19 19L19 18L20 18L20 17L18 17L18 16L17 16L17 13L16 13L16 14L14 14L14 13ZM6 14L6 15L5 15L5 16L4 16L4 17L5 17L5 16L6 16L6 17L7 17L7 16L6 16L6 15L7 15L7 14ZM20 14L20 15L19 15L19 16L20 16L20 15L21 15L21 14ZM23 15L23 16L22 16L22 17L23 17L23 18L24 18L24 17L23 17L23 16L24 16L24 15ZM14 17L14 18L13 18L13 19L12 19L12 20L13 20L13 21L14 21L14 22L13 22L13 23L14 23L14 24L15 24L15 23L16 23L16 21L15 21L15 19L16 19L16 18L15 18L15 17ZM14 18L14 19L15 19L15 18ZM21 21L21 24L24 24L24 21ZM22 22L22 23L23 23L23 22ZM17 24L17 25L18 25L18 24ZM27 24L27 25L28 25L28 24ZM10 27L10 28L11 28L11 27ZM0 0L0 7L7 7L7 0ZM1 1L1 6L6 6L6 1ZM2 2L2 5L5 5L5 2ZM22 0L22 7L29 7L29 0ZM23 1L23 6L28 6L28 1ZM24 2L24 5L27 5L27 2ZM0 22L0 29L7 29L7 22ZM1 23L1 28L6 28L6 23ZM2 24L2 27L5 27L5 24Z" fill="#000000"/></g></g></svg>
