<?xml version="1.0" encoding="UTF-8"?>
<svg xmlns="http://www.w3.org/2000/svg" version="1.1" width="200" height="200" viewBox="0 0 200 200"><rect x="0" y="0" width="200" height="200" fill="#ffffff"/><g transform="scale(4.878)"><g transform="translate(0,0)"><path fill-rule="evenodd" d="M8 0L8 2L11 2L11 3L10 3L10 4L9 4L9 3L8 3L8 7L9 7L9 5L10 5L10 4L12 4L12 5L11 5L11 6L10 6L10 8L11 8L11 9L10 9L10 10L9 10L9 9L7 9L7 8L6 8L6 9L4 9L4 8L3 8L3 9L0 9L0 10L3 10L3 11L2 11L2 12L1 12L1 13L2 13L2 12L5 12L5 13L3 13L3 14L6 14L6 15L8 15L8 16L6 16L6 17L5 17L5 15L4 15L4 17L3 17L3 18L5 18L5 20L6 20L6 21L8 21L8 20L10 20L10 21L9 21L9 22L8 22L8 23L7 23L7 22L6 22L6 23L7 23L7 24L6 24L6 25L7 25L7 26L6 26L6 27L7 27L7 28L5 28L5 29L7 29L7 30L5 30L5 31L7 31L7 32L4 32L4 30L3 30L3 29L2 29L2 27L5 27L5 26L2 26L2 25L0 25L0 29L1 29L1 30L0 30L0 31L1 31L1 30L2 30L2 33L3 33L3 32L4 32L4 33L7 33L7 32L8 32L8 34L9 34L9 33L11 33L11 34L10 34L10 35L11 35L11 37L10 37L10 36L9 36L9 37L8 37L8 38L9 38L9 37L10 37L10 39L12 39L12 38L13 38L13 41L15 41L15 40L14 40L14 39L17 39L17 37L18 37L18 40L16 40L16 41L18 41L18 40L19 40L19 41L24 41L24 40L21 40L21 38L19 38L19 37L21 37L21 36L19 36L19 35L21 35L21 34L23 34L23 31L24 31L24 32L25 32L25 33L26 33L26 34L24 34L24 35L26 35L26 34L27 34L27 32L28 32L28 34L29 34L29 35L27 35L27 36L22 36L22 39L23 39L23 37L24 37L24 39L25 39L25 37L27 37L27 36L30 36L30 34L32 34L32 37L31 37L31 38L30 38L30 37L28 37L28 39L29 39L29 41L30 41L30 40L32 40L32 41L33 41L33 39L34 39L34 38L36 38L36 40L37 40L37 41L40 41L40 39L41 39L41 38L40 38L40 37L38 37L38 36L39 36L39 35L38 35L38 34L37 34L37 33L39 33L39 34L41 34L41 29L39 29L39 28L40 28L40 27L41 27L41 26L40 26L40 27L39 27L39 28L37 28L37 30L36 30L36 29L35 29L35 31L34 31L34 30L32 30L32 29L33 29L33 28L31 28L31 27L30 27L30 26L33 26L33 24L32 24L32 22L31 22L31 17L33 17L33 18L32 18L32 21L33 21L33 19L34 19L34 22L33 22L33 23L34 23L34 25L35 25L35 26L34 26L34 27L35 27L35 28L36 28L36 27L38 27L38 26L39 26L39 25L40 25L40 24L41 24L41 23L40 23L40 22L38 22L38 21L40 21L40 20L41 20L41 16L39 16L39 17L37 17L37 19L36 19L36 21L35 21L35 19L34 19L34 18L35 18L35 17L36 17L36 13L34 13L34 12L35 12L35 10L36 10L36 11L37 11L37 10L38 10L38 8L35 8L35 9L34 9L34 10L31 10L31 8L30 8L30 7L31 7L31 6L32 6L32 9L33 9L33 6L32 6L32 5L31 5L31 4L32 4L32 3L33 3L33 1L32 1L32 0L27 0L27 2L26 2L26 3L25 3L25 4L22 4L22 5L21 5L21 4L20 4L20 5L21 5L21 6L20 6L20 7L19 7L19 6L18 6L18 7L17 7L17 6L16 6L16 5L15 5L15 4L17 4L17 5L19 5L19 4L17 4L17 3L18 3L18 2L19 2L19 3L24 3L24 2L25 2L25 0L23 0L23 2L22 2L22 1L20 1L20 0L15 0L15 1L14 1L14 0L13 0L13 1L11 1L11 0L10 0L10 1L9 1L9 0ZM28 1L28 2L27 2L27 3L26 3L26 4L25 4L25 5L22 5L22 6L21 6L21 7L22 7L22 6L23 6L23 7L24 7L24 8L23 8L23 9L24 9L24 11L23 11L23 10L18 10L18 11L16 11L16 10L17 10L17 9L18 9L18 8L19 8L19 9L21 9L21 8L19 8L19 7L18 7L18 8L17 8L17 7L16 7L16 6L15 6L15 9L14 9L14 8L13 8L13 7L14 7L14 6L13 6L13 5L12 5L12 6L11 6L11 8L12 8L12 9L11 9L11 10L10 10L10 11L9 11L9 10L8 10L8 11L9 11L9 17L8 17L8 18L9 18L9 19L10 19L10 20L11 20L11 22L9 22L9 23L8 23L8 24L9 24L9 26L10 26L10 27L8 27L8 28L7 28L7 29L9 29L9 28L10 28L10 27L11 27L11 26L12 26L12 27L13 27L13 26L14 26L14 25L16 25L16 26L15 26L15 27L14 27L14 28L13 28L13 29L12 29L12 30L13 30L13 31L11 31L11 29L10 29L10 30L9 30L9 31L8 31L8 30L7 30L7 31L8 31L8 32L9 32L9 31L11 31L11 33L12 33L12 32L14 32L14 31L16 31L16 32L18 32L18 31L19 31L19 30L20 30L20 29L21 29L21 31L20 31L20 32L19 32L19 33L20 33L20 34L21 34L21 33L22 33L22 32L21 32L21 31L22 31L22 27L23 27L23 29L24 29L24 31L26 31L26 32L27 32L27 31L29 31L29 30L31 30L31 28L30 28L30 29L28 29L28 28L29 28L29 27L28 27L28 26L30 26L30 25L28 25L28 24L24 24L24 25L23 25L23 23L24 23L24 22L25 22L25 23L26 23L26 22L25 22L25 20L24 20L24 19L25 19L25 18L24 18L24 16L23 16L23 15L22 15L22 14L24 14L24 15L25 15L25 17L27 17L27 18L26 18L26 19L28 19L28 20L26 20L26 21L27 21L27 23L28 23L28 22L29 22L29 19L30 19L30 17L29 17L29 16L28 16L28 15L26 15L26 14L27 14L27 13L28 13L28 14L29 14L29 13L28 13L28 12L31 12L31 13L30 13L30 15L32 15L32 16L33 16L33 17L35 17L35 15L34 15L34 14L33 14L33 12L32 12L32 11L31 11L31 10L30 10L30 11L29 11L29 9L30 9L30 8L29 8L29 7L30 7L30 6L29 6L29 7L28 7L28 6L27 6L27 7L28 7L28 8L26 8L26 5L27 5L27 4L28 4L28 5L30 5L30 4L28 4L28 3L30 3L30 1ZM31 1L31 3L32 3L32 1ZM12 2L12 4L15 4L15 3L16 3L16 2L14 2L14 3L13 3L13 2ZM12 6L12 7L13 7L13 6ZM24 6L24 7L25 7L25 6ZM24 8L24 9L25 9L25 10L26 10L26 12L25 12L25 11L24 11L24 13L25 13L25 14L26 14L26 12L27 12L27 10L26 10L26 9L25 9L25 8ZM39 8L39 9L40 9L40 10L41 10L41 8ZM6 9L6 10L7 10L7 9ZM12 9L12 10L11 10L11 11L10 11L10 14L11 14L11 17L10 17L10 18L11 18L11 17L12 17L12 16L13 16L13 20L12 20L12 19L11 19L11 20L12 20L12 21L14 21L14 23L15 23L15 24L16 24L16 25L17 25L17 27L16 27L16 28L15 28L15 30L16 30L16 31L18 31L18 25L20 25L20 28L21 28L21 27L22 27L22 25L21 25L21 23L23 23L23 22L24 22L24 21L23 21L23 22L22 22L22 20L23 20L23 19L22 19L22 20L20 20L20 21L19 21L19 22L20 22L20 21L21 21L21 23L19 23L19 24L18 24L18 23L17 23L17 22L18 22L18 21L16 21L16 23L15 23L15 21L14 21L14 17L15 17L15 18L17 18L17 19L15 19L15 20L18 20L18 19L21 19L21 18L20 18L20 17L18 17L18 16L17 16L17 17L15 17L15 16L16 16L16 15L17 15L17 14L18 14L18 12L19 12L19 13L21 13L21 12L19 12L19 11L18 11L18 12L15 12L15 13L13 13L13 12L12 12L12 14L11 14L11 11L15 11L15 10L14 10L14 9ZM36 9L36 10L37 10L37 9ZM4 10L4 11L5 11L5 10ZM6 11L6 12L7 12L7 11ZM38 11L38 13L37 13L37 14L38 14L38 15L37 15L37 16L38 16L38 15L39 15L39 14L38 14L38 13L41 13L41 11ZM22 12L22 13L23 13L23 12ZM6 13L6 14L8 14L8 13ZM15 13L15 14L14 14L14 15L13 15L13 14L12 14L12 15L13 15L13 16L14 16L14 15L16 15L16 14L17 14L17 13ZM0 14L0 16L1 16L1 15L2 15L2 14ZM19 14L19 15L20 15L20 14ZM32 14L32 15L33 15L33 14ZM40 14L40 15L41 15L41 14ZM21 15L21 17L22 17L22 18L23 18L23 16L22 16L22 15ZM27 16L27 17L28 17L28 16ZM6 17L6 18L7 18L7 17ZM17 17L17 18L18 18L18 17ZM39 17L39 18L38 18L38 20L37 20L37 21L36 21L36 22L37 22L37 21L38 21L38 20L40 20L40 17ZM1 18L1 19L0 19L0 20L1 20L1 19L2 19L2 21L1 21L1 22L2 22L2 23L1 23L1 24L2 24L2 23L3 23L3 22L4 22L4 24L5 24L5 21L3 21L3 19L2 19L2 18ZM28 18L28 19L29 19L29 18ZM6 19L6 20L8 20L8 19ZM12 22L12 23L11 23L11 24L13 24L13 25L12 25L12 26L13 26L13 25L14 25L14 24L13 24L13 22ZM30 22L30 23L29 23L29 24L31 24L31 25L32 25L32 24L31 24L31 22ZM34 22L34 23L35 23L35 24L36 24L36 26L35 26L35 27L36 27L36 26L37 26L37 25L38 25L38 24L37 24L37 23L35 23L35 22ZM16 23L16 24L17 24L17 25L18 25L18 24L17 24L17 23ZM10 25L10 26L11 26L11 25ZM25 25L25 26L23 26L23 27L24 27L24 28L25 28L25 26L26 26L26 25ZM1 26L1 27L2 27L2 26ZM26 27L26 28L27 28L27 27ZM13 29L13 30L14 30L14 29ZM25 29L25 30L28 30L28 29ZM38 29L38 30L37 30L37 31L36 31L36 32L39 32L39 31L40 31L40 30L39 30L39 29ZM38 30L38 31L39 31L39 30ZM30 31L30 32L29 32L29 34L30 34L30 32L31 32L31 31ZM33 31L33 32L34 32L34 31ZM0 32L0 33L1 33L1 32ZM14 33L14 34L11 34L11 35L15 35L15 36L14 36L14 38L15 38L15 36L16 36L16 37L17 37L17 36L16 36L16 35L18 35L18 33L17 33L17 34L16 34L16 33ZM33 33L33 36L36 36L36 33ZM34 34L34 35L35 35L35 34ZM12 36L12 37L13 37L13 36ZM18 36L18 37L19 37L19 36ZM32 37L32 38L31 38L31 39L32 39L32 38L33 38L33 37ZM36 37L36 38L37 38L37 40L38 40L38 38L37 38L37 37ZM26 38L26 41L27 41L27 38ZM29 38L29 39L30 39L30 38ZM39 38L39 39L40 39L40 38ZM19 39L19 40L20 40L20 39ZM11 40L11 41L12 41L12 40ZM0 0L0 7L7 7L7 0ZM1 1L1 6L6 6L6 1ZM2 2L2 5L5 5L5 2ZM34 0L34 7L41 7L41 0ZM35 1L35 6L40 6L40 1ZM36 2L36 5L39 5L39 2ZM0 34L0 41L7 41L7 34ZM1 35L1 40L6 40L6 35ZM2 36L2 39L5 39L5 36Z" fill="#000000"/></g></g></svg>
