<?xml version="1.0" encoding="UTF-8"?>
<svg xmlns="http://www.w3.org/2000/svg" version="1.1" width="200" height="200" viewBox="0 0 200 200"><rect x="0" y="0" width="200" height="200" fill="#ffffff"/><g transform="scale(4.878)"><g transform="translate(0,0)"><path fill-rule="evenodd" d="M11 0L11 1L13 1L13 0ZM14 0L14 1L15 1L15 0ZM16 0L16 1L17 1L17 2L18 2L18 1L17 1L17 0ZM24 0L24 1L23 1L23 3L22 3L22 2L21 2L21 1L20 1L20 3L18 3L18 5L17 5L17 3L16 3L16 2L15 2L15 4L16 4L16 5L17 5L17 6L16 6L16 7L15 7L15 6L14 6L14 5L13 5L13 4L14 4L14 2L12 2L12 5L13 5L13 6L12 6L12 7L13 7L13 8L12 8L12 9L13 9L13 10L11 10L11 9L10 9L10 11L9 11L9 12L8 12L8 11L7 11L7 10L6 10L6 9L8 9L8 8L9 8L9 6L10 6L10 7L11 7L11 5L10 5L10 4L11 4L11 2L10 2L10 1L8 1L8 2L9 2L9 3L10 3L10 4L9 4L9 5L8 5L8 8L4 8L4 9L5 9L5 10L4 10L4 14L5 14L5 16L4 16L4 17L1 17L1 16L2 16L2 15L3 15L3 14L2 14L2 13L3 13L3 12L2 12L2 13L1 13L1 12L0 12L0 13L1 13L1 14L2 14L2 15L0 15L0 24L1 24L1 23L2 23L2 22L3 22L3 24L2 24L2 25L0 25L0 26L1 26L1 28L2 28L2 25L4 25L4 24L5 24L5 25L7 25L7 26L6 26L6 27L7 27L7 28L6 28L6 29L3 29L3 30L2 30L2 31L3 31L3 33L5 33L5 32L6 32L6 33L8 33L8 37L9 37L9 39L11 39L11 38L10 38L10 37L11 37L11 36L10 36L10 35L9 35L9 34L10 34L10 33L8 33L8 29L9 29L9 32L10 32L10 29L12 29L12 30L11 30L11 31L12 31L12 32L13 32L13 30L15 30L15 29L16 29L16 30L17 30L17 31L16 31L16 33L17 33L17 35L16 35L16 34L15 34L15 36L14 36L14 37L13 37L13 38L12 38L12 41L14 41L14 40L17 40L17 41L18 41L18 40L19 40L19 41L20 41L20 40L23 40L23 41L25 41L25 40L26 40L26 41L27 41L27 39L28 39L28 40L29 40L29 41L30 41L30 40L31 40L31 39L29 39L29 38L28 38L28 37L29 37L29 35L28 35L28 33L29 33L29 34L30 34L30 35L31 35L31 37L30 37L30 38L31 38L31 37L32 37L32 38L33 38L33 37L36 37L36 38L37 38L37 34L38 34L38 35L41 35L41 33L40 33L40 34L39 34L39 33L38 33L38 31L41 31L41 24L40 24L40 23L41 23L41 22L40 22L40 21L41 21L41 13L40 13L40 12L38 12L38 11L41 11L41 9L40 9L40 8L39 8L39 9L36 9L36 8L34 8L34 9L32 9L32 7L33 7L33 6L32 6L32 5L31 5L31 3L32 3L32 1L33 1L33 0L32 0L32 1L31 1L31 3L29 3L29 4L30 4L30 5L28 5L28 4L27 4L27 5L28 5L28 7L27 7L27 6L26 6L26 7L27 7L27 8L28 8L28 9L27 9L27 11L28 11L28 12L29 12L29 13L28 13L28 15L29 15L29 17L30 17L30 18L28 18L28 16L27 16L27 13L26 13L26 12L25 12L25 13L24 13L24 12L23 12L23 11L21 11L21 6L22 6L22 8L23 8L23 9L22 9L22 10L23 10L23 9L25 9L25 10L24 10L24 11L25 11L25 10L26 10L26 9L25 9L25 6L24 6L24 5L26 5L26 4L25 4L25 2L26 2L26 3L28 3L28 2L30 2L30 0L29 0L29 1L28 1L28 0L27 0L27 1L26 1L26 0ZM27 1L27 2L28 2L28 1ZM21 3L21 4L20 4L20 6L19 6L19 7L18 7L18 6L17 6L17 7L18 7L18 8L19 8L19 9L17 9L17 8L16 8L16 9L14 9L14 8L15 8L15 7L14 7L14 6L13 6L13 7L14 7L14 8L13 8L13 9L14 9L14 10L13 10L13 14L11 14L11 11L10 11L10 15L11 15L11 16L13 16L13 17L14 17L14 18L12 18L12 20L11 20L11 19L10 19L10 21L9 21L9 20L8 20L8 19L9 19L9 18L8 18L8 19L6 19L6 18L7 18L7 17L6 17L6 16L9 16L9 17L10 17L10 16L9 16L9 15L6 15L6 16L5 16L5 17L4 17L4 18L3 18L3 19L2 19L2 18L1 18L1 19L2 19L2 21L1 21L1 22L2 22L2 21L4 21L4 22L5 22L5 23L6 23L6 24L7 24L7 23L8 23L8 22L9 22L9 23L11 23L11 26L10 26L10 24L9 24L9 27L8 27L8 28L7 28L7 29L6 29L6 30L7 30L7 29L8 29L8 28L9 28L9 29L10 29L10 27L11 27L11 28L12 28L12 29L14 29L14 28L15 28L15 26L16 26L16 25L17 25L17 24L18 24L18 23L17 23L17 22L19 22L19 23L21 23L21 24L19 24L19 25L18 25L18 26L17 26L17 27L18 27L18 28L20 28L20 30L22 30L22 32L21 32L21 31L18 31L18 33L19 33L19 34L20 34L20 35L21 35L21 34L22 34L22 35L23 35L23 37L24 37L24 39L27 39L27 38L26 38L26 37L28 37L28 35L27 35L27 33L28 33L28 32L27 32L27 30L28 30L28 31L30 31L30 32L31 32L31 33L30 33L30 34L31 34L31 33L32 33L32 32L31 32L31 30L30 30L30 29L31 29L31 28L32 28L32 27L33 27L33 29L32 29L32 31L33 31L33 32L34 32L34 31L36 31L36 32L37 32L37 31L38 31L38 30L37 30L37 31L36 31L36 29L37 29L37 26L38 26L38 28L39 28L39 30L40 30L40 28L39 28L39 25L37 25L37 24L39 24L39 23L40 23L40 22L39 22L39 20L40 20L40 19L39 19L39 16L40 16L40 15L38 15L38 14L37 14L37 15L35 15L35 16L34 16L34 15L32 15L32 14L30 14L30 13L29 13L29 15L31 15L31 16L30 16L30 17L31 17L31 18L30 18L30 19L32 19L32 20L33 20L33 21L30 21L30 20L28 20L28 19L27 19L27 17L26 17L26 18L25 18L25 16L26 16L26 15L25 15L25 14L24 14L24 16L23 16L23 15L21 15L21 16L20 16L20 14L18 14L18 11L19 11L19 13L20 13L20 12L21 12L21 11L19 11L19 10L20 10L20 6L21 6L21 4L22 4L22 6L23 6L23 7L24 7L24 6L23 6L23 4L22 4L22 3ZM30 5L30 6L29 6L29 7L28 7L28 8L29 8L29 7L30 7L30 8L31 8L31 7L32 7L32 6L31 6L31 5ZM30 6L30 7L31 7L31 6ZM1 9L1 10L0 10L0 11L1 11L1 10L2 10L2 11L3 11L3 9ZM16 9L16 10L17 10L17 11L15 11L15 13L17 13L17 11L18 11L18 10L17 10L17 9ZM28 9L28 10L31 10L31 12L32 12L32 13L33 13L33 14L36 14L36 13L37 13L37 11L36 11L36 9L35 9L35 10L33 10L33 11L34 11L34 12L35 12L35 13L33 13L33 12L32 12L32 9ZM5 11L5 13L6 13L6 14L7 14L7 13L8 13L8 12L7 12L7 11ZM35 11L35 12L36 12L36 11ZM6 12L6 13L7 13L7 12ZM22 13L22 14L23 14L23 13ZM13 14L13 16L14 16L14 14ZM15 14L15 18L14 18L14 21L13 21L13 20L12 20L12 21L13 21L13 22L12 22L12 24L13 24L13 25L12 25L12 26L13 26L13 27L14 27L14 26L15 26L15 25L14 25L14 24L15 24L15 23L16 23L16 24L17 24L17 23L16 23L16 22L17 22L17 21L15 21L15 18L16 18L16 20L18 20L18 19L17 19L17 18L19 18L19 15L18 15L18 14ZM37 15L37 17L36 17L36 16L35 16L35 17L34 17L34 18L35 18L35 19L34 19L34 20L35 20L35 21L33 21L33 22L34 22L34 23L30 23L30 21L27 21L27 24L28 24L28 25L27 25L27 26L26 26L26 28L25 28L25 27L24 27L24 24L23 24L23 23L24 23L24 22L25 22L25 24L26 24L26 21L24 21L24 22L23 22L23 20L25 20L25 18L24 18L24 17L23 17L23 16L22 16L22 17L21 17L21 18L22 18L22 19L23 19L23 20L22 20L22 22L21 22L21 19L19 19L19 22L21 22L21 23L22 23L22 24L21 24L21 25L19 25L19 26L20 26L20 27L21 27L21 29L22 29L22 30L24 30L24 29L26 29L26 28L27 28L27 27L28 27L28 29L30 29L30 28L31 28L31 26L30 26L30 25L34 25L34 26L33 26L33 27L34 27L34 28L35 28L35 29L36 29L36 28L35 28L35 26L37 26L37 25L34 25L34 23L35 23L35 24L36 24L36 23L35 23L35 21L36 21L36 22L38 22L38 21L37 21L37 19L38 19L38 15ZM16 16L16 18L17 18L17 17L18 17L18 16ZM31 16L31 17L32 17L32 18L33 18L33 17L32 17L32 16ZM35 17L35 18L36 18L36 17ZM4 18L4 21L5 21L5 22L6 22L6 23L7 23L7 22L8 22L8 21L7 21L7 20L6 20L6 19L5 19L5 18ZM35 19L35 20L36 20L36 19ZM5 20L5 21L6 21L6 22L7 22L7 21L6 21L6 20ZM10 21L10 22L11 22L11 21ZM13 22L13 23L14 23L14 22ZM22 22L22 23L23 23L23 22ZM28 22L28 24L29 24L29 22ZM22 24L22 25L21 25L21 26L23 26L23 24ZM13 25L13 26L14 26L14 25ZM28 25L28 26L29 26L29 25ZM3 26L3 28L5 28L5 27L4 27L4 26ZM23 27L23 28L22 28L22 29L24 29L24 27ZM0 29L0 30L1 30L1 29ZM18 29L18 30L19 30L19 29ZM33 29L33 30L34 30L34 29ZM3 30L3 31L4 31L4 32L5 32L5 30ZM25 30L25 31L26 31L26 30ZM6 31L6 32L7 32L7 31ZM0 32L0 33L2 33L2 32ZM14 32L14 33L11 33L11 34L14 34L14 33L15 33L15 32ZM20 32L20 34L21 34L21 32ZM24 32L24 34L23 34L23 35L24 35L24 37L25 37L25 35L24 35L24 34L25 34L25 32ZM33 33L33 36L36 36L36 33ZM34 34L34 35L35 35L35 34ZM17 35L17 36L16 36L16 37L17 37L17 36L19 36L19 37L20 37L20 38L19 38L19 39L22 39L22 38L21 38L21 37L22 37L22 36L21 36L21 37L20 37L20 36L19 36L19 35ZM39 36L39 37L40 37L40 38L38 38L38 39L36 39L36 40L37 40L37 41L40 41L40 40L41 40L41 37L40 37L40 36ZM14 37L14 39L13 39L13 40L14 40L14 39L15 39L15 37ZM17 38L17 39L18 39L18 38ZM32 39L32 41L33 41L33 39ZM34 39L34 40L35 40L35 39ZM9 40L9 41L11 41L11 40ZM0 0L0 7L7 7L7 0ZM1 1L1 6L6 6L6 1ZM2 2L2 5L5 5L5 2ZM34 0L34 7L41 7L41 0ZM35 1L35 6L40 6L40 1ZM36 2L36 5L39 5L39 2ZM0 34L0 41L7 41L7 34ZM1 35L1 40L6 40L6 35ZM2 36L2 39L5 39L5 36Z" fill="#000000"/></g></g></svg>
