<?xml version="1.0" encoding="UTF-8"?>
<svg xmlns="http://www.w3.org/2000/svg" version="1.1" width="200" height="200" viewBox="0 0 200 200"><rect x="0" y="0" width="200" height="200" fill="#ffffff"/><g transform="scale(4.878)"><g transform="translate(0,0)"><path fill-rule="evenodd" d="M8 0L8 2L9 2L9 3L8 3L8 7L9 7L9 3L10 3L10 5L12 5L12 7L13 7L13 8L12 8L12 9L11 9L11 6L10 6L10 9L8 9L8 10L6 10L6 11L5 11L5 12L4 12L4 10L5 10L5 9L4 9L4 8L3 8L3 12L2 12L2 11L1 11L1 10L0 10L0 11L1 11L1 12L0 12L0 14L3 14L3 13L5 13L5 12L6 12L6 13L7 13L7 14L4 14L4 15L2 15L2 16L4 16L4 15L5 15L5 16L6 16L6 17L5 17L5 20L6 20L6 21L7 21L7 22L5 22L5 21L3 21L3 20L4 20L4 19L3 19L3 20L2 20L2 25L0 25L0 26L1 26L1 27L3 27L3 26L2 26L2 25L5 25L5 26L4 26L4 27L5 27L5 26L6 26L6 27L8 27L8 26L10 26L10 29L9 29L9 31L8 31L8 30L6 30L6 31L7 31L7 32L5 32L5 31L2 31L2 32L3 32L3 33L8 33L8 34L9 34L9 37L8 37L8 38L9 38L9 41L10 41L10 36L11 36L11 34L12 34L12 35L14 35L14 34L15 34L15 36L13 36L13 37L11 37L11 39L12 39L12 38L13 38L13 40L14 40L14 41L18 41L18 39L19 39L19 40L22 40L22 41L25 41L25 39L26 39L26 40L27 40L27 41L28 41L28 39L26 39L26 38L27 38L27 36L29 36L29 34L30 34L30 37L28 37L28 38L29 38L29 41L30 41L30 38L33 38L33 37L34 37L34 38L36 38L36 40L37 40L37 41L40 41L40 39L41 39L41 38L40 38L40 37L41 37L41 36L40 36L40 35L39 35L39 34L41 34L41 32L37 32L37 31L38 31L38 30L40 30L40 31L41 31L41 29L40 29L40 27L41 27L41 26L40 26L40 27L39 27L39 28L37 28L37 29L38 29L38 30L36 30L36 31L34 31L34 29L36 29L36 28L35 28L35 27L36 27L36 24L37 24L37 27L38 27L38 26L39 26L39 25L40 25L40 24L41 24L41 23L40 23L40 22L38 22L38 23L35 23L35 24L33 24L33 29L32 29L32 28L31 28L31 27L30 27L30 26L29 26L29 27L27 27L27 26L26 26L26 25L27 25L27 24L28 24L28 25L30 25L30 24L28 24L28 23L31 23L31 24L32 24L32 23L33 23L33 22L30 22L30 20L28 20L28 19L26 19L26 18L27 18L27 17L26 17L26 18L25 18L25 21L24 21L24 17L25 17L25 16L28 16L28 15L27 15L27 14L29 14L29 19L30 19L30 18L31 18L31 16L30 16L30 15L32 15L32 17L33 17L33 18L32 18L32 19L34 19L34 22L35 22L35 21L36 21L36 22L37 22L37 20L38 20L38 21L40 21L40 20L41 20L41 16L39 16L39 17L38 17L38 19L36 19L36 20L35 20L35 19L34 19L34 18L35 18L35 17L36 17L36 13L35 13L35 12L36 12L36 10L35 10L35 9L37 9L37 10L38 10L38 8L35 8L35 9L33 9L33 8L32 8L32 9L33 9L33 10L35 10L35 12L34 12L34 15L35 15L35 17L33 17L33 15L32 15L32 14L33 14L33 12L32 12L32 10L31 10L31 11L30 11L30 12L29 12L29 13L26 13L26 11L27 11L27 9L26 9L26 8L25 8L25 6L26 6L26 7L27 7L27 8L28 8L28 7L29 7L29 8L30 8L30 7L31 7L31 6L32 6L32 7L33 7L33 3L32 3L32 2L31 2L31 4L32 4L32 5L31 5L31 6L30 6L30 5L29 5L29 6L28 6L28 4L30 4L30 1L29 1L29 0L27 0L27 1L26 1L26 0L25 0L25 1L24 1L24 0L23 0L23 3L22 3L22 0L20 0L20 1L21 1L21 2L19 2L19 4L21 4L21 5L22 5L22 7L21 7L21 6L20 6L20 7L19 7L19 5L16 5L16 4L18 4L18 3L16 3L16 2L14 2L14 4L13 4L13 3L12 3L12 2L13 2L13 1L11 1L11 0L10 0L10 2L9 2L9 0ZM15 0L15 1L17 1L17 2L18 2L18 1L19 1L19 0L18 0L18 1L17 1L17 0ZM31 0L31 1L33 1L33 0ZM28 1L28 2L26 2L26 3L27 3L27 4L28 4L28 3L29 3L29 1ZM24 2L24 3L23 3L23 4L22 4L22 5L23 5L23 4L24 4L24 6L23 6L23 7L22 7L22 8L21 8L21 7L20 7L20 10L21 10L21 11L20 11L20 12L19 12L19 13L18 13L18 11L15 11L15 10L19 10L19 9L17 9L17 7L18 7L18 6L17 6L17 7L16 7L16 5L13 5L13 7L14 7L14 6L15 6L15 7L16 7L16 9L15 9L15 8L14 8L14 9L12 9L12 10L10 10L10 11L9 11L9 12L8 12L8 15L6 15L6 16L8 16L8 17L6 17L6 18L7 18L7 19L6 19L6 20L7 20L7 19L8 19L8 17L10 17L10 16L11 16L11 17L12 17L12 18L15 18L15 17L16 17L16 16L17 16L17 18L16 18L16 19L15 19L15 20L14 20L14 21L15 21L15 20L16 20L16 21L17 21L17 22L18 22L18 23L19 23L19 24L18 24L18 25L17 25L17 24L16 24L16 23L15 23L15 22L14 22L14 24L11 24L11 23L12 23L12 20L10 20L10 23L8 23L8 22L9 22L9 21L8 21L8 22L7 22L7 23L5 23L5 22L3 22L3 24L4 24L4 23L5 23L5 24L7 24L7 25L6 25L6 26L7 26L7 25L8 25L8 24L11 24L11 25L10 25L10 26L11 26L11 31L9 31L9 34L11 34L11 33L10 33L10 32L11 32L11 31L12 31L12 30L14 30L14 31L13 31L13 32L12 32L12 33L13 33L13 34L14 34L14 33L15 33L15 34L16 34L16 35L17 35L17 36L15 36L15 37L13 37L13 38L14 38L14 40L16 40L16 39L17 39L17 38L18 38L18 37L19 37L19 38L20 38L20 37L19 37L19 36L20 36L20 35L21 35L21 38L22 38L22 37L23 37L23 40L24 40L24 37L25 37L25 36L22 36L22 34L23 34L23 35L24 35L24 34L27 34L27 35L28 35L28 33L26 33L26 32L29 32L29 33L30 33L30 34L31 34L31 35L32 35L32 32L34 32L34 31L33 31L33 30L30 30L30 29L29 29L29 28L27 28L27 27L26 27L26 26L25 26L25 27L23 27L23 28L25 28L25 29L26 29L26 28L27 28L27 29L29 29L29 30L30 30L30 32L29 32L29 31L26 31L26 32L25 32L25 33L24 33L24 34L23 34L23 32L24 32L24 31L22 31L22 34L21 34L21 31L20 31L20 32L19 32L19 31L18 31L18 33L20 33L20 35L19 35L19 36L18 36L18 34L16 34L16 33L17 33L17 32L16 32L16 31L17 31L17 29L15 29L15 28L18 28L18 26L21 26L21 27L20 27L20 28L19 28L19 29L18 29L18 30L20 30L20 29L22 29L22 30L23 30L23 29L22 29L22 25L21 25L21 21L22 21L22 20L23 20L23 19L22 19L22 18L21 18L21 19L22 19L22 20L20 20L20 22L18 22L18 20L19 20L19 19L20 19L20 18L18 18L18 17L19 17L19 16L17 16L17 15L16 15L16 14L14 14L14 15L15 15L15 17L14 17L14 16L12 16L12 15L13 15L13 13L11 13L11 12L12 12L12 11L13 11L13 12L17 12L17 13L18 13L18 15L19 15L19 14L20 14L20 15L21 15L21 17L23 17L23 15L21 15L21 14L25 14L25 15L26 15L26 13L25 13L25 11L24 11L24 10L21 10L21 9L23 9L23 8L24 8L24 6L25 6L25 2ZM15 3L15 4L16 4L16 3ZM27 6L27 7L28 7L28 6ZM29 6L29 7L30 7L30 6ZM6 8L6 9L7 9L7 8ZM39 8L39 9L40 9L40 10L41 10L41 8ZM14 9L14 10L15 10L15 9ZM25 9L25 10L26 10L26 9ZM29 9L29 10L30 10L30 9ZM6 11L6 12L7 12L7 11ZM21 11L21 12L23 12L23 13L24 13L24 12L23 12L23 11ZM38 11L38 13L41 13L41 11L40 11L40 12L39 12L39 11ZM9 12L9 13L10 13L10 14L9 14L9 16L10 16L10 14L11 14L11 13L10 13L10 12ZM31 12L31 13L30 13L30 14L32 14L32 12ZM37 14L37 16L38 16L38 15L39 15L39 14ZM40 14L40 15L41 15L41 14ZM0 15L0 16L1 16L1 15ZM1 17L1 18L4 18L4 17ZM39 17L39 19L38 19L38 20L40 20L40 17ZM10 18L10 19L11 19L11 18ZM17 18L17 19L18 19L18 18ZM0 19L0 21L1 21L1 19ZM26 20L26 21L25 21L25 22L27 22L27 23L24 23L24 24L23 24L23 22L22 22L22 24L23 24L23 26L24 26L24 25L26 25L26 24L27 24L27 23L28 23L28 20ZM31 20L31 21L33 21L33 20ZM0 22L0 23L1 23L1 22ZM7 23L7 24L8 24L8 23ZM39 23L39 24L38 24L38 25L39 25L39 24L40 24L40 23ZM11 25L11 26L12 26L12 29L14 29L14 25L13 25L13 26L12 26L12 25ZM15 25L15 27L16 27L16 26L17 26L17 25ZM31 25L31 26L32 26L32 25ZM34 25L34 27L35 27L35 25ZM25 27L25 28L26 28L26 27ZM1 28L1 29L2 29L2 28ZM3 28L3 29L4 29L4 30L5 30L5 29L7 29L7 28L5 28L5 29L4 29L4 28ZM0 30L0 31L1 31L1 30ZM15 30L15 31L14 31L14 32L15 32L15 31L16 31L16 30ZM0 32L0 33L1 33L1 32ZM33 33L33 36L36 36L36 33ZM37 33L37 34L39 34L39 33ZM34 34L34 35L35 35L35 34ZM37 35L37 37L36 37L36 38L37 38L37 39L38 39L38 40L39 40L39 39L40 39L40 38L39 38L39 37L40 37L40 36L38 36L38 35ZM17 36L17 37L18 37L18 36ZM31 36L31 37L32 37L32 36ZM38 38L38 39L39 39L39 38ZM32 39L32 40L31 40L31 41L33 41L33 39ZM0 0L0 7L7 7L7 0ZM1 1L1 6L6 6L6 1ZM2 2L2 5L5 5L5 2ZM34 0L34 7L41 7L41 0ZM35 1L35 6L40 6L40 1ZM36 2L36 5L39 5L39 2ZM0 34L0 41L7 41L7 34ZM1 35L1 40L6 40L6 35ZM2 36L2 39L5 39L5 36Z" fill="#000000"/></g></g></svg>
