<?xml version="1.0" encoding="UTF-8"?>
<svg xmlns="http://www.w3.org/2000/svg" version="1.1" width="200" height="200" viewBox="0 0 200 200"><rect x="0" y="0" width="200" height="200" fill="#ffffff"/><g transform="scale(4.878)"><g transform="translate(0,0)"><path fill-rule="evenodd" d="M8 0L8 3L9 3L9 4L10 4L10 5L11 5L11 6L10 6L10 7L11 7L11 8L9 8L9 5L8 5L8 9L7 9L7 8L6 8L6 9L5 9L5 8L2 8L2 9L4 9L4 10L6 10L6 11L2 11L2 10L1 10L1 12L0 12L0 16L1 16L1 17L3 17L3 16L4 16L4 18L5 18L5 20L4 20L4 19L1 19L1 18L0 18L0 19L1 19L1 20L0 20L0 23L1 23L1 24L0 24L0 25L3 25L3 24L4 24L4 26L3 26L3 27L2 27L2 29L3 29L3 28L5 28L5 27L4 27L4 26L5 26L5 24L6 24L6 25L7 25L7 26L6 26L6 27L7 27L7 28L6 28L6 29L7 29L7 30L6 30L6 31L7 31L7 30L9 30L9 31L8 31L8 32L9 32L9 33L8 33L8 34L9 34L9 35L10 35L10 36L8 36L8 39L10 39L10 38L12 38L12 37L13 37L13 39L11 39L11 40L9 40L9 41L11 41L11 40L13 40L13 39L14 39L14 41L16 41L16 40L19 40L19 41L21 41L21 39L23 39L23 40L22 40L22 41L25 41L25 40L26 40L26 41L28 41L28 40L27 40L27 39L28 39L28 38L26 38L26 37L29 37L29 36L31 36L31 35L32 35L32 38L34 38L34 39L35 39L35 40L36 40L36 39L37 39L37 40L40 40L40 38L41 38L41 37L39 37L39 36L38 36L38 35L37 35L37 32L38 32L38 33L39 33L39 35L40 35L40 34L41 34L41 33L40 33L40 32L41 32L41 31L40 31L40 30L41 30L41 29L39 29L39 30L37 30L37 29L36 29L36 28L38 28L38 26L39 26L39 28L40 28L40 26L41 26L41 23L39 23L39 24L40 24L40 26L39 26L39 25L36 25L36 24L37 24L37 21L39 21L39 20L36 20L36 19L35 19L35 17L36 17L36 18L37 18L37 19L38 19L38 18L37 18L37 17L39 17L39 16L37 16L37 15L38 15L38 14L37 14L37 13L36 13L36 14L35 14L35 15L36 15L36 16L35 16L35 17L34 17L34 16L32 16L32 17L30 17L30 16L31 16L31 15L30 15L30 16L29 16L29 15L28 15L28 16L29 16L29 17L30 17L30 19L31 19L31 20L30 20L30 21L31 21L31 22L32 22L32 23L33 23L33 22L32 22L32 21L34 21L34 22L35 22L35 23L36 23L36 24L35 24L35 25L34 25L34 24L33 24L33 25L32 25L32 24L31 24L31 23L30 23L30 24L26 24L26 23L28 23L28 22L29 22L29 21L28 21L28 20L29 20L29 18L26 18L26 17L25 17L25 16L24 16L24 15L25 15L25 14L29 14L29 13L30 13L30 14L31 14L31 10L32 10L32 11L33 11L33 12L32 12L32 13L33 13L33 14L32 14L32 15L34 15L34 13L35 13L35 12L38 12L38 11L39 11L39 13L40 13L40 14L39 14L39 15L40 15L40 14L41 14L41 13L40 13L40 10L41 10L41 8L38 8L38 9L40 9L40 10L37 10L37 9L36 9L36 8L33 8L33 4L32 4L32 3L31 3L31 2L30 2L30 0L29 0L29 1L27 1L27 0L26 0L26 1L27 1L27 2L26 2L26 3L31 3L31 4L30 4L30 5L29 5L29 4L28 4L28 5L27 5L27 4L26 4L26 5L25 5L25 4L24 4L24 3L25 3L25 0L19 0L19 1L18 1L18 3L17 3L17 4L16 4L16 5L17 5L17 6L16 6L16 7L17 7L17 9L16 9L16 8L15 8L15 5L13 5L13 4L15 4L15 3L16 3L16 2L17 2L17 0L15 0L15 1L14 1L14 0L13 0L13 2L12 2L12 1L11 1L11 0L10 0L10 1L9 1L9 0ZM31 0L31 1L32 1L32 2L33 2L33 1L32 1L32 0ZM10 1L10 2L9 2L9 3L10 3L10 4L11 4L11 5L12 5L12 4L11 4L11 3L12 3L12 2L11 2L11 1ZM15 1L15 2L14 2L14 3L15 3L15 2L16 2L16 1ZM20 1L20 2L19 2L19 5L18 5L18 4L17 4L17 5L18 5L18 6L17 6L17 7L18 7L18 9L17 9L17 10L16 10L16 11L18 11L18 12L16 12L16 14L15 14L15 15L14 15L14 13L15 13L15 12L13 12L13 13L12 13L12 12L10 12L10 13L12 13L12 14L11 14L11 16L9 16L9 18L8 18L8 19L6 19L6 20L7 20L7 21L4 21L4 20L2 20L2 21L3 21L3 22L2 22L2 23L4 23L4 22L5 22L5 23L6 23L6 24L7 24L7 23L8 23L8 24L9 24L9 23L10 23L10 27L8 27L8 28L7 28L7 29L9 29L9 28L10 28L10 27L11 27L11 29L12 29L12 27L13 27L13 30L11 30L11 31L9 31L9 32L10 32L10 33L11 33L11 34L10 34L10 35L11 35L11 36L10 36L10 37L9 37L9 38L10 38L10 37L12 37L12 36L14 36L14 35L13 35L13 34L14 34L14 33L13 33L13 31L14 31L14 32L15 32L15 36L16 36L16 34L17 34L17 36L21 36L21 38L19 38L19 39L21 39L21 38L22 38L22 37L23 37L23 35L22 35L22 34L21 34L21 35L19 35L19 34L20 34L20 33L22 33L22 31L23 31L23 30L25 30L25 31L24 31L24 33L23 33L23 34L24 34L24 33L25 33L25 34L29 34L29 33L27 33L27 32L25 32L25 31L27 31L27 30L25 30L25 29L22 29L22 28L23 28L23 26L24 26L24 28L25 28L25 26L28 26L28 27L27 27L27 28L30 28L30 29L28 29L28 30L29 30L29 31L28 31L28 32L30 32L30 33L31 33L31 32L30 32L30 31L31 31L31 30L32 30L32 31L33 31L33 32L35 32L35 31L34 31L34 30L36 30L36 29L35 29L35 28L36 28L36 27L37 27L37 26L36 26L36 25L35 25L35 26L34 26L34 25L33 25L33 26L31 26L31 25L30 25L30 26L29 26L29 25L25 25L25 26L24 26L24 24L23 24L23 26L20 26L20 24L19 24L19 25L18 25L18 26L17 26L17 24L15 24L15 23L16 23L16 22L17 22L17 23L20 23L20 22L21 22L21 19L22 19L22 23L21 23L21 25L22 25L22 23L25 23L25 22L26 22L26 18L25 18L25 19L24 19L24 17L19 17L19 16L17 16L17 14L19 14L19 15L20 15L20 16L21 16L21 15L22 15L22 16L23 16L23 15L24 15L24 14L23 14L23 13L27 13L27 12L28 12L28 13L29 13L29 12L30 12L30 11L27 11L27 10L28 10L28 9L29 9L29 10L31 10L31 9L33 9L33 8L32 8L32 5L31 5L31 9L29 9L29 8L30 8L30 6L29 6L29 5L28 5L28 6L27 6L27 7L26 7L26 6L25 6L25 5L24 5L24 6L23 6L23 7L24 7L24 6L25 6L25 7L26 7L26 9L27 9L27 10L24 10L24 11L22 11L22 10L21 10L21 9L22 9L22 8L21 8L21 7L22 7L22 4L21 4L21 3L20 3L20 2L21 2L21 1ZM22 1L22 3L23 3L23 2L24 2L24 1ZM11 6L11 7L12 7L12 6ZM13 6L13 9L12 9L12 8L11 8L11 9L8 9L8 10L9 10L9 11L8 11L8 12L7 12L7 11L6 11L6 12L3 12L3 13L2 13L2 12L1 12L1 14L2 14L2 16L3 16L3 14L4 14L4 15L6 15L6 16L8 16L8 15L10 15L10 14L8 14L8 13L9 13L9 11L11 11L11 9L12 9L12 11L13 11L13 10L15 10L15 9L14 9L14 6ZM18 6L18 7L19 7L19 8L20 8L20 9L21 9L21 8L20 8L20 7L21 7L21 6L20 6L20 7L19 7L19 6ZM28 6L28 8L27 8L27 9L28 9L28 8L29 8L29 6ZM23 8L23 9L25 9L25 8ZM6 9L6 10L7 10L7 9ZM18 10L18 11L19 11L19 12L18 12L18 13L20 13L20 14L22 14L22 12L21 12L21 11L19 11L19 10ZM33 10L33 11L34 11L34 10ZM35 10L35 11L37 11L37 10ZM24 11L24 12L26 12L26 11ZM6 12L6 13L5 13L5 14L6 14L6 15L7 15L7 14L6 14L6 13L7 13L7 12ZM33 12L33 13L34 13L34 12ZM12 14L12 15L13 15L13 16L14 16L14 17L13 17L13 18L14 18L14 19L13 19L13 20L14 20L14 21L12 21L12 22L11 22L11 21L10 21L10 22L11 22L11 23L12 23L12 26L13 26L13 27L14 27L14 26L15 26L15 25L14 25L14 24L13 24L13 23L15 23L15 21L16 21L16 20L17 20L17 22L20 22L20 20L19 20L19 19L16 19L16 18L19 18L19 17L17 17L17 16L16 16L16 15L15 15L15 16L14 16L14 15L13 15L13 14ZM36 14L36 15L37 15L37 14ZM26 15L26 16L27 16L27 15ZM15 16L15 17L16 17L16 16ZM36 16L36 17L37 17L37 16ZM40 16L40 18L39 18L39 19L40 19L40 18L41 18L41 16ZM5 17L5 18L7 18L7 17ZM32 17L32 18L31 18L31 19L32 19L32 20L31 20L31 21L32 21L32 20L34 20L34 21L35 21L35 22L36 22L36 21L35 21L35 19L34 19L34 18L33 18L33 17ZM9 18L9 19L10 19L10 20L12 20L12 19L11 19L11 18ZM20 18L20 19L21 19L21 18ZM22 18L22 19L23 19L23 20L24 20L24 21L25 21L25 20L24 20L24 19L23 19L23 18ZM14 19L14 20L16 20L16 19ZM27 19L27 20L28 20L28 19ZM8 20L8 21L7 21L7 22L6 22L6 23L7 23L7 22L8 22L8 23L9 23L9 20ZM18 20L18 21L19 21L19 20ZM40 20L40 21L41 21L41 20ZM27 21L27 22L28 22L28 21ZM12 22L12 23L13 23L13 22ZM33 26L33 27L32 27L32 28L33 28L33 29L32 29L32 30L33 30L33 29L34 29L34 28L33 28L33 27L34 27L34 26ZM16 27L16 28L15 28L15 29L14 29L14 31L15 31L15 30L16 30L16 32L17 32L17 30L16 30L16 28L18 28L18 27ZM19 27L19 28L20 28L20 29L21 29L21 28L22 28L22 27L21 27L21 28L20 28L20 27ZM0 29L0 33L1 33L1 29ZM4 29L4 31L3 31L3 30L2 30L2 33L3 33L3 32L4 32L4 33L5 33L5 32L4 32L4 31L5 31L5 29ZM18 29L18 30L19 30L19 29ZM30 29L30 30L31 30L31 29ZM21 30L21 31L20 31L20 32L19 32L19 31L18 31L18 32L19 32L19 33L18 33L18 34L19 34L19 33L20 33L20 32L21 32L21 31L22 31L22 30ZM11 31L11 33L12 33L12 34L13 34L13 33L12 33L12 31ZM38 31L38 32L40 32L40 31ZM6 32L6 33L7 33L7 32ZM33 33L33 36L36 36L36 33ZM30 34L30 35L31 35L31 34ZM34 34L34 35L35 35L35 34ZM21 35L21 36L22 36L22 35ZM24 35L24 38L23 38L23 39L24 39L24 40L25 40L25 39L26 39L26 38L25 38L25 35ZM28 35L28 36L29 36L29 35ZM37 36L37 37L38 37L38 36ZM16 37L16 39L17 39L17 37ZM30 37L30 38L31 38L31 37ZM34 37L34 38L36 38L36 37ZM14 38L14 39L15 39L15 38ZM37 38L37 39L38 39L38 38ZM30 39L30 40L29 40L29 41L30 41L30 40L33 40L33 41L34 41L34 40L33 40L33 39ZM0 0L0 7L7 7L7 0ZM1 1L1 6L6 6L6 1ZM2 2L2 5L5 5L5 2ZM34 0L34 7L41 7L41 0ZM35 1L35 6L40 6L40 1ZM36 2L36 5L39 5L39 2ZM0 34L0 41L7 41L7 34ZM1 35L1 40L6 40L6 35ZM2 36L2 39L5 39L5 36Z" fill="#000000"/></g></g></svg>
