<?xml version="1.0" encoding="UTF-8"?>
<svg xmlns="http://www.w3.org/2000/svg" version="1.1" width="200" height="200" viewBox="0 0 200 200"><rect x="0" y="0" width="200" height="200" fill="#ffffff"/><g transform="scale(4.878)"><g transform="translate(0,0)"><path fill-rule="evenodd" d="M8 0L8 3L9 3L9 4L10 4L10 2L9 2L9 0ZM11 0L11 3L12 3L12 4L11 4L11 5L10 5L10 7L9 7L9 5L8 5L8 9L7 9L7 8L6 8L6 9L7 9L7 10L6 10L6 11L7 11L7 10L8 10L8 13L7 13L7 12L6 12L6 13L5 13L5 11L3 11L3 12L0 12L0 13L2 13L2 14L1 14L1 15L0 15L0 19L1 19L1 21L2 21L2 22L3 22L3 23L2 23L2 24L0 24L0 25L3 25L3 24L4 24L4 23L5 23L5 24L6 24L6 25L7 25L7 26L5 26L5 25L4 25L4 27L3 27L3 28L4 28L4 29L3 29L3 30L6 30L6 31L7 31L7 32L6 32L6 33L8 33L8 34L9 34L9 33L10 33L10 34L11 34L11 32L9 32L9 33L8 33L8 30L9 30L9 31L12 31L12 32L13 32L13 33L14 33L14 29L15 29L15 30L16 30L16 27L13 27L13 28L12 28L12 27L11 27L11 26L13 26L13 25L14 25L14 26L15 26L15 25L14 25L14 24L17 24L17 25L16 25L16 26L19 26L19 25L18 25L18 24L19 24L19 23L20 23L20 24L21 24L21 26L20 26L20 27L18 27L18 29L20 29L20 30L23 30L23 31L24 31L24 33L23 33L23 32L22 32L22 31L21 31L21 34L20 34L20 32L18 32L18 31L19 31L19 30L17 30L17 32L16 32L16 34L15 34L15 35L16 35L16 37L17 37L17 38L15 38L15 37L13 37L13 39L14 39L14 38L15 38L15 39L17 39L17 40L12 40L12 39L11 39L11 38L12 38L12 36L13 36L13 35L14 35L14 34L13 34L13 35L9 35L9 36L8 36L8 39L9 39L9 40L12 40L12 41L17 41L17 40L18 40L18 39L19 39L19 40L20 40L20 41L22 41L22 38L24 38L24 39L23 39L23 40L25 40L25 41L27 41L27 40L28 40L28 38L29 38L29 37L28 37L28 36L32 36L32 37L30 37L30 38L34 38L34 39L35 39L35 40L36 40L36 39L37 39L37 40L40 40L40 38L41 38L41 37L40 37L40 36L41 36L41 35L40 35L40 34L41 34L41 33L40 33L40 32L41 32L41 31L40 31L40 30L41 30L41 28L40 28L40 26L41 26L41 23L39 23L39 24L40 24L40 26L39 26L39 25L36 25L36 24L37 24L37 21L38 21L38 22L39 22L39 20L36 20L36 19L35 19L35 17L36 17L36 18L37 18L37 17L39 17L39 18L41 18L41 16L40 16L40 17L39 17L39 16L37 16L37 15L36 15L36 14L38 14L38 15L40 15L40 14L41 14L41 13L40 13L40 14L38 14L38 13L36 13L36 14L35 14L35 15L36 15L36 16L35 16L35 17L34 17L34 16L32 16L32 17L31 17L31 12L29 12L29 13L28 13L28 11L29 11L29 10L27 10L27 9L30 9L30 11L31 11L31 10L32 10L32 9L34 9L34 11L32 11L32 13L33 13L33 14L32 14L32 15L34 15L34 13L35 13L35 11L37 11L37 12L38 12L38 11L39 11L39 12L40 12L40 10L41 10L41 8L38 8L38 9L40 9L40 10L37 10L37 9L36 9L36 8L32 8L32 7L33 7L33 5L32 5L32 4L33 4L33 3L32 3L32 4L30 4L30 5L32 5L32 7L31 7L31 6L30 6L30 8L29 8L29 6L28 6L28 5L29 5L29 4L28 4L28 5L27 5L27 4L26 4L26 7L25 7L25 5L24 5L24 7L25 7L25 8L23 8L23 5L22 5L22 4L25 4L25 3L22 3L22 4L21 4L21 2L22 2L22 1L23 1L23 2L25 2L25 1L23 1L23 0L21 0L21 2L20 2L20 0L19 0L19 3L18 3L18 2L16 2L16 0L15 0L15 2L14 2L14 0ZM17 0L17 1L18 1L18 0ZM26 0L26 1L27 1L27 2L26 2L26 3L31 3L31 2L30 2L30 0L29 0L29 1L27 1L27 0ZM31 0L31 1L32 1L32 2L33 2L33 1L32 1L32 0ZM12 2L12 3L13 3L13 2ZM15 3L15 4L13 4L13 7L12 7L12 6L11 6L11 7L12 7L12 8L11 8L11 9L12 9L12 8L13 8L13 9L14 9L14 10L13 10L13 11L14 11L14 12L12 12L12 10L9 10L9 9L10 9L10 8L9 8L9 9L8 9L8 10L9 10L9 11L11 11L11 12L12 12L12 13L11 13L11 14L7 14L7 13L6 13L6 14L5 14L5 13L4 13L4 15L6 15L6 16L8 16L8 15L10 15L10 16L9 16L9 18L8 18L8 17L6 17L6 18L7 18L7 19L6 19L6 20L5 20L5 21L6 21L6 22L7 22L7 23L6 23L6 24L7 24L7 25L8 25L8 26L9 26L9 28L8 28L8 27L5 27L5 28L7 28L7 29L6 29L6 30L7 30L7 29L10 29L10 30L11 30L11 29L12 29L12 31L13 31L13 29L14 29L14 28L13 28L13 29L12 29L12 28L11 28L11 27L10 27L10 26L11 26L11 25L12 25L12 24L14 24L14 23L13 23L13 22L12 22L12 20L13 20L13 18L14 18L14 20L15 20L15 18L14 18L14 17L16 17L16 19L18 19L18 23L19 23L19 20L20 20L20 19L21 19L21 20L22 20L22 21L20 21L20 22L21 22L21 24L23 24L23 26L21 26L21 27L20 27L20 29L22 29L22 28L21 28L21 27L23 27L23 26L24 26L24 23L25 23L25 27L24 27L24 28L25 28L25 29L23 29L23 30L25 30L25 32L26 32L26 30L27 30L27 29L26 29L26 25L27 25L27 26L28 26L28 25L29 25L29 24L30 24L30 25L32 25L32 26L29 26L29 27L28 27L28 28L31 28L31 29L28 29L28 30L29 30L29 31L28 31L28 32L30 32L30 33L31 33L31 34L30 34L30 35L31 35L31 34L32 34L32 33L31 33L31 32L30 32L30 31L31 31L31 30L32 30L32 31L33 31L33 32L36 32L36 31L34 31L34 30L36 30L36 29L38 29L38 31L37 31L37 32L39 32L39 26L38 26L38 28L36 28L36 27L37 27L37 26L36 26L36 25L35 25L35 24L36 24L36 23L35 23L35 22L36 22L36 21L35 21L35 19L34 19L34 18L33 18L33 17L32 17L32 18L31 18L31 17L29 17L29 16L30 16L30 13L29 13L29 14L27 14L27 13L25 13L25 14L24 14L24 16L25 16L25 17L24 17L24 18L23 18L23 17L22 17L22 16L21 16L21 15L22 15L22 14L23 14L23 13L24 13L24 12L27 12L27 10L26 10L26 11L25 11L25 9L24 9L24 11L23 11L23 10L21 10L21 9L22 9L22 8L21 8L21 9L20 9L20 6L19 6L19 9L18 9L18 8L17 8L17 7L18 7L18 6L17 6L17 7L16 7L16 3ZM17 3L17 4L18 4L18 3ZM19 3L19 4L20 4L20 3ZM14 6L14 8L16 8L16 7L15 7L15 6ZM21 6L21 7L22 7L22 6ZM27 6L27 7L26 7L26 8L27 8L27 7L28 7L28 6ZM2 8L2 10L0 10L0 11L2 11L2 10L3 10L3 9L4 9L4 10L5 10L5 8ZM30 8L30 9L32 9L32 8ZM15 9L15 10L14 10L14 11L16 11L16 13L15 13L15 12L14 12L14 13L15 13L15 14L13 14L13 13L12 13L12 14L11 14L11 15L12 15L12 16L11 16L11 18L13 18L13 15L16 15L16 14L18 14L18 15L21 15L21 14L22 14L22 13L23 13L23 11L18 11L18 10L16 10L16 9ZM35 9L35 10L36 10L36 9ZM17 11L17 12L18 12L18 11ZM19 12L19 13L18 13L18 14L19 14L19 13L20 13L20 14L21 14L21 13L22 13L22 12ZM33 12L33 13L34 13L34 12ZM2 14L2 15L3 15L3 14ZM6 14L6 15L7 15L7 14ZM12 14L12 15L13 15L13 14ZM26 14L26 15L27 15L27 14ZM28 15L28 16L29 16L29 15ZM2 16L2 17L1 17L1 18L2 18L2 17L4 17L4 19L5 19L5 16ZM36 16L36 17L37 17L37 16ZM17 17L17 18L18 18L18 19L19 19L19 18L18 18L18 17ZM20 17L20 18L21 18L21 19L22 19L22 20L23 20L23 18L22 18L22 17ZM25 18L25 19L24 19L24 22L26 22L26 21L28 21L28 22L27 22L27 23L26 23L26 24L27 24L27 25L28 25L28 24L29 24L29 23L30 23L30 24L31 24L31 23L30 23L30 22L29 22L29 21L28 21L28 20L29 20L29 19L28 19L28 18L27 18L27 19L28 19L28 20L26 20L26 21L25 21L25 19L26 19L26 18ZM30 18L30 19L31 19L31 20L30 20L30 21L31 21L31 22L32 22L32 21L34 21L34 22L33 22L33 23L32 23L32 25L34 25L34 26L33 26L33 27L34 27L34 26L35 26L35 25L34 25L34 22L35 22L35 21L34 21L34 20L32 20L32 19L31 19L31 18ZM2 19L2 20L3 20L3 19ZM8 19L8 20L6 20L6 21L8 21L8 23L7 23L7 24L8 24L8 25L11 25L11 24L10 24L10 23L9 23L9 22L11 22L11 23L12 23L12 22L11 22L11 20L10 20L10 19ZM31 20L31 21L32 21L32 20ZM40 20L40 21L41 21L41 20ZM15 21L15 22L16 22L16 21ZM22 21L22 23L23 23L23 21ZM0 22L0 23L1 23L1 22ZM28 22L28 23L27 23L27 24L28 24L28 23L29 23L29 22ZM8 23L8 24L9 24L9 23ZM0 26L0 27L1 27L1 28L0 28L0 33L1 33L1 29L2 29L2 26ZM33 28L33 29L32 29L32 30L33 30L33 29L34 29L34 28ZM35 28L35 29L36 29L36 28ZM25 29L25 30L26 30L26 29ZM3 31L3 32L2 32L2 33L4 33L4 32L5 32L5 31ZM17 33L17 34L16 34L16 35L17 35L17 36L19 36L19 37L18 37L18 38L19 38L19 37L20 37L20 40L21 40L21 37L22 37L22 36L23 36L23 37L24 37L24 36L28 36L28 35L29 35L29 33L25 33L25 34L23 34L23 35L22 35L22 36L20 36L20 34L19 34L19 35L18 35L18 33ZM33 33L33 36L36 36L36 33ZM38 33L38 34L39 34L39 33ZM25 34L25 35L26 35L26 34ZM27 34L27 35L28 35L28 34ZM34 34L34 35L35 35L35 34ZM38 35L38 36L37 36L37 37L38 37L38 36L39 36L39 35ZM9 36L9 37L11 37L11 36ZM27 37L27 38L28 38L28 37ZM34 37L34 38L36 38L36 37ZM9 38L9 39L10 39L10 38ZM25 38L25 39L26 39L26 40L27 40L27 39L26 39L26 38ZM37 38L37 39L38 39L38 38ZM30 39L30 40L29 40L29 41L30 41L30 40L31 40L31 41L32 41L32 40L33 40L33 41L34 41L34 40L33 40L33 39L32 39L32 40L31 40L31 39ZM0 0L0 7L7 7L7 0ZM1 1L1 6L6 6L6 1ZM2 2L2 5L5 5L5 2ZM34 0L34 7L41 7L41 0ZM35 1L35 6L40 6L40 1ZM36 2L36 5L39 5L39 2ZM0 34L0 41L7 41L7 34ZM1 35L1 40L6 40L6 35ZM2 36L2 39L5 39L5 36Z" fill="#000000"/></g></g></svg>
