<?xml version="1.0" encoding="UTF-8"?>
<svg xmlns="http://www.w3.org/2000/svg" version="1.1" width="200" height="200" viewBox="0 0 200 200"><rect x="0" y="0" width="200" height="200" fill="#ffffff"/><g transform="scale(4.878)"><g transform="translate(0,0)"><path fill-rule="evenodd" d="M8 0L8 3L9 3L9 4L11 4L11 5L12 5L12 4L11 4L11 3L12 3L12 2L11 2L11 1L10 1L10 0ZM12 0L12 1L14 1L14 0ZM17 0L17 2L18 2L18 0ZM20 0L20 1L19 1L19 3L14 3L14 4L13 4L13 6L12 6L12 8L11 8L11 6L10 6L10 5L8 5L8 9L7 9L7 8L6 8L6 9L7 9L7 10L5 10L5 8L2 8L2 9L3 9L3 10L5 10L5 11L1 11L1 9L0 9L0 11L1 11L1 12L0 12L0 15L2 15L2 16L1 16L1 18L0 18L0 24L1 24L1 25L0 25L0 26L1 26L1 27L0 27L0 28L1 28L1 29L0 29L0 33L1 33L1 30L2 30L2 31L3 31L3 32L4 32L4 31L7 31L7 32L5 32L5 33L8 33L8 34L10 34L10 33L11 33L11 31L10 31L10 32L9 32L9 31L8 31L8 30L10 30L10 27L9 27L9 25L10 25L10 24L9 24L9 23L12 23L12 24L13 24L13 23L15 23L15 22L16 22L16 24L15 24L15 25L11 25L11 26L12 26L12 27L13 27L13 26L14 26L14 27L16 27L16 28L15 28L15 29L14 29L14 28L13 28L13 29L12 29L12 28L11 28L11 30L12 30L12 31L14 31L14 32L12 32L12 35L13 35L13 33L14 33L14 32L16 32L16 33L15 33L15 34L16 34L16 35L14 35L14 37L13 37L13 38L11 38L11 37L9 37L9 36L10 36L10 35L9 35L9 36L8 36L8 39L9 39L9 40L11 40L11 41L15 41L15 39L16 39L16 41L17 41L17 39L18 39L18 40L19 40L19 41L21 41L21 40L24 40L24 39L26 39L26 40L25 40L25 41L26 41L26 40L27 40L27 41L31 41L31 40L33 40L33 41L34 41L34 40L33 40L33 39L35 39L35 40L36 40L36 39L37 39L37 37L38 37L38 38L39 38L39 40L40 40L40 38L41 38L41 37L39 37L39 36L40 36L40 34L41 34L41 33L39 33L39 32L41 32L41 31L40 31L40 30L41 30L41 29L40 29L40 28L39 28L39 30L38 30L38 29L35 29L35 27L36 27L36 28L38 28L38 26L39 26L39 27L40 27L40 26L41 26L41 23L40 23L40 26L39 26L39 24L37 24L37 25L34 25L34 24L36 24L36 23L34 23L34 22L36 22L36 21L39 21L39 20L36 20L36 19L35 19L35 17L36 17L36 18L37 18L37 19L38 19L38 18L37 18L37 17L39 17L39 18L41 18L41 16L40 16L40 17L39 17L39 16L37 16L37 15L38 15L38 14L37 14L37 13L36 13L36 14L37 14L37 15L35 15L35 17L34 17L34 16L33 16L33 15L34 15L34 14L33 14L33 13L34 13L34 12L33 12L33 13L32 13L32 14L31 14L31 12L32 12L32 11L31 11L31 10L32 10L32 9L33 9L33 11L34 11L34 10L37 10L37 11L35 11L35 12L38 12L38 11L40 11L40 10L41 10L41 8L38 8L38 9L40 9L40 10L37 10L37 9L36 9L36 8L31 8L31 5L32 5L32 4L33 4L33 3L32 3L32 2L31 2L31 1L32 1L32 0L31 0L31 1L30 1L30 2L31 2L31 3L30 3L30 4L31 4L31 5L29 5L29 6L28 6L28 5L27 5L27 6L26 6L26 8L25 8L25 3L26 3L26 4L27 4L27 3L28 3L28 4L29 4L29 1L27 1L27 0L25 0L25 3L24 3L24 0L23 0L23 1L21 1L21 0ZM9 1L9 3L10 3L10 1ZM15 1L15 2L16 2L16 1ZM21 2L21 4L18 4L18 6L17 6L17 7L16 7L16 4L15 4L15 7L14 7L14 6L13 6L13 8L12 8L12 10L13 10L13 14L12 14L12 11L11 11L11 10L10 10L10 13L11 13L11 14L9 14L9 16L8 16L8 18L7 18L7 17L6 17L6 18L7 18L7 19L6 19L6 20L7 20L7 19L8 19L8 20L11 20L11 18L12 18L12 17L13 17L13 19L12 19L12 21L10 21L10 22L15 22L15 21L16 21L16 22L17 22L17 23L18 23L18 22L19 22L19 23L24 23L24 22L25 22L25 21L26 21L26 20L23 20L23 18L25 18L25 19L26 19L26 18L28 18L28 19L27 19L27 20L28 20L28 21L27 21L27 22L28 22L28 21L29 21L29 22L30 22L30 21L32 21L32 22L31 22L31 24L32 24L32 25L33 25L33 26L31 26L31 25L30 25L30 26L29 26L29 25L27 25L27 26L29 26L29 27L24 27L24 26L26 26L26 23L25 23L25 24L24 24L24 26L23 26L23 24L19 24L19 25L17 25L17 24L16 24L16 26L19 26L19 29L16 29L16 31L18 31L18 32L19 32L19 36L18 36L18 33L16 33L16 34L17 34L17 35L16 35L16 39L17 39L17 37L18 37L18 39L19 39L19 38L21 38L21 39L23 39L23 38L26 38L26 39L27 39L27 38L28 38L28 37L30 37L30 38L29 38L29 39L28 39L28 40L30 40L30 38L31 38L31 39L33 39L33 38L36 38L36 37L32 37L32 35L30 35L30 34L31 34L31 33L32 33L32 32L36 32L36 31L37 31L37 32L39 32L39 31L38 31L38 30L35 30L35 29L34 29L34 28L33 28L33 27L34 27L34 25L33 25L33 24L34 24L34 23L32 23L32 22L34 22L34 21L36 21L36 20L35 20L35 19L34 19L34 18L33 18L33 19L32 19L32 18L31 18L31 17L30 17L30 19L31 19L31 20L28 20L28 19L29 19L29 16L30 16L30 15L31 15L31 14L30 14L30 13L28 13L28 14L29 14L29 15L28 15L28 17L24 17L24 16L25 16L25 15L24 15L24 14L25 14L25 13L24 13L24 12L22 12L22 11L23 11L23 10L24 10L24 11L26 11L26 9L27 9L27 10L28 10L28 9L29 9L29 11L28 11L28 12L30 12L30 10L31 10L31 9L29 9L29 8L30 8L30 6L29 6L29 8L28 8L28 9L27 9L27 8L26 8L26 9L23 9L23 8L24 8L24 5L22 5L22 4L23 4L23 2ZM26 2L26 3L27 3L27 2ZM31 3L31 4L32 4L32 3ZM19 5L19 6L18 6L18 9L16 9L16 7L15 7L15 8L14 8L14 9L13 9L13 10L14 10L14 16L17 16L17 17L14 17L14 20L13 20L13 21L15 21L15 18L17 18L17 19L16 19L16 21L17 21L17 22L18 22L18 20L19 20L19 22L20 22L20 21L21 21L21 20L22 20L22 22L24 22L24 21L23 21L23 20L22 20L22 19L21 19L21 18L20 18L20 16L21 16L21 17L23 17L23 16L22 16L22 14L23 14L23 13L22 13L22 12L20 12L20 11L21 11L21 10L23 10L23 9L20 9L20 8L21 8L21 5ZM9 6L9 7L10 7L10 6ZM19 6L19 7L20 7L20 6ZM22 6L22 8L23 8L23 6ZM27 6L27 7L28 7L28 6ZM32 6L32 7L33 7L33 6ZM9 8L9 9L10 9L10 8ZM18 9L18 10L16 10L16 12L17 12L17 11L19 11L19 10L20 10L20 9ZM8 10L8 11L5 11L5 12L2 12L2 14L3 14L3 15L4 15L4 13L5 13L5 14L7 14L7 15L6 15L6 16L7 16L7 15L8 15L8 14L7 14L7 13L8 13L8 11L9 11L9 10ZM6 12L6 13L7 13L7 12ZM18 12L18 13L16 13L16 14L15 14L15 15L16 15L16 14L18 14L18 13L19 13L19 15L20 15L20 14L21 14L21 13L19 13L19 12ZM26 12L26 13L27 13L27 12ZM39 12L39 14L41 14L41 12ZM11 14L11 15L12 15L12 16L13 16L13 15L12 15L12 14ZM26 14L26 16L27 16L27 14ZM32 14L32 15L33 15L33 14ZM2 16L2 18L1 18L1 21L2 21L2 23L1 23L1 24L2 24L2 23L4 23L4 24L3 24L3 26L7 26L7 27L6 27L6 28L2 28L2 29L3 29L3 30L5 30L5 29L6 29L6 30L8 30L8 29L6 29L6 28L9 28L9 27L8 27L8 22L9 22L9 21L6 21L6 22L7 22L7 23L5 23L5 21L4 21L4 20L3 20L3 18L5 18L5 16L4 16L4 17L3 17L3 16ZM32 16L32 17L33 17L33 16ZM36 16L36 17L37 17L37 16ZM10 17L10 18L8 18L8 19L10 19L10 18L11 18L11 17ZM17 17L17 18L18 18L18 19L19 19L19 20L21 20L21 19L20 19L20 18L19 18L19 17ZM32 20L32 21L34 21L34 20ZM40 20L40 21L41 21L41 20ZM27 23L27 24L30 24L30 23ZM6 24L6 25L7 25L7 24ZM19 25L19 26L21 26L21 27L20 27L20 30L18 30L18 31L19 31L19 32L20 32L20 30L23 30L23 29L24 29L24 27L23 27L23 26L21 26L21 25ZM17 27L17 28L18 28L18 27ZM22 27L22 29L23 29L23 27ZM31 27L31 28L32 28L32 29L33 29L33 30L32 30L32 31L33 31L33 30L34 30L34 31L35 31L35 30L34 30L34 29L33 29L33 28L32 28L32 27ZM25 28L25 30L24 30L24 31L21 31L21 32L22 32L22 34L21 34L21 35L20 35L20 36L22 36L22 37L21 37L21 38L23 38L23 36L24 36L24 35L23 35L23 34L24 34L24 31L25 31L25 32L26 32L26 31L25 31L25 30L29 30L29 31L28 31L28 32L29 32L29 33L28 33L28 34L27 34L27 33L26 33L26 34L25 34L25 36L26 36L26 35L27 35L27 37L28 37L28 36L29 36L29 35L28 35L28 34L29 34L29 33L31 33L31 31L30 31L30 30L31 30L31 29L30 29L30 28L29 28L29 29L28 29L28 28L27 28L27 29L26 29L26 28ZM13 29L13 30L14 30L14 29ZM29 29L29 30L30 30L30 29ZM29 31L29 32L30 32L30 31ZM8 32L8 33L9 33L9 32ZM33 33L33 36L36 36L36 33ZM38 33L38 35L37 35L37 36L39 36L39 33ZM34 34L34 35L35 35L35 34ZM22 35L22 36L23 36L23 35ZM30 36L30 37L31 37L31 36ZM14 37L14 38L13 38L13 39L12 39L12 40L14 40L14 38L15 38L15 37ZM9 38L9 39L10 39L10 38ZM0 0L0 7L7 7L7 0ZM1 1L1 6L6 6L6 1ZM2 2L2 5L5 5L5 2ZM34 0L34 7L41 7L41 0ZM35 1L35 6L40 6L40 1ZM36 2L36 5L39 5L39 2ZM0 34L0 41L7 41L7 34ZM1 35L1 40L6 40L6 35ZM2 36L2 39L5 39L5 36Z" fill="#000000"/></g></g></svg>
