<?xml version="1.0" encoding="UTF-8"?>
<svg xmlns="http://www.w3.org/2000/svg" version="1.1" width="200" height="200" viewBox="0 0 200 200"><rect x="0" y="0" width="200" height="200" fill="#ffffff"/><g transform="scale(4.878)"><g transform="translate(0,0)"><path fill-rule="evenodd" d="M8 0L8 3L9 3L9 5L8 5L8 10L5 10L5 8L2 8L2 9L1 9L1 11L0 11L0 14L1 14L1 11L2 11L2 10L3 10L3 9L4 9L4 10L5 10L5 12L6 12L6 13L7 13L7 12L6 12L6 11L8 11L8 10L9 10L9 13L10 13L10 14L8 14L8 15L7 15L7 14L6 14L6 15L7 15L7 16L6 16L6 17L5 17L5 16L3 16L3 15L5 15L5 13L4 13L4 11L3 11L3 12L2 12L2 13L4 13L4 14L3 14L3 15L0 15L0 16L1 16L1 17L0 17L0 19L1 19L1 20L0 20L0 21L1 21L1 22L0 22L0 25L2 25L2 28L0 28L0 33L1 33L1 29L2 29L2 30L3 30L3 31L2 31L2 32L3 32L3 31L4 31L4 33L8 33L8 34L9 34L9 36L8 36L8 39L9 39L9 36L10 36L10 35L11 35L11 34L9 34L9 30L10 30L10 31L11 31L11 30L10 30L10 29L9 29L9 28L11 28L11 29L13 29L13 31L12 31L12 32L10 32L10 33L12 33L12 35L17 35L17 31L18 31L18 30L15 30L15 32L13 32L13 31L14 31L14 29L15 29L15 27L14 27L14 26L17 26L17 27L19 27L19 26L20 26L20 28L19 28L19 31L20 31L20 32L21 32L21 35L22 35L22 33L23 33L23 36L22 36L22 37L21 37L21 36L19 36L19 37L18 37L18 36L17 36L17 37L15 37L15 38L14 38L14 36L13 36L13 37L10 37L10 38L14 38L14 41L15 41L15 38L19 38L19 40L18 40L18 41L21 41L21 39L22 39L22 38L23 38L23 36L24 36L24 33L25 33L25 35L26 35L26 34L27 34L27 36L28 36L28 37L29 37L29 36L28 36L28 35L29 35L29 34L27 34L27 31L26 31L26 30L25 30L25 29L23 29L23 28L25 28L25 26L26 26L26 27L27 27L27 30L29 30L29 31L28 31L28 33L31 33L31 34L30 34L30 35L32 35L32 37L31 37L31 36L30 36L30 37L31 37L31 38L30 38L30 39L31 39L31 38L32 38L32 37L33 37L33 38L34 38L34 39L35 39L35 40L36 40L36 39L38 39L38 37L39 37L39 40L40 40L40 38L41 38L41 37L40 37L40 34L41 34L41 33L40 33L40 32L41 32L41 31L40 31L40 30L41 30L41 29L39 29L39 30L38 30L38 29L35 29L35 28L38 28L38 26L39 26L39 28L40 28L40 26L41 26L41 23L40 23L40 26L39 26L39 24L37 24L37 25L36 25L36 23L32 23L32 25L30 25L30 24L25 24L25 21L23 21L23 22L22 22L22 21L21 21L21 22L22 22L22 25L20 25L20 24L21 24L21 23L20 23L20 24L19 24L19 23L17 23L17 22L16 22L16 23L15 23L15 25L14 25L14 24L12 24L12 22L13 22L13 23L14 23L14 22L15 22L15 21L19 21L19 22L20 22L20 20L21 20L21 19L22 19L22 20L24 20L24 18L26 18L26 19L28 19L28 20L27 20L27 21L28 21L28 22L26 22L26 23L31 23L31 22L33 22L33 21L34 21L34 22L36 22L36 21L38 21L38 22L39 22L39 20L36 20L36 19L35 19L35 17L36 17L36 18L37 18L37 19L40 19L40 18L41 18L41 16L40 16L40 18L37 18L37 17L36 17L36 16L38 16L38 17L39 17L39 16L38 16L38 15L40 15L40 14L41 14L41 13L40 13L40 14L38 14L38 13L36 13L36 14L35 14L35 15L36 15L36 16L35 16L35 17L34 17L34 16L33 16L33 15L34 15L34 14L33 14L33 13L34 13L34 12L33 12L33 11L34 11L34 10L37 10L37 11L36 11L36 12L38 12L38 11L40 11L40 12L41 12L41 11L40 11L40 10L41 10L41 8L38 8L38 9L40 9L40 10L37 10L37 9L36 9L36 8L33 8L33 4L31 4L31 3L30 3L30 4L31 4L31 5L32 5L32 9L31 9L31 6L30 6L30 5L29 5L29 4L28 4L28 5L24 5L24 3L26 3L26 4L27 4L27 3L29 3L29 1L27 1L27 0L25 0L25 1L24 1L24 2L23 2L23 1L22 1L22 3L23 3L23 5L24 5L24 9L23 9L23 6L22 6L22 9L23 9L23 10L22 10L22 11L21 11L21 12L20 12L20 11L19 11L19 10L18 10L18 9L17 9L17 10L15 10L15 8L14 8L14 10L15 10L15 11L16 11L16 12L19 12L19 14L20 14L20 15L19 15L19 17L20 17L20 19L19 19L19 20L18 20L18 15L17 15L17 13L15 13L15 12L14 12L14 11L13 11L13 10L12 10L12 8L10 8L10 7L11 7L11 6L12 6L12 7L13 7L13 5L10 5L10 3L9 3L9 2L10 2L10 1L11 1L11 4L13 4L13 2L14 2L14 3L16 3L16 2L15 2L15 1L13 1L13 0L12 0L12 1L11 1L11 0L10 0L10 1L9 1L9 0ZM16 0L16 1L17 1L17 2L18 2L18 1L17 1L17 0ZM19 0L19 1L20 1L20 4L15 4L15 5L14 5L14 7L15 7L15 6L16 6L16 7L17 7L17 8L18 8L18 7L19 7L19 6L20 6L20 7L21 7L21 6L20 6L20 4L21 4L21 5L22 5L22 4L21 4L21 0ZM31 0L31 1L30 1L30 2L31 2L31 1L32 1L32 0ZM12 1L12 2L13 2L13 1ZM26 2L26 3L27 3L27 2ZM32 2L32 3L33 3L33 2ZM9 5L9 7L10 7L10 5ZM16 5L16 6L17 6L17 7L18 7L18 6L17 6L17 5ZM28 5L28 6L27 6L27 8L26 8L26 6L25 6L25 8L26 8L26 9L25 9L25 10L26 10L26 11L25 11L25 12L24 12L24 13L22 13L22 12L21 12L21 13L20 13L20 14L22 14L22 15L21 15L21 16L20 16L20 17L21 17L21 18L22 18L22 19L23 19L23 18L24 18L24 17L26 17L26 16L23 16L23 14L24 14L24 15L26 15L26 14L25 14L25 13L27 13L27 12L28 12L28 11L27 11L27 10L31 10L31 11L32 11L32 10L33 10L33 9L32 9L32 10L31 10L31 9L27 9L27 8L30 8L30 6L29 6L29 5ZM28 6L28 7L29 7L29 6ZM6 8L6 9L7 9L7 8ZM20 8L20 9L21 9L21 8ZM9 9L9 10L10 10L10 11L11 11L11 12L10 12L10 13L11 13L11 14L10 14L10 15L9 15L9 16L8 16L8 18L9 18L9 20L8 20L8 19L6 19L6 20L4 20L4 18L5 18L5 17L4 17L4 18L3 18L3 17L1 17L1 19L2 19L2 20L3 20L3 21L2 21L2 22L1 22L1 24L2 24L2 25L3 25L3 27L4 27L4 26L5 26L5 27L6 27L6 28L4 28L4 29L3 29L3 28L2 28L2 29L3 29L3 30L5 30L5 29L6 29L6 30L7 30L7 31L5 31L5 32L8 32L8 30L9 30L9 29L8 29L8 28L9 28L9 26L12 26L12 25L8 25L8 28L7 28L7 27L6 27L6 26L7 26L7 25L6 25L6 24L7 24L7 23L8 23L8 24L9 24L9 23L10 23L10 22L11 22L11 21L10 21L10 20L12 20L12 19L15 19L15 20L17 20L17 15L16 15L16 14L15 14L15 13L14 13L14 12L13 12L13 11L12 11L12 10L11 10L11 9ZM26 9L26 10L27 10L27 9ZM17 10L17 11L18 11L18 10ZM23 10L23 11L24 11L24 10ZM29 11L29 12L30 12L30 11ZM12 12L12 14L11 14L11 15L10 15L10 16L9 16L9 18L10 18L10 19L12 19L12 17L13 17L13 16L16 16L16 15L14 15L14 14L13 14L13 12ZM31 12L31 14L30 14L30 13L28 13L28 14L30 14L30 15L28 15L28 17L27 17L27 18L28 18L28 19L29 19L29 16L30 16L30 15L31 15L31 14L32 14L32 15L33 15L33 14L32 14L32 13L33 13L33 12ZM12 14L12 15L11 15L11 16L12 16L12 15L13 15L13 14ZM22 16L22 17L23 17L23 16ZM6 17L6 18L7 18L7 17ZM10 17L10 18L11 18L11 17ZM30 17L30 19L31 19L31 20L28 20L28 21L29 21L29 22L30 22L30 21L33 21L33 20L34 20L34 21L36 21L36 20L35 20L35 19L34 19L34 18L33 18L33 17L32 17L32 18L31 18L31 17ZM2 18L2 19L3 19L3 18ZM15 18L15 19L16 19L16 18ZM32 19L32 20L33 20L33 19ZM6 20L6 21L7 21L7 22L6 22L6 23L7 23L7 22L8 22L8 21L7 21L7 20ZM40 20L40 21L41 21L41 20ZM2 22L2 23L3 23L3 22ZM23 22L23 24L24 24L24 26L21 26L21 27L24 27L24 26L25 26L25 24L24 24L24 22ZM4 23L4 24L3 24L3 25L5 25L5 23ZM33 24L33 25L32 25L32 26L29 26L29 25L27 25L27 26L29 26L29 28L28 28L28 29L29 29L29 30L31 30L31 31L29 31L29 32L31 32L31 33L32 33L32 32L39 32L39 31L38 31L38 30L37 30L37 31L36 31L36 30L35 30L35 29L34 29L34 28L33 28L33 29L32 29L32 26L33 26L33 27L34 27L34 26L33 26L33 25L35 25L35 27L37 27L37 26L36 26L36 25L35 25L35 24ZM13 25L13 26L14 26L14 25ZM17 25L17 26L19 26L19 25ZM13 27L13 28L14 28L14 27ZM6 28L6 29L7 29L7 30L8 30L8 29L7 29L7 28ZM20 28L20 30L21 30L21 29L22 29L22 30L23 30L23 31L21 31L21 32L23 32L23 33L24 33L24 30L23 30L23 29L22 29L22 28ZM29 28L29 29L31 29L31 28ZM33 29L33 30L32 30L32 31L33 31L33 30L34 30L34 31L35 31L35 30L34 30L34 29ZM12 32L12 33L13 33L13 32ZM15 32L15 33L16 33L16 32ZM25 32L25 33L26 33L26 32ZM18 33L18 34L19 34L19 35L20 35L20 34L19 34L19 33ZM33 33L33 36L36 36L36 33ZM37 33L37 34L38 34L38 35L37 35L37 36L39 36L39 33ZM34 34L34 35L35 35L35 34ZM25 36L25 39L23 39L23 40L22 40L22 41L23 41L23 40L25 40L25 41L26 41L26 39L27 39L27 40L28 40L28 41L32 41L32 40L33 40L33 41L34 41L34 40L33 40L33 39L32 39L32 40L28 40L28 39L29 39L29 38L27 38L27 37L26 37L26 36ZM19 37L19 38L20 38L20 39L21 39L21 38L20 38L20 37ZM34 37L34 38L36 38L36 37ZM11 39L11 40L12 40L12 41L13 41L13 39ZM16 39L16 41L17 41L17 39ZM9 40L9 41L10 41L10 40ZM0 0L0 7L7 7L7 0ZM1 1L1 6L6 6L6 1ZM2 2L2 5L5 5L5 2ZM34 0L34 7L41 7L41 0ZM35 1L35 6L40 6L40 1ZM36 2L36 5L39 5L39 2ZM0 34L0 41L7 41L7 34ZM1 35L1 40L6 40L6 35ZM2 36L2 39L5 39L5 36Z" fill="#000000"/></g></g></svg>
