<?xml version="1.0" encoding="UTF-8"?>
<svg xmlns="http://www.w3.org/2000/svg" version="1.1" width="200" height="200" viewBox="0 0 200 200"><rect x="0" y="0" width="200" height="200" fill="#ffffff"/><g transform="scale(4.878)"><g transform="translate(0,0)"><path fill-rule="evenodd" d="M9 0L9 4L8 4L8 5L10 5L10 7L11 7L11 8L9 8L9 6L8 6L8 8L6 8L6 9L7 9L7 10L5 10L5 9L4 9L4 8L2 8L2 10L1 10L1 9L0 9L0 10L1 10L1 11L2 11L2 10L3 10L3 12L2 12L2 15L3 15L3 14L4 14L4 15L5 15L5 16L6 16L6 17L7 17L7 16L8 16L8 15L9 15L9 18L5 18L5 20L4 20L4 18L3 18L3 17L4 17L4 16L3 16L3 17L2 17L2 16L1 16L1 15L0 15L0 16L1 16L1 19L2 19L2 20L1 20L1 22L0 22L0 23L2 23L2 22L3 22L3 23L4 23L4 25L2 25L2 27L1 27L1 28L2 28L2 29L1 29L1 30L0 30L0 31L1 31L1 30L2 30L2 32L1 32L1 33L3 33L3 32L4 32L4 33L5 33L5 32L6 32L6 33L8 33L8 35L9 35L9 33L10 33L10 32L13 32L13 33L12 33L12 34L10 34L10 35L11 35L11 36L9 36L9 37L8 37L8 39L9 39L9 41L14 41L14 40L15 40L15 41L16 41L16 39L19 39L19 38L22 38L22 39L23 39L23 40L24 40L24 41L25 41L25 40L26 40L26 41L27 41L27 40L28 40L28 39L26 39L26 38L29 38L29 39L30 39L30 41L33 41L33 39L34 39L34 38L33 38L33 37L35 37L35 41L37 41L37 40L38 40L38 41L40 41L40 39L41 39L41 37L40 37L40 39L39 39L39 38L38 38L38 37L39 37L39 36L38 36L38 37L37 37L37 35L39 35L39 34L41 34L41 31L40 31L40 30L39 30L39 31L37 31L37 30L35 30L35 29L33 29L33 24L34 24L34 22L35 22L35 21L36 21L36 22L37 22L37 24L38 24L38 21L40 21L40 19L38 19L38 21L36 21L36 20L37 20L37 19L36 19L36 20L34 20L34 19L35 19L35 18L34 18L34 19L33 19L33 18L32 18L32 20L31 20L31 17L30 17L30 19L29 19L29 20L26 20L26 17L27 17L27 19L28 19L28 18L29 18L29 17L28 17L28 16L29 16L29 15L33 15L33 12L32 12L32 11L31 11L31 10L33 10L33 11L35 11L35 12L34 12L34 13L35 13L35 14L34 14L34 15L35 15L35 16L36 16L36 17L37 17L37 16L38 16L38 15L39 15L39 14L40 14L40 15L41 15L41 11L39 11L39 13L38 13L38 14L36 14L36 13L35 13L35 12L36 12L36 11L35 11L35 8L33 8L33 9L32 9L32 7L33 7L33 3L32 3L32 4L31 4L31 6L30 6L30 7L29 7L29 5L30 5L30 4L27 4L27 5L28 5L28 7L27 7L27 6L26 6L26 7L25 7L25 5L26 5L26 4L25 4L25 5L24 5L24 4L22 4L22 5L21 5L21 4L20 4L20 3L23 3L23 1L24 1L24 0L23 0L23 1L21 1L21 0L20 0L20 1L19 1L19 0L16 0L16 1L12 1L12 2L11 2L11 1L10 1L10 0ZM26 0L26 2L25 2L25 3L27 3L27 0ZM29 0L29 1L28 1L28 2L29 2L29 3L30 3L30 2L31 2L31 1L32 1L32 2L33 2L33 1L32 1L32 0L31 0L31 1L30 1L30 0ZM16 1L16 2L19 2L19 3L17 3L17 5L15 5L15 4L16 4L16 3L15 3L15 2L14 2L14 3L15 3L15 4L12 4L12 5L11 5L11 2L10 2L10 5L11 5L11 7L12 7L12 8L11 8L11 9L12 9L12 8L13 8L13 7L14 7L14 8L15 8L15 9L13 9L13 11L14 11L14 10L15 10L15 11L16 11L16 12L13 12L13 13L14 13L14 14L15 14L15 13L17 13L17 12L19 12L19 15L18 15L18 14L16 14L16 16L14 16L14 15L13 15L13 14L12 14L12 13L11 13L11 14L10 14L10 13L9 13L9 15L10 15L10 18L9 18L9 19L10 19L10 18L11 18L11 17L13 17L13 16L14 16L14 17L15 17L15 18L17 18L17 21L19 21L19 22L17 22L17 23L16 23L16 24L17 24L17 28L18 28L18 29L17 29L17 30L16 30L16 31L17 31L17 32L15 32L15 33L13 33L13 34L12 34L12 36L11 36L11 38L10 38L10 40L11 40L11 39L13 39L13 40L14 40L14 39L13 39L13 38L14 38L14 37L15 37L15 38L16 38L16 37L15 37L15 36L18 36L18 38L19 38L19 37L22 37L22 38L23 38L23 39L24 39L24 40L25 40L25 38L24 38L24 37L25 37L25 35L26 35L26 36L27 36L27 35L28 35L28 37L30 37L30 39L31 39L31 40L32 40L32 39L33 39L33 38L31 38L31 37L32 37L32 35L30 35L30 34L32 34L32 32L33 32L33 31L34 31L34 32L35 32L35 31L34 31L34 30L32 30L32 32L30 32L30 34L29 34L29 31L27 31L27 30L28 30L28 26L29 26L29 30L31 30L31 29L32 29L32 28L31 28L31 27L30 27L30 25L28 25L28 26L27 26L27 24L25 24L25 23L24 23L24 22L23 22L23 23L24 23L24 24L23 24L23 25L22 25L22 22L20 22L20 21L21 21L21 19L22 19L22 20L23 20L23 19L24 19L24 21L25 21L25 17L26 17L26 16L28 16L28 15L27 15L27 14L28 14L28 13L29 13L29 12L31 12L31 13L30 13L30 14L32 14L32 12L31 12L31 11L29 11L29 10L31 10L31 8L30 8L30 9L29 9L29 7L28 7L28 8L27 8L27 10L26 10L26 9L25 9L25 10L24 10L24 8L25 8L25 7L24 7L24 6L23 6L23 5L22 5L22 6L21 6L21 5L19 5L19 7L18 7L18 6L17 6L17 5L18 5L18 4L19 4L19 3L20 3L20 2L19 2L19 1ZM29 1L29 2L30 2L30 1ZM12 6L12 7L13 7L13 6ZM14 6L14 7L15 7L15 6ZM16 6L16 8L18 8L18 9L19 9L19 8L18 8L18 7L17 7L17 6ZM20 6L20 7L21 7L21 8L20 8L20 9L22 9L22 10L19 10L19 12L20 12L20 11L21 11L21 12L22 12L22 14L23 14L23 16L22 16L22 17L21 17L21 16L16 16L16 17L17 17L17 18L18 18L18 17L20 17L20 18L19 18L19 19L18 19L18 20L19 20L19 21L20 21L20 18L22 18L22 17L23 17L23 16L24 16L24 17L25 17L25 16L24 16L24 14L23 14L23 13L25 13L25 11L26 11L26 10L25 10L25 11L23 11L23 8L24 8L24 7L23 7L23 6L22 6L22 7L21 7L21 6ZM31 6L31 7L32 7L32 6ZM22 7L22 8L23 8L23 7ZM36 8L36 10L37 10L37 11L38 11L38 10L37 10L37 8ZM9 9L9 10L7 10L7 11L6 11L6 12L5 12L5 10L4 10L4 12L3 12L3 13L6 13L6 14L5 14L5 15L6 15L6 16L7 16L7 15L8 15L8 13L6 13L6 12L7 12L7 11L11 11L11 12L12 12L12 11L11 11L11 10L10 10L10 9ZM16 9L16 11L18 11L18 10L17 10L17 9ZM33 9L33 10L34 10L34 9ZM40 9L40 10L41 10L41 9ZM22 11L22 12L23 12L23 11ZM27 11L27 12L26 12L26 13L28 13L28 11ZM0 12L0 13L1 13L1 12ZM20 13L20 15L21 15L21 13ZM6 14L6 15L7 15L7 14ZM25 14L25 15L26 15L26 14ZM35 14L35 15L36 15L36 14ZM11 15L11 16L13 16L13 15ZM39 16L39 17L41 17L41 16ZM2 18L2 19L3 19L3 18ZM12 18L12 19L11 19L11 21L10 21L10 20L9 20L9 22L8 22L8 20L7 20L7 19L6 19L6 20L7 20L7 21L4 21L4 20L2 20L2 21L3 21L3 22L7 22L7 23L6 23L6 24L5 24L5 26L4 26L4 27L2 27L2 28L4 28L4 29L5 29L5 30L3 30L3 31L6 31L6 32L8 32L8 33L9 33L9 31L8 31L8 30L7 30L7 29L6 29L6 28L9 28L9 29L10 29L10 30L11 30L11 31L14 31L14 28L15 28L15 29L16 29L16 25L15 25L15 24L14 24L14 23L13 23L13 24L10 24L10 23L11 23L11 22L13 22L13 21L14 21L14 22L15 22L15 21L16 21L16 19L13 19L13 18ZM29 20L29 22L28 22L28 21L27 21L27 22L26 22L26 23L29 23L29 24L30 24L30 22L31 22L31 23L33 23L33 22L34 22L34 20L33 20L33 21L32 21L32 22L31 22L31 20ZM39 22L39 23L40 23L40 22ZM18 23L18 24L19 24L19 25L18 25L18 28L19 28L19 27L21 27L21 29L20 29L20 30L19 30L19 29L18 29L18 33L17 33L17 35L19 35L19 36L22 36L22 35L25 35L25 34L26 34L26 35L27 35L27 33L26 33L26 31L25 31L25 33L24 33L24 34L22 34L22 35L21 35L21 34L20 34L20 32L19 32L19 31L20 31L20 30L21 30L21 31L24 31L24 30L26 30L26 28L27 28L27 26L25 26L25 24L24 24L24 26L20 26L20 23ZM0 24L0 25L1 25L1 24ZM6 24L6 25L7 25L7 26L6 26L6 27L4 27L4 28L6 28L6 27L9 27L9 26L8 26L8 24ZM9 24L9 25L10 25L10 24ZM13 24L13 25L11 25L11 29L12 29L12 30L13 30L13 28L14 28L14 27L15 27L15 26L13 26L13 25L14 25L14 24ZM31 24L31 25L32 25L32 24ZM35 24L35 25L34 25L34 27L36 27L36 29L37 29L37 28L38 28L38 29L39 29L39 28L41 28L41 24L40 24L40 25L39 25L39 26L40 26L40 27L39 27L39 28L38 28L38 27L36 27L36 24ZM37 25L37 26L38 26L38 25ZM12 26L12 28L13 28L13 26ZM24 27L24 29L23 29L23 28L22 28L22 29L21 29L21 30L22 30L22 29L23 29L23 30L24 30L24 29L25 29L25 28L26 28L26 27ZM30 28L30 29L31 29L31 28ZM6 30L6 31L7 31L7 30ZM36 31L36 32L37 32L37 31ZM39 31L39 32L40 32L40 31ZM21 32L21 33L22 33L22 32ZM15 33L15 35L16 35L16 33ZM18 33L18 34L19 34L19 35L20 35L20 34L19 34L19 33ZM33 33L33 36L36 36L36 33ZM37 33L37 34L39 34L39 33ZM34 34L34 35L35 35L35 34ZM29 35L29 36L30 36L30 35ZM12 36L12 37L14 37L14 36ZM36 37L36 40L37 40L37 37ZM19 40L19 41L20 41L20 40ZM0 0L0 7L7 7L7 0ZM1 1L1 6L6 6L6 1ZM2 2L2 5L5 5L5 2ZM34 0L34 7L41 7L41 0ZM35 1L35 6L40 6L40 1ZM36 2L36 5L39 5L39 2ZM0 34L0 41L7 41L7 34ZM1 35L1 40L6 40L6 35ZM2 36L2 39L5 39L5 36Z" fill="#000000"/></g></g></svg>
