<?xml version="1.0" encoding="UTF-8"?>
<svg xmlns="http://www.w3.org/2000/svg" version="1.1" width="200" height="200" viewBox="0 0 200 200"><rect x="0" y="0" width="200" height="200" fill="#ffffff"/><g transform="scale(4.878)"><g transform="translate(0,0)"><path fill-rule="evenodd" d="M8 0L8 3L9 3L9 5L8 5L8 10L5 10L5 8L2 8L2 9L3 9L3 10L2 10L2 11L1 11L1 9L0 9L0 11L1 11L1 12L0 12L0 13L1 13L1 12L2 12L2 14L0 14L0 18L1 18L1 20L0 20L0 21L1 21L1 22L2 22L2 24L3 24L3 23L4 23L4 25L7 25L7 24L6 24L6 23L8 23L8 25L9 25L9 26L8 26L8 27L9 27L9 26L10 26L10 30L9 30L9 28L8 28L8 32L4 32L4 33L8 33L8 34L10 34L10 35L9 35L9 36L8 36L8 39L9 39L9 36L10 36L10 38L11 38L11 39L12 39L12 40L11 40L11 41L12 41L12 40L13 40L13 41L14 41L14 40L13 40L13 39L14 39L14 38L13 38L13 39L12 39L12 37L14 37L14 36L17 36L17 37L15 37L15 39L16 39L16 40L15 40L15 41L16 41L16 40L17 40L17 39L18 39L18 40L19 40L19 41L20 41L20 40L21 40L21 41L22 41L22 40L21 40L21 39L23 39L23 41L24 41L24 40L25 40L25 41L26 41L26 40L28 40L28 39L31 39L31 38L33 38L33 39L32 39L32 40L31 40L31 41L32 41L32 40L33 40L33 41L34 41L34 40L33 40L33 39L35 39L35 40L36 40L36 39L37 39L37 40L40 40L40 38L41 38L41 37L40 37L40 36L38 36L38 34L39 34L39 35L40 35L40 34L41 34L41 33L40 33L40 30L41 30L41 28L40 28L40 26L41 26L41 23L39 23L39 24L40 24L40 26L39 26L39 25L36 25L36 24L37 24L37 23L38 23L38 22L39 22L39 20L36 20L36 19L35 19L35 17L36 17L36 18L38 18L38 19L40 19L40 18L41 18L41 16L40 16L40 18L38 18L38 17L39 17L39 16L38 16L38 15L37 15L37 14L38 14L38 13L36 13L36 15L35 15L35 17L34 17L34 16L32 16L32 17L31 17L31 16L29 16L29 15L28 15L28 16L29 16L29 17L31 17L31 18L30 18L30 19L31 19L31 18L32 18L32 17L33 17L33 18L34 18L34 19L35 19L35 21L34 21L34 20L33 20L33 19L32 19L32 21L31 21L31 20L30 20L30 21L31 21L31 22L32 22L32 23L34 23L34 24L33 24L33 25L31 25L31 24L29 24L29 23L30 23L30 22L29 22L29 21L28 21L28 19L29 19L29 18L27 18L27 21L26 21L26 20L24 20L24 17L23 17L23 15L21 15L21 13L20 13L20 11L21 11L21 12L22 12L22 14L23 14L23 13L24 13L24 11L26 11L26 12L27 12L27 13L26 13L26 14L24 14L24 15L25 15L25 16L27 16L27 15L26 15L26 14L29 14L29 13L30 13L30 14L31 14L31 11L30 11L30 12L29 12L29 11L28 11L28 10L27 10L27 9L31 9L31 10L32 10L32 11L33 11L33 12L32 12L32 13L33 13L33 14L32 14L32 15L34 15L34 13L35 13L35 9L36 9L36 10L37 10L37 11L36 11L36 12L38 12L38 11L39 11L39 14L41 14L41 13L40 13L40 12L41 12L41 11L40 11L40 10L41 10L41 8L38 8L38 9L40 9L40 10L37 10L37 9L36 9L36 8L33 8L33 5L32 5L32 4L33 4L33 2L32 2L32 4L30 4L30 5L32 5L32 7L31 7L31 6L30 6L30 7L31 7L31 8L29 8L29 6L28 6L28 5L27 5L27 4L26 4L26 5L25 5L25 3L24 3L24 2L25 2L25 0L21 0L21 1L22 1L22 3L21 3L21 4L20 4L20 2L18 2L18 1L20 1L20 0L17 0L17 1L14 1L14 0L12 0L12 1L10 1L10 0ZM26 0L26 1L27 1L27 2L26 2L26 3L28 3L28 4L29 4L29 3L31 3L31 2L30 2L30 1L33 1L33 0L29 0L29 1L27 1L27 0ZM9 2L9 3L10 3L10 6L9 6L9 7L10 7L10 10L9 10L9 11L10 11L10 13L11 13L11 12L13 12L13 13L14 13L14 15L15 15L15 17L16 17L16 18L13 18L13 17L12 17L12 16L13 16L13 15L12 15L12 14L11 14L11 15L12 15L12 16L10 16L10 14L9 14L9 12L8 12L8 11L6 11L6 12L5 12L5 11L4 11L4 12L5 12L5 14L3 14L3 15L5 15L5 16L7 16L7 15L8 15L8 14L9 14L9 16L8 16L8 17L10 17L10 18L13 18L13 19L12 19L12 20L15 20L15 22L13 22L13 23L15 23L15 22L16 22L16 19L17 19L17 17L18 17L18 16L19 16L19 17L21 17L21 16L19 16L19 15L18 15L18 14L17 14L17 13L18 13L18 12L17 12L17 13L14 13L14 12L16 12L16 11L17 11L17 10L18 10L18 11L20 11L20 9L21 9L21 8L24 8L24 9L23 9L23 10L25 10L25 8L24 8L24 6L23 6L23 5L24 5L24 3L22 3L22 4L21 4L21 5L19 5L19 4L18 4L18 2L15 2L15 3L14 3L14 2L12 2L12 3L10 3L10 2ZM12 3L12 4L11 4L11 5L12 5L12 7L13 7L13 6L14 6L14 7L15 7L15 8L14 8L14 10L15 10L15 11L16 11L16 10L17 10L17 8L21 8L21 6L22 6L22 7L23 7L23 6L22 6L22 5L21 5L21 6L20 6L20 7L19 7L19 6L18 6L18 4L16 4L16 5L13 5L13 3ZM26 5L26 6L25 6L25 7L26 7L26 8L27 8L27 7L28 7L28 6L27 6L27 5ZM10 6L10 7L11 7L11 6ZM15 6L15 7L16 7L16 6ZM17 6L17 7L18 7L18 6ZM26 6L26 7L27 7L27 6ZM6 8L6 9L7 9L7 8ZM11 8L11 10L10 10L10 11L13 11L13 9L12 9L12 8ZM15 8L15 10L16 10L16 8ZM31 8L31 9L32 9L32 10L33 10L33 11L34 11L34 9L32 9L32 8ZM26 10L26 11L27 11L27 10ZM2 11L2 12L3 12L3 11ZM22 11L22 12L23 12L23 11ZM6 12L6 13L7 13L7 12ZM28 12L28 13L29 13L29 12ZM33 12L33 13L34 13L34 12ZM19 13L19 14L20 14L20 13ZM5 14L5 15L7 15L7 14ZM1 15L1 16L2 16L2 17L4 17L4 16L2 16L2 15ZM16 16L16 17L17 17L17 16ZM36 16L36 17L38 17L38 16ZM6 17L6 18L7 18L7 17ZM25 17L25 18L26 18L26 17ZM2 18L2 20L1 20L1 21L2 21L2 22L5 22L5 21L2 21L2 20L9 20L9 19L3 19L3 18ZM18 18L18 20L17 20L17 23L16 23L16 24L15 24L15 25L16 25L16 26L12 26L12 27L11 27L11 28L12 28L12 29L11 29L11 30L10 30L10 31L9 31L9 33L10 33L10 34L12 34L12 33L16 33L16 31L17 31L17 32L18 32L18 33L19 33L19 32L20 32L20 33L21 33L21 34L20 34L20 37L19 37L19 40L20 40L20 39L21 39L21 38L23 38L23 37L22 37L22 36L23 36L23 34L24 34L24 33L26 33L26 34L25 34L25 35L24 35L24 39L25 39L25 36L26 36L26 35L27 35L27 34L29 34L29 33L27 33L27 32L26 32L26 30L25 30L25 29L24 29L24 30L23 30L23 29L22 29L22 30L20 30L20 31L18 31L18 29L19 29L19 27L20 27L20 25L22 25L22 26L21 26L21 28L20 28L20 29L21 29L21 28L23 28L23 26L25 26L25 25L26 25L26 27L25 27L25 28L26 28L26 27L27 27L27 26L29 26L29 27L28 27L28 28L31 28L31 29L30 29L30 30L29 30L29 29L28 29L28 30L29 30L29 31L28 31L28 32L30 32L30 33L31 33L31 34L30 34L30 35L31 35L31 34L32 34L32 33L31 33L31 32L30 32L30 30L32 30L32 31L33 31L33 32L36 32L36 31L37 31L37 32L39 32L39 31L38 31L38 30L39 30L39 26L38 26L38 28L36 28L36 27L37 27L37 26L36 26L36 25L35 25L35 24L36 24L36 23L35 23L35 22L36 22L36 21L35 21L35 22L34 22L34 21L32 21L32 22L34 22L34 23L35 23L35 24L34 24L34 25L33 25L33 26L34 26L34 27L33 27L33 28L32 28L32 26L31 26L31 25L30 25L30 26L29 26L29 25L26 25L26 24L27 24L27 23L26 23L26 21L24 21L24 20L22 20L22 19L23 19L23 18L22 18L22 19L21 19L21 18ZM19 20L19 22L21 22L21 24L22 24L22 25L23 25L23 22L24 22L24 24L25 24L25 22L24 22L24 21L23 21L23 22L22 22L22 21L21 21L21 20ZM40 20L40 21L41 21L41 20ZM6 21L6 22L8 22L8 23L9 23L9 22L8 22L8 21ZM10 21L10 22L11 22L11 21ZM27 21L27 22L28 22L28 21ZM37 21L37 22L38 22L38 21ZM0 23L0 28L1 28L1 29L0 29L0 33L1 33L1 30L2 30L2 29L3 29L3 31L4 31L4 30L5 30L5 29L7 29L7 28L6 28L6 27L7 27L7 26L6 26L6 27L4 27L4 28L5 28L5 29L3 29L3 27L2 27L2 25L1 25L1 23ZM11 23L11 25L14 25L14 24L12 24L12 23ZM19 23L19 24L20 24L20 23ZM9 24L9 25L10 25L10 24ZM17 25L17 27L14 27L14 29L15 29L15 30L16 30L16 29L15 29L15 28L17 28L17 29L18 29L18 27L19 27L19 26L18 26L18 25ZM34 25L34 26L35 26L35 25ZM1 27L1 28L2 28L2 27ZM33 28L33 29L32 29L32 30L33 30L33 29L34 29L34 28ZM12 29L12 30L11 30L11 31L10 31L10 32L11 32L11 33L12 33L12 32L15 32L15 31L12 31L12 30L13 30L13 29ZM35 29L35 30L34 30L34 31L36 31L36 30L37 30L37 29ZM6 30L6 31L7 31L7 30ZM22 30L22 32L21 32L21 31L20 31L20 32L21 32L21 33L22 33L22 32L24 32L24 31L25 31L25 30L24 30L24 31L23 31L23 30ZM33 33L33 36L36 36L36 33ZM37 33L37 34L38 34L38 33ZM13 34L13 35L11 35L11 37L12 37L12 36L14 36L14 34ZM15 34L15 35L18 35L18 36L19 36L19 35L18 35L18 34ZM21 34L21 36L22 36L22 34ZM34 34L34 35L35 35L35 34ZM28 35L28 36L29 36L29 37L26 37L26 38L30 38L30 37L32 37L32 36L29 36L29 35ZM37 36L37 37L38 37L38 36ZM20 37L20 38L21 38L21 37ZM33 37L33 38L36 38L36 37ZM16 38L16 39L17 39L17 38ZM37 38L37 39L38 39L38 38ZM29 40L29 41L30 41L30 40ZM0 0L0 7L7 7L7 0ZM1 1L1 6L6 6L6 1ZM2 2L2 5L5 5L5 2ZM34 0L34 7L41 7L41 0ZM35 1L35 6L40 6L40 1ZM36 2L36 5L39 5L39 2ZM0 34L0 41L7 41L7 34ZM1 35L1 40L6 40L6 35ZM2 36L2 39L5 39L5 36Z" fill="#000000"/></g></g></svg>
