<?xml version="1.0" encoding="UTF-8"?>
<svg xmlns="http://www.w3.org/2000/svg" version="1.1" width="200" height="200" viewBox="0 0 200 200"><rect x="0" y="0" width="200" height="200" fill="#ffffff"/><g transform="scale(4.878)"><g transform="translate(0,0)"><path fill-rule="evenodd" d="M10 0L10 2L9 2L9 1L8 1L8 2L9 2L9 3L10 3L10 8L9 8L9 5L8 5L8 8L4 8L4 10L5 10L5 9L8 9L8 10L6 10L6 11L5 11L5 12L3 12L3 13L2 13L2 14L1 14L1 12L2 12L2 11L3 11L3 9L2 9L2 11L1 11L1 9L0 9L0 15L2 15L2 16L3 16L3 17L4 17L4 18L5 18L5 19L3 19L3 18L2 18L2 17L1 17L1 18L2 18L2 19L0 19L0 20L1 20L1 21L0 21L0 26L1 26L1 27L2 27L2 32L0 32L0 33L4 33L4 31L5 31L5 30L6 30L6 31L7 31L7 30L9 30L9 29L8 29L8 28L4 28L4 27L5 27L5 25L4 25L4 24L5 24L5 21L4 21L4 20L6 20L6 21L7 21L7 22L6 22L6 23L7 23L7 24L6 24L6 25L8 25L8 26L9 26L9 24L10 24L10 23L11 23L11 22L10 22L10 23L9 23L9 24L8 24L8 22L9 22L9 20L8 20L8 19L10 19L10 21L12 21L12 22L13 22L13 23L12 23L12 24L11 24L11 25L12 25L12 26L11 26L11 27L9 27L9 28L11 28L11 29L10 29L10 31L9 31L9 32L10 32L10 33L11 33L11 34L13 34L13 33L15 33L15 35L16 35L16 36L17 36L17 37L14 37L14 39L13 39L13 38L12 38L12 36L13 36L13 35L11 35L11 36L10 36L10 34L9 34L9 33L8 33L8 32L6 32L6 33L8 33L8 37L9 37L9 38L10 38L10 39L9 39L9 41L13 41L13 40L14 40L14 41L15 41L15 40L16 40L16 39L19 39L19 38L20 38L20 36L21 36L21 38L22 38L22 37L23 37L23 39L24 39L24 40L21 40L21 39L20 39L20 40L18 40L18 41L24 41L24 40L25 40L25 41L26 41L26 40L27 40L27 41L28 41L28 40L29 40L29 41L30 41L30 40L31 40L31 39L29 39L29 37L27 37L27 39L26 39L26 38L25 38L25 39L24 39L24 37L25 37L25 35L28 35L28 36L29 36L29 35L28 35L28 34L30 34L30 35L31 35L31 37L30 37L30 38L31 38L31 37L33 37L33 39L32 39L32 41L33 41L33 39L34 39L34 40L35 40L35 39L34 39L34 37L36 37L36 38L37 38L37 34L39 34L39 37L40 37L40 38L38 38L38 39L36 39L36 40L37 40L37 41L40 41L40 40L41 40L41 37L40 37L40 35L41 35L41 33L40 33L40 32L41 32L41 29L40 29L40 30L39 30L39 28L40 28L40 27L41 27L41 24L40 24L40 23L41 23L41 22L40 22L40 21L41 21L41 13L40 13L40 16L39 16L39 17L38 17L38 18L37 18L37 17L36 17L36 15L38 15L38 14L39 14L39 12L38 12L38 11L41 11L41 9L40 9L40 8L39 8L39 9L36 9L36 8L34 8L34 10L35 10L35 12L34 12L34 11L33 11L33 9L32 9L32 8L33 8L33 5L31 5L31 3L33 3L33 0L32 0L32 1L31 1L31 3L29 3L29 4L30 4L30 5L29 5L29 6L28 6L28 7L27 7L27 6L26 6L26 7L25 7L25 5L26 5L26 4L25 4L25 3L24 3L24 4L23 4L23 2L24 2L24 1L23 1L23 2L22 2L22 0L21 0L21 1L20 1L20 0L18 0L18 1L17 1L17 0L15 0L15 1L17 1L17 2L16 2L16 3L14 3L14 5L13 5L13 4L12 4L12 5L13 5L13 6L12 6L12 7L11 7L11 3L13 3L13 2L14 2L14 1L13 1L13 0L12 0L12 2L11 2L11 0ZM25 0L25 2L26 2L26 3L28 3L28 2L30 2L30 0L29 0L29 1L28 1L28 0L27 0L27 1L26 1L26 0ZM19 1L19 2L17 2L17 3L16 3L16 4L15 4L15 7L16 7L16 6L17 6L17 7L18 7L18 6L19 6L19 7L20 7L20 8L21 8L21 7L22 7L22 10L19 10L19 8L14 8L14 6L13 6L13 8L12 8L12 11L11 11L11 13L6 13L6 14L5 14L5 16L4 16L4 17L5 17L5 16L7 16L7 17L6 17L6 18L7 18L7 19L6 19L6 20L7 20L7 19L8 19L8 18L10 18L10 19L11 19L11 20L12 20L12 21L13 21L13 22L14 22L14 23L16 23L16 25L15 25L15 24L14 24L14 25L13 25L13 26L12 26L12 27L11 27L11 28L13 28L13 30L11 30L11 31L10 31L10 32L11 32L11 33L13 33L13 32L14 32L14 30L15 30L15 33L17 33L17 36L20 36L20 35L19 35L19 34L18 34L18 32L20 32L20 34L21 34L21 32L22 32L22 33L23 33L23 34L22 34L22 36L24 36L24 35L25 35L25 34L24 34L24 33L23 33L23 32L24 32L24 31L23 31L23 32L22 32L22 31L18 31L18 32L16 32L16 31L17 31L17 29L19 29L19 28L20 28L20 29L21 29L21 27L20 27L20 26L21 26L21 25L20 25L20 26L19 26L19 24L20 24L20 23L19 23L19 22L17 22L17 23L16 23L16 22L15 22L15 21L16 21L16 20L17 20L17 21L19 21L19 19L20 19L20 20L21 20L21 21L23 21L23 23L25 23L25 24L22 24L22 23L21 23L21 24L22 24L22 25L25 25L25 26L26 26L26 28L25 28L25 27L23 27L23 26L22 26L22 27L23 27L23 28L22 28L22 29L23 29L23 30L24 30L24 28L25 28L25 29L26 29L26 30L25 30L25 33L26 33L26 32L27 32L27 33L29 33L29 32L27 32L27 30L28 30L28 31L29 31L29 30L31 30L31 29L28 29L28 28L29 28L29 26L28 26L28 28L27 28L27 26L26 26L26 25L29 25L29 23L27 23L27 24L26 24L26 23L25 23L25 22L27 22L27 21L28 21L28 22L31 22L31 23L30 23L30 24L31 24L31 23L33 23L33 25L30 25L30 26L31 26L31 27L32 27L32 28L33 28L33 29L32 29L32 31L33 31L33 32L34 32L34 31L35 31L35 32L37 32L37 33L39 33L39 34L40 34L40 33L39 33L39 31L38 31L38 29L37 29L37 27L36 27L36 25L37 25L37 26L38 26L38 28L39 28L39 25L37 25L37 24L39 24L39 23L40 23L40 22L39 22L39 23L37 23L37 22L38 22L38 21L39 21L39 20L40 20L40 19L39 19L39 18L38 18L38 19L37 19L37 22L36 22L36 21L35 21L35 20L36 20L36 19L35 19L35 18L36 18L36 17L35 17L35 16L34 16L34 15L32 15L32 14L30 14L30 17L29 17L29 15L28 15L28 13L29 13L29 11L28 11L28 12L27 12L27 11L25 11L25 10L26 10L26 9L29 9L29 10L30 10L30 11L31 11L31 12L32 12L32 13L33 13L33 14L35 14L35 15L36 15L36 13L37 13L37 11L36 11L36 12L35 12L35 13L33 13L33 12L32 12L32 9L29 9L29 7L30 7L30 8L31 8L31 7L32 7L32 6L31 6L31 5L30 5L30 6L29 6L29 7L28 7L28 8L27 8L27 7L26 7L26 8L25 8L25 7L24 7L24 6L23 6L23 7L22 7L22 5L21 5L21 4L22 4L22 3L21 3L21 4L20 4L20 5L21 5L21 7L20 7L20 6L19 6L19 5L16 5L16 4L18 4L18 3L20 3L20 1ZM27 1L27 2L28 2L28 1ZM10 2L10 3L11 3L11 2ZM24 4L24 5L25 5L25 4ZM27 4L27 5L28 5L28 4ZM30 6L30 7L31 7L31 6ZM8 8L8 9L9 9L9 8ZM10 8L10 10L8 10L8 11L10 11L10 10L11 10L11 8ZM23 8L23 9L25 9L25 8ZM16 9L16 11L15 11L15 10L14 10L14 11L12 11L12 13L13 13L13 12L14 12L14 13L15 13L15 15L14 15L14 17L13 17L13 16L12 16L12 15L11 15L11 14L9 14L9 15L10 15L10 16L8 16L8 15L7 15L7 14L6 14L6 15L7 15L7 16L8 16L8 17L11 17L11 16L12 16L12 19L15 19L15 20L13 20L13 21L15 21L15 20L16 20L16 19L15 19L15 18L16 18L16 17L21 17L21 18L20 18L20 19L22 19L22 20L23 20L23 21L25 21L25 20L24 20L24 18L25 18L25 19L26 19L26 20L28 20L28 21L29 21L29 20L30 20L30 21L32 21L32 22L34 22L34 24L35 24L35 25L33 25L33 27L34 27L34 28L35 28L35 25L36 25L36 23L35 23L35 21L32 21L32 20L33 20L33 19L32 19L32 20L31 20L31 19L30 19L30 18L31 18L31 17L32 17L32 18L33 18L33 17L32 17L32 16L31 16L31 17L30 17L30 18L29 18L29 19L28 19L28 16L27 16L27 17L26 17L26 16L25 16L25 15L24 15L24 13L25 13L25 14L26 14L26 15L27 15L27 12L26 12L26 13L25 13L25 11L24 11L24 10L23 10L23 11L19 11L19 12L18 12L18 13L15 13L15 12L17 12L17 11L18 11L18 9ZM6 11L6 12L7 12L7 11ZM14 11L14 12L15 12L15 11ZM21 12L21 13L18 13L18 14L17 14L17 15L16 15L16 16L21 16L21 15L19 15L19 14L21 14L21 13L23 13L23 12ZM2 14L2 15L3 15L3 14ZM24 16L24 17L25 17L25 18L26 18L26 17L25 17L25 16ZM14 17L14 18L15 18L15 17ZM34 17L34 18L35 18L35 17ZM17 18L17 20L18 20L18 19L19 19L19 18ZM22 18L22 19L23 19L23 18ZM34 19L34 20L35 20L35 19ZM2 20L2 21L1 21L1 22L2 22L2 21L3 21L3 20ZM3 23L3 24L1 24L1 26L4 26L4 25L3 25L3 24L4 24L4 23ZM17 23L17 24L19 24L19 23ZM25 24L25 25L26 25L26 24ZM14 25L14 26L15 26L15 30L16 30L16 28L19 28L19 26L17 26L17 25L16 25L16 26L15 26L15 25ZM6 26L6 27L7 27L7 26ZM16 26L16 27L17 27L17 26ZM0 28L0 30L1 30L1 28ZM6 29L6 30L7 30L7 29ZM33 29L33 30L34 30L34 29ZM35 29L35 31L36 31L36 30L37 30L37 29ZM3 30L3 31L4 31L4 30ZM31 32L31 33L30 33L30 34L31 34L31 33L32 33L32 32ZM33 33L33 36L36 36L36 33ZM34 34L34 35L35 35L35 34ZM10 37L10 38L11 38L11 37ZM17 37L17 38L18 38L18 37ZM10 39L10 40L12 40L12 39ZM25 39L25 40L26 40L26 39ZM0 0L0 7L7 7L7 0ZM1 1L1 6L6 6L6 1ZM2 2L2 5L5 5L5 2ZM34 0L34 7L41 7L41 0ZM35 1L35 6L40 6L40 1ZM36 2L36 5L39 5L39 2ZM0 34L0 41L7 41L7 34ZM1 35L1 40L6 40L6 35ZM2 36L2 39L5 39L5 36Z" fill="#000000"/></g></g></svg>
