<?xml version="1.0" encoding="UTF-8"?>
<svg xmlns="http://www.w3.org/2000/svg" version="1.1" width="200" height="200" viewBox="0 0 200 200"><rect x="0" y="0" width="200" height="200" fill="#ffffff"/><g transform="scale(4.878)"><g transform="translate(0,0)"><path fill-rule="evenodd" d="M8 0L8 3L9 3L9 2L10 2L10 0ZM12 0L12 1L13 1L13 2L11 2L11 3L13 3L13 5L10 5L10 4L9 4L9 5L8 5L8 9L9 9L9 11L10 11L10 9L9 9L9 8L11 8L11 10L13 10L13 11L11 11L11 13L12 13L12 12L13 12L13 14L18 14L18 15L20 15L20 16L21 16L21 18L20 18L20 17L17 17L17 18L15 18L15 19L13 19L13 18L14 18L14 17L15 17L15 16L16 16L16 15L14 15L14 17L13 17L13 18L12 18L12 20L15 20L15 21L14 21L14 22L13 22L13 23L12 23L12 24L10 24L10 26L9 26L9 27L10 27L10 26L11 26L11 28L10 28L10 29L11 29L11 30L10 30L10 31L9 31L9 30L8 30L8 31L7 31L7 30L6 30L6 29L9 29L9 28L8 28L8 27L7 27L7 26L8 26L8 25L9 25L9 24L8 24L8 23L9 23L9 22L6 22L6 23L5 23L5 21L7 21L7 20L9 20L9 21L10 21L10 22L11 22L11 20L9 20L9 19L10 19L10 18L11 18L11 17L12 17L12 16L11 16L11 15L12 15L12 14L10 14L10 15L9 15L9 13L10 13L10 12L9 12L9 13L7 13L7 12L8 12L8 11L7 11L7 10L6 10L6 9L7 9L7 8L6 8L6 9L5 9L5 8L2 8L2 9L1 9L1 11L3 11L3 12L2 12L2 13L1 13L1 14L0 14L0 15L1 15L1 16L2 16L2 15L1 15L1 14L3 14L3 17L2 17L2 18L1 18L1 20L0 20L0 21L2 21L2 23L1 23L1 25L0 25L0 33L1 33L1 30L2 30L2 29L1 29L1 28L2 28L2 27L3 27L3 26L4 26L4 25L5 25L5 24L6 24L6 25L7 25L7 26L6 26L6 27L4 27L4 28L3 28L3 30L5 30L5 31L4 31L4 33L5 33L5 32L6 32L6 33L8 33L8 34L9 34L9 36L8 36L8 39L9 39L9 36L10 36L10 41L13 41L13 39L14 39L14 38L13 38L13 35L14 35L14 34L15 34L15 36L16 36L16 37L17 37L17 38L15 38L15 40L14 40L14 41L15 41L15 40L16 40L16 41L17 41L17 40L18 40L18 39L19 39L19 37L17 37L17 35L16 35L16 33L14 33L14 32L17 32L17 31L19 31L19 32L20 32L20 33L18 33L18 36L19 36L19 35L20 35L20 36L21 36L21 35L20 35L20 34L22 34L22 33L24 33L24 35L23 35L23 36L22 36L22 37L20 37L20 38L22 38L22 37L23 37L23 40L22 40L22 41L23 41L23 40L24 40L24 41L25 41L25 40L24 40L24 39L25 39L25 36L26 36L26 38L27 38L27 39L26 39L26 41L27 41L27 40L28 40L28 39L30 39L30 40L29 40L29 41L30 41L30 40L31 40L31 41L32 41L32 40L33 40L33 41L34 41L34 40L33 40L33 39L32 39L32 40L31 40L31 38L34 38L34 39L35 39L35 40L36 40L36 39L37 39L37 40L40 40L40 38L41 38L41 37L40 37L40 36L41 36L41 35L40 35L40 34L41 34L41 33L39 33L39 32L40 32L40 30L41 30L41 29L39 29L39 32L37 32L37 31L38 31L38 29L35 29L35 30L34 30L34 31L35 31L35 32L33 32L33 31L32 31L32 30L33 30L33 29L34 29L34 28L33 28L33 29L32 29L32 30L30 30L30 31L31 31L31 33L30 33L30 32L28 32L28 31L29 31L29 30L28 30L28 29L31 29L31 28L29 28L29 27L28 27L28 26L27 26L27 25L29 25L29 26L30 26L30 25L31 25L31 26L33 26L33 27L34 27L34 26L35 26L35 28L38 28L38 26L39 26L39 28L41 28L41 27L40 27L40 26L41 26L41 23L39 23L39 24L40 24L40 26L39 26L39 25L31 25L31 24L32 24L32 23L33 23L33 24L35 24L35 23L36 23L36 24L37 24L37 23L38 23L38 21L39 21L39 20L36 20L36 19L35 19L35 17L36 17L36 18L37 18L37 17L39 17L39 16L37 16L37 15L35 15L35 17L34 17L34 16L32 16L32 17L31 17L31 12L32 12L32 13L33 13L33 14L32 14L32 15L34 15L34 13L35 13L35 12L38 12L38 11L40 11L40 12L39 12L39 13L38 13L38 14L39 14L39 15L40 15L40 14L41 14L41 13L40 13L40 12L41 12L41 11L40 11L40 10L41 10L41 8L38 8L38 9L40 9L40 10L37 10L37 9L36 9L36 8L33 8L33 6L32 6L32 7L31 7L31 6L30 6L30 8L29 8L29 4L28 4L28 5L27 5L27 4L25 4L25 6L24 6L24 5L23 5L23 4L24 4L24 3L25 3L25 2L23 2L23 0L19 0L19 1L18 1L18 2L14 2L14 0ZM15 0L15 1L17 1L17 0ZM24 0L24 1L25 1L25 0ZM26 0L26 1L27 1L27 2L26 2L26 3L31 3L31 2L30 2L30 1L32 1L32 4L30 4L30 5L32 5L32 4L33 4L33 0L29 0L29 1L27 1L27 0ZM19 1L19 2L18 2L18 5L20 5L20 3L19 3L19 2L20 2L20 1ZM21 2L21 3L22 3L22 4L23 4L23 2ZM15 4L15 5L13 5L13 8L12 8L12 9L13 9L13 10L15 10L15 9L14 9L14 6L15 6L15 8L16 8L16 9L18 9L18 10L19 10L19 11L18 11L18 14L21 14L21 15L22 15L22 20L21 20L21 19L20 19L20 18L18 18L18 19L15 19L15 20L17 20L17 21L23 21L23 22L24 22L24 23L22 23L22 24L21 24L21 26L20 26L20 25L19 25L19 24L20 24L20 23L21 23L21 22L18 22L18 23L19 23L19 24L17 24L17 22L16 22L16 21L15 21L15 26L16 26L16 27L14 27L14 26L13 26L13 25L14 25L14 24L13 24L13 25L12 25L12 27L14 27L14 30L15 30L15 31L16 31L16 29L17 29L17 30L18 30L18 29L17 29L17 26L18 26L18 27L20 27L20 28L19 28L19 31L20 31L20 32L21 32L21 33L22 33L22 32L21 32L21 31L20 31L20 30L21 30L21 29L20 29L20 28L22 28L22 31L23 31L23 28L24 28L24 33L25 33L25 35L26 35L26 33L25 33L25 30L26 30L26 29L25 29L25 28L27 28L27 26L26 26L26 27L25 27L25 26L24 26L24 25L25 25L25 24L26 24L26 23L27 23L27 22L28 22L28 24L30 24L30 23L29 23L29 22L31 22L31 23L32 23L32 22L31 22L31 21L33 21L33 22L34 22L34 23L35 23L35 22L36 22L36 21L35 21L35 19L34 19L34 18L33 18L33 17L32 17L32 18L31 18L31 17L29 17L29 16L30 16L30 15L29 15L29 14L30 14L30 13L29 13L29 12L30 12L30 11L29 11L29 10L30 10L30 9L32 9L32 10L31 10L31 11L32 11L32 12L33 12L33 13L34 13L34 12L33 12L33 11L34 11L34 9L32 9L32 8L30 8L30 9L29 9L29 8L28 8L28 6L27 6L27 5L26 5L26 6L25 6L25 7L24 7L24 6L23 6L23 5L21 5L21 7L20 7L20 6L19 6L19 7L20 7L20 8L22 8L22 10L21 10L21 13L20 13L20 12L19 12L19 11L20 11L20 9L19 9L19 8L18 8L18 6L17 6L17 4ZM9 6L9 7L10 7L10 6ZM11 6L11 7L12 7L12 6ZM16 6L16 8L17 8L17 6ZM22 6L22 8L23 8L23 6ZM26 6L26 7L27 7L27 6ZM25 8L25 9L23 9L23 10L22 10L22 12L23 12L23 11L24 11L24 14L22 14L22 15L23 15L23 16L25 16L25 15L24 15L24 14L26 14L26 15L27 15L27 14L29 14L29 13L28 13L28 12L29 12L29 11L28 11L28 10L29 10L29 9L28 9L28 8ZM2 9L2 10L3 10L3 11L4 11L4 10L5 10L5 12L4 12L4 13L3 13L3 14L4 14L4 16L5 16L5 15L6 15L6 16L8 16L8 17L3 17L3 18L2 18L2 19L4 19L4 18L7 18L7 19L5 19L5 20L4 20L4 21L5 21L5 20L7 20L7 19L8 19L8 17L10 17L10 16L9 16L9 15L6 15L6 14L7 14L7 13L6 13L6 14L4 14L4 13L5 13L5 12L7 12L7 11L6 11L6 10L5 10L5 9ZM25 9L25 13L26 13L26 14L27 14L27 13L26 13L26 11L27 11L27 10L28 10L28 9L27 9L27 10L26 10L26 9ZM35 9L35 11L37 11L37 10L36 10L36 9ZM16 10L16 12L15 12L15 13L17 13L17 10ZM36 13L36 14L37 14L37 13ZM39 13L39 14L40 14L40 13ZM28 15L28 16L29 16L29 15ZM36 16L36 17L37 17L37 16ZM40 16L40 18L38 18L38 19L40 19L40 18L41 18L41 16ZM23 17L23 21L24 21L24 22L25 22L25 21L24 21L24 20L25 20L25 18L26 18L26 19L27 19L27 21L29 21L29 18L26 18L26 17L25 17L25 18L24 18L24 17ZM30 18L30 19L31 19L31 18ZM32 18L32 20L33 20L33 21L34 21L34 22L35 22L35 21L34 21L34 20L33 20L33 18ZM2 20L2 21L3 21L3 20ZM30 20L30 21L31 21L31 20ZM40 20L40 21L41 21L41 20ZM2 23L2 24L3 24L3 25L1 25L1 26L3 26L3 25L4 25L4 24L5 24L5 23ZM6 23L6 24L7 24L7 25L8 25L8 24L7 24L7 23ZM24 23L24 24L25 24L25 23ZM22 24L22 26L23 26L23 27L22 27L22 28L23 28L23 27L24 27L24 28L25 28L25 27L24 27L24 26L23 26L23 24ZM18 25L18 26L19 26L19 25ZM6 27L6 28L5 28L5 29L6 29L6 28L7 28L7 27ZM12 29L12 31L10 31L10 33L9 33L9 32L8 32L8 33L9 33L9 34L10 34L10 35L11 35L11 36L12 36L12 35L13 35L13 33L12 33L12 32L13 32L13 29ZM35 30L35 31L37 31L37 30ZM2 31L2 32L3 32L3 31ZM6 31L6 32L7 32L7 31ZM26 31L26 32L27 32L27 31ZM11 33L11 34L12 34L12 33ZM27 33L27 34L28 34L28 35L27 35L27 36L28 36L28 35L29 35L29 33ZM31 33L31 34L30 34L30 35L31 35L31 34L32 34L32 33ZM33 33L33 36L36 36L36 33ZM37 33L37 35L38 35L38 36L37 36L37 37L38 37L38 36L40 36L40 35L39 35L39 34L38 34L38 33ZM34 34L34 35L35 35L35 34ZM23 36L23 37L24 37L24 36ZM29 36L29 37L27 37L27 38L30 38L30 37L32 37L32 36ZM34 37L34 38L36 38L36 37ZM11 38L11 40L12 40L12 38ZM37 38L37 39L38 39L38 38ZM20 40L20 41L21 41L21 40ZM0 0L0 7L7 7L7 0ZM1 1L1 6L6 6L6 1ZM2 2L2 5L5 5L5 2ZM34 0L34 7L41 7L41 0ZM35 1L35 6L40 6L40 1ZM36 2L36 5L39 5L39 2ZM0 34L0 41L7 41L7 34ZM1 35L1 40L6 40L6 35ZM2 36L2 39L5 39L5 36Z" fill="#000000"/></g></g></svg>
