<?xml version="1.0" encoding="UTF-8"?>
<svg xmlns="http://www.w3.org/2000/svg" version="1.1" width="200" height="200" viewBox="0 0 200 200"><rect x="0" y="0" width="200" height="200" fill="#ffffff"/><g transform="scale(4.878)"><g transform="translate(0,0)"><path fill-rule="evenodd" d="M8 0L8 3L9 3L9 1L10 1L10 3L11 3L11 2L12 2L12 1L13 1L13 0ZM14 0L14 1L15 1L15 2L13 2L13 3L12 3L12 4L9 4L9 5L8 5L8 11L7 11L7 10L6 10L6 9L7 9L7 8L6 8L6 9L5 9L5 8L2 8L2 9L1 9L1 12L0 12L0 13L1 13L1 12L2 12L2 13L4 13L4 12L5 12L5 14L3 14L3 15L5 15L5 16L4 16L4 17L5 17L5 18L3 18L3 16L2 16L2 15L1 15L1 14L0 14L0 17L1 17L1 18L3 18L3 20L4 20L4 21L1 21L1 20L2 20L2 19L0 19L0 21L1 21L1 22L2 22L2 23L1 23L1 26L0 26L0 27L1 27L1 28L2 28L2 27L1 27L1 26L3 26L3 29L2 29L2 30L3 30L3 31L2 31L2 33L5 33L5 32L6 32L6 33L7 33L7 32L6 32L6 31L8 31L8 32L9 32L9 33L8 33L8 34L9 34L9 36L8 36L8 39L9 39L9 38L11 38L11 37L12 37L12 39L11 39L11 40L9 40L9 41L11 41L11 40L12 40L12 41L16 41L16 38L14 38L14 39L13 39L13 37L12 37L12 36L14 36L14 37L17 37L17 39L20 39L20 40L18 40L18 41L20 41L20 40L21 40L21 41L22 41L22 40L24 40L24 41L27 41L27 40L28 40L28 39L30 39L30 40L29 40L29 41L30 41L30 40L33 40L33 41L34 41L34 40L33 40L33 39L35 39L35 40L36 40L36 39L37 39L37 40L40 40L40 38L41 38L41 36L38 36L38 35L37 35L37 34L38 34L38 33L39 33L39 35L40 35L40 34L41 34L41 33L39 33L39 32L41 32L41 31L40 31L40 30L41 30L41 29L40 29L40 28L39 28L39 32L37 32L37 30L38 30L38 29L36 29L36 28L38 28L38 26L39 26L39 27L40 27L40 26L41 26L41 23L39 23L39 22L37 22L37 21L39 21L39 20L36 20L36 19L35 19L35 17L36 17L36 18L37 18L37 17L39 17L39 18L38 18L38 19L39 19L39 18L41 18L41 16L40 16L40 17L39 17L39 16L37 16L37 13L36 13L36 14L35 14L35 17L34 17L34 16L33 16L33 17L31 17L31 16L29 16L29 15L31 15L31 12L32 12L32 13L33 13L33 14L32 14L32 15L34 15L34 13L35 13L35 9L36 9L36 10L37 10L37 11L36 11L36 12L38 12L38 11L39 11L39 12L40 12L40 10L41 10L41 8L38 8L38 9L40 9L40 10L37 10L37 9L36 9L36 8L33 8L33 9L30 9L30 8L32 8L32 7L33 7L33 6L32 6L32 7L31 7L31 6L30 6L30 5L33 5L33 4L30 4L30 5L27 5L27 4L26 4L26 5L25 5L25 2L24 2L24 3L23 3L23 4L22 4L22 3L21 3L21 2L17 2L17 3L16 3L16 1L17 1L17 0L16 0L16 1L15 1L15 0ZM20 0L20 1L21 1L21 0ZM22 0L22 2L23 2L23 1L25 1L25 0ZM26 0L26 1L27 1L27 2L26 2L26 3L28 3L28 4L29 4L29 3L31 3L31 2L30 2L30 0L29 0L29 1L27 1L27 0ZM31 0L31 1L32 1L32 2L33 2L33 1L32 1L32 0ZM13 3L13 4L12 4L12 5L10 5L10 6L9 6L9 9L10 9L10 11L8 11L8 12L10 12L10 13L9 13L9 15L6 15L6 14L7 14L7 13L6 13L6 14L5 14L5 15L6 15L6 16L9 16L9 18L11 18L11 19L12 19L12 20L10 20L10 19L8 19L8 21L6 21L6 22L8 22L8 24L7 24L7 23L6 23L6 24L4 24L4 25L6 25L6 26L7 26L7 27L6 27L6 28L4 28L4 29L3 29L3 30L4 30L4 29L5 29L5 30L9 30L9 29L8 29L8 27L9 27L9 25L11 25L11 24L9 24L9 23L10 23L10 22L12 22L12 25L13 25L13 26L14 26L14 25L13 25L13 24L14 24L14 23L13 23L13 22L15 22L15 25L18 25L18 26L16 26L16 27L15 27L15 28L14 28L14 27L13 27L13 28L14 28L14 29L12 29L12 26L10 26L10 28L11 28L11 31L10 31L10 33L9 33L9 34L10 34L10 33L11 33L11 32L12 32L12 33L13 33L13 32L14 32L14 34L12 34L12 35L14 35L14 36L15 36L15 35L17 35L17 36L18 36L18 37L20 37L20 39L21 39L21 38L22 38L22 39L23 39L23 38L22 38L22 34L19 34L19 35L21 35L21 36L18 36L18 33L21 33L21 32L19 32L19 31L20 31L20 30L21 30L21 31L22 31L22 30L21 30L21 28L22 28L22 29L23 29L23 30L24 30L24 29L23 29L23 25L24 25L24 23L23 23L23 22L26 22L26 25L25 25L25 26L24 26L24 28L26 28L26 27L25 27L25 26L29 26L29 27L27 27L27 28L31 28L31 29L30 29L30 30L29 30L29 29L28 29L28 30L29 30L29 31L28 31L28 33L27 33L27 32L26 32L26 31L24 31L24 32L22 32L22 33L24 33L24 34L26 34L26 35L25 35L25 36L24 36L24 35L23 35L23 36L24 36L24 40L25 40L25 36L26 36L26 35L27 35L27 36L28 36L28 37L27 37L27 38L28 38L28 37L29 37L29 38L30 38L30 39L33 39L33 38L36 38L36 37L32 37L32 36L29 36L29 35L27 35L27 34L28 34L28 33L29 33L29 32L30 32L30 33L31 33L31 34L30 34L30 35L31 35L31 34L32 34L32 33L31 33L31 31L30 31L30 30L32 30L32 31L33 31L33 32L35 32L35 31L36 31L36 29L35 29L35 28L36 28L36 27L35 27L35 26L36 26L36 25L39 25L39 26L40 26L40 24L39 24L39 23L37 23L37 24L36 24L36 23L35 23L35 22L36 22L36 21L35 21L35 19L34 19L34 18L31 18L31 17L29 17L29 16L28 16L28 15L29 15L29 14L30 14L30 13L29 13L29 12L30 12L30 11L32 11L32 12L33 12L33 13L34 13L34 12L33 12L33 11L34 11L34 9L33 9L33 11L32 11L32 10L30 10L30 9L27 9L27 7L28 7L28 6L27 6L27 7L26 7L26 6L25 6L25 7L24 7L24 6L23 6L23 7L22 7L22 5L21 5L21 7L20 7L20 4L21 4L21 3L19 3L19 7L20 7L20 9L21 9L21 8L22 8L22 9L24 9L24 13L23 13L23 16L24 16L24 19L23 19L23 18L21 18L21 19L22 19L22 20L21 20L21 21L19 21L19 20L20 20L20 19L18 19L18 18L19 18L19 17L22 17L22 15L21 15L21 13L19 13L19 12L23 12L23 10L21 10L21 11L20 11L20 10L18 10L18 9L19 9L19 8L18 8L18 9L16 9L16 10L15 10L15 11L14 11L14 12L15 12L15 13L14 13L14 18L13 18L13 19L12 19L12 18L11 18L11 16L10 16L10 13L11 13L11 14L12 14L12 17L13 17L13 10L14 10L14 9L15 9L15 8L16 8L16 5L15 5L15 3ZM13 4L13 5L12 5L12 7L11 7L11 6L10 6L10 7L11 7L11 9L14 9L14 7L15 7L15 5L14 5L14 4ZM17 4L17 5L18 5L18 4ZM13 6L13 7L12 7L12 8L13 8L13 7L14 7L14 6ZM17 6L17 7L18 7L18 6ZM29 6L29 8L30 8L30 6ZM25 7L25 9L26 9L26 7ZM3 9L3 10L2 10L2 11L4 11L4 9ZM5 10L5 12L7 12L7 11L6 11L6 10ZM17 10L17 11L18 11L18 10ZM27 10L27 11L25 11L25 12L27 12L27 14L25 14L25 15L24 15L24 16L25 16L25 19L26 19L26 20L25 20L25 21L28 21L28 22L27 22L27 23L31 23L31 22L32 22L32 24L33 24L33 25L31 25L31 24L27 24L27 25L29 25L29 26L30 26L30 25L31 25L31 26L33 26L33 27L31 27L31 28L33 28L33 29L32 29L32 30L33 30L33 29L34 29L34 28L33 28L33 27L34 27L34 26L35 26L35 25L36 25L36 24L35 24L35 25L34 25L34 22L35 22L35 21L34 21L34 20L33 20L33 21L31 21L31 20L32 20L32 19L31 19L31 18L30 18L30 19L31 19L31 20L30 20L30 21L31 21L31 22L29 22L29 21L28 21L28 19L29 19L29 18L27 18L27 17L26 17L26 16L25 16L25 15L27 15L27 14L29 14L29 13L28 13L28 12L29 12L29 11L30 11L30 10L29 10L29 11L28 11L28 10ZM10 11L10 12L12 12L12 11ZM16 12L16 13L17 13L17 15L15 15L15 17L17 17L17 15L18 15L18 16L20 16L20 14L19 14L19 13L18 13L18 12ZM40 13L40 14L38 14L38 15L40 15L40 14L41 14L41 13ZM18 14L18 15L19 15L19 14ZM36 16L36 17L37 17L37 16ZM6 17L6 18L8 18L8 17ZM14 18L14 19L13 19L13 20L14 20L14 21L15 21L15 22L16 22L16 21L18 21L18 20L16 20L16 19L17 19L17 18ZM26 18L26 19L27 19L27 18ZM5 19L5 20L7 20L7 19ZM9 20L9 21L8 21L8 22L10 22L10 20ZM15 20L15 21L16 21L16 20ZM22 20L22 21L24 21L24 20ZM40 20L40 21L41 21L41 20ZM4 21L4 22L3 22L3 23L2 23L2 24L3 24L3 23L5 23L5 21ZM33 21L33 22L34 22L34 21ZM19 22L19 24L18 24L18 23L16 23L16 24L18 24L18 25L19 25L19 27L20 27L20 28L21 28L21 27L22 27L22 26L21 26L21 27L20 27L20 25L22 25L22 24L23 24L23 23L22 23L22 22L21 22L21 23L20 23L20 22ZM21 23L21 24L22 24L22 23ZM6 24L6 25L7 25L7 24ZM8 24L8 25L9 25L9 24ZM19 24L19 25L20 25L20 24ZM33 25L33 26L34 26L34 25ZM6 28L6 29L7 29L7 28ZM17 28L17 29L16 29L16 30L14 30L14 31L17 31L17 32L18 32L18 30L17 30L17 29L19 29L19 28ZM0 29L0 33L1 33L1 29ZM26 29L26 30L27 30L27 29ZM12 30L12 31L13 31L13 30ZM34 30L34 31L35 31L35 30ZM4 31L4 32L5 32L5 31ZM15 32L15 33L16 33L16 34L17 34L17 33L16 33L16 32ZM26 33L26 34L27 34L27 33ZM33 33L33 36L36 36L36 33ZM14 34L14 35L15 35L15 34ZM34 34L34 35L35 35L35 34ZM10 35L10 37L11 37L11 35ZM37 36L37 37L38 37L38 36ZM30 37L30 38L32 38L32 37ZM37 38L37 39L38 39L38 38ZM0 0L0 7L7 7L7 0ZM1 1L1 6L6 6L6 1ZM2 2L2 5L5 5L5 2ZM34 0L34 7L41 7L41 0ZM35 1L35 6L40 6L40 1ZM36 2L36 5L39 5L39 2ZM0 34L0 41L7 41L7 34ZM1 35L1 40L6 40L6 35ZM2 36L2 39L5 39L5 36Z" fill="#000000"/></g></g></svg>
