<?xml version="1.0" encoding="UTF-8"?>
<svg xmlns="http://www.w3.org/2000/svg" version="1.1" width="200" height="200" viewBox="0 0 200 200"><rect x="0" y="0" width="200" height="200" fill="#ffffff"/><g transform="scale(6.897)"><g transform="translate(0,0)"><path fill-rule="evenodd" d="M9 0L9 1L8 1L8 7L9 7L9 8L5 8L5 10L2 10L2 12L1 12L1 11L0 11L0 12L1 12L1 15L0 15L0 17L1 17L1 18L0 18L0 19L2 19L2 20L0 20L0 21L3 21L3 18L2 18L2 17L1 17L1 16L4 16L4 17L5 17L5 18L4 18L4 19L5 19L5 18L6 18L6 19L7 19L7 20L6 20L6 21L7 21L7 20L9 20L9 19L10 19L10 22L9 22L9 21L8 21L8 24L10 24L10 25L9 25L9 26L8 26L8 27L9 27L9 28L10 28L10 29L11 29L11 28L12 28L12 29L15 29L15 27L16 27L16 28L18 28L18 29L21 29L21 28L20 28L20 27L22 27L22 26L21 26L21 25L25 25L25 23L26 23L26 21L27 21L27 20L26 20L26 18L28 18L28 17L29 17L29 16L27 16L27 17L25 17L25 18L21 18L21 16L19 16L19 15L21 15L21 14L19 14L19 13L21 13L21 12L22 12L22 14L23 14L23 15L22 15L22 16L23 16L23 17L24 17L24 16L23 16L23 15L25 15L25 14L26 14L26 13L29 13L29 12L27 12L27 11L29 11L29 9L28 9L28 8L23 8L23 9L28 9L28 10L27 10L27 11L25 11L25 10L22 10L22 11L21 11L21 12L18 12L18 11L20 11L20 10L19 10L19 8L21 8L21 9L22 9L22 8L21 8L21 3L19 3L19 4L16 4L16 5L14 5L14 7L15 7L15 6L16 6L16 8L17 8L17 9L16 9L16 11L14 11L14 8L13 8L13 5L12 5L12 4L13 4L13 3L10 3L10 2L11 2L11 1L12 1L12 0ZM15 0L15 2L16 2L16 0ZM17 0L17 1L19 1L19 2L20 2L20 0ZM9 1L9 2L10 2L10 1ZM17 2L17 3L18 3L18 2ZM14 3L14 4L15 4L15 3ZM19 4L19 5L16 5L16 6L17 6L17 8L18 8L18 6L19 6L19 7L20 7L20 6L19 6L19 5L20 5L20 4ZM10 5L10 6L9 6L9 7L10 7L10 6L11 6L11 8L9 8L9 11L10 11L10 10L11 10L11 9L12 9L12 10L13 10L13 8L12 8L12 5ZM2 8L2 9L3 9L3 8ZM0 9L0 10L1 10L1 9ZM6 9L6 10L5 10L5 11L6 11L6 12L4 12L4 11L3 11L3 12L2 12L2 15L4 15L4 16L5 16L5 17L6 17L6 18L7 18L7 19L8 19L8 17L6 17L6 16L7 16L7 15L8 15L8 14L7 14L7 13L6 13L6 12L8 12L8 11L6 11L6 10L8 10L8 9ZM17 10L17 11L18 11L18 10ZM11 11L11 12L9 12L9 14L10 14L10 15L9 15L9 16L10 16L10 15L11 15L11 17L10 17L10 18L13 18L13 20L11 20L11 22L10 22L10 23L11 23L11 22L12 22L12 23L14 23L14 24L13 24L13 26L14 26L14 25L15 25L15 26L16 26L16 27L18 27L18 28L19 28L19 27L20 27L20 26L19 26L19 27L18 27L18 26L17 26L17 25L18 25L18 24L20 24L20 23L17 23L17 22L18 22L18 21L19 21L19 22L20 22L20 20L19 20L19 19L20 19L20 17L18 17L18 16L17 16L17 18L18 18L18 19L17 19L17 22L16 22L16 23L17 23L17 24L16 24L16 25L15 25L15 22L13 22L13 21L16 21L16 20L15 20L15 19L16 19L16 17L15 17L15 16L16 16L16 15L17 15L17 14L18 14L18 15L19 15L19 14L18 14L18 13L17 13L17 12L16 12L16 13L17 13L17 14L15 14L15 13L14 13L14 12L13 12L13 14L12 14L12 15L11 15L11 14L10 14L10 13L12 13L12 11ZM23 11L23 14L25 14L25 13L24 13L24 12L25 12L25 11ZM3 12L3 13L4 13L4 12ZM6 14L6 15L5 15L5 16L6 16L6 15L7 15L7 14ZM13 14L13 16L12 16L12 17L13 17L13 16L14 16L14 14ZM27 14L27 15L29 15L29 14ZM14 17L14 19L15 19L15 17ZM21 19L21 20L22 20L22 19ZM23 19L23 20L24 20L24 19ZM4 20L4 21L5 21L5 20ZM21 21L21 24L24 24L24 21ZM22 22L22 23L23 23L23 22ZM28 22L28 23L29 23L29 22ZM11 24L11 25L10 25L10 26L12 26L12 24ZM26 24L26 25L28 25L28 24ZM23 26L23 28L22 28L22 29L23 29L23 28L24 28L24 29L29 29L29 26L25 26L25 28L24 28L24 26ZM12 27L12 28L13 28L13 27ZM26 27L26 28L28 28L28 27ZM0 0L0 7L7 7L7 0ZM1 1L1 6L6 6L6 1ZM2 2L2 5L5 5L5 2ZM22 0L22 7L29 7L29 0ZM23 1L23 6L28 6L28 1ZM24 2L24 5L27 5L27 2ZM0 22L0 29L7 29L7 22ZM1 23L1 28L6 28L6 23ZM2 24L2 27L5 27L5 24Z" fill="#000000"/></g></g></svg>
