<?xml version="1.0" encoding="UTF-8"?>
<svg xmlns="http://www.w3.org/2000/svg" version="1.1" width="200" height="200" viewBox="0 0 200 200"><rect x="0" y="0" width="200" height="200" fill="#ffffff"/><g transform="scale(6.897)"><g transform="translate(0,0)"><path fill-rule="evenodd" d="M10 0L10 1L8 1L8 7L9 7L9 8L5 8L5 9L3 9L3 8L2 8L2 9L0 9L0 16L1 16L1 14L3 14L3 15L2 15L2 16L4 16L4 18L6 18L6 19L8 19L8 24L9 24L9 25L10 25L10 23L11 23L11 24L12 24L12 25L11 25L11 26L8 26L8 27L11 27L11 26L13 26L13 27L12 27L12 28L13 28L13 27L15 27L15 29L16 29L16 27L17 27L17 29L18 29L18 28L19 28L19 26L20 26L20 27L21 27L21 29L22 29L22 28L24 28L24 29L26 29L26 28L27 28L27 29L29 29L29 26L26 26L26 25L29 25L29 24L26 24L26 25L25 25L25 23L26 23L26 21L27 21L27 23L28 23L28 22L29 22L29 21L27 21L27 19L26 19L26 18L28 18L28 19L29 19L29 18L28 18L28 17L29 17L29 16L27 16L27 17L25 17L25 16L22 16L22 15L25 15L25 14L26 14L26 13L27 13L27 15L29 15L29 14L28 14L28 13L29 13L29 12L27 12L27 11L29 11L29 9L28 9L28 8L23 8L23 10L22 10L22 11L21 11L21 9L22 9L22 8L21 8L21 0L19 0L19 1L20 1L20 2L19 2L19 3L20 3L20 5L15 5L15 6L14 6L14 7L13 7L13 5L14 5L14 3L15 3L15 2L16 2L16 1L18 1L18 0L16 0L16 1L15 1L15 2L12 2L12 1L14 1L14 0ZM10 1L10 2L9 2L9 4L10 4L10 6L9 6L9 7L10 7L10 8L9 8L9 9L10 9L10 8L11 8L11 9L13 9L13 10L9 10L9 11L10 11L10 12L7 12L7 11L6 11L6 10L7 10L7 9L6 9L6 10L5 10L5 11L4 11L4 10L1 10L1 11L3 11L3 12L2 12L2 13L3 13L3 12L7 12L7 13L6 13L6 14L9 14L9 13L10 13L10 15L9 15L9 17L8 17L8 15L6 15L6 16L5 16L5 13L4 13L4 16L5 16L5 17L6 17L6 18L9 18L9 22L10 22L10 20L11 20L11 21L12 21L12 22L11 22L11 23L12 23L12 24L13 24L13 25L17 25L17 27L18 27L18 26L19 26L19 24L20 24L20 23L19 23L19 22L20 22L20 21L18 21L18 20L22 20L22 19L21 19L21 15L19 15L19 14L22 14L22 12L21 12L21 13L20 13L20 12L19 12L19 13L18 13L18 12L17 12L17 11L15 11L15 10L16 10L16 9L17 9L17 10L18 10L18 11L20 11L20 9L19 9L19 7L20 7L20 6L19 6L19 7L18 7L18 6L17 6L17 7L16 7L16 6L15 6L15 10L14 10L14 8L12 8L12 6L11 6L11 4L12 4L12 5L13 5L13 4L12 4L12 2L11 2L11 1ZM10 2L10 4L11 4L11 2ZM17 2L17 3L16 3L16 4L17 4L17 3L18 3L18 2ZM10 6L10 7L11 7L11 6ZM17 7L17 9L18 9L18 7ZM25 9L25 10L24 10L24 11L27 11L27 10L28 10L28 9ZM13 10L13 11L12 11L12 12L10 12L10 13L11 13L11 14L12 14L12 13L14 13L14 14L13 14L13 15L11 15L11 16L10 16L10 19L11 19L11 20L14 20L14 19L16 19L16 20L15 20L15 21L16 21L16 22L14 22L14 21L13 21L13 22L12 22L12 23L15 23L15 24L17 24L17 25L18 25L18 23L16 23L16 22L17 22L17 21L16 21L16 20L18 20L18 19L17 19L17 18L15 18L15 17L18 17L18 18L19 18L19 19L20 19L20 18L19 18L19 17L20 17L20 16L19 16L19 15L17 15L17 12L15 12L15 11L14 11L14 10ZM14 12L14 13L15 13L15 14L16 14L16 13L15 13L15 12ZM23 12L23 14L25 14L25 13L24 13L24 12ZM14 15L14 16L13 16L13 17L14 17L14 16L15 16L15 15ZM6 16L6 17L7 17L7 16ZM18 16L18 17L19 17L19 16ZM1 17L1 18L0 18L0 19L3 19L3 20L0 20L0 21L3 21L3 20L5 20L5 19L3 19L3 17ZM22 17L22 18L25 18L25 17ZM11 18L11 19L12 19L12 18ZM23 19L23 20L24 20L24 19ZM6 20L6 21L7 21L7 20ZM21 21L21 24L24 24L24 21ZM22 22L22 23L23 23L23 22ZM21 25L21 26L22 26L22 27L23 27L23 26L24 26L24 28L25 28L25 27L26 27L26 26L25 26L25 25ZM15 26L15 27L16 27L16 26ZM27 27L27 28L28 28L28 27ZM0 0L0 7L7 7L7 0ZM1 1L1 6L6 6L6 1ZM2 2L2 5L5 5L5 2ZM22 0L22 7L29 7L29 0ZM23 1L23 6L28 6L28 1ZM24 2L24 5L27 5L27 2ZM0 22L0 29L7 29L7 22ZM1 23L1 28L6 28L6 23ZM2 24L2 27L5 27L5 24Z" fill="#000000"/></g></g></svg>
