<?xml version="1.0" encoding="UTF-8"?>
<svg xmlns="http://www.w3.org/2000/svg" version="1.1" width="200" height="200" viewBox="0 0 200 200"><rect x="0" y="0" width="200" height="200" fill="#ffffff"/><g transform="scale(6.897)"><g transform="translate(0,0)"><path fill-rule="evenodd" d="M9 0L9 2L8 2L8 4L9 4L9 2L10 2L10 3L11 3L11 4L10 4L10 5L9 5L9 6L8 6L8 7L9 7L9 8L11 8L11 9L10 9L10 10L11 10L11 11L9 11L9 9L8 9L8 8L6 8L6 9L5 9L5 8L3 8L3 9L1 9L1 10L0 10L0 14L1 14L1 15L0 15L0 21L2 21L2 20L3 20L3 21L4 21L4 19L5 19L5 21L7 21L7 20L6 20L6 19L9 19L9 20L11 20L11 21L8 21L8 23L10 23L10 22L11 22L11 23L12 23L12 22L13 22L13 23L14 23L14 24L13 24L13 27L11 27L11 26L12 26L12 25L11 25L11 26L10 26L10 28L13 28L13 29L14 29L14 28L15 28L15 29L20 29L20 28L21 28L21 29L23 29L23 28L24 28L24 29L25 29L25 28L26 28L26 29L28 29L28 28L27 28L27 27L29 27L29 26L27 26L27 25L29 25L29 22L28 22L28 21L26 21L26 20L27 20L27 19L26 19L26 20L23 20L23 19L25 19L25 18L28 18L28 19L29 19L29 17L28 17L28 16L29 16L29 14L27 14L27 13L29 13L29 11L28 11L28 10L27 10L27 8L25 8L25 12L24 12L24 16L23 16L23 12L22 12L22 11L21 11L21 10L19 10L19 9L17 9L17 8L19 8L19 6L20 6L20 7L21 7L21 4L19 4L19 3L20 3L20 1L21 1L21 0L19 0L19 1L18 1L18 0L17 0L17 1L18 1L18 2L19 2L19 3L18 3L18 4L19 4L19 6L18 6L18 7L17 7L17 5L16 5L16 4L17 4L17 2L15 2L15 1L14 1L14 0L13 0L13 1L12 1L12 0L11 0L11 1L10 1L10 0ZM11 2L11 3L14 3L14 4L15 4L15 2ZM11 4L11 5L10 5L10 6L9 6L9 7L10 7L10 6L11 6L11 7L12 7L12 6L13 6L13 9L14 9L14 10L12 10L12 9L11 9L11 10L12 10L12 11L11 11L11 12L10 12L10 14L12 14L12 16L13 16L13 17L10 17L10 16L11 16L11 15L9 15L9 13L8 13L8 10L7 10L7 9L6 9L6 10L7 10L7 11L6 11L6 12L5 12L5 11L4 11L4 12L3 12L3 10L5 10L5 9L3 9L3 10L2 10L2 11L1 11L1 12L3 12L3 14L5 14L5 15L1 15L1 18L3 18L3 19L4 19L4 17L5 17L5 15L6 15L6 16L7 16L7 17L6 17L6 18L5 18L5 19L6 19L6 18L9 18L9 17L10 17L10 19L12 19L12 21L13 21L13 22L15 22L15 23L16 23L16 21L17 21L17 24L16 24L16 26L17 26L17 25L18 25L18 26L19 26L19 28L20 28L20 27L21 27L21 26L22 26L22 28L23 28L23 27L25 27L25 26L26 26L26 27L27 27L27 26L26 26L26 24L28 24L28 23L27 23L27 22L25 22L25 26L24 26L24 25L19 25L19 24L20 24L20 21L18 21L18 20L17 20L17 18L18 18L18 17L19 17L19 18L20 18L20 19L21 19L21 20L22 20L22 19L21 19L21 16L20 16L20 15L21 15L21 14L22 14L22 12L21 12L21 14L20 14L20 15L19 15L19 16L18 16L18 15L16 15L16 14L15 14L15 16L16 16L16 17L14 17L14 15L13 15L13 14L12 14L12 13L13 13L13 12L12 12L12 11L15 11L15 12L14 12L14 13L15 13L15 12L16 12L16 13L17 13L17 14L18 14L18 11L17 11L17 12L16 12L16 10L17 10L17 9L14 9L14 6L15 6L15 7L16 7L16 6L15 6L15 5L12 5L12 4ZM11 5L11 6L12 6L12 5ZM22 9L22 10L23 10L23 11L24 11L24 9ZM26 10L26 11L27 11L27 12L28 12L28 11L27 11L27 10ZM4 12L4 13L5 13L5 12ZM6 12L6 13L7 13L7 12ZM11 12L11 13L12 13L12 12ZM19 12L19 13L20 13L20 12ZM25 13L25 16L26 16L26 17L27 17L27 16L28 16L28 15L27 15L27 16L26 16L26 13ZM6 14L6 15L7 15L7 16L8 16L8 14ZM2 16L2 17L3 17L3 16ZM22 16L22 17L23 17L23 16ZM13 17L13 18L12 18L12 19L13 19L13 20L14 20L14 19L13 19L13 18L14 18L14 17ZM15 18L15 19L16 19L16 18ZM15 20L15 21L16 21L16 20ZM21 21L21 24L24 24L24 21ZM18 22L18 23L19 23L19 22ZM22 22L22 23L23 23L23 22ZM8 24L8 26L9 26L9 24ZM14 24L14 27L13 27L13 28L14 28L14 27L15 27L15 24ZM16 27L16 28L17 28L17 27ZM0 0L0 7L7 7L7 0ZM1 1L1 6L6 6L6 1ZM2 2L2 5L5 5L5 2ZM22 0L22 7L29 7L29 0ZM23 1L23 6L28 6L28 1ZM24 2L24 5L27 5L27 2ZM0 22L0 29L7 29L7 22ZM1 23L1 28L6 28L6 23ZM2 24L2 27L5 27L5 24Z" fill="#000000"/></g></g></svg>
