<?xml version="1.0" encoding="UTF-8"?>
<svg xmlns="http://www.w3.org/2000/svg" version="1.1" width="200" height="200" viewBox="0 0 200 200"><rect x="0" y="0" width="200" height="200" fill="#ffffff"/><g transform="scale(6.897)"><g transform="translate(0,0)"><path fill-rule="evenodd" d="M11 0L11 1L10 1L10 2L9 2L9 1L8 1L8 7L9 7L9 4L10 4L10 8L5 8L5 9L7 9L7 10L5 10L5 11L7 11L7 10L8 10L8 9L9 9L9 10L10 10L10 11L9 11L9 13L10 13L10 14L11 14L11 15L9 15L9 16L5 16L5 17L4 17L4 18L5 18L5 17L7 17L7 18L6 18L6 19L5 19L5 20L4 20L4 19L2 19L2 17L3 17L3 16L4 16L4 15L2 15L2 14L4 14L4 13L3 13L3 11L4 11L4 9L3 9L3 8L2 8L2 10L1 10L1 11L0 11L0 15L1 15L1 16L0 16L0 17L1 17L1 18L0 18L0 19L2 19L2 20L0 20L0 21L3 21L3 20L4 20L4 21L5 21L5 20L6 20L6 21L8 21L8 24L9 24L9 22L10 22L10 21L9 21L9 20L11 20L11 24L10 24L10 25L11 25L11 27L10 27L10 26L8 26L8 27L10 27L10 28L9 28L9 29L11 29L11 27L12 27L12 28L14 28L14 27L15 27L15 28L16 28L16 29L17 29L17 28L19 28L19 26L20 26L20 27L21 27L21 29L22 29L22 28L24 28L24 29L29 29L29 26L27 26L27 27L28 27L28 28L26 28L26 27L25 27L25 28L24 28L24 26L23 26L23 27L22 27L22 26L21 26L21 25L25 25L25 26L26 26L26 25L28 25L28 24L26 24L26 25L25 25L25 23L26 23L26 21L27 21L27 20L26 20L26 19L27 19L27 18L28 18L28 19L29 19L29 18L28 18L28 17L29 17L29 16L27 16L27 17L25 17L25 16L22 16L22 15L25 15L25 14L26 14L26 13L29 13L29 12L27 12L27 11L29 11L29 9L28 9L28 8L23 8L23 10L22 10L22 11L21 11L21 9L22 9L22 8L21 8L21 0L19 0L19 1L20 1L20 2L19 2L19 3L20 3L20 5L19 5L19 4L18 4L18 5L17 5L17 3L18 3L18 2L17 2L17 1L18 1L18 0L17 0L17 1L16 1L16 0L15 0L15 2L16 2L16 5L15 5L15 4L14 4L14 5L13 5L13 4L11 4L11 3L12 3L12 2L13 2L13 3L14 3L14 2L13 2L13 1L14 1L14 0ZM11 1L11 2L10 2L10 3L11 3L11 2L12 2L12 1ZM11 5L11 8L10 8L10 9L14 9L14 8L15 8L15 7L16 7L16 6L17 6L17 7L18 7L18 9L17 9L17 10L16 10L16 9L15 9L15 10L12 10L12 11L13 11L13 12L11 12L11 11L10 11L10 12L11 12L11 13L12 13L12 15L13 15L13 12L15 12L15 11L16 11L16 12L17 12L17 13L16 13L16 15L15 15L15 13L14 13L14 15L15 15L15 16L14 16L14 17L15 17L15 18L14 18L14 20L13 20L13 19L12 19L12 21L14 21L14 20L15 20L15 22L16 22L16 21L17 21L17 17L18 17L18 19L19 19L19 20L22 20L22 19L21 19L21 15L19 15L19 16L20 16L20 17L18 17L18 15L17 15L17 14L18 14L18 12L19 12L19 14L22 14L22 12L21 12L21 13L20 13L20 12L19 12L19 11L20 11L20 9L19 9L19 7L20 7L20 6L19 6L19 7L18 7L18 6L17 6L17 5L16 5L16 6L15 6L15 7L14 7L14 6L13 6L13 5ZM12 6L12 8L14 8L14 7L13 7L13 6ZM25 9L25 10L24 10L24 11L27 11L27 10L28 10L28 9ZM17 10L17 11L19 11L19 10ZM1 11L1 14L2 14L2 11ZM6 12L6 13L5 13L5 14L6 14L6 15L7 15L7 14L8 14L8 13L7 13L7 12ZM23 12L23 14L25 14L25 13L24 13L24 12ZM6 13L6 14L7 14L7 13ZM16 15L16 17L17 17L17 15ZM1 16L1 17L2 17L2 16ZM9 16L9 17L8 17L8 18L7 18L7 19L6 19L6 20L7 20L7 19L8 19L8 20L9 20L9 17L10 17L10 16ZM11 16L11 18L10 18L10 19L11 19L11 18L12 18L12 17L13 17L13 16ZM22 17L22 18L25 18L25 19L23 19L23 20L25 20L25 19L26 19L26 18L25 18L25 17ZM19 18L19 19L20 19L20 18ZM19 21L19 22L20 22L20 21ZM21 21L21 24L24 24L24 21ZM12 22L12 24L11 24L11 25L12 25L12 24L16 24L16 25L14 25L14 26L13 26L13 27L14 27L14 26L15 26L15 27L16 27L16 28L17 28L17 27L18 27L18 26L19 26L19 25L18 25L18 26L17 26L17 24L18 24L18 23L17 23L17 24L16 24L16 23L13 23L13 22ZM22 22L22 23L23 23L23 22ZM28 22L28 23L29 23L29 22ZM19 23L19 24L20 24L20 23ZM16 26L16 27L17 27L17 26ZM0 0L0 7L7 7L7 0ZM1 1L1 6L6 6L6 1ZM2 2L2 5L5 5L5 2ZM22 0L22 7L29 7L29 0ZM23 1L23 6L28 6L28 1ZM24 2L24 5L27 5L27 2ZM0 22L0 29L7 29L7 22ZM1 23L1 28L6 28L6 23ZM2 24L2 27L5 27L5 24Z" fill="#000000"/></g></g></svg>
