<?xml version="1.0" encoding="UTF-8"?>
<svg xmlns="http://www.w3.org/2000/svg" version="1.1" width="200" height="200" viewBox="0 0 200 200"><rect x="0" y="0" width="200" height="200" fill="#ffffff"/><g transform="scale(4.878)"><g transform="translate(0,0)"><path fill-rule="evenodd" d="M8 0L8 3L9 3L9 5L8 5L8 12L6 12L6 11L7 11L7 10L6 10L6 9L7 9L7 8L6 8L6 9L5 9L5 8L2 8L2 10L0 10L0 11L2 11L2 10L3 10L3 9L4 9L4 11L5 11L5 12L3 12L3 14L2 14L2 12L0 12L0 14L1 14L1 15L0 15L0 17L1 17L1 19L3 19L3 20L0 20L0 23L1 23L1 21L2 21L2 24L0 24L0 25L2 25L2 24L3 24L3 20L4 20L4 18L2 18L2 17L3 17L3 16L4 16L4 17L5 17L5 16L6 16L6 17L7 17L7 16L8 16L8 15L9 15L9 16L10 16L10 15L11 15L11 17L10 17L10 19L11 19L11 18L12 18L12 19L13 19L13 18L14 18L14 19L15 19L15 21L14 21L14 20L12 20L12 21L11 21L11 20L10 20L10 21L11 21L11 22L10 22L10 23L9 23L9 19L8 19L8 18L5 18L5 19L7 19L7 20L5 20L5 21L4 21L4 25L3 25L3 26L1 26L1 28L0 28L0 33L1 33L1 30L2 30L2 33L3 33L3 32L6 32L6 33L7 33L7 32L8 32L8 34L9 34L9 36L8 36L8 39L10 39L10 40L9 40L9 41L13 41L13 40L15 40L15 41L16 41L16 40L18 40L18 41L19 41L19 39L21 39L21 40L20 40L20 41L21 41L21 40L22 40L22 41L31 41L31 40L33 40L33 41L34 41L34 40L33 40L33 39L31 39L31 40L28 40L28 39L29 39L29 37L28 37L28 38L27 38L27 37L26 37L26 38L25 38L25 36L24 36L24 37L23 37L23 36L22 36L22 38L19 38L19 37L18 37L18 38L17 38L17 39L16 39L16 37L17 37L17 36L16 36L16 33L17 33L17 34L19 34L19 36L20 36L20 37L21 37L21 36L20 36L20 35L22 35L22 33L21 33L21 32L22 32L22 31L21 31L21 30L20 30L20 28L24 28L24 27L23 27L23 24L22 24L22 23L23 23L23 22L21 22L21 24L19 24L19 26L16 26L16 27L17 27L17 28L14 28L14 29L16 29L16 30L15 30L15 31L14 31L14 30L12 30L12 28L13 28L13 25L15 25L15 24L16 24L16 25L18 25L18 24L17 24L17 21L16 21L16 20L22 20L22 21L26 21L26 23L25 23L25 22L24 22L24 23L25 23L25 24L26 24L26 25L25 25L25 26L26 26L26 25L29 25L29 26L30 26L30 25L31 25L31 26L32 26L32 27L31 27L31 28L32 28L32 29L33 29L33 30L32 30L32 31L33 31L33 30L34 30L34 31L36 31L36 32L32 32L32 33L31 33L31 32L29 32L29 31L28 31L28 33L31 33L31 34L30 34L30 35L32 35L32 37L31 37L31 36L30 36L30 37L31 37L31 38L32 38L32 37L33 37L33 38L34 38L34 39L35 39L35 40L36 40L36 39L37 39L37 37L39 37L39 38L38 38L38 39L39 39L39 40L40 40L40 38L41 38L41 37L39 37L39 36L40 36L40 34L41 34L41 33L39 33L39 32L37 32L37 31L36 31L36 30L38 30L38 31L40 31L40 30L41 30L41 29L39 29L39 30L38 30L38 29L36 29L36 28L35 28L35 26L36 26L36 27L37 27L37 28L38 28L38 26L39 26L39 28L40 28L40 26L41 26L41 23L40 23L40 26L39 26L39 24L37 24L37 25L33 25L33 23L35 23L35 24L36 24L36 23L35 23L35 22L36 22L36 21L38 21L38 22L37 22L37 23L38 23L38 22L39 22L39 20L36 20L36 19L35 19L35 17L36 17L36 18L37 18L37 19L39 19L39 18L41 18L41 16L40 16L40 17L39 17L39 16L37 16L37 17L36 17L36 16L35 16L35 17L34 17L34 16L33 16L33 15L34 15L34 14L33 14L33 13L34 13L34 12L33 12L33 11L34 11L34 10L35 10L35 11L36 11L36 12L38 12L38 11L39 11L39 13L40 13L40 14L39 14L39 15L40 15L40 14L41 14L41 13L40 13L40 12L41 12L41 11L40 11L40 10L41 10L41 8L38 8L38 9L40 9L40 10L37 10L37 9L36 9L36 8L32 8L32 7L33 7L33 5L32 5L32 4L33 4L33 3L30 3L30 4L31 4L31 5L32 5L32 7L31 7L31 6L30 6L30 5L29 5L29 4L28 4L28 5L27 5L27 6L26 6L26 5L25 5L25 4L23 4L23 2L22 2L22 1L24 1L24 0L22 0L22 1L21 1L21 0L19 0L19 1L18 1L18 0L17 0L17 1L15 1L15 0L14 0L14 1L12 1L12 0L11 0L11 1L10 1L10 0ZM25 0L25 3L26 3L26 4L27 4L27 3L29 3L29 1L27 1L27 0ZM30 0L30 2L31 2L31 1L33 1L33 0ZM14 1L14 3L13 3L13 2L9 2L9 3L11 3L11 4L10 4L10 5L9 5L9 10L10 10L10 9L11 9L11 7L12 7L12 6L13 6L13 8L14 8L14 10L13 10L13 9L12 9L12 10L11 10L11 11L12 11L12 10L13 10L13 12L12 12L12 13L10 13L10 11L9 11L9 13L8 13L8 14L7 14L7 13L6 13L6 12L5 12L5 13L4 13L4 14L5 14L5 15L4 15L4 16L5 16L5 15L6 15L6 16L7 16L7 15L8 15L8 14L9 14L9 15L10 15L10 14L12 14L12 17L14 17L14 14L13 14L13 13L15 13L15 14L16 14L16 15L17 15L17 16L16 16L16 18L15 18L15 19L16 19L16 18L17 18L17 19L19 19L19 17L18 17L18 18L17 18L17 16L19 16L19 15L18 15L18 14L19 14L19 12L20 12L20 14L21 14L21 13L22 13L22 12L23 12L23 11L24 11L24 12L25 12L25 14L22 14L22 15L20 15L20 17L21 17L21 18L22 18L22 20L24 20L24 19L25 19L25 20L29 20L29 21L27 21L27 22L30 22L30 23L28 23L28 24L30 24L30 23L32 23L32 22L34 22L34 21L36 21L36 20L35 20L35 19L34 19L34 18L33 18L33 17L32 17L32 18L31 18L31 17L30 17L30 19L32 19L32 20L29 20L29 19L25 19L25 18L29 18L29 16L31 16L31 15L30 15L30 13L28 13L28 14L29 14L29 15L28 15L28 17L26 17L26 16L27 16L27 14L26 14L26 9L27 9L27 10L28 10L28 9L29 9L29 12L31 12L31 14L32 14L32 15L33 15L33 14L32 14L32 13L33 13L33 12L32 12L32 10L34 10L34 9L32 9L32 8L31 8L31 7L30 7L30 6L29 6L29 8L28 8L28 9L27 9L27 8L25 8L25 7L26 7L26 6L25 6L25 7L24 7L24 5L23 5L23 7L22 7L22 5L21 5L21 4L22 4L22 3L21 3L21 4L20 4L20 2L21 2L21 1L19 1L19 2L18 2L18 1L17 1L17 2L16 2L16 3L17 3L17 4L15 4L15 5L14 5L14 3L15 3L15 1ZM17 2L17 3L18 3L18 4L17 4L17 5L18 5L18 7L17 7L17 6L16 6L16 5L15 5L15 6L14 6L14 5L13 5L13 3L12 3L12 4L11 4L11 5L10 5L10 7L11 7L11 5L13 5L13 6L14 6L14 8L15 8L15 6L16 6L16 8L19 8L19 10L21 10L21 11L23 11L23 9L25 9L25 8L22 8L22 7L21 7L21 6L20 6L20 5L18 5L18 4L19 4L19 3L18 3L18 2ZM26 2L26 3L27 3L27 2ZM19 6L19 8L21 8L21 7L20 7L20 6ZM27 6L27 7L28 7L28 6ZM29 8L29 9L30 9L30 10L32 10L32 9L30 9L30 8ZM15 9L15 10L17 10L17 11L16 11L16 13L17 13L17 14L18 14L18 12L17 12L17 11L18 11L18 10L17 10L17 9ZM21 9L21 10L22 10L22 9ZM35 9L35 10L36 10L36 11L37 11L37 10L36 10L36 9ZM24 10L24 11L25 11L25 10ZM14 11L14 12L15 12L15 11ZM27 11L27 12L28 12L28 11ZM5 13L5 14L6 14L6 15L7 15L7 14L6 14L6 13ZM36 13L36 15L38 15L38 14L37 14L37 13ZM1 15L1 17L2 17L2 15ZM23 15L23 16L24 16L24 17L22 17L22 16L21 16L21 17L22 17L22 18L24 18L24 17L25 17L25 16L26 16L26 15ZM38 17L38 18L39 18L39 17ZM32 18L32 19L33 19L33 18ZM32 20L32 21L30 21L30 22L32 22L32 21L34 21L34 20ZM40 20L40 21L41 21L41 20ZM6 21L6 22L5 22L5 23L6 23L6 24L8 24L8 25L6 25L6 26L8 26L8 27L9 27L9 28L10 28L10 29L9 29L9 30L8 30L8 32L9 32L9 33L10 33L10 32L11 32L11 31L12 31L12 33L11 33L11 34L12 34L12 35L11 35L11 36L12 36L12 37L11 37L11 39L12 39L12 38L14 38L14 39L15 39L15 38L14 38L14 37L15 37L15 33L16 33L16 32L14 32L14 34L13 34L13 31L12 31L12 30L10 30L10 29L11 29L11 28L10 28L10 27L12 27L12 24L14 24L14 23L16 23L16 21L15 21L15 22L12 22L12 23L10 23L10 25L11 25L11 26L8 26L8 25L9 25L9 24L8 24L8 23L6 23L6 22L8 22L8 21ZM18 22L18 23L20 23L20 22ZM31 24L31 25L32 25L32 26L33 26L33 27L34 27L34 26L33 26L33 25L32 25L32 24ZM21 25L21 27L22 27L22 25ZM4 26L4 27L5 27L5 26ZM19 26L19 27L18 27L18 29L19 29L19 27L20 27L20 26ZM27 26L27 28L28 28L28 26ZM6 27L6 28L5 28L5 30L3 30L3 28L2 28L2 30L3 30L3 31L6 31L6 32L7 32L7 31L6 31L6 30L7 30L7 29L6 29L6 28L7 28L7 27ZM29 28L29 29L25 29L25 30L29 30L29 29L30 29L30 30L31 30L31 29L30 29L30 28ZM33 28L33 29L34 29L34 30L36 30L36 29L34 29L34 28ZM22 29L22 30L23 30L23 31L24 31L24 30L23 30L23 29ZM16 30L16 31L17 31L17 33L18 33L18 32L19 32L19 34L20 34L20 32L21 32L21 31L19 31L19 30ZM9 31L9 32L10 32L10 31ZM26 31L26 32L25 32L25 33L24 33L24 32L23 32L23 33L24 33L24 35L25 35L25 34L26 34L26 35L27 35L27 36L28 36L28 34L26 34L26 32L27 32L27 31ZM33 33L33 36L36 36L36 33ZM38 33L38 34L37 34L37 36L39 36L39 35L38 35L38 34L39 34L39 33ZM34 34L34 35L35 35L35 34ZM13 35L13 37L14 37L14 35ZM9 36L9 37L10 37L10 36ZM34 37L34 38L36 38L36 37ZM18 38L18 39L19 39L19 38ZM23 39L23 40L24 40L24 39ZM25 39L25 40L27 40L27 39ZM0 0L0 7L7 7L7 0ZM1 1L1 6L6 6L6 1ZM2 2L2 5L5 5L5 2ZM34 0L34 7L41 7L41 0ZM35 1L35 6L40 6L40 1ZM36 2L36 5L39 5L39 2ZM0 34L0 41L7 41L7 34ZM1 35L1 40L6 40L6 35ZM2 36L2 39L5 39L5 36Z" fill="#000000"/></g></g></svg>
