<?xml version="1.0" encoding="UTF-8"?>
<svg xmlns="http://www.w3.org/2000/svg" version="1.1" width="200" height="200" viewBox="0 0 200 200"><rect x="0" y="0" width="200" height="200" fill="#ffffff"/><g transform="scale(4.878)"><g transform="translate(0,0)"><path fill-rule="evenodd" d="M8 0L8 3L9 3L9 5L8 5L8 9L9 9L9 10L11 10L11 8L12 8L12 11L8 11L8 12L6 12L6 11L7 11L7 10L6 10L6 9L7 9L7 8L6 8L6 9L5 9L5 8L2 8L2 9L1 9L1 10L0 10L0 15L2 15L2 14L1 14L1 13L4 13L4 14L3 14L3 15L7 15L7 16L6 16L6 17L7 17L7 18L6 18L6 19L7 19L7 18L8 18L8 19L10 19L10 20L5 20L5 21L9 21L9 24L8 24L8 22L6 22L6 23L5 23L5 24L6 24L6 25L7 25L7 26L6 26L6 27L5 27L5 28L6 28L6 29L4 29L4 28L3 28L3 27L4 27L4 25L3 25L3 24L4 24L4 21L3 21L3 20L2 20L2 19L1 19L1 21L0 21L0 23L2 23L2 25L0 25L0 26L2 26L2 25L3 25L3 27L0 27L0 33L1 33L1 28L2 28L2 31L3 31L3 29L4 29L4 31L5 31L5 30L6 30L6 31L7 31L7 32L5 32L5 33L8 33L8 34L9 34L9 33L8 33L8 32L10 32L10 33L11 33L11 31L12 31L12 32L14 32L14 30L15 30L15 32L16 32L16 31L17 31L17 32L18 32L18 33L15 33L15 35L14 35L14 33L13 33L13 34L11 34L11 35L9 35L9 36L8 36L8 39L10 39L10 36L11 36L11 37L14 37L14 36L15 36L15 35L16 35L16 36L18 36L18 35L19 35L19 36L20 36L20 37L18 37L18 38L19 38L19 40L18 40L18 41L21 41L21 39L20 39L20 37L21 37L21 38L22 38L22 40L24 40L24 41L25 41L25 40L27 40L27 41L31 41L31 40L33 40L33 41L34 41L34 40L33 40L33 39L31 39L31 37L30 37L30 38L29 38L29 37L28 37L28 36L31 36L31 35L32 35L32 38L34 38L34 39L35 39L35 40L36 40L36 39L37 39L37 40L40 40L40 38L41 38L41 37L40 37L40 36L41 36L41 35L40 35L40 34L41 34L41 33L40 33L40 32L37 32L37 31L38 31L38 30L39 30L39 31L40 31L40 30L41 30L41 29L40 29L40 28L41 28L41 27L40 27L40 26L41 26L41 23L39 23L39 24L40 24L40 26L39 26L39 25L34 25L34 24L33 24L33 23L36 23L36 24L37 24L37 23L38 23L38 22L39 22L39 20L38 20L38 19L37 19L37 20L36 20L36 19L35 19L35 17L36 17L36 18L38 18L38 17L39 17L39 16L37 16L37 15L38 15L38 13L36 13L36 14L35 14L35 17L34 17L34 16L32 16L32 17L31 17L31 10L33 10L33 9L34 9L34 11L33 11L33 12L32 12L32 13L33 13L33 14L32 14L32 15L34 15L34 13L35 13L35 9L36 9L36 10L37 10L37 11L36 11L36 12L38 12L38 11L39 11L39 13L40 13L40 14L39 14L39 15L40 15L40 14L41 14L41 13L40 13L40 10L41 10L41 8L38 8L38 9L40 9L40 10L37 10L37 9L36 9L36 8L33 8L33 9L30 9L30 8L27 8L27 6L28 6L28 7L29 7L29 5L27 5L27 4L25 4L25 6L24 6L24 4L23 4L23 2L24 2L24 3L25 3L25 1L24 1L24 0L22 0L22 1L21 1L21 0L20 0L20 1L19 1L19 0L18 0L18 1L17 1L17 0L16 0L16 2L15 2L15 3L14 3L14 5L15 5L15 4L16 4L16 7L15 7L15 6L14 6L14 7L13 7L13 4L12 4L12 3L11 3L11 0ZM26 0L26 1L27 1L27 2L26 2L26 3L28 3L28 4L29 4L29 3L31 3L31 2L30 2L30 1L32 1L32 4L30 4L30 5L32 5L32 4L33 4L33 0L29 0L29 1L27 1L27 0ZM12 1L12 2L14 2L14 1ZM20 1L20 3L21 3L21 4L20 4L20 5L18 5L18 2L16 2L16 3L17 3L17 7L16 7L16 8L15 8L15 9L13 9L13 10L15 10L15 11L12 11L12 13L11 13L11 14L10 14L10 12L9 12L9 14L8 14L8 13L5 13L5 12L4 12L4 11L6 11L6 10L4 10L4 11L2 11L2 12L4 12L4 13L5 13L5 14L8 14L8 16L7 16L7 17L10 17L10 19L11 19L11 20L10 20L10 22L11 22L11 23L10 23L10 24L9 24L9 26L10 26L10 27L8 27L8 26L7 26L7 27L6 27L6 28L8 28L8 29L9 29L9 30L7 30L7 29L6 29L6 30L7 30L7 31L9 31L9 30L10 30L10 29L9 29L9 28L11 28L11 29L12 29L12 30L13 30L13 29L12 29L12 28L14 28L14 29L15 29L15 30L17 30L17 31L18 31L18 30L17 30L17 29L19 29L19 30L20 30L20 29L21 29L21 26L22 26L22 28L24 28L24 27L23 27L23 26L25 26L25 25L26 25L26 23L27 23L27 24L28 24L28 25L27 25L27 26L28 26L28 25L29 25L29 24L31 24L31 25L30 25L30 26L29 26L29 27L27 27L27 28L26 28L26 27L25 27L25 28L26 28L26 29L24 29L24 30L23 30L23 29L22 29L22 31L21 31L21 32L22 32L22 33L21 33L21 34L20 34L20 33L19 33L19 35L21 35L21 34L22 34L22 33L23 33L23 34L24 34L24 36L25 36L25 37L22 37L22 38L28 38L28 39L27 39L27 40L30 40L30 39L29 39L29 38L28 38L28 37L26 37L26 36L27 36L27 35L26 35L26 34L28 34L28 33L29 33L29 32L31 32L31 31L30 31L30 29L31 29L31 30L32 30L32 31L33 31L33 32L35 32L35 31L36 31L36 30L35 30L35 29L37 29L37 30L38 30L38 29L39 29L39 28L40 28L40 27L39 27L39 26L38 26L38 28L35 28L35 27L36 27L36 26L34 26L34 25L32 25L32 24L31 24L31 23L33 23L33 22L34 22L34 21L35 21L35 22L36 22L36 21L35 21L35 19L34 19L34 18L33 18L33 17L32 17L32 18L31 18L31 17L29 17L29 16L30 16L30 15L29 15L29 14L30 14L30 13L29 13L29 12L30 12L30 11L27 11L27 12L28 12L28 13L29 13L29 14L26 14L26 12L24 12L24 11L23 11L23 14L22 14L22 12L21 12L21 8L19 8L19 9L17 9L17 7L18 7L18 6L19 6L19 7L20 7L20 6L21 6L21 7L22 7L22 5L21 5L21 4L22 4L22 2L21 2L21 1ZM9 2L9 3L10 3L10 4L11 4L11 3L10 3L10 2ZM9 5L9 7L10 7L10 8L9 8L9 9L10 9L10 8L11 8L11 7L12 7L12 5ZM26 5L26 6L25 6L25 7L24 7L24 6L23 6L23 7L24 7L24 10L25 10L25 9L26 9L26 10L30 10L30 9L26 9L26 8L25 8L25 7L26 7L26 6L27 6L27 5ZM10 6L10 7L11 7L11 6ZM30 6L30 7L31 7L31 8L32 8L32 7L33 7L33 6L32 6L32 7L31 7L31 6ZM22 8L22 10L23 10L23 8ZM2 9L2 10L3 10L3 9ZM19 9L19 11L18 11L18 12L17 12L17 11L15 11L15 12L17 12L17 13L16 13L16 15L15 15L15 16L16 16L16 17L15 17L15 18L14 18L14 20L15 20L15 18L18 18L18 19L16 19L16 20L18 20L18 19L20 19L20 20L19 20L19 21L20 21L20 22L19 22L19 23L18 23L18 24L15 24L15 22L18 22L18 21L15 21L15 22L14 22L14 21L13 21L13 22L12 22L12 24L11 24L11 25L12 25L12 24L13 24L13 22L14 22L14 26L16 26L16 25L20 25L20 26L17 26L17 27L16 27L16 29L17 29L17 27L19 27L19 29L20 29L20 26L21 26L21 25L22 25L22 26L23 26L23 23L24 23L24 22L25 22L25 23L26 23L26 22L27 22L27 23L29 23L29 21L28 21L28 20L27 20L27 21L23 21L23 20L21 20L21 19L23 19L23 18L24 18L24 20L26 20L26 19L29 19L29 18L27 18L27 16L24 16L24 15L26 15L26 14L25 14L25 13L24 13L24 15L22 15L22 14L21 14L21 13L18 13L18 12L20 12L20 9ZM33 12L33 13L34 13L34 12ZM12 13L12 14L11 14L11 15L10 15L10 14L9 14L9 15L10 15L10 17L11 17L11 16L12 16L12 14L13 14L13 13ZM14 13L14 14L15 14L15 13ZM17 14L17 17L19 17L19 18L20 18L20 19L21 19L21 17L19 17L19 16L22 16L22 15L21 15L21 14ZM28 15L28 16L29 16L29 15ZM0 16L0 17L1 17L1 18L2 18L2 16ZM3 16L3 17L4 17L4 18L3 18L3 19L4 19L4 18L5 18L5 17L4 17L4 16ZM13 16L13 17L12 17L12 18L11 18L11 19L12 19L12 20L13 20L13 19L12 19L12 18L13 18L13 17L14 17L14 16ZM36 16L36 17L37 17L37 16ZM40 16L40 18L39 18L39 19L40 19L40 18L41 18L41 16ZM22 17L22 18L23 18L23 17ZM25 18L25 19L26 19L26 18ZM30 18L30 19L31 19L31 20L30 20L30 21L31 21L31 22L33 22L33 21L34 21L34 20L33 20L33 21L31 21L31 20L32 20L32 19L33 19L33 18L32 18L32 19L31 19L31 18ZM20 20L20 21L21 21L21 20ZM37 20L37 22L38 22L38 20ZM40 20L40 21L41 21L41 20ZM1 21L1 22L2 22L2 23L3 23L3 22L2 22L2 21ZM27 21L27 22L28 22L28 21ZM21 22L21 23L19 23L19 24L20 24L20 25L21 25L21 23L23 23L23 22ZM6 23L6 24L7 24L7 23ZM24 24L24 25L25 25L25 24ZM31 25L31 26L32 26L32 25ZM33 26L33 27L34 27L34 26ZM14 27L14 28L15 28L15 27ZM31 27L31 28L32 28L32 27ZM27 28L27 29L26 29L26 30L24 30L24 32L23 32L23 33L24 33L24 34L25 34L25 32L26 32L26 33L28 33L28 31L29 31L29 30L28 30L28 29L30 29L30 28ZM33 28L33 29L32 29L32 30L33 30L33 29L34 29L34 28ZM34 30L34 31L35 31L35 30ZM19 31L19 32L20 32L20 31ZM26 31L26 32L27 32L27 31ZM30 33L30 35L31 35L31 33ZM33 33L33 36L36 36L36 33ZM37 33L37 34L38 34L38 36L37 36L37 37L38 37L38 36L39 36L39 33ZM17 34L17 35L18 35L18 34ZM34 34L34 35L35 35L35 34ZM11 35L11 36L14 36L14 35ZM22 35L22 36L23 36L23 35ZM25 35L25 36L26 36L26 35ZM16 37L16 38L15 38L15 40L14 40L14 38L12 38L12 39L11 39L11 41L15 41L15 40L16 40L16 41L17 41L17 39L16 39L16 38L17 38L17 37ZM34 37L34 38L36 38L36 37ZM37 38L37 39L38 39L38 38ZM12 39L12 40L13 40L13 39ZM9 40L9 41L10 41L10 40ZM0 0L0 7L7 7L7 0ZM1 1L1 6L6 6L6 1ZM2 2L2 5L5 5L5 2ZM34 0L34 7L41 7L41 0ZM35 1L35 6L40 6L40 1ZM36 2L36 5L39 5L39 2ZM0 34L0 41L7 41L7 34ZM1 35L1 40L6 40L6 35ZM2 36L2 39L5 39L5 36Z" fill="#000000"/></g></g></svg>
