<?xml version="1.0" encoding="UTF-8"?>
<svg xmlns="http://www.w3.org/2000/svg" version="1.1" width="200" height="200" viewBox="0 0 200 200"><rect x="0" y="0" width="200" height="200" fill="#ffffff"/><g transform="scale(6.897)"><g transform="translate(0,0)"><path fill-rule="evenodd" d="M9 0L9 3L10 3L10 4L8 4L8 5L10 5L10 7L9 7L9 6L8 6L8 8L6 8L6 9L7 9L7 10L6 10L6 11L7 11L7 12L6 12L6 13L5 13L5 10L4 10L4 8L2 8L2 9L3 9L3 10L2 10L2 11L1 11L1 9L0 9L0 11L1 11L1 13L0 13L0 17L1 17L1 18L0 18L0 19L1 19L1 18L5 18L5 19L4 19L4 20L1 20L1 21L4 21L4 20L5 20L5 21L8 21L8 23L9 23L9 24L12 24L12 26L11 26L11 27L10 27L10 26L9 26L9 25L8 25L8 27L10 27L10 28L9 28L9 29L10 29L10 28L12 28L12 26L13 26L13 28L14 28L14 29L15 29L15 26L13 26L13 24L14 24L14 25L15 25L15 24L14 24L14 23L17 23L17 24L18 24L18 23L19 23L19 25L18 25L18 26L19 26L19 25L20 25L20 27L21 27L21 25L23 25L23 26L24 26L24 27L22 27L22 29L23 29L23 28L26 28L26 29L27 29L27 28L29 28L29 26L28 26L28 27L27 27L27 28L26 28L26 26L27 26L27 25L26 25L26 23L25 23L25 22L26 22L26 18L29 18L29 17L26 17L26 16L25 16L25 15L24 15L24 16L23 16L23 17L21 17L21 18L20 18L20 17L19 17L19 18L20 18L20 20L19 20L19 19L17 19L17 18L13 18L13 17L11 17L11 16L13 16L13 15L14 15L14 16L15 16L15 15L16 15L16 13L15 13L15 12L17 12L17 11L16 11L16 10L17 10L17 6L18 6L18 7L19 7L19 8L18 8L18 11L20 11L20 12L19 12L19 13L20 13L20 14L19 14L19 15L18 15L18 13L17 13L17 17L18 17L18 16L19 16L19 15L20 15L20 14L21 14L21 13L20 13L20 12L22 12L22 9L23 9L23 13L22 13L22 15L23 15L23 14L24 14L24 13L25 13L25 14L26 14L26 15L27 15L27 16L28 16L28 15L29 15L29 14L28 14L28 12L29 12L29 11L28 11L28 12L27 12L27 10L29 10L29 9L25 9L25 8L24 8L24 9L23 9L23 8L21 8L21 3L20 3L20 2L18 2L18 1L17 1L17 0L16 0L16 1L17 1L17 2L18 2L18 4L19 4L19 5L16 5L16 4L17 4L17 3L14 3L14 5L13 5L13 4L12 4L12 3L13 3L13 2L15 2L15 0L14 0L14 1L13 1L13 0L12 0L12 3L11 3L11 0ZM19 3L19 4L20 4L20 3ZM10 4L10 5L11 5L11 4ZM12 5L12 6L11 6L11 8L9 8L9 9L8 9L8 11L9 11L9 9L10 9L10 11L12 11L12 12L11 12L11 13L10 13L10 12L7 12L7 13L6 13L6 14L5 14L5 16L4 16L4 17L5 17L5 16L7 16L7 17L6 17L6 18L7 18L7 17L8 17L8 16L9 16L9 18L8 18L8 19L6 19L6 20L8 20L8 21L9 21L9 22L10 22L10 21L11 21L11 22L12 22L12 24L13 24L13 23L14 23L14 21L15 21L15 20L14 20L14 19L11 19L11 17L10 17L10 16L11 16L11 15L10 15L10 14L15 14L15 13L14 13L14 12L13 12L13 11L12 11L12 10L13 10L13 9L15 9L15 10L14 10L14 11L15 11L15 10L16 10L16 8L15 8L15 7L16 7L16 6L15 6L15 5L14 5L14 6L13 6L13 5ZM19 5L19 7L20 7L20 5ZM12 6L12 9L13 9L13 6ZM14 6L14 7L15 7L15 6ZM19 8L19 10L20 10L20 9L21 9L21 8ZM24 9L24 10L25 10L25 9ZM3 10L3 11L2 11L2 13L1 13L1 16L3 16L3 15L4 15L4 12L3 12L3 11L4 11L4 10ZM25 11L25 13L27 13L27 12L26 12L26 11ZM12 12L12 13L13 13L13 12ZM2 13L2 15L3 15L3 13ZM7 13L7 14L6 14L6 15L7 15L7 16L8 16L8 15L9 15L9 16L10 16L10 15L9 15L9 14L10 14L10 13L9 13L9 14L8 14L8 13ZM7 14L7 15L8 15L8 14ZM24 16L24 17L23 17L23 18L22 18L22 19L21 19L21 20L22 20L22 19L24 19L24 20L25 20L25 19L24 19L24 18L26 18L26 17L25 17L25 16ZM8 19L8 20L10 20L10 19ZM11 20L11 21L12 21L12 22L13 22L13 21L12 21L12 20ZM17 20L17 21L16 21L16 22L17 22L17 21L18 21L18 22L20 22L20 21L19 21L19 20ZM27 20L27 21L28 21L28 22L27 22L27 24L29 24L29 23L28 23L28 22L29 22L29 21L28 21L28 20ZM21 21L21 24L24 24L24 21ZM22 22L22 23L23 23L23 22ZM16 25L16 29L17 29L17 28L18 28L18 27L17 27L17 25ZM24 25L24 26L26 26L26 25ZM19 28L19 29L20 29L20 28ZM0 0L0 7L7 7L7 0ZM1 1L1 6L6 6L6 1ZM2 2L2 5L5 5L5 2ZM22 0L22 7L29 7L29 0ZM23 1L23 6L28 6L28 1ZM24 2L24 5L27 5L27 2ZM0 22L0 29L7 29L7 22ZM1 23L1 28L6 28L6 23ZM2 24L2 27L5 27L5 24Z" fill="#000000"/></g></g></svg>
