<?xml version="1.0" encoding="UTF-8"?>
<svg xmlns="http://www.w3.org/2000/svg" version="1.1" width="200" height="200" viewBox="0 0 200 200"><rect x="0" y="0" width="200" height="200" fill="#ffffff"/><g transform="scale(4.878)"><g transform="translate(0,0)"><path fill-rule="evenodd" d="M11 0L11 3L10 3L10 2L8 2L8 4L9 4L9 6L8 6L8 7L9 7L9 9L8 9L8 8L6 8L6 9L5 9L5 8L3 8L3 9L0 9L0 14L1 14L1 13L4 13L4 14L5 14L5 17L3 17L3 16L4 16L4 15L3 15L3 14L2 14L2 15L3 15L3 16L1 16L1 15L0 15L0 16L1 16L1 17L0 17L0 19L2 19L2 18L5 18L5 19L4 19L4 20L2 20L2 21L1 21L1 20L0 20L0 21L1 21L1 22L0 22L0 24L1 24L1 25L0 25L0 26L1 26L1 27L0 27L0 33L8 33L8 35L9 35L9 36L8 36L8 38L9 38L9 40L10 40L10 39L11 39L11 40L12 40L12 41L13 41L13 40L12 40L12 38L13 38L13 37L14 37L14 36L15 36L15 37L18 37L18 36L19 36L19 37L20 37L20 38L15 38L15 39L14 39L14 41L15 41L15 39L18 39L18 40L17 40L17 41L19 41L19 39L20 39L20 40L22 40L22 41L23 41L23 40L25 40L25 41L26 41L26 40L27 40L27 41L29 41L29 39L28 39L28 38L29 38L29 37L30 37L30 38L31 38L31 39L30 39L30 41L34 41L34 40L35 40L35 41L36 41L36 39L37 39L37 40L38 40L38 41L39 41L39 40L38 40L38 39L40 39L40 40L41 40L41 35L40 35L40 34L38 34L38 35L40 35L40 36L39 36L39 37L40 37L40 38L37 38L37 32L38 32L38 33L39 33L39 32L40 32L40 33L41 33L41 32L40 32L40 31L41 31L41 30L39 30L39 31L38 31L38 30L37 30L37 29L34 29L34 28L35 28L35 24L37 24L37 25L36 25L36 26L37 26L37 25L39 25L39 27L36 27L36 28L38 28L38 29L40 29L40 28L39 28L39 27L41 27L41 25L39 25L39 24L37 24L37 20L38 20L38 22L41 22L41 21L39 21L39 20L40 20L40 19L41 19L41 18L40 18L40 17L41 17L41 11L40 11L40 9L39 9L39 8L37 8L37 9L36 9L36 12L35 12L35 13L36 13L36 14L39 14L39 15L36 15L36 16L40 16L40 17L38 17L38 18L37 18L37 17L35 17L35 20L34 20L34 19L33 19L33 20L30 20L30 21L28 21L28 20L29 20L29 19L32 19L32 18L33 18L33 17L34 17L34 16L35 16L35 14L33 14L33 13L31 13L31 11L30 11L30 10L29 10L29 9L31 9L31 10L34 10L34 11L35 11L35 10L34 10L34 9L33 9L33 5L32 5L32 4L33 4L33 0L32 0L32 1L31 1L31 2L30 2L30 1L29 1L29 0L28 0L28 2L27 2L27 1L26 1L26 0L25 0L25 1L24 1L24 0L23 0L23 1L22 1L22 2L20 2L20 1L21 1L21 0L20 0L20 1L19 1L19 2L18 2L18 1L17 1L17 0L16 0L16 1L15 1L15 0L14 0L14 1L13 1L13 0ZM14 1L14 3L15 3L15 5L14 5L14 6L13 6L13 8L12 8L12 6L11 6L11 7L10 7L10 6L9 6L9 7L10 7L10 8L11 8L11 9L9 9L9 13L8 13L8 9L6 9L6 10L5 10L5 11L3 11L3 10L4 10L4 9L3 9L3 10L2 10L2 11L1 11L1 12L2 12L2 11L3 11L3 12L4 12L4 13L5 13L5 14L7 14L7 15L6 15L6 16L7 16L7 17L6 17L6 18L7 18L7 19L5 19L5 20L4 20L4 21L2 21L2 22L3 22L3 23L1 23L1 24L2 24L2 25L3 25L3 27L1 27L1 28L2 28L2 29L1 29L1 30L2 30L2 31L4 31L4 30L5 30L5 31L6 31L6 32L8 32L8 31L9 31L9 35L10 35L10 36L12 36L12 37L9 37L9 38L12 38L12 37L13 37L13 36L14 36L14 35L15 35L15 34L18 34L18 35L17 35L17 36L18 36L18 35L20 35L20 36L21 36L21 37L22 37L22 38L20 38L20 39L22 39L22 40L23 40L23 39L22 39L22 38L23 38L23 37L24 37L24 38L26 38L26 39L27 39L27 40L28 40L28 39L27 39L27 36L30 36L30 37L31 37L31 36L32 36L32 35L31 35L31 33L32 33L32 32L33 32L33 31L34 31L34 32L37 32L37 31L35 31L35 30L33 30L33 31L32 31L32 29L31 29L31 28L32 28L32 27L31 27L31 26L32 26L32 25L33 25L33 24L32 24L32 23L33 23L33 22L31 22L31 21L30 21L30 22L31 22L31 24L29 24L29 22L28 22L28 23L27 23L27 24L26 24L26 22L25 22L25 21L26 21L26 20L27 20L27 19L26 19L26 20L24 20L24 18L25 18L25 17L26 17L26 18L27 18L27 17L32 17L32 15L30 15L30 12L29 12L29 11L28 11L28 12L29 12L29 15L28 15L28 13L27 13L27 11L26 11L26 10L27 10L27 9L29 9L29 8L32 8L32 5L31 5L31 7L30 7L30 6L29 6L29 5L30 5L30 4L32 4L32 2L31 2L31 3L29 3L29 2L28 2L28 3L29 3L29 5L28 5L28 4L26 4L26 3L25 3L25 5L24 5L24 6L23 6L23 7L24 7L24 6L25 6L25 7L26 7L26 8L23 8L23 9L22 9L22 10L19 10L19 9L17 9L17 8L18 8L18 6L19 6L19 8L21 8L21 7L22 7L22 6L21 6L21 7L20 7L20 5L19 5L19 3L17 3L17 2L15 2L15 1ZM23 1L23 2L22 2L22 3L21 3L21 5L23 5L23 4L24 4L24 1ZM11 3L11 4L12 4L12 3ZM17 4L17 5L16 5L16 7L15 7L15 6L14 6L14 7L15 7L15 9L16 9L16 8L17 8L17 5L18 5L18 4ZM26 5L26 7L27 7L27 5ZM28 6L28 7L29 7L29 6ZM13 8L13 9L14 9L14 8ZM11 9L11 10L10 10L10 11L11 11L11 12L10 12L10 13L9 13L9 14L10 14L10 15L11 15L11 16L8 16L8 15L7 15L7 16L8 16L8 18L10 18L10 19L9 19L9 20L8 20L8 19L7 19L7 20L5 20L5 22L6 22L6 23L5 23L5 24L4 24L4 26L5 26L5 28L6 28L6 29L5 29L5 30L6 30L6 31L8 31L8 30L10 30L10 29L8 29L8 30L6 30L6 29L7 29L7 28L8 28L8 27L7 27L7 26L5 26L5 24L6 24L6 25L10 25L10 26L9 26L9 27L10 27L10 28L11 28L11 31L13 31L13 32L10 32L10 33L11 33L11 34L10 34L10 35L11 35L11 34L12 34L12 35L14 35L14 32L15 32L15 33L17 33L17 32L15 32L15 29L16 29L16 30L17 30L17 29L18 29L18 28L21 28L21 29L20 29L20 30L19 30L19 32L18 32L18 33L19 33L19 34L21 34L21 33L22 33L22 32L23 32L23 31L28 31L28 30L30 30L30 31L31 31L31 29L29 29L29 27L28 27L28 24L27 24L27 26L26 26L26 28L23 28L23 30L22 30L22 27L23 27L23 26L24 26L24 27L25 27L25 26L24 26L24 25L26 25L26 24L25 24L25 22L24 22L24 20L23 20L23 19L22 19L22 17L23 17L23 18L24 18L24 16L25 16L25 15L27 15L27 16L28 16L28 15L27 15L27 13L26 13L26 12L25 12L25 10L26 10L26 9L23 9L23 12L24 12L24 13L23 13L23 14L22 14L22 16L21 16L21 15L20 15L20 14L21 14L21 13L22 13L22 11L21 11L21 12L20 12L20 13L19 13L19 12L18 12L18 13L17 13L17 14L15 14L15 13L14 13L14 12L16 12L16 11L17 11L17 10L16 10L16 11L15 11L15 10L14 10L14 12L12 12L12 9ZM37 9L37 10L38 10L38 12L40 12L40 11L39 11L39 10L38 10L38 9ZM6 10L6 11L5 11L5 12L6 12L6 13L7 13L7 12L6 12L6 11L7 11L7 10ZM36 12L36 13L37 13L37 12ZM10 13L10 14L13 14L13 15L12 15L12 16L11 16L11 17L10 17L10 18L12 18L12 20L11 20L11 19L10 19L10 20L11 20L11 21L10 21L10 22L9 22L9 21L8 21L8 20L7 20L7 21L6 21L6 22L7 22L7 23L6 23L6 24L8 24L8 23L10 23L10 24L11 24L11 23L12 23L12 25L11 25L11 26L10 26L10 27L11 27L11 26L12 26L12 27L14 27L14 26L16 26L16 27L15 27L15 28L16 28L16 27L17 27L17 26L18 26L18 27L22 27L22 26L23 26L23 25L24 25L24 23L23 23L23 21L21 21L21 18L20 18L20 17L21 17L21 16L20 16L20 17L19 17L19 13L18 13L18 16L17 16L17 17L16 17L16 16L15 16L15 14L14 14L14 13ZM25 13L25 14L23 14L23 15L25 15L25 14L26 14L26 13ZM13 15L13 16L12 16L12 18L13 18L13 19L15 19L15 21L17 21L17 20L16 20L16 19L17 19L17 18L18 18L18 19L19 19L19 20L18 20L18 22L15 22L15 23L17 23L17 24L18 24L18 23L21 23L21 24L20 24L20 25L21 25L21 24L22 24L22 25L23 25L23 24L22 24L22 23L21 23L21 21L20 21L20 22L19 22L19 20L20 20L20 19L19 19L19 17L17 17L17 18L15 18L15 17L14 17L14 18L13 18L13 16L14 16L14 15ZM36 18L36 20L37 20L37 18ZM7 21L7 22L8 22L8 21ZM11 21L11 22L10 22L10 23L11 23L11 22L14 22L14 21ZM34 21L34 22L35 22L35 23L36 23L36 21ZM13 23L13 24L14 24L14 25L13 25L13 26L14 26L14 25L16 25L16 24L14 24L14 23ZM31 24L31 25L29 25L29 26L31 26L31 25L32 25L32 24ZM18 25L18 26L19 26L19 25ZM6 27L6 28L7 28L7 27ZM27 27L27 28L26 28L26 29L27 29L27 30L28 30L28 29L27 29L27 28L28 28L28 27ZM3 28L3 29L2 29L2 30L3 30L3 29L4 29L4 28ZM12 28L12 30L13 30L13 28ZM24 29L24 30L25 30L25 29ZM19 32L19 33L20 33L20 32ZM24 32L24 33L25 33L25 35L26 35L26 36L27 36L27 35L29 35L29 34L30 34L30 33L31 33L31 32L29 32L29 33L28 33L28 32L27 32L27 33L26 33L26 32ZM33 33L33 36L36 36L36 33ZM34 34L34 35L35 35L35 34ZM22 35L22 37L23 37L23 35ZM30 35L30 36L31 36L31 35ZM33 37L33 38L32 38L32 39L31 39L31 40L33 40L33 39L35 39L35 38L36 38L36 37ZM0 0L0 7L7 7L7 0ZM1 1L1 6L6 6L6 1ZM2 2L2 5L5 5L5 2ZM34 0L34 7L41 7L41 0ZM35 1L35 6L40 6L40 1ZM36 2L36 5L39 5L39 2ZM0 34L0 41L7 41L7 34ZM1 35L1 40L6 40L6 35ZM2 36L2 39L5 39L5 36Z" fill="#000000"/></g></g></svg>
