<?xml version="1.0" encoding="UTF-8"?>
<svg xmlns="http://www.w3.org/2000/svg" version="1.1" width="200" height="200" viewBox="0 0 200 200"><rect x="0" y="0" width="200" height="200" fill="#ffffff"/><g transform="scale(6.897)"><g transform="translate(0,0)"><path fill-rule="evenodd" d="M9 0L9 1L10 1L10 2L8 2L8 4L10 4L10 2L11 2L11 0ZM14 0L14 1L12 1L12 3L11 3L11 5L10 5L10 7L11 7L11 6L12 6L12 7L13 7L13 8L14 8L14 9L13 9L13 10L12 10L12 8L10 8L10 9L11 9L11 10L12 10L12 12L11 12L11 13L10 13L10 14L12 14L12 13L13 13L13 15L12 15L12 16L15 16L15 17L14 17L14 19L12 19L12 18L13 18L13 17L11 17L11 16L10 16L10 17L9 17L9 16L8 16L8 15L7 15L7 14L5 14L5 17L4 17L4 18L3 18L3 17L2 17L2 16L1 16L1 17L0 17L0 21L3 21L3 20L4 20L4 21L8 21L8 23L9 23L9 24L8 24L8 26L9 26L9 28L10 28L10 27L11 27L11 26L12 26L12 29L13 29L13 28L14 28L14 29L15 29L15 28L14 28L14 26L15 26L15 27L16 27L16 29L17 29L17 28L18 28L18 29L19 29L19 28L20 28L20 29L21 29L21 27L22 27L22 28L24 28L24 29L25 29L25 27L22 27L22 26L21 26L21 27L19 27L19 26L18 26L18 25L24 25L24 26L25 26L25 22L27 22L27 21L26 21L26 19L27 19L27 18L29 18L29 17L28 17L28 16L29 16L29 14L27 14L27 13L29 13L29 11L28 11L28 10L27 10L27 8L25 8L25 9L24 9L24 10L23 10L23 9L22 9L22 10L23 10L23 12L22 12L22 11L21 11L21 12L19 12L19 10L18 10L18 9L19 9L19 8L18 8L18 9L17 9L17 6L18 6L18 7L19 7L19 6L20 6L20 7L21 7L21 4L20 4L20 3L21 3L21 1L20 1L20 0L17 0L17 1L15 1L15 0ZM17 1L17 2L16 2L16 3L17 3L17 4L15 4L15 3L14 3L14 2L13 2L13 3L12 3L12 6L13 6L13 7L14 7L14 6L15 6L15 10L13 10L13 11L15 11L15 10L16 10L16 11L17 11L17 12L16 12L16 13L17 13L17 12L18 12L18 10L17 10L17 9L16 9L16 6L15 6L15 5L17 5L17 4L18 4L18 3L20 3L20 1L19 1L19 2L18 2L18 1ZM13 4L13 5L14 5L14 4ZM8 6L8 7L9 7L9 6ZM3 8L3 9L4 9L4 10L6 10L6 11L7 11L7 12L6 12L6 13L7 13L7 12L8 12L8 13L9 13L9 12L10 12L10 11L9 11L9 10L8 10L8 11L7 11L7 10L6 10L6 9L8 9L8 8L6 8L6 9L5 9L5 8ZM20 8L20 10L21 10L21 8ZM1 9L1 11L3 11L3 10L2 10L2 9ZM25 9L25 10L26 10L26 11L27 11L27 12L28 12L28 11L27 11L27 10L26 10L26 9ZM1 12L1 13L2 13L2 14L0 14L0 15L3 15L3 16L4 16L4 15L3 15L3 13L4 13L4 12ZM13 12L13 13L14 13L14 12ZM21 12L21 14L20 14L20 15L19 15L19 13L18 13L18 16L17 16L17 14L14 14L14 15L15 15L15 16L17 16L17 17L19 17L19 18L18 18L18 19L17 19L17 20L18 20L18 22L17 22L17 21L16 21L16 22L17 22L17 23L16 23L16 25L15 25L15 24L13 24L13 22L14 22L14 23L15 23L15 21L14 21L14 20L12 20L12 19L11 19L11 20L12 20L12 21L10 21L10 19L9 19L9 18L8 18L8 16L7 16L7 15L6 15L6 16L7 16L7 17L5 17L5 19L4 19L4 20L7 20L7 19L6 19L6 18L8 18L8 20L9 20L9 22L12 22L12 23L10 23L10 24L11 24L11 25L10 25L10 26L11 26L11 25L12 25L12 26L13 26L13 25L15 25L15 26L16 26L16 25L17 25L17 23L18 23L18 24L20 24L20 20L22 20L22 19L20 19L20 15L21 15L21 18L22 18L22 16L24 16L24 12L23 12L23 14L22 14L22 12ZM25 13L25 16L26 16L26 17L27 17L27 16L28 16L28 15L27 15L27 16L26 16L26 13ZM10 17L10 18L11 18L11 17ZM23 17L23 18L24 18L24 17ZM15 18L15 20L16 20L16 18ZM25 18L25 19L23 19L23 20L25 20L25 19L26 19L26 18ZM2 19L2 20L3 20L3 19ZM18 19L18 20L19 20L19 19ZM12 21L12 22L13 22L13 21ZM21 21L21 24L24 24L24 21ZM28 21L28 22L29 22L29 21ZM22 22L22 23L23 23L23 22ZM28 23L28 24L26 24L26 28L27 28L27 29L28 29L28 28L27 28L27 27L29 27L29 26L27 26L27 25L28 25L28 24L29 24L29 23ZM12 24L12 25L13 25L13 24ZM0 0L0 7L7 7L7 0ZM1 1L1 6L6 6L6 1ZM2 2L2 5L5 5L5 2ZM22 0L22 7L29 7L29 0ZM23 1L23 6L28 6L28 1ZM24 2L24 5L27 5L27 2ZM0 22L0 29L7 29L7 22ZM1 23L1 28L6 28L6 23ZM2 24L2 27L5 27L5 24Z" fill="#000000"/></g></g></svg>
