<?xml version="1.0" encoding="UTF-8"?>
<svg xmlns="http://www.w3.org/2000/svg" version="1.1" width="200" height="200" viewBox="0 0 200 200"><rect x="0" y="0" width="200" height="200" fill="#ffffff"/><g transform="scale(4.878)"><g transform="translate(0,0)"><path fill-rule="evenodd" d="M8 0L8 3L9 3L9 2L10 2L10 7L9 7L9 5L8 5L8 9L7 9L7 8L6 8L6 9L5 9L5 8L2 8L2 9L1 9L1 10L0 10L0 12L2 12L2 9L5 9L5 10L4 10L4 11L3 11L3 13L0 13L0 14L1 14L1 15L3 15L3 16L4 16L4 17L7 17L7 18L3 18L3 17L2 17L2 16L1 16L1 17L2 17L2 19L1 19L1 18L0 18L0 19L1 19L1 20L6 20L6 21L5 21L5 22L3 22L3 21L2 21L2 22L1 22L1 26L0 26L0 28L2 28L2 29L4 29L4 30L2 30L2 32L4 32L4 33L5 33L5 32L6 32L6 33L8 33L8 34L9 34L9 33L10 33L10 34L11 34L11 33L14 33L14 31L16 31L16 28L17 28L17 27L13 27L13 24L14 24L14 23L13 23L13 22L12 22L12 21L9 21L9 22L8 22L8 21L7 21L7 20L9 20L9 18L8 18L8 16L10 16L10 17L12 17L12 16L13 16L13 18L14 18L14 20L13 20L13 19L12 19L12 18L10 18L10 20L13 20L13 21L14 21L14 22L17 22L17 24L16 24L16 23L15 23L15 26L16 26L16 25L18 25L18 24L19 24L19 26L20 26L20 27L21 27L21 30L22 30L22 31L20 31L20 28L18 28L18 29L17 29L17 31L19 31L19 32L16 32L16 33L15 33L15 34L14 34L14 35L13 35L13 34L12 34L12 36L13 36L13 38L10 38L10 37L11 37L11 35L10 35L10 36L8 36L8 39L9 39L9 38L10 38L10 39L13 39L13 40L14 40L14 41L17 41L17 40L20 40L20 41L21 41L21 40L22 40L22 41L23 41L23 40L22 40L22 39L21 39L21 38L22 38L22 36L23 36L23 37L24 37L24 36L23 36L23 35L25 35L25 36L26 36L26 35L27 35L27 37L26 37L26 38L25 38L25 39L24 39L24 40L26 40L26 41L27 41L27 40L28 40L28 38L27 38L27 37L29 37L29 38L30 38L30 39L31 39L31 40L33 40L33 41L34 41L34 40L33 40L33 39L35 39L35 40L36 40L36 39L37 39L37 40L40 40L40 38L41 38L41 37L40 37L40 36L41 36L41 35L40 35L40 34L41 34L41 32L40 32L40 30L41 30L41 29L40 29L40 28L41 28L41 27L40 27L40 26L41 26L41 23L39 23L39 24L40 24L40 26L39 26L39 25L34 25L34 24L33 24L33 23L36 23L36 24L37 24L37 20L38 20L38 22L39 22L39 20L38 20L38 19L39 19L39 18L41 18L41 16L40 16L40 17L39 17L39 16L38 16L38 15L40 15L40 14L41 14L41 13L40 13L40 14L37 14L37 13L36 13L36 14L35 14L35 15L36 15L36 16L35 16L35 17L34 17L34 16L32 16L32 17L31 17L31 16L29 16L29 15L28 15L28 16L29 16L29 17L31 17L31 18L30 18L30 19L31 19L31 20L30 20L30 21L31 21L31 22L32 22L32 23L30 23L30 22L29 22L29 23L30 23L30 24L29 24L29 25L28 25L28 26L27 26L27 25L26 25L26 27L25 27L25 28L24 28L24 29L23 29L23 30L22 30L22 27L21 27L21 26L22 26L22 25L20 25L20 24L21 24L21 23L22 23L22 24L23 24L23 27L24 27L24 24L23 24L23 23L25 23L25 24L28 24L28 22L23 22L23 23L22 23L22 22L21 22L21 21L20 21L20 20L23 20L23 21L25 21L25 19L24 19L24 18L22 18L22 17L21 17L21 16L20 16L20 15L18 15L18 14L21 14L21 15L22 15L22 16L23 16L23 15L24 15L24 16L25 16L25 18L26 18L26 17L27 17L27 16L26 16L26 15L27 15L27 14L30 14L30 15L31 15L31 12L32 12L32 13L33 13L33 14L32 14L32 15L34 15L34 13L35 13L35 12L38 12L38 11L40 11L40 12L41 12L41 11L40 11L40 10L41 10L41 8L38 8L38 9L40 9L40 10L37 10L37 9L36 9L36 8L33 8L33 5L32 5L32 4L33 4L33 3L31 3L31 2L30 2L30 0L29 0L29 1L27 1L27 0L26 0L26 1L27 1L27 2L26 2L26 3L28 3L28 4L29 4L29 3L31 3L31 4L30 4L30 5L32 5L32 9L30 9L30 8L31 8L31 6L30 6L30 8L29 8L29 6L28 6L28 5L27 5L27 4L26 4L26 5L25 5L25 2L24 2L24 1L25 1L25 0L24 0L24 1L23 1L23 0L21 0L21 3L20 3L20 2L19 2L19 0L17 0L17 1L16 1L16 0L14 0L14 2L13 2L13 3L15 3L15 5L14 5L14 4L12 4L12 2L11 2L11 1L9 1L9 0ZM31 0L31 1L32 1L32 2L33 2L33 1L32 1L32 0ZM15 1L15 3L17 3L17 5L18 5L18 6L17 6L17 7L18 7L18 8L17 8L17 9L18 9L18 10L19 10L19 11L20 11L20 13L22 13L22 15L23 15L23 14L24 14L24 13L26 13L26 14L25 14L25 15L26 15L26 14L27 14L27 12L28 12L28 13L29 13L29 12L30 12L30 10L29 10L29 9L27 9L27 10L26 10L26 8L28 8L28 6L27 6L27 5L26 5L26 6L25 6L25 7L24 7L24 5L23 5L23 4L24 4L24 3L23 3L23 4L22 4L22 3L21 3L21 4L20 4L20 3L19 3L19 5L18 5L18 1L17 1L17 2L16 2L16 1ZM11 4L11 5L12 5L12 6L11 6L11 8L13 8L13 10L12 10L12 9L11 9L11 11L10 11L10 13L9 13L9 12L8 12L8 11L9 11L9 10L10 10L10 8L9 8L9 9L8 9L8 10L7 10L7 9L6 9L6 10L7 10L7 11L4 11L4 12L7 12L7 13L4 13L4 14L3 14L3 15L4 15L4 14L7 14L7 15L6 15L6 16L8 16L8 14L10 14L10 16L12 16L12 15L14 15L14 18L16 18L16 21L18 21L18 23L19 23L19 24L20 24L20 21L18 21L18 20L17 20L17 17L19 17L19 16L18 16L18 15L17 15L17 14L18 14L18 13L17 13L17 12L18 12L18 11L17 11L17 12L15 12L15 11L14 11L14 8L15 8L15 10L16 10L16 5L15 5L15 7L14 7L14 5L12 5L12 4ZM20 5L20 7L19 7L19 6L18 6L18 7L19 7L19 8L18 8L18 9L19 9L19 10L21 10L21 12L25 12L25 11L26 11L26 10L25 10L25 8L24 8L24 7L23 7L23 5ZM12 6L12 7L13 7L13 6ZM21 6L21 7L20 7L20 9L21 9L21 7L22 7L22 6ZM26 6L26 7L27 7L27 6ZM22 9L22 11L24 11L24 10L23 10L23 9ZM32 9L32 10L31 10L31 11L32 11L32 10L33 10L33 11L34 11L34 9ZM35 9L35 11L37 11L37 10L36 10L36 9ZM27 10L27 11L29 11L29 10ZM11 11L11 14L17 14L17 13L15 13L15 12L14 12L14 13L12 13L12 11ZM33 12L33 13L34 13L34 12ZM36 14L36 15L37 15L37 14ZM15 15L15 16L16 16L16 17L17 17L17 15ZM36 16L36 17L35 17L35 19L34 19L34 18L33 18L33 17L32 17L32 18L31 18L31 19L33 19L33 20L34 20L34 21L32 21L32 20L31 20L31 21L32 21L32 22L34 22L34 21L35 21L35 22L36 22L36 21L35 21L35 19L36 19L36 20L37 20L37 19L38 19L38 18L39 18L39 17L38 17L38 16ZM36 17L36 18L37 18L37 17ZM18 18L18 19L19 19L19 20L20 20L20 18ZM27 18L27 19L28 19L28 18ZM6 19L6 20L7 20L7 19ZM23 19L23 20L24 20L24 19ZM14 20L14 21L15 21L15 20ZM26 20L26 21L29 21L29 20ZM40 20L40 21L41 21L41 20ZM6 21L6 22L7 22L7 21ZM9 22L9 23L6 23L6 24L7 24L7 25L5 25L5 24L3 24L3 23L2 23L2 26L3 26L3 25L4 25L4 26L8 26L8 27L4 27L4 28L5 28L5 29L6 29L6 30L7 30L7 31L6 31L6 32L8 32L8 33L9 33L9 32L12 32L12 31L11 31L11 30L13 30L13 31L14 31L14 29L15 29L15 28L13 28L13 27L12 27L12 28L11 28L11 27L10 27L10 28L9 28L9 26L10 26L10 25L9 25L9 23L11 23L11 24L12 24L12 22ZM31 24L31 25L30 25L30 26L28 26L28 27L26 27L26 29L27 29L27 28L31 28L31 29L30 29L30 30L29 30L29 29L28 29L28 30L29 30L29 31L28 31L28 32L30 32L30 33L31 33L31 34L30 34L30 35L31 35L31 34L32 34L32 33L31 33L31 32L30 32L30 30L32 30L32 31L33 31L33 32L35 32L35 31L36 31L36 30L35 30L35 29L38 29L38 30L37 30L37 31L38 31L38 32L37 32L37 34L38 34L38 36L37 36L37 37L38 37L38 36L40 36L40 35L39 35L39 33L38 33L38 32L39 32L39 28L40 28L40 27L39 27L39 26L38 26L38 28L36 28L36 27L37 27L37 26L34 26L34 25L32 25L32 24ZM11 25L11 26L12 26L12 25ZM31 25L31 26L32 26L32 25ZM33 26L33 27L31 27L31 28L33 28L33 29L32 29L32 30L33 30L33 29L34 29L34 28L33 28L33 27L34 27L34 26ZM2 27L2 28L3 28L3 27ZM6 28L6 29L7 29L7 28ZM8 28L8 29L9 29L9 30L8 30L8 31L9 31L9 30L11 30L11 29L9 29L9 28ZM12 28L12 29L13 29L13 28ZM0 29L0 33L1 33L1 29ZM18 29L18 30L19 30L19 29ZM4 30L4 32L5 32L5 30ZM23 30L23 31L24 31L24 32L25 32L25 34L29 34L29 33L27 33L27 31L26 31L26 32L25 32L25 30ZM34 30L34 31L35 31L35 30ZM19 32L19 33L18 33L18 34L19 34L19 35L22 35L22 32ZM19 33L19 34L21 34L21 33ZM33 33L33 36L36 36L36 33ZM15 34L15 37L16 37L16 34ZM34 34L34 35L35 35L35 34ZM28 35L28 36L29 36L29 37L31 37L31 38L32 38L32 39L33 39L33 38L36 38L36 37L33 37L33 38L32 38L32 36L29 36L29 35ZM17 36L17 37L18 37L18 38L15 38L15 39L14 39L14 38L13 38L13 39L14 39L14 40L15 40L15 39L18 39L18 38L19 38L19 39L20 39L20 38L21 38L21 36L20 36L20 38L19 38L19 37L18 37L18 36ZM26 38L26 39L27 39L27 38ZM37 38L37 39L38 39L38 38ZM10 40L10 41L12 41L12 40ZM29 40L29 41L30 41L30 40ZM0 0L0 7L7 7L7 0ZM1 1L1 6L6 6L6 1ZM2 2L2 5L5 5L5 2ZM34 0L34 7L41 7L41 0ZM35 1L35 6L40 6L40 1ZM36 2L36 5L39 5L39 2ZM0 34L0 41L7 41L7 34ZM1 35L1 40L6 40L6 35ZM2 36L2 39L5 39L5 36Z" fill="#000000"/></g></g></svg>
