<?xml version="1.0" encoding="UTF-8"?>
<svg xmlns="http://www.w3.org/2000/svg" version="1.1" width="200" height="200" viewBox="0 0 200 200"><rect x="0" y="0" width="200" height="200" fill="#ffffff"/><g transform="scale(6.897)"><g transform="translate(0,0)"><path fill-rule="evenodd" d="M10 0L10 2L11 2L11 1L12 1L12 3L10 3L10 4L8 4L8 5L10 5L10 4L11 4L11 5L12 5L12 4L13 4L13 5L15 5L15 6L14 6L14 7L13 7L13 6L12 6L12 7L11 7L11 6L10 6L10 7L9 7L9 6L8 6L8 8L6 8L6 9L5 9L5 10L4 10L4 8L2 8L2 9L0 9L0 16L1 16L1 18L0 18L0 19L1 19L1 18L2 18L2 17L4 17L4 16L3 16L3 15L4 15L4 14L5 14L5 15L7 15L7 14L8 14L8 15L9 15L9 16L12 16L12 15L13 15L13 17L12 17L12 18L10 18L10 17L9 17L9 19L7 19L7 18L8 18L8 17L7 17L7 16L6 16L6 17L7 17L7 18L3 18L3 19L2 19L2 20L1 20L1 21L7 21L7 20L9 20L9 21L8 21L8 23L9 23L9 22L10 22L10 23L11 23L11 25L12 25L12 26L15 26L15 27L16 27L16 28L15 28L15 29L16 29L16 28L18 28L18 29L20 29L20 28L18 28L18 26L17 26L17 25L19 25L19 26L20 26L20 25L23 25L23 26L24 26L24 27L22 27L22 29L23 29L23 28L25 28L25 26L24 26L24 25L26 25L26 26L27 26L27 25L29 25L29 24L28 24L28 23L27 23L27 25L26 25L26 23L25 23L25 22L26 22L26 20L24 20L24 19L27 19L27 18L29 18L29 17L26 17L26 16L25 16L25 15L24 15L24 16L23 16L23 17L21 17L21 18L20 18L20 17L19 17L19 16L17 16L17 15L15 15L15 18L14 18L14 19L13 19L13 17L14 17L14 15L13 15L13 14L16 14L16 10L17 10L17 11L18 11L18 10L19 10L19 11L20 11L20 12L17 12L17 14L19 14L19 15L20 15L20 14L21 14L21 13L20 13L20 12L22 12L22 9L23 9L23 13L22 13L22 15L23 15L23 14L24 14L24 13L25 13L25 14L26 14L26 15L27 15L27 16L28 16L28 15L29 15L29 14L28 14L28 12L29 12L29 11L28 11L28 12L27 12L27 10L29 10L29 9L27 9L27 10L24 10L24 9L25 9L25 8L24 8L24 9L23 9L23 8L21 8L21 9L20 9L20 7L21 7L21 3L20 3L20 2L18 2L18 1L17 1L17 2L18 2L18 4L19 4L19 5L16 5L16 4L17 4L17 3L16 3L16 4L13 4L13 3L15 3L15 2L16 2L16 1L14 1L14 2L13 2L13 1L12 1L12 0ZM19 3L19 4L20 4L20 3ZM19 5L19 7L18 7L18 6L17 6L17 10L18 10L18 8L19 8L19 7L20 7L20 5ZM15 6L15 7L16 7L16 6ZM9 8L9 10L8 10L8 9L6 9L6 10L7 10L7 11L5 11L5 12L7 12L7 13L5 13L5 14L7 14L7 13L8 13L8 12L9 12L9 10L10 10L10 11L11 11L11 12L10 12L10 13L9 13L9 15L12 15L12 14L13 14L13 13L15 13L15 10L16 10L16 8L14 8L14 9L15 9L15 10L14 10L14 12L12 12L12 10L13 10L13 8L12 8L12 9L11 9L11 10L10 10L10 8ZM2 9L2 10L1 10L1 11L2 11L2 12L3 12L3 13L1 13L1 15L2 15L2 14L3 14L3 13L4 13L4 12L3 12L3 11L4 11L4 10L3 10L3 9ZM19 9L19 10L20 10L20 9ZM7 11L7 12L8 12L8 11ZM25 11L25 13L27 13L27 12L26 12L26 11ZM11 12L11 13L10 13L10 14L11 14L11 13L12 13L12 12ZM19 13L19 14L20 14L20 13ZM27 14L27 15L28 15L28 14ZM24 16L24 17L23 17L23 18L22 18L22 19L21 19L21 20L22 20L22 19L24 19L24 18L26 18L26 17L25 17L25 16ZM15 18L15 19L16 19L16 20L13 20L13 21L12 21L12 19L11 19L11 20L10 20L10 22L11 22L11 21L12 21L12 22L13 22L13 23L12 23L12 24L14 24L14 25L15 25L15 26L16 26L16 27L17 27L17 26L16 26L16 25L15 25L15 24L17 24L17 22L15 22L15 24L14 24L14 22L13 22L13 21L18 21L18 23L20 23L20 21L19 21L19 20L20 20L20 18ZM3 19L3 20L7 20L7 19ZM18 19L18 20L19 20L19 19ZM27 20L27 21L28 21L28 20ZM21 21L21 24L24 24L24 21ZM22 22L22 23L23 23L23 22ZM19 24L19 25L20 25L20 24ZM8 25L8 27L9 27L9 28L11 28L11 29L14 29L14 27L13 27L13 28L12 28L12 27L9 27L9 25ZM28 26L28 27L26 27L26 28L29 28L29 26ZM0 0L0 7L7 7L7 0ZM1 1L1 6L6 6L6 1ZM2 2L2 5L5 5L5 2ZM22 0L22 7L29 7L29 0ZM23 1L23 6L28 6L28 1ZM24 2L24 5L27 5L27 2ZM0 22L0 29L7 29L7 22ZM1 23L1 28L6 28L6 23ZM2 24L2 27L5 27L5 24Z" fill="#000000"/></g></g></svg>
