<?xml version="1.0" encoding="UTF-8"?>
<svg xmlns="http://www.w3.org/2000/svg" version="1.1" width="200" height="200" viewBox="0 0 200 200"><rect x="0" y="0" width="200" height="200" fill="#ffffff"/><g transform="scale(4.878)"><g transform="translate(0,0)"><path fill-rule="evenodd" d="M8 0L8 3L9 3L9 0ZM12 0L12 2L10 2L10 3L11 3L11 4L9 4L9 5L8 5L8 10L6 10L6 11L8 11L8 10L9 10L9 12L8 12L8 14L5 14L5 15L4 15L4 18L6 18L6 19L8 19L8 20L6 20L6 21L5 21L5 19L4 19L4 20L2 20L2 21L1 21L1 20L0 20L0 21L1 21L1 22L0 22L0 23L1 23L1 22L2 22L2 21L5 21L5 22L6 22L6 23L5 23L5 24L6 24L6 25L3 25L3 23L4 23L4 22L3 22L3 23L2 23L2 25L1 25L1 24L0 24L0 25L1 25L1 28L2 28L2 25L3 25L3 26L5 26L5 27L3 27L3 28L4 28L4 29L0 29L0 33L1 33L1 30L2 30L2 32L4 32L4 33L8 33L8 34L9 34L9 32L13 32L13 35L11 35L11 34L12 34L12 33L11 33L11 34L10 34L10 35L11 35L11 36L10 36L10 37L9 37L9 36L8 36L8 39L9 39L9 40L10 40L10 38L11 38L11 36L12 36L12 38L13 38L13 40L15 40L15 38L16 38L16 39L17 39L17 38L18 38L18 40L16 40L16 41L19 41L19 40L21 40L21 41L22 41L22 39L21 39L21 38L23 38L23 40L24 40L24 41L26 41L26 40L27 40L27 41L28 41L28 40L27 40L27 39L28 39L28 38L27 38L27 37L29 37L29 36L31 36L31 35L32 35L32 37L30 37L30 38L31 38L31 39L30 39L30 40L29 40L29 41L30 41L30 40L33 40L33 41L34 41L34 40L33 40L33 39L32 39L32 37L33 37L33 38L34 38L34 39L35 39L35 40L36 40L36 39L37 39L37 40L40 40L40 38L41 38L41 37L39 37L39 36L37 36L37 35L38 35L38 34L39 34L39 35L40 35L40 34L41 34L41 33L40 33L40 32L41 32L41 31L40 31L40 30L41 30L41 29L40 29L40 28L39 28L39 29L38 29L38 30L37 30L37 29L36 29L36 28L38 28L38 26L39 26L39 27L40 27L40 26L41 26L41 23L39 23L39 22L38 22L38 21L39 21L39 20L36 20L36 19L35 19L35 17L36 17L36 18L37 18L37 19L40 19L40 18L41 18L41 16L40 16L40 18L37 18L37 17L39 17L39 16L37 16L37 15L39 15L39 14L41 14L41 13L39 13L39 14L37 14L37 13L36 13L36 14L35 14L35 15L36 15L36 16L35 16L35 17L34 17L34 16L32 16L32 17L30 17L30 16L31 16L31 12L32 12L32 13L33 13L33 14L32 14L32 15L34 15L34 13L35 13L35 12L38 12L38 11L40 11L40 12L41 12L41 11L40 11L40 10L41 10L41 8L38 8L38 9L40 9L40 10L37 10L37 9L36 9L36 8L33 8L33 6L32 6L32 7L31 7L31 5L33 5L33 4L28 4L28 5L27 5L27 4L26 4L26 7L27 7L27 8L24 8L24 7L25 7L25 6L24 6L24 5L25 5L25 1L24 1L24 0L22 0L22 1L21 1L21 2L20 2L20 1L19 1L19 0L16 0L16 1L18 1L18 2L13 2L13 0ZM14 0L14 1L15 1L15 0ZM26 0L26 1L27 1L27 2L26 2L26 3L32 3L32 2L30 2L30 0L29 0L29 1L27 1L27 0ZM31 0L31 1L32 1L32 0ZM22 1L22 2L21 2L21 4L20 4L20 2L19 2L19 4L18 4L18 3L17 3L17 7L18 7L18 8L16 8L16 6L15 6L15 5L16 5L16 4L13 4L13 2L12 2L12 4L11 4L11 9L12 9L12 8L13 8L13 7L14 7L14 6L15 6L15 10L16 10L16 11L13 11L13 10L14 10L14 9L13 9L13 10L11 10L11 11L13 11L13 12L12 12L12 13L11 13L11 12L10 12L10 13L9 13L9 14L10 14L10 15L9 15L9 17L8 17L8 16L7 16L7 15L6 15L6 16L7 16L7 17L6 17L6 18L9 18L9 20L10 20L10 19L11 19L11 22L9 22L9 21L8 21L8 22L7 22L7 21L6 21L6 22L7 22L7 23L6 23L6 24L7 24L7 25L6 25L6 26L7 26L7 27L6 27L6 28L5 28L5 29L4 29L4 30L3 30L3 31L5 31L5 32L9 32L9 31L10 31L10 30L9 30L9 29L10 29L10 27L11 27L11 26L10 26L10 27L9 27L9 26L8 26L8 22L9 22L9 24L10 24L10 23L11 23L11 24L12 24L12 26L14 26L14 25L15 25L15 23L16 23L16 21L13 21L13 20L16 20L16 19L17 19L17 20L18 20L18 19L24 19L24 21L22 21L22 20L21 20L21 22L20 22L20 21L17 21L17 22L20 22L20 23L19 23L19 26L17 26L17 25L18 25L18 24L16 24L16 27L12 27L12 29L13 29L13 30L14 30L14 31L15 31L15 30L14 30L14 29L16 29L16 27L17 27L17 28L18 28L18 27L19 27L19 26L20 26L20 28L19 28L19 30L20 30L20 31L21 31L21 30L24 30L24 31L23 31L23 32L26 32L26 34L28 34L28 33L29 33L29 32L30 32L30 33L31 33L31 30L32 30L32 31L33 31L33 32L36 32L36 29L35 29L35 27L37 27L37 26L36 26L36 25L39 25L39 26L40 26L40 24L39 24L39 23L38 23L38 22L37 22L37 24L36 24L36 23L35 23L35 22L36 22L36 21L35 21L35 19L34 19L34 18L33 18L33 17L32 17L32 18L31 18L31 19L30 19L30 17L29 17L29 16L30 16L30 15L29 15L29 14L30 14L30 13L29 13L29 12L30 12L30 11L32 11L32 12L33 12L33 13L34 13L34 12L33 12L33 11L34 11L34 9L32 9L32 8L31 8L31 9L25 9L25 10L24 10L24 11L26 11L26 12L28 12L28 13L29 13L29 14L26 14L26 13L25 13L25 12L23 12L23 13L21 13L21 15L20 15L20 14L18 14L18 16L20 16L20 17L17 17L17 14L15 14L15 15L14 15L14 16L12 16L12 15L13 15L13 12L16 12L16 13L18 13L18 12L17 12L17 10L18 10L18 11L19 11L19 13L20 13L20 12L22 12L22 11L23 11L23 10L22 10L22 9L19 9L19 10L18 10L18 8L20 8L20 5L21 5L21 8L23 8L23 9L24 9L24 8L23 8L23 7L24 7L24 6L23 6L23 5L24 5L24 4L22 4L22 2L23 2L23 3L24 3L24 2L23 2L23 1ZM28 5L28 6L27 6L27 7L28 7L28 8L30 8L30 5ZM9 6L9 9L10 9L10 6ZM12 6L12 7L13 7L13 6ZM18 6L18 7L19 7L19 6ZM22 6L22 7L23 7L23 6ZM28 6L28 7L29 7L29 6ZM2 8L2 9L3 9L3 10L4 10L4 12L5 12L5 13L7 13L7 12L5 12L5 10L4 10L4 9L5 9L5 8ZM6 8L6 9L7 9L7 8ZM16 9L16 10L17 10L17 9ZM31 9L31 10L32 10L32 9ZM35 9L35 10L36 10L36 9ZM0 10L0 13L2 13L2 14L3 14L3 12L1 12L1 10ZM19 10L19 11L22 11L22 10ZM27 10L27 11L28 11L28 12L29 12L29 11L30 11L30 10L29 10L29 11L28 11L28 10ZM24 13L24 15L23 15L23 14L22 14L22 15L21 15L21 17L20 17L20 18L24 18L24 19L25 19L25 18L26 18L26 20L25 20L25 21L24 21L24 22L25 22L25 23L23 23L23 22L21 22L21 23L20 23L20 24L22 24L22 26L23 26L23 25L24 25L24 26L25 26L25 27L26 27L26 28L23 28L23 27L22 27L22 28L23 28L23 29L26 29L26 30L25 30L25 31L26 31L26 30L27 30L27 33L28 33L28 31L29 31L29 30L28 30L28 29L30 29L30 30L31 30L31 29L30 29L30 28L29 28L29 27L28 27L28 26L27 26L27 24L28 24L28 25L29 25L29 26L32 26L32 27L31 27L31 28L33 28L33 29L32 29L32 30L33 30L33 29L34 29L34 28L33 28L33 27L34 27L34 26L35 26L35 25L36 25L36 24L35 24L35 23L34 23L34 22L35 22L35 21L34 21L34 20L33 20L33 21L31 21L31 20L32 20L32 19L31 19L31 20L30 20L30 21L31 21L31 22L32 22L32 25L30 25L30 24L31 24L31 23L30 23L30 24L28 24L28 23L29 23L29 22L27 22L27 21L29 21L29 20L27 20L27 19L28 19L28 18L27 18L27 16L26 16L26 17L25 17L25 16L24 16L24 15L26 15L26 14L25 14L25 13ZM11 14L11 15L12 15L12 14ZM1 15L1 16L0 16L0 19L1 19L1 18L2 18L2 19L3 19L3 18L2 18L2 17L3 17L3 16L2 16L2 15ZM22 15L22 16L23 16L23 17L24 17L24 16L23 16L23 15ZM28 15L28 16L29 16L29 15ZM14 16L14 17L11 17L11 18L12 18L12 19L14 19L14 18L15 18L15 17L16 17L16 18L17 18L17 19L18 19L18 18L17 18L17 17L16 17L16 16ZM36 16L36 17L37 17L37 16ZM9 17L9 18L10 18L10 17ZM40 20L40 21L41 21L41 20ZM25 21L25 22L26 22L26 21ZM33 21L33 22L34 22L34 21ZM11 22L11 23L13 23L13 22ZM24 24L24 25L25 25L25 26L26 26L26 24ZM34 24L34 25L32 25L32 26L34 26L34 25L35 25L35 24ZM20 25L20 26L21 26L21 25ZM8 27L8 29L9 29L9 27ZM27 27L27 28L28 28L28 27ZM6 28L6 29L5 29L5 31L9 31L9 30L6 30L6 29L7 29L7 28ZM13 28L13 29L14 29L14 28ZM17 29L17 30L18 30L18 29ZM20 29L20 30L21 30L21 29ZM34 30L34 31L35 31L35 30ZM38 30L38 31L37 31L37 32L40 32L40 31L39 31L39 30ZM16 31L16 33L15 33L15 32L14 32L14 33L15 33L15 34L14 34L14 35L15 35L15 36L16 36L16 38L17 38L17 37L18 37L18 38L19 38L19 39L20 39L20 38L19 38L19 37L23 37L23 38L24 38L24 40L25 40L25 37L24 37L24 36L27 36L27 35L25 35L25 34L23 34L23 33L19 33L19 32L17 32L17 31ZM33 33L33 36L36 36L36 33ZM37 33L37 34L38 34L38 33ZM15 34L15 35L16 35L16 36L17 36L17 35L18 35L18 37L19 37L19 36L20 36L20 34L19 34L19 35L18 35L18 34L17 34L17 35L16 35L16 34ZM21 34L21 35L22 35L22 34ZM30 34L30 35L31 35L31 34ZM34 34L34 35L35 35L35 34ZM23 35L23 36L24 36L24 35ZM28 35L28 36L29 36L29 35ZM34 37L34 38L36 38L36 37ZM37 38L37 39L38 39L38 38ZM11 39L11 40L12 40L12 39ZM0 0L0 7L7 7L7 0ZM1 1L1 6L6 6L6 1ZM2 2L2 5L5 5L5 2ZM34 0L34 7L41 7L41 0ZM35 1L35 6L40 6L40 1ZM36 2L36 5L39 5L39 2ZM0 34L0 41L7 41L7 34ZM1 35L1 40L6 40L6 35ZM2 36L2 39L5 39L5 36Z" fill="#000000"/></g></g></svg>
