<?xml version="1.0" encoding="UTF-8"?>
<svg xmlns="http://www.w3.org/2000/svg" version="1.1" width="200" height="200" viewBox="0 0 200 200"><rect x="0" y="0" width="200" height="200" fill="#ffffff"/><g transform="scale(4.878)"><g transform="translate(0,0)"><path fill-rule="evenodd" d="M8 0L8 3L13 3L13 6L12 6L12 7L13 7L13 6L14 6L14 8L15 8L15 6L16 6L16 7L17 7L17 8L16 8L16 9L13 9L13 8L12 8L12 9L13 9L13 10L16 10L16 11L14 11L14 12L13 12L13 11L12 11L12 10L11 10L11 11L10 11L10 13L9 13L9 14L8 14L8 13L7 13L7 12L5 12L5 11L7 11L7 10L6 10L6 9L7 9L7 8L6 8L6 9L5 9L5 8L2 8L2 9L0 9L0 14L2 14L2 13L3 13L3 15L2 15L2 18L1 18L1 19L2 19L2 18L4 18L4 17L5 17L5 18L6 18L6 19L5 19L5 22L4 22L4 20L2 20L2 21L1 21L1 20L0 20L0 21L1 21L1 23L2 23L2 22L4 22L4 23L3 23L3 24L1 24L1 25L0 25L0 26L1 26L1 25L2 25L2 26L4 26L4 28L1 28L1 27L0 27L0 33L1 33L1 29L4 29L4 30L3 30L3 31L2 31L2 33L3 33L3 31L4 31L4 33L8 33L8 34L10 34L10 36L8 36L8 39L10 39L10 40L9 40L9 41L10 41L10 40L11 40L11 38L10 38L10 36L11 36L11 37L12 37L12 35L14 35L14 38L12 38L12 39L13 39L13 40L14 40L14 41L15 41L15 40L14 40L14 39L15 39L15 38L16 38L16 37L17 37L17 38L18 38L18 37L17 37L17 36L19 36L19 39L16 39L16 40L17 40L17 41L18 41L18 40L20 40L20 41L22 41L22 40L20 40L20 39L22 39L22 38L20 38L20 34L23 34L23 35L24 35L24 36L23 36L23 41L25 41L25 40L24 40L24 39L26 39L26 40L28 40L28 41L32 41L32 40L33 40L33 41L34 41L34 40L33 40L33 39L35 39L35 40L36 40L36 39L37 39L37 40L40 40L40 38L41 38L41 37L40 37L40 36L37 36L37 35L40 35L40 34L41 34L41 33L40 33L40 32L38 32L38 31L40 31L40 30L41 30L41 29L40 29L40 28L41 28L41 27L40 27L40 26L41 26L41 23L39 23L39 22L38 22L38 23L39 23L39 24L40 24L40 26L39 26L39 25L36 25L36 24L37 24L37 20L38 20L38 21L39 21L39 20L38 20L38 19L40 19L40 18L41 18L41 16L40 16L40 18L38 18L38 19L37 19L37 20L36 20L36 19L35 19L35 17L36 17L36 18L37 18L37 17L39 17L39 16L37 16L37 15L38 15L38 14L41 14L41 13L40 13L40 10L41 10L41 8L38 8L38 9L40 9L40 10L37 10L37 9L36 9L36 8L33 8L33 5L32 5L32 4L33 4L33 3L32 3L32 4L30 4L30 5L32 5L32 8L33 8L33 9L30 9L30 8L29 8L29 4L28 4L28 5L27 5L27 4L26 4L26 5L25 5L25 2L24 2L24 0L23 0L23 1L21 1L21 0L19 0L19 1L20 1L20 2L18 2L18 0L16 0L16 1L14 1L14 0L13 0L13 1L11 1L11 2L10 2L10 1L9 1L9 0ZM26 0L26 1L27 1L27 2L26 2L26 3L31 3L31 2L30 2L30 1L33 1L33 0L29 0L29 1L27 1L27 0ZM13 1L13 3L14 3L14 6L15 6L15 5L16 5L16 4L15 4L15 3L17 3L17 4L18 4L18 5L17 5L17 7L18 7L18 8L17 8L17 9L18 9L18 8L19 8L19 9L20 9L20 10L21 10L21 11L20 11L20 12L19 12L19 10L17 10L17 11L18 11L18 12L17 12L17 13L16 13L16 15L15 15L15 17L11 17L11 18L10 18L10 14L9 14L9 16L8 16L8 17L6 17L6 16L7 16L7 15L8 15L8 14L7 14L7 13L5 13L5 14L4 14L4 15L5 15L5 17L6 17L6 18L7 18L7 19L6 19L6 20L7 20L7 21L6 21L6 22L7 22L7 23L5 23L5 26L7 26L7 27L6 27L6 28L7 28L7 29L5 29L5 28L4 28L4 29L5 29L5 30L4 30L4 31L5 31L5 32L9 32L9 33L10 33L10 34L11 34L11 35L12 35L12 34L11 34L11 32L13 32L13 33L15 33L15 37L16 37L16 36L17 36L17 35L19 35L19 34L20 34L20 33L19 33L19 32L21 32L21 30L20 30L20 28L21 28L21 27L20 27L20 26L21 26L21 25L22 25L22 28L23 28L23 29L22 29L22 30L23 30L23 32L22 32L22 33L23 33L23 34L24 34L24 35L25 35L25 36L24 36L24 38L25 38L25 36L26 36L26 35L27 35L27 34L29 34L29 33L26 33L26 35L25 35L25 33L24 33L24 32L25 32L25 31L26 31L26 32L27 32L27 30L26 30L26 29L24 29L24 28L27 28L27 26L28 26L28 28L31 28L31 29L28 29L28 30L32 30L32 31L33 31L33 32L35 32L35 31L37 31L37 30L39 30L39 26L38 26L38 28L36 28L36 29L35 29L35 27L36 27L36 25L35 25L35 24L36 24L36 23L35 23L35 22L36 22L36 21L35 21L35 19L34 19L34 18L33 18L33 17L32 17L32 16L34 16L34 17L35 17L35 16L36 16L36 17L37 17L37 16L36 16L36 15L37 15L37 14L38 14L38 13L39 13L39 11L38 11L38 12L35 12L35 13L34 13L34 12L33 12L33 13L32 13L32 11L34 11L34 10L31 10L31 11L30 11L30 9L27 9L27 8L28 8L28 6L27 6L27 5L26 5L26 6L25 6L25 5L24 5L24 3L23 3L23 4L22 4L22 6L21 6L21 7L20 7L20 5L19 5L19 4L21 4L21 2L20 2L20 3L17 3L17 1L16 1L16 2L14 2L14 1ZM10 4L10 7L9 7L9 5L8 5L8 9L9 9L9 8L11 8L11 5L12 5L12 4ZM18 6L18 7L19 7L19 8L20 8L20 7L19 7L19 6ZM22 6L22 7L21 7L21 9L22 9L22 8L24 8L24 7L25 7L25 8L26 8L26 7L27 7L27 6L26 6L26 7L25 7L25 6L24 6L24 7L23 7L23 6ZM30 6L30 7L31 7L31 6ZM3 9L3 12L4 12L4 10L5 10L5 9ZM23 9L23 10L22 10L22 11L21 11L21 15L22 15L22 14L25 14L25 13L26 13L26 14L29 14L29 15L28 15L28 16L29 16L29 17L31 17L31 18L30 18L30 19L31 19L31 18L32 18L32 19L33 19L33 18L32 18L32 17L31 17L31 16L29 16L29 15L31 15L31 12L29 12L29 11L28 11L28 10L27 10L27 12L23 12L23 11L24 11L24 9ZM8 10L8 12L9 12L9 10ZM25 10L25 11L26 11L26 10ZM36 10L36 11L37 11L37 10ZM1 11L1 13L2 13L2 11ZM18 12L18 13L17 13L17 14L18 14L18 15L19 15L19 17L20 17L20 18L17 18L17 19L20 19L20 20L18 20L18 22L17 22L17 21L16 21L16 20L15 20L15 19L12 19L12 18L11 18L11 20L12 20L12 22L11 22L11 21L10 21L10 20L8 20L8 19L9 19L9 18L8 18L8 19L7 19L7 20L8 20L8 21L7 21L7 22L8 22L8 24L10 24L10 25L11 25L11 24L10 24L10 23L13 23L13 25L14 25L14 26L13 26L13 27L12 27L12 28L11 28L11 27L10 27L10 28L8 28L8 29L10 29L10 28L11 28L11 29L12 29L12 28L13 28L13 29L15 29L15 30L14 30L14 31L13 31L13 30L12 30L12 31L13 31L13 32L15 32L15 33L16 33L16 34L17 34L17 32L19 32L19 31L18 31L18 30L16 30L16 29L19 29L19 28L20 28L20 27L19 27L19 25L20 25L20 24L22 24L22 25L23 25L23 27L24 27L24 25L25 25L25 24L26 24L26 25L29 25L29 26L33 26L33 27L32 27L32 28L33 28L33 29L32 29L32 30L33 30L33 29L34 29L34 28L33 28L33 27L34 27L34 26L35 26L35 25L34 25L34 24L35 24L35 23L34 23L34 22L35 22L35 21L34 21L34 20L32 20L32 21L31 21L31 20L30 20L30 21L31 21L31 22L32 22L32 23L30 23L30 22L29 22L29 23L28 23L28 22L26 22L26 21L27 21L27 20L28 20L28 21L29 21L29 20L28 20L28 18L27 18L27 15L23 15L23 16L20 16L20 15L19 15L19 12ZM28 12L28 13L29 13L29 14L30 14L30 13L29 13L29 12ZM11 13L11 14L15 14L15 13ZM33 13L33 14L32 14L32 15L34 15L34 13ZM36 13L36 14L37 14L37 13ZM6 14L6 15L7 15L7 14ZM12 15L12 16L14 16L14 15ZM23 16L23 17L21 17L21 18L20 18L20 19L21 19L21 20L22 20L22 21L19 21L19 24L20 24L20 22L22 22L22 21L23 21L23 20L22 20L22 19L21 19L21 18L23 18L23 19L24 19L24 21L25 21L25 20L26 20L26 19L27 19L27 18L25 18L25 19L24 19L24 18L23 18L23 17L25 17L25 16ZM15 17L15 18L16 18L16 17ZM14 20L14 21L13 21L13 23L14 23L14 25L15 25L15 23L17 23L17 24L18 24L18 23L17 23L17 22L14 22L14 21L15 21L15 20ZM40 20L40 21L41 21L41 20ZM32 21L32 22L34 22L34 21ZM25 22L25 23L23 23L23 24L25 24L25 23L26 23L26 24L28 24L28 23L26 23L26 22ZM29 23L29 24L30 24L30 25L33 25L33 26L34 26L34 25L33 25L33 23L32 23L32 24L30 24L30 23ZM3 24L3 25L4 25L4 24ZM6 24L6 25L7 25L7 24ZM16 25L16 28L15 28L15 29L16 29L16 28L17 28L17 26L18 26L18 25ZM8 26L8 27L9 27L9 26ZM14 26L14 27L13 27L13 28L14 28L14 27L15 27L15 26ZM36 29L36 30L37 30L37 29ZM6 30L6 31L9 31L9 30ZM15 30L15 31L16 31L16 32L17 32L17 31L16 31L16 30ZM24 30L24 31L25 31L25 30ZM34 30L34 31L35 31L35 30ZM28 31L28 32L30 32L30 33L31 33L31 34L30 34L30 35L31 35L31 34L32 34L32 33L31 33L31 31ZM37 32L37 34L39 34L39 33L38 33L38 32ZM18 33L18 34L19 34L19 33ZM33 33L33 36L36 36L36 33ZM34 34L34 35L35 35L35 34ZM21 35L21 36L22 36L22 35ZM29 36L29 37L27 37L27 38L29 38L29 39L28 39L28 40L30 40L30 39L31 39L31 40L32 40L32 39L33 39L33 38L36 38L36 37L33 37L33 38L30 38L30 37L32 37L32 36ZM37 38L37 39L38 39L38 38ZM0 0L0 7L7 7L7 0ZM1 1L1 6L6 6L6 1ZM2 2L2 5L5 5L5 2ZM34 0L34 7L41 7L41 0ZM35 1L35 6L40 6L40 1ZM36 2L36 5L39 5L39 2ZM0 34L0 41L7 41L7 34ZM1 35L1 40L6 40L6 35ZM2 36L2 39L5 39L5 36Z" fill="#000000"/></g></g></svg>
