<?xml version="1.0" encoding="UTF-8"?>
<svg xmlns="http://www.w3.org/2000/svg" version="1.1" width="200" height="200" viewBox="0 0 200 200"><rect x="0" y="0" width="200" height="200" fill="#ffffff"/><g transform="scale(6.897)"><g transform="translate(0,0)"><path fill-rule="evenodd" d="M8 0L8 3L10 3L10 4L9 4L9 5L8 5L8 9L7 9L7 8L6 8L6 9L5 9L5 8L2 8L2 10L3 10L3 11L5 11L5 10L6 10L6 11L7 11L7 12L4 12L4 19L3 19L3 18L2 18L2 21L3 21L3 20L4 20L4 19L5 19L5 21L7 21L7 20L6 20L6 19L8 19L8 18L9 18L9 19L10 19L10 21L8 21L8 22L10 22L10 21L11 21L11 22L12 22L12 18L9 18L9 17L10 17L10 15L9 15L9 14L8 14L8 13L10 13L10 14L13 14L13 16L12 16L12 15L11 15L11 17L13 17L13 18L14 18L14 19L13 19L13 23L11 23L11 25L12 25L12 24L14 24L14 23L15 23L15 28L14 28L14 25L13 25L13 26L12 26L12 28L11 28L11 26L10 26L10 25L9 25L9 24L8 24L8 27L9 27L9 29L10 29L10 28L11 28L11 29L12 29L12 28L13 28L13 29L15 29L15 28L17 28L17 29L18 29L18 27L20 27L20 26L21 26L21 27L22 27L22 28L19 28L19 29L25 29L25 27L23 27L23 26L22 26L22 25L24 25L24 26L25 26L25 25L26 25L26 24L25 24L25 22L26 22L26 23L27 23L27 28L26 28L26 29L28 29L28 28L29 28L29 27L28 27L28 25L29 25L29 24L28 24L28 23L27 23L27 22L28 22L28 21L29 21L29 20L28 20L28 19L27 19L27 17L28 17L28 15L29 15L29 14L28 14L28 10L29 10L29 8L26 8L26 9L27 9L27 10L25 10L25 12L24 12L24 11L22 11L22 12L23 12L23 13L21 13L21 15L22 15L22 14L23 14L23 13L24 13L24 19L25 19L25 20L23 20L23 19L22 19L22 18L20 18L20 19L21 19L21 20L20 20L20 25L19 25L19 24L18 24L18 25L17 25L17 27L16 27L16 24L17 24L17 23L16 23L16 22L18 22L18 23L19 23L19 22L18 22L18 21L19 21L19 20L18 20L18 19L17 19L17 20L16 20L16 19L15 19L15 18L16 18L16 17L13 17L13 16L17 16L17 18L18 18L18 17L19 17L19 15L18 15L18 16L17 16L17 14L18 14L18 13L20 13L20 12L21 12L21 11L20 11L20 10L22 10L22 9L23 9L23 10L24 10L24 8L21 8L21 5L20 5L20 4L21 4L21 3L20 3L20 4L19 4L19 3L18 3L18 4L17 4L17 0L14 0L14 1L15 1L15 2L14 2L14 3L15 3L15 4L17 4L17 6L16 6L16 8L10 8L10 7L11 7L11 5L10 5L10 4L11 4L11 1L9 1L9 0ZM18 1L18 2L19 2L19 1ZM20 1L20 2L21 2L21 1ZM12 2L12 7L13 7L13 5L14 5L14 7L15 7L15 5L14 5L14 4L13 4L13 2ZM9 5L9 7L10 7L10 5ZM18 5L18 6L17 6L17 7L18 7L18 6L19 6L19 7L20 7L20 6L19 6L19 5ZM9 8L9 9L8 9L8 10L7 10L7 9L6 9L6 10L7 10L7 11L9 11L9 12L10 12L10 13L11 13L11 10L13 10L13 9L11 9L11 10L10 10L10 8ZM16 8L16 9L15 9L15 11L13 11L13 12L12 12L12 13L13 13L13 14L17 14L17 12L18 12L18 9L19 9L19 10L20 10L20 9L21 9L21 8ZM0 9L0 10L1 10L1 9ZM3 9L3 10L5 10L5 9ZM16 9L16 12L15 12L15 13L16 13L16 12L17 12L17 9ZM0 12L0 14L1 14L1 13L2 13L2 15L0 15L0 16L1 16L1 17L0 17L0 21L1 21L1 17L2 17L2 16L3 16L3 12ZM7 12L7 13L6 13L6 14L5 14L5 15L6 15L6 16L5 16L5 17L6 17L6 18L8 18L8 17L9 17L9 15L6 15L6 14L7 14L7 13L8 13L8 12ZM25 12L25 13L26 13L26 14L27 14L27 15L25 15L25 16L27 16L27 15L28 15L28 14L27 14L27 12ZM6 16L6 17L7 17L7 16ZM20 16L20 17L22 17L22 16ZM14 19L14 21L16 21L16 20L15 20L15 19ZM26 19L26 20L25 20L25 21L26 21L26 22L27 22L27 21L28 21L28 20L27 20L27 19ZM17 20L17 21L18 21L18 20ZM21 21L21 24L24 24L24 21ZM22 22L22 23L23 23L23 22ZM0 0L0 7L7 7L7 0ZM1 1L1 6L6 6L6 1ZM2 2L2 5L5 5L5 2ZM22 0L22 7L29 7L29 0ZM23 1L23 6L28 6L28 1ZM24 2L24 5L27 5L27 2ZM0 22L0 29L7 29L7 22ZM1 23L1 28L6 28L6 23ZM2 24L2 27L5 27L5 24Z" fill="#000000"/></g></g></svg>
