<?xml version="1.0" encoding="UTF-8"?>
<svg xmlns="http://www.w3.org/2000/svg" version="1.1" width="200" height="200" viewBox="0 0 200 200"><rect x="0" y="0" width="200" height="200" fill="#ffffff"/><g transform="scale(4.878)"><g transform="translate(0,0)"><path fill-rule="evenodd" d="M8 0L8 3L9 3L9 4L10 4L10 7L9 7L9 5L8 5L8 9L9 9L9 8L10 8L10 7L11 7L11 10L9 10L9 12L6 12L6 13L5 13L5 11L7 11L7 10L4 10L4 11L3 11L3 9L5 9L5 8L2 8L2 11L0 11L0 13L1 13L1 14L0 14L0 15L1 15L1 16L0 16L0 18L1 18L1 21L0 21L0 23L1 23L1 24L2 24L2 25L3 25L3 24L4 24L4 26L5 26L5 27L7 27L7 28L6 28L6 29L5 29L5 30L6 30L6 31L3 31L3 32L2 32L2 33L8 33L8 34L10 34L10 33L11 33L11 35L9 35L9 36L8 36L8 39L9 39L9 40L12 40L12 41L13 41L13 40L12 40L12 39L13 39L13 38L10 38L10 37L9 37L9 36L11 36L11 37L12 37L12 34L13 34L13 32L15 32L15 31L16 31L16 32L17 32L17 33L15 33L15 34L14 34L14 35L15 35L15 37L16 37L16 36L17 36L17 38L16 38L16 39L17 39L17 40L14 40L14 41L19 41L19 40L20 40L20 41L21 41L21 40L20 40L20 37L21 37L21 36L24 36L24 32L23 32L23 31L22 31L22 30L21 30L21 33L20 33L20 28L22 28L22 29L24 29L24 28L25 28L25 27L27 27L27 28L26 28L26 30L24 30L24 31L25 31L25 34L26 34L26 36L25 36L25 37L22 37L22 38L21 38L21 39L23 39L23 38L25 38L25 37L28 37L28 38L26 38L26 39L25 39L25 40L28 40L28 38L29 38L29 37L28 37L28 36L27 36L27 35L29 35L29 34L27 34L27 33L26 33L26 32L27 32L27 30L29 30L29 29L33 29L33 30L32 30L32 31L33 31L33 30L34 30L34 31L35 31L35 30L36 30L36 31L37 31L37 30L38 30L38 31L40 31L40 32L32 32L32 34L31 34L31 33L30 33L30 32L29 32L29 31L28 31L28 33L30 33L30 35L31 35L31 36L30 36L30 37L31 37L31 39L30 39L30 40L29 40L29 41L30 41L30 40L31 40L31 41L32 41L32 40L33 40L33 41L34 41L34 40L33 40L33 39L32 39L32 37L33 37L33 38L34 38L34 39L35 39L35 40L36 40L36 39L39 39L39 40L40 40L40 38L41 38L41 37L39 37L39 36L41 36L41 35L40 35L40 34L41 34L41 33L40 33L40 32L41 32L41 31L40 31L40 30L41 30L41 29L40 29L40 28L41 28L41 27L40 27L40 26L41 26L41 23L40 23L40 26L39 26L39 24L37 24L37 25L34 25L34 24L33 24L33 23L35 23L35 24L36 24L36 23L35 23L35 22L36 22L36 21L39 21L39 20L36 20L36 19L35 19L35 17L36 17L36 18L37 18L37 19L38 19L38 18L37 18L37 17L39 17L39 18L41 18L41 16L40 16L40 17L39 17L39 16L37 16L37 15L38 15L38 13L36 13L36 14L35 14L35 15L36 15L36 16L35 16L35 17L34 17L34 16L33 16L33 15L34 15L34 14L33 14L33 13L34 13L34 12L33 12L33 11L34 11L34 10L35 10L35 9L36 9L36 10L37 10L37 11L35 11L35 12L38 12L38 11L39 11L39 12L41 12L41 11L40 11L40 10L41 10L41 8L38 8L38 9L40 9L40 10L37 10L37 9L36 9L36 8L33 8L33 6L32 6L32 9L31 9L31 6L30 6L30 8L28 8L28 7L29 7L29 4L28 4L28 5L27 5L27 6L26 6L26 4L27 4L27 3L29 3L29 1L27 1L27 0L23 0L23 2L22 2L22 1L21 1L21 0L20 0L20 2L22 2L22 3L20 3L20 7L19 7L19 6L18 6L18 7L17 7L17 5L19 5L19 4L17 4L17 5L16 5L16 3L19 3L19 1L18 1L18 2L16 2L16 3L15 3L15 5L16 5L16 8L18 8L18 7L19 7L19 8L21 8L21 5L22 5L22 8L23 8L23 9L24 9L24 12L23 12L23 10L22 10L22 11L20 11L20 9L19 9L19 10L18 10L18 11L20 11L20 12L21 12L21 13L18 13L18 12L17 12L17 11L15 11L15 15L14 15L14 13L13 13L13 12L12 12L12 11L13 11L13 10L15 10L15 9L14 9L14 7L15 7L15 6L14 6L14 7L13 7L13 6L12 6L12 7L11 7L11 5L12 5L12 3L13 3L13 0L12 0L12 1L11 1L11 0L10 0L10 2L9 2L9 0ZM16 0L16 1L17 1L17 0ZM30 0L30 2L31 2L31 3L30 3L30 4L31 4L31 5L32 5L32 4L33 4L33 3L32 3L32 2L31 2L31 1L33 1L33 0ZM14 1L14 2L15 2L15 1ZM10 2L10 3L11 3L11 2ZM23 2L23 3L22 3L22 5L23 5L23 8L25 8L25 7L26 7L26 6L25 6L25 4L26 4L26 3L27 3L27 2L26 2L26 3L25 3L25 2ZM23 3L23 5L24 5L24 4L25 4L25 3ZM31 3L31 4L32 4L32 3ZM24 6L24 7L25 7L25 6ZM27 6L27 7L28 7L28 6ZM12 7L12 10L13 10L13 7ZM6 8L6 9L7 9L7 8ZM26 8L26 10L25 10L25 12L26 12L26 13L25 13L25 14L26 14L26 13L27 13L27 12L28 12L28 11L29 11L29 12L31 12L31 14L32 14L32 15L33 15L33 14L32 14L32 13L33 13L33 12L32 12L32 10L34 10L34 9L32 9L32 10L31 10L31 9L27 9L27 8ZM16 9L16 10L17 10L17 9ZM26 10L26 11L28 11L28 10ZM29 10L29 11L30 11L30 10ZM10 11L10 12L9 12L9 13L6 13L6 14L7 14L7 15L5 15L5 16L4 16L4 15L3 15L3 14L5 14L5 13L4 13L4 12L1 12L1 13L2 13L2 14L1 14L1 15L2 15L2 16L4 16L4 18L3 18L3 17L2 17L2 19L3 19L3 21L2 21L2 22L1 22L1 23L2 23L2 22L4 22L4 24L5 24L5 23L6 23L6 24L7 24L7 23L6 23L6 22L8 22L8 21L6 21L6 20L9 20L9 19L10 19L10 18L7 18L7 17L5 17L5 16L7 16L7 15L8 15L8 16L11 16L11 19L12 19L12 16L13 16L13 20L14 20L14 21L13 21L13 23L12 23L12 22L11 22L11 25L10 25L10 26L9 26L9 27L8 27L8 30L7 30L7 29L6 29L6 30L7 30L7 31L6 31L6 32L7 32L7 31L9 31L9 32L11 32L11 33L12 33L12 32L13 32L13 31L15 31L15 30L14 30L14 29L12 29L12 28L14 28L14 27L16 27L16 28L15 28L15 29L16 29L16 31L17 31L17 32L18 32L18 35L17 35L17 36L19 36L19 35L20 35L20 34L19 34L19 31L17 31L17 30L19 30L19 29L18 29L18 27L17 27L17 25L20 25L20 24L21 24L21 26L19 26L19 27L22 27L22 26L24 26L24 27L23 27L23 28L24 28L24 27L25 27L25 26L26 26L26 25L25 25L25 23L26 23L26 24L28 24L28 25L27 25L27 26L28 26L28 25L29 25L29 24L30 24L30 23L31 23L31 25L30 25L30 26L29 26L29 27L28 27L28 29L29 29L29 28L33 28L33 29L34 29L34 30L35 30L35 29L38 29L38 30L39 30L39 26L38 26L38 28L37 28L37 27L36 27L36 26L35 26L35 29L34 29L34 28L33 28L33 27L34 27L34 25L32 25L32 22L30 22L30 21L33 21L33 22L34 22L34 21L36 21L36 20L35 20L35 19L34 19L34 18L33 18L33 19L32 19L32 18L31 18L31 17L30 17L30 19L31 19L31 20L29 20L29 21L26 21L26 20L25 20L25 21L24 21L24 19L23 19L23 18L22 18L22 20L23 20L23 21L22 21L22 23L21 23L21 18L20 18L20 17L23 17L23 16L22 16L22 15L20 15L20 14L19 14L19 15L17 15L17 16L18 16L18 18L20 18L20 20L19 20L19 19L17 19L17 18L16 18L16 17L15 17L15 18L16 18L16 19L14 19L14 16L13 16L13 15L12 15L12 14L11 14L11 11ZM22 12L22 13L23 13L23 12ZM16 13L16 14L17 14L17 13ZM28 13L28 14L30 14L30 13ZM39 13L39 14L41 14L41 13ZM9 14L9 15L11 15L11 14ZM36 14L36 15L37 15L37 14ZM15 15L15 16L16 16L16 15ZM19 15L19 16L20 16L20 15ZM24 15L24 16L25 16L25 19L27 19L27 20L28 20L28 19L29 19L29 16L30 16L30 15L28 15L28 17L26 17L26 16L27 16L27 15ZM32 16L32 17L33 17L33 16ZM36 16L36 17L37 17L37 16ZM5 18L5 20L4 20L4 21L5 21L5 20L6 20L6 19L7 19L7 18ZM27 18L27 19L28 19L28 18ZM18 20L18 21L16 21L16 22L17 22L17 23L15 23L15 24L14 24L14 23L13 23L13 25L11 25L11 26L10 26L10 28L12 28L12 27L14 27L14 25L15 25L15 26L16 26L16 25L17 25L17 24L18 24L18 22L19 22L19 23L20 23L20 21L19 21L19 20ZM33 20L33 21L34 21L34 20ZM40 20L40 21L41 21L41 20ZM23 21L23 22L24 22L24 23L25 23L25 22L24 22L24 21ZM9 22L9 24L8 24L8 25L9 25L9 24L10 24L10 22ZM27 22L27 23L28 23L28 24L29 24L29 23L30 23L30 22L29 22L29 23L28 23L28 22ZM38 22L38 23L39 23L39 22ZM23 24L23 25L24 25L24 24ZM5 25L5 26L7 26L7 25ZM31 25L31 26L32 26L32 25ZM1 26L1 27L0 27L0 33L1 33L1 30L4 30L4 28L3 28L3 26ZM11 26L11 27L12 27L12 26ZM16 28L16 29L17 29L17 28ZM10 29L10 30L9 30L9 31L10 31L10 30L12 30L12 29ZM30 30L30 31L31 31L31 30ZM22 33L22 34L21 34L21 35L23 35L23 33ZM33 33L33 36L36 36L36 33ZM37 33L37 36L39 36L39 33ZM15 34L15 35L16 35L16 34ZM34 34L34 35L35 35L35 34ZM31 36L31 37L32 37L32 36ZM34 37L34 38L36 38L36 37ZM37 37L37 38L39 38L39 37ZM9 38L9 39L10 39L10 38ZM14 38L14 39L15 39L15 38ZM18 39L18 40L19 40L19 39ZM31 39L31 40L32 40L32 39ZM0 0L0 7L7 7L7 0ZM1 1L1 6L6 6L6 1ZM2 2L2 5L5 5L5 2ZM34 0L34 7L41 7L41 0ZM35 1L35 6L40 6L40 1ZM36 2L36 5L39 5L39 2ZM0 34L0 41L7 41L7 34ZM1 35L1 40L6 40L6 35ZM2 36L2 39L5 39L5 36Z" fill="#000000"/></g></g></svg>
