<?xml version="1.0" encoding="UTF-8"?>
<svg xmlns="http://www.w3.org/2000/svg" version="1.1" width="200" height="200" viewBox="0 0 200 200"><rect x="0" y="0" width="200" height="200" fill="#ffffff"/><g transform="scale(4.878)"><g transform="translate(0,0)"><path fill-rule="evenodd" d="M8 0L8 3L10 3L10 2L13 2L13 3L14 3L14 2L13 2L13 1L11 1L11 0L10 0L10 1L9 1L9 0ZM16 0L16 1L17 1L17 2L18 2L18 3L15 3L15 4L14 4L14 5L13 5L13 6L12 6L12 5L11 5L11 6L10 6L10 7L11 7L11 8L9 8L9 5L8 5L8 10L6 10L6 9L7 9L7 8L6 8L6 9L5 9L5 8L2 8L2 9L1 9L1 10L2 10L2 11L0 11L0 13L1 13L1 14L0 14L0 18L1 18L1 19L2 19L2 18L5 18L5 19L4 19L4 20L3 20L3 21L4 21L4 22L5 22L5 21L7 21L7 22L6 22L6 23L7 23L7 24L6 24L6 25L7 25L7 24L8 24L8 23L7 23L7 22L9 22L9 23L10 23L10 22L14 22L14 21L13 21L13 20L14 20L14 19L13 19L13 18L11 18L11 16L13 16L13 17L15 17L15 18L16 18L16 16L17 16L17 17L19 17L19 18L17 18L17 20L16 20L16 22L15 22L15 24L16 24L16 22L17 22L17 23L18 23L18 24L17 24L17 25L18 25L18 26L17 26L17 27L15 27L15 26L16 26L16 25L15 25L15 26L14 26L14 25L13 25L13 26L14 26L14 27L13 27L13 28L14 28L14 27L15 27L15 28L17 28L17 27L18 27L18 29L19 29L19 27L20 27L20 29L21 29L21 27L20 27L20 26L22 26L22 27L23 27L23 30L22 30L22 31L21 31L21 30L18 30L18 31L17 31L17 35L16 35L16 31L14 31L14 30L16 30L16 29L14 29L14 30L13 30L13 29L12 29L12 28L11 28L11 29L10 29L10 31L11 31L11 33L10 33L10 32L9 32L9 31L7 31L7 30L9 30L9 28L8 28L8 29L7 29L7 28L6 28L6 29L3 29L3 26L1 26L1 24L2 24L2 25L4 25L4 27L5 27L5 23L4 23L4 24L3 24L3 22L2 22L2 20L1 20L1 21L0 21L0 23L1 23L1 24L0 24L0 26L1 26L1 28L2 28L2 29L0 29L0 33L1 33L1 30L3 30L3 31L2 31L2 32L3 32L3 33L4 33L4 32L3 32L3 31L4 31L4 30L6 30L6 31L5 31L5 33L7 33L7 32L9 32L9 33L8 33L8 34L11 34L11 33L12 33L12 32L13 32L13 31L14 31L14 33L15 33L15 34L13 34L13 36L10 36L10 37L11 37L11 38L12 38L12 39L13 39L13 41L15 41L15 40L16 40L16 41L17 41L17 40L18 40L18 39L19 39L19 41L21 41L21 40L20 40L20 38L21 38L21 39L24 39L24 37L25 37L25 36L26 36L26 37L27 37L27 36L28 36L28 37L29 37L29 38L26 38L26 41L27 41L27 40L28 40L28 41L31 41L31 40L33 40L33 41L34 41L34 40L33 40L33 39L32 39L32 38L34 38L34 39L35 39L35 40L36 40L36 39L37 39L37 40L40 40L40 38L41 38L41 37L40 37L40 36L41 36L41 35L40 35L40 34L41 34L41 33L40 33L40 32L41 32L41 31L40 31L40 30L41 30L41 29L39 29L39 30L38 30L38 29L35 29L35 30L34 30L34 31L35 31L35 30L38 30L38 31L39 31L39 32L37 32L37 31L36 31L36 32L33 32L33 31L32 31L32 30L33 30L33 29L34 29L34 28L33 28L33 29L32 29L32 30L31 30L31 32L28 32L28 31L29 31L29 30L28 30L28 29L31 29L31 28L29 28L29 27L28 27L28 26L30 26L30 25L31 25L31 26L32 26L32 25L33 25L33 27L34 27L34 26L37 26L37 27L36 27L36 28L38 28L38 26L39 26L39 27L40 27L40 28L41 28L41 27L40 27L40 26L41 26L41 23L39 23L39 24L40 24L40 26L39 26L39 25L33 25L33 23L32 23L32 25L31 25L31 24L29 24L29 25L28 25L28 23L29 23L29 22L27 22L27 21L29 21L29 20L27 20L27 21L26 21L26 22L25 22L25 23L24 23L24 24L26 24L26 25L23 25L23 22L24 22L24 18L25 18L25 17L22 17L22 18L20 18L20 17L21 17L21 16L22 16L22 15L23 15L23 14L22 14L22 12L23 12L23 13L24 13L24 15L25 15L25 13L27 13L27 14L26 14L26 15L27 15L27 14L29 14L29 13L30 13L30 16L29 16L29 15L28 15L28 16L29 16L29 17L31 17L31 18L30 18L30 19L31 19L31 20L30 20L30 21L31 21L31 22L32 22L32 21L34 21L34 22L35 22L35 23L34 23L34 24L35 24L35 23L36 23L36 24L37 24L37 21L38 21L38 22L39 22L39 20L36 20L36 19L35 19L35 17L36 17L36 18L37 18L37 19L38 19L38 18L37 18L37 17L39 17L39 18L41 18L41 16L40 16L40 17L39 17L39 16L37 16L37 15L38 15L38 13L36 13L36 14L37 14L37 15L35 15L35 17L34 17L34 16L32 16L32 17L31 17L31 12L29 12L29 13L28 13L28 12L25 12L25 13L24 13L24 12L23 12L23 11L21 11L21 12L20 12L20 10L19 10L19 11L17 11L17 13L16 13L16 14L15 14L15 13L14 13L14 12L12 12L12 9L11 9L11 8L12 8L12 7L13 7L13 6L14 6L14 7L15 7L15 10L17 10L17 9L16 9L16 8L17 8L17 6L18 6L18 7L19 7L19 4L18 4L18 3L20 3L20 4L21 4L21 5L20 5L20 7L21 7L21 9L22 9L22 10L24 10L24 11L25 11L25 8L24 8L24 7L25 7L25 5L27 5L27 6L26 6L26 8L27 8L27 9L31 9L31 10L32 10L32 9L34 9L34 11L32 11L32 13L33 13L33 14L32 14L32 15L34 15L34 13L35 13L35 11L36 11L36 12L38 12L38 11L39 11L39 13L40 13L40 14L39 14L39 15L40 15L40 14L41 14L41 13L40 13L40 12L41 12L41 11L40 11L40 10L41 10L41 8L38 8L38 9L40 9L40 10L37 10L37 9L36 9L36 8L33 8L33 6L32 6L32 9L31 9L31 8L29 8L29 5L30 5L30 7L31 7L31 5L32 5L32 4L33 4L33 3L32 3L32 4L28 4L28 5L27 5L27 4L25 4L25 3L24 3L24 4L25 4L25 5L24 5L24 7L23 7L23 6L22 6L22 7L21 7L21 5L22 5L22 4L23 4L23 3L22 3L22 0L19 0L19 1L21 1L21 2L18 2L18 0ZM23 0L23 2L25 2L25 1L24 1L24 0ZM26 0L26 1L27 1L27 2L26 2L26 3L31 3L31 2L30 2L30 0L29 0L29 1L27 1L27 0ZM31 0L31 1L32 1L32 2L33 2L33 1L32 1L32 0ZM15 4L15 5L14 5L14 6L15 6L15 7L16 7L16 5L17 5L17 4ZM11 6L11 7L12 7L12 6ZM27 6L27 8L28 8L28 6ZM22 7L22 8L23 8L23 9L24 9L24 8L23 8L23 7ZM18 8L18 9L19 9L19 8ZM3 9L3 11L4 11L4 9ZM10 9L10 10L8 10L8 11L6 11L6 10L5 10L5 11L6 11L6 12L2 12L2 13L4 13L4 15L6 15L6 16L4 16L4 17L5 17L5 18L7 18L7 19L6 19L6 20L8 20L8 19L9 19L9 18L10 18L10 16L11 16L11 15L14 15L14 14L12 14L12 12L11 12L11 9ZM13 9L13 11L14 11L14 9ZM35 9L35 10L36 10L36 11L37 11L37 10L36 10L36 9ZM27 10L27 11L28 11L28 10ZM9 11L9 12L8 12L8 13L7 13L7 12L6 12L6 13L5 13L5 14L6 14L6 15L7 15L7 16L6 16L6 17L7 17L7 18L9 18L9 17L8 17L8 13L11 13L11 12L10 12L10 11ZM15 11L15 12L16 12L16 11ZM19 12L19 13L17 13L17 14L16 14L16 15L15 15L15 16L16 16L16 15L17 15L17 14L19 14L19 15L18 15L18 16L19 16L19 17L20 17L20 16L19 16L19 15L21 15L21 13L20 13L20 12ZM33 12L33 13L34 13L34 12ZM6 13L6 14L7 14L7 13ZM1 14L1 15L2 15L2 14ZM9 14L9 16L10 16L10 15L11 15L11 14ZM36 16L36 17L37 17L37 16ZM1 17L1 18L2 18L2 17ZM32 17L32 18L31 18L31 19L32 19L32 20L31 20L31 21L32 21L32 20L34 20L34 21L35 21L35 22L36 22L36 21L35 21L35 19L34 19L34 18L33 18L33 17ZM19 18L19 19L18 19L18 20L19 20L19 21L18 21L18 23L19 23L19 22L20 22L20 23L21 23L21 24L18 24L18 25L22 25L22 23L21 23L21 22L23 22L23 20L22 20L22 19L23 19L23 18L22 18L22 19L20 19L20 18ZM27 18L27 19L28 19L28 18ZM10 19L10 20L9 20L9 22L10 22L10 20L11 20L11 19ZM12 19L12 20L13 20L13 19ZM19 19L19 20L20 20L20 21L22 21L22 20L20 20L20 19ZM25 19L25 20L26 20L26 19ZM4 20L4 21L5 21L5 20ZM40 20L40 21L41 21L41 20ZM1 22L1 23L2 23L2 22ZM26 22L26 24L27 24L27 22ZM11 23L11 24L10 24L10 25L8 25L8 26L6 26L6 27L8 27L8 26L9 26L9 27L10 27L10 25L11 25L11 27L12 27L12 25L11 25L11 24L12 24L12 23ZM27 25L27 26L23 26L23 27L24 27L24 30L23 30L23 31L22 31L22 33L21 33L21 34L20 34L20 33L19 33L19 34L20 34L20 35L18 35L18 36L17 36L17 38L15 38L15 37L14 37L14 36L16 36L16 35L14 35L14 36L13 36L13 37L12 37L12 38L13 38L13 39L18 39L18 38L19 38L19 36L20 36L20 35L21 35L21 36L22 36L22 37L24 37L24 36L25 36L25 34L29 34L29 33L26 33L26 32L27 32L27 30L26 30L26 29L27 29L27 28L28 28L28 27L27 27L27 26L28 26L28 25ZM6 29L6 30L7 30L7 29ZM12 30L12 31L13 31L13 30ZM24 30L24 31L25 31L25 30ZM6 31L6 32L7 32L7 31ZM19 31L19 32L21 32L21 31ZM23 32L23 35L22 35L22 34L21 34L21 35L22 35L22 36L24 36L24 34L25 34L25 33L24 33L24 32ZM30 33L30 35L31 35L31 34L32 34L32 33ZM33 33L33 36L36 36L36 33ZM38 33L38 34L37 34L37 36L39 36L39 35L38 35L38 34L39 34L39 33ZM34 34L34 35L35 35L35 34ZM26 35L26 36L27 36L27 35ZM28 35L28 36L29 36L29 37L31 37L31 38L32 38L32 36L29 36L29 35ZM8 36L8 39L9 39L9 40L11 40L11 39L9 39L9 36ZM13 37L13 38L14 38L14 37ZM34 37L34 38L36 38L36 37ZM29 38L29 39L28 39L28 40L31 40L31 39L30 39L30 38ZM37 38L37 39L38 39L38 38ZM22 40L22 41L23 41L23 40ZM0 0L0 7L7 7L7 0ZM1 1L1 6L6 6L6 1ZM2 2L2 5L5 5L5 2ZM34 0L34 7L41 7L41 0ZM35 1L35 6L40 6L40 1ZM36 2L36 5L39 5L39 2ZM0 34L0 41L7 41L7 34ZM1 35L1 40L6 40L6 35ZM2 36L2 39L5 39L5 36Z" fill="#000000"/></g></g></svg>
