<?xml version="1.0" encoding="UTF-8"?>
<svg xmlns="http://www.w3.org/2000/svg" version="1.1" width="200" height="200" viewBox="0 0 200 200"><rect x="0" y="0" width="200" height="200" fill="#ffffff"/><g transform="scale(6.897)"><g transform="translate(0,0)"><path fill-rule="evenodd" d="M9 0L9 3L10 3L10 4L11 4L11 6L10 6L10 8L9 8L9 6L8 6L8 8L6 8L6 9L5 9L5 10L4 10L4 8L2 8L2 9L0 9L0 11L1 11L1 13L2 13L2 15L0 15L0 16L1 16L1 17L2 17L2 18L5 18L5 19L4 19L4 20L3 20L3 19L2 19L2 20L1 20L1 21L2 21L2 20L3 20L3 21L4 21L4 20L5 20L5 21L8 21L8 23L9 23L9 25L8 25L8 27L10 27L10 28L9 28L9 29L10 29L10 28L11 28L11 29L12 29L12 28L14 28L14 29L15 29L15 27L16 27L16 25L15 25L15 23L17 23L17 22L16 22L16 21L17 21L17 20L19 20L19 21L20 21L20 22L18 22L18 25L20 25L20 27L21 27L21 25L23 25L23 26L24 26L24 27L22 27L22 29L23 29L23 28L25 28L25 29L27 29L27 28L29 28L29 26L28 26L28 27L27 27L27 25L26 25L26 23L25 23L25 22L26 22L26 20L24 20L24 19L27 19L27 18L29 18L29 17L26 17L26 16L25 16L25 15L24 15L24 16L23 16L23 17L21 17L21 18L20 18L20 17L19 17L19 15L20 15L20 14L21 14L21 13L20 13L20 12L22 12L22 9L23 9L23 13L22 13L22 15L23 15L23 14L24 14L24 13L25 13L25 14L26 14L26 15L27 15L27 16L28 16L28 15L27 15L27 14L29 14L29 13L28 13L28 12L29 12L29 11L28 11L28 12L27 12L27 10L29 10L29 9L27 9L27 10L26 10L26 9L25 9L25 8L24 8L24 9L23 9L23 8L21 8L21 3L20 3L20 2L18 2L18 1L15 1L15 0L14 0L14 1L13 1L13 0L11 0L11 1L10 1L10 0ZM11 1L11 3L12 3L12 4L14 4L14 3L16 3L16 2L13 2L13 3L12 3L12 1ZM17 2L17 4L16 4L16 5L19 5L19 7L18 7L18 6L17 6L17 8L15 8L15 7L16 7L16 6L15 6L15 5L14 5L14 6L13 6L13 5L12 5L12 6L11 6L11 9L12 9L12 6L13 6L13 8L15 8L15 9L17 9L17 10L14 10L14 11L16 11L16 12L15 12L15 13L14 13L14 12L13 12L13 13L10 13L10 12L8 12L8 10L7 10L7 9L6 9L6 10L5 10L5 13L6 13L6 14L7 14L7 15L5 15L5 14L4 14L4 12L3 12L3 11L4 11L4 10L3 10L3 11L2 11L2 10L1 10L1 11L2 11L2 12L3 12L3 15L2 15L2 16L3 16L3 17L5 17L5 18L8 18L8 16L9 16L9 19L6 19L6 20L8 20L8 21L9 21L9 23L10 23L10 25L9 25L9 26L10 26L10 27L13 27L13 26L15 26L15 25L14 25L14 23L15 23L15 22L14 22L14 23L13 23L13 22L12 22L12 21L16 21L16 20L17 20L17 19L19 19L19 20L20 20L20 18L18 18L18 17L17 17L17 14L20 14L20 13L19 13L19 12L20 12L20 11L18 11L18 8L19 8L19 10L20 10L20 9L21 9L21 8L19 8L19 7L20 7L20 5L19 5L19 4L20 4L20 3L19 3L19 4L18 4L18 2ZM8 4L8 5L9 5L9 4ZM14 6L14 7L15 7L15 6ZM24 9L24 10L25 10L25 9ZM6 10L6 11L7 11L7 10ZM10 10L10 11L12 11L12 10ZM25 11L25 13L27 13L27 12L26 12L26 11ZM6 12L6 13L7 13L7 14L8 14L8 15L7 15L7 16L6 16L6 17L7 17L7 16L8 16L8 15L10 15L10 13L9 13L9 14L8 14L8 12ZM15 13L15 14L14 14L14 16L13 16L13 14L11 14L11 16L12 16L12 17L10 17L10 18L11 18L11 20L12 20L12 17L14 17L14 18L13 18L13 19L14 19L14 20L16 20L16 19L17 19L17 18L16 18L16 19L15 19L15 17L14 17L14 16L15 16L15 15L16 15L16 13ZM3 15L3 16L4 16L4 15ZM24 16L24 17L23 17L23 18L22 18L22 19L21 19L21 20L22 20L22 19L24 19L24 18L26 18L26 17L25 17L25 16ZM0 18L0 19L1 19L1 18ZM9 19L9 20L10 20L10 19ZM27 20L27 21L28 21L28 22L27 22L27 24L29 24L29 23L28 23L28 22L29 22L29 21L28 21L28 20ZM10 21L10 22L11 22L11 24L12 24L12 22L11 22L11 21ZM21 21L21 24L24 24L24 21ZM22 22L22 23L23 23L23 22ZM10 25L10 26L11 26L11 25ZM24 25L24 26L25 26L25 27L26 27L26 28L27 28L27 27L26 27L26 26L25 26L25 25ZM17 27L17 28L16 28L16 29L17 29L17 28L18 28L18 27ZM19 28L19 29L20 29L20 28ZM0 0L0 7L7 7L7 0ZM1 1L1 6L6 6L6 1ZM2 2L2 5L5 5L5 2ZM22 0L22 7L29 7L29 0ZM23 1L23 6L28 6L28 1ZM24 2L24 5L27 5L27 2ZM0 22L0 29L7 29L7 22ZM1 23L1 28L6 28L6 23ZM2 24L2 27L5 27L5 24Z" fill="#000000"/></g></g></svg>
