<?xml version="1.0" encoding="UTF-8"?>
<svg xmlns="http://www.w3.org/2000/svg" version="1.1" width="200" height="200" viewBox="0 0 200 200"><rect x="0" y="0" width="200" height="200" fill="#ffffff"/><g transform="scale(6.897)"><g transform="translate(0,0)"><path fill-rule="evenodd" d="M12 0L12 2L11 2L11 1L10 1L10 2L9 2L9 1L8 1L8 7L9 7L9 6L10 6L10 9L9 9L9 8L5 8L5 11L7 11L7 12L6 12L6 13L5 13L5 14L6 14L6 15L7 15L7 14L8 14L8 12L9 12L9 14L11 14L11 16L12 16L12 17L10 17L10 15L9 15L9 19L8 19L8 18L6 18L6 17L8 17L8 16L6 16L6 17L3 17L3 16L5 16L5 15L2 15L2 16L1 16L1 15L0 15L0 16L1 16L1 17L2 17L2 18L0 18L0 19L2 19L2 20L0 20L0 21L3 21L3 20L4 20L4 21L5 21L5 20L6 20L6 21L7 21L7 20L6 20L6 19L8 19L8 24L9 24L9 25L11 25L11 26L14 26L14 27L13 27L13 28L14 28L14 27L15 27L15 26L16 26L16 27L17 27L17 28L16 28L16 29L17 29L17 28L19 28L19 26L20 26L20 27L21 27L21 29L22 29L22 28L24 28L24 29L29 29L29 26L27 26L27 25L28 25L28 24L26 24L26 26L27 26L27 27L28 27L28 28L26 28L26 27L25 27L25 28L24 28L24 26L23 26L23 27L22 27L22 26L21 26L21 25L25 25L25 23L26 23L26 21L27 21L27 19L26 19L26 18L28 18L28 19L29 19L29 18L28 18L28 17L29 17L29 16L27 16L27 17L25 17L25 16L22 16L22 15L25 15L25 14L26 14L26 13L29 13L29 12L27 12L27 11L29 11L29 9L28 9L28 8L23 8L23 10L22 10L22 11L21 11L21 9L22 9L22 8L21 8L21 0L19 0L19 1L20 1L20 2L19 2L19 3L20 3L20 5L19 5L19 4L18 4L18 5L17 5L17 3L18 3L18 2L17 2L17 1L18 1L18 0L16 0L16 1L15 1L15 2L16 2L16 5L15 5L15 4L14 4L14 5L13 5L13 4L11 4L11 3L12 3L12 2L13 2L13 3L14 3L14 2L13 2L13 1L14 1L14 0ZM10 2L10 3L11 3L11 2ZM10 5L10 6L11 6L11 9L10 9L10 10L7 10L7 9L6 9L6 10L7 10L7 11L10 11L10 12L11 12L11 13L12 13L12 15L14 15L14 20L12 20L12 19L13 19L13 17L12 17L12 18L10 18L10 19L11 19L11 20L9 20L9 21L10 21L10 23L11 23L11 21L13 21L13 22L12 22L12 24L11 24L11 25L12 25L12 24L14 24L14 23L15 23L15 24L16 24L16 26L17 26L17 27L18 27L18 26L17 26L17 24L18 24L18 23L19 23L19 24L20 24L20 23L19 23L19 22L20 22L20 21L19 21L19 22L18 22L18 21L17 21L17 20L16 20L16 19L17 19L17 18L16 18L16 15L17 15L17 17L18 17L18 19L19 19L19 20L22 20L22 19L21 19L21 15L17 15L17 13L18 13L18 12L19 12L19 14L22 14L22 12L21 12L21 13L20 13L20 12L19 12L19 11L20 11L20 9L19 9L19 7L20 7L20 6L19 6L19 7L18 7L18 6L17 6L17 5L16 5L16 6L15 6L15 5L14 5L14 6L13 6L13 5ZM12 6L12 9L13 9L13 10L10 10L10 11L13 11L13 10L14 10L14 9L15 9L15 10L16 10L16 11L19 11L19 10L16 10L16 9L18 9L18 7L17 7L17 6L16 6L16 7L15 7L15 6L14 6L14 7L15 7L15 8L14 8L14 9L13 9L13 6ZM2 8L2 9L1 9L1 11L0 11L0 13L1 13L1 11L3 11L3 12L4 12L4 11L3 11L3 10L4 10L4 9L3 9L3 8ZM25 9L25 10L24 10L24 11L27 11L27 10L28 10L28 9ZM13 12L13 13L15 13L15 14L14 14L14 15L16 15L16 13L17 13L17 12L16 12L16 13L15 13L15 12ZM23 12L23 14L25 14L25 13L24 13L24 12ZM2 13L2 14L4 14L4 13ZM6 13L6 14L7 14L7 13ZM27 14L27 15L29 15L29 14ZM18 16L18 17L20 17L20 16ZM22 17L22 18L25 18L25 17ZM3 18L3 19L4 19L4 20L5 20L5 19L6 19L6 18ZM19 18L19 19L20 19L20 18ZM23 19L23 20L25 20L25 19ZM14 20L14 22L13 22L13 23L14 23L14 22L15 22L15 23L16 23L16 24L17 24L17 21L16 21L16 20ZM15 21L15 22L16 22L16 21ZM21 21L21 24L24 24L24 21ZM22 22L22 23L23 23L23 22ZM28 22L28 23L29 23L29 22ZM8 26L8 27L10 27L10 28L9 28L9 29L11 29L11 28L12 28L12 27L10 27L10 26ZM0 0L0 7L7 7L7 0ZM1 1L1 6L6 6L6 1ZM2 2L2 5L5 5L5 2ZM22 0L22 7L29 7L29 0ZM23 1L23 6L28 6L28 1ZM24 2L24 5L27 5L27 2ZM0 22L0 29L7 29L7 22ZM1 23L1 28L6 28L6 23ZM2 24L2 27L5 27L5 24Z" fill="#000000"/></g></g></svg>
