<?xml version="1.0" encoding="UTF-8"?>
<svg xmlns="http://www.w3.org/2000/svg" version="1.1" width="200" height="200" viewBox="0 0 200 200"><rect x="0" y="0" width="200" height="200" fill="#ffffff"/><g transform="scale(4.878)"><g transform="translate(0,0)"><path fill-rule="evenodd" d="M8 0L8 1L9 1L9 2L8 2L8 3L9 3L9 4L8 4L8 5L9 5L9 4L10 4L10 8L9 8L9 6L8 6L8 8L9 8L9 9L7 9L7 8L5 8L5 10L4 10L4 9L2 9L2 10L1 10L1 11L0 11L0 12L2 12L2 13L4 13L4 14L6 14L6 15L7 15L7 16L6 16L6 17L5 17L5 16L4 16L4 15L3 15L3 14L1 14L1 13L0 13L0 15L1 15L1 16L0 16L0 18L1 18L1 19L2 19L2 18L3 18L3 17L1 17L1 16L2 16L2 15L3 15L3 16L4 16L4 17L5 17L5 18L4 18L4 19L5 19L5 21L4 21L4 20L3 20L3 24L5 24L5 25L4 25L4 27L3 27L3 25L2 25L2 26L1 26L1 25L0 25L0 27L3 27L3 28L2 28L2 29L0 29L0 33L1 33L1 31L2 31L2 33L3 33L3 32L4 32L4 33L8 33L8 34L10 34L10 35L8 35L8 36L11 36L11 37L9 37L9 41L12 41L12 40L10 40L10 38L12 38L12 39L13 39L13 38L14 38L14 40L13 40L13 41L14 41L14 40L15 40L15 41L16 41L16 39L17 39L17 41L20 41L20 37L21 37L21 36L22 36L22 38L21 38L21 39L22 39L22 40L21 40L21 41L22 41L22 40L23 40L23 41L25 41L25 39L26 39L26 41L27 41L27 39L28 39L28 40L29 40L29 41L30 41L30 40L32 40L32 39L31 39L31 37L33 37L33 41L34 41L34 40L36 40L36 39L37 39L37 40L38 40L38 39L40 39L40 40L41 40L41 39L40 39L40 38L41 38L41 36L40 36L40 34L39 34L39 37L37 37L37 33L40 33L40 32L41 32L41 29L40 29L40 30L39 30L39 32L37 32L37 31L38 31L38 30L37 30L37 29L35 29L35 30L37 30L37 31L36 31L36 32L34 32L34 31L33 31L33 30L34 30L34 28L40 28L40 26L41 26L41 25L39 25L39 24L37 24L37 21L38 21L38 23L39 23L39 22L41 22L41 20L40 20L40 19L41 19L41 15L40 15L40 14L41 14L41 11L40 11L40 9L41 9L41 8L40 8L40 9L39 9L39 8L38 8L38 10L37 10L37 8L36 8L36 9L35 9L35 8L34 8L34 9L35 9L35 10L34 10L34 12L35 12L35 13L36 13L36 14L35 14L35 15L34 15L34 14L32 14L32 16L33 16L33 17L31 17L31 16L29 16L29 17L31 17L31 18L28 18L28 17L27 17L27 18L25 18L25 19L24 19L24 20L25 20L25 21L24 21L24 22L23 22L23 21L22 21L22 20L21 20L21 19L23 19L23 18L24 18L24 17L22 17L22 18L20 18L20 17L21 17L21 15L20 15L20 14L21 14L21 13L22 13L22 12L21 12L21 11L20 11L20 10L22 10L22 11L23 11L23 12L24 12L24 13L23 13L23 15L24 15L24 16L26 16L26 15L27 15L27 16L28 16L28 15L27 15L27 13L28 13L28 14L30 14L30 15L31 15L31 13L32 13L32 12L31 12L31 11L30 11L30 10L32 10L32 11L33 11L33 10L32 10L32 9L30 9L30 8L31 8L31 6L30 6L30 8L29 8L29 3L31 3L31 2L30 2L30 1L29 1L29 0L28 0L28 2L26 2L26 4L25 4L25 2L24 2L24 1L23 1L23 2L24 2L24 4L25 4L25 5L23 5L23 3L22 3L22 5L20 5L20 4L19 4L19 3L17 3L17 4L18 4L18 5L17 5L17 6L16 6L16 7L15 7L15 5L16 5L16 4L15 4L15 3L16 3L16 2L17 2L17 1L19 1L19 0L16 0L16 2L15 2L15 1L14 1L14 0L13 0L13 2L11 2L11 3L10 3L10 1L11 1L11 0L10 0L10 1L9 1L9 0ZM20 0L20 1L22 1L22 0ZM25 0L25 1L26 1L26 0ZM32 0L32 1L33 1L33 0ZM13 2L13 3L15 3L15 2ZM20 2L20 3L21 3L21 2ZM32 2L32 3L33 3L33 2ZM11 3L11 5L12 5L12 6L11 6L11 9L9 9L9 10L8 10L8 11L6 11L6 10L7 10L7 9L6 9L6 10L5 10L5 11L6 11L6 12L5 12L5 13L6 13L6 14L7 14L7 15L8 15L8 16L9 16L9 15L10 15L10 16L12 16L12 17L13 17L13 16L14 16L14 15L15 15L15 17L16 17L16 18L15 18L15 19L14 19L14 18L12 18L12 19L11 19L11 20L12 20L12 21L11 21L11 23L10 23L10 21L9 21L9 20L10 20L10 18L11 18L11 17L6 17L6 18L5 18L5 19L6 19L6 20L8 20L8 21L9 21L9 25L8 25L8 26L9 26L9 27L8 27L8 28L10 28L10 29L12 29L12 28L13 28L13 29L15 29L15 31L13 31L13 30L12 30L12 31L13 31L13 32L14 32L14 33L17 33L17 34L14 34L14 35L13 35L13 37L14 37L14 38L15 38L15 39L16 39L16 38L17 38L17 37L19 37L19 36L21 36L21 35L20 35L20 33L21 33L21 32L24 32L24 30L25 30L25 29L24 29L24 30L23 30L23 27L21 27L21 26L26 26L26 28L27 28L27 24L28 24L28 23L27 23L27 24L26 24L26 25L23 25L23 23L21 23L21 22L22 22L22 21L19 21L19 20L20 20L20 19L19 19L19 17L18 17L18 18L17 18L17 17L16 17L16 15L15 15L15 14L17 14L17 13L14 13L14 15L10 15L10 14L11 14L11 13L12 13L12 14L13 14L13 12L14 12L14 11L15 11L15 12L20 12L20 11L15 11L15 10L16 10L16 9L17 9L17 10L18 10L18 8L19 8L19 7L20 7L20 8L21 8L21 9L23 9L23 10L24 10L24 6L23 6L23 8L22 8L22 6L21 6L21 7L20 7L20 5L19 5L19 7L18 7L18 6L17 6L17 7L18 7L18 8L15 8L15 7L14 7L14 4L12 4L12 3ZM27 4L27 5L25 5L25 7L26 7L26 6L27 6L27 7L28 7L28 4ZM30 4L30 5L32 5L32 4ZM12 6L12 7L13 7L13 6ZM32 6L32 8L33 8L33 6ZM25 8L25 9L26 9L26 8ZM28 8L28 11L29 11L29 13L30 13L30 11L29 11L29 10L30 10L30 9L29 9L29 8ZM12 9L12 10L9 10L9 11L8 11L8 12L10 12L10 13L7 13L7 12L6 12L6 13L7 13L7 14L10 14L10 13L11 13L11 12L10 12L10 11L12 11L12 10L13 10L13 11L14 11L14 10L15 10L15 9L14 9L14 10L13 10L13 9ZM2 10L2 11L3 11L3 12L4 12L4 11L3 11L3 10ZM35 10L35 12L36 12L36 13L37 13L37 14L36 14L36 15L35 15L35 16L34 16L34 17L33 17L33 18L32 18L32 19L29 19L29 22L31 22L31 23L29 23L29 25L30 25L30 26L28 26L28 28L31 28L31 29L26 29L26 32L25 32L25 33L22 33L22 35L23 35L23 36L24 36L24 37L25 37L25 36L26 36L26 38L27 38L27 35L25 35L25 33L26 33L26 32L28 32L28 36L29 36L29 32L30 32L30 33L31 33L31 34L30 34L30 35L31 35L31 34L32 34L32 33L31 33L31 31L32 31L32 29L33 29L33 28L31 28L31 27L33 27L33 23L34 23L34 24L35 24L35 26L34 26L34 27L35 27L35 26L36 26L36 27L37 27L37 26L36 26L36 25L37 25L37 24L36 24L36 23L35 23L35 22L36 22L36 21L35 21L35 18L36 18L36 20L39 20L39 21L40 21L40 20L39 20L39 17L40 17L40 16L39 16L39 17L37 17L37 16L38 16L38 14L39 14L39 13L40 13L40 11L38 11L38 12L39 12L39 13L37 13L37 11L36 11L36 10ZM24 11L24 12L25 12L25 13L27 13L27 12L26 12L26 11ZM18 13L18 15L19 15L19 16L20 16L20 15L19 15L19 14L20 14L20 13ZM24 14L24 15L26 15L26 14ZM36 15L36 16L35 16L35 17L34 17L34 18L35 18L35 17L36 17L36 18L37 18L37 19L38 19L38 18L37 18L37 17L36 17L36 16L37 16L37 15ZM6 18L6 19L7 19L7 18ZM8 18L8 20L9 20L9 18ZM13 19L13 21L14 21L14 22L18 22L18 23L19 23L19 22L18 22L18 19L17 19L17 20L16 20L16 19L15 19L15 21L14 21L14 19ZM25 19L25 20L26 20L26 21L27 21L27 20L28 20L28 19ZM33 19L33 20L32 20L32 21L31 21L31 20L30 20L30 21L31 21L31 22L34 22L34 19ZM1 21L1 22L2 22L2 21ZM5 21L5 23L6 23L6 24L8 24L8 22L7 22L7 21ZM6 22L6 23L7 23L7 22ZM25 22L25 23L26 23L26 22ZM12 23L12 24L13 24L13 23ZM15 23L15 24L14 24L14 25L12 25L12 26L11 26L11 24L10 24L10 26L11 26L11 27L10 27L10 28L11 28L11 27L13 27L13 26L14 26L14 28L15 28L15 29L16 29L16 28L17 28L17 27L18 27L18 26L17 26L17 25L19 25L19 24L17 24L17 25L15 25L15 24L16 24L16 23ZM31 23L31 24L30 24L30 25L31 25L31 26L32 26L32 23ZM40 23L40 24L41 24L41 23ZM20 24L20 26L19 26L19 29L22 29L22 28L21 28L21 27L20 27L20 26L21 26L21 24ZM5 25L5 26L7 26L7 25ZM15 26L15 27L17 27L17 26ZM38 26L38 27L39 27L39 26ZM4 27L4 28L3 28L3 29L2 29L2 31L3 31L3 29L4 29L4 30L7 30L7 31L4 31L4 32L7 32L7 31L9 31L9 32L8 32L8 33L10 33L10 32L11 32L11 35L12 35L12 34L13 34L13 33L12 33L12 32L11 32L11 30L9 30L9 29L8 29L8 30L7 30L7 29L6 29L6 28L7 28L7 27L6 27L6 28L5 28L5 27ZM24 27L24 28L25 28L25 27ZM17 29L17 30L16 30L16 31L15 31L15 32L16 32L16 31L17 31L17 32L19 32L19 30L18 30L18 29ZM21 30L21 31L20 31L20 32L21 32L21 31L23 31L23 30ZM27 30L27 31L28 31L28 30ZM18 33L18 35L19 35L19 33ZM33 33L33 36L36 36L36 33ZM34 34L34 35L35 35L35 34ZM14 35L14 36L15 36L15 35ZM16 35L16 36L17 36L17 35ZM30 36L30 37L29 37L29 38L28 38L28 39L29 39L29 40L30 40L30 39L29 39L29 38L30 38L30 37L31 37L31 36ZM34 37L34 38L36 38L36 37ZM39 37L39 38L40 38L40 37ZM18 38L18 39L19 39L19 38ZM22 38L22 39L25 39L25 38ZM37 38L37 39L38 39L38 38ZM0 0L0 7L7 7L7 0ZM1 1L1 6L6 6L6 1ZM2 2L2 5L5 5L5 2ZM34 0L34 7L41 7L41 0ZM35 1L35 6L40 6L40 1ZM36 2L36 5L39 5L39 2ZM0 34L0 41L7 41L7 34ZM1 35L1 40L6 40L6 35ZM2 36L2 39L5 39L5 36Z" fill="#000000"/></g></g></svg>
