<?xml version="1.0" encoding="UTF-8"?>
<svg xmlns="http://www.w3.org/2000/svg" version="1.1" width="200" height="200" viewBox="0 0 200 200"><rect x="0" y="0" width="200" height="200" fill="#ffffff"/><g transform="scale(6.897)"><g transform="translate(0,0)"><path fill-rule="evenodd" d="M9 0L9 2L8 2L8 4L9 4L9 2L10 2L10 3L11 3L11 4L10 4L10 5L9 5L9 6L8 6L8 7L9 7L9 8L10 8L10 9L11 9L11 10L12 10L12 11L9 11L9 10L8 10L8 8L6 8L6 9L5 9L5 8L3 8L3 9L5 9L5 10L2 10L2 9L1 9L1 10L0 10L0 13L1 13L1 15L4 15L4 16L5 16L5 14L3 14L3 12L1 12L1 11L5 11L5 12L4 12L4 13L5 13L5 12L6 12L6 13L7 13L7 12L8 12L8 13L9 13L9 14L10 14L10 12L12 12L12 11L13 11L13 13L12 13L12 14L11 14L11 16L10 16L10 15L9 15L9 16L10 16L10 17L9 17L9 18L8 18L8 17L7 17L7 16L8 16L8 14L6 14L6 15L7 15L7 16L6 16L6 17L7 17L7 18L6 18L6 19L5 19L5 17L4 17L4 19L3 19L3 18L1 18L1 16L0 16L0 21L4 21L4 19L5 19L5 21L8 21L8 23L9 23L9 22L10 22L10 24L8 24L8 26L9 26L9 25L10 25L10 28L12 28L12 27L11 27L11 26L12 26L12 25L13 25L13 27L14 27L14 28L13 28L13 29L14 29L14 28L15 28L15 29L20 29L20 28L21 28L21 29L23 29L23 28L24 28L24 29L28 29L28 28L26 28L26 26L25 26L25 22L27 22L27 23L28 23L28 24L26 24L26 25L29 25L29 22L28 22L28 21L26 21L26 20L25 20L25 18L26 18L26 19L27 19L27 18L28 18L28 19L29 19L29 17L28 17L28 16L29 16L29 14L28 14L28 13L29 13L29 11L28 11L28 10L27 10L27 8L25 8L25 9L26 9L26 10L25 10L25 12L24 12L24 16L23 16L23 12L22 12L22 11L21 11L21 10L19 10L19 9L17 9L17 8L19 8L19 6L20 6L20 7L21 7L21 4L19 4L19 3L20 3L20 1L21 1L21 0L19 0L19 1L18 1L18 0L17 0L17 1L16 1L16 0L13 0L13 1L12 1L12 0L11 0L11 1L10 1L10 0ZM11 1L11 2L12 2L12 1ZM15 1L15 2L13 2L13 3L14 3L14 4L15 4L15 3L16 3L16 1ZM17 1L17 4L16 4L16 5L17 5L17 7L18 7L18 6L19 6L19 4L18 4L18 3L19 3L19 2L18 2L18 1ZM11 4L11 5L10 5L10 6L9 6L9 7L10 7L10 6L11 6L11 7L12 7L12 6L13 6L13 8L14 8L14 10L13 10L13 9L12 9L12 10L13 10L13 11L15 11L15 12L14 12L14 13L18 13L18 11L17 11L17 9L15 9L15 7L16 7L16 6L15 6L15 5L14 5L14 6L13 6L13 5L12 5L12 4ZM11 5L11 6L12 6L12 5ZM14 6L14 7L15 7L15 6ZM6 9L6 10L7 10L7 11L6 11L6 12L7 12L7 11L8 11L8 12L9 12L9 11L8 11L8 10L7 10L7 9ZM22 9L22 10L23 10L23 11L24 11L24 9ZM15 10L15 11L16 11L16 12L17 12L17 11L16 11L16 10ZM26 10L26 11L27 11L27 12L28 12L28 11L27 11L27 10ZM19 12L19 13L20 13L20 12ZM21 12L21 14L20 14L20 15L19 15L19 14L17 14L17 15L16 15L16 14L15 14L15 15L14 15L14 14L12 14L12 18L11 18L11 17L10 17L10 19L12 19L12 21L14 21L14 22L12 22L12 23L11 23L11 24L10 24L10 25L12 25L12 24L13 24L13 25L14 25L14 27L15 27L15 26L17 26L17 24L20 24L20 21L18 21L18 20L15 20L15 18L16 18L16 19L17 19L17 18L20 18L20 19L21 19L21 20L22 20L22 19L21 19L21 16L20 16L20 15L21 15L21 14L22 14L22 12ZM25 13L25 16L26 16L26 17L27 17L27 16L28 16L28 15L27 15L27 16L26 16L26 13ZM17 15L17 17L18 17L18 15ZM2 16L2 17L3 17L3 16ZM13 16L13 18L15 18L15 17L16 17L16 16L15 16L15 17L14 17L14 16ZM22 16L22 17L23 17L23 16ZM7 18L7 19L6 19L6 20L7 20L7 19L8 19L8 18ZM2 19L2 20L3 20L3 19ZM13 19L13 20L14 20L14 19ZM23 19L23 20L24 20L24 19ZM8 20L8 21L11 21L11 20ZM16 21L16 23L15 23L15 24L14 24L14 23L13 23L13 24L14 24L14 25L16 25L16 24L17 24L17 21ZM21 21L21 24L24 24L24 21ZM18 22L18 23L19 23L19 22ZM22 22L22 23L23 23L23 22ZM18 25L18 26L19 26L19 28L20 28L20 27L21 27L21 26L22 26L22 28L23 28L23 27L25 27L25 26L24 26L24 25ZM27 26L27 27L29 27L29 26ZM16 27L16 28L17 28L17 27ZM0 0L0 7L7 7L7 0ZM1 1L1 6L6 6L6 1ZM2 2L2 5L5 5L5 2ZM22 0L22 7L29 7L29 0ZM23 1L23 6L28 6L28 1ZM24 2L24 5L27 5L27 2ZM0 22L0 29L7 29L7 22ZM1 23L1 28L6 28L6 23ZM2 24L2 27L5 27L5 24Z" fill="#000000"/></g></g></svg>
