<?xml version="1.0" encoding="UTF-8"?>
<svg xmlns="http://www.w3.org/2000/svg" version="1.1" width="200" height="200" viewBox="0 0 200 200"><rect x="0" y="0" width="200" height="200" fill="#ffffff"/><g transform="scale(6.897)"><g transform="translate(0,0)"><path fill-rule="evenodd" d="M12 0L12 1L10 1L10 2L9 2L9 1L8 1L8 2L9 2L9 3L10 3L10 2L11 2L11 3L12 3L12 4L13 4L13 6L12 6L12 7L11 7L11 5L10 5L10 4L9 4L9 5L8 5L8 8L4 8L4 9L3 9L3 10L0 10L0 12L1 12L1 13L0 13L0 15L1 15L1 16L3 16L3 13L2 13L2 12L4 12L4 15L5 15L5 16L4 16L4 17L5 17L5 18L3 18L3 20L0 20L0 21L4 21L4 20L5 20L5 21L8 21L8 25L9 25L9 27L12 27L12 29L22 29L22 28L23 28L23 29L26 29L26 28L28 28L28 27L29 27L29 26L27 26L27 27L26 27L26 28L23 28L23 27L25 27L25 26L26 26L26 25L27 25L27 24L28 24L28 25L29 25L29 22L28 22L28 23L27 23L27 21L29 21L29 19L27 19L27 18L28 18L28 17L27 17L27 18L26 18L26 19L27 19L27 20L25 20L25 19L24 19L24 18L25 18L25 17L23 17L23 16L24 16L24 14L25 14L25 15L27 15L27 16L29 16L29 14L27 14L27 12L29 12L29 9L28 9L28 8L27 8L27 9L24 9L24 8L22 8L22 9L24 9L24 10L22 10L22 11L23 11L23 13L22 13L22 12L18 12L18 13L17 13L17 11L16 11L16 10L14 10L14 11L11 11L11 9L12 9L12 10L13 10L13 9L12 9L12 8L13 8L13 6L14 6L14 8L15 8L15 9L17 9L17 10L18 10L18 9L19 9L19 10L20 10L20 11L21 11L21 9L19 9L19 8L21 8L21 6L20 6L20 7L19 7L19 4L20 4L20 5L21 5L21 1L20 1L20 0L18 0L18 2L17 2L17 1L16 1L16 0L14 0L14 1L13 1L13 0ZM15 1L15 3L16 3L16 1ZM19 1L19 2L20 2L20 1ZM13 3L13 4L14 4L14 6L15 6L15 7L16 7L16 8L17 8L17 9L18 9L18 8L17 8L17 7L18 7L18 4L19 4L19 3L18 3L18 4L16 4L16 6L15 6L15 4L14 4L14 3ZM9 5L9 7L10 7L10 8L8 8L8 9L6 9L6 10L5 10L5 9L4 9L4 10L3 10L3 11L4 11L4 12L7 12L7 13L5 13L5 14L8 14L8 15L10 15L10 18L11 18L11 19L10 19L10 21L11 21L11 22L12 22L12 21L13 21L13 23L14 23L14 24L12 24L12 23L10 23L10 24L12 24L12 25L11 25L11 26L12 26L12 27L16 27L16 26L17 26L17 28L19 28L19 26L20 26L20 28L21 28L21 26L22 26L22 27L23 27L23 26L24 26L24 25L19 25L19 24L20 24L20 22L19 22L19 21L20 21L20 20L19 20L19 19L18 19L18 22L16 22L16 23L14 23L14 22L15 22L15 21L17 21L17 19L15 19L15 18L16 18L16 17L17 17L17 18L19 18L19 17L18 17L18 16L21 16L21 15L22 15L22 16L23 16L23 14L24 14L24 13L23 13L23 14L22 14L22 13L21 13L21 14L19 14L19 13L18 13L18 14L13 14L13 13L14 13L14 12L13 12L13 13L12 13L12 12L11 12L11 11L10 11L10 8L11 8L11 7L10 7L10 5ZM16 6L16 7L17 7L17 6ZM27 9L27 10L28 10L28 9ZM4 10L4 11L5 11L5 10ZM6 10L6 11L7 11L7 10ZM24 10L24 12L25 12L25 10ZM1 11L1 12L2 12L2 11ZM15 11L15 12L16 12L16 11ZM8 12L8 13L10 13L10 15L11 15L11 18L12 18L12 17L13 17L13 19L12 19L12 20L13 20L13 19L14 19L14 18L15 18L15 17L13 17L13 16L14 16L14 15L13 15L13 14L12 14L12 13L11 13L11 12ZM1 13L1 14L2 14L2 13ZM25 13L25 14L26 14L26 13ZM18 14L18 15L19 15L19 14ZM6 15L6 16L7 16L7 15ZM12 15L12 16L13 16L13 15ZM15 15L15 16L16 16L16 15ZM8 16L8 17L6 17L6 18L5 18L5 19L6 19L6 20L7 20L7 19L8 19L8 21L9 21L9 19L8 19L8 18L9 18L9 16ZM0 17L0 18L1 18L1 17ZM20 17L20 19L21 19L21 18L23 18L23 17ZM6 18L6 19L7 19L7 18ZM22 19L22 20L23 20L23 19ZM21 21L21 24L24 24L24 21ZM25 21L25 25L26 25L26 24L27 24L27 23L26 23L26 21ZM22 22L22 23L23 23L23 22ZM17 23L17 24L16 24L16 25L15 25L15 24L14 24L14 25L12 25L12 26L14 26L14 25L15 25L15 26L16 26L16 25L17 25L17 26L18 26L18 25L17 25L17 24L19 24L19 23ZM9 28L9 29L10 29L10 28ZM0 0L0 7L7 7L7 0ZM1 1L1 6L6 6L6 1ZM2 2L2 5L5 5L5 2ZM22 0L22 7L29 7L29 0ZM23 1L23 6L28 6L28 1ZM24 2L24 5L27 5L27 2ZM0 22L0 29L7 29L7 22ZM1 23L1 28L6 28L6 23ZM2 24L2 27L5 27L5 24Z" fill="#000000"/></g></g></svg>
