<?xml version="1.0" encoding="UTF-8"?>
<svg xmlns="http://www.w3.org/2000/svg" version="1.1" width="200" height="200" viewBox="0 0 200 200"><rect x="0" y="0" width="200" height="200" fill="#ffffff"/><g transform="scale(6.897)"><g transform="translate(0,0)"><path fill-rule="evenodd" d="M8 0L8 3L10 3L10 4L9 4L9 5L8 5L8 10L11 10L11 9L12 9L12 10L14 10L14 11L12 11L12 13L11 13L11 11L10 11L10 13L8 13L8 12L9 12L9 11L7 11L7 10L6 10L6 9L7 9L7 8L6 8L6 9L5 9L5 8L2 8L2 10L1 10L1 11L2 11L2 12L3 12L3 14L2 14L2 13L1 13L1 14L0 14L0 15L2 15L2 16L1 16L1 17L0 17L0 21L1 21L1 17L5 17L5 19L7 19L7 18L6 18L6 17L7 17L7 16L8 16L8 19L9 19L9 20L8 20L8 22L9 22L9 24L8 24L8 27L10 27L10 28L11 28L11 29L13 29L13 28L15 28L15 27L16 27L16 29L19 29L19 28L20 28L20 26L21 26L21 28L22 28L22 27L23 27L23 29L25 29L25 28L26 28L26 29L28 29L28 28L29 28L29 27L28 27L28 25L29 25L29 24L28 24L28 23L27 23L27 22L28 22L28 21L29 21L29 20L28 20L28 19L29 19L29 18L28 18L28 19L27 19L27 17L28 17L28 10L29 10L29 8L26 8L26 9L27 9L27 10L25 10L25 9L24 9L24 8L21 8L21 5L20 5L20 4L21 4L21 2L20 2L20 1L21 1L21 0L20 0L20 1L19 1L19 0L18 0L18 2L19 2L19 3L18 3L18 7L19 7L19 8L18 8L18 9L17 9L17 6L16 6L16 7L15 7L15 4L16 4L16 3L17 3L17 2L13 2L13 1L16 1L16 0L13 0L13 1L12 1L12 0ZM11 1L11 4L10 4L10 5L9 5L9 7L10 7L10 8L9 8L9 9L11 9L11 8L12 8L12 9L14 9L14 8L15 8L15 12L14 12L14 13L12 13L12 14L8 14L8 15L11 15L11 16L12 16L12 15L13 15L13 17L11 17L11 18L10 18L10 16L9 16L9 18L10 18L10 19L11 19L11 20L9 20L9 21L11 21L11 23L12 23L12 26L10 26L10 24L9 24L9 26L10 26L10 27L11 27L11 28L12 28L12 27L15 27L15 24L16 24L16 23L15 23L15 22L16 22L16 21L17 21L17 20L18 20L18 22L17 22L17 24L19 24L19 25L18 25L18 26L19 26L19 25L20 25L20 21L19 21L19 20L18 20L18 19L19 19L19 18L20 18L20 19L21 19L21 18L20 18L20 17L22 17L22 19L23 19L23 20L25 20L25 21L26 21L26 22L25 22L25 24L26 24L26 25L25 25L25 26L24 26L24 25L22 25L22 26L23 26L23 27L26 27L26 26L27 26L27 23L26 23L26 22L27 22L27 21L28 21L28 20L27 20L27 19L26 19L26 18L25 18L25 19L23 19L23 18L24 18L24 13L23 13L23 12L24 12L24 9L22 9L22 10L21 10L21 9L18 9L18 10L19 10L19 13L18 13L18 12L17 12L17 10L16 10L16 8L15 8L15 7L14 7L14 6L13 6L13 5L14 5L14 3L12 3L12 1ZM10 6L10 7L11 7L11 6ZM12 6L12 7L13 7L13 8L14 8L14 7L13 7L13 6ZM19 6L19 7L20 7L20 6ZM4 9L4 11L5 11L5 9ZM20 10L20 11L21 11L21 10ZM6 11L6 12L7 12L7 11ZM22 11L22 12L23 12L23 11ZM16 12L16 15L15 15L15 17L14 17L14 18L12 18L12 20L13 20L13 21L12 21L12 22L13 22L13 25L14 25L14 24L15 24L15 23L14 23L14 22L15 22L15 21L16 21L16 20L17 20L17 19L16 19L16 20L13 20L13 19L14 19L14 18L16 18L16 16L17 16L17 15L18 15L18 13L17 13L17 12ZM25 12L25 13L26 13L26 14L27 14L27 12ZM4 13L4 14L3 14L3 16L4 16L4 14L7 14L7 13ZM21 13L21 14L22 14L22 15L21 15L21 16L22 16L22 17L23 17L23 13ZM13 14L13 15L14 15L14 14ZM6 15L6 16L7 16L7 15ZM25 15L25 16L27 16L27 15ZM18 17L18 18L19 18L19 17ZM2 18L2 19L3 19L3 20L2 20L2 21L3 21L3 20L4 20L4 19L3 19L3 18ZM25 19L25 20L26 20L26 19ZM5 20L5 21L7 21L7 20ZM13 21L13 22L14 22L14 21ZM21 21L21 24L24 24L24 21ZM22 22L22 23L23 23L23 22ZM16 25L16 26L17 26L17 25ZM0 0L0 7L7 7L7 0ZM1 1L1 6L6 6L6 1ZM2 2L2 5L5 5L5 2ZM22 0L22 7L29 7L29 0ZM23 1L23 6L28 6L28 1ZM24 2L24 5L27 5L27 2ZM0 22L0 29L7 29L7 22ZM1 23L1 28L6 28L6 23ZM2 24L2 27L5 27L5 24Z" fill="#000000"/></g></g></svg>
