<?xml version="1.0" encoding="UTF-8"?>
<svg xmlns="http://www.w3.org/2000/svg" version="1.1" width="200" height="200" viewBox="0 0 200 200"><rect x="0" y="0" width="200" height="200" fill="#ffffff"/><g transform="scale(6.897)"><g transform="translate(0,0)"><path fill-rule="evenodd" d="M13 0L13 1L15 1L15 4L14 4L14 5L13 5L13 4L11 4L11 3L14 3L14 2L11 2L11 1L10 1L10 2L9 2L9 1L8 1L8 7L9 7L9 6L10 6L10 7L11 7L11 6L10 6L10 5L13 5L13 6L12 6L12 8L13 8L13 6L14 6L14 7L15 7L15 9L12 9L12 11L13 11L13 10L15 10L15 11L19 11L19 12L18 12L18 14L17 14L17 15L16 15L16 13L17 13L17 12L16 12L16 13L15 13L15 12L13 12L13 13L15 13L15 15L16 15L16 17L15 17L15 20L14 20L14 17L13 17L13 16L14 16L14 14L13 14L13 15L12 15L12 13L11 13L11 12L10 12L10 11L11 11L11 8L10 8L10 9L9 9L9 8L5 8L5 9L9 9L9 10L10 10L10 11L9 11L9 13L10 13L10 14L11 14L11 15L10 15L10 16L9 16L9 18L8 18L8 16L6 16L6 15L7 15L7 14L8 14L8 11L7 11L7 10L5 10L5 11L7 11L7 12L6 12L6 13L2 13L2 14L6 14L6 15L5 15L5 16L6 16L6 17L4 17L4 15L1 15L1 11L2 11L2 12L3 12L3 11L2 11L2 10L1 10L1 11L0 11L0 15L1 15L1 18L0 18L0 19L3 19L3 20L0 20L0 21L3 21L3 20L4 20L4 21L5 21L5 20L6 20L6 21L7 21L7 20L8 20L8 24L9 24L9 23L10 23L10 21L9 21L9 20L11 20L11 19L12 19L12 20L14 20L14 21L11 21L11 24L10 24L10 26L8 26L8 27L10 27L10 28L9 28L9 29L12 29L12 28L14 28L14 27L15 27L15 29L17 29L17 28L19 28L19 26L20 26L20 27L21 27L21 29L22 29L22 28L24 28L24 29L26 29L26 28L27 28L27 29L29 29L29 26L27 26L27 25L28 25L28 24L26 24L26 25L25 25L25 23L26 23L26 21L27 21L27 18L28 18L28 19L29 19L29 18L28 18L28 17L29 17L29 16L27 16L27 17L25 17L25 16L22 16L22 15L25 15L25 14L26 14L26 13L28 13L28 15L29 15L29 12L27 12L27 11L29 11L29 9L28 9L28 8L23 8L23 10L22 10L22 11L21 11L21 9L22 9L22 8L21 8L21 0L19 0L19 1L20 1L20 2L19 2L19 3L20 3L20 5L19 5L19 4L18 4L18 5L17 5L17 3L18 3L18 2L17 2L17 3L16 3L16 0ZM17 0L17 1L18 1L18 0ZM10 2L10 3L11 3L11 2ZM15 4L15 5L16 5L16 6L15 6L15 7L16 7L16 6L17 6L17 7L18 7L18 9L17 9L17 8L16 8L16 9L17 9L17 10L19 10L19 11L20 11L20 9L19 9L19 7L20 7L20 6L19 6L19 7L18 7L18 6L17 6L17 5L16 5L16 4ZM2 8L2 9L3 9L3 10L4 10L4 9L3 9L3 8ZM25 9L25 10L24 10L24 11L26 11L26 10L28 10L28 9ZM19 12L19 14L18 14L18 15L17 15L17 17L19 17L19 18L18 18L18 19L19 19L19 20L22 20L22 19L21 19L21 15L19 15L19 14L22 14L22 12L21 12L21 13L20 13L20 12ZM23 12L23 14L25 14L25 13L24 13L24 12ZM6 13L6 14L7 14L7 13ZM11 16L11 17L12 17L12 18L13 18L13 17L12 17L12 16ZM19 16L19 17L20 17L20 16ZM6 17L6 18L3 18L3 19L4 19L4 20L5 20L5 19L6 19L6 20L7 20L7 19L6 19L6 18L7 18L7 17ZM22 17L22 18L25 18L25 20L26 20L26 18L25 18L25 17ZM10 18L10 19L11 19L11 18ZM16 18L16 19L17 19L17 18ZM19 18L19 19L20 19L20 18ZM23 19L23 20L24 20L24 19ZM15 20L15 22L14 22L14 24L13 24L13 22L12 22L12 24L11 24L11 25L12 25L12 27L11 27L11 26L10 26L10 27L11 27L11 28L12 28L12 27L14 27L14 26L13 26L13 25L15 25L15 27L16 27L16 28L17 28L17 27L18 27L18 26L17 26L17 25L19 25L19 24L20 24L20 23L19 23L19 24L18 24L18 21L17 21L17 20ZM16 21L16 22L15 22L15 23L16 23L16 24L15 24L15 25L17 25L17 21ZM19 21L19 22L20 22L20 21ZM21 21L21 24L24 24L24 21ZM22 22L22 23L23 23L23 22ZM28 22L28 23L29 23L29 22ZM12 24L12 25L13 25L13 24ZM21 25L21 26L22 26L22 27L23 27L23 26L24 26L24 28L26 28L26 27L25 27L25 25ZM16 26L16 27L17 27L17 26ZM27 27L27 28L28 28L28 27ZM0 0L0 7L7 7L7 0ZM1 1L1 6L6 6L6 1ZM2 2L2 5L5 5L5 2ZM22 0L22 7L29 7L29 0ZM23 1L23 6L28 6L28 1ZM24 2L24 5L27 5L27 2ZM0 22L0 29L7 29L7 22ZM1 23L1 28L6 28L6 23ZM2 24L2 27L5 27L5 24Z" fill="#000000"/></g></g></svg>
