<?xml version="1.0" encoding="UTF-8"?>
<svg xmlns="http://www.w3.org/2000/svg" version="1.1" width="200" height="200" viewBox="0 0 200 200"><rect x="0" y="0" width="200" height="200" fill="#ffffff"/><g transform="scale(4.878)"><g transform="translate(0,0)"><path fill-rule="evenodd" d="M9 0L9 1L8 1L8 7L9 7L9 6L10 6L10 7L11 7L11 6L12 6L12 8L13 8L13 6L14 6L14 7L15 7L15 6L14 6L14 5L15 5L15 4L13 4L13 5L12 5L12 3L13 3L13 2L14 2L14 3L16 3L16 5L17 5L17 6L16 6L16 7L17 7L17 9L16 9L16 10L15 10L15 9L13 9L13 10L15 10L15 11L12 11L12 10L11 10L11 9L10 9L10 8L5 8L5 9L3 9L3 8L2 8L2 9L1 9L1 10L0 10L0 11L1 11L1 12L0 12L0 13L1 13L1 14L0 14L0 20L1 20L1 23L0 23L0 25L1 25L1 24L2 24L2 25L3 25L3 26L2 26L2 27L3 27L3 29L1 29L1 28L0 28L0 29L1 29L1 30L0 30L0 31L2 31L2 32L0 32L0 33L2 33L2 32L3 32L3 33L5 33L5 32L6 32L6 33L7 33L7 32L9 32L9 33L8 33L8 36L9 36L9 38L8 38L8 39L9 39L9 38L10 38L10 41L11 41L11 38L12 38L12 37L11 37L11 36L13 36L13 35L12 35L12 34L14 34L14 35L15 35L15 34L14 34L14 33L13 33L13 32L14 32L14 30L13 30L13 28L15 28L15 30L16 30L16 28L19 28L19 27L16 27L16 26L17 26L17 24L16 24L16 25L15 25L15 24L14 24L14 23L13 23L13 24L14 24L14 25L12 25L12 23L11 23L11 22L14 22L14 21L15 21L15 22L17 22L17 21L19 21L19 23L20 23L20 24L18 24L18 26L19 26L19 25L20 25L20 24L21 24L21 26L20 26L20 27L21 27L21 29L20 29L20 30L19 30L19 29L17 29L17 31L18 31L18 32L19 32L19 34L18 34L18 33L16 33L16 36L14 36L14 37L13 37L13 38L14 38L14 37L15 37L15 39L14 39L14 40L13 40L13 41L16 41L16 39L17 39L17 40L18 40L18 41L19 41L19 40L20 40L20 39L19 39L19 38L21 38L21 41L23 41L23 40L22 40L22 39L24 39L24 38L23 38L23 36L24 36L24 37L25 37L25 34L26 34L26 33L27 33L27 35L26 35L26 38L25 38L25 41L26 41L26 40L27 40L27 41L29 41L29 40L27 40L27 39L28 39L28 38L29 38L29 39L31 39L31 38L32 38L32 41L36 41L36 40L37 40L37 41L39 41L39 39L41 39L41 33L40 33L40 31L41 31L41 29L40 29L40 27L41 27L41 25L39 25L39 24L37 24L37 26L36 26L36 24L35 24L35 20L36 20L36 21L37 21L37 19L36 19L36 18L35 18L35 16L36 16L36 14L33 14L33 17L34 17L34 18L35 18L35 20L34 20L34 19L32 19L32 16L30 16L30 18L29 18L29 19L28 19L28 17L29 17L29 15L32 15L32 14L30 14L30 13L32 13L32 12L30 12L30 13L29 13L29 12L28 12L28 10L29 10L29 11L30 11L30 10L31 10L31 11L32 11L32 8L33 8L33 10L35 10L35 11L34 11L34 12L35 12L35 13L36 13L36 12L35 12L35 11L36 11L36 10L35 10L35 9L39 9L39 11L41 11L41 9L40 9L40 8L35 8L35 9L34 9L34 8L33 8L33 6L32 6L32 8L31 8L31 3L32 3L32 5L33 5L33 2L31 2L31 1L29 1L29 0L28 0L28 2L27 2L27 4L28 4L28 5L29 5L29 6L28 6L28 7L27 7L27 5L26 5L26 7L27 7L27 8L26 8L26 9L23 9L23 10L21 10L21 9L20 9L20 8L23 8L23 6L24 6L24 7L25 7L25 6L24 6L24 5L23 5L23 6L22 6L22 7L21 7L21 4L23 4L23 3L24 3L24 4L25 4L25 3L26 3L26 2L24 2L24 1L22 1L22 2L21 2L21 4L19 4L19 3L20 3L20 0L19 0L19 1L18 1L18 4L17 4L17 3L16 3L16 1L14 1L14 0L11 0L11 1L10 1L10 0ZM25 0L25 1L26 1L26 0ZM32 0L32 1L33 1L33 0ZM9 1L9 2L10 2L10 3L9 3L9 4L10 4L10 3L12 3L12 2L13 2L13 1L11 1L11 2L10 2L10 1ZM22 2L22 3L23 3L23 2ZM28 2L28 3L29 3L29 4L30 4L30 2ZM18 4L18 6L17 6L17 7L18 7L18 8L19 8L19 7L20 7L20 5L19 5L19 4ZM18 6L18 7L19 7L19 6ZM29 6L29 7L28 7L28 8L29 8L29 10L30 10L30 6ZM2 9L2 10L1 10L1 11L2 11L2 10L3 10L3 12L1 12L1 13L3 13L3 12L5 12L5 13L4 13L4 14L3 14L3 15L1 15L1 19L2 19L2 18L3 18L3 20L2 20L2 21L4 21L4 23L3 23L3 22L2 22L2 23L3 23L3 25L4 25L4 27L5 27L5 28L8 28L8 27L9 27L9 26L10 26L10 27L12 27L12 28L9 28L9 32L10 32L10 31L11 31L11 32L12 32L12 31L13 31L13 30L11 30L11 29L12 29L12 28L13 28L13 27L15 27L15 28L16 28L16 27L15 27L15 25L14 25L14 26L13 26L13 27L12 27L12 26L11 26L11 25L9 25L9 24L10 24L10 22L11 22L11 21L14 21L14 19L13 19L13 17L15 17L15 19L17 19L17 18L18 18L18 17L19 17L19 16L22 16L22 17L21 17L21 18L20 18L20 20L19 20L19 19L18 19L18 20L19 20L19 21L22 21L22 23L21 23L21 22L20 22L20 23L21 23L21 24L22 24L22 25L23 25L23 21L22 21L22 20L24 20L24 21L25 21L25 20L26 20L26 21L27 21L27 20L28 20L28 22L29 22L29 20L30 20L30 19L29 19L29 20L28 20L28 19L27 19L27 18L26 18L26 16L25 16L25 17L24 17L24 15L28 15L28 13L27 13L27 12L26 12L26 11L27 11L27 10L26 10L26 11L25 11L25 12L24 12L24 13L23 13L23 12L21 12L21 10L19 10L19 9L18 9L18 10L19 10L19 11L16 11L16 12L17 12L17 13L13 13L13 14L12 14L12 16L11 16L11 15L10 15L10 14L9 14L9 13L11 13L11 12L12 12L12 11L10 11L10 10L9 10L9 11L10 11L10 12L7 12L7 11L4 11L4 10L3 10L3 9ZM5 9L5 10L7 10L7 9ZM37 11L37 13L38 13L38 14L37 14L37 17L38 17L38 15L39 15L39 16L40 16L40 15L41 15L41 12L40 12L40 13L39 13L39 12L38 12L38 11ZM6 12L6 13L5 13L5 14L4 14L4 16L3 16L3 18L4 18L4 17L5 17L5 18L6 18L6 19L7 19L7 20L6 20L6 21L5 21L5 24L6 24L6 25L7 25L7 24L6 24L6 23L7 23L7 22L9 22L9 20L10 20L10 19L11 19L11 20L13 20L13 19L12 19L12 18L11 18L11 16L9 16L9 17L7 17L7 16L6 16L6 17L5 17L5 15L7 15L7 14L8 14L8 13L7 13L7 12ZM19 12L19 13L18 13L18 14L17 14L17 17L16 17L16 16L15 16L15 17L16 17L16 18L17 18L17 17L18 17L18 15L20 15L20 14L19 14L19 13L21 13L21 14L23 14L23 13L21 13L21 12ZM6 13L6 14L7 14L7 13ZM15 14L15 15L16 15L16 14ZM22 15L22 16L23 16L23 15ZM34 15L34 16L35 16L35 15ZM12 16L12 17L13 17L13 16ZM27 16L27 17L28 17L28 16ZM6 17L6 18L7 18L7 17ZM22 17L22 18L24 18L24 19L26 19L26 18L24 18L24 17ZM39 17L39 18L38 18L38 19L39 19L39 20L40 20L40 19L41 19L41 17ZM8 18L8 20L9 20L9 19L10 19L10 18ZM21 19L21 20L22 20L22 19ZM31 19L31 20L32 20L32 19ZM15 20L15 21L16 21L16 20ZM6 21L6 22L7 22L7 21ZM39 21L39 22L36 22L36 23L39 23L39 22L40 22L40 24L41 24L41 22L40 22L40 21ZM24 22L24 24L26 24L26 25L24 25L24 27L25 27L25 26L27 26L27 24L28 24L28 23L27 23L27 22L26 22L26 23L25 23L25 22ZM8 23L8 24L9 24L9 23ZM29 23L29 25L30 25L30 23ZM33 23L33 26L32 26L32 27L31 27L31 26L30 26L30 27L28 27L28 29L27 29L27 30L26 30L26 29L25 29L25 30L24 30L24 29L23 29L23 31L24 31L24 32L23 32L23 34L19 34L19 35L18 35L18 34L17 34L17 35L18 35L18 36L19 36L19 37L17 37L17 36L16 36L16 38L19 38L19 37L22 37L22 35L23 35L23 34L25 34L25 33L24 33L24 32L25 32L25 31L26 31L26 32L29 32L29 33L30 33L30 31L29 31L29 29L30 29L30 30L31 30L31 31L32 31L32 28L33 28L33 26L34 26L34 23ZM8 25L8 26L9 26L9 25ZM6 26L6 27L7 27L7 26ZM22 26L22 28L23 28L23 26ZM37 26L37 27L38 27L38 28L39 28L39 27L38 27L38 26ZM26 27L26 28L27 28L27 27ZM30 27L30 28L31 28L31 27ZM34 27L34 28L35 28L35 29L34 29L34 30L33 30L33 31L34 31L34 32L35 32L35 31L36 31L36 32L37 32L37 33L38 33L38 34L40 34L40 33L39 33L39 31L38 31L38 30L40 30L40 29L37 29L37 28L36 28L36 27ZM3 29L3 30L2 30L2 31L3 31L3 32L4 32L4 31L5 31L5 29ZM6 29L6 30L7 30L7 31L6 31L6 32L7 32L7 31L8 31L8 29ZM3 30L3 31L4 31L4 30ZM18 30L18 31L19 31L19 32L20 32L20 31L22 31L22 30L20 30L20 31L19 31L19 30ZM27 30L27 31L28 31L28 30ZM36 30L36 31L37 31L37 30ZM15 31L15 32L16 32L16 31ZM21 32L21 33L22 33L22 32ZM31 32L31 33L32 33L32 32ZM33 33L33 36L36 36L36 33ZM9 34L9 35L10 35L10 36L11 36L11 35L10 35L10 34ZM29 34L29 35L30 35L30 37L29 37L29 38L31 38L31 36L32 36L32 34ZM34 34L34 35L35 35L35 34ZM19 35L19 36L20 36L20 35ZM27 35L27 36L28 36L28 35ZM37 35L37 37L32 37L32 38L33 38L33 39L34 39L34 40L35 40L35 39L36 39L36 38L37 38L37 37L39 37L39 38L38 38L38 39L39 39L39 38L40 38L40 37L39 37L39 36L40 36L40 35ZM26 38L26 39L27 39L27 38ZM18 39L18 40L19 40L19 39ZM40 40L40 41L41 41L41 40ZM0 0L0 7L7 7L7 0ZM1 1L1 6L6 6L6 1ZM2 2L2 5L5 5L5 2ZM34 0L34 7L41 7L41 0ZM35 1L35 6L40 6L40 1ZM36 2L36 5L39 5L39 2ZM0 34L0 41L7 41L7 34ZM1 35L1 40L6 40L6 35ZM2 36L2 39L5 39L5 36Z" fill="#000000"/></g></g></svg>
