<?xml version="1.0" encoding="UTF-8"?>
<svg xmlns="http://www.w3.org/2000/svg" version="1.1" width="200" height="200" viewBox="0 0 200 200"><rect x="0" y="0" width="200" height="200" fill="#ffffff"/><g transform="scale(4.878)"><g transform="translate(0,0)"><path fill-rule="evenodd" d="M8 0L8 3L9 3L9 5L8 5L8 9L7 9L7 8L6 8L6 9L5 9L5 8L2 8L2 12L1 12L1 13L5 13L5 14L3 14L3 15L2 15L2 16L3 16L3 15L5 15L5 14L6 14L6 15L7 15L7 14L6 14L6 13L8 13L8 12L10 12L10 13L9 13L9 14L8 14L8 16L9 16L9 15L10 15L10 18L9 18L9 20L10 20L10 22L8 22L8 17L7 17L7 16L4 16L4 17L7 17L7 18L5 18L5 19L4 19L4 18L3 18L3 17L1 17L1 14L0 14L0 19L1 19L1 20L3 20L3 21L4 21L4 22L2 22L2 21L0 21L0 22L2 22L2 23L0 23L0 24L1 24L1 26L2 26L2 27L0 27L0 33L1 33L1 30L5 30L5 26L6 26L6 27L8 27L8 28L6 28L6 29L7 29L7 30L6 30L6 31L7 31L7 30L9 30L9 29L10 29L10 31L8 31L8 32L9 32L9 33L8 33L8 34L9 34L9 35L10 35L10 36L8 36L8 39L10 39L10 40L9 40L9 41L10 41L10 40L11 40L11 41L12 41L12 39L14 39L14 37L15 37L15 41L16 41L16 40L18 40L18 41L24 41L24 40L25 40L25 38L24 38L24 36L23 36L23 34L27 34L27 36L28 36L28 34L27 34L27 33L29 33L29 36L31 36L31 35L32 35L32 37L36 37L36 38L33 38L33 39L31 39L31 37L30 37L30 38L29 38L29 37L28 37L28 38L27 38L27 37L26 37L26 38L27 38L27 39L26 39L26 41L27 41L27 40L28 40L28 39L30 39L30 40L29 40L29 41L30 41L30 40L33 40L33 41L34 41L34 40L33 40L33 39L35 39L35 40L36 40L36 39L37 39L37 40L40 40L40 38L41 38L41 37L39 37L39 36L41 36L41 35L40 35L40 34L41 34L41 33L40 33L40 32L38 32L38 31L40 31L40 30L41 30L41 29L39 29L39 30L38 30L38 31L36 31L36 30L37 30L37 29L36 29L36 28L38 28L38 26L39 26L39 28L40 28L40 26L41 26L41 23L39 23L39 24L40 24L40 26L39 26L39 25L36 25L36 24L37 24L37 20L38 20L38 22L39 22L39 20L38 20L38 19L40 19L40 18L41 18L41 16L40 16L40 18L37 18L37 17L39 17L39 16L37 16L37 15L36 15L36 14L37 14L37 13L36 13L36 14L35 14L35 17L34 17L34 16L32 16L32 17L31 17L31 13L33 13L33 14L32 14L32 15L34 15L34 13L35 13L35 11L37 11L37 12L38 12L38 11L39 11L39 14L41 14L41 12L40 12L40 10L41 10L41 8L38 8L38 9L40 9L40 10L37 10L37 9L36 9L36 8L33 8L33 5L32 5L32 4L33 4L33 3L32 3L32 4L30 4L30 5L29 5L29 4L28 4L28 5L27 5L27 4L25 4L25 2L24 2L24 1L25 1L25 0L24 0L24 1L22 1L22 2L21 2L21 0L20 0L20 1L19 1L19 2L18 2L18 3L19 3L19 4L15 4L15 5L14 5L14 8L15 8L15 5L19 5L19 6L18 6L18 7L17 7L17 6L16 6L16 8L21 8L21 9L20 9L20 11L19 11L19 9L17 9L17 10L18 10L18 11L17 11L17 13L18 13L18 11L19 11L19 13L20 13L20 14L21 14L21 17L20 17L20 16L19 16L19 17L18 17L18 16L17 16L17 15L19 15L19 14L17 14L17 15L16 15L16 14L15 14L15 13L14 13L14 12L13 12L13 11L16 11L16 10L14 10L14 9L12 9L12 10L10 10L10 9L11 9L11 8L10 8L10 9L9 9L9 6L10 6L10 7L11 7L11 6L12 6L12 7L13 7L13 4L11 4L11 3L12 3L12 1L11 1L11 3L10 3L10 0ZM14 0L14 1L16 1L16 3L17 3L17 1L18 1L18 0L17 0L17 1L16 1L16 0ZM26 0L26 1L27 1L27 2L26 2L26 3L31 3L31 2L30 2L30 1L32 1L32 2L33 2L33 0L29 0L29 1L27 1L27 0ZM13 2L13 3L15 3L15 2ZM19 2L19 3L20 3L20 2ZM22 2L22 3L24 3L24 2ZM19 4L19 5L20 5L20 6L19 6L19 7L20 7L20 6L21 6L21 8L22 8L22 9L21 9L21 10L22 10L22 9L23 9L23 11L20 11L20 13L22 13L22 14L23 14L23 13L25 13L25 12L26 12L26 13L27 13L27 12L28 12L28 13L29 13L29 14L27 14L27 15L25 15L25 14L24 14L24 15L23 15L23 16L24 16L24 17L21 17L21 19L20 19L20 18L17 18L17 19L15 19L15 18L16 18L16 17L17 17L17 16L16 16L16 15L15 15L15 16L16 16L16 17L15 17L15 18L14 18L14 15L13 15L13 14L14 14L14 13L13 13L13 14L11 14L11 13L10 13L10 15L11 15L11 19L12 19L12 20L14 20L14 22L12 22L12 21L11 21L11 23L15 23L15 22L16 22L16 24L12 24L12 26L11 26L11 28L12 28L12 26L15 26L15 27L16 27L16 30L15 30L15 29L14 29L14 27L13 27L13 31L14 31L14 30L15 30L15 31L16 31L16 30L18 30L18 31L17 31L17 32L18 32L18 35L17 35L17 34L16 34L16 32L15 32L15 34L16 34L16 35L15 35L15 37L16 37L16 38L17 38L17 39L18 39L18 38L17 38L17 36L18 36L18 37L19 37L19 38L20 38L20 36L21 36L21 38L23 38L23 37L22 37L22 34L23 34L23 33L24 33L24 32L25 32L25 33L27 33L27 32L26 32L26 31L27 31L27 30L26 30L26 31L25 31L25 30L24 30L24 29L26 29L26 28L25 28L25 26L26 26L26 27L27 27L27 28L31 28L31 29L30 29L30 30L29 30L29 29L28 29L28 30L29 30L29 31L28 31L28 32L31 32L31 31L30 31L30 30L32 30L32 31L33 31L33 32L36 32L36 31L34 31L34 30L36 30L36 29L35 29L35 26L36 26L36 25L35 25L35 24L36 24L36 23L33 23L33 22L34 22L34 21L35 21L35 22L36 22L36 21L35 21L35 19L36 19L36 20L37 20L37 18L36 18L36 17L37 17L37 16L36 16L36 17L35 17L35 19L34 19L34 18L33 18L33 17L32 17L32 18L31 18L31 17L29 17L29 16L30 16L30 15L29 15L29 14L30 14L30 13L29 13L29 12L30 12L30 10L31 10L31 12L33 12L33 13L34 13L34 12L33 12L33 11L34 11L34 9L33 9L33 8L32 8L32 5L31 5L31 7L30 7L30 6L29 6L29 7L28 7L28 6L27 6L27 5L26 5L26 6L25 6L25 8L22 8L22 6L23 6L23 7L24 7L24 5L25 5L25 4L21 4L21 5L20 5L20 4ZM21 5L21 6L22 6L22 5ZM26 6L26 7L27 7L27 6ZM26 8L26 9L24 9L24 10L26 10L26 11L28 11L28 10L30 10L30 9L31 9L31 10L33 10L33 9L31 9L31 8L29 8L29 9L28 9L28 8ZM0 9L0 11L1 11L1 9ZM3 9L3 11L4 11L4 10L5 10L5 9ZM6 9L6 10L7 10L7 9ZM27 9L27 10L28 10L28 9ZM35 9L35 10L36 10L36 9ZM12 10L12 11L13 11L13 10ZM5 11L5 12L8 12L8 11ZM10 11L10 12L11 12L11 11ZM23 11L23 12L22 12L22 13L23 13L23 12L25 12L25 11ZM28 15L28 16L29 16L29 15ZM12 16L12 17L13 17L13 16ZM26 16L26 17L24 17L24 19L23 19L23 18L22 18L22 21L23 21L23 20L24 20L24 21L25 21L25 20L26 20L26 22L27 22L27 23L28 23L28 22L27 22L27 20L28 20L28 21L29 21L29 20L28 20L28 18L27 18L27 20L26 20L26 19L25 19L25 18L26 18L26 17L27 17L27 16ZM1 18L1 19L2 19L2 18ZM12 18L12 19L14 19L14 18ZM30 18L30 19L31 19L31 18ZM6 19L6 20L7 20L7 19ZM17 19L17 20L15 20L15 21L17 21L17 22L18 22L18 23L19 23L19 24L20 24L20 23L21 23L21 25L22 25L22 27L24 27L24 25L25 25L25 24L26 24L26 26L27 26L27 27L28 27L28 26L27 26L27 25L29 25L29 26L30 26L30 25L31 25L31 26L32 26L32 25L34 25L34 26L33 26L33 27L31 27L31 28L33 28L33 29L32 29L32 30L33 30L33 29L34 29L34 28L33 28L33 27L34 27L34 26L35 26L35 25L34 25L34 24L26 24L26 23L25 23L25 22L24 22L24 23L23 23L23 22L20 22L20 23L19 23L19 21L20 21L20 20L19 20L19 19ZM18 20L18 21L19 21L19 20ZM30 20L30 21L31 21L31 22L33 22L33 21L34 21L34 20L33 20L33 21L31 21L31 20ZM40 20L40 21L41 21L41 20ZM5 21L5 23L4 23L4 24L3 24L3 23L2 23L2 25L3 25L3 26L5 26L5 25L6 25L6 26L7 26L7 25L9 25L9 26L8 26L8 27L10 27L10 25L11 25L11 24L10 24L10 25L9 25L9 23L8 23L8 22L7 22L7 21ZM6 22L6 23L5 23L5 24L4 24L4 25L5 25L5 24L6 24L6 25L7 25L7 24L8 24L8 23L7 23L7 22ZM29 22L29 23L30 23L30 22ZM6 23L6 24L7 24L7 23ZM22 23L22 25L24 25L24 24L23 24L23 23ZM17 24L17 25L16 25L16 27L18 27L18 28L17 28L17 29L18 29L18 30L19 30L19 29L20 29L20 31L21 31L21 33L22 33L22 32L24 32L24 31L23 31L23 30L22 30L22 29L23 29L23 28L20 28L20 27L21 27L21 26L20 26L20 25L19 25L19 26L20 26L20 27L18 27L18 24ZM2 27L2 28L1 28L1 29L4 29L4 28L3 28L3 27ZM11 29L11 30L12 30L12 29ZM3 31L3 32L2 32L2 33L4 33L4 31ZM10 31L10 32L11 32L11 34L12 34L12 32L11 32L11 31ZM5 32L5 33L7 33L7 32ZM13 32L13 35L12 35L12 37L11 37L11 38L10 38L10 39L11 39L11 38L12 38L12 37L13 37L13 36L14 36L14 32ZM19 32L19 33L20 33L20 32ZM37 32L37 33L38 33L38 35L37 35L37 36L39 36L39 33L38 33L38 32ZM30 33L30 35L31 35L31 33ZM33 33L33 36L36 36L36 33ZM19 34L19 35L21 35L21 34ZM34 34L34 35L35 35L35 34ZM16 35L16 36L17 36L17 35ZM25 35L25 36L26 36L26 35ZM37 38L37 39L38 39L38 38ZM20 39L20 40L21 40L21 39ZM22 39L22 40L23 40L23 39ZM13 40L13 41L14 41L14 40ZM0 0L0 7L7 7L7 0ZM1 1L1 6L6 6L6 1ZM2 2L2 5L5 5L5 2ZM34 0L34 7L41 7L41 0ZM35 1L35 6L40 6L40 1ZM36 2L36 5L39 5L39 2ZM0 34L0 41L7 41L7 34ZM1 35L1 40L6 40L6 35ZM2 36L2 39L5 39L5 36Z" fill="#000000"/></g></g></svg>
