<?xml version="1.0" encoding="UTF-8"?>
<svg xmlns="http://www.w3.org/2000/svg" version="1.1" width="200" height="200" viewBox="0 0 200 200"><rect x="0" y="0" width="200" height="200" fill="#ffffff"/><g transform="scale(6.897)"><g transform="translate(0,0)"><path fill-rule="evenodd" d="M8 0L8 3L10 3L10 4L9 4L9 5L8 5L8 9L7 9L7 8L6 8L6 9L7 9L7 10L5 10L5 8L2 8L2 9L4 9L4 10L2 10L2 11L0 11L0 12L1 12L1 14L2 14L2 13L3 13L3 12L2 12L2 11L5 11L5 12L4 12L4 18L6 18L6 19L4 19L4 20L2 20L2 21L8 21L8 22L9 22L9 21L8 21L8 19L9 19L9 20L11 20L11 19L12 19L12 17L11 17L11 16L12 16L12 11L13 11L13 14L14 14L14 15L13 15L13 17L14 17L14 18L15 18L15 17L16 17L16 18L19 18L19 17L18 17L18 16L19 16L19 14L18 14L18 13L20 13L20 12L21 12L21 11L20 11L20 10L22 10L22 9L23 9L23 10L24 10L24 8L21 8L21 9L20 9L20 7L21 7L21 5L20 5L20 4L21 4L21 3L20 3L20 4L19 4L19 3L18 3L18 4L17 4L17 3L15 3L15 2L16 2L16 1L15 1L15 0L13 0L13 1L12 1L12 2L13 2L13 1L15 1L15 2L14 2L14 4L13 4L13 3L11 3L11 0ZM9 1L9 2L10 2L10 1ZM18 1L18 2L19 2L19 1ZM20 1L20 2L21 2L21 1ZM10 4L10 5L9 5L9 7L10 7L10 11L9 11L9 9L8 9L8 10L7 10L7 11L6 11L6 12L5 12L5 14L7 14L7 15L5 15L5 16L7 16L7 17L6 17L6 18L7 18L7 17L9 17L9 18L10 18L10 16L7 16L7 15L10 15L10 14L11 14L11 13L6 13L6 12L8 12L8 11L9 11L9 12L11 12L11 11L12 11L12 10L13 10L13 9L12 9L12 6L13 6L13 7L14 7L14 8L16 8L16 6L17 6L17 7L18 7L18 6L19 6L19 7L20 7L20 6L19 6L19 5L18 5L18 6L17 6L17 4L16 4L16 5L15 5L15 7L14 7L14 5L13 5L13 4L12 4L12 5L11 5L11 4ZM10 5L10 7L11 7L11 5ZM17 8L17 9L19 9L19 10L20 10L20 9L19 9L19 8ZM26 8L26 9L25 9L25 12L24 12L24 11L22 11L22 12L23 12L23 13L21 13L21 15L22 15L22 14L23 14L23 13L24 13L24 20L23 20L23 19L22 19L22 18L20 18L20 19L21 19L21 20L20 20L20 25L19 25L19 24L18 24L18 23L16 23L16 24L17 24L17 25L16 25L16 26L15 26L15 23L14 23L14 22L13 22L13 21L15 21L15 20L16 20L16 22L17 22L17 19L15 19L15 20L13 20L13 21L10 21L10 23L9 23L9 24L8 24L8 27L9 27L9 28L10 28L10 29L11 29L11 28L13 28L13 29L15 29L15 28L14 28L14 27L18 27L18 29L28 29L28 28L29 28L29 27L28 27L28 25L26 25L26 24L25 24L25 22L26 22L26 23L27 23L27 22L26 22L26 21L25 21L25 20L28 20L28 22L29 22L29 20L28 20L28 19L27 19L27 17L28 17L28 15L27 15L27 14L26 14L26 13L25 13L25 12L27 12L27 13L28 13L28 10L29 10L29 8ZM11 9L11 10L12 10L12 9ZM15 9L15 10L14 10L14 12L15 12L15 11L16 11L16 13L15 13L15 14L16 14L16 15L14 15L14 17L15 17L15 16L16 16L16 15L17 15L17 16L18 16L18 14L17 14L17 11L16 11L16 9ZM26 10L26 11L27 11L27 10ZM18 11L18 12L19 12L19 11ZM1 15L1 17L0 17L0 21L1 21L1 18L2 18L2 19L3 19L3 17L2 17L2 15ZM25 15L25 16L27 16L27 15ZM20 16L20 17L22 17L22 16ZM25 18L25 19L26 19L26 18ZM6 19L6 20L7 20L7 19ZM18 19L18 20L19 20L19 19ZM21 21L21 24L24 24L24 21ZM11 22L11 23L10 23L10 24L9 24L9 25L10 25L10 26L9 26L9 27L10 27L10 28L11 28L11 27L12 27L12 26L11 26L11 24L12 24L12 25L13 25L13 26L14 26L14 23L12 23L12 22ZM22 22L22 23L23 23L23 22ZM17 25L17 26L18 26L18 27L19 27L19 28L22 28L22 27L21 27L21 26L20 26L20 27L19 27L19 25ZM22 25L22 26L23 26L23 27L27 27L27 26L24 26L24 25ZM10 26L10 27L11 27L11 26ZM0 0L0 7L7 7L7 0ZM1 1L1 6L6 6L6 1ZM2 2L2 5L5 5L5 2ZM22 0L22 7L29 7L29 0ZM23 1L23 6L28 6L28 1ZM24 2L24 5L27 5L27 2ZM0 22L0 29L7 29L7 22ZM1 23L1 28L6 28L6 23ZM2 24L2 27L5 27L5 24Z" fill="#000000"/></g></g></svg>
