<?xml version="1.0" encoding="UTF-8"?>
<svg xmlns="http://www.w3.org/2000/svg" version="1.1" width="200" height="200" viewBox="0 0 200 200"><rect x="0" y="0" width="200" height="200" fill="#ffffff"/><g transform="scale(4.878)"><g transform="translate(0,0)"><path fill-rule="evenodd" d="M8 0L8 2L9 2L9 3L8 3L8 7L9 7L9 3L10 3L10 8L9 8L9 9L8 9L8 10L5 10L5 9L4 9L4 8L3 8L3 9L4 9L4 10L1 10L1 11L2 11L2 12L1 12L1 13L0 13L0 14L2 14L2 13L3 13L3 14L4 14L4 15L3 15L3 16L2 16L2 15L1 15L1 16L0 16L0 17L1 17L1 18L0 18L0 19L1 19L1 18L2 18L2 19L3 19L3 20L2 20L2 21L1 21L1 22L5 22L5 21L8 21L8 22L6 22L6 23L8 23L8 24L9 24L9 25L10 25L10 26L8 26L8 25L7 25L7 24L6 24L6 25L4 25L4 26L5 26L5 28L6 28L6 29L5 29L5 31L4 31L4 32L3 32L3 29L4 29L4 27L3 27L3 28L2 28L2 26L3 26L3 24L4 24L4 23L2 23L2 25L0 25L0 27L1 27L1 28L2 28L2 32L3 32L3 33L4 33L4 32L5 32L5 33L8 33L8 34L10 34L10 33L9 33L9 32L10 32L10 31L12 31L12 30L14 30L14 32L15 32L15 33L16 33L16 32L17 32L17 31L18 31L18 30L19 30L19 32L20 32L20 30L21 30L21 32L22 32L22 33L21 33L21 34L19 34L19 33L18 33L18 36L19 36L19 37L17 37L17 34L13 34L13 32L11 32L11 34L13 34L13 35L16 35L16 38L18 38L18 39L19 39L19 40L20 40L20 41L23 41L23 40L22 40L22 39L21 39L21 40L20 40L20 38L24 38L24 41L26 41L26 40L25 40L25 39L27 39L27 38L26 38L26 37L25 37L25 36L27 36L27 35L25 35L25 34L26 34L26 32L31 32L31 34L32 34L32 37L31 37L31 39L30 39L30 37L28 37L28 39L29 39L29 40L28 40L28 41L33 41L33 39L32 39L32 37L34 37L34 38L36 38L36 40L37 40L37 41L40 41L40 39L41 39L41 38L40 38L40 37L41 37L41 35L37 35L37 33L39 33L39 34L41 34L41 32L40 32L40 33L39 33L39 32L35 32L35 31L34 31L34 30L32 30L32 29L33 29L33 28L31 28L31 27L30 27L30 26L29 26L29 25L30 25L30 24L31 24L31 23L33 23L33 21L32 21L32 22L31 22L31 20L32 20L32 19L34 19L34 23L37 23L37 24L38 24L38 25L37 25L37 27L38 27L38 26L39 26L39 25L40 25L40 24L41 24L41 23L40 23L40 22L38 22L38 23L37 23L37 22L36 22L36 21L40 21L40 20L41 20L41 16L39 16L39 17L38 17L38 19L40 19L40 20L37 20L37 19L36 19L36 21L35 21L35 19L34 19L34 18L35 18L35 17L36 17L36 15L37 15L37 16L38 16L38 13L39 13L39 15L41 15L41 14L40 14L40 13L41 13L41 12L40 12L40 13L39 13L39 11L38 11L38 13L37 13L37 14L36 14L36 13L34 13L34 12L36 12L36 11L37 11L37 10L38 10L38 8L35 8L35 9L34 9L34 10L33 10L33 11L32 11L32 10L31 10L31 8L32 8L32 9L33 9L33 8L32 8L32 7L33 7L33 6L32 6L32 5L33 5L33 3L32 3L32 5L31 5L31 1L33 1L33 0L31 0L31 1L30 1L30 0L27 0L27 2L26 2L26 3L25 3L25 2L24 2L24 0L22 0L22 1L20 1L20 5L19 5L19 3L18 3L18 7L19 7L19 8L17 8L17 9L15 9L15 8L16 8L16 7L17 7L17 4L16 4L16 7L15 7L15 4L13 4L13 3L12 3L12 1L14 1L14 3L15 3L15 1L14 1L14 0L11 0L11 3L10 3L10 0ZM17 0L17 1L16 1L16 2L17 2L17 1L18 1L18 2L19 2L19 0ZM22 1L22 2L23 2L23 1ZM28 1L28 2L27 2L27 3L26 3L26 5L25 5L25 4L24 4L24 3L23 3L23 4L24 4L24 5L23 5L23 8L22 8L22 11L21 11L21 10L20 10L20 8L21 8L21 7L22 7L22 5L21 5L21 7L20 7L20 6L19 6L19 7L20 7L20 8L19 8L19 9L17 9L17 10L16 10L16 11L18 11L18 13L17 13L17 12L16 12L16 14L17 14L17 15L18 15L18 13L19 13L19 16L20 16L20 14L21 14L21 13L20 13L20 11L21 11L21 12L22 12L22 11L23 11L23 12L24 12L24 15L25 15L25 12L26 12L26 15L27 15L27 16L28 16L28 17L26 17L26 16L23 16L23 13L22 13L22 15L21 15L21 16L22 16L22 17L19 17L19 18L18 18L18 16L17 16L17 18L18 18L18 20L17 20L17 19L16 19L16 17L14 17L14 16L15 16L15 14L14 14L14 12L15 12L15 11L14 11L14 10L15 10L15 9L14 9L14 8L15 8L15 7L14 7L14 6L13 6L13 7L14 7L14 8L11 8L11 9L10 9L10 10L11 10L11 9L12 9L12 11L11 11L11 12L12 12L12 11L14 11L14 12L13 12L13 13L11 13L11 14L9 14L9 15L6 15L6 14L7 14L7 13L6 13L6 12L7 12L7 11L5 11L5 10L4 10L4 11L5 11L5 13L6 13L6 14L5 14L5 15L4 15L4 16L3 16L3 17L2 17L2 16L1 16L1 17L2 17L2 18L3 18L3 19L4 19L4 18L5 18L5 19L6 19L6 20L7 20L7 19L9 19L9 20L8 20L8 21L10 21L10 22L12 22L12 21L14 21L14 22L13 22L13 24L12 24L12 25L11 25L11 26L13 26L13 25L14 25L14 24L15 24L15 22L16 22L16 23L18 23L18 25L17 25L17 28L16 28L16 29L15 29L15 28L14 28L14 29L15 29L15 30L16 30L16 31L15 31L15 32L16 32L16 31L17 31L17 30L16 30L16 29L19 29L19 30L20 30L20 29L19 29L19 27L18 27L18 26L19 26L19 22L22 22L22 21L23 21L23 19L22 19L22 21L19 21L19 22L18 22L18 20L19 20L19 19L21 19L21 18L22 18L22 17L25 17L25 19L24 19L24 21L25 21L25 22L24 22L24 23L25 23L25 24L24 24L24 26L20 26L20 28L22 28L22 27L24 27L24 26L26 26L26 27L25 27L25 28L24 28L24 29L21 29L21 30L24 30L24 29L26 29L26 30L27 30L27 31L29 31L29 30L31 30L31 28L30 28L30 29L28 29L28 28L29 28L29 26L28 26L28 25L29 25L29 24L30 24L30 23L31 23L31 22L30 22L30 23L29 23L29 22L28 22L28 21L27 21L27 20L26 20L26 21L25 21L25 19L28 19L28 18L29 18L29 19L30 19L30 18L31 18L31 19L32 19L32 17L35 17L35 15L34 15L34 14L33 14L33 12L32 12L32 11L31 11L31 10L29 10L29 9L30 9L30 8L31 8L31 7L32 7L32 6L31 6L31 7L30 7L30 4L29 4L29 3L30 3L30 1ZM21 3L21 4L22 4L22 3ZM12 4L12 5L11 5L11 7L12 7L12 5L13 5L13 4ZM27 4L27 6L26 6L26 7L25 7L25 5L24 5L24 7L25 7L25 8L26 8L26 7L27 7L27 6L28 6L28 7L29 7L29 8L30 8L30 7L29 7L29 6L28 6L28 5L29 5L29 4ZM6 8L6 9L7 9L7 8ZM23 8L23 11L25 11L25 10L26 10L26 12L28 12L28 13L27 13L27 15L28 15L28 16L29 16L29 17L30 17L30 15L29 15L29 14L30 14L30 13L31 13L31 12L28 12L28 11L29 11L29 10L28 10L28 11L27 11L27 10L26 10L26 9L25 9L25 10L24 10L24 8ZM39 8L39 9L40 9L40 10L41 10L41 8ZM13 9L13 10L14 10L14 9ZM36 9L36 10L35 10L35 11L36 11L36 10L37 10L37 9ZM8 12L8 13L10 13L10 12ZM28 13L28 14L29 14L29 13ZM13 14L13 15L14 15L14 14ZM32 14L32 15L31 15L31 17L32 17L32 15L33 15L33 14ZM10 15L10 16L5 16L5 17L7 17L7 18L6 18L6 19L7 19L7 18L9 18L9 17L11 17L11 18L13 18L13 17L12 17L12 16L11 16L11 15ZM3 17L3 18L4 18L4 17ZM14 18L14 19L15 19L15 18ZM11 19L11 20L10 20L10 21L11 21L11 20L13 20L13 19ZM14 20L14 21L15 21L15 20ZM16 21L16 22L17 22L17 21ZM26 21L26 22L27 22L27 21ZM8 22L8 23L9 23L9 24L10 24L10 23L9 23L9 22ZM0 23L0 24L1 24L1 23ZM20 23L20 24L21 24L21 25L23 25L23 23ZM26 23L26 24L25 24L25 25L28 25L28 23ZM32 24L32 25L31 25L31 26L33 26L33 24ZM34 24L34 25L35 25L35 26L34 26L34 27L35 27L35 29L36 29L36 27L35 27L35 26L36 26L36 24ZM6 25L6 26L7 26L7 27L6 27L6 28L7 28L7 29L6 29L6 30L7 30L7 29L8 29L8 30L12 30L12 29L13 29L13 27L11 27L11 28L12 28L12 29L8 29L8 28L9 28L9 27L8 27L8 26L7 26L7 25ZM40 26L40 28L41 28L41 26ZM26 27L26 29L27 29L27 30L28 30L28 29L27 29L27 28L28 28L28 27ZM37 28L37 30L36 30L36 31L39 31L39 30L40 30L40 31L41 31L41 29L39 29L39 28ZM38 29L38 30L39 30L39 29ZM0 30L0 31L1 31L1 30ZM5 31L5 32L7 32L7 31ZM25 31L25 32L26 32L26 31ZM33 31L33 32L34 32L34 31ZM0 32L0 33L1 33L1 32ZM22 33L22 34L23 34L23 35L22 35L22 36L20 36L20 35L19 35L19 36L20 36L20 37L23 37L23 35L24 35L24 34L25 34L25 33L24 33L24 34L23 34L23 33ZM33 33L33 36L36 36L36 33ZM29 34L29 35L28 35L28 36L30 36L30 34ZM34 34L34 35L35 35L35 34ZM9 35L9 37L8 37L8 38L9 38L9 37L10 37L10 36L11 36L11 35ZM12 36L12 37L14 37L14 38L13 38L13 39L12 39L12 38L11 38L11 40L12 40L12 41L14 41L14 40L15 40L15 36ZM38 36L38 37L40 37L40 36ZM36 37L36 38L37 38L37 40L38 40L38 38L37 38L37 37ZM39 38L39 39L40 39L40 38ZM9 39L9 41L10 41L10 39ZM16 39L16 40L17 40L17 41L18 41L18 40L17 40L17 39ZM31 39L31 40L32 40L32 39ZM0 0L0 7L7 7L7 0ZM1 1L1 6L6 6L6 1ZM2 2L2 5L5 5L5 2ZM34 0L34 7L41 7L41 0ZM35 1L35 6L40 6L40 1ZM36 2L36 5L39 5L39 2ZM0 34L0 41L7 41L7 34ZM1 35L1 40L6 40L6 35ZM2 36L2 39L5 39L5 36Z" fill="#000000"/></g></g></svg>
