<?xml version="1.0" encoding="UTF-8"?>
<svg xmlns="http://www.w3.org/2000/svg" version="1.1" width="200" height="200" viewBox="0 0 200 200"><rect x="0" y="0" width="200" height="200" fill="#ffffff"/><g transform="scale(6.897)"><g transform="translate(0,0)"><path fill-rule="evenodd" d="M8 0L8 1L9 1L9 2L11 2L11 3L10 3L10 4L9 4L9 3L8 3L8 4L9 4L9 5L10 5L10 8L8 8L8 9L10 9L10 8L11 8L11 10L6 10L6 11L5 11L5 13L8 13L8 12L9 12L9 11L11 11L11 12L10 12L10 13L9 13L9 16L8 16L8 14L5 14L5 16L3 16L3 15L4 15L4 14L3 14L3 13L4 13L4 11L3 11L3 10L4 10L4 9L7 9L7 8L4 8L4 9L3 9L3 8L2 8L2 9L1 9L1 10L2 10L2 11L0 11L0 13L1 13L1 14L0 14L0 16L2 16L2 17L1 17L1 18L0 18L0 19L1 19L1 20L0 20L0 21L1 21L1 20L3 20L3 21L7 21L7 20L8 20L8 22L9 22L9 21L10 21L10 20L12 20L12 19L13 19L13 17L15 17L15 18L17 18L17 17L18 17L18 16L17 16L17 15L14 15L14 16L13 16L13 15L12 15L12 16L10 16L10 15L11 15L11 12L14 12L14 13L13 13L13 14L14 14L14 13L15 13L15 12L16 12L16 13L18 13L18 15L19 15L19 16L20 16L20 15L21 15L21 14L22 14L22 15L23 15L23 16L22 16L22 17L23 17L23 18L22 18L22 19L21 19L21 20L20 20L20 19L18 19L18 21L16 21L16 20L17 20L17 19L16 19L16 20L13 20L13 21L12 21L12 22L16 22L16 23L15 23L15 24L14 24L14 23L13 23L13 24L14 24L14 25L15 25L15 24L16 24L16 25L18 25L18 24L20 24L20 26L17 26L17 27L18 27L18 28L16 28L16 26L13 26L13 25L12 25L12 24L11 24L11 25L10 25L10 24L9 24L9 23L8 23L8 25L9 25L9 26L8 26L8 27L9 27L9 28L10 28L10 29L12 29L12 28L13 28L13 29L14 29L14 28L13 28L13 27L15 27L15 29L18 29L18 28L19 28L19 29L20 29L20 27L21 27L21 26L22 26L22 25L23 25L23 26L24 26L24 25L25 25L25 27L26 27L26 26L28 26L28 27L27 27L27 28L28 28L28 29L29 29L29 26L28 26L28 25L27 25L27 24L28 24L28 23L29 23L29 22L28 22L28 19L29 19L29 18L27 18L27 17L26 17L26 14L24 14L24 13L25 13L25 11L26 11L26 13L27 13L27 16L28 16L28 17L29 17L29 16L28 16L28 15L29 15L29 12L28 12L28 11L29 11L29 8L28 8L28 9L27 9L27 10L26 10L26 8L25 8L25 9L24 9L24 10L25 10L25 11L24 11L24 12L23 12L23 10L22 10L22 8L21 8L21 0L20 0L20 1L19 1L19 2L20 2L20 3L19 3L19 4L18 4L18 3L17 3L17 2L18 2L18 1L16 1L16 0L15 0L15 2L16 2L16 4L14 4L14 3L13 3L13 4L12 4L12 5L11 5L11 3L12 3L12 1L13 1L13 2L14 2L14 1L13 1L13 0L12 0L12 1L11 1L11 0ZM13 4L13 5L12 5L12 6L11 6L11 7L12 7L12 6L13 6L13 7L14 7L14 8L13 8L13 9L12 9L12 11L13 11L13 10L14 10L14 12L15 12L15 9L16 9L16 10L17 10L17 11L16 11L16 12L17 12L17 11L18 11L18 12L20 12L20 11L18 11L18 10L19 10L19 9L20 9L20 5L19 5L19 7L18 7L18 5L15 5L15 7L14 7L14 4ZM8 6L8 7L9 7L9 6ZM16 6L16 8L17 8L17 6ZM14 8L14 9L15 9L15 8ZM17 9L17 10L18 10L18 9ZM27 10L27 11L28 11L28 10ZM2 11L2 13L3 13L3 11ZM6 11L6 12L8 12L8 11ZM21 11L21 12L22 12L22 11ZM27 12L27 13L28 13L28 12ZM20 13L20 14L19 14L19 15L20 15L20 14L21 14L21 13ZM2 14L2 15L3 15L3 14ZM23 14L23 15L24 15L24 16L23 16L23 17L24 17L24 18L23 18L23 19L24 19L24 20L25 20L25 23L26 23L26 24L27 24L27 21L26 21L26 20L25 20L25 19L27 19L27 18L26 18L26 17L24 17L24 16L25 16L25 15L24 15L24 14ZM6 15L6 16L7 16L7 17L6 17L6 18L7 18L7 19L5 19L5 18L4 18L4 17L2 17L2 18L1 18L1 19L3 19L3 18L4 18L4 20L7 20L7 19L9 19L9 20L10 20L10 19L12 19L12 18L11 18L11 17L10 17L10 16L9 16L9 17L8 17L8 16L7 16L7 15ZM12 16L12 17L13 17L13 16ZM16 16L16 17L17 17L17 16ZM19 17L19 18L20 18L20 17ZM24 18L24 19L25 19L25 18ZM19 20L19 21L20 21L20 20ZM21 21L21 24L24 24L24 21ZM19 22L19 23L20 23L20 22ZM22 22L22 23L23 23L23 22ZM11 25L11 26L9 26L9 27L11 27L11 28L12 28L12 25ZM22 27L22 28L23 28L23 29L26 29L26 28L23 28L23 27ZM0 0L0 7L7 7L7 0ZM1 1L1 6L6 6L6 1ZM2 2L2 5L5 5L5 2ZM22 0L22 7L29 7L29 0ZM23 1L23 6L28 6L28 1ZM24 2L24 5L27 5L27 2ZM0 22L0 29L7 29L7 22ZM1 23L1 28L6 28L6 23ZM2 24L2 27L5 27L5 24Z" fill="#000000"/></g></g></svg>
