<?xml version="1.0" encoding="UTF-8"?>
<svg xmlns="http://www.w3.org/2000/svg" version="1.1" width="200" height="200" viewBox="0 0 200 200"><rect x="0" y="0" width="200" height="200" fill="#ffffff"/><g transform="scale(4.878)"><g transform="translate(0,0)"><path fill-rule="evenodd" d="M8 0L8 2L9 2L9 3L8 3L8 7L9 7L9 10L8 10L8 9L7 9L7 8L6 8L6 9L7 9L7 10L5 10L5 9L4 9L4 8L3 8L3 9L1 9L1 11L0 11L0 12L1 12L1 13L0 13L0 14L1 14L1 15L3 15L3 16L4 16L4 15L5 15L5 16L6 16L6 17L7 17L7 18L5 18L5 17L2 17L2 16L0 16L0 19L1 19L1 20L0 20L0 23L3 23L3 22L4 22L4 23L5 23L5 22L4 22L4 21L7 21L7 20L8 20L8 19L7 19L7 18L8 18L8 17L7 17L7 16L8 16L8 15L7 15L7 14L8 14L8 13L7 13L7 12L9 12L9 13L11 13L11 14L12 14L12 13L11 13L11 12L12 12L12 11L11 11L11 10L13 10L13 9L15 9L15 10L14 10L14 11L13 11L13 12L15 12L15 13L16 13L16 14L15 14L15 15L14 15L14 13L13 13L13 15L14 15L14 16L13 16L13 18L14 18L14 19L13 19L13 20L11 20L11 19L12 19L12 15L9 15L9 17L10 17L10 18L9 18L9 20L10 20L10 21L8 21L8 22L9 22L9 25L8 25L8 24L6 24L6 25L7 25L7 26L5 26L5 27L7 27L7 28L4 28L4 29L5 29L5 30L4 30L4 31L3 31L3 30L2 30L2 29L3 29L3 27L4 27L4 26L2 26L2 25L1 25L1 24L0 24L0 26L1 26L1 27L0 27L0 29L1 29L1 30L0 30L0 31L1 31L1 30L2 30L2 33L3 33L3 32L5 32L5 33L8 33L8 34L10 34L10 33L9 33L9 31L8 31L8 32L6 32L6 31L7 31L7 30L6 30L6 29L7 29L7 28L8 28L8 27L9 27L9 28L11 28L11 27L9 27L9 25L11 25L11 24L10 24L10 23L12 23L12 24L13 24L13 25L12 25L12 26L13 26L13 27L12 27L12 29L8 29L8 30L12 30L12 31L17 31L17 30L19 30L19 33L20 33L20 35L19 35L19 36L18 36L18 35L15 35L15 34L16 34L16 32L12 32L12 35L11 35L11 36L10 36L10 35L9 35L9 37L8 37L8 38L10 38L10 37L11 37L11 39L10 39L10 41L13 41L13 40L11 40L11 39L12 39L12 35L13 35L13 36L14 36L14 37L13 37L13 39L14 39L14 40L15 40L15 41L16 41L16 40L15 40L15 39L14 39L14 38L17 38L17 37L19 37L19 39L17 39L17 40L20 40L20 41L21 41L21 40L20 40L20 39L22 39L22 40L24 40L24 41L28 41L28 39L29 39L29 41L30 41L30 40L32 40L32 41L33 41L33 39L34 39L34 38L36 38L36 40L37 40L37 41L40 41L40 39L41 39L41 38L40 38L40 37L41 37L41 36L40 36L40 37L38 37L38 36L39 36L39 35L38 35L38 33L39 33L39 34L41 34L41 32L40 32L40 31L41 31L41 29L39 29L39 28L37 28L37 29L38 29L38 30L37 30L37 31L39 31L39 32L35 32L35 31L34 31L34 30L32 30L32 29L33 29L33 27L30 27L30 26L33 26L33 23L34 23L34 25L35 25L35 23L37 23L37 24L38 24L38 25L37 25L37 27L38 27L38 26L39 26L39 25L40 25L40 24L41 24L41 23L40 23L40 22L39 22L39 23L38 23L38 22L36 22L36 21L37 21L37 20L38 20L38 21L40 21L40 20L41 20L41 16L39 16L39 17L38 17L38 18L39 18L39 17L40 17L40 20L38 20L38 19L36 19L36 21L35 21L35 19L34 19L34 18L35 18L35 17L36 17L36 16L35 16L35 17L32 17L32 15L33 15L33 14L34 14L34 15L35 15L35 14L36 14L36 15L37 15L37 16L38 16L38 15L37 15L37 14L38 14L38 13L39 13L39 12L40 12L40 11L38 11L38 13L37 13L37 14L36 14L36 13L34 13L34 12L36 12L36 11L37 11L37 10L38 10L38 8L35 8L35 9L34 9L34 10L33 10L33 9L32 9L32 8L31 8L31 6L32 6L32 7L33 7L33 3L31 3L31 1L33 1L33 0L31 0L31 1L30 1L30 0L27 0L27 2L26 2L26 3L24 3L24 1L25 1L25 0L24 0L24 1L23 1L23 0L20 0L20 1L21 1L21 2L20 2L20 7L19 7L19 5L17 5L17 4L15 4L15 3L19 3L19 2L18 2L18 1L16 1L16 2L15 2L15 1L14 1L14 3L13 3L13 4L11 4L11 5L9 5L9 4L10 4L10 3L11 3L11 2L10 2L10 1L11 1L11 0L10 0L10 1L9 1L9 0ZM22 1L22 2L23 2L23 1ZM28 1L28 2L27 2L27 3L26 3L26 5L25 5L25 4L24 4L24 3L22 3L22 4L21 4L21 7L20 7L20 9L21 9L21 10L20 10L20 11L19 11L19 9L18 9L18 10L17 10L17 9L16 9L16 10L15 10L15 11L16 11L16 13L18 13L18 14L16 14L16 15L15 15L15 16L14 16L14 18L17 18L17 16L16 16L16 15L18 15L18 14L19 14L19 15L20 15L20 17L21 17L21 18L20 18L20 19L19 19L19 16L18 16L18 19L17 19L17 21L14 21L14 20L13 20L13 21L14 21L14 23L13 23L13 24L14 24L14 25L16 25L16 23L17 23L17 24L18 24L18 26L19 26L19 24L20 24L20 22L19 22L19 23L17 23L17 22L18 22L18 21L21 21L21 22L23 22L23 23L24 23L24 25L26 25L26 26L25 26L25 27L23 27L23 29L22 29L22 28L21 28L21 26L22 26L22 25L20 25L20 27L19 27L19 28L18 28L18 27L17 27L17 26L15 26L15 27L17 27L17 28L18 28L18 29L20 29L20 31L21 31L21 32L20 32L20 33L22 33L22 35L21 35L21 37L20 37L20 36L19 36L19 37L20 37L20 38L21 38L21 37L22 37L22 35L23 35L23 36L24 36L24 39L25 39L25 40L27 40L27 39L28 39L28 38L29 38L29 39L32 39L32 38L33 38L33 37L32 37L32 36L31 36L31 35L32 35L32 33L31 33L31 34L30 34L30 32L31 32L31 31L30 31L30 32L29 32L29 34L30 34L30 36L29 36L29 37L28 37L28 32L27 32L27 31L29 31L29 30L30 30L30 29L28 29L28 28L29 28L29 27L28 27L28 25L29 25L29 26L30 26L30 25L29 25L29 24L31 24L31 25L32 25L32 24L31 24L31 22L32 22L32 23L33 23L33 22L34 22L34 23L35 23L35 22L34 22L34 19L32 19L32 17L31 17L31 15L32 15L32 14L33 14L33 11L32 11L32 12L31 12L31 13L30 13L30 14L29 14L29 13L28 13L28 14L29 14L29 15L30 15L30 17L29 17L29 16L28 16L28 15L27 15L27 14L26 14L26 13L27 13L27 11L28 11L28 12L30 12L30 10L32 10L32 9L31 9L31 8L29 8L29 10L28 10L28 8L27 8L27 9L26 9L26 6L27 6L27 7L28 7L28 6L27 6L27 4L28 4L28 5L30 5L30 6L29 6L29 7L30 7L30 6L31 6L31 5L32 5L32 4L31 4L31 5L30 5L30 4L28 4L28 3L30 3L30 1ZM13 4L13 5L15 5L15 7L16 7L16 5L15 5L15 4ZM22 4L22 5L23 5L23 6L22 6L22 7L23 7L23 6L24 6L24 8L23 8L23 9L22 9L22 10L23 10L23 9L24 9L24 8L25 8L25 6L24 6L24 5L23 5L23 4ZM11 5L11 7L12 7L12 5ZM9 6L9 7L10 7L10 6ZM13 6L13 7L14 7L14 6ZM17 6L17 8L18 8L18 6ZM11 8L11 9L10 9L10 10L9 10L9 12L10 12L10 10L11 10L11 9L12 9L12 8ZM39 8L39 9L40 9L40 10L41 10L41 8ZM25 9L25 10L24 10L24 11L21 11L21 12L20 12L20 13L22 13L22 14L23 14L23 15L24 15L24 16L25 16L25 17L24 17L24 19L25 19L25 20L26 20L26 21L27 21L27 20L26 20L26 19L27 19L27 18L26 18L26 17L28 17L28 16L25 16L25 15L26 15L26 14L25 14L25 12L26 12L26 11L27 11L27 10L26 10L26 9ZM36 9L36 10L35 10L35 11L36 11L36 10L37 10L37 9ZM4 10L4 11L5 11L5 10ZM25 10L25 11L26 11L26 10ZM1 11L1 12L3 12L3 13L1 13L1 14L3 14L3 15L4 15L4 13L5 13L5 15L6 15L6 16L7 16L7 15L6 15L6 14L7 14L7 13L6 13L6 12L7 12L7 11L6 11L6 12L3 12L3 11ZM18 12L18 13L19 13L19 12ZM22 12L22 13L23 13L23 12ZM20 14L20 15L21 15L21 17L22 17L22 19L21 19L21 21L22 21L22 19L23 19L23 16L22 16L22 15L21 15L21 14ZM24 14L24 15L25 15L25 14ZM30 14L30 15L31 15L31 14ZM40 14L40 15L41 15L41 14ZM15 16L15 17L16 17L16 16ZM1 17L1 19L3 19L3 18L2 18L2 17ZM10 18L10 19L11 19L11 18ZM25 18L25 19L26 19L26 18ZM28 18L28 19L29 19L29 20L28 20L28 22L31 22L31 21L33 21L33 20L31 20L31 18L30 18L30 19L29 19L29 18ZM4 19L4 20L3 20L3 21L4 21L4 20L7 20L7 19ZM15 19L15 20L16 20L16 19ZM18 19L18 20L19 20L19 19ZM23 20L23 21L24 21L24 20ZM10 21L10 22L11 22L11 21ZM6 22L6 23L7 23L7 22ZM15 22L15 23L14 23L14 24L15 24L15 23L16 23L16 22ZM24 22L24 23L27 23L27 22ZM3 24L3 25L4 25L4 24ZM26 24L26 25L27 25L27 24ZM7 26L7 27L8 27L8 26ZM26 26L26 27L25 27L25 28L27 28L27 26ZM34 26L34 27L35 27L35 29L36 29L36 26ZM40 26L40 28L41 28L41 26ZM1 27L1 29L2 29L2 27ZM13 27L13 28L14 28L14 27ZM13 29L13 30L14 30L14 29ZM15 29L15 30L17 30L17 29ZM21 29L21 31L22 31L22 32L24 32L24 33L25 33L25 34L24 34L24 35L26 35L26 36L25 36L25 37L26 37L26 38L25 38L25 39L26 39L26 38L27 38L27 34L26 34L26 33L27 33L27 32L26 32L26 33L25 33L25 31L26 31L26 29L25 29L25 31L23 31L23 30L22 30L22 29ZM27 29L27 30L28 30L28 29ZM39 30L39 31L40 31L40 30ZM10 31L10 32L11 32L11 31ZM33 31L33 32L34 32L34 31ZM0 32L0 33L1 33L1 32ZM13 33L13 35L14 35L14 36L15 36L15 37L16 37L16 36L15 36L15 35L14 35L14 34L15 34L15 33ZM33 33L33 36L36 36L36 33ZM34 34L34 35L35 35L35 34ZM29 37L29 38L30 38L30 37ZM31 37L31 38L32 38L32 37ZM36 37L36 38L37 38L37 40L38 40L38 38L37 38L37 37ZM39 38L39 39L40 39L40 38ZM0 0L0 7L7 7L7 0ZM1 1L1 6L6 6L6 1ZM2 2L2 5L5 5L5 2ZM34 0L34 7L41 7L41 0ZM35 1L35 6L40 6L40 1ZM36 2L36 5L39 5L39 2ZM0 34L0 41L7 41L7 34ZM1 35L1 40L6 40L6 35ZM2 36L2 39L5 39L5 36Z" fill="#000000"/></g></g></svg>
