<?xml version="1.0" encoding="UTF-8"?>
<svg xmlns="http://www.w3.org/2000/svg" version="1.1" width="200" height="200" viewBox="0 0 200 200"><rect x="0" y="0" width="200" height="200" fill="#ffffff"/><g transform="scale(4.878)"><g transform="translate(0,0)"><path fill-rule="evenodd" d="M8 0L8 2L9 2L9 0ZM12 0L12 1L11 1L11 2L12 2L12 3L11 3L11 6L10 6L10 7L9 7L9 5L10 5L10 4L9 4L9 3L8 3L8 7L9 7L9 9L7 9L7 8L6 8L6 9L7 9L7 10L6 10L6 11L5 11L5 10L3 10L3 9L4 9L4 8L3 8L3 9L1 9L1 10L0 10L0 11L1 11L1 12L0 12L0 13L1 13L1 14L2 14L2 12L6 12L6 13L4 13L4 14L5 14L5 16L6 16L6 17L7 17L7 18L5 18L5 17L4 17L4 15L2 15L2 16L3 16L3 17L4 17L4 19L3 19L3 18L1 18L1 16L0 16L0 19L2 19L2 20L3 20L3 21L4 21L4 20L6 20L6 21L7 21L7 20L6 20L6 19L8 19L8 18L9 18L9 20L8 20L8 24L4 24L4 23L7 23L7 22L4 22L4 23L1 23L1 24L2 24L2 25L0 25L0 26L2 26L2 25L3 25L3 26L5 26L5 27L2 27L2 28L4 28L4 30L3 30L3 31L2 31L2 32L3 32L3 33L7 33L7 32L5 32L5 29L7 29L7 28L6 28L6 27L7 27L7 26L5 26L5 25L8 25L8 24L9 24L9 23L11 23L11 24L12 24L12 25L11 25L11 28L12 28L12 30L11 30L11 29L10 29L10 25L9 25L9 26L8 26L8 30L6 30L6 31L8 31L8 32L9 32L9 33L8 33L8 34L9 34L9 37L8 37L8 38L9 38L9 39L10 39L10 40L9 40L9 41L10 41L10 40L11 40L11 41L12 41L12 40L13 40L13 41L14 41L14 40L15 40L15 41L24 41L24 39L23 39L23 40L22 40L22 39L21 39L21 38L22 38L22 35L24 35L24 36L23 36L23 37L24 37L24 38L25 38L25 39L26 39L26 41L27 41L27 40L28 40L28 39L27 39L27 36L26 36L26 37L24 37L24 36L25 36L25 35L26 35L26 33L24 33L24 32L26 32L26 31L27 31L27 32L28 32L28 35L29 35L29 36L30 36L30 34L29 34L29 32L31 32L31 33L32 33L32 35L31 35L31 36L32 36L32 37L31 37L31 38L32 38L32 37L33 37L33 39L32 39L32 40L31 40L31 41L33 41L33 39L34 39L34 38L36 38L36 40L37 40L37 41L40 41L40 39L41 39L41 38L40 38L40 37L41 37L41 36L40 36L40 35L37 35L37 32L38 32L38 33L39 33L39 34L41 34L41 33L39 33L39 32L41 32L41 29L39 29L39 28L41 28L41 26L40 26L40 27L39 27L39 28L37 28L37 29L38 29L38 30L37 30L37 32L35 32L35 31L34 31L34 30L32 30L32 29L33 29L33 28L32 28L32 27L30 27L30 26L29 26L29 25L30 25L30 24L32 24L32 25L31 25L31 26L33 26L33 22L31 22L31 17L33 17L33 19L32 19L32 21L33 21L33 19L34 19L34 23L37 23L37 24L38 24L38 25L37 25L37 27L38 27L38 26L39 26L39 25L40 25L40 24L41 24L41 23L40 23L40 22L39 22L39 23L37 23L37 22L38 22L38 21L40 21L40 20L41 20L41 16L39 16L39 17L40 17L40 20L37 20L37 19L36 19L36 21L35 21L35 19L34 19L34 18L35 18L35 17L36 17L36 15L35 15L35 14L36 14L36 13L34 13L34 12L35 12L35 10L36 10L36 11L37 11L37 10L38 10L38 8L35 8L35 9L34 9L34 10L33 10L33 11L32 11L32 10L31 10L31 8L32 8L32 9L33 9L33 6L32 6L32 5L33 5L33 2L32 2L32 3L31 3L31 1L32 1L32 0L27 0L27 2L26 2L26 3L25 3L25 1L24 1L24 0L20 0L20 1L21 1L21 3L22 3L22 2L23 2L23 5L24 5L24 3L25 3L25 4L26 4L26 3L27 3L27 2L28 2L28 1L30 1L30 3L28 3L28 4L27 4L27 6L26 6L26 5L25 5L25 6L24 6L24 7L23 7L23 6L22 6L22 5L21 5L21 4L20 4L20 2L16 2L16 1L19 1L19 0L16 0L16 1L15 1L15 2L16 2L16 3L17 3L17 4L15 4L15 3L14 3L14 4L13 4L13 2L14 2L14 1L13 1L13 0ZM12 4L12 5L13 5L13 4ZM17 4L17 9L16 9L16 10L15 10L15 11L14 11L14 12L15 12L15 11L17 11L17 12L16 12L16 13L15 13L15 16L12 16L12 15L14 15L14 14L13 14L13 12L12 12L12 11L11 11L11 10L12 10L12 9L13 9L13 10L14 10L14 9L15 9L15 7L16 7L16 6L15 6L15 7L14 7L14 6L13 6L13 8L12 8L12 9L11 9L11 7L12 7L12 6L11 6L11 7L10 7L10 9L9 9L9 12L8 12L8 14L7 14L7 13L6 13L6 14L7 14L7 15L6 15L6 16L7 16L7 17L8 17L8 16L7 16L7 15L9 15L9 12L10 12L10 14L11 14L11 13L12 13L12 15L11 15L11 18L13 18L13 19L14 19L14 20L13 20L13 21L12 21L12 22L11 22L11 19L10 19L10 20L9 20L9 21L10 21L10 22L11 22L11 23L12 23L12 22L14 22L14 23L15 23L15 22L16 22L16 26L17 26L17 27L18 27L18 28L16 28L16 27L13 27L13 26L14 26L14 25L15 25L15 24L13 24L13 26L12 26L12 27L13 27L13 30L12 30L12 31L11 31L11 34L10 34L10 35L11 35L11 36L10 36L10 37L11 37L11 39L12 39L12 38L13 38L13 39L16 39L16 40L21 40L21 39L20 39L20 38L19 38L19 39L16 39L16 37L17 37L17 38L18 38L18 37L17 37L17 36L16 36L16 35L17 35L17 31L19 31L19 30L17 30L17 31L15 31L15 30L16 30L16 29L18 29L18 28L19 28L19 29L20 29L20 31L21 31L21 29L22 29L22 28L23 28L23 27L22 27L22 26L21 26L21 25L22 25L22 24L21 24L21 23L23 23L23 26L24 26L24 25L25 25L25 29L24 29L24 30L25 30L25 31L26 31L26 30L25 30L25 29L26 29L26 24L24 24L24 23L23 23L23 22L24 22L24 21L25 21L25 23L27 23L27 27L28 27L28 28L27 28L27 29L28 29L28 30L27 30L27 31L30 31L30 30L31 30L31 29L32 29L32 28L30 28L30 30L29 30L29 29L28 29L28 28L29 28L29 26L28 26L28 25L29 25L29 24L30 24L30 23L31 23L31 22L30 22L30 23L28 23L28 20L29 20L29 19L30 19L30 17L29 17L29 16L28 16L28 15L27 15L27 16L28 16L28 17L26 17L26 15L25 15L25 16L24 16L24 15L23 15L23 16L22 16L22 15L21 15L21 14L26 14L26 11L28 11L28 12L31 12L31 13L30 13L30 14L29 14L29 13L28 13L28 14L29 14L29 15L30 15L30 14L31 14L31 15L32 15L32 16L33 16L33 17L35 17L35 15L34 15L34 14L33 14L33 12L32 12L32 11L30 11L30 10L29 10L29 9L30 9L30 8L31 8L31 7L32 7L32 6L31 6L31 5L32 5L32 4L31 4L31 5L29 5L29 4L28 4L28 5L29 5L29 7L30 7L30 8L27 8L27 7L28 7L28 6L27 6L27 7L26 7L26 6L25 6L25 8L24 8L24 9L23 9L23 7L22 7L22 6L21 6L21 7L20 7L20 5L19 5L19 4ZM18 5L18 7L19 7L19 5ZM30 6L30 7L31 7L31 6ZM21 7L21 8L18 8L18 9L17 9L17 10L18 10L18 12L17 12L17 14L16 14L16 16L15 16L15 18L16 18L16 19L15 19L15 21L14 21L14 22L15 22L15 21L17 21L17 20L18 20L18 19L20 19L20 21L19 21L19 22L17 22L17 24L18 24L18 25L17 25L17 26L18 26L18 27L19 27L19 28L22 28L22 27L21 27L21 26L20 26L20 27L19 27L19 25L20 25L20 24L18 24L18 23L20 23L20 22L23 22L23 21L22 21L22 20L24 20L24 19L26 19L26 20L25 20L25 21L26 21L26 22L27 22L27 20L28 20L28 19L29 19L29 18L28 18L28 19L26 19L26 17L25 17L25 18L24 18L24 19L22 19L22 20L21 20L21 19L20 19L20 18L23 18L23 17L22 17L22 16L21 16L21 15L20 15L20 14L21 14L21 13L20 13L20 11L21 11L21 12L22 12L22 13L23 13L23 12L24 12L24 13L25 13L25 11L26 11L26 10L27 10L27 9L26 9L26 8L25 8L25 11L24 11L24 10L23 10L23 9L22 9L22 7ZM13 8L13 9L14 9L14 8ZM39 8L39 9L40 9L40 10L41 10L41 8ZM18 9L18 10L19 10L19 9ZM36 9L36 10L37 10L37 9ZM1 10L1 11L2 11L2 10ZM22 10L22 11L23 11L23 10ZM6 11L6 12L7 12L7 11ZM38 11L38 13L39 13L39 12L40 12L40 13L41 13L41 12L40 12L40 11ZM18 12L18 13L19 13L19 12ZM32 14L32 15L33 15L33 14ZM38 14L38 15L37 15L37 16L38 16L38 15L39 15L39 14ZM40 14L40 15L41 15L41 14ZM17 15L17 18L18 18L18 17L19 17L19 18L20 18L20 17L21 17L21 16L20 16L20 17L19 17L19 16L18 16L18 15ZM13 17L13 18L14 18L14 17ZM37 17L37 18L38 18L38 19L39 19L39 18L38 18L38 17ZM0 20L0 22L2 22L2 21L1 21L1 20ZM36 21L36 22L37 22L37 21ZM34 24L34 25L35 25L35 26L34 26L34 27L35 27L35 28L36 28L36 27L35 27L35 26L36 26L36 24ZM0 28L0 29L1 29L1 30L0 30L0 31L1 31L1 30L2 30L2 29L1 29L1 28ZM9 29L9 30L8 30L8 31L10 31L10 29ZM35 29L35 30L36 30L36 29ZM22 30L22 33L21 33L21 34L23 34L23 32L24 32L24 31L23 31L23 30ZM39 30L39 31L38 31L38 32L39 32L39 31L40 31L40 30ZM13 31L13 32L14 32L14 33L13 33L13 34L11 34L11 35L12 35L12 37L15 37L15 35L14 35L14 33L15 33L15 31ZM33 31L33 32L34 32L34 31ZM0 32L0 33L1 33L1 32ZM18 33L18 36L19 36L19 37L20 37L20 36L21 36L21 35L20 35L20 33ZM33 33L33 36L36 36L36 33ZM34 34L34 35L35 35L35 34ZM38 36L38 37L39 37L39 36ZM28 37L28 38L30 38L30 37ZM36 37L36 38L37 38L37 40L38 40L38 38L37 38L37 37ZM39 38L39 39L40 39L40 38ZM29 39L29 41L30 41L30 39ZM0 0L0 7L7 7L7 0ZM1 1L1 6L6 6L6 1ZM2 2L2 5L5 5L5 2ZM34 0L34 7L41 7L41 0ZM35 1L35 6L40 6L40 1ZM36 2L36 5L39 5L39 2ZM0 34L0 41L7 41L7 34ZM1 35L1 40L6 40L6 35ZM2 36L2 39L5 39L5 36Z" fill="#000000"/></g></g></svg>
