<?xml version="1.0" encoding="UTF-8"?>
<svg xmlns="http://www.w3.org/2000/svg" version="1.1" width="200" height="200" viewBox="0 0 200 200"><rect x="0" y="0" width="200" height="200" fill="#ffffff"/><g transform="scale(6.897)"><g transform="translate(0,0)"><path fill-rule="evenodd" d="M9 0L9 2L12 2L12 3L10 3L10 4L12 4L12 7L11 7L11 6L10 6L10 5L9 5L9 4L8 4L8 5L9 5L9 6L8 6L8 8L6 8L6 9L4 9L4 8L2 8L2 12L1 12L1 14L0 14L0 15L2 15L2 14L3 14L3 15L5 15L5 16L4 16L4 17L5 17L5 18L6 18L6 19L8 19L8 20L5 20L5 19L4 19L4 18L3 18L3 19L2 19L2 20L1 20L1 21L3 21L3 20L5 20L5 21L8 21L8 23L9 23L9 21L10 21L10 22L11 22L11 23L12 23L12 24L9 24L9 25L8 25L8 27L9 27L9 29L11 29L11 28L12 28L12 29L14 29L14 27L16 27L16 28L17 28L17 29L18 29L18 28L19 28L19 29L20 29L20 28L19 28L19 26L20 26L20 25L23 25L23 26L24 26L24 27L22 27L22 29L23 29L23 28L25 28L25 29L26 29L26 27L25 27L25 26L24 26L24 25L26 25L26 26L27 26L27 25L26 25L26 23L25 23L25 22L26 22L26 20L27 20L27 21L28 21L28 22L27 22L27 24L29 24L29 23L28 23L28 22L29 22L29 21L28 21L28 20L27 20L27 18L29 18L29 17L26 17L26 16L25 16L25 15L24 15L24 16L23 16L23 17L21 17L21 18L20 18L20 17L17 17L17 14L16 14L16 12L17 12L17 13L18 13L18 14L19 14L19 15L20 15L20 14L21 14L21 13L20 13L20 12L22 12L22 9L23 9L23 13L22 13L22 15L23 15L23 14L24 14L24 13L25 13L25 14L26 14L26 15L27 15L27 16L28 16L28 15L29 15L29 14L28 14L28 15L27 15L27 13L28 13L28 12L29 12L29 11L28 11L28 12L27 12L27 11L26 11L26 10L29 10L29 9L26 9L26 10L24 10L24 9L25 9L25 8L24 8L24 9L23 9L23 8L21 8L21 3L20 3L20 2L18 2L18 1L17 1L17 0L13 0L13 1L12 1L12 0ZM13 1L13 2L14 2L14 1ZM16 1L16 3L15 3L15 4L14 4L14 3L13 3L13 4L14 4L14 5L13 5L13 7L12 7L12 8L11 8L11 9L12 9L12 10L9 10L9 9L8 9L8 10L7 10L7 9L6 9L6 10L5 10L5 11L6 11L6 12L5 12L5 13L6 13L6 14L5 14L5 15L6 15L6 16L5 16L5 17L6 17L6 18L9 18L9 17L11 17L11 18L12 18L12 19L11 19L11 20L13 20L13 22L12 22L12 23L13 23L13 24L15 24L15 26L17 26L17 25L16 25L16 24L17 24L17 23L20 23L20 21L18 21L18 20L20 20L20 18L17 18L17 17L16 17L16 14L15 14L15 13L14 13L14 14L15 14L15 15L12 15L12 17L11 17L11 15L10 15L10 16L9 16L9 17L8 17L8 16L7 16L7 15L6 15L6 14L8 14L8 15L9 15L9 14L8 14L8 13L6 13L6 12L8 12L8 11L11 11L11 13L10 13L10 14L12 14L12 13L13 13L13 12L15 12L15 11L13 11L13 9L16 9L16 8L15 8L15 7L16 7L16 6L15 6L15 7L14 7L14 5L19 5L19 7L18 7L18 6L17 6L17 9L18 9L18 8L19 8L19 10L17 10L17 11L19 11L19 12L20 12L20 11L19 11L19 10L20 10L20 9L21 9L21 8L19 8L19 7L20 7L20 5L19 5L19 4L20 4L20 3L19 3L19 4L18 4L18 2L17 2L17 1ZM16 3L16 4L17 4L17 3ZM9 6L9 8L10 8L10 6ZM3 9L3 11L4 11L4 9ZM0 10L0 11L1 11L1 10ZM6 10L6 11L7 11L7 10ZM12 11L12 12L13 12L13 11ZM25 11L25 13L27 13L27 12L26 12L26 11ZM2 12L2 13L4 13L4 12ZM19 13L19 14L20 14L20 13ZM2 16L2 17L1 17L1 18L0 18L0 19L1 19L1 18L2 18L2 17L3 17L3 16ZM6 16L6 17L7 17L7 16ZM14 16L14 17L12 17L12 18L15 18L15 19L14 19L14 21L16 21L16 22L15 22L15 24L16 24L16 22L18 22L18 21L16 21L16 19L17 19L17 20L18 20L18 19L17 19L17 18L16 18L16 17L15 17L15 16ZM24 16L24 17L23 17L23 18L22 18L22 19L21 19L21 20L22 20L22 19L24 19L24 20L26 20L26 19L24 19L24 18L26 18L26 17L25 17L25 16ZM9 19L9 20L8 20L8 21L9 21L9 20L10 20L10 19ZM21 21L21 24L24 24L24 21ZM13 22L13 23L14 23L14 22ZM22 22L22 23L23 23L23 22ZM18 24L18 25L20 25L20 24ZM9 25L9 26L10 26L10 28L11 28L11 27L12 27L12 28L13 28L13 27L14 27L14 25L12 25L12 26L11 26L11 25ZM12 26L12 27L13 27L13 26ZM28 26L28 27L27 27L27 28L29 28L29 26ZM17 27L17 28L18 28L18 27ZM0 0L0 7L7 7L7 0ZM1 1L1 6L6 6L6 1ZM2 2L2 5L5 5L5 2ZM22 0L22 7L29 7L29 0ZM23 1L23 6L28 6L28 1ZM24 2L24 5L27 5L27 2ZM0 22L0 29L7 29L7 22ZM1 23L1 28L6 28L6 23ZM2 24L2 27L5 27L5 24Z" fill="#000000"/></g></g></svg>
