<?xml version="1.0" encoding="UTF-8"?>
<svg xmlns="http://www.w3.org/2000/svg" version="1.1" width="200" height="200" viewBox="0 0 200 200"><rect x="0" y="0" width="200" height="200" fill="#ffffff"/><g transform="scale(4.878)"><g transform="translate(0,0)"><path fill-rule="evenodd" d="M8 0L8 2L10 2L10 3L11 3L11 4L9 4L9 3L8 3L8 7L9 7L9 8L10 8L10 7L11 7L11 8L12 8L12 9L11 9L11 11L9 11L9 10L10 10L10 9L9 9L9 10L8 10L8 9L7 9L7 8L6 8L6 9L7 9L7 10L6 10L6 11L5 11L5 9L4 9L4 8L3 8L3 10L2 10L2 12L1 12L1 13L0 13L0 15L1 15L1 17L0 17L0 18L1 18L1 19L0 19L0 21L1 21L1 20L2 20L2 21L3 21L3 20L2 20L2 15L1 15L1 13L2 13L2 14L4 14L4 15L3 15L3 17L4 17L4 22L3 22L3 23L2 23L2 22L1 22L1 23L0 23L0 24L1 24L1 27L0 27L0 28L1 28L1 27L2 27L2 29L4 29L4 30L5 30L5 31L2 31L2 32L3 32L3 33L4 33L4 32L5 32L5 33L7 33L7 32L8 32L8 34L9 34L9 36L10 36L10 38L9 38L9 37L8 37L8 38L9 38L9 39L10 39L10 38L13 38L13 39L11 39L11 41L13 41L13 40L15 40L15 41L16 41L16 40L15 40L15 39L14 39L14 38L13 38L13 37L14 37L14 36L15 36L15 35L16 35L16 36L18 36L18 37L15 37L15 38L19 38L19 39L20 39L20 40L21 40L21 41L22 41L22 40L23 40L23 37L22 37L22 36L24 36L24 38L25 38L25 39L24 39L24 40L26 40L26 41L27 41L27 39L26 39L26 38L27 38L27 36L30 36L30 34L29 34L29 32L30 32L30 31L31 31L31 33L32 33L32 35L31 35L31 36L32 36L32 38L33 38L33 39L32 39L32 40L31 40L31 41L33 41L33 39L34 39L34 38L36 38L36 40L37 40L37 41L40 41L40 39L41 39L41 38L40 38L40 37L41 37L41 35L39 35L39 34L41 34L41 33L39 33L39 32L35 32L35 31L34 31L34 30L32 30L32 29L33 29L33 28L32 28L32 27L30 27L30 26L32 26L32 25L31 25L31 24L34 24L34 25L35 25L35 26L34 26L34 27L38 27L38 26L39 26L39 25L40 25L40 24L41 24L41 23L40 23L40 22L38 22L38 23L37 23L37 22L36 22L36 21L37 21L37 20L38 20L38 21L40 21L40 20L41 20L41 16L39 16L39 17L40 17L40 20L38 20L38 19L39 19L39 18L38 18L38 17L37 17L37 18L38 18L38 19L36 19L36 21L35 21L35 19L34 19L34 18L35 18L35 17L36 17L36 16L35 16L35 17L33 17L33 16L32 16L32 15L33 15L33 14L34 14L34 15L36 15L36 13L34 13L34 12L35 12L35 10L36 10L36 9L37 9L37 10L38 10L38 8L35 8L35 9L34 9L34 10L33 10L33 9L32 9L32 10L31 10L31 8L32 8L32 7L33 7L33 5L31 5L31 4L32 4L32 2L33 2L33 0L31 0L31 1L30 1L30 0L27 0L27 2L26 2L26 3L25 3L25 2L24 2L24 4L25 4L25 5L26 5L26 3L27 3L27 2L28 2L28 1L30 1L30 3L28 3L28 4L27 4L27 6L26 6L26 7L27 7L27 8L28 8L28 11L27 11L27 9L25 9L25 6L24 6L24 9L25 9L25 10L24 10L24 11L23 11L23 9L22 9L22 8L23 8L23 6L22 6L22 4L18 4L18 2L19 2L19 3L20 3L20 2L21 2L21 3L22 3L22 2L23 2L23 0L22 0L22 2L21 2L21 0L19 0L19 1L18 1L18 0L16 0L16 1L15 1L15 0L11 0L11 1L9 1L9 0ZM24 0L24 1L25 1L25 0ZM11 1L11 3L12 3L12 4L11 4L11 5L9 5L9 7L10 7L10 6L11 6L11 7L12 7L12 6L13 6L13 8L14 8L14 9L12 9L12 11L11 11L11 12L9 12L9 11L8 11L8 10L7 10L7 11L6 11L6 12L4 12L4 11L3 11L3 13L4 13L4 14L5 14L5 13L6 13L6 14L7 14L7 13L8 13L8 14L10 14L10 13L11 13L11 12L12 12L12 15L14 15L14 17L15 17L15 19L14 19L14 18L12 18L12 17L13 17L13 16L10 16L10 15L9 15L9 16L10 16L10 17L8 17L8 18L10 18L10 19L11 19L11 20L12 20L12 21L11 21L11 22L10 22L10 23L11 23L11 24L9 24L9 26L8 26L8 25L6 25L6 24L8 24L8 23L9 23L9 21L10 21L10 20L9 20L9 21L8 21L8 20L7 20L7 19L5 19L5 22L4 22L4 23L3 23L3 24L4 24L4 23L6 23L6 24L5 24L5 25L2 25L2 27L3 27L3 28L4 28L4 29L5 29L5 28L4 28L4 27L3 27L3 26L5 26L5 27L6 27L6 28L7 28L7 29L6 29L6 30L7 30L7 29L8 29L8 30L9 30L9 31L8 31L8 32L9 32L9 33L10 33L10 30L9 30L9 28L11 28L11 29L12 29L12 28L11 28L11 27L12 27L12 26L11 26L11 27L9 27L9 26L10 26L10 25L11 25L11 24L14 24L14 25L15 25L15 26L13 26L13 27L14 27L14 28L13 28L13 30L15 30L15 31L16 31L16 29L20 29L20 32L21 32L21 33L20 33L20 34L22 34L22 35L23 35L23 34L22 34L22 33L24 33L24 35L26 35L26 36L27 36L27 35L28 35L28 32L27 32L27 31L30 31L30 30L31 30L31 28L30 28L30 29L28 29L28 28L26 28L26 31L25 31L25 30L24 30L24 29L25 29L25 27L29 27L29 26L30 26L30 25L29 25L29 24L31 24L31 23L30 23L30 22L29 22L29 19L30 19L30 17L29 17L29 16L28 16L28 15L26 15L26 12L27 12L27 13L28 13L28 14L29 14L29 13L28 13L28 12L27 12L27 11L26 11L26 10L25 10L25 11L24 11L24 13L23 13L23 12L21 12L21 11L22 11L22 10L20 10L20 9L21 9L21 8L22 8L22 6L21 6L21 8L19 8L19 7L20 7L20 6L19 6L19 5L18 5L18 4L17 4L17 3L15 3L15 1ZM17 1L17 2L18 2L18 1ZM19 1L19 2L20 2L20 1ZM31 1L31 2L32 2L32 1ZM12 2L12 3L13 3L13 4L12 4L12 5L13 5L13 4L14 4L14 3L13 3L13 2ZM16 4L16 5L15 5L15 6L14 6L14 7L15 7L15 8L17 8L17 9L16 9L16 10L14 10L14 11L13 11L13 12L16 12L16 13L13 13L13 14L14 14L14 15L15 15L15 14L16 14L16 15L18 15L18 16L17 16L17 18L16 18L16 19L15 19L15 20L14 20L14 19L12 19L12 18L11 18L11 17L10 17L10 18L11 18L11 19L12 19L12 20L14 20L14 21L15 21L15 22L13 22L13 21L12 21L12 22L11 22L11 23L12 23L12 22L13 22L13 23L17 23L17 24L15 24L15 25L17 25L17 26L16 26L16 28L15 28L15 29L16 29L16 28L17 28L17 27L19 27L19 28L20 28L20 29L21 29L21 30L22 30L22 31L24 31L24 32L25 32L25 34L26 34L26 35L27 35L27 34L26 34L26 33L27 33L27 32L25 32L25 31L24 31L24 30L22 30L22 28L23 28L23 29L24 29L24 27L22 27L22 26L23 26L23 25L24 25L24 26L25 26L25 25L26 25L26 26L27 26L27 24L28 24L28 23L27 23L27 21L26 21L26 22L24 22L24 23L23 23L23 22L22 22L22 21L24 21L24 19L25 19L25 18L26 18L26 19L27 19L27 20L28 20L28 19L29 19L29 18L28 18L28 19L27 19L27 17L28 17L28 16L27 16L27 17L26 17L26 16L25 16L25 13L24 13L24 15L23 15L23 19L22 19L22 16L21 16L21 19L20 19L20 18L19 18L19 19L20 19L20 20L19 20L19 21L18 21L18 19L17 19L17 18L18 18L18 16L19 16L19 17L20 17L20 16L19 16L19 15L21 15L21 14L22 14L22 13L19 13L19 12L20 12L20 11L19 11L19 12L18 12L18 13L19 13L19 14L17 14L17 12L16 12L16 11L17 11L17 9L19 9L19 8L18 8L18 7L19 7L19 6L18 6L18 7L17 7L17 6L16 6L16 5L17 5L17 4ZM28 4L28 6L27 6L27 7L28 7L28 6L29 6L29 7L30 7L30 8L29 8L29 9L30 9L30 8L31 8L31 7L32 7L32 6L31 6L31 7L30 7L30 6L29 6L29 5L30 5L30 4ZM15 6L15 7L16 7L16 6ZM39 8L39 9L40 9L40 10L41 10L41 8ZM0 10L0 11L1 11L1 10ZM29 10L29 12L30 12L30 10ZM38 11L38 13L41 13L41 11L40 11L40 12L39 12L39 11ZM6 12L6 13L7 13L7 12ZM32 12L32 13L30 13L30 16L31 16L31 15L32 15L32 14L33 14L33 12ZM40 14L40 15L41 15L41 14ZM5 15L5 16L4 16L4 17L5 17L5 16L8 16L8 15ZM37 15L37 16L38 16L38 15ZM6 17L6 18L7 18L7 17ZM31 17L31 19L33 19L33 20L31 20L31 22L32 22L32 21L33 21L33 23L34 23L34 24L36 24L36 26L37 26L37 25L38 25L38 24L37 24L37 23L35 23L35 22L34 22L34 19L33 19L33 17ZM21 19L21 20L20 20L20 21L21 21L21 20L22 20L22 19ZM6 20L6 21L7 21L7 20ZM16 21L16 22L17 22L17 23L18 23L18 22L17 22L17 21ZM6 22L6 23L7 23L7 22ZM21 22L21 24L20 24L20 25L18 25L18 24L17 24L17 25L18 25L18 26L20 26L20 25L21 25L21 26L22 26L22 25L23 25L23 24L22 24L22 22ZM25 23L25 24L24 24L24 25L25 25L25 24L27 24L27 23ZM21 24L21 25L22 25L22 24ZM28 25L28 26L29 26L29 25ZM6 26L6 27L7 27L7 28L8 28L8 26ZM40 26L40 27L41 27L41 26ZM20 27L20 28L21 28L21 27ZM35 28L35 29L36 29L36 28ZM37 28L37 29L38 29L38 30L36 30L36 31L38 31L38 30L40 30L40 32L41 32L41 29L40 29L40 28ZM27 29L27 30L28 30L28 29ZM0 30L0 31L1 31L1 30ZM11 30L11 32L12 32L12 35L10 35L10 36L11 36L11 37L12 37L12 35L13 35L13 36L14 36L14 34L15 34L15 33L14 33L14 32L13 32L13 31L12 31L12 30ZM17 30L17 33L18 33L18 36L19 36L19 38L20 38L20 39L21 39L21 40L22 40L22 38L20 38L20 37L21 37L21 36L20 36L20 35L19 35L19 32L18 32L18 31L19 31L19 30ZM6 31L6 32L7 32L7 31ZM33 31L33 32L34 32L34 31ZM0 32L0 33L1 33L1 32ZM13 33L13 34L14 34L14 33ZM33 33L33 36L36 36L36 33ZM38 33L38 34L37 34L37 35L38 35L38 34L39 34L39 33ZM16 34L16 35L17 35L17 34ZM34 34L34 35L35 35L35 34ZM38 36L38 37L40 37L40 36ZM28 37L28 39L29 39L29 41L30 41L30 39L29 39L29 38L30 38L30 37ZM36 37L36 38L37 38L37 40L38 40L38 38L37 38L37 37ZM39 38L39 39L40 39L40 38ZM17 39L17 40L18 40L18 41L19 41L19 40L18 40L18 39ZM9 40L9 41L10 41L10 40ZM0 0L0 7L7 7L7 0ZM1 1L1 6L6 6L6 1ZM2 2L2 5L5 5L5 2ZM34 0L34 7L41 7L41 0ZM35 1L35 6L40 6L40 1ZM36 2L36 5L39 5L39 2ZM0 34L0 41L7 41L7 34ZM1 35L1 40L6 40L6 35ZM2 36L2 39L5 39L5 36Z" fill="#000000"/></g></g></svg>
