<?xml version="1.0" encoding="UTF-8"?>
<svg xmlns="http://www.w3.org/2000/svg" version="1.1" width="200" height="200" viewBox="0 0 200 200"><rect x="0" y="0" width="200" height="200" fill="#ffffff"/><g transform="scale(6.897)"><g transform="translate(0,0)"><path fill-rule="evenodd" d="M8 0L8 3L10 3L10 4L9 4L9 5L8 5L8 10L6 10L6 9L7 9L7 8L6 8L6 9L5 9L5 8L2 8L2 9L4 9L4 10L2 10L2 11L0 11L0 12L1 12L1 13L0 13L0 21L1 21L1 18L2 18L2 15L1 15L1 14L2 14L2 11L5 11L5 12L4 12L4 13L5 13L5 12L6 12L6 13L7 13L7 12L8 12L8 13L11 13L11 14L10 14L10 15L7 15L7 14L6 14L6 15L7 15L7 16L5 16L5 17L3 17L3 19L2 19L2 21L7 21L7 20L11 20L11 21L8 21L8 22L9 22L9 23L10 23L10 25L9 25L9 24L8 24L8 27L9 27L9 28L10 28L10 29L11 29L11 28L13 28L13 29L16 29L16 28L17 28L17 27L18 27L18 29L26 29L26 28L27 28L27 29L28 29L28 28L29 28L29 27L28 27L28 25L27 25L27 27L26 27L26 24L25 24L25 22L26 22L26 23L27 23L27 22L26 22L26 21L25 21L25 20L28 20L28 22L29 22L29 20L28 20L28 19L26 19L26 18L27 18L27 17L28 17L28 15L29 15L29 13L28 13L28 10L29 10L29 8L26 8L26 9L25 9L25 12L24 12L24 11L22 11L22 12L23 12L23 13L21 13L21 15L22 15L22 14L23 14L23 13L24 13L24 20L23 20L23 19L22 19L22 18L20 18L20 19L21 19L21 20L20 20L20 25L19 25L19 24L18 24L18 23L19 23L19 22L17 22L17 20L16 20L16 19L15 19L15 20L13 20L13 19L12 19L12 20L11 20L11 18L13 18L13 17L14 17L14 18L16 18L16 16L17 16L17 18L19 18L19 16L17 16L17 15L19 15L19 14L17 14L17 15L16 15L16 14L15 14L15 12L17 12L17 13L20 13L20 12L21 12L21 11L20 11L20 10L22 10L22 9L23 9L23 10L24 10L24 8L21 8L21 9L20 9L20 7L21 7L21 5L20 5L20 4L21 4L21 3L20 3L20 4L19 4L19 3L18 3L18 4L17 4L17 0L13 0L13 1L16 1L16 2L14 2L14 5L13 5L13 6L12 6L12 8L13 8L13 6L14 6L14 9L12 9L12 10L11 10L11 11L12 11L12 12L13 12L13 13L14 13L14 14L15 14L15 15L14 15L14 16L13 16L13 17L10 17L10 18L9 18L9 17L8 17L8 19L7 19L7 18L6 18L6 17L7 17L7 16L12 16L12 13L11 13L11 12L8 12L8 11L10 11L10 9L9 9L9 5L10 5L10 8L11 8L11 5L12 5L12 4L13 4L13 2L11 2L11 0ZM9 1L9 2L10 2L10 1ZM18 1L18 2L19 2L19 1ZM20 1L20 2L21 2L21 1ZM15 3L15 4L16 4L16 5L14 5L14 6L15 6L15 8L16 8L16 6L17 6L17 7L18 7L18 6L19 6L19 7L20 7L20 6L19 6L19 5L18 5L18 6L17 6L17 4L16 4L16 3ZM10 4L10 5L11 5L11 4ZM17 8L17 9L14 9L14 12L15 12L15 10L17 10L17 9L19 9L19 10L20 10L20 9L19 9L19 8ZM26 9L26 11L27 11L27 9ZM12 10L12 11L13 11L13 10ZM6 11L6 12L7 12L7 11ZM18 11L18 12L19 12L19 11ZM25 12L25 13L26 13L26 14L28 14L28 13L27 13L27 12ZM4 14L4 15L5 15L5 14ZM15 15L15 16L14 16L14 17L15 17L15 16L16 16L16 15ZM25 15L25 16L27 16L27 15ZM20 16L20 17L22 17L22 16ZM4 18L4 19L3 19L3 20L4 20L4 19L6 19L6 20L7 20L7 19L6 19L6 18ZM18 19L18 20L19 20L19 19ZM12 20L12 21L13 21L13 20ZM14 21L14 22L13 22L13 23L12 23L12 22L10 22L10 23L11 23L11 24L12 24L12 26L11 26L11 27L10 27L10 26L9 26L9 27L10 27L10 28L11 28L11 27L13 27L13 26L15 26L15 27L14 27L14 28L16 28L16 23L17 23L17 22L16 22L16 21ZM21 21L21 24L24 24L24 21ZM22 22L22 23L23 23L23 22ZM13 23L13 24L14 24L14 25L15 25L15 24L14 24L14 23ZM17 25L17 26L18 26L18 27L19 27L19 28L22 28L22 27L21 27L21 26L20 26L20 27L19 27L19 26L18 26L18 25ZM22 25L22 26L23 26L23 27L25 27L25 26L24 26L24 25ZM0 0L0 7L7 7L7 0ZM1 1L1 6L6 6L6 1ZM2 2L2 5L5 5L5 2ZM22 0L22 7L29 7L29 0ZM23 1L23 6L28 6L28 1ZM24 2L24 5L27 5L27 2ZM0 22L0 29L7 29L7 22ZM1 23L1 28L6 28L6 23ZM2 24L2 27L5 27L5 24Z" fill="#000000"/></g></g></svg>
