<?xml version="1.0" encoding="UTF-8"?>
<svg xmlns="http://www.w3.org/2000/svg" version="1.1" width="200" height="200" viewBox="0 0 200 200"><rect x="0" y="0" width="200" height="200" fill="#ffffff"/><g transform="scale(6.897)"><g transform="translate(0,0)"><path fill-rule="evenodd" d="M10 0L10 2L8 2L8 4L9 4L9 5L10 5L10 2L11 2L11 3L12 3L12 4L11 4L11 6L10 6L10 8L11 8L11 9L8 9L8 8L6 8L6 9L8 9L8 10L5 10L5 8L3 8L3 9L2 9L2 10L4 10L4 12L6 12L6 13L5 13L5 14L4 14L4 13L3 13L3 14L2 14L2 13L1 13L1 12L0 12L0 16L1 16L1 15L3 15L3 16L2 16L2 17L3 17L3 18L4 18L4 17L3 17L3 16L6 16L6 17L5 17L5 18L6 18L6 19L5 19L5 20L4 20L4 19L2 19L2 18L1 18L1 17L0 17L0 21L3 21L3 20L4 20L4 21L7 21L7 20L8 20L8 19L9 19L9 20L11 20L11 19L10 19L10 17L9 17L9 15L10 15L10 14L14 14L14 17L13 17L13 19L12 19L12 20L13 20L13 19L14 19L14 20L15 20L15 19L14 19L14 18L15 18L15 15L16 15L16 13L17 13L17 14L18 14L18 15L17 15L17 16L16 16L16 17L17 17L17 16L18 16L18 18L16 18L16 19L17 19L17 20L18 20L18 21L20 21L20 24L18 24L18 25L17 25L17 24L15 24L15 23L16 23L16 22L15 22L15 23L14 23L14 21L13 21L13 23L12 23L12 21L8 21L8 23L9 23L9 24L8 24L8 26L9 26L9 27L10 27L10 26L9 26L9 24L10 24L10 25L11 25L11 23L12 23L12 26L11 26L11 27L12 27L12 26L13 26L13 23L14 23L14 24L15 24L15 26L16 26L16 27L17 27L17 28L18 28L18 27L19 27L19 26L18 26L18 25L24 25L24 26L25 26L25 22L27 22L27 24L26 24L26 26L27 26L27 27L29 27L29 26L27 26L27 25L28 25L28 22L29 22L29 21L26 21L26 19L27 19L27 18L28 18L28 19L29 19L29 17L28 17L28 16L29 16L29 14L28 14L28 13L29 13L29 11L28 11L28 10L27 10L27 8L25 8L25 9L26 9L26 10L25 10L25 12L24 12L24 16L23 16L23 12L22 12L22 11L21 11L21 10L19 10L19 9L20 9L20 8L19 8L19 6L20 6L20 7L21 7L21 4L19 4L19 3L20 3L20 1L21 1L21 0L19 0L19 1L18 1L18 0L17 0L17 1L16 1L16 2L15 2L15 0L13 0L13 1L11 1L11 0ZM17 1L17 2L16 2L16 3L15 3L15 5L17 5L17 7L18 7L18 6L19 6L19 5L18 5L18 3L19 3L19 2L18 2L18 1ZM13 3L13 5L14 5L14 3ZM8 6L8 7L9 7L9 6ZM11 6L11 8L13 8L13 9L12 9L12 10L9 10L9 11L12 11L12 10L13 10L13 9L14 9L14 8L13 8L13 7L14 7L14 6L13 6L13 7L12 7L12 6ZM15 6L15 7L16 7L16 6ZM17 8L17 10L16 10L16 9L15 9L15 10L14 10L14 11L13 11L13 12L11 12L11 13L13 13L13 12L15 12L15 13L16 13L16 12L15 12L15 10L16 10L16 11L17 11L17 10L18 10L18 9L19 9L19 8ZM0 9L0 10L1 10L1 9ZM22 9L22 10L23 10L23 11L24 11L24 9ZM2 11L2 12L3 12L3 11ZM6 11L6 12L8 12L8 13L6 13L6 14L5 14L5 15L6 15L6 16L7 16L7 17L6 17L6 18L7 18L7 19L6 19L6 20L7 20L7 19L8 19L8 18L9 18L9 17L8 17L8 13L9 13L9 12L8 12L8 11ZM27 11L27 12L28 12L28 11ZM17 12L17 13L18 13L18 14L19 14L19 13L20 13L20 12L19 12L19 13L18 13L18 12ZM21 12L21 14L20 14L20 15L18 15L18 16L19 16L19 18L18 18L18 20L19 20L19 18L20 18L20 19L21 19L21 20L22 20L22 19L21 19L21 16L20 16L20 15L21 15L21 14L22 14L22 12ZM25 13L25 16L26 16L26 17L27 17L27 16L28 16L28 15L27 15L27 16L26 16L26 13ZM3 14L3 15L4 15L4 14ZM6 14L6 15L7 15L7 14ZM11 15L11 16L12 16L12 15ZM22 16L22 17L23 17L23 16ZM7 17L7 18L8 18L8 17ZM11 17L11 18L12 18L12 17ZM25 18L25 19L26 19L26 18ZM23 19L23 20L24 20L24 19ZM21 21L21 24L24 24L24 21ZM9 22L9 23L10 23L10 22ZM17 22L17 23L19 23L19 22ZM22 22L22 23L23 23L23 22ZM21 26L21 27L20 27L20 28L19 28L19 29L20 29L20 28L21 28L21 29L23 29L23 28L24 28L24 29L25 29L25 28L26 28L26 27L23 27L23 28L22 28L22 26ZM13 27L13 29L14 29L14 28L15 28L15 27ZM9 28L9 29L10 29L10 28ZM27 28L27 29L28 29L28 28ZM0 0L0 7L7 7L7 0ZM1 1L1 6L6 6L6 1ZM2 2L2 5L5 5L5 2ZM22 0L22 7L29 7L29 0ZM23 1L23 6L28 6L28 1ZM24 2L24 5L27 5L27 2ZM0 22L0 29L7 29L7 22ZM1 23L1 28L6 28L6 23ZM2 24L2 27L5 27L5 24Z" fill="#000000"/></g></g></svg>
