<?xml version="1.0" encoding="UTF-8"?>
<svg xmlns="http://www.w3.org/2000/svg" version="1.1" width="200" height="200" viewBox="0 0 200 200"><rect x="0" y="0" width="200" height="200" fill="#ffffff"/><g transform="scale(6.897)"><g transform="translate(0,0)"><path fill-rule="evenodd" d="M8 0L8 1L9 1L9 0ZM14 0L14 1L13 1L13 3L14 3L14 4L12 4L12 1L10 1L10 2L9 2L9 3L8 3L8 4L9 4L9 6L8 6L8 7L9 7L9 8L8 8L8 10L6 10L6 9L7 9L7 8L4 8L4 9L3 9L3 8L2 8L2 10L1 10L1 9L0 9L0 11L1 11L1 12L0 12L0 17L1 17L1 18L0 18L0 19L1 19L1 20L0 20L0 21L1 21L1 20L2 20L2 21L3 21L3 20L2 20L2 19L7 19L7 20L5 20L5 21L8 21L8 22L9 22L9 23L8 23L8 25L9 25L9 26L8 26L8 27L9 27L9 29L12 29L12 27L11 27L11 26L10 26L10 24L11 24L11 25L12 25L12 24L13 24L13 26L14 26L14 27L13 27L13 29L14 29L14 27L15 27L15 26L16 26L16 28L15 28L15 29L16 29L16 28L17 28L17 27L19 27L19 28L18 28L18 29L20 29L20 27L21 27L21 26L22 26L22 25L23 25L23 26L24 26L24 25L26 25L26 28L23 28L23 27L22 27L22 28L23 28L23 29L26 29L26 28L28 28L28 29L29 29L29 26L28 26L28 25L29 25L29 24L28 24L28 23L27 23L27 24L26 24L26 23L25 23L25 20L26 20L26 21L28 21L28 22L29 22L29 21L28 21L28 19L29 19L29 18L27 18L27 17L26 17L26 14L24 14L24 13L25 13L25 11L26 11L26 13L27 13L27 14L28 14L28 15L27 15L27 16L28 16L28 17L29 17L29 16L28 16L28 15L29 15L29 14L28 14L28 13L29 13L29 12L28 12L28 11L29 11L29 8L28 8L28 9L27 9L27 10L28 10L28 11L26 11L26 10L25 10L25 9L26 9L26 8L25 8L25 9L24 9L24 10L25 10L25 11L24 11L24 12L23 12L23 10L22 10L22 8L21 8L21 0L20 0L20 1L19 1L19 2L20 2L20 3L19 3L19 5L18 5L18 3L17 3L17 2L18 2L18 1L17 1L17 0ZM14 1L14 2L15 2L15 3L16 3L16 4L15 4L15 5L13 5L13 7L12 7L12 6L11 6L11 7L10 7L10 6L9 6L9 7L10 7L10 8L12 8L12 9L10 9L10 10L12 10L12 11L9 11L9 10L8 10L8 11L6 11L6 10L4 10L4 11L3 11L3 10L2 10L2 11L3 11L3 12L4 12L4 11L6 11L6 12L7 12L7 13L6 13L6 14L5 14L5 16L7 16L7 17L6 17L6 18L7 18L7 19L8 19L8 17L9 17L9 20L10 20L10 21L9 21L9 22L10 22L10 23L11 23L11 24L12 24L12 23L15 23L15 24L14 24L14 26L15 26L15 25L17 25L17 26L18 26L18 25L19 25L19 26L20 26L20 24L19 24L19 23L20 23L20 22L19 22L19 23L18 23L18 25L17 25L17 22L18 22L18 20L19 20L19 21L20 21L20 20L21 20L21 19L22 19L22 18L23 18L23 19L24 19L24 20L25 20L25 19L24 19L24 18L26 18L26 17L24 17L24 16L25 16L25 15L24 15L24 14L23 14L23 15L22 15L22 14L21 14L21 13L20 13L20 14L19 14L19 13L18 13L18 14L19 14L19 15L20 15L20 16L19 16L19 17L18 17L18 15L17 15L17 16L15 16L15 14L16 14L16 13L17 13L17 12L20 12L20 11L18 11L18 10L19 10L19 8L20 8L20 5L19 5L19 7L18 7L18 5L16 5L16 4L17 4L17 3L16 3L16 1ZM10 4L10 5L11 5L11 4ZM14 6L14 10L15 10L15 11L14 11L14 12L15 12L15 13L16 13L16 11L17 11L17 9L16 9L16 10L15 10L15 6ZM16 6L16 8L17 8L17 6ZM12 9L12 10L13 10L13 9ZM12 11L12 12L11 12L11 14L9 14L9 12L8 12L8 16L9 16L9 17L11 17L11 18L12 18L12 19L10 19L10 20L11 20L11 21L12 21L12 19L13 19L13 22L15 22L15 23L16 23L16 21L15 21L15 20L17 20L17 17L16 17L16 19L14 19L14 18L15 18L15 16L13 16L13 15L14 15L14 14L13 14L13 15L12 15L12 12L13 12L13 11ZM21 11L21 12L22 12L22 11ZM1 12L1 13L2 13L2 14L1 14L1 15L4 15L4 14L3 14L3 13L2 13L2 12ZM27 12L27 13L28 13L28 12ZM6 14L6 15L7 15L7 14ZM20 14L20 15L21 15L21 14ZM10 15L10 16L11 16L11 17L13 17L13 18L14 18L14 17L13 17L13 16L12 16L12 15ZM23 15L23 16L22 16L22 17L23 17L23 18L24 18L24 17L23 17L23 16L24 16L24 15ZM2 17L2 18L1 18L1 19L2 19L2 18L5 18L5 17ZM19 17L19 18L18 18L18 19L19 19L19 20L20 20L20 19L19 19L19 18L20 18L20 17ZM21 21L21 24L24 24L24 21ZM22 22L22 23L23 23L23 22ZM27 24L27 25L28 25L28 24ZM27 26L27 27L28 27L28 26ZM10 27L10 28L11 28L11 27ZM0 0L0 7L7 7L7 0ZM1 1L1 6L6 6L6 1ZM2 2L2 5L5 5L5 2ZM22 0L22 7L29 7L29 0ZM23 1L23 6L28 6L28 1ZM24 2L24 5L27 5L27 2ZM0 22L0 29L7 29L7 22ZM1 23L1 28L6 28L6 23ZM2 24L2 27L5 27L5 24Z" fill="#000000"/></g></g></svg>
