<?xml version="1.0" encoding="UTF-8"?>
<svg xmlns="http://www.w3.org/2000/svg" version="1.1" width="200" height="200" viewBox="0 0 200 200"><rect x="0" y="0" width="200" height="200" fill="#ffffff"/><g transform="scale(6.897)"><g transform="translate(0,0)"><path fill-rule="evenodd" d="M9 0L9 2L11 2L11 3L10 3L10 4L8 4L8 5L9 5L9 6L8 6L8 8L6 8L6 9L4 9L4 8L2 8L2 11L3 11L3 12L1 12L1 16L0 16L0 17L3 17L3 18L2 18L2 19L3 19L3 20L1 20L1 21L3 21L3 20L5 20L5 21L8 21L8 23L9 23L9 22L10 22L10 23L12 23L12 24L9 24L9 25L8 25L8 27L9 27L9 29L11 29L11 28L10 28L10 26L9 26L9 25L11 25L11 27L12 27L12 29L14 29L14 27L15 27L15 29L16 29L16 28L17 28L17 29L18 29L18 28L19 28L19 29L20 29L20 28L19 28L19 26L20 26L20 25L23 25L23 26L24 26L24 27L22 27L22 29L23 29L23 28L25 28L25 29L26 29L26 26L27 26L27 25L26 25L26 23L25 23L25 22L26 22L26 20L27 20L27 24L28 24L28 25L29 25L29 21L28 21L28 20L27 20L27 19L26 19L26 18L29 18L29 17L26 17L26 16L25 16L25 15L24 15L24 16L23 16L23 17L21 17L21 18L20 18L20 17L17 17L17 16L18 16L18 15L20 15L20 14L21 14L21 13L20 13L20 12L22 12L22 9L23 9L23 13L22 13L22 15L23 15L23 14L24 14L24 13L25 13L25 14L26 14L26 15L27 15L27 16L28 16L28 15L29 15L29 14L28 14L28 15L27 15L27 13L28 13L28 12L29 12L29 11L28 11L28 12L27 12L27 10L29 10L29 9L25 9L25 8L24 8L24 9L23 9L23 8L21 8L21 3L20 3L20 2L18 2L18 1L17 1L17 0L16 0L16 1L14 1L14 0ZM11 1L11 2L14 2L14 1ZM17 2L17 4L16 4L16 3L15 3L15 4L14 4L14 3L13 3L13 4L14 4L14 5L19 5L19 7L18 7L18 6L17 6L17 8L15 8L15 7L16 7L16 6L15 6L15 7L14 7L14 6L13 6L13 7L12 7L12 3L11 3L11 4L10 4L10 5L11 5L11 7L10 7L10 6L9 6L9 8L10 8L10 9L11 9L11 10L9 10L9 9L6 9L6 10L5 10L5 11L6 11L6 12L5 12L5 13L6 13L6 14L8 14L8 15L9 15L9 16L7 16L7 15L3 15L3 14L2 14L2 16L4 16L4 19L5 19L5 20L7 20L7 19L8 19L8 18L9 18L9 16L10 16L10 15L9 15L9 14L8 14L8 13L6 13L6 12L9 12L9 11L11 11L11 13L10 13L10 14L12 14L12 13L13 13L13 12L15 12L15 11L13 11L13 12L12 12L12 11L11 11L11 10L12 10L12 9L14 9L14 10L16 10L16 14L15 14L15 13L14 13L14 14L15 14L15 15L12 15L12 16L13 16L13 17L10 17L10 18L12 18L12 20L11 20L11 21L12 21L12 20L13 20L13 22L12 22L12 23L13 23L13 22L14 22L14 23L15 23L15 22L16 22L16 24L15 24L15 25L16 25L16 24L18 24L18 23L20 23L20 21L18 21L18 20L20 20L20 18L17 18L17 17L16 17L16 14L17 14L17 15L18 15L18 13L17 13L17 11L19 11L19 12L20 12L20 11L19 11L19 10L20 10L20 9L21 9L21 8L19 8L19 7L20 7L20 5L19 5L19 4L20 4L20 3L19 3L19 4L18 4L18 2ZM11 7L11 8L12 8L12 7ZM14 8L14 9L15 9L15 8ZM18 8L18 9L17 9L17 10L19 10L19 8ZM24 9L24 10L25 10L25 9ZM0 10L0 11L1 11L1 10ZM6 10L6 11L8 11L8 10ZM25 11L25 13L27 13L27 12L26 12L26 11ZM3 12L3 13L4 13L4 12ZM19 13L19 14L20 14L20 13ZM6 16L6 17L5 17L5 18L6 18L6 19L7 19L7 18L6 18L6 17L7 17L7 16ZM14 16L14 17L13 17L13 18L14 18L14 17L15 17L15 16ZM24 16L24 17L23 17L23 18L22 18L22 19L21 19L21 20L22 20L22 19L24 19L24 20L25 20L25 19L24 19L24 18L26 18L26 17L25 17L25 16ZM0 18L0 19L1 19L1 18ZM9 19L9 20L8 20L8 21L9 21L9 20L10 20L10 19ZM14 19L14 21L15 21L15 19ZM17 19L17 20L18 20L18 19ZM16 21L16 22L18 22L18 21ZM21 21L21 24L24 24L24 21ZM22 22L22 23L23 23L23 22ZM12 24L12 25L13 25L13 27L14 27L14 24ZM19 24L19 25L18 25L18 26L19 26L19 25L20 25L20 24ZM24 25L24 26L25 26L25 25ZM28 26L28 27L27 27L27 28L29 28L29 26ZM17 27L17 28L18 28L18 27ZM0 0L0 7L7 7L7 0ZM1 1L1 6L6 6L6 1ZM2 2L2 5L5 5L5 2ZM22 0L22 7L29 7L29 0ZM23 1L23 6L28 6L28 1ZM24 2L24 5L27 5L27 2ZM0 22L0 29L7 29L7 22ZM1 23L1 28L6 28L6 23ZM2 24L2 27L5 27L5 24Z" fill="#000000"/></g></g></svg>
