<?xml version="1.0" encoding="UTF-8"?>
<svg xmlns="http://www.w3.org/2000/svg" version="1.1" width="200" height="200" viewBox="0 0 200 200"><rect x="0" y="0" width="200" height="200" fill="#ffffff"/><g transform="scale(4.878)"><g transform="translate(0,0)"><path fill-rule="evenodd" d="M8 0L8 3L9 3L9 0ZM10 0L10 2L11 2L11 3L10 3L10 4L11 4L11 5L12 5L12 4L13 4L13 3L12 3L12 2L11 2L11 0ZM13 0L13 2L14 2L14 0ZM15 0L15 1L17 1L17 3L16 3L16 4L15 4L15 3L14 3L14 4L15 4L15 6L14 6L14 7L15 7L15 9L16 9L16 10L17 10L17 9L16 9L16 7L17 7L17 8L18 8L18 9L19 9L19 10L20 10L20 8L21 8L21 6L22 6L22 7L23 7L23 8L22 8L22 15L20 15L20 14L21 14L21 13L19 13L19 12L21 12L21 11L16 11L16 12L15 12L15 10L10 10L10 9L12 9L12 8L13 8L13 6L12 6L12 7L11 7L11 6L10 6L10 5L8 5L8 10L6 10L6 9L7 9L7 8L6 8L6 9L5 9L5 8L2 8L2 9L0 9L0 10L2 10L2 12L3 12L3 11L5 11L5 10L6 10L6 11L8 11L8 10L9 10L9 11L11 11L11 12L9 12L9 13L8 13L8 12L4 12L4 13L2 13L2 14L4 14L4 13L5 13L5 14L6 14L6 15L5 15L5 16L2 16L2 19L4 19L4 18L5 18L5 19L7 19L7 20L6 20L6 21L7 21L7 22L5 22L5 21L4 21L4 20L3 20L3 21L4 21L4 22L1 22L1 21L0 21L0 28L2 28L2 29L0 29L0 33L1 33L1 30L2 30L2 33L5 33L5 32L4 32L4 31L3 31L3 30L5 30L5 31L7 31L7 32L6 32L6 33L8 33L8 34L9 34L9 35L10 35L10 34L14 34L14 33L15 33L15 34L17 34L17 33L15 33L15 32L16 32L16 30L18 30L18 31L17 31L17 32L21 32L21 33L22 33L22 30L23 30L23 29L24 29L24 30L27 30L27 31L26 31L26 32L25 32L25 31L24 31L24 32L23 32L23 34L21 34L21 35L23 35L23 34L24 34L24 32L25 32L25 33L26 33L26 34L25 34L25 37L26 37L26 38L24 38L24 37L22 37L22 36L20 36L20 35L19 35L19 34L20 34L20 33L19 33L19 34L18 34L18 35L19 35L19 37L18 37L18 36L16 36L16 35L14 35L14 37L13 37L13 35L11 35L11 36L12 36L12 37L13 37L13 39L12 39L12 38L10 38L10 37L9 37L9 36L8 36L8 39L11 39L11 40L13 40L13 39L14 39L14 40L15 40L15 39L16 39L16 38L17 38L17 39L18 39L18 38L19 38L19 40L16 40L16 41L21 41L21 39L22 39L22 38L24 38L24 39L25 39L25 40L26 40L26 41L27 41L27 40L28 40L28 38L27 38L27 37L29 37L29 36L31 36L31 35L32 35L32 37L30 37L30 38L33 38L33 39L32 39L32 40L31 40L31 41L32 41L32 40L33 40L33 41L34 41L34 40L33 40L33 39L35 39L35 40L36 40L36 39L37 39L37 40L40 40L40 38L41 38L41 37L40 37L40 36L38 36L38 34L37 34L37 32L38 32L38 33L39 33L39 35L40 35L40 34L41 34L41 33L39 33L39 32L38 32L38 31L37 31L37 30L38 30L38 29L35 29L35 30L34 30L34 31L35 31L35 32L33 32L33 31L32 31L32 30L33 30L33 29L34 29L34 28L33 28L33 27L34 27L34 26L35 26L35 27L36 27L36 28L38 28L38 26L39 26L39 31L40 31L40 30L41 30L41 29L40 29L40 26L41 26L41 23L39 23L39 24L40 24L40 26L39 26L39 25L33 25L33 21L34 21L34 22L35 22L35 23L36 23L36 24L37 24L37 23L38 23L38 22L37 22L37 20L38 20L38 21L39 21L39 20L38 20L38 19L40 19L40 18L41 18L41 16L40 16L40 18L37 18L37 17L39 17L39 16L37 16L37 14L38 14L38 15L39 15L39 14L41 14L41 13L40 13L40 10L41 10L41 8L38 8L38 9L40 9L40 10L37 10L37 9L36 9L36 8L33 8L33 5L32 5L32 4L33 4L33 3L32 3L32 4L30 4L30 7L31 7L31 5L32 5L32 9L31 9L31 8L29 8L29 5L27 5L27 4L26 4L26 5L25 5L25 3L24 3L24 1L25 1L25 0L24 0L24 1L23 1L23 2L22 2L22 3L21 3L21 4L20 4L20 2L18 2L18 1L19 1L19 0ZM20 0L20 1L22 1L22 0ZM26 0L26 1L27 1L27 2L26 2L26 3L28 3L28 4L29 4L29 3L31 3L31 2L30 2L30 0L29 0L29 1L27 1L27 0ZM31 0L31 1L32 1L32 2L33 2L33 1L32 1L32 0ZM11 3L11 4L12 4L12 3ZM23 3L23 4L24 4L24 3ZM17 4L17 7L18 7L18 8L19 8L19 7L20 7L20 6L19 6L19 7L18 7L18 5L20 5L20 4ZM21 4L21 5L22 5L22 4ZM23 5L23 7L24 7L24 8L23 8L23 9L24 9L24 8L26 8L26 9L25 9L25 10L24 10L24 13L23 13L23 14L25 14L25 13L26 13L26 14L27 14L27 15L26 15L26 16L25 16L25 15L24 15L24 17L23 17L23 18L22 18L22 17L21 17L21 18L22 18L22 19L21 19L21 20L20 20L20 21L19 21L19 20L18 20L18 19L19 19L19 16L20 16L20 15L19 15L19 16L18 16L18 15L17 15L17 13L18 13L18 12L16 12L16 14L14 14L14 11L13 11L13 12L12 12L12 13L9 13L9 17L10 17L10 18L9 18L9 19L10 19L10 22L11 22L11 21L13 21L13 20L14 20L14 21L15 21L15 23L16 23L16 24L15 24L15 25L14 25L14 24L13 24L13 23L14 23L14 22L12 22L12 23L11 23L11 24L10 24L10 25L9 25L9 23L8 23L8 22L9 22L9 20L7 20L7 21L8 21L8 22L7 22L7 23L6 23L6 24L7 24L7 23L8 23L8 27L6 27L6 26L7 26L7 25L4 25L4 26L5 26L5 27L4 27L4 28L3 28L3 27L2 27L2 26L1 26L1 27L2 27L2 28L3 28L3 29L2 29L2 30L3 30L3 29L4 29L4 28L8 28L8 29L9 29L9 28L10 28L10 29L11 29L11 30L13 30L13 29L15 29L15 27L16 27L16 28L18 28L18 29L19 29L19 31L21 31L21 30L22 30L22 28L24 28L24 29L27 29L27 26L29 26L29 28L31 28L31 29L28 29L28 30L29 30L29 31L28 31L28 32L30 32L30 31L31 31L31 30L32 30L32 29L33 29L33 28L32 28L32 27L33 27L33 25L32 25L32 22L31 22L31 21L33 21L33 20L34 20L34 21L35 21L35 22L36 22L36 21L35 21L35 19L36 19L36 20L37 20L37 18L36 18L36 17L37 17L37 16L36 16L36 17L35 17L35 14L36 14L36 13L38 13L38 14L39 14L39 11L38 11L38 12L35 12L35 13L34 13L34 12L33 12L33 13L32 13L32 10L33 10L33 11L34 11L34 10L33 10L33 9L32 9L32 10L31 10L31 9L27 9L27 7L28 7L28 6L27 6L27 7L26 7L26 6L25 6L25 5ZM9 6L9 9L10 9L10 8L11 8L11 7L10 7L10 6ZM15 6L15 7L16 7L16 6ZM24 6L24 7L25 7L25 6ZM2 9L2 10L4 10L4 9ZM26 9L26 12L27 12L27 14L29 14L29 13L30 13L30 15L31 15L31 12L29 12L29 11L28 11L28 10L27 10L27 9ZM0 11L0 12L1 12L1 11ZM27 11L27 12L28 12L28 13L29 13L29 12L28 12L28 11ZM0 13L0 14L1 14L1 13ZM6 13L6 14L8 14L8 13ZM33 13L33 14L32 14L32 15L34 15L34 13ZM11 14L11 16L10 16L10 17L11 17L11 16L13 16L13 17L12 17L12 19L13 19L13 18L14 18L14 19L16 19L16 23L18 23L18 22L19 22L19 24L17 24L17 25L16 25L16 27L17 27L17 25L20 25L20 26L22 26L22 23L23 23L23 20L26 20L26 21L28 21L28 22L25 22L25 23L24 23L24 25L25 25L25 26L24 26L24 27L25 27L25 26L27 26L27 25L29 25L29 26L30 26L30 25L31 25L31 26L32 26L32 25L31 25L31 22L30 22L30 21L31 21L31 20L30 20L30 21L28 21L28 20L29 20L29 18L26 18L26 17L24 17L24 18L23 18L23 20L21 20L21 22L19 22L19 21L17 21L17 19L16 19L16 18L17 18L17 17L18 17L18 16L16 16L16 15L15 15L15 16L14 16L14 14ZM0 15L0 17L1 17L1 15ZM6 15L6 16L7 16L7 17L5 17L5 18L7 18L7 19L8 19L8 18L7 18L7 17L8 17L8 15ZM28 15L28 16L29 16L29 17L30 17L30 19L31 19L31 18L34 18L34 19L35 19L35 17L34 17L34 16L33 16L33 17L30 17L30 16L29 16L29 15ZM3 17L3 18L4 18L4 17ZM14 17L14 18L16 18L16 17ZM24 18L24 19L26 19L26 18ZM27 19L27 20L28 20L28 19ZM40 20L40 21L41 21L41 20ZM21 22L21 23L22 23L22 22ZM29 22L29 23L28 23L28 24L30 24L30 22ZM1 23L1 24L2 24L2 25L3 25L3 24L2 24L2 23ZM25 23L25 24L26 24L26 25L27 25L27 23ZM12 24L12 25L13 25L13 24ZM13 26L13 27L12 27L12 28L14 28L14 27L15 27L15 26ZM10 27L10 28L11 28L11 27ZM18 27L18 28L19 28L19 27ZM20 28L20 29L21 29L21 28ZM6 29L6 30L7 30L7 29ZM8 30L8 33L10 33L10 32L11 32L11 33L14 33L14 31L15 31L15 30L14 30L14 31L13 31L13 32L12 32L12 31L10 31L10 30ZM9 31L9 32L10 32L10 31ZM26 32L26 33L27 33L27 34L28 34L28 35L26 35L26 37L27 37L27 36L28 36L28 35L29 35L29 33L27 33L27 32ZM30 33L30 35L31 35L31 33ZM33 33L33 36L36 36L36 33ZM34 34L34 35L35 35L35 34ZM15 36L15 38L16 38L16 36ZM37 36L37 37L38 37L38 36ZM17 37L17 38L18 38L18 37ZM20 37L20 38L22 38L22 37ZM33 37L33 38L36 38L36 37ZM37 38L37 39L38 39L38 38ZM26 39L26 40L27 40L27 39ZM9 40L9 41L10 41L10 40ZM22 40L22 41L23 41L23 40ZM29 40L29 41L30 41L30 40ZM0 0L0 7L7 7L7 0ZM1 1L1 6L6 6L6 1ZM2 2L2 5L5 5L5 2ZM34 0L34 7L41 7L41 0ZM35 1L35 6L40 6L40 1ZM36 2L36 5L39 5L39 2ZM0 34L0 41L7 41L7 34ZM1 35L1 40L6 40L6 35ZM2 36L2 39L5 39L5 36Z" fill="#000000"/></g></g></svg>
