<?xml version="1.0" encoding="UTF-8"?>
<svg xmlns="http://www.w3.org/2000/svg" version="1.1" width="200" height="200" viewBox="0 0 200 200"><rect x="0" y="0" width="200" height="200" fill="#ffffff"/><g transform="scale(4.878)"><g transform="translate(0,0)"><path fill-rule="evenodd" d="M13 0L13 1L10 1L10 2L9 2L9 1L8 1L8 2L9 2L9 4L10 4L10 5L8 5L8 8L4 8L4 9L7 9L7 10L4 10L4 14L3 14L3 13L2 13L2 12L3 12L3 10L1 10L1 9L0 9L0 10L1 10L1 11L2 11L2 12L1 12L1 13L0 13L0 14L1 14L1 15L0 15L0 17L1 17L1 18L2 18L2 19L4 19L4 20L2 20L2 21L0 21L0 24L1 24L1 26L0 26L0 30L1 30L1 28L2 28L2 30L3 30L3 28L2 28L2 27L1 27L1 26L2 26L2 24L4 24L4 23L5 23L5 24L6 24L6 25L5 25L5 28L4 28L4 29L5 29L5 30L6 30L6 31L7 31L7 30L6 30L6 29L7 29L7 28L6 28L6 27L8 27L8 28L10 28L10 27L11 27L11 29L12 29L12 27L13 27L13 28L15 28L15 29L16 29L16 27L17 27L17 26L18 26L18 25L17 25L17 26L16 26L16 24L17 24L17 22L16 22L16 21L19 21L19 20L18 20L18 19L20 19L20 21L21 21L21 22L20 22L20 23L21 23L21 22L23 22L23 23L22 23L22 24L19 24L19 22L18 22L18 24L19 24L19 26L22 26L22 24L23 24L23 25L24 25L24 26L23 26L23 27L22 27L22 29L20 29L20 30L22 30L22 32L23 32L23 35L22 35L22 34L21 34L21 36L23 36L23 37L25 37L25 38L23 38L23 39L22 39L22 37L20 37L20 35L19 35L19 30L18 30L18 29L19 29L19 28L20 28L20 27L18 27L18 29L17 29L17 30L18 30L18 31L16 31L16 30L14 30L14 31L16 31L16 33L18 33L18 34L17 34L17 35L16 35L16 34L15 34L15 33L14 33L14 32L12 32L12 31L13 31L13 30L10 30L10 29L8 29L8 31L9 31L9 30L10 30L10 31L11 31L11 33L10 33L10 32L5 32L5 31L3 31L3 32L0 32L0 33L4 33L4 32L5 32L5 33L8 33L8 37L9 37L9 40L11 40L11 39L13 39L13 40L12 40L12 41L17 41L17 40L18 40L18 41L20 41L20 40L21 40L21 41L22 41L22 40L23 40L23 41L24 41L24 40L23 40L23 39L26 39L26 40L25 40L25 41L26 41L26 40L27 40L27 39L28 39L28 41L33 41L33 39L30 39L30 38L28 38L28 37L29 37L29 36L30 36L30 37L36 37L36 38L37 38L37 35L40 35L40 38L39 38L39 37L38 37L38 38L39 38L39 40L37 40L37 39L36 39L36 40L37 40L37 41L40 41L40 40L41 40L41 29L40 29L40 30L39 30L39 32L40 32L40 34L39 34L39 33L38 33L38 29L39 29L39 28L38 28L38 26L37 26L37 25L34 25L34 24L35 24L35 23L36 23L36 24L37 24L37 22L40 22L40 23L41 23L41 22L40 22L40 21L41 21L41 13L40 13L40 12L38 12L38 11L41 11L41 9L40 9L40 8L39 8L39 9L36 9L36 8L34 8L34 10L33 10L33 9L32 9L32 8L31 8L31 6L32 6L32 7L33 7L33 6L32 6L32 5L30 5L30 3L31 3L31 2L32 2L32 1L33 1L33 0L32 0L32 1L30 1L30 2L29 2L29 1L28 1L28 0L27 0L27 1L28 1L28 2L27 2L27 3L26 3L26 2L25 2L25 1L24 1L24 0L22 0L22 1L21 1L21 0L20 0L20 2L22 2L22 3L23 3L23 4L22 4L22 5L21 5L21 4L20 4L20 3L19 3L19 4L18 4L18 3L16 3L16 2L17 2L17 0L15 0L15 3L14 3L14 4L13 4L13 5L14 5L14 4L16 4L16 7L15 7L15 6L14 6L14 7L15 7L15 8L14 8L14 9L13 9L13 11L11 11L11 10L12 10L12 8L13 8L13 6L12 6L12 5L11 5L11 4L10 4L10 2L11 2L11 3L13 3L13 2L14 2L14 0ZM18 0L18 2L19 2L19 0ZM23 1L23 2L24 2L24 1ZM28 2L28 3L27 3L27 4L28 4L28 5L27 5L27 7L26 7L26 3L24 3L24 4L25 4L25 7L24 7L24 5L22 5L22 6L21 6L21 7L20 7L20 6L19 6L19 5L17 5L17 7L16 7L16 8L15 8L15 10L16 10L16 12L15 12L15 11L14 11L14 12L13 12L13 14L9 14L9 13L8 13L8 11L9 11L9 12L10 12L10 13L12 13L12 12L11 12L11 11L9 11L9 10L10 10L10 8L12 8L12 6L11 6L11 5L10 5L10 6L9 6L9 8L8 8L8 9L9 9L9 10L7 10L7 11L5 11L5 12L7 12L7 13L5 13L5 14L4 14L4 16L3 16L3 14L2 14L2 15L1 15L1 17L2 17L2 18L4 18L4 19L6 19L6 20L7 20L7 21L5 21L5 20L4 20L4 22L7 22L7 23L6 23L6 24L7 24L7 25L6 25L6 26L8 26L8 27L10 27L10 26L9 26L9 25L11 25L11 27L12 27L12 25L13 25L13 26L14 26L14 27L15 27L15 26L14 26L14 25L15 25L15 24L16 24L16 23L15 23L15 21L16 21L16 19L17 19L17 18L16 18L16 17L15 17L15 16L16 16L16 14L17 14L17 15L18 15L18 16L17 16L17 17L18 17L18 18L19 18L19 17L18 17L18 16L19 16L19 15L20 15L20 14L22 14L22 15L21 15L21 16L20 16L20 17L21 17L21 18L20 18L20 19L22 19L22 17L23 17L23 19L24 19L24 20L23 20L23 21L24 21L24 23L23 23L23 24L24 24L24 25L25 25L25 29L24 29L24 27L23 27L23 29L22 29L22 30L23 30L23 31L25 31L25 29L27 29L27 30L26 30L26 31L27 31L27 32L26 32L26 34L24 34L24 36L25 36L25 37L28 37L28 36L29 36L29 34L30 34L30 35L31 35L31 36L32 36L32 35L31 35L31 34L32 34L32 33L31 33L31 32L34 32L34 31L36 31L36 32L37 32L37 31L36 31L36 29L37 29L37 26L36 26L36 29L33 29L33 28L32 28L32 27L34 27L34 28L35 28L35 26L34 26L34 25L33 25L33 24L32 24L32 25L31 25L31 24L30 24L30 25L31 25L31 28L30 28L30 29L29 29L29 28L28 28L28 29L27 29L27 25L29 25L29 23L27 23L27 25L26 25L26 24L24 24L24 23L25 23L25 21L24 21L24 20L26 20L26 19L27 19L27 21L29 21L29 22L30 22L30 23L32 23L32 21L36 21L36 22L37 22L37 21L39 21L39 20L40 20L40 19L37 19L37 21L36 21L36 19L35 19L35 18L36 18L36 17L39 17L39 16L40 16L40 13L39 13L39 15L38 15L38 14L37 14L37 15L36 15L36 13L37 13L37 10L35 10L35 11L36 11L36 12L34 12L34 11L33 11L33 13L32 13L32 15L33 15L33 16L31 16L31 17L30 17L30 18L29 18L29 16L27 16L27 17L26 17L26 16L24 16L24 17L23 17L23 15L25 15L25 14L28 14L28 15L29 15L29 13L28 13L28 12L29 12L29 10L30 10L30 9L31 9L31 11L32 11L32 9L31 9L31 8L30 8L30 9L28 9L28 8L29 8L29 7L30 7L30 5L29 5L29 2ZM10 6L10 7L11 7L11 6ZM18 6L18 7L17 7L17 8L16 8L16 9L17 9L17 10L18 10L18 12L16 12L16 13L15 13L15 12L14 12L14 14L13 14L13 15L12 15L12 17L14 17L14 14L16 14L16 13L18 13L18 12L20 12L20 11L21 11L21 12L22 12L22 13L24 13L24 11L25 11L25 12L26 12L26 11L27 11L27 12L28 12L28 9L27 9L27 8L28 8L28 7L29 7L29 6L28 6L28 7L27 7L27 8L26 8L26 7L25 7L25 8L24 8L24 9L23 9L23 6L22 6L22 7L21 7L21 8L22 8L22 9L23 9L23 10L21 10L21 9L20 9L20 7L19 7L19 6ZM18 7L18 8L17 8L17 9L18 9L18 8L19 8L19 7ZM25 8L25 9L24 9L24 10L25 10L25 11L26 11L26 10L25 10L25 9L26 9L26 8ZM19 9L19 11L20 11L20 9ZM33 13L33 15L34 15L34 16L35 16L35 17L34 17L34 18L35 18L35 17L36 17L36 15L35 15L35 14L34 14L34 13ZM6 14L6 15L7 15L7 16L4 16L4 18L6 18L6 19L7 19L7 20L8 20L8 21L7 21L7 22L8 22L8 21L9 21L9 20L10 20L10 19L11 19L11 17L10 17L10 15L9 15L9 14ZM30 14L30 15L31 15L31 14ZM8 15L8 16L7 16L7 17L6 17L6 18L7 18L7 17L8 17L8 18L9 18L9 15ZM2 16L2 17L3 17L3 16ZM24 17L24 18L25 18L25 19L26 19L26 17ZM27 17L27 19L28 19L28 20L29 20L29 18L28 18L28 17ZM32 17L32 18L33 18L33 17ZM12 18L12 19L13 19L13 18ZM14 18L14 21L13 21L13 20L12 20L12 21L13 21L13 22L11 22L11 23L10 23L10 22L9 22L9 23L7 23L7 24L8 24L8 25L9 25L9 23L10 23L10 24L11 24L11 25L12 25L12 23L14 23L14 21L15 21L15 18ZM30 18L30 19L31 19L31 18ZM0 19L0 20L1 20L1 19ZM8 19L8 20L9 20L9 19ZM34 19L34 20L35 20L35 19ZM21 20L21 21L22 21L22 20ZM31 20L31 21L30 21L30 22L31 22L31 21L32 21L32 20ZM2 21L2 22L1 22L1 23L3 23L3 21ZM33 22L33 23L34 23L34 22ZM13 24L13 25L14 25L14 24ZM39 24L39 27L41 27L41 24ZM32 25L32 26L33 26L33 25ZM31 28L31 29L30 29L30 30L29 30L29 29L28 29L28 31L29 31L29 33L28 33L28 32L27 32L27 36L28 36L28 34L29 34L29 33L30 33L30 34L31 34L31 33L30 33L30 32L31 32L31 30L32 30L32 31L33 31L33 29L32 29L32 28ZM24 32L24 33L25 33L25 32ZM9 33L9 35L10 35L10 33ZM11 33L11 35L12 35L12 33ZM13 33L13 36L12 36L12 37L11 37L11 36L10 36L10 37L11 37L11 38L10 38L10 39L11 39L11 38L13 38L13 39L14 39L14 38L15 38L15 36L16 36L16 35L14 35L14 33ZM33 33L33 36L36 36L36 33ZM37 33L37 34L38 34L38 33ZM34 34L34 35L35 35L35 34ZM18 35L18 37L19 37L19 38L18 38L18 40L19 40L19 39L20 39L20 37L19 37L19 35ZM13 37L13 38L14 38L14 37ZM16 37L16 40L17 40L17 37ZM21 39L21 40L22 40L22 39ZM34 39L34 40L35 40L35 39ZM0 0L0 7L7 7L7 0ZM1 1L1 6L6 6L6 1ZM2 2L2 5L5 5L5 2ZM34 0L34 7L41 7L41 0ZM35 1L35 6L40 6L40 1ZM36 2L36 5L39 5L39 2ZM0 34L0 41L7 41L7 34ZM1 35L1 40L6 40L6 35ZM2 36L2 39L5 39L5 36Z" fill="#000000"/></g></g></svg>
