<?xml version="1.0" encoding="UTF-8"?>
<svg xmlns="http://www.w3.org/2000/svg" version="1.1" width="200" height="200" viewBox="0 0 200 200"><rect x="0" y="0" width="200" height="200" fill="#ffffff"/><g transform="scale(4.878)"><g transform="translate(0,0)"><path fill-rule="evenodd" d="M8 0L8 3L9 3L9 4L10 4L10 5L8 5L8 9L7 9L7 8L6 8L6 9L7 9L7 10L5 10L5 11L2 11L2 9L3 9L3 10L4 10L4 9L5 9L5 8L2 8L2 9L1 9L1 11L0 11L0 12L1 12L1 11L2 11L2 13L0 13L0 14L1 14L1 15L0 15L0 16L1 16L1 17L0 17L0 18L1 18L1 20L0 20L0 21L1 21L1 22L0 22L0 23L2 23L2 24L1 24L1 26L0 26L0 33L1 33L1 30L2 30L2 31L3 31L3 30L4 30L4 29L3 29L3 28L2 28L2 27L3 27L3 26L4 26L4 28L5 28L5 26L4 26L4 24L5 24L5 25L10 25L10 26L6 26L6 27L7 27L7 28L6 28L6 29L7 29L7 30L5 30L5 31L7 31L7 32L6 32L6 33L8 33L8 34L11 34L11 35L10 35L10 36L8 36L8 39L9 39L9 38L11 38L11 39L12 39L12 40L10 40L10 41L12 41L12 40L14 40L14 41L16 41L16 40L14 40L14 39L15 39L15 38L11 38L11 37L13 37L13 35L14 35L14 34L15 34L15 36L14 36L14 37L16 37L16 36L17 36L17 38L16 38L16 39L18 39L18 40L17 40L17 41L20 41L20 38L22 38L22 39L23 39L23 37L19 37L19 36L18 36L18 35L16 35L16 34L15 34L15 33L16 33L16 32L23 32L23 33L22 33L22 34L21 34L21 33L19 33L19 35L20 35L20 36L21 36L21 35L22 35L22 34L23 34L23 36L24 36L24 39L25 39L25 36L26 36L26 37L28 37L28 38L27 38L27 39L26 39L26 40L25 40L25 41L28 41L28 39L29 39L29 37L28 37L28 36L26 36L26 31L25 31L25 29L27 29L27 30L30 30L30 31L31 31L31 29L30 29L30 28L29 28L29 27L28 27L28 26L26 26L26 25L25 25L25 27L28 27L28 28L25 28L25 29L24 29L24 28L23 28L23 27L24 27L24 24L22 24L22 20L24 20L24 18L25 18L25 17L24 17L24 18L23 18L23 17L22 17L22 16L24 16L24 14L27 14L27 15L25 15L25 16L27 16L27 17L26 17L26 19L29 19L29 20L31 20L31 21L30 21L30 22L29 22L29 21L28 21L28 20L26 20L26 22L25 22L25 21L23 21L23 23L24 23L24 22L25 22L25 24L26 24L26 22L27 22L27 25L29 25L29 26L32 26L32 25L34 25L34 27L32 27L32 29L33 29L33 30L32 30L32 31L33 31L33 30L34 30L34 31L36 31L36 32L32 32L32 33L30 33L30 32L29 32L29 31L28 31L28 33L30 33L30 35L32 35L32 37L31 37L31 36L30 36L30 37L31 37L31 40L33 40L33 41L34 41L34 40L33 40L33 39L32 39L32 38L34 38L34 39L35 39L35 40L36 40L36 39L37 39L37 37L39 37L39 40L40 40L40 38L41 38L41 37L40 37L40 36L37 36L37 34L38 34L38 33L39 33L39 35L40 35L40 34L41 34L41 33L40 33L40 32L41 32L41 31L40 31L40 30L41 30L41 29L40 29L40 28L41 28L41 27L40 27L40 26L41 26L41 23L40 23L40 26L39 26L39 24L37 24L37 25L36 25L36 23L35 23L35 22L36 22L36 21L37 21L37 20L38 20L38 21L39 21L39 20L38 20L38 19L37 19L37 20L36 20L36 19L35 19L35 17L36 17L36 18L38 18L38 17L39 17L39 16L37 16L37 15L36 15L36 14L37 14L37 13L36 13L36 14L35 14L35 15L36 15L36 16L35 16L35 17L34 17L34 16L33 16L33 15L34 15L34 14L33 14L33 13L34 13L34 12L33 12L33 13L32 13L32 14L31 14L31 12L32 12L32 11L34 11L34 10L35 10L35 12L38 12L38 11L40 11L40 10L41 10L41 8L38 8L38 9L40 9L40 10L37 10L37 9L36 9L36 8L33 8L33 4L32 4L32 3L30 3L30 4L31 4L31 5L32 5L32 9L30 9L30 8L29 8L29 9L28 9L28 8L27 8L27 9L28 9L28 10L25 10L25 9L26 9L26 7L27 7L27 6L28 6L28 7L29 7L29 5L26 5L26 4L27 4L27 3L28 3L28 4L29 4L29 1L27 1L27 0L25 0L25 1L24 1L24 0L23 0L23 1L24 1L24 2L22 2L22 3L21 3L21 0L20 0L20 1L17 1L17 0L16 0L16 1L15 1L15 2L14 2L14 3L12 3L12 4L11 4L11 2L10 2L10 1L11 1L11 0L10 0L10 1L9 1L9 0ZM13 0L13 1L14 1L14 0ZM31 0L31 1L30 1L30 2L31 2L31 1L32 1L32 0ZM9 2L9 3L10 3L10 2ZM15 2L15 4L13 4L13 7L12 7L12 5L10 5L10 6L9 6L9 8L11 8L11 7L12 7L12 8L13 8L13 9L14 9L14 8L17 8L17 7L18 7L18 6L19 6L19 12L20 12L20 13L17 13L17 10L16 10L16 9L15 9L15 10L16 10L16 11L14 11L14 10L12 10L12 9L11 9L11 10L9 10L9 9L8 9L8 11L6 11L6 12L3 12L3 13L2 13L2 16L3 16L3 17L2 17L2 18L4 18L4 19L3 19L3 20L1 20L1 21L2 21L2 23L3 23L3 22L4 22L4 23L5 23L5 24L7 24L7 23L8 23L8 24L10 24L10 25L11 25L11 26L12 26L12 27L13 27L13 30L12 30L12 29L10 29L10 31L9 31L9 32L11 32L11 33L12 33L12 34L13 34L13 33L14 33L14 32L13 32L13 30L17 30L17 31L18 31L18 29L19 29L19 28L20 28L20 29L21 29L21 27L19 27L19 25L18 25L18 24L19 24L19 23L20 23L20 22L21 22L21 20L20 20L20 17L19 17L19 16L20 16L20 15L21 15L21 14L22 14L22 13L21 13L21 12L20 12L20 11L21 11L21 10L20 10L20 9L21 9L21 8L20 8L20 5L22 5L22 4L23 4L23 7L22 7L22 6L21 6L21 7L22 7L22 8L25 8L25 7L26 7L26 6L25 6L25 7L24 7L24 5L25 5L25 4L26 4L26 3L27 3L27 2L26 2L26 3L22 3L22 4L21 4L21 3L19 3L19 5L17 5L17 2ZM15 4L15 6L14 6L14 7L13 7L13 8L14 8L14 7L15 7L15 6L16 6L16 7L17 7L17 5L16 5L16 4ZM10 6L10 7L11 7L11 6ZM30 6L30 7L31 7L31 6ZM22 9L22 10L23 10L23 12L24 12L24 13L25 13L25 12L24 12L24 11L25 11L25 10L23 10L23 9ZM29 9L29 10L30 10L30 11L28 11L28 12L27 12L27 11L26 11L26 12L27 12L27 13L28 13L28 14L29 14L29 15L28 15L28 17L27 17L27 18L29 18L29 16L31 16L31 14L30 14L30 13L28 13L28 12L30 12L30 11L32 11L32 10L34 10L34 9L32 9L32 10L30 10L30 9ZM35 9L35 10L36 10L36 9ZM9 11L9 12L8 12L8 13L10 13L10 15L9 15L9 14L6 14L6 13L7 13L7 12L6 12L6 13L3 13L3 14L5 14L5 16L6 16L6 17L4 17L4 18L5 18L5 19L4 19L4 21L5 21L5 22L6 22L6 23L7 23L7 22L6 22L6 21L7 21L7 20L8 20L8 22L10 22L10 23L11 23L11 25L12 25L12 26L13 26L13 27L15 27L15 28L17 28L17 29L18 29L18 28L17 28L17 26L18 26L18 25L17 25L17 24L18 24L18 23L19 23L19 22L20 22L20 20L17 20L17 21L16 21L16 20L15 20L15 21L14 21L14 22L13 22L13 23L12 23L12 22L11 22L11 21L9 21L9 16L10 16L10 17L13 17L13 18L10 18L10 20L12 20L12 21L13 21L13 20L12 20L12 19L13 19L13 18L15 18L15 19L18 19L18 18L19 18L19 17L18 17L18 16L19 16L19 14L17 14L17 15L16 15L16 17L13 17L13 16L15 16L15 12L14 12L14 11L13 11L13 12L12 12L12 11L11 11L11 12L12 12L12 14L13 14L13 12L14 12L14 15L13 15L13 16L11 16L11 13L10 13L10 11ZM39 12L39 13L40 13L40 14L38 14L38 15L40 15L40 14L41 14L41 12ZM20 13L20 14L21 14L21 13ZM32 14L32 15L33 15L33 14ZM3 15L3 16L4 16L4 15ZM6 15L6 16L7 16L7 17L6 17L6 18L7 18L7 19L5 19L5 21L6 21L6 20L7 20L7 19L8 19L8 15ZM36 16L36 17L37 17L37 16ZM40 16L40 18L39 18L39 19L40 19L40 18L41 18L41 16ZM16 17L16 18L17 18L17 17ZM30 17L30 19L31 19L31 20L34 20L34 21L32 21L32 22L30 22L30 23L29 23L29 22L28 22L28 21L27 21L27 22L28 22L28 23L29 23L29 24L30 24L30 25L32 25L32 24L30 24L30 23L33 23L33 22L34 22L34 21L36 21L36 20L35 20L35 19L34 19L34 18L33 18L33 17L32 17L32 18L31 18L31 17ZM40 20L40 21L41 21L41 20ZM15 21L15 22L16 22L16 21ZM18 21L18 22L19 22L19 21ZM37 22L37 23L39 23L39 22ZM16 23L16 24L15 24L15 25L16 25L16 24L17 24L17 23ZM34 23L34 25L35 25L35 26L36 26L36 25L35 25L35 23ZM20 24L20 25L21 25L21 26L22 26L22 27L23 27L23 26L22 26L22 24ZM15 26L15 27L16 27L16 26ZM38 26L38 28L37 28L37 27L35 27L35 28L36 28L36 29L34 29L34 28L33 28L33 29L34 29L34 30L36 30L36 31L37 31L37 32L40 32L40 31L37 31L37 30L39 30L39 26ZM9 27L9 28L10 28L10 27ZM7 28L7 29L8 29L8 28ZM22 28L22 29L23 29L23 32L25 32L25 31L24 31L24 29L23 29L23 28ZM28 28L28 29L29 29L29 28ZM36 29L36 30L37 30L37 29ZM19 30L19 31L20 31L20 30ZM21 30L21 31L22 31L22 30ZM11 31L11 32L12 32L12 33L13 33L13 32L12 32L12 31ZM15 31L15 32L16 32L16 31ZM3 32L3 33L5 33L5 32ZM24 33L24 34L25 34L25 33ZM33 33L33 36L36 36L36 33ZM27 34L27 35L29 35L29 34ZM34 34L34 35L35 35L35 34ZM10 36L10 37L11 37L11 36ZM18 37L18 38L19 38L19 37ZM34 37L34 38L36 38L36 37ZM21 40L21 41L22 41L22 40ZM23 40L23 41L24 41L24 40ZM29 40L29 41L30 41L30 40ZM0 0L0 7L7 7L7 0ZM1 1L1 6L6 6L6 1ZM2 2L2 5L5 5L5 2ZM34 0L34 7L41 7L41 0ZM35 1L35 6L40 6L40 1ZM36 2L36 5L39 5L39 2ZM0 34L0 41L7 41L7 34ZM1 35L1 40L6 40L6 35ZM2 36L2 39L5 39L5 36Z" fill="#000000"/></g></g></svg>
