<?xml version="1.0" encoding="UTF-8"?>
<svg xmlns="http://www.w3.org/2000/svg" version="1.1" width="200" height="200" viewBox="0 0 200 200"><rect x="0" y="0" width="200" height="200" fill="#ffffff"/><g transform="scale(6.897)"><g transform="translate(0,0)"><path fill-rule="evenodd" d="M8 0L8 1L9 1L9 2L11 2L11 3L10 3L10 4L9 4L9 3L8 3L8 4L9 4L9 5L10 5L10 9L15 9L15 12L14 12L14 10L9 10L9 8L8 8L8 9L7 9L7 8L4 8L4 9L3 9L3 8L2 8L2 11L0 11L0 13L1 13L1 14L0 14L0 17L1 17L1 15L2 15L2 19L1 19L1 18L0 18L0 19L1 19L1 20L0 20L0 21L1 21L1 20L2 20L2 21L8 21L8 22L10 22L10 20L12 20L12 19L13 19L13 18L12 18L12 17L13 17L13 16L14 16L14 17L17 17L17 16L18 16L18 18L20 18L20 17L19 17L19 16L20 16L20 15L21 15L21 14L22 14L22 15L23 15L23 16L22 16L22 17L23 17L23 18L22 18L22 19L21 19L21 20L20 20L20 19L18 19L18 23L19 23L19 24L17 24L17 21L16 21L16 20L17 20L17 19L16 19L16 20L13 20L13 21L12 21L12 22L13 22L13 24L14 24L14 25L15 25L15 24L16 24L16 25L19 25L19 24L20 24L20 26L17 26L17 27L18 27L18 28L15 28L15 29L18 29L18 28L19 28L19 29L20 29L20 27L21 27L21 26L22 26L22 25L23 25L23 26L24 26L24 25L25 25L25 26L26 26L26 25L27 25L27 26L28 26L28 27L26 27L26 28L23 28L23 27L22 27L22 28L23 28L23 29L27 29L27 28L28 28L28 29L29 29L29 26L28 26L28 25L27 25L27 24L28 24L28 23L29 23L29 22L28 22L28 19L29 19L29 18L27 18L27 17L26 17L26 14L24 14L24 13L25 13L25 11L26 11L26 13L27 13L27 14L28 14L28 15L27 15L27 16L28 16L28 17L29 17L29 16L28 16L28 15L29 15L29 14L28 14L28 13L29 13L29 12L28 12L28 11L29 11L29 8L28 8L28 9L26 9L26 8L25 8L25 9L24 9L24 10L25 10L25 11L24 11L24 12L23 12L23 10L22 10L22 8L21 8L21 0L20 0L20 1L19 1L19 2L20 2L20 3L19 3L19 4L18 4L18 3L16 3L16 2L18 2L18 1L15 1L15 0L14 0L14 1L13 1L13 0L12 0L12 1L10 1L10 0ZM14 1L14 2L12 2L12 4L11 4L11 5L12 5L12 6L11 6L11 7L12 7L12 6L13 6L13 8L15 8L15 9L16 9L16 11L18 11L18 12L20 12L20 11L18 11L18 10L19 10L19 9L20 9L20 5L19 5L19 7L18 7L18 5L14 5L14 4L16 4L16 3L15 3L15 1ZM13 3L13 4L12 4L12 5L13 5L13 6L14 6L14 7L15 7L15 6L14 6L14 5L13 5L13 4L14 4L14 3ZM8 6L8 7L9 7L9 6ZM16 6L16 9L17 9L17 10L18 10L18 9L17 9L17 6ZM4 9L4 13L3 13L3 12L2 12L2 13L3 13L3 14L2 14L2 15L3 15L3 17L4 17L4 15L5 15L5 18L3 18L3 19L2 19L2 20L7 20L7 19L8 19L8 20L10 20L10 19L12 19L12 18L10 18L10 16L12 16L12 15L13 15L13 14L15 14L15 15L18 15L18 16L19 16L19 15L20 15L20 14L21 14L21 13L20 13L20 14L19 14L19 15L18 15L18 14L17 14L17 13L16 13L16 12L15 12L15 13L14 13L14 12L12 12L12 11L9 11L9 10L7 10L7 9ZM25 9L25 10L26 10L26 11L28 11L28 10L26 10L26 9ZM6 10L6 11L5 11L5 13L7 13L7 12L6 12L6 11L7 11L7 10ZM8 11L8 12L9 12L9 11ZM21 11L21 12L22 12L22 11ZM10 12L10 14L9 14L9 16L8 16L8 14L6 14L6 15L7 15L7 16L6 16L6 17L7 17L7 18L5 18L5 19L7 19L7 18L8 18L8 19L9 19L9 18L8 18L8 17L9 17L9 16L10 16L10 14L11 14L11 13L12 13L12 12ZM27 12L27 13L28 13L28 12ZM3 14L3 15L4 15L4 14ZM23 14L23 15L24 15L24 16L23 16L23 17L24 17L24 18L23 18L23 19L24 19L24 18L26 18L26 19L25 19L25 23L26 23L26 24L27 24L27 21L26 21L26 20L27 20L27 18L26 18L26 17L24 17L24 16L25 16L25 15L24 15L24 14ZM7 16L7 17L8 17L8 16ZM19 20L19 21L20 21L20 20ZM21 21L21 24L24 24L24 21ZM15 22L15 23L14 23L14 24L15 24L15 23L16 23L16 22ZM19 22L19 23L20 23L20 22ZM22 22L22 23L23 23L23 22ZM8 23L8 25L9 25L9 26L8 26L8 27L9 27L9 28L10 28L10 29L11 29L11 27L12 27L12 28L13 28L13 29L14 29L14 28L13 28L13 27L16 27L16 26L13 26L13 27L12 27L12 24L11 24L11 23L10 23L10 24L9 24L9 23ZM10 25L10 26L9 26L9 27L11 27L11 25ZM0 0L0 7L7 7L7 0ZM1 1L1 6L6 6L6 1ZM2 2L2 5L5 5L5 2ZM22 0L22 7L29 7L29 0ZM23 1L23 6L28 6L28 1ZM24 2L24 5L27 5L27 2ZM0 22L0 29L7 29L7 22ZM1 23L1 28L6 28L6 23ZM2 24L2 27L5 27L5 24Z" fill="#000000"/></g></g></svg>
