<?xml version="1.0" encoding="UTF-8"?>
<svg xmlns="http://www.w3.org/2000/svg" version="1.1" width="200" height="200" viewBox="0 0 200 200"><rect x="0" y="0" width="200" height="200" fill="#ffffff"/><g transform="scale(6.897)"><g transform="translate(0,0)"><path fill-rule="evenodd" d="M8 0L8 3L9 3L9 2L10 2L10 1L12 1L12 0ZM13 0L13 2L14 2L14 0ZM15 0L15 1L17 1L17 0ZM18 1L18 2L19 2L19 1ZM20 1L20 2L21 2L21 1ZM15 2L15 3L14 3L14 4L13 4L13 3L12 3L12 4L13 4L13 5L14 5L14 4L15 4L15 3L17 3L17 2ZM10 3L10 4L9 4L9 5L8 5L8 9L7 9L7 8L6 8L6 9L5 9L5 8L2 8L2 9L1 9L1 10L2 10L2 11L3 11L3 13L5 13L5 12L6 12L6 13L7 13L7 14L5 14L5 15L7 15L7 16L6 16L6 17L8 17L8 18L6 18L6 19L4 19L4 18L5 18L5 16L3 16L3 15L4 15L4 14L3 14L3 15L2 15L2 14L1 14L1 13L2 13L2 12L1 12L1 11L0 11L0 16L1 16L1 17L0 17L0 21L1 21L1 17L3 17L3 18L2 18L2 20L3 20L3 19L4 19L4 20L5 20L5 21L8 21L8 22L9 22L9 24L8 24L8 27L9 27L9 26L10 26L10 27L11 27L11 28L12 28L12 29L13 29L13 28L15 28L15 27L12 27L12 26L13 26L13 25L14 25L14 26L16 26L16 27L17 27L17 26L19 26L19 27L22 27L22 28L18 28L18 29L26 29L26 28L25 28L25 27L23 27L23 26L22 26L22 25L24 25L24 26L25 26L25 25L26 25L26 27L27 27L27 29L28 29L28 28L29 28L29 27L28 27L28 25L26 25L26 24L25 24L25 22L26 22L26 23L27 23L27 22L26 22L26 21L25 21L25 20L28 20L28 22L29 22L29 20L28 20L28 19L26 19L26 18L27 18L27 17L28 17L28 10L29 10L29 8L26 8L26 10L25 10L25 12L24 12L24 11L22 11L22 12L23 12L23 13L21 13L21 15L22 15L22 14L23 14L23 13L24 13L24 19L25 19L25 20L23 20L23 19L22 19L22 18L20 18L20 19L21 19L21 20L20 20L20 22L19 22L19 21L18 21L18 20L19 20L19 18L18 18L18 17L19 17L19 15L18 15L18 16L17 16L17 18L16 18L16 17L14 17L14 20L13 20L13 19L12 19L12 18L13 18L13 15L14 15L14 16L15 16L15 15L16 15L16 13L17 13L17 14L19 14L19 13L20 13L20 12L21 12L21 11L20 11L20 10L22 10L22 9L23 9L23 10L24 10L24 8L21 8L21 5L20 5L20 4L21 4L21 3L20 3L20 4L19 4L19 3L18 3L18 4L16 4L16 7L15 7L15 6L14 6L14 7L13 7L13 6L12 6L12 7L13 7L13 8L10 8L10 7L11 7L11 5L10 5L10 4L11 4L11 3ZM18 5L18 6L17 6L17 7L16 7L16 8L15 8L15 7L14 7L14 8L13 8L13 9L12 9L12 11L9 11L9 10L7 10L7 9L6 9L6 10L7 10L7 11L6 11L6 12L8 12L8 11L9 11L9 12L11 12L11 15L13 15L13 14L14 14L14 15L15 15L15 14L14 14L14 13L15 13L15 12L16 12L16 11L18 11L18 9L19 9L19 10L20 10L20 9L21 9L21 8L20 8L20 9L19 9L19 8L17 8L17 7L18 7L18 6L19 6L19 7L20 7L20 6L19 6L19 5ZM9 6L9 7L10 7L10 6ZM14 8L14 10L13 10L13 11L12 11L12 12L13 12L13 13L14 13L14 12L15 12L15 11L14 11L14 10L15 10L15 8ZM16 8L16 9L17 9L17 8ZM3 9L3 11L5 11L5 10L4 10L4 9ZM10 9L10 10L11 10L11 9ZM26 10L26 11L27 11L27 10ZM17 12L17 13L19 13L19 12ZM25 12L25 13L26 13L26 14L27 14L27 12ZM8 13L8 14L7 14L7 15L10 15L10 14L9 14L9 13ZM1 15L1 16L2 16L2 15ZM25 15L25 16L27 16L27 15ZM9 16L9 18L8 18L8 19L6 19L6 20L8 20L8 21L9 21L9 22L10 22L10 24L11 24L11 25L10 25L10 26L12 26L12 25L13 25L13 24L12 24L12 23L11 23L11 22L13 22L13 23L15 23L15 24L14 24L14 25L16 25L16 26L17 26L17 25L18 25L18 23L19 23L19 24L20 24L20 23L19 23L19 22L17 22L17 23L16 23L16 21L17 21L17 20L16 20L16 21L15 21L15 20L14 20L14 21L12 21L12 20L11 20L11 22L10 22L10 21L9 21L9 20L10 20L10 19L9 19L9 18L11 18L11 17L12 17L12 16L11 16L11 17L10 17L10 16ZM20 16L20 17L22 17L22 16ZM15 18L15 19L16 19L16 18ZM14 21L14 22L15 22L15 21ZM21 21L21 24L24 24L24 21ZM22 22L22 23L23 23L23 22ZM16 24L16 25L17 25L17 24ZM19 25L19 26L21 26L21 25ZM9 28L9 29L10 29L10 28ZM16 28L16 29L17 29L17 28ZM0 0L0 7L7 7L7 0ZM1 1L1 6L6 6L6 1ZM2 2L2 5L5 5L5 2ZM22 0L22 7L29 7L29 0ZM23 1L23 6L28 6L28 1ZM24 2L24 5L27 5L27 2ZM0 22L0 29L7 29L7 22ZM1 23L1 28L6 28L6 23ZM2 24L2 27L5 27L5 24Z" fill="#000000"/></g></g></svg>
