<?xml version="1.0" encoding="UTF-8"?>
<svg xmlns="http://www.w3.org/2000/svg" version="1.1" width="200" height="200" viewBox="0 0 200 200"><rect x="0" y="0" width="200" height="200" fill="#ffffff"/><g transform="scale(6.897)"><g transform="translate(0,0)"><path fill-rule="evenodd" d="M9 0L9 1L11 1L11 2L9 2L9 4L8 4L8 5L11 5L11 6L10 6L10 7L9 7L9 6L8 6L8 8L6 8L6 9L5 9L5 11L4 11L4 12L3 12L3 11L2 11L2 10L4 10L4 8L2 8L2 10L1 10L1 9L0 9L0 10L1 10L1 12L2 12L2 14L4 14L4 15L5 15L5 14L6 14L6 15L7 15L7 16L5 16L5 18L6 18L6 19L5 19L5 20L4 20L4 17L3 17L3 18L2 18L2 17L1 17L1 18L0 18L0 19L1 19L1 18L2 18L2 19L3 19L3 20L1 20L1 21L3 21L3 20L4 20L4 21L7 21L7 20L9 20L9 21L8 21L8 23L9 23L9 22L10 22L10 23L11 23L11 22L12 22L12 24L10 24L10 26L9 26L9 25L8 25L8 27L9 27L9 28L11 28L11 29L14 29L14 28L12 28L12 27L15 27L15 29L17 29L17 27L18 27L18 28L19 28L19 29L20 29L20 28L19 28L19 26L20 26L20 25L23 25L23 26L24 26L24 27L22 27L22 29L23 29L23 28L25 28L25 29L27 29L27 28L29 28L29 26L28 26L28 27L27 27L27 26L24 26L24 25L26 25L26 23L25 23L25 22L26 22L26 20L24 20L24 19L26 19L26 18L29 18L29 17L26 17L26 16L25 16L25 15L24 15L24 16L23 16L23 17L21 17L21 18L20 18L20 17L19 17L19 16L18 16L18 17L19 17L19 18L20 18L20 20L19 20L19 19L18 19L18 18L16 18L16 17L17 17L17 15L15 15L15 16L12 16L12 15L14 15L14 14L15 14L15 13L14 13L14 12L15 12L15 10L18 10L18 11L20 11L20 12L17 12L17 11L16 11L16 12L17 12L17 13L16 13L16 14L17 14L17 13L20 13L20 14L19 14L19 15L20 15L20 14L21 14L21 13L20 13L20 12L22 12L22 9L23 9L23 13L22 13L22 15L23 15L23 14L24 14L24 13L25 13L25 14L26 14L26 15L27 15L27 16L28 16L28 15L29 15L29 14L28 14L28 15L27 15L27 13L28 13L28 12L29 12L29 11L28 11L28 12L27 12L27 11L26 11L26 10L29 10L29 9L25 9L25 8L24 8L24 9L23 9L23 8L21 8L21 3L20 3L20 2L18 2L18 1L17 1L17 2L18 2L18 5L17 5L17 3L16 3L16 5L15 5L15 3L14 3L14 2L16 2L16 1L15 1L15 0L13 0L13 1L14 1L14 2L12 2L12 0ZM11 3L11 5L12 5L12 6L11 6L11 7L12 7L12 8L11 8L11 9L13 9L13 10L11 10L11 11L14 11L14 9L13 9L13 8L14 8L14 4L13 4L13 3ZM19 3L19 4L20 4L20 3ZM16 5L16 6L15 6L15 8L16 8L16 9L18 9L18 8L19 8L19 10L20 10L20 9L21 9L21 8L19 8L19 7L20 7L20 5L19 5L19 7L18 7L18 6L17 6L17 5ZM12 6L12 7L13 7L13 6ZM16 6L16 7L17 7L17 6ZM9 8L9 9L10 9L10 8ZM6 9L6 10L8 10L8 11L6 11L6 12L7 12L7 13L6 13L6 14L7 14L7 15L8 15L8 17L6 17L6 18L8 18L8 19L10 19L10 22L11 22L11 18L12 18L12 16L11 16L11 15L12 15L12 12L11 12L11 14L10 14L10 12L9 12L9 14L10 14L10 15L8 15L8 14L7 14L7 13L8 13L8 11L10 11L10 10L8 10L8 9ZM24 9L24 10L25 10L25 9ZM25 11L25 13L27 13L27 12L26 12L26 11ZM4 12L4 14L5 14L5 12ZM13 13L13 14L14 14L14 13ZM0 14L0 15L1 15L1 14ZM10 16L10 17L11 17L11 16ZM24 16L24 17L23 17L23 18L22 18L22 19L21 19L21 20L22 20L22 19L24 19L24 18L26 18L26 17L25 17L25 16ZM8 17L8 18L9 18L9 17ZM14 17L14 18L13 18L13 19L12 19L12 20L13 20L13 21L12 21L12 22L14 22L14 24L12 24L12 26L16 26L16 25L14 25L14 24L19 24L19 25L20 25L20 24L19 24L19 23L20 23L20 21L19 21L19 23L15 23L15 22L16 22L16 21L17 21L17 19L16 19L16 18L15 18L15 17ZM14 18L14 20L15 20L15 21L14 21L14 22L15 22L15 21L16 21L16 20L15 20L15 18ZM6 19L6 20L7 20L7 19ZM27 20L27 22L28 22L28 23L27 23L27 25L28 25L28 23L29 23L29 22L28 22L28 20ZM21 21L21 24L24 24L24 21ZM22 22L22 23L23 23L23 22ZM17 25L17 26L18 26L18 25ZM25 27L25 28L27 28L27 27ZM0 0L0 7L7 7L7 0ZM1 1L1 6L6 6L6 1ZM2 2L2 5L5 5L5 2ZM22 0L22 7L29 7L29 0ZM23 1L23 6L28 6L28 1ZM24 2L24 5L27 5L27 2ZM0 22L0 29L7 29L7 22ZM1 23L1 28L6 28L6 23ZM2 24L2 27L5 27L5 24Z" fill="#000000"/></g></g></svg>
