<?xml version="1.0" encoding="UTF-8"?>
<svg xmlns="http://www.w3.org/2000/svg" version="1.1" width="200" height="200" viewBox="0 0 200 200"><rect x="0" y="0" width="200" height="200" fill="#ffffff"/><g transform="scale(4.878)"><g transform="translate(0,0)"><path fill-rule="evenodd" d="M8 0L8 3L9 3L9 4L10 4L10 3L11 3L11 4L12 4L12 5L13 5L13 6L12 6L12 7L11 7L11 6L10 6L10 7L9 7L9 5L8 5L8 9L9 9L9 8L10 8L10 10L9 10L9 11L10 11L10 12L13 12L13 14L12 14L12 13L10 13L10 14L9 14L9 13L7 13L7 12L6 12L6 11L7 11L7 10L6 10L6 9L7 9L7 8L6 8L6 9L5 9L5 8L2 8L2 9L0 9L0 10L2 10L2 11L0 11L0 13L1 13L1 14L3 14L3 15L0 15L0 16L2 16L2 18L1 18L1 20L0 20L0 22L2 22L2 25L1 25L1 26L0 26L0 27L1 27L1 29L0 29L0 33L1 33L1 30L2 30L2 31L3 31L3 32L4 32L4 33L5 33L5 28L3 28L3 29L2 29L2 27L4 27L4 26L5 26L5 27L8 27L8 28L6 28L6 29L8 29L8 30L6 30L6 31L10 31L10 32L11 32L11 33L10 33L10 34L9 34L9 33L8 33L8 32L6 32L6 33L8 33L8 34L9 34L9 35L10 35L10 36L8 36L8 39L9 39L9 41L11 41L11 39L13 39L13 41L18 41L18 40L19 40L19 39L21 39L21 40L20 40L20 41L22 41L22 37L21 37L21 36L23 36L23 37L25 37L25 38L23 38L23 39L24 39L24 40L23 40L23 41L24 41L24 40L25 40L25 41L32 41L32 40L33 40L33 41L34 41L34 40L33 40L33 39L32 39L32 40L31 40L31 39L30 39L30 40L26 40L26 39L28 39L28 38L26 38L26 37L29 37L29 36L27 36L27 35L28 35L28 34L29 34L29 33L31 33L31 34L30 34L30 35L32 35L32 37L31 37L31 36L30 36L30 37L31 37L31 38L32 38L32 37L33 37L33 38L34 38L34 39L35 39L35 40L36 40L36 39L38 39L38 38L39 38L39 40L40 40L40 38L41 38L41 37L40 37L40 36L41 36L41 35L40 35L40 34L41 34L41 33L40 33L40 32L38 32L38 31L40 31L40 30L41 30L41 29L40 29L40 28L39 28L39 30L37 30L37 29L36 29L36 28L35 28L35 27L37 27L37 28L38 28L38 26L39 26L39 27L40 27L40 26L41 26L41 23L40 23L40 26L39 26L39 24L37 24L37 25L30 25L30 24L32 24L32 23L30 23L30 24L27 24L27 23L28 23L28 22L27 22L27 21L29 21L29 20L31 20L31 19L30 19L30 18L32 18L32 21L30 21L30 22L32 22L32 21L34 21L34 22L33 22L33 23L34 23L34 24L36 24L36 23L34 23L34 22L36 22L36 21L37 21L37 23L39 23L39 22L38 22L38 21L39 21L39 20L36 20L36 19L35 19L35 17L36 17L36 18L37 18L37 19L38 19L38 17L39 17L39 16L38 16L38 15L39 15L39 14L41 14L41 13L40 13L40 12L41 12L41 11L40 11L40 10L41 10L41 8L38 8L38 9L40 9L40 10L37 10L37 9L36 9L36 8L32 8L32 9L31 9L31 8L29 8L29 9L28 9L28 10L27 10L27 11L29 11L29 9L31 9L31 10L32 10L32 12L33 12L33 13L32 13L32 14L31 14L31 12L26 12L26 14L25 14L25 11L26 11L26 10L25 10L25 9L26 9L26 8L28 8L28 7L29 7L29 6L30 6L30 7L31 7L31 6L30 6L30 5L29 5L29 4L28 4L28 5L25 5L25 6L24 6L24 9L23 9L23 8L20 8L20 7L21 7L21 6L20 6L20 7L19 7L19 6L18 6L18 5L19 5L19 3L20 3L20 4L21 4L21 3L20 3L20 2L22 2L22 1L20 1L20 0L18 0L18 2L16 2L16 4L18 4L18 5L15 5L15 4L14 4L14 5L13 5L13 3L14 3L14 2L15 2L15 1L16 1L16 0L15 0L15 1L14 1L14 0L11 0L11 1L10 1L10 0ZM25 0L25 1L23 1L23 3L24 3L24 4L23 4L23 5L22 5L22 7L23 7L23 5L24 5L24 4L25 4L25 3L26 3L26 4L27 4L27 3L29 3L29 1L27 1L27 0ZM30 0L30 2L31 2L31 1L32 1L32 2L33 2L33 0ZM11 1L11 3L13 3L13 2L14 2L14 1ZM19 1L19 2L20 2L20 1ZM9 2L9 3L10 3L10 2ZM24 2L24 3L25 3L25 2ZM26 2L26 3L27 3L27 2ZM30 3L30 4L31 4L31 5L32 5L32 4L33 4L33 3ZM13 6L13 7L12 7L12 8L11 8L11 10L10 10L10 11L11 11L11 10L12 10L12 8L13 8L13 9L14 9L14 11L16 11L16 10L18 10L18 12L17 12L17 14L19 14L19 13L21 13L21 14L20 14L20 15L17 15L17 16L16 16L16 15L15 15L15 16L14 16L14 15L13 15L13 16L12 16L12 14L11 14L11 15L9 15L9 16L8 16L8 14L7 14L7 13L6 13L6 12L5 12L5 13L4 13L4 14L7 14L7 15L6 15L6 16L8 16L8 18L7 18L7 17L5 17L5 18L4 18L4 19L5 19L5 18L7 18L7 19L6 19L6 20L8 20L8 18L9 18L9 21L10 21L10 22L9 22L9 23L10 23L10 24L12 24L12 25L11 25L11 26L10 26L10 25L9 25L9 24L7 24L7 23L8 23L8 21L5 21L5 23L6 23L6 24L7 24L7 25L6 25L6 26L7 26L7 25L8 25L8 27L9 27L9 28L8 28L8 29L9 29L9 30L10 30L10 31L11 31L11 29L9 29L9 28L10 28L10 27L12 27L12 25L13 25L13 26L14 26L14 28L12 28L12 30L15 30L15 31L17 31L17 32L16 32L16 33L15 33L15 32L14 32L14 31L12 31L12 32L14 32L14 33L15 33L15 34L14 34L14 35L12 35L12 36L14 36L14 37L11 37L11 36L10 36L10 37L9 37L9 39L10 39L10 38L14 38L14 40L15 40L15 39L16 39L16 40L17 40L17 38L16 38L16 36L17 36L17 35L18 35L18 38L21 38L21 37L20 37L20 36L21 36L21 35L22 35L22 34L20 34L20 33L22 33L22 32L23 32L23 34L24 34L24 32L25 32L25 33L26 33L26 32L27 32L27 34L28 34L28 33L29 33L29 32L31 32L31 33L32 33L32 32L36 32L36 31L37 31L37 30L36 30L36 29L34 29L34 28L33 28L33 27L34 27L34 26L29 26L29 25L27 25L27 24L26 24L26 25L25 25L25 24L24 24L24 22L23 22L23 20L25 20L25 21L26 21L26 20L27 20L27 19L26 19L26 20L25 20L25 19L24 19L24 18L25 18L25 16L27 16L27 15L25 15L25 14L24 14L24 11L25 11L25 10L23 10L23 11L22 11L22 9L19 9L19 8L18 8L18 6L17 6L17 8L16 8L16 6L15 6L15 7L14 7L14 6ZM25 6L25 8L26 8L26 6ZM27 6L27 7L28 7L28 6ZM32 6L32 7L33 7L33 6ZM13 7L13 8L14 8L14 7ZM3 9L3 11L2 11L2 12L4 12L4 11L6 11L6 10L5 10L5 9ZM32 9L32 10L33 10L33 9ZM20 10L20 12L22 12L22 11L21 11L21 10ZM34 10L34 11L33 11L33 12L34 12L34 13L33 13L33 14L32 14L32 15L33 15L33 16L34 16L34 17L35 17L35 15L38 15L38 14L39 14L39 11L38 11L38 12L35 12L35 11L37 11L37 10ZM18 12L18 13L19 13L19 12ZM22 13L22 14L23 14L23 13ZM28 13L28 14L30 14L30 15L28 15L28 17L27 17L27 18L29 18L29 16L30 16L30 17L31 17L31 16L30 16L30 15L31 15L31 14L30 14L30 13ZM36 13L36 14L37 14L37 13ZM33 14L33 15L34 15L34 14ZM20 15L20 16L19 16L19 17L17 17L17 18L16 18L16 17L15 17L15 18L14 18L14 16L13 16L13 17L12 17L12 18L14 18L14 19L13 19L13 20L12 20L12 21L11 21L11 18L10 18L10 17L11 17L11 16L10 16L10 17L9 17L9 18L10 18L10 21L11 21L11 22L10 22L10 23L13 23L13 25L14 25L14 24L17 24L17 25L15 25L15 26L17 26L17 28L15 28L15 30L17 30L17 28L18 28L18 29L19 29L19 30L18 30L18 31L20 31L20 32L22 32L22 31L20 31L20 30L21 30L21 29L19 29L19 28L21 28L21 27L22 27L22 30L24 30L24 29L25 29L25 28L26 28L26 29L27 29L27 30L26 30L26 31L25 31L25 32L26 32L26 31L27 31L27 30L29 30L29 29L30 29L30 31L31 31L31 29L33 29L33 30L32 30L32 31L33 31L33 30L34 30L34 31L35 31L35 30L34 30L34 29L33 29L33 28L31 28L31 29L30 29L30 28L29 28L29 29L28 29L28 26L27 26L27 25L26 25L26 26L25 26L25 25L24 25L24 24L23 24L23 23L22 23L22 20L23 20L23 18L20 18L20 17L22 17L22 16L25 16L25 15L22 15L22 16L21 16L21 15ZM36 16L36 17L38 17L38 16ZM40 16L40 18L39 18L39 19L40 19L40 18L41 18L41 16ZM32 17L32 18L33 18L33 20L34 20L34 21L36 21L36 20L35 20L35 19L34 19L34 18L33 18L33 17ZM2 18L2 19L3 19L3 18ZM18 18L18 20L20 20L20 19L19 19L19 18ZM14 19L14 20L15 20L15 21L14 21L14 22L13 22L13 23L14 23L14 22L16 22L16 21L17 21L17 20L16 20L16 19ZM21 19L21 20L22 20L22 19ZM28 19L28 20L29 20L29 19ZM2 20L2 21L3 21L3 22L4 22L4 20ZM40 20L40 21L41 21L41 20ZM20 21L20 23L21 23L21 24L20 24L20 26L19 26L19 27L18 27L18 28L19 28L19 27L20 27L20 26L21 26L21 25L22 25L22 27L23 27L23 29L24 29L24 28L25 28L25 27L23 27L23 26L24 26L24 25L23 25L23 24L22 24L22 23L21 23L21 21ZM6 22L6 23L7 23L7 22ZM17 23L17 24L18 24L18 25L17 25L17 26L18 26L18 25L19 25L19 24L18 24L18 23ZM3 24L3 26L4 26L4 25L5 25L5 24ZM3 29L3 31L4 31L4 29ZM23 31L23 32L24 32L24 31ZM28 31L28 32L29 32L29 31ZM18 32L18 33L19 33L19 32ZM37 32L37 33L38 33L38 34L37 34L37 36L40 36L40 35L38 35L38 34L39 34L39 33L38 33L38 32ZM12 33L12 34L13 34L13 33ZM16 33L16 34L15 34L15 35L14 35L14 36L15 36L15 35L16 35L16 34L17 34L17 33ZM33 33L33 36L36 36L36 33ZM10 34L10 35L11 35L11 34ZM25 34L25 35L24 35L24 36L25 36L25 37L26 37L26 34ZM34 34L34 35L35 35L35 34ZM14 37L14 38L15 38L15 37ZM34 37L34 38L36 38L36 37ZM37 37L37 38L38 38L38 37ZM0 0L0 7L7 7L7 0ZM1 1L1 6L6 6L6 1ZM2 2L2 5L5 5L5 2ZM34 0L34 7L41 7L41 0ZM35 1L35 6L40 6L40 1ZM36 2L36 5L39 5L39 2ZM0 34L0 41L7 41L7 34ZM1 35L1 40L6 40L6 35ZM2 36L2 39L5 39L5 36Z" fill="#000000"/></g></g></svg>
