<?xml version="1.0" encoding="UTF-8"?>
<svg xmlns="http://www.w3.org/2000/svg" version="1.1" width="200" height="200" viewBox="0 0 200 200"><rect x="0" y="0" width="200" height="200" fill="#ffffff"/><g transform="scale(6.897)"><g transform="translate(0,0)"><path fill-rule="evenodd" d="M9 0L9 1L8 1L8 7L9 7L9 5L10 5L10 8L5 8L5 9L4 9L4 10L5 10L5 11L4 11L4 14L3 14L3 15L2 15L2 14L0 14L0 15L2 15L2 16L1 16L1 17L3 17L3 18L4 18L4 19L5 19L5 20L6 20L6 21L8 21L8 24L10 24L10 27L11 27L11 28L10 28L10 29L12 29L12 28L13 28L13 27L15 27L15 28L16 28L16 23L15 23L15 21L16 21L16 20L17 20L17 21L18 21L18 23L20 23L20 24L17 24L17 26L18 26L18 27L17 27L17 29L19 29L19 28L18 28L18 27L19 27L19 26L20 26L20 27L21 27L21 29L22 29L22 28L24 28L24 29L25 29L25 28L26 28L26 27L28 27L28 28L27 28L27 29L29 29L29 26L26 26L26 27L25 27L25 28L24 28L24 26L23 26L23 27L22 27L22 26L21 26L21 25L25 25L25 23L26 23L26 21L27 21L27 23L28 23L28 22L29 22L29 21L27 21L27 20L26 20L26 19L27 19L27 18L28 18L28 19L29 19L29 18L28 18L28 17L29 17L29 16L27 16L27 17L25 17L25 16L22 16L22 15L25 15L25 14L26 14L26 13L27 13L27 14L28 14L28 15L29 15L29 14L28 14L28 13L29 13L29 12L27 12L27 11L29 11L29 9L28 9L28 8L23 8L23 10L22 10L22 11L21 11L21 9L22 9L22 8L21 8L21 0L19 0L19 1L20 1L20 2L19 2L19 3L20 3L20 5L17 5L17 4L16 4L16 3L15 3L15 2L14 2L14 3L13 3L13 4L12 4L12 3L11 3L11 2L13 2L13 1L15 1L15 0L13 0L13 1L12 1L12 0ZM16 0L16 2L17 2L17 3L18 3L18 2L17 2L17 1L18 1L18 0ZM9 2L9 4L10 4L10 5L11 5L11 7L12 7L12 8L10 8L10 9L9 9L9 11L10 11L10 15L9 15L9 17L10 17L10 15L13 15L13 16L12 16L12 17L11 17L11 18L10 18L10 19L11 19L11 20L9 20L9 19L6 19L6 18L7 18L7 17L4 17L4 18L5 18L5 19L6 19L6 20L9 20L9 23L10 23L10 24L11 24L11 27L12 27L12 26L15 26L15 25L14 25L14 22L13 22L13 21L14 21L14 19L16 19L16 18L17 18L17 16L16 16L16 14L15 14L15 13L18 13L18 14L17 14L17 15L18 15L18 14L22 14L22 12L21 12L21 13L20 13L20 12L19 12L19 11L20 11L20 8L19 8L19 7L20 7L20 6L19 6L19 7L18 7L18 6L17 6L17 5L16 5L16 6L15 6L15 5L14 5L14 4L13 4L13 7L12 7L12 4L10 4L10 2ZM14 6L14 7L13 7L13 13L14 13L14 12L15 12L15 11L16 11L16 12L18 12L18 13L19 13L19 12L18 12L18 11L19 11L19 10L18 10L18 7L17 7L17 6L16 6L16 7L15 7L15 6ZM14 7L14 8L15 8L15 7ZM2 8L2 10L3 10L3 8ZM0 9L0 11L1 11L1 9ZM6 9L6 10L8 10L8 9ZM10 9L10 11L11 11L11 13L12 13L12 9ZM15 9L15 10L14 10L14 11L15 11L15 10L16 10L16 11L17 11L17 9ZM25 9L25 10L24 10L24 11L27 11L27 10L28 10L28 9L27 9L27 10L26 10L26 9ZM5 11L5 14L7 14L7 13L8 13L8 11ZM0 12L0 13L2 13L2 12ZM6 12L6 13L7 13L7 12ZM23 12L23 14L25 14L25 13L24 13L24 12ZM13 14L13 15L14 15L14 16L13 16L13 18L16 18L16 16L15 16L15 15L14 15L14 14ZM3 15L3 16L4 16L4 15ZM6 15L6 16L7 16L7 15ZM19 15L19 16L20 16L20 17L19 17L19 18L20 18L20 19L18 19L18 20L22 20L22 19L21 19L21 15ZM14 16L14 17L15 17L15 16ZM22 17L22 18L25 18L25 19L23 19L23 20L25 20L25 19L26 19L26 18L25 18L25 17ZM0 18L0 19L2 19L2 20L0 20L0 21L2 21L2 20L3 20L3 21L4 21L4 20L3 20L3 19L2 19L2 18ZM12 19L12 20L11 20L11 24L12 24L12 25L13 25L13 23L12 23L12 20L13 20L13 19ZM19 21L19 22L20 22L20 21ZM21 21L21 24L24 24L24 21ZM22 22L22 23L23 23L23 22ZM26 24L26 25L29 25L29 24ZM8 26L8 27L9 27L9 26ZM0 0L0 7L7 7L7 0ZM1 1L1 6L6 6L6 1ZM2 2L2 5L5 5L5 2ZM22 0L22 7L29 7L29 0ZM23 1L23 6L28 6L28 1ZM24 2L24 5L27 5L27 2ZM0 22L0 29L7 29L7 22ZM1 23L1 28L6 28L6 23ZM2 24L2 27L5 27L5 24Z" fill="#000000"/></g></g></svg>
