<?xml version="1.0" encoding="UTF-8"?>
<svg xmlns="http://www.w3.org/2000/svg" version="1.1" width="200" height="200" viewBox="0 0 200 200"><rect x="0" y="0" width="200" height="200" fill="#ffffff"/><g transform="scale(4.878)"><g transform="translate(0,0)"><path fill-rule="evenodd" d="M10 0L10 1L11 1L11 3L9 3L9 4L8 4L8 5L9 5L9 4L11 4L11 3L12 3L12 7L11 7L11 5L10 5L10 8L9 8L9 6L8 6L8 8L6 8L6 9L9 9L9 10L10 10L10 11L8 11L8 10L5 10L5 9L4 9L4 8L2 8L2 9L0 9L0 10L1 10L1 12L0 12L0 13L1 13L1 14L0 14L0 16L1 16L1 15L2 15L2 16L3 16L3 17L2 17L2 18L3 18L3 19L1 19L1 18L0 18L0 19L1 19L1 20L0 20L0 21L2 21L2 23L3 23L3 22L4 22L4 18L6 18L6 19L5 19L5 21L8 21L8 22L9 22L9 21L8 21L8 20L9 20L9 19L10 19L10 20L12 20L12 21L10 21L10 22L11 22L11 23L7 23L7 22L6 22L6 23L4 23L4 24L3 24L3 25L2 25L2 26L1 26L1 24L0 24L0 27L2 27L2 28L1 28L1 30L0 30L0 31L1 31L1 30L2 30L2 28L3 28L3 30L4 30L4 31L7 31L7 32L6 32L6 33L7 33L7 32L8 32L8 35L9 35L9 32L11 32L11 33L10 33L10 37L11 37L11 36L12 36L12 39L10 39L10 40L9 40L9 41L10 41L10 40L12 40L12 41L13 41L13 40L14 40L14 41L15 41L15 40L14 40L14 39L16 39L16 36L17 36L17 38L18 38L18 40L19 40L19 39L20 39L20 41L22 41L22 40L24 40L24 41L28 41L28 39L29 39L29 38L28 38L28 37L29 37L29 36L28 36L28 35L25 35L25 34L21 34L21 33L22 33L22 31L23 31L23 32L25 32L25 33L26 33L26 34L27 34L27 33L28 33L28 32L29 32L29 33L30 33L30 31L31 31L31 30L32 30L32 32L31 32L31 33L32 33L32 34L31 34L31 35L30 35L30 34L29 34L29 35L30 35L30 38L31 38L31 35L32 35L32 38L34 38L34 37L35 37L35 41L37 41L37 40L36 40L36 37L37 37L37 39L38 39L38 38L39 38L39 36L41 36L41 35L39 35L39 34L41 34L41 32L39 32L39 31L40 31L40 30L38 30L38 29L39 29L39 28L38 28L38 27L37 27L37 28L36 28L36 29L37 29L37 30L36 30L36 31L35 31L35 27L34 27L34 26L36 26L36 24L37 24L37 26L38 26L38 25L39 25L39 26L40 26L40 27L41 27L41 24L40 24L40 22L38 22L38 23L37 23L37 22L36 22L36 21L35 21L35 20L34 20L34 19L35 19L35 18L34 18L34 19L31 19L31 20L30 20L30 22L32 22L32 23L30 23L30 24L28 24L28 23L29 23L29 20L27 20L27 19L28 19L28 18L29 18L29 19L30 19L30 18L31 18L31 17L32 17L32 16L33 16L33 15L31 15L31 17L27 17L27 16L28 16L28 15L27 15L27 14L26 14L26 13L29 13L29 14L30 14L30 13L31 13L31 12L33 12L33 14L34 14L34 15L36 15L36 17L38 17L38 16L37 16L37 15L39 15L39 14L40 14L40 15L41 15L41 13L38 13L38 14L36 14L36 13L35 13L35 14L34 14L34 12L35 12L35 11L36 11L36 12L37 12L37 11L38 11L38 10L37 10L37 8L36 8L36 9L35 9L35 8L33 8L33 3L32 3L32 2L30 2L30 1L33 1L33 0L30 0L30 1L28 1L28 2L30 2L30 4L27 4L27 3L26 3L26 4L23 4L23 5L25 5L25 6L24 6L24 10L23 10L23 9L22 9L22 8L21 8L21 6L20 6L20 5L22 5L22 3L23 3L23 0L21 0L21 1L20 1L20 3L18 3L18 4L19 4L19 5L17 5L17 4L15 4L15 3L14 3L14 2L13 2L13 1L12 1L12 0ZM15 0L15 1L16 1L16 2L17 2L17 0ZM24 0L24 3L25 3L25 2L26 2L26 1L27 1L27 0ZM18 1L18 2L19 2L19 1ZM21 1L21 2L22 2L22 1ZM12 2L12 3L13 3L13 2ZM20 3L20 4L21 4L21 3ZM31 3L31 4L32 4L32 3ZM13 4L13 5L15 5L15 4ZM27 5L27 7L28 7L28 8L26 8L26 6L25 6L25 8L26 8L26 11L28 11L28 8L29 8L29 7L30 7L30 6L29 6L29 7L28 7L28 5ZM13 6L13 7L14 7L14 8L13 8L13 9L11 9L11 8L10 8L10 10L11 10L11 11L10 11L10 12L11 12L11 14L10 14L10 16L11 16L11 15L14 15L14 14L13 14L13 13L12 13L12 12L14 12L14 13L15 13L15 14L16 14L16 13L17 13L17 15L20 15L20 14L25 14L25 15L26 15L26 14L25 14L25 13L26 13L26 12L25 12L25 10L24 10L24 11L22 11L22 10L21 10L21 12L24 12L24 13L20 13L20 14L18 14L18 12L17 12L17 11L19 11L19 10L18 10L18 9L16 9L16 6L15 6L15 7L14 7L14 6ZM17 6L17 8L18 8L18 6ZM19 6L19 8L20 8L20 9L21 9L21 8L20 8L20 6ZM22 6L22 7L23 7L23 6ZM31 6L31 7L32 7L32 6ZM30 8L30 9L29 9L29 10L30 10L30 11L29 11L29 12L30 12L30 11L35 11L35 10L33 10L33 9L32 9L32 10L31 10L31 8ZM13 9L13 10L12 10L12 11L11 11L11 12L12 12L12 11L13 11L13 10L14 10L14 12L15 12L15 13L16 13L16 11L17 11L17 10L16 10L16 9L15 9L15 10L14 10L14 9ZM40 9L40 10L41 10L41 9ZM2 10L2 12L5 12L5 15L6 15L6 16L4 16L4 17L3 17L3 18L4 18L4 17L6 17L6 18L8 18L8 19L6 19L6 20L8 20L8 19L9 19L9 18L8 18L8 17L9 17L9 14L7 14L7 13L6 13L6 12L7 12L7 11L6 11L6 12L5 12L5 11L3 11L3 10ZM15 10L15 11L16 11L16 10ZM36 10L36 11L37 11L37 10ZM40 11L40 12L41 12L41 11ZM2 13L2 14L3 14L3 15L4 15L4 13ZM6 14L6 15L7 15L7 16L6 16L6 17L7 17L7 16L8 16L8 15L7 15L7 14ZM15 15L15 16L16 16L16 15ZM21 15L21 16L20 16L20 18L19 18L19 21L15 21L15 20L14 20L14 19L16 19L16 20L17 20L17 19L16 19L16 18L17 18L17 17L15 17L15 18L14 18L14 16L13 16L13 17L12 17L12 18L10 18L10 19L12 19L12 18L13 18L13 20L14 20L14 22L13 22L13 21L12 21L12 23L11 23L11 24L7 24L7 23L6 23L6 24L7 24L7 25L6 25L6 26L5 26L5 24L4 24L4 25L3 25L3 26L2 26L2 27L4 27L4 29L5 29L5 28L7 28L7 29L6 29L6 30L7 30L7 31L8 31L8 30L9 30L9 31L10 31L10 30L12 30L12 31L11 31L11 32L12 32L12 33L11 33L11 34L12 34L12 35L14 35L14 36L13 36L13 39L12 39L12 40L13 40L13 39L14 39L14 38L15 38L15 35L18 35L18 38L19 38L19 37L24 37L24 38L25 38L25 40L26 40L26 38L25 38L25 37L26 37L26 36L25 36L25 35L24 35L24 36L23 36L23 35L22 35L22 36L19 36L19 33L21 33L21 31L20 31L20 28L19 28L19 31L20 31L20 32L18 32L18 31L17 31L17 30L18 30L18 29L17 29L17 28L18 28L18 27L16 27L16 26L15 26L15 25L17 25L17 24L19 24L19 23L20 23L20 22L19 22L19 21L21 21L21 20L22 20L22 19L23 19L23 18L25 18L25 17L26 17L26 16L25 16L25 17L23 17L23 16L24 16L24 15ZM18 16L18 17L19 17L19 16ZM39 16L39 17L41 17L41 16ZM22 17L22 18L23 18L23 17ZM20 18L20 19L21 19L21 18ZM25 19L25 20L24 20L24 24L25 24L25 23L26 23L26 24L27 24L27 23L28 23L28 21L27 21L27 23L26 23L26 22L25 22L25 21L26 21L26 19ZM36 19L36 20L37 20L37 19ZM38 19L38 21L40 21L40 19ZM2 20L2 21L3 21L3 20ZM33 20L33 21L32 21L32 22L34 22L34 23L33 23L33 24L34 24L34 25L35 25L35 22L34 22L34 20ZM22 21L22 23L21 23L21 24L23 24L23 21ZM0 22L0 23L1 23L1 22ZM14 22L14 23L15 23L15 24L14 24L14 25L12 25L12 24L11 24L11 25L10 25L10 26L9 26L9 28L8 28L8 29L9 29L9 30L10 30L10 29L11 29L11 28L12 28L12 29L13 29L13 28L14 28L14 31L13 31L13 33L14 33L14 32L15 32L15 34L18 34L18 33L17 33L17 32L16 32L16 30L17 30L17 29L16 29L16 27L15 27L15 28L14 28L14 27L13 27L13 26L14 26L14 25L15 25L15 24L17 24L17 23L15 23L15 22ZM18 22L18 23L19 23L19 22ZM38 23L38 24L39 24L39 25L40 25L40 24L39 24L39 23ZM31 24L31 25L32 25L32 24ZM7 25L7 26L6 26L6 27L8 27L8 25ZM19 25L19 26L20 26L20 27L22 27L22 29L21 29L21 30L26 30L26 28L25 28L25 29L24 29L24 28L23 28L23 27L22 27L22 26L23 26L23 25ZM24 25L24 27L26 27L26 26L27 26L27 31L30 31L30 29L32 29L32 30L33 30L33 31L34 31L34 32L35 32L35 31L34 31L34 29L33 29L33 27L32 27L32 28L31 28L31 27L30 27L30 25L28 25L28 26L27 26L27 25L26 25L26 26L25 26L25 25ZM4 26L4 27L5 27L5 26ZM11 26L11 27L10 27L10 28L9 28L9 29L10 29L10 28L11 28L11 27L12 27L12 28L13 28L13 27L12 27L12 26ZM28 26L28 28L29 28L29 26ZM37 28L37 29L38 29L38 28ZM15 29L15 30L16 30L16 29ZM37 30L37 34L38 34L38 30ZM25 31L25 32L26 32L26 31ZM1 32L1 33L2 33L2 32ZM3 32L3 33L5 33L5 32ZM33 33L33 36L36 36L36 33ZM20 34L20 35L21 35L21 34ZM34 34L34 35L35 35L35 34ZM38 35L38 36L39 36L39 35ZM24 36L24 37L25 37L25 36ZM8 37L8 39L9 39L9 37ZM40 37L40 39L39 39L39 40L38 40L38 41L40 41L40 39L41 39L41 37ZM22 38L22 39L21 39L21 40L22 40L22 39L23 39L23 38ZM27 38L27 39L28 39L28 38ZM32 39L32 40L30 40L30 41L33 41L33 39ZM0 0L0 7L7 7L7 0ZM1 1L1 6L6 6L6 1ZM2 2L2 5L5 5L5 2ZM34 0L34 7L41 7L41 0ZM35 1L35 6L40 6L40 1ZM36 2L36 5L39 5L39 2ZM0 34L0 41L7 41L7 34ZM1 35L1 40L6 40L6 35ZM2 36L2 39L5 39L5 36Z" fill="#000000"/></g></g></svg>
