<?xml version="1.0" encoding="UTF-8"?>
<svg xmlns="http://www.w3.org/2000/svg" version="1.1" width="200" height="200" viewBox="0 0 200 200"><rect x="0" y="0" width="200" height="200" fill="#ffffff"/><g transform="scale(4.878)"><g transform="translate(0,0)"><path fill-rule="evenodd" d="M10 0L10 1L12 1L12 4L13 4L13 3L14 3L14 5L15 5L15 3L14 3L14 2L13 2L13 1L12 1L12 0ZM16 0L16 1L15 1L15 2L16 2L16 4L18 4L18 2L19 2L19 3L20 3L20 4L19 4L19 6L18 6L18 7L17 7L17 6L16 6L16 7L15 7L15 6L14 6L14 10L13 10L13 8L12 8L12 10L10 10L10 9L11 9L11 5L10 5L10 4L11 4L11 2L9 2L9 1L8 1L8 7L9 7L9 8L5 8L5 9L4 9L4 10L6 10L6 11L7 11L7 12L6 12L6 13L5 13L5 11L4 11L4 12L3 12L3 8L2 8L2 9L1 9L1 11L2 11L2 12L3 12L3 14L2 14L2 13L0 13L0 14L2 14L2 15L1 15L1 16L0 16L0 18L1 18L1 20L0 20L0 24L1 24L1 25L0 25L0 29L1 29L1 30L0 30L0 31L2 31L2 32L0 32L0 33L3 33L3 32L4 32L4 33L7 33L7 32L8 32L8 36L11 36L11 37L10 37L10 38L11 38L11 40L10 40L10 41L11 41L11 40L13 40L13 41L15 41L15 40L16 40L16 38L17 38L17 39L18 39L18 40L17 40L17 41L19 41L19 39L21 39L21 40L20 40L20 41L21 41L21 40L23 40L23 41L26 41L26 38L27 38L27 41L28 41L28 39L30 39L30 38L28 38L28 36L26 36L26 35L25 35L25 34L23 34L23 33L22 33L22 32L20 32L20 31L19 31L19 29L21 29L21 28L20 28L20 27L19 27L19 26L18 26L18 24L19 24L19 25L20 25L20 26L21 26L21 25L22 25L22 23L21 23L21 24L20 24L20 23L18 23L18 20L19 20L19 21L20 21L20 19L22 19L22 18L26 18L26 19L23 19L23 20L24 20L24 21L23 21L23 24L24 24L24 25L23 25L23 26L24 26L24 27L27 27L27 28L23 28L23 27L22 27L22 28L23 28L23 29L28 29L28 28L29 28L29 27L30 27L30 28L31 28L31 29L32 29L32 31L31 31L31 30L29 30L29 31L30 31L30 33L29 33L29 32L27 32L27 33L26 33L26 30L23 30L23 32L24 32L24 33L26 33L26 34L27 34L27 35L28 35L28 34L32 34L32 36L31 36L31 37L32 37L32 39L31 39L31 40L30 40L30 41L36 41L36 40L37 40L37 41L39 41L39 39L41 39L41 36L40 36L40 35L41 35L41 33L40 33L40 31L41 31L41 29L40 29L40 27L41 27L41 25L39 25L39 24L37 24L37 26L36 26L36 24L35 24L35 20L36 20L36 21L37 21L37 22L36 22L36 23L37 23L37 22L38 22L38 21L37 21L37 19L38 19L38 18L37 18L37 19L36 19L36 18L35 18L35 16L34 16L34 15L36 15L36 14L33 14L33 16L31 16L31 15L32 15L32 14L29 14L29 12L28 12L28 15L27 15L27 11L28 11L28 7L29 7L29 6L28 6L28 7L27 7L27 5L26 5L26 4L25 4L25 5L22 5L22 4L23 4L23 2L22 2L22 1L23 1L23 0L22 0L22 1L21 1L21 0L19 0L19 1L18 1L18 0ZM25 0L25 1L24 1L24 2L25 2L25 3L26 3L26 2L25 2L25 1L26 1L26 0ZM28 0L28 2L27 2L27 4L28 4L28 5L30 5L30 7L31 7L31 3L32 3L32 5L33 5L33 1L32 1L32 2L31 2L31 0L30 0L30 1L29 1L29 0ZM16 1L16 2L18 2L18 1ZM19 1L19 2L20 2L20 1ZM21 2L21 3L22 3L22 2ZM28 2L28 3L29 3L29 4L30 4L30 2ZM9 3L9 4L10 4L10 3ZM9 5L9 7L10 7L10 5ZM12 6L12 7L13 7L13 6ZM19 6L19 7L18 7L18 8L17 8L17 7L16 7L16 9L15 9L15 10L14 10L14 11L13 11L13 10L12 10L12 12L11 12L11 11L9 11L9 10L7 10L7 9L6 9L6 10L7 10L7 11L8 11L8 12L7 12L7 13L6 13L6 14L5 14L5 13L4 13L4 14L3 14L3 15L5 15L5 16L7 16L7 17L5 17L5 18L4 18L4 19L3 19L3 18L2 18L2 16L1 16L1 18L2 18L2 20L1 20L1 22L3 22L3 23L2 23L2 24L4 24L4 25L6 25L6 26L7 26L7 25L8 25L8 26L9 26L9 27L8 27L8 28L7 28L7 27L5 27L5 26L3 26L3 29L2 29L2 28L1 28L1 29L2 29L2 31L3 31L3 30L4 30L4 32L5 32L5 30L8 30L8 32L10 32L10 30L11 30L11 31L12 31L12 32L11 32L11 36L13 36L13 37L11 37L11 38L12 38L12 39L13 39L13 40L15 40L15 39L14 39L14 38L15 38L15 36L16 36L16 37L17 37L17 38L18 38L18 39L19 39L19 38L18 38L18 37L19 37L19 35L18 35L18 34L15 34L15 36L14 36L14 35L12 35L12 32L14 32L14 33L13 33L13 34L14 34L14 33L16 33L16 32L14 32L14 30L15 30L15 31L18 31L18 32L17 32L17 33L18 33L18 32L19 32L19 33L20 33L20 32L19 32L19 31L18 31L18 30L15 30L15 29L16 29L16 28L17 28L17 27L18 27L18 28L19 28L19 27L18 27L18 26L17 26L17 25L16 25L16 24L15 24L15 23L14 23L14 19L15 19L15 21L16 21L16 22L17 22L17 21L16 21L16 20L18 20L18 19L15 19L15 18L16 18L16 17L17 17L17 16L16 16L16 15L17 15L17 13L20 13L20 12L21 12L21 13L22 13L22 14L21 14L21 16L19 16L19 15L20 15L20 14L19 14L19 15L18 15L18 16L19 16L19 17L18 17L18 18L20 18L20 17L21 17L21 18L22 18L22 17L24 17L24 16L23 16L23 14L25 14L25 15L26 15L26 14L25 14L25 13L23 13L23 12L26 12L26 11L27 11L27 10L26 10L26 9L24 9L24 10L23 10L23 11L22 11L22 12L21 12L21 11L20 11L20 12L18 12L18 11L19 11L19 10L22 10L22 9L21 9L21 8L22 8L22 6L21 6L21 7L20 7L20 6ZM23 6L23 7L24 7L24 6ZM25 6L25 8L26 8L26 6ZM32 6L32 8L31 8L31 10L29 10L29 11L30 11L30 13L32 13L32 12L31 12L31 11L32 11L32 10L35 10L35 9L39 9L39 12L38 12L38 11L37 11L37 14L38 14L38 15L37 15L37 17L38 17L38 15L39 15L39 16L40 16L40 15L41 15L41 13L40 13L40 11L41 11L41 9L40 9L40 8L35 8L35 9L34 9L34 8L33 8L33 6ZM9 8L9 9L10 9L10 8ZM19 8L19 9L16 9L16 10L15 10L15 12L14 12L14 13L11 13L11 12L10 12L10 13L9 13L9 12L8 12L8 13L7 13L7 14L6 14L6 15L7 15L7 16L9 16L9 18L8 18L8 19L7 19L7 18L6 18L6 19L4 19L4 20L6 20L6 21L3 21L3 20L2 20L2 21L3 21L3 22L4 22L4 24L5 24L5 22L6 22L6 23L7 23L7 22L8 22L8 21L9 21L9 23L8 23L8 24L9 24L9 26L10 26L10 28L9 28L9 29L8 29L8 30L10 30L10 28L11 28L11 29L15 29L15 27L17 27L17 26L15 26L15 25L14 25L14 23L13 23L13 25L10 25L10 24L11 24L11 22L10 22L10 21L12 21L12 22L13 22L13 20L11 20L11 18L10 18L10 17L11 17L11 15L10 15L10 13L11 13L11 14L14 14L14 13L15 13L15 15L14 15L14 16L13 16L13 17L12 17L12 19L13 19L13 18L14 18L14 16L15 16L15 17L16 17L16 16L15 16L15 15L16 15L16 12L17 12L17 11L18 11L18 10L19 10L19 9L20 9L20 8ZM16 10L16 11L17 11L17 10ZM34 11L34 12L35 12L35 13L36 13L36 12L35 12L35 11ZM38 13L38 14L39 14L39 15L40 15L40 13ZM7 14L7 15L9 15L9 16L10 16L10 15L9 15L9 14ZM29 15L29 17L28 17L28 16L27 16L27 17L26 17L26 16L25 16L25 17L26 17L26 18L27 18L27 17L28 17L28 18L30 18L30 15ZM21 16L21 17L22 17L22 16ZM33 17L33 19L31 19L31 21L32 21L32 22L33 22L33 23L34 23L34 22L33 22L33 19L34 19L34 20L35 20L35 18L34 18L34 17ZM40 17L40 19L39 19L39 20L40 20L40 19L41 19L41 17ZM6 19L6 20L7 20L7 19ZM8 19L8 20L10 20L10 19ZM28 19L28 27L29 27L29 25L30 25L30 27L31 27L31 22L30 22L30 21L29 21L29 20L30 20L30 19ZM21 20L21 22L22 22L22 20ZM25 20L25 21L26 21L26 22L25 22L25 23L24 23L24 24L25 24L25 23L26 23L26 22L27 22L27 20ZM6 21L6 22L7 22L7 21ZM39 21L39 22L40 22L40 24L41 24L41 22L40 22L40 21ZM9 23L9 24L10 24L10 23ZM17 23L17 24L18 24L18 23ZM6 24L6 25L7 25L7 24ZM32 24L32 26L34 26L34 24ZM1 26L1 27L2 27L2 26ZM11 26L11 27L13 27L13 28L14 28L14 27L15 27L15 26L14 26L14 27L13 27L13 26ZM35 26L35 27L34 27L34 28L35 28L35 27L36 27L36 30L35 30L35 29L34 29L34 30L33 30L33 31L34 31L34 32L35 32L35 31L36 31L36 32L37 32L37 34L38 34L38 33L39 33L39 34L40 34L40 33L39 33L39 30L40 30L40 29L37 29L37 27L38 27L38 28L39 28L39 27L38 27L38 26L37 26L37 27L36 27L36 26ZM4 27L4 28L5 28L5 27ZM32 27L32 28L33 28L33 27ZM6 28L6 29L7 29L7 28ZM4 29L4 30L5 30L5 29ZM12 30L12 31L13 31L13 30ZM27 30L27 31L28 31L28 30ZM37 30L37 31L38 31L38 30ZM6 31L6 32L7 32L7 31ZM31 32L31 33L32 33L32 32ZM21 33L21 35L20 35L20 36L21 36L21 37L24 37L24 38L21 38L21 39L23 39L23 40L24 40L24 38L26 38L26 37L25 37L25 36L24 36L24 35L23 35L23 34L22 34L22 33ZM33 33L33 36L36 36L36 33ZM34 34L34 35L35 35L35 34ZM21 35L21 36L22 36L22 35ZM29 35L29 37L30 37L30 35ZM38 35L38 37L39 37L39 38L38 38L38 39L39 39L39 38L40 38L40 36L39 36L39 35ZM17 36L17 37L18 37L18 36ZM34 37L34 40L35 40L35 39L36 39L36 38L37 38L37 37ZM8 38L8 39L9 39L9 38ZM40 40L40 41L41 41L41 40ZM0 0L0 7L7 7L7 0ZM1 1L1 6L6 6L6 1ZM2 2L2 5L5 5L5 2ZM34 0L34 7L41 7L41 0ZM35 1L35 6L40 6L40 1ZM36 2L36 5L39 5L39 2ZM0 34L0 41L7 41L7 34ZM1 35L1 40L6 40L6 35ZM2 36L2 39L5 39L5 36Z" fill="#000000"/></g></g></svg>
