<?xml version="1.0" encoding="UTF-8"?>
<svg xmlns="http://www.w3.org/2000/svg" version="1.1" width="200" height="200" viewBox="0 0 200 200"><rect x="0" y="0" width="200" height="200" fill="#ffffff"/><g transform="scale(4.878)"><g transform="translate(0,0)"><path fill-rule="evenodd" d="M8 0L8 3L9 3L9 4L10 4L10 9L9 9L9 5L8 5L8 10L6 10L6 9L7 9L7 8L6 8L6 9L5 9L5 8L2 8L2 9L4 9L4 10L1 10L1 11L0 11L0 12L1 12L1 11L5 11L5 10L6 10L6 11L8 11L8 12L5 12L5 13L7 13L7 14L5 14L5 16L6 16L6 17L5 17L5 18L3 18L3 19L4 19L4 20L6 20L6 21L7 21L7 20L8 20L8 22L6 22L6 23L7 23L7 24L6 24L6 25L7 25L7 26L5 26L5 27L7 27L7 28L5 28L5 30L6 30L6 31L4 31L4 32L2 32L2 33L4 33L4 32L5 32L5 33L8 33L8 34L9 34L9 36L8 36L8 39L9 39L9 40L10 40L10 41L13 41L13 39L16 39L16 41L17 41L17 39L20 39L20 37L19 37L19 36L20 36L20 33L21 33L21 34L22 34L22 35L23 35L23 36L21 36L21 37L22 37L22 38L23 38L23 39L24 39L24 41L27 41L27 40L28 40L28 38L30 38L30 39L31 39L31 40L33 40L33 41L34 41L34 40L33 40L33 39L35 39L35 40L36 40L36 39L37 39L37 40L40 40L40 38L41 38L41 37L40 37L40 36L41 36L41 35L40 35L40 34L41 34L41 32L37 32L37 29L36 29L36 28L38 28L38 26L39 26L39 27L40 27L40 28L41 28L41 27L40 27L40 26L41 26L41 23L39 23L39 22L38 22L38 21L39 21L39 20L36 20L36 19L35 19L35 17L36 17L36 18L37 18L37 19L38 19L38 17L39 17L39 16L37 16L37 15L39 15L39 14L41 14L41 13L39 13L39 14L37 14L37 13L36 13L36 16L35 16L35 17L34 17L34 16L32 16L32 17L30 17L30 16L29 16L29 15L28 15L28 16L29 16L29 17L30 17L30 19L31 19L31 18L32 18L32 19L33 19L33 18L34 18L34 19L35 19L35 21L34 21L34 20L33 20L33 21L32 21L32 20L30 20L30 21L31 21L31 22L33 22L33 21L34 21L34 22L35 22L35 23L36 23L36 24L37 24L37 23L39 23L39 24L40 24L40 26L39 26L39 25L33 25L33 24L32 24L32 23L31 23L31 24L29 24L29 23L28 23L28 22L26 22L26 21L25 21L25 20L24 20L24 21L23 21L23 19L24 19L24 18L23 18L23 17L22 17L22 14L24 14L24 12L23 12L23 5L24 5L24 9L25 9L25 10L24 10L24 11L25 11L25 10L26 10L26 11L28 11L28 12L26 12L26 13L25 13L25 15L24 15L24 16L25 16L25 17L26 17L26 19L28 19L28 18L27 18L27 15L26 15L26 14L29 14L29 13L30 13L30 14L31 14L31 12L29 12L29 11L31 11L31 10L32 10L32 11L33 11L33 12L32 12L32 13L33 13L33 14L32 14L32 15L34 15L34 13L35 13L35 12L38 12L38 11L39 11L39 12L41 12L41 11L40 11L40 10L41 10L41 8L38 8L38 9L40 9L40 10L37 10L37 9L36 9L36 8L33 8L33 6L32 6L32 7L31 7L31 5L33 5L33 4L32 4L32 3L31 3L31 2L30 2L30 1L32 1L32 2L33 2L33 0L29 0L29 1L27 1L27 0L26 0L26 1L27 1L27 2L26 2L26 3L28 3L28 4L29 4L29 3L31 3L31 4L30 4L30 5L29 5L29 6L28 6L28 5L27 5L27 4L25 4L25 3L23 3L23 5L22 5L22 4L21 4L21 5L19 5L19 6L18 6L18 5L17 5L17 6L16 6L16 5L15 5L15 6L14 6L14 7L13 7L13 6L12 6L12 5L11 5L11 4L10 4L10 2L11 2L11 3L13 3L13 2L14 2L14 3L15 3L15 2L16 2L16 4L18 4L18 3L22 3L22 2L24 2L24 1L25 1L25 0L20 0L20 1L17 1L17 0L14 0L14 1L12 1L12 0L11 0L11 1L10 1L10 2L9 2L9 0ZM14 1L14 2L15 2L15 1ZM21 1L21 2L22 2L22 1ZM17 2L17 3L18 3L18 2ZM13 4L13 5L14 5L14 4ZM26 5L26 6L25 6L25 8L26 8L26 10L28 10L28 11L29 11L29 10L31 10L31 9L33 9L33 8L31 8L31 9L29 9L29 8L30 8L30 6L29 6L29 8L28 8L28 9L27 9L27 7L28 7L28 6L27 6L27 5ZM11 6L11 8L13 8L13 9L12 9L12 10L10 10L10 15L9 15L9 13L8 13L8 14L7 14L7 15L6 15L6 16L7 16L7 17L6 17L6 18L5 18L5 19L6 19L6 20L7 20L7 19L8 19L8 17L9 17L9 19L10 19L10 20L9 20L9 21L10 21L10 20L11 20L11 22L12 22L12 20L11 20L11 19L12 19L12 17L14 17L14 15L15 15L15 14L17 14L17 13L16 13L16 12L14 12L14 13L12 13L12 10L14 10L14 11L16 11L16 10L17 10L17 12L18 12L18 13L19 13L19 14L18 14L18 15L17 15L17 16L15 16L15 18L14 18L14 20L13 20L13 22L14 22L14 20L15 20L15 18L16 18L16 21L15 21L15 24L14 24L14 25L15 25L15 26L13 26L13 27L14 27L14 28L13 28L13 29L14 29L14 31L13 31L13 30L9 30L9 32L10 32L10 33L9 33L9 34L10 34L10 35L11 35L11 37L10 37L10 38L11 38L11 39L12 39L12 37L13 37L13 38L14 38L14 37L13 37L13 36L16 36L16 37L15 37L15 38L16 38L16 39L17 39L17 38L18 38L18 36L17 36L17 34L16 34L16 33L15 33L15 34L16 34L16 35L13 35L13 36L12 36L12 34L13 34L13 32L15 32L15 31L16 31L16 32L18 32L18 33L19 33L19 32L20 32L20 31L19 31L19 30L20 30L20 29L22 29L22 28L23 28L23 26L24 26L24 27L25 27L25 26L26 26L26 27L27 27L27 28L31 28L31 29L28 29L28 30L29 30L29 31L28 31L28 33L27 33L27 34L25 34L25 36L24 36L24 38L25 38L25 39L26 39L26 40L27 40L27 39L26 39L26 38L25 38L25 37L26 37L26 35L27 35L27 34L28 34L28 35L29 35L29 34L28 34L28 33L29 33L29 32L30 32L30 33L31 33L31 32L30 32L30 31L31 31L31 30L32 30L32 31L33 31L33 32L36 32L36 31L34 31L34 30L36 30L36 29L35 29L35 26L34 26L34 27L33 27L33 25L32 25L32 24L31 24L31 25L30 25L30 26L29 26L29 25L24 25L24 24L25 24L25 22L23 22L23 21L22 21L22 22L23 22L23 23L24 23L24 24L23 24L23 26L22 26L22 25L21 25L21 27L19 27L19 28L20 28L20 29L19 29L19 30L18 30L18 28L17 28L17 26L18 26L18 25L17 25L17 26L16 26L16 25L15 25L15 24L18 24L18 22L19 22L19 23L21 23L21 22L20 22L20 20L19 20L19 19L22 19L22 17L21 17L21 18L19 18L19 14L22 14L22 6L21 6L21 7L20 7L20 6L19 6L19 7L20 7L20 9L21 9L21 11L20 11L20 13L19 13L19 12L18 12L18 10L19 10L19 9L18 9L18 10L17 10L17 7L18 7L18 6L17 6L17 7L16 7L16 6L15 6L15 9L14 9L14 8L13 8L13 7L12 7L12 6ZM26 6L26 7L27 7L27 6ZM28 9L28 10L29 10L29 9ZM33 10L33 11L34 11L34 10ZM35 10L35 11L36 11L36 10ZM2 12L2 13L3 13L3 12ZM28 12L28 13L29 13L29 12ZM33 12L33 13L34 13L34 12ZM14 13L14 14L15 14L15 13ZM0 14L0 17L1 17L1 18L2 18L2 17L1 17L1 15L2 15L2 14ZM3 14L3 17L4 17L4 14ZM11 14L11 15L12 15L12 16L13 16L13 15L12 15L12 14ZM7 15L7 16L8 16L8 15ZM25 15L25 16L26 16L26 15ZM9 16L9 17L10 17L10 19L11 19L11 17L10 17L10 16ZM17 16L17 19L19 19L19 18L18 18L18 16ZM36 16L36 17L37 17L37 16ZM40 16L40 18L39 18L39 19L40 19L40 18L41 18L41 16ZM32 17L32 18L33 18L33 17ZM6 18L6 19L7 19L7 18ZM0 20L0 25L1 25L1 26L2 26L2 28L3 28L3 29L1 29L1 27L0 27L0 33L1 33L1 30L4 30L4 26L2 26L2 24L1 24L1 23L3 23L3 24L4 24L4 25L5 25L5 22L4 22L4 23L3 23L3 21L2 21L2 20ZM18 20L18 21L16 21L16 22L18 22L18 21L19 21L19 20ZM27 20L27 21L29 21L29 20ZM40 20L40 21L41 21L41 20ZM1 21L1 22L2 22L2 21ZM35 21L35 22L36 22L36 21ZM8 22L8 23L10 23L10 24L11 24L11 25L12 25L12 24L13 24L13 23L10 23L10 22ZM26 23L26 24L28 24L28 23ZM7 24L7 25L8 25L8 24ZM9 25L9 26L8 26L8 27L9 27L9 28L8 28L8 29L6 29L6 30L7 30L7 31L6 31L6 32L8 32L8 29L10 29L10 27L12 27L12 26L10 26L10 25ZM19 25L19 26L20 26L20 25ZM31 25L31 26L32 26L32 25ZM27 26L27 27L28 27L28 26ZM15 27L15 28L14 28L14 29L16 29L16 31L18 31L18 30L17 30L17 29L16 29L16 27ZM21 27L21 28L22 28L22 27ZM32 27L32 28L33 28L33 29L32 29L32 30L33 30L33 29L34 29L34 28L33 28L33 27ZM23 29L23 30L24 30L24 31L22 31L22 30L21 30L21 31L22 31L22 34L24 34L24 31L25 31L25 30L24 30L24 29ZM39 29L39 31L40 31L40 30L41 30L41 29ZM26 30L26 31L27 31L27 30ZM11 31L11 33L10 33L10 34L12 34L12 32L13 32L13 31ZM25 32L25 33L26 33L26 32ZM33 33L33 36L36 36L36 33ZM37 33L37 36L39 36L39 35L38 35L38 34L39 34L39 33ZM30 34L30 35L31 35L31 36L28 36L28 37L27 37L27 38L28 38L28 37L32 37L32 39L33 39L33 38L36 38L36 37L32 37L32 35L31 35L31 34ZM34 34L34 35L35 35L35 34ZM16 37L16 38L17 38L17 37ZM37 38L37 39L38 39L38 38ZM18 40L18 41L20 41L20 40ZM22 40L22 41L23 41L23 40ZM29 40L29 41L30 41L30 40ZM0 0L0 7L7 7L7 0ZM1 1L1 6L6 6L6 1ZM2 2L2 5L5 5L5 2ZM34 0L34 7L41 7L41 0ZM35 1L35 6L40 6L40 1ZM36 2L36 5L39 5L39 2ZM0 34L0 41L7 41L7 34ZM1 35L1 40L6 40L6 35ZM2 36L2 39L5 39L5 36Z" fill="#000000"/></g></g></svg>
