<?xml version="1.0" encoding="UTF-8"?>
<svg xmlns="http://www.w3.org/2000/svg" version="1.1" width="200" height="200" viewBox="0 0 200 200"><rect x="0" y="0" width="200" height="200" fill="#ffffff"/><g transform="scale(4.878)"><g transform="translate(0,0)"><path fill-rule="evenodd" d="M8 0L8 3L9 3L9 2L10 2L10 1L11 1L11 2L12 2L12 1L13 1L13 0ZM15 0L15 1L14 1L14 2L15 2L15 3L14 3L14 4L13 4L13 3L12 3L12 5L10 5L10 4L11 4L11 3L10 3L10 4L9 4L9 5L8 5L8 13L9 13L9 14L10 14L10 13L9 13L9 11L10 11L10 10L9 10L9 8L11 8L11 9L12 9L12 8L15 8L15 9L14 9L14 10L13 10L13 12L11 12L11 13L12 13L12 14L11 14L11 15L12 15L12 16L13 16L13 17L11 17L11 18L10 18L10 16L9 16L9 19L7 19L7 18L8 18L8 16L6 16L6 15L7 15L7 14L6 14L6 13L7 13L7 12L6 12L6 11L7 11L7 10L5 10L5 8L2 8L2 10L1 10L1 9L0 9L0 11L1 11L1 12L0 12L0 13L1 13L1 14L0 14L0 15L1 15L1 14L2 14L2 10L3 10L3 12L4 12L4 13L5 13L5 14L4 14L4 15L3 15L3 16L5 16L5 17L2 17L2 18L1 18L1 16L0 16L0 21L3 21L3 22L0 22L0 25L2 25L2 24L3 24L3 23L7 23L7 22L6 22L6 21L8 21L8 22L9 22L9 24L10 24L10 23L11 23L11 21L12 21L12 22L13 22L13 23L12 23L12 24L13 24L13 25L9 25L9 28L8 28L8 24L4 24L4 25L3 25L3 26L1 26L1 27L0 27L0 28L2 28L2 29L0 29L0 33L1 33L1 30L2 30L2 33L5 33L5 32L3 32L3 31L8 31L8 32L6 32L6 33L8 33L8 34L9 34L9 35L10 35L10 34L11 34L11 33L12 33L12 35L11 35L11 36L10 36L10 37L9 37L9 36L8 36L8 39L9 39L9 40L13 40L13 41L14 41L14 40L15 40L15 41L16 41L16 40L17 40L17 41L18 41L18 39L17 39L17 38L18 38L18 35L19 35L19 39L20 39L20 40L19 40L19 41L22 41L22 40L23 40L23 41L31 41L31 40L33 40L33 41L34 41L34 40L33 40L33 39L35 39L35 40L36 40L36 39L37 39L37 40L40 40L40 38L41 38L41 37L39 37L39 36L37 36L37 34L38 34L38 33L39 33L39 35L40 35L40 34L41 34L41 33L39 33L39 32L41 32L41 31L40 31L40 30L41 30L41 29L40 29L40 28L41 28L41 27L40 27L40 26L41 26L41 23L39 23L39 24L40 24L40 26L39 26L39 25L36 25L36 24L37 24L37 23L38 23L38 21L39 21L39 20L38 20L38 18L37 18L37 17L36 17L36 16L38 16L38 17L39 17L39 16L38 16L38 15L40 15L40 14L41 14L41 13L40 13L40 10L41 10L41 8L38 8L38 9L40 9L40 10L37 10L37 9L36 9L36 8L33 8L33 6L32 6L32 9L31 9L31 5L33 5L33 4L32 4L32 3L31 3L31 2L30 2L30 1L32 1L32 2L33 2L33 0L29 0L29 1L27 1L27 0L26 0L26 1L27 1L27 2L26 2L26 3L28 3L28 4L29 4L29 3L31 3L31 4L30 4L30 5L29 5L29 6L28 6L28 5L27 5L27 4L26 4L26 7L25 7L25 5L23 5L23 4L20 4L20 5L21 5L21 6L20 6L20 7L19 7L19 6L18 6L18 5L19 5L19 3L20 3L20 2L21 2L21 3L22 3L22 2L21 2L21 1L22 1L22 0L21 0L21 1L20 1L20 0L19 0L19 1L18 1L18 2L17 2L17 1L16 1L16 0ZM23 0L23 3L24 3L24 4L25 4L25 2L24 2L24 1L25 1L25 0ZM15 1L15 2L16 2L16 3L17 3L17 5L16 5L16 6L15 6L15 4L14 4L14 6L13 6L13 5L12 5L12 6L11 6L11 8L12 8L12 6L13 6L13 7L14 7L14 6L15 6L15 8L17 8L17 7L18 7L18 6L17 6L17 5L18 5L18 3L17 3L17 2L16 2L16 1ZM22 5L22 6L21 6L21 7L22 7L22 8L20 8L20 9L18 9L18 10L17 10L17 9L16 9L16 10L14 10L14 11L15 11L15 12L16 12L16 13L14 13L14 14L12 14L12 15L13 15L13 16L14 16L14 15L15 15L15 16L16 16L16 17L14 17L14 19L15 19L15 20L13 20L13 21L14 21L14 22L15 22L15 21L16 21L16 22L18 22L18 21L17 21L17 20L19 20L19 22L20 22L20 24L19 24L19 23L18 23L18 24L19 24L19 25L18 25L18 27L19 27L19 28L18 28L18 31L20 31L20 30L23 30L23 26L22 26L22 25L26 25L26 24L24 24L24 23L26 23L26 22L25 22L25 21L22 21L22 23L21 23L21 20L22 20L22 19L23 19L23 18L24 18L24 19L26 19L26 21L27 21L27 22L31 22L31 25L30 25L30 26L29 26L29 25L27 25L27 26L24 26L24 28L26 28L26 30L25 30L25 29L24 29L24 30L25 30L25 32L24 32L24 31L22 31L22 34L23 34L23 35L22 35L22 36L21 36L21 34L20 34L20 33L21 33L21 32L20 32L20 33L19 33L19 32L17 32L17 33L19 33L19 34L20 34L20 36L21 36L21 37L20 37L20 39L21 39L21 38L22 38L22 39L25 39L25 38L26 38L26 37L25 37L25 36L27 36L27 34L28 34L28 35L29 35L29 33L27 33L27 31L26 31L26 30L27 30L27 28L28 28L28 27L29 27L29 28L30 28L30 29L28 29L28 30L30 30L30 31L28 31L28 32L30 32L30 31L31 31L31 30L32 30L32 31L33 31L33 32L39 32L39 31L34 31L34 30L36 30L36 29L37 29L37 30L39 30L39 26L38 26L38 28L36 28L36 25L35 25L35 24L36 24L36 23L35 23L35 22L36 22L36 21L35 21L35 19L36 19L36 20L37 20L37 21L38 21L38 20L37 20L37 18L36 18L36 17L35 17L35 16L36 16L36 15L35 15L35 14L36 14L36 13L37 13L37 15L38 15L38 14L40 14L40 13L39 13L39 11L38 11L38 12L35 12L35 13L34 13L34 12L33 12L33 11L34 11L34 9L32 9L32 10L31 10L31 9L29 9L29 8L30 8L30 6L29 6L29 7L28 7L28 6L27 6L27 7L28 7L28 8L27 8L27 9L26 9L26 11L27 11L27 10L28 10L28 11L29 11L29 12L28 12L28 13L29 13L29 14L27 14L27 12L25 12L25 9L24 9L24 11L22 11L22 8L24 8L24 6L23 6L23 5ZM9 6L9 7L10 7L10 6ZM16 6L16 7L17 7L17 6ZM22 6L22 7L23 7L23 6ZM6 8L6 9L7 9L7 8ZM20 9L20 11L18 11L18 12L20 12L20 13L19 13L19 14L18 14L18 13L16 13L16 14L18 14L18 16L17 16L17 15L16 15L16 16L17 16L17 17L16 17L16 19L17 19L17 17L18 17L18 18L19 18L19 14L20 14L20 15L21 15L21 13L22 13L22 17L21 17L21 16L20 16L20 17L21 17L21 18L20 18L20 19L19 19L19 20L20 20L20 19L22 19L22 18L23 18L23 17L26 17L26 18L27 18L27 20L28 20L28 21L29 21L29 20L28 20L28 19L29 19L29 18L27 18L27 16L26 16L26 14L25 14L25 15L24 15L24 12L22 12L22 11L21 11L21 9ZM28 9L28 10L29 10L29 9ZM35 9L35 11L36 11L36 9ZM4 10L4 11L5 11L5 10ZM11 10L11 11L12 11L12 10ZM16 10L16 12L17 12L17 10ZM30 10L30 11L31 11L31 12L29 12L29 13L30 13L30 14L29 14L29 15L28 15L28 16L29 16L29 17L31 17L31 18L30 18L30 19L31 19L31 20L30 20L30 21L31 21L31 22L32 22L32 25L31 25L31 26L32 26L32 25L33 25L33 27L32 27L32 28L33 28L33 29L32 29L32 30L33 30L33 29L34 29L34 28L33 28L33 27L34 27L34 26L35 26L35 25L33 25L33 24L34 24L34 22L35 22L35 21L34 21L34 20L32 20L32 19L33 19L33 18L34 18L34 19L35 19L35 17L34 17L34 16L32 16L32 17L31 17L31 12L32 12L32 13L33 13L33 14L32 14L32 15L34 15L34 13L33 13L33 12L32 12L32 11L33 11L33 10L32 10L32 11L31 11L31 10ZM20 11L20 12L21 12L21 11ZM23 15L23 16L24 16L24 15ZM29 15L29 16L30 16L30 15ZM40 16L40 18L39 18L39 19L40 19L40 18L41 18L41 16ZM5 17L5 18L3 18L3 20L4 20L4 21L5 21L5 20L4 20L4 19L6 19L6 20L7 20L7 19L6 19L6 18L7 18L7 17ZM32 17L32 18L31 18L31 19L32 19L32 18L33 18L33 17ZM12 18L12 19L13 19L13 18ZM9 19L9 20L10 20L10 19ZM31 20L31 21L32 21L32 22L34 22L34 21L32 21L32 20ZM40 20L40 21L41 21L41 20ZM9 21L9 22L10 22L10 21ZM1 23L1 24L2 24L2 23ZM13 23L13 24L14 24L14 23ZM22 23L22 24L21 24L21 25L22 25L22 24L23 24L23 23ZM27 23L27 24L30 24L30 23ZM15 24L15 25L13 25L13 26L10 26L10 27L12 27L12 30L11 30L11 31L13 31L13 33L14 33L14 34L13 34L13 35L12 35L12 36L11 36L11 37L12 37L12 39L13 39L13 40L14 40L14 38L13 38L13 37L12 37L12 36L14 36L14 34L15 34L15 30L14 30L14 28L15 28L15 29L16 29L16 31L17 31L17 29L16 29L16 28L17 28L17 27L16 27L16 26L17 26L17 24ZM6 25L6 26L7 26L7 25ZM19 25L19 26L20 26L20 27L21 27L21 28L22 28L22 27L21 27L21 26L20 26L20 25ZM13 26L13 28L14 28L14 27L15 27L15 26ZM27 26L27 27L26 27L26 28L27 28L27 27L28 27L28 26ZM2 27L2 28L3 28L3 30L7 30L7 29L6 29L6 28L7 28L7 27L6 27L6 28L3 28L3 27ZM9 28L9 29L8 29L8 31L10 31L10 28ZM35 28L35 29L36 29L36 28ZM30 29L30 30L31 30L31 29ZM13 30L13 31L14 31L14 30ZM8 32L8 33L9 33L9 34L10 34L10 33L9 33L9 32ZM23 32L23 34L24 34L24 32ZM26 33L26 34L27 34L27 33ZM30 33L30 35L31 35L31 36L29 36L29 37L27 37L27 38L28 38L28 39L27 39L27 40L30 40L30 39L31 39L31 38L30 38L30 37L32 37L32 39L33 39L33 38L36 38L36 37L32 37L32 35L31 35L31 33ZM33 33L33 36L36 36L36 33ZM16 34L16 37L15 37L15 39L16 39L16 37L17 37L17 34ZM34 34L34 35L35 35L35 34ZM24 35L24 36L23 36L23 37L22 37L22 38L23 38L23 37L24 37L24 36L25 36L25 35ZM9 38L9 39L10 39L10 38ZM29 38L29 39L30 39L30 38ZM37 38L37 39L38 39L38 38ZM0 0L0 7L7 7L7 0ZM1 1L1 6L6 6L6 1ZM2 2L2 5L5 5L5 2ZM34 0L34 7L41 7L41 0ZM35 1L35 6L40 6L40 1ZM36 2L36 5L39 5L39 2ZM0 34L0 41L7 41L7 34ZM1 35L1 40L6 40L6 35ZM2 36L2 39L5 39L5 36Z" fill="#000000"/></g></g></svg>
