<?xml version="1.0" encoding="UTF-8"?>
<svg xmlns="http://www.w3.org/2000/svg" version="1.1" width="200" height="200" viewBox="0 0 200 200"><rect x="0" y="0" width="200" height="200" fill="#ffffff"/><g transform="scale(6.897)"><g transform="translate(0,0)"><path fill-rule="evenodd" d="M8 0L8 3L9 3L9 2L10 2L10 0ZM11 0L11 2L12 2L12 1L13 1L13 2L14 2L14 0ZM16 0L16 2L15 2L15 3L14 3L14 4L15 4L15 3L17 3L17 0ZM18 1L18 2L19 2L19 1ZM20 1L20 2L21 2L21 1ZM10 3L10 4L11 4L11 3ZM12 3L12 4L13 4L13 3ZM18 3L18 4L16 4L16 7L15 7L15 6L14 6L14 5L13 5L13 6L12 6L12 7L13 7L13 6L14 6L14 8L13 8L13 9L12 9L12 8L10 8L10 9L9 9L9 5L8 5L8 9L9 9L9 11L11 11L11 12L8 12L8 11L7 11L7 10L6 10L6 9L7 9L7 8L6 8L6 9L5 9L5 8L2 8L2 9L1 9L1 10L5 10L5 11L4 11L4 12L3 12L3 11L2 11L2 12L1 12L1 11L0 11L0 13L4 13L4 14L3 14L3 15L2 15L2 14L0 14L0 16L1 16L1 15L2 15L2 17L0 17L0 21L1 21L1 18L2 18L2 19L3 19L3 20L2 20L2 21L3 21L3 20L5 20L5 21L8 21L8 22L9 22L9 21L10 21L10 22L11 22L11 23L12 23L12 26L13 26L13 22L14 22L14 26L15 26L15 27L13 27L13 28L11 28L11 29L13 29L13 28L15 28L15 29L17 29L17 27L16 27L16 26L19 26L19 27L22 27L22 28L18 28L18 29L25 29L25 28L27 28L27 29L28 29L28 28L29 28L29 27L28 27L28 25L26 25L26 24L25 24L25 22L26 22L26 23L27 23L27 22L26 22L26 21L25 21L25 20L28 20L28 22L29 22L29 20L28 20L28 19L26 19L26 18L27 18L27 17L28 17L28 10L29 10L29 8L26 8L26 10L25 10L25 12L24 12L24 11L22 11L22 12L23 12L23 13L21 13L21 15L22 15L22 14L23 14L23 13L24 13L24 20L23 20L23 19L22 19L22 18L20 18L20 19L21 19L21 20L20 20L20 22L19 22L19 21L18 21L18 20L19 20L19 18L18 18L18 17L17 17L17 16L16 16L16 17L15 17L15 15L16 15L16 13L17 13L17 15L18 15L18 16L19 16L19 15L18 15L18 14L19 14L19 13L20 13L20 12L21 12L21 11L20 11L20 10L22 10L22 9L23 9L23 10L24 10L24 8L21 8L21 5L20 5L20 4L21 4L21 3L20 3L20 4L19 4L19 3ZM10 5L10 7L11 7L11 5ZM18 5L18 6L17 6L17 7L16 7L16 8L14 8L14 9L13 9L13 10L12 10L12 13L11 13L11 14L10 14L10 13L8 13L8 12L7 12L7 11L6 11L6 12L5 12L5 15L3 15L3 17L5 17L5 16L7 16L7 15L9 15L9 16L8 16L8 17L9 17L9 18L7 18L7 17L6 17L6 18L4 18L4 19L6 19L6 20L7 20L7 19L9 19L9 20L8 20L8 21L9 21L9 20L10 20L10 19L9 19L9 18L10 18L10 17L9 17L9 16L10 16L10 15L13 15L13 16L11 16L11 18L12 18L12 20L14 20L14 21L15 21L15 26L16 26L16 25L17 25L17 24L18 24L18 23L16 23L16 21L17 21L17 22L18 22L18 21L17 21L17 20L16 20L16 21L15 21L15 20L14 20L14 18L15 18L15 17L13 17L13 16L14 16L14 15L15 15L15 14L13 14L13 10L14 10L14 11L15 11L15 10L14 10L14 9L16 9L16 8L17 8L17 10L16 10L16 12L17 12L17 13L19 13L19 12L17 12L17 11L18 11L18 9L19 9L19 10L20 10L20 9L21 9L21 8L20 8L20 9L19 9L19 8L17 8L17 7L18 7L18 6L19 6L19 7L20 7L20 6L19 6L19 5ZM10 9L10 10L11 10L11 9ZM26 10L26 11L27 11L27 10ZM6 12L6 13L7 13L7 14L6 14L6 15L7 15L7 14L8 14L8 13L7 13L7 12ZM14 12L14 13L15 13L15 12ZM25 12L25 13L26 13L26 14L27 14L27 12ZM25 15L25 16L27 16L27 15ZM20 16L20 17L22 17L22 16ZM6 18L6 19L7 19L7 18ZM16 18L16 19L17 19L17 18ZM11 21L11 22L13 22L13 21ZM21 21L21 24L24 24L24 21ZM22 22L22 23L23 23L23 22ZM9 23L9 24L8 24L8 27L9 27L9 26L10 26L10 27L11 27L11 25L9 25L9 24L10 24L10 23ZM19 23L19 24L20 24L20 23ZM19 25L19 26L21 26L21 25ZM22 25L22 26L23 26L23 27L27 27L27 26L24 26L24 25ZM9 28L9 29L10 29L10 28ZM0 0L0 7L7 7L7 0ZM1 1L1 6L6 6L6 1ZM2 2L2 5L5 5L5 2ZM22 0L22 7L29 7L29 0ZM23 1L23 6L28 6L28 1ZM24 2L24 5L27 5L27 2ZM0 22L0 29L7 29L7 22ZM1 23L1 28L6 28L6 23ZM2 24L2 27L5 27L5 24Z" fill="#000000"/></g></g></svg>
