<?xml version="1.0" encoding="UTF-8"?>
<svg xmlns="http://www.w3.org/2000/svg" version="1.1" width="200" height="200" viewBox="0 0 200 200"><rect x="0" y="0" width="200" height="200" fill="#ffffff"/><g transform="scale(4.878)"><g transform="translate(0,0)"><path fill-rule="evenodd" d="M9 0L9 1L10 1L10 2L11 2L11 1L12 1L12 3L11 3L11 4L10 4L10 3L9 3L9 2L8 2L8 4L10 4L10 5L9 5L9 6L8 6L8 7L9 7L9 9L8 9L8 8L6 8L6 9L5 9L5 8L3 8L3 9L0 9L0 13L1 13L1 12L2 12L2 10L3 10L3 13L4 13L4 14L3 14L3 17L1 17L1 16L2 16L2 14L1 14L1 16L0 16L0 17L1 17L1 20L2 20L2 18L3 18L3 17L4 17L4 18L5 18L5 19L3 19L3 20L5 20L5 22L6 22L6 23L5 23L5 24L4 24L4 23L3 23L3 24L2 24L2 22L0 22L0 23L1 23L1 24L2 24L2 26L1 26L1 25L0 25L0 26L1 26L1 27L0 27L0 33L8 33L8 35L9 35L9 36L8 36L8 38L10 38L10 39L12 39L12 40L10 40L10 41L12 41L12 40L13 40L13 41L14 41L14 38L15 38L15 39L16 39L16 40L15 40L15 41L18 41L18 40L17 40L17 39L16 39L16 36L17 36L17 38L18 38L18 39L19 39L19 41L20 41L20 40L21 40L21 41L23 41L23 40L24 40L24 41L25 41L25 40L24 40L24 39L23 39L23 40L22 40L22 39L21 39L21 36L20 36L20 37L18 37L18 34L20 34L20 33L21 33L21 35L24 35L24 36L23 36L23 37L22 37L22 38L24 38L24 37L26 37L26 38L25 38L25 39L28 39L28 40L27 40L27 41L28 41L28 40L29 40L29 39L28 39L28 38L29 38L29 37L30 37L30 38L32 38L32 37L33 37L33 40L31 40L31 41L34 41L34 40L35 40L35 41L36 41L36 39L37 39L37 40L38 40L38 41L39 41L39 40L38 40L38 39L40 39L40 40L41 40L41 37L40 37L40 36L41 36L41 35L40 35L40 34L39 34L39 33L41 33L41 30L39 30L39 31L38 31L38 30L37 30L37 29L34 29L34 28L35 28L35 26L37 26L37 25L39 25L39 27L36 27L36 28L38 28L38 29L39 29L39 27L41 27L41 25L39 25L39 24L37 24L37 23L39 23L39 22L41 22L41 21L39 21L39 20L40 20L40 19L41 19L41 18L40 18L40 19L38 19L38 18L37 18L37 17L38 17L38 16L40 16L40 17L41 17L41 13L40 13L40 12L41 12L41 11L40 11L40 9L39 9L39 8L37 8L37 9L36 9L36 10L37 10L37 11L35 11L35 10L34 10L34 9L33 9L33 10L34 10L34 11L35 11L35 13L36 13L36 14L37 14L37 13L38 13L38 14L39 14L39 15L38 15L38 16L37 16L37 15L35 15L35 14L33 14L33 13L32 13L32 12L33 12L33 11L32 11L32 12L30 12L30 11L29 11L29 12L28 12L28 10L29 10L29 9L30 9L30 10L32 10L32 8L33 8L33 6L32 6L32 8L31 8L31 6L30 6L30 8L29 8L29 9L28 9L28 7L29 7L29 6L28 6L28 7L27 7L27 6L26 6L26 4L28 4L28 2L29 2L29 3L33 3L33 2L32 2L32 1L33 1L33 0L32 0L32 1L31 1L31 2L30 2L30 1L29 1L29 0L28 0L28 2L27 2L27 1L26 1L26 0L25 0L25 2L24 2L24 3L23 3L23 4L24 4L24 3L26 3L26 4L25 4L25 6L24 6L24 7L23 7L23 5L22 5L22 3L21 3L21 2L23 2L23 0L22 0L22 1L20 1L20 2L19 2L19 1L18 1L18 0L16 0L16 1L18 1L18 2L19 2L19 4L20 4L20 3L21 3L21 5L20 5L20 7L21 7L21 8L22 8L22 7L23 7L23 8L24 8L24 7L25 7L25 8L27 8L27 12L25 12L25 13L24 13L24 11L26 11L26 9L24 9L24 10L22 10L22 9L21 9L21 11L23 11L23 14L22 14L22 15L21 15L21 13L22 13L22 12L21 12L21 13L20 13L20 8L19 8L19 5L18 5L18 4L17 4L17 3L16 3L16 2L15 2L15 3L16 3L16 4L15 4L15 5L13 5L13 6L12 6L12 7L11 7L11 5L12 5L12 4L14 4L14 3L13 3L13 1L15 1L15 0L11 0L11 1L10 1L10 0ZM29 4L29 5L33 5L33 4ZM15 5L15 8L17 8L17 9L16 9L16 11L14 11L14 10L15 10L15 9L14 9L14 8L13 8L13 9L12 9L12 8L11 8L11 9L9 9L9 10L8 10L8 9L6 9L6 10L5 10L5 9L4 9L4 12L7 12L7 13L6 13L6 14L5 14L5 15L4 15L4 17L5 17L5 18L7 18L7 19L6 19L6 20L7 20L7 21L6 21L6 22L7 22L7 21L8 21L8 22L9 22L9 24L8 24L8 26L7 26L7 25L6 25L6 26L7 26L7 27L6 27L6 28L7 28L7 29L5 29L5 26L4 26L4 24L3 24L3 26L2 26L2 32L3 32L3 27L4 27L4 31L5 31L5 30L7 30L7 31L6 31L6 32L7 32L7 31L9 31L9 32L10 32L10 34L14 34L14 35L13 35L13 36L12 36L12 39L13 39L13 37L14 37L14 35L15 35L15 36L16 36L16 34L18 34L18 33L20 33L20 32L19 32L19 31L21 31L21 32L22 32L22 33L25 33L25 34L24 34L24 35L25 35L25 34L27 34L27 33L25 33L25 32L26 32L26 31L27 31L27 32L28 32L28 33L29 33L29 32L30 32L30 31L31 31L31 33L30 33L30 34L28 34L28 36L30 36L30 37L31 37L31 36L32 36L32 35L31 35L31 33L32 33L32 32L33 32L33 31L34 31L34 32L37 32L37 34L38 34L38 32L37 32L37 31L36 31L36 30L33 30L33 31L32 31L32 28L33 28L33 25L30 25L30 24L33 24L33 19L34 19L34 20L35 20L35 17L37 17L37 16L34 16L34 17L33 17L33 19L32 19L32 22L31 22L31 21L30 21L30 20L31 20L31 19L28 19L28 20L29 20L29 21L28 21L28 27L26 27L26 26L27 26L27 25L26 25L26 24L27 24L27 23L26 23L26 22L25 22L25 21L24 21L24 20L25 20L25 19L27 19L27 18L25 18L25 17L23 17L23 19L24 19L24 20L22 20L22 21L21 21L21 20L20 20L20 17L19 17L19 18L17 18L17 19L18 19L18 21L17 21L17 20L14 20L14 22L13 22L13 24L14 24L14 23L16 23L16 21L17 21L17 25L18 25L18 26L21 26L21 28L20 28L20 27L19 27L19 29L20 29L20 30L17 30L17 29L18 29L18 27L17 27L17 26L16 26L16 24L15 24L15 25L14 25L14 26L15 26L15 28L13 28L13 29L12 29L12 28L10 28L10 27L13 27L13 25L12 25L12 26L11 26L11 24L10 24L10 23L12 23L12 22L11 22L11 21L10 21L10 20L11 20L11 19L12 19L12 20L13 20L13 19L14 19L14 18L12 18L12 17L11 17L11 15L12 15L12 16L14 16L14 15L15 15L15 16L16 16L16 17L17 17L17 16L20 16L20 14L19 14L19 12L18 12L18 13L16 13L16 12L17 12L17 10L18 10L18 9L19 9L19 8L17 8L17 7L18 7L18 6L17 6L17 7L16 7L16 5ZM21 5L21 7L22 7L22 5ZM9 6L9 7L10 7L10 6ZM13 6L13 7L14 7L14 6ZM25 6L25 7L26 7L26 6ZM30 8L30 9L31 9L31 8ZM13 9L13 10L12 10L12 11L13 11L13 12L11 12L11 10L10 10L10 11L9 11L9 12L8 12L8 13L7 13L7 14L6 14L6 15L5 15L5 16L6 16L6 17L7 17L7 16L8 16L8 17L9 17L9 18L10 18L10 19L8 19L8 20L10 20L10 19L11 19L11 17L10 17L10 15L9 15L9 14L8 14L8 13L10 13L10 14L12 14L12 15L13 15L13 14L14 14L14 11L13 11L13 10L14 10L14 9ZM37 9L37 10L38 10L38 12L40 12L40 11L39 11L39 10L38 10L38 9ZM6 10L6 11L8 11L8 10ZM29 12L29 14L30 14L30 15L28 15L28 13L25 13L25 14L27 14L27 15L28 15L28 16L27 16L27 17L30 17L30 18L31 18L31 17L32 17L32 15L31 15L31 14L30 14L30 12ZM36 12L36 13L37 13L37 12ZM12 13L12 14L13 14L13 13ZM7 14L7 15L6 15L6 16L7 16L7 15L8 15L8 16L9 16L9 15L8 15L8 14ZM16 14L16 15L17 15L17 14ZM18 14L18 15L19 15L19 14ZM23 14L23 16L25 16L25 15L24 15L24 14ZM30 15L30 17L31 17L31 15ZM21 16L21 19L22 19L22 16ZM15 18L15 19L16 19L16 18ZM36 18L36 20L37 20L37 21L38 21L38 20L37 20L37 18ZM19 20L19 21L18 21L18 24L19 24L19 25L20 25L20 24L21 24L21 25L22 25L22 28L21 28L21 31L22 31L22 32L25 32L25 31L26 31L26 30L27 30L27 31L28 31L28 30L31 30L31 29L29 29L29 27L28 27L28 28L27 28L27 29L26 29L26 27L24 27L24 26L26 26L26 25L24 25L24 24L23 24L23 23L24 23L24 22L23 22L23 23L22 23L22 22L21 22L21 23L19 23L19 22L20 22L20 20ZM26 20L26 21L27 21L27 20ZM9 21L9 22L10 22L10 21ZM34 21L34 22L35 22L35 23L36 23L36 21ZM29 22L29 24L30 24L30 22ZM6 23L6 24L7 24L7 23ZM9 24L9 27L7 27L7 28L8 28L8 29L7 29L7 30L8 30L8 29L9 29L9 30L11 30L11 31L10 31L10 32L11 32L11 31L12 31L12 32L13 32L13 30L14 30L14 31L15 31L15 32L16 32L16 33L17 33L17 31L16 31L16 30L14 30L14 29L13 29L13 30L12 30L12 29L9 29L9 27L10 27L10 24ZM22 24L22 25L23 25L23 24ZM36 24L36 25L37 25L37 24ZM29 25L29 26L30 26L30 25ZM31 26L31 27L32 27L32 26ZM23 27L23 28L24 28L24 30L23 30L23 29L22 29L22 30L23 30L23 31L24 31L24 30L26 30L26 29L25 29L25 28L24 28L24 27ZM27 29L27 30L28 30L28 29ZM33 33L33 36L36 36L36 33ZM34 34L34 35L35 35L35 34ZM10 35L10 38L11 38L11 35ZM26 35L26 36L27 36L27 35ZM30 35L30 36L31 36L31 35ZM38 35L38 37L37 37L37 38L40 38L40 37L39 37L39 36L40 36L40 35ZM34 37L34 39L35 39L35 38L36 38L36 37ZM0 0L0 7L7 7L7 0ZM1 1L1 6L6 6L6 1ZM2 2L2 5L5 5L5 2ZM34 0L34 7L41 7L41 0ZM35 1L35 6L40 6L40 1ZM36 2L36 5L39 5L39 2ZM0 34L0 41L7 41L7 34ZM1 35L1 40L6 40L6 35ZM2 36L2 39L5 39L5 36Z" fill="#000000"/></g></g></svg>
