<?xml version="1.0" encoding="UTF-8"?>
<svg xmlns="http://www.w3.org/2000/svg" version="1.1" width="200" height="200" viewBox="0 0 200 200"><rect x="0" y="0" width="200" height="200" fill="#ffffff"/><g transform="scale(6.897)"><g transform="translate(0,0)"><path fill-rule="evenodd" d="M9 0L9 1L8 1L8 7L9 7L9 1L11 1L11 2L10 2L10 4L11 4L11 3L12 3L12 5L10 5L10 10L9 10L9 8L5 8L5 10L4 10L4 9L3 9L3 8L2 8L2 12L1 12L1 13L2 13L2 12L3 12L3 14L0 14L0 15L1 15L1 18L0 18L0 19L2 19L2 20L0 20L0 21L5 21L5 20L4 20L4 19L8 19L8 18L9 18L9 17L10 17L10 19L9 19L9 20L6 20L6 21L8 21L8 24L9 24L9 22L10 22L10 21L9 21L9 20L10 20L10 19L11 19L11 18L12 18L12 20L11 20L11 22L13 22L13 21L12 21L12 20L13 20L13 19L14 19L14 18L12 18L12 17L14 17L14 15L16 15L16 17L15 17L15 20L14 20L14 22L17 22L17 21L15 21L15 20L17 20L17 17L18 17L18 18L19 18L19 19L18 19L18 20L19 20L19 21L20 21L20 22L18 22L18 23L16 23L16 24L15 24L15 23L14 23L14 24L15 24L15 26L16 26L16 27L15 27L15 28L16 28L16 27L17 27L17 26L18 26L18 25L19 25L19 26L20 26L20 27L21 27L21 29L22 29L22 28L24 28L24 29L29 29L29 26L27 26L27 27L28 27L28 28L24 28L24 26L23 26L23 27L22 27L22 26L21 26L21 25L25 25L25 23L26 23L26 21L27 21L27 19L26 19L26 18L28 18L28 19L29 19L29 18L28 18L28 17L29 17L29 16L27 16L27 17L25 17L25 16L22 16L22 15L25 15L25 14L26 14L26 13L29 13L29 12L27 12L27 11L29 11L29 9L28 9L28 8L23 8L23 10L22 10L22 11L21 11L21 9L22 9L22 8L20 8L20 7L21 7L21 0L19 0L19 1L20 1L20 2L19 2L19 3L20 3L20 5L16 5L16 4L17 4L17 3L18 3L18 2L16 2L16 1L18 1L18 0L16 0L16 1L15 1L15 0L14 0L14 1L15 1L15 2L12 2L12 0ZM15 2L15 4L16 4L16 2ZM13 4L13 5L12 5L12 6L11 6L11 8L12 8L12 9L11 9L11 10L10 10L10 12L8 12L8 9L6 9L6 10L7 10L7 11L6 11L6 12L5 12L5 11L4 11L4 10L3 10L3 11L4 11L4 12L5 12L5 14L7 14L7 15L4 15L4 16L3 16L3 15L2 15L2 17L3 17L3 18L2 18L2 19L3 19L3 18L4 18L4 17L5 17L5 18L7 18L7 17L9 17L9 15L10 15L10 13L11 13L11 12L13 12L13 13L14 13L14 14L16 14L16 15L17 15L17 16L18 16L18 17L19 17L19 18L20 18L20 19L19 19L19 20L22 20L22 19L21 19L21 15L19 15L19 14L22 14L22 12L21 12L21 13L20 13L20 12L19 12L19 11L20 11L20 8L19 8L19 7L20 7L20 6L19 6L19 7L18 7L18 6L17 6L17 7L16 7L16 6L15 6L15 5L14 5L14 4ZM12 6L12 7L13 7L13 8L14 8L14 7L15 7L15 6L14 6L14 7L13 7L13 6ZM17 7L17 9L14 9L14 10L13 10L13 9L12 9L12 10L11 10L11 11L12 11L12 10L13 10L13 11L14 11L14 13L15 13L15 10L16 10L16 14L17 14L17 10L18 10L18 7ZM27 9L27 10L24 10L24 11L27 11L27 10L28 10L28 9ZM0 10L0 11L1 11L1 10ZM6 12L6 13L7 13L7 14L8 14L8 12ZM18 12L18 13L19 13L19 12ZM23 12L23 14L25 14L25 13L24 13L24 12ZM12 14L12 15L13 15L13 14ZM27 14L27 15L29 15L29 14ZM7 15L7 16L5 16L5 17L7 17L7 16L8 16L8 15ZM18 15L18 16L19 16L19 17L20 17L20 16L19 16L19 15ZM10 16L10 17L12 17L12 16ZM22 17L22 18L25 18L25 17ZM23 19L23 20L25 20L25 19ZM21 21L21 24L24 24L24 21ZM22 22L22 23L23 23L23 22ZM27 22L27 24L26 24L26 25L29 25L29 23L28 23L28 22ZM10 23L10 25L11 25L11 23ZM12 23L12 24L13 24L13 23ZM18 23L18 24L20 24L20 23ZM12 25L12 26L10 26L10 28L9 28L9 29L11 29L11 27L12 27L12 26L13 26L13 27L14 27L14 26L13 26L13 25ZM8 26L8 27L9 27L9 26ZM18 28L18 29L19 29L19 28ZM0 0L0 7L7 7L7 0ZM1 1L1 6L6 6L6 1ZM2 2L2 5L5 5L5 2ZM22 0L22 7L29 7L29 0ZM23 1L23 6L28 6L28 1ZM24 2L24 5L27 5L27 2ZM0 22L0 29L7 29L7 22ZM1 23L1 28L6 28L6 23ZM2 24L2 27L5 27L5 24Z" fill="#000000"/></g></g></svg>
