<?xml version="1.0" encoding="UTF-8"?>
<svg xmlns="http://www.w3.org/2000/svg" version="1.1" width="200" height="200" viewBox="0 0 200 200"><rect x="0" y="0" width="200" height="200" fill="#ffffff"/><g transform="scale(4.878)"><g transform="translate(0,0)"><path fill-rule="evenodd" d="M8 0L8 3L9 3L9 4L10 4L10 5L8 5L8 9L9 9L9 6L10 6L10 7L11 7L11 8L10 8L10 10L11 10L11 8L12 8L12 9L13 9L13 8L12 8L12 7L13 7L13 6L14 6L14 8L15 8L15 9L16 9L16 10L17 10L17 11L16 11L16 12L14 12L14 10L13 10L13 11L12 11L12 12L13 12L13 13L15 13L15 14L13 14L13 15L12 15L12 14L11 14L11 11L9 11L9 10L5 10L5 8L2 8L2 9L4 9L4 11L5 11L5 12L4 12L4 13L3 13L3 12L2 12L2 11L3 11L3 10L1 10L1 9L0 9L0 11L1 11L1 12L2 12L2 13L0 13L0 16L2 16L2 18L1 18L1 17L0 17L0 21L2 21L2 22L3 22L3 21L4 21L4 23L7 23L7 24L6 24L6 25L7 25L7 24L8 24L8 23L9 23L9 22L11 22L11 21L13 21L13 22L12 22L12 23L13 23L13 24L16 24L16 23L17 23L17 25L15 25L15 26L14 26L14 25L12 25L12 26L11 26L11 29L9 29L9 28L10 28L10 25L9 25L9 27L8 27L8 26L5 26L5 27L7 27L7 28L5 28L5 31L4 31L4 30L2 30L2 26L3 26L3 27L4 27L4 25L5 25L5 24L4 24L4 25L2 25L2 24L0 24L0 26L1 26L1 27L0 27L0 28L1 28L1 29L0 29L0 33L1 33L1 30L2 30L2 31L4 31L4 32L6 32L6 33L8 33L8 34L9 34L9 33L11 33L11 35L12 35L12 33L14 33L14 32L15 32L15 35L16 35L16 36L17 36L17 35L19 35L19 34L17 34L17 31L15 31L15 30L16 30L16 29L14 29L14 32L13 32L13 31L11 31L11 29L12 29L12 30L13 30L13 28L16 28L16 27L15 27L15 26L18 26L18 28L17 28L17 30L19 30L19 31L20 31L20 30L21 30L21 29L20 29L20 28L22 28L22 29L23 29L23 31L21 31L21 32L20 32L20 34L21 34L21 37L23 37L23 36L25 36L25 38L24 38L24 39L22 39L22 41L24 41L24 40L25 40L25 38L26 38L26 37L28 37L28 38L27 38L27 40L26 40L26 41L27 41L27 40L28 40L28 41L31 41L31 40L33 40L33 41L34 41L34 40L33 40L33 39L35 39L35 40L36 40L36 39L37 39L37 40L40 40L40 38L41 38L41 37L40 37L40 36L41 36L41 35L40 35L40 34L41 34L41 32L40 32L40 30L41 30L41 28L40 28L40 26L41 26L41 23L39 23L39 22L37 22L37 21L39 21L39 20L36 20L36 19L35 19L35 17L36 17L36 18L37 18L37 17L36 17L36 16L38 16L38 17L39 17L39 16L38 16L38 15L37 15L37 13L36 13L36 16L35 16L35 17L34 17L34 16L33 16L33 17L31 17L31 12L29 12L29 13L28 13L28 10L30 10L30 11L31 11L31 10L32 10L32 11L33 11L33 12L32 12L32 13L33 13L33 14L32 14L32 15L34 15L34 13L35 13L35 11L36 11L36 12L38 12L38 11L39 11L39 12L41 12L41 11L40 11L40 10L41 10L41 8L38 8L38 9L40 9L40 10L37 10L37 9L36 9L36 8L32 8L32 7L33 7L33 5L32 5L32 4L33 4L33 2L30 2L30 0L29 0L29 1L27 1L27 0L26 0L26 1L27 1L27 2L26 2L26 3L28 3L28 4L29 4L29 3L32 3L32 4L30 4L30 5L27 5L27 4L23 4L23 0L21 0L21 1L20 1L20 0L18 0L18 1L20 1L20 2L21 2L21 3L19 3L19 4L21 4L21 5L18 5L18 7L17 7L17 5L14 5L14 3L15 3L15 2L13 2L13 4L10 4L10 3L11 3L11 2L10 2L10 3L9 3L9 1L12 1L12 0ZM13 0L13 1L14 1L14 0ZM15 0L15 1L16 1L16 2L17 2L17 1L16 1L16 0ZM24 0L24 2L25 2L25 0ZM31 0L31 1L32 1L32 0ZM21 1L21 2L22 2L22 1ZM12 5L12 6L11 6L11 7L12 7L12 6L13 6L13 5ZM25 5L25 7L26 7L26 8L27 8L27 7L28 7L28 6L27 6L27 7L26 7L26 5ZM31 5L31 7L30 7L30 6L29 6L29 8L28 8L28 9L27 9L27 10L28 10L28 9L29 9L29 8L30 8L30 9L32 9L32 10L33 10L33 11L34 11L34 9L32 9L32 8L31 8L31 7L32 7L32 5ZM15 6L15 7L16 7L16 6ZM19 6L19 7L18 7L18 8L17 8L17 10L18 10L18 11L19 11L19 12L17 12L17 13L19 13L19 15L17 15L17 16L18 16L18 17L13 17L13 18L14 18L14 19L11 19L11 18L12 18L12 17L11 17L11 16L12 16L12 15L9 15L9 14L10 14L10 13L9 13L9 12L8 12L8 13L9 13L9 14L7 14L7 13L5 13L5 14L7 14L7 15L5 15L5 16L4 16L4 17L3 17L3 18L2 18L2 19L3 19L3 20L4 20L4 21L5 21L5 20L4 20L4 19L5 19L5 18L4 18L4 17L5 17L5 16L7 16L7 17L6 17L6 18L7 18L7 19L6 19L6 20L7 20L7 19L8 19L8 17L9 17L9 19L10 19L10 20L8 20L8 21L6 21L6 22L9 22L9 21L10 21L10 20L13 20L13 21L14 21L14 20L15 20L15 22L13 22L13 23L15 23L15 22L18 22L18 23L19 23L19 24L18 24L18 25L19 25L19 26L20 26L20 27L19 27L19 28L20 28L20 27L21 27L21 25L19 25L19 24L22 24L22 23L21 23L21 22L23 22L23 21L24 21L24 23L23 23L23 25L22 25L22 28L24 28L24 30L27 30L27 29L26 29L26 28L27 28L27 27L26 27L26 23L27 23L27 22L29 22L29 23L28 23L28 24L30 24L30 23L31 23L31 25L30 25L30 26L29 26L29 25L27 25L27 26L28 26L28 27L29 27L29 28L31 28L31 29L30 29L30 30L29 30L29 29L28 29L28 30L29 30L29 31L28 31L28 32L31 32L31 31L30 31L30 30L32 30L32 31L33 31L33 32L35 32L35 31L36 31L36 29L37 29L37 30L39 30L39 26L40 26L40 24L39 24L39 23L37 23L37 24L36 24L36 23L35 23L35 22L36 22L36 21L35 21L35 19L34 19L34 18L31 18L31 17L29 17L29 16L30 16L30 15L29 15L29 14L30 14L30 13L29 13L29 14L27 14L27 12L26 12L26 14L27 14L27 16L26 16L26 18L25 18L25 17L24 17L24 15L25 15L25 13L24 13L24 15L23 15L23 14L22 14L22 13L23 13L23 9L24 9L24 10L25 10L25 11L26 11L26 9L24 9L24 8L23 8L23 7L24 7L24 6L23 6L23 7L22 7L22 6L21 6L21 7L20 7L20 6ZM19 7L19 8L18 8L18 10L19 10L19 11L20 11L20 13L22 13L22 12L21 12L21 11L20 11L20 10L19 10L19 9L21 9L21 10L22 10L22 8L20 8L20 7ZM6 8L6 9L7 9L7 8ZM35 9L35 10L36 10L36 9ZM6 11L6 12L7 12L7 11ZM33 12L33 13L34 13L34 12ZM39 13L39 14L41 14L41 13ZM2 14L2 15L4 15L4 14ZM15 14L15 15L16 15L16 14ZM20 14L20 15L21 15L21 17L22 17L22 15L21 15L21 14ZM8 15L8 16L9 16L9 15ZM28 15L28 16L29 16L29 15ZM19 16L19 18L17 18L17 19L16 19L16 18L15 18L15 20L18 20L18 21L20 21L20 22L19 22L19 23L20 23L20 22L21 22L21 20L22 20L22 18L20 18L20 16ZM40 16L40 18L38 18L38 19L40 19L40 18L41 18L41 16ZM3 18L3 19L4 19L4 18ZM24 18L24 19L23 19L23 20L24 20L24 21L25 21L25 22L26 22L26 21L25 21L25 20L26 20L26 19L25 19L25 18ZM27 18L27 21L29 21L29 18ZM30 18L30 19L31 19L31 18ZM18 19L18 20L21 20L21 19ZM24 19L24 20L25 20L25 19ZM30 20L30 21L31 21L31 22L32 22L32 23L34 23L34 24L35 24L35 25L31 25L31 26L32 26L32 27L31 27L31 28L32 28L32 27L34 27L34 26L35 26L35 25L36 25L36 27L35 27L35 29L36 29L36 28L38 28L38 26L39 26L39 25L36 25L36 24L35 24L35 23L34 23L34 22L35 22L35 21L34 21L34 20L32 20L32 21L31 21L31 20ZM40 20L40 21L41 21L41 20ZM32 21L32 22L34 22L34 21ZM0 22L0 23L1 23L1 22ZM10 23L10 24L11 24L11 23ZM24 23L24 25L23 25L23 27L24 27L24 28L25 28L25 27L24 27L24 25L25 25L25 23ZM1 25L1 26L2 26L2 25ZM12 27L12 28L13 28L13 27ZM33 28L33 29L32 29L32 30L33 30L33 29L34 29L34 28ZM6 29L6 30L7 30L7 29ZM9 30L9 31L8 31L8 33L9 33L9 31L10 31L10 32L11 32L11 33L12 33L12 32L11 32L11 31L10 31L10 30ZM34 30L34 31L35 31L35 30ZM6 31L6 32L7 32L7 31ZM25 31L25 32L23 32L23 34L22 34L22 33L21 33L21 34L22 34L22 36L23 36L23 34L24 34L24 35L27 35L27 36L28 36L28 37L29 37L29 39L28 39L28 40L30 40L30 37L31 37L31 39L33 39L33 38L36 38L36 37L33 37L33 38L32 38L32 35L31 35L31 33L30 33L30 35L31 35L31 36L29 36L29 35L27 35L27 34L29 34L29 33L27 33L27 32L26 32L26 31ZM38 31L38 32L37 32L37 34L38 34L38 35L37 35L37 36L40 36L40 35L39 35L39 34L38 34L38 32L39 32L39 31ZM25 32L25 33L26 33L26 32ZM33 33L33 36L36 36L36 33ZM34 34L34 35L35 35L35 34ZM9 35L9 36L8 36L8 39L9 39L9 40L10 40L10 41L11 41L11 40L12 40L12 41L13 41L13 40L14 40L14 39L15 39L15 40L16 40L16 41L17 41L17 40L18 40L18 41L19 41L19 40L20 40L20 41L21 41L21 39L20 39L20 38L19 38L19 39L18 39L18 37L20 37L20 36L18 36L18 37L17 37L17 38L14 38L14 37L13 37L13 36L14 36L14 35L13 35L13 36L10 36L10 35ZM9 36L9 38L10 38L10 40L11 40L11 39L12 39L12 40L13 40L13 39L12 39L12 38L13 38L13 37L12 37L12 38L11 38L11 37L10 37L10 36ZM37 38L37 39L38 39L38 38ZM0 0L0 7L7 7L7 0ZM1 1L1 6L6 6L6 1ZM2 2L2 5L5 5L5 2ZM34 0L34 7L41 7L41 0ZM35 1L35 6L40 6L40 1ZM36 2L36 5L39 5L39 2ZM0 34L0 41L7 41L7 34ZM1 35L1 40L6 40L6 35ZM2 36L2 39L5 39L5 36Z" fill="#000000"/></g></g></svg>
