<?xml version="1.0" encoding="UTF-8"?>
<svg xmlns="http://www.w3.org/2000/svg" version="1.1" width="200" height="200" viewBox="0 0 200 200"><rect x="0" y="0" width="200" height="200" fill="#ffffff"/><g transform="scale(4.878)"><g transform="translate(0,0)"><path fill-rule="evenodd" d="M8 0L8 3L9 3L9 4L10 4L10 3L9 3L9 2L10 2L10 1L11 1L11 2L12 2L12 4L11 4L11 5L12 5L12 7L11 7L11 6L10 6L10 5L8 5L8 9L9 9L9 10L8 10L8 11L7 11L7 10L6 10L6 9L7 9L7 8L6 8L6 9L5 9L5 8L2 8L2 9L1 9L1 10L0 10L0 11L1 11L1 13L0 13L0 14L1 14L1 15L0 15L0 16L1 16L1 17L0 17L0 20L1 20L1 21L0 21L0 22L1 22L1 21L3 21L3 22L2 22L2 23L3 23L3 24L1 24L1 23L0 23L0 25L3 25L3 26L2 26L2 27L3 27L3 26L6 26L6 27L5 27L5 29L3 29L3 31L2 31L2 32L4 32L4 30L6 30L6 31L5 31L5 32L6 32L6 33L8 33L8 34L9 34L9 35L10 35L10 37L9 37L9 36L8 36L8 39L9 39L9 38L11 38L11 39L10 39L10 40L9 40L9 41L10 41L10 40L11 40L11 41L12 41L12 40L11 40L11 39L13 39L13 41L16 41L16 39L20 39L20 41L23 41L23 39L25 39L25 38L26 38L26 39L28 39L28 38L29 38L29 39L31 39L31 40L26 40L26 41L31 41L31 40L33 40L33 41L34 41L34 40L33 40L33 38L34 38L34 39L35 39L35 40L36 40L36 39L38 39L38 38L37 38L37 37L39 37L39 40L40 40L40 38L41 38L41 37L39 37L39 36L37 36L37 35L38 35L38 33L39 33L39 35L40 35L40 36L41 36L41 35L40 35L40 34L41 34L41 33L40 33L40 32L32 32L32 33L31 33L31 29L33 29L33 30L32 30L32 31L33 31L33 30L34 30L34 31L35 31L35 30L34 30L34 29L36 29L36 31L38 31L38 29L36 29L36 28L38 28L38 26L39 26L39 27L40 27L40 26L41 26L41 23L40 23L40 26L39 26L39 24L37 24L37 25L34 25L34 23L35 23L35 24L36 24L36 23L35 23L35 22L36 22L36 21L37 21L37 20L38 20L38 21L39 21L39 20L38 20L38 18L39 18L39 19L40 19L40 18L41 18L41 16L40 16L40 18L39 18L39 16L38 16L38 15L40 15L40 14L41 14L41 13L40 13L40 12L41 12L41 11L40 11L40 10L41 10L41 8L38 8L38 9L40 9L40 10L37 10L37 9L36 9L36 8L33 8L33 6L32 6L32 8L33 8L33 9L31 9L31 8L29 8L29 6L28 6L28 5L29 5L29 4L28 4L28 5L22 5L22 4L21 4L21 3L20 3L20 0L15 0L15 1L16 1L16 2L17 2L17 1L19 1L19 2L18 2L18 3L16 3L16 4L17 4L17 5L16 5L16 7L15 7L15 6L14 6L14 4L15 4L15 3L14 3L14 0L13 0L13 2L12 2L12 0L10 0L10 1L9 1L9 0ZM22 0L22 1L21 1L21 2L22 2L22 1L23 1L23 2L24 2L24 3L23 3L23 4L25 4L25 3L26 3L26 4L27 4L27 3L29 3L29 1L27 1L27 0ZM30 0L30 2L31 2L31 1L32 1L32 2L33 2L33 0ZM24 1L24 2L25 2L25 1ZM26 2L26 3L27 3L27 2ZM13 3L13 4L12 4L12 5L13 5L13 4L14 4L14 3ZM18 3L18 4L19 4L19 5L17 5L17 7L18 7L18 6L19 6L19 7L20 7L20 6L21 6L21 8L22 8L22 5L20 5L20 4L19 4L19 3ZM30 3L30 4L31 4L31 5L33 5L33 4L32 4L32 3ZM9 6L9 9L10 9L10 8L11 8L11 7L10 7L10 6ZM13 6L13 7L12 7L12 8L13 8L13 7L14 7L14 6ZM23 6L23 8L24 8L24 6ZM25 6L25 8L27 8L27 7L28 7L28 6L27 6L27 7L26 7L26 6ZM30 6L30 7L31 7L31 6ZM14 8L14 9L11 9L11 12L12 12L12 11L13 11L13 12L14 12L14 13L13 13L13 14L12 14L12 13L10 13L10 12L9 12L9 11L8 11L8 13L9 13L9 14L10 14L10 15L8 15L8 14L7 14L7 13L5 13L5 12L7 12L7 11L4 11L4 10L3 10L3 9L2 9L2 10L3 10L3 14L2 14L2 13L1 13L1 14L2 14L2 15L1 15L1 16L2 16L2 17L1 17L1 20L4 20L4 22L3 22L3 23L4 23L4 24L5 24L5 25L6 25L6 26L7 26L7 25L8 25L8 24L9 24L9 25L10 25L10 24L12 24L12 26L11 26L11 27L10 27L10 26L9 26L9 27L8 27L8 29L6 29L6 30L7 30L7 31L6 31L6 32L8 32L8 31L9 31L9 32L10 32L10 33L9 33L9 34L10 34L10 35L11 35L11 38L14 38L14 36L16 36L16 37L17 37L17 36L18 36L18 34L17 34L17 33L21 33L21 34L20 34L20 35L21 35L21 34L22 34L22 35L24 35L24 36L25 36L25 35L27 35L27 36L28 36L28 37L27 37L27 38L28 38L28 37L29 37L29 38L31 38L31 39L32 39L32 38L33 38L33 37L32 37L32 35L30 35L30 34L31 34L31 33L29 33L29 32L30 32L30 29L31 29L31 28L33 28L33 29L34 29L34 28L33 28L33 27L34 27L34 25L32 25L32 24L33 24L33 23L32 23L32 22L34 22L34 21L36 21L36 20L37 20L37 18L38 18L38 16L36 16L36 15L37 15L37 14L40 14L40 13L39 13L39 12L40 12L40 11L38 11L38 12L35 12L35 11L37 11L37 10L36 10L36 9L35 9L35 10L34 10L34 9L33 9L33 10L31 10L31 9L27 9L27 10L28 10L28 11L26 11L26 9L25 9L25 11L24 11L24 13L26 13L26 12L30 12L30 11L29 11L29 10L31 10L31 11L32 11L32 12L31 12L31 14L30 14L30 13L28 13L28 14L29 14L29 15L28 15L28 17L27 17L27 14L23 14L23 15L25 15L25 17L26 17L26 18L28 18L28 19L29 19L29 16L31 16L31 14L32 14L32 15L33 15L33 16L34 16L34 17L35 17L35 19L34 19L34 18L33 18L33 17L32 17L32 18L31 18L31 17L30 17L30 19L33 19L33 20L34 20L34 21L32 21L32 20L28 20L28 21L27 21L27 20L26 20L26 19L24 19L24 18L22 18L22 19L24 19L24 20L23 20L23 21L24 21L24 20L26 20L26 22L28 22L28 23L25 23L25 22L24 22L24 23L25 23L25 24L21 24L21 25L20 25L20 24L19 24L19 21L18 21L18 19L19 19L19 20L21 20L21 18L18 18L18 17L17 17L17 20L16 20L16 23L15 23L15 24L14 24L14 23L11 23L11 22L12 22L12 21L13 21L13 20L12 20L12 21L11 21L11 20L10 20L10 21L9 21L9 22L8 22L8 20L9 20L9 19L10 19L10 17L12 17L12 18L11 18L11 19L12 19L12 18L13 18L13 19L14 19L14 17L15 17L15 19L16 19L16 17L15 17L15 16L13 16L13 15L15 15L15 14L16 14L16 16L17 16L17 14L18 14L18 13L19 13L19 17L20 17L20 15L21 15L21 17L22 17L22 15L21 15L21 14L20 14L20 12L22 12L22 13L23 13L23 12L22 12L22 11L23 11L23 10L24 10L24 9L21 9L21 10L20 10L20 12L19 12L19 9L20 9L20 8L19 8L19 9L17 9L17 8L16 8L16 9L15 9L15 8ZM16 10L16 11L17 11L17 12L16 12L16 13L18 13L18 10ZM21 10L21 11L22 11L22 10ZM33 10L33 11L34 11L34 10ZM14 11L14 12L15 12L15 11ZM25 11L25 12L26 12L26 11ZM33 12L33 13L32 13L32 14L33 14L33 15L34 15L34 14L33 14L33 13L34 13L34 12ZM4 13L4 14L3 14L3 15L2 15L2 16L3 16L3 17L2 17L2 19L3 19L3 18L4 18L4 20L5 20L5 21L7 21L7 20L8 20L8 19L9 19L9 17L10 17L10 16L11 16L11 15L12 15L12 14L11 14L11 15L10 15L10 16L9 16L9 17L8 17L8 16L6 16L6 15L7 15L7 14L6 14L6 15L5 15L5 13ZM36 13L36 14L35 14L35 15L36 15L36 14L37 14L37 13ZM3 15L3 16L4 16L4 18L5 18L5 17L6 17L6 18L7 18L7 19L5 19L5 20L7 20L7 19L8 19L8 17L6 17L6 16L4 16L4 15ZM35 16L35 17L36 17L36 18L37 18L37 17L36 17L36 16ZM35 19L35 20L36 20L36 19ZM40 20L40 21L41 21L41 20ZM10 21L10 22L9 22L9 23L10 23L10 22L11 22L11 21ZM14 21L14 22L15 22L15 21ZM17 21L17 23L16 23L16 24L15 24L15 25L16 25L16 24L17 24L17 25L18 25L18 26L19 26L19 28L18 28L18 27L17 27L17 28L16 28L16 29L15 29L15 27L16 27L16 26L15 26L15 27L14 27L14 26L12 26L12 28L11 28L11 29L14 29L14 30L11 30L11 35L13 35L13 36L14 36L14 35L13 35L13 34L12 34L12 31L14 31L14 32L17 32L17 31L18 31L18 32L19 32L19 31L20 31L20 32L22 32L22 34L24 34L24 35L25 35L25 34L24 34L24 32L26 32L26 34L27 34L27 35L28 35L28 36L29 36L29 35L28 35L28 34L29 34L29 33L28 33L28 34L27 34L27 30L29 30L29 29L30 29L30 28L29 28L29 26L32 26L32 27L33 27L33 26L32 26L32 25L30 25L30 24L31 24L31 22L32 22L32 21L28 21L28 22L30 22L30 24L26 24L26 25L24 25L24 26L23 26L23 25L21 25L21 26L19 26L19 24L17 24L17 23L18 23L18 21ZM4 22L4 23L5 23L5 24L6 24L6 25L7 25L7 24L6 24L6 23L7 23L7 22L6 22L6 23L5 23L5 22ZM22 22L22 23L23 23L23 22ZM13 24L13 25L14 25L14 24ZM27 25L27 26L26 26L26 29L24 29L24 28L23 28L23 27L22 27L22 28L21 28L21 27L20 27L20 28L19 28L19 29L18 29L18 31L19 31L19 29L21 29L21 30L20 30L20 31L21 31L21 30L22 30L22 28L23 28L23 29L24 29L24 30L27 30L27 28L28 28L28 29L29 29L29 28L28 28L28 27L27 27L27 26L29 26L29 25ZM24 26L24 27L25 27L25 26ZM35 26L35 27L37 27L37 26ZM6 27L6 28L7 28L7 27ZM9 27L9 29L10 29L10 27ZM13 27L13 28L14 28L14 27ZM0 28L0 33L1 33L1 30L2 30L2 29L1 29L1 28ZM39 28L39 31L40 31L40 30L41 30L41 29L40 29L40 28ZM9 30L9 31L10 31L10 30ZM16 30L16 31L17 31L17 30ZM23 31L23 32L24 32L24 31ZM28 31L28 32L29 32L29 31ZM14 33L14 34L15 34L15 35L16 35L16 36L17 36L17 34L16 34L16 33ZM33 33L33 36L36 36L36 33ZM34 34L34 35L35 35L35 34ZM19 36L19 38L20 38L20 37L23 37L23 36ZM30 36L30 37L31 37L31 38L32 38L32 37L31 37L31 36ZM34 37L34 38L36 38L36 37ZM22 38L22 39L23 39L23 38ZM14 39L14 40L15 40L15 39ZM0 0L0 7L7 7L7 0ZM1 1L1 6L6 6L6 1ZM2 2L2 5L5 5L5 2ZM34 0L34 7L41 7L41 0ZM35 1L35 6L40 6L40 1ZM36 2L36 5L39 5L39 2ZM0 34L0 41L7 41L7 34ZM1 35L1 40L6 40L6 35ZM2 36L2 39L5 39L5 36Z" fill="#000000"/></g></g></svg>
