<?xml version="1.0" encoding="UTF-8"?>
<svg xmlns="http://www.w3.org/2000/svg" version="1.1" width="200" height="200" viewBox="0 0 200 200"><rect x="0" y="0" width="200" height="200" fill="#ffffff"/><g transform="scale(6.897)"><g transform="translate(0,0)"><path fill-rule="evenodd" d="M9 0L9 1L8 1L8 7L9 7L9 8L5 8L5 9L7 9L7 10L4 10L4 9L3 9L3 8L2 8L2 12L1 12L1 13L2 13L2 12L3 12L3 14L2 14L2 15L3 15L3 16L5 16L5 17L2 17L2 18L0 18L0 19L2 19L2 20L0 20L0 21L5 21L5 20L4 20L4 19L7 19L7 20L6 20L6 21L8 21L8 24L9 24L9 25L10 25L10 24L9 24L9 22L10 22L10 21L9 21L9 20L10 20L10 19L11 19L11 20L12 20L12 19L14 19L14 18L15 18L15 19L17 19L17 17L20 17L20 16L19 16L19 15L21 15L21 19L22 19L22 20L19 20L19 19L20 19L20 18L19 18L19 19L18 19L18 20L19 20L19 21L20 21L20 22L18 22L18 21L15 21L15 20L14 20L14 24L13 24L13 23L12 23L12 24L13 24L13 25L12 25L12 26L13 26L13 27L11 27L11 26L10 26L10 28L9 28L9 29L11 29L11 28L13 28L13 27L14 27L14 26L15 26L15 25L17 25L17 26L20 26L20 27L21 27L21 29L22 29L22 28L24 28L24 29L26 29L26 28L27 28L27 29L29 29L29 26L27 26L27 27L26 27L26 26L25 26L25 28L24 28L24 26L23 26L23 27L22 27L22 26L21 26L21 25L25 25L25 23L26 23L26 21L27 21L27 19L26 19L26 20L23 20L23 19L25 19L25 18L28 18L28 19L29 19L29 18L28 18L28 17L29 17L29 16L28 16L28 15L27 15L27 17L25 17L25 16L22 16L22 15L25 15L25 14L26 14L26 13L29 13L29 12L27 12L27 11L29 11L29 9L28 9L28 8L23 8L23 10L22 10L22 11L21 11L21 9L22 9L22 8L20 8L20 7L21 7L21 0L19 0L19 1L20 1L20 2L19 2L19 3L20 3L20 5L16 5L16 4L17 4L17 3L18 3L18 2L17 2L17 1L18 1L18 0L17 0L17 1L16 1L16 2L17 2L17 3L15 3L15 2L13 2L13 3L12 3L12 1L11 1L11 0ZM9 1L9 7L10 7L10 8L9 8L9 9L8 9L8 10L7 10L7 11L6 11L6 12L5 12L5 11L3 11L3 12L5 12L5 14L4 14L4 15L5 15L5 14L7 14L7 15L6 15L6 16L7 16L7 17L6 17L6 18L7 18L7 19L8 19L8 20L9 20L9 19L10 19L10 17L12 17L12 16L11 16L11 14L9 14L9 13L11 13L11 12L12 12L12 10L17 10L17 13L18 13L18 14L16 14L16 12L15 12L15 13L14 13L14 11L13 11L13 14L12 14L12 15L14 15L14 14L16 14L16 15L15 15L15 17L16 17L16 15L19 15L19 14L22 14L22 12L21 12L21 13L20 13L20 12L19 12L19 11L20 11L20 8L19 8L19 7L20 7L20 6L19 6L19 7L18 7L18 6L17 6L17 7L16 7L16 6L15 6L15 5L14 5L14 6L13 6L13 5L12 5L12 3L11 3L11 4L10 4L10 2L11 2L11 1ZM11 5L11 6L10 6L10 7L11 7L11 6L12 6L12 7L13 7L13 9L15 9L15 8L14 8L14 7L15 7L15 6L14 6L14 7L13 7L13 6L12 6L12 5ZM17 7L17 8L16 8L16 9L17 9L17 10L18 10L18 7ZM10 8L10 9L11 9L11 10L12 10L12 8ZM25 9L25 10L24 10L24 11L27 11L27 10L28 10L28 9ZM0 10L0 11L1 11L1 10ZM9 10L9 11L7 11L7 12L6 12L6 13L7 13L7 14L8 14L8 12L10 12L10 10ZM18 12L18 13L19 13L19 12ZM23 12L23 14L25 14L25 13L24 13L24 12ZM0 14L0 17L1 17L1 14ZM7 15L7 16L8 16L8 17L7 17L7 18L8 18L8 17L9 17L9 16L8 16L8 15ZM13 17L13 18L14 18L14 17ZM22 17L22 18L25 18L25 17ZM11 18L11 19L12 19L12 18ZM11 21L11 22L13 22L13 21ZM21 21L21 24L24 24L24 21ZM15 22L15 24L14 24L14 25L13 25L13 26L14 26L14 25L15 25L15 24L16 24L16 23L17 23L17 25L18 25L18 24L20 24L20 23L18 23L18 22ZM22 22L22 23L23 23L23 22ZM27 22L27 24L26 24L26 25L29 25L29 23L28 23L28 22ZM8 26L8 27L9 27L9 26ZM27 27L27 28L28 28L28 27ZM18 28L18 29L19 29L19 28ZM0 0L0 7L7 7L7 0ZM1 1L1 6L6 6L6 1ZM2 2L2 5L5 5L5 2ZM22 0L22 7L29 7L29 0ZM23 1L23 6L28 6L28 1ZM24 2L24 5L27 5L27 2ZM0 22L0 29L7 29L7 22ZM1 23L1 28L6 28L6 23ZM2 24L2 27L5 27L5 24Z" fill="#000000"/></g></g></svg>
