<?xml version="1.0" encoding="UTF-8"?>
<svg xmlns="http://www.w3.org/2000/svg" version="1.1" width="200" height="200" viewBox="0 0 200 200"><rect x="0" y="0" width="200" height="200" fill="#ffffff"/><g transform="scale(4.878)"><g transform="translate(0,0)"><path fill-rule="evenodd" d="M8 0L8 3L9 3L9 5L8 5L8 9L7 9L7 8L6 8L6 9L5 9L5 8L2 8L2 10L1 10L1 9L0 9L0 12L1 12L1 13L2 13L2 14L1 14L1 15L0 15L0 16L1 16L1 17L3 17L3 18L2 18L2 19L1 19L1 18L0 18L0 19L1 19L1 20L0 20L0 21L2 21L2 19L5 19L5 20L6 20L6 21L5 21L5 22L3 22L3 23L2 23L2 22L1 22L1 24L0 24L0 25L1 25L1 29L0 29L0 33L1 33L1 29L2 29L2 31L3 31L3 29L4 29L4 30L6 30L6 31L8 31L8 32L6 32L6 33L8 33L8 34L9 34L9 33L8 33L8 32L9 32L9 30L10 30L10 33L11 33L11 34L12 34L12 35L11 35L11 36L8 36L8 39L9 39L9 38L10 38L10 37L11 37L11 36L12 36L12 37L13 37L13 38L12 38L12 39L10 39L10 41L11 41L11 40L12 40L12 39L14 39L14 41L17 41L17 38L16 38L16 37L17 37L17 36L16 36L16 35L17 35L17 34L16 34L16 33L15 33L15 32L13 32L13 30L15 30L15 31L16 31L16 32L17 32L17 31L18 31L18 30L20 30L20 29L17 29L17 30L15 30L15 28L18 28L18 27L19 27L19 26L18 26L18 27L17 27L17 24L16 24L16 23L18 23L18 22L16 22L16 21L18 21L18 20L17 20L17 19L20 19L20 21L19 21L19 25L23 25L23 26L21 26L21 27L22 27L22 28L21 28L21 30L22 30L22 29L23 29L23 28L24 28L24 24L25 24L25 25L29 25L29 26L30 26L30 25L31 25L31 26L32 26L32 25L33 25L33 26L34 26L34 27L32 27L32 29L33 29L33 30L32 30L32 31L33 31L33 30L34 30L34 31L35 31L35 32L32 32L32 33L30 33L30 32L31 32L31 31L30 31L30 30L29 30L29 29L31 29L31 28L29 28L29 27L28 27L28 26L27 26L27 30L26 30L26 29L25 29L25 31L24 31L24 33L23 33L23 35L22 35L22 32L21 32L21 31L19 31L19 33L18 33L18 34L19 34L19 33L20 33L20 34L21 34L21 35L19 35L19 37L18 37L18 38L19 38L19 37L25 37L25 38L27 38L27 40L28 40L28 39L30 39L30 38L29 38L29 37L28 37L28 36L29 36L29 35L28 35L28 34L27 34L27 32L26 32L26 31L27 31L27 30L29 30L29 31L28 31L28 33L30 33L30 35L32 35L32 37L36 37L36 38L33 38L33 39L32 39L32 38L31 38L31 40L33 40L33 41L34 41L34 40L33 40L33 39L35 39L35 40L36 40L36 39L37 39L37 37L39 37L39 40L40 40L40 38L41 38L41 37L39 37L39 36L40 36L40 34L41 34L41 33L39 33L39 32L40 32L40 30L41 30L41 29L40 29L40 28L41 28L41 27L40 27L40 26L41 26L41 23L40 23L40 26L39 26L39 24L37 24L37 25L36 25L36 23L34 23L34 22L36 22L36 21L39 21L39 20L36 20L36 19L35 19L35 17L36 17L36 18L38 18L38 19L39 19L39 18L41 18L41 16L40 16L40 17L39 17L39 16L38 16L38 15L39 15L39 14L41 14L41 13L39 13L39 14L38 14L38 15L36 15L36 14L37 14L37 13L36 13L36 14L35 14L35 15L36 15L36 16L35 16L35 17L34 17L34 16L33 16L33 15L34 15L34 14L33 14L33 13L34 13L34 12L33 12L33 13L32 13L32 12L29 12L29 10L26 10L26 11L24 11L24 10L25 10L25 8L26 8L26 7L27 7L27 6L28 6L28 8L27 8L27 9L30 9L30 10L32 10L32 9L33 9L33 11L34 11L34 10L36 10L36 11L37 11L37 12L38 12L38 11L40 11L40 10L41 10L41 8L38 8L38 9L40 9L40 10L37 10L37 9L36 9L36 8L32 8L32 7L33 7L33 4L31 4L31 3L32 3L32 2L31 2L31 1L32 1L32 0L31 0L31 1L30 1L30 2L31 2L31 3L30 3L30 4L31 4L31 5L29 5L29 4L28 4L28 5L27 5L27 6L26 6L26 7L25 7L25 6L24 6L24 9L23 9L23 10L22 10L22 9L21 9L21 8L19 8L19 6L18 6L18 8L19 8L19 10L18 10L18 11L17 11L17 9L16 9L16 8L17 8L17 5L20 5L20 7L21 7L21 6L22 6L22 7L23 7L23 6L22 6L22 5L23 5L23 3L24 3L24 2L25 2L25 3L26 3L26 4L27 4L27 3L29 3L29 1L27 1L27 0L25 0L25 1L22 1L22 0L19 0L19 1L20 1L20 2L19 2L19 3L18 3L18 2L17 2L17 0L15 0L15 1L16 1L16 2L15 2L15 3L16 3L16 4L17 4L17 5L14 5L14 7L13 7L13 5L12 5L12 4L11 4L11 5L12 5L12 7L11 7L11 6L10 6L10 3L11 3L11 2L12 2L12 3L13 3L13 4L14 4L14 2L13 2L13 1L12 1L12 0ZM9 1L9 2L10 2L10 1ZM20 2L20 5L22 5L22 4L21 4L21 2ZM26 2L26 3L27 3L27 2ZM17 3L17 4L18 4L18 3ZM24 4L24 5L25 5L25 4ZM31 5L31 7L30 7L30 6L29 6L29 8L30 8L30 9L32 9L32 8L31 8L31 7L32 7L32 5ZM9 6L9 7L10 7L10 8L9 8L9 9L8 9L8 10L10 10L10 11L6 11L6 10L7 10L7 9L6 9L6 10L5 10L5 13L6 13L6 14L7 14L7 15L6 15L6 16L7 16L7 17L6 17L6 18L7 18L7 19L6 19L6 20L7 20L7 21L6 21L6 22L7 22L7 23L5 23L5 25L6 25L6 26L8 26L8 27L6 27L6 28L5 28L5 26L4 26L4 27L3 27L3 25L4 25L4 24L1 24L1 25L2 25L2 27L3 27L3 28L2 28L2 29L3 29L3 28L5 28L5 29L6 29L6 30L7 30L7 29L8 29L8 30L9 30L9 29L13 29L13 28L11 28L11 27L13 27L13 26L14 26L14 27L16 27L16 26L14 26L14 25L13 25L13 23L14 23L14 24L15 24L15 21L16 21L16 20L15 20L15 19L14 19L14 18L15 18L15 17L16 17L16 18L18 18L18 17L16 17L16 15L15 15L15 14L16 14L16 13L17 13L17 16L18 16L18 15L19 15L19 18L20 18L20 16L21 16L21 18L23 18L23 21L22 21L22 20L21 20L21 21L22 21L22 23L20 23L20 24L24 24L24 23L25 23L25 24L27 24L27 23L26 23L26 22L29 22L29 24L31 24L31 25L32 25L32 24L31 24L31 23L33 23L33 25L35 25L35 26L36 26L36 25L35 25L35 24L34 24L34 23L33 23L33 22L34 22L34 21L36 21L36 20L35 20L35 19L34 19L34 18L33 18L33 20L34 20L34 21L32 21L32 20L29 20L29 16L30 16L30 17L31 17L31 15L30 15L30 13L28 13L28 14L29 14L29 15L28 15L28 17L27 17L27 18L26 18L26 16L25 16L25 18L24 18L24 15L27 15L27 14L24 14L24 13L23 13L23 11L22 11L22 13L21 13L21 10L20 10L20 11L18 11L18 12L16 12L16 9L14 9L14 10L10 10L10 8L11 8L11 9L13 9L13 8L11 8L11 7L10 7L10 6ZM15 6L15 8L16 8L16 6ZM2 10L2 11L3 11L3 14L4 14L4 10ZM14 10L14 12L13 12L13 13L12 13L12 12L10 12L10 13L8 13L8 15L7 15L7 16L8 16L8 15L9 15L9 19L7 19L7 20L8 20L8 24L9 24L9 23L10 23L10 26L11 26L11 22L10 22L10 21L12 21L12 23L13 23L13 22L14 22L14 21L15 21L15 20L14 20L14 19L13 19L13 18L14 18L14 17L15 17L15 15L12 15L12 14L13 14L13 13L14 13L14 12L15 12L15 10ZM26 11L26 13L27 13L27 11ZM6 12L6 13L7 13L7 12ZM18 12L18 14L19 14L19 15L20 15L20 14L19 14L19 13L20 13L20 12ZM31 13L31 14L32 14L32 15L33 15L33 14L32 14L32 13ZM9 14L9 15L10 15L10 17L12 17L12 16L11 16L11 15L10 15L10 14ZM21 14L21 16L22 16L22 15L24 15L24 14ZM1 15L1 16L3 16L3 17L4 17L4 18L5 18L5 15ZM13 16L13 17L14 17L14 16ZM32 16L32 17L33 17L33 16ZM36 16L36 17L38 17L38 18L39 18L39 17L38 17L38 16ZM7 17L7 18L8 18L8 17ZM10 18L10 20L12 20L12 21L14 21L14 20L12 20L12 18ZM27 18L27 19L26 19L26 20L25 20L25 19L24 19L24 21L23 21L23 22L24 22L24 21L27 21L27 20L28 20L28 21L29 21L29 20L28 20L28 18ZM30 18L30 19L32 19L32 18ZM3 20L3 21L4 21L4 20ZM40 20L40 21L41 21L41 20ZM30 21L30 22L32 22L32 21ZM37 22L37 23L38 23L38 22ZM6 24L6 25L7 25L7 24ZM8 25L8 26L9 26L9 25ZM12 25L12 26L13 26L13 25ZM38 26L38 28L37 28L37 27L35 27L35 29L34 29L34 28L33 28L33 29L34 29L34 30L35 30L35 31L38 31L38 32L37 32L37 34L38 34L38 35L37 35L37 36L39 36L39 34L38 34L38 32L39 32L39 31L38 31L38 30L39 30L39 26ZM9 27L9 28L8 28L8 29L9 29L9 28L10 28L10 27ZM6 28L6 29L7 29L7 28ZM28 28L28 29L29 29L29 28ZM35 29L35 30L38 30L38 29ZM11 30L11 31L12 31L12 30ZM29 31L29 32L30 32L30 31ZM11 32L11 33L12 33L12 32ZM20 32L20 33L21 33L21 32ZM13 33L13 35L12 35L12 36L13 36L13 35L14 35L14 34L15 34L15 33ZM24 33L24 34L25 34L25 36L26 36L26 37L27 37L27 38L28 38L28 37L27 37L27 36L28 36L28 35L27 35L27 36L26 36L26 34L25 34L25 33ZM33 33L33 36L36 36L36 33ZM34 34L34 35L35 35L35 34ZM15 36L15 37L16 37L16 36ZM30 36L30 37L31 37L31 36ZM14 38L14 39L15 39L15 40L16 40L16 38ZM20 38L20 40L22 40L22 38ZM18 39L18 40L19 40L19 39ZM24 39L24 40L26 40L26 39ZM29 40L29 41L30 41L30 40ZM0 0L0 7L7 7L7 0ZM1 1L1 6L6 6L6 1ZM2 2L2 5L5 5L5 2ZM34 0L34 7L41 7L41 0ZM35 1L35 6L40 6L40 1ZM36 2L36 5L39 5L39 2ZM0 34L0 41L7 41L7 34ZM1 35L1 40L6 40L6 35ZM2 36L2 39L5 39L5 36Z" fill="#000000"/></g></g></svg>
