<?xml version="1.0" encoding="UTF-8"?>
<svg xmlns="http://www.w3.org/2000/svg" version="1.1" width="200" height="200" viewBox="0 0 200 200"><rect x="0" y="0" width="200" height="200" fill="#ffffff"/><g transform="scale(6.897)"><g transform="translate(0,0)"><path fill-rule="evenodd" d="M8 0L8 1L9 1L9 3L8 3L8 4L9 4L9 3L10 3L10 5L9 5L9 6L8 6L8 7L9 7L9 8L8 8L8 10L5 10L5 9L7 9L7 8L4 8L4 9L3 9L3 8L2 8L2 11L1 11L1 12L0 12L0 13L1 13L1 14L0 14L0 15L1 15L1 16L0 16L0 17L2 17L2 19L1 19L1 18L0 18L0 19L1 19L1 20L0 20L0 21L1 21L1 20L2 20L2 21L8 21L8 22L9 22L9 18L8 18L8 17L10 17L10 18L11 18L11 16L9 16L9 14L10 14L10 15L11 15L11 14L13 14L13 16L14 16L14 17L12 17L12 18L14 18L14 17L16 17L16 22L15 22L15 19L13 19L13 20L11 20L11 19L10 19L10 20L11 20L11 21L10 21L10 24L9 24L9 23L8 23L8 25L9 25L9 26L8 26L8 27L10 27L10 26L11 26L11 28L10 28L10 29L13 29L13 28L12 28L12 27L13 27L13 26L14 26L14 29L15 29L15 28L18 28L18 29L20 29L20 25L21 25L21 26L22 26L22 25L23 25L23 26L24 26L24 25L27 25L27 26L26 26L26 27L27 27L27 28L23 28L23 27L22 27L22 28L23 28L23 29L27 29L27 28L28 28L28 29L29 29L29 26L28 26L28 25L29 25L29 24L26 24L26 23L25 23L25 20L24 20L24 19L25 19L25 18L24 18L24 17L26 17L26 18L27 18L27 20L26 20L26 21L28 21L28 22L27 22L27 23L29 23L29 21L28 21L28 19L29 19L29 18L27 18L27 17L26 17L26 14L24 14L24 13L25 13L25 11L26 11L26 13L27 13L27 14L28 14L28 15L27 15L27 16L28 16L28 17L29 17L29 16L28 16L28 15L29 15L29 14L28 14L28 13L29 13L29 12L28 12L28 11L29 11L29 8L28 8L28 9L26 9L26 8L25 8L25 9L24 9L24 10L25 10L25 11L24 11L24 12L23 12L23 10L22 10L22 8L21 8L21 0L20 0L20 1L19 1L19 2L20 2L20 3L19 3L19 4L18 4L18 3L17 3L17 2L18 2L18 1L16 1L16 0L13 0L13 1L16 1L16 2L14 2L14 3L13 3L13 4L14 4L14 5L11 5L11 4L12 4L12 3L11 3L11 2L10 2L10 1L9 1L9 0ZM15 3L15 4L16 4L16 5L14 5L14 6L13 6L13 7L14 7L14 6L15 6L15 7L16 7L16 8L17 8L17 9L14 9L14 10L15 10L15 11L16 11L16 14L14 14L14 13L13 13L13 12L14 12L14 11L12 11L12 10L13 10L13 9L12 9L12 10L11 10L11 9L10 9L10 8L9 8L9 9L10 9L10 10L9 10L9 12L8 12L8 11L5 11L5 12L2 12L2 14L3 14L3 16L2 16L2 17L3 17L3 19L4 19L4 15L5 15L5 17L6 17L6 18L5 18L5 20L7 20L7 19L6 19L6 18L7 18L7 17L6 17L6 16L8 16L8 14L9 14L9 13L11 13L11 11L12 11L12 13L13 13L13 14L14 14L14 16L16 16L16 17L17 17L17 18L18 18L18 17L20 17L20 18L19 18L19 19L17 19L17 20L18 20L18 21L17 21L17 22L16 22L16 23L15 23L15 22L14 22L14 23L12 23L12 24L11 24L11 26L12 26L12 24L13 24L13 25L14 25L14 26L16 26L16 27L19 27L19 24L18 24L18 25L17 25L17 26L16 26L16 25L15 25L15 24L17 24L17 23L19 23L19 21L20 21L20 20L21 20L21 19L22 19L22 18L23 18L23 19L24 19L24 18L23 18L23 17L24 17L24 16L25 16L25 15L24 15L24 14L23 14L23 15L22 15L22 14L21 14L21 13L20 13L20 14L19 14L19 12L20 12L20 11L18 11L18 10L19 10L19 8L20 8L20 5L19 5L19 7L18 7L18 5L17 5L17 3ZM10 5L10 6L9 6L9 7L10 7L10 6L11 6L11 7L12 7L12 6L11 6L11 5ZM16 5L16 7L17 7L17 5ZM0 9L0 10L1 10L1 9ZM17 9L17 10L16 10L16 11L17 11L17 10L18 10L18 9ZM3 10L3 11L4 11L4 10ZM27 10L27 11L28 11L28 10ZM21 11L21 12L22 12L22 11ZM6 12L6 13L4 13L4 14L6 14L6 15L7 15L7 14L6 14L6 13L8 13L8 12ZM27 12L27 13L28 13L28 12ZM17 13L17 14L16 14L16 15L17 15L17 14L18 14L18 15L19 15L19 16L20 16L20 15L21 15L21 14L20 14L20 15L19 15L19 14L18 14L18 13ZM23 15L23 16L22 16L22 17L23 17L23 16L24 16L24 15ZM19 19L19 20L20 20L20 19ZM21 21L21 24L24 24L24 21ZM22 22L22 23L23 23L23 22ZM14 23L14 24L15 24L15 23ZM27 26L27 27L28 27L28 26ZM0 0L0 7L7 7L7 0ZM1 1L1 6L6 6L6 1ZM2 2L2 5L5 5L5 2ZM22 0L22 7L29 7L29 0ZM23 1L23 6L28 6L28 1ZM24 2L24 5L27 5L27 2ZM0 22L0 29L7 29L7 22ZM1 23L1 28L6 28L6 23ZM2 24L2 27L5 27L5 24Z" fill="#000000"/></g></g></svg>
