<?xml version="1.0" encoding="UTF-8"?>
<svg xmlns="http://www.w3.org/2000/svg" version="1.1" width="200" height="200" viewBox="0 0 200 200"><rect x="0" y="0" width="200" height="200" fill="#ffffff"/><g transform="scale(6.897)"><g transform="translate(0,0)"><path fill-rule="evenodd" d="M8 0L8 3L9 3L9 4L10 4L10 5L8 5L8 9L9 9L9 10L10 10L10 9L11 9L11 10L12 10L12 11L11 11L11 12L9 12L9 13L8 13L8 12L5 12L5 10L6 10L6 11L8 11L8 10L6 10L6 9L7 9L7 8L6 8L6 9L5 9L5 8L2 8L2 9L1 9L1 10L0 10L0 16L4 16L4 14L5 14L5 15L7 15L7 16L6 16L6 17L7 17L7 16L8 16L8 18L5 18L5 20L2 20L2 21L8 21L8 22L10 22L10 21L11 21L11 22L13 22L13 24L12 24L12 23L11 23L11 24L10 24L10 23L9 23L9 24L8 24L8 27L9 27L9 28L10 28L10 27L9 27L9 26L10 26L10 25L12 25L12 27L11 27L11 29L12 29L12 27L13 27L13 25L15 25L15 27L17 27L17 28L13 28L13 29L17 29L17 28L18 28L18 29L25 29L25 28L26 28L26 29L28 29L28 28L29 28L29 27L28 27L28 23L29 23L29 20L28 20L28 19L27 19L27 17L28 17L28 14L26 14L26 13L25 13L25 12L27 12L27 13L28 13L28 10L29 10L29 8L26 8L26 9L27 9L27 10L25 10L25 12L24 12L24 11L22 11L22 12L23 12L23 13L21 13L21 15L22 15L22 14L23 14L23 13L24 13L24 20L23 20L23 19L22 19L22 18L20 18L20 19L21 19L21 20L20 20L20 25L19 25L19 23L18 23L18 24L14 24L14 22L16 22L16 23L17 23L17 22L18 22L18 21L19 21L19 16L18 16L18 15L19 15L19 13L20 13L20 12L21 12L21 11L20 11L20 10L22 10L22 9L23 9L23 10L24 10L24 8L21 8L21 5L20 5L20 4L21 4L21 3L20 3L20 4L19 4L19 3L18 3L18 4L17 4L17 6L16 6L16 8L15 8L15 9L17 9L17 10L14 10L14 9L12 9L12 8L14 8L14 7L15 7L15 5L16 5L16 4L15 4L15 3L14 3L14 2L13 2L13 0ZM9 1L9 3L11 3L11 4L12 4L12 3L13 3L13 2L12 2L12 1L11 1L11 2L10 2L10 1ZM16 1L16 3L17 3L17 1ZM18 1L18 2L19 2L19 1ZM20 1L20 2L21 2L21 1ZM11 2L11 3L12 3L12 2ZM13 4L13 5L10 5L10 6L9 6L9 9L10 9L10 6L11 6L11 7L12 7L12 6L13 6L13 7L14 7L14 5L15 5L15 4ZM18 4L18 6L17 6L17 7L18 7L18 6L19 6L19 7L20 7L20 6L19 6L19 4ZM17 8L17 9L19 9L19 10L20 10L20 9L21 9L21 8L20 8L20 9L19 9L19 8ZM3 10L3 13L2 13L2 11L1 11L1 15L2 15L2 14L3 14L3 13L5 13L5 14L7 14L7 15L10 15L10 14L12 14L12 16L10 16L10 17L9 17L9 18L12 18L12 20L11 20L11 21L13 21L13 22L14 22L14 21L16 21L16 22L17 22L17 21L18 21L18 20L17 20L17 21L16 21L16 19L15 19L15 20L14 20L14 19L13 19L13 16L15 16L15 15L18 15L18 13L17 13L17 14L16 14L16 13L14 13L14 12L13 12L13 11L14 11L14 10L13 10L13 11L12 11L12 12L11 12L11 13L10 13L10 14L7 14L7 13L5 13L5 12L4 12L4 10ZM17 10L17 11L18 11L18 10ZM12 13L12 14L13 14L13 15L14 15L14 13ZM25 15L25 16L27 16L27 15ZM17 16L17 17L16 17L16 18L17 18L17 19L18 19L18 18L17 18L17 17L18 17L18 16ZM20 16L20 17L22 17L22 16ZM0 17L0 21L1 21L1 17ZM2 17L2 19L4 19L4 17ZM14 17L14 18L15 18L15 17ZM25 18L25 21L26 21L26 22L25 22L25 24L26 24L26 27L27 27L27 23L26 23L26 22L28 22L28 20L26 20L26 18ZM6 19L6 20L8 20L8 21L10 21L10 19L9 19L9 20L8 20L8 19ZM13 20L13 21L14 21L14 20ZM21 21L21 24L24 24L24 21ZM22 22L22 23L23 23L23 22ZM9 24L9 25L10 25L10 24ZM16 25L16 26L17 26L17 25ZM18 25L18 26L19 26L19 25ZM22 25L22 26L23 26L23 27L25 27L25 26L24 26L24 25ZM20 26L20 27L19 27L19 28L22 28L22 27L21 27L21 26ZM0 0L0 7L7 7L7 0ZM1 1L1 6L6 6L6 1ZM2 2L2 5L5 5L5 2ZM22 0L22 7L29 7L29 0ZM23 1L23 6L28 6L28 1ZM24 2L24 5L27 5L27 2ZM0 22L0 29L7 29L7 22ZM1 23L1 28L6 28L6 23ZM2 24L2 27L5 27L5 24Z" fill="#000000"/></g></g></svg>
