<?xml version="1.0" encoding="UTF-8"?>
<svg xmlns="http://www.w3.org/2000/svg" version="1.1" width="200" height="200" viewBox="0 0 200 200"><rect x="0" y="0" width="200" height="200" fill="#ffffff"/><g transform="scale(4.878)"><g transform="translate(0,0)"><path fill-rule="evenodd" d="M8 0L8 1L9 1L9 2L8 2L8 3L9 3L9 4L8 4L8 5L9 5L9 4L10 4L10 3L11 3L11 4L12 4L12 7L11 7L11 5L10 5L10 7L11 7L11 8L10 8L10 9L11 9L11 10L15 10L15 9L16 9L16 11L12 11L12 12L11 12L11 14L9 14L9 12L10 12L10 11L9 11L9 10L8 10L8 9L7 9L7 8L5 8L5 9L7 9L7 10L6 10L6 11L7 11L7 12L6 12L6 13L7 13L7 14L6 14L6 15L5 15L5 13L2 13L2 12L3 12L3 11L5 11L5 10L4 10L4 9L3 9L3 11L2 11L2 12L0 12L0 13L1 13L1 14L0 14L0 16L1 16L1 17L0 17L0 20L1 20L1 19L3 19L3 18L1 18L1 17L2 17L2 16L3 16L3 14L4 14L4 15L5 15L5 17L4 17L4 19L5 19L5 17L7 17L7 18L6 18L6 19L7 19L7 20L6 20L6 21L10 21L10 23L11 23L11 20L10 20L10 19L11 19L11 18L12 18L12 17L14 17L14 16L12 16L12 15L15 15L15 17L18 17L18 19L19 19L19 20L18 20L18 22L17 22L17 23L16 23L16 21L14 21L14 22L13 22L13 23L12 23L12 27L11 27L11 26L10 26L10 27L11 27L11 28L10 28L10 31L8 31L8 30L9 30L9 29L7 29L7 28L8 28L8 25L7 25L7 24L9 24L9 25L11 25L11 24L9 24L9 22L5 22L5 20L2 20L2 21L1 21L1 22L0 22L0 23L1 23L1 24L3 24L3 23L4 23L4 24L5 24L5 26L6 26L6 27L7 27L7 28L6 28L6 29L5 29L5 28L4 28L4 27L3 27L3 28L2 28L2 29L4 29L4 30L5 30L5 31L4 31L4 32L3 32L3 33L8 33L8 34L9 34L9 35L8 35L8 36L10 36L10 38L9 38L9 40L10 40L10 41L12 41L12 39L11 39L11 37L12 37L12 36L10 36L10 35L11 35L11 34L13 34L13 35L14 35L14 34L17 34L17 35L15 35L15 38L16 38L16 39L17 39L17 40L16 40L16 41L21 41L21 39L22 39L22 40L23 40L23 41L25 41L25 40L26 40L26 41L31 41L31 40L32 40L32 38L33 38L33 37L36 37L36 38L34 38L34 39L33 39L33 41L34 41L34 40L36 40L36 39L37 39L37 40L38 40L38 39L40 39L40 40L41 40L41 39L40 39L40 38L41 38L41 36L40 36L40 38L39 38L39 37L37 37L37 34L38 34L38 35L40 35L40 34L39 34L39 32L40 32L40 31L41 31L41 29L40 29L40 28L39 28L39 27L40 27L40 26L41 26L41 25L39 25L39 24L37 24L37 22L41 22L41 20L40 20L40 19L41 19L41 15L40 15L40 14L41 14L41 11L40 11L40 9L41 9L41 8L40 8L40 9L39 9L39 8L38 8L38 10L37 10L37 8L36 8L36 9L35 9L35 8L34 8L34 9L35 9L35 10L34 10L34 12L35 12L35 13L36 13L36 14L35 14L35 15L34 15L34 14L32 14L32 16L33 16L33 17L31 17L31 15L30 15L30 16L29 16L29 17L31 17L31 18L29 18L29 19L28 19L28 17L25 17L25 13L26 13L26 12L27 12L27 13L28 13L28 14L29 14L29 11L30 11L30 14L31 14L31 13L32 13L32 12L33 12L33 10L32 10L32 8L28 8L28 7L29 7L29 6L28 6L28 7L27 7L27 4L28 4L28 5L29 5L29 3L31 3L31 2L30 2L30 1L31 1L31 0L30 0L30 1L29 1L29 0L28 0L28 2L26 2L26 4L25 4L25 2L24 2L24 1L26 1L26 0L23 0L23 1L22 1L22 0L21 0L21 1L22 1L22 2L21 2L21 3L23 3L23 4L22 4L22 5L21 5L21 4L20 4L20 7L19 7L19 6L18 6L18 8L19 8L19 9L18 9L18 10L17 10L17 9L16 9L16 8L17 8L17 5L18 5L18 4L19 4L19 3L20 3L20 2L19 2L19 0L16 0L16 2L15 2L15 3L14 3L14 2L12 2L12 3L11 3L11 1L12 1L12 0L11 0L11 1L9 1L9 0ZM13 0L13 1L14 1L14 0ZM32 1L32 2L33 2L33 1ZM16 2L16 4L14 4L14 5L13 5L13 9L15 9L15 8L14 8L14 6L15 6L15 7L16 7L16 6L15 6L15 5L17 5L17 4L18 4L18 3L19 3L19 2ZM23 2L23 3L24 3L24 2ZM12 3L12 4L13 4L13 3ZM32 3L32 4L30 4L30 7L31 7L31 5L33 5L33 3ZM24 4L24 5L23 5L23 9L24 9L24 10L21 10L21 8L20 8L20 9L19 9L19 10L21 10L21 12L20 12L20 11L19 11L19 12L18 12L18 11L16 11L16 12L15 12L15 13L14 13L14 12L12 12L12 13L13 13L13 14L16 14L16 16L17 16L17 13L16 13L16 12L18 12L18 14L19 14L19 15L20 15L20 16L18 16L18 17L21 17L21 18L19 18L19 19L20 19L20 20L21 20L21 21L20 21L20 22L22 22L22 24L23 24L23 26L22 26L22 25L21 25L21 26L20 26L20 25L18 25L18 24L17 24L17 25L14 25L14 24L16 24L16 23L15 23L15 22L14 22L14 23L13 23L13 25L14 25L14 28L13 28L13 30L12 30L12 28L11 28L11 30L12 30L12 31L10 31L10 32L9 32L9 34L11 34L11 33L12 33L12 31L13 31L13 34L14 34L14 28L15 28L15 26L16 26L16 28L17 28L17 27L18 27L18 26L19 26L19 29L20 29L20 30L19 30L19 31L20 31L20 32L21 32L21 33L22 33L22 35L17 35L17 39L18 39L18 40L20 40L20 39L21 39L21 38L20 38L20 39L18 39L18 37L20 37L20 36L21 36L21 37L22 37L22 38L23 38L23 37L22 37L22 36L24 36L24 35L25 35L25 37L24 37L24 38L25 38L25 39L23 39L23 40L25 40L25 39L26 39L26 38L27 38L27 36L26 36L26 35L27 35L27 32L28 32L28 36L29 36L29 32L30 32L30 31L29 31L29 30L30 30L30 29L31 29L31 31L32 31L32 29L33 29L33 28L31 28L31 27L32 27L32 26L34 26L34 27L35 27L35 28L34 28L34 30L33 30L33 31L34 31L34 32L39 32L39 30L40 30L40 29L39 29L39 28L36 28L36 27L37 27L37 26L34 26L34 23L35 23L35 24L36 24L36 25L37 25L37 24L36 24L36 23L35 23L35 22L36 22L36 21L35 21L35 18L36 18L36 20L37 20L37 21L38 21L38 20L39 20L39 21L40 21L40 20L39 20L39 19L38 19L38 18L39 18L39 17L40 17L40 16L39 16L39 17L38 17L38 16L36 16L36 15L35 15L35 16L34 16L34 17L33 17L33 19L32 19L32 20L31 20L31 19L29 19L29 22L31 22L31 23L33 23L33 24L32 24L32 26L29 26L29 25L31 25L31 24L30 24L30 23L29 23L29 24L28 24L28 23L27 23L27 24L28 24L28 27L27 27L27 28L26 28L26 27L24 27L24 25L25 25L25 26L27 26L27 25L26 25L26 24L24 24L24 23L25 23L25 22L26 22L26 20L28 20L28 19L26 19L26 18L25 18L25 17L24 17L24 16L23 16L23 15L24 15L24 13L23 13L23 11L25 11L25 12L26 12L26 11L27 11L27 7L26 7L26 6L25 6L25 4ZM8 6L8 8L9 8L9 6ZM21 6L21 7L22 7L22 6ZM24 6L24 8L25 8L25 9L26 9L26 8L25 8L25 6ZM32 6L32 7L33 7L33 6ZM1 9L1 10L0 10L0 11L1 11L1 10L2 10L2 9ZM29 9L29 10L28 10L28 11L29 11L29 10L30 10L30 11L31 11L31 12L32 12L32 10L31 10L31 9ZM7 10L7 11L8 11L8 12L9 12L9 11L8 11L8 10ZM35 10L35 11L36 11L36 10ZM38 11L38 12L39 12L39 13L37 13L37 12L36 12L36 13L37 13L37 14L39 14L39 13L40 13L40 11ZM21 12L21 14L20 14L20 15L23 15L23 14L22 14L22 12ZM1 14L1 16L2 16L2 14ZM8 14L8 15L6 15L6 16L7 16L7 17L8 17L8 18L9 18L9 19L10 19L10 18L9 18L9 17L10 17L10 16L9 16L9 17L8 17L8 15L9 15L9 14ZM11 14L11 15L12 15L12 14ZM26 14L26 16L28 16L28 15L27 15L27 14ZM21 16L21 17L22 17L22 18L21 18L21 20L22 20L22 21L24 21L24 20L23 20L23 19L22 19L22 18L23 18L23 16ZM35 16L35 17L34 17L34 18L35 18L35 17L36 17L36 18L38 18L38 17L36 17L36 16ZM13 18L13 19L12 19L12 20L13 20L13 19L14 19L14 20L15 20L15 18ZM16 19L16 20L17 20L17 19ZM25 19L25 20L26 20L26 19ZM33 19L33 20L32 20L32 21L31 21L31 20L30 20L30 21L31 21L31 22L33 22L33 23L34 23L34 19ZM37 19L37 20L38 20L38 19ZM2 21L2 22L1 22L1 23L3 23L3 21ZM18 22L18 23L19 23L19 22ZM6 23L6 24L7 24L7 23ZM40 23L40 24L41 24L41 23ZM0 25L0 26L1 26L1 27L2 27L2 25ZM3 25L3 26L4 26L4 25ZM6 25L6 26L7 26L7 25ZM38 26L38 27L39 27L39 26ZM21 27L21 29L23 29L23 28L22 28L22 27ZM0 28L0 33L1 33L1 31L3 31L3 30L1 30L1 28ZM24 28L24 29L25 29L25 30L21 30L21 31L22 31L22 33L24 33L24 31L28 31L28 30L26 30L26 28ZM27 28L27 29L30 29L30 28ZM6 29L6 30L7 30L7 29ZM15 29L15 30L17 30L17 29ZM35 29L35 31L38 31L38 29ZM5 31L5 32L8 32L8 31ZM15 31L15 32L16 32L16 33L17 33L17 34L20 34L20 33L19 33L19 32L17 32L17 31ZM10 32L10 33L11 33L11 32ZM25 32L25 35L26 35L26 32ZM30 33L30 35L31 35L31 36L30 36L30 37L29 37L29 38L28 38L28 39L29 39L29 40L30 40L30 39L31 39L31 38L32 38L32 37L31 37L31 36L32 36L32 35L31 35L31 33ZM33 33L33 36L36 36L36 33ZM34 34L34 35L35 35L35 34ZM13 36L13 37L14 37L14 36ZM30 37L30 38L29 38L29 39L30 39L30 38L31 38L31 37ZM13 38L13 40L14 40L14 41L15 41L15 40L14 40L14 38ZM37 38L37 39L38 39L38 38ZM10 39L10 40L11 40L11 39ZM0 0L0 7L7 7L7 0ZM1 1L1 6L6 6L6 1ZM2 2L2 5L5 5L5 2ZM34 0L34 7L41 7L41 0ZM35 1L35 6L40 6L40 1ZM36 2L36 5L39 5L39 2ZM0 34L0 41L7 41L7 34ZM1 35L1 40L6 40L6 35ZM2 36L2 39L5 39L5 36Z" fill="#000000"/></g></g></svg>
