<?xml version="1.0" encoding="UTF-8"?>
<svg xmlns="http://www.w3.org/2000/svg" version="1.1" width="200" height="200" viewBox="0 0 200 200"><rect x="0" y="0" width="200" height="200" fill="#ffffff"/><g transform="scale(4.878)"><g transform="translate(0,0)"><path fill-rule="evenodd" d="M8 0L8 3L9 3L9 4L10 4L10 5L11 5L11 6L10 6L10 10L8 10L8 11L7 11L7 10L6 10L6 9L7 9L7 8L6 8L6 9L5 9L5 8L2 8L2 10L1 10L1 11L2 11L2 12L1 12L1 14L3 14L3 13L2 13L2 12L3 12L3 9L4 9L4 10L6 10L6 11L7 11L7 12L5 12L5 13L4 13L4 16L5 16L5 17L7 17L7 16L5 16L5 14L6 14L6 15L8 15L8 16L10 16L10 17L8 17L8 18L6 18L6 19L7 19L7 20L6 20L6 21L7 21L7 20L8 20L8 22L9 22L9 24L8 24L8 23L7 23L7 22L6 22L6 23L5 23L5 21L4 21L4 20L5 20L5 19L4 19L4 20L2 20L2 18L4 18L4 17L2 17L2 15L0 15L0 17L1 17L1 19L0 19L0 23L2 23L2 22L4 22L4 23L3 23L3 26L1 26L1 25L2 25L2 24L1 24L1 25L0 25L0 26L1 26L1 27L0 27L0 33L1 33L1 30L2 30L2 27L3 27L3 31L2 31L2 32L3 32L3 31L4 31L4 33L5 33L5 31L7 31L7 30L6 30L6 29L7 29L7 28L8 28L8 31L9 31L9 29L12 29L12 28L11 28L11 27L13 27L13 29L14 29L14 30L15 30L15 29L16 29L16 31L14 31L14 32L13 32L13 33L12 33L12 34L13 34L13 35L11 35L11 34L10 34L10 35L9 35L9 36L8 36L8 39L9 39L9 41L10 41L10 38L12 38L12 40L11 40L11 41L17 41L17 40L18 40L18 41L26 41L26 40L23 40L23 37L24 37L24 39L25 39L25 38L26 38L26 39L27 39L27 40L28 40L28 41L32 41L32 40L33 40L33 41L34 41L34 40L33 40L33 39L32 39L32 38L34 38L34 39L35 39L35 40L36 40L36 39L37 39L37 37L39 37L39 38L38 38L38 39L39 39L39 40L40 40L40 38L41 38L41 37L40 37L40 36L41 36L41 35L40 35L40 34L41 34L41 33L39 33L39 32L38 32L38 30L37 30L37 29L36 29L36 28L35 28L35 27L37 27L37 28L38 28L38 26L39 26L39 31L40 31L40 30L41 30L41 29L40 29L40 28L41 28L41 27L40 27L40 26L41 26L41 23L40 23L40 26L39 26L39 24L37 24L37 25L34 25L34 24L36 24L36 23L34 23L34 22L36 22L36 21L39 21L39 20L36 20L36 19L35 19L35 17L36 17L36 18L37 18L37 19L40 19L40 18L41 18L41 16L40 16L40 18L37 18L37 17L39 17L39 16L37 16L37 15L35 15L35 17L34 17L34 16L33 16L33 15L34 15L34 14L33 14L33 13L34 13L34 12L33 12L33 13L32 13L32 12L29 12L29 11L28 11L28 10L29 10L29 9L31 9L31 10L30 10L30 11L31 11L31 10L32 10L32 11L34 11L34 10L35 10L35 9L36 9L36 10L37 10L37 11L36 11L36 12L38 12L38 11L39 11L39 13L40 13L40 14L38 14L38 15L40 15L40 14L41 14L41 13L40 13L40 10L41 10L41 8L38 8L38 9L40 9L40 10L37 10L37 9L36 9L36 8L32 8L32 7L33 7L33 6L32 6L32 7L31 7L31 5L33 5L33 4L31 4L31 3L32 3L32 2L31 2L31 1L32 1L32 0L31 0L31 1L30 1L30 2L31 2L31 3L30 3L30 4L31 4L31 5L30 5L30 7L31 7L31 8L29 8L29 9L28 9L28 10L27 10L27 9L25 9L25 11L24 11L24 12L25 12L25 13L26 13L26 12L27 12L27 14L25 14L25 16L26 16L26 17L25 17L25 19L24 19L24 20L23 20L23 21L20 21L20 20L19 20L19 19L20 19L20 17L19 17L19 16L18 16L18 15L17 15L17 14L19 14L19 15L21 15L21 16L22 16L22 17L24 17L24 15L23 15L23 14L24 14L24 13L23 13L23 6L24 6L24 8L25 8L25 6L26 6L26 7L27 7L27 8L28 8L28 7L29 7L29 4L28 4L28 5L26 5L26 4L27 4L27 3L29 3L29 1L27 1L27 0L25 0L25 1L24 1L24 2L23 2L23 1L22 1L22 2L23 2L23 3L22 3L22 4L21 4L21 3L19 3L19 2L21 2L21 0L19 0L19 1L17 1L17 2L18 2L18 3L16 3L16 2L14 2L14 4L15 4L15 5L16 5L16 4L19 4L19 5L20 5L20 9L21 9L21 10L20 10L20 11L19 11L19 6L18 6L18 5L17 5L17 6L16 6L16 7L15 7L15 6L14 6L14 5L13 5L13 4L12 4L12 5L11 5L11 4L10 4L10 3L11 3L11 1L10 1L10 2L9 2L9 0ZM12 0L12 1L13 1L13 0ZM14 0L14 1L16 1L16 0ZM12 2L12 3L13 3L13 2ZM26 2L26 3L25 3L25 4L23 4L23 5L22 5L22 6L21 6L21 7L22 7L22 6L23 6L23 5L24 5L24 6L25 6L25 4L26 4L26 3L27 3L27 2ZM20 4L20 5L21 5L21 4ZM8 5L8 9L9 9L9 5ZM11 6L11 7L12 7L12 8L11 8L11 9L12 9L12 10L13 10L13 12L12 12L12 11L11 11L11 10L10 10L10 11L8 11L8 13L6 13L6 14L8 14L8 13L9 13L9 12L10 12L10 13L11 13L11 14L10 14L10 15L11 15L11 14L12 14L12 13L14 13L14 11L17 11L17 12L15 12L15 13L16 13L16 14L13 14L13 15L12 15L12 17L14 17L14 18L15 18L15 19L14 19L14 20L12 20L12 18L8 18L8 20L9 20L9 19L10 19L10 20L11 20L11 21L10 21L10 23L11 23L11 24L10 24L10 27L9 27L9 26L8 26L8 27L9 27L9 28L10 28L10 27L11 27L11 26L13 26L13 27L14 27L14 26L15 26L15 28L14 28L14 29L15 29L15 28L18 28L18 27L19 27L19 25L18 25L18 27L16 27L16 26L17 26L17 24L16 24L16 22L12 22L12 23L11 23L11 21L15 21L15 20L16 20L16 21L17 21L17 16L16 16L16 17L14 17L14 16L15 16L15 15L16 15L16 14L17 14L17 13L18 13L18 12L19 12L19 14L21 14L21 15L22 15L22 16L23 16L23 15L22 15L22 14L23 14L23 13L22 13L22 10L21 10L21 12L19 12L19 11L17 11L17 10L18 10L18 6L17 6L17 7L16 7L16 8L15 8L15 9L16 9L16 8L17 8L17 10L14 10L14 9L13 9L13 8L14 8L14 6L13 6L13 7L12 7L12 6ZM27 6L27 7L28 7L28 6ZM31 8L31 9L32 9L32 10L34 10L34 9L32 9L32 8ZM10 11L10 12L11 12L11 11ZM21 13L21 14L22 14L22 13ZM28 13L28 14L30 14L30 13ZM31 13L31 14L32 14L32 15L33 15L33 14L32 14L32 13ZM36 13L36 14L37 14L37 13ZM26 15L26 16L27 16L27 15ZM28 15L28 17L27 17L27 18L26 18L26 19L25 19L25 20L24 20L24 22L23 22L23 23L22 23L22 22L20 22L20 21L19 21L19 20L18 20L18 22L17 22L17 23L18 23L18 24L21 24L21 26L20 26L20 29L19 29L19 30L18 30L18 29L17 29L17 32L16 32L16 33L15 33L15 32L14 32L14 34L16 34L16 35L13 35L13 37L12 37L12 38L15 38L15 39L13 39L13 40L15 40L15 39L16 39L16 40L17 40L17 39L16 39L16 38L17 38L17 37L16 37L16 35L17 35L17 36L18 36L18 34L16 34L16 33L17 33L17 32L18 32L18 33L21 33L21 34L22 34L22 33L21 33L21 32L23 32L23 33L24 33L24 35L23 35L23 36L24 36L24 37L25 37L25 35L27 35L27 34L28 34L28 37L26 37L26 38L28 38L28 40L32 40L32 39L29 39L29 38L31 38L31 37L32 37L32 35L30 35L30 34L31 34L31 33L32 33L32 32L35 32L35 31L36 31L36 29L34 29L34 28L33 28L33 27L34 27L34 25L32 25L32 24L33 24L33 23L32 23L32 22L30 22L30 21L33 21L33 22L34 22L34 21L36 21L36 20L35 20L35 19L34 19L34 18L33 18L33 20L32 20L32 18L31 18L31 17L30 17L30 19L31 19L31 20L29 20L29 16L30 16L30 15ZM32 16L32 17L33 17L33 16ZM36 16L36 17L37 17L37 16ZM21 18L21 20L22 20L22 19L23 19L23 18ZM27 18L27 19L26 19L26 20L25 20L25 21L29 21L29 20L27 20L27 19L28 19L28 18ZM33 20L33 21L34 21L34 20ZM40 20L40 21L41 21L41 20ZM1 21L1 22L2 22L2 21ZM19 22L19 23L20 23L20 22ZM26 22L26 24L25 24L25 23L23 23L23 25L24 25L24 26L25 26L25 27L28 27L28 28L24 28L24 29L26 29L26 31L27 31L27 30L29 30L29 31L28 31L28 33L31 33L31 32L29 32L29 31L31 31L31 30L29 30L29 29L33 29L33 30L32 30L32 31L33 31L33 30L34 30L34 31L35 31L35 30L34 30L34 29L33 29L33 28L29 28L29 26L30 26L30 25L31 25L31 26L32 26L32 25L31 25L31 24L32 24L32 23L31 23L31 24L29 24L29 23L28 23L28 22ZM37 22L37 23L39 23L39 22ZM4 23L4 26L3 26L3 27L4 27L4 26L5 26L5 23ZM6 23L6 24L7 24L7 25L6 25L6 26L7 26L7 25L8 25L8 24L7 24L7 23ZM12 23L12 24L11 24L11 25L12 25L12 24L13 24L13 26L14 26L14 25L15 25L15 23ZM21 23L21 24L22 24L22 23ZM27 23L27 24L28 24L28 23ZM26 25L26 26L29 26L29 25ZM5 27L5 28L7 28L7 27ZM21 27L21 29L20 29L20 30L19 30L19 31L20 31L20 32L21 32L21 31L22 31L22 30L23 30L23 29L22 29L22 28L23 28L23 27ZM28 28L28 29L29 29L29 28ZM4 29L4 31L5 31L5 29ZM10 30L10 31L11 31L11 32L12 32L12 31L11 31L11 30ZM24 30L24 31L23 31L23 32L24 32L24 33L26 33L26 32L25 32L25 30ZM6 32L6 33L7 33L7 32ZM8 32L8 34L9 34L9 32ZM37 32L37 33L38 33L38 34L37 34L37 36L40 36L40 35L38 35L38 34L39 34L39 33L38 33L38 32ZM33 33L33 36L36 36L36 33ZM34 34L34 35L35 35L35 34ZM19 35L19 36L20 36L20 37L18 37L18 38L19 38L19 39L18 39L18 40L19 40L19 39L20 39L20 40L21 40L21 39L22 39L22 35L21 35L21 36L20 36L20 35ZM10 36L10 37L11 37L11 36ZM14 36L14 37L15 37L15 36ZM30 36L30 37L31 37L31 36ZM20 37L20 38L21 38L21 37ZM28 37L28 38L29 38L29 37ZM34 37L34 38L36 38L36 37ZM0 0L0 7L7 7L7 0ZM1 1L1 6L6 6L6 1ZM2 2L2 5L5 5L5 2ZM34 0L34 7L41 7L41 0ZM35 1L35 6L40 6L40 1ZM36 2L36 5L39 5L39 2ZM0 34L0 41L7 41L7 34ZM1 35L1 40L6 40L6 35ZM2 36L2 39L5 39L5 36Z" fill="#000000"/></g></g></svg>
