<?xml version="1.0" encoding="UTF-8"?>
<svg xmlns="http://www.w3.org/2000/svg" version="1.1" width="200" height="200" viewBox="0 0 200 200"><rect x="0" y="0" width="200" height="200" fill="#ffffff"/><g transform="scale(4.878)"><g transform="translate(0,0)"><path fill-rule="evenodd" d="M8 0L8 3L9 3L9 5L8 5L8 9L7 9L7 8L6 8L6 9L7 9L7 10L4 10L4 9L5 9L5 8L2 8L2 9L1 9L1 11L0 11L0 16L2 16L2 17L1 17L1 18L2 18L2 19L3 19L3 18L4 18L4 19L5 19L5 20L6 20L6 21L7 21L7 22L6 22L6 23L7 23L7 24L4 24L4 22L3 22L3 21L4 21L4 20L3 20L3 21L2 21L2 20L1 20L1 22L0 22L0 27L2 27L2 28L1 28L1 29L0 29L0 33L1 33L1 29L3 29L3 30L2 30L2 33L3 33L3 30L4 30L4 33L8 33L8 34L11 34L11 31L12 31L12 34L13 34L13 32L14 32L14 30L8 30L8 29L9 29L9 28L10 28L10 25L13 25L13 26L12 26L12 27L11 27L11 29L12 29L12 28L13 28L13 29L18 29L18 30L16 30L16 31L18 31L18 30L19 30L19 29L21 29L21 30L22 30L22 31L20 31L20 32L19 32L19 34L18 34L18 32L17 32L17 33L16 33L16 32L15 32L15 33L14 33L14 35L12 35L12 36L15 36L15 37L12 37L12 38L10 38L10 39L11 39L11 40L9 40L9 41L12 41L12 40L13 40L13 39L14 39L14 40L15 40L15 39L14 39L14 38L16 38L16 39L17 39L17 41L19 41L19 40L20 40L20 39L21 39L21 40L22 40L22 41L25 41L25 39L26 39L26 38L25 38L25 36L26 36L26 37L29 37L29 36L31 36L31 35L32 35L32 37L33 37L33 38L32 38L32 39L31 39L31 37L30 37L30 38L27 38L27 40L26 40L26 41L31 41L31 40L33 40L33 41L34 41L34 40L33 40L33 38L34 38L34 39L35 39L35 40L36 40L36 39L37 39L37 40L40 40L40 38L41 38L41 36L37 36L37 34L38 34L38 35L40 35L40 34L41 34L41 32L37 32L37 31L36 31L36 30L37 30L37 29L35 29L35 30L34 30L34 31L36 31L36 32L33 32L33 31L32 31L32 30L33 30L33 29L34 29L34 28L33 28L33 29L32 29L32 28L31 28L31 29L30 29L30 28L27 28L27 27L28 27L28 26L27 26L27 24L28 24L28 25L29 25L29 26L32 26L32 25L34 25L34 26L33 26L33 27L34 27L34 26L35 26L35 27L37 27L37 28L38 28L38 26L39 26L39 27L40 27L40 26L41 26L41 23L39 23L39 22L38 22L38 23L39 23L39 24L40 24L40 26L39 26L39 25L36 25L36 24L37 24L37 21L39 21L39 20L36 20L36 19L35 19L35 17L36 17L36 18L38 18L38 19L40 19L40 18L41 18L41 16L40 16L40 18L38 18L38 17L39 17L39 16L37 16L37 13L36 13L36 14L35 14L35 17L34 17L34 16L32 16L32 17L31 17L31 11L30 11L30 12L29 12L29 10L27 10L27 9L30 9L30 10L32 10L32 9L34 9L34 11L32 11L32 13L33 13L33 14L32 14L32 15L34 15L34 13L35 13L35 11L36 11L36 12L38 12L38 11L39 11L39 13L40 13L40 14L39 14L39 15L40 15L40 14L41 14L41 12L40 12L40 10L41 10L41 8L38 8L38 9L40 9L40 10L37 10L37 9L36 9L36 8L32 8L32 9L30 9L30 8L29 8L29 6L28 6L28 5L27 5L27 4L25 4L25 2L24 2L24 3L23 3L23 2L22 2L22 3L23 3L23 4L19 4L19 5L18 5L18 7L17 7L17 6L16 6L16 7L17 7L17 8L15 8L15 6L14 6L14 7L13 7L13 4L12 4L12 3L13 3L13 2L14 2L14 4L15 4L15 5L16 5L16 4L15 4L15 3L16 3L16 1L17 1L17 4L18 4L18 2L19 2L19 3L21 3L21 2L20 2L20 1L22 1L22 0L20 0L20 1L18 1L18 0L15 0L15 1L14 1L14 0L13 0L13 1L12 1L12 0L10 0L10 1L11 1L11 2L10 2L10 3L9 3L9 0ZM26 0L26 1L27 1L27 2L26 2L26 3L28 3L28 4L29 4L29 3L31 3L31 2L30 2L30 0L29 0L29 1L27 1L27 0ZM31 0L31 1L32 1L32 0ZM11 2L11 3L10 3L10 4L11 4L11 3L12 3L12 2ZM32 2L32 3L33 3L33 2ZM23 4L23 5L24 5L24 6L23 6L23 8L24 8L24 9L25 9L25 10L26 10L26 8L28 8L28 6L27 6L27 7L26 7L26 5L24 5L24 4ZM30 4L30 7L31 7L31 5L32 5L32 7L33 7L33 4ZM19 5L19 9L17 9L17 10L15 10L15 11L17 11L17 12L14 12L14 13L13 13L13 12L12 12L12 11L13 11L13 10L14 10L14 8L12 8L12 11L11 11L11 10L10 10L10 9L11 9L11 7L12 7L12 6L11 6L11 7L10 7L10 6L9 6L9 10L7 10L7 11L6 11L6 12L7 12L7 13L6 13L6 14L5 14L5 17L4 17L4 16L3 16L3 17L4 17L4 18L5 18L5 19L6 19L6 20L8 20L8 21L9 21L9 20L8 20L8 18L7 18L7 17L6 17L6 16L9 16L9 17L10 17L10 18L11 18L11 20L10 20L10 21L11 21L11 22L8 22L8 24L7 24L7 25L5 25L5 26L4 26L4 25L2 25L2 24L1 24L1 25L2 25L2 26L3 26L3 29L4 29L4 30L7 30L7 29L8 29L8 28L7 28L7 27L6 27L6 26L7 26L7 25L8 25L8 27L9 27L9 24L12 24L12 23L14 23L14 24L13 24L13 25L14 25L14 24L15 24L15 26L14 26L14 27L13 27L13 28L14 28L14 27L16 27L16 26L18 26L18 27L17 27L17 28L20 28L20 27L22 27L22 28L21 28L21 29L22 29L22 30L24 30L24 29L23 29L23 28L25 28L25 29L27 29L27 28L25 28L25 27L27 27L27 26L26 26L26 24L25 24L25 23L26 23L26 22L28 22L28 24L30 24L30 25L32 25L32 24L33 24L33 23L32 23L32 22L34 22L34 23L35 23L35 24L34 24L34 25L35 25L35 26L36 26L36 25L35 25L35 24L36 24L36 23L35 23L35 22L36 22L36 21L35 21L35 19L34 19L34 18L33 18L33 17L32 17L32 18L31 18L31 17L29 17L29 16L30 16L30 14L26 14L26 13L25 13L25 14L24 14L24 15L25 15L25 16L24 16L24 17L23 17L23 13L24 13L24 12L27 12L27 11L24 11L24 10L20 10L20 11L22 11L22 12L19 12L19 14L18 14L18 15L19 15L19 16L20 16L20 15L19 15L19 14L20 14L20 13L22 13L22 14L21 14L21 20L23 20L23 21L22 21L22 24L23 24L23 25L22 25L22 26L20 26L20 27L19 27L19 23L18 23L18 24L17 24L17 23L16 23L16 24L15 24L15 23L14 23L14 22L13 22L13 21L11 21L11 20L13 20L13 19L14 19L14 18L15 18L15 20L17 20L17 21L15 21L15 22L17 22L17 21L19 21L19 22L20 22L20 25L21 25L21 22L20 22L20 20L17 20L17 19L19 19L19 18L20 18L20 17L18 17L18 16L17 16L17 14L15 14L15 13L18 13L18 11L19 11L19 9L21 9L21 8L20 8L20 6L21 6L21 7L22 7L22 5ZM24 6L24 7L25 7L25 8L26 8L26 7L25 7L25 6ZM35 9L35 10L36 10L36 9ZM1 11L1 15L3 15L3 14L4 14L4 13L2 13L2 11ZM3 11L3 12L5 12L5 11ZM7 11L7 12L8 12L8 14L6 14L6 15L8 15L8 14L9 14L9 15L10 15L10 14L9 14L9 12L10 12L10 13L12 13L12 12L10 12L10 11L9 11L9 12L8 12L8 11ZM28 12L28 13L29 13L29 12ZM33 12L33 13L34 13L34 12ZM11 14L11 15L12 15L12 14ZM14 14L14 17L13 17L13 16L12 16L12 17L11 17L11 18L12 18L12 17L13 17L13 18L14 18L14 17L17 17L17 18L16 18L16 19L17 19L17 18L18 18L18 17L17 17L17 16L16 16L16 15L15 15L15 14ZM25 14L25 15L26 15L26 17L27 17L27 15L26 15L26 14ZM28 15L28 16L29 16L29 15ZM36 16L36 17L37 17L37 16ZM22 17L22 19L23 19L23 17ZM24 17L24 18L25 18L25 17ZM6 18L6 19L7 19L7 18ZM27 18L27 19L26 19L26 20L25 20L25 19L24 19L24 21L25 21L25 22L24 22L24 23L25 23L25 22L26 22L26 21L28 21L28 22L29 22L29 21L28 21L28 18ZM30 18L30 19L31 19L31 20L30 20L30 21L31 21L31 22L30 22L30 23L31 23L31 24L32 24L32 23L31 23L31 22L32 22L32 21L34 21L34 22L35 22L35 21L34 21L34 20L33 20L33 18L32 18L32 19L31 19L31 18ZM31 20L31 21L32 21L32 20ZM40 20L40 21L41 21L41 20ZM1 22L1 23L2 23L2 22ZM11 22L11 23L12 23L12 22ZM16 24L16 25L17 25L17 24ZM23 25L23 26L24 26L24 27L25 27L25 25ZM5 27L5 28L4 28L4 29L5 29L5 28L6 28L6 29L7 29L7 28L6 28L6 27ZM39 28L39 31L40 31L40 30L41 30L41 28ZM28 29L28 30L30 30L30 31L28 31L28 32L30 32L30 33L31 33L31 30L32 30L32 29L31 29L31 30L30 30L30 29ZM6 31L6 32L8 32L8 33L10 33L10 31L9 31L9 32L8 32L8 31ZM24 31L24 32L23 32L23 33L24 33L24 34L25 34L25 35L26 35L26 36L27 36L27 34L29 34L29 33L27 33L27 32L25 32L25 31ZM25 33L25 34L27 34L27 33ZM33 33L33 36L36 36L36 33ZM38 33L38 34L39 34L39 33ZM19 34L19 35L20 35L20 36L18 36L18 35L17 35L17 36L18 36L18 37L16 37L16 38L18 38L18 40L19 40L19 38L21 38L21 39L22 39L22 38L23 38L23 40L24 40L24 39L25 39L25 38L24 38L24 37L20 37L20 36L24 36L24 35L22 35L22 34L21 34L21 35L20 35L20 34ZM30 34L30 35L31 35L31 34ZM34 34L34 35L35 35L35 34ZM10 35L10 36L8 36L8 39L9 39L9 37L11 37L11 35ZM28 35L28 36L29 36L29 35ZM34 37L34 38L36 38L36 37ZM37 38L37 39L38 39L38 38ZM28 39L28 40L31 40L31 39ZM0 0L0 7L7 7L7 0ZM1 1L1 6L6 6L6 1ZM2 2L2 5L5 5L5 2ZM34 0L34 7L41 7L41 0ZM35 1L35 6L40 6L40 1ZM36 2L36 5L39 5L39 2ZM0 34L0 41L7 41L7 34ZM1 35L1 40L6 40L6 35ZM2 36L2 39L5 39L5 36Z" fill="#000000"/></g></g></svg>
