<?xml version="1.0" encoding="UTF-8"?>
<svg xmlns="http://www.w3.org/2000/svg" version="1.1" width="200" height="200" viewBox="0 0 200 200"><rect x="0" y="0" width="200" height="200" fill="#ffffff"/><g transform="scale(4.878)"><g transform="translate(0,0)"><path fill-rule="evenodd" d="M8 0L8 3L9 3L9 4L10 4L10 5L8 5L8 9L9 9L9 10L8 10L8 13L7 13L7 12L6 12L6 11L7 11L7 10L6 10L6 11L5 11L5 12L4 12L4 11L3 11L3 10L4 10L4 9L5 9L5 8L2 8L2 9L0 9L0 12L1 12L1 11L3 11L3 12L4 12L4 13L0 13L0 14L2 14L2 15L5 15L5 14L6 14L6 15L7 15L7 14L8 14L8 16L4 16L4 17L3 17L3 18L2 18L2 17L1 17L1 18L2 18L2 20L5 20L5 21L2 21L2 22L5 22L5 23L7 23L7 22L8 22L8 23L9 23L9 24L10 24L10 23L11 23L11 24L12 24L12 22L8 22L8 20L9 20L9 19L11 19L11 20L10 20L10 21L11 21L11 20L13 20L13 19L11 19L11 18L14 18L14 21L15 21L15 22L14 22L14 23L15 23L15 22L16 22L16 24L15 24L15 25L14 25L14 24L13 24L13 25L12 25L12 27L14 27L14 28L15 28L15 26L16 26L16 30L15 30L15 29L14 29L14 31L16 31L16 32L13 32L13 31L12 31L12 30L13 30L13 29L12 29L12 28L9 28L9 30L8 30L8 29L7 29L7 28L8 28L8 27L7 27L7 26L6 26L6 27L5 27L5 28L4 28L4 29L2 29L2 30L4 30L4 29L5 29L5 33L8 33L8 34L9 34L9 35L10 35L10 37L9 37L9 36L8 36L8 39L9 39L9 41L12 41L12 40L13 40L13 41L15 41L15 40L14 40L14 39L12 39L12 40L10 40L10 39L9 39L9 38L12 38L12 36L14 36L14 37L13 37L13 38L15 38L15 39L16 39L16 38L17 38L17 36L16 36L16 35L18 35L18 36L19 36L19 37L20 37L20 36L19 36L19 35L18 35L18 32L17 32L17 31L16 31L16 30L17 30L17 28L18 28L18 29L19 29L19 30L18 30L18 31L19 31L19 30L20 30L20 29L21 29L21 33L20 33L20 34L22 34L22 33L23 33L23 34L25 34L25 33L24 33L24 32L22 32L22 31L25 31L25 32L26 32L26 31L27 31L27 33L29 33L29 35L28 35L28 34L26 34L26 35L28 35L28 36L27 36L27 37L28 37L28 38L26 38L26 40L23 40L23 41L26 41L26 40L27 40L27 41L31 41L31 40L33 40L33 41L34 41L34 40L33 40L33 39L32 39L32 37L33 37L33 38L34 38L34 39L35 39L35 40L36 40L36 39L37 39L37 40L40 40L40 38L41 38L41 36L40 36L40 34L41 34L41 33L40 33L40 32L41 32L41 31L40 31L40 30L41 30L41 28L40 28L40 26L41 26L41 23L39 23L39 24L40 24L40 26L39 26L39 25L33 25L33 24L32 24L32 25L30 25L30 24L31 24L31 22L32 22L32 23L33 23L33 22L32 22L32 21L34 21L34 22L35 22L35 23L34 23L34 24L35 24L35 23L36 23L36 24L37 24L37 23L38 23L38 21L39 21L39 20L36 20L36 19L35 19L35 17L36 17L36 18L37 18L37 19L38 19L38 18L37 18L37 17L39 17L39 18L41 18L41 16L40 16L40 17L39 17L39 16L37 16L37 17L36 17L36 16L35 16L35 17L34 17L34 16L32 16L32 17L30 17L30 16L29 16L29 15L30 15L30 14L31 14L31 13L33 13L33 14L32 14L32 15L34 15L34 13L35 13L35 9L36 9L36 10L37 10L37 11L36 11L36 12L38 12L38 11L39 11L39 12L41 12L41 11L40 11L40 10L41 10L41 8L38 8L38 9L40 9L40 10L37 10L37 9L36 9L36 8L33 8L33 4L32 4L32 3L31 3L31 2L30 2L30 0L29 0L29 1L27 1L27 0L26 0L26 1L27 1L27 2L26 2L26 3L31 3L31 4L28 4L28 5L27 5L27 4L25 4L25 0L24 0L24 1L23 1L23 0L22 0L22 1L21 1L21 2L24 2L24 3L20 3L20 2L19 2L19 3L18 3L18 0L16 0L16 2L17 2L17 3L18 3L18 4L16 4L16 3L15 3L15 0L13 0L13 1L12 1L12 3L10 3L10 2L11 2L11 1L10 1L10 0ZM31 0L31 1L32 1L32 0ZM12 3L12 4L11 4L11 5L10 5L10 6L9 6L9 9L10 9L10 10L9 10L9 13L8 13L8 14L9 14L9 13L10 13L10 15L9 15L9 16L8 16L8 17L4 17L4 18L3 18L3 19L5 19L5 18L7 18L7 19L6 19L6 20L7 20L7 19L9 19L9 18L10 18L10 17L11 17L11 15L12 15L12 17L15 17L15 21L16 21L16 22L18 22L18 23L17 23L17 25L16 25L16 26L17 26L17 27L18 27L18 28L19 28L19 29L20 29L20 24L19 24L19 23L20 23L20 22L19 22L19 20L20 20L20 21L21 21L21 23L22 23L22 24L21 24L21 27L22 27L22 28L21 28L21 29L22 29L22 28L23 28L23 29L25 29L25 30L26 30L26 29L25 29L25 28L23 28L23 27L24 27L24 26L23 26L23 25L22 25L22 24L23 24L23 22L24 22L24 21L25 21L25 23L26 23L26 24L24 24L24 25L25 25L25 26L29 26L29 28L30 28L30 29L28 29L28 30L29 30L29 31L28 31L28 32L30 32L30 33L31 33L31 34L30 34L30 35L31 35L31 34L32 34L32 33L31 33L31 32L30 32L30 31L31 31L31 30L32 30L32 31L33 31L33 32L35 32L35 31L36 31L36 29L37 29L37 30L39 30L39 26L38 26L38 28L36 28L36 27L37 27L37 26L34 26L34 27L33 27L33 25L32 25L32 26L29 26L29 25L26 25L26 24L27 24L27 23L26 23L26 22L28 22L28 23L29 23L29 24L30 24L30 23L29 23L29 22L31 22L31 21L32 21L32 19L33 19L33 20L34 20L34 21L35 21L35 22L36 22L36 21L35 21L35 19L34 19L34 18L33 18L33 17L32 17L32 18L31 18L31 19L30 19L30 17L29 17L29 16L28 16L28 15L29 15L29 14L30 14L30 13L29 13L29 12L33 12L33 13L34 13L34 12L33 12L33 11L34 11L34 9L32 9L32 5L31 5L31 9L27 9L27 7L28 7L28 8L30 8L30 5L29 5L29 7L28 7L28 6L27 6L27 7L26 7L26 5L25 5L25 7L24 7L24 6L23 6L23 5L24 5L24 4L20 4L20 5L17 5L17 7L18 7L18 8L17 8L17 9L19 9L19 8L20 8L20 11L18 11L18 13L19 13L19 14L20 14L20 15L19 15L19 16L20 16L20 18L22 18L22 14L21 14L21 13L22 13L22 12L23 12L23 10L22 10L22 8L20 8L20 5L22 5L22 6L21 6L21 7L22 7L22 6L23 6L23 7L24 7L24 8L25 8L25 9L24 9L24 13L25 13L25 15L24 15L24 14L23 14L23 15L24 15L24 16L26 16L26 18L28 18L28 19L29 19L29 20L28 20L28 21L26 21L26 19L25 19L25 18L24 18L24 17L23 17L23 18L24 18L24 19L23 19L23 20L22 20L22 21L21 21L21 20L20 20L20 19L19 19L19 17L17 17L17 16L15 16L15 15L14 15L14 16L13 16L13 14L15 14L15 13L17 13L17 11L16 11L16 10L15 10L15 9L16 9L16 6L15 6L15 5L16 5L16 4L15 4L15 3ZM12 4L12 5L11 5L11 6L10 6L10 7L11 7L11 6L12 6L12 8L10 8L10 9L13 9L13 5L14 5L14 4ZM14 6L14 7L15 7L15 6ZM18 6L18 7L19 7L19 6ZM6 8L6 9L7 9L7 8ZM14 8L14 9L15 9L15 8ZM31 9L31 10L26 10L26 11L27 11L27 12L28 12L28 11L31 11L31 10L32 10L32 9ZM10 10L10 11L11 11L11 10ZM12 10L12 12L11 12L11 13L13 13L13 12L16 12L16 11L15 11L15 10L14 10L14 11L13 11L13 10ZM21 10L21 11L20 11L20 12L19 12L19 13L21 13L21 12L22 12L22 10ZM5 12L5 13L4 13L4 14L5 14L5 13L6 13L6 14L7 14L7 13L6 13L6 12ZM26 13L26 14L29 14L29 13ZM36 13L36 14L35 14L35 15L37 15L37 13ZM40 13L40 14L38 14L38 15L40 15L40 14L41 14L41 13ZM17 14L17 15L18 15L18 14ZM20 15L20 16L21 16L21 15ZM26 15L26 16L27 16L27 15ZM8 17L8 18L9 18L9 17ZM16 17L16 18L17 18L17 17ZM0 19L0 20L1 20L1 19ZM16 19L16 21L17 21L17 20L19 20L19 19ZM24 19L24 20L23 20L23 21L22 21L22 22L23 22L23 21L24 21L24 20L25 20L25 19ZM30 20L30 21L31 21L31 20ZM40 20L40 21L41 21L41 20ZM6 21L6 22L7 22L7 21ZM28 21L28 22L29 22L29 21ZM2 23L2 24L4 24L4 25L3 25L3 27L4 27L4 26L5 26L5 24L4 24L4 23ZM0 24L0 26L2 26L2 25L1 25L1 24ZM6 24L6 25L7 25L7 24ZM8 25L8 26L9 26L9 27L10 27L10 26L11 26L11 25L10 25L10 26L9 26L9 25ZM17 25L17 26L19 26L19 25ZM22 26L22 27L23 27L23 26ZM0 27L0 33L1 33L1 28L2 28L2 27ZM6 27L6 28L5 28L5 29L6 29L6 30L7 30L7 31L6 31L6 32L8 32L8 33L10 33L10 35L16 35L16 34L17 34L17 33L14 33L14 34L13 34L13 33L12 33L12 32L11 32L11 33L10 33L10 31L11 31L11 29L10 29L10 31L8 31L8 30L7 30L7 29L6 29L6 28L7 28L7 27ZM26 27L26 28L27 28L27 27ZM33 28L33 29L32 29L32 30L33 30L33 29L34 29L34 28ZM35 28L35 29L36 29L36 28ZM30 29L30 30L31 30L31 29ZM34 30L34 31L35 31L35 30ZM38 31L38 32L37 32L37 36L39 36L39 34L38 34L38 32L40 32L40 31ZM3 32L3 33L4 33L4 32ZM33 33L33 36L36 36L36 33ZM34 34L34 35L35 35L35 34ZM21 35L21 37L22 37L22 35ZM15 36L15 38L16 38L16 36ZM24 36L24 38L25 38L25 36ZM28 36L28 37L29 37L29 38L30 38L30 39L28 39L28 40L30 40L30 39L31 39L31 38L30 38L30 37L32 37L32 36ZM34 37L34 38L36 38L36 37ZM18 38L18 39L20 39L20 40L21 40L21 41L22 41L22 39L23 39L23 38ZM37 38L37 39L38 39L38 38ZM17 40L17 41L18 41L18 40ZM0 0L0 7L7 7L7 0ZM1 1L1 6L6 6L6 1ZM2 2L2 5L5 5L5 2ZM34 0L34 7L41 7L41 0ZM35 1L35 6L40 6L40 1ZM36 2L36 5L39 5L39 2ZM0 34L0 41L7 41L7 34ZM1 35L1 40L6 40L6 35ZM2 36L2 39L5 39L5 36Z" fill="#000000"/></g></g></svg>
