<?xml version="1.0" encoding="UTF-8"?>
<svg xmlns="http://www.w3.org/2000/svg" version="1.1" width="200" height="200" viewBox="0 0 200 200"><rect x="0" y="0" width="200" height="200" fill="#ffffff"/><g transform="scale(4.878)"><g transform="translate(0,0)"><path fill-rule="evenodd" d="M8 0L8 1L9 1L9 2L8 2L8 3L9 3L9 4L8 4L8 5L9 5L9 6L8 6L8 8L9 8L9 9L10 9L10 7L11 7L11 6L12 6L12 7L13 7L13 5L14 5L14 8L11 8L11 10L14 10L14 11L10 11L10 10L9 10L9 11L10 11L10 12L11 12L11 13L9 13L9 16L8 16L8 15L7 15L7 14L5 14L5 13L3 13L3 12L6 12L6 13L8 13L8 12L6 12L6 11L8 11L8 9L7 9L7 8L5 8L5 9L2 9L2 10L1 10L1 9L0 9L0 10L1 10L1 11L0 11L0 14L1 14L1 12L2 12L2 15L3 15L3 14L5 14L5 15L4 15L4 16L3 16L3 17L2 17L2 16L0 16L0 17L1 17L1 18L0 18L0 20L1 20L1 21L0 21L0 23L1 23L1 24L0 24L0 27L1 27L1 28L0 28L0 33L1 33L1 31L2 31L2 30L1 30L1 29L3 29L3 27L2 27L2 26L3 26L3 24L4 24L4 25L5 25L5 27L4 27L4 28L6 28L6 29L7 29L7 30L5 30L5 29L4 29L4 30L3 30L3 31L4 31L4 32L2 32L2 33L5 33L5 32L6 32L6 33L8 33L8 34L9 34L9 33L8 33L8 31L9 31L9 32L10 32L10 31L11 31L11 33L12 33L12 32L13 32L13 33L14 33L14 35L15 35L15 34L17 34L17 35L16 35L16 36L17 36L17 37L14 37L14 38L13 38L13 37L12 37L12 36L13 36L13 35L11 35L11 34L10 34L10 35L8 35L8 36L9 36L9 37L10 37L10 36L11 36L11 37L12 37L12 39L10 39L10 38L9 38L9 41L10 41L10 40L11 40L11 41L12 41L12 39L14 39L14 38L16 38L16 39L15 39L15 41L19 41L19 40L20 40L20 41L21 41L21 40L22 40L22 39L23 39L23 41L24 41L24 39L25 39L25 40L26 40L26 41L28 41L28 40L29 40L29 41L30 41L30 40L29 40L29 37L30 37L30 39L31 39L31 37L36 37L36 38L34 38L34 39L33 39L33 41L34 41L34 40L36 40L36 39L37 39L37 40L38 40L38 39L40 39L40 40L41 40L41 39L40 39L40 38L41 38L41 36L40 36L40 38L39 38L39 37L38 37L38 35L40 35L40 34L39 34L39 33L41 33L41 32L40 32L40 31L41 31L41 27L40 27L40 26L41 26L41 25L39 25L39 24L37 24L37 20L38 20L38 21L39 21L39 22L41 22L41 20L40 20L40 19L41 19L41 15L40 15L40 14L41 14L41 12L40 12L40 9L41 9L41 8L40 8L40 9L39 9L39 8L38 8L38 10L37 10L37 8L36 8L36 10L34 10L34 9L35 9L35 8L34 8L34 9L33 9L33 10L34 10L34 12L35 12L35 13L36 13L36 16L35 16L35 15L34 15L34 14L32 14L32 17L30 17L30 16L29 16L29 17L30 17L30 18L28 18L28 17L27 17L27 16L28 16L28 15L26 15L26 14L27 14L27 13L28 13L28 14L29 14L29 15L31 15L31 11L30 11L30 14L29 14L29 12L28 12L28 10L29 10L29 9L30 9L30 10L32 10L32 9L30 9L30 8L31 8L31 5L33 5L33 3L32 3L32 4L30 4L30 5L29 5L29 6L28 6L28 7L27 7L27 6L26 6L26 7L25 7L25 5L27 5L27 4L28 4L28 3L31 3L31 2L30 2L30 1L31 1L31 0L30 0L30 1L29 1L29 0L28 0L28 2L26 2L26 4L25 4L25 1L26 1L26 0L24 0L24 2L23 2L23 3L20 3L20 5L18 5L18 2L22 2L22 1L23 1L23 0L21 0L21 1L20 1L20 0L13 0L13 1L14 1L14 2L15 2L15 3L14 3L14 4L12 4L12 3L13 3L13 2L10 2L10 0ZM15 1L15 2L16 2L16 4L15 4L15 8L14 8L14 10L15 10L15 8L16 8L16 10L17 10L17 7L18 7L18 8L19 8L19 9L18 9L18 10L19 10L19 9L21 9L21 12L20 12L20 13L18 13L18 12L19 12L19 11L17 11L17 12L16 12L16 11L15 11L15 12L16 12L16 13L15 13L15 14L14 14L14 18L9 18L9 17L11 17L11 16L12 16L12 17L13 17L13 15L11 15L11 14L13 14L13 13L14 13L14 12L13 12L13 13L11 13L11 14L10 14L10 16L9 16L9 17L8 17L8 18L7 18L7 17L6 17L6 16L7 16L7 15L6 15L6 16L4 16L4 17L3 17L3 18L2 18L2 19L3 19L3 21L4 21L4 20L5 20L5 19L4 19L4 18L7 18L7 19L6 19L6 20L9 20L9 21L6 21L6 22L5 22L5 25L6 25L6 26L7 26L7 25L8 25L8 24L7 24L7 23L8 23L8 22L9 22L9 24L10 24L10 25L9 25L9 27L6 27L6 28L7 28L7 29L9 29L9 27L10 27L10 25L11 25L11 26L12 26L12 27L11 27L11 28L10 28L10 29L11 29L11 28L12 28L12 30L11 30L11 31L12 31L12 30L13 30L13 29L14 29L14 28L15 28L15 29L16 29L16 30L14 30L14 31L13 31L13 32L17 32L17 34L18 34L18 35L17 35L17 36L18 36L18 39L16 39L16 40L19 40L19 37L21 37L21 38L22 38L22 37L21 37L21 36L25 36L25 35L26 35L26 34L24 34L24 32L26 32L26 31L24 31L24 30L22 30L22 29L21 29L21 31L20 31L20 30L19 30L19 29L18 29L18 28L19 28L19 26L20 26L20 28L22 28L22 27L23 27L23 29L24 29L24 28L25 28L25 29L26 29L26 30L28 30L28 31L27 31L27 32L28 32L28 34L29 34L29 32L30 32L30 33L31 33L31 31L32 31L32 29L33 29L33 28L31 28L31 27L33 27L33 24L32 24L32 26L29 26L29 28L30 28L30 29L27 29L27 28L28 28L28 27L27 27L27 28L26 28L26 27L25 27L25 26L26 26L26 25L27 25L27 24L26 24L26 25L24 25L24 26L23 26L23 23L24 23L24 24L25 24L25 23L26 23L26 22L27 22L27 20L28 20L28 24L29 24L29 25L31 25L31 24L30 24L30 23L29 23L29 22L31 22L31 23L33 23L33 22L31 22L31 21L32 21L32 19L29 19L29 20L28 20L28 19L27 19L27 17L26 17L26 15L24 15L24 16L25 16L25 17L24 17L24 19L25 19L25 21L24 21L24 20L23 20L23 15L22 15L22 14L26 14L26 13L27 13L27 11L26 11L26 10L24 10L24 9L23 9L23 8L24 8L24 6L23 6L23 5L25 5L25 4L24 4L24 3L23 3L23 4L21 4L21 5L22 5L22 6L21 6L21 7L22 7L22 6L23 6L23 8L20 8L20 6L19 6L19 7L18 7L18 5L17 5L17 2L18 2L18 1L17 1L17 2L16 2L16 1ZM32 1L32 2L33 2L33 1ZM9 2L9 3L10 3L10 2ZM9 4L9 5L10 5L10 6L9 6L9 7L10 7L10 6L11 6L11 5L10 5L10 4ZM16 5L16 7L17 7L17 5ZM29 6L29 7L28 7L28 8L30 8L30 6ZM32 6L32 8L33 8L33 6ZM26 8L26 9L27 9L27 8ZM5 9L5 11L6 11L6 10L7 10L7 9ZM22 9L22 10L23 10L23 13L26 13L26 11L25 11L25 12L24 12L24 10L23 10L23 9ZM2 10L2 12L3 12L3 11L4 11L4 10ZM36 10L36 11L35 11L35 12L36 12L36 13L37 13L37 12L36 12L36 11L37 11L37 10ZM38 11L38 12L39 12L39 11ZM21 12L21 13L22 13L22 12ZM17 13L17 19L15 19L15 18L16 18L16 17L15 17L15 18L14 18L14 19L13 19L13 20L12 20L12 22L13 22L13 24L12 24L12 23L10 23L10 24L12 24L12 25L13 25L13 27L12 27L12 28L13 28L13 27L14 27L14 26L15 26L15 25L13 25L13 24L14 24L14 22L16 22L16 23L15 23L15 24L17 24L17 23L19 23L19 22L18 22L18 21L20 21L20 20L21 20L21 22L20 22L20 23L23 23L23 21L22 21L22 19L21 19L21 18L20 18L20 17L18 17L18 15L21 15L21 14L18 14L18 13ZM38 13L38 14L39 14L39 13ZM37 15L37 16L36 16L36 17L35 17L35 16L34 16L34 17L32 17L32 18L33 18L33 19L34 19L34 22L36 22L36 21L35 21L35 18L36 18L36 20L37 20L37 19L38 19L38 20L39 20L39 21L40 21L40 20L39 20L39 19L38 19L38 18L39 18L39 17L40 17L40 16L39 16L39 17L38 17L38 18L36 18L36 17L37 17L37 16L38 16L38 15ZM21 16L21 17L22 17L22 16ZM34 17L34 18L35 18L35 17ZM8 18L8 19L9 19L9 20L10 20L10 21L9 21L9 22L10 22L10 21L11 21L11 19L9 19L9 18ZM18 18L18 19L17 19L17 21L18 21L18 20L19 20L19 19L20 19L20 18ZM25 18L25 19L26 19L26 18ZM14 19L14 20L13 20L13 21L15 21L15 19ZM30 20L30 21L31 21L31 20ZM1 21L1 23L2 23L2 24L3 24L3 23L4 23L4 22L2 22L2 21ZM6 22L6 23L7 23L7 22ZM34 23L34 24L36 24L36 25L37 25L37 24L36 24L36 23ZM40 23L40 24L41 24L41 23ZM6 24L6 25L7 25L7 24ZM19 24L19 25L18 25L18 26L19 26L19 25L21 25L21 26L22 26L22 24ZM1 25L1 26L2 26L2 25ZM16 25L16 27L17 27L17 28L18 28L18 27L17 27L17 25ZM34 26L34 27L35 27L35 26ZM38 26L38 27L39 27L39 28L36 28L36 29L35 29L35 28L34 28L34 30L33 30L33 31L34 31L34 32L36 32L36 31L37 31L37 30L38 30L38 32L37 32L37 34L38 34L38 32L39 32L39 30L40 30L40 29L39 29L39 28L40 28L40 27L39 27L39 26ZM30 29L30 31L31 31L31 29ZM36 29L36 30L37 30L37 29ZM7 30L7 31L6 31L6 32L7 32L7 31L8 31L8 30ZM9 30L9 31L10 31L10 30ZM16 30L16 31L17 31L17 32L18 32L18 33L19 33L19 34L20 34L20 33L22 33L22 34L21 34L21 35L23 35L23 33L22 33L22 32L24 32L24 31L22 31L22 32L20 32L20 31L19 31L19 30L18 30L18 31L17 31L17 30ZM33 33L33 36L36 36L36 33ZM30 34L30 35L31 35L31 36L30 36L30 37L31 37L31 36L32 36L32 35L31 35L31 34ZM34 34L34 35L35 35L35 34ZM18 35L18 36L20 36L20 35ZM28 35L28 36L29 36L29 35ZM24 37L24 38L25 38L25 37ZM37 38L37 39L38 39L38 38ZM20 39L20 40L21 40L21 39ZM26 39L26 40L28 40L28 39ZM31 40L31 41L32 41L32 40ZM0 0L0 7L7 7L7 0ZM1 1L1 6L6 6L6 1ZM2 2L2 5L5 5L5 2ZM34 0L34 7L41 7L41 0ZM35 1L35 6L40 6L40 1ZM36 2L36 5L39 5L39 2ZM0 34L0 41L7 41L7 34ZM1 35L1 40L6 40L6 35ZM2 36L2 39L5 39L5 36Z" fill="#000000"/></g></g></svg>
