<?xml version="1.0" encoding="UTF-8"?>
<svg xmlns="http://www.w3.org/2000/svg" version="1.1" width="200" height="200" viewBox="0 0 200 200"><rect x="0" y="0" width="200" height="200" fill="#ffffff"/><g transform="scale(4.878)"><g transform="translate(0,0)"><path fill-rule="evenodd" d="M9 0L9 1L10 1L10 4L9 4L9 2L8 2L8 4L9 4L9 5L10 5L10 7L9 7L9 6L8 6L8 7L9 7L9 9L8 9L8 8L6 8L6 9L5 9L5 8L3 8L3 9L4 9L4 10L2 10L2 9L0 9L0 12L1 12L1 13L0 13L0 14L1 14L1 15L2 15L2 16L3 16L3 18L2 18L2 19L0 19L0 23L2 23L2 25L3 25L3 27L0 27L0 33L2 33L2 32L3 32L3 33L5 33L5 32L4 32L4 31L2 31L2 30L3 30L3 29L2 29L2 28L3 28L3 27L4 27L4 28L6 28L6 29L8 29L8 35L9 35L9 31L10 31L10 33L11 33L11 31L12 31L12 32L13 32L13 34L14 34L14 35L12 35L12 34L11 34L11 35L10 35L10 37L11 37L11 38L12 38L12 39L15 39L15 37L16 37L16 38L17 38L17 40L18 40L18 41L19 41L19 40L20 40L20 41L22 41L22 37L20 37L20 36L19 36L19 40L18 40L18 37L16 37L16 36L17 36L17 35L18 35L18 34L17 34L17 33L19 33L19 35L21 35L21 36L22 36L22 35L23 35L23 37L24 37L24 38L23 38L23 41L24 41L24 40L26 40L26 41L27 41L27 40L26 40L26 38L27 38L27 39L28 39L28 41L29 41L29 39L30 39L30 41L34 41L34 40L35 40L35 41L36 41L36 39L38 39L38 41L39 41L39 39L40 39L40 40L41 40L41 35L40 35L40 34L39 34L39 31L41 31L41 30L39 30L39 31L38 31L38 29L40 29L40 27L41 27L41 25L39 25L39 27L36 27L36 28L34 28L34 30L35 30L35 29L36 29L36 30L37 30L37 31L36 31L36 32L34 32L34 31L32 31L32 30L30 30L30 29L31 29L31 28L30 28L30 29L29 29L29 30L28 30L28 31L27 31L27 32L29 32L29 33L27 33L27 35L26 35L26 34L24 34L24 33L25 33L25 32L26 32L26 30L27 30L27 29L28 29L28 28L29 28L29 27L28 27L28 26L31 26L31 27L32 27L32 28L33 28L33 25L32 25L32 23L31 23L31 22L34 22L34 21L35 21L35 23L36 23L36 21L37 21L37 20L38 20L38 21L39 21L39 22L38 22L38 23L39 23L39 24L40 24L40 23L39 23L39 22L41 22L41 21L39 21L39 20L40 20L40 19L41 19L41 18L40 18L40 17L41 17L41 11L40 11L40 9L39 9L39 8L37 8L37 9L35 9L35 10L36 10L36 12L35 12L35 11L34 11L34 10L33 10L33 12L32 12L32 13L31 13L31 12L30 12L30 11L31 11L31 10L32 10L32 8L28 8L28 7L29 7L29 6L30 6L30 7L31 7L31 5L32 5L32 4L33 4L33 3L32 3L32 4L31 4L31 3L30 3L30 4L29 4L29 5L28 5L28 7L27 7L27 4L28 4L28 2L29 2L29 1L30 1L30 2L32 2L32 1L33 1L33 0L32 0L32 1L30 1L30 0L28 0L28 2L27 2L27 4L24 4L24 3L25 3L25 2L24 2L24 1L23 1L23 0L21 0L21 2L22 2L22 1L23 1L23 3L21 3L21 4L22 4L22 8L20 8L20 7L21 7L21 5L20 5L20 3L19 3L19 2L18 2L18 1L17 1L17 2L16 2L16 1L15 1L15 2L14 2L14 0L13 0L13 4L12 4L12 7L13 7L13 8L11 8L11 2L12 2L12 1L10 1L10 0ZM15 2L15 3L14 3L14 5L13 5L13 7L14 7L14 5L15 5L15 3L16 3L16 2ZM17 3L17 4L16 4L16 5L17 5L17 8L18 8L18 9L16 9L16 10L15 10L15 8L16 8L16 6L15 6L15 8L14 8L14 9L11 9L11 8L10 8L10 9L9 9L9 10L7 10L7 9L6 9L6 10L7 10L7 11L6 11L6 12L4 12L4 11L2 11L2 10L1 10L1 12L2 12L2 13L1 13L1 14L3 14L3 16L4 16L4 18L3 18L3 19L2 19L2 21L1 21L1 22L2 22L2 23L3 23L3 21L4 21L4 20L3 20L3 19L5 19L5 18L7 18L7 19L6 19L6 20L7 20L7 19L8 19L8 21L10 21L10 22L9 22L9 23L10 23L10 22L11 22L11 23L12 23L12 22L11 22L11 21L12 21L12 20L11 20L11 18L12 18L12 19L13 19L13 18L15 18L15 19L16 19L16 20L13 20L13 23L14 23L14 24L15 24L15 25L14 25L14 26L13 26L13 25L12 25L12 27L11 27L11 26L10 26L10 25L9 25L9 24L8 24L8 25L9 25L9 26L7 26L7 25L5 25L5 24L7 24L7 23L4 23L4 24L3 24L3 25L5 25L5 26L7 26L7 27L6 27L6 28L7 28L7 27L8 27L8 28L11 28L11 29L10 29L10 30L11 30L11 29L12 29L12 28L13 28L13 29L14 29L14 30L13 30L13 31L15 31L15 33L14 33L14 34L15 34L15 36L16 36L16 34L15 34L15 33L17 33L17 32L16 32L16 31L17 31L17 30L15 30L15 29L16 29L16 28L17 28L17 29L19 29L19 31L18 31L18 32L19 32L19 31L21 31L21 29L20 29L20 28L23 28L23 29L24 29L24 28L25 28L25 29L27 29L27 28L28 28L28 27L26 27L26 25L28 25L28 23L27 23L27 22L26 22L26 23L27 23L27 24L25 24L25 23L24 23L24 21L27 21L27 16L28 16L28 17L29 17L29 19L28 19L28 21L29 21L29 23L30 23L30 21L31 21L31 20L33 20L33 19L34 19L34 20L35 20L35 21L36 21L36 20L37 20L37 19L38 19L38 18L39 18L39 17L40 17L40 16L38 16L38 15L37 15L37 16L36 16L36 15L35 15L35 16L34 16L34 17L33 17L33 13L32 13L32 14L30 14L30 12L28 12L28 13L26 13L26 11L25 11L25 12L24 12L24 14L23 14L23 13L20 13L20 12L22 12L22 11L21 11L21 10L20 10L20 9L19 9L19 7L20 7L20 6L19 6L19 7L18 7L18 3ZM30 4L30 5L31 5L31 4ZM23 6L23 7L24 7L24 6ZM25 6L25 7L26 7L26 6ZM32 6L32 7L33 7L33 6ZM24 8L24 9L23 9L23 11L24 11L24 9L25 9L25 10L26 10L26 9L27 9L27 8ZM28 9L28 10L29 10L29 11L30 11L30 10L31 10L31 9ZM37 9L37 10L38 10L38 12L39 12L39 13L40 13L40 11L39 11L39 10L38 10L38 9ZM10 10L10 12L11 12L11 13L12 13L12 12L11 12L11 11L12 11L12 10ZM14 10L14 11L13 11L13 12L15 12L15 10ZM16 10L16 12L17 12L17 13L19 13L19 12L18 12L18 11L19 11L19 10L18 10L18 11L17 11L17 10ZM8 11L8 12L6 12L6 13L5 13L5 14L4 14L4 16L6 16L6 17L8 17L8 18L9 18L9 17L12 17L12 18L13 18L13 17L15 17L15 16L14 16L14 15L13 15L13 14L14 14L14 13L13 13L13 14L12 14L12 15L11 15L11 16L9 16L9 17L8 17L8 16L6 16L6 15L8 15L8 14L10 14L10 13L8 13L8 12L9 12L9 11ZM36 12L36 13L34 13L34 14L36 14L36 13L37 13L37 14L38 14L38 13L37 13L37 12ZM6 13L6 14L5 14L5 15L6 15L6 14L7 14L7 13ZM15 13L15 14L16 14L16 15L17 15L17 16L18 16L18 17L19 17L19 18L18 18L18 19L19 19L19 20L17 20L17 21L16 21L16 22L15 22L15 21L14 21L14 22L15 22L15 23L17 23L17 24L16 24L16 25L19 25L19 24L23 24L23 23L22 23L22 22L23 22L23 19L24 19L24 20L26 20L26 18L25 18L25 17L26 17L26 16L24 16L24 18L23 18L23 15L22 15L22 18L21 18L21 17L19 17L19 16L18 16L18 15L17 15L17 14L16 14L16 13ZM25 13L25 14L26 14L26 15L28 15L28 16L29 16L29 15L28 15L28 14L26 14L26 13ZM19 14L19 15L20 15L20 16L21 16L21 15L20 15L20 14ZM12 15L12 16L13 16L13 15ZM31 15L31 16L30 16L30 17L31 17L31 19L29 19L29 20L31 20L31 19L32 19L32 15ZM37 16L37 17L35 17L35 20L36 20L36 18L37 18L37 17L38 17L38 16ZM16 17L16 18L17 18L17 17ZM24 18L24 19L25 19L25 18ZM20 19L20 20L19 20L19 21L18 21L18 22L17 22L17 23L18 23L18 22L19 22L19 21L20 21L20 22L22 22L22 21L20 21L20 20L22 20L22 19ZM5 21L5 22L7 22L7 21ZM29 24L29 25L31 25L31 26L32 26L32 25L31 25L31 24ZM34 24L34 26L37 26L37 25L36 25L36 24ZM20 25L20 26L19 26L19 28L20 28L20 27L21 27L21 26L22 26L22 25ZM9 26L9 27L10 27L10 26ZM15 26L15 27L13 27L13 28L16 28L16 26ZM17 26L17 28L18 28L18 26ZM24 26L24 27L23 27L23 28L24 28L24 27L25 27L25 28L26 28L26 27L25 27L25 26ZM36 28L36 29L38 29L38 28ZM1 29L1 30L2 30L2 29ZM4 29L4 30L5 30L5 29ZM6 30L6 31L7 31L7 30ZM22 30L22 32L21 32L21 33L20 33L20 34L21 34L21 35L22 35L22 34L23 34L23 33L22 33L22 32L24 32L24 30ZM29 31L29 32L30 32L30 33L29 33L29 34L28 34L28 35L29 35L29 34L30 34L30 33L31 33L31 31ZM6 32L6 33L7 33L7 32ZM37 32L37 38L38 38L38 37L39 37L39 38L40 38L40 37L39 37L39 34L38 34L38 32ZM40 32L40 33L41 33L41 32ZM33 33L33 36L36 36L36 33ZM34 34L34 35L35 35L35 34ZM24 35L24 37L27 37L27 36L26 36L26 35ZM30 35L30 36L32 36L32 35ZM8 36L8 38L9 38L9 40L11 40L11 39L10 39L10 38L9 38L9 36ZM11 36L11 37L12 37L12 38L13 38L13 37L14 37L14 36L13 36L13 37L12 37L12 36ZM28 36L28 38L32 38L32 39L31 39L31 40L33 40L33 39L35 39L35 38L36 38L36 37L29 37L29 36ZM20 38L20 39L21 39L21 38ZM12 40L12 41L14 41L14 40ZM0 0L0 7L7 7L7 0ZM1 1L1 6L6 6L6 1ZM2 2L2 5L5 5L5 2ZM34 0L34 7L41 7L41 0ZM35 1L35 6L40 6L40 1ZM36 2L36 5L39 5L39 2ZM0 34L0 41L7 41L7 34ZM1 35L1 40L6 40L6 35ZM2 36L2 39L5 39L5 36Z" fill="#000000"/></g></g></svg>
