<?xml version="1.0" encoding="UTF-8"?>
<svg xmlns="http://www.w3.org/2000/svg" version="1.1" width="200" height="200" viewBox="0 0 200 200"><rect x="0" y="0" width="200" height="200" fill="#ffffff"/><g transform="scale(4.878)"><g transform="translate(0,0)"><path fill-rule="evenodd" d="M8 0L8 1L9 1L9 2L10 2L10 1L11 1L11 3L8 3L8 4L9 4L9 5L10 5L10 4L12 4L12 3L13 3L13 4L14 4L14 3L13 3L13 1L11 1L11 0ZM17 0L17 1L16 1L16 3L15 3L15 5L12 5L12 7L13 7L13 6L14 6L14 9L13 9L13 8L11 8L11 6L10 6L10 7L9 7L9 6L8 6L8 7L9 7L9 8L8 8L8 9L7 9L7 8L4 8L4 9L3 9L3 8L2 8L2 9L3 9L3 10L4 10L4 11L3 11L3 12L2 12L2 11L1 11L1 10L0 10L0 11L1 11L1 12L0 12L0 14L1 14L1 12L2 12L2 13L3 13L3 14L4 14L4 13L5 13L5 14L6 14L6 15L2 15L2 16L1 16L1 15L0 15L0 16L1 16L1 17L0 17L0 18L1 18L1 17L3 17L3 18L2 18L2 19L0 19L0 20L1 20L1 21L2 21L2 22L0 22L0 23L2 23L2 22L3 22L3 24L4 24L4 25L5 25L5 24L4 24L4 23L5 23L5 22L6 22L6 23L8 23L8 24L9 24L9 25L8 25L8 26L6 26L6 27L5 27L5 26L3 26L3 27L2 27L2 24L1 24L1 30L0 30L0 31L1 31L1 32L0 32L0 33L1 33L1 32L2 32L2 33L4 33L4 32L6 32L6 33L7 33L7 32L6 32L6 31L7 31L7 30L6 30L6 31L5 31L5 30L3 30L3 31L4 31L4 32L2 32L2 31L1 31L1 30L2 30L2 29L3 29L3 27L5 27L5 28L4 28L4 29L7 29L7 28L6 28L6 27L8 27L8 28L10 28L10 27L11 27L11 26L9 26L9 25L10 25L10 24L9 24L9 22L10 22L10 21L9 21L9 22L8 22L8 20L6 20L6 19L8 19L8 18L9 18L9 20L10 20L10 19L11 19L11 21L12 21L12 23L11 23L11 24L12 24L12 26L13 26L13 24L14 24L14 23L16 23L16 22L18 22L18 20L19 20L19 21L20 21L20 22L19 22L19 23L17 23L17 25L16 25L16 24L15 24L15 25L16 25L16 26L14 26L14 27L12 27L12 28L14 28L14 29L12 29L12 30L13 30L13 31L14 31L14 29L15 29L15 31L16 31L16 32L15 32L15 33L16 33L16 35L14 35L14 32L11 32L11 30L10 30L10 31L9 31L9 32L8 32L8 34L9 34L9 35L8 35L8 37L10 37L10 38L8 38L8 39L9 39L9 40L10 40L10 41L11 41L11 39L12 39L12 41L13 41L13 39L17 39L17 40L16 40L16 41L19 41L19 40L18 40L18 38L19 38L19 39L20 39L20 40L22 40L22 41L23 41L23 40L24 40L24 41L28 41L28 39L29 39L29 41L31 41L31 40L30 40L30 39L32 39L32 41L33 41L33 39L34 39L34 37L35 37L35 39L36 39L36 40L37 40L37 38L36 38L36 37L37 37L37 33L38 33L38 31L39 31L39 30L40 30L40 31L41 31L41 25L40 25L40 24L41 24L41 22L39 22L39 21L40 21L40 20L39 20L39 21L38 21L38 19L39 19L39 17L40 17L40 19L41 19L41 17L40 17L40 16L39 16L39 17L38 17L38 15L39 15L39 14L36 14L36 13L35 13L35 14L34 14L34 12L36 12L36 11L38 11L38 8L37 8L37 10L36 10L36 9L34 9L34 8L33 8L33 9L34 9L34 10L32 10L32 11L31 11L31 10L30 10L30 8L32 8L32 7L33 7L33 6L32 6L32 3L33 3L33 2L32 2L32 0L27 0L27 2L29 2L29 3L28 3L28 4L27 4L27 6L26 6L26 5L25 5L25 6L24 6L24 5L23 5L23 3L24 3L24 4L26 4L26 3L25 3L25 2L26 2L26 1L25 1L25 0L24 0L24 2L23 2L23 3L22 3L22 1L23 1L23 0L22 0L22 1L21 1L21 3L22 3L22 4L20 4L20 2L19 2L19 4L20 4L20 5L18 5L18 3L17 3L17 1L18 1L18 0ZM19 0L19 1L20 1L20 0ZM29 1L29 2L30 2L30 1ZM29 4L29 7L28 7L28 6L27 6L27 7L26 7L26 6L25 6L25 7L26 7L26 8L27 8L27 9L25 9L25 8L22 8L22 6L23 6L23 7L24 7L24 6L23 6L23 5L20 5L20 6L19 6L19 7L18 7L18 5L15 5L15 8L16 8L16 9L14 9L14 10L15 10L15 13L14 13L14 14L13 14L13 16L12 16L12 14L11 14L11 13L10 13L10 14L11 14L11 15L8 15L8 16L7 16L7 15L6 15L6 16L3 16L3 17L4 17L4 18L5 18L5 19L3 19L3 20L5 20L5 19L6 19L6 18L8 18L8 17L14 17L14 15L16 15L16 16L15 16L15 18L14 18L14 19L13 19L13 18L12 18L12 19L13 19L13 21L14 21L14 22L16 22L16 21L14 21L14 20L17 20L17 19L18 19L18 18L19 18L19 19L20 19L20 18L19 18L19 17L18 17L18 16L19 16L19 15L20 15L20 16L21 16L21 15L20 15L20 14L22 14L22 16L23 16L23 15L26 15L26 14L25 14L25 13L26 13L26 12L27 12L27 13L28 13L28 12L27 12L27 11L28 11L28 10L29 10L29 7L30 7L30 6L31 6L31 7L32 7L32 6L31 6L31 5L30 5L30 4ZM16 6L16 7L17 7L17 6ZM20 6L20 8L17 8L17 10L16 10L16 11L17 11L17 12L18 12L18 11L20 11L20 13L22 13L22 12L23 12L23 14L24 14L24 12L26 12L26 11L25 11L25 9L23 9L23 10L22 10L22 12L21 12L21 11L20 11L20 10L21 10L21 9L22 9L22 8L21 8L21 6ZM40 8L40 15L41 15L41 8ZM6 9L6 10L7 10L7 11L6 11L6 12L8 12L8 13L9 13L9 12L14 12L14 11L12 11L12 9L8 9L8 10L7 10L7 9ZM8 10L8 12L9 12L9 11L10 11L10 10ZM17 10L17 11L18 11L18 10ZM23 10L23 12L24 12L24 10ZM34 10L34 11L35 11L35 10ZM4 11L4 12L5 12L5 11ZM30 11L30 12L31 12L31 13L30 13L30 14L29 14L29 15L30 15L30 16L31 16L31 19L32 19L32 16L33 16L33 17L34 17L34 16L35 16L35 15L34 15L34 14L33 14L33 11L32 11L32 12L31 12L31 11ZM38 12L38 13L39 13L39 12ZM6 13L6 14L7 14L7 13ZM17 13L17 14L16 14L16 15L17 15L17 16L16 16L16 18L15 18L15 19L17 19L17 16L18 16L18 15L19 15L19 13ZM31 13L31 14L32 14L32 13ZM27 15L27 16L26 16L26 18L27 18L27 22L24 22L24 21L26 21L26 20L24 20L24 21L22 21L22 20L23 20L23 18L24 18L24 19L25 19L25 18L24 18L24 17L21 17L21 22L20 22L20 24L18 24L18 25L17 25L17 26L16 26L16 28L15 28L15 29L17 29L17 30L16 30L16 31L17 31L17 32L18 32L18 33L17 33L17 34L18 34L18 35L20 35L20 34L18 34L18 33L19 33L19 31L17 31L17 30L18 30L18 28L19 28L19 26L20 26L20 29L19 29L19 30L21 30L21 31L20 31L20 32L22 32L22 33L21 33L21 35L24 35L24 32L22 32L22 31L25 31L25 30L26 30L26 27L27 27L27 29L28 29L28 30L27 30L27 31L26 31L26 32L25 32L25 34L26 34L26 35L28 35L28 34L30 34L30 35L29 35L29 39L30 39L30 38L31 38L31 37L32 37L32 38L33 38L33 37L32 37L32 36L31 36L31 34L32 34L32 33L31 33L31 34L30 34L30 33L29 33L29 31L30 31L30 29L29 29L29 28L28 28L28 24L27 24L27 23L32 23L32 25L31 25L31 26L30 26L30 25L29 25L29 27L31 27L31 29L32 29L32 28L33 28L33 30L34 30L34 31L33 31L33 32L37 32L37 29L38 29L38 28L39 28L39 29L40 29L40 28L39 28L39 27L40 27L40 25L39 25L39 27L34 27L34 24L35 24L35 23L32 23L32 22L34 22L34 20L36 20L36 19L38 19L38 18L37 18L37 15L36 15L36 18L34 18L34 19L33 19L33 20L31 20L31 22L28 22L28 19L30 19L30 18L29 18L29 17L27 17L27 16L28 16L28 15ZM31 15L31 16L32 16L32 15ZM6 16L6 17L5 17L5 18L6 18L6 17L7 17L7 16ZM29 20L29 21L30 21L30 20ZM4 21L4 22L5 22L5 21ZM6 21L6 22L7 22L7 21ZM36 21L36 22L37 22L37 23L36 23L36 26L38 26L38 24L39 24L39 23L38 23L38 22L37 22L37 21ZM22 22L22 23L24 23L24 24L23 24L23 26L22 26L22 24L21 24L21 27L23 27L23 29L22 29L22 30L23 30L23 29L24 29L24 30L25 30L25 29L24 29L24 27L23 27L23 26L24 26L24 25L25 25L25 27L26 27L26 26L27 26L27 24L26 24L26 23L24 23L24 22ZM12 23L12 24L13 24L13 23ZM37 23L37 24L38 24L38 23ZM6 24L6 25L7 25L7 24ZM32 26L32 27L33 27L33 26ZM17 27L17 28L18 28L18 27ZM34 28L34 29L35 29L35 28ZM35 30L35 31L36 31L36 30ZM27 31L27 32L28 32L28 31ZM31 31L31 32L32 32L32 31ZM9 32L9 34L10 34L10 35L9 35L9 36L12 36L12 37L11 37L11 38L10 38L10 39L11 39L11 38L13 38L13 37L15 37L15 38L17 38L17 37L19 37L19 38L20 38L20 39L21 39L21 38L22 38L22 36L17 36L17 37L16 37L16 36L12 36L12 34L13 34L13 33L10 33L10 32ZM22 33L22 34L23 34L23 33ZM33 33L33 36L36 36L36 33ZM39 33L39 34L38 34L38 35L39 35L39 34L40 34L40 36L39 36L39 37L38 37L38 38L40 38L40 39L38 39L38 41L41 41L41 40L40 40L40 39L41 39L41 33ZM34 34L34 35L35 35L35 34ZM25 36L25 37L26 37L26 38L24 38L24 40L27 40L27 39L28 39L28 36ZM20 37L20 38L21 38L21 37ZM22 39L22 40L23 40L23 39ZM14 40L14 41L15 41L15 40ZM34 40L34 41L35 41L35 40ZM0 0L0 7L7 7L7 0ZM1 1L1 6L6 6L6 1ZM2 2L2 5L5 5L5 2ZM34 0L34 7L41 7L41 0ZM35 1L35 6L40 6L40 1ZM36 2L36 5L39 5L39 2ZM0 34L0 41L7 41L7 34ZM1 35L1 40L6 40L6 35ZM2 36L2 39L5 39L5 36Z" fill="#000000"/></g></g></svg>
