<?xml version="1.0" encoding="UTF-8"?>
<svg xmlns="http://www.w3.org/2000/svg" version="1.1" width="200" height="200" viewBox="0 0 200 200"><rect x="0" y="0" width="200" height="200" fill="#ffffff"/><g transform="scale(6.897)"><g transform="translate(0,0)"><path fill-rule="evenodd" d="M11 0L11 1L10 1L10 3L9 3L9 1L8 1L8 7L9 7L9 6L10 6L10 8L5 8L5 9L3 9L3 8L2 8L2 9L3 9L3 11L2 11L2 10L1 10L1 9L0 9L0 10L1 10L1 11L0 11L0 13L1 13L1 15L2 15L2 18L0 18L0 19L3 19L3 18L4 18L4 17L5 17L5 19L7 19L7 20L6 20L6 21L7 21L7 20L8 20L8 24L9 24L9 25L10 25L10 26L8 26L8 27L9 27L9 29L10 29L10 26L12 26L12 29L16 29L16 28L17 28L17 29L18 29L18 28L17 28L17 27L18 27L18 26L19 26L19 25L18 25L18 23L16 23L16 21L17 21L17 22L19 22L19 21L20 21L20 25L25 25L25 28L24 28L24 26L23 26L23 27L22 27L22 26L21 26L21 29L22 29L22 28L24 28L24 29L25 29L25 28L26 28L26 29L29 29L29 26L27 26L27 24L28 24L28 25L29 25L29 24L28 24L28 23L29 23L29 21L27 21L27 20L23 20L23 19L25 19L25 18L28 18L28 19L29 19L29 18L28 18L28 17L29 17L29 15L28 15L28 16L27 16L27 17L25 17L25 16L22 16L22 15L25 15L25 14L26 14L26 13L27 13L27 14L28 14L28 13L29 13L29 12L27 12L27 11L29 11L29 9L28 9L28 8L23 8L23 10L22 10L22 11L21 11L21 9L22 9L22 8L21 8L21 0L19 0L19 1L20 1L20 2L19 2L19 3L20 3L20 5L19 5L19 4L18 4L18 5L17 5L17 3L18 3L18 2L17 2L17 1L18 1L18 0L17 0L17 1L16 1L16 0L14 0L14 1L13 1L13 2L12 2L12 3L11 3L11 1L12 1L12 0ZM14 1L14 2L13 2L13 5L15 5L15 4L16 4L16 2L15 2L15 1ZM14 2L14 3L15 3L15 2ZM9 4L9 5L10 5L10 4ZM11 4L11 5L12 5L12 4ZM16 5L16 6L15 6L15 7L16 7L16 6L17 6L17 7L18 7L18 11L20 11L20 9L19 9L19 7L20 7L20 6L19 6L19 7L18 7L18 6L17 6L17 5ZM11 6L11 7L12 7L12 8L11 8L11 9L10 9L10 10L11 10L11 11L10 11L10 12L9 12L9 16L8 16L8 15L6 15L6 14L8 14L8 13L6 13L6 12L8 12L8 11L9 11L9 9L8 9L8 11L6 11L6 12L5 12L5 10L7 10L7 9L5 9L5 10L4 10L4 11L3 11L3 12L1 12L1 13L3 13L3 14L4 14L4 15L3 15L3 17L4 17L4 16L5 16L5 17L6 17L6 18L7 18L7 17L6 17L6 16L8 16L8 18L9 18L9 19L8 19L8 20L13 20L13 22L12 22L12 21L9 21L9 22L12 22L12 23L11 23L11 24L12 24L12 23L14 23L14 24L13 24L13 25L12 25L12 26L13 26L13 25L14 25L14 26L15 26L15 27L17 27L17 26L18 26L18 25L15 25L15 19L14 19L14 18L16 18L16 19L17 19L17 18L18 18L18 21L19 21L19 20L22 20L22 19L21 19L21 15L19 15L19 14L22 14L22 12L21 12L21 13L20 13L20 12L18 12L18 14L17 14L17 13L16 13L16 14L15 14L15 13L14 13L14 12L13 12L13 14L12 14L12 16L13 16L13 15L14 15L14 16L15 16L15 17L13 17L13 19L10 19L10 17L11 17L11 16L10 16L10 12L12 12L12 11L14 11L14 10L13 10L13 7L14 7L14 6L13 6L13 7L12 7L12 6ZM16 8L16 9L15 9L15 10L16 10L16 12L17 12L17 8ZM26 9L26 10L24 10L24 11L26 11L26 10L28 10L28 9ZM23 12L23 14L25 14L25 13L24 13L24 12ZM4 13L4 14L6 14L6 13ZM16 14L16 15L17 15L17 16L18 16L18 18L19 18L19 19L20 19L20 18L19 18L19 17L20 17L20 16L19 16L19 15L17 15L17 14ZM0 16L0 17L1 17L1 16ZM9 16L9 17L10 17L10 16ZM22 17L22 18L25 18L25 17ZM13 19L13 20L14 20L14 19ZM0 20L0 21L2 21L2 20ZM3 20L3 21L5 21L5 20ZM21 21L21 24L24 24L24 21ZM26 21L26 23L25 23L25 25L26 25L26 24L27 24L27 23L28 23L28 22L27 22L27 21ZM22 22L22 23L23 23L23 22ZM27 27L27 28L28 28L28 27ZM0 0L0 7L7 7L7 0ZM1 1L1 6L6 6L6 1ZM2 2L2 5L5 5L5 2ZM22 0L22 7L29 7L29 0ZM23 1L23 6L28 6L28 1ZM24 2L24 5L27 5L27 2ZM0 22L0 29L7 29L7 22ZM1 23L1 28L6 28L6 23ZM2 24L2 27L5 27L5 24Z" fill="#000000"/></g></g></svg>
