<?xml version="1.0" encoding="UTF-8"?>
<svg xmlns="http://www.w3.org/2000/svg" version="1.1" width="200" height="200" viewBox="0 0 200 200"><rect x="0" y="0" width="200" height="200" fill="#ffffff"/><g transform="scale(4.878)"><g transform="translate(0,0)"><path fill-rule="evenodd" d="M8 0L8 3L12 3L12 4L11 4L11 5L8 5L8 11L7 11L7 10L5 10L5 12L3 12L3 11L4 11L4 9L5 9L5 8L2 8L2 9L3 9L3 11L2 11L2 10L1 10L1 9L0 9L0 11L1 11L1 12L0 12L0 13L1 13L1 12L2 12L2 13L4 13L4 15L3 15L3 16L4 16L4 15L5 15L5 16L6 16L6 17L7 17L7 18L6 18L6 19L5 19L5 18L4 18L4 17L3 17L3 18L4 18L4 19L5 19L5 20L4 20L4 21L3 21L3 22L2 22L2 21L1 21L1 19L0 19L0 21L1 21L1 22L2 22L2 23L3 23L3 25L1 25L1 24L0 24L0 25L1 25L1 26L3 26L3 27L2 27L2 28L1 28L1 27L0 27L0 28L1 28L1 29L0 29L0 33L1 33L1 29L2 29L2 30L3 30L3 31L4 31L4 30L6 30L6 31L5 31L5 32L4 32L4 33L7 33L7 32L6 32L6 31L7 31L7 30L6 30L6 29L8 29L8 30L9 30L9 29L8 29L8 28L9 28L9 27L10 27L10 30L11 30L11 32L12 32L12 33L9 33L9 32L10 32L10 31L8 31L8 34L10 34L10 36L8 36L8 39L10 39L10 36L11 36L11 37L13 37L13 38L12 38L12 39L13 39L13 40L10 40L10 41L13 41L13 40L14 40L14 41L17 41L17 40L18 40L18 41L19 41L19 39L20 39L20 38L22 38L22 37L23 37L23 34L24 34L24 35L25 35L25 36L24 36L24 38L23 38L23 39L22 39L22 40L20 40L20 41L22 41L22 40L23 40L23 41L24 41L24 40L25 40L25 41L32 41L32 40L33 40L33 41L34 41L34 40L33 40L33 39L32 39L32 38L31 38L31 37L30 37L30 38L27 38L27 37L29 37L29 36L31 36L31 35L32 35L32 37L33 37L33 38L34 38L34 39L35 39L35 40L36 40L36 39L37 39L37 40L40 40L40 38L41 38L41 37L39 37L39 36L41 36L41 35L40 35L40 34L41 34L41 33L39 33L39 32L41 32L41 31L40 31L40 30L41 30L41 29L39 29L39 30L38 30L38 31L39 31L39 32L37 32L37 29L35 29L35 30L34 30L34 31L35 31L35 32L33 32L33 31L32 31L32 30L33 30L33 29L34 29L34 28L33 28L33 29L32 29L32 28L31 28L31 29L30 29L30 28L28 28L28 26L27 26L27 27L26 27L26 25L25 25L25 24L26 24L26 23L25 23L25 22L27 22L27 23L29 23L29 21L28 21L28 19L29 19L29 18L27 18L27 17L25 17L25 15L26 15L26 16L27 16L27 14L29 14L29 13L30 13L30 14L31 14L31 12L32 12L32 13L33 13L33 14L32 14L32 15L34 15L34 13L35 13L35 12L38 12L38 11L40 11L40 10L41 10L41 8L38 8L38 9L40 9L40 10L37 10L37 9L36 9L36 8L33 8L33 9L31 9L31 8L32 8L32 7L33 7L33 6L32 6L32 7L31 7L31 6L30 6L30 5L32 5L32 4L33 4L33 3L32 3L32 4L30 4L30 5L29 5L29 4L28 4L28 5L27 5L27 4L23 4L23 2L21 2L21 1L22 1L22 0L20 0L20 1L18 1L18 0L16 0L16 1L15 1L15 0L14 0L14 1L13 1L13 0L12 0L12 2L10 2L10 0ZM24 0L24 1L25 1L25 0ZM26 0L26 1L27 1L27 2L26 2L26 3L31 3L31 2L30 2L30 0L29 0L29 1L27 1L27 0ZM31 0L31 1L32 1L32 2L33 2L33 1L32 1L32 0ZM15 2L15 3L14 3L14 4L15 4L15 5L16 5L16 6L15 6L15 7L14 7L14 6L13 6L13 5L11 5L11 7L10 7L10 6L9 6L9 11L8 11L8 14L10 14L10 16L8 16L8 15L6 15L6 14L7 14L7 13L6 13L6 12L7 12L7 11L6 11L6 12L5 12L5 13L6 13L6 14L5 14L5 15L6 15L6 16L7 16L7 17L10 17L10 18L7 18L7 19L6 19L6 20L5 20L5 21L4 21L4 22L3 22L3 23L4 23L4 25L3 25L3 26L5 26L5 28L4 28L4 27L3 27L3 28L2 28L2 29L6 29L6 28L7 28L7 27L8 27L8 25L10 25L10 26L11 26L11 27L12 27L12 28L11 28L11 29L12 29L12 31L14 31L14 32L13 32L13 33L14 33L14 32L15 32L15 34L16 34L16 35L14 35L14 36L13 36L13 37L15 37L15 38L13 38L13 39L14 39L14 40L15 40L15 38L16 38L16 40L17 40L17 38L16 38L16 36L18 36L18 33L19 33L19 32L20 32L20 36L19 36L19 37L18 37L18 39L19 39L19 38L20 38L20 37L22 37L22 35L21 35L21 34L23 34L23 33L25 33L25 34L26 34L26 32L24 32L24 31L25 31L25 30L26 30L26 31L27 31L27 30L26 30L26 28L25 28L25 26L22 26L22 24L23 24L23 25L24 25L24 23L22 23L22 24L21 24L21 25L20 25L20 27L21 27L21 26L22 26L22 27L24 27L24 29L23 29L23 31L22 31L22 30L20 30L20 29L18 29L18 28L16 28L16 27L19 27L19 24L20 24L20 23L21 23L21 22L20 22L20 21L21 21L21 20L20 20L20 21L19 21L19 20L16 20L16 19L17 19L17 18L18 18L18 17L16 17L16 19L15 19L15 12L14 12L14 14L12 14L12 12L11 12L11 14L10 14L10 13L9 13L9 12L10 12L10 8L11 8L11 11L12 11L12 10L13 10L13 11L17 11L17 12L16 12L16 13L17 13L17 12L19 12L19 11L22 11L22 12L21 12L21 14L22 14L22 15L23 15L23 17L22 17L22 18L23 18L23 20L25 20L25 19L27 19L27 18L25 18L25 17L24 17L24 14L23 14L23 13L24 13L24 12L23 12L23 11L25 11L25 10L26 10L26 8L27 8L27 7L28 7L28 6L29 6L29 8L28 8L28 9L27 9L27 10L28 10L28 9L29 9L29 11L27 11L27 12L25 12L25 14L27 14L27 12L28 12L28 13L29 13L29 12L30 12L30 11L32 11L32 12L33 12L33 13L34 13L34 12L33 12L33 11L34 11L34 9L33 9L33 11L32 11L32 10L31 10L31 9L29 9L29 8L30 8L30 6L29 6L29 5L28 5L28 6L27 6L27 5L25 5L25 8L23 8L23 7L24 7L24 5L23 5L23 7L22 7L22 5L20 5L20 4L21 4L21 2L20 2L20 4L19 4L19 3L17 3L17 2ZM24 2L24 3L25 3L25 2ZM17 4L17 5L18 5L18 4ZM12 6L12 7L11 7L11 8L13 8L13 6ZM16 6L16 8L17 8L17 6ZM18 6L18 9L19 9L19 10L18 10L18 11L19 11L19 10L22 10L22 11L23 11L23 10L25 10L25 9L22 9L22 8L20 8L20 7L21 7L21 6L20 6L20 7L19 7L19 6ZM26 6L26 7L27 7L27 6ZM6 8L6 9L7 9L7 8ZM14 8L14 10L15 10L15 8ZM19 8L19 9L20 9L20 8ZM16 9L16 10L17 10L17 9ZM35 9L35 10L36 10L36 9ZM22 12L22 13L23 13L23 12ZM39 12L39 13L40 13L40 14L39 14L39 15L40 15L40 14L41 14L41 12ZM36 13L36 14L35 14L35 15L36 15L36 16L35 16L35 17L34 17L34 16L32 16L32 17L30 17L30 16L29 16L29 15L28 15L28 16L29 16L29 17L30 17L30 19L31 19L31 18L32 18L32 19L33 19L33 18L34 18L34 19L35 19L35 21L34 21L34 20L32 20L32 21L31 21L31 20L30 20L30 21L31 21L31 22L30 22L30 24L27 24L27 25L29 25L29 26L32 26L32 25L34 25L34 26L33 26L33 27L34 27L34 26L35 26L35 28L38 28L38 26L39 26L39 27L40 27L40 26L41 26L41 23L39 23L39 22L38 22L38 21L39 21L39 20L36 20L36 19L35 19L35 17L36 17L36 18L37 18L37 19L38 19L38 18L39 18L39 19L40 19L40 18L41 18L41 16L40 16L40 18L39 18L39 16L37 16L37 15L38 15L38 13ZM0 14L0 17L1 17L1 15L2 15L2 14ZM11 14L11 15L12 15L12 16L11 16L11 17L12 17L12 16L13 16L13 17L14 17L14 15L12 15L12 14ZM16 14L16 16L18 16L18 15L19 15L19 14L18 14L18 15L17 15L17 14ZM19 16L19 19L21 19L21 18L20 18L20 17L21 17L21 16ZM36 16L36 17L37 17L37 18L38 18L38 17L37 17L37 16ZM23 17L23 18L24 18L24 19L25 19L25 18L24 18L24 17ZM32 17L32 18L33 18L33 17ZM12 18L12 20L11 20L11 19L10 19L10 20L11 20L11 22L10 22L10 23L11 23L11 22L13 22L13 23L12 23L12 24L10 24L10 25L12 25L12 27L13 27L13 28L14 28L14 29L15 29L15 31L16 31L16 32L17 32L17 33L16 33L16 34L17 34L17 33L18 33L18 29L17 29L17 31L16 31L16 29L15 29L15 28L14 28L14 27L16 27L16 25L15 25L15 23L16 23L16 24L19 24L19 23L20 23L20 22L19 22L19 23L17 23L17 22L18 22L18 21L16 21L16 22L15 22L15 19L14 19L14 20L13 20L13 18ZM7 19L7 20L6 20L6 21L8 21L8 20L9 20L9 19ZM26 20L26 21L27 21L27 22L28 22L28 21L27 21L27 20ZM40 20L40 21L41 21L41 20ZM22 21L22 22L25 22L25 21ZM32 21L32 22L31 22L31 24L30 24L30 25L32 25L32 24L33 24L33 23L32 23L32 22L34 22L34 23L35 23L35 24L34 24L34 25L35 25L35 26L36 26L36 25L39 25L39 26L40 26L40 24L39 24L39 23L37 23L37 24L36 24L36 23L35 23L35 22L36 22L36 21L35 21L35 22L34 22L34 21ZM6 22L6 23L5 23L5 26L6 26L6 27L7 27L7 26L6 26L6 25L8 25L8 24L9 24L9 23L8 23L8 24L6 24L6 23L7 23L7 22ZM14 22L14 23L15 23L15 22ZM12 24L12 25L13 25L13 26L14 26L14 25L13 25L13 24ZM35 24L35 25L36 25L36 24ZM28 29L28 30L29 30L29 31L28 31L28 33L27 33L27 34L28 34L28 33L29 33L29 32L30 32L30 31L31 31L31 30L32 30L32 29L31 29L31 30L30 30L30 29ZM19 30L19 31L20 31L20 32L22 32L22 31L20 31L20 30ZM35 30L35 31L36 31L36 30ZM2 32L2 33L3 33L3 32ZM30 33L30 35L31 35L31 33ZM33 33L33 36L36 36L36 33ZM37 33L37 36L39 36L39 34L38 34L38 33ZM34 34L34 35L35 35L35 34ZM11 35L11 36L12 36L12 35ZM25 36L25 38L24 38L24 39L23 39L23 40L24 40L24 39L25 39L25 40L26 40L26 39L25 39L25 38L26 38L26 37L27 37L27 36ZM34 37L34 38L36 38L36 37ZM37 38L37 39L38 39L38 38ZM28 39L28 40L32 40L32 39ZM0 0L0 7L7 7L7 0ZM1 1L1 6L6 6L6 1ZM2 2L2 5L5 5L5 2ZM34 0L34 7L41 7L41 0ZM35 1L35 6L40 6L40 1ZM36 2L36 5L39 5L39 2ZM0 34L0 41L7 41L7 34ZM1 35L1 40L6 40L6 35ZM2 36L2 39L5 39L5 36Z" fill="#000000"/></g></g></svg>
