<?xml version="1.0" encoding="UTF-8"?>
<svg xmlns="http://www.w3.org/2000/svg" version="1.1" width="200" height="200" viewBox="0 0 200 200"><rect x="0" y="0" width="200" height="200" fill="#ffffff"/><g transform="scale(4.878)"><g transform="translate(0,0)"><path fill-rule="evenodd" d="M8 0L8 3L10 3L10 4L9 4L9 5L8 5L8 10L6 10L6 9L7 9L7 8L6 8L6 9L5 9L5 8L2 8L2 11L3 11L3 12L4 12L4 13L3 13L3 14L4 14L4 15L5 15L5 16L4 16L4 17L3 17L3 19L2 19L2 18L1 18L1 16L2 16L2 13L1 13L1 14L0 14L0 18L1 18L1 19L2 19L2 21L1 21L1 22L0 22L0 23L3 23L3 24L1 24L1 25L0 25L0 27L1 27L1 28L2 28L2 27L3 27L3 28L4 28L4 29L2 29L2 32L4 32L4 33L5 33L5 30L6 30L6 31L7 31L7 32L6 32L6 33L7 33L7 32L9 32L9 28L6 28L6 27L7 27L7 26L8 26L8 27L9 27L9 25L11 25L11 23L10 23L10 24L8 24L8 25L7 25L7 24L5 24L5 26L6 26L6 27L5 27L5 28L4 28L4 25L3 25L3 24L4 24L4 23L3 23L3 22L2 22L2 21L3 21L3 19L4 19L4 22L5 22L5 23L7 23L7 22L8 22L8 21L9 21L9 22L10 22L10 20L11 20L11 15L12 15L12 16L13 16L13 17L12 17L12 18L13 18L13 20L14 20L14 21L19 21L19 20L17 20L17 19L18 19L18 18L19 18L19 19L20 19L20 18L21 18L21 20L22 20L22 19L23 19L23 18L24 18L24 19L26 19L26 17L28 17L28 15L30 15L30 16L29 16L29 19L28 19L28 18L27 18L27 21L26 21L26 22L27 22L27 23L29 23L29 22L30 22L30 24L29 24L29 25L28 25L28 24L25 24L25 23L24 23L24 22L25 22L25 20L23 20L23 22L21 22L21 21L20 21L20 22L17 22L17 23L18 23L18 25L16 25L16 22L13 22L13 21L11 21L11 22L13 22L13 23L12 23L12 25L13 25L13 23L15 23L15 25L14 25L14 27L12 27L12 28L10 28L10 30L11 30L11 34L10 34L10 33L8 33L8 34L10 34L10 35L12 35L12 33L13 33L13 32L12 32L12 28L16 28L16 29L18 29L18 30L17 30L17 32L18 32L18 30L20 30L20 31L21 31L21 32L19 32L19 33L18 33L18 34L17 34L17 33L16 33L16 32L14 32L14 33L15 33L15 36L14 36L14 34L13 34L13 36L14 36L14 37L12 37L12 36L11 36L11 37L10 37L10 38L9 38L9 36L8 36L8 39L12 39L12 38L13 38L13 39L15 39L15 40L17 40L17 41L19 41L19 40L18 40L18 39L20 39L20 41L21 41L21 40L23 40L23 41L24 41L24 40L23 40L23 39L22 39L22 37L23 37L23 36L25 36L25 37L24 37L24 38L27 38L27 40L26 40L26 41L27 41L27 40L28 40L28 38L29 38L29 37L28 37L28 36L29 36L29 35L28 35L28 34L27 34L27 33L26 33L26 31L24 31L24 30L29 30L29 29L31 29L31 28L32 28L32 29L33 29L33 30L32 30L32 31L33 31L33 30L34 30L34 31L35 31L35 32L32 32L32 33L31 33L31 32L29 32L29 31L28 31L28 33L31 33L31 34L30 34L30 35L32 35L32 38L33 38L33 39L32 39L32 40L31 40L31 38L30 38L30 40L29 40L29 41L30 41L30 40L31 40L31 41L32 41L32 40L33 40L33 41L34 41L34 40L33 40L33 39L35 39L35 40L36 40L36 39L37 39L37 37L38 37L38 38L39 38L39 40L40 40L40 38L41 38L41 36L37 36L37 32L38 32L38 33L39 33L39 34L38 34L38 35L40 35L40 34L41 34L41 33L39 33L39 32L38 32L38 31L40 31L40 30L41 30L41 29L40 29L40 28L41 28L41 27L40 27L40 26L41 26L41 23L40 23L40 26L39 26L39 24L37 24L37 25L33 25L33 23L34 23L34 22L36 22L36 21L37 21L37 23L38 23L38 21L39 21L39 20L38 20L38 19L40 19L40 18L41 18L41 16L40 16L40 18L38 18L38 17L39 17L39 16L38 16L38 15L40 15L40 14L41 14L41 13L40 13L40 12L41 12L41 11L40 11L40 10L41 10L41 8L38 8L38 9L40 9L40 10L37 10L37 9L36 9L36 8L33 8L33 9L31 9L31 6L30 6L30 5L29 5L29 4L28 4L28 5L26 5L26 4L27 4L27 3L29 3L29 1L27 1L27 0L22 0L22 1L21 1L21 2L17 2L17 1L18 1L18 0L15 0L15 1L13 1L13 0L12 0L12 1L13 1L13 2L16 2L16 3L15 3L15 5L16 5L16 7L15 7L15 6L14 6L14 7L13 7L13 6L12 6L12 7L11 7L11 5L14 5L14 3L13 3L13 4L12 4L12 2L11 2L11 0ZM31 0L31 1L30 1L30 2L31 2L31 1L32 1L32 0ZM23 1L23 3L20 3L20 4L16 4L16 5L17 5L17 7L16 7L16 8L15 8L15 7L14 7L14 8L13 8L13 7L12 7L12 9L13 9L13 10L10 10L10 9L11 9L11 8L9 8L9 10L8 10L8 11L6 11L6 10L4 10L4 9L3 9L3 10L4 10L4 12L5 12L5 13L4 13L4 14L5 14L5 15L6 15L6 16L5 16L5 17L4 17L4 19L5 19L5 22L7 22L7 21L8 21L8 20L10 20L10 19L8 19L8 20L7 20L7 19L6 19L6 18L8 18L8 17L6 17L6 16L7 16L7 15L6 15L6 14L8 14L8 16L9 16L9 18L10 18L10 16L9 16L9 14L8 14L8 13L9 13L9 12L10 12L10 13L12 13L12 11L13 11L13 12L14 12L14 9L15 9L15 11L19 11L19 12L18 12L18 13L16 13L16 15L14 15L14 14L15 14L15 13L14 13L14 14L12 14L12 15L14 15L14 16L16 16L16 17L13 17L13 18L15 18L15 19L14 19L14 20L16 20L16 18L17 18L17 16L18 16L18 15L17 15L17 14L18 14L18 13L19 13L19 18L20 18L20 15L21 15L21 16L22 16L22 17L21 17L21 18L23 18L23 17L24 17L24 18L25 18L25 17L26 17L26 16L27 16L27 14L26 14L26 13L27 13L27 10L30 10L30 11L28 11L28 12L31 12L31 14L30 14L30 13L28 13L28 14L30 14L30 15L31 15L31 14L32 14L32 15L33 15L33 16L32 16L32 17L33 17L33 16L34 16L34 17L35 17L35 19L34 19L34 18L33 18L33 20L32 20L32 18L30 18L30 19L31 19L31 20L28 20L28 21L27 21L27 22L28 22L28 21L33 21L33 22L31 22L31 25L30 25L30 26L29 26L29 27L27 27L27 26L28 26L28 25L26 25L26 27L25 27L25 25L23 25L23 26L22 26L22 25L21 25L21 24L22 24L22 23L21 23L21 22L20 22L20 23L21 23L21 24L19 24L19 25L18 25L18 26L16 26L16 27L18 27L18 29L19 29L19 28L20 28L20 30L21 30L21 31L22 31L22 32L23 32L23 33L21 33L21 34L22 34L22 36L23 36L23 35L24 35L24 34L25 34L25 35L26 35L26 37L27 37L27 38L28 38L28 37L27 37L27 36L28 36L28 35L27 35L27 34L26 34L26 33L24 33L24 31L23 31L23 30L24 30L24 28L25 28L25 29L26 29L26 28L28 28L28 29L29 29L29 28L31 28L31 27L32 27L32 28L33 28L33 29L34 29L34 30L35 30L35 31L36 31L36 29L37 29L37 31L38 31L38 30L39 30L39 28L40 28L40 27L39 27L39 26L38 26L38 28L36 28L36 29L34 29L34 28L33 28L33 27L34 27L34 26L33 26L33 25L32 25L32 23L33 23L33 22L34 22L34 21L36 21L36 20L37 20L37 21L38 21L38 20L37 20L37 19L38 19L38 18L36 18L36 17L38 17L38 16L36 16L36 17L35 17L35 15L36 15L36 13L37 13L37 15L38 15L38 14L40 14L40 13L39 13L39 12L40 12L40 11L38 11L38 12L35 12L35 11L36 11L36 10L34 10L34 11L33 11L33 12L31 12L31 11L32 11L32 10L31 10L31 9L27 9L27 8L30 8L30 6L29 6L29 7L28 7L28 6L27 6L27 7L26 7L26 5L25 5L25 11L23 11L23 10L22 10L22 11L21 11L21 9L23 9L23 8L19 8L19 9L18 9L18 10L17 10L17 9L16 9L16 8L17 8L17 7L18 7L18 6L19 6L19 7L20 7L20 5L21 5L21 7L22 7L22 6L23 6L23 7L24 7L24 6L23 6L23 5L22 5L22 4L23 4L23 3L25 3L25 4L26 4L26 3L27 3L27 2L26 2L26 3L25 3L25 1ZM32 2L32 4L31 4L31 3L30 3L30 4L31 4L31 5L32 5L32 7L33 7L33 5L32 5L32 4L33 4L33 2ZM10 4L10 5L11 5L11 4ZM9 6L9 7L10 7L10 6ZM0 9L0 11L1 11L1 9ZM5 11L5 12L6 12L6 13L5 13L5 14L6 14L6 13L8 13L8 12L6 12L6 11ZM10 11L10 12L11 12L11 11ZM20 11L20 12L19 12L19 13L21 13L21 11ZM22 12L22 13L23 13L23 15L25 15L25 13L26 13L26 12ZM33 12L33 13L32 13L32 14L33 14L33 15L34 15L34 14L33 14L33 13L34 13L34 12ZM30 16L30 17L31 17L31 16ZM35 19L35 20L36 20L36 19ZM6 20L6 21L7 21L7 20ZM33 20L33 21L34 21L34 20ZM40 20L40 21L41 21L41 20ZM23 23L23 24L24 24L24 23ZM35 23L35 24L36 24L36 23ZM1 25L1 27L2 27L2 25ZM6 25L6 26L7 26L7 25ZM19 25L19 26L18 26L18 27L19 27L19 26L20 26L20 28L22 28L22 26L20 26L20 25ZM31 25L31 26L32 26L32 25ZM10 26L10 27L11 27L11 26ZM35 26L35 27L37 27L37 26ZM23 27L23 28L24 28L24 27ZM0 29L0 33L1 33L1 29ZM6 29L6 30L7 30L7 31L8 31L8 29ZM21 29L21 30L23 30L23 29ZM3 30L3 31L4 31L4 30ZM13 30L13 31L14 31L14 30ZM30 30L30 31L31 31L31 30ZM19 33L19 34L18 34L18 35L17 35L17 34L16 34L16 38L17 38L17 39L18 39L18 38L17 38L17 36L18 36L18 37L19 37L19 36L18 36L18 35L20 35L20 38L21 38L21 35L20 35L20 33ZM33 33L33 36L36 36L36 33ZM34 34L34 35L35 35L35 34ZM30 36L30 37L31 37L31 36ZM33 37L33 38L36 38L36 37ZM9 40L9 41L10 41L10 40ZM12 40L12 41L14 41L14 40ZM0 0L0 7L7 7L7 0ZM1 1L1 6L6 6L6 1ZM2 2L2 5L5 5L5 2ZM34 0L34 7L41 7L41 0ZM35 1L35 6L40 6L40 1ZM36 2L36 5L39 5L39 2ZM0 34L0 41L7 41L7 34ZM1 35L1 40L6 40L6 35ZM2 36L2 39L5 39L5 36Z" fill="#000000"/></g></g></svg>
