<?xml version="1.0" encoding="UTF-8"?>
<svg xmlns="http://www.w3.org/2000/svg" version="1.1" width="200" height="200" viewBox="0 0 200 200"><rect x="0" y="0" width="200" height="200" fill="#ffffff"/><g transform="scale(4.878)"><g transform="translate(0,0)"><path fill-rule="evenodd" d="M9 0L9 1L8 1L8 2L9 2L9 3L10 3L10 4L9 4L9 5L8 5L8 8L4 8L4 9L3 9L3 10L2 10L2 9L0 9L0 10L2 10L2 12L1 12L1 14L0 14L0 19L5 19L5 20L4 20L4 21L5 21L5 22L6 22L6 23L7 23L7 24L6 24L6 25L3 25L3 26L2 26L2 24L4 24L4 22L3 22L3 21L1 21L1 22L2 22L2 23L1 23L1 24L0 24L0 26L2 26L2 27L1 27L1 28L0 28L0 30L2 30L2 31L3 31L3 33L4 33L4 32L5 32L5 33L8 33L8 37L9 37L9 34L10 34L10 36L11 36L11 34L12 34L12 33L13 33L13 35L12 35L12 37L10 37L10 39L9 39L9 40L10 40L10 41L11 41L11 40L12 40L12 41L14 41L14 40L15 40L15 39L16 39L16 38L18 38L18 39L17 39L17 40L16 40L16 41L18 41L18 39L19 39L19 40L20 40L20 41L22 41L22 40L23 40L23 39L22 39L22 40L21 40L21 38L22 38L22 37L20 37L20 36L23 36L23 34L25 34L25 35L24 35L24 37L25 37L25 38L24 38L24 39L25 39L25 38L26 38L26 40L24 40L24 41L27 41L27 40L29 40L29 41L30 41L30 40L31 40L31 38L33 38L33 39L32 39L32 41L33 41L33 39L34 39L34 40L35 40L35 39L34 39L34 37L36 37L36 38L37 38L37 34L38 34L38 35L39 35L39 36L40 36L40 35L41 35L41 33L40 33L40 32L41 32L41 29L40 29L40 30L39 30L39 28L40 28L40 27L41 27L41 24L40 24L40 23L41 23L41 22L40 22L40 21L41 21L41 13L40 13L40 12L41 12L41 9L40 9L40 8L39 8L39 9L36 9L36 8L34 8L34 10L36 10L36 11L37 11L37 13L36 13L36 15L37 15L37 14L38 14L38 15L40 15L40 16L39 16L39 19L40 19L40 20L39 20L39 22L40 22L40 23L39 23L39 24L37 24L37 25L36 25L36 23L35 23L35 21L36 21L36 22L38 22L38 21L37 21L37 19L38 19L38 17L36 17L36 16L35 16L35 14L33 14L33 13L35 13L35 12L34 12L34 11L33 11L33 9L32 9L32 8L33 8L33 6L32 6L32 5L31 5L31 3L32 3L32 1L33 1L33 0L32 0L32 1L31 1L31 3L28 3L28 2L30 2L30 0L29 0L29 1L28 1L28 0L27 0L27 1L26 1L26 0L24 0L24 2L23 2L23 0L21 0L21 1L20 1L20 2L21 2L21 1L22 1L22 2L23 2L23 3L20 3L20 4L21 4L21 5L20 5L20 7L21 7L21 5L23 5L23 6L22 6L22 8L23 8L23 9L24 9L24 10L25 10L25 11L26 11L26 10L27 10L27 11L29 11L29 13L28 13L28 15L29 15L29 17L32 17L32 18L33 18L33 17L32 17L32 16L30 16L30 15L29 15L29 13L30 13L30 14L32 14L32 15L34 15L34 16L35 16L35 17L34 17L34 18L35 18L35 19L34 19L34 20L35 20L35 21L33 21L33 20L31 20L31 19L30 19L30 18L29 18L29 19L28 19L28 16L27 16L27 14L25 14L25 13L24 13L24 14L25 14L25 15L24 15L24 17L26 17L26 16L27 16L27 19L25 19L25 18L23 18L23 17L22 17L22 18L21 18L21 19L19 19L19 18L20 18L20 16L22 16L22 14L21 14L21 15L20 15L20 13L17 13L17 12L15 12L15 10L14 10L14 7L15 7L15 6L16 6L16 7L17 7L17 8L16 8L16 11L19 11L19 10L20 10L20 11L21 11L21 13L22 13L22 11L23 11L23 12L24 12L24 11L23 11L23 10L22 10L22 11L21 11L21 9L20 9L20 8L19 8L19 5L18 5L18 7L17 7L17 6L16 6L16 5L17 5L17 4L18 4L18 3L19 3L19 2L18 2L18 3L17 3L17 2L16 2L16 1L17 1L17 0L16 0L16 1L14 1L14 2L13 2L13 0L12 0L12 1L11 1L11 0ZM18 0L18 1L19 1L19 0ZM27 1L27 2L28 2L28 1ZM10 2L10 3L11 3L11 4L10 4L10 5L11 5L11 4L12 4L12 5L13 5L13 7L12 7L12 6L11 6L11 7L10 7L10 6L9 6L9 7L10 7L10 8L8 8L8 9L10 9L10 10L9 10L9 11L8 11L8 10L7 10L7 9L6 9L6 10L5 10L5 9L4 9L4 10L3 10L3 12L5 12L5 14L7 14L7 15L6 15L6 16L8 16L8 17L9 17L9 18L8 18L8 19L9 19L9 20L10 20L10 24L11 24L11 25L10 25L10 27L9 27L9 28L8 28L8 30L7 30L7 29L6 29L6 30L7 30L7 31L6 31L6 32L9 32L9 33L10 33L10 34L11 34L11 33L12 33L12 32L11 32L11 33L10 33L10 31L13 31L13 33L14 33L14 32L16 32L16 33L15 33L15 34L14 34L14 36L13 36L13 37L12 37L12 39L13 39L13 40L14 40L14 39L15 39L15 38L16 38L16 37L15 37L15 36L16 36L16 35L18 35L18 37L19 37L19 36L20 36L20 35L22 35L22 34L23 34L23 33L24 33L24 32L26 32L26 35L27 35L27 33L29 33L29 32L26 32L26 31L27 31L27 30L28 30L28 31L30 31L30 29L31 29L31 28L32 28L32 27L33 27L33 29L32 29L32 31L33 31L33 32L34 32L34 31L35 31L35 32L37 32L37 33L39 33L39 34L40 34L40 33L39 33L39 31L38 31L38 30L37 30L37 31L35 31L35 30L36 30L36 29L37 29L37 27L36 27L36 29L35 29L35 28L34 28L34 27L33 27L33 26L32 26L32 25L35 25L35 26L36 26L36 25L35 25L35 24L34 24L34 23L33 23L33 21L30 21L30 20L29 20L29 21L28 21L28 20L26 20L26 22L25 22L25 20L16 20L16 19L18 19L18 18L16 18L16 19L15 19L15 17L17 17L17 15L19 15L19 16L20 16L20 15L19 15L19 14L16 14L16 16L15 16L15 14L14 14L14 12L12 12L12 13L13 13L13 14L14 14L14 15L12 15L12 16L8 16L8 14L9 14L9 15L10 15L10 14L11 14L11 13L9 13L9 12L11 12L11 9L10 9L10 8L11 8L11 7L12 7L12 9L13 9L13 7L14 7L14 6L15 6L15 5L16 5L16 4L17 4L17 3L15 3L15 2L14 2L14 3L13 3L13 4L12 4L12 2ZM24 2L24 4L23 4L23 5L25 5L25 7L26 7L26 8L27 8L27 9L29 9L29 10L31 10L31 12L32 12L32 13L33 13L33 11L32 11L32 9L29 9L29 8L27 8L27 7L28 7L28 5L27 5L27 4L28 4L28 3L26 3L26 2ZM14 4L14 5L15 5L15 4ZM25 4L25 5L26 5L26 7L27 7L27 5L26 5L26 4ZM29 4L29 5L30 5L30 6L29 6L29 7L30 7L30 8L32 8L32 6L31 6L31 5L30 5L30 4ZM23 6L23 7L24 7L24 6ZM30 6L30 7L31 7L31 6ZM17 8L17 10L18 10L18 9L19 9L19 8ZM25 9L25 10L26 10L26 9ZM6 10L6 11L5 11L5 12L6 12L6 13L7 13L7 12L8 12L8 11L7 11L7 10ZM13 10L13 11L14 11L14 10ZM6 11L6 12L7 12L7 11ZM38 11L38 12L39 12L39 11ZM26 12L26 13L27 13L27 12ZM1 14L1 15L2 15L2 16L3 16L3 17L2 17L2 18L3 18L3 17L4 17L4 18L5 18L5 15L4 15L4 16L3 16L3 14ZM25 15L25 16L26 16L26 15ZM14 16L14 17L15 17L15 16ZM6 17L6 18L7 18L7 17ZM10 17L10 18L9 18L9 19L10 19L10 18L11 18L11 17ZM12 17L12 18L13 18L13 19L11 19L11 20L13 20L13 21L16 21L16 20L15 20L15 19L14 19L14 18L13 18L13 17ZM35 17L35 18L36 18L36 17ZM22 18L22 19L23 19L23 18ZM6 19L6 20L5 20L5 21L6 21L6 22L7 22L7 23L8 23L8 25L9 25L9 22L8 22L8 20L7 20L7 19ZM35 19L35 20L36 20L36 19ZM6 20L6 21L7 21L7 20ZM17 21L17 23L16 23L16 22L11 22L11 23L12 23L12 24L13 24L13 25L14 25L14 26L12 26L12 27L10 27L10 29L9 29L9 30L10 30L10 29L11 29L11 28L12 28L12 29L15 29L15 28L12 28L12 27L15 27L15 24L14 24L14 23L16 23L16 24L17 24L17 25L18 25L18 26L19 26L19 30L20 30L20 26L21 26L21 28L22 28L22 29L21 29L21 30L22 30L22 31L20 31L20 32L19 32L19 31L18 31L18 29L17 29L17 28L16 28L16 29L17 29L17 31L16 31L16 32L17 32L17 33L16 33L16 34L15 34L15 35L16 35L16 34L18 34L18 35L19 35L19 33L21 33L21 32L24 32L24 31L23 31L23 30L22 30L22 29L23 29L23 28L25 28L25 29L27 29L27 28L25 28L25 23L24 23L24 21L22 21L22 23L24 23L24 24L23 24L23 25L24 25L24 27L23 27L23 28L22 28L22 25L20 25L20 24L21 24L21 21ZM27 21L27 23L26 23L26 24L28 24L28 25L27 25L27 26L26 26L26 27L28 27L28 29L30 29L30 28L31 28L31 26L30 26L30 25L32 25L32 23L31 23L31 22L29 22L29 24L28 24L28 21ZM19 22L19 23L18 23L18 24L19 24L19 23L20 23L20 22ZM30 23L30 24L31 24L31 23ZM6 25L6 26L7 26L7 27L6 27L6 28L7 28L7 27L8 27L8 26L7 26L7 25ZM28 25L28 26L29 26L29 25ZM37 25L37 26L38 26L38 28L39 28L39 25ZM3 26L3 27L5 27L5 26ZM16 26L16 27L17 27L17 26ZM1 28L1 29L3 29L3 28ZM4 28L4 31L5 31L5 28ZM33 29L33 30L34 30L34 29ZM13 30L13 31L14 31L14 30ZM0 32L0 33L2 33L2 32ZM18 32L18 33L19 33L19 32ZM31 32L31 33L30 33L30 34L29 34L29 37L28 37L28 39L30 39L30 37L31 37L31 36L32 36L32 35L30 35L30 34L32 34L32 32ZM33 33L33 36L36 36L36 33ZM34 34L34 35L35 35L35 34ZM25 36L25 37L26 37L26 38L27 38L27 36ZM13 37L13 38L14 38L14 37ZM40 37L40 38L38 38L38 39L36 39L36 40L37 40L37 41L40 41L40 40L41 40L41 37ZM19 38L19 39L20 39L20 38ZM10 39L10 40L11 40L11 39ZM0 0L0 7L7 7L7 0ZM1 1L1 6L6 6L6 1ZM2 2L2 5L5 5L5 2ZM34 0L34 7L41 7L41 0ZM35 1L35 6L40 6L40 1ZM36 2L36 5L39 5L39 2ZM0 34L0 41L7 41L7 34ZM1 35L1 40L6 40L6 35ZM2 36L2 39L5 39L5 36Z" fill="#000000"/></g></g></svg>
