<?xml version="1.0" encoding="UTF-8"?>
<svg xmlns="http://www.w3.org/2000/svg" version="1.1" width="200" height="200" viewBox="0 0 200 200"><rect x="0" y="0" width="200" height="200" fill="#ffffff"/><g transform="scale(4.878)"><g transform="translate(0,0)"><path fill-rule="evenodd" d="M8 0L8 3L9 3L9 5L8 5L8 9L9 9L9 10L8 10L8 11L9 11L9 10L11 10L11 9L12 9L12 10L13 10L13 11L14 11L14 10L15 10L15 12L16 12L16 13L17 13L17 12L19 12L19 11L20 11L20 10L19 10L19 9L20 9L20 8L21 8L21 6L22 6L22 8L23 8L23 10L21 10L21 11L24 11L24 9L25 9L25 8L26 8L26 10L25 10L25 11L26 11L26 13L27 13L27 14L25 14L25 15L24 15L24 13L25 13L25 12L23 12L23 13L22 13L22 12L20 12L20 13L18 13L18 14L17 14L17 15L15 15L15 13L14 13L14 14L13 14L13 12L12 12L12 11L11 11L11 12L10 12L10 13L11 13L11 14L12 14L12 18L11 18L11 17L10 17L10 16L8 16L8 14L9 14L9 12L6 12L6 13L3 13L3 12L5 12L5 11L7 11L7 10L6 10L6 9L7 9L7 8L6 8L6 9L5 9L5 8L2 8L2 9L1 9L1 10L0 10L0 16L1 16L1 18L0 18L0 19L1 19L1 20L0 20L0 21L1 21L1 22L0 22L0 26L1 26L1 27L2 27L2 28L0 28L0 33L1 33L1 30L2 30L2 32L4 32L4 33L5 33L5 32L4 32L4 30L5 30L5 31L7 31L7 32L6 32L6 33L8 33L8 34L10 34L10 35L9 35L9 36L8 36L8 39L9 39L9 41L10 41L10 38L11 38L11 39L13 39L13 41L14 41L14 38L15 38L15 40L16 40L16 39L18 39L18 41L20 41L20 40L19 40L19 39L20 39L20 38L19 38L19 36L21 36L21 39L27 39L27 41L31 41L31 40L33 40L33 41L34 41L34 40L33 40L33 39L32 39L32 38L31 38L31 37L30 37L30 38L27 38L27 37L29 37L29 36L32 36L32 37L33 37L33 38L34 38L34 39L35 39L35 40L36 40L36 39L37 39L37 40L40 40L40 38L41 38L41 37L39 37L39 36L41 36L41 35L40 35L40 34L41 34L41 33L39 33L39 32L37 32L37 31L40 31L40 30L41 30L41 29L40 29L40 28L41 28L41 27L40 27L40 26L41 26L41 23L39 23L39 24L40 24L40 26L39 26L39 25L36 25L36 24L37 24L37 21L38 21L38 22L39 22L39 20L36 20L36 19L35 19L35 17L36 17L36 18L37 18L37 19L38 19L38 18L37 18L37 17L39 17L39 16L37 16L37 14L38 14L38 15L39 15L39 14L41 14L41 13L39 13L39 14L38 14L38 13L36 13L36 14L35 14L35 15L36 15L36 16L35 16L35 17L34 17L34 16L33 16L33 17L31 17L31 16L29 16L29 15L28 15L28 16L29 16L29 17L31 17L31 18L30 18L30 19L31 19L31 18L32 18L32 19L33 19L33 18L34 18L34 19L35 19L35 21L34 21L34 20L32 20L32 21L31 21L31 20L30 20L30 21L31 21L31 22L32 22L32 23L34 23L34 24L31 24L31 23L30 23L30 24L29 24L29 25L28 25L28 24L24 24L24 23L26 23L26 22L27 22L27 23L29 23L29 21L28 21L28 18L27 18L27 14L29 14L29 13L30 13L30 15L31 15L31 12L32 12L32 13L33 13L33 14L32 14L32 15L34 15L34 13L35 13L35 12L38 12L38 11L40 11L40 10L41 10L41 8L38 8L38 9L40 9L40 10L37 10L37 9L36 9L36 8L33 8L33 6L32 6L32 7L31 7L31 5L33 5L33 4L30 4L30 5L29 5L29 4L28 4L28 5L27 5L27 4L25 4L25 5L24 5L24 4L23 4L23 3L25 3L25 0L24 0L24 1L23 1L23 3L22 3L22 2L20 2L20 0L19 0L19 2L18 2L18 4L16 4L16 3L15 3L15 2L16 2L16 1L18 1L18 0L16 0L16 1L15 1L15 2L13 2L13 1L14 1L14 0L11 0L11 1L12 1L12 2L11 2L11 3L9 3L9 2L10 2L10 1L9 1L9 0ZM21 0L21 1L22 1L22 0ZM26 0L26 1L27 1L27 2L26 2L26 3L31 3L31 2L30 2L30 0L29 0L29 1L27 1L27 0ZM31 0L31 1L32 1L32 2L33 2L33 1L32 1L32 0ZM19 2L19 5L18 5L18 6L17 6L17 7L16 7L16 6L15 6L15 7L14 7L14 4L15 4L15 3L14 3L14 4L12 4L12 6L11 6L11 4L10 4L10 6L9 6L9 9L11 9L11 8L10 8L10 6L11 6L11 7L12 7L12 8L13 8L13 7L14 7L14 8L15 8L15 10L16 10L16 12L17 12L17 11L19 11L19 10L18 10L18 9L19 9L19 7L20 7L20 6L21 6L21 4L22 4L22 5L23 5L23 7L24 7L24 5L23 5L23 4L22 4L22 3L20 3L20 2ZM19 5L19 6L18 6L18 7L19 7L19 6L20 6L20 5ZM25 5L25 7L26 7L26 8L28 8L28 9L27 9L27 10L26 10L26 11L27 11L27 10L28 10L28 11L29 11L29 12L28 12L28 13L29 13L29 12L31 12L31 11L32 11L32 12L33 12L33 13L34 13L34 12L33 12L33 11L34 11L34 9L32 9L32 8L31 8L31 9L29 9L29 8L30 8L30 6L29 6L29 5L28 5L28 6L27 6L27 7L26 7L26 5ZM12 6L12 7L13 7L13 6ZM28 6L28 8L29 8L29 6ZM15 7L15 8L16 8L16 10L17 10L17 9L18 9L18 8L16 8L16 7ZM2 9L2 10L3 10L3 9ZM28 9L28 10L29 10L29 11L31 11L31 10L32 10L32 11L33 11L33 10L32 10L32 9L31 9L31 10L29 10L29 9ZM35 9L35 10L36 10L36 11L37 11L37 10L36 10L36 9ZM1 12L1 13L2 13L2 12ZM11 12L11 13L12 13L12 12ZM6 13L6 14L5 14L5 15L4 15L4 16L3 16L3 14L2 14L2 18L1 18L1 19L2 19L2 18L3 18L3 19L4 19L4 18L5 18L5 21L6 21L6 22L8 22L8 23L9 23L9 25L6 25L6 24L7 24L7 23L5 23L5 22L4 22L4 23L2 23L2 24L1 24L1 25L2 25L2 27L3 27L3 26L5 26L5 27L4 27L4 28L2 28L2 30L4 30L4 29L5 29L5 30L7 30L7 31L8 31L8 30L7 30L7 29L5 29L5 28L8 28L8 29L9 29L9 31L10 31L10 27L6 27L6 26L9 26L9 25L10 25L10 26L11 26L11 27L12 27L12 29L11 29L11 30L12 30L12 29L13 29L13 31L12 31L12 32L10 32L10 33L12 33L12 34L11 34L11 35L10 35L10 37L9 37L9 38L10 38L10 37L11 37L11 36L12 36L12 37L13 37L13 38L14 38L14 37L15 37L15 36L14 36L14 35L15 35L15 34L16 34L16 35L18 35L18 36L19 36L19 33L17 33L17 32L19 32L19 31L18 31L18 30L23 30L23 32L21 32L21 31L20 31L20 35L21 35L21 34L22 34L22 33L23 33L23 34L24 34L24 35L25 35L25 34L24 34L24 33L26 33L26 32L27 32L27 31L25 31L25 30L23 30L23 29L27 29L27 28L30 28L30 29L28 29L28 30L29 30L29 31L28 31L28 32L30 32L30 31L31 31L31 30L32 30L32 31L33 31L33 32L35 32L35 31L34 31L34 30L36 30L36 29L38 29L38 30L39 30L39 26L38 26L38 28L36 28L36 27L37 27L37 26L36 26L36 25L35 25L35 24L36 24L36 23L35 23L35 22L36 22L36 21L35 21L35 22L34 22L34 21L32 21L32 22L34 22L34 23L35 23L35 24L34 24L34 25L32 25L32 26L28 26L28 25L27 25L27 26L28 26L28 27L27 27L27 28L24 28L24 27L25 27L25 26L26 26L26 25L24 25L24 24L23 24L23 23L24 23L24 22L26 22L26 21L25 21L25 20L26 20L26 19L25 19L25 20L24 20L24 21L23 21L23 23L22 23L22 21L21 21L21 23L22 23L22 24L21 24L21 25L19 25L19 26L18 26L18 24L17 24L17 23L16 23L16 25L15 25L15 23L14 23L14 25L15 25L15 26L16 26L16 27L17 27L17 28L16 28L16 29L15 29L15 28L14 28L14 27L13 27L13 21L11 21L11 20L12 20L12 19L8 19L8 20L7 20L7 19L6 19L6 18L7 18L7 17L8 17L8 16L7 16L7 15L6 15L6 14L8 14L8 13ZM20 13L20 15L17 15L17 16L16 16L16 17L15 17L15 16L14 16L14 15L13 15L13 16L14 16L14 17L15 17L15 18L13 18L13 20L14 20L14 22L17 22L17 20L18 20L18 19L19 19L19 20L20 20L20 19L21 19L21 20L22 20L22 19L23 19L23 18L22 18L22 19L21 19L21 16L23 16L23 17L25 17L25 18L26 18L26 15L25 15L25 16L23 16L23 15L22 15L22 13ZM4 16L4 17L5 17L5 16ZM6 16L6 17L7 17L7 16ZM17 16L17 19L18 19L18 18L19 18L19 19L20 19L20 18L19 18L19 16ZM36 16L36 17L37 17L37 16ZM40 16L40 18L39 18L39 19L40 19L40 18L41 18L41 16ZM14 19L14 20L16 20L16 19ZM1 20L1 21L2 21L2 20ZM6 20L6 21L7 21L7 20ZM8 20L8 21L9 21L9 22L10 22L10 23L11 23L11 22L10 22L10 20ZM40 20L40 21L41 21L41 20ZM19 21L19 22L18 22L18 23L20 23L20 21ZM27 21L27 22L28 22L28 21ZM2 24L2 25L3 25L3 24ZM10 24L10 25L11 25L11 24ZM30 24L30 25L31 25L31 24ZM5 25L5 26L6 26L6 25ZM23 25L23 27L19 27L19 28L18 28L18 29L19 29L19 28L20 28L20 29L21 29L21 28L22 28L22 29L23 29L23 27L24 27L24 25ZM34 25L34 26L32 26L32 27L31 27L31 28L32 28L32 27L34 27L34 26L35 26L35 27L36 27L36 26L35 26L35 25ZM33 28L33 29L32 29L32 30L33 30L33 29L34 29L34 28ZM35 28L35 29L36 29L36 28ZM30 29L30 30L31 30L31 29ZM14 30L14 31L15 31L15 32L13 32L13 33L14 33L14 34L13 34L13 35L14 35L14 34L15 34L15 32L17 32L17 31L15 31L15 30ZM24 31L24 32L25 32L25 31ZM8 32L8 33L9 33L9 32ZM16 33L16 34L17 34L17 33ZM27 33L27 34L26 34L26 37L25 37L25 36L23 36L23 37L24 37L24 38L26 38L26 37L27 37L27 34L29 34L29 33ZM30 33L30 35L31 35L31 34L32 34L32 33ZM33 33L33 36L36 36L36 33ZM38 33L38 34L37 34L37 35L38 35L38 36L37 36L37 37L38 37L38 36L39 36L39 33ZM34 34L34 35L35 35L35 34ZM34 37L34 38L36 38L36 37ZM37 38L37 39L38 39L38 38ZM28 39L28 40L31 40L31 39ZM11 40L11 41L12 41L12 40ZM22 40L22 41L23 41L23 40ZM24 40L24 41L26 41L26 40ZM0 0L0 7L7 7L7 0ZM1 1L1 6L6 6L6 1ZM2 2L2 5L5 5L5 2ZM34 0L34 7L41 7L41 0ZM35 1L35 6L40 6L40 1ZM36 2L36 5L39 5L39 2ZM0 34L0 41L7 41L7 34ZM1 35L1 40L6 40L6 35ZM2 36L2 39L5 39L5 36Z" fill="#000000"/></g></g></svg>
