<?xml version="1.0" encoding="UTF-8"?>
<svg xmlns="http://www.w3.org/2000/svg" version="1.1" width="200" height="200" viewBox="0 0 200 200"><rect x="0" y="0" width="200" height="200" fill="#ffffff"/><g transform="scale(4.878)"><g transform="translate(0,0)"><path fill-rule="evenodd" d="M8 0L8 2L9 2L9 0ZM10 0L10 1L11 1L11 2L10 2L10 3L13 3L13 2L15 2L15 4L16 4L16 5L13 5L13 4L12 4L12 8L9 8L9 9L7 9L7 8L6 8L6 9L7 9L7 10L5 10L5 9L4 9L4 8L3 8L3 9L4 9L4 10L5 10L5 11L7 11L7 10L10 10L10 9L11 9L11 12L10 12L10 11L8 11L8 12L6 12L6 13L3 13L3 14L6 14L6 15L3 15L3 17L2 17L2 16L1 16L1 19L2 19L2 20L3 20L3 18L5 18L5 16L6 16L6 17L7 17L7 18L6 18L6 19L5 19L5 20L4 20L4 21L5 21L5 23L7 23L7 24L4 24L4 25L5 25L5 26L3 26L3 27L2 27L2 28L3 28L3 29L1 29L1 30L0 30L0 31L1 31L1 30L3 30L3 31L2 31L2 32L3 32L3 31L4 31L4 33L5 33L5 32L6 32L6 33L8 33L8 34L10 34L10 35L9 35L9 37L8 37L8 38L9 38L9 40L10 40L10 41L11 41L11 40L10 40L10 35L12 35L12 34L13 34L13 35L15 35L15 33L16 33L16 34L17 34L17 35L19 35L19 36L18 36L18 37L17 37L17 38L18 38L18 39L13 39L13 36L12 36L12 38L11 38L11 39L12 39L12 41L15 41L15 40L17 40L17 41L18 41L18 39L19 39L19 40L20 40L20 41L23 41L23 40L24 40L24 41L27 41L27 40L25 40L25 37L22 37L22 36L23 36L23 34L26 34L26 35L25 35L25 36L26 36L26 37L27 37L27 36L28 36L28 35L29 35L29 36L30 36L30 34L29 34L29 32L30 32L30 31L31 31L31 34L32 34L32 37L31 37L31 38L30 38L30 37L28 37L28 39L29 39L29 40L28 40L28 41L33 41L33 39L34 39L34 38L36 38L36 40L37 40L37 41L40 41L40 39L41 39L41 38L40 38L40 37L38 37L38 36L39 36L39 35L38 35L38 33L39 33L39 34L41 34L41 32L35 32L35 31L37 31L37 30L38 30L38 31L39 31L39 30L40 30L40 31L41 31L41 28L40 28L40 27L41 27L41 26L40 26L40 27L39 27L39 28L37 28L37 30L35 30L35 31L34 31L34 30L32 30L32 29L33 29L33 27L30 27L30 26L32 26L32 24L34 24L34 25L35 25L35 26L34 26L34 27L36 27L36 24L34 24L34 22L35 22L35 23L37 23L37 24L38 24L38 25L37 25L37 27L38 27L38 26L39 26L39 25L40 25L40 24L41 24L41 23L40 23L40 22L39 22L39 23L38 23L38 22L36 22L36 21L37 21L37 20L38 20L38 21L40 21L40 20L41 20L41 16L39 16L39 17L38 17L38 18L39 18L39 19L40 19L40 20L38 20L38 19L36 19L36 21L35 21L35 19L34 19L34 18L35 18L35 17L36 17L36 16L35 16L35 17L33 17L33 16L32 16L32 15L33 15L33 14L34 14L34 15L35 15L35 14L36 14L36 13L34 13L34 12L35 12L35 10L36 10L36 11L37 11L37 10L38 10L38 8L35 8L35 9L34 9L34 10L31 10L31 11L30 11L30 9L29 9L29 11L28 11L28 13L27 13L27 10L26 10L26 9L27 9L27 8L28 8L28 7L29 7L29 8L32 8L32 9L33 9L33 8L32 8L32 7L33 7L33 6L32 6L32 5L33 5L33 3L32 3L32 2L33 2L33 0L31 0L31 1L30 1L30 0L27 0L27 2L26 2L26 3L25 3L25 0L24 0L24 1L23 1L23 0L22 0L22 4L23 4L23 5L21 5L21 4L19 4L19 5L18 5L18 7L17 7L17 6L16 6L16 5L17 5L17 4L18 4L18 2L20 2L20 3L21 3L21 2L20 2L20 0L19 0L19 1L17 1L17 0L16 0L16 2L15 2L15 1L13 1L13 2L12 2L12 1L11 1L11 0ZM28 1L28 2L27 2L27 3L26 3L26 5L25 5L25 3L24 3L24 2L23 2L23 4L24 4L24 5L23 5L23 7L22 7L22 6L21 6L21 5L19 5L19 8L18 8L18 9L17 9L17 7L16 7L16 6L15 6L15 8L14 8L14 6L13 6L13 8L12 8L12 11L13 11L13 13L12 13L12 14L10 14L10 13L6 13L6 14L7 14L7 15L6 15L6 16L7 16L7 17L8 17L8 16L9 16L9 17L10 17L10 18L9 18L9 19L8 19L8 18L7 18L7 19L6 19L6 20L5 20L5 21L6 21L6 22L8 22L8 20L9 20L9 21L10 21L10 22L9 22L9 24L8 24L8 25L6 25L6 26L5 26L5 28L4 28L4 29L6 29L6 30L8 30L8 31L6 31L6 32L8 32L8 31L11 31L11 32L10 32L10 34L12 34L12 33L11 33L11 32L12 32L12 31L11 31L11 29L12 29L12 27L13 27L13 28L14 28L14 30L13 30L13 31L14 31L14 32L13 32L13 33L14 33L14 32L15 32L15 31L14 31L14 30L15 30L15 29L16 29L16 30L19 30L19 29L18 29L18 25L19 25L19 27L20 27L20 26L21 26L21 25L23 25L23 26L24 26L24 27L23 27L23 30L24 30L24 31L21 31L21 30L22 30L22 28L20 28L20 29L21 29L21 30L20 30L20 33L21 33L21 32L22 32L22 34L23 34L23 33L24 33L24 31L25 31L25 32L26 32L26 33L27 33L27 35L26 35L26 36L27 36L27 35L28 35L28 32L26 32L26 31L30 31L30 30L31 30L31 28L30 28L30 29L28 29L28 28L29 28L29 26L30 26L30 25L28 25L28 24L27 24L27 23L28 23L28 20L29 20L29 19L30 19L30 17L29 17L29 16L28 16L28 15L26 15L26 14L27 14L27 13L26 13L26 11L25 11L25 8L26 8L26 6L27 6L27 7L28 7L28 6L29 6L29 7L30 7L30 6L29 6L29 5L30 5L30 4L28 4L28 3L30 3L30 1ZM31 1L31 2L32 2L32 1ZM8 3L8 7L9 7L9 6L10 6L10 7L11 7L11 6L10 6L10 4L9 4L9 3ZM16 3L16 4L17 4L17 3ZM27 4L27 6L28 6L28 4ZM31 4L31 5L32 5L32 4ZM24 5L24 7L25 7L25 5ZM20 6L20 8L21 8L21 6ZM31 6L31 7L32 7L32 6ZM15 8L15 9L13 9L13 11L16 11L16 12L14 12L14 13L13 13L13 14L12 14L12 15L14 15L14 16L12 16L12 19L11 19L11 18L10 18L10 19L11 19L11 20L10 20L10 21L12 21L12 19L13 19L13 20L18 20L18 21L17 21L17 22L16 22L16 21L15 21L15 22L14 22L14 21L13 21L13 22L11 22L11 23L10 23L10 24L9 24L9 25L10 25L10 26L8 26L8 27L7 27L7 26L6 26L6 27L7 27L7 28L6 28L6 29L8 29L8 30L10 30L10 29L9 29L9 28L8 28L8 27L10 27L10 28L11 28L11 27L10 27L10 26L11 26L11 25L12 25L12 26L14 26L14 27L15 27L15 28L16 28L16 29L17 29L17 28L16 28L16 26L17 26L17 24L16 24L16 26L15 26L15 22L16 22L16 23L17 23L17 22L18 22L18 23L19 23L19 24L21 24L21 22L19 22L19 21L22 21L22 23L23 23L23 24L24 24L24 23L25 23L25 25L26 25L26 26L25 26L25 27L26 27L26 28L27 28L27 27L26 27L26 26L27 26L27 25L26 25L26 23L25 23L25 21L24 21L24 22L23 22L23 17L24 17L24 16L25 16L25 15L24 15L24 16L21 16L21 15L22 15L22 13L23 13L23 14L25 14L25 11L24 11L24 10L22 10L22 9L21 9L21 11L20 11L20 12L19 12L19 13L20 13L20 14L19 14L19 15L20 15L20 16L18 16L18 15L14 15L14 13L17 13L17 14L18 14L18 13L17 13L17 12L18 12L18 11L19 11L19 10L20 10L20 9L19 9L19 10L17 10L17 9L16 9L16 8ZM39 8L39 9L40 9L40 10L41 10L41 8ZM0 9L0 12L1 12L1 15L2 15L2 12L1 12L1 11L3 11L3 10L2 10L2 9ZM36 9L36 10L37 10L37 9ZM21 11L21 13L22 13L22 11ZM23 11L23 13L24 13L24 11ZM29 11L29 12L30 12L30 11ZM32 11L32 12L31 12L31 13L30 13L30 15L32 15L32 14L33 14L33 11ZM38 11L38 13L37 13L37 14L38 14L38 15L37 15L37 16L38 16L38 15L39 15L39 14L38 14L38 13L39 13L39 12L40 12L40 13L41 13L41 12L40 12L40 11ZM28 13L28 14L29 14L29 13ZM8 14L8 15L7 15L7 16L8 16L8 15L9 15L9 14ZM20 14L20 15L21 15L21 14ZM40 14L40 15L41 15L41 14ZM10 16L10 17L11 17L11 16ZM15 16L15 17L13 17L13 19L18 19L18 20L20 20L20 19L21 19L21 18L22 18L22 17L20 17L20 18L19 18L19 17L18 17L18 16L17 16L17 18L16 18L16 16ZM27 16L27 17L26 17L26 19L24 19L24 20L26 20L26 21L27 21L27 20L26 20L26 19L27 19L27 17L28 17L28 16ZM31 17L31 19L32 19L32 18L33 18L33 17ZM18 18L18 19L19 19L19 18ZM28 18L28 19L29 19L29 18ZM33 19L33 21L32 21L32 20L31 20L31 22L32 22L32 23L33 23L33 22L34 22L34 19ZM6 20L6 21L7 21L7 20ZM1 21L1 22L0 22L0 23L1 23L1 22L3 22L3 23L2 23L2 24L3 24L3 23L4 23L4 22L3 22L3 21ZM11 23L11 24L12 24L12 25L13 25L13 24L14 24L14 23L13 23L13 24L12 24L12 23ZM29 23L29 24L31 24L31 23ZM0 25L0 27L1 27L1 26L2 26L2 25ZM35 28L35 29L36 29L36 28ZM39 28L39 29L38 29L38 30L39 30L39 29L40 29L40 28ZM24 29L24 30L25 30L25 29ZM27 29L27 30L28 30L28 29ZM4 30L4 31L5 31L5 30ZM16 31L16 33L18 33L18 34L19 34L19 35L20 35L20 36L19 36L19 37L18 37L18 38L19 38L19 39L21 39L21 40L23 40L23 38L22 38L22 37L20 37L20 36L21 36L21 34L19 34L19 33L18 33L18 31ZM33 31L33 32L34 32L34 31ZM0 32L0 33L1 33L1 32ZM33 33L33 36L36 36L36 33ZM34 34L34 35L35 35L35 34ZM14 37L14 38L15 38L15 37ZM19 37L19 38L20 38L20 37ZM36 37L36 38L37 38L37 40L38 40L38 38L37 38L37 37ZM21 38L21 39L22 39L22 38ZM26 38L26 39L27 39L27 38ZM31 38L31 39L30 39L30 40L32 40L32 39L33 39L33 38ZM39 38L39 39L40 39L40 38ZM0 0L0 7L7 7L7 0ZM1 1L1 6L6 6L6 1ZM2 2L2 5L5 5L5 2ZM34 0L34 7L41 7L41 0ZM35 1L35 6L40 6L40 1ZM36 2L36 5L39 5L39 2ZM0 34L0 41L7 41L7 34ZM1 35L1 40L6 40L6 35ZM2 36L2 39L5 39L5 36Z" fill="#000000"/></g></g></svg>
