<?xml version="1.0" encoding="UTF-8"?>
<svg xmlns="http://www.w3.org/2000/svg" version="1.1" width="200" height="200" viewBox="0 0 200 200"><rect x="0" y="0" width="200" height="200" fill="#ffffff"/><g transform="scale(6.897)"><g transform="translate(0,0)"><path fill-rule="evenodd" d="M9 0L9 1L10 1L10 2L11 2L11 1L12 1L12 2L13 2L13 1L14 1L14 4L12 4L12 3L10 3L10 4L8 4L8 5L10 5L10 7L9 7L9 6L8 6L8 8L6 8L6 9L5 9L5 10L6 10L6 11L5 11L5 12L3 12L3 11L2 11L2 10L3 10L3 9L4 9L4 8L2 8L2 9L1 9L1 10L0 10L0 12L2 12L2 13L1 13L1 14L0 14L0 17L1 17L1 18L0 18L0 19L1 19L1 18L3 18L3 17L2 17L2 16L3 16L3 15L7 15L7 16L4 16L4 18L5 18L5 20L3 20L3 19L2 19L2 20L1 20L1 21L2 21L2 20L3 20L3 21L7 21L7 20L6 20L6 19L7 19L7 18L8 18L8 17L9 17L9 19L10 19L10 20L8 20L8 23L9 23L9 24L10 24L10 25L8 25L8 27L9 27L9 26L10 26L10 28L9 28L9 29L10 29L10 28L11 28L11 29L12 29L12 28L14 28L14 29L17 29L17 28L20 28L20 29L22 29L22 27L21 27L21 28L20 28L20 27L18 27L18 26L20 26L20 25L23 25L23 26L24 26L24 27L23 27L23 28L26 28L26 27L25 27L25 26L24 26L24 25L26 25L26 26L27 26L27 25L29 25L29 23L28 23L28 20L27 20L27 18L28 18L28 19L29 19L29 17L26 17L26 16L25 16L25 15L24 15L24 16L23 16L23 15L22 15L22 14L24 14L24 13L25 13L25 14L26 14L26 15L27 15L27 16L28 16L28 15L29 15L29 14L28 14L28 15L27 15L27 13L28 13L28 12L29 12L29 11L28 11L28 12L27 12L27 11L26 11L26 10L25 10L25 8L24 8L24 10L23 10L23 11L24 11L24 10L25 10L25 11L26 11L26 12L27 12L27 13L25 13L25 12L23 12L23 13L22 13L22 14L21 14L21 13L20 13L20 14L19 14L19 12L20 12L20 11L19 11L19 12L18 12L18 11L17 11L17 10L18 10L18 9L17 9L17 10L16 10L16 11L14 11L14 12L12 12L12 17L13 17L13 18L11 18L11 15L10 15L10 14L11 14L11 12L10 12L10 10L11 10L11 11L12 11L12 10L14 10L14 7L15 7L15 6L16 6L16 8L15 8L15 9L16 9L16 8L20 8L20 9L21 9L21 12L22 12L22 9L23 9L23 8L20 8L20 7L21 7L21 0L20 0L20 1L19 1L19 0L18 0L18 1L17 1L17 2L16 2L16 0L15 0L15 1L14 1L14 0L13 0L13 1L12 1L12 0ZM18 1L18 2L17 2L17 3L16 3L16 2L15 2L15 3L16 3L16 5L17 5L17 7L18 7L18 6L19 6L19 7L20 7L20 5L19 5L19 4L18 4L18 2L19 2L19 3L20 3L20 2L19 2L19 1ZM10 4L10 5L11 5L11 7L12 7L12 5L11 5L11 4ZM14 4L14 6L13 6L13 7L14 7L14 6L15 6L15 4ZM17 4L17 5L18 5L18 4ZM9 8L9 9L8 9L8 11L6 11L6 12L7 12L7 13L6 13L6 14L7 14L7 15L9 15L9 17L10 17L10 15L9 15L9 13L10 13L10 12L9 12L9 9L10 9L10 8ZM6 9L6 10L7 10L7 9ZM27 9L27 10L29 10L29 9ZM14 12L14 13L16 13L16 12ZM17 12L17 13L18 13L18 12ZM3 13L3 14L5 14L5 13ZM7 13L7 14L8 14L8 13ZM1 14L1 16L2 16L2 14ZM13 14L13 17L14 17L14 19L13 19L13 22L14 22L14 23L13 23L13 26L14 26L14 27L15 27L15 28L17 28L17 26L18 26L18 24L19 24L19 25L20 25L20 24L19 24L19 23L20 23L20 20L22 20L22 19L24 19L24 18L25 18L25 20L26 20L26 22L25 22L25 23L26 23L26 25L27 25L27 24L28 24L28 23L27 23L27 20L26 20L26 17L25 17L25 16L24 16L24 17L23 17L23 18L22 18L22 17L21 17L21 18L20 18L20 20L19 20L19 17L20 17L20 16L21 16L21 14L20 14L20 15L19 15L19 14L16 14L16 15L17 15L17 16L15 16L15 17L14 17L14 15L15 15L15 14ZM7 16L7 17L6 17L6 18L7 18L7 17L8 17L8 16ZM17 16L17 17L19 17L19 16ZM10 18L10 19L11 19L11 18ZM15 18L15 19L14 19L14 22L15 22L15 20L16 20L16 23L15 23L15 24L14 24L14 26L15 26L15 27L16 27L16 26L17 26L17 24L18 24L18 21L19 21L19 20L18 20L18 19L17 19L17 20L16 20L16 18ZM21 18L21 19L22 19L22 18ZM9 21L9 23L11 23L11 22L12 22L12 21L11 21L11 22L10 22L10 21ZM21 21L21 24L24 24L24 21ZM22 22L22 23L23 23L23 22ZM16 23L16 24L17 24L17 23ZM11 25L11 28L12 28L12 25ZM28 26L28 27L27 27L27 28L29 28L29 26ZM0 0L0 7L7 7L7 0ZM1 1L1 6L6 6L6 1ZM2 2L2 5L5 5L5 2ZM22 0L22 7L29 7L29 0ZM23 1L23 6L28 6L28 1ZM24 2L24 5L27 5L27 2ZM0 22L0 29L7 29L7 22ZM1 23L1 28L6 28L6 23ZM2 24L2 27L5 27L5 24Z" fill="#000000"/></g></g></svg>
