<?xml version="1.0" encoding="UTF-8"?>
<svg xmlns="http://www.w3.org/2000/svg" version="1.1" width="200" height="200" viewBox="0 0 200 200"><rect x="0" y="0" width="200" height="200" fill="#ffffff"/><g transform="scale(4.878)"><g transform="translate(0,0)"><path fill-rule="evenodd" d="M8 0L8 2L9 2L9 0ZM10 0L10 3L8 3L8 7L9 7L9 8L10 8L10 9L9 9L9 10L12 10L12 11L14 11L14 12L11 12L11 11L9 11L9 12L10 12L10 13L11 13L11 14L9 14L9 16L8 16L8 15L7 15L7 14L8 14L8 12L6 12L6 11L7 11L7 10L8 10L8 9L7 9L7 8L6 8L6 9L4 9L4 8L3 8L3 9L1 9L1 10L0 10L0 11L1 11L1 13L0 13L0 15L1 15L1 16L0 16L0 17L4 17L4 19L2 19L2 18L1 18L1 20L2 20L2 21L1 21L1 22L0 22L0 24L1 24L1 26L0 26L0 28L1 28L1 29L2 29L2 30L3 30L3 31L4 31L4 32L2 32L2 33L5 33L5 31L8 31L8 32L6 32L6 33L8 33L8 34L9 34L9 35L11 35L11 36L9 36L9 37L8 37L8 38L10 38L10 39L9 39L9 41L10 41L10 39L12 39L12 38L10 38L10 37L11 37L11 36L12 36L12 37L13 37L13 36L12 36L12 35L13 35L13 34L14 34L14 36L15 36L15 38L13 38L13 39L15 39L15 38L17 38L17 37L16 37L16 33L17 33L17 29L18 29L18 31L19 31L19 32L20 32L20 31L21 31L21 33L22 33L22 30L23 30L23 32L24 32L24 31L25 31L25 33L24 33L24 35L23 35L23 34L22 34L22 35L21 35L21 34L20 34L20 33L18 33L18 35L17 35L17 36L18 36L18 37L19 37L19 38L20 38L20 37L21 37L21 38L22 38L22 40L24 40L24 39L26 39L26 40L27 40L27 39L26 39L26 38L27 38L27 36L28 36L28 37L29 37L29 36L30 36L30 34L32 34L32 37L34 37L34 38L36 38L36 40L37 40L37 41L40 41L40 39L41 39L41 38L40 38L40 37L41 37L41 36L40 36L40 35L39 35L39 34L41 34L41 29L39 29L39 28L37 28L37 30L36 30L36 29L35 29L35 31L34 31L34 30L32 30L32 29L33 29L33 27L30 27L30 26L33 26L33 24L34 24L34 25L35 25L35 26L34 26L34 27L35 27L35 26L36 26L36 27L38 27L38 26L39 26L39 25L40 25L40 24L41 24L41 23L40 23L40 22L39 22L39 23L37 23L37 22L38 22L38 21L40 21L40 20L41 20L41 16L39 16L39 17L40 17L40 20L38 20L38 19L39 19L39 18L38 18L38 16L37 16L37 19L36 19L36 21L35 21L35 19L34 19L34 18L35 18L35 17L36 17L36 16L35 16L35 17L32 17L32 15L33 15L33 14L34 14L34 15L37 15L37 14L36 14L36 13L34 13L34 12L35 12L35 9L37 9L37 10L36 10L36 11L37 11L37 10L38 10L38 8L35 8L35 9L32 9L32 10L31 10L31 8L32 8L32 7L33 7L33 0L31 0L31 1L30 1L30 0L27 0L27 2L26 2L26 3L25 3L25 2L21 2L21 1L24 1L24 0L21 0L21 1L20 1L20 0L19 0L19 1L18 1L18 0L15 0L15 1L14 1L14 0L13 0L13 2L15 2L15 3L12 3L12 2L11 2L11 0ZM15 1L15 2L16 2L16 3L15 3L15 4L14 4L14 5L13 5L13 4L12 4L12 5L11 5L11 9L13 9L13 7L14 7L14 5L15 5L15 4L16 4L16 5L17 5L17 9L18 9L18 5L19 5L19 7L20 7L20 6L21 6L21 7L22 7L22 8L21 8L21 9L22 9L22 10L23 10L23 13L22 13L22 12L21 12L21 11L20 11L20 12L21 12L21 13L20 13L20 14L19 14L19 13L17 13L17 14L18 14L18 15L17 15L17 16L19 16L19 17L16 17L16 14L15 14L15 16L14 16L14 18L13 18L13 16L12 16L12 15L10 15L10 16L9 16L9 17L8 17L8 16L7 16L7 15L6 15L6 14L7 14L7 13L3 13L3 12L5 12L5 11L6 11L6 10L7 10L7 9L6 9L6 10L5 10L5 11L4 11L4 9L3 9L3 11L2 11L2 10L1 10L1 11L2 11L2 14L1 14L1 15L2 15L2 16L3 16L3 15L4 15L4 17L5 17L5 16L7 16L7 17L6 17L6 18L5 18L5 19L4 19L4 20L3 20L3 21L2 21L2 23L3 23L3 24L2 24L2 26L1 26L1 27L2 27L2 26L3 26L3 24L4 24L4 25L5 25L5 26L4 26L4 27L6 27L6 28L3 28L3 30L4 30L4 29L6 29L6 30L8 30L8 31L9 31L9 32L10 32L10 33L9 33L9 34L12 34L12 33L16 33L16 32L12 32L12 33L11 33L11 32L10 32L10 30L12 30L12 31L13 31L13 29L14 29L14 31L16 31L16 30L15 30L15 29L17 29L17 28L16 28L16 26L18 26L18 28L19 28L19 30L21 30L21 29L20 29L20 28L19 28L19 27L21 27L21 26L22 26L22 27L23 27L23 26L25 26L25 27L26 27L26 28L27 28L27 29L28 29L28 30L27 30L27 31L26 31L26 30L25 30L25 28L24 28L24 30L25 30L25 31L26 31L26 33L25 33L25 34L26 34L26 33L27 33L27 35L25 35L25 36L23 36L23 35L22 35L22 36L23 36L23 37L24 37L24 38L26 38L26 37L25 37L25 36L27 36L27 35L28 35L28 34L30 34L30 32L27 32L27 31L29 31L29 30L31 30L31 28L30 28L30 29L28 29L28 25L29 25L29 26L30 26L30 25L29 25L29 24L31 24L31 25L32 25L32 23L28 23L28 22L29 22L29 20L28 20L28 19L30 19L30 18L31 18L31 19L32 19L32 20L31 20L31 22L34 22L34 24L36 24L36 26L37 26L37 25L38 25L38 24L37 24L37 23L35 23L35 22L34 22L34 19L33 19L33 18L32 18L32 17L31 17L31 16L30 16L30 17L29 17L29 16L28 16L28 15L25 15L25 14L26 14L26 13L28 13L28 14L29 14L29 13L28 13L28 11L29 11L29 12L31 12L31 13L30 13L30 15L32 15L32 14L33 14L33 10L32 10L32 12L31 12L31 10L28 10L28 8L26 8L26 5L27 5L27 4L29 4L29 5L28 5L28 6L27 6L27 7L28 7L28 6L29 6L29 7L30 7L30 8L29 8L29 9L30 9L30 8L31 8L31 7L32 7L32 6L31 6L31 7L30 7L30 6L29 6L29 5L30 5L30 4L29 4L29 3L30 3L30 1L28 1L28 2L27 2L27 3L26 3L26 5L24 5L24 4L25 4L25 3L24 3L24 4L23 4L23 3L21 3L21 2L20 2L20 3L19 3L19 4L18 4L18 5L17 5L17 4L16 4L16 3L17 3L17 2L18 2L18 1L17 1L17 2L16 2L16 1ZM31 1L31 2L32 2L32 1ZM10 3L10 4L11 4L11 3ZM20 3L20 4L21 4L21 6L22 6L22 7L23 7L23 6L24 6L24 7L25 7L25 6L24 6L24 5L22 5L22 4L21 4L21 3ZM31 4L31 5L32 5L32 4ZM9 5L9 7L10 7L10 5ZM12 5L12 7L13 7L13 5ZM15 6L15 7L16 7L16 6ZM19 8L19 10L18 10L18 12L19 12L19 10L20 10L20 8ZM22 8L22 9L23 9L23 10L24 10L24 9L26 9L26 10L25 10L25 13L23 13L23 14L22 14L22 13L21 13L21 15L20 15L20 17L19 17L19 18L17 18L17 19L16 19L16 21L17 21L17 22L13 22L13 20L14 20L14 19L15 19L15 18L16 18L16 17L15 17L15 18L14 18L14 19L13 19L13 20L12 20L12 19L11 19L11 17L12 17L12 16L11 16L11 17L10 17L10 19L9 19L9 21L7 21L7 20L8 20L8 19L7 19L7 18L8 18L8 17L7 17L7 18L6 18L6 19L5 19L5 21L3 21L3 22L6 22L6 23L7 23L7 24L5 24L5 23L4 23L4 24L5 24L5 25L7 25L7 26L6 26L6 27L7 27L7 28L6 28L6 29L8 29L8 30L9 30L9 29L11 29L11 28L13 28L13 25L11 25L11 23L13 23L13 24L14 24L14 23L17 23L17 22L18 22L18 23L19 23L19 22L21 22L21 20L22 20L22 21L23 21L23 19L24 19L24 21L25 21L25 15L24 15L24 14L25 14L25 13L26 13L26 10L27 10L27 9L26 9L26 8ZM39 8L39 9L40 9L40 10L41 10L41 8ZM15 10L15 11L17 11L17 10ZM38 11L38 14L39 14L39 12L40 12L40 13L41 13L41 11ZM15 12L15 13L16 13L16 12ZM12 13L12 14L14 14L14 13ZM4 14L4 15L5 15L5 14ZM40 14L40 15L41 15L41 14ZM22 15L22 18L19 18L19 19L17 19L17 20L18 20L18 21L20 21L20 20L19 20L19 19L22 19L22 18L23 18L23 17L24 17L24 16L23 16L23 15ZM26 16L26 19L27 19L27 17L28 17L28 16ZM6 19L6 20L7 20L7 19ZM10 20L10 21L9 21L9 22L7 22L7 21L6 21L6 22L7 22L7 23L8 23L8 24L7 24L7 25L9 25L9 26L11 26L11 25L9 25L9 23L11 23L11 22L12 22L12 21L11 21L11 20ZM26 20L26 21L27 21L27 20ZM32 20L32 21L33 21L33 20ZM37 20L37 21L36 21L36 22L37 22L37 21L38 21L38 20ZM10 21L10 22L11 22L11 21ZM22 22L22 24L25 24L25 26L27 26L27 25L26 25L26 24L25 24L25 23L24 23L24 22ZM26 22L26 23L27 23L27 24L28 24L28 23L27 23L27 22ZM17 24L17 25L18 25L18 24ZM14 25L14 28L15 28L15 26L16 26L16 25ZM40 26L40 28L41 28L41 26ZM8 27L8 28L9 28L9 27ZM10 27L10 28L11 28L11 27ZM22 28L22 29L23 29L23 28ZM0 30L0 31L1 31L1 30ZM38 30L38 31L37 31L37 32L39 32L39 33L37 33L37 35L38 35L38 34L39 34L39 33L40 33L40 30ZM33 31L33 32L34 32L34 31ZM0 32L0 33L1 33L1 32ZM33 33L33 36L36 36L36 33ZM34 34L34 35L35 35L35 34ZM38 36L38 37L39 37L39 36ZM36 37L36 38L37 38L37 40L38 40L38 38L37 38L37 37ZM28 38L28 39L29 39L29 40L28 40L28 41L33 41L33 39L32 39L32 40L31 40L31 38ZM39 38L39 39L40 39L40 38ZM17 39L17 40L15 40L15 41L19 41L19 39ZM20 39L20 41L21 41L21 39ZM0 0L0 7L7 7L7 0ZM1 1L1 6L6 6L6 1ZM2 2L2 5L5 5L5 2ZM34 0L34 7L41 7L41 0ZM35 1L35 6L40 6L40 1ZM36 2L36 5L39 5L39 2ZM0 34L0 41L7 41L7 34ZM1 35L1 40L6 40L6 35ZM2 36L2 39L5 39L5 36Z" fill="#000000"/></g></g></svg>
