<?xml version="1.0" encoding="UTF-8"?>
<svg xmlns="http://www.w3.org/2000/svg" version="1.1" width="200" height="200" viewBox="0 0 200 200"><rect x="0" y="0" width="200" height="200" fill="#ffffff"/><g transform="scale(4.878)"><g transform="translate(0,0)"><path fill-rule="evenodd" d="M9 0L9 1L10 1L10 2L11 2L11 0ZM12 0L12 2L14 2L14 5L13 5L13 6L12 6L12 5L10 5L10 4L9 4L9 2L8 2L8 4L9 4L9 6L8 6L8 7L9 7L9 6L10 6L10 7L11 7L11 9L10 9L10 8L9 8L9 9L8 9L8 8L6 8L6 9L5 9L5 8L3 8L3 10L1 10L1 9L0 9L0 10L1 10L1 11L0 11L0 12L2 12L2 11L3 11L3 12L4 12L4 13L2 13L2 14L1 14L1 15L2 15L2 14L4 14L4 16L2 16L2 20L1 20L1 17L0 17L0 20L1 20L1 21L2 21L2 20L3 20L3 22L2 22L2 24L0 24L0 26L1 26L1 27L3 27L3 24L4 24L4 26L5 26L5 27L4 27L4 28L5 28L5 29L4 29L4 31L8 31L8 32L6 32L6 33L8 33L8 35L9 35L9 36L8 36L8 38L9 38L9 36L10 36L10 35L9 35L9 33L10 33L10 32L11 32L11 31L12 31L12 29L13 29L13 30L14 30L14 31L13 31L13 32L14 32L14 35L13 35L13 37L12 37L12 35L11 35L11 38L13 38L13 39L14 39L14 36L16 36L16 37L15 37L15 39L16 39L16 40L17 40L17 39L18 39L18 40L19 40L19 41L21 41L21 40L22 40L22 37L24 37L24 36L21 36L21 35L20 35L20 36L19 36L19 37L17 37L17 36L18 36L18 35L17 35L17 34L16 34L16 35L15 35L15 33L17 33L17 30L18 30L18 32L19 32L19 33L21 33L21 34L22 34L22 32L25 32L25 33L23 33L23 34L24 34L24 35L25 35L25 33L26 33L26 38L27 38L27 39L26 39L26 40L27 40L27 39L28 39L28 41L29 41L29 39L31 39L31 40L30 40L30 41L31 41L31 40L32 40L32 41L34 41L34 40L35 40L35 41L36 41L36 39L37 39L37 40L38 40L38 41L39 41L39 40L38 40L38 39L40 39L40 40L41 40L41 36L40 36L40 34L39 34L39 33L41 33L41 32L39 32L39 31L41 31L41 30L38 30L38 29L41 29L41 25L39 25L39 24L37 24L37 21L39 21L39 22L38 22L38 23L39 23L39 22L41 22L41 21L39 21L39 20L40 20L40 19L41 19L41 18L40 18L40 17L41 17L41 12L40 12L40 13L39 13L39 12L38 12L38 10L39 10L39 11L40 11L40 9L39 9L39 8L37 8L37 9L35 9L35 10L34 10L34 11L35 11L35 10L37 10L37 11L36 11L36 12L35 12L35 13L36 13L36 14L33 14L33 13L32 13L32 11L33 11L33 8L32 8L32 7L33 7L33 5L32 5L32 4L33 4L33 3L32 3L32 2L33 2L33 0L32 0L32 1L31 1L31 2L30 2L30 1L29 1L29 0L28 0L28 2L27 2L27 1L26 1L26 0L23 0L23 1L20 1L20 2L22 2L22 3L23 3L23 4L22 4L22 5L21 5L21 4L19 4L19 6L18 6L18 3L17 3L17 4L16 4L16 2L18 2L18 1L19 1L19 0L18 0L18 1L16 1L16 0L14 0L14 1L13 1L13 0ZM14 1L14 2L16 2L16 1ZM24 1L24 2L23 2L23 3L24 3L24 2L25 2L25 1ZM28 2L28 4L26 4L26 3L25 3L25 4L24 4L24 5L23 5L23 9L22 9L22 8L21 8L21 7L22 7L22 6L21 6L21 7L20 7L20 6L19 6L19 7L18 7L18 6L17 6L17 9L16 9L16 6L15 6L15 5L14 5L14 6L13 6L13 7L12 7L12 6L11 6L11 7L12 7L12 9L14 9L14 10L15 10L15 9L16 9L16 10L19 10L19 9L18 9L18 8L20 8L20 9L22 9L22 10L21 10L21 11L20 11L20 12L19 12L19 11L18 11L18 12L17 12L17 11L15 11L15 13L14 13L14 14L12 14L12 15L14 15L14 14L15 14L15 17L13 17L13 18L12 18L12 16L11 16L11 13L13 13L13 11L11 11L11 13L10 13L10 12L9 12L9 11L10 11L10 9L9 9L9 10L8 10L8 9L6 9L6 10L8 10L8 12L7 12L7 11L5 11L5 9L4 9L4 10L3 10L3 11L5 11L5 12L7 12L7 13L5 13L5 14L8 14L8 13L9 13L9 15L10 15L10 16L11 16L11 17L10 17L10 18L12 18L12 19L9 19L9 20L8 20L8 17L9 17L9 16L8 16L8 17L6 17L6 18L5 18L5 17L4 17L4 18L3 18L3 19L5 19L5 20L4 20L4 22L5 22L5 23L6 23L6 24L5 24L5 25L6 25L6 26L7 26L7 27L6 27L6 28L7 28L7 29L6 29L6 30L7 30L7 29L8 29L8 31L9 31L9 30L10 30L10 31L11 31L11 30L10 30L10 29L11 29L11 28L12 28L12 26L13 26L13 28L14 28L14 29L16 29L16 30L15 30L15 31L14 31L14 32L16 32L16 30L17 30L17 29L18 29L18 30L21 30L21 31L19 31L19 32L21 32L21 31L23 31L23 30L21 30L21 28L22 28L22 26L25 26L25 29L26 29L26 31L27 31L27 32L31 32L31 33L30 33L30 34L29 34L29 33L28 33L28 36L30 36L30 37L29 37L29 38L28 38L28 39L29 39L29 38L30 38L30 37L31 37L31 38L32 38L32 40L33 40L33 39L35 39L35 38L36 38L36 37L33 37L33 38L32 38L32 37L31 37L31 36L32 36L32 35L31 35L31 33L32 33L32 32L33 32L33 31L34 31L34 32L35 32L35 30L36 30L36 29L38 29L38 28L36 28L36 27L39 27L39 28L40 28L40 27L39 27L39 25L37 25L37 24L35 24L35 23L36 23L36 21L34 21L34 22L33 22L33 20L32 20L32 22L31 22L31 21L30 21L30 20L31 20L31 19L29 19L29 20L28 20L28 19L27 19L27 17L30 17L30 18L31 18L31 17L32 17L32 19L34 19L34 20L35 20L35 17L37 17L37 18L36 18L36 20L38 20L38 18L39 18L39 17L40 17L40 16L38 16L38 15L39 15L39 13L38 13L38 15L37 15L37 16L34 16L34 17L33 17L33 16L32 16L32 15L31 15L31 14L30 14L30 12L29 12L29 15L28 15L28 11L27 11L27 10L26 10L26 9L27 9L27 8L26 8L26 6L27 6L27 7L28 7L28 9L29 9L29 11L30 11L30 9L31 9L31 7L32 7L32 5L29 5L29 4L32 4L32 3L29 3L29 2ZM12 3L12 4L13 4L13 3ZM28 5L28 7L29 7L29 5ZM14 6L14 7L13 7L13 8L14 8L14 7L15 7L15 6ZM24 6L24 7L25 7L25 6ZM30 6L30 7L31 7L31 6ZM24 8L24 9L25 9L25 8ZM29 8L29 9L30 9L30 8ZM37 9L37 10L38 10L38 9ZM22 10L22 11L23 11L23 13L26 13L26 14L25 14L25 15L27 15L27 16L28 16L28 15L27 15L27 13L26 13L26 10L25 10L25 11L24 11L24 10ZM31 10L31 11L32 11L32 10ZM20 12L20 13L22 13L22 12ZM36 12L36 13L37 13L37 12ZM16 13L16 14L17 14L17 15L16 15L16 17L15 17L15 19L16 19L16 20L15 20L15 21L19 21L19 20L21 20L21 21L20 21L20 23L18 23L18 22L16 22L16 23L17 23L17 24L18 24L18 26L17 26L17 27L16 27L16 28L18 28L18 26L20 26L20 28L19 28L19 29L20 29L20 28L21 28L21 26L22 26L22 25L23 25L23 24L24 24L24 25L27 25L27 26L26 26L26 28L27 28L27 29L28 29L28 30L27 30L27 31L28 31L28 30L29 30L29 31L30 31L30 29L31 29L31 28L32 28L32 31L33 31L33 30L35 30L35 29L36 29L36 28L35 28L35 24L34 24L34 26L33 26L33 25L32 25L32 23L31 23L31 22L29 22L29 21L28 21L28 20L27 20L27 19L26 19L26 20L25 20L25 21L24 21L24 23L23 23L23 22L22 22L22 23L23 23L23 24L21 24L21 26L20 26L20 25L19 25L19 24L20 24L20 23L21 23L21 21L23 21L23 20L24 20L24 19L23 19L23 20L21 20L21 19L20 19L20 18L18 18L18 19L19 19L19 20L17 20L17 19L16 19L16 18L17 18L17 16L19 16L19 17L20 17L20 16L23 16L23 17L24 17L24 16L23 16L23 14L19 14L19 13ZM5 15L5 16L7 16L7 15ZM19 15L19 16L20 16L20 15ZM30 16L30 17L31 17L31 16ZM37 16L37 17L38 17L38 16ZM21 17L21 18L22 18L22 17ZM25 17L25 18L26 18L26 17ZM6 18L6 19L7 19L7 18ZM5 20L5 21L7 21L7 22L6 22L6 23L7 23L7 24L6 24L6 25L7 25L7 24L8 24L8 27L9 27L9 29L10 29L10 28L11 28L11 26L12 26L12 25L9 25L9 24L13 24L13 26L14 26L14 25L15 25L15 24L14 24L14 23L13 23L13 22L14 22L14 20L13 20L13 21L12 21L12 20L9 20L9 22L10 22L10 21L12 21L12 22L11 22L11 23L9 23L9 24L8 24L8 20ZM26 21L26 22L27 22L27 21ZM0 22L0 23L1 23L1 22ZM28 22L28 23L29 23L29 22ZM24 23L24 24L25 24L25 23ZM26 23L26 24L27 24L27 23ZM30 23L30 24L28 24L28 27L29 27L29 29L30 29L30 28L31 28L31 26L32 26L32 27L33 27L33 26L32 26L32 25L31 25L31 23ZM1 25L1 26L2 26L2 25ZM29 25L29 26L31 26L31 25ZM36 25L36 26L37 26L37 25ZM9 26L9 27L10 27L10 26ZM14 27L14 28L15 28L15 27ZM23 27L23 28L24 28L24 27ZM1 28L1 29L0 29L0 33L2 33L2 32L3 32L3 33L5 33L5 32L3 32L3 31L2 31L2 30L1 30L1 29L3 29L3 28ZM34 28L34 29L35 29L35 28ZM24 30L24 31L25 31L25 30ZM37 30L37 32L38 32L38 30ZM11 33L11 34L12 34L12 33ZM33 33L33 36L36 36L36 33ZM37 33L37 38L40 38L40 37L39 37L39 34L38 34L38 33ZM34 34L34 35L35 35L35 34ZM16 35L16 36L17 36L17 35ZM30 35L30 36L31 36L31 35ZM19 37L19 38L20 38L20 40L21 40L21 38L20 38L20 37ZM16 38L16 39L17 39L17 38ZM24 38L24 39L23 39L23 41L24 41L24 39L25 39L25 38ZM11 39L11 41L12 41L12 39ZM0 0L0 7L7 7L7 0ZM1 1L1 6L6 6L6 1ZM2 2L2 5L5 5L5 2ZM34 0L34 7L41 7L41 0ZM35 1L35 6L40 6L40 1ZM36 2L36 5L39 5L39 2ZM0 34L0 41L7 41L7 34ZM1 35L1 40L6 40L6 35ZM2 36L2 39L5 39L5 36Z" fill="#000000"/></g></g></svg>
