<?xml version="1.0" encoding="UTF-8"?>
<svg xmlns="http://www.w3.org/2000/svg" version="1.1" width="200" height="200" viewBox="0 0 200 200"><rect x="0" y="0" width="200" height="200" fill="#ffffff"/><g transform="scale(4.878)"><g transform="translate(0,0)"><path fill-rule="evenodd" d="M9 0L9 1L8 1L8 2L9 2L9 5L8 5L8 8L4 8L4 9L5 9L5 10L6 10L6 11L8 11L8 8L9 8L9 10L10 10L10 11L9 11L9 12L8 12L8 13L10 13L10 11L11 11L11 12L12 12L12 11L11 11L11 10L10 10L10 9L12 9L12 10L13 10L13 11L14 11L14 9L16 9L16 7L17 7L17 8L21 8L21 9L18 9L18 11L20 11L20 12L19 12L19 14L20 14L20 13L22 13L22 15L20 15L20 16L21 16L21 20L25 20L25 21L26 21L26 22L27 22L27 23L26 23L26 24L25 24L25 23L24 23L24 21L21 21L21 22L19 22L19 20L20 20L20 19L19 19L19 18L20 18L20 17L19 17L19 16L18 16L18 12L16 12L16 10L15 10L15 12L13 12L13 14L12 14L12 16L11 16L11 17L12 17L12 18L11 18L11 19L9 19L9 21L10 21L10 22L12 22L12 24L11 24L11 23L9 23L9 22L6 22L6 23L7 23L7 24L6 24L6 25L4 25L4 24L5 24L5 23L4 23L4 22L5 22L5 21L3 21L3 20L1 20L1 19L0 19L0 23L1 23L1 24L2 24L2 23L3 23L3 25L2 25L2 26L1 26L1 28L0 28L0 30L5 30L5 31L4 31L4 32L3 32L3 31L2 31L2 32L0 32L0 33L2 33L2 32L3 32L3 33L5 33L5 31L8 31L8 32L6 32L6 33L8 33L8 37L9 37L9 35L11 35L11 36L10 36L10 38L9 38L9 41L10 41L10 40L11 40L11 39L13 39L13 37L12 37L12 34L11 34L11 32L12 32L12 33L13 33L13 34L14 34L14 33L15 33L15 34L17 34L17 35L18 35L18 37L19 37L19 38L20 38L20 40L18 40L18 41L20 41L20 40L22 40L22 41L25 41L25 40L24 40L24 39L23 39L23 40L22 40L22 39L21 39L21 38L22 38L22 37L20 37L20 36L23 36L23 37L26 37L26 40L27 40L27 41L33 41L33 39L31 39L31 40L30 40L30 38L32 38L32 37L36 37L36 38L37 38L37 37L38 37L38 34L39 34L39 37L40 37L40 38L38 38L38 39L36 39L36 40L37 40L37 41L40 41L40 40L41 40L41 37L40 37L40 36L41 36L41 33L40 33L40 32L39 32L39 33L38 33L38 34L37 34L37 32L35 32L35 31L34 31L34 32L33 32L33 31L32 31L32 29L33 29L33 30L34 30L34 29L33 29L33 27L34 27L34 28L35 28L35 29L36 29L36 31L37 31L37 30L38 30L38 31L41 31L41 24L40 24L40 23L41 23L41 22L40 22L40 21L41 21L41 13L40 13L40 11L41 11L41 9L40 9L40 8L39 8L39 9L36 9L36 8L34 8L34 9L32 9L32 8L33 8L33 5L31 5L31 3L29 3L29 4L30 4L30 5L28 5L28 4L27 4L27 5L26 5L26 7L27 7L27 5L28 5L28 8L29 8L29 9L26 9L26 8L24 8L24 7L25 7L25 4L24 4L24 5L23 5L23 4L22 4L22 3L23 3L23 2L24 2L24 3L25 3L25 2L26 2L26 3L28 3L28 2L30 2L30 1L31 1L31 2L33 2L33 1L31 1L31 0L29 0L29 1L28 1L28 0L27 0L27 1L26 1L26 0L25 0L25 1L24 1L24 0L21 0L21 1L20 1L20 0L18 0L18 1L19 1L19 3L18 3L18 4L19 4L19 3L21 3L21 4L20 4L20 5L19 5L19 6L18 6L18 5L17 5L17 0L16 0L16 3L14 3L14 2L13 2L13 3L14 3L14 4L12 4L12 3L11 3L11 4L12 4L12 5L11 5L11 6L10 6L10 8L9 8L9 5L10 5L10 2L12 2L12 1L11 1L11 0ZM13 0L13 1L14 1L14 0ZM9 1L9 2L10 2L10 1ZM21 1L21 3L22 3L22 2L23 2L23 1ZM27 1L27 2L28 2L28 1ZM15 4L15 7L14 7L14 6L13 6L13 5L12 5L12 6L11 6L11 7L12 7L12 8L15 8L15 7L16 7L16 6L17 6L17 7L18 7L18 6L17 6L17 5L16 5L16 4ZM12 6L12 7L13 7L13 6ZM19 6L19 7L20 7L20 6ZM21 6L21 8L22 8L22 9L24 9L24 10L21 10L21 11L22 11L22 13L24 13L24 10L25 10L25 13L26 13L26 14L23 14L23 15L22 15L22 18L24 18L24 19L25 19L25 20L26 20L26 19L25 19L25 18L27 18L27 16L28 16L28 18L30 18L30 19L32 19L32 20L33 20L33 21L30 21L30 20L29 20L29 21L28 21L28 19L27 19L27 21L28 21L28 22L30 22L30 24L32 24L32 25L30 25L30 26L31 26L31 27L33 27L33 26L34 26L34 25L35 25L35 27L36 27L36 29L37 29L37 27L36 27L36 25L37 25L37 26L38 26L38 28L39 28L39 30L40 30L40 27L39 27L39 25L37 25L37 24L39 24L39 23L40 23L40 22L39 22L39 23L38 23L38 21L39 21L39 20L40 20L40 17L39 17L39 16L40 16L40 15L39 15L39 14L38 14L38 15L37 15L37 14L36 14L36 13L37 13L37 11L36 11L36 12L35 12L35 10L36 10L36 9L35 9L35 10L33 10L33 11L32 11L32 9L29 9L29 10L31 10L31 13L33 13L33 14L35 14L35 15L37 15L37 16L36 16L36 17L35 17L35 16L34 16L34 15L32 15L32 14L30 14L30 13L29 13L29 12L28 12L28 13L27 13L27 12L26 12L26 11L27 11L27 10L25 10L25 9L24 9L24 8L22 8L22 6ZM23 6L23 7L24 7L24 6ZM29 6L29 7L30 7L30 6ZM31 6L31 7L32 7L32 6ZM6 9L6 10L7 10L7 9ZM0 10L0 11L1 11L1 12L2 12L2 13L1 13L1 15L0 15L0 16L1 16L1 18L2 18L2 19L4 19L4 18L5 18L5 17L7 17L7 18L6 18L6 19L5 19L5 20L6 20L6 21L8 21L8 20L6 20L6 19L7 19L7 18L8 18L8 17L7 17L7 16L6 16L6 15L8 15L8 16L10 16L10 15L9 15L9 14L6 14L6 13L7 13L7 12L6 12L6 13L5 13L5 12L3 12L3 11L4 11L4 10ZM33 11L33 13L35 13L35 12L34 12L34 11ZM38 11L38 12L39 12L39 11ZM3 13L3 16L4 16L4 15L5 15L5 14L4 14L4 13ZM14 13L14 14L17 14L17 13ZM28 13L28 15L29 15L29 17L32 17L32 18L33 18L33 17L32 17L32 16L31 16L31 15L29 15L29 13ZM14 15L14 16L12 16L12 17L15 17L15 16L16 16L16 18L14 18L14 19L13 19L13 18L12 18L12 20L10 20L10 21L13 21L13 20L14 20L14 23L15 23L15 24L16 24L16 25L17 25L17 26L16 26L16 27L15 27L15 26L14 26L14 24L13 24L13 25L12 25L12 26L11 26L11 24L8 24L8 25L10 25L10 27L11 27L11 29L12 29L12 30L11 30L11 31L9 31L9 32L11 32L11 31L12 31L12 32L13 32L13 33L14 33L14 32L13 32L13 31L12 31L12 30L13 30L13 29L14 29L14 31L15 31L15 33L17 33L17 34L18 34L18 35L19 35L19 36L20 36L20 35L22 35L22 34L21 34L21 33L22 33L22 32L21 32L21 31L22 31L22 30L24 30L24 31L23 31L23 34L25 34L25 35L27 35L27 37L31 37L31 36L32 36L32 35L30 35L30 34L32 34L32 32L31 32L31 33L30 33L30 34L29 34L29 33L28 33L28 32L26 32L26 33L24 33L24 31L27 31L27 30L28 30L28 31L29 31L29 30L30 30L30 31L31 31L31 29L27 29L27 30L25 30L25 29L26 29L26 28L25 28L25 29L24 29L24 28L22 28L22 26L23 26L23 27L25 27L25 26L24 26L24 25L25 25L25 24L24 24L24 23L23 23L23 25L22 25L22 26L21 26L21 24L22 24L22 23L19 23L19 22L18 22L18 23L16 23L16 22L15 22L15 21L16 21L16 20L14 20L14 19L16 19L16 18L18 18L18 16L16 16L16 15ZM23 15L23 17L24 17L24 18L25 18L25 17L26 17L26 15L25 15L25 16L24 16L24 15ZM3 17L3 18L4 18L4 17ZM9 17L9 18L10 18L10 17ZM34 17L34 18L35 18L35 19L34 19L34 20L35 20L35 21L33 21L33 22L32 22L32 23L33 23L33 25L32 25L32 26L33 26L33 25L34 25L34 23L35 23L35 25L36 25L36 23L35 23L35 21L36 21L36 22L37 22L37 21L38 21L38 19L39 19L39 17L38 17L38 19L37 19L37 17L36 17L36 18L35 18L35 17ZM35 19L35 20L36 20L36 19ZM17 20L17 21L18 21L18 20ZM2 21L2 22L1 22L1 23L2 23L2 22L3 22L3 21ZM28 23L28 24L26 24L26 25L28 25L28 26L29 26L29 25L28 25L28 24L29 24L29 23ZM17 24L17 25L18 25L18 26L17 26L17 27L16 27L16 28L15 28L15 27L14 27L14 26L13 26L13 27L14 27L14 28L15 28L15 31L16 31L16 28L17 28L17 29L18 29L18 27L19 27L19 28L20 28L20 27L21 27L21 26L20 26L20 24L19 24L19 25L18 25L18 24ZM6 25L6 26L7 26L7 27L6 27L6 28L4 28L4 27L5 27L5 26L4 26L4 27L2 27L2 28L3 28L3 29L5 29L5 30L7 30L7 29L8 29L8 26L7 26L7 25ZM6 28L6 29L7 29L7 28ZM21 28L21 30L20 30L20 29L19 29L19 30L17 30L17 33L18 33L18 34L19 34L19 33L18 33L18 32L20 32L20 33L21 33L21 32L20 32L20 31L21 31L21 30L22 30L22 28ZM9 29L9 30L10 30L10 29ZM26 33L26 34L27 34L27 35L28 35L28 36L29 36L29 34L28 34L28 33ZM33 33L33 36L36 36L36 33ZM39 33L39 34L40 34L40 33ZM34 34L34 35L35 35L35 34ZM13 35L13 36L14 36L14 37L15 37L15 38L14 38L14 40L13 40L13 41L14 41L14 40L15 40L15 39L18 39L18 38L16 38L16 35L15 35L15 36L14 36L14 35ZM23 35L23 36L24 36L24 35ZM28 38L28 39L29 39L29 38ZM34 39L34 40L35 40L35 39ZM16 40L16 41L17 41L17 40ZM0 0L0 7L7 7L7 0ZM1 1L1 6L6 6L6 1ZM2 2L2 5L5 5L5 2ZM34 0L34 7L41 7L41 0ZM35 1L35 6L40 6L40 1ZM36 2L36 5L39 5L39 2ZM0 34L0 41L7 41L7 34ZM1 35L1 40L6 40L6 35ZM2 36L2 39L5 39L5 36Z" fill="#000000"/></g></g></svg>
