<?xml version="1.0" encoding="UTF-8"?>
<svg xmlns="http://www.w3.org/2000/svg" version="1.1" width="200" height="200" viewBox="0 0 200 200"><rect x="0" y="0" width="200" height="200" fill="#ffffff"/><g transform="scale(4.878)"><g transform="translate(0,0)"><path fill-rule="evenodd" d="M8 0L8 3L9 3L9 4L10 4L10 5L8 5L8 9L7 9L7 8L6 8L6 9L5 9L5 8L2 8L2 10L3 10L3 12L5 12L5 13L8 13L8 12L6 12L6 11L9 11L9 14L10 14L10 15L11 15L11 16L12 16L12 17L11 17L11 19L10 19L10 18L9 18L9 17L10 17L10 16L6 16L6 15L8 15L8 14L6 14L6 15L5 15L5 14L4 14L4 13L3 13L3 14L2 14L2 11L1 11L1 10L0 10L0 11L1 11L1 12L0 12L0 13L1 13L1 15L0 15L0 17L1 17L1 18L0 18L0 19L1 19L1 18L3 18L3 20L5 20L5 19L7 19L7 20L6 20L6 21L7 21L7 22L5 22L5 21L2 21L2 23L3 23L3 22L4 22L4 23L5 23L5 24L4 24L4 26L5 26L5 25L7 25L7 26L6 26L6 27L3 27L3 26L2 26L2 25L1 25L1 21L0 21L0 33L1 33L1 30L2 30L2 33L7 33L7 32L8 32L8 34L9 34L9 36L8 36L8 39L9 39L9 37L10 37L10 38L11 38L11 39L10 39L10 40L9 40L9 41L13 41L13 38L15 38L15 39L16 39L16 40L14 40L14 41L16 41L16 40L17 40L17 37L16 37L16 38L15 38L15 36L16 36L16 35L15 35L15 36L14 36L14 37L12 37L12 36L11 36L11 35L10 35L10 33L11 33L11 34L13 34L13 35L14 35L14 33L11 33L11 31L12 31L12 32L17 32L17 33L15 33L15 34L17 34L17 33L18 33L18 37L20 37L20 38L18 38L18 39L22 39L22 38L23 38L23 36L22 36L22 35L23 35L23 34L25 34L25 36L27 36L27 37L24 37L24 38L25 38L25 39L24 39L24 40L21 40L21 41L26 41L26 38L27 38L27 40L28 40L28 41L31 41L31 40L33 40L33 41L34 41L34 40L33 40L33 38L34 38L34 39L35 39L35 40L36 40L36 39L37 39L37 40L40 40L40 38L41 38L41 37L39 37L39 36L40 36L40 34L41 34L41 33L39 33L39 32L37 32L37 30L38 30L38 31L40 31L40 30L41 30L41 29L39 29L39 30L38 30L38 29L35 29L35 30L34 30L34 31L36 31L36 32L33 32L33 31L32 31L32 30L33 30L33 29L34 29L34 28L33 28L33 29L32 29L32 30L30 30L30 31L31 31L31 32L28 32L28 31L29 31L29 30L28 30L28 29L31 29L31 28L29 28L29 26L30 26L30 25L31 25L31 26L32 26L32 27L34 27L34 26L35 26L35 27L36 27L36 28L38 28L38 26L39 26L39 27L40 27L40 26L41 26L41 23L39 23L39 22L37 22L37 21L39 21L39 20L36 20L36 19L35 19L35 17L36 17L36 18L37 18L37 19L38 19L38 17L39 17L39 16L38 16L38 15L39 15L39 14L41 14L41 13L39 13L39 14L38 14L38 13L36 13L36 14L38 14L38 15L35 15L35 17L34 17L34 16L32 16L32 17L30 17L30 16L31 16L31 15L30 15L30 16L29 16L29 15L28 15L28 16L29 16L29 17L30 17L30 19L31 19L31 20L30 20L30 21L31 21L31 22L30 22L30 24L29 24L29 25L28 25L28 24L27 24L27 25L28 25L28 26L26 26L26 25L24 25L24 24L22 24L22 23L21 23L21 22L23 22L23 23L24 23L24 22L25 22L25 24L26 24L26 23L29 23L29 21L28 21L28 19L29 19L29 18L27 18L27 19L26 19L26 20L25 20L25 21L24 21L24 22L23 22L23 20L24 20L24 19L23 19L23 17L22 17L22 16L24 16L24 18L26 18L26 17L27 17L27 16L24 16L24 15L27 15L27 14L29 14L29 13L30 13L30 14L31 14L31 12L29 12L29 11L31 11L31 10L32 10L32 13L33 13L33 14L32 14L32 15L34 15L34 13L35 13L35 10L36 10L36 12L38 12L38 11L39 11L39 12L41 12L41 11L40 11L40 10L41 10L41 8L38 8L38 9L40 9L40 10L37 10L37 9L36 9L36 8L32 8L32 9L31 9L31 8L29 8L29 6L28 6L28 5L29 5L29 4L28 4L28 5L27 5L27 4L25 4L25 5L24 5L24 4L23 4L23 3L25 3L25 0L24 0L24 1L23 1L23 0L19 0L19 1L22 1L22 3L21 3L21 4L23 4L23 6L22 6L22 5L21 5L21 6L20 6L20 7L21 7L21 9L20 9L20 8L19 8L19 4L20 4L20 2L18 2L18 3L19 3L19 4L18 4L18 5L17 5L17 4L16 4L16 5L13 5L13 3L11 3L11 4L10 4L10 0ZM12 0L12 1L11 1L11 2L13 2L13 1L14 1L14 3L15 3L15 0ZM16 0L16 1L18 1L18 0ZM26 0L26 1L27 1L27 2L26 2L26 3L32 3L32 4L30 4L30 5L32 5L32 4L33 4L33 2L30 2L30 0L29 0L29 1L27 1L27 0ZM31 0L31 1L32 1L32 0ZM11 4L11 5L10 5L10 6L9 6L9 9L8 9L8 10L9 10L9 9L10 9L10 10L12 10L12 11L13 11L13 12L11 12L11 13L10 13L10 14L12 14L12 13L14 13L14 14L15 14L15 13L16 13L16 12L17 12L17 13L18 13L18 9L19 9L19 8L18 8L18 6L17 6L17 7L16 7L16 6L15 6L15 8L16 8L16 10L17 10L17 11L16 11L16 12L14 12L14 8L13 8L13 7L14 7L14 6L13 6L13 5L12 5L12 4ZM10 6L10 9L12 9L12 10L13 10L13 9L12 9L12 8L11 8L11 6ZM12 6L12 7L13 7L13 6ZM21 6L21 7L22 7L22 6ZM23 6L23 7L24 7L24 6ZM25 6L25 7L26 7L26 6ZM27 6L27 7L28 7L28 6ZM30 6L30 7L31 7L31 6ZM32 6L32 7L33 7L33 6ZM24 8L24 9L23 9L23 10L22 10L22 12L24 12L24 13L19 13L19 15L15 15L15 17L14 17L14 15L13 15L13 17L12 17L12 18L13 18L13 19L12 19L12 21L13 21L13 23L12 23L12 24L8 24L8 23L6 23L6 24L7 24L7 25L8 25L8 26L7 26L7 27L6 27L6 28L5 28L5 30L4 30L4 28L3 28L3 27L1 27L1 29L2 29L2 30L4 30L4 31L3 31L3 32L4 32L4 31L5 31L5 30L8 30L8 32L9 32L9 33L10 33L10 32L9 32L9 30L8 30L8 29L10 29L10 31L11 31L11 30L12 30L12 29L10 29L10 28L11 28L11 27L9 27L9 25L12 25L12 24L14 24L14 25L15 25L15 26L14 26L14 27L13 27L13 28L15 28L15 30L14 30L14 29L13 29L13 31L16 31L16 30L17 30L17 31L19 31L19 33L21 33L21 35L20 35L20 34L19 34L19 36L21 36L21 38L22 38L22 36L21 36L21 35L22 35L22 33L24 33L24 30L25 30L25 33L26 33L26 34L29 34L29 33L26 33L26 32L27 32L27 31L26 31L26 30L25 30L25 28L26 28L26 27L23 27L23 26L24 26L24 25L23 25L23 26L20 26L20 25L19 25L19 24L20 24L20 23L19 23L19 21L20 21L20 22L21 22L21 19L22 19L22 20L23 20L23 19L22 19L22 18L21 18L21 17L20 17L20 16L22 16L22 15L21 15L21 14L23 14L23 15L24 15L24 14L26 14L26 13L27 13L27 12L28 12L28 13L29 13L29 12L28 12L28 11L29 11L29 10L31 10L31 9L29 9L29 8L28 8L28 9L26 9L26 11L25 11L25 12L24 12L24 11L23 11L23 10L24 10L24 9L25 9L25 8ZM3 9L3 10L4 10L4 11L5 11L5 10L4 10L4 9ZM6 9L6 10L7 10L7 9ZM28 9L28 10L27 10L27 11L28 11L28 10L29 10L29 9ZM32 9L32 10L33 10L33 11L34 11L34 10L33 10L33 9ZM20 10L20 11L19 11L19 12L21 12L21 10ZM33 12L33 13L34 13L34 12ZM3 14L3 16L1 16L1 17L3 17L3 16L4 16L4 17L5 17L5 18L4 18L4 19L5 19L5 18L7 18L7 19L8 19L8 17L6 17L6 16L5 16L5 15L4 15L4 14ZM19 15L19 16L18 16L18 17L15 17L15 18L14 18L14 17L13 17L13 18L14 18L14 20L13 20L13 21L15 21L15 19L18 19L18 20L17 20L17 22L14 22L14 24L15 24L15 25L16 25L16 26L15 26L15 27L16 27L16 28L17 28L17 27L18 27L18 28L20 28L20 30L19 30L19 29L18 29L18 30L19 30L19 31L20 31L20 32L21 32L21 31L20 31L20 30L21 30L21 29L22 29L22 32L23 32L23 30L24 30L24 29L22 29L22 28L20 28L20 26L19 26L19 25L17 25L17 23L18 23L18 24L19 24L19 23L18 23L18 20L20 20L20 19L19 19L19 18L20 18L20 17L19 17L19 16L20 16L20 15ZM36 16L36 17L38 17L38 16ZM40 16L40 18L39 18L39 19L40 19L40 18L41 18L41 16ZM32 17L32 18L31 18L31 19L32 19L32 18L33 18L33 20L34 20L34 21L32 21L32 20L31 20L31 21L32 21L32 22L31 22L31 25L33 25L33 26L34 26L34 25L35 25L35 26L36 26L36 27L37 27L37 26L36 26L36 25L39 25L39 26L40 26L40 24L39 24L39 23L37 23L37 24L36 24L36 23L35 23L35 22L36 22L36 21L35 21L35 19L34 19L34 18L33 18L33 17ZM9 19L9 20L8 20L8 22L9 22L9 23L10 23L10 22L11 22L11 20L10 20L10 19ZM40 20L40 21L41 21L41 20ZM25 21L25 22L26 22L26 21ZM27 21L27 22L28 22L28 21ZM34 21L34 22L35 22L35 21ZM33 23L33 25L34 25L34 23ZM21 24L21 25L22 25L22 24ZM35 24L35 25L36 25L36 24ZM7 27L7 28L6 28L6 29L8 29L8 27ZM27 27L27 28L28 28L28 27ZM2 28L2 29L3 29L3 28ZM6 31L6 32L7 32L7 31ZM30 33L30 35L31 35L31 36L29 36L29 35L27 35L27 36L29 36L29 37L27 37L27 38L28 38L28 40L30 40L30 37L31 37L31 39L32 39L32 38L33 38L33 37L32 37L32 35L31 35L31 33ZM33 33L33 36L36 36L36 33ZM38 33L38 35L37 35L37 36L39 36L39 33ZM34 34L34 35L35 35L35 34ZM10 36L10 37L11 37L11 36ZM34 37L34 38L36 38L36 37ZM37 38L37 39L38 39L38 38ZM18 40L18 41L20 41L20 40ZM0 0L0 7L7 7L7 0ZM1 1L1 6L6 6L6 1ZM2 2L2 5L5 5L5 2ZM34 0L34 7L41 7L41 0ZM35 1L35 6L40 6L40 1ZM36 2L36 5L39 5L39 2ZM0 34L0 41L7 41L7 34ZM1 35L1 40L6 40L6 35ZM2 36L2 39L5 39L5 36Z" fill="#000000"/></g></g></svg>
