<?xml version="1.0" encoding="UTF-8"?>
<svg xmlns="http://www.w3.org/2000/svg" version="1.1" width="200" height="200" viewBox="0 0 200 200"><rect x="0" y="0" width="200" height="200" fill="#ffffff"/><g transform="scale(4.878)"><g transform="translate(0,0)"><path fill-rule="evenodd" d="M8 0L8 3L10 3L10 4L9 4L9 5L8 5L8 9L9 9L9 10L10 10L10 9L9 9L9 8L12 8L12 7L13 7L13 6L12 6L12 4L11 4L11 2L9 2L9 1L10 1L10 0ZM14 0L14 1L12 1L12 3L13 3L13 4L15 4L15 5L14 5L14 8L13 8L13 9L15 9L15 8L16 8L16 10L12 10L12 12L11 12L11 11L7 11L7 10L5 10L5 11L2 11L2 10L4 10L4 9L5 9L5 8L2 8L2 10L1 10L1 11L2 11L2 12L0 12L0 13L1 13L1 14L0 14L0 16L1 16L1 17L0 17L0 19L1 19L1 17L2 17L2 19L4 19L4 20L3 20L3 24L2 24L2 25L3 25L3 26L2 26L2 28L1 28L1 26L0 26L0 33L1 33L1 30L2 30L2 32L3 32L3 30L4 30L4 31L5 31L5 29L7 29L7 28L6 28L6 27L8 27L8 30L6 30L6 31L10 31L10 34L9 34L9 33L8 33L8 34L9 34L9 35L12 35L12 36L13 36L13 38L11 38L11 37L9 37L9 36L8 36L8 39L9 39L9 40L10 40L10 41L11 41L11 40L10 40L10 39L9 39L9 38L11 38L11 39L12 39L12 40L13 40L13 41L15 41L15 40L14 40L14 39L13 39L13 38L15 38L15 39L17 39L17 38L15 38L15 36L14 36L14 34L15 34L15 35L16 35L16 34L15 34L15 32L16 32L16 33L18 33L18 34L17 34L17 35L18 35L18 34L21 34L21 35L20 35L20 36L19 36L19 37L18 37L18 36L16 36L16 37L18 37L18 39L19 39L19 41L22 41L22 40L24 40L24 39L25 39L25 40L26 40L26 41L28 41L28 39L31 39L31 37L30 37L30 38L27 38L27 36L28 36L28 37L29 37L29 36L32 36L32 37L36 37L36 38L32 38L32 40L31 40L31 41L32 41L32 40L33 40L33 41L34 41L34 40L33 40L33 39L35 39L35 40L36 40L36 39L37 39L37 40L40 40L40 38L41 38L41 37L40 37L40 36L41 36L41 35L40 35L40 34L41 34L41 33L40 33L40 32L37 32L37 29L36 29L36 28L38 28L38 26L39 26L39 27L40 27L40 28L39 28L39 30L38 30L38 31L40 31L40 30L41 30L41 29L40 29L40 28L41 28L41 27L40 27L40 26L41 26L41 23L39 23L39 22L38 22L38 21L39 21L39 20L36 20L36 19L35 19L35 17L36 17L36 18L37 18L37 19L38 19L38 17L39 17L39 18L41 18L41 16L40 16L40 17L39 17L39 16L37 16L37 17L36 17L36 16L35 16L35 17L34 17L34 16L32 16L32 17L31 17L31 16L29 16L29 15L31 15L31 12L32 12L32 13L33 13L33 14L32 14L32 15L34 15L34 13L35 13L35 10L36 10L36 12L38 12L38 11L40 11L40 10L41 10L41 8L38 8L38 9L40 9L40 10L37 10L37 9L36 9L36 8L33 8L33 6L32 6L32 7L31 7L31 5L33 5L33 4L30 4L30 5L29 5L29 4L28 4L28 5L27 5L27 4L25 4L25 5L22 5L22 4L24 4L24 3L25 3L25 1L24 1L24 0L23 0L23 2L21 2L21 3L22 3L22 4L21 4L21 5L20 5L20 8L19 8L19 3L20 3L20 2L19 2L19 0L16 0L16 1L18 1L18 2L15 2L15 0ZM20 0L20 1L22 1L22 0ZM26 0L26 1L27 1L27 2L26 2L26 3L32 3L32 2L33 2L33 0L29 0L29 1L27 1L27 0ZM30 1L30 2L32 2L32 1ZM13 2L13 3L15 3L15 4L16 4L16 3L15 3L15 2ZM18 2L18 3L19 3L19 2ZM10 4L10 5L9 5L9 7L10 7L10 5L11 5L11 4ZM25 5L25 8L24 8L24 9L23 9L23 10L24 10L24 11L22 11L22 10L21 10L21 9L22 9L22 8L23 8L23 7L24 7L24 6L23 6L23 7L22 7L22 6L21 6L21 7L22 7L22 8L20 8L20 10L19 10L19 9L18 9L18 10L17 10L17 11L18 11L18 10L19 10L19 11L20 11L20 10L21 10L21 12L17 12L17 13L22 13L22 15L21 15L21 17L20 17L20 14L19 14L19 15L18 15L18 16L16 16L16 15L17 15L17 14L16 14L16 13L14 13L14 14L13 14L13 15L15 15L15 17L18 17L18 19L19 19L19 21L18 21L18 20L17 20L17 18L14 18L14 17L13 17L13 16L12 16L12 15L11 15L11 14L12 14L12 13L11 13L11 14L10 14L10 12L7 12L7 11L6 11L6 12L2 12L2 14L4 14L4 15L3 15L3 16L4 16L4 15L5 15L5 16L7 16L7 17L6 17L6 18L5 18L5 17L3 17L3 18L4 18L4 19L6 19L6 20L4 20L4 22L5 22L5 23L4 23L4 24L3 24L3 25L4 25L4 26L5 26L5 27L4 27L4 28L5 28L5 27L6 27L6 26L8 26L8 25L10 25L10 27L12 27L12 28L10 28L10 29L13 29L13 33L11 33L11 34L13 34L13 33L14 33L14 32L15 32L15 31L16 31L16 32L17 32L17 31L16 31L16 30L17 30L17 29L18 29L18 33L20 33L20 32L21 32L21 34L23 34L23 35L21 35L21 36L23 36L23 37L24 37L24 36L23 36L23 35L27 35L27 34L28 34L28 36L29 36L29 34L28 34L28 33L29 33L29 32L31 32L31 30L32 30L32 31L33 31L33 32L36 32L36 31L34 31L34 30L36 30L36 29L35 29L35 28L36 28L36 27L37 27L37 26L36 26L36 25L39 25L39 26L40 26L40 24L39 24L39 23L38 23L38 22L37 22L37 24L36 24L36 23L35 23L35 22L36 22L36 21L35 21L35 19L34 19L34 18L33 18L33 17L32 17L32 18L31 18L31 17L29 17L29 16L28 16L28 15L29 15L29 14L30 14L30 13L29 13L29 12L30 12L30 11L34 11L34 10L30 10L30 9L33 9L33 8L31 8L31 7L30 7L30 6L29 6L29 5L28 5L28 6L27 6L27 5ZM11 6L11 7L12 7L12 6ZM15 6L15 7L16 7L16 8L17 8L17 7L18 7L18 6L17 6L17 7L16 7L16 6ZM26 6L26 7L27 7L27 8L26 8L26 9L30 9L30 8L29 8L29 6L28 6L28 7L27 7L27 6ZM6 8L6 9L7 9L7 8ZM25 10L25 11L26 11L26 12L25 12L25 13L24 13L24 12L22 12L22 13L23 13L23 14L24 14L24 15L23 15L23 16L25 16L25 13L27 13L27 14L26 14L26 16L27 16L27 14L29 14L29 13L27 13L27 12L28 12L28 10ZM29 10L29 11L30 11L30 10ZM14 11L14 12L15 12L15 11ZM6 12L6 13L7 13L7 12ZM33 12L33 13L34 13L34 12ZM39 12L39 14L37 14L37 13L36 13L36 14L35 14L35 15L39 15L39 14L41 14L41 12ZM8 13L8 14L5 14L5 15L7 15L7 16L8 16L8 14L9 14L9 15L10 15L10 14L9 14L9 13ZM15 14L15 15L16 15L16 14ZM9 16L9 17L10 17L10 19L9 19L9 20L8 20L8 23L7 23L7 22L6 22L6 21L7 21L7 20L6 20L6 21L5 21L5 22L6 22L6 23L7 23L7 24L6 24L6 25L7 25L7 24L8 24L8 23L9 23L9 24L10 24L10 25L11 25L11 26L12 26L12 27L13 27L13 28L14 28L14 26L13 26L13 25L14 25L14 24L12 24L12 23L13 23L13 22L15 22L15 23L16 23L16 24L15 24L15 27L16 27L16 24L17 24L17 25L19 25L19 26L20 26L20 25L19 25L19 22L18 22L18 21L17 21L17 20L16 20L16 19L14 19L14 18L11 18L11 17L12 17L12 16L11 16L11 17L10 17L10 16ZM18 16L18 17L19 17L19 19L23 19L23 18L25 18L25 19L27 19L27 20L23 20L23 21L24 21L24 22L25 22L25 21L28 21L28 22L26 22L26 23L25 23L25 24L24 24L24 23L23 23L23 22L21 22L21 23L20 23L20 24L22 24L22 25L23 25L23 24L24 24L24 27L22 27L22 28L21 28L21 27L19 27L19 28L18 28L18 27L17 27L17 28L18 28L18 29L21 29L21 30L23 30L23 31L21 31L21 32L22 32L22 33L24 33L24 34L26 34L26 33L28 33L28 31L30 31L30 30L31 30L31 29L30 29L30 28L29 28L29 27L28 27L28 26L27 26L27 28L26 28L26 27L25 27L25 26L26 26L26 24L28 24L28 25L29 25L29 26L30 26L30 25L31 25L31 26L32 26L32 27L34 27L34 26L35 26L35 25L36 25L36 24L35 24L35 25L34 25L34 24L33 24L33 23L34 23L34 22L35 22L35 21L34 21L34 20L33 20L33 18L32 18L32 20L33 20L33 21L31 21L31 20L30 20L30 21L31 21L31 22L32 22L32 25L31 25L31 23L30 23L30 24L28 24L28 22L29 22L29 21L28 21L28 20L29 20L29 19L28 19L28 18L27 18L27 17L23 17L23 18L20 18L20 17L19 17L19 16ZM6 18L6 19L7 19L7 18ZM30 18L30 19L31 19L31 18ZM11 19L11 20L9 20L9 21L10 21L10 24L11 24L11 25L12 25L12 24L11 24L11 23L12 23L12 22L11 22L11 21L13 21L13 20L14 20L14 19ZM40 20L40 21L41 21L41 20ZM0 21L0 23L2 23L2 22L1 22L1 21ZM33 21L33 22L34 22L34 21ZM16 22L16 23L17 23L17 24L18 24L18 23L17 23L17 22ZM32 25L32 26L34 26L34 25ZM24 27L24 28L22 28L22 29L24 29L24 30L25 30L25 29L26 29L26 28L25 28L25 27ZM2 28L2 30L3 30L3 28ZM33 28L33 29L32 29L32 30L33 30L33 29L34 29L34 28ZM14 29L14 31L15 31L15 30L16 30L16 29ZM28 29L28 30L30 30L30 29ZM10 30L10 31L11 31L11 32L12 32L12 30ZM26 30L26 31L27 31L27 30ZM23 31L23 32L24 32L24 33L26 33L26 32L25 32L25 31ZM4 32L4 33L7 33L7 32ZM30 33L30 35L31 35L31 34L32 34L32 33ZM33 33L33 36L36 36L36 33ZM37 33L37 34L38 34L38 35L37 35L37 36L40 36L40 35L39 35L39 33ZM34 34L34 35L35 35L35 34ZM19 37L19 38L20 38L20 39L21 39L21 40L22 40L22 37L21 37L21 38L20 38L20 37ZM25 38L25 39L26 39L26 40L27 40L27 39L26 39L26 38ZM37 38L37 39L38 39L38 38ZM16 40L16 41L17 41L17 40ZM29 40L29 41L30 41L30 40ZM0 0L0 7L7 7L7 0ZM1 1L1 6L6 6L6 1ZM2 2L2 5L5 5L5 2ZM34 0L34 7L41 7L41 0ZM35 1L35 6L40 6L40 1ZM36 2L36 5L39 5L39 2ZM0 34L0 41L7 41L7 34ZM1 35L1 40L6 40L6 35ZM2 36L2 39L5 39L5 36Z" fill="#000000"/></g></g></svg>
