<?xml version="1.0" encoding="UTF-8"?>
<svg xmlns="http://www.w3.org/2000/svg" version="1.1" width="200" height="200" viewBox="0 0 200 200"><rect x="0" y="0" width="200" height="200" fill="#ffffff"/><g transform="scale(6.897)"><g transform="translate(0,0)"><path fill-rule="evenodd" d="M9 0L9 4L8 4L8 5L9 5L9 4L10 4L10 8L9 8L9 6L8 6L8 8L6 8L6 9L9 9L9 13L11 13L11 14L10 14L10 15L8 15L8 13L7 13L7 12L5 12L5 14L4 14L4 15L3 15L3 13L2 13L2 14L1 14L1 12L2 12L2 10L3 10L3 12L4 12L4 11L8 11L8 10L5 10L5 9L4 9L4 8L2 8L2 9L1 9L1 12L0 12L0 14L1 14L1 15L2 15L2 16L0 16L0 17L2 17L2 20L1 20L1 21L3 21L3 20L4 20L4 18L5 18L5 19L7 19L7 18L5 18L5 17L7 17L7 16L8 16L8 19L9 19L9 21L8 21L8 23L9 23L9 24L10 24L10 26L9 26L9 25L8 25L8 27L9 27L9 29L10 29L10 27L12 27L12 29L14 29L14 28L13 28L13 27L14 27L14 26L13 26L13 27L12 27L12 24L13 24L13 25L15 25L15 26L17 26L17 28L16 28L16 27L15 27L15 28L16 28L16 29L18 29L18 28L19 28L19 29L20 29L20 28L19 28L19 27L18 27L18 26L17 26L17 25L18 25L18 23L19 23L19 24L20 24L20 25L19 25L19 26L20 26L20 25L23 25L23 26L24 26L24 27L22 27L22 29L23 29L23 28L25 28L25 29L27 29L27 28L29 28L29 26L28 26L28 27L27 27L27 25L28 25L28 24L29 24L29 21L28 21L28 20L27 20L27 18L29 18L29 17L26 17L26 16L25 16L25 15L24 15L24 16L23 16L23 17L21 17L21 18L20 18L20 17L19 17L19 16L18 16L18 15L20 15L20 14L21 14L21 13L20 13L20 12L22 12L22 9L23 9L23 13L22 13L22 15L23 15L23 14L24 14L24 13L25 13L25 14L26 14L26 15L27 15L27 16L28 16L28 15L29 15L29 14L28 14L28 12L29 12L29 11L28 11L28 12L27 12L27 11L26 11L26 10L29 10L29 9L26 9L26 10L24 10L24 9L25 9L25 8L24 8L24 9L23 9L23 8L21 8L21 9L20 9L20 10L19 10L19 8L20 8L20 7L21 7L21 3L20 3L20 2L18 2L18 1L17 1L17 2L15 2L15 1L16 1L16 0L15 0L15 1L14 1L14 2L15 2L15 3L13 3L13 0ZM11 1L11 2L12 2L12 1ZM17 2L17 3L16 3L16 4L15 4L15 5L13 5L13 4L11 4L11 8L12 8L12 9L11 9L11 10L10 10L10 11L11 11L11 13L12 13L12 14L13 14L13 15L12 15L12 17L13 17L13 18L12 18L12 20L13 20L13 22L14 22L14 24L15 24L15 22L14 22L14 21L15 21L15 20L16 20L16 22L17 22L17 23L18 23L18 22L19 22L19 23L20 23L20 21L19 21L19 20L20 20L20 18L19 18L19 19L18 19L18 18L17 18L17 17L18 17L18 16L15 16L15 17L16 17L16 18L15 18L15 19L13 19L13 18L14 18L14 17L13 17L13 16L14 16L14 11L15 11L15 10L12 10L12 9L14 9L14 8L13 8L13 7L14 7L14 6L15 6L15 7L16 7L16 6L15 6L15 5L18 5L18 2ZM19 3L19 4L20 4L20 3ZM12 5L12 7L13 7L13 5ZM19 5L19 7L18 7L18 6L17 6L17 8L15 8L15 9L16 9L16 10L17 10L17 9L18 9L18 8L19 8L19 7L20 7L20 5ZM18 10L18 12L20 12L20 11L19 11L19 10ZM12 11L12 12L13 12L13 11ZM16 11L16 12L17 12L17 11ZM25 11L25 13L27 13L27 12L26 12L26 11ZM6 13L6 14L5 14L5 15L4 15L4 16L3 16L3 17L5 17L5 15L6 15L6 16L7 16L7 15L6 15L6 14L7 14L7 13ZM17 13L17 14L20 14L20 13ZM9 16L9 17L11 17L11 16ZM24 16L24 17L23 17L23 18L22 18L22 19L21 19L21 20L22 20L22 19L24 19L24 20L25 20L25 19L26 19L26 17L25 17L25 16ZM0 18L0 19L1 19L1 18ZM16 18L16 19L17 19L17 18ZM24 18L24 19L25 19L25 18ZM5 20L5 21L7 21L7 20ZM10 20L10 21L9 21L9 23L11 23L11 20ZM26 20L26 22L25 22L25 23L26 23L26 25L27 25L27 24L28 24L28 21L27 21L27 20ZM21 21L21 24L24 24L24 21ZM22 22L22 23L23 23L23 22ZM24 25L24 26L25 26L25 28L27 28L27 27L26 27L26 26L25 26L25 25ZM0 0L0 7L7 7L7 0ZM1 1L1 6L6 6L6 1ZM2 2L2 5L5 5L5 2ZM22 0L22 7L29 7L29 0ZM23 1L23 6L28 6L28 1ZM24 2L24 5L27 5L27 2ZM0 22L0 29L7 29L7 22ZM1 23L1 28L6 28L6 23ZM2 24L2 27L5 27L5 24Z" fill="#000000"/></g></g></svg>
