<?xml version="1.0" encoding="UTF-8"?>
<svg xmlns="http://www.w3.org/2000/svg" version="1.1" width="200" height="200" viewBox="0 0 200 200"><rect x="0" y="0" width="200" height="200" fill="#ffffff"/><g transform="scale(4.878)"><g transform="translate(0,0)"><path fill-rule="evenodd" d="M9 0L9 1L10 1L10 2L8 2L8 4L9 4L9 6L8 6L8 7L9 7L9 6L10 6L10 8L9 8L9 10L8 10L8 8L6 8L6 9L7 9L7 10L5 10L5 8L3 8L3 9L0 9L0 14L1 14L1 15L2 15L2 13L4 13L4 11L3 11L3 9L4 9L4 10L5 10L5 11L9 11L9 14L6 14L6 13L7 13L7 12L5 12L5 14L4 14L4 15L3 15L3 16L2 16L2 17L3 17L3 18L4 18L4 17L5 17L5 18L6 18L6 19L5 19L5 20L4 20L4 19L2 19L2 18L1 18L1 17L0 17L0 18L1 18L1 20L0 20L0 21L1 21L1 22L2 22L2 20L4 20L4 22L5 22L5 23L0 23L0 24L4 24L4 25L2 25L2 26L3 26L3 27L1 27L1 28L0 28L0 33L3 33L3 32L4 32L4 33L5 33L5 32L6 32L6 33L8 33L8 35L9 35L9 36L8 36L8 38L9 38L9 37L10 37L10 38L11 38L11 39L12 39L12 38L15 38L15 39L16 39L16 40L17 40L17 39L19 39L19 38L18 38L18 37L19 37L19 36L20 36L20 37L21 37L21 35L20 35L20 33L17 33L17 35L16 35L16 36L17 36L17 35L18 35L18 37L17 37L17 39L16 39L16 37L12 37L12 38L11 38L11 35L9 35L9 34L11 34L11 33L12 33L12 32L13 32L13 28L12 28L12 30L11 30L11 31L10 31L10 28L9 28L9 29L7 29L7 28L5 28L5 29L7 29L7 30L6 30L6 31L5 31L5 30L4 30L4 29L3 29L3 28L4 28L4 27L7 27L7 26L8 26L8 27L9 27L9 26L8 26L8 24L6 24L6 23L7 23L7 22L8 22L8 21L11 21L11 22L13 22L13 23L11 23L11 25L10 25L10 24L9 24L9 25L10 25L10 27L11 27L11 26L12 26L12 27L15 27L15 28L16 28L16 27L15 27L15 26L14 26L14 25L13 25L13 26L12 26L12 24L15 24L15 25L16 25L16 24L15 24L15 23L14 23L14 22L13 22L13 21L14 21L14 20L13 20L13 21L11 21L11 19L12 19L12 18L13 18L13 19L14 19L14 18L15 18L15 17L16 17L16 16L17 16L17 15L16 15L16 14L17 14L17 13L18 13L18 12L19 12L19 14L18 14L18 16L20 16L20 18L19 18L19 17L17 17L17 19L15 19L15 20L17 20L17 21L18 21L18 20L20 20L20 18L21 18L21 21L19 21L19 23L20 23L20 22L22 22L22 23L23 23L23 24L24 24L24 26L25 26L25 27L24 27L24 28L23 28L23 25L22 25L22 24L21 24L21 26L20 26L20 28L19 28L19 27L18 27L18 26L19 26L19 24L18 24L18 23L17 23L17 22L16 22L16 21L15 21L15 22L16 22L16 23L17 23L17 29L16 29L16 30L15 30L15 29L14 29L14 34L13 34L13 35L12 35L12 36L13 36L13 35L14 35L14 36L15 36L15 35L14 35L14 34L15 34L15 33L16 33L16 32L18 32L18 30L19 30L19 31L24 31L24 30L25 30L25 31L26 31L26 32L27 32L27 33L26 33L26 34L27 34L27 35L26 35L26 36L24 36L24 35L25 35L25 34L23 34L23 33L25 33L25 32L22 32L22 34L23 34L23 36L22 36L22 38L20 38L20 40L18 40L18 41L20 41L20 40L22 40L22 41L23 41L23 40L24 40L24 41L25 41L25 40L27 40L27 41L29 41L29 39L28 39L28 36L29 36L29 37L30 37L30 38L31 38L31 39L32 39L32 38L33 38L33 40L30 40L30 41L34 41L34 40L35 40L35 41L36 41L36 39L37 39L37 40L38 40L38 41L39 41L39 40L38 40L38 39L40 39L40 40L41 40L41 36L40 36L40 34L39 34L39 31L40 31L40 33L41 33L41 30L39 30L39 31L38 31L38 32L37 32L37 30L38 30L38 29L40 29L40 27L41 27L41 25L39 25L39 24L37 24L37 23L38 23L38 22L41 22L41 21L39 21L39 20L40 20L40 19L41 19L41 18L40 18L40 17L41 17L41 11L40 11L40 9L39 9L39 8L37 8L37 9L35 9L35 10L34 10L34 11L35 11L35 13L36 13L36 14L33 14L33 13L32 13L32 11L31 11L31 10L32 10L32 8L33 8L33 4L29 4L29 5L28 5L28 8L27 8L27 12L26 12L26 9L25 9L25 8L26 8L26 7L27 7L27 5L26 5L26 7L25 7L25 4L22 4L22 5L23 5L23 6L22 6L22 7L21 7L21 5L18 5L18 4L17 4L17 5L15 5L15 4L12 4L12 5L14 5L14 7L13 7L13 6L12 6L12 7L13 7L13 8L11 8L11 5L10 5L10 3L11 3L11 0ZM12 0L12 1L14 1L14 0ZM15 0L15 1L16 1L16 2L14 2L14 3L16 3L16 2L17 2L17 3L19 3L19 4L21 4L21 2L22 2L22 3L24 3L24 1L23 1L23 0L21 0L21 1L20 1L20 0ZM25 0L25 3L26 3L26 4L28 4L28 2L29 2L29 3L32 3L32 1L31 1L31 0L30 0L30 1L29 1L29 0L28 0L28 2L27 2L27 1L26 1L26 0ZM17 1L17 2L18 2L18 1ZM22 1L22 2L23 2L23 1ZM30 1L30 2L31 2L31 1ZM12 2L12 3L13 3L13 2ZM29 5L29 8L28 8L28 9L29 9L29 8L30 8L30 6L31 6L31 7L32 7L32 5ZM15 6L15 7L14 7L14 8L13 8L13 9L14 9L14 10L15 10L15 9L14 9L14 8L15 8L15 7L16 7L16 6ZM17 6L17 7L18 7L18 6ZM19 6L19 8L20 8L20 9L18 9L18 8L16 8L16 9L18 9L18 10L17 10L17 11L12 11L12 10L11 10L11 11L10 11L10 10L9 10L9 11L10 11L10 14L9 14L9 15L10 15L10 14L11 14L11 17L10 17L10 18L8 18L8 19L6 19L6 20L5 20L5 21L6 21L6 22L7 22L7 21L6 21L6 20L9 20L9 19L11 19L11 18L12 18L12 17L13 17L13 16L12 16L12 15L14 15L14 16L15 16L15 15L14 15L14 13L13 13L13 12L18 12L18 11L20 11L20 14L19 14L19 15L23 15L23 14L25 14L25 15L24 15L24 16L21 16L21 17L22 17L22 18L23 18L23 17L25 17L25 19L24 19L24 20L23 20L23 19L22 19L22 20L23 20L23 21L22 21L22 22L23 22L23 21L24 21L24 22L25 22L25 21L24 21L24 20L26 20L26 21L28 21L28 23L27 23L27 22L26 22L26 23L27 23L27 24L25 24L25 23L24 23L24 24L25 24L25 26L26 26L26 25L27 25L27 24L29 24L29 25L30 25L30 26L28 26L28 27L27 27L27 30L26 30L26 31L27 31L27 32L28 32L28 33L29 33L29 32L30 32L30 33L32 33L32 32L33 32L33 31L34 31L34 32L35 32L35 31L36 31L36 29L38 29L38 28L36 28L36 27L35 27L35 28L34 28L34 29L35 29L35 30L33 30L33 31L32 31L32 28L33 28L33 25L30 25L30 24L31 24L31 23L32 23L32 24L33 24L33 20L32 20L32 22L31 22L31 21L30 21L30 20L31 20L31 19L29 19L29 18L28 18L28 19L27 19L27 20L26 20L26 18L27 18L27 17L32 17L32 15L31 15L31 16L30 16L30 15L28 15L28 13L27 13L27 15L26 15L26 14L25 14L25 10L24 10L24 6L23 6L23 7L22 7L22 8L21 8L21 7L20 7L20 6ZM10 8L10 9L11 9L11 8ZM22 8L22 9L21 9L21 10L22 10L22 11L21 11L21 12L22 12L22 13L23 13L23 12L22 12L22 11L23 11L23 10L22 10L22 9L23 9L23 8ZM30 9L30 10L31 10L31 9ZM37 9L37 10L38 10L38 12L39 12L39 15L40 15L40 12L39 12L39 10L38 10L38 9ZM28 10L28 11L29 11L29 10ZM1 11L1 13L2 13L2 12L3 12L3 11ZM11 11L11 12L12 12L12 11ZM29 12L29 14L30 14L30 12ZM36 12L36 13L37 13L37 12ZM11 13L11 14L12 14L12 13ZM15 13L15 14L16 14L16 13ZM36 14L36 15L35 15L35 16L34 16L34 17L33 17L33 19L34 19L34 20L35 20L35 17L37 17L37 18L36 18L36 20L37 20L37 22L38 22L38 20L37 20L37 19L39 19L39 17L40 17L40 16L38 16L38 15L37 15L37 14ZM5 15L5 17L6 17L6 18L7 18L7 17L8 17L8 16L7 16L7 15ZM25 15L25 16L26 16L26 15ZM27 15L27 16L28 16L28 15ZM36 15L36 16L37 16L37 17L38 17L38 16L37 16L37 15ZM6 16L6 17L7 17L7 16ZM18 18L18 19L19 19L19 18ZM28 20L28 21L29 21L29 20ZM34 21L34 23L36 23L36 21ZM29 23L29 24L30 24L30 23ZM5 24L5 25L6 25L6 26L7 26L7 25L6 25L6 24ZM35 24L35 26L36 26L36 25L37 25L37 27L39 27L39 25L37 25L37 24ZM0 25L0 26L1 26L1 25ZM21 26L21 29L19 29L19 28L18 28L18 29L19 29L19 30L22 30L22 29L23 29L23 28L22 28L22 26ZM31 26L31 28L32 28L32 26ZM28 27L28 30L27 30L27 31L28 31L28 30L29 30L29 31L30 31L30 32L31 32L31 31L30 31L30 30L31 30L31 29L29 29L29 27ZM1 28L1 29L2 29L2 28ZM24 28L24 29L26 29L26 28ZM35 28L35 29L36 29L36 28ZM8 30L8 33L10 33L10 31L9 31L9 30ZM6 31L6 32L7 32L7 31ZM15 31L15 32L16 32L16 31ZM33 33L33 36L36 36L36 33ZM37 33L37 34L38 34L38 35L37 35L37 38L40 38L40 37L39 37L39 34L38 34L38 33ZM29 34L29 36L30 36L30 37L31 37L31 36L32 36L32 35L31 35L31 34ZM34 34L34 35L35 35L35 34ZM30 35L30 36L31 36L31 35ZM23 36L23 37L24 37L24 38L25 38L25 39L24 39L24 40L25 40L25 39L26 39L26 37L24 37L24 36ZM34 37L34 39L35 39L35 38L36 38L36 37ZM22 38L22 40L23 40L23 38ZM13 39L13 41L15 41L15 40L14 40L14 39ZM27 39L27 40L28 40L28 39ZM9 40L9 41L10 41L10 40ZM11 40L11 41L12 41L12 40ZM0 0L0 7L7 7L7 0ZM1 1L1 6L6 6L6 1ZM2 2L2 5L5 5L5 2ZM34 0L34 7L41 7L41 0ZM35 1L35 6L40 6L40 1ZM36 2L36 5L39 5L39 2ZM0 34L0 41L7 41L7 34ZM1 35L1 40L6 40L6 35ZM2 36L2 39L5 39L5 36Z" fill="#000000"/></g></g></svg>
