<?xml version="1.0" encoding="UTF-8"?>
<svg xmlns="http://www.w3.org/2000/svg" version="1.1" width="200" height="200" viewBox="0 0 200 200"><rect x="0" y="0" width="200" height="200" fill="#ffffff"/><g transform="scale(4.878)"><g transform="translate(0,0)"><path fill-rule="evenodd" d="M8 0L8 3L10 3L10 5L8 5L8 9L7 9L7 8L6 8L6 9L7 9L7 10L5 10L5 11L4 11L4 9L5 9L5 8L2 8L2 9L0 9L0 10L2 10L2 11L1 11L1 12L0 12L0 13L1 13L1 14L0 14L0 15L1 15L1 17L0 17L0 18L2 18L2 19L3 19L3 21L2 21L2 22L0 22L0 26L1 26L1 29L0 29L0 33L1 33L1 29L2 29L2 28L3 28L3 27L2 27L2 26L1 26L1 25L2 25L2 24L1 24L1 23L2 23L2 22L3 22L3 21L4 21L4 22L5 22L5 24L6 24L6 25L7 25L7 24L8 24L8 26L6 26L6 27L8 27L8 26L11 26L11 28L10 28L10 27L9 27L9 30L6 30L6 29L8 29L8 28L5 28L5 29L4 29L4 31L3 31L3 30L2 30L2 31L3 31L3 32L4 32L4 31L5 31L5 32L6 32L6 33L7 33L7 32L8 32L8 34L9 34L9 33L10 33L10 30L11 30L11 31L14 31L14 32L13 32L13 33L15 33L15 35L14 35L14 34L12 34L12 33L11 33L11 37L12 37L12 36L13 36L13 37L14 37L14 38L12 38L12 39L13 39L13 40L11 40L11 39L10 39L10 40L9 40L9 41L13 41L13 40L14 40L14 41L15 41L15 39L14 39L14 38L16 38L16 39L18 39L18 40L19 40L19 41L20 41L20 40L19 40L19 39L21 39L21 40L22 40L22 41L25 41L25 40L24 40L24 38L25 38L25 39L26 39L26 41L27 41L27 40L28 40L28 39L30 39L30 38L31 38L31 40L33 40L33 41L34 41L34 40L33 40L33 39L35 39L35 40L36 40L36 39L37 39L37 40L40 40L40 38L41 38L41 37L39 37L39 36L40 36L40 34L41 34L41 33L40 33L40 32L37 32L37 31L40 31L40 30L41 30L41 28L39 28L39 30L37 30L37 29L36 29L36 28L38 28L38 26L39 26L39 27L40 27L40 26L41 26L41 23L39 23L39 24L40 24L40 26L39 26L39 25L31 25L31 24L29 24L29 25L28 25L28 22L27 22L27 21L29 21L29 19L28 19L28 18L27 18L27 17L25 17L25 16L26 16L26 15L27 15L27 14L29 14L29 13L30 13L30 15L31 15L31 12L32 12L32 13L33 13L33 14L32 14L32 15L34 15L34 13L35 13L35 11L36 11L36 12L38 12L38 11L40 11L40 12L41 12L41 11L40 11L40 10L41 10L41 8L38 8L38 9L40 9L40 10L37 10L37 9L36 9L36 8L33 8L33 6L32 6L32 9L30 9L30 8L31 8L31 6L30 6L30 5L33 5L33 4L30 4L30 5L29 5L29 4L28 4L28 5L27 5L27 4L26 4L26 5L24 5L24 4L25 4L25 3L24 3L24 2L23 2L23 3L22 3L22 1L25 1L25 0L22 0L22 1L20 1L20 2L19 2L19 0L18 0L18 1L17 1L17 0L16 0L16 1L14 1L14 0L13 0L13 1L12 1L12 2L13 2L13 3L11 3L11 2L9 2L9 1L10 1L10 0ZM26 0L26 1L27 1L27 2L26 2L26 3L33 3L33 2L30 2L30 1L33 1L33 0L29 0L29 1L27 1L27 0ZM13 1L13 2L14 2L14 1ZM16 1L16 3L13 3L13 4L11 4L11 5L10 5L10 6L9 6L9 7L10 7L10 6L11 6L11 7L12 7L12 6L13 6L13 8L10 8L10 9L8 9L8 10L11 10L11 12L10 12L10 13L11 13L11 14L12 14L12 15L10 15L10 14L9 14L9 16L10 16L10 20L12 20L12 21L11 21L11 22L10 22L10 21L9 21L9 19L5 19L5 18L3 18L3 19L4 19L4 20L7 20L7 21L5 21L5 22L7 22L7 23L6 23L6 24L7 24L7 23L9 23L9 25L10 25L10 23L11 23L11 26L14 26L14 28L13 28L13 27L12 27L12 28L13 28L13 30L14 30L14 31L16 31L16 30L17 30L17 31L20 31L20 32L19 32L19 33L20 33L20 34L21 34L21 35L19 35L19 34L18 34L18 33L16 33L16 38L19 38L19 36L21 36L21 35L23 35L23 36L25 36L25 38L26 38L26 39L27 39L27 38L30 38L30 37L31 37L31 38L32 38L32 39L33 39L33 38L36 38L36 37L33 37L33 38L32 38L32 35L31 35L31 33L30 33L30 35L31 35L31 36L29 36L29 35L28 35L28 36L29 36L29 37L26 37L26 36L25 36L25 33L27 33L27 34L26 34L26 35L27 35L27 34L29 34L29 33L27 33L27 31L25 31L25 30L27 30L27 29L26 29L26 28L25 28L25 27L27 27L27 28L28 28L28 27L29 27L29 28L31 28L31 29L28 29L28 30L29 30L29 31L28 31L28 32L30 32L30 31L31 31L31 30L32 30L32 31L33 31L33 32L36 32L36 31L34 31L34 30L36 30L36 29L35 29L35 28L36 28L36 26L34 26L34 27L33 27L33 26L31 26L31 25L30 25L30 26L28 26L28 25L27 25L27 24L25 24L25 23L24 23L24 24L22 24L22 23L23 23L23 20L27 20L27 18L25 18L25 17L24 17L24 16L25 16L25 14L24 14L24 13L23 13L23 15L24 15L24 16L23 16L23 17L22 17L22 19L21 19L21 20L22 20L22 21L20 21L20 20L18 20L18 19L16 19L16 17L17 17L17 18L18 18L18 17L19 17L19 18L20 18L20 16L22 16L22 15L20 15L20 12L25 12L25 13L26 13L26 14L27 14L27 13L26 13L26 12L27 12L27 10L29 10L29 12L28 12L28 13L29 13L29 12L31 12L31 11L32 11L32 12L33 12L33 13L34 13L34 12L33 12L33 11L34 11L34 9L32 9L32 10L30 10L30 9L26 9L26 8L27 8L27 7L28 7L28 6L29 6L29 8L30 8L30 6L29 6L29 5L28 5L28 6L27 6L27 7L26 7L26 6L25 6L25 9L24 9L24 8L23 8L23 7L24 7L24 6L23 6L23 5L22 5L22 4L20 4L20 3L19 3L19 2L17 2L17 1ZM17 3L17 5L16 5L16 4L13 4L13 5L14 5L14 8L15 8L15 9L14 9L14 10L13 10L13 9L12 9L12 10L13 10L13 12L12 12L12 14L13 14L13 13L15 13L15 12L17 12L17 11L18 11L18 12L20 12L20 10L22 10L22 11L24 11L24 10L23 10L23 9L22 9L22 8L21 8L21 6L22 6L22 7L23 7L23 6L22 6L22 5L21 5L21 6L20 6L20 5L18 5L18 4L19 4L19 3ZM11 5L11 6L12 6L12 5ZM15 6L15 8L17 8L17 9L16 9L16 11L17 11L17 9L18 9L18 10L19 10L19 9L20 9L20 6L19 6L19 8L17 8L17 7L18 7L18 6L17 6L17 7L16 7L16 6ZM2 9L2 10L3 10L3 9ZM35 9L35 10L36 10L36 11L37 11L37 10L36 10L36 9ZM25 10L25 11L26 11L26 10ZM5 11L5 12L4 12L4 13L3 13L3 12L1 12L1 13L2 13L2 14L1 14L1 15L3 15L3 16L2 16L2 17L4 17L4 15L5 15L5 16L7 16L7 15L8 15L8 14L7 14L7 13L6 13L6 12L9 12L9 11ZM14 11L14 12L15 12L15 11ZM5 13L5 14L6 14L6 15L7 15L7 14L6 14L6 13ZM21 13L21 14L22 14L22 13ZM36 13L36 14L37 14L37 13ZM40 13L40 14L38 14L38 15L40 15L40 14L41 14L41 13ZM3 14L3 15L4 15L4 14ZM15 14L15 15L16 15L16 16L14 16L14 15L12 15L12 19L13 19L13 20L14 20L14 21L13 21L13 22L12 22L12 23L13 23L13 24L14 24L14 26L15 26L15 25L16 25L16 26L17 26L17 27L15 27L15 29L14 29L14 30L16 30L16 29L17 29L17 30L18 30L18 28L19 28L19 29L20 29L20 31L22 31L22 33L21 33L21 34L22 34L22 33L23 33L23 34L24 34L24 33L25 33L25 31L23 31L23 30L22 30L22 29L20 29L20 28L21 28L21 27L22 27L22 28L23 28L23 27L22 27L22 26L21 26L21 22L20 22L20 21L18 21L18 22L16 22L16 24L14 24L14 22L15 22L15 21L17 21L17 20L15 20L15 19L14 19L14 17L16 17L16 16L17 16L17 15L18 15L18 16L20 16L20 15L18 15L18 14ZM28 15L28 16L29 16L29 17L30 17L30 19L31 19L31 18L32 18L32 17L33 17L33 18L34 18L34 19L35 19L35 21L34 21L34 20L33 20L33 21L31 21L31 20L30 20L30 21L31 21L31 22L29 22L29 23L31 23L31 22L33 22L33 24L34 24L34 22L35 22L35 23L36 23L36 24L37 24L37 23L38 23L38 22L37 22L37 21L39 21L39 20L36 20L36 19L35 19L35 17L36 17L36 18L37 18L37 19L38 19L38 18L41 18L41 16L40 16L40 17L39 17L39 16L37 16L37 15L35 15L35 17L34 17L34 16L32 16L32 17L30 17L30 16L29 16L29 15ZM36 16L36 17L37 17L37 18L38 18L38 17L37 17L37 16ZM6 17L6 18L7 18L7 17ZM23 18L23 19L22 19L22 20L23 20L23 19L25 19L25 18ZM0 19L0 20L1 20L1 19ZM40 20L40 21L41 21L41 20ZM7 21L7 22L9 22L9 23L10 23L10 22L9 22L9 21ZM25 21L25 22L26 22L26 23L27 23L27 22L26 22L26 21ZM33 21L33 22L34 22L34 21ZM35 21L35 22L36 22L36 21ZM18 22L18 23L17 23L17 25L18 25L18 27L17 27L17 28L18 28L18 27L19 27L19 28L20 28L20 25L18 25L18 23L19 23L19 22ZM3 23L3 24L4 24L4 23ZM24 24L24 26L27 26L27 27L28 27L28 26L27 26L27 25L25 25L25 24ZM3 25L3 26L4 26L4 27L5 27L5 26L4 26L4 25ZM31 27L31 28L33 28L33 29L32 29L32 30L33 30L33 29L34 29L34 28L33 28L33 27ZM24 28L24 30L25 30L25 28ZM11 29L11 30L12 30L12 29ZM6 31L6 32L7 32L7 31ZM33 33L33 36L36 36L36 33ZM38 33L38 34L39 34L39 33ZM34 34L34 35L35 35L35 34ZM9 35L9 36L8 36L8 39L9 39L9 38L10 38L10 37L9 37L9 36L10 36L10 35ZM13 35L13 36L14 36L14 35ZM37 35L37 36L39 36L39 35ZM17 36L17 37L18 37L18 36ZM22 37L22 38L21 38L21 39L22 39L22 40L23 40L23 39L22 39L22 38L24 38L24 37ZM37 38L37 39L38 39L38 38ZM29 40L29 41L30 41L30 40ZM0 0L0 7L7 7L7 0ZM1 1L1 6L6 6L6 1ZM2 2L2 5L5 5L5 2ZM34 0L34 7L41 7L41 0ZM35 1L35 6L40 6L40 1ZM36 2L36 5L39 5L39 2ZM0 34L0 41L7 41L7 34ZM1 35L1 40L6 40L6 35ZM2 36L2 39L5 39L5 36Z" fill="#000000"/></g></g></svg>
