<?xml version="1.0" encoding="UTF-8"?>
<svg xmlns="http://www.w3.org/2000/svg" version="1.1" width="200" height="200" viewBox="0 0 200 200"><rect x="0" y="0" width="200" height="200" fill="#ffffff"/><g transform="scale(4.878)"><g transform="translate(0,0)"><path fill-rule="evenodd" d="M8 0L8 3L9 3L9 2L11 2L11 3L10 3L10 5L8 5L8 9L7 9L7 8L6 8L6 9L7 9L7 10L4 10L4 11L3 11L3 10L2 10L2 9L5 9L5 8L2 8L2 9L1 9L1 11L0 11L0 12L1 12L1 11L3 11L3 12L6 12L6 13L5 13L5 14L3 14L3 13L1 13L1 16L0 16L0 21L1 21L1 23L0 23L0 25L1 25L1 26L0 26L0 27L1 27L1 28L0 28L0 33L1 33L1 28L2 28L2 31L3 31L3 32L4 32L4 33L8 33L8 34L10 34L10 32L11 32L11 36L13 36L13 35L14 35L14 34L12 34L12 29L13 29L13 30L14 30L14 31L15 31L15 32L17 32L17 33L16 33L16 34L15 34L15 35L16 35L16 36L18 36L18 37L15 37L15 38L14 38L14 37L13 37L13 38L11 38L11 37L9 37L9 36L10 36L10 35L9 35L9 36L8 36L8 39L9 39L9 40L14 40L14 41L16 41L16 40L14 40L14 39L15 39L15 38L16 38L16 39L17 39L17 40L21 40L21 39L22 39L22 41L24 41L24 40L25 40L25 39L26 39L26 41L27 41L27 40L28 40L28 41L31 41L31 40L33 40L33 41L34 41L34 40L33 40L33 39L35 39L35 40L36 40L36 39L37 39L37 37L39 37L39 38L38 38L38 39L39 39L39 40L40 40L40 38L41 38L41 37L40 37L40 34L41 34L41 33L39 33L39 32L41 32L41 31L40 31L40 30L41 30L41 29L40 29L40 28L41 28L41 27L40 27L40 26L41 26L41 23L40 23L40 26L39 26L39 24L37 24L37 25L34 25L34 22L36 22L36 21L37 21L37 20L38 20L38 21L39 21L39 20L38 20L38 19L39 19L39 18L41 18L41 16L40 16L40 17L39 17L39 16L37 16L37 15L36 15L36 14L38 14L38 15L40 15L40 14L41 14L41 13L40 13L40 10L41 10L41 8L38 8L38 9L40 9L40 10L37 10L37 9L36 9L36 8L33 8L33 5L32 5L32 4L33 4L33 3L30 3L30 4L31 4L31 5L30 5L30 8L28 8L28 7L29 7L29 6L28 6L28 5L29 5L29 4L28 4L28 5L25 5L25 6L24 6L24 7L23 7L23 5L24 5L24 4L25 4L25 3L26 3L26 4L27 4L27 3L29 3L29 1L27 1L27 0L23 0L23 2L22 2L22 3L21 3L21 2L20 2L20 0L16 0L16 3L14 3L14 4L13 4L13 3L12 3L12 1L13 1L13 2L14 2L14 1L13 1L13 0L12 0L12 1L9 1L9 0ZM21 0L21 1L22 1L22 0ZM31 0L31 1L30 1L30 2L31 2L31 1L32 1L32 0ZM18 1L18 3L19 3L19 4L17 4L17 3L16 3L16 4L17 4L17 5L16 5L16 6L15 6L15 5L13 5L13 4L12 4L12 3L11 3L11 4L12 4L12 5L13 5L13 8L14 8L14 9L11 9L11 10L9 10L9 11L8 11L8 13L9 13L9 14L7 14L7 13L6 13L6 14L5 14L5 15L4 15L4 17L5 17L5 18L3 18L3 14L2 14L2 16L1 16L1 17L2 17L2 19L1 19L1 21L2 21L2 20L4 20L4 19L5 19L5 21L6 21L6 22L4 22L4 21L3 21L3 22L4 22L4 23L5 23L5 25L4 25L4 24L3 24L3 25L2 25L2 24L1 24L1 25L2 25L2 28L3 28L3 30L4 30L4 31L5 31L5 32L7 32L7 31L9 31L9 32L8 32L8 33L9 33L9 32L10 32L10 31L11 31L11 28L12 28L12 27L11 27L11 25L10 25L10 24L9 24L9 23L8 23L8 22L9 22L9 21L10 21L10 22L11 22L11 23L12 23L12 22L11 22L11 21L10 21L10 19L11 19L11 20L12 20L12 21L13 21L13 19L15 19L15 22L14 22L14 23L15 23L15 22L16 22L16 23L17 23L17 21L18 21L18 24L17 24L17 25L16 25L16 26L15 26L15 27L13 27L13 28L15 28L15 30L16 30L16 31L18 31L18 32L20 32L20 29L21 29L21 30L23 30L23 31L21 31L21 32L23 32L23 33L24 33L24 35L23 35L23 34L22 34L22 33L20 33L20 34L19 34L19 33L18 33L18 35L20 35L20 36L23 36L23 37L24 37L24 36L25 36L25 37L27 37L27 38L26 38L26 39L27 39L27 38L30 38L30 39L28 39L28 40L31 40L31 39L32 39L32 38L36 38L36 37L32 37L32 35L30 35L30 33L32 33L32 32L36 32L36 31L34 31L34 30L36 30L36 29L37 29L37 31L38 31L38 32L37 32L37 33L38 33L38 35L37 35L37 36L39 36L39 33L38 33L38 32L39 32L39 26L38 26L38 28L36 28L36 29L34 29L34 28L33 28L33 27L34 27L34 25L32 25L32 24L33 24L33 23L32 23L32 22L30 22L30 21L31 21L31 20L32 20L32 21L33 21L33 22L34 22L34 21L36 21L36 20L37 20L37 18L39 18L39 17L37 17L37 16L36 16L36 17L35 17L35 14L36 14L36 13L38 13L38 14L40 14L40 13L39 13L39 11L38 11L38 12L36 12L36 11L37 11L37 10L36 10L36 9L35 9L35 10L34 10L34 9L32 9L32 5L31 5L31 9L26 9L26 8L27 8L27 7L28 7L28 6L27 6L27 7L26 7L26 6L25 6L25 7L24 7L24 8L22 8L22 9L21 9L21 8L19 8L19 7L20 7L20 5L21 5L21 3L20 3L20 2L19 2L19 1ZM23 2L23 3L24 3L24 2ZM26 2L26 3L27 3L27 2ZM19 4L19 5L17 5L17 6L16 6L16 8L17 8L17 6L18 6L18 7L19 7L19 5L20 5L20 4ZM9 6L9 7L10 7L10 6ZM11 6L11 7L12 7L12 6ZM14 6L14 8L15 8L15 6ZM21 6L21 7L22 7L22 6ZM24 8L24 10L23 10L23 9L22 9L22 10L21 10L21 9L18 9L18 10L19 10L19 11L18 11L18 12L17 12L17 13L18 13L18 14L15 14L15 13L16 13L16 12L15 12L15 11L16 11L16 10L17 10L17 9L15 9L15 10L14 10L14 14L13 14L13 13L11 13L11 11L10 11L10 14L9 14L9 16L10 16L10 18L9 18L9 19L10 19L10 18L11 18L11 16L10 16L10 15L11 15L11 14L13 14L13 15L14 15L14 16L13 16L13 17L12 17L12 19L13 19L13 17L14 17L14 18L15 18L15 17L14 17L14 16L16 16L16 15L18 15L18 16L17 16L17 18L18 18L18 19L19 19L19 20L20 20L20 19L21 19L21 21L19 21L19 24L21 24L21 25L18 25L18 26L17 26L17 27L18 27L18 28L19 28L19 29L20 29L20 28L21 28L21 29L23 29L23 30L24 30L24 29L26 29L26 30L25 30L25 32L24 32L24 33L26 33L26 34L25 34L25 35L26 35L26 36L27 36L27 37L29 37L29 35L28 35L28 34L27 34L27 30L29 30L29 31L28 31L28 33L30 33L30 32L31 32L31 30L29 30L29 29L31 29L31 28L32 28L32 29L33 29L33 30L32 30L32 31L33 31L33 30L34 30L34 29L33 29L33 28L32 28L32 27L31 27L31 28L29 28L29 27L28 27L28 26L25 26L25 23L28 23L28 24L27 24L27 25L29 25L29 26L30 26L30 25L31 25L31 26L32 26L32 25L31 25L31 24L32 24L32 23L30 23L30 22L29 22L29 23L28 23L28 22L26 22L26 21L24 21L24 23L20 23L20 22L21 22L21 21L23 21L23 20L24 20L24 19L25 19L25 20L26 20L26 19L25 19L25 18L26 18L26 17L28 17L28 15L30 15L30 16L29 16L29 18L27 18L27 20L28 20L28 21L29 21L29 20L31 20L31 19L30 19L30 18L32 18L32 19L33 19L33 18L34 18L34 19L35 19L35 20L36 20L36 19L35 19L35 17L34 17L34 16L33 16L33 15L34 15L34 14L33 14L33 13L34 13L34 12L33 12L33 13L32 13L32 12L27 12L27 11L28 11L28 10L27 10L27 11L25 11L25 13L27 13L27 15L25 15L25 14L24 14L24 10L25 10L25 8ZM31 9L31 10L32 10L32 11L34 11L34 10L32 10L32 9ZM12 10L12 12L13 12L13 10ZM6 11L6 12L7 12L7 11ZM19 11L19 12L18 12L18 13L19 13L19 15L20 15L20 16L18 16L18 17L19 17L19 18L21 18L21 19L22 19L22 20L23 20L23 19L22 19L22 18L21 18L21 17L22 17L22 15L23 15L23 17L24 17L24 18L25 18L25 17L26 17L26 16L24 16L24 14L21 14L21 15L20 15L20 13L23 13L23 11L22 11L22 12L21 12L21 11ZM28 13L28 14L30 14L30 15L31 15L31 14L32 14L32 15L33 15L33 14L32 14L32 13L31 13L31 14L30 14L30 13ZM6 14L6 15L7 15L7 14ZM5 16L5 17L7 17L7 18L6 18L6 19L7 19L7 18L8 18L8 17L7 17L7 16ZM30 16L30 17L31 17L31 16ZM32 17L32 18L33 18L33 17ZM36 17L36 18L37 18L37 17ZM16 19L16 21L17 21L17 19ZM28 19L28 20L29 20L29 19ZM6 20L6 21L7 21L7 20ZM33 20L33 21L34 21L34 20ZM40 20L40 21L41 21L41 20ZM6 22L6 23L7 23L7 24L6 24L6 25L7 25L7 24L8 24L8 23L7 23L7 22ZM29 23L29 24L30 24L30 23ZM35 23L35 24L36 24L36 23ZM12 24L12 26L14 26L14 24ZM22 24L22 25L21 25L21 26L20 26L20 27L19 27L19 26L18 26L18 27L19 27L19 28L20 28L20 27L21 27L21 28L23 28L23 29L24 29L24 27L25 27L25 26L24 26L24 24ZM9 25L9 27L10 27L10 28L11 28L11 27L10 27L10 25ZM3 26L3 28L4 28L4 26ZM6 26L6 27L7 27L7 26ZM22 26L22 27L23 27L23 26ZM27 27L27 28L28 28L28 29L29 29L29 28L28 28L28 27ZM5 28L5 29L4 29L4 30L5 30L5 29L7 29L7 30L6 30L6 31L7 31L7 30L9 30L9 31L10 31L10 30L9 30L9 28L8 28L8 29L7 29L7 28ZM16 29L16 30L18 30L18 29ZM29 31L29 32L30 32L30 31ZM33 33L33 36L36 36L36 33ZM16 34L16 35L17 35L17 34ZM21 34L21 35L22 35L22 34ZM26 34L26 35L27 35L27 36L28 36L28 35L27 35L27 34ZM34 34L34 35L35 35L35 34ZM30 36L30 37L31 37L31 36ZM18 37L18 39L21 39L21 37ZM10 38L10 39L11 39L11 38ZM13 38L13 39L14 39L14 38ZM22 38L22 39L23 39L23 40L24 40L24 39L25 39L25 38L24 38L24 39L23 39L23 38ZM0 0L0 7L7 7L7 0ZM1 1L1 6L6 6L6 1ZM2 2L2 5L5 5L5 2ZM34 0L34 7L41 7L41 0ZM35 1L35 6L40 6L40 1ZM36 2L36 5L39 5L39 2ZM0 34L0 41L7 41L7 34ZM1 35L1 40L6 40L6 35ZM2 36L2 39L5 39L5 36Z" fill="#000000"/></g></g></svg>
