<?xml version="1.0" encoding="UTF-8"?>
<svg xmlns="http://www.w3.org/2000/svg" version="1.1" width="200" height="200" viewBox="0 0 200 200"><rect x="0" y="0" width="200" height="200" fill="#ffffff"/><g transform="scale(6.897)"><g transform="translate(0,0)"><path fill-rule="evenodd" d="M9 0L9 1L11 1L11 2L10 2L10 3L11 3L11 4L9 4L9 2L8 2L8 4L9 4L9 6L8 6L8 7L9 7L9 9L8 9L8 8L6 8L6 9L7 9L7 10L5 10L5 8L3 8L3 10L1 10L1 9L0 9L0 12L1 12L1 16L0 16L0 21L2 21L2 20L3 20L3 21L7 21L7 20L10 20L10 19L11 19L11 21L10 21L10 23L9 23L9 21L8 21L8 23L9 23L9 24L8 24L8 26L9 26L9 25L11 25L11 24L12 24L12 26L10 26L10 27L11 27L11 29L12 29L12 26L13 26L13 27L14 27L14 28L13 28L13 29L14 29L14 28L15 28L15 25L16 25L16 24L15 24L15 23L14 23L14 22L13 22L13 23L14 23L14 24L15 24L15 25L13 25L13 24L12 24L12 23L11 23L11 22L12 22L12 19L13 19L13 20L15 20L15 22L16 22L16 23L19 23L19 21L20 21L20 24L17 24L17 27L18 27L18 29L20 29L20 28L21 28L21 29L23 29L23 28L24 28L24 29L25 29L25 27L26 27L26 29L28 29L28 28L27 28L27 27L29 27L29 26L26 26L26 25L29 25L29 22L28 22L28 21L26 21L26 18L28 18L28 19L29 19L29 17L28 17L28 16L29 16L29 14L27 14L27 13L29 13L29 11L28 11L28 10L27 10L27 11L26 11L26 9L27 9L27 8L25 8L25 12L24 12L24 16L23 16L23 12L22 12L22 11L21 11L21 10L19 10L19 9L17 9L17 10L16 10L16 9L15 9L15 6L16 6L16 7L17 7L17 8L19 8L19 6L20 6L20 8L21 8L21 4L19 4L19 3L20 3L20 1L21 1L21 0L19 0L19 1L18 1L18 0L15 0L15 1L13 1L13 4L12 4L12 3L11 3L11 2L12 2L12 0ZM15 1L15 2L14 2L14 4L15 4L15 3L16 3L16 4L17 4L17 5L16 5L16 6L17 6L17 7L18 7L18 6L19 6L19 4L18 4L18 3L19 3L19 2L18 2L18 1ZM11 4L11 7L10 7L10 6L9 6L9 7L10 7L10 9L9 9L9 10L7 10L7 11L5 11L5 10L3 10L3 12L2 12L2 11L1 11L1 12L2 12L2 13L3 13L3 12L4 12L4 11L5 11L5 16L4 16L4 17L3 17L3 16L1 16L1 17L2 17L2 19L3 19L3 20L7 20L7 19L10 19L10 18L11 18L11 19L12 19L12 18L14 18L14 19L15 19L15 20L16 20L16 22L18 22L18 21L19 21L19 18L20 18L20 19L21 19L21 20L22 20L22 19L21 19L21 16L20 16L20 15L21 15L21 14L22 14L22 12L21 12L21 14L20 14L20 15L19 15L19 18L17 18L17 20L16 20L16 18L15 18L15 17L18 17L18 16L17 16L17 14L18 14L18 12L17 12L17 11L19 11L19 10L17 10L17 11L16 11L16 10L15 10L15 9L14 9L14 8L12 8L12 4ZM13 5L13 7L14 7L14 5ZM10 9L10 10L9 10L9 12L11 12L11 11L13 11L13 9ZM22 9L22 10L23 10L23 11L24 11L24 9ZM14 10L14 15L13 15L13 16L14 16L14 17L15 17L15 15L16 15L16 14L17 14L17 12L16 12L16 14L15 14L15 10ZM7 11L7 12L6 12L6 13L7 13L7 12L8 12L8 11ZM27 11L27 12L28 12L28 11ZM12 12L12 13L10 13L10 15L9 15L9 13L8 13L8 15L7 15L7 14L6 14L6 15L7 15L7 16L5 16L5 17L8 17L8 18L9 18L9 17L8 17L8 16L10 16L10 17L11 17L11 18L12 18L12 17L11 17L11 16L12 16L12 15L11 15L11 14L12 14L12 13L13 13L13 12ZM19 12L19 13L20 13L20 12ZM25 13L25 16L26 16L26 17L27 17L27 16L28 16L28 15L27 15L27 16L26 16L26 13ZM2 14L2 15L3 15L3 14ZM22 16L22 17L23 17L23 16ZM3 18L3 19L7 19L7 18ZM23 19L23 20L24 20L24 19ZM17 20L17 21L18 21L18 20ZM21 21L21 24L24 24L24 21ZM22 22L22 23L23 23L23 22ZM25 22L25 25L26 25L26 24L28 24L28 23L27 23L27 22ZM19 25L19 26L18 26L18 27L19 27L19 28L20 28L20 27L21 27L21 26L22 26L22 28L23 28L23 27L25 27L25 26L24 26L24 25ZM9 28L9 29L10 29L10 28ZM16 28L16 29L17 29L17 28ZM0 0L0 7L7 7L7 0ZM1 1L1 6L6 6L6 1ZM2 2L2 5L5 5L5 2ZM22 0L22 7L29 7L29 0ZM23 1L23 6L28 6L28 1ZM24 2L24 5L27 5L27 2ZM0 22L0 29L7 29L7 22ZM1 23L1 28L6 28L6 23ZM2 24L2 27L5 27L5 24Z" fill="#000000"/></g></g></svg>
