<?xml version="1.0" encoding="UTF-8"?>
<svg xmlns="http://www.w3.org/2000/svg" version="1.1" width="200" height="200" viewBox="0 0 200 200"><rect x="0" y="0" width="200" height="200" fill="#ffffff"/><g transform="scale(6.897)"><g transform="translate(0,0)"><path fill-rule="evenodd" d="M9 0L9 1L10 1L10 2L11 2L11 3L10 3L10 4L8 4L8 5L10 5L10 4L11 4L11 5L12 5L12 7L11 7L11 6L10 6L10 7L11 7L11 8L9 8L9 6L8 6L8 8L6 8L6 9L5 9L5 10L6 10L6 11L5 11L5 12L4 12L4 8L2 8L2 10L0 10L0 12L2 12L2 13L0 13L0 14L1 14L1 15L2 15L2 16L0 16L0 17L2 17L2 19L4 19L4 18L5 18L5 20L3 20L3 21L7 21L7 20L6 20L6 19L7 19L7 18L6 18L6 17L7 17L7 16L8 16L8 17L9 17L9 19L10 19L10 20L8 20L8 23L9 23L9 25L8 25L8 27L9 27L9 26L10 26L10 28L9 28L9 29L10 29L10 28L11 28L11 26L12 26L12 28L14 28L14 29L17 29L17 28L20 28L20 29L22 29L22 27L21 27L21 28L20 28L20 27L18 27L18 26L16 26L16 25L17 25L17 24L18 24L18 25L19 25L19 26L20 26L20 25L23 25L23 26L24 26L24 27L23 27L23 28L25 28L25 29L26 29L26 28L25 28L25 27L26 27L26 26L27 26L27 25L29 25L29 23L28 23L28 20L27 20L27 18L28 18L28 19L29 19L29 17L26 17L26 16L25 16L25 15L24 15L24 16L23 16L23 15L22 15L22 14L24 14L24 13L25 13L25 14L26 14L26 15L27 15L27 16L28 16L28 15L29 15L29 14L28 14L28 15L27 15L27 13L28 13L28 12L29 12L29 11L28 11L28 12L27 12L27 11L26 11L26 10L25 10L25 8L24 8L24 10L23 10L23 11L24 11L24 10L25 10L25 11L26 11L26 12L27 12L27 13L25 13L25 12L23 12L23 13L22 13L22 14L21 14L21 13L20 13L20 14L19 14L19 12L20 12L20 11L19 11L19 12L18 12L18 11L16 11L16 13L14 13L14 12L15 12L15 11L14 11L14 12L12 12L12 17L11 17L11 16L10 16L10 17L9 17L9 15L7 15L7 14L8 14L8 12L6 12L6 11L9 11L9 12L10 12L10 13L9 13L9 14L11 14L11 12L10 12L10 9L12 9L12 11L13 11L13 10L14 10L14 9L12 9L12 8L13 8L13 5L14 5L14 4L15 4L15 6L14 6L14 8L15 8L15 9L16 9L16 10L18 10L18 9L16 9L16 8L20 8L20 9L21 9L21 12L22 12L22 9L23 9L23 8L20 8L20 7L21 7L21 0L20 0L20 1L19 1L19 0L18 0L18 1L17 1L17 0L13 0L13 1L14 1L14 4L12 4L12 2L11 2L11 1L12 1L12 0L11 0L11 1L10 1L10 0ZM15 1L15 3L16 3L16 5L17 5L17 7L18 7L18 6L19 6L19 7L20 7L20 5L19 5L19 4L18 4L18 2L19 2L19 3L20 3L20 2L19 2L19 1L18 1L18 2L17 2L17 1ZM16 2L16 3L17 3L17 2ZM17 4L17 5L18 5L18 4ZM15 6L15 8L16 8L16 6ZM6 9L6 10L8 10L8 9ZM27 9L27 10L29 10L29 9ZM17 12L17 14L16 14L16 15L17 15L17 16L15 16L15 15L13 15L13 17L12 17L12 18L10 18L10 19L11 19L11 22L9 22L9 23L11 23L11 22L12 22L12 18L13 18L13 17L17 17L17 19L16 19L16 20L15 20L15 23L16 23L16 24L17 24L17 23L16 23L16 20L17 20L17 19L18 19L18 20L19 20L19 21L18 21L18 22L19 22L19 23L18 23L18 24L19 24L19 25L20 25L20 24L19 24L19 23L20 23L20 20L22 20L22 19L24 19L24 20L26 20L26 22L25 22L25 23L26 23L26 25L24 25L24 26L26 26L26 25L27 25L27 24L28 24L28 23L27 23L27 20L26 20L26 17L25 17L25 19L24 19L24 18L22 18L22 17L21 17L21 18L20 18L20 20L19 20L19 17L20 17L20 16L21 16L21 14L20 14L20 15L19 15L19 14L18 14L18 12ZM3 13L3 14L5 14L5 13ZM6 13L6 14L7 14L7 13ZM13 13L13 14L14 14L14 13ZM17 14L17 15L18 15L18 16L17 16L17 17L19 17L19 15L18 15L18 14ZM3 15L3 16L2 16L2 17L3 17L3 18L4 18L4 17L3 17L3 16L5 16L5 17L6 17L6 16L7 16L7 15L6 15L6 16L5 16L5 15ZM0 18L0 19L1 19L1 18ZM14 18L14 19L13 19L13 22L14 22L14 19L15 19L15 18ZM21 18L21 19L22 19L22 18ZM1 20L1 21L2 21L2 20ZM21 21L21 24L24 24L24 21ZM22 22L22 23L23 23L23 22ZM13 23L13 24L12 24L12 25L13 25L13 26L14 26L14 27L16 27L16 28L17 28L17 27L16 27L16 26L14 26L14 25L15 25L15 24L14 24L14 23ZM10 24L10 26L11 26L11 24ZM28 26L28 27L27 27L27 28L29 28L29 26ZM0 0L0 7L7 7L7 0ZM1 1L1 6L6 6L6 1ZM2 2L2 5L5 5L5 2ZM22 0L22 7L29 7L29 0ZM23 1L23 6L28 6L28 1ZM24 2L24 5L27 5L27 2ZM0 22L0 29L7 29L7 22ZM1 23L1 28L6 28L6 23ZM2 24L2 27L5 27L5 24Z" fill="#000000"/></g></g></svg>
