<?xml version="1.0" encoding="UTF-8"?>
<svg xmlns="http://www.w3.org/2000/svg" version="1.1" width="200" height="200" viewBox="0 0 200 200"><rect x="0" y="0" width="200" height="200" fill="#ffffff"/><g transform="scale(4.878)"><g transform="translate(0,0)"><path fill-rule="evenodd" d="M8 0L8 3L9 3L9 5L8 5L8 9L7 9L7 8L6 8L6 9L7 9L7 10L5 10L5 13L7 13L7 14L6 14L6 15L7 15L7 16L6 16L6 17L7 17L7 16L10 16L10 17L11 17L11 18L12 18L12 17L13 17L13 19L14 19L14 20L13 20L13 21L12 21L12 19L11 19L11 21L10 21L10 19L9 19L9 17L8 17L8 20L5 20L5 21L7 21L7 22L6 22L6 23L5 23L5 22L4 22L4 21L2 21L2 19L3 19L3 20L4 20L4 17L0 17L0 18L1 18L1 19L0 19L0 21L2 21L2 22L1 22L1 23L0 23L0 24L1 24L1 23L2 23L2 24L4 24L4 25L5 25L5 24L6 24L6 25L7 25L7 24L8 24L8 25L11 25L11 26L12 26L12 25L11 25L11 23L12 23L12 24L13 24L13 26L14 26L14 28L13 28L13 29L12 29L12 27L10 27L10 28L9 28L9 29L10 29L10 28L11 28L11 30L13 30L13 31L10 31L10 30L9 30L9 32L11 32L11 35L10 35L10 36L11 36L11 38L9 38L9 36L8 36L8 39L10 39L10 41L14 41L14 40L15 40L15 41L16 41L16 40L15 40L15 39L16 39L16 37L15 37L15 36L17 36L17 38L19 38L19 40L18 40L18 39L17 39L17 40L18 40L18 41L19 41L19 40L20 40L20 41L23 41L23 40L24 40L24 41L25 41L25 40L26 40L26 41L27 41L27 40L28 40L28 41L32 41L32 40L33 40L33 41L34 41L34 40L33 40L33 39L35 39L35 40L36 40L36 39L37 39L37 40L40 40L40 38L41 38L41 37L40 37L40 36L38 36L38 35L40 35L40 34L41 34L41 32L40 32L40 30L41 30L41 29L39 29L39 32L37 32L37 31L38 31L38 30L37 30L37 29L35 29L35 30L34 30L34 31L35 31L35 30L36 30L36 32L33 32L33 31L32 31L32 30L33 30L33 29L34 29L34 28L33 28L33 29L32 29L32 30L28 30L28 29L31 29L31 28L32 28L32 27L34 27L34 26L35 26L35 25L36 25L36 26L37 26L37 27L35 27L35 28L38 28L38 26L39 26L39 28L41 28L41 27L40 27L40 26L41 26L41 23L39 23L39 24L40 24L40 26L39 26L39 25L36 25L36 24L37 24L37 23L38 23L38 22L39 22L39 20L36 20L36 19L35 19L35 17L36 17L36 18L38 18L38 17L39 17L39 16L37 16L37 15L38 15L38 14L39 14L39 15L40 15L40 14L41 14L41 13L40 13L40 14L39 14L39 13L38 13L38 14L37 14L37 13L36 13L36 14L35 14L35 17L34 17L34 16L32 16L32 17L31 17L31 15L30 15L30 16L29 16L29 15L28 15L28 16L29 16L29 17L31 17L31 18L30 18L30 19L31 19L31 20L30 20L30 21L31 21L31 22L29 22L29 21L28 21L28 20L27 20L27 19L28 19L28 18L27 18L27 14L29 14L29 13L30 13L30 14L31 14L31 12L29 12L29 10L27 10L27 9L31 9L31 10L32 10L32 11L33 11L33 12L32 12L32 13L33 13L33 14L32 14L32 15L34 15L34 13L35 13L35 12L38 12L38 11L39 11L39 12L40 12L40 10L41 10L41 8L38 8L38 9L40 9L40 10L37 10L37 9L36 9L36 8L33 8L33 4L30 4L30 5L32 5L32 7L31 7L31 6L30 6L30 7L31 7L31 8L27 8L27 9L26 9L26 11L27 11L27 12L25 12L25 11L24 11L24 10L23 10L23 9L25 9L25 8L26 8L26 7L27 7L27 6L28 6L28 7L29 7L29 5L27 5L27 4L25 4L25 5L26 5L26 7L25 7L25 6L24 6L24 3L25 3L25 2L24 2L24 0L22 0L22 2L21 2L21 1L20 1L20 2L21 2L21 3L18 3L18 5L17 5L17 4L15 4L15 5L17 5L17 6L16 6L16 7L15 7L15 6L14 6L14 5L13 5L13 4L14 4L14 3L13 3L13 4L11 4L11 3L12 3L12 0L10 0L10 1L9 1L9 0ZM13 0L13 2L15 2L15 3L17 3L17 2L19 2L19 1L18 1L18 0L17 0L17 1L16 1L16 0L15 0L15 1L14 1L14 0ZM26 0L26 1L27 1L27 2L26 2L26 3L28 3L28 4L29 4L29 3L31 3L31 2L30 2L30 0L29 0L29 1L27 1L27 0ZM31 0L31 1L32 1L32 0ZM10 1L10 2L11 2L11 1ZM15 1L15 2L16 2L16 1ZM22 2L22 4L21 4L21 7L20 7L20 6L19 6L19 5L18 5L18 6L17 6L17 7L16 7L16 8L17 8L17 9L16 9L16 10L14 10L14 9L15 9L15 8L12 8L12 6L11 6L11 9L12 9L12 10L14 10L14 11L13 11L13 13L14 13L14 12L15 12L15 14L14 14L14 15L15 15L15 14L16 14L16 12L17 12L17 13L18 13L18 16L15 16L15 17L14 17L14 19L15 19L15 17L17 17L17 18L16 18L16 19L17 19L17 18L18 18L18 21L17 21L17 20L16 20L16 22L14 22L14 21L13 21L13 22L14 22L14 25L17 25L17 26L15 26L15 28L14 28L14 29L13 29L13 30L14 30L14 31L13 31L13 32L12 32L12 33L13 33L13 32L15 32L15 33L14 33L14 34L13 34L13 35L14 35L14 36L13 36L13 37L12 37L12 38L13 38L13 37L14 37L14 36L15 36L15 35L16 35L16 32L15 32L15 29L17 29L17 28L16 28L16 27L17 27L17 26L18 26L18 34L19 34L19 31L21 31L21 32L20 32L20 36L21 36L21 37L19 37L19 38L20 38L20 39L22 39L22 38L24 38L24 37L25 37L25 39L26 39L26 38L29 38L29 39L28 39L28 40L30 40L30 37L31 37L31 40L32 40L32 39L33 39L33 38L36 38L36 37L32 37L32 35L31 35L31 33L30 33L30 35L31 35L31 36L29 36L29 37L27 37L27 34L28 34L28 33L29 33L29 32L31 32L31 31L28 31L28 33L26 33L26 32L27 32L27 30L24 30L24 28L25 28L25 29L27 29L27 28L31 28L31 27L32 27L32 26L34 26L34 25L35 25L35 24L36 24L36 23L35 23L35 22L36 22L36 21L35 21L35 19L34 19L34 18L33 18L33 17L32 17L32 18L31 18L31 19L32 19L32 20L31 20L31 21L32 21L32 22L31 22L31 23L32 23L32 24L31 24L31 25L30 25L30 26L29 26L29 25L26 25L26 27L27 27L27 28L25 28L25 26L23 26L23 22L24 22L24 25L25 25L25 24L28 24L28 23L26 23L26 22L28 22L28 21L26 21L26 19L27 19L27 18L25 18L25 20L24 20L24 18L21 18L21 19L19 19L19 18L20 18L20 17L21 17L21 14L19 14L19 13L21 13L21 12L22 12L22 10L21 10L21 9L22 9L22 4L23 4L23 3L24 3L24 2ZM32 2L32 3L33 3L33 2ZM9 5L9 8L10 8L10 5ZM13 6L13 7L14 7L14 6ZM18 6L18 7L19 7L19 6ZM23 6L23 8L25 8L25 7L24 7L24 6ZM2 8L2 10L0 10L0 11L1 11L1 12L0 12L0 13L1 13L1 12L2 12L2 13L4 13L4 11L3 11L3 12L2 12L2 10L4 10L4 9L5 9L5 8ZM19 8L19 9L20 9L20 8ZM31 8L31 9L32 9L32 10L33 10L33 11L34 11L34 9L32 9L32 8ZM8 9L8 10L7 10L7 11L6 11L6 12L7 12L7 11L11 11L11 12L10 12L10 13L9 13L9 12L8 12L8 13L9 13L9 14L12 14L12 16L11 16L11 15L10 15L10 16L11 16L11 17L12 17L12 16L13 16L13 14L12 14L12 11L11 11L11 10L10 10L10 9ZM35 9L35 11L37 11L37 10L36 10L36 9ZM18 10L18 13L19 13L19 11L20 11L20 10ZM15 11L15 12L16 12L16 11ZM23 11L23 12L24 12L24 14L22 14L22 17L26 17L26 14L25 14L25 12L24 12L24 11ZM28 12L28 13L29 13L29 12ZM33 12L33 13L34 13L34 12ZM2 14L2 15L0 15L0 16L4 16L4 15L5 15L5 14L4 14L4 15L3 15L3 14ZM7 14L7 15L8 15L8 14ZM24 14L24 15L23 15L23 16L24 16L24 15L25 15L25 14ZM19 15L19 16L18 16L18 17L19 17L19 16L20 16L20 15ZM36 16L36 17L37 17L37 16ZM40 16L40 18L39 18L39 19L40 19L40 18L41 18L41 16ZM6 18L6 19L7 19L7 18ZM19 20L19 21L18 21L18 22L16 22L16 23L15 23L15 24L17 24L17 25L18 25L18 26L19 26L19 27L20 27L20 30L21 30L21 31L22 31L22 30L21 30L21 28L22 28L22 26L21 26L21 25L22 25L22 23L21 23L21 25L20 25L20 23L18 23L18 22L19 22L19 21L20 21L20 22L21 22L21 21L23 21L23 20ZM32 20L32 21L34 21L34 22L33 22L33 23L34 23L34 24L32 24L32 25L31 25L31 26L32 26L32 25L34 25L34 24L35 24L35 23L34 23L34 22L35 22L35 21L34 21L34 20ZM40 20L40 21L41 21L41 20ZM37 21L37 22L38 22L38 21ZM2 22L2 23L4 23L4 22ZM7 22L7 23L6 23L6 24L7 24L7 23L8 23L8 24L9 24L9 22ZM10 22L10 23L11 23L11 22ZM29 23L29 24L30 24L30 23ZM2 25L2 27L3 27L3 25ZM6 26L6 27L7 27L7 26ZM27 26L27 27L28 27L28 26ZM4 27L4 28L0 28L0 33L1 33L1 30L4 30L4 31L5 31L5 32L3 32L3 33L7 33L7 32L8 32L8 30L5 30L5 27ZM23 27L23 28L24 28L24 27ZM6 28L6 29L8 29L8 28ZM16 30L16 31L17 31L17 30ZM6 31L6 32L7 32L7 31ZM23 31L23 32L24 32L24 33L22 33L22 34L21 34L21 35L22 35L22 34L23 34L23 36L25 36L25 37L26 37L26 34L24 34L24 33L25 33L25 32L24 32L24 31ZM8 33L8 34L9 34L9 33ZM33 33L33 36L36 36L36 33ZM37 33L37 35L38 35L38 34L39 34L39 33ZM14 34L14 35L15 35L15 34ZM34 34L34 35L35 35L35 34ZM11 35L11 36L12 36L12 35ZM17 35L17 36L18 36L18 35ZM37 36L37 37L38 37L38 36ZM21 37L21 38L22 38L22 37ZM37 38L37 39L38 39L38 38ZM12 39L12 40L14 40L14 39ZM0 0L0 7L7 7L7 0ZM1 1L1 6L6 6L6 1ZM2 2L2 5L5 5L5 2ZM34 0L34 7L41 7L41 0ZM35 1L35 6L40 6L40 1ZM36 2L36 5L39 5L39 2ZM0 34L0 41L7 41L7 34ZM1 35L1 40L6 40L6 35ZM2 36L2 39L5 39L5 36Z" fill="#000000"/></g></g></svg>
