<?xml version="1.0" encoding="UTF-8"?>
<svg xmlns="http://www.w3.org/2000/svg" version="1.1" width="200" height="200" viewBox="0 0 200 200"><rect x="0" y="0" width="200" height="200" fill="#ffffff"/><g transform="scale(6.897)"><g transform="translate(0,0)"><path fill-rule="evenodd" d="M8 0L8 3L10 3L10 4L9 4L9 5L8 5L8 10L6 10L6 9L7 9L7 8L6 8L6 9L5 9L5 8L2 8L2 11L0 11L0 14L1 14L1 15L2 15L2 16L1 16L1 17L0 17L0 21L1 21L1 18L2 18L2 17L3 17L3 18L4 18L4 17L7 17L7 18L5 18L5 19L2 19L2 20L3 20L3 21L4 21L4 20L5 20L5 21L7 21L7 20L5 20L5 19L7 19L7 18L8 18L8 20L10 20L10 19L9 19L9 18L11 18L11 21L10 21L10 22L9 22L9 21L8 21L8 22L9 22L9 23L10 23L10 24L8 24L8 27L9 27L9 29L11 29L11 28L12 28L12 25L13 25L13 24L14 24L14 26L13 26L13 29L16 29L16 28L14 28L14 26L17 26L17 29L25 29L25 27L23 27L23 26L22 26L22 25L24 25L24 26L25 26L25 25L26 25L26 26L27 26L27 27L26 27L26 28L27 28L27 29L28 29L28 28L29 28L29 27L28 27L28 25L29 25L29 24L28 24L28 23L27 23L27 22L28 22L28 21L29 21L29 20L28 20L28 19L27 19L27 17L28 17L28 10L29 10L29 8L26 8L26 9L27 9L27 10L25 10L25 12L24 12L24 11L22 11L22 12L23 12L23 13L21 13L21 15L22 15L22 14L23 14L23 13L24 13L24 19L25 19L25 20L23 20L23 19L22 19L22 18L20 18L20 19L21 19L21 20L20 20L20 25L18 25L18 26L17 26L17 25L15 25L15 24L16 24L16 23L15 23L15 22L16 22L16 21L18 21L18 22L17 22L17 24L18 24L18 23L19 23L19 20L18 20L18 19L19 19L19 18L17 18L17 19L16 19L16 17L18 17L18 16L19 16L19 15L17 15L17 14L16 14L16 13L20 13L20 12L21 12L21 11L20 11L20 10L22 10L22 9L23 9L23 10L24 10L24 8L21 8L21 5L20 5L20 4L21 4L21 3L20 3L20 4L19 4L19 3L18 3L18 4L15 4L15 3L16 3L16 2L13 2L13 3L14 3L14 4L13 4L13 5L12 5L12 4L11 4L11 3L12 3L12 1L13 1L13 0L12 0L12 1L11 1L11 2L10 2L10 0ZM14 0L14 1L16 1L16 0ZM18 1L18 2L19 2L19 1ZM20 1L20 2L21 2L21 1ZM10 4L10 6L9 6L9 9L11 9L11 7L12 7L12 6L11 6L11 4ZM15 5L15 7L16 7L16 8L15 8L15 9L13 9L13 10L12 10L12 12L13 12L13 14L12 14L12 13L11 13L11 14L10 14L10 12L11 12L11 11L10 11L10 10L8 10L8 11L9 11L9 12L7 12L7 11L5 11L5 9L4 9L4 10L3 10L3 11L2 11L2 12L4 12L4 11L5 11L5 15L4 15L4 14L3 14L3 13L2 13L2 14L3 14L3 15L4 15L4 16L3 16L3 17L4 17L4 16L5 16L5 15L6 15L6 16L7 16L7 15L6 15L6 14L8 14L8 13L9 13L9 14L10 14L10 16L11 16L11 15L12 15L12 17L16 17L16 14L15 14L15 16L14 16L14 15L13 15L13 14L14 14L14 13L16 13L16 12L15 12L15 11L17 11L17 12L19 12L19 10L20 10L20 9L21 9L21 8L20 8L20 9L19 9L19 8L17 8L17 7L18 7L18 6L19 6L19 7L20 7L20 6L19 6L19 5L18 5L18 6L17 6L17 7L16 7L16 5ZM10 6L10 7L11 7L11 6ZM13 6L13 7L14 7L14 6ZM0 9L0 10L1 10L1 9ZM15 9L15 10L13 10L13 11L15 11L15 10L19 10L19 9ZM6 12L6 13L7 13L7 12ZM25 12L25 13L26 13L26 14L27 14L27 12ZM8 15L8 16L9 16L9 15ZM25 15L25 16L27 16L27 15ZM20 16L20 17L22 17L22 16ZM8 17L8 18L9 18L9 17ZM12 18L12 19L13 19L13 20L12 20L12 22L13 22L13 20L14 20L14 19L15 19L15 20L16 20L16 19L15 19L15 18L14 18L14 19L13 19L13 18ZM26 19L26 20L25 20L25 21L26 21L26 22L25 22L25 24L26 24L26 25L27 25L27 23L26 23L26 22L27 22L27 21L28 21L28 20L27 20L27 19ZM14 21L14 22L15 22L15 21ZM21 21L21 24L24 24L24 21ZM10 22L10 23L11 23L11 22ZM22 22L22 23L23 23L23 22ZM12 23L12 24L13 24L13 23ZM10 24L10 25L11 25L11 24ZM9 26L9 27L10 27L10 26ZM20 26L20 27L19 27L19 28L22 28L22 27L21 27L21 26ZM0 0L0 7L7 7L7 0ZM1 1L1 6L6 6L6 1ZM2 2L2 5L5 5L5 2ZM22 0L22 7L29 7L29 0ZM23 1L23 6L28 6L28 1ZM24 2L24 5L27 5L27 2ZM0 22L0 29L7 29L7 22ZM1 23L1 28L6 28L6 23ZM2 24L2 27L5 27L5 24Z" fill="#000000"/></g></g></svg>
