<?xml version="1.0" encoding="UTF-8"?>
<svg xmlns="http://www.w3.org/2000/svg" version="1.1" width="200" height="200" viewBox="0 0 200 200"><rect x="0" y="0" width="200" height="200" fill="#ffffff"/><g transform="scale(4.878)"><g transform="translate(0,0)"><path fill-rule="evenodd" d="M8 0L8 3L9 3L9 5L8 5L8 9L9 9L9 11L8 11L8 10L6 10L6 9L7 9L7 8L6 8L6 9L5 9L5 8L2 8L2 9L4 9L4 10L5 10L5 11L4 11L4 12L3 12L3 13L2 13L2 11L3 11L3 10L2 10L2 11L1 11L1 12L0 12L0 13L1 13L1 14L0 14L0 15L2 15L2 16L3 16L3 17L1 17L1 16L0 16L0 17L1 17L1 18L3 18L3 17L4 17L4 20L5 20L5 24L4 24L4 25L3 25L3 24L2 24L2 22L1 22L1 25L0 25L0 26L1 26L1 27L0 27L0 33L1 33L1 30L2 30L2 31L4 31L4 33L5 33L5 31L7 31L7 32L6 32L6 33L8 33L8 34L9 34L9 35L10 35L10 34L9 34L9 33L11 33L11 35L12 35L12 36L10 36L10 37L11 37L11 38L10 38L10 39L12 39L12 41L13 41L13 39L12 39L12 37L13 37L13 38L14 38L14 39L15 39L15 40L14 40L14 41L17 41L17 40L18 40L18 39L17 39L17 38L19 38L19 37L18 37L18 34L19 34L19 35L20 35L20 38L21 38L21 40L22 40L22 41L31 41L31 40L33 40L33 41L34 41L34 40L33 40L33 39L32 39L32 37L33 37L33 38L34 38L34 39L35 39L35 40L36 40L36 39L37 39L37 40L40 40L40 38L41 38L41 37L39 37L39 36L41 36L41 35L40 35L40 34L41 34L41 33L39 33L39 32L41 32L41 31L40 31L40 30L41 30L41 29L39 29L39 30L38 30L38 29L36 29L36 28L38 28L38 26L39 26L39 27L40 27L40 28L41 28L41 27L40 27L40 26L41 26L41 23L39 23L39 24L40 24L40 26L39 26L39 25L33 25L33 24L35 24L35 23L36 23L36 24L37 24L37 22L38 22L38 21L39 21L39 20L36 20L36 19L35 19L35 17L36 17L36 18L37 18L37 17L38 17L38 18L41 18L41 16L40 16L40 17L39 17L39 16L37 16L37 15L40 15L40 14L41 14L41 13L40 13L40 14L37 14L37 13L36 13L36 14L35 14L35 15L36 15L36 16L35 16L35 17L34 17L34 16L32 16L32 17L30 17L30 16L29 16L29 15L31 15L31 12L32 12L32 13L33 13L33 14L32 14L32 15L34 15L34 13L35 13L35 12L38 12L38 11L40 11L40 12L41 12L41 11L40 11L40 10L41 10L41 8L38 8L38 9L40 9L40 10L37 10L37 9L36 9L36 8L31 8L31 5L32 5L32 4L33 4L33 0L29 0L29 1L27 1L27 0L26 0L26 1L27 1L27 2L26 2L26 3L28 3L28 4L29 4L29 3L31 3L31 2L30 2L30 1L32 1L32 4L30 4L30 8L29 8L29 9L28 9L28 10L27 10L27 8L28 8L28 7L29 7L29 5L27 5L27 4L26 4L26 7L25 7L25 4L24 4L24 3L25 3L25 0L23 0L23 1L22 1L22 0L21 0L21 1L20 1L20 2L23 2L23 1L24 1L24 3L22 3L22 8L21 8L21 6L20 6L20 8L19 8L19 9L20 9L20 8L21 8L21 9L22 9L22 10L19 10L19 11L20 11L20 12L21 12L21 11L22 11L22 15L21 15L21 14L20 14L20 13L19 13L19 12L18 12L18 11L16 11L16 12L14 12L14 11L15 11L15 10L14 10L14 11L13 11L13 8L14 8L14 9L15 9L15 8L17 8L17 9L18 9L18 8L17 8L17 6L18 6L18 7L19 7L19 6L18 6L18 5L21 5L21 3L19 3L19 2L18 2L18 1L19 1L19 0L18 0L18 1L17 1L17 2L16 2L16 3L15 3L15 2L14 2L14 1L13 1L13 0L12 0L12 2L11 2L11 4L10 4L10 2L9 2L9 0ZM10 0L10 1L11 1L11 0ZM15 0L15 1L16 1L16 0ZM13 2L13 3L12 3L12 6L11 6L11 5L9 5L9 7L10 7L10 6L11 6L11 7L12 7L12 6L13 6L13 7L14 7L14 8L15 8L15 7L16 7L16 6L15 6L15 7L14 7L14 6L13 6L13 3L14 3L14 5L15 5L15 3L14 3L14 2ZM17 2L17 3L18 3L18 4L19 4L19 3L18 3L18 2ZM23 6L23 7L24 7L24 9L23 9L23 8L22 8L22 9L23 9L23 10L22 10L22 11L23 11L23 15L25 15L25 16L24 16L24 17L22 17L22 16L21 16L21 15L20 15L20 14L19 14L19 13L18 13L18 12L17 12L17 14L16 14L16 16L18 16L18 17L19 17L19 16L21 16L21 17L20 17L20 18L19 18L19 19L18 19L18 18L17 18L17 19L16 19L16 18L15 18L15 20L14 20L14 19L12 19L12 18L14 18L14 16L15 16L15 13L14 13L14 12L13 12L13 11L9 11L9 13L8 13L8 11L6 11L6 12L5 12L5 13L3 13L3 14L2 14L2 15L5 15L5 16L7 16L7 15L8 15L8 17L6 17L6 18L8 18L8 19L5 19L5 20L8 20L8 19L9 19L9 21L8 21L8 22L7 22L7 21L6 21L6 22L7 22L7 23L6 23L6 24L7 24L7 23L8 23L8 24L9 24L9 23L8 23L8 22L10 22L10 20L11 20L11 21L14 21L14 23L12 23L12 22L11 22L11 23L10 23L10 25L6 25L6 26L5 26L5 28L7 28L7 29L6 29L6 30L7 30L7 31L8 31L8 33L9 33L9 32L11 32L11 33L12 33L12 34L14 34L14 35L15 35L15 36L16 36L16 35L17 35L17 34L18 34L18 33L19 33L19 34L20 34L20 35L21 35L21 37L22 37L22 40L23 40L23 39L24 39L24 40L25 40L25 39L24 39L24 38L23 38L23 37L25 37L25 38L28 38L28 37L29 37L29 39L28 39L28 40L30 40L30 39L31 39L31 38L30 38L30 37L32 37L32 35L31 35L31 33L30 33L30 35L31 35L31 36L29 36L29 33L27 33L27 31L25 31L25 29L23 29L23 28L25 28L25 27L27 27L27 26L29 26L29 28L30 28L30 29L28 29L28 30L30 30L30 29L31 29L31 30L32 30L32 31L33 31L33 32L36 32L36 31L38 31L38 32L37 32L37 33L38 33L38 34L37 34L37 36L39 36L39 35L38 35L38 34L39 34L39 33L38 33L38 32L39 32L39 31L38 31L38 30L36 30L36 29L35 29L35 28L36 28L36 27L37 27L37 26L36 26L36 27L35 27L35 26L34 26L34 27L33 27L33 25L32 25L32 24L33 24L33 22L34 22L34 23L35 23L35 22L36 22L36 21L35 21L35 19L34 19L34 18L33 18L33 17L32 17L32 18L31 18L31 19L30 19L30 17L29 17L29 16L28 16L28 15L29 15L29 14L30 14L30 13L29 13L29 12L31 12L31 11L32 11L32 12L33 12L33 13L34 13L34 12L33 12L33 11L34 11L34 9L32 9L32 10L30 10L30 9L31 9L31 8L30 8L30 9L29 9L29 11L25 11L25 10L26 10L26 8L25 8L25 7L24 7L24 6ZM27 6L27 7L28 7L28 6ZM32 6L32 7L33 7L33 6ZM10 8L10 10L11 10L11 8ZM0 9L0 10L1 10L1 9ZM35 9L35 11L37 11L37 10L36 10L36 9ZM24 11L24 14L26 14L26 16L25 16L25 17L24 17L24 18L23 18L23 20L22 20L22 21L21 21L21 19L22 19L22 17L21 17L21 19L19 19L19 21L21 21L21 22L20 22L20 23L22 23L22 25L21 25L21 24L20 24L20 25L19 25L19 26L18 26L18 24L17 24L17 23L19 23L19 22L18 22L18 21L17 21L17 20L18 20L18 19L17 19L17 20L16 20L16 22L17 22L17 23L16 23L16 24L14 24L14 25L13 25L13 24L12 24L12 23L11 23L11 24L12 24L12 26L10 26L10 28L9 28L9 27L8 27L8 26L6 26L6 27L7 27L7 28L8 28L8 29L7 29L7 30L9 30L9 31L12 31L12 33L14 33L14 34L17 34L17 29L18 29L18 30L19 30L19 31L18 31L18 32L19 32L19 33L20 33L20 34L21 34L21 35L23 35L23 33L22 33L22 32L20 32L20 30L19 30L19 26L20 26L20 27L21 27L21 26L22 26L22 28L23 28L23 27L24 27L24 26L22 26L22 25L25 25L25 26L27 26L27 25L29 25L29 26L30 26L30 25L31 25L31 26L32 26L32 25L31 25L31 24L29 24L29 23L28 23L28 22L27 22L27 23L26 23L26 21L29 21L29 20L28 20L28 18L27 18L27 17L26 17L26 16L27 16L27 14L29 14L29 13L28 13L28 12L27 12L27 13L26 13L26 12L25 12L25 11ZM6 12L6 13L5 13L5 14L6 14L6 15L7 15L7 14L6 14L6 13L7 13L7 12ZM10 12L10 13L9 13L9 14L8 14L8 15L10 15L10 16L11 16L11 18L10 18L10 17L8 17L8 18L9 18L9 19L11 19L11 20L12 20L12 19L11 19L11 18L12 18L12 16L13 16L13 15L11 15L11 14L12 14L12 13L11 13L11 12ZM17 14L17 15L18 15L18 14ZM36 14L36 15L37 15L37 14ZM36 16L36 17L37 17L37 16ZM24 18L24 20L23 20L23 22L24 22L24 23L23 23L23 24L24 24L24 23L25 23L25 24L26 24L26 23L25 23L25 21L26 21L26 19L27 19L27 18ZM32 18L32 19L31 19L31 20L30 20L30 21L31 21L31 22L32 22L32 21L34 21L34 22L35 22L35 21L34 21L34 20L33 20L33 18ZM0 20L0 21L1 21L1 20ZM2 20L2 21L3 21L3 23L4 23L4 21L3 21L3 20ZM24 20L24 21L25 21L25 20ZM31 20L31 21L32 21L32 20ZM40 20L40 21L41 21L41 20ZM16 24L16 25L17 25L17 24ZM1 25L1 26L3 26L3 27L4 27L4 26L3 26L3 25ZM20 25L20 26L21 26L21 25ZM12 26L12 27L13 27L13 29L11 29L11 28L10 28L10 30L12 30L12 31L13 31L13 32L14 32L14 31L15 31L15 33L16 33L16 31L15 31L15 30L14 30L14 29L15 29L15 28L16 28L16 29L17 29L17 27L18 27L18 26L16 26L16 27L13 27L13 26ZM3 28L3 30L4 30L4 31L5 31L5 29L4 29L4 28ZM33 28L33 29L32 29L32 30L33 30L33 29L34 29L34 28ZM21 29L21 30L22 30L22 31L23 31L23 32L24 32L24 31L23 31L23 30L22 30L22 29ZM34 30L34 31L36 31L36 30ZM28 31L28 32L31 32L31 31ZM2 32L2 33L3 33L3 32ZM21 33L21 34L22 34L22 33ZM24 33L24 35L25 35L25 37L28 37L28 34L27 34L27 33L26 33L26 34L25 34L25 33ZM33 33L33 36L36 36L36 33ZM26 34L26 36L27 36L27 34ZM34 34L34 35L35 35L35 34ZM8 36L8 39L9 39L9 36ZM13 36L13 37L14 37L14 36ZM15 37L15 38L16 38L16 37ZM34 37L34 38L36 38L36 37ZM37 38L37 39L38 39L38 38ZM19 39L19 41L20 41L20 39ZM26 39L26 40L27 40L27 39ZM10 40L10 41L11 41L11 40ZM0 0L0 7L7 7L7 0ZM1 1L1 6L6 6L6 1ZM2 2L2 5L5 5L5 2ZM34 0L34 7L41 7L41 0ZM35 1L35 6L40 6L40 1ZM36 2L36 5L39 5L39 2ZM0 34L0 41L7 41L7 34ZM1 35L1 40L6 40L6 35ZM2 36L2 39L5 39L5 36Z" fill="#000000"/></g></g></svg>
