<?xml version="1.0" encoding="UTF-8"?>
<svg xmlns="http://www.w3.org/2000/svg" version="1.1" width="200" height="200" viewBox="0 0 200 200"><rect x="0" y="0" width="200" height="200" fill="#ffffff"/><g transform="scale(4.878)"><g transform="translate(0,0)"><path fill-rule="evenodd" d="M8 0L8 3L9 3L9 4L10 4L10 1L11 1L11 2L12 2L12 3L11 3L11 4L12 4L12 3L13 3L13 1L14 1L14 4L13 4L13 6L12 6L12 8L13 8L13 6L14 6L14 7L15 7L15 8L14 8L14 9L15 9L15 10L14 10L14 11L13 11L13 10L12 10L12 9L11 9L11 11L7 11L7 10L8 10L8 9L9 9L9 10L10 10L10 8L9 8L9 5L8 5L8 9L7 9L7 8L6 8L6 9L7 9L7 10L5 10L5 8L2 8L2 9L1 9L1 11L0 11L0 12L1 12L1 13L0 13L0 18L1 18L1 17L4 17L4 18L2 18L2 19L4 19L4 20L3 20L3 24L2 24L2 23L1 23L1 24L2 24L2 25L4 25L4 26L5 26L5 25L4 25L4 23L5 23L5 24L6 24L6 25L7 25L7 26L6 26L6 27L5 27L5 28L4 28L4 29L1 29L1 28L3 28L3 26L2 26L2 27L0 27L0 33L1 33L1 30L2 30L2 32L4 32L4 31L3 31L3 30L5 30L5 31L8 31L8 32L9 32L9 33L8 33L8 34L9 34L9 35L10 35L10 36L11 36L11 37L12 37L12 38L9 38L9 36L8 36L8 39L10 39L10 40L9 40L9 41L10 41L10 40L11 40L11 41L12 41L12 40L11 40L11 39L13 39L13 38L14 38L14 37L13 37L13 35L11 35L11 33L12 33L12 34L13 34L13 33L14 33L14 31L15 31L15 30L16 30L16 29L17 29L17 31L16 31L16 32L15 32L15 33L16 33L16 32L17 32L17 34L18 34L18 35L17 35L17 36L15 36L15 35L16 35L16 34L14 34L14 36L15 36L15 37L16 37L16 38L17 38L17 37L18 37L18 40L17 40L17 39L16 39L16 40L17 40L17 41L18 41L18 40L20 40L20 39L21 39L21 38L22 38L22 36L21 36L21 35L20 35L20 36L21 36L21 37L18 37L18 36L19 36L19 34L20 34L20 33L21 33L21 32L20 32L20 31L19 31L19 32L17 32L17 31L18 31L18 29L19 29L19 27L20 27L20 26L21 26L21 24L18 24L18 23L15 23L15 20L16 20L16 22L17 22L17 21L18 21L18 20L19 20L19 19L20 19L20 18L22 18L22 19L21 19L21 20L20 20L20 21L19 21L19 22L20 22L20 23L21 23L21 22L22 22L22 24L23 24L23 26L22 26L22 27L21 27L21 28L23 28L23 30L24 30L24 29L26 29L26 28L27 28L27 30L26 30L26 32L25 32L25 31L22 31L22 29L20 29L20 30L21 30L21 31L22 31L22 32L25 32L25 33L26 33L26 32L27 32L27 33L28 33L28 34L25 34L25 36L24 36L24 34L23 34L23 39L22 39L22 40L25 40L25 39L26 39L26 40L28 40L28 41L31 41L31 40L33 40L33 41L34 41L34 40L33 40L33 39L35 39L35 40L36 40L36 39L37 39L37 40L40 40L40 38L41 38L41 36L38 36L38 35L40 35L40 34L41 34L41 33L39 33L39 32L37 32L37 31L40 31L40 32L41 32L41 31L40 31L40 30L41 30L41 29L39 29L39 30L38 30L38 29L35 29L35 30L34 30L34 31L35 31L35 30L37 30L37 31L36 31L36 32L33 32L33 31L32 31L32 30L33 30L33 29L34 29L34 28L33 28L33 27L34 27L34 26L35 26L35 25L36 25L36 27L35 27L35 28L38 28L38 26L39 26L39 27L40 27L40 28L41 28L41 27L40 27L40 26L41 26L41 23L39 23L39 22L38 22L38 21L39 21L39 20L38 20L38 17L39 17L39 16L37 16L37 15L38 15L38 14L37 14L37 13L36 13L36 14L37 14L37 15L36 15L36 16L35 16L35 17L34 17L34 16L33 16L33 17L31 17L31 16L29 16L29 15L28 15L28 16L29 16L29 17L31 17L31 18L30 18L30 19L31 19L31 20L30 20L30 21L31 21L31 22L32 22L32 23L33 23L33 22L32 22L32 21L34 21L34 22L35 22L35 23L36 23L36 24L35 24L35 25L34 25L34 24L31 24L31 23L30 23L30 24L29 24L29 23L28 23L28 22L27 22L27 21L29 21L29 20L27 20L27 21L26 21L26 22L25 22L25 21L23 21L23 22L22 22L22 21L21 21L21 20L22 20L22 19L23 19L23 20L24 20L24 19L23 19L23 15L22 15L22 16L20 16L20 17L19 17L19 18L18 18L18 15L17 15L17 14L20 14L20 15L21 15L21 12L22 12L22 14L24 14L24 15L25 15L25 16L26 16L26 15L27 15L27 14L29 14L29 13L30 13L30 15L31 15L31 11L30 11L30 12L29 12L29 13L28 13L28 12L27 12L27 13L26 13L26 12L25 12L25 13L26 13L26 15L25 15L25 14L24 14L24 11L25 11L25 10L27 10L27 11L28 11L28 10L27 10L27 9L30 9L30 10L32 10L32 13L33 13L33 14L32 14L32 15L34 15L34 13L35 13L35 12L38 12L38 11L39 11L39 12L41 12L41 11L40 11L40 10L41 10L41 8L38 8L38 9L40 9L40 10L37 10L37 9L36 9L36 8L33 8L33 9L32 9L32 8L31 8L31 6L30 6L30 5L32 5L32 4L33 4L33 3L32 3L32 2L33 2L33 0L29 0L29 1L27 1L27 0L26 0L26 1L27 1L27 2L26 2L26 3L28 3L28 4L29 4L29 3L32 3L32 4L30 4L30 5L27 5L27 4L26 4L26 5L25 5L25 4L24 4L24 5L25 5L25 6L24 6L24 7L23 7L23 6L22 6L22 7L21 7L21 6L20 6L20 7L19 7L19 6L18 6L18 7L17 7L17 6L16 6L16 7L15 7L15 5L18 5L18 3L19 3L19 4L20 4L20 5L22 5L22 4L23 4L23 3L21 3L21 1L22 1L22 0L18 0L18 1L17 1L17 0L15 0L15 1L14 1L14 0ZM23 0L23 2L24 2L24 3L25 3L25 2L24 2L24 0ZM15 1L15 2L17 2L17 1ZM18 1L18 2L20 2L20 1ZM30 1L30 2L32 2L32 1ZM14 4L14 5L15 5L15 4ZM10 5L10 7L11 7L11 5ZM25 6L25 7L24 7L24 8L25 8L25 9L26 9L26 8L28 8L28 6L27 6L27 7L26 7L26 6ZM29 6L29 8L30 8L30 9L31 9L31 8L30 8L30 6ZM32 6L32 7L33 7L33 6ZM18 7L18 9L17 9L17 8L16 8L16 9L17 9L17 10L15 10L15 12L14 12L14 13L15 13L15 12L16 12L16 11L17 11L17 10L19 10L19 11L18 11L18 12L21 12L21 11L20 11L20 10L22 10L22 11L23 11L23 10L24 10L24 9L23 9L23 7L22 7L22 9L21 9L21 7L20 7L20 8L19 8L19 7ZM25 7L25 8L26 8L26 7ZM2 9L2 10L4 10L4 9ZM19 9L19 10L20 10L20 9ZM22 9L22 10L23 10L23 9ZM33 10L33 11L34 11L34 10ZM35 10L35 11L36 11L36 10ZM1 11L1 12L2 12L2 13L1 13L1 16L2 16L2 13L3 13L3 14L5 14L5 16L4 16L4 15L3 15L3 16L4 16L4 17L5 17L5 16L7 16L7 15L6 15L6 14L8 14L8 17L6 17L6 18L9 18L9 19L8 19L8 20L9 20L9 21L10 21L10 23L11 23L11 21L13 21L13 22L14 22L14 21L13 21L13 20L10 20L10 18L11 18L11 19L12 19L12 18L11 18L11 17L10 17L10 16L9 16L9 15L10 15L10 13L11 13L11 16L12 16L12 13L13 13L13 12L12 12L12 11L11 11L11 12L10 12L10 13L6 13L6 12L7 12L7 11L6 11L6 12L5 12L5 11L4 11L4 13L3 13L3 11ZM33 12L33 13L34 13L34 12ZM40 13L40 14L39 14L39 15L40 15L40 14L41 14L41 13ZM14 14L14 16L13 16L13 17L14 17L14 18L16 18L16 20L18 20L18 19L17 19L17 15L16 15L16 16L15 16L15 14ZM36 16L36 17L35 17L35 19L34 19L34 18L31 18L31 19L33 19L33 20L34 20L34 21L35 21L35 22L36 22L36 21L35 21L35 19L36 19L36 20L37 20L37 21L38 21L38 20L37 20L37 18L36 18L36 17L37 17L37 16ZM40 16L40 18L39 18L39 19L40 19L40 18L41 18L41 16ZM9 17L9 18L10 18L10 17ZM25 17L25 19L26 19L26 18L27 18L27 19L29 19L29 18L27 18L27 17ZM4 18L4 19L5 19L5 18ZM6 19L6 20L7 20L7 19ZM0 20L0 22L2 22L2 21L1 21L1 20ZM31 20L31 21L32 21L32 20ZM40 20L40 21L41 21L41 20ZM4 21L4 22L5 22L5 23L6 23L6 24L9 24L9 23L8 23L8 21ZM6 22L6 23L7 23L7 22ZM37 22L37 24L36 24L36 25L39 25L39 26L40 26L40 24L39 24L39 23L38 23L38 22ZM23 23L23 24L28 24L28 25L27 25L27 26L28 26L28 25L29 25L29 24L28 24L28 23ZM11 24L11 26L10 26L10 25L9 25L9 26L7 26L7 27L6 27L6 28L7 28L7 29L6 29L6 30L7 30L7 29L8 29L8 31L10 31L10 33L9 33L9 34L10 34L10 33L11 33L11 32L12 32L12 33L13 33L13 31L14 31L14 30L15 30L15 29L16 29L16 27L15 27L15 26L16 26L16 25L15 25L15 26L14 26L14 27L15 27L15 28L13 28L13 25L12 25L12 24ZM17 24L17 25L18 25L18 26L19 26L19 25L18 25L18 24ZM0 25L0 26L1 26L1 25ZM24 25L24 27L23 27L23 28L24 28L24 27L25 27L25 25ZM30 25L30 26L29 26L29 27L28 27L28 28L31 28L31 29L28 29L28 30L30 30L30 31L28 31L28 33L29 33L29 32L30 32L30 33L31 33L31 34L30 34L30 35L31 35L31 34L32 34L32 33L31 33L31 32L30 32L30 31L31 31L31 30L32 30L32 29L33 29L33 28L32 28L32 26L34 26L34 25L32 25L32 26L31 26L31 25ZM7 27L7 28L10 28L10 27ZM17 27L17 28L18 28L18 27ZM11 28L11 29L9 29L9 30L10 30L10 31L13 31L13 30L14 30L14 29L12 29L12 28ZM6 32L6 33L7 33L7 32ZM18 33L18 34L19 34L19 33ZM33 33L33 36L36 36L36 33ZM37 33L37 34L39 34L39 33ZM28 34L28 35L29 35L29 34ZM34 34L34 35L35 35L35 34ZM26 36L26 37L27 37L27 38L26 38L26 39L27 39L27 38L28 38L28 40L31 40L31 39L30 39L30 37L32 37L32 39L33 39L33 38L36 38L36 37L32 37L32 36L28 36L28 37L27 37L27 36ZM37 36L37 37L38 37L38 36ZM28 37L28 38L29 38L29 37ZM24 38L24 39L25 39L25 38ZM37 38L37 39L38 39L38 38ZM0 0L0 7L7 7L7 0ZM1 1L1 6L6 6L6 1ZM2 2L2 5L5 5L5 2ZM34 0L34 7L41 7L41 0ZM35 1L35 6L40 6L40 1ZM36 2L36 5L39 5L39 2ZM0 34L0 41L7 41L7 34ZM1 35L1 40L6 40L6 35ZM2 36L2 39L5 39L5 36Z" fill="#000000"/></g></g></svg>
